<svg width="615" height="392" viewBox="0 0 615 392" fill="none" xmlns="http://www.w3.org/2000/svg">
<g clip-path="url(#clip0_1689_112156)">
<rect width="615" height="392" fill="white"/>
<rect width="1120" height="958" fill="#F2F2F2"/>
<rect width="1120" height="69" fill="#F2F2F2"/>
<path d="M54.6426 42.6426C55.116 42.6426 55.5 43.0266 55.5 43.5V45.6426C55.5 46.116 55.116 46.5 54.6426 46.5H32.3574C31.884 46.5 31.5 46.116 31.5 45.6426V43.5C31.5 43.0266 31.884 42.6426 32.3574 42.6426H54.6426ZM54.6426 34.0713C55.116 34.0713 55.5 34.4553 55.5 34.9287V37.0713C55.5 37.5447 55.116 37.9287 54.6426 37.9287H32.3574C31.884 37.9287 31.5 37.5447 31.5 37.0713V34.9287C31.5 34.4553 31.884 34.0713 32.3574 34.0713H54.6426ZM54.6426 25.5C55.116 25.5 55.5 25.884 55.5 26.3574V28.5C55.5 28.9734 55.116 29.3574 54.6426 29.3574H32.3574C31.884 29.3574 31.5 28.9734 31.5 28.5V26.3574C31.5 25.884 31.884 25.5 32.3574 25.5H54.6426Z" fill="#1F1F1F"/>
<path fill-rule="evenodd" clip-rule="evenodd" d="M91.4783 16H114V38.5217H111.587C100.481 38.5217 91.4783 29.5188 91.4783 18.413V16Z" fill="#0066CC"/>
<path fill-rule="evenodd" clip-rule="evenodd" d="M114 16.8043L92.2826 53H109.316C111.903 53 114 50.9031 114 48.3164V16.8043Z" fill="url(#paint0_linear_1689_112156)"/>
<path fill-rule="evenodd" clip-rule="evenodd" d="M113.196 16L77 37.7174V20.6836C77 18.0969 79.0969 16 81.6836 16L113.196 16Z" fill="url(#paint1_linear_1689_112156)"/>
<rect width="254" height="768" transform="translate(0 69)" fill="#F2F2F2"/>
<path d="M41.246 116V106.2H42.366L48.106 114.32L48.078 106.2H49.1V116H48.12L42.24 107.698L42.268 116H41.246ZM53.3769 116.126C52.8916 116.126 52.4622 116.037 52.0889 115.86C51.7156 115.683 51.4216 115.44 51.2069 115.132C51.0016 114.815 50.8989 114.451 50.8989 114.04C50.8989 113.629 51.0062 113.275 51.2209 112.976C51.4356 112.668 51.7342 112.43 52.1169 112.262C52.4996 112.094 52.9476 112.01 53.4609 112.01C53.8529 112.01 54.2216 112.052 54.5669 112.136C54.9216 112.22 55.2482 112.355 55.5469 112.542V111.604C55.5469 111.044 55.3976 110.624 55.0989 110.344C54.8002 110.055 54.3616 109.91 53.7829 109.91C53.4656 109.91 53.1389 109.957 52.8029 110.05C52.4762 110.143 52.1122 110.293 51.7109 110.498L51.3329 109.714C52.2476 109.275 53.1062 109.056 53.9089 109.056C54.7582 109.056 55.4116 109.266 55.8689 109.686C56.3262 110.097 56.5549 110.689 56.5549 111.464V116H55.5469V115.202C55.2482 115.51 54.9169 115.743 54.5529 115.902C54.1889 116.051 53.7969 116.126 53.3769 116.126ZM51.8789 114.012C51.8789 114.413 52.0329 114.735 52.3409 114.978C52.6582 115.221 53.0736 115.342 53.5869 115.342C53.9696 115.342 54.3196 115.277 54.6369 115.146C54.9636 115.015 55.2669 114.819 55.5469 114.558V113.242C55.2576 113.074 54.9589 112.953 54.6509 112.878C54.3429 112.794 53.9976 112.752 53.6149 112.752C53.0922 112.752 52.6722 112.869 52.3549 113.102C52.0376 113.326 51.8789 113.629 51.8789 114.012ZM60.3186 116L57.5186 109.168H58.6246L60.8366 114.726L63.0206 109.168H64.1126L61.2986 116H60.3186ZM68.6258 116V109.168H69.6478V116H68.6258ZM69.1438 107.474C68.9385 107.474 68.7612 107.404 68.6118 107.264C68.4718 107.115 68.4018 106.942 68.4018 106.746C68.4018 106.55 68.4718 106.382 68.6118 106.242C68.7612 106.093 68.9385 106.018 69.1438 106.018C69.3492 106.018 69.5218 106.093 69.6618 106.242C69.8112 106.382 69.8858 106.55 69.8858 106.746C69.8858 106.942 69.8112 107.115 69.6618 107.264C69.5218 107.404 69.3492 107.474 69.1438 107.474ZM74.3474 116.14C73.7594 116.14 73.3114 116 73.0034 115.72C72.7047 115.431 72.5554 115.015 72.5554 114.474V110.008H71.1414V109.168H72.5554V107.292L73.5774 107.054V109.168H75.5374V110.008H73.5774V114.208C73.5774 114.572 73.652 114.833 73.8014 114.992C73.96 115.151 74.2167 115.23 74.5714 115.23C74.7487 115.23 74.9074 115.216 75.0474 115.188C75.1874 115.16 75.3507 115.113 75.5374 115.048V115.958C75.3507 116.023 75.1547 116.07 74.9494 116.098C74.744 116.126 74.5434 116.14 74.3474 116.14ZM79.9777 116.14C79.343 116.14 78.769 115.986 78.2557 115.678C77.7423 115.361 77.3363 114.936 77.0377 114.404C76.739 113.863 76.5897 113.256 76.5897 112.584C76.5897 111.912 76.7297 111.31 77.0097 110.778C77.299 110.246 77.6863 109.826 78.1717 109.518C78.657 109.21 79.1983 109.056 79.7957 109.056C80.4023 109.056 80.939 109.21 81.4057 109.518C81.8817 109.817 82.255 110.227 82.5257 110.75C82.8057 111.263 82.9457 111.847 82.9457 112.5V112.808H77.5837C77.621 113.275 77.747 113.695 77.9617 114.068C78.1857 114.432 78.475 114.721 78.8297 114.936C79.1937 115.141 79.5903 115.244 80.0197 115.244C80.3743 115.244 80.715 115.183 81.0417 115.062C81.3777 114.931 81.6623 114.759 81.8957 114.544L82.5397 115.23C82.1477 115.538 81.7417 115.767 81.3217 115.916C80.9017 116.065 80.4537 116.14 79.9777 116.14ZM77.6117 112.08H81.9377C81.891 111.669 81.765 111.305 81.5597 110.988C81.3637 110.661 81.1117 110.405 80.8037 110.218C80.505 110.031 80.169 109.938 79.7957 109.938C79.4223 109.938 79.0817 110.031 78.7737 110.218C78.4657 110.395 78.209 110.647 78.0037 110.974C77.8077 111.291 77.677 111.66 77.6117 112.08ZM84.6906 116V109.168H85.7126V110.232C85.974 109.84 86.2726 109.546 86.6086 109.35C86.9446 109.154 87.3226 109.056 87.7426 109.056C88.228 109.056 88.6526 109.177 89.0166 109.42C89.3806 109.653 89.656 109.975 89.8426 110.386C90.1133 109.947 90.4353 109.616 90.8086 109.392C91.1913 109.168 91.63 109.056 92.1246 109.056C92.582 109.056 92.9833 109.163 93.3286 109.378C93.6833 109.593 93.9586 109.891 94.1546 110.274C94.3506 110.647 94.4486 111.086 94.4486 111.59V116H93.4266V111.842C93.4266 111.245 93.2773 110.773 92.9786 110.428C92.68 110.083 92.2693 109.91 91.7466 109.91C91.392 109.91 91.07 109.999 90.7806 110.176C90.5006 110.353 90.2533 110.624 90.0386 110.988C90.0573 111.081 90.0713 111.179 90.0806 111.282C90.09 111.385 90.0946 111.487 90.0946 111.59V116H89.0726V111.842C89.0726 111.245 88.9186 110.773 88.6106 110.428C88.312 110.083 87.9013 109.91 87.3786 109.91C86.6786 109.91 86.1233 110.246 85.7126 110.918V116H84.6906Z" fill="#4D4D4D"/>
<path d="M24 144C24 140.686 26.6863 138 30 138H248C251.314 138 254 140.686 254 144V169C254 172.314 251.314 175 248 175H30C26.6863 175 24 172.314 24 169V144Z" fill="white"/>
<path d="M41.246 161V151.2H42.366L48.106 159.32L48.078 151.2H49.1V161H48.12L42.24 152.698L42.268 161H41.246ZM53.3769 161.126C52.8916 161.126 52.4622 161.037 52.0889 160.86C51.7156 160.683 51.4216 160.44 51.2069 160.132C51.0016 159.815 50.8989 159.451 50.8989 159.04C50.8989 158.629 51.0062 158.275 51.2209 157.976C51.4356 157.668 51.7342 157.43 52.1169 157.262C52.4996 157.094 52.9476 157.01 53.4609 157.01C53.8529 157.01 54.2216 157.052 54.5669 157.136C54.9216 157.22 55.2482 157.355 55.5469 157.542V156.604C55.5469 156.044 55.3976 155.624 55.0989 155.344C54.8002 155.055 54.3616 154.91 53.7829 154.91C53.4656 154.91 53.1389 154.957 52.8029 155.05C52.4762 155.143 52.1122 155.293 51.7109 155.498L51.3329 154.714C52.2476 154.275 53.1062 154.056 53.9089 154.056C54.7582 154.056 55.4116 154.266 55.8689 154.686C56.3262 155.097 56.5549 155.689 56.5549 156.464V161H55.5469V160.202C55.2482 160.51 54.9169 160.743 54.5529 160.902C54.1889 161.051 53.7969 161.126 53.3769 161.126ZM51.8789 159.012C51.8789 159.413 52.0329 159.735 52.3409 159.978C52.6582 160.221 53.0736 160.342 53.5869 160.342C53.9696 160.342 54.3196 160.277 54.6369 160.146C54.9636 160.015 55.2669 159.819 55.5469 159.558V158.242C55.2576 158.074 54.9589 157.953 54.6509 157.878C54.3429 157.794 53.9976 157.752 53.6149 157.752C53.0922 157.752 52.6722 157.869 52.3549 158.102C52.0376 158.326 51.8789 158.629 51.8789 159.012ZM60.3186 161L57.5186 154.168H58.6246L60.8366 159.726L63.0206 154.168H64.1126L61.2986 161H60.3186ZM68.6258 161V154.168H69.6478V161H68.6258ZM69.1438 152.474C68.9385 152.474 68.7612 152.404 68.6118 152.264C68.4718 152.115 68.4018 151.942 68.4018 151.746C68.4018 151.55 68.4718 151.382 68.6118 151.242C68.7612 151.093 68.9385 151.018 69.1438 151.018C69.3492 151.018 69.5218 151.093 69.6618 151.242C69.8112 151.382 69.8858 151.55 69.8858 151.746C69.8858 151.942 69.8112 152.115 69.6618 152.264C69.5218 152.404 69.3492 152.474 69.1438 152.474ZM74.3474 161.14C73.7594 161.14 73.3114 161 73.0034 160.72C72.7047 160.431 72.5554 160.015 72.5554 159.474V155.008H71.1414V154.168H72.5554V152.292L73.5774 152.054V154.168H75.5374V155.008H73.5774V159.208C73.5774 159.572 73.652 159.833 73.8014 159.992C73.96 160.151 74.2167 160.23 74.5714 160.23C74.7487 160.23 74.9074 160.216 75.0474 160.188C75.1874 160.16 75.3507 160.113 75.5374 160.048V160.958C75.3507 161.023 75.1547 161.07 74.9494 161.098C74.744 161.126 74.5434 161.14 74.3474 161.14ZM79.9777 161.14C79.343 161.14 78.769 160.986 78.2557 160.678C77.7423 160.361 77.3363 159.936 77.0377 159.404C76.739 158.863 76.5897 158.256 76.5897 157.584C76.5897 156.912 76.7297 156.31 77.0097 155.778C77.299 155.246 77.6863 154.826 78.1717 154.518C78.657 154.21 79.1983 154.056 79.7957 154.056C80.4023 154.056 80.939 154.21 81.4057 154.518C81.8817 154.817 82.255 155.227 82.5257 155.75C82.8057 156.263 82.9457 156.847 82.9457 157.5V157.808H77.5837C77.621 158.275 77.747 158.695 77.9617 159.068C78.1857 159.432 78.475 159.721 78.8297 159.936C79.1937 160.141 79.5903 160.244 80.0197 160.244C80.3743 160.244 80.715 160.183 81.0417 160.062C81.3777 159.931 81.6623 159.759 81.8957 159.544L82.5397 160.23C82.1477 160.538 81.7417 160.767 81.3217 160.916C80.9017 161.065 80.4537 161.14 79.9777 161.14ZM77.6117 157.08H81.9377C81.891 156.669 81.765 156.305 81.5597 155.988C81.3637 155.661 81.1117 155.405 80.8037 155.218C80.505 155.031 80.169 154.938 79.7957 154.938C79.4223 154.938 79.0817 155.031 78.7737 155.218C78.4657 155.395 78.209 155.647 78.0037 155.974C77.8077 156.291 77.677 156.66 77.6117 157.08ZM84.6906 161V154.168H85.7126V155.232C85.974 154.84 86.2726 154.546 86.6086 154.35C86.9446 154.154 87.3226 154.056 87.7426 154.056C88.228 154.056 88.6526 154.177 89.0166 154.42C89.3806 154.653 89.656 154.975 89.8426 155.386C90.1133 154.947 90.4353 154.616 90.8086 154.392C91.1913 154.168 91.63 154.056 92.1246 154.056C92.582 154.056 92.9833 154.163 93.3286 154.378C93.6833 154.593 93.9586 154.891 94.1546 155.274C94.3506 155.647 94.4486 156.086 94.4486 156.59V161H93.4266V156.842C93.4266 156.245 93.2773 155.773 92.9786 155.428C92.68 155.083 92.2693 154.91 91.7466 154.91C91.392 154.91 91.07 154.999 90.7806 155.176C90.5006 155.353 90.2533 155.624 90.0386 155.988C90.0573 156.081 90.0713 156.179 90.0806 156.282C90.09 156.385 90.0946 156.487 90.0946 156.59V161H89.0726V156.842C89.0726 156.245 88.9186 155.773 88.6106 155.428C88.312 155.083 87.9013 154.91 87.3786 154.91C86.6786 154.91 86.1233 155.246 85.7126 155.918V161H84.6906Z" fill="#151515"/>
<path d="M41.246 206V196.2H42.366L48.106 204.32L48.078 196.2H49.1V206H48.12L42.24 197.698L42.268 206H41.246ZM53.3769 206.126C52.8916 206.126 52.4622 206.037 52.0889 205.86C51.7156 205.683 51.4216 205.44 51.2069 205.132C51.0016 204.815 50.8989 204.451 50.8989 204.04C50.8989 203.629 51.0062 203.275 51.2209 202.976C51.4356 202.668 51.7342 202.43 52.1169 202.262C52.4996 202.094 52.9476 202.01 53.4609 202.01C53.8529 202.01 54.2216 202.052 54.5669 202.136C54.9216 202.22 55.2482 202.355 55.5469 202.542V201.604C55.5469 201.044 55.3976 200.624 55.0989 200.344C54.8002 200.055 54.3616 199.91 53.7829 199.91C53.4656 199.91 53.1389 199.957 52.8029 200.05C52.4762 200.143 52.1122 200.293 51.7109 200.498L51.3329 199.714C52.2476 199.275 53.1062 199.056 53.9089 199.056C54.7582 199.056 55.4116 199.266 55.8689 199.686C56.3262 200.097 56.5549 200.689 56.5549 201.464V206H55.5469V205.202C55.2482 205.51 54.9169 205.743 54.5529 205.902C54.1889 206.051 53.7969 206.126 53.3769 206.126ZM51.8789 204.012C51.8789 204.413 52.0329 204.735 52.3409 204.978C52.6582 205.221 53.0736 205.342 53.5869 205.342C53.9696 205.342 54.3196 205.277 54.6369 205.146C54.9636 205.015 55.2669 204.819 55.5469 204.558V203.242C55.2576 203.074 54.9589 202.953 54.6509 202.878C54.3429 202.794 53.9976 202.752 53.6149 202.752C53.0922 202.752 52.6722 202.869 52.3549 203.102C52.0376 203.326 51.8789 203.629 51.8789 204.012ZM60.3186 206L57.5186 199.168H58.6246L60.8366 204.726L63.0206 199.168H64.1126L61.2986 206H60.3186ZM68.6258 206V199.168H69.6478V206H68.6258ZM69.1438 197.474C68.9385 197.474 68.7612 197.404 68.6118 197.264C68.4718 197.115 68.4018 196.942 68.4018 196.746C68.4018 196.55 68.4718 196.382 68.6118 196.242C68.7612 196.093 68.9385 196.018 69.1438 196.018C69.3492 196.018 69.5218 196.093 69.6618 196.242C69.8112 196.382 69.8858 196.55 69.8858 196.746C69.8858 196.942 69.8112 197.115 69.6618 197.264C69.5218 197.404 69.3492 197.474 69.1438 197.474ZM74.3474 206.14C73.7594 206.14 73.3114 206 73.0034 205.72C72.7047 205.431 72.5554 205.015 72.5554 204.474V200.008H71.1414V199.168H72.5554V197.292L73.5774 197.054V199.168H75.5374V200.008H73.5774V204.208C73.5774 204.572 73.652 204.833 73.8014 204.992C73.96 205.151 74.2167 205.23 74.5714 205.23C74.7487 205.23 74.9074 205.216 75.0474 205.188C75.1874 205.16 75.3507 205.113 75.5374 205.048V205.958C75.3507 206.023 75.1547 206.07 74.9494 206.098C74.744 206.126 74.5434 206.14 74.3474 206.14ZM79.9777 206.14C79.343 206.14 78.769 205.986 78.2557 205.678C77.7423 205.361 77.3363 204.936 77.0377 204.404C76.739 203.863 76.5897 203.256 76.5897 202.584C76.5897 201.912 76.7297 201.31 77.0097 200.778C77.299 200.246 77.6863 199.826 78.1717 199.518C78.657 199.21 79.1983 199.056 79.7957 199.056C80.4023 199.056 80.939 199.21 81.4057 199.518C81.8817 199.817 82.255 200.227 82.5257 200.75C82.8057 201.263 82.9457 201.847 82.9457 202.5V202.808H77.5837C77.621 203.275 77.747 203.695 77.9617 204.068C78.1857 204.432 78.475 204.721 78.8297 204.936C79.1937 205.141 79.5903 205.244 80.0197 205.244C80.3743 205.244 80.715 205.183 81.0417 205.062C81.3777 204.931 81.6623 204.759 81.8957 204.544L82.5397 205.23C82.1477 205.538 81.7417 205.767 81.3217 205.916C80.9017 206.065 80.4537 206.14 79.9777 206.14ZM77.6117 202.08H81.9377C81.891 201.669 81.765 201.305 81.5597 200.988C81.3637 200.661 81.1117 200.405 80.8037 200.218C80.505 200.031 80.169 199.938 79.7957 199.938C79.4223 199.938 79.0817 200.031 78.7737 200.218C78.4657 200.395 78.209 200.647 78.0037 200.974C77.8077 201.291 77.677 201.66 77.6117 202.08ZM84.6906 206V199.168H85.7126V200.232C85.974 199.84 86.2726 199.546 86.6086 199.35C86.9446 199.154 87.3226 199.056 87.7426 199.056C88.228 199.056 88.6526 199.177 89.0166 199.42C89.3806 199.653 89.656 199.975 89.8426 200.386C90.1133 199.947 90.4353 199.616 90.8086 199.392C91.1913 199.168 91.63 199.056 92.1246 199.056C92.582 199.056 92.9833 199.163 93.3286 199.378C93.6833 199.593 93.9586 199.891 94.1546 200.274C94.3506 200.647 94.4486 201.086 94.4486 201.59V206H93.4266V201.842C93.4266 201.245 93.2773 200.773 92.9786 200.428C92.68 200.083 92.2693 199.91 91.7466 199.91C91.392 199.91 91.07 199.999 90.7806 200.176C90.5006 200.353 90.2533 200.624 90.0386 200.988C90.0573 201.081 90.0713 201.179 90.0806 201.282C90.09 201.385 90.0946 201.487 90.0946 201.59V206H89.0726V201.842C89.0726 201.245 88.9186 200.773 88.6106 200.428C88.312 200.083 87.9013 199.91 87.3786 199.91C86.6786 199.91 86.1233 200.246 85.7126 200.918V206H84.6906Z" fill="#4D4D4D"/>
<path d="M225.973 197.539C226.256 197.265 226.714 197.265 226.994 197.539L231.089 201.504C231.375 201.778 231.375 202.221 231.092 202.495L226.996 206.461C226.713 206.735 226.256 206.735 225.976 206.461L225.295 205.802C225.013 205.528 225.013 205.085 225.295 204.814L228.199 202.003L225.295 199.192C225.013 198.918 225.012 198.474 225.295 198.203L225.973 197.539Z" fill="#707070"/>
<path d="M41.246 251V241.2H42.366L48.106 249.32L48.078 241.2H49.1V251H48.12L42.24 242.698L42.268 251H41.246ZM53.3769 251.126C52.8916 251.126 52.4622 251.037 52.0889 250.86C51.7156 250.683 51.4216 250.44 51.2069 250.132C51.0016 249.815 50.8989 249.451 50.8989 249.04C50.8989 248.629 51.0062 248.275 51.2209 247.976C51.4356 247.668 51.7342 247.43 52.1169 247.262C52.4996 247.094 52.9476 247.01 53.4609 247.01C53.8529 247.01 54.2216 247.052 54.5669 247.136C54.9216 247.22 55.2482 247.355 55.5469 247.542V246.604C55.5469 246.044 55.3976 245.624 55.0989 245.344C54.8002 245.055 54.3616 244.91 53.7829 244.91C53.4656 244.91 53.1389 244.957 52.8029 245.05C52.4762 245.143 52.1122 245.293 51.7109 245.498L51.3329 244.714C52.2476 244.275 53.1062 244.056 53.9089 244.056C54.7582 244.056 55.4116 244.266 55.8689 244.686C56.3262 245.097 56.5549 245.689 56.5549 246.464V251H55.5469V250.202C55.2482 250.51 54.9169 250.743 54.5529 250.902C54.1889 251.051 53.7969 251.126 53.3769 251.126ZM51.8789 249.012C51.8789 249.413 52.0329 249.735 52.3409 249.978C52.6582 250.221 53.0736 250.342 53.5869 250.342C53.9696 250.342 54.3196 250.277 54.6369 250.146C54.9636 250.015 55.2669 249.819 55.5469 249.558V248.242C55.2576 248.074 54.9589 247.953 54.6509 247.878C54.3429 247.794 53.9976 247.752 53.6149 247.752C53.0922 247.752 52.6722 247.869 52.3549 248.102C52.0376 248.326 51.8789 248.629 51.8789 249.012ZM60.3186 251L57.5186 244.168H58.6246L60.8366 249.726L63.0206 244.168H64.1126L61.2986 251H60.3186ZM68.6258 251V244.168H69.6478V251H68.6258ZM69.1438 242.474C68.9385 242.474 68.7612 242.404 68.6118 242.264C68.4718 242.115 68.4018 241.942 68.4018 241.746C68.4018 241.55 68.4718 241.382 68.6118 241.242C68.7612 241.093 68.9385 241.018 69.1438 241.018C69.3492 241.018 69.5218 241.093 69.6618 241.242C69.8112 241.382 69.8858 241.55 69.8858 241.746C69.8858 241.942 69.8112 242.115 69.6618 242.264C69.5218 242.404 69.3492 242.474 69.1438 242.474ZM74.3474 251.14C73.7594 251.14 73.3114 251 73.0034 250.72C72.7047 250.431 72.5554 250.015 72.5554 249.474V245.008H71.1414V244.168H72.5554V242.292L73.5774 242.054V244.168H75.5374V245.008H73.5774V249.208C73.5774 249.572 73.652 249.833 73.8014 249.992C73.96 250.151 74.2167 250.23 74.5714 250.23C74.7487 250.23 74.9074 250.216 75.0474 250.188C75.1874 250.16 75.3507 250.113 75.5374 250.048V250.958C75.3507 251.023 75.1547 251.07 74.9494 251.098C74.744 251.126 74.5434 251.14 74.3474 251.14ZM79.9777 251.14C79.343 251.14 78.769 250.986 78.2557 250.678C77.7423 250.361 77.3363 249.936 77.0377 249.404C76.739 248.863 76.5897 248.256 76.5897 247.584C76.5897 246.912 76.7297 246.31 77.0097 245.778C77.299 245.246 77.6863 244.826 78.1717 244.518C78.657 244.21 79.1983 244.056 79.7957 244.056C80.4023 244.056 80.939 244.21 81.4057 244.518C81.8817 244.817 82.255 245.227 82.5257 245.75C82.8057 246.263 82.9457 246.847 82.9457 247.5V247.808H77.5837C77.621 248.275 77.747 248.695 77.9617 249.068C78.1857 249.432 78.475 249.721 78.8297 249.936C79.1937 250.141 79.5903 250.244 80.0197 250.244C80.3743 250.244 80.715 250.183 81.0417 250.062C81.3777 249.931 81.6623 249.759 81.8957 249.544L82.5397 250.23C82.1477 250.538 81.7417 250.767 81.3217 250.916C80.9017 251.065 80.4537 251.14 79.9777 251.14ZM77.6117 247.08H81.9377C81.891 246.669 81.765 246.305 81.5597 245.988C81.3637 245.661 81.1117 245.405 80.8037 245.218C80.505 245.031 80.169 244.938 79.7957 244.938C79.4223 244.938 79.0817 245.031 78.7737 245.218C78.4657 245.395 78.209 245.647 78.0037 245.974C77.8077 246.291 77.677 246.66 77.6117 247.08ZM84.6906 251V244.168H85.7126V245.232C85.974 244.84 86.2726 244.546 86.6086 244.35C86.9446 244.154 87.3226 244.056 87.7426 244.056C88.228 244.056 88.6526 244.177 89.0166 244.42C89.3806 244.653 89.656 244.975 89.8426 245.386C90.1133 244.947 90.4353 244.616 90.8086 244.392C91.1913 244.168 91.63 244.056 92.1246 244.056C92.582 244.056 92.9833 244.163 93.3286 244.378C93.6833 244.593 93.9586 244.891 94.1546 245.274C94.3506 245.647 94.4486 246.086 94.4486 246.59V251H93.4266V246.842C93.4266 246.245 93.2773 245.773 92.9786 245.428C92.68 245.083 92.2693 244.91 91.7466 244.91C91.392 244.91 91.07 244.999 90.7806 245.176C90.5006 245.353 90.2533 245.624 90.0386 245.988C90.0573 246.081 90.0713 246.179 90.0806 246.282C90.09 246.385 90.0946 246.487 90.0946 246.59V251H89.0726V246.842C89.0726 246.245 88.9186 245.773 88.6106 245.428C88.312 245.083 87.9013 244.91 87.3786 244.91C86.6786 244.91 86.1233 245.246 85.7126 245.918V251H84.6906Z" fill="#4D4D4D"/>
<path d="M41.246 296V286.2H42.366L48.106 294.32L48.078 286.2H49.1V296H48.12L42.24 287.698L42.268 296H41.246ZM53.3769 296.126C52.8916 296.126 52.4622 296.037 52.0889 295.86C51.7156 295.683 51.4216 295.44 51.2069 295.132C51.0016 294.815 50.8989 294.451 50.8989 294.04C50.8989 293.629 51.0062 293.275 51.2209 292.976C51.4356 292.668 51.7342 292.43 52.1169 292.262C52.4996 292.094 52.9476 292.01 53.4609 292.01C53.8529 292.01 54.2216 292.052 54.5669 292.136C54.9216 292.22 55.2482 292.355 55.5469 292.542V291.604C55.5469 291.044 55.3976 290.624 55.0989 290.344C54.8002 290.055 54.3616 289.91 53.7829 289.91C53.4656 289.91 53.1389 289.957 52.8029 290.05C52.4762 290.143 52.1122 290.293 51.7109 290.498L51.3329 289.714C52.2476 289.275 53.1062 289.056 53.9089 289.056C54.7582 289.056 55.4116 289.266 55.8689 289.686C56.3262 290.097 56.5549 290.689 56.5549 291.464V296H55.5469V295.202C55.2482 295.51 54.9169 295.743 54.5529 295.902C54.1889 296.051 53.7969 296.126 53.3769 296.126ZM51.8789 294.012C51.8789 294.413 52.0329 294.735 52.3409 294.978C52.6582 295.221 53.0736 295.342 53.5869 295.342C53.9696 295.342 54.3196 295.277 54.6369 295.146C54.9636 295.015 55.2669 294.819 55.5469 294.558V293.242C55.2576 293.074 54.9589 292.953 54.6509 292.878C54.3429 292.794 53.9976 292.752 53.6149 292.752C53.0922 292.752 52.6722 292.869 52.3549 293.102C52.0376 293.326 51.8789 293.629 51.8789 294.012ZM60.3186 296L57.5186 289.168H58.6246L60.8366 294.726L63.0206 289.168H64.1126L61.2986 296H60.3186ZM68.6258 296V289.168H69.6478V296H68.6258ZM69.1438 287.474C68.9385 287.474 68.7612 287.404 68.6118 287.264C68.4718 287.115 68.4018 286.942 68.4018 286.746C68.4018 286.55 68.4718 286.382 68.6118 286.242C68.7612 286.093 68.9385 286.018 69.1438 286.018C69.3492 286.018 69.5218 286.093 69.6618 286.242C69.8112 286.382 69.8858 286.55 69.8858 286.746C69.8858 286.942 69.8112 287.115 69.6618 287.264C69.5218 287.404 69.3492 287.474 69.1438 287.474ZM74.3474 296.14C73.7594 296.14 73.3114 296 73.0034 295.72C72.7047 295.431 72.5554 295.015 72.5554 294.474V290.008H71.1414V289.168H72.5554V287.292L73.5774 287.054V289.168H75.5374V290.008H73.5774V294.208C73.5774 294.572 73.652 294.833 73.8014 294.992C73.96 295.151 74.2167 295.23 74.5714 295.23C74.7487 295.23 74.9074 295.216 75.0474 295.188C75.1874 295.16 75.3507 295.113 75.5374 295.048V295.958C75.3507 296.023 75.1547 296.07 74.9494 296.098C74.744 296.126 74.5434 296.14 74.3474 296.14ZM79.9777 296.14C79.343 296.14 78.769 295.986 78.2557 295.678C77.7423 295.361 77.3363 294.936 77.0377 294.404C76.739 293.863 76.5897 293.256 76.5897 292.584C76.5897 291.912 76.7297 291.31 77.0097 290.778C77.299 290.246 77.6863 289.826 78.1717 289.518C78.657 289.21 79.1983 289.056 79.7957 289.056C80.4023 289.056 80.939 289.21 81.4057 289.518C81.8817 289.817 82.255 290.227 82.5257 290.75C82.8057 291.263 82.9457 291.847 82.9457 292.5V292.808H77.5837C77.621 293.275 77.747 293.695 77.9617 294.068C78.1857 294.432 78.475 294.721 78.8297 294.936C79.1937 295.141 79.5903 295.244 80.0197 295.244C80.3743 295.244 80.715 295.183 81.0417 295.062C81.3777 294.931 81.6623 294.759 81.8957 294.544L82.5397 295.23C82.1477 295.538 81.7417 295.767 81.3217 295.916C80.9017 296.065 80.4537 296.14 79.9777 296.14ZM77.6117 292.08H81.9377C81.891 291.669 81.765 291.305 81.5597 290.988C81.3637 290.661 81.1117 290.405 80.8037 290.218C80.505 290.031 80.169 289.938 79.7957 289.938C79.4223 289.938 79.0817 290.031 78.7737 290.218C78.4657 290.395 78.209 290.647 78.0037 290.974C77.8077 291.291 77.677 291.66 77.6117 292.08ZM84.6906 296V289.168H85.7126V290.232C85.974 289.84 86.2726 289.546 86.6086 289.35C86.9446 289.154 87.3226 289.056 87.7426 289.056C88.228 289.056 88.6526 289.177 89.0166 289.42C89.3806 289.653 89.656 289.975 89.8426 290.386C90.1133 289.947 90.4353 289.616 90.8086 289.392C91.1913 289.168 91.63 289.056 92.1246 289.056C92.582 289.056 92.9833 289.163 93.3286 289.378C93.6833 289.593 93.9586 289.891 94.1546 290.274C94.3506 290.647 94.4486 291.086 94.4486 291.59V296H93.4266V291.842C93.4266 291.245 93.2773 290.773 92.9786 290.428C92.68 290.083 92.2693 289.91 91.7466 289.91C91.392 289.91 91.07 289.999 90.7806 290.176C90.5006 290.353 90.2533 290.624 90.0386 290.988C90.0573 291.081 90.0713 291.179 90.0806 291.282C90.09 291.385 90.0946 291.487 90.0946 291.59V296H89.0726V291.842C89.0726 291.245 88.9186 290.773 88.6106 290.428C88.312 290.083 87.9013 289.91 87.3786 289.91C86.6786 289.91 86.1233 290.246 85.7126 290.918V296H84.6906Z" fill="#4D4D4D"/>
<path d="M278 85C278 76.1634 285.163 69 294 69H1080C1088.84 69 1096 76.1634 1096 85V797C1096 805.837 1088.84 813 1080 813H294C285.163 813 278 805.837 278 797V85Z" fill="white"/>
<path d="M278 85C278 76.1634 285.163 69 294 69H1080C1088.84 69 1096 76.1634 1096 85V85H278V85Z" fill="white"/>
<rect width="818" height="93" transform="translate(278 85)" fill="white"/>
<path d="M303.512 125V108.2H311.936C313.04 108.2 314.008 108.424 314.84 108.872C315.688 109.32 316.352 109.944 316.832 110.744C317.312 111.528 317.552 112.44 317.552 113.48C317.552 114.472 317.312 115.36 316.832 116.144C316.352 116.928 315.688 117.544 314.84 117.992C313.992 118.44 313.024 118.664 311.936 118.664H306.992V125H303.512ZM306.992 115.784H311.552C312.304 115.784 312.904 115.576 313.352 115.16C313.816 114.744 314.048 114.192 314.048 113.504C314.048 112.8 313.816 112.24 313.352 111.824C312.904 111.408 312.304 111.2 311.552 111.2H306.992V115.784ZM323.147 125.216C322.251 125.216 321.459 125.056 320.771 124.736C320.083 124.4 319.547 123.944 319.163 123.368C318.779 122.792 318.587 122.128 318.587 121.376C318.587 120.176 319.035 119.248 319.931 118.592C320.843 117.92 322.091 117.584 323.675 117.584C324.763 117.584 325.787 117.752 326.747 118.088V117.176C326.747 115.72 325.867 114.992 324.107 114.992C323.579 114.992 323.011 115.08 322.403 115.256C321.795 115.416 321.091 115.672 320.291 116.024L319.091 113.6C320.083 113.152 321.027 112.816 321.923 112.592C322.835 112.368 323.747 112.256 324.659 112.256C326.339 112.256 327.643 112.664 328.571 113.48C329.515 114.28 329.987 115.416 329.987 116.888V125H326.747V124.112C326.235 124.496 325.683 124.776 325.091 124.952C324.499 125.128 323.851 125.216 323.147 125.216ZM321.707 121.304C321.707 121.784 321.915 122.168 322.331 122.456C322.747 122.728 323.299 122.864 323.987 122.864C325.091 122.864 326.011 122.592 326.747 122.048V120.224C325.947 119.904 325.067 119.744 324.107 119.744C323.355 119.744 322.763 119.888 322.331 120.176C321.915 120.448 321.707 120.824 321.707 121.304ZM338.764 130.136C337.804 130.136 336.876 130.032 335.98 129.824C335.1 129.632 334.292 129.352 333.556 128.984L334.708 126.44C336.052 127.096 337.38 127.424 338.692 127.424C340.676 127.424 341.668 126.592 341.668 124.928V123.944C340.644 124.696 339.5 125.072 338.236 125.072C337.052 125.072 335.98 124.792 335.02 124.232C334.06 123.656 333.3 122.88 332.74 121.904C332.18 120.928 331.9 119.848 331.9 118.664C331.9 117.48 332.18 116.408 332.74 115.448C333.316 114.472 334.092 113.704 335.068 113.144C336.044 112.584 337.132 112.304 338.332 112.304C339.58 112.304 340.708 112.64 341.716 113.312V112.496H344.956V124.976C344.956 126.624 344.42 127.896 343.348 128.792C342.292 129.688 340.764 130.136 338.764 130.136ZM338.74 122.288C339.972 122.288 340.948 121.904 341.668 121.136V116.24C341.316 115.888 340.884 115.616 340.372 115.424C339.876 115.216 339.34 115.112 338.764 115.112C338.076 115.112 337.46 115.272 336.916 115.592C336.372 115.896 335.94 116.32 335.62 116.864C335.3 117.408 335.14 118.008 335.14 118.664C335.14 119.352 335.292 119.968 335.596 120.512C335.916 121.056 336.348 121.488 336.892 121.808C337.452 122.128 338.068 122.288 338.74 122.288ZM353.643 125.24C352.395 125.24 351.259 124.952 350.235 124.376C349.227 123.8 348.427 123.024 347.835 122.048C347.243 121.072 346.947 119.976 346.947 118.76C346.947 117.544 347.227 116.448 347.787 115.472C348.363 114.496 349.139 113.72 350.115 113.144C351.091 112.568 352.179 112.28 353.379 112.28C354.579 112.28 355.643 112.576 356.571 113.168C357.499 113.76 358.227 114.56 358.755 115.568C359.299 116.576 359.571 117.72 359.571 119V119.864H350.307C350.451 120.36 350.683 120.808 351.003 121.208C351.339 121.608 351.747 121.92 352.227 122.144C352.723 122.368 353.251 122.48 353.811 122.48C354.371 122.48 354.883 122.392 355.347 122.216C355.827 122.04 356.235 121.792 356.571 121.472L358.731 123.44C357.963 124.064 357.171 124.52 356.355 124.808C355.555 125.096 354.651 125.24 353.643 125.24ZM350.259 117.512H356.331C356.219 117.016 356.011 116.584 355.707 116.216C355.419 115.832 355.067 115.536 354.651 115.328C354.251 115.104 353.803 114.992 353.307 114.992C352.555 114.992 351.907 115.224 351.363 115.688C350.819 116.136 350.451 116.744 350.259 117.512ZM372.341 125.192C370.949 125.192 369.893 124.88 369.173 124.256C368.469 123.616 368.117 122.688 368.117 121.472V115.232H365.549V112.496H368.117V109.304L371.405 108.56V112.496H374.981V115.232H371.405V120.8C371.405 121.376 371.533 121.792 371.789 122.048C372.045 122.288 372.493 122.408 373.133 122.408C373.453 122.408 373.741 122.392 373.997 122.36C374.269 122.312 374.565 122.232 374.885 122.12V124.832C374.549 124.944 374.125 125.032 373.613 125.096C373.117 125.16 372.693 125.192 372.341 125.192ZM376.585 125V112.496H379.873V125H376.585ZM378.217 111.008C377.705 111.008 377.265 110.824 376.897 110.456C376.529 110.088 376.345 109.648 376.345 109.136C376.345 108.608 376.529 108.168 376.897 107.816C377.265 107.448 377.705 107.264 378.217 107.264C378.745 107.264 379.185 107.448 379.537 107.816C379.905 108.168 380.089 108.608 380.089 109.136C380.089 109.648 379.905 110.088 379.537 110.456C379.185 110.824 378.745 111.008 378.217 111.008ZM388.372 125.192C386.98 125.192 385.924 124.88 385.204 124.256C384.5 123.616 384.148 122.688 384.148 121.472V115.232H381.58V112.496H384.148V109.304L387.436 108.56V112.496H391.012V115.232H387.436V120.8C387.436 121.376 387.564 121.792 387.82 122.048C388.076 122.288 388.524 122.408 389.164 122.408C389.484 122.408 389.772 122.392 390.028 122.36C390.3 122.312 390.596 122.232 390.916 122.12V124.832C390.58 124.944 390.156 125.032 389.644 125.096C389.148 125.16 388.724 125.192 388.372 125.192ZM392.616 125V108.2L395.904 107.648V125H392.616ZM404.596 125.24C403.348 125.24 402.212 124.952 401.188 124.376C400.18 123.8 399.38 123.024 398.788 122.048C398.196 121.072 397.9 119.976 397.9 118.76C397.9 117.544 398.18 116.448 398.74 115.472C399.316 114.496 400.092 113.72 401.068 113.144C402.044 112.568 403.132 112.28 404.332 112.28C405.532 112.28 406.596 112.576 407.524 113.168C408.452 113.76 409.18 114.56 409.708 115.568C410.252 116.576 410.524 117.72 410.524 119V119.864H401.26C401.404 120.36 401.636 120.808 401.956 121.208C402.292 121.608 402.7 121.92 403.18 122.144C403.676 122.368 404.204 122.48 404.764 122.48C405.324 122.48 405.836 122.392 406.3 122.216C406.78 122.04 407.188 121.792 407.524 121.472L409.684 123.44C408.916 124.064 408.124 124.52 407.308 124.808C406.508 125.096 405.604 125.24 404.596 125.24ZM401.212 117.512H407.284C407.172 117.016 406.964 116.584 406.66 116.216C406.372 115.832 406.02 115.536 405.604 115.328C405.204 115.104 404.756 114.992 404.26 114.992C403.508 114.992 402.86 115.224 402.316 115.688C401.772 116.136 401.404 116.744 401.212 117.512Z" fill="#151515"/>
<path d="M303.246 156V146.2H307.292C307.927 146.2 308.477 146.321 308.944 146.564C309.411 146.797 309.77 147.133 310.022 147.572C310.283 148.001 310.414 148.51 310.414 149.098C310.414 149.677 310.283 150.185 310.022 150.624C309.77 151.063 309.411 151.403 308.944 151.646C308.477 151.879 307.927 151.996 307.292 151.996H304.324V156H303.246ZM304.324 151.072H307.166C307.847 151.072 308.379 150.895 308.762 150.54C309.145 150.185 309.336 149.705 309.336 149.098C309.336 148.491 309.145 148.015 308.762 147.67C308.379 147.325 307.847 147.152 307.166 147.152H304.324V151.072ZM313.969 156.126C313.483 156.126 313.054 156.037 312.681 155.86C312.307 155.683 312.013 155.44 311.799 155.132C311.593 154.815 311.491 154.451 311.491 154.04C311.491 153.629 311.598 153.275 311.813 152.976C312.027 152.668 312.326 152.43 312.709 152.262C313.091 152.094 313.539 152.01 314.053 152.01C314.445 152.01 314.813 152.052 315.159 152.136C315.513 152.22 315.84 152.355 316.139 152.542V151.604C316.139 151.044 315.989 150.624 315.691 150.344C315.392 150.055 314.953 149.91 314.375 149.91C314.057 149.91 313.731 149.957 313.395 150.05C313.068 150.143 312.704 150.293 312.303 150.498L311.925 149.714C312.839 149.275 313.698 149.056 314.501 149.056C315.35 149.056 316.003 149.266 316.461 149.686C316.918 150.097 317.147 150.689 317.147 151.464V156H316.139V155.202C315.84 155.51 315.509 155.743 315.145 155.902C314.781 156.051 314.389 156.126 313.969 156.126ZM312.471 154.012C312.471 154.413 312.625 154.735 312.933 154.978C313.25 155.221 313.665 155.342 314.179 155.342C314.561 155.342 314.911 155.277 315.229 155.146C315.555 155.015 315.859 154.819 316.139 154.558V153.242C315.849 153.074 315.551 152.953 315.243 152.878C314.935 152.794 314.589 152.752 314.207 152.752C313.684 152.752 313.264 152.869 312.947 153.102C312.629 153.326 312.471 153.629 312.471 154.012ZM322.388 159.066C321.93 159.066 321.468 159.001 321.002 158.87C320.544 158.749 320.12 158.576 319.728 158.352L320.162 157.568C320.582 157.783 320.964 157.941 321.31 158.044C321.655 158.147 322 158.198 322.346 158.198C322.971 158.198 323.442 158.049 323.76 157.75C324.086 157.451 324.25 157.017 324.25 156.448V155.076C323.988 155.403 323.671 155.655 323.298 155.832C322.924 156 322.514 156.084 322.066 156.084C321.478 156.084 320.946 155.93 320.47 155.622C319.994 155.305 319.616 154.885 319.336 154.362C319.056 153.83 318.916 153.237 318.916 152.584C318.916 151.931 319.056 151.343 319.336 150.82C319.625 150.288 320.012 149.868 320.498 149.56C320.983 149.243 321.524 149.084 322.122 149.084C322.551 149.084 322.948 149.168 323.312 149.336C323.676 149.495 323.993 149.733 324.264 150.05V149.168H325.272V156.434C325.272 157.283 325.024 157.932 324.53 158.38C324.035 158.837 323.321 159.066 322.388 159.066ZM322.318 155.202C322.719 155.202 323.088 155.123 323.424 154.964C323.76 154.796 324.035 154.567 324.25 154.278V150.904C324.026 150.615 323.741 150.391 323.396 150.232C323.06 150.064 322.7 149.98 322.318 149.98C321.86 149.98 321.45 150.092 321.086 150.316C320.731 150.54 320.446 150.848 320.232 151.24C320.026 151.632 319.924 152.08 319.924 152.584C319.924 153.079 320.026 153.527 320.232 153.928C320.446 154.32 320.731 154.633 321.086 154.866C321.45 155.09 321.86 155.202 322.318 155.202ZM330.452 156.14C329.818 156.14 329.244 155.986 328.73 155.678C328.217 155.361 327.811 154.936 327.512 154.404C327.214 153.863 327.064 153.256 327.064 152.584C327.064 151.912 327.204 151.31 327.484 150.778C327.774 150.246 328.161 149.826 328.646 149.518C329.132 149.21 329.673 149.056 330.27 149.056C330.877 149.056 331.414 149.21 331.88 149.518C332.356 149.817 332.73 150.227 333 150.75C333.28 151.263 333.42 151.847 333.42 152.5V152.808H328.058C328.096 153.275 328.222 153.695 328.436 154.068C328.66 154.432 328.95 154.721 329.304 154.936C329.668 155.141 330.065 155.244 330.494 155.244C330.849 155.244 331.19 155.183 331.516 155.062C331.852 154.931 332.137 154.759 332.37 154.544L333.014 155.23C332.622 155.538 332.216 155.767 331.796 155.916C331.376 156.065 330.928 156.14 330.452 156.14ZM328.086 152.08H332.412C332.366 151.669 332.24 151.305 332.034 150.988C331.838 150.661 331.586 150.405 331.278 150.218C330.98 150.031 330.644 149.938 330.27 149.938C329.897 149.938 329.556 150.031 329.248 150.218C328.94 150.395 328.684 150.647 328.478 150.974C328.282 151.291 328.152 151.66 328.086 152.08ZM341.275 156.098C340.687 156.098 340.155 155.944 339.679 155.636C339.203 155.319 338.825 154.899 338.545 154.376C338.265 153.844 338.125 153.251 338.125 152.598C338.125 151.935 338.265 151.343 338.545 150.82C338.834 150.288 339.221 149.868 339.707 149.56C340.192 149.243 340.733 149.084 341.331 149.084C341.751 149.084 342.143 149.168 342.507 149.336C342.871 149.495 343.188 149.728 343.459 150.036V145.892L344.481 145.682V156H343.459V155.09C343.197 155.417 342.88 155.669 342.507 155.846C342.133 156.014 341.723 156.098 341.275 156.098ZM341.527 155.202C341.928 155.202 342.297 155.123 342.633 154.964C342.969 154.805 343.244 154.581 343.459 154.292V150.904C343.235 150.615 342.95 150.391 342.605 150.232C342.269 150.064 341.909 149.98 341.527 149.98C341.069 149.98 340.659 150.092 340.295 150.316C339.94 150.54 339.655 150.848 339.441 151.24C339.235 151.632 339.133 152.08 339.133 152.584C339.133 153.079 339.235 153.527 339.441 153.928C339.655 154.32 339.94 154.633 340.295 154.866C340.659 155.09 341.069 155.202 341.527 155.202ZM349.661 156.14C349.027 156.14 348.453 155.986 347.939 155.678C347.426 155.361 347.02 154.936 346.721 154.404C346.423 153.863 346.273 153.256 346.273 152.584C346.273 151.912 346.413 151.31 346.693 150.778C346.983 150.246 347.37 149.826 347.855 149.518C348.341 149.21 348.882 149.056 349.479 149.056C350.086 149.056 350.623 149.21 351.089 149.518C351.565 149.817 351.939 150.227 352.209 150.75C352.489 151.263 352.629 151.847 352.629 152.5V152.808H347.267C347.305 153.275 347.431 153.695 347.645 154.068C347.869 154.432 348.159 154.721 348.513 154.936C348.877 155.141 349.274 155.244 349.703 155.244C350.058 155.244 350.399 155.183 350.725 155.062C351.061 154.931 351.346 154.759 351.579 154.544L352.223 155.23C351.831 155.538 351.425 155.767 351.005 155.916C350.585 156.065 350.137 156.14 349.661 156.14ZM347.295 152.08H351.621C351.575 151.669 351.449 151.305 351.243 150.988C351.047 150.661 350.795 150.405 350.487 150.218C350.189 150.031 349.853 149.938 349.479 149.938C349.106 149.938 348.765 150.031 348.457 150.218C348.149 150.395 347.893 150.647 347.687 150.974C347.491 151.291 347.361 151.66 347.295 152.08ZM356.557 156.14C355.997 156.14 355.479 156.056 355.003 155.888C354.527 155.711 354.121 155.459 353.785 155.132L354.331 154.46C354.741 154.759 355.119 154.978 355.465 155.118C355.81 155.249 356.165 155.314 356.529 155.314C357.023 155.314 357.434 155.197 357.761 154.964C358.087 154.731 358.251 154.432 358.251 154.068C358.251 153.788 358.153 153.569 357.957 153.41C357.77 153.251 357.457 153.13 357.019 153.046L355.899 152.85C355.236 152.729 354.746 152.523 354.429 152.234C354.121 151.945 353.967 151.553 353.967 151.058C353.967 150.666 354.069 150.321 354.275 150.022C354.489 149.723 354.783 149.49 355.157 149.322C355.53 149.145 355.955 149.056 356.431 149.056C356.897 149.056 357.341 149.126 357.761 149.266C358.181 149.397 358.605 149.611 359.035 149.91L358.531 150.624C358.176 150.372 357.821 150.19 357.467 150.078C357.112 149.957 356.753 149.896 356.389 149.896C355.941 149.896 355.581 149.994 355.311 150.19C355.04 150.386 354.905 150.652 354.905 150.988C354.905 151.268 354.989 151.483 355.157 151.632C355.334 151.781 355.642 151.893 356.081 151.968L357.229 152.178C357.919 152.299 358.423 152.509 358.741 152.808C359.058 153.107 359.217 153.508 359.217 154.012C359.217 154.413 359.1 154.777 358.867 155.104C358.633 155.421 358.316 155.673 357.915 155.86C357.513 156.047 357.061 156.14 356.557 156.14ZM363.907 156.112C363.272 156.112 362.698 155.958 362.185 155.65C361.681 155.333 361.28 154.908 360.981 154.376C360.682 153.835 360.533 153.237 360.533 152.584C360.533 151.921 360.682 151.324 360.981 150.792C361.28 150.26 361.681 149.84 362.185 149.532C362.698 149.215 363.272 149.056 363.907 149.056C364.411 149.056 364.892 149.149 365.349 149.336C365.806 149.523 366.203 149.784 366.539 150.12L365.881 150.834C365.638 150.563 365.344 150.353 364.999 150.204C364.654 150.055 364.304 149.98 363.949 149.98C363.501 149.98 363.095 150.097 362.731 150.33C362.376 150.563 362.092 150.876 361.877 151.268C361.662 151.66 361.555 152.099 361.555 152.584C361.555 153.069 361.662 153.508 361.877 153.9C362.092 154.292 362.376 154.605 362.731 154.838C363.095 155.071 363.501 155.188 363.949 155.188C364.304 155.188 364.654 155.113 364.999 154.964C365.344 154.805 365.638 154.595 365.881 154.334L366.539 155.048C366.203 155.384 365.806 155.645 365.349 155.832C364.892 156.019 364.411 156.112 363.907 156.112ZM367.964 156V149.168H368.986V150.568C369.163 150.092 369.415 149.723 369.742 149.462C370.078 149.191 370.461 149.056 370.89 149.056C371.011 149.056 371.123 149.065 371.226 149.084C371.329 149.093 371.431 149.117 371.534 149.154V150.078C371.422 150.041 371.301 150.013 371.17 149.994C371.049 149.966 370.932 149.952 370.82 149.952C370.4 149.952 370.031 150.073 369.714 150.316C369.406 150.559 369.163 150.899 368.986 151.338V156H367.964ZM372.872 156V149.168H373.894V156H372.872ZM373.39 147.474C373.185 147.474 373.007 147.404 372.858 147.264C372.718 147.115 372.648 146.942 372.648 146.746C372.648 146.55 372.718 146.382 372.858 146.242C373.007 146.093 373.185 146.018 373.39 146.018C373.595 146.018 373.768 146.093 373.908 146.242C374.057 146.382 374.132 146.55 374.132 146.746C374.132 146.942 374.057 147.115 373.908 147.264C373.768 147.404 373.595 147.474 373.39 147.474ZM375.989 158.926V149.168H376.997V150.148C377.259 149.803 377.576 149.541 377.949 149.364C378.332 149.177 378.752 149.084 379.209 149.084C379.807 149.084 380.339 149.243 380.805 149.56C381.281 149.868 381.659 150.288 381.939 150.82C382.219 151.343 382.359 151.931 382.359 152.584C382.359 153.237 382.215 153.83 381.925 154.362C381.645 154.894 381.263 155.319 380.777 155.636C380.301 155.944 379.76 156.098 379.153 156.098C378.724 156.098 378.327 156.019 377.963 155.86C377.599 155.692 377.282 155.454 377.011 155.146V158.926H375.989ZM378.957 155.216C379.415 155.216 379.821 155.104 380.175 154.88C380.539 154.647 380.824 154.334 381.029 153.942C381.244 153.541 381.351 153.093 381.351 152.598C381.351 152.094 381.244 151.646 381.029 151.254C380.824 150.862 380.539 150.554 380.175 150.33C379.821 150.097 379.415 149.98 378.957 149.98C378.556 149.98 378.183 150.064 377.837 150.232C377.501 150.391 377.226 150.619 377.011 150.918V154.264C377.235 154.563 377.515 154.796 377.851 154.964C378.197 155.132 378.565 155.216 378.957 155.216ZM386.332 156.14C385.744 156.14 385.296 156 384.988 155.72C384.689 155.431 384.54 155.015 384.54 154.474V150.008H383.126V149.168H384.54V147.292L385.562 147.054V149.168H387.522V150.008H385.562V154.208C385.562 154.572 385.636 154.833 385.786 154.992C385.944 155.151 386.201 155.23 386.556 155.23C386.733 155.23 386.892 155.216 387.032 155.188C387.172 155.16 387.335 155.113 387.522 155.048V155.958C387.335 156.023 387.139 156.07 386.934 156.098C386.728 156.126 386.528 156.14 386.332 156.14ZM389.005 156V149.168H390.027V156H389.005ZM389.523 147.474C389.317 147.474 389.14 147.404 388.991 147.264C388.851 147.115 388.781 146.942 388.781 146.746C388.781 146.55 388.851 146.382 388.991 146.242C389.14 146.093 389.317 146.018 389.523 146.018C389.728 146.018 389.901 146.093 390.041 146.242C390.19 146.382 390.265 146.55 390.265 146.746C390.265 146.942 390.19 147.115 390.041 147.264C389.901 147.404 389.728 147.474 389.523 147.474ZM395.146 156.112C394.512 156.112 393.942 155.958 393.438 155.65C392.934 155.342 392.538 154.922 392.248 154.39C391.959 153.858 391.814 153.256 391.814 152.584C391.814 151.912 391.959 151.31 392.248 150.778C392.538 150.246 392.934 149.826 393.438 149.518C393.942 149.21 394.512 149.056 395.146 149.056C395.772 149.056 396.332 149.21 396.826 149.518C397.33 149.826 397.727 150.246 398.016 150.778C398.306 151.31 398.45 151.912 398.45 152.584C398.45 153.256 398.306 153.858 398.016 154.39C397.727 154.922 397.33 155.342 396.826 155.65C396.332 155.958 395.772 156.112 395.146 156.112ZM395.132 155.216C395.58 155.216 395.977 155.104 396.322 154.88C396.668 154.647 396.938 154.329 397.134 153.928C397.34 153.527 397.442 153.079 397.442 152.584C397.442 152.08 397.34 151.632 397.134 151.24C396.938 150.839 396.668 150.526 396.322 150.302C395.977 150.069 395.58 149.952 395.132 149.952C394.684 149.952 394.288 150.069 393.942 150.302C393.597 150.526 393.322 150.839 393.116 151.24C392.92 151.632 392.822 152.08 392.822 152.584C392.822 153.079 392.92 153.527 393.116 153.928C393.322 154.329 393.597 154.647 393.942 154.88C394.288 155.104 394.684 155.216 395.132 155.216ZM400.243 156V149.168H401.265V150.274C401.527 149.863 401.839 149.56 402.203 149.364C402.567 149.159 402.978 149.056 403.435 149.056C403.93 149.056 404.359 149.163 404.723 149.378C405.097 149.583 405.386 149.877 405.591 150.26C405.806 150.633 405.913 151.072 405.913 151.576V156H404.891V151.87C404.891 151.263 404.723 150.787 404.387 150.442C404.061 150.087 403.617 149.91 403.057 149.91C402.684 149.91 402.343 149.999 402.035 150.176C401.727 150.353 401.471 150.615 401.265 150.96V156H400.243Z" fill="#151515"/>
<mask id="path-17-inside-1_1689_112156" fill="white">
<path d="M278 178H1096V223H278V178Z"/>
</mask>
<path d="M278 178H1096V223H278V178Z" fill="white"/>
<path d="M1096 223V222H278V223V224H1096V223Z" fill="#C7C7C7" mask="url(#path-17-inside-1_1689_112156)"/>
<mask id="path-19-inside-2_1689_112156" fill="white">
<path d="M278 178H302V223H278V178Z"/>
</mask>
<path d="M278 178H302V223H278V178Z" fill="white"/>
<path d="M302 223V222H278V223V224H302V223Z" fill="#C7C7C7" mask="url(#path-19-inside-2_1689_112156)"/>
<mask id="path-21-inside-3_1689_112156" fill="white">
<path d="M302 178H365V223H302V178Z"/>
</mask>
<path d="M365 223V220H302V223V226H365V223Z" fill="#0066CC" mask="url(#path-21-inside-3_1689_112156)"/>
<path d="M322.043 205V196.152H318.655V195.2H326.509V196.152H323.121V205H322.043ZM328.81 205.126C328.324 205.126 327.895 205.037 327.522 204.86C327.148 204.683 326.854 204.44 326.64 204.132C326.434 203.815 326.332 203.451 326.332 203.04C326.332 202.629 326.439 202.275 326.654 201.976C326.868 201.668 327.167 201.43 327.55 201.262C327.932 201.094 328.38 201.01 328.894 201.01C329.286 201.01 329.654 201.052 330 201.136C330.354 201.22 330.681 201.355 330.98 201.542V200.604C330.98 200.044 330.83 199.624 330.532 199.344C330.233 199.055 329.794 198.91 329.216 198.91C328.898 198.91 328.572 198.957 328.236 199.05C327.909 199.143 327.545 199.293 327.144 199.498L326.766 198.714C327.68 198.275 328.539 198.056 329.342 198.056C330.191 198.056 330.844 198.266 331.302 198.686C331.759 199.097 331.988 199.689 331.988 200.464V205H330.98V204.202C330.681 204.51 330.35 204.743 329.986 204.902C329.622 205.051 329.23 205.126 328.81 205.126ZM327.312 203.012C327.312 203.413 327.466 203.735 327.774 203.978C328.091 204.221 328.506 204.342 329.02 204.342C329.402 204.342 329.752 204.277 330.07 204.146C330.396 204.015 330.7 203.819 330.98 203.558V202.242C330.69 202.074 330.392 201.953 330.084 201.878C329.776 201.794 329.43 201.752 329.048 201.752C328.525 201.752 328.105 201.869 327.788 202.102C327.47 202.326 327.312 202.629 327.312 203.012ZM334.065 205V194.99L335.087 194.78V199.106C335.348 198.779 335.665 198.527 336.039 198.35C336.412 198.173 336.827 198.084 337.285 198.084C337.882 198.084 338.414 198.243 338.881 198.56C339.357 198.868 339.735 199.288 340.015 199.82C340.295 200.343 340.435 200.931 340.435 201.584C340.435 202.237 340.29 202.83 340.001 203.362C339.721 203.894 339.338 204.319 338.853 204.636C338.377 204.944 337.835 205.098 337.229 205.098C336.799 205.098 336.398 205.014 336.025 204.846C335.661 204.669 335.343 204.421 335.073 204.104V205H334.065ZM337.033 204.216C337.49 204.216 337.896 204.104 338.251 203.88C338.615 203.647 338.899 203.334 339.105 202.942C339.319 202.541 339.427 202.093 339.427 201.598C339.427 201.094 339.319 200.646 339.105 200.254C338.899 199.862 338.615 199.554 338.251 199.33C337.896 199.097 337.49 198.98 337.033 198.98C336.631 198.98 336.258 199.064 335.913 199.232C335.577 199.391 335.301 199.619 335.087 199.918V203.264C335.311 203.563 335.591 203.796 335.927 203.964C336.272 204.132 336.641 204.216 337.033 204.216ZM346.586 205V196.292L345.018 196.992V196.068L346.964 195.2H347.594V205H346.586Z" fill="#151515"/>
<mask id="path-25-inside-4_1689_112156" fill="white">
<path d="M365 178H431V223H365V178Z"/>
</mask>
<path d="M431 223V222H365V223V224H431V223Z" fill="#C7C7C7" mask="url(#path-25-inside-4_1689_112156)"/>
<path d="M384.854 205V196.152H381.466V195.2H389.32V196.152H385.932V205H384.854ZM391.621 205.126C391.136 205.126 390.706 205.037 390.333 204.86C389.96 204.683 389.666 204.44 389.451 204.132C389.246 203.815 389.143 203.451 389.143 203.04C389.143 202.629 389.25 202.275 389.465 201.976C389.68 201.668 389.978 201.43 390.361 201.262C390.744 201.094 391.192 201.01 391.705 201.01C392.097 201.01 392.466 201.052 392.811 201.136C393.166 201.22 393.492 201.355 393.791 201.542V200.604C393.791 200.044 393.642 199.624 393.343 199.344C393.044 199.055 392.606 198.91 392.027 198.91C391.71 198.91 391.383 198.957 391.047 199.05C390.72 199.143 390.356 199.293 389.955 199.498L389.577 198.714C390.492 198.275 391.35 198.056 392.153 198.056C393.002 198.056 393.656 198.266 394.113 198.686C394.57 199.097 394.799 199.689 394.799 200.464V205H393.791V204.202C393.492 204.51 393.161 204.743 392.797 204.902C392.433 205.051 392.041 205.126 391.621 205.126ZM390.123 203.012C390.123 203.413 390.277 203.735 390.585 203.978C390.902 204.221 391.318 204.342 391.831 204.342C392.214 204.342 392.564 204.277 392.881 204.146C393.208 204.015 393.511 203.819 393.791 203.558V202.242C393.502 202.074 393.203 201.953 392.895 201.878C392.587 201.794 392.242 201.752 391.859 201.752C391.336 201.752 390.916 201.869 390.599 202.102C390.282 202.326 390.123 202.629 390.123 203.012ZM396.876 205V194.99L397.898 194.78V199.106C398.16 198.779 398.477 198.527 398.85 198.35C399.224 198.173 399.639 198.084 400.096 198.084C400.694 198.084 401.226 198.243 401.692 198.56C402.168 198.868 402.546 199.288 402.826 199.82C403.106 200.343 403.246 200.931 403.246 201.584C403.246 202.237 403.102 202.83 402.812 203.362C402.532 203.894 402.15 204.319 401.664 204.636C401.188 204.944 400.647 205.098 400.04 205.098C399.611 205.098 399.21 205.014 398.836 204.846C398.472 204.669 398.155 204.421 397.884 204.104V205H396.876ZM399.844 204.216C400.302 204.216 400.708 204.104 401.062 203.88C401.426 203.647 401.711 203.334 401.916 202.942C402.131 202.541 402.238 202.093 402.238 201.598C402.238 201.094 402.131 200.646 401.916 200.254C401.711 199.862 401.426 199.554 401.062 199.33C400.708 199.097 400.302 198.98 399.844 198.98C399.443 198.98 399.07 199.064 398.724 199.232C398.388 199.391 398.113 199.619 397.898 199.918V203.264C398.122 203.563 398.402 203.796 398.738 203.964C399.084 204.132 399.452 204.216 399.844 204.216ZM407.97 205V204.258L411.89 199.974C412.198 199.638 412.436 199.344 412.604 199.092C412.781 198.831 412.903 198.588 412.968 198.364C413.043 198.14 413.08 197.902 413.08 197.65C413.08 197.155 412.884 196.749 412.492 196.432C412.109 196.105 411.619 195.942 411.022 195.942C410.565 195.942 410.14 196.031 409.748 196.208C409.356 196.385 408.917 196.693 408.432 197.132L407.844 196.432C408.357 195.965 408.875 195.62 409.398 195.396C409.921 195.163 410.467 195.046 411.036 195.046C411.624 195.046 412.147 195.158 412.604 195.382C413.061 195.597 413.421 195.895 413.682 196.278C413.943 196.661 414.074 197.099 414.074 197.594C414.074 197.921 414.032 198.224 413.948 198.504C413.864 198.775 413.715 199.069 413.5 199.386C413.285 199.694 412.977 200.067 412.576 200.506L409.23 204.132L414.284 204.118V205H407.97Z" fill="#151515"/>
<mask id="path-29-inside-5_1689_112156" fill="white">
<path d="M431 178H498V223H431V178Z"/>
</mask>
<path d="M498 223V222H431V223V224H498V223Z" fill="#C7C7C7" mask="url(#path-29-inside-5_1689_112156)"/>
<path d="M439 192C439 188.686 441.686 186 445 186H484C487.314 186 490 188.686 490 192V209C490 212.314 487.314 215 484 215H445C441.686 215 439 212.314 439 209V192Z" fill="#C7C7C7"/>
<path d="M451.088 205V196.152H447.7V195.2H455.554V196.152H452.166V205H451.088ZM457.854 205.126C457.369 205.126 456.94 205.037 456.566 204.86C456.193 204.683 455.899 204.44 455.684 204.132C455.479 203.815 455.376 203.451 455.376 203.04C455.376 202.629 455.484 202.275 455.698 201.976C455.913 201.668 456.212 201.43 456.594 201.262C456.977 201.094 457.425 201.01 457.938 201.01C458.33 201.01 458.699 201.052 459.044 201.136C459.399 201.22 459.726 201.355 460.024 201.542V200.604C460.024 200.044 459.875 199.624 459.576 199.344C459.278 199.055 458.839 198.91 458.26 198.91C457.943 198.91 457.616 198.957 457.28 199.05C456.954 199.143 456.59 199.293 456.188 199.498L455.81 198.714C456.725 198.275 457.584 198.056 458.386 198.056C459.236 198.056 459.889 198.266 460.346 198.686C460.804 199.097 461.032 199.689 461.032 200.464V205H460.024V204.202C459.726 204.51 459.394 204.743 459.03 204.902C458.666 205.051 458.274 205.126 457.854 205.126ZM456.356 203.012C456.356 203.413 456.51 203.735 456.818 203.978C457.136 204.221 457.551 204.342 458.064 204.342C458.447 204.342 458.797 204.277 459.114 204.146C459.441 204.015 459.744 203.819 460.024 203.558V202.242C459.735 202.074 459.436 201.953 459.128 201.878C458.82 201.794 458.475 201.752 458.092 201.752C457.57 201.752 457.15 201.869 456.832 202.102C456.515 202.326 456.356 202.629 456.356 203.012ZM463.11 205V194.99L464.132 194.78V199.106C464.393 198.779 464.71 198.527 465.084 198.35C465.457 198.173 465.872 198.084 466.33 198.084C466.927 198.084 467.459 198.243 467.926 198.56C468.402 198.868 468.78 199.288 469.06 199.82C469.34 200.343 469.48 200.931 469.48 201.584C469.48 202.237 469.335 202.83 469.046 203.362C468.766 203.894 468.383 204.319 467.898 204.636C467.422 204.944 466.88 205.098 466.274 205.098C465.844 205.098 465.443 205.014 465.07 204.846C464.706 204.669 464.388 204.421 464.118 204.104V205H463.11ZM466.078 204.216C466.535 204.216 466.941 204.104 467.296 203.88C467.66 203.647 467.944 203.334 468.15 202.942C468.364 202.541 468.472 202.093 468.472 201.598C468.472 201.094 468.364 200.646 468.15 200.254C467.944 199.862 467.66 199.554 467.296 199.33C466.941 199.097 466.535 198.98 466.078 198.98C465.676 198.98 465.303 199.064 464.958 199.232C464.622 199.391 464.346 199.619 464.132 199.918V203.264C464.356 203.563 464.636 203.796 464.972 203.964C465.317 204.132 465.686 204.216 466.078 204.216ZM477.437 205.154C476.765 205.154 476.135 205.037 475.547 204.804C474.969 204.571 474.455 204.225 474.007 203.768L474.679 203.11C475.09 203.521 475.51 203.819 475.939 204.006C476.378 204.183 476.873 204.272 477.423 204.272C477.899 204.272 478.319 204.188 478.683 204.02C479.057 203.852 479.346 203.619 479.551 203.32C479.757 203.021 479.859 202.681 479.859 202.298C479.859 201.934 479.766 201.612 479.579 201.332C479.402 201.043 479.155 200.819 478.837 200.66C478.52 200.501 478.156 200.422 477.745 200.422H476.583V199.554H477.703C478.235 199.554 478.665 199.391 478.991 199.064C479.327 198.737 479.495 198.313 479.495 197.79C479.495 197.445 479.402 197.132 479.215 196.852C479.029 196.572 478.772 196.353 478.445 196.194C478.128 196.026 477.769 195.942 477.367 195.942C476.863 195.942 476.411 196.035 476.009 196.222C475.617 196.399 475.216 196.703 474.805 197.132L474.133 196.46C474.572 195.993 475.067 195.643 475.617 195.41C476.168 195.167 476.756 195.046 477.381 195.046C477.979 195.046 478.511 195.163 478.977 195.396C479.453 195.629 479.827 195.951 480.097 196.362C480.368 196.763 480.503 197.221 480.503 197.734C480.503 198.247 480.335 198.709 479.999 199.12C479.663 199.521 479.22 199.801 478.669 199.96C479.332 200.109 479.864 200.399 480.265 200.828C480.667 201.257 480.867 201.757 480.867 202.326C480.867 202.867 480.718 203.353 480.419 203.782C480.13 204.211 479.724 204.547 479.201 204.79C478.688 205.033 478.1 205.154 477.437 205.154Z" fill="#4D4D4D"/>
<g filter="url(#filter0_d_1689_112156)">
<path d="M365 121C365 117.686 367.686 115 371 115H559C562.314 115 565 117.686 565 121V161C565 164.314 562.314 167 559 167H371C367.686 167 365 164.314 365 161V121Z" fill="#292929"/>
<path d="M385.609 136V132.568L382.345 127.6H383.425L386.101 131.764L388.789 127.6H389.809L386.533 132.592V136H385.609ZM392.197 136.096C391.653 136.096 391.165 135.964 390.733 135.7C390.301 135.436 389.961 135.076 389.713 134.62C389.465 134.164 389.341 133.648 389.341 133.072C389.341 132.496 389.465 131.98 389.713 131.524C389.961 131.068 390.301 130.708 390.733 130.444C391.165 130.18 391.653 130.048 392.197 130.048C392.733 130.048 393.213 130.18 393.637 130.444C394.069 130.708 394.409 131.068 394.657 131.524C394.905 131.98 395.029 132.496 395.029 133.072C395.029 133.648 394.905 134.164 394.657 134.62C394.409 135.076 394.069 135.436 393.637 135.7C393.213 135.964 392.733 136.096 392.197 136.096ZM392.185 135.328C392.569 135.328 392.909 135.232 393.205 135.04C393.501 134.84 393.733 134.568 393.901 134.224C394.077 133.88 394.165 133.496 394.165 133.072C394.165 132.64 394.077 132.256 393.901 131.92C393.733 131.576 393.501 131.308 393.205 131.116C392.909 130.916 392.569 130.816 392.185 130.816C391.801 130.816 391.461 130.916 391.165 131.116C390.869 131.308 390.633 131.576 390.457 131.92C390.289 132.256 390.205 132.64 390.205 133.072C390.205 133.496 390.289 133.88 390.457 134.224C390.633 134.568 390.869 134.84 391.165 135.04C391.461 135.232 391.801 135.328 392.185 135.328ZM398.654 136.096C398.238 136.096 397.87 136.004 397.55 135.82C397.23 135.636 396.978 135.38 396.794 135.052C396.618 134.724 396.53 134.348 396.53 133.924V130.144H397.418V133.672C397.418 134.192 397.558 134.604 397.838 134.908C398.118 135.212 398.498 135.364 398.978 135.364C399.306 135.364 399.598 135.288 399.854 135.136C400.118 134.984 400.338 134.764 400.514 134.476V130.144H401.39V136H400.514V135.052C400.29 135.396 400.022 135.656 399.71 135.832C399.406 136.008 399.054 136.096 398.654 136.096ZM408.424 136.084C407.92 136.084 407.464 135.952 407.056 135.688C406.648 135.416 406.324 135.056 406.084 134.608C405.844 134.152 405.724 133.644 405.724 133.084C405.724 132.516 405.844 132.008 406.084 131.56C406.332 131.104 406.664 130.744 407.08 130.48C407.496 130.208 407.96 130.072 408.472 130.072C408.832 130.072 409.168 130.144 409.48 130.288C409.792 130.424 410.064 130.624 410.296 130.888V127.336L411.172 127.156V136H410.296V135.22C410.072 135.5 409.8 135.716 409.48 135.868C409.16 136.012 408.808 136.084 408.424 136.084ZM408.64 135.316C408.984 135.316 409.3 135.248 409.588 135.112C409.876 134.976 410.112 134.784 410.296 134.536V131.632C410.104 131.384 409.86 131.192 409.564 131.056C409.276 130.912 408.968 130.84 408.64 130.84C408.248 130.84 407.896 130.936 407.584 131.128C407.28 131.32 407.036 131.584 406.852 131.92C406.676 132.256 406.588 132.64 406.588 133.072C406.588 133.496 406.676 133.88 406.852 134.224C407.036 134.56 407.28 134.828 407.584 135.028C407.896 135.22 408.248 135.316 408.64 135.316ZM415.564 136.096C415.02 136.096 414.532 135.964 414.1 135.7C413.668 135.436 413.328 135.076 413.08 134.62C412.832 134.164 412.708 133.648 412.708 133.072C412.708 132.496 412.832 131.98 413.08 131.524C413.328 131.068 413.668 130.708 414.1 130.444C414.532 130.18 415.02 130.048 415.564 130.048C416.1 130.048 416.58 130.18 417.004 130.444C417.436 130.708 417.776 131.068 418.024 131.524C418.272 131.98 418.396 132.496 418.396 133.072C418.396 133.648 418.272 134.164 418.024 134.62C417.776 135.076 417.436 135.436 417.004 135.7C416.58 135.964 416.1 136.096 415.564 136.096ZM415.552 135.328C415.936 135.328 416.276 135.232 416.572 135.04C416.868 134.84 417.1 134.568 417.268 134.224C417.444 133.88 417.532 133.496 417.532 133.072C417.532 132.64 417.444 132.256 417.268 131.92C417.1 131.576 416.868 131.308 416.572 131.116C416.276 130.916 415.936 130.816 415.552 130.816C415.168 130.816 414.828 130.916 414.532 131.116C414.236 131.308 414 131.576 413.824 131.92C413.656 132.256 413.572 132.64 413.572 133.072C413.572 133.496 413.656 133.88 413.824 134.224C414 134.568 414.236 134.84 414.532 135.04C414.828 135.232 415.168 135.328 415.552 135.328ZM422.734 136V130.144H423.61V131.092C423.834 130.74 424.102 130.48 424.414 130.312C424.726 130.136 425.078 130.048 425.47 130.048C425.894 130.048 426.262 130.14 426.574 130.324C426.894 130.5 427.142 130.752 427.318 131.08C427.502 131.4 427.594 131.776 427.594 132.208V136H426.718V132.46C426.718 131.94 426.574 131.532 426.286 131.236C426.006 130.932 425.626 130.78 425.146 130.78C424.826 130.78 424.534 130.856 424.27 131.008C424.006 131.16 423.786 131.384 423.61 131.68V136H422.734ZM431.947 136.096C431.403 136.096 430.915 135.964 430.483 135.7C430.051 135.436 429.711 135.076 429.463 134.62C429.215 134.164 429.091 133.648 429.091 133.072C429.091 132.496 429.215 131.98 429.463 131.524C429.711 131.068 430.051 130.708 430.483 130.444C430.915 130.18 431.403 130.048 431.947 130.048C432.483 130.048 432.963 130.18 433.387 130.444C433.819 130.708 434.159 131.068 434.407 131.524C434.655 131.98 434.779 132.496 434.779 133.072C434.779 133.648 434.655 134.164 434.407 134.62C434.159 135.076 433.819 135.436 433.387 135.7C432.963 135.964 432.483 136.096 431.947 136.096ZM431.935 135.328C432.319 135.328 432.659 135.232 432.955 135.04C433.251 134.84 433.483 134.568 433.651 134.224C433.827 133.88 433.915 133.496 433.915 133.072C433.915 132.64 433.827 132.256 433.651 131.92C433.483 131.576 433.251 131.308 432.955 131.116C432.659 130.916 432.319 130.816 431.935 130.816C431.551 130.816 431.211 130.916 430.915 131.116C430.619 131.308 430.383 131.576 430.207 131.92C430.039 132.256 429.955 132.64 429.955 133.072C429.955 133.496 430.039 133.88 430.207 134.224C430.383 134.568 430.619 134.84 430.915 135.04C431.211 135.232 431.551 135.328 431.935 135.328ZM438.185 136.12C437.681 136.12 437.297 136 437.033 135.76C436.777 135.512 436.649 135.156 436.649 134.692V130.864H435.437V130.144H436.649V128.536L437.525 128.332V130.144H439.205V130.864H437.525V134.464C437.525 134.776 437.589 135 437.717 135.136C437.853 135.272 438.073 135.34 438.377 135.34C438.529 135.34 438.665 135.328 438.785 135.304C438.905 135.28 439.045 135.24 439.205 135.184V135.964C439.045 136.02 438.877 136.06 438.701 136.084C438.525 136.108 438.353 136.12 438.185 136.12ZM443.289 136V127.336L444.165 127.156V131.092C444.389 130.74 444.657 130.48 444.969 130.312C445.281 130.136 445.633 130.048 446.025 130.048C446.449 130.048 446.817 130.14 447.129 130.324C447.449 130.5 447.697 130.752 447.873 131.08C448.057 131.4 448.149 131.776 448.149 132.208V136H447.273V132.46C447.273 131.94 447.129 131.532 446.841 131.236C446.561 130.932 446.181 130.78 445.701 130.78C445.381 130.78 445.089 130.856 444.825 131.008C444.561 131.16 444.341 131.384 444.165 131.68V136H443.289ZM451.722 136.108C451.306 136.108 450.938 136.032 450.618 135.88C450.298 135.728 450.046 135.52 449.862 135.256C449.686 134.984 449.598 134.672 449.598 134.32C449.598 133.968 449.69 133.664 449.874 133.408C450.058 133.144 450.314 132.94 450.642 132.796C450.97 132.652 451.354 132.58 451.794 132.58C452.13 132.58 452.446 132.616 452.742 132.688C453.046 132.76 453.326 132.876 453.582 133.036V132.232C453.582 131.752 453.454 131.392 453.198 131.152C452.942 130.904 452.566 130.78 452.07 130.78C451.798 130.78 451.518 130.82 451.23 130.9C450.95 130.98 450.638 131.108 450.294 131.284L449.97 130.612C450.754 130.236 451.49 130.048 452.178 130.048C452.906 130.048 453.466 130.228 453.858 130.588C454.25 130.94 454.446 131.448 454.446 132.112V136H453.582V135.316C453.326 135.58 453.042 135.78 452.73 135.916C452.418 136.044 452.082 136.108 451.722 136.108ZM450.438 134.296C450.438 134.64 450.57 134.916 450.834 135.124C451.106 135.332 451.462 135.436 451.902 135.436C452.23 135.436 452.53 135.38 452.802 135.268C453.082 135.156 453.342 134.988 453.582 134.764V133.636C453.334 133.492 453.078 133.388 452.814 133.324C452.55 133.252 452.254 133.216 451.926 133.216C451.478 133.216 451.118 133.316 450.846 133.516C450.574 133.708 450.438 133.968 450.438 134.296ZM457.672 136L455.272 130.144H456.22L458.116 134.908L459.988 130.144H460.924L458.512 136H457.672ZM464.468 136.12C463.924 136.12 463.432 135.988 462.992 135.724C462.552 135.452 462.204 135.088 461.948 134.632C461.692 134.168 461.564 133.648 461.564 133.072C461.564 132.496 461.684 131.98 461.924 131.524C462.172 131.068 462.504 130.708 462.92 130.444C463.336 130.18 463.8 130.048 464.312 130.048C464.832 130.048 465.292 130.18 465.692 130.444C466.1 130.7 466.42 131.052 466.652 131.5C466.892 131.94 467.012 132.44 467.012 133V133.264H462.416C462.448 133.664 462.556 134.024 462.74 134.344C462.932 134.656 463.18 134.904 463.484 135.088C463.796 135.264 464.136 135.352 464.504 135.352C464.808 135.352 465.1 135.3 465.38 135.196C465.668 135.084 465.912 134.936 466.112 134.752L466.664 135.34C466.328 135.604 465.98 135.8 465.62 135.928C465.26 136.056 464.876 136.12 464.468 136.12ZM462.44 132.64H466.148C466.108 132.288 466 131.976 465.824 131.704C465.656 131.424 465.44 131.204 465.176 131.044C464.92 130.884 464.632 130.804 464.312 130.804C463.992 130.804 463.7 130.884 463.436 131.044C463.172 131.196 462.952 131.412 462.776 131.692C462.608 131.964 462.496 132.28 462.44 132.64ZM471.308 138.508V130.144H472.172V130.984C472.396 130.688 472.668 130.464 472.988 130.312C473.316 130.152 473.676 130.072 474.068 130.072C474.58 130.072 475.036 130.208 475.436 130.48C475.844 130.744 476.168 131.104 476.408 131.56C476.648 132.008 476.768 132.512 476.768 133.072C476.768 133.632 476.644 134.14 476.396 134.596C476.156 135.052 475.828 135.416 475.412 135.688C475.004 135.952 474.54 136.084 474.02 136.084C473.652 136.084 473.312 136.016 473 135.88C472.688 135.736 472.416 135.532 472.184 135.268V138.508H471.308ZM473.852 135.328C474.244 135.328 474.592 135.232 474.896 135.04C475.208 134.84 475.452 134.572 475.628 134.236C475.812 133.892 475.904 133.508 475.904 133.084C475.904 132.652 475.812 132.268 475.628 131.932C475.452 131.596 475.208 131.332 474.896 131.14C474.592 130.94 474.244 130.84 473.852 130.84C473.508 130.84 473.188 130.912 472.892 131.056C472.604 131.192 472.368 131.388 472.184 131.644V134.512C472.376 134.768 472.616 134.968 472.904 135.112C473.2 135.256 473.516 135.328 473.852 135.328ZM480.944 136.12C480.4 136.12 479.908 135.988 479.468 135.724C479.028 135.452 478.68 135.088 478.424 134.632C478.168 134.168 478.04 133.648 478.04 133.072C478.04 132.496 478.16 131.98 478.4 131.524C478.648 131.068 478.98 130.708 479.396 130.444C479.812 130.18 480.276 130.048 480.788 130.048C481.308 130.048 481.768 130.18 482.168 130.444C482.576 130.7 482.896 131.052 483.128 131.5C483.368 131.94 483.488 132.44 483.488 133V133.264H478.892C478.924 133.664 479.032 134.024 479.216 134.344C479.408 134.656 479.656 134.904 479.96 135.088C480.272 135.264 480.612 135.352 480.98 135.352C481.284 135.352 481.576 135.3 481.856 135.196C482.144 135.084 482.388 134.936 482.588 134.752L483.14 135.34C482.804 135.604 482.456 135.8 482.096 135.928C481.736 136.056 481.352 136.12 480.944 136.12ZM478.916 132.64H482.624C482.584 132.288 482.476 131.976 482.3 131.704C482.132 131.424 481.916 131.204 481.652 131.044C481.396 130.884 481.108 130.804 480.788 130.804C480.468 130.804 480.176 130.884 479.912 131.044C479.648 131.196 479.428 131.412 479.252 131.692C479.084 131.964 478.972 132.28 478.916 132.64ZM484.984 136V130.144H485.86V131.344C486.012 130.936 486.228 130.62 486.508 130.396C486.796 130.164 487.124 130.048 487.492 130.048C487.596 130.048 487.692 130.056 487.78 130.072C487.868 130.08 487.956 130.1 488.044 130.132V130.924C487.948 130.892 487.844 130.868 487.732 130.852C487.628 130.828 487.528 130.816 487.432 130.816C487.072 130.816 486.756 130.92 486.484 131.128C486.22 131.336 486.012 131.628 485.86 132.004V136H484.984ZM489.203 136V130.144H490.079V131.056C490.303 130.72 490.559 130.468 490.847 130.3C491.135 130.132 491.459 130.048 491.819 130.048C492.235 130.048 492.599 130.152 492.911 130.36C493.223 130.56 493.459 130.836 493.619 131.188C493.851 130.812 494.127 130.528 494.447 130.336C494.775 130.144 495.151 130.048 495.575 130.048C495.967 130.048 496.311 130.14 496.607 130.324C496.911 130.508 497.147 130.764 497.315 131.092C497.483 131.412 497.567 131.788 497.567 132.22V136H496.691V132.436C496.691 131.924 496.563 131.52 496.307 131.224C496.051 130.928 495.699 130.78 495.251 130.78C494.947 130.78 494.671 130.856 494.423 131.008C494.183 131.16 493.971 131.392 493.787 131.704C493.803 131.784 493.815 131.868 493.823 131.956C493.831 132.044 493.835 132.132 493.835 132.22V136H492.959V132.436C492.959 131.924 492.827 131.52 492.563 131.224C492.307 130.928 491.955 130.78 491.507 130.78C490.907 130.78 490.431 131.068 490.079 131.644V136H489.203ZM499.327 136V130.144H500.203V136H499.327ZM499.771 128.692C499.595 128.692 499.443 128.632 499.315 128.512C499.195 128.384 499.135 128.236 499.135 128.068C499.135 127.9 499.195 127.756 499.315 127.636C499.443 127.508 499.595 127.444 499.771 127.444C499.947 127.444 500.095 127.508 500.215 127.636C500.343 127.756 500.407 127.9 500.407 128.068C500.407 128.236 500.343 128.384 500.215 128.512C500.095 128.632 499.947 128.692 499.771 128.692ZM503.812 136.12C503.332 136.12 502.888 136.048 502.48 135.904C502.072 135.752 501.724 135.536 501.436 135.256L501.904 134.68C502.256 134.936 502.58 135.124 502.876 135.244C503.172 135.356 503.476 135.412 503.788 135.412C504.212 135.412 504.564 135.312 504.844 135.112C505.124 134.912 505.264 134.656 505.264 134.344C505.264 134.104 505.18 133.916 505.012 133.78C504.852 133.644 504.584 133.54 504.208 133.468L503.248 133.3C502.68 133.196 502.26 133.02 501.988 132.772C501.724 132.524 501.592 132.188 501.592 131.764C501.592 131.428 501.68 131.132 501.856 130.876C502.04 130.62 502.292 130.42 502.612 130.276C502.932 130.124 503.296 130.048 503.704 130.048C504.104 130.048 504.484 130.108 504.844 130.228C505.204 130.34 505.568 130.524 505.936 130.78L505.504 131.392C505.2 131.176 504.896 131.02 504.592 130.924C504.288 130.82 503.98 130.768 503.668 130.768C503.284 130.768 502.976 130.852 502.744 131.02C502.512 131.188 502.396 131.416 502.396 131.704C502.396 131.944 502.468 132.128 502.612 132.256C502.764 132.384 503.028 132.48 503.404 132.544L504.388 132.724C504.98 132.828 505.412 133.008 505.684 133.264C505.956 133.52 506.092 133.864 506.092 134.296C506.092 134.64 505.992 134.952 505.792 135.232C505.592 135.504 505.32 135.72 504.976 135.88C504.632 136.04 504.244 136.12 503.812 136.12ZM509.237 136.12C508.757 136.12 508.313 136.048 507.905 135.904C507.497 135.752 507.149 135.536 506.861 135.256L507.329 134.68C507.681 134.936 508.005 135.124 508.301 135.244C508.597 135.356 508.901 135.412 509.213 135.412C509.637 135.412 509.989 135.312 510.269 135.112C510.549 134.912 510.689 134.656 510.689 134.344C510.689 134.104 510.605 133.916 510.437 133.78C510.277 133.644 510.009 133.54 509.633 133.468L508.673 133.3C508.105 133.196 507.685 133.02 507.413 132.772C507.149 132.524 507.017 132.188 507.017 131.764C507.017 131.428 507.105 131.132 507.281 130.876C507.465 130.62 507.717 130.42 508.037 130.276C508.357 130.124 508.721 130.048 509.129 130.048C509.529 130.048 509.909 130.108 510.269 130.228C510.629 130.34 510.993 130.524 511.361 130.78L510.929 131.392C510.625 131.176 510.321 131.02 510.017 130.924C509.713 130.82 509.405 130.768 509.093 130.768C508.709 130.768 508.401 130.852 508.169 131.02C507.937 131.188 507.821 131.416 507.821 131.704C507.821 131.944 507.893 132.128 508.037 132.256C508.189 132.384 508.453 132.48 508.829 132.544L509.813 132.724C510.405 132.828 510.837 133.008 511.109 133.264C511.381 133.52 511.517 133.864 511.517 134.296C511.517 134.64 511.417 134.952 511.217 135.232C511.017 135.504 510.745 135.72 510.401 135.88C510.057 136.04 509.669 136.12 509.237 136.12ZM512.839 136V130.144H513.715V136H512.839ZM513.283 128.692C513.107 128.692 512.955 128.632 512.827 128.512C512.707 128.384 512.647 128.236 512.647 128.068C512.647 127.9 512.707 127.756 512.827 127.636C512.955 127.508 513.107 127.444 513.283 127.444C513.459 127.444 513.607 127.508 513.727 127.636C513.855 127.756 513.919 127.9 513.919 128.068C513.919 128.236 513.855 128.384 513.727 128.512C513.607 128.632 513.459 128.692 513.283 128.692ZM518.103 136.096C517.559 136.096 517.071 135.964 516.639 135.7C516.207 135.436 515.867 135.076 515.619 134.62C515.371 134.164 515.247 133.648 515.247 133.072C515.247 132.496 515.371 131.98 515.619 131.524C515.867 131.068 516.207 130.708 516.639 130.444C517.071 130.18 517.559 130.048 518.103 130.048C518.639 130.048 519.119 130.18 519.543 130.444C519.975 130.708 520.315 131.068 520.563 131.524C520.811 131.98 520.935 132.496 520.935 133.072C520.935 133.648 520.811 134.164 520.563 134.62C520.315 135.076 519.975 135.436 519.543 135.7C519.119 135.964 518.639 136.096 518.103 136.096ZM518.091 135.328C518.475 135.328 518.815 135.232 519.111 135.04C519.407 134.84 519.639 134.568 519.807 134.224C519.983 133.88 520.071 133.496 520.071 133.072C520.071 132.64 519.983 132.256 519.807 131.92C519.639 131.576 519.407 131.308 519.111 131.116C518.815 130.916 518.475 130.816 518.091 130.816C517.707 130.816 517.367 130.916 517.071 131.116C516.775 131.308 516.539 131.576 516.363 131.92C516.195 132.256 516.111 132.64 516.111 133.072C516.111 133.496 516.195 133.88 516.363 134.224C516.539 134.568 516.775 134.84 517.071 135.04C517.367 135.232 517.707 135.328 518.091 135.328ZM522.472 136V130.144H523.348V131.092C523.572 130.74 523.84 130.48 524.152 130.312C524.464 130.136 524.816 130.048 525.208 130.048C525.632 130.048 526 130.14 526.312 130.324C526.632 130.5 526.88 130.752 527.056 131.08C527.24 131.4 527.332 131.776 527.332 132.208V136H526.456V132.46C526.456 131.94 526.312 131.532 526.024 131.236C525.744 130.932 525.364 130.78 524.884 130.78C524.564 130.78 524.272 130.856 524.008 131.008C523.744 131.16 523.524 131.384 523.348 131.68V136H522.472ZM530.905 136.12C530.425 136.12 529.981 136.048 529.573 135.904C529.165 135.752 528.817 135.536 528.529 135.256L528.997 134.68C529.349 134.936 529.673 135.124 529.969 135.244C530.265 135.356 530.569 135.412 530.881 135.412C531.305 135.412 531.657 135.312 531.937 135.112C532.217 134.912 532.357 134.656 532.357 134.344C532.357 134.104 532.273 133.916 532.105 133.78C531.945 133.644 531.677 133.54 531.301 133.468L530.341 133.3C529.773 133.196 529.353 133.02 529.081 132.772C528.817 132.524 528.685 132.188 528.685 131.764C528.685 131.428 528.773 131.132 528.949 130.876C529.133 130.62 529.385 130.42 529.705 130.276C530.025 130.124 530.389 130.048 530.797 130.048C531.197 130.048 531.577 130.108 531.937 130.228C532.297 130.34 532.661 130.524 533.029 130.78L532.597 131.392C532.293 131.176 531.989 131.02 531.685 130.924C531.381 130.82 531.073 130.768 530.761 130.768C530.377 130.768 530.069 130.852 529.837 131.02C529.605 131.188 529.489 131.416 529.489 131.704C529.489 131.944 529.561 132.128 529.705 132.256C529.857 132.384 530.121 132.48 530.497 132.544L531.481 132.724C532.073 132.828 532.505 133.008 532.777 133.264C533.049 133.52 533.185 133.864 533.185 134.296C533.185 134.64 533.085 134.952 532.885 135.232C532.685 135.504 532.413 135.72 532.069 135.88C531.725 136.04 531.337 136.12 530.905 136.12ZM539.552 136.12C539.048 136.12 538.664 136 538.4 135.76C538.144 135.512 538.016 135.156 538.016 134.692V130.864H536.804V130.144H538.016V128.536L538.892 128.332V130.144H540.572V130.864H538.892V134.464C538.892 134.776 538.956 135 539.084 135.136C539.22 135.272 539.44 135.34 539.744 135.34C539.896 135.34 540.032 135.328 540.152 135.304C540.272 135.28 540.412 135.24 540.572 135.184V135.964C540.412 136.02 540.244 136.06 540.068 136.084C539.892 136.108 539.72 136.12 539.552 136.12ZM544.33 136.096C543.786 136.096 543.298 135.964 542.866 135.7C542.434 135.436 542.094 135.076 541.846 134.62C541.598 134.164 541.474 133.648 541.474 133.072C541.474 132.496 541.598 131.98 541.846 131.524C542.094 131.068 542.434 130.708 542.866 130.444C543.298 130.18 543.786 130.048 544.33 130.048C544.866 130.048 545.346 130.18 545.77 130.444C546.202 130.708 546.542 131.068 546.79 131.524C547.038 131.98 547.162 132.496 547.162 133.072C547.162 133.648 547.038 134.164 546.79 134.62C546.542 135.076 546.202 135.436 545.77 135.7C545.346 135.964 544.866 136.096 544.33 136.096ZM544.318 135.328C544.702 135.328 545.042 135.232 545.338 135.04C545.634 134.84 545.866 134.568 546.034 134.224C546.21 133.88 546.298 133.496 546.298 133.072C546.298 132.64 546.21 132.256 546.034 131.92C545.866 131.576 545.634 131.308 545.338 131.116C545.042 130.916 544.702 130.816 544.318 130.816C543.934 130.816 543.594 130.916 543.298 131.116C543.002 131.308 542.766 131.576 542.59 131.92C542.422 132.256 542.338 132.64 542.338 133.072C542.338 133.496 542.422 133.88 542.59 134.224C542.766 134.568 543.002 134.84 543.298 135.04C543.594 135.232 543.934 135.328 544.318 135.328ZM390.963 154L388.563 148.144H389.511L391.407 152.908L393.279 148.144H394.215L391.803 154H390.963ZM395.283 154V148.144H396.159V154H395.283ZM395.727 146.692C395.551 146.692 395.399 146.632 395.271 146.512C395.151 146.384 395.091 146.236 395.091 146.068C395.091 145.9 395.151 145.756 395.271 145.636C395.399 145.508 395.551 145.444 395.727 145.444C395.903 145.444 396.051 145.508 396.171 145.636C396.299 145.756 396.363 145.9 396.363 146.068C396.363 146.236 396.299 146.384 396.171 146.512C396.051 146.632 395.903 146.692 395.727 146.692ZM400.595 154.12C400.051 154.12 399.559 153.988 399.119 153.724C398.679 153.452 398.331 153.088 398.075 152.632C397.819 152.168 397.691 151.648 397.691 151.072C397.691 150.496 397.811 149.98 398.051 149.524C398.299 149.068 398.631 148.708 399.047 148.444C399.463 148.18 399.927 148.048 400.439 148.048C400.959 148.048 401.419 148.18 401.819 148.444C402.227 148.7 402.547 149.052 402.779 149.5C403.019 149.94 403.139 150.44 403.139 151V151.264H398.543C398.575 151.664 398.683 152.024 398.867 152.344C399.059 152.656 399.307 152.904 399.611 153.088C399.923 153.264 400.263 153.352 400.631 153.352C400.935 153.352 401.227 153.3 401.507 153.196C401.795 153.084 402.039 152.936 402.239 152.752L402.791 153.34C402.455 153.604 402.107 153.8 401.747 153.928C401.387 154.056 401.003 154.12 400.595 154.12ZM398.567 150.64H402.275C402.235 150.288 402.127 149.976 401.951 149.704C401.783 149.424 401.567 149.204 401.303 149.044C401.047 148.884 400.759 148.804 400.439 148.804C400.119 148.804 399.827 148.884 399.563 149.044C399.299 149.196 399.079 149.412 398.903 149.692C398.735 149.964 398.623 150.28 398.567 150.64ZM405.561 154L403.953 148.144H404.805L406.029 152.824L407.433 148.144H408.213L409.617 152.824L410.829 148.144H411.657L410.061 154H409.209L407.817 149.272L406.425 154H405.561ZM417.929 154.12C417.425 154.12 417.041 154 416.777 153.76C416.521 153.512 416.393 153.156 416.393 152.692V148.864H415.181V148.144H416.393V146.536L417.269 146.332V148.144H418.949V148.864H417.269V152.464C417.269 152.776 417.333 153 417.461 153.136C417.597 153.272 417.817 153.34 418.121 153.34C418.273 153.34 418.409 153.328 418.529 153.304C418.649 153.28 418.789 153.24 418.949 153.184V153.964C418.789 154.02 418.621 154.06 418.445 154.084C418.269 154.108 418.097 154.12 417.929 154.12ZM420.232 154V145.336L421.108 145.156V149.092C421.332 148.74 421.6 148.48 421.912 148.312C422.224 148.136 422.576 148.048 422.968 148.048C423.392 148.048 423.76 148.14 424.072 148.324C424.392 148.5 424.64 148.752 424.816 149.08C425 149.4 425.092 149.776 425.092 150.208V154H424.216V150.46C424.216 149.94 424.072 149.532 423.784 149.236C423.504 148.932 423.124 148.78 422.644 148.78C422.324 148.78 422.032 148.856 421.768 149.008C421.504 149.16 421.284 149.384 421.108 149.68V154H420.232ZM429.493 154.12C428.949 154.12 428.457 153.988 428.017 153.724C427.577 153.452 427.229 153.088 426.973 152.632C426.717 152.168 426.589 151.648 426.589 151.072C426.589 150.496 426.709 149.98 426.949 149.524C427.197 149.068 427.529 148.708 427.945 148.444C428.361 148.18 428.825 148.048 429.337 148.048C429.857 148.048 430.317 148.18 430.717 148.444C431.125 148.7 431.445 149.052 431.677 149.5C431.917 149.94 432.037 150.44 432.037 151V151.264H427.441C427.473 151.664 427.581 152.024 427.765 152.344C427.957 152.656 428.205 152.904 428.509 153.088C428.821 153.264 429.161 153.352 429.529 153.352C429.833 153.352 430.125 153.3 430.405 153.196C430.693 153.084 430.937 152.936 431.137 152.752L431.689 153.34C431.353 153.604 431.005 153.8 430.645 153.928C430.285 154.056 429.901 154.12 429.493 154.12ZM427.465 150.64H431.173C431.133 150.288 431.025 149.976 430.849 149.704C430.681 149.424 430.465 149.204 430.201 149.044C429.945 148.884 429.657 148.804 429.337 148.804C429.017 148.804 428.725 148.884 428.461 149.044C428.197 149.196 427.977 149.412 427.801 149.692C427.633 149.964 427.521 150.28 427.465 150.64ZM438.962 154.096C438.418 154.096 437.926 153.964 437.486 153.7C437.054 153.428 436.71 153.064 436.454 152.608C436.198 152.144 436.07 151.632 436.07 151.072C436.07 150.504 436.198 149.992 436.454 149.536C436.71 149.08 437.054 148.72 437.486 148.456C437.926 148.184 438.418 148.048 438.962 148.048C439.394 148.048 439.806 148.128 440.198 148.288C440.59 148.448 440.93 148.672 441.218 148.96L440.654 149.572C440.446 149.34 440.194 149.16 439.898 149.032C439.602 148.904 439.302 148.84 438.998 148.84C438.614 148.84 438.266 148.94 437.954 149.14C437.65 149.34 437.406 149.608 437.222 149.944C437.038 150.28 436.946 150.656 436.946 151.072C436.946 151.488 437.038 151.864 437.222 152.2C437.406 152.536 437.65 152.804 437.954 153.004C438.266 153.204 438.614 153.304 438.998 153.304C439.302 153.304 439.602 153.24 439.898 153.112C440.194 152.976 440.446 152.796 440.654 152.572L441.218 153.184C440.93 153.472 440.59 153.696 440.198 153.856C439.806 154.016 439.394 154.096 438.962 154.096ZM444.855 154.096C444.311 154.096 443.823 153.964 443.391 153.7C442.959 153.436 442.619 153.076 442.371 152.62C442.123 152.164 441.999 151.648 441.999 151.072C441.999 150.496 442.123 149.98 442.371 149.524C442.619 149.068 442.959 148.708 443.391 148.444C443.823 148.18 444.311 148.048 444.855 148.048C445.391 148.048 445.871 148.18 446.295 148.444C446.727 148.708 447.067 149.068 447.315 149.524C447.563 149.98 447.687 150.496 447.687 151.072C447.687 151.648 447.563 152.164 447.315 152.62C447.067 153.076 446.727 153.436 446.295 153.7C445.871 153.964 445.391 154.096 444.855 154.096ZM444.843 153.328C445.227 153.328 445.567 153.232 445.863 153.04C446.159 152.84 446.391 152.568 446.559 152.224C446.735 151.88 446.823 151.496 446.823 151.072C446.823 150.64 446.735 150.256 446.559 149.92C446.391 149.576 446.159 149.308 445.863 149.116C445.567 148.916 445.227 148.816 444.843 148.816C444.459 148.816 444.119 148.916 443.823 149.116C443.527 149.308 443.291 149.576 443.115 149.92C442.947 150.256 442.863 150.64 442.863 151.072C442.863 151.496 442.947 151.88 443.115 152.224C443.291 152.568 443.527 152.84 443.823 153.04C444.119 153.232 444.459 153.328 444.843 153.328ZM449.224 154V148.144H450.1V149.092C450.324 148.74 450.592 148.48 450.904 148.312C451.216 148.136 451.568 148.048 451.96 148.048C452.384 148.048 452.752 148.14 453.064 148.324C453.384 148.5 453.632 148.752 453.808 149.08C453.992 149.4 454.084 149.776 454.084 150.208V154H453.208V150.46C453.208 149.94 453.064 149.532 452.776 149.236C452.496 148.932 452.116 148.78 451.636 148.78C451.316 148.78 451.024 148.856 450.76 149.008C450.496 149.16 450.276 149.384 450.1 149.68V154H449.224ZM457.902 154.12C457.398 154.12 457.014 154 456.75 153.76C456.494 153.512 456.366 153.156 456.366 152.692V148.864H455.154V148.144H456.366V146.536L457.242 146.332V148.144H458.922V148.864H457.242V152.464C457.242 152.776 457.306 153 457.434 153.136C457.57 153.272 457.79 153.34 458.094 153.34C458.246 153.34 458.382 153.328 458.502 153.304C458.622 153.28 458.762 153.24 458.922 153.184V153.964C458.762 154.02 458.594 154.06 458.418 154.084C458.242 154.108 458.07 154.12 457.902 154.12ZM462.728 154.12C462.184 154.12 461.692 153.988 461.252 153.724C460.812 153.452 460.464 153.088 460.208 152.632C459.952 152.168 459.824 151.648 459.824 151.072C459.824 150.496 459.944 149.98 460.184 149.524C460.432 149.068 460.764 148.708 461.18 148.444C461.596 148.18 462.06 148.048 462.572 148.048C463.092 148.048 463.552 148.18 463.952 148.444C464.36 148.7 464.68 149.052 464.912 149.5C465.152 149.94 465.272 150.44 465.272 151V151.264H460.676C460.708 151.664 460.816 152.024 461 152.344C461.192 152.656 461.44 152.904 461.744 153.088C462.056 153.264 462.396 153.352 462.764 153.352C463.068 153.352 463.36 153.3 463.64 153.196C463.928 153.084 464.172 152.936 464.372 152.752L464.924 153.34C464.588 153.604 464.24 153.8 463.88 153.928C463.52 154.056 463.136 154.12 462.728 154.12ZM460.7 150.64H464.408C464.368 150.288 464.26 149.976 464.084 149.704C463.916 149.424 463.7 149.204 463.436 149.044C463.18 148.884 462.892 148.804 462.572 148.804C462.252 148.804 461.96 148.884 461.696 149.044C461.432 149.196 461.212 149.412 461.036 149.692C460.868 149.964 460.756 150.28 460.7 150.64ZM466.767 154V148.144H467.643V149.092C467.867 148.74 468.135 148.48 468.447 148.312C468.759 148.136 469.111 148.048 469.503 148.048C469.927 148.048 470.295 148.14 470.607 148.324C470.927 148.5 471.175 148.752 471.351 149.08C471.535 149.4 471.627 149.776 471.627 150.208V154H470.751V150.46C470.751 149.94 470.607 149.532 470.319 149.236C470.039 148.932 469.659 148.78 469.179 148.78C468.859 148.78 468.567 148.856 468.303 149.008C468.039 149.16 467.819 149.384 467.643 149.68V154H466.767ZM475.445 154.12C474.941 154.12 474.557 154 474.293 153.76C474.037 153.512 473.909 153.156 473.909 152.692V148.864H472.697V148.144H473.909V146.536L474.785 146.332V148.144H476.465V148.864H474.785V152.464C474.785 152.776 474.849 153 474.977 153.136C475.113 153.272 475.333 153.34 475.637 153.34C475.789 153.34 475.925 153.328 476.045 153.304C476.165 153.28 476.305 153.24 476.465 153.184V153.964C476.305 154.02 476.137 154.06 475.961 154.084C475.785 154.108 475.613 154.12 475.445 154.12ZM479.677 154.12C479.197 154.12 478.753 154.048 478.345 153.904C477.937 153.752 477.589 153.536 477.301 153.256L477.769 152.68C478.121 152.936 478.445 153.124 478.741 153.244C479.037 153.356 479.341 153.412 479.653 153.412C480.077 153.412 480.429 153.312 480.709 153.112C480.989 152.912 481.129 152.656 481.129 152.344C481.129 152.104 481.045 151.916 480.877 151.78C480.717 151.644 480.449 151.54 480.073 151.468L479.113 151.3C478.545 151.196 478.125 151.02 477.853 150.772C477.589 150.524 477.457 150.188 477.457 149.764C477.457 149.428 477.545 149.132 477.721 148.876C477.905 148.62 478.157 148.42 478.477 148.276C478.797 148.124 479.161 148.048 479.569 148.048C479.969 148.048 480.349 148.108 480.709 148.228C481.069 148.34 481.433 148.524 481.801 148.78L481.369 149.392C481.065 149.176 480.761 149.02 480.457 148.924C480.153 148.82 479.845 148.768 479.533 148.768C479.149 148.768 478.841 148.852 478.609 149.02C478.377 149.188 478.261 149.416 478.261 149.704C478.261 149.944 478.333 150.128 478.477 150.256C478.629 150.384 478.893 150.48 479.269 150.544L480.253 150.724C480.845 150.828 481.277 151.008 481.549 151.264C481.821 151.52 481.957 151.864 481.957 152.296C481.957 152.64 481.857 152.952 481.657 153.232C481.457 153.504 481.185 153.72 480.841 153.88C480.497 154.04 480.109 154.12 479.677 154.12ZM488.683 154.096C488.139 154.096 487.651 153.964 487.219 153.7C486.787 153.436 486.447 153.076 486.199 152.62C485.951 152.164 485.827 151.648 485.827 151.072C485.827 150.496 485.951 149.98 486.199 149.524C486.447 149.068 486.787 148.708 487.219 148.444C487.651 148.18 488.139 148.048 488.683 148.048C489.219 148.048 489.699 148.18 490.123 148.444C490.555 148.708 490.895 149.068 491.143 149.524C491.391 149.98 491.515 150.496 491.515 151.072C491.515 151.648 491.391 152.164 491.143 152.62C490.895 153.076 490.555 153.436 490.123 153.7C489.699 153.964 489.219 154.096 488.683 154.096ZM488.671 153.328C489.055 153.328 489.395 153.232 489.691 153.04C489.987 152.84 490.219 152.568 490.387 152.224C490.563 151.88 490.651 151.496 490.651 151.072C490.651 150.64 490.563 150.256 490.387 149.92C490.219 149.576 489.987 149.308 489.691 149.116C489.395 148.916 489.055 148.816 488.671 148.816C488.287 148.816 487.947 148.916 487.651 149.116C487.355 149.308 487.119 149.576 486.943 149.92C486.775 150.256 486.691 150.64 486.691 151.072C486.691 151.496 486.775 151.88 486.943 152.224C487.119 152.568 487.355 152.84 487.651 153.04C487.947 153.232 488.287 153.328 488.671 153.328ZM493.433 154V148.864H492.125V148.144H493.433V146.92C493.433 146.344 493.585 145.9 493.889 145.588C494.193 145.276 494.625 145.12 495.185 145.12C495.345 145.12 495.489 145.128 495.617 145.144C495.753 145.16 495.873 145.188 495.977 145.228V146.02C495.849 145.98 495.733 145.952 495.629 145.936C495.525 145.92 495.405 145.912 495.269 145.912C494.933 145.912 494.689 145.996 494.537 146.164C494.385 146.324 494.309 146.58 494.309 146.932V148.144H495.977V148.864H494.309V154H493.433ZM502.163 154.12C501.659 154.12 501.275 154 501.011 153.76C500.755 153.512 500.627 153.156 500.627 152.692V148.864H499.415V148.144H500.627V146.536L501.503 146.332V148.144H503.183V148.864H501.503V152.464C501.503 152.776 501.567 153 501.695 153.136C501.831 153.272 502.051 153.34 502.355 153.34C502.507 153.34 502.643 153.328 502.763 153.304C502.883 153.28 503.023 153.24 503.183 153.184V153.964C503.023 154.02 502.855 154.06 502.679 154.084C502.503 154.108 502.331 154.12 502.163 154.12ZM504.466 154V145.336L505.342 145.156V149.092C505.566 148.74 505.834 148.48 506.146 148.312C506.458 148.136 506.81 148.048 507.202 148.048C507.626 148.048 507.994 148.14 508.306 148.324C508.626 148.5 508.874 148.752 509.05 149.08C509.234 149.4 509.326 149.776 509.326 150.208V154H508.45V150.46C508.45 149.94 508.306 149.532 508.018 149.236C507.738 148.932 507.358 148.78 506.878 148.78C506.558 148.78 506.266 148.856 506.002 149.008C505.738 149.16 505.518 149.384 505.342 149.68V154H504.466ZM511.076 154V148.144H511.951V154H511.076ZM511.52 146.692C511.344 146.692 511.192 146.632 511.064 146.512C510.944 146.384 510.884 146.236 510.884 146.068C510.884 145.9 510.944 145.756 511.064 145.636C511.192 145.508 511.344 145.444 511.52 145.444C511.696 145.444 511.844 145.508 511.964 145.636C512.092 145.756 512.156 145.9 512.156 146.068C512.156 146.236 512.092 146.384 511.964 146.512C511.844 146.632 511.696 146.692 511.52 146.692ZM515.56 154.12C515.08 154.12 514.636 154.048 514.228 153.904C513.82 153.752 513.472 153.536 513.184 153.256L513.652 152.68C514.004 152.936 514.328 153.124 514.624 153.244C514.92 153.356 515.224 153.412 515.536 153.412C515.96 153.412 516.312 153.312 516.592 153.112C516.872 152.912 517.012 152.656 517.012 152.344C517.012 152.104 516.928 151.916 516.76 151.78C516.6 151.644 516.332 151.54 515.956 151.468L514.996 151.3C514.428 151.196 514.008 151.02 513.736 150.772C513.472 150.524 513.34 150.188 513.34 149.764C513.34 149.428 513.428 149.132 513.604 148.876C513.788 148.62 514.04 148.42 514.36 148.276C514.68 148.124 515.044 148.048 515.452 148.048C515.852 148.048 516.232 148.108 516.592 148.228C516.952 148.34 517.316 148.524 517.684 148.78L517.252 149.392C516.948 149.176 516.644 149.02 516.34 148.924C516.036 148.82 515.728 148.768 515.416 148.768C515.032 148.768 514.724 148.852 514.492 149.02C514.26 149.188 514.144 149.416 514.144 149.704C514.144 149.944 514.216 150.128 514.36 150.256C514.512 150.384 514.776 150.48 515.152 150.544L516.136 150.724C516.728 150.828 517.16 151.008 517.432 151.264C517.704 151.52 517.84 151.864 517.84 152.296C517.84 152.64 517.74 152.952 517.54 153.232C517.34 153.504 517.068 153.72 516.724 153.88C516.38 154.04 515.992 154.12 515.56 154.12ZM524.206 154.12C523.702 154.12 523.318 154 523.054 153.76C522.798 153.512 522.67 153.156 522.67 152.692V148.864H521.458V148.144H522.67V146.536L523.546 146.332V148.144H525.226V148.864H523.546V152.464C523.546 152.776 523.61 153 523.738 153.136C523.874 153.272 524.094 153.34 524.398 153.34C524.55 153.34 524.686 153.328 524.806 153.304C524.926 153.28 525.066 153.24 525.226 153.184V153.964C525.066 154.02 524.898 154.06 524.722 154.084C524.546 154.108 524.374 154.12 524.206 154.12ZM528.321 154.108C527.905 154.108 527.537 154.032 527.217 153.88C526.897 153.728 526.645 153.52 526.461 153.256C526.285 152.984 526.197 152.672 526.197 152.32C526.197 151.968 526.289 151.664 526.473 151.408C526.657 151.144 526.913 150.94 527.241 150.796C527.569 150.652 527.953 150.58 528.393 150.58C528.729 150.58 529.045 150.616 529.341 150.688C529.645 150.76 529.925 150.876 530.181 151.036V150.232C530.181 149.752 530.053 149.392 529.797 149.152C529.541 148.904 529.165 148.78 528.669 148.78C528.397 148.78 528.117 148.82 527.829 148.9C527.549 148.98 527.237 149.108 526.893 149.284L526.569 148.612C527.353 148.236 528.089 148.048 528.777 148.048C529.505 148.048 530.065 148.228 530.457 148.588C530.849 148.94 531.045 149.448 531.045 150.112V154H530.181V153.316C529.925 153.58 529.641 153.78 529.329 153.916C529.017 154.044 528.681 154.108 528.321 154.108ZM527.037 152.296C527.037 152.64 527.169 152.916 527.433 153.124C527.705 153.332 528.061 153.436 528.501 153.436C528.829 153.436 529.129 153.38 529.401 153.268C529.681 153.156 529.941 152.988 530.181 152.764V151.636C529.933 151.492 529.677 151.388 529.413 151.324C529.149 151.252 528.853 151.216 528.525 151.216C528.077 151.216 527.717 151.316 527.445 151.516C527.173 151.708 527.037 151.968 527.037 152.296ZM532.826 154V145.42L533.702 145.24V148.948C533.926 148.668 534.198 148.452 534.518 148.3C534.838 148.148 535.194 148.072 535.586 148.072C536.098 148.072 536.554 148.208 536.954 148.48C537.362 148.744 537.686 149.104 537.926 149.56C538.166 150.008 538.286 150.512 538.286 151.072C538.286 151.632 538.162 152.14 537.914 152.596C537.674 153.052 537.346 153.416 536.93 153.688C536.522 153.952 536.058 154.084 535.538 154.084C535.17 154.084 534.826 154.012 534.506 153.868C534.194 153.716 533.922 153.504 533.69 153.232V154H532.826ZM535.37 153.328C535.762 153.328 536.11 153.232 536.414 153.04C536.726 152.84 536.97 152.572 537.146 152.236C537.33 151.892 537.422 151.508 537.422 151.084C537.422 150.652 537.33 150.268 537.146 149.932C536.97 149.596 536.726 149.332 536.414 149.14C536.11 148.94 535.762 148.84 535.37 148.84C535.026 148.84 534.706 148.912 534.41 149.056C534.122 149.192 533.886 149.388 533.702 149.644V152.512C533.894 152.768 534.134 152.968 534.422 153.112C534.718 153.256 535.034 153.328 535.37 153.328ZM540.117 154.096C539.941 154.096 539.789 154.032 539.661 153.904C539.541 153.776 539.481 153.624 539.481 153.448C539.481 153.264 539.541 153.112 539.661 152.992C539.789 152.864 539.941 152.8 540.117 152.8C540.293 152.8 540.441 152.864 540.561 152.992C540.689 153.112 540.753 153.264 540.753 153.448C540.753 153.624 540.689 153.776 540.561 153.904C540.441 154.032 540.293 154.096 540.117 154.096Z" fill="white"/>
<path d="M465 182L454.175 167H475.825L465 182Z" fill="#292929"/>
</g>
<mask id="path-36-inside-6_1689_112156" fill="white">
<path fill-rule="evenodd" clip-rule="evenodd" d="M472.465 208.195C471.131 207.425 469.465 208.387 469.465 209.927L469.465 223.934C469.465 225.474 471.131 226.436 472.465 225.666L476.105 223.565L477.743 226.402C478.295 227.359 479.518 227.687 480.475 227.134L482.278 226.093C483.235 225.541 483.562 224.318 483.01 223.361L481.372 220.524L484.595 218.663C485.928 217.893 485.928 215.968 484.595 215.198L472.465 208.195Z"/>
</mask>
<path fill-rule="evenodd" clip-rule="evenodd" d="M472.465 208.195C471.131 207.425 469.465 208.387 469.465 209.927L469.465 223.934C469.465 225.474 471.131 226.436 472.465 225.666L476.105 223.565L477.743 226.402C478.295 227.359 479.518 227.687 480.475 227.134L482.278 226.093C483.235 225.541 483.562 224.318 483.01 223.361L481.372 220.524L484.595 218.663C485.928 217.893 485.928 215.968 484.595 215.198L472.465 208.195Z" fill="#FF00FF"/>
<path d="M469.465 209.927L468.465 209.927V209.927L469.465 209.927ZM472.465 208.195L472.965 207.329L472.965 207.329L472.465 208.195ZM469.465 223.934L470.465 223.934V223.934L469.465 223.934ZM476.105 223.565L476.971 223.065L476.471 222.199L475.605 222.699L476.105 223.565ZM477.743 226.402L476.877 226.902L477.743 226.402ZM483.01 223.361L483.876 222.861L483.01 223.361ZM481.372 220.524L480.872 219.657L480.006 220.157L480.506 221.024L481.372 220.524ZM484.595 215.198L484.095 216.064L484.095 216.064L484.595 215.198ZM469.465 209.927L470.465 209.927C470.465 209.157 471.298 208.676 471.965 209.061L472.465 208.195L472.965 207.329C470.965 206.174 468.465 207.618 468.465 209.927L469.465 209.927ZM469.465 223.934L470.465 223.934L470.465 209.927L469.465 209.927L468.465 209.927L468.465 223.934L469.465 223.934ZM472.465 225.666L471.965 224.8C471.298 225.185 470.465 224.704 470.465 223.934L469.465 223.934L468.465 223.934C468.465 226.243 470.965 227.687 472.965 226.532L472.465 225.666ZM476.105 223.565L475.605 222.699L471.965 224.8L472.465 225.666L472.965 226.532L476.605 224.431L476.105 223.565ZM477.743 226.402L478.609 225.902L476.971 223.065L476.105 223.565L475.238 224.065L476.877 226.902L477.743 226.402ZM480.475 227.134L479.975 226.268C479.497 226.544 478.885 226.381 478.609 225.902L477.743 226.402L476.877 226.902C477.705 228.337 479.54 228.829 480.975 228L480.475 227.134ZM482.278 226.093L481.778 225.227L479.975 226.268L480.475 227.134L480.975 228L482.778 226.959L482.278 226.093ZM483.01 223.361L482.144 223.861C482.42 224.339 482.256 224.951 481.778 225.227L482.278 226.093L482.778 226.959C484.213 226.131 484.705 224.296 483.876 222.861L483.01 223.361ZM481.372 220.524L480.506 221.024L482.144 223.861L483.01 223.361L483.876 222.861L482.238 220.024L481.372 220.524ZM484.595 218.663L484.095 217.797L480.872 219.657L481.372 220.524L481.872 221.39L485.095 219.529L484.595 218.663ZM484.595 215.198L484.095 216.064C484.762 216.449 484.762 217.412 484.095 217.797L484.595 218.663L485.095 219.529C487.095 218.374 487.095 215.487 485.095 214.332L484.595 215.198ZM472.465 208.195L471.965 209.061L484.095 216.064L484.595 215.198L485.095 214.332L472.965 207.329L472.465 208.195Z" fill="#FF00FF" mask="url(#path-36-inside-6_1689_112156)"/>
</g>
<defs>
<filter id="filter0_d_1689_112156" x="356" y="110" width="218" height="85" filterUnits="userSpaceOnUse" color-interpolation-filters="sRGB">
<feFlood flood-opacity="0" result="BackgroundImageFix"/>
<feColorMatrix in="SourceAlpha" type="matrix" values="0 0 0 0 0 0 0 0 0 0 0 0 0 0 0 0 0 0 127 0" result="hardAlpha"/>
<feOffset dy="4"/>
<feGaussianBlur stdDeviation="4.5"/>
<feColorMatrix type="matrix" values="0 0 0 0 0.160784 0 0 0 0 0.160784 0 0 0 0 0.160784 0 0 0 0.15 0"/>
<feBlend mode="normal" in2="BackgroundImageFix" result="effect1_dropShadow_1689_112156"/>
<feBlend mode="normal" in="SourceGraphic" in2="effect1_dropShadow_1689_112156" result="shape"/>
</filter>
<linearGradient id="paint0_linear_1689_112156" x1="1569.06" y1="16.8043" x2="-234.756" y2="3023.17" gradientUnits="userSpaceOnUse">
<stop stop-color="#2B9AF3"/>
<stop offset="1" stop-color="#73BCF7" stop-opacity="0.502213"/>
</linearGradient>
<linearGradient id="paint1_linear_1689_112156" x1="113.196" y1="-1439.07" x2="-2893.17" y2="364.756" gradientUnits="userSpaceOnUse">
<stop stop-color="#2B9AF3"/>
<stop offset="1" stop-color="#73BCF7" stop-opacity="0.502213"/>
</linearGradient>
<clipPath id="clip0_1689_112156">
<rect width="615" height="392" fill="white"/>
</clipPath>
</defs>
</svg>
