<svg width="782" height="256" viewBox="0 0 782 256" fill="none" xmlns="http://www.w3.org/2000/svg">
<g clip-path="url(#clip0_1811_36991)">
<rect width="782" height="256" fill="white"/>
<path d="M0 24C0 10.7452 10.7452 0 24 0H758C771.255 0 782 10.7452 782 24V232C782 245.255 771.255 256 758 256H24C10.7452 256 0 245.255 0 232V24Z" fill="white"/>
<rect width="782" height="64" fill="white"/>
<mask id="path-2-inside-1_1811_36991" fill="white">
<path d="M24 28C24 25.7909 25.7909 24 28 24H36C38.2091 24 40 25.7909 40 28V36C40 38.2091 38.2091 40 36 40H28C25.7909 40 24 38.2091 24 36V28Z"/>
</mask>
<path d="M24 28C24 25.7909 25.7909 24 28 24H36C38.2091 24 40 25.7909 40 28V36C40 38.2091 38.2091 40 36 40H28C25.7909 40 24 38.2091 24 36V28Z" fill="white"/>
<path d="M28 24V25H36V24V23H28V24ZM40 28H39V36H40H41V28H40ZM36 40V39H28V40V41H36V40ZM24 36H25V28H24H23V36H24ZM28 40V39C26.3431 39 25 37.6569 25 36H24H23C23 38.7614 25.2386 41 28 41V40ZM40 36H39C39 37.6569 37.6569 39 36 39V40V41C38.7614 41 41 38.7614 41 36H40ZM36 24V25C37.6569 25 39 26.3431 39 28H40H41C41 25.2386 38.7614 23 36 23V24ZM28 24V23C25.2386 23 23 25.2386 23 28H24H25C25 26.3431 26.3431 25 28 25V24Z" fill="#C7C7C7" mask="url(#path-2-inside-1_1811_36991)"/>
<path d="M81.948 36V27.6H83.388V31.128H87.564V27.6H89.004V36H87.564V32.412H83.388V36H81.948ZM93.5891 36.12C93.0131 36.12 92.4931 35.984 92.0291 35.712C91.5651 35.432 91.1971 35.06 90.9251 34.596C90.6531 34.124 90.5171 33.592 90.5171 33C90.5171 32.408 90.6451 31.88 90.9011 31.416C91.1571 30.952 91.5051 30.584 91.9451 30.312C92.3931 30.032 92.8891 29.892 93.4331 29.892C93.9931 29.892 94.4851 30.028 94.9091 30.3C95.3411 30.572 95.6771 30.94 95.9171 31.404C96.1651 31.868 96.2891 32.4 96.2891 33V33.324H91.8491C91.8971 33.652 92.0011 33.944 92.1611 34.2C92.3291 34.448 92.5411 34.644 92.7971 34.788C93.0611 34.932 93.3451 35.004 93.6491 35.004C93.9291 35.004 94.1931 34.956 94.4411 34.86C94.6971 34.756 94.9091 34.616 95.0771 34.44L95.9651 35.244C95.5971 35.548 95.2211 35.772 94.8371 35.916C94.4611 36.052 94.0451 36.12 93.5891 36.12ZM91.8611 32.484H95.0051C94.9571 32.196 94.8571 31.94 94.7051 31.716C94.5611 31.492 94.3771 31.316 94.1531 31.188C93.9371 31.06 93.6971 30.996 93.4331 30.996C93.1691 30.996 92.9251 31.06 92.7011 31.188C92.4851 31.308 92.3051 31.48 92.1611 31.704C92.0171 31.928 91.9171 32.188 91.8611 32.484ZM99.4374 36.108C99.0214 36.108 98.6494 36.032 98.3214 35.88C98.0014 35.72 97.7494 35.504 97.5654 35.232C97.3894 34.952 97.3014 34.632 97.3014 34.272C97.3014 33.912 97.3934 33.6 97.5774 33.336C97.7694 33.072 98.0374 32.868 98.3814 32.724C98.7254 32.58 99.1334 32.508 99.6054 32.508C99.8854 32.508 100.161 32.54 100.433 32.604C100.705 32.66 100.969 32.756 101.225 32.892V32.22C101.225 31.82 101.109 31.52 100.877 31.32C100.653 31.12 100.309 31.02 99.8454 31.02C99.5974 31.02 99.3294 31.06 99.0414 31.14C98.7614 31.212 98.4454 31.328 98.0934 31.488L97.6134 30.504C98.4934 30.096 99.3254 29.892 100.109 29.892C100.893 29.892 101.497 30.084 101.921 30.468C102.353 30.844 102.569 31.38 102.569 32.076V36H101.225V35.376C100.969 35.624 100.693 35.808 100.397 35.928C100.101 36.048 99.7814 36.108 99.4374 36.108ZM98.5734 34.248C98.5734 34.528 98.6854 34.748 98.9094 34.908C99.1334 35.068 99.4334 35.148 99.8094 35.148C100.081 35.148 100.333 35.108 100.565 35.028C100.805 34.94 101.025 34.812 101.225 34.644V33.672C101.017 33.576 100.801 33.504 100.577 33.456C100.353 33.408 100.109 33.384 99.8454 33.384C99.4534 33.384 99.1414 33.46 98.9094 33.612C98.6854 33.764 98.5734 33.976 98.5734 34.248ZM106.647 36.06C106.143 36.06 105.687 35.924 105.279 35.652C104.871 35.372 104.543 35.004 104.295 34.548C104.055 34.084 103.935 33.568 103.935 33C103.935 32.424 104.059 31.908 104.307 31.452C104.555 30.988 104.891 30.62 105.315 30.348C105.747 30.076 106.223 29.94 106.743 29.94C107.087 29.94 107.407 30.008 107.703 30.144C108.007 30.272 108.271 30.464 108.495 30.72V27.396L109.851 27.156V36H108.507V35.208C108.291 35.48 108.023 35.692 107.703 35.844C107.383 35.988 107.031 36.06 106.647 36.06ZM107.067 34.92C107.355 34.92 107.623 34.864 107.871 34.752C108.119 34.632 108.327 34.468 108.495 34.26V31.728C108.319 31.52 108.107 31.36 107.859 31.248C107.611 31.136 107.347 31.08 107.067 31.08C106.723 31.08 106.415 31.164 106.143 31.332C105.879 31.492 105.667 31.716 105.507 32.004C105.347 32.292 105.267 32.624 105.267 33C105.267 33.36 105.347 33.688 105.507 33.984C105.667 34.272 105.879 34.5 106.143 34.668C106.415 34.836 106.723 34.92 107.067 34.92ZM114.331 36.12C113.755 36.12 113.235 35.984 112.771 35.712C112.307 35.432 111.939 35.06 111.667 34.596C111.395 34.124 111.259 33.592 111.259 33C111.259 32.408 111.387 31.88 111.643 31.416C111.899 30.952 112.247 30.584 112.687 30.312C113.135 30.032 113.631 29.892 114.175 29.892C114.735 29.892 115.227 30.028 115.651 30.3C116.083 30.572 116.419 30.94 116.659 31.404C116.907 31.868 117.031 32.4 117.031 33V33.324H112.591C112.639 33.652 112.743 33.944 112.903 34.2C113.071 34.448 113.283 34.644 113.539 34.788C113.803 34.932 114.087 35.004 114.391 35.004C114.671 35.004 114.935 34.956 115.183 34.86C115.439 34.756 115.651 34.616 115.819 34.44L116.707 35.244C116.339 35.548 115.963 35.772 115.579 35.916C115.203 36.052 114.787 36.12 114.331 36.12ZM112.603 32.484H115.747C115.699 32.196 115.599 31.94 115.447 31.716C115.303 31.492 115.119 31.316 114.895 31.188C114.679 31.06 114.439 30.996 114.175 30.996C113.911 30.996 113.667 31.06 113.443 31.188C113.227 31.308 113.047 31.48 112.903 31.704C112.759 31.928 112.659 32.188 112.603 32.484ZM118.414 36V29.988H119.77V31.284C119.946 30.828 120.174 30.48 120.454 30.24C120.734 30 121.058 29.88 121.426 29.88C121.538 29.888 121.638 29.9 121.726 29.916C121.814 29.924 121.91 29.952 122.014 30V31.188C121.91 31.14 121.79 31.104 121.654 31.08C121.526 31.056 121.398 31.044 121.27 31.044C120.942 31.044 120.646 31.132 120.382 31.308C120.126 31.484 119.922 31.728 119.77 32.04V36H118.414Z" fill="#0066CC"/>
<path d="M139.683 27.1642C139.902 26.9446 140.259 26.9446 140.479 27.1642L142.495 29.1817C142.85 29.5361 142.599 30.1416 142.098 30.1417H141.018V37.2189C141.018 37.374 140.892 37.5001 140.736 37.5001H139.424C139.269 37.4999 139.143 37.3739 139.143 37.2189V30.1417H138.064C137.563 30.1416 137.312 29.5361 137.666 29.1817L139.683 27.1642Z" fill="#0066CC"/>
<path d="M296.948 36V27.6H298.388V31.128H302.564V27.6H304.004V36H302.564V32.412H298.388V36H296.948ZM308.589 36.12C308.013 36.12 307.493 35.984 307.029 35.712C306.565 35.432 306.197 35.06 305.925 34.596C305.653 34.124 305.517 33.592 305.517 33C305.517 32.408 305.645 31.88 305.901 31.416C306.157 30.952 306.505 30.584 306.945 30.312C307.393 30.032 307.889 29.892 308.433 29.892C308.993 29.892 309.485 30.028 309.909 30.3C310.341 30.572 310.677 30.94 310.917 31.404C311.165 31.868 311.289 32.4 311.289 33V33.324H306.849C306.897 33.652 307.001 33.944 307.161 34.2C307.329 34.448 307.541 34.644 307.797 34.788C308.061 34.932 308.345 35.004 308.649 35.004C308.929 35.004 309.193 34.956 309.441 34.86C309.697 34.756 309.909 34.616 310.077 34.44L310.965 35.244C310.597 35.548 310.221 35.772 309.837 35.916C309.461 36.052 309.045 36.12 308.589 36.12ZM306.861 32.484H310.005C309.957 32.196 309.857 31.94 309.705 31.716C309.561 31.492 309.377 31.316 309.153 31.188C308.937 31.06 308.697 30.996 308.433 30.996C308.169 30.996 307.925 31.06 307.701 31.188C307.485 31.308 307.305 31.48 307.161 31.704C307.017 31.928 306.917 32.188 306.861 32.484ZM314.437 36.108C314.021 36.108 313.649 36.032 313.321 35.88C313.001 35.72 312.749 35.504 312.565 35.232C312.389 34.952 312.301 34.632 312.301 34.272C312.301 33.912 312.393 33.6 312.577 33.336C312.769 33.072 313.037 32.868 313.381 32.724C313.725 32.58 314.133 32.508 314.605 32.508C314.885 32.508 315.161 32.54 315.433 32.604C315.705 32.66 315.969 32.756 316.225 32.892V32.22C316.225 31.82 316.109 31.52 315.877 31.32C315.653 31.12 315.309 31.02 314.845 31.02C314.597 31.02 314.329 31.06 314.041 31.14C313.761 31.212 313.445 31.328 313.093 31.488L312.613 30.504C313.493 30.096 314.325 29.892 315.109 29.892C315.893 29.892 316.497 30.084 316.921 30.468C317.353 30.844 317.569 31.38 317.569 32.076V36H316.225V35.376C315.969 35.624 315.693 35.808 315.397 35.928C315.101 36.048 314.781 36.108 314.437 36.108ZM313.573 34.248C313.573 34.528 313.685 34.748 313.909 34.908C314.133 35.068 314.433 35.148 314.809 35.148C315.081 35.148 315.333 35.108 315.565 35.028C315.805 34.94 316.025 34.812 316.225 34.644V33.672C316.017 33.576 315.801 33.504 315.577 33.456C315.353 33.408 315.109 33.384 314.845 33.384C314.453 33.384 314.141 33.46 313.909 33.612C313.685 33.764 313.573 33.976 313.573 34.248ZM321.647 36.06C321.143 36.06 320.687 35.924 320.279 35.652C319.871 35.372 319.543 35.004 319.295 34.548C319.055 34.084 318.935 33.568 318.935 33C318.935 32.424 319.059 31.908 319.307 31.452C319.555 30.988 319.891 30.62 320.315 30.348C320.747 30.076 321.223 29.94 321.743 29.94C322.087 29.94 322.407 30.008 322.703 30.144C323.007 30.272 323.271 30.464 323.495 30.72V27.396L324.851 27.156V36H323.507V35.208C323.291 35.48 323.023 35.692 322.703 35.844C322.383 35.988 322.031 36.06 321.647 36.06ZM322.067 34.92C322.355 34.92 322.623 34.864 322.871 34.752C323.119 34.632 323.327 34.468 323.495 34.26V31.728C323.319 31.52 323.107 31.36 322.859 31.248C322.611 31.136 322.347 31.08 322.067 31.08C321.723 31.08 321.415 31.164 321.143 31.332C320.879 31.492 320.667 31.716 320.507 32.004C320.347 32.292 320.267 32.624 320.267 33C320.267 33.36 320.347 33.688 320.507 33.984C320.667 34.272 320.879 34.5 321.143 34.668C321.415 34.836 321.723 34.92 322.067 34.92ZM329.331 36.12C328.755 36.12 328.235 35.984 327.771 35.712C327.307 35.432 326.939 35.06 326.667 34.596C326.395 34.124 326.259 33.592 326.259 33C326.259 32.408 326.387 31.88 326.643 31.416C326.899 30.952 327.247 30.584 327.687 30.312C328.135 30.032 328.631 29.892 329.175 29.892C329.735 29.892 330.227 30.028 330.651 30.3C331.083 30.572 331.419 30.94 331.659 31.404C331.907 31.868 332.031 32.4 332.031 33V33.324H327.591C327.639 33.652 327.743 33.944 327.903 34.2C328.071 34.448 328.283 34.644 328.539 34.788C328.803 34.932 329.087 35.004 329.391 35.004C329.671 35.004 329.935 34.956 330.183 34.86C330.439 34.756 330.651 34.616 330.819 34.44L331.707 35.244C331.339 35.548 330.963 35.772 330.579 35.916C330.203 36.052 329.787 36.12 329.331 36.12ZM327.603 32.484H330.747C330.699 32.196 330.599 31.94 330.447 31.716C330.303 31.492 330.119 31.316 329.895 31.188C329.679 31.06 329.439 30.996 329.175 30.996C328.911 30.996 328.667 31.06 328.443 31.188C328.227 31.308 328.047 31.48 327.903 31.704C327.759 31.928 327.659 32.188 327.603 32.484ZM333.414 36V29.988H334.77V31.284C334.946 30.828 335.174 30.48 335.454 30.24C335.734 30 336.058 29.88 336.426 29.88C336.538 29.888 336.638 29.9 336.726 29.916C336.814 29.924 336.91 29.952 337.014 30V31.188C336.91 31.14 336.79 31.104 336.654 31.08C336.526 31.056 336.398 31.044 336.27 31.044C335.942 31.044 335.646 31.132 335.382 31.308C335.126 31.484 334.922 31.728 334.77 32.04V36H333.414Z" fill="#151515"/>
<path d="M354.683 26.1642C354.902 25.9446 355.259 25.9446 355.479 26.1642L357.495 28.1817C357.85 28.5361 357.599 29.1416 357.098 29.1417H356.018V34.8575H357.098C357.599 34.8576 357.85 35.4641 357.495 35.8185L355.479 37.8351C355.259 38.0547 354.902 38.0547 354.683 37.8351L352.666 35.8185C352.312 35.4641 352.563 34.8576 353.064 34.8575H354.143V29.1417H353.064C352.563 29.1416 352.312 28.5361 352.666 28.1817L354.683 26.1642Z" fill="#707070"/>
<path d="M384 26C387.313 26 390 28.6875 390 32C390 35.3144 387.313 38 384 38C380.687 38 378 35.3144 378 32C378 28.6875 380.687 26 384 26ZM384 27.1611C381.326 27.1611 379.161 29.3267 379.161 32C379.161 34.6751 381.326 36.8389 384 36.8389C386.675 36.8389 388.839 34.6741 388.839 32C388.839 29.3259 386.673 27.1611 384 27.1611ZM384 33.6934C384.56 33.6934 385.017 34.1497 385.017 34.71C385.016 35.2701 384.56 35.7256 384 35.7256C383.44 35.7256 382.984 35.2701 382.983 34.71C382.983 34.1497 383.44 33.6934 384 33.6934ZM384.141 28.5166C385.328 28.5168 386.594 29.4428 386.595 30.6641C386.595 32.2862 384.843 32.3117 384.843 32.9111V33.0645C384.843 33.2248 384.712 33.3545 384.552 33.3545H383.448C383.288 33.3545 383.157 33.2248 383.157 33.0645V32.8555C383.157 31.9908 383.813 31.6449 384.309 31.3672C384.733 31.1291 384.994 30.9666 384.994 30.6514C384.994 30.2341 384.462 29.957 384.031 29.957C383.47 29.9571 383.212 30.2224 382.848 30.6816C382.75 30.8054 382.57 30.8287 382.444 30.7334L381.771 30.2227C381.647 30.1289 381.62 29.9552 381.707 29.8271C382.279 28.9878 383.007 28.5166 384.141 28.5166Z" fill="#1F1F1F"/>
<path d="M511.948 36V27.6H513.388V31.128H517.564V27.6H519.004V36H517.564V32.412H513.388V36H511.948ZM523.589 36.12C523.013 36.12 522.493 35.984 522.029 35.712C521.565 35.432 521.197 35.06 520.925 34.596C520.653 34.124 520.517 33.592 520.517 33C520.517 32.408 520.645 31.88 520.901 31.416C521.157 30.952 521.505 30.584 521.945 30.312C522.393 30.032 522.889 29.892 523.433 29.892C523.993 29.892 524.485 30.028 524.909 30.3C525.341 30.572 525.677 30.94 525.917 31.404C526.165 31.868 526.289 32.4 526.289 33V33.324H521.849C521.897 33.652 522.001 33.944 522.161 34.2C522.329 34.448 522.541 34.644 522.797 34.788C523.061 34.932 523.345 35.004 523.649 35.004C523.929 35.004 524.193 34.956 524.441 34.86C524.697 34.756 524.909 34.616 525.077 34.44L525.965 35.244C525.597 35.548 525.221 35.772 524.837 35.916C524.461 36.052 524.045 36.12 523.589 36.12ZM521.861 32.484H525.005C524.957 32.196 524.857 31.94 524.705 31.716C524.561 31.492 524.377 31.316 524.153 31.188C523.937 31.06 523.697 30.996 523.433 30.996C523.169 30.996 522.925 31.06 522.701 31.188C522.485 31.308 522.305 31.48 522.161 31.704C522.017 31.928 521.917 32.188 521.861 32.484ZM529.437 36.108C529.021 36.108 528.649 36.032 528.321 35.88C528.001 35.72 527.749 35.504 527.565 35.232C527.389 34.952 527.301 34.632 527.301 34.272C527.301 33.912 527.393 33.6 527.577 33.336C527.769 33.072 528.037 32.868 528.381 32.724C528.725 32.58 529.133 32.508 529.605 32.508C529.885 32.508 530.161 32.54 530.433 32.604C530.705 32.66 530.969 32.756 531.225 32.892V32.22C531.225 31.82 531.109 31.52 530.877 31.32C530.653 31.12 530.309 31.02 529.845 31.02C529.597 31.02 529.329 31.06 529.041 31.14C528.761 31.212 528.445 31.328 528.093 31.488L527.613 30.504C528.493 30.096 529.325 29.892 530.109 29.892C530.893 29.892 531.497 30.084 531.921 30.468C532.353 30.844 532.569 31.38 532.569 32.076V36H531.225V35.376C530.969 35.624 530.693 35.808 530.397 35.928C530.101 36.048 529.781 36.108 529.437 36.108ZM528.573 34.248C528.573 34.528 528.685 34.748 528.909 34.908C529.133 35.068 529.433 35.148 529.809 35.148C530.081 35.148 530.333 35.108 530.565 35.028C530.805 34.94 531.025 34.812 531.225 34.644V33.672C531.017 33.576 530.801 33.504 530.577 33.456C530.353 33.408 530.109 33.384 529.845 33.384C529.453 33.384 529.141 33.46 528.909 33.612C528.685 33.764 528.573 33.976 528.573 34.248ZM536.647 36.06C536.143 36.06 535.687 35.924 535.279 35.652C534.871 35.372 534.543 35.004 534.295 34.548C534.055 34.084 533.935 33.568 533.935 33C533.935 32.424 534.059 31.908 534.307 31.452C534.555 30.988 534.891 30.62 535.315 30.348C535.747 30.076 536.223 29.94 536.743 29.94C537.087 29.94 537.407 30.008 537.703 30.144C538.007 30.272 538.271 30.464 538.495 30.72V27.396L539.851 27.156V36H538.507V35.208C538.291 35.48 538.023 35.692 537.703 35.844C537.383 35.988 537.031 36.06 536.647 36.06ZM537.067 34.92C537.355 34.92 537.623 34.864 537.871 34.752C538.119 34.632 538.327 34.468 538.495 34.26V31.728C538.319 31.52 538.107 31.36 537.859 31.248C537.611 31.136 537.347 31.08 537.067 31.08C536.723 31.08 536.415 31.164 536.143 31.332C535.879 31.492 535.667 31.716 535.507 32.004C535.347 32.292 535.267 32.624 535.267 33C535.267 33.36 535.347 33.688 535.507 33.984C535.667 34.272 535.879 34.5 536.143 34.668C536.415 34.836 536.723 34.92 537.067 34.92ZM544.331 36.12C543.755 36.12 543.235 35.984 542.771 35.712C542.307 35.432 541.939 35.06 541.667 34.596C541.395 34.124 541.259 33.592 541.259 33C541.259 32.408 541.387 31.88 541.643 31.416C541.899 30.952 542.247 30.584 542.687 30.312C543.135 30.032 543.631 29.892 544.175 29.892C544.735 29.892 545.227 30.028 545.651 30.3C546.083 30.572 546.419 30.94 546.659 31.404C546.907 31.868 547.031 32.4 547.031 33V33.324H542.591C542.639 33.652 542.743 33.944 542.903 34.2C543.071 34.448 543.283 34.644 543.539 34.788C543.803 34.932 544.087 35.004 544.391 35.004C544.671 35.004 544.935 34.956 545.183 34.86C545.439 34.756 545.651 34.616 545.819 34.44L546.707 35.244C546.339 35.548 545.963 35.772 545.579 35.916C545.203 36.052 544.787 36.12 544.331 36.12ZM542.603 32.484H545.747C545.699 32.196 545.599 31.94 545.447 31.716C545.303 31.492 545.119 31.316 544.895 31.188C544.679 31.06 544.439 30.996 544.175 30.996C543.911 30.996 543.667 31.06 543.443 31.188C543.227 31.308 543.047 31.48 542.903 31.704C542.759 31.928 542.659 32.188 542.603 32.484ZM548.414 36V29.988H549.77V31.284C549.946 30.828 550.174 30.48 550.454 30.24C550.734 30 551.058 29.88 551.426 29.88C551.538 29.888 551.638 29.9 551.726 29.916C551.814 29.924 551.91 29.952 552.014 30V31.188C551.91 31.14 551.79 31.104 551.654 31.08C551.526 31.056 551.398 31.044 551.27 31.044C550.942 31.044 550.646 31.132 550.382 31.308C550.126 31.484 549.922 31.728 549.77 32.04V36H548.414Z" fill="#151515"/>
<path d="M569.683 26.1642C569.902 25.9446 570.259 25.9446 570.479 26.1642L572.495 28.1817C572.849 28.5361 572.599 29.1416 572.098 29.1417H571.018V34.8575H572.098C572.599 34.8576 572.85 35.4641 572.495 35.8185L570.479 37.8351C570.259 38.0547 569.902 38.0547 569.683 37.8351L567.666 35.8185C567.312 35.4641 567.562 34.8576 568.064 34.8575H569.143V29.1417H568.064C567.562 29.1416 567.312 28.5361 567.666 28.1817L569.683 26.1642Z" fill="#707070"/>
<path d="M599 26C602.313 26 605 28.6875 605 32C605 35.3144 602.313 38 599 38C595.687 38 593 35.3144 593 32C593 28.6875 595.687 26 599 26ZM599 27.1611C596.326 27.1611 594.161 29.3267 594.161 32C594.161 34.6751 596.326 36.8389 599 36.8389C601.675 36.8389 603.839 34.6741 603.839 32C603.839 29.3259 601.673 27.1611 599 27.1611ZM599 33.6934C599.56 33.6934 600.017 34.1497 600.017 34.71C600.016 35.2701 599.56 35.7256 599 35.7256C598.44 35.7256 597.984 35.2701 597.983 34.71C597.983 34.1497 598.44 33.6934 599 33.6934ZM599.141 28.5166C600.328 28.5168 601.594 29.4428 601.595 30.6641C601.595 32.2862 599.843 32.3117 599.843 32.9111V33.0645C599.843 33.2248 599.712 33.3545 599.552 33.3545H598.448C598.288 33.3545 598.157 33.2248 598.157 33.0645V32.8555C598.157 31.9908 598.813 31.6449 599.309 31.3672C599.733 31.1291 599.994 30.9666 599.994 30.6514C599.994 30.2341 599.462 29.957 599.031 29.957C598.47 29.9571 598.212 30.2224 597.848 30.6816C597.75 30.8054 597.57 30.8287 597.444 30.7334L596.771 30.2227C596.647 30.1289 596.62 29.9552 596.707 29.8271C597.279 28.9878 598.007 28.5166 599.141 28.5166Z" fill="#1F1F1F"/>
<mask id="path-17-inside-2_1811_36991" fill="white">
<path d="M0 64H782V128H0V64Z"/>
</mask>
<path d="M0 64H782V128H0V64Z" fill="white"/>
<path d="M782 128V127H0V128V129H782V128Z" fill="#C7C7C7" mask="url(#path-17-inside-2_1811_36991)"/>
<mask id="path-19-inside-3_1811_36991" fill="white">
<path d="M24 92C24 89.7909 25.7909 88 28 88H36C38.2091 88 40 89.7909 40 92V100C40 102.209 38.2091 104 36 104H28C25.7909 104 24 102.209 24 100V92Z"/>
</mask>
<path d="M24 92C24 89.7909 25.7909 88 28 88H36C38.2091 88 40 89.7909 40 92V100C40 102.209 38.2091 104 36 104H28C25.7909 104 24 102.209 24 100V92Z" fill="white"/>
<path d="M28 88V89H36V88V87H28V88ZM40 92H39V100H40H41V92H40ZM36 104V103H28V104V105H36V104ZM24 100H25V92H24H23V100H24ZM28 104V103C26.3431 103 25 101.657 25 100H24H23C23 102.761 25.2386 105 28 105V104ZM40 100H39C39 101.657 37.6569 103 36 103V104V105C38.7614 105 41 102.761 41 100H40ZM36 88V89C37.6569 89 39 90.3431 39 92H40H41C41 89.2386 38.7614 87 36 87V88ZM28 88V87C25.2386 87 23 89.2386 23 92H24H25C25 90.3431 26.3431 89 28 89V88Z" fill="#C7C7C7" mask="url(#path-19-inside-3_1811_36991)"/>
<path d="M83.78 100.5V91.652H80.392V90.7H88.246V91.652H84.858V100.5H83.78ZM90.5468 100.626C90.0615 100.626 89.6321 100.537 89.2588 100.36C88.8855 100.183 88.5915 99.94 88.3768 99.632C88.1715 99.3147 88.0688 98.9507 88.0688 98.54C88.0688 98.1293 88.1761 97.7747 88.3908 97.476C88.6055 97.168 88.9041 96.93 89.2868 96.762C89.6695 96.594 90.1175 96.51 90.6308 96.51C91.0228 96.51 91.3915 96.552 91.7368 96.636C92.0915 96.72 92.4181 96.8553 92.7168 97.042V96.104C92.7168 95.544 92.5675 95.124 92.2688 94.844C91.9701 94.5547 91.5315 94.41 90.9528 94.41C90.6355 94.41 90.3088 94.4567 89.9728 94.55C89.6461 94.6433 89.2821 94.7927 88.8808 94.998L88.5028 94.214C89.4175 93.7753 90.2761 93.556 91.0788 93.556C91.9281 93.556 92.5815 93.766 93.0388 94.186C93.4961 94.5967 93.7248 95.1893 93.7248 95.964V100.5H92.7168V99.702C92.4181 100.01 92.0868 100.243 91.7228 100.402C91.3588 100.551 90.9668 100.626 90.5468 100.626ZM89.0488 98.512C89.0488 98.9133 89.2028 99.2353 89.5108 99.478C89.8281 99.7207 90.2435 99.842 90.7568 99.842C91.1395 99.842 91.4895 99.7767 91.8068 99.646C92.1335 99.5153 92.4368 99.3193 92.7168 99.058V97.742C92.4275 97.574 92.1288 97.4527 91.8208 97.378C91.5128 97.294 91.1675 97.252 90.7848 97.252C90.2621 97.252 89.8421 97.3687 89.5248 97.602C89.2075 97.826 89.0488 98.1293 89.0488 98.512ZM95.802 100.5V90.49L96.824 90.28V94.606C97.0853 94.2793 97.4026 94.0273 97.776 93.85C98.1493 93.6727 98.5646 93.584 99.022 93.584C99.6193 93.584 100.151 93.7427 100.618 94.06C101.094 94.368 101.472 94.788 101.752 95.32C102.032 95.8427 102.172 96.4307 102.172 97.084C102.172 97.7373 102.027 98.33 101.738 98.862C101.458 99.394 101.075 99.8187 100.59 100.136C100.114 100.444 99.5726 100.598 98.966 100.598C98.5366 100.598 98.1353 100.514 97.762 100.346C97.398 100.169 97.0806 99.9213 96.81 99.604V100.5H95.802ZM98.77 99.716C99.2273 99.716 99.6333 99.604 99.988 99.38C100.352 99.1467 100.637 98.834 100.842 98.442C101.057 98.0407 101.164 97.5927 101.164 97.098C101.164 96.594 101.057 96.146 100.842 95.754C100.637 95.362 100.352 95.054 99.988 94.83C99.6333 94.5967 99.2273 94.48 98.77 94.48C98.3686 94.48 97.9953 94.564 97.65 94.732C97.314 94.8907 97.0386 95.1193 96.824 95.418V98.764C97.048 99.0627 97.328 99.296 97.664 99.464C98.0093 99.632 98.378 99.716 98.77 99.716ZM103.964 100.5V90.392L104.986 90.182V100.5H103.964ZM110.161 100.64C109.527 100.64 108.953 100.486 108.439 100.178C107.926 99.8607 107.52 99.436 107.221 98.904C106.923 98.3627 106.773 97.756 106.773 97.084C106.773 96.412 106.913 95.81 107.193 95.278C107.483 94.746 107.87 94.326 108.355 94.018C108.841 93.71 109.382 93.556 109.979 93.556C110.586 93.556 111.123 93.71 111.589 94.018C112.065 94.3167 112.439 94.7273 112.709 95.25C112.989 95.7633 113.129 96.3467 113.129 97V97.308H107.767C107.805 97.7747 107.931 98.1947 108.145 98.568C108.369 98.932 108.659 99.2213 109.013 99.436C109.377 99.6413 109.774 99.744 110.203 99.744C110.558 99.744 110.899 99.6833 111.225 99.562C111.561 99.4313 111.846 99.2587 112.079 99.044L112.723 99.73C112.331 100.038 111.925 100.267 111.505 100.416C111.085 100.565 110.637 100.64 110.161 100.64ZM107.795 96.58H112.121C112.075 96.1693 111.949 95.8053 111.743 95.488C111.547 95.1613 111.295 94.9047 110.987 94.718C110.689 94.5313 110.353 94.438 109.979 94.438C109.606 94.438 109.265 94.5313 108.957 94.718C108.649 94.8953 108.393 95.1473 108.187 95.474C107.991 95.7913 107.861 96.16 107.795 96.58ZM121.208 100.612C120.573 100.612 119.999 100.458 119.486 100.15C118.982 99.8327 118.58 99.408 118.282 98.876C117.983 98.3347 117.834 97.7373 117.834 97.084C117.834 96.4213 117.983 95.824 118.282 95.292C118.58 94.76 118.982 94.34 119.486 94.032C119.999 93.7147 120.573 93.556 121.208 93.556C121.712 93.556 122.192 93.6493 122.65 93.836C123.107 94.0227 123.504 94.284 123.84 94.62L123.182 95.334C122.939 95.0633 122.645 94.8533 122.3 94.704C121.954 94.5547 121.604 94.48 121.25 94.48C120.802 94.48 120.396 94.5967 120.032 94.83C119.677 95.0633 119.392 95.376 119.178 95.768C118.963 96.16 118.856 96.5987 118.856 97.084C118.856 97.5693 118.963 98.008 119.178 98.4C119.392 98.792 119.677 99.1047 120.032 99.338C120.396 99.5713 120.802 99.688 121.25 99.688C121.604 99.688 121.954 99.6133 122.3 99.464C122.645 99.3053 122.939 99.0953 123.182 98.834L123.84 99.548C123.504 99.884 123.107 100.145 122.65 100.332C122.192 100.519 121.712 100.612 121.208 100.612ZM128.14 100.64C127.505 100.64 126.931 100.486 126.418 100.178C125.904 99.8607 125.498 99.436 125.2 98.904C124.901 98.3627 124.752 97.756 124.752 97.084C124.752 96.412 124.892 95.81 125.172 95.278C125.461 94.746 125.848 94.326 126.334 94.018C126.819 93.71 127.36 93.556 127.958 93.556C128.564 93.556 129.101 93.71 129.568 94.018C130.044 94.3167 130.417 94.7273 130.688 95.25C130.968 95.7633 131.108 96.3467 131.108 97V97.308H125.746C125.783 97.7747 125.909 98.1947 126.124 98.568C126.348 98.932 126.637 99.2213 126.992 99.436C127.356 99.6413 127.752 99.744 128.182 99.744C128.536 99.744 128.877 99.6833 129.204 99.562C129.54 99.4313 129.824 99.2587 130.058 99.044L130.702 99.73C130.31 100.038 129.904 100.267 129.484 100.416C129.064 100.565 128.616 100.64 128.14 100.64ZM125.774 96.58H130.1C130.053 96.1693 129.927 95.8053 129.722 95.488C129.526 95.1613 129.274 94.9047 128.966 94.718C128.667 94.5313 128.331 94.438 127.958 94.438C127.584 94.438 127.244 94.5313 126.936 94.718C126.628 94.8953 126.371 95.1473 126.166 95.474C125.97 95.7913 125.839 96.16 125.774 96.58ZM132.853 100.5V90.392L133.875 90.182V100.5H132.853ZM135.97 100.5V90.392L136.992 90.182V100.5H135.97ZM144.315 100.5L141.515 93.668H142.621L144.833 99.226L147.017 93.668H148.109L145.295 100.5H144.315ZM151.209 100.626C150.724 100.626 150.294 100.537 149.921 100.36C149.548 100.183 149.254 99.94 149.039 99.632C148.834 99.3147 148.731 98.9507 148.731 98.54C148.731 98.1293 148.838 97.7747 149.053 97.476C149.268 97.168 149.566 96.93 149.949 96.762C150.332 96.594 150.78 96.51 151.293 96.51C151.685 96.51 152.054 96.552 152.399 96.636C152.754 96.72 153.08 96.8553 153.379 97.042V96.104C153.379 95.544 153.23 95.124 152.931 94.844C152.632 94.5547 152.194 94.41 151.615 94.41C151.298 94.41 150.971 94.4567 150.635 94.55C150.308 94.6433 149.944 94.7927 149.543 94.998L149.165 94.214C150.08 93.7753 150.938 93.556 151.741 93.556C152.59 93.556 153.244 93.766 153.701 94.186C154.158 94.5967 154.387 95.1893 154.387 95.964V100.5H153.379V99.702C153.08 100.01 152.749 100.243 152.385 100.402C152.021 100.551 151.629 100.626 151.209 100.626ZM149.711 98.512C149.711 98.9133 149.865 99.2353 150.173 99.478C150.49 99.7207 150.906 99.842 151.419 99.842C151.802 99.842 152.152 99.7767 152.469 99.646C152.796 99.5153 153.099 99.3193 153.379 99.058V97.742C153.09 97.574 152.791 97.4527 152.483 97.378C152.175 97.294 151.83 97.252 151.447 97.252C150.924 97.252 150.504 97.3687 150.187 97.602C149.87 97.826 149.711 98.1293 149.711 98.512ZM156.464 100.5V90.392L157.486 90.182V100.5H156.464ZM162.017 100.612C161.532 100.612 161.103 100.505 160.729 100.29C160.356 100.075 160.062 99.7767 159.847 99.394C159.642 99.0113 159.539 98.5727 159.539 98.078V93.668H160.575V97.784C160.575 98.3907 160.739 98.8713 161.065 99.226C161.392 99.5807 161.835 99.758 162.395 99.758C162.778 99.758 163.119 99.6693 163.417 99.492C163.725 99.3147 163.982 99.058 164.187 98.722V93.668H165.209V100.5H164.187V99.394C163.926 99.7953 163.613 100.099 163.249 100.304C162.895 100.509 162.484 100.612 162.017 100.612ZM170.386 100.64C169.751 100.64 169.177 100.486 168.664 100.178C168.151 99.8607 167.745 99.436 167.446 98.904C167.147 98.3627 166.998 97.756 166.998 97.084C166.998 96.412 167.138 95.81 167.418 95.278C167.707 94.746 168.095 94.326 168.58 94.018C169.065 93.71 169.607 93.556 170.204 93.556C170.811 93.556 171.347 93.71 171.814 94.018C172.29 94.3167 172.663 94.7273 172.934 95.25C173.214 95.7633 173.354 96.3467 173.354 97V97.308H167.992C168.029 97.7747 168.155 98.1947 168.37 98.568C168.594 98.932 168.883 99.2213 169.238 99.436C169.602 99.6413 169.999 99.744 170.428 99.744C170.783 99.744 171.123 99.6833 171.45 99.562C171.786 99.4313 172.071 99.2587 172.304 99.044L172.948 99.73C172.556 100.038 172.15 100.267 171.73 100.416C171.31 100.565 170.862 100.64 170.386 100.64ZM168.02 96.58H172.346C172.299 96.1693 172.173 95.8053 171.968 95.488C171.772 95.1613 171.52 94.9047 171.212 94.718C170.913 94.5313 170.577 94.438 170.204 94.438C169.831 94.438 169.49 94.5313 169.182 94.718C168.874 94.8953 168.617 95.1473 168.412 95.474C168.216 95.7913 168.085 96.16 168.02 96.58ZM179.584 100.5L177.708 93.668H178.702L180.13 99.128L181.768 93.668H182.678L184.316 99.128L185.73 93.668H186.696L184.834 100.5H183.84L182.216 94.984L180.592 100.5H179.584ZM188.128 100.5V93.668H189.15V100.5H188.128ZM188.646 91.974C188.44 91.974 188.263 91.904 188.114 91.764C187.974 91.6147 187.904 91.442 187.904 91.246C187.904 91.05 187.974 90.882 188.114 90.742C188.263 90.5927 188.44 90.518 188.646 90.518C188.851 90.518 189.024 90.5927 189.164 90.742C189.313 90.882 189.388 91.05 189.388 91.246C189.388 91.442 189.313 91.6147 189.164 91.764C189.024 91.904 188.851 91.974 188.646 91.974ZM193.849 100.64C193.261 100.64 192.813 100.5 192.505 100.22C192.207 99.9307 192.057 99.5153 192.057 98.974V94.508H190.643V93.668H192.057V91.792L193.079 91.554V93.668H195.039V94.508H193.079V98.708C193.079 99.072 193.154 99.3333 193.303 99.492C193.462 99.6507 193.719 99.73 194.073 99.73C194.251 99.73 194.409 99.716 194.549 99.688C194.689 99.66 194.853 99.6133 195.039 99.548V100.458C194.853 100.523 194.657 100.57 194.451 100.598C194.246 100.626 194.045 100.64 193.849 100.64ZM196.536 100.5V90.392L197.558 90.182V94.774C197.82 94.3633 198.132 94.06 198.496 93.864C198.86 93.6587 199.271 93.556 199.728 93.556C200.223 93.556 200.652 93.6633 201.016 93.878C201.39 94.0833 201.679 94.3773 201.884 94.76C202.099 95.1333 202.206 95.572 202.206 96.076V100.5H201.184V96.37C201.184 95.7633 201.016 95.2873 200.68 94.942C200.354 94.5873 199.91 94.41 199.35 94.41C198.977 94.41 198.636 94.4987 198.328 94.676C198.02 94.8533 197.764 95.1147 197.558 95.46V100.5H196.536ZM207.529 100.5V90.392L208.551 90.182V100.5H207.529ZM210.632 100.5V93.668H211.654V100.5H210.632ZM211.15 91.974C210.944 91.974 210.767 91.904 210.618 91.764C210.478 91.6147 210.408 91.442 210.408 91.246C210.408 91.05 210.478 90.882 210.618 90.742C210.767 90.5927 210.944 90.518 211.15 90.518C211.355 90.518 211.528 90.5927 211.668 90.742C211.817 90.882 211.892 91.05 211.892 91.246C211.892 91.442 211.817 91.6147 211.668 91.764C211.528 91.904 211.355 91.974 211.15 91.974ZM213.749 100.5V93.668H214.771V94.774C215.033 94.3633 215.345 94.06 215.709 93.864C216.073 93.6587 216.484 93.556 216.941 93.556C217.436 93.556 217.865 93.6633 218.229 93.878C218.603 94.0833 218.892 94.3773 219.097 94.76C219.312 95.1333 219.419 95.572 219.419 96.076V100.5H218.397V96.37C218.397 95.7633 218.229 95.2873 217.893 94.942C217.567 94.5873 217.123 94.41 216.563 94.41C216.19 94.41 215.849 94.4987 215.541 94.676C215.233 94.8533 214.977 95.1147 214.771 95.46V100.5H213.749ZM221.474 100.5V90.392L222.496 90.182V96.734L225.744 93.668H226.976L223.504 96.916L227.13 100.5H225.786L222.496 97.238V100.5H221.474Z" fill="#0066CC"/>
<path d="M80 104H227.27V105.4H80V104Z" fill="#0066CC"/>
<path d="M308.333 83.5H348.333C355.237 83.5 360.833 89.0964 360.833 96C360.833 102.904 355.237 108.5 348.333 108.5H308.333C301.43 108.5 295.833 102.904 295.833 96C295.833 89.0964 301.43 83.5 308.333 83.5Z" stroke="#3D7317"/>
<path d="M311.333 90C314.647 90 317.333 92.6863 317.333 96C317.333 99.3137 314.647 102 311.333 102C308.02 102 305.333 99.3137 305.333 96C305.333 92.6863 308.02 90 311.333 90ZM314.543 93.6309C314.392 93.4797 314.148 93.4797 313.996 93.6309L310.365 97.2607L308.67 95.5664C308.519 95.4152 308.274 95.4152 308.123 95.5664L307.575 96.1133C307.424 96.2644 307.424 96.51 307.575 96.6611L310.092 99.1768C310.243 99.3279 310.488 99.3278 310.639 99.1768L315.091 94.7256C315.242 94.5744 315.242 94.3289 315.091 94.1777L314.543 93.6309Z" fill="#3D7317"/>
<path d="M324.401 100V91.6H325.325V99.184H330.065V100H324.401ZM333.334 100.108C332.918 100.108 332.55 100.032 332.23 99.88C331.91 99.728 331.658 99.52 331.474 99.256C331.298 98.984 331.21 98.672 331.21 98.32C331.21 97.968 331.302 97.664 331.486 97.408C331.67 97.144 331.926 96.94 332.254 96.796C332.582 96.652 332.966 96.58 333.406 96.58C333.742 96.58 334.058 96.616 334.354 96.688C334.658 96.76 334.938 96.876 335.194 97.036V96.232C335.194 95.752 335.066 95.392 334.81 95.152C334.554 94.904 334.178 94.78 333.682 94.78C333.41 94.78 333.13 94.82 332.842 94.9C332.562 94.98 332.25 95.108 331.906 95.284L331.582 94.612C332.366 94.236 333.102 94.048 333.79 94.048C334.518 94.048 335.078 94.228 335.47 94.588C335.862 94.94 336.058 95.448 336.058 96.112V100H335.194V99.316C334.938 99.58 334.654 99.78 334.342 99.916C334.03 100.044 333.694 100.108 333.334 100.108ZM332.05 98.296C332.05 98.64 332.182 98.916 332.446 99.124C332.718 99.332 333.074 99.436 333.514 99.436C333.842 99.436 334.142 99.38 334.414 99.268C334.694 99.156 334.954 98.988 335.194 98.764V97.636C334.946 97.492 334.69 97.388 334.426 97.324C334.162 97.252 333.866 97.216 333.538 97.216C333.09 97.216 332.73 97.316 332.458 97.516C332.186 97.708 332.05 97.968 332.05 98.296ZM337.839 100V91.42L338.715 91.24V94.948C338.939 94.668 339.211 94.452 339.531 94.3C339.851 94.148 340.207 94.072 340.599 94.072C341.111 94.072 341.567 94.208 341.967 94.48C342.375 94.744 342.699 95.104 342.939 95.56C343.179 96.008 343.299 96.512 343.299 97.072C343.299 97.632 343.175 98.14 342.927 98.596C342.687 99.052 342.359 99.416 341.943 99.688C341.535 99.952 341.071 100.084 340.551 100.084C340.183 100.084 339.839 100.012 339.519 99.868C339.207 99.716 338.935 99.504 338.703 99.232V100H337.839ZM340.383 99.328C340.775 99.328 341.123 99.232 341.427 99.04C341.739 98.84 341.983 98.572 342.159 98.236C342.343 97.892 342.435 97.508 342.435 97.084C342.435 96.652 342.343 96.268 342.159 95.932C341.983 95.596 341.739 95.332 341.427 95.14C341.123 94.94 340.775 94.84 340.383 94.84C340.039 94.84 339.719 94.912 339.423 95.056C339.135 95.192 338.899 95.388 338.715 95.644V98.512C338.907 98.768 339.147 98.968 339.435 99.112C339.731 99.256 340.047 99.328 340.383 99.328ZM347.475 100.12C346.931 100.12 346.439 99.988 345.999 99.724C345.559 99.452 345.211 99.088 344.955 98.632C344.699 98.168 344.571 97.648 344.571 97.072C344.571 96.496 344.691 95.98 344.931 95.524C345.179 95.068 345.511 94.708 345.927 94.444C346.343 94.18 346.807 94.048 347.319 94.048C347.839 94.048 348.299 94.18 348.699 94.444C349.107 94.7 349.427 95.052 349.659 95.5C349.899 95.94 350.019 96.44 350.019 97V97.264H345.423C345.455 97.664 345.563 98.024 345.747 98.344C345.939 98.656 346.187 98.904 346.491 99.088C346.803 99.264 347.143 99.352 347.511 99.352C347.815 99.352 348.107 99.3 348.387 99.196C348.675 99.084 348.919 98.936 349.119 98.752L349.671 99.34C349.335 99.604 348.987 99.8 348.627 99.928C348.267 100.056 347.883 100.12 347.475 100.12ZM345.447 96.64H349.155C349.115 96.288 349.007 95.976 348.831 95.704C348.663 95.424 348.447 95.204 348.183 95.044C347.927 94.884 347.639 94.804 347.319 94.804C346.999 94.804 346.707 94.884 346.443 95.044C346.179 95.196 345.959 95.412 345.783 95.692C345.615 95.964 345.503 96.28 345.447 96.64ZM351.515 100V91.336L352.391 91.156V100H351.515Z" fill="#151515"/>
<path d="M514.447 100.5V91.652H511.059V90.7H518.913V91.652H515.525V100.5H514.447ZM521.214 100.626C520.728 100.626 520.299 100.537 519.926 100.36C519.552 100.183 519.258 99.94 519.044 99.632C518.838 99.3147 518.736 98.9507 518.736 98.54C518.736 98.1293 518.843 97.7747 519.058 97.476C519.272 97.168 519.571 96.93 519.954 96.762C520.336 96.594 520.784 96.51 521.298 96.51C521.69 96.51 522.058 96.552 522.404 96.636C522.758 96.72 523.085 96.8553 523.384 97.042V96.104C523.384 95.544 523.234 95.124 522.936 94.844C522.637 94.5547 522.198 94.41 521.62 94.41C521.302 94.41 520.976 94.4567 520.64 94.55C520.313 94.6433 519.949 94.7927 519.548 94.998L519.17 94.214C520.084 93.7753 520.943 93.556 521.746 93.556C522.595 93.556 523.248 93.766 523.706 94.186C524.163 94.5967 524.392 95.1893 524.392 95.964V100.5H523.384V99.702C523.085 100.01 522.754 100.243 522.39 100.402C522.026 100.551 521.634 100.626 521.214 100.626ZM519.716 98.512C519.716 98.9133 519.87 99.2353 520.178 99.478C520.495 99.7207 520.91 99.842 521.424 99.842C521.806 99.842 522.156 99.7767 522.474 99.646C522.8 99.5153 523.104 99.3193 523.384 99.058V97.742C523.094 97.574 522.796 97.4527 522.488 97.378C522.18 97.294 521.834 97.252 521.452 97.252C520.929 97.252 520.509 97.3687 520.192 97.602C519.874 97.826 519.716 98.1293 519.716 98.512ZM526.469 100.5V90.49L527.491 90.28V94.606C527.752 94.2793 528.069 94.0273 528.443 93.85C528.816 93.6727 529.231 93.584 529.689 93.584C530.286 93.584 530.818 93.7427 531.285 94.06C531.761 94.368 532.139 94.788 532.419 95.32C532.699 95.8427 532.839 96.4307 532.839 97.084C532.839 97.7373 532.694 98.33 532.405 98.862C532.125 99.394 531.742 99.8187 531.257 100.136C530.781 100.444 530.239 100.598 529.633 100.598C529.203 100.598 528.802 100.514 528.429 100.346C528.065 100.169 527.747 99.9213 527.477 99.604V100.5H526.469ZM529.437 99.716C529.894 99.716 530.3 99.604 530.655 99.38C531.019 99.1467 531.303 98.834 531.509 98.442C531.723 98.0407 531.831 97.5927 531.831 97.098C531.831 96.594 531.723 96.146 531.509 95.754C531.303 95.362 531.019 95.054 530.655 94.83C530.3 94.5967 529.894 94.48 529.437 94.48C529.035 94.48 528.662 94.564 528.317 94.732C527.981 94.8907 527.705 95.1193 527.491 95.418V98.764C527.715 99.0627 527.995 99.296 528.331 99.464C528.676 99.632 529.045 99.716 529.437 99.716ZM534.631 100.5V90.392L535.653 90.182V100.5H534.631ZM540.828 100.64C540.193 100.64 539.619 100.486 539.106 100.178C538.593 99.8607 538.187 99.436 537.888 98.904C537.589 98.3627 537.44 97.756 537.44 97.084C537.44 96.412 537.58 95.81 537.86 95.278C538.149 94.746 538.537 94.326 539.022 94.018C539.507 93.71 540.049 93.556 540.646 93.556C541.253 93.556 541.789 93.71 542.256 94.018C542.732 94.3167 543.105 94.7273 543.376 95.25C543.656 95.7633 543.796 96.3467 543.796 97V97.308H538.434C538.471 97.7747 538.597 98.1947 538.812 98.568C539.036 98.932 539.325 99.2213 539.68 99.436C540.044 99.6413 540.441 99.744 540.87 99.744C541.225 99.744 541.565 99.6833 541.892 99.562C542.228 99.4313 542.513 99.2587 542.746 99.044L543.39 99.73C542.998 100.038 542.592 100.267 542.172 100.416C541.752 100.565 541.304 100.64 540.828 100.64ZM538.462 96.58H542.788C542.741 96.1693 542.615 95.8053 542.41 95.488C542.214 95.1613 541.962 94.9047 541.654 94.718C541.355 94.5313 541.019 94.438 540.646 94.438C540.273 94.438 539.932 94.5313 539.624 94.718C539.316 94.8953 539.059 95.1473 538.854 95.474C538.658 95.7913 538.527 96.16 538.462 96.58ZM551.875 100.612C551.24 100.612 550.666 100.458 550.153 100.15C549.649 99.8327 549.247 99.408 548.949 98.876C548.65 98.3347 548.501 97.7373 548.501 97.084C548.501 96.4213 548.65 95.824 548.949 95.292C549.247 94.76 549.649 94.34 550.153 94.032C550.666 93.7147 551.24 93.556 551.875 93.556C552.379 93.556 552.859 93.6493 553.317 93.836C553.774 94.0227 554.171 94.284 554.507 94.62L553.849 95.334C553.606 95.0633 553.312 94.8533 552.967 94.704C552.621 94.5547 552.271 94.48 551.917 94.48C551.469 94.48 551.063 94.5967 550.699 94.83C550.344 95.0633 550.059 95.376 549.845 95.768C549.63 96.16 549.523 96.5987 549.523 97.084C549.523 97.5693 549.63 98.008 549.845 98.4C550.059 98.792 550.344 99.1047 550.699 99.338C551.063 99.5713 551.469 99.688 551.917 99.688C552.271 99.688 552.621 99.6133 552.967 99.464C553.312 99.3053 553.606 99.0953 553.849 98.834L554.507 99.548C554.171 99.884 553.774 100.145 553.317 100.332C552.859 100.519 552.379 100.612 551.875 100.612ZM558.807 100.64C558.172 100.64 557.598 100.486 557.085 100.178C556.571 99.8607 556.165 99.436 555.867 98.904C555.568 98.3627 555.419 97.756 555.419 97.084C555.419 96.412 555.559 95.81 555.839 95.278C556.128 94.746 556.515 94.326 557.001 94.018C557.486 93.71 558.027 93.556 558.625 93.556C559.231 93.556 559.768 93.71 560.235 94.018C560.711 94.3167 561.084 94.7273 561.355 95.25C561.635 95.7633 561.775 96.3467 561.775 97V97.308H556.413C556.45 97.7747 556.576 98.1947 556.791 98.568C557.015 98.932 557.304 99.2213 557.659 99.436C558.023 99.6413 558.419 99.744 558.849 99.744C559.203 99.744 559.544 99.6833 559.871 99.562C560.207 99.4313 560.491 99.2587 560.725 99.044L561.369 99.73C560.977 100.038 560.571 100.267 560.151 100.416C559.731 100.565 559.283 100.64 558.807 100.64ZM556.441 96.58H560.767C560.72 96.1693 560.594 95.8053 560.389 95.488C560.193 95.1613 559.941 94.9047 559.633 94.718C559.334 94.5313 558.998 94.438 558.625 94.438C558.251 94.438 557.911 94.5313 557.603 94.718C557.295 94.8953 557.038 95.1473 556.833 95.474C556.637 95.7913 556.506 96.16 556.441 96.58ZM563.519 100.5V90.392L564.541 90.182V100.5H563.519ZM566.637 100.5V90.392L567.659 90.182V100.5H566.637ZM574.981 100.5L572.181 93.668H573.287L575.499 99.226L577.683 93.668H578.775L575.961 100.5H574.981ZM581.876 100.626C581.39 100.626 580.961 100.537 580.588 100.36C580.214 100.183 579.92 99.94 579.706 99.632C579.5 99.3147 579.398 98.9507 579.398 98.54C579.398 98.1293 579.505 97.7747 579.72 97.476C579.934 97.168 580.233 96.93 580.616 96.762C580.998 96.594 581.446 96.51 581.96 96.51C582.352 96.51 582.72 96.552 583.066 96.636C583.42 96.72 583.747 96.8553 584.046 97.042V96.104C584.046 95.544 583.896 95.124 583.598 94.844C583.299 94.5547 582.86 94.41 582.282 94.41C581.964 94.41 581.638 94.4567 581.302 94.55C580.975 94.6433 580.611 94.7927 580.21 94.998L579.832 94.214C580.746 93.7753 581.605 93.556 582.408 93.556C583.257 93.556 583.91 93.766 584.368 94.186C584.825 94.5967 585.054 95.1893 585.054 95.964V100.5H584.046V99.702C583.747 100.01 583.416 100.243 583.052 100.402C582.688 100.551 582.296 100.626 581.876 100.626ZM580.378 98.512C580.378 98.9133 580.532 99.2353 580.84 99.478C581.157 99.7207 581.572 99.842 582.086 99.842C582.468 99.842 582.818 99.7767 583.136 99.646C583.462 99.5153 583.766 99.3193 584.046 99.058V97.742C583.756 97.574 583.458 97.4527 583.15 97.378C582.842 97.294 582.496 97.252 582.114 97.252C581.591 97.252 581.171 97.3687 580.854 97.602C580.536 97.826 580.378 98.1293 580.378 98.512ZM587.131 100.5V90.392L588.153 90.182V100.5H587.131ZM592.684 100.612C592.199 100.612 591.769 100.505 591.396 100.29C591.023 100.075 590.729 99.7767 590.514 99.394C590.309 99.0113 590.206 98.5727 590.206 98.078V93.668H591.242V97.784C591.242 98.3907 591.405 98.8713 591.732 99.226C592.059 99.5807 592.502 99.758 593.062 99.758C593.445 99.758 593.785 99.6693 594.084 99.492C594.392 99.3147 594.649 99.058 594.854 98.722V93.668H595.876V100.5H594.854V99.394C594.593 99.7953 594.28 100.099 593.916 100.304C593.561 100.509 593.151 100.612 592.684 100.612ZM601.053 100.64C600.418 100.64 599.844 100.486 599.331 100.178C598.817 99.8607 598.411 99.436 598.113 98.904C597.814 98.3627 597.665 97.756 597.665 97.084C597.665 96.412 597.805 95.81 598.085 95.278C598.374 94.746 598.761 94.326 599.247 94.018C599.732 93.71 600.273 93.556 600.871 93.556C601.477 93.556 602.014 93.71 602.481 94.018C602.957 94.3167 603.33 94.7273 603.601 95.25C603.881 95.7633 604.021 96.3467 604.021 97V97.308H598.659C598.696 97.7747 598.822 98.1947 599.037 98.568C599.261 98.932 599.55 99.2213 599.905 99.436C600.269 99.6413 600.665 99.744 601.095 99.744C601.449 99.744 601.79 99.6833 602.117 99.562C602.453 99.4313 602.737 99.2587 602.971 99.044L603.615 99.73C603.223 100.038 602.817 100.267 602.397 100.416C601.977 100.565 601.529 100.64 601.053 100.64ZM598.687 96.58H603.013C602.966 96.1693 602.84 95.8053 602.635 95.488C602.439 95.1613 602.187 94.9047 601.879 94.718C601.58 94.5313 601.244 94.438 600.871 94.438C600.497 94.438 600.157 94.5313 599.849 94.718C599.541 94.8953 599.284 95.1473 599.079 95.474C598.883 95.7913 598.752 96.16 598.687 96.58Z" fill="#151515"/>
<path d="M742.292 98.9355C743.42 98.9357 744.333 99.8445 744.333 100.968C744.333 102.091 743.42 103 742.292 103C741.163 103 740.25 102.091 740.25 100.968C740.25 99.8444 741.163 98.9355 742.292 98.9355ZM742.292 93.9678C743.42 93.9679 744.333 94.8767 744.333 96C744.333 97.1233 743.42 98.0321 742.292 98.0322C741.163 98.0322 740.25 97.1234 740.25 96C740.25 94.8766 741.163 93.9678 742.292 93.9678ZM742.292 89C743.42 89.0002 744.333 89.909 744.333 91.0322C744.333 92.1555 743.42 93.0643 742.292 93.0645C741.163 93.0645 740.25 92.1556 740.25 91.0322C740.25 89.9089 741.163 89 742.292 89Z" fill="#1F1F1F"/>
<mask id="path-28-inside-4_1811_36991" fill="white">
<path d="M0 128H782V192H0V128Z"/>
</mask>
<path d="M0 128H782V192H0V128Z" fill="white"/>
<path d="M782 192V191H0V192V193H782V192Z" fill="#C7C7C7" mask="url(#path-28-inside-4_1811_36991)"/>
<mask id="path-30-inside-5_1811_36991" fill="white">
<path d="M24 156C24 153.791 25.7909 152 28 152H36C38.2091 152 40 153.791 40 156V164C40 166.209 38.2091 168 36 168H28C25.7909 168 24 166.209 24 164V156Z"/>
</mask>
<path d="M24 156C24 153.791 25.7909 152 28 152H36C38.2091 152 40 153.791 40 156V164C40 166.209 38.2091 168 36 168H28C25.7909 168 24 166.209 24 164V156Z" fill="white"/>
<path d="M28 152V153H36V152V151H28V152ZM40 156H39V164H40H41V156H40ZM36 168V167H28V168V169H36V168ZM24 164H25V156H24H23V164H24ZM28 168V167C26.3431 167 25 165.657 25 164H24H23C23 166.761 25.2386 169 28 169V168ZM40 164H39C39 165.657 37.6569 167 36 167V168V169C38.7614 169 41 166.761 41 164H40ZM36 152V153C37.6569 153 39 154.343 39 156H40H41C41 153.239 38.7614 151 36 151V152ZM28 152V151C25.2386 151 23 153.239 23 156H24H25C25 154.343 26.3431 153 28 153V152Z" fill="#C7C7C7" mask="url(#path-30-inside-5_1811_36991)"/>
<path d="M83.78 164.5V155.652H80.392V154.7H88.246V155.652H84.858V164.5H83.78ZM90.5468 164.626C90.0615 164.626 89.6321 164.537 89.2588 164.36C88.8855 164.183 88.5915 163.94 88.3768 163.632C88.1715 163.315 88.0688 162.951 88.0688 162.54C88.0688 162.129 88.1761 161.775 88.3908 161.476C88.6055 161.168 88.9041 160.93 89.2868 160.762C89.6695 160.594 90.1175 160.51 90.6308 160.51C91.0228 160.51 91.3915 160.552 91.7368 160.636C92.0915 160.72 92.4181 160.855 92.7168 161.042V160.104C92.7168 159.544 92.5675 159.124 92.2688 158.844C91.9701 158.555 91.5315 158.41 90.9528 158.41C90.6355 158.41 90.3088 158.457 89.9728 158.55C89.6461 158.643 89.2821 158.793 88.8808 158.998L88.5028 158.214C89.4175 157.775 90.2761 157.556 91.0788 157.556C91.9281 157.556 92.5815 157.766 93.0388 158.186C93.4961 158.597 93.7248 159.189 93.7248 159.964V164.5H92.7168V163.702C92.4181 164.01 92.0868 164.243 91.7228 164.402C91.3588 164.551 90.9668 164.626 90.5468 164.626ZM89.0488 162.512C89.0488 162.913 89.2028 163.235 89.5108 163.478C89.8281 163.721 90.2435 163.842 90.7568 163.842C91.1395 163.842 91.4895 163.777 91.8068 163.646C92.1335 163.515 92.4368 163.319 92.7168 163.058V161.742C92.4275 161.574 92.1288 161.453 91.8208 161.378C91.5128 161.294 91.1675 161.252 90.7848 161.252C90.2621 161.252 89.8421 161.369 89.5248 161.602C89.2075 161.826 89.0488 162.129 89.0488 162.512ZM95.802 164.5V154.49L96.824 154.28V158.606C97.0853 158.279 97.4026 158.027 97.776 157.85C98.1493 157.673 98.5646 157.584 99.022 157.584C99.6193 157.584 100.151 157.743 100.618 158.06C101.094 158.368 101.472 158.788 101.752 159.32C102.032 159.843 102.172 160.431 102.172 161.084C102.172 161.737 102.027 162.33 101.738 162.862C101.458 163.394 101.075 163.819 100.59 164.136C100.114 164.444 99.5726 164.598 98.966 164.598C98.5366 164.598 98.1353 164.514 97.762 164.346C97.398 164.169 97.0806 163.921 96.81 163.604V164.5H95.802ZM98.77 163.716C99.2273 163.716 99.6333 163.604 99.988 163.38C100.352 163.147 100.637 162.834 100.842 162.442C101.057 162.041 101.164 161.593 101.164 161.098C101.164 160.594 101.057 160.146 100.842 159.754C100.637 159.362 100.352 159.054 99.988 158.83C99.6333 158.597 99.2273 158.48 98.77 158.48C98.3686 158.48 97.9953 158.564 97.65 158.732C97.314 158.891 97.0386 159.119 96.824 159.418V162.764C97.048 163.063 97.328 163.296 97.664 163.464C98.0093 163.632 98.378 163.716 98.77 163.716ZM103.964 164.5V154.392L104.986 154.182V164.5H103.964ZM110.161 164.64C109.527 164.64 108.953 164.486 108.439 164.178C107.926 163.861 107.52 163.436 107.221 162.904C106.923 162.363 106.773 161.756 106.773 161.084C106.773 160.412 106.913 159.81 107.193 159.278C107.483 158.746 107.87 158.326 108.355 158.018C108.841 157.71 109.382 157.556 109.979 157.556C110.586 157.556 111.123 157.71 111.589 158.018C112.065 158.317 112.439 158.727 112.709 159.25C112.989 159.763 113.129 160.347 113.129 161V161.308H107.767C107.805 161.775 107.931 162.195 108.145 162.568C108.369 162.932 108.659 163.221 109.013 163.436C109.377 163.641 109.774 163.744 110.203 163.744C110.558 163.744 110.899 163.683 111.225 163.562C111.561 163.431 111.846 163.259 112.079 163.044L112.723 163.73C112.331 164.038 111.925 164.267 111.505 164.416C111.085 164.565 110.637 164.64 110.161 164.64ZM107.795 160.58H112.121C112.075 160.169 111.949 159.805 111.743 159.488C111.547 159.161 111.295 158.905 110.987 158.718C110.689 158.531 110.353 158.438 109.979 158.438C109.606 158.438 109.265 158.531 108.957 158.718C108.649 158.895 108.393 159.147 108.187 159.474C107.991 159.791 107.861 160.16 107.795 160.58ZM121.208 164.612C120.573 164.612 119.999 164.458 119.486 164.15C118.982 163.833 118.58 163.408 118.282 162.876C117.983 162.335 117.834 161.737 117.834 161.084C117.834 160.421 117.983 159.824 118.282 159.292C118.58 158.76 118.982 158.34 119.486 158.032C119.999 157.715 120.573 157.556 121.208 157.556C121.712 157.556 122.192 157.649 122.65 157.836C123.107 158.023 123.504 158.284 123.84 158.62L123.182 159.334C122.939 159.063 122.645 158.853 122.3 158.704C121.954 158.555 121.604 158.48 121.25 158.48C120.802 158.48 120.396 158.597 120.032 158.83C119.677 159.063 119.392 159.376 119.178 159.768C118.963 160.16 118.856 160.599 118.856 161.084C118.856 161.569 118.963 162.008 119.178 162.4C119.392 162.792 119.677 163.105 120.032 163.338C120.396 163.571 120.802 163.688 121.25 163.688C121.604 163.688 121.954 163.613 122.3 163.464C122.645 163.305 122.939 163.095 123.182 162.834L123.84 163.548C123.504 163.884 123.107 164.145 122.65 164.332C122.192 164.519 121.712 164.612 121.208 164.612ZM128.14 164.64C127.505 164.64 126.931 164.486 126.418 164.178C125.904 163.861 125.498 163.436 125.2 162.904C124.901 162.363 124.752 161.756 124.752 161.084C124.752 160.412 124.892 159.81 125.172 159.278C125.461 158.746 125.848 158.326 126.334 158.018C126.819 157.71 127.36 157.556 127.958 157.556C128.564 157.556 129.101 157.71 129.568 158.018C130.044 158.317 130.417 158.727 130.688 159.25C130.968 159.763 131.108 160.347 131.108 161V161.308H125.746C125.783 161.775 125.909 162.195 126.124 162.568C126.348 162.932 126.637 163.221 126.992 163.436C127.356 163.641 127.752 163.744 128.182 163.744C128.536 163.744 128.877 163.683 129.204 163.562C129.54 163.431 129.824 163.259 130.058 163.044L130.702 163.73C130.31 164.038 129.904 164.267 129.484 164.416C129.064 164.565 128.616 164.64 128.14 164.64ZM125.774 160.58H130.1C130.053 160.169 129.927 159.805 129.722 159.488C129.526 159.161 129.274 158.905 128.966 158.718C128.667 158.531 128.331 158.438 127.958 158.438C127.584 158.438 127.244 158.531 126.936 158.718C126.628 158.895 126.371 159.147 126.166 159.474C125.97 159.791 125.839 160.16 125.774 160.58ZM132.853 164.5V154.392L133.875 154.182V164.5H132.853ZM135.97 164.5V154.392L136.992 154.182V164.5H135.97ZM144.315 164.5L141.515 157.668H142.621L144.833 163.226L147.017 157.668H148.109L145.295 164.5H144.315ZM151.209 164.626C150.724 164.626 150.294 164.537 149.921 164.36C149.548 164.183 149.254 163.94 149.039 163.632C148.834 163.315 148.731 162.951 148.731 162.54C148.731 162.129 148.838 161.775 149.053 161.476C149.268 161.168 149.566 160.93 149.949 160.762C150.332 160.594 150.78 160.51 151.293 160.51C151.685 160.51 152.054 160.552 152.399 160.636C152.754 160.72 153.08 160.855 153.379 161.042V160.104C153.379 159.544 153.23 159.124 152.931 158.844C152.632 158.555 152.194 158.41 151.615 158.41C151.298 158.41 150.971 158.457 150.635 158.55C150.308 158.643 149.944 158.793 149.543 158.998L149.165 158.214C150.08 157.775 150.938 157.556 151.741 157.556C152.59 157.556 153.244 157.766 153.701 158.186C154.158 158.597 154.387 159.189 154.387 159.964V164.5H153.379V163.702C153.08 164.01 152.749 164.243 152.385 164.402C152.021 164.551 151.629 164.626 151.209 164.626ZM149.711 162.512C149.711 162.913 149.865 163.235 150.173 163.478C150.49 163.721 150.906 163.842 151.419 163.842C151.802 163.842 152.152 163.777 152.469 163.646C152.796 163.515 153.099 163.319 153.379 163.058V161.742C153.09 161.574 152.791 161.453 152.483 161.378C152.175 161.294 151.83 161.252 151.447 161.252C150.924 161.252 150.504 161.369 150.187 161.602C149.87 161.826 149.711 162.129 149.711 162.512ZM156.464 164.5V154.392L157.486 154.182V164.5H156.464ZM162.017 164.612C161.532 164.612 161.103 164.505 160.729 164.29C160.356 164.075 160.062 163.777 159.847 163.394C159.642 163.011 159.539 162.573 159.539 162.078V157.668H160.575V161.784C160.575 162.391 160.739 162.871 161.065 163.226C161.392 163.581 161.835 163.758 162.395 163.758C162.778 163.758 163.119 163.669 163.417 163.492C163.725 163.315 163.982 163.058 164.187 162.722V157.668H165.209V164.5H164.187V163.394C163.926 163.795 163.613 164.099 163.249 164.304C162.895 164.509 162.484 164.612 162.017 164.612ZM170.386 164.64C169.751 164.64 169.177 164.486 168.664 164.178C168.151 163.861 167.745 163.436 167.446 162.904C167.147 162.363 166.998 161.756 166.998 161.084C166.998 160.412 167.138 159.81 167.418 159.278C167.707 158.746 168.095 158.326 168.58 158.018C169.065 157.71 169.607 157.556 170.204 157.556C170.811 157.556 171.347 157.71 171.814 158.018C172.29 158.317 172.663 158.727 172.934 159.25C173.214 159.763 173.354 160.347 173.354 161V161.308H167.992C168.029 161.775 168.155 162.195 168.37 162.568C168.594 162.932 168.883 163.221 169.238 163.436C169.602 163.641 169.999 163.744 170.428 163.744C170.783 163.744 171.123 163.683 171.45 163.562C171.786 163.431 172.071 163.259 172.304 163.044L172.948 163.73C172.556 164.038 172.15 164.267 171.73 164.416C171.31 164.565 170.862 164.64 170.386 164.64ZM168.02 160.58H172.346C172.299 160.169 172.173 159.805 171.968 159.488C171.772 159.161 171.52 158.905 171.212 158.718C170.913 158.531 170.577 158.438 170.204 158.438C169.831 158.438 169.49 158.531 169.182 158.718C168.874 158.895 168.617 159.147 168.412 159.474C168.216 159.791 168.085 160.16 168.02 160.58ZM179.584 164.5L177.708 157.668H178.702L180.13 163.128L181.768 157.668H182.678L184.316 163.128L185.73 157.668H186.696L184.834 164.5H183.84L182.216 158.984L180.592 164.5H179.584ZM188.128 164.5V157.668H189.15V164.5H188.128ZM188.646 155.974C188.44 155.974 188.263 155.904 188.114 155.764C187.974 155.615 187.904 155.442 187.904 155.246C187.904 155.05 187.974 154.882 188.114 154.742C188.263 154.593 188.44 154.518 188.646 154.518C188.851 154.518 189.024 154.593 189.164 154.742C189.313 154.882 189.388 155.05 189.388 155.246C189.388 155.442 189.313 155.615 189.164 155.764C189.024 155.904 188.851 155.974 188.646 155.974ZM193.849 164.64C193.261 164.64 192.813 164.5 192.505 164.22C192.207 163.931 192.057 163.515 192.057 162.974V158.508H190.643V157.668H192.057V155.792L193.079 155.554V157.668H195.039V158.508H193.079V162.708C193.079 163.072 193.154 163.333 193.303 163.492C193.462 163.651 193.719 163.73 194.073 163.73C194.251 163.73 194.409 163.716 194.549 163.688C194.689 163.66 194.853 163.613 195.039 163.548V164.458C194.853 164.523 194.657 164.57 194.451 164.598C194.246 164.626 194.045 164.64 193.849 164.64ZM196.536 164.5V154.392L197.558 154.182V158.774C197.82 158.363 198.132 158.06 198.496 157.864C198.86 157.659 199.271 157.556 199.728 157.556C200.223 157.556 200.652 157.663 201.016 157.878C201.39 158.083 201.679 158.377 201.884 158.76C202.099 159.133 202.206 159.572 202.206 160.076V164.5H201.184V160.37C201.184 159.763 201.016 159.287 200.68 158.942C200.354 158.587 199.91 158.41 199.35 158.41C198.977 158.41 198.636 158.499 198.328 158.676C198.02 158.853 197.764 159.115 197.558 159.46V164.5H196.536ZM207.529 164.5V154.392L208.551 154.182V164.5H207.529ZM210.632 164.5V157.668H211.654V164.5H210.632ZM211.15 155.974C210.944 155.974 210.767 155.904 210.618 155.764C210.478 155.615 210.408 155.442 210.408 155.246C210.408 155.05 210.478 154.882 210.618 154.742C210.767 154.593 210.944 154.518 211.15 154.518C211.355 154.518 211.528 154.593 211.668 154.742C211.817 154.882 211.892 155.05 211.892 155.246C211.892 155.442 211.817 155.615 211.668 155.764C211.528 155.904 211.355 155.974 211.15 155.974ZM213.749 164.5V157.668H214.771V158.774C215.033 158.363 215.345 158.06 215.709 157.864C216.073 157.659 216.484 157.556 216.941 157.556C217.436 157.556 217.865 157.663 218.229 157.878C218.603 158.083 218.892 158.377 219.097 158.76C219.312 159.133 219.419 159.572 219.419 160.076V164.5H218.397V160.37C218.397 159.763 218.229 159.287 217.893 158.942C217.567 158.587 217.123 158.41 216.563 158.41C216.19 158.41 215.849 158.499 215.541 158.676C215.233 158.853 214.977 159.115 214.771 159.46V164.5H213.749ZM221.474 164.5V154.392L222.496 154.182V160.734L225.744 157.668H226.976L223.504 160.916L227.13 164.5H225.786L222.496 161.238V164.5H221.474Z" fill="#0066CC"/>
<path d="M80 168H227.27V169.4H80V168Z" fill="#0066CC"/>
<path d="M308.333 147.5H348.333C355.237 147.5 360.833 153.096 360.833 160C360.833 166.904 355.237 172.5 348.333 172.5H308.333C301.43 172.5 295.833 166.904 295.833 160C295.833 153.096 301.43 147.5 308.333 147.5Z" stroke="#3D7317"/>
<path d="M311.333 154C314.647 154 317.333 156.686 317.333 160C317.333 163.314 314.647 166 311.333 166C308.02 166 305.333 163.314 305.333 160C305.333 156.686 308.02 154 311.333 154ZM314.543 157.631C314.392 157.48 314.148 157.48 313.996 157.631L310.365 161.261L308.67 159.566C308.519 159.415 308.274 159.415 308.123 159.566L307.575 160.113C307.424 160.264 307.424 160.51 307.575 160.661L310.092 163.177C310.243 163.328 310.488 163.328 310.639 163.177L315.091 158.726C315.242 158.574 315.242 158.329 315.091 158.178L314.543 157.631Z" fill="#3D7317"/>
<path d="M324.401 164V155.6H325.325V163.184H330.065V164H324.401ZM333.334 164.108C332.918 164.108 332.55 164.032 332.23 163.88C331.91 163.728 331.658 163.52 331.474 163.256C331.298 162.984 331.21 162.672 331.21 162.32C331.21 161.968 331.302 161.664 331.486 161.408C331.67 161.144 331.926 160.94 332.254 160.796C332.582 160.652 332.966 160.58 333.406 160.58C333.742 160.58 334.058 160.616 334.354 160.688C334.658 160.76 334.938 160.876 335.194 161.036V160.232C335.194 159.752 335.066 159.392 334.81 159.152C334.554 158.904 334.178 158.78 333.682 158.78C333.41 158.78 333.13 158.82 332.842 158.9C332.562 158.98 332.25 159.108 331.906 159.284L331.582 158.612C332.366 158.236 333.102 158.048 333.79 158.048C334.518 158.048 335.078 158.228 335.47 158.588C335.862 158.94 336.058 159.448 336.058 160.112V164H335.194V163.316C334.938 163.58 334.654 163.78 334.342 163.916C334.03 164.044 333.694 164.108 333.334 164.108ZM332.05 162.296C332.05 162.64 332.182 162.916 332.446 163.124C332.718 163.332 333.074 163.436 333.514 163.436C333.842 163.436 334.142 163.38 334.414 163.268C334.694 163.156 334.954 162.988 335.194 162.764V161.636C334.946 161.492 334.69 161.388 334.426 161.324C334.162 161.252 333.866 161.216 333.538 161.216C333.09 161.216 332.73 161.316 332.458 161.516C332.186 161.708 332.05 161.968 332.05 162.296ZM337.839 164V155.42L338.715 155.24V158.948C338.939 158.668 339.211 158.452 339.531 158.3C339.851 158.148 340.207 158.072 340.599 158.072C341.111 158.072 341.567 158.208 341.967 158.48C342.375 158.744 342.699 159.104 342.939 159.56C343.179 160.008 343.299 160.512 343.299 161.072C343.299 161.632 343.175 162.14 342.927 162.596C342.687 163.052 342.359 163.416 341.943 163.688C341.535 163.952 341.071 164.084 340.551 164.084C340.183 164.084 339.839 164.012 339.519 163.868C339.207 163.716 338.935 163.504 338.703 163.232V164H337.839ZM340.383 163.328C340.775 163.328 341.123 163.232 341.427 163.04C341.739 162.84 341.983 162.572 342.159 162.236C342.343 161.892 342.435 161.508 342.435 161.084C342.435 160.652 342.343 160.268 342.159 159.932C341.983 159.596 341.739 159.332 341.427 159.14C341.123 158.94 340.775 158.84 340.383 158.84C340.039 158.84 339.719 158.912 339.423 159.056C339.135 159.192 338.899 159.388 338.715 159.644V162.512C338.907 162.768 339.147 162.968 339.435 163.112C339.731 163.256 340.047 163.328 340.383 163.328ZM347.475 164.12C346.931 164.12 346.439 163.988 345.999 163.724C345.559 163.452 345.211 163.088 344.955 162.632C344.699 162.168 344.571 161.648 344.571 161.072C344.571 160.496 344.691 159.98 344.931 159.524C345.179 159.068 345.511 158.708 345.927 158.444C346.343 158.18 346.807 158.048 347.319 158.048C347.839 158.048 348.299 158.18 348.699 158.444C349.107 158.7 349.427 159.052 349.659 159.5C349.899 159.94 350.019 160.44 350.019 161V161.264H345.423C345.455 161.664 345.563 162.024 345.747 162.344C345.939 162.656 346.187 162.904 346.491 163.088C346.803 163.264 347.143 163.352 347.511 163.352C347.815 163.352 348.107 163.3 348.387 163.196C348.675 163.084 348.919 162.936 349.119 162.752L349.671 163.34C349.335 163.604 348.987 163.8 348.627 163.928C348.267 164.056 347.883 164.12 347.475 164.12ZM345.447 160.64H349.155C349.115 160.288 349.007 159.976 348.831 159.704C348.663 159.424 348.447 159.204 348.183 159.044C347.927 158.884 347.639 158.804 347.319 158.804C346.999 158.804 346.707 158.884 346.443 159.044C346.179 159.196 345.959 159.412 345.783 159.692C345.615 159.964 345.503 160.28 345.447 160.64ZM351.515 164V155.336L352.391 155.156V164H351.515Z" fill="#151515"/>
<path d="M514.447 164.5V155.652H511.059V154.7H518.913V155.652H515.525V164.5H514.447ZM521.214 164.626C520.728 164.626 520.299 164.537 519.926 164.36C519.552 164.183 519.258 163.94 519.044 163.632C518.838 163.315 518.736 162.951 518.736 162.54C518.736 162.129 518.843 161.775 519.058 161.476C519.272 161.168 519.571 160.93 519.954 160.762C520.336 160.594 520.784 160.51 521.298 160.51C521.69 160.51 522.058 160.552 522.404 160.636C522.758 160.72 523.085 160.855 523.384 161.042V160.104C523.384 159.544 523.234 159.124 522.936 158.844C522.637 158.555 522.198 158.41 521.62 158.41C521.302 158.41 520.976 158.457 520.64 158.55C520.313 158.643 519.949 158.793 519.548 158.998L519.17 158.214C520.084 157.775 520.943 157.556 521.746 157.556C522.595 157.556 523.248 157.766 523.706 158.186C524.163 158.597 524.392 159.189 524.392 159.964V164.5H523.384V163.702C523.085 164.01 522.754 164.243 522.39 164.402C522.026 164.551 521.634 164.626 521.214 164.626ZM519.716 162.512C519.716 162.913 519.87 163.235 520.178 163.478C520.495 163.721 520.91 163.842 521.424 163.842C521.806 163.842 522.156 163.777 522.474 163.646C522.8 163.515 523.104 163.319 523.384 163.058V161.742C523.094 161.574 522.796 161.453 522.488 161.378C522.18 161.294 521.834 161.252 521.452 161.252C520.929 161.252 520.509 161.369 520.192 161.602C519.874 161.826 519.716 162.129 519.716 162.512ZM526.469 164.5V154.49L527.491 154.28V158.606C527.752 158.279 528.069 158.027 528.443 157.85C528.816 157.673 529.231 157.584 529.689 157.584C530.286 157.584 530.818 157.743 531.285 158.06C531.761 158.368 532.139 158.788 532.419 159.32C532.699 159.843 532.839 160.431 532.839 161.084C532.839 161.737 532.694 162.33 532.405 162.862C532.125 163.394 531.742 163.819 531.257 164.136C530.781 164.444 530.239 164.598 529.633 164.598C529.203 164.598 528.802 164.514 528.429 164.346C528.065 164.169 527.747 163.921 527.477 163.604V164.5H526.469ZM529.437 163.716C529.894 163.716 530.3 163.604 530.655 163.38C531.019 163.147 531.303 162.834 531.509 162.442C531.723 162.041 531.831 161.593 531.831 161.098C531.831 160.594 531.723 160.146 531.509 159.754C531.303 159.362 531.019 159.054 530.655 158.83C530.3 158.597 529.894 158.48 529.437 158.48C529.035 158.48 528.662 158.564 528.317 158.732C527.981 158.891 527.705 159.119 527.491 159.418V162.764C527.715 163.063 527.995 163.296 528.331 163.464C528.676 163.632 529.045 163.716 529.437 163.716ZM534.631 164.5V154.392L535.653 154.182V164.5H534.631ZM540.828 164.64C540.193 164.64 539.619 164.486 539.106 164.178C538.593 163.861 538.187 163.436 537.888 162.904C537.589 162.363 537.44 161.756 537.44 161.084C537.44 160.412 537.58 159.81 537.86 159.278C538.149 158.746 538.537 158.326 539.022 158.018C539.507 157.71 540.049 157.556 540.646 157.556C541.253 157.556 541.789 157.71 542.256 158.018C542.732 158.317 543.105 158.727 543.376 159.25C543.656 159.763 543.796 160.347 543.796 161V161.308H538.434C538.471 161.775 538.597 162.195 538.812 162.568C539.036 162.932 539.325 163.221 539.68 163.436C540.044 163.641 540.441 163.744 540.87 163.744C541.225 163.744 541.565 163.683 541.892 163.562C542.228 163.431 542.513 163.259 542.746 163.044L543.39 163.73C542.998 164.038 542.592 164.267 542.172 164.416C541.752 164.565 541.304 164.64 540.828 164.64ZM538.462 160.58H542.788C542.741 160.169 542.615 159.805 542.41 159.488C542.214 159.161 541.962 158.905 541.654 158.718C541.355 158.531 541.019 158.438 540.646 158.438C540.273 158.438 539.932 158.531 539.624 158.718C539.316 158.895 539.059 159.147 538.854 159.474C538.658 159.791 538.527 160.16 538.462 160.58ZM551.875 164.612C551.24 164.612 550.666 164.458 550.153 164.15C549.649 163.833 549.247 163.408 548.949 162.876C548.65 162.335 548.501 161.737 548.501 161.084C548.501 160.421 548.65 159.824 548.949 159.292C549.247 158.76 549.649 158.34 550.153 158.032C550.666 157.715 551.24 157.556 551.875 157.556C552.379 157.556 552.859 157.649 553.317 157.836C553.774 158.023 554.171 158.284 554.507 158.62L553.849 159.334C553.606 159.063 553.312 158.853 552.967 158.704C552.621 158.555 552.271 158.48 551.917 158.48C551.469 158.48 551.063 158.597 550.699 158.83C550.344 159.063 550.059 159.376 549.845 159.768C549.63 160.16 549.523 160.599 549.523 161.084C549.523 161.569 549.63 162.008 549.845 162.4C550.059 162.792 550.344 163.105 550.699 163.338C551.063 163.571 551.469 163.688 551.917 163.688C552.271 163.688 552.621 163.613 552.967 163.464C553.312 163.305 553.606 163.095 553.849 162.834L554.507 163.548C554.171 163.884 553.774 164.145 553.317 164.332C552.859 164.519 552.379 164.612 551.875 164.612ZM558.807 164.64C558.172 164.64 557.598 164.486 557.085 164.178C556.571 163.861 556.165 163.436 555.867 162.904C555.568 162.363 555.419 161.756 555.419 161.084C555.419 160.412 555.559 159.81 555.839 159.278C556.128 158.746 556.515 158.326 557.001 158.018C557.486 157.71 558.027 157.556 558.625 157.556C559.231 157.556 559.768 157.71 560.235 158.018C560.711 158.317 561.084 158.727 561.355 159.25C561.635 159.763 561.775 160.347 561.775 161V161.308H556.413C556.45 161.775 556.576 162.195 556.791 162.568C557.015 162.932 557.304 163.221 557.659 163.436C558.023 163.641 558.419 163.744 558.849 163.744C559.203 163.744 559.544 163.683 559.871 163.562C560.207 163.431 560.491 163.259 560.725 163.044L561.369 163.73C560.977 164.038 560.571 164.267 560.151 164.416C559.731 164.565 559.283 164.64 558.807 164.64ZM556.441 160.58H560.767C560.72 160.169 560.594 159.805 560.389 159.488C560.193 159.161 559.941 158.905 559.633 158.718C559.334 158.531 558.998 158.438 558.625 158.438C558.251 158.438 557.911 158.531 557.603 158.718C557.295 158.895 557.038 159.147 556.833 159.474C556.637 159.791 556.506 160.16 556.441 160.58ZM563.519 164.5V154.392L564.541 154.182V164.5H563.519ZM566.637 164.5V154.392L567.659 154.182V164.5H566.637ZM574.981 164.5L572.181 157.668H573.287L575.499 163.226L577.683 157.668H578.775L575.961 164.5H574.981ZM581.876 164.626C581.39 164.626 580.961 164.537 580.588 164.36C580.214 164.183 579.92 163.94 579.706 163.632C579.5 163.315 579.398 162.951 579.398 162.54C579.398 162.129 579.505 161.775 579.72 161.476C579.934 161.168 580.233 160.93 580.616 160.762C580.998 160.594 581.446 160.51 581.96 160.51C582.352 160.51 582.72 160.552 583.066 160.636C583.42 160.72 583.747 160.855 584.046 161.042V160.104C584.046 159.544 583.896 159.124 583.598 158.844C583.299 158.555 582.86 158.41 582.282 158.41C581.964 158.41 581.638 158.457 581.302 158.55C580.975 158.643 580.611 158.793 580.21 158.998L579.832 158.214C580.746 157.775 581.605 157.556 582.408 157.556C583.257 157.556 583.91 157.766 584.368 158.186C584.825 158.597 585.054 159.189 585.054 159.964V164.5H584.046V163.702C583.747 164.01 583.416 164.243 583.052 164.402C582.688 164.551 582.296 164.626 581.876 164.626ZM580.378 162.512C580.378 162.913 580.532 163.235 580.84 163.478C581.157 163.721 581.572 163.842 582.086 163.842C582.468 163.842 582.818 163.777 583.136 163.646C583.462 163.515 583.766 163.319 584.046 163.058V161.742C583.756 161.574 583.458 161.453 583.15 161.378C582.842 161.294 582.496 161.252 582.114 161.252C581.591 161.252 581.171 161.369 580.854 161.602C580.536 161.826 580.378 162.129 580.378 162.512ZM587.131 164.5V154.392L588.153 154.182V164.5H587.131ZM592.684 164.612C592.199 164.612 591.769 164.505 591.396 164.29C591.023 164.075 590.729 163.777 590.514 163.394C590.309 163.011 590.206 162.573 590.206 162.078V157.668H591.242V161.784C591.242 162.391 591.405 162.871 591.732 163.226C592.059 163.581 592.502 163.758 593.062 163.758C593.445 163.758 593.785 163.669 594.084 163.492C594.392 163.315 594.649 163.058 594.854 162.722V157.668H595.876V164.5H594.854V163.394C594.593 163.795 594.28 164.099 593.916 164.304C593.561 164.509 593.151 164.612 592.684 164.612ZM601.053 164.64C600.418 164.64 599.844 164.486 599.331 164.178C598.817 163.861 598.411 163.436 598.113 162.904C597.814 162.363 597.665 161.756 597.665 161.084C597.665 160.412 597.805 159.81 598.085 159.278C598.374 158.746 598.761 158.326 599.247 158.018C599.732 157.71 600.273 157.556 600.871 157.556C601.477 157.556 602.014 157.71 602.481 158.018C602.957 158.317 603.33 158.727 603.601 159.25C603.881 159.763 604.021 160.347 604.021 161V161.308H598.659C598.696 161.775 598.822 162.195 599.037 162.568C599.261 162.932 599.55 163.221 599.905 163.436C600.269 163.641 600.665 163.744 601.095 163.744C601.449 163.744 601.79 163.683 602.117 163.562C602.453 163.431 602.737 163.259 602.971 163.044L603.615 163.73C603.223 164.038 602.817 164.267 602.397 164.416C601.977 164.565 601.529 164.64 601.053 164.64ZM598.687 160.58H603.013C602.966 160.169 602.84 159.805 602.635 159.488C602.439 159.161 602.187 158.905 601.879 158.718C601.58 158.531 601.244 158.438 600.871 158.438C600.497 158.438 600.157 158.531 599.849 158.718C599.541 158.895 599.284 159.147 599.079 159.474C598.883 159.791 598.752 160.16 598.687 160.58Z" fill="#151515"/>
<path d="M742.292 162.936C743.42 162.936 744.333 163.844 744.333 164.968C744.333 166.091 743.42 167 742.292 167C741.163 167 740.25 166.091 740.25 164.968C740.25 163.844 741.163 162.936 742.292 162.936ZM742.292 157.968C743.42 157.968 744.333 158.877 744.333 160C744.333 161.123 743.42 162.032 742.292 162.032C741.163 162.032 740.25 161.123 740.25 160C740.25 158.877 741.163 157.968 742.292 157.968ZM742.292 153C743.42 153 744.333 153.909 744.333 155.032C744.333 156.156 743.42 157.064 742.292 157.064C741.163 157.064 740.25 156.156 740.25 155.032C740.25 153.909 741.163 153 742.292 153Z" fill="#1F1F1F"/>
<mask id="path-39-inside-6_1811_36991" fill="white">
<path d="M0 192H782V256H0V192Z"/>
</mask>
<path d="M0 192H782V256H0V192Z" fill="white"/>
<path d="M782 256V255H0V256V257H782V256Z" fill="#C7C7C7" mask="url(#path-39-inside-6_1811_36991)"/>
<mask id="path-41-inside-7_1811_36991" fill="white">
<path d="M24 220C24 217.791 25.7909 216 28 216H36C38.2091 216 40 217.791 40 220V228C40 230.209 38.2091 232 36 232H28C25.7909 232 24 230.209 24 228V220Z"/>
</mask>
<path d="M24 220C24 217.791 25.7909 216 28 216H36C38.2091 216 40 217.791 40 220V228C40 230.209 38.2091 232 36 232H28C25.7909 232 24 230.209 24 228V220Z" fill="white"/>
<path d="M28 216V217H36V216V215H28V216ZM40 220H39V228H40H41V220H40ZM36 232V231H28V232V233H36V232ZM24 228H25V220H24H23V228H24ZM28 232V231C26.3431 231 25 229.657 25 228H24H23C23 230.761 25.2386 233 28 233V232ZM40 228H39C39 229.657 37.6569 231 36 231V232V233C38.7614 233 41 230.761 41 228H40ZM36 216V217C37.6569 217 39 218.343 39 220H40H41C41 217.239 38.7614 215 36 215V216ZM28 216V215C25.2386 215 23 217.239 23 220H24H25C25 218.343 26.3431 217 28 217V216Z" fill="#C7C7C7" mask="url(#path-41-inside-7_1811_36991)"/>
<path d="M83.78 228.5V219.652H80.392V218.7H88.246V219.652H84.858V228.5H83.78ZM90.5468 228.626C90.0615 228.626 89.6321 228.537 89.2588 228.36C88.8855 228.183 88.5915 227.94 88.3768 227.632C88.1715 227.315 88.0688 226.951 88.0688 226.54C88.0688 226.129 88.1761 225.775 88.3908 225.476C88.6055 225.168 88.9041 224.93 89.2868 224.762C89.6695 224.594 90.1175 224.51 90.6308 224.51C91.0228 224.51 91.3915 224.552 91.7368 224.636C92.0915 224.72 92.4181 224.855 92.7168 225.042V224.104C92.7168 223.544 92.5675 223.124 92.2688 222.844C91.9701 222.555 91.5315 222.41 90.9528 222.41C90.6355 222.41 90.3088 222.457 89.9728 222.55C89.6461 222.643 89.2821 222.793 88.8808 222.998L88.5028 222.214C89.4175 221.775 90.2761 221.556 91.0788 221.556C91.9281 221.556 92.5815 221.766 93.0388 222.186C93.4961 222.597 93.7248 223.189 93.7248 223.964V228.5H92.7168V227.702C92.4181 228.01 92.0868 228.243 91.7228 228.402C91.3588 228.551 90.9668 228.626 90.5468 228.626ZM89.0488 226.512C89.0488 226.913 89.2028 227.235 89.5108 227.478C89.8281 227.721 90.2435 227.842 90.7568 227.842C91.1395 227.842 91.4895 227.777 91.8068 227.646C92.1335 227.515 92.4368 227.319 92.7168 227.058V225.742C92.4275 225.574 92.1288 225.453 91.8208 225.378C91.5128 225.294 91.1675 225.252 90.7848 225.252C90.2621 225.252 89.8421 225.369 89.5248 225.602C89.2075 225.826 89.0488 226.129 89.0488 226.512ZM95.802 228.5V218.49L96.824 218.28V222.606C97.0853 222.279 97.4026 222.027 97.776 221.85C98.1493 221.673 98.5646 221.584 99.022 221.584C99.6193 221.584 100.151 221.743 100.618 222.06C101.094 222.368 101.472 222.788 101.752 223.32C102.032 223.843 102.172 224.431 102.172 225.084C102.172 225.737 102.027 226.33 101.738 226.862C101.458 227.394 101.075 227.819 100.59 228.136C100.114 228.444 99.5726 228.598 98.966 228.598C98.5366 228.598 98.1353 228.514 97.762 228.346C97.398 228.169 97.0806 227.921 96.81 227.604V228.5H95.802ZM98.77 227.716C99.2273 227.716 99.6333 227.604 99.988 227.38C100.352 227.147 100.637 226.834 100.842 226.442C101.057 226.041 101.164 225.593 101.164 225.098C101.164 224.594 101.057 224.146 100.842 223.754C100.637 223.362 100.352 223.054 99.988 222.83C99.6333 222.597 99.2273 222.48 98.77 222.48C98.3686 222.48 97.9953 222.564 97.65 222.732C97.314 222.891 97.0386 223.119 96.824 223.418V226.764C97.048 227.063 97.328 227.296 97.664 227.464C98.0093 227.632 98.378 227.716 98.77 227.716ZM103.964 228.5V218.392L104.986 218.182V228.5H103.964ZM110.161 228.64C109.527 228.64 108.953 228.486 108.439 228.178C107.926 227.861 107.52 227.436 107.221 226.904C106.923 226.363 106.773 225.756 106.773 225.084C106.773 224.412 106.913 223.81 107.193 223.278C107.483 222.746 107.87 222.326 108.355 222.018C108.841 221.71 109.382 221.556 109.979 221.556C110.586 221.556 111.123 221.71 111.589 222.018C112.065 222.317 112.439 222.727 112.709 223.25C112.989 223.763 113.129 224.347 113.129 225V225.308H107.767C107.805 225.775 107.931 226.195 108.145 226.568C108.369 226.932 108.659 227.221 109.013 227.436C109.377 227.641 109.774 227.744 110.203 227.744C110.558 227.744 110.899 227.683 111.225 227.562C111.561 227.431 111.846 227.259 112.079 227.044L112.723 227.73C112.331 228.038 111.925 228.267 111.505 228.416C111.085 228.565 110.637 228.64 110.161 228.64ZM107.795 224.58H112.121C112.075 224.169 111.949 223.805 111.743 223.488C111.547 223.161 111.295 222.905 110.987 222.718C110.689 222.531 110.353 222.438 109.979 222.438C109.606 222.438 109.265 222.531 108.957 222.718C108.649 222.895 108.393 223.147 108.187 223.474C107.991 223.791 107.861 224.16 107.795 224.58ZM121.208 228.612C120.573 228.612 119.999 228.458 119.486 228.15C118.982 227.833 118.58 227.408 118.282 226.876C117.983 226.335 117.834 225.737 117.834 225.084C117.834 224.421 117.983 223.824 118.282 223.292C118.58 222.76 118.982 222.34 119.486 222.032C119.999 221.715 120.573 221.556 121.208 221.556C121.712 221.556 122.192 221.649 122.65 221.836C123.107 222.023 123.504 222.284 123.84 222.62L123.182 223.334C122.939 223.063 122.645 222.853 122.3 222.704C121.954 222.555 121.604 222.48 121.25 222.48C120.802 222.48 120.396 222.597 120.032 222.83C119.677 223.063 119.392 223.376 119.178 223.768C118.963 224.16 118.856 224.599 118.856 225.084C118.856 225.569 118.963 226.008 119.178 226.4C119.392 226.792 119.677 227.105 120.032 227.338C120.396 227.571 120.802 227.688 121.25 227.688C121.604 227.688 121.954 227.613 122.3 227.464C122.645 227.305 122.939 227.095 123.182 226.834L123.84 227.548C123.504 227.884 123.107 228.145 122.65 228.332C122.192 228.519 121.712 228.612 121.208 228.612ZM128.14 228.64C127.505 228.64 126.931 228.486 126.418 228.178C125.904 227.861 125.498 227.436 125.2 226.904C124.901 226.363 124.752 225.756 124.752 225.084C124.752 224.412 124.892 223.81 125.172 223.278C125.461 222.746 125.848 222.326 126.334 222.018C126.819 221.71 127.36 221.556 127.958 221.556C128.564 221.556 129.101 221.71 129.568 222.018C130.044 222.317 130.417 222.727 130.688 223.25C130.968 223.763 131.108 224.347 131.108 225V225.308H125.746C125.783 225.775 125.909 226.195 126.124 226.568C126.348 226.932 126.637 227.221 126.992 227.436C127.356 227.641 127.752 227.744 128.182 227.744C128.536 227.744 128.877 227.683 129.204 227.562C129.54 227.431 129.824 227.259 130.058 227.044L130.702 227.73C130.31 228.038 129.904 228.267 129.484 228.416C129.064 228.565 128.616 228.64 128.14 228.64ZM125.774 224.58H130.1C130.053 224.169 129.927 223.805 129.722 223.488C129.526 223.161 129.274 222.905 128.966 222.718C128.667 222.531 128.331 222.438 127.958 222.438C127.584 222.438 127.244 222.531 126.936 222.718C126.628 222.895 126.371 223.147 126.166 223.474C125.97 223.791 125.839 224.16 125.774 224.58ZM132.853 228.5V218.392L133.875 218.182V228.5H132.853ZM135.97 228.5V218.392L136.992 218.182V228.5H135.97ZM144.315 228.5L141.515 221.668H142.621L144.833 227.226L147.017 221.668H148.109L145.295 228.5H144.315ZM151.209 228.626C150.724 228.626 150.294 228.537 149.921 228.36C149.548 228.183 149.254 227.94 149.039 227.632C148.834 227.315 148.731 226.951 148.731 226.54C148.731 226.129 148.838 225.775 149.053 225.476C149.268 225.168 149.566 224.93 149.949 224.762C150.332 224.594 150.78 224.51 151.293 224.51C151.685 224.51 152.054 224.552 152.399 224.636C152.754 224.72 153.08 224.855 153.379 225.042V224.104C153.379 223.544 153.23 223.124 152.931 222.844C152.632 222.555 152.194 222.41 151.615 222.41C151.298 222.41 150.971 222.457 150.635 222.55C150.308 222.643 149.944 222.793 149.543 222.998L149.165 222.214C150.08 221.775 150.938 221.556 151.741 221.556C152.59 221.556 153.244 221.766 153.701 222.186C154.158 222.597 154.387 223.189 154.387 223.964V228.5H153.379V227.702C153.08 228.01 152.749 228.243 152.385 228.402C152.021 228.551 151.629 228.626 151.209 228.626ZM149.711 226.512C149.711 226.913 149.865 227.235 150.173 227.478C150.49 227.721 150.906 227.842 151.419 227.842C151.802 227.842 152.152 227.777 152.469 227.646C152.796 227.515 153.099 227.319 153.379 227.058V225.742C153.09 225.574 152.791 225.453 152.483 225.378C152.175 225.294 151.83 225.252 151.447 225.252C150.924 225.252 150.504 225.369 150.187 225.602C149.87 225.826 149.711 226.129 149.711 226.512ZM156.464 228.5V218.392L157.486 218.182V228.5H156.464ZM162.017 228.612C161.532 228.612 161.103 228.505 160.729 228.29C160.356 228.075 160.062 227.777 159.847 227.394C159.642 227.011 159.539 226.573 159.539 226.078V221.668H160.575V225.784C160.575 226.391 160.739 226.871 161.065 227.226C161.392 227.581 161.835 227.758 162.395 227.758C162.778 227.758 163.119 227.669 163.417 227.492C163.725 227.315 163.982 227.058 164.187 226.722V221.668H165.209V228.5H164.187V227.394C163.926 227.795 163.613 228.099 163.249 228.304C162.895 228.509 162.484 228.612 162.017 228.612ZM170.386 228.64C169.751 228.64 169.177 228.486 168.664 228.178C168.151 227.861 167.745 227.436 167.446 226.904C167.147 226.363 166.998 225.756 166.998 225.084C166.998 224.412 167.138 223.81 167.418 223.278C167.707 222.746 168.095 222.326 168.58 222.018C169.065 221.71 169.607 221.556 170.204 221.556C170.811 221.556 171.347 221.71 171.814 222.018C172.29 222.317 172.663 222.727 172.934 223.25C173.214 223.763 173.354 224.347 173.354 225V225.308H167.992C168.029 225.775 168.155 226.195 168.37 226.568C168.594 226.932 168.883 227.221 169.238 227.436C169.602 227.641 169.999 227.744 170.428 227.744C170.783 227.744 171.123 227.683 171.45 227.562C171.786 227.431 172.071 227.259 172.304 227.044L172.948 227.73C172.556 228.038 172.15 228.267 171.73 228.416C171.31 228.565 170.862 228.64 170.386 228.64ZM168.02 224.58H172.346C172.299 224.169 172.173 223.805 171.968 223.488C171.772 223.161 171.52 222.905 171.212 222.718C170.913 222.531 170.577 222.438 170.204 222.438C169.831 222.438 169.49 222.531 169.182 222.718C168.874 222.895 168.617 223.147 168.412 223.474C168.216 223.791 168.085 224.16 168.02 224.58ZM179.584 228.5L177.708 221.668H178.702L180.13 227.128L181.768 221.668H182.678L184.316 227.128L185.73 221.668H186.696L184.834 228.5H183.84L182.216 222.984L180.592 228.5H179.584ZM188.128 228.5V221.668H189.15V228.5H188.128ZM188.646 219.974C188.44 219.974 188.263 219.904 188.114 219.764C187.974 219.615 187.904 219.442 187.904 219.246C187.904 219.05 187.974 218.882 188.114 218.742C188.263 218.593 188.44 218.518 188.646 218.518C188.851 218.518 189.024 218.593 189.164 218.742C189.313 218.882 189.388 219.05 189.388 219.246C189.388 219.442 189.313 219.615 189.164 219.764C189.024 219.904 188.851 219.974 188.646 219.974ZM193.849 228.64C193.261 228.64 192.813 228.5 192.505 228.22C192.207 227.931 192.057 227.515 192.057 226.974V222.508H190.643V221.668H192.057V219.792L193.079 219.554V221.668H195.039V222.508H193.079V226.708C193.079 227.072 193.154 227.333 193.303 227.492C193.462 227.651 193.719 227.73 194.073 227.73C194.251 227.73 194.409 227.716 194.549 227.688C194.689 227.66 194.853 227.613 195.039 227.548V228.458C194.853 228.523 194.657 228.57 194.451 228.598C194.246 228.626 194.045 228.64 193.849 228.64ZM196.536 228.5V218.392L197.558 218.182V222.774C197.82 222.363 198.132 222.06 198.496 221.864C198.86 221.659 199.271 221.556 199.728 221.556C200.223 221.556 200.652 221.663 201.016 221.878C201.39 222.083 201.679 222.377 201.884 222.76C202.099 223.133 202.206 223.572 202.206 224.076V228.5H201.184V224.37C201.184 223.763 201.016 223.287 200.68 222.942C200.354 222.587 199.91 222.41 199.35 222.41C198.977 222.41 198.636 222.499 198.328 222.676C198.02 222.853 197.764 223.115 197.558 223.46V228.5H196.536ZM207.529 228.5V218.392L208.551 218.182V228.5H207.529ZM210.632 228.5V221.668H211.654V228.5H210.632ZM211.15 219.974C210.944 219.974 210.767 219.904 210.618 219.764C210.478 219.615 210.408 219.442 210.408 219.246C210.408 219.05 210.478 218.882 210.618 218.742C210.767 218.593 210.944 218.518 211.15 218.518C211.355 218.518 211.528 218.593 211.668 218.742C211.817 218.882 211.892 219.05 211.892 219.246C211.892 219.442 211.817 219.615 211.668 219.764C211.528 219.904 211.355 219.974 211.15 219.974ZM213.749 228.5V221.668H214.771V222.774C215.033 222.363 215.345 222.06 215.709 221.864C216.073 221.659 216.484 221.556 216.941 221.556C217.436 221.556 217.865 221.663 218.229 221.878C218.603 222.083 218.892 222.377 219.097 222.76C219.312 223.133 219.419 223.572 219.419 224.076V228.5H218.397V224.37C218.397 223.763 218.229 223.287 217.893 222.942C217.567 222.587 217.123 222.41 216.563 222.41C216.19 222.41 215.849 222.499 215.541 222.676C215.233 222.853 214.977 223.115 214.771 223.46V228.5H213.749ZM221.474 228.5V218.392L222.496 218.182V224.734L225.744 221.668H226.976L223.504 224.916L227.13 228.5H225.786L222.496 225.238V228.5H221.474Z" fill="#0066CC"/>
<path d="M80 232H227.27V233.4H80V232Z" fill="#0066CC"/>
<path d="M308.333 211.5H348.333C355.237 211.5 360.833 217.096 360.833 224C360.833 230.904 355.237 236.5 348.333 236.5H308.333C301.43 236.5 295.833 230.904 295.833 224C295.833 217.096 301.43 211.5 308.333 211.5Z" stroke="#3D7317"/>
<path d="M311.333 218C314.647 218 317.333 220.686 317.333 224C317.333 227.314 314.647 230 311.333 230C308.02 230 305.333 227.314 305.333 224C305.333 220.686 308.02 218 311.333 218ZM314.543 221.631C314.392 221.48 314.148 221.48 313.996 221.631L310.365 225.261L308.67 223.566C308.519 223.415 308.274 223.415 308.123 223.566L307.575 224.113C307.424 224.264 307.424 224.51 307.575 224.661L310.092 227.177C310.243 227.328 310.488 227.328 310.639 227.177L315.091 222.726C315.242 222.574 315.242 222.329 315.091 222.178L314.543 221.631Z" fill="#3D7317"/>
<path d="M324.401 228V219.6H325.325V227.184H330.065V228H324.401ZM333.334 228.108C332.918 228.108 332.55 228.032 332.23 227.88C331.91 227.728 331.658 227.52 331.474 227.256C331.298 226.984 331.21 226.672 331.21 226.32C331.21 225.968 331.302 225.664 331.486 225.408C331.67 225.144 331.926 224.94 332.254 224.796C332.582 224.652 332.966 224.58 333.406 224.58C333.742 224.58 334.058 224.616 334.354 224.688C334.658 224.76 334.938 224.876 335.194 225.036V224.232C335.194 223.752 335.066 223.392 334.81 223.152C334.554 222.904 334.178 222.78 333.682 222.78C333.41 222.78 333.13 222.82 332.842 222.9C332.562 222.98 332.25 223.108 331.906 223.284L331.582 222.612C332.366 222.236 333.102 222.048 333.79 222.048C334.518 222.048 335.078 222.228 335.47 222.588C335.862 222.94 336.058 223.448 336.058 224.112V228H335.194V227.316C334.938 227.58 334.654 227.78 334.342 227.916C334.03 228.044 333.694 228.108 333.334 228.108ZM332.05 226.296C332.05 226.64 332.182 226.916 332.446 227.124C332.718 227.332 333.074 227.436 333.514 227.436C333.842 227.436 334.142 227.38 334.414 227.268C334.694 227.156 334.954 226.988 335.194 226.764V225.636C334.946 225.492 334.69 225.388 334.426 225.324C334.162 225.252 333.866 225.216 333.538 225.216C333.09 225.216 332.73 225.316 332.458 225.516C332.186 225.708 332.05 225.968 332.05 226.296ZM337.839 228V219.42L338.715 219.24V222.948C338.939 222.668 339.211 222.452 339.531 222.3C339.851 222.148 340.207 222.072 340.599 222.072C341.111 222.072 341.567 222.208 341.967 222.48C342.375 222.744 342.699 223.104 342.939 223.56C343.179 224.008 343.299 224.512 343.299 225.072C343.299 225.632 343.175 226.14 342.927 226.596C342.687 227.052 342.359 227.416 341.943 227.688C341.535 227.952 341.071 228.084 340.551 228.084C340.183 228.084 339.839 228.012 339.519 227.868C339.207 227.716 338.935 227.504 338.703 227.232V228H337.839ZM340.383 227.328C340.775 227.328 341.123 227.232 341.427 227.04C341.739 226.84 341.983 226.572 342.159 226.236C342.343 225.892 342.435 225.508 342.435 225.084C342.435 224.652 342.343 224.268 342.159 223.932C341.983 223.596 341.739 223.332 341.427 223.14C341.123 222.94 340.775 222.84 340.383 222.84C340.039 222.84 339.719 222.912 339.423 223.056C339.135 223.192 338.899 223.388 338.715 223.644V226.512C338.907 226.768 339.147 226.968 339.435 227.112C339.731 227.256 340.047 227.328 340.383 227.328ZM347.475 228.12C346.931 228.12 346.439 227.988 345.999 227.724C345.559 227.452 345.211 227.088 344.955 226.632C344.699 226.168 344.571 225.648 344.571 225.072C344.571 224.496 344.691 223.98 344.931 223.524C345.179 223.068 345.511 222.708 345.927 222.444C346.343 222.18 346.807 222.048 347.319 222.048C347.839 222.048 348.299 222.18 348.699 222.444C349.107 222.7 349.427 223.052 349.659 223.5C349.899 223.94 350.019 224.44 350.019 225V225.264H345.423C345.455 225.664 345.563 226.024 345.747 226.344C345.939 226.656 346.187 226.904 346.491 227.088C346.803 227.264 347.143 227.352 347.511 227.352C347.815 227.352 348.107 227.3 348.387 227.196C348.675 227.084 348.919 226.936 349.119 226.752L349.671 227.34C349.335 227.604 348.987 227.8 348.627 227.928C348.267 228.056 347.883 228.12 347.475 228.12ZM345.447 224.64H349.155C349.115 224.288 349.007 223.976 348.831 223.704C348.663 223.424 348.447 223.204 348.183 223.044C347.927 222.884 347.639 222.804 347.319 222.804C346.999 222.804 346.707 222.884 346.443 223.044C346.179 223.196 345.959 223.412 345.783 223.692C345.615 223.964 345.503 224.28 345.447 224.64ZM351.515 228V219.336L352.391 219.156V228H351.515Z" fill="#151515"/>
<path d="M514.447 228.5V219.652H511.059V218.7H518.913V219.652H515.525V228.5H514.447ZM521.214 228.626C520.728 228.626 520.299 228.537 519.926 228.36C519.552 228.183 519.258 227.94 519.044 227.632C518.838 227.315 518.736 226.951 518.736 226.54C518.736 226.129 518.843 225.775 519.058 225.476C519.272 225.168 519.571 224.93 519.954 224.762C520.336 224.594 520.784 224.51 521.298 224.51C521.69 224.51 522.058 224.552 522.404 224.636C522.758 224.72 523.085 224.855 523.384 225.042V224.104C523.384 223.544 523.234 223.124 522.936 222.844C522.637 222.555 522.198 222.41 521.62 222.41C521.302 222.41 520.976 222.457 520.64 222.55C520.313 222.643 519.949 222.793 519.548 222.998L519.17 222.214C520.084 221.775 520.943 221.556 521.746 221.556C522.595 221.556 523.248 221.766 523.706 222.186C524.163 222.597 524.392 223.189 524.392 223.964V228.5H523.384V227.702C523.085 228.01 522.754 228.243 522.39 228.402C522.026 228.551 521.634 228.626 521.214 228.626ZM519.716 226.512C519.716 226.913 519.87 227.235 520.178 227.478C520.495 227.721 520.91 227.842 521.424 227.842C521.806 227.842 522.156 227.777 522.474 227.646C522.8 227.515 523.104 227.319 523.384 227.058V225.742C523.094 225.574 522.796 225.453 522.488 225.378C522.18 225.294 521.834 225.252 521.452 225.252C520.929 225.252 520.509 225.369 520.192 225.602C519.874 225.826 519.716 226.129 519.716 226.512ZM526.469 228.5V218.49L527.491 218.28V222.606C527.752 222.279 528.069 222.027 528.443 221.85C528.816 221.673 529.231 221.584 529.689 221.584C530.286 221.584 530.818 221.743 531.285 222.06C531.761 222.368 532.139 222.788 532.419 223.32C532.699 223.843 532.839 224.431 532.839 225.084C532.839 225.737 532.694 226.33 532.405 226.862C532.125 227.394 531.742 227.819 531.257 228.136C530.781 228.444 530.239 228.598 529.633 228.598C529.203 228.598 528.802 228.514 528.429 228.346C528.065 228.169 527.747 227.921 527.477 227.604V228.5H526.469ZM529.437 227.716C529.894 227.716 530.3 227.604 530.655 227.38C531.019 227.147 531.303 226.834 531.509 226.442C531.723 226.041 531.831 225.593 531.831 225.098C531.831 224.594 531.723 224.146 531.509 223.754C531.303 223.362 531.019 223.054 530.655 222.83C530.3 222.597 529.894 222.48 529.437 222.48C529.035 222.48 528.662 222.564 528.317 222.732C527.981 222.891 527.705 223.119 527.491 223.418V226.764C527.715 227.063 527.995 227.296 528.331 227.464C528.676 227.632 529.045 227.716 529.437 227.716ZM534.631 228.5V218.392L535.653 218.182V228.5H534.631ZM540.828 228.64C540.193 228.64 539.619 228.486 539.106 228.178C538.593 227.861 538.187 227.436 537.888 226.904C537.589 226.363 537.44 225.756 537.44 225.084C537.44 224.412 537.58 223.81 537.86 223.278C538.149 222.746 538.537 222.326 539.022 222.018C539.507 221.71 540.049 221.556 540.646 221.556C541.253 221.556 541.789 221.71 542.256 222.018C542.732 222.317 543.105 222.727 543.376 223.25C543.656 223.763 543.796 224.347 543.796 225V225.308H538.434C538.471 225.775 538.597 226.195 538.812 226.568C539.036 226.932 539.325 227.221 539.68 227.436C540.044 227.641 540.441 227.744 540.87 227.744C541.225 227.744 541.565 227.683 541.892 227.562C542.228 227.431 542.513 227.259 542.746 227.044L543.39 227.73C542.998 228.038 542.592 228.267 542.172 228.416C541.752 228.565 541.304 228.64 540.828 228.64ZM538.462 224.58H542.788C542.741 224.169 542.615 223.805 542.41 223.488C542.214 223.161 541.962 222.905 541.654 222.718C541.355 222.531 541.019 222.438 540.646 222.438C540.273 222.438 539.932 222.531 539.624 222.718C539.316 222.895 539.059 223.147 538.854 223.474C538.658 223.791 538.527 224.16 538.462 224.58ZM551.875 228.612C551.24 228.612 550.666 228.458 550.153 228.15C549.649 227.833 549.247 227.408 548.949 226.876C548.65 226.335 548.501 225.737 548.501 225.084C548.501 224.421 548.65 223.824 548.949 223.292C549.247 222.76 549.649 222.34 550.153 222.032C550.666 221.715 551.24 221.556 551.875 221.556C552.379 221.556 552.859 221.649 553.317 221.836C553.774 222.023 554.171 222.284 554.507 222.62L553.849 223.334C553.606 223.063 553.312 222.853 552.967 222.704C552.621 222.555 552.271 222.48 551.917 222.48C551.469 222.48 551.063 222.597 550.699 222.83C550.344 223.063 550.059 223.376 549.845 223.768C549.63 224.16 549.523 224.599 549.523 225.084C549.523 225.569 549.63 226.008 549.845 226.4C550.059 226.792 550.344 227.105 550.699 227.338C551.063 227.571 551.469 227.688 551.917 227.688C552.271 227.688 552.621 227.613 552.967 227.464C553.312 227.305 553.606 227.095 553.849 226.834L554.507 227.548C554.171 227.884 553.774 228.145 553.317 228.332C552.859 228.519 552.379 228.612 551.875 228.612ZM558.807 228.64C558.172 228.64 557.598 228.486 557.085 228.178C556.571 227.861 556.165 227.436 555.867 226.904C555.568 226.363 555.419 225.756 555.419 225.084C555.419 224.412 555.559 223.81 555.839 223.278C556.128 222.746 556.515 222.326 557.001 222.018C557.486 221.71 558.027 221.556 558.625 221.556C559.231 221.556 559.768 221.71 560.235 222.018C560.711 222.317 561.084 222.727 561.355 223.25C561.635 223.763 561.775 224.347 561.775 225V225.308H556.413C556.45 225.775 556.576 226.195 556.791 226.568C557.015 226.932 557.304 227.221 557.659 227.436C558.023 227.641 558.419 227.744 558.849 227.744C559.203 227.744 559.544 227.683 559.871 227.562C560.207 227.431 560.491 227.259 560.725 227.044L561.369 227.73C560.977 228.038 560.571 228.267 560.151 228.416C559.731 228.565 559.283 228.64 558.807 228.64ZM556.441 224.58H560.767C560.72 224.169 560.594 223.805 560.389 223.488C560.193 223.161 559.941 222.905 559.633 222.718C559.334 222.531 558.998 222.438 558.625 222.438C558.251 222.438 557.911 222.531 557.603 222.718C557.295 222.895 557.038 223.147 556.833 223.474C556.637 223.791 556.506 224.16 556.441 224.58ZM563.519 228.5V218.392L564.541 218.182V228.5H563.519ZM566.637 228.5V218.392L567.659 218.182V228.5H566.637ZM574.981 228.5L572.181 221.668H573.287L575.499 227.226L577.683 221.668H578.775L575.961 228.5H574.981ZM581.876 228.626C581.39 228.626 580.961 228.537 580.588 228.36C580.214 228.183 579.92 227.94 579.706 227.632C579.5 227.315 579.398 226.951 579.398 226.54C579.398 226.129 579.505 225.775 579.72 225.476C579.934 225.168 580.233 224.93 580.616 224.762C580.998 224.594 581.446 224.51 581.96 224.51C582.352 224.51 582.72 224.552 583.066 224.636C583.42 224.72 583.747 224.855 584.046 225.042V224.104C584.046 223.544 583.896 223.124 583.598 222.844C583.299 222.555 582.86 222.41 582.282 222.41C581.964 222.41 581.638 222.457 581.302 222.55C580.975 222.643 580.611 222.793 580.21 222.998L579.832 222.214C580.746 221.775 581.605 221.556 582.408 221.556C583.257 221.556 583.91 221.766 584.368 222.186C584.825 222.597 585.054 223.189 585.054 223.964V228.5H584.046V227.702C583.747 228.01 583.416 228.243 583.052 228.402C582.688 228.551 582.296 228.626 581.876 228.626ZM580.378 226.512C580.378 226.913 580.532 227.235 580.84 227.478C581.157 227.721 581.572 227.842 582.086 227.842C582.468 227.842 582.818 227.777 583.136 227.646C583.462 227.515 583.766 227.319 584.046 227.058V225.742C583.756 225.574 583.458 225.453 583.15 225.378C582.842 225.294 582.496 225.252 582.114 225.252C581.591 225.252 581.171 225.369 580.854 225.602C580.536 225.826 580.378 226.129 580.378 226.512ZM587.131 228.5V218.392L588.153 218.182V228.5H587.131ZM592.684 228.612C592.199 228.612 591.769 228.505 591.396 228.29C591.023 228.075 590.729 227.777 590.514 227.394C590.309 227.011 590.206 226.573 590.206 226.078V221.668H591.242V225.784C591.242 226.391 591.405 226.871 591.732 227.226C592.059 227.581 592.502 227.758 593.062 227.758C593.445 227.758 593.785 227.669 594.084 227.492C594.392 227.315 594.649 227.058 594.854 226.722V221.668H595.876V228.5H594.854V227.394C594.593 227.795 594.28 228.099 593.916 228.304C593.561 228.509 593.151 228.612 592.684 228.612ZM601.053 228.64C600.418 228.64 599.844 228.486 599.331 228.178C598.817 227.861 598.411 227.436 598.113 226.904C597.814 226.363 597.665 225.756 597.665 225.084C597.665 224.412 597.805 223.81 598.085 223.278C598.374 222.746 598.761 222.326 599.247 222.018C599.732 221.71 600.273 221.556 600.871 221.556C601.477 221.556 602.014 221.71 602.481 222.018C602.957 222.317 603.33 222.727 603.601 223.25C603.881 223.763 604.021 224.347 604.021 225V225.308H598.659C598.696 225.775 598.822 226.195 599.037 226.568C599.261 226.932 599.55 227.221 599.905 227.436C600.269 227.641 600.665 227.744 601.095 227.744C601.449 227.744 601.79 227.683 602.117 227.562C602.453 227.431 602.737 227.259 602.971 227.044L603.615 227.73C603.223 228.038 602.817 228.267 602.397 228.416C601.977 228.565 601.529 228.64 601.053 228.64ZM598.687 224.58H603.013C602.966 224.169 602.84 223.805 602.635 223.488C602.439 223.161 602.187 222.905 601.879 222.718C601.58 222.531 601.244 222.438 600.871 222.438C600.497 222.438 600.157 222.531 599.849 222.718C599.541 222.895 599.284 223.147 599.079 223.474C598.883 223.791 598.752 224.16 598.687 224.58Z" fill="#151515"/>
<path d="M742.292 226.936C743.42 226.936 744.333 227.844 744.333 228.968C744.333 230.091 743.42 231 742.292 231C741.163 231 740.25 230.091 740.25 228.968C740.25 227.844 741.163 226.936 742.292 226.936ZM742.292 221.968C743.42 221.968 744.333 222.877 744.333 224C744.333 225.123 743.42 226.032 742.292 226.032C741.163 226.032 740.25 225.123 740.25 224C740.25 222.877 741.163 221.968 742.292 221.968ZM742.292 217C743.42 217 744.333 217.909 744.333 219.032C744.333 220.156 743.42 221.064 742.292 221.064C741.163 221.064 740.25 220.156 740.25 219.032C740.25 217.909 741.163 217 742.292 217Z" fill="#1F1F1F"/>
</g>
<defs>
<clipPath id="clip0_1811_36991">
<rect width="782" height="256" fill="white"/>
</clipPath>
</defs>
</svg>
