<svg width="465" height="380" viewBox="0 0 465 380" fill="none" xmlns="http://www.w3.org/2000/svg">
<g clip-path="url(#clip0_1767_143955)">
<rect width="465" height="380" fill="#F2F2F2"/>
<g filter="url(#filter0_d_1767_143955)">
<path d="M40 48C40 34.7452 50.7452 24 64 24H401C414.255 24 425 34.7452 425 48V332C425 345.255 414.255 356 401 356H64C50.7452 356 40 345.255 40 332V48Z" fill="white"/>
<path d="M73.42 81.5V67.5H75.52V79.64H83.58V81.5H73.42ZM88.6852 81.68C87.9518 81.68 87.3052 81.5533 86.7452 81.3C86.1852 81.0333 85.7452 80.6667 85.4252 80.2C85.1052 79.7333 84.9452 79.1933 84.9452 78.58C84.9452 77.62 85.3118 76.8667 86.0452 76.32C86.7785 75.76 87.7852 75.48 89.0652 75.48C90.0652 75.48 90.9918 75.6733 91.8452 76.06V74.98C91.8452 73.5267 91.0185 72.8 89.3652 72.8C88.8985 72.8 88.4118 72.8733 87.9052 73.02C87.3985 73.1533 86.8318 73.3667 86.2052 73.66L85.4652 72.16C86.2385 71.8 86.9585 71.54 87.6252 71.38C88.2918 71.2067 88.9652 71.12 89.6452 71.12C90.9652 71.12 91.9852 71.4333 92.7052 72.06C93.4385 72.6867 93.8052 73.58 93.8052 74.74V81.5H91.8452V80.62C91.3918 80.98 90.9052 81.2467 90.3852 81.42C89.8652 81.5933 89.2985 81.68 88.6852 81.68ZM86.8652 78.54C86.8652 79.0333 87.0718 79.4333 87.4852 79.74C87.9118 80.0467 88.4652 80.2 89.1452 80.2C90.2385 80.2 91.1385 79.8733 91.8452 79.22V77.5C91.1118 77.0733 90.2385 76.86 89.2252 76.86C88.4918 76.86 87.9118 77.0133 87.4852 77.32C87.0718 77.6133 86.8652 78.02 86.8652 78.54ZM96.1097 81.5V67.5L98.1097 67.12V72.28C98.963 71.5333 99.9964 71.16 101.21 71.16C102.17 71.16 103.036 71.3933 103.81 71.86C104.596 72.3267 105.216 72.9533 105.67 73.74C106.123 74.5267 106.35 75.4133 106.35 76.4C106.35 77.3867 106.116 78.28 105.65 79.08C105.196 79.8667 104.576 80.4933 103.79 80.96C103.016 81.4267 102.143 81.66 101.17 81.66C100.023 81.66 98.9964 81.3133 98.0897 80.62V81.5H96.1097ZM100.95 79.92C101.603 79.92 102.183 79.7667 102.69 79.46C103.21 79.1533 103.623 78.74 103.93 78.22C104.236 77.6867 104.39 77.0867 104.39 76.42C104.39 75.7533 104.236 75.1533 103.93 74.62C103.623 74.0867 103.21 73.6667 102.69 73.36C102.183 73.0533 101.603 72.9 100.95 72.9C100.376 72.9 99.843 73.0067 99.3497 73.22C98.8564 73.4333 98.443 73.7333 98.1097 74.12V78.72C98.443 79.0933 98.8564 79.3867 99.3497 79.6C99.8564 79.8133 100.39 79.92 100.95 79.92ZM113.138 81.68C112.138 81.68 111.231 81.4467 110.418 80.98C109.618 80.5133 108.978 79.88 108.498 79.08C108.031 78.28 107.798 77.3867 107.798 76.4C107.798 75.4267 108.025 74.5467 108.478 73.76C108.931 72.96 109.545 72.3267 110.318 71.86C111.091 71.38 111.951 71.14 112.898 71.14C113.845 71.14 114.685 71.38 115.418 71.86C116.151 72.3267 116.731 72.9667 117.158 73.78C117.598 74.58 117.818 75.4867 117.818 76.5V77.06H109.798C109.905 77.62 110.111 78.12 110.418 78.56C110.738 79 111.138 79.3467 111.618 79.6C112.111 79.8533 112.645 79.98 113.218 79.98C113.711 79.98 114.185 79.9067 114.638 79.76C115.105 79.6 115.491 79.3733 115.798 79.08L117.078 80.34C116.478 80.7933 115.858 81.1333 115.218 81.36C114.591 81.5733 113.898 81.68 113.138 81.68ZM109.818 75.56H115.838C115.758 75.0267 115.571 74.56 115.278 74.16C114.998 73.7467 114.645 73.4267 114.218 73.2C113.805 72.96 113.351 72.84 112.858 72.84C112.085 72.84 111.418 73.0933 110.858 73.6C110.311 74.0933 109.965 74.7467 109.818 75.56ZM119.723 81.5V67.5L121.723 67.12V81.5H119.723ZM127.578 81.7C126.698 81.7 125.872 81.5733 125.098 81.32C124.338 81.0533 123.678 80.68 123.118 80.2L124.218 78.88C124.738 79.2933 125.272 79.6133 125.818 79.84C126.378 80.0533 126.945 80.16 127.518 80.16C128.238 80.16 128.825 80.02 129.278 79.74C129.732 79.46 129.958 79.0933 129.958 78.64C129.958 77.92 129.412 77.48 128.318 77.32L126.478 77.06C125.465 76.9133 124.705 76.6 124.198 76.12C123.692 75.64 123.438 75 123.438 74.2C123.438 73.5867 123.605 73.0533 123.938 72.6C124.272 72.1333 124.738 71.7733 125.338 71.52C125.938 71.2533 126.638 71.12 127.438 71.12C128.172 71.12 128.878 71.2267 129.558 71.44C130.238 71.6533 130.892 71.9867 131.518 72.44L130.498 73.76C129.392 73.04 128.318 72.68 127.278 72.68C126.665 72.68 126.172 72.8133 125.798 73.08C125.425 73.3333 125.238 73.6667 125.238 74.08C125.238 74.4533 125.365 74.7467 125.618 74.96C125.885 75.16 126.318 75.3 126.918 75.38L128.758 75.64C129.772 75.7867 130.538 76.1 131.058 76.58C131.578 77.0467 131.838 77.68 131.838 78.48C131.838 79.0933 131.652 79.6467 131.278 80.14C130.905 80.62 130.398 81 129.758 81.28C129.118 81.56 128.392 81.7 127.578 81.7Z" fill="#151515"/>
<path d="M391.382 70.085C391.718 69.7492 392.263 69.7492 392.599 70.085L393.206 70.6934C393.542 71.0294 393.542 71.5734 393.206 71.9092L390.47 74.6455L393.206 77.3818C393.542 77.7179 393.542 78.2628 393.206 78.5986L392.599 79.2061C392.263 79.5418 391.717 79.5418 391.382 79.2061L388.645 76.4697L385.909 79.2061C385.573 79.5418 385.029 79.5418 384.693 79.2061L384.085 78.5986C383.749 78.2626 383.749 77.7176 384.085 77.3818L386.821 74.6455L384.085 71.9092C383.749 71.5731 383.749 71.0291 384.085 70.6934L384.693 70.085C385.029 69.7494 385.573 69.7495 385.909 70.085L388.645 72.8213L391.382 70.085Z" fill="#1F1F1F"/>
<path d="M75.78 124V115.152H72.392V114.2H80.246V115.152H76.858V124H75.78ZM81.6906 124V113.892L82.7126 113.682V118.274C82.974 117.863 83.2866 117.56 83.6506 117.364C84.0146 117.159 84.4253 117.056 84.8826 117.056C85.3773 117.056 85.8066 117.163 86.1706 117.378C86.544 117.583 86.8333 117.877 87.0386 118.26C87.2533 118.633 87.3606 119.072 87.3606 119.576V124H86.3386V119.87C86.3386 119.263 86.1706 118.787 85.8346 118.442C85.508 118.087 85.0646 117.91 84.5046 117.91C84.1313 117.91 83.7906 117.999 83.4826 118.176C83.1746 118.353 82.918 118.615 82.7126 118.96V124H81.6906ZM92.4952 124.14C91.8606 124.14 91.2866 123.986 90.7732 123.678C90.2599 123.361 89.8539 122.936 89.5552 122.404C89.2566 121.863 89.1072 121.256 89.1072 120.584C89.1072 119.912 89.2472 119.31 89.5272 118.778C89.8166 118.246 90.2039 117.826 90.6892 117.518C91.1746 117.21 91.7159 117.056 92.3132 117.056C92.9199 117.056 93.4566 117.21 93.9232 117.518C94.3992 117.817 94.7726 118.227 95.0432 118.75C95.3232 119.263 95.4632 119.847 95.4632 120.5V120.808H90.1012C90.1386 121.275 90.2646 121.695 90.4792 122.068C90.7032 122.432 90.9926 122.721 91.3472 122.936C91.7112 123.141 92.1079 123.244 92.5372 123.244C92.8919 123.244 93.2326 123.183 93.5592 123.062C93.8952 122.931 94.1799 122.759 94.4132 122.544L95.0572 123.23C94.6652 123.538 94.2592 123.767 93.8392 123.916C93.4192 124.065 92.9712 124.14 92.4952 124.14ZM90.1292 120.08H94.4552C94.4086 119.669 94.2826 119.305 94.0772 118.988C93.8812 118.661 93.6292 118.405 93.3212 118.218C93.0226 118.031 92.6866 117.938 92.3132 117.938C91.9399 117.938 91.5992 118.031 91.2912 118.218C90.9832 118.395 90.7266 118.647 90.5212 118.974C90.3252 119.291 90.1946 119.66 90.1292 120.08ZM101.344 124V118.008H99.8178V117.168H101.344V115.74C101.344 115.068 101.521 114.55 101.876 114.186C102.23 113.822 102.734 113.64 103.388 113.64C103.574 113.64 103.742 113.649 103.892 113.668C104.05 113.687 104.19 113.719 104.312 113.766V114.69C104.162 114.643 104.027 114.611 103.906 114.592C103.784 114.573 103.644 114.564 103.486 114.564C103.094 114.564 102.809 114.662 102.632 114.858C102.454 115.045 102.366 115.343 102.366 115.754V117.168H104.312V118.008H102.366V124H101.344ZM108.394 124.112C107.76 124.112 107.19 123.958 106.686 123.65C106.182 123.342 105.786 122.922 105.496 122.39C105.207 121.858 105.062 121.256 105.062 120.584C105.062 119.912 105.207 119.31 105.496 118.778C105.786 118.246 106.182 117.826 106.686 117.518C107.19 117.21 107.76 117.056 108.394 117.056C109.02 117.056 109.58 117.21 110.074 117.518C110.578 117.826 110.975 118.246 111.264 118.778C111.554 119.31 111.698 119.912 111.698 120.584C111.698 121.256 111.554 121.858 111.264 122.39C110.975 122.922 110.578 123.342 110.074 123.65C109.58 123.958 109.02 124.112 108.394 124.112ZM108.38 123.216C108.828 123.216 109.225 123.104 109.57 122.88C109.916 122.647 110.186 122.329 110.382 121.928C110.588 121.527 110.69 121.079 110.69 120.584C110.69 120.08 110.588 119.632 110.382 119.24C110.186 118.839 109.916 118.526 109.57 118.302C109.225 118.069 108.828 117.952 108.38 117.952C107.932 117.952 107.536 118.069 107.19 118.302C106.845 118.526 106.57 118.839 106.364 119.24C106.168 119.632 106.07 120.08 106.07 120.584C106.07 121.079 106.168 121.527 106.364 121.928C106.57 122.329 106.845 122.647 107.19 122.88C107.536 123.104 107.932 123.216 108.38 123.216ZM113.491 124V113.892L114.513 113.682V124H113.491ZM116.609 124V113.892L117.631 113.682V124H116.609ZM122.75 124.112C122.115 124.112 121.546 123.958 121.042 123.65C120.538 123.342 120.141 122.922 119.852 122.39C119.562 121.858 119.418 121.256 119.418 120.584C119.418 119.912 119.562 119.31 119.852 118.778C120.141 118.246 120.538 117.826 121.042 117.518C121.546 117.21 122.115 117.056 122.75 117.056C123.375 117.056 123.935 117.21 124.43 117.518C124.934 117.826 125.33 118.246 125.62 118.778C125.909 119.31 126.054 119.912 126.054 120.584C126.054 121.256 125.909 121.858 125.62 122.39C125.33 122.922 124.934 123.342 124.43 123.65C123.935 123.958 123.375 124.112 122.75 124.112ZM122.736 123.216C123.184 123.216 123.58 123.104 123.926 122.88C124.271 122.647 124.542 122.329 124.738 121.928C124.943 121.527 125.046 121.079 125.046 120.584C125.046 120.08 124.943 119.632 124.738 119.24C124.542 118.839 124.271 118.526 123.926 118.302C123.58 118.069 123.184 117.952 122.736 117.952C122.288 117.952 121.891 118.069 121.546 118.302C121.2 118.526 120.925 118.839 120.72 119.24C120.524 119.632 120.426 120.08 120.426 120.584C120.426 121.079 120.524 121.527 120.72 121.928C120.925 122.329 121.2 122.647 121.546 122.88C121.891 123.104 122.288 123.216 122.736 123.216ZM128.928 124L127.052 117.168H128.046L129.474 122.628L131.112 117.168H132.022L133.66 122.628L135.074 117.168H136.04L134.178 124H133.184L131.56 118.484L129.936 124H128.928ZM137.472 124V117.168H138.494V124H137.472ZM137.99 115.474C137.784 115.474 137.607 115.404 137.458 115.264C137.318 115.115 137.248 114.942 137.248 114.746C137.248 114.55 137.318 114.382 137.458 114.242C137.607 114.093 137.784 114.018 137.99 114.018C138.195 114.018 138.368 114.093 138.508 114.242C138.657 114.382 138.732 114.55 138.732 114.746C138.732 114.942 138.657 115.115 138.508 115.264C138.368 115.404 138.195 115.474 137.99 115.474ZM140.589 124V117.168H141.611V118.274C141.872 117.863 142.185 117.56 142.549 117.364C142.913 117.159 143.324 117.056 143.781 117.056C144.276 117.056 144.705 117.163 145.069 117.378C145.442 117.583 145.732 117.877 145.937 118.26C146.152 118.633 146.259 119.072 146.259 119.576V124H145.237V119.87C145.237 119.263 145.069 118.787 144.733 118.442C144.406 118.087 143.963 117.91 143.403 117.91C143.03 117.91 142.689 117.999 142.381 118.176C142.073 118.353 141.816 118.615 141.611 118.96V124H140.589ZM151.478 127.066C151.02 127.066 150.558 127.001 150.092 126.87C149.634 126.749 149.21 126.576 148.818 126.352L149.252 125.568C149.672 125.783 150.054 125.941 150.4 126.044C150.745 126.147 151.09 126.198 151.436 126.198C152.061 126.198 152.532 126.049 152.85 125.75C153.176 125.451 153.34 125.017 153.34 124.448V123.076C153.078 123.403 152.761 123.655 152.388 123.832C152.014 124 151.604 124.084 151.156 124.084C150.568 124.084 150.036 123.93 149.56 123.622C149.084 123.305 148.706 122.885 148.426 122.362C148.146 121.83 148.006 121.237 148.006 120.584C148.006 119.931 148.146 119.343 148.426 118.82C148.715 118.288 149.102 117.868 149.588 117.56C150.073 117.243 150.614 117.084 151.212 117.084C151.641 117.084 152.038 117.168 152.402 117.336C152.766 117.495 153.083 117.733 153.354 118.05V117.168H154.362V124.434C154.362 125.283 154.114 125.932 153.62 126.38C153.125 126.837 152.411 127.066 151.478 127.066ZM151.408 123.202C151.809 123.202 152.178 123.123 152.514 122.964C152.85 122.796 153.125 122.567 153.34 122.278V118.904C153.116 118.615 152.831 118.391 152.486 118.232C152.15 118.064 151.79 117.98 151.408 117.98C150.95 117.98 150.54 118.092 150.176 118.316C149.821 118.54 149.536 118.848 149.322 119.24C149.116 119.632 149.014 120.08 149.014 120.584C149.014 121.079 149.116 121.527 149.322 121.928C149.536 122.32 149.821 122.633 150.176 122.866C150.54 123.09 150.95 123.202 151.408 123.202ZM161.844 124.126C161.358 124.126 160.929 124.037 160.556 123.86C160.182 123.683 159.888 123.44 159.674 123.132C159.468 122.815 159.366 122.451 159.366 122.04C159.366 121.629 159.473 121.275 159.688 120.976C159.902 120.668 160.201 120.43 160.584 120.262C160.966 120.094 161.414 120.01 161.928 120.01C162.32 120.01 162.688 120.052 163.034 120.136C163.388 120.22 163.715 120.355 164.014 120.542V119.604C164.014 119.044 163.864 118.624 163.566 118.344C163.267 118.055 162.828 117.91 162.25 117.91C161.932 117.91 161.606 117.957 161.27 118.05C160.943 118.143 160.579 118.293 160.178 118.498L159.8 117.714C160.714 117.275 161.573 117.056 162.376 117.056C163.225 117.056 163.878 117.266 164.336 117.686C164.793 118.097 165.022 118.689 165.022 119.464V124H164.014V123.202C163.715 123.51 163.384 123.743 163.02 123.902C162.656 124.051 162.264 124.126 161.844 124.126ZM160.346 122.012C160.346 122.413 160.5 122.735 160.808 122.978C161.125 123.221 161.54 123.342 162.054 123.342C162.436 123.342 162.786 123.277 163.104 123.146C163.43 123.015 163.734 122.819 164.014 122.558V121.242C163.724 121.074 163.426 120.953 163.118 120.878C162.81 120.794 162.464 120.752 162.082 120.752C161.559 120.752 161.139 120.869 160.822 121.102C160.504 121.326 160.346 121.629 160.346 122.012ZM167.099 124V117.168H168.121V118.568C168.298 118.092 168.55 117.723 168.877 117.462C169.213 117.191 169.595 117.056 170.025 117.056C170.146 117.056 170.258 117.065 170.361 117.084C170.463 117.093 170.566 117.117 170.669 117.154V118.078C170.557 118.041 170.435 118.013 170.305 117.994C170.183 117.966 170.067 117.952 169.955 117.952C169.535 117.952 169.166 118.073 168.849 118.316C168.541 118.559 168.298 118.899 168.121 119.338V124H167.099ZM174.677 124.14C174.042 124.14 173.468 123.986 172.955 123.678C172.442 123.361 172.036 122.936 171.737 122.404C171.438 121.863 171.289 121.256 171.289 120.584C171.289 119.912 171.429 119.31 171.709 118.778C171.998 118.246 172.386 117.826 172.871 117.518C173.356 117.21 173.898 117.056 174.495 117.056C175.102 117.056 175.638 117.21 176.105 117.518C176.581 117.817 176.954 118.227 177.225 118.75C177.505 119.263 177.645 119.847 177.645 120.5V120.808H172.283C172.32 121.275 172.446 121.695 172.661 122.068C172.885 122.432 173.174 122.721 173.529 122.936C173.893 123.141 174.29 123.244 174.719 123.244C175.074 123.244 175.414 123.183 175.741 123.062C176.077 122.931 176.362 122.759 176.595 122.544L177.239 123.23C176.847 123.538 176.441 123.767 176.021 123.916C175.601 124.065 175.153 124.14 174.677 124.14ZM172.311 120.08H176.637C176.59 119.669 176.464 119.305 176.259 118.988C176.063 118.661 175.811 118.405 175.503 118.218C175.204 118.031 174.868 117.938 174.495 117.938C174.122 117.938 173.781 118.031 173.473 118.218C173.165 118.395 172.908 118.647 172.703 118.974C172.507 119.291 172.376 119.66 172.311 120.08ZM184.771 124.126C184.286 124.126 183.857 124.037 183.483 123.86C183.11 123.683 182.816 123.44 182.601 123.132C182.396 122.815 182.293 122.451 182.293 122.04C182.293 121.629 182.401 121.275 182.615 120.976C182.83 120.668 183.129 120.43 183.511 120.262C183.894 120.094 184.342 120.01 184.855 120.01C185.247 120.01 185.616 120.052 185.961 120.136C186.316 120.22 186.643 120.355 186.941 120.542V119.604C186.941 119.044 186.792 118.624 186.493 118.344C186.195 118.055 185.756 117.91 185.177 117.91C184.86 117.91 184.533 117.957 184.197 118.05C183.871 118.143 183.507 118.293 183.105 118.498L182.727 117.714C183.642 117.275 184.501 117.056 185.303 117.056C186.153 117.056 186.806 117.266 187.263 117.686C187.721 118.097 187.949 118.689 187.949 119.464V124H186.941V123.202C186.643 123.51 186.311 123.743 185.947 123.902C185.583 124.051 185.191 124.126 184.771 124.126ZM183.273 122.012C183.273 122.413 183.427 122.735 183.735 122.978C184.053 123.221 184.468 123.342 184.981 123.342C185.364 123.342 185.714 123.277 186.031 123.146C186.358 123.015 186.661 122.819 186.941 122.558V121.242C186.652 121.074 186.353 120.953 186.045 120.878C185.737 120.794 185.392 120.752 185.009 120.752C184.487 120.752 184.067 120.869 183.749 121.102C183.432 121.326 183.273 121.629 183.273 122.012ZM190.027 124V113.892L191.049 113.682V124H190.027ZM193.144 124V113.892L194.166 113.682V124H193.144ZM202.133 124.14C201.545 124.14 201.097 124 200.789 123.72C200.49 123.431 200.341 123.015 200.341 122.474V118.008H198.927V117.168H200.341V115.292L201.363 115.054V117.168H203.323V118.008H201.363V122.208C201.363 122.572 201.437 122.833 201.587 122.992C201.745 123.151 202.002 123.23 202.357 123.23C202.534 123.23 202.693 123.216 202.833 123.188C202.973 123.16 203.136 123.113 203.323 123.048V123.958C203.136 124.023 202.94 124.07 202.735 124.098C202.529 124.126 202.329 124.14 202.133 124.14ZM204.82 124V113.892L205.842 113.682V118.274C206.103 117.863 206.416 117.56 206.78 117.364C207.144 117.159 207.554 117.056 208.012 117.056C208.506 117.056 208.936 117.163 209.3 117.378C209.673 117.583 209.962 117.877 210.168 118.26C210.382 118.633 210.49 119.072 210.49 119.576V124H209.468V119.87C209.468 119.263 209.3 118.787 208.964 118.442C208.637 118.087 208.194 117.91 207.634 117.91C207.26 117.91 206.92 117.999 206.612 118.176C206.304 118.353 206.047 118.615 205.842 118.96V124H204.82ZM215.624 124.14C214.989 124.14 214.415 123.986 213.902 123.678C213.389 123.361 212.983 122.936 212.684 122.404C212.385 121.863 212.236 121.256 212.236 120.584C212.236 119.912 212.376 119.31 212.656 118.778C212.945 118.246 213.333 117.826 213.818 117.518C214.303 117.21 214.845 117.056 215.442 117.056C216.049 117.056 216.585 117.21 217.052 117.518C217.528 117.817 217.901 118.227 218.172 118.75C218.452 119.263 218.592 119.847 218.592 120.5V120.808H213.23C213.267 121.275 213.393 121.695 213.608 122.068C213.832 122.432 214.121 122.721 214.476 122.936C214.84 123.141 215.237 123.244 215.666 123.244C216.021 123.244 216.361 123.183 216.688 123.062C217.024 122.931 217.309 122.759 217.542 122.544L218.186 123.23C217.794 123.538 217.388 123.767 216.968 123.916C216.548 124.065 216.1 124.14 215.624 124.14ZM213.258 120.08H217.584C217.537 119.669 217.411 119.305 217.206 118.988C217.01 118.661 216.758 118.405 216.45 118.218C216.151 118.031 215.815 117.938 215.442 117.938C215.069 117.938 214.728 118.031 214.42 118.218C214.112 118.395 213.855 118.647 213.65 118.974C213.454 119.291 213.323 119.66 213.258 120.08ZM223.605 124V113.892L224.627 113.682V124H223.605ZM228.836 124.126C228.351 124.126 227.921 124.037 227.548 123.86C227.175 123.683 226.881 123.44 226.666 123.132C226.461 122.815 226.358 122.451 226.358 122.04C226.358 121.629 226.465 121.275 226.68 120.976C226.895 120.668 227.193 120.43 227.576 120.262C227.959 120.094 228.407 120.01 228.92 120.01C229.312 120.01 229.681 120.052 230.026 120.136C230.381 120.22 230.707 120.355 231.006 120.542V119.604C231.006 119.044 230.857 118.624 230.558 118.344C230.259 118.055 229.821 117.91 229.242 117.91C228.925 117.91 228.598 117.957 228.262 118.05C227.935 118.143 227.571 118.293 227.17 118.498L226.792 117.714C227.707 117.275 228.565 117.056 229.368 117.056C230.217 117.056 230.871 117.266 231.328 117.686C231.785 118.097 232.014 118.689 232.014 119.464V124H231.006V123.202C230.707 123.51 230.376 123.743 230.012 123.902C229.648 124.051 229.256 124.126 228.836 124.126ZM227.338 122.012C227.338 122.413 227.492 122.735 227.8 122.978C228.117 123.221 228.533 123.342 229.046 123.342C229.429 123.342 229.779 123.277 230.096 123.146C230.423 123.015 230.726 122.819 231.006 122.558V121.242C230.717 121.074 230.418 120.953 230.11 120.878C229.802 120.794 229.457 120.752 229.074 120.752C228.551 120.752 228.131 120.869 227.814 121.102C227.497 121.326 227.338 121.629 227.338 122.012ZM234.091 124V113.99L235.113 113.78V118.106C235.374 117.779 235.692 117.527 236.065 117.35C236.438 117.173 236.854 117.084 237.311 117.084C237.908 117.084 238.44 117.243 238.907 117.56C239.383 117.868 239.761 118.288 240.041 118.82C240.321 119.343 240.461 119.931 240.461 120.584C240.461 121.237 240.316 121.83 240.027 122.362C239.747 122.894 239.364 123.319 238.879 123.636C238.403 123.944 237.862 124.098 237.255 124.098C236.826 124.098 236.424 124.014 236.051 123.846C235.687 123.669 235.37 123.421 235.099 123.104V124H234.091ZM237.059 123.216C237.516 123.216 237.922 123.104 238.277 122.88C238.641 122.647 238.926 122.334 239.131 121.942C239.346 121.541 239.453 121.093 239.453 120.598C239.453 120.094 239.346 119.646 239.131 119.254C238.926 118.862 238.641 118.554 238.277 118.33C237.922 118.097 237.516 117.98 237.059 117.98C236.658 117.98 236.284 118.064 235.939 118.232C235.603 118.391 235.328 118.619 235.113 118.918V122.264C235.337 122.563 235.617 122.796 235.953 122.964C236.298 123.132 236.667 123.216 237.059 123.216ZM245.333 124.14C244.698 124.14 244.124 123.986 243.611 123.678C243.098 123.361 242.692 122.936 242.393 122.404C242.094 121.863 241.945 121.256 241.945 120.584C241.945 119.912 242.085 119.31 242.365 118.778C242.654 118.246 243.042 117.826 243.527 117.518C244.012 117.21 244.554 117.056 245.151 117.056C245.758 117.056 246.294 117.21 246.761 117.518C247.237 117.817 247.61 118.227 247.881 118.75C248.161 119.263 248.301 119.847 248.301 120.5V120.808H242.939C242.976 121.275 243.102 121.695 243.317 122.068C243.541 122.432 243.83 122.721 244.185 122.936C244.549 123.141 244.946 123.244 245.375 123.244C245.73 123.244 246.07 123.183 246.397 123.062C246.733 122.931 247.018 122.759 247.251 122.544L247.895 123.23C247.503 123.538 247.097 123.767 246.677 123.916C246.257 124.065 245.809 124.14 245.333 124.14ZM242.967 120.08H247.293C247.246 119.669 247.12 119.305 246.915 118.988C246.719 118.661 246.467 118.405 246.159 118.218C245.86 118.031 245.524 117.938 245.151 117.938C244.778 117.938 244.437 118.031 244.129 118.218C243.821 118.395 243.564 118.647 243.359 118.974C243.163 119.291 243.032 119.66 242.967 120.08ZM250.046 124V113.892L251.068 113.682V124H250.046ZM255.277 124.14C254.717 124.14 254.199 124.056 253.723 123.888C253.247 123.711 252.841 123.459 252.505 123.132L253.051 122.46C253.462 122.759 253.84 122.978 254.185 123.118C254.531 123.249 254.885 123.314 255.249 123.314C255.744 123.314 256.155 123.197 256.481 122.964C256.808 122.731 256.971 122.432 256.971 122.068C256.971 121.788 256.873 121.569 256.677 121.41C256.491 121.251 256.178 121.13 255.739 121.046L254.619 120.85C253.957 120.729 253.467 120.523 253.149 120.234C252.841 119.945 252.687 119.553 252.687 119.058C252.687 118.666 252.79 118.321 252.995 118.022C253.21 117.723 253.504 117.49 253.877 117.322C254.251 117.145 254.675 117.056 255.151 117.056C255.618 117.056 256.061 117.126 256.481 117.266C256.901 117.397 257.326 117.611 257.755 117.91L257.251 118.624C256.897 118.372 256.542 118.19 256.187 118.078C255.833 117.957 255.473 117.896 255.109 117.896C254.661 117.896 254.302 117.994 254.031 118.19C253.761 118.386 253.625 118.652 253.625 118.988C253.625 119.268 253.709 119.483 253.877 119.632C254.055 119.781 254.363 119.893 254.801 119.968L255.949 120.178C256.64 120.299 257.144 120.509 257.461 120.808C257.779 121.107 257.937 121.508 257.937 122.012C257.937 122.413 257.821 122.777 257.587 123.104C257.354 123.421 257.037 123.673 256.635 123.86C256.234 124.047 255.781 124.14 255.277 124.14ZM265.785 124.112C265.15 124.112 264.581 123.958 264.077 123.65C263.573 123.342 263.176 122.922 262.887 122.39C262.598 121.858 262.453 121.256 262.453 120.584C262.453 119.912 262.598 119.31 262.887 118.778C263.176 118.246 263.573 117.826 264.077 117.518C264.581 117.21 265.15 117.056 265.785 117.056C266.41 117.056 266.97 117.21 267.465 117.518C267.969 117.826 268.366 118.246 268.655 118.778C268.944 119.31 269.089 119.912 269.089 120.584C269.089 121.256 268.944 121.858 268.655 122.39C268.366 122.922 267.969 123.342 267.465 123.65C266.97 123.958 266.41 124.112 265.785 124.112ZM265.771 123.216C266.219 123.216 266.616 123.104 266.961 122.88C267.306 122.647 267.577 122.329 267.773 121.928C267.978 121.527 268.081 121.079 268.081 120.584C268.081 120.08 267.978 119.632 267.773 119.24C267.577 118.839 267.306 118.526 266.961 118.302C266.616 118.069 266.219 117.952 265.771 117.952C265.323 117.952 264.926 118.069 264.581 118.302C264.236 118.526 263.96 118.839 263.755 119.24C263.559 119.632 263.461 120.08 263.461 120.584C263.461 121.079 263.559 121.527 263.755 121.928C263.96 122.329 264.236 122.647 264.581 122.88C264.926 123.104 265.323 123.216 265.771 123.216ZM270.882 124V117.168H271.904V118.274C272.165 117.863 272.478 117.56 272.842 117.364C273.206 117.159 273.617 117.056 274.074 117.056C274.569 117.056 274.998 117.163 275.362 117.378C275.735 117.583 276.025 117.877 276.23 118.26C276.445 118.633 276.552 119.072 276.552 119.576V124H275.53V119.87C275.53 119.263 275.362 118.787 275.026 118.442C274.699 118.087 274.256 117.91 273.696 117.91C273.323 117.91 272.982 117.999 272.674 118.176C272.366 118.353 272.109 118.615 271.904 118.96V124H270.882ZM285.066 124.14C284.394 124.14 283.788 123.981 283.246 123.664C282.705 123.337 282.276 122.903 281.958 122.362C281.641 121.811 281.482 121.191 281.482 120.5C281.482 119.809 281.632 119.193 281.93 118.652C282.229 118.111 282.635 117.681 283.148 117.364C283.671 117.037 284.25 116.874 284.884 116.874C285.538 116.874 286.112 117.033 286.606 117.35C287.11 117.667 287.502 118.097 287.782 118.638C288.072 119.179 288.216 119.8 288.216 120.5V120.878H283.036C283.092 121.261 283.214 121.601 283.4 121.9C283.596 122.189 283.844 122.418 284.142 122.586C284.45 122.754 284.782 122.838 285.136 122.838C285.463 122.838 285.771 122.782 286.06 122.67C286.359 122.549 286.606 122.385 286.802 122.18L287.838 123.118C287.409 123.473 286.97 123.734 286.522 123.902C286.084 124.061 285.598 124.14 285.066 124.14ZM283.05 119.898H286.718C286.662 119.562 286.546 119.263 286.368 119.002C286.2 118.741 285.986 118.535 285.724 118.386C285.472 118.237 285.192 118.162 284.884 118.162C284.576 118.162 284.292 118.237 284.03 118.386C283.778 118.526 283.568 118.727 283.4 118.988C283.232 119.249 283.116 119.553 283.05 119.898ZM288.566 124L291.212 120.388L288.678 116.986H290.54L292.178 119.296L293.816 116.986H295.594L293.032 120.43L295.706 124H293.858L292.094 121.55L290.33 124H288.566ZM298.78 124.126C298.295 124.126 297.861 124.037 297.478 123.86C297.105 123.673 296.811 123.421 296.596 123.104C296.391 122.777 296.288 122.404 296.288 121.984C296.288 121.564 296.395 121.2 296.61 120.892C296.834 120.584 297.147 120.346 297.548 120.178C297.949 120.01 298.425 119.926 298.976 119.926C299.303 119.926 299.625 119.963 299.942 120.038C300.259 120.103 300.567 120.215 300.866 120.374V119.59C300.866 119.123 300.731 118.773 300.46 118.54C300.199 118.307 299.797 118.19 299.256 118.19C298.967 118.19 298.654 118.237 298.318 118.33C297.991 118.414 297.623 118.549 297.212 118.736L296.652 117.588C297.679 117.112 298.649 116.874 299.564 116.874C300.479 116.874 301.183 117.098 301.678 117.546C302.182 117.985 302.434 118.61 302.434 119.422V124H300.866V123.272C300.567 123.561 300.245 123.776 299.9 123.916C299.555 124.056 299.181 124.126 298.78 124.126ZM297.772 121.956C297.772 122.283 297.903 122.539 298.164 122.726C298.425 122.913 298.775 123.006 299.214 123.006C299.531 123.006 299.825 122.959 300.096 122.866C300.376 122.763 300.633 122.614 300.866 122.418V121.284C300.623 121.172 300.371 121.088 300.11 121.032C299.849 120.976 299.564 120.948 299.256 120.948C298.799 120.948 298.435 121.037 298.164 121.214C297.903 121.391 297.772 121.639 297.772 121.956ZM304.349 124V116.986H305.931V118.092C306.192 117.691 306.496 117.387 306.841 117.182C307.196 116.977 307.583 116.874 308.003 116.874C308.488 116.874 308.908 116.995 309.263 117.238C309.627 117.481 309.898 117.807 310.075 118.218C310.355 117.779 310.686 117.448 311.069 117.224C311.461 116.991 311.904 116.874 312.399 116.874C312.847 116.874 313.244 116.981 313.589 117.196C313.944 117.411 314.214 117.709 314.401 118.092C314.597 118.475 314.695 118.913 314.695 119.408V124H313.113V119.758C313.113 119.263 312.987 118.871 312.735 118.582C312.483 118.293 312.138 118.148 311.699 118.148C311.419 118.148 311.158 118.218 310.915 118.358C310.682 118.498 310.476 118.708 310.299 118.988C310.308 119.053 310.313 119.123 310.313 119.198C310.322 119.263 310.327 119.333 310.327 119.408V124H308.731V119.758C308.731 119.263 308.605 118.871 308.353 118.582C308.101 118.293 307.756 118.148 307.317 118.148C306.748 118.148 306.286 118.419 305.931 118.96V124H304.349ZM316.613 126.926V116.986H318.167V117.98C318.419 117.644 318.731 117.387 319.105 117.21C319.487 117.023 319.903 116.93 320.351 116.93C320.948 116.93 321.485 117.089 321.961 117.406C322.437 117.723 322.815 118.153 323.095 118.694C323.375 119.235 323.515 119.837 323.515 120.5C323.515 121.163 323.37 121.765 323.081 122.306C322.791 122.847 322.399 123.277 321.905 123.594C321.41 123.911 320.859 124.07 320.253 124.07C319.833 124.07 319.445 123.995 319.091 123.846C318.745 123.687 318.447 123.463 318.195 123.174V126.926H316.613ZM319.875 122.754C320.276 122.754 320.631 122.656 320.939 122.46C321.256 122.264 321.503 121.998 321.681 121.662C321.867 121.317 321.961 120.929 321.961 120.5C321.961 120.071 321.867 119.688 321.681 119.352C321.503 119.016 321.256 118.75 320.939 118.554C320.631 118.358 320.276 118.26 319.875 118.26C319.529 118.26 319.212 118.33 318.923 118.47C318.633 118.601 318.391 118.792 318.195 119.044V121.97C318.4 122.213 318.647 122.404 318.937 122.544C319.226 122.684 319.539 122.754 319.875 122.754ZM325.171 124V113.962L326.753 113.682V124H325.171ZM331.961 124.14C331.289 124.14 330.682 123.981 330.141 123.664C329.599 123.337 329.17 122.903 328.853 122.362C328.535 121.811 328.377 121.191 328.377 120.5C328.377 119.809 328.526 119.193 328.825 118.652C329.123 118.111 329.529 117.681 330.043 117.364C330.565 117.037 331.144 116.874 331.779 116.874C332.432 116.874 333.006 117.033 333.501 117.35C334.005 117.667 334.397 118.097 334.677 118.638C334.966 119.179 335.111 119.8 335.111 120.5V120.878H329.931C329.987 121.261 330.108 121.601 330.295 121.9C330.491 122.189 330.738 122.418 331.037 122.586C331.345 122.754 331.676 122.838 332.031 122.838C332.357 122.838 332.665 122.782 332.955 122.67C333.253 122.549 333.501 122.385 333.697 122.18L334.733 123.118C334.303 123.473 333.865 123.734 333.417 123.902C332.978 124.061 332.493 124.14 331.961 124.14ZM329.945 119.898H333.613C333.557 119.562 333.44 119.263 333.263 119.002C333.095 118.741 332.88 118.535 332.619 118.386C332.367 118.237 332.087 118.162 331.779 118.162C331.471 118.162 331.186 118.237 330.925 118.386C330.673 118.526 330.463 118.727 330.295 118.988C330.127 119.249 330.01 119.553 329.945 119.898ZM336.597 120.696V119.352H341.483V120.696H336.597ZM343.259 126.926V116.986H344.813V117.98C345.065 117.644 345.378 117.387 345.751 117.21C346.134 117.023 346.549 116.93 346.997 116.93C347.595 116.93 348.131 117.089 348.607 117.406C349.083 117.723 349.461 118.153 349.741 118.694C350.021 119.235 350.161 119.837 350.161 120.5C350.161 121.163 350.017 121.765 349.727 122.306C349.438 122.847 349.046 123.277 348.551 123.594C348.057 123.911 347.506 124.07 346.899 124.07C346.479 124.07 346.092 123.995 345.737 123.846C345.392 123.687 345.093 123.463 344.841 123.174V126.926H343.259ZM346.521 122.754C346.923 122.754 347.277 122.656 347.585 122.46C347.903 122.264 348.15 121.998 348.327 121.662C348.514 121.317 348.607 120.929 348.607 120.5C348.607 120.071 348.514 119.688 348.327 119.352C348.15 119.016 347.903 118.75 347.585 118.554C347.277 118.358 346.923 118.26 346.521 118.26C346.176 118.26 345.859 118.33 345.569 118.47C345.28 118.601 345.037 118.792 344.841 119.044V121.97C345.047 122.213 345.294 122.404 345.583 122.544C345.873 122.684 346.185 122.754 346.521 122.754ZM351.818 124V116.986H353.4V118.498C353.605 117.966 353.871 117.56 354.198 117.28C354.525 117 354.903 116.86 355.332 116.86C355.463 116.869 355.579 116.883 355.682 116.902C355.785 116.911 355.897 116.944 356.018 117V118.386C355.897 118.33 355.757 118.288 355.598 118.26C355.449 118.232 355.299 118.218 355.15 118.218C354.767 118.218 354.422 118.321 354.114 118.526C353.815 118.731 353.577 119.016 353.4 119.38V124H351.818ZM360.192 124.126C359.529 124.126 358.927 123.967 358.386 123.65C357.854 123.333 357.434 122.903 357.126 122.362C356.818 121.811 356.664 121.191 356.664 120.5C356.664 119.809 356.818 119.193 357.126 118.652C357.434 118.101 357.854 117.667 358.386 117.35C358.918 117.033 359.52 116.874 360.192 116.874C360.864 116.874 361.461 117.033 361.984 117.35C362.516 117.667 362.936 118.101 363.244 118.652C363.552 119.193 363.706 119.809 363.706 120.5C363.706 121.191 363.552 121.811 363.244 122.362C362.936 122.903 362.516 123.333 361.984 123.65C361.461 123.967 360.864 124.126 360.192 124.126ZM360.192 122.782C360.575 122.782 360.911 122.684 361.2 122.488C361.499 122.292 361.732 122.021 361.9 121.676C362.068 121.321 362.152 120.929 362.152 120.5C362.152 120.061 362.068 119.674 361.9 119.338C361.732 118.993 361.499 118.722 361.2 118.526C360.911 118.321 360.575 118.218 360.192 118.218C359.809 118.218 359.469 118.321 359.17 118.526C358.871 118.722 358.638 118.993 358.47 119.338C358.302 119.674 358.218 120.061 358.218 120.5C358.218 120.939 358.302 121.331 358.47 121.676C358.638 122.021 358.871 122.292 359.17 122.488C359.469 122.684 359.809 122.782 360.192 122.782ZM366.137 115.558C365.867 115.558 365.633 115.465 365.437 115.278C365.241 115.082 365.143 114.853 365.143 114.592C365.143 114.321 365.241 114.093 365.437 113.906C365.633 113.71 365.867 113.612 366.137 113.612C366.408 113.612 366.637 113.71 366.823 113.906C367.019 114.093 367.117 114.317 367.117 114.578C367.117 114.849 367.019 115.082 366.823 115.278C366.637 115.465 366.408 115.558 366.137 115.558ZM364.849 127.066C364.691 127.066 364.532 127.052 364.373 127.024C364.224 127.005 364.098 126.982 363.995 126.954V125.694C364.089 125.713 364.177 125.727 364.261 125.736C364.345 125.745 364.443 125.75 364.555 125.75C364.826 125.75 365.022 125.689 365.143 125.568C365.274 125.447 365.339 125.251 365.339 124.98V116.986H366.921V125.05C366.921 125.685 366.739 126.179 366.375 126.534C366.021 126.889 365.512 127.066 364.849 127.066ZM372.129 124.14C371.457 124.14 370.85 123.981 370.309 123.664C369.767 123.337 369.338 122.903 369.021 122.362C368.703 121.811 368.545 121.191 368.545 120.5C368.545 119.809 368.694 119.193 368.993 118.652C369.291 118.111 369.697 117.681 370.211 117.364C370.733 117.037 371.312 116.874 371.947 116.874C372.6 116.874 373.174 117.033 373.669 117.35C374.173 117.667 374.565 118.097 374.845 118.638C375.134 119.179 375.279 119.8 375.279 120.5V120.878H370.099C370.155 121.261 370.276 121.601 370.463 121.9C370.659 122.189 370.906 122.418 371.205 122.586C371.513 122.754 371.844 122.838 372.199 122.838C372.525 122.838 372.833 122.782 373.123 122.67C373.421 122.549 373.669 122.385 373.865 122.18L374.901 123.118C374.471 123.473 374.033 123.734 373.585 123.902C373.146 124.061 372.661 124.14 372.129 124.14ZM370.113 119.898H373.781C373.725 119.562 373.608 119.263 373.431 119.002C373.263 118.741 373.048 118.535 372.787 118.386C372.535 118.237 372.255 118.162 371.947 118.162C371.639 118.162 371.354 118.237 371.093 118.386C370.841 118.526 370.631 118.727 370.463 118.988C370.295 119.249 370.178 119.553 370.113 119.898ZM380.139 124.126C379.477 124.126 378.875 123.967 378.333 123.65C377.801 123.323 377.377 122.885 377.059 122.334C376.751 121.783 376.597 121.172 376.597 120.5C376.597 119.819 376.751 119.207 377.059 118.666C377.377 118.115 377.801 117.681 378.333 117.364C378.875 117.037 379.477 116.874 380.139 116.874C380.681 116.874 381.194 116.977 381.679 117.182C382.174 117.387 382.594 117.681 382.939 118.064L381.959 119.086C381.717 118.815 381.446 118.61 381.147 118.47C380.849 118.33 380.531 118.26 380.195 118.26C379.813 118.26 379.467 118.363 379.159 118.568C378.861 118.764 378.623 119.03 378.445 119.366C378.268 119.702 378.179 120.08 378.179 120.5C378.179 120.92 378.268 121.303 378.445 121.648C378.623 121.984 378.861 122.25 379.159 122.446C379.467 122.642 379.813 122.74 380.195 122.74C380.531 122.74 380.849 122.67 381.147 122.53C381.446 122.39 381.717 122.189 381.959 121.928L382.939 122.936C382.594 123.319 382.174 123.613 381.679 123.818C381.194 124.023 380.681 124.126 380.139 124.126ZM387.408 124.14C386.699 124.14 386.162 123.977 385.798 123.65C385.434 123.314 385.252 122.824 385.252 122.18V118.246H383.852V116.986H385.252V115.054L386.834 114.718V116.986H388.78V118.246H386.834V121.83C386.834 122.175 386.909 122.423 387.058 122.572C387.208 122.712 387.46 122.782 387.814 122.782C387.973 122.782 388.118 122.773 388.248 122.754C388.388 122.726 388.561 122.679 388.766 122.614V123.944C388.57 124.009 388.346 124.056 388.094 124.084C387.852 124.121 387.623 124.14 387.408 124.14ZM390.951 124.126C390.681 124.126 390.447 124.028 390.251 123.832C390.065 123.627 389.971 123.389 389.971 123.118C389.971 122.829 390.065 122.586 390.251 122.39C390.447 122.194 390.681 122.096 390.951 122.096C391.222 122.096 391.451 122.194 391.637 122.39C391.833 122.586 391.931 122.829 391.931 123.118C391.931 123.389 391.833 123.627 391.637 123.832C391.451 124.028 391.222 124.126 390.951 124.126Z" fill="#151515"/>
<path d="M78 146.5H387C390.038 146.5 392.5 148.962 392.5 152V177C392.5 180.038 390.038 182.5 387 182.5H78C74.9624 182.5 72.5 180.038 72.5 177V152C72.5 148.962 74.9624 146.5 78 146.5Z" fill="white"/>
<path d="M78 146.5H387C390.038 146.5 392.5 148.962 392.5 152V177C392.5 180.038 390.038 182.5 387 182.5H78C74.9624 182.5 72.5 180.038 72.5 177V152C72.5 148.962 74.9624 146.5 78 146.5Z" stroke="#C7C7C7"/>
<path d="M89.6875 158C92.8293 158 95.375 160.546 95.375 163.688C95.375 165.008 94.9265 166.222 94.1719 167.188H94.6172C94.7921 167.188 94.959 167.256 95.082 167.379L97.8086 170.105C98.0627 170.363 98.0626 170.778 97.8057 171.035L97.0322 171.809C96.778 172.066 96.3625 172.065 96.1055 171.809L93.3789 169.082C93.256 168.959 93.1875 168.792 93.1875 168.617V168.172C92.2223 168.927 91.0082 169.375 89.6875 169.375C86.5457 169.375 84 166.829 84 163.688C84 160.546 86.5457 158 89.6875 158ZM89.6875 160.188C87.7516 160.188 86.1875 161.754 86.1875 163.688C86.1875 165.623 87.7543 167.188 89.6875 167.188C91.6234 167.187 93.1875 165.621 93.1875 163.688C93.1875 161.752 91.6207 160.188 89.6875 160.188Z" fill="#1F1F1F"/>
<path d="M110.246 169V159.2H116.938V160.152H111.324V163.652H115.16V164.59H111.324V169H110.246ZM118.376 169V162.168H119.398V169H118.376ZM118.894 160.474C118.689 160.474 118.511 160.404 118.362 160.264C118.222 160.115 118.152 159.942 118.152 159.746C118.152 159.55 118.222 159.382 118.362 159.242C118.511 159.093 118.689 159.018 118.894 159.018C119.099 159.018 119.272 159.093 119.412 159.242C119.561 159.382 119.636 159.55 119.636 159.746C119.636 159.942 119.561 160.115 119.412 160.264C119.272 160.404 119.099 160.474 118.894 160.474ZM121.493 169V162.168H122.515V163.274C122.777 162.863 123.089 162.56 123.453 162.364C123.817 162.159 124.228 162.056 124.685 162.056C125.18 162.056 125.609 162.163 125.973 162.378C126.347 162.583 126.636 162.877 126.841 163.26C127.056 163.633 127.163 164.072 127.163 164.576V169H126.141V164.87C126.141 164.263 125.973 163.787 125.637 163.442C125.311 163.087 124.867 162.91 124.307 162.91C123.934 162.91 123.593 162.999 123.285 163.176C122.977 163.353 122.721 163.615 122.515 163.96V169H121.493ZM132.06 169.098C131.472 169.098 130.94 168.944 130.464 168.636C129.988 168.319 129.61 167.899 129.33 167.376C129.05 166.844 128.91 166.251 128.91 165.598C128.91 164.935 129.05 164.343 129.33 163.82C129.619 163.288 130.007 162.868 130.492 162.56C130.977 162.243 131.519 162.084 132.116 162.084C132.536 162.084 132.928 162.168 133.292 162.336C133.656 162.495 133.973 162.728 134.244 163.036V158.892L135.266 158.682V169H134.244V168.09C133.983 168.417 133.665 168.669 133.292 168.846C132.919 169.014 132.508 169.098 132.06 169.098ZM132.312 168.202C132.713 168.202 133.082 168.123 133.418 167.964C133.754 167.805 134.029 167.581 134.244 167.292V163.904C134.02 163.615 133.735 163.391 133.39 163.232C133.054 163.064 132.695 162.98 132.312 162.98C131.855 162.98 131.444 163.092 131.08 163.316C130.725 163.54 130.441 163.848 130.226 164.24C130.021 164.632 129.918 165.08 129.918 165.584C129.918 166.079 130.021 166.527 130.226 166.928C130.441 167.32 130.725 167.633 131.08 167.866C131.444 168.09 131.855 168.202 132.312 168.202ZM142.748 169.126C142.263 169.126 141.833 169.037 141.46 168.86C141.087 168.683 140.793 168.44 140.578 168.132C140.373 167.815 140.27 167.451 140.27 167.04C140.27 166.629 140.377 166.275 140.592 165.976C140.807 165.668 141.105 165.43 141.488 165.262C141.871 165.094 142.319 165.01 142.832 165.01C143.224 165.01 143.593 165.052 143.938 165.136C144.293 165.22 144.619 165.355 144.918 165.542V164.604C144.918 164.044 144.769 163.624 144.47 163.344C144.171 163.055 143.733 162.91 143.154 162.91C142.837 162.91 142.51 162.957 142.174 163.05C141.847 163.143 141.483 163.293 141.082 163.498L140.704 162.714C141.619 162.275 142.477 162.056 143.28 162.056C144.129 162.056 144.783 162.266 145.24 162.686C145.697 163.097 145.926 163.689 145.926 164.464V169H144.918V168.202C144.619 168.51 144.288 168.743 143.924 168.902C143.56 169.051 143.168 169.126 142.748 169.126ZM141.25 167.012C141.25 167.413 141.404 167.735 141.712 167.978C142.029 168.221 142.445 168.342 142.958 168.342C143.341 168.342 143.691 168.277 144.008 168.146C144.335 168.015 144.638 167.819 144.918 167.558V166.242C144.629 166.074 144.33 165.953 144.022 165.878C143.714 165.794 143.369 165.752 142.986 165.752C142.463 165.752 142.043 165.869 141.726 166.102C141.409 166.326 141.25 166.629 141.25 167.012ZM151.271 169V158.892L152.293 158.682V169H151.271ZM156.502 169.126C156.017 169.126 155.587 169.037 155.214 168.86C154.841 168.683 154.547 168.44 154.332 168.132C154.127 167.815 154.024 167.451 154.024 167.04C154.024 166.629 154.131 166.275 154.346 165.976C154.561 165.668 154.859 165.43 155.242 165.262C155.625 165.094 156.073 165.01 156.586 165.01C156.978 165.01 157.347 165.052 157.692 165.136C158.047 165.22 158.373 165.355 158.672 165.542V164.604C158.672 164.044 158.523 163.624 158.224 163.344C157.925 163.055 157.487 162.91 156.908 162.91C156.591 162.91 156.264 162.957 155.928 163.05C155.601 163.143 155.237 163.293 154.836 163.498L154.458 162.714C155.373 162.275 156.231 162.056 157.034 162.056C157.883 162.056 158.537 162.266 158.994 162.686C159.451 163.097 159.68 163.689 159.68 164.464V169H158.672V168.202C158.373 168.51 158.042 168.743 157.678 168.902C157.314 169.051 156.922 169.126 156.502 169.126ZM155.004 167.012C155.004 167.413 155.158 167.735 155.466 167.978C155.783 168.221 156.199 168.342 156.712 168.342C157.095 168.342 157.445 168.277 157.762 168.146C158.089 168.015 158.392 167.819 158.672 167.558V166.242C158.383 166.074 158.084 165.953 157.776 165.878C157.468 165.794 157.123 165.752 156.74 165.752C156.217 165.752 155.797 165.869 155.48 166.102C155.163 166.326 155.004 166.629 155.004 167.012ZM161.757 169V158.99L162.779 158.78V163.106C163.04 162.779 163.358 162.527 163.731 162.35C164.104 162.173 164.52 162.084 164.977 162.084C165.574 162.084 166.106 162.243 166.573 162.56C167.049 162.868 167.427 163.288 167.707 163.82C167.987 164.343 168.127 164.931 168.127 165.584C168.127 166.237 167.982 166.83 167.693 167.362C167.413 167.894 167.03 168.319 166.545 168.636C166.069 168.944 165.528 169.098 164.921 169.098C164.492 169.098 164.09 169.014 163.717 168.846C163.353 168.669 163.036 168.421 162.765 168.104V169H161.757ZM164.725 168.216C165.182 168.216 165.588 168.104 165.943 167.88C166.307 167.647 166.592 167.334 166.797 166.942C167.012 166.541 167.119 166.093 167.119 165.598C167.119 165.094 167.012 164.646 166.797 164.254C166.592 163.862 166.307 163.554 165.943 163.33C165.588 163.097 165.182 162.98 164.725 162.98C164.324 162.98 163.95 163.064 163.605 163.232C163.269 163.391 162.994 163.619 162.779 163.918V167.264C163.003 167.563 163.283 167.796 163.619 167.964C163.964 168.132 164.333 168.216 164.725 168.216ZM172.999 169.14C172.364 169.14 171.79 168.986 171.277 168.678C170.764 168.361 170.358 167.936 170.059 167.404C169.76 166.863 169.611 166.256 169.611 165.584C169.611 164.912 169.751 164.31 170.031 163.778C170.32 163.246 170.708 162.826 171.193 162.518C171.678 162.21 172.22 162.056 172.817 162.056C173.424 162.056 173.96 162.21 174.427 162.518C174.903 162.817 175.276 163.227 175.547 163.75C175.827 164.263 175.967 164.847 175.967 165.5V165.808H170.605C170.642 166.275 170.768 166.695 170.983 167.068C171.207 167.432 171.496 167.721 171.851 167.936C172.215 168.141 172.612 168.244 173.041 168.244C173.396 168.244 173.736 168.183 174.063 168.062C174.399 167.931 174.684 167.759 174.917 167.544L175.561 168.23C175.169 168.538 174.763 168.767 174.343 168.916C173.923 169.065 173.475 169.14 172.999 169.14ZM170.633 165.08H174.959C174.912 164.669 174.786 164.305 174.581 163.988C174.385 163.661 174.133 163.405 173.825 163.218C173.526 163.031 173.19 162.938 172.817 162.938C172.444 162.938 172.103 163.031 171.795 163.218C171.487 163.395 171.23 163.647 171.025 163.974C170.829 164.291 170.698 164.66 170.633 165.08ZM177.712 169V158.892L178.734 158.682V169H177.712Z" fill="#4D4D4D"/>
<path d="M72 216C72 208.82 77.8203 203 85 203H112C119.18 203 125 208.82 125 216V216C125 223.18 119.18 229 112 229H85C77.8203 229 72 223.18 72 216V216Z" fill="#E0E0E0"/>
<path d="M81.068 220V211.6H81.992V219.184H86.732V220H81.068ZM90.0011 220.108C89.5851 220.108 89.2171 220.032 88.8971 219.88C88.5771 219.728 88.3251 219.52 88.1411 219.256C87.9651 218.984 87.8771 218.672 87.8771 218.32C87.8771 217.968 87.9691 217.664 88.1531 217.408C88.3371 217.144 88.5931 216.94 88.9211 216.796C89.2491 216.652 89.6331 216.58 90.0731 216.58C90.4091 216.58 90.7251 216.616 91.0211 216.688C91.3251 216.76 91.6051 216.876 91.8611 217.036V216.232C91.8611 215.752 91.7331 215.392 91.4771 215.152C91.2211 214.904 90.8451 214.78 90.3491 214.78C90.0771 214.78 89.7971 214.82 89.5091 214.9C89.2291 214.98 88.9171 215.108 88.5731 215.284L88.2491 214.612C89.0331 214.236 89.7691 214.048 90.4571 214.048C91.1851 214.048 91.7451 214.228 92.1371 214.588C92.5291 214.94 92.7251 215.448 92.7251 216.112V220H91.8611V219.316C91.6051 219.58 91.3211 219.78 91.0091 219.916C90.6971 220.044 90.3611 220.108 90.0011 220.108ZM88.7171 218.296C88.7171 218.64 88.8491 218.916 89.1131 219.124C89.3851 219.332 89.7411 219.436 90.1811 219.436C90.5091 219.436 90.8091 219.38 91.0811 219.268C91.3611 219.156 91.6211 218.988 91.8611 218.764V217.636C91.6131 217.492 91.3571 217.388 91.0931 217.324C90.8291 217.252 90.5331 217.216 90.2051 217.216C89.7571 217.216 89.3971 217.316 89.1251 217.516C88.8531 217.708 88.7171 217.968 88.7171 218.296ZM94.5055 220V211.42L95.3815 211.24V214.948C95.6055 214.668 95.8775 214.452 96.1975 214.3C96.5175 214.148 96.8735 214.072 97.2655 214.072C97.7775 214.072 98.2335 214.208 98.6335 214.48C99.0415 214.744 99.3655 215.104 99.6055 215.56C99.8455 216.008 99.9655 216.512 99.9655 217.072C99.9655 217.632 99.8415 218.14 99.5935 218.596C99.3535 219.052 99.0255 219.416 98.6095 219.688C98.2015 219.952 97.7375 220.084 97.2175 220.084C96.8495 220.084 96.5055 220.012 96.1855 219.868C95.8735 219.716 95.6015 219.504 95.3695 219.232V220H94.5055ZM97.0495 219.328C97.4415 219.328 97.7895 219.232 98.0935 219.04C98.4055 218.84 98.6495 218.572 98.8255 218.236C99.0095 217.892 99.1015 217.508 99.1015 217.084C99.1015 216.652 99.0095 216.268 98.8255 215.932C98.6495 215.596 98.4055 215.332 98.0935 215.14C97.7895 214.94 97.4415 214.84 97.0495 214.84C96.7055 214.84 96.3855 214.912 96.0895 215.056C95.8015 215.192 95.5655 215.388 95.3815 215.644V218.512C95.5735 218.768 95.8135 218.968 96.1015 219.112C96.3975 219.256 96.7135 219.328 97.0495 219.328ZM104.142 220.12C103.598 220.12 103.106 219.988 102.666 219.724C102.226 219.452 101.878 219.088 101.622 218.632C101.366 218.168 101.238 217.648 101.238 217.072C101.238 216.496 101.358 215.98 101.598 215.524C101.846 215.068 102.178 214.708 102.594 214.444C103.01 214.18 103.474 214.048 103.986 214.048C104.506 214.048 104.966 214.18 105.366 214.444C105.774 214.7 106.094 215.052 106.326 215.5C106.566 215.94 106.686 216.44 106.686 217V217.264H102.09C102.122 217.664 102.23 218.024 102.414 218.344C102.606 218.656 102.854 218.904 103.158 219.088C103.47 219.264 103.81 219.352 104.178 219.352C104.482 219.352 104.774 219.3 105.054 219.196C105.342 219.084 105.586 218.936 105.786 218.752L106.338 219.34C106.002 219.604 105.654 219.8 105.294 219.928C104.934 220.056 104.55 220.12 104.142 220.12ZM102.114 216.64H105.822C105.782 216.288 105.674 215.976 105.498 215.704C105.33 215.424 105.114 215.204 104.85 215.044C104.594 214.884 104.306 214.804 103.986 214.804C103.666 214.804 103.374 214.884 103.11 215.044C102.846 215.196 102.626 215.412 102.45 215.692C102.282 215.964 102.17 216.28 102.114 216.64ZM108.181 220V211.336L109.057 211.156V220H108.181ZM114.59 220V212.536L113.246 213.136V212.344L114.914 211.6H115.454V220H114.59Z" fill="#151515"/>
<path d="M133 216C133 208.82 138.82 203 146 203H176C183.18 203 189 208.82 189 216V216C189 223.18 183.18 229 176 229H146C138.82 229 133 223.18 133 216V216Z" fill="#E0E0E0"/>
<path d="M142.068 220V211.6H142.992V219.184H147.732V220H142.068ZM151.001 220.108C150.585 220.108 150.217 220.032 149.897 219.88C149.577 219.728 149.325 219.52 149.141 219.256C148.965 218.984 148.877 218.672 148.877 218.32C148.877 217.968 148.969 217.664 149.153 217.408C149.337 217.144 149.593 216.94 149.921 216.796C150.249 216.652 150.633 216.58 151.073 216.58C151.409 216.58 151.725 216.616 152.021 216.688C152.325 216.76 152.605 216.876 152.861 217.036V216.232C152.861 215.752 152.733 215.392 152.477 215.152C152.221 214.904 151.845 214.78 151.349 214.78C151.077 214.78 150.797 214.82 150.509 214.9C150.229 214.98 149.917 215.108 149.573 215.284L149.249 214.612C150.033 214.236 150.769 214.048 151.457 214.048C152.185 214.048 152.745 214.228 153.137 214.588C153.529 214.94 153.725 215.448 153.725 216.112V220H152.861V219.316C152.605 219.58 152.321 219.78 152.009 219.916C151.697 220.044 151.361 220.108 151.001 220.108ZM149.717 218.296C149.717 218.64 149.849 218.916 150.113 219.124C150.385 219.332 150.741 219.436 151.181 219.436C151.509 219.436 151.809 219.38 152.081 219.268C152.361 219.156 152.621 218.988 152.861 218.764V217.636C152.613 217.492 152.357 217.388 152.093 217.324C151.829 217.252 151.533 217.216 151.205 217.216C150.757 217.216 150.397 217.316 150.125 217.516C149.853 217.708 149.717 217.968 149.717 218.296ZM155.505 220V211.42L156.381 211.24V214.948C156.605 214.668 156.877 214.452 157.197 214.3C157.517 214.148 157.873 214.072 158.265 214.072C158.777 214.072 159.233 214.208 159.633 214.48C160.041 214.744 160.365 215.104 160.605 215.56C160.845 216.008 160.965 216.512 160.965 217.072C160.965 217.632 160.841 218.14 160.593 218.596C160.353 219.052 160.025 219.416 159.609 219.688C159.201 219.952 158.737 220.084 158.217 220.084C157.849 220.084 157.505 220.012 157.185 219.868C156.873 219.716 156.601 219.504 156.369 219.232V220H155.505ZM158.049 219.328C158.441 219.328 158.789 219.232 159.093 219.04C159.405 218.84 159.649 218.572 159.825 218.236C160.009 217.892 160.101 217.508 160.101 217.084C160.101 216.652 160.009 216.268 159.825 215.932C159.649 215.596 159.405 215.332 159.093 215.14C158.789 214.94 158.441 214.84 158.049 214.84C157.705 214.84 157.385 214.912 157.089 215.056C156.801 215.192 156.565 215.388 156.381 215.644V218.512C156.573 218.768 156.813 218.968 157.101 219.112C157.397 219.256 157.713 219.328 158.049 219.328ZM165.142 220.12C164.598 220.12 164.106 219.988 163.666 219.724C163.226 219.452 162.878 219.088 162.622 218.632C162.366 218.168 162.238 217.648 162.238 217.072C162.238 216.496 162.358 215.98 162.598 215.524C162.846 215.068 163.178 214.708 163.594 214.444C164.01 214.18 164.474 214.048 164.986 214.048C165.506 214.048 165.966 214.18 166.366 214.444C166.774 214.7 167.094 215.052 167.326 215.5C167.566 215.94 167.686 216.44 167.686 217V217.264H163.09C163.122 217.664 163.23 218.024 163.414 218.344C163.606 218.656 163.854 218.904 164.158 219.088C164.47 219.264 164.81 219.352 165.178 219.352C165.482 219.352 165.774 219.3 166.054 219.196C166.342 219.084 166.586 218.936 166.786 218.752L167.338 219.34C167.002 219.604 166.654 219.8 166.294 219.928C165.934 220.056 165.55 220.12 165.142 220.12ZM163.114 216.64H166.822C166.782 216.288 166.674 215.976 166.498 215.704C166.33 215.424 166.114 215.204 165.85 215.044C165.594 214.884 165.306 214.804 164.986 214.804C164.666 214.804 164.374 214.884 164.11 215.044C163.846 215.196 163.626 215.412 163.45 215.692C163.282 215.964 163.17 216.28 163.114 216.64ZM169.181 220V211.336L170.057 211.156V220H169.181ZM174.366 220V219.364L177.726 215.692C177.99 215.404 178.194 215.152 178.338 214.936C178.49 214.712 178.594 214.504 178.65 214.312C178.714 214.12 178.746 213.916 178.746 213.7C178.746 213.276 178.578 212.928 178.242 212.656C177.914 212.376 177.494 212.236 176.982 212.236C176.59 212.236 176.226 212.312 175.89 212.464C175.554 212.616 175.178 212.88 174.762 213.256L174.258 212.656C174.698 212.256 175.142 211.96 175.59 211.768C176.038 211.568 176.506 211.468 176.994 211.468C177.498 211.468 177.946 211.564 178.338 211.756C178.73 211.94 179.038 212.196 179.262 212.524C179.486 212.852 179.598 213.228 179.598 213.652C179.598 213.932 179.562 214.192 179.49 214.432C179.418 214.664 179.29 214.916 179.106 215.188C178.922 215.452 178.658 215.772 178.314 216.148L175.446 219.256L179.778 219.244V220H174.366Z" fill="#151515"/>
<path d="M197 216C197 208.82 202.82 203 210 203H240C247.18 203 253 208.82 253 216V216C253 223.18 247.18 229 240 229H210C202.82 229 197 223.18 197 216V216Z" fill="#E0E0E0"/>
<path d="M206.068 220V211.6H206.992V219.184H211.732V220H206.068ZM215.001 220.108C214.585 220.108 214.217 220.032 213.897 219.88C213.577 219.728 213.325 219.52 213.141 219.256C212.965 218.984 212.877 218.672 212.877 218.32C212.877 217.968 212.969 217.664 213.153 217.408C213.337 217.144 213.593 216.94 213.921 216.796C214.249 216.652 214.633 216.58 215.073 216.58C215.409 216.58 215.725 216.616 216.021 216.688C216.325 216.76 216.605 216.876 216.861 217.036V216.232C216.861 215.752 216.733 215.392 216.477 215.152C216.221 214.904 215.845 214.78 215.349 214.78C215.077 214.78 214.797 214.82 214.509 214.9C214.229 214.98 213.917 215.108 213.573 215.284L213.249 214.612C214.033 214.236 214.769 214.048 215.457 214.048C216.185 214.048 216.745 214.228 217.137 214.588C217.529 214.94 217.725 215.448 217.725 216.112V220H216.861V219.316C216.605 219.58 216.321 219.78 216.009 219.916C215.697 220.044 215.361 220.108 215.001 220.108ZM213.717 218.296C213.717 218.64 213.849 218.916 214.113 219.124C214.385 219.332 214.741 219.436 215.181 219.436C215.509 219.436 215.809 219.38 216.081 219.268C216.361 219.156 216.621 218.988 216.861 218.764V217.636C216.613 217.492 216.357 217.388 216.093 217.324C215.829 217.252 215.533 217.216 215.205 217.216C214.757 217.216 214.397 217.316 214.125 217.516C213.853 217.708 213.717 217.968 213.717 218.296ZM219.505 220V211.42L220.381 211.24V214.948C220.605 214.668 220.877 214.452 221.197 214.3C221.517 214.148 221.873 214.072 222.265 214.072C222.777 214.072 223.233 214.208 223.633 214.48C224.041 214.744 224.365 215.104 224.605 215.56C224.845 216.008 224.965 216.512 224.965 217.072C224.965 217.632 224.841 218.14 224.593 218.596C224.353 219.052 224.025 219.416 223.609 219.688C223.201 219.952 222.737 220.084 222.217 220.084C221.849 220.084 221.505 220.012 221.185 219.868C220.873 219.716 220.601 219.504 220.369 219.232V220H219.505ZM222.049 219.328C222.441 219.328 222.789 219.232 223.093 219.04C223.405 218.84 223.649 218.572 223.825 218.236C224.009 217.892 224.101 217.508 224.101 217.084C224.101 216.652 224.009 216.268 223.825 215.932C223.649 215.596 223.405 215.332 223.093 215.14C222.789 214.94 222.441 214.84 222.049 214.84C221.705 214.84 221.385 214.912 221.089 215.056C220.801 215.192 220.565 215.388 220.381 215.644V218.512C220.573 218.768 220.813 218.968 221.101 219.112C221.397 219.256 221.713 219.328 222.049 219.328ZM229.142 220.12C228.598 220.12 228.106 219.988 227.666 219.724C227.226 219.452 226.878 219.088 226.622 218.632C226.366 218.168 226.238 217.648 226.238 217.072C226.238 216.496 226.358 215.98 226.598 215.524C226.846 215.068 227.178 214.708 227.594 214.444C228.01 214.18 228.474 214.048 228.986 214.048C229.506 214.048 229.966 214.18 230.366 214.444C230.774 214.7 231.094 215.052 231.326 215.5C231.566 215.94 231.686 216.44 231.686 217V217.264H227.09C227.122 217.664 227.23 218.024 227.414 218.344C227.606 218.656 227.854 218.904 228.158 219.088C228.47 219.264 228.81 219.352 229.178 219.352C229.482 219.352 229.774 219.3 230.054 219.196C230.342 219.084 230.586 218.936 230.786 218.752L231.338 219.34C231.002 219.604 230.654 219.8 230.294 219.928C229.934 220.056 229.55 220.12 229.142 220.12ZM227.114 216.64H230.822C230.782 216.288 230.674 215.976 230.498 215.704C230.33 215.424 230.114 215.204 229.85 215.044C229.594 214.884 229.306 214.804 228.986 214.804C228.666 214.804 228.374 214.884 228.11 215.044C227.846 215.196 227.626 215.412 227.45 215.692C227.282 215.964 227.17 216.28 227.114 216.64ZM233.181 220V211.336L234.057 211.156V220H233.181ZM241.138 220.132C240.562 220.132 240.022 220.032 239.518 219.832C239.022 219.632 238.582 219.336 238.198 218.944L238.774 218.38C239.126 218.732 239.486 218.988 239.854 219.148C240.23 219.3 240.654 219.376 241.126 219.376C241.534 219.376 241.894 219.304 242.206 219.16C242.526 219.016 242.774 218.816 242.95 218.56C243.126 218.304 243.214 218.012 243.214 217.684C243.214 217.372 243.134 217.096 242.974 216.856C242.822 216.608 242.61 216.416 242.338 216.28C242.066 216.144 241.754 216.076 241.402 216.076H240.406V215.332H241.366C241.822 215.332 242.19 215.192 242.47 214.912C242.758 214.632 242.902 214.268 242.902 213.82C242.902 213.524 242.822 213.256 242.662 213.016C242.502 212.776 242.282 212.588 242.002 212.452C241.73 212.308 241.422 212.236 241.078 212.236C240.646 212.236 240.258 212.316 239.914 212.476C239.578 212.628 239.234 212.888 238.882 213.256L238.306 212.68C238.682 212.28 239.106 211.98 239.578 211.78C240.05 211.572 240.554 211.468 241.09 211.468C241.602 211.468 242.058 211.568 242.458 211.768C242.866 211.968 243.186 212.244 243.418 212.596C243.65 212.94 243.766 213.332 243.766 213.772C243.766 214.212 243.622 214.608 243.334 214.96C243.046 215.304 242.666 215.544 242.194 215.68C242.762 215.808 243.218 216.056 243.562 216.424C243.906 216.792 244.078 217.22 244.078 217.708C244.078 218.172 243.95 218.588 243.694 218.956C243.446 219.324 243.098 219.612 242.65 219.82C242.21 220.028 241.706 220.132 241.138 220.132Z" fill="#151515"/>
<path d="M261 216C261 208.82 266.82 203 274 203H305C312.18 203 318 208.82 318 216V216C318 223.18 312.18 229 305 229H274C266.82 229 261 223.18 261 216V216Z" fill="#E0E0E0"/>
<path d="M270.068 220V211.6H270.992V219.184H275.732V220H270.068ZM279.001 220.108C278.585 220.108 278.217 220.032 277.897 219.88C277.577 219.728 277.325 219.52 277.141 219.256C276.965 218.984 276.877 218.672 276.877 218.32C276.877 217.968 276.969 217.664 277.153 217.408C277.337 217.144 277.593 216.94 277.921 216.796C278.249 216.652 278.633 216.58 279.073 216.58C279.409 216.58 279.725 216.616 280.021 216.688C280.325 216.76 280.605 216.876 280.861 217.036V216.232C280.861 215.752 280.733 215.392 280.477 215.152C280.221 214.904 279.845 214.78 279.349 214.78C279.077 214.78 278.797 214.82 278.509 214.9C278.229 214.98 277.917 215.108 277.573 215.284L277.249 214.612C278.033 214.236 278.769 214.048 279.457 214.048C280.185 214.048 280.745 214.228 281.137 214.588C281.529 214.94 281.725 215.448 281.725 216.112V220H280.861V219.316C280.605 219.58 280.321 219.78 280.009 219.916C279.697 220.044 279.361 220.108 279.001 220.108ZM277.717 218.296C277.717 218.64 277.849 218.916 278.113 219.124C278.385 219.332 278.741 219.436 279.181 219.436C279.509 219.436 279.809 219.38 280.081 219.268C280.361 219.156 280.621 218.988 280.861 218.764V217.636C280.613 217.492 280.357 217.388 280.093 217.324C279.829 217.252 279.533 217.216 279.205 217.216C278.757 217.216 278.397 217.316 278.125 217.516C277.853 217.708 277.717 217.968 277.717 218.296ZM283.505 220V211.42L284.381 211.24V214.948C284.605 214.668 284.877 214.452 285.197 214.3C285.517 214.148 285.873 214.072 286.265 214.072C286.777 214.072 287.233 214.208 287.633 214.48C288.041 214.744 288.365 215.104 288.605 215.56C288.845 216.008 288.965 216.512 288.965 217.072C288.965 217.632 288.841 218.14 288.593 218.596C288.353 219.052 288.025 219.416 287.609 219.688C287.201 219.952 286.737 220.084 286.217 220.084C285.849 220.084 285.505 220.012 285.185 219.868C284.873 219.716 284.601 219.504 284.369 219.232V220H283.505ZM286.049 219.328C286.441 219.328 286.789 219.232 287.093 219.04C287.405 218.84 287.649 218.572 287.825 218.236C288.009 217.892 288.101 217.508 288.101 217.084C288.101 216.652 288.009 216.268 287.825 215.932C287.649 215.596 287.405 215.332 287.093 215.14C286.789 214.94 286.441 214.84 286.049 214.84C285.705 214.84 285.385 214.912 285.089 215.056C284.801 215.192 284.565 215.388 284.381 215.644V218.512C284.573 218.768 284.813 218.968 285.101 219.112C285.397 219.256 285.713 219.328 286.049 219.328ZM293.142 220.12C292.598 220.12 292.106 219.988 291.666 219.724C291.226 219.452 290.878 219.088 290.622 218.632C290.366 218.168 290.238 217.648 290.238 217.072C290.238 216.496 290.358 215.98 290.598 215.524C290.846 215.068 291.178 214.708 291.594 214.444C292.01 214.18 292.474 214.048 292.986 214.048C293.506 214.048 293.966 214.18 294.366 214.444C294.774 214.7 295.094 215.052 295.326 215.5C295.566 215.94 295.686 216.44 295.686 217V217.264H291.09C291.122 217.664 291.23 218.024 291.414 218.344C291.606 218.656 291.854 218.904 292.158 219.088C292.47 219.264 292.81 219.352 293.178 219.352C293.482 219.352 293.774 219.3 294.054 219.196C294.342 219.084 294.586 218.936 294.786 218.752L295.338 219.34C295.002 219.604 294.654 219.8 294.294 219.928C293.934 220.056 293.55 220.12 293.142 220.12ZM291.114 216.64H294.822C294.782 216.288 294.674 215.976 294.498 215.704C294.33 215.424 294.114 215.204 293.85 215.044C293.594 214.884 293.306 214.804 292.986 214.804C292.666 214.804 292.374 214.884 292.11 215.044C291.846 215.196 291.626 215.412 291.45 215.692C291.282 215.964 291.17 216.28 291.114 216.64ZM297.181 220V211.336L298.057 211.156V220H297.181ZM306.758 220V217.756H302.222V217.072L306.686 211.6H307.61V217H308.774V217.756H307.61V220H306.758ZM303.23 217H306.758V212.644L303.23 217Z" fill="#151515"/>
<path d="M326 216C326 208.82 331.82 203 339 203H369C376.18 203 382 208.82 382 216V216C382 223.18 376.18 229 369 229H339C331.82 229 326 223.18 326 216V216Z" fill="#E0E0E0"/>
<path d="M335.068 220V211.6H335.992V219.184H340.732V220H335.068ZM344.001 220.108C343.585 220.108 343.217 220.032 342.897 219.88C342.577 219.728 342.325 219.52 342.141 219.256C341.965 218.984 341.877 218.672 341.877 218.32C341.877 217.968 341.969 217.664 342.153 217.408C342.337 217.144 342.593 216.94 342.921 216.796C343.249 216.652 343.633 216.58 344.073 216.58C344.409 216.58 344.725 216.616 345.021 216.688C345.325 216.76 345.605 216.876 345.861 217.036V216.232C345.861 215.752 345.733 215.392 345.477 215.152C345.221 214.904 344.845 214.78 344.349 214.78C344.077 214.78 343.797 214.82 343.509 214.9C343.229 214.98 342.917 215.108 342.573 215.284L342.249 214.612C343.033 214.236 343.769 214.048 344.457 214.048C345.185 214.048 345.745 214.228 346.137 214.588C346.529 214.94 346.725 215.448 346.725 216.112V220H345.861V219.316C345.605 219.58 345.321 219.78 345.009 219.916C344.697 220.044 344.361 220.108 344.001 220.108ZM342.717 218.296C342.717 218.64 342.849 218.916 343.113 219.124C343.385 219.332 343.741 219.436 344.181 219.436C344.509 219.436 344.809 219.38 345.081 219.268C345.361 219.156 345.621 218.988 345.861 218.764V217.636C345.613 217.492 345.357 217.388 345.093 217.324C344.829 217.252 344.533 217.216 344.205 217.216C343.757 217.216 343.397 217.316 343.125 217.516C342.853 217.708 342.717 217.968 342.717 218.296ZM348.505 220V211.42L349.381 211.24V214.948C349.605 214.668 349.877 214.452 350.197 214.3C350.517 214.148 350.873 214.072 351.265 214.072C351.777 214.072 352.233 214.208 352.633 214.48C353.041 214.744 353.365 215.104 353.605 215.56C353.845 216.008 353.965 216.512 353.965 217.072C353.965 217.632 353.841 218.14 353.593 218.596C353.353 219.052 353.025 219.416 352.609 219.688C352.201 219.952 351.737 220.084 351.217 220.084C350.849 220.084 350.505 220.012 350.185 219.868C349.873 219.716 349.601 219.504 349.369 219.232V220H348.505ZM351.049 219.328C351.441 219.328 351.789 219.232 352.093 219.04C352.405 218.84 352.649 218.572 352.825 218.236C353.009 217.892 353.101 217.508 353.101 217.084C353.101 216.652 353.009 216.268 352.825 215.932C352.649 215.596 352.405 215.332 352.093 215.14C351.789 214.94 351.441 214.84 351.049 214.84C350.705 214.84 350.385 214.912 350.089 215.056C349.801 215.192 349.565 215.388 349.381 215.644V218.512C349.573 218.768 349.813 218.968 350.101 219.112C350.397 219.256 350.713 219.328 351.049 219.328ZM358.142 220.12C357.598 220.12 357.106 219.988 356.666 219.724C356.226 219.452 355.878 219.088 355.622 218.632C355.366 218.168 355.238 217.648 355.238 217.072C355.238 216.496 355.358 215.98 355.598 215.524C355.846 215.068 356.178 214.708 356.594 214.444C357.01 214.18 357.474 214.048 357.986 214.048C358.506 214.048 358.966 214.18 359.366 214.444C359.774 214.7 360.094 215.052 360.326 215.5C360.566 215.94 360.686 216.44 360.686 217V217.264H356.09C356.122 217.664 356.23 218.024 356.414 218.344C356.606 218.656 356.854 218.904 357.158 219.088C357.47 219.264 357.81 219.352 358.178 219.352C358.482 219.352 358.774 219.3 359.054 219.196C359.342 219.084 359.586 218.936 359.786 218.752L360.338 219.34C360.002 219.604 359.654 219.8 359.294 219.928C358.934 220.056 358.55 220.12 358.142 220.12ZM356.114 216.64H359.822C359.782 216.288 359.674 215.976 359.498 215.704C359.33 215.424 359.114 215.204 358.85 215.044C358.594 214.884 358.306 214.804 357.986 214.804C357.666 214.804 357.374 214.884 357.11 215.044C356.846 215.196 356.626 215.412 356.45 215.692C356.282 215.964 356.17 216.28 356.114 216.64ZM362.181 220V211.336L363.057 211.156V220H362.181ZM370.054 220.132C368.95 220.132 367.998 219.752 367.198 218.992L367.738 218.404C368.106 218.748 368.47 219 368.83 219.16C369.198 219.312 369.61 219.388 370.066 219.388C370.474 219.388 370.834 219.304 371.146 219.136C371.458 218.968 371.698 218.732 371.866 218.428C372.042 218.124 372.13 217.776 372.13 217.384C372.13 216.824 371.938 216.372 371.554 216.028C371.178 215.684 370.682 215.512 370.066 215.512C369.746 215.512 369.434 215.552 369.13 215.632C368.826 215.704 368.51 215.824 368.182 215.992L367.582 215.8L367.774 211.6H372.55V212.356H368.518L368.386 215.26C368.706 215.1 369.014 214.988 369.31 214.924C369.606 214.852 369.918 214.816 370.246 214.816C370.798 214.816 371.278 214.924 371.686 215.14C372.102 215.348 372.422 215.644 372.646 216.028C372.878 216.404 372.994 216.844 372.994 217.348C372.994 217.9 372.87 218.384 372.622 218.8C372.374 219.216 372.03 219.544 371.59 219.784C371.15 220.016 370.638 220.132 370.054 220.132Z" fill="#151515"/>
<path d="M72 250C72 242.82 77.8203 237 85 237H116C123.18 237 129 242.82 129 250V250C129 257.18 123.18 263 116 263H85C77.8203 263 72 257.18 72 250V250Z" fill="#E0E0E0"/>
<path d="M81.068 254V245.6H81.992V253.184H86.732V254H81.068ZM90.0011 254.108C89.5851 254.108 89.2171 254.032 88.8971 253.88C88.5771 253.728 88.3251 253.52 88.1411 253.256C87.9651 252.984 87.8771 252.672 87.8771 252.32C87.8771 251.968 87.9691 251.664 88.1531 251.408C88.3371 251.144 88.5931 250.94 88.9211 250.796C89.2491 250.652 89.6331 250.58 90.0731 250.58C90.4091 250.58 90.7251 250.616 91.0211 250.688C91.3251 250.76 91.6051 250.876 91.8611 251.036V250.232C91.8611 249.752 91.7331 249.392 91.4771 249.152C91.2211 248.904 90.8451 248.78 90.3491 248.78C90.0771 248.78 89.7971 248.82 89.5091 248.9C89.2291 248.98 88.9171 249.108 88.5731 249.284L88.2491 248.612C89.0331 248.236 89.7691 248.048 90.4571 248.048C91.1851 248.048 91.7451 248.228 92.1371 248.588C92.5291 248.94 92.7251 249.448 92.7251 250.112V254H91.8611V253.316C91.6051 253.58 91.3211 253.78 91.0091 253.916C90.6971 254.044 90.3611 254.108 90.0011 254.108ZM88.7171 252.296C88.7171 252.64 88.8491 252.916 89.1131 253.124C89.3851 253.332 89.7411 253.436 90.1811 253.436C90.5091 253.436 90.8091 253.38 91.0811 253.268C91.3611 253.156 91.6211 252.988 91.8611 252.764V251.636C91.6131 251.492 91.3571 251.388 91.0931 251.324C90.8291 251.252 90.5331 251.216 90.2051 251.216C89.7571 251.216 89.3971 251.316 89.1251 251.516C88.8531 251.708 88.7171 251.968 88.7171 252.296ZM94.5055 254V245.42L95.3815 245.24V248.948C95.6055 248.668 95.8775 248.452 96.1975 248.3C96.5175 248.148 96.8735 248.072 97.2655 248.072C97.7775 248.072 98.2335 248.208 98.6335 248.48C99.0415 248.744 99.3655 249.104 99.6055 249.56C99.8455 250.008 99.9655 250.512 99.9655 251.072C99.9655 251.632 99.8415 252.14 99.5935 252.596C99.3535 253.052 99.0255 253.416 98.6095 253.688C98.2015 253.952 97.7375 254.084 97.2175 254.084C96.8495 254.084 96.5055 254.012 96.1855 253.868C95.8735 253.716 95.6015 253.504 95.3695 253.232V254H94.5055ZM97.0495 253.328C97.4415 253.328 97.7895 253.232 98.0935 253.04C98.4055 252.84 98.6495 252.572 98.8255 252.236C99.0095 251.892 99.1015 251.508 99.1015 251.084C99.1015 250.652 99.0095 250.268 98.8255 249.932C98.6495 249.596 98.4055 249.332 98.0935 249.14C97.7895 248.94 97.4415 248.84 97.0495 248.84C96.7055 248.84 96.3855 248.912 96.0895 249.056C95.8015 249.192 95.5655 249.388 95.3815 249.644V252.512C95.5735 252.768 95.8135 252.968 96.1015 253.112C96.3975 253.256 96.7135 253.328 97.0495 253.328ZM104.142 254.12C103.598 254.12 103.106 253.988 102.666 253.724C102.226 253.452 101.878 253.088 101.622 252.632C101.366 252.168 101.238 251.648 101.238 251.072C101.238 250.496 101.358 249.98 101.598 249.524C101.846 249.068 102.178 248.708 102.594 248.444C103.01 248.18 103.474 248.048 103.986 248.048C104.506 248.048 104.966 248.18 105.366 248.444C105.774 248.7 106.094 249.052 106.326 249.5C106.566 249.94 106.686 250.44 106.686 251V251.264H102.09C102.122 251.664 102.23 252.024 102.414 252.344C102.606 252.656 102.854 252.904 103.158 253.088C103.47 253.264 103.81 253.352 104.178 253.352C104.482 253.352 104.774 253.3 105.054 253.196C105.342 253.084 105.586 252.936 105.786 252.752L106.338 253.34C106.002 253.604 105.654 253.8 105.294 253.928C104.934 254.056 104.55 254.12 104.142 254.12ZM102.114 250.64H105.822C105.782 250.288 105.674 249.976 105.498 249.704C105.33 249.424 105.114 249.204 104.85 249.044C104.594 248.884 104.306 248.804 103.986 248.804C103.666 248.804 103.374 248.884 103.11 249.044C102.846 249.196 102.626 249.412 102.45 249.692C102.282 249.964 102.17 250.28 102.114 250.64ZM108.181 254V245.336L109.057 245.156V254H108.181ZM116.726 254.12C116.078 254.12 115.506 253.948 115.01 253.604C114.522 253.26 114.138 252.788 113.858 252.188C113.578 251.58 113.438 250.88 113.438 250.088C113.438 249.16 113.594 248.352 113.906 247.664C114.218 246.968 114.658 246.428 115.226 246.044C115.794 245.66 116.454 245.468 117.206 245.468C117.558 245.468 117.906 245.516 118.25 245.612C118.594 245.708 118.902 245.848 119.174 246.032L118.742 246.704C118.494 246.56 118.234 246.448 117.962 246.368C117.69 246.288 117.414 246.248 117.134 246.248C116.558 246.248 116.058 246.4 115.634 246.704C115.218 247 114.894 247.428 114.662 247.988C114.438 248.548 114.318 249.22 114.302 250.004C114.614 249.604 114.986 249.292 115.418 249.068C115.85 248.844 116.298 248.732 116.762 248.732C117.306 248.732 117.79 248.844 118.214 249.068C118.638 249.292 118.97 249.604 119.21 250.004C119.45 250.396 119.57 250.844 119.57 251.348C119.57 251.876 119.446 252.352 119.198 252.776C118.95 253.192 118.61 253.52 118.178 253.76C117.754 254 117.27 254.12 116.726 254.12ZM116.642 249.44C116.202 249.44 115.778 249.552 115.37 249.776C114.97 249.992 114.622 250.292 114.326 250.676C114.39 251.212 114.526 251.684 114.734 252.092C114.95 252.492 115.226 252.804 115.562 253.028C115.906 253.252 116.29 253.364 116.714 253.364C117.098 253.364 117.438 253.28 117.734 253.112C118.038 252.936 118.274 252.696 118.442 252.392C118.618 252.088 118.706 251.748 118.706 251.372C118.706 250.996 118.618 250.664 118.442 250.376C118.266 250.08 118.022 249.852 117.71 249.692C117.406 249.524 117.05 249.44 116.642 249.44Z" fill="#151515"/>
<path d="M137 250C137 242.82 142.82 237 150 237H180C187.18 237 193 242.82 193 250V250C193 257.18 187.18 263 180 263H150C142.82 263 137 257.18 137 250V250Z" fill="#E0E0E0"/>
<path d="M146.068 254V245.6H146.992V253.184H151.732V254H146.068ZM155.001 254.108C154.585 254.108 154.217 254.032 153.897 253.88C153.577 253.728 153.325 253.52 153.141 253.256C152.965 252.984 152.877 252.672 152.877 252.32C152.877 251.968 152.969 251.664 153.153 251.408C153.337 251.144 153.593 250.94 153.921 250.796C154.249 250.652 154.633 250.58 155.073 250.58C155.409 250.58 155.725 250.616 156.021 250.688C156.325 250.76 156.605 250.876 156.861 251.036V250.232C156.861 249.752 156.733 249.392 156.477 249.152C156.221 248.904 155.845 248.78 155.349 248.78C155.077 248.78 154.797 248.82 154.509 248.9C154.229 248.98 153.917 249.108 153.573 249.284L153.249 248.612C154.033 248.236 154.769 248.048 155.457 248.048C156.185 248.048 156.745 248.228 157.137 248.588C157.529 248.94 157.725 249.448 157.725 250.112V254H156.861V253.316C156.605 253.58 156.321 253.78 156.009 253.916C155.697 254.044 155.361 254.108 155.001 254.108ZM153.717 252.296C153.717 252.64 153.849 252.916 154.113 253.124C154.385 253.332 154.741 253.436 155.181 253.436C155.509 253.436 155.809 253.38 156.081 253.268C156.361 253.156 156.621 252.988 156.861 252.764V251.636C156.613 251.492 156.357 251.388 156.093 251.324C155.829 251.252 155.533 251.216 155.205 251.216C154.757 251.216 154.397 251.316 154.125 251.516C153.853 251.708 153.717 251.968 153.717 252.296ZM159.505 254V245.42L160.381 245.24V248.948C160.605 248.668 160.877 248.452 161.197 248.3C161.517 248.148 161.873 248.072 162.265 248.072C162.777 248.072 163.233 248.208 163.633 248.48C164.041 248.744 164.365 249.104 164.605 249.56C164.845 250.008 164.965 250.512 164.965 251.072C164.965 251.632 164.841 252.14 164.593 252.596C164.353 253.052 164.025 253.416 163.609 253.688C163.201 253.952 162.737 254.084 162.217 254.084C161.849 254.084 161.505 254.012 161.185 253.868C160.873 253.716 160.601 253.504 160.369 253.232V254H159.505ZM162.049 253.328C162.441 253.328 162.789 253.232 163.093 253.04C163.405 252.84 163.649 252.572 163.825 252.236C164.009 251.892 164.101 251.508 164.101 251.084C164.101 250.652 164.009 250.268 163.825 249.932C163.649 249.596 163.405 249.332 163.093 249.14C162.789 248.94 162.441 248.84 162.049 248.84C161.705 248.84 161.385 248.912 161.089 249.056C160.801 249.192 160.565 249.388 160.381 249.644V252.512C160.573 252.768 160.813 252.968 161.101 253.112C161.397 253.256 161.713 253.328 162.049 253.328ZM169.142 254.12C168.598 254.12 168.106 253.988 167.666 253.724C167.226 253.452 166.878 253.088 166.622 252.632C166.366 252.168 166.238 251.648 166.238 251.072C166.238 250.496 166.358 249.98 166.598 249.524C166.846 249.068 167.178 248.708 167.594 248.444C168.01 248.18 168.474 248.048 168.986 248.048C169.506 248.048 169.966 248.18 170.366 248.444C170.774 248.7 171.094 249.052 171.326 249.5C171.566 249.94 171.686 250.44 171.686 251V251.264H167.09C167.122 251.664 167.23 252.024 167.414 252.344C167.606 252.656 167.854 252.904 168.158 253.088C168.47 253.264 168.81 253.352 169.178 253.352C169.482 253.352 169.774 253.3 170.054 253.196C170.342 253.084 170.586 252.936 170.786 252.752L171.338 253.34C171.002 253.604 170.654 253.8 170.294 253.928C169.934 254.056 169.55 254.12 169.142 254.12ZM167.114 250.64H170.822C170.782 250.288 170.674 249.976 170.498 249.704C170.33 249.424 170.114 249.204 169.85 249.044C169.594 248.884 169.306 248.804 168.986 248.804C168.666 248.804 168.374 248.884 168.11 249.044C167.846 249.196 167.626 249.412 167.45 249.692C167.282 249.964 167.17 250.28 167.114 250.64ZM173.181 254V245.336L174.057 245.156V254H173.181ZM178.99 254L183.166 246.356H178.126V245.6H184.102V246.272L179.974 254H178.99Z" fill="#151515"/>
<path d="M201 250C201 242.82 206.82 237 214 237H245C252.18 237 258 242.82 258 250V250C258 257.18 252.18 263 245 263H214C206.82 263 201 257.18 201 250V250Z" fill="#E0E0E0"/>
<path d="M210.068 254V245.6H210.992V253.184H215.732V254H210.068ZM219.001 254.108C218.585 254.108 218.217 254.032 217.897 253.88C217.577 253.728 217.325 253.52 217.141 253.256C216.965 252.984 216.877 252.672 216.877 252.32C216.877 251.968 216.969 251.664 217.153 251.408C217.337 251.144 217.593 250.94 217.921 250.796C218.249 250.652 218.633 250.58 219.073 250.58C219.409 250.58 219.725 250.616 220.021 250.688C220.325 250.76 220.605 250.876 220.861 251.036V250.232C220.861 249.752 220.733 249.392 220.477 249.152C220.221 248.904 219.845 248.78 219.349 248.78C219.077 248.78 218.797 248.82 218.509 248.9C218.229 248.98 217.917 249.108 217.573 249.284L217.249 248.612C218.033 248.236 218.769 248.048 219.457 248.048C220.185 248.048 220.745 248.228 221.137 248.588C221.529 248.94 221.725 249.448 221.725 250.112V254H220.861V253.316C220.605 253.58 220.321 253.78 220.009 253.916C219.697 254.044 219.361 254.108 219.001 254.108ZM217.717 252.296C217.717 252.64 217.849 252.916 218.113 253.124C218.385 253.332 218.741 253.436 219.181 253.436C219.509 253.436 219.809 253.38 220.081 253.268C220.361 253.156 220.621 252.988 220.861 252.764V251.636C220.613 251.492 220.357 251.388 220.093 251.324C219.829 251.252 219.533 251.216 219.205 251.216C218.757 251.216 218.397 251.316 218.125 251.516C217.853 251.708 217.717 251.968 217.717 252.296ZM223.505 254V245.42L224.381 245.24V248.948C224.605 248.668 224.877 248.452 225.197 248.3C225.517 248.148 225.873 248.072 226.265 248.072C226.777 248.072 227.233 248.208 227.633 248.48C228.041 248.744 228.365 249.104 228.605 249.56C228.845 250.008 228.965 250.512 228.965 251.072C228.965 251.632 228.841 252.14 228.593 252.596C228.353 253.052 228.025 253.416 227.609 253.688C227.201 253.952 226.737 254.084 226.217 254.084C225.849 254.084 225.505 254.012 225.185 253.868C224.873 253.716 224.601 253.504 224.369 253.232V254H223.505ZM226.049 253.328C226.441 253.328 226.789 253.232 227.093 253.04C227.405 252.84 227.649 252.572 227.825 252.236C228.009 251.892 228.101 251.508 228.101 251.084C228.101 250.652 228.009 250.268 227.825 249.932C227.649 249.596 227.405 249.332 227.093 249.14C226.789 248.94 226.441 248.84 226.049 248.84C225.705 248.84 225.385 248.912 225.089 249.056C224.801 249.192 224.565 249.388 224.381 249.644V252.512C224.573 252.768 224.813 252.968 225.101 253.112C225.397 253.256 225.713 253.328 226.049 253.328ZM233.142 254.12C232.598 254.12 232.106 253.988 231.666 253.724C231.226 253.452 230.878 253.088 230.622 252.632C230.366 252.168 230.238 251.648 230.238 251.072C230.238 250.496 230.358 249.98 230.598 249.524C230.846 249.068 231.178 248.708 231.594 248.444C232.01 248.18 232.474 248.048 232.986 248.048C233.506 248.048 233.966 248.18 234.366 248.444C234.774 248.7 235.094 249.052 235.326 249.5C235.566 249.94 235.686 250.44 235.686 251V251.264H231.09C231.122 251.664 231.23 252.024 231.414 252.344C231.606 252.656 231.854 252.904 232.158 253.088C232.47 253.264 232.81 253.352 233.178 253.352C233.482 253.352 233.774 253.3 234.054 253.196C234.342 253.084 234.586 252.936 234.786 252.752L235.338 253.34C235.002 253.604 234.654 253.8 234.294 253.928C233.934 254.056 233.55 254.12 233.142 254.12ZM231.114 250.64H234.822C234.782 250.288 234.674 249.976 234.498 249.704C234.33 249.424 234.114 249.204 233.85 249.044C233.594 248.884 233.306 248.804 232.986 248.804C232.666 248.804 232.374 248.884 232.11 249.044C231.846 249.196 231.626 249.412 231.45 249.692C231.282 249.964 231.17 250.28 231.114 250.64ZM237.181 254V245.336L238.057 245.156V254H237.181ZM245.438 254.132C244.862 254.132 244.35 254.028 243.902 253.82C243.454 253.612 243.098 253.328 242.834 252.968C242.578 252.6 242.45 252.188 242.45 251.732C242.45 251.388 242.534 251.072 242.702 250.784C242.87 250.488 243.102 250.236 243.398 250.028C243.702 249.812 244.046 249.66 244.43 249.572C243.942 249.436 243.542 249.192 243.23 248.84C242.926 248.488 242.774 248.092 242.774 247.652C242.774 247.236 242.89 246.864 243.122 246.536C243.354 246.208 243.67 245.948 244.07 245.756C244.478 245.564 244.934 245.468 245.438 245.468C245.95 245.468 246.406 245.564 246.806 245.756C247.206 245.948 247.522 246.208 247.754 246.536C247.986 246.864 248.102 247.236 248.102 247.652C248.102 248.092 247.95 248.488 247.646 248.84C247.342 249.192 246.942 249.436 246.446 249.572C247.03 249.708 247.506 249.976 247.874 250.376C248.242 250.768 248.426 251.22 248.426 251.732C248.426 252.188 248.298 252.6 248.042 252.968C247.786 253.328 247.43 253.612 246.974 253.82C246.526 254.028 246.014 254.132 245.438 254.132ZM245.438 249.212C245.782 249.212 246.09 249.144 246.362 249.008C246.642 248.872 246.862 248.692 247.022 248.468C247.182 248.236 247.262 247.976 247.262 247.688C247.262 247.4 247.182 247.14 247.022 246.908C246.862 246.676 246.642 246.496 246.362 246.368C246.09 246.232 245.782 246.164 245.438 246.164C245.094 246.164 244.782 246.232 244.502 246.368C244.23 246.496 244.014 246.676 243.854 246.908C243.694 247.14 243.614 247.4 243.614 247.688C243.614 247.976 243.694 248.236 243.854 248.468C244.014 248.692 244.23 248.872 244.502 249.008C244.782 249.144 245.094 249.212 245.438 249.212ZM245.438 253.436C245.846 253.436 246.21 253.36 246.53 253.208C246.85 253.056 247.102 252.848 247.286 252.584C247.478 252.32 247.574 252.024 247.574 251.696C247.574 251.368 247.478 251.072 247.286 250.808C247.102 250.544 246.85 250.336 246.53 250.184C246.21 250.032 245.846 249.956 245.438 249.956C245.03 249.956 244.666 250.032 244.346 250.184C244.026 250.336 243.77 250.544 243.578 250.808C243.394 251.072 243.302 251.368 243.302 251.696C243.302 252.024 243.394 252.32 243.578 252.584C243.77 252.848 244.026 253.056 244.346 253.208C244.666 253.36 245.03 253.436 245.438 253.436Z" fill="#151515"/>
<path d="M266 250C266 242.82 271.82 237 279 237H310C317.18 237 323 242.82 323 250V250C323 257.18 317.18 263 310 263H279C271.82 263 266 257.18 266 250V250Z" fill="#E0E0E0"/>
<path d="M275.068 254V245.6H275.992V253.184H280.732V254H275.068ZM284.001 254.108C283.585 254.108 283.217 254.032 282.897 253.88C282.577 253.728 282.325 253.52 282.141 253.256C281.965 252.984 281.877 252.672 281.877 252.32C281.877 251.968 281.969 251.664 282.153 251.408C282.337 251.144 282.593 250.94 282.921 250.796C283.249 250.652 283.633 250.58 284.073 250.58C284.409 250.58 284.725 250.616 285.021 250.688C285.325 250.76 285.605 250.876 285.861 251.036V250.232C285.861 249.752 285.733 249.392 285.477 249.152C285.221 248.904 284.845 248.78 284.349 248.78C284.077 248.78 283.797 248.82 283.509 248.9C283.229 248.98 282.917 249.108 282.573 249.284L282.249 248.612C283.033 248.236 283.769 248.048 284.457 248.048C285.185 248.048 285.745 248.228 286.137 248.588C286.529 248.94 286.725 249.448 286.725 250.112V254H285.861V253.316C285.605 253.58 285.321 253.78 285.009 253.916C284.697 254.044 284.361 254.108 284.001 254.108ZM282.717 252.296C282.717 252.64 282.849 252.916 283.113 253.124C283.385 253.332 283.741 253.436 284.181 253.436C284.509 253.436 284.809 253.38 285.081 253.268C285.361 253.156 285.621 252.988 285.861 252.764V251.636C285.613 251.492 285.357 251.388 285.093 251.324C284.829 251.252 284.533 251.216 284.205 251.216C283.757 251.216 283.397 251.316 283.125 251.516C282.853 251.708 282.717 251.968 282.717 252.296ZM288.505 254V245.42L289.381 245.24V248.948C289.605 248.668 289.877 248.452 290.197 248.3C290.517 248.148 290.873 248.072 291.265 248.072C291.777 248.072 292.233 248.208 292.633 248.48C293.041 248.744 293.365 249.104 293.605 249.56C293.845 250.008 293.965 250.512 293.965 251.072C293.965 251.632 293.841 252.14 293.593 252.596C293.353 253.052 293.025 253.416 292.609 253.688C292.201 253.952 291.737 254.084 291.217 254.084C290.849 254.084 290.505 254.012 290.185 253.868C289.873 253.716 289.601 253.504 289.369 253.232V254H288.505ZM291.049 253.328C291.441 253.328 291.789 253.232 292.093 253.04C292.405 252.84 292.649 252.572 292.825 252.236C293.009 251.892 293.101 251.508 293.101 251.084C293.101 250.652 293.009 250.268 292.825 249.932C292.649 249.596 292.405 249.332 292.093 249.14C291.789 248.94 291.441 248.84 291.049 248.84C290.705 248.84 290.385 248.912 290.089 249.056C289.801 249.192 289.565 249.388 289.381 249.644V252.512C289.573 252.768 289.813 252.968 290.101 253.112C290.397 253.256 290.713 253.328 291.049 253.328ZM298.142 254.12C297.598 254.12 297.106 253.988 296.666 253.724C296.226 253.452 295.878 253.088 295.622 252.632C295.366 252.168 295.238 251.648 295.238 251.072C295.238 250.496 295.358 249.98 295.598 249.524C295.846 249.068 296.178 248.708 296.594 248.444C297.01 248.18 297.474 248.048 297.986 248.048C298.506 248.048 298.966 248.18 299.366 248.444C299.774 248.7 300.094 249.052 300.326 249.5C300.566 249.94 300.686 250.44 300.686 251V251.264H296.09C296.122 251.664 296.23 252.024 296.414 252.344C296.606 252.656 296.854 252.904 297.158 253.088C297.47 253.264 297.81 253.352 298.178 253.352C298.482 253.352 298.774 253.3 299.054 253.196C299.342 253.084 299.586 252.936 299.786 252.752L300.338 253.34C300.002 253.604 299.654 253.8 299.294 253.928C298.934 254.056 298.55 254.12 298.142 254.12ZM296.114 250.64H299.822C299.782 250.288 299.674 249.976 299.498 249.704C299.33 249.424 299.114 249.204 298.85 249.044C298.594 248.884 298.306 248.804 297.986 248.804C297.666 248.804 297.374 248.884 297.11 249.044C296.846 249.196 296.626 249.412 296.45 249.692C296.282 249.964 296.17 250.28 296.114 250.64ZM302.181 254V245.336L303.057 245.156V254H302.181ZM310.21 245.468C310.858 245.468 311.426 245.64 311.914 245.984C312.41 246.328 312.798 246.804 313.078 247.412C313.358 248.012 313.498 248.708 313.498 249.5C313.498 250.428 313.342 251.24 313.03 251.936C312.718 252.624 312.278 253.16 311.71 253.544C311.15 253.928 310.49 254.12 309.73 254.12C309.386 254.12 309.038 254.072 308.686 253.976C308.342 253.872 308.034 253.732 307.762 253.556L308.194 252.884C308.442 253.028 308.702 253.14 308.974 253.22C309.254 253.3 309.53 253.34 309.802 253.34C310.378 253.34 310.874 253.192 311.29 252.896C311.714 252.592 312.042 252.16 312.274 251.6C312.506 251.032 312.626 250.36 312.634 249.584C312.322 249.984 311.95 250.296 311.518 250.52C311.086 250.744 310.638 250.856 310.174 250.856C309.63 250.856 309.146 250.744 308.722 250.52C308.298 250.288 307.966 249.976 307.726 249.584C307.486 249.192 307.366 248.744 307.366 248.24C307.366 247.704 307.49 247.228 307.738 246.812C307.986 246.396 308.322 246.068 308.746 245.828C309.178 245.588 309.666 245.468 310.21 245.468ZM310.294 250.148C310.734 250.148 311.154 250.04 311.554 249.824C311.962 249.6 312.314 249.296 312.61 248.912C312.554 248.368 312.418 247.896 312.202 247.496C311.986 247.096 311.71 246.784 311.374 246.56C311.038 246.336 310.654 246.224 310.222 246.224C309.838 246.224 309.494 246.312 309.19 246.488C308.894 246.656 308.658 246.892 308.482 247.196C308.314 247.492 308.23 247.832 308.23 248.216C308.23 248.592 308.318 248.928 308.494 249.224C308.67 249.512 308.91 249.74 309.214 249.908C309.526 250.068 309.886 250.148 310.294 250.148Z" fill="#151515"/>
</g>
<path d="M72 305.5C72 295.283 80.2827 287 90.5 287H132.5C142.717 287 151 295.283 151 305.5C151 315.717 142.717 324 132.5 324H90.5C80.2827 324 72 315.717 72 305.5Z" fill="#0066CC"/>
<path d="M100.41 310.154C99.6447 310.154 98.9353 310.019 98.282 309.748C97.6287 309.468 96.9987 309.048 96.392 308.488L97.05 307.704C97.638 308.255 98.1887 308.647 98.702 308.88C99.2247 309.113 99.8033 309.23 100.438 309.23C100.942 309.23 101.39 309.146 101.782 308.978C102.183 308.801 102.496 308.563 102.72 308.264C102.944 307.965 103.056 307.625 103.056 307.242C103.056 306.747 102.893 306.374 102.566 306.122C102.239 305.861 101.675 305.66 100.872 305.52L99.29 305.254C98.394 305.095 97.736 304.825 97.316 304.442C96.9053 304.05 96.7 303.527 96.7 302.874C96.7 302.323 96.84 301.838 97.12 301.418C97.4093 300.989 97.806 300.653 98.31 300.41C98.814 300.167 99.3973 300.046 100.06 300.046C100.788 300.046 101.465 300.149 102.09 300.354C102.715 300.55 103.331 300.863 103.938 301.292L103.378 302.132C102.874 301.749 102.342 301.46 101.782 301.264C101.222 301.059 100.653 300.956 100.074 300.956C99.6167 300.956 99.2107 301.035 98.856 301.194C98.5107 301.353 98.2353 301.567 98.03 301.838C97.834 302.109 97.736 302.417 97.736 302.762C97.736 303.191 97.8807 303.527 98.17 303.77C98.4593 304.013 98.9307 304.185 99.584 304.288L101.152 304.554C102.197 304.741 102.953 305.044 103.42 305.464C103.896 305.875 104.134 306.449 104.134 307.186C104.134 307.755 103.971 308.264 103.644 308.712C103.327 309.16 102.888 309.515 102.328 309.776C101.768 310.028 101.129 310.154 100.41 310.154ZM108.092 310.126C107.606 310.126 107.177 310.037 106.804 309.86C106.43 309.683 106.136 309.44 105.922 309.132C105.716 308.815 105.614 308.451 105.614 308.04C105.614 307.629 105.721 307.275 105.936 306.976C106.15 306.668 106.449 306.43 106.832 306.262C107.214 306.094 107.662 306.01 108.176 306.01C108.568 306.01 108.936 306.052 109.282 306.136C109.636 306.22 109.963 306.355 110.262 306.542V305.604C110.262 305.044 110.112 304.624 109.814 304.344C109.515 304.055 109.076 303.91 108.498 303.91C108.18 303.91 107.854 303.957 107.518 304.05C107.191 304.143 106.827 304.293 106.426 304.498L106.048 303.714C106.962 303.275 107.821 303.056 108.624 303.056C109.473 303.056 110.126 303.266 110.584 303.686C111.041 304.097 111.27 304.689 111.27 305.464V310H110.262V309.202C109.963 309.51 109.632 309.743 109.268 309.902C108.904 310.051 108.512 310.126 108.092 310.126ZM106.594 308.012C106.594 308.413 106.748 308.735 107.056 308.978C107.373 309.221 107.788 309.342 108.302 309.342C108.684 309.342 109.034 309.277 109.352 309.146C109.678 309.015 109.982 308.819 110.262 308.558V307.242C109.972 307.074 109.674 306.953 109.366 306.878C109.058 306.794 108.712 306.752 108.33 306.752C107.807 306.752 107.387 306.869 107.07 307.102C106.752 307.326 106.594 307.629 106.594 308.012ZM115.033 310L112.233 303.168H113.339L115.551 308.726L117.735 303.168H118.827L116.013 310H115.033ZM122.962 310.14C122.327 310.14 121.753 309.986 121.24 309.678C120.727 309.361 120.321 308.936 120.022 308.404C119.723 307.863 119.574 307.256 119.574 306.584C119.574 305.912 119.714 305.31 119.994 304.778C120.283 304.246 120.671 303.826 121.156 303.518C121.641 303.21 122.183 303.056 122.78 303.056C123.387 303.056 123.923 303.21 124.39 303.518C124.866 303.817 125.239 304.227 125.51 304.75C125.79 305.263 125.93 305.847 125.93 306.5V306.808H120.568C120.605 307.275 120.731 307.695 120.946 308.068C121.17 308.432 121.459 308.721 121.814 308.936C122.178 309.141 122.575 309.244 123.004 309.244C123.359 309.244 123.699 309.183 124.026 309.062C124.362 308.931 124.647 308.759 124.88 308.544L125.524 309.23C125.132 309.538 124.726 309.767 124.306 309.916C123.886 310.065 123.438 310.14 122.962 310.14ZM120.596 306.08H124.922C124.875 305.669 124.749 305.305 124.544 304.988C124.348 304.661 124.096 304.405 123.788 304.218C123.489 304.031 123.153 303.938 122.78 303.938C122.407 303.938 122.066 304.031 121.758 304.218C121.45 304.395 121.193 304.647 120.988 304.974C120.792 305.291 120.661 305.66 120.596 306.08Z" fill="white"/>
<path d="M180.768 310.154C180.068 310.154 179.415 310.028 178.808 309.776C178.211 309.515 177.683 309.155 177.226 308.698C176.769 308.231 176.414 307.695 176.162 307.088C175.91 306.472 175.784 305.809 175.784 305.1C175.784 304.391 175.91 303.733 176.162 303.126C176.414 302.51 176.769 301.973 177.226 301.516C177.683 301.049 178.211 300.69 178.808 300.438C179.415 300.177 180.068 300.046 180.768 300.046C181.253 300.046 181.715 300.111 182.154 300.242C182.602 300.363 183.022 300.545 183.414 300.788C183.806 301.021 184.156 301.311 184.464 301.656L183.75 302.398C183.386 301.959 182.938 301.623 182.406 301.39C181.883 301.147 181.337 301.026 180.768 301.026C180.217 301.026 179.704 301.129 179.228 301.334C178.752 301.539 178.337 301.829 177.982 302.202C177.637 302.575 177.366 303.009 177.17 303.504C176.974 303.989 176.876 304.521 176.876 305.1C176.876 305.669 176.974 306.201 177.17 306.696C177.366 307.191 177.637 307.625 177.982 307.998C178.337 308.371 178.752 308.661 179.228 308.866C179.704 309.071 180.217 309.174 180.768 309.174C181.337 309.174 181.883 309.053 182.406 308.81C182.938 308.567 183.386 308.231 183.75 307.802L184.464 308.544C184.156 308.889 183.806 309.183 183.414 309.426C183.022 309.659 182.602 309.841 182.154 309.972C181.715 310.093 181.253 310.154 180.768 310.154ZM188.322 310.126C187.837 310.126 187.408 310.037 187.034 309.86C186.661 309.683 186.367 309.44 186.152 309.132C185.947 308.815 185.844 308.451 185.844 308.04C185.844 307.629 185.952 307.275 186.166 306.976C186.381 306.668 186.68 306.43 187.062 306.262C187.445 306.094 187.893 306.01 188.406 306.01C188.798 306.01 189.167 306.052 189.512 306.136C189.867 306.22 190.194 306.355 190.492 306.542V305.604C190.492 305.044 190.343 304.624 190.044 304.344C189.746 304.055 189.307 303.91 188.728 303.91C188.411 303.91 188.084 303.957 187.748 304.05C187.422 304.143 187.058 304.293 186.656 304.498L186.278 303.714C187.193 303.275 188.052 303.056 188.854 303.056C189.704 303.056 190.357 303.266 190.814 303.686C191.272 304.097 191.5 304.689 191.5 305.464V310H190.492V309.202C190.194 309.51 189.862 309.743 189.498 309.902C189.134 310.051 188.742 310.126 188.322 310.126ZM186.824 308.012C186.824 308.413 186.978 308.735 187.286 308.978C187.604 309.221 188.019 309.342 188.532 309.342C188.915 309.342 189.265 309.277 189.582 309.146C189.909 309.015 190.212 308.819 190.492 308.558V307.242C190.203 307.074 189.904 306.953 189.596 306.878C189.288 306.794 188.943 306.752 188.56 306.752C188.038 306.752 187.618 306.869 187.3 307.102C186.983 307.326 186.824 307.629 186.824 308.012ZM193.577 310V303.168H194.599V304.274C194.861 303.863 195.173 303.56 195.537 303.364C195.901 303.159 196.312 303.056 196.769 303.056C197.264 303.056 197.693 303.163 198.057 303.378C198.431 303.583 198.72 303.877 198.925 304.26C199.14 304.633 199.247 305.072 199.247 305.576V310H198.225V305.87C198.225 305.263 198.057 304.787 197.721 304.442C197.395 304.087 196.951 303.91 196.391 303.91C196.018 303.91 195.677 303.999 195.369 304.176C195.061 304.353 194.805 304.615 194.599 304.96V310H193.577ZM204.368 310.112C203.733 310.112 203.159 309.958 202.646 309.65C202.142 309.333 201.741 308.908 201.442 308.376C201.143 307.835 200.994 307.237 200.994 306.584C200.994 305.921 201.143 305.324 201.442 304.792C201.741 304.26 202.142 303.84 202.646 303.532C203.159 303.215 203.733 303.056 204.368 303.056C204.872 303.056 205.353 303.149 205.81 303.336C206.267 303.523 206.664 303.784 207 304.12L206.342 304.834C206.099 304.563 205.805 304.353 205.46 304.204C205.115 304.055 204.765 303.98 204.41 303.98C203.962 303.98 203.556 304.097 203.192 304.33C202.837 304.563 202.553 304.876 202.338 305.268C202.123 305.66 202.016 306.099 202.016 306.584C202.016 307.069 202.123 307.508 202.338 307.9C202.553 308.292 202.837 308.605 203.192 308.838C203.556 309.071 203.962 309.188 204.41 309.188C204.765 309.188 205.115 309.113 205.46 308.964C205.805 308.805 206.099 308.595 206.342 308.334L207 309.048C206.664 309.384 206.267 309.645 205.81 309.832C205.353 310.019 204.872 310.112 204.368 310.112ZM211.3 310.14C210.665 310.14 210.091 309.986 209.578 309.678C209.065 309.361 208.659 308.936 208.36 308.404C208.061 307.863 207.912 307.256 207.912 306.584C207.912 305.912 208.052 305.31 208.332 304.778C208.621 304.246 209.009 303.826 209.494 303.518C209.979 303.21 210.521 303.056 211.118 303.056C211.725 303.056 212.261 303.21 212.728 303.518C213.204 303.817 213.577 304.227 213.848 304.75C214.128 305.263 214.268 305.847 214.268 306.5V306.808H208.906C208.943 307.275 209.069 307.695 209.284 308.068C209.508 308.432 209.797 308.721 210.152 308.936C210.516 309.141 210.913 309.244 211.342 309.244C211.697 309.244 212.037 309.183 212.364 309.062C212.7 308.931 212.985 308.759 213.218 308.544L213.862 309.23C213.47 309.538 213.064 309.767 212.644 309.916C212.224 310.065 211.776 310.14 211.3 310.14ZM208.934 306.08H213.26C213.213 305.669 213.087 305.305 212.882 304.988C212.686 304.661 212.434 304.405 212.126 304.218C211.827 304.031 211.491 303.938 211.118 303.938C210.745 303.938 210.404 304.031 210.096 304.218C209.788 304.395 209.531 304.647 209.326 304.974C209.13 305.291 208.999 305.66 208.934 306.08ZM216.013 310V299.892L217.035 299.682V310H216.013Z" fill="#0066CC"/>
</g>
<defs>
<filter id="filter0_d_1767_143955" x="20" y="14" width="425" height="372" filterUnits="userSpaceOnUse" color-interpolation-filters="sRGB">
<feFlood flood-opacity="0" result="BackgroundImageFix"/>
<feColorMatrix in="SourceAlpha" type="matrix" values="0 0 0 0 0 0 0 0 0 0 0 0 0 0 0 0 0 0 127 0" result="hardAlpha"/>
<feOffset dy="10"/>
<feGaussianBlur stdDeviation="10"/>
<feColorMatrix type="matrix" values="0 0 0 0 0.160784 0 0 0 0 0.160784 0 0 0 0 0.160784 0 0 0 0.15 0"/>
<feBlend mode="normal" in2="BackgroundImageFix" result="effect1_dropShadow_1767_143955"/>
<feBlend mode="normal" in="SourceGraphic" in2="effect1_dropShadow_1767_143955" result="shape"/>
</filter>
<clipPath id="clip0_1767_143955">
<rect width="465" height="380" fill="white"/>
</clipPath>
</defs>
</svg>
