<svg width="434" height="108" viewBox="0 0 434 108" fill="none" xmlns="http://www.w3.org/2000/svg">
<rect width="434" height="108" fill="#F2F2F2"/>
<path d="M64 40C64 37.7909 65.7909 36 68 36H103C105.209 36 107 37.7909 107 40C107 42.2091 105.209 44 103 44H68C65.7909 44 64 42.2091 64 40Z" fill="#4D4D4D"/>
<path d="M115 40C115 37.7909 116.791 36 119 36H177C179.209 36 181 37.7909 181 40C181 42.2091 179.209 44 177 44H119C116.791 44 115 42.2091 115 40Z" fill="#4D4D4D"/>
<mask id="path-3-inside-1_1396_50163" fill="white">
<path d="M40 66C40 63.7909 41.7909 62 44 62H52C54.2091 62 56 63.7909 56 66V74C56 76.2091 54.2091 78 52 78H44C41.7909 78 40 76.2091 40 74V66Z"/>
</mask>
<path d="M40 66C40 63.7909 41.7909 62 44 62H52C54.2091 62 56 63.7909 56 66V74C56 76.2091 54.2091 78 52 78H44C41.7909 78 40 76.2091 40 74V66Z" fill="white"/>
<path d="M44 62V63H52V62V61H44V62ZM56 66H55V74H56H57V66H56ZM52 78V77H44V78V79H52V78ZM40 74H41V66H40H39V74H40ZM44 78V77C42.3431 77 41 75.6569 41 74H40H39C39 76.7614 41.2386 79 44 79V78ZM56 74H55C55 75.6569 53.6569 77 52 77V78V79C54.7614 79 57 76.7614 57 74H56ZM52 62V63C53.6569 63 55 64.3431 55 66H56H57C57 63.2386 54.7614 61 52 61V62ZM44 62V61C41.2386 61 39 63.2386 39 66H40H41C41 64.3431 42.3431 63 44 63V62Z" fill="#C7C7C7" mask="url(#path-3-inside-1_1396_50163)"/>
<path d="M40 36.5C40 34.2909 41.7909 32.5 44 32.5H52C54.2091 32.5 56 34.2909 56 36.5V44.5C56 46.7091 54.2091 48.5 52 48.5H44C41.7909 48.5 40 46.7091 40 44.5V36.5Z" fill="#0066CC"/>
<path d="M52.127 36.1757C52.3613 35.9414 52.7413 35.9414 52.9756 36.1757L53.8242 37.0244C54.0584 37.2587 54.0585 37.6387 53.8242 37.873L46.9238 44.7724C46.6895 45.0067 46.3095 45.0067 46.0752 44.7724L42.1758 40.873C41.9415 40.6387 41.9415 40.2587 42.1758 40.0244L43.0244 39.1757C43.2587 38.9415 43.6388 38.9414 43.873 39.1757L46.5 41.8027L52.127 36.1757Z" fill="white"/>
<path d="M64 69.5C64 67.2909 65.7909 65.5 68 65.5H131C133.209 65.5 135 67.2909 135 69.5C135 71.7091 133.209 73.5 131 73.5H68C65.7909 73.5 64 71.7091 64 69.5Z" fill="#4D4D4D"/>
<path d="M143 69.5C143 67.2909 144.791 65.5 147 65.5H197C199.209 65.5 201 67.2909 201 69.5C201 71.7091 199.209 73.5 197 73.5H147C144.791 73.5 143 71.7091 143 69.5Z" fill="#4D4D4D"/>
<path d="M257 40C257 37.7909 258.791 36 261 36H296C298.209 36 300 37.7909 300 40C300 42.2091 298.209 44 296 44H261C258.791 44 257 42.2091 257 40Z" fill="#4D4D4D"/>
<path d="M308 40C308 37.7909 309.791 36 312 36H370C372.209 36 374 37.7909 374 40C374 42.2091 372.209 44 370 44H312C309.791 44 308 42.2091 308 40Z" fill="#4D4D4D"/>
<mask id="path-11-inside-2_1396_50163" fill="white">
<path d="M233 66C233 63.7909 234.791 62 237 62H245C247.209 62 249 63.7909 249 66V74C249 76.2091 247.209 78 245 78H237C234.791 78 233 76.2091 233 74V66Z"/>
</mask>
<path d="M233 66C233 63.7909 234.791 62 237 62H245C247.209 62 249 63.7909 249 66V74C249 76.2091 247.209 78 245 78H237C234.791 78 233 76.2091 233 74V66Z" fill="white"/>
<path d="M237 62V63H245V62V61H237V62ZM249 66H248V74H249H250V66H249ZM245 78V77H237V78V79H245V78ZM233 74H234V66H233H232V74H233ZM237 78V77C235.343 77 234 75.6569 234 74H233H232C232 76.7614 234.239 79 237 79V78ZM249 74H248C248 75.6569 246.657 77 245 77V78V79C247.761 79 250 76.7614 250 74H249ZM245 62V63C246.657 63 248 64.3431 248 66H249H250C250 63.2386 247.761 61 245 61V62ZM237 62V61C234.239 61 232 63.2386 232 66H233H234C234 64.3431 235.343 63 237 63V62Z" fill="#C7C7C7" mask="url(#path-11-inside-2_1396_50163)"/>
<path d="M233 36.5C233 34.2909 234.791 32.5 237 32.5H245C247.209 32.5 249 34.2909 249 36.5V44.5C249 46.7091 247.209 48.5 245 48.5H237C234.791 48.5 233 46.7091 233 44.5V36.5Z" fill="#0066CC"/>
<path d="M245.127 36.1757C245.361 35.9414 245.741 35.9414 245.976 36.1757L246.824 37.0244C247.058 37.2587 247.058 37.6387 246.824 37.873L239.924 44.7724C239.689 45.0067 239.309 45.0067 239.075 44.7724L235.176 40.873C234.941 40.6387 234.942 40.2587 235.176 40.0244L236.024 39.1757C236.259 38.9415 236.639 38.9414 236.873 39.1757L239.5 41.8027L245.127 36.1757Z" fill="white"/>
<path d="M257 69.5C257 67.2909 258.791 65.5 261 65.5H324C326.209 65.5 328 67.2909 328 69.5C328 71.7091 326.209 73.5 324 73.5H261C258.791 73.5 257 71.7091 257 69.5Z" fill="#4D4D4D"/>
<path d="M336 69.5C336 67.2909 337.791 65.5 340 65.5H390C392.209 65.5 394 67.2909 394 69.5C394 71.7091 392.209 73.5 390 73.5H340C337.791 73.5 336 71.7091 336 69.5Z" fill="#4D4D4D"/>
</svg>
