<svg width="241" height="166" viewBox="0 0 241 166" fill="none" xmlns="http://www.w3.org/2000/svg">
<rect width="241" height="166" fill="#F2F2F2"/>
<path d="M64 40C64 37.7909 65.7909 36 68 36H103C105.209 36 107 37.7909 107 40C107 42.2091 105.209 44 103 44H68C65.7909 44 64 42.2091 64 40Z" fill="#4D4D4D"/>
<path d="M115 40C115 37.7909 116.791 36 119 36H177C179.209 36 181 37.7909 181 40C181 42.2091 179.209 44 177 44H119C116.791 44 115 42.2091 115 40Z" fill="#4D4D4D"/>
<mask id="path-3-inside-1_1396_50076" fill="white">
<path d="M40 66C40 63.7909 41.7909 62 44 62H52C54.2091 62 56 63.7909 56 66V74C56 76.2091 54.2091 78 52 78H44C41.7909 78 40 76.2091 40 74V66Z"/>
</mask>
<path d="M40 66C40 63.7909 41.7909 62 44 62H52C54.2091 62 56 63.7909 56 66V74C56 76.2091 54.2091 78 52 78H44C41.7909 78 40 76.2091 40 74V66Z" fill="white"/>
<path d="M44 62V63H52V62V61H44V62ZM56 66H55V74H56H57V66H56ZM52 78V77H44V78V79H52V78ZM40 74H41V66H40H39V74H40ZM44 78V77C42.3431 77 41 75.6569 41 74H40H39C39 76.7614 41.2386 79 44 79V78ZM56 74H55C55 75.6569 53.6569 77 52 77V78V79C54.7614 79 57 76.7614 57 74H56ZM52 62V63C53.6569 63 55 64.3431 55 66H56H57C57 63.2386 54.7614 61 52 61V62ZM44 62V61C41.2386 61 39 63.2386 39 66H40H41C41 64.3431 42.3431 63 44 63V62Z" fill="#C7C7C7" mask="url(#path-3-inside-1_1396_50076)"/>
<path d="M40 36.5C40 34.2909 41.7909 32.5 44 32.5H52C54.2091 32.5 56 34.2909 56 36.5V44.5C56 46.7091 54.2091 48.5 52 48.5H44C41.7909 48.5 40 46.7091 40 44.5V36.5Z" fill="#0066CC"/>
<path d="M52.1269 36.1757C52.3612 35.9414 52.7412 35.9414 52.9755 36.1757L53.8241 37.0243C54.0584 37.2587 54.0584 37.6387 53.8241 37.873L46.9237 44.7724C46.6894 45.0066 46.3104 45.0066 46.0761 44.7724L42.1757 40.873C41.9414 40.6387 41.9415 40.2587 42.1757 40.0243L43.0243 39.1757C43.2586 38.9414 43.6387 38.9414 43.873 39.1757L46.4999 41.8027L52.1269 36.1757Z" fill="white"/>
<path d="M64 69.5C64 67.2909 65.7909 65.5 68 65.5H131C133.209 65.5 135 67.2909 135 69.5C135 71.7091 133.209 73.5 131 73.5H68C65.7909 73.5 64 71.7091 64 69.5Z" fill="#4D4D4D"/>
<path d="M143 69.5C143 67.2909 144.791 65.5 147 65.5H197C199.209 65.5 201 67.2909 201 69.5C201 71.7091 199.209 73.5 197 73.5H147C144.791 73.5 143 71.7091 143 69.5Z" fill="#4D4D4D"/>
<path d="M64 98C64 95.7909 65.7909 94 68 94H103C105.209 94 107 95.7909 107 98C107 100.209 105.209 102 103 102H68C65.7909 102 64 100.209 64 98Z" fill="#4D4D4D"/>
<path d="M115 98C115 95.7909 116.791 94 119 94H177C179.209 94 181 95.7909 181 98C181 100.209 179.209 102 177 102H119C116.791 102 115 100.209 115 98Z" fill="#4D4D4D"/>
<mask id="path-11-inside-2_1396_50076" fill="white">
<path d="M40 124C40 121.791 41.7909 120 44 120H52C54.2091 120 56 121.791 56 124V132C56 134.209 54.2091 136 52 136H44C41.7909 136 40 134.209 40 132V124Z"/>
</mask>
<path d="M40 124C40 121.791 41.7909 120 44 120H52C54.2091 120 56 121.791 56 124V132C56 134.209 54.2091 136 52 136H44C41.7909 136 40 134.209 40 132V124Z" fill="white"/>
<path d="M44 120V121H52V120V119H44V120ZM56 124H55V132H56H57V124H56ZM52 136V135H44V136V137H52V136ZM40 132H41V124H40H39V132H40ZM44 136V135C42.3431 135 41 133.657 41 132H40H39C39 134.761 41.2386 137 44 137V136ZM56 132H55C55 133.657 53.6569 135 52 135V136V137C54.7614 137 57 134.761 57 132H56ZM52 120V121C53.6569 121 55 122.343 55 124H56H57C57 121.239 54.7614 119 52 119V120ZM44 120V119C41.2386 119 39 121.239 39 124H40H41C41 122.343 42.3431 121 44 121V120Z" fill="#C7C7C7" mask="url(#path-11-inside-2_1396_50076)"/>
<path d="M40 94.5C40 92.2909 41.7909 90.5 44 90.5H52C54.2091 90.5 56 92.2909 56 94.5V102.5C56 104.709 54.2091 106.5 52 106.5H44C41.7909 106.5 40 104.709 40 102.5V94.5Z" fill="#0066CC"/>
<path d="M52.1269 94.1757C52.3612 93.9414 52.7412 93.9414 52.9755 94.1757L53.8241 95.0243C54.0584 95.2587 54.0584 95.6387 53.8241 95.873L46.9237 102.772C46.6894 103.007 46.3104 103.007 46.0761 102.772L42.1757 98.873C41.9414 98.6387 41.9415 98.2587 42.1757 98.0243L43.0243 97.1757C43.2586 96.9414 43.6387 96.9414 43.873 97.1757L46.4999 99.8027L52.1269 94.1757Z" fill="white"/>
<path d="M64 127.5C64 125.291 65.7909 123.5 68 123.5H131C133.209 123.5 135 125.291 135 127.5C135 129.709 133.209 131.5 131 131.5H68C65.7909 131.5 64 129.709 64 127.5Z" fill="#4D4D4D"/>
<path d="M143 127.5C143 125.291 144.791 123.5 147 123.5H197C199.209 123.5 201 125.291 201 127.5C201 129.709 199.209 131.5 197 131.5H147C144.791 131.5 143 129.709 143 127.5Z" fill="#4D4D4D"/>
</svg>
