<svg width="1008" height="69" viewBox="0 0 1008 69" fill="none" xmlns="http://www.w3.org/2000/svg">
<g clip-path="url(#clip0_1824_24305)">
<rect width="1008" height="69" fill="white"/>
<rect width="1008" height="69" fill="white"/>
<mask id="path-1-inside-1_1824_24305" fill="white">
<path d="M16 22C16 18.6863 18.6863 16 22 16H64V53H22C18.6863 53 16 50.3137 16 47V22Z"/>
</mask>
<path d="M16 22C16 18.6863 18.6863 16 22 16H64V53H22C18.6863 53 16 50.3137 16 47V22Z" fill="white"/>
<path d="M64 16H65V15H64V16ZM64 53V54H65V53H64ZM22 16V17H64V16V15H22V16ZM64 16H63V53H64H65V16H64ZM64 53V52H22V53V54H64V53ZM16 47H17V22H16H15V47H16ZM22 53V52C19.2386 52 17 49.7614 17 47H16H15C15 50.866 18.134 54 22 54V53ZM22 16V15C18.134 15 15 18.134 15 22H16H17C17 19.2386 19.2386 17 22 17V16Z" fill="#C7C7C7" mask="url(#path-1-inside-1_1824_24305)"/>
<mask id="path-3-inside-2_1824_24305" fill="white">
<path d="M32 30.5C32 28.2909 33.7909 26.5 36 26.5H44C46.2091 26.5 48 28.2909 48 30.5V38.5C48 40.7091 46.2091 42.5 44 42.5H36C33.7909 42.5 32 40.7091 32 38.5V30.5Z"/>
</mask>
<path d="M32 30.5C32 28.2909 33.7909 26.5 36 26.5H44C46.2091 26.5 48 28.2909 48 30.5V38.5C48 40.7091 46.2091 42.5 44 42.5H36C33.7909 42.5 32 40.7091 32 38.5V30.5Z" fill="white"/>
<path d="M36 26.5V27.5H44V26.5V25.5H36V26.5ZM48 30.5H47V38.5H48H49V30.5H48ZM44 42.5V41.5H36V42.5V43.5H44V42.5ZM32 38.5H33V30.5H32H31V38.5H32ZM36 42.5V41.5C34.3431 41.5 33 40.1569 33 38.5H32H31C31 41.2614 33.2386 43.5 36 43.5V42.5ZM48 38.5H47C47 40.1569 45.6569 41.5 44 41.5V42.5V43.5C46.7614 43.5 49 41.2614 49 38.5H48ZM44 26.5V27.5C45.6569 27.5 47 28.8431 47 30.5H48H49C49 27.7386 46.7614 25.5 44 25.5V26.5ZM36 26.5V25.5C33.2386 25.5 31 27.7386 31 30.5H32H33C33 28.8431 34.3431 27.5 36 27.5V26.5Z" fill="#C7C7C7" mask="url(#path-3-inside-2_1824_24305)"/>
<mask id="path-5-inside-3_1824_24305" fill="white">
<path d="M63 16H103C106.314 16 109 18.6863 109 22V47C109 50.3137 106.314 53 103 53H63V16Z"/>
</mask>
<path d="M63 16H103C106.314 16 109 18.6863 109 22V47C109 50.3137 106.314 53 103 53H63V16Z" fill="white"/>
<path d="M63 16V15H62V16H63ZM63 53H62V54H63V53ZM63 16V17H103V16V15H63V16ZM109 22H108V47H109H110V22H109ZM103 53V52H63V53V54H103V53ZM63 53H64V16H63H62V53H63ZM109 47H108C108 49.7614 105.761 52 103 52V53V54C106.866 54 110 50.866 110 47H109ZM103 16V17C105.761 17 108 19.2386 108 22H109H110C110 18.134 106.866 15 103 15V16Z" fill="#C7C7C7" mask="url(#path-5-inside-3_1824_24305)"/>
<path d="M89.5343 32.167C90.0231 32.1673 90.2671 32.7618 89.9211 33.1104L86.3888 36.6719C86.1746 36.8874 85.8257 36.8874 85.6115 36.6719L82.0793 33.1104C81.7332 32.7618 81.9773 32.1673 82.466 32.167H89.5343Z" fill="#1F1F1F"/>
<path d="M131 16.5H324C327.038 16.5 329.5 18.9624 329.5 22V47C329.5 50.0376 327.038 52.5 324 52.5H131C127.962 52.5 125.5 50.0376 125.5 47V22C125.5 18.9624 127.962 16.5 131 16.5Z" fill="white"/>
<path d="M131 16.5H324C327.038 16.5 329.5 18.9624 329.5 22V47C329.5 50.0376 327.038 52.5 324 52.5H131C127.962 52.5 125.5 50.0376 125.5 47V22C125.5 18.9624 127.962 16.5 131 16.5Z" stroke="#C7C7C7"/>
<path d="M142.688 28C145.829 28 148.375 30.5457 148.375 33.6875C148.375 35.0082 147.927 36.2223 147.172 37.1875H147.617C147.792 37.1875 147.959 37.256 148.082 37.3789L150.809 40.1055C151.063 40.3625 151.063 40.7782 150.806 41.0352L150.032 41.8086C149.778 42.0656 149.363 42.0654 149.105 41.8086L146.379 39.082C146.256 38.959 146.188 38.7921 146.188 38.6172V38.1719C145.222 38.9265 144.008 39.375 142.688 39.375C139.546 39.375 137 36.8293 137 33.6875C137 30.5457 139.546 28 142.688 28ZM142.688 30.1875C140.752 30.1875 139.188 31.7543 139.188 33.6875C139.188 35.6234 140.754 37.1875 142.688 37.1875C144.623 37.1875 146.187 35.6207 146.188 33.6875C146.188 31.7516 144.621 30.1875 142.688 30.1875Z" fill="#1F1F1F"/>
<path d="M163.246 39V29.2H169.938V30.152H164.324V33.652H168.16V34.59H164.324V39H163.246ZM171.376 39V32.168H172.398V39H171.376ZM171.894 30.474C171.689 30.474 171.511 30.404 171.362 30.264C171.222 30.1147 171.152 29.942 171.152 29.746C171.152 29.55 171.222 29.382 171.362 29.242C171.511 29.0927 171.689 29.018 171.894 29.018C172.099 29.018 172.272 29.0927 172.412 29.242C172.561 29.382 172.636 29.55 172.636 29.746C172.636 29.942 172.561 30.1147 172.412 30.264C172.272 30.404 172.099 30.474 171.894 30.474ZM174.493 39V32.168H175.515V33.274C175.777 32.8633 176.089 32.56 176.453 32.364C176.817 32.1587 177.228 32.056 177.685 32.056C178.18 32.056 178.609 32.1633 178.973 32.378C179.347 32.5833 179.636 32.8773 179.841 33.26C180.056 33.6333 180.163 34.072 180.163 34.576V39H179.141V34.87C179.141 34.2633 178.973 33.7873 178.637 33.442C178.311 33.0873 177.867 32.91 177.307 32.91C176.934 32.91 176.593 32.9987 176.285 33.176C175.977 33.3533 175.721 33.6147 175.515 33.96V39H174.493ZM185.06 39.098C184.472 39.098 183.94 38.944 183.464 38.636C182.988 38.3187 182.61 37.8987 182.33 37.376C182.05 36.844 181.91 36.2513 181.91 35.598C181.91 34.9353 182.05 34.3427 182.33 33.82C182.619 33.288 183.007 32.868 183.492 32.56C183.977 32.2427 184.519 32.084 185.116 32.084C185.536 32.084 185.928 32.168 186.292 32.336C186.656 32.4947 186.973 32.728 187.244 33.036V28.892L188.266 28.682V39H187.244V38.09C186.983 38.4167 186.665 38.6687 186.292 38.846C185.919 39.014 185.508 39.098 185.06 39.098ZM185.312 38.202C185.713 38.202 186.082 38.1227 186.418 37.964C186.754 37.8053 187.029 37.5813 187.244 37.292V33.904C187.02 33.6147 186.735 33.3907 186.39 33.232C186.054 33.064 185.695 32.98 185.312 32.98C184.855 32.98 184.444 33.092 184.08 33.316C183.725 33.54 183.441 33.848 183.226 34.24C183.021 34.632 182.918 35.08 182.918 35.584C182.918 36.0787 183.021 36.5267 183.226 36.928C183.441 37.32 183.725 37.6327 184.08 37.866C184.444 38.09 184.855 38.202 185.312 38.202ZM193.634 39V28.99L194.656 28.78V33.106C194.917 32.7793 195.235 32.5273 195.608 32.35C195.981 32.1727 196.397 32.084 196.854 32.084C197.451 32.084 197.983 32.2427 198.45 32.56C198.926 32.868 199.304 33.288 199.584 33.82C199.864 34.3427 200.004 34.9307 200.004 35.584C200.004 36.2373 199.859 36.83 199.57 37.362C199.29 37.894 198.907 38.3187 198.422 38.636C197.946 38.944 197.405 39.098 196.798 39.098C196.369 39.098 195.967 39.014 195.594 38.846C195.23 38.6687 194.913 38.4213 194.642 38.104V39H193.634ZM196.602 38.216C197.059 38.216 197.465 38.104 197.82 37.88C198.184 37.6467 198.469 37.334 198.674 36.942C198.889 36.5407 198.996 36.0927 198.996 35.598C198.996 35.094 198.889 34.646 198.674 34.254C198.469 33.862 198.184 33.554 197.82 33.33C197.465 33.0967 197.059 32.98 196.602 32.98C196.201 32.98 195.827 33.064 195.482 33.232C195.146 33.3907 194.871 33.6193 194.656 33.918V37.264C194.88 37.5627 195.16 37.796 195.496 37.964C195.841 38.132 196.21 38.216 196.602 38.216ZM201.885 42.066C201.67 42.066 201.451 42.0333 201.227 41.968V41.058C201.32 41.0767 201.418 41.0907 201.521 41.1C201.624 41.1093 201.712 41.114 201.787 41.114C202.048 41.114 202.263 41.044 202.431 40.904C202.608 40.764 202.758 40.5447 202.879 40.246L203.383 39L200.751 32.168H201.885L203.957 37.782L206.155 32.168H207.289L203.845 40.554C203.696 40.918 203.532 41.212 203.355 41.436C203.178 41.66 202.972 41.8187 202.739 41.912C202.506 42.0147 202.221 42.066 201.885 42.066ZM211.831 39V32.168H212.853V33.274C213.115 32.8633 213.427 32.56 213.791 32.364C214.155 32.1587 214.566 32.056 215.023 32.056C215.518 32.056 215.947 32.1633 216.311 32.378C216.685 32.5833 216.974 32.8773 217.179 33.26C217.394 33.6333 217.501 34.072 217.501 34.576V39H216.479V34.87C216.479 34.2633 216.311 33.7873 215.975 33.442C215.649 33.0873 215.205 32.91 214.645 32.91C214.272 32.91 213.931 32.9987 213.623 33.176C213.315 33.3533 213.059 33.6147 212.853 33.96V39H211.831ZM221.67 39.126C221.185 39.126 220.755 39.0373 220.382 38.86C220.009 38.6827 219.715 38.44 219.5 38.132C219.295 37.8147 219.192 37.4507 219.192 37.04C219.192 36.6293 219.299 36.2747 219.514 35.976C219.729 35.668 220.027 35.43 220.41 35.262C220.793 35.094 221.241 35.01 221.754 35.01C222.146 35.01 222.515 35.052 222.86 35.136C223.215 35.22 223.541 35.3553 223.84 35.542V34.604C223.84 34.044 223.691 33.624 223.392 33.344C223.093 33.0547 222.655 32.91 222.076 32.91C221.759 32.91 221.432 32.9567 221.096 33.05C220.769 33.1433 220.405 33.2927 220.004 33.498L219.626 32.714C220.541 32.2753 221.399 32.056 222.202 32.056C223.051 32.056 223.705 32.266 224.162 32.686C224.619 33.0967 224.848 33.6893 224.848 34.464V39H223.84V38.202C223.541 38.51 223.21 38.7433 222.846 38.902C222.482 39.0513 222.09 39.126 221.67 39.126ZM220.172 37.012C220.172 37.4133 220.326 37.7353 220.634 37.978C220.951 38.2207 221.367 38.342 221.88 38.342C222.263 38.342 222.613 38.2767 222.93 38.146C223.257 38.0153 223.56 37.8193 223.84 37.558V36.242C223.551 36.074 223.252 35.9527 222.944 35.878C222.636 35.794 222.291 35.752 221.908 35.752C221.385 35.752 220.965 35.8687 220.648 36.102C220.331 36.326 220.172 36.6293 220.172 37.012ZM226.925 39V32.168H227.947V33.232C228.208 32.84 228.507 32.546 228.843 32.35C229.179 32.154 229.557 32.056 229.977 32.056C230.462 32.056 230.887 32.1773 231.251 32.42C231.615 32.6533 231.89 32.9753 232.077 33.386C232.348 32.9473 232.67 32.616 233.043 32.392C233.426 32.168 233.864 32.056 234.359 32.056C234.816 32.056 235.218 32.1633 235.563 32.378C235.918 32.5927 236.193 32.8913 236.389 33.274C236.585 33.6473 236.683 34.086 236.683 34.59V39H235.661V34.842C235.661 34.2447 235.512 33.7733 235.213 33.428C234.914 33.0827 234.504 32.91 233.981 32.91C233.626 32.91 233.304 32.9987 233.015 33.176C232.735 33.3533 232.488 33.624 232.273 33.988C232.292 34.0813 232.306 34.1793 232.315 34.282C232.324 34.3847 232.329 34.4873 232.329 34.59V39H231.307V34.842C231.307 34.2447 231.153 33.7733 230.845 33.428C230.546 33.0827 230.136 32.91 229.613 32.91C228.913 32.91 228.358 33.246 227.947 33.918V39H226.925ZM241.831 39.14C241.197 39.14 240.623 38.986 240.109 38.678C239.596 38.3607 239.19 37.936 238.891 37.404C238.593 36.8627 238.443 36.256 238.443 35.584C238.443 34.912 238.583 34.31 238.863 33.778C239.153 33.246 239.54 32.826 240.025 32.518C240.511 32.21 241.052 32.056 241.649 32.056C242.256 32.056 242.793 32.21 243.259 32.518C243.735 32.8167 244.109 33.2273 244.379 33.75C244.659 34.2633 244.799 34.8467 244.799 35.5V35.808H239.437C239.475 36.2747 239.601 36.6947 239.815 37.068C240.039 37.432 240.329 37.7213 240.683 37.936C241.047 38.1413 241.444 38.244 241.873 38.244C242.228 38.244 242.569 38.1833 242.895 38.062C243.231 37.9313 243.516 37.7587 243.749 37.544L244.393 38.23C244.001 38.538 243.595 38.7667 243.175 38.916C242.755 39.0653 242.307 39.14 241.831 39.14ZM239.465 35.08H243.791C243.745 34.6693 243.619 34.3053 243.413 33.988C243.217 33.6613 242.965 33.4047 242.657 33.218C242.359 33.0313 242.023 32.938 241.649 32.938C241.276 32.938 240.935 33.0313 240.627 33.218C240.319 33.3953 240.063 33.6473 239.857 33.974C239.661 34.2913 239.531 34.66 239.465 35.08Z" fill="#4D4D4D"/>
<path d="M370.188 28.667C370.912 28.667 371.5 29.2546 371.5 29.9795V39.6045C371.5 40.3292 370.912 40.917 370.188 40.917H358.812C358.088 40.917 357.5 40.3292 357.5 39.6045V29.9795C357.5 29.2546 358.088 28.667 358.812 28.667H370.188ZM359.25 32.167V39.167H363.625V32.167H359.25ZM365.375 32.167V39.167H369.75V32.167H365.375Z" fill="#1F1F1F"/>
<path d="M400.125 36.5C400.331 36.5 400.5 36.6688 400.5 36.875V39.5H403.125C403.331 39.5 403.5 39.6688 403.5 39.875V41.125C403.5 41.3312 403.331 41.5 403.125 41.5H399.25C398.834 41.5 398.5 41.1656 398.5 40.75V36.875C398.5 36.6688 398.669 36.5 398.875 36.5H400.125ZM412.125 36.5C412.331 36.5 412.5 36.6688 412.5 36.875V40.75C412.5 41.1656 412.166 41.5 411.75 41.5H407.875C407.669 41.5 407.5 41.3312 407.5 41.125V39.875C407.5 39.6688 407.669 39.5 407.875 39.5H410.5V36.875C410.5 36.6688 410.669 36.5 410.875 36.5H412.125ZM403.125 27.5C403.331 27.5 403.5 27.6688 403.5 27.875V29.125C403.5 29.3312 403.331 29.5 403.125 29.5H400.5V32.125C400.5 32.3312 400.331 32.5 400.125 32.5H398.875C398.669 32.5 398.5 32.3312 398.5 32.125V28.25C398.5 27.8344 398.834 27.5 399.25 27.5H403.125ZM411.75 27.5C412.166 27.5 412.5 27.8344 412.5 28.25V32.125C412.5 32.3312 412.331 32.5 412.125 32.5H410.875C410.669 32.5 410.5 32.3312 410.5 32.125V29.5H407.875C407.669 29.5 407.5 29.3312 407.5 29.125V27.875C407.5 27.6688 407.669 27.5 407.875 27.5H411.75Z" fill="#1F1F1F"/>
<path d="M445.247 27.6696C446.233 27.4495 447.296 27.4382 448.333 27.6696C448.488 27.7036 448.599 27.8417 448.599 27.9997V29.3854C449.229 29.6056 449.811 29.942 450.316 30.3766L451.521 29.6823C451.656 29.6033 451.831 29.6311 451.939 29.7468C452.636 30.5031 453.171 31.4119 453.484 32.4167C453.53 32.5691 453.467 32.7332 453.328 32.8122L452.125 33.5065C452.247 34.1613 452.247 34.8332 452.125 35.488L453.328 36.1823C453.467 36.2613 453.529 36.4255 453.486 36.5807C453.173 37.5882 452.639 38.4972 451.941 39.2507C451.834 39.3691 451.662 39.394 451.524 39.3151L450.319 38.6208C449.811 39.0526 449.229 39.389 448.602 39.612V41.0007C448.602 41.1586 448.491 41.2968 448.336 41.3307C447.35 41.5509 446.287 41.5622 445.25 41.3307C445.095 41.2969 444.985 41.1586 444.984 41.0007V39.612C444.354 39.3918 443.772 39.0555 443.267 38.6208L442.063 39.3151C441.927 39.3941 441.752 39.3663 441.645 39.2507C440.947 38.4943 440.412 37.5855 440.099 36.5807C440.054 36.4285 440.116 36.2643 440.254 36.1852L441.458 35.4909C441.337 34.8361 441.337 34.1643 441.458 33.5095L440.254 32.8151C440.116 32.736 440.051 32.5719 440.099 32.4196C440.412 31.412 440.947 30.5033 441.645 29.7497C441.752 29.6311 441.924 29.6062 442.063 29.6852L443.264 30.3796C443.772 29.9478 444.354 29.6114 444.982 29.3884V27.9997C444.982 27.8417 445.092 27.7036 445.247 27.6696ZM446.79 32.239C445.544 32.239 444.529 33.253 444.529 34.4977C444.53 35.7423 445.544 36.7555 446.79 36.7556C448.036 36.7556 449.051 35.7423 449.051 34.4977C449.051 33.253 448.036 32.239 446.79 32.239Z" fill="#1F1F1F"/>
<rect width="1" height="37" transform="matrix(-1 0 0 1 482 16)" fill="#C7C7C7"/>
<path d="M498 34.5C498 24.2827 506.283 16 516.5 16H568.5C578.717 16 587 24.2827 587 34.5V34.5C587 44.7173 578.717 53 568.5 53H516.5C506.283 53 498 44.7173 498 34.5V34.5Z" fill="#0066CC"/>
<path d="M522.126 39L526.004 29.2H527.292L531.114 39H529.952L528.79 35.92H524.422L523.26 39H522.126ZM524.758 35.066H528.468L526.606 30.18L524.758 35.066ZM535.085 39.112C534.45 39.112 533.876 38.958 533.363 38.65C532.859 38.3327 532.457 37.908 532.159 37.376C531.86 36.8347 531.711 36.2373 531.711 35.584C531.711 34.9213 531.86 34.324 532.159 33.792C532.457 33.26 532.859 32.84 533.363 32.532C533.876 32.2147 534.45 32.056 535.085 32.056C535.589 32.056 536.069 32.1493 536.527 32.336C536.984 32.5227 537.381 32.784 537.717 33.12L537.059 33.834C536.816 33.5633 536.522 33.3533 536.177 33.204C535.831 33.0547 535.481 32.98 535.127 32.98C534.679 32.98 534.273 33.0967 533.909 33.33C533.554 33.5633 533.269 33.876 533.055 34.268C532.84 34.66 532.733 35.0987 532.733 35.584C532.733 36.0693 532.84 36.508 533.055 36.9C533.269 37.292 533.554 37.6047 533.909 37.838C534.273 38.0713 534.679 38.188 535.127 38.188C535.481 38.188 535.831 38.1133 536.177 37.964C536.522 37.8053 536.816 37.5953 537.059 37.334L537.717 38.048C537.381 38.384 536.984 38.6453 536.527 38.832C536.069 39.0187 535.589 39.112 535.085 39.112ZM541.883 39.14C541.295 39.14 540.847 39 540.539 38.72C540.24 38.4307 540.091 38.0153 540.091 37.474V33.008H538.677V32.168H540.091V30.292L541.113 30.054V32.168H543.073V33.008H541.113V37.208C541.113 37.572 541.187 37.8333 541.337 37.992C541.495 38.1507 541.752 38.23 542.107 38.23C542.284 38.23 542.443 38.216 542.583 38.188C542.723 38.16 542.886 38.1133 543.073 38.048V38.958C542.886 39.0233 542.69 39.07 542.485 39.098C542.279 39.126 542.079 39.14 541.883 39.14ZM544.556 39V32.168H545.578V39H544.556ZM545.074 30.474C544.868 30.474 544.691 30.404 544.542 30.264C544.402 30.1147 544.332 29.942 544.332 29.746C544.332 29.55 544.402 29.382 544.542 29.242C544.691 29.0927 544.868 29.018 545.074 29.018C545.279 29.018 545.452 29.0927 545.592 29.242C545.741 29.382 545.816 29.55 545.816 29.746C545.816 29.942 545.741 30.1147 545.592 30.264C545.452 30.404 545.279 30.474 545.074 30.474ZM550.697 39.112C550.062 39.112 549.493 38.958 548.989 38.65C548.485 38.342 548.088 37.922 547.799 37.39C547.51 36.858 547.365 36.256 547.365 35.584C547.365 34.912 547.51 34.31 547.799 33.778C548.088 33.246 548.485 32.826 548.989 32.518C549.493 32.21 550.062 32.056 550.697 32.056C551.322 32.056 551.882 32.21 552.377 32.518C552.881 32.826 553.278 33.246 553.567 33.778C553.856 34.31 554.001 34.912 554.001 35.584C554.001 36.256 553.856 36.858 553.567 37.39C553.278 37.922 552.881 38.342 552.377 38.65C551.882 38.958 551.322 39.112 550.697 39.112ZM550.683 38.216C551.131 38.216 551.528 38.104 551.873 37.88C552.218 37.6467 552.489 37.3293 552.685 36.928C552.89 36.5267 552.993 36.0787 552.993 35.584C552.993 35.08 552.89 34.632 552.685 34.24C552.489 33.8387 552.218 33.526 551.873 33.302C551.528 33.0687 551.131 32.952 550.683 32.952C550.235 32.952 549.838 33.0687 549.493 33.302C549.148 33.526 548.872 33.8387 548.667 34.24C548.471 34.632 548.373 35.08 548.373 35.584C548.373 36.0787 548.471 36.5267 548.667 36.928C548.872 37.3293 549.148 37.6467 549.493 37.88C549.838 38.104 550.235 38.216 550.683 38.216ZM555.794 39V32.168H556.816V33.274C557.077 32.8633 557.39 32.56 557.754 32.364C558.118 32.1587 558.529 32.056 558.986 32.056C559.481 32.056 559.91 32.1633 560.274 32.378C560.647 32.5833 560.937 32.8773 561.142 33.26C561.357 33.6333 561.464 34.072 561.464 34.576V39H560.442V34.87C560.442 34.2633 560.274 33.7873 559.938 33.442C559.611 33.0873 559.168 32.91 558.608 32.91C558.235 32.91 557.894 32.9987 557.586 33.176C557.278 33.3533 557.021 33.6147 556.816 33.96V39H555.794Z" fill="white"/>
<mask id="path-20-inside-4_1824_24305" fill="white">
<path d="M595 34.5C595 24.2827 603.283 16 613.5 16H665.5C675.717 16 684 24.2827 684 34.5V34.5C684 44.7173 675.717 53 665.5 53H613.5C603.283 53 595 44.7173 595 34.5V34.5Z"/>
</mask>
<path d="M613.5 16V17H665.5V16V15H613.5V16ZM665.5 53V52H613.5V53V54H665.5V53ZM613.5 53V52C603.835 52 596 44.165 596 34.5H595H594C594 45.2696 602.73 54 613.5 54V53ZM684 34.5H683C683 44.165 675.165 52 665.5 52V53V54C676.27 54 685 45.2696 685 34.5H684ZM665.5 16V17C675.165 17 683 24.835 683 34.5H684H685C685 23.7304 676.27 15 665.5 15V16ZM613.5 16V15C602.73 15 594 23.7304 594 34.5H595H596C596 24.835 603.835 17 613.5 17V16Z" fill="#0066CC" mask="url(#path-20-inside-4_1824_24305)"/>
<path d="M619.126 39L623.004 29.2H624.292L628.114 39H626.952L625.79 35.92H621.422L620.26 39H619.126ZM621.758 35.066H625.468L623.606 30.18L621.758 35.066ZM632.085 39.112C631.45 39.112 630.876 38.958 630.363 38.65C629.859 38.3327 629.457 37.908 629.159 37.376C628.86 36.8347 628.711 36.2373 628.711 35.584C628.711 34.9213 628.86 34.324 629.159 33.792C629.457 33.26 629.859 32.84 630.363 32.532C630.876 32.2147 631.45 32.056 632.085 32.056C632.589 32.056 633.069 32.1493 633.527 32.336C633.984 32.5227 634.381 32.784 634.717 33.12L634.059 33.834C633.816 33.5633 633.522 33.3533 633.177 33.204C632.831 33.0547 632.481 32.98 632.127 32.98C631.679 32.98 631.273 33.0967 630.909 33.33C630.554 33.5633 630.269 33.876 630.055 34.268C629.84 34.66 629.733 35.0987 629.733 35.584C629.733 36.0693 629.84 36.508 630.055 36.9C630.269 37.292 630.554 37.6047 630.909 37.838C631.273 38.0713 631.679 38.188 632.127 38.188C632.481 38.188 632.831 38.1133 633.177 37.964C633.522 37.8053 633.816 37.5953 634.059 37.334L634.717 38.048C634.381 38.384 633.984 38.6453 633.527 38.832C633.069 39.0187 632.589 39.112 632.085 39.112ZM638.883 39.14C638.295 39.14 637.847 39 637.539 38.72C637.24 38.4307 637.091 38.0153 637.091 37.474V33.008H635.677V32.168H637.091V30.292L638.113 30.054V32.168H640.073V33.008H638.113V37.208C638.113 37.572 638.187 37.8333 638.337 37.992C638.495 38.1507 638.752 38.23 639.107 38.23C639.284 38.23 639.443 38.216 639.583 38.188C639.723 38.16 639.886 38.1133 640.073 38.048V38.958C639.886 39.0233 639.69 39.07 639.485 39.098C639.279 39.126 639.079 39.14 638.883 39.14ZM641.556 39V32.168H642.578V39H641.556ZM642.074 30.474C641.868 30.474 641.691 30.404 641.542 30.264C641.402 30.1147 641.332 29.942 641.332 29.746C641.332 29.55 641.402 29.382 641.542 29.242C641.691 29.0927 641.868 29.018 642.074 29.018C642.279 29.018 642.452 29.0927 642.592 29.242C642.741 29.382 642.816 29.55 642.816 29.746C642.816 29.942 642.741 30.1147 642.592 30.264C642.452 30.404 642.279 30.474 642.074 30.474ZM647.697 39.112C647.062 39.112 646.493 38.958 645.989 38.65C645.485 38.342 645.088 37.922 644.799 37.39C644.51 36.858 644.365 36.256 644.365 35.584C644.365 34.912 644.51 34.31 644.799 33.778C645.088 33.246 645.485 32.826 645.989 32.518C646.493 32.21 647.062 32.056 647.697 32.056C648.322 32.056 648.882 32.21 649.377 32.518C649.881 32.826 650.278 33.246 650.567 33.778C650.856 34.31 651.001 34.912 651.001 35.584C651.001 36.256 650.856 36.858 650.567 37.39C650.278 37.922 649.881 38.342 649.377 38.65C648.882 38.958 648.322 39.112 647.697 39.112ZM647.683 38.216C648.131 38.216 648.528 38.104 648.873 37.88C649.218 37.6467 649.489 37.3293 649.685 36.928C649.89 36.5267 649.993 36.0787 649.993 35.584C649.993 35.08 649.89 34.632 649.685 34.24C649.489 33.8387 649.218 33.526 648.873 33.302C648.528 33.0687 648.131 32.952 647.683 32.952C647.235 32.952 646.838 33.0687 646.493 33.302C646.148 33.526 645.872 33.8387 645.667 34.24C645.471 34.632 645.373 35.08 645.373 35.584C645.373 36.0787 645.471 36.5267 645.667 36.928C645.872 37.3293 646.148 37.6467 646.493 37.88C646.838 38.104 647.235 38.216 647.683 38.216ZM652.794 39V32.168H653.816V33.274C654.077 32.8633 654.39 32.56 654.754 32.364C655.118 32.1587 655.529 32.056 655.986 32.056C656.481 32.056 656.91 32.1633 657.274 32.378C657.647 32.5833 657.937 32.8773 658.142 33.26C658.357 33.6333 658.464 34.072 658.464 34.576V39H657.442V34.87C657.442 34.2633 657.274 33.7873 656.938 33.442C656.611 33.0873 656.168 32.91 655.608 32.91C655.235 32.91 654.894 32.9987 654.586 33.176C654.278 33.3533 654.021 33.6147 653.816 33.96V39H652.794Z" fill="#0066CC"/>
<path d="M715.292 37.4355C716.42 37.4357 717.333 38.3445 717.333 39.4678C717.333 40.591 716.42 41.4998 715.292 41.5C714.163 41.5 713.25 40.5911 713.25 39.4678C713.25 38.3444 714.163 37.4355 715.292 37.4355ZM715.292 32.4678C716.42 32.4679 717.333 33.3767 717.333 34.5C717.333 35.6233 716.42 36.5321 715.292 36.5322C714.163 36.5322 713.25 35.6234 713.25 34.5C713.25 33.3766 714.163 32.4678 715.292 32.4678ZM715.292 27.5C716.42 27.5002 717.333 28.409 717.333 29.5322C717.333 30.6555 716.42 31.5643 715.292 31.5645C714.163 31.5645 713.25 30.6556 713.25 29.5322C713.25 28.4089 714.163 27.5 715.292 27.5Z" fill="#1F1F1F"/>
<path d="M775.254 39V30.81L773.518 31.552V30.194L775.814 29.2H776.78V39H775.254ZM781.714 35.696V34.352H786.6V35.696H781.714ZM791.255 39V37.894L795.273 33.694C795.516 33.442 795.702 33.2133 795.833 33.008C795.973 32.8027 796.071 32.6067 796.127 32.42C796.192 32.224 796.225 32.0233 796.225 31.818C796.225 31.4073 796.057 31.0667 795.721 30.796C795.385 30.5253 794.96 30.39 794.447 30.39C793.999 30.39 793.579 30.4787 793.187 30.656C792.795 30.8333 792.366 31.1413 791.899 31.58L791.031 30.53C791.572 30.0353 792.128 29.6667 792.697 29.424C793.266 29.172 793.859 29.046 794.475 29.046C795.119 29.046 795.684 29.1627 796.169 29.396C796.654 29.62 797.032 29.9327 797.303 30.334C797.574 30.7353 797.709 31.202 797.709 31.734C797.709 32.0513 797.667 32.35 797.583 32.63C797.499 32.91 797.354 33.1947 797.149 33.484C796.953 33.7733 796.678 34.1047 796.323 34.478L793.201 37.698L797.891 37.684V39H791.255ZM803.243 39.14C802.45 39.14 801.75 38.93 801.143 38.51C800.546 38.0807 800.075 37.488 799.729 36.732C799.393 35.9667 799.225 35.0893 799.225 34.1C799.225 33.092 799.393 32.21 799.729 31.454C800.075 30.698 800.546 30.11 801.143 29.69C801.75 29.2607 802.45 29.046 803.243 29.046C804.037 29.046 804.732 29.2607 805.329 29.69C805.936 30.11 806.407 30.698 806.743 31.454C807.079 32.21 807.247 33.092 807.247 34.1C807.247 35.0893 807.079 35.9667 806.743 36.732C806.407 37.488 805.936 38.0807 805.329 38.51C804.732 38.93 804.037 39.14 803.243 39.14ZM803.243 37.782C803.747 37.782 804.181 37.6327 804.545 37.334C804.919 37.026 805.208 36.5967 805.413 36.046C805.619 35.4953 805.721 34.8467 805.721 34.1C805.721 33.344 805.619 32.6907 805.413 32.14C805.208 31.5893 804.919 31.1647 804.545 30.866C804.181 30.558 803.747 30.404 803.243 30.404C802.739 30.404 802.301 30.558 801.927 30.866C801.563 31.1647 801.274 31.5893 801.059 32.14C800.854 32.6907 800.751 33.344 800.751 34.1C800.751 34.8467 800.854 35.4953 801.059 36.046C801.274 36.5967 801.563 37.026 801.927 37.334C802.301 37.6327 802.739 37.782 803.243 37.782Z" fill="#151515"/>
<path d="M816.074 39.112C815.439 39.112 814.87 38.958 814.366 38.65C813.862 38.342 813.465 37.922 813.176 37.39C812.887 36.858 812.742 36.256 812.742 35.584C812.742 34.912 812.887 34.31 813.176 33.778C813.465 33.246 813.862 32.826 814.366 32.518C814.87 32.21 815.439 32.056 816.074 32.056C816.699 32.056 817.259 32.21 817.754 32.518C818.258 32.826 818.655 33.246 818.944 33.778C819.233 34.31 819.378 34.912 819.378 35.584C819.378 36.256 819.233 36.858 818.944 37.39C818.655 37.922 818.258 38.342 817.754 38.65C817.259 38.958 816.699 39.112 816.074 39.112ZM816.06 38.216C816.508 38.216 816.905 38.104 817.25 37.88C817.595 37.6467 817.866 37.3293 818.062 36.928C818.267 36.5267 818.37 36.0787 818.37 35.584C818.37 35.08 818.267 34.632 818.062 34.24C817.866 33.8387 817.595 33.526 817.25 33.302C816.905 33.0687 816.508 32.952 816.06 32.952C815.612 32.952 815.215 33.0687 814.87 33.302C814.525 33.526 814.249 33.8387 814.044 34.24C813.848 34.632 813.75 35.08 813.75 35.584C813.75 36.0787 813.848 36.5267 814.044 36.928C814.249 37.3293 814.525 37.6467 814.87 37.88C815.215 38.104 815.612 38.216 816.06 38.216ZM821.615 39V33.008H820.089V32.168H821.615V30.74C821.615 30.068 821.793 29.55 822.147 29.186C822.502 28.822 823.006 28.64 823.659 28.64C823.846 28.64 824.014 28.6493 824.163 28.668C824.322 28.6867 824.462 28.7193 824.583 28.766V29.69C824.434 29.6433 824.299 29.6107 824.177 29.592C824.056 29.5733 823.916 29.564 823.757 29.564C823.365 29.564 823.081 29.662 822.903 29.858C822.726 30.0447 822.637 30.3433 822.637 30.754V32.168H824.583V33.008H822.637V39H821.615Z" fill="#151515"/>
<path d="M832.934 39.154C831.609 39.154 830.461 38.7107 829.49 37.824L830.414 36.774C830.834 37.1473 831.245 37.418 831.646 37.586C832.057 37.754 832.505 37.838 832.99 37.838C833.41 37.838 833.774 37.7587 834.082 37.6C834.399 37.4413 834.642 37.2173 834.81 36.928C834.987 36.6293 835.076 36.2933 835.076 35.92C835.076 35.3693 834.875 34.926 834.474 34.59C834.082 34.2447 833.573 34.072 832.948 34.072C832.621 34.072 832.299 34.114 831.982 34.198C831.674 34.282 831.352 34.4127 831.016 34.59L829.938 34.268L830.162 29.2H836.112V30.516H831.506L831.38 33.33C831.735 33.1527 832.071 33.036 832.388 32.98C832.715 32.9147 833.046 32.882 833.382 32.882C834.035 32.882 834.605 33.008 835.09 33.26C835.575 33.5027 835.953 33.848 836.224 34.296C836.495 34.7347 836.63 35.248 836.63 35.836C836.63 36.4987 836.476 37.0773 836.168 37.572C835.86 38.0667 835.426 38.454 834.866 38.734C834.315 39.014 833.671 39.154 832.934 39.154ZM837.821 39V37.894L841.839 33.694C842.082 33.442 842.269 33.2133 842.399 33.008C842.539 32.8027 842.637 32.6067 842.693 32.42C842.759 32.224 842.791 32.0233 842.791 31.818C842.791 31.4073 842.623 31.0667 842.287 30.796C841.951 30.5253 841.527 30.39 841.013 30.39C840.565 30.39 840.145 30.4787 839.753 30.656C839.361 30.8333 838.932 31.1413 838.465 31.58L837.597 30.53C838.139 30.0353 838.694 29.6667 839.263 29.424C839.833 29.172 840.425 29.046 841.041 29.046C841.685 29.046 842.25 29.1627 842.735 29.396C843.221 29.62 843.599 29.9327 843.869 30.334C844.14 30.7353 844.275 31.202 844.275 31.734C844.275 32.0513 844.233 32.35 844.149 32.63C844.065 32.91 843.921 33.1947 843.715 33.484C843.519 33.7733 843.244 34.1047 842.889 34.478L839.767 37.698L844.457 37.684V39H837.821ZM849.208 39.154C848.48 39.154 847.803 39.028 847.178 38.776C846.552 38.5147 846.02 38.1507 845.582 37.684L846.604 36.704C846.996 37.1147 847.388 37.404 847.78 37.572C848.172 37.7307 848.638 37.81 849.18 37.81C849.609 37.81 849.982 37.7447 850.3 37.614C850.626 37.474 850.878 37.2827 851.056 37.04C851.233 36.7973 851.322 36.5127 851.322 36.186C851.322 35.8967 851.247 35.64 851.098 35.416C850.948 35.192 850.743 35.0193 850.482 34.898C850.22 34.7673 849.917 34.702 849.572 34.702H848.368V33.414H849.446C849.922 33.414 850.3 33.2833 850.58 33.022C850.869 32.7607 851.014 32.406 851.014 31.958C851.014 31.6687 850.93 31.4073 850.762 31.174C850.603 30.9313 850.384 30.7447 850.104 30.614C849.824 30.474 849.506 30.404 849.152 30.404C848.657 30.404 848.223 30.4927 847.85 30.67C847.486 30.838 847.108 31.1367 846.716 31.566L845.68 30.6C846.128 30.096 846.655 29.7133 847.262 29.452C847.878 29.1813 848.522 29.046 849.194 29.046C849.847 29.046 850.426 29.1627 850.93 29.396C851.434 29.6293 851.826 29.956 852.106 30.376C852.395 30.7867 852.54 31.258 852.54 31.79C852.54 32.3127 852.367 32.7793 852.022 33.19C851.686 33.5913 851.242 33.8713 850.692 34.03C851.345 34.17 851.868 34.4453 852.26 34.856C852.661 35.2573 852.862 35.7333 852.862 36.284C852.862 36.8347 852.703 37.3293 852.386 37.768C852.068 38.1973 851.634 38.538 851.084 38.79C850.542 39.0327 849.917 39.154 849.208 39.154Z" fill="#151515"/>
<path fill-rule="evenodd" clip-rule="evenodd" d="M870.444 36.9816L874.481 32.9116C874.877 32.5132 874.598 31.8333 874.039 31.8333H865.961C865.403 31.8333 865.123 32.5132 865.519 32.9116L869.556 36.9816C869.801 37.2283 870.2 37.2283 870.444 36.9816Z" fill="#1F1F1F"/>
<path d="M929.494 30.2138C929.751 29.9567 930.167 29.9567 930.422 30.2138L931.039 30.8319C931.296 31.089 931.296 31.5044 931.039 31.7587L928.406 34.3974L931.042 37.0331C931.299 37.2901 931.299 37.7056 931.042 37.9599L930.424 38.581C930.167 38.8377 929.751 38.8378 929.497 38.581L925.778 34.8622C925.518 34.6053 925.518 34.1896 925.775 33.9325L929.494 30.2138Z" fill="#A3A3A3"/>
<path d="M971.391 30.0263C971.649 29.7692 972.064 29.7692 972.318 30.0263L976.037 33.745C976.297 34.0021 976.297 34.4177 976.04 34.6747L972.321 38.3935C972.064 38.6504 971.649 38.6501 971.394 38.3935L970.776 37.7753C970.519 37.5183 970.519 37.1028 970.776 36.8485L973.412 34.2128L970.776 31.5761C970.519 31.319 970.519 30.9036 970.776 30.6493L971.391 30.0263Z" fill="#1F1F1F"/>
</g>
<defs>
<clipPath id="clip0_1824_24305">
<rect width="1008" height="69" fill="white"/>
</clipPath>
</defs>
</svg>
