<svg width="368" height="281" viewBox="0 0 368 281" fill="none" xmlns="http://www.w3.org/2000/svg">
<g clip-path="url(#clip0_1990_49594)">
<rect width="368" height="281" fill="white"/>
<rect width="586" height="69" transform="translate(-52)" fill="white"/>
<mask id="path-1-inside-1_1990_49594" fill="white">
<path d="M-36 22C-36 18.6863 -33.3137 16 -30 16H12V53H-30C-33.3137 53 -36 50.3137 -36 47V22Z"/>
</mask>
<path d="M-36 22C-36 18.6863 -33.3137 16 -30 16H12V53H-30C-33.3137 53 -36 50.3137 -36 47V22Z" fill="white"/>
<path d="M12 16H13V15H12V16ZM12 53V54H13V53H12ZM-30 16V17H12V16V15H-30V16ZM12 16H11V53H12H13V16H12ZM12 53V52H-30V53V54H12V53ZM-36 47H-35V22H-36H-37V47H-36ZM-30 53V52C-32.7614 52 -35 49.7614 -35 47H-36H-37C-37 50.866 -33.866 54 -30 54V53ZM-30 16V15C-33.866 15 -37 18.134 -37 22H-36H-35C-35 19.2386 -32.7614 17 -30 17V16Z" fill="#C7C7C7" mask="url(#path-1-inside-1_1990_49594)"/>
<mask id="path-3-inside-2_1990_49594" fill="white">
<path d="M11 16H51C54.3137 16 57 18.6863 57 22V47C57 50.3137 54.3137 53 51 53H11V16Z"/>
</mask>
<path d="M11 16H51C54.3137 16 57 18.6863 57 22V47C57 50.3137 54.3137 53 51 53H11V16Z" fill="white"/>
<path d="M11 16V15H10V16H11ZM11 53H10V54H11V53ZM11 16V17H51V16V15H11V16ZM57 22H56V47H57H58V22H57ZM51 53V52H11V53V54H51V53ZM11 53H12V16H11H10V53H11ZM57 47H56C56 49.7614 53.7614 52 51 52V53V54C54.866 54 58 50.866 58 47H57ZM51 16V17C53.7614 17 56 19.2386 56 22H57H58C58 18.134 54.866 15 51 15V16Z" fill="#C7C7C7" mask="url(#path-3-inside-2_1990_49594)"/>
<path d="M37.5343 32.167C38.0231 32.1673 38.2671 32.7618 37.9211 33.1104L34.3888 36.6719C34.1746 36.8874 33.8257 36.8874 33.6115 36.6719L30.0793 33.1104C29.7332 32.7618 29.9773 32.1673 30.466 32.167H37.5343Z" fill="#1F1F1F"/>
<path d="M97.8429 27.5C98.427 27.5 98.719 28.2079 98.3068 28.6201L93.2502 33.6777V40.8428C93.2502 41.3762 92.6494 41.6826 92.2179 41.3809L90.0304 39.8506C89.855 39.7278 89.7502 39.5266 89.7502 39.3125V33.6777L84.6935 28.6201C84.2805 28.2071 84.5745 27.5 85.1574 27.5H97.8429Z" fill="#1F1F1F"/>
<path d="M133.812 39.167C134.054 39.167 134.25 39.363 134.25 39.6045V40.4795C134.25 40.7208 134.054 40.917 133.812 40.917H132.062C131.821 40.917 131.625 40.7208 131.625 40.4795V39.6045C131.625 39.363 131.821 39.167 132.062 39.167H133.812ZM128.562 28.667C128.804 28.667 129 28.863 129 29.1045V37.417H130.312C130.701 37.417 130.896 37.8883 130.622 38.1631L128.434 40.7881C128.364 40.8587 128.226 40.9159 128.126 40.916C128.026 40.916 127.887 40.8588 127.816 40.7881L125.629 38.1631C125.353 37.8877 125.549 37.417 125.937 37.417H127.25V29.1045C127.25 28.863 127.446 28.667 127.687 28.667H128.562ZM135.562 35.667C135.804 35.667 136 35.863 136 36.1045V36.9795C136 37.2208 135.804 37.417 135.562 37.417H132.062C131.821 37.417 131.625 37.2208 131.625 36.9795V36.1045C131.625 35.863 131.821 35.667 132.062 35.667H135.562ZM137.312 32.167C137.554 32.167 137.75 32.363 137.75 32.6045V33.4795C137.75 33.7208 137.554 33.917 137.312 33.917H132.062C131.821 33.917 131.625 33.7208 131.625 33.4795V32.6045C131.625 32.363 131.821 32.167 132.062 32.167H137.312ZM139.062 28.667C139.304 28.667 139.5 28.863 139.5 29.1045V29.9795C139.5 30.2208 139.304 30.417 139.062 30.417H132.062C131.821 30.417 131.625 30.2208 131.625 29.9795V29.1045C131.625 28.863 131.821 28.667 132.062 28.667H139.062Z" fill="#1F1F1F"/>
<path d="M167 25.5C167 22.1863 169.686 19.5 173 19.5H191C194.314 19.5 197 22.1863 197 25.5V43.5C197 46.8137 194.314 49.5 191 49.5H173C169.686 49.5 167 46.8137 167 43.5V25.5Z" fill="#C7C7C7" fill-opacity="0.25"/>
<path d="M182.292 37.4355C183.42 37.4357 184.333 38.3445 184.333 39.4678C184.333 40.591 183.42 41.4998 182.292 41.5C181.163 41.5 180.25 40.5911 180.25 39.4678C180.25 38.3444 181.163 37.4355 182.292 37.4355ZM182.292 32.4678C183.42 32.4679 184.333 33.3767 184.333 34.5C184.333 35.6233 183.42 36.5321 182.292 36.5322C181.163 36.5322 180.25 35.6234 180.25 34.5C180.25 33.3766 181.163 32.4678 182.292 32.4678ZM182.292 27.5C183.42 27.5002 184.333 28.409 184.333 29.5322C184.333 30.6555 183.42 31.5643 182.292 31.5645C181.163 31.5645 180.25 30.6556 180.25 29.5322C180.25 28.4089 181.163 27.5 182.292 27.5Z" fill="#1F1F1F"/>
<path d="M301.254 39V30.81L299.518 31.552V30.194L301.814 29.2H302.78V39H301.254ZM307.714 35.696V34.352H312.6V35.696H307.714ZM317.255 39V37.894L321.273 33.694C321.516 33.442 321.702 33.2133 321.833 33.008C321.973 32.8027 322.071 32.6067 322.127 32.42C322.192 32.224 322.225 32.0233 322.225 31.818C322.225 31.4073 322.057 31.0667 321.721 30.796C321.385 30.5253 320.96 30.39 320.447 30.39C319.999 30.39 319.579 30.4787 319.187 30.656C318.795 30.8333 318.366 31.1413 317.899 31.58L317.031 30.53C317.572 30.0353 318.128 29.6667 318.697 29.424C319.266 29.172 319.859 29.046 320.475 29.046C321.119 29.046 321.684 29.1627 322.169 29.396C322.654 29.62 323.032 29.9327 323.303 30.334C323.574 30.7353 323.709 31.202 323.709 31.734C323.709 32.0513 323.667 32.35 323.583 32.63C323.499 32.91 323.354 33.1947 323.149 33.484C322.953 33.7733 322.678 34.1047 322.323 34.478L319.201 37.698L323.891 37.684V39H317.255ZM329.243 39.14C328.45 39.14 327.75 38.93 327.143 38.51C326.546 38.0807 326.075 37.488 325.729 36.732C325.393 35.9667 325.225 35.0893 325.225 34.1C325.225 33.092 325.393 32.21 325.729 31.454C326.075 30.698 326.546 30.11 327.143 29.69C327.75 29.2607 328.45 29.046 329.243 29.046C330.037 29.046 330.732 29.2607 331.329 29.69C331.936 30.11 332.407 30.698 332.743 31.454C333.079 32.21 333.247 33.092 333.247 34.1C333.247 35.0893 333.079 35.9667 332.743 36.732C332.407 37.488 331.936 38.0807 331.329 38.51C330.732 38.93 330.037 39.14 329.243 39.14ZM329.243 37.782C329.747 37.782 330.181 37.6327 330.545 37.334C330.919 37.026 331.208 36.5967 331.413 36.046C331.619 35.4953 331.721 34.8467 331.721 34.1C331.721 33.344 331.619 32.6907 331.413 32.14C331.208 31.5893 330.919 31.1647 330.545 30.866C330.181 30.558 329.747 30.404 329.243 30.404C328.739 30.404 328.301 30.558 327.927 30.866C327.563 31.1647 327.274 31.5893 327.059 32.14C326.854 32.6907 326.751 33.344 326.751 34.1C326.751 34.8467 326.854 35.4953 327.059 36.046C327.274 36.5967 327.563 37.026 327.927 37.334C328.301 37.6327 328.739 37.782 329.243 37.782Z" fill="#151515"/>
<path d="M342.074 39.112C341.439 39.112 340.87 38.958 340.366 38.65C339.862 38.342 339.465 37.922 339.176 37.39C338.887 36.858 338.742 36.256 338.742 35.584C338.742 34.912 338.887 34.31 339.176 33.778C339.465 33.246 339.862 32.826 340.366 32.518C340.87 32.21 341.439 32.056 342.074 32.056C342.699 32.056 343.259 32.21 343.754 32.518C344.258 32.826 344.655 33.246 344.944 33.778C345.233 34.31 345.378 34.912 345.378 35.584C345.378 36.256 345.233 36.858 344.944 37.39C344.655 37.922 344.258 38.342 343.754 38.65C343.259 38.958 342.699 39.112 342.074 39.112ZM342.06 38.216C342.508 38.216 342.905 38.104 343.25 37.88C343.595 37.6467 343.866 37.3293 344.062 36.928C344.267 36.5267 344.37 36.0787 344.37 35.584C344.37 35.08 344.267 34.632 344.062 34.24C343.866 33.8387 343.595 33.526 343.25 33.302C342.905 33.0687 342.508 32.952 342.06 32.952C341.612 32.952 341.215 33.0687 340.87 33.302C340.525 33.526 340.249 33.8387 340.044 34.24C339.848 34.632 339.75 35.08 339.75 35.584C339.75 36.0787 339.848 36.5267 340.044 36.928C340.249 37.3293 340.525 37.6467 340.87 37.88C341.215 38.104 341.612 38.216 342.06 38.216ZM347.615 39V33.008H346.089V32.168H347.615V30.74C347.615 30.068 347.793 29.55 348.147 29.186C348.502 28.822 349.006 28.64 349.659 28.64C349.846 28.64 350.014 28.6493 350.163 28.668C350.322 28.6867 350.462 28.7193 350.583 28.766V29.69C350.434 29.6433 350.299 29.6107 350.177 29.592C350.056 29.5733 349.916 29.564 349.757 29.564C349.365 29.564 349.081 29.662 348.903 29.858C348.726 30.0447 348.637 30.3433 348.637 30.754V32.168H350.583V33.008H348.637V39H347.615Z" fill="#151515"/>
<path d="M358.934 39.154C357.609 39.154 356.461 38.7107 355.49 37.824L356.414 36.774C356.834 37.1473 357.245 37.418 357.646 37.586C358.057 37.754 358.505 37.838 358.99 37.838C359.41 37.838 359.774 37.7587 360.082 37.6C360.399 37.4413 360.642 37.2173 360.81 36.928C360.987 36.6293 361.076 36.2933 361.076 35.92C361.076 35.3693 360.875 34.926 360.474 34.59C360.082 34.2447 359.573 34.072 358.948 34.072C358.621 34.072 358.299 34.114 357.982 34.198C357.674 34.282 357.352 34.4127 357.016 34.59L355.938 34.268L356.162 29.2H362.112V30.516H357.506L357.38 33.33C357.735 33.1527 358.071 33.036 358.388 32.98C358.715 32.9147 359.046 32.882 359.382 32.882C360.035 32.882 360.605 33.008 361.09 33.26C361.575 33.5027 361.953 33.848 362.224 34.296C362.495 34.7347 362.63 35.248 362.63 35.836C362.63 36.4987 362.476 37.0773 362.168 37.572C361.86 38.0667 361.426 38.454 360.866 38.734C360.315 39.014 359.671 39.154 358.934 39.154ZM363.821 39V37.894L367.839 33.694C368.082 33.442 368.269 33.2133 368.399 33.008C368.539 32.8027 368.637 32.6067 368.693 32.42C368.759 32.224 368.791 32.0233 368.791 31.818C368.791 31.4073 368.623 31.0667 368.287 30.796C367.951 30.5253 367.527 30.39 367.013 30.39C366.565 30.39 366.145 30.4787 365.753 30.656C365.361 30.8333 364.932 31.1413 364.465 31.58L363.597 30.53C364.139 30.0353 364.694 29.6667 365.263 29.424C365.833 29.172 366.425 29.046 367.041 29.046C367.685 29.046 368.25 29.1627 368.735 29.396C369.221 29.62 369.599 29.9327 369.869 30.334C370.14 30.7353 370.275 31.202 370.275 31.734C370.275 32.0513 370.233 32.35 370.149 32.63C370.065 32.91 369.921 33.1947 369.715 33.484C369.519 33.7733 369.244 34.1047 368.889 34.478L365.767 37.698L370.457 37.684V39H363.821ZM375.208 39.154C374.48 39.154 373.803 39.028 373.178 38.776C372.552 38.5147 372.02 38.1507 371.582 37.684L372.604 36.704C372.996 37.1147 373.388 37.404 373.78 37.572C374.172 37.7307 374.638 37.81 375.18 37.81C375.609 37.81 375.982 37.7447 376.3 37.614C376.626 37.474 376.878 37.2827 377.056 37.04C377.233 36.7973 377.322 36.5127 377.322 36.186C377.322 35.8967 377.247 35.64 377.098 35.416C376.948 35.192 376.743 35.0193 376.482 34.898C376.22 34.7673 375.917 34.702 375.572 34.702H374.368V33.414H375.446C375.922 33.414 376.3 33.2833 376.58 33.022C376.869 32.7607 377.014 32.406 377.014 31.958C377.014 31.6687 376.93 31.4073 376.762 31.174C376.603 30.9313 376.384 30.7447 376.104 30.614C375.824 30.474 375.506 30.404 375.152 30.404C374.657 30.404 374.223 30.4927 373.85 30.67C373.486 30.838 373.108 31.1367 372.716 31.566L371.68 30.6C372.128 30.096 372.655 29.7133 373.262 29.452C373.878 29.1813 374.522 29.046 375.194 29.046C375.847 29.046 376.426 29.1627 376.93 29.396C377.434 29.6293 377.826 29.956 378.106 30.376C378.395 30.7867 378.54 31.258 378.54 31.79C378.54 32.3127 378.367 32.7793 378.022 33.19C377.686 33.5913 377.242 33.8713 376.692 34.03C377.345 34.17 377.868 34.4453 378.26 34.856C378.661 35.2573 378.862 35.7333 378.862 36.284C378.862 36.8347 378.703 37.3293 378.386 37.768C378.068 38.1973 377.634 38.538 377.084 38.79C376.542 39.0327 375.917 39.154 375.208 39.154Z" fill="#151515"/>
<g filter="url(#filter0_d_1990_49594)">
<path d="M175 59C175 55.6863 177.686 53 181 53H284C287.314 53 290 55.6863 290 59V248C290 251.314 287.314 254 284 254H181C177.686 254 175 251.314 175 248V59Z" fill="white"/>
<path d="M199.126 84L203.004 74.2H204.292L208.114 84H206.952L205.79 80.92H201.422L200.26 84H199.126ZM201.758 80.066H205.468L203.606 75.18L201.758 80.066ZM212.085 84.112C211.45 84.112 210.876 83.958 210.363 83.65C209.859 83.3327 209.457 82.908 209.159 82.376C208.86 81.8347 208.711 81.2373 208.711 80.584C208.711 79.9213 208.86 79.324 209.159 78.792C209.457 78.26 209.859 77.84 210.363 77.532C210.876 77.2147 211.45 77.056 212.085 77.056C212.589 77.056 213.069 77.1493 213.527 77.336C213.984 77.5227 214.381 77.784 214.717 78.12L214.059 78.834C213.816 78.5633 213.522 78.3533 213.177 78.204C212.831 78.0547 212.481 77.98 212.127 77.98C211.679 77.98 211.273 78.0967 210.909 78.33C210.554 78.5633 210.269 78.876 210.055 79.268C209.84 79.66 209.733 80.0987 209.733 80.584C209.733 81.0693 209.84 81.508 210.055 81.9C210.269 82.292 210.554 82.6047 210.909 82.838C211.273 83.0713 211.679 83.188 212.127 83.188C212.481 83.188 212.831 83.1133 213.177 82.964C213.522 82.8053 213.816 82.5953 214.059 82.334L214.717 83.048C214.381 83.384 213.984 83.6453 213.527 83.832C213.069 84.0187 212.589 84.112 212.085 84.112ZM218.883 84.14C218.295 84.14 217.847 84 217.539 83.72C217.24 83.4307 217.091 83.0153 217.091 82.474V78.008H215.677V77.168H217.091V75.292L218.113 75.054V77.168H220.073V78.008H218.113V82.208C218.113 82.572 218.187 82.8333 218.337 82.992C218.495 83.1507 218.752 83.23 219.107 83.23C219.284 83.23 219.443 83.216 219.583 83.188C219.723 83.16 219.886 83.1133 220.073 83.048V83.958C219.886 84.0233 219.69 84.07 219.485 84.098C219.279 84.126 219.079 84.14 218.883 84.14ZM221.556 84V77.168H222.578V84H221.556ZM222.074 75.474C221.868 75.474 221.691 75.404 221.542 75.264C221.402 75.1147 221.332 74.942 221.332 74.746C221.332 74.55 221.402 74.382 221.542 74.242C221.691 74.0927 221.868 74.018 222.074 74.018C222.279 74.018 222.452 74.0927 222.592 74.242C222.741 74.382 222.816 74.55 222.816 74.746C222.816 74.942 222.741 75.1147 222.592 75.264C222.452 75.404 222.279 75.474 222.074 75.474ZM227.697 84.112C227.062 84.112 226.493 83.958 225.989 83.65C225.485 83.342 225.088 82.922 224.799 82.39C224.51 81.858 224.365 81.256 224.365 80.584C224.365 79.912 224.51 79.31 224.799 78.778C225.088 78.246 225.485 77.826 225.989 77.518C226.493 77.21 227.062 77.056 227.697 77.056C228.322 77.056 228.882 77.21 229.377 77.518C229.881 77.826 230.278 78.246 230.567 78.778C230.856 79.31 231.001 79.912 231.001 80.584C231.001 81.256 230.856 81.858 230.567 82.39C230.278 82.922 229.881 83.342 229.377 83.65C228.882 83.958 228.322 84.112 227.697 84.112ZM227.683 83.216C228.131 83.216 228.528 83.104 228.873 82.88C229.218 82.6467 229.489 82.3293 229.685 81.928C229.89 81.5267 229.993 81.0787 229.993 80.584C229.993 80.08 229.89 79.632 229.685 79.24C229.489 78.8387 229.218 78.526 228.873 78.302C228.528 78.0687 228.131 77.952 227.683 77.952C227.235 77.952 226.838 78.0687 226.493 78.302C226.148 78.526 225.872 78.8387 225.667 79.24C225.471 79.632 225.373 80.08 225.373 80.584C225.373 81.0787 225.471 81.5267 225.667 81.928C225.872 82.3293 226.148 82.6467 226.493 82.88C226.838 83.104 227.235 83.216 227.683 83.216ZM232.794 84V77.168H233.816V78.274C234.077 77.8633 234.39 77.56 234.754 77.364C235.118 77.1587 235.529 77.056 235.986 77.056C236.481 77.056 236.91 77.1633 237.274 77.378C237.647 77.5833 237.937 77.8773 238.142 78.26C238.357 78.6333 238.464 79.072 238.464 79.576V84H237.442V79.87C237.442 79.2633 237.274 78.7873 236.938 78.442C236.611 78.0873 236.168 77.91 235.608 77.91C235.235 77.91 234.894 77.9987 234.586 78.176C234.278 78.3533 234.021 78.6147 233.816 78.96V84H232.794ZM244.878 84V75.292L243.31 75.992V75.068L245.256 74.2H245.886V84H244.878Z" fill="#151515"/>
<path d="M199.126 121L203.004 111.2H204.292L208.114 121H206.952L205.79 117.92H201.422L200.26 121H199.126ZM201.758 117.066H205.468L203.606 112.18L201.758 117.066ZM212.085 121.112C211.45 121.112 210.876 120.958 210.363 120.65C209.859 120.333 209.457 119.908 209.159 119.376C208.86 118.835 208.711 118.237 208.711 117.584C208.711 116.921 208.86 116.324 209.159 115.792C209.457 115.26 209.859 114.84 210.363 114.532C210.876 114.215 211.45 114.056 212.085 114.056C212.589 114.056 213.069 114.149 213.527 114.336C213.984 114.523 214.381 114.784 214.717 115.12L214.059 115.834C213.816 115.563 213.522 115.353 213.177 115.204C212.831 115.055 212.481 114.98 212.127 114.98C211.679 114.98 211.273 115.097 210.909 115.33C210.554 115.563 210.269 115.876 210.055 116.268C209.84 116.66 209.733 117.099 209.733 117.584C209.733 118.069 209.84 118.508 210.055 118.9C210.269 119.292 210.554 119.605 210.909 119.838C211.273 120.071 211.679 120.188 212.127 120.188C212.481 120.188 212.831 120.113 213.177 119.964C213.522 119.805 213.816 119.595 214.059 119.334L214.717 120.048C214.381 120.384 213.984 120.645 213.527 120.832C213.069 121.019 212.589 121.112 212.085 121.112ZM218.883 121.14C218.295 121.14 217.847 121 217.539 120.72C217.24 120.431 217.091 120.015 217.091 119.474V115.008H215.677V114.168H217.091V112.292L218.113 112.054V114.168H220.073V115.008H218.113V119.208C218.113 119.572 218.187 119.833 218.337 119.992C218.495 120.151 218.752 120.23 219.107 120.23C219.284 120.23 219.443 120.216 219.583 120.188C219.723 120.16 219.886 120.113 220.073 120.048V120.958C219.886 121.023 219.69 121.07 219.485 121.098C219.279 121.126 219.079 121.14 218.883 121.14ZM221.556 121V114.168H222.578V121H221.556ZM222.074 112.474C221.868 112.474 221.691 112.404 221.542 112.264C221.402 112.115 221.332 111.942 221.332 111.746C221.332 111.55 221.402 111.382 221.542 111.242C221.691 111.093 221.868 111.018 222.074 111.018C222.279 111.018 222.452 111.093 222.592 111.242C222.741 111.382 222.816 111.55 222.816 111.746C222.816 111.942 222.741 112.115 222.592 112.264C222.452 112.404 222.279 112.474 222.074 112.474ZM227.697 121.112C227.062 121.112 226.493 120.958 225.989 120.65C225.485 120.342 225.088 119.922 224.799 119.39C224.51 118.858 224.365 118.256 224.365 117.584C224.365 116.912 224.51 116.31 224.799 115.778C225.088 115.246 225.485 114.826 225.989 114.518C226.493 114.21 227.062 114.056 227.697 114.056C228.322 114.056 228.882 114.21 229.377 114.518C229.881 114.826 230.278 115.246 230.567 115.778C230.856 116.31 231.001 116.912 231.001 117.584C231.001 118.256 230.856 118.858 230.567 119.39C230.278 119.922 229.881 120.342 229.377 120.65C228.882 120.958 228.322 121.112 227.697 121.112ZM227.683 120.216C228.131 120.216 228.528 120.104 228.873 119.88C229.218 119.647 229.489 119.329 229.685 118.928C229.89 118.527 229.993 118.079 229.993 117.584C229.993 117.08 229.89 116.632 229.685 116.24C229.489 115.839 229.218 115.526 228.873 115.302C228.528 115.069 228.131 114.952 227.683 114.952C227.235 114.952 226.838 115.069 226.493 115.302C226.148 115.526 225.872 115.839 225.667 116.24C225.471 116.632 225.373 117.08 225.373 117.584C225.373 118.079 225.471 118.527 225.667 118.928C225.872 119.329 226.148 119.647 226.493 119.88C226.838 120.104 227.235 120.216 227.683 120.216ZM232.794 121V114.168H233.816V115.274C234.077 114.863 234.39 114.56 234.754 114.364C235.118 114.159 235.529 114.056 235.986 114.056C236.481 114.056 236.91 114.163 237.274 114.378C237.647 114.583 237.937 114.877 238.142 115.26C238.357 115.633 238.464 116.072 238.464 116.576V121H237.442V116.87C237.442 116.263 237.274 115.787 236.938 115.442C236.611 115.087 236.168 114.91 235.608 114.91C235.235 114.91 234.894 114.999 234.586 115.176C234.278 115.353 234.021 115.615 233.816 115.96V121H232.794ZM243.45 121V120.258L247.37 115.974C247.678 115.638 247.916 115.344 248.084 115.092C248.262 114.831 248.383 114.588 248.448 114.364C248.523 114.14 248.56 113.902 248.56 113.65C248.56 113.155 248.364 112.749 247.972 112.432C247.59 112.105 247.1 111.942 246.502 111.942C246.045 111.942 245.62 112.031 245.228 112.208C244.836 112.385 244.398 112.693 243.912 113.132L243.324 112.432C243.838 111.965 244.356 111.62 244.878 111.396C245.401 111.163 245.947 111.046 246.516 111.046C247.104 111.046 247.627 111.158 248.084 111.382C248.542 111.597 248.901 111.895 249.162 112.278C249.424 112.661 249.554 113.099 249.554 113.594C249.554 113.921 249.512 114.224 249.428 114.504C249.344 114.775 249.195 115.069 248.98 115.386C248.766 115.694 248.458 116.067 248.056 116.506L244.71 120.132L249.764 120.118V121H243.45Z" fill="#151515"/>
<path d="M199.126 158L203.004 148.2H204.292L208.114 158H206.952L205.79 154.92H201.422L200.26 158H199.126ZM201.758 154.066H205.468L203.606 149.18L201.758 154.066ZM212.085 158.112C211.45 158.112 210.876 157.958 210.363 157.65C209.859 157.333 209.457 156.908 209.159 156.376C208.86 155.835 208.711 155.237 208.711 154.584C208.711 153.921 208.86 153.324 209.159 152.792C209.457 152.26 209.859 151.84 210.363 151.532C210.876 151.215 211.45 151.056 212.085 151.056C212.589 151.056 213.069 151.149 213.527 151.336C213.984 151.523 214.381 151.784 214.717 152.12L214.059 152.834C213.816 152.563 213.522 152.353 213.177 152.204C212.831 152.055 212.481 151.98 212.127 151.98C211.679 151.98 211.273 152.097 210.909 152.33C210.554 152.563 210.269 152.876 210.055 153.268C209.84 153.66 209.733 154.099 209.733 154.584C209.733 155.069 209.84 155.508 210.055 155.9C210.269 156.292 210.554 156.605 210.909 156.838C211.273 157.071 211.679 157.188 212.127 157.188C212.481 157.188 212.831 157.113 213.177 156.964C213.522 156.805 213.816 156.595 214.059 156.334L214.717 157.048C214.381 157.384 213.984 157.645 213.527 157.832C213.069 158.019 212.589 158.112 212.085 158.112ZM218.883 158.14C218.295 158.14 217.847 158 217.539 157.72C217.24 157.431 217.091 157.015 217.091 156.474V152.008H215.677V151.168H217.091V149.292L218.113 149.054V151.168H220.073V152.008H218.113V156.208C218.113 156.572 218.187 156.833 218.337 156.992C218.495 157.151 218.752 157.23 219.107 157.23C219.284 157.23 219.443 157.216 219.583 157.188C219.723 157.16 219.886 157.113 220.073 157.048V157.958C219.886 158.023 219.69 158.07 219.485 158.098C219.279 158.126 219.079 158.14 218.883 158.14ZM221.556 158V151.168H222.578V158H221.556ZM222.074 149.474C221.868 149.474 221.691 149.404 221.542 149.264C221.402 149.115 221.332 148.942 221.332 148.746C221.332 148.55 221.402 148.382 221.542 148.242C221.691 148.093 221.868 148.018 222.074 148.018C222.279 148.018 222.452 148.093 222.592 148.242C222.741 148.382 222.816 148.55 222.816 148.746C222.816 148.942 222.741 149.115 222.592 149.264C222.452 149.404 222.279 149.474 222.074 149.474ZM227.697 158.112C227.062 158.112 226.493 157.958 225.989 157.65C225.485 157.342 225.088 156.922 224.799 156.39C224.51 155.858 224.365 155.256 224.365 154.584C224.365 153.912 224.51 153.31 224.799 152.778C225.088 152.246 225.485 151.826 225.989 151.518C226.493 151.21 227.062 151.056 227.697 151.056C228.322 151.056 228.882 151.21 229.377 151.518C229.881 151.826 230.278 152.246 230.567 152.778C230.856 153.31 231.001 153.912 231.001 154.584C231.001 155.256 230.856 155.858 230.567 156.39C230.278 156.922 229.881 157.342 229.377 157.65C228.882 157.958 228.322 158.112 227.697 158.112ZM227.683 157.216C228.131 157.216 228.528 157.104 228.873 156.88C229.218 156.647 229.489 156.329 229.685 155.928C229.89 155.527 229.993 155.079 229.993 154.584C229.993 154.08 229.89 153.632 229.685 153.24C229.489 152.839 229.218 152.526 228.873 152.302C228.528 152.069 228.131 151.952 227.683 151.952C227.235 151.952 226.838 152.069 226.493 152.302C226.148 152.526 225.872 152.839 225.667 153.24C225.471 153.632 225.373 154.08 225.373 154.584C225.373 155.079 225.471 155.527 225.667 155.928C225.872 156.329 226.148 156.647 226.493 156.88C226.838 157.104 227.235 157.216 227.683 157.216ZM232.794 158V151.168H233.816V152.274C234.077 151.863 234.39 151.56 234.754 151.364C235.118 151.159 235.529 151.056 235.986 151.056C236.481 151.056 236.91 151.163 237.274 151.378C237.647 151.583 237.937 151.877 238.142 152.26C238.357 152.633 238.464 153.072 238.464 153.576V158H237.442V153.87C237.442 153.263 237.274 152.787 236.938 152.442C236.611 152.087 236.168 151.91 235.608 151.91C235.235 151.91 234.894 151.999 234.586 152.176C234.278 152.353 234.021 152.615 233.816 152.96V158H232.794ZM246.684 158.154C246.012 158.154 245.382 158.037 244.794 157.804C244.216 157.571 243.702 157.225 243.254 156.768L243.926 156.11C244.337 156.521 244.757 156.819 245.186 157.006C245.625 157.183 246.12 157.272 246.67 157.272C247.146 157.272 247.566 157.188 247.93 157.02C248.304 156.852 248.593 156.619 248.798 156.32C249.004 156.021 249.106 155.681 249.106 155.298C249.106 154.934 249.013 154.612 248.826 154.332C248.649 154.043 248.402 153.819 248.084 153.66C247.767 153.501 247.403 153.422 246.992 153.422H245.83V152.554H246.95C247.482 152.554 247.912 152.391 248.238 152.064C248.574 151.737 248.742 151.313 248.742 150.79C248.742 150.445 248.649 150.132 248.462 149.852C248.276 149.572 248.019 149.353 247.692 149.194C247.375 149.026 247.016 148.942 246.614 148.942C246.11 148.942 245.658 149.035 245.256 149.222C244.864 149.399 244.463 149.703 244.052 150.132L243.38 149.46C243.819 148.993 244.314 148.643 244.864 148.41C245.415 148.167 246.003 148.046 246.628 148.046C247.226 148.046 247.758 148.163 248.224 148.396C248.7 148.629 249.074 148.951 249.344 149.362C249.615 149.763 249.75 150.221 249.75 150.734C249.75 151.247 249.582 151.709 249.246 152.12C248.91 152.521 248.467 152.801 247.916 152.96C248.579 153.109 249.111 153.399 249.512 153.828C249.914 154.257 250.114 154.757 250.114 155.326C250.114 155.867 249.965 156.353 249.666 156.782C249.377 157.211 248.971 157.547 248.448 157.79C247.935 158.033 247.347 158.154 246.684 158.154Z" fill="#151515"/>
<path d="M199.126 195L203.004 185.2H204.292L208.114 195H206.952L205.79 191.92H201.422L200.26 195H199.126ZM201.758 191.066H205.468L203.606 186.18L201.758 191.066ZM212.085 195.112C211.45 195.112 210.876 194.958 210.363 194.65C209.859 194.333 209.457 193.908 209.159 193.376C208.86 192.835 208.711 192.237 208.711 191.584C208.711 190.921 208.86 190.324 209.159 189.792C209.457 189.26 209.859 188.84 210.363 188.532C210.876 188.215 211.45 188.056 212.085 188.056C212.589 188.056 213.069 188.149 213.527 188.336C213.984 188.523 214.381 188.784 214.717 189.12L214.059 189.834C213.816 189.563 213.522 189.353 213.177 189.204C212.831 189.055 212.481 188.98 212.127 188.98C211.679 188.98 211.273 189.097 210.909 189.33C210.554 189.563 210.269 189.876 210.055 190.268C209.84 190.66 209.733 191.099 209.733 191.584C209.733 192.069 209.84 192.508 210.055 192.9C210.269 193.292 210.554 193.605 210.909 193.838C211.273 194.071 211.679 194.188 212.127 194.188C212.481 194.188 212.831 194.113 213.177 193.964C213.522 193.805 213.816 193.595 214.059 193.334L214.717 194.048C214.381 194.384 213.984 194.645 213.527 194.832C213.069 195.019 212.589 195.112 212.085 195.112ZM218.883 195.14C218.295 195.14 217.847 195 217.539 194.72C217.24 194.431 217.091 194.015 217.091 193.474V189.008H215.677V188.168H217.091V186.292L218.113 186.054V188.168H220.073V189.008H218.113V193.208C218.113 193.572 218.187 193.833 218.337 193.992C218.495 194.151 218.752 194.23 219.107 194.23C219.284 194.23 219.443 194.216 219.583 194.188C219.723 194.16 219.886 194.113 220.073 194.048V194.958C219.886 195.023 219.69 195.07 219.485 195.098C219.279 195.126 219.079 195.14 218.883 195.14ZM221.556 195V188.168H222.578V195H221.556ZM222.074 186.474C221.868 186.474 221.691 186.404 221.542 186.264C221.402 186.115 221.332 185.942 221.332 185.746C221.332 185.55 221.402 185.382 221.542 185.242C221.691 185.093 221.868 185.018 222.074 185.018C222.279 185.018 222.452 185.093 222.592 185.242C222.741 185.382 222.816 185.55 222.816 185.746C222.816 185.942 222.741 186.115 222.592 186.264C222.452 186.404 222.279 186.474 222.074 186.474ZM227.697 195.112C227.062 195.112 226.493 194.958 225.989 194.65C225.485 194.342 225.088 193.922 224.799 193.39C224.51 192.858 224.365 192.256 224.365 191.584C224.365 190.912 224.51 190.31 224.799 189.778C225.088 189.246 225.485 188.826 225.989 188.518C226.493 188.21 227.062 188.056 227.697 188.056C228.322 188.056 228.882 188.21 229.377 188.518C229.881 188.826 230.278 189.246 230.567 189.778C230.856 190.31 231.001 190.912 231.001 191.584C231.001 192.256 230.856 192.858 230.567 193.39C230.278 193.922 229.881 194.342 229.377 194.65C228.882 194.958 228.322 195.112 227.697 195.112ZM227.683 194.216C228.131 194.216 228.528 194.104 228.873 193.88C229.218 193.647 229.489 193.329 229.685 192.928C229.89 192.527 229.993 192.079 229.993 191.584C229.993 191.08 229.89 190.632 229.685 190.24C229.489 189.839 229.218 189.526 228.873 189.302C228.528 189.069 228.131 188.952 227.683 188.952C227.235 188.952 226.838 189.069 226.493 189.302C226.148 189.526 225.872 189.839 225.667 190.24C225.471 190.632 225.373 191.08 225.373 191.584C225.373 192.079 225.471 192.527 225.667 192.928C225.872 193.329 226.148 193.647 226.493 193.88C226.838 194.104 227.235 194.216 227.683 194.216ZM232.794 195V188.168H233.816V189.274C234.077 188.863 234.39 188.56 234.754 188.364C235.118 188.159 235.529 188.056 235.986 188.056C236.481 188.056 236.91 188.163 237.274 188.378C237.647 188.583 237.937 188.877 238.142 189.26C238.357 189.633 238.464 190.072 238.464 190.576V195H237.442V190.87C237.442 190.263 237.274 189.787 236.938 189.442C236.611 189.087 236.168 188.91 235.608 188.91C235.235 188.91 234.894 188.999 234.586 189.176C234.278 189.353 234.021 189.615 233.816 189.96V195H232.794ZM248.574 195V192.382H243.282V191.584L248.49 185.2H249.568V191.5H250.926V192.382H249.568V195H248.574ZM244.458 191.5H248.574V186.418L244.458 191.5Z" fill="#151515"/>
<path d="M199.126 232L203.004 222.2H204.292L208.114 232H206.952L205.79 228.92H201.422L200.26 232H199.126ZM201.758 228.066H205.468L203.606 223.18L201.758 228.066ZM212.085 232.112C211.45 232.112 210.876 231.958 210.363 231.65C209.859 231.333 209.457 230.908 209.159 230.376C208.86 229.835 208.711 229.237 208.711 228.584C208.711 227.921 208.86 227.324 209.159 226.792C209.457 226.26 209.859 225.84 210.363 225.532C210.876 225.215 211.45 225.056 212.085 225.056C212.589 225.056 213.069 225.149 213.527 225.336C213.984 225.523 214.381 225.784 214.717 226.12L214.059 226.834C213.816 226.563 213.522 226.353 213.177 226.204C212.831 226.055 212.481 225.98 212.127 225.98C211.679 225.98 211.273 226.097 210.909 226.33C210.554 226.563 210.269 226.876 210.055 227.268C209.84 227.66 209.733 228.099 209.733 228.584C209.733 229.069 209.84 229.508 210.055 229.9C210.269 230.292 210.554 230.605 210.909 230.838C211.273 231.071 211.679 231.188 212.127 231.188C212.481 231.188 212.831 231.113 213.177 230.964C213.522 230.805 213.816 230.595 214.059 230.334L214.717 231.048C214.381 231.384 213.984 231.645 213.527 231.832C213.069 232.019 212.589 232.112 212.085 232.112ZM218.883 232.14C218.295 232.14 217.847 232 217.539 231.72C217.24 231.431 217.091 231.015 217.091 230.474V226.008H215.677V225.168H217.091V223.292L218.113 223.054V225.168H220.073V226.008H218.113V230.208C218.113 230.572 218.187 230.833 218.337 230.992C218.495 231.151 218.752 231.23 219.107 231.23C219.284 231.23 219.443 231.216 219.583 231.188C219.723 231.16 219.886 231.113 220.073 231.048V231.958C219.886 232.023 219.69 232.07 219.485 232.098C219.279 232.126 219.079 232.14 218.883 232.14ZM221.556 232V225.168H222.578V232H221.556ZM222.074 223.474C221.868 223.474 221.691 223.404 221.542 223.264C221.402 223.115 221.332 222.942 221.332 222.746C221.332 222.55 221.402 222.382 221.542 222.242C221.691 222.093 221.868 222.018 222.074 222.018C222.279 222.018 222.452 222.093 222.592 222.242C222.741 222.382 222.816 222.55 222.816 222.746C222.816 222.942 222.741 223.115 222.592 223.264C222.452 223.404 222.279 223.474 222.074 223.474ZM227.697 232.112C227.062 232.112 226.493 231.958 225.989 231.65C225.485 231.342 225.088 230.922 224.799 230.39C224.51 229.858 224.365 229.256 224.365 228.584C224.365 227.912 224.51 227.31 224.799 226.778C225.088 226.246 225.485 225.826 225.989 225.518C226.493 225.21 227.062 225.056 227.697 225.056C228.322 225.056 228.882 225.21 229.377 225.518C229.881 225.826 230.278 226.246 230.567 226.778C230.856 227.31 231.001 227.912 231.001 228.584C231.001 229.256 230.856 229.858 230.567 230.39C230.278 230.922 229.881 231.342 229.377 231.65C228.882 231.958 228.322 232.112 227.697 232.112ZM227.683 231.216C228.131 231.216 228.528 231.104 228.873 230.88C229.218 230.647 229.489 230.329 229.685 229.928C229.89 229.527 229.993 229.079 229.993 228.584C229.993 228.08 229.89 227.632 229.685 227.24C229.489 226.839 229.218 226.526 228.873 226.302C228.528 226.069 228.131 225.952 227.683 225.952C227.235 225.952 226.838 226.069 226.493 226.302C226.148 226.526 225.872 226.839 225.667 227.24C225.471 227.632 225.373 228.08 225.373 228.584C225.373 229.079 225.471 229.527 225.667 229.928C225.872 230.329 226.148 230.647 226.493 230.88C226.838 231.104 227.235 231.216 227.683 231.216ZM232.794 232V225.168H233.816V226.274C234.077 225.863 234.39 225.56 234.754 225.364C235.118 225.159 235.529 225.056 235.986 225.056C236.481 225.056 236.91 225.163 237.274 225.378C237.647 225.583 237.937 225.877 238.142 226.26C238.357 226.633 238.464 227.072 238.464 227.576V232H237.442V227.87C237.442 227.263 237.274 226.787 236.938 226.442C236.611 226.087 236.168 225.91 235.608 225.91C235.235 225.91 234.894 225.999 234.586 226.176C234.278 226.353 234.021 226.615 233.816 226.96V232H232.794ZM246.586 232.154C245.298 232.154 244.188 231.711 243.254 230.824L243.884 230.138C244.314 230.539 244.738 230.833 245.158 231.02C245.588 231.197 246.068 231.286 246.6 231.286C247.076 231.286 247.496 231.188 247.86 230.992C248.224 230.796 248.504 230.521 248.7 230.166C248.906 229.811 249.008 229.405 249.008 228.948C249.008 228.295 248.784 227.767 248.336 227.366C247.898 226.965 247.319 226.764 246.6 226.764C246.227 226.764 245.863 226.811 245.508 226.904C245.154 226.988 244.785 227.128 244.402 227.324L243.702 227.1L243.926 222.2H249.498V223.082H244.794L244.64 226.47C245.014 226.283 245.373 226.153 245.718 226.078C246.064 225.994 246.428 225.952 246.81 225.952C247.454 225.952 248.014 226.078 248.49 226.33C248.976 226.573 249.349 226.918 249.61 227.366C249.881 227.805 250.016 228.318 250.016 228.906C250.016 229.55 249.872 230.115 249.582 230.6C249.293 231.085 248.892 231.468 248.378 231.748C247.865 232.019 247.268 232.154 246.586 232.154Z" fill="#151515"/>
</g>
</g>
<defs>
<filter id="filter0_d_1990_49594" x="166" y="48" width="133" height="219" filterUnits="userSpaceOnUse" color-interpolation-filters="sRGB">
<feFlood flood-opacity="0" result="BackgroundImageFix"/>
<feColorMatrix in="SourceAlpha" type="matrix" values="0 0 0 0 0 0 0 0 0 0 0 0 0 0 0 0 0 0 127 0" result="hardAlpha"/>
<feOffset dy="4"/>
<feGaussianBlur stdDeviation="4.5"/>
<feColorMatrix type="matrix" values="0 0 0 0 0.160784 0 0 0 0 0.160784 0 0 0 0 0.160784 0 0 0 0.15 0"/>
<feBlend mode="normal" in2="BackgroundImageFix" result="effect1_dropShadow_1990_49594"/>
<feBlend mode="normal" in="SourceGraphic" in2="effect1_dropShadow_1990_49594" result="shape"/>
</filter>
<clipPath id="clip0_1990_49594">
<rect width="368" height="281" fill="white"/>
</clipPath>
</defs>
</svg>
