<svg width="600" height="389" viewBox="0 0 600 389" fill="none" xmlns="http://www.w3.org/2000/svg">
<g clip-path="url(#clip0_1638_67031)">
<rect width="600" height="389" fill="#F2F2F2"/>
<g filter="url(#filter0_d_1638_67031)">
<path d="M40 48C40 34.7452 50.7452 24 64 24H536C549.255 24 560 34.7452 560 48V341C560 354.255 549.255 365 536 365H64C50.7452 365 40 354.255 40 341V48Z" fill="white"/>
<path d="M73.42 81.5V67.5H76.24L80.62 76.46L85 67.5H87.8V81.5H85.82V70.06L80.6 80.5L75.38 70.06V81.5H73.42ZM93.4313 81.68C92.6979 81.68 92.0513 81.5533 91.4913 81.3C90.9313 81.0333 90.4913 80.6667 90.1713 80.2C89.8513 79.7333 89.6912 79.1933 89.6912 78.58C89.6912 77.62 90.0579 76.8667 90.7913 76.32C91.5246 75.76 92.5313 75.48 93.8113 75.48C94.8113 75.48 95.7379 75.6733 96.5913 76.06V74.98C96.5913 73.5267 95.7646 72.8 94.1113 72.8C93.6446 72.8 93.1579 72.8733 92.6513 73.02C92.1446 73.1533 91.5779 73.3667 90.9513 73.66L90.2113 72.16C90.9846 71.8 91.7046 71.54 92.3713 71.38C93.0379 71.2067 93.7113 71.12 94.3913 71.12C95.7113 71.12 96.7313 71.4333 97.4513 72.06C98.1846 72.6867 98.5513 73.58 98.5513 74.74V81.5H96.5913V80.62C96.1379 80.98 95.6513 81.2467 95.1313 81.42C94.6113 81.5933 94.0446 81.68 93.4313 81.68ZM91.6113 78.54C91.6113 79.0333 91.8179 79.4333 92.2313 79.74C92.6579 80.0467 93.2113 80.2 93.8913 80.2C94.9846 80.2 95.8846 79.8733 96.5913 79.22V77.5C95.8579 77.0733 94.9846 76.86 93.9713 76.86C93.2379 76.86 92.6579 77.0133 92.2313 77.32C91.8179 77.6133 91.6113 78.02 91.6113 78.54ZM100.856 81.5V71.32H102.856V72.36C103.642 71.5333 104.662 71.12 105.916 71.12C106.702 71.12 107.389 71.2867 107.976 71.62C108.576 71.9533 109.042 72.42 109.376 73.02C109.722 73.62 109.896 74.3133 109.896 75.1V81.5H107.896V75.44C107.896 74.64 107.669 74.0133 107.216 73.56C106.762 73.0933 106.142 72.86 105.356 72.86C104.822 72.86 104.342 72.9733 103.916 73.2C103.489 73.4267 103.136 73.7533 102.856 74.18V81.5H100.856ZM115.423 81.68C114.69 81.68 114.043 81.5533 113.483 81.3C112.923 81.0333 112.483 80.6667 112.163 80.2C111.843 79.7333 111.683 79.1933 111.683 78.58C111.683 77.62 112.05 76.8667 112.783 76.32C113.517 75.76 114.523 75.48 115.803 75.48C116.803 75.48 117.73 75.6733 118.583 76.06V74.98C118.583 73.5267 117.757 72.8 116.103 72.8C115.637 72.8 115.15 72.8733 114.643 73.02C114.137 73.1533 113.57 73.3667 112.943 73.66L112.203 72.16C112.977 71.8 113.697 71.54 114.363 71.38C115.03 71.2067 115.703 71.12 116.383 71.12C117.703 71.12 118.723 71.4333 119.443 72.06C120.177 72.6867 120.543 73.58 120.543 74.74V81.5H118.583V80.62C118.13 80.98 117.643 81.2467 117.123 81.42C116.603 81.5933 116.037 81.68 115.423 81.68ZM113.603 78.54C113.603 79.0333 113.81 79.4333 114.223 79.74C114.65 80.0467 115.203 80.2 115.883 80.2C116.977 80.2 117.877 79.8733 118.583 79.22V77.5C117.85 77.0733 116.977 76.86 115.963 76.86C115.23 76.86 114.65 77.0133 114.223 77.32C113.81 77.6133 113.603 78.02 113.603 78.54ZM127.888 85.78C127.141 85.78 126.415 85.6933 125.708 85.52C125.015 85.3467 124.375 85.1 123.788 84.78L124.548 83.22C125.695 83.8067 126.788 84.1 127.828 84.1C129.641 84.1 130.548 83.2867 130.548 81.66V80.5C129.655 81.2067 128.635 81.56 127.488 81.56C126.555 81.56 125.695 81.3333 124.908 80.88C124.135 80.4133 123.521 79.7867 123.068 79C122.615 78.2 122.388 77.32 122.388 76.36C122.388 75.3867 122.615 74.5067 123.068 73.72C123.535 72.92 124.155 72.2933 124.928 71.84C125.715 71.3733 126.595 71.14 127.568 71.14C128.675 71.14 129.675 71.4867 130.568 72.18V71.32H132.548V81.66C132.548 82.98 132.141 83.9933 131.328 84.7C130.528 85.42 129.381 85.78 127.888 85.78ZM127.748 79.84C128.948 79.84 129.881 79.44 130.548 78.64V74.08C130.228 73.7067 129.821 73.4133 129.328 73.2C128.848 72.9867 128.321 72.88 127.748 72.88C127.108 72.88 126.528 73.0333 126.008 73.34C125.501 73.6467 125.095 74.0667 124.788 74.6C124.495 75.12 124.348 75.7067 124.348 76.36C124.348 77.0133 124.495 77.6067 124.788 78.14C125.095 78.66 125.508 79.0733 126.028 79.38C126.548 79.6867 127.121 79.84 127.748 79.84ZM139.779 81.68C138.779 81.68 137.872 81.4467 137.059 80.98C136.259 80.5133 135.619 79.88 135.139 79.08C134.672 78.28 134.439 77.3867 134.439 76.4C134.439 75.4267 134.665 74.5467 135.119 73.76C135.572 72.96 136.185 72.3267 136.959 71.86C137.732 71.38 138.592 71.14 139.539 71.14C140.485 71.14 141.325 71.38 142.059 71.86C142.792 72.3267 143.372 72.9667 143.799 73.78C144.239 74.58 144.459 75.4867 144.459 76.5V77.06H136.439C136.545 77.62 136.752 78.12 137.059 78.56C137.379 79 137.779 79.3467 138.259 79.6C138.752 79.8533 139.285 79.98 139.859 79.98C140.352 79.98 140.825 79.9067 141.279 79.76C141.745 79.6 142.132 79.3733 142.439 79.08L143.719 80.34C143.119 80.7933 142.499 81.1333 141.859 81.36C141.232 81.5733 140.539 81.68 139.779 81.68ZM136.459 75.56H142.479C142.399 75.0267 142.212 74.56 141.919 74.16C141.639 73.7467 141.285 73.4267 140.859 73.2C140.445 72.96 139.992 72.84 139.499 72.84C138.725 72.84 138.059 73.0933 137.499 73.6C136.952 74.0933 136.605 74.7467 136.459 75.56ZM154.903 81.68C153.917 81.68 153.163 81.4533 152.643 81C152.123 80.5333 151.863 79.86 151.863 78.98V73H149.703V71.32H151.863V68.72L153.843 68.24V71.32H156.843V73H153.843V78.52C153.843 79.04 153.957 79.4133 154.183 79.64C154.423 79.8533 154.81 79.96 155.343 79.96C155.623 79.96 155.87 79.94 156.083 79.9C156.31 79.86 156.55 79.8 156.803 79.72V81.4C156.537 81.4933 156.223 81.56 155.863 81.6C155.517 81.6533 155.197 81.68 154.903 81.68ZM163.04 81.68C162.04 81.68 161.134 81.4467 160.32 80.98C159.52 80.5133 158.88 79.88 158.4 79.08C157.934 78.28 157.7 77.3867 157.7 76.4C157.7 75.4267 157.927 74.5467 158.38 73.76C158.834 72.96 159.447 72.3267 160.22 71.86C160.994 71.38 161.854 71.14 162.8 71.14C163.747 71.14 164.587 71.38 165.32 71.86C166.054 72.3267 166.634 72.9667 167.06 73.78C167.5 74.58 167.72 75.4867 167.72 76.5V77.06H159.7C159.807 77.62 160.014 78.12 160.32 78.56C160.64 79 161.04 79.3467 161.52 79.6C162.014 79.8533 162.547 79.98 163.12 79.98C163.614 79.98 164.087 79.9067 164.54 79.76C165.007 79.6 165.394 79.3733 165.7 79.08L166.98 80.34C166.38 80.7933 165.76 81.1333 165.12 81.36C164.494 81.5733 163.8 81.68 163.04 81.68ZM159.72 75.56H165.74C165.66 75.0267 165.474 74.56 165.18 74.16C164.9 73.7467 164.547 73.4267 164.12 73.2C163.707 72.96 163.254 72.84 162.76 72.84C161.987 72.84 161.32 73.0933 160.76 73.6C160.214 74.0933 159.867 74.7467 159.72 75.56ZM169.625 81.5V71.32H171.625V72.3C172.385 71.5133 173.339 71.12 174.485 71.12C175.179 71.12 175.792 71.2733 176.325 71.58C176.872 71.8867 177.305 72.3 177.625 72.82C178.465 71.6867 179.612 71.12 181.065 71.12C181.825 71.12 182.485 71.2867 183.045 71.62C183.619 71.9533 184.065 72.42 184.385 73.02C184.719 73.62 184.885 74.3133 184.885 75.1V81.5H182.885V75.44C182.885 74.64 182.672 74.0133 182.245 73.56C181.832 73.0933 181.265 72.86 180.545 72.86C179.545 72.86 178.752 73.32 178.165 74.24C178.192 74.3733 178.212 74.5133 178.225 74.66C178.239 74.8067 178.245 74.9533 178.245 75.1V81.5H176.265V75.44C176.265 74.64 176.052 74.0133 175.625 73.56C175.212 73.0933 174.645 72.86 173.925 72.86C172.952 72.86 172.185 73.2733 171.625 74.1V81.5H169.625ZM187.184 85.58V71.32H189.164V72.3C190.017 71.54 191.057 71.16 192.284 71.16C193.244 71.16 194.111 71.3933 194.884 71.86C195.671 72.3267 196.291 72.9533 196.744 73.74C197.197 74.5267 197.424 75.4133 197.424 76.4C197.424 77.3867 197.191 78.28 196.724 79.08C196.271 79.8667 195.651 80.4933 194.864 80.96C194.091 81.4267 193.217 81.66 192.244 81.66C191.684 81.66 191.144 81.5733 190.624 81.4C190.104 81.2133 189.624 80.9533 189.184 80.62V85.58H187.184ZM192.024 79.92C192.677 79.92 193.257 79.7667 193.764 79.46C194.284 79.1533 194.697 78.74 195.004 78.22C195.311 77.6867 195.464 77.0867 195.464 76.42C195.464 75.7533 195.311 75.1533 195.004 74.62C194.697 74.0867 194.284 73.6667 193.764 73.36C193.257 73.0533 192.677 72.9 192.024 72.9C191.451 72.9 190.917 73.0067 190.424 73.22C189.931 73.4333 189.517 73.7333 189.184 74.12V78.72C189.517 79.0933 189.931 79.3867 190.424 79.6C190.931 79.8133 191.464 79.92 192.024 79.92ZM199.332 81.5V67.5L201.332 67.12V81.5H199.332ZM206.908 81.68C206.174 81.68 205.528 81.5533 204.968 81.3C204.408 81.0333 203.968 80.6667 203.648 80.2C203.328 79.7333 203.168 79.1933 203.168 78.58C203.168 77.62 203.534 76.8667 204.268 76.32C205.001 75.76 206.008 75.48 207.288 75.48C208.288 75.48 209.214 75.6733 210.068 76.06V74.98C210.068 73.5267 209.241 72.8 207.588 72.8C207.121 72.8 206.634 72.8733 206.128 73.02C205.621 73.1533 205.054 73.3667 204.428 73.66L203.688 72.16C204.461 71.8 205.181 71.54 205.848 71.38C206.514 71.2067 207.188 71.12 207.868 71.12C209.188 71.12 210.208 71.4333 210.928 72.06C211.661 72.6867 212.028 73.58 212.028 74.74V81.5H210.068V80.62C209.614 80.98 209.128 81.2467 208.608 81.42C208.088 81.5933 207.521 81.68 206.908 81.68ZM205.088 78.54C205.088 79.0333 205.294 79.4333 205.708 79.74C206.134 80.0467 206.688 80.2 207.368 80.2C208.461 80.2 209.361 79.8733 210.068 79.22V77.5C209.334 77.0733 208.461 76.86 207.448 76.86C206.714 76.86 206.134 77.0133 205.708 77.32C205.294 77.6133 205.088 78.02 205.088 78.54ZM218.399 81.68C217.413 81.68 216.659 81.4533 216.139 81C215.619 80.5333 215.359 79.86 215.359 78.98V73H213.199V71.32H215.359V68.72L217.339 68.24V71.32H220.339V73H217.339V78.52C217.339 79.04 217.453 79.4133 217.679 79.64C217.919 79.8533 218.306 79.96 218.839 79.96C219.119 79.96 219.366 79.94 219.579 79.9C219.806 79.86 220.046 79.8 220.299 79.72V81.4C220.033 81.4933 219.719 81.56 219.359 81.6C219.013 81.6533 218.693 81.68 218.399 81.68ZM226.537 81.68C225.537 81.68 224.63 81.4467 223.817 80.98C223.017 80.5133 222.377 79.88 221.897 79.08C221.43 78.28 221.197 77.3867 221.197 76.4C221.197 75.4267 221.423 74.5467 221.877 73.76C222.33 72.96 222.943 72.3267 223.717 71.86C224.49 71.38 225.35 71.14 226.297 71.14C227.243 71.14 228.083 71.38 228.817 71.86C229.55 72.3267 230.13 72.9667 230.557 73.78C230.997 74.58 231.217 75.4867 231.217 76.5V77.06H223.197C223.303 77.62 223.51 78.12 223.817 78.56C224.137 79 224.537 79.3467 225.017 79.6C225.51 79.8533 226.043 79.98 226.617 79.98C227.11 79.98 227.583 79.9067 228.037 79.76C228.503 79.6 228.89 79.3733 229.197 79.08L230.477 80.34C229.877 80.7933 229.257 81.1333 228.617 81.36C227.99 81.5733 227.297 81.68 226.537 81.68ZM223.217 75.56H229.237C229.157 75.0267 228.97 74.56 228.677 74.16C228.397 73.7467 228.043 73.4267 227.617 73.2C227.203 72.96 226.75 72.84 226.257 72.84C225.483 72.84 224.817 73.0933 224.257 73.6C223.71 74.0933 223.363 74.7467 223.217 75.56Z" fill="#151515"/>
<path d="M512.382 70.0848C512.718 69.7491 513.263 69.7491 513.599 70.0848L514.206 70.6932C514.542 71.0293 514.542 71.5733 514.206 71.9091L511.47 74.6454L514.206 77.3817C514.542 77.7178 514.542 78.2627 514.206 78.5985L513.599 79.2059C513.263 79.5417 512.718 79.5417 512.382 79.2059L509.646 76.4696L506.909 79.2059C506.573 79.5417 506.029 79.5417 505.693 79.2059L505.085 78.5985C504.749 78.2625 504.749 77.7175 505.085 77.3817L507.821 74.6454L505.085 71.9091C504.75 71.573 504.749 71.029 505.085 70.6932L505.693 70.0848C506.029 69.7493 506.573 69.7494 506.909 70.0848L509.646 72.8212L512.382 70.0848Z" fill="#1F1F1F"/>
<path d="M75.976 124V119.996L72.168 114.2H73.428L76.55 119.058L79.686 114.2H80.876L77.054 120.024V124H75.976ZM83.6619 124.112C83.0272 124.112 82.4579 123.958 81.9539 123.65C81.4499 123.342 81.0532 122.922 80.7639 122.39C80.4746 121.858 80.3299 121.256 80.3299 120.584C80.3299 119.912 80.4746 119.31 80.7639 118.778C81.0532 118.246 81.4499 117.826 81.9539 117.518C82.4579 117.21 83.0272 117.056 83.6619 117.056C84.2872 117.056 84.8472 117.21 85.3419 117.518C85.8459 117.826 86.2426 118.246 86.5319 118.778C86.8212 119.31 86.9659 119.912 86.9659 120.584C86.9659 121.256 86.8212 121.858 86.5319 122.39C86.2426 122.922 85.8459 123.342 85.3419 123.65C84.8472 123.958 84.2872 124.112 83.6619 124.112ZM83.6479 123.216C84.0959 123.216 84.4926 123.104 84.8379 122.88C85.1832 122.647 85.4539 122.329 85.6499 121.928C85.8552 121.527 85.9579 121.079 85.9579 120.584C85.9579 120.08 85.8552 119.632 85.6499 119.24C85.4539 118.839 85.1832 118.526 84.8379 118.302C84.4926 118.069 84.0959 117.952 83.6479 117.952C83.1999 117.952 82.8032 118.069 82.4579 118.302C82.1126 118.526 81.8372 118.839 81.6319 119.24C81.4359 119.632 81.3379 120.08 81.3379 120.584C81.3379 121.079 81.4359 121.527 81.6319 121.928C81.8372 122.329 82.1126 122.647 82.4579 122.88C82.8032 123.104 83.1999 123.216 83.6479 123.216ZM91.195 124.112C90.7097 124.112 90.2803 124.005 89.907 123.79C89.5337 123.575 89.2397 123.277 89.025 122.894C88.8197 122.511 88.717 122.073 88.717 121.578V117.168H89.753V121.284C89.753 121.891 89.9163 122.371 90.243 122.726C90.5697 123.081 91.013 123.258 91.573 123.258C91.9557 123.258 92.2963 123.169 92.595 122.992C92.903 122.815 93.1597 122.558 93.365 122.222V117.168H94.387V124H93.365V122.894C93.1037 123.295 92.791 123.599 92.427 123.804C92.0723 124.009 91.6617 124.112 91.195 124.112ZM102.817 124.112C102.183 124.112 101.609 123.958 101.095 123.65C100.591 123.333 100.19 122.908 99.8912 122.376C99.5925 121.835 99.4432 121.237 99.4432 120.584C99.4432 119.921 99.5925 119.324 99.8912 118.792C100.19 118.26 100.591 117.84 101.095 117.532C101.609 117.215 102.183 117.056 102.817 117.056C103.321 117.056 103.802 117.149 104.259 117.336C104.717 117.523 105.113 117.784 105.449 118.12L104.791 118.834C104.549 118.563 104.255 118.353 103.909 118.204C103.564 118.055 103.214 117.98 102.859 117.98C102.411 117.98 102.005 118.097 101.641 118.33C101.287 118.563 101.002 118.876 100.787 119.268C100.573 119.66 100.465 120.099 100.465 120.584C100.465 121.069 100.573 121.508 100.787 121.9C101.002 122.292 101.287 122.605 101.641 122.838C102.005 123.071 102.411 123.188 102.859 123.188C103.214 123.188 103.564 123.113 103.909 122.964C104.255 122.805 104.549 122.595 104.791 122.334L105.449 123.048C105.113 123.384 104.717 123.645 104.259 123.832C103.802 124.019 103.321 124.112 102.817 124.112ZM108.988 124.126C108.503 124.126 108.074 124.037 107.7 123.86C107.327 123.683 107.033 123.44 106.818 123.132C106.613 122.815 106.51 122.451 106.51 122.04C106.51 121.629 106.618 121.275 106.832 120.976C107.047 120.668 107.346 120.43 107.728 120.262C108.111 120.094 108.559 120.01 109.072 120.01C109.464 120.01 109.833 120.052 110.178 120.136C110.533 120.22 110.86 120.355 111.158 120.542V119.604C111.158 119.044 111.009 118.624 110.71 118.344C110.412 118.055 109.973 117.91 109.394 117.91C109.077 117.91 108.75 117.957 108.414 118.05C108.088 118.143 107.724 118.293 107.322 118.498L106.944 117.714C107.859 117.275 108.718 117.056 109.52 117.056C110.37 117.056 111.023 117.266 111.48 117.686C111.938 118.097 112.166 118.689 112.166 119.464V124H111.158V123.202C110.86 123.51 110.528 123.743 110.164 123.902C109.8 124.051 109.408 124.126 108.988 124.126ZM107.49 122.012C107.49 122.413 107.644 122.735 107.952 122.978C108.27 123.221 108.685 123.342 109.198 123.342C109.581 123.342 109.931 123.277 110.248 123.146C110.575 123.015 110.878 122.819 111.158 122.558V121.242C110.869 121.074 110.57 120.953 110.262 120.878C109.954 120.794 109.609 120.752 109.226 120.752C108.704 120.752 108.284 120.869 107.966 121.102C107.649 121.326 107.49 121.629 107.49 122.012ZM114.243 124V117.168H115.265V118.274C115.527 117.863 115.839 117.56 116.203 117.364C116.567 117.159 116.978 117.056 117.435 117.056C117.93 117.056 118.359 117.163 118.723 117.378C119.097 117.583 119.386 117.877 119.591 118.26C119.806 118.633 119.913 119.072 119.913 119.576V124H118.891V119.87C118.891 119.263 118.723 118.787 118.387 118.442C118.061 118.087 117.617 117.91 117.057 117.91C116.684 117.91 116.343 117.999 116.035 118.176C115.727 118.353 115.471 118.615 115.265 118.96V124H114.243ZM128.316 124.14C127.681 124.14 127.107 123.986 126.594 123.678C126.08 123.361 125.674 122.936 125.376 122.404C125.077 121.863 124.928 121.256 124.928 120.584C124.928 119.912 125.068 119.31 125.348 118.778C125.637 118.246 126.024 117.826 126.51 117.518C126.995 117.21 127.536 117.056 128.134 117.056C128.74 117.056 129.277 117.21 129.744 117.518C130.22 117.817 130.593 118.227 130.864 118.75C131.144 119.263 131.284 119.847 131.284 120.5V120.808H125.922C125.959 121.275 126.085 121.695 126.3 122.068C126.524 122.432 126.813 122.721 127.168 122.936C127.532 123.141 127.928 123.244 128.358 123.244C128.712 123.244 129.053 123.183 129.38 123.062C129.716 122.931 130 122.759 130.234 122.544L130.878 123.23C130.486 123.538 130.08 123.767 129.66 123.916C129.24 124.065 128.792 124.14 128.316 124.14ZM125.95 120.08H130.276C130.229 119.669 130.103 119.305 129.898 118.988C129.702 118.661 129.45 118.405 129.142 118.218C128.843 118.031 128.507 117.938 128.134 117.938C127.76 117.938 127.42 118.031 127.112 118.218C126.804 118.395 126.547 118.647 126.342 118.974C126.146 119.291 126.015 119.66 125.95 120.08ZM135.871 124.098C135.283 124.098 134.751 123.944 134.275 123.636C133.799 123.319 133.421 122.899 133.141 122.376C132.861 121.844 132.721 121.251 132.721 120.598C132.721 119.935 132.861 119.343 133.141 118.82C133.43 118.288 133.817 117.868 134.303 117.56C134.788 117.243 135.329 117.084 135.927 117.084C136.347 117.084 136.739 117.168 137.103 117.336C137.467 117.495 137.784 117.728 138.055 118.036V113.892L139.077 113.682V124H138.055V123.09C137.793 123.417 137.476 123.669 137.103 123.846C136.729 124.014 136.319 124.098 135.871 124.098ZM136.123 123.202C136.524 123.202 136.893 123.123 137.229 122.964C137.565 122.805 137.84 122.581 138.055 122.292V118.904C137.831 118.615 137.546 118.391 137.201 118.232C136.865 118.064 136.505 117.98 136.123 117.98C135.665 117.98 135.255 118.092 134.891 118.316C134.536 118.54 134.251 118.848 134.037 119.24C133.831 119.632 133.729 120.08 133.729 120.584C133.729 121.079 133.831 121.527 134.037 121.928C134.251 122.32 134.536 122.633 134.891 122.866C135.255 123.09 135.665 123.202 136.123 123.202ZM141.163 124V117.168H142.185V124H141.163ZM141.681 115.474C141.476 115.474 141.298 115.404 141.149 115.264C141.009 115.115 140.939 114.942 140.939 114.746C140.939 114.55 141.009 114.382 141.149 114.242C141.298 114.093 141.476 114.018 141.681 114.018C141.886 114.018 142.059 114.093 142.199 114.242C142.348 114.382 142.423 114.55 142.423 114.746C142.423 114.942 142.348 115.115 142.199 115.264C142.059 115.404 141.886 115.474 141.681 115.474ZM146.884 124.14C146.296 124.14 145.848 124 145.54 123.72C145.242 123.431 145.092 123.015 145.092 122.474V118.008H143.678V117.168H145.092V115.292L146.114 115.054V117.168H148.074V118.008H146.114V122.208C146.114 122.572 146.189 122.833 146.338 122.992C146.497 123.151 146.754 123.23 147.108 123.23C147.286 123.23 147.444 123.216 147.584 123.188C147.724 123.16 147.888 123.113 148.074 123.048V123.958C147.888 124.023 147.692 124.07 147.486 124.098C147.281 124.126 147.08 124.14 146.884 124.14ZM155.863 124.112C155.228 124.112 154.659 123.958 154.155 123.65C153.651 123.342 153.254 122.922 152.965 122.39C152.676 121.858 152.531 121.256 152.531 120.584C152.531 119.912 152.676 119.31 152.965 118.778C153.254 118.246 153.651 117.826 154.155 117.518C154.659 117.21 155.228 117.056 155.863 117.056C156.488 117.056 157.048 117.21 157.543 117.518C158.047 117.826 158.444 118.246 158.733 118.778C159.022 119.31 159.167 119.912 159.167 120.584C159.167 121.256 159.022 121.858 158.733 122.39C158.444 122.922 158.047 123.342 157.543 123.65C157.048 123.958 156.488 124.112 155.863 124.112ZM155.849 123.216C156.297 123.216 156.694 123.104 157.039 122.88C157.384 122.647 157.655 122.329 157.851 121.928C158.056 121.527 158.159 121.079 158.159 120.584C158.159 120.08 158.056 119.632 157.851 119.24C157.655 118.839 157.384 118.526 157.039 118.302C156.694 118.069 156.297 117.952 155.849 117.952C155.401 117.952 155.004 118.069 154.659 118.302C154.314 118.526 154.038 118.839 153.833 119.24C153.637 119.632 153.539 120.08 153.539 120.584C153.539 121.079 153.637 121.527 153.833 121.928C154.038 122.329 154.314 122.647 154.659 122.88C155.004 123.104 155.401 123.216 155.849 123.216ZM160.96 124V117.168H161.982V118.568C162.159 118.092 162.411 117.723 162.738 117.462C163.074 117.191 163.457 117.056 163.886 117.056C164.007 117.056 164.119 117.065 164.222 117.084C164.325 117.093 164.427 117.117 164.53 117.154V118.078C164.418 118.041 164.297 118.013 164.166 117.994C164.045 117.966 163.928 117.952 163.816 117.952C163.396 117.952 163.027 118.073 162.71 118.316C162.402 118.559 162.159 118.899 161.982 119.338V124H160.96ZM171.992 124.098C171.404 124.098 170.872 123.944 170.396 123.636C169.92 123.319 169.542 122.899 169.262 122.376C168.982 121.844 168.842 121.251 168.842 120.598C168.842 119.935 168.982 119.343 169.262 118.82C169.551 118.288 169.938 117.868 170.424 117.56C170.909 117.243 171.45 117.084 172.048 117.084C172.468 117.084 172.86 117.168 173.224 117.336C173.588 117.495 173.905 117.728 174.176 118.036V113.892L175.198 113.682V124H174.176V123.09C173.914 123.417 173.597 123.669 173.224 123.846C172.85 124.014 172.44 124.098 171.992 124.098ZM172.244 123.202C172.645 123.202 173.014 123.123 173.35 122.964C173.686 122.805 173.961 122.581 174.176 122.292V118.904C173.952 118.615 173.667 118.391 173.322 118.232C172.986 118.064 172.626 117.98 172.244 117.98C171.786 117.98 171.376 118.092 171.012 118.316C170.657 118.54 170.372 118.848 170.158 119.24C169.952 119.632 169.85 120.08 169.85 120.584C169.85 121.079 169.952 121.527 170.158 121.928C170.372 122.32 170.657 122.633 171.012 122.866C171.376 123.09 171.786 123.202 172.244 123.202ZM180.378 124.14C179.743 124.14 179.169 123.986 178.656 123.678C178.143 123.361 177.737 122.936 177.438 122.404C177.139 121.863 176.99 121.256 176.99 120.584C176.99 119.912 177.13 119.31 177.41 118.778C177.699 118.246 178.087 117.826 178.572 117.518C179.057 117.21 179.599 117.056 180.196 117.056C180.803 117.056 181.339 117.21 181.806 117.518C182.282 117.817 182.655 118.227 182.926 118.75C183.206 119.263 183.346 119.847 183.346 120.5V120.808H177.984C178.021 121.275 178.147 121.695 178.362 122.068C178.586 122.432 178.875 122.721 179.23 122.936C179.594 123.141 179.991 123.244 180.42 123.244C180.775 123.244 181.115 123.183 181.442 123.062C181.778 122.931 182.063 122.759 182.296 122.544L182.94 123.23C182.548 123.538 182.142 123.767 181.722 123.916C181.302 124.065 180.854 124.14 180.378 124.14ZM178.012 120.08H182.338C182.291 119.669 182.165 119.305 181.96 118.988C181.764 118.661 181.512 118.405 181.204 118.218C180.905 118.031 180.569 117.938 180.196 117.938C179.823 117.938 179.482 118.031 179.174 118.218C178.866 118.395 178.609 118.647 178.404 118.974C178.208 119.291 178.077 119.66 178.012 120.08ZM185.091 124V113.892L186.113 113.682V124H185.091ZM191.288 124.14C190.654 124.14 190.08 123.986 189.566 123.678C189.053 123.361 188.647 122.936 188.348 122.404C188.05 121.863 187.9 121.256 187.9 120.584C187.9 119.912 188.04 119.31 188.32 118.778C188.61 118.246 188.997 117.826 189.482 117.518C189.968 117.21 190.509 117.056 191.106 117.056C191.713 117.056 192.25 117.21 192.716 117.518C193.192 117.817 193.566 118.227 193.836 118.75C194.116 119.263 194.256 119.847 194.256 120.5V120.808H188.894C188.932 121.275 189.058 121.695 189.272 122.068C189.496 122.432 189.786 122.721 190.14 122.936C190.504 123.141 190.901 123.244 191.33 123.244C191.685 123.244 192.026 123.183 192.352 123.062C192.688 122.931 192.973 122.759 193.206 122.544L193.85 123.23C193.458 123.538 193.052 123.767 192.632 123.916C192.212 124.065 191.764 124.14 191.288 124.14ZM188.922 120.08H193.248C193.202 119.669 193.076 119.305 192.87 118.988C192.674 118.661 192.422 118.405 192.114 118.218C191.816 118.031 191.48 117.938 191.106 117.938C190.733 117.938 190.392 118.031 190.084 118.218C189.776 118.395 189.52 118.647 189.314 118.974C189.118 119.291 188.988 119.66 188.922 120.08ZM198.4 124.14C197.812 124.14 197.364 124 197.056 123.72C196.757 123.431 196.608 123.015 196.608 122.474V118.008H195.194V117.168H196.608V115.292L197.63 115.054V117.168H199.59V118.008H197.63V122.208C197.63 122.572 197.705 122.833 197.854 122.992C198.013 123.151 198.269 123.23 198.624 123.23C198.801 123.23 198.96 123.216 199.1 123.188C199.24 123.16 199.403 123.113 199.59 123.048V123.958C199.403 124.023 199.207 124.07 199.002 124.098C198.797 124.126 198.596 124.14 198.4 124.14ZM204.03 124.14C203.396 124.14 202.822 123.986 202.308 123.678C201.795 123.361 201.389 122.936 201.09 122.404C200.792 121.863 200.642 121.256 200.642 120.584C200.642 119.912 200.782 119.31 201.062 118.778C201.352 118.246 201.739 117.826 202.224 117.518C202.71 117.21 203.251 117.056 203.848 117.056C204.455 117.056 204.992 117.21 205.458 117.518C205.934 117.817 206.308 118.227 206.578 118.75C206.858 119.263 206.998 119.847 206.998 120.5V120.808H201.636C201.674 121.275 201.8 121.695 202.014 122.068C202.238 122.432 202.528 122.721 202.882 122.936C203.246 123.141 203.643 123.244 204.072 123.244C204.427 123.244 204.768 123.183 205.094 123.062C205.43 122.931 205.715 122.759 205.948 122.544L206.592 123.23C206.2 123.538 205.794 123.767 205.374 123.916C204.954 124.065 204.506 124.14 204.03 124.14ZM201.664 120.08H205.99C205.944 119.669 205.818 119.305 205.612 118.988C205.416 118.661 205.164 118.405 204.856 118.218C204.558 118.031 204.222 117.938 203.848 117.938C203.475 117.938 203.134 118.031 202.826 118.218C202.518 118.395 202.262 118.647 202.056 118.974C201.86 119.291 201.73 119.66 201.664 120.08ZM212.305 127.066C212.09 127.066 211.871 127.033 211.647 126.968V126.058C211.74 126.077 211.838 126.091 211.941 126.1C212.044 126.109 212.132 126.114 212.207 126.114C212.468 126.114 212.683 126.044 212.851 125.904C213.028 125.764 213.178 125.545 213.299 125.246L213.803 124L211.171 117.168H212.305L214.377 122.782L216.575 117.168H217.709L214.265 125.554C214.116 125.918 213.952 126.212 213.775 126.436C213.598 126.66 213.392 126.819 213.159 126.912C212.926 127.015 212.641 127.066 212.305 127.066ZM221.803 124.112C221.168 124.112 220.599 123.958 220.095 123.65C219.591 123.342 219.194 122.922 218.905 122.39C218.615 121.858 218.471 121.256 218.471 120.584C218.471 119.912 218.615 119.31 218.905 118.778C219.194 118.246 219.591 117.826 220.095 117.518C220.599 117.21 221.168 117.056 221.803 117.056C222.428 117.056 222.988 117.21 223.483 117.518C223.987 117.826 224.383 118.246 224.673 118.778C224.962 119.31 225.107 119.912 225.107 120.584C225.107 121.256 224.962 121.858 224.673 122.39C224.383 122.922 223.987 123.342 223.483 123.65C222.988 123.958 222.428 124.112 221.803 124.112ZM221.789 123.216C222.237 123.216 222.633 123.104 222.979 122.88C223.324 122.647 223.595 122.329 223.791 121.928C223.996 121.527 224.099 121.079 224.099 120.584C224.099 120.08 223.996 119.632 223.791 119.24C223.595 118.839 223.324 118.526 222.979 118.302C222.633 118.069 222.237 117.952 221.789 117.952C221.341 117.952 220.944 118.069 220.599 118.302C220.253 118.526 219.978 118.839 219.773 119.24C219.577 119.632 219.479 120.08 219.479 120.584C219.479 121.079 219.577 121.527 219.773 121.928C219.978 122.329 220.253 122.647 220.599 122.88C220.944 123.104 221.341 123.216 221.789 123.216ZM229.336 124.112C228.85 124.112 228.421 124.005 228.048 123.79C227.674 123.575 227.38 123.277 227.166 122.894C226.96 122.511 226.858 122.073 226.858 121.578V117.168H227.894V121.284C227.894 121.891 228.057 122.371 228.384 122.726C228.71 123.081 229.154 123.258 229.714 123.258C230.096 123.258 230.437 123.169 230.736 122.992C231.044 122.815 231.3 122.558 231.506 122.222V117.168H232.528V124H231.506V122.894C231.244 123.295 230.932 123.599 230.568 123.804C230.213 124.009 229.802 124.112 229.336 124.112ZM234.624 124V117.168H235.646V118.568C235.824 118.092 236.076 117.723 236.402 117.462C236.738 117.191 237.121 117.056 237.55 117.056C237.672 117.056 237.784 117.065 237.886 117.084C237.989 117.093 238.092 117.117 238.194 117.154V118.078C238.082 118.041 237.961 118.013 237.83 117.994C237.709 117.966 237.592 117.952 237.48 117.952C237.06 117.952 236.692 118.073 236.374 118.316C236.066 118.559 235.824 118.899 235.646 119.338V124H234.624ZM245.418 124.14C244.83 124.14 244.382 124 244.074 123.72C243.775 123.431 243.626 123.015 243.626 122.474V118.008H242.212V117.168H243.626V115.292L244.648 115.054V117.168H246.608V118.008H244.648V122.208C244.648 122.572 244.722 122.833 244.872 122.992C245.03 123.151 245.287 123.23 245.642 123.23C245.819 123.23 245.978 123.216 246.118 123.188C246.258 123.16 246.421 123.113 246.608 123.048V123.958C246.421 124.023 246.225 124.07 246.02 124.098C245.814 124.126 245.614 124.14 245.418 124.14ZM251.048 124.14C250.413 124.14 249.839 123.986 249.326 123.678C248.813 123.361 248.407 122.936 248.108 122.404C247.809 121.863 247.66 121.256 247.66 120.584C247.66 119.912 247.8 119.31 248.08 118.778C248.369 118.246 248.757 117.826 249.242 117.518C249.727 117.21 250.269 117.056 250.866 117.056C251.473 117.056 252.009 117.21 252.476 117.518C252.952 117.817 253.325 118.227 253.596 118.75C253.876 119.263 254.016 119.847 254.016 120.5V120.808H248.654C248.691 121.275 248.817 121.695 249.032 122.068C249.256 122.432 249.545 122.721 249.9 122.936C250.264 123.141 250.661 123.244 251.09 123.244C251.445 123.244 251.785 123.183 252.112 123.062C252.448 122.931 252.733 122.759 252.966 122.544L253.61 123.23C253.218 123.538 252.812 123.767 252.392 123.916C251.972 124.065 251.524 124.14 251.048 124.14ZM248.682 120.08H253.008C252.961 119.669 252.835 119.305 252.63 118.988C252.434 118.661 252.182 118.405 251.874 118.218C251.575 118.031 251.239 117.938 250.866 117.938C250.493 117.938 250.152 118.031 249.844 118.218C249.536 118.395 249.279 118.647 249.074 118.974C248.878 119.291 248.747 119.66 248.682 120.08ZM255.761 124V117.168H256.783V118.232C257.044 117.84 257.343 117.546 257.679 117.35C258.015 117.154 258.393 117.056 258.813 117.056C259.298 117.056 259.723 117.177 260.087 117.42C260.451 117.653 260.726 117.975 260.913 118.386C261.184 117.947 261.506 117.616 261.879 117.392C262.262 117.168 262.7 117.056 263.195 117.056C263.652 117.056 264.054 117.163 264.399 117.378C264.754 117.593 265.029 117.891 265.225 118.274C265.421 118.647 265.519 119.086 265.519 119.59V124H264.497V119.842C264.497 119.245 264.348 118.773 264.049 118.428C263.75 118.083 263.34 117.91 262.817 117.91C262.462 117.91 262.14 117.999 261.851 118.176C261.571 118.353 261.324 118.624 261.109 118.988C261.128 119.081 261.142 119.179 261.151 119.282C261.16 119.385 261.165 119.487 261.165 119.59V124H260.143V119.842C260.143 119.245 259.989 118.773 259.681 118.428C259.382 118.083 258.972 117.91 258.449 117.91C257.749 117.91 257.194 118.246 256.783 118.918V124H255.761ZM267.587 126.926V117.168H268.595V118.148C268.856 117.803 269.174 117.541 269.547 117.364C269.93 117.177 270.35 117.084 270.807 117.084C271.404 117.084 271.936 117.243 272.403 117.56C272.879 117.868 273.257 118.288 273.537 118.82C273.817 119.343 273.957 119.931 273.957 120.584C273.957 121.237 273.812 121.83 273.523 122.362C273.243 122.894 272.86 123.319 272.375 123.636C271.899 123.944 271.358 124.098 270.751 124.098C270.322 124.098 269.925 124.019 269.561 123.86C269.197 123.692 268.88 123.454 268.609 123.146V126.926H267.587ZM270.555 123.216C271.012 123.216 271.418 123.104 271.773 122.88C272.137 122.647 272.422 122.334 272.627 121.942C272.842 121.541 272.949 121.093 272.949 120.598C272.949 120.094 272.842 119.646 272.627 119.254C272.422 118.862 272.137 118.554 271.773 118.33C271.418 118.097 271.012 117.98 270.555 117.98C270.154 117.98 269.78 118.064 269.435 118.232C269.099 118.391 268.824 118.619 268.609 118.918V122.264C268.833 122.563 269.113 122.796 269.449 122.964C269.794 123.132 270.163 123.216 270.555 123.216ZM275.749 124V113.892L276.771 113.682V124H275.749ZM280.98 124.126C280.495 124.126 280.066 124.037 279.692 123.86C279.319 123.683 279.025 123.44 278.81 123.132C278.605 122.815 278.502 122.451 278.502 122.04C278.502 121.629 278.61 121.275 278.824 120.976C279.039 120.668 279.338 120.43 279.72 120.262C280.103 120.094 280.551 120.01 281.064 120.01C281.456 120.01 281.825 120.052 282.17 120.136C282.525 120.22 282.852 120.355 283.15 120.542V119.604C283.15 119.044 283.001 118.624 282.702 118.344C282.404 118.055 281.965 117.91 281.386 117.91C281.069 117.91 280.742 117.957 280.406 118.05C280.08 118.143 279.716 118.293 279.314 118.498L278.936 117.714C279.851 117.275 280.71 117.056 281.512 117.056C282.362 117.056 283.015 117.266 283.472 117.686C283.93 118.097 284.158 118.689 284.158 119.464V124H283.15V123.202C282.852 123.51 282.52 123.743 282.156 123.902C281.792 124.051 281.4 124.126 280.98 124.126ZM279.482 122.012C279.482 122.413 279.636 122.735 279.944 122.978C280.262 123.221 280.677 123.342 281.19 123.342C281.573 123.342 281.923 123.277 282.24 123.146C282.567 123.015 282.87 122.819 283.15 122.558V121.242C282.861 121.074 282.562 120.953 282.254 120.878C281.946 120.794 281.601 120.752 281.218 120.752C280.696 120.752 280.276 120.869 279.958 121.102C279.641 121.326 279.482 121.629 279.482 122.012ZM288.634 124.14C288.046 124.14 287.598 124 287.29 123.72C286.992 123.431 286.842 123.015 286.842 122.474V118.008H285.428V117.168H286.842V115.292L287.864 115.054V117.168H289.824V118.008H287.864V122.208C287.864 122.572 287.939 122.833 288.088 122.992C288.247 123.151 288.504 123.23 288.858 123.23C289.036 123.23 289.194 123.216 289.334 123.188C289.474 123.16 289.638 123.113 289.824 123.048V123.958C289.638 124.023 289.442 124.07 289.236 124.098C289.031 124.126 288.83 124.14 288.634 124.14ZM294.265 124.14C293.63 124.14 293.056 123.986 292.543 123.678C292.029 123.361 291.623 122.936 291.325 122.404C291.026 121.863 290.877 121.256 290.877 120.584C290.877 119.912 291.017 119.31 291.297 118.778C291.586 118.246 291.973 117.826 292.459 117.518C292.944 117.21 293.485 117.056 294.083 117.056C294.689 117.056 295.226 117.21 295.693 117.518C296.169 117.817 296.542 118.227 296.813 118.75C297.093 119.263 297.233 119.847 297.233 120.5V120.808H291.871C291.908 121.275 292.034 121.695 292.249 122.068C292.473 122.432 292.762 122.721 293.117 122.936C293.481 123.141 293.877 123.244 294.307 123.244C294.661 123.244 295.002 123.183 295.329 123.062C295.665 122.931 295.949 122.759 296.183 122.544L296.827 123.23C296.435 123.538 296.029 123.767 295.609 123.916C295.189 124.065 294.741 124.14 294.265 124.14ZM291.899 120.08H296.225C296.178 119.669 296.052 119.305 295.847 118.988C295.651 118.661 295.399 118.405 295.091 118.218C294.792 118.031 294.456 117.938 294.083 117.938C293.709 117.938 293.369 118.031 293.061 118.218C292.753 118.395 292.496 118.647 292.291 118.974C292.095 119.291 291.964 119.66 291.899 120.08ZM302.245 124V113.892L303.267 113.682V118.274C303.529 117.863 303.841 117.56 304.205 117.364C304.569 117.159 304.98 117.056 305.437 117.056C305.932 117.056 306.361 117.163 306.725 117.378C307.099 117.583 307.388 117.877 307.593 118.26C307.808 118.633 307.915 119.072 307.915 119.576V124H306.893V119.87C306.893 119.263 306.725 118.787 306.389 118.442C306.063 118.087 305.619 117.91 305.059 117.91C304.686 117.91 304.345 117.999 304.037 118.176C303.729 118.353 303.473 118.615 303.267 118.96V124H302.245ZM313.05 124.14C312.415 124.14 311.841 123.986 311.328 123.678C310.815 123.361 310.409 122.936 310.11 122.404C309.811 121.863 309.662 121.256 309.662 120.584C309.662 119.912 309.802 119.31 310.082 118.778C310.371 118.246 310.759 117.826 311.244 117.518C311.729 117.21 312.271 117.056 312.868 117.056C313.475 117.056 314.011 117.21 314.478 117.518C314.954 117.817 315.327 118.227 315.598 118.75C315.878 119.263 316.018 119.847 316.018 120.5V120.808H310.656C310.693 121.275 310.819 121.695 311.034 122.068C311.258 122.432 311.547 122.721 311.902 122.936C312.266 123.141 312.663 123.244 313.092 123.244C313.447 123.244 313.787 123.183 314.114 123.062C314.45 122.931 314.735 122.759 314.968 122.544L315.612 123.23C315.22 123.538 314.814 123.767 314.394 123.916C313.974 124.065 313.526 124.14 313.05 124.14ZM310.684 120.08H315.01C314.963 119.669 314.837 119.305 314.632 118.988C314.436 118.661 314.184 118.405 313.876 118.218C313.577 118.031 313.241 117.938 312.868 117.938C312.495 117.938 312.154 118.031 311.846 118.218C311.538 118.395 311.281 118.647 311.076 118.974C310.88 119.291 310.749 119.66 310.684 120.08ZM317.763 124V117.168H318.785V118.568C318.962 118.092 319.214 117.723 319.541 117.462C319.877 117.191 320.26 117.056 320.689 117.056C320.81 117.056 320.922 117.065 321.025 117.084C321.128 117.093 321.23 117.117 321.333 117.154V118.078C321.221 118.041 321.1 118.013 320.969 117.994C320.848 117.966 320.731 117.952 320.619 117.952C320.199 117.952 319.83 118.073 319.513 118.316C319.205 118.559 318.962 118.899 318.785 119.338V124H317.763ZM325.341 124.14C324.706 124.14 324.132 123.986 323.619 123.678C323.106 123.361 322.7 122.936 322.401 122.404C322.102 121.863 321.953 121.256 321.953 120.584C321.953 119.912 322.093 119.31 322.373 118.778C322.662 118.246 323.05 117.826 323.535 117.518C324.02 117.21 324.562 117.056 325.159 117.056C325.766 117.056 326.302 117.21 326.769 117.518C327.245 117.817 327.618 118.227 327.889 118.75C328.169 119.263 328.309 119.847 328.309 120.5V120.808H322.947C322.984 121.275 323.11 121.695 323.325 122.068C323.549 122.432 323.838 122.721 324.193 122.936C324.557 123.141 324.954 123.244 325.383 123.244C325.738 123.244 326.078 123.183 326.405 123.062C326.741 122.931 327.026 122.759 327.259 122.544L327.903 123.23C327.511 123.538 327.105 123.767 326.685 123.916C326.265 124.065 325.817 124.14 325.341 124.14ZM322.975 120.08H327.301C327.254 119.669 327.128 119.305 326.923 118.988C326.727 118.661 326.475 118.405 326.167 118.218C325.868 118.031 325.532 117.938 325.159 117.938C324.786 117.938 324.445 118.031 324.137 118.218C323.829 118.395 323.572 118.647 323.367 118.974C323.171 119.291 323.04 119.66 322.975 120.08ZM330.398 124.112C330.193 124.112 330.016 124.037 329.866 123.888C329.726 123.739 329.656 123.561 329.656 123.356C329.656 123.141 329.726 122.964 329.866 122.824C330.016 122.675 330.193 122.6 330.398 122.6C330.604 122.6 330.776 122.675 330.916 122.824C331.066 122.964 331.14 123.141 331.14 123.356C331.14 123.561 331.066 123.739 330.916 123.888C330.776 124.037 330.604 124.112 330.398 124.112Z" fill="#151515"/>
<path d="M76.956 159.132C76.348 159.132 75.78 159.024 75.252 158.808C74.724 158.584 74.26 158.276 73.86 157.884C73.468 157.484 73.16 157.024 72.936 156.504C72.72 155.976 72.612 155.408 72.612 154.8C72.612 154.192 72.72 153.628 72.936 153.108C73.16 152.58 73.468 152.12 73.86 151.728C74.26 151.328 74.724 151.02 75.252 150.804C75.78 150.58 76.348 150.468 76.956 150.468C77.388 150.468 77.804 150.528 78.204 150.648C78.604 150.768 78.976 150.94 79.32 151.164C79.672 151.38 79.976 151.648 80.232 151.968L79.272 152.904C78.976 152.528 78.628 152.244 78.228 152.052C77.828 151.86 77.404 151.764 76.956 151.764C76.548 151.764 76.168 151.84 75.816 151.992C75.472 152.144 75.168 152.36 74.904 152.64C74.648 152.912 74.448 153.232 74.304 153.6C74.16 153.968 74.088 154.368 74.088 154.8C74.088 155.232 74.16 155.632 74.304 156C74.448 156.368 74.648 156.692 74.904 156.972C75.168 157.244 75.472 157.456 75.816 157.608C76.168 157.76 76.548 157.836 76.956 157.836C77.404 157.836 77.828 157.74 78.228 157.548C78.628 157.348 78.976 157.064 79.272 156.696L80.232 157.632C79.976 157.944 79.672 158.212 79.32 158.436C78.976 158.66 78.604 158.832 78.204 158.952C77.804 159.072 77.388 159.132 76.956 159.132ZM83.3881 159.096C82.9721 159.096 82.6081 159.004 82.2961 158.82C81.9841 158.636 81.7361 158.384 81.5521 158.064C81.3761 157.744 81.2881 157.372 81.2881 156.948V152.988H82.6561V156.552C82.6561 157 82.7721 157.356 83.0041 157.62C83.2441 157.876 83.5681 158.004 83.9761 158.004C84.2481 158.004 84.4921 157.944 84.7081 157.824C84.9321 157.704 85.1241 157.524 85.2841 157.284V152.988H86.6401V159H85.2841V158.028C85.0521 158.38 84.7761 158.648 84.4561 158.832C84.1361 159.008 83.7801 159.096 83.3881 159.096ZM88.3205 159V152.988H89.6765V154.284C89.8525 153.828 90.0805 153.48 90.3605 153.24C90.6405 153 90.9645 152.88 91.3325 152.88C91.4445 152.888 91.5445 152.9 91.6325 152.916C91.7205 152.924 91.8165 152.952 91.9205 153V154.188C91.8165 154.14 91.6965 154.104 91.5605 154.08C91.4325 154.056 91.3045 154.044 91.1765 154.044C90.8485 154.044 90.5525 154.132 90.2885 154.308C90.0325 154.484 89.8285 154.728 89.6765 155.04V159H88.3205ZM93.0314 159V152.988H94.3874V154.284C94.5634 153.828 94.7914 153.48 95.0714 153.24C95.3514 153 95.6754 152.88 96.0434 152.88C96.1554 152.888 96.2554 152.9 96.3434 152.916C96.4314 152.924 96.5274 152.952 96.6314 153V154.188C96.5274 154.14 96.4074 154.104 96.2714 154.08C96.1434 154.056 96.0154 154.044 95.8874 154.044C95.5594 154.044 95.2634 154.132 94.9994 154.308C94.7434 154.484 94.5394 154.728 94.3874 155.04V159H93.0314ZM100.257 159.12C99.6811 159.12 99.1611 158.984 98.6971 158.712C98.2331 158.432 97.8651 158.06 97.5931 157.596C97.3211 157.124 97.1851 156.592 97.1851 156C97.1851 155.408 97.3131 154.88 97.5691 154.416C97.8251 153.952 98.1731 153.584 98.6131 153.312C99.0611 153.032 99.5571 152.892 100.101 152.892C100.661 152.892 101.153 153.028 101.577 153.3C102.009 153.572 102.345 153.94 102.585 154.404C102.833 154.868 102.957 155.4 102.957 156V156.324H98.5171C98.5651 156.652 98.6691 156.944 98.8291 157.2C98.9971 157.448 99.2091 157.644 99.4651 157.788C99.7291 157.932 100.013 158.004 100.317 158.004C100.597 158.004 100.861 157.956 101.109 157.86C101.365 157.756 101.577 157.616 101.745 157.44L102.633 158.244C102.265 158.548 101.889 158.772 101.505 158.916C101.129 159.052 100.713 159.12 100.257 159.12ZM98.5291 155.484H101.673C101.625 155.196 101.525 154.94 101.373 154.716C101.229 154.492 101.045 154.316 100.821 154.188C100.605 154.06 100.365 153.996 100.101 153.996C99.8371 153.996 99.5931 154.06 99.3691 154.188C99.1531 154.308 98.9731 154.48 98.8291 154.704C98.6851 154.928 98.5851 155.188 98.5291 155.484ZM104.34 159V152.988H105.696V153.972C105.928 153.612 106.204 153.344 106.524 153.168C106.844 152.984 107.2 152.892 107.592 152.892C108.008 152.892 108.372 152.984 108.684 153.168C108.996 153.344 109.24 153.592 109.416 153.912C109.6 154.232 109.692 154.608 109.692 155.04V159H108.324V155.424C108.324 154.984 108.204 154.636 107.964 154.38C107.724 154.116 107.404 153.984 107.004 153.984C106.732 153.984 106.484 154.048 106.26 154.176C106.044 154.296 105.856 154.476 105.696 154.716V159H104.34ZM113.741 159.12C113.133 159.12 112.673 158.98 112.361 158.7C112.049 158.412 111.893 157.992 111.893 157.44V154.068H110.693V152.988H111.893V151.332L113.249 151.044V152.988H114.917V154.068H113.249V157.14C113.249 157.436 113.313 157.648 113.441 157.776C113.569 157.896 113.785 157.956 114.089 157.956C114.225 157.956 114.349 157.948 114.461 157.932C114.581 157.908 114.729 157.868 114.905 157.812V158.952C114.737 159.008 114.545 159.048 114.329 159.072C114.121 159.104 113.925 159.12 113.741 159.12ZM121.405 159.12C120.797 159.12 120.337 158.98 120.025 158.7C119.713 158.412 119.557 157.992 119.557 157.44V154.068H118.357V152.988H119.557V151.332L120.913 151.044V152.988H122.581V154.068H120.913V157.14C120.913 157.436 120.977 157.648 121.105 157.776C121.233 157.896 121.449 157.956 121.753 157.956C121.889 157.956 122.013 157.948 122.125 157.932C122.245 157.908 122.393 157.868 122.569 157.812V158.952C122.401 159.008 122.209 159.048 121.993 159.072C121.785 159.104 121.589 159.12 121.405 159.12ZM126.484 159.12C125.908 159.12 125.388 158.984 124.924 158.712C124.46 158.432 124.092 158.06 123.82 157.596C123.548 157.124 123.412 156.592 123.412 156C123.412 155.408 123.54 154.88 123.796 154.416C124.052 153.952 124.4 153.584 124.84 153.312C125.288 153.032 125.784 152.892 126.328 152.892C126.888 152.892 127.38 153.028 127.804 153.3C128.236 153.572 128.572 153.94 128.812 154.404C129.06 154.868 129.184 155.4 129.184 156V156.324H124.744C124.792 156.652 124.896 156.944 125.056 157.2C125.224 157.448 125.436 157.644 125.692 157.788C125.956 157.932 126.24 158.004 126.544 158.004C126.824 158.004 127.088 157.956 127.336 157.86C127.592 157.756 127.804 157.616 127.972 157.44L128.86 158.244C128.492 158.548 128.116 158.772 127.732 158.916C127.356 159.052 126.94 159.12 126.484 159.12ZM124.756 155.484H127.9C127.852 155.196 127.752 154.94 127.6 154.716C127.456 154.492 127.272 154.316 127.048 154.188C126.832 154.06 126.592 153.996 126.328 153.996C126.064 153.996 125.82 154.06 125.596 154.188C125.38 154.308 125.2 154.48 125.056 154.704C124.912 154.928 124.812 155.188 124.756 155.484ZM130.567 159V152.988H131.923V153.936C132.147 153.592 132.407 153.332 132.703 153.156C133.007 152.98 133.339 152.892 133.699 152.892C134.115 152.892 134.475 152.996 134.779 153.204C135.091 153.412 135.323 153.692 135.475 154.044C135.715 153.668 135.999 153.384 136.327 153.192C136.663 152.992 137.043 152.892 137.467 152.892C137.851 152.892 138.191 152.984 138.487 153.168C138.791 153.352 139.023 153.608 139.183 153.936C139.351 154.264 139.435 154.64 139.435 155.064V159H138.079V155.364C138.079 154.94 137.971 154.604 137.755 154.356C137.539 154.108 137.243 153.984 136.867 153.984C136.627 153.984 136.403 154.044 136.195 154.164C135.995 154.284 135.819 154.464 135.667 154.704C135.675 154.76 135.679 154.82 135.679 154.884C135.687 154.94 135.691 155 135.691 155.064V159H134.323V155.364C134.323 154.94 134.215 154.604 133.999 154.356C133.783 154.108 133.487 153.984 133.111 153.984C132.623 153.984 132.227 154.216 131.923 154.68V159H130.567ZM141.078 161.508V152.988H142.41V153.84C142.626 153.552 142.894 153.332 143.214 153.18C143.542 153.02 143.898 152.94 144.282 152.94C144.794 152.94 145.254 153.076 145.662 153.348C146.07 153.62 146.394 153.988 146.634 154.452C146.874 154.916 146.994 155.432 146.994 156C146.994 156.568 146.87 157.084 146.622 157.548C146.374 158.012 146.038 158.38 145.614 158.652C145.19 158.924 144.718 159.06 144.198 159.06C143.838 159.06 143.506 158.996 143.202 158.868C142.906 158.732 142.65 158.54 142.434 158.292V161.508H141.078ZM143.874 157.932C144.218 157.932 144.522 157.848 144.786 157.68C145.058 157.512 145.27 157.284 145.422 156.996C145.582 156.7 145.662 156.368 145.662 156C145.662 155.632 145.582 155.304 145.422 155.016C145.27 154.728 145.058 154.5 144.786 154.332C144.522 154.164 144.218 154.08 143.874 154.08C143.578 154.08 143.306 154.14 143.058 154.26C142.81 154.372 142.602 154.536 142.434 154.752V157.26C142.61 157.468 142.822 157.632 143.07 157.752C143.318 157.872 143.586 157.932 143.874 157.932ZM148.414 159V150.396L149.77 150.156V159H148.414ZM153.262 159.108C152.846 159.108 152.474 159.032 152.146 158.88C151.826 158.72 151.574 158.504 151.39 158.232C151.214 157.952 151.126 157.632 151.126 157.272C151.126 156.912 151.218 156.6 151.402 156.336C151.594 156.072 151.862 155.868 152.206 155.724C152.55 155.58 152.958 155.508 153.43 155.508C153.71 155.508 153.986 155.54 154.258 155.604C154.53 155.66 154.794 155.756 155.05 155.892V155.22C155.05 154.82 154.934 154.52 154.702 154.32C154.478 154.12 154.134 154.02 153.67 154.02C153.422 154.02 153.154 154.06 152.866 154.14C152.586 154.212 152.27 154.328 151.918 154.488L151.438 153.504C152.318 153.096 153.15 152.892 153.934 152.892C154.718 152.892 155.322 153.084 155.746 153.468C156.178 153.844 156.394 154.38 156.394 155.076V159H155.05V158.376C154.794 158.624 154.518 158.808 154.222 158.928C153.926 159.048 153.606 159.108 153.262 159.108ZM152.398 157.248C152.398 157.528 152.51 157.748 152.734 157.908C152.958 158.068 153.258 158.148 153.634 158.148C153.906 158.148 154.158 158.108 154.39 158.028C154.63 157.94 154.85 157.812 155.05 157.644V156.672C154.842 156.576 154.626 156.504 154.402 156.456C154.178 156.408 153.934 156.384 153.67 156.384C153.278 156.384 152.966 156.46 152.734 156.612C152.51 156.764 152.398 156.976 152.398 157.248ZM160.452 159.12C159.844 159.12 159.384 158.98 159.072 158.7C158.76 158.412 158.604 157.992 158.604 157.44V154.068H157.404V152.988H158.604V151.332L159.96 151.044V152.988H161.628V154.068H159.96V157.14C159.96 157.436 160.024 157.648 160.152 157.776C160.28 157.896 160.496 157.956 160.8 157.956C160.936 157.956 161.06 157.948 161.172 157.932C161.292 157.908 161.44 157.868 161.616 157.812V158.952C161.448 159.008 161.256 159.048 161.04 159.072C160.832 159.104 160.636 159.12 160.452 159.12ZM165.531 159.12C164.955 159.12 164.435 158.984 163.971 158.712C163.507 158.432 163.139 158.06 162.867 157.596C162.595 157.124 162.459 156.592 162.459 156C162.459 155.408 162.587 154.88 162.843 154.416C163.099 153.952 163.447 153.584 163.887 153.312C164.335 153.032 164.831 152.892 165.375 152.892C165.935 152.892 166.427 153.028 166.851 153.3C167.283 153.572 167.619 153.94 167.859 154.404C168.107 154.868 168.231 155.4 168.231 156V156.324H163.791C163.839 156.652 163.943 156.944 164.103 157.2C164.271 157.448 164.483 157.644 164.739 157.788C165.003 157.932 165.287 158.004 165.591 158.004C165.871 158.004 166.135 157.956 166.383 157.86C166.639 157.756 166.851 157.616 167.019 157.44L167.907 158.244C167.539 158.548 167.163 158.772 166.779 158.916C166.403 159.052 165.987 159.12 165.531 159.12ZM163.803 155.484H166.947C166.899 155.196 166.799 154.94 166.647 154.716C166.503 154.492 166.319 154.316 166.095 154.188C165.879 154.06 165.639 153.996 165.375 153.996C165.111 153.996 164.867 154.06 164.643 154.188C164.427 154.308 164.247 154.48 164.103 154.704C163.959 154.928 163.859 155.188 163.803 155.484Z" fill="#151515"/>
<path d="M75.892 187.098C75.304 187.098 74.772 186.944 74.296 186.636C73.82 186.319 73.442 185.899 73.162 185.376C72.882 184.844 72.742 184.251 72.742 183.598C72.742 182.935 72.882 182.343 73.162 181.82C73.4513 181.288 73.8387 180.868 74.324 180.56C74.8093 180.243 75.3507 180.084 75.948 180.084C76.368 180.084 76.76 180.168 77.124 180.336C77.488 180.495 77.8053 180.728 78.076 181.036V176.892L79.098 176.682V187H78.076V186.09C77.8147 186.417 77.4973 186.669 77.124 186.846C76.7507 187.014 76.34 187.098 75.892 187.098ZM76.144 186.202C76.5453 186.202 76.914 186.123 77.25 185.964C77.586 185.805 77.8613 185.581 78.076 185.292V181.904C77.852 181.615 77.5673 181.391 77.222 181.232C76.886 181.064 76.5267 180.98 76.144 180.98C75.6867 180.98 75.276 181.092 74.912 181.316C74.5573 181.54 74.2727 181.848 74.058 182.24C73.8527 182.632 73.75 183.08 73.75 183.584C73.75 184.079 73.8527 184.527 74.058 184.928C74.2727 185.32 74.5573 185.633 74.912 185.866C75.276 186.09 75.6867 186.202 76.144 186.202ZM84.2784 187.14C83.6438 187.14 83.0698 186.986 82.5564 186.678C82.0431 186.361 81.6371 185.936 81.3384 185.404C81.0398 184.863 80.8904 184.256 80.8904 183.584C80.8904 182.912 81.0304 182.31 81.3104 181.778C81.5998 181.246 81.9871 180.826 82.4724 180.518C82.9578 180.21 83.4991 180.056 84.0964 180.056C84.7031 180.056 85.2398 180.21 85.7064 180.518C86.1824 180.817 86.5558 181.227 86.8264 181.75C87.1064 182.263 87.2464 182.847 87.2464 183.5V183.808H81.8844C81.9218 184.275 82.0478 184.695 82.2624 185.068C82.4864 185.432 82.7758 185.721 83.1304 185.936C83.4944 186.141 83.8911 186.244 84.3204 186.244C84.6751 186.244 85.0158 186.183 85.3424 186.062C85.6784 185.931 85.9631 185.759 86.1964 185.544L86.8404 186.23C86.4484 186.538 86.0424 186.767 85.6224 186.916C85.2024 187.065 84.7544 187.14 84.2784 187.14ZM81.9124 183.08H86.2384C86.1918 182.669 86.0658 182.305 85.8604 181.988C85.6644 181.661 85.4124 181.405 85.1044 181.218C84.8058 181.031 84.4698 180.938 84.0964 180.938C83.7231 180.938 83.3824 181.031 83.0744 181.218C82.7664 181.395 82.5098 181.647 82.3044 181.974C82.1084 182.291 81.9778 182.66 81.9124 183.08ZM89.6543 187V181.008H88.1283V180.168H89.6543V178.74C89.6543 178.068 89.8317 177.55 90.1863 177.186C90.541 176.822 91.045 176.64 91.6983 176.64C91.885 176.64 92.053 176.649 92.2023 176.668C92.361 176.687 92.501 176.719 92.6223 176.766V177.69C92.473 177.643 92.3377 177.611 92.2163 177.592C92.095 177.573 91.955 177.564 91.7963 177.564C91.4043 177.564 91.1197 177.662 90.9423 177.858C90.765 178.045 90.6763 178.343 90.6763 178.754V180.168H92.6223V181.008H90.6763V187H89.6543ZM95.8769 187.126C95.3916 187.126 94.9622 187.037 94.5889 186.86C94.2156 186.683 93.9216 186.44 93.7069 186.132C93.5016 185.815 93.3989 185.451 93.3989 185.04C93.3989 184.629 93.5062 184.275 93.7209 183.976C93.9356 183.668 94.2342 183.43 94.6169 183.262C94.9996 183.094 95.4476 183.01 95.9609 183.01C96.3529 183.01 96.7216 183.052 97.0669 183.136C97.4216 183.22 97.7482 183.355 98.0469 183.542V182.604C98.0469 182.044 97.8976 181.624 97.5989 181.344C97.3002 181.055 96.8616 180.91 96.2829 180.91C95.9656 180.91 95.6389 180.957 95.3029 181.05C94.9762 181.143 94.6122 181.293 94.2109 181.498L93.8329 180.714C94.7476 180.275 95.6062 180.056 96.4089 180.056C97.2582 180.056 97.9116 180.266 98.3689 180.686C98.8262 181.097 99.0549 181.689 99.0549 182.464V187H98.0469V186.202C97.7482 186.51 97.4169 186.743 97.0529 186.902C96.6889 187.051 96.2969 187.126 95.8769 187.126ZM94.3789 185.012C94.3789 185.413 94.5329 185.735 94.8409 185.978C95.1582 186.221 95.5736 186.342 96.0869 186.342C96.4696 186.342 96.8196 186.277 97.1369 186.146C97.4636 186.015 97.7669 185.819 98.0469 185.558V184.242C97.7576 184.074 97.4589 183.953 97.1509 183.878C96.8429 183.794 96.4976 183.752 96.1149 183.752C95.5922 183.752 95.1722 183.869 94.8549 184.102C94.5376 184.326 94.3789 184.629 94.3789 185.012ZM103.5 187.112C103.014 187.112 102.585 187.005 102.212 186.79C101.838 186.575 101.544 186.277 101.33 185.894C101.124 185.511 101.022 185.073 101.022 184.578V180.168H102.058V184.284C102.058 184.891 102.221 185.371 102.548 185.726C102.874 186.081 103.318 186.258 103.878 186.258C104.26 186.258 104.601 186.169 104.9 185.992C105.208 185.815 105.464 185.558 105.67 185.222V180.168H106.692V187H105.67V185.894C105.408 186.295 105.096 186.599 104.732 186.804C104.377 187.009 103.966 187.112 103.5 187.112ZM108.788 187V176.892L109.81 176.682V187H108.788ZM114.509 187.14C113.921 187.14 113.473 187 113.165 186.72C112.867 186.431 112.717 186.015 112.717 185.474V181.008H111.303V180.168H112.717V178.292L113.739 178.054V180.168H115.699V181.008H113.739V185.208C113.739 185.572 113.814 185.833 113.963 185.992C114.122 186.151 114.379 186.23 114.733 186.23C114.911 186.23 115.069 186.216 115.209 186.188C115.349 186.16 115.513 186.113 115.699 186.048V186.958C115.513 187.023 115.317 187.07 115.111 187.098C114.906 187.126 114.705 187.14 114.509 187.14ZM116.864 183.5V182.618H121.526V183.5H116.864ZM125.898 187.14C125.31 187.14 124.862 187 124.554 186.72C124.255 186.431 124.106 186.015 124.106 185.474V181.008H122.692V180.168H124.106V178.292L125.128 178.054V180.168H127.088V181.008H125.128V185.208C125.128 185.572 125.203 185.833 125.352 185.992C125.511 186.151 125.767 186.23 126.122 186.23C126.299 186.23 126.458 186.216 126.598 186.188C126.738 186.16 126.901 186.113 127.088 186.048V186.958C126.901 187.023 126.705 187.07 126.5 187.098C126.295 187.126 126.094 187.14 125.898 187.14ZM131.528 187.14C130.894 187.14 130.32 186.986 129.806 186.678C129.293 186.361 128.887 185.936 128.588 185.404C128.29 184.863 128.14 184.256 128.14 183.584C128.14 182.912 128.28 182.31 128.56 181.778C128.85 181.246 129.237 180.826 129.722 180.518C130.208 180.21 130.749 180.056 131.346 180.056C131.953 180.056 132.49 180.21 132.956 180.518C133.432 180.817 133.806 181.227 134.076 181.75C134.356 182.263 134.496 182.847 134.496 183.5V183.808H129.134C129.172 184.275 129.298 184.695 129.512 185.068C129.736 185.432 130.026 185.721 130.38 185.936C130.744 186.141 131.141 186.244 131.57 186.244C131.925 186.244 132.266 186.183 132.592 186.062C132.928 185.931 133.213 185.759 133.446 185.544L134.09 186.23C133.698 186.538 133.292 186.767 132.872 186.916C132.452 187.065 132.004 187.14 131.528 187.14ZM129.162 183.08H133.488C133.442 182.669 133.316 182.305 133.11 181.988C132.914 181.661 132.662 181.405 132.354 181.218C132.056 181.031 131.72 180.938 131.346 180.938C130.973 180.938 130.632 181.031 130.324 181.218C130.016 181.395 129.76 181.647 129.554 181.974C129.358 182.291 129.228 182.66 129.162 183.08ZM136.241 187V180.168H137.263V181.232C137.525 180.84 137.823 180.546 138.159 180.35C138.495 180.154 138.873 180.056 139.293 180.056C139.779 180.056 140.203 180.177 140.567 180.42C140.931 180.653 141.207 180.975 141.393 181.386C141.664 180.947 141.986 180.616 142.359 180.392C142.742 180.168 143.181 180.056 143.675 180.056C144.133 180.056 144.534 180.163 144.879 180.378C145.234 180.593 145.509 180.891 145.705 181.274C145.901 181.647 145.999 182.086 145.999 182.59V187H144.977V182.842C144.977 182.245 144.828 181.773 144.529 181.428C144.231 181.083 143.82 180.91 143.297 180.91C142.943 180.91 142.621 180.999 142.331 181.176C142.051 181.353 141.804 181.624 141.589 181.988C141.608 182.081 141.622 182.179 141.631 182.282C141.641 182.385 141.645 182.487 141.645 182.59V187H140.623V182.842C140.623 182.245 140.469 181.773 140.161 181.428C139.863 181.083 139.452 180.91 138.929 180.91C138.229 180.91 137.674 181.246 137.263 181.918V187H136.241ZM148.068 189.926V180.168H149.076V181.148C149.337 180.803 149.654 180.541 150.028 180.364C150.41 180.177 150.83 180.084 151.288 180.084C151.885 180.084 152.417 180.243 152.884 180.56C153.36 180.868 153.738 181.288 154.018 181.82C154.298 182.343 154.438 182.931 154.438 183.584C154.438 184.237 154.293 184.83 154.004 185.362C153.724 185.894 153.341 186.319 152.856 186.636C152.38 186.944 151.838 187.098 151.232 187.098C150.802 187.098 150.406 187.019 150.042 186.86C149.678 186.692 149.36 186.454 149.09 186.146V189.926H148.068ZM151.036 186.216C151.493 186.216 151.899 186.104 152.254 185.88C152.618 185.647 152.902 185.334 153.108 184.942C153.322 184.541 153.43 184.093 153.43 183.598C153.43 183.094 153.322 182.646 153.108 182.254C152.902 181.862 152.618 181.554 152.254 181.33C151.899 181.097 151.493 180.98 151.036 180.98C150.634 180.98 150.261 181.064 149.916 181.232C149.58 181.391 149.304 181.619 149.09 181.918V185.264C149.314 185.563 149.594 185.796 149.93 185.964C150.275 186.132 150.644 186.216 151.036 186.216ZM156.23 187V176.892L157.252 176.682V187H156.23ZM161.461 187.126C160.976 187.126 160.546 187.037 160.173 186.86C159.8 186.683 159.506 186.44 159.291 186.132C159.086 185.815 158.983 185.451 158.983 185.04C158.983 184.629 159.09 184.275 159.305 183.976C159.52 183.668 159.818 183.43 160.201 183.262C160.584 183.094 161.032 183.01 161.545 183.01C161.937 183.01 162.306 183.052 162.651 183.136C163.006 183.22 163.332 183.355 163.631 183.542V182.604C163.631 182.044 163.482 181.624 163.183 181.344C162.884 181.055 162.446 180.91 161.867 180.91C161.55 180.91 161.223 180.957 160.887 181.05C160.56 181.143 160.196 181.293 159.795 181.498L159.417 180.714C160.332 180.275 161.19 180.056 161.993 180.056C162.842 180.056 163.496 180.266 163.953 180.686C164.41 181.097 164.639 181.689 164.639 182.464V187H163.631V186.202C163.332 186.51 163.001 186.743 162.637 186.902C162.273 187.051 161.881 187.126 161.461 187.126ZM159.963 185.012C159.963 185.413 160.117 185.735 160.425 185.978C160.742 186.221 161.158 186.342 161.671 186.342C162.054 186.342 162.404 186.277 162.721 186.146C163.048 186.015 163.351 185.819 163.631 185.558V184.242C163.342 184.074 163.043 183.953 162.735 183.878C162.427 183.794 162.082 183.752 161.699 183.752C161.176 183.752 160.756 183.869 160.439 184.102C160.122 184.326 159.963 184.629 159.963 185.012ZM169.115 187.14C168.527 187.14 168.079 187 167.771 186.72C167.472 186.431 167.323 186.015 167.323 185.474V181.008H165.909V180.168H167.323V178.292L168.345 178.054V180.168H170.305V181.008H168.345V185.208C168.345 185.572 168.42 185.833 168.569 185.992C168.728 186.151 168.984 186.23 169.339 186.23C169.516 186.23 169.675 186.216 169.815 186.188C169.955 186.16 170.118 186.113 170.305 186.048V186.958C170.118 187.023 169.922 187.07 169.717 187.098C169.512 187.126 169.311 187.14 169.115 187.14ZM174.745 187.14C174.111 187.14 173.537 186.986 173.023 186.678C172.51 186.361 172.104 185.936 171.805 185.404C171.507 184.863 171.357 184.256 171.357 183.584C171.357 182.912 171.497 182.31 171.777 181.778C172.067 181.246 172.454 180.826 172.939 180.518C173.425 180.21 173.966 180.056 174.563 180.056C175.17 180.056 175.707 180.21 176.173 180.518C176.649 180.817 177.023 181.227 177.293 181.75C177.573 182.263 177.713 182.847 177.713 183.5V183.808H172.351C172.389 184.275 172.515 184.695 172.729 185.068C172.953 185.432 173.243 185.721 173.597 185.936C173.961 186.141 174.358 186.244 174.787 186.244C175.142 186.244 175.483 186.183 175.809 186.062C176.145 185.931 176.43 185.759 176.663 185.544L177.307 186.23C176.915 186.538 176.509 186.767 176.089 186.916C175.669 187.065 175.221 187.14 174.745 187.14ZM172.379 183.08H176.705C176.659 182.669 176.533 182.305 176.327 181.988C176.131 181.661 175.879 181.405 175.571 181.218C175.273 181.031 174.937 180.938 174.563 180.938C174.19 180.938 173.849 181.031 173.541 181.218C173.233 181.395 172.977 181.647 172.771 181.974C172.575 182.291 172.445 182.66 172.379 183.08Z" fill="#151515"/>
<path d="M73.008 222V213.6H74.412L78.792 219.708L78.768 213.6H80.124V222H78.84L74.34 215.724L74.364 222H73.008ZM84.7649 222.12C84.1889 222.12 83.6689 221.984 83.2049 221.712C82.7409 221.432 82.3729 221.06 82.1009 220.596C81.8289 220.124 81.6929 219.592 81.6929 219C81.6929 218.408 81.8209 217.88 82.0769 217.416C82.3329 216.952 82.6809 216.584 83.1209 216.312C83.5689 216.032 84.0649 215.892 84.6089 215.892C85.1689 215.892 85.6609 216.028 86.0849 216.3C86.5169 216.572 86.8529 216.94 87.0929 217.404C87.3409 217.868 87.4649 218.4 87.4649 219V219.324H83.0249C83.0729 219.652 83.1769 219.944 83.3369 220.2C83.5049 220.448 83.7169 220.644 83.9729 220.788C84.2369 220.932 84.5209 221.004 84.8249 221.004C85.1049 221.004 85.3689 220.956 85.6169 220.86C85.8729 220.756 86.0849 220.616 86.2529 220.44L87.1409 221.244C86.7729 221.548 86.3969 221.772 86.0129 221.916C85.6369 222.052 85.2209 222.12 84.7649 222.12ZM83.0369 218.484H86.1809C86.1329 218.196 86.0329 217.94 85.8809 217.716C85.7369 217.492 85.5529 217.316 85.3289 217.188C85.1129 217.06 84.8729 216.996 84.6089 216.996C84.3449 216.996 84.1009 217.06 83.8769 217.188C83.6609 217.308 83.4809 217.48 83.3369 217.704C83.1929 217.928 83.0929 218.188 83.0369 218.484ZM89.7866 222L88.1666 215.988H89.4626L90.5186 220.224L91.7666 215.988H92.9066L94.1426 220.224L95.1986 215.988H96.4586L94.8386 222H93.5426L92.3186 217.764L91.1066 222H89.7866ZM102.854 222.12C102.246 222.12 101.786 221.98 101.474 221.7C101.162 221.412 101.006 220.992 101.006 220.44V217.068H99.8059V215.988H101.006V214.332L102.362 214.044V215.988H104.03V217.068H102.362V220.14C102.362 220.436 102.426 220.648 102.554 220.776C102.682 220.896 102.898 220.956 103.202 220.956C103.338 220.956 103.462 220.948 103.574 220.932C103.694 220.908 103.842 220.868 104.018 220.812V221.952C103.85 222.008 103.658 222.048 103.442 222.072C103.234 222.104 103.038 222.12 102.854 222.12ZM107.933 222.12C107.357 222.12 106.837 221.984 106.373 221.712C105.909 221.432 105.541 221.06 105.269 220.596C104.997 220.124 104.861 219.592 104.861 219C104.861 218.408 104.989 217.88 105.245 217.416C105.501 216.952 105.849 216.584 106.289 216.312C106.737 216.032 107.233 215.892 107.777 215.892C108.337 215.892 108.829 216.028 109.253 216.3C109.685 216.572 110.021 216.94 110.261 217.404C110.509 217.868 110.633 218.4 110.633 219V219.324H106.193C106.241 219.652 106.345 219.944 106.505 220.2C106.673 220.448 106.885 220.644 107.141 220.788C107.405 220.932 107.689 221.004 107.993 221.004C108.273 221.004 108.537 220.956 108.785 220.86C109.041 220.756 109.253 220.616 109.421 220.44L110.309 221.244C109.941 221.548 109.565 221.772 109.181 221.916C108.805 222.052 108.389 222.12 107.933 222.12ZM106.205 218.484H109.349C109.301 218.196 109.201 217.94 109.049 217.716C108.905 217.492 108.721 217.316 108.497 217.188C108.281 217.06 108.041 216.996 107.777 216.996C107.513 216.996 107.269 217.06 107.045 217.188C106.829 217.308 106.649 217.48 106.505 217.704C106.361 217.928 106.261 218.188 106.205 218.484ZM112.016 222V215.988H113.372V216.936C113.596 216.592 113.856 216.332 114.152 216.156C114.456 215.98 114.788 215.892 115.148 215.892C115.564 215.892 115.924 215.996 116.228 216.204C116.54 216.412 116.772 216.692 116.924 217.044C117.164 216.668 117.448 216.384 117.776 216.192C118.112 215.992 118.492 215.892 118.916 215.892C119.3 215.892 119.64 215.984 119.936 216.168C120.24 216.352 120.472 216.608 120.632 216.936C120.8 217.264 120.884 217.64 120.884 218.064V222H119.528V218.364C119.528 217.94 119.42 217.604 119.204 217.356C118.988 217.108 118.692 216.984 118.316 216.984C118.076 216.984 117.852 217.044 117.644 217.164C117.444 217.284 117.268 217.464 117.116 217.704C117.124 217.76 117.128 217.82 117.128 217.884C117.136 217.94 117.14 218 117.14 218.064V222H115.772V218.364C115.772 217.94 115.664 217.604 115.448 217.356C115.232 217.108 114.936 216.984 114.56 216.984C114.072 216.984 113.676 217.216 113.372 217.68V222H112.016ZM122.528 224.508V215.988H123.86V216.84C124.076 216.552 124.344 216.332 124.664 216.18C124.992 216.02 125.348 215.94 125.732 215.94C126.244 215.94 126.704 216.076 127.112 216.348C127.52 216.62 127.844 216.988 128.084 217.452C128.324 217.916 128.444 218.432 128.444 219C128.444 219.568 128.32 220.084 128.072 220.548C127.824 221.012 127.488 221.38 127.064 221.652C126.64 221.924 126.168 222.06 125.648 222.06C125.288 222.06 124.956 221.996 124.652 221.868C124.356 221.732 124.1 221.54 123.884 221.292V224.508H122.528ZM125.324 220.932C125.668 220.932 125.972 220.848 126.236 220.68C126.508 220.512 126.72 220.284 126.872 219.996C127.032 219.7 127.112 219.368 127.112 219C127.112 218.632 127.032 218.304 126.872 218.016C126.72 217.728 126.508 217.5 126.236 217.332C125.972 217.164 125.668 217.08 125.324 217.08C125.028 217.08 124.756 217.14 124.508 217.26C124.26 217.372 124.052 217.536 123.884 217.752V220.26C124.06 220.468 124.272 220.632 124.52 220.752C124.768 220.872 125.036 220.932 125.324 220.932ZM129.863 222V213.396L131.219 213.156V222H129.863ZM134.711 222.108C134.295 222.108 133.923 222.032 133.595 221.88C133.275 221.72 133.023 221.504 132.839 221.232C132.663 220.952 132.575 220.632 132.575 220.272C132.575 219.912 132.667 219.6 132.851 219.336C133.043 219.072 133.311 218.868 133.655 218.724C133.999 218.58 134.407 218.508 134.879 218.508C135.159 218.508 135.435 218.54 135.707 218.604C135.979 218.66 136.243 218.756 136.499 218.892V218.22C136.499 217.82 136.383 217.52 136.151 217.32C135.927 217.12 135.583 217.02 135.119 217.02C134.871 217.02 134.603 217.06 134.315 217.14C134.035 217.212 133.719 217.328 133.367 217.488L132.887 216.504C133.767 216.096 134.599 215.892 135.383 215.892C136.167 215.892 136.771 216.084 137.195 216.468C137.627 216.844 137.843 217.38 137.843 218.076V222H136.499V221.376C136.243 221.624 135.967 221.808 135.671 221.928C135.375 222.048 135.055 222.108 134.711 222.108ZM133.847 220.248C133.847 220.528 133.959 220.748 134.183 220.908C134.407 221.068 134.707 221.148 135.083 221.148C135.355 221.148 135.607 221.108 135.839 221.028C136.079 220.94 136.299 220.812 136.499 220.644V219.672C136.291 219.576 136.075 219.504 135.851 219.456C135.627 219.408 135.383 219.384 135.119 219.384C134.727 219.384 134.415 219.46 134.183 219.612C133.959 219.764 133.847 219.976 133.847 220.248ZM141.901 222.12C141.293 222.12 140.833 221.98 140.521 221.7C140.209 221.412 140.053 220.992 140.053 220.44V217.068H138.853V215.988H140.053V214.332L141.409 214.044V215.988H143.077V217.068H141.409V220.14C141.409 220.436 141.473 220.648 141.601 220.776C141.729 220.896 141.945 220.956 142.249 220.956C142.385 220.956 142.509 220.948 142.621 220.932C142.741 220.908 142.889 220.868 143.065 220.812V221.952C142.897 222.008 142.705 222.048 142.489 222.072C142.281 222.104 142.085 222.12 141.901 222.12ZM146.98 222.12C146.404 222.12 145.884 221.984 145.42 221.712C144.956 221.432 144.588 221.06 144.316 220.596C144.044 220.124 143.908 219.592 143.908 219C143.908 218.408 144.036 217.88 144.292 217.416C144.548 216.952 144.896 216.584 145.336 216.312C145.784 216.032 146.28 215.892 146.824 215.892C147.384 215.892 147.876 216.028 148.3 216.3C148.732 216.572 149.068 216.94 149.308 217.404C149.556 217.868 149.68 218.4 149.68 219V219.324H145.24C145.288 219.652 145.392 219.944 145.552 220.2C145.72 220.448 145.932 220.644 146.188 220.788C146.452 220.932 146.736 221.004 147.04 221.004C147.32 221.004 147.584 220.956 147.832 220.86C148.088 220.756 148.3 220.616 148.468 220.44L149.356 221.244C148.988 221.548 148.612 221.772 148.228 221.916C147.852 222.052 147.436 222.12 146.98 222.12ZM145.252 218.484H148.396C148.348 218.196 148.248 217.94 148.096 217.716C147.952 217.492 147.768 217.316 147.544 217.188C147.328 217.06 147.088 216.996 146.824 216.996C146.56 216.996 146.316 217.06 146.092 217.188C145.876 217.308 145.696 217.48 145.552 217.704C145.408 217.928 145.308 218.188 145.252 218.484Z" fill="#151515"/>
<mask id="path-9-inside-1_1638_67031" fill="white">
<path d="M72 241C72 237.686 74.6863 235 78 235H227C230.314 235 233 237.686 233 241V266C233 269.314 230.314 272 227 272H78C74.6863 272 72 269.314 72 266V241Z"/>
</mask>
<path d="M72 241C72 237.686 74.6863 235 78 235H227C230.314 235 233 237.686 233 241V266C233 269.314 230.314 272 227 272H78C74.6863 272 72 269.314 72 266V241Z" fill="white"/>
<path d="M78 235V236H227V235V234H78V235ZM233 241H232V266H233H234V241H233ZM227 272V271H78V272V273H227V272ZM72 266H73V241H72H71V266H72ZM78 272V271C75.2386 271 73 268.761 73 266H72H71C71 269.866 74.134 273 78 273V272ZM233 266H232C232 268.761 229.761 271 227 271V272V273C230.866 273 234 269.866 234 266H233ZM227 235V236C229.761 236 232 238.239 232 241H233H234C234 237.134 230.866 234 227 234V235ZM78 235V234C74.134 234 71 237.134 71 241H72H73C73 238.239 75.2386 236 78 236V235Z" fill="#C7C7C7" mask="url(#path-9-inside-1_1638_67031)"/>
<path d="M92.41 258.154C91.6447 258.154 90.9353 258.019 90.282 257.748C89.6287 257.468 88.9987 257.048 88.392 256.488L89.05 255.704C89.638 256.255 90.1887 256.647 90.702 256.88C91.2247 257.113 91.8033 257.23 92.438 257.23C92.942 257.23 93.39 257.146 93.782 256.978C94.1833 256.801 94.496 256.563 94.72 256.264C94.944 255.965 95.056 255.625 95.056 255.242C95.056 254.747 94.8927 254.374 94.566 254.122C94.2393 253.861 93.6747 253.66 92.872 253.52L91.29 253.254C90.394 253.095 89.736 252.825 89.316 252.442C88.9053 252.05 88.7 251.527 88.7 250.874C88.7 250.323 88.84 249.838 89.12 249.418C89.4093 248.989 89.806 248.653 90.31 248.41C90.814 248.167 91.3973 248.046 92.06 248.046C92.788 248.046 93.4647 248.149 94.09 248.354C94.7153 248.55 95.3313 248.863 95.938 249.292L95.378 250.132C94.874 249.749 94.342 249.46 93.782 249.264C93.222 249.059 92.6527 248.956 92.074 248.956C91.6167 248.956 91.2107 249.035 90.856 249.194C90.5107 249.353 90.2353 249.567 90.03 249.838C89.834 250.109 89.736 250.417 89.736 250.762C89.736 251.191 89.8807 251.527 90.17 251.77C90.4593 252.013 90.9307 252.185 91.584 252.288L93.152 252.554C94.1973 252.741 94.9533 253.044 95.42 253.464C95.896 253.875 96.134 254.449 96.134 255.186C96.134 255.755 95.9707 256.264 95.644 256.712C95.3267 257.16 94.888 257.515 94.328 257.776C93.768 258.028 93.1287 258.154 92.41 258.154ZM100.989 258.14C100.355 258.14 99.7807 257.986 99.2674 257.678C98.754 257.361 98.348 256.936 98.0494 256.404C97.7507 255.863 97.6014 255.256 97.6014 254.584C97.6014 253.912 97.7414 253.31 98.0214 252.778C98.3107 252.246 98.698 251.826 99.1834 251.518C99.6687 251.21 100.21 251.056 100.807 251.056C101.414 251.056 101.951 251.21 102.417 251.518C102.893 251.817 103.267 252.227 103.537 252.75C103.817 253.263 103.957 253.847 103.957 254.5V254.808H98.5954C98.6327 255.275 98.7587 255.695 98.9734 256.068C99.1974 256.432 99.4867 256.721 99.8414 256.936C100.205 257.141 100.602 257.244 101.031 257.244C101.386 257.244 101.727 257.183 102.053 257.062C102.389 256.931 102.674 256.759 102.907 256.544L103.551 257.23C103.159 257.538 102.753 257.767 102.333 257.916C101.913 258.065 101.465 258.14 100.989 258.14ZM98.6234 254.08H102.949C102.903 253.669 102.777 253.305 102.571 252.988C102.375 252.661 102.123 252.405 101.815 252.218C101.517 252.031 101.181 251.938 100.807 251.938C100.434 251.938 100.093 252.031 99.7854 252.218C99.4774 252.395 99.2207 252.647 99.0154 252.974C98.8194 253.291 98.6887 253.66 98.6234 254.08ZM105.702 258V247.892L106.724 247.682V258H105.702ZM111.9 258.14C111.265 258.14 110.691 257.986 110.178 257.678C109.664 257.361 109.258 256.936 108.96 256.404C108.661 255.863 108.512 255.256 108.512 254.584C108.512 253.912 108.652 253.31 108.932 252.778C109.221 252.246 109.608 251.826 110.094 251.518C110.579 251.21 111.12 251.056 111.718 251.056C112.324 251.056 112.861 251.21 113.328 251.518C113.804 251.817 114.177 252.227 114.448 252.75C114.728 253.263 114.868 253.847 114.868 254.5V254.808H109.506C109.543 255.275 109.669 255.695 109.884 256.068C110.108 256.432 110.397 256.721 110.752 256.936C111.116 257.141 111.512 257.244 111.942 257.244C112.296 257.244 112.637 257.183 112.964 257.062C113.3 256.931 113.584 256.759 113.818 256.544L114.462 257.23C114.07 257.538 113.664 257.767 113.244 257.916C112.824 258.065 112.376 258.14 111.9 258.14ZM109.534 254.08H113.86C113.813 253.669 113.687 253.305 113.482 252.988C113.286 252.661 113.034 252.405 112.726 252.218C112.427 252.031 112.091 251.938 111.718 251.938C111.344 251.938 111.004 252.031 110.696 252.218C110.388 252.395 110.131 252.647 109.926 252.974C109.73 253.291 109.599 253.66 109.534 254.08ZM119.678 258.112C119.044 258.112 118.47 257.958 117.957 257.65C117.453 257.333 117.051 256.908 116.753 256.376C116.454 255.835 116.305 255.237 116.305 254.584C116.305 253.921 116.454 253.324 116.753 252.792C117.051 252.26 117.453 251.84 117.957 251.532C118.47 251.215 119.044 251.056 119.678 251.056C120.183 251.056 120.663 251.149 121.121 251.336C121.578 251.523 121.975 251.784 122.311 252.12L121.653 252.834C121.41 252.563 121.116 252.353 120.771 252.204C120.425 252.055 120.075 251.98 119.721 251.98C119.273 251.98 118.867 252.097 118.503 252.33C118.148 252.563 117.863 252.876 117.649 253.268C117.434 253.66 117.327 254.099 117.327 254.584C117.327 255.069 117.434 255.508 117.649 255.9C117.863 256.292 118.148 256.605 118.503 256.838C118.867 257.071 119.273 257.188 119.721 257.188C120.075 257.188 120.425 257.113 120.771 256.964C121.116 256.805 121.41 256.595 121.653 256.334L122.311 257.048C121.975 257.384 121.578 257.645 121.121 257.832C120.663 258.019 120.183 258.112 119.678 258.112ZM126.476 258.14C125.888 258.14 125.44 258 125.132 257.72C124.834 257.431 124.684 257.015 124.684 256.474V252.008H123.27V251.168H124.684V249.292L125.706 249.054V251.168H127.666V252.008H125.706V256.208C125.706 256.572 125.781 256.833 125.93 256.992C126.089 257.151 126.346 257.23 126.7 257.23C126.878 257.23 127.036 257.216 127.176 257.188C127.316 257.16 127.48 257.113 127.666 257.048V257.958C127.48 258.023 127.284 258.07 127.078 258.098C126.873 258.126 126.672 258.14 126.476 258.14ZM135.035 258.14C134.447 258.14 133.999 258 133.691 257.72C133.392 257.431 133.243 257.015 133.243 256.474V252.008H131.829V251.168H133.243V249.292L134.265 249.054V251.168H136.225V252.008H134.265V256.208C134.265 256.572 134.34 256.833 134.489 256.992C134.648 257.151 134.904 257.23 135.259 257.23C135.436 257.23 135.595 257.216 135.735 257.188C135.875 257.16 136.038 257.113 136.225 257.048V257.958C136.038 258.023 135.842 258.07 135.637 258.098C135.432 258.126 135.231 258.14 135.035 258.14ZM140.665 258.14C140.03 258.14 139.456 257.986 138.943 257.678C138.43 257.361 138.024 256.936 137.725 256.404C137.426 255.863 137.277 255.256 137.277 254.584C137.277 253.912 137.417 253.31 137.697 252.778C137.986 252.246 138.374 251.826 138.859 251.518C139.344 251.21 139.886 251.056 140.483 251.056C141.09 251.056 141.626 251.21 142.093 251.518C142.569 251.817 142.942 252.227 143.213 252.75C143.493 253.263 143.633 253.847 143.633 254.5V254.808H138.271C138.308 255.275 138.434 255.695 138.649 256.068C138.873 256.432 139.162 256.721 139.517 256.936C139.881 257.141 140.278 257.244 140.707 257.244C141.062 257.244 141.402 257.183 141.729 257.062C142.065 256.931 142.35 256.759 142.583 256.544L143.227 257.23C142.835 257.538 142.429 257.767 142.009 257.916C141.589 258.065 141.141 258.14 140.665 258.14ZM138.299 254.08H142.625C142.578 253.669 142.452 253.305 142.247 252.988C142.051 252.661 141.799 252.405 141.491 252.218C141.192 252.031 140.856 251.938 140.483 251.938C140.11 251.938 139.769 252.031 139.461 252.218C139.153 252.395 138.896 252.647 138.691 252.974C138.495 253.291 138.364 253.66 138.299 254.08ZM145.378 258V251.168H146.4V252.232C146.661 251.84 146.96 251.546 147.296 251.35C147.632 251.154 148.01 251.056 148.43 251.056C148.915 251.056 149.34 251.177 149.704 251.42C150.068 251.653 150.343 251.975 150.53 252.386C150.801 251.947 151.123 251.616 151.496 251.392C151.879 251.168 152.317 251.056 152.812 251.056C153.269 251.056 153.671 251.163 154.016 251.378C154.371 251.593 154.646 251.891 154.842 252.274C155.038 252.647 155.136 253.086 155.136 253.59V258H154.114V253.842C154.114 253.245 153.965 252.773 153.666 252.428C153.367 252.083 152.957 251.91 152.434 251.91C152.079 251.91 151.757 251.999 151.468 252.176C151.188 252.353 150.941 252.624 150.726 252.988C150.745 253.081 150.759 253.179 150.768 253.282C150.777 253.385 150.782 253.487 150.782 253.59V258H149.76V253.842C149.76 253.245 149.606 252.773 149.298 252.428C148.999 252.083 148.589 251.91 148.066 251.91C147.366 251.91 146.811 252.246 146.4 252.918V258H145.378ZM157.204 260.926V251.168H158.212V252.148C158.474 251.803 158.791 251.541 159.164 251.364C159.547 251.177 159.967 251.084 160.424 251.084C161.022 251.084 161.554 251.243 162.02 251.56C162.496 251.868 162.874 252.288 163.154 252.82C163.434 253.343 163.574 253.931 163.574 254.584C163.574 255.237 163.43 255.83 163.14 256.362C162.86 256.894 162.478 257.319 161.992 257.636C161.516 257.944 160.975 258.098 160.368 258.098C159.939 258.098 159.542 258.019 159.178 257.86C158.814 257.692 158.497 257.454 158.226 257.146V260.926H157.204ZM160.172 257.216C160.63 257.216 161.036 257.104 161.39 256.88C161.754 256.647 162.039 256.334 162.244 255.942C162.459 255.541 162.566 255.093 162.566 254.598C162.566 254.094 162.459 253.646 162.244 253.254C162.039 252.862 161.754 252.554 161.39 252.33C161.036 252.097 160.63 251.98 160.172 251.98C159.771 251.98 159.398 252.064 159.052 252.232C158.716 252.391 158.441 252.619 158.226 252.918V256.264C158.45 256.563 158.73 256.796 159.066 256.964C159.412 257.132 159.78 257.216 160.172 257.216ZM165.366 258V247.892L166.388 247.682V258H165.366ZM170.598 258.126C170.112 258.126 169.683 258.037 169.31 257.86C168.936 257.683 168.642 257.44 168.428 257.132C168.222 256.815 168.12 256.451 168.12 256.04C168.12 255.629 168.227 255.275 168.442 254.976C168.656 254.668 168.955 254.43 169.338 254.262C169.72 254.094 170.168 254.01 170.682 254.01C171.074 254.01 171.442 254.052 171.788 254.136C172.142 254.22 172.469 254.355 172.768 254.542V253.604C172.768 253.044 172.618 252.624 172.32 252.344C172.021 252.055 171.582 251.91 171.004 251.91C170.686 251.91 170.36 251.957 170.024 252.05C169.697 252.143 169.333 252.293 168.932 252.498L168.554 251.714C169.468 251.275 170.327 251.056 171.13 251.056C171.979 251.056 172.632 251.266 173.09 251.686C173.547 252.097 173.776 252.689 173.776 253.464V258H172.768V257.202C172.469 257.51 172.138 257.743 171.774 257.902C171.41 258.051 171.018 258.126 170.598 258.126ZM169.1 256.012C169.1 256.413 169.254 256.735 169.562 256.978C169.879 257.221 170.294 257.342 170.808 257.342C171.19 257.342 171.54 257.277 171.858 257.146C172.184 257.015 172.488 256.819 172.768 256.558V255.242C172.478 255.074 172.18 254.953 171.872 254.878C171.564 254.794 171.218 254.752 170.836 254.752C170.313 254.752 169.893 254.869 169.576 255.102C169.258 255.326 169.1 255.629 169.1 256.012ZM178.252 258.14C177.664 258.14 177.216 258 176.908 257.72C176.609 257.431 176.46 257.015 176.46 256.474V252.008H175.046V251.168H176.46V249.292L177.482 249.054V251.168H179.442V252.008H177.482V256.208C177.482 256.572 177.556 256.833 177.706 256.992C177.864 257.151 178.121 257.23 178.476 257.23C178.653 257.23 178.812 257.216 178.952 257.188C179.092 257.16 179.255 257.113 179.442 257.048V257.958C179.255 258.023 179.059 258.07 178.854 258.098C178.648 258.126 178.448 258.14 178.252 258.14ZM183.882 258.14C183.247 258.14 182.673 257.986 182.16 257.678C181.647 257.361 181.241 256.936 180.942 256.404C180.643 255.863 180.494 255.256 180.494 254.584C180.494 253.912 180.634 253.31 180.914 252.778C181.203 252.246 181.591 251.826 182.076 251.518C182.561 251.21 183.103 251.056 183.7 251.056C184.307 251.056 184.843 251.21 185.31 251.518C185.786 251.817 186.159 252.227 186.43 252.75C186.71 253.263 186.85 253.847 186.85 254.5V254.808H181.488C181.525 255.275 181.651 255.695 181.866 256.068C182.09 256.432 182.379 256.721 182.734 256.936C183.098 257.141 183.495 257.244 183.924 257.244C184.279 257.244 184.619 257.183 184.946 257.062C185.282 256.931 185.567 256.759 185.8 256.544L186.444 257.23C186.052 257.538 185.646 257.767 185.226 257.916C184.806 258.065 184.358 258.14 183.882 258.14ZM181.516 254.08H185.842C185.795 253.669 185.669 253.305 185.464 252.988C185.268 252.661 185.016 252.405 184.708 252.218C184.409 252.031 184.073 251.938 183.7 251.938C183.327 251.938 182.986 252.031 182.678 252.218C182.37 252.395 182.113 252.647 181.908 252.974C181.712 253.291 181.581 253.66 181.516 254.08Z" fill="#151515"/>
<path fill-rule="evenodd" clip-rule="evenodd" d="M207.389 256.172L210.921 252.61C211.267 252.262 211.023 251.667 210.534 251.667H203.466C202.977 251.667 202.733 252.262 203.079 252.61L206.611 256.172C206.826 256.387 207.174 256.387 207.389 256.172Z" fill="#1F1F1F"/>
<path d="M72 314.5C72 304.283 80.2827 296 90.5 296H132.5C142.717 296 151 304.283 151 314.5V314.5C151 324.717 142.717 333 132.5 333H90.5C80.2827 333 72 324.717 72 314.5V314.5Z" fill="#0066CC"/>
<path d="M100.41 319.154C99.6447 319.154 98.9353 319.019 98.282 318.748C97.6287 318.468 96.9987 318.048 96.392 317.488L97.05 316.704C97.638 317.255 98.1887 317.647 98.702 317.88C99.2247 318.113 99.8033 318.23 100.438 318.23C100.942 318.23 101.39 318.146 101.782 317.978C102.183 317.801 102.496 317.563 102.72 317.264C102.944 316.965 103.056 316.625 103.056 316.242C103.056 315.747 102.893 315.374 102.566 315.122C102.239 314.861 101.675 314.66 100.872 314.52L99.29 314.254C98.394 314.095 97.736 313.825 97.316 313.442C96.9053 313.05 96.7 312.527 96.7 311.874C96.7 311.323 96.84 310.838 97.12 310.418C97.4093 309.989 97.806 309.653 98.31 309.41C98.814 309.167 99.3973 309.046 100.06 309.046C100.788 309.046 101.465 309.149 102.09 309.354C102.715 309.55 103.331 309.863 103.938 310.292L103.378 311.132C102.874 310.749 102.342 310.46 101.782 310.264C101.222 310.059 100.653 309.956 100.074 309.956C99.6167 309.956 99.2107 310.035 98.856 310.194C98.5107 310.353 98.2353 310.567 98.03 310.838C97.834 311.109 97.736 311.417 97.736 311.762C97.736 312.191 97.8807 312.527 98.17 312.77C98.4593 313.013 98.9307 313.185 99.584 313.288L101.152 313.554C102.197 313.741 102.953 314.044 103.42 314.464C103.896 314.875 104.134 315.449 104.134 316.186C104.134 316.755 103.971 317.264 103.644 317.712C103.327 318.16 102.888 318.515 102.328 318.776C101.768 319.028 101.129 319.154 100.41 319.154ZM108.092 319.126C107.606 319.126 107.177 319.037 106.804 318.86C106.43 318.683 106.136 318.44 105.922 318.132C105.716 317.815 105.614 317.451 105.614 317.04C105.614 316.629 105.721 316.275 105.936 315.976C106.15 315.668 106.449 315.43 106.832 315.262C107.214 315.094 107.662 315.01 108.176 315.01C108.568 315.01 108.936 315.052 109.282 315.136C109.636 315.22 109.963 315.355 110.262 315.542V314.604C110.262 314.044 110.112 313.624 109.814 313.344C109.515 313.055 109.076 312.91 108.498 312.91C108.18 312.91 107.854 312.957 107.518 313.05C107.191 313.143 106.827 313.293 106.426 313.498L106.048 312.714C106.962 312.275 107.821 312.056 108.624 312.056C109.473 312.056 110.126 312.266 110.584 312.686C111.041 313.097 111.27 313.689 111.27 314.464V319H110.262V318.202C109.963 318.51 109.632 318.743 109.268 318.902C108.904 319.051 108.512 319.126 108.092 319.126ZM106.594 317.012C106.594 317.413 106.748 317.735 107.056 317.978C107.373 318.221 107.788 318.342 108.302 318.342C108.684 318.342 109.034 318.277 109.352 318.146C109.678 318.015 109.982 317.819 110.262 317.558V316.242C109.972 316.074 109.674 315.953 109.366 315.878C109.058 315.794 108.712 315.752 108.33 315.752C107.807 315.752 107.387 315.869 107.07 316.102C106.752 316.326 106.594 316.629 106.594 317.012ZM115.033 319L112.233 312.168H113.339L115.551 317.726L117.735 312.168H118.827L116.013 319H115.033ZM122.962 319.14C122.327 319.14 121.753 318.986 121.24 318.678C120.727 318.361 120.321 317.936 120.022 317.404C119.723 316.863 119.574 316.256 119.574 315.584C119.574 314.912 119.714 314.31 119.994 313.778C120.283 313.246 120.671 312.826 121.156 312.518C121.641 312.21 122.183 312.056 122.78 312.056C123.387 312.056 123.923 312.21 124.39 312.518C124.866 312.817 125.239 313.227 125.51 313.75C125.79 314.263 125.93 314.847 125.93 315.5V315.808H120.568C120.605 316.275 120.731 316.695 120.946 317.068C121.17 317.432 121.459 317.721 121.814 317.936C122.178 318.141 122.575 318.244 123.004 318.244C123.359 318.244 123.699 318.183 124.026 318.062C124.362 317.931 124.647 317.759 124.88 317.544L125.524 318.23C125.132 318.538 124.726 318.767 124.306 318.916C123.886 319.065 123.438 319.14 122.962 319.14ZM120.596 315.08H124.922C124.875 314.669 124.749 314.305 124.544 313.988C124.348 313.661 124.096 313.405 123.788 313.218C123.489 313.031 123.153 312.938 122.78 312.938C122.407 312.938 122.066 313.031 121.758 313.218C121.45 313.395 121.193 313.647 120.988 313.974C120.792 314.291 120.661 314.66 120.596 315.08Z" fill="white"/>
<path d="M180.768 319.154C180.068 319.154 179.415 319.028 178.808 318.776C178.211 318.515 177.683 318.155 177.226 317.698C176.769 317.231 176.414 316.695 176.162 316.088C175.91 315.472 175.784 314.809 175.784 314.1C175.784 313.391 175.91 312.733 176.162 312.126C176.414 311.51 176.769 310.973 177.226 310.516C177.683 310.049 178.211 309.69 178.808 309.438C179.415 309.177 180.068 309.046 180.768 309.046C181.253 309.046 181.715 309.111 182.154 309.242C182.602 309.363 183.022 309.545 183.414 309.788C183.806 310.021 184.156 310.311 184.464 310.656L183.75 311.398C183.386 310.959 182.938 310.623 182.406 310.39C181.883 310.147 181.337 310.026 180.768 310.026C180.217 310.026 179.704 310.129 179.228 310.334C178.752 310.539 178.337 310.829 177.982 311.202C177.637 311.575 177.366 312.009 177.17 312.504C176.974 312.989 176.876 313.521 176.876 314.1C176.876 314.669 176.974 315.201 177.17 315.696C177.366 316.191 177.637 316.625 177.982 316.998C178.337 317.371 178.752 317.661 179.228 317.866C179.704 318.071 180.217 318.174 180.768 318.174C181.337 318.174 181.883 318.053 182.406 317.81C182.938 317.567 183.386 317.231 183.75 316.802L184.464 317.544C184.156 317.889 183.806 318.183 183.414 318.426C183.022 318.659 182.602 318.841 182.154 318.972C181.715 319.093 181.253 319.154 180.768 319.154ZM188.322 319.126C187.837 319.126 187.408 319.037 187.034 318.86C186.661 318.683 186.367 318.44 186.152 318.132C185.947 317.815 185.844 317.451 185.844 317.04C185.844 316.629 185.952 316.275 186.166 315.976C186.381 315.668 186.68 315.43 187.062 315.262C187.445 315.094 187.893 315.01 188.406 315.01C188.798 315.01 189.167 315.052 189.512 315.136C189.867 315.22 190.194 315.355 190.492 315.542V314.604C190.492 314.044 190.343 313.624 190.044 313.344C189.746 313.055 189.307 312.91 188.728 312.91C188.411 312.91 188.084 312.957 187.748 313.05C187.422 313.143 187.058 313.293 186.656 313.498L186.278 312.714C187.193 312.275 188.052 312.056 188.854 312.056C189.704 312.056 190.357 312.266 190.814 312.686C191.272 313.097 191.5 313.689 191.5 314.464V319H190.492V318.202C190.194 318.51 189.862 318.743 189.498 318.902C189.134 319.051 188.742 319.126 188.322 319.126ZM186.824 317.012C186.824 317.413 186.978 317.735 187.286 317.978C187.604 318.221 188.019 318.342 188.532 318.342C188.915 318.342 189.265 318.277 189.582 318.146C189.909 318.015 190.212 317.819 190.492 317.558V316.242C190.203 316.074 189.904 315.953 189.596 315.878C189.288 315.794 188.943 315.752 188.56 315.752C188.038 315.752 187.618 315.869 187.3 316.102C186.983 316.326 186.824 316.629 186.824 317.012ZM193.577 319V312.168H194.599V313.274C194.861 312.863 195.173 312.56 195.537 312.364C195.901 312.159 196.312 312.056 196.769 312.056C197.264 312.056 197.693 312.163 198.057 312.378C198.431 312.583 198.72 312.877 198.925 313.26C199.14 313.633 199.247 314.072 199.247 314.576V319H198.225V314.87C198.225 314.263 198.057 313.787 197.721 313.442C197.395 313.087 196.951 312.91 196.391 312.91C196.018 312.91 195.677 312.999 195.369 313.176C195.061 313.353 194.805 313.615 194.599 313.96V319H193.577ZM204.368 319.112C203.733 319.112 203.159 318.958 202.646 318.65C202.142 318.333 201.741 317.908 201.442 317.376C201.143 316.835 200.994 316.237 200.994 315.584C200.994 314.921 201.143 314.324 201.442 313.792C201.741 313.26 202.142 312.84 202.646 312.532C203.159 312.215 203.733 312.056 204.368 312.056C204.872 312.056 205.353 312.149 205.81 312.336C206.267 312.523 206.664 312.784 207 313.12L206.342 313.834C206.099 313.563 205.805 313.353 205.46 313.204C205.115 313.055 204.765 312.98 204.41 312.98C203.962 312.98 203.556 313.097 203.192 313.33C202.837 313.563 202.553 313.876 202.338 314.268C202.123 314.66 202.016 315.099 202.016 315.584C202.016 316.069 202.123 316.508 202.338 316.9C202.553 317.292 202.837 317.605 203.192 317.838C203.556 318.071 203.962 318.188 204.41 318.188C204.765 318.188 205.115 318.113 205.46 317.964C205.805 317.805 206.099 317.595 206.342 317.334L207 318.048C206.664 318.384 206.267 318.645 205.81 318.832C205.353 319.019 204.872 319.112 204.368 319.112ZM211.3 319.14C210.665 319.14 210.091 318.986 209.578 318.678C209.065 318.361 208.659 317.936 208.36 317.404C208.061 316.863 207.912 316.256 207.912 315.584C207.912 314.912 208.052 314.31 208.332 313.778C208.621 313.246 209.009 312.826 209.494 312.518C209.979 312.21 210.521 312.056 211.118 312.056C211.725 312.056 212.261 312.21 212.728 312.518C213.204 312.817 213.577 313.227 213.848 313.75C214.128 314.263 214.268 314.847 214.268 315.5V315.808H208.906C208.943 316.275 209.069 316.695 209.284 317.068C209.508 317.432 209.797 317.721 210.152 317.936C210.516 318.141 210.913 318.244 211.342 318.244C211.697 318.244 212.037 318.183 212.364 318.062C212.7 317.931 212.985 317.759 213.218 317.544L213.862 318.23C213.47 318.538 213.064 318.767 212.644 318.916C212.224 319.065 211.776 319.14 211.3 319.14ZM208.934 315.08H213.26C213.213 314.669 213.087 314.305 212.882 313.988C212.686 313.661 212.434 313.405 212.126 313.218C211.827 313.031 211.491 312.938 211.118 312.938C210.745 312.938 210.404 313.031 210.096 313.218C209.788 313.395 209.531 313.647 209.326 313.974C209.13 314.291 208.999 314.66 208.934 315.08ZM216.013 319V308.892L217.035 308.682V319H216.013Z" fill="#0066CC"/>
</g>
<mask id="path-16-inside-2_1638_67031" fill="white">
<path d="M436 314.5C436 304.283 444.283 296 454.5 296H507.5C517.717 296 526 304.283 526 314.5V314.5C526 324.717 517.717 333 507.5 333H454.5C444.283 333 436 324.717 436 314.5V314.5Z"/>
</mask>
<path d="M454.5 296V297H507.5V296V295H454.5V296ZM507.5 333V332H454.5V333V334H507.5V333ZM454.5 333V332C444.835 332 437 324.165 437 314.5H436H435C435 325.27 443.73 334 454.5 334V333ZM526 314.5H525C525 324.165 517.165 332 507.5 332V333V334C518.27 334 527 325.27 527 314.5H526ZM507.5 296V297C517.165 297 525 304.835 525 314.5H526H527C527 303.73 518.27 295 507.5 295V296ZM454.5 296V295C443.73 295 435 303.73 435 314.5H436H437C437 304.835 444.835 297 454.5 297V296Z" fill="#B1380B" mask="url(#path-16-inside-2_1638_67031)"/>
<path d="M462.324 318.034H464.564C465.273 318.034 465.908 317.861 466.468 317.516C467.028 317.171 467.471 316.704 467.798 316.116C468.134 315.519 468.302 314.847 468.302 314.1C468.302 313.353 468.134 312.686 467.798 312.098C467.471 311.501 467.028 311.029 466.468 310.684C465.908 310.339 465.273 310.166 464.564 310.166H462.324V318.034ZM461.246 319V309.2H464.494C465.213 309.2 465.871 309.326 466.468 309.578C467.075 309.821 467.593 310.166 468.022 310.614C468.461 311.053 468.797 311.571 469.03 312.168C469.273 312.756 469.394 313.4 469.394 314.1C469.394 314.8 469.273 315.449 469.03 316.046C468.797 316.634 468.461 317.152 468.022 317.6C467.593 318.039 467.075 318.384 466.468 318.636C465.871 318.879 465.213 319 464.494 319H461.246ZM474.316 319.14C473.681 319.14 473.107 318.986 472.594 318.678C472.08 318.361 471.674 317.936 471.376 317.404C471.077 316.863 470.928 316.256 470.928 315.584C470.928 314.912 471.068 314.31 471.348 313.778C471.637 313.246 472.024 312.826 472.51 312.518C472.995 312.21 473.536 312.056 474.134 312.056C474.74 312.056 475.277 312.21 475.744 312.518C476.22 312.817 476.593 313.227 476.864 313.75C477.144 314.263 477.284 314.847 477.284 315.5V315.808H471.922C471.959 316.275 472.085 316.695 472.3 317.068C472.524 317.432 472.813 317.721 473.168 317.936C473.532 318.141 473.928 318.244 474.358 318.244C474.712 318.244 475.053 318.183 475.38 318.062C475.716 317.931 476 317.759 476.234 317.544L476.878 318.23C476.486 318.538 476.08 318.767 475.66 318.916C475.24 319.065 474.792 319.14 474.316 319.14ZM471.95 315.08H476.276C476.229 314.669 476.103 314.305 475.898 313.988C475.702 313.661 475.45 313.405 475.142 313.218C474.843 313.031 474.507 312.938 474.134 312.938C473.76 312.938 473.42 313.031 473.112 313.218C472.804 313.395 472.547 313.647 472.342 313.974C472.146 314.291 472.015 314.66 471.95 315.08ZM479.029 319V308.892L480.051 308.682V319H479.029ZM485.226 319.14C484.591 319.14 484.017 318.986 483.504 318.678C482.99 318.361 482.584 317.936 482.286 317.404C481.987 316.863 481.838 316.256 481.838 315.584C481.838 314.912 481.978 314.31 482.258 313.778C482.547 313.246 482.934 312.826 483.42 312.518C483.905 312.21 484.446 312.056 485.044 312.056C485.65 312.056 486.187 312.21 486.654 312.518C487.13 312.817 487.503 313.227 487.774 313.75C488.054 314.263 488.194 314.847 488.194 315.5V315.808H482.832C482.869 316.275 482.995 316.695 483.21 317.068C483.434 317.432 483.723 317.721 484.078 317.936C484.442 318.141 484.838 318.244 485.268 318.244C485.622 318.244 485.963 318.183 486.29 318.062C486.626 317.931 486.91 317.759 487.144 317.544L487.788 318.23C487.396 318.538 486.99 318.767 486.57 318.916C486.15 319.065 485.702 319.14 485.226 319.14ZM482.86 315.08H487.186C487.139 314.669 487.013 314.305 486.808 313.988C486.612 313.661 486.36 313.405 486.052 313.218C485.753 313.031 485.417 312.938 485.044 312.938C484.67 312.938 484.33 313.031 484.022 313.218C483.714 313.395 483.457 313.647 483.252 313.974C483.056 314.291 482.925 314.66 482.86 315.08ZM492.338 319.14C491.75 319.14 491.302 319 490.994 318.72C490.695 318.431 490.546 318.015 490.546 317.474V313.008H489.132V312.168H490.546V310.292L491.568 310.054V312.168H493.528V313.008H491.568V317.208C491.568 317.572 491.642 317.833 491.792 317.992C491.95 318.151 492.207 318.23 492.562 318.23C492.739 318.23 492.898 318.216 493.038 318.188C493.178 318.16 493.341 318.113 493.528 318.048V318.958C493.341 319.023 493.145 319.07 492.94 319.098C492.734 319.126 492.534 319.14 492.338 319.14ZM497.968 319.14C497.333 319.14 496.759 318.986 496.246 318.678C495.733 318.361 495.327 317.936 495.028 317.404C494.729 316.863 494.58 316.256 494.58 315.584C494.58 314.912 494.72 314.31 495 313.778C495.289 313.246 495.677 312.826 496.162 312.518C496.647 312.21 497.189 312.056 497.786 312.056C498.393 312.056 498.929 312.21 499.396 312.518C499.872 312.817 500.245 313.227 500.516 313.75C500.796 314.263 500.936 314.847 500.936 315.5V315.808H495.574C495.611 316.275 495.737 316.695 495.952 317.068C496.176 317.432 496.465 317.721 496.82 317.936C497.184 318.141 497.581 318.244 498.01 318.244C498.365 318.244 498.705 318.183 499.032 318.062C499.368 317.931 499.653 317.759 499.886 317.544L500.53 318.23C500.138 318.538 499.732 318.767 499.312 318.916C498.892 319.065 498.444 319.14 497.968 319.14ZM495.602 315.08H499.928C499.881 314.669 499.755 314.305 499.55 313.988C499.354 313.661 499.102 313.405 498.794 313.218C498.495 313.031 498.159 312.938 497.786 312.938C497.413 312.938 497.072 313.031 496.764 313.218C496.456 313.395 496.199 313.647 495.994 313.974C495.798 314.291 495.667 314.66 495.602 315.08Z" fill="#B1380B"/>
</g>
<defs>
<filter id="filter0_d_1638_67031" x="20" y="14" width="560" height="381" filterUnits="userSpaceOnUse" color-interpolation-filters="sRGB">
<feFlood flood-opacity="0" result="BackgroundImageFix"/>
<feColorMatrix in="SourceAlpha" type="matrix" values="0 0 0 0 0 0 0 0 0 0 0 0 0 0 0 0 0 0 127 0" result="hardAlpha"/>
<feOffset dy="10"/>
<feGaussianBlur stdDeviation="10"/>
<feColorMatrix type="matrix" values="0 0 0 0 0.160784 0 0 0 0 0.160784 0 0 0 0 0.160784 0 0 0 0.15 0"/>
<feBlend mode="normal" in2="BackgroundImageFix" result="effect1_dropShadow_1638_67031"/>
<feBlend mode="normal" in="SourceGraphic" in2="effect1_dropShadow_1638_67031" result="shape"/>
</filter>
<clipPath id="clip0_1638_67031">
<rect width="600" height="389" fill="white"/>
</clipPath>
</defs>
</svg>
