<svg width="719" height="418" viewBox="0 0 719 418" fill="none" xmlns="http://www.w3.org/2000/svg">
<rect width="719" height="418" fill="white"/>
<rect width="292" height="69" fill="#F2F2F2"/>
<path d="M237 16.5H262C265.038 16.5 267.5 18.9624 267.5 22V47C267.5 50.0376 265.038 52.5 262 52.5H237C233.962 52.5 231.5 50.0376 231.5 47V22C231.5 18.9624 233.962 16.5 237 16.5Z" fill="white"/>
<path d="M237 16.5H262C265.038 16.5 267.5 18.9624 267.5 22V47C267.5 50.0376 265.038 52.5 262 52.5H237C233.962 52.5 231.5 50.0376 231.5 47V22C231.5 18.9624 233.962 16.5 237 16.5Z" stroke="#C7C7C7"/>
<path fill-rule="evenodd" clip-rule="evenodd" d="M246.427 32.6667C246.79 32.6667 247.083 32.3729 247.083 32.0105V29.823C247.083 29.4606 246.79 29.1667 246.427 29.1667H243.656C243.294 29.1667 243 29.4606 243 29.823V32.0105C243 32.3729 243.294 32.6667 243.656 32.6667H246.427ZM256.344 32.6667C256.706 32.6667 257 32.3729 257 32.0105V29.823C257 29.4606 256.706 29.1667 256.344 29.1667H253.573C253.21 29.1667 252.917 29.4606 252.917 29.823V32.0105C252.917 32.3729 253.21 32.6667 253.573 32.6667H256.344ZM251.385 32.6667C251.748 32.6667 252.042 32.3729 252.042 32.0105V29.823C252.042 29.4606 251.748 29.1667 251.385 29.1667H248.615C248.252 29.1667 247.958 29.4606 247.958 29.823V32.0105C247.958 32.3729 248.252 32.6667 248.615 32.6667H251.385ZM251.385 37.0417C251.748 37.0417 252.042 36.7479 252.042 36.3855V34.198C252.042 33.8355 251.748 33.5417 251.385 33.5417H248.615C248.252 33.5417 247.958 33.8355 247.958 34.198V36.3855C247.958 36.7479 248.252 37.0417 248.615 37.0417H251.385ZM246.427 37.0417C246.79 37.0417 247.083 36.7479 247.083 36.3855V34.198C247.083 33.8355 246.79 33.5417 246.427 33.5417H243.656C243.294 33.5417 243 33.8355 243 34.198V36.3855C243 36.7479 243.294 37.0417 243.656 37.0417H246.427ZM256.344 37.0417C256.706 37.0417 257 36.7479 257 36.3855V34.198C257 33.8355 256.706 33.5417 256.344 33.5417H253.573C253.21 33.5417 252.917 33.8355 252.917 34.198V36.3855C252.917 36.7479 253.21 37.0417 253.573 37.0417H256.344ZM246.427 41.4167C246.79 41.4167 247.083 41.1229 247.083 40.7605V38.573C247.083 38.2105 246.79 37.9167 246.427 37.9167H243.656C243.294 37.9167 243 38.2105 243 38.573V40.7605C243 41.1229 243.294 41.4167 243.656 41.4167H246.427ZM256.344 41.4167C256.706 41.4167 257 41.1229 257 40.7605V38.573C257 38.2105 256.706 37.9167 256.344 37.9167H253.573C253.21 37.9167 252.917 38.2105 252.917 38.573V40.7605C252.917 41.1229 253.21 41.4167 253.573 41.4167H256.344ZM251.385 41.4167C251.748 41.4167 252.042 41.1229 252.042 40.7605V38.573C252.042 38.2105 251.748 37.9167 251.385 37.9167H248.615C248.252 37.9167 247.958 38.2105 247.958 38.573V40.7605C247.958 41.1229 248.252 41.4167 248.615 41.4167H251.385Z" fill="#1F1F1F"/>
<g filter="url(#filter0_d_1543_56466)">
<path d="M36 59C36 55.6863 38.6863 53 42 53H262C265.314 53 268 55.6863 268 59V286C268 289.314 265.314 292 262 292H42C38.6863 292 36 289.314 36 286V59Z" fill="white"/>
<path d="M64.92 82.132C64.32 82.132 63.764 82.02 63.252 81.796C62.74 81.572 62.288 81.264 61.896 80.872C61.512 80.472 61.212 80.012 60.996 79.492C60.78 78.964 60.672 78.4 60.672 77.8C60.672 77.2 60.78 76.64 60.996 76.12C61.212 75.592 61.512 75.132 61.896 74.74C62.288 74.34 62.74 74.028 63.252 73.804C63.764 73.58 64.32 73.468 64.92 73.468C65.56 73.468 66.164 73.584 66.732 73.816C67.308 74.048 67.796 74.392 68.196 74.848L67.572 75.472C67.26 75.096 66.868 74.808 66.396 74.608C65.924 74.408 65.432 74.308 64.92 74.308C64.448 74.308 64.012 74.4 63.612 74.584C63.212 74.76 62.86 75.008 62.556 75.328C62.26 75.64 62.028 76.008 61.86 76.432C61.692 76.856 61.608 77.312 61.608 77.8C61.608 78.288 61.692 78.744 61.86 79.168C62.028 79.592 62.26 79.964 62.556 80.284C62.86 80.596 63.212 80.844 63.612 81.028C64.012 81.204 64.448 81.292 64.92 81.292C65.48 81.292 65.98 81.168 66.42 80.92C66.868 80.672 67.228 80.332 67.5 79.9C67.78 79.46 67.944 78.968 67.992 78.424H65.16V77.608H68.928V77.98C68.928 78.564 68.828 79.108 68.628 79.612C68.428 80.108 68.144 80.548 67.776 80.932C67.416 81.308 66.992 81.604 66.504 81.82C66.016 82.028 65.488 82.132 64.92 82.132ZM70.4859 82V76.144H71.3619V77.344C71.5139 76.936 71.7299 76.62 72.0099 76.396C72.2979 76.164 72.6259 76.048 72.9939 76.048C73.0979 76.048 73.1939 76.056 73.2819 76.072C73.3699 76.08 73.4579 76.1 73.5459 76.132V76.924C73.4499 76.892 73.3459 76.868 73.2339 76.852C73.1299 76.828 73.0299 76.816 72.9339 76.816C72.5739 76.816 72.2579 76.92 71.9859 77.128C71.7219 77.336 71.5139 77.628 71.3619 78.004V82H70.4859ZM76.9334 82.096C76.3894 82.096 75.9014 81.964 75.4694 81.7C75.0374 81.436 74.6974 81.076 74.4494 80.62C74.2014 80.164 74.0774 79.648 74.0774 79.072C74.0774 78.496 74.2014 77.98 74.4494 77.524C74.6974 77.068 75.0374 76.708 75.4694 76.444C75.9014 76.18 76.3894 76.048 76.9334 76.048C77.4694 76.048 77.9494 76.18 78.3734 76.444C78.8054 76.708 79.1454 77.068 79.3934 77.524C79.6414 77.98 79.7654 78.496 79.7654 79.072C79.7654 79.648 79.6414 80.164 79.3934 80.62C79.1454 81.076 78.8054 81.436 78.3734 81.7C77.9494 81.964 77.4694 82.096 76.9334 82.096ZM76.9214 81.328C77.3054 81.328 77.6454 81.232 77.9414 81.04C78.2374 80.84 78.4694 80.568 78.6374 80.224C78.8134 79.88 78.9014 79.496 78.9014 79.072C78.9014 78.64 78.8134 78.256 78.6374 77.92C78.4694 77.576 78.2374 77.308 77.9414 77.116C77.6454 76.916 77.3054 76.816 76.9214 76.816C76.5374 76.816 76.1974 76.916 75.9014 77.116C75.6054 77.308 75.3694 77.576 75.1934 77.92C75.0254 78.256 74.9414 78.64 74.9414 79.072C74.9414 79.496 75.0254 79.88 75.1934 80.224C75.3694 80.568 75.6054 80.84 75.9014 81.04C76.1974 81.232 76.5374 81.328 76.9214 81.328ZM83.3903 82.096C82.9743 82.096 82.6063 82.004 82.2863 81.82C81.9663 81.636 81.7143 81.38 81.5303 81.052C81.3543 80.724 81.2663 80.348 81.2663 79.924V76.144H82.1543V79.672C82.1543 80.192 82.2943 80.604 82.5743 80.908C82.8543 81.212 83.2343 81.364 83.7143 81.364C84.0423 81.364 84.3343 81.288 84.5903 81.136C84.8543 80.984 85.0743 80.764 85.2503 80.476V76.144H86.1263V82H85.2503V81.052C85.0263 81.396 84.7583 81.656 84.4463 81.832C84.1423 82.008 83.7903 82.096 83.3903 82.096ZM87.9234 84.508V76.144H88.7874V76.984C89.0114 76.688 89.2834 76.464 89.6034 76.312C89.9314 76.152 90.2914 76.072 90.6834 76.072C91.1954 76.072 91.6514 76.208 92.0514 76.48C92.4594 76.744 92.7834 77.104 93.0234 77.56C93.2634 78.008 93.3834 78.512 93.3834 79.072C93.3834 79.632 93.2594 80.14 93.0114 80.596C92.7714 81.052 92.4434 81.416 92.0274 81.688C91.6194 81.952 91.1554 82.084 90.6354 82.084C90.2674 82.084 89.9274 82.016 89.6154 81.88C89.3034 81.736 89.0314 81.532 88.7994 81.268V84.508H87.9234ZM90.4674 81.328C90.8594 81.328 91.2074 81.232 91.5114 81.04C91.8234 80.84 92.0674 80.572 92.2434 80.236C92.4274 79.892 92.5194 79.508 92.5194 79.084C92.5194 78.652 92.4274 78.268 92.2434 77.932C92.0674 77.596 91.8234 77.332 91.5114 77.14C91.2074 76.94 90.8594 76.84 90.4674 76.84C90.1234 76.84 89.8034 76.912 89.5074 77.056C89.2194 77.192 88.9834 77.388 88.7994 77.644V80.512C88.9914 80.768 89.2314 80.968 89.5194 81.112C89.8154 81.256 90.1314 81.328 90.4674 81.328ZM98.6563 82V74.536L97.3123 75.136V74.344L98.9803 73.6H99.5203V82H98.6563Z" fill="#4D4D4D"/>
<path d="M60.126 123L64.004 113.2H65.292L69.114 123H67.952L66.79 119.92H62.422L61.26 123H60.126ZM62.758 119.066H66.468L64.606 114.18L62.758 119.066ZM70.2922 125.926V116.168H71.3002V117.148C71.5615 116.803 71.8789 116.541 72.2522 116.364C72.6349 116.177 73.0549 116.084 73.5122 116.084C74.1095 116.084 74.6415 116.243 75.1082 116.56C75.5842 116.868 75.9622 117.288 76.2422 117.82C76.5222 118.343 76.6622 118.931 76.6622 119.584C76.6622 120.237 76.5175 120.83 76.2282 121.362C75.9482 121.894 75.5655 122.319 75.0802 122.636C74.6042 122.944 74.0629 123.098 73.4562 123.098C73.0269 123.098 72.6302 123.019 72.2662 122.86C71.9022 122.692 71.5849 122.454 71.3142 122.146V125.926H70.2922ZM73.2602 122.216C73.7175 122.216 74.1235 122.104 74.4782 121.88C74.8422 121.647 75.1269 121.334 75.3322 120.942C75.5469 120.541 75.6542 120.093 75.6542 119.598C75.6542 119.094 75.5469 118.646 75.3322 118.254C75.1269 117.862 74.8422 117.554 74.4782 117.33C74.1235 117.097 73.7175 116.98 73.2602 116.98C72.8589 116.98 72.4855 117.064 72.1402 117.232C71.8042 117.391 71.5289 117.619 71.3142 117.918V121.264C71.5382 121.563 71.8182 121.796 72.1542 121.964C72.4995 122.132 72.8682 122.216 73.2602 122.216ZM78.4543 125.926V116.168H79.4623V117.148C79.7236 116.803 80.041 116.541 80.4143 116.364C80.797 116.177 81.217 116.084 81.6743 116.084C82.2716 116.084 82.8036 116.243 83.2703 116.56C83.7463 116.868 84.1243 117.288 84.4043 117.82C84.6843 118.343 84.8243 118.931 84.8243 119.584C84.8243 120.237 84.6796 120.83 84.3903 121.362C84.1103 121.894 83.7276 122.319 83.2423 122.636C82.7663 122.944 82.225 123.098 81.6183 123.098C81.189 123.098 80.7923 123.019 80.4283 122.86C80.0643 122.692 79.747 122.454 79.4763 122.146V125.926H78.4543ZM81.4223 122.216C81.8796 122.216 82.2856 122.104 82.6403 121.88C83.0043 121.647 83.289 121.334 83.4943 120.942C83.709 120.541 83.8163 120.093 83.8163 119.598C83.8163 119.094 83.709 118.646 83.4943 118.254C83.289 117.862 83.0043 117.554 82.6403 117.33C82.2856 117.097 81.8796 116.98 81.4223 116.98C81.021 116.98 80.6476 117.064 80.3023 117.232C79.9663 117.391 79.691 117.619 79.4763 117.918V121.264C79.7003 121.563 79.9803 121.796 80.3163 121.964C80.6616 122.132 81.0303 122.216 81.4223 122.216ZM86.6164 123V112.892L87.6384 112.682V123H86.6164ZM89.7196 123V116.168H90.7416V123H89.7196ZM90.2376 114.474C90.0323 114.474 89.8549 114.404 89.7056 114.264C89.5656 114.115 89.4956 113.942 89.4956 113.746C89.4956 113.55 89.5656 113.382 89.7056 113.242C89.8549 113.093 90.0323 113.018 90.2376 113.018C90.4429 113.018 90.6156 113.093 90.7556 113.242C90.9049 113.382 90.9796 113.55 90.9796 113.746C90.9796 113.942 90.9049 114.115 90.7556 114.264C90.6156 114.404 90.4429 114.474 90.2376 114.474ZM95.9031 123.112C95.2684 123.112 94.6944 122.958 94.1811 122.65C93.6771 122.333 93.2758 121.908 92.9771 121.376C92.6784 120.835 92.5291 120.237 92.5291 119.584C92.5291 118.921 92.6784 118.324 92.9771 117.792C93.2758 117.26 93.6771 116.84 94.1811 116.532C94.6944 116.215 95.2684 116.056 95.9031 116.056C96.4071 116.056 96.8878 116.149 97.3451 116.336C97.8024 116.523 98.1991 116.784 98.5351 117.12L97.8771 117.834C97.6344 117.563 97.3404 117.353 96.9951 117.204C96.6498 117.055 96.2998 116.98 95.9451 116.98C95.4971 116.98 95.0911 117.097 94.7271 117.33C94.3724 117.563 94.0878 117.876 93.8731 118.268C93.6584 118.66 93.5511 119.099 93.5511 119.584C93.5511 120.069 93.6584 120.508 93.8731 120.9C94.0878 121.292 94.3724 121.605 94.7271 121.838C95.0911 122.071 95.4971 122.188 95.9451 122.188C96.2998 122.188 96.6498 122.113 96.9951 121.964C97.3404 121.805 97.6344 121.595 97.8771 121.334L98.5351 122.048C98.1991 122.384 97.8024 122.645 97.3451 122.832C96.8878 123.019 96.4071 123.112 95.9031 123.112ZM102.074 123.126C101.589 123.126 101.159 123.037 100.786 122.86C100.413 122.683 100.119 122.44 99.9042 122.132C99.6988 121.815 99.5962 121.451 99.5962 121.04C99.5962 120.629 99.7035 120.275 99.9182 119.976C100.133 119.668 100.431 119.43 100.814 119.262C101.197 119.094 101.645 119.01 102.158 119.01C102.55 119.01 102.919 119.052 103.264 119.136C103.619 119.22 103.945 119.355 104.244 119.542V118.604C104.244 118.044 104.095 117.624 103.796 117.344C103.497 117.055 103.059 116.91 102.48 116.91C102.163 116.91 101.836 116.957 101.5 117.05C101.173 117.143 100.809 117.293 100.408 117.498L100.03 116.714C100.945 116.275 101.803 116.056 102.606 116.056C103.455 116.056 104.109 116.266 104.566 116.686C105.023 117.097 105.252 117.689 105.252 118.464V123H104.244V122.202C103.945 122.51 103.614 122.743 103.25 122.902C102.886 123.051 102.494 123.126 102.074 123.126ZM100.576 121.012C100.576 121.413 100.73 121.735 101.038 121.978C101.355 122.221 101.771 122.342 102.284 122.342C102.667 122.342 103.017 122.277 103.334 122.146C103.661 122.015 103.964 121.819 104.244 121.558V120.242C103.955 120.074 103.656 119.953 103.348 119.878C103.04 119.794 102.695 119.752 102.312 119.752C101.789 119.752 101.369 119.869 101.052 120.102C100.735 120.326 100.576 120.629 100.576 121.012ZM109.728 123.14C109.14 123.14 108.692 123 108.384 122.72C108.086 122.431 107.936 122.015 107.936 121.474V117.008H106.522V116.168H107.936V114.292L108.958 114.054V116.168H110.918V117.008H108.958V121.208C108.958 121.572 109.033 121.833 109.182 121.992C109.341 122.151 109.598 122.23 109.952 122.23C110.13 122.23 110.288 122.216 110.428 122.188C110.568 122.16 110.732 122.113 110.918 122.048V122.958C110.732 123.023 110.536 123.07 110.33 123.098C110.125 123.126 109.924 123.14 109.728 123.14ZM112.401 123V116.168H113.423V123H112.401ZM112.919 114.474C112.714 114.474 112.537 114.404 112.387 114.264C112.247 114.115 112.177 113.942 112.177 113.746C112.177 113.55 112.247 113.382 112.387 113.242C112.537 113.093 112.714 113.018 112.919 113.018C113.125 113.018 113.297 113.093 113.437 113.242C113.587 113.382 113.661 113.55 113.661 113.746C113.661 113.942 113.587 114.115 113.437 114.264C113.297 114.404 113.125 114.474 112.919 114.474ZM118.543 123.112C117.908 123.112 117.339 122.958 116.835 122.65C116.331 122.342 115.934 121.922 115.645 121.39C115.355 120.858 115.211 120.256 115.211 119.584C115.211 118.912 115.355 118.31 115.645 117.778C115.934 117.246 116.331 116.826 116.835 116.518C117.339 116.21 117.908 116.056 118.543 116.056C119.168 116.056 119.728 116.21 120.223 116.518C120.727 116.826 121.123 117.246 121.413 117.778C121.702 118.31 121.847 118.912 121.847 119.584C121.847 120.256 121.702 120.858 121.413 121.39C121.123 121.922 120.727 122.342 120.223 122.65C119.728 122.958 119.168 123.112 118.543 123.112ZM118.529 122.216C118.977 122.216 119.373 122.104 119.719 121.88C120.064 121.647 120.335 121.329 120.531 120.928C120.736 120.527 120.839 120.079 120.839 119.584C120.839 119.08 120.736 118.632 120.531 118.24C120.335 117.839 120.064 117.526 119.719 117.302C119.373 117.069 118.977 116.952 118.529 116.952C118.081 116.952 117.684 117.069 117.339 117.302C116.993 117.526 116.718 117.839 116.513 118.24C116.317 118.632 116.219 119.08 116.219 119.584C116.219 120.079 116.317 120.527 116.513 120.928C116.718 121.329 116.993 121.647 117.339 121.88C117.684 122.104 118.081 122.216 118.529 122.216ZM123.64 123V116.168H124.662V117.274C124.923 116.863 125.236 116.56 125.6 116.364C125.964 116.159 126.375 116.056 126.832 116.056C127.327 116.056 127.756 116.163 128.12 116.378C128.493 116.583 128.783 116.877 128.988 117.26C129.203 117.633 129.31 118.072 129.31 118.576V123H128.288V118.87C128.288 118.263 128.12 117.787 127.784 117.442C127.457 117.087 127.014 116.91 126.454 116.91C126.081 116.91 125.74 116.999 125.432 117.176C125.124 117.353 124.867 117.615 124.662 117.96V123H123.64ZM135.724 123V114.292L134.156 114.992V114.068L136.102 113.2H136.732V123H135.724Z" fill="#151515"/>
<path fill-rule="evenodd" clip-rule="evenodd" d="M226.776 121.502C226.927 121.502 227.135 121.415 227.241 121.309L233.902 114.645L234.879 115.621C235.289 116.031 236 115.744 236 115.156V111.656C236 111.294 235.706 111 235.344 111H231.844C231.259 111 230.967 111.708 231.379 112.121L232.356 113.098L225.691 119.76C225.585 119.866 225.498 120.075 225.498 120.225C225.498 120.375 225.585 120.584 225.691 120.69L226.311 121.309C226.417 121.415 226.626 121.502 226.776 121.502ZM232.937 125C233.662 125 234.25 124.412 234.25 123.687V120.187C234.25 119.946 234.054 119.75 233.812 119.75H232.937C232.696 119.75 232.5 119.946 232.5 120.187V123.25H223.75V114.5H227.687C227.929 114.5 228.125 114.304 228.125 114.062V113.187C228.125 112.946 227.929 112.75 227.687 112.75H223.312C222.588 112.75 222 113.338 222 114.062V123.687C222 124.412 222.588 125 223.312 125H232.937Z" fill="#1F1F1F"/>
<rect width="232" height="1" transform="translate(36 149)" fill="#C7C7C7"/>
<path d="M64.92 179.132C64.32 179.132 63.764 179.02 63.252 178.796C62.74 178.572 62.288 178.264 61.896 177.872C61.512 177.472 61.212 177.012 60.996 176.492C60.78 175.964 60.672 175.4 60.672 174.8C60.672 174.2 60.78 173.64 60.996 173.12C61.212 172.592 61.512 172.132 61.896 171.74C62.288 171.34 62.74 171.028 63.252 170.804C63.764 170.58 64.32 170.468 64.92 170.468C65.56 170.468 66.164 170.584 66.732 170.816C67.308 171.048 67.796 171.392 68.196 171.848L67.572 172.472C67.26 172.096 66.868 171.808 66.396 171.608C65.924 171.408 65.432 171.308 64.92 171.308C64.448 171.308 64.012 171.4 63.612 171.584C63.212 171.76 62.86 172.008 62.556 172.328C62.26 172.64 62.028 173.008 61.86 173.432C61.692 173.856 61.608 174.312 61.608 174.8C61.608 175.288 61.692 175.744 61.86 176.168C62.028 176.592 62.26 176.964 62.556 177.284C62.86 177.596 63.212 177.844 63.612 178.028C64.012 178.204 64.448 178.292 64.92 178.292C65.48 178.292 65.98 178.168 66.42 177.92C66.868 177.672 67.228 177.332 67.5 176.9C67.78 176.46 67.944 175.968 67.992 175.424H65.16V174.608H68.928V174.98C68.928 175.564 68.828 176.108 68.628 176.612C68.428 177.108 68.144 177.548 67.776 177.932C67.416 178.308 66.992 178.604 66.504 178.82C66.016 179.028 65.488 179.132 64.92 179.132ZM70.4859 179V173.144H71.3619V174.344C71.5139 173.936 71.7299 173.62 72.0099 173.396C72.2979 173.164 72.6259 173.048 72.9939 173.048C73.0979 173.048 73.1939 173.056 73.2819 173.072C73.3699 173.08 73.4579 173.1 73.5459 173.132V173.924C73.4499 173.892 73.3459 173.868 73.2339 173.852C73.1299 173.828 73.0299 173.816 72.9339 173.816C72.5739 173.816 72.2579 173.92 71.9859 174.128C71.7219 174.336 71.5139 174.628 71.3619 175.004V179H70.4859ZM76.9334 179.096C76.3894 179.096 75.9014 178.964 75.4694 178.7C75.0374 178.436 74.6974 178.076 74.4494 177.62C74.2014 177.164 74.0774 176.648 74.0774 176.072C74.0774 175.496 74.2014 174.98 74.4494 174.524C74.6974 174.068 75.0374 173.708 75.4694 173.444C75.9014 173.18 76.3894 173.048 76.9334 173.048C77.4694 173.048 77.9494 173.18 78.3734 173.444C78.8054 173.708 79.1454 174.068 79.3934 174.524C79.6414 174.98 79.7654 175.496 79.7654 176.072C79.7654 176.648 79.6414 177.164 79.3934 177.62C79.1454 178.076 78.8054 178.436 78.3734 178.7C77.9494 178.964 77.4694 179.096 76.9334 179.096ZM76.9214 178.328C77.3054 178.328 77.6454 178.232 77.9414 178.04C78.2374 177.84 78.4694 177.568 78.6374 177.224C78.8134 176.88 78.9014 176.496 78.9014 176.072C78.9014 175.64 78.8134 175.256 78.6374 174.92C78.4694 174.576 78.2374 174.308 77.9414 174.116C77.6454 173.916 77.3054 173.816 76.9214 173.816C76.5374 173.816 76.1974 173.916 75.9014 174.116C75.6054 174.308 75.3694 174.576 75.1934 174.92C75.0254 175.256 74.9414 175.64 74.9414 176.072C74.9414 176.496 75.0254 176.88 75.1934 177.224C75.3694 177.568 75.6054 177.84 75.9014 178.04C76.1974 178.232 76.5374 178.328 76.9214 178.328ZM83.3903 179.096C82.9743 179.096 82.6063 179.004 82.2863 178.82C81.9663 178.636 81.7143 178.38 81.5303 178.052C81.3543 177.724 81.2663 177.348 81.2663 176.924V173.144H82.1543V176.672C82.1543 177.192 82.2943 177.604 82.5743 177.908C82.8543 178.212 83.2343 178.364 83.7143 178.364C84.0423 178.364 84.3343 178.288 84.5903 178.136C84.8543 177.984 85.0743 177.764 85.2503 177.476V173.144H86.1263V179H85.2503V178.052C85.0263 178.396 84.7583 178.656 84.4463 178.832C84.1423 179.008 83.7903 179.096 83.3903 179.096ZM87.9234 181.508V173.144H88.7874V173.984C89.0114 173.688 89.2834 173.464 89.6034 173.312C89.9314 173.152 90.2914 173.072 90.6834 173.072C91.1954 173.072 91.6514 173.208 92.0514 173.48C92.4594 173.744 92.7834 174.104 93.0234 174.56C93.2634 175.008 93.3834 175.512 93.3834 176.072C93.3834 176.632 93.2594 177.14 93.0114 177.596C92.7714 178.052 92.4434 178.416 92.0274 178.688C91.6194 178.952 91.1554 179.084 90.6354 179.084C90.2674 179.084 89.9274 179.016 89.6154 178.88C89.3034 178.736 89.0314 178.532 88.7994 178.268V181.508H87.9234ZM90.4674 178.328C90.8594 178.328 91.2074 178.232 91.5114 178.04C91.8234 177.84 92.0674 177.572 92.2434 177.236C92.4274 176.892 92.5194 176.508 92.5194 176.084C92.5194 175.652 92.4274 175.268 92.2434 174.932C92.0674 174.596 91.8234 174.332 91.5114 174.14C91.2074 173.94 90.8594 173.84 90.4674 173.84C90.1234 173.84 89.8034 173.912 89.5074 174.056C89.2194 174.192 88.9834 174.388 88.7994 174.644V177.512C88.9914 177.768 89.2314 177.968 89.5194 178.112C89.8154 178.256 90.1314 178.328 90.4674 178.328ZM97.4323 179V178.364L100.792 174.692C101.056 174.404 101.26 174.152 101.404 173.936C101.556 173.712 101.66 173.504 101.716 173.312C101.78 173.12 101.812 172.916 101.812 172.7C101.812 172.276 101.644 171.928 101.308 171.656C100.98 171.376 100.56 171.236 100.048 171.236C99.6563 171.236 99.2923 171.312 98.9563 171.464C98.6203 171.616 98.2443 171.88 97.8283 172.256L97.3243 171.656C97.7643 171.256 98.2083 170.96 98.6563 170.768C99.1043 170.568 99.5723 170.468 100.06 170.468C100.564 170.468 101.012 170.564 101.404 170.756C101.796 170.94 102.104 171.196 102.328 171.524C102.552 171.852 102.664 172.228 102.664 172.652C102.664 172.932 102.628 173.192 102.556 173.432C102.484 173.664 102.356 173.916 102.172 174.188C101.988 174.452 101.724 174.772 101.38 175.148L98.5123 178.256L102.844 178.244V179H97.4323Z" fill="#4D4D4D"/>
<path d="M60.126 220L64.004 210.2H65.292L69.114 220H67.952L66.79 216.92H62.422L61.26 220H60.126ZM62.758 216.066H66.468L64.606 211.18L62.758 216.066ZM70.2922 222.926V213.168H71.3002V214.148C71.5615 213.803 71.8789 213.541 72.2522 213.364C72.6349 213.177 73.0549 213.084 73.5122 213.084C74.1095 213.084 74.6415 213.243 75.1082 213.56C75.5842 213.868 75.9622 214.288 76.2422 214.82C76.5222 215.343 76.6622 215.931 76.6622 216.584C76.6622 217.237 76.5175 217.83 76.2282 218.362C75.9482 218.894 75.5655 219.319 75.0802 219.636C74.6042 219.944 74.0629 220.098 73.4562 220.098C73.0269 220.098 72.6302 220.019 72.2662 219.86C71.9022 219.692 71.5849 219.454 71.3142 219.146V222.926H70.2922ZM73.2602 219.216C73.7175 219.216 74.1235 219.104 74.4782 218.88C74.8422 218.647 75.1269 218.334 75.3322 217.942C75.5469 217.541 75.6542 217.093 75.6542 216.598C75.6542 216.094 75.5469 215.646 75.3322 215.254C75.1269 214.862 74.8422 214.554 74.4782 214.33C74.1235 214.097 73.7175 213.98 73.2602 213.98C72.8589 213.98 72.4855 214.064 72.1402 214.232C71.8042 214.391 71.5289 214.619 71.3142 214.918V218.264C71.5382 218.563 71.8182 218.796 72.1542 218.964C72.4995 219.132 72.8682 219.216 73.2602 219.216ZM78.4543 222.926V213.168H79.4623V214.148C79.7236 213.803 80.041 213.541 80.4143 213.364C80.797 213.177 81.217 213.084 81.6743 213.084C82.2716 213.084 82.8036 213.243 83.2703 213.56C83.7463 213.868 84.1243 214.288 84.4043 214.82C84.6843 215.343 84.8243 215.931 84.8243 216.584C84.8243 217.237 84.6796 217.83 84.3903 218.362C84.1103 218.894 83.7276 219.319 83.2423 219.636C82.7663 219.944 82.225 220.098 81.6183 220.098C81.189 220.098 80.7923 220.019 80.4283 219.86C80.0643 219.692 79.747 219.454 79.4763 219.146V222.926H78.4543ZM81.4223 219.216C81.8796 219.216 82.2856 219.104 82.6403 218.88C83.0043 218.647 83.289 218.334 83.4943 217.942C83.709 217.541 83.8163 217.093 83.8163 216.598C83.8163 216.094 83.709 215.646 83.4943 215.254C83.289 214.862 83.0043 214.554 82.6403 214.33C82.2856 214.097 81.8796 213.98 81.4223 213.98C81.021 213.98 80.6476 214.064 80.3023 214.232C79.9663 214.391 79.691 214.619 79.4763 214.918V218.264C79.7003 218.563 79.9803 218.796 80.3163 218.964C80.6616 219.132 81.0303 219.216 81.4223 219.216ZM86.6164 220V209.892L87.6384 209.682V220H86.6164ZM89.7196 220V213.168H90.7416V220H89.7196ZM90.2376 211.474C90.0323 211.474 89.8549 211.404 89.7056 211.264C89.5656 211.115 89.4956 210.942 89.4956 210.746C89.4956 210.55 89.5656 210.382 89.7056 210.242C89.8549 210.093 90.0323 210.018 90.2376 210.018C90.4429 210.018 90.6156 210.093 90.7556 210.242C90.9049 210.382 90.9796 210.55 90.9796 210.746C90.9796 210.942 90.9049 211.115 90.7556 211.264C90.6156 211.404 90.4429 211.474 90.2376 211.474ZM95.9031 220.112C95.2684 220.112 94.6944 219.958 94.1811 219.65C93.6771 219.333 93.2758 218.908 92.9771 218.376C92.6784 217.835 92.5291 217.237 92.5291 216.584C92.5291 215.921 92.6784 215.324 92.9771 214.792C93.2758 214.26 93.6771 213.84 94.1811 213.532C94.6944 213.215 95.2684 213.056 95.9031 213.056C96.4071 213.056 96.8878 213.149 97.3451 213.336C97.8024 213.523 98.1991 213.784 98.5351 214.12L97.8771 214.834C97.6344 214.563 97.3404 214.353 96.9951 214.204C96.6498 214.055 96.2998 213.98 95.9451 213.98C95.4971 213.98 95.0911 214.097 94.7271 214.33C94.3724 214.563 94.0878 214.876 93.8731 215.268C93.6584 215.66 93.5511 216.099 93.5511 216.584C93.5511 217.069 93.6584 217.508 93.8731 217.9C94.0878 218.292 94.3724 218.605 94.7271 218.838C95.0911 219.071 95.4971 219.188 95.9451 219.188C96.2998 219.188 96.6498 219.113 96.9951 218.964C97.3404 218.805 97.6344 218.595 97.8771 218.334L98.5351 219.048C98.1991 219.384 97.8024 219.645 97.3451 219.832C96.8878 220.019 96.4071 220.112 95.9031 220.112ZM102.074 220.126C101.589 220.126 101.159 220.037 100.786 219.86C100.413 219.683 100.119 219.44 99.9042 219.132C99.6988 218.815 99.5962 218.451 99.5962 218.04C99.5962 217.629 99.7035 217.275 99.9182 216.976C100.133 216.668 100.431 216.43 100.814 216.262C101.197 216.094 101.645 216.01 102.158 216.01C102.55 216.01 102.919 216.052 103.264 216.136C103.619 216.22 103.945 216.355 104.244 216.542V215.604C104.244 215.044 104.095 214.624 103.796 214.344C103.497 214.055 103.059 213.91 102.48 213.91C102.163 213.91 101.836 213.957 101.5 214.05C101.173 214.143 100.809 214.293 100.408 214.498L100.03 213.714C100.945 213.275 101.803 213.056 102.606 213.056C103.455 213.056 104.109 213.266 104.566 213.686C105.023 214.097 105.252 214.689 105.252 215.464V220H104.244V219.202C103.945 219.51 103.614 219.743 103.25 219.902C102.886 220.051 102.494 220.126 102.074 220.126ZM100.576 218.012C100.576 218.413 100.73 218.735 101.038 218.978C101.355 219.221 101.771 219.342 102.284 219.342C102.667 219.342 103.017 219.277 103.334 219.146C103.661 219.015 103.964 218.819 104.244 218.558V217.242C103.955 217.074 103.656 216.953 103.348 216.878C103.04 216.794 102.695 216.752 102.312 216.752C101.789 216.752 101.369 216.869 101.052 217.102C100.735 217.326 100.576 217.629 100.576 218.012ZM109.728 220.14C109.14 220.14 108.692 220 108.384 219.72C108.086 219.431 107.936 219.015 107.936 218.474V214.008H106.522V213.168H107.936V211.292L108.958 211.054V213.168H110.918V214.008H108.958V218.208C108.958 218.572 109.033 218.833 109.182 218.992C109.341 219.151 109.598 219.23 109.952 219.23C110.13 219.23 110.288 219.216 110.428 219.188C110.568 219.16 110.732 219.113 110.918 219.048V219.958C110.732 220.023 110.536 220.07 110.33 220.098C110.125 220.126 109.924 220.14 109.728 220.14ZM112.401 220V213.168H113.423V220H112.401ZM112.919 211.474C112.714 211.474 112.537 211.404 112.387 211.264C112.247 211.115 112.177 210.942 112.177 210.746C112.177 210.55 112.247 210.382 112.387 210.242C112.537 210.093 112.714 210.018 112.919 210.018C113.125 210.018 113.297 210.093 113.437 210.242C113.587 210.382 113.661 210.55 113.661 210.746C113.661 210.942 113.587 211.115 113.437 211.264C113.297 211.404 113.125 211.474 112.919 211.474ZM118.543 220.112C117.908 220.112 117.339 219.958 116.835 219.65C116.331 219.342 115.934 218.922 115.645 218.39C115.355 217.858 115.211 217.256 115.211 216.584C115.211 215.912 115.355 215.31 115.645 214.778C115.934 214.246 116.331 213.826 116.835 213.518C117.339 213.21 117.908 213.056 118.543 213.056C119.168 213.056 119.728 213.21 120.223 213.518C120.727 213.826 121.123 214.246 121.413 214.778C121.702 215.31 121.847 215.912 121.847 216.584C121.847 217.256 121.702 217.858 121.413 218.39C121.123 218.922 120.727 219.342 120.223 219.65C119.728 219.958 119.168 220.112 118.543 220.112ZM118.529 219.216C118.977 219.216 119.373 219.104 119.719 218.88C120.064 218.647 120.335 218.329 120.531 217.928C120.736 217.527 120.839 217.079 120.839 216.584C120.839 216.08 120.736 215.632 120.531 215.24C120.335 214.839 120.064 214.526 119.719 214.302C119.373 214.069 118.977 213.952 118.529 213.952C118.081 213.952 117.684 214.069 117.339 214.302C116.993 214.526 116.718 214.839 116.513 215.24C116.317 215.632 116.219 216.08 116.219 216.584C116.219 217.079 116.317 217.527 116.513 217.928C116.718 218.329 116.993 218.647 117.339 218.88C117.684 219.104 118.081 219.216 118.529 219.216ZM123.64 220V213.168H124.662V214.274C124.923 213.863 125.236 213.56 125.6 213.364C125.964 213.159 126.375 213.056 126.832 213.056C127.327 213.056 127.756 213.163 128.12 213.378C128.493 213.583 128.783 213.877 128.988 214.26C129.203 214.633 129.31 215.072 129.31 215.576V220H128.288V215.87C128.288 215.263 128.12 214.787 127.784 214.442C127.457 214.087 127.014 213.91 126.454 213.91C126.081 213.91 125.74 213.999 125.432 214.176C125.124 214.353 124.867 214.615 124.662 214.96V220H123.64ZM135.724 220V211.292L134.156 211.992V211.068L136.102 210.2H136.732V220H135.724Z" fill="#151515"/>
<path fill-rule="evenodd" clip-rule="evenodd" d="M226.776 218.502C226.927 218.502 227.135 218.415 227.241 218.309L233.902 211.645L234.879 212.621C235.289 213.031 236 212.744 236 212.156V208.656C236 208.294 235.706 208 235.344 208H231.844C231.259 208 230.967 208.708 231.379 209.121L232.356 210.098L225.691 216.76C225.585 216.866 225.498 217.075 225.498 217.225C225.498 217.375 225.585 217.584 225.691 217.69L226.311 218.309C226.417 218.415 226.626 218.502 226.776 218.502ZM232.937 222C233.662 222 234.25 221.412 234.25 220.687V217.187C234.25 216.946 234.054 216.75 233.812 216.75H232.937C232.696 216.75 232.5 216.946 232.5 217.187V220.25H223.75V211.5H227.687C227.929 211.5 228.125 211.304 228.125 211.062V210.187C228.125 209.946 227.929 209.75 227.687 209.75H223.312C222.588 209.75 222 210.338 222 211.062V220.687C222 221.412 222.588 222 223.312 222H232.937Z" fill="#1F1F1F"/>
<path d="M60.126 266L64.004 256.2H65.292L69.114 266H67.952L66.79 262.92H62.422L61.26 266H60.126ZM62.758 262.066H66.468L64.606 257.18L62.758 262.066ZM70.2922 268.926V259.168H71.3002V260.148C71.5615 259.803 71.8789 259.541 72.2522 259.364C72.6349 259.177 73.0549 259.084 73.5122 259.084C74.1095 259.084 74.6415 259.243 75.1082 259.56C75.5842 259.868 75.9622 260.288 76.2422 260.82C76.5222 261.343 76.6622 261.931 76.6622 262.584C76.6622 263.237 76.5175 263.83 76.2282 264.362C75.9482 264.894 75.5655 265.319 75.0802 265.636C74.6042 265.944 74.0629 266.098 73.4562 266.098C73.0269 266.098 72.6302 266.019 72.2662 265.86C71.9022 265.692 71.5849 265.454 71.3142 265.146V268.926H70.2922ZM73.2602 265.216C73.7175 265.216 74.1235 265.104 74.4782 264.88C74.8422 264.647 75.1269 264.334 75.3322 263.942C75.5469 263.541 75.6542 263.093 75.6542 262.598C75.6542 262.094 75.5469 261.646 75.3322 261.254C75.1269 260.862 74.8422 260.554 74.4782 260.33C74.1235 260.097 73.7175 259.98 73.2602 259.98C72.8589 259.98 72.4855 260.064 72.1402 260.232C71.8042 260.391 71.5289 260.619 71.3142 260.918V264.264C71.5382 264.563 71.8182 264.796 72.1542 264.964C72.4995 265.132 72.8682 265.216 73.2602 265.216ZM78.4543 268.926V259.168H79.4623V260.148C79.7236 259.803 80.041 259.541 80.4143 259.364C80.797 259.177 81.217 259.084 81.6743 259.084C82.2716 259.084 82.8036 259.243 83.2703 259.56C83.7463 259.868 84.1243 260.288 84.4043 260.82C84.6843 261.343 84.8243 261.931 84.8243 262.584C84.8243 263.237 84.6796 263.83 84.3903 264.362C84.1103 264.894 83.7276 265.319 83.2423 265.636C82.7663 265.944 82.225 266.098 81.6183 266.098C81.189 266.098 80.7923 266.019 80.4283 265.86C80.0643 265.692 79.747 265.454 79.4763 265.146V268.926H78.4543ZM81.4223 265.216C81.8796 265.216 82.2856 265.104 82.6403 264.88C83.0043 264.647 83.289 264.334 83.4943 263.942C83.709 263.541 83.8163 263.093 83.8163 262.598C83.8163 262.094 83.709 261.646 83.4943 261.254C83.289 260.862 83.0043 260.554 82.6403 260.33C82.2856 260.097 81.8796 259.98 81.4223 259.98C81.021 259.98 80.6476 260.064 80.3023 260.232C79.9663 260.391 79.691 260.619 79.4763 260.918V264.264C79.7003 264.563 79.9803 264.796 80.3163 264.964C80.6616 265.132 81.0303 265.216 81.4223 265.216ZM86.6164 266V255.892L87.6384 255.682V266H86.6164ZM89.7196 266V259.168H90.7416V266H89.7196ZM90.2376 257.474C90.0323 257.474 89.8549 257.404 89.7056 257.264C89.5656 257.115 89.4956 256.942 89.4956 256.746C89.4956 256.55 89.5656 256.382 89.7056 256.242C89.8549 256.093 90.0323 256.018 90.2376 256.018C90.4429 256.018 90.6156 256.093 90.7556 256.242C90.9049 256.382 90.9796 256.55 90.9796 256.746C90.9796 256.942 90.9049 257.115 90.7556 257.264C90.6156 257.404 90.4429 257.474 90.2376 257.474ZM95.9031 266.112C95.2684 266.112 94.6944 265.958 94.1811 265.65C93.6771 265.333 93.2758 264.908 92.9771 264.376C92.6784 263.835 92.5291 263.237 92.5291 262.584C92.5291 261.921 92.6784 261.324 92.9771 260.792C93.2758 260.26 93.6771 259.84 94.1811 259.532C94.6944 259.215 95.2684 259.056 95.9031 259.056C96.4071 259.056 96.8878 259.149 97.3451 259.336C97.8024 259.523 98.1991 259.784 98.5351 260.12L97.8771 260.834C97.6344 260.563 97.3404 260.353 96.9951 260.204C96.6498 260.055 96.2998 259.98 95.9451 259.98C95.4971 259.98 95.0911 260.097 94.7271 260.33C94.3724 260.563 94.0878 260.876 93.8731 261.268C93.6584 261.66 93.5511 262.099 93.5511 262.584C93.5511 263.069 93.6584 263.508 93.8731 263.9C94.0878 264.292 94.3724 264.605 94.7271 264.838C95.0911 265.071 95.4971 265.188 95.9451 265.188C96.2998 265.188 96.6498 265.113 96.9951 264.964C97.3404 264.805 97.6344 264.595 97.8771 264.334L98.5351 265.048C98.1991 265.384 97.8024 265.645 97.3451 265.832C96.8878 266.019 96.4071 266.112 95.9031 266.112ZM102.074 266.126C101.589 266.126 101.159 266.037 100.786 265.86C100.413 265.683 100.119 265.44 99.9042 265.132C99.6988 264.815 99.5962 264.451 99.5962 264.04C99.5962 263.629 99.7035 263.275 99.9182 262.976C100.133 262.668 100.431 262.43 100.814 262.262C101.197 262.094 101.645 262.01 102.158 262.01C102.55 262.01 102.919 262.052 103.264 262.136C103.619 262.22 103.945 262.355 104.244 262.542V261.604C104.244 261.044 104.095 260.624 103.796 260.344C103.497 260.055 103.059 259.91 102.48 259.91C102.163 259.91 101.836 259.957 101.5 260.05C101.173 260.143 100.809 260.293 100.408 260.498L100.03 259.714C100.945 259.275 101.803 259.056 102.606 259.056C103.455 259.056 104.109 259.266 104.566 259.686C105.023 260.097 105.252 260.689 105.252 261.464V266H104.244V265.202C103.945 265.51 103.614 265.743 103.25 265.902C102.886 266.051 102.494 266.126 102.074 266.126ZM100.576 264.012C100.576 264.413 100.73 264.735 101.038 264.978C101.355 265.221 101.771 265.342 102.284 265.342C102.667 265.342 103.017 265.277 103.334 265.146C103.661 265.015 103.964 264.819 104.244 264.558V263.242C103.955 263.074 103.656 262.953 103.348 262.878C103.04 262.794 102.695 262.752 102.312 262.752C101.789 262.752 101.369 262.869 101.052 263.102C100.735 263.326 100.576 263.629 100.576 264.012ZM109.728 266.14C109.14 266.14 108.692 266 108.384 265.72C108.086 265.431 107.936 265.015 107.936 264.474V260.008H106.522V259.168H107.936V257.292L108.958 257.054V259.168H110.918V260.008H108.958V264.208C108.958 264.572 109.033 264.833 109.182 264.992C109.341 265.151 109.598 265.23 109.952 265.23C110.13 265.23 110.288 265.216 110.428 265.188C110.568 265.16 110.732 265.113 110.918 265.048V265.958C110.732 266.023 110.536 266.07 110.33 266.098C110.125 266.126 109.924 266.14 109.728 266.14ZM112.401 266V259.168H113.423V266H112.401ZM112.919 257.474C112.714 257.474 112.537 257.404 112.387 257.264C112.247 257.115 112.177 256.942 112.177 256.746C112.177 256.55 112.247 256.382 112.387 256.242C112.537 256.093 112.714 256.018 112.919 256.018C113.125 256.018 113.297 256.093 113.437 256.242C113.587 256.382 113.661 256.55 113.661 256.746C113.661 256.942 113.587 257.115 113.437 257.264C113.297 257.404 113.125 257.474 112.919 257.474ZM118.543 266.112C117.908 266.112 117.339 265.958 116.835 265.65C116.331 265.342 115.934 264.922 115.645 264.39C115.355 263.858 115.211 263.256 115.211 262.584C115.211 261.912 115.355 261.31 115.645 260.778C115.934 260.246 116.331 259.826 116.835 259.518C117.339 259.21 117.908 259.056 118.543 259.056C119.168 259.056 119.728 259.21 120.223 259.518C120.727 259.826 121.123 260.246 121.413 260.778C121.702 261.31 121.847 261.912 121.847 262.584C121.847 263.256 121.702 263.858 121.413 264.39C121.123 264.922 120.727 265.342 120.223 265.65C119.728 265.958 119.168 266.112 118.543 266.112ZM118.529 265.216C118.977 265.216 119.373 265.104 119.719 264.88C120.064 264.647 120.335 264.329 120.531 263.928C120.736 263.527 120.839 263.079 120.839 262.584C120.839 262.08 120.736 261.632 120.531 261.24C120.335 260.839 120.064 260.526 119.719 260.302C119.373 260.069 118.977 259.952 118.529 259.952C118.081 259.952 117.684 260.069 117.339 260.302C116.993 260.526 116.718 260.839 116.513 261.24C116.317 261.632 116.219 262.08 116.219 262.584C116.219 263.079 116.317 263.527 116.513 263.928C116.718 264.329 116.993 264.647 117.339 264.88C117.684 265.104 118.081 265.216 118.529 265.216ZM123.64 266V259.168H124.662V260.274C124.923 259.863 125.236 259.56 125.6 259.364C125.964 259.159 126.375 259.056 126.832 259.056C127.327 259.056 127.756 259.163 128.12 259.378C128.493 259.583 128.783 259.877 128.988 260.26C129.203 260.633 129.31 261.072 129.31 261.576V266H128.288V261.87C128.288 261.263 128.12 260.787 127.784 260.442C127.457 260.087 127.014 259.91 126.454 259.91C126.081 259.91 125.74 259.999 125.432 260.176C125.124 260.353 124.867 260.615 124.662 260.96V266H123.64ZM134.296 266V265.258L138.216 260.974C138.524 260.638 138.762 260.344 138.93 260.092C139.107 259.831 139.229 259.588 139.294 259.364C139.369 259.14 139.406 258.902 139.406 258.65C139.406 258.155 139.21 257.749 138.818 257.432C138.435 257.105 137.945 256.942 137.348 256.942C136.891 256.942 136.466 257.031 136.074 257.208C135.682 257.385 135.243 257.693 134.758 258.132L134.17 257.432C134.683 256.965 135.201 256.62 135.724 256.396C136.247 256.163 136.793 256.046 137.362 256.046C137.95 256.046 138.473 256.158 138.93 256.382C139.387 256.597 139.747 256.895 140.008 257.278C140.269 257.661 140.4 258.099 140.4 258.594C140.4 258.921 140.358 259.224 140.274 259.504C140.19 259.775 140.041 260.069 139.826 260.386C139.611 260.694 139.303 261.067 138.902 261.506L135.556 265.132L140.61 265.118V266H134.296Z" fill="#151515"/>
<path fill-rule="evenodd" clip-rule="evenodd" d="M226.776 264.502C226.927 264.502 227.135 264.415 227.241 264.309L233.902 257.645L234.879 258.621C235.289 259.031 236 258.744 236 258.156V254.656C236 254.294 235.706 254 235.344 254H231.844C231.259 254 230.967 254.708 231.379 255.121L232.356 256.098L225.691 262.76C225.585 262.866 225.498 263.075 225.498 263.225C225.498 263.375 225.585 263.584 225.691 263.69L226.311 264.309C226.417 264.415 226.626 264.502 226.776 264.502ZM232.937 268C233.662 268 234.25 267.412 234.25 266.687V263.187C234.25 262.946 234.054 262.75 233.812 262.75H232.937C232.696 262.75 232.5 262.946 232.5 263.187V266.25H223.75V257.5H227.687C227.929 257.5 228.125 257.304 228.125 257.062V256.187C228.125 255.946 227.929 255.75 227.687 255.75H223.312C222.588 255.75 222 256.338 222 257.062V266.687C222 267.412 222.588 268 223.312 268H232.937Z" fill="#1F1F1F"/>
</g>
<rect width="292" height="69" transform="translate(362)" fill="#F2F2F2"/>
<path d="M599 16.5H624C627.038 16.5 629.5 18.9624 629.5 22V47C629.5 50.0376 627.038 52.5 624 52.5H599C595.962 52.5 593.5 50.0376 593.5 47V22C593.5 18.9624 595.962 16.5 599 16.5Z" fill="white"/>
<path d="M599 16.5H624C627.038 16.5 629.5 18.9624 629.5 22V47C629.5 50.0376 627.038 52.5 624 52.5H599C595.962 52.5 593.5 50.0376 593.5 47V22C593.5 18.9624 595.962 16.5 599 16.5Z" stroke="#C7C7C7"/>
<path fill-rule="evenodd" clip-rule="evenodd" d="M608.427 32.6667C608.79 32.6667 609.083 32.3729 609.083 32.0105V29.823C609.083 29.4606 608.79 29.1667 608.427 29.1667H605.656C605.294 29.1667 605 29.4606 605 29.823V32.0105C605 32.3729 605.294 32.6667 605.656 32.6667H608.427ZM618.344 32.6667C618.706 32.6667 619 32.3729 619 32.0105V29.823C619 29.4606 618.706 29.1667 618.344 29.1667H615.573C615.21 29.1667 614.917 29.4606 614.917 29.823V32.0105C614.917 32.3729 615.21 32.6667 615.573 32.6667H618.344ZM613.385 32.6667C613.748 32.6667 614.042 32.3729 614.042 32.0105V29.823C614.042 29.4606 613.748 29.1667 613.385 29.1667H610.615C610.252 29.1667 609.958 29.4606 609.958 29.823V32.0105C609.958 32.3729 610.252 32.6667 610.615 32.6667H613.385ZM613.385 37.0417C613.748 37.0417 614.042 36.7479 614.042 36.3855V34.198C614.042 33.8355 613.748 33.5417 613.385 33.5417H610.615C610.252 33.5417 609.958 33.8355 609.958 34.198V36.3855C609.958 36.7479 610.252 37.0417 610.615 37.0417H613.385ZM608.427 37.0417C608.79 37.0417 609.083 36.7479 609.083 36.3855V34.198C609.083 33.8355 608.79 33.5417 608.427 33.5417H605.656C605.294 33.5417 605 33.8355 605 34.198V36.3855C605 36.7479 605.294 37.0417 605.656 37.0417H608.427ZM618.344 37.0417C618.706 37.0417 619 36.7479 619 36.3855V34.198C619 33.8355 618.706 33.5417 618.344 33.5417H615.573C615.21 33.5417 614.917 33.8355 614.917 34.198V36.3855C614.917 36.7479 615.21 37.0417 615.573 37.0417H618.344ZM608.427 41.4167C608.79 41.4167 609.083 41.1229 609.083 40.7605V38.573C609.083 38.2105 608.79 37.9167 608.427 37.9167H605.656C605.294 37.9167 605 38.2105 605 38.573V40.7605C605 41.1229 605.294 41.4167 605.656 41.4167H608.427ZM618.344 41.4167C618.706 41.4167 619 41.1229 619 40.7605V38.573C619 38.2105 618.706 37.9167 618.344 37.9167H615.573C615.21 37.9167 614.917 38.2105 614.917 38.573V40.7605C614.917 41.1229 615.21 41.4167 615.573 41.4167H618.344ZM613.385 41.4167C613.748 41.4167 614.042 41.1229 614.042 40.7605V38.573C614.042 38.2105 613.748 37.9167 613.385 37.9167H610.615C610.252 37.9167 609.958 38.2105 609.958 38.573V40.7605C609.958 41.1229 610.252 41.4167 610.615 41.4167H613.385Z" fill="#1F1F1F"/>
<g filter="url(#filter1_d_1543_56466)">
<path d="M397 59C397 55.6863 399.686 53 403 53H624C627.314 53 630 55.6863 630 59V383C630 386.314 627.314 389 624 389H403C399.686 389 397 386.314 397 383V59Z" fill="white"/>
<path d="M422.068 82V73.6H427.804V74.416H422.992V77.416H426.28V78.22H422.992V82H422.068ZM430.251 82.108C429.835 82.108 429.467 82.032 429.147 81.88C428.827 81.728 428.575 81.52 428.391 81.256C428.215 80.984 428.127 80.672 428.127 80.32C428.127 79.968 428.219 79.664 428.403 79.408C428.587 79.144 428.843 78.94 429.171 78.796C429.499 78.652 429.883 78.58 430.323 78.58C430.659 78.58 430.975 78.616 431.271 78.688C431.575 78.76 431.855 78.876 432.111 79.036V78.232C432.111 77.752 431.983 77.392 431.727 77.152C431.471 76.904 431.095 76.78 430.599 76.78C430.327 76.78 430.047 76.82 429.759 76.9C429.479 76.98 429.167 77.108 428.823 77.284L428.499 76.612C429.283 76.236 430.019 76.048 430.707 76.048C431.435 76.048 431.995 76.228 432.387 76.588C432.779 76.94 432.975 77.448 432.975 78.112V82H432.111V81.316C431.855 81.58 431.571 81.78 431.259 81.916C430.947 82.044 430.611 82.108 430.251 82.108ZM428.967 80.296C428.967 80.64 429.099 80.916 429.363 81.124C429.635 81.332 429.991 81.436 430.431 81.436C430.759 81.436 431.059 81.38 431.331 81.268C431.611 81.156 431.871 80.988 432.111 80.764V79.636C431.863 79.492 431.607 79.388 431.343 79.324C431.079 79.252 430.783 79.216 430.455 79.216C430.007 79.216 429.647 79.316 429.375 79.516C429.103 79.708 428.967 79.968 428.967 80.296ZM436.201 82L433.801 76.144H434.749L436.645 80.908L438.517 76.144H439.453L437.041 82H436.201ZM442.949 82.096C442.405 82.096 441.917 81.964 441.485 81.7C441.053 81.436 440.713 81.076 440.465 80.62C440.217 80.164 440.093 79.648 440.093 79.072C440.093 78.496 440.217 77.98 440.465 77.524C440.713 77.068 441.053 76.708 441.485 76.444C441.917 76.18 442.405 76.048 442.949 76.048C443.485 76.048 443.965 76.18 444.389 76.444C444.821 76.708 445.161 77.068 445.409 77.524C445.657 77.98 445.781 78.496 445.781 79.072C445.781 79.648 445.657 80.164 445.409 80.62C445.161 81.076 444.821 81.436 444.389 81.7C443.965 81.964 443.485 82.096 442.949 82.096ZM442.937 81.328C443.321 81.328 443.661 81.232 443.957 81.04C444.253 80.84 444.485 80.568 444.653 80.224C444.829 79.88 444.917 79.496 444.917 79.072C444.917 78.64 444.829 78.256 444.653 77.92C444.485 77.576 444.253 77.308 443.957 77.116C443.661 76.916 443.321 76.816 442.937 76.816C442.553 76.816 442.213 76.916 441.917 77.116C441.621 77.308 441.385 77.576 441.209 77.92C441.041 78.256 440.957 78.64 440.957 79.072C440.957 79.496 441.041 79.88 441.209 80.224C441.385 80.568 441.621 80.84 441.917 81.04C442.213 81.232 442.553 81.328 442.937 81.328ZM447.318 82V76.144H448.194V77.344C448.346 76.936 448.562 76.62 448.842 76.396C449.13 76.164 449.458 76.048 449.826 76.048C449.93 76.048 450.026 76.056 450.114 76.072C450.202 76.08 450.29 76.1 450.378 76.132V76.924C450.282 76.892 450.178 76.868 450.066 76.852C449.962 76.828 449.862 76.816 449.766 76.816C449.406 76.816 449.09 76.92 448.818 77.128C448.554 77.336 448.346 77.628 448.194 78.004V82H447.318ZM451.525 82V76.144H452.401V82H451.525ZM451.969 74.692C451.793 74.692 451.641 74.632 451.513 74.512C451.393 74.384 451.333 74.236 451.333 74.068C451.333 73.9 451.393 73.756 451.513 73.636C451.641 73.508 451.793 73.444 451.969 73.444C452.145 73.444 452.293 73.508 452.413 73.636C452.541 73.756 452.605 73.9 452.605 74.068C452.605 74.236 452.541 74.384 452.413 74.512C452.293 74.632 452.145 74.692 451.969 74.692ZM456.429 82.12C455.925 82.12 455.541 82 455.277 81.76C455.021 81.512 454.893 81.156 454.893 80.692V76.864H453.681V76.144H454.893V74.536L455.769 74.332V76.144H457.449V76.864H455.769V80.464C455.769 80.776 455.833 81 455.961 81.136C456.097 81.272 456.317 81.34 456.621 81.34C456.773 81.34 456.909 81.328 457.029 81.304C457.149 81.28 457.289 81.24 457.449 81.184V81.964C457.289 82.02 457.121 82.06 456.945 82.084C456.769 82.108 456.597 82.12 456.429 82.12ZM461.255 82.12C460.711 82.12 460.219 81.988 459.779 81.724C459.339 81.452 458.991 81.088 458.735 80.632C458.479 80.168 458.351 79.648 458.351 79.072C458.351 78.496 458.471 77.98 458.711 77.524C458.959 77.068 459.291 76.708 459.707 76.444C460.123 76.18 460.587 76.048 461.099 76.048C461.619 76.048 462.079 76.18 462.479 76.444C462.887 76.7 463.207 77.052 463.439 77.5C463.679 77.94 463.799 78.44 463.799 79V79.264H459.203C459.235 79.664 459.343 80.024 459.527 80.344C459.719 80.656 459.967 80.904 460.271 81.088C460.583 81.264 460.923 81.352 461.291 81.352C461.595 81.352 461.887 81.3 462.167 81.196C462.455 81.084 462.699 80.936 462.899 80.752L463.451 81.34C463.115 81.604 462.767 81.8 462.407 81.928C462.047 82.056 461.663 82.12 461.255 82.12ZM459.227 78.64H462.935C462.895 78.288 462.787 77.976 462.611 77.704C462.443 77.424 462.227 77.204 461.963 77.044C461.707 76.884 461.419 76.804 461.099 76.804C460.779 76.804 460.487 76.884 460.223 77.044C459.959 77.196 459.739 77.412 459.563 77.692C459.395 77.964 459.283 78.28 459.227 78.64ZM467.165 82.12C466.685 82.12 466.241 82.048 465.833 81.904C465.425 81.752 465.077 81.536 464.789 81.256L465.257 80.68C465.609 80.936 465.933 81.124 466.229 81.244C466.525 81.356 466.829 81.412 467.141 81.412C467.565 81.412 467.917 81.312 468.197 81.112C468.477 80.912 468.617 80.656 468.617 80.344C468.617 80.104 468.533 79.916 468.365 79.78C468.205 79.644 467.937 79.54 467.561 79.468L466.601 79.3C466.033 79.196 465.613 79.02 465.341 78.772C465.077 78.524 464.945 78.188 464.945 77.764C464.945 77.428 465.033 77.132 465.209 76.876C465.393 76.62 465.645 76.42 465.965 76.276C466.285 76.124 466.649 76.048 467.057 76.048C467.457 76.048 467.837 76.108 468.197 76.228C468.557 76.34 468.921 76.524 469.289 76.78L468.857 77.392C468.553 77.176 468.249 77.02 467.945 76.924C467.641 76.82 467.333 76.768 467.021 76.768C466.637 76.768 466.329 76.852 466.097 77.02C465.865 77.188 465.749 77.416 465.749 77.704C465.749 77.944 465.821 78.128 465.965 78.256C466.117 78.384 466.381 78.48 466.757 78.544L467.741 78.724C468.333 78.828 468.765 79.008 469.037 79.264C469.309 79.52 469.445 79.864 469.445 80.296C469.445 80.64 469.345 80.952 469.145 81.232C468.945 81.504 468.673 81.72 468.329 81.88C467.985 82.04 467.597 82.12 467.165 82.12Z" fill="#4D4D4D"/>
<path d="M421.126 123L425.004 113.2H426.292L430.114 123H428.952L427.79 119.92H423.422L422.26 123H421.126ZM423.758 119.066H427.468L425.606 114.18L423.758 119.066ZM431.292 125.926V116.168H432.3V117.148C432.562 116.803 432.879 116.541 433.252 116.364C433.635 116.177 434.055 116.084 434.512 116.084C435.11 116.084 435.642 116.243 436.108 116.56C436.584 116.868 436.962 117.288 437.242 117.82C437.522 118.343 437.662 118.931 437.662 119.584C437.662 120.237 437.518 120.83 437.228 121.362C436.948 121.894 436.566 122.319 436.08 122.636C435.604 122.944 435.063 123.098 434.456 123.098C434.027 123.098 433.63 123.019 433.266 122.86C432.902 122.692 432.585 122.454 432.314 122.146V125.926H431.292ZM434.26 122.216C434.718 122.216 435.124 122.104 435.478 121.88C435.842 121.647 436.127 121.334 436.332 120.942C436.547 120.541 436.654 120.093 436.654 119.598C436.654 119.094 436.547 118.646 436.332 118.254C436.127 117.862 435.842 117.554 435.478 117.33C435.124 117.097 434.718 116.98 434.26 116.98C433.859 116.98 433.486 117.064 433.14 117.232C432.804 117.391 432.529 117.619 432.314 117.918V121.264C432.538 121.563 432.818 121.796 433.154 121.964C433.5 122.132 433.868 122.216 434.26 122.216ZM439.454 125.926V116.168H440.462V117.148C440.724 116.803 441.041 116.541 441.414 116.364C441.797 116.177 442.217 116.084 442.674 116.084C443.272 116.084 443.804 116.243 444.27 116.56C444.746 116.868 445.124 117.288 445.404 117.82C445.684 118.343 445.824 118.931 445.824 119.584C445.824 120.237 445.68 120.83 445.39 121.362C445.11 121.894 444.728 122.319 444.242 122.636C443.766 122.944 443.225 123.098 442.618 123.098C442.189 123.098 441.792 123.019 441.428 122.86C441.064 122.692 440.747 122.454 440.476 122.146V125.926H439.454ZM442.422 122.216C442.88 122.216 443.286 122.104 443.64 121.88C444.004 121.647 444.289 121.334 444.494 120.942C444.709 120.541 444.816 120.093 444.816 119.598C444.816 119.094 444.709 118.646 444.494 118.254C444.289 117.862 444.004 117.554 443.64 117.33C443.286 117.097 442.88 116.98 442.422 116.98C442.021 116.98 441.648 117.064 441.302 117.232C440.966 117.391 440.691 117.619 440.476 117.918V121.264C440.7 121.563 440.98 121.796 441.316 121.964C441.662 122.132 442.03 122.216 442.422 122.216ZM447.616 123V112.892L448.638 112.682V123H447.616ZM450.72 123V116.168H451.742V123H450.72ZM451.238 114.474C451.032 114.474 450.855 114.404 450.706 114.264C450.566 114.115 450.496 113.942 450.496 113.746C450.496 113.55 450.566 113.382 450.706 113.242C450.855 113.093 451.032 113.018 451.238 113.018C451.443 113.018 451.616 113.093 451.756 113.242C451.905 113.382 451.98 113.55 451.98 113.746C451.98 113.942 451.905 114.115 451.756 114.264C451.616 114.404 451.443 114.474 451.238 114.474ZM456.903 123.112C456.268 123.112 455.694 122.958 455.181 122.65C454.677 122.333 454.276 121.908 453.977 121.376C453.678 120.835 453.529 120.237 453.529 119.584C453.529 118.921 453.678 118.324 453.977 117.792C454.276 117.26 454.677 116.84 455.181 116.532C455.694 116.215 456.268 116.056 456.903 116.056C457.407 116.056 457.888 116.149 458.345 116.336C458.802 116.523 459.199 116.784 459.535 117.12L458.877 117.834C458.634 117.563 458.34 117.353 457.995 117.204C457.65 117.055 457.3 116.98 456.945 116.98C456.497 116.98 456.091 117.097 455.727 117.33C455.372 117.563 455.088 117.876 454.873 118.268C454.658 118.66 454.551 119.099 454.551 119.584C454.551 120.069 454.658 120.508 454.873 120.9C455.088 121.292 455.372 121.605 455.727 121.838C456.091 122.071 456.497 122.188 456.945 122.188C457.3 122.188 457.65 122.113 457.995 121.964C458.34 121.805 458.634 121.595 458.877 121.334L459.535 122.048C459.199 122.384 458.802 122.645 458.345 122.832C457.888 123.019 457.407 123.112 456.903 123.112ZM463.074 123.126C462.589 123.126 462.159 123.037 461.786 122.86C461.413 122.683 461.119 122.44 460.904 122.132C460.699 121.815 460.596 121.451 460.596 121.04C460.596 120.629 460.703 120.275 460.918 119.976C461.133 119.668 461.431 119.43 461.814 119.262C462.197 119.094 462.645 119.01 463.158 119.01C463.55 119.01 463.919 119.052 464.264 119.136C464.619 119.22 464.945 119.355 465.244 119.542V118.604C465.244 118.044 465.095 117.624 464.796 117.344C464.497 117.055 464.059 116.91 463.48 116.91C463.163 116.91 462.836 116.957 462.5 117.05C462.173 117.143 461.809 117.293 461.408 117.498L461.03 116.714C461.945 116.275 462.803 116.056 463.606 116.056C464.455 116.056 465.109 116.266 465.566 116.686C466.023 117.097 466.252 117.689 466.252 118.464V123H465.244V122.202C464.945 122.51 464.614 122.743 464.25 122.902C463.886 123.051 463.494 123.126 463.074 123.126ZM461.576 121.012C461.576 121.413 461.73 121.735 462.038 121.978C462.355 122.221 462.771 122.342 463.284 122.342C463.667 122.342 464.017 122.277 464.334 122.146C464.661 122.015 464.964 121.819 465.244 121.558V120.242C464.955 120.074 464.656 119.953 464.348 119.878C464.04 119.794 463.695 119.752 463.312 119.752C462.789 119.752 462.369 119.869 462.052 120.102C461.735 120.326 461.576 120.629 461.576 121.012ZM470.728 123.14C470.14 123.14 469.692 123 469.384 122.72C469.086 122.431 468.936 122.015 468.936 121.474V117.008H467.522V116.168H468.936V114.292L469.958 114.054V116.168H471.918V117.008H469.958V121.208C469.958 121.572 470.033 121.833 470.182 121.992C470.341 122.151 470.598 122.23 470.952 122.23C471.13 122.23 471.288 122.216 471.428 122.188C471.568 122.16 471.732 122.113 471.918 122.048V122.958C471.732 123.023 471.536 123.07 471.33 123.098C471.125 123.126 470.924 123.14 470.728 123.14ZM473.401 123V116.168H474.423V123H473.401ZM473.919 114.474C473.714 114.474 473.537 114.404 473.387 114.264C473.247 114.115 473.177 113.942 473.177 113.746C473.177 113.55 473.247 113.382 473.387 113.242C473.537 113.093 473.714 113.018 473.919 113.018C474.125 113.018 474.297 113.093 474.437 113.242C474.587 113.382 474.661 113.55 474.661 113.746C474.661 113.942 474.587 114.115 474.437 114.264C474.297 114.404 474.125 114.474 473.919 114.474ZM479.543 123.112C478.908 123.112 478.339 122.958 477.835 122.65C477.331 122.342 476.934 121.922 476.645 121.39C476.355 120.858 476.211 120.256 476.211 119.584C476.211 118.912 476.355 118.31 476.645 117.778C476.934 117.246 477.331 116.826 477.835 116.518C478.339 116.21 478.908 116.056 479.543 116.056C480.168 116.056 480.728 116.21 481.223 116.518C481.727 116.826 482.123 117.246 482.413 117.778C482.702 118.31 482.847 118.912 482.847 119.584C482.847 120.256 482.702 120.858 482.413 121.39C482.123 121.922 481.727 122.342 481.223 122.65C480.728 122.958 480.168 123.112 479.543 123.112ZM479.529 122.216C479.977 122.216 480.373 122.104 480.719 121.88C481.064 121.647 481.335 121.329 481.531 120.928C481.736 120.527 481.839 120.079 481.839 119.584C481.839 119.08 481.736 118.632 481.531 118.24C481.335 117.839 481.064 117.526 480.719 117.302C480.373 117.069 479.977 116.952 479.529 116.952C479.081 116.952 478.684 117.069 478.339 117.302C477.993 117.526 477.718 117.839 477.513 118.24C477.317 118.632 477.219 119.08 477.219 119.584C477.219 120.079 477.317 120.527 477.513 120.928C477.718 121.329 477.993 121.647 478.339 121.88C478.684 122.104 479.081 122.216 479.529 122.216ZM484.64 123V116.168H485.662V117.274C485.923 116.863 486.236 116.56 486.6 116.364C486.964 116.159 487.375 116.056 487.832 116.056C488.327 116.056 488.756 116.163 489.12 116.378C489.493 116.583 489.783 116.877 489.988 117.26C490.203 117.633 490.31 118.072 490.31 118.576V123H489.288V118.87C489.288 118.263 489.12 117.787 488.784 117.442C488.457 117.087 488.014 116.91 487.454 116.91C487.081 116.91 486.74 116.999 486.432 117.176C486.124 117.353 485.867 117.615 485.662 117.96V123H484.64ZM496.724 123V114.292L495.156 114.992V114.068L497.102 113.2H497.732V123H496.724Z" fill="#151515"/>
<path d="M590.249 112.05C590.558 111.424 591.445 111.432 591.751 112.05L593.46 115.514L597.283 116.071C597.969 116.171 598.243 117.016 597.746 117.5L594.98 120.195L595.635 124.003C595.753 124.691 595.027 125.204 594.42 124.885L591 123.087L587.58 124.885C586.973 125.207 586.247 124.691 586.365 124.003L587.02 120.195L584.254 117.5C583.757 117.016 584.031 116.171 584.717 116.071L588.54 115.514L590.249 112.05Z" fill="#FFCC17"/>
<rect width="233" height="1" transform="translate(397 149)" fill="#C7C7C7"/>
<path d="M425.92 179.132C425.32 179.132 424.764 179.02 424.252 178.796C423.74 178.572 423.288 178.264 422.896 177.872C422.512 177.472 422.212 177.012 421.996 176.492C421.78 175.964 421.672 175.4 421.672 174.8C421.672 174.2 421.78 173.64 421.996 173.12C422.212 172.592 422.512 172.132 422.896 171.74C423.288 171.34 423.74 171.028 424.252 170.804C424.764 170.58 425.32 170.468 425.92 170.468C426.56 170.468 427.164 170.584 427.732 170.816C428.308 171.048 428.796 171.392 429.196 171.848L428.572 172.472C428.26 172.096 427.868 171.808 427.396 171.608C426.924 171.408 426.432 171.308 425.92 171.308C425.448 171.308 425.012 171.4 424.612 171.584C424.212 171.76 423.86 172.008 423.556 172.328C423.26 172.64 423.028 173.008 422.86 173.432C422.692 173.856 422.608 174.312 422.608 174.8C422.608 175.288 422.692 175.744 422.86 176.168C423.028 176.592 423.26 176.964 423.556 177.284C423.86 177.596 424.212 177.844 424.612 178.028C425.012 178.204 425.448 178.292 425.92 178.292C426.48 178.292 426.98 178.168 427.42 177.92C427.868 177.672 428.228 177.332 428.5 176.9C428.78 176.46 428.944 175.968 428.992 175.424H426.16V174.608H429.928V174.98C429.928 175.564 429.828 176.108 429.628 176.612C429.428 177.108 429.144 177.548 428.776 177.932C428.416 178.308 427.992 178.604 427.504 178.82C427.016 179.028 426.488 179.132 425.92 179.132ZM431.486 179V173.144H432.362V174.344C432.514 173.936 432.73 173.62 433.01 173.396C433.298 173.164 433.626 173.048 433.994 173.048C434.098 173.048 434.194 173.056 434.282 173.072C434.37 173.08 434.458 173.1 434.546 173.132V173.924C434.45 173.892 434.346 173.868 434.234 173.852C434.13 173.828 434.03 173.816 433.934 173.816C433.574 173.816 433.258 173.92 432.986 174.128C432.722 174.336 432.514 174.628 432.362 175.004V179H431.486ZM437.933 179.096C437.389 179.096 436.901 178.964 436.469 178.7C436.037 178.436 435.697 178.076 435.449 177.62C435.201 177.164 435.077 176.648 435.077 176.072C435.077 175.496 435.201 174.98 435.449 174.524C435.697 174.068 436.037 173.708 436.469 173.444C436.901 173.18 437.389 173.048 437.933 173.048C438.469 173.048 438.949 173.18 439.373 173.444C439.805 173.708 440.145 174.068 440.393 174.524C440.641 174.98 440.765 175.496 440.765 176.072C440.765 176.648 440.641 177.164 440.393 177.62C440.145 178.076 439.805 178.436 439.373 178.7C438.949 178.964 438.469 179.096 437.933 179.096ZM437.921 178.328C438.305 178.328 438.645 178.232 438.941 178.04C439.237 177.84 439.469 177.568 439.637 177.224C439.813 176.88 439.901 176.496 439.901 176.072C439.901 175.64 439.813 175.256 439.637 174.92C439.469 174.576 439.237 174.308 438.941 174.116C438.645 173.916 438.305 173.816 437.921 173.816C437.537 173.816 437.197 173.916 436.901 174.116C436.605 174.308 436.369 174.576 436.193 174.92C436.025 175.256 435.941 175.64 435.941 176.072C435.941 176.496 436.025 176.88 436.193 177.224C436.369 177.568 436.605 177.84 436.901 178.04C437.197 178.232 437.537 178.328 437.921 178.328ZM444.39 179.096C443.974 179.096 443.606 179.004 443.286 178.82C442.966 178.636 442.714 178.38 442.53 178.052C442.354 177.724 442.266 177.348 442.266 176.924V173.144H443.154V176.672C443.154 177.192 443.294 177.604 443.574 177.908C443.854 178.212 444.234 178.364 444.714 178.364C445.042 178.364 445.334 178.288 445.59 178.136C445.854 177.984 446.074 177.764 446.25 177.476V173.144H447.126V179H446.25V178.052C446.026 178.396 445.758 178.656 445.446 178.832C445.142 179.008 444.79 179.096 444.39 179.096ZM448.923 181.508V173.144H449.787V173.984C450.011 173.688 450.283 173.464 450.603 173.312C450.931 173.152 451.291 173.072 451.683 173.072C452.195 173.072 452.651 173.208 453.051 173.48C453.459 173.744 453.783 174.104 454.023 174.56C454.263 175.008 454.383 175.512 454.383 176.072C454.383 176.632 454.259 177.14 454.011 177.596C453.771 178.052 453.443 178.416 453.027 178.688C452.619 178.952 452.155 179.084 451.635 179.084C451.267 179.084 450.927 179.016 450.615 178.88C450.303 178.736 450.031 178.532 449.799 178.268V181.508H448.923ZM451.467 178.328C451.859 178.328 452.207 178.232 452.511 178.04C452.823 177.84 453.067 177.572 453.243 177.236C453.427 176.892 453.519 176.508 453.519 176.084C453.519 175.652 453.427 175.268 453.243 174.932C453.067 174.596 452.823 174.332 452.511 174.14C452.207 173.94 451.859 173.84 451.467 173.84C451.123 173.84 450.803 173.912 450.507 174.056C450.219 174.192 449.983 174.388 449.799 174.644V177.512C449.991 177.768 450.231 177.968 450.519 178.112C450.815 178.256 451.131 178.328 451.467 178.328ZM459.656 179V171.536L458.312 172.136V171.344L459.98 170.6H460.52V179H459.656Z" fill="#4D4D4D"/>
<path d="M421.126 220L425.004 210.2H426.292L430.114 220H428.952L427.79 216.92H423.422L422.26 220H421.126ZM423.758 216.066H427.468L425.606 211.18L423.758 216.066ZM431.292 222.926V213.168H432.3V214.148C432.562 213.803 432.879 213.541 433.252 213.364C433.635 213.177 434.055 213.084 434.512 213.084C435.11 213.084 435.642 213.243 436.108 213.56C436.584 213.868 436.962 214.288 437.242 214.82C437.522 215.343 437.662 215.931 437.662 216.584C437.662 217.237 437.518 217.83 437.228 218.362C436.948 218.894 436.566 219.319 436.08 219.636C435.604 219.944 435.063 220.098 434.456 220.098C434.027 220.098 433.63 220.019 433.266 219.86C432.902 219.692 432.585 219.454 432.314 219.146V222.926H431.292ZM434.26 219.216C434.718 219.216 435.124 219.104 435.478 218.88C435.842 218.647 436.127 218.334 436.332 217.942C436.547 217.541 436.654 217.093 436.654 216.598C436.654 216.094 436.547 215.646 436.332 215.254C436.127 214.862 435.842 214.554 435.478 214.33C435.124 214.097 434.718 213.98 434.26 213.98C433.859 213.98 433.486 214.064 433.14 214.232C432.804 214.391 432.529 214.619 432.314 214.918V218.264C432.538 218.563 432.818 218.796 433.154 218.964C433.5 219.132 433.868 219.216 434.26 219.216ZM439.454 222.926V213.168H440.462V214.148C440.724 213.803 441.041 213.541 441.414 213.364C441.797 213.177 442.217 213.084 442.674 213.084C443.272 213.084 443.804 213.243 444.27 213.56C444.746 213.868 445.124 214.288 445.404 214.82C445.684 215.343 445.824 215.931 445.824 216.584C445.824 217.237 445.68 217.83 445.39 218.362C445.11 218.894 444.728 219.319 444.242 219.636C443.766 219.944 443.225 220.098 442.618 220.098C442.189 220.098 441.792 220.019 441.428 219.86C441.064 219.692 440.747 219.454 440.476 219.146V222.926H439.454ZM442.422 219.216C442.88 219.216 443.286 219.104 443.64 218.88C444.004 218.647 444.289 218.334 444.494 217.942C444.709 217.541 444.816 217.093 444.816 216.598C444.816 216.094 444.709 215.646 444.494 215.254C444.289 214.862 444.004 214.554 443.64 214.33C443.286 214.097 442.88 213.98 442.422 213.98C442.021 213.98 441.648 214.064 441.302 214.232C440.966 214.391 440.691 214.619 440.476 214.918V218.264C440.7 218.563 440.98 218.796 441.316 218.964C441.662 219.132 442.03 219.216 442.422 219.216ZM447.616 220V209.892L448.638 209.682V220H447.616ZM450.72 220V213.168H451.742V220H450.72ZM451.238 211.474C451.032 211.474 450.855 211.404 450.706 211.264C450.566 211.115 450.496 210.942 450.496 210.746C450.496 210.55 450.566 210.382 450.706 210.242C450.855 210.093 451.032 210.018 451.238 210.018C451.443 210.018 451.616 210.093 451.756 210.242C451.905 210.382 451.98 210.55 451.98 210.746C451.98 210.942 451.905 211.115 451.756 211.264C451.616 211.404 451.443 211.474 451.238 211.474ZM456.903 220.112C456.268 220.112 455.694 219.958 455.181 219.65C454.677 219.333 454.276 218.908 453.977 218.376C453.678 217.835 453.529 217.237 453.529 216.584C453.529 215.921 453.678 215.324 453.977 214.792C454.276 214.26 454.677 213.84 455.181 213.532C455.694 213.215 456.268 213.056 456.903 213.056C457.407 213.056 457.888 213.149 458.345 213.336C458.802 213.523 459.199 213.784 459.535 214.12L458.877 214.834C458.634 214.563 458.34 214.353 457.995 214.204C457.65 214.055 457.3 213.98 456.945 213.98C456.497 213.98 456.091 214.097 455.727 214.33C455.372 214.563 455.088 214.876 454.873 215.268C454.658 215.66 454.551 216.099 454.551 216.584C454.551 217.069 454.658 217.508 454.873 217.9C455.088 218.292 455.372 218.605 455.727 218.838C456.091 219.071 456.497 219.188 456.945 219.188C457.3 219.188 457.65 219.113 457.995 218.964C458.34 218.805 458.634 218.595 458.877 218.334L459.535 219.048C459.199 219.384 458.802 219.645 458.345 219.832C457.888 220.019 457.407 220.112 456.903 220.112ZM463.074 220.126C462.589 220.126 462.159 220.037 461.786 219.86C461.413 219.683 461.119 219.44 460.904 219.132C460.699 218.815 460.596 218.451 460.596 218.04C460.596 217.629 460.703 217.275 460.918 216.976C461.133 216.668 461.431 216.43 461.814 216.262C462.197 216.094 462.645 216.01 463.158 216.01C463.55 216.01 463.919 216.052 464.264 216.136C464.619 216.22 464.945 216.355 465.244 216.542V215.604C465.244 215.044 465.095 214.624 464.796 214.344C464.497 214.055 464.059 213.91 463.48 213.91C463.163 213.91 462.836 213.957 462.5 214.05C462.173 214.143 461.809 214.293 461.408 214.498L461.03 213.714C461.945 213.275 462.803 213.056 463.606 213.056C464.455 213.056 465.109 213.266 465.566 213.686C466.023 214.097 466.252 214.689 466.252 215.464V220H465.244V219.202C464.945 219.51 464.614 219.743 464.25 219.902C463.886 220.051 463.494 220.126 463.074 220.126ZM461.576 218.012C461.576 218.413 461.73 218.735 462.038 218.978C462.355 219.221 462.771 219.342 463.284 219.342C463.667 219.342 464.017 219.277 464.334 219.146C464.661 219.015 464.964 218.819 465.244 218.558V217.242C464.955 217.074 464.656 216.953 464.348 216.878C464.04 216.794 463.695 216.752 463.312 216.752C462.789 216.752 462.369 216.869 462.052 217.102C461.735 217.326 461.576 217.629 461.576 218.012ZM470.728 220.14C470.14 220.14 469.692 220 469.384 219.72C469.086 219.431 468.936 219.015 468.936 218.474V214.008H467.522V213.168H468.936V211.292L469.958 211.054V213.168H471.918V214.008H469.958V218.208C469.958 218.572 470.033 218.833 470.182 218.992C470.341 219.151 470.598 219.23 470.952 219.23C471.13 219.23 471.288 219.216 471.428 219.188C471.568 219.16 471.732 219.113 471.918 219.048V219.958C471.732 220.023 471.536 220.07 471.33 220.098C471.125 220.126 470.924 220.14 470.728 220.14ZM473.401 220V213.168H474.423V220H473.401ZM473.919 211.474C473.714 211.474 473.537 211.404 473.387 211.264C473.247 211.115 473.177 210.942 473.177 210.746C473.177 210.55 473.247 210.382 473.387 210.242C473.537 210.093 473.714 210.018 473.919 210.018C474.125 210.018 474.297 210.093 474.437 210.242C474.587 210.382 474.661 210.55 474.661 210.746C474.661 210.942 474.587 211.115 474.437 211.264C474.297 211.404 474.125 211.474 473.919 211.474ZM479.543 220.112C478.908 220.112 478.339 219.958 477.835 219.65C477.331 219.342 476.934 218.922 476.645 218.39C476.355 217.858 476.211 217.256 476.211 216.584C476.211 215.912 476.355 215.31 476.645 214.778C476.934 214.246 477.331 213.826 477.835 213.518C478.339 213.21 478.908 213.056 479.543 213.056C480.168 213.056 480.728 213.21 481.223 213.518C481.727 213.826 482.123 214.246 482.413 214.778C482.702 215.31 482.847 215.912 482.847 216.584C482.847 217.256 482.702 217.858 482.413 218.39C482.123 218.922 481.727 219.342 481.223 219.65C480.728 219.958 480.168 220.112 479.543 220.112ZM479.529 219.216C479.977 219.216 480.373 219.104 480.719 218.88C481.064 218.647 481.335 218.329 481.531 217.928C481.736 217.527 481.839 217.079 481.839 216.584C481.839 216.08 481.736 215.632 481.531 215.24C481.335 214.839 481.064 214.526 480.719 214.302C480.373 214.069 479.977 213.952 479.529 213.952C479.081 213.952 478.684 214.069 478.339 214.302C477.993 214.526 477.718 214.839 477.513 215.24C477.317 215.632 477.219 216.08 477.219 216.584C477.219 217.079 477.317 217.527 477.513 217.928C477.718 218.329 477.993 218.647 478.339 218.88C478.684 219.104 479.081 219.216 479.529 219.216ZM484.64 220V213.168H485.662V214.274C485.923 213.863 486.236 213.56 486.6 213.364C486.964 213.159 487.375 213.056 487.832 213.056C488.327 213.056 488.756 213.163 489.12 213.378C489.493 213.583 489.783 213.877 489.988 214.26C490.203 214.633 490.31 215.072 490.31 215.576V220H489.288V215.87C489.288 215.263 489.12 214.787 488.784 214.442C488.457 214.087 488.014 213.91 487.454 213.91C487.081 213.91 486.74 213.999 486.432 214.176C486.124 214.353 485.867 214.615 485.662 214.96V220H484.64ZM496.724 220V211.292L495.156 211.992V211.068L497.102 210.2H497.732V220H496.724Z" fill="#151515"/>
<path fill-rule="evenodd" clip-rule="evenodd" d="M587.58 221.885L591 220.087L594.42 221.885C595.027 222.204 595.752 221.691 595.634 221.003L594.98 217.196L597.746 214.5C598.243 214.016 597.969 213.171 597.283 213.071L593.46 212.514L591.751 209.049C591.445 208.432 590.558 208.424 590.249 209.049L588.54 212.514L584.717 213.071C584.031 213.171 583.757 214.016 584.254 214.5L587.02 217.196L586.366 221.003C586.248 221.691 586.973 222.207 587.58 221.885Z" fill="#A3A3A3"/>
<rect width="233" height="1" transform="translate(397 246)" fill="#C7C7C7"/>
<path d="M425.92 276.132C425.32 276.132 424.764 276.02 424.252 275.796C423.74 275.572 423.288 275.264 422.896 274.872C422.512 274.472 422.212 274.012 421.996 273.492C421.78 272.964 421.672 272.4 421.672 271.8C421.672 271.2 421.78 270.64 421.996 270.12C422.212 269.592 422.512 269.132 422.896 268.74C423.288 268.34 423.74 268.028 424.252 267.804C424.764 267.58 425.32 267.468 425.92 267.468C426.56 267.468 427.164 267.584 427.732 267.816C428.308 268.048 428.796 268.392 429.196 268.848L428.572 269.472C428.26 269.096 427.868 268.808 427.396 268.608C426.924 268.408 426.432 268.308 425.92 268.308C425.448 268.308 425.012 268.4 424.612 268.584C424.212 268.76 423.86 269.008 423.556 269.328C423.26 269.64 423.028 270.008 422.86 270.432C422.692 270.856 422.608 271.312 422.608 271.8C422.608 272.288 422.692 272.744 422.86 273.168C423.028 273.592 423.26 273.964 423.556 274.284C423.86 274.596 424.212 274.844 424.612 275.028C425.012 275.204 425.448 275.292 425.92 275.292C426.48 275.292 426.98 275.168 427.42 274.92C427.868 274.672 428.228 274.332 428.5 273.9C428.78 273.46 428.944 272.968 428.992 272.424H426.16V271.608H429.928V271.98C429.928 272.564 429.828 273.108 429.628 273.612C429.428 274.108 429.144 274.548 428.776 274.932C428.416 275.308 427.992 275.604 427.504 275.82C427.016 276.028 426.488 276.132 425.92 276.132ZM431.486 276V270.144H432.362V271.344C432.514 270.936 432.73 270.62 433.01 270.396C433.298 270.164 433.626 270.048 433.994 270.048C434.098 270.048 434.194 270.056 434.282 270.072C434.37 270.08 434.458 270.1 434.546 270.132V270.924C434.45 270.892 434.346 270.868 434.234 270.852C434.13 270.828 434.03 270.816 433.934 270.816C433.574 270.816 433.258 270.92 432.986 271.128C432.722 271.336 432.514 271.628 432.362 272.004V276H431.486ZM437.933 276.096C437.389 276.096 436.901 275.964 436.469 275.7C436.037 275.436 435.697 275.076 435.449 274.62C435.201 274.164 435.077 273.648 435.077 273.072C435.077 272.496 435.201 271.98 435.449 271.524C435.697 271.068 436.037 270.708 436.469 270.444C436.901 270.18 437.389 270.048 437.933 270.048C438.469 270.048 438.949 270.18 439.373 270.444C439.805 270.708 440.145 271.068 440.393 271.524C440.641 271.98 440.765 272.496 440.765 273.072C440.765 273.648 440.641 274.164 440.393 274.62C440.145 275.076 439.805 275.436 439.373 275.7C438.949 275.964 438.469 276.096 437.933 276.096ZM437.921 275.328C438.305 275.328 438.645 275.232 438.941 275.04C439.237 274.84 439.469 274.568 439.637 274.224C439.813 273.88 439.901 273.496 439.901 273.072C439.901 272.64 439.813 272.256 439.637 271.92C439.469 271.576 439.237 271.308 438.941 271.116C438.645 270.916 438.305 270.816 437.921 270.816C437.537 270.816 437.197 270.916 436.901 271.116C436.605 271.308 436.369 271.576 436.193 271.92C436.025 272.256 435.941 272.64 435.941 273.072C435.941 273.496 436.025 273.88 436.193 274.224C436.369 274.568 436.605 274.84 436.901 275.04C437.197 275.232 437.537 275.328 437.921 275.328ZM444.39 276.096C443.974 276.096 443.606 276.004 443.286 275.82C442.966 275.636 442.714 275.38 442.53 275.052C442.354 274.724 442.266 274.348 442.266 273.924V270.144H443.154V273.672C443.154 274.192 443.294 274.604 443.574 274.908C443.854 275.212 444.234 275.364 444.714 275.364C445.042 275.364 445.334 275.288 445.59 275.136C445.854 274.984 446.074 274.764 446.25 274.476V270.144H447.126V276H446.25V275.052C446.026 275.396 445.758 275.656 445.446 275.832C445.142 276.008 444.79 276.096 444.39 276.096ZM448.923 278.508V270.144H449.787V270.984C450.011 270.688 450.283 270.464 450.603 270.312C450.931 270.152 451.291 270.072 451.683 270.072C452.195 270.072 452.651 270.208 453.051 270.48C453.459 270.744 453.783 271.104 454.023 271.56C454.263 272.008 454.383 272.512 454.383 273.072C454.383 273.632 454.259 274.14 454.011 274.596C453.771 275.052 453.443 275.416 453.027 275.688C452.619 275.952 452.155 276.084 451.635 276.084C451.267 276.084 450.927 276.016 450.615 275.88C450.303 275.736 450.031 275.532 449.799 275.268V278.508H448.923ZM451.467 275.328C451.859 275.328 452.207 275.232 452.511 275.04C452.823 274.84 453.067 274.572 453.243 274.236C453.427 273.892 453.519 273.508 453.519 273.084C453.519 272.652 453.427 272.268 453.243 271.932C453.067 271.596 452.823 271.332 452.511 271.14C452.207 270.94 451.859 270.84 451.467 270.84C451.123 270.84 450.803 270.912 450.507 271.056C450.219 271.192 449.983 271.388 449.799 271.644V274.512C449.991 274.768 450.231 274.968 450.519 275.112C450.815 275.256 451.131 275.328 451.467 275.328ZM458.432 276V275.364L461.792 271.692C462.056 271.404 462.26 271.152 462.404 270.936C462.556 270.712 462.66 270.504 462.716 270.312C462.78 270.12 462.812 269.916 462.812 269.7C462.812 269.276 462.644 268.928 462.308 268.656C461.98 268.376 461.56 268.236 461.048 268.236C460.656 268.236 460.292 268.312 459.956 268.464C459.62 268.616 459.244 268.88 458.828 269.256L458.324 268.656C458.764 268.256 459.208 267.96 459.656 267.768C460.104 267.568 460.572 267.468 461.06 267.468C461.564 267.468 462.012 267.564 462.404 267.756C462.796 267.94 463.104 268.196 463.328 268.524C463.552 268.852 463.664 269.228 463.664 269.652C463.664 269.932 463.628 270.192 463.556 270.432C463.484 270.664 463.356 270.916 463.172 271.188C462.988 271.452 462.724 271.772 462.38 272.148L459.512 275.256L463.844 275.244V276H458.432Z" fill="#4D4D4D"/>
<path d="M421.126 317L425.004 307.2H426.292L430.114 317H428.952L427.79 313.92H423.422L422.26 317H421.126ZM423.758 313.066H427.468L425.606 308.18L423.758 313.066ZM431.292 319.926V310.168H432.3V311.148C432.562 310.803 432.879 310.541 433.252 310.364C433.635 310.177 434.055 310.084 434.512 310.084C435.11 310.084 435.642 310.243 436.108 310.56C436.584 310.868 436.962 311.288 437.242 311.82C437.522 312.343 437.662 312.931 437.662 313.584C437.662 314.237 437.518 314.83 437.228 315.362C436.948 315.894 436.566 316.319 436.08 316.636C435.604 316.944 435.063 317.098 434.456 317.098C434.027 317.098 433.63 317.019 433.266 316.86C432.902 316.692 432.585 316.454 432.314 316.146V319.926H431.292ZM434.26 316.216C434.718 316.216 435.124 316.104 435.478 315.88C435.842 315.647 436.127 315.334 436.332 314.942C436.547 314.541 436.654 314.093 436.654 313.598C436.654 313.094 436.547 312.646 436.332 312.254C436.127 311.862 435.842 311.554 435.478 311.33C435.124 311.097 434.718 310.98 434.26 310.98C433.859 310.98 433.486 311.064 433.14 311.232C432.804 311.391 432.529 311.619 432.314 311.918V315.264C432.538 315.563 432.818 315.796 433.154 315.964C433.5 316.132 433.868 316.216 434.26 316.216ZM439.454 319.926V310.168H440.462V311.148C440.724 310.803 441.041 310.541 441.414 310.364C441.797 310.177 442.217 310.084 442.674 310.084C443.272 310.084 443.804 310.243 444.27 310.56C444.746 310.868 445.124 311.288 445.404 311.82C445.684 312.343 445.824 312.931 445.824 313.584C445.824 314.237 445.68 314.83 445.39 315.362C445.11 315.894 444.728 316.319 444.242 316.636C443.766 316.944 443.225 317.098 442.618 317.098C442.189 317.098 441.792 317.019 441.428 316.86C441.064 316.692 440.747 316.454 440.476 316.146V319.926H439.454ZM442.422 316.216C442.88 316.216 443.286 316.104 443.64 315.88C444.004 315.647 444.289 315.334 444.494 314.942C444.709 314.541 444.816 314.093 444.816 313.598C444.816 313.094 444.709 312.646 444.494 312.254C444.289 311.862 444.004 311.554 443.64 311.33C443.286 311.097 442.88 310.98 442.422 310.98C442.021 310.98 441.648 311.064 441.302 311.232C440.966 311.391 440.691 311.619 440.476 311.918V315.264C440.7 315.563 440.98 315.796 441.316 315.964C441.662 316.132 442.03 316.216 442.422 316.216ZM447.616 317V306.892L448.638 306.682V317H447.616ZM450.72 317V310.168H451.742V317H450.72ZM451.238 308.474C451.032 308.474 450.855 308.404 450.706 308.264C450.566 308.115 450.496 307.942 450.496 307.746C450.496 307.55 450.566 307.382 450.706 307.242C450.855 307.093 451.032 307.018 451.238 307.018C451.443 307.018 451.616 307.093 451.756 307.242C451.905 307.382 451.98 307.55 451.98 307.746C451.98 307.942 451.905 308.115 451.756 308.264C451.616 308.404 451.443 308.474 451.238 308.474ZM456.903 317.112C456.268 317.112 455.694 316.958 455.181 316.65C454.677 316.333 454.276 315.908 453.977 315.376C453.678 314.835 453.529 314.237 453.529 313.584C453.529 312.921 453.678 312.324 453.977 311.792C454.276 311.26 454.677 310.84 455.181 310.532C455.694 310.215 456.268 310.056 456.903 310.056C457.407 310.056 457.888 310.149 458.345 310.336C458.802 310.523 459.199 310.784 459.535 311.12L458.877 311.834C458.634 311.563 458.34 311.353 457.995 311.204C457.65 311.055 457.3 310.98 456.945 310.98C456.497 310.98 456.091 311.097 455.727 311.33C455.372 311.563 455.088 311.876 454.873 312.268C454.658 312.66 454.551 313.099 454.551 313.584C454.551 314.069 454.658 314.508 454.873 314.9C455.088 315.292 455.372 315.605 455.727 315.838C456.091 316.071 456.497 316.188 456.945 316.188C457.3 316.188 457.65 316.113 457.995 315.964C458.34 315.805 458.634 315.595 458.877 315.334L459.535 316.048C459.199 316.384 458.802 316.645 458.345 316.832C457.888 317.019 457.407 317.112 456.903 317.112ZM463.074 317.126C462.589 317.126 462.159 317.037 461.786 316.86C461.413 316.683 461.119 316.44 460.904 316.132C460.699 315.815 460.596 315.451 460.596 315.04C460.596 314.629 460.703 314.275 460.918 313.976C461.133 313.668 461.431 313.43 461.814 313.262C462.197 313.094 462.645 313.01 463.158 313.01C463.55 313.01 463.919 313.052 464.264 313.136C464.619 313.22 464.945 313.355 465.244 313.542V312.604C465.244 312.044 465.095 311.624 464.796 311.344C464.497 311.055 464.059 310.91 463.48 310.91C463.163 310.91 462.836 310.957 462.5 311.05C462.173 311.143 461.809 311.293 461.408 311.498L461.03 310.714C461.945 310.275 462.803 310.056 463.606 310.056C464.455 310.056 465.109 310.266 465.566 310.686C466.023 311.097 466.252 311.689 466.252 312.464V317H465.244V316.202C464.945 316.51 464.614 316.743 464.25 316.902C463.886 317.051 463.494 317.126 463.074 317.126ZM461.576 315.012C461.576 315.413 461.73 315.735 462.038 315.978C462.355 316.221 462.771 316.342 463.284 316.342C463.667 316.342 464.017 316.277 464.334 316.146C464.661 316.015 464.964 315.819 465.244 315.558V314.242C464.955 314.074 464.656 313.953 464.348 313.878C464.04 313.794 463.695 313.752 463.312 313.752C462.789 313.752 462.369 313.869 462.052 314.102C461.735 314.326 461.576 314.629 461.576 315.012ZM470.728 317.14C470.14 317.14 469.692 317 469.384 316.72C469.086 316.431 468.936 316.015 468.936 315.474V311.008H467.522V310.168H468.936V308.292L469.958 308.054V310.168H471.918V311.008H469.958V315.208C469.958 315.572 470.033 315.833 470.182 315.992C470.341 316.151 470.598 316.23 470.952 316.23C471.13 316.23 471.288 316.216 471.428 316.188C471.568 316.16 471.732 316.113 471.918 316.048V316.958C471.732 317.023 471.536 317.07 471.33 317.098C471.125 317.126 470.924 317.14 470.728 317.14ZM473.401 317V310.168H474.423V317H473.401ZM473.919 308.474C473.714 308.474 473.537 308.404 473.387 308.264C473.247 308.115 473.177 307.942 473.177 307.746C473.177 307.55 473.247 307.382 473.387 307.242C473.537 307.093 473.714 307.018 473.919 307.018C474.125 307.018 474.297 307.093 474.437 307.242C474.587 307.382 474.661 307.55 474.661 307.746C474.661 307.942 474.587 308.115 474.437 308.264C474.297 308.404 474.125 308.474 473.919 308.474ZM479.543 317.112C478.908 317.112 478.339 316.958 477.835 316.65C477.331 316.342 476.934 315.922 476.645 315.39C476.355 314.858 476.211 314.256 476.211 313.584C476.211 312.912 476.355 312.31 476.645 311.778C476.934 311.246 477.331 310.826 477.835 310.518C478.339 310.21 478.908 310.056 479.543 310.056C480.168 310.056 480.728 310.21 481.223 310.518C481.727 310.826 482.123 311.246 482.413 311.778C482.702 312.31 482.847 312.912 482.847 313.584C482.847 314.256 482.702 314.858 482.413 315.39C482.123 315.922 481.727 316.342 481.223 316.65C480.728 316.958 480.168 317.112 479.543 317.112ZM479.529 316.216C479.977 316.216 480.373 316.104 480.719 315.88C481.064 315.647 481.335 315.329 481.531 314.928C481.736 314.527 481.839 314.079 481.839 313.584C481.839 313.08 481.736 312.632 481.531 312.24C481.335 311.839 481.064 311.526 480.719 311.302C480.373 311.069 479.977 310.952 479.529 310.952C479.081 310.952 478.684 311.069 478.339 311.302C477.993 311.526 477.718 311.839 477.513 312.24C477.317 312.632 477.219 313.08 477.219 313.584C477.219 314.079 477.317 314.527 477.513 314.928C477.718 315.329 477.993 315.647 478.339 315.88C478.684 316.104 479.081 316.216 479.529 316.216ZM484.64 317V310.168H485.662V311.274C485.923 310.863 486.236 310.56 486.6 310.364C486.964 310.159 487.375 310.056 487.832 310.056C488.327 310.056 488.756 310.163 489.12 310.378C489.493 310.583 489.783 310.877 489.988 311.26C490.203 311.633 490.31 312.072 490.31 312.576V317H489.288V312.87C489.288 312.263 489.12 311.787 488.784 311.442C488.457 311.087 488.014 310.91 487.454 310.91C487.081 310.91 486.74 310.999 486.432 311.176C486.124 311.353 485.867 311.615 485.662 311.96V317H484.64ZM496.724 317V308.292L495.156 308.992V308.068L497.102 307.2H497.732V317H496.724Z" fill="#151515"/>
<path fill-rule="evenodd" clip-rule="evenodd" d="M587.58 318.885L591 317.087L594.42 318.885C595.027 319.204 595.752 318.691 595.634 318.003L594.98 314.196L597.746 311.5C598.243 311.016 597.969 310.171 597.283 310.071L593.46 309.514L591.751 306.049C591.445 305.432 590.558 305.424 590.249 306.049L588.54 309.514L584.717 310.071C584.031 310.171 583.757 311.016 584.254 311.5L587.02 314.196L586.366 318.003C586.248 318.691 586.973 319.207 587.58 318.885Z" fill="#FFCC17"/>
<path d="M421.126 363L425.004 353.2H426.292L430.114 363H428.952L427.79 359.92H423.422L422.26 363H421.126ZM423.758 359.066H427.468L425.606 354.18L423.758 359.066ZM431.292 365.926V356.168H432.3V357.148C432.562 356.803 432.879 356.541 433.252 356.364C433.635 356.177 434.055 356.084 434.512 356.084C435.11 356.084 435.642 356.243 436.108 356.56C436.584 356.868 436.962 357.288 437.242 357.82C437.522 358.343 437.662 358.931 437.662 359.584C437.662 360.237 437.518 360.83 437.228 361.362C436.948 361.894 436.566 362.319 436.08 362.636C435.604 362.944 435.063 363.098 434.456 363.098C434.027 363.098 433.63 363.019 433.266 362.86C432.902 362.692 432.585 362.454 432.314 362.146V365.926H431.292ZM434.26 362.216C434.718 362.216 435.124 362.104 435.478 361.88C435.842 361.647 436.127 361.334 436.332 360.942C436.547 360.541 436.654 360.093 436.654 359.598C436.654 359.094 436.547 358.646 436.332 358.254C436.127 357.862 435.842 357.554 435.478 357.33C435.124 357.097 434.718 356.98 434.26 356.98C433.859 356.98 433.486 357.064 433.14 357.232C432.804 357.391 432.529 357.619 432.314 357.918V361.264C432.538 361.563 432.818 361.796 433.154 361.964C433.5 362.132 433.868 362.216 434.26 362.216ZM439.454 365.926V356.168H440.462V357.148C440.724 356.803 441.041 356.541 441.414 356.364C441.797 356.177 442.217 356.084 442.674 356.084C443.272 356.084 443.804 356.243 444.27 356.56C444.746 356.868 445.124 357.288 445.404 357.82C445.684 358.343 445.824 358.931 445.824 359.584C445.824 360.237 445.68 360.83 445.39 361.362C445.11 361.894 444.728 362.319 444.242 362.636C443.766 362.944 443.225 363.098 442.618 363.098C442.189 363.098 441.792 363.019 441.428 362.86C441.064 362.692 440.747 362.454 440.476 362.146V365.926H439.454ZM442.422 362.216C442.88 362.216 443.286 362.104 443.64 361.88C444.004 361.647 444.289 361.334 444.494 360.942C444.709 360.541 444.816 360.093 444.816 359.598C444.816 359.094 444.709 358.646 444.494 358.254C444.289 357.862 444.004 357.554 443.64 357.33C443.286 357.097 442.88 356.98 442.422 356.98C442.021 356.98 441.648 357.064 441.302 357.232C440.966 357.391 440.691 357.619 440.476 357.918V361.264C440.7 361.563 440.98 361.796 441.316 361.964C441.662 362.132 442.03 362.216 442.422 362.216ZM447.616 363V352.892L448.638 352.682V363H447.616ZM450.72 363V356.168H451.742V363H450.72ZM451.238 354.474C451.032 354.474 450.855 354.404 450.706 354.264C450.566 354.115 450.496 353.942 450.496 353.746C450.496 353.55 450.566 353.382 450.706 353.242C450.855 353.093 451.032 353.018 451.238 353.018C451.443 353.018 451.616 353.093 451.756 353.242C451.905 353.382 451.98 353.55 451.98 353.746C451.98 353.942 451.905 354.115 451.756 354.264C451.616 354.404 451.443 354.474 451.238 354.474ZM456.903 363.112C456.268 363.112 455.694 362.958 455.181 362.65C454.677 362.333 454.276 361.908 453.977 361.376C453.678 360.835 453.529 360.237 453.529 359.584C453.529 358.921 453.678 358.324 453.977 357.792C454.276 357.26 454.677 356.84 455.181 356.532C455.694 356.215 456.268 356.056 456.903 356.056C457.407 356.056 457.888 356.149 458.345 356.336C458.802 356.523 459.199 356.784 459.535 357.12L458.877 357.834C458.634 357.563 458.34 357.353 457.995 357.204C457.65 357.055 457.3 356.98 456.945 356.98C456.497 356.98 456.091 357.097 455.727 357.33C455.372 357.563 455.088 357.876 454.873 358.268C454.658 358.66 454.551 359.099 454.551 359.584C454.551 360.069 454.658 360.508 454.873 360.9C455.088 361.292 455.372 361.605 455.727 361.838C456.091 362.071 456.497 362.188 456.945 362.188C457.3 362.188 457.65 362.113 457.995 361.964C458.34 361.805 458.634 361.595 458.877 361.334L459.535 362.048C459.199 362.384 458.802 362.645 458.345 362.832C457.888 363.019 457.407 363.112 456.903 363.112ZM463.074 363.126C462.589 363.126 462.159 363.037 461.786 362.86C461.413 362.683 461.119 362.44 460.904 362.132C460.699 361.815 460.596 361.451 460.596 361.04C460.596 360.629 460.703 360.275 460.918 359.976C461.133 359.668 461.431 359.43 461.814 359.262C462.197 359.094 462.645 359.01 463.158 359.01C463.55 359.01 463.919 359.052 464.264 359.136C464.619 359.22 464.945 359.355 465.244 359.542V358.604C465.244 358.044 465.095 357.624 464.796 357.344C464.497 357.055 464.059 356.91 463.48 356.91C463.163 356.91 462.836 356.957 462.5 357.05C462.173 357.143 461.809 357.293 461.408 357.498L461.03 356.714C461.945 356.275 462.803 356.056 463.606 356.056C464.455 356.056 465.109 356.266 465.566 356.686C466.023 357.097 466.252 357.689 466.252 358.464V363H465.244V362.202C464.945 362.51 464.614 362.743 464.25 362.902C463.886 363.051 463.494 363.126 463.074 363.126ZM461.576 361.012C461.576 361.413 461.73 361.735 462.038 361.978C462.355 362.221 462.771 362.342 463.284 362.342C463.667 362.342 464.017 362.277 464.334 362.146C464.661 362.015 464.964 361.819 465.244 361.558V360.242C464.955 360.074 464.656 359.953 464.348 359.878C464.04 359.794 463.695 359.752 463.312 359.752C462.789 359.752 462.369 359.869 462.052 360.102C461.735 360.326 461.576 360.629 461.576 361.012ZM470.728 363.14C470.14 363.14 469.692 363 469.384 362.72C469.086 362.431 468.936 362.015 468.936 361.474V357.008H467.522V356.168H468.936V354.292L469.958 354.054V356.168H471.918V357.008H469.958V361.208C469.958 361.572 470.033 361.833 470.182 361.992C470.341 362.151 470.598 362.23 470.952 362.23C471.13 362.23 471.288 362.216 471.428 362.188C471.568 362.16 471.732 362.113 471.918 362.048V362.958C471.732 363.023 471.536 363.07 471.33 363.098C471.125 363.126 470.924 363.14 470.728 363.14ZM473.401 363V356.168H474.423V363H473.401ZM473.919 354.474C473.714 354.474 473.537 354.404 473.387 354.264C473.247 354.115 473.177 353.942 473.177 353.746C473.177 353.55 473.247 353.382 473.387 353.242C473.537 353.093 473.714 353.018 473.919 353.018C474.125 353.018 474.297 353.093 474.437 353.242C474.587 353.382 474.661 353.55 474.661 353.746C474.661 353.942 474.587 354.115 474.437 354.264C474.297 354.404 474.125 354.474 473.919 354.474ZM479.543 363.112C478.908 363.112 478.339 362.958 477.835 362.65C477.331 362.342 476.934 361.922 476.645 361.39C476.355 360.858 476.211 360.256 476.211 359.584C476.211 358.912 476.355 358.31 476.645 357.778C476.934 357.246 477.331 356.826 477.835 356.518C478.339 356.21 478.908 356.056 479.543 356.056C480.168 356.056 480.728 356.21 481.223 356.518C481.727 356.826 482.123 357.246 482.413 357.778C482.702 358.31 482.847 358.912 482.847 359.584C482.847 360.256 482.702 360.858 482.413 361.39C482.123 361.922 481.727 362.342 481.223 362.65C480.728 362.958 480.168 363.112 479.543 363.112ZM479.529 362.216C479.977 362.216 480.373 362.104 480.719 361.88C481.064 361.647 481.335 361.329 481.531 360.928C481.736 360.527 481.839 360.079 481.839 359.584C481.839 359.08 481.736 358.632 481.531 358.24C481.335 357.839 481.064 357.526 480.719 357.302C480.373 357.069 479.977 356.952 479.529 356.952C479.081 356.952 478.684 357.069 478.339 357.302C477.993 357.526 477.718 357.839 477.513 358.24C477.317 358.632 477.219 359.08 477.219 359.584C477.219 360.079 477.317 360.527 477.513 360.928C477.718 361.329 477.993 361.647 478.339 361.88C478.684 362.104 479.081 362.216 479.529 362.216ZM484.64 363V356.168H485.662V357.274C485.923 356.863 486.236 356.56 486.6 356.364C486.964 356.159 487.375 356.056 487.832 356.056C488.327 356.056 488.756 356.163 489.12 356.378C489.493 356.583 489.783 356.877 489.988 357.26C490.203 357.633 490.31 358.072 490.31 358.576V363H489.288V358.87C489.288 358.263 489.12 357.787 488.784 357.442C488.457 357.087 488.014 356.91 487.454 356.91C487.081 356.91 486.74 356.999 486.432 357.176C486.124 357.353 485.867 357.615 485.662 357.96V363H484.64ZM495.296 363V362.258L499.216 357.974C499.524 357.638 499.762 357.344 499.93 357.092C500.107 356.831 500.229 356.588 500.294 356.364C500.369 356.14 500.406 355.902 500.406 355.65C500.406 355.155 500.21 354.749 499.818 354.432C499.435 354.105 498.945 353.942 498.348 353.942C497.891 353.942 497.466 354.031 497.074 354.208C496.682 354.385 496.243 354.693 495.758 355.132L495.17 354.432C495.683 353.965 496.201 353.62 496.724 353.396C497.247 353.163 497.793 353.046 498.362 353.046C498.95 353.046 499.473 353.158 499.93 353.382C500.387 353.597 500.747 353.895 501.008 354.278C501.269 354.661 501.4 355.099 501.4 355.594C501.4 355.921 501.358 356.224 501.274 356.504C501.19 356.775 501.041 357.069 500.826 357.386C500.611 357.694 500.303 358.067 499.902 358.506L496.556 362.132L501.61 362.118V363H495.296Z" fill="#151515"/>
<path fill-rule="evenodd" clip-rule="evenodd" d="M587.58 364.885L591 363.087L594.42 364.885C595.027 365.204 595.752 364.691 595.634 364.003L594.98 360.196L597.746 357.5C598.243 357.016 597.969 356.171 597.283 356.071L593.46 355.514L591.751 352.049C591.445 351.432 590.558 351.424 590.249 352.049L588.54 355.514L584.717 356.071C584.031 356.171 583.757 357.016 584.254 357.5L587.02 360.196L586.366 364.003C586.248 364.691 586.973 365.207 587.58 364.885Z" fill="#A3A3A3"/>
</g>
<path d="M265.333 35C265.333 36.4728 266.527 37.6667 268 37.6667C269.473 37.6667 270.667 36.4728 270.667 35C270.667 33.5272 269.473 32.3333 268 32.3333C266.527 32.3333 265.333 33.5272 265.333 35ZM268 35V35.5H285V35V34.5H268V35Z" fill="#C806CC"/>
<path d="M285 23C285 20.7909 286.791 19 289 19H319C321.209 19 323 20.7909 323 23V47C323 49.2091 321.209 51 319 51H289C286.791 51 285 49.2091 285 47V23Z" fill="#C806CC"/>
<path d="M303.888 41V30.254L301.62 31.208V29.624L304.536 28.4H305.67V41H303.888Z" fill="white"/>
<path d="M265.333 115C265.333 116.473 266.527 117.667 268 117.667C269.473 117.667 270.667 116.473 270.667 115C270.667 113.527 269.473 112.333 268 112.333C266.527 112.333 265.333 113.527 265.333 115ZM268 115V115.5H281V115V114.5H268V115Z" fill="#C806CC"/>
<path d="M281 103C281 100.791 282.791 99 285 99H319C321.209 99 323 100.791 323 103V127C323 129.209 321.209 131 319 131H285C282.791 131 281 129.209 281 127V103Z" fill="#C806CC"/>
<path d="M297.89 121V119.74L303.002 114.304C303.518 113.764 303.866 113.302 304.046 112.918C304.238 112.534 304.334 112.126 304.334 111.694C304.334 111.13 304.106 110.662 303.65 110.29C303.194 109.918 302.618 109.732 301.922 109.732C301.346 109.732 300.806 109.846 300.302 110.074C299.798 110.302 299.24 110.698 298.628 111.262L297.656 110.074C298.988 108.826 300.422 108.202 301.958 108.202C302.762 108.202 303.47 108.346 304.082 108.634C304.694 108.922 305.168 109.324 305.504 109.84C305.852 110.344 306.026 110.926 306.026 111.586C306.026 112.006 305.972 112.396 305.864 112.756C305.756 113.104 305.57 113.476 305.306 113.872C305.042 114.256 304.67 114.7 304.19 115.204L300.086 119.524L306.278 119.506V121H297.89Z" fill="white"/>
<path d="M608.333 118C608.333 119.473 609.527 120.667 611 120.667C612.473 120.667 613.667 119.473 613.667 118C613.667 116.527 612.473 115.333 611 115.333C609.527 115.333 608.333 116.527 608.333 118ZM611 118V118.5H640V118V117.5H611V118Z" fill="#C806CC"/>
<path d="M640 106C640 103.791 641.791 102 644 102H679C681.209 102 683 103.791 683 106V130C683 132.209 681.209 134 679 134H644C641.791 134 640 132.209 640 130V106Z" fill="#C806CC"/>
<path d="M661.359 124.198C660.459 124.198 659.613 124.042 658.821 123.73C658.041 123.406 657.363 122.944 656.787 122.344L657.957 121.228C658.461 121.756 658.971 122.134 659.487 122.362C660.015 122.578 660.633 122.686 661.341 122.686C662.193 122.686 662.883 122.476 663.411 122.056C663.951 121.636 664.221 121.096 664.221 120.436C664.221 119.812 663.993 119.308 663.537 118.924C663.093 118.54 662.517 118.348 661.809 118.348H660.279V116.89H661.683C662.319 116.89 662.829 116.704 663.213 116.332C663.597 115.96 663.789 115.474 663.789 114.874C663.789 114.466 663.681 114.106 663.465 113.794C663.249 113.47 662.949 113.218 662.565 113.038C662.193 112.846 661.767 112.75 661.287 112.75C660.651 112.75 660.087 112.864 659.595 113.092C659.115 113.308 658.617 113.692 658.101 114.244L656.931 113.128C657.507 112.504 658.173 112.03 658.929 111.706C659.685 111.37 660.483 111.202 661.323 111.202C662.139 111.202 662.859 111.352 663.483 111.652C664.119 111.952 664.617 112.366 664.977 112.894C665.349 113.422 665.535 114.028 665.535 114.712C665.535 115.384 665.313 115.978 664.869 116.494C664.437 117.01 663.867 117.37 663.159 117.574C664.011 117.754 664.689 118.114 665.193 118.654C665.697 119.182 665.949 119.806 665.949 120.526C665.949 121.234 665.751 121.864 665.355 122.416C664.971 122.968 664.431 123.406 663.735 123.73C663.039 124.042 662.247 124.198 661.359 124.198Z" fill="white"/>
<defs>
<filter id="filter0_d_1543_56466" x="27" y="48" width="250" height="257" filterUnits="userSpaceOnUse" color-interpolation-filters="sRGB">
<feFlood flood-opacity="0" result="BackgroundImageFix"/>
<feColorMatrix in="SourceAlpha" type="matrix" values="0 0 0 0 0 0 0 0 0 0 0 0 0 0 0 0 0 0 127 0" result="hardAlpha"/>
<feOffset dy="4"/>
<feGaussianBlur stdDeviation="4.5"/>
<feColorMatrix type="matrix" values="0 0 0 0 0.160784 0 0 0 0 0.160784 0 0 0 0 0.160784 0 0 0 0.15 0"/>
<feBlend mode="normal" in2="BackgroundImageFix" result="effect1_dropShadow_1543_56466"/>
<feBlend mode="normal" in="SourceGraphic" in2="effect1_dropShadow_1543_56466" result="shape"/>
</filter>
<filter id="filter1_d_1543_56466" x="388" y="48" width="251" height="354" filterUnits="userSpaceOnUse" color-interpolation-filters="sRGB">
<feFlood flood-opacity="0" result="BackgroundImageFix"/>
<feColorMatrix in="SourceAlpha" type="matrix" values="0 0 0 0 0 0 0 0 0 0 0 0 0 0 0 0 0 0 127 0" result="hardAlpha"/>
<feOffset dy="4"/>
<feGaussianBlur stdDeviation="4.5"/>
<feColorMatrix type="matrix" values="0 0 0 0 0.160784 0 0 0 0 0.160784 0 0 0 0 0.160784 0 0 0 0.15 0"/>
<feBlend mode="normal" in2="BackgroundImageFix" result="effect1_dropShadow_1543_56466"/>
<feBlend mode="normal" in="SourceGraphic" in2="effect1_dropShadow_1543_56466" result="shape"/>
</filter>
</defs>
</svg>
