<?xml version="1.0" encoding="utf-8"?>
<!-- Generator: Adobe Illustrator 19.2.1, SVG Export Plug-In . SVG Version: 6.00 Build 0)  -->
<svg version="1.1" id="Layer_1" xmlns="http://www.w3.org/2000/svg" xmlns:xlink="http://www.w3.org/1999/xlink" x="0px" y="0px"
	 viewBox="0 0 438 201.3" style="enable-background:new 0 0 438 201.3;" xml:space="preserve">
<style type="text/css">
	.st0{fill:#FFFFFF;}
	.st1{fill:#A21D21;}
	.st2{fill:#E02633;}
	.st3{fill:#97101B;}
	.st4{fill:#BC1C29;}
	.st5{fill:#4C1211;}
	.st6{fill:#8A181A;}
</style>
<g>
	<path class="st0" d="M290.2,0.2L243.4,75l46.1,73.2H243l-22.7-35.6L198,148.2h-47.6l45.8-73.4L148.7,0.2h47.5l23.3,37l23.1-37
		H290.2z"/>
	<g>
		<path class="st1" d="M290.1,0.2L243.3,75l46.1,73.2h-46.5l-22.6-35.7l-22.4,35.7h-47.5l45.8-73.4L148.6,0.2h47.5l23.3,37l23.1-37
			H290.1z"/>
	</g>
	<path class="st2" d="M64.5,148.2c-9.3,0-17.9-1.2-25.8-3.6s-14.7-6.2-20.4-11.5S8.1,121,4.9,112.7S0,94.4,0,82.7V0.4h41.8v83.4
		c0,9.2,1.9,16.3,5.6,21.5s9.6,7.8,17.6,7.8s22.8,0,22.8,0V0.4h41.8v147.8C129.8,148.2,73.8,148.2,64.5,148.2z"/>
	<g>
		<path class="st3" d="M242.8,0.2h47.5l-139.8,148L242.8,0.2z"/>
	</g>
	<g>
		<path class="st1" d="M289.6,148.2L148.8,0.2h47.6L289.6,148.2z"/>
	</g>
	<polygon class="st0" points="219.8,74.9 290.3,0.2 234.3,90.1 289.6,148.2 243.1,148.2 220.3,112.5 198.1,148.2 150.5,148.2 
		205.8,89.7 148.8,0.2 	"/>
	<polygon class="st4" points="198.1,148.2 150.5,148.2 290.3,0.2 	"/>
	<polygon class="st2" points="242.9,148.2 205.9,89.9 148.7,0 289.6,148.2 	"/>
	<path class="st2" d="M393.3,56.5c-1.2-4.9-3.1-8.9-5.8-12c-2.7-3.1-6.2-5.4-10.6-6.9c-4.4-1.5-9.7-2.2-16-2.2h-10.1v77.7h8.9
		c6.3,0,11.8-0.7,16.3-2s8.2-3.5,11.1-6.5c2.9-3,5-7,6.2-12c1.3-5,1.9-11.2,1.9-18.5C395.1,67.3,394.5,61.5,393.3,56.5z M432,108.6
		c-3.4,9.5-8.4,17.2-15.2,23c-6.8,5.8-15.1,10.1-25,12.7s-21.4,3.9-34.5,3.9h-47.9V0.4h51.7c11.5,0,22,1.2,31.5,3.6
		c9.4,2.4,17.4,6.4,24,12.1c6.5,5.7,11.6,13.2,15.2,22.5s5.4,20.9,5.4,34.8S435.4,99.1,432,108.6z"/>
	<g>
		<path class="st2" d="M1.2,201v-21.2h13.7v3.1H4.3v5.2h6.1v3.1H4.3v6.7h11v3.1L1.2,201L1.2,201z"/>
		<path class="st2" d="M38.5,201l-2.4-4.1c-0.2-0.3-0.4-0.7-0.6-1.1c-0.2-0.4-0.5-0.8-0.7-1.2c-0.2-0.4-0.4-0.8-0.6-1.1
			s-0.3-0.6-0.4-0.8c-0.1,0.2-0.2,0.5-0.4,0.8s-0.4,0.7-0.6,1.1s-0.5,0.8-0.7,1.2c-0.2,0.4-0.5,0.8-0.7,1.1L29,201h-3.7l6.6-11
			l-6.2-10.3h3.8l1.9,3.4c0.2,0.3,0.4,0.7,0.6,1.1s0.5,0.8,0.7,1.2c0.2,0.4,0.4,0.8,0.6,1.1c0.2,0.4,0.3,0.6,0.4,0.8
			c0.1-0.2,0.2-0.5,0.4-0.8s0.4-0.7,0.6-1.1c0.2-0.4,0.4-0.8,0.7-1.2c0.2-0.4,0.5-0.8,0.7-1.1l2-3.4h3.7L35.7,190l6.6,11H38.5z"/>
		<path class="st2" d="M67.9,189.3c-0.3,0.8-0.8,1.5-1.5,2.1c-0.6,0.6-1.4,1-2.2,1.3c-0.9,0.3-1.8,0.4-2.8,0.4h-5.5v7.9h-3.2v-21.2
			h8.9c1,0,1.9,0.1,2.7,0.4c0.8,0.3,1.6,0.7,2.2,1.3c0.6,0.6,1.1,1.2,1.4,2.1c0.3,0.8,0.5,1.8,0.5,2.9S68.2,188.4,67.9,189.3z
			 M64.2,183.7c-0.7-0.6-1.5-0.9-2.6-0.9h-5.7v7.3h5.7c1.2,0,2.1-0.3,2.7-1c0.6-0.6,0.9-1.5,0.9-2.7
			C65.2,185.2,64.8,184.3,64.2,183.7z"/>
		<path class="st2" d="M78.8,201v-21.2h13.6v3.1H81.9v5.2H88v3.1h-6.1v6.7h11v3.1L78.8,201L78.8,201z"/>
		<path class="st2" d="M118.4,190.2c-0.8,1-2,1.7-3.4,2.1l4.3,8.7h-3.7l-4.2-8.4h-4.8v8.4h-3.2v-21.2h9.3c0.9,0,1.8,0.1,2.6,0.4
			c0.8,0.3,1.5,0.6,2.2,1.2c0.6,0.5,1.1,1.2,1.5,2s0.5,1.7,0.5,2.8C119.6,187.8,119.2,189.2,118.4,190.2z M115.4,183.6
			c-0.7-0.6-1.5-0.9-2.6-0.9h-6.2v6.8h6.2c1.1,0,1.9-0.3,2.6-0.8c0.7-0.6,1-1.4,1-2.6C116.4,185.1,116.1,184.2,115.4,183.6z"/>
		<path class="st2" d="M131,201v-21.2h3.2V201H131z"/>
		<path class="st2" d="M146.4,201v-21.2h13.7v3.1h-10.5v5.2h6.1v3.1h-6.1v6.7h11v3.1L146.4,201L146.4,201z"/>
		<path class="st2" d="M184.2,201l-8.5-13.3c-0.3-0.4-0.6-0.9-0.9-1.4c-0.3-0.5-0.6-0.9-0.7-1.2c0,0.2,0,0.5,0,0.9s0,0.9,0,1.4
			s0,1,0,1.5s0,0.8,0,1.2v11H171v-21.2h3.2l8.1,13c0.1,0.2,0.3,0.5,0.5,0.8c0.2,0.3,0.3,0.6,0.5,0.9c0.2,0.3,0.3,0.6,0.5,0.8
			c0.1,0.2,0.3,0.4,0.3,0.6c0-0.2,0-0.5,0-0.9s0-0.9,0-1.4s0-1,0-1.5s0-0.9,0-1.2v-11h3.1v21L184.2,201L184.2,201z"/>
		<path class="st2" d="M211.6,200.3c-1.2,0.7-2.7,1-4.3,1c-1.4,0-2.6-0.3-3.7-0.8c-1.1-0.5-2-1.3-2.8-2.3c-0.8-1-1.4-2.1-1.8-3.5
			c-0.4-1.3-0.6-2.8-0.6-4.4s0.2-3.1,0.6-4.4c0.4-1.3,1-2.5,1.8-3.5c0.8-1,1.7-1.7,2.8-2.3c1.1-0.5,2.3-0.8,3.7-0.8
			c1.7,0,3.2,0.3,4.4,1s2.1,1.7,2.9,3l-2.8,1.8c-0.5-0.9-1.1-1.5-1.8-1.9c-0.6-0.4-1.5-0.6-2.6-0.6c-1.9,0-3.3,0.7-4.2,2.1
			c-0.9,1.4-1.5,3.3-1.5,5.7s0.5,4.3,1.5,5.7c1,1.4,2.4,2.1,4.2,2.1c1.1,0,2-0.2,2.8-0.7c0.7-0.4,1.4-1.1,1.9-2l2.6,1.8
			C213.9,198.6,212.9,199.6,211.6,200.3z"/>
		<path class="st2" d="M225.3,201v-21.2H239v3.1h-10.6v5.2h6.1v3.1h-6.1v6.7h11v3.1L225.3,201L225.3,201z"/>
		<path class="st2" d="M281.6,201v-11.2c0-0.3,0-0.7,0-1c0-0.4,0-0.7,0-1.1s0-0.7,0-1s0-0.5,0-0.7c-0.1,0.3-0.3,0.8-0.6,1.4
			c-0.3,0.7-0.5,1.3-0.8,1.9l-5.1,12l-5.1-12c-0.3-0.6-0.5-1.2-0.8-1.9c-0.3-0.7-0.5-1.1-0.6-1.4c0,0.2,0,0.4,0,0.7s0,0.6,0,1
			s0,0.7,0,1.1s0,0.7,0,1V201h-3v-21.2h3.3l4.8,11.3c0.3,0.6,0.5,1.3,0.8,1.9c0.3,0.7,0.5,1.3,0.6,1.7c0.2-0.4,0.4-1,0.6-1.7
			c0.3-0.7,0.5-1.3,0.8-2l4.7-11.3h3.4V201L281.6,201L281.6,201z"/>
		<path class="st2" d="M310.6,201l-1.8-5h-8.5l-1.8,5h-3.3l7.6-21.2h3.4l7.7,21.2H310.6z M306.1,188.2c-0.1-0.4-0.3-0.8-0.4-1.3
			c-0.2-0.5-0.3-0.9-0.5-1.4c-0.2-0.5-0.3-0.9-0.4-1.3c-0.1-0.4-0.2-0.7-0.3-0.9c-0.1,0.2-0.2,0.5-0.3,0.9s-0.3,0.8-0.4,1.3
			c-0.1,0.5-0.3,0.9-0.4,1.4c-0.1,0.5-0.3,0.9-0.4,1.3l-1.7,4.9h6.6L306.1,188.2z"/>
		<path class="st2" d="M329.9,182.9V201h-3.2v-18.1h-6.2v-3.1H336v3.1H329.9z"/>
		<path class="st2" d="M355.2,182.9V201H352v-18.1h-6.2v-3.1h15.6v3.1H355.2z"/>
		<path class="st2" d="M371.8,201v-21.2h13.7v3.1H375v5.2h6.1v3.1H375v6.7h11v3.1L371.8,201L371.8,201z"/>
		<path class="st2" d="M411.4,190.2c-0.8,1-2,1.7-3.4,2.1l4.3,8.7h-3.7l-4.2-8.4h-4.8v8.4h-3.2v-21.2h9.3c0.9,0,1.8,0.1,2.6,0.4
			c0.8,0.3,1.5,0.6,2.2,1.2c0.6,0.5,1.1,1.2,1.5,2s0.5,1.7,0.5,2.8C412.7,187.8,412.3,189.2,411.4,190.2z M408.5,183.6
			c-0.7-0.6-1.5-0.9-2.6-0.9h-6.2v6.8h6.2c1.1,0,1.9-0.3,2.6-0.8c0.7-0.6,1-1.4,1-2.6C409.5,185.1,409.1,184.2,408.5,183.6z"/>
		<path class="st2" d="M437.4,197.5c-0.3,0.8-0.8,1.5-1.4,2c-0.6,0.6-1.5,1-2.4,1.3s-2.2,0.5-3.5,0.5c-1.6,0-3-0.3-4.3-0.9
			s-2.4-1.5-3.3-2.5l2.3-2.2c0.7,0.8,1.6,1.4,2.5,1.8s2,0.7,3,0.7c2.9,0,4.4-1,4.4-3.1c0-0.4-0.1-0.8-0.2-1.1
			c-0.2-0.3-0.4-0.6-0.8-0.9s-0.9-0.5-1.5-0.8c-0.6-0.2-1.4-0.5-2.2-0.8c-1.1-0.3-2.1-0.7-2.9-1s-1.5-0.7-2.1-1.2
			c-0.5-0.5-1-1-1.2-1.7c-0.2-0.7-0.4-1.4-0.4-2.4c0-0.9,0.2-1.7,0.5-2.5c0.4-0.7,0.9-1.4,1.5-1.9c0.6-0.5,1.4-0.9,2.2-1.2
			c0.9-0.3,1.8-0.4,2.7-0.4c1.5,0,2.7,0.3,3.9,0.8c1.1,0.5,2.1,1.2,3.1,2.1l-2.2,2.3c-0.7-0.7-1.4-1.2-2.2-1.5
			c-0.8-0.3-1.7-0.5-2.8-0.5c-1.3,0-2.2,0.3-2.7,0.8s-0.8,1.1-0.8,1.9c0,0.4,0.1,0.7,0.2,1s0.4,0.6,0.7,0.8s0.8,0.5,1.4,0.7
			s1.4,0.5,2.3,0.8c1.1,0.3,2,0.7,2.8,1s1.6,0.8,2.1,1.2c0.5,0.4,1,1.1,1.4,1.7c0.3,0.7,0.5,1.5,0.5,2.4S437.7,196.7,437.4,197.5z"
			/>
	</g>
	<polygon class="st5" points="219.6,37.3 233.9,59.9 219.8,74.9 205.6,59.9 	"/>
	<polygon class="st6" points="220.3,112.5 234.3,90.1 219.8,74.9 205.8,89.7 	"/>
</g>
</svg>
