<svg width="263" height="249" viewBox="0 0 263 249" fill="none" xmlns="http://www.w3.org/2000/svg">
<rect width="263" height="249" fill="white"/>
<mask id="path-1-inside-1_1544_58798" fill="white">
<path d="M82 30C82 26.6863 84.6863 24 88 24H216C219.314 24 222 26.6863 222 30V55C222 58.3137 219.314 61 216 61H88C84.6863 61 82 58.3137 82 55V30Z"/>
</mask>
<path d="M82 30C82 26.6863 84.6863 24 88 24H216C219.314 24 222 26.6863 222 30V55C222 58.3137 219.314 61 216 61H88C84.6863 61 82 58.3137 82 55V30Z" fill="white"/>
<path d="M88 24V26H216V24V22H88V24ZM222 30H220V55H222H224V30H222ZM216 61V59H88V61V63H216V61ZM82 55H84V30H82H80V55H82ZM88 61V59C85.7909 59 84 57.2091 84 55H82H80C80 59.4183 83.5817 63 88 63V61ZM222 55H220C220 57.2091 218.209 59 216 59V61V63C220.418 63 224 59.4183 224 55H222ZM216 24V26C218.209 26 220 27.7909 220 30H222H224C224 25.5817 220.418 22 216 22V24ZM88 24V22C83.5817 22 80 25.5817 80 30H82H84C84 27.7909 85.7909 26 88 26V24Z" fill="#0066CC" mask="url(#path-1-inside-1_1544_58798)"/>
<path d="M99.246 47V37.2H100.744L104.02 44.172L107.296 37.2H108.794V47H107.772V38.474L104.02 46.3L100.254 38.446V47H99.246ZM114.175 47.14C113.54 47.14 112.966 46.986 112.453 46.678C111.94 46.3607 111.534 45.936 111.235 45.404C110.936 44.8627 110.787 44.256 110.787 43.584C110.787 42.912 110.927 42.31 111.207 41.778C111.496 41.246 111.884 40.826 112.369 40.518C112.854 40.21 113.396 40.056 113.993 40.056C114.6 40.056 115.136 40.21 115.603 40.518C116.079 40.8167 116.452 41.2273 116.723 41.75C117.003 42.2633 117.143 42.8467 117.143 43.5V43.808H111.781C111.818 44.2747 111.944 44.6947 112.159 45.068C112.383 45.432 112.672 45.7213 113.027 45.936C113.391 46.1413 113.788 46.244 114.217 46.244C114.572 46.244 114.912 46.1833 115.239 46.062C115.575 45.9313 115.86 45.7587 116.093 45.544L116.737 46.23C116.345 46.538 115.939 46.7667 115.519 46.916C115.099 47.0653 114.651 47.14 114.175 47.14ZM111.809 43.08H116.135C116.088 42.6693 115.962 42.3053 115.757 41.988C115.561 41.6613 115.309 41.4047 115.001 41.218C114.702 41.0313 114.366 40.938 113.993 40.938C113.62 40.938 113.279 41.0313 112.971 41.218C112.663 41.3953 112.406 41.6473 112.201 41.974C112.005 42.2913 111.874 42.66 111.809 43.08ZM118.888 47V40.168H119.91V41.274C120.171 40.8633 120.484 40.56 120.848 40.364C121.212 40.1587 121.623 40.056 122.08 40.056C122.575 40.056 123.004 40.1633 123.368 40.378C123.741 40.5833 124.031 40.8773 124.236 41.26C124.451 41.6333 124.558 42.072 124.558 42.576V47H123.536V42.87C123.536 42.2633 123.368 41.7873 123.032 41.442C122.705 41.0873 122.262 40.91 121.702 40.91C121.329 40.91 120.988 40.9987 120.68 41.176C120.372 41.3533 120.115 41.6147 119.91 41.96V47H118.888ZM128.98 47.112C128.495 47.112 128.065 47.0047 127.692 46.79C127.319 46.5753 127.025 46.2767 126.81 45.894C126.605 45.5113 126.502 45.0727 126.502 44.578V40.168H127.538V44.284C127.538 44.8907 127.701 45.3713 128.028 45.726C128.355 46.0807 128.798 46.258 129.358 46.258C129.741 46.258 130.081 46.1693 130.38 45.992C130.688 45.8147 130.945 45.558 131.15 45.222V40.168H132.172V47H131.15V45.894C130.889 46.2953 130.576 46.5987 130.212 46.804C129.857 47.0093 129.447 47.112 128.98 47.112ZM140.14 47.14C139.552 47.14 139.104 47 138.796 46.72C138.498 46.4307 138.348 46.0153 138.348 45.474V41.008H136.934V40.168H138.348V38.292L139.37 38.054V40.168H141.33V41.008H139.37V45.208C139.37 45.572 139.445 45.8333 139.594 45.992C139.753 46.1507 140.01 46.23 140.364 46.23C140.542 46.23 140.7 46.216 140.84 46.188C140.98 46.16 141.144 46.1133 141.33 46.048V46.958C141.144 47.0233 140.948 47.07 140.742 47.098C140.537 47.126 140.336 47.14 140.14 47.14ZM145.715 47.112C145.08 47.112 144.511 46.958 144.007 46.65C143.503 46.342 143.106 45.922 142.817 45.39C142.527 44.858 142.383 44.256 142.383 43.584C142.383 42.912 142.527 42.31 142.817 41.778C143.106 41.246 143.503 40.826 144.007 40.518C144.511 40.21 145.08 40.056 145.715 40.056C146.34 40.056 146.9 40.21 147.395 40.518C147.899 40.826 148.295 41.246 148.585 41.778C148.874 42.31 149.019 42.912 149.019 43.584C149.019 44.256 148.874 44.858 148.585 45.39C148.295 45.922 147.899 46.342 147.395 46.65C146.9 46.958 146.34 47.112 145.715 47.112ZM145.701 46.216C146.149 46.216 146.545 46.104 146.891 45.88C147.236 45.6467 147.507 45.3293 147.703 44.928C147.908 44.5267 148.011 44.0787 148.011 43.584C148.011 43.08 147.908 42.632 147.703 42.24C147.507 41.8387 147.236 41.526 146.891 41.302C146.545 41.0687 146.149 40.952 145.701 40.952C145.253 40.952 144.856 41.0687 144.511 41.302C144.165 41.526 143.89 41.8387 143.685 42.24C143.489 42.632 143.391 43.08 143.391 43.584C143.391 44.0787 143.489 44.5267 143.685 44.928C143.89 45.3293 144.165 45.6467 144.511 45.88C144.856 46.104 145.253 46.216 145.701 46.216ZM153.976 50.066C153.518 50.066 153.056 50.0007 152.59 49.87C152.132 49.7487 151.708 49.576 151.316 49.352L151.75 48.568C152.17 48.7827 152.552 48.9413 152.898 49.044C153.243 49.1467 153.588 49.198 153.934 49.198C154.559 49.198 155.03 49.0487 155.348 48.75C155.674 48.4513 155.838 48.0173 155.838 47.448V46.076C155.576 46.4027 155.259 46.6547 154.886 46.832C154.512 47 154.102 47.084 153.654 47.084C153.066 47.084 152.534 46.93 152.058 46.622C151.582 46.3047 151.204 45.8847 150.924 45.362C150.644 44.83 150.504 44.2373 150.504 43.584C150.504 42.9307 150.644 42.3427 150.924 41.82C151.213 41.288 151.6 40.868 152.086 40.56C152.571 40.2427 153.112 40.084 153.71 40.084C154.139 40.084 154.536 40.168 154.9 40.336C155.264 40.4947 155.581 40.7327 155.852 41.05V40.168H156.86V47.434C156.86 48.2833 156.612 48.932 156.118 49.38C155.623 49.8373 154.909 50.066 153.976 50.066ZM153.906 46.202C154.307 46.202 154.676 46.1227 155.012 45.964C155.348 45.796 155.623 45.5673 155.838 45.278V41.904C155.614 41.6147 155.329 41.3907 154.984 41.232C154.648 41.064 154.288 40.98 153.906 40.98C153.448 40.98 153.038 41.092 152.674 41.316C152.319 41.54 152.034 41.848 151.82 42.24C151.614 42.632 151.512 43.08 151.512 43.584C151.512 44.0787 151.614 44.5267 151.82 44.928C152.034 45.32 152.319 45.6327 152.674 45.866C153.038 46.09 153.448 46.202 153.906 46.202ZM162.124 50.066C161.667 50.066 161.205 50.0007 160.738 49.87C160.281 49.7487 159.856 49.576 159.464 49.352L159.898 48.568C160.318 48.7827 160.701 48.9413 161.046 49.044C161.391 49.1467 161.737 49.198 162.082 49.198C162.707 49.198 163.179 49.0487 163.496 48.75C163.823 48.4513 163.986 48.0173 163.986 47.448V46.076C163.725 46.4027 163.407 46.6547 163.034 46.832C162.661 47 162.25 47.084 161.802 47.084C161.214 47.084 160.682 46.93 160.206 46.622C159.73 46.3047 159.352 45.8847 159.072 45.362C158.792 44.83 158.652 44.2373 158.652 43.584C158.652 42.9307 158.792 42.3427 159.072 41.82C159.361 41.288 159.749 40.868 160.234 40.56C160.719 40.2427 161.261 40.084 161.858 40.084C162.287 40.084 162.684 40.168 163.048 40.336C163.412 40.4947 163.729 40.7327 164 41.05V40.168H165.008V47.434C165.008 48.2833 164.761 48.932 164.266 49.38C163.771 49.8373 163.057 50.066 162.124 50.066ZM162.054 46.202C162.455 46.202 162.824 46.1227 163.16 45.964C163.496 45.796 163.771 45.5673 163.986 45.278V41.904C163.762 41.6147 163.477 41.3907 163.132 41.232C162.796 41.064 162.437 40.98 162.054 40.98C161.597 40.98 161.186 41.092 160.822 41.316C160.467 41.54 160.183 41.848 159.968 42.24C159.763 42.632 159.66 43.08 159.66 43.584C159.66 44.0787 159.763 44.5267 159.968 44.928C160.183 45.32 160.467 45.6327 160.822 45.866C161.186 46.09 161.597 46.202 162.054 46.202ZM167.109 47V36.892L168.131 36.682V47H167.109ZM173.306 47.14C172.671 47.14 172.097 46.986 171.584 46.678C171.07 46.3607 170.664 45.936 170.366 45.404C170.067 44.8627 169.918 44.256 169.918 43.584C169.918 42.912 170.058 42.31 170.338 41.778C170.627 41.246 171.014 40.826 171.5 40.518C171.985 40.21 172.526 40.056 173.124 40.056C173.73 40.056 174.267 40.21 174.734 40.518C175.21 40.8167 175.583 41.2273 175.854 41.75C176.134 42.2633 176.274 42.8467 176.274 43.5V43.808H170.912C170.949 44.2747 171.075 44.6947 171.29 45.068C171.514 45.432 171.803 45.7213 172.158 45.936C172.522 46.1413 172.918 46.244 173.348 46.244C173.702 46.244 174.043 46.1833 174.37 46.062C174.706 45.9313 174.99 45.7587 175.224 45.544L175.868 46.23C175.476 46.538 175.07 46.7667 174.65 46.916C174.23 47.0653 173.782 47.14 173.306 47.14ZM170.94 43.08H175.266C175.219 42.6693 175.093 42.3053 174.888 41.988C174.692 41.6613 174.44 41.4047 174.132 41.218C173.833 41.0313 173.497 40.938 173.124 40.938C172.75 40.938 172.41 41.0313 172.102 41.218C171.794 41.3953 171.537 41.6473 171.332 41.974C171.136 42.2913 171.005 42.66 170.94 43.08Z" fill="#151515"/>
<path fill-rule="evenodd" clip-rule="evenodd" d="M196.389 45.1715L199.921 41.6103C200.267 41.2617 200.023 40.6667 199.534 40.6667H192.466C191.977 40.6667 191.733 41.2617 192.079 41.6103L195.611 45.1715C195.826 45.3874 196.174 45.3874 196.389 45.1715Z" fill="#1F1F1F"/>
<g filter="url(#filter0_d_1544_58798)">
<path d="M82 67C82 63.6863 84.6863 61 88 61H216C219.314 61 222 63.6863 222 67V219C222 222.314 219.314 225 216 225H88C84.6863 225 82 222.314 82 219V67Z" fill="white"/>
<path d="M111.67 92.154C110.989 92.154 110.354 92.028 109.766 91.776C109.178 91.5147 108.66 91.1553 108.212 90.698C107.773 90.2313 107.428 89.6947 107.176 89.088C106.924 88.472 106.798 87.8093 106.798 87.1C106.798 86.3907 106.924 85.7327 107.176 85.126C107.428 84.51 107.773 83.9733 108.212 83.516C108.66 83.0493 109.178 82.69 109.766 82.438C110.354 82.1767 110.989 82.046 111.67 82.046C112.351 82.046 112.986 82.1767 113.574 82.438C114.162 82.69 114.675 83.0493 115.114 83.516C115.562 83.9733 115.912 84.51 116.164 85.126C116.416 85.7327 116.542 86.3907 116.542 87.1C116.542 87.8093 116.416 88.472 116.164 89.088C115.912 89.6947 115.562 90.2313 115.114 90.698C114.675 91.1553 114.162 91.5147 113.574 91.776C112.986 92.028 112.351 92.154 111.67 92.154ZM111.67 91.174C112.202 91.174 112.697 91.0713 113.154 90.866C113.611 90.6607 114.013 90.3713 114.358 89.998C114.703 89.6247 114.969 89.1907 115.156 88.696C115.352 88.2013 115.45 87.6693 115.45 87.1C115.45 86.5213 115.352 85.9893 115.156 85.504C114.969 85.0093 114.703 84.5753 114.358 84.202C114.013 83.8287 113.611 83.5393 113.154 83.334C112.697 83.1287 112.202 83.026 111.67 83.026C111.138 83.026 110.643 83.1287 110.186 83.334C109.729 83.5393 109.327 83.8287 108.982 84.202C108.637 84.5753 108.366 85.0093 108.17 85.504C107.983 85.9893 107.89 86.5167 107.89 87.086C107.89 87.6647 107.983 88.2013 108.17 88.696C108.366 89.1907 108.637 89.6247 108.982 89.998C109.327 90.3713 109.729 90.6607 110.186 90.866C110.643 91.0713 111.138 91.174 111.67 91.174ZM118.384 94.926V85.168H119.392V86.148C119.653 85.8027 119.971 85.5413 120.344 85.364C120.727 85.1773 121.147 85.084 121.604 85.084C122.201 85.084 122.733 85.2427 123.2 85.56C123.676 85.868 124.054 86.288 124.334 86.82C124.614 87.3427 124.754 87.9307 124.754 88.584C124.754 89.2373 124.609 89.83 124.32 90.362C124.04 90.894 123.657 91.3187 123.172 91.636C122.696 91.944 122.155 92.098 121.548 92.098C121.119 92.098 120.722 92.0187 120.358 91.86C119.994 91.692 119.677 91.454 119.406 91.146V94.926H118.384ZM121.352 91.216C121.809 91.216 122.215 91.104 122.57 90.88C122.934 90.6467 123.219 90.334 123.424 89.942C123.639 89.5407 123.746 89.0927 123.746 88.598C123.746 88.094 123.639 87.646 123.424 87.254C123.219 86.862 122.934 86.554 122.57 86.33C122.215 86.0967 121.809 85.98 121.352 85.98C120.951 85.98 120.577 86.064 120.232 86.232C119.896 86.3907 119.621 86.6193 119.406 86.918V90.264C119.63 90.5627 119.91 90.796 120.246 90.964C120.591 91.132 120.96 91.216 121.352 91.216ZM128.726 92.14C128.138 92.14 127.69 92 127.382 91.72C127.084 91.4307 126.934 91.0153 126.934 90.474V86.008H125.52V85.168H126.934V83.292L127.956 83.054V85.168H129.916V86.008H127.956V90.208C127.956 90.572 128.031 90.8333 128.18 90.992C128.339 91.1507 128.596 91.23 128.95 91.23C129.128 91.23 129.286 91.216 129.426 91.188C129.566 91.16 129.73 91.1133 129.916 91.048V91.958C129.73 92.0233 129.534 92.07 129.328 92.098C129.123 92.126 128.922 92.14 128.726 92.14ZM131.399 92V85.168H132.421V92H131.399ZM131.917 83.474C131.712 83.474 131.535 83.404 131.385 83.264C131.245 83.1147 131.175 82.942 131.175 82.746C131.175 82.55 131.245 82.382 131.385 82.242C131.535 82.0927 131.712 82.018 131.917 82.018C132.123 82.018 132.295 82.0927 132.435 82.242C132.585 82.382 132.659 82.55 132.659 82.746C132.659 82.942 132.585 83.1147 132.435 83.264C132.295 83.404 132.123 83.474 131.917 83.474ZM137.541 92.112C136.906 92.112 136.337 91.958 135.833 91.65C135.329 91.342 134.932 90.922 134.643 90.39C134.353 89.858 134.209 89.256 134.209 88.584C134.209 87.912 134.353 87.31 134.643 86.778C134.932 86.246 135.329 85.826 135.833 85.518C136.337 85.21 136.906 85.056 137.541 85.056C138.166 85.056 138.726 85.21 139.221 85.518C139.725 85.826 140.121 86.246 140.411 86.778C140.7 87.31 140.845 87.912 140.845 88.584C140.845 89.256 140.7 89.858 140.411 90.39C140.121 90.922 139.725 91.342 139.221 91.65C138.726 91.958 138.166 92.112 137.541 92.112ZM137.527 91.216C137.975 91.216 138.371 91.104 138.717 90.88C139.062 90.6467 139.333 90.3293 139.529 89.928C139.734 89.5267 139.837 89.0787 139.837 88.584C139.837 88.08 139.734 87.632 139.529 87.24C139.333 86.8387 139.062 86.526 138.717 86.302C138.371 86.0687 137.975 85.952 137.527 85.952C137.079 85.952 136.682 86.0687 136.337 86.302C135.991 86.526 135.716 86.8387 135.511 87.24C135.315 87.632 135.217 88.08 135.217 88.584C135.217 89.0787 135.315 89.5267 135.511 89.928C135.716 90.3293 135.991 90.6467 136.337 90.88C136.682 91.104 137.079 91.216 137.527 91.216ZM142.638 92V85.168H143.66V86.274C143.921 85.8633 144.234 85.56 144.598 85.364C144.962 85.1587 145.373 85.056 145.83 85.056C146.325 85.056 146.754 85.1633 147.118 85.378C147.491 85.5833 147.781 85.8773 147.986 86.26C148.201 86.6333 148.308 87.072 148.308 87.576V92H147.286V87.87C147.286 87.2633 147.118 86.7873 146.782 86.442C146.455 86.0873 146.012 85.91 145.452 85.91C145.079 85.91 144.738 85.9987 144.43 86.176C144.122 86.3533 143.865 86.6147 143.66 86.96V92H142.638ZM154.722 92V83.292L153.154 83.992V83.068L155.1 82.2H155.73V92H154.722Z" fill="#151515"/>
<path d="M111.67 129.154C110.989 129.154 110.354 129.028 109.766 128.776C109.178 128.515 108.66 128.155 108.212 127.698C107.773 127.231 107.428 126.695 107.176 126.088C106.924 125.472 106.798 124.809 106.798 124.1C106.798 123.391 106.924 122.733 107.176 122.126C107.428 121.51 107.773 120.973 108.212 120.516C108.66 120.049 109.178 119.69 109.766 119.438C110.354 119.177 110.989 119.046 111.67 119.046C112.351 119.046 112.986 119.177 113.574 119.438C114.162 119.69 114.675 120.049 115.114 120.516C115.562 120.973 115.912 121.51 116.164 122.126C116.416 122.733 116.542 123.391 116.542 124.1C116.542 124.809 116.416 125.472 116.164 126.088C115.912 126.695 115.562 127.231 115.114 127.698C114.675 128.155 114.162 128.515 113.574 128.776C112.986 129.028 112.351 129.154 111.67 129.154ZM111.67 128.174C112.202 128.174 112.697 128.071 113.154 127.866C113.611 127.661 114.013 127.371 114.358 126.998C114.703 126.625 114.969 126.191 115.156 125.696C115.352 125.201 115.45 124.669 115.45 124.1C115.45 123.521 115.352 122.989 115.156 122.504C114.969 122.009 114.703 121.575 114.358 121.202C114.013 120.829 113.611 120.539 113.154 120.334C112.697 120.129 112.202 120.026 111.67 120.026C111.138 120.026 110.643 120.129 110.186 120.334C109.729 120.539 109.327 120.829 108.982 121.202C108.637 121.575 108.366 122.009 108.17 122.504C107.983 122.989 107.89 123.517 107.89 124.086C107.89 124.665 107.983 125.201 108.17 125.696C108.366 126.191 108.637 126.625 108.982 126.998C109.327 127.371 109.729 127.661 110.186 127.866C110.643 128.071 111.138 128.174 111.67 128.174ZM118.384 131.926V122.168H119.392V123.148C119.653 122.803 119.971 122.541 120.344 122.364C120.727 122.177 121.147 122.084 121.604 122.084C122.201 122.084 122.733 122.243 123.2 122.56C123.676 122.868 124.054 123.288 124.334 123.82C124.614 124.343 124.754 124.931 124.754 125.584C124.754 126.237 124.609 126.83 124.32 127.362C124.04 127.894 123.657 128.319 123.172 128.636C122.696 128.944 122.155 129.098 121.548 129.098C121.119 129.098 120.722 129.019 120.358 128.86C119.994 128.692 119.677 128.454 119.406 128.146V131.926H118.384ZM121.352 128.216C121.809 128.216 122.215 128.104 122.57 127.88C122.934 127.647 123.219 127.334 123.424 126.942C123.639 126.541 123.746 126.093 123.746 125.598C123.746 125.094 123.639 124.646 123.424 124.254C123.219 123.862 122.934 123.554 122.57 123.33C122.215 123.097 121.809 122.98 121.352 122.98C120.951 122.98 120.577 123.064 120.232 123.232C119.896 123.391 119.621 123.619 119.406 123.918V127.264C119.63 127.563 119.91 127.796 120.246 127.964C120.591 128.132 120.96 128.216 121.352 128.216ZM128.726 129.14C128.138 129.14 127.69 129 127.382 128.72C127.084 128.431 126.934 128.015 126.934 127.474V123.008H125.52V122.168H126.934V120.292L127.956 120.054V122.168H129.916V123.008H127.956V127.208C127.956 127.572 128.031 127.833 128.18 127.992C128.339 128.151 128.596 128.23 128.95 128.23C129.128 128.23 129.286 128.216 129.426 128.188C129.566 128.16 129.73 128.113 129.916 128.048V128.958C129.73 129.023 129.534 129.07 129.328 129.098C129.123 129.126 128.922 129.14 128.726 129.14ZM131.399 129V122.168H132.421V129H131.399ZM131.917 120.474C131.712 120.474 131.535 120.404 131.385 120.264C131.245 120.115 131.175 119.942 131.175 119.746C131.175 119.55 131.245 119.382 131.385 119.242C131.535 119.093 131.712 119.018 131.917 119.018C132.123 119.018 132.295 119.093 132.435 119.242C132.585 119.382 132.659 119.55 132.659 119.746C132.659 119.942 132.585 120.115 132.435 120.264C132.295 120.404 132.123 120.474 131.917 120.474ZM137.541 129.112C136.906 129.112 136.337 128.958 135.833 128.65C135.329 128.342 134.932 127.922 134.643 127.39C134.353 126.858 134.209 126.256 134.209 125.584C134.209 124.912 134.353 124.31 134.643 123.778C134.932 123.246 135.329 122.826 135.833 122.518C136.337 122.21 136.906 122.056 137.541 122.056C138.166 122.056 138.726 122.21 139.221 122.518C139.725 122.826 140.121 123.246 140.411 123.778C140.7 124.31 140.845 124.912 140.845 125.584C140.845 126.256 140.7 126.858 140.411 127.39C140.121 127.922 139.725 128.342 139.221 128.65C138.726 128.958 138.166 129.112 137.541 129.112ZM137.527 128.216C137.975 128.216 138.371 128.104 138.717 127.88C139.062 127.647 139.333 127.329 139.529 126.928C139.734 126.527 139.837 126.079 139.837 125.584C139.837 125.08 139.734 124.632 139.529 124.24C139.333 123.839 139.062 123.526 138.717 123.302C138.371 123.069 137.975 122.952 137.527 122.952C137.079 122.952 136.682 123.069 136.337 123.302C135.991 123.526 135.716 123.839 135.511 124.24C135.315 124.632 135.217 125.08 135.217 125.584C135.217 126.079 135.315 126.527 135.511 126.928C135.716 127.329 135.991 127.647 136.337 127.88C136.682 128.104 137.079 128.216 137.527 128.216ZM142.638 129V122.168H143.66V123.274C143.921 122.863 144.234 122.56 144.598 122.364C144.962 122.159 145.373 122.056 145.83 122.056C146.325 122.056 146.754 122.163 147.118 122.378C147.491 122.583 147.781 122.877 147.986 123.26C148.201 123.633 148.308 124.072 148.308 124.576V129H147.286V124.87C147.286 124.263 147.118 123.787 146.782 123.442C146.455 123.087 146.012 122.91 145.452 122.91C145.079 122.91 144.738 122.999 144.43 123.176C144.122 123.353 143.865 123.615 143.66 123.96V129H142.638ZM153.294 129V128.258L157.214 123.974C157.522 123.638 157.76 123.344 157.928 123.092C158.105 122.831 158.227 122.588 158.292 122.364C158.367 122.14 158.404 121.902 158.404 121.65C158.404 121.155 158.208 120.749 157.816 120.432C157.433 120.105 156.943 119.942 156.346 119.942C155.889 119.942 155.464 120.031 155.072 120.208C154.68 120.385 154.241 120.693 153.756 121.132L153.168 120.432C153.681 119.965 154.199 119.62 154.722 119.396C155.245 119.163 155.791 119.046 156.36 119.046C156.948 119.046 157.471 119.158 157.928 119.382C158.385 119.597 158.745 119.895 159.006 120.278C159.267 120.661 159.398 121.099 159.398 121.594C159.398 121.921 159.356 122.224 159.272 122.504C159.188 122.775 159.039 123.069 158.824 123.386C158.609 123.694 158.301 124.067 157.9 124.506L154.554 128.132L159.608 128.118V129H153.294Z" fill="#151515"/>
<path d="M111.67 166.154C110.989 166.154 110.354 166.028 109.766 165.776C109.178 165.515 108.66 165.155 108.212 164.698C107.773 164.231 107.428 163.695 107.176 163.088C106.924 162.472 106.798 161.809 106.798 161.1C106.798 160.391 106.924 159.733 107.176 159.126C107.428 158.51 107.773 157.973 108.212 157.516C108.66 157.049 109.178 156.69 109.766 156.438C110.354 156.177 110.989 156.046 111.67 156.046C112.351 156.046 112.986 156.177 113.574 156.438C114.162 156.69 114.675 157.049 115.114 157.516C115.562 157.973 115.912 158.51 116.164 159.126C116.416 159.733 116.542 160.391 116.542 161.1C116.542 161.809 116.416 162.472 116.164 163.088C115.912 163.695 115.562 164.231 115.114 164.698C114.675 165.155 114.162 165.515 113.574 165.776C112.986 166.028 112.351 166.154 111.67 166.154ZM111.67 165.174C112.202 165.174 112.697 165.071 113.154 164.866C113.611 164.661 114.013 164.371 114.358 163.998C114.703 163.625 114.969 163.191 115.156 162.696C115.352 162.201 115.45 161.669 115.45 161.1C115.45 160.521 115.352 159.989 115.156 159.504C114.969 159.009 114.703 158.575 114.358 158.202C114.013 157.829 113.611 157.539 113.154 157.334C112.697 157.129 112.202 157.026 111.67 157.026C111.138 157.026 110.643 157.129 110.186 157.334C109.729 157.539 109.327 157.829 108.982 158.202C108.637 158.575 108.366 159.009 108.17 159.504C107.983 159.989 107.89 160.517 107.89 161.086C107.89 161.665 107.983 162.201 108.17 162.696C108.366 163.191 108.637 163.625 108.982 163.998C109.327 164.371 109.729 164.661 110.186 164.866C110.643 165.071 111.138 165.174 111.67 165.174ZM118.384 168.926V159.168H119.392V160.148C119.653 159.803 119.971 159.541 120.344 159.364C120.727 159.177 121.147 159.084 121.604 159.084C122.201 159.084 122.733 159.243 123.2 159.56C123.676 159.868 124.054 160.288 124.334 160.82C124.614 161.343 124.754 161.931 124.754 162.584C124.754 163.237 124.609 163.83 124.32 164.362C124.04 164.894 123.657 165.319 123.172 165.636C122.696 165.944 122.155 166.098 121.548 166.098C121.119 166.098 120.722 166.019 120.358 165.86C119.994 165.692 119.677 165.454 119.406 165.146V168.926H118.384ZM121.352 165.216C121.809 165.216 122.215 165.104 122.57 164.88C122.934 164.647 123.219 164.334 123.424 163.942C123.639 163.541 123.746 163.093 123.746 162.598C123.746 162.094 123.639 161.646 123.424 161.254C123.219 160.862 122.934 160.554 122.57 160.33C122.215 160.097 121.809 159.98 121.352 159.98C120.951 159.98 120.577 160.064 120.232 160.232C119.896 160.391 119.621 160.619 119.406 160.918V164.264C119.63 164.563 119.91 164.796 120.246 164.964C120.591 165.132 120.96 165.216 121.352 165.216ZM128.726 166.14C128.138 166.14 127.69 166 127.382 165.72C127.084 165.431 126.934 165.015 126.934 164.474V160.008H125.52V159.168H126.934V157.292L127.956 157.054V159.168H129.916V160.008H127.956V164.208C127.956 164.572 128.031 164.833 128.18 164.992C128.339 165.151 128.596 165.23 128.95 165.23C129.128 165.23 129.286 165.216 129.426 165.188C129.566 165.16 129.73 165.113 129.916 165.048V165.958C129.73 166.023 129.534 166.07 129.328 166.098C129.123 166.126 128.922 166.14 128.726 166.14ZM131.399 166V159.168H132.421V166H131.399ZM131.917 157.474C131.712 157.474 131.535 157.404 131.385 157.264C131.245 157.115 131.175 156.942 131.175 156.746C131.175 156.55 131.245 156.382 131.385 156.242C131.535 156.093 131.712 156.018 131.917 156.018C132.123 156.018 132.295 156.093 132.435 156.242C132.585 156.382 132.659 156.55 132.659 156.746C132.659 156.942 132.585 157.115 132.435 157.264C132.295 157.404 132.123 157.474 131.917 157.474ZM137.541 166.112C136.906 166.112 136.337 165.958 135.833 165.65C135.329 165.342 134.932 164.922 134.643 164.39C134.353 163.858 134.209 163.256 134.209 162.584C134.209 161.912 134.353 161.31 134.643 160.778C134.932 160.246 135.329 159.826 135.833 159.518C136.337 159.21 136.906 159.056 137.541 159.056C138.166 159.056 138.726 159.21 139.221 159.518C139.725 159.826 140.121 160.246 140.411 160.778C140.7 161.31 140.845 161.912 140.845 162.584C140.845 163.256 140.7 163.858 140.411 164.39C140.121 164.922 139.725 165.342 139.221 165.65C138.726 165.958 138.166 166.112 137.541 166.112ZM137.527 165.216C137.975 165.216 138.371 165.104 138.717 164.88C139.062 164.647 139.333 164.329 139.529 163.928C139.734 163.527 139.837 163.079 139.837 162.584C139.837 162.08 139.734 161.632 139.529 161.24C139.333 160.839 139.062 160.526 138.717 160.302C138.371 160.069 137.975 159.952 137.527 159.952C137.079 159.952 136.682 160.069 136.337 160.302C135.991 160.526 135.716 160.839 135.511 161.24C135.315 161.632 135.217 162.08 135.217 162.584C135.217 163.079 135.315 163.527 135.511 163.928C135.716 164.329 135.991 164.647 136.337 164.88C136.682 165.104 137.079 165.216 137.527 165.216ZM142.638 166V159.168H143.66V160.274C143.921 159.863 144.234 159.56 144.598 159.364C144.962 159.159 145.373 159.056 145.83 159.056C146.325 159.056 146.754 159.163 147.118 159.378C147.491 159.583 147.781 159.877 147.986 160.26C148.201 160.633 148.308 161.072 148.308 161.576V166H147.286V161.87C147.286 161.263 147.118 160.787 146.782 160.442C146.455 160.087 146.012 159.91 145.452 159.91C145.079 159.91 144.738 159.999 144.43 160.176C144.122 160.353 143.865 160.615 143.66 160.96V166H142.638ZM156.528 166.154C155.856 166.154 155.226 166.037 154.638 165.804C154.059 165.571 153.546 165.225 153.098 164.768L153.77 164.11C154.181 164.521 154.601 164.819 155.03 165.006C155.469 165.183 155.963 165.272 156.514 165.272C156.99 165.272 157.41 165.188 157.774 165.02C158.147 164.852 158.437 164.619 158.642 164.32C158.847 164.021 158.95 163.681 158.95 163.298C158.95 162.934 158.857 162.612 158.67 162.332C158.493 162.043 158.245 161.819 157.928 161.66C157.611 161.501 157.247 161.422 156.836 161.422H155.674V160.554H156.794C157.326 160.554 157.755 160.391 158.082 160.064C158.418 159.737 158.586 159.313 158.586 158.79C158.586 158.445 158.493 158.132 158.306 157.852C158.119 157.572 157.863 157.353 157.536 157.194C157.219 157.026 156.859 156.942 156.458 156.942C155.954 156.942 155.501 157.035 155.1 157.222C154.708 157.399 154.307 157.703 153.896 158.132L153.224 157.46C153.663 156.993 154.157 156.643 154.708 156.41C155.259 156.167 155.847 156.046 156.472 156.046C157.069 156.046 157.601 156.163 158.068 156.396C158.544 156.629 158.917 156.951 159.188 157.362C159.459 157.763 159.594 158.221 159.594 158.734C159.594 159.247 159.426 159.709 159.09 160.12C158.754 160.521 158.311 160.801 157.76 160.96C158.423 161.109 158.955 161.399 159.356 161.828C159.757 162.257 159.958 162.757 159.958 163.326C159.958 163.867 159.809 164.353 159.51 164.782C159.221 165.211 158.815 165.547 158.292 165.79C157.779 166.033 157.191 166.154 156.528 166.154Z" fill="#151515"/>
<path d="M111.67 203.154C110.989 203.154 110.354 203.028 109.766 202.776C109.178 202.515 108.66 202.155 108.212 201.698C107.773 201.231 107.428 200.695 107.176 200.088C106.924 199.472 106.798 198.809 106.798 198.1C106.798 197.391 106.924 196.733 107.176 196.126C107.428 195.51 107.773 194.973 108.212 194.516C108.66 194.049 109.178 193.69 109.766 193.438C110.354 193.177 110.989 193.046 111.67 193.046C112.351 193.046 112.986 193.177 113.574 193.438C114.162 193.69 114.675 194.049 115.114 194.516C115.562 194.973 115.912 195.51 116.164 196.126C116.416 196.733 116.542 197.391 116.542 198.1C116.542 198.809 116.416 199.472 116.164 200.088C115.912 200.695 115.562 201.231 115.114 201.698C114.675 202.155 114.162 202.515 113.574 202.776C112.986 203.028 112.351 203.154 111.67 203.154ZM111.67 202.174C112.202 202.174 112.697 202.071 113.154 201.866C113.611 201.661 114.013 201.371 114.358 200.998C114.703 200.625 114.969 200.191 115.156 199.696C115.352 199.201 115.45 198.669 115.45 198.1C115.45 197.521 115.352 196.989 115.156 196.504C114.969 196.009 114.703 195.575 114.358 195.202C114.013 194.829 113.611 194.539 113.154 194.334C112.697 194.129 112.202 194.026 111.67 194.026C111.138 194.026 110.643 194.129 110.186 194.334C109.729 194.539 109.327 194.829 108.982 195.202C108.637 195.575 108.366 196.009 108.17 196.504C107.983 196.989 107.89 197.517 107.89 198.086C107.89 198.665 107.983 199.201 108.17 199.696C108.366 200.191 108.637 200.625 108.982 200.998C109.327 201.371 109.729 201.661 110.186 201.866C110.643 202.071 111.138 202.174 111.67 202.174ZM118.384 205.926V196.168H119.392V197.148C119.653 196.803 119.971 196.541 120.344 196.364C120.727 196.177 121.147 196.084 121.604 196.084C122.201 196.084 122.733 196.243 123.2 196.56C123.676 196.868 124.054 197.288 124.334 197.82C124.614 198.343 124.754 198.931 124.754 199.584C124.754 200.237 124.609 200.83 124.32 201.362C124.04 201.894 123.657 202.319 123.172 202.636C122.696 202.944 122.155 203.098 121.548 203.098C121.119 203.098 120.722 203.019 120.358 202.86C119.994 202.692 119.677 202.454 119.406 202.146V205.926H118.384ZM121.352 202.216C121.809 202.216 122.215 202.104 122.57 201.88C122.934 201.647 123.219 201.334 123.424 200.942C123.639 200.541 123.746 200.093 123.746 199.598C123.746 199.094 123.639 198.646 123.424 198.254C123.219 197.862 122.934 197.554 122.57 197.33C122.215 197.097 121.809 196.98 121.352 196.98C120.951 196.98 120.577 197.064 120.232 197.232C119.896 197.391 119.621 197.619 119.406 197.918V201.264C119.63 201.563 119.91 201.796 120.246 201.964C120.591 202.132 120.96 202.216 121.352 202.216ZM128.726 203.14C128.138 203.14 127.69 203 127.382 202.72C127.084 202.431 126.934 202.015 126.934 201.474V197.008H125.52V196.168H126.934V194.292L127.956 194.054V196.168H129.916V197.008H127.956V201.208C127.956 201.572 128.031 201.833 128.18 201.992C128.339 202.151 128.596 202.23 128.95 202.23C129.128 202.23 129.286 202.216 129.426 202.188C129.566 202.16 129.73 202.113 129.916 202.048V202.958C129.73 203.023 129.534 203.07 129.328 203.098C129.123 203.126 128.922 203.14 128.726 203.14ZM131.399 203V196.168H132.421V203H131.399ZM131.917 194.474C131.712 194.474 131.535 194.404 131.385 194.264C131.245 194.115 131.175 193.942 131.175 193.746C131.175 193.55 131.245 193.382 131.385 193.242C131.535 193.093 131.712 193.018 131.917 193.018C132.123 193.018 132.295 193.093 132.435 193.242C132.585 193.382 132.659 193.55 132.659 193.746C132.659 193.942 132.585 194.115 132.435 194.264C132.295 194.404 132.123 194.474 131.917 194.474ZM137.541 203.112C136.906 203.112 136.337 202.958 135.833 202.65C135.329 202.342 134.932 201.922 134.643 201.39C134.353 200.858 134.209 200.256 134.209 199.584C134.209 198.912 134.353 198.31 134.643 197.778C134.932 197.246 135.329 196.826 135.833 196.518C136.337 196.21 136.906 196.056 137.541 196.056C138.166 196.056 138.726 196.21 139.221 196.518C139.725 196.826 140.121 197.246 140.411 197.778C140.7 198.31 140.845 198.912 140.845 199.584C140.845 200.256 140.7 200.858 140.411 201.39C140.121 201.922 139.725 202.342 139.221 202.65C138.726 202.958 138.166 203.112 137.541 203.112ZM137.527 202.216C137.975 202.216 138.371 202.104 138.717 201.88C139.062 201.647 139.333 201.329 139.529 200.928C139.734 200.527 139.837 200.079 139.837 199.584C139.837 199.08 139.734 198.632 139.529 198.24C139.333 197.839 139.062 197.526 138.717 197.302C138.371 197.069 137.975 196.952 137.527 196.952C137.079 196.952 136.682 197.069 136.337 197.302C135.991 197.526 135.716 197.839 135.511 198.24C135.315 198.632 135.217 199.08 135.217 199.584C135.217 200.079 135.315 200.527 135.511 200.928C135.716 201.329 135.991 201.647 136.337 201.88C136.682 202.104 137.079 202.216 137.527 202.216ZM142.638 203V196.168H143.66V197.274C143.921 196.863 144.234 196.56 144.598 196.364C144.962 196.159 145.373 196.056 145.83 196.056C146.325 196.056 146.754 196.163 147.118 196.378C147.491 196.583 147.781 196.877 147.986 197.26C148.201 197.633 148.308 198.072 148.308 198.576V203H147.286V198.87C147.286 198.263 147.118 197.787 146.782 197.442C146.455 197.087 146.012 196.91 145.452 196.91C145.079 196.91 144.738 196.999 144.43 197.176C144.122 197.353 143.865 197.615 143.66 197.96V203H142.638ZM158.418 203V200.382H153.126V199.584L158.334 193.2H159.412V199.5H160.77V200.382H159.412V203H158.418ZM154.302 199.5H158.418V194.418L154.302 199.5Z" fill="#151515"/>
</g>
<path d="M24 31C24 28.7909 25.7909 27 28 27H58C60.2091 27 62 28.7909 62 31V55C62 57.2091 60.2091 59 58 59H28C25.7909 59 24 57.2091 24 55V31Z" fill="#C806CC"/>
<path d="M42.8879 49V38.254L40.6199 39.208V37.624L43.5359 36.4H44.6699V49H42.8879Z" fill="white"/>
<path d="M84.6667 43C84.6667 44.4728 83.4728 45.6667 82 45.6667C80.5272 45.6667 79.3333 44.4728 79.3333 43C79.3333 41.5272 80.5272 40.3333 82 40.3333C83.4728 40.3333 84.6667 41.5272 84.6667 43ZM82 43V43.5H62V43V42.5H82V43Z" fill="#C806CC"/>
<path d="M24 75C24 72.7909 25.7909 71 28 71H62C64.2091 71 66 72.7909 66 75V99C66 101.209 64.2091 103 62 103H28C25.7909 103 24 101.209 24 99V75Z" fill="#C806CC"/>
<path d="M40.8898 93V91.74L46.0018 86.304C46.5178 85.764 46.8658 85.302 47.0458 84.918C47.2378 84.534 47.3338 84.126 47.3338 83.694C47.3338 83.13 47.1058 82.662 46.6498 82.29C46.1938 81.918 45.6178 81.732 44.9218 81.732C44.3458 81.732 43.8058 81.846 43.3018 82.074C42.7978 82.302 42.2398 82.698 41.6278 83.262L40.6558 82.074C41.9878 80.826 43.4218 80.202 44.9578 80.202C45.7618 80.202 46.4698 80.346 47.0818 80.634C47.6938 80.922 48.1678 81.324 48.5038 81.84C48.8518 82.344 49.0258 82.926 49.0258 83.586C49.0258 84.006 48.9718 84.396 48.8638 84.756C48.7558 85.104 48.5698 85.476 48.3058 85.872C48.0418 86.256 47.6698 86.7 47.1898 87.204L43.0858 91.524L49.2778 91.506V93H40.8898Z" fill="white"/>
<path d="M84.6667 87C84.6667 88.4728 83.4728 89.6667 82 89.6667C80.5272 89.6667 79.3333 88.4728 79.3333 87C79.3333 85.5272 80.5272 84.3333 82 84.3333C83.4728 84.3333 84.6667 85.5272 84.6667 87ZM82 87V87.5H66V87V86.5H82V87Z" fill="#C806CC"/>
<defs>
<filter id="filter0_d_1544_58798" x="73" y="56" width="158" height="182" filterUnits="userSpaceOnUse" color-interpolation-filters="sRGB">
<feFlood flood-opacity="0" result="BackgroundImageFix"/>
<feColorMatrix in="SourceAlpha" type="matrix" values="0 0 0 0 0 0 0 0 0 0 0 0 0 0 0 0 0 0 127 0" result="hardAlpha"/>
<feOffset dy="4"/>
<feGaussianBlur stdDeviation="4.5"/>
<feColorMatrix type="matrix" values="0 0 0 0 0.160784 0 0 0 0 0.160784 0 0 0 0 0.160784 0 0 0 0.15 0"/>
<feBlend mode="normal" in2="BackgroundImageFix" result="effect1_dropShadow_1544_58798"/>
<feBlend mode="normal" in="SourceGraphic" in2="effect1_dropShadow_1544_58798" result="shape"/>
</filter>
</defs>
</svg>
