<svg width="261" height="164" viewBox="0 0 261 164" fill="none" xmlns="http://www.w3.org/2000/svg">
<rect width="261" height="164" fill="white"/>
<path d="M76.2921 39.9351C77.4204 39.9353 78.3329 40.8442 78.3331 41.9673C78.3331 43.0905 77.4205 43.9993 76.2921 43.9995C75.1635 43.9995 74.2501 43.0907 74.2501 41.9673C74.2503 40.8441 75.1637 39.9351 76.2921 39.9351ZM76.2921 34.9673C77.4204 34.9675 78.3329 35.8765 78.3331 36.9995C78.3331 38.1228 77.4205 39.0315 76.2921 39.0317C75.1635 39.0317 74.2501 38.1229 74.2501 36.9995C74.2504 35.8763 75.1637 34.9673 76.2921 34.9673ZM76.2921 29.9995C77.4204 29.9997 78.3329 30.9087 78.3331 32.0317C78.3331 33.155 77.4205 34.0637 76.2921 34.064C75.1635 34.064 74.2501 33.1551 74.2501 32.0317C74.2504 30.9086 75.1637 29.9995 76.2921 29.9995Z" fill="#1F1F1F"/>
<g filter="url(#filter0_d_3054_8143)">
<path d="M61 58C61 54.6863 63.6863 52 67 52H195C198.314 52 201 54.6863 201 58V136C201 139.314 198.314 142 195 142H67C63.6863 142 61 139.314 61 136V58Z" fill="white"/>
<path d="M90.67 83.154C89.9887 83.154 89.354 83.028 88.766 82.776C88.178 82.5147 87.66 82.1553 87.212 81.698C86.7733 81.2313 86.428 80.6947 86.176 80.088C85.924 79.472 85.798 78.8093 85.798 78.1C85.798 77.3907 85.924 76.7327 86.176 76.126C86.428 75.51 86.7733 74.9733 87.212 74.516C87.66 74.0493 88.178 73.69 88.766 73.438C89.354 73.1767 89.9887 73.046 90.67 73.046C91.3513 73.046 91.986 73.1767 92.574 73.438C93.162 73.69 93.6753 74.0493 94.114 74.516C94.562 74.9733 94.912 75.51 95.164 76.126C95.416 76.7327 95.542 77.3907 95.542 78.1C95.542 78.8093 95.416 79.472 95.164 80.088C94.912 80.6947 94.562 81.2313 94.114 81.698C93.6753 82.1553 93.162 82.5147 92.574 82.776C91.986 83.028 91.3513 83.154 90.67 83.154ZM90.67 82.174C91.202 82.174 91.6967 82.0713 92.154 81.866C92.6113 81.6607 93.0127 81.3713 93.358 80.998C93.7033 80.6247 93.9693 80.1907 94.156 79.696C94.352 79.2013 94.45 78.6693 94.45 78.1C94.45 77.5213 94.352 76.9893 94.156 76.504C93.9693 76.0093 93.7033 75.5753 93.358 75.202C93.0127 74.8287 92.6113 74.5393 92.154 74.334C91.6967 74.1287 91.202 74.026 90.67 74.026C90.138 74.026 89.6433 74.1287 89.186 74.334C88.7287 74.5393 88.3273 74.8287 87.982 75.202C87.6367 75.5753 87.366 76.0093 87.17 76.504C86.9833 76.9893 86.89 77.5167 86.89 78.086C86.89 78.6647 86.9833 79.2013 87.17 79.696C87.366 80.1907 87.6367 80.6247 87.982 80.998C88.3273 81.3713 88.7287 81.6607 89.186 81.866C89.6433 82.0713 90.138 82.174 90.67 82.174ZM97.384 85.926V76.168H98.392V77.148C98.6533 76.8027 98.9707 76.5413 99.344 76.364C99.7267 76.1773 100.147 76.084 100.604 76.084C101.201 76.084 101.733 76.2427 102.2 76.56C102.676 76.868 103.054 77.288 103.334 77.82C103.614 78.3427 103.754 78.9307 103.754 79.584C103.754 80.2373 103.609 80.83 103.32 81.362C103.04 81.894 102.657 82.3187 102.172 82.636C101.696 82.944 101.155 83.098 100.548 83.098C100.119 83.098 99.722 83.0187 99.358 82.86C98.994 82.692 98.6767 82.454 98.406 82.146V85.926H97.384ZM100.352 82.216C100.809 82.216 101.215 82.104 101.57 81.88C101.934 81.6467 102.219 81.334 102.424 80.942C102.639 80.5407 102.746 80.0927 102.746 79.598C102.746 79.094 102.639 78.646 102.424 78.254C102.219 77.862 101.934 77.554 101.57 77.33C101.215 77.0967 100.809 76.98 100.352 76.98C99.9507 76.98 99.5773 77.064 99.232 77.232C98.896 77.3907 98.6207 77.6193 98.406 77.918V81.264C98.63 81.5627 98.91 81.796 99.246 81.964C99.5913 82.132 99.96 82.216 100.352 82.216ZM107.726 83.14C107.138 83.14 106.69 83 106.382 82.72C106.084 82.4307 105.934 82.0153 105.934 81.474V77.008H104.52V76.168H105.934V74.292L106.956 74.054V76.168H108.916V77.008H106.956V81.208C106.956 81.572 107.031 81.8333 107.18 81.992C107.339 82.1507 107.596 82.23 107.95 82.23C108.128 82.23 108.286 82.216 108.426 82.188C108.566 82.16 108.73 82.1133 108.916 82.048V82.958C108.73 83.0233 108.534 83.07 108.328 83.098C108.123 83.126 107.922 83.14 107.726 83.14ZM110.399 83V76.168H111.421V83H110.399ZM110.917 74.474C110.712 74.474 110.535 74.404 110.385 74.264C110.245 74.1147 110.175 73.942 110.175 73.746C110.175 73.55 110.245 73.382 110.385 73.242C110.535 73.0927 110.712 73.018 110.917 73.018C111.123 73.018 111.295 73.0927 111.435 73.242C111.585 73.382 111.659 73.55 111.659 73.746C111.659 73.942 111.585 74.1147 111.435 74.264C111.295 74.404 111.123 74.474 110.917 74.474ZM116.541 83.112C115.906 83.112 115.337 82.958 114.833 82.65C114.329 82.342 113.932 81.922 113.643 81.39C113.353 80.858 113.209 80.256 113.209 79.584C113.209 78.912 113.353 78.31 113.643 77.778C113.932 77.246 114.329 76.826 114.833 76.518C115.337 76.21 115.906 76.056 116.541 76.056C117.166 76.056 117.726 76.21 118.221 76.518C118.725 76.826 119.121 77.246 119.411 77.778C119.7 78.31 119.845 78.912 119.845 79.584C119.845 80.256 119.7 80.858 119.411 81.39C119.121 81.922 118.725 82.342 118.221 82.65C117.726 82.958 117.166 83.112 116.541 83.112ZM116.527 82.216C116.975 82.216 117.371 82.104 117.717 81.88C118.062 81.6467 118.333 81.3293 118.529 80.928C118.734 80.5267 118.837 80.0787 118.837 79.584C118.837 79.08 118.734 78.632 118.529 78.24C118.333 77.8387 118.062 77.526 117.717 77.302C117.371 77.0687 116.975 76.952 116.527 76.952C116.079 76.952 115.682 77.0687 115.337 77.302C114.991 77.526 114.716 77.8387 114.511 78.24C114.315 78.632 114.217 79.08 114.217 79.584C114.217 80.0787 114.315 80.5267 114.511 80.928C114.716 81.3293 114.991 81.6467 115.337 81.88C115.682 82.104 116.079 82.216 116.527 82.216ZM121.638 83V76.168H122.66V77.274C122.921 76.8633 123.234 76.56 123.598 76.364C123.962 76.1587 124.373 76.056 124.83 76.056C125.325 76.056 125.754 76.1633 126.118 76.378C126.491 76.5833 126.781 76.8773 126.986 77.26C127.201 77.6333 127.308 78.072 127.308 78.576V83H126.286V78.87C126.286 78.2633 126.118 77.7873 125.782 77.442C125.455 77.0873 125.012 76.91 124.452 76.91C124.079 76.91 123.738 76.9987 123.43 77.176C123.122 77.3533 122.865 77.6147 122.66 77.96V83H121.638ZM133.722 83V74.292L132.154 74.992V74.068L134.1 73.2H134.73V83H133.722Z" fill="#151515"/>
<path d="M90.67 120.154C89.9887 120.154 89.354 120.028 88.766 119.776C88.178 119.515 87.66 119.155 87.212 118.698C86.7733 118.231 86.428 117.695 86.176 117.088C85.924 116.472 85.798 115.809 85.798 115.1C85.798 114.391 85.924 113.733 86.176 113.126C86.428 112.51 86.7733 111.973 87.212 111.516C87.66 111.049 88.178 110.69 88.766 110.438C89.354 110.177 89.9887 110.046 90.67 110.046C91.3513 110.046 91.986 110.177 92.574 110.438C93.162 110.69 93.6753 111.049 94.114 111.516C94.562 111.973 94.912 112.51 95.164 113.126C95.416 113.733 95.542 114.391 95.542 115.1C95.542 115.809 95.416 116.472 95.164 117.088C94.912 117.695 94.562 118.231 94.114 118.698C93.6753 119.155 93.162 119.515 92.574 119.776C91.986 120.028 91.3513 120.154 90.67 120.154ZM90.67 119.174C91.202 119.174 91.6967 119.071 92.154 118.866C92.6113 118.661 93.0127 118.371 93.358 117.998C93.7033 117.625 93.9693 117.191 94.156 116.696C94.352 116.201 94.45 115.669 94.45 115.1C94.45 114.521 94.352 113.989 94.156 113.504C93.9693 113.009 93.7033 112.575 93.358 112.202C93.0127 111.829 92.6113 111.539 92.154 111.334C91.6967 111.129 91.202 111.026 90.67 111.026C90.138 111.026 89.6433 111.129 89.186 111.334C88.7287 111.539 88.3273 111.829 87.982 112.202C87.6367 112.575 87.366 113.009 87.17 113.504C86.9833 113.989 86.89 114.517 86.89 115.086C86.89 115.665 86.9833 116.201 87.17 116.696C87.366 117.191 87.6367 117.625 87.982 117.998C88.3273 118.371 88.7287 118.661 89.186 118.866C89.6433 119.071 90.138 119.174 90.67 119.174ZM97.384 122.926V113.168H98.392V114.148C98.6533 113.803 98.9707 113.541 99.344 113.364C99.7267 113.177 100.147 113.084 100.604 113.084C101.201 113.084 101.733 113.243 102.2 113.56C102.676 113.868 103.054 114.288 103.334 114.82C103.614 115.343 103.754 115.931 103.754 116.584C103.754 117.237 103.609 117.83 103.32 118.362C103.04 118.894 102.657 119.319 102.172 119.636C101.696 119.944 101.155 120.098 100.548 120.098C100.119 120.098 99.722 120.019 99.358 119.86C98.994 119.692 98.6767 119.454 98.406 119.146V122.926H97.384ZM100.352 119.216C100.809 119.216 101.215 119.104 101.57 118.88C101.934 118.647 102.219 118.334 102.424 117.942C102.639 117.541 102.746 117.093 102.746 116.598C102.746 116.094 102.639 115.646 102.424 115.254C102.219 114.862 101.934 114.554 101.57 114.33C101.215 114.097 100.809 113.98 100.352 113.98C99.9507 113.98 99.5773 114.064 99.232 114.232C98.896 114.391 98.6207 114.619 98.406 114.918V118.264C98.63 118.563 98.91 118.796 99.246 118.964C99.5913 119.132 99.96 119.216 100.352 119.216ZM107.726 120.14C107.138 120.14 106.69 120 106.382 119.72C106.084 119.431 105.934 119.015 105.934 118.474V114.008H104.52V113.168H105.934V111.292L106.956 111.054V113.168H108.916V114.008H106.956V118.208C106.956 118.572 107.031 118.833 107.18 118.992C107.339 119.151 107.596 119.23 107.95 119.23C108.128 119.23 108.286 119.216 108.426 119.188C108.566 119.16 108.73 119.113 108.916 119.048V119.958C108.73 120.023 108.534 120.07 108.328 120.098C108.123 120.126 107.922 120.14 107.726 120.14ZM110.399 120V113.168H111.421V120H110.399ZM110.917 111.474C110.712 111.474 110.535 111.404 110.385 111.264C110.245 111.115 110.175 110.942 110.175 110.746C110.175 110.55 110.245 110.382 110.385 110.242C110.535 110.093 110.712 110.018 110.917 110.018C111.123 110.018 111.295 110.093 111.435 110.242C111.585 110.382 111.659 110.55 111.659 110.746C111.659 110.942 111.585 111.115 111.435 111.264C111.295 111.404 111.123 111.474 110.917 111.474ZM116.541 120.112C115.906 120.112 115.337 119.958 114.833 119.65C114.329 119.342 113.932 118.922 113.643 118.39C113.353 117.858 113.209 117.256 113.209 116.584C113.209 115.912 113.353 115.31 113.643 114.778C113.932 114.246 114.329 113.826 114.833 113.518C115.337 113.21 115.906 113.056 116.541 113.056C117.166 113.056 117.726 113.21 118.221 113.518C118.725 113.826 119.121 114.246 119.411 114.778C119.7 115.31 119.845 115.912 119.845 116.584C119.845 117.256 119.7 117.858 119.411 118.39C119.121 118.922 118.725 119.342 118.221 119.65C117.726 119.958 117.166 120.112 116.541 120.112ZM116.527 119.216C116.975 119.216 117.371 119.104 117.717 118.88C118.062 118.647 118.333 118.329 118.529 117.928C118.734 117.527 118.837 117.079 118.837 116.584C118.837 116.08 118.734 115.632 118.529 115.24C118.333 114.839 118.062 114.526 117.717 114.302C117.371 114.069 116.975 113.952 116.527 113.952C116.079 113.952 115.682 114.069 115.337 114.302C114.991 114.526 114.716 114.839 114.511 115.24C114.315 115.632 114.217 116.08 114.217 116.584C114.217 117.079 114.315 117.527 114.511 117.928C114.716 118.329 114.991 118.647 115.337 118.88C115.682 119.104 116.079 119.216 116.527 119.216ZM121.638 120V113.168H122.66V114.274C122.921 113.863 123.234 113.56 123.598 113.364C123.962 113.159 124.373 113.056 124.83 113.056C125.325 113.056 125.754 113.163 126.118 113.378C126.491 113.583 126.781 113.877 126.986 114.26C127.201 114.633 127.308 115.072 127.308 115.576V120H126.286V115.87C126.286 115.263 126.118 114.787 125.782 114.442C125.455 114.087 125.012 113.91 124.452 113.91C124.079 113.91 123.738 113.999 123.43 114.176C123.122 114.353 122.865 114.615 122.66 114.96V120H121.638ZM132.294 120V119.258L136.214 114.974C136.522 114.638 136.76 114.344 136.928 114.092C137.105 113.831 137.227 113.588 137.292 113.364C137.367 113.14 137.404 112.902 137.404 112.65C137.404 112.155 137.208 111.749 136.816 111.432C136.433 111.105 135.943 110.942 135.346 110.942C134.889 110.942 134.464 111.031 134.072 111.208C133.68 111.385 133.241 111.693 132.756 112.132L132.168 111.432C132.681 110.965 133.199 110.62 133.722 110.396C134.245 110.163 134.791 110.046 135.36 110.046C135.948 110.046 136.471 110.158 136.928 110.382C137.385 110.597 137.745 110.895 138.006 111.278C138.267 111.661 138.398 112.099 138.398 112.594C138.398 112.921 138.356 113.224 138.272 113.504C138.188 113.775 138.039 114.069 137.824 114.386C137.609 114.694 137.301 115.067 136.9 115.506L133.554 119.132L138.608 119.118V120H132.294Z" fill="#151515"/>
</g>
<defs>
<filter id="filter0_d_3054_8143" x="52" y="47" width="158" height="108" filterUnits="userSpaceOnUse" color-interpolation-filters="sRGB">
<feFlood flood-opacity="0" result="BackgroundImageFix"/>
<feColorMatrix in="SourceAlpha" type="matrix" values="0 0 0 0 0 0 0 0 0 0 0 0 0 0 0 0 0 0 127 0" result="hardAlpha"/>
<feOffset dy="4"/>
<feGaussianBlur stdDeviation="4.5"/>
<feColorMatrix type="matrix" values="0 0 0 0 0.160784 0 0 0 0 0.160784 0 0 0 0 0.160784 0 0 0 0.15 0"/>
<feBlend mode="normal" in2="BackgroundImageFix" result="effect1_dropShadow_3054_8143"/>
<feBlend mode="normal" in="SourceGraphic" in2="effect1_dropShadow_3054_8143" result="shape"/>
</filter>
</defs>
</svg>
