<svg width="821" height="274" viewBox="0 0 821 274" fill="none" xmlns="http://www.w3.org/2000/svg">
<rect width="821" height="274" fill="white"/>
<path d="M41.42 44V30H47.9C48.82 30 49.62 30.18 50.3 30.54C50.98 30.8867 51.5133 31.3733 51.9 32C52.2867 32.6267 52.48 33.3533 52.48 34.18C52.48 35.0067 52.2867 35.7333 51.9 36.36C51.5133 36.9867 50.9733 37.48 50.28 37.84C49.6 38.1867 48.8067 38.36 47.9 38.36H43.52V44H41.42ZM43.52 36.58H47.68C48.5067 36.58 49.16 36.3667 49.64 35.94C50.1333 35.5 50.38 34.92 50.38 34.2C50.38 33.48 50.1333 32.9067 49.64 32.48C49.16 32.0533 48.5067 31.84 47.68 31.84H43.52V36.58ZM54.3441 44V33.82H56.3441V35.12C56.6641 34.64 57.0574 34.2667 57.5241 34C58.0041 33.72 58.5441 33.58 59.1441 33.58C59.5574 33.5933 59.8974 33.6533 60.1641 33.76V35.56C59.7774 35.4133 59.3841 35.34 58.9841 35.34C58.3974 35.34 57.8774 35.5 57.4241 35.82C56.9707 36.1267 56.6107 36.58 56.3441 37.18V44H54.3441ZM61.7659 44V33.82H63.7659V44H61.7659ZM62.7659 32.18C62.4326 32.18 62.1459 32.06 61.9059 31.82C61.6659 31.5667 61.5459 31.2733 61.5459 30.94C61.5459 30.5933 61.6659 30.3067 61.9059 30.08C62.1459 29.84 62.4326 29.72 62.7659 29.72C63.1126 29.72 63.4059 29.84 63.6459 30.08C63.8859 30.3067 64.0059 30.5933 64.0059 30.94C64.0059 31.2733 63.8859 31.5667 63.6459 31.82C63.4059 32.06 63.1126 32.18 62.7659 32.18ZM66.1214 44V33.82H68.1214V34.8C68.8814 34.0133 69.8347 33.62 70.9814 33.62C71.6747 33.62 72.2881 33.7733 72.8214 34.08C73.3681 34.3867 73.8014 34.8 74.1214 35.32C74.9614 34.1867 76.1081 33.62 77.5614 33.62C78.3214 33.62 78.9814 33.7867 79.5414 34.12C80.1147 34.4533 80.5614 34.92 80.8814 35.52C81.2147 36.12 81.3814 36.8133 81.3814 37.6V44H79.3814V37.94C79.3814 37.14 79.1681 36.5133 78.7414 36.06C78.3281 35.5933 77.7614 35.36 77.0414 35.36C76.0414 35.36 75.2481 35.82 74.6614 36.74C74.6881 36.8733 74.7081 37.0133 74.7214 37.16C74.7347 37.3067 74.7414 37.4533 74.7414 37.6V44H72.7614V37.94C72.7614 37.14 72.5481 36.5133 72.1214 36.06C71.7081 35.5933 71.1414 35.36 70.4214 35.36C69.4481 35.36 68.6814 35.7733 68.1214 36.6V44H66.1214ZM86.9 44.18C86.1667 44.18 85.52 44.0533 84.96 43.8C84.4 43.5333 83.96 43.1667 83.64 42.7C83.32 42.2333 83.16 41.6933 83.16 41.08C83.16 40.12 83.5267 39.3667 84.26 38.82C84.9933 38.26 86 37.98 87.28 37.98C88.28 37.98 89.2067 38.1733 90.06 38.56V37.48C90.06 36.0267 89.2333 35.3 87.58 35.3C87.1133 35.3 86.6267 35.3733 86.12 35.52C85.6133 35.6533 85.0467 35.8667 84.42 36.16L83.68 34.66C84.4533 34.3 85.1733 34.04 85.84 33.88C86.5067 33.7067 87.18 33.62 87.86 33.62C89.18 33.62 90.2 33.9333 90.92 34.56C91.6533 35.1867 92.02 36.08 92.02 37.24V44H90.06V43.12C89.6067 43.48 89.12 43.7467 88.6 43.92C88.08 44.0933 87.5133 44.18 86.9 44.18ZM85.08 41.04C85.08 41.5333 85.2867 41.9333 85.7 42.24C86.1267 42.5467 86.68 42.7 87.36 42.7C88.4533 42.7 89.3533 42.3733 90.06 41.72V40C89.3267 39.5733 88.4533 39.36 87.44 39.36C86.7067 39.36 86.1267 39.5133 85.7 39.82C85.2867 40.1133 85.08 40.52 85.08 41.04ZM94.3245 44V33.82H96.3245V35.12C96.6445 34.64 97.0379 34.2667 97.5045 34C97.9845 33.72 98.5245 33.58 99.1245 33.58C99.5379 33.5933 99.8779 33.6533 100.145 33.76V35.56C99.7579 35.4133 99.3645 35.34 98.9645 35.34C98.3779 35.34 97.8579 35.5 97.4045 35.82C96.9512 36.1267 96.5912 36.58 96.3245 37.18V44H94.3245ZM102.622 48.3C102.408 48.3 102.208 48.2867 102.022 48.26C101.835 48.2467 101.682 48.22 101.562 48.18V46.42C101.802 46.4733 102.095 46.5 102.442 46.5C103.375 46.5 104.048 46 104.462 45L104.902 44.02L100.822 33.82H103.042L106.002 41.58L109.282 33.82H111.442L106.522 45.26C106.202 45.98 105.862 46.56 105.502 47C105.142 47.4533 104.728 47.78 104.262 47.98C103.795 48.1933 103.248 48.3 102.622 48.3Z" fill="black"/>
<g filter="url(#filter0_d_1545_59944)">
<path d="M248 117C248 113.686 250.686 111 254 111H368C371.314 111 374 113.686 374 117V232C374 235.314 371.314 238 368 238H254C250.686 238 248 235.314 248 232V117Z" fill="white"/>
<path d="M272.126 142L276.004 132.2H277.292L281.114 142H279.952L278.79 138.92H274.422L273.26 142H272.126ZM274.758 138.066H278.468L276.606 133.18L274.758 138.066ZM285.085 142.112C284.45 142.112 283.876 141.958 283.363 141.65C282.859 141.333 282.457 140.908 282.159 140.376C281.86 139.835 281.711 139.237 281.711 138.584C281.711 137.921 281.86 137.324 282.159 136.792C282.457 136.26 282.859 135.84 283.363 135.532C283.876 135.215 284.45 135.056 285.085 135.056C285.589 135.056 286.069 135.149 286.527 135.336C286.984 135.523 287.381 135.784 287.717 136.12L287.059 136.834C286.816 136.563 286.522 136.353 286.177 136.204C285.831 136.055 285.481 135.98 285.127 135.98C284.679 135.98 284.273 136.097 283.909 136.33C283.554 136.563 283.269 136.876 283.055 137.268C282.84 137.66 282.733 138.099 282.733 138.584C282.733 139.069 282.84 139.508 283.055 139.9C283.269 140.292 283.554 140.605 283.909 140.838C284.273 141.071 284.679 141.188 285.127 141.188C285.481 141.188 285.831 141.113 286.177 140.964C286.522 140.805 286.816 140.595 287.059 140.334L287.717 141.048C287.381 141.384 286.984 141.645 286.527 141.832C286.069 142.019 285.589 142.112 285.085 142.112ZM291.883 142.14C291.295 142.14 290.847 142 290.539 141.72C290.24 141.431 290.091 141.015 290.091 140.474V136.008H288.677V135.168H290.091V133.292L291.113 133.054V135.168H293.073V136.008H291.113V140.208C291.113 140.572 291.187 140.833 291.337 140.992C291.495 141.151 291.752 141.23 292.107 141.23C292.284 141.23 292.443 141.216 292.583 141.188C292.723 141.16 292.886 141.113 293.073 141.048V141.958C292.886 142.023 292.69 142.07 292.485 142.098C292.279 142.126 292.079 142.14 291.883 142.14ZM294.556 142V135.168H295.578V142H294.556ZM295.074 133.474C294.868 133.474 294.691 133.404 294.542 133.264C294.402 133.115 294.332 132.942 294.332 132.746C294.332 132.55 294.402 132.382 294.542 132.242C294.691 132.093 294.868 132.018 295.074 132.018C295.279 132.018 295.452 132.093 295.592 132.242C295.741 132.382 295.816 132.55 295.816 132.746C295.816 132.942 295.741 133.115 295.592 133.264C295.452 133.404 295.279 133.474 295.074 133.474ZM300.697 142.112C300.062 142.112 299.493 141.958 298.989 141.65C298.485 141.342 298.088 140.922 297.799 140.39C297.51 139.858 297.365 139.256 297.365 138.584C297.365 137.912 297.51 137.31 297.799 136.778C298.088 136.246 298.485 135.826 298.989 135.518C299.493 135.21 300.062 135.056 300.697 135.056C301.322 135.056 301.882 135.21 302.377 135.518C302.881 135.826 303.278 136.246 303.567 136.778C303.856 137.31 304.001 137.912 304.001 138.584C304.001 139.256 303.856 139.858 303.567 140.39C303.278 140.922 302.881 141.342 302.377 141.65C301.882 141.958 301.322 142.112 300.697 142.112ZM300.683 141.216C301.131 141.216 301.528 141.104 301.873 140.88C302.218 140.647 302.489 140.329 302.685 139.928C302.89 139.527 302.993 139.079 302.993 138.584C302.993 138.08 302.89 137.632 302.685 137.24C302.489 136.839 302.218 136.526 301.873 136.302C301.528 136.069 301.131 135.952 300.683 135.952C300.235 135.952 299.838 136.069 299.493 136.302C299.148 136.526 298.872 136.839 298.667 137.24C298.471 137.632 298.373 138.08 298.373 138.584C298.373 139.079 298.471 139.527 298.667 139.928C298.872 140.329 299.148 140.647 299.493 140.88C299.838 141.104 300.235 141.216 300.683 141.216ZM305.794 142V135.168H306.816V136.274C307.077 135.863 307.39 135.56 307.754 135.364C308.118 135.159 308.529 135.056 308.986 135.056C309.481 135.056 309.91 135.163 310.274 135.378C310.647 135.583 310.937 135.877 311.142 136.26C311.357 136.633 311.464 137.072 311.464 137.576V142H310.442V137.87C310.442 137.263 310.274 136.787 309.938 136.442C309.611 136.087 309.168 135.91 308.608 135.91C308.235 135.91 307.894 135.999 307.586 136.176C307.278 136.353 307.021 136.615 306.816 136.96V142H305.794ZM317.878 142V133.292L316.31 133.992V133.068L318.256 132.2H318.886V142H317.878Z" fill="#151515"/>
<path d="M272.126 179L276.004 169.2H277.292L281.114 179H279.952L278.79 175.92H274.422L273.26 179H272.126ZM274.758 175.066H278.468L276.606 170.18L274.758 175.066ZM285.085 179.112C284.45 179.112 283.876 178.958 283.363 178.65C282.859 178.333 282.457 177.908 282.159 177.376C281.86 176.835 281.711 176.237 281.711 175.584C281.711 174.921 281.86 174.324 282.159 173.792C282.457 173.26 282.859 172.84 283.363 172.532C283.876 172.215 284.45 172.056 285.085 172.056C285.589 172.056 286.069 172.149 286.527 172.336C286.984 172.523 287.381 172.784 287.717 173.12L287.059 173.834C286.816 173.563 286.522 173.353 286.177 173.204C285.831 173.055 285.481 172.98 285.127 172.98C284.679 172.98 284.273 173.097 283.909 173.33C283.554 173.563 283.269 173.876 283.055 174.268C282.84 174.66 282.733 175.099 282.733 175.584C282.733 176.069 282.84 176.508 283.055 176.9C283.269 177.292 283.554 177.605 283.909 177.838C284.273 178.071 284.679 178.188 285.127 178.188C285.481 178.188 285.831 178.113 286.177 177.964C286.522 177.805 286.816 177.595 287.059 177.334L287.717 178.048C287.381 178.384 286.984 178.645 286.527 178.832C286.069 179.019 285.589 179.112 285.085 179.112ZM291.883 179.14C291.295 179.14 290.847 179 290.539 178.72C290.24 178.431 290.091 178.015 290.091 177.474V173.008H288.677V172.168H290.091V170.292L291.113 170.054V172.168H293.073V173.008H291.113V177.208C291.113 177.572 291.187 177.833 291.337 177.992C291.495 178.151 291.752 178.23 292.107 178.23C292.284 178.23 292.443 178.216 292.583 178.188C292.723 178.16 292.886 178.113 293.073 178.048V178.958C292.886 179.023 292.69 179.07 292.485 179.098C292.279 179.126 292.079 179.14 291.883 179.14ZM294.556 179V172.168H295.578V179H294.556ZM295.074 170.474C294.868 170.474 294.691 170.404 294.542 170.264C294.402 170.115 294.332 169.942 294.332 169.746C294.332 169.55 294.402 169.382 294.542 169.242C294.691 169.093 294.868 169.018 295.074 169.018C295.279 169.018 295.452 169.093 295.592 169.242C295.741 169.382 295.816 169.55 295.816 169.746C295.816 169.942 295.741 170.115 295.592 170.264C295.452 170.404 295.279 170.474 295.074 170.474ZM300.697 179.112C300.062 179.112 299.493 178.958 298.989 178.65C298.485 178.342 298.088 177.922 297.799 177.39C297.51 176.858 297.365 176.256 297.365 175.584C297.365 174.912 297.51 174.31 297.799 173.778C298.088 173.246 298.485 172.826 298.989 172.518C299.493 172.21 300.062 172.056 300.697 172.056C301.322 172.056 301.882 172.21 302.377 172.518C302.881 172.826 303.278 173.246 303.567 173.778C303.856 174.31 304.001 174.912 304.001 175.584C304.001 176.256 303.856 176.858 303.567 177.39C303.278 177.922 302.881 178.342 302.377 178.65C301.882 178.958 301.322 179.112 300.697 179.112ZM300.683 178.216C301.131 178.216 301.528 178.104 301.873 177.88C302.218 177.647 302.489 177.329 302.685 176.928C302.89 176.527 302.993 176.079 302.993 175.584C302.993 175.08 302.89 174.632 302.685 174.24C302.489 173.839 302.218 173.526 301.873 173.302C301.528 173.069 301.131 172.952 300.683 172.952C300.235 172.952 299.838 173.069 299.493 173.302C299.148 173.526 298.872 173.839 298.667 174.24C298.471 174.632 298.373 175.08 298.373 175.584C298.373 176.079 298.471 176.527 298.667 176.928C298.872 177.329 299.148 177.647 299.493 177.88C299.838 178.104 300.235 178.216 300.683 178.216ZM305.794 179V172.168H306.816V173.274C307.077 172.863 307.39 172.56 307.754 172.364C308.118 172.159 308.529 172.056 308.986 172.056C309.481 172.056 309.91 172.163 310.274 172.378C310.647 172.583 310.937 172.877 311.142 173.26C311.357 173.633 311.464 174.072 311.464 174.576V179H310.442V174.87C310.442 174.263 310.274 173.787 309.938 173.442C309.611 173.087 309.168 172.91 308.608 172.91C308.235 172.91 307.894 172.999 307.586 173.176C307.278 173.353 307.021 173.615 306.816 173.96V179H305.794ZM316.45 179V178.258L320.37 173.974C320.678 173.638 320.916 173.344 321.084 173.092C321.262 172.831 321.383 172.588 321.448 172.364C321.523 172.14 321.56 171.902 321.56 171.65C321.56 171.155 321.364 170.749 320.972 170.432C320.59 170.105 320.1 169.942 319.502 169.942C319.045 169.942 318.62 170.031 318.228 170.208C317.836 170.385 317.398 170.693 316.912 171.132L316.324 170.432C316.838 169.965 317.356 169.62 317.878 169.396C318.401 169.163 318.947 169.046 319.516 169.046C320.104 169.046 320.627 169.158 321.084 169.382C321.542 169.597 321.901 169.895 322.162 170.278C322.424 170.661 322.554 171.099 322.554 171.594C322.554 171.921 322.512 172.224 322.428 172.504C322.344 172.775 322.195 173.069 321.98 173.386C321.766 173.694 321.458 174.067 321.056 174.506L317.71 178.132L322.764 178.118V179H316.45Z" fill="#151515"/>
<path d="M272.126 216L276.004 206.2H277.292L281.114 216H279.952L278.79 212.92H274.422L273.26 216H272.126ZM274.758 212.066H278.468L276.606 207.18L274.758 212.066ZM285.085 216.112C284.45 216.112 283.876 215.958 283.363 215.65C282.859 215.333 282.457 214.908 282.159 214.376C281.86 213.835 281.711 213.237 281.711 212.584C281.711 211.921 281.86 211.324 282.159 210.792C282.457 210.26 282.859 209.84 283.363 209.532C283.876 209.215 284.45 209.056 285.085 209.056C285.589 209.056 286.069 209.149 286.527 209.336C286.984 209.523 287.381 209.784 287.717 210.12L287.059 210.834C286.816 210.563 286.522 210.353 286.177 210.204C285.831 210.055 285.481 209.98 285.127 209.98C284.679 209.98 284.273 210.097 283.909 210.33C283.554 210.563 283.269 210.876 283.055 211.268C282.84 211.66 282.733 212.099 282.733 212.584C282.733 213.069 282.84 213.508 283.055 213.9C283.269 214.292 283.554 214.605 283.909 214.838C284.273 215.071 284.679 215.188 285.127 215.188C285.481 215.188 285.831 215.113 286.177 214.964C286.522 214.805 286.816 214.595 287.059 214.334L287.717 215.048C287.381 215.384 286.984 215.645 286.527 215.832C286.069 216.019 285.589 216.112 285.085 216.112ZM291.883 216.14C291.295 216.14 290.847 216 290.539 215.72C290.24 215.431 290.091 215.015 290.091 214.474V210.008H288.677V209.168H290.091V207.292L291.113 207.054V209.168H293.073V210.008H291.113V214.208C291.113 214.572 291.187 214.833 291.337 214.992C291.495 215.151 291.752 215.23 292.107 215.23C292.284 215.23 292.443 215.216 292.583 215.188C292.723 215.16 292.886 215.113 293.073 215.048V215.958C292.886 216.023 292.69 216.07 292.485 216.098C292.279 216.126 292.079 216.14 291.883 216.14ZM294.556 216V209.168H295.578V216H294.556ZM295.074 207.474C294.868 207.474 294.691 207.404 294.542 207.264C294.402 207.115 294.332 206.942 294.332 206.746C294.332 206.55 294.402 206.382 294.542 206.242C294.691 206.093 294.868 206.018 295.074 206.018C295.279 206.018 295.452 206.093 295.592 206.242C295.741 206.382 295.816 206.55 295.816 206.746C295.816 206.942 295.741 207.115 295.592 207.264C295.452 207.404 295.279 207.474 295.074 207.474ZM300.697 216.112C300.062 216.112 299.493 215.958 298.989 215.65C298.485 215.342 298.088 214.922 297.799 214.39C297.51 213.858 297.365 213.256 297.365 212.584C297.365 211.912 297.51 211.31 297.799 210.778C298.088 210.246 298.485 209.826 298.989 209.518C299.493 209.21 300.062 209.056 300.697 209.056C301.322 209.056 301.882 209.21 302.377 209.518C302.881 209.826 303.278 210.246 303.567 210.778C303.856 211.31 304.001 211.912 304.001 212.584C304.001 213.256 303.856 213.858 303.567 214.39C303.278 214.922 302.881 215.342 302.377 215.65C301.882 215.958 301.322 216.112 300.697 216.112ZM300.683 215.216C301.131 215.216 301.528 215.104 301.873 214.88C302.218 214.647 302.489 214.329 302.685 213.928C302.89 213.527 302.993 213.079 302.993 212.584C302.993 212.08 302.89 211.632 302.685 211.24C302.489 210.839 302.218 210.526 301.873 210.302C301.528 210.069 301.131 209.952 300.683 209.952C300.235 209.952 299.838 210.069 299.493 210.302C299.148 210.526 298.872 210.839 298.667 211.24C298.471 211.632 298.373 212.08 298.373 212.584C298.373 213.079 298.471 213.527 298.667 213.928C298.872 214.329 299.148 214.647 299.493 214.88C299.838 215.104 300.235 215.216 300.683 215.216ZM305.794 216V209.168H306.816V210.274C307.077 209.863 307.39 209.56 307.754 209.364C308.118 209.159 308.529 209.056 308.986 209.056C309.481 209.056 309.91 209.163 310.274 209.378C310.647 209.583 310.937 209.877 311.142 210.26C311.357 210.633 311.464 211.072 311.464 211.576V216H310.442V211.87C310.442 211.263 310.274 210.787 309.938 210.442C309.611 210.087 309.168 209.91 308.608 209.91C308.235 209.91 307.894 209.999 307.586 210.176C307.278 210.353 307.021 210.615 306.816 210.96V216H305.794ZM319.684 216.154C319.012 216.154 318.382 216.037 317.794 215.804C317.216 215.571 316.702 215.225 316.254 214.768L316.926 214.11C317.337 214.521 317.757 214.819 318.186 215.006C318.625 215.183 319.12 215.272 319.67 215.272C320.146 215.272 320.566 215.188 320.93 215.02C321.304 214.852 321.593 214.619 321.798 214.32C322.004 214.021 322.106 213.681 322.106 213.298C322.106 212.934 322.013 212.612 321.826 212.332C321.649 212.043 321.402 211.819 321.084 211.66C320.767 211.501 320.403 211.422 319.992 211.422H318.83V210.554H319.95C320.482 210.554 320.912 210.391 321.238 210.064C321.574 209.737 321.742 209.313 321.742 208.79C321.742 208.445 321.649 208.132 321.462 207.852C321.276 207.572 321.019 207.353 320.692 207.194C320.375 207.026 320.016 206.942 319.614 206.942C319.11 206.942 318.658 207.035 318.256 207.222C317.864 207.399 317.463 207.703 317.052 208.132L316.38 207.46C316.819 206.993 317.314 206.643 317.864 206.41C318.415 206.167 319.003 206.046 319.628 206.046C320.226 206.046 320.758 206.163 321.224 206.396C321.7 206.629 322.074 206.951 322.344 207.362C322.615 207.763 322.75 208.221 322.75 208.734C322.75 209.247 322.582 209.709 322.246 210.12C321.91 210.521 321.467 210.801 320.916 210.96C321.579 211.109 322.111 211.399 322.512 211.828C322.914 212.257 323.114 212.757 323.114 213.326C323.114 213.867 322.965 214.353 322.666 214.782C322.377 215.211 321.971 215.547 321.448 215.79C320.935 216.033 320.347 216.154 319.684 216.154Z" fill="#151515"/>
</g>
<g clip-path="url(#clip0_1545_59944)">
<path d="M40 92.5C40 82.2827 48.2827 74 58.5 74H129V111H58.5C48.2827 111 40 102.717 40 92.5Z" fill="#0066CC"/>
<path d="M64.126 97L68.004 87.2H69.292L73.114 97H71.952L70.79 93.92H66.422L65.26 97H64.126ZM66.758 93.066H70.468L68.606 88.18L66.758 93.066ZM77.0847 97.112C76.4501 97.112 75.8761 96.958 75.3628 96.65C74.8588 96.3327 74.4574 95.908 74.1588 95.376C73.8601 94.8347 73.7108 94.2373 73.7108 93.584C73.7108 92.9213 73.8601 92.324 74.1588 91.792C74.4574 91.26 74.8588 90.84 75.3628 90.532C75.8761 90.2147 76.4501 90.056 77.0847 90.056C77.5888 90.056 78.0694 90.1493 78.5268 90.336C78.9841 90.5227 79.3808 90.784 79.7168 91.12L79.0588 91.834C78.8161 91.5633 78.5221 91.3533 78.1768 91.204C77.8314 91.0547 77.4814 90.98 77.1268 90.98C76.6788 90.98 76.2728 91.0967 75.9088 91.33C75.5541 91.5633 75.2694 91.876 75.0548 92.268C74.8401 92.66 74.7328 93.0987 74.7328 93.584C74.7328 94.0693 74.8401 94.508 75.0548 94.9C75.2694 95.292 75.5541 95.6047 75.9088 95.838C76.2728 96.0713 76.6788 96.188 77.1268 96.188C77.4814 96.188 77.8314 96.1133 78.1768 95.964C78.5221 95.8053 78.8161 95.5953 79.0588 95.334L79.7168 96.048C79.3808 96.384 78.9841 96.6453 78.5268 96.832C78.0694 97.0187 77.5888 97.112 77.0847 97.112ZM83.8825 97.14C83.2945 97.14 82.8465 97 82.5385 96.72C82.2398 96.4307 82.0905 96.0153 82.0905 95.474V91.008H80.6765V90.168H82.0905V88.292L83.1125 88.054V90.168H85.0725V91.008H83.1125V95.208C83.1125 95.572 83.1872 95.8333 83.3365 95.992C83.4952 96.1507 83.7518 96.23 84.1065 96.23C84.2838 96.23 84.4425 96.216 84.5825 96.188C84.7225 96.16 84.8858 96.1133 85.0725 96.048V96.958C84.8858 97.0233 84.6898 97.07 84.4845 97.098C84.2792 97.126 84.0785 97.14 83.8825 97.14ZM86.5555 97V90.168H87.5775V97H86.5555ZM87.0735 88.474C86.8682 88.474 86.6909 88.404 86.5415 88.264C86.4015 88.1147 86.3315 87.942 86.3315 87.746C86.3315 87.55 86.4015 87.382 86.5415 87.242C86.6909 87.0927 86.8682 87.018 87.0735 87.018C87.2789 87.018 87.4515 87.0927 87.5915 87.242C87.7409 87.382 87.8155 87.55 87.8155 87.746C87.8155 87.942 87.7409 88.1147 87.5915 88.264C87.4515 88.404 87.2789 88.474 87.0735 88.474ZM92.697 97.112C92.0624 97.112 91.493 96.958 90.989 96.65C90.485 96.342 90.0884 95.922 89.799 95.39C89.5097 94.858 89.365 94.256 89.365 93.584C89.365 92.912 89.5097 92.31 89.799 91.778C90.0884 91.246 90.485 90.826 90.989 90.518C91.493 90.21 92.0624 90.056 92.697 90.056C93.3224 90.056 93.8824 90.21 94.377 90.518C94.881 90.826 95.2777 91.246 95.567 91.778C95.8564 92.31 96.001 92.912 96.001 93.584C96.001 94.256 95.8564 94.858 95.567 95.39C95.2777 95.922 94.881 96.342 94.377 96.65C93.8824 96.958 93.3224 97.112 92.697 97.112ZM92.683 96.216C93.131 96.216 93.5277 96.104 93.873 95.88C94.2184 95.6467 94.489 95.3293 94.685 94.928C94.8904 94.5267 94.993 94.0787 94.993 93.584C94.993 93.08 94.8904 92.632 94.685 92.24C94.489 91.8387 94.2184 91.526 93.873 91.302C93.5277 91.0687 93.131 90.952 92.683 90.952C92.235 90.952 91.8384 91.0687 91.493 91.302C91.1477 91.526 90.8724 91.8387 90.667 92.24C90.471 92.632 90.373 93.08 90.373 93.584C90.373 94.0787 90.471 94.5267 90.667 94.928C90.8724 95.3293 91.1477 95.6467 91.493 95.88C91.8384 96.104 92.235 96.216 92.683 96.216ZM97.7941 97V90.168H98.8161V91.274C99.0775 90.8633 99.3901 90.56 99.7541 90.364C100.118 90.1587 100.529 90.056 100.986 90.056C101.481 90.056 101.91 90.1633 102.274 90.378C102.647 90.5833 102.937 90.8773 103.142 91.26C103.357 91.6333 103.464 92.072 103.464 92.576V97H102.442V92.87C102.442 92.2633 102.274 91.7873 101.938 91.442C101.611 91.0873 101.168 90.91 100.608 90.91C100.235 90.91 99.8941 90.9987 99.5861 91.176C99.2781 91.3533 99.0215 91.6147 98.8161 91.96V97H97.7941Z" fill="white"/>
<mask id="path-9-inside-1_1545_59944" fill="white">
<path d="M129 74H147.5C157.717 74 166 82.2827 166 92.5C166 102.717 157.717 111 147.5 111H129V74Z"/>
</mask>
<path d="M129 74H147.5C157.717 74 166 82.2827 166 92.5C166 102.717 157.717 111 147.5 111H129V74Z" fill="#0066CC"/>
<path d="M129 74H166H129ZM166 111H129H166ZM128 111V74H130V111H128ZM166 74V111V74Z" fill="white" mask="url(#path-9-inside-1_1545_59944)"/>
<path d="M151.534 90.667C152.023 90.6672 152.267 91.2618 151.921 91.6104L148.389 95.1719C148.174 95.3874 147.825 95.3875 147.611 95.1719L144.079 91.6104C143.733 91.2617 143.978 90.667 144.467 90.667H151.534Z" fill="white"/>
</g>
<g clip-path="url(#clip1_1545_59944)">
<path d="M248 92.5C248 82.2827 256.283 74 266.5 74H337V111H266.5C256.283 111 248 102.717 248 92.5Z" fill="#004D99"/>
<path d="M272.126 97L276.004 87.2H277.292L281.114 97H279.952L278.79 93.92H274.422L273.26 97H272.126ZM274.758 93.066H278.468L276.606 88.18L274.758 93.066ZM285.085 97.112C284.45 97.112 283.876 96.958 283.363 96.65C282.859 96.3327 282.457 95.908 282.159 95.376C281.86 94.8347 281.711 94.2373 281.711 93.584C281.711 92.9213 281.86 92.324 282.159 91.792C282.457 91.26 282.859 90.84 283.363 90.532C283.876 90.2147 284.45 90.056 285.085 90.056C285.589 90.056 286.069 90.1493 286.527 90.336C286.984 90.5227 287.381 90.784 287.717 91.12L287.059 91.834C286.816 91.5633 286.522 91.3533 286.177 91.204C285.831 91.0547 285.481 90.98 285.127 90.98C284.679 90.98 284.273 91.0967 283.909 91.33C283.554 91.5633 283.269 91.876 283.055 92.268C282.84 92.66 282.733 93.0987 282.733 93.584C282.733 94.0693 282.84 94.508 283.055 94.9C283.269 95.292 283.554 95.6047 283.909 95.838C284.273 96.0713 284.679 96.188 285.127 96.188C285.481 96.188 285.831 96.1133 286.177 95.964C286.522 95.8053 286.816 95.5953 287.059 95.334L287.717 96.048C287.381 96.384 286.984 96.6453 286.527 96.832C286.069 97.0187 285.589 97.112 285.085 97.112ZM291.883 97.14C291.295 97.14 290.847 97 290.539 96.72C290.24 96.4307 290.091 96.0153 290.091 95.474V91.008H288.677V90.168H290.091V88.292L291.113 88.054V90.168H293.073V91.008H291.113V95.208C291.113 95.572 291.187 95.8333 291.337 95.992C291.495 96.1507 291.752 96.23 292.107 96.23C292.284 96.23 292.443 96.216 292.583 96.188C292.723 96.16 292.886 96.1133 293.073 96.048V96.958C292.886 97.0233 292.69 97.07 292.485 97.098C292.279 97.126 292.079 97.14 291.883 97.14ZM294.556 97V90.168H295.578V97H294.556ZM295.074 88.474C294.868 88.474 294.691 88.404 294.542 88.264C294.402 88.1147 294.332 87.942 294.332 87.746C294.332 87.55 294.402 87.382 294.542 87.242C294.691 87.0927 294.868 87.018 295.074 87.018C295.279 87.018 295.452 87.0927 295.592 87.242C295.741 87.382 295.816 87.55 295.816 87.746C295.816 87.942 295.741 88.1147 295.592 88.264C295.452 88.404 295.279 88.474 295.074 88.474ZM300.697 97.112C300.062 97.112 299.493 96.958 298.989 96.65C298.485 96.342 298.088 95.922 297.799 95.39C297.51 94.858 297.365 94.256 297.365 93.584C297.365 92.912 297.51 92.31 297.799 91.778C298.088 91.246 298.485 90.826 298.989 90.518C299.493 90.21 300.062 90.056 300.697 90.056C301.322 90.056 301.882 90.21 302.377 90.518C302.881 90.826 303.278 91.246 303.567 91.778C303.856 92.31 304.001 92.912 304.001 93.584C304.001 94.256 303.856 94.858 303.567 95.39C303.278 95.922 302.881 96.342 302.377 96.65C301.882 96.958 301.322 97.112 300.697 97.112ZM300.683 96.216C301.131 96.216 301.528 96.104 301.873 95.88C302.218 95.6467 302.489 95.3293 302.685 94.928C302.89 94.5267 302.993 94.0787 302.993 93.584C302.993 93.08 302.89 92.632 302.685 92.24C302.489 91.8387 302.218 91.526 301.873 91.302C301.528 91.0687 301.131 90.952 300.683 90.952C300.235 90.952 299.838 91.0687 299.493 91.302C299.148 91.526 298.872 91.8387 298.667 92.24C298.471 92.632 298.373 93.08 298.373 93.584C298.373 94.0787 298.471 94.5267 298.667 94.928C298.872 95.3293 299.148 95.6467 299.493 95.88C299.838 96.104 300.235 96.216 300.683 96.216ZM305.794 97V90.168H306.816V91.274C307.077 90.8633 307.39 90.56 307.754 90.364C308.118 90.1587 308.529 90.056 308.986 90.056C309.481 90.056 309.91 90.1633 310.274 90.378C310.647 90.5833 310.937 90.8773 311.142 91.26C311.357 91.6333 311.464 92.072 311.464 92.576V97H310.442V92.87C310.442 92.2633 310.274 91.7873 309.938 91.442C309.611 91.0873 309.168 90.91 308.608 90.91C308.235 90.91 307.894 90.9987 307.586 91.176C307.278 91.3533 307.021 91.6147 306.816 91.96V97H305.794Z" fill="white"/>
<mask id="path-15-inside-2_1545_59944" fill="white">
<path d="M337 74H355.5C365.717 74 374 82.2827 374 92.5C374 102.717 365.717 111 355.5 111H337V74Z"/>
</mask>
<path d="M337 74H355.5C365.717 74 374 82.2827 374 92.5C374 102.717 365.717 111 355.5 111H337V74Z" fill="#004D99"/>
<path d="M337 74H374H337ZM374 111H337H374ZM336 111V74H338V111H336ZM374 74V111V74Z" fill="white" mask="url(#path-15-inside-2_1545_59944)"/>
<path d="M359.534 90.667C360.023 90.6672 360.267 91.2618 359.921 91.6104L356.389 95.1719C356.174 95.3874 355.825 95.3875 355.611 95.1719L352.079 91.6104C351.733 91.2617 351.978 90.667 352.467 90.667H359.534Z" fill="white"/>
</g>
<path d="M232.354 92.6464C232.549 92.8417 232.549 93.1583 232.354 93.3536L229.172 96.5355C228.976 96.7308 228.66 96.7308 228.464 96.5355C228.269 96.3403 228.269 96.0237 228.464 95.8284L231.293 93L228.464 90.1716C228.269 89.9763 228.269 89.6597 228.464 89.4645C228.66 89.2692 228.976 89.2692 229.172 89.4645L232.354 92.6464ZM182 93V92.5H232V93V93.5H182V93Z" fill="#C806CC"/>
<mask id="path-19-inside-3_1545_59944" fill="white">
<path fill-rule="evenodd" clip-rule="evenodd" d="M150.465 104.195C149.132 103.425 147.465 104.387 147.465 105.927L147.465 119.934C147.465 121.474 149.132 122.436 150.465 121.666L154.105 119.565L155.743 122.402C156.295 123.359 157.518 123.687 158.475 123.134L160.278 122.093C161.235 121.541 161.562 120.318 161.01 119.361L159.372 116.524L162.595 114.663C163.928 113.893 163.928 111.968 162.595 111.198L150.465 104.195Z"/>
</mask>
<path fill-rule="evenodd" clip-rule="evenodd" d="M150.465 104.195C149.132 103.425 147.465 104.387 147.465 105.927L147.465 119.934C147.465 121.474 149.132 122.436 150.465 121.666L154.105 119.565L155.743 122.402C156.295 123.359 157.518 123.687 158.475 123.134L160.278 122.093C161.235 121.541 161.562 120.318 161.01 119.361L159.372 116.524L162.595 114.663C163.928 113.893 163.928 111.968 162.595 111.198L150.465 104.195Z" fill="#FF00FF"/>
<path d="M147.465 105.927L146.465 105.927V105.927L147.465 105.927ZM150.465 104.195L150.965 103.329L150.965 103.329L150.465 104.195ZM147.465 119.934L148.465 119.934V119.934L147.465 119.934ZM154.105 119.565L154.971 119.065L154.471 118.199L153.605 118.699L154.105 119.565ZM155.743 122.402L154.877 122.902L155.743 122.402ZM159.372 116.524L158.872 115.657L158.006 116.157L158.506 117.024L159.372 116.524ZM162.595 111.198L162.095 112.064L162.095 112.064L162.595 111.198ZM147.465 105.927L148.465 105.927C148.465 105.157 149.298 104.676 149.965 105.061L150.465 104.195L150.965 103.329C148.965 102.174 146.465 103.618 146.465 105.927L147.465 105.927ZM147.465 119.934L148.465 119.934L148.465 105.927L147.465 105.927L146.465 105.927L146.465 119.934L147.465 119.934ZM150.465 121.666L149.965 120.8C149.298 121.185 148.465 120.704 148.465 119.934L147.465 119.934L146.465 119.934C146.465 122.243 148.965 123.687 150.965 122.532L150.465 121.666ZM154.105 119.565L153.605 118.699L149.965 120.8L150.465 121.666L150.965 122.532L154.605 120.431L154.105 119.565ZM155.743 122.402L156.609 121.902L154.971 119.065L154.105 119.565L153.239 120.065L154.877 122.902L155.743 122.402ZM158.475 123.134L157.975 122.268C157.497 122.544 156.885 122.381 156.609 121.902L155.743 122.402L154.877 122.902C155.705 124.337 157.54 124.829 158.975 124L158.475 123.134ZM160.278 122.093L159.778 121.227L157.975 122.268L158.475 123.134L158.975 124L160.778 122.959L160.278 122.093ZM161.01 119.361L160.144 119.861C160.42 120.339 160.256 120.951 159.778 121.227L160.278 122.093L160.778 122.959C162.213 122.131 162.705 120.296 161.876 118.861L161.01 119.361ZM159.372 116.524L158.506 117.024L160.144 119.861L161.01 119.361L161.876 118.861L160.238 116.024L159.372 116.524ZM162.595 114.663L162.095 113.797L158.872 115.657L159.372 116.524L159.872 117.39L163.095 115.529L162.595 114.663ZM162.595 111.198L162.095 112.064C162.762 112.449 162.762 113.412 162.095 113.797L162.595 114.663L163.095 115.529C165.095 114.374 165.095 111.487 163.095 110.332L162.595 111.198ZM150.465 104.195L149.965 105.061L162.095 112.064L162.595 111.198L163.095 110.332L150.965 103.329L150.465 104.195Z" fill="#FF00FF" mask="url(#path-19-inside-3_1545_59944)"/>
<path fill-rule="evenodd" clip-rule="evenodd" d="M153.423 104.498C153.771 103.156 153.613 101.683 152.865 100.387C151.353 97.7691 148.006 96.872 145.387 98.3836C142.769 99.8952 141.872 103.243 143.384 105.861C144.053 107.02 145.082 107.842 146.248 108.267L146.248 103.82C146.248 102.28 147.915 101.318 149.248 102.088L153.423 104.498Z" fill="#FF00FF" fill-opacity="0.4"/>
<path d="M140.973 106.551L138.866 107.768" stroke="#FF00FF" stroke-linecap="round"/>
<path d="M156.775 97.4277L154.668 98.6442" stroke="#FF00FF" stroke-linecap="round"/>
<path d="M142.955 94.1699L144.171 96.2769" stroke="#FF00FF" stroke-linecap="round"/>
<path d="M453.16 44.2C452.04 44.2 450.96 43.98 449.92 43.54C448.88 43.1 447.96 42.48 447.16 41.68L448.44 40.2C449.2 40.9467 449.973 41.5 450.76 41.86C451.56 42.22 452.393 42.4 453.26 42.4C453.94 42.4 454.533 42.3067 455.04 42.12C455.56 41.92 455.96 41.64 456.24 41.28C456.52 40.92 456.66 40.5133 456.66 40.06C456.66 39.4333 456.44 38.9533 456 38.62C455.56 38.2867 454.833 38.0333 453.82 37.86L451.48 37.48C450.2 37.2533 449.24 36.84 448.6 36.24C447.973 35.64 447.66 34.84 447.66 33.84C447.66 33.04 447.873 32.34 448.3 31.74C448.727 31.1267 449.327 30.6533 450.1 30.32C450.887 29.9867 451.793 29.82 452.82 29.82C453.833 29.82 454.827 29.9867 455.8 30.32C456.787 30.64 457.673 31.1067 458.46 31.72L457.3 33.32C455.793 32.1733 454.267 31.6 452.72 31.6C451.813 31.6 451.08 31.7933 450.52 32.18C449.96 32.5533 449.68 33.0533 449.68 33.68C449.68 34.2533 449.873 34.6933 450.26 35C450.647 35.2933 451.287 35.5067 452.18 35.64L454.44 36.02C455.92 36.26 457.007 36.6933 457.7 37.32C458.393 37.9467 458.74 38.8067 458.74 39.9C458.74 40.7533 458.507 41.5067 458.04 42.16C457.573 42.8 456.92 43.3 456.08 43.66C455.24 44.02 454.267 44.2 453.16 44.2ZM465.521 44.18C464.521 44.18 463.614 43.9467 462.801 43.48C462.001 43.0133 461.361 42.38 460.881 41.58C460.414 40.78 460.181 39.8867 460.181 38.9C460.181 37.9267 460.408 37.0467 460.861 36.26C461.314 35.46 461.928 34.8267 462.701 34.36C463.474 33.88 464.334 33.64 465.281 33.64C466.228 33.64 467.068 33.88 467.801 34.36C468.534 34.8267 469.114 35.4667 469.541 36.28C469.981 37.08 470.201 37.9867 470.201 39V39.56H462.181C462.288 40.12 462.494 40.62 462.801 41.06C463.121 41.5 463.521 41.8467 464.001 42.1C464.494 42.3533 465.028 42.48 465.601 42.48C466.094 42.48 466.568 42.4067 467.021 42.26C467.488 42.1 467.874 41.8733 468.181 41.58L469.461 42.84C468.861 43.2933 468.241 43.6333 467.601 43.86C466.974 44.0733 466.281 44.18 465.521 44.18ZM462.201 38.06H468.221C468.141 37.5267 467.954 37.06 467.661 36.66C467.381 36.2467 467.028 35.9267 466.601 35.7C466.188 35.46 465.734 35.34 465.241 35.34C464.468 35.34 463.801 35.5933 463.241 36.1C462.694 36.5933 462.348 37.2467 462.201 38.06ZM476.925 44.18C475.952 44.18 475.065 43.9467 474.265 43.48C473.478 43.0133 472.852 42.38 472.385 41.58C471.918 40.78 471.685 39.8867 471.685 38.9C471.685 37.9133 471.918 37.0267 472.385 36.24C472.852 35.44 473.478 34.8067 474.265 34.34C475.065 33.86 475.952 33.62 476.925 33.62C477.698 33.62 478.438 33.7667 479.145 34.06C479.865 34.3533 480.485 34.7667 481.005 35.3L479.765 36.68C479.378 36.2533 478.945 35.9333 478.465 35.72C477.985 35.5067 477.485 35.4 476.965 35.4C476.352 35.4 475.792 35.5533 475.285 35.86C474.792 36.1667 474.398 36.5867 474.105 37.12C473.812 37.6533 473.665 38.2467 473.665 38.9C473.665 39.5533 473.812 40.1533 474.105 40.7C474.398 41.2333 474.798 41.6533 475.305 41.96C475.812 42.2667 476.378 42.42 477.005 42.42C478.032 42.42 478.945 42.0133 479.745 41.2L480.965 42.48C480.432 43.0267 479.812 43.4467 479.105 43.74C478.412 44.0333 477.685 44.18 476.925 44.18ZM487.122 44.2C486.135 44.2 485.235 43.9667 484.422 43.5C483.622 43.0333 482.988 42.4 482.522 41.6C482.055 40.8 481.822 39.9067 481.822 38.92C481.822 37.9333 482.055 37.04 482.522 36.24C482.988 35.44 483.622 34.8067 484.422 34.34C485.235 33.86 486.135 33.62 487.122 33.62C488.122 33.62 489.022 33.86 489.822 34.34C490.622 34.8067 491.255 35.44 491.722 36.24C492.188 37.04 492.422 37.9333 492.422 38.92C492.422 39.9067 492.188 40.8 491.722 41.6C491.255 42.4 490.622 43.0333 489.822 43.5C489.022 43.9667 488.122 44.2 487.122 44.2ZM487.122 42.44C487.748 42.44 488.308 42.2867 488.802 41.98C489.308 41.66 489.708 41.2333 490.002 40.7C490.308 40.1667 490.462 39.5733 490.462 38.92C490.462 38.2533 490.315 37.66 490.022 37.14C489.728 36.6067 489.328 36.18 488.822 35.86C488.315 35.54 487.748 35.38 487.122 35.38C486.495 35.38 485.928 35.54 485.422 35.86C484.915 36.18 484.515 36.6067 484.222 37.14C483.928 37.66 483.782 38.2533 483.782 38.92C483.782 39.5733 483.928 40.1667 484.222 40.7C484.515 41.2333 484.915 41.66 485.422 41.98C485.928 42.2867 486.495 42.44 487.122 42.44ZM494.313 44V33.82H496.313V34.86C497.099 34.0333 498.119 33.62 499.373 33.62C500.159 33.62 500.846 33.7867 501.433 34.12C502.033 34.4533 502.499 34.92 502.833 35.52C503.179 36.12 503.353 36.8133 503.353 37.6V44H501.353V37.94C501.353 37.14 501.126 36.5133 500.673 36.06C500.219 35.5933 499.599 35.36 498.813 35.36C498.279 35.36 497.799 35.4733 497.373 35.7C496.946 35.9267 496.593 36.2533 496.313 36.68V44H494.313ZM510.34 44.16C509.394 44.16 508.527 43.9267 507.74 43.46C506.954 42.9933 506.334 42.3667 505.88 41.58C505.427 40.78 505.2 39.8867 505.2 38.9C505.2 37.9133 505.427 37.0267 505.88 36.24C506.347 35.4533 506.974 34.8267 507.76 34.36C508.547 33.8933 509.42 33.66 510.38 33.66C511.527 33.66 512.547 34 513.44 34.68V30L515.44 29.62V44H513.46V43.02C512.594 43.78 511.554 44.16 510.34 44.16ZM510.6 42.42C511.187 42.42 511.72 42.3133 512.2 42.1C512.694 41.8867 513.107 41.58 513.44 41.18V36.6C513.107 36.2267 512.694 35.9333 512.2 35.72C511.707 35.4933 511.174 35.38 510.6 35.38C509.96 35.38 509.38 35.5333 508.86 35.84C508.34 36.1467 507.927 36.5667 507.62 37.1C507.314 37.62 507.16 38.2133 507.16 38.88C507.16 39.5467 507.314 40.1467 507.62 40.68C507.927 41.2133 508.34 41.64 508.86 41.96C509.38 42.2667 509.96 42.42 510.6 42.42ZM521.029 44.18C520.296 44.18 519.649 44.0533 519.089 43.8C518.529 43.5333 518.089 43.1667 517.769 42.7C517.449 42.2333 517.289 41.6933 517.289 41.08C517.289 40.12 517.656 39.3667 518.389 38.82C519.122 38.26 520.129 37.98 521.409 37.98C522.409 37.98 523.336 38.1733 524.189 38.56V37.48C524.189 36.0267 523.362 35.3 521.709 35.3C521.242 35.3 520.756 35.3733 520.249 35.52C519.742 35.6533 519.176 35.8667 518.549 36.16L517.809 34.66C518.582 34.3 519.302 34.04 519.969 33.88C520.636 33.7067 521.309 33.62 521.989 33.62C523.309 33.62 524.329 33.9333 525.049 34.56C525.782 35.1867 526.149 36.08 526.149 37.24V44H524.189V43.12C523.736 43.48 523.249 43.7467 522.729 43.92C522.209 44.0933 521.642 44.18 521.029 44.18ZM519.209 41.04C519.209 41.5333 519.416 41.9333 519.829 42.24C520.256 42.5467 520.809 42.7 521.489 42.7C522.582 42.7 523.482 42.3733 524.189 41.72V40C523.456 39.5733 522.582 39.36 521.569 39.36C520.836 39.36 520.256 39.5133 519.829 39.82C519.416 40.1133 519.209 40.52 519.209 41.04ZM528.453 44V33.82H530.453V35.12C530.773 34.64 531.167 34.2667 531.633 34C532.113 33.72 532.653 33.58 533.253 33.58C533.667 33.5933 534.007 33.6533 534.273 33.76V35.56C533.887 35.4133 533.493 35.34 533.093 35.34C532.507 35.34 531.987 35.5 531.533 35.82C531.08 36.1267 530.72 36.58 530.453 37.18V44H528.453ZM536.751 48.3C536.537 48.3 536.337 48.2867 536.151 48.26C535.964 48.2467 535.811 48.22 535.691 48.18V46.42C535.931 46.4733 536.224 46.5 536.571 46.5C537.504 46.5 538.177 46 538.591 45L539.031 44.02L534.951 33.82H537.171L540.131 41.58L543.411 33.82H545.571L540.651 45.26C540.331 45.98 539.991 46.56 539.631 47C539.271 47.4533 538.857 47.78 538.391 47.98C537.924 48.1933 537.377 48.3 536.751 48.3Z" fill="black"/>
<g filter="url(#filter1_d_1545_59944)">
<path d="M655 117C655 113.686 657.686 111 661 111H775C778.314 111 781 113.686 781 117V232C781 235.314 778.314 238 775 238H661C657.686 238 655 235.314 655 232V117Z" fill="white"/>
<path d="M679.126 142L683.004 132.2H684.292L688.114 142H686.952L685.79 138.92H681.422L680.26 142H679.126ZM681.758 138.066H685.468L683.606 133.18L681.758 138.066ZM692.085 142.112C691.45 142.112 690.876 141.958 690.363 141.65C689.859 141.333 689.457 140.908 689.159 140.376C688.86 139.835 688.711 139.237 688.711 138.584C688.711 137.921 688.86 137.324 689.159 136.792C689.457 136.26 689.859 135.84 690.363 135.532C690.876 135.215 691.45 135.056 692.085 135.056C692.589 135.056 693.069 135.149 693.527 135.336C693.984 135.523 694.381 135.784 694.717 136.12L694.059 136.834C693.816 136.563 693.522 136.353 693.177 136.204C692.831 136.055 692.481 135.98 692.127 135.98C691.679 135.98 691.273 136.097 690.909 136.33C690.554 136.563 690.269 136.876 690.055 137.268C689.84 137.66 689.733 138.099 689.733 138.584C689.733 139.069 689.84 139.508 690.055 139.9C690.269 140.292 690.554 140.605 690.909 140.838C691.273 141.071 691.679 141.188 692.127 141.188C692.481 141.188 692.831 141.113 693.177 140.964C693.522 140.805 693.816 140.595 694.059 140.334L694.717 141.048C694.381 141.384 693.984 141.645 693.527 141.832C693.069 142.019 692.589 142.112 692.085 142.112ZM698.883 142.14C698.295 142.14 697.847 142 697.539 141.72C697.24 141.431 697.091 141.015 697.091 140.474V136.008H695.677V135.168H697.091V133.292L698.113 133.054V135.168H700.073V136.008H698.113V140.208C698.113 140.572 698.187 140.833 698.337 140.992C698.495 141.151 698.752 141.23 699.107 141.23C699.284 141.23 699.443 141.216 699.583 141.188C699.723 141.16 699.886 141.113 700.073 141.048V141.958C699.886 142.023 699.69 142.07 699.485 142.098C699.279 142.126 699.079 142.14 698.883 142.14ZM701.556 142V135.168H702.578V142H701.556ZM702.074 133.474C701.868 133.474 701.691 133.404 701.542 133.264C701.402 133.115 701.332 132.942 701.332 132.746C701.332 132.55 701.402 132.382 701.542 132.242C701.691 132.093 701.868 132.018 702.074 132.018C702.279 132.018 702.452 132.093 702.592 132.242C702.741 132.382 702.816 132.55 702.816 132.746C702.816 132.942 702.741 133.115 702.592 133.264C702.452 133.404 702.279 133.474 702.074 133.474ZM707.697 142.112C707.062 142.112 706.493 141.958 705.989 141.65C705.485 141.342 705.088 140.922 704.799 140.39C704.51 139.858 704.365 139.256 704.365 138.584C704.365 137.912 704.51 137.31 704.799 136.778C705.088 136.246 705.485 135.826 705.989 135.518C706.493 135.21 707.062 135.056 707.697 135.056C708.322 135.056 708.882 135.21 709.377 135.518C709.881 135.826 710.278 136.246 710.567 136.778C710.856 137.31 711.001 137.912 711.001 138.584C711.001 139.256 710.856 139.858 710.567 140.39C710.278 140.922 709.881 141.342 709.377 141.65C708.882 141.958 708.322 142.112 707.697 142.112ZM707.683 141.216C708.131 141.216 708.528 141.104 708.873 140.88C709.218 140.647 709.489 140.329 709.685 139.928C709.89 139.527 709.993 139.079 709.993 138.584C709.993 138.08 709.89 137.632 709.685 137.24C709.489 136.839 709.218 136.526 708.873 136.302C708.528 136.069 708.131 135.952 707.683 135.952C707.235 135.952 706.838 136.069 706.493 136.302C706.148 136.526 705.872 136.839 705.667 137.24C705.471 137.632 705.373 138.08 705.373 138.584C705.373 139.079 705.471 139.527 705.667 139.928C705.872 140.329 706.148 140.647 706.493 140.88C706.838 141.104 707.235 141.216 707.683 141.216ZM712.794 142V135.168H713.816V136.274C714.077 135.863 714.39 135.56 714.754 135.364C715.118 135.159 715.529 135.056 715.986 135.056C716.481 135.056 716.91 135.163 717.274 135.378C717.647 135.583 717.937 135.877 718.142 136.26C718.357 136.633 718.464 137.072 718.464 137.576V142H717.442V137.87C717.442 137.263 717.274 136.787 716.938 136.442C716.611 136.087 716.168 135.91 715.608 135.91C715.235 135.91 714.894 135.999 714.586 136.176C714.278 136.353 714.021 136.615 713.816 136.96V142H712.794ZM724.878 142V133.292L723.31 133.992V133.068L725.256 132.2H725.886V142H724.878Z" fill="#151515"/>
<path d="M679.126 179L683.004 169.2H684.292L688.114 179H686.952L685.79 175.92H681.422L680.26 179H679.126ZM681.758 175.066H685.468L683.606 170.18L681.758 175.066ZM692.085 179.112C691.45 179.112 690.876 178.958 690.363 178.65C689.859 178.333 689.457 177.908 689.159 177.376C688.86 176.835 688.711 176.237 688.711 175.584C688.711 174.921 688.86 174.324 689.159 173.792C689.457 173.26 689.859 172.84 690.363 172.532C690.876 172.215 691.45 172.056 692.085 172.056C692.589 172.056 693.069 172.149 693.527 172.336C693.984 172.523 694.381 172.784 694.717 173.12L694.059 173.834C693.816 173.563 693.522 173.353 693.177 173.204C692.831 173.055 692.481 172.98 692.127 172.98C691.679 172.98 691.273 173.097 690.909 173.33C690.554 173.563 690.269 173.876 690.055 174.268C689.84 174.66 689.733 175.099 689.733 175.584C689.733 176.069 689.84 176.508 690.055 176.9C690.269 177.292 690.554 177.605 690.909 177.838C691.273 178.071 691.679 178.188 692.127 178.188C692.481 178.188 692.831 178.113 693.177 177.964C693.522 177.805 693.816 177.595 694.059 177.334L694.717 178.048C694.381 178.384 693.984 178.645 693.527 178.832C693.069 179.019 692.589 179.112 692.085 179.112ZM698.883 179.14C698.295 179.14 697.847 179 697.539 178.72C697.24 178.431 697.091 178.015 697.091 177.474V173.008H695.677V172.168H697.091V170.292L698.113 170.054V172.168H700.073V173.008H698.113V177.208C698.113 177.572 698.187 177.833 698.337 177.992C698.495 178.151 698.752 178.23 699.107 178.23C699.284 178.23 699.443 178.216 699.583 178.188C699.723 178.16 699.886 178.113 700.073 178.048V178.958C699.886 179.023 699.69 179.07 699.485 179.098C699.279 179.126 699.079 179.14 698.883 179.14ZM701.556 179V172.168H702.578V179H701.556ZM702.074 170.474C701.868 170.474 701.691 170.404 701.542 170.264C701.402 170.115 701.332 169.942 701.332 169.746C701.332 169.55 701.402 169.382 701.542 169.242C701.691 169.093 701.868 169.018 702.074 169.018C702.279 169.018 702.452 169.093 702.592 169.242C702.741 169.382 702.816 169.55 702.816 169.746C702.816 169.942 702.741 170.115 702.592 170.264C702.452 170.404 702.279 170.474 702.074 170.474ZM707.697 179.112C707.062 179.112 706.493 178.958 705.989 178.65C705.485 178.342 705.088 177.922 704.799 177.39C704.51 176.858 704.365 176.256 704.365 175.584C704.365 174.912 704.51 174.31 704.799 173.778C705.088 173.246 705.485 172.826 705.989 172.518C706.493 172.21 707.062 172.056 707.697 172.056C708.322 172.056 708.882 172.21 709.377 172.518C709.881 172.826 710.278 173.246 710.567 173.778C710.856 174.31 711.001 174.912 711.001 175.584C711.001 176.256 710.856 176.858 710.567 177.39C710.278 177.922 709.881 178.342 709.377 178.65C708.882 178.958 708.322 179.112 707.697 179.112ZM707.683 178.216C708.131 178.216 708.528 178.104 708.873 177.88C709.218 177.647 709.489 177.329 709.685 176.928C709.89 176.527 709.993 176.079 709.993 175.584C709.993 175.08 709.89 174.632 709.685 174.24C709.489 173.839 709.218 173.526 708.873 173.302C708.528 173.069 708.131 172.952 707.683 172.952C707.235 172.952 706.838 173.069 706.493 173.302C706.148 173.526 705.872 173.839 705.667 174.24C705.471 174.632 705.373 175.08 705.373 175.584C705.373 176.079 705.471 176.527 705.667 176.928C705.872 177.329 706.148 177.647 706.493 177.88C706.838 178.104 707.235 178.216 707.683 178.216ZM712.794 179V172.168H713.816V173.274C714.077 172.863 714.39 172.56 714.754 172.364C715.118 172.159 715.529 172.056 715.986 172.056C716.481 172.056 716.91 172.163 717.274 172.378C717.647 172.583 717.937 172.877 718.142 173.26C718.357 173.633 718.464 174.072 718.464 174.576V179H717.442V174.87C717.442 174.263 717.274 173.787 716.938 173.442C716.611 173.087 716.168 172.91 715.608 172.91C715.235 172.91 714.894 172.999 714.586 173.176C714.278 173.353 714.021 173.615 713.816 173.96V179H712.794ZM723.45 179V178.258L727.37 173.974C727.678 173.638 727.916 173.344 728.084 173.092C728.262 172.831 728.383 172.588 728.448 172.364C728.523 172.14 728.56 171.902 728.56 171.65C728.56 171.155 728.364 170.749 727.972 170.432C727.59 170.105 727.1 169.942 726.502 169.942C726.045 169.942 725.62 170.031 725.228 170.208C724.836 170.385 724.398 170.693 723.912 171.132L723.324 170.432C723.838 169.965 724.356 169.62 724.878 169.396C725.401 169.163 725.947 169.046 726.516 169.046C727.104 169.046 727.627 169.158 728.084 169.382C728.542 169.597 728.901 169.895 729.162 170.278C729.424 170.661 729.554 171.099 729.554 171.594C729.554 171.921 729.512 172.224 729.428 172.504C729.344 172.775 729.195 173.069 728.98 173.386C728.766 173.694 728.458 174.067 728.056 174.506L724.71 178.132L729.764 178.118V179H723.45Z" fill="#151515"/>
<path d="M679.126 216L683.004 206.2H684.292L688.114 216H686.952L685.79 212.92H681.422L680.26 216H679.126ZM681.758 212.066H685.468L683.606 207.18L681.758 212.066ZM692.085 216.112C691.45 216.112 690.876 215.958 690.363 215.65C689.859 215.333 689.457 214.908 689.159 214.376C688.86 213.835 688.711 213.237 688.711 212.584C688.711 211.921 688.86 211.324 689.159 210.792C689.457 210.26 689.859 209.84 690.363 209.532C690.876 209.215 691.45 209.056 692.085 209.056C692.589 209.056 693.069 209.149 693.527 209.336C693.984 209.523 694.381 209.784 694.717 210.12L694.059 210.834C693.816 210.563 693.522 210.353 693.177 210.204C692.831 210.055 692.481 209.98 692.127 209.98C691.679 209.98 691.273 210.097 690.909 210.33C690.554 210.563 690.269 210.876 690.055 211.268C689.84 211.66 689.733 212.099 689.733 212.584C689.733 213.069 689.84 213.508 690.055 213.9C690.269 214.292 690.554 214.605 690.909 214.838C691.273 215.071 691.679 215.188 692.127 215.188C692.481 215.188 692.831 215.113 693.177 214.964C693.522 214.805 693.816 214.595 694.059 214.334L694.717 215.048C694.381 215.384 693.984 215.645 693.527 215.832C693.069 216.019 692.589 216.112 692.085 216.112ZM698.883 216.14C698.295 216.14 697.847 216 697.539 215.72C697.24 215.431 697.091 215.015 697.091 214.474V210.008H695.677V209.168H697.091V207.292L698.113 207.054V209.168H700.073V210.008H698.113V214.208C698.113 214.572 698.187 214.833 698.337 214.992C698.495 215.151 698.752 215.23 699.107 215.23C699.284 215.23 699.443 215.216 699.583 215.188C699.723 215.16 699.886 215.113 700.073 215.048V215.958C699.886 216.023 699.69 216.07 699.485 216.098C699.279 216.126 699.079 216.14 698.883 216.14ZM701.556 216V209.168H702.578V216H701.556ZM702.074 207.474C701.868 207.474 701.691 207.404 701.542 207.264C701.402 207.115 701.332 206.942 701.332 206.746C701.332 206.55 701.402 206.382 701.542 206.242C701.691 206.093 701.868 206.018 702.074 206.018C702.279 206.018 702.452 206.093 702.592 206.242C702.741 206.382 702.816 206.55 702.816 206.746C702.816 206.942 702.741 207.115 702.592 207.264C702.452 207.404 702.279 207.474 702.074 207.474ZM707.697 216.112C707.062 216.112 706.493 215.958 705.989 215.65C705.485 215.342 705.088 214.922 704.799 214.39C704.51 213.858 704.365 213.256 704.365 212.584C704.365 211.912 704.51 211.31 704.799 210.778C705.088 210.246 705.485 209.826 705.989 209.518C706.493 209.21 707.062 209.056 707.697 209.056C708.322 209.056 708.882 209.21 709.377 209.518C709.881 209.826 710.278 210.246 710.567 210.778C710.856 211.31 711.001 211.912 711.001 212.584C711.001 213.256 710.856 213.858 710.567 214.39C710.278 214.922 709.881 215.342 709.377 215.65C708.882 215.958 708.322 216.112 707.697 216.112ZM707.683 215.216C708.131 215.216 708.528 215.104 708.873 214.88C709.218 214.647 709.489 214.329 709.685 213.928C709.89 213.527 709.993 213.079 709.993 212.584C709.993 212.08 709.89 211.632 709.685 211.24C709.489 210.839 709.218 210.526 708.873 210.302C708.528 210.069 708.131 209.952 707.683 209.952C707.235 209.952 706.838 210.069 706.493 210.302C706.148 210.526 705.872 210.839 705.667 211.24C705.471 211.632 705.373 212.08 705.373 212.584C705.373 213.079 705.471 213.527 705.667 213.928C705.872 214.329 706.148 214.647 706.493 214.88C706.838 215.104 707.235 215.216 707.683 215.216ZM712.794 216V209.168H713.816V210.274C714.077 209.863 714.39 209.56 714.754 209.364C715.118 209.159 715.529 209.056 715.986 209.056C716.481 209.056 716.91 209.163 717.274 209.378C717.647 209.583 717.937 209.877 718.142 210.26C718.357 210.633 718.464 211.072 718.464 211.576V216H717.442V211.87C717.442 211.263 717.274 210.787 716.938 210.442C716.611 210.087 716.168 209.91 715.608 209.91C715.235 209.91 714.894 209.999 714.586 210.176C714.278 210.353 714.021 210.615 713.816 210.96V216H712.794ZM726.684 216.154C726.012 216.154 725.382 216.037 724.794 215.804C724.216 215.571 723.702 215.225 723.254 214.768L723.926 214.11C724.337 214.521 724.757 214.819 725.186 215.006C725.625 215.183 726.12 215.272 726.67 215.272C727.146 215.272 727.566 215.188 727.93 215.02C728.304 214.852 728.593 214.619 728.798 214.32C729.004 214.021 729.106 213.681 729.106 213.298C729.106 212.934 729.013 212.612 728.826 212.332C728.649 212.043 728.402 211.819 728.084 211.66C727.767 211.501 727.403 211.422 726.992 211.422H725.83V210.554H726.95C727.482 210.554 727.912 210.391 728.238 210.064C728.574 209.737 728.742 209.313 728.742 208.79C728.742 208.445 728.649 208.132 728.462 207.852C728.276 207.572 728.019 207.353 727.692 207.194C727.375 207.026 727.016 206.942 726.614 206.942C726.11 206.942 725.658 207.035 725.256 207.222C724.864 207.399 724.463 207.703 724.052 208.132L723.38 207.46C723.819 206.993 724.314 206.643 724.864 206.41C725.415 206.167 726.003 206.046 726.628 206.046C727.226 206.046 727.758 206.163 728.224 206.396C728.7 206.629 729.074 206.951 729.344 207.362C729.615 207.763 729.75 208.221 729.75 208.734C729.75 209.247 729.582 209.709 729.246 210.12C728.91 210.521 728.467 210.801 727.916 210.96C728.579 211.109 729.111 211.399 729.512 211.828C729.914 212.257 730.114 212.757 730.114 213.326C730.114 213.867 729.965 214.353 729.666 214.782C729.377 215.211 728.971 215.547 728.448 215.79C727.935 216.033 727.347 216.154 726.684 216.154Z" fill="#151515"/>
</g>
<g clip-path="url(#clip2_1545_59944)">
<path d="M465.5 74.5H535.5V110.5H465.5C455.559 110.5 447.5 102.441 447.5 92.5C447.5 82.5589 455.559 74.5 465.5 74.5Z" stroke="#0066CC"/>
<path d="M471.126 97L475.004 87.2H476.292L480.114 97H478.952L477.79 93.92H473.422L472.26 97H471.126ZM473.758 93.066H477.468L475.606 88.18L473.758 93.066ZM484.085 97.112C483.45 97.112 482.876 96.958 482.363 96.65C481.859 96.3327 481.457 95.908 481.159 95.376C480.86 94.8347 480.711 94.2373 480.711 93.584C480.711 92.9213 480.86 92.324 481.159 91.792C481.457 91.26 481.859 90.84 482.363 90.532C482.876 90.2147 483.45 90.056 484.085 90.056C484.589 90.056 485.069 90.1493 485.527 90.336C485.984 90.5227 486.381 90.784 486.717 91.12L486.059 91.834C485.816 91.5633 485.522 91.3533 485.177 91.204C484.831 91.0547 484.481 90.98 484.127 90.98C483.679 90.98 483.273 91.0967 482.909 91.33C482.554 91.5633 482.269 91.876 482.055 92.268C481.84 92.66 481.733 93.0987 481.733 93.584C481.733 94.0693 481.84 94.508 482.055 94.9C482.269 95.292 482.554 95.6047 482.909 95.838C483.273 96.0713 483.679 96.188 484.127 96.188C484.481 96.188 484.831 96.1133 485.177 95.964C485.522 95.8053 485.816 95.5953 486.059 95.334L486.717 96.048C486.381 96.384 485.984 96.6453 485.527 96.832C485.069 97.0187 484.589 97.112 484.085 97.112ZM490.883 97.14C490.295 97.14 489.847 97 489.539 96.72C489.24 96.4307 489.091 96.0153 489.091 95.474V91.008H487.677V90.168H489.091V88.292L490.113 88.054V90.168H492.073V91.008H490.113V95.208C490.113 95.572 490.187 95.8333 490.337 95.992C490.495 96.1507 490.752 96.23 491.107 96.23C491.284 96.23 491.443 96.216 491.583 96.188C491.723 96.16 491.886 96.1133 492.073 96.048V96.958C491.886 97.0233 491.69 97.07 491.485 97.098C491.279 97.126 491.079 97.14 490.883 97.14ZM493.556 97V90.168H494.578V97H493.556ZM494.074 88.474C493.868 88.474 493.691 88.404 493.542 88.264C493.402 88.1147 493.332 87.942 493.332 87.746C493.332 87.55 493.402 87.382 493.542 87.242C493.691 87.0927 493.868 87.018 494.074 87.018C494.279 87.018 494.452 87.0927 494.592 87.242C494.741 87.382 494.816 87.55 494.816 87.746C494.816 87.942 494.741 88.1147 494.592 88.264C494.452 88.404 494.279 88.474 494.074 88.474ZM499.697 97.112C499.062 97.112 498.493 96.958 497.989 96.65C497.485 96.342 497.088 95.922 496.799 95.39C496.51 94.858 496.365 94.256 496.365 93.584C496.365 92.912 496.51 92.31 496.799 91.778C497.088 91.246 497.485 90.826 497.989 90.518C498.493 90.21 499.062 90.056 499.697 90.056C500.322 90.056 500.882 90.21 501.377 90.518C501.881 90.826 502.278 91.246 502.567 91.778C502.856 92.31 503.001 92.912 503.001 93.584C503.001 94.256 502.856 94.858 502.567 95.39C502.278 95.922 501.881 96.342 501.377 96.65C500.882 96.958 500.322 97.112 499.697 97.112ZM499.683 96.216C500.131 96.216 500.528 96.104 500.873 95.88C501.218 95.6467 501.489 95.3293 501.685 94.928C501.89 94.5267 501.993 94.0787 501.993 93.584C501.993 93.08 501.89 92.632 501.685 92.24C501.489 91.8387 501.218 91.526 500.873 91.302C500.528 91.0687 500.131 90.952 499.683 90.952C499.235 90.952 498.838 91.0687 498.493 91.302C498.148 91.526 497.872 91.8387 497.667 92.24C497.471 92.632 497.373 93.08 497.373 93.584C497.373 94.0787 497.471 94.5267 497.667 94.928C497.872 95.3293 498.148 95.6467 498.493 95.88C498.838 96.104 499.235 96.216 499.683 96.216ZM504.794 97V90.168H505.816V91.274C506.077 90.8633 506.39 90.56 506.754 90.364C507.118 90.1587 507.529 90.056 507.986 90.056C508.481 90.056 508.91 90.1633 509.274 90.378C509.647 90.5833 509.937 90.8773 510.142 91.26C510.357 91.6333 510.464 92.072 510.464 92.576V97H509.442V92.87C509.442 92.2633 509.274 91.7873 508.938 91.442C508.611 91.0873 508.168 90.91 507.608 90.91C507.235 90.91 506.894 90.9987 506.586 91.176C506.278 91.3533 506.021 91.6147 505.816 91.96V97H504.794Z" fill="#0066CC"/>
<mask id="path-33-inside-4_1545_59944" fill="white">
<path d="M535 74H553.5C563.717 74 572 82.2827 572 92.5C572 102.717 563.717 111 553.5 111H535V74Z"/>
</mask>
<path d="M535 74V73H534V74H535ZM535 111H534V112H535V111ZM535 74V75H553.5V74V73H535V74ZM553.5 111V110H535V111V112H553.5V111ZM535 111H536V74H535H534V111H535ZM572 92.5H571C571 102.165 563.165 110 553.5 110V111V112C564.27 112 573 103.27 573 92.5H572ZM553.5 74V75C563.165 75 571 82.835 571 92.5H572H573C573 81.7304 564.27 73 553.5 73V74Z" fill="#0066CC" mask="url(#path-33-inside-4_1545_59944)"/>
<path d="M557.534 90.667C558.023 90.6672 558.267 91.2618 557.921 91.6104L554.389 95.1719C554.174 95.3874 553.825 95.3875 553.611 95.1719L550.079 91.6104C549.733 91.2617 549.978 90.667 550.467 90.667H557.534Z" fill="#0066CC"/>
</g>
<g clip-path="url(#clip3_1545_59944)">
<path d="M673.5 75H743V110H673.5C663.835 110 656 102.165 656 92.5C656 82.835 663.835 75 673.5 75Z" stroke="#004D99" stroke-width="2"/>
<path d="M679.126 97L683.004 87.2H684.292L688.114 97H686.952L685.79 93.92H681.422L680.26 97H679.126ZM681.758 93.066H685.468L683.606 88.18L681.758 93.066ZM692.085 97.112C691.45 97.112 690.876 96.958 690.363 96.65C689.859 96.3327 689.457 95.908 689.159 95.376C688.86 94.8347 688.711 94.2373 688.711 93.584C688.711 92.9213 688.86 92.324 689.159 91.792C689.457 91.26 689.859 90.84 690.363 90.532C690.876 90.2147 691.45 90.056 692.085 90.056C692.589 90.056 693.069 90.1493 693.527 90.336C693.984 90.5227 694.381 90.784 694.717 91.12L694.059 91.834C693.816 91.5633 693.522 91.3533 693.177 91.204C692.831 91.0547 692.481 90.98 692.127 90.98C691.679 90.98 691.273 91.0967 690.909 91.33C690.554 91.5633 690.269 91.876 690.055 92.268C689.84 92.66 689.733 93.0987 689.733 93.584C689.733 94.0693 689.84 94.508 690.055 94.9C690.269 95.292 690.554 95.6047 690.909 95.838C691.273 96.0713 691.679 96.188 692.127 96.188C692.481 96.188 692.831 96.1133 693.177 95.964C693.522 95.8053 693.816 95.5953 694.059 95.334L694.717 96.048C694.381 96.384 693.984 96.6453 693.527 96.832C693.069 97.0187 692.589 97.112 692.085 97.112ZM698.883 97.14C698.295 97.14 697.847 97 697.539 96.72C697.24 96.4307 697.091 96.0153 697.091 95.474V91.008H695.677V90.168H697.091V88.292L698.113 88.054V90.168H700.073V91.008H698.113V95.208C698.113 95.572 698.187 95.8333 698.337 95.992C698.495 96.1507 698.752 96.23 699.107 96.23C699.284 96.23 699.443 96.216 699.583 96.188C699.723 96.16 699.886 96.1133 700.073 96.048V96.958C699.886 97.0233 699.69 97.07 699.485 97.098C699.279 97.126 699.079 97.14 698.883 97.14ZM701.556 97V90.168H702.578V97H701.556ZM702.074 88.474C701.868 88.474 701.691 88.404 701.542 88.264C701.402 88.1147 701.332 87.942 701.332 87.746C701.332 87.55 701.402 87.382 701.542 87.242C701.691 87.0927 701.868 87.018 702.074 87.018C702.279 87.018 702.452 87.0927 702.592 87.242C702.741 87.382 702.816 87.55 702.816 87.746C702.816 87.942 702.741 88.1147 702.592 88.264C702.452 88.404 702.279 88.474 702.074 88.474ZM707.697 97.112C707.062 97.112 706.493 96.958 705.989 96.65C705.485 96.342 705.088 95.922 704.799 95.39C704.51 94.858 704.365 94.256 704.365 93.584C704.365 92.912 704.51 92.31 704.799 91.778C705.088 91.246 705.485 90.826 705.989 90.518C706.493 90.21 707.062 90.056 707.697 90.056C708.322 90.056 708.882 90.21 709.377 90.518C709.881 90.826 710.278 91.246 710.567 91.778C710.856 92.31 711.001 92.912 711.001 93.584C711.001 94.256 710.856 94.858 710.567 95.39C710.278 95.922 709.881 96.342 709.377 96.65C708.882 96.958 708.322 97.112 707.697 97.112ZM707.683 96.216C708.131 96.216 708.528 96.104 708.873 95.88C709.218 95.6467 709.489 95.3293 709.685 94.928C709.89 94.5267 709.993 94.0787 709.993 93.584C709.993 93.08 709.89 92.632 709.685 92.24C709.489 91.8387 709.218 91.526 708.873 91.302C708.528 91.0687 708.131 90.952 707.683 90.952C707.235 90.952 706.838 91.0687 706.493 91.302C706.148 91.526 705.872 91.8387 705.667 92.24C705.471 92.632 705.373 93.08 705.373 93.584C705.373 94.0787 705.471 94.5267 705.667 94.928C705.872 95.3293 706.148 95.6467 706.493 95.88C706.838 96.104 707.235 96.216 707.683 96.216ZM712.794 97V90.168H713.816V91.274C714.077 90.8633 714.39 90.56 714.754 90.364C715.118 90.1587 715.529 90.056 715.986 90.056C716.481 90.056 716.91 90.1633 717.274 90.378C717.647 90.5833 717.937 90.8773 718.142 91.26C718.357 91.6333 718.464 92.072 718.464 92.576V97H717.442V92.87C717.442 92.2633 717.274 91.7873 716.938 91.442C716.611 91.0873 716.168 90.91 715.608 90.91C715.235 90.91 714.894 90.9987 714.586 91.176C714.278 91.3533 714.021 91.6147 713.816 91.96V97H712.794Z" fill="#004D99"/>
<mask id="path-39-inside-5_1545_59944" fill="white">
<path d="M743 74H761.5C771.717 74 780 82.2827 780 92.5C780 102.717 771.717 111 761.5 111H743V74Z"/>
</mask>
<path d="M743 74V72H741V74H743ZM743 111H741V113H743V111ZM743 74V76H761.5V74V72H743V74ZM761.5 111V109H743V111V113H761.5V111ZM743 111H745V74H743H741V111H743ZM780 92.5H778C778 101.613 770.613 109 761.5 109V111V113C772.822 113 782 103.822 782 92.5H780ZM761.5 74V76C770.613 76 778 83.3873 778 92.5H780H782C782 81.1782 772.822 72 761.5 72V74Z" fill="#004D99" mask="url(#path-39-inside-5_1545_59944)"/>
<path d="M765.534 90.667C766.023 90.6672 766.267 91.2618 765.921 91.6104L762.389 95.1719C762.174 95.3874 761.825 95.3875 761.611 95.1719L758.079 91.6104C757.733 91.2617 757.978 90.667 758.467 90.667H765.534Z" fill="#004D99"/>
</g>
<path d="M639.354 92.6464C639.549 92.8417 639.549 93.1583 639.354 93.3536L636.172 96.5355C635.976 96.7308 635.66 96.7308 635.464 96.5355C635.269 96.3403 635.269 96.0237 635.464 95.8284L638.293 93L635.464 90.1716C635.269 89.9763 635.269 89.6597 635.464 89.4645C635.66 89.2692 635.976 89.2692 636.172 89.4645L639.354 92.6464ZM589 93V92.5H639V93V93.5H589V93Z" fill="#C806CC"/>
<mask id="path-43-inside-6_1545_59944" fill="white">
<path fill-rule="evenodd" clip-rule="evenodd" d="M556.465 103.195C555.132 102.425 553.465 103.387 553.465 104.927L553.465 118.934C553.465 120.474 555.132 121.436 556.465 120.666L560.105 118.565L561.743 121.402C562.295 122.359 563.518 122.687 564.475 122.134L566.278 121.093C567.235 120.541 567.563 119.318 567.01 118.361L565.372 115.524L568.595 113.663C569.929 112.893 569.929 110.968 568.595 110.198L556.465 103.195Z"/>
</mask>
<path fill-rule="evenodd" clip-rule="evenodd" d="M556.465 103.195C555.132 102.425 553.465 103.387 553.465 104.927L553.465 118.934C553.465 120.474 555.132 121.436 556.465 120.666L560.105 118.565L561.743 121.402C562.295 122.359 563.518 122.687 564.475 122.134L566.278 121.093C567.235 120.541 567.563 119.318 567.01 118.361L565.372 115.524L568.595 113.663C569.929 112.893 569.929 110.968 568.595 110.198L556.465 103.195Z" fill="#FF00FF"/>
<path d="M553.465 104.927L552.465 104.927V104.927L553.465 104.927ZM556.465 103.195L556.965 102.329L556.965 102.329L556.465 103.195ZM553.465 118.934L554.465 118.934V118.934L553.465 118.934ZM560.105 118.565L560.971 118.065L560.471 117.199L559.605 117.699L560.105 118.565ZM567.01 118.361L566.144 118.861L567.01 118.361ZM565.372 115.524L564.872 114.657L564.006 115.157L564.506 116.024L565.372 115.524ZM568.595 110.198L568.095 111.064L568.095 111.064L568.595 110.198ZM553.465 104.927L554.465 104.927C554.465 104.157 555.298 103.676 555.965 104.061L556.465 103.195L556.965 102.329C554.965 101.174 552.465 102.618 552.465 104.927L553.465 104.927ZM553.465 118.934L554.465 118.934L554.465 104.927L553.465 104.927L552.465 104.927L552.465 118.934L553.465 118.934ZM556.465 120.666L555.965 119.8C555.298 120.185 554.465 119.704 554.465 118.934L553.465 118.934L552.465 118.934C552.465 121.243 554.965 122.687 556.965 121.532L556.465 120.666ZM560.105 118.565L559.605 117.699L555.965 119.8L556.465 120.666L556.965 121.532L560.605 119.431L560.105 118.565ZM561.743 121.402L562.609 120.902L560.971 118.065L560.105 118.565L559.239 119.065L560.877 121.902L561.743 121.402ZM564.475 122.134L563.975 121.268C563.497 121.544 562.885 121.381 562.609 120.902L561.743 121.402L560.877 121.902C561.705 123.337 563.54 123.829 564.975 123L564.475 122.134ZM566.278 121.093L565.778 120.227L563.975 121.268L564.475 122.134L564.975 123L566.778 121.959L566.278 121.093ZM567.01 118.361L566.144 118.861C566.42 119.339 566.256 119.951 565.778 120.227L566.278 121.093L566.778 121.959C568.213 121.131 568.705 119.296 567.876 117.861L567.01 118.361ZM565.372 115.524L564.506 116.024L566.144 118.861L567.01 118.361L567.876 117.861L566.238 115.024L565.372 115.524ZM568.595 113.663L568.095 112.797L564.872 114.657L565.372 115.524L565.872 116.39L569.095 114.529L568.595 113.663ZM568.595 110.198L568.095 111.064C568.762 111.449 568.762 112.412 568.095 112.797L568.595 113.663L569.095 114.529C571.095 113.374 571.095 110.487 569.095 109.332L568.595 110.198ZM556.465 103.195L555.965 104.061L568.095 111.064L568.595 110.198L569.095 109.332L556.965 102.329L556.465 103.195Z" fill="#FF00FF" mask="url(#path-43-inside-6_1545_59944)"/>
<path fill-rule="evenodd" clip-rule="evenodd" d="M559.423 103.498C559.771 102.156 559.613 100.683 558.865 99.3872C557.353 96.7691 554.006 95.872 551.387 97.3836C548.769 98.8952 547.872 102.243 549.384 104.861C550.053 106.02 551.082 106.842 552.248 107.267L552.248 102.82C552.248 101.28 553.915 100.318 555.248 101.088L559.423 103.498Z" fill="#FF00FF" fill-opacity="0.4"/>
<path d="M546.973 105.551L544.866 106.768" stroke="#FF00FF" stroke-linecap="round"/>
<path d="M562.775 96.4277L560.668 97.6442" stroke="#FF00FF" stroke-linecap="round"/>
<path d="M548.955 93.1699L550.171 95.2769" stroke="#FF00FF" stroke-linecap="round"/>
<defs>
<filter id="filter0_d_1545_59944" x="239" y="106" width="144" height="145" filterUnits="userSpaceOnUse" color-interpolation-filters="sRGB">
<feFlood flood-opacity="0" result="BackgroundImageFix"/>
<feColorMatrix in="SourceAlpha" type="matrix" values="0 0 0 0 0 0 0 0 0 0 0 0 0 0 0 0 0 0 127 0" result="hardAlpha"/>
<feOffset dy="4"/>
<feGaussianBlur stdDeviation="4.5"/>
<feColorMatrix type="matrix" values="0 0 0 0 0.160784 0 0 0 0 0.160784 0 0 0 0 0.160784 0 0 0 0.15 0"/>
<feBlend mode="normal" in2="BackgroundImageFix" result="effect1_dropShadow_1545_59944"/>
<feBlend mode="normal" in="SourceGraphic" in2="effect1_dropShadow_1545_59944" result="shape"/>
</filter>
<filter id="filter1_d_1545_59944" x="646" y="106" width="144" height="145" filterUnits="userSpaceOnUse" color-interpolation-filters="sRGB">
<feFlood flood-opacity="0" result="BackgroundImageFix"/>
<feColorMatrix in="SourceAlpha" type="matrix" values="0 0 0 0 0 0 0 0 0 0 0 0 0 0 0 0 0 0 127 0" result="hardAlpha"/>
<feOffset dy="4"/>
<feGaussianBlur stdDeviation="4.5"/>
<feColorMatrix type="matrix" values="0 0 0 0 0.160784 0 0 0 0 0.160784 0 0 0 0 0.160784 0 0 0 0.15 0"/>
<feBlend mode="normal" in2="BackgroundImageFix" result="effect1_dropShadow_1545_59944"/>
<feBlend mode="normal" in="SourceGraphic" in2="effect1_dropShadow_1545_59944" result="shape"/>
</filter>
<clipPath id="clip0_1545_59944">
<path d="M40 92.5C40 82.2827 48.2827 74 58.5 74H147.5C157.717 74 166 82.2827 166 92.5C166 102.717 157.717 111 147.5 111H58.5C48.2827 111 40 102.717 40 92.5Z" fill="white"/>
</clipPath>
<clipPath id="clip1_1545_59944">
<path d="M248 92.5C248 82.2827 256.283 74 266.5 74H355.5C365.717 74 374 82.2827 374 92.5C374 102.717 365.717 111 355.5 111H266.5C256.283 111 248 102.717 248 92.5Z" fill="white"/>
</clipPath>
<clipPath id="clip2_1545_59944">
<path d="M447 92.5C447 82.2827 455.283 74 465.5 74H553.5C563.717 74 572 82.2827 572 92.5C572 102.717 563.717 111 553.5 111H465.5C455.283 111 447 102.717 447 92.5Z" fill="white"/>
</clipPath>
<clipPath id="clip3_1545_59944">
<path d="M655 92.5C655 82.2827 663.283 74 673.5 74H761.5C771.717 74 780 82.2827 780 92.5C780 102.717 771.717 111 761.5 111H673.5C663.283 111 655 102.717 655 92.5Z" fill="white"/>
</clipPath>
</defs>
</svg>
