<svg width="931" height="466" viewBox="0 0 931 466" fill="none" xmlns="http://www.w3.org/2000/svg">
<g clip-path="url(#clip0_3432_39819)">
<rect width="931" height="466" fill="white"/>
<path d="M233 10C233 -3.25482 243.745 -14 257 -14H674C687.255 -14 698 -3.25483 698 10V558C698 571.255 687.255 582 674 582H257C243.745 582 233 571.255 233 558V10Z" fill="white"/>
<path d="M282.988 62V42.4H285.928V59.396H297.212V62H282.988ZM305.916 62.28C304.535 62.28 303.275 61.9533 302.136 61.3C301.016 60.6467 300.13 59.76 299.476 58.64C298.823 57.52 298.496 56.2693 298.496 54.888C298.496 53.5067 298.823 52.256 299.476 51.136C300.13 50.016 301.016 49.1293 302.136 48.476C303.275 47.804 304.535 47.468 305.916 47.468C307.316 47.468 308.576 47.804 309.696 48.476C310.816 49.1293 311.703 50.016 312.356 51.136C313.01 52.256 313.336 53.5067 313.336 54.888C313.336 56.2693 313.01 57.52 312.356 58.64C311.703 59.76 310.816 60.6467 309.696 61.3C308.576 61.9533 307.316 62.28 305.916 62.28ZM305.916 59.816C306.794 59.816 307.578 59.6013 308.268 59.172C308.978 58.724 309.538 58.1267 309.948 57.38C310.378 56.6333 310.592 55.8027 310.592 54.888C310.592 53.9547 310.387 53.124 309.976 52.396C309.566 51.6493 309.006 51.052 308.296 50.604C307.587 50.156 306.794 49.932 305.916 49.932C305.039 49.932 304.246 50.156 303.536 50.604C302.827 51.052 302.267 51.6493 301.856 52.396C301.446 53.124 301.24 53.9547 301.24 54.888C301.24 55.8027 301.446 56.6333 301.856 57.38C302.267 58.1267 302.827 58.724 303.536 59.172C304.246 59.6013 305.039 59.816 305.916 59.816ZM323.04 67.992C321.995 67.992 320.977 67.8707 319.988 67.628C319.017 67.3853 318.121 67.04 317.3 66.592L318.364 64.408C319.969 65.2293 321.5 65.64 322.956 65.64C325.495 65.64 326.764 64.5013 326.764 62.224V60.6C325.513 61.5893 324.085 62.084 322.48 62.084C321.173 62.084 319.969 61.7667 318.868 61.132C317.785 60.4787 316.927 59.6013 316.292 58.5C315.657 57.38 315.34 56.148 315.34 54.804C315.34 53.4413 315.657 52.2093 316.292 51.108C316.945 49.988 317.813 49.1107 318.896 48.476C319.997 47.8227 321.229 47.496 322.592 47.496C324.141 47.496 325.541 47.9813 326.792 48.952V47.748H329.564V62.224C329.564 64.072 328.995 65.4907 327.856 66.48C326.736 67.488 325.131 67.992 323.04 67.992ZM322.844 59.676C324.524 59.676 325.831 59.116 326.764 57.996V51.612C326.316 51.0893 325.747 50.6787 325.056 50.38C324.384 50.0813 323.647 49.932 322.844 49.932C321.948 49.932 321.136 50.1467 320.408 50.576C319.699 51.0053 319.129 51.5933 318.7 52.34C318.289 53.068 318.084 53.8893 318.084 54.804C318.084 55.7187 318.289 56.5493 318.7 57.296C319.129 58.024 319.708 58.6027 320.436 59.032C321.164 59.4613 321.967 59.676 322.844 59.676ZM338.707 62V47.748H341.507V62H338.707ZM340.107 45.452C339.64 45.452 339.239 45.284 338.903 44.948C338.567 44.5933 338.399 44.1827 338.399 43.716C338.399 43.2307 338.567 42.8293 338.903 42.512C339.239 42.176 339.64 42.008 340.107 42.008C340.592 42.008 341.003 42.176 341.339 42.512C341.675 42.8293 341.843 43.2307 341.843 43.716C341.843 44.1827 341.675 44.5933 341.339 44.948C341.003 45.284 340.592 45.452 340.107 45.452ZM344.804 62V47.748H347.604V49.204C348.706 48.0467 350.134 47.468 351.888 47.468C352.99 47.468 353.951 47.7013 354.772 48.168C355.612 48.6347 356.266 49.288 356.732 50.128C357.218 50.968 357.46 51.9387 357.46 53.04V62H354.66V53.516C354.66 52.396 354.343 51.5187 353.708 50.884C353.074 50.2307 352.206 49.904 351.104 49.904C350.358 49.904 349.686 50.0627 349.088 50.38C348.491 50.6973 347.996 51.1547 347.604 51.752V62H344.804ZM372.647 62.252C371.265 62.252 370.211 61.9347 369.483 61.3C368.755 60.6467 368.391 59.704 368.391 58.472V50.1H365.367V47.748H368.391V44.108L371.163 43.436V47.748H375.363V50.1H371.163V57.828C371.163 58.556 371.321 59.0787 371.639 59.396C371.975 59.6947 372.516 59.844 373.263 59.844C373.655 59.844 374 59.816 374.299 59.76C374.616 59.704 374.952 59.62 375.307 59.508V61.86C374.933 61.9907 374.495 62.084 373.991 62.14C373.505 62.2147 373.057 62.252 372.647 62.252ZM383.983 62.28C382.601 62.28 381.341 61.9533 380.203 61.3C379.083 60.6467 378.196 59.76 377.543 58.64C376.889 57.52 376.563 56.2693 376.563 54.888C376.563 53.5067 376.889 52.256 377.543 51.136C378.196 50.016 379.083 49.1293 380.203 48.476C381.341 47.804 382.601 47.468 383.983 47.468C385.383 47.468 386.643 47.804 387.763 48.476C388.883 49.1293 389.769 50.016 390.423 51.136C391.076 52.256 391.403 53.5067 391.403 54.888C391.403 56.2693 391.076 57.52 390.423 58.64C389.769 59.76 388.883 60.6467 387.763 61.3C386.643 61.9533 385.383 62.28 383.983 62.28ZM383.983 59.816C384.86 59.816 385.644 59.6013 386.335 59.172C387.044 58.724 387.604 58.1267 388.015 57.38C388.444 56.6333 388.659 55.8027 388.659 54.888C388.659 53.9547 388.453 53.124 388.043 52.396C387.632 51.6493 387.072 51.052 386.363 50.604C385.653 50.156 384.86 49.932 383.983 49.932C383.105 49.932 382.312 50.156 381.603 50.604C380.893 51.052 380.333 51.6493 379.923 52.396C379.512 53.124 379.307 53.9547 379.307 54.888C379.307 55.8027 379.512 56.6333 379.923 57.38C380.333 58.1267 380.893 58.724 381.603 59.172C382.312 59.6013 383.105 59.816 383.983 59.816ZM400.854 68.02C400.555 68.02 400.275 68.0013 400.014 67.964C399.753 67.9453 399.538 67.908 399.37 67.852V65.388C399.706 65.4627 400.117 65.5 400.602 65.5C401.909 65.5 402.851 64.8 403.43 63.4L404.046 62.028L398.334 47.748H401.442L405.586 58.612L410.178 47.748H413.202L406.314 63.764C405.866 64.772 405.39 65.584 404.886 66.2C404.382 66.8347 403.803 67.292 403.15 67.572C402.497 67.8707 401.731 68.02 400.854 68.02ZM421.307 62.28C419.926 62.28 418.666 61.9533 417.527 61.3C416.407 60.6467 415.52 59.76 414.867 58.64C414.214 57.52 413.887 56.2693 413.887 54.888C413.887 53.5067 414.214 52.256 414.867 51.136C415.52 50.016 416.407 49.1293 417.527 48.476C418.666 47.804 419.926 47.468 421.307 47.468C422.707 47.468 423.967 47.804 425.087 48.476C426.207 49.1293 427.094 50.016 427.747 51.136C428.4 52.256 428.727 53.5067 428.727 54.888C428.727 56.2693 428.4 57.52 427.747 58.64C427.094 59.76 426.207 60.6467 425.087 61.3C423.967 61.9533 422.707 62.28 421.307 62.28ZM421.307 59.816C422.184 59.816 422.968 59.6013 423.659 59.172C424.368 58.724 424.928 58.1267 425.339 57.38C425.768 56.6333 425.983 55.8027 425.983 54.888C425.983 53.9547 425.778 53.124 425.367 52.396C424.956 51.6493 424.396 51.052 423.687 50.604C422.978 50.156 422.184 49.932 421.307 49.932C420.43 49.932 419.636 50.156 418.927 50.604C418.218 51.052 417.658 51.6493 417.247 52.396C416.836 53.124 416.631 53.9547 416.631 54.888C416.631 55.8027 416.836 56.6333 417.247 57.38C417.658 58.1267 418.218 58.724 418.927 59.172C419.636 59.6013 420.43 59.816 421.307 59.816ZM436.891 62.28C435.789 62.28 434.819 62.0467 433.979 61.58C433.139 61.1133 432.485 60.46 432.019 59.62C431.552 58.78 431.319 57.8 431.319 56.68V47.748H434.091V56.204C434.091 57.324 434.408 58.2107 435.043 58.864C435.696 59.5173 436.564 59.844 437.647 59.844C439.177 59.844 440.344 59.2187 441.147 57.968V47.748H443.947V62H441.147V60.544C440.045 61.7013 438.627 62.28 436.891 62.28ZM447.261 62V47.748H450.061V49.568C450.509 48.896 451.06 48.3733 451.713 48C452.385 47.608 453.141 47.412 453.981 47.412C454.56 47.4307 455.036 47.5147 455.409 47.664V50.184C454.868 49.9787 454.317 49.876 453.757 49.876C452.936 49.876 452.208 50.1 451.573 50.548C450.939 50.9773 450.435 51.612 450.061 52.452V62H447.261ZM468.012 62.252C466.985 62.252 466.08 62.0747 465.296 61.72C464.512 61.3467 463.896 60.8333 463.448 60.18C463 59.5267 462.776 58.7707 462.776 57.912C462.776 56.568 463.289 55.5133 464.316 54.748C465.342 53.964 466.752 53.572 468.544 53.572C469.944 53.572 471.241 53.8427 472.436 54.384V52.872C472.436 50.8373 471.278 49.82 468.964 49.82C468.31 49.82 467.629 49.9227 466.92 50.128C466.21 50.3147 465.417 50.6133 464.54 51.024L463.504 48.924C464.586 48.42 465.594 48.056 466.528 47.832C467.461 47.5893 468.404 47.468 469.356 47.468C471.204 47.468 472.632 47.9067 473.64 48.784C474.666 49.6613 475.18 50.912 475.18 52.536V62H472.436V60.768C471.801 61.272 471.12 61.6453 470.392 61.888C469.664 62.1307 468.87 62.252 468.012 62.252ZM465.464 57.856C465.464 58.5467 465.753 59.1067 466.332 59.536C466.929 59.9653 467.704 60.18 468.656 60.18C470.186 60.18 471.446 59.7227 472.436 58.808V56.4C471.409 55.8027 470.186 55.504 468.768 55.504C467.741 55.504 466.929 55.7187 466.332 56.148C465.753 56.5587 465.464 57.128 465.464 57.856ZM485.098 62.252C483.735 62.252 482.494 61.9253 481.374 61.272C480.273 60.6187 479.395 59.732 478.742 58.612C478.089 57.492 477.762 56.2413 477.762 54.86C477.762 53.4787 478.089 52.2373 478.742 51.136C479.395 50.016 480.273 49.1293 481.374 48.476C482.494 47.804 483.735 47.468 485.098 47.468C486.181 47.468 487.217 47.6733 488.206 48.084C489.214 48.4947 490.082 49.0733 490.81 49.82L489.074 51.752C488.533 51.1547 487.926 50.7067 487.254 50.408C486.582 50.1093 485.882 49.96 485.154 49.96C484.295 49.96 483.511 50.1747 482.802 50.604C482.111 51.0333 481.561 51.6213 481.15 52.368C480.739 53.1147 480.534 53.9453 480.534 54.86C480.534 55.7747 480.739 56.6147 481.15 57.38C481.561 58.1267 482.121 58.7147 482.83 59.144C483.539 59.5733 484.333 59.788 485.21 59.788C486.647 59.788 487.926 59.2187 489.046 58.08L490.754 59.872C490.007 60.6373 489.139 61.2253 488.15 61.636C487.179 62.0467 486.162 62.252 485.098 62.252ZM499.289 62.252C497.927 62.252 496.685 61.9253 495.565 61.272C494.464 60.6187 493.587 59.732 492.933 58.612C492.28 57.492 491.953 56.2413 491.953 54.86C491.953 53.4787 492.28 52.2373 492.933 51.136C493.587 50.016 494.464 49.1293 495.565 48.476C496.685 47.804 497.927 47.468 499.289 47.468C500.372 47.468 501.408 47.6733 502.397 48.084C503.405 48.4947 504.273 49.0733 505.001 49.82L503.265 51.752C502.724 51.1547 502.117 50.7067 501.445 50.408C500.773 50.1093 500.073 49.96 499.345 49.96C498.487 49.96 497.703 50.1747 496.993 50.604C496.303 51.0333 495.752 51.6213 495.341 52.368C494.931 53.1147 494.725 53.9453 494.725 54.86C494.725 55.7747 494.931 56.6147 495.341 57.38C495.752 58.1267 496.312 58.7147 497.021 59.144C497.731 59.5733 498.524 59.788 499.401 59.788C500.839 59.788 502.117 59.2187 503.237 58.08L504.945 59.872C504.199 60.6373 503.331 61.2253 502.341 61.636C501.371 62.0467 500.353 62.252 499.289 62.252ZM513.565 62.28C512.183 62.28 510.923 61.9533 509.785 61.3C508.665 60.6467 507.778 59.76 507.125 58.64C506.471 57.52 506.145 56.2693 506.145 54.888C506.145 53.5067 506.471 52.256 507.125 51.136C507.778 50.016 508.665 49.1293 509.785 48.476C510.923 47.804 512.183 47.468 513.565 47.468C514.965 47.468 516.225 47.804 517.345 48.476C518.465 49.1293 519.351 50.016 520.005 51.136C520.658 52.256 520.985 53.5067 520.985 54.888C520.985 56.2693 520.658 57.52 520.005 58.64C519.351 59.76 518.465 60.6467 517.345 61.3C516.225 61.9533 514.965 62.28 513.565 62.28ZM513.565 59.816C514.442 59.816 515.226 59.6013 515.917 59.172C516.626 58.724 517.186 58.1267 517.597 57.38C518.026 56.6333 518.241 55.8027 518.241 54.888C518.241 53.9547 518.035 53.124 517.625 52.396C517.214 51.6493 516.654 51.052 515.945 50.604C515.235 50.156 514.442 49.932 513.565 49.932C512.687 49.932 511.894 50.156 511.185 50.604C510.475 51.052 509.915 51.6493 509.505 52.396C509.094 53.124 508.889 53.9547 508.889 54.888C508.889 55.8027 509.094 56.6333 509.505 57.38C509.915 58.1267 510.475 58.724 511.185 59.172C511.894 59.6013 512.687 59.816 513.565 59.816ZM529.148 62.28C528.047 62.28 527.076 62.0467 526.236 61.58C525.396 61.1133 524.743 60.46 524.276 59.62C523.81 58.78 523.576 57.8 523.576 56.68V47.748H526.348V56.204C526.348 57.324 526.666 58.2107 527.3 58.864C527.954 59.5173 528.822 59.844 529.904 59.844C531.435 59.844 532.602 59.2187 533.404 57.968V47.748H536.204V62H533.404V60.544C532.303 61.7013 530.884 62.28 529.148 62.28ZM539.519 62V47.748H542.319V49.204C543.421 48.0467 544.849 47.468 546.603 47.468C547.705 47.468 548.666 47.7013 549.487 48.168C550.327 48.6347 550.981 49.288 551.447 50.128C551.933 50.968 552.175 51.9387 552.175 53.04V62H549.375V53.516C549.375 52.396 549.058 51.5187 548.423 50.884C547.789 50.2307 546.921 49.904 545.819 49.904C545.073 49.904 544.401 50.0627 543.803 50.38C543.206 50.6973 542.711 51.1547 542.319 51.752V62H539.519ZM561.1 62.252C559.718 62.252 558.664 61.9347 557.936 61.3C557.208 60.6467 556.844 59.704 556.844 58.472V50.1H553.82V47.748H556.844V44.108L559.616 43.436V47.748H563.816V50.1H559.616V57.828C559.616 58.556 559.774 59.0787 560.092 59.396C560.428 59.6947 560.969 59.844 561.716 59.844C562.108 59.844 562.453 59.816 562.752 59.76C563.069 59.704 563.405 59.62 563.76 59.508V61.86C563.386 61.9907 562.948 62.084 562.444 62.14C561.958 62.2147 561.51 62.252 561.1 62.252Z" fill="#151515"/>
<mask id="path-3-inside-1_3432_39819" fill="white">
<path d="M281 103C281 94.1634 288.163 87 297 87H634C642.837 87 650 94.1634 650 103V149C650 157.837 642.837 165 634 165H297C288.163 165 281 157.837 281 149V103Z"/>
</mask>
<path d="M281 103C281 94.1634 288.163 87 297 87H634C642.837 87 650 94.1634 650 103V149C650 157.837 642.837 165 634 165H297C288.163 165 281 157.837 281 149V103Z" fill="white"/>
<path d="M297 87V89H634V87V85H297V87ZM650 103H648V149H650H652V103H650ZM634 165V163H297V165V167H634V165ZM281 149H283V103H281H279V149H281ZM297 165V163C289.268 163 283 156.732 283 149H281H279C279 158.941 287.059 167 297 167V165ZM650 149H648C648 156.732 641.732 163 634 163V165V167C643.941 167 652 158.941 652 149H650ZM634 87V89C641.732 89 648 95.268 648 103H650H652C652 93.0589 643.941 85 634 85V87ZM297 87V85C287.059 85 279 93.0589 279 103H281H283C283 95.268 289.268 89 297 89V87Z" fill="#5E40BE" mask="url(#path-3-inside-1_3432_39819)"/>
<path d="M308 107C311.866 107 315 110.135 315 114C315 117.867 311.866 121 308 121C304.134 121 301 117.867 301 114C301 110.135 304.134 107 308 107ZM306.758 113.097C306.571 113.097 306.419 113.249 306.419 113.436V114.113C306.419 114.3 306.571 114.451 306.758 114.451H307.097V116.258H306.758C306.571 116.258 306.419 116.41 306.419 116.597V117.274C306.419 117.461 306.571 117.613 306.758 117.613H309.242C309.429 117.613 309.581 117.461 309.581 117.274V116.597C309.581 116.41 309.429 116.258 309.242 116.258H308.903V113.436C308.903 113.248 308.752 113.097 308.564 113.097H306.758ZM308 110.104C307.345 110.104 306.815 110.635 306.814 111.29C306.814 111.945 307.345 112.476 308 112.476C308.655 112.476 309.186 111.945 309.186 111.29C309.185 110.635 308.655 110.104 308 110.104Z" fill="#5E40BE"/>
<path d="M330.452 118.154C329.687 118.154 328.963 118.023 328.282 117.762C327.61 117.491 326.961 117.095 326.336 116.572L327.246 115.34C327.881 115.853 328.445 116.222 328.94 116.446C329.444 116.661 329.981 116.768 330.55 116.768C330.979 116.768 331.357 116.703 331.684 116.572C332.02 116.432 332.277 116.245 332.454 116.012C332.641 115.779 332.734 115.508 332.734 115.2C332.734 114.799 332.599 114.495 332.328 114.29C332.067 114.075 331.609 113.912 330.956 113.8L329.15 113.492C328.301 113.343 327.666 113.058 327.246 112.638C326.835 112.209 326.63 111.663 326.63 111C326.63 110.412 326.779 109.899 327.078 109.46C327.377 109.012 327.792 108.667 328.324 108.424C328.865 108.172 329.505 108.046 330.242 108.046C330.979 108.046 331.679 108.153 332.342 108.368C333.005 108.583 333.616 108.895 334.176 109.306L333.322 110.566C332.827 110.193 332.319 109.913 331.796 109.726C331.273 109.53 330.737 109.432 330.186 109.432C329.794 109.432 329.449 109.493 329.15 109.614C328.861 109.735 328.632 109.903 328.464 110.118C328.305 110.333 328.226 110.571 328.226 110.832C328.226 111.187 328.343 111.462 328.576 111.658C328.819 111.845 329.206 111.985 329.738 112.078L331.488 112.372C332.477 112.549 333.205 112.857 333.672 113.296C334.148 113.735 334.386 114.327 334.386 115.074C334.386 115.671 334.218 116.203 333.882 116.67C333.555 117.137 333.098 117.501 332.51 117.762C331.922 118.023 331.236 118.154 330.452 118.154ZM339.293 118.14C338.621 118.14 338.014 117.981 337.473 117.664C336.931 117.337 336.502 116.903 336.185 116.362C335.867 115.811 335.709 115.191 335.709 114.5C335.709 113.809 335.858 113.193 336.157 112.652C336.455 112.111 336.861 111.681 337.375 111.364C337.897 111.037 338.476 110.874 339.111 110.874C339.764 110.874 340.338 111.033 340.833 111.35C341.337 111.667 341.729 112.097 342.009 112.638C342.298 113.179 342.443 113.8 342.443 114.5V114.878H337.263C337.319 115.261 337.44 115.601 337.627 115.9C337.823 116.189 338.07 116.418 338.369 116.586C338.677 116.754 339.008 116.838 339.363 116.838C339.689 116.838 339.997 116.782 340.287 116.67C340.585 116.549 340.833 116.385 341.029 116.18L342.065 117.118C341.635 117.473 341.197 117.734 340.749 117.902C340.31 118.061 339.825 118.14 339.293 118.14ZM337.277 113.898H340.945C340.889 113.562 340.772 113.263 340.595 113.002C340.427 112.741 340.212 112.535 339.951 112.386C339.699 112.237 339.419 112.162 339.111 112.162C338.803 112.162 338.518 112.237 338.257 112.386C338.005 112.526 337.795 112.727 337.627 112.988C337.459 113.249 337.342 113.553 337.277 113.898ZM346.505 118.14C345.907 118.14 345.347 118.061 344.825 117.902C344.311 117.734 343.868 117.496 343.495 117.188L344.237 116.138C344.703 116.427 345.105 116.633 345.441 116.754C345.786 116.875 346.136 116.936 346.491 116.936C346.911 116.936 347.251 116.847 347.513 116.67C347.774 116.493 347.905 116.264 347.905 115.984C347.905 115.769 347.825 115.601 347.667 115.48C347.517 115.349 347.27 115.251 346.925 115.186L345.693 114.976C345.011 114.845 344.503 114.621 344.167 114.304C343.831 113.987 343.663 113.567 343.663 113.044C343.663 112.605 343.775 112.227 343.999 111.91C344.232 111.583 344.549 111.331 344.951 111.154C345.361 110.967 345.837 110.874 346.379 110.874C346.864 110.874 347.335 110.944 347.793 111.084C348.25 111.224 348.698 111.434 349.137 111.714L348.395 112.764C348.04 112.531 347.685 112.363 347.331 112.26C346.985 112.148 346.635 112.092 346.281 112.092C345.917 112.092 345.623 112.167 345.399 112.316C345.184 112.456 345.077 112.652 345.077 112.904C345.077 113.128 345.147 113.301 345.287 113.422C345.436 113.534 345.693 113.618 346.057 113.674L347.303 113.912C348.003 114.033 348.521 114.257 348.857 114.584C349.202 114.901 349.375 115.326 349.375 115.858C349.375 116.287 349.249 116.675 348.997 117.02C348.745 117.365 348.404 117.641 347.975 117.846C347.545 118.042 347.055 118.14 346.505 118.14ZM353.204 118.14C352.606 118.14 352.046 118.061 351.524 117.902C351.01 117.734 350.567 117.496 350.194 117.188L350.936 116.138C351.402 116.427 351.804 116.633 352.14 116.754C352.485 116.875 352.835 116.936 353.19 116.936C353.61 116.936 353.95 116.847 354.212 116.67C354.473 116.493 354.604 116.264 354.604 115.984C354.604 115.769 354.524 115.601 354.366 115.48C354.216 115.349 353.969 115.251 353.624 115.186L352.392 114.976C351.71 114.845 351.202 114.621 350.866 114.304C350.53 113.987 350.362 113.567 350.362 113.044C350.362 112.605 350.474 112.227 350.698 111.91C350.931 111.583 351.248 111.331 351.65 111.154C352.06 110.967 352.536 110.874 353.078 110.874C353.563 110.874 354.034 110.944 354.492 111.084C354.949 111.224 355.397 111.434 355.836 111.714L355.094 112.764C354.739 112.531 354.384 112.363 354.03 112.26C353.684 112.148 353.334 112.092 352.98 112.092C352.616 112.092 352.322 112.167 352.098 112.316C351.883 112.456 351.776 112.652 351.776 112.904C351.776 113.128 351.846 113.301 351.986 113.422C352.135 113.534 352.392 113.618 352.756 113.674L354.002 113.912C354.702 114.033 355.22 114.257 355.556 114.584C355.901 114.901 356.074 115.326 356.074 115.858C356.074 116.287 355.948 116.675 355.696 117.02C355.444 117.365 355.103 117.641 354.674 117.846C354.244 118.042 353.754 118.14 353.204 118.14ZM357.509 118V110.986H359.091V118H357.509ZM358.307 109.558C358.036 109.558 357.803 109.465 357.607 109.278C357.42 109.082 357.327 108.853 357.327 108.592C357.327 108.321 357.42 108.093 357.607 107.906C357.803 107.71 358.036 107.612 358.307 107.612C358.578 107.612 358.806 107.71 358.993 107.906C359.189 108.093 359.287 108.317 359.287 108.578C359.287 108.849 359.189 109.082 358.993 109.278C358.806 109.465 358.578 109.558 358.307 109.558ZM364.256 118.126C363.594 118.126 362.992 117.967 362.45 117.65C361.918 117.333 361.498 116.903 361.19 116.362C360.882 115.811 360.728 115.191 360.728 114.5C360.728 113.809 360.882 113.193 361.19 112.652C361.498 112.101 361.918 111.667 362.45 111.35C362.982 111.033 363.584 110.874 364.256 110.874C364.928 110.874 365.526 111.033 366.048 111.35C366.58 111.667 367 112.101 367.308 112.652C367.616 113.193 367.77 113.809 367.77 114.5C367.77 115.191 367.616 115.811 367.308 116.362C367 116.903 366.58 117.333 366.048 117.65C365.526 117.967 364.928 118.126 364.256 118.126ZM364.256 116.782C364.639 116.782 364.975 116.684 365.264 116.488C365.563 116.292 365.796 116.021 365.964 115.676C366.132 115.321 366.216 114.929 366.216 114.5C366.216 114.061 366.132 113.674 365.964 113.338C365.796 112.993 365.563 112.722 365.264 112.526C364.975 112.321 364.639 112.218 364.256 112.218C363.874 112.218 363.533 112.321 363.234 112.526C362.936 112.722 362.702 112.993 362.534 113.338C362.366 113.674 362.282 114.061 362.282 114.5C362.282 114.939 362.366 115.331 362.534 115.676C362.702 116.021 362.936 116.292 363.234 116.488C363.533 116.684 363.874 116.782 364.256 116.782ZM369.404 118V110.986H370.986V112.134C371.256 111.714 371.578 111.401 371.952 111.196C372.325 110.981 372.74 110.874 373.198 110.874C373.683 110.874 374.108 110.981 374.472 111.196C374.836 111.401 375.12 111.691 375.326 112.064C375.54 112.437 375.648 112.876 375.648 113.38V118H374.052V113.828C374.052 113.315 373.912 112.909 373.632 112.61C373.352 112.302 372.978 112.148 372.512 112.148C372.194 112.148 371.905 112.223 371.644 112.372C371.392 112.512 371.172 112.722 370.986 113.002V118H369.404ZM383.959 118.14C383.287 118.14 382.68 117.981 382.139 117.664C381.597 117.337 381.168 116.903 380.851 116.362C380.533 115.811 380.375 115.191 380.375 114.5C380.375 113.809 380.524 113.193 380.823 112.652C381.121 112.111 381.527 111.681 382.041 111.364C382.563 111.037 383.142 110.874 383.777 110.874C384.43 110.874 385.004 111.033 385.499 111.35C386.003 111.667 386.395 112.097 386.675 112.638C386.964 113.179 387.109 113.8 387.109 114.5V114.878H381.929C381.985 115.261 382.106 115.601 382.293 115.9C382.489 116.189 382.736 116.418 383.035 116.586C383.343 116.754 383.674 116.838 384.029 116.838C384.355 116.838 384.663 116.782 384.953 116.67C385.251 116.549 385.499 116.385 385.695 116.18L386.731 117.118C386.301 117.473 385.863 117.734 385.415 117.902C384.976 118.061 384.491 118.14 383.959 118.14ZM381.943 113.898H385.611C385.555 113.562 385.438 113.263 385.261 113.002C385.093 112.741 384.878 112.535 384.617 112.386C384.365 112.237 384.085 112.162 383.777 112.162C383.469 112.162 383.184 112.237 382.923 112.386C382.671 112.526 382.461 112.727 382.293 112.988C382.125 113.249 382.008 113.553 381.943 113.898ZM387.459 118L390.105 114.388L387.571 110.986H389.433L391.071 113.296L392.709 110.986H394.487L391.925 114.43L394.599 118H392.751L390.987 115.55L389.223 118H387.459ZM395.75 120.926V110.986H397.304V111.98C397.556 111.644 397.868 111.387 398.242 111.21C398.624 111.023 399.04 110.93 399.488 110.93C400.085 110.93 400.622 111.089 401.098 111.406C401.574 111.723 401.952 112.153 402.232 112.694C402.512 113.235 402.652 113.837 402.652 114.5C402.652 115.163 402.507 115.765 402.218 116.306C401.928 116.847 401.536 117.277 401.042 117.594C400.547 117.911 399.996 118.07 399.39 118.07C398.97 118.07 398.582 117.995 398.228 117.846C397.882 117.687 397.584 117.463 397.332 117.174V120.926H395.75ZM399.012 116.754C399.413 116.754 399.768 116.656 400.076 116.46C400.393 116.264 400.64 115.998 400.818 115.662C401.004 115.317 401.098 114.929 401.098 114.5C401.098 114.071 401.004 113.688 400.818 113.352C400.64 113.016 400.393 112.75 400.076 112.554C399.768 112.358 399.413 112.26 399.012 112.26C398.666 112.26 398.349 112.33 398.06 112.47C397.77 112.601 397.528 112.792 397.332 113.044V115.97C397.537 116.213 397.784 116.404 398.074 116.544C398.363 116.684 398.676 116.754 399.012 116.754ZM404.294 118V110.986H405.876V118H404.294ZM405.092 109.558C404.821 109.558 404.588 109.465 404.392 109.278C404.205 109.082 404.112 108.853 404.112 108.592C404.112 108.321 404.205 108.093 404.392 107.906C404.588 107.71 404.821 107.612 405.092 107.612C405.363 107.612 405.591 107.71 405.778 107.906C405.974 108.093 406.072 108.317 406.072 108.578C406.072 108.849 405.974 109.082 405.778 109.278C405.591 109.465 405.363 109.558 405.092 109.558ZM407.835 118V110.986H409.417V112.498C409.623 111.966 409.889 111.56 410.215 111.28C410.542 111 410.92 110.86 411.349 110.86C411.48 110.869 411.597 110.883 411.699 110.902C411.802 110.911 411.914 110.944 412.035 111V112.386C411.914 112.33 411.774 112.288 411.615 112.26C411.466 112.232 411.317 112.218 411.167 112.218C410.785 112.218 410.439 112.321 410.131 112.526C409.833 112.731 409.595 113.016 409.417 113.38V118H407.835ZM416.265 118.14C415.593 118.14 414.987 117.981 414.445 117.664C413.904 117.337 413.475 116.903 413.157 116.362C412.84 115.811 412.681 115.191 412.681 114.5C412.681 113.809 412.831 113.193 413.129 112.652C413.428 112.111 413.834 111.681 414.347 111.364C414.87 111.037 415.449 110.874 416.083 110.874C416.737 110.874 417.311 111.033 417.805 111.35C418.309 111.667 418.701 112.097 418.981 112.638C419.271 113.179 419.415 113.8 419.415 114.5V114.878H414.235C414.291 115.261 414.413 115.601 414.599 115.9C414.795 116.189 415.043 116.418 415.341 116.586C415.649 116.754 415.981 116.838 416.335 116.838C416.662 116.838 416.97 116.782 417.259 116.67C417.558 116.549 417.805 116.385 418.001 116.18L419.037 117.118C418.608 117.473 418.169 117.734 417.721 117.902C417.283 118.061 416.797 118.14 416.265 118.14ZM414.249 113.898H417.917C417.861 113.562 417.745 113.263 417.567 113.002C417.399 112.741 417.185 112.535 416.923 112.386C416.671 112.237 416.391 112.162 416.083 112.162C415.775 112.162 415.491 112.237 415.229 112.386C414.977 112.526 414.767 112.727 414.599 112.988C414.431 113.249 414.315 113.553 414.249 113.898ZM423.898 118.07C423.31 118.07 422.778 117.911 422.302 117.594C421.826 117.267 421.444 116.838 421.154 116.306C420.874 115.765 420.734 115.163 420.734 114.5C420.734 113.828 420.879 113.226 421.168 112.694C421.458 112.153 421.85 111.723 422.344 111.406C422.848 111.089 423.404 110.93 424.01 110.93C424.412 110.93 424.785 111.009 425.13 111.168C425.485 111.317 425.793 111.541 426.054 111.84V107.962L427.636 107.682V118H426.068V117.076C425.816 117.393 425.504 117.641 425.13 117.818C424.757 117.986 424.346 118.07 423.898 118.07ZM424.388 116.74C424.724 116.74 425.037 116.675 425.326 116.544C425.616 116.404 425.858 116.213 426.054 115.97V113.016C425.849 112.773 425.602 112.587 425.312 112.456C425.023 112.325 424.715 112.26 424.388 112.26C423.987 112.26 423.628 112.358 423.31 112.554C423.002 112.741 422.755 113.002 422.568 113.338C422.382 113.674 422.288 114.061 422.288 114.5C422.288 114.92 422.382 115.303 422.568 115.648C422.755 115.984 423.002 116.25 423.31 116.446C423.628 116.642 423.987 116.74 424.388 116.74Z" fill="#151515"/>
<path d="M329.976 143V138.996L326.168 133.2H327.428L330.55 138.058L333.686 133.2H334.876L331.054 139.024V143H329.976ZM337.662 143.112C337.027 143.112 336.458 142.958 335.954 142.65C335.45 142.342 335.053 141.922 334.764 141.39C334.475 140.858 334.33 140.256 334.33 139.584C334.33 138.912 334.475 138.31 334.764 137.778C335.053 137.246 335.45 136.826 335.954 136.518C336.458 136.21 337.027 136.056 337.662 136.056C338.287 136.056 338.847 136.21 339.342 136.518C339.846 136.826 340.243 137.246 340.532 137.778C340.821 138.31 340.966 138.912 340.966 139.584C340.966 140.256 340.821 140.858 340.532 141.39C340.243 141.922 339.846 142.342 339.342 142.65C338.847 142.958 338.287 143.112 337.662 143.112ZM337.648 142.216C338.096 142.216 338.493 142.104 338.838 141.88C339.183 141.647 339.454 141.329 339.65 140.928C339.855 140.527 339.958 140.079 339.958 139.584C339.958 139.08 339.855 138.632 339.65 138.24C339.454 137.839 339.183 137.526 338.838 137.302C338.493 137.069 338.096 136.952 337.648 136.952C337.2 136.952 336.803 137.069 336.458 137.302C336.113 137.526 335.837 137.839 335.632 138.24C335.436 138.632 335.338 139.08 335.338 139.584C335.338 140.079 335.436 140.527 335.632 140.928C335.837 141.329 336.113 141.647 336.458 141.88C336.803 142.104 337.2 142.216 337.648 142.216ZM345.195 143.112C344.71 143.112 344.28 143.005 343.907 142.79C343.534 142.575 343.24 142.277 343.025 141.894C342.82 141.511 342.717 141.073 342.717 140.578V136.168H343.753V140.284C343.753 140.891 343.916 141.371 344.243 141.726C344.57 142.081 345.013 142.258 345.573 142.258C345.956 142.258 346.296 142.169 346.595 141.992C346.903 141.815 347.16 141.558 347.365 141.222V136.168H348.387V143H347.365V141.894C347.104 142.295 346.791 142.599 346.427 142.804C346.072 143.009 345.662 143.112 345.195 143.112ZM353.751 143V132.892L354.773 132.682V137.274C355.035 136.863 355.347 136.56 355.711 136.364C356.075 136.159 356.486 136.056 356.943 136.056C357.438 136.056 357.867 136.163 358.231 136.378C358.605 136.583 358.894 136.877 359.099 137.26C359.314 137.633 359.421 138.072 359.421 138.576V143H358.399V138.87C358.399 138.263 358.231 137.787 357.895 137.442C357.569 137.087 357.125 136.91 356.565 136.91C356.192 136.91 355.851 136.999 355.543 137.176C355.235 137.353 354.979 137.615 354.773 137.96V143H353.751ZM363.59 143.126C363.104 143.126 362.675 143.037 362.302 142.86C361.928 142.683 361.634 142.44 361.42 142.132C361.214 141.815 361.112 141.451 361.112 141.04C361.112 140.629 361.219 140.275 361.434 139.976C361.648 139.668 361.947 139.43 362.33 139.262C362.712 139.094 363.16 139.01 363.674 139.01C364.066 139.01 364.434 139.052 364.78 139.136C365.134 139.22 365.461 139.355 365.76 139.542V138.604C365.76 138.044 365.61 137.624 365.312 137.344C365.013 137.055 364.574 136.91 363.996 136.91C363.678 136.91 363.352 136.957 363.016 137.05C362.689 137.143 362.325 137.293 361.924 137.498L361.546 136.714C362.46 136.275 363.319 136.056 364.122 136.056C364.971 136.056 365.624 136.266 366.082 136.686C366.539 137.097 366.768 137.689 366.768 138.464V143H365.76V142.202C365.461 142.51 365.13 142.743 364.766 142.902C364.402 143.051 364.01 143.126 363.59 143.126ZM362.092 141.012C362.092 141.413 362.246 141.735 362.554 141.978C362.871 142.221 363.286 142.342 363.8 142.342C364.182 142.342 364.532 142.277 364.85 142.146C365.176 142.015 365.48 141.819 365.76 141.558V140.242C365.47 140.074 365.172 139.953 364.864 139.878C364.556 139.794 364.21 139.752 363.828 139.752C363.305 139.752 362.885 139.869 362.568 140.102C362.25 140.326 362.092 140.629 362.092 141.012ZM370.531 143L367.731 136.168H368.837L371.049 141.726L373.233 136.168H374.325L371.511 143H370.531ZM378.46 143.14C377.825 143.14 377.251 142.986 376.738 142.678C376.225 142.361 375.819 141.936 375.52 141.404C375.221 140.863 375.072 140.256 375.072 139.584C375.072 138.912 375.212 138.31 375.492 137.778C375.781 137.246 376.169 136.826 376.654 136.518C377.139 136.21 377.681 136.056 378.278 136.056C378.885 136.056 379.421 136.21 379.888 136.518C380.364 136.817 380.737 137.227 381.008 137.75C381.288 138.263 381.428 138.847 381.428 139.5V139.808H376.066C376.103 140.275 376.229 140.695 376.444 141.068C376.668 141.432 376.957 141.721 377.312 141.936C377.676 142.141 378.073 142.244 378.502 142.244C378.857 142.244 379.197 142.183 379.524 142.062C379.86 141.931 380.145 141.759 380.378 141.544L381.022 142.23C380.63 142.538 380.224 142.767 379.804 142.916C379.384 143.065 378.936 143.14 378.46 143.14ZM376.094 139.08H380.42C380.373 138.669 380.247 138.305 380.042 137.988C379.846 137.661 379.594 137.405 379.286 137.218C378.987 137.031 378.651 136.938 378.278 136.938C377.905 136.938 377.564 137.031 377.256 137.218C376.948 137.395 376.691 137.647 376.486 137.974C376.29 138.291 376.159 138.66 376.094 139.08ZM386.441 143V132.99L387.463 132.78V137.106C387.724 136.779 388.041 136.527 388.415 136.35C388.788 136.173 389.203 136.084 389.661 136.084C390.258 136.084 390.79 136.243 391.257 136.56C391.733 136.868 392.111 137.288 392.391 137.82C392.671 138.343 392.811 138.931 392.811 139.584C392.811 140.237 392.666 140.83 392.377 141.362C392.097 141.894 391.714 142.319 391.229 142.636C390.753 142.944 390.211 143.098 389.605 143.098C389.175 143.098 388.774 143.014 388.401 142.846C388.037 142.669 387.719 142.421 387.449 142.104V143H386.441ZM389.409 142.216C389.866 142.216 390.272 142.104 390.627 141.88C390.991 141.647 391.275 141.334 391.481 140.942C391.695 140.541 391.803 140.093 391.803 139.598C391.803 139.094 391.695 138.646 391.481 138.254C391.275 137.862 390.991 137.554 390.627 137.33C390.272 137.097 389.866 136.98 389.409 136.98C389.007 136.98 388.634 137.064 388.289 137.232C387.953 137.391 387.677 137.619 387.463 137.918V141.264C387.687 141.563 387.967 141.796 388.303 141.964C388.648 142.132 389.017 142.216 389.409 142.216ZM397.683 143.14C397.048 143.14 396.474 142.986 395.961 142.678C395.447 142.361 395.041 141.936 394.743 141.404C394.444 140.863 394.295 140.256 394.295 139.584C394.295 138.912 394.435 138.31 394.715 137.778C395.004 137.246 395.391 136.826 395.877 136.518C396.362 136.21 396.903 136.056 397.501 136.056C398.107 136.056 398.644 136.21 399.111 136.518C399.587 136.817 399.96 137.227 400.231 137.75C400.511 138.263 400.651 138.847 400.651 139.5V139.808H395.289C395.326 140.275 395.452 140.695 395.667 141.068C395.891 141.432 396.18 141.721 396.535 141.936C396.899 142.141 397.295 142.244 397.725 142.244C398.079 142.244 398.42 142.183 398.747 142.062C399.083 141.931 399.367 141.759 399.601 141.544L400.245 142.23C399.853 142.538 399.447 142.767 399.027 142.916C398.607 143.065 398.159 143.14 397.683 143.14ZM395.317 139.08H399.643C399.596 138.669 399.47 138.305 399.265 137.988C399.069 137.661 398.817 137.405 398.509 137.218C398.21 137.031 397.874 136.938 397.501 136.938C397.127 136.938 396.787 137.031 396.479 137.218C396.171 137.395 395.914 137.647 395.709 137.974C395.513 138.291 395.382 138.66 395.317 139.08ZM405.476 143.14C404.841 143.14 404.267 142.986 403.754 142.678C403.24 142.361 402.834 141.936 402.536 141.404C402.237 140.863 402.088 140.256 402.088 139.584C402.088 138.912 402.228 138.31 402.508 137.778C402.797 137.246 403.184 136.826 403.67 136.518C404.155 136.21 404.696 136.056 405.294 136.056C405.9 136.056 406.437 136.21 406.904 136.518C407.38 136.817 407.753 137.227 408.024 137.75C408.304 138.263 408.444 138.847 408.444 139.5V139.808H403.082C403.119 140.275 403.245 140.695 403.46 141.068C403.684 141.432 403.973 141.721 404.328 141.936C404.692 142.141 405.088 142.244 405.518 142.244C405.872 142.244 406.213 142.183 406.54 142.062C406.876 141.931 407.16 141.759 407.394 141.544L408.038 142.23C407.646 142.538 407.24 142.767 406.82 142.916C406.4 143.065 405.952 143.14 405.476 143.14ZM403.11 139.08H407.436C407.389 138.669 407.263 138.305 407.058 137.988C406.862 137.661 406.61 137.405 406.302 137.218C406.003 137.031 405.667 136.938 405.294 136.938C404.92 136.938 404.58 137.031 404.272 137.218C403.964 137.395 403.707 137.647 403.502 137.974C403.306 138.291 403.175 138.66 403.11 139.08ZM410.189 143V136.168H411.211V137.274C411.472 136.863 411.785 136.56 412.149 136.364C412.513 136.159 412.923 136.056 413.381 136.056C413.875 136.056 414.305 136.163 414.669 136.378C415.042 136.583 415.331 136.877 415.537 137.26C415.751 137.633 415.859 138.072 415.859 138.576V143H414.837V138.87C414.837 138.263 414.669 137.787 414.333 137.442C414.006 137.087 413.563 136.91 413.003 136.91C412.629 136.91 412.289 136.999 411.981 137.176C411.673 137.353 411.416 137.615 411.211 137.96V143H410.189ZM421.181 143V132.892L422.203 132.682V143H421.181ZM427.322 143.112C426.687 143.112 426.118 142.958 425.614 142.65C425.11 142.342 424.713 141.922 424.424 141.39C424.135 140.858 423.99 140.256 423.99 139.584C423.99 138.912 424.135 138.31 424.424 137.778C424.713 137.246 425.11 136.826 425.614 136.518C426.118 136.21 426.687 136.056 427.322 136.056C427.947 136.056 428.507 136.21 429.002 136.518C429.506 136.826 429.903 137.246 430.192 137.778C430.481 138.31 430.626 138.912 430.626 139.584C430.626 140.256 430.481 140.858 430.192 141.39C429.903 141.922 429.506 142.342 429.002 142.65C428.507 142.958 427.947 143.112 427.322 143.112ZM427.308 142.216C427.756 142.216 428.153 142.104 428.498 141.88C428.843 141.647 429.114 141.329 429.31 140.928C429.515 140.527 429.618 140.079 429.618 139.584C429.618 139.08 429.515 138.632 429.31 138.24C429.114 137.839 428.843 137.526 428.498 137.302C428.153 137.069 427.756 136.952 427.308 136.952C426.86 136.952 426.463 137.069 426.118 137.302C425.773 137.526 425.497 137.839 425.292 138.24C425.096 138.632 424.998 139.08 424.998 139.584C424.998 140.079 425.096 140.527 425.292 140.928C425.497 141.329 425.773 141.647 426.118 141.88C426.463 142.104 426.86 142.216 427.308 142.216ZM435.583 146.066C435.126 146.066 434.664 146.001 434.197 145.87C433.74 145.749 433.315 145.576 432.923 145.352L433.357 144.568C433.777 144.783 434.16 144.941 434.505 145.044C434.85 145.147 435.196 145.198 435.541 145.198C436.166 145.198 436.638 145.049 436.955 144.75C437.282 144.451 437.445 144.017 437.445 143.448V142.076C437.184 142.403 436.866 142.655 436.493 142.832C436.12 143 435.709 143.084 435.261 143.084C434.673 143.084 434.141 142.93 433.665 142.622C433.189 142.305 432.811 141.885 432.531 141.362C432.251 140.83 432.111 140.237 432.111 139.584C432.111 138.931 432.251 138.343 432.531 137.82C432.82 137.288 433.208 136.868 433.693 136.56C434.178 136.243 434.72 136.084 435.317 136.084C435.746 136.084 436.143 136.168 436.507 136.336C436.871 136.495 437.188 136.733 437.459 137.05V136.168H438.467V143.434C438.467 144.283 438.22 144.932 437.725 145.38C437.23 145.837 436.516 146.066 435.583 146.066ZM435.513 142.202C435.914 142.202 436.283 142.123 436.619 141.964C436.955 141.796 437.23 141.567 437.445 141.278V137.904C437.221 137.615 436.936 137.391 436.591 137.232C436.255 137.064 435.896 136.98 435.513 136.98C435.056 136.98 434.645 137.092 434.281 137.316C433.926 137.54 433.642 137.848 433.427 138.24C433.222 138.632 433.119 139.08 433.119 139.584C433.119 140.079 433.222 140.527 433.427 140.928C433.642 141.32 433.926 141.633 434.281 141.866C434.645 142.09 435.056 142.202 435.513 142.202ZM443.732 146.066C443.274 146.066 442.812 146.001 442.346 145.87C441.888 145.749 441.464 145.576 441.072 145.352L441.506 144.568C441.926 144.783 442.308 144.941 442.654 145.044C442.999 145.147 443.344 145.198 443.69 145.198C444.315 145.198 444.786 145.049 445.104 144.75C445.43 144.451 445.594 144.017 445.594 143.448V142.076C445.332 142.403 445.015 142.655 444.642 142.832C444.268 143 443.858 143.084 443.41 143.084C442.822 143.084 442.29 142.93 441.814 142.622C441.338 142.305 440.96 141.885 440.68 141.362C440.4 140.83 440.26 140.237 440.26 139.584C440.26 138.931 440.4 138.343 440.68 137.82C440.969 137.288 441.356 136.868 441.842 136.56C442.327 136.243 442.868 136.084 443.466 136.084C443.895 136.084 444.292 136.168 444.656 136.336C445.02 136.495 445.337 136.733 445.608 137.05V136.168H446.616V143.434C446.616 144.283 446.368 144.932 445.874 145.38C445.379 145.837 444.665 146.066 443.732 146.066ZM443.662 142.202C444.063 142.202 444.432 142.123 444.768 141.964C445.104 141.796 445.379 141.567 445.594 141.278V137.904C445.37 137.615 445.085 137.391 444.74 137.232C444.404 137.064 444.044 136.98 443.662 136.98C443.204 136.98 442.794 137.092 442.43 137.316C442.075 137.54 441.79 137.848 441.576 138.24C441.37 138.632 441.268 139.08 441.268 139.584C441.268 140.079 441.37 140.527 441.576 140.928C441.79 141.32 442.075 141.633 442.43 141.866C442.794 142.09 443.204 142.202 443.662 142.202ZM451.796 143.14C451.161 143.14 450.587 142.986 450.074 142.678C449.561 142.361 449.155 141.936 448.856 141.404C448.557 140.863 448.408 140.256 448.408 139.584C448.408 138.912 448.548 138.31 448.828 137.778C449.117 137.246 449.505 136.826 449.99 136.518C450.475 136.21 451.017 136.056 451.614 136.056C452.221 136.056 452.757 136.21 453.224 136.518C453.7 136.817 454.073 137.227 454.344 137.75C454.624 138.263 454.764 138.847 454.764 139.5V139.808H449.402C449.439 140.275 449.565 140.695 449.78 141.068C450.004 141.432 450.293 141.721 450.648 141.936C451.012 142.141 451.409 142.244 451.838 142.244C452.193 142.244 452.533 142.183 452.86 142.062C453.196 141.931 453.481 141.759 453.714 141.544L454.358 142.23C453.966 142.538 453.56 142.767 453.14 142.916C452.72 143.065 452.272 143.14 451.796 143.14ZM449.43 139.08H453.756C453.709 138.669 453.583 138.305 453.378 137.988C453.182 137.661 452.93 137.405 452.622 137.218C452.323 137.031 451.987 136.938 451.614 136.938C451.241 136.938 450.9 137.031 450.592 137.218C450.284 137.395 450.027 137.647 449.822 137.974C449.626 138.291 449.495 138.66 449.43 139.08ZM459.351 143.098C458.763 143.098 458.231 142.944 457.755 142.636C457.279 142.319 456.901 141.899 456.621 141.376C456.341 140.844 456.201 140.251 456.201 139.598C456.201 138.935 456.341 138.343 456.621 137.82C456.91 137.288 457.298 136.868 457.783 136.56C458.268 136.243 458.81 136.084 459.407 136.084C459.827 136.084 460.219 136.168 460.583 136.336C460.947 136.495 461.264 136.728 461.535 137.036V132.892L462.557 132.682V143H461.535V142.09C461.274 142.417 460.956 142.669 460.583 142.846C460.21 143.014 459.799 143.098 459.351 143.098ZM459.603 142.202C460.004 142.202 460.373 142.123 460.709 141.964C461.045 141.805 461.32 141.581 461.535 141.292V137.904C461.311 137.615 461.026 137.391 460.681 137.232C460.345 137.064 459.986 136.98 459.603 136.98C459.146 136.98 458.735 137.092 458.371 137.316C458.016 137.54 457.732 137.848 457.517 138.24C457.312 138.632 457.209 139.08 457.209 139.584C457.209 140.079 457.312 140.527 457.517 140.928C457.732 141.32 458.016 141.633 458.371 141.866C458.735 142.09 459.146 142.202 459.603 142.202ZM470.949 143.112C470.314 143.112 469.745 142.958 469.241 142.65C468.737 142.342 468.34 141.922 468.051 141.39C467.762 140.858 467.617 140.256 467.617 139.584C467.617 138.912 467.762 138.31 468.051 137.778C468.34 137.246 468.737 136.826 469.241 136.518C469.745 136.21 470.314 136.056 470.949 136.056C471.574 136.056 472.134 136.21 472.629 136.518C473.133 136.826 473.53 137.246 473.819 137.778C474.108 138.31 474.253 138.912 474.253 139.584C474.253 140.256 474.108 140.858 473.819 141.39C473.53 141.922 473.133 142.342 472.629 142.65C472.134 142.958 471.574 143.112 470.949 143.112ZM470.935 142.216C471.383 142.216 471.78 142.104 472.125 141.88C472.47 141.647 472.741 141.329 472.937 140.928C473.142 140.527 473.245 140.079 473.245 139.584C473.245 139.08 473.142 138.632 472.937 138.24C472.741 137.839 472.47 137.526 472.125 137.302C471.78 137.069 471.383 136.952 470.935 136.952C470.487 136.952 470.09 137.069 469.745 137.302C469.4 137.526 469.124 137.839 468.919 138.24C468.723 138.632 468.625 139.08 468.625 139.584C468.625 140.079 468.723 140.527 468.919 140.928C469.124 141.329 469.4 141.647 469.745 141.88C470.09 142.104 470.487 142.216 470.935 142.216ZM478.482 143.112C477.997 143.112 477.567 143.005 477.194 142.79C476.821 142.575 476.527 142.277 476.312 141.894C476.107 141.511 476.004 141.073 476.004 140.578V136.168H477.04V140.284C477.04 140.891 477.203 141.371 477.53 141.726C477.857 142.081 478.3 142.258 478.86 142.258C479.243 142.258 479.583 142.169 479.882 141.992C480.19 141.815 480.447 141.558 480.652 141.222V136.168H481.674V143H480.652V141.894C480.391 142.295 480.078 142.599 479.714 142.804C479.359 143.009 478.949 143.112 478.482 143.112ZM486.375 143.14C485.787 143.14 485.339 143 485.031 142.72C484.732 142.431 484.583 142.015 484.583 141.474V137.008H483.169V136.168H484.583V134.292L485.605 134.054V136.168H487.565V137.008H485.605V141.208C485.605 141.572 485.679 141.833 485.829 141.992C485.987 142.151 486.244 142.23 486.599 142.23C486.776 142.23 486.935 142.216 487.075 142.188C487.215 142.16 487.378 142.113 487.565 142.048V142.958C487.378 143.023 487.182 143.07 486.977 143.098C486.771 143.126 486.571 143.14 486.375 143.14ZM495.171 143.098C494.583 143.098 494.051 142.944 493.575 142.636C493.099 142.319 492.721 141.899 492.441 141.376C492.161 140.844 492.021 140.251 492.021 139.598C492.021 138.935 492.161 138.343 492.441 137.82C492.731 137.288 493.118 136.868 493.603 136.56C494.089 136.243 494.63 136.084 495.227 136.084C495.647 136.084 496.039 136.168 496.403 136.336C496.767 136.495 497.085 136.728 497.355 137.036V132.892L498.377 132.682V143H497.355V142.09C497.094 142.417 496.777 142.669 496.403 142.846C496.03 143.014 495.619 143.098 495.171 143.098ZM495.423 142.202C495.825 142.202 496.193 142.123 496.529 141.964C496.865 141.805 497.141 141.581 497.355 141.292V137.904C497.131 137.615 496.847 137.391 496.501 137.232C496.165 137.064 495.806 136.98 495.423 136.98C494.966 136.98 494.555 137.092 494.191 137.316C493.837 137.54 493.552 137.848 493.337 138.24C493.132 138.632 493.029 139.08 493.029 139.584C493.029 140.079 493.132 140.527 493.337 140.928C493.552 141.32 493.837 141.633 494.191 141.866C494.555 142.09 494.966 142.202 495.423 142.202ZM502.914 143.112C502.428 143.112 501.999 143.005 501.626 142.79C501.252 142.575 500.958 142.277 500.744 141.894C500.538 141.511 500.436 141.073 500.436 140.578V136.168H501.472V140.284C501.472 140.891 501.635 141.371 501.962 141.726C502.288 142.081 502.732 142.258 503.292 142.258C503.674 142.258 504.015 142.169 504.314 141.992C504.622 141.815 504.878 141.558 505.084 141.222V136.168H506.106V143H505.084V141.894C504.822 142.295 504.51 142.599 504.146 142.804C503.791 143.009 503.38 143.112 502.914 143.112ZM511.282 143.14C510.648 143.14 510.074 142.986 509.56 142.678C509.047 142.361 508.641 141.936 508.342 141.404C508.044 140.863 507.894 140.256 507.894 139.584C507.894 138.912 508.034 138.31 508.314 137.778C508.604 137.246 508.991 136.826 509.476 136.518C509.962 136.21 510.503 136.056 511.1 136.056C511.707 136.056 512.244 136.21 512.71 136.518C513.186 136.817 513.56 137.227 513.83 137.75C514.11 138.263 514.25 138.847 514.25 139.5V139.808H508.888C508.926 140.275 509.052 140.695 509.266 141.068C509.49 141.432 509.78 141.721 510.134 141.936C510.498 142.141 510.895 142.244 511.324 142.244C511.679 142.244 512.02 142.183 512.346 142.062C512.682 141.931 512.967 141.759 513.2 141.544L513.844 142.23C513.452 142.538 513.046 142.767 512.626 142.916C512.206 143.065 511.758 143.14 511.282 143.14ZM508.916 139.08H513.242C513.196 138.669 513.07 138.305 512.864 137.988C512.668 137.661 512.416 137.405 512.108 137.218C511.81 137.031 511.474 136.938 511.1 136.938C510.727 136.938 510.386 137.031 510.078 137.218C509.77 137.395 509.514 137.647 509.308 137.974C509.112 138.291 508.982 138.66 508.916 139.08ZM521.867 143.14C521.279 143.14 520.831 143 520.523 142.72C520.224 142.431 520.075 142.015 520.075 141.474V137.008H518.661V136.168H520.075V134.292L521.097 134.054V136.168H523.057V137.008H521.097V141.208C521.097 141.572 521.172 141.833 521.321 141.992C521.48 142.151 521.736 142.23 522.091 142.23C522.268 142.23 522.427 142.216 522.567 142.188C522.707 142.16 522.87 142.113 523.057 142.048V142.958C522.87 143.023 522.674 143.07 522.469 143.098C522.264 143.126 522.063 143.14 521.867 143.14ZM527.441 143.112C526.807 143.112 526.237 142.958 525.733 142.65C525.229 142.342 524.833 141.922 524.543 141.39C524.254 140.858 524.109 140.256 524.109 139.584C524.109 138.912 524.254 138.31 524.543 137.778C524.833 137.246 525.229 136.826 525.733 136.518C526.237 136.21 526.807 136.056 527.441 136.056C528.067 136.056 528.627 136.21 529.121 136.518C529.625 136.826 530.022 137.246 530.311 137.778C530.601 138.31 530.745 138.912 530.745 139.584C530.745 140.256 530.601 140.858 530.311 141.39C530.022 141.922 529.625 142.342 529.121 142.65C528.627 142.958 528.067 143.112 527.441 143.112ZM527.427 142.216C527.875 142.216 528.272 142.104 528.617 141.88C528.963 141.647 529.233 141.329 529.429 140.928C529.635 140.527 529.737 140.079 529.737 139.584C529.737 139.08 529.635 138.632 529.429 138.24C529.233 137.839 528.963 137.526 528.617 137.302C528.272 137.069 527.875 136.952 527.427 136.952C526.979 136.952 526.583 137.069 526.237 137.302C525.892 137.526 525.617 137.839 525.411 138.24C525.215 138.632 525.117 139.08 525.117 139.584C525.117 140.079 525.215 140.527 525.411 140.928C525.617 141.329 525.892 141.647 526.237 141.88C526.583 142.104 526.979 142.216 527.427 142.216ZM535.792 143V136.168H536.814V143H535.792ZM536.31 134.474C536.105 134.474 535.927 134.404 535.778 134.264C535.638 134.115 535.568 133.942 535.568 133.746C535.568 133.55 535.638 133.382 535.778 133.242C535.927 133.093 536.105 133.018 536.31 133.018C536.515 133.018 536.688 133.093 536.828 133.242C536.977 133.382 537.052 133.55 537.052 133.746C537.052 133.942 536.977 134.115 536.828 134.264C536.688 134.404 536.515 134.474 536.31 134.474ZM538.909 143V136.168H539.931V137.274C540.193 136.863 540.505 136.56 540.869 136.364C541.233 136.159 541.644 136.056 542.101 136.056C542.596 136.056 543.025 136.163 543.389 136.378C543.763 136.583 544.052 136.877 544.257 137.26C544.472 137.633 544.579 138.072 544.579 138.576V143H543.557V138.87C543.557 138.263 543.389 137.787 543.053 137.442C542.727 137.087 542.283 136.91 541.723 136.91C541.35 136.91 541.009 136.999 540.701 137.176C540.393 137.353 540.137 137.615 539.931 137.96V143H538.909ZM548.748 143.126C548.263 143.126 547.833 143.037 547.46 142.86C547.087 142.683 546.793 142.44 546.578 142.132C546.373 141.815 546.27 141.451 546.27 141.04C546.27 140.629 546.377 140.275 546.592 139.976C546.807 139.668 547.105 139.43 547.488 139.262C547.871 139.094 548.319 139.01 548.832 139.01C549.224 139.01 549.593 139.052 549.938 139.136C550.293 139.22 550.619 139.355 550.918 139.542V138.604C550.918 138.044 550.769 137.624 550.47 137.344C550.171 137.055 549.733 136.91 549.154 136.91C548.837 136.91 548.51 136.957 548.174 137.05C547.847 137.143 547.483 137.293 547.082 137.498L546.704 136.714C547.619 136.275 548.477 136.056 549.28 136.056C550.129 136.056 550.783 136.266 551.24 136.686C551.697 137.097 551.926 137.689 551.926 138.464V143H550.918V142.202C550.619 142.51 550.288 142.743 549.924 142.902C549.56 143.051 549.168 143.126 548.748 143.126ZM547.25 141.012C547.25 141.413 547.404 141.735 547.712 141.978C548.029 142.221 548.445 142.342 548.958 142.342C549.341 142.342 549.691 142.277 550.008 142.146C550.335 142.015 550.638 141.819 550.918 141.558V140.242C550.629 140.074 550.33 139.953 550.022 139.878C549.714 139.794 549.369 139.752 548.986 139.752C548.463 139.752 548.043 139.869 547.726 140.102C547.409 140.326 547.25 140.629 547.25 141.012ZM557.069 143.112C556.434 143.112 555.86 142.958 555.347 142.65C554.843 142.333 554.442 141.908 554.143 141.376C553.844 140.835 553.695 140.237 553.695 139.584C553.695 138.921 553.844 138.324 554.143 137.792C554.442 137.26 554.843 136.84 555.347 136.532C555.86 136.215 556.434 136.056 557.069 136.056C557.573 136.056 558.054 136.149 558.511 136.336C558.968 136.523 559.365 136.784 559.701 137.12L559.043 137.834C558.8 137.563 558.506 137.353 558.161 137.204C557.816 137.055 557.466 136.98 557.111 136.98C556.663 136.98 556.257 137.097 555.893 137.33C555.538 137.563 555.254 137.876 555.039 138.268C554.824 138.66 554.717 139.099 554.717 139.584C554.717 140.069 554.824 140.508 555.039 140.9C555.254 141.292 555.538 141.605 555.893 141.838C556.257 142.071 556.663 142.188 557.111 142.188C557.466 142.188 557.816 142.113 558.161 141.964C558.506 141.805 558.8 141.595 559.043 141.334L559.701 142.048C559.365 142.384 558.968 142.645 558.511 142.832C558.054 143.019 557.573 143.112 557.069 143.112ZM563.867 143.14C563.279 143.14 562.831 143 562.523 142.72C562.224 142.431 562.075 142.015 562.075 141.474V137.008H560.661V136.168H562.075V134.292L563.097 134.054V136.168H565.057V137.008H563.097V141.208C563.097 141.572 563.172 141.833 563.321 141.992C563.48 142.151 563.736 142.23 564.091 142.23C564.268 142.23 564.427 142.216 564.567 142.188C564.707 142.16 564.87 142.113 565.057 142.048V142.958C564.87 143.023 564.674 143.07 564.469 143.098C564.264 143.126 564.063 143.14 563.867 143.14ZM566.54 143V136.168H567.562V143H566.54ZM567.058 134.474C566.853 134.474 566.675 134.404 566.526 134.264C566.386 134.115 566.316 133.942 566.316 133.746C566.316 133.55 566.386 133.382 566.526 133.242C566.675 133.093 566.853 133.018 567.058 133.018C567.263 133.018 567.436 133.093 567.576 133.242C567.725 133.382 567.8 133.55 567.8 133.746C567.8 133.942 567.725 134.115 567.576 134.264C567.436 134.404 567.263 134.474 567.058 134.474ZM571.617 143L568.817 136.168H569.923L572.135 141.726L574.319 136.168H575.411L572.597 143H571.617ZM576.657 143V136.168H577.679V143H576.657ZM577.175 134.474C576.97 134.474 576.792 134.404 576.643 134.264C576.503 134.115 576.433 133.942 576.433 133.746C576.433 133.55 576.503 133.382 576.643 133.242C576.792 133.093 576.97 133.018 577.175 133.018C577.38 133.018 577.553 133.093 577.693 133.242C577.842 133.382 577.917 133.55 577.917 133.746C577.917 133.942 577.842 134.115 577.693 134.264C577.553 134.404 577.38 134.474 577.175 134.474ZM582.379 143.14C581.791 143.14 581.343 143 581.035 142.72C580.736 142.431 580.587 142.015 580.587 141.474V137.008H579.173V136.168H580.587V134.292L581.609 134.054V136.168H583.569V137.008H581.609V141.208C581.609 141.572 581.683 141.833 581.833 141.992C581.991 142.151 582.248 142.23 582.603 142.23C582.78 142.23 582.939 142.216 583.079 142.188C583.219 142.16 583.382 142.113 583.569 142.048V142.958C583.382 143.023 583.186 143.07 582.981 143.098C582.775 143.126 582.575 143.14 582.379 143.14ZM585.496 146.066C585.282 146.066 585.062 146.033 584.838 145.968V145.058C584.932 145.077 585.03 145.091 585.132 145.1C585.235 145.109 585.324 145.114 585.398 145.114C585.66 145.114 585.874 145.044 586.042 144.904C586.22 144.764 586.369 144.545 586.49 144.246L586.994 143L584.362 136.168H585.496L587.568 141.782L589.766 136.168H590.9L587.456 144.554C587.307 144.918 587.144 145.212 586.966 145.436C586.789 145.66 586.584 145.819 586.35 145.912C586.117 146.015 585.832 146.066 585.496 146.066ZM591.959 143.112C591.754 143.112 591.576 143.037 591.427 142.888C591.287 142.739 591.217 142.561 591.217 142.356C591.217 142.141 591.287 141.964 591.427 141.824C591.576 141.675 591.754 141.6 591.959 141.6C592.164 141.6 592.337 141.675 592.477 141.824C592.626 141.964 592.701 142.141 592.701 142.356C592.701 142.561 592.626 142.739 592.477 142.888C592.337 143.037 592.164 143.112 591.959 143.112Z" fill="#151515"/>
<path d="M621.882 109.585C622.218 109.249 622.763 109.249 623.099 109.585L623.706 110.193C624.042 110.529 624.042 111.073 623.706 111.409L620.97 114.145L623.706 116.882C624.042 117.218 624.042 117.763 623.706 118.099L623.099 118.706C622.763 119.042 622.218 119.042 621.882 118.706L619.146 115.97L616.409 118.706C616.073 119.042 615.529 119.042 615.193 118.706L614.585 118.099C614.249 117.762 614.249 117.217 614.585 116.882L617.321 114.145L614.585 111.409C614.25 111.073 614.249 110.529 614.585 110.193L615.193 109.585C615.529 109.249 616.073 109.249 616.409 109.585L619.146 112.321L621.882 109.585Z" fill="#1F1F1F"/>
<path d="M286.096 196.154C285.265 196.154 284.537 195.977 283.912 195.622C283.296 195.267 282.82 194.763 282.484 194.11C282.148 193.457 281.98 192.687 281.98 191.8V186.2H283.66V191.8C283.66 192.379 283.758 192.878 283.954 193.298C284.159 193.718 284.444 194.049 284.808 194.292C285.172 194.525 285.601 194.642 286.096 194.642C286.591 194.642 287.02 194.525 287.384 194.292C287.757 194.049 288.042 193.718 288.238 193.298C288.434 192.878 288.532 192.379 288.532 191.8V186.2H290.212V191.8C290.212 192.687 290.044 193.457 289.708 194.11C289.381 194.763 288.91 195.267 288.294 195.622C287.678 195.977 286.945 196.154 286.096 196.154ZM294.614 196.14C294.017 196.14 293.457 196.061 292.934 195.902C292.421 195.734 291.977 195.496 291.604 195.188L292.346 194.138C292.813 194.427 293.214 194.633 293.55 194.754C293.895 194.875 294.245 194.936 294.6 194.936C295.02 194.936 295.361 194.847 295.622 194.67C295.883 194.493 296.014 194.264 296.014 193.984C296.014 193.769 295.935 193.601 295.776 193.48C295.627 193.349 295.379 193.251 295.034 193.186L293.802 192.976C293.121 192.845 292.612 192.621 292.276 192.304C291.94 191.987 291.772 191.567 291.772 191.044C291.772 190.605 291.884 190.227 292.108 189.91C292.341 189.583 292.659 189.331 293.06 189.154C293.471 188.967 293.947 188.874 294.488 188.874C294.973 188.874 295.445 188.944 295.902 189.084C296.359 189.224 296.807 189.434 297.246 189.714L296.504 190.764C296.149 190.531 295.795 190.363 295.44 190.26C295.095 190.148 294.745 190.092 294.39 190.092C294.026 190.092 293.732 190.167 293.508 190.316C293.293 190.456 293.186 190.652 293.186 190.904C293.186 191.128 293.256 191.301 293.396 191.422C293.545 191.534 293.802 191.618 294.166 191.674L295.412 191.912C296.112 192.033 296.63 192.257 296.966 192.584C297.311 192.901 297.484 193.326 297.484 193.858C297.484 194.287 297.358 194.675 297.106 195.02C296.854 195.365 296.513 195.641 296.084 195.846C295.655 196.042 295.165 196.14 294.614 196.14ZM302.263 196.14C301.591 196.14 300.985 195.981 300.443 195.664C299.902 195.337 299.473 194.903 299.155 194.362C298.838 193.811 298.679 193.191 298.679 192.5C298.679 191.809 298.829 191.193 299.127 190.652C299.426 190.111 299.832 189.681 300.345 189.364C300.868 189.037 301.447 188.874 302.081 188.874C302.735 188.874 303.309 189.033 303.803 189.35C304.307 189.667 304.699 190.097 304.979 190.638C305.269 191.179 305.413 191.8 305.413 192.5V192.878H300.233C300.289 193.261 300.411 193.601 300.597 193.9C300.793 194.189 301.041 194.418 301.339 194.586C301.647 194.754 301.979 194.838 302.333 194.838C302.66 194.838 302.968 194.782 303.257 194.67C303.556 194.549 303.803 194.385 303.999 194.18L305.035 195.118C304.606 195.473 304.167 195.734 303.719 195.902C303.281 196.061 302.795 196.14 302.263 196.14ZM300.247 191.898H303.915C303.859 191.562 303.743 191.263 303.565 191.002C303.397 190.741 303.183 190.535 302.921 190.386C302.669 190.237 302.389 190.162 302.081 190.162C301.773 190.162 301.489 190.237 301.227 190.386C300.975 190.526 300.765 190.727 300.597 190.988C300.429 191.249 300.313 191.553 300.247 191.898ZM307.027 196V188.986H308.609V190.498C308.814 189.966 309.08 189.56 309.407 189.28C309.734 189 310.112 188.86 310.541 188.86C310.672 188.869 310.788 188.883 310.891 188.902C310.994 188.911 311.106 188.944 311.227 189V190.386C311.106 190.33 310.966 190.288 310.807 190.26C310.658 190.232 310.508 190.218 310.359 190.218C309.976 190.218 309.631 190.321 309.323 190.526C309.024 190.731 308.786 191.016 308.609 191.38V196H307.027ZM312.523 196V188.986H314.105V190.134C314.376 189.714 314.698 189.401 315.071 189.196C315.444 188.981 315.86 188.874 316.317 188.874C316.802 188.874 317.227 188.981 317.591 189.196C317.955 189.401 318.24 189.691 318.445 190.064C318.66 190.437 318.767 190.876 318.767 191.38V196H317.171V191.828C317.171 191.315 317.031 190.909 316.751 190.61C316.471 190.302 316.098 190.148 315.631 190.148C315.314 190.148 315.024 190.223 314.763 190.372C314.511 190.512 314.292 190.722 314.105 191.002V196H312.523ZM322.799 196.126C322.314 196.126 321.88 196.037 321.497 195.86C321.124 195.673 320.83 195.421 320.615 195.104C320.41 194.777 320.307 194.404 320.307 193.984C320.307 193.564 320.415 193.2 320.629 192.892C320.853 192.584 321.166 192.346 321.567 192.178C321.969 192.01 322.445 191.926 322.995 191.926C323.322 191.926 323.644 191.963 323.961 192.038C324.279 192.103 324.587 192.215 324.885 192.374V191.59C324.885 191.123 324.75 190.773 324.479 190.54C324.218 190.307 323.817 190.19 323.275 190.19C322.986 190.19 322.673 190.237 322.337 190.33C322.011 190.414 321.642 190.549 321.231 190.736L320.671 189.588C321.698 189.112 322.669 188.874 323.583 188.874C324.498 188.874 325.203 189.098 325.697 189.546C326.201 189.985 326.453 190.61 326.453 191.422V196H324.885V195.272C324.587 195.561 324.265 195.776 323.919 195.916C323.574 196.056 323.201 196.126 322.799 196.126ZM321.791 193.956C321.791 194.283 321.922 194.539 322.183 194.726C322.445 194.913 322.795 195.006 323.233 195.006C323.551 195.006 323.845 194.959 324.115 194.866C324.395 194.763 324.652 194.614 324.885 194.418V193.284C324.643 193.172 324.391 193.088 324.129 193.032C323.868 192.976 323.583 192.948 323.275 192.948C322.818 192.948 322.454 193.037 322.183 193.214C321.922 193.391 321.791 193.639 321.791 193.956ZM328.369 196V188.986H329.951V190.092C330.212 189.691 330.515 189.387 330.861 189.182C331.215 188.977 331.603 188.874 332.023 188.874C332.508 188.874 332.928 188.995 333.283 189.238C333.647 189.481 333.917 189.807 334.095 190.218C334.375 189.779 334.706 189.448 335.089 189.224C335.481 188.991 335.924 188.874 336.419 188.874C336.867 188.874 337.263 188.981 337.609 189.196C337.963 189.411 338.234 189.709 338.421 190.092C338.617 190.475 338.715 190.913 338.715 191.408V196H337.133V191.758C337.133 191.263 337.007 190.871 336.755 190.582C336.503 190.293 336.157 190.148 335.719 190.148C335.439 190.148 335.177 190.218 334.935 190.358C334.701 190.498 334.496 190.708 334.319 190.988C334.328 191.053 334.333 191.123 334.333 191.198C334.342 191.263 334.347 191.333 334.347 191.408V196H332.751V191.758C332.751 191.263 332.625 190.871 332.373 190.582C332.121 190.293 331.775 190.148 331.337 190.148C330.767 190.148 330.305 190.419 329.951 190.96V196H328.369ZM343.894 196.14C343.222 196.14 342.616 195.981 342.074 195.664C341.533 195.337 341.104 194.903 340.786 194.362C340.469 193.811 340.31 193.191 340.31 192.5C340.31 191.809 340.46 191.193 340.758 190.652C341.057 190.111 341.463 189.681 341.976 189.364C342.499 189.037 343.078 188.874 343.712 188.874C344.366 188.874 344.94 189.033 345.434 189.35C345.938 189.667 346.33 190.097 346.61 190.638C346.9 191.179 347.044 191.8 347.044 192.5V192.878H341.864C341.92 193.261 342.042 193.601 342.228 193.9C342.424 194.189 342.672 194.418 342.97 194.586C343.278 194.754 343.61 194.838 343.964 194.838C344.291 194.838 344.599 194.782 344.888 194.67C345.187 194.549 345.434 194.385 345.63 194.18L346.666 195.118C346.237 195.473 345.798 195.734 345.35 195.902C344.912 196.061 344.426 196.14 343.894 196.14ZM341.878 191.898H345.546C345.49 191.562 345.374 191.263 345.196 191.002C345.028 190.741 344.814 190.535 344.552 190.386C344.3 190.237 344.02 190.162 343.712 190.162C343.404 190.162 343.12 190.237 342.858 190.386C342.606 190.526 342.396 190.727 342.228 190.988C342.06 191.249 341.944 191.553 341.878 191.898Z" fill="#151515"/>
<path d="M354.412 189.908L354.436 188.252L353.092 189.128L352.744 188.588L354.16 187.712L352.792 186.848L353.128 186.32L354.424 187.172L354.412 185.6H355.036L355.024 187.16L356.308 186.32L356.668 186.848L355.288 187.712L356.716 188.588L356.356 189.128L355.012 188.252L355.036 189.908H354.412Z" fill="#F4784A"/>
<mask id="path-12-inside-2_3432_39819" fill="white">
<path d="M281 216C281 212.686 283.686 210 287 210H644C647.314 210 650 212.686 650 216V241C650 244.314 647.314 247 644 247H287C283.686 247 281 244.314 281 241V216Z"/>
</mask>
<path d="M281 216C281 212.686 283.686 210 287 210H644C647.314 210 650 212.686 650 216V241C650 244.314 647.314 247 644 247H287C283.686 247 281 244.314 281 241V216Z" fill="white"/>
<path d="M287 210V211H644V210V209H287V210ZM650 216H649V241H650H651V216H650ZM644 247V246H287V247V248H644V247ZM281 241H282V216H281H280V241H281ZM287 247V246C284.239 246 282 243.761 282 241H281H280C280 244.866 283.134 248 287 248V247ZM650 241H649C649 243.761 646.761 246 644 246V247V248C647.866 248 651 244.866 651 241H650ZM644 210V211C646.761 211 649 213.239 649 216H650H651C651 212.134 647.866 209 644 209V210ZM287 210V209C283.134 209 280 212.134 280 216H281H282C282 213.239 284.239 211 287 211V210Z" fill="#C7C7C7" mask="url(#path-12-inside-2_3432_39819)"/>
<path d="M282.176 278V268.2H286.558C287.221 268.2 287.795 268.331 288.28 268.592C288.775 268.844 289.157 269.199 289.428 269.656C289.699 270.113 289.834 270.645 289.834 271.252C289.834 271.831 289.699 272.349 289.428 272.806C289.157 273.263 288.775 273.623 288.28 273.884C287.795 274.136 287.221 274.262 286.558 274.262H283.856V278H282.176ZM283.856 272.89H286.292C286.889 272.89 287.347 272.741 287.664 272.442C287.981 272.134 288.14 271.733 288.14 271.238C288.14 270.753 287.981 270.361 287.664 270.062C287.347 269.763 286.894 269.614 286.306 269.614H283.856V272.89ZM293.323 278.126C292.838 278.126 292.404 278.037 292.021 277.86C291.648 277.673 291.354 277.421 291.139 277.104C290.934 276.777 290.831 276.404 290.831 275.984C290.831 275.564 290.938 275.2 291.153 274.892C291.377 274.584 291.69 274.346 292.091 274.178C292.492 274.01 292.968 273.926 293.519 273.926C293.846 273.926 294.168 273.963 294.485 274.038C294.802 274.103 295.11 274.215 295.409 274.374V273.59C295.409 273.123 295.274 272.773 295.003 272.54C294.742 272.307 294.34 272.19 293.799 272.19C293.51 272.19 293.197 272.237 292.861 272.33C292.534 272.414 292.166 272.549 291.755 272.736L291.195 271.588C292.222 271.112 293.192 270.874 294.107 270.874C295.022 270.874 295.726 271.098 296.221 271.546C296.725 271.985 296.977 272.61 296.977 273.422V278H295.409V277.272C295.11 277.561 294.788 277.776 294.443 277.916C294.098 278.056 293.724 278.126 293.323 278.126ZM292.315 275.956C292.315 276.283 292.446 276.539 292.707 276.726C292.968 276.913 293.318 277.006 293.757 277.006C294.074 277.006 294.368 276.959 294.639 276.866C294.919 276.763 295.176 276.614 295.409 276.418V275.284C295.166 275.172 294.914 275.088 294.653 275.032C294.392 274.976 294.107 274.948 293.799 274.948C293.342 274.948 292.978 275.037 292.707 275.214C292.446 275.391 292.315 275.639 292.315 275.956ZM301.272 278.14C300.675 278.14 300.115 278.061 299.592 277.902C299.079 277.734 298.635 277.496 298.262 277.188L299.004 276.138C299.471 276.427 299.872 276.633 300.208 276.754C300.553 276.875 300.903 276.936 301.258 276.936C301.678 276.936 302.019 276.847 302.28 276.67C302.541 276.493 302.672 276.264 302.672 275.984C302.672 275.769 302.593 275.601 302.434 275.48C302.285 275.349 302.037 275.251 301.692 275.186L300.46 274.976C299.779 274.845 299.27 274.621 298.934 274.304C298.598 273.987 298.43 273.567 298.43 273.044C298.43 272.605 298.542 272.227 298.766 271.91C298.999 271.583 299.317 271.331 299.718 271.154C300.129 270.967 300.605 270.874 301.146 270.874C301.631 270.874 302.103 270.944 302.56 271.084C303.017 271.224 303.465 271.434 303.904 271.714L303.162 272.764C302.807 272.531 302.453 272.363 302.098 272.26C301.753 272.148 301.403 272.092 301.048 272.092C300.684 272.092 300.39 272.167 300.166 272.316C299.951 272.456 299.844 272.652 299.844 272.904C299.844 273.128 299.914 273.301 300.054 273.422C300.203 273.534 300.46 273.618 300.824 273.674L302.07 273.912C302.77 274.033 303.288 274.257 303.624 274.584C303.969 274.901 304.142 275.326 304.142 275.858C304.142 276.287 304.016 276.675 303.764 277.02C303.512 277.365 303.171 277.641 302.742 277.846C302.313 278.042 301.823 278.14 301.272 278.14ZM307.971 278.14C307.374 278.14 306.814 278.061 306.291 277.902C305.778 277.734 305.335 277.496 304.961 277.188L305.703 276.138C306.17 276.427 306.571 276.633 306.907 276.754C307.253 276.875 307.603 276.936 307.957 276.936C308.377 276.936 308.718 276.847 308.979 276.67C309.241 276.493 309.371 276.264 309.371 275.984C309.371 275.769 309.292 275.601 309.133 275.48C308.984 275.349 308.737 275.251 308.391 275.186L307.159 274.976C306.478 274.845 305.969 274.621 305.633 274.304C305.297 273.987 305.129 273.567 305.129 273.044C305.129 272.605 305.241 272.227 305.465 271.91C305.699 271.583 306.016 271.331 306.417 271.154C306.828 270.967 307.304 270.874 307.845 270.874C308.331 270.874 308.802 270.944 309.259 271.084C309.717 271.224 310.165 271.434 310.603 271.714L309.861 272.764C309.507 272.531 309.152 272.363 308.797 272.26C308.452 272.148 308.102 272.092 307.747 272.092C307.383 272.092 307.089 272.167 306.865 272.316C306.651 272.456 306.543 272.652 306.543 272.904C306.543 273.128 306.613 273.301 306.753 273.422C306.903 273.534 307.159 273.618 307.523 273.674L308.769 273.912C309.469 274.033 309.987 274.257 310.323 274.584C310.669 274.901 310.841 275.326 310.841 275.858C310.841 276.287 310.715 276.675 310.463 277.02C310.211 277.365 309.871 277.641 309.441 277.846C309.012 278.042 308.522 278.14 307.971 278.14ZM313.523 278L311.633 270.986H313.145L314.377 275.928L315.833 270.986H317.163L318.605 275.928L319.837 270.986H321.307L319.417 278H317.905L316.477 273.058L315.063 278H313.523ZM325.668 278.126C325.006 278.126 324.404 277.967 323.862 277.65C323.33 277.333 322.91 276.903 322.602 276.362C322.294 275.811 322.14 275.191 322.14 274.5C322.14 273.809 322.294 273.193 322.602 272.652C322.91 272.101 323.33 271.667 323.862 271.35C324.394 271.033 324.996 270.874 325.668 270.874C326.34 270.874 326.938 271.033 327.46 271.35C327.992 271.667 328.412 272.101 328.72 272.652C329.028 273.193 329.182 273.809 329.182 274.5C329.182 275.191 329.028 275.811 328.72 276.362C328.412 276.903 327.992 277.333 327.46 277.65C326.938 277.967 326.34 278.126 325.668 278.126ZM325.668 276.782C326.051 276.782 326.387 276.684 326.676 276.488C326.975 276.292 327.208 276.021 327.376 275.676C327.544 275.321 327.628 274.929 327.628 274.5C327.628 274.061 327.544 273.674 327.376 273.338C327.208 272.993 326.975 272.722 326.676 272.526C326.387 272.321 326.051 272.218 325.668 272.218C325.286 272.218 324.945 272.321 324.646 272.526C324.348 272.722 324.114 272.993 323.946 273.338C323.778 273.674 323.694 274.061 323.694 274.5C323.694 274.939 323.778 275.331 323.946 275.676C324.114 276.021 324.348 276.292 324.646 276.488C324.945 276.684 325.286 276.782 325.668 276.782ZM330.816 278V270.986H332.398V272.498C332.603 271.966 332.869 271.56 333.196 271.28C333.523 271 333.901 270.86 334.33 270.86C334.461 270.869 334.577 270.883 334.68 270.902C334.783 270.911 334.895 270.944 335.016 271V272.386C334.895 272.33 334.755 272.288 334.596 272.26C334.447 272.232 334.297 272.218 334.148 272.218C333.765 272.218 333.42 272.321 333.112 272.526C332.813 272.731 332.575 273.016 332.398 273.38V278H330.816ZM338.826 278.07C338.238 278.07 337.706 277.911 337.23 277.594C336.754 277.267 336.371 276.838 336.082 276.306C335.802 275.765 335.662 275.163 335.662 274.5C335.662 273.828 335.807 273.226 336.096 272.694C336.385 272.153 336.777 271.723 337.272 271.406C337.776 271.089 338.331 270.93 338.938 270.93C339.339 270.93 339.713 271.009 340.058 271.168C340.413 271.317 340.721 271.541 340.982 271.84V267.962L342.564 267.682V278H340.996V277.076C340.744 277.393 340.431 277.641 340.058 277.818C339.685 277.986 339.274 278.07 338.826 278.07ZM339.316 276.74C339.652 276.74 339.965 276.675 340.254 276.544C340.543 276.404 340.786 276.213 340.982 275.97V273.016C340.777 272.773 340.529 272.587 340.24 272.456C339.951 272.325 339.643 272.26 339.316 272.26C338.915 272.26 338.555 272.358 338.238 272.554C337.93 272.741 337.683 273.002 337.496 273.338C337.309 273.674 337.216 274.061 337.216 274.5C337.216 274.92 337.309 275.303 337.496 275.648C337.683 275.984 337.93 276.25 338.238 276.446C338.555 276.642 338.915 276.74 339.316 276.74Z" fill="#151515"/>
<path d="M350.412 271.908L350.436 270.252L349.092 271.128L348.744 270.588L350.16 269.712L348.792 268.848L349.128 268.32L350.424 269.172L350.412 267.6H351.036L351.024 269.16L352.308 268.32L352.668 268.848L351.288 269.712L352.716 270.588L352.356 271.128L351.012 270.252L351.036 271.908H350.412Z" fill="#F4784A"/>
<mask id="path-16-inside-3_3432_39819" fill="white">
<path d="M281 298C281 294.686 283.686 292 287 292H644C647.314 292 650 294.686 650 298V323C650 326.314 647.314 329 644 329H287C283.686 329 281 326.314 281 323V298Z"/>
</mask>
<path d="M281 298C281 294.686 283.686 292 287 292H644C647.314 292 650 294.686 650 298V323C650 326.314 647.314 329 644 329H287C283.686 329 281 326.314 281 323V298Z" fill="white"/>
<path d="M287 292V293H644V292V291H287V292ZM650 298H649V323H650H651V298H650ZM644 329V328H287V329V330H644V329ZM281 323H282V298H281H280V323H281ZM287 329V328C284.239 328 282 325.761 282 323H281H280C280 326.866 283.134 330 287 330V329ZM650 323H649C649 325.761 646.761 328 644 328V329V330C647.866 330 651 326.866 651 323H650ZM644 292V293C646.761 293 649 295.239 649 298H650H651C651 294.134 647.866 291 644 291V292ZM287 292V291C283.134 291 280 294.134 280 298H281H282C282 295.239 284.239 293 287 293V292Z" fill="#C7C7C7" mask="url(#path-16-inside-3_3432_39819)"/>
<mask id="path-18-inside-4_3432_39819" fill="white">
<path d="M281 351.5C281 349.291 282.791 347.5 285 347.5H293C295.209 347.5 297 349.291 297 351.5V359.5C297 361.709 295.209 363.5 293 363.5H285C282.791 363.5 281 361.709 281 359.5V351.5Z"/>
</mask>
<path d="M281 351.5C281 349.291 282.791 347.5 285 347.5H293C295.209 347.5 297 349.291 297 351.5V359.5C297 361.709 295.209 363.5 293 363.5H285C282.791 363.5 281 361.709 281 359.5V351.5Z" fill="white"/>
<path d="M285 347.5V348.5H293V347.5V346.5H285V347.5ZM297 351.5H296V359.5H297H298V351.5H297ZM293 363.5V362.5H285V363.5V364.5H293V363.5ZM281 359.5H282V351.5H281H280V359.5H281ZM285 363.5V362.5C283.343 362.5 282 361.157 282 359.5H281H280C280 362.261 282.239 364.5 285 364.5V363.5ZM297 359.5H296C296 361.157 294.657 362.5 293 362.5V363.5V364.5C295.761 364.5 298 362.261 298 359.5H297ZM293 347.5V348.5C294.657 348.5 296 349.843 296 351.5H297H298C298 348.739 295.761 346.5 293 346.5V347.5ZM285 347.5V346.5C282.239 346.5 280 348.739 280 351.5H281H282C282 349.843 283.343 348.5 285 348.5V347.5Z" fill="#C7C7C7" mask="url(#path-18-inside-4_3432_39819)"/>
<path d="M306.246 360V350.2H307.324V354.848L312.084 350.2H313.456L308.458 355.016L313.568 360H312.098L307.324 355.31V360H306.246ZM317.114 360.14C316.48 360.14 315.906 359.986 315.392 359.678C314.879 359.361 314.473 358.936 314.174 358.404C313.876 357.863 313.726 357.256 313.726 356.584C313.726 355.912 313.866 355.31 314.146 354.778C314.436 354.246 314.823 353.826 315.308 353.518C315.794 353.21 316.335 353.056 316.932 353.056C317.539 353.056 318.076 353.21 318.542 353.518C319.018 353.817 319.392 354.227 319.662 354.75C319.942 355.263 320.082 355.847 320.082 356.5V356.808H314.72C314.758 357.275 314.884 357.695 315.098 358.068C315.322 358.432 315.612 358.721 315.966 358.936C316.33 359.141 316.727 359.244 317.156 359.244C317.511 359.244 317.852 359.183 318.178 359.062C318.514 358.931 318.799 358.759 319.032 358.544L319.676 359.23C319.284 359.538 318.878 359.767 318.458 359.916C318.038 360.065 317.59 360.14 317.114 360.14ZM314.748 356.08H319.074C319.028 355.669 318.902 355.305 318.696 354.988C318.5 354.661 318.248 354.405 317.94 354.218C317.642 354.031 317.306 353.938 316.932 353.938C316.559 353.938 316.218 354.031 315.91 354.218C315.602 354.395 315.346 354.647 315.14 354.974C314.944 355.291 314.814 355.66 314.748 356.08ZM324.907 360.14C324.273 360.14 323.699 359.986 323.185 359.678C322.672 359.361 322.266 358.936 321.967 358.404C321.669 357.863 321.519 357.256 321.519 356.584C321.519 355.912 321.659 355.31 321.939 354.778C322.229 354.246 322.616 353.826 323.101 353.518C323.587 353.21 324.128 353.056 324.725 353.056C325.332 353.056 325.869 353.21 326.335 353.518C326.811 353.817 327.185 354.227 327.455 354.75C327.735 355.263 327.875 355.847 327.875 356.5V356.808H322.513C322.551 357.275 322.677 357.695 322.891 358.068C323.115 358.432 323.405 358.721 323.759 358.936C324.123 359.141 324.52 359.244 324.949 359.244C325.304 359.244 325.645 359.183 325.971 359.062C326.307 358.931 326.592 358.759 326.825 358.544L327.469 359.23C327.077 359.538 326.671 359.767 326.251 359.916C325.831 360.065 325.383 360.14 324.907 360.14ZM322.541 356.08H326.867C326.821 355.669 326.695 355.305 326.489 354.988C326.293 354.661 326.041 354.405 325.733 354.218C325.435 354.031 325.099 353.938 324.725 353.938C324.352 353.938 324.011 354.031 323.703 354.218C323.395 354.395 323.139 354.647 322.933 354.974C322.737 355.291 322.607 355.66 322.541 356.08ZM329.62 362.926V353.168H330.628V354.148C330.89 353.803 331.207 353.541 331.58 353.364C331.963 353.177 332.383 353.084 332.84 353.084C333.438 353.084 333.97 353.243 334.436 353.56C334.912 353.868 335.29 354.288 335.57 354.82C335.85 355.343 335.99 355.931 335.99 356.584C335.99 357.237 335.846 357.83 335.556 358.362C335.276 358.894 334.894 359.319 334.408 359.636C333.932 359.944 333.391 360.098 332.784 360.098C332.355 360.098 331.958 360.019 331.594 359.86C331.23 359.692 330.913 359.454 330.642 359.146V362.926H329.62ZM332.588 359.216C333.046 359.216 333.452 359.104 333.806 358.88C334.17 358.647 334.455 358.334 334.66 357.942C334.875 357.541 334.982 357.093 334.982 356.598C334.982 356.094 334.875 355.646 334.66 355.254C334.455 354.862 334.17 354.554 333.806 354.33C333.452 354.097 333.046 353.98 332.588 353.98C332.187 353.98 331.814 354.064 331.468 354.232C331.132 354.391 330.857 354.619 330.642 354.918V358.264C330.866 358.563 331.146 358.796 331.482 358.964C331.828 359.132 332.196 359.216 332.588 359.216ZM341.05 360V353.168H342.072V354.232C342.333 353.84 342.632 353.546 342.968 353.35C343.304 353.154 343.682 353.056 344.102 353.056C344.587 353.056 345.012 353.177 345.376 353.42C345.74 353.653 346.015 353.975 346.202 354.386C346.473 353.947 346.795 353.616 347.168 353.392C347.551 353.168 347.989 353.056 348.484 353.056C348.941 353.056 349.343 353.163 349.688 353.378C350.043 353.593 350.318 353.891 350.514 354.274C350.71 354.647 350.808 355.086 350.808 355.59V360H349.786V355.842C349.786 355.245 349.637 354.773 349.338 354.428C349.039 354.083 348.629 353.91 348.106 353.91C347.751 353.91 347.429 353.999 347.14 354.176C346.86 354.353 346.613 354.624 346.398 354.988C346.417 355.081 346.431 355.179 346.44 355.282C346.449 355.385 346.454 355.487 346.454 355.59V360H345.432V355.842C345.432 355.245 345.278 354.773 344.97 354.428C344.671 354.083 344.261 353.91 343.738 353.91C343.038 353.91 342.483 354.246 342.072 354.918V360H341.05ZM355.956 360.14C355.322 360.14 354.748 359.986 354.234 359.678C353.721 359.361 353.315 358.936 353.016 358.404C352.718 357.863 352.568 357.256 352.568 356.584C352.568 355.912 352.708 355.31 352.988 354.778C353.278 354.246 353.665 353.826 354.15 353.518C354.636 353.21 355.177 353.056 355.774 353.056C356.381 353.056 356.918 353.21 357.384 353.518C357.86 353.817 358.234 354.227 358.504 354.75C358.784 355.263 358.924 355.847 358.924 356.5V356.808H353.562C353.6 357.275 353.726 357.695 353.94 358.068C354.164 358.432 354.454 358.721 354.808 358.936C355.172 359.141 355.569 359.244 355.998 359.244C356.353 359.244 356.694 359.183 357.02 359.062C357.356 358.931 357.641 358.759 357.874 358.544L358.518 359.23C358.126 359.538 357.72 359.767 357.3 359.916C356.88 360.065 356.432 360.14 355.956 360.14ZM353.59 356.08H357.916C357.87 355.669 357.744 355.305 357.538 354.988C357.342 354.661 357.09 354.405 356.782 354.218C356.484 354.031 356.148 353.938 355.774 353.938C355.401 353.938 355.06 354.031 354.752 354.218C354.444 354.395 354.188 354.647 353.982 354.974C353.786 355.291 353.656 355.66 353.59 356.08ZM363.937 360V349.892L364.959 349.682V360H363.937ZM370.078 360.112C369.443 360.112 368.874 359.958 368.37 359.65C367.866 359.342 367.469 358.922 367.18 358.39C366.891 357.858 366.746 357.256 366.746 356.584C366.746 355.912 366.891 355.31 367.18 354.778C367.469 354.246 367.866 353.826 368.37 353.518C368.874 353.21 369.443 353.056 370.078 353.056C370.703 353.056 371.263 353.21 371.758 353.518C372.262 353.826 372.659 354.246 372.948 354.778C373.237 355.31 373.382 355.912 373.382 356.584C373.382 357.256 373.237 357.858 372.948 358.39C372.659 358.922 372.262 359.342 371.758 359.65C371.263 359.958 370.703 360.112 370.078 360.112ZM370.064 359.216C370.512 359.216 370.909 359.104 371.254 358.88C371.599 358.647 371.87 358.329 372.066 357.928C372.271 357.527 372.374 357.079 372.374 356.584C372.374 356.08 372.271 355.632 372.066 355.24C371.87 354.839 371.599 354.526 371.254 354.302C370.909 354.069 370.512 353.952 370.064 353.952C369.616 353.952 369.219 354.069 368.874 354.302C368.529 354.526 368.253 354.839 368.048 355.24C367.852 355.632 367.754 356.08 367.754 356.584C367.754 357.079 367.852 357.527 368.048 357.928C368.253 358.329 368.529 358.647 368.874 358.88C369.219 359.104 369.616 359.216 370.064 359.216ZM378.339 363.066C377.882 363.066 377.42 363.001 376.953 362.87C376.496 362.749 376.071 362.576 375.679 362.352L376.113 361.568C376.533 361.783 376.916 361.941 377.261 362.044C377.606 362.147 377.952 362.198 378.297 362.198C378.922 362.198 379.394 362.049 379.711 361.75C380.038 361.451 380.201 361.017 380.201 360.448V359.076C379.94 359.403 379.622 359.655 379.249 359.832C378.876 360 378.465 360.084 378.017 360.084C377.429 360.084 376.897 359.93 376.421 359.622C375.945 359.305 375.567 358.885 375.287 358.362C375.007 357.83 374.867 357.237 374.867 356.584C374.867 355.931 375.007 355.343 375.287 354.82C375.576 354.288 375.964 353.868 376.449 353.56C376.934 353.243 377.476 353.084 378.073 353.084C378.502 353.084 378.899 353.168 379.263 353.336C379.627 353.495 379.944 353.733 380.215 354.05V353.168H381.223V360.434C381.223 361.283 380.976 361.932 380.481 362.38C379.986 362.837 379.272 363.066 378.339 363.066ZM378.269 359.202C378.67 359.202 379.039 359.123 379.375 358.964C379.711 358.796 379.986 358.567 380.201 358.278V354.904C379.977 354.615 379.692 354.391 379.347 354.232C379.011 354.064 378.652 353.98 378.269 353.98C377.812 353.98 377.401 354.092 377.037 354.316C376.682 354.54 376.398 354.848 376.183 355.24C375.978 355.632 375.875 356.08 375.875 356.584C375.875 357.079 375.978 357.527 376.183 357.928C376.398 358.32 376.682 358.633 377.037 358.866C377.401 359.09 377.812 359.202 378.269 359.202ZM386.487 363.066C386.03 363.066 385.568 363.001 385.101 362.87C384.644 362.749 384.219 362.576 383.827 362.352L384.261 361.568C384.681 361.783 385.064 361.941 385.409 362.044C385.755 362.147 386.1 362.198 386.445 362.198C387.071 362.198 387.542 362.049 387.859 361.75C388.186 361.451 388.349 361.017 388.349 360.448V359.076C388.088 359.403 387.771 359.655 387.397 359.832C387.024 360 386.613 360.084 386.165 360.084C385.577 360.084 385.045 359.93 384.569 359.622C384.093 359.305 383.715 358.885 383.435 358.362C383.155 357.83 383.015 357.237 383.015 356.584C383.015 355.931 383.155 355.343 383.435 354.82C383.725 354.288 384.112 353.868 384.597 353.56C385.083 353.243 385.624 353.084 386.221 353.084C386.651 353.084 387.047 353.168 387.411 353.336C387.775 353.495 388.093 353.733 388.363 354.05V353.168H389.371V360.434C389.371 361.283 389.124 361.932 388.629 362.38C388.135 362.837 387.421 363.066 386.487 363.066ZM386.417 359.202C386.819 359.202 387.187 359.123 387.523 358.964C387.859 358.796 388.135 358.567 388.349 358.278V354.904C388.125 354.615 387.841 354.391 387.495 354.232C387.159 354.064 386.8 353.98 386.417 353.98C385.96 353.98 385.549 354.092 385.185 354.316C384.831 354.54 384.546 354.848 384.331 355.24C384.126 355.632 384.023 356.08 384.023 356.584C384.023 357.079 384.126 357.527 384.331 357.928C384.546 358.32 384.831 358.633 385.185 358.866C385.549 359.09 385.96 359.202 386.417 359.202ZM394.552 360.14C393.917 360.14 393.343 359.986 392.83 359.678C392.317 359.361 391.911 358.936 391.612 358.404C391.313 357.863 391.164 357.256 391.164 356.584C391.164 355.912 391.304 355.31 391.584 354.778C391.873 354.246 392.261 353.826 392.746 353.518C393.231 353.21 393.773 353.056 394.37 353.056C394.977 353.056 395.513 353.21 395.98 353.518C396.456 353.817 396.829 354.227 397.1 354.75C397.38 355.263 397.52 355.847 397.52 356.5V356.808H392.158C392.195 357.275 392.321 357.695 392.536 358.068C392.76 358.432 393.049 358.721 393.404 358.936C393.768 359.141 394.165 359.244 394.594 359.244C394.949 359.244 395.289 359.183 395.616 359.062C395.952 358.931 396.237 358.759 396.47 358.544L397.114 359.23C396.722 359.538 396.316 359.767 395.896 359.916C395.476 360.065 395.028 360.14 394.552 360.14ZM392.186 356.08H396.512C396.465 355.669 396.339 355.305 396.134 354.988C395.938 354.661 395.686 354.405 395.378 354.218C395.079 354.031 394.743 353.938 394.37 353.938C393.997 353.938 393.656 354.031 393.348 354.218C393.04 354.395 392.783 354.647 392.578 354.974C392.382 355.291 392.251 355.66 392.186 356.08ZM402.107 360.098C401.519 360.098 400.987 359.944 400.511 359.636C400.035 359.319 399.657 358.899 399.377 358.376C399.097 357.844 398.957 357.251 398.957 356.598C398.957 355.935 399.097 355.343 399.377 354.82C399.666 354.288 400.054 353.868 400.539 353.56C401.024 353.243 401.566 353.084 402.163 353.084C402.583 353.084 402.975 353.168 403.339 353.336C403.703 353.495 404.02 353.728 404.291 354.036V349.892L405.313 349.682V360H404.291V359.09C404.03 359.417 403.712 359.669 403.339 359.846C402.966 360.014 402.555 360.098 402.107 360.098ZM402.359 359.202C402.76 359.202 403.129 359.123 403.465 358.964C403.801 358.805 404.076 358.581 404.291 358.292V354.904C404.067 354.615 403.782 354.391 403.437 354.232C403.101 354.064 402.742 353.98 402.359 353.98C401.902 353.98 401.491 354.092 401.127 354.316C400.772 354.54 400.488 354.848 400.273 355.24C400.068 355.632 399.965 356.08 399.965 356.584C399.965 357.079 400.068 357.527 400.273 357.928C400.488 358.32 400.772 358.633 401.127 358.866C401.491 359.09 401.902 359.202 402.359 359.202ZM410.667 360V353.168H411.689V360H410.667ZM411.185 351.474C410.98 351.474 410.802 351.404 410.653 351.264C410.513 351.115 410.443 350.942 410.443 350.746C410.443 350.55 410.513 350.382 410.653 350.242C410.802 350.093 410.98 350.018 411.185 350.018C411.39 350.018 411.563 350.093 411.703 350.242C411.852 350.382 411.927 350.55 411.927 350.746C411.927 350.942 411.852 351.115 411.703 351.264C411.563 351.404 411.39 351.474 411.185 351.474ZM413.784 360V353.168H414.806V354.274C415.068 353.863 415.38 353.56 415.744 353.364C416.108 353.159 416.519 353.056 416.976 353.056C417.471 353.056 417.9 353.163 418.264 353.378C418.638 353.583 418.927 353.877 419.132 354.26C419.347 354.633 419.454 355.072 419.454 355.576V360H418.432V355.87C418.432 355.263 418.264 354.787 417.928 354.442C417.602 354.087 417.158 353.91 416.598 353.91C416.225 353.91 415.884 353.999 415.576 354.176C415.268 354.353 415.012 354.615 414.806 354.96V360H413.784ZM425.645 360V354.008H424.119V353.168H425.645V351.74C425.645 351.068 425.822 350.55 426.177 350.186C426.531 349.822 427.035 349.64 427.689 349.64C427.875 349.64 428.043 349.649 428.193 349.668C428.351 349.687 428.491 349.719 428.613 349.766V350.69C428.463 350.643 428.328 350.611 428.207 350.592C428.085 350.573 427.945 350.564 427.787 350.564C427.395 350.564 427.11 350.662 426.933 350.858C426.755 351.045 426.667 351.343 426.667 351.754V353.168H428.613V354.008H426.667V360H425.645ZM432.695 360.112C432.06 360.112 431.491 359.958 430.987 359.65C430.483 359.342 430.086 358.922 429.797 358.39C429.508 357.858 429.363 357.256 429.363 356.584C429.363 355.912 429.508 355.31 429.797 354.778C430.086 354.246 430.483 353.826 430.987 353.518C431.491 353.21 432.06 353.056 432.695 353.056C433.32 353.056 433.88 353.21 434.375 353.518C434.879 353.826 435.276 354.246 435.565 354.778C435.854 355.31 435.999 355.912 435.999 356.584C435.999 357.256 435.854 357.858 435.565 358.39C435.276 358.922 434.879 359.342 434.375 359.65C433.88 359.958 433.32 360.112 432.695 360.112ZM432.681 359.216C433.129 359.216 433.526 359.104 433.871 358.88C434.216 358.647 434.487 358.329 434.683 357.928C434.888 357.527 434.991 357.079 434.991 356.584C434.991 356.08 434.888 355.632 434.683 355.24C434.487 354.839 434.216 354.526 433.871 354.302C433.526 354.069 433.129 353.952 432.681 353.952C432.233 353.952 431.836 354.069 431.491 354.302C431.146 354.526 430.87 354.839 430.665 355.24C430.469 355.632 430.371 356.08 430.371 356.584C430.371 357.079 430.469 357.527 430.665 357.928C430.87 358.329 431.146 358.647 431.491 358.88C431.836 359.104 432.233 359.216 432.681 359.216ZM437.792 360V353.168H438.814V354.568C438.992 354.092 439.244 353.723 439.57 353.462C439.906 353.191 440.289 353.056 440.718 353.056C440.84 353.056 440.952 353.065 441.054 353.084C441.157 353.093 441.26 353.117 441.362 353.154V354.078C441.25 354.041 441.129 354.013 440.998 353.994C440.877 353.966 440.76 353.952 440.648 353.952C440.228 353.952 439.86 354.073 439.542 354.316C439.234 354.559 438.992 354.899 438.814 355.338V360H437.792ZM448.88 360.154C448.208 360.154 447.578 360.037 446.99 359.804C446.411 359.571 445.898 359.225 445.45 358.768L446.122 358.11C446.532 358.521 446.952 358.819 447.382 359.006C447.82 359.183 448.315 359.272 448.866 359.272C449.342 359.272 449.762 359.188 450.126 359.02C450.499 358.852 450.788 358.619 450.994 358.32C451.199 358.021 451.302 357.681 451.302 357.298C451.302 356.934 451.208 356.612 451.022 356.332C450.844 356.043 450.597 355.819 450.28 355.66C449.962 355.501 449.598 355.422 449.188 355.422H448.026V354.554H449.146C449.678 354.554 450.107 354.391 450.434 354.064C450.77 353.737 450.938 353.313 450.938 352.79C450.938 352.445 450.844 352.132 450.658 351.852C450.471 351.572 450.214 351.353 449.888 351.194C449.57 351.026 449.211 350.942 448.81 350.942C448.306 350.942 447.853 351.035 447.452 351.222C447.06 351.399 446.658 351.703 446.248 352.132L445.576 351.46C446.014 350.993 446.509 350.643 447.06 350.41C447.61 350.167 448.198 350.046 448.824 350.046C449.421 350.046 449.953 350.163 450.42 350.396C450.896 350.629 451.269 350.951 451.54 351.362C451.81 351.763 451.946 352.221 451.946 352.734C451.946 353.247 451.778 353.709 451.442 354.12C451.106 354.521 450.662 354.801 450.112 354.96C450.774 355.109 451.306 355.399 451.708 355.828C452.109 356.257 452.31 356.757 452.31 357.326C452.31 357.867 452.16 358.353 451.862 358.782C451.572 359.211 451.166 359.547 450.644 359.79C450.13 360.033 449.542 360.154 448.88 360.154ZM457.618 360.154C456.871 360.154 456.209 359.939 455.63 359.51C455.061 359.081 454.613 358.488 454.286 357.732C453.959 356.967 453.796 356.089 453.796 355.1C453.796 354.101 453.959 353.224 454.286 352.468C454.613 351.712 455.061 351.119 455.63 350.69C456.209 350.261 456.871 350.046 457.618 350.046C458.365 350.046 459.023 350.261 459.592 350.69C460.171 351.119 460.623 351.712 460.95 352.468C461.277 353.224 461.44 354.101 461.44 355.1C461.44 356.089 461.277 356.967 460.95 357.732C460.623 358.488 460.171 359.081 459.592 359.51C459.023 359.939 458.365 360.154 457.618 360.154ZM457.618 359.244C458.187 359.244 458.677 359.076 459.088 358.74C459.508 358.395 459.835 357.914 460.068 357.298C460.301 356.673 460.418 355.94 460.418 355.1C460.418 354.26 460.301 353.532 460.068 352.916C459.835 352.291 459.508 351.81 459.088 351.474C458.677 351.129 458.187 350.956 457.618 350.956C457.058 350.956 456.568 351.129 456.148 351.474C455.728 351.81 455.401 352.291 455.168 352.916C454.935 353.532 454.818 354.26 454.818 355.1C454.818 355.94 454.935 356.673 455.168 357.298C455.401 357.914 455.728 358.395 456.148 358.74C456.568 359.076 457.058 359.244 457.618 359.244ZM469.4 360.098C468.812 360.098 468.28 359.944 467.804 359.636C467.328 359.319 466.95 358.899 466.67 358.376C466.39 357.844 466.25 357.251 466.25 356.598C466.25 355.935 466.39 355.343 466.67 354.82C466.959 354.288 467.346 353.868 467.832 353.56C468.317 353.243 468.858 353.084 469.456 353.084C469.876 353.084 470.268 353.168 470.632 353.336C470.996 353.495 471.313 353.728 471.584 354.036V349.892L472.606 349.682V360H471.584V359.09C471.322 359.417 471.005 359.669 470.632 359.846C470.258 360.014 469.848 360.098 469.4 360.098ZM469.652 359.202C470.053 359.202 470.422 359.123 470.758 358.964C471.094 358.805 471.369 358.581 471.584 358.292V354.904C471.36 354.615 471.075 354.391 470.73 354.232C470.394 354.064 470.034 353.98 469.652 353.98C469.194 353.98 468.784 354.092 468.42 354.316C468.065 354.54 467.78 354.848 467.566 355.24C467.36 355.632 467.258 356.08 467.258 356.584C467.258 357.079 467.36 357.527 467.566 357.928C467.78 358.32 468.065 358.633 468.42 358.866C468.784 359.09 469.194 359.202 469.652 359.202ZM476.82 360.126C476.335 360.126 475.906 360.037 475.532 359.86C475.159 359.683 474.865 359.44 474.65 359.132C474.445 358.815 474.342 358.451 474.342 358.04C474.342 357.629 474.45 357.275 474.664 356.976C474.879 356.668 475.178 356.43 475.56 356.262C475.943 356.094 476.391 356.01 476.904 356.01C477.296 356.01 477.665 356.052 478.01 356.136C478.365 356.22 478.692 356.355 478.99 356.542V355.604C478.99 355.044 478.841 354.624 478.542 354.344C478.244 354.055 477.805 353.91 477.226 353.91C476.909 353.91 476.582 353.957 476.246 354.05C475.92 354.143 475.556 354.293 475.154 354.498L474.776 353.714C475.691 353.275 476.55 353.056 477.352 353.056C478.202 353.056 478.855 353.266 479.312 353.686C479.77 354.097 479.998 354.689 479.998 355.464V360H478.99V359.202C478.692 359.51 478.36 359.743 477.996 359.902C477.632 360.051 477.24 360.126 476.82 360.126ZM475.322 358.012C475.322 358.413 475.476 358.735 475.784 358.978C476.102 359.221 476.517 359.342 477.03 359.342C477.413 359.342 477.763 359.277 478.08 359.146C478.407 359.015 478.71 358.819 478.99 358.558V357.242C478.701 357.074 478.402 356.953 478.094 356.878C477.786 356.794 477.441 356.752 477.058 356.752C476.536 356.752 476.116 356.869 475.798 357.102C475.481 357.326 475.322 357.629 475.322 358.012ZM482.233 363.066C482.018 363.066 481.799 363.033 481.575 362.968V362.058C481.668 362.077 481.766 362.091 481.869 362.1C481.971 362.109 482.06 362.114 482.135 362.114C482.396 362.114 482.611 362.044 482.779 361.904C482.956 361.764 483.105 361.545 483.227 361.246L483.731 360L481.099 353.168H482.233L484.305 358.782L486.503 353.168H487.637L484.193 361.554C484.043 361.918 483.88 362.212 483.703 362.436C483.525 362.66 483.32 362.819 483.087 362.912C482.853 363.015 482.569 363.066 482.233 363.066ZM491.025 360.14C490.465 360.14 489.947 360.056 489.471 359.888C488.995 359.711 488.589 359.459 488.253 359.132L488.799 358.46C489.21 358.759 489.588 358.978 489.933 359.118C490.279 359.249 490.633 359.314 490.997 359.314C491.492 359.314 491.903 359.197 492.229 358.964C492.556 358.731 492.719 358.432 492.719 358.068C492.719 357.788 492.621 357.569 492.425 357.41C492.239 357.251 491.926 357.13 491.487 357.046L490.367 356.85C489.705 356.729 489.215 356.523 488.897 356.234C488.589 355.945 488.435 355.553 488.435 355.058C488.435 354.666 488.538 354.321 488.743 354.022C488.958 353.723 489.252 353.49 489.625 353.322C489.999 353.145 490.423 353.056 490.899 353.056C491.366 353.056 491.809 353.126 492.229 353.266C492.649 353.397 493.074 353.611 493.503 353.91L492.999 354.624C492.645 354.372 492.29 354.19 491.935 354.078C491.581 353.957 491.221 353.896 490.857 353.896C490.409 353.896 490.05 353.994 489.779 354.19C489.509 354.386 489.373 354.652 489.373 354.988C489.373 355.268 489.457 355.483 489.625 355.632C489.803 355.781 490.111 355.893 490.549 355.968L491.697 356.178C492.388 356.299 492.892 356.509 493.209 356.808C493.527 357.107 493.685 357.508 493.685 358.012C493.685 358.413 493.569 358.777 493.335 359.104C493.102 359.421 492.785 359.673 492.383 359.86C491.982 360.047 491.529 360.14 491.025 360.14Z" fill="#151515"/>
<path d="M281 432.5C281 422.283 289.283 414 299.5 414H631.5C641.717 414 650 422.283 650 432.5C650 442.717 641.717 451 631.5 451H299.5C289.283 451 281 442.717 281 432.5Z" fill="#0066CC"/>
<path d="M447.246 437V427.2H448.324V436.048H453.854V437H447.246ZM458.222 437.112C457.588 437.112 457.018 436.958 456.514 436.65C456.01 436.342 455.614 435.922 455.324 435.39C455.035 434.858 454.89 434.256 454.89 433.584C454.89 432.912 455.035 432.31 455.324 431.778C455.614 431.246 456.01 430.826 456.514 430.518C457.018 430.21 457.588 430.056 458.222 430.056C458.848 430.056 459.408 430.21 459.902 430.518C460.406 430.826 460.803 431.246 461.092 431.778C461.382 432.31 461.526 432.912 461.526 433.584C461.526 434.256 461.382 434.858 461.092 435.39C460.803 435.922 460.406 436.342 459.902 436.65C459.408 436.958 458.848 437.112 458.222 437.112ZM458.208 436.216C458.656 436.216 459.053 436.104 459.398 435.88C459.744 435.647 460.014 435.329 460.21 434.928C460.416 434.527 460.518 434.079 460.518 433.584C460.518 433.08 460.416 432.632 460.21 432.24C460.014 431.839 459.744 431.526 459.398 431.302C459.053 431.069 458.656 430.952 458.208 430.952C457.76 430.952 457.364 431.069 457.018 431.302C456.673 431.526 456.398 431.839 456.192 432.24C455.996 432.632 455.898 433.08 455.898 433.584C455.898 434.079 455.996 434.527 456.192 434.928C456.398 435.329 456.673 435.647 457.018 435.88C457.364 436.104 457.76 436.216 458.208 436.216ZM466.484 440.066C466.026 440.066 465.564 440.001 465.098 439.87C464.64 439.749 464.216 439.576 463.824 439.352L464.258 438.568C464.678 438.783 465.06 438.941 465.406 439.044C465.751 439.147 466.096 439.198 466.442 439.198C467.067 439.198 467.538 439.049 467.856 438.75C468.182 438.451 468.346 438.017 468.346 437.448V436.076C468.084 436.403 467.767 436.655 467.394 436.832C467.02 437 466.61 437.084 466.162 437.084C465.574 437.084 465.042 436.93 464.566 436.622C464.09 436.305 463.712 435.885 463.432 435.362C463.152 434.83 463.012 434.237 463.012 433.584C463.012 432.931 463.152 432.343 463.432 431.82C463.721 431.288 464.108 430.868 464.594 430.56C465.079 430.243 465.62 430.084 466.218 430.084C466.647 430.084 467.044 430.168 467.408 430.336C467.772 430.495 468.089 430.733 468.36 431.05V430.168H469.368V437.434C469.368 438.283 469.12 438.932 468.626 439.38C468.131 439.837 467.417 440.066 466.484 440.066ZM466.414 436.202C466.815 436.202 467.184 436.123 467.52 435.964C467.856 435.796 468.131 435.567 468.346 435.278V431.904C468.122 431.615 467.837 431.391 467.492 431.232C467.156 431.064 466.796 430.98 466.414 430.98C465.956 430.98 465.546 431.092 465.182 431.316C464.827 431.54 464.542 431.848 464.328 432.24C464.122 432.632 464.02 433.08 464.02 433.584C464.02 434.079 464.122 434.527 464.328 434.928C464.542 435.32 464.827 435.633 465.182 435.866C465.546 436.09 465.956 436.202 466.414 436.202ZM474.722 437V430.168H475.744V437H474.722ZM475.24 428.474C475.034 428.474 474.857 428.404 474.708 428.264C474.568 428.115 474.498 427.942 474.498 427.746C474.498 427.55 474.568 427.382 474.708 427.242C474.857 427.093 475.034 427.018 475.24 427.018C475.445 427.018 475.618 427.093 475.758 427.242C475.907 427.382 475.982 427.55 475.982 427.746C475.982 427.942 475.907 428.115 475.758 428.264C475.618 428.404 475.445 428.474 475.24 428.474ZM477.839 437V430.168H478.861V431.274C479.122 430.863 479.435 430.56 479.799 430.364C480.163 430.159 480.574 430.056 481.031 430.056C481.526 430.056 481.955 430.163 482.319 430.378C482.692 430.583 482.982 430.877 483.187 431.26C483.402 431.633 483.509 432.072 483.509 432.576V437H482.487V432.87C482.487 432.263 482.319 431.787 481.983 431.442C481.656 431.087 481.213 430.91 480.653 430.91C480.28 430.91 479.939 430.999 479.631 431.176C479.323 431.353 479.066 431.615 478.861 431.96V437H477.839Z" fill="white"/>
</g>
<defs>
<clipPath id="clip0_3432_39819">
<rect width="931" height="466" fill="white"/>
</clipPath>
</defs>
</svg>
