<svg width="462" height="137" viewBox="0 0 462 137" fill="none" xmlns="http://www.w3.org/2000/svg">
<rect width="462" height="137" fill="white"/>
<path d="M42.448 35.752H44.116C44.62 35.752 45.076 35.624 45.484 35.368C45.892 35.104 46.216 34.748 46.456 34.3C46.696 33.852 46.816 33.352 46.816 32.8C46.816 32.24 46.696 31.74 46.456 31.3C46.216 30.852 45.892 30.5 45.484 30.244C45.076 29.98 44.62 29.848 44.116 29.848H42.448V35.752ZM41.008 37V28.6H44.08C44.688 28.6 45.248 28.708 45.76 28.924C46.272 29.14 46.716 29.44 47.092 29.824C47.476 30.2 47.772 30.644 47.98 31.156C48.188 31.66 48.292 32.208 48.292 32.8C48.292 33.392 48.188 33.944 47.98 34.456C47.772 34.96 47.476 35.404 47.092 35.788C46.716 36.164 46.272 36.46 45.76 36.676C45.248 36.892 44.688 37 44.08 37H41.008ZM51.4531 37.108C51.0371 37.108 50.6651 37.032 50.3371 36.88C50.0171 36.72 49.7651 36.504 49.5811 36.232C49.4051 35.952 49.3171 35.632 49.3171 35.272C49.3171 34.912 49.4091 34.6 49.5931 34.336C49.7851 34.072 50.0531 33.868 50.3971 33.724C50.7411 33.58 51.1491 33.508 51.6211 33.508C51.9011 33.508 52.1771 33.54 52.4491 33.604C52.7211 33.66 52.9851 33.756 53.2411 33.892V33.22C53.2411 32.82 53.1251 32.52 52.8931 32.32C52.6691 32.12 52.3251 32.02 51.8611 32.02C51.6131 32.02 51.3451 32.06 51.0571 32.14C50.7771 32.212 50.4611 32.328 50.1091 32.488L49.6291 31.504C50.5091 31.096 51.3411 30.892 52.1251 30.892C52.9091 30.892 53.5131 31.084 53.9371 31.468C54.3691 31.844 54.5851 32.38 54.5851 33.076V37H53.2411V36.376C52.9851 36.624 52.7091 36.808 52.4131 36.928C52.1171 37.048 51.7971 37.108 51.4531 37.108ZM50.5891 35.248C50.5891 35.528 50.7011 35.748 50.9251 35.908C51.1491 36.068 51.4491 36.148 51.8251 36.148C52.0971 36.148 52.3491 36.108 52.5811 36.028C52.8211 35.94 53.0411 35.812 53.2411 35.644V34.672C53.0331 34.576 52.8171 34.504 52.5931 34.456C52.3691 34.408 52.1251 34.384 51.8611 34.384C51.4691 34.384 51.1571 34.46 50.9251 34.612C50.7011 34.764 50.5891 34.976 50.5891 35.248ZM58.6429 37.12C58.0349 37.12 57.5749 36.98 57.2629 36.7C56.9509 36.412 56.7949 35.992 56.7949 35.44V32.068H55.5949V30.988H56.7949V29.332L58.1509 29.044V30.988H59.8189V32.068H58.1509V35.14C58.1509 35.436 58.2149 35.648 58.3429 35.776C58.4709 35.896 58.6869 35.956 58.9909 35.956C59.1269 35.956 59.2509 35.948 59.3629 35.932C59.4829 35.908 59.6309 35.868 59.8069 35.812V36.952C59.6389 37.008 59.4469 37.048 59.2309 37.072C59.0229 37.104 58.8269 37.12 58.6429 37.12ZM63.7219 37.12C63.1459 37.12 62.6259 36.984 62.1619 36.712C61.6979 36.432 61.3299 36.06 61.0579 35.596C60.7859 35.124 60.6499 34.592 60.6499 34C60.6499 33.408 60.7779 32.88 61.0339 32.416C61.2899 31.952 61.6379 31.584 62.0779 31.312C62.5259 31.032 63.0219 30.892 63.5659 30.892C64.1259 30.892 64.6179 31.028 65.0419 31.3C65.4739 31.572 65.8099 31.94 66.0499 32.404C66.2979 32.868 66.4219 33.4 66.4219 34V34.324H61.9819C62.0299 34.652 62.1339 34.944 62.2939 35.2C62.4619 35.448 62.6739 35.644 62.9299 35.788C63.1939 35.932 63.4779 36.004 63.7819 36.004C64.0619 36.004 64.3259 35.956 64.5739 35.86C64.8299 35.756 65.0419 35.616 65.2099 35.44L66.0979 36.244C65.7299 36.548 65.3539 36.772 64.9699 36.916C64.5939 37.052 64.1779 37.12 63.7219 37.12ZM61.9939 33.484H65.1379C65.0899 33.196 64.9899 32.94 64.8379 32.716C64.6939 32.492 64.5099 32.316 64.2859 32.188C64.0699 32.06 63.8299 31.996 63.5659 31.996C63.3019 31.996 63.0579 32.06 62.8339 32.188C62.6179 32.308 62.4379 32.48 62.2939 32.704C62.1499 32.928 62.0499 33.188 61.9939 33.484Z" fill="#151515"/>
<path d="M73.412 32.908L73.436 31.252L72.092 32.128L71.744 31.588L73.16 30.712L71.792 29.848L72.128 29.32L73.424 30.172L73.412 28.6H74.036L74.024 30.16L75.308 29.32L75.668 29.848L74.288 30.712L75.716 31.588L75.356 32.128L74.012 31.252L74.036 32.908H73.412Z" fill="#F4784A"/>
<mask id="path-3-inside-1_1416_119317" fill="white">
<path d="M40 56C40 52.6863 42.6863 50 46 50H415C418.314 50 421 52.6863 421 56V81C421 84.3137 418.314 87 415 87H46C42.6863 87 40 84.3137 40 81V56Z"/>
</mask>
<path d="M40 56C40 52.6863 42.6863 50 46 50H415C418.314 50 421 52.6863 421 56V81C421 84.3137 418.314 87 415 87H46C42.6863 87 40 84.3137 40 81V56Z" fill="white"/>
<path d="M46 50V51H415V50V49H46V50ZM421 56H420V81H421H422V56H421ZM415 87V86H46V87V88H415V87ZM40 81H41V56H40H39V81H40ZM46 87V86C43.2386 86 41 83.7614 41 81H40H39C39 84.866 42.134 88 46 88V87ZM421 81H420C420 83.7614 417.761 86 415 86V87V88C418.866 88 422 84.866 422 81H421ZM415 50V51C417.761 51 420 53.2386 420 56H421H422C422 52.134 418.866 49 415 49V50ZM46 50V49C42.134 49 39 52.134 39 56H40H41C41 53.2386 43.2386 51 46 51V50Z" fill="#B1380B" mask="url(#path-3-inside-1_1416_119317)"/>
<path d="M60.62 73.154C59.8733 73.154 59.2107 72.9393 58.632 72.51C58.0627 72.0807 57.6147 71.488 57.288 70.732C56.9613 69.9667 56.798 69.0893 56.798 68.1C56.798 67.1013 56.9613 66.224 57.288 65.468C57.6147 64.712 58.0627 64.1193 58.632 63.69C59.2107 63.2607 59.8733 63.046 60.62 63.046C61.3667 63.046 62.0247 63.2607 62.594 63.69C63.1727 64.1193 63.6253 64.712 63.952 65.468C64.2787 66.224 64.442 67.1013 64.442 68.1C64.442 69.0893 64.2787 69.9667 63.952 70.732C63.6253 71.488 63.1727 72.0807 62.594 72.51C62.0247 72.9393 61.3667 73.154 60.62 73.154ZM60.62 72.244C61.1893 72.244 61.6793 72.076 62.09 71.74C62.51 71.3947 62.8367 70.914 63.07 70.298C63.3033 69.6727 63.42 68.94 63.42 68.1C63.42 67.26 63.3033 66.532 63.07 65.916C62.8367 65.2907 62.51 64.81 62.09 64.474C61.6793 64.1287 61.1893 63.956 60.62 63.956C60.06 63.956 59.57 64.1287 59.15 64.474C58.73 64.81 58.4033 65.2907 58.17 65.916C57.9367 66.532 57.82 67.26 57.82 68.1C57.82 68.94 57.9367 69.6727 58.17 70.298C58.4033 70.914 58.73 71.3947 59.15 71.74C59.57 72.076 60.06 72.244 60.62 72.244ZM69.0922 73.154C67.8042 73.154 66.6935 72.7107 65.7602 71.824L66.3902 71.138C66.8195 71.5393 67.2442 71.8333 67.6642 72.02C68.0935 72.1973 68.5742 72.286 69.1062 72.286C69.5822 72.286 70.0022 72.188 70.3662 71.992C70.7302 71.796 71.0102 71.5207 71.2062 71.166C71.4115 70.8113 71.5142 70.4053 71.5142 69.948C71.5142 69.2947 71.2902 68.7673 70.8422 68.366C70.4035 67.9647 69.8249 67.764 69.1062 67.764C68.7329 67.764 68.3689 67.8107 68.0142 67.904C67.6595 67.988 67.2909 68.128 66.9082 68.324L66.2082 68.1L66.4322 63.2H72.0042V64.082H67.3002L67.1462 67.47C67.5195 67.2833 67.8789 67.1527 68.2242 67.078C68.5695 66.994 68.9335 66.952 69.3162 66.952C69.9602 66.952 70.5202 67.078 70.9962 67.33C71.4815 67.5727 71.8549 67.918 72.1162 68.366C72.3869 68.8047 72.5222 69.318 72.5222 69.906C72.5222 70.55 72.3775 71.1147 72.0882 71.6C71.7989 72.0853 71.3975 72.468 70.8842 72.748C70.3709 73.0187 69.7735 73.154 69.0922 73.154ZM74.0806 69.5V68.618H78.7426V69.5H74.0806ZM81.3842 73V64.292L79.8162 64.992V64.068L81.7622 63.2H82.3922V73H81.3842ZM88.1552 73.154C87.4085 73.154 86.7458 72.9393 86.1672 72.51C85.5978 72.0807 85.1498 71.488 84.8232 70.732C84.4965 69.9667 84.3332 69.0893 84.3332 68.1C84.3332 67.1013 84.4965 66.224 84.8232 65.468C85.1498 64.712 85.5978 64.1193 86.1672 63.69C86.7458 63.2607 87.4085 63.046 88.1552 63.046C88.9018 63.046 89.5598 63.2607 90.1292 63.69C90.7078 64.1193 91.1605 64.712 91.4872 65.468C91.8138 66.224 91.9772 67.1013 91.9772 68.1C91.9772 69.0893 91.8138 69.9667 91.4872 70.732C91.1605 71.488 90.7078 72.0807 90.1292 72.51C89.5598 72.9393 88.9018 73.154 88.1552 73.154ZM88.1552 72.244C88.7245 72.244 89.2145 72.076 89.6252 71.74C90.0452 71.3947 90.3718 70.914 90.6052 70.298C90.8385 69.6727 90.9552 68.94 90.9552 68.1C90.9552 67.26 90.8385 66.532 90.6052 65.916C90.3718 65.2907 90.0452 64.81 89.6252 64.474C89.2145 64.1287 88.7245 63.956 88.1552 63.956C87.5952 63.956 87.1052 64.1287 86.6852 64.474C86.2652 64.81 85.9385 65.2907 85.7052 65.916C85.4718 66.532 85.3552 67.26 85.3552 68.1C85.3552 68.94 85.4718 69.6727 85.7052 70.298C85.9385 70.914 86.2652 71.3947 86.6852 71.74C87.1052 72.076 87.5952 72.244 88.1552 72.244ZM93.6313 69.5V68.618H98.2933V69.5H93.6313ZM99.3703 73V72.258L103.29 67.974C103.598 67.638 103.836 67.344 104.004 67.092C104.182 66.8307 104.303 66.588 104.368 66.364C104.443 66.14 104.48 65.902 104.48 65.65C104.48 65.1553 104.284 64.7493 103.892 64.432C103.51 64.1053 103.02 63.942 102.422 63.942C101.965 63.942 101.54 64.0307 101.148 64.208C100.756 64.3853 100.318 64.6933 99.8323 65.132L99.2443 64.432C99.7576 63.9653 100.276 63.62 100.798 63.396C101.321 63.1627 101.867 63.046 102.436 63.046C103.024 63.046 103.547 63.158 104.004 63.382C104.462 63.5967 104.821 63.8953 105.082 64.278C105.344 64.6607 105.474 65.0993 105.474 65.594C105.474 65.9207 105.432 66.224 105.348 66.504C105.264 66.7747 105.115 67.0687 104.9 67.386C104.686 67.694 104.378 68.0673 103.976 68.506L100.63 72.132L105.684 72.118V73H99.3703ZM110.946 73.154C110.2 73.154 109.537 72.9393 108.958 72.51C108.389 72.0807 107.941 71.488 107.614 70.732C107.288 69.9667 107.124 69.0893 107.124 68.1C107.124 67.1013 107.288 66.224 107.614 65.468C107.941 64.712 108.389 64.1193 108.958 63.69C109.537 63.2607 110.2 63.046 110.946 63.046C111.693 63.046 112.351 63.2607 112.92 63.69C113.499 64.1193 113.952 64.712 114.278 65.468C114.605 66.224 114.768 67.1013 114.768 68.1C114.768 69.0893 114.605 69.9667 114.278 70.732C113.952 71.488 113.499 72.0807 112.92 72.51C112.351 72.9393 111.693 73.154 110.946 73.154ZM110.946 72.244C111.516 72.244 112.006 72.076 112.416 71.74C112.836 71.3947 113.163 70.914 113.396 70.298C113.63 69.6727 113.746 68.94 113.746 68.1C113.746 67.26 113.63 66.532 113.396 65.916C113.163 65.2907 112.836 64.81 112.416 64.474C112.006 64.1287 111.516 63.956 110.946 63.956C110.386 63.956 109.896 64.1287 109.476 64.474C109.056 64.81 108.73 65.2907 108.496 65.916C108.263 66.532 108.146 67.26 108.146 68.1C108.146 68.94 108.263 69.6727 108.496 70.298C108.73 70.914 109.056 71.3947 109.476 71.74C109.896 72.076 110.386 72.244 110.946 72.244Z" fill="#151515"/>
<path d="M395 62C398.866 62 402 65.1354 402 69C402 72.8669 398.866 76 395 76C391.134 76 388 72.8669 388 69C388 65.1354 391.134 62 395 62ZM395 70.4111C394.283 70.4111 393.701 70.9929 393.701 71.71C393.701 72.4269 394.283 73.0078 395 73.0078C395.717 73.0078 396.299 72.4269 396.299 71.71C396.299 70.9929 395.717 70.4111 395 70.4111ZM394.105 65.3867C393.911 65.3867 393.757 65.5502 393.768 65.7441L393.977 69.583C393.986 69.7625 394.135 69.9031 394.314 69.9033H395.686C395.865 69.9031 396.014 69.7625 396.023 69.583L396.232 65.7441C396.243 65.5502 396.089 65.3867 395.895 65.3867H394.105Z" fill="#B1380B"/>
<path d="M49 98C52.3135 98 55 100.687 55 104C55 107.314 52.3135 110 49 110C45.6865 110 43 107.314 43 104C43 100.687 45.6865 98 49 98ZM49 105.21C48.3855 105.21 47.8869 105.708 47.8867 106.322C47.8867 106.937 48.3854 107.436 49 107.436C49.6146 107.436 50.1133 106.937 50.1133 106.322C50.1131 105.708 49.6145 105.21 49 105.21ZM48.2334 100.903C48.067 100.903 47.9345 101.043 47.9434 101.209L48.123 104.5C48.1316 104.654 48.259 104.774 48.4131 104.774H49.5869C49.741 104.774 49.8684 104.654 49.877 104.5L50.0566 101.209C50.0655 101.043 49.933 100.903 49.7666 100.903H48.2334Z" fill="#B1380B"/>
<path d="M64.448 106.752H66.116C66.62 106.752 67.076 106.624 67.484 106.368C67.892 106.104 68.216 105.748 68.456 105.3C68.696 104.852 68.816 104.352 68.816 103.8C68.816 103.24 68.696 102.74 68.456 102.3C68.216 101.852 67.892 101.5 67.484 101.244C67.076 100.98 66.62 100.848 66.116 100.848H64.448V106.752ZM63.008 108V99.6H66.08C66.688 99.6 67.248 99.708 67.76 99.924C68.272 100.14 68.716 100.44 69.092 100.824C69.476 101.2 69.772 101.644 69.98 102.156C70.188 102.66 70.292 103.208 70.292 103.8C70.292 104.392 70.188 104.944 69.98 105.456C69.772 105.96 69.476 106.404 69.092 106.788C68.716 107.164 68.272 107.46 67.76 107.676C67.248 107.892 66.688 108 66.08 108H63.008ZM73.4531 108.108C73.0371 108.108 72.6651 108.032 72.3371 107.88C72.0171 107.72 71.7651 107.504 71.5811 107.232C71.4051 106.952 71.3171 106.632 71.3171 106.272C71.3171 105.912 71.4091 105.6 71.5931 105.336C71.7851 105.072 72.0531 104.868 72.3971 104.724C72.7411 104.58 73.1491 104.508 73.6211 104.508C73.9011 104.508 74.1771 104.54 74.4491 104.604C74.7211 104.66 74.9851 104.756 75.2411 104.892V104.22C75.2411 103.82 75.1251 103.52 74.8931 103.32C74.6691 103.12 74.3251 103.02 73.8611 103.02C73.6131 103.02 73.3451 103.06 73.0571 103.14C72.7771 103.212 72.4611 103.328 72.1091 103.488L71.6291 102.504C72.5091 102.096 73.3411 101.892 74.1251 101.892C74.9091 101.892 75.5131 102.084 75.9371 102.468C76.3691 102.844 76.5851 103.38 76.5851 104.076V108H75.2411V107.376C74.9851 107.624 74.7091 107.808 74.4131 107.928C74.1171 108.048 73.7971 108.108 73.4531 108.108ZM72.5891 106.248C72.5891 106.528 72.7011 106.748 72.9251 106.908C73.1491 107.068 73.4491 107.148 73.8251 107.148C74.0971 107.148 74.3491 107.108 74.5811 107.028C74.8211 106.94 75.0411 106.812 75.2411 106.644V105.672C75.0331 105.576 74.8171 105.504 74.5931 105.456C74.3691 105.408 74.1251 105.384 73.8611 105.384C73.4691 105.384 73.1571 105.46 72.9251 105.612C72.7011 105.764 72.5891 105.976 72.5891 106.248ZM80.6429 108.12C80.0349 108.12 79.5749 107.98 79.2629 107.7C78.9509 107.412 78.7949 106.992 78.7949 106.44V103.068H77.5949V101.988H78.7949V100.332L80.1509 100.044V101.988H81.8189V103.068H80.1509V106.14C80.1509 106.436 80.2149 106.648 80.3429 106.776C80.4709 106.896 80.6869 106.956 80.9909 106.956C81.1269 106.956 81.2509 106.948 81.3629 106.932C81.4829 106.908 81.6309 106.868 81.8069 106.812V107.952C81.6389 108.008 81.4469 108.048 81.2309 108.072C81.0229 108.104 80.8269 108.12 80.6429 108.12ZM85.7219 108.12C85.1459 108.12 84.6259 107.984 84.1619 107.712C83.6979 107.432 83.3299 107.06 83.0579 106.596C82.7859 106.124 82.6499 105.592 82.6499 105C82.6499 104.408 82.7779 103.88 83.0339 103.416C83.2899 102.952 83.6379 102.584 84.0779 102.312C84.5259 102.032 85.0219 101.892 85.5659 101.892C86.1259 101.892 86.6179 102.028 87.0419 102.3C87.4739 102.572 87.8099 102.94 88.0499 103.404C88.2979 103.868 88.4219 104.4 88.4219 105V105.324H83.9819C84.0299 105.652 84.1339 105.944 84.2939 106.2C84.4619 106.448 84.6739 106.644 84.9299 106.788C85.1939 106.932 85.4779 107.004 85.7819 107.004C86.0619 107.004 86.3259 106.956 86.5739 106.86C86.8299 106.756 87.0419 106.616 87.2099 106.44L88.0979 107.244C87.7299 107.548 87.3539 107.772 86.9699 107.916C86.5939 108.052 86.1779 108.12 85.7219 108.12ZM83.9939 104.484H87.1379C87.0899 104.196 86.9899 103.94 86.8379 103.716C86.6939 103.492 86.5099 103.316 86.2859 103.188C86.0699 103.06 85.8299 102.996 85.5659 102.996C85.3019 102.996 85.0579 103.06 84.8339 103.188C84.6179 103.308 84.4379 103.48 84.2939 103.704C84.1499 103.928 84.0499 104.188 83.9939 104.484ZM93.3162 108V103.068H92.0202V101.988H93.3162V100.956C93.3162 100.308 93.4922 99.812 93.8442 99.468C94.2042 99.116 94.7202 98.94 95.3922 98.94C95.5602 98.94 95.7242 98.948 95.8842 98.964C96.0442 98.98 96.1802 99.008 96.2922 99.048V100.2C96.1402 100.168 96.0122 100.148 95.9082 100.14C95.8042 100.124 95.6922 100.116 95.5722 100.116C95.2602 100.116 95.0322 100.184 94.8882 100.32C94.7442 100.456 94.6722 100.676 94.6722 100.98V101.988H96.2922V103.068H94.6722V108H93.3162ZM99.9357 108.108C99.3677 108.108 98.8517 107.972 98.3877 107.7C97.9317 107.428 97.5717 107.06 97.3077 106.596C97.0437 106.124 96.9117 105.592 96.9117 105C96.9117 104.408 97.0437 103.88 97.3077 103.416C97.5717 102.944 97.9317 102.572 98.3877 102.3C98.8437 102.028 99.3597 101.892 99.9357 101.892C100.512 101.892 101.024 102.028 101.472 102.3C101.928 102.572 102.288 102.944 102.552 103.416C102.816 103.88 102.948 104.408 102.948 105C102.948 105.592 102.816 106.124 102.552 106.596C102.288 107.06 101.928 107.428 101.472 107.7C101.024 107.972 100.512 108.108 99.9357 108.108ZM99.9357 106.956C100.264 106.956 100.552 106.872 100.8 106.704C101.056 106.536 101.256 106.304 101.4 106.008C101.544 105.704 101.616 105.368 101.616 105C101.616 104.624 101.544 104.292 101.4 104.004C101.256 103.708 101.056 103.476 100.8 103.308C100.552 103.132 100.264 103.044 99.9357 103.044C99.6077 103.044 99.3157 103.132 99.0597 103.308C98.8037 103.476 98.6037 103.708 98.4597 104.004C98.3157 104.292 98.2437 104.624 98.2437 105C98.2437 105.376 98.3157 105.712 98.4597 106.008C98.6037 106.304 98.8037 106.536 99.0597 106.704C99.3157 106.872 99.6077 106.956 99.9357 106.956ZM104.348 108V101.988H105.704V103.284C105.88 102.828 106.108 102.48 106.388 102.24C106.668 102 106.992 101.88 107.36 101.88C107.472 101.888 107.572 101.9 107.66 101.916C107.748 101.924 107.844 101.952 107.948 102V103.188C107.844 103.14 107.724 103.104 107.588 103.08C107.46 103.056 107.332 103.044 107.204 103.044C106.876 103.044 106.58 103.132 106.316 103.308C106.06 103.484 105.856 103.728 105.704 104.04V108H104.348ZM109.059 108V101.988H110.415V102.936C110.639 102.592 110.899 102.332 111.195 102.156C111.499 101.98 111.831 101.892 112.191 101.892C112.607 101.892 112.967 101.996 113.271 102.204C113.583 102.412 113.815 102.692 113.967 103.044C114.207 102.668 114.491 102.384 114.819 102.192C115.155 101.992 115.535 101.892 115.959 101.892C116.343 101.892 116.683 101.984 116.979 102.168C117.283 102.352 117.515 102.608 117.675 102.936C117.843 103.264 117.927 103.64 117.927 104.064V108H116.571V104.364C116.571 103.94 116.463 103.604 116.247 103.356C116.031 103.108 115.735 102.984 115.359 102.984C115.119 102.984 114.895 103.044 114.687 103.164C114.487 103.284 114.311 103.464 114.159 103.704C114.167 103.76 114.171 103.82 114.171 103.884C114.179 103.94 114.183 104 114.183 104.064V108H112.815V104.364C112.815 103.94 112.707 103.604 112.491 103.356C112.275 103.108 111.979 102.984 111.603 102.984C111.115 102.984 110.719 103.216 110.415 103.68V108H109.059ZM121.394 108.108C120.978 108.108 120.606 108.032 120.278 107.88C119.958 107.72 119.706 107.504 119.522 107.232C119.346 106.952 119.258 106.632 119.258 106.272C119.258 105.912 119.35 105.6 119.534 105.336C119.726 105.072 119.994 104.868 120.338 104.724C120.682 104.58 121.09 104.508 121.562 104.508C121.842 104.508 122.118 104.54 122.39 104.604C122.662 104.66 122.926 104.756 123.182 104.892V104.22C123.182 103.82 123.066 103.52 122.834 103.32C122.61 103.12 122.266 103.02 121.802 103.02C121.554 103.02 121.286 103.06 120.998 103.14C120.718 103.212 120.402 103.328 120.05 103.488L119.57 102.504C120.45 102.096 121.282 101.892 122.066 101.892C122.85 101.892 123.454 102.084 123.878 102.468C124.31 102.844 124.526 103.38 124.526 104.076V108H123.182V107.376C122.926 107.624 122.65 107.808 122.354 107.928C122.058 108.048 121.738 108.108 121.394 108.108ZM120.53 106.248C120.53 106.528 120.642 106.748 120.866 106.908C121.09 107.068 121.39 107.148 121.766 107.148C122.038 107.148 122.29 107.108 122.522 107.028C122.762 106.94 122.982 106.812 123.182 106.644V105.672C122.974 105.576 122.758 105.504 122.534 105.456C122.31 105.408 122.066 105.384 121.802 105.384C121.41 105.384 121.098 105.46 120.866 105.612C120.642 105.764 120.53 105.976 120.53 106.248ZM128.584 108.12C127.976 108.12 127.516 107.98 127.204 107.7C126.892 107.412 126.736 106.992 126.736 106.44V103.068H125.536V101.988H126.736V100.332L128.092 100.044V101.988H129.76V103.068H128.092V106.14C128.092 106.436 128.156 106.648 128.284 106.776C128.412 106.896 128.628 106.956 128.932 106.956C129.068 106.956 129.192 106.948 129.304 106.932C129.424 106.908 129.572 106.868 129.748 106.812V107.952C129.58 108.008 129.388 108.048 129.172 108.072C128.964 108.104 128.768 108.12 128.584 108.12ZM133.656 108V101.988H135.012V102.936C135.236 102.592 135.496 102.332 135.792 102.156C136.096 101.98 136.428 101.892 136.788 101.892C137.204 101.892 137.564 101.996 137.868 102.204C138.18 102.412 138.412 102.692 138.564 103.044C138.804 102.668 139.088 102.384 139.416 102.192C139.752 101.992 140.132 101.892 140.556 101.892C140.94 101.892 141.28 101.984 141.576 102.168C141.88 102.352 142.112 102.608 142.272 102.936C142.44 103.264 142.524 103.64 142.524 104.064V108H141.168V104.364C141.168 103.94 141.06 103.604 140.844 103.356C140.628 103.108 140.332 102.984 139.956 102.984C139.716 102.984 139.492 103.044 139.284 103.164C139.084 103.284 138.908 103.464 138.756 103.704C138.764 103.76 138.768 103.82 138.768 103.884C138.776 103.94 138.78 104 138.78 104.064V108H137.412V104.364C137.412 103.94 137.304 103.604 137.088 103.356C136.872 103.108 136.576 102.984 136.2 102.984C135.712 102.984 135.316 103.216 135.012 103.68V108H133.656ZM146.162 108.096C145.746 108.096 145.382 108.004 145.07 107.82C144.758 107.636 144.51 107.384 144.326 107.064C144.15 106.744 144.062 106.372 144.062 105.948V101.988H145.43V105.552C145.43 106 145.546 106.356 145.778 106.62C146.018 106.876 146.342 107.004 146.75 107.004C147.022 107.004 147.266 106.944 147.482 106.824C147.706 106.704 147.898 106.524 148.058 106.284V101.988H149.414V108H148.058V107.028C147.826 107.38 147.55 107.648 147.23 107.832C146.91 108.008 146.554 108.096 146.162 108.096ZM153.134 108.12C152.622 108.12 152.142 108.052 151.694 107.916C151.254 107.772 150.874 107.568 150.554 107.304L151.19 106.404C151.59 106.652 151.934 106.828 152.222 106.932C152.518 107.036 152.818 107.088 153.122 107.088C153.482 107.088 153.774 107.012 153.998 106.86C154.222 106.708 154.334 106.512 154.334 106.272C154.334 106.088 154.266 105.944 154.13 105.84C154.002 105.728 153.79 105.644 153.494 105.588L152.438 105.408C151.854 105.296 151.418 105.104 151.13 104.832C150.842 104.56 150.698 104.2 150.698 103.752C150.698 103.376 150.794 103.052 150.986 102.78C151.186 102.5 151.458 102.284 151.802 102.132C152.154 101.972 152.562 101.892 153.026 101.892C153.442 101.892 153.846 101.952 154.238 102.072C154.63 102.192 155.014 102.372 155.39 102.612L154.754 103.512C154.45 103.312 154.146 103.168 153.842 103.08C153.546 102.984 153.246 102.936 152.942 102.936C152.63 102.936 152.378 103 152.186 103.128C152.002 103.248 151.91 103.416 151.91 103.632C151.91 103.824 151.97 103.972 152.09 104.076C152.218 104.172 152.438 104.244 152.75 104.292L153.818 104.496C154.418 104.6 154.862 104.792 155.15 105.072C155.446 105.344 155.594 105.708 155.594 106.164C155.594 106.532 155.486 106.864 155.27 107.16C155.054 107.456 154.762 107.692 154.394 107.868C154.026 108.036 153.606 108.12 153.134 108.12ZM159.311 108.12C158.703 108.12 158.243 107.98 157.931 107.7C157.619 107.412 157.463 106.992 157.463 106.44V103.068H156.263V101.988H157.463V100.332L158.819 100.044V101.988H160.487V103.068H158.819V106.14C158.819 106.436 158.883 106.648 159.011 106.776C159.139 106.896 159.355 106.956 159.659 106.956C159.795 106.956 159.919 106.948 160.031 106.932C160.151 106.908 160.299 106.868 160.475 106.812V107.952C160.307 108.008 160.115 108.048 159.899 108.072C159.691 108.104 159.495 108.12 159.311 108.12ZM164.383 108V99.432L165.739 99.204V102.792C165.955 102.52 166.219 102.312 166.531 102.168C166.851 102.016 167.203 101.94 167.587 101.94C168.099 101.94 168.559 102.076 168.967 102.348C169.375 102.62 169.699 102.988 169.939 103.452C170.179 103.916 170.299 104.432 170.299 105C170.299 105.568 170.175 106.084 169.927 106.548C169.679 107.012 169.343 107.38 168.919 107.652C168.495 107.924 168.023 108.06 167.503 108.06C167.143 108.06 166.811 107.988 166.507 107.844C166.203 107.7 165.939 107.496 165.715 107.232V108H164.383ZM167.179 106.932C167.523 106.932 167.827 106.848 168.091 106.68C168.363 106.512 168.575 106.284 168.727 105.996C168.887 105.7 168.967 105.368 168.967 105C168.967 104.632 168.887 104.304 168.727 104.016C168.575 103.728 168.363 103.5 168.091 103.332C167.827 103.164 167.523 103.08 167.179 103.08C166.883 103.08 166.611 103.14 166.363 103.26C166.115 103.372 165.907 103.536 165.739 103.752V106.26C165.915 106.468 166.127 106.632 166.375 106.752C166.623 106.872 166.891 106.932 167.179 106.932ZM174.515 108.12C173.939 108.12 173.419 107.984 172.955 107.712C172.491 107.432 172.123 107.06 171.851 106.596C171.579 106.124 171.443 105.592 171.443 105C171.443 104.408 171.571 103.88 171.827 103.416C172.083 102.952 172.431 102.584 172.871 102.312C173.319 102.032 173.815 101.892 174.359 101.892C174.919 101.892 175.411 102.028 175.835 102.3C176.267 102.572 176.603 102.94 176.843 103.404C177.091 103.868 177.215 104.4 177.215 105V105.324H172.775C172.823 105.652 172.927 105.944 173.087 106.2C173.255 106.448 173.467 106.644 173.723 106.788C173.987 106.932 174.271 107.004 174.575 107.004C174.855 107.004 175.119 106.956 175.367 106.86C175.623 106.756 175.835 106.616 176.003 106.44L176.891 107.244C176.523 107.548 176.147 107.772 175.763 107.916C175.387 108.052 174.971 108.12 174.515 108.12ZM172.787 104.484H175.931C175.883 104.196 175.783 103.94 175.631 103.716C175.487 103.492 175.303 103.316 175.079 103.188C174.863 103.06 174.623 102.996 174.359 102.996C174.095 102.996 173.851 103.06 173.627 103.188C173.411 103.308 173.231 103.48 173.087 103.704C172.943 103.928 172.843 104.188 172.787 104.484ZM181.461 108V99.6H183.333L185.793 104.7L188.241 99.6H190.113V108H188.757V101.424L185.781 107.4L182.793 101.388V108H181.461ZM192.125 108V99.6H193.997L196.457 104.7L198.905 99.6H200.777V108H199.421V101.424L196.445 107.4L193.457 101.388V108H192.125ZM202.453 105.168V104.016H206.641V105.168H202.453ZM209.772 106.752H211.44C211.944 106.752 212.4 106.624 212.808 106.368C213.216 106.104 213.54 105.748 213.78 105.3C214.02 104.852 214.14 104.352 214.14 103.8C214.14 103.24 214.02 102.74 213.78 102.3C213.54 101.852 213.216 101.5 212.808 101.244C212.4 100.98 211.944 100.848 211.44 100.848H209.772V106.752ZM208.332 108V99.6H211.404C212.012 99.6 212.572 99.708 213.084 99.924C213.596 100.14 214.04 100.44 214.416 100.824C214.8 101.2 215.096 101.644 215.304 102.156C215.512 102.66 215.616 103.208 215.616 103.8C215.616 104.392 215.512 104.944 215.304 105.456C215.096 105.96 214.8 106.404 214.416 106.788C214.04 107.164 213.596 107.46 213.084 107.676C212.572 107.892 212.012 108 211.404 108H208.332ZM218.678 106.752H220.346C220.85 106.752 221.306 106.624 221.714 106.368C222.122 106.104 222.446 105.748 222.686 105.3C222.926 104.852 223.046 104.352 223.046 103.8C223.046 103.24 222.926 102.74 222.686 102.3C222.446 101.852 222.122 101.5 221.714 101.244C221.306 100.98 220.85 100.848 220.346 100.848H218.678V106.752ZM217.238 108V99.6H220.31C220.918 99.6 221.478 99.708 221.99 99.924C222.502 100.14 222.946 100.44 223.322 100.824C223.706 101.2 224.002 101.644 224.21 102.156C224.418 102.66 224.522 103.208 224.522 103.8C224.522 104.392 224.418 104.944 224.21 105.456C224.002 105.96 223.706 106.404 223.322 106.788C222.946 107.164 222.502 107.46 221.99 107.676C221.478 107.892 220.918 108 220.31 108H217.238ZM225.926 105.168V104.016H230.114V105.168H225.926ZM233.724 108V104.688L230.388 99.6H232.056L234.48 103.44L236.928 99.6H238.5L235.164 104.688V108H233.724ZM242.162 108V104.688L238.826 99.6H240.494L242.918 103.44L245.366 99.6H246.938L243.602 104.688V108H242.162ZM250.599 108V104.688L247.263 99.6H248.931L251.355 103.44L253.803 99.6H255.375L252.039 104.688V108H250.599ZM259.037 108V104.688L255.701 99.6H257.369L259.793 103.44L262.241 99.6H263.813L260.477 104.688V108H259.037Z" fill="#151515"/>
</svg>
