<svg width="895" height="216" viewBox="0 0 895 216" fill="none" xmlns="http://www.w3.org/2000/svg">
<rect width="895" height="216" fill="white"/>
<mask id="path-1-inside-1_1565_29407" fill="white">
<path d="M16 16H879V85H16V16Z"/>
</mask>
<path d="M16 16H879V85H16V16Z" fill="white"/>
<path d="M879 85V84H16V85V86H879V85Z" fill="#C7C7C7" mask="url(#path-1-inside-1_1565_29407)"/>
<mask id="path-3-inside-2_1565_29407" fill="white">
<path d="M32 38C32 34.6863 34.6863 32 38 32H149C152.314 32 155 34.6863 155 38V63C155 66.3137 152.314 69 149 69H38C34.6863 69 32 66.3137 32 63V38Z"/>
</mask>
<path d="M32 38C32 34.6863 34.6863 32 38 32H149C152.314 32 155 34.6863 155 38V63C155 66.3137 152.314 69 149 69H38C34.6863 69 32 66.3137 32 63V38Z" fill="white"/>
<path d="M38 32V33H149V32V31H38V32ZM155 38H154V63H155H156V38H155ZM149 69V68H38V69V70H149V69ZM32 63H33V38H32H31V63H32ZM38 69V68C35.2386 68 33 65.7614 33 63H32H31C31 66.866 34.134 70 38 70V69ZM155 63H154C154 65.7614 151.761 68 149 68V69V70C152.866 70 156 66.866 156 63H155ZM149 32V33C151.761 33 154 35.2386 154 38H155H156C156 34.134 152.866 31 149 31V32ZM38 32V31C34.134 31 31 34.134 31 38H32H33C33 35.2386 35.2386 33 38 33V32Z" fill="#C7C7C7" mask="url(#path-3-inside-2_1565_29407)"/>
<mask id="path-5-inside-3_1565_29407" fill="white">
<path d="M48 46.5C48 44.2909 49.7909 42.5 52 42.5H60C62.2091 42.5 64 44.2909 64 46.5V54.5C64 56.7091 62.2091 58.5 60 58.5H52C49.7909 58.5 48 56.7091 48 54.5V46.5Z"/>
</mask>
<path d="M48 46.5C48 44.2909 49.7909 42.5 52 42.5H60C62.2091 42.5 64 44.2909 64 46.5V54.5C64 56.7091 62.2091 58.5 60 58.5H52C49.7909 58.5 48 56.7091 48 54.5V46.5Z" fill="white"/>
<path d="M52 42.5V43.5H60V42.5V41.5H52V42.5ZM64 46.5H63V54.5H64H65V46.5H64ZM60 58.5V57.5H52V58.5V59.5H60V58.5ZM48 54.5H49V46.5H48H47V54.5H48ZM52 58.5V57.5C50.3431 57.5 49 56.1569 49 54.5H48H47C47 57.2614 49.2386 59.5 52 59.5V58.5ZM64 54.5H63C63 56.1569 61.6569 57.5 60 57.5V58.5V59.5C62.7614 59.5 65 57.2614 65 54.5H64ZM60 42.5V43.5C61.6569 43.5 63 44.8431 63 46.5H64H65C65 43.7386 62.7614 41.5 60 41.5V42.5ZM52 42.5V41.5C49.2386 41.5 47 43.7386 47 46.5H48H49C49 44.8431 50.3431 43.5 52 43.5V42.5Z" fill="#C7C7C7" mask="url(#path-5-inside-3_1565_29407)"/>
<path d="M73.246 55V45.2H74.366L80.106 53.32L80.078 45.2H81.1V55H80.12L74.24 46.698L74.268 55H73.246ZM85.3769 55.126C84.8916 55.126 84.4622 55.0373 84.0889 54.86C83.7156 54.6827 83.4216 54.44 83.2069 54.132C83.0016 53.8147 82.8989 53.4507 82.8989 53.04C82.8989 52.6293 83.0062 52.2747 83.2209 51.976C83.4356 51.668 83.7342 51.43 84.1169 51.262C84.4996 51.094 84.9476 51.01 85.4609 51.01C85.8529 51.01 86.2216 51.052 86.5669 51.136C86.9216 51.22 87.2482 51.3553 87.5469 51.542V50.604C87.5469 50.044 87.3976 49.624 87.0989 49.344C86.8002 49.0547 86.3616 48.91 85.7829 48.91C85.4656 48.91 85.1389 48.9567 84.8029 49.05C84.4762 49.1433 84.1122 49.2927 83.7109 49.498L83.3329 48.714C84.2476 48.2753 85.1062 48.056 85.9089 48.056C86.7582 48.056 87.4116 48.266 87.8689 48.686C88.3262 49.0967 88.5549 49.6893 88.5549 50.464V55H87.5469V54.202C87.2482 54.51 86.9169 54.7433 86.5529 54.902C86.1889 55.0513 85.7969 55.126 85.3769 55.126ZM83.8789 53.012C83.8789 53.4133 84.0329 53.7353 84.3409 53.978C84.6582 54.2207 85.0736 54.342 85.5869 54.342C85.9696 54.342 86.3196 54.2767 86.6369 54.146C86.9636 54.0153 87.2669 53.8193 87.5469 53.558V52.242C87.2576 52.074 86.9589 51.9527 86.6509 51.878C86.3429 51.794 85.9976 51.752 85.6149 51.752C85.0922 51.752 84.6722 51.8687 84.3549 52.102C84.0376 52.326 83.8789 52.6293 83.8789 53.012ZM90.632 55V48.168H91.654V49.232C91.9154 48.84 92.214 48.546 92.55 48.35C92.886 48.154 93.264 48.056 93.684 48.056C94.1694 48.056 94.594 48.1773 94.958 48.42C95.322 48.6533 95.5974 48.9753 95.784 49.386C96.0547 48.9473 96.3767 48.616 96.75 48.392C97.1327 48.168 97.5714 48.056 98.066 48.056C98.5234 48.056 98.9247 48.1633 99.27 48.378C99.6247 48.5927 99.9 48.8913 100.096 49.274C100.292 49.6473 100.39 50.086 100.39 50.59V55H99.368V50.842C99.368 50.2447 99.2187 49.7733 98.92 49.428C98.6214 49.0827 98.2107 48.91 97.688 48.91C97.3334 48.91 97.0114 48.9987 96.722 49.176C96.442 49.3533 96.1947 49.624 95.98 49.988C95.9987 50.0813 96.0127 50.1793 96.022 50.282C96.0314 50.3847 96.036 50.4873 96.036 50.59V55H95.014V50.842C95.014 50.2447 94.86 49.7733 94.552 49.428C94.2534 49.0827 93.8427 48.91 93.32 48.91C92.62 48.91 92.0647 49.246 91.654 49.918V55H90.632ZM105.538 55.14C104.904 55.14 104.33 54.986 103.816 54.678C103.303 54.3607 102.897 53.936 102.598 53.404C102.3 52.8627 102.15 52.256 102.15 51.584C102.15 50.912 102.29 50.31 102.57 49.778C102.86 49.246 103.247 48.826 103.732 48.518C104.218 48.21 104.759 48.056 105.356 48.056C105.963 48.056 106.5 48.21 106.966 48.518C107.442 48.8167 107.816 49.2273 108.086 49.75C108.366 50.2633 108.506 50.8467 108.506 51.5V51.808H103.144C103.182 52.2747 103.308 52.6947 103.522 53.068C103.746 53.432 104.036 53.7213 104.39 53.936C104.754 54.1413 105.151 54.244 105.58 54.244C105.935 54.244 106.276 54.1833 106.602 54.062C106.938 53.9313 107.223 53.7587 107.456 53.544L108.1 54.23C107.708 54.538 107.302 54.7667 106.882 54.916C106.462 55.0653 106.014 55.14 105.538 55.14ZM103.172 51.08H107.498C107.452 50.6693 107.326 50.3053 107.12 49.988C106.924 49.6613 106.672 49.4047 106.364 49.218C106.066 49.0313 105.73 48.938 105.356 48.938C104.983 48.938 104.642 49.0313 104.334 49.218C104.026 49.3953 103.77 49.6473 103.564 49.974C103.368 50.2913 103.238 50.66 103.172 51.08Z" fill="#151515"/>
<path d="M132.534 48.667C133.023 48.6672 133.267 49.2618 132.921 49.6104L129.389 53.1719C129.174 53.3874 128.825 53.3875 128.611 53.1719L125.079 49.6104C124.733 49.2617 124.978 48.667 125.467 48.667H132.534Z" fill="#1F1F1F"/>
<path d="M171 50.5C171 40.2827 179.283 32 189.5 32H243.5C253.717 32 262 40.2827 262 50.5V50.5C262 60.7173 253.717 69 243.5 69H189.5C179.283 69 171 60.7173 171 50.5V50.5Z" fill="#0066CC"/>
<path d="M200.768 55.154C200.068 55.154 199.415 55.028 198.808 54.776C198.211 54.5147 197.683 54.1553 197.226 53.698C196.769 53.2313 196.414 52.6947 196.162 52.088C195.91 51.472 195.784 50.8093 195.784 50.1C195.784 49.3907 195.91 48.7327 196.162 48.126C196.414 47.51 196.769 46.9733 197.226 46.516C197.683 46.0493 198.211 45.69 198.808 45.438C199.415 45.1767 200.068 45.046 200.768 45.046C201.253 45.046 201.715 45.1113 202.154 45.242C202.602 45.3633 203.022 45.5453 203.414 45.788C203.806 46.0213 204.156 46.3107 204.464 46.656L203.75 47.398C203.386 46.9593 202.938 46.6233 202.406 46.39C201.883 46.1473 201.337 46.026 200.768 46.026C200.217 46.026 199.704 46.1287 199.228 46.334C198.752 46.5393 198.337 46.8287 197.982 47.202C197.637 47.5753 197.366 48.0093 197.17 48.504C196.974 48.9893 196.876 49.5213 196.876 50.1C196.876 50.6693 196.974 51.2013 197.17 51.696C197.366 52.1907 197.637 52.6247 197.982 52.998C198.337 53.3713 198.752 53.6607 199.228 53.866C199.704 54.0713 200.217 54.174 200.768 54.174C201.337 54.174 201.883 54.0527 202.406 53.81C202.938 53.5673 203.386 53.2313 203.75 52.802L204.464 53.544C204.156 53.8893 203.806 54.1833 203.414 54.426C203.022 54.6593 202.602 54.8413 202.154 54.972C201.715 55.0933 201.253 55.154 200.768 55.154ZM206.208 55V48.168H207.23V49.568C207.408 49.092 207.66 48.7233 207.986 48.462C208.322 48.1913 208.705 48.056 209.134 48.056C209.256 48.056 209.368 48.0653 209.47 48.084C209.573 48.0933 209.676 48.1167 209.778 48.154V49.078C209.666 49.0407 209.545 49.0127 209.414 48.994C209.293 48.966 209.176 48.952 209.064 48.952C208.644 48.952 208.276 49.0733 207.958 49.316C207.65 49.5587 207.408 49.8993 207.23 50.338V55H206.208ZM213.786 55.14C213.152 55.14 212.578 54.986 212.064 54.678C211.551 54.3607 211.145 53.936 210.846 53.404C210.548 52.8627 210.398 52.256 210.398 51.584C210.398 50.912 210.538 50.31 210.818 49.778C211.108 49.246 211.495 48.826 211.98 48.518C212.466 48.21 213.007 48.056 213.604 48.056C214.211 48.056 214.748 48.21 215.214 48.518C215.69 48.8167 216.064 49.2273 216.334 49.75C216.614 50.2633 216.754 50.8467 216.754 51.5V51.808H211.392C211.43 52.2747 211.556 52.6947 211.77 53.068C211.994 53.432 212.284 53.7213 212.638 53.936C213.002 54.1413 213.399 54.244 213.828 54.244C214.183 54.244 214.524 54.1833 214.85 54.062C215.186 53.9313 215.471 53.7587 215.704 53.544L216.348 54.23C215.956 54.538 215.55 54.7667 215.13 54.916C214.71 55.0653 214.262 55.14 213.786 55.14ZM211.42 51.08H215.746C215.7 50.6693 215.574 50.3053 215.368 49.988C215.172 49.6613 214.92 49.4047 214.612 49.218C214.314 49.0313 213.978 48.938 213.604 48.938C213.231 48.938 212.89 49.0313 212.582 49.218C212.274 49.3953 212.018 49.6473 211.812 49.974C211.616 50.2913 211.486 50.66 211.42 51.08ZM220.477 55.126C219.991 55.126 219.562 55.0373 219.189 54.86C218.815 54.6827 218.521 54.44 218.307 54.132C218.101 53.8147 217.999 53.4507 217.999 53.04C217.999 52.6293 218.106 52.2747 218.321 51.976C218.535 51.668 218.834 51.43 219.217 51.262C219.599 51.094 220.047 51.01 220.561 51.01C220.953 51.01 221.321 51.052 221.667 51.136C222.021 51.22 222.348 51.3553 222.647 51.542V50.604C222.647 50.044 222.497 49.624 222.199 49.344C221.9 49.0547 221.461 48.91 220.883 48.91C220.565 48.91 220.239 48.9567 219.903 49.05C219.576 49.1433 219.212 49.2927 218.811 49.498L218.433 48.714C219.347 48.2753 220.206 48.056 221.008 48.056C221.858 48.056 222.511 48.266 222.969 48.686C223.426 49.0967 223.655 49.6893 223.655 50.464V55H222.647V54.202C222.348 54.51 222.017 54.7433 221.653 54.902C221.289 55.0513 220.897 55.126 220.477 55.126ZM218.979 53.012C218.979 53.4133 219.133 53.7353 219.441 53.978C219.758 54.2207 220.173 54.342 220.687 54.342C221.069 54.342 221.419 54.2767 221.737 54.146C222.063 54.0153 222.367 53.8193 222.647 53.558V52.242C222.357 52.074 222.059 51.9527 221.751 51.878C221.443 51.794 221.097 51.752 220.715 51.752C220.192 51.752 219.772 51.8687 219.455 52.102C219.137 52.326 218.979 52.6293 218.979 53.012ZM228.131 55.14C227.543 55.14 227.095 55 226.787 54.72C226.488 54.4307 226.339 54.0153 226.339 53.474V49.008H224.925V48.168H226.339V46.292L227.361 46.054V48.168H229.321V49.008H227.361V53.208C227.361 53.572 227.435 53.8333 227.585 53.992C227.743 54.1507 228 54.23 228.355 54.23C228.532 54.23 228.691 54.216 228.831 54.188C228.971 54.16 229.134 54.1133 229.321 54.048V54.958C229.134 55.0233 228.938 55.07 228.733 55.098C228.527 55.126 228.327 55.14 228.131 55.14ZM233.761 55.14C233.126 55.14 232.552 54.986 232.039 54.678C231.526 54.3607 231.12 53.936 230.821 53.404C230.522 52.8627 230.373 52.256 230.373 51.584C230.373 50.912 230.513 50.31 230.793 49.778C231.082 49.246 231.47 48.826 231.955 48.518C232.44 48.21 232.982 48.056 233.579 48.056C234.186 48.056 234.722 48.21 235.189 48.518C235.665 48.8167 236.038 49.2273 236.309 49.75C236.589 50.2633 236.729 50.8467 236.729 51.5V51.808H231.367C231.404 52.2747 231.53 52.6947 231.745 53.068C231.969 53.432 232.258 53.7213 232.613 53.936C232.977 54.1413 233.374 54.244 233.803 54.244C234.158 54.244 234.498 54.1833 234.825 54.062C235.161 53.9313 235.446 53.7587 235.679 53.544L236.323 54.23C235.931 54.538 235.525 54.7667 235.105 54.916C234.685 55.0653 234.237 55.14 233.761 55.14ZM231.395 51.08H235.721C235.674 50.6693 235.548 50.3053 235.343 49.988C235.147 49.6613 234.895 49.4047 234.587 49.218C234.288 49.0313 233.952 48.938 233.579 48.938C233.206 48.938 232.865 49.0313 232.557 49.218C232.249 49.3953 231.992 49.6473 231.787 49.974C231.591 50.2913 231.46 50.66 231.395 51.08Z" fill="white"/>
<mask id="path-11-inside-4_1565_29407" fill="white">
<path d="M270 50.5C270 40.2827 278.283 32 288.5 32H381.5C391.717 32 400 40.2827 400 50.5V50.5C400 60.7173 391.717 69 381.5 69H288.5C278.283 69 270 60.7173 270 50.5V50.5Z"/>
</mask>
<path d="M288.5 32V33H381.5V32V31H288.5V32ZM381.5 69V68H288.5V69V70H381.5V69ZM288.5 69V68C278.835 68 271 60.165 271 50.5H270H269C269 61.2696 277.73 70 288.5 70V69ZM400 50.5H399C399 60.165 391.165 68 381.5 68V69V70C392.27 70 401 61.2696 401 50.5H400ZM381.5 32V33C391.165 33 399 40.835 399 50.5H400H401C401 39.7304 392.27 31 381.5 31V32ZM288.5 32V31C277.73 31 269 39.7304 269 50.5H270H271C271 40.835 278.835 33 288.5 33V32Z" fill="#0066CC" mask="url(#path-11-inside-4_1565_29407)"/>
<path d="M295.232 55V45.2H296.31V49.582H301.938V45.2H303.016V55H301.938V50.548H296.31V55H295.232ZM308.384 55.14C307.749 55.14 307.175 54.986 306.662 54.678C306.149 54.3607 305.743 53.936 305.444 53.404C305.145 52.8627 304.996 52.256 304.996 51.584C304.996 50.912 305.136 50.31 305.416 49.778C305.705 49.246 306.093 48.826 306.578 48.518C307.063 48.21 307.605 48.056 308.202 48.056C308.809 48.056 309.345 48.21 309.812 48.518C310.288 48.8167 310.661 49.2273 310.932 49.75C311.212 50.2633 311.352 50.8467 311.352 51.5V51.808H305.99C306.027 52.2747 306.153 52.6947 306.368 53.068C306.592 53.432 306.881 53.7213 307.236 53.936C307.6 54.1413 307.997 54.244 308.426 54.244C308.781 54.244 309.121 54.1833 309.448 54.062C309.784 53.9313 310.069 53.7587 310.302 53.544L310.946 54.23C310.554 54.538 310.148 54.7667 309.728 54.916C309.308 55.0653 308.86 55.14 308.384 55.14ZM306.018 51.08H310.344C310.297 50.6693 310.171 50.3053 309.966 49.988C309.77 49.6613 309.518 49.4047 309.21 49.218C308.911 49.0313 308.575 48.938 308.202 48.938C307.829 48.938 307.488 49.0313 307.18 49.218C306.872 49.3953 306.615 49.6473 306.41 49.974C306.214 50.2913 306.083 50.66 306.018 51.08ZM315.074 55.126C314.589 55.126 314.159 55.0373 313.786 54.86C313.413 54.6827 313.119 54.44 312.904 54.132C312.699 53.8147 312.596 53.4507 312.596 53.04C312.596 52.6293 312.703 52.2747 312.918 51.976C313.133 51.668 313.431 51.43 313.814 51.262C314.197 51.094 314.645 51.01 315.158 51.01C315.55 51.01 315.919 51.052 316.264 51.136C316.619 51.22 316.945 51.3553 317.244 51.542V50.604C317.244 50.044 317.095 49.624 316.796 49.344C316.497 49.0547 316.059 48.91 315.48 48.91C315.163 48.91 314.836 48.9567 314.5 49.05C314.173 49.1433 313.809 49.2927 313.408 49.498L313.03 48.714C313.945 48.2753 314.803 48.056 315.606 48.056C316.455 48.056 317.109 48.266 317.566 48.686C318.023 49.0967 318.252 49.6893 318.252 50.464V55H317.244V54.202C316.945 54.51 316.614 54.7433 316.25 54.902C315.886 55.0513 315.494 55.126 315.074 55.126ZM313.576 53.012C313.576 53.4133 313.73 53.7353 314.038 53.978C314.355 54.2207 314.771 54.342 315.284 54.342C315.667 54.342 316.017 54.2767 316.334 54.146C316.661 54.0153 316.964 53.8193 317.244 53.558V52.242C316.955 52.074 316.656 51.9527 316.348 51.878C316.04 51.794 315.695 51.752 315.312 51.752C314.789 51.752 314.369 51.8687 314.052 52.102C313.735 52.326 313.576 52.6293 313.576 53.012ZM320.329 55V44.892L321.351 44.682V55H320.329ZM326.05 55.14C325.462 55.14 325.014 55 324.706 54.72C324.408 54.4307 324.258 54.0153 324.258 53.474V49.008H322.844V48.168H324.258V46.292L325.28 46.054V48.168H327.24V49.008H325.28V53.208C325.28 53.572 325.355 53.8333 325.504 53.992C325.663 54.1507 325.92 54.23 326.274 54.23C326.452 54.23 326.61 54.216 326.75 54.188C326.89 54.16 327.054 54.1133 327.24 54.048V54.958C327.054 55.0233 326.858 55.07 326.652 55.098C326.447 55.126 326.246 55.14 326.05 55.14ZM328.738 55V44.892L329.76 44.682V49.274C330.021 48.8633 330.334 48.56 330.698 48.364C331.062 48.1587 331.472 48.056 331.93 48.056C332.424 48.056 332.854 48.1633 333.218 48.378C333.591 48.5833 333.88 48.8773 334.086 49.26C334.3 49.6333 334.408 50.072 334.408 50.576V55H333.386V50.87C333.386 50.2633 333.218 49.7873 332.882 49.442C332.555 49.0873 332.112 48.91 331.552 48.91C331.178 48.91 330.838 48.9987 330.53 49.176C330.222 49.3533 329.965 49.6147 329.76 49.96V55H328.738ZM342.796 55.112C342.161 55.112 341.587 54.958 341.074 54.65C340.57 54.3327 340.168 53.908 339.87 53.376C339.571 52.8347 339.422 52.2373 339.422 51.584C339.422 50.9213 339.571 50.324 339.87 49.792C340.168 49.26 340.57 48.84 341.074 48.532C341.587 48.2147 342.161 48.056 342.796 48.056C343.3 48.056 343.78 48.1493 344.238 48.336C344.695 48.5227 345.092 48.784 345.428 49.12L344.77 49.834C344.527 49.5633 344.233 49.3533 343.888 49.204C343.542 49.0547 343.192 48.98 342.838 48.98C342.39 48.98 341.984 49.0967 341.62 49.33C341.265 49.5633 340.98 49.876 340.766 50.268C340.551 50.66 340.444 51.0987 340.444 51.584C340.444 52.0693 340.551 52.508 340.766 52.9C340.98 53.292 341.265 53.6047 341.62 53.838C341.984 54.0713 342.39 54.188 342.838 54.188C343.192 54.188 343.542 54.1133 343.888 53.964C344.233 53.8053 344.527 53.5953 344.77 53.334L345.428 54.048C345.092 54.384 344.695 54.6453 344.238 54.832C343.78 55.0187 343.3 55.112 342.796 55.112ZM346.853 55V44.892L347.875 44.682V49.274C348.136 48.8633 348.449 48.56 348.813 48.364C349.177 48.1587 349.587 48.056 350.045 48.056C350.539 48.056 350.969 48.1633 351.333 48.378C351.706 48.5833 351.995 48.8773 352.201 49.26C352.415 49.6333 352.523 50.072 352.523 50.576V55H351.501V50.87C351.501 50.2633 351.333 49.7873 350.997 49.442C350.67 49.0873 350.227 48.91 349.667 48.91C349.293 48.91 348.953 48.9987 348.645 49.176C348.337 49.3533 348.08 49.6147 347.875 49.96V55H346.853ZM357.657 55.14C357.023 55.14 356.449 54.986 355.935 54.678C355.422 54.3607 355.016 53.936 354.717 53.404C354.419 52.8627 354.269 52.256 354.269 51.584C354.269 50.912 354.409 50.31 354.689 49.778C354.979 49.246 355.366 48.826 355.851 48.518C356.337 48.21 356.878 48.056 357.475 48.056C358.082 48.056 358.619 48.21 359.085 48.518C359.561 48.8167 359.935 49.2273 360.205 49.75C360.485 50.2633 360.625 50.8467 360.625 51.5V51.808H355.263C355.301 52.2747 355.427 52.6947 355.641 53.068C355.865 53.432 356.155 53.7213 356.509 53.936C356.873 54.1413 357.27 54.244 357.699 54.244C358.054 54.244 358.395 54.1833 358.721 54.062C359.057 53.9313 359.342 53.7587 359.575 53.544L360.219 54.23C359.827 54.538 359.421 54.7667 359.001 54.916C358.581 55.0653 358.133 55.14 357.657 55.14ZM355.291 51.08H359.617C359.571 50.6693 359.445 50.3053 359.239 49.988C359.043 49.6613 358.791 49.4047 358.483 49.218C358.185 49.0313 357.849 48.938 357.475 48.938C357.102 48.938 356.761 49.0313 356.453 49.218C356.145 49.3953 355.889 49.6473 355.683 49.974C355.487 50.2913 355.357 50.66 355.291 51.08ZM365.436 55.112C364.802 55.112 364.228 54.958 363.714 54.65C363.21 54.3327 362.809 53.908 362.51 53.376C362.212 52.8347 362.062 52.2373 362.062 51.584C362.062 50.9213 362.212 50.324 362.51 49.792C362.809 49.26 363.21 48.84 363.714 48.532C364.228 48.2147 364.802 48.056 365.436 48.056C365.94 48.056 366.421 48.1493 366.878 48.336C367.336 48.5227 367.732 48.784 368.068 49.12L367.41 49.834C367.168 49.5633 366.874 49.3533 366.528 49.204C366.183 49.0547 365.833 48.98 365.478 48.98C365.03 48.98 364.624 49.0967 364.26 49.33C363.906 49.5633 363.621 49.876 363.406 50.268C363.192 50.66 363.084 51.0987 363.084 51.584C363.084 52.0693 363.192 52.508 363.406 52.9C363.621 53.292 363.906 53.6047 364.26 53.838C364.624 54.0713 365.03 54.188 365.478 54.188C365.833 54.188 366.183 54.1133 366.528 53.964C366.874 53.8053 367.168 53.5953 367.41 53.334L368.068 54.048C367.732 54.384 367.336 54.6453 366.878 54.832C366.421 55.0187 365.94 55.112 365.436 55.112ZM369.493 55V44.892L370.515 44.682V51.234L373.763 48.168H374.995L371.523 51.416L375.149 55H373.805L370.515 51.738V55H369.493Z" fill="#0066CC"/>
<path d="M416 41.5C416 38.1863 418.686 35.5 422 35.5H440C443.314 35.5 446 38.1863 446 41.5V59.5C446 62.8137 443.314 65.5 440 65.5H422C418.686 65.5 416 62.8137 416 59.5V41.5Z" fill="#C7C7C7" fill-opacity="0.25"/>
<path d="M431.292 53.4355C432.42 53.4357 433.333 54.3445 433.333 55.4678C433.333 56.591 432.42 57.4998 431.292 57.5C430.163 57.5 429.25 56.5911 429.25 55.4678C429.25 54.3444 430.163 53.4355 431.292 53.4355ZM431.292 48.4678C432.42 48.4679 433.333 49.3767 433.333 50.5C433.333 51.6233 432.42 52.5321 431.292 52.5322C430.163 52.5322 429.25 51.6234 429.25 50.5C429.25 49.3766 430.163 48.4678 431.292 48.4678ZM431.292 43.5C432.42 43.5002 433.333 44.409 433.333 45.5322C433.333 46.6555 432.42 47.5643 431.292 47.5645C430.163 47.5645 429.25 46.6556 429.25 45.5322C429.25 44.4089 430.163 43.5 431.292 43.5Z" fill="#1F1F1F"/>
<path d="M646.254 55V46.81L644.518 47.552V46.194L646.814 45.2H647.78V55H646.254ZM652.714 51.696V50.352H657.6V51.696H652.714ZM662.255 55V53.894L666.273 49.694C666.516 49.442 666.702 49.2133 666.833 49.008C666.973 48.8027 667.071 48.6067 667.127 48.42C667.192 48.224 667.225 48.0233 667.225 47.818C667.225 47.4073 667.057 47.0667 666.721 46.796C666.385 46.5253 665.96 46.39 665.447 46.39C664.999 46.39 664.579 46.4787 664.187 46.656C663.795 46.8333 663.366 47.1413 662.899 47.58L662.031 46.53C662.572 46.0353 663.128 45.6667 663.697 45.424C664.266 45.172 664.859 45.046 665.475 45.046C666.119 45.046 666.684 45.1627 667.169 45.396C667.654 45.62 668.032 45.9327 668.303 46.334C668.574 46.7353 668.709 47.202 668.709 47.734C668.709 48.0513 668.667 48.35 668.583 48.63C668.499 48.91 668.354 49.1947 668.149 49.484C667.953 49.7733 667.678 50.1047 667.323 50.478L664.201 53.698L668.891 53.684V55H662.255ZM674.243 55.14C673.45 55.14 672.75 54.93 672.143 54.51C671.546 54.0807 671.075 53.488 670.729 52.732C670.393 51.9667 670.225 51.0893 670.225 50.1C670.225 49.092 670.393 48.21 670.729 47.454C671.075 46.698 671.546 46.11 672.143 45.69C672.75 45.2607 673.45 45.046 674.243 45.046C675.037 45.046 675.732 45.2607 676.329 45.69C676.936 46.11 677.407 46.698 677.743 47.454C678.079 48.21 678.247 49.092 678.247 50.1C678.247 51.0893 678.079 51.9667 677.743 52.732C677.407 53.488 676.936 54.0807 676.329 54.51C675.732 54.93 675.037 55.14 674.243 55.14ZM674.243 53.782C674.747 53.782 675.181 53.6327 675.545 53.334C675.919 53.026 676.208 52.5967 676.413 52.046C676.619 51.4953 676.721 50.8467 676.721 50.1C676.721 49.344 676.619 48.6907 676.413 48.14C676.208 47.5893 675.919 47.1647 675.545 46.866C675.181 46.558 674.747 46.404 674.243 46.404C673.739 46.404 673.301 46.558 672.927 46.866C672.563 47.1647 672.274 47.5893 672.059 48.14C671.854 48.6907 671.751 49.344 671.751 50.1C671.751 50.8467 671.854 51.4953 672.059 52.046C672.274 52.5967 672.563 53.026 672.927 53.334C673.301 53.6327 673.739 53.782 674.243 53.782Z" fill="#151515"/>
<path d="M687.074 55.112C686.439 55.112 685.87 54.958 685.366 54.65C684.862 54.342 684.465 53.922 684.176 53.39C683.887 52.858 683.742 52.256 683.742 51.584C683.742 50.912 683.887 50.31 684.176 49.778C684.465 49.246 684.862 48.826 685.366 48.518C685.87 48.21 686.439 48.056 687.074 48.056C687.699 48.056 688.259 48.21 688.754 48.518C689.258 48.826 689.655 49.246 689.944 49.778C690.233 50.31 690.378 50.912 690.378 51.584C690.378 52.256 690.233 52.858 689.944 53.39C689.655 53.922 689.258 54.342 688.754 54.65C688.259 54.958 687.699 55.112 687.074 55.112ZM687.06 54.216C687.508 54.216 687.905 54.104 688.25 53.88C688.595 53.6467 688.866 53.3293 689.062 52.928C689.267 52.5267 689.37 52.0787 689.37 51.584C689.37 51.08 689.267 50.632 689.062 50.24C688.866 49.8387 688.595 49.526 688.25 49.302C687.905 49.0687 687.508 48.952 687.06 48.952C686.612 48.952 686.215 49.0687 685.87 49.302C685.525 49.526 685.249 49.8387 685.044 50.24C684.848 50.632 684.75 51.08 684.75 51.584C684.75 52.0787 684.848 52.5267 685.044 52.928C685.249 53.3293 685.525 53.6467 685.87 53.88C686.215 54.104 686.612 54.216 687.06 54.216ZM692.615 55V49.008H691.089V48.168H692.615V46.74C692.615 46.068 692.793 45.55 693.147 45.186C693.502 44.822 694.006 44.64 694.659 44.64C694.846 44.64 695.014 44.6493 695.163 44.668C695.322 44.6867 695.462 44.7193 695.583 44.766V45.69C695.434 45.6433 695.299 45.6107 695.177 45.592C695.056 45.5733 694.916 45.564 694.757 45.564C694.365 45.564 694.081 45.662 693.903 45.858C693.726 46.0447 693.637 46.3433 693.637 46.754V48.168H695.583V49.008H693.637V55H692.615Z" fill="#151515"/>
<path d="M703.934 55.154C702.609 55.154 701.461 54.7107 700.49 53.824L701.414 52.774C701.834 53.1473 702.245 53.418 702.646 53.586C703.057 53.754 703.505 53.838 703.99 53.838C704.41 53.838 704.774 53.7587 705.082 53.6C705.399 53.4413 705.642 53.2173 705.81 52.928C705.987 52.6293 706.076 52.2933 706.076 51.92C706.076 51.3693 705.875 50.926 705.474 50.59C705.082 50.2447 704.573 50.072 703.948 50.072C703.621 50.072 703.299 50.114 702.982 50.198C702.674 50.282 702.352 50.4127 702.016 50.59L700.938 50.268L701.162 45.2H707.112V46.516H702.506L702.38 49.33C702.735 49.1527 703.071 49.036 703.388 48.98C703.715 48.9147 704.046 48.882 704.382 48.882C705.035 48.882 705.605 49.008 706.09 49.26C706.575 49.5027 706.953 49.848 707.224 50.296C707.495 50.7347 707.63 51.248 707.63 51.836C707.63 52.4987 707.476 53.0773 707.168 53.572C706.86 54.0667 706.426 54.454 705.866 54.734C705.315 55.014 704.671 55.154 703.934 55.154ZM708.821 55V53.894L712.839 49.694C713.082 49.442 713.269 49.2133 713.399 49.008C713.539 48.8027 713.637 48.6067 713.693 48.42C713.759 48.224 713.791 48.0233 713.791 47.818C713.791 47.4073 713.623 47.0667 713.287 46.796C712.951 46.5253 712.527 46.39 712.013 46.39C711.565 46.39 711.145 46.4787 710.753 46.656C710.361 46.8333 709.932 47.1413 709.465 47.58L708.597 46.53C709.139 46.0353 709.694 45.6667 710.263 45.424C710.833 45.172 711.425 45.046 712.041 45.046C712.685 45.046 713.25 45.1627 713.735 45.396C714.221 45.62 714.599 45.9327 714.869 46.334C715.14 46.7353 715.275 47.202 715.275 47.734C715.275 48.0513 715.233 48.35 715.149 48.63C715.065 48.91 714.921 49.1947 714.715 49.484C714.519 49.7733 714.244 50.1047 713.889 50.478L710.767 53.698L715.457 53.684V55H708.821ZM720.208 55.154C719.48 55.154 718.803 55.028 718.178 54.776C717.552 54.5147 717.02 54.1507 716.582 53.684L717.604 52.704C717.996 53.1147 718.388 53.404 718.78 53.572C719.172 53.7307 719.638 53.81 720.18 53.81C720.609 53.81 720.982 53.7447 721.3 53.614C721.626 53.474 721.878 53.2827 722.056 53.04C722.233 52.7973 722.322 52.5127 722.322 52.186C722.322 51.8967 722.247 51.64 722.098 51.416C721.948 51.192 721.743 51.0193 721.482 50.898C721.22 50.7673 720.917 50.702 720.572 50.702H719.368V49.414H720.446C720.922 49.414 721.3 49.2833 721.58 49.022C721.869 48.7607 722.014 48.406 722.014 47.958C722.014 47.6687 721.93 47.4073 721.762 47.174C721.603 46.9313 721.384 46.7447 721.104 46.614C720.824 46.474 720.506 46.404 720.152 46.404C719.657 46.404 719.223 46.4927 718.85 46.67C718.486 46.838 718.108 47.1367 717.716 47.566L716.68 46.6C717.128 46.096 717.655 45.7133 718.262 45.452C718.878 45.1813 719.522 45.046 720.194 45.046C720.847 45.046 721.426 45.1627 721.93 45.396C722.434 45.6293 722.826 45.956 723.106 46.376C723.395 46.7867 723.54 47.258 723.54 47.79C723.54 48.3127 723.367 48.7793 723.022 49.19C722.686 49.5913 722.242 49.8713 721.692 50.03C722.345 50.17 722.868 50.4453 723.26 50.856C723.661 51.2573 723.862 51.7333 723.862 52.284C723.862 52.8347 723.703 53.3293 723.386 53.768C723.068 54.1973 722.634 54.538 722.084 54.79C721.542 55.0327 720.917 55.154 720.208 55.154Z" fill="#151515"/>
<path fill-rule="evenodd" clip-rule="evenodd" d="M741.444 52.9817L745.481 48.9117C745.877 48.5133 745.597 47.8334 745.039 47.8334H736.961C736.403 47.8334 736.123 48.5133 736.519 48.9117L740.556 52.9817C740.801 53.2284 741.199 53.2284 741.444 52.9817Z" fill="#1F1F1F"/>
<path fill-rule="evenodd" clip-rule="evenodd" d="M801.424 54.5808L802.042 53.9601C802.299 53.7058 802.299 53.2902 802.042 53.0332L799.406 50.3972L802.039 47.7586C802.296 47.5043 802.296 47.0887 802.039 46.8316L801.421 46.2137C801.167 45.9566 800.752 45.9566 800.494 46.2137L796.776 49.9324C796.519 50.1894 796.519 50.605 796.778 50.8621L800.497 54.5808C800.752 54.8379 801.167 54.8379 801.424 54.5808Z" fill="#A3A3A3"/>
<path fill-rule="evenodd" clip-rule="evenodd" d="M843.321 54.3933L847.04 50.6746C847.297 50.4175 847.297 50.0019 847.037 49.7449L843.318 46.0262C843.064 45.7691 842.648 45.7691 842.391 46.0262L841.776 46.6496C841.519 46.9039 841.519 47.3195 841.776 47.5765L844.412 50.2125L841.776 52.8484C841.519 53.1027 841.519 53.5183 841.776 53.7754L842.394 54.3933C842.648 54.6504 843.064 54.6504 843.321 54.3933Z" fill="#1F1F1F"/>
<g filter="url(#filter0_d_1565_29407)">
<path d="M426 79C426 75.6863 428.686 73 432 73H571C574.314 73 577 75.6863 577 79V194C577 197.314 574.314 200 571 200H432C428.686 200 426 197.314 426 194V79Z" fill="white"/>
<path d="M451.246 104V94.2H452.324V103.048H457.854V104H451.246ZM459.54 104V97.168H460.562V104H459.54ZM460.058 95.474C459.853 95.474 459.675 95.404 459.526 95.264C459.386 95.1147 459.316 94.942 459.316 94.746C459.316 94.55 459.386 94.382 459.526 94.242C459.675 94.0927 459.853 94.018 460.058 94.018C460.263 94.018 460.436 94.0927 460.576 94.242C460.725 94.382 460.8 94.55 460.8 94.746C460.8 94.942 460.725 95.1147 460.576 95.264C460.436 95.404 460.263 95.474 460.058 95.474ZM462.657 104V97.168H463.679V98.274C463.941 97.8633 464.253 97.56 464.617 97.364C464.981 97.1587 465.392 97.056 465.849 97.056C466.344 97.056 466.773 97.1633 467.137 97.378C467.511 97.5833 467.8 97.8773 468.005 98.26C468.22 98.6333 468.327 99.072 468.327 99.576V104H467.305V99.87C467.305 99.2633 467.137 98.7873 466.801 98.442C466.475 98.0873 466.031 97.91 465.471 97.91C465.098 97.91 464.757 97.9987 464.449 98.176C464.141 98.3533 463.885 98.6147 463.679 98.96V104H462.657ZM470.382 104V93.892L471.404 93.682V100.234L474.652 97.168H475.884L472.412 100.416L476.038 104H474.694L471.404 100.738V104H470.382Z" fill="#151515"/>
<path d="M452.324 140.034H454.564C455.273 140.034 455.908 139.861 456.468 139.516C457.028 139.171 457.471 138.704 457.798 138.116C458.134 137.519 458.302 136.847 458.302 136.1C458.302 135.353 458.134 134.686 457.798 134.098C457.471 133.501 457.028 133.029 456.468 132.684C455.908 132.339 455.273 132.166 454.564 132.166H452.324V140.034ZM451.246 141V131.2H454.494C455.213 131.2 455.871 131.326 456.468 131.578C457.075 131.821 457.593 132.166 458.022 132.614C458.461 133.053 458.797 133.571 459.03 134.168C459.273 134.756 459.394 135.4 459.394 136.1C459.394 136.8 459.273 137.449 459.03 138.046C458.797 138.634 458.461 139.152 458.022 139.6C457.593 140.039 457.075 140.384 456.468 140.636C455.871 140.879 455.213 141 454.494 141H451.246ZM461.222 141V134.168H462.244V141H461.222ZM461.74 132.474C461.534 132.474 461.357 132.404 461.208 132.264C461.068 132.115 460.998 131.942 460.998 131.746C460.998 131.55 461.068 131.382 461.208 131.242C461.357 131.093 461.534 131.018 461.74 131.018C461.945 131.018 462.118 131.093 462.258 131.242C462.407 131.382 462.482 131.55 462.482 131.746C462.482 131.942 462.407 132.115 462.258 132.264C462.118 132.404 461.945 132.474 461.74 132.474ZM466.453 141.14C465.893 141.14 465.375 141.056 464.899 140.888C464.423 140.711 464.017 140.459 463.681 140.132L464.227 139.46C464.638 139.759 465.016 139.978 465.361 140.118C465.706 140.249 466.061 140.314 466.425 140.314C466.92 140.314 467.33 140.197 467.657 139.964C467.984 139.731 468.147 139.432 468.147 139.068C468.147 138.788 468.049 138.569 467.853 138.41C467.666 138.251 467.354 138.13 466.915 138.046L465.795 137.85C465.132 137.729 464.642 137.523 464.325 137.234C464.017 136.945 463.863 136.553 463.863 136.058C463.863 135.666 463.966 135.321 464.171 135.022C464.386 134.723 464.68 134.49 465.053 134.322C465.426 134.145 465.851 134.056 466.327 134.056C466.794 134.056 467.237 134.126 467.657 134.266C468.077 134.397 468.502 134.611 468.931 134.91L468.427 135.624C468.072 135.372 467.718 135.19 467.363 135.078C467.008 134.957 466.649 134.896 466.285 134.896C465.837 134.896 465.478 134.994 465.207 135.19C464.936 135.386 464.801 135.652 464.801 135.988C464.801 136.268 464.885 136.483 465.053 136.632C465.23 136.781 465.538 136.893 465.977 136.968L467.125 137.178C467.816 137.299 468.32 137.509 468.637 137.808C468.954 138.107 469.113 138.508 469.113 139.012C469.113 139.413 468.996 139.777 468.763 140.104C468.53 140.421 468.212 140.673 467.811 140.86C467.41 141.047 466.957 141.14 466.453 141.14ZM472.852 141.126C472.366 141.126 471.937 141.037 471.564 140.86C471.19 140.683 470.896 140.44 470.682 140.132C470.476 139.815 470.374 139.451 470.374 139.04C470.374 138.629 470.481 138.275 470.696 137.976C470.91 137.668 471.209 137.43 471.592 137.262C471.974 137.094 472.422 137.01 472.936 137.01C473.328 137.01 473.696 137.052 474.042 137.136C474.396 137.22 474.723 137.355 475.022 137.542V136.604C475.022 136.044 474.872 135.624 474.574 135.344C474.275 135.055 473.836 134.91 473.258 134.91C472.94 134.91 472.614 134.957 472.278 135.05C471.951 135.143 471.587 135.293 471.186 135.498L470.808 134.714C471.722 134.275 472.581 134.056 473.383 134.056C474.233 134.056 474.886 134.266 475.344 134.686C475.801 135.097 476.03 135.689 476.03 136.464V141H475.022V140.202C474.723 140.51 474.392 140.743 474.028 140.902C473.664 141.051 473.272 141.126 472.852 141.126ZM471.354 139.012C471.354 139.413 471.508 139.735 471.816 139.978C472.133 140.221 472.548 140.342 473.062 140.342C473.444 140.342 473.794 140.277 474.112 140.146C474.438 140.015 474.742 139.819 475.022 139.558V138.242C474.732 138.074 474.434 137.953 474.126 137.878C473.818 137.794 473.472 137.752 473.09 137.752C472.567 137.752 472.147 137.869 471.83 138.102C471.512 138.326 471.354 138.629 471.354 139.012ZM478.107 141V130.99L479.129 130.78V135.106C479.39 134.779 479.707 134.527 480.081 134.35C480.454 134.173 480.869 134.084 481.327 134.084C481.924 134.084 482.456 134.243 482.923 134.56C483.399 134.868 483.777 135.288 484.057 135.82C484.337 136.343 484.477 136.931 484.477 137.584C484.477 138.237 484.332 138.83 484.043 139.362C483.763 139.894 483.38 140.319 482.895 140.636C482.419 140.944 481.877 141.098 481.271 141.098C480.841 141.098 480.44 141.014 480.067 140.846C479.703 140.669 479.385 140.421 479.115 140.104V141H478.107ZM481.075 140.216C481.532 140.216 481.938 140.104 482.293 139.88C482.657 139.647 482.941 139.334 483.147 138.942C483.361 138.541 483.469 138.093 483.469 137.598C483.469 137.094 483.361 136.646 483.147 136.254C482.941 135.862 482.657 135.554 482.293 135.33C481.938 135.097 481.532 134.98 481.075 134.98C480.673 134.98 480.3 135.064 479.955 135.232C479.619 135.391 479.343 135.619 479.129 135.918V139.264C479.353 139.563 479.633 139.796 479.969 139.964C480.314 140.132 480.683 140.216 481.075 140.216ZM486.269 141V130.892L487.291 130.682V141H486.269ZM492.466 141.14C491.831 141.14 491.257 140.986 490.744 140.678C490.231 140.361 489.825 139.936 489.526 139.404C489.227 138.863 489.078 138.256 489.078 137.584C489.078 136.912 489.218 136.31 489.498 135.778C489.787 135.246 490.175 134.826 490.66 134.518C491.145 134.21 491.687 134.056 492.284 134.056C492.891 134.056 493.427 134.21 493.894 134.518C494.37 134.817 494.743 135.227 495.014 135.75C495.294 136.263 495.434 136.847 495.434 137.5V137.808H490.072C490.109 138.275 490.235 138.695 490.45 139.068C490.674 139.432 490.963 139.721 491.318 139.936C491.682 140.141 492.079 140.244 492.508 140.244C492.863 140.244 493.203 140.183 493.53 140.062C493.866 139.931 494.151 139.759 494.384 139.544L495.028 140.23C494.636 140.538 494.23 140.767 493.81 140.916C493.39 141.065 492.942 141.14 492.466 141.14ZM490.1 137.08H494.426C494.379 136.669 494.253 136.305 494.048 135.988C493.852 135.661 493.6 135.405 493.292 135.218C492.993 135.031 492.657 134.938 492.284 134.938C491.911 134.938 491.57 135.031 491.262 135.218C490.954 135.395 490.697 135.647 490.492 135.974C490.296 136.291 490.165 136.66 490.1 137.08ZM500.021 141.098C499.433 141.098 498.901 140.944 498.425 140.636C497.949 140.319 497.571 139.899 497.291 139.376C497.011 138.844 496.871 138.251 496.871 137.598C496.871 136.935 497.011 136.343 497.291 135.82C497.58 135.288 497.968 134.868 498.453 134.56C498.938 134.243 499.48 134.084 500.077 134.084C500.497 134.084 500.889 134.168 501.253 134.336C501.617 134.495 501.934 134.728 502.205 135.036V130.892L503.227 130.682V141H502.205V140.09C501.944 140.417 501.626 140.669 501.253 140.846C500.88 141.014 500.469 141.098 500.021 141.098ZM500.273 140.202C500.674 140.202 501.043 140.123 501.379 139.964C501.715 139.805 501.99 139.581 502.205 139.292V135.904C501.981 135.615 501.696 135.391 501.351 135.232C501.015 135.064 500.656 134.98 500.273 134.98C499.816 134.98 499.405 135.092 499.041 135.316C498.686 135.54 498.402 135.848 498.187 136.24C497.982 136.632 497.879 137.08 497.879 137.584C497.879 138.079 497.982 138.527 498.187 138.928C498.402 139.32 498.686 139.633 499.041 139.866C499.405 140.09 499.816 140.202 500.273 140.202ZM508.595 141V130.892L509.617 130.682V141H508.595ZM511.698 141V134.168H512.72V141H511.698ZM512.216 132.474C512.011 132.474 511.833 132.404 511.684 132.264C511.544 132.115 511.474 131.942 511.474 131.746C511.474 131.55 511.544 131.382 511.684 131.242C511.833 131.093 512.011 131.018 512.216 131.018C512.421 131.018 512.594 131.093 512.734 131.242C512.883 131.382 512.958 131.55 512.958 131.746C512.958 131.942 512.883 132.115 512.734 132.264C512.594 132.404 512.421 132.474 512.216 132.474ZM514.816 141V134.168H515.838V135.274C516.099 134.863 516.412 134.56 516.776 134.364C517.14 134.159 517.55 134.056 518.008 134.056C518.502 134.056 518.932 134.163 519.296 134.378C519.669 134.583 519.958 134.877 520.164 135.26C520.378 135.633 520.486 136.072 520.486 136.576V141H519.464V136.87C519.464 136.263 519.296 135.787 518.96 135.442C518.633 135.087 518.19 134.91 517.63 134.91C517.256 134.91 516.916 134.999 516.608 135.176C516.3 135.353 516.043 135.615 515.838 135.96V141H514.816ZM522.54 141V130.892L523.562 130.682V137.234L526.81 134.168H528.042L524.57 137.416L528.196 141H526.852L523.562 137.738V141H522.54Z" fill="#A3A3A3"/>
<path d="M452.324 177.034H454.564C455.273 177.034 455.908 176.861 456.468 176.516C457.028 176.171 457.471 175.704 457.798 175.116C458.134 174.519 458.302 173.847 458.302 173.1C458.302 172.353 458.134 171.686 457.798 171.098C457.471 170.501 457.028 170.029 456.468 169.684C455.908 169.339 455.273 169.166 454.564 169.166H452.324V177.034ZM451.246 178V168.2H454.494C455.213 168.2 455.871 168.326 456.468 168.578C457.075 168.821 457.593 169.166 458.022 169.614C458.461 170.053 458.797 170.571 459.03 171.168C459.273 171.756 459.394 172.4 459.394 173.1C459.394 173.8 459.273 174.449 459.03 175.046C458.797 175.634 458.461 176.152 458.022 176.6C457.593 177.039 457.075 177.384 456.468 177.636C455.871 177.879 455.213 178 454.494 178H451.246ZM461.222 178V171.168H462.244V178H461.222ZM461.74 169.474C461.534 169.474 461.357 169.404 461.208 169.264C461.068 169.115 460.998 168.942 460.998 168.746C460.998 168.55 461.068 168.382 461.208 168.242C461.357 168.093 461.534 168.018 461.74 168.018C461.945 168.018 462.118 168.093 462.258 168.242C462.407 168.382 462.482 168.55 462.482 168.746C462.482 168.942 462.407 169.115 462.258 169.264C462.118 169.404 461.945 169.474 461.74 169.474ZM466.453 178.14C465.893 178.14 465.375 178.056 464.899 177.888C464.423 177.711 464.017 177.459 463.681 177.132L464.227 176.46C464.638 176.759 465.016 176.978 465.361 177.118C465.706 177.249 466.061 177.314 466.425 177.314C466.92 177.314 467.33 177.197 467.657 176.964C467.984 176.731 468.147 176.432 468.147 176.068C468.147 175.788 468.049 175.569 467.853 175.41C467.666 175.251 467.354 175.13 466.915 175.046L465.795 174.85C465.132 174.729 464.642 174.523 464.325 174.234C464.017 173.945 463.863 173.553 463.863 173.058C463.863 172.666 463.966 172.321 464.171 172.022C464.386 171.723 464.68 171.49 465.053 171.322C465.426 171.145 465.851 171.056 466.327 171.056C466.794 171.056 467.237 171.126 467.657 171.266C468.077 171.397 468.502 171.611 468.931 171.91L468.427 172.624C468.072 172.372 467.718 172.19 467.363 172.078C467.008 171.957 466.649 171.896 466.285 171.896C465.837 171.896 465.478 171.994 465.207 172.19C464.936 172.386 464.801 172.652 464.801 172.988C464.801 173.268 464.885 173.483 465.053 173.632C465.23 173.781 465.538 173.893 465.977 173.968L467.125 174.178C467.816 174.299 468.32 174.509 468.637 174.808C468.954 175.107 469.113 175.508 469.113 176.012C469.113 176.413 468.996 176.777 468.763 177.104C468.53 177.421 468.212 177.673 467.811 177.86C467.41 178.047 466.957 178.14 466.453 178.14ZM472.852 178.126C472.366 178.126 471.937 178.037 471.564 177.86C471.19 177.683 470.896 177.44 470.682 177.132C470.476 176.815 470.374 176.451 470.374 176.04C470.374 175.629 470.481 175.275 470.696 174.976C470.91 174.668 471.209 174.43 471.592 174.262C471.974 174.094 472.422 174.01 472.936 174.01C473.328 174.01 473.696 174.052 474.042 174.136C474.396 174.22 474.723 174.355 475.022 174.542V173.604C475.022 173.044 474.872 172.624 474.574 172.344C474.275 172.055 473.836 171.91 473.258 171.91C472.94 171.91 472.614 171.957 472.278 172.05C471.951 172.143 471.587 172.293 471.186 172.498L470.808 171.714C471.722 171.275 472.581 171.056 473.383 171.056C474.233 171.056 474.886 171.266 475.344 171.686C475.801 172.097 476.03 172.689 476.03 173.464V178H475.022V177.202C474.723 177.51 474.392 177.743 474.028 177.902C473.664 178.051 473.272 178.126 472.852 178.126ZM471.354 176.012C471.354 176.413 471.508 176.735 471.816 176.978C472.133 177.221 472.548 177.342 473.062 177.342C473.444 177.342 473.794 177.277 474.112 177.146C474.438 177.015 474.742 176.819 475.022 176.558V175.242C474.732 175.074 474.434 174.953 474.126 174.878C473.818 174.794 473.472 174.752 473.09 174.752C472.567 174.752 472.147 174.869 471.83 175.102C471.512 175.326 471.354 175.629 471.354 176.012ZM478.107 178V167.99L479.129 167.78V172.106C479.39 171.779 479.707 171.527 480.081 171.35C480.454 171.173 480.869 171.084 481.327 171.084C481.924 171.084 482.456 171.243 482.923 171.56C483.399 171.868 483.777 172.288 484.057 172.82C484.337 173.343 484.477 173.931 484.477 174.584C484.477 175.237 484.332 175.83 484.043 176.362C483.763 176.894 483.38 177.319 482.895 177.636C482.419 177.944 481.877 178.098 481.271 178.098C480.841 178.098 480.44 178.014 480.067 177.846C479.703 177.669 479.385 177.421 479.115 177.104V178H478.107ZM481.075 177.216C481.532 177.216 481.938 177.104 482.293 176.88C482.657 176.647 482.941 176.334 483.147 175.942C483.361 175.541 483.469 175.093 483.469 174.598C483.469 174.094 483.361 173.646 483.147 173.254C482.941 172.862 482.657 172.554 482.293 172.33C481.938 172.097 481.532 171.98 481.075 171.98C480.673 171.98 480.3 172.064 479.955 172.232C479.619 172.391 479.343 172.619 479.129 172.918V176.264C479.353 176.563 479.633 176.796 479.969 176.964C480.314 177.132 480.683 177.216 481.075 177.216ZM486.269 178V167.892L487.291 167.682V178H486.269ZM492.466 178.14C491.831 178.14 491.257 177.986 490.744 177.678C490.231 177.361 489.825 176.936 489.526 176.404C489.227 175.863 489.078 175.256 489.078 174.584C489.078 173.912 489.218 173.31 489.498 172.778C489.787 172.246 490.175 171.826 490.66 171.518C491.145 171.21 491.687 171.056 492.284 171.056C492.891 171.056 493.427 171.21 493.894 171.518C494.37 171.817 494.743 172.227 495.014 172.75C495.294 173.263 495.434 173.847 495.434 174.5V174.808H490.072C490.109 175.275 490.235 175.695 490.45 176.068C490.674 176.432 490.963 176.721 491.318 176.936C491.682 177.141 492.079 177.244 492.508 177.244C492.863 177.244 493.203 177.183 493.53 177.062C493.866 176.931 494.151 176.759 494.384 176.544L495.028 177.23C494.636 177.538 494.23 177.767 493.81 177.916C493.39 178.065 492.942 178.14 492.466 178.14ZM490.1 174.08H494.426C494.379 173.669 494.253 173.305 494.048 172.988C493.852 172.661 493.6 172.405 493.292 172.218C492.993 172.031 492.657 171.938 492.284 171.938C491.911 171.938 491.57 172.031 491.262 172.218C490.954 172.395 490.697 172.647 490.492 172.974C490.296 173.291 490.165 173.66 490.1 174.08ZM500.021 178.098C499.433 178.098 498.901 177.944 498.425 177.636C497.949 177.319 497.571 176.899 497.291 176.376C497.011 175.844 496.871 175.251 496.871 174.598C496.871 173.935 497.011 173.343 497.291 172.82C497.58 172.288 497.968 171.868 498.453 171.56C498.938 171.243 499.48 171.084 500.077 171.084C500.497 171.084 500.889 171.168 501.253 171.336C501.617 171.495 501.934 171.728 502.205 172.036V167.892L503.227 167.682V178H502.205V177.09C501.944 177.417 501.626 177.669 501.253 177.846C500.88 178.014 500.469 178.098 500.021 178.098ZM500.273 177.202C500.674 177.202 501.043 177.123 501.379 176.964C501.715 176.805 501.99 176.581 502.205 176.292V172.904C501.981 172.615 501.696 172.391 501.351 172.232C501.015 172.064 500.656 171.98 500.273 171.98C499.816 171.98 499.405 172.092 499.041 172.316C498.686 172.54 498.402 172.848 498.187 173.24C497.982 173.632 497.879 174.08 497.879 174.584C497.879 175.079 497.982 175.527 498.187 175.928C498.402 176.32 498.686 176.633 499.041 176.866C499.405 177.09 499.816 177.202 500.273 177.202ZM510.709 178.126C510.224 178.126 509.794 178.037 509.421 177.86C509.048 177.683 508.754 177.44 508.539 177.132C508.334 176.815 508.231 176.451 508.231 176.04C508.231 175.629 508.338 175.275 508.553 174.976C508.768 174.668 509.066 174.43 509.449 174.262C509.832 174.094 510.28 174.01 510.793 174.01C511.185 174.01 511.554 174.052 511.899 174.136C512.254 174.22 512.58 174.355 512.879 174.542V173.604C512.879 173.044 512.73 172.624 512.431 172.344C512.132 172.055 511.694 171.91 511.115 171.91C510.798 171.91 510.471 171.957 510.135 172.05C509.808 172.143 509.444 172.293 509.043 172.498L508.665 171.714C509.58 171.275 510.438 171.056 511.241 171.056C512.09 171.056 512.744 171.266 513.201 171.686C513.658 172.097 513.887 172.689 513.887 173.464V178H512.879V177.202C512.58 177.51 512.249 177.743 511.885 177.902C511.521 178.051 511.129 178.126 510.709 178.126ZM509.211 176.012C509.211 176.413 509.365 176.735 509.673 176.978C509.99 177.221 510.406 177.342 510.919 177.342C511.302 177.342 511.652 177.277 511.969 177.146C512.296 177.015 512.599 176.819 512.879 176.558V175.242C512.59 175.074 512.291 174.953 511.983 174.878C511.675 174.794 511.33 174.752 510.947 174.752C510.424 174.752 510.004 174.869 509.687 175.102C509.37 175.326 509.211 175.629 509.211 176.012ZM519.03 178.112C518.395 178.112 517.821 177.958 517.308 177.65C516.804 177.333 516.403 176.908 516.104 176.376C515.805 175.835 515.656 175.237 515.656 174.584C515.656 173.921 515.805 173.324 516.104 172.792C516.403 172.26 516.804 171.84 517.308 171.532C517.821 171.215 518.395 171.056 519.03 171.056C519.534 171.056 520.015 171.149 520.472 171.336C520.929 171.523 521.326 171.784 521.662 172.12L521.004 172.834C520.761 172.563 520.467 172.353 520.122 172.204C519.777 172.055 519.427 171.98 519.072 171.98C518.624 171.98 518.218 172.097 517.854 172.33C517.499 172.563 517.215 172.876 517 173.268C516.785 173.66 516.678 174.099 516.678 174.584C516.678 175.069 516.785 175.508 517 175.9C517.215 176.292 517.499 176.605 517.854 176.838C518.218 177.071 518.624 177.188 519.072 177.188C519.427 177.188 519.777 177.113 520.122 176.964C520.467 176.805 520.761 176.595 521.004 176.334L521.662 177.048C521.326 177.384 520.929 177.645 520.472 177.832C520.015 178.019 519.534 178.112 519.03 178.112ZM525.828 178.14C525.24 178.14 524.792 178 524.484 177.72C524.185 177.431 524.036 177.015 524.036 176.474V172.008H522.622V171.168H524.036V169.292L525.058 169.054V171.168H527.018V172.008H525.058V176.208C525.058 176.572 525.132 176.833 525.282 176.992C525.44 177.151 525.697 177.23 526.052 177.23C526.229 177.23 526.388 177.216 526.528 177.188C526.668 177.16 526.831 177.113 527.018 177.048V177.958C526.831 178.023 526.635 178.07 526.43 178.098C526.224 178.126 526.024 178.14 525.828 178.14ZM528.501 178V171.168H529.523V178H528.501ZM529.019 169.474C528.814 169.474 528.636 169.404 528.487 169.264C528.347 169.115 528.277 168.942 528.277 168.746C528.277 168.55 528.347 168.382 528.487 168.242C528.636 168.093 528.814 168.018 529.019 168.018C529.224 168.018 529.397 168.093 529.537 168.242C529.686 168.382 529.761 168.55 529.761 168.746C529.761 168.942 529.686 169.115 529.537 169.264C529.397 169.404 529.224 169.474 529.019 169.474ZM534.642 178.112C534.008 178.112 533.438 177.958 532.934 177.65C532.43 177.342 532.034 176.922 531.744 176.39C531.455 175.858 531.31 175.256 531.31 174.584C531.31 173.912 531.455 173.31 531.744 172.778C532.034 172.246 532.43 171.826 532.934 171.518C533.438 171.21 534.008 171.056 534.642 171.056C535.268 171.056 535.828 171.21 536.322 171.518C536.826 171.826 537.223 172.246 537.512 172.778C537.802 173.31 537.946 173.912 537.946 174.584C537.946 175.256 537.802 175.858 537.512 176.39C537.223 176.922 536.826 177.342 536.322 177.65C535.828 177.958 535.268 178.112 534.642 178.112ZM534.628 177.216C535.076 177.216 535.473 177.104 535.818 176.88C536.164 176.647 536.434 176.329 536.63 175.928C536.836 175.527 536.938 175.079 536.938 174.584C536.938 174.08 536.836 173.632 536.63 173.24C536.434 172.839 536.164 172.526 535.818 172.302C535.473 172.069 535.076 171.952 534.628 171.952C534.18 171.952 533.784 172.069 533.438 172.302C533.093 172.526 532.818 172.839 532.612 173.24C532.416 173.632 532.318 174.08 532.318 174.584C532.318 175.079 532.416 175.527 532.612 175.928C532.818 176.329 533.093 176.647 533.438 176.88C533.784 177.104 534.18 177.216 534.628 177.216ZM539.739 178V171.168H540.761V172.274C541.023 171.863 541.335 171.56 541.699 171.364C542.063 171.159 542.474 171.056 542.931 171.056C543.426 171.056 543.855 171.163 544.219 171.378C544.593 171.583 544.882 171.877 545.087 172.26C545.302 172.633 545.409 173.072 545.409 173.576V178H544.387V173.87C544.387 173.263 544.219 172.787 543.883 172.442C543.557 172.087 543.113 171.91 542.553 171.91C542.18 171.91 541.839 171.999 541.531 172.176C541.223 172.353 540.967 172.615 540.761 172.96V178H539.739Z" fill="#A3A3A3"/>
</g>
<mask id="path-29-inside-5_1565_29407" fill="white">
<path fill-rule="evenodd" clip-rule="evenodd" d="M447.465 55.195C446.132 54.4252 444.465 55.3875 444.465 56.9271L444.465 70.934C444.465 72.4736 446.132 73.4358 447.465 72.666L451.105 70.5646L452.743 73.4022C453.295 74.3588 454.518 74.6866 455.475 74.1343L457.278 73.0932C458.235 72.5409 458.562 71.3177 458.01 70.3611L456.372 67.5235L459.595 65.6626C460.928 64.8928 460.928 62.9683 459.595 62.1985L447.465 55.195Z"/>
</mask>
<path fill-rule="evenodd" clip-rule="evenodd" d="M447.465 55.195C446.132 54.4252 444.465 55.3875 444.465 56.9271L444.465 70.934C444.465 72.4736 446.132 73.4358 447.465 72.666L451.105 70.5646L452.743 73.4022C453.295 74.3588 454.518 74.6866 455.475 74.1343L457.278 73.0932C458.235 72.5409 458.562 71.3177 458.01 70.3611L456.372 67.5235L459.595 65.6626C460.928 64.8928 460.928 62.9683 459.595 62.1985L447.465 55.195Z" fill="#FF00FF"/>
<path d="M444.465 56.9271L443.465 56.9271V56.9271L444.465 56.9271ZM447.465 55.195L447.965 54.329L447.965 54.329L447.465 55.195ZM444.465 70.934L445.465 70.934V70.934L444.465 70.934ZM447.465 72.666L447.965 73.532L447.465 72.666ZM451.105 70.5646L451.971 70.0646L451.471 69.1986L450.605 69.6986L451.105 70.5646ZM455.475 74.1343L455.975 75.0003L455.475 74.1343ZM457.278 73.0932L456.778 72.2271L457.278 73.0932ZM456.372 67.5235L455.872 66.6575L455.006 67.1575L455.506 68.0235L456.372 67.5235ZM459.595 62.1985L459.095 63.0645L459.095 63.0645L459.595 62.1985ZM444.465 56.9271L445.465 56.9271C445.465 56.1573 446.298 55.6762 446.965 56.0611L447.465 55.195L447.965 54.329C445.965 53.1743 443.465 54.6177 443.465 56.9271L444.465 56.9271ZM444.465 70.934L445.465 70.934L445.465 56.9271L444.465 56.9271L443.465 56.9271L443.465 70.934L444.465 70.934ZM447.465 72.666L446.965 71.8C446.298 72.1849 445.465 71.7037 445.465 70.934L444.465 70.934L443.465 70.934C443.465 73.2434 445.965 74.6867 447.965 73.532L447.465 72.666ZM451.105 70.5646L450.605 69.6986L446.965 71.8L447.465 72.666L447.965 73.532L451.605 71.4307L451.105 70.5646ZM452.743 73.4022L453.609 72.9022L451.971 70.0646L451.105 70.5646L450.239 71.0646L451.877 73.9022L452.743 73.4022ZM455.475 74.1343L454.975 73.2682C454.497 73.5444 453.885 73.3805 453.609 72.9022L452.743 73.4022L451.877 73.9022C452.705 75.3371 454.54 75.8287 455.975 75.0003L455.475 74.1343ZM457.278 73.0932L456.778 72.2271L454.975 73.2682L455.475 74.1343L455.975 75.0003L457.778 73.9592L457.278 73.0932ZM458.01 70.3611L457.144 70.8611C457.42 71.3394 457.256 71.951 456.778 72.2271L457.278 73.0932L457.778 73.9592C459.213 73.1308 459.705 71.296 458.876 69.8611L458.01 70.3611ZM456.372 67.5235L455.506 68.0235L457.144 70.8611L458.01 70.3611L458.876 69.8611L457.238 67.0235L456.372 67.5235ZM459.595 65.6626L459.095 64.7965L455.872 66.6575L456.372 67.5235L456.872 68.3895L460.095 66.5286L459.595 65.6626ZM459.595 62.1985L459.095 63.0645C459.762 63.4494 459.762 64.4116 459.095 64.7965L459.595 65.6626L460.095 66.5286C462.095 65.3739 462.095 62.4871 460.095 61.3324L459.595 62.1985ZM447.465 55.195L446.965 56.0611L459.095 63.0645L459.595 62.1985L460.095 61.3324L447.965 54.329L447.465 55.195Z" fill="#FF00FF" mask="url(#path-29-inside-5_1565_29407)"/>
<path fill-rule="evenodd" clip-rule="evenodd" d="M450.423 55.4984C450.771 54.1566 450.613 52.6828 449.865 51.3875C448.353 48.7693 445.006 47.8722 442.387 49.3838C439.769 50.8955 438.872 54.2433 440.384 56.8615C441.053 58.0206 442.082 58.8423 443.248 59.2671L443.248 54.8201C443.248 53.2805 444.915 52.3183 446.248 53.0881L450.423 55.4984Z" fill="#FF00FF" fill-opacity="0.4"/>
<path d="M437.973 57.5511L435.866 58.7676" stroke="#FF00FF" stroke-linecap="round"/>
<path d="M453.775 48.4279L451.668 49.6443" stroke="#FF00FF" stroke-linecap="round"/>
<path d="M439.955 45.1699L441.171 47.2769" stroke="#FF00FF" stroke-linecap="round"/>
<defs>
<filter id="filter0_d_1565_29407" x="417" y="68" width="169" height="145" filterUnits="userSpaceOnUse" color-interpolation-filters="sRGB">
<feFlood flood-opacity="0" result="BackgroundImageFix"/>
<feColorMatrix in="SourceAlpha" type="matrix" values="0 0 0 0 0 0 0 0 0 0 0 0 0 0 0 0 0 0 127 0" result="hardAlpha"/>
<feOffset dy="4"/>
<feGaussianBlur stdDeviation="4.5"/>
<feColorMatrix type="matrix" values="0 0 0 0 0.160784 0 0 0 0 0.160784 0 0 0 0 0.160784 0 0 0 0.15 0"/>
<feBlend mode="normal" in2="BackgroundImageFix" result="effect1_dropShadow_1565_29407"/>
<feBlend mode="normal" in="SourceGraphic" in2="effect1_dropShadow_1565_29407" result="shape"/>
</filter>
</defs>
</svg>
