<svg width="895" height="256" viewBox="0 0 895 256" fill="none" xmlns="http://www.w3.org/2000/svg">
<rect width="895" height="256" fill="white"/>
<path d="M17.136 34V22.8H25.392V24.272H18.816V27.632H23.136V29.056H18.816V32.528H25.456V34H17.136ZM26.032 34L29.2 29.824L26.16 25.856H28.032L30.128 28.64L32.224 25.856H34.032L31.024 29.808L34.224 34H32.352L30.096 30.992L27.84 34H26.032ZM37.5513 34.144C36.9646 34.144 36.4473 34.0427 35.9993 33.84C35.5513 33.6267 35.1993 33.3333 34.9433 32.96C34.6873 32.5867 34.5592 32.1547 34.5592 31.664C34.5592 30.896 34.8526 30.2933 35.4393 29.856C36.0259 29.408 36.8313 29.184 37.8553 29.184C38.6553 29.184 39.3966 29.3387 40.0793 29.648V28.784C40.0793 27.6213 39.4179 27.04 38.0953 27.04C37.7219 27.04 37.3326 27.0987 36.9273 27.216C36.5219 27.3227 36.0686 27.4933 35.5673 27.728L34.9753 26.528C35.5939 26.24 36.1699 26.032 36.7033 25.904C37.2366 25.7653 37.7753 25.696 38.3193 25.696C39.3753 25.696 40.1913 25.9467 40.7673 26.448C41.3539 26.9493 41.6473 27.664 41.6473 28.592V34H40.0793V33.296C39.7166 33.584 39.3273 33.7973 38.9113 33.936C38.4953 34.0747 38.0419 34.144 37.5513 34.144ZM36.0953 31.632C36.0953 32.0267 36.2606 32.3467 36.5913 32.592C36.9326 32.8373 37.3753 32.96 37.9193 32.96C38.7939 32.96 39.5139 32.6987 40.0793 32.176V30.8C39.4926 30.4587 38.7939 30.288 37.9833 30.288C37.3966 30.288 36.9326 30.4107 36.5913 30.656C36.2606 30.8907 36.0953 31.216 36.0953 31.632ZM43.4909 34V25.856H45.0909V26.64C45.6989 26.0107 46.4615 25.696 47.3789 25.696C47.9335 25.696 48.4242 25.8187 48.8509 26.064C49.2882 26.3093 49.6349 26.64 49.8909 27.056C50.5629 26.1493 51.4802 25.696 52.6429 25.696C53.2509 25.696 53.7789 25.8293 54.2269 26.096C54.6855 26.3627 55.0429 26.736 55.2989 27.216C55.5655 27.696 55.6989 28.2507 55.6989 28.88V34H54.0989V29.152C54.0989 28.512 53.9282 28.0107 53.5869 27.648C53.2562 27.2747 52.8029 27.088 52.2269 27.088C51.4269 27.088 50.7922 27.456 50.3229 28.192C50.3442 28.2987 50.3602 28.4107 50.3709 28.528C50.3815 28.6453 50.3869 28.7627 50.3869 28.88V34H48.8029V29.152C48.8029 28.512 48.6322 28.0107 48.2909 27.648C47.9602 27.2747 47.5069 27.088 46.9309 27.088C46.1522 27.088 45.5389 27.4187 45.0909 28.08V34H43.4909ZM57.5378 37.264V25.856H59.1218V26.64C59.8044 26.032 60.6364 25.728 61.6178 25.728C62.3858 25.728 63.0791 25.9147 63.6978 26.288C64.3271 26.6613 64.8231 27.1627 65.1858 27.792C65.5484 28.4213 65.7298 29.1307 65.7298 29.92C65.7298 30.7093 65.5431 31.424 65.1698 32.064C64.8071 32.6933 64.3111 33.1947 63.6818 33.568C63.0631 33.9413 62.3644 34.128 61.5858 34.128C61.1378 34.128 60.7058 34.0587 60.2898 33.92C59.8738 33.7707 59.4898 33.5627 59.1378 33.296V37.264H57.5378ZM61.4098 32.736C61.9324 32.736 62.3964 32.6133 62.8018 32.368C63.2178 32.1227 63.5484 31.792 63.7938 31.376C64.0391 30.9493 64.1618 30.4693 64.1618 29.936C64.1618 29.4027 64.0391 28.9227 63.7938 28.496C63.5484 28.0693 63.2178 27.7333 62.8018 27.488C62.3964 27.2427 61.9324 27.12 61.4098 27.12C60.9511 27.12 60.5244 27.2053 60.1298 27.376C59.7351 27.5467 59.4044 27.7867 59.1378 28.096V31.776C59.4044 32.0747 59.7351 32.3093 60.1298 32.48C60.5351 32.6507 60.9618 32.736 61.4098 32.736ZM67.2565 34V22.8L68.8565 22.496V34H67.2565ZM74.6449 34.144C73.8449 34.144 73.1195 33.9573 72.4689 33.584C71.8289 33.2107 71.3169 32.704 70.9329 32.064C70.5595 31.424 70.3729 30.7093 70.3729 29.92C70.3729 29.1413 70.5542 28.4373 70.9169 27.808C71.2795 27.168 71.7702 26.6613 72.3889 26.288C73.0075 25.904 73.6955 25.712 74.4529 25.712C75.2102 25.712 75.8822 25.904 76.4689 26.288C77.0555 26.6613 77.5195 27.1733 77.8609 27.824C78.2129 28.464 78.3889 29.1893 78.3889 30V30.448H71.9729C72.0582 30.896 72.2235 31.296 72.4689 31.648C72.7249 32 73.0449 32.2773 73.4289 32.48C73.8235 32.6827 74.2502 32.784 74.7089 32.784C75.1035 32.784 75.4822 32.7253 75.8449 32.608C76.2182 32.48 76.5275 32.2987 76.7729 32.064L77.7969 33.072C77.3169 33.4347 76.8209 33.7067 76.3089 33.888C75.8075 34.0587 75.2529 34.144 74.6449 34.144ZM71.9889 29.248H76.8049C76.7409 28.8213 76.5915 28.448 76.3569 28.128C76.1329 27.7973 75.8502 27.5413 75.5089 27.36C75.1782 27.168 74.8155 27.072 74.4209 27.072C73.8022 27.072 73.2689 27.2747 72.8209 27.68C72.3835 28.0747 72.1062 28.5973 71.9889 29.248ZM87.1285 34.16C86.3392 34.16 85.6192 33.9733 84.9685 33.6C84.3285 33.2267 83.8218 32.72 83.4485 32.08C83.0752 31.44 82.8885 30.7253 82.8885 29.936C82.8885 29.1467 83.0752 28.432 83.4485 27.792C83.8218 27.152 84.3285 26.6453 84.9685 26.272C85.6192 25.888 86.3392 25.696 87.1285 25.696C87.9285 25.696 88.6485 25.888 89.2885 26.272C89.9285 26.6453 90.4352 27.152 90.8085 27.792C91.1818 28.432 91.3685 29.1467 91.3685 29.936C91.3685 30.7253 91.1818 31.44 90.8085 32.08C90.4352 32.72 89.9285 33.2267 89.2885 33.6C88.6485 33.9733 87.9285 34.16 87.1285 34.16ZM87.1285 32.752C87.6298 32.752 88.0778 32.6293 88.4725 32.384C88.8778 32.128 89.1978 31.7867 89.4325 31.36C89.6778 30.9333 89.8005 30.4587 89.8005 29.936C89.8005 29.4027 89.6832 28.928 89.4485 28.512C89.2138 28.0853 88.8938 27.744 88.4885 27.488C88.0832 27.232 87.6298 27.104 87.1285 27.104C86.6272 27.104 86.1738 27.232 85.7685 27.488C85.3632 27.744 85.0432 28.0853 84.8085 28.512C84.5738 28.928 84.4565 29.4027 84.4565 29.936C84.4565 30.4587 84.5738 30.9333 84.8085 31.36C85.0432 31.7867 85.3632 32.128 85.7685 32.384C86.1738 32.6293 86.6272 32.752 87.1285 32.752ZM93.6288 34V27.2H91.7408V25.856H93.6288V24.624C93.6288 23.7707 93.8634 23.12 94.3328 22.672C94.8128 22.224 95.4954 22 96.3808 22C96.6048 22 96.8128 22.016 97.0048 22.048C97.2074 22.0693 97.3888 22.1067 97.5488 22.16V23.536C97.3568 23.4827 97.1861 23.4453 97.0368 23.424C96.8874 23.392 96.7221 23.376 96.5408 23.376C95.6554 23.376 95.2128 23.808 95.2128 24.672V25.856H97.5488V27.2H95.2128V34H93.6288ZM102.116 34V25.856H103.716V26.64C104.324 26.0107 105.087 25.696 106.004 25.696C106.559 25.696 107.049 25.8187 107.476 26.064C107.913 26.3093 108.26 26.64 108.516 27.056C109.188 26.1493 110.105 25.696 111.268 25.696C111.876 25.696 112.404 25.8293 112.852 26.096C113.311 26.3627 113.668 26.736 113.924 27.216C114.191 27.696 114.324 28.2507 114.324 28.88V34H112.724V29.152C112.724 28.512 112.553 28.0107 112.212 27.648C111.881 27.2747 111.428 27.088 110.852 27.088C110.052 27.088 109.417 27.456 108.948 28.192C108.969 28.2987 108.985 28.4107 108.996 28.528C109.007 28.6453 109.012 28.7627 109.012 28.88V34H107.428V29.152C107.428 28.512 107.257 28.0107 106.916 27.648C106.585 27.2747 106.132 27.088 105.556 27.088C104.777 27.088 104.164 27.4187 103.716 28.08V34H102.116ZM120.035 34.16C119.245 34.16 118.525 33.9733 117.875 33.6C117.235 33.2267 116.728 32.72 116.355 32.08C115.981 31.44 115.795 30.7253 115.795 29.936C115.795 29.1467 115.981 28.432 116.355 27.792C116.728 27.152 117.235 26.6453 117.875 26.272C118.525 25.888 119.245 25.696 120.035 25.696C120.835 25.696 121.555 25.888 122.195 26.272C122.835 26.6453 123.341 27.152 123.715 27.792C124.088 28.432 124.275 29.1467 124.275 29.936C124.275 30.7253 124.088 31.44 123.715 32.08C123.341 32.72 122.835 33.2267 122.195 33.6C121.555 33.9733 120.835 34.16 120.035 34.16ZM120.035 32.752C120.536 32.752 120.984 32.6293 121.379 32.384C121.784 32.128 122.104 31.7867 122.339 31.36C122.584 30.9333 122.707 30.4587 122.707 29.936C122.707 29.4027 122.589 28.928 122.355 28.512C122.12 28.0853 121.8 27.744 121.395 27.488C120.989 27.232 120.536 27.104 120.035 27.104C119.533 27.104 119.08 27.232 118.675 27.488C118.269 27.744 117.949 28.0853 117.715 28.512C117.48 28.928 117.363 29.4027 117.363 29.936C117.363 30.4587 117.48 30.9333 117.715 31.36C117.949 31.7867 118.269 32.128 118.675 32.384C119.08 32.6293 119.533 32.752 120.035 32.752ZM125.788 34V22.8L127.388 22.496V26.624C128.07 26.0267 128.897 25.728 129.868 25.728C130.636 25.728 131.329 25.9147 131.948 26.288C132.577 26.6613 133.073 27.1627 133.436 27.792C133.798 28.4213 133.98 29.1307 133.98 29.92C133.98 30.7093 133.793 31.424 133.42 32.064C133.057 32.6933 132.561 33.1947 131.932 33.568C131.313 33.9413 130.614 34.128 129.836 34.128C128.918 34.128 128.097 33.8507 127.372 33.296V34H125.788ZM129.66 32.736C130.182 32.736 130.646 32.6133 131.052 32.368C131.468 32.1227 131.798 31.792 132.044 31.376C132.289 30.9493 132.412 30.4693 132.412 29.936C132.412 29.4027 132.289 28.9227 132.044 28.496C131.798 28.0693 131.468 27.7333 131.052 27.488C130.646 27.2427 130.182 27.12 129.66 27.12C129.201 27.12 128.774 27.2053 128.38 27.376C127.985 27.5467 127.654 27.7867 127.388 28.096V31.776C127.654 32.0747 127.985 32.3093 128.38 32.48C128.785 32.6507 129.212 32.736 129.66 32.736ZM135.507 34V25.856H137.107V34H135.507ZM136.307 24.544C136.04 24.544 135.811 24.448 135.618 24.256C135.427 24.0533 135.331 23.8187 135.331 23.552C135.331 23.2747 135.427 23.0453 135.618 22.864C135.811 22.672 136.04 22.576 136.307 22.576C136.584 22.576 136.819 22.672 137.011 22.864C137.203 23.0453 137.299 23.2747 137.299 23.552C137.299 23.8187 137.203 24.0533 137.011 24.256C136.819 24.448 136.584 24.544 136.307 24.544ZM138.991 34V22.8L140.591 22.496V34H138.991ZM146.379 34.144C145.579 34.144 144.854 33.9573 144.203 33.584C143.563 33.2107 143.051 32.704 142.667 32.064C142.294 31.424 142.107 30.7093 142.107 29.92C142.107 29.1413 142.289 28.4373 142.651 27.808C143.014 27.168 143.505 26.6613 144.123 26.288C144.742 25.904 145.43 25.712 146.187 25.712C146.945 25.712 147.617 25.904 148.203 26.288C148.79 26.6613 149.254 27.1733 149.595 27.824C149.947 28.464 150.123 29.1893 150.123 30V30.448H143.707C143.793 30.896 143.958 31.296 144.203 31.648C144.459 32 144.779 32.2773 145.163 32.48C145.558 32.6827 145.985 32.784 146.443 32.784C146.838 32.784 147.217 32.7253 147.579 32.608C147.953 32.48 148.262 32.2987 148.507 32.064L149.531 33.072C149.051 33.4347 148.555 33.7067 148.043 33.888C147.542 34.0587 146.987 34.144 146.379 34.144ZM143.723 29.248H148.539C148.475 28.8213 148.326 28.448 148.091 28.128C147.867 27.7973 147.585 27.5413 147.243 27.36C146.913 27.168 146.55 27.072 146.155 27.072C145.537 27.072 145.003 27.2747 144.555 27.68C144.118 28.0747 143.841 28.5973 143.723 29.248ZM158.479 34.144C157.69 34.144 157.087 33.9627 156.671 33.6C156.255 33.2267 156.047 32.688 156.047 31.984V27.2H154.319V25.856H156.047V23.776L157.631 23.392V25.856H160.031V27.2H157.631V31.616C157.631 32.032 157.722 32.3307 157.903 32.512C158.095 32.6827 158.404 32.768 158.831 32.768C159.055 32.768 159.252 32.752 159.423 32.72C159.604 32.688 159.796 32.64 159.999 32.576V33.92C159.786 33.9947 159.535 34.048 159.247 34.08C158.97 34.1227 158.714 34.144 158.479 34.144ZM164.957 34.16C164.167 34.16 163.447 33.9733 162.797 33.6C162.157 33.2267 161.65 32.72 161.277 32.08C160.903 31.44 160.717 30.7253 160.717 29.936C160.717 29.1467 160.903 28.432 161.277 27.792C161.65 27.152 162.157 26.6453 162.797 26.272C163.447 25.888 164.167 25.696 164.957 25.696C165.757 25.696 166.477 25.888 167.117 26.272C167.757 26.6453 168.263 27.152 168.637 27.792C169.01 28.432 169.197 29.1467 169.197 29.936C169.197 30.7253 169.01 31.44 168.637 32.08C168.263 32.72 167.757 33.2267 167.117 33.6C166.477 33.9733 165.757 34.16 164.957 34.16ZM164.957 32.752C165.458 32.752 165.906 32.6293 166.301 32.384C166.706 32.128 167.026 31.7867 167.261 31.36C167.506 30.9333 167.629 30.4587 167.629 29.936C167.629 29.4027 167.511 28.928 167.277 28.512C167.042 28.0853 166.722 27.744 166.317 27.488C165.911 27.232 165.458 27.104 164.957 27.104C164.455 27.104 164.002 27.232 163.597 27.488C163.191 27.744 162.871 28.0853 162.637 28.512C162.402 28.928 162.285 29.4027 162.285 29.936C162.285 30.4587 162.402 30.9333 162.637 31.36C162.871 31.7867 163.191 32.128 163.597 32.384C164.002 32.6293 164.455 32.752 164.957 32.752ZM174.582 34.16C173.792 34.16 173.072 33.9733 172.422 33.6C171.782 33.2267 171.275 32.72 170.902 32.08C170.528 31.44 170.342 30.7253 170.342 29.936C170.342 29.1467 170.528 28.432 170.902 27.792C171.275 27.152 171.782 26.6453 172.422 26.272C173.072 25.888 173.792 25.696 174.582 25.696C175.382 25.696 176.102 25.888 176.742 26.272C177.382 26.6453 177.888 27.152 178.262 27.792C178.635 28.432 178.822 29.1467 178.822 29.936C178.822 30.7253 178.635 31.44 178.262 32.08C177.888 32.72 177.382 33.2267 176.742 33.6C176.102 33.9733 175.382 34.16 174.582 34.16ZM174.582 32.752C175.083 32.752 175.531 32.6293 175.926 32.384C176.331 32.128 176.651 31.7867 176.886 31.36C177.131 30.9333 177.254 30.4587 177.254 29.936C177.254 29.4027 177.136 28.928 176.902 28.512C176.667 28.0853 176.347 27.744 175.942 27.488C175.536 27.232 175.083 27.104 174.582 27.104C174.08 27.104 173.627 27.232 173.222 27.488C172.816 27.744 172.496 28.0853 172.262 28.512C172.027 28.928 171.91 29.4027 171.91 29.936C171.91 30.4587 172.027 30.9333 172.262 31.36C172.496 31.7867 172.816 32.128 173.222 32.384C173.627 32.6293 174.08 32.752 174.582 32.752ZM180.335 34V22.8L181.935 22.496V34H180.335ZM183.819 34V22.8L185.419 22.496V26.624C186.102 26.0267 186.928 25.728 187.899 25.728C188.667 25.728 189.36 25.9147 189.979 26.288C190.608 26.6613 191.104 27.1627 191.467 27.792C191.83 28.4213 192.011 29.1307 192.011 29.92C192.011 30.7093 191.824 31.424 191.451 32.064C191.088 32.6933 190.592 33.1947 189.963 33.568C189.344 33.9413 188.646 34.128 187.867 34.128C186.95 34.128 186.128 33.8507 185.403 33.296V34H183.819ZM187.691 32.736C188.214 32.736 188.678 32.6133 189.083 32.368C189.499 32.1227 189.83 31.792 190.075 31.376C190.32 30.9493 190.443 30.4693 190.443 29.936C190.443 29.4027 190.32 28.9227 190.075 28.496C189.83 28.0693 189.499 27.7333 189.083 27.488C188.678 27.2427 188.214 27.12 187.691 27.12C187.232 27.12 186.806 27.2053 186.411 27.376C186.016 27.5467 185.686 27.7867 185.419 28.096V31.776C185.686 32.0747 186.016 32.3093 186.411 32.48C186.816 32.6507 187.243 32.736 187.691 32.736ZM196.192 34.144C195.605 34.144 195.088 34.0427 194.64 33.84C194.192 33.6267 193.84 33.3333 193.584 32.96C193.328 32.5867 193.2 32.1547 193.2 31.664C193.2 30.896 193.493 30.2933 194.08 29.856C194.667 29.408 195.472 29.184 196.496 29.184C197.296 29.184 198.037 29.3387 198.72 29.648V28.784C198.72 27.6213 198.059 27.04 196.736 27.04C196.363 27.04 195.973 27.0987 195.568 27.216C195.163 27.3227 194.709 27.4933 194.208 27.728L193.616 26.528C194.235 26.24 194.811 26.032 195.344 25.904C195.877 25.7653 196.416 25.696 196.96 25.696C198.016 25.696 198.832 25.9467 199.408 26.448C199.995 26.9493 200.288 27.664 200.288 28.592V34H198.72V33.296C198.357 33.584 197.968 33.7973 197.552 33.936C197.136 34.0747 196.683 34.144 196.192 34.144ZM194.736 31.632C194.736 32.0267 194.901 32.3467 195.232 32.592C195.573 32.8373 196.016 32.96 196.56 32.96C197.435 32.96 198.155 32.6987 198.72 32.176V30.8C198.133 30.4587 197.435 30.288 196.624 30.288C196.037 30.288 195.573 30.4107 195.232 30.656C194.901 30.8907 194.736 31.216 194.736 31.632ZM202.132 34V25.856H203.732V26.896C203.988 26.512 204.302 26.2133 204.676 26C205.06 25.776 205.492 25.664 205.972 25.664C206.302 25.6747 206.574 25.7227 206.788 25.808V27.248C206.478 27.1307 206.164 27.072 205.844 27.072C205.374 27.072 204.958 27.2 204.596 27.456C204.233 27.7013 203.945 28.064 203.732 28.544V34H202.132ZM215.157 34.128C214.399 34.128 213.706 33.9413 213.077 33.568C212.447 33.1947 211.951 32.6933 211.589 32.064C211.226 31.424 211.045 30.7093 211.045 29.92C211.045 29.1307 211.226 28.4213 211.589 27.792C211.962 27.1627 212.463 26.6613 213.093 26.288C213.722 25.9147 214.421 25.728 215.189 25.728C216.106 25.728 216.922 26 217.637 26.544V22.8L219.237 22.496V34H217.653V33.216C216.959 33.824 216.127 34.128 215.157 34.128ZM215.365 32.736C215.834 32.736 216.261 32.6507 216.645 32.48C217.039 32.3093 217.37 32.064 217.637 31.744V28.08C217.37 27.7813 217.039 27.5467 216.645 27.376C216.25 27.1947 215.823 27.104 215.365 27.104C214.853 27.104 214.389 27.2267 213.973 27.472C213.557 27.7173 213.226 28.0533 212.981 28.48C212.735 28.896 212.613 29.3707 212.613 29.904C212.613 30.4373 212.735 30.9173 212.981 31.344C213.226 31.7707 213.557 32.112 213.973 32.368C214.389 32.6133 214.853 32.736 215.365 32.736ZM221.132 34V25.856H222.732V34H221.132ZM221.932 24.544C221.665 24.544 221.436 24.448 221.243 24.256C221.052 24.0533 220.956 23.8187 220.956 23.552C220.956 23.2747 221.052 23.0453 221.243 22.864C221.436 22.672 221.665 22.576 221.932 22.576C222.209 22.576 222.444 22.672 222.636 22.864C222.828 23.0453 222.924 23.2747 222.924 23.552C222.924 23.8187 222.828 24.0533 222.636 24.256C222.444 24.448 222.209 24.544 221.932 24.544ZM227.416 34.16C226.712 34.16 226.051 34.0587 225.432 33.856C224.824 33.6427 224.296 33.344 223.848 32.96L224.728 31.904C225.144 32.2347 225.571 32.4907 226.008 32.672C226.456 32.8427 226.909 32.928 227.368 32.928C227.944 32.928 228.413 32.816 228.776 32.592C229.139 32.368 229.32 32.0747 229.32 31.712C229.32 31.136 228.883 30.784 228.008 30.656L226.536 30.448C225.725 30.3307 225.117 30.08 224.712 29.696C224.307 29.312 224.104 28.8 224.104 28.16C224.104 27.6693 224.237 27.2427 224.504 26.88C224.771 26.5067 225.144 26.2187 225.624 26.016C226.104 25.8027 226.664 25.696 227.304 25.696C227.891 25.696 228.456 25.7813 229 25.952C229.544 26.1227 230.067 26.3893 230.568 26.752L229.752 27.808C228.867 27.232 228.008 26.944 227.176 26.944C226.685 26.944 226.291 27.0507 225.992 27.264C225.693 27.4667 225.544 27.7333 225.544 28.064C225.544 28.3627 225.645 28.5973 225.848 28.768C226.061 28.928 226.408 29.04 226.888 29.104L228.36 29.312C229.171 29.4293 229.784 29.68 230.2 30.064C230.616 30.4373 230.824 30.944 230.824 31.584C230.824 32.0747 230.675 32.5173 230.376 32.912C230.077 33.296 229.672 33.6 229.16 33.824C228.648 34.048 228.067 34.16 227.416 34.16ZM232.053 37.264V25.856H233.637V26.64C234.32 26.032 235.152 25.728 236.133 25.728C236.901 25.728 237.595 25.9147 238.213 26.288C238.843 26.6613 239.339 27.1627 239.701 27.792C240.064 28.4213 240.245 29.1307 240.245 29.92C240.245 30.7093 240.059 31.424 239.685 32.064C239.323 32.6933 238.827 33.1947 238.197 33.568C237.579 33.9413 236.88 34.128 236.101 34.128C235.653 34.128 235.221 34.0587 234.805 33.92C234.389 33.7707 234.005 33.5627 233.653 33.296V37.264H232.053ZM235.925 32.736C236.448 32.736 236.912 32.6133 237.317 32.368C237.733 32.1227 238.064 31.792 238.309 31.376C238.555 30.9493 238.677 30.4693 238.677 29.936C238.677 29.4027 238.555 28.9227 238.309 28.496C238.064 28.0693 237.733 27.7333 237.317 27.488C236.912 27.2427 236.448 27.12 235.925 27.12C235.467 27.12 235.04 27.2053 234.645 27.376C234.251 27.5467 233.92 27.7867 233.653 28.096V31.776C233.92 32.0747 234.251 32.3093 234.645 32.48C235.051 32.6507 235.477 32.736 235.925 32.736ZM241.772 34V22.8L243.372 22.496V34H241.772ZM247.833 34.144C247.246 34.144 246.729 34.0427 246.281 33.84C245.833 33.6267 245.481 33.3333 245.225 32.96C244.969 32.5867 244.84 32.1547 244.84 31.664C244.84 30.896 245.134 30.2933 245.721 29.856C246.307 29.408 247.113 29.184 248.137 29.184C248.937 29.184 249.678 29.3387 250.361 29.648V28.784C250.361 27.6213 249.699 27.04 248.377 27.04C248.003 27.04 247.614 27.0987 247.209 27.216C246.803 27.3227 246.35 27.4933 245.849 27.728L245.257 26.528C245.875 26.24 246.451 26.032 246.985 25.904C247.518 25.7653 248.057 25.696 248.601 25.696C249.657 25.696 250.473 25.9467 251.049 26.448C251.635 26.9493 251.929 27.664 251.929 28.592V34H250.361V33.296C249.998 33.584 249.609 33.7973 249.193 33.936C248.777 34.0747 248.323 34.144 247.833 34.144ZM246.377 31.632C246.377 32.0267 246.542 32.3467 246.873 32.592C247.214 32.8373 247.657 32.96 248.201 32.96C249.075 32.96 249.795 32.6987 250.361 32.176V30.8C249.774 30.4587 249.075 30.288 248.265 30.288C247.678 30.288 247.214 30.4107 246.873 30.656C246.542 30.8907 246.377 31.216 246.377 31.632ZM254.16 37.44C253.989 37.44 253.829 37.4293 253.68 37.408C253.531 37.3973 253.408 37.376 253.312 37.344V35.936C253.504 35.9787 253.739 36 254.016 36C254.763 36 255.301 35.6 255.632 34.8L255.984 34.016L252.72 25.856H254.496L256.864 32.064L259.488 25.856H261.216L257.28 35.008C257.024 35.584 256.752 36.048 256.464 36.4C256.176 36.7627 255.845 37.024 255.472 37.184C255.099 37.3547 254.661 37.44 254.16 37.44Z" fill="#151515"/>
<mask id="path-2-inside-1_1565_29407" fill="white">
<path d="M16 56H879V125H16V56Z"/>
</mask>
<path d="M16 56H879V125H16V56Z" fill="white"/>
<path d="M879 125V124H16V125V126H879V125Z" fill="#C7C7C7" mask="url(#path-2-inside-1_1565_29407)"/>
<mask id="path-4-inside-2_1565_29407" fill="white">
<path d="M32 78C32 74.6863 34.6863 72 38 72H149C152.314 72 155 74.6863 155 78V103C155 106.314 152.314 109 149 109H38C34.6863 109 32 106.314 32 103V78Z"/>
</mask>
<path d="M32 78C32 74.6863 34.6863 72 38 72H149C152.314 72 155 74.6863 155 78V103C155 106.314 152.314 109 149 109H38C34.6863 109 32 106.314 32 103V78Z" fill="white"/>
<path d="M38 72V73H149V72V71H38V72ZM155 78H154V103H155H156V78H155ZM149 109V108H38V109V110H149V109ZM32 103H33V78H32H31V103H32ZM38 109V108C35.2386 108 33 105.761 33 103H32H31C31 106.866 34.134 110 38 110V109ZM155 103H154C154 105.761 151.761 108 149 108V109V110C152.866 110 156 106.866 156 103H155ZM149 72V73C151.761 73 154 75.2386 154 78H155H156C156 74.134 152.866 71 149 71V72ZM38 72V71C34.134 71 31 74.134 31 78H32H33C33 75.2386 35.2386 73 38 73V72Z" fill="#C7C7C7" mask="url(#path-4-inside-2_1565_29407)"/>
<mask id="path-6-inside-3_1565_29407" fill="white">
<path d="M48 86.5C48 84.2909 49.7909 82.5 52 82.5H60C62.2091 82.5 64 84.2909 64 86.5V94.5C64 96.7091 62.2091 98.5 60 98.5H52C49.7909 98.5 48 96.7091 48 94.5V86.5Z"/>
</mask>
<path d="M48 86.5C48 84.2909 49.7909 82.5 52 82.5H60C62.2091 82.5 64 84.2909 64 86.5V94.5C64 96.7091 62.2091 98.5 60 98.5H52C49.7909 98.5 48 96.7091 48 94.5V86.5Z" fill="white"/>
<path d="M52 82.5V83.5H60V82.5V81.5H52V82.5ZM64 86.5H63V94.5H64H65V86.5H64ZM60 98.5V97.5H52V98.5V99.5H60V98.5ZM48 94.5H49V86.5H48H47V94.5H48ZM52 98.5V97.5C50.3431 97.5 49 96.1569 49 94.5H48H47C47 97.2614 49.2386 99.5 52 99.5V98.5ZM64 94.5H63C63 96.1569 61.6569 97.5 60 97.5V98.5V99.5C62.7614 99.5 65 97.2614 65 94.5H64ZM60 82.5V83.5C61.6569 83.5 63 84.8431 63 86.5H64H65C65 83.7386 62.7614 81.5 60 81.5V82.5ZM52 82.5V81.5C49.2386 81.5 47 83.7386 47 86.5H48H49C49 84.8431 50.3431 83.5 52 83.5V82.5Z" fill="#C7C7C7" mask="url(#path-6-inside-3_1565_29407)"/>
<path d="M73.246 95V85.2H74.366L80.106 93.32L80.078 85.2H81.1V95H80.12L74.24 86.698L74.268 95H73.246ZM85.3769 95.126C84.8916 95.126 84.4622 95.0373 84.0889 94.86C83.7156 94.6827 83.4216 94.44 83.2069 94.132C83.0016 93.8147 82.8989 93.4507 82.8989 93.04C82.8989 92.6293 83.0062 92.2747 83.2209 91.976C83.4356 91.668 83.7342 91.43 84.1169 91.262C84.4996 91.094 84.9476 91.01 85.4609 91.01C85.8529 91.01 86.2216 91.052 86.5669 91.136C86.9216 91.22 87.2482 91.3553 87.5469 91.542V90.604C87.5469 90.044 87.3976 89.624 87.0989 89.344C86.8002 89.0547 86.3616 88.91 85.7829 88.91C85.4656 88.91 85.1389 88.9567 84.8029 89.05C84.4762 89.1433 84.1122 89.2927 83.7109 89.498L83.3329 88.714C84.2476 88.2753 85.1062 88.056 85.9089 88.056C86.7582 88.056 87.4116 88.266 87.8689 88.686C88.3262 89.0967 88.5549 89.6893 88.5549 90.464V95H87.5469V94.202C87.2482 94.51 86.9169 94.7433 86.5529 94.902C86.1889 95.0513 85.7969 95.126 85.3769 95.126ZM83.8789 93.012C83.8789 93.4133 84.0329 93.7353 84.3409 93.978C84.6582 94.2207 85.0736 94.342 85.5869 94.342C85.9696 94.342 86.3196 94.2767 86.6369 94.146C86.9636 94.0153 87.2669 93.8193 87.5469 93.558V92.242C87.2576 92.074 86.9589 91.9527 86.6509 91.878C86.3429 91.794 85.9976 91.752 85.6149 91.752C85.0922 91.752 84.6722 91.8687 84.3549 92.102C84.0376 92.326 83.8789 92.6293 83.8789 93.012ZM90.632 95V88.168H91.654V89.232C91.9154 88.84 92.214 88.546 92.55 88.35C92.886 88.154 93.264 88.056 93.684 88.056C94.1694 88.056 94.594 88.1773 94.958 88.42C95.322 88.6533 95.5974 88.9753 95.784 89.386C96.0547 88.9473 96.3767 88.616 96.75 88.392C97.1327 88.168 97.5714 88.056 98.066 88.056C98.5234 88.056 98.9247 88.1633 99.27 88.378C99.6247 88.5927 99.9 88.8913 100.096 89.274C100.292 89.6473 100.39 90.086 100.39 90.59V95H99.368V90.842C99.368 90.2447 99.2187 89.7733 98.92 89.428C98.6214 89.0827 98.2107 88.91 97.688 88.91C97.3334 88.91 97.0114 88.9987 96.722 89.176C96.442 89.3533 96.1947 89.624 95.98 89.988C95.9987 90.0813 96.0127 90.1793 96.022 90.282C96.0314 90.3847 96.036 90.4873 96.036 90.59V95H95.014V90.842C95.014 90.2447 94.86 89.7733 94.552 89.428C94.2534 89.0827 93.8427 88.91 93.32 88.91C92.62 88.91 92.0647 89.246 91.654 89.918V95H90.632ZM105.538 95.14C104.904 95.14 104.33 94.986 103.816 94.678C103.303 94.3607 102.897 93.936 102.598 93.404C102.3 92.8627 102.15 92.256 102.15 91.584C102.15 90.912 102.29 90.31 102.57 89.778C102.86 89.246 103.247 88.826 103.732 88.518C104.218 88.21 104.759 88.056 105.356 88.056C105.963 88.056 106.5 88.21 106.966 88.518C107.442 88.8167 107.816 89.2273 108.086 89.75C108.366 90.2633 108.506 90.8467 108.506 91.5V91.808H103.144C103.182 92.2747 103.308 92.6947 103.522 93.068C103.746 93.432 104.036 93.7213 104.39 93.936C104.754 94.1413 105.151 94.244 105.58 94.244C105.935 94.244 106.276 94.1833 106.602 94.062C106.938 93.9313 107.223 93.7587 107.456 93.544L108.1 94.23C107.708 94.538 107.302 94.7667 106.882 94.916C106.462 95.0653 106.014 95.14 105.538 95.14ZM103.172 91.08H107.498C107.452 90.6693 107.326 90.3053 107.12 89.988C106.924 89.6613 106.672 89.4047 106.364 89.218C106.066 89.0313 105.73 88.938 105.356 88.938C104.983 88.938 104.642 89.0313 104.334 89.218C104.026 89.3953 103.77 89.6473 103.564 89.974C103.368 90.2913 103.238 90.66 103.172 91.08Z" fill="#151515"/>
<path d="M132.534 88.667C133.023 88.6672 133.267 89.2618 132.921 89.6104L129.389 93.1719C129.174 93.3874 128.825 93.3875 128.611 93.1719L125.079 89.6104C124.733 89.2617 124.978 88.667 125.467 88.667H132.534Z" fill="#1F1F1F"/>
<path d="M171 90.5C171 80.2827 179.283 72 189.5 72H243.5C253.717 72 262 80.2827 262 90.5V90.5C262 100.717 253.717 109 243.5 109H189.5C179.283 109 171 100.717 171 90.5V90.5Z" fill="#0066CC"/>
<path d="M200.768 95.154C200.068 95.154 199.415 95.028 198.808 94.776C198.211 94.5147 197.683 94.1553 197.226 93.698C196.769 93.2313 196.414 92.6947 196.162 92.088C195.91 91.472 195.784 90.8093 195.784 90.1C195.784 89.3907 195.91 88.7327 196.162 88.126C196.414 87.51 196.769 86.9733 197.226 86.516C197.683 86.0493 198.211 85.69 198.808 85.438C199.415 85.1767 200.068 85.046 200.768 85.046C201.253 85.046 201.715 85.1113 202.154 85.242C202.602 85.3633 203.022 85.5453 203.414 85.788C203.806 86.0213 204.156 86.3107 204.464 86.656L203.75 87.398C203.386 86.9593 202.938 86.6233 202.406 86.39C201.883 86.1473 201.337 86.026 200.768 86.026C200.217 86.026 199.704 86.1287 199.228 86.334C198.752 86.5393 198.337 86.8287 197.982 87.202C197.637 87.5753 197.366 88.0093 197.17 88.504C196.974 88.9893 196.876 89.5213 196.876 90.1C196.876 90.6693 196.974 91.2013 197.17 91.696C197.366 92.1907 197.637 92.6247 197.982 92.998C198.337 93.3713 198.752 93.6607 199.228 93.866C199.704 94.0713 200.217 94.174 200.768 94.174C201.337 94.174 201.883 94.0527 202.406 93.81C202.938 93.5673 203.386 93.2313 203.75 92.802L204.464 93.544C204.156 93.8893 203.806 94.1833 203.414 94.426C203.022 94.6593 202.602 94.8413 202.154 94.972C201.715 95.0933 201.253 95.154 200.768 95.154ZM206.208 95V88.168H207.23V89.568C207.408 89.092 207.66 88.7233 207.986 88.462C208.322 88.1913 208.705 88.056 209.134 88.056C209.256 88.056 209.368 88.0653 209.47 88.084C209.573 88.0933 209.676 88.1167 209.778 88.154V89.078C209.666 89.0407 209.545 89.0127 209.414 88.994C209.293 88.966 209.176 88.952 209.064 88.952C208.644 88.952 208.276 89.0733 207.958 89.316C207.65 89.5587 207.408 89.8993 207.23 90.338V95H206.208ZM213.786 95.14C213.152 95.14 212.578 94.986 212.064 94.678C211.551 94.3607 211.145 93.936 210.846 93.404C210.548 92.8627 210.398 92.256 210.398 91.584C210.398 90.912 210.538 90.31 210.818 89.778C211.108 89.246 211.495 88.826 211.98 88.518C212.466 88.21 213.007 88.056 213.604 88.056C214.211 88.056 214.748 88.21 215.214 88.518C215.69 88.8167 216.064 89.2273 216.334 89.75C216.614 90.2633 216.754 90.8467 216.754 91.5V91.808H211.392C211.43 92.2747 211.556 92.6947 211.77 93.068C211.994 93.432 212.284 93.7213 212.638 93.936C213.002 94.1413 213.399 94.244 213.828 94.244C214.183 94.244 214.524 94.1833 214.85 94.062C215.186 93.9313 215.471 93.7587 215.704 93.544L216.348 94.23C215.956 94.538 215.55 94.7667 215.13 94.916C214.71 95.0653 214.262 95.14 213.786 95.14ZM211.42 91.08H215.746C215.7 90.6693 215.574 90.3053 215.368 89.988C215.172 89.6613 214.92 89.4047 214.612 89.218C214.314 89.0313 213.978 88.938 213.604 88.938C213.231 88.938 212.89 89.0313 212.582 89.218C212.274 89.3953 212.018 89.6473 211.812 89.974C211.616 90.2913 211.486 90.66 211.42 91.08ZM220.477 95.126C219.991 95.126 219.562 95.0373 219.189 94.86C218.815 94.6827 218.521 94.44 218.307 94.132C218.101 93.8147 217.999 93.4507 217.999 93.04C217.999 92.6293 218.106 92.2747 218.321 91.976C218.535 91.668 218.834 91.43 219.217 91.262C219.599 91.094 220.047 91.01 220.561 91.01C220.953 91.01 221.321 91.052 221.667 91.136C222.021 91.22 222.348 91.3553 222.647 91.542V90.604C222.647 90.044 222.497 89.624 222.199 89.344C221.9 89.0547 221.461 88.91 220.883 88.91C220.565 88.91 220.239 88.9567 219.903 89.05C219.576 89.1433 219.212 89.2927 218.811 89.498L218.433 88.714C219.347 88.2753 220.206 88.056 221.008 88.056C221.858 88.056 222.511 88.266 222.969 88.686C223.426 89.0967 223.655 89.6893 223.655 90.464V95H222.647V94.202C222.348 94.51 222.017 94.7433 221.653 94.902C221.289 95.0513 220.897 95.126 220.477 95.126ZM218.979 93.012C218.979 93.4133 219.133 93.7353 219.441 93.978C219.758 94.2207 220.173 94.342 220.687 94.342C221.069 94.342 221.419 94.2767 221.737 94.146C222.063 94.0153 222.367 93.8193 222.647 93.558V92.242C222.357 92.074 222.059 91.9527 221.751 91.878C221.443 91.794 221.097 91.752 220.715 91.752C220.192 91.752 219.772 91.8687 219.455 92.102C219.137 92.326 218.979 92.6293 218.979 93.012ZM228.131 95.14C227.543 95.14 227.095 95 226.787 94.72C226.488 94.4307 226.339 94.0153 226.339 93.474V89.008H224.925V88.168H226.339V86.292L227.361 86.054V88.168H229.321V89.008H227.361V93.208C227.361 93.572 227.435 93.8333 227.585 93.992C227.743 94.1507 228 94.23 228.355 94.23C228.532 94.23 228.691 94.216 228.831 94.188C228.971 94.16 229.134 94.1133 229.321 94.048V94.958C229.134 95.0233 228.938 95.07 228.733 95.098C228.527 95.126 228.327 95.14 228.131 95.14ZM233.761 95.14C233.126 95.14 232.552 94.986 232.039 94.678C231.526 94.3607 231.12 93.936 230.821 93.404C230.522 92.8627 230.373 92.256 230.373 91.584C230.373 90.912 230.513 90.31 230.793 89.778C231.082 89.246 231.47 88.826 231.955 88.518C232.44 88.21 232.982 88.056 233.579 88.056C234.186 88.056 234.722 88.21 235.189 88.518C235.665 88.8167 236.038 89.2273 236.309 89.75C236.589 90.2633 236.729 90.8467 236.729 91.5V91.808H231.367C231.404 92.2747 231.53 92.6947 231.745 93.068C231.969 93.432 232.258 93.7213 232.613 93.936C232.977 94.1413 233.374 94.244 233.803 94.244C234.158 94.244 234.498 94.1833 234.825 94.062C235.161 93.9313 235.446 93.7587 235.679 93.544L236.323 94.23C235.931 94.538 235.525 94.7667 235.105 94.916C234.685 95.0653 234.237 95.14 233.761 95.14ZM231.395 91.08H235.721C235.674 90.6693 235.548 90.3053 235.343 89.988C235.147 89.6613 234.895 89.4047 234.587 89.218C234.288 89.0313 233.952 88.938 233.579 88.938C233.206 88.938 232.865 89.0313 232.557 89.218C232.249 89.3953 231.992 89.6473 231.787 89.974C231.591 90.2913 231.46 90.66 231.395 91.08Z" fill="white"/>
<mask id="path-12-inside-4_1565_29407" fill="white">
<path d="M270 90.5C270 80.2827 278.283 72 288.5 72H381.5C391.717 72 400 80.2827 400 90.5V90.5C400 100.717 391.717 109 381.5 109H288.5C278.283 109 270 100.717 270 90.5V90.5Z"/>
</mask>
<path d="M288.5 72V73H381.5V72V71H288.5V72ZM381.5 109V108H288.5V109V110H381.5V109ZM288.5 109V108C278.835 108 271 100.165 271 90.5H270H269C269 101.27 277.73 110 288.5 110V109ZM400 90.5H399C399 100.165 391.165 108 381.5 108V109V110C392.27 110 401 101.27 401 90.5H400ZM381.5 72V73C391.165 73 399 80.835 399 90.5H400H401C401 79.7304 392.27 71 381.5 71V72ZM288.5 72V71C277.73 71 269 79.7304 269 90.5H270H271C271 80.835 278.835 73 288.5 73V72Z" fill="#0066CC" mask="url(#path-12-inside-4_1565_29407)"/>
<path d="M295.232 95V85.2H296.31V89.582H301.938V85.2H303.016V95H301.938V90.548H296.31V95H295.232ZM308.384 95.14C307.749 95.14 307.175 94.986 306.662 94.678C306.149 94.3607 305.743 93.936 305.444 93.404C305.145 92.8627 304.996 92.256 304.996 91.584C304.996 90.912 305.136 90.31 305.416 89.778C305.705 89.246 306.093 88.826 306.578 88.518C307.063 88.21 307.605 88.056 308.202 88.056C308.809 88.056 309.345 88.21 309.812 88.518C310.288 88.8167 310.661 89.2273 310.932 89.75C311.212 90.2633 311.352 90.8467 311.352 91.5V91.808H305.99C306.027 92.2747 306.153 92.6947 306.368 93.068C306.592 93.432 306.881 93.7213 307.236 93.936C307.6 94.1413 307.997 94.244 308.426 94.244C308.781 94.244 309.121 94.1833 309.448 94.062C309.784 93.9313 310.069 93.7587 310.302 93.544L310.946 94.23C310.554 94.538 310.148 94.7667 309.728 94.916C309.308 95.0653 308.86 95.14 308.384 95.14ZM306.018 91.08H310.344C310.297 90.6693 310.171 90.3053 309.966 89.988C309.77 89.6613 309.518 89.4047 309.21 89.218C308.911 89.0313 308.575 88.938 308.202 88.938C307.829 88.938 307.488 89.0313 307.18 89.218C306.872 89.3953 306.615 89.6473 306.41 89.974C306.214 90.2913 306.083 90.66 306.018 91.08ZM315.074 95.126C314.589 95.126 314.159 95.0373 313.786 94.86C313.413 94.6827 313.119 94.44 312.904 94.132C312.699 93.8147 312.596 93.4507 312.596 93.04C312.596 92.6293 312.703 92.2747 312.918 91.976C313.133 91.668 313.431 91.43 313.814 91.262C314.197 91.094 314.645 91.01 315.158 91.01C315.55 91.01 315.919 91.052 316.264 91.136C316.619 91.22 316.945 91.3553 317.244 91.542V90.604C317.244 90.044 317.095 89.624 316.796 89.344C316.497 89.0547 316.059 88.91 315.48 88.91C315.163 88.91 314.836 88.9567 314.5 89.05C314.173 89.1433 313.809 89.2927 313.408 89.498L313.03 88.714C313.945 88.2753 314.803 88.056 315.606 88.056C316.455 88.056 317.109 88.266 317.566 88.686C318.023 89.0967 318.252 89.6893 318.252 90.464V95H317.244V94.202C316.945 94.51 316.614 94.7433 316.25 94.902C315.886 95.0513 315.494 95.126 315.074 95.126ZM313.576 93.012C313.576 93.4133 313.73 93.7353 314.038 93.978C314.355 94.2207 314.771 94.342 315.284 94.342C315.667 94.342 316.017 94.2767 316.334 94.146C316.661 94.0153 316.964 93.8193 317.244 93.558V92.242C316.955 92.074 316.656 91.9527 316.348 91.878C316.04 91.794 315.695 91.752 315.312 91.752C314.789 91.752 314.369 91.8687 314.052 92.102C313.735 92.326 313.576 92.6293 313.576 93.012ZM320.329 95V84.892L321.351 84.682V95H320.329ZM326.05 95.14C325.462 95.14 325.014 95 324.706 94.72C324.408 94.4307 324.258 94.0153 324.258 93.474V89.008H322.844V88.168H324.258V86.292L325.28 86.054V88.168H327.24V89.008H325.28V93.208C325.28 93.572 325.355 93.8333 325.504 93.992C325.663 94.1507 325.92 94.23 326.274 94.23C326.452 94.23 326.61 94.216 326.75 94.188C326.89 94.16 327.054 94.1133 327.24 94.048V94.958C327.054 95.0233 326.858 95.07 326.652 95.098C326.447 95.126 326.246 95.14 326.05 95.14ZM328.738 95V84.892L329.76 84.682V89.274C330.021 88.8633 330.334 88.56 330.698 88.364C331.062 88.1587 331.472 88.056 331.93 88.056C332.424 88.056 332.854 88.1633 333.218 88.378C333.591 88.5833 333.88 88.8773 334.086 89.26C334.3 89.6333 334.408 90.072 334.408 90.576V95H333.386V90.87C333.386 90.2633 333.218 89.7873 332.882 89.442C332.555 89.0873 332.112 88.91 331.552 88.91C331.178 88.91 330.838 88.9987 330.53 89.176C330.222 89.3533 329.965 89.6147 329.76 89.96V95H328.738ZM342.796 95.112C342.161 95.112 341.587 94.958 341.074 94.65C340.57 94.3327 340.168 93.908 339.87 93.376C339.571 92.8347 339.422 92.2373 339.422 91.584C339.422 90.9213 339.571 90.324 339.87 89.792C340.168 89.26 340.57 88.84 341.074 88.532C341.587 88.2147 342.161 88.056 342.796 88.056C343.3 88.056 343.78 88.1493 344.238 88.336C344.695 88.5227 345.092 88.784 345.428 89.12L344.77 89.834C344.527 89.5633 344.233 89.3533 343.888 89.204C343.542 89.0547 343.192 88.98 342.838 88.98C342.39 88.98 341.984 89.0967 341.62 89.33C341.265 89.5633 340.98 89.876 340.766 90.268C340.551 90.66 340.444 91.0987 340.444 91.584C340.444 92.0693 340.551 92.508 340.766 92.9C340.98 93.292 341.265 93.6047 341.62 93.838C341.984 94.0713 342.39 94.188 342.838 94.188C343.192 94.188 343.542 94.1133 343.888 93.964C344.233 93.8053 344.527 93.5953 344.77 93.334L345.428 94.048C345.092 94.384 344.695 94.6453 344.238 94.832C343.78 95.0187 343.3 95.112 342.796 95.112ZM346.853 95V84.892L347.875 84.682V89.274C348.136 88.8633 348.449 88.56 348.813 88.364C349.177 88.1587 349.587 88.056 350.045 88.056C350.539 88.056 350.969 88.1633 351.333 88.378C351.706 88.5833 351.995 88.8773 352.201 89.26C352.415 89.6333 352.523 90.072 352.523 90.576V95H351.501V90.87C351.501 90.2633 351.333 89.7873 350.997 89.442C350.67 89.0873 350.227 88.91 349.667 88.91C349.293 88.91 348.953 88.9987 348.645 89.176C348.337 89.3533 348.08 89.6147 347.875 89.96V95H346.853ZM357.657 95.14C357.023 95.14 356.449 94.986 355.935 94.678C355.422 94.3607 355.016 93.936 354.717 93.404C354.419 92.8627 354.269 92.256 354.269 91.584C354.269 90.912 354.409 90.31 354.689 89.778C354.979 89.246 355.366 88.826 355.851 88.518C356.337 88.21 356.878 88.056 357.475 88.056C358.082 88.056 358.619 88.21 359.085 88.518C359.561 88.8167 359.935 89.2273 360.205 89.75C360.485 90.2633 360.625 90.8467 360.625 91.5V91.808H355.263C355.301 92.2747 355.427 92.6947 355.641 93.068C355.865 93.432 356.155 93.7213 356.509 93.936C356.873 94.1413 357.27 94.244 357.699 94.244C358.054 94.244 358.395 94.1833 358.721 94.062C359.057 93.9313 359.342 93.7587 359.575 93.544L360.219 94.23C359.827 94.538 359.421 94.7667 359.001 94.916C358.581 95.0653 358.133 95.14 357.657 95.14ZM355.291 91.08H359.617C359.571 90.6693 359.445 90.3053 359.239 89.988C359.043 89.6613 358.791 89.4047 358.483 89.218C358.185 89.0313 357.849 88.938 357.475 88.938C357.102 88.938 356.761 89.0313 356.453 89.218C356.145 89.3953 355.889 89.6473 355.683 89.974C355.487 90.2913 355.357 90.66 355.291 91.08ZM365.436 95.112C364.802 95.112 364.228 94.958 363.714 94.65C363.21 94.3327 362.809 93.908 362.51 93.376C362.212 92.8347 362.062 92.2373 362.062 91.584C362.062 90.9213 362.212 90.324 362.51 89.792C362.809 89.26 363.21 88.84 363.714 88.532C364.228 88.2147 364.802 88.056 365.436 88.056C365.94 88.056 366.421 88.1493 366.878 88.336C367.336 88.5227 367.732 88.784 368.068 89.12L367.41 89.834C367.168 89.5633 366.874 89.3533 366.528 89.204C366.183 89.0547 365.833 88.98 365.478 88.98C365.03 88.98 364.624 89.0967 364.26 89.33C363.906 89.5633 363.621 89.876 363.406 90.268C363.192 90.66 363.084 91.0987 363.084 91.584C363.084 92.0693 363.192 92.508 363.406 92.9C363.621 93.292 363.906 93.6047 364.26 93.838C364.624 94.0713 365.03 94.188 365.478 94.188C365.833 94.188 366.183 94.1133 366.528 93.964C366.874 93.8053 367.168 93.5953 367.41 93.334L368.068 94.048C367.732 94.384 367.336 94.6453 366.878 94.832C366.421 95.0187 365.94 95.112 365.436 95.112ZM369.493 95V84.892L370.515 84.682V91.234L373.763 88.168H374.995L371.523 91.416L375.149 95H373.805L370.515 91.738V95H369.493Z" fill="#0066CC"/>
<path d="M416 81.5C416 78.1863 418.686 75.5 422 75.5H440C443.314 75.5 446 78.1863 446 81.5V99.5C446 102.814 443.314 105.5 440 105.5H422C418.686 105.5 416 102.814 416 99.5V81.5Z" fill="#C7C7C7" fill-opacity="0.25"/>
<path d="M431.292 93.4355C432.42 93.4357 433.333 94.3445 433.333 95.4678C433.333 96.591 432.42 97.4998 431.292 97.5C430.163 97.5 429.25 96.5911 429.25 95.4678C429.25 94.3444 430.163 93.4355 431.292 93.4355ZM431.292 88.4678C432.42 88.4679 433.333 89.3767 433.333 90.5C433.333 91.6233 432.42 92.5321 431.292 92.5322C430.163 92.5322 429.25 91.6234 429.25 90.5C429.25 89.3766 430.163 88.4678 431.292 88.4678ZM431.292 83.5C432.42 83.5002 433.333 84.409 433.333 85.5322C433.333 86.6555 432.42 87.5643 431.292 87.5645C430.163 87.5645 429.25 86.6556 429.25 85.5322C429.25 84.4089 430.163 83.5 431.292 83.5Z" fill="#1F1F1F"/>
<path d="M646.254 95V86.81L644.518 87.552V86.194L646.814 85.2H647.78V95H646.254ZM652.714 91.696V90.352H657.6V91.696H652.714ZM662.255 95V93.894L666.273 89.694C666.516 89.442 666.702 89.2133 666.833 89.008C666.973 88.8027 667.071 88.6067 667.127 88.42C667.192 88.224 667.225 88.0233 667.225 87.818C667.225 87.4073 667.057 87.0667 666.721 86.796C666.385 86.5253 665.96 86.39 665.447 86.39C664.999 86.39 664.579 86.4787 664.187 86.656C663.795 86.8333 663.366 87.1413 662.899 87.58L662.031 86.53C662.572 86.0353 663.128 85.6667 663.697 85.424C664.266 85.172 664.859 85.046 665.475 85.046C666.119 85.046 666.684 85.1627 667.169 85.396C667.654 85.62 668.032 85.9327 668.303 86.334C668.574 86.7353 668.709 87.202 668.709 87.734C668.709 88.0513 668.667 88.35 668.583 88.63C668.499 88.91 668.354 89.1947 668.149 89.484C667.953 89.7733 667.678 90.1047 667.323 90.478L664.201 93.698L668.891 93.684V95H662.255ZM674.243 95.14C673.45 95.14 672.75 94.93 672.143 94.51C671.546 94.0807 671.075 93.488 670.729 92.732C670.393 91.9667 670.225 91.0893 670.225 90.1C670.225 89.092 670.393 88.21 670.729 87.454C671.075 86.698 671.546 86.11 672.143 85.69C672.75 85.2607 673.45 85.046 674.243 85.046C675.037 85.046 675.732 85.2607 676.329 85.69C676.936 86.11 677.407 86.698 677.743 87.454C678.079 88.21 678.247 89.092 678.247 90.1C678.247 91.0893 678.079 91.9667 677.743 92.732C677.407 93.488 676.936 94.0807 676.329 94.51C675.732 94.93 675.037 95.14 674.243 95.14ZM674.243 93.782C674.747 93.782 675.181 93.6327 675.545 93.334C675.919 93.026 676.208 92.5967 676.413 92.046C676.619 91.4953 676.721 90.8467 676.721 90.1C676.721 89.344 676.619 88.6907 676.413 88.14C676.208 87.5893 675.919 87.1647 675.545 86.866C675.181 86.558 674.747 86.404 674.243 86.404C673.739 86.404 673.301 86.558 672.927 86.866C672.563 87.1647 672.274 87.5893 672.059 88.14C671.854 88.6907 671.751 89.344 671.751 90.1C671.751 90.8467 671.854 91.4953 672.059 92.046C672.274 92.5967 672.563 93.026 672.927 93.334C673.301 93.6327 673.739 93.782 674.243 93.782Z" fill="#151515"/>
<path d="M687.074 95.112C686.439 95.112 685.87 94.958 685.366 94.65C684.862 94.342 684.465 93.922 684.176 93.39C683.887 92.858 683.742 92.256 683.742 91.584C683.742 90.912 683.887 90.31 684.176 89.778C684.465 89.246 684.862 88.826 685.366 88.518C685.87 88.21 686.439 88.056 687.074 88.056C687.699 88.056 688.259 88.21 688.754 88.518C689.258 88.826 689.655 89.246 689.944 89.778C690.233 90.31 690.378 90.912 690.378 91.584C690.378 92.256 690.233 92.858 689.944 93.39C689.655 93.922 689.258 94.342 688.754 94.65C688.259 94.958 687.699 95.112 687.074 95.112ZM687.06 94.216C687.508 94.216 687.905 94.104 688.25 93.88C688.595 93.6467 688.866 93.3293 689.062 92.928C689.267 92.5267 689.37 92.0787 689.37 91.584C689.37 91.08 689.267 90.632 689.062 90.24C688.866 89.8387 688.595 89.526 688.25 89.302C687.905 89.0687 687.508 88.952 687.06 88.952C686.612 88.952 686.215 89.0687 685.87 89.302C685.525 89.526 685.249 89.8387 685.044 90.24C684.848 90.632 684.75 91.08 684.75 91.584C684.75 92.0787 684.848 92.5267 685.044 92.928C685.249 93.3293 685.525 93.6467 685.87 93.88C686.215 94.104 686.612 94.216 687.06 94.216ZM692.615 95V89.008H691.089V88.168H692.615V86.74C692.615 86.068 692.793 85.55 693.147 85.186C693.502 84.822 694.006 84.64 694.659 84.64C694.846 84.64 695.014 84.6493 695.163 84.668C695.322 84.6867 695.462 84.7193 695.583 84.766V85.69C695.434 85.6433 695.299 85.6107 695.177 85.592C695.056 85.5733 694.916 85.564 694.757 85.564C694.365 85.564 694.081 85.662 693.903 85.858C693.726 86.0447 693.637 86.3433 693.637 86.754V88.168H695.583V89.008H693.637V95H692.615Z" fill="#151515"/>
<path d="M703.934 95.154C702.609 95.154 701.461 94.7107 700.49 93.824L701.414 92.774C701.834 93.1473 702.245 93.418 702.646 93.586C703.057 93.754 703.505 93.838 703.99 93.838C704.41 93.838 704.774 93.7587 705.082 93.6C705.399 93.4413 705.642 93.2173 705.81 92.928C705.987 92.6293 706.076 92.2933 706.076 91.92C706.076 91.3693 705.875 90.926 705.474 90.59C705.082 90.2447 704.573 90.072 703.948 90.072C703.621 90.072 703.299 90.114 702.982 90.198C702.674 90.282 702.352 90.4127 702.016 90.59L700.938 90.268L701.162 85.2H707.112V86.516H702.506L702.38 89.33C702.735 89.1527 703.071 89.036 703.388 88.98C703.715 88.9147 704.046 88.882 704.382 88.882C705.035 88.882 705.605 89.008 706.09 89.26C706.575 89.5027 706.953 89.848 707.224 90.296C707.495 90.7347 707.63 91.248 707.63 91.836C707.63 92.4987 707.476 93.0773 707.168 93.572C706.86 94.0667 706.426 94.454 705.866 94.734C705.315 95.014 704.671 95.154 703.934 95.154ZM708.821 95V93.894L712.839 89.694C713.082 89.442 713.269 89.2133 713.399 89.008C713.539 88.8027 713.637 88.6067 713.693 88.42C713.759 88.224 713.791 88.0233 713.791 87.818C713.791 87.4073 713.623 87.0667 713.287 86.796C712.951 86.5253 712.527 86.39 712.013 86.39C711.565 86.39 711.145 86.4787 710.753 86.656C710.361 86.8333 709.932 87.1413 709.465 87.58L708.597 86.53C709.139 86.0353 709.694 85.6667 710.263 85.424C710.833 85.172 711.425 85.046 712.041 85.046C712.685 85.046 713.25 85.1627 713.735 85.396C714.221 85.62 714.599 85.9327 714.869 86.334C715.14 86.7353 715.275 87.202 715.275 87.734C715.275 88.0513 715.233 88.35 715.149 88.63C715.065 88.91 714.921 89.1947 714.715 89.484C714.519 89.7733 714.244 90.1047 713.889 90.478L710.767 93.698L715.457 93.684V95H708.821ZM720.208 95.154C719.48 95.154 718.803 95.028 718.178 94.776C717.552 94.5147 717.02 94.1507 716.582 93.684L717.604 92.704C717.996 93.1147 718.388 93.404 718.78 93.572C719.172 93.7307 719.638 93.81 720.18 93.81C720.609 93.81 720.982 93.7447 721.3 93.614C721.626 93.474 721.878 93.2827 722.056 93.04C722.233 92.7973 722.322 92.5127 722.322 92.186C722.322 91.8967 722.247 91.64 722.098 91.416C721.948 91.192 721.743 91.0193 721.482 90.898C721.22 90.7673 720.917 90.702 720.572 90.702H719.368V89.414H720.446C720.922 89.414 721.3 89.2833 721.58 89.022C721.869 88.7607 722.014 88.406 722.014 87.958C722.014 87.6687 721.93 87.4073 721.762 87.174C721.603 86.9313 721.384 86.7447 721.104 86.614C720.824 86.474 720.506 86.404 720.152 86.404C719.657 86.404 719.223 86.4927 718.85 86.67C718.486 86.838 718.108 87.1367 717.716 87.566L716.68 86.6C717.128 86.096 717.655 85.7133 718.262 85.452C718.878 85.1813 719.522 85.046 720.194 85.046C720.847 85.046 721.426 85.1627 721.93 85.396C722.434 85.6293 722.826 85.956 723.106 86.376C723.395 86.7867 723.54 87.258 723.54 87.79C723.54 88.3127 723.367 88.7793 723.022 89.19C722.686 89.5913 722.242 89.8713 721.692 90.03C722.345 90.17 722.868 90.4453 723.26 90.856C723.661 91.2573 723.862 91.7333 723.862 92.284C723.862 92.8347 723.703 93.3293 723.386 93.768C723.068 94.1973 722.634 94.538 722.084 94.79C721.542 95.0327 720.917 95.154 720.208 95.154Z" fill="#151515"/>
<path fill-rule="evenodd" clip-rule="evenodd" d="M741.444 92.9817L745.481 88.9117C745.877 88.5133 745.597 87.8334 745.039 87.8334H736.961C736.403 87.8334 736.123 88.5133 736.519 88.9117L740.556 92.9817C740.801 93.2284 741.199 93.2284 741.444 92.9817Z" fill="#1F1F1F"/>
<path fill-rule="evenodd" clip-rule="evenodd" d="M801.424 94.5808L802.042 93.9601C802.299 93.7058 802.299 93.2902 802.042 93.0332L799.406 90.3972L802.039 87.7586C802.296 87.5043 802.296 87.0887 802.039 86.8316L801.421 86.2137C801.167 85.9566 800.752 85.9566 800.494 86.2137L796.776 89.9324C796.519 90.1894 796.519 90.605 796.778 90.8621L800.497 94.5808C800.752 94.8379 801.167 94.8379 801.424 94.5808Z" fill="#A3A3A3"/>
<path fill-rule="evenodd" clip-rule="evenodd" d="M843.321 94.3933L847.04 90.6746C847.297 90.4175 847.297 90.0019 847.037 89.7449L843.318 86.0262C843.064 85.7691 842.648 85.7691 842.391 86.0262L841.776 86.6496C841.519 86.9039 841.519 87.3195 841.776 87.5765L844.412 90.2125L841.776 92.8484C841.519 93.1027 841.519 93.5183 841.776 93.7754L842.394 94.3933C842.648 94.6504 843.064 94.6504 843.321 94.3933Z" fill="#1F1F1F"/>
<g filter="url(#filter0_d_1565_29407)">
<path d="M426 119C426 115.686 428.686 113 432 113H571C574.314 113 577 115.686 577 119V234C577 237.314 574.314 240 571 240H432C428.686 240 426 237.314 426 234V119Z" fill="white"/>
<path d="M451.246 144V134.2H452.324V143.048H457.854V144H451.246ZM459.54 144V137.168H460.562V144H459.54ZM460.058 135.474C459.853 135.474 459.675 135.404 459.526 135.264C459.386 135.115 459.316 134.942 459.316 134.746C459.316 134.55 459.386 134.382 459.526 134.242C459.675 134.093 459.853 134.018 460.058 134.018C460.263 134.018 460.436 134.093 460.576 134.242C460.725 134.382 460.8 134.55 460.8 134.746C460.8 134.942 460.725 135.115 460.576 135.264C460.436 135.404 460.263 135.474 460.058 135.474ZM462.657 144V137.168H463.679V138.274C463.941 137.863 464.253 137.56 464.617 137.364C464.981 137.159 465.392 137.056 465.849 137.056C466.344 137.056 466.773 137.163 467.137 137.378C467.511 137.583 467.8 137.877 468.005 138.26C468.22 138.633 468.327 139.072 468.327 139.576V144H467.305V139.87C467.305 139.263 467.137 138.787 466.801 138.442C466.475 138.087 466.031 137.91 465.471 137.91C465.098 137.91 464.757 137.999 464.449 138.176C464.141 138.353 463.885 138.615 463.679 138.96V144H462.657ZM470.382 144V133.892L471.404 133.682V140.234L474.652 137.168H475.884L472.412 140.416L476.038 144H474.694L471.404 140.738V144H470.382Z" fill="#151515"/>
<path d="M452.324 180.034H454.564C455.273 180.034 455.908 179.861 456.468 179.516C457.028 179.171 457.471 178.704 457.798 178.116C458.134 177.519 458.302 176.847 458.302 176.1C458.302 175.353 458.134 174.686 457.798 174.098C457.471 173.501 457.028 173.029 456.468 172.684C455.908 172.339 455.273 172.166 454.564 172.166H452.324V180.034ZM451.246 181V171.2H454.494C455.213 171.2 455.871 171.326 456.468 171.578C457.075 171.821 457.593 172.166 458.022 172.614C458.461 173.053 458.797 173.571 459.03 174.168C459.273 174.756 459.394 175.4 459.394 176.1C459.394 176.8 459.273 177.449 459.03 178.046C458.797 178.634 458.461 179.152 458.022 179.6C457.593 180.039 457.075 180.384 456.468 180.636C455.871 180.879 455.213 181 454.494 181H451.246ZM461.222 181V174.168H462.244V181H461.222ZM461.74 172.474C461.534 172.474 461.357 172.404 461.208 172.264C461.068 172.115 460.998 171.942 460.998 171.746C460.998 171.55 461.068 171.382 461.208 171.242C461.357 171.093 461.534 171.018 461.74 171.018C461.945 171.018 462.118 171.093 462.258 171.242C462.407 171.382 462.482 171.55 462.482 171.746C462.482 171.942 462.407 172.115 462.258 172.264C462.118 172.404 461.945 172.474 461.74 172.474ZM466.453 181.14C465.893 181.14 465.375 181.056 464.899 180.888C464.423 180.711 464.017 180.459 463.681 180.132L464.227 179.46C464.638 179.759 465.016 179.978 465.361 180.118C465.706 180.249 466.061 180.314 466.425 180.314C466.92 180.314 467.33 180.197 467.657 179.964C467.984 179.731 468.147 179.432 468.147 179.068C468.147 178.788 468.049 178.569 467.853 178.41C467.666 178.251 467.354 178.13 466.915 178.046L465.795 177.85C465.132 177.729 464.642 177.523 464.325 177.234C464.017 176.945 463.863 176.553 463.863 176.058C463.863 175.666 463.966 175.321 464.171 175.022C464.386 174.723 464.68 174.49 465.053 174.322C465.426 174.145 465.851 174.056 466.327 174.056C466.794 174.056 467.237 174.126 467.657 174.266C468.077 174.397 468.502 174.611 468.931 174.91L468.427 175.624C468.072 175.372 467.718 175.19 467.363 175.078C467.008 174.957 466.649 174.896 466.285 174.896C465.837 174.896 465.478 174.994 465.207 175.19C464.936 175.386 464.801 175.652 464.801 175.988C464.801 176.268 464.885 176.483 465.053 176.632C465.23 176.781 465.538 176.893 465.977 176.968L467.125 177.178C467.816 177.299 468.32 177.509 468.637 177.808C468.954 178.107 469.113 178.508 469.113 179.012C469.113 179.413 468.996 179.777 468.763 180.104C468.53 180.421 468.212 180.673 467.811 180.86C467.41 181.047 466.957 181.14 466.453 181.14ZM472.852 181.126C472.366 181.126 471.937 181.037 471.564 180.86C471.19 180.683 470.896 180.44 470.682 180.132C470.476 179.815 470.374 179.451 470.374 179.04C470.374 178.629 470.481 178.275 470.696 177.976C470.91 177.668 471.209 177.43 471.592 177.262C471.974 177.094 472.422 177.01 472.936 177.01C473.328 177.01 473.696 177.052 474.042 177.136C474.396 177.22 474.723 177.355 475.022 177.542V176.604C475.022 176.044 474.872 175.624 474.574 175.344C474.275 175.055 473.836 174.91 473.258 174.91C472.94 174.91 472.614 174.957 472.278 175.05C471.951 175.143 471.587 175.293 471.186 175.498L470.808 174.714C471.722 174.275 472.581 174.056 473.383 174.056C474.233 174.056 474.886 174.266 475.344 174.686C475.801 175.097 476.03 175.689 476.03 176.464V181H475.022V180.202C474.723 180.51 474.392 180.743 474.028 180.902C473.664 181.051 473.272 181.126 472.852 181.126ZM471.354 179.012C471.354 179.413 471.508 179.735 471.816 179.978C472.133 180.221 472.548 180.342 473.062 180.342C473.444 180.342 473.794 180.277 474.112 180.146C474.438 180.015 474.742 179.819 475.022 179.558V178.242C474.732 178.074 474.434 177.953 474.126 177.878C473.818 177.794 473.472 177.752 473.09 177.752C472.567 177.752 472.147 177.869 471.83 178.102C471.512 178.326 471.354 178.629 471.354 179.012ZM478.107 181V170.99L479.129 170.78V175.106C479.39 174.779 479.707 174.527 480.081 174.35C480.454 174.173 480.869 174.084 481.327 174.084C481.924 174.084 482.456 174.243 482.923 174.56C483.399 174.868 483.777 175.288 484.057 175.82C484.337 176.343 484.477 176.931 484.477 177.584C484.477 178.237 484.332 178.83 484.043 179.362C483.763 179.894 483.38 180.319 482.895 180.636C482.419 180.944 481.877 181.098 481.271 181.098C480.841 181.098 480.44 181.014 480.067 180.846C479.703 180.669 479.385 180.421 479.115 180.104V181H478.107ZM481.075 180.216C481.532 180.216 481.938 180.104 482.293 179.88C482.657 179.647 482.941 179.334 483.147 178.942C483.361 178.541 483.469 178.093 483.469 177.598C483.469 177.094 483.361 176.646 483.147 176.254C482.941 175.862 482.657 175.554 482.293 175.33C481.938 175.097 481.532 174.98 481.075 174.98C480.673 174.98 480.3 175.064 479.955 175.232C479.619 175.391 479.343 175.619 479.129 175.918V179.264C479.353 179.563 479.633 179.796 479.969 179.964C480.314 180.132 480.683 180.216 481.075 180.216ZM486.269 181V170.892L487.291 170.682V181H486.269ZM492.466 181.14C491.831 181.14 491.257 180.986 490.744 180.678C490.231 180.361 489.825 179.936 489.526 179.404C489.227 178.863 489.078 178.256 489.078 177.584C489.078 176.912 489.218 176.31 489.498 175.778C489.787 175.246 490.175 174.826 490.66 174.518C491.145 174.21 491.687 174.056 492.284 174.056C492.891 174.056 493.427 174.21 493.894 174.518C494.37 174.817 494.743 175.227 495.014 175.75C495.294 176.263 495.434 176.847 495.434 177.5V177.808H490.072C490.109 178.275 490.235 178.695 490.45 179.068C490.674 179.432 490.963 179.721 491.318 179.936C491.682 180.141 492.079 180.244 492.508 180.244C492.863 180.244 493.203 180.183 493.53 180.062C493.866 179.931 494.151 179.759 494.384 179.544L495.028 180.23C494.636 180.538 494.23 180.767 493.81 180.916C493.39 181.065 492.942 181.14 492.466 181.14ZM490.1 177.08H494.426C494.379 176.669 494.253 176.305 494.048 175.988C493.852 175.661 493.6 175.405 493.292 175.218C492.993 175.031 492.657 174.938 492.284 174.938C491.911 174.938 491.57 175.031 491.262 175.218C490.954 175.395 490.697 175.647 490.492 175.974C490.296 176.291 490.165 176.66 490.1 177.08ZM500.021 181.098C499.433 181.098 498.901 180.944 498.425 180.636C497.949 180.319 497.571 179.899 497.291 179.376C497.011 178.844 496.871 178.251 496.871 177.598C496.871 176.935 497.011 176.343 497.291 175.82C497.58 175.288 497.968 174.868 498.453 174.56C498.938 174.243 499.48 174.084 500.077 174.084C500.497 174.084 500.889 174.168 501.253 174.336C501.617 174.495 501.934 174.728 502.205 175.036V170.892L503.227 170.682V181H502.205V180.09C501.944 180.417 501.626 180.669 501.253 180.846C500.88 181.014 500.469 181.098 500.021 181.098ZM500.273 180.202C500.674 180.202 501.043 180.123 501.379 179.964C501.715 179.805 501.99 179.581 502.205 179.292V175.904C501.981 175.615 501.696 175.391 501.351 175.232C501.015 175.064 500.656 174.98 500.273 174.98C499.816 174.98 499.405 175.092 499.041 175.316C498.686 175.54 498.402 175.848 498.187 176.24C497.982 176.632 497.879 177.08 497.879 177.584C497.879 178.079 497.982 178.527 498.187 178.928C498.402 179.32 498.686 179.633 499.041 179.866C499.405 180.09 499.816 180.202 500.273 180.202ZM508.595 181V170.892L509.617 170.682V181H508.595ZM511.698 181V174.168H512.72V181H511.698ZM512.216 172.474C512.011 172.474 511.833 172.404 511.684 172.264C511.544 172.115 511.474 171.942 511.474 171.746C511.474 171.55 511.544 171.382 511.684 171.242C511.833 171.093 512.011 171.018 512.216 171.018C512.421 171.018 512.594 171.093 512.734 171.242C512.883 171.382 512.958 171.55 512.958 171.746C512.958 171.942 512.883 172.115 512.734 172.264C512.594 172.404 512.421 172.474 512.216 172.474ZM514.816 181V174.168H515.838V175.274C516.099 174.863 516.412 174.56 516.776 174.364C517.14 174.159 517.55 174.056 518.008 174.056C518.502 174.056 518.932 174.163 519.296 174.378C519.669 174.583 519.958 174.877 520.164 175.26C520.378 175.633 520.486 176.072 520.486 176.576V181H519.464V176.87C519.464 176.263 519.296 175.787 518.96 175.442C518.633 175.087 518.19 174.91 517.63 174.91C517.256 174.91 516.916 174.999 516.608 175.176C516.3 175.353 516.043 175.615 515.838 175.96V181H514.816ZM522.54 181V170.892L523.562 170.682V177.234L526.81 174.168H528.042L524.57 177.416L528.196 181H526.852L523.562 177.738V181H522.54Z" fill="#A3A3A3"/>
<path d="M452.324 217.034H454.564C455.273 217.034 455.908 216.861 456.468 216.516C457.028 216.171 457.471 215.704 457.798 215.116C458.134 214.519 458.302 213.847 458.302 213.1C458.302 212.353 458.134 211.686 457.798 211.098C457.471 210.501 457.028 210.029 456.468 209.684C455.908 209.339 455.273 209.166 454.564 209.166H452.324V217.034ZM451.246 218V208.2H454.494C455.213 208.2 455.871 208.326 456.468 208.578C457.075 208.821 457.593 209.166 458.022 209.614C458.461 210.053 458.797 210.571 459.03 211.168C459.273 211.756 459.394 212.4 459.394 213.1C459.394 213.8 459.273 214.449 459.03 215.046C458.797 215.634 458.461 216.152 458.022 216.6C457.593 217.039 457.075 217.384 456.468 217.636C455.871 217.879 455.213 218 454.494 218H451.246ZM461.222 218V211.168H462.244V218H461.222ZM461.74 209.474C461.534 209.474 461.357 209.404 461.208 209.264C461.068 209.115 460.998 208.942 460.998 208.746C460.998 208.55 461.068 208.382 461.208 208.242C461.357 208.093 461.534 208.018 461.74 208.018C461.945 208.018 462.118 208.093 462.258 208.242C462.407 208.382 462.482 208.55 462.482 208.746C462.482 208.942 462.407 209.115 462.258 209.264C462.118 209.404 461.945 209.474 461.74 209.474ZM466.453 218.14C465.893 218.14 465.375 218.056 464.899 217.888C464.423 217.711 464.017 217.459 463.681 217.132L464.227 216.46C464.638 216.759 465.016 216.978 465.361 217.118C465.706 217.249 466.061 217.314 466.425 217.314C466.92 217.314 467.33 217.197 467.657 216.964C467.984 216.731 468.147 216.432 468.147 216.068C468.147 215.788 468.049 215.569 467.853 215.41C467.666 215.251 467.354 215.13 466.915 215.046L465.795 214.85C465.132 214.729 464.642 214.523 464.325 214.234C464.017 213.945 463.863 213.553 463.863 213.058C463.863 212.666 463.966 212.321 464.171 212.022C464.386 211.723 464.68 211.49 465.053 211.322C465.426 211.145 465.851 211.056 466.327 211.056C466.794 211.056 467.237 211.126 467.657 211.266C468.077 211.397 468.502 211.611 468.931 211.91L468.427 212.624C468.072 212.372 467.718 212.19 467.363 212.078C467.008 211.957 466.649 211.896 466.285 211.896C465.837 211.896 465.478 211.994 465.207 212.19C464.936 212.386 464.801 212.652 464.801 212.988C464.801 213.268 464.885 213.483 465.053 213.632C465.23 213.781 465.538 213.893 465.977 213.968L467.125 214.178C467.816 214.299 468.32 214.509 468.637 214.808C468.954 215.107 469.113 215.508 469.113 216.012C469.113 216.413 468.996 216.777 468.763 217.104C468.53 217.421 468.212 217.673 467.811 217.86C467.41 218.047 466.957 218.14 466.453 218.14ZM472.852 218.126C472.366 218.126 471.937 218.037 471.564 217.86C471.19 217.683 470.896 217.44 470.682 217.132C470.476 216.815 470.374 216.451 470.374 216.04C470.374 215.629 470.481 215.275 470.696 214.976C470.91 214.668 471.209 214.43 471.592 214.262C471.974 214.094 472.422 214.01 472.936 214.01C473.328 214.01 473.696 214.052 474.042 214.136C474.396 214.22 474.723 214.355 475.022 214.542V213.604C475.022 213.044 474.872 212.624 474.574 212.344C474.275 212.055 473.836 211.91 473.258 211.91C472.94 211.91 472.614 211.957 472.278 212.05C471.951 212.143 471.587 212.293 471.186 212.498L470.808 211.714C471.722 211.275 472.581 211.056 473.383 211.056C474.233 211.056 474.886 211.266 475.344 211.686C475.801 212.097 476.03 212.689 476.03 213.464V218H475.022V217.202C474.723 217.51 474.392 217.743 474.028 217.902C473.664 218.051 473.272 218.126 472.852 218.126ZM471.354 216.012C471.354 216.413 471.508 216.735 471.816 216.978C472.133 217.221 472.548 217.342 473.062 217.342C473.444 217.342 473.794 217.277 474.112 217.146C474.438 217.015 474.742 216.819 475.022 216.558V215.242C474.732 215.074 474.434 214.953 474.126 214.878C473.818 214.794 473.472 214.752 473.09 214.752C472.567 214.752 472.147 214.869 471.83 215.102C471.512 215.326 471.354 215.629 471.354 216.012ZM478.107 218V207.99L479.129 207.78V212.106C479.39 211.779 479.707 211.527 480.081 211.35C480.454 211.173 480.869 211.084 481.327 211.084C481.924 211.084 482.456 211.243 482.923 211.56C483.399 211.868 483.777 212.288 484.057 212.82C484.337 213.343 484.477 213.931 484.477 214.584C484.477 215.237 484.332 215.83 484.043 216.362C483.763 216.894 483.38 217.319 482.895 217.636C482.419 217.944 481.877 218.098 481.271 218.098C480.841 218.098 480.44 218.014 480.067 217.846C479.703 217.669 479.385 217.421 479.115 217.104V218H478.107ZM481.075 217.216C481.532 217.216 481.938 217.104 482.293 216.88C482.657 216.647 482.941 216.334 483.147 215.942C483.361 215.541 483.469 215.093 483.469 214.598C483.469 214.094 483.361 213.646 483.147 213.254C482.941 212.862 482.657 212.554 482.293 212.33C481.938 212.097 481.532 211.98 481.075 211.98C480.673 211.98 480.3 212.064 479.955 212.232C479.619 212.391 479.343 212.619 479.129 212.918V216.264C479.353 216.563 479.633 216.796 479.969 216.964C480.314 217.132 480.683 217.216 481.075 217.216ZM486.269 218V207.892L487.291 207.682V218H486.269ZM492.466 218.14C491.831 218.14 491.257 217.986 490.744 217.678C490.231 217.361 489.825 216.936 489.526 216.404C489.227 215.863 489.078 215.256 489.078 214.584C489.078 213.912 489.218 213.31 489.498 212.778C489.787 212.246 490.175 211.826 490.66 211.518C491.145 211.21 491.687 211.056 492.284 211.056C492.891 211.056 493.427 211.21 493.894 211.518C494.37 211.817 494.743 212.227 495.014 212.75C495.294 213.263 495.434 213.847 495.434 214.5V214.808H490.072C490.109 215.275 490.235 215.695 490.45 216.068C490.674 216.432 490.963 216.721 491.318 216.936C491.682 217.141 492.079 217.244 492.508 217.244C492.863 217.244 493.203 217.183 493.53 217.062C493.866 216.931 494.151 216.759 494.384 216.544L495.028 217.23C494.636 217.538 494.23 217.767 493.81 217.916C493.39 218.065 492.942 218.14 492.466 218.14ZM490.1 214.08H494.426C494.379 213.669 494.253 213.305 494.048 212.988C493.852 212.661 493.6 212.405 493.292 212.218C492.993 212.031 492.657 211.938 492.284 211.938C491.911 211.938 491.57 212.031 491.262 212.218C490.954 212.395 490.697 212.647 490.492 212.974C490.296 213.291 490.165 213.66 490.1 214.08ZM500.021 218.098C499.433 218.098 498.901 217.944 498.425 217.636C497.949 217.319 497.571 216.899 497.291 216.376C497.011 215.844 496.871 215.251 496.871 214.598C496.871 213.935 497.011 213.343 497.291 212.82C497.58 212.288 497.968 211.868 498.453 211.56C498.938 211.243 499.48 211.084 500.077 211.084C500.497 211.084 500.889 211.168 501.253 211.336C501.617 211.495 501.934 211.728 502.205 212.036V207.892L503.227 207.682V218H502.205V217.09C501.944 217.417 501.626 217.669 501.253 217.846C500.88 218.014 500.469 218.098 500.021 218.098ZM500.273 217.202C500.674 217.202 501.043 217.123 501.379 216.964C501.715 216.805 501.99 216.581 502.205 216.292V212.904C501.981 212.615 501.696 212.391 501.351 212.232C501.015 212.064 500.656 211.98 500.273 211.98C499.816 211.98 499.405 212.092 499.041 212.316C498.686 212.54 498.402 212.848 498.187 213.24C497.982 213.632 497.879 214.08 497.879 214.584C497.879 215.079 497.982 215.527 498.187 215.928C498.402 216.32 498.686 216.633 499.041 216.866C499.405 217.09 499.816 217.202 500.273 217.202ZM510.709 218.126C510.224 218.126 509.794 218.037 509.421 217.86C509.048 217.683 508.754 217.44 508.539 217.132C508.334 216.815 508.231 216.451 508.231 216.04C508.231 215.629 508.338 215.275 508.553 214.976C508.768 214.668 509.066 214.43 509.449 214.262C509.832 214.094 510.28 214.01 510.793 214.01C511.185 214.01 511.554 214.052 511.899 214.136C512.254 214.22 512.58 214.355 512.879 214.542V213.604C512.879 213.044 512.73 212.624 512.431 212.344C512.132 212.055 511.694 211.91 511.115 211.91C510.798 211.91 510.471 211.957 510.135 212.05C509.808 212.143 509.444 212.293 509.043 212.498L508.665 211.714C509.58 211.275 510.438 211.056 511.241 211.056C512.09 211.056 512.744 211.266 513.201 211.686C513.658 212.097 513.887 212.689 513.887 213.464V218H512.879V217.202C512.58 217.51 512.249 217.743 511.885 217.902C511.521 218.051 511.129 218.126 510.709 218.126ZM509.211 216.012C509.211 216.413 509.365 216.735 509.673 216.978C509.99 217.221 510.406 217.342 510.919 217.342C511.302 217.342 511.652 217.277 511.969 217.146C512.296 217.015 512.599 216.819 512.879 216.558V215.242C512.59 215.074 512.291 214.953 511.983 214.878C511.675 214.794 511.33 214.752 510.947 214.752C510.424 214.752 510.004 214.869 509.687 215.102C509.37 215.326 509.211 215.629 509.211 216.012ZM519.03 218.112C518.395 218.112 517.821 217.958 517.308 217.65C516.804 217.333 516.403 216.908 516.104 216.376C515.805 215.835 515.656 215.237 515.656 214.584C515.656 213.921 515.805 213.324 516.104 212.792C516.403 212.26 516.804 211.84 517.308 211.532C517.821 211.215 518.395 211.056 519.03 211.056C519.534 211.056 520.015 211.149 520.472 211.336C520.929 211.523 521.326 211.784 521.662 212.12L521.004 212.834C520.761 212.563 520.467 212.353 520.122 212.204C519.777 212.055 519.427 211.98 519.072 211.98C518.624 211.98 518.218 212.097 517.854 212.33C517.499 212.563 517.215 212.876 517 213.268C516.785 213.66 516.678 214.099 516.678 214.584C516.678 215.069 516.785 215.508 517 215.9C517.215 216.292 517.499 216.605 517.854 216.838C518.218 217.071 518.624 217.188 519.072 217.188C519.427 217.188 519.777 217.113 520.122 216.964C520.467 216.805 520.761 216.595 521.004 216.334L521.662 217.048C521.326 217.384 520.929 217.645 520.472 217.832C520.015 218.019 519.534 218.112 519.03 218.112ZM525.828 218.14C525.24 218.14 524.792 218 524.484 217.72C524.185 217.431 524.036 217.015 524.036 216.474V212.008H522.622V211.168H524.036V209.292L525.058 209.054V211.168H527.018V212.008H525.058V216.208C525.058 216.572 525.132 216.833 525.282 216.992C525.44 217.151 525.697 217.23 526.052 217.23C526.229 217.23 526.388 217.216 526.528 217.188C526.668 217.16 526.831 217.113 527.018 217.048V217.958C526.831 218.023 526.635 218.07 526.43 218.098C526.224 218.126 526.024 218.14 525.828 218.14ZM528.501 218V211.168H529.523V218H528.501ZM529.019 209.474C528.814 209.474 528.636 209.404 528.487 209.264C528.347 209.115 528.277 208.942 528.277 208.746C528.277 208.55 528.347 208.382 528.487 208.242C528.636 208.093 528.814 208.018 529.019 208.018C529.224 208.018 529.397 208.093 529.537 208.242C529.686 208.382 529.761 208.55 529.761 208.746C529.761 208.942 529.686 209.115 529.537 209.264C529.397 209.404 529.224 209.474 529.019 209.474ZM534.642 218.112C534.008 218.112 533.438 217.958 532.934 217.65C532.43 217.342 532.034 216.922 531.744 216.39C531.455 215.858 531.31 215.256 531.31 214.584C531.31 213.912 531.455 213.31 531.744 212.778C532.034 212.246 532.43 211.826 532.934 211.518C533.438 211.21 534.008 211.056 534.642 211.056C535.268 211.056 535.828 211.21 536.322 211.518C536.826 211.826 537.223 212.246 537.512 212.778C537.802 213.31 537.946 213.912 537.946 214.584C537.946 215.256 537.802 215.858 537.512 216.39C537.223 216.922 536.826 217.342 536.322 217.65C535.828 217.958 535.268 218.112 534.642 218.112ZM534.628 217.216C535.076 217.216 535.473 217.104 535.818 216.88C536.164 216.647 536.434 216.329 536.63 215.928C536.836 215.527 536.938 215.079 536.938 214.584C536.938 214.08 536.836 213.632 536.63 213.24C536.434 212.839 536.164 212.526 535.818 212.302C535.473 212.069 535.076 211.952 534.628 211.952C534.18 211.952 533.784 212.069 533.438 212.302C533.093 212.526 532.818 212.839 532.612 213.24C532.416 213.632 532.318 214.08 532.318 214.584C532.318 215.079 532.416 215.527 532.612 215.928C532.818 216.329 533.093 216.647 533.438 216.88C533.784 217.104 534.18 217.216 534.628 217.216ZM539.739 218V211.168H540.761V212.274C541.023 211.863 541.335 211.56 541.699 211.364C542.063 211.159 542.474 211.056 542.931 211.056C543.426 211.056 543.855 211.163 544.219 211.378C544.593 211.583 544.882 211.877 545.087 212.26C545.302 212.633 545.409 213.072 545.409 213.576V218H544.387V213.87C544.387 213.263 544.219 212.787 543.883 212.442C543.557 212.087 543.113 211.91 542.553 211.91C542.18 211.91 541.839 211.999 541.531 212.176C541.223 212.353 540.967 212.615 540.761 212.96V218H539.739Z" fill="#A3A3A3"/>
</g>
<mask id="path-30-inside-5_1565_29407" fill="white">
<path fill-rule="evenodd" clip-rule="evenodd" d="M447.465 95.195C446.132 94.4252 444.465 95.3875 444.465 96.9271L444.465 110.934C444.465 112.474 446.132 113.436 447.465 112.666L451.105 110.565L452.743 113.402C453.295 114.359 454.518 114.687 455.475 114.134L457.278 113.093C458.235 112.541 458.562 111.318 458.01 110.361L456.372 107.524L459.595 105.663C460.928 104.893 460.928 102.968 459.595 102.198L447.465 95.195Z"/>
</mask>
<path fill-rule="evenodd" clip-rule="evenodd" d="M447.465 95.195C446.132 94.4252 444.465 95.3875 444.465 96.9271L444.465 110.934C444.465 112.474 446.132 113.436 447.465 112.666L451.105 110.565L452.743 113.402C453.295 114.359 454.518 114.687 455.475 114.134L457.278 113.093C458.235 112.541 458.562 111.318 458.01 110.361L456.372 107.524L459.595 105.663C460.928 104.893 460.928 102.968 459.595 102.198L447.465 95.195Z" fill="#FF00FF"/>
<path d="M444.465 96.9271L443.465 96.9271V96.9271L444.465 96.9271ZM447.465 95.195L447.965 94.329L447.965 94.329L447.465 95.195ZM444.465 110.934L445.465 110.934V110.934L444.465 110.934ZM447.465 112.666L446.965 111.8L447.465 112.666ZM451.105 110.565L451.971 110.065L451.471 109.199L450.605 109.699L451.105 110.565ZM456.372 107.524L455.872 106.657L455.006 107.157L455.506 108.024L456.372 107.524ZM459.595 102.198L459.095 103.064L459.095 103.064L459.595 102.198ZM444.465 96.9271L445.465 96.9271C445.465 96.1573 446.298 95.6762 446.965 96.0611L447.465 95.195L447.965 94.329C445.965 93.1743 443.465 94.6177 443.465 96.9271L444.465 96.9271ZM444.465 110.934L445.465 110.934L445.465 96.9271L444.465 96.9271L443.465 96.9271L443.465 110.934L444.465 110.934ZM447.465 112.666L446.965 111.8C446.298 112.185 445.465 111.704 445.465 110.934L444.465 110.934L443.465 110.934C443.465 113.243 445.965 114.687 447.965 113.532L447.465 112.666ZM451.105 110.565L450.605 109.699L446.965 111.8L447.465 112.666L447.965 113.532L451.605 111.431L451.105 110.565ZM452.743 113.402L453.609 112.902L451.971 110.065L451.105 110.565L450.239 111.065L451.877 113.902L452.743 113.402ZM455.475 114.134L454.975 113.268C454.497 113.544 453.885 113.381 453.609 112.902L452.743 113.402L451.877 113.902C452.705 115.337 454.54 115.829 455.975 115L455.475 114.134ZM457.278 113.093L456.778 112.227L454.975 113.268L455.475 114.134L455.975 115L457.778 113.959L457.278 113.093ZM458.01 110.361L457.144 110.861C457.42 111.339 457.256 111.951 456.778 112.227L457.278 113.093L457.778 113.959C459.213 113.131 459.705 111.296 458.876 109.861L458.01 110.361ZM456.372 107.524L455.506 108.024L457.144 110.861L458.01 110.361L458.876 109.861L457.238 107.024L456.372 107.524ZM459.595 105.663L459.095 104.797L455.872 106.657L456.372 107.524L456.872 108.39L460.095 106.529L459.595 105.663ZM459.595 102.198L459.095 103.064C459.762 103.449 459.762 104.412 459.095 104.797L459.595 105.663L460.095 106.529C462.095 105.374 462.095 102.487 460.095 101.332L459.595 102.198ZM447.465 95.195L446.965 96.0611L459.095 103.064L459.595 102.198L460.095 101.332L447.965 94.329L447.465 95.195Z" fill="#FF00FF" mask="url(#path-30-inside-5_1565_29407)"/>
<path fill-rule="evenodd" clip-rule="evenodd" d="M450.423 95.4984C450.771 94.1566 450.613 92.6828 449.865 91.3875C448.353 88.7693 445.006 87.8722 442.387 89.3838C439.769 90.8955 438.872 94.2433 440.384 96.8615C441.053 98.0206 442.082 98.8423 443.248 99.2671L443.248 94.8201C443.248 93.2805 444.915 92.3183 446.248 93.0881L450.423 95.4984Z" fill="#FF00FF" fill-opacity="0.4"/>
<path d="M437.973 97.5511L435.866 98.7676" stroke="#FF00FF" stroke-linecap="round"/>
<path d="M453.775 88.4279L451.668 89.6443" stroke="#FF00FF" stroke-linecap="round"/>
<path d="M439.955 85.1699L441.171 87.2769" stroke="#FF00FF" stroke-linecap="round"/>
<defs>
<filter id="filter0_d_1565_29407" x="417" y="108" width="169" height="145" filterUnits="userSpaceOnUse" color-interpolation-filters="sRGB">
<feFlood flood-opacity="0" result="BackgroundImageFix"/>
<feColorMatrix in="SourceAlpha" type="matrix" values="0 0 0 0 0 0 0 0 0 0 0 0 0 0 0 0 0 0 127 0" result="hardAlpha"/>
<feOffset dy="4"/>
<feGaussianBlur stdDeviation="4.5"/>
<feColorMatrix type="matrix" values="0 0 0 0 0.160784 0 0 0 0 0.160784 0 0 0 0 0.160784 0 0 0 0.15 0"/>
<feBlend mode="normal" in2="BackgroundImageFix" result="effect1_dropShadow_1565_29407"/>
<feBlend mode="normal" in="SourceGraphic" in2="effect1_dropShadow_1565_29407" result="shape"/>
</filter>
</defs>
</svg>
