<svg width="541" height="121" viewBox="0 0 541 121" fill="none" xmlns="http://www.w3.org/2000/svg">
<rect width="541" height="121" fill="white"/>
<mask id="path-1-inside-1_203_2" fill="white">
<path d="M380 31C380 22.1634 387.163 15 396 15H510C518.837 15 526 22.1634 526 31V90C526 98.8366 518.837 106 510 106H396C387.163 106 380 98.8366 380 90V31Z"/>
</mask>
<path d="M380 31C380 22.1634 387.163 15 396 15H510C518.837 15 526 22.1634 526 31V90C526 98.8366 518.837 106 510 106H396C387.163 106 380 98.8366 380 90V31Z" fill="#C7C7C7"/>
<path d="M396 16H510V14H396V16ZM525 31V90H527V31H525ZM510 105H396V107H510V105ZM381 90V31H379V90H381ZM396 105C387.716 105 381 98.2843 381 90H379C379 99.3888 386.611 107 396 107V105ZM525 90C525 98.2843 518.284 105 510 105V107C519.389 107 527 99.3888 527 90H525ZM510 16C518.284 16 525 22.7157 525 31H527C527 21.6112 519.389 14 510 14V16ZM396 14C386.611 14 379 21.6112 379 31H381C381 22.7157 387.716 16 396 16V14Z" fill="#C7C7C7" mask="url(#path-1-inside-1_203_2)"/>
<path d="M407.312 52.544H409.258C409.846 52.544 410.378 52.3947 410.854 52.096C411.33 51.788 411.708 51.3727 411.988 50.85C412.268 50.3273 412.408 49.744 412.408 49.1C412.408 48.4467 412.268 47.8633 411.988 47.35C411.708 46.8273 411.33 46.4167 410.854 46.118C410.378 45.81 409.846 45.656 409.258 45.656H407.312V52.544ZM405.632 54V44.2H409.216C409.925 44.2 410.579 44.326 411.176 44.578C411.773 44.83 412.291 45.18 412.73 45.628C413.178 46.0667 413.523 46.5847 413.766 47.182C414.009 47.77 414.13 48.4093 414.13 49.1C414.13 49.7907 414.009 50.4347 413.766 51.032C413.523 51.62 413.178 52.138 412.73 52.586C412.291 53.0247 411.773 53.37 411.176 53.622C410.579 53.874 409.925 54 409.216 54H405.632ZM415.813 54V46.986H417.395V54H415.813ZM416.611 45.558C416.34 45.558 416.107 45.4647 415.911 45.278C415.724 45.082 415.631 44.8533 415.631 44.592C415.631 44.3213 415.724 44.0927 415.911 43.906C416.107 43.71 416.34 43.612 416.611 43.612C416.881 43.612 417.11 43.71 417.297 43.906C417.493 44.0927 417.591 44.3167 417.591 44.578C417.591 44.8487 417.493 45.082 417.297 45.278C417.11 45.4647 416.881 45.558 416.611 45.558ZM421.734 54.14C421.137 54.14 420.577 54.0607 420.054 53.902C419.541 53.734 419.097 53.496 418.724 53.188L419.466 52.138C419.933 52.4273 420.334 52.6327 420.67 52.754C421.015 52.8753 421.365 52.936 421.72 52.936C422.14 52.936 422.481 52.8473 422.742 52.67C423.003 52.4927 423.134 52.264 423.134 51.984C423.134 51.7693 423.055 51.6013 422.896 51.48C422.747 51.3493 422.499 51.2513 422.154 51.186L420.922 50.976C420.241 50.8453 419.732 50.6213 419.396 50.304C419.06 49.9867 418.892 49.5667 418.892 49.044C418.892 48.6053 419.004 48.2273 419.228 47.91C419.461 47.5833 419.779 47.3313 420.18 47.154C420.591 46.9673 421.067 46.874 421.608 46.874C422.093 46.874 422.565 46.944 423.022 47.084C423.479 47.224 423.927 47.434 424.366 47.714L423.624 48.764C423.269 48.5307 422.915 48.3627 422.56 48.26C422.215 48.148 421.865 48.092 421.51 48.092C421.146 48.092 420.852 48.1667 420.628 48.316C420.413 48.456 420.306 48.652 420.306 48.904C420.306 49.128 420.376 49.3007 420.516 49.422C420.665 49.534 420.922 49.618 421.286 49.674L422.532 49.912C423.232 50.0333 423.75 50.2573 424.086 50.584C424.431 50.9013 424.604 51.326 424.604 51.858C424.604 52.2873 424.478 52.6747 424.226 53.02C423.974 53.3653 423.633 53.6407 423.204 53.846C422.775 54.042 422.285 54.14 421.734 54.14ZM428.25 54.126C427.764 54.126 427.33 54.0373 426.948 53.86C426.574 53.6733 426.28 53.4213 426.066 53.104C425.86 52.7773 425.758 52.404 425.758 51.984C425.758 51.564 425.865 51.2 426.08 50.892C426.304 50.584 426.616 50.346 427.018 50.178C427.419 50.01 427.895 49.926 428.446 49.926C428.772 49.926 429.094 49.9633 429.412 50.038C429.729 50.1033 430.037 50.2153 430.336 50.374V49.59C430.336 49.1233 430.2 48.7733 429.93 48.54C429.668 48.3067 429.267 48.19 428.726 48.19C428.436 48.19 428.124 48.2367 427.788 48.33C427.461 48.414 427.092 48.5493 426.682 48.736L426.122 47.588C427.148 47.112 428.119 46.874 429.034 46.874C429.948 46.874 430.653 47.098 431.148 47.546C431.652 47.9847 431.904 48.61 431.904 49.422V54H430.336V53.272C430.037 53.5613 429.715 53.776 429.37 53.916C429.024 54.056 428.651 54.126 428.25 54.126ZM427.242 51.956C427.242 52.2827 427.372 52.5393 427.634 52.726C427.895 52.9127 428.245 53.006 428.684 53.006C429.001 53.006 429.295 52.9593 429.566 52.866C429.846 52.7633 430.102 52.614 430.336 52.418V51.284C430.093 51.172 429.841 51.088 429.58 51.032C429.318 50.976 429.034 50.948 428.726 50.948C428.268 50.948 427.904 51.0367 427.634 51.214C427.372 51.3913 427.242 51.6387 427.242 51.956ZM433.819 54V44.004L435.401 43.738V47.924C435.653 47.6067 435.961 47.364 436.325 47.196C436.698 47.0187 437.109 46.93 437.557 46.93C438.154 46.93 438.691 47.0887 439.167 47.406C439.643 47.7233 440.021 48.1527 440.301 48.694C440.581 49.2353 440.721 49.8373 440.721 50.5C440.721 51.1627 440.576 51.7647 440.287 52.306C439.998 52.8473 439.606 53.2767 439.111 53.594C438.616 53.9113 438.066 54.07 437.459 54.07C437.039 54.07 436.652 53.986 436.297 53.818C435.942 53.65 435.634 53.412 435.373 53.104V54H433.819ZM437.081 52.754C437.482 52.754 437.837 52.656 438.145 52.46C438.462 52.264 438.71 51.998 438.887 51.662C439.074 51.3167 439.167 50.9293 439.167 50.5C439.167 50.0707 439.074 49.688 438.887 49.352C438.71 49.016 438.462 48.75 438.145 48.554C437.837 48.358 437.482 48.26 437.081 48.26C436.736 48.26 436.418 48.33 436.129 48.47C435.84 48.6007 435.597 48.792 435.401 49.044V51.97C435.606 52.2127 435.854 52.404 436.143 52.544C436.432 52.684 436.745 52.754 437.081 52.754ZM442.377 54V43.962L443.959 43.682V54H442.377ZM449.167 54.14C448.495 54.14 447.888 53.9813 447.347 53.664C446.805 53.3373 446.376 52.9033 446.059 52.362C445.741 51.8113 445.583 51.1907 445.583 50.5C445.583 49.8093 445.732 49.1933 446.031 48.652C446.329 48.1107 446.735 47.6813 447.249 47.364C447.771 47.0373 448.35 46.874 448.985 46.874C449.638 46.874 450.212 47.0327 450.707 47.35C451.211 47.6673 451.603 48.0967 451.883 48.638C452.172 49.1793 452.317 49.8 452.317 50.5V50.878H447.137C447.193 51.2607 447.314 51.6013 447.501 51.9C447.697 52.1893 447.944 52.418 448.243 52.586C448.551 52.754 448.882 52.838 449.237 52.838C449.563 52.838 449.871 52.782 450.161 52.67C450.459 52.5487 450.707 52.3853 450.903 52.18L451.939 53.118C451.509 53.4727 451.071 53.734 450.623 53.902C450.184 54.0607 449.699 54.14 449.167 54.14ZM447.151 49.898H450.819C450.763 49.562 450.646 49.2633 450.469 49.002C450.301 48.7407 450.086 48.5353 449.825 48.386C449.573 48.2367 449.293 48.162 448.985 48.162C448.677 48.162 448.392 48.2367 448.131 48.386C447.879 48.526 447.669 48.7267 447.501 48.988C447.333 49.2493 447.216 49.5527 447.151 49.898ZM456.8 54.07C456.212 54.07 455.68 53.9113 455.204 53.594C454.728 53.2673 454.345 52.838 454.056 52.306C453.776 51.7647 453.636 51.1627 453.636 50.5C453.636 49.828 453.78 49.226 454.07 48.694C454.359 48.1527 454.751 47.7233 455.246 47.406C455.75 47.0887 456.305 46.93 456.912 46.93C457.313 46.93 457.686 47.0093 458.032 47.168C458.386 47.3173 458.694 47.5413 458.956 47.84V43.962L460.538 43.682V54H458.97V53.076C458.718 53.3933 458.405 53.6407 458.032 53.818C457.658 53.986 457.248 54.07 456.8 54.07ZM457.29 52.74C457.626 52.74 457.938 52.6747 458.228 52.544C458.517 52.404 458.76 52.2127 458.956 51.97V49.016C458.75 48.7733 458.503 48.5867 458.214 48.456C457.924 48.3253 457.616 48.26 457.29 48.26C456.888 48.26 456.529 48.358 456.212 48.554C455.904 48.7407 455.656 49.002 455.47 49.338C455.283 49.674 455.19 50.0613 455.19 50.5C455.19 50.92 455.283 51.3027 455.47 51.648C455.656 51.984 455.904 52.25 456.212 52.446C456.529 52.642 456.888 52.74 457.29 52.74ZM468.671 54.14C467.962 54.14 467.425 53.9767 467.061 53.65C466.697 53.314 466.515 52.824 466.515 52.18V48.246H465.115V46.986H466.515V45.054L468.097 44.718V46.986H470.043V48.246H468.097V51.83C468.097 52.1753 468.172 52.4227 468.321 52.572C468.47 52.712 468.722 52.782 469.077 52.782C469.236 52.782 469.38 52.7727 469.511 52.754C469.651 52.726 469.824 52.6793 470.029 52.614V53.944C469.833 54.0093 469.609 54.056 469.357 54.084C469.114 54.1213 468.886 54.14 468.671 54.14ZM471.43 54V46.986H473.012V54H471.43ZM472.228 45.558C471.957 45.558 471.724 45.4647 471.528 45.278C471.341 45.082 471.248 44.8533 471.248 44.592C471.248 44.3213 471.341 44.0927 471.528 43.906C471.724 43.71 471.957 43.612 472.228 43.612C472.499 43.612 472.727 43.71 472.914 43.906C473.11 44.0927 473.208 44.3167 473.208 44.578C473.208 44.8487 473.11 45.082 472.914 45.278C472.727 45.4647 472.499 45.558 472.228 45.558ZM474.971 54V43.962L476.553 43.682V54H474.971ZM481.761 54.14C481.089 54.14 480.482 53.9813 479.941 53.664C479.399 53.3373 478.97 52.9033 478.653 52.362C478.335 51.8113 478.177 51.1907 478.177 50.5C478.177 49.8093 478.326 49.1933 478.625 48.652C478.923 48.1107 479.329 47.6813 479.843 47.364C480.365 47.0373 480.944 46.874 481.579 46.874C482.232 46.874 482.806 47.0327 483.301 47.35C483.805 47.6673 484.197 48.0967 484.477 48.638C484.766 49.1793 484.911 49.8 484.911 50.5V50.878H479.731C479.787 51.2607 479.908 51.6013 480.095 51.9C480.291 52.1893 480.538 52.418 480.837 52.586C481.145 52.754 481.476 52.838 481.831 52.838C482.157 52.838 482.465 52.782 482.755 52.67C483.053 52.5487 483.301 52.3853 483.497 52.18L484.533 53.118C484.103 53.4727 483.665 53.734 483.217 53.902C482.778 54.0607 482.293 54.14 481.761 54.14ZM479.745 49.898H483.413C483.357 49.562 483.24 49.2633 483.063 49.002C482.895 48.7407 482.68 48.5353 482.419 48.386C482.167 48.2367 481.887 48.162 481.579 48.162C481.271 48.162 480.986 48.2367 480.725 48.386C480.473 48.526 480.263 48.7267 480.095 48.988C479.927 49.2493 479.81 49.5527 479.745 49.898Z" fill="#4D4D4D"/>
<path d="M408.1 77.132C407.444 77.132 406.836 77.016 406.276 76.784C405.716 76.544 405.176 76.184 404.656 75.704L405.22 75.032C405.724 75.504 406.196 75.84 406.636 76.04C407.084 76.24 407.58 76.34 408.124 76.34C408.556 76.34 408.94 76.268 409.276 76.124C409.62 75.972 409.888 75.768 410.08 75.512C410.272 75.256 410.368 74.964 410.368 74.636C410.368 74.212 410.228 73.892 409.948 73.676C409.668 73.452 409.184 73.28 408.496 73.16L407.14 72.932C406.372 72.796 405.808 72.564 405.448 72.236C405.096 71.9 404.92 71.452 404.92 70.892C404.92 70.42 405.04 70.004 405.28 69.644C405.528 69.276 405.868 68.988 406.3 68.78C406.732 68.572 407.232 68.468 407.8 68.468C408.424 68.468 409.004 68.556 409.54 68.732C410.076 68.9 410.604 69.168 411.124 69.536L410.644 70.256C410.212 69.928 409.756 69.68 409.276 69.512C408.796 69.336 408.308 69.248 407.812 69.248C407.42 69.248 407.072 69.316 406.768 69.452C406.472 69.588 406.236 69.772 406.06 70.004C405.892 70.236 405.808 70.5 405.808 70.796C405.808 71.164 405.932 71.452 406.18 71.66C406.428 71.868 406.832 72.016 407.392 72.104L408.736 72.332C409.632 72.492 410.28 72.752 410.68 73.112C411.088 73.464 411.292 73.956 411.292 74.588C411.292 75.076 411.152 75.512 410.872 75.896C410.6 76.28 410.224 76.584 409.744 76.808C409.264 77.024 408.716 77.132 408.1 77.132ZM414.785 77.096C414.369 77.096 414.001 77.004 413.681 76.82C413.361 76.636 413.109 76.38 412.925 76.052C412.749 75.724 412.661 75.348 412.661 74.924V71.144H413.549V74.672C413.549 75.192 413.689 75.604 413.969 75.908C414.249 76.212 414.629 76.364 415.109 76.364C415.437 76.364 415.729 76.288 415.985 76.136C416.249 75.984 416.469 75.764 416.645 75.476V71.144H417.521V77H416.645V76.052C416.421 76.396 416.153 76.656 415.841 76.832C415.537 77.008 415.185 77.096 414.785 77.096ZM419.318 77V68.42L420.194 68.24V71.948C420.418 71.668 420.69 71.452 421.01 71.3C421.33 71.148 421.686 71.072 422.078 71.072C422.59 71.072 423.046 71.208 423.446 71.48C423.854 71.744 424.178 72.104 424.418 72.56C424.658 73.008 424.778 73.512 424.778 74.072C424.778 74.632 424.654 75.14 424.406 75.596C424.166 76.052 423.838 76.416 423.422 76.688C423.014 76.952 422.55 77.084 422.03 77.084C421.662 77.084 421.318 77.012 420.998 76.868C420.686 76.716 420.414 76.504 420.182 76.232V77H419.318ZM421.862 76.328C422.254 76.328 422.602 76.232 422.906 76.04C423.218 75.84 423.462 75.572 423.638 75.236C423.822 74.892 423.914 74.508 423.914 74.084C423.914 73.652 423.822 73.268 423.638 72.932C423.462 72.596 423.218 72.332 422.906 72.14C422.602 71.94 422.254 71.84 421.862 71.84C421.518 71.84 421.198 71.912 420.902 72.056C420.614 72.192 420.378 72.388 420.194 72.644V75.512C420.386 75.768 420.626 75.968 420.914 76.112C421.21 76.256 421.526 76.328 421.862 76.328ZM428.183 77.12C427.679 77.12 427.295 77 427.031 76.76C426.775 76.512 426.647 76.156 426.647 75.692V71.864H425.435V71.144H426.647V69.536L427.523 69.332V71.144H429.203V71.864H427.523V75.464C427.523 75.776 427.587 76 427.715 76.136C427.851 76.272 428.071 76.34 428.375 76.34C428.527 76.34 428.663 76.328 428.783 76.304C428.903 76.28 429.043 76.24 429.203 76.184V76.964C429.043 77.02 428.875 77.06 428.699 77.084C428.523 77.108 428.351 77.12 428.183 77.12ZM430.474 77V71.144H431.35V77H430.474ZM430.918 69.692C430.742 69.692 430.59 69.632 430.462 69.512C430.342 69.384 430.282 69.236 430.282 69.068C430.282 68.9 430.342 68.756 430.462 68.636C430.59 68.508 430.742 68.444 430.918 68.444C431.094 68.444 431.242 68.508 431.362 68.636C431.49 68.756 431.554 68.9 431.554 69.068C431.554 69.236 431.49 69.384 431.362 69.512C431.242 69.632 431.094 69.692 430.918 69.692ZM435.378 77.12C434.874 77.12 434.49 77 434.226 76.76C433.97 76.512 433.842 76.156 433.842 75.692V71.864H432.63V71.144H433.842V69.536L434.718 69.332V71.144H436.398V71.864H434.718V75.464C434.718 75.776 434.782 76 434.91 76.136C435.046 76.272 435.266 76.34 435.57 76.34C435.722 76.34 435.858 76.328 435.978 76.304C436.098 76.28 436.238 76.24 436.398 76.184V76.964C436.238 77.02 436.07 77.06 435.894 77.084C435.718 77.108 435.546 77.12 435.378 77.12ZM437.681 77V68.336L438.557 68.156V77H437.681ZM442.993 77.12C442.449 77.12 441.957 76.988 441.517 76.724C441.077 76.452 440.729 76.088 440.473 75.632C440.217 75.168 440.089 74.648 440.089 74.072C440.089 73.496 440.209 72.98 440.449 72.524C440.697 72.068 441.029 71.708 441.445 71.444C441.861 71.18 442.325 71.048 442.837 71.048C443.357 71.048 443.817 71.18 444.217 71.444C444.625 71.7 444.945 72.052 445.177 72.5C445.417 72.94 445.537 73.44 445.537 74V74.264H440.941C440.973 74.664 441.081 75.024 441.265 75.344C441.457 75.656 441.705 75.904 442.009 76.088C442.321 76.264 442.661 76.352 443.029 76.352C443.333 76.352 443.625 76.3 443.905 76.196C444.193 76.084 444.437 75.936 444.637 75.752L445.189 76.34C444.853 76.604 444.505 76.8 444.145 76.928C443.785 77.056 443.401 77.12 442.993 77.12ZM440.965 73.64H444.673C444.633 73.288 444.525 72.976 444.349 72.704C444.181 72.424 443.965 72.204 443.701 72.044C443.445 71.884 443.157 71.804 442.837 71.804C442.517 71.804 442.225 71.884 441.961 72.044C441.697 72.196 441.477 72.412 441.301 72.692C441.133 72.964 441.021 73.28 440.965 73.64ZM452.546 79.628C452.154 79.628 451.758 79.572 451.358 79.46C450.966 79.356 450.602 79.208 450.266 79.016L450.638 78.344C450.998 78.528 451.326 78.664 451.622 78.752C451.918 78.84 452.214 78.884 452.51 78.884C453.046 78.884 453.45 78.756 453.722 78.5C454.002 78.244 454.142 77.872 454.142 77.384V76.208C453.918 76.488 453.646 76.704 453.326 76.856C453.006 77 452.654 77.072 452.27 77.072C451.766 77.072 451.31 76.94 450.902 76.676C450.494 76.404 450.17 76.044 449.93 75.596C449.69 75.14 449.57 74.632 449.57 74.072C449.57 73.512 449.69 73.008 449.93 72.56C450.178 72.104 450.51 71.744 450.926 71.48C451.342 71.208 451.806 71.072 452.318 71.072C452.686 71.072 453.026 71.144 453.338 71.288C453.65 71.424 453.922 71.628 454.154 71.9V71.144H455.018V77.372C455.018 78.1 454.806 78.656 454.382 79.04C453.958 79.432 453.346 79.628 452.546 79.628ZM452.486 76.316C452.83 76.316 453.146 76.248 453.434 76.112C453.722 75.968 453.958 75.772 454.142 75.524V72.632C453.95 72.384 453.706 72.192 453.41 72.056C453.122 71.912 452.814 71.84 452.486 71.84C452.094 71.84 451.742 71.936 451.43 72.128C451.126 72.32 450.882 72.584 450.698 72.92C450.522 73.256 450.434 73.64 450.434 74.072C450.434 74.496 450.522 74.88 450.698 75.224C450.882 75.56 451.126 75.828 451.43 76.028C451.742 76.22 452.094 76.316 452.486 76.316ZM459.41 77.096C458.866 77.096 458.378 76.964 457.946 76.7C457.514 76.436 457.174 76.076 456.926 75.62C456.678 75.164 456.554 74.648 456.554 74.072C456.554 73.496 456.678 72.98 456.926 72.524C457.174 72.068 457.514 71.708 457.946 71.444C458.378 71.18 458.866 71.048 459.41 71.048C459.946 71.048 460.426 71.18 460.85 71.444C461.282 71.708 461.622 72.068 461.87 72.524C462.118 72.98 462.242 73.496 462.242 74.072C462.242 74.648 462.118 75.164 461.87 75.62C461.622 76.076 461.282 76.436 460.85 76.7C460.426 76.964 459.946 77.096 459.41 77.096ZM459.398 76.328C459.782 76.328 460.122 76.232 460.418 76.04C460.714 75.84 460.946 75.568 461.114 75.224C461.29 74.88 461.378 74.496 461.378 74.072C461.378 73.64 461.29 73.256 461.114 72.92C460.946 72.576 460.714 72.308 460.418 72.116C460.122 71.916 459.782 71.816 459.398 71.816C459.014 71.816 458.674 71.916 458.378 72.116C458.082 72.308 457.846 72.576 457.67 72.92C457.502 73.256 457.418 73.64 457.418 74.072C457.418 74.496 457.502 74.88 457.67 75.224C457.846 75.568 458.082 75.84 458.378 76.04C458.674 76.232 459.014 76.328 459.398 76.328ZM466.419 77.12C465.875 77.12 465.383 76.988 464.943 76.724C464.503 76.452 464.155 76.088 463.899 75.632C463.643 75.168 463.515 74.648 463.515 74.072C463.515 73.496 463.635 72.98 463.875 72.524C464.123 72.068 464.455 71.708 464.871 71.444C465.287 71.18 465.751 71.048 466.263 71.048C466.783 71.048 467.243 71.18 467.643 71.444C468.051 71.7 468.371 72.052 468.603 72.5C468.843 72.94 468.963 73.44 468.963 74V74.264H464.367C464.399 74.664 464.507 75.024 464.691 75.344C464.883 75.656 465.131 75.904 465.435 76.088C465.747 76.264 466.087 76.352 466.455 76.352C466.759 76.352 467.051 76.3 467.331 76.196C467.619 76.084 467.863 75.936 468.063 75.752L468.615 76.34C468.279 76.604 467.931 76.8 467.571 76.928C467.211 77.056 466.827 77.12 466.419 77.12ZM464.391 73.64H468.099C468.059 73.288 467.951 72.976 467.775 72.704C467.607 72.424 467.391 72.204 467.127 72.044C466.871 71.884 466.583 71.804 466.263 71.804C465.943 71.804 465.651 71.884 465.387 72.044C465.123 72.196 464.903 72.412 464.727 72.692C464.559 72.964 464.447 73.28 464.391 73.64ZM472.329 77.12C471.849 77.12 471.405 77.048 470.997 76.904C470.589 76.752 470.241 76.536 469.953 76.256L470.421 75.68C470.773 75.936 471.097 76.124 471.393 76.244C471.689 76.356 471.993 76.412 472.305 76.412C472.729 76.412 473.081 76.312 473.361 76.112C473.641 75.912 473.781 75.656 473.781 75.344C473.781 75.104 473.697 74.916 473.529 74.78C473.369 74.644 473.101 74.54 472.725 74.468L471.765 74.3C471.197 74.196 470.777 74.02 470.505 73.772C470.241 73.524 470.109 73.188 470.109 72.764C470.109 72.428 470.197 72.132 470.373 71.876C470.557 71.62 470.809 71.42 471.129 71.276C471.449 71.124 471.813 71.048 472.221 71.048C472.621 71.048 473.001 71.108 473.361 71.228C473.721 71.34 474.085 71.524 474.453 71.78L474.021 72.392C473.717 72.176 473.413 72.02 473.109 71.924C472.805 71.82 472.497 71.768 472.185 71.768C471.801 71.768 471.493 71.852 471.261 72.02C471.029 72.188 470.913 72.416 470.913 72.704C470.913 72.944 470.985 73.128 471.129 73.256C471.281 73.384 471.545 73.48 471.921 73.544L472.905 73.724C473.497 73.828 473.929 74.008 474.201 74.264C474.473 74.52 474.609 74.864 474.609 75.296C474.609 75.64 474.509 75.952 474.309 76.232C474.109 76.504 473.837 76.72 473.493 76.88C473.149 77.04 472.761 77.12 472.329 77.12ZM478.744 77V68.336L479.62 68.156V72.092C479.844 71.74 480.112 71.48 480.424 71.312C480.736 71.136 481.088 71.048 481.48 71.048C481.904 71.048 482.272 71.14 482.584 71.324C482.904 71.5 483.152 71.752 483.328 72.08C483.512 72.4 483.604 72.776 483.604 73.208V77H482.728V73.46C482.728 72.94 482.584 72.532 482.296 72.236C482.016 71.932 481.636 71.78 481.156 71.78C480.836 71.78 480.544 71.856 480.28 72.008C480.016 72.16 479.796 72.384 479.62 72.68V77H478.744ZM488.005 77.12C487.461 77.12 486.969 76.988 486.529 76.724C486.089 76.452 485.741 76.088 485.485 75.632C485.229 75.168 485.101 74.648 485.101 74.072C485.101 73.496 485.221 72.98 485.461 72.524C485.709 72.068 486.041 71.708 486.457 71.444C486.873 71.18 487.337 71.048 487.849 71.048C488.369 71.048 488.829 71.18 489.229 71.444C489.637 71.7 489.957 72.052 490.189 72.5C490.429 72.94 490.549 73.44 490.549 74V74.264H485.953C485.985 74.664 486.093 75.024 486.277 75.344C486.469 75.656 486.717 75.904 487.021 76.088C487.333 76.264 487.673 76.352 488.041 76.352C488.345 76.352 488.637 76.3 488.917 76.196C489.205 76.084 489.449 75.936 489.649 75.752L490.201 76.34C489.865 76.604 489.517 76.8 489.157 76.928C488.797 77.056 488.413 77.12 488.005 77.12ZM485.977 73.64H489.685C489.645 73.288 489.537 72.976 489.361 72.704C489.193 72.424 488.977 72.204 488.713 72.044C488.457 71.884 488.169 71.804 487.849 71.804C487.529 71.804 487.237 71.884 486.973 72.044C486.709 72.196 486.489 72.412 486.313 72.692C486.145 72.964 486.033 73.28 485.977 73.64ZM492.045 77V71.144H492.921V72.344C493.073 71.936 493.289 71.62 493.569 71.396C493.857 71.164 494.185 71.048 494.553 71.048C494.657 71.048 494.753 71.056 494.841 71.072C494.929 71.08 495.017 71.1 495.105 71.132V71.924C495.009 71.892 494.905 71.868 494.793 71.852C494.689 71.828 494.589 71.816 494.493 71.816C494.133 71.816 493.817 71.92 493.545 72.128C493.281 72.336 493.073 72.628 492.921 73.004V77H492.045ZM498.54 77.12C497.996 77.12 497.504 76.988 497.064 76.724C496.624 76.452 496.276 76.088 496.02 75.632C495.764 75.168 495.636 74.648 495.636 74.072C495.636 73.496 495.756 72.98 495.996 72.524C496.244 72.068 496.576 71.708 496.992 71.444C497.408 71.18 497.872 71.048 498.384 71.048C498.904 71.048 499.364 71.18 499.764 71.444C500.172 71.7 500.492 72.052 500.724 72.5C500.964 72.94 501.084 73.44 501.084 74V74.264H496.488C496.52 74.664 496.628 75.024 496.812 75.344C497.004 75.656 497.252 75.904 497.556 76.088C497.868 76.264 498.208 76.352 498.576 76.352C498.88 76.352 499.172 76.3 499.452 76.196C499.74 76.084 499.984 75.936 500.184 75.752L500.736 76.34C500.4 76.604 500.052 76.8 499.692 76.928C499.332 77.056 498.948 77.12 498.54 77.12ZM496.512 73.64H500.22C500.18 73.288 500.072 72.976 499.896 72.704C499.728 72.424 499.512 72.204 499.248 72.044C498.992 71.884 498.704 71.804 498.384 71.804C498.064 71.804 497.772 71.884 497.508 72.044C497.244 72.196 497.024 72.412 496.848 72.692C496.68 72.964 496.568 73.28 496.512 73.64Z" fill="#4D4D4D"/>
<mask id="path-5-inside-2_203_2" fill="white">
<path d="M15 31C15 22.1634 22.1634 15 31 15H158C166.837 15 174 22.1634 174 31V90C174 98.8366 166.837 106 158 106H31C22.1634 106 15 98.8366 15 90V31Z"/>
</mask>
<path d="M15 31C15 22.1634 22.1634 15 31 15H158C166.837 15 174 22.1634 174 31V90C174 98.8366 166.837 106 158 106H31C22.1634 106 15 98.8366 15 90V31Z" fill="white"/>
<path d="M31 16H158V14H31V16ZM173 31V90H175V31H173ZM158 105H31V107H158V105ZM16 90V31H14V90H16ZM31 105C22.7157 105 16 98.2843 16 90H14C14 99.3888 21.6112 107 31 107V105ZM173 90C173 98.2843 166.284 105 158 105V107C167.389 107 175 99.3888 175 90H173ZM158 16C166.284 16 173 22.7157 173 31H175C175 21.6112 167.389 14 158 14V16ZM31 14C21.6112 14 14 21.6112 14 31H16C16 22.7157 22.7157 16 31 16V14Z" fill="#C7C7C7" mask="url(#path-5-inside-2_203_2)"/>
<path fill-rule="evenodd" clip-rule="evenodd" d="M50.875 47.1426C50.875 47.0293 50.7832 46.9375 50.6699 46.9375H49.3301C49.2168 46.9375 49.125 47.0293 49.125 47.1426V49.125H47.1426C47.0293 49.125 46.9375 49.2168 46.9375 49.3301V50.6699C46.9375 50.7832 47.0293 50.875 47.1426 50.875H49.125V52.8561C49.1248 52.9696 49.2165 53.062 49.3301 53.0625H50.6699C50.7835 53.062 50.8752 52.9696 50.875 52.8561V50.875H52.8574C52.9117 50.8754 52.9639 50.8541 53.0024 50.8158C53.0409 50.7776 53.0625 50.7256 53.0625 50.6713V49.3314C53.0627 49.2179 52.971 49.1255 52.8574 49.125H50.875V47.1426ZM50 55.25C47.1043 55.25 44.75 52.8971 44.75 50C44.75 47.1057 47.1043 44.75 50 44.75C52.8957 44.75 55.25 47.1043 55.25 50C55.25 52.8957 52.8943 55.25 50 55.25ZM50.0014 43C46.1404 43 43 46.1418 43 50C43 53.8582 46.1418 57 50.0014 57C53.8609 57 57 53.8596 57 50C57 46.1404 53.8609 43 50.0014 43Z" fill="#1F1F1F"/>
<path d="M68.0108 54V45.656H64.7348V44.2H72.9668V45.656H69.6908V54H68.0108ZM74.2785 54V46.986H75.8605V54H74.2785ZM75.0765 45.558C74.8058 45.558 74.5725 45.4647 74.3765 45.278C74.1898 45.082 74.0965 44.8533 74.0965 44.592C74.0965 44.3213 74.1898 44.0927 74.3765 43.906C74.5725 43.71 74.8058 43.612 75.0765 43.612C75.3472 43.612 75.5758 43.71 75.7625 43.906C75.9585 44.0927 76.0565 44.3167 76.0565 44.578C76.0565 44.8487 75.9585 45.082 75.7625 45.278C75.5758 45.4647 75.3472 45.558 75.0765 45.558ZM77.8198 54V43.962L79.4018 43.682V54H77.8198ZM84.6092 54.14C83.9372 54.14 83.3305 53.9813 82.7892 53.664C82.2479 53.3373 81.8185 52.9033 81.5012 52.362C81.1839 51.8113 81.0252 51.1907 81.0252 50.5C81.0252 49.8093 81.1745 49.1933 81.4732 48.652C81.7719 48.1107 82.1779 47.6813 82.6912 47.364C83.2139 47.0373 83.7925 46.874 84.4272 46.874C85.0805 46.874 85.6545 47.0327 86.1492 47.35C86.6532 47.6673 87.0452 48.0967 87.3252 48.638C87.6145 49.1793 87.7592 49.8 87.7592 50.5V50.878H82.5792C82.6352 51.2607 82.7565 51.6013 82.9432 51.9C83.1392 52.1893 83.3865 52.418 83.6852 52.586C83.9932 52.754 84.3245 52.838 84.6792 52.838C85.0059 52.838 85.3139 52.782 85.6032 52.67C85.9019 52.5487 86.1492 52.3853 86.3452 52.18L87.3812 53.118C86.9519 53.4727 86.5132 53.734 86.0652 53.902C85.6265 54.0607 85.1412 54.14 84.6092 54.14ZM82.5932 49.898H86.2612C86.2052 49.562 86.0885 49.2633 85.9112 49.002C85.7432 48.7407 85.5285 48.5353 85.2672 48.386C85.0152 48.2367 84.7352 48.162 84.4272 48.162C84.1192 48.162 83.8345 48.2367 83.5732 48.386C83.3212 48.526 83.1112 48.7267 82.9432 48.988C82.7752 49.2493 82.6585 49.5527 82.5932 49.898ZM93.7491 54L91.8591 46.986H93.3711L94.6031 51.928L96.0591 46.986H97.3891L98.8311 51.928L100.063 46.986H101.533L99.6431 54H98.1311L96.7031 49.058L95.2891 54H93.7491ZM102.812 54V46.986H104.394V54H102.812ZM103.61 45.558C103.339 45.558 103.106 45.4647 102.91 45.278C102.723 45.082 102.63 44.8533 102.63 44.592C102.63 44.3213 102.723 44.0927 102.91 43.906C103.106 43.71 103.339 43.612 103.61 43.612C103.88 43.612 104.109 43.71 104.296 43.906C104.492 44.0927 104.59 44.3167 104.59 44.578C104.59 44.8487 104.492 45.082 104.296 45.278C104.109 45.4647 103.88 45.558 103.61 45.558ZM109.377 54.14C108.668 54.14 108.131 53.9767 107.767 53.65C107.403 53.314 107.221 52.824 107.221 52.18V48.246H105.821V46.986H107.221V45.054L108.803 44.718V46.986H110.749V48.246H108.803V51.83C108.803 52.1753 108.878 52.4227 109.027 52.572C109.176 52.712 109.428 52.782 109.783 52.782C109.942 52.782 110.086 52.7727 110.217 52.754C110.357 52.726 110.53 52.6793 110.735 52.614V53.944C110.539 54.0093 110.315 54.056 110.063 54.084C109.82 54.1213 109.592 54.14 109.377 54.14ZM112.15 54V43.962L113.732 43.682V48.134C114.003 47.714 114.325 47.4013 114.698 47.196C115.071 46.9813 115.487 46.874 115.944 46.874C116.429 46.874 116.854 46.9813 117.218 47.196C117.582 47.4013 117.867 47.6907 118.072 48.064C118.287 48.4373 118.394 48.876 118.394 49.38V54H116.798V49.828C116.798 49.3147 116.658 48.9087 116.378 48.61C116.098 48.302 115.725 48.148 115.258 48.148C114.941 48.148 114.651 48.2227 114.39 48.372C114.138 48.512 113.919 48.722 113.732 49.002V54H112.15ZM123.429 54V46.986H125.011V54H123.429ZM124.227 45.558C123.956 45.558 123.723 45.4647 123.527 45.278C123.34 45.082 123.247 44.8533 123.247 44.592C123.247 44.3213 123.34 44.0927 123.527 43.906C123.723 43.71 123.956 43.612 124.227 43.612C124.498 43.612 124.726 43.71 124.913 43.906C125.109 44.0927 125.207 44.3167 125.207 44.578C125.207 44.8487 125.109 45.082 124.913 45.278C124.726 45.4647 124.498 45.558 124.227 45.558ZM130.19 54.126C129.528 54.126 128.926 53.9673 128.384 53.65C127.852 53.3233 127.428 52.8847 127.11 52.334C126.802 51.7833 126.648 51.172 126.648 50.5C126.648 49.8187 126.802 49.2073 127.11 48.666C127.428 48.1153 127.852 47.6813 128.384 47.364C128.926 47.0373 129.528 46.874 130.19 46.874C130.732 46.874 131.245 46.9767 131.73 47.182C132.225 47.3873 132.645 47.6813 132.99 48.064L132.01 49.086C131.768 48.8153 131.497 48.61 131.198 48.47C130.9 48.33 130.582 48.26 130.246 48.26C129.864 48.26 129.518 48.3627 129.21 48.568C128.912 48.764 128.674 49.03 128.496 49.366C128.319 49.702 128.23 50.08 128.23 50.5C128.23 50.92 128.319 51.3027 128.496 51.648C128.674 51.984 128.912 52.25 129.21 52.446C129.518 52.642 129.864 52.74 130.246 52.74C130.582 52.74 130.9 52.67 131.198 52.53C131.497 52.39 131.768 52.1893 132.01 51.928L132.99 52.936C132.645 53.3187 132.225 53.6127 131.73 53.818C131.245 54.0233 130.732 54.126 130.19 54.126ZM137.299 54.126C136.637 54.126 136.035 53.9673 135.493 53.65C134.961 53.3327 134.541 52.9033 134.233 52.362C133.925 51.8113 133.771 51.1907 133.771 50.5C133.771 49.8093 133.925 49.1933 134.233 48.652C134.541 48.1013 134.961 47.6673 135.493 47.35C136.025 47.0327 136.627 46.874 137.299 46.874C137.971 46.874 138.569 47.0327 139.091 47.35C139.623 47.6673 140.043 48.1013 140.351 48.652C140.659 49.1933 140.813 49.8093 140.813 50.5C140.813 51.1907 140.659 51.8113 140.351 52.362C140.043 52.9033 139.623 53.3327 139.091 53.65C138.569 53.9673 137.971 54.126 137.299 54.126ZM137.299 52.782C137.682 52.782 138.018 52.684 138.307 52.488C138.606 52.292 138.839 52.0213 139.007 51.676C139.175 51.3213 139.259 50.9293 139.259 50.5C139.259 50.0613 139.175 49.674 139.007 49.338C138.839 48.9927 138.606 48.722 138.307 48.526C138.018 48.3207 137.682 48.218 137.299 48.218C136.917 48.218 136.576 48.3207 136.277 48.526C135.979 48.722 135.745 48.9927 135.577 49.338C135.409 49.674 135.325 50.0613 135.325 50.5C135.325 50.9387 135.409 51.3307 135.577 51.676C135.745 52.0213 135.979 52.292 136.277 52.488C136.576 52.684 136.917 52.782 137.299 52.782ZM142.447 54V46.986H144.029V48.134C144.299 47.714 144.621 47.4013 144.995 47.196C145.368 46.9813 145.783 46.874 146.241 46.874C146.726 46.874 147.151 46.9813 147.515 47.196C147.879 47.4013 148.163 47.6907 148.369 48.064C148.583 48.4373 148.691 48.876 148.691 49.38V54H147.095V49.828C147.095 49.3147 146.955 48.9087 146.675 48.61C146.395 48.302 146.021 48.148 145.555 48.148C145.237 48.148 144.948 48.2227 144.687 48.372C144.435 48.512 144.215 48.722 144.029 49.002V54H142.447Z" fill="#151515"/>
<path d="M43.1003 77.132C42.4443 77.132 41.8363 77.016 41.2763 76.784C40.7163 76.544 40.1763 76.184 39.6563 75.704L40.2203 75.032C40.7243 75.504 41.1963 75.84 41.6363 76.04C42.0843 76.24 42.5803 76.34 43.1243 76.34C43.5563 76.34 43.9403 76.268 44.2763 76.124C44.6203 75.972 44.8883 75.768 45.0803 75.512C45.2723 75.256 45.3683 74.964 45.3683 74.636C45.3683 74.212 45.2283 73.892 44.9483 73.676C44.6683 73.452 44.1843 73.28 43.4963 73.16L42.1403 72.932C41.3723 72.796 40.8083 72.564 40.4483 72.236C40.0963 71.9 39.9203 71.452 39.9203 70.892C39.9203 70.42 40.0403 70.004 40.2803 69.644C40.5283 69.276 40.8683 68.988 41.3003 68.78C41.7323 68.572 42.2323 68.468 42.8003 68.468C43.4243 68.468 44.0043 68.556 44.5403 68.732C45.0763 68.9 45.6043 69.168 46.1243 69.536L45.6443 70.256C45.2123 69.928 44.7563 69.68 44.2763 69.512C43.7963 69.336 43.3083 69.248 42.8123 69.248C42.4203 69.248 42.0723 69.316 41.7683 69.452C41.4723 69.588 41.2363 69.772 41.0603 70.004C40.8923 70.236 40.8083 70.5 40.8083 70.796C40.8083 71.164 40.9323 71.452 41.1803 71.66C41.4283 71.868 41.8323 72.016 42.3923 72.104L43.7363 72.332C44.6323 72.492 45.2803 72.752 45.6803 73.112C46.0883 73.464 46.2923 73.956 46.2923 74.588C46.2923 75.076 46.1523 75.512 45.8723 75.896C45.6003 76.28 45.2243 76.584 44.7443 76.808C44.2643 77.024 43.7163 77.132 43.1003 77.132ZM49.7849 77.096C49.3689 77.096 49.0009 77.004 48.6809 76.82C48.3609 76.636 48.1089 76.38 47.9249 76.052C47.7489 75.724 47.6609 75.348 47.6609 74.924V71.144H48.5489V74.672C48.5489 75.192 48.6889 75.604 48.9689 75.908C49.2489 76.212 49.6289 76.364 50.1089 76.364C50.4369 76.364 50.7289 76.288 50.9849 76.136C51.2489 75.984 51.4689 75.764 51.6449 75.476V71.144H52.5209V77H51.6449V76.052C51.4209 76.396 51.1529 76.656 50.8409 76.832C50.5369 77.008 50.1849 77.096 49.7849 77.096ZM54.318 77V68.42L55.194 68.24V71.948C55.418 71.668 55.69 71.452 56.01 71.3C56.33 71.148 56.686 71.072 57.078 71.072C57.59 71.072 58.046 71.208 58.446 71.48C58.854 71.744 59.178 72.104 59.418 72.56C59.658 73.008 59.778 73.512 59.778 74.072C59.778 74.632 59.654 75.14 59.406 75.596C59.166 76.052 58.838 76.416 58.422 76.688C58.014 76.952 57.55 77.084 57.03 77.084C56.662 77.084 56.318 77.012 55.998 76.868C55.686 76.716 55.414 76.504 55.182 76.232V77H54.318ZM56.862 76.328C57.254 76.328 57.602 76.232 57.906 76.04C58.218 75.84 58.462 75.572 58.638 75.236C58.822 74.892 58.914 74.508 58.914 74.084C58.914 73.652 58.822 73.268 58.638 72.932C58.462 72.596 58.218 72.332 57.906 72.14C57.602 71.94 57.254 71.84 56.862 71.84C56.518 71.84 56.198 71.912 55.902 72.056C55.614 72.192 55.378 72.388 55.194 72.644V75.512C55.386 75.768 55.626 75.968 55.914 76.112C56.21 76.256 56.526 76.328 56.862 76.328ZM63.1828 77.12C62.6788 77.12 62.2948 77 62.0308 76.76C61.7748 76.512 61.6468 76.156 61.6468 75.692V71.864H60.4348V71.144H61.6468V69.536L62.5228 69.332V71.144H64.2028V71.864H62.5228V75.464C62.5228 75.776 62.5868 76 62.7148 76.136C62.8508 76.272 63.0708 76.34 63.3748 76.34C63.5268 76.34 63.6628 76.328 63.7828 76.304C63.9028 76.28 64.0428 76.24 64.2028 76.184V76.964C64.0428 77.02 63.8748 77.06 63.6988 77.084C63.5228 77.108 63.3508 77.12 63.1828 77.12ZM65.4739 77V71.144H66.3499V77H65.4739ZM65.9179 69.692C65.7419 69.692 65.5899 69.632 65.4619 69.512C65.3419 69.384 65.2819 69.236 65.2819 69.068C65.2819 68.9 65.3419 68.756 65.4619 68.636C65.5899 68.508 65.7419 68.444 65.9179 68.444C66.0939 68.444 66.2419 68.508 66.3619 68.636C66.4899 68.756 66.5539 68.9 66.5539 69.068C66.5539 69.236 66.4899 69.384 66.3619 69.512C66.2419 69.632 66.0939 69.692 65.9179 69.692ZM70.3781 77.12C69.8741 77.12 69.4901 77 69.2261 76.76C68.9701 76.512 68.8421 76.156 68.8421 75.692V71.864H67.6301V71.144H68.8421V69.536L69.7181 69.332V71.144H71.3981V71.864H69.7181V75.464C69.7181 75.776 69.7821 76 69.9101 76.136C70.0461 76.272 70.2661 76.34 70.5701 76.34C70.7221 76.34 70.8581 76.328 70.9781 76.304C71.0981 76.28 71.2381 76.24 71.3981 76.184V76.964C71.2381 77.02 71.0701 77.06 70.8941 77.084C70.7181 77.108 70.5461 77.12 70.3781 77.12ZM72.6813 77V68.336L73.5573 68.156V77H72.6813ZM77.9931 77.12C77.4491 77.12 76.9571 76.988 76.5171 76.724C76.0771 76.452 75.7291 76.088 75.4731 75.632C75.2171 75.168 75.0891 74.648 75.0891 74.072C75.0891 73.496 75.2091 72.98 75.4491 72.524C75.6971 72.068 76.0291 71.708 76.4451 71.444C76.8611 71.18 77.3251 71.048 77.8371 71.048C78.3571 71.048 78.8171 71.18 79.2171 71.444C79.6251 71.7 79.9451 72.052 80.1771 72.5C80.4171 72.94 80.5371 73.44 80.5371 74V74.264H75.9411C75.9731 74.664 76.0811 75.024 76.2651 75.344C76.4571 75.656 76.7051 75.904 77.0091 76.088C77.3211 76.264 77.6611 76.352 78.0291 76.352C78.3331 76.352 78.6251 76.3 78.9051 76.196C79.1931 76.084 79.4371 75.936 79.6371 75.752L80.1891 76.34C79.8531 76.604 79.5051 76.8 79.1451 76.928C78.7851 77.056 78.4011 77.12 77.9931 77.12ZM75.9651 73.64H79.6731C79.6331 73.288 79.5251 72.976 79.3491 72.704C79.1811 72.424 78.9651 72.204 78.7011 72.044C78.4451 71.884 78.1571 71.804 77.8371 71.804C77.5171 71.804 77.2251 71.884 76.9611 72.044C76.6971 72.196 76.4771 72.412 76.3011 72.692C76.1331 72.964 76.0211 73.28 75.9651 73.64ZM87.5456 79.628C87.1536 79.628 86.7576 79.572 86.3576 79.46C85.9656 79.356 85.6016 79.208 85.2656 79.016L85.6376 78.344C85.9976 78.528 86.3256 78.664 86.6216 78.752C86.9176 78.84 87.2136 78.884 87.5096 78.884C88.0456 78.884 88.4496 78.756 88.7216 78.5C89.0016 78.244 89.1416 77.872 89.1416 77.384V76.208C88.9176 76.488 88.6456 76.704 88.3256 76.856C88.0056 77 87.6536 77.072 87.2696 77.072C86.7656 77.072 86.3096 76.94 85.9016 76.676C85.4936 76.404 85.1696 76.044 84.9296 75.596C84.6896 75.14 84.5696 74.632 84.5696 74.072C84.5696 73.512 84.6896 73.008 84.9296 72.56C85.1776 72.104 85.5096 71.744 85.9256 71.48C86.3416 71.208 86.8056 71.072 87.3176 71.072C87.6856 71.072 88.0256 71.144 88.3376 71.288C88.6496 71.424 88.9216 71.628 89.1536 71.9V71.144H90.0176V77.372C90.0176 78.1 89.8056 78.656 89.3816 79.04C88.9576 79.432 88.3456 79.628 87.5456 79.628ZM87.4856 76.316C87.8296 76.316 88.1456 76.248 88.4336 76.112C88.7216 75.968 88.9576 75.772 89.1416 75.524V72.632C88.9496 72.384 88.7056 72.192 88.4096 72.056C88.1216 71.912 87.8136 71.84 87.4856 71.84C87.0936 71.84 86.7416 71.936 86.4296 72.128C86.1256 72.32 85.8816 72.584 85.6976 72.92C85.5216 73.256 85.4336 73.64 85.4336 74.072C85.4336 74.496 85.5216 74.88 85.6976 75.224C85.8816 75.56 86.1256 75.828 86.4296 76.028C86.7416 76.22 87.0936 76.316 87.4856 76.316ZM94.41 77.096C93.866 77.096 93.378 76.964 92.946 76.7C92.514 76.436 92.174 76.076 91.926 75.62C91.678 75.164 91.554 74.648 91.554 74.072C91.554 73.496 91.678 72.98 91.926 72.524C92.174 72.068 92.514 71.708 92.946 71.444C93.378 71.18 93.866 71.048 94.41 71.048C94.946 71.048 95.426 71.18 95.85 71.444C96.282 71.708 96.622 72.068 96.87 72.524C97.118 72.98 97.242 73.496 97.242 74.072C97.242 74.648 97.118 75.164 96.87 75.62C96.622 76.076 96.282 76.436 95.85 76.7C95.426 76.964 94.946 77.096 94.41 77.096ZM94.398 76.328C94.782 76.328 95.122 76.232 95.418 76.04C95.714 75.84 95.946 75.568 96.114 75.224C96.29 74.88 96.378 74.496 96.378 74.072C96.378 73.64 96.29 73.256 96.114 72.92C95.946 72.576 95.714 72.308 95.418 72.116C95.122 71.916 94.782 71.816 94.398 71.816C94.014 71.816 93.674 71.916 93.378 72.116C93.082 72.308 92.846 72.576 92.67 72.92C92.502 73.256 92.418 73.64 92.418 74.072C92.418 74.496 92.502 74.88 92.67 75.224C92.846 75.568 93.082 75.84 93.378 76.04C93.674 76.232 94.014 76.328 94.398 76.328ZM101.419 77.12C100.875 77.12 100.383 76.988 99.9429 76.724C99.5029 76.452 99.1549 76.088 98.8989 75.632C98.6429 75.168 98.5149 74.648 98.5149 74.072C98.5149 73.496 98.6349 72.98 98.8749 72.524C99.1229 72.068 99.4549 71.708 99.8709 71.444C100.287 71.18 100.751 71.048 101.263 71.048C101.783 71.048 102.243 71.18 102.643 71.444C103.051 71.7 103.371 72.052 103.603 72.5C103.843 72.94 103.963 73.44 103.963 74V74.264H99.3669C99.3989 74.664 99.5069 75.024 99.6909 75.344C99.8829 75.656 100.131 75.904 100.435 76.088C100.747 76.264 101.087 76.352 101.455 76.352C101.759 76.352 102.051 76.3 102.331 76.196C102.619 76.084 102.863 75.936 103.063 75.752L103.615 76.34C103.279 76.604 102.931 76.8 102.571 76.928C102.211 77.056 101.827 77.12 101.419 77.12ZM99.3909 73.64H103.099C103.059 73.288 102.951 72.976 102.775 72.704C102.607 72.424 102.391 72.204 102.127 72.044C101.871 71.884 101.583 71.804 101.263 71.804C100.943 71.804 100.651 71.884 100.387 72.044C100.123 72.196 99.9029 72.412 99.7269 72.692C99.5589 72.964 99.4469 73.28 99.3909 73.64ZM107.329 77.12C106.849 77.12 106.405 77.048 105.997 76.904C105.589 76.752 105.241 76.536 104.953 76.256L105.421 75.68C105.773 75.936 106.097 76.124 106.393 76.244C106.689 76.356 106.993 76.412 107.305 76.412C107.729 76.412 108.081 76.312 108.361 76.112C108.641 75.912 108.781 75.656 108.781 75.344C108.781 75.104 108.697 74.916 108.529 74.78C108.369 74.644 108.101 74.54 107.725 74.468L106.765 74.3C106.197 74.196 105.777 74.02 105.505 73.772C105.241 73.524 105.109 73.188 105.109 72.764C105.109 72.428 105.197 72.132 105.373 71.876C105.557 71.62 105.809 71.42 106.129 71.276C106.449 71.124 106.813 71.048 107.221 71.048C107.621 71.048 108.001 71.108 108.361 71.228C108.721 71.34 109.085 71.524 109.453 71.78L109.021 72.392C108.717 72.176 108.413 72.02 108.109 71.924C107.805 71.82 107.497 71.768 107.185 71.768C106.801 71.768 106.493 71.852 106.261 72.02C106.029 72.188 105.913 72.416 105.913 72.704C105.913 72.944 105.985 73.128 106.129 73.256C106.281 73.384 106.545 73.48 106.921 73.544L107.905 73.724C108.497 73.828 108.929 74.008 109.201 74.264C109.473 74.52 109.609 74.864 109.609 75.296C109.609 75.64 109.509 75.952 109.309 76.232C109.109 76.504 108.837 76.72 108.493 76.88C108.149 77.04 107.761 77.12 107.329 77.12ZM113.744 77V68.336L114.62 68.156V72.092C114.844 71.74 115.112 71.48 115.424 71.312C115.736 71.136 116.088 71.048 116.48 71.048C116.904 71.048 117.272 71.14 117.584 71.324C117.904 71.5 118.152 71.752 118.328 72.08C118.512 72.4 118.604 72.776 118.604 73.208V77H117.728V73.46C117.728 72.94 117.584 72.532 117.296 72.236C117.016 71.932 116.636 71.78 116.156 71.78C115.836 71.78 115.544 71.856 115.28 72.008C115.016 72.16 114.796 72.384 114.62 72.68V77H113.744ZM123.005 77.12C122.461 77.12 121.969 76.988 121.529 76.724C121.089 76.452 120.741 76.088 120.485 75.632C120.229 75.168 120.101 74.648 120.101 74.072C120.101 73.496 120.221 72.98 120.461 72.524C120.709 72.068 121.041 71.708 121.457 71.444C121.873 71.18 122.337 71.048 122.849 71.048C123.369 71.048 123.829 71.18 124.229 71.444C124.637 71.7 124.957 72.052 125.189 72.5C125.429 72.94 125.549 73.44 125.549 74V74.264H120.953C120.985 74.664 121.093 75.024 121.277 75.344C121.469 75.656 121.717 75.904 122.021 76.088C122.333 76.264 122.673 76.352 123.041 76.352C123.345 76.352 123.637 76.3 123.917 76.196C124.205 76.084 124.449 75.936 124.649 75.752L125.201 76.34C124.865 76.604 124.517 76.8 124.157 76.928C123.797 77.056 123.413 77.12 123.005 77.12ZM120.977 73.64H124.685C124.645 73.288 124.537 72.976 124.361 72.704C124.193 72.424 123.977 72.204 123.713 72.044C123.457 71.884 123.169 71.804 122.849 71.804C122.529 71.804 122.237 71.884 121.973 72.044C121.709 72.196 121.489 72.412 121.313 72.692C121.145 72.964 121.033 73.28 120.977 73.64ZM127.045 77V71.144H127.921V72.344C128.073 71.936 128.289 71.62 128.569 71.396C128.857 71.164 129.185 71.048 129.553 71.048C129.657 71.048 129.753 71.056 129.841 71.072C129.929 71.08 130.017 71.1 130.105 71.132V71.924C130.009 71.892 129.905 71.868 129.793 71.852C129.689 71.828 129.589 71.816 129.493 71.816C129.133 71.816 128.817 71.92 128.545 72.128C128.281 72.336 128.073 72.628 127.921 73.004V77H127.045ZM133.54 77.12C132.996 77.12 132.504 76.988 132.064 76.724C131.624 76.452 131.276 76.088 131.02 75.632C130.764 75.168 130.636 74.648 130.636 74.072C130.636 73.496 130.756 72.98 130.996 72.524C131.244 72.068 131.576 71.708 131.992 71.444C132.408 71.18 132.872 71.048 133.384 71.048C133.904 71.048 134.364 71.18 134.764 71.444C135.172 71.7 135.492 72.052 135.724 72.5C135.964 72.94 136.084 73.44 136.084 74V74.264H131.488C131.52 74.664 131.628 75.024 131.812 75.344C132.004 75.656 132.252 75.904 132.556 76.088C132.868 76.264 133.208 76.352 133.576 76.352C133.88 76.352 134.172 76.3 134.452 76.196C134.74 76.084 134.984 75.936 135.184 75.752L135.736 76.34C135.4 76.604 135.052 76.8 134.692 76.928C134.332 77.056 133.948 77.12 133.54 77.12ZM131.512 73.64H135.22C135.18 73.288 135.072 72.976 134.896 72.704C134.728 72.424 134.512 72.204 134.248 72.044C133.992 71.884 133.704 71.804 133.384 71.804C133.064 71.804 132.772 71.884 132.508 72.044C132.244 72.196 132.024 72.412 131.848 72.692C131.68 72.964 131.568 73.28 131.512 73.64Z" fill="#151515"/>
<mask id="path-10-inside-3_203_2" fill="white">
<path d="M204 31C204 22.1634 211.163 15 220 15H334C342.837 15 350 22.1634 350 31V90C350 98.8366 342.837 106 334 106H220C211.163 106 204 98.8366 204 90V31Z"/>
</mask>
<path d="M204 31C204 22.1634 211.163 15 220 15H334C342.837 15 350 22.1634 350 31V90C350 98.8366 342.837 106 334 106H220C211.163 106 204 98.8366 204 90V31Z" fill="white"/>
<path d="M220 17H334V13H220V17ZM348 31V90H352V31H348ZM334 104H220V108H334V104ZM206 90V31H202V90H206ZM220 104C212.268 104 206 97.732 206 90H202C202 99.9411 210.059 108 220 108V104ZM348 90C348 97.732 341.732 104 334 104V108C343.941 108 352 99.9411 352 90H348ZM334 17C341.732 17 348 23.268 348 31H352C352 21.0589 343.941 13 334 13V17ZM220 13C210.059 13 202 21.0589 202 31H206C206 23.268 212.268 17 220 17V13Z" fill="#0066CC" mask="url(#path-10-inside-3_203_2)"/>
<path d="M232.738 54.154C231.973 54.154 231.249 54.0233 230.568 53.762C229.896 53.4913 229.247 53.0947 228.622 52.572L229.532 51.34C230.167 51.8533 230.731 52.222 231.226 52.446C231.73 52.6607 232.267 52.768 232.836 52.768C233.265 52.768 233.643 52.7027 233.97 52.572C234.306 52.432 234.563 52.2453 234.74 52.012C234.927 51.7787 235.02 51.508 235.02 51.2C235.02 50.7987 234.885 50.4953 234.614 50.29C234.353 50.0753 233.895 49.912 233.242 49.8L231.436 49.492C230.587 49.3427 229.952 49.058 229.532 48.638C229.121 48.2087 228.916 47.6627 228.916 47C228.916 46.412 229.065 45.8987 229.364 45.46C229.663 45.012 230.078 44.6667 230.61 44.424C231.151 44.172 231.791 44.046 232.528 44.046C233.265 44.046 233.965 44.1533 234.628 44.368C235.291 44.5827 235.902 44.8953 236.462 45.306L235.608 46.566C235.113 46.1927 234.605 45.9127 234.082 45.726C233.559 45.53 233.023 45.432 232.472 45.432C232.08 45.432 231.735 45.4927 231.436 45.614C231.147 45.7353 230.918 45.9033 230.75 46.118C230.591 46.3327 230.512 46.5707 230.512 46.832C230.512 47.1867 230.629 47.462 230.862 47.658C231.105 47.8447 231.492 47.9847 232.024 48.078L233.774 48.372C234.763 48.5493 235.491 48.8573 235.958 49.296C236.434 49.7347 236.672 50.3273 236.672 51.074C236.672 51.6713 236.504 52.2033 236.168 52.67C235.841 53.1367 235.384 53.5007 234.796 53.762C234.208 54.0233 233.522 54.154 232.738 54.154ZM241.579 54.14C240.907 54.14 240.3 53.9813 239.759 53.664C239.218 53.3373 238.788 52.9033 238.471 52.362C238.154 51.8113 237.995 51.1907 237.995 50.5C237.995 49.8093 238.144 49.1933 238.443 48.652C238.742 48.1107 239.148 47.6813 239.661 47.364C240.184 47.0373 240.762 46.874 241.397 46.874C242.05 46.874 242.624 47.0327 243.119 47.35C243.623 47.6673 244.015 48.0967 244.295 48.638C244.584 49.1793 244.729 49.8 244.729 50.5V50.878H239.549C239.605 51.2607 239.726 51.6013 239.913 51.9C240.109 52.1893 240.356 52.418 240.655 52.586C240.963 52.754 241.294 52.838 241.649 52.838C241.976 52.838 242.284 52.782 242.573 52.67C242.872 52.5487 243.119 52.3853 243.315 52.18L244.351 53.118C243.922 53.4727 243.483 53.734 243.035 53.902C242.596 54.0607 242.111 54.14 241.579 54.14ZM239.563 49.898H243.231C243.175 49.562 243.058 49.2633 242.881 49.002C242.713 48.7407 242.498 48.5353 242.237 48.386C241.985 48.2367 241.705 48.162 241.397 48.162C241.089 48.162 240.804 48.2367 240.543 48.386C240.291 48.526 240.081 48.7267 239.913 48.988C239.745 49.2493 239.628 49.5527 239.563 49.898ZM246.342 54V43.962L247.924 43.682V54H246.342ZM253.132 54.14C252.46 54.14 251.853 53.9813 251.312 53.664C250.77 53.3373 250.341 52.9033 250.024 52.362C249.706 51.8113 249.548 51.1907 249.548 50.5C249.548 49.8093 249.697 49.1933 249.996 48.652C250.294 48.1107 250.7 47.6813 251.214 47.364C251.736 47.0373 252.315 46.874 252.95 46.874C253.603 46.874 254.177 47.0327 254.672 47.35C255.176 47.6673 255.568 48.0967 255.848 48.638C256.137 49.1793 256.282 49.8 256.282 50.5V50.878H251.102C251.158 51.2607 251.279 51.6013 251.466 51.9C251.662 52.1893 251.909 52.418 252.208 52.586C252.516 52.754 252.847 52.838 253.202 52.838C253.528 52.838 253.836 52.782 254.126 52.67C254.424 52.5487 254.672 52.3853 254.868 52.18L255.904 53.118C255.474 53.4727 255.036 53.734 254.588 53.902C254.149 54.0607 253.664 54.14 253.132 54.14ZM251.116 49.898H254.784C254.728 49.562 254.611 49.2633 254.434 49.002C254.266 48.7407 254.051 48.5353 253.79 48.386C253.538 48.2367 253.258 48.162 252.95 48.162C252.642 48.162 252.357 48.2367 252.096 48.386C251.844 48.526 251.634 48.7267 251.466 48.988C251.298 49.2493 251.181 49.5527 251.116 49.898ZM261.142 54.126C260.48 54.126 259.878 53.9673 259.336 53.65C258.804 53.3233 258.38 52.8847 258.062 52.334C257.754 51.7833 257.6 51.172 257.6 50.5C257.6 49.8187 257.754 49.2073 258.062 48.666C258.38 48.1153 258.804 47.6813 259.336 47.364C259.878 47.0373 260.48 46.874 261.142 46.874C261.684 46.874 262.197 46.9767 262.682 47.182C263.177 47.3873 263.597 47.6813 263.942 48.064L262.962 49.086C262.72 48.8153 262.449 48.61 262.15 48.47C261.852 48.33 261.534 48.26 261.198 48.26C260.816 48.26 260.47 48.3627 260.162 48.568C259.864 48.764 259.626 49.03 259.448 49.366C259.271 49.702 259.182 50.08 259.182 50.5C259.182 50.92 259.271 51.3027 259.448 51.648C259.626 51.984 259.864 52.25 260.162 52.446C260.47 52.642 260.816 52.74 261.198 52.74C261.534 52.74 261.852 52.67 262.15 52.53C262.449 52.39 262.72 52.1893 262.962 51.928L263.942 52.936C263.597 53.3187 263.177 53.6127 262.682 53.818C262.197 54.0233 261.684 54.126 261.142 54.126ZM268.411 54.14C267.702 54.14 267.165 53.9767 266.801 53.65C266.437 53.314 266.255 52.824 266.255 52.18V48.246H264.855V46.986H266.255V45.054L267.837 44.718V46.986H269.783V48.246H267.837V51.83C267.837 52.1753 267.912 52.4227 268.061 52.572C268.211 52.712 268.463 52.782 268.817 52.782C268.976 52.782 269.121 52.7727 269.251 52.754C269.391 52.726 269.564 52.6793 269.769 52.614V53.944C269.573 54.0093 269.349 54.056 269.097 54.084C268.855 54.1213 268.626 54.14 268.411 54.14ZM274.337 54.14C273.665 54.14 273.058 53.9813 272.517 53.664C271.975 53.3373 271.546 52.9033 271.229 52.362C270.911 51.8113 270.753 51.1907 270.753 50.5C270.753 49.8093 270.902 49.1933 271.201 48.652C271.499 48.1107 271.905 47.6813 272.419 47.364C272.941 47.0373 273.52 46.874 274.155 46.874C274.808 46.874 275.382 47.0327 275.877 47.35C276.381 47.6673 276.773 48.0967 277.053 48.638C277.342 49.1793 277.487 49.8 277.487 50.5V50.878H272.307C272.363 51.2607 272.484 51.6013 272.671 51.9C272.867 52.1893 273.114 52.418 273.413 52.586C273.721 52.754 274.052 52.838 274.407 52.838C274.733 52.838 275.041 52.782 275.331 52.67C275.629 52.5487 275.877 52.3853 276.073 52.18L277.109 53.118C276.679 53.4727 276.241 53.734 275.793 53.902C275.354 54.0607 274.869 54.14 274.337 54.14ZM272.321 49.898H275.989C275.933 49.562 275.816 49.2633 275.639 49.002C275.471 48.7407 275.256 48.5353 274.995 48.386C274.743 48.2367 274.463 48.162 274.155 48.162C273.847 48.162 273.562 48.2367 273.301 48.386C273.049 48.526 272.839 48.7267 272.671 48.988C272.503 49.2493 272.386 49.5527 272.321 49.898ZM281.969 54.07C281.381 54.07 280.849 53.9113 280.373 53.594C279.897 53.2673 279.515 52.838 279.225 52.306C278.945 51.7647 278.805 51.1627 278.805 50.5C278.805 49.828 278.95 49.226 279.239 48.694C279.529 48.1527 279.921 47.7233 280.415 47.406C280.919 47.0887 281.475 46.93 282.081 46.93C282.483 46.93 282.856 47.0093 283.201 47.168C283.556 47.3173 283.864 47.5413 284.125 47.84V43.962L285.707 43.682V54H284.139V53.076C283.887 53.3933 283.575 53.6407 283.201 53.818C282.828 53.986 282.417 54.07 281.969 54.07ZM282.459 52.74C282.795 52.74 283.108 52.6747 283.397 52.544C283.687 52.404 283.929 52.2127 284.125 51.97V49.016C283.92 48.7733 283.673 48.5867 283.383 48.456C283.094 48.3253 282.786 48.26 282.459 48.26C282.058 48.26 281.699 48.358 281.381 48.554C281.073 48.7407 280.826 49.002 280.639 49.338C280.453 49.674 280.359 50.0613 280.359 50.5C280.359 50.92 280.453 51.3027 280.639 51.648C280.826 51.984 281.073 52.25 281.381 52.446C281.699 52.642 282.058 52.74 282.459 52.74ZM293.841 54.14C293.132 54.14 292.595 53.9767 292.231 53.65C291.867 53.314 291.685 52.824 291.685 52.18V48.246H290.285V46.986H291.685V45.054L293.267 44.718V46.986H295.213V48.246H293.267V51.83C293.267 52.1753 293.342 52.4227 293.491 52.572C293.64 52.712 293.892 52.782 294.247 52.782C294.406 52.782 294.55 52.7727 294.681 52.754C294.821 52.726 294.994 52.6793 295.199 52.614V53.944C295.003 54.0093 294.779 54.056 294.527 54.084C294.284 54.1213 294.056 54.14 293.841 54.14ZM296.6 54V46.986H298.182V54H296.6ZM297.398 45.558C297.127 45.558 296.894 45.4647 296.698 45.278C296.511 45.082 296.418 44.8533 296.418 44.592C296.418 44.3213 296.511 44.0927 296.698 43.906C296.894 43.71 297.127 43.612 297.398 43.612C297.668 43.612 297.897 43.71 298.084 43.906C298.28 44.0927 298.378 44.3167 298.378 44.578C298.378 44.8487 298.28 45.082 298.084 45.278C297.897 45.4647 297.668 45.558 297.398 45.558ZM300.141 54V43.962L301.723 43.682V54H300.141ZM306.93 54.14C306.258 54.14 305.652 53.9813 305.11 53.664C304.569 53.3373 304.14 52.9033 303.822 52.362C303.505 51.8113 303.346 51.1907 303.346 50.5C303.346 49.8093 303.496 49.1933 303.794 48.652C304.093 48.1107 304.499 47.6813 305.012 47.364C305.535 47.0373 306.114 46.874 306.748 46.874C307.402 46.874 307.976 47.0327 308.47 47.35C308.974 47.6673 309.366 48.0967 309.646 48.638C309.936 49.1793 310.08 49.8 310.08 50.5V50.878H304.9C304.956 51.2607 305.078 51.6013 305.264 51.9C305.46 52.1893 305.708 52.418 306.006 52.586C306.314 52.754 306.646 52.838 307 52.838C307.327 52.838 307.635 52.782 307.924 52.67C308.223 52.5487 308.47 52.3853 308.666 52.18L309.702 53.118C309.273 53.4727 308.834 53.734 308.386 53.902C307.948 54.0607 307.462 54.14 306.93 54.14ZM304.914 49.898H308.582C308.526 49.562 308.41 49.2633 308.232 49.002C308.064 48.7407 307.85 48.5353 307.588 48.386C307.336 48.2367 307.056 48.162 306.748 48.162C306.44 48.162 306.156 48.2367 305.894 48.386C305.642 48.526 305.432 48.7267 305.264 48.988C305.096 49.2493 304.98 49.5527 304.914 49.898Z" fill="#151515"/>
<path d="M232.1 77.132C231.444 77.132 230.836 77.016 230.276 76.784C229.716 76.544 229.176 76.184 228.656 75.704L229.22 75.032C229.724 75.504 230.196 75.84 230.636 76.04C231.084 76.24 231.58 76.34 232.124 76.34C232.556 76.34 232.94 76.268 233.276 76.124C233.62 75.972 233.888 75.768 234.08 75.512C234.272 75.256 234.368 74.964 234.368 74.636C234.368 74.212 234.228 73.892 233.948 73.676C233.668 73.452 233.184 73.28 232.496 73.16L231.14 72.932C230.372 72.796 229.808 72.564 229.448 72.236C229.096 71.9 228.92 71.452 228.92 70.892C228.92 70.42 229.04 70.004 229.28 69.644C229.528 69.276 229.868 68.988 230.3 68.78C230.732 68.572 231.232 68.468 231.8 68.468C232.424 68.468 233.004 68.556 233.54 68.732C234.076 68.9 234.604 69.168 235.124 69.536L234.644 70.256C234.212 69.928 233.756 69.68 233.276 69.512C232.796 69.336 232.308 69.248 231.812 69.248C231.42 69.248 231.072 69.316 230.768 69.452C230.472 69.588 230.236 69.772 230.06 70.004C229.892 70.236 229.808 70.5 229.808 70.796C229.808 71.164 229.932 71.452 230.18 71.66C230.428 71.868 230.832 72.016 231.392 72.104L232.736 72.332C233.632 72.492 234.28 72.752 234.68 73.112C235.088 73.464 235.292 73.956 235.292 74.588C235.292 75.076 235.152 75.512 234.872 75.896C234.6 76.28 234.224 76.584 233.744 76.808C233.264 77.024 232.716 77.132 232.1 77.132ZM238.785 77.096C238.369 77.096 238.001 77.004 237.681 76.82C237.361 76.636 237.109 76.38 236.925 76.052C236.749 75.724 236.661 75.348 236.661 74.924V71.144H237.549V74.672C237.549 75.192 237.689 75.604 237.969 75.908C238.249 76.212 238.629 76.364 239.109 76.364C239.437 76.364 239.729 76.288 239.985 76.136C240.249 75.984 240.469 75.764 240.645 75.476V71.144H241.521V77H240.645V76.052C240.421 76.396 240.153 76.656 239.841 76.832C239.537 77.008 239.185 77.096 238.785 77.096ZM243.318 77V68.42L244.194 68.24V71.948C244.418 71.668 244.69 71.452 245.01 71.3C245.33 71.148 245.686 71.072 246.078 71.072C246.59 71.072 247.046 71.208 247.446 71.48C247.854 71.744 248.178 72.104 248.418 72.56C248.658 73.008 248.778 73.512 248.778 74.072C248.778 74.632 248.654 75.14 248.406 75.596C248.166 76.052 247.838 76.416 247.422 76.688C247.014 76.952 246.55 77.084 246.03 77.084C245.662 77.084 245.318 77.012 244.998 76.868C244.686 76.716 244.414 76.504 244.182 76.232V77H243.318ZM245.862 76.328C246.254 76.328 246.602 76.232 246.906 76.04C247.218 75.84 247.462 75.572 247.638 75.236C247.822 74.892 247.914 74.508 247.914 74.084C247.914 73.652 247.822 73.268 247.638 72.932C247.462 72.596 247.218 72.332 246.906 72.14C246.602 71.94 246.254 71.84 245.862 71.84C245.518 71.84 245.198 71.912 244.902 72.056C244.614 72.192 244.378 72.388 244.194 72.644V75.512C244.386 75.768 244.626 75.968 244.914 76.112C245.21 76.256 245.526 76.328 245.862 76.328ZM252.183 77.12C251.679 77.12 251.295 77 251.031 76.76C250.775 76.512 250.647 76.156 250.647 75.692V71.864H249.435V71.144H250.647V69.536L251.523 69.332V71.144H253.203V71.864H251.523V75.464C251.523 75.776 251.587 76 251.715 76.136C251.851 76.272 252.071 76.34 252.375 76.34C252.527 76.34 252.663 76.328 252.783 76.304C252.903 76.28 253.043 76.24 253.203 76.184V76.964C253.043 77.02 252.875 77.06 252.699 77.084C252.523 77.108 252.351 77.12 252.183 77.12ZM254.474 77V71.144H255.35V77H254.474ZM254.918 69.692C254.742 69.692 254.59 69.632 254.462 69.512C254.342 69.384 254.282 69.236 254.282 69.068C254.282 68.9 254.342 68.756 254.462 68.636C254.59 68.508 254.742 68.444 254.918 68.444C255.094 68.444 255.242 68.508 255.362 68.636C255.49 68.756 255.554 68.9 255.554 69.068C255.554 69.236 255.49 69.384 255.362 69.512C255.242 69.632 255.094 69.692 254.918 69.692ZM259.378 77.12C258.874 77.12 258.49 77 258.226 76.76C257.97 76.512 257.842 76.156 257.842 75.692V71.864H256.63V71.144H257.842V69.536L258.718 69.332V71.144H260.398V71.864H258.718V75.464C258.718 75.776 258.782 76 258.91 76.136C259.046 76.272 259.266 76.34 259.57 76.34C259.722 76.34 259.858 76.328 259.978 76.304C260.098 76.28 260.238 76.24 260.398 76.184V76.964C260.238 77.02 260.07 77.06 259.894 77.084C259.718 77.108 259.546 77.12 259.378 77.12ZM261.681 77V68.336L262.557 68.156V77H261.681ZM266.993 77.12C266.449 77.12 265.957 76.988 265.517 76.724C265.077 76.452 264.729 76.088 264.473 75.632C264.217 75.168 264.089 74.648 264.089 74.072C264.089 73.496 264.209 72.98 264.449 72.524C264.697 72.068 265.029 71.708 265.445 71.444C265.861 71.18 266.325 71.048 266.837 71.048C267.357 71.048 267.817 71.18 268.217 71.444C268.625 71.7 268.945 72.052 269.177 72.5C269.417 72.94 269.537 73.44 269.537 74V74.264H264.941C264.973 74.664 265.081 75.024 265.265 75.344C265.457 75.656 265.705 75.904 266.009 76.088C266.321 76.264 266.661 76.352 267.029 76.352C267.333 76.352 267.625 76.3 267.905 76.196C268.193 76.084 268.437 75.936 268.637 75.752L269.189 76.34C268.853 76.604 268.505 76.8 268.145 76.928C267.785 77.056 267.401 77.12 266.993 77.12ZM264.965 73.64H268.673C268.633 73.288 268.525 72.976 268.349 72.704C268.181 72.424 267.965 72.204 267.701 72.044C267.445 71.884 267.157 71.804 266.837 71.804C266.517 71.804 266.225 71.884 265.961 72.044C265.697 72.196 265.477 72.412 265.301 72.692C265.133 72.964 265.021 73.28 264.965 73.64ZM276.546 79.628C276.154 79.628 275.758 79.572 275.358 79.46C274.966 79.356 274.602 79.208 274.266 79.016L274.638 78.344C274.998 78.528 275.326 78.664 275.622 78.752C275.918 78.84 276.214 78.884 276.51 78.884C277.046 78.884 277.45 78.756 277.722 78.5C278.002 78.244 278.142 77.872 278.142 77.384V76.208C277.918 76.488 277.646 76.704 277.326 76.856C277.006 77 276.654 77.072 276.27 77.072C275.766 77.072 275.31 76.94 274.902 76.676C274.494 76.404 274.17 76.044 273.93 75.596C273.69 75.14 273.57 74.632 273.57 74.072C273.57 73.512 273.69 73.008 273.93 72.56C274.178 72.104 274.51 71.744 274.926 71.48C275.342 71.208 275.806 71.072 276.318 71.072C276.686 71.072 277.026 71.144 277.338 71.288C277.65 71.424 277.922 71.628 278.154 71.9V71.144H279.018V77.372C279.018 78.1 278.806 78.656 278.382 79.04C277.958 79.432 277.346 79.628 276.546 79.628ZM276.486 76.316C276.83 76.316 277.146 76.248 277.434 76.112C277.722 75.968 277.958 75.772 278.142 75.524V72.632C277.95 72.384 277.706 72.192 277.41 72.056C277.122 71.912 276.814 71.84 276.486 71.84C276.094 71.84 275.742 71.936 275.43 72.128C275.126 72.32 274.882 72.584 274.698 72.92C274.522 73.256 274.434 73.64 274.434 74.072C274.434 74.496 274.522 74.88 274.698 75.224C274.882 75.56 275.126 75.828 275.43 76.028C275.742 76.22 276.094 76.316 276.486 76.316ZM283.41 77.096C282.866 77.096 282.378 76.964 281.946 76.7C281.514 76.436 281.174 76.076 280.926 75.62C280.678 75.164 280.554 74.648 280.554 74.072C280.554 73.496 280.678 72.98 280.926 72.524C281.174 72.068 281.514 71.708 281.946 71.444C282.378 71.18 282.866 71.048 283.41 71.048C283.946 71.048 284.426 71.18 284.85 71.444C285.282 71.708 285.622 72.068 285.87 72.524C286.118 72.98 286.242 73.496 286.242 74.072C286.242 74.648 286.118 75.164 285.87 75.62C285.622 76.076 285.282 76.436 284.85 76.7C284.426 76.964 283.946 77.096 283.41 77.096ZM283.398 76.328C283.782 76.328 284.122 76.232 284.418 76.04C284.714 75.84 284.946 75.568 285.114 75.224C285.29 74.88 285.378 74.496 285.378 74.072C285.378 73.64 285.29 73.256 285.114 72.92C284.946 72.576 284.714 72.308 284.418 72.116C284.122 71.916 283.782 71.816 283.398 71.816C283.014 71.816 282.674 71.916 282.378 72.116C282.082 72.308 281.846 72.576 281.67 72.92C281.502 73.256 281.418 73.64 281.418 74.072C281.418 74.496 281.502 74.88 281.67 75.224C281.846 75.568 282.082 75.84 282.378 76.04C282.674 76.232 283.014 76.328 283.398 76.328ZM290.419 77.12C289.875 77.12 289.383 76.988 288.943 76.724C288.503 76.452 288.155 76.088 287.899 75.632C287.643 75.168 287.515 74.648 287.515 74.072C287.515 73.496 287.635 72.98 287.875 72.524C288.123 72.068 288.455 71.708 288.871 71.444C289.287 71.18 289.751 71.048 290.263 71.048C290.783 71.048 291.243 71.18 291.643 71.444C292.051 71.7 292.371 72.052 292.603 72.5C292.843 72.94 292.963 73.44 292.963 74V74.264H288.367C288.399 74.664 288.507 75.024 288.691 75.344C288.883 75.656 289.131 75.904 289.435 76.088C289.747 76.264 290.087 76.352 290.455 76.352C290.759 76.352 291.051 76.3 291.331 76.196C291.619 76.084 291.863 75.936 292.063 75.752L292.615 76.34C292.279 76.604 291.931 76.8 291.571 76.928C291.211 77.056 290.827 77.12 290.419 77.12ZM288.391 73.64H292.099C292.059 73.288 291.951 72.976 291.775 72.704C291.607 72.424 291.391 72.204 291.127 72.044C290.871 71.884 290.583 71.804 290.263 71.804C289.943 71.804 289.651 71.884 289.387 72.044C289.123 72.196 288.903 72.412 288.727 72.692C288.559 72.964 288.447 73.28 288.391 73.64ZM296.329 77.12C295.849 77.12 295.405 77.048 294.997 76.904C294.589 76.752 294.241 76.536 293.953 76.256L294.421 75.68C294.773 75.936 295.097 76.124 295.393 76.244C295.689 76.356 295.993 76.412 296.305 76.412C296.729 76.412 297.081 76.312 297.361 76.112C297.641 75.912 297.781 75.656 297.781 75.344C297.781 75.104 297.697 74.916 297.529 74.78C297.369 74.644 297.101 74.54 296.725 74.468L295.765 74.3C295.197 74.196 294.777 74.02 294.505 73.772C294.241 73.524 294.109 73.188 294.109 72.764C294.109 72.428 294.197 72.132 294.373 71.876C294.557 71.62 294.809 71.42 295.129 71.276C295.449 71.124 295.813 71.048 296.221 71.048C296.621 71.048 297.001 71.108 297.361 71.228C297.721 71.34 298.085 71.524 298.453 71.78L298.021 72.392C297.717 72.176 297.413 72.02 297.109 71.924C296.805 71.82 296.497 71.768 296.185 71.768C295.801 71.768 295.493 71.852 295.261 72.02C295.029 72.188 294.913 72.416 294.913 72.704C294.913 72.944 294.985 73.128 295.129 73.256C295.281 73.384 295.545 73.48 295.921 73.544L296.905 73.724C297.497 73.828 297.929 74.008 298.201 74.264C298.473 74.52 298.609 74.864 298.609 75.296C298.609 75.64 298.509 75.952 298.309 76.232C298.109 76.504 297.837 76.72 297.493 76.88C297.149 77.04 296.761 77.12 296.329 77.12ZM302.744 77V68.336L303.62 68.156V72.092C303.844 71.74 304.112 71.48 304.424 71.312C304.736 71.136 305.088 71.048 305.48 71.048C305.904 71.048 306.272 71.14 306.584 71.324C306.904 71.5 307.152 71.752 307.328 72.08C307.512 72.4 307.604 72.776 307.604 73.208V77H306.728V73.46C306.728 72.94 306.584 72.532 306.296 72.236C306.016 71.932 305.636 71.78 305.156 71.78C304.836 71.78 304.544 71.856 304.28 72.008C304.016 72.16 303.796 72.384 303.62 72.68V77H302.744ZM312.005 77.12C311.461 77.12 310.969 76.988 310.529 76.724C310.089 76.452 309.741 76.088 309.485 75.632C309.229 75.168 309.101 74.648 309.101 74.072C309.101 73.496 309.221 72.98 309.461 72.524C309.709 72.068 310.041 71.708 310.457 71.444C310.873 71.18 311.337 71.048 311.849 71.048C312.369 71.048 312.829 71.18 313.229 71.444C313.637 71.7 313.957 72.052 314.189 72.5C314.429 72.94 314.549 73.44 314.549 74V74.264H309.953C309.985 74.664 310.093 75.024 310.277 75.344C310.469 75.656 310.717 75.904 311.021 76.088C311.333 76.264 311.673 76.352 312.041 76.352C312.345 76.352 312.637 76.3 312.917 76.196C313.205 76.084 313.449 75.936 313.649 75.752L314.201 76.34C313.865 76.604 313.517 76.8 313.157 76.928C312.797 77.056 312.413 77.12 312.005 77.12ZM309.977 73.64H313.685C313.645 73.288 313.537 72.976 313.361 72.704C313.193 72.424 312.977 72.204 312.713 72.044C312.457 71.884 312.169 71.804 311.849 71.804C311.529 71.804 311.237 71.884 310.973 72.044C310.709 72.196 310.489 72.412 310.313 72.692C310.145 72.964 310.033 73.28 309.977 73.64ZM316.045 77V71.144H316.921V72.344C317.073 71.936 317.289 71.62 317.569 71.396C317.857 71.164 318.185 71.048 318.553 71.048C318.657 71.048 318.753 71.056 318.841 71.072C318.929 71.08 319.017 71.1 319.105 71.132V71.924C319.009 71.892 318.905 71.868 318.793 71.852C318.689 71.828 318.589 71.816 318.493 71.816C318.133 71.816 317.817 71.92 317.545 72.128C317.281 72.336 317.073 72.628 316.921 73.004V77H316.045ZM322.54 77.12C321.996 77.12 321.504 76.988 321.064 76.724C320.624 76.452 320.276 76.088 320.02 75.632C319.764 75.168 319.636 74.648 319.636 74.072C319.636 73.496 319.756 72.98 319.996 72.524C320.244 72.068 320.576 71.708 320.992 71.444C321.408 71.18 321.872 71.048 322.384 71.048C322.904 71.048 323.364 71.18 323.764 71.444C324.172 71.7 324.492 72.052 324.724 72.5C324.964 72.94 325.084 73.44 325.084 74V74.264H320.488C320.52 74.664 320.628 75.024 320.812 75.344C321.004 75.656 321.252 75.904 321.556 76.088C321.868 76.264 322.208 76.352 322.576 76.352C322.88 76.352 323.172 76.3 323.452 76.196C323.74 76.084 323.984 75.936 324.184 75.752L324.736 76.34C324.4 76.604 324.052 76.8 323.692 76.928C323.332 77.056 322.948 77.12 322.54 77.12ZM320.512 73.64H324.22C324.18 73.288 324.072 72.976 323.896 72.704C323.728 72.424 323.512 72.204 323.248 72.044C322.992 71.884 322.704 71.804 322.384 71.804C322.064 71.804 321.772 71.884 321.508 72.044C321.244 72.196 321.024 72.412 320.848 72.692C320.68 72.964 320.568 73.28 320.512 73.64Z" fill="#151515"/>
</svg>
