<svg width="325" height="239" viewBox="0 0 325 239" fill="none" xmlns="http://www.w3.org/2000/svg">
<g clip-path="url(#clip0_385_66878)">
<rect width="325" height="239" fill="white"/>
<rect width="357" height="69" transform="translate(4 12)" fill="white"/>
<mask id="path-1-inside-1_385_66878" fill="white">
<path d="M20 34C20 30.6863 22.6863 28 26 28H299C302.314 28 305 30.6863 305 34V59C305 62.3137 302.314 65 299 65H26C22.6863 65 20 62.3137 20 59V34Z"/>
</mask>
<path d="M20 34C20 30.6863 22.6863 28 26 28H299C302.314 28 305 30.6863 305 34V59C305 62.3137 302.314 65 299 65H26C22.6863 65 20 62.3137 20 59V34Z" fill="white"/>
<path d="M26 30H299V26H26V30ZM303 34V59H307V34H303ZM299 63H26V67H299V63ZM22 59V34H18V59H22ZM26 63C23.7909 63 22 61.2091 22 59H18C18 63.4183 21.5817 67 26 67V63ZM303 59C303 61.2091 301.209 63 299 63V67C303.418 67 307 63.4183 307 59H303ZM299 30C301.209 30 303 31.7909 303 34H307C307 29.5817 303.418 26 299 26V30ZM26 26C21.5817 26 18 29.5817 18 34H22C22 31.7909 23.7909 30 26 30V26Z" fill="#0066CC" mask="url(#path-1-inside-1_385_66878)"/>
<path d="M36 46.5C36 39.3203 41.8203 33.5 49 33.5H60C67.1797 33.5 73 39.3203 73 46.5V46.5C73 53.6797 67.1797 59.5 60 59.5H49C41.8203 59.5 36 53.6797 36 46.5V46.5Z" fill="#E0E0E0"/>
<path d="M45.056 50.5V42.1H45.98V50.5H45.056ZM47.9352 50.5V44.644H48.8112V45.592C49.0352 45.24 49.3032 44.98 49.6152 44.812C49.9272 44.636 50.2792 44.548 50.6712 44.548C51.0952 44.548 51.4632 44.64 51.7752 44.824C52.0952 45 52.3432 45.252 52.5192 45.58C52.7032 45.9 52.7952 46.276 52.7952 46.708V50.5H51.9192V46.96C51.9192 46.44 51.7752 46.032 51.4872 45.736C51.2072 45.432 50.8272 45.28 50.3472 45.28C50.0272 45.28 49.7352 45.356 49.4712 45.508C49.2072 45.66 48.9872 45.884 48.8112 46.18V50.5H47.9352ZM55.1245 50.5V45.364H53.8165V44.644H55.1245V43.42C55.1245 42.844 55.2765 42.4 55.5805 42.088C55.8845 41.776 56.3165 41.62 56.8765 41.62C57.0365 41.62 57.1805 41.628 57.3085 41.644C57.4445 41.66 57.5645 41.688 57.6685 41.728V42.52C57.5405 42.48 57.4245 42.452 57.3205 42.436C57.2165 42.42 57.0965 42.412 56.9605 42.412C56.6245 42.412 56.3805 42.496 56.2285 42.664C56.0765 42.824 56.0005 43.08 56.0005 43.432V44.644H57.6685V45.364H56.0005V50.5H55.1245ZM61.1678 50.596C60.6238 50.596 60.1358 50.464 59.7038 50.2C59.2718 49.936 58.9318 49.576 58.6838 49.12C58.4358 48.664 58.3118 48.148 58.3118 47.572C58.3118 46.996 58.4358 46.48 58.6838 46.024C58.9318 45.568 59.2718 45.208 59.7038 44.944C60.1358 44.68 60.6238 44.548 61.1678 44.548C61.7038 44.548 62.1838 44.68 62.6078 44.944C63.0398 45.208 63.3798 45.568 63.6278 46.024C63.8758 46.48 63.9998 46.996 63.9998 47.572C63.9998 48.148 63.8758 48.664 63.6278 49.12C63.3798 49.576 63.0398 49.936 62.6078 50.2C62.1838 50.464 61.7038 50.596 61.1678 50.596ZM61.1558 49.828C61.5398 49.828 61.8798 49.732 62.1758 49.54C62.4718 49.34 62.7038 49.068 62.8718 48.724C63.0478 48.38 63.1358 47.996 63.1358 47.572C63.1358 47.14 63.0478 46.756 62.8718 46.42C62.7038 46.076 62.4718 45.808 62.1758 45.616C61.8798 45.416 61.5398 45.316 61.1558 45.316C60.7718 45.316 60.4318 45.416 60.1358 45.616C59.8398 45.808 59.6038 46.076 59.4278 46.42C59.2598 46.756 59.1758 47.14 59.1758 47.572C59.1758 47.996 59.2598 48.38 59.4278 48.724C59.6038 49.068 59.8398 49.34 60.1358 49.54C60.4318 49.732 60.7718 49.828 61.1558 49.828Z" fill="#151515"/>
<path d="M81 46.5C81 39.3203 86.8203 33.5 94 33.5H128C135.18 33.5 141 39.3203 141 46.5V46.5C141 53.6797 135.18 59.5 128 59.5H94C86.8203 59.5 81 53.6797 81 46.5V46.5Z" fill="#E0E0E0"/>
<path d="M91.316 50.5L89.504 42.1H90.44L91.868 49.048L93.944 42.1H94.844L96.92 49.024L98.36 42.1H99.26L97.448 50.5H96.512L94.388 43.372L92.252 50.5H91.316ZM102.001 50.608C101.585 50.608 101.217 50.532 100.897 50.38C100.577 50.228 100.325 50.02 100.141 49.756C99.9651 49.484 99.8771 49.172 99.8771 48.82C99.8771 48.468 99.9691 48.164 100.153 47.908C100.337 47.644 100.593 47.44 100.921 47.296C101.249 47.152 101.633 47.08 102.073 47.08C102.409 47.08 102.725 47.116 103.021 47.188C103.325 47.26 103.605 47.376 103.861 47.536V46.732C103.861 46.252 103.733 45.892 103.477 45.652C103.221 45.404 102.845 45.28 102.349 45.28C102.077 45.28 101.797 45.32 101.509 45.4C101.229 45.48 100.917 45.608 100.573 45.784L100.249 45.112C101.033 44.736 101.769 44.548 102.457 44.548C103.185 44.548 103.745 44.728 104.137 45.088C104.529 45.44 104.725 45.948 104.725 46.612V50.5H103.861V49.816C103.605 50.08 103.321 50.28 103.009 50.416C102.697 50.544 102.361 50.608 102.001 50.608ZM100.717 48.796C100.717 49.14 100.849 49.416 101.113 49.624C101.385 49.832 101.741 49.936 102.181 49.936C102.509 49.936 102.809 49.88 103.081 49.768C103.361 49.656 103.621 49.488 103.861 49.264V48.136C103.613 47.992 103.357 47.888 103.093 47.824C102.829 47.752 102.533 47.716 102.205 47.716C101.757 47.716 101.397 47.816 101.125 48.016C100.853 48.208 100.717 48.468 100.717 48.796ZM106.505 50.5V44.644H107.381V45.844C107.533 45.436 107.749 45.12 108.029 44.896C108.317 44.664 108.645 44.548 109.013 44.548C109.117 44.548 109.213 44.556 109.301 44.572C109.389 44.58 109.477 44.6 109.565 44.632V45.424C109.469 45.392 109.365 45.368 109.253 45.352C109.149 45.328 109.049 45.316 108.953 45.316C108.593 45.316 108.277 45.42 108.005 45.628C107.741 45.836 107.533 46.128 107.381 46.504V50.5H106.505ZM110.724 50.5V44.644H111.6V45.592C111.824 45.24 112.092 44.98 112.404 44.812C112.716 44.636 113.068 44.548 113.46 44.548C113.884 44.548 114.252 44.64 114.564 44.824C114.884 45 115.132 45.252 115.308 45.58C115.492 45.9 115.584 46.276 115.584 46.708V50.5H114.708V46.96C114.708 46.44 114.564 46.032 114.276 45.736C113.996 45.432 113.616 45.28 113.136 45.28C112.816 45.28 112.524 45.356 112.26 45.508C111.996 45.66 111.776 45.884 111.6 46.18V50.5H110.724ZM117.333 50.5V44.644H118.209V50.5H117.333ZM117.777 43.192C117.601 43.192 117.449 43.132 117.321 43.012C117.201 42.884 117.141 42.736 117.141 42.568C117.141 42.4 117.201 42.256 117.321 42.136C117.449 42.008 117.601 41.944 117.777 41.944C117.953 41.944 118.101 42.008 118.221 42.136C118.349 42.256 118.413 42.4 118.413 42.568C118.413 42.736 118.349 42.884 118.221 43.012C118.101 43.132 117.953 43.192 117.777 43.192ZM120.005 50.5V44.644H120.881V45.592C121.105 45.24 121.373 44.98 121.685 44.812C121.997 44.636 122.349 44.548 122.741 44.548C123.165 44.548 123.533 44.64 123.845 44.824C124.165 45 124.413 45.252 124.589 45.58C124.773 45.9 124.865 46.276 124.865 46.708V50.5H123.989V46.96C123.989 46.44 123.845 46.032 123.557 45.736C123.277 45.432 122.897 45.28 122.417 45.28C122.097 45.28 121.805 45.356 121.541 45.508C121.277 45.66 121.057 45.884 120.881 46.18V50.5H120.005ZM129.339 53.128C128.947 53.128 128.551 53.072 128.151 52.96C127.759 52.856 127.395 52.708 127.059 52.516L127.431 51.844C127.791 52.028 128.119 52.164 128.415 52.252C128.711 52.34 129.007 52.384 129.303 52.384C129.839 52.384 130.243 52.256 130.515 52C130.795 51.744 130.935 51.372 130.935 50.884V49.708C130.711 49.988 130.439 50.204 130.119 50.356C129.799 50.5 129.447 50.572 129.063 50.572C128.559 50.572 128.103 50.44 127.695 50.176C127.287 49.904 126.963 49.544 126.723 49.096C126.483 48.64 126.363 48.132 126.363 47.572C126.363 47.012 126.483 46.508 126.723 46.06C126.971 45.604 127.303 45.244 127.719 44.98C128.135 44.708 128.599 44.572 129.111 44.572C129.479 44.572 129.819 44.644 130.131 44.788C130.443 44.924 130.715 45.128 130.947 45.4V44.644H131.811V50.872C131.811 51.6 131.599 52.156 131.175 52.54C130.751 52.932 130.139 53.128 129.339 53.128ZM129.279 49.816C129.623 49.816 129.939 49.748 130.227 49.612C130.515 49.468 130.751 49.272 130.935 49.024V46.132C130.743 45.884 130.499 45.692 130.203 45.556C129.915 45.412 129.607 45.34 129.279 45.34C128.887 45.34 128.535 45.436 128.223 45.628C127.919 45.82 127.675 46.084 127.491 46.42C127.315 46.756 127.227 47.14 127.227 47.572C127.227 47.996 127.315 48.38 127.491 48.724C127.675 49.06 127.919 49.328 128.223 49.528C128.535 49.72 128.887 49.816 129.279 49.816Z" fill="#151515"/>
<path d="M153.41 51.154C152.645 51.154 151.935 51.0187 151.282 50.748C150.629 50.468 149.999 50.048 149.392 49.488L150.05 48.704C150.638 49.2547 151.189 49.6467 151.702 49.88C152.225 50.1133 152.803 50.23 153.438 50.23C153.942 50.23 154.39 50.146 154.782 49.978C155.183 49.8007 155.496 49.5627 155.72 49.264C155.944 48.9653 156.056 48.6247 156.056 48.242C156.056 47.7473 155.893 47.374 155.566 47.122C155.239 46.8607 154.675 46.66 153.872 46.52L152.29 46.254C151.394 46.0953 150.736 45.8247 150.316 45.442C149.905 45.05 149.7 44.5273 149.7 43.874C149.7 43.3233 149.84 42.838 150.12 42.418C150.409 41.9887 150.806 41.6527 151.31 41.41C151.814 41.1673 152.397 41.046 153.06 41.046C153.788 41.046 154.465 41.1487 155.09 41.354C155.715 41.55 156.331 41.8627 156.938 42.292L156.378 43.132C155.874 42.7493 155.342 42.46 154.782 42.264C154.222 42.0587 153.653 41.956 153.074 41.956C152.617 41.956 152.211 42.0353 151.856 42.194C151.511 42.3527 151.235 42.5673 151.03 42.838C150.834 43.1087 150.736 43.4167 150.736 43.762C150.736 44.1913 150.881 44.5273 151.17 44.77C151.459 45.0127 151.931 45.1853 152.584 45.288L154.152 45.554C155.197 45.7407 155.953 46.044 156.42 46.464C156.896 46.8747 157.134 47.4487 157.134 48.186C157.134 48.7553 156.971 49.264 156.644 49.712C156.327 50.16 155.888 50.5147 155.328 50.776C154.768 51.028 154.129 51.154 153.41 51.154ZM161.989 51.14C161.355 51.14 160.781 50.986 160.267 50.678C159.754 50.3607 159.348 49.936 159.049 49.404C158.751 48.8627 158.601 48.256 158.601 47.584C158.601 46.912 158.741 46.31 159.021 45.778C159.311 45.246 159.698 44.826 160.183 44.518C160.669 44.21 161.21 44.056 161.807 44.056C162.414 44.056 162.951 44.21 163.417 44.518C163.893 44.8167 164.267 45.2273 164.537 45.75C164.817 46.2633 164.957 46.8467 164.957 47.5V47.808H159.595C159.633 48.2747 159.759 48.6947 159.973 49.068C160.197 49.432 160.487 49.7213 160.841 49.936C161.205 50.1413 161.602 50.244 162.031 50.244C162.386 50.244 162.727 50.1833 163.053 50.062C163.389 49.9313 163.674 49.7587 163.907 49.544L164.551 50.23C164.159 50.538 163.753 50.7667 163.333 50.916C162.913 51.0653 162.465 51.14 161.989 51.14ZM159.623 47.08H163.949C163.903 46.6693 163.777 46.3053 163.571 45.988C163.375 45.6613 163.123 45.4047 162.815 45.218C162.517 45.0313 162.181 44.938 161.807 44.938C161.434 44.938 161.093 45.0313 160.785 45.218C160.477 45.3953 160.221 45.6473 160.015 45.974C159.819 46.2913 159.689 46.66 159.623 47.08ZM166.702 51V40.892L167.724 40.682V51H166.702ZM172.9 51.14C172.265 51.14 171.691 50.986 171.178 50.678C170.664 50.3607 170.258 49.936 169.96 49.404C169.661 48.8627 169.512 48.256 169.512 47.584C169.512 46.912 169.652 46.31 169.932 45.778C170.221 45.246 170.608 44.826 171.094 44.518C171.579 44.21 172.12 44.056 172.718 44.056C173.324 44.056 173.861 44.21 174.328 44.518C174.804 44.8167 175.177 45.2273 175.448 45.75C175.728 46.2633 175.868 46.8467 175.868 47.5V47.808H170.506C170.543 48.2747 170.669 48.6947 170.884 49.068C171.108 49.432 171.397 49.7213 171.752 49.936C172.116 50.1413 172.512 50.244 172.942 50.244C173.296 50.244 173.637 50.1833 173.964 50.062C174.3 49.9313 174.584 49.7587 174.818 49.544L175.462 50.23C175.07 50.538 174.664 50.7667 174.244 50.916C173.824 51.0653 173.376 51.14 172.9 51.14ZM170.534 47.08H174.86C174.813 46.6693 174.687 46.3053 174.482 45.988C174.286 45.6613 174.034 45.4047 173.726 45.218C173.427 45.0313 173.091 44.938 172.718 44.938C172.344 44.938 172.004 45.0313 171.696 45.218C171.388 45.3953 171.131 45.6473 170.926 45.974C170.73 46.2913 170.599 46.66 170.534 47.08ZM180.678 51.112C180.044 51.112 179.47 50.958 178.957 50.65C178.453 50.3327 178.051 49.908 177.753 49.376C177.454 48.8347 177.305 48.2373 177.305 47.584C177.305 46.9213 177.454 46.324 177.753 45.792C178.051 45.26 178.453 44.84 178.957 44.532C179.47 44.2147 180.044 44.056 180.678 44.056C181.183 44.056 181.663 44.1493 182.121 44.336C182.578 44.5227 182.975 44.784 183.311 45.12L182.653 45.834C182.41 45.5633 182.116 45.3533 181.771 45.204C181.425 45.0547 181.075 44.98 180.721 44.98C180.273 44.98 179.867 45.0967 179.503 45.33C179.148 45.5633 178.863 45.876 178.649 46.268C178.434 46.66 178.327 47.0987 178.327 47.584C178.327 48.0693 178.434 48.508 178.649 48.9C178.863 49.292 179.148 49.6047 179.503 49.838C179.867 50.0713 180.273 50.188 180.721 50.188C181.075 50.188 181.425 50.1133 181.771 49.964C182.116 49.8053 182.41 49.5953 182.653 49.334L183.311 50.048C182.975 50.384 182.578 50.6453 182.121 50.832C181.663 51.0187 181.183 51.112 180.678 51.112ZM187.476 51.14C186.888 51.14 186.44 51 186.132 50.72C185.834 50.4307 185.684 50.0153 185.684 49.474V45.008H184.27V44.168H185.684V42.292L186.706 42.054V44.168H188.666V45.008H186.706V49.208C186.706 49.572 186.781 49.8333 186.93 49.992C187.089 50.1507 187.346 50.23 187.7 50.23C187.878 50.23 188.036 50.216 188.176 50.188C188.316 50.16 188.48 50.1133 188.666 50.048V50.958C188.48 51.0233 188.284 51.07 188.078 51.098C187.873 51.126 187.672 51.14 187.476 51.14ZM195.545 51.14C194.985 51.14 194.467 51.056 193.991 50.888C193.515 50.7107 193.109 50.4587 192.773 50.132L193.319 49.46C193.73 49.7587 194.108 49.978 194.453 50.118C194.798 50.2487 195.153 50.314 195.517 50.314C196.012 50.314 196.422 50.1973 196.749 49.964C197.076 49.7307 197.239 49.432 197.239 49.068C197.239 48.788 197.141 48.5687 196.945 48.41C196.758 48.2513 196.446 48.13 196.007 48.046L194.887 47.85C194.224 47.7287 193.734 47.5233 193.417 47.234C193.109 46.9447 192.955 46.5527 192.955 46.058C192.955 45.666 193.058 45.3207 193.263 45.022C193.478 44.7233 193.772 44.49 194.145 44.322C194.518 44.1447 194.943 44.056 195.419 44.056C195.886 44.056 196.329 44.126 196.749 44.266C197.169 44.3967 197.594 44.6113 198.023 44.91L197.519 45.624C197.164 45.372 196.81 45.19 196.455 45.078C196.1 44.9567 195.741 44.896 195.377 44.896C194.929 44.896 194.57 44.994 194.299 45.19C194.028 45.386 193.893 45.652 193.893 45.988C193.893 46.268 193.977 46.4827 194.145 46.632C194.322 46.7813 194.63 46.8933 195.069 46.968L196.217 47.178C196.908 47.2993 197.412 47.5093 197.729 47.808C198.046 48.1067 198.205 48.508 198.205 49.012C198.205 49.4133 198.088 49.7773 197.855 50.104C197.622 50.4213 197.304 50.6733 196.903 50.86C196.502 51.0467 196.049 51.14 195.545 51.14ZM202.228 51.14C201.64 51.14 201.192 51 200.884 50.72C200.586 50.4307 200.436 50.0153 200.436 49.474V45.008H199.022V44.168H200.436V42.292L201.458 42.054V44.168H203.418V45.008H201.458V49.208C201.458 49.572 201.533 49.8333 201.682 49.992C201.841 50.1507 202.098 50.23 202.452 50.23C202.63 50.23 202.788 50.216 202.928 50.188C203.068 50.16 203.232 50.1133 203.418 50.048V50.958C203.232 51.0233 203.036 51.07 202.83 51.098C202.625 51.126 202.424 51.14 202.228 51.14ZM207.029 51.126C206.544 51.126 206.115 51.0373 205.741 50.86C205.368 50.6827 205.074 50.44 204.859 50.132C204.654 49.8147 204.551 49.4507 204.551 49.04C204.551 48.6293 204.659 48.2747 204.873 47.976C205.088 47.668 205.387 47.43 205.769 47.262C206.152 47.094 206.6 47.01 207.113 47.01C207.505 47.01 207.874 47.052 208.219 47.136C208.574 47.22 208.901 47.3553 209.199 47.542V46.604C209.199 46.044 209.05 45.624 208.751 45.344C208.453 45.0547 208.014 44.91 207.435 44.91C207.118 44.91 206.791 44.9567 206.455 45.05C206.129 45.1433 205.765 45.2927 205.363 45.498L204.985 44.714C205.9 44.2753 206.759 44.056 207.561 44.056C208.411 44.056 209.064 44.266 209.521 44.686C209.979 45.0967 210.207 45.6893 210.207 46.464V51H209.199V50.202C208.901 50.51 208.569 50.7433 208.205 50.902C207.841 51.0513 207.449 51.126 207.029 51.126ZM205.531 49.012C205.531 49.4133 205.685 49.7353 205.993 49.978C206.311 50.2207 206.726 50.342 207.239 50.342C207.622 50.342 207.972 50.2767 208.289 50.146C208.616 50.0153 208.919 49.8193 209.199 49.558V48.242C208.91 48.074 208.611 47.9527 208.303 47.878C207.995 47.794 207.65 47.752 207.267 47.752C206.745 47.752 206.325 47.8687 206.007 48.102C205.69 48.326 205.531 48.6293 205.531 49.012ZM214.683 51.14C214.095 51.14 213.647 51 213.339 50.72C213.041 50.4307 212.891 50.0153 212.891 49.474V45.008H211.477V44.168H212.891V42.292L213.913 42.054V44.168H215.873V45.008H213.913V49.208C213.913 49.572 213.988 49.8333 214.137 49.992C214.296 50.1507 214.553 50.23 214.907 50.23C215.085 50.23 215.243 50.216 215.383 50.188C215.523 50.16 215.687 50.1133 215.873 50.048V50.958C215.687 51.0233 215.491 51.07 215.285 51.098C215.08 51.126 214.879 51.14 214.683 51.14ZM219.806 51.112C219.321 51.112 218.892 51.0047 218.518 50.79C218.145 50.5753 217.851 50.2767 217.636 49.894C217.431 49.5113 217.328 49.0727 217.328 48.578V44.168H218.364V48.284C218.364 48.8907 218.528 49.3713 218.854 49.726C219.181 50.0807 219.624 50.258 220.184 50.258C220.567 50.258 220.908 50.1693 221.206 49.992C221.514 49.8147 221.771 49.558 221.976 49.222V44.168H222.998V51H221.976V49.894C221.715 50.2953 221.402 50.5987 221.038 50.804C220.684 51.0093 220.273 51.112 219.806 51.112ZM227.209 51.14C226.649 51.14 226.131 51.056 225.655 50.888C225.179 50.7107 224.773 50.4587 224.437 50.132L224.983 49.46C225.394 49.7587 225.772 49.978 226.117 50.118C226.462 50.2487 226.817 50.314 227.181 50.314C227.676 50.314 228.086 50.1973 228.413 49.964C228.74 49.7307 228.903 49.432 228.903 49.068C228.903 48.788 228.805 48.5687 228.609 48.41C228.422 48.2513 228.11 48.13 227.671 48.046L226.551 47.85C225.888 47.7287 225.398 47.5233 225.081 47.234C224.773 46.9447 224.619 46.5527 224.619 46.058C224.619 45.666 224.722 45.3207 224.927 45.022C225.142 44.7233 225.436 44.49 225.809 44.322C226.182 44.1447 226.607 44.056 227.083 44.056C227.55 44.056 227.993 44.126 228.413 44.266C228.833 44.3967 229.258 44.6113 229.687 44.91L229.183 45.624C228.828 45.372 228.474 45.19 228.119 45.078C227.764 44.9567 227.405 44.896 227.041 44.896C226.593 44.896 226.234 44.994 225.963 45.19C225.692 45.386 225.557 45.652 225.557 45.988C225.557 46.268 225.641 46.4827 225.809 46.632C225.986 46.7813 226.294 46.8933 226.733 46.968L227.881 47.178C228.572 47.2993 229.076 47.5093 229.393 47.808C229.71 48.1067 229.869 48.508 229.869 49.012C229.869 49.4133 229.752 49.7773 229.519 50.104C229.286 50.4213 228.968 50.6733 228.567 50.86C228.166 51.0467 227.713 51.14 227.209 51.14Z" fill="#151515"/>
<path fill-rule="evenodd" clip-rule="evenodd" d="M253.333 50.9225L253.922 50.3328C254.248 50.0072 254.248 49.4793 253.922 49.1534L251.269 46.5L253.922 43.8467C254.248 43.5211 254.248 42.9932 253.922 42.6673L253.333 42.0776C253.007 41.752 252.479 41.752 252.153 42.0776L249.5 44.731L246.847 42.0776C246.521 41.752 245.993 41.752 245.667 42.0776L245.078 42.6673C244.752 42.9929 244.752 43.5208 245.078 43.8467L247.731 46.5L245.078 49.1534C244.752 49.479 244.752 50.0069 245.078 50.3328L245.667 50.9225C245.993 51.2481 246.521 51.2481 246.847 50.9225L249.5 48.2691L252.153 50.9225C252.479 51.2481 253.007 51.2481 253.333 50.9225Z" fill="#1F1F1F"/>
<g clip-path="url(#clip1_385_66878)">
<path fill-rule="evenodd" clip-rule="evenodd" d="M279.389 49.1714L282.921 45.6102C283.267 45.2615 283.023 44.6666 282.534 44.6666H275.466C274.977 44.6666 274.733 45.2615 275.079 45.6102L278.611 49.1714C278.826 49.3872 279.174 49.3872 279.389 49.1714Z" fill="#1F1F1F"/>
</g>
<g filter="url(#filter0_d_385_66878)">
<path d="M20 71C20 67.6863 22.6863 65 26 65H299C302.314 65 305 67.6863 305 71V204C305 207.314 302.314 210 299 210H26C22.6863 210 20 207.314 20 204V71Z" fill="white"/>
<path d="M45.232 101V91.2H46.31V101H45.232ZM48.591 101V94.168H49.613V95.274C49.8743 94.8633 50.187 94.56 50.551 94.364C50.915 94.1587 51.3257 94.056 51.783 94.056C52.2777 94.056 52.707 94.1633 53.071 94.378C53.4443 94.5833 53.7337 94.8773 53.939 95.26C54.1537 95.6333 54.261 96.072 54.261 96.576V101H53.239V96.87C53.239 96.2633 53.071 95.7873 52.735 95.442C52.4083 95.0873 51.965 94.91 51.405 94.91C51.0317 94.91 50.691 94.9987 50.383 95.176C50.075 95.3533 49.8183 95.6147 49.613 95.96V101H48.591ZM56.9785 101V95.008H55.4525V94.168H56.9785V92.74C56.9785 92.068 57.1559 91.55 57.5105 91.186C57.8652 90.822 58.3692 90.64 59.0225 90.64C59.2092 90.64 59.3772 90.6493 59.5265 90.668C59.6852 90.6867 59.8252 90.7193 59.9465 90.766V91.69C59.7972 91.6433 59.6619 91.6107 59.5405 91.592C59.4192 91.5733 59.2792 91.564 59.1205 91.564C58.7285 91.564 58.4439 91.662 58.2665 91.858C58.0892 92.0447 58.0005 92.3433 58.0005 92.754V94.168H59.9465V95.008H58.0005V101H56.9785ZM64.0291 101.112C63.3944 101.112 62.8251 100.958 62.3211 100.65C61.8171 100.342 61.4204 99.922 61.1311 99.39C60.8417 98.858 60.6971 98.256 60.6971 97.584C60.6971 96.912 60.8417 96.31 61.1311 95.778C61.4204 95.246 61.8171 94.826 62.3211 94.518C62.8251 94.21 63.3944 94.056 64.0291 94.056C64.6544 94.056 65.2144 94.21 65.7091 94.518C66.2131 94.826 66.6097 95.246 66.8991 95.778C67.1884 96.31 67.3331 96.912 67.3331 97.584C67.3331 98.256 67.1884 98.858 66.8991 99.39C66.6097 99.922 66.2131 100.342 65.7091 100.65C65.2144 100.958 64.6544 101.112 64.0291 101.112ZM64.0151 100.216C64.4631 100.216 64.8597 100.104 65.2051 99.88C65.5504 99.6467 65.8211 99.3293 66.0171 98.928C66.2224 98.5267 66.3251 98.0787 66.3251 97.584C66.3251 97.08 66.2224 96.632 66.0171 96.24C65.8211 95.8387 65.5504 95.526 65.2051 95.302C64.8597 95.0687 64.4631 94.952 64.0151 94.952C63.5671 94.952 63.1704 95.0687 62.8251 95.302C62.4797 95.526 62.2044 95.8387 61.9991 96.24C61.8031 96.632 61.7051 97.08 61.7051 97.584C61.7051 98.0787 61.8031 98.5267 61.9991 98.928C62.2044 99.3293 62.4797 99.6467 62.8251 99.88C63.1704 100.104 63.5671 100.216 64.0151 100.216Z" fill="#151515"/>
<path fill-rule="evenodd" clip-rule="evenodd" d="M264.745 100.985L272.795 92.9349C273.068 92.6615 273.068 92.2183 272.795 91.945L271.805 90.955C271.532 90.6817 271.088 90.6817 270.815 90.955L264.25 97.5201L261.185 94.455C260.912 94.1816 260.468 94.1816 260.195 94.455L259.205 95.445C258.932 95.7183 258.932 96.1616 259.205 96.4349L263.755 100.985C264.028 101.258 264.472 101.258 264.745 100.985Z" fill="#0066CC"/>
<path d="M46.702 147L44.588 137.2H45.68L47.346 145.306L49.768 137.2H50.818L53.24 145.278L54.92 137.2H55.97L53.856 147H52.764L50.286 138.684L47.794 147H46.702ZM59.1679 147.126C58.6826 147.126 58.2532 147.037 57.8799 146.86C57.5066 146.683 57.2126 146.44 56.9979 146.132C56.7926 145.815 56.6899 145.451 56.6899 145.04C56.6899 144.629 56.7972 144.275 57.0119 143.976C57.2266 143.668 57.5252 143.43 57.9079 143.262C58.2906 143.094 58.7386 143.01 59.2519 143.01C59.6439 143.01 60.0126 143.052 60.3579 143.136C60.7126 143.22 61.0392 143.355 61.3379 143.542V142.604C61.3379 142.044 61.1886 141.624 60.8899 141.344C60.5912 141.055 60.1526 140.91 59.5739 140.91C59.2566 140.91 58.9299 140.957 58.5939 141.05C58.2672 141.143 57.9032 141.293 57.5019 141.498L57.1239 140.714C58.0386 140.275 58.8972 140.056 59.6999 140.056C60.5492 140.056 61.2026 140.266 61.6599 140.686C62.1172 141.097 62.3459 141.689 62.3459 142.464V147H61.3379V146.202C61.0392 146.51 60.7079 146.743 60.3439 146.902C59.9799 147.051 59.5879 147.126 59.1679 147.126ZM57.6699 145.012C57.6699 145.413 57.8239 145.735 58.1319 145.978C58.4492 146.221 58.8646 146.342 59.3779 146.342C59.7606 146.342 60.1106 146.277 60.4279 146.146C60.7546 146.015 61.0579 145.819 61.3379 145.558V144.242C61.0486 144.074 60.7499 143.953 60.4419 143.878C60.1339 143.794 59.7886 143.752 59.4059 143.752C58.8832 143.752 58.4632 143.869 58.1459 144.102C57.8286 144.326 57.6699 144.629 57.6699 145.012ZM64.423 147V140.168H65.445V141.568C65.6224 141.092 65.8744 140.723 66.201 140.462C66.537 140.191 66.9197 140.056 67.349 140.056C67.4704 140.056 67.5824 140.065 67.685 140.084C67.7877 140.093 67.8904 140.117 67.993 140.154V141.078C67.881 141.041 67.7597 141.013 67.629 140.994C67.5077 140.966 67.391 140.952 67.279 140.952C66.859 140.952 66.4904 141.073 66.173 141.316C65.865 141.559 65.6224 141.899 65.445 142.338V147H64.423ZM69.3449 147V140.168H70.3669V141.274C70.6283 140.863 70.9409 140.56 71.3049 140.364C71.6689 140.159 72.0796 140.056 72.5369 140.056C73.0316 140.056 73.4609 140.163 73.8249 140.378C74.1983 140.583 74.4876 140.877 74.6929 141.26C74.9076 141.633 75.0149 142.072 75.0149 142.576V147H73.9929V142.87C73.9929 142.263 73.8249 141.787 73.4889 141.442C73.1623 141.087 72.7189 140.91 72.1589 140.91C71.7856 140.91 71.4449 140.999 71.1369 141.176C70.8289 141.353 70.5723 141.615 70.3669 141.96V147H69.3449ZM77.0555 147V140.168H78.0775V147H77.0555ZM77.5735 138.474C77.3682 138.474 77.1909 138.404 77.0415 138.264C76.9015 138.115 76.8315 137.942 76.8315 137.746C76.8315 137.55 76.9015 137.382 77.0415 137.242C77.1909 137.093 77.3682 137.018 77.5735 137.018C77.7789 137.018 77.9515 137.093 78.0915 137.242C78.2409 137.382 78.3155 137.55 78.3155 137.746C78.3155 137.942 78.2409 138.115 78.0915 138.264C77.9515 138.404 77.7789 138.474 77.5735 138.474ZM80.173 147V140.168H81.195V141.274C81.4564 140.863 81.769 140.56 82.133 140.364C82.497 140.159 82.9077 140.056 83.365 140.056C83.8597 140.056 84.289 140.163 84.653 140.378C85.0264 140.583 85.3157 140.877 85.521 141.26C85.7357 141.633 85.843 142.072 85.843 142.576V147H84.821V142.87C84.821 142.263 84.653 141.787 84.317 141.442C83.9904 141.087 83.547 140.91 82.987 140.91C82.6137 140.91 82.273 140.999 81.965 141.176C81.657 141.353 81.4004 141.615 81.195 141.96V147H80.173ZM91.0617 150.066C90.6043 150.066 90.1423 150.001 89.6757 149.87C89.2183 149.749 88.7937 149.576 88.4017 149.352L88.8357 148.568C89.2557 148.783 89.6383 148.941 89.9837 149.044C90.329 149.147 90.6743 149.198 91.0197 149.198C91.645 149.198 92.1163 149.049 92.4337 148.75C92.7603 148.451 92.9237 148.017 92.9237 147.448V146.076C92.6623 146.403 92.345 146.655 91.9717 146.832C91.5983 147 91.1877 147.084 90.7397 147.084C90.1517 147.084 89.6197 146.93 89.1437 146.622C88.6677 146.305 88.2897 145.885 88.0097 145.362C87.7297 144.83 87.5897 144.237 87.5897 143.584C87.5897 142.931 87.7297 142.343 88.0097 141.82C88.299 141.288 88.6863 140.868 89.1717 140.56C89.657 140.243 90.1983 140.084 90.7957 140.084C91.225 140.084 91.6217 140.168 91.9857 140.336C92.3497 140.495 92.667 140.733 92.9377 141.05V140.168H93.9457V147.434C93.9457 148.283 93.6983 148.932 93.2037 149.38C92.709 149.837 91.995 150.066 91.0617 150.066ZM90.9917 146.202C91.393 146.202 91.7617 146.123 92.0977 145.964C92.4337 145.796 92.709 145.567 92.9237 145.278V141.904C92.6997 141.615 92.415 141.391 92.0697 141.232C91.7337 141.064 91.3743 140.98 90.9917 140.98C90.5343 140.98 90.1237 141.092 89.7597 141.316C89.405 141.54 89.1203 141.848 88.9057 142.24C88.7003 142.632 88.5977 143.08 88.5977 143.584C88.5977 144.079 88.7003 144.527 88.9057 144.928C89.1203 145.32 89.405 145.633 89.7597 145.866C90.1237 146.09 90.5343 146.202 90.9917 146.202Z" fill="#151515"/>
<path fill-rule="evenodd" clip-rule="evenodd" d="M264.745 146.985L272.795 138.935C273.068 138.662 273.068 138.218 272.795 137.945L271.805 136.955C271.532 136.682 271.088 136.682 270.815 136.955L264.25 143.52L261.185 140.455C260.912 140.182 260.468 140.182 260.195 140.455L259.205 141.445C258.932 141.718 258.932 142.162 259.205 142.435L263.755 146.985C264.028 147.258 264.472 147.258 264.745 146.985Z" fill="#0066CC"/>
<path d="M45.246 188V178.2H51.938V179.152H46.324V182.582H50.216V183.52H46.324V187.048H51.994V188H45.246ZM53.718 188V181.168H54.74V182.568C54.9173 182.092 55.1693 181.723 55.496 181.462C55.832 181.191 56.2146 181.056 56.644 181.056C56.7653 181.056 56.8773 181.065 56.98 181.084C57.0826 181.093 57.1853 181.117 57.288 181.154V182.078C57.176 182.041 57.0546 182.013 56.924 181.994C56.8026 181.966 56.686 181.952 56.574 181.952C56.154 181.952 55.7853 182.073 55.468 182.316C55.16 182.559 54.9173 182.899 54.74 183.338V188H53.718ZM58.6398 188V181.168H59.6618V182.568C59.8392 182.092 60.0912 181.723 60.4178 181.462C60.7538 181.191 61.1365 181.056 61.5658 181.056C61.6872 181.056 61.7992 181.065 61.9018 181.084C62.0045 181.093 62.1072 181.117 62.2098 181.154V182.078C62.0978 182.041 61.9765 182.013 61.8458 181.994C61.7245 181.966 61.6078 181.952 61.4958 181.952C61.0758 181.952 60.7072 182.073 60.3898 182.316C60.0818 182.559 59.8392 182.899 59.6618 183.338V188H58.6398ZM66.1619 188.112C65.5272 188.112 64.9579 187.958 64.4539 187.65C63.9499 187.342 63.5532 186.922 63.2639 186.39C62.9746 185.858 62.8299 185.256 62.8299 184.584C62.8299 183.912 62.9746 183.31 63.2639 182.778C63.5532 182.246 63.9499 181.826 64.4539 181.518C64.9579 181.21 65.5272 181.056 66.1619 181.056C66.7872 181.056 67.3472 181.21 67.8419 181.518C68.3459 181.826 68.7426 182.246 69.0319 182.778C69.3212 183.31 69.4659 183.912 69.4659 184.584C69.4659 185.256 69.3212 185.858 69.0319 186.39C68.7426 186.922 68.3459 187.342 67.8419 187.65C67.3472 187.958 66.7872 188.112 66.1619 188.112ZM66.1479 187.216C66.5959 187.216 66.9926 187.104 67.3379 186.88C67.6832 186.647 67.9539 186.329 68.1499 185.928C68.3552 185.527 68.4579 185.079 68.4579 184.584C68.4579 184.08 68.3552 183.632 68.1499 183.24C67.9539 182.839 67.6832 182.526 67.3379 182.302C66.9926 182.069 66.5959 181.952 66.1479 181.952C65.6999 181.952 65.3032 182.069 64.9579 182.302C64.6126 182.526 64.3372 182.839 64.1319 183.24C63.9359 183.632 63.8379 184.08 63.8379 184.584C63.8379 185.079 63.9359 185.527 64.1319 185.928C64.3372 186.329 64.6126 186.647 64.9579 186.88C65.3032 187.104 65.6999 187.216 66.1479 187.216ZM71.259 188V181.168H72.281V182.568C72.4583 182.092 72.7103 181.723 73.037 181.462C73.373 181.191 73.7557 181.056 74.185 181.056C74.3063 181.056 74.4183 181.065 74.521 181.084C74.6237 181.093 74.7263 181.117 74.829 181.154V182.078C74.717 182.041 74.5957 182.013 74.465 181.994C74.3437 181.966 74.227 181.952 74.115 181.952C73.695 181.952 73.3263 182.073 73.009 182.316C72.701 182.559 72.4583 182.899 72.281 183.338V188H71.259Z" fill="#151515"/>
</g>
</g>
<defs>
<filter id="filter0_d_385_66878" x="11" y="60" width="303" height="163" filterUnits="userSpaceOnUse" color-interpolation-filters="sRGB">
<feFlood flood-opacity="0" result="BackgroundImageFix"/>
<feColorMatrix in="SourceAlpha" type="matrix" values="0 0 0 0 0 0 0 0 0 0 0 0 0 0 0 0 0 0 127 0" result="hardAlpha"/>
<feOffset dy="4"/>
<feGaussianBlur stdDeviation="4.5"/>
<feColorMatrix type="matrix" values="0 0 0 0 0.160784 0 0 0 0 0.160784 0 0 0 0 0.160784 0 0 0 0.15 0"/>
<feBlend mode="normal" in2="BackgroundImageFix" result="effect1_dropShadow_385_66878"/>
<feBlend mode="normal" in="SourceGraphic" in2="effect1_dropShadow_385_66878" result="shape"/>
</filter>
<clipPath id="clip0_385_66878">
<rect width="325" height="239" fill="white"/>
</clipPath>
<clipPath id="clip1_385_66878">
<rect width="21" height="21" fill="white" transform="translate(268 36)"/>
</clipPath>
</defs>
</svg>
