<svg width="233" height="157" viewBox="0 0 233 157" fill="none" xmlns="http://www.w3.org/2000/svg">
<rect width="233" height="157" fill="white"/>
<mask id="path-1-inside-1_385_69345" fill="white">
<path d="M11 16C11 12.6863 13.6863 10 17 10H216C219.314 10 222 12.6863 222 16V41C222 44.3137 219.314 47 216 47H17C13.6863 47 11 44.3137 11 41V16Z"/>
</mask>
<path d="M11 16C11 12.6863 13.6863 10 17 10H216C219.314 10 222 12.6863 222 16V41C222 44.3137 219.314 47 216 47H17C13.6863 47 11 44.3137 11 41V16Z" fill="white"/>
<path d="M17 11H216V9H17V11ZM221 16V41H223V16H221ZM216 46H17V48H216V46ZM12 41V16H10V41H12ZM17 46C14.2386 46 12 43.7614 12 41H10C10 44.866 13.134 48 17 48V46ZM221 41C221 43.7614 218.761 46 216 46V48C219.866 48 223 44.866 223 41H221ZM216 11C218.761 11 221 13.2386 221 16H223C223 12.134 219.866 9 216 9V11ZM17 9C13.134 9 10 12.134 10 16H12C12 13.2386 14.2386 11 17 11V9Z" fill="#B1380B" mask="url(#path-1-inside-1_385_69345)"/>
<path d="M28.246 33V23.2H34.938V24.152H29.324V27.582H33.216V28.52H29.324V32.048H34.994V33H28.246ZM36.718 33V26.168H37.74V27.568C37.9173 27.092 38.1693 26.7233 38.496 26.462C38.832 26.1913 39.2146 26.056 39.644 26.056C39.7653 26.056 39.8773 26.0653 39.98 26.084C40.0826 26.0933 40.1853 26.1167 40.288 26.154V27.078C40.176 27.0407 40.0546 27.0127 39.924 26.994C39.8026 26.966 39.686 26.952 39.574 26.952C39.154 26.952 38.7853 27.0733 38.468 27.316C38.16 27.5587 37.9173 27.8993 37.74 28.338V33H36.718ZM41.6398 33V26.168H42.6618V27.568C42.8392 27.092 43.0912 26.7233 43.4178 26.462C43.7538 26.1913 44.1365 26.056 44.5658 26.056C44.6872 26.056 44.7992 26.0653 44.9018 26.084C45.0045 26.0933 45.1072 26.1167 45.2098 26.154V27.078C45.0978 27.0407 44.9765 27.0127 44.8458 26.994C44.7245 26.966 44.6078 26.952 44.4958 26.952C44.0758 26.952 43.7072 27.0733 43.3898 27.316C43.0818 27.5587 42.8392 27.8993 42.6618 28.338V33H41.6398ZM49.1619 33.112C48.5272 33.112 47.9579 32.958 47.4539 32.65C46.9499 32.342 46.5532 31.922 46.2639 31.39C45.9746 30.858 45.8299 30.256 45.8299 29.584C45.8299 28.912 45.9746 28.31 46.2639 27.778C46.5532 27.246 46.9499 26.826 47.4539 26.518C47.9579 26.21 48.5272 26.056 49.1619 26.056C49.7872 26.056 50.3472 26.21 50.8419 26.518C51.3459 26.826 51.7426 27.246 52.0319 27.778C52.3212 28.31 52.4659 28.912 52.4659 29.584C52.4659 30.256 52.3212 30.858 52.0319 31.39C51.7426 31.922 51.3459 32.342 50.8419 32.65C50.3472 32.958 49.7872 33.112 49.1619 33.112ZM49.1479 32.216C49.5959 32.216 49.9926 32.104 50.3379 31.88C50.6832 31.6467 50.9539 31.3293 51.1499 30.928C51.3552 30.5267 51.4579 30.0787 51.4579 29.584C51.4579 29.08 51.3552 28.632 51.1499 28.24C50.9539 27.8387 50.6832 27.526 50.3379 27.302C49.9926 27.0687 49.5959 26.952 49.1479 26.952C48.6999 26.952 48.3032 27.0687 47.9579 27.302C47.6126 27.526 47.3372 27.8387 47.1319 28.24C46.9359 28.632 46.8379 29.08 46.8379 29.584C46.8379 30.0787 46.9359 30.5267 47.1319 30.928C47.3372 31.3293 47.6126 31.6467 47.9579 31.88C48.3032 32.104 48.6999 32.216 49.1479 32.216ZM54.259 33V26.168H55.281V27.568C55.4583 27.092 55.7103 26.7233 56.037 26.462C56.373 26.1913 56.7557 26.056 57.185 26.056C57.3063 26.056 57.4183 26.0653 57.521 26.084C57.6237 26.0933 57.7263 26.1167 57.829 26.154V27.078C57.717 27.0407 57.5957 27.0127 57.465 26.994C57.3437 26.966 57.227 26.952 57.115 26.952C56.695 26.952 56.3263 27.0733 56.009 27.316C55.701 27.5587 55.4583 27.8993 55.281 28.338V33H54.259ZM65.5284 33.14C64.8938 33.14 64.3198 32.986 63.8064 32.678C63.2931 32.3607 62.8871 31.936 62.5884 31.404C62.2898 30.8627 62.1404 30.256 62.1404 29.584C62.1404 28.912 62.2804 28.31 62.5604 27.778C62.8498 27.246 63.2371 26.826 63.7224 26.518C64.2078 26.21 64.7491 26.056 65.3464 26.056C65.9531 26.056 66.4898 26.21 66.9564 26.518C67.4324 26.8167 67.8058 27.2273 68.0764 27.75C68.3564 28.2633 68.4964 28.8467 68.4964 29.5V29.808H63.1344C63.1718 30.2747 63.2978 30.6947 63.5124 31.068C63.7364 31.432 64.0258 31.7213 64.3804 31.936C64.7444 32.1413 65.1411 32.244 65.5704 32.244C65.9251 32.244 66.2658 32.1833 66.5924 32.062C66.9284 31.9313 67.2131 31.7587 67.4464 31.544L68.0904 32.23C67.6984 32.538 67.2924 32.7667 66.8724 32.916C66.4524 33.0653 66.0044 33.14 65.5284 33.14ZM63.1624 29.08H67.4884C67.4418 28.6693 67.3158 28.3053 67.1104 27.988C66.9144 27.6613 66.6624 27.4047 66.3544 27.218C66.0558 27.0313 65.7198 26.938 65.3464 26.938C64.9731 26.938 64.6324 27.0313 64.3244 27.218C64.0164 27.3953 63.7598 27.6473 63.5544 27.974C63.3584 28.2913 63.2278 28.66 63.1624 29.08ZM68.9496 33L71.5676 29.458L69.1036 26.168H70.3216L72.2116 28.772L74.0876 26.168H75.2496L72.7716 29.486L75.4036 33H74.1856L72.1416 30.214L70.1116 33H68.9496ZM78.5488 33.126C78.0634 33.126 77.6341 33.0373 77.2608 32.86C76.8874 32.6827 76.5934 32.44 76.3788 32.132C76.1734 31.8147 76.0708 31.4507 76.0708 31.04C76.0708 30.6293 76.1781 30.2747 76.3928 29.976C76.6074 29.668 76.9061 29.43 77.2888 29.262C77.6714 29.094 78.1194 29.01 78.6328 29.01C79.0248 29.01 79.3934 29.052 79.7388 29.136C80.0934 29.22 80.4201 29.3553 80.7188 29.542V28.604C80.7188 28.044 80.5694 27.624 80.2708 27.344C79.9721 27.0547 79.5334 26.91 78.9548 26.91C78.6374 26.91 78.3108 26.9567 77.9748 27.05C77.6481 27.1433 77.2841 27.2927 76.8828 27.498L76.5048 26.714C77.4194 26.2753 78.2781 26.056 79.0808 26.056C79.9301 26.056 80.5834 26.266 81.0408 26.686C81.4981 27.0967 81.7268 27.6893 81.7268 28.464V33H80.7188V32.202C80.4201 32.51 80.0888 32.7433 79.7248 32.902C79.3608 33.0513 78.9688 33.126 78.5488 33.126ZM77.0508 31.012C77.0508 31.4133 77.2048 31.7353 77.5128 31.978C77.8301 32.2207 78.2454 32.342 78.7588 32.342C79.1414 32.342 79.4914 32.2767 79.8088 32.146C80.1354 32.0153 80.4388 31.8193 80.7188 31.558V30.242C80.4294 30.074 80.1308 29.9527 79.8228 29.878C79.5148 29.794 79.1694 29.752 78.7868 29.752C78.2641 29.752 77.8441 29.8687 77.5268 30.102C77.2094 30.326 77.0508 30.6293 77.0508 31.012ZM83.8039 33V26.168H84.8259V27.232C85.0872 26.84 85.3859 26.546 85.7219 26.35C86.0579 26.154 86.4359 26.056 86.8559 26.056C87.3412 26.056 87.7659 26.1773 88.1299 26.42C88.4939 26.6533 88.7692 26.9753 88.9559 27.386C89.2266 26.9473 89.5486 26.616 89.9219 26.392C90.3046 26.168 90.7432 26.056 91.2379 26.056C91.6952 26.056 92.0966 26.1633 92.4419 26.378C92.7966 26.5927 93.0719 26.8913 93.2679 27.274C93.4639 27.6473 93.5619 28.086 93.5619 28.59V33H92.5399V28.842C92.5399 28.2447 92.3906 27.7733 92.0919 27.428C91.7932 27.0827 91.3826 26.91 90.8599 26.91C90.5052 26.91 90.1832 26.9987 89.8939 27.176C89.6139 27.3533 89.3666 27.624 89.1519 27.988C89.1706 28.0813 89.1846 28.1793 89.1939 28.282C89.2032 28.3847 89.2079 28.4873 89.2079 28.59V33H88.1859V28.842C88.1859 28.2447 88.0319 27.7733 87.7239 27.428C87.4252 27.0827 87.0146 26.91 86.4919 26.91C85.7919 26.91 85.2366 27.246 84.8259 27.918V33H83.8039ZM95.6301 35.926V26.168H96.6381V27.148C96.8994 26.8027 97.2167 26.5413 97.5901 26.364C97.9727 26.1773 98.3927 26.084 98.8501 26.084C99.4474 26.084 99.9794 26.2427 100.446 26.56C100.922 26.868 101.3 27.288 101.58 27.82C101.86 28.3427 102 28.9307 102 29.584C102 30.2373 101.855 30.83 101.566 31.362C101.286 31.894 100.903 32.3187 100.418 32.636C99.9421 32.944 99.4007 33.098 98.7941 33.098C98.3647 33.098 97.9681 33.0187 97.6041 32.86C97.2401 32.692 96.9227 32.454 96.6521 32.146V35.926H95.6301ZM98.5981 32.216C99.0554 32.216 99.4614 32.104 99.8161 31.88C100.18 31.6467 100.465 31.334 100.67 30.942C100.885 30.5407 100.992 30.0927 100.992 29.598C100.992 29.094 100.885 28.646 100.67 28.254C100.465 27.862 100.18 27.554 99.8161 27.33C99.4614 27.0967 99.0554 26.98 98.5981 26.98C98.1967 26.98 97.8234 27.064 97.4781 27.232C97.1421 27.3907 96.8667 27.6193 96.6521 27.918V31.264C96.8761 31.5627 97.1561 31.796 97.4921 31.964C97.8374 32.132 98.2061 32.216 98.5981 32.216ZM103.792 33V22.892L104.814 22.682V33H103.792ZM109.989 33.14C109.355 33.14 108.781 32.986 108.267 32.678C107.754 32.3607 107.348 31.936 107.049 31.404C106.751 30.8627 106.601 30.256 106.601 29.584C106.601 28.912 106.741 28.31 107.021 27.778C107.311 27.246 107.698 26.826 108.183 26.518C108.669 26.21 109.21 26.056 109.807 26.056C110.414 26.056 110.951 26.21 111.417 26.518C111.893 26.8167 112.267 27.2273 112.537 27.75C112.817 28.2633 112.957 28.8467 112.957 29.5V29.808H107.595C107.633 30.2747 107.759 30.6947 107.973 31.068C108.197 31.432 108.487 31.7213 108.841 31.936C109.205 32.1413 109.602 32.244 110.031 32.244C110.386 32.244 110.727 32.1833 111.053 32.062C111.389 31.9313 111.674 31.7587 111.907 31.544L112.551 32.23C112.159 32.538 111.753 32.7667 111.333 32.916C110.913 33.0653 110.465 33.14 109.989 33.14ZM107.623 29.08H111.949C111.903 28.6693 111.777 28.3053 111.571 27.988C111.375 27.6613 111.123 27.4047 110.815 27.218C110.517 27.0313 110.181 26.938 109.807 26.938C109.434 26.938 109.093 27.0313 108.785 27.218C108.477 27.3953 108.221 27.6473 108.015 27.974C107.819 28.2913 107.689 28.66 107.623 29.08Z" fill="#151515"/>
<g clip-path="url(#clip0_385_69345)">
<path fill-rule="evenodd" clip-rule="evenodd" d="M173 35.5C176.866 35.5 180 32.3669 180 28.5C180 24.6354 176.866 21.5 173 21.5C169.134 21.5 166 24.6354 166 28.5C166 32.3669 169.134 35.5 173 35.5ZM173.685 29.4032H172.315C172.135 29.4032 171.986 29.2626 171.977 29.083L171.767 25.2443C171.757 25.0502 171.911 24.8871 172.105 24.8871H173.894C174.089 24.8871 174.243 25.0502 174.233 25.2443L174.023 29.083C174.014 29.2626 173.865 29.4032 173.685 29.4032ZM173 32.5081C172.283 32.5081 171.702 31.9268 171.702 31.2097C171.702 30.4926 172.283 29.9113 173 29.9113C173.717 29.9113 174.298 30.4926 174.298 31.2097C174.298 31.9268 173.717 32.5081 173 32.5081Z" fill="#B1380B"/>
<path fill-rule="evenodd" clip-rule="evenodd" d="M196.389 31.1714L199.921 27.6102C200.267 27.2615 200.023 26.6666 199.534 26.6666H192.466C191.977 26.6666 191.733 27.2615 192.079 27.6102L195.611 31.1714C195.826 31.3872 196.174 31.3872 196.389 31.1714Z" fill="#1F1F1F"/>
</g>
<mask id="path-6-inside-2_385_69345" fill="white">
<path d="M11 66C11 62.6863 13.6863 60 17 60H216C219.314 60 222 62.6863 222 66V91C222 94.3137 219.314 97 216 97H17C13.6863 97 11 94.3137 11 91V66Z"/>
</mask>
<path d="M11 66C11 62.6863 13.6863 60 17 60H216C219.314 60 222 62.6863 222 66V91C222 94.3137 219.314 97 216 97H17C13.6863 97 11 94.3137 11 91V66Z" fill="white"/>
<path d="M17 61H216V59H17V61ZM221 66V91H223V66H221ZM216 96H17V98H216V96ZM12 91V66H10V91H12ZM17 96C14.2386 96 12 93.7614 12 91H10C10 94.866 13.134 98 17 98V96ZM221 91C221 93.7614 218.761 96 216 96V98C219.866 98 223 94.866 223 91H221ZM216 61C218.761 61 221 63.2386 221 66H223C223 62.134 219.866 59 216 59V61ZM17 59C13.134 59 10 62.134 10 66H12C12 63.2386 14.2386 61 17 61V59Z" fill="#DCA614" mask="url(#path-6-inside-2_385_69345)"/>
<path d="M29.702 83L27.588 73.2H28.68L30.346 81.306L32.768 73.2H33.818L36.24 81.278L37.92 73.2H38.97L36.856 83H35.764L33.286 74.684L30.794 83H29.702ZM42.1679 83.126C41.6826 83.126 41.2532 83.0373 40.8799 82.86C40.5066 82.6827 40.2126 82.44 39.9979 82.132C39.7926 81.8147 39.6899 81.4507 39.6899 81.04C39.6899 80.6293 39.7972 80.2747 40.0119 79.976C40.2266 79.668 40.5252 79.43 40.9079 79.262C41.2906 79.094 41.7386 79.01 42.2519 79.01C42.6439 79.01 43.0126 79.052 43.3579 79.136C43.7126 79.22 44.0392 79.3553 44.3379 79.542V78.604C44.3379 78.044 44.1886 77.624 43.8899 77.344C43.5912 77.0547 43.1526 76.91 42.5739 76.91C42.2566 76.91 41.9299 76.9567 41.5939 77.05C41.2672 77.1433 40.9032 77.2927 40.5019 77.498L40.1239 76.714C41.0386 76.2753 41.8972 76.056 42.6999 76.056C43.5492 76.056 44.2026 76.266 44.6599 76.686C45.1172 77.0967 45.3459 77.6893 45.3459 78.464V83H44.3379V82.202C44.0392 82.51 43.7079 82.7433 43.3439 82.902C42.9799 83.0513 42.5879 83.126 42.1679 83.126ZM40.6699 81.012C40.6699 81.4133 40.8239 81.7353 41.1319 81.978C41.4492 82.2207 41.8646 82.342 42.3779 82.342C42.7606 82.342 43.1106 82.2767 43.4279 82.146C43.7546 82.0153 44.0579 81.8193 44.3379 81.558V80.242C44.0486 80.074 43.7499 79.9527 43.4419 79.878C43.1339 79.794 42.7886 79.752 42.4059 79.752C41.8832 79.752 41.4632 79.8687 41.1459 80.102C40.8286 80.326 40.6699 80.6293 40.6699 81.012ZM47.423 83V76.168H48.445V77.568C48.6224 77.092 48.8744 76.7233 49.201 76.462C49.537 76.1913 49.9197 76.056 50.349 76.056C50.4704 76.056 50.5824 76.0653 50.685 76.084C50.7877 76.0933 50.8904 76.1167 50.993 76.154V77.078C50.881 77.0407 50.7597 77.0127 50.629 76.994C50.5077 76.966 50.391 76.952 50.279 76.952C49.859 76.952 49.4904 77.0733 49.173 77.316C48.865 77.5587 48.6224 77.8993 48.445 78.338V83H47.423ZM52.3449 83V76.168H53.3669V77.274C53.6283 76.8633 53.9409 76.56 54.3049 76.364C54.6689 76.1587 55.0796 76.056 55.5369 76.056C56.0316 76.056 56.4609 76.1633 56.8249 76.378C57.1983 76.5833 57.4876 76.8773 57.6929 77.26C57.9076 77.6333 58.0149 78.072 58.0149 78.576V83H56.9929V78.87C56.9929 78.2633 56.8249 77.7873 56.4889 77.442C56.1623 77.0873 55.7189 76.91 55.1589 76.91C54.7856 76.91 54.4449 76.9987 54.1369 77.176C53.8289 77.3533 53.5723 77.6147 53.3669 77.96V83H52.3449ZM60.0555 83V76.168H61.0775V83H60.0555ZM60.5735 74.474C60.3682 74.474 60.1909 74.404 60.0415 74.264C59.9015 74.1147 59.8315 73.942 59.8315 73.746C59.8315 73.55 59.9015 73.382 60.0415 73.242C60.1909 73.0927 60.3682 73.018 60.5735 73.018C60.7789 73.018 60.9515 73.0927 61.0915 73.242C61.2409 73.382 61.3155 73.55 61.3155 73.746C61.3155 73.942 61.2409 74.1147 61.0915 74.264C60.9515 74.404 60.7789 74.474 60.5735 74.474ZM63.173 83V76.168H64.195V77.274C64.4564 76.8633 64.769 76.56 65.133 76.364C65.497 76.1587 65.9077 76.056 66.365 76.056C66.8597 76.056 67.289 76.1633 67.653 76.378C68.0264 76.5833 68.3157 76.8773 68.521 77.26C68.7357 77.6333 68.843 78.072 68.843 78.576V83H67.821V78.87C67.821 78.2633 67.653 77.7873 67.317 77.442C66.9904 77.0873 66.547 76.91 65.987 76.91C65.6137 76.91 65.273 76.9987 64.965 77.176C64.657 77.3533 64.4004 77.6147 64.195 77.96V83H63.173ZM74.0617 86.066C73.6043 86.066 73.1423 86.0007 72.6757 85.87C72.2183 85.7487 71.7937 85.576 71.4017 85.352L71.8357 84.568C72.2557 84.7827 72.6383 84.9413 72.9837 85.044C73.329 85.1467 73.6743 85.198 74.0197 85.198C74.645 85.198 75.1163 85.0487 75.4337 84.75C75.7603 84.4513 75.9237 84.0173 75.9237 83.448V82.076C75.6623 82.4027 75.345 82.6547 74.9717 82.832C74.5983 83 74.1877 83.084 73.7397 83.084C73.1517 83.084 72.6197 82.93 72.1437 82.622C71.6677 82.3047 71.2897 81.8847 71.0097 81.362C70.7297 80.83 70.5897 80.2373 70.5897 79.584C70.5897 78.9307 70.7297 78.3427 71.0097 77.82C71.299 77.288 71.6863 76.868 72.1717 76.56C72.657 76.2427 73.1983 76.084 73.7957 76.084C74.225 76.084 74.6217 76.168 74.9857 76.336C75.3497 76.4947 75.667 76.7327 75.9377 77.05V76.168H76.9457V83.434C76.9457 84.2833 76.6983 84.932 76.2037 85.38C75.709 85.8373 74.995 86.066 74.0617 86.066ZM73.9917 82.202C74.393 82.202 74.7617 82.1227 75.0977 81.964C75.4337 81.796 75.709 81.5673 75.9237 81.278V77.904C75.6997 77.6147 75.415 77.3907 75.0697 77.232C74.7337 77.064 74.3743 76.98 73.9917 76.98C73.5343 76.98 73.1237 77.092 72.7597 77.316C72.405 77.54 72.1203 77.848 71.9057 78.24C71.7003 78.632 71.5977 79.08 71.5977 79.584C71.5977 80.0787 71.7003 80.5267 71.9057 80.928C72.1203 81.32 72.405 81.6327 72.7597 81.866C73.1237 82.09 73.5343 82.202 73.9917 82.202ZM85.3937 83.14C84.759 83.14 84.185 82.986 83.6717 82.678C83.1583 82.3607 82.7523 81.936 82.4537 81.404C82.155 80.8627 82.0057 80.256 82.0057 79.584C82.0057 78.912 82.1457 78.31 82.4257 77.778C82.715 77.246 83.1023 76.826 83.5877 76.518C84.073 76.21 84.6143 76.056 85.2117 76.056C85.8183 76.056 86.355 76.21 86.8217 76.518C87.2977 76.8167 87.671 77.2273 87.9417 77.75C88.2217 78.2633 88.3617 78.8467 88.3617 79.5V79.808H82.9997C83.037 80.2747 83.163 80.6947 83.3777 81.068C83.6017 81.432 83.891 81.7213 84.2457 81.936C84.6097 82.1413 85.0063 82.244 85.4357 82.244C85.7903 82.244 86.131 82.1833 86.4577 82.062C86.7937 81.9313 87.0783 81.7587 87.3117 81.544L87.9557 82.23C87.5637 82.538 87.1577 82.7667 86.7377 82.916C86.3177 83.0653 85.8697 83.14 85.3937 83.14ZM83.0277 79.08H87.3537C87.307 78.6693 87.181 78.3053 86.9757 77.988C86.7797 77.6613 86.5277 77.4047 86.2197 77.218C85.921 77.0313 85.585 76.938 85.2117 76.938C84.8383 76.938 84.4977 77.0313 84.1897 77.218C83.8817 77.3953 83.625 77.6473 83.4197 77.974C83.2237 78.2913 83.093 78.66 83.0277 79.08ZM88.8148 83L91.4328 79.458L88.9688 76.168H90.1868L92.0768 78.772L93.9528 76.168H95.1148L92.6368 79.486L95.2688 83H94.0508L92.0068 80.214L89.9768 83H88.8148ZM98.414 83.126C97.9287 83.126 97.4993 83.0373 97.126 82.86C96.7527 82.6827 96.4587 82.44 96.244 82.132C96.0387 81.8147 95.936 81.4507 95.936 81.04C95.936 80.6293 96.0433 80.2747 96.258 79.976C96.4727 79.668 96.7713 79.43 97.154 79.262C97.5367 79.094 97.9847 79.01 98.498 79.01C98.89 79.01 99.2587 79.052 99.604 79.136C99.9587 79.22 100.285 79.3553 100.584 79.542V78.604C100.584 78.044 100.435 77.624 100.136 77.344C99.8373 77.0547 99.3987 76.91 98.82 76.91C98.5027 76.91 98.176 76.9567 97.84 77.05C97.5133 77.1433 97.1493 77.2927 96.748 77.498L96.37 76.714C97.2847 76.2753 98.1433 76.056 98.946 76.056C99.7953 76.056 100.449 76.266 100.906 76.686C101.363 77.0967 101.592 77.6893 101.592 78.464V83H100.584V82.202C100.285 82.51 99.954 82.7433 99.59 82.902C99.226 83.0513 98.834 83.126 98.414 83.126ZM96.916 81.012C96.916 81.4133 97.07 81.7353 97.378 81.978C97.6953 82.2207 98.1107 82.342 98.624 82.342C99.0067 82.342 99.3567 82.2767 99.674 82.146C100.001 82.0153 100.304 81.8193 100.584 81.558V80.242C100.295 80.074 99.996 79.9527 99.688 79.878C99.38 79.794 99.0347 79.752 98.652 79.752C98.1293 79.752 97.7093 79.8687 97.392 80.102C97.0747 80.326 96.916 80.6293 96.916 81.012ZM103.669 83V76.168H104.691V77.232C104.952 76.84 105.251 76.546 105.587 76.35C105.923 76.154 106.301 76.056 106.721 76.056C107.206 76.056 107.631 76.1773 107.995 76.42C108.359 76.6533 108.634 76.9753 108.821 77.386C109.092 76.9473 109.414 76.616 109.787 76.392C110.17 76.168 110.608 76.056 111.103 76.056C111.56 76.056 111.962 76.1633 112.307 76.378C112.662 76.5927 112.937 76.8913 113.133 77.274C113.329 77.6473 113.427 78.086 113.427 78.59V83H112.405V78.842C112.405 78.2447 112.256 77.7733 111.957 77.428C111.658 77.0827 111.248 76.91 110.725 76.91C110.37 76.91 110.048 76.9987 109.759 77.176C109.479 77.3533 109.232 77.624 109.017 77.988C109.036 78.0813 109.05 78.1793 109.059 78.282C109.068 78.3847 109.073 78.4873 109.073 78.59V83H108.051V78.842C108.051 78.2447 107.897 77.7733 107.589 77.428C107.29 77.0827 106.88 76.91 106.357 76.91C105.657 76.91 105.102 77.246 104.691 77.918V83H103.669ZM115.495 85.926V76.168H116.503V77.148C116.765 76.8027 117.082 76.5413 117.455 76.364C117.838 76.1773 118.258 76.084 118.715 76.084C119.313 76.084 119.845 76.2427 120.311 76.56C120.787 76.868 121.165 77.288 121.445 77.82C121.725 78.3427 121.865 78.9307 121.865 79.584C121.865 80.2373 121.721 80.83 121.431 81.362C121.151 81.894 120.769 82.3187 120.283 82.636C119.807 82.944 119.266 83.098 118.659 83.098C118.23 83.098 117.833 83.0187 117.469 82.86C117.105 82.692 116.788 82.454 116.517 82.146V85.926H115.495ZM118.463 82.216C118.921 82.216 119.327 82.104 119.681 81.88C120.045 81.6467 120.33 81.334 120.535 80.942C120.75 80.5407 120.857 80.0927 120.857 79.598C120.857 79.094 120.75 78.646 120.535 78.254C120.33 77.862 120.045 77.554 119.681 77.33C119.327 77.0967 118.921 76.98 118.463 76.98C118.062 76.98 117.689 77.064 117.343 77.232C117.007 77.3907 116.732 77.6193 116.517 77.918V81.264C116.741 81.5627 117.021 81.796 117.357 81.964C117.703 82.132 118.071 82.216 118.463 82.216ZM123.657 83V72.892L124.679 72.682V83H123.657ZM129.855 83.14C129.22 83.14 128.646 82.986 128.133 82.678C127.619 82.3607 127.213 81.936 126.915 81.404C126.616 80.8627 126.467 80.256 126.467 79.584C126.467 78.912 126.607 78.31 126.887 77.778C127.176 77.246 127.563 76.826 128.049 76.518C128.534 76.21 129.075 76.056 129.673 76.056C130.279 76.056 130.816 76.21 131.283 76.518C131.759 76.8167 132.132 77.2273 132.403 77.75C132.683 78.2633 132.823 78.8467 132.823 79.5V79.808H127.461C127.498 80.2747 127.624 80.6947 127.839 81.068C128.063 81.432 128.352 81.7213 128.707 81.936C129.071 82.1413 129.467 82.244 129.897 82.244C130.251 82.244 130.592 82.1833 130.919 82.062C131.255 81.9313 131.539 81.7587 131.773 81.544L132.417 82.23C132.025 82.538 131.619 82.7667 131.199 82.916C130.779 83.0653 130.331 83.14 129.855 83.14ZM127.489 79.08H131.815C131.768 78.6693 131.642 78.3053 131.437 77.988C131.241 77.6613 130.989 77.4047 130.681 77.218C130.382 77.0313 130.046 76.938 129.673 76.938C129.299 76.938 128.959 77.0313 128.651 77.218C128.343 77.3953 128.086 77.6473 127.881 77.974C127.685 78.2913 127.554 78.66 127.489 79.08Z" fill="#151515"/>
<g clip-path="url(#clip1_385_69345)">
<path fill-rule="evenodd" clip-rule="evenodd" d="M179.853 85.5C180.861 85.5 181.494 84.4064 180.989 83.5316L174.429 72.1558C173.924 71.2822 172.66 71.2806 172.155 72.1558L165.594 83.5316C165.09 84.4047 165.721 85.5 166.731 85.5H179.853ZM173.955 80.6875H172.628C172.454 80.6875 172.31 80.5512 172.3 80.3772L172.097 76.6585C172.087 76.4705 172.237 76.3125 172.425 76.3125H174.158C174.346 76.3125 174.496 76.4705 174.486 76.6585L174.283 80.3772C174.274 80.5512 174.13 80.6875 173.955 80.6875ZM173.292 83.6953C172.597 83.6953 172.034 83.1321 172.034 82.4375C172.034 81.7428 172.597 81.1797 173.292 81.1797C173.986 81.1797 174.549 81.7428 174.549 82.4375C174.549 83.1321 173.986 83.6953 173.292 83.6953Z" fill="#DCA614"/>
<path fill-rule="evenodd" clip-rule="evenodd" d="M196.389 81.1714L199.921 77.6102C200.267 77.2615 200.023 76.6666 199.534 76.6666H192.466C191.977 76.6666 191.733 77.2615 192.079 77.6102L195.611 81.1714C195.826 81.3872 196.174 81.3872 196.389 81.1714Z" fill="#1F1F1F"/>
</g>
<mask id="path-11-inside-3_385_69345" fill="white">
<path d="M11 116C11 112.686 13.6863 110 17 110H216C219.314 110 222 112.686 222 116V141C222 144.314 219.314 147 216 147H17C13.6863 147 11 144.314 11 141V116Z"/>
</mask>
<path d="M11 116C11 112.686 13.6863 110 17 110H216C219.314 110 222 112.686 222 116V141C222 144.314 219.314 147 216 147H17C13.6863 147 11 144.314 11 141V116Z" fill="white"/>
<path d="M17 111H216V109H17V111ZM221 116V141H223V116H221ZM216 146H17V148H216V146ZM12 141V116H10V141H12ZM17 146C14.2386 146 12 143.761 12 141H10C10 144.866 13.134 148 17 148V146ZM221 141C221 143.761 218.761 146 216 146V148C219.866 148 223 144.866 223 141H221ZM216 111C218.761 111 221 113.239 221 116H223C223 112.134 219.866 109 216 109V111ZM17 109C13.134 109 10 112.134 10 116H12C12 113.239 14.2386 111 17 111V109Z" fill="#3D7317" mask="url(#path-11-inside-3_385_69345)"/>
<path d="M31.41 133.154C30.6447 133.154 29.9353 133.019 29.282 132.748C28.6287 132.468 27.9987 132.048 27.392 131.488L28.05 130.704C28.638 131.255 29.1887 131.647 29.702 131.88C30.2247 132.113 30.8033 132.23 31.438 132.23C31.942 132.23 32.39 132.146 32.782 131.978C33.1833 131.801 33.496 131.563 33.72 131.264C33.944 130.965 34.056 130.625 34.056 130.242C34.056 129.747 33.8927 129.374 33.566 129.122C33.2393 128.861 32.6747 128.66 31.872 128.52L30.29 128.254C29.394 128.095 28.736 127.825 28.316 127.442C27.9053 127.05 27.7 126.527 27.7 125.874C27.7 125.323 27.84 124.838 28.12 124.418C28.4093 123.989 28.806 123.653 29.31 123.41C29.814 123.167 30.3973 123.046 31.06 123.046C31.788 123.046 32.4647 123.149 33.09 123.354C33.7153 123.55 34.3313 123.863 34.938 124.292L34.378 125.132C33.874 124.749 33.342 124.46 32.782 124.264C32.222 124.059 31.6527 123.956 31.074 123.956C30.6167 123.956 30.2107 124.035 29.856 124.194C29.5107 124.353 29.2353 124.567 29.03 124.838C28.834 125.109 28.736 125.417 28.736 125.762C28.736 126.191 28.8807 126.527 29.17 126.77C29.4593 127.013 29.9307 127.185 30.584 127.288L32.152 127.554C33.1973 127.741 33.9533 128.044 34.42 128.464C34.896 128.875 35.134 129.449 35.134 130.186C35.134 130.755 34.9707 131.264 34.644 131.712C34.3267 132.16 33.888 132.515 33.328 132.776C32.768 133.028 32.1287 133.154 31.41 133.154ZM39.2087 133.112C38.7233 133.112 38.294 133.005 37.9207 132.79C37.5473 132.575 37.2533 132.277 37.0387 131.894C36.8333 131.511 36.7307 131.073 36.7307 130.578V126.168H37.7667V130.284C37.7667 130.891 37.93 131.371 38.2567 131.726C38.5833 132.081 39.0267 132.258 39.5867 132.258C39.9693 132.258 40.31 132.169 40.6087 131.992C40.9167 131.815 41.1733 131.558 41.3787 131.222V126.168H42.4007V133H41.3787V131.894C41.1173 132.295 40.8047 132.599 40.4407 132.804C40.086 133.009 39.6753 133.112 39.2087 133.112ZM47.5633 133.112C46.9286 133.112 46.3546 132.958 45.8413 132.65C45.3373 132.333 44.9359 131.908 44.6373 131.376C44.3386 130.835 44.1893 130.237 44.1893 129.584C44.1893 128.921 44.3386 128.324 44.6373 127.792C44.9359 127.26 45.3373 126.84 45.8413 126.532C46.3546 126.215 46.9286 126.056 47.5633 126.056C48.0673 126.056 48.5479 126.149 49.0053 126.336C49.4626 126.523 49.8593 126.784 50.1953 127.12L49.5373 127.834C49.2946 127.563 49.0006 127.353 48.6553 127.204C48.3099 127.055 47.9599 126.98 47.6053 126.98C47.1573 126.98 46.7513 127.097 46.3873 127.33C46.0326 127.563 45.7479 127.876 45.5333 128.268C45.3186 128.66 45.2113 129.099 45.2113 129.584C45.2113 130.069 45.3186 130.508 45.5333 130.9C45.7479 131.292 46.0326 131.605 46.3873 131.838C46.7513 132.071 47.1573 132.188 47.6053 132.188C47.9599 132.188 48.3099 132.113 48.6553 131.964C49.0006 131.805 49.2946 131.595 49.5373 131.334L50.1953 132.048C49.8593 132.384 49.4626 132.645 49.0053 132.832C48.5479 133.019 48.0673 133.112 47.5633 133.112ZM54.4812 133.112C53.8466 133.112 53.2726 132.958 52.7592 132.65C52.2552 132.333 51.8539 131.908 51.5552 131.376C51.2566 130.835 51.1072 130.237 51.1072 129.584C51.1072 128.921 51.2566 128.324 51.5552 127.792C51.8539 127.26 52.2552 126.84 52.7592 126.532C53.2726 126.215 53.8466 126.056 54.4812 126.056C54.9852 126.056 55.4659 126.149 55.9232 126.336C56.3806 126.523 56.7772 126.784 57.1132 127.12L56.4552 127.834C56.2126 127.563 55.9186 127.353 55.5732 127.204C55.2279 127.055 54.8779 126.98 54.5232 126.98C54.0752 126.98 53.6692 127.097 53.3052 127.33C52.9506 127.563 52.6659 127.876 52.4512 128.268C52.2366 128.66 52.1292 129.099 52.1292 129.584C52.1292 130.069 52.2366 130.508 52.4512 130.9C52.6659 131.292 52.9506 131.605 53.3052 131.838C53.6692 132.071 54.0752 132.188 54.5232 132.188C54.8779 132.188 55.2279 132.113 55.5732 131.964C55.9186 131.805 56.2126 131.595 56.4552 131.334L57.1132 132.048C56.7772 132.384 56.3806 132.645 55.9232 132.832C55.4659 133.019 54.9852 133.112 54.4812 133.112ZM61.4132 133.14C60.7785 133.14 60.2045 132.986 59.6912 132.678C59.1779 132.361 58.7719 131.936 58.4732 131.404C58.1745 130.863 58.0252 130.256 58.0252 129.584C58.0252 128.912 58.1652 128.31 58.4452 127.778C58.7345 127.246 59.1219 126.826 59.6072 126.518C60.0925 126.21 60.6339 126.056 61.2312 126.056C61.8379 126.056 62.3745 126.21 62.8412 126.518C63.3172 126.817 63.6905 127.227 63.9612 127.75C64.2412 128.263 64.3812 128.847 64.3812 129.5V129.808H59.0192C59.0565 130.275 59.1825 130.695 59.3972 131.068C59.6212 131.432 59.9105 131.721 60.2652 131.936C60.6292 132.141 61.0259 132.244 61.4552 132.244C61.8099 132.244 62.1505 132.183 62.4772 132.062C62.8132 131.931 63.0979 131.759 63.3312 131.544L63.9752 132.23C63.5832 132.538 63.1772 132.767 62.7572 132.916C62.3372 133.065 61.8892 133.14 61.4132 133.14ZM59.0472 129.08H63.3732C63.3265 128.669 63.2005 128.305 62.9952 127.988C62.7992 127.661 62.5472 127.405 62.2392 127.218C61.9405 127.031 61.6045 126.938 61.2312 126.938C60.8579 126.938 60.5172 127.031 60.2092 127.218C59.9012 127.395 59.6445 127.647 59.4392 127.974C59.2432 128.291 59.1125 128.66 59.0472 129.08ZM68.3085 133.14C67.7485 133.14 67.2305 133.056 66.7545 132.888C66.2785 132.711 65.8725 132.459 65.5365 132.132L66.0825 131.46C66.4932 131.759 66.8712 131.978 67.2165 132.118C67.5619 132.249 67.9165 132.314 68.2805 132.314C68.7752 132.314 69.1859 132.197 69.5125 131.964C69.8392 131.731 70.0025 131.432 70.0025 131.068C70.0025 130.788 69.9045 130.569 69.7085 130.41C69.5219 130.251 69.2092 130.13 68.7705 130.046L67.6505 129.85C66.9879 129.729 66.4979 129.523 66.1805 129.234C65.8725 128.945 65.7185 128.553 65.7185 128.058C65.7185 127.666 65.8212 127.321 66.0265 127.022C66.2412 126.723 66.5352 126.49 66.9085 126.322C67.2819 126.145 67.7065 126.056 68.1825 126.056C68.6492 126.056 69.0925 126.126 69.5125 126.266C69.9325 126.397 70.3572 126.611 70.7865 126.91L70.2825 127.624C69.9279 127.372 69.5732 127.19 69.2185 127.078C68.8639 126.957 68.5045 126.896 68.1405 126.896C67.6925 126.896 67.3332 126.994 67.0625 127.19C66.7919 127.386 66.6565 127.652 66.6565 127.988C66.6565 128.268 66.7405 128.483 66.9085 128.632C67.0859 128.781 67.3939 128.893 67.8325 128.968L68.9805 129.178C69.6712 129.299 70.1752 129.509 70.4925 129.808C70.8099 130.107 70.9685 130.508 70.9685 131.012C70.9685 131.413 70.8519 131.777 70.6185 132.104C70.3852 132.421 70.0679 132.673 69.6665 132.86C69.2652 133.047 68.8125 133.14 68.3085 133.14ZM74.6386 133.14C74.0786 133.14 73.5606 133.056 73.0846 132.888C72.6086 132.711 72.2026 132.459 71.8666 132.132L72.4126 131.46C72.8233 131.759 73.2013 131.978 73.5466 132.118C73.8919 132.249 74.2466 132.314 74.6106 132.314C75.1053 132.314 75.5159 132.197 75.8426 131.964C76.1693 131.731 76.3326 131.432 76.3326 131.068C76.3326 130.788 76.2346 130.569 76.0386 130.41C75.8519 130.251 75.5393 130.13 75.1006 130.046L73.9806 129.85C73.3179 129.729 72.8279 129.523 72.5106 129.234C72.2026 128.945 72.0486 128.553 72.0486 128.058C72.0486 127.666 72.1513 127.321 72.3566 127.022C72.5713 126.723 72.8653 126.49 73.2386 126.322C73.6119 126.145 74.0366 126.056 74.5126 126.056C74.9793 126.056 75.4226 126.126 75.8426 126.266C76.2626 126.397 76.6873 126.611 77.1166 126.91L76.6126 127.624C76.2579 127.372 75.9033 127.19 75.5486 127.078C75.1939 126.957 74.8346 126.896 74.4706 126.896C74.0226 126.896 73.6633 126.994 73.3926 127.19C73.1219 127.386 72.9866 127.652 72.9866 127.988C72.9866 128.268 73.0706 128.483 73.2386 128.632C73.4159 128.781 73.7239 128.893 74.1626 128.968L75.3106 129.178C76.0013 129.299 76.5053 129.509 76.8226 129.808C77.1399 130.107 77.2986 130.508 77.2986 131.012C77.2986 131.413 77.1819 131.777 76.9486 132.104C76.7153 132.421 76.3979 132.673 75.9966 132.86C75.5953 133.047 75.1426 133.14 74.6386 133.14ZM85.2023 133.14C84.5676 133.14 83.9936 132.986 83.4803 132.678C82.9669 132.361 82.5609 131.936 82.2623 131.404C81.9636 130.863 81.8143 130.256 81.8143 129.584C81.8143 128.912 81.9543 128.31 82.2343 127.778C82.5236 127.246 82.9109 126.826 83.3963 126.518C83.8816 126.21 84.4229 126.056 85.0203 126.056C85.6269 126.056 86.1636 126.21 86.6303 126.518C87.1063 126.817 87.4796 127.227 87.7503 127.75C88.0303 128.263 88.1703 128.847 88.1703 129.5V129.808H82.8083C82.8456 130.275 82.9716 130.695 83.1863 131.068C83.4103 131.432 83.6996 131.721 84.0543 131.936C84.4183 132.141 84.8149 132.244 85.2443 132.244C85.5989 132.244 85.9396 132.183 86.2663 132.062C86.6023 131.931 86.8869 131.759 87.1203 131.544L87.7643 132.23C87.3723 132.538 86.9663 132.767 86.5463 132.916C86.1263 133.065 85.6783 133.14 85.2023 133.14ZM82.8363 129.08H87.1623C87.1156 128.669 86.9896 128.305 86.7843 127.988C86.5883 127.661 86.3363 127.405 86.0283 127.218C85.7296 127.031 85.3936 126.938 85.0203 126.938C84.6469 126.938 84.3063 127.031 83.9983 127.218C83.6903 127.395 83.4336 127.647 83.2283 127.974C83.0323 128.291 82.9016 128.66 82.8363 129.08ZM88.6234 133L91.2414 129.458L88.7774 126.168H89.9954L91.8854 128.772L93.7614 126.168H94.9234L92.4454 129.486L95.0774 133H93.8594L91.8154 130.214L89.7854 133H88.6234ZM98.2226 133.126C97.7373 133.126 97.3079 133.037 96.9346 132.86C96.5613 132.683 96.2673 132.44 96.0526 132.132C95.8473 131.815 95.7446 131.451 95.7446 131.04C95.7446 130.629 95.8519 130.275 96.0666 129.976C96.2813 129.668 96.5799 129.43 96.9626 129.262C97.3453 129.094 97.7933 129.01 98.3066 129.01C98.6986 129.01 99.0673 129.052 99.4126 129.136C99.7673 129.22 100.094 129.355 100.393 129.542V128.604C100.393 128.044 100.243 127.624 99.9446 127.344C99.6459 127.055 99.2073 126.91 98.6286 126.91C98.3113 126.91 97.9846 126.957 97.6486 127.05C97.3219 127.143 96.9579 127.293 96.5566 127.498L96.1786 126.714C97.0933 126.275 97.9519 126.056 98.7546 126.056C99.6039 126.056 100.257 126.266 100.715 126.686C101.172 127.097 101.401 127.689 101.401 128.464V133H100.393V132.202C100.094 132.51 99.7626 132.743 99.3986 132.902C99.0346 133.051 98.6426 133.126 98.2226 133.126ZM96.7246 131.012C96.7246 131.413 96.8786 131.735 97.1866 131.978C97.5039 132.221 97.9193 132.342 98.4326 132.342C98.8153 132.342 99.1653 132.277 99.4826 132.146C99.8093 132.015 100.113 131.819 100.393 131.558V130.242C100.103 130.074 99.8046 129.953 99.4966 129.878C99.1886 129.794 98.8433 129.752 98.4606 129.752C97.9379 129.752 97.5179 129.869 97.2006 130.102C96.8833 130.326 96.7246 130.629 96.7246 131.012ZM103.478 133V126.168H104.5V127.232C104.761 126.84 105.06 126.546 105.396 126.35C105.732 126.154 106.11 126.056 106.53 126.056C107.015 126.056 107.44 126.177 107.804 126.42C108.168 126.653 108.443 126.975 108.63 127.386C108.9 126.947 109.222 126.616 109.596 126.392C109.978 126.168 110.417 126.056 110.912 126.056C111.369 126.056 111.77 126.163 112.116 126.378C112.47 126.593 112.746 126.891 112.942 127.274C113.138 127.647 113.236 128.086 113.236 128.59V133H112.214V128.842C112.214 128.245 112.064 127.773 111.766 127.428C111.467 127.083 111.056 126.91 110.534 126.91C110.179 126.91 109.857 126.999 109.568 127.176C109.288 127.353 109.04 127.624 108.826 127.988C108.844 128.081 108.858 128.179 108.868 128.282C108.877 128.385 108.882 128.487 108.882 128.59V133H107.86V128.842C107.86 128.245 107.706 127.773 107.398 127.428C107.099 127.083 106.688 126.91 106.166 126.91C105.466 126.91 104.91 127.246 104.5 127.918V133H103.478ZM115.304 135.926V126.168H116.312V127.148C116.573 126.803 116.891 126.541 117.264 126.364C117.647 126.177 118.067 126.084 118.524 126.084C119.121 126.084 119.653 126.243 120.12 126.56C120.596 126.868 120.974 127.288 121.254 127.82C121.534 128.343 121.674 128.931 121.674 129.584C121.674 130.237 121.529 130.83 121.24 131.362C120.96 131.894 120.577 132.319 120.092 132.636C119.616 132.944 119.075 133.098 118.468 133.098C118.039 133.098 117.642 133.019 117.278 132.86C116.914 132.692 116.597 132.454 116.326 132.146V135.926H115.304ZM118.272 132.216C118.729 132.216 119.135 132.104 119.49 131.88C119.854 131.647 120.139 131.334 120.344 130.942C120.559 130.541 120.666 130.093 120.666 129.598C120.666 129.094 120.559 128.646 120.344 128.254C120.139 127.862 119.854 127.554 119.49 127.33C119.135 127.097 118.729 126.98 118.272 126.98C117.871 126.98 117.497 127.064 117.152 127.232C116.816 127.391 116.541 127.619 116.326 127.918V131.264C116.55 131.563 116.83 131.796 117.166 131.964C117.511 132.132 117.88 132.216 118.272 132.216ZM123.466 133V122.892L124.488 122.682V133H123.466ZM129.663 133.14C129.029 133.14 128.455 132.986 127.941 132.678C127.428 132.361 127.022 131.936 126.723 131.404C126.425 130.863 126.275 130.256 126.275 129.584C126.275 128.912 126.415 128.31 126.695 127.778C126.985 127.246 127.372 126.826 127.857 126.518C128.343 126.21 128.884 126.056 129.481 126.056C130.088 126.056 130.625 126.21 131.091 126.518C131.567 126.817 131.941 127.227 132.211 127.75C132.491 128.263 132.631 128.847 132.631 129.5V129.808H127.269C127.307 130.275 127.433 130.695 127.647 131.068C127.871 131.432 128.161 131.721 128.515 131.936C128.879 132.141 129.276 132.244 129.705 132.244C130.06 132.244 130.401 132.183 130.727 132.062C131.063 131.931 131.348 131.759 131.581 131.544L132.225 132.23C131.833 132.538 131.427 132.767 131.007 132.916C130.587 133.065 130.139 133.14 129.663 133.14ZM127.297 129.08H131.623C131.577 128.669 131.451 128.305 131.245 127.988C131.049 127.661 130.797 127.405 130.489 127.218C130.191 127.031 129.855 126.938 129.481 126.938C129.108 126.938 128.767 127.031 128.459 127.218C128.151 127.395 127.895 127.647 127.689 127.974C127.493 128.291 127.363 128.66 127.297 129.08Z" fill="#151515"/>
<g clip-path="url(#clip2_385_69345)">
<path fill-rule="evenodd" clip-rule="evenodd" d="M173 135.5C176.866 135.5 180 132.366 180 128.5C180 124.634 176.866 121.5 173 121.5C169.134 121.5 166 124.634 166 128.5C166 132.366 169.134 135.5 173 135.5ZM171.552 132.206L168.616 129.271C168.44 129.095 168.44 128.809 168.616 128.632L169.255 127.994C169.431 127.817 169.717 127.817 169.894 127.994L171.871 129.971L176.106 125.736C176.283 125.559 176.569 125.559 176.745 125.736L177.384 126.374C177.56 126.551 177.56 126.837 177.384 127.013L172.19 132.206C172.014 132.383 171.728 132.383 171.552 132.206Z" fill="#3D7317"/>
<path fill-rule="evenodd" clip-rule="evenodd" d="M196.389 131.171L199.921 127.61C200.267 127.262 200.023 126.667 199.534 126.667H192.466C191.977 126.667 191.733 127.262 192.079 127.61L195.611 131.171C195.826 131.387 196.174 131.387 196.389 131.171Z" fill="#1F1F1F"/>
</g>
<defs>
<clipPath id="clip0_385_69345">
<rect width="92" height="24" fill="white" transform="translate(114 16.5)"/>
</clipPath>
<clipPath id="clip1_385_69345">
<rect width="72" height="24" fill="white" transform="translate(134 66.5)"/>
</clipPath>
<clipPath id="clip2_385_69345">
<rect width="72" height="24" fill="white" transform="translate(134 116.5)"/>
</clipPath>
</defs>
</svg>
