<svg width="286" height="198" viewBox="0 0 286 198" fill="none" xmlns="http://www.w3.org/2000/svg">
<rect width="286" height="198" fill="white"/>
<mask id="path-1-inside-1_385_67679" fill="white">
<path d="M21 23C21 19.6863 23.6863 17 27 17H259C262.314 17 265 19.6863 265 23V48C265 51.3137 262.314 54 259 54H27C23.6863 54 21 51.3137 21 48V23Z"/>
</mask>
<path d="M21 23C21 19.6863 23.6863 17 27 17H259C262.314 17 265 19.6863 265 23V48C265 51.3137 262.314 54 259 54H27C23.6863 54 21 51.3137 21 48V23Z" fill="white"/>
<path d="M27 19H259V15H27V19ZM263 23V48H267V23H263ZM259 52H27V56H259V52ZM23 48V23H19V48H23ZM27 52C24.7909 52 23 50.2091 23 48H19C19 52.4183 22.5817 56 27 56V52ZM263 48C263 50.2091 261.209 52 259 52V56C263.418 56 267 52.4183 267 48H263ZM259 19C261.209 19 263 20.7909 263 23H267C267 18.5817 263.418 15 259 15V19ZM27 15C22.5817 15 19 18.5817 19 23H23C23 20.7909 24.7909 19 27 19V15Z" fill="#0066CC" mask="url(#path-1-inside-1_385_67679)"/>
<path d="M41.41 40.154C40.6447 40.154 39.9353 40.0187 39.282 39.748C38.6287 39.468 37.9987 39.048 37.392 38.488L38.05 37.704C38.638 38.2547 39.1887 38.6467 39.702 38.88C40.2247 39.1133 40.8033 39.23 41.438 39.23C41.942 39.23 42.39 39.146 42.782 38.978C43.1833 38.8007 43.496 38.5627 43.72 38.264C43.944 37.9653 44.056 37.6247 44.056 37.242C44.056 36.7473 43.8927 36.374 43.566 36.122C43.2393 35.8607 42.6747 35.66 41.872 35.52L40.29 35.254C39.394 35.0953 38.736 34.8247 38.316 34.442C37.9053 34.05 37.7 33.5273 37.7 32.874C37.7 32.3233 37.84 31.838 38.12 31.418C38.4093 30.9887 38.806 30.6527 39.31 30.41C39.814 30.1673 40.3973 30.046 41.06 30.046C41.788 30.046 42.4647 30.1487 43.09 30.354C43.7153 30.55 44.3313 30.8627 44.938 31.292L44.378 32.132C43.874 31.7493 43.342 31.46 42.782 31.264C42.222 31.0587 41.6527 30.956 41.074 30.956C40.6167 30.956 40.2107 31.0353 39.856 31.194C39.5107 31.3527 39.2353 31.5673 39.03 31.838C38.834 32.1087 38.736 32.4167 38.736 32.762C38.736 33.1913 38.8807 33.5273 39.17 33.77C39.4593 34.0127 39.9307 34.1853 40.584 34.288L42.152 34.554C43.1973 34.7407 43.9533 35.044 44.42 35.464C44.896 35.8747 45.134 36.4487 45.134 37.186C45.134 37.7553 44.9707 38.264 44.644 38.712C44.3267 39.16 43.888 39.5147 43.328 39.776C42.768 40.028 42.1287 40.154 41.41 40.154ZM49.9894 40.14C49.3547 40.14 48.7807 39.986 48.2674 39.678C47.754 39.3607 47.348 38.936 47.0494 38.404C46.7507 37.8627 46.6014 37.256 46.6014 36.584C46.6014 35.912 46.7414 35.31 47.0214 34.778C47.3107 34.246 47.698 33.826 48.1834 33.518C48.6687 33.21 49.21 33.056 49.8074 33.056C50.414 33.056 50.9507 33.21 51.4174 33.518C51.8934 33.8167 52.2667 34.2273 52.5374 34.75C52.8174 35.2633 52.9574 35.8467 52.9574 36.5V36.808H47.5954C47.6327 37.2747 47.7587 37.6947 47.9734 38.068C48.1974 38.432 48.4867 38.7213 48.8414 38.936C49.2054 39.1413 49.602 39.244 50.0314 39.244C50.386 39.244 50.7267 39.1833 51.0534 39.062C51.3894 38.9313 51.674 38.7587 51.9074 38.544L52.5514 39.23C52.1594 39.538 51.7534 39.7667 51.3334 39.916C50.9134 40.0653 50.4654 40.14 49.9894 40.14ZM47.6234 36.08H51.9494C51.9027 35.6693 51.7767 35.3053 51.5714 34.988C51.3754 34.6613 51.1234 34.4047 50.8154 34.218C50.5167 34.0313 50.1807 33.938 49.8074 33.938C49.434 33.938 49.0934 34.0313 48.7854 34.218C48.4774 34.3953 48.2207 34.6473 48.0154 34.974C47.8194 35.2913 47.6887 35.66 47.6234 36.08ZM54.7023 40V29.892L55.7243 29.682V40H54.7023ZM60.8995 40.14C60.2649 40.14 59.6909 39.986 59.1775 39.678C58.6642 39.3607 58.2582 38.936 57.9595 38.404C57.6609 37.8627 57.5115 37.256 57.5115 36.584C57.5115 35.912 57.6515 35.31 57.9315 34.778C58.2209 34.246 58.6082 33.826 59.0935 33.518C59.5789 33.21 60.1202 33.056 60.7175 33.056C61.3242 33.056 61.8609 33.21 62.3275 33.518C62.8035 33.8167 63.1769 34.2273 63.4475 34.75C63.7275 35.2633 63.8675 35.8467 63.8675 36.5V36.808H58.5055C58.5429 37.2747 58.6689 37.6947 58.8835 38.068C59.1075 38.432 59.3969 38.7213 59.7515 38.936C60.1155 39.1413 60.5122 39.244 60.9415 39.244C61.2962 39.244 61.6369 39.1833 61.9635 39.062C62.2995 38.9313 62.5842 38.7587 62.8175 38.544L63.4615 39.23C63.0695 39.538 62.6635 39.7667 62.2435 39.916C61.8235 40.0653 61.3755 40.14 60.8995 40.14ZM58.5335 36.08H62.8595C62.8129 35.6693 62.6869 35.3053 62.4815 34.988C62.2855 34.6613 62.0335 34.4047 61.7255 34.218C61.4269 34.0313 61.0909 33.938 60.7175 33.938C60.3442 33.938 60.0035 34.0313 59.6955 34.218C59.3875 34.3953 59.1309 34.6473 58.9255 34.974C58.7295 35.2913 58.5989 35.66 58.5335 36.08ZM68.6785 40.112C68.0438 40.112 67.4698 39.958 66.9565 39.65C66.4525 39.3327 66.0512 38.908 65.7525 38.376C65.4538 37.8347 65.3045 37.2373 65.3045 36.584C65.3045 35.9213 65.4538 35.324 65.7525 34.792C66.0512 34.26 66.4525 33.84 66.9565 33.532C67.4698 33.2147 68.0438 33.056 68.6785 33.056C69.1825 33.056 69.6632 33.1493 70.1205 33.336C70.5778 33.5227 70.9745 33.784 71.3105 34.12L70.6525 34.834C70.4098 34.5633 70.1158 34.3533 69.7705 34.204C69.4252 34.0547 69.0752 33.98 68.7205 33.98C68.2725 33.98 67.8665 34.0967 67.5025 34.33C67.1478 34.5633 66.8632 34.876 66.6485 35.268C66.4338 35.66 66.3265 36.0987 66.3265 36.584C66.3265 37.0693 66.4338 37.508 66.6485 37.9C66.8632 38.292 67.1478 38.6047 67.5025 38.838C67.8665 39.0713 68.2725 39.188 68.7205 39.188C69.0752 39.188 69.4252 39.1133 69.7705 38.964C70.1158 38.8053 70.4098 38.5953 70.6525 38.334L71.3105 39.048C70.9745 39.384 70.5778 39.6453 70.1205 39.832C69.6632 40.0187 69.1825 40.112 68.6785 40.112ZM75.4763 40.14C74.8883 40.14 74.4403 40 74.1323 39.72C73.8336 39.4307 73.6843 39.0153 73.6843 38.474V34.008H72.2703V33.168H73.6843V31.292L74.7063 31.054V33.168H76.6663V34.008H74.7063V38.208C74.7063 38.572 74.7809 38.8333 74.9303 38.992C75.0889 39.1507 75.3456 39.23 75.7003 39.23C75.8776 39.23 76.0363 39.216 76.1763 39.188C76.3163 39.16 76.4796 39.1133 76.6663 39.048V39.958C76.4796 40.0233 76.2836 40.07 76.0783 40.098C75.8729 40.126 75.6723 40.14 75.4763 40.14ZM83.5449 40.126C83.0595 40.126 82.6302 40.0373 82.2569 39.86C81.8835 39.6827 81.5895 39.44 81.3749 39.132C81.1695 38.8147 81.0669 38.4507 81.0669 38.04C81.0669 37.6293 81.1742 37.2747 81.3889 36.976C81.6035 36.668 81.9022 36.43 82.2849 36.262C82.6675 36.094 83.1155 36.01 83.6289 36.01C84.0209 36.01 84.3895 36.052 84.7349 36.136C85.0895 36.22 85.4162 36.3553 85.7149 36.542V35.604C85.7149 35.044 85.5655 34.624 85.2669 34.344C84.9682 34.0547 84.5295 33.91 83.9509 33.91C83.6335 33.91 83.3069 33.9567 82.9709 34.05C82.6442 34.1433 82.2802 34.2927 81.8789 34.498L81.5009 33.714C82.4155 33.2753 83.2742 33.056 84.0769 33.056C84.9262 33.056 85.5795 33.266 86.0369 33.686C86.4942 34.0967 86.7229 34.6893 86.7229 35.464V40H85.7149V39.202C85.4162 39.51 85.0849 39.7433 84.7209 39.902C84.3569 40.0513 83.9649 40.126 83.5449 40.126ZM82.0469 38.012C82.0469 38.4133 82.2009 38.7353 82.5089 38.978C82.8262 39.2207 83.2415 39.342 83.7549 39.342C84.1375 39.342 84.4875 39.2767 84.8049 39.146C85.1315 39.0153 85.4349 38.8193 85.7149 38.558V37.242C85.4255 37.074 85.1269 36.9527 84.8189 36.878C84.5109 36.794 84.1655 36.752 83.7829 36.752C83.2602 36.752 82.8402 36.8687 82.5229 37.102C82.2055 37.326 82.0469 37.6293 82.0469 38.012ZM94.1816 40.14C93.6216 40.14 93.1036 40.056 92.6276 39.888C92.1516 39.7107 91.7456 39.4587 91.4096 39.132L91.9556 38.46C92.3662 38.7587 92.7442 38.978 93.0896 39.118C93.4349 39.2487 93.7896 39.314 94.1536 39.314C94.6482 39.314 95.0589 39.1973 95.3856 38.964C95.7122 38.7307 95.8756 38.432 95.8756 38.068C95.8756 37.788 95.7776 37.5687 95.5816 37.41C95.3949 37.2513 95.0822 37.13 94.6436 37.046L93.5236 36.85C92.8609 36.7287 92.3709 36.5233 92.0536 36.234C91.7456 35.9447 91.5916 35.5527 91.5916 35.058C91.5916 34.666 91.6942 34.3207 91.8996 34.022C92.1142 33.7233 92.4082 33.49 92.7816 33.322C93.1549 33.1447 93.5796 33.056 94.0556 33.056C94.5222 33.056 94.9656 33.126 95.3856 33.266C95.8056 33.3967 96.2302 33.6113 96.6596 33.91L96.1556 34.624C95.8009 34.372 95.4462 34.19 95.0916 34.078C94.7369 33.9567 94.3776 33.896 94.0136 33.896C93.5656 33.896 93.2062 33.994 92.9356 34.19C92.6649 34.386 92.5296 34.652 92.5296 34.988C92.5296 35.268 92.6136 35.4827 92.7816 35.632C92.9589 35.7813 93.2669 35.8933 93.7056 35.968L94.8536 36.178C95.5442 36.2993 96.0482 36.5093 96.3656 36.808C96.6829 37.1067 96.8416 37.508 96.8416 38.012C96.8416 38.4133 96.7249 38.7773 96.4916 39.104C96.2582 39.4213 95.9409 39.6733 95.5396 39.86C95.1382 40.0467 94.6856 40.14 94.1816 40.14ZM100.865 40.14C100.277 40.14 99.8289 40 99.5209 39.72C99.2223 39.4307 99.0729 39.0153 99.0729 38.474V34.008H97.6589V33.168H99.0729V31.292L100.095 31.054V33.168H102.055V34.008H100.095V38.208C100.095 38.572 100.17 38.8333 100.319 38.992C100.478 39.1507 100.734 39.23 101.089 39.23C101.266 39.23 101.425 39.216 101.565 39.188C101.705 39.16 101.868 39.1133 102.055 39.048V39.958C101.868 40.0233 101.672 40.07 101.467 40.098C101.262 40.126 101.061 40.14 100.865 40.14ZM105.666 40.126C105.181 40.126 104.751 40.0373 104.378 39.86C104.005 39.6827 103.711 39.44 103.496 39.132C103.291 38.8147 103.188 38.4507 103.188 38.04C103.188 37.6293 103.295 37.2747 103.51 36.976C103.725 36.668 104.023 36.43 104.406 36.262C104.789 36.094 105.237 36.01 105.75 36.01C106.142 36.01 106.511 36.052 106.856 36.136C107.211 36.22 107.537 36.3553 107.836 36.542V35.604C107.836 35.044 107.687 34.624 107.388 34.344C107.089 34.0547 106.651 33.91 106.072 33.91C105.755 33.91 105.428 33.9567 105.092 34.05C104.765 34.1433 104.401 34.2927 104 34.498L103.622 33.714C104.537 33.2753 105.395 33.056 106.198 33.056C107.047 33.056 107.701 33.266 108.158 33.686C108.615 34.0967 108.844 34.6893 108.844 35.464V40H107.836V39.202C107.537 39.51 107.206 39.7433 106.842 39.902C106.478 40.0513 106.086 40.126 105.666 40.126ZM104.168 38.012C104.168 38.4133 104.322 38.7353 104.63 38.978C104.947 39.2207 105.363 39.342 105.876 39.342C106.259 39.342 106.609 39.2767 106.926 39.146C107.253 39.0153 107.556 38.8193 107.836 38.558V37.242C107.547 37.074 107.248 36.9527 106.94 36.878C106.632 36.794 106.287 36.752 105.904 36.752C105.381 36.752 104.961 36.8687 104.644 37.102C104.327 37.326 104.168 37.6293 104.168 38.012ZM113.32 40.14C112.732 40.14 112.284 40 111.976 39.72C111.677 39.4307 111.528 39.0153 111.528 38.474V34.008H110.114V33.168H111.528V31.292L112.55 31.054V33.168H114.51V34.008H112.55V38.208C112.55 38.572 112.625 38.8333 112.774 38.992C112.933 39.1507 113.189 39.23 113.544 39.23C113.721 39.23 113.88 39.216 114.02 39.188C114.16 39.16 114.323 39.1133 114.51 39.048V39.958C114.323 40.0233 114.127 40.07 113.922 40.098C113.717 40.126 113.516 40.14 113.32 40.14ZM118.95 40.14C118.316 40.14 117.742 39.986 117.228 39.678C116.715 39.3607 116.309 38.936 116.01 38.404C115.712 37.8627 115.562 37.256 115.562 36.584C115.562 35.912 115.702 35.31 115.982 34.778C116.272 34.246 116.659 33.826 117.144 33.518C117.63 33.21 118.171 33.056 118.768 33.056C119.375 33.056 119.912 33.21 120.378 33.518C120.854 33.8167 121.228 34.2273 121.498 34.75C121.778 35.2633 121.918 35.8467 121.918 36.5V36.808H116.556C116.594 37.2747 116.72 37.6947 116.934 38.068C117.158 38.432 117.448 38.7213 117.802 38.936C118.166 39.1413 118.563 39.244 118.992 39.244C119.347 39.244 119.688 39.1833 120.014 39.062C120.35 38.9313 120.635 38.7587 120.868 38.544L121.512 39.23C121.12 39.538 120.714 39.7667 120.294 39.916C119.874 40.0653 119.426 40.14 118.95 40.14ZM116.584 36.08H120.91C120.864 35.6693 120.738 35.3053 120.532 34.988C120.336 34.6613 120.084 34.4047 119.776 34.218C119.478 34.0313 119.142 33.938 118.768 33.938C118.395 33.938 118.054 34.0313 117.746 34.218C117.438 34.3953 117.182 34.6473 116.976 34.974C116.78 35.2913 116.65 35.66 116.584 36.08Z" fill="#151515"/>
<path d="M131 35.5C131 30.5294 135.029 26.5 140 26.5H196C200.971 26.5 205 30.5294 205 35.5V35.5C205 40.4706 200.971 44.5 196 44.5H140C135.029 44.5 131 40.4706 131 35.5V35.5Z" fill="#E0E0E0"/>
<path d="M142.427 39.632C141.291 39.632 140.307 39.252 139.475 38.492L140.267 37.592C140.627 37.912 140.979 38.144 141.323 38.288C141.675 38.432 142.059 38.504 142.475 38.504C142.835 38.504 143.147 38.436 143.411 38.3C143.683 38.164 143.891 37.972 144.035 37.724C144.187 37.468 144.263 37.18 144.263 36.86C144.263 36.388 144.091 36.008 143.747 35.72C143.411 35.424 142.975 35.276 142.439 35.276C142.159 35.276 141.883 35.312 141.611 35.384C141.347 35.456 141.071 35.568 140.783 35.72L139.859 35.444L140.051 31.1H145.151V32.228H141.203L141.095 34.64C141.399 34.488 141.687 34.388 141.959 34.34C142.239 34.284 142.523 34.256 142.811 34.256C143.371 34.256 143.859 34.364 144.275 34.58C144.691 34.788 145.015 35.084 145.247 35.468C145.479 35.844 145.595 36.284 145.595 36.788C145.595 37.356 145.463 37.852 145.199 38.276C144.935 38.7 144.563 39.032 144.083 39.272C143.611 39.512 143.059 39.632 142.427 39.632ZM151.72 39.62C151.208 39.62 150.728 39.552 150.28 39.416C149.84 39.272 149.46 39.068 149.14 38.804L149.776 37.904C150.176 38.152 150.52 38.328 150.808 38.432C151.104 38.536 151.404 38.588 151.708 38.588C152.068 38.588 152.36 38.512 152.584 38.36C152.808 38.208 152.92 38.012 152.92 37.772C152.92 37.588 152.852 37.444 152.716 37.34C152.588 37.228 152.376 37.144 152.08 37.088L151.024 36.908C150.44 36.796 150.004 36.604 149.716 36.332C149.428 36.06 149.284 35.7 149.284 35.252C149.284 34.876 149.38 34.552 149.572 34.28C149.772 34 150.044 33.784 150.388 33.632C150.74 33.472 151.148 33.392 151.612 33.392C152.028 33.392 152.432 33.452 152.824 33.572C153.216 33.692 153.6 33.872 153.976 34.112L153.34 35.012C153.036 34.812 152.732 34.668 152.428 34.58C152.132 34.484 151.832 34.436 151.528 34.436C151.216 34.436 150.964 34.5 150.772 34.628C150.588 34.748 150.496 34.916 150.496 35.132C150.496 35.324 150.556 35.472 150.676 35.576C150.804 35.672 151.024 35.744 151.336 35.792L152.404 35.996C153.004 36.1 153.448 36.292 153.736 36.572C154.032 36.844 154.18 37.208 154.18 37.664C154.18 38.032 154.072 38.364 153.856 38.66C153.64 38.956 153.348 39.192 152.98 39.368C152.612 39.536 152.192 39.62 151.72 39.62ZM158.277 39.62C157.701 39.62 157.181 39.484 156.717 39.212C156.253 38.932 155.885 38.56 155.613 38.096C155.341 37.624 155.205 37.092 155.205 36.5C155.205 35.908 155.333 35.38 155.589 34.916C155.845 34.452 156.193 34.084 156.633 33.812C157.081 33.532 157.577 33.392 158.121 33.392C158.681 33.392 159.173 33.528 159.597 33.8C160.029 34.072 160.365 34.44 160.605 34.904C160.853 35.368 160.977 35.9 160.977 36.5V36.824H156.537C156.585 37.152 156.689 37.444 156.849 37.7C157.017 37.948 157.229 38.144 157.485 38.288C157.749 38.432 158.033 38.504 158.337 38.504C158.617 38.504 158.881 38.456 159.129 38.36C159.385 38.256 159.597 38.116 159.765 37.94L160.653 38.744C160.285 39.048 159.909 39.272 159.525 39.416C159.149 39.552 158.733 39.62 158.277 39.62ZM156.549 35.984H159.693C159.645 35.696 159.545 35.44 159.393 35.216C159.249 34.992 159.065 34.816 158.841 34.688C158.625 34.56 158.385 34.496 158.121 34.496C157.857 34.496 157.613 34.56 157.389 34.688C157.173 34.808 156.993 34.98 156.849 35.204C156.705 35.428 156.605 35.688 156.549 35.984ZM162.36 39.5V30.896L163.716 30.656V39.5H162.36ZM168.179 39.62C167.603 39.62 167.083 39.484 166.619 39.212C166.155 38.932 165.787 38.56 165.515 38.096C165.243 37.624 165.107 37.092 165.107 36.5C165.107 35.908 165.235 35.38 165.491 34.916C165.747 34.452 166.095 34.084 166.535 33.812C166.983 33.532 167.479 33.392 168.023 33.392C168.583 33.392 169.075 33.528 169.499 33.8C169.931 34.072 170.267 34.44 170.507 34.904C170.755 35.368 170.879 35.9 170.879 36.5V36.824H166.439C166.487 37.152 166.591 37.444 166.751 37.7C166.919 37.948 167.131 38.144 167.387 38.288C167.651 38.432 167.935 38.504 168.239 38.504C168.519 38.504 168.783 38.456 169.031 38.36C169.287 38.256 169.499 38.116 169.667 37.94L170.555 38.744C170.187 39.048 169.811 39.272 169.427 39.416C169.051 39.552 168.635 39.62 168.179 39.62ZM166.451 35.984H169.595C169.547 35.696 169.447 35.44 169.295 35.216C169.151 34.992 168.967 34.816 168.743 34.688C168.527 34.56 168.287 34.496 168.023 34.496C167.759 34.496 167.515 34.56 167.291 34.688C167.075 34.808 166.895 34.98 166.751 35.204C166.607 35.428 166.507 35.688 166.451 35.984ZM175.045 39.608C174.477 39.608 173.961 39.472 173.497 39.2C173.041 38.92 172.677 38.544 172.405 38.072C172.141 37.6 172.009 37.076 172.009 36.5C172.009 35.916 172.141 35.392 172.405 34.928C172.677 34.456 173.041 34.084 173.497 33.812C173.961 33.532 174.477 33.392 175.045 33.392C175.509 33.392 175.949 33.48 176.365 33.656C176.789 33.832 177.149 34.084 177.445 34.412L176.605 35.288C176.397 35.056 176.165 34.88 175.909 34.76C175.653 34.64 175.381 34.58 175.093 34.58C174.765 34.58 174.469 34.668 174.205 34.844C173.949 35.012 173.745 35.24 173.593 35.528C173.441 35.816 173.365 36.14 173.365 36.5C173.365 36.86 173.441 37.188 173.593 37.484C173.745 37.772 173.949 38 174.205 38.168C174.469 38.336 174.765 38.42 175.093 38.42C175.381 38.42 175.653 38.36 175.909 38.24C176.165 38.12 176.397 37.948 176.605 37.724L177.445 38.588C177.149 38.916 176.789 39.168 176.365 39.344C175.949 39.52 175.509 39.608 175.045 39.608ZM181.276 39.62C180.668 39.62 180.208 39.48 179.896 39.2C179.584 38.912 179.428 38.492 179.428 37.94V34.568H178.228V33.488H179.428V31.832L180.784 31.544V33.488H182.452V34.568H180.784V37.64C180.784 37.936 180.848 38.148 180.976 38.276C181.104 38.396 181.32 38.456 181.624 38.456C181.76 38.456 181.884 38.448 181.996 38.432C182.116 38.408 182.264 38.368 182.44 38.312V39.452C182.272 39.508 182.08 39.548 181.864 39.572C181.656 39.604 181.46 39.62 181.276 39.62ZM186.355 39.62C185.779 39.62 185.259 39.484 184.795 39.212C184.331 38.932 183.963 38.56 183.691 38.096C183.419 37.624 183.283 37.092 183.283 36.5C183.283 35.908 183.411 35.38 183.667 34.916C183.923 34.452 184.271 34.084 184.711 33.812C185.159 33.532 185.655 33.392 186.199 33.392C186.759 33.392 187.251 33.528 187.675 33.8C188.107 34.072 188.443 34.44 188.683 34.904C188.931 35.368 189.055 35.9 189.055 36.5V36.824H184.615C184.663 37.152 184.767 37.444 184.927 37.7C185.095 37.948 185.307 38.144 185.563 38.288C185.827 38.432 186.111 38.504 186.415 38.504C186.695 38.504 186.959 38.456 187.207 38.36C187.463 38.256 187.675 38.116 187.843 37.94L188.731 38.744C188.363 39.048 187.987 39.272 187.603 39.416C187.227 39.552 186.811 39.62 186.355 39.62ZM184.627 35.984H187.771C187.723 35.696 187.623 35.44 187.471 35.216C187.327 34.992 187.143 34.816 186.919 34.688C186.703 34.56 186.463 34.496 186.199 34.496C185.935 34.496 185.691 34.56 185.467 34.688C185.251 34.808 185.071 34.98 184.927 35.204C184.783 35.428 184.683 35.688 184.627 35.984ZM192.897 39.56C192.393 39.56 191.937 39.424 191.529 39.152C191.121 38.872 190.793 38.504 190.545 38.048C190.305 37.584 190.185 37.068 190.185 36.5C190.185 35.924 190.309 35.408 190.557 34.952C190.805 34.488 191.141 34.12 191.565 33.848C191.997 33.576 192.473 33.44 192.993 33.44C193.337 33.44 193.657 33.508 193.953 33.644C194.257 33.772 194.521 33.964 194.745 34.22V30.896L196.101 30.656V39.5H194.757V38.708C194.541 38.98 194.273 39.192 193.953 39.344C193.633 39.488 193.281 39.56 192.897 39.56ZM193.317 38.42C193.605 38.42 193.873 38.364 194.121 38.252C194.369 38.132 194.577 37.968 194.745 37.76V35.228C194.569 35.02 194.357 34.86 194.109 34.748C193.861 34.636 193.597 34.58 193.317 34.58C192.973 34.58 192.665 34.664 192.393 34.832C192.129 34.992 191.917 35.216 191.757 35.504C191.597 35.792 191.517 36.124 191.517 36.5C191.517 36.86 191.597 37.188 191.757 37.484C191.917 37.772 192.129 38 192.393 38.168C192.665 38.336 192.973 38.42 193.317 38.42Z" fill="#151515"/>
<path d="M242.534 33.667C243.023 33.6672 243.267 34.2618 242.921 34.6104L239.389 38.1719C239.174 38.3874 238.825 38.3875 238.611 38.1719L235.079 34.6104C234.733 34.2617 234.978 33.667 235.467 33.667H242.534Z" fill="#1F1F1F"/>
<g filter="url(#filter0_d_385_67679)">
<path d="M21 60C21 56.6863 23.6863 54 27 54H259C262.314 54 265 56.6863 265 60V175C265 178.314 262.314 181 259 181H27C23.6863 181 21 178.314 21 175V60Z" fill="white"/>
<path d="M45 76.5C45 74.2909 46.7909 72.5 49 72.5H57C59.2091 72.5 61 74.2909 61 76.5V84.5C61 86.7091 59.2091 88.5 57 88.5H49C46.7909 88.5 45 86.7091 45 84.5V76.5Z" fill="#0066CC"/>
<path fill-rule="evenodd" clip-rule="evenodd" d="M51.9242 84.7728L58.8242 77.8728C59.0585 77.6385 59.0585 77.2586 58.8242 77.0243L57.9757 76.1757C57.7414 75.9414 57.3615 75.9414 57.1272 76.1757L51.5 81.8029L48.8728 79.1757C48.6385 78.9414 48.2585 78.9414 48.0242 79.1757L47.1757 80.0243C46.9414 80.2586 46.9414 80.6385 47.1757 80.8728L51.0757 84.7728C51.31 85.0071 51.6899 85.0071 51.9242 84.7728Z" fill="white"/>
<path d="M69.126 85L73.004 75.2H74.292L78.114 85H76.952L75.79 81.92H71.422L70.26 85H69.126ZM71.758 81.066H75.468L73.606 76.18L71.758 81.066ZM79.2922 85V78.168H80.3142V79.568C80.4915 79.092 80.7435 78.7233 81.0702 78.462C81.4062 78.1913 81.7889 78.056 82.2182 78.056C82.3395 78.056 82.4515 78.0653 82.5542 78.084C82.6569 78.0933 82.7595 78.1167 82.8622 78.154V79.078C82.7502 79.0407 82.6289 79.0127 82.4982 78.994C82.3769 78.966 82.2602 78.952 82.1482 78.952C81.7282 78.952 81.3595 79.0733 81.0422 79.316C80.7342 79.5587 80.4915 79.8993 80.3142 80.338V85H79.2922ZM84.2001 85V78.168H85.2221V85H84.2001ZM84.7181 76.474C84.5127 76.474 84.3354 76.404 84.1861 76.264C84.0461 76.1147 83.9761 75.942 83.9761 75.746C83.9761 75.55 84.0461 75.382 84.1861 75.242C84.3354 75.0927 84.5127 75.018 84.7181 75.018C84.9234 75.018 85.0961 75.0927 85.2361 75.242C85.3854 75.382 85.4601 75.55 85.4601 75.746C85.4601 75.942 85.3854 76.1147 85.2361 76.264C85.0961 76.404 84.9234 76.474 84.7181 76.474ZM86.8416 85V84.188L90.7756 79.092L86.8836 79.106V78.168H92.0216V78.966L88.0736 84.09L92.0776 84.076V85H86.8416ZM96.5623 85.112C95.9276 85.112 95.3583 84.958 94.8543 84.65C94.3503 84.342 93.9536 83.922 93.6643 83.39C93.3749 82.858 93.2303 82.256 93.2303 81.584C93.2303 80.912 93.3749 80.31 93.6643 79.778C93.9536 79.246 94.3503 78.826 94.8543 78.518C95.3583 78.21 95.9276 78.056 96.5623 78.056C97.1876 78.056 97.7476 78.21 98.2423 78.518C98.7463 78.826 99.1429 79.246 99.4323 79.778C99.7216 80.31 99.8663 80.912 99.8663 81.584C99.8663 82.256 99.7216 82.858 99.4323 83.39C99.1429 83.922 98.7463 84.342 98.2423 84.65C97.7476 84.958 97.1876 85.112 96.5623 85.112ZM96.5483 84.216C96.9963 84.216 97.3929 84.104 97.7383 83.88C98.0836 83.6467 98.3543 83.3293 98.5503 82.928C98.7556 82.5267 98.8583 82.0787 98.8583 81.584C98.8583 81.08 98.7556 80.632 98.5503 80.24C98.3543 79.8387 98.0836 79.526 97.7383 79.302C97.3929 79.0687 96.9963 78.952 96.5483 78.952C96.1003 78.952 95.7036 79.0687 95.3583 79.302C95.0129 79.526 94.7376 79.8387 94.5323 80.24C94.3363 80.632 94.2383 81.08 94.2383 81.584C94.2383 82.0787 94.3363 82.5267 94.5323 82.928C94.7376 83.3293 95.0129 83.6467 95.3583 83.88C95.7036 84.104 96.1003 84.216 96.5483 84.216ZM101.659 85V78.168H102.681V79.274C102.943 78.8633 103.255 78.56 103.619 78.364C103.983 78.1587 104.394 78.056 104.851 78.056C105.346 78.056 105.775 78.1633 106.139 78.378C106.513 78.5833 106.802 78.8773 107.007 79.26C107.222 79.6333 107.329 80.072 107.329 80.576V85H106.307V80.87C106.307 80.2633 106.139 79.7873 105.803 79.442C105.477 79.0873 105.033 78.91 104.473 78.91C104.1 78.91 103.759 78.9987 103.451 79.176C103.143 79.3533 102.887 79.6147 102.681 79.96V85H101.659ZM111.498 85.126C111.013 85.126 110.583 85.0373 110.21 84.86C109.837 84.6827 109.543 84.44 109.328 84.132C109.123 83.8147 109.02 83.4507 109.02 83.04C109.02 82.6293 109.127 82.2747 109.342 81.976C109.557 81.668 109.855 81.43 110.238 81.262C110.621 81.094 111.069 81.01 111.582 81.01C111.974 81.01 112.343 81.052 112.688 81.136C113.043 81.22 113.369 81.3553 113.668 81.542V80.604C113.668 80.044 113.519 79.624 113.22 79.344C112.921 79.0547 112.483 78.91 111.904 78.91C111.587 78.91 111.26 78.9567 110.924 79.05C110.597 79.1433 110.233 79.2927 109.832 79.498L109.454 78.714C110.369 78.2753 111.227 78.056 112.03 78.056C112.879 78.056 113.533 78.266 113.99 78.686C114.447 79.0967 114.676 79.6893 114.676 80.464V85H113.668V84.202C113.369 84.51 113.038 84.7433 112.674 84.902C112.31 85.0513 111.918 85.126 111.498 85.126ZM110 83.012C110 83.4133 110.154 83.7353 110.462 83.978C110.779 84.2207 111.195 84.342 111.708 84.342C112.091 84.342 112.441 84.2767 112.758 84.146C113.085 84.0153 113.388 83.8193 113.668 83.558V82.242C113.379 82.074 113.08 81.9527 112.772 81.878C112.464 81.794 112.119 81.752 111.736 81.752C111.213 81.752 110.793 81.8687 110.476 82.102C110.159 82.326 110 82.6293 110 83.012Z" fill="#151515"/>
<path d="M235.038 84.5V83.864L238.398 80.192C238.662 79.904 238.866 79.652 239.01 79.436C239.162 79.212 239.266 79.004 239.322 78.812C239.386 78.62 239.418 78.416 239.418 78.2C239.418 77.776 239.25 77.428 238.914 77.156C238.586 76.876 238.166 76.736 237.654 76.736C237.262 76.736 236.898 76.812 236.562 76.964C236.226 77.116 235.85 77.38 235.434 77.756L234.93 77.156C235.37 76.756 235.814 76.46 236.262 76.268C236.71 76.068 237.178 75.968 237.666 75.968C238.17 75.968 238.618 76.064 239.01 76.256C239.402 76.44 239.71 76.696 239.934 77.024C240.158 77.352 240.27 77.728 240.27 78.152C240.27 78.432 240.234 78.692 240.162 78.932C240.09 79.164 239.962 79.416 239.778 79.688C239.594 79.952 239.33 80.272 238.986 80.648L236.118 83.756L240.45 83.744V84.5H235.038Z" fill="#4D4D4D"/>
<rect width="244" height="37" transform="translate(21 99)" fill="#C7C7C7" fill-opacity="0.25"/>
<mask id="path-12-inside-2_385_67679" fill="white">
<path d="M45 113.5C45 111.291 46.7909 109.5 49 109.5H57C59.2091 109.5 61 111.291 61 113.5V121.5C61 123.709 59.2091 125.5 57 125.5H49C46.7909 125.5 45 123.709 45 121.5V113.5Z"/>
</mask>
<path d="M45 113.5C45 111.291 46.7909 109.5 49 109.5H57C59.2091 109.5 61 111.291 61 113.5V121.5C61 123.709 59.2091 125.5 57 125.5H49C46.7909 125.5 45 123.709 45 121.5V113.5Z" fill="white"/>
<path d="M49 109.5V110.5H57V109.5V108.5H49V109.5ZM61 113.5H60V121.5H61H62V113.5H61ZM57 125.5V124.5H49V125.5V126.5H57V125.5ZM45 121.5H46V113.5H45H44V121.5H45ZM49 125.5V124.5C47.3431 124.5 46 123.157 46 121.5H45H44C44 124.261 46.2386 126.5 49 126.5V125.5ZM61 121.5H60C60 123.157 58.6569 124.5 57 124.5V125.5V126.5C59.7614 126.5 62 124.261 62 121.5H61ZM57 109.5V110.5C58.6569 110.5 60 111.843 60 113.5H61H62C62 110.739 59.7614 108.5 57 108.5V109.5ZM49 109.5V108.5C46.2386 108.5 44 110.739 44 113.5H45H46C46 111.843 47.3431 110.5 49 110.5V109.5Z" fill="#C7C7C7" mask="url(#path-12-inside-2_385_67679)"/>
<path d="M74.768 122.154C74.068 122.154 73.4147 122.028 72.808 121.776C72.2107 121.515 71.6833 121.155 71.226 120.698C70.7687 120.231 70.414 119.695 70.162 119.088C69.91 118.472 69.784 117.809 69.784 117.1C69.784 116.391 69.91 115.733 70.162 115.126C70.414 114.51 70.7687 113.973 71.226 113.516C71.6833 113.049 72.2107 112.69 72.808 112.438C73.4147 112.177 74.068 112.046 74.768 112.046C75.2533 112.046 75.7153 112.111 76.154 112.242C76.602 112.363 77.022 112.545 77.414 112.788C77.806 113.021 78.156 113.311 78.464 113.656L77.75 114.398C77.386 113.959 76.938 113.623 76.406 113.39C75.8833 113.147 75.3373 113.026 74.768 113.026C74.2173 113.026 73.704 113.129 73.228 113.334C72.752 113.539 72.3367 113.829 71.982 114.202C71.6367 114.575 71.366 115.009 71.17 115.504C70.974 115.989 70.876 116.521 70.876 117.1C70.876 117.669 70.974 118.201 71.17 118.696C71.366 119.191 71.6367 119.625 71.982 119.998C72.3367 120.371 72.752 120.661 73.228 120.866C73.704 121.071 74.2173 121.174 74.768 121.174C75.3373 121.174 75.8833 121.053 76.406 120.81C76.938 120.567 77.386 120.231 77.75 119.802L78.464 120.544C78.156 120.889 77.806 121.183 77.414 121.426C77.022 121.659 76.602 121.841 76.154 121.972C75.7153 122.093 75.2533 122.154 74.768 122.154ZM82.3222 122.126C81.8369 122.126 81.4075 122.037 81.0342 121.86C80.6609 121.683 80.3669 121.44 80.1522 121.132C79.9469 120.815 79.8442 120.451 79.8442 120.04C79.8442 119.629 79.9515 119.275 80.1662 118.976C80.3809 118.668 80.6795 118.43 81.0622 118.262C81.4449 118.094 81.8929 118.01 82.4062 118.01C82.7982 118.01 83.1669 118.052 83.5122 118.136C83.8669 118.22 84.1935 118.355 84.4922 118.542V117.604C84.4922 117.044 84.3429 116.624 84.0442 116.344C83.7455 116.055 83.3069 115.91 82.7282 115.91C82.4109 115.91 82.0842 115.957 81.7482 116.05C81.4215 116.143 81.0575 116.293 80.6562 116.498L80.2782 115.714C81.1929 115.275 82.0515 115.056 82.8542 115.056C83.7035 115.056 84.3569 115.266 84.8142 115.686C85.2715 116.097 85.5002 116.689 85.5002 117.464V122H84.4922V121.202C84.1935 121.51 83.8622 121.743 83.4982 121.902C83.1342 122.051 82.7422 122.126 82.3222 122.126ZM80.8242 120.012C80.8242 120.413 80.9782 120.735 81.2862 120.978C81.6035 121.221 82.0189 121.342 82.5322 121.342C82.9149 121.342 83.2649 121.277 83.5822 121.146C83.9089 121.015 84.2122 120.819 84.4922 120.558V119.242C84.2029 119.074 83.9042 118.953 83.5962 118.878C83.2882 118.794 82.9429 118.752 82.5602 118.752C82.0375 118.752 81.6175 118.869 81.3002 119.102C80.9829 119.326 80.8242 119.629 80.8242 120.012ZM87.5773 122V111.892L88.5993 111.682V122H87.5773ZM90.6805 122V115.168H91.7025V122H90.6805ZM91.1985 113.474C90.9932 113.474 90.8159 113.404 90.6665 113.264C90.5265 113.115 90.4565 112.942 90.4565 112.746C90.4565 112.55 90.5265 112.382 90.6665 112.242C90.8159 112.093 90.9932 112.018 91.1985 112.018C91.4039 112.018 91.5765 112.093 91.7165 112.242C91.8659 112.382 91.9405 112.55 91.9405 112.746C91.9405 112.942 91.8659 113.115 91.7165 113.264C91.5765 113.404 91.4039 113.474 91.1985 113.474ZM94.666 122V116.008H93.14V115.168H94.666V113.74C94.666 113.068 94.8434 112.55 95.198 112.186C95.5527 111.822 96.0567 111.64 96.71 111.64C96.8967 111.64 97.0647 111.649 97.214 111.668C97.3727 111.687 97.5127 111.719 97.634 111.766V112.69C97.4847 112.643 97.3494 112.611 97.228 112.592C97.1067 112.573 96.9667 112.564 96.808 112.564C96.416 112.564 96.1314 112.662 95.954 112.858C95.7767 113.045 95.688 113.343 95.688 113.754V115.168H97.634V116.008H95.688V122H94.666ZM101.717 122.112C101.082 122.112 100.513 121.958 100.009 121.65C99.5046 121.342 99.1079 120.922 98.8186 120.39C98.5292 119.858 98.3846 119.256 98.3846 118.584C98.3846 117.912 98.5292 117.31 98.8186 116.778C99.1079 116.246 99.5046 115.826 100.009 115.518C100.513 115.21 101.082 115.056 101.717 115.056C102.342 115.056 102.902 115.21 103.397 115.518C103.901 115.826 104.297 116.246 104.587 116.778C104.876 117.31 105.021 117.912 105.021 118.584C105.021 119.256 104.876 119.858 104.587 120.39C104.297 120.922 103.901 121.342 103.397 121.65C102.902 121.958 102.342 122.112 101.717 122.112ZM101.703 121.216C102.151 121.216 102.547 121.104 102.893 120.88C103.238 120.647 103.509 120.329 103.705 119.928C103.91 119.527 104.013 119.079 104.013 118.584C104.013 118.08 103.91 117.632 103.705 117.24C103.509 116.839 103.238 116.526 102.893 116.302C102.547 116.069 102.151 115.952 101.703 115.952C101.255 115.952 100.858 116.069 100.513 116.302C100.167 116.526 99.8919 116.839 99.6866 117.24C99.4906 117.632 99.3926 118.08 99.3926 118.584C99.3926 119.079 99.4906 119.527 99.6866 119.928C99.8919 120.329 100.167 120.647 100.513 120.88C100.858 121.104 101.255 121.216 101.703 121.216ZM106.814 122V115.168H107.836V116.568C108.013 116.092 108.265 115.723 108.592 115.462C108.928 115.191 109.31 115.056 109.74 115.056C109.861 115.056 109.973 115.065 110.076 115.084C110.178 115.093 110.281 115.117 110.384 115.154V116.078C110.272 116.041 110.15 116.013 110.02 115.994C109.898 115.966 109.782 115.952 109.67 115.952C109.25 115.952 108.881 116.073 108.564 116.316C108.256 116.559 108.013 116.899 107.836 117.338V122H106.814ZM111.736 122V115.168H112.758V116.274C113.019 115.863 113.332 115.56 113.696 115.364C114.06 115.159 114.47 115.056 114.928 115.056C115.422 115.056 115.852 115.163 116.216 115.378C116.589 115.583 116.878 115.877 117.084 116.26C117.298 116.633 117.406 117.072 117.406 117.576V122H116.384V117.87C116.384 117.263 116.216 116.787 115.88 116.442C115.553 116.087 115.11 115.91 114.55 115.91C114.176 115.91 113.836 115.999 113.528 116.176C113.22 116.353 112.963 116.615 112.758 116.96V122H111.736ZM119.446 122V115.168H120.468V122H119.446ZM119.964 113.474C119.759 113.474 119.581 113.404 119.432 113.264C119.292 113.115 119.222 112.942 119.222 112.746C119.222 112.55 119.292 112.382 119.432 112.242C119.581 112.093 119.759 112.018 119.964 112.018C120.169 112.018 120.342 112.093 120.482 112.242C120.631 112.382 120.706 112.55 120.706 112.746C120.706 112.942 120.631 113.115 120.482 113.264C120.342 113.404 120.169 113.474 119.964 113.474ZM124.678 122.126C124.192 122.126 123.763 122.037 123.39 121.86C123.016 121.683 122.722 121.44 122.508 121.132C122.302 120.815 122.2 120.451 122.2 120.04C122.2 119.629 122.307 119.275 122.522 118.976C122.736 118.668 123.035 118.43 123.418 118.262C123.8 118.094 124.248 118.01 124.762 118.01C125.154 118.01 125.522 118.052 125.868 118.136C126.222 118.22 126.549 118.355 126.848 118.542V117.604C126.848 117.044 126.698 116.624 126.4 116.344C126.101 116.055 125.662 115.91 125.084 115.91C124.766 115.91 124.44 115.957 124.104 116.05C123.777 116.143 123.413 116.293 123.012 116.498L122.634 115.714C123.548 115.275 124.407 115.056 125.21 115.056C126.059 115.056 126.712 115.266 127.17 115.686C127.627 116.097 127.856 116.689 127.856 117.464V122H126.848V121.202C126.549 121.51 126.218 121.743 125.854 121.902C125.49 122.051 125.098 122.126 124.678 122.126ZM123.18 120.012C123.18 120.413 123.334 120.735 123.642 120.978C123.959 121.221 124.374 121.342 124.888 121.342C125.27 121.342 125.62 121.277 125.938 121.146C126.264 121.015 126.568 120.819 126.848 120.558V119.242C126.558 119.074 126.26 118.953 125.952 118.878C125.644 118.794 125.298 118.752 124.916 118.752C124.393 118.752 123.973 118.869 123.656 119.102C123.338 119.326 123.18 119.629 123.18 120.012Z" fill="#151515"/>
<path d="M237.3 121.632C236.196 121.632 235.244 121.252 234.444 120.492L234.984 119.904C235.352 120.248 235.716 120.5 236.076 120.66C236.444 120.812 236.856 120.888 237.312 120.888C237.72 120.888 238.08 120.804 238.392 120.636C238.704 120.468 238.944 120.232 239.112 119.928C239.288 119.624 239.376 119.276 239.376 118.884C239.376 118.324 239.184 117.872 238.8 117.528C238.424 117.184 237.928 117.012 237.312 117.012C236.992 117.012 236.68 117.052 236.376 117.132C236.072 117.204 235.756 117.324 235.428 117.492L234.828 117.3L235.02 113.1H239.796V113.856H235.764L235.632 116.76C235.952 116.6 236.26 116.488 236.556 116.424C236.852 116.352 237.164 116.316 237.492 116.316C238.044 116.316 238.524 116.424 238.932 116.64C239.348 116.848 239.668 117.144 239.892 117.528C240.124 117.904 240.24 118.344 240.24 118.848C240.24 119.4 240.116 119.884 239.868 120.3C239.62 120.716 239.276 121.044 238.836 121.284C238.396 121.516 237.884 121.632 237.3 121.632Z" fill="#4D4D4D"/>
<path d="M45 150.5C45 148.291 46.7909 146.5 49 146.5H57C59.2091 146.5 61 148.291 61 150.5V158.5C61 160.709 59.2091 162.5 57 162.5H49C46.7909 162.5 45 160.709 45 158.5V150.5Z" fill="#0066CC"/>
<path fill-rule="evenodd" clip-rule="evenodd" d="M51.9242 158.773L58.8242 151.873C59.0585 151.638 59.0585 151.259 58.8242 151.024L57.9757 150.176C57.7414 149.941 57.3615 149.941 57.1272 150.176L51.5 155.803L48.8728 153.176C48.6385 152.941 48.2585 152.941 48.0242 153.176L47.1757 154.024C46.9414 154.259 46.9414 154.638 47.1757 154.873L51.0757 158.773C51.31 159.007 51.6899 159.007 51.9242 158.773Z" fill="white"/>
<path d="M70.246 159V149.2H71.744L75.02 156.172L78.296 149.2H79.794V159H78.772V150.474L75.02 158.3L71.254 150.446V159H70.246ZM84.0722 159.126C83.5869 159.126 83.1575 159.037 82.7842 158.86C82.4109 158.683 82.1169 158.44 81.9022 158.132C81.6969 157.815 81.5942 157.451 81.5942 157.04C81.5942 156.629 81.7015 156.275 81.9162 155.976C82.1309 155.668 82.4295 155.43 82.8122 155.262C83.1949 155.094 83.6429 155.01 84.1562 155.01C84.5482 155.01 84.9169 155.052 85.2622 155.136C85.6169 155.22 85.9435 155.355 86.2422 155.542V154.604C86.2422 154.044 86.0929 153.624 85.7942 153.344C85.4955 153.055 85.0569 152.91 84.4782 152.91C84.1609 152.91 83.8342 152.957 83.4982 153.05C83.1715 153.143 82.8075 153.293 82.4062 153.498L82.0282 152.714C82.9429 152.275 83.8015 152.056 84.6042 152.056C85.4535 152.056 86.1069 152.266 86.5642 152.686C87.0215 153.097 87.2502 153.689 87.2502 154.464V159H86.2422V158.202C85.9435 158.51 85.6122 158.743 85.2482 158.902C84.8842 159.051 84.4922 159.126 84.0722 159.126ZM82.5742 157.012C82.5742 157.413 82.7282 157.735 83.0362 157.978C83.3535 158.221 83.7689 158.342 84.2822 158.342C84.6649 158.342 85.0149 158.277 85.3322 158.146C85.6589 158.015 85.9622 157.819 86.2422 157.558V156.242C85.9529 156.074 85.6542 155.953 85.3462 155.878C85.0382 155.794 84.6929 155.752 84.3102 155.752C83.7875 155.752 83.3675 155.869 83.0502 156.102C82.7329 156.326 82.5742 156.629 82.5742 157.012ZM91.4413 159.14C90.8813 159.14 90.3633 159.056 89.8873 158.888C89.4113 158.711 89.0053 158.459 88.6693 158.132L89.2153 157.46C89.626 157.759 90.004 157.978 90.3493 158.118C90.6947 158.249 91.0493 158.314 91.4133 158.314C91.908 158.314 92.3187 158.197 92.6453 157.964C92.972 157.731 93.1353 157.432 93.1353 157.068C93.1353 156.788 93.0373 156.569 92.8413 156.41C92.6547 156.251 92.342 156.13 91.9033 156.046L90.7833 155.85C90.1207 155.729 89.6307 155.523 89.3133 155.234C89.0053 154.945 88.8513 154.553 88.8513 154.058C88.8513 153.666 88.954 153.321 89.1593 153.022C89.374 152.723 89.668 152.49 90.0413 152.322C90.4147 152.145 90.8393 152.056 91.3153 152.056C91.782 152.056 92.2253 152.126 92.6453 152.266C93.0653 152.397 93.49 152.611 93.9193 152.91L93.4153 153.624C93.0607 153.372 92.706 153.19 92.3513 153.078C91.9967 152.957 91.6373 152.896 91.2733 152.896C90.8253 152.896 90.466 152.994 90.1953 153.19C89.9247 153.386 89.7893 153.652 89.7893 153.988C89.7893 154.268 89.8733 154.483 90.0413 154.632C90.2187 154.781 90.5267 154.893 90.9653 154.968L92.1133 155.178C92.804 155.299 93.308 155.509 93.6253 155.808C93.9427 156.107 94.1013 156.508 94.1013 157.012C94.1013 157.413 93.9847 157.777 93.7513 158.104C93.518 158.421 93.2007 158.673 92.7993 158.86C92.398 159.047 91.9453 159.14 91.4413 159.14ZM97.7714 159.14C97.2114 159.14 96.6934 159.056 96.2174 158.888C95.7414 158.711 95.3354 158.459 94.9994 158.132L95.5454 157.46C95.9561 157.759 96.3341 157.978 96.6794 158.118C97.0248 158.249 97.3794 158.314 97.7434 158.314C98.2381 158.314 98.6488 158.197 98.9754 157.964C99.3021 157.731 99.4654 157.432 99.4654 157.068C99.4654 156.788 99.3674 156.569 99.1714 156.41C98.9848 156.251 98.6721 156.13 98.2334 156.046L97.1134 155.85C96.4508 155.729 95.9608 155.523 95.6434 155.234C95.3354 154.945 95.1814 154.553 95.1814 154.058C95.1814 153.666 95.2841 153.321 95.4894 153.022C95.7041 152.723 95.9981 152.49 96.3714 152.322C96.7448 152.145 97.1694 152.056 97.6454 152.056C98.1121 152.056 98.5554 152.126 98.9754 152.266C99.3954 152.397 99.8201 152.611 100.249 152.91L99.7454 153.624C99.3908 153.372 99.0361 153.19 98.6814 153.078C98.3268 152.957 97.9674 152.896 97.6034 152.896C97.1554 152.896 96.7961 152.994 96.5254 153.19C96.2548 153.386 96.1194 153.652 96.1194 153.988C96.1194 154.268 96.2034 154.483 96.3714 154.632C96.5488 154.781 96.8568 154.893 97.2954 154.968L98.4434 155.178C99.1341 155.299 99.6381 155.509 99.9554 155.808C100.273 156.107 100.431 156.508 100.431 157.012C100.431 157.413 100.315 157.777 100.081 158.104C99.8481 158.421 99.5308 158.673 99.1294 158.86C98.7281 159.047 98.2754 159.14 97.7714 159.14ZM104.17 159.126C103.685 159.126 103.255 159.037 102.882 158.86C102.509 158.683 102.215 158.44 102 158.132C101.795 157.815 101.692 157.451 101.692 157.04C101.692 156.629 101.799 156.275 102.014 155.976C102.229 155.668 102.527 155.43 102.91 155.262C103.293 155.094 103.741 155.01 104.254 155.01C104.646 155.01 105.015 155.052 105.36 155.136C105.715 155.22 106.041 155.355 106.34 155.542V154.604C106.34 154.044 106.191 153.624 105.892 153.344C105.593 153.055 105.155 152.91 104.576 152.91C104.259 152.91 103.932 152.957 103.596 153.05C103.269 153.143 102.905 153.293 102.504 153.498L102.126 152.714C103.041 152.275 103.899 152.056 104.702 152.056C105.551 152.056 106.205 152.266 106.662 152.686C107.119 153.097 107.348 153.689 107.348 154.464V159H106.34V158.202C106.041 158.51 105.71 158.743 105.346 158.902C104.982 159.051 104.59 159.126 104.17 159.126ZM102.672 157.012C102.672 157.413 102.826 157.735 103.134 157.978C103.451 158.221 103.867 158.342 104.38 158.342C104.763 158.342 105.113 158.277 105.43 158.146C105.757 158.015 106.06 157.819 106.34 157.558V156.242C106.051 156.074 105.752 155.953 105.444 155.878C105.136 155.794 104.791 155.752 104.408 155.752C103.885 155.752 103.465 155.869 103.148 156.102C102.831 156.326 102.672 156.629 102.672 157.012ZM112.491 159.112C111.856 159.112 111.282 158.958 110.769 158.65C110.265 158.333 109.864 157.908 109.565 157.376C109.266 156.835 109.117 156.237 109.117 155.584C109.117 154.921 109.266 154.324 109.565 153.792C109.864 153.26 110.265 152.84 110.769 152.532C111.282 152.215 111.856 152.056 112.491 152.056C112.995 152.056 113.476 152.149 113.933 152.336C114.39 152.523 114.787 152.784 115.123 153.12L114.465 153.834C114.222 153.563 113.928 153.353 113.583 153.204C113.238 153.055 112.888 152.98 112.533 152.98C112.085 152.98 111.679 153.097 111.315 153.33C110.96 153.563 110.676 153.876 110.461 154.268C110.246 154.66 110.139 155.099 110.139 155.584C110.139 156.069 110.246 156.508 110.461 156.9C110.676 157.292 110.96 157.605 111.315 157.838C111.679 158.071 112.085 158.188 112.533 158.188C112.888 158.188 113.238 158.113 113.583 157.964C113.928 157.805 114.222 157.595 114.465 157.334L115.123 158.048C114.787 158.384 114.39 158.645 113.933 158.832C113.476 159.019 112.995 159.112 112.491 159.112ZM116.548 159V148.892L117.57 148.682V153.274C117.831 152.863 118.144 152.56 118.508 152.364C118.872 152.159 119.283 152.056 119.74 152.056C120.235 152.056 120.664 152.163 121.028 152.378C121.401 152.583 121.691 152.877 121.896 153.26C122.111 153.633 122.218 154.072 122.218 154.576V159H121.196V154.87C121.196 154.263 121.028 153.787 120.692 153.442C120.365 153.087 119.922 152.91 119.362 152.91C118.989 152.91 118.648 152.999 118.34 153.176C118.032 153.353 117.775 153.615 117.57 153.96V159H116.548ZM126.64 159.112C126.155 159.112 125.726 159.005 125.352 158.79C124.979 158.575 124.685 158.277 124.47 157.894C124.265 157.511 124.162 157.073 124.162 156.578V152.168H125.198V156.284C125.198 156.891 125.362 157.371 125.688 157.726C126.015 158.081 126.458 158.258 127.018 158.258C127.401 158.258 127.742 158.169 128.04 157.992C128.348 157.815 128.605 157.558 128.81 157.222V152.168H129.832V159H128.81V157.894C128.549 158.295 128.236 158.599 127.872 158.804C127.518 159.009 127.107 159.112 126.64 159.112ZM134.043 159.14C133.483 159.14 132.965 159.056 132.489 158.888C132.013 158.711 131.607 158.459 131.271 158.132L131.817 157.46C132.228 157.759 132.606 157.978 132.951 158.118C133.296 158.249 133.651 158.314 134.015 158.314C134.51 158.314 134.92 158.197 135.247 157.964C135.574 157.731 135.737 157.432 135.737 157.068C135.737 156.788 135.639 156.569 135.443 156.41C135.256 156.251 134.944 156.13 134.505 156.046L133.385 155.85C132.722 155.729 132.232 155.523 131.915 155.234C131.607 154.945 131.453 154.553 131.453 154.058C131.453 153.666 131.556 153.321 131.761 153.022C131.976 152.723 132.27 152.49 132.643 152.322C133.016 152.145 133.441 152.056 133.917 152.056C134.384 152.056 134.827 152.126 135.247 152.266C135.667 152.397 136.092 152.611 136.521 152.91L136.017 153.624C135.662 153.372 135.308 153.19 134.953 153.078C134.598 152.957 134.239 152.896 133.875 152.896C133.427 152.896 133.068 152.994 132.797 153.19C132.526 153.386 132.391 153.652 132.391 153.988C132.391 154.268 132.475 154.483 132.643 154.632C132.82 154.781 133.128 154.893 133.567 154.968L134.715 155.178C135.406 155.299 135.91 155.509 136.227 155.808C136.544 156.107 136.703 156.508 136.703 157.012C136.703 157.413 136.586 157.777 136.353 158.104C136.12 158.421 135.802 158.673 135.401 158.86C135 159.047 134.547 159.14 134.043 159.14ZM141.407 159.14C140.773 159.14 140.199 158.986 139.685 158.678C139.172 158.361 138.766 157.936 138.467 157.404C138.169 156.863 138.019 156.256 138.019 155.584C138.019 154.912 138.159 154.31 138.439 153.778C138.729 153.246 139.116 152.826 139.601 152.518C140.087 152.21 140.628 152.056 141.225 152.056C141.832 152.056 142.369 152.21 142.835 152.518C143.311 152.817 143.685 153.227 143.955 153.75C144.235 154.263 144.375 154.847 144.375 155.5V155.808H139.013C139.051 156.275 139.177 156.695 139.391 157.068C139.615 157.432 139.905 157.721 140.259 157.936C140.623 158.141 141.02 158.244 141.449 158.244C141.804 158.244 142.145 158.183 142.471 158.062C142.807 157.931 143.092 157.759 143.325 157.544L143.969 158.23C143.577 158.538 143.171 158.767 142.751 158.916C142.331 159.065 141.883 159.14 141.407 159.14ZM139.041 155.08H143.367C143.321 154.669 143.195 154.305 142.989 153.988C142.793 153.661 142.541 153.405 142.233 153.218C141.935 153.031 141.599 152.938 141.225 152.938C140.852 152.938 140.511 153.031 140.203 153.218C139.895 153.395 139.639 153.647 139.433 153.974C139.237 154.291 139.107 154.66 139.041 155.08ZM148.519 159.14C147.931 159.14 147.483 159 147.175 158.72C146.877 158.431 146.727 158.015 146.727 157.474V153.008H145.313V152.168H146.727V150.292L147.749 150.054V152.168H149.709V153.008H147.749V157.208C147.749 157.572 147.824 157.833 147.973 157.992C148.132 158.151 148.389 158.23 148.743 158.23C148.921 158.23 149.079 158.216 149.219 158.188C149.359 158.16 149.523 158.113 149.709 158.048V158.958C149.523 159.023 149.327 159.07 149.121 159.098C148.916 159.126 148.715 159.14 148.519 159.14ZM153.947 159.14C153.359 159.14 152.911 159 152.603 158.72C152.304 158.431 152.155 158.015 152.155 157.474V153.008H150.741V152.168H152.155V150.292L153.177 150.054V152.168H155.137V153.008H153.177V157.208C153.177 157.572 153.252 157.833 153.401 157.992C153.56 158.151 153.816 158.23 154.171 158.23C154.348 158.23 154.507 158.216 154.647 158.188C154.787 158.16 154.95 158.113 155.137 158.048V158.958C154.95 159.023 154.754 159.07 154.549 159.098C154.344 159.126 154.143 159.14 153.947 159.14ZM158.885 159.14C158.325 159.14 157.807 159.056 157.331 158.888C156.855 158.711 156.449 158.459 156.113 158.132L156.659 157.46C157.069 157.759 157.447 157.978 157.793 158.118C158.138 158.249 158.493 158.314 158.857 158.314C159.351 158.314 159.762 158.197 160.089 157.964C160.415 157.731 160.579 157.432 160.579 157.068C160.579 156.788 160.481 156.569 160.285 156.41C160.098 156.251 159.785 156.13 159.347 156.046L158.227 155.85C157.564 155.729 157.074 155.523 156.757 155.234C156.449 154.945 156.295 154.553 156.295 154.058C156.295 153.666 156.397 153.321 156.603 153.022C156.817 152.723 157.111 152.49 157.485 152.322C157.858 152.145 158.283 152.056 158.759 152.056C159.225 152.056 159.669 152.126 160.089 152.266C160.509 152.397 160.933 152.611 161.363 152.91L160.859 153.624C160.504 153.372 160.149 153.19 159.795 153.078C159.44 152.957 159.081 152.896 158.717 152.896C158.269 152.896 157.909 152.994 157.639 153.19C157.368 153.386 157.233 153.652 157.233 153.988C157.233 154.268 157.317 154.483 157.485 154.632C157.662 154.781 157.97 154.893 158.409 154.968L159.557 155.178C160.247 155.299 160.751 155.509 161.069 155.808C161.386 156.107 161.545 156.508 161.545 157.012C161.545 157.413 161.428 157.777 161.195 158.104C160.961 158.421 160.644 158.673 160.243 158.86C159.841 159.047 159.389 159.14 158.885 159.14Z" fill="#151515"/>
<path d="M236.384 158.632C235.808 158.632 235.268 158.532 234.764 158.332C234.268 158.132 233.828 157.836 233.444 157.444L234.02 156.88C234.372 157.232 234.732 157.488 235.1 157.648C235.476 157.8 235.9 157.876 236.372 157.876C236.78 157.876 237.14 157.804 237.452 157.66C237.772 157.516 238.02 157.316 238.196 157.06C238.372 156.804 238.46 156.512 238.46 156.184C238.46 155.872 238.38 155.596 238.22 155.356C238.068 155.108 237.856 154.916 237.584 154.78C237.312 154.644 237 154.576 236.648 154.576H235.652V153.832H236.612C237.068 153.832 237.436 153.692 237.716 153.412C238.004 153.132 238.148 152.768 238.148 152.32C238.148 152.024 238.068 151.756 237.908 151.516C237.748 151.276 237.528 151.088 237.248 150.952C236.976 150.808 236.668 150.736 236.324 150.736C235.892 150.736 235.504 150.816 235.16 150.976C234.824 151.128 234.48 151.388 234.128 151.756L233.552 151.18C233.928 150.78 234.352 150.48 234.824 150.28C235.296 150.072 235.8 149.968 236.336 149.968C236.848 149.968 237.304 150.068 237.704 150.268C238.112 150.468 238.432 150.744 238.664 151.096C238.896 151.44 239.012 151.832 239.012 152.272C239.012 152.712 238.868 153.108 238.58 153.46C238.292 153.804 237.912 154.044 237.44 154.18C238.008 154.308 238.464 154.556 238.808 154.924C239.152 155.292 239.324 155.72 239.324 156.208C239.324 156.672 239.196 157.088 238.94 157.456C238.692 157.824 238.344 158.112 237.896 158.32C237.456 158.528 236.952 158.632 236.384 158.632Z" fill="#4D4D4D"/>
</g>
<mask id="path-20-inside-3_385_67679" fill="white">
<path fill-rule="evenodd" clip-rule="evenodd" d="M152.465 118.195C151.131 117.425 149.465 118.387 149.465 119.927L149.465 133.934C149.465 135.474 151.131 136.436 152.465 135.666L156.105 133.565L157.743 136.402C158.295 137.359 159.518 137.687 160.475 137.134L162.278 136.093C163.235 135.541 163.562 134.318 163.01 133.361L161.372 130.524L164.595 128.663C165.928 127.893 165.928 125.968 164.595 125.198L152.465 118.195Z"/>
</mask>
<path fill-rule="evenodd" clip-rule="evenodd" d="M152.465 118.195C151.131 117.425 149.465 118.387 149.465 119.927L149.465 133.934C149.465 135.474 151.131 136.436 152.465 135.666L156.105 133.565L157.743 136.402C158.295 137.359 159.518 137.687 160.475 137.134L162.278 136.093C163.235 135.541 163.562 134.318 163.01 133.361L161.372 130.524L164.595 128.663C165.928 127.893 165.928 125.968 164.595 125.198L152.465 118.195Z" fill="#FF00FF"/>
<path d="M149.465 119.927L148.465 119.927L148.465 119.927L149.465 119.927ZM152.465 118.195L152.965 117.329L152.965 117.329L152.465 118.195ZM149.465 133.934L150.465 133.934L150.465 133.934L149.465 133.934ZM156.105 133.565L156.971 133.065L156.471 132.199L155.605 132.699L156.105 133.565ZM161.372 130.524L160.872 129.657L160.006 130.157L160.506 131.024L161.372 130.524ZM164.595 125.198L164.095 126.064L164.595 125.198ZM149.465 119.927L150.465 119.927C150.465 119.157 151.298 118.676 151.965 119.061L152.465 118.195L152.965 117.329C150.965 116.174 148.465 117.618 148.465 119.927L149.465 119.927ZM149.465 133.934L150.465 133.934L150.465 119.927L149.465 119.927L148.465 119.927L148.465 133.934H149.465ZM152.465 135.666L151.965 134.8C151.298 135.185 150.465 134.704 150.465 133.934L149.465 133.934L148.465 133.934C148.465 136.243 150.965 137.687 152.965 136.532L152.465 135.666ZM156.105 133.565L155.605 132.699L151.965 134.8L152.465 135.666L152.965 136.532L156.605 134.431L156.105 133.565ZM157.743 136.402L158.609 135.902L156.971 133.065L156.105 133.565L155.238 134.065L156.877 136.902L157.743 136.402ZM160.475 137.134L159.975 136.268C159.497 136.544 158.885 136.381 158.609 135.902L157.743 136.402L156.877 136.902C157.705 138.337 159.54 138.829 160.975 138L160.475 137.134ZM162.278 136.093L161.778 135.227L159.975 136.268L160.475 137.134L160.975 138L162.778 136.959L162.278 136.093ZM163.01 133.361L162.144 133.861C162.42 134.339 162.256 134.951 161.778 135.227L162.278 136.093L162.778 136.959C164.213 136.131 164.705 134.296 163.876 132.861L163.01 133.361ZM161.372 130.524L160.506 131.024L162.144 133.861L163.01 133.361L163.876 132.861L162.238 130.024L161.372 130.524ZM164.595 128.663L164.095 127.797L160.872 129.657L161.372 130.524L161.872 131.39L165.095 129.529L164.595 128.663ZM164.595 125.198L164.095 126.064C164.762 126.449 164.762 127.412 164.095 127.797L164.595 128.663L165.095 129.529C167.095 128.374 167.095 125.487 165.095 124.332L164.595 125.198ZM152.465 118.195L151.965 119.061L164.095 126.064L164.595 125.198L165.095 124.332L152.965 117.329L152.465 118.195Z" fill="#FF00FF" mask="url(#path-20-inside-3_385_67679)"/>
<defs>
<filter id="filter0_d_385_67679" x="12" y="49" width="262" height="145" filterUnits="userSpaceOnUse" color-interpolation-filters="sRGB">
<feFlood flood-opacity="0" result="BackgroundImageFix"/>
<feColorMatrix in="SourceAlpha" type="matrix" values="0 0 0 0 0 0 0 0 0 0 0 0 0 0 0 0 0 0 127 0" result="hardAlpha"/>
<feOffset dy="4"/>
<feGaussianBlur stdDeviation="4.5"/>
<feColorMatrix type="matrix" values="0 0 0 0 0.160784 0 0 0 0 0.160784 0 0 0 0 0.160784 0 0 0 0.15 0"/>
<feBlend mode="normal" in2="BackgroundImageFix" result="effect1_dropShadow_385_67679"/>
<feBlend mode="normal" in="SourceGraphic" in2="effect1_dropShadow_385_67679" result="shape"/>
</filter>
</defs>
</svg>
