<?xml version="1.0" encoding="utf-8"?>
<!-- Generator: Adobe Illustrator 23.0.4, SVG Export Plug-In . SVG Version: 6.00 Build 0)  -->
<svg version="1.1" id="Layer_1" xmlns="http://www.w3.org/2000/svg" xmlns:xlink="http://www.w3.org/1999/xlink" x="0px" y="0px"
	 viewBox="0 0 100 109" style="enable-background:new 0 0 100 109;" xml:space="preserve">
<style type="text/css">
	.st0{fill:none;stroke:#6A6E73;stroke-linecap:round;stroke-linejoin:round;stroke-miterlimit:10;stroke-dasharray:3,5;}
	.st1{fill:#FFFFFF;stroke:#6A6E73;stroke-linecap:round;stroke-linejoin:round;stroke-miterlimit:10;}
	.st2{fill:#6A6E73;}
</style>
<path class="st0" d="M12.5,96.5c3-33,17.4-35.8,38-24c19.1,11,36-8.1,21-27c-15.4-19.4-8-23-8-23"/>
<path class="st1" d="M13,25v50 M27.8,71.8V104 M27.8,15v47.6 M42.6,74v34 M42.6,10v54.2 M57.4,79.2V108 M57.4,32v38 M72.2,77v27
	 M72.2,54.8v9.5 M72.2,29v10.2 M87,25v68 M56,22.5l-40-0.2 M59.6,37.1L5,37.1 M59.6,37.1 M95,37.1l-24.1,0 M70.4,51.9L1,51.9
	 M70.4,51.9 M80.8,51.9 M99,51.9l-18.2,0 M18.6,66.6L1,66.6 M70.4,66.6l-21.9,0 M99,66.6l-17.9,0 M10.5,81.4H6 M95,81.4l-75,0
	 M84,96.2l-67,0"/>
<g>
	<path class="st2" d="M81.3,15.7c-0.9,1.5-2.1,2.7-3.6,3.6c-1.5,0.9-3.2,1.3-5,1.3s-3.4-0.4-5-1.3c-1.5-0.9-2.7-2.1-3.6-3.6
		c-0.9-1.5-1.3-3.2-1.3-5s0.4-3.4,1.3-5c0.9-1.5,2.1-2.7,3.6-3.6c1.5-0.9,3.2-1.3,5-1.3s3.4,0.4,5,1.3c1.5,0.9,2.7,2.1,3.6,3.6
		c0.9,1.5,1.3,3.2,1.3,5S82.2,14.2,81.3,15.7z M70.3,4.8c-0.7,0.4-1.4,1-1.9,1.9c-0.1,0.1-0.1,0.2-0.1,0.3c0,0.1,0.1,0.2,0.2,0.3
		l1.4,1c0.1,0.1,0.2,0.1,0.3,0.1c0.1,0,0.2-0.1,0.3-0.2c0.4-0.5,0.8-0.9,1-1c0.4-0.3,0.8-0.4,1.3-0.4c0.5,0,0.9,0.1,1.3,0.4
		c0.4,0.3,0.6,0.6,0.6,0.9c0,0.3-0.1,0.5-0.4,0.8c-0.2,0.1-0.5,0.3-0.9,0.6l-0.1,0c-0.7,0.4-1.1,0.7-1.4,1c-0.5,0.5-0.7,1.1-0.7,1.8
		v0.2c0,0.1,0,0.2,0.1,0.3c0.1,0.1,0.2,0.1,0.3,0.1h2.2c0.1,0,0.2,0,0.3-0.1c0.1-0.1,0.1-0.2,0.1-0.3v0c0-0.2,0.1-0.4,0.3-0.6
		c0.1-0.1,0.4-0.3,0.8-0.5c0.7-0.4,1.2-0.8,1.5-1.1c0.5-0.6,0.8-1.3,0.8-2.1c0-0.7-0.2-1.4-0.7-2.1s-1-1.1-1.8-1.5s-1.5-0.5-2.2-0.5
		C72,4.2,71.1,4.4,70.3,4.8z M71.5,14.6c-0.4,0.4-0.5,0.8-0.5,1.3s0.2,0.9,0.5,1.3s0.8,0.5,1.3,0.5s0.9-0.2,1.3-0.5s0.5-0.8,0.5-1.3
		s-0.2-0.9-0.5-1.3s-0.8-0.5-1.3-0.5S71.8,14.2,71.5,14.6z"/>
</g>
</svg>
