<?xml version="1.0" encoding="utf-8"?>
<!-- Generator: Adobe Illustrator 23.0.2, SVG Export Plug-In . SVG Version: 6.00 Build 0)  -->
<svg version="1.1" id="Layer_2" xmlns="http://www.w3.org/2000/svg" xmlns:xlink="http://www.w3.org/1999/xlink" x="0px" y="0px"
	 viewBox="0 0 1440 594" style="enable-background:new 0 0 1440 594;" xml:space="preserve">
<style type="text/css">
	.st0{fill:none;stroke:url(#SVGID_1_);stroke-width:2;stroke-miterlimit:10;}
	.st1{fill:none;stroke:url(#SVGID_2_);stroke-miterlimit:10;}
	.st2{fill:none;stroke:url(#SVGID_3_);stroke-width:2;stroke-miterlimit:10;}
	.st3{fill:none;stroke:url(#SVGID_4_);stroke-width:2;stroke-miterlimit:10;}
	.st4{fill:none;stroke:url(#SVGID_5_);stroke-width:2;stroke-miterlimit:10;}
	.st5{fill:none;stroke:url(#SVGID_6_);stroke-miterlimit:10;}
	.st6{fill:none;stroke:url(#SVGID_7_);stroke-width:2;stroke-miterlimit:10;}
	.st7{fill:none;stroke:#03B9E4;stroke-miterlimit:10;}
	.st8{fill:none;stroke:url(#SVGID_8_);stroke-width:2;stroke-miterlimit:10;}
</style>
<g>
	
		<linearGradient id="SVGID_1_" gradientUnits="userSpaceOnUse" x1="733.1358" y1="-145.1296" x2="733.1358" y2="446.4717" gradientTransform="matrix(1.1138 0.9488 -0.6928 0.8132 -507.5965 -576.3708)">
		<stop  offset="0" style="stop-color:#54EEFF"/>
		<stop  offset="1" style="stop-color:#1C75BC;stop-opacity:0.2"/>
	</linearGradient>
	<line class="st0" x1="409.13" y1="0.87" x2="0" y2="482.59"/>
	
		<linearGradient id="SVGID_2_" gradientUnits="userSpaceOnUse" x1="-1049.5968" y1="-561.5276" x2="-1049.5968" y2="26.7167" gradientTransform="matrix(0.4736 -0.4022 0.8486 0.9992 973.912 144.9931)">
		<stop  offset="0" style="stop-color:#54EEFF"/>
		<stop  offset="1" style="stop-color:#1C75BC;stop-opacity:0.2"/>
	</linearGradient>
	<line class="st1" x1="1.56" y1="5.02" x2="498.3" y2="594.87"/>
	
		<linearGradient id="SVGID_3_" gradientUnits="userSpaceOnUse" x1="-1141.2969" y1="-470.1697" x2="-1141.2969" y2="18.2584" gradientTransform="matrix(0.4736 -0.4022 0.8486 0.9992 973.912 144.9931)">
		<stop  offset="0" style="stop-color:#54EEFF"/>
		<stop  offset="1" style="stop-color:#1C75BC;stop-opacity:0.2"/>
	</linearGradient>
	<line class="st2" x1="1.56" y1="162.62" x2="481.8" y2="593.87"/>
	<g>
		
			<linearGradient id="SVGID_4_" gradientUnits="userSpaceOnUse" x1="1285.4879" y1="-744.5676" x2="1285.4879" y2="-60.7889" gradientTransform="matrix(1.1138 0.9488 -0.6928 0.8132 -507.5965 -576.3708)">
			<stop  offset="0" style="stop-color:#54EEFF"/>
			<stop  offset="1" style="stop-color:#1C75BC;stop-opacity:0.2"/>
		</linearGradient>
		<line class="st3" x1="1439.72" y1="37.54" x2="966.47" y2="594"/>
		
			<linearGradient id="SVGID_5_" gradientUnits="userSpaceOnUse" x1="1365.0947" y1="-568.3177" x2="1365.0947" y2="-118.4112" gradientTransform="matrix(1.1138 0.9488 -0.6928 0.8132 -507.5965 -576.3708)">
			<stop  offset="0" style="stop-color:#54EEFF"/>
			<stop  offset="1" style="stop-color:#1C75BC;stop-opacity:0.2"/>
		</linearGradient>
		<line class="st4" x1="1439.72" y1="285.07" x2="1061.61" y2="594"/>
		
			<linearGradient id="SVGID_6_" gradientUnits="userSpaceOnUse" x1="1300.7275" y1="-720.535" x2="1300.7275" y2="-78.9076" gradientTransform="matrix(1.1138 0.9488 -0.6928 0.8132 -507.5965 -576.3708)">
			<stop  offset="0" style="stop-color:#54EEFF"/>
			<stop  offset="1" style="stop-color:#1C75BC;stop-opacity:0.2"/>
		</linearGradient>
		<line class="st5" x1="1439.72" y1="71.27" x2="996.32" y2="594"/>
		<g>
			<linearGradient id="SVGID_7_" gradientUnits="userSpaceOnUse" x1="248.9248" y1="1.7434" x2="248.9248" y2="593.9996">
				<stop  offset="0" style="stop-color:#54EEFF"/>
				<stop  offset="1" style="stop-color:#1C75BC;stop-opacity:0.2"/>
			</linearGradient>
			<line class="st6" x1="248.92" y1="1.74" x2="248.92" y2="594"/>
			<line class="st7" x1="224.92" y1="1.74" x2="224.92" y2="594"/>
			<line class="st7" x1="200.92" y1="1.74" x2="200.92" y2="594"/>
			<line class="st7" x1="176.92" y1="1.74" x2="176.92" y2="594"/>
			<line class="st7" x1="152.92" y1="1.74" x2="152.92" y2="594"/>
			<line class="st7" x1="128.92" y1="1.74" x2="128.92" y2="594"/>
			<line class="st7" x1="104.92" y1="1.74" x2="104.92" y2="594"/>
			<line class="st7" x1="80.92" y1="1.74" x2="80.92" y2="594"/>
			<line class="st7" x1="56.92" y1="1.74" x2="56.92" y2="594"/>
			<line class="st7" x1="32.92" y1="1.74" x2="32.92" y2="594"/>
			<line class="st7" x1="8.92" y1="1.74" x2="8.92" y2="594"/>
		</g>
		<g>
			
				<linearGradient id="SVGID_8_" gradientUnits="userSpaceOnUse" x1="421.8774" y1="1.7434" x2="421.8774" y2="593.9996" gradientTransform="matrix(-1 0 0 1 1613.1027 0)">
				<stop  offset="0" style="stop-color:#54EEFF"/>
				<stop  offset="1" style="stop-color:#1C75BC;stop-opacity:0.2"/>
			</linearGradient>
			<line class="st8" x1="1191.23" y1="1.74" x2="1191.23" y2="594"/>
			<line class="st7" x1="1215.23" y1="1.74" x2="1215.23" y2="594"/>
			<line class="st7" x1="1239.23" y1="1.74" x2="1239.23" y2="594"/>
			<line class="st7" x1="1263.23" y1="1.74" x2="1263.23" y2="594"/>
			<line class="st7" x1="1287.23" y1="1.74" x2="1287.23" y2="594"/>
			<line class="st7" x1="1311.23" y1="1.74" x2="1311.23" y2="594"/>
			<line class="st7" x1="1335.23" y1="1.74" x2="1335.23" y2="594"/>
			<line class="st7" x1="1359.23" y1="1.74" x2="1359.23" y2="594"/>
			<line class="st7" x1="1383.23" y1="1.74" x2="1383.23" y2="594"/>
			<line class="st7" x1="1407.23" y1="1.74" x2="1407.23" y2="594"/>
			<line class="st7" x1="1431.23" y1="1.74" x2="1431.23" y2="594"/>
		</g>
		<line class="st7" x1="0" y1="570.98" x2="1440" y2="570.98"/>
		<line class="st7" x1="0" y1="546.96" x2="1440" y2="546.96"/>
		<line class="st7" x1="0" y1="522.94" x2="1440" y2="522.94"/>
	</g>
</g>
</svg>
