<svg width="882" height="121" viewBox="0 0 882 121" fill="none" xmlns="http://www.w3.org/2000/svg">
<rect width="882" height="121" fill="white"/>
<path d="M319.816 27.132C319.16 27.132 318.54 27.02 317.956 26.796C317.38 26.564 316.824 26.224 316.288 25.776L317.068 24.72C317.612 25.16 318.096 25.476 318.52 25.668C318.952 25.852 319.412 25.944 319.9 25.944C320.268 25.944 320.592 25.888 320.872 25.776C321.16 25.656 321.38 25.496 321.532 25.296C321.692 25.096 321.772 24.864 321.772 24.6C321.772 24.256 321.656 23.996 321.424 23.82C321.2 23.636 320.808 23.496 320.248 23.4L318.7 23.136C317.972 23.008 317.428 22.764 317.068 22.404C316.716 22.036 316.54 21.568 316.54 21C316.54 20.496 316.668 20.056 316.924 19.68C317.18 19.296 317.536 19 317.992 18.792C318.456 18.576 319.004 18.468 319.636 18.468C320.268 18.468 320.868 18.56 321.436 18.744C322.004 18.928 322.528 19.196 323.008 19.548L322.276 20.628C321.852 20.308 321.416 20.068 320.968 19.908C320.52 19.74 320.06 19.656 319.588 19.656C319.252 19.656 318.956 19.708 318.7 19.812C318.452 19.916 318.256 20.06 318.112 20.244C317.976 20.428 317.908 20.632 317.908 20.856C317.908 21.16 318.008 21.396 318.208 21.564C318.416 21.724 318.748 21.844 319.204 21.924L320.704 22.176C321.552 22.328 322.176 22.592 322.576 22.968C322.984 23.344 323.188 23.852 323.188 24.492C323.188 25.004 323.044 25.46 322.756 25.86C322.476 26.26 322.084 26.572 321.58 26.796C321.076 27.02 320.488 27.132 319.816 27.132ZM326.897 27.12C326.289 27.12 325.829 26.98 325.517 26.7C325.205 26.412 325.049 25.992 325.049 25.44V22.068H323.849V20.988H325.049V19.332L326.405 19.044V20.988H328.073V22.068H326.405V25.14C326.405 25.436 326.469 25.648 326.597 25.776C326.725 25.896 326.941 25.956 327.245 25.956C327.381 25.956 327.505 25.948 327.617 25.932C327.737 25.908 327.885 25.868 328.061 25.812V26.952C327.893 27.008 327.701 27.048 327.485 27.072C327.277 27.104 327.081 27.12 326.897 27.12ZM331.928 27.108C331.36 27.108 330.844 26.972 330.38 26.7C329.924 26.428 329.564 26.06 329.3 25.596C329.036 25.124 328.904 24.592 328.904 24C328.904 23.408 329.036 22.88 329.3 22.416C329.564 21.944 329.924 21.572 330.38 21.3C330.836 21.028 331.352 20.892 331.928 20.892C332.504 20.892 333.016 21.028 333.464 21.3C333.92 21.572 334.28 21.944 334.544 22.416C334.808 22.88 334.94 23.408 334.94 24C334.94 24.592 334.808 25.124 334.544 25.596C334.28 26.06 333.92 26.428 333.464 26.7C333.016 26.972 332.504 27.108 331.928 27.108ZM331.928 25.956C332.256 25.956 332.544 25.872 332.792 25.704C333.048 25.536 333.248 25.304 333.392 25.008C333.536 24.704 333.608 24.368 333.608 24C333.608 23.624 333.536 23.292 333.392 23.004C333.248 22.708 333.048 22.476 332.792 22.308C332.544 22.132 332.256 22.044 331.928 22.044C331.6 22.044 331.308 22.132 331.052 22.308C330.796 22.476 330.596 22.708 330.452 23.004C330.308 23.292 330.236 23.624 330.236 24C330.236 24.376 330.308 24.712 330.452 25.008C330.596 25.304 330.796 25.536 331.052 25.704C331.308 25.872 331.6 25.956 331.928 25.956ZM336.34 27V20.988H337.696V22.284C337.872 21.828 338.1 21.48 338.38 21.24C338.66 21 338.984 20.88 339.352 20.88C339.464 20.888 339.564 20.9 339.652 20.916C339.74 20.924 339.836 20.952 339.94 21V22.188C339.836 22.14 339.716 22.104 339.58 22.08C339.452 22.056 339.324 22.044 339.196 22.044C338.868 22.044 338.572 22.132 338.308 22.308C338.052 22.484 337.848 22.728 337.696 23.04V27H336.34ZM342.687 27.108C342.271 27.108 341.899 27.032 341.571 26.88C341.251 26.72 340.999 26.504 340.815 26.232C340.639 25.952 340.551 25.632 340.551 25.272C340.551 24.912 340.643 24.6 340.827 24.336C341.019 24.072 341.287 23.868 341.631 23.724C341.975 23.58 342.383 23.508 342.855 23.508C343.135 23.508 343.411 23.54 343.683 23.604C343.955 23.66 344.219 23.756 344.475 23.892V23.22C344.475 22.82 344.359 22.52 344.127 22.32C343.903 22.12 343.559 22.02 343.095 22.02C342.847 22.02 342.579 22.06 342.291 22.14C342.011 22.212 341.695 22.328 341.343 22.488L340.863 21.504C341.743 21.096 342.575 20.892 343.359 20.892C344.143 20.892 344.747 21.084 345.171 21.468C345.603 21.844 345.819 22.38 345.819 23.076V27H344.475V26.376C344.219 26.624 343.943 26.808 343.647 26.928C343.351 27.048 343.031 27.108 342.687 27.108ZM341.823 25.248C341.823 25.528 341.935 25.748 342.159 25.908C342.383 26.068 342.683 26.148 343.059 26.148C343.331 26.148 343.583 26.108 343.815 26.028C344.055 25.94 344.275 25.812 344.475 25.644V24.672C344.267 24.576 344.051 24.504 343.827 24.456C343.603 24.408 343.359 24.384 343.095 24.384C342.703 24.384 342.391 24.46 342.159 24.612C341.935 24.764 341.823 24.976 341.823 25.248ZM350.269 29.628C349.845 29.628 349.425 29.576 349.009 29.472C348.593 29.368 348.209 29.224 347.857 29.04L348.325 28.044C348.685 28.212 349.013 28.336 349.309 28.416C349.613 28.504 349.913 28.548 350.209 28.548C350.713 28.548 351.093 28.436 351.349 28.212C351.613 27.988 351.745 27.656 351.745 27.216V26.196C351.529 26.46 351.261 26.668 350.941 26.82C350.621 26.964 350.273 27.036 349.897 27.036C349.393 27.036 348.937 26.9 348.529 26.628C348.121 26.348 347.793 25.98 347.545 25.524C347.305 25.06 347.185 24.544 347.185 23.976C347.185 23.408 347.309 22.896 347.557 22.44C347.805 21.984 348.141 21.62 348.565 21.348C348.997 21.076 349.473 20.94 349.993 20.94C350.345 20.94 350.673 21.008 350.977 21.144C351.281 21.28 351.541 21.48 351.757 21.744V20.988H353.101V27.216C353.101 27.992 352.857 28.588 352.369 29.004C351.881 29.42 351.181 29.628 350.269 29.628ZM350.317 25.908C350.605 25.908 350.873 25.852 351.121 25.74C351.369 25.62 351.577 25.456 351.745 25.248V22.728C351.569 22.52 351.357 22.36 351.109 22.248C350.861 22.136 350.597 22.08 350.317 22.08C349.973 22.08 349.665 22.164 349.393 22.332C349.129 22.492 348.917 22.716 348.757 23.004C348.597 23.284 348.517 23.612 348.517 23.988C348.517 24.348 348.597 24.676 348.757 24.972C348.917 25.26 349.129 25.488 349.393 25.656C349.665 25.824 349.973 25.908 350.317 25.908ZM357.57 27.12C356.994 27.12 356.474 26.984 356.01 26.712C355.546 26.432 355.178 26.06 354.906 25.596C354.634 25.124 354.498 24.592 354.498 24C354.498 23.408 354.626 22.88 354.882 22.416C355.138 21.952 355.486 21.584 355.926 21.312C356.374 21.032 356.87 20.892 357.414 20.892C357.974 20.892 358.466 21.028 358.89 21.3C359.322 21.572 359.658 21.94 359.898 22.404C360.146 22.868 360.27 23.4 360.27 24V24.324H355.83C355.878 24.652 355.982 24.944 356.142 25.2C356.31 25.448 356.522 25.644 356.778 25.788C357.042 25.932 357.326 26.004 357.63 26.004C357.91 26.004 358.174 25.956 358.422 25.86C358.678 25.756 358.89 25.616 359.058 25.44L359.946 26.244C359.578 26.548 359.202 26.772 358.818 26.916C358.442 27.052 358.026 27.12 357.57 27.12ZM355.842 23.484H358.986C358.938 23.196 358.838 22.94 358.686 22.716C358.542 22.492 358.358 22.316 358.134 22.188C357.918 22.06 357.678 21.996 357.414 21.996C357.15 21.996 356.906 22.06 356.682 22.188C356.466 22.308 356.286 22.48 356.142 22.704C355.998 22.928 355.898 23.188 355.842 23.484ZM367.108 27.108C366.54 27.108 366.024 26.972 365.56 26.7C365.104 26.42 364.74 26.044 364.468 25.572C364.204 25.1 364.072 24.576 364.072 24C364.072 23.416 364.204 22.892 364.468 22.428C364.74 21.956 365.104 21.584 365.56 21.312C366.024 21.032 366.54 20.892 367.108 20.892C367.572 20.892 368.012 20.98 368.428 21.156C368.852 21.332 369.212 21.584 369.508 21.912L368.668 22.788C368.46 22.556 368.228 22.38 367.972 22.26C367.716 22.14 367.444 22.08 367.156 22.08C366.828 22.08 366.532 22.168 366.268 22.344C366.012 22.512 365.808 22.74 365.656 23.028C365.504 23.316 365.428 23.64 365.428 24C365.428 24.36 365.504 24.688 365.656 24.984C365.808 25.272 366.012 25.5 366.268 25.668C366.532 25.836 366.828 25.92 367.156 25.92C367.444 25.92 367.716 25.86 367.972 25.74C368.228 25.62 368.46 25.448 368.668 25.224L369.508 26.088C369.212 26.416 368.852 26.668 368.428 26.844C368.012 27.02 367.572 27.108 367.108 27.108ZM372.453 27.108C372.037 27.108 371.665 27.032 371.337 26.88C371.017 26.72 370.765 26.504 370.581 26.232C370.405 25.952 370.317 25.632 370.317 25.272C370.317 24.912 370.409 24.6 370.593 24.336C370.785 24.072 371.053 23.868 371.397 23.724C371.741 23.58 372.149 23.508 372.621 23.508C372.901 23.508 373.177 23.54 373.449 23.604C373.721 23.66 373.985 23.756 374.241 23.892V23.22C374.241 22.82 374.125 22.52 373.893 22.32C373.669 22.12 373.325 22.02 372.861 22.02C372.613 22.02 372.345 22.06 372.057 22.14C371.777 22.212 371.461 22.328 371.109 22.488L370.629 21.504C371.509 21.096 372.341 20.892 373.125 20.892C373.909 20.892 374.513 21.084 374.937 21.468C375.369 21.844 375.585 22.38 375.585 23.076V27H374.241V26.376C373.985 26.624 373.709 26.808 373.413 26.928C373.117 27.048 372.797 27.108 372.453 27.108ZM371.589 25.248C371.589 25.528 371.701 25.748 371.925 25.908C372.149 26.068 372.449 26.148 372.825 26.148C373.097 26.148 373.349 26.108 373.581 26.028C373.821 25.94 374.041 25.812 374.241 25.644V24.672C374.033 24.576 373.817 24.504 373.593 24.456C373.369 24.408 373.125 24.384 372.861 24.384C372.469 24.384 372.157 24.46 371.925 24.612C371.701 24.764 371.589 24.976 371.589 25.248ZM377.227 29.508V20.988H378.559V21.84C378.775 21.552 379.043 21.332 379.363 21.18C379.691 21.02 380.047 20.94 380.431 20.94C380.943 20.94 381.403 21.076 381.811 21.348C382.219 21.62 382.543 21.988 382.783 22.452C383.023 22.916 383.143 23.432 383.143 24C383.143 24.568 383.019 25.084 382.771 25.548C382.523 26.012 382.187 26.38 381.763 26.652C381.339 26.924 380.867 27.06 380.347 27.06C379.987 27.06 379.655 26.996 379.351 26.868C379.055 26.732 378.799 26.54 378.583 26.292V29.508H377.227ZM380.023 25.932C380.367 25.932 380.671 25.848 380.935 25.68C381.207 25.512 381.419 25.284 381.571 24.996C381.731 24.7 381.811 24.368 381.811 24C381.811 23.632 381.731 23.304 381.571 23.016C381.419 22.728 381.207 22.5 380.935 22.332C380.671 22.164 380.367 22.08 380.023 22.08C379.727 22.08 379.455 22.14 379.207 22.26C378.959 22.372 378.751 22.536 378.583 22.752V25.26C378.759 25.468 378.971 25.632 379.219 25.752C379.467 25.872 379.735 25.932 380.023 25.932ZM386.445 27.108C386.029 27.108 385.657 27.032 385.329 26.88C385.009 26.72 384.757 26.504 384.573 26.232C384.397 25.952 384.309 25.632 384.309 25.272C384.309 24.912 384.401 24.6 384.585 24.336C384.777 24.072 385.045 23.868 385.389 23.724C385.733 23.58 386.141 23.508 386.613 23.508C386.893 23.508 387.169 23.54 387.441 23.604C387.713 23.66 387.977 23.756 388.233 23.892V23.22C388.233 22.82 388.117 22.52 387.885 22.32C387.661 22.12 387.317 22.02 386.853 22.02C386.605 22.02 386.337 22.06 386.049 22.14C385.769 22.212 385.453 22.328 385.101 22.488L384.621 21.504C385.501 21.096 386.333 20.892 387.117 20.892C387.901 20.892 388.505 21.084 388.929 21.468C389.361 21.844 389.577 22.38 389.577 23.076V27H388.233V26.376C387.977 26.624 387.701 26.808 387.405 26.928C387.109 27.048 386.789 27.108 386.445 27.108ZM385.581 25.248C385.581 25.528 385.693 25.748 385.917 25.908C386.141 26.068 386.441 26.148 386.817 26.148C387.089 26.148 387.341 26.108 387.573 26.028C387.813 25.94 388.033 25.812 388.233 25.644V24.672C388.025 24.576 387.809 24.504 387.585 24.456C387.361 24.408 387.117 24.384 386.853 24.384C386.461 24.384 386.149 24.46 385.917 24.612C385.693 24.764 385.581 24.976 385.581 25.248ZM393.979 27.108C393.411 27.108 392.895 26.972 392.431 26.7C391.975 26.42 391.611 26.044 391.339 25.572C391.075 25.1 390.943 24.576 390.943 24C390.943 23.416 391.075 22.892 391.339 22.428C391.611 21.956 391.975 21.584 392.431 21.312C392.895 21.032 393.411 20.892 393.979 20.892C394.443 20.892 394.883 20.98 395.299 21.156C395.723 21.332 396.083 21.584 396.379 21.912L395.539 22.788C395.331 22.556 395.099 22.38 394.843 22.26C394.587 22.14 394.315 22.08 394.027 22.08C393.699 22.08 393.403 22.168 393.139 22.344C392.883 22.512 392.679 22.74 392.527 23.028C392.375 23.316 392.299 23.64 392.299 24C392.299 24.36 392.375 24.688 392.527 24.984C392.679 25.272 392.883 25.5 393.139 25.668C393.403 25.836 393.699 25.92 394.027 25.92C394.315 25.92 394.587 25.86 394.843 25.74C395.099 25.62 395.331 25.448 395.539 25.224L396.379 26.088C396.083 26.416 395.723 26.668 395.299 26.844C394.883 27.02 394.443 27.108 393.979 27.108ZM397.488 27V20.988H398.844V27H397.488ZM398.172 19.764C397.94 19.764 397.74 19.684 397.572 19.524C397.412 19.356 397.332 19.16 397.332 18.936C397.332 18.704 397.412 18.508 397.572 18.348C397.74 18.18 397.94 18.096 398.172 18.096C398.404 18.096 398.6 18.18 398.76 18.348C398.928 18.508 399.012 18.7 399.012 18.924C399.012 19.156 398.928 19.356 398.76 19.524C398.6 19.684 398.404 19.764 398.172 19.764ZM403.116 27.12C402.508 27.12 402.048 26.98 401.736 26.7C401.424 26.412 401.268 25.992 401.268 25.44V22.068H400.068V20.988H401.268V19.332L402.624 19.044V20.988H404.292V22.068H402.624V25.14C402.624 25.436 402.688 25.648 402.816 25.776C402.944 25.896 403.16 25.956 403.464 25.956C403.6 25.956 403.724 25.948 403.836 25.932C403.956 25.908 404.104 25.868 404.28 25.812V26.952C404.112 27.008 403.92 27.048 403.704 27.072C403.496 27.104 403.3 27.12 403.116 27.12ZM406.042 29.628C405.826 29.628 405.602 29.6 405.37 29.544V28.368C405.45 28.384 405.534 28.396 405.622 28.404C405.718 28.412 405.81 28.416 405.898 28.416C406.138 28.416 406.334 28.36 406.486 28.248C406.638 28.136 406.766 27.964 406.87 27.732L407.146 27.06L404.878 20.988H406.378L407.914 25.44L409.582 20.988H411.07L408.19 28.044C408.038 28.428 407.866 28.736 407.674 28.968C407.482 29.2 407.254 29.368 406.99 29.472C406.734 29.576 406.418 29.628 406.042 29.628Z" fill="#151515"/>
<path d="M418.412 22.908L418.436 21.252L417.092 22.128L416.744 21.588L418.16 20.712L416.792 19.848L417.128 19.32L418.424 20.172L418.412 18.6H419.036L419.024 20.16L420.308 19.32L420.668 19.848L419.288 20.712L420.716 21.588L420.356 22.128L419.012 21.252L419.036 22.908H418.412Z" fill="#F4784A"/>
<path d="M322 40.5H363C366.038 40.5 368.5 42.9624 368.5 46V71C368.5 74.0376 366.038 76.5 363 76.5H322C318.962 76.5 316.5 74.0376 316.5 71V46C316.5 42.9624 318.962 40.5 322 40.5Z" fill="white"/>
<path d="M322 40.5H363C366.038 40.5 368.5 42.9624 368.5 46V71C368.5 74.0376 366.038 76.5 363 76.5H322C318.962 76.5 316.5 74.0376 316.5 71V46C316.5 42.9624 318.962 40.5 322 40.5Z" stroke="#C7C7C7"/>
<path fill-rule="evenodd" clip-rule="evenodd" d="M348.143 60.0714C348.616 60.0714 349 59.6876 349 59.2143V58.3571C349 57.8838 348.616 57.5 348.143 57.5H337.857C337.384 57.5 337 57.8838 337 58.3571V59.2143C337 59.6876 337.384 60.0714 337.857 60.0714H348.143Z" fill="#1F1F1F"/>
<g clip-path="url(#clip0_1464_5171)">
<path d="M373 46C373 42.6863 375.686 40 379 40H476C479.314 40 482 42.6863 482 46V71C482 74.3137 479.314 77 476 77H379C375.686 77 373 74.3137 373 71V46Z" fill="white"/>
<path d="M453.942 63V60.382H448.65V59.584L453.858 53.2H454.936V59.5H456.294V60.382H454.936V63H453.942ZM449.826 59.5H453.942V54.418L449.826 59.5ZM461.378 63.154C460.631 63.154 459.968 62.9393 459.39 62.51C458.82 62.0807 458.372 61.488 458.046 60.732C457.719 59.9667 457.556 59.0893 457.556 58.1C457.556 57.1013 457.719 56.224 458.046 55.468C458.372 54.712 458.82 54.1193 459.39 53.69C459.968 53.2607 460.631 53.046 461.378 53.046C462.124 53.046 462.782 53.2607 463.352 53.69C463.93 54.1193 464.383 54.712 464.71 55.468C465.036 56.224 465.2 57.1013 465.2 58.1C465.2 59.0893 465.036 59.9667 464.71 60.732C464.383 61.488 463.93 62.0807 463.352 62.51C462.782 62.9393 462.124 63.154 461.378 63.154ZM461.378 62.244C461.947 62.244 462.437 62.076 462.848 61.74C463.268 61.3947 463.594 60.914 463.828 60.298C464.061 59.6727 464.178 58.94 464.178 58.1C464.178 57.26 464.061 56.532 463.828 55.916C463.594 55.2907 463.268 54.81 462.848 54.474C462.437 54.1287 461.947 53.956 461.378 53.956C460.818 53.956 460.328 54.1287 459.908 54.474C459.488 54.81 459.161 55.2907 458.928 55.916C458.694 56.532 458.578 57.26 458.578 58.1C458.578 58.94 458.694 59.6727 458.928 60.298C459.161 60.914 459.488 61.3947 459.908 61.74C460.328 62.076 460.818 62.244 461.378 62.244Z" fill="#4D4D4D"/>
</g>
<path d="M379 40.5H476C479.038 40.5 481.5 42.9624 481.5 46V71C481.5 74.0376 479.038 76.5 476 76.5H379C375.962 76.5 373.5 74.0376 373.5 71V46C373.5 42.9624 375.962 40.5 379 40.5Z" stroke="#C7C7C7"/>
<path d="M492 40.5H533C536.038 40.5 538.5 42.9624 538.5 46V71C538.5 74.0376 536.038 76.5 533 76.5H492C488.962 76.5 486.5 74.0376 486.5 71V46C486.5 42.9624 488.962 40.5 492 40.5Z" fill="white"/>
<path d="M492 40.5H533C536.038 40.5 538.5 42.9624 538.5 46V71C538.5 74.0376 536.038 76.5 533 76.5H492C488.962 76.5 486.5 74.0376 486.5 71V46C486.5 42.9624 488.962 40.5 492 40.5Z" stroke="#C7C7C7"/>
<path fill-rule="evenodd" clip-rule="evenodd" d="M513.429 65C513.902 65 514.286 64.6162 514.286 64.1429V60.2857H518.143C518.616 60.2857 519 59.9019 519 59.4286V58.5714C519 58.0981 518.616 57.7143 518.143 57.7143H514.286V53.8571C514.286 53.3838 513.902 53 513.429 53H512.571C512.098 53 511.714 53.3838 511.714 53.8571V57.7143H507.857C507.384 57.7143 507 58.0981 507 58.5714V59.4286C507 59.9019 507.384 60.2857 507.857 60.2857H511.714V64.1429C511.714 64.6162 512.098 65 512.571 65H513.429Z" fill="#1F1F1F"/>
<path d="M551.774 63V54.152H548.386V53.2H556.24V54.152H552.852V63H551.774ZM557.881 63V53.2H561.843C562.44 53.2 562.958 53.3027 563.397 53.508C563.845 53.7133 564.19 54.0027 564.433 54.376C564.675 54.7493 564.797 55.188 564.797 55.692C564.797 56.2333 564.638 56.7 564.321 57.092C564.013 57.4747 563.593 57.7453 563.061 57.904C563.714 58.0533 564.227 58.338 564.601 58.758C564.983 59.1687 565.175 59.6773 565.175 60.284C565.175 60.8253 565.044 61.3013 564.783 61.712C564.521 62.1227 564.153 62.44 563.677 62.664C563.201 62.888 562.641 63 561.997 63H557.881ZM558.959 57.484H561.759C562.356 57.484 562.832 57.3347 563.187 57.036C563.541 56.728 563.719 56.3173 563.719 55.804C563.719 55.2907 563.541 54.8847 563.187 54.586C562.832 54.278 562.356 54.124 561.759 54.124H558.959V57.484ZM558.959 62.076H561.885C562.547 62.076 563.079 61.908 563.481 61.572C563.882 61.2267 564.083 60.774 564.083 60.214C564.083 59.654 563.882 59.206 563.481 58.87C563.089 58.534 562.557 58.366 561.885 58.366H558.959V62.076Z" fill="#151515"/>
<path d="M623.816 27.132C623.16 27.132 622.54 27.02 621.956 26.796C621.38 26.564 620.824 26.224 620.288 25.776L621.068 24.72C621.612 25.16 622.096 25.476 622.52 25.668C622.952 25.852 623.412 25.944 623.9 25.944C624.268 25.944 624.592 25.888 624.872 25.776C625.16 25.656 625.38 25.496 625.532 25.296C625.692 25.096 625.772 24.864 625.772 24.6C625.772 24.256 625.656 23.996 625.424 23.82C625.2 23.636 624.808 23.496 624.248 23.4L622.7 23.136C621.972 23.008 621.428 22.764 621.068 22.404C620.716 22.036 620.54 21.568 620.54 21C620.54 20.496 620.668 20.056 620.924 19.68C621.18 19.296 621.536 19 621.992 18.792C622.456 18.576 623.004 18.468 623.636 18.468C624.268 18.468 624.868 18.56 625.436 18.744C626.004 18.928 626.528 19.196 627.008 19.548L626.276 20.628C625.852 20.308 625.416 20.068 624.968 19.908C624.52 19.74 624.06 19.656 623.588 19.656C623.252 19.656 622.956 19.708 622.7 19.812C622.452 19.916 622.256 20.06 622.112 20.244C621.976 20.428 621.908 20.632 621.908 20.856C621.908 21.16 622.008 21.396 622.208 21.564C622.416 21.724 622.748 21.844 623.204 21.924L624.704 22.176C625.552 22.328 626.176 22.592 626.576 22.968C626.984 23.344 627.188 23.852 627.188 24.492C627.188 25.004 627.044 25.46 626.756 25.86C626.476 26.26 626.084 26.572 625.58 26.796C625.076 27.02 624.488 27.132 623.816 27.132ZM630.897 27.12C630.289 27.12 629.829 26.98 629.517 26.7C629.205 26.412 629.049 25.992 629.049 25.44V22.068H627.849V20.988H629.049V19.332L630.405 19.044V20.988H632.073V22.068H630.405V25.14C630.405 25.436 630.469 25.648 630.597 25.776C630.725 25.896 630.941 25.956 631.245 25.956C631.381 25.956 631.505 25.948 631.617 25.932C631.737 25.908 631.885 25.868 632.061 25.812V26.952C631.893 27.008 631.701 27.048 631.485 27.072C631.277 27.104 631.081 27.12 630.897 27.12ZM635.928 27.108C635.36 27.108 634.844 26.972 634.38 26.7C633.924 26.428 633.564 26.06 633.3 25.596C633.036 25.124 632.904 24.592 632.904 24C632.904 23.408 633.036 22.88 633.3 22.416C633.564 21.944 633.924 21.572 634.38 21.3C634.836 21.028 635.352 20.892 635.928 20.892C636.504 20.892 637.016 21.028 637.464 21.3C637.92 21.572 638.28 21.944 638.544 22.416C638.808 22.88 638.94 23.408 638.94 24C638.94 24.592 638.808 25.124 638.544 25.596C638.28 26.06 637.92 26.428 637.464 26.7C637.016 26.972 636.504 27.108 635.928 27.108ZM635.928 25.956C636.256 25.956 636.544 25.872 636.792 25.704C637.048 25.536 637.248 25.304 637.392 25.008C637.536 24.704 637.608 24.368 637.608 24C637.608 23.624 637.536 23.292 637.392 23.004C637.248 22.708 637.048 22.476 636.792 22.308C636.544 22.132 636.256 22.044 635.928 22.044C635.6 22.044 635.308 22.132 635.052 22.308C634.796 22.476 634.596 22.708 634.452 23.004C634.308 23.292 634.236 23.624 634.236 24C634.236 24.376 634.308 24.712 634.452 25.008C634.596 25.304 634.796 25.536 635.052 25.704C635.308 25.872 635.6 25.956 635.928 25.956ZM640.34 27V20.988H641.696V22.284C641.872 21.828 642.1 21.48 642.38 21.24C642.66 21 642.984 20.88 643.352 20.88C643.464 20.888 643.564 20.9 643.652 20.916C643.74 20.924 643.836 20.952 643.94 21V22.188C643.836 22.14 643.716 22.104 643.58 22.08C643.452 22.056 643.324 22.044 643.196 22.044C642.868 22.044 642.572 22.132 642.308 22.308C642.052 22.484 641.848 22.728 641.696 23.04V27H640.34ZM646.687 27.108C646.271 27.108 645.899 27.032 645.571 26.88C645.251 26.72 644.999 26.504 644.815 26.232C644.639 25.952 644.551 25.632 644.551 25.272C644.551 24.912 644.643 24.6 644.827 24.336C645.019 24.072 645.287 23.868 645.631 23.724C645.975 23.58 646.383 23.508 646.855 23.508C647.135 23.508 647.411 23.54 647.683 23.604C647.955 23.66 648.219 23.756 648.475 23.892V23.22C648.475 22.82 648.359 22.52 648.127 22.32C647.903 22.12 647.559 22.02 647.095 22.02C646.847 22.02 646.579 22.06 646.291 22.14C646.011 22.212 645.695 22.328 645.343 22.488L644.863 21.504C645.743 21.096 646.575 20.892 647.359 20.892C648.143 20.892 648.747 21.084 649.171 21.468C649.603 21.844 649.819 22.38 649.819 23.076V27H648.475V26.376C648.219 26.624 647.943 26.808 647.647 26.928C647.351 27.048 647.031 27.108 646.687 27.108ZM645.823 25.248C645.823 25.528 645.935 25.748 646.159 25.908C646.383 26.068 646.683 26.148 647.059 26.148C647.331 26.148 647.583 26.108 647.815 26.028C648.055 25.94 648.275 25.812 648.475 25.644V24.672C648.267 24.576 648.051 24.504 647.827 24.456C647.603 24.408 647.359 24.384 647.095 24.384C646.703 24.384 646.391 24.46 646.159 24.612C645.935 24.764 645.823 24.976 645.823 25.248ZM654.269 29.628C653.845 29.628 653.425 29.576 653.009 29.472C652.593 29.368 652.209 29.224 651.857 29.04L652.325 28.044C652.685 28.212 653.013 28.336 653.309 28.416C653.613 28.504 653.913 28.548 654.209 28.548C654.713 28.548 655.093 28.436 655.349 28.212C655.613 27.988 655.745 27.656 655.745 27.216V26.196C655.529 26.46 655.261 26.668 654.941 26.82C654.621 26.964 654.273 27.036 653.897 27.036C653.393 27.036 652.937 26.9 652.529 26.628C652.121 26.348 651.793 25.98 651.545 25.524C651.305 25.06 651.185 24.544 651.185 23.976C651.185 23.408 651.309 22.896 651.557 22.44C651.805 21.984 652.141 21.62 652.565 21.348C652.997 21.076 653.473 20.94 653.993 20.94C654.345 20.94 654.673 21.008 654.977 21.144C655.281 21.28 655.541 21.48 655.757 21.744V20.988H657.101V27.216C657.101 27.992 656.857 28.588 656.369 29.004C655.881 29.42 655.181 29.628 654.269 29.628ZM654.317 25.908C654.605 25.908 654.873 25.852 655.121 25.74C655.369 25.62 655.577 25.456 655.745 25.248V22.728C655.569 22.52 655.357 22.36 655.109 22.248C654.861 22.136 654.597 22.08 654.317 22.08C653.973 22.08 653.665 22.164 653.393 22.332C653.129 22.492 652.917 22.716 652.757 23.004C652.597 23.284 652.517 23.612 652.517 23.988C652.517 24.348 652.597 24.676 652.757 24.972C652.917 25.26 653.129 25.488 653.393 25.656C653.665 25.824 653.973 25.908 654.317 25.908ZM661.57 27.12C660.994 27.12 660.474 26.984 660.01 26.712C659.546 26.432 659.178 26.06 658.906 25.596C658.634 25.124 658.498 24.592 658.498 24C658.498 23.408 658.626 22.88 658.882 22.416C659.138 21.952 659.486 21.584 659.926 21.312C660.374 21.032 660.87 20.892 661.414 20.892C661.974 20.892 662.466 21.028 662.89 21.3C663.322 21.572 663.658 21.94 663.898 22.404C664.146 22.868 664.27 23.4 664.27 24V24.324H659.83C659.878 24.652 659.982 24.944 660.142 25.2C660.31 25.448 660.522 25.644 660.778 25.788C661.042 25.932 661.326 26.004 661.63 26.004C661.91 26.004 662.174 25.956 662.422 25.86C662.678 25.756 662.89 25.616 663.058 25.44L663.946 26.244C663.578 26.548 663.202 26.772 662.818 26.916C662.442 27.052 662.026 27.12 661.57 27.12ZM659.842 23.484H662.986C662.938 23.196 662.838 22.94 662.686 22.716C662.542 22.492 662.358 22.316 662.134 22.188C661.918 22.06 661.678 21.996 661.414 21.996C661.15 21.996 660.906 22.06 660.682 22.188C660.466 22.308 660.286 22.48 660.142 22.704C659.998 22.928 659.898 23.188 659.842 23.484ZM671.108 27.108C670.54 27.108 670.024 26.972 669.56 26.7C669.104 26.42 668.74 26.044 668.468 25.572C668.204 25.1 668.072 24.576 668.072 24C668.072 23.416 668.204 22.892 668.468 22.428C668.74 21.956 669.104 21.584 669.56 21.312C670.024 21.032 670.54 20.892 671.108 20.892C671.572 20.892 672.012 20.98 672.428 21.156C672.852 21.332 673.212 21.584 673.508 21.912L672.668 22.788C672.46 22.556 672.228 22.38 671.972 22.26C671.716 22.14 671.444 22.08 671.156 22.08C670.828 22.08 670.532 22.168 670.268 22.344C670.012 22.512 669.808 22.74 669.656 23.028C669.504 23.316 669.428 23.64 669.428 24C669.428 24.36 669.504 24.688 669.656 24.984C669.808 25.272 670.012 25.5 670.268 25.668C670.532 25.836 670.828 25.92 671.156 25.92C671.444 25.92 671.716 25.86 671.972 25.74C672.228 25.62 672.46 25.448 672.668 25.224L673.508 26.088C673.212 26.416 672.852 26.668 672.428 26.844C672.012 27.02 671.572 27.108 671.108 27.108ZM676.453 27.108C676.037 27.108 675.665 27.032 675.337 26.88C675.017 26.72 674.765 26.504 674.581 26.232C674.405 25.952 674.317 25.632 674.317 25.272C674.317 24.912 674.409 24.6 674.593 24.336C674.785 24.072 675.053 23.868 675.397 23.724C675.741 23.58 676.149 23.508 676.621 23.508C676.901 23.508 677.177 23.54 677.449 23.604C677.721 23.66 677.985 23.756 678.241 23.892V23.22C678.241 22.82 678.125 22.52 677.893 22.32C677.669 22.12 677.325 22.02 676.861 22.02C676.613 22.02 676.345 22.06 676.057 22.14C675.777 22.212 675.461 22.328 675.109 22.488L674.629 21.504C675.509 21.096 676.341 20.892 677.125 20.892C677.909 20.892 678.513 21.084 678.937 21.468C679.369 21.844 679.585 22.38 679.585 23.076V27H678.241V26.376C677.985 26.624 677.709 26.808 677.413 26.928C677.117 27.048 676.797 27.108 676.453 27.108ZM675.589 25.248C675.589 25.528 675.701 25.748 675.925 25.908C676.149 26.068 676.449 26.148 676.825 26.148C677.097 26.148 677.349 26.108 677.581 26.028C677.821 25.94 678.041 25.812 678.241 25.644V24.672C678.033 24.576 677.817 24.504 677.593 24.456C677.369 24.408 677.125 24.384 676.861 24.384C676.469 24.384 676.157 24.46 675.925 24.612C675.701 24.764 675.589 24.976 675.589 25.248ZM681.227 29.508V20.988H682.559V21.84C682.775 21.552 683.043 21.332 683.363 21.18C683.691 21.02 684.047 20.94 684.431 20.94C684.943 20.94 685.403 21.076 685.811 21.348C686.219 21.62 686.543 21.988 686.783 22.452C687.023 22.916 687.143 23.432 687.143 24C687.143 24.568 687.019 25.084 686.771 25.548C686.523 26.012 686.187 26.38 685.763 26.652C685.339 26.924 684.867 27.06 684.347 27.06C683.987 27.06 683.655 26.996 683.351 26.868C683.055 26.732 682.799 26.54 682.583 26.292V29.508H681.227ZM684.023 25.932C684.367 25.932 684.671 25.848 684.935 25.68C685.207 25.512 685.419 25.284 685.571 24.996C685.731 24.7 685.811 24.368 685.811 24C685.811 23.632 685.731 23.304 685.571 23.016C685.419 22.728 685.207 22.5 684.935 22.332C684.671 22.164 684.367 22.08 684.023 22.08C683.727 22.08 683.455 22.14 683.207 22.26C682.959 22.372 682.751 22.536 682.583 22.752V25.26C682.759 25.468 682.971 25.632 683.219 25.752C683.467 25.872 683.735 25.932 684.023 25.932ZM690.445 27.108C690.029 27.108 689.657 27.032 689.329 26.88C689.009 26.72 688.757 26.504 688.573 26.232C688.397 25.952 688.309 25.632 688.309 25.272C688.309 24.912 688.401 24.6 688.585 24.336C688.777 24.072 689.045 23.868 689.389 23.724C689.733 23.58 690.141 23.508 690.613 23.508C690.893 23.508 691.169 23.54 691.441 23.604C691.713 23.66 691.977 23.756 692.233 23.892V23.22C692.233 22.82 692.117 22.52 691.885 22.32C691.661 22.12 691.317 22.02 690.853 22.02C690.605 22.02 690.337 22.06 690.049 22.14C689.769 22.212 689.453 22.328 689.101 22.488L688.621 21.504C689.501 21.096 690.333 20.892 691.117 20.892C691.901 20.892 692.505 21.084 692.929 21.468C693.361 21.844 693.577 22.38 693.577 23.076V27H692.233V26.376C691.977 26.624 691.701 26.808 691.405 26.928C691.109 27.048 690.789 27.108 690.445 27.108ZM689.581 25.248C689.581 25.528 689.693 25.748 689.917 25.908C690.141 26.068 690.441 26.148 690.817 26.148C691.089 26.148 691.341 26.108 691.573 26.028C691.813 25.94 692.033 25.812 692.233 25.644V24.672C692.025 24.576 691.809 24.504 691.585 24.456C691.361 24.408 691.117 24.384 690.853 24.384C690.461 24.384 690.149 24.46 689.917 24.612C689.693 24.764 689.581 24.976 689.581 25.248ZM697.979 27.108C697.411 27.108 696.895 26.972 696.431 26.7C695.975 26.42 695.611 26.044 695.339 25.572C695.075 25.1 694.943 24.576 694.943 24C694.943 23.416 695.075 22.892 695.339 22.428C695.611 21.956 695.975 21.584 696.431 21.312C696.895 21.032 697.411 20.892 697.979 20.892C698.443 20.892 698.883 20.98 699.299 21.156C699.723 21.332 700.083 21.584 700.379 21.912L699.539 22.788C699.331 22.556 699.099 22.38 698.843 22.26C698.587 22.14 698.315 22.08 698.027 22.08C697.699 22.08 697.403 22.168 697.139 22.344C696.883 22.512 696.679 22.74 696.527 23.028C696.375 23.316 696.299 23.64 696.299 24C696.299 24.36 696.375 24.688 696.527 24.984C696.679 25.272 696.883 25.5 697.139 25.668C697.403 25.836 697.699 25.92 698.027 25.92C698.315 25.92 698.587 25.86 698.843 25.74C699.099 25.62 699.331 25.448 699.539 25.224L700.379 26.088C700.083 26.416 699.723 26.668 699.299 26.844C698.883 27.02 698.443 27.108 697.979 27.108ZM701.488 27V20.988H702.844V27H701.488ZM702.172 19.764C701.94 19.764 701.74 19.684 701.572 19.524C701.412 19.356 701.332 19.16 701.332 18.936C701.332 18.704 701.412 18.508 701.572 18.348C701.74 18.18 701.94 18.096 702.172 18.096C702.404 18.096 702.6 18.18 702.76 18.348C702.928 18.508 703.012 18.7 703.012 18.924C703.012 19.156 702.928 19.356 702.76 19.524C702.6 19.684 702.404 19.764 702.172 19.764ZM707.116 27.12C706.508 27.12 706.048 26.98 705.736 26.7C705.424 26.412 705.268 25.992 705.268 25.44V22.068H704.068V20.988H705.268V19.332L706.624 19.044V20.988H708.292V22.068H706.624V25.14C706.624 25.436 706.688 25.648 706.816 25.776C706.944 25.896 707.16 25.956 707.464 25.956C707.6 25.956 707.724 25.948 707.836 25.932C707.956 25.908 708.104 25.868 708.28 25.812V26.952C708.112 27.008 707.92 27.048 707.704 27.072C707.496 27.104 707.3 27.12 707.116 27.12ZM710.042 29.628C709.826 29.628 709.602 29.6 709.37 29.544V28.368C709.45 28.384 709.534 28.396 709.622 28.404C709.718 28.412 709.81 28.416 709.898 28.416C710.138 28.416 710.334 28.36 710.486 28.248C710.638 28.136 710.766 27.964 710.87 27.732L711.146 27.06L708.878 20.988H710.378L711.914 25.44L713.582 20.988H715.07L712.19 28.044C712.038 28.428 711.866 28.736 711.674 28.968C711.482 29.2 711.254 29.368 710.99 29.472C710.734 29.576 710.418 29.628 710.042 29.628Z" fill="#151515"/>
<path d="M722.412 22.908L722.436 21.252L721.092 22.128L720.744 21.588L722.16 20.712L720.792 19.848L721.128 19.32L722.424 20.172L722.412 18.6H723.036L723.024 20.16L724.308 19.32L724.668 19.848L723.288 20.712L724.716 21.588L724.356 22.128L723.012 21.252L723.036 22.908H722.412Z" fill="#F4784A"/>
<path d="M620 46C620 42.6863 622.686 40 626 40H667C670.314 40 673 42.6863 673 46V71C673 74.3137 670.314 77 667 77H626C622.686 77 620 74.3137 620 71V46Z" fill="#C7C7C7"/>
<path fill-rule="evenodd" clip-rule="evenodd" d="M652.143 60.0714C652.616 60.0714 653 59.6876 653 59.2143V58.3571C653 57.8838 652.616 57.5 652.143 57.5H641.857C641.384 57.5 641 57.8838 641 58.3571V59.2143C641 59.6876 641.384 60.0714 641.857 60.0714H652.143Z" fill="#4D4D4D"/>
<path d="M677 46C677 42.6863 679.686 40 683 40H807C810.314 40 813 42.6863 813 46V71C813 74.3137 810.314 77 807 77H683C679.686 77 677 74.3137 677 71V46Z" fill="#C7C7C7"/>
<path d="M784.838 63V60.382H779.546V59.584L784.754 53.2H785.832V59.5H787.19V60.382H785.832V63H784.838ZM780.722 59.5H784.838V54.418L780.722 59.5ZM792.274 63.154C791.528 63.154 790.865 62.9393 790.286 62.51C789.717 62.0807 789.269 61.488 788.942 60.732C788.616 59.9667 788.452 59.0893 788.452 58.1C788.452 57.1013 788.616 56.224 788.942 55.468C789.269 54.712 789.717 54.1193 790.286 53.69C790.865 53.2607 791.528 53.046 792.274 53.046C793.021 53.046 793.679 53.2607 794.248 53.69C794.827 54.1193 795.28 54.712 795.606 55.468C795.933 56.224 796.096 57.1013 796.096 58.1C796.096 59.0893 795.933 59.9667 795.606 60.732C795.28 61.488 794.827 62.0807 794.248 62.51C793.679 62.9393 793.021 63.154 792.274 63.154ZM792.274 62.244C792.844 62.244 793.334 62.076 793.744 61.74C794.164 61.3947 794.491 60.914 794.724 60.298C794.958 59.6727 795.074 58.94 795.074 58.1C795.074 57.26 794.958 56.532 794.724 55.916C794.491 55.2907 794.164 54.81 793.744 54.474C793.334 54.1287 792.844 53.956 792.274 53.956C791.714 53.956 791.224 54.1287 790.804 54.474C790.384 54.81 790.058 55.2907 789.824 55.916C789.591 56.532 789.474 57.26 789.474 58.1C789.474 58.94 789.591 59.6727 789.824 60.298C790.058 60.914 790.384 61.3947 790.804 61.74C791.224 62.076 791.714 62.244 792.274 62.244Z" fill="#4D4D4D"/>
<path d="M817 46C817 42.6863 819.686 40 823 40H864C867.314 40 870 42.6863 870 46V71C870 74.3137 867.314 77 864 77H823C819.686 77 817 74.3137 817 71V46Z" fill="#C7C7C7"/>
<path fill-rule="evenodd" clip-rule="evenodd" d="M844.429 65C844.902 65 845.286 64.6162 845.286 64.1429V60.2857H849.143C849.616 60.2857 850 59.9019 850 59.4286V58.5714C850 58.0981 849.616 57.7143 849.143 57.7143H845.286V53.8571C845.286 53.3838 844.902 53 844.429 53H843.571C843.098 53 842.714 53.3838 842.714 53.8571V57.7143H838.857C838.384 57.7143 838 58.0981 838 58.5714V59.4286C838 59.9019 838.384 60.2857 838.857 60.2857H842.714V64.1429C842.714 64.6162 843.098 65 843.571 65H844.429Z" fill="#4D4D4D"/>
<path d="M13.008 27V18.6H14.412L18.792 24.708L18.768 18.6H20.124V27H18.84L14.34 20.724L14.364 27H13.008ZM24.0209 27.096C23.6049 27.096 23.2409 27.004 22.9289 26.82C22.6169 26.636 22.3689 26.384 22.1849 26.064C22.0089 25.744 21.9209 25.372 21.9209 24.948V20.988H23.2889V24.552C23.2889 25 23.4049 25.356 23.6369 25.62C23.8769 25.876 24.2009 26.004 24.6089 26.004C24.8809 26.004 25.1249 25.944 25.3409 25.824C25.5649 25.704 25.7569 25.524 25.9169 25.284V20.988H27.2729V27H25.9169V26.028C25.6849 26.38 25.4089 26.648 25.0889 26.832C24.7689 27.008 24.4129 27.096 24.0209 27.096ZM28.9533 27V20.988H30.3093V21.936C30.5333 21.592 30.7933 21.332 31.0893 21.156C31.3933 20.98 31.7253 20.892 32.0853 20.892C32.5013 20.892 32.8613 20.996 33.1653 21.204C33.4773 21.412 33.7093 21.692 33.8613 22.044C34.1013 21.668 34.3853 21.384 34.7133 21.192C35.0493 20.992 35.4293 20.892 35.8533 20.892C36.2373 20.892 36.5773 20.984 36.8733 21.168C37.1773 21.352 37.4093 21.608 37.5693 21.936C37.7373 22.264 37.8213 22.64 37.8213 23.064V27H36.4653V23.364C36.4653 22.94 36.3573 22.604 36.1413 22.356C35.9253 22.108 35.6293 21.984 35.2533 21.984C35.0133 21.984 34.7893 22.044 34.5813 22.164C34.3813 22.284 34.2053 22.464 34.0533 22.704C34.0613 22.76 34.0653 22.82 34.0653 22.884C34.0733 22.94 34.0773 23 34.0773 23.064V27H32.7093V23.364C32.7093 22.94 32.6013 22.604 32.3853 22.356C32.1693 22.108 31.8733 21.984 31.4973 21.984C31.0093 21.984 30.6133 22.216 30.3093 22.68V27H28.9533ZM39.465 27V18.432L40.821 18.204V21.792C41.037 21.52 41.301 21.312 41.613 21.168C41.933 21.016 42.285 20.94 42.669 20.94C43.181 20.94 43.641 21.076 44.049 21.348C44.457 21.62 44.781 21.988 45.021 22.452C45.261 22.916 45.381 23.432 45.381 24C45.381 24.568 45.257 25.084 45.009 25.548C44.761 26.012 44.425 26.38 44.001 26.652C43.577 26.924 43.105 27.06 42.585 27.06C42.225 27.06 41.893 26.988 41.589 26.844C41.285 26.7 41.021 26.496 40.797 26.232V27H39.465ZM42.261 25.932C42.605 25.932 42.909 25.848 43.173 25.68C43.445 25.512 43.657 25.284 43.809 24.996C43.969 24.7 44.049 24.368 44.049 24C44.049 23.632 43.969 23.304 43.809 23.016C43.657 22.728 43.445 22.5 43.173 22.332C42.909 22.164 42.605 22.08 42.261 22.08C41.965 22.08 41.693 22.14 41.445 22.26C41.197 22.372 40.989 22.536 40.821 22.752V25.26C40.997 25.468 41.209 25.632 41.457 25.752C41.705 25.872 41.973 25.932 42.261 25.932ZM49.5969 27.12C49.0209 27.12 48.5009 26.984 48.0369 26.712C47.5729 26.432 47.2049 26.06 46.9329 25.596C46.6609 25.124 46.5249 24.592 46.5249 24C46.5249 23.408 46.6529 22.88 46.9089 22.416C47.1649 21.952 47.5129 21.584 47.9529 21.312C48.4009 21.032 48.8969 20.892 49.4409 20.892C50.0009 20.892 50.4929 21.028 50.9169 21.3C51.3489 21.572 51.6849 21.94 51.9249 22.404C52.1729 22.868 52.2969 23.4 52.2969 24V24.324H47.8569C47.9049 24.652 48.0089 24.944 48.1689 25.2C48.3369 25.448 48.5489 25.644 48.8049 25.788C49.0689 25.932 49.3529 26.004 49.6569 26.004C49.9369 26.004 50.2009 25.956 50.4489 25.86C50.7049 25.756 50.9169 25.616 51.0849 25.44L51.9729 26.244C51.6049 26.548 51.2289 26.772 50.8449 26.916C50.4689 27.052 50.0529 27.12 49.5969 27.12ZM47.8689 23.484H51.0129C50.9649 23.196 50.8649 22.94 50.7129 22.716C50.5689 22.492 50.3849 22.316 50.1609 22.188C49.9449 22.06 49.7049 21.996 49.4409 21.996C49.1769 21.996 48.9329 22.06 48.7089 22.188C48.4929 22.308 48.3129 22.48 48.1689 22.704C48.0249 22.928 47.9249 23.188 47.8689 23.484ZM53.6798 27V20.988H55.0358V22.284C55.2118 21.828 55.4398 21.48 55.7198 21.24C55.9998 21 56.3238 20.88 56.6918 20.88C56.8038 20.888 56.9038 20.9 56.9918 20.916C57.0798 20.924 57.1758 20.952 57.2798 21V22.188C57.1758 22.14 57.0558 22.104 56.9198 22.08C56.7918 22.056 56.6638 22.044 56.5358 22.044C56.2078 22.044 55.9118 22.132 55.6478 22.308C55.3918 22.484 55.1878 22.728 55.0358 23.04V27H53.6798ZM63.8341 27.108C63.2661 27.108 62.7501 26.972 62.2861 26.7C61.8301 26.428 61.4701 26.06 61.2061 25.596C60.9421 25.124 60.8101 24.592 60.8101 24C60.8101 23.408 60.9421 22.88 61.2061 22.416C61.4701 21.944 61.8301 21.572 62.2861 21.3C62.7421 21.028 63.2581 20.892 63.8341 20.892C64.4101 20.892 64.9221 21.028 65.3701 21.3C65.8261 21.572 66.1861 21.944 66.4501 22.416C66.7141 22.88 66.8461 23.408 66.8461 24C66.8461 24.592 66.7141 25.124 66.4501 25.596C66.1861 26.06 65.8261 26.428 65.3701 26.7C64.9221 26.972 64.4101 27.108 63.8341 27.108ZM63.8341 25.956C64.1621 25.956 64.4501 25.872 64.6981 25.704C64.9541 25.536 65.1541 25.304 65.2981 25.008C65.4421 24.704 65.5141 24.368 65.5141 24C65.5141 23.624 65.4421 23.292 65.2981 23.004C65.1541 22.708 64.9541 22.476 64.6981 22.308C64.4501 22.132 64.1621 22.044 63.8341 22.044C63.5061 22.044 63.2141 22.132 62.9581 22.308C62.7021 22.476 62.5021 22.708 62.3581 23.004C62.2141 23.292 62.1421 23.624 62.1421 24C62.1421 24.376 62.2141 24.712 62.3581 25.008C62.5021 25.304 62.7021 25.536 62.9581 25.704C63.2141 25.872 63.5061 25.956 63.8341 25.956ZM68.781 27V22.068H67.485V20.988H68.781V19.956C68.781 19.308 68.957 18.812 69.309 18.468C69.669 18.116 70.185 17.94 70.857 17.94C71.025 17.94 71.189 17.948 71.349 17.964C71.509 17.98 71.645 18.008 71.757 18.048V19.2C71.605 19.168 71.477 19.148 71.373 19.14C71.269 19.124 71.157 19.116 71.037 19.116C70.725 19.116 70.497 19.184 70.353 19.32C70.209 19.456 70.137 19.676 70.137 19.98V20.988H71.757V22.068H70.137V27H68.781ZM77.6339 27.12C77.1219 27.12 76.6419 27.052 76.1939 26.916C75.7539 26.772 75.3739 26.568 75.0539 26.304L75.6899 25.404C76.0899 25.652 76.4339 25.828 76.7219 25.932C77.0179 26.036 77.3179 26.088 77.6219 26.088C77.9819 26.088 78.2739 26.012 78.4979 25.86C78.7219 25.708 78.8339 25.512 78.8339 25.272C78.8339 25.088 78.7659 24.944 78.6299 24.84C78.5019 24.728 78.2899 24.644 77.9939 24.588L76.9379 24.408C76.3539 24.296 75.9179 24.104 75.6299 23.832C75.3419 23.56 75.1979 23.2 75.1979 22.752C75.1979 22.376 75.2939 22.052 75.4859 21.78C75.6859 21.5 75.9579 21.284 76.3019 21.132C76.6539 20.972 77.0619 20.892 77.5259 20.892C77.9419 20.892 78.3459 20.952 78.7379 21.072C79.1299 21.192 79.5139 21.372 79.8899 21.612L79.2539 22.512C78.9499 22.312 78.6459 22.168 78.3419 22.08C78.0459 21.984 77.7459 21.936 77.4419 21.936C77.1299 21.936 76.8779 22 76.6859 22.128C76.5019 22.248 76.4099 22.416 76.4099 22.632C76.4099 22.824 76.4699 22.972 76.5899 23.076C76.7179 23.172 76.9379 23.244 77.2499 23.292L78.3179 23.496C78.9179 23.6 79.3619 23.792 79.6499 24.072C79.9459 24.344 80.0939 24.708 80.0939 25.164C80.0939 25.532 79.9859 25.864 79.7699 26.16C79.5539 26.456 79.2619 26.692 78.8939 26.868C78.5259 27.036 78.1059 27.12 77.6339 27.12ZM83.8109 27.12C83.2029 27.12 82.7429 26.98 82.4309 26.7C82.1189 26.412 81.9629 25.992 81.9629 25.44V22.068H80.7629V20.988H81.9629V19.332L83.3189 19.044V20.988H84.9869V22.068H83.3189V25.14C83.3189 25.436 83.3829 25.648 83.5109 25.776C83.6389 25.896 83.8549 25.956 84.1589 25.956C84.2949 25.956 84.4189 25.948 84.5309 25.932C84.6509 25.908 84.7989 25.868 84.9749 25.812V26.952C84.8069 27.008 84.6149 27.048 84.3989 27.072C84.1909 27.104 83.9949 27.12 83.8109 27.12ZM88.8419 27.108C88.2739 27.108 87.7579 26.972 87.2939 26.7C86.8379 26.428 86.4779 26.06 86.2139 25.596C85.9499 25.124 85.8179 24.592 85.8179 24C85.8179 23.408 85.9499 22.88 86.2139 22.416C86.4779 21.944 86.8379 21.572 87.2939 21.3C87.7499 21.028 88.2659 20.892 88.8419 20.892C89.4179 20.892 89.9299 21.028 90.3779 21.3C90.8339 21.572 91.1939 21.944 91.4579 22.416C91.7219 22.88 91.8539 23.408 91.8539 24C91.8539 24.592 91.7219 25.124 91.4579 25.596C91.1939 26.06 90.8339 26.428 90.3779 26.7C89.9299 26.972 89.4179 27.108 88.8419 27.108ZM88.8419 25.956C89.1699 25.956 89.4579 25.872 89.7059 25.704C89.9619 25.536 90.1619 25.304 90.3059 25.008C90.4499 24.704 90.5219 24.368 90.5219 24C90.5219 23.624 90.4499 23.292 90.3059 23.004C90.1619 22.708 89.9619 22.476 89.7059 22.308C89.4579 22.132 89.1699 22.044 88.8419 22.044C88.5139 22.044 88.2219 22.132 87.9659 22.308C87.7099 22.476 87.5099 22.708 87.3659 23.004C87.2219 23.292 87.1499 23.624 87.1499 24C87.1499 24.376 87.2219 24.712 87.3659 25.008C87.5099 25.304 87.7099 25.536 87.9659 25.704C88.2219 25.872 88.5139 25.956 88.8419 25.956ZM93.2541 27V20.988H94.6101V22.284C94.7861 21.828 95.0141 21.48 95.2941 21.24C95.5741 21 95.8981 20.88 96.2661 20.88C96.3781 20.888 96.4781 20.9 96.5661 20.916C96.6541 20.924 96.7501 20.952 96.8541 21V22.188C96.7501 22.14 96.6301 22.104 96.4941 22.08C96.3661 22.056 96.2381 22.044 96.1101 22.044C95.7821 22.044 95.4861 22.132 95.2221 22.308C94.9661 22.484 94.7621 22.728 94.6101 23.04V27H93.2541ZM99.6015 27.108C99.1855 27.108 98.8135 27.032 98.4855 26.88C98.1655 26.72 97.9135 26.504 97.7295 26.232C97.5535 25.952 97.4655 25.632 97.4655 25.272C97.4655 24.912 97.5575 24.6 97.7415 24.336C97.9335 24.072 98.2015 23.868 98.5455 23.724C98.8895 23.58 99.2975 23.508 99.7695 23.508C100.05 23.508 100.326 23.54 100.598 23.604C100.87 23.66 101.134 23.756 101.39 23.892V23.22C101.39 22.82 101.274 22.52 101.042 22.32C100.818 22.12 100.474 22.02 100.01 22.02C99.7615 22.02 99.4935 22.06 99.2055 22.14C98.9255 22.212 98.6095 22.328 98.2575 22.488L97.7775 21.504C98.6575 21.096 99.4895 20.892 100.274 20.892C101.058 20.892 101.662 21.084 102.086 21.468C102.518 21.844 102.734 22.38 102.734 23.076V27H101.39V26.376C101.134 26.624 100.858 26.808 100.562 26.928C100.266 27.048 99.9455 27.108 99.6015 27.108ZM98.7375 25.248C98.7375 25.528 98.8495 25.748 99.0735 25.908C99.2975 26.068 99.5975 26.148 99.9735 26.148C100.246 26.148 100.498 26.108 100.73 26.028C100.97 25.94 101.19 25.812 101.39 25.644V24.672C101.182 24.576 100.966 24.504 100.742 24.456C100.518 24.408 100.274 24.384 100.01 24.384C99.6175 24.384 99.3055 24.46 99.0735 24.612C98.8495 24.764 98.7375 24.976 98.7375 25.248ZM107.183 29.628C106.759 29.628 106.339 29.576 105.923 29.472C105.507 29.368 105.123 29.224 104.771 29.04L105.239 28.044C105.599 28.212 105.927 28.336 106.223 28.416C106.527 28.504 106.827 28.548 107.123 28.548C107.627 28.548 108.007 28.436 108.263 28.212C108.527 27.988 108.659 27.656 108.659 27.216V26.196C108.443 26.46 108.175 26.668 107.855 26.82C107.535 26.964 107.187 27.036 106.811 27.036C106.307 27.036 105.851 26.9 105.443 26.628C105.035 26.348 104.707 25.98 104.459 25.524C104.219 25.06 104.099 24.544 104.099 23.976C104.099 23.408 104.223 22.896 104.471 22.44C104.719 21.984 105.055 21.62 105.479 21.348C105.911 21.076 106.387 20.94 106.907 20.94C107.259 20.94 107.587 21.008 107.891 21.144C108.195 21.28 108.455 21.48 108.671 21.744V20.988H110.015V27.216C110.015 27.992 109.771 28.588 109.283 29.004C108.795 29.42 108.095 29.628 107.183 29.628ZM107.231 25.908C107.519 25.908 107.787 25.852 108.035 25.74C108.283 25.62 108.491 25.456 108.659 25.248V22.728C108.483 22.52 108.271 22.36 108.023 22.248C107.775 22.136 107.511 22.08 107.231 22.08C106.887 22.08 106.579 22.164 106.307 22.332C106.043 22.492 105.831 22.716 105.671 23.004C105.511 23.284 105.431 23.612 105.431 23.988C105.431 24.348 105.511 24.676 105.671 24.972C105.831 25.26 106.043 25.488 106.307 25.656C106.579 25.824 106.887 25.908 107.231 25.908ZM114.484 27.12C113.908 27.12 113.388 26.984 112.924 26.712C112.46 26.432 112.092 26.06 111.82 25.596C111.548 25.124 111.412 24.592 111.412 24C111.412 23.408 111.54 22.88 111.796 22.416C112.052 21.952 112.4 21.584 112.84 21.312C113.288 21.032 113.784 20.892 114.328 20.892C114.888 20.892 115.38 21.028 115.804 21.3C116.236 21.572 116.572 21.94 116.812 22.404C117.06 22.868 117.184 23.4 117.184 24V24.324H112.744C112.792 24.652 112.896 24.944 113.056 25.2C113.224 25.448 113.436 25.644 113.692 25.788C113.956 25.932 114.24 26.004 114.544 26.004C114.824 26.004 115.088 25.956 115.336 25.86C115.592 25.756 115.804 25.616 115.972 25.44L116.86 26.244C116.492 26.548 116.116 26.772 115.732 26.916C115.356 27.052 114.94 27.12 114.484 27.12ZM112.756 23.484H115.9C115.852 23.196 115.752 22.94 115.6 22.716C115.456 22.492 115.272 22.316 115.048 22.188C114.832 22.06 114.592 21.996 114.328 21.996C114.064 21.996 113.82 22.06 113.596 22.188C113.38 22.308 113.2 22.48 113.056 22.704C112.912 22.928 112.812 23.188 112.756 23.484ZM123.698 27.06C123.194 27.06 122.738 26.924 122.33 26.652C121.922 26.372 121.594 26.004 121.346 25.548C121.106 25.084 120.986 24.568 120.986 24C120.986 23.424 121.11 22.908 121.358 22.452C121.606 21.988 121.942 21.62 122.366 21.348C122.798 21.076 123.274 20.94 123.794 20.94C124.138 20.94 124.458 21.008 124.754 21.144C125.058 21.272 125.322 21.464 125.546 21.72V18.396L126.902 18.156V27H125.558V26.208C125.342 26.48 125.074 26.692 124.754 26.844C124.434 26.988 124.082 27.06 123.698 27.06ZM124.118 25.92C124.406 25.92 124.674 25.864 124.922 25.752C125.17 25.632 125.378 25.468 125.546 25.26V22.728C125.37 22.52 125.158 22.36 124.91 22.248C124.662 22.136 124.398 22.08 124.118 22.08C123.774 22.08 123.466 22.164 123.194 22.332C122.93 22.492 122.718 22.716 122.558 23.004C122.398 23.292 122.318 23.624 122.318 24C122.318 24.36 122.398 24.688 122.558 24.984C122.718 25.272 122.93 25.5 123.194 25.668C123.466 25.836 123.774 25.92 124.118 25.92ZM128.586 27V20.988H129.942V22.284C130.118 21.828 130.346 21.48 130.626 21.24C130.906 21 131.23 20.88 131.598 20.88C131.71 20.888 131.81 20.9 131.898 20.916C131.986 20.924 132.082 20.952 132.186 21V22.188C132.082 22.14 131.962 22.104 131.826 22.08C131.698 22.056 131.57 22.044 131.442 22.044C131.114 22.044 130.818 22.132 130.554 22.308C130.298 22.484 130.094 22.728 129.942 23.04V27H128.586ZM133.285 27V20.988H134.641V27H133.285ZM133.969 19.764C133.737 19.764 133.537 19.684 133.369 19.524C133.209 19.356 133.129 19.16 133.129 18.936C133.129 18.704 133.209 18.508 133.369 18.348C133.537 18.18 133.737 18.096 133.969 18.096C134.201 18.096 134.397 18.18 134.557 18.348C134.725 18.508 134.809 18.7 134.809 18.924C134.809 19.156 134.725 19.356 134.557 19.524C134.397 19.684 134.201 19.764 133.969 19.764ZM138.06 27L135.612 20.988H137.088L138.768 25.356L140.436 20.988H141.852L139.38 27H138.06ZM145.445 27.12C144.869 27.12 144.349 26.984 143.885 26.712C143.421 26.432 143.053 26.06 142.781 25.596C142.509 25.124 142.373 24.592 142.373 24C142.373 23.408 142.501 22.88 142.757 22.416C143.013 21.952 143.361 21.584 143.801 21.312C144.249 21.032 144.745 20.892 145.289 20.892C145.849 20.892 146.341 21.028 146.765 21.3C147.197 21.572 147.533 21.94 147.773 22.404C148.021 22.868 148.145 23.4 148.145 24V24.324H143.705C143.753 24.652 143.857 24.944 144.017 25.2C144.185 25.448 144.397 25.644 144.653 25.788C144.917 25.932 145.201 26.004 145.505 26.004C145.785 26.004 146.049 25.956 146.297 25.86C146.553 25.756 146.765 25.616 146.933 25.44L147.821 26.244C147.453 26.548 147.077 26.772 146.693 26.916C146.317 27.052 145.901 27.12 145.445 27.12ZM143.717 23.484H146.861C146.813 23.196 146.713 22.94 146.561 22.716C146.417 22.492 146.233 22.316 146.009 22.188C145.793 22.06 145.553 21.996 145.289 21.996C145.025 21.996 144.781 22.06 144.557 22.188C144.341 22.308 144.161 22.48 144.017 22.704C143.873 22.928 143.773 23.188 143.717 23.484ZM151.626 27.12C151.114 27.12 150.634 27.052 150.186 26.916C149.746 26.772 149.366 26.568 149.046 26.304L149.682 25.404C150.082 25.652 150.426 25.828 150.714 25.932C151.01 26.036 151.31 26.088 151.614 26.088C151.974 26.088 152.266 26.012 152.49 25.86C152.714 25.708 152.826 25.512 152.826 25.272C152.826 25.088 152.758 24.944 152.622 24.84C152.494 24.728 152.282 24.644 151.986 24.588L150.93 24.408C150.346 24.296 149.91 24.104 149.622 23.832C149.334 23.56 149.19 23.2 149.19 22.752C149.19 22.376 149.286 22.052 149.478 21.78C149.678 21.5 149.95 21.284 150.294 21.132C150.646 20.972 151.054 20.892 151.518 20.892C151.934 20.892 152.338 20.952 152.73 21.072C153.122 21.192 153.506 21.372 153.882 21.612L153.246 22.512C152.942 22.312 152.638 22.168 152.334 22.08C152.038 21.984 151.738 21.936 151.434 21.936C151.122 21.936 150.87 22 150.678 22.128C150.494 22.248 150.402 22.416 150.402 22.632C150.402 22.824 150.462 22.972 150.582 23.076C150.71 23.172 150.93 23.244 151.242 23.292L152.31 23.496C152.91 23.6 153.354 23.792 153.642 24.072C153.938 24.344 154.086 24.708 154.086 25.164C154.086 25.532 153.978 25.864 153.762 26.16C153.546 26.456 153.254 26.692 152.886 26.868C152.518 27.036 152.098 27.12 151.626 27.12Z" fill="#151515"/>
<path d="M161.412 22.908L161.436 21.252L160.092 22.128L159.744 21.588L161.16 20.712L159.792 19.848L160.128 19.32L161.424 20.172L161.412 18.6H162.036L162.024 20.16L163.308 19.32L163.668 19.848L162.288 20.712L163.716 21.588L163.356 22.128L162.012 21.252L162.036 22.908H161.412Z" fill="#F4784A"/>
<path d="M18 40.5H59C62.0376 40.5 64.5 42.9624 64.5 46V71C64.5 74.0376 62.0376 76.5 59 76.5H18C14.9624 76.5 12.5 74.0376 12.5 71V46C12.5 42.9624 14.9624 40.5 18 40.5Z" fill="white"/>
<path d="M18 40.5H59C62.0376 40.5 64.5 42.9624 64.5 46V71C64.5 74.0376 62.0376 76.5 59 76.5H18C14.9624 76.5 12.5 74.0376 12.5 71V46C12.5 42.9624 14.9624 40.5 18 40.5Z" stroke="#C7C7C7"/>
<path fill-rule="evenodd" clip-rule="evenodd" d="M44.1429 60.0714C44.6162 60.0714 45 59.6876 45 59.2143V58.3571C45 57.8838 44.6162 57.5 44.1429 57.5H33.8571C33.3838 57.5 33 57.8838 33 58.3571V59.2143C33 59.6876 33.3838 60.0714 33.8571 60.0714H44.1429Z" fill="#1F1F1F"/>
<g clip-path="url(#clip1_1464_5171)">
<path d="M69 46C69 42.6863 71.6863 40 75 40H199C202.314 40 205 42.6863 205 46V71C205 74.3137 202.314 77 199 77H75C71.6863 77 69 74.3137 69 71V46Z" fill="white"/>
<path d="M186.849 63V54.292L185.281 54.992V54.068L187.227 53.2H187.857V63H186.849Z" fill="#4D4D4D"/>
</g>
<path d="M75 40.5H199C202.038 40.5 204.5 42.9624 204.5 46V71C204.5 74.0376 202.038 76.5 199 76.5H75C71.9624 76.5 69.5 74.0376 69.5 71V46C69.5 42.9624 71.9624 40.5 75 40.5Z" stroke="#C7C7C7"/>
<path d="M215 40.5H256C259.038 40.5 261.5 42.9624 261.5 46V71C261.5 74.0376 259.038 76.5 256 76.5H215C211.962 76.5 209.5 74.0376 209.5 71V46C209.5 42.9624 211.962 40.5 215 40.5Z" fill="white"/>
<path d="M215 40.5H256C259.038 40.5 261.5 42.9624 261.5 46V71C261.5 74.0376 259.038 76.5 256 76.5H215C211.962 76.5 209.5 74.0376 209.5 71V46C209.5 42.9624 211.962 40.5 215 40.5Z" stroke="#C7C7C7"/>
<path fill-rule="evenodd" clip-rule="evenodd" d="M236.429 65C236.902 65 237.286 64.6162 237.286 64.1429V60.2857H241.143C241.616 60.2857 242 59.9019 242 59.4286V58.5714C242 58.0981 241.616 57.7143 241.143 57.7143H237.286V53.8571C237.286 53.3838 236.902 53 236.429 53H235.571C235.098 53 234.714 53.3838 234.714 53.8571V57.7143H230.857C230.384 57.7143 230 58.0981 230 58.5714V59.4286C230 59.9019 230.384 60.2857 230.857 60.2857H234.714V64.1429C234.714 64.6162 235.098 65 235.571 65H236.429Z" fill="#1F1F1F"/>
<path d="M317.246 106V96.2H318.366L324.106 104.32L324.078 96.2H325.1V106H324.12L318.24 97.698L318.268 106H317.246ZM329.836 106.112C329.35 106.112 328.921 106.005 328.548 105.79C328.174 105.575 327.88 105.277 327.666 104.894C327.46 104.511 327.358 104.073 327.358 103.578V99.168H328.394V103.284C328.394 103.891 328.557 104.371 328.884 104.726C329.21 105.081 329.654 105.258 330.214 105.258C330.596 105.258 330.937 105.169 331.236 104.992C331.544 104.815 331.8 104.558 332.006 104.222V99.168H333.028V106H332.006V104.894C331.744 105.295 331.432 105.599 331.068 105.804C330.713 106.009 330.302 106.112 329.836 106.112ZM335.124 106V99.168H336.146V100.232C336.408 99.84 336.706 99.546 337.042 99.35C337.378 99.154 337.756 99.056 338.176 99.056C338.662 99.056 339.086 99.1773 339.45 99.42C339.814 99.6533 340.09 99.9753 340.276 100.386C340.547 99.9473 340.869 99.616 341.242 99.392C341.625 99.168 342.064 99.056 342.558 99.056C343.016 99.056 343.417 99.1633 343.762 99.378C344.117 99.5927 344.392 99.8913 344.588 100.274C344.784 100.647 344.882 101.086 344.882 101.59V106H343.86V101.842C343.86 101.245 343.711 100.773 343.412 100.428C343.114 100.083 342.703 99.91 342.18 99.91C341.826 99.91 341.504 99.9987 341.214 100.176C340.934 100.353 340.687 100.624 340.472 100.988C340.491 101.081 340.505 101.179 340.514 101.282C340.524 101.385 340.528 101.487 340.528 101.59V106H339.506V101.842C339.506 101.245 339.352 100.773 339.044 100.428C338.746 100.083 338.335 99.91 337.812 99.91C337.112 99.91 336.557 100.246 336.146 100.918V106H335.124ZM346.95 106V95.99L347.972 95.78V100.106C348.234 99.7793 348.551 99.5273 348.924 99.35C349.298 99.1727 349.713 99.084 350.17 99.084C350.768 99.084 351.3 99.2427 351.766 99.56C352.242 99.868 352.62 100.288 352.9 100.82C353.18 101.343 353.32 101.931 353.32 102.584C353.32 103.237 353.176 103.83 352.886 104.362C352.606 104.894 352.224 105.319 351.738 105.636C351.262 105.944 350.721 106.098 350.114 106.098C349.685 106.098 349.284 106.014 348.91 105.846C348.546 105.669 348.229 105.421 347.958 105.104V106H346.95ZM349.918 105.216C350.376 105.216 350.782 105.104 351.136 104.88C351.5 104.647 351.785 104.334 351.99 103.942C352.205 103.541 352.312 103.093 352.312 102.598C352.312 102.094 352.205 101.646 351.99 101.254C351.785 100.862 351.5 100.554 351.136 100.33C350.782 100.097 350.376 99.98 349.918 99.98C349.517 99.98 349.144 100.064 348.798 100.232C348.462 100.391 348.187 100.619 347.972 100.918V104.264C348.196 104.563 348.476 104.796 348.812 104.964C349.158 105.132 349.526 105.216 349.918 105.216ZM358.193 106.14C357.558 106.14 356.984 105.986 356.471 105.678C355.957 105.361 355.551 104.936 355.253 104.404C354.954 103.863 354.805 103.256 354.805 102.584C354.805 101.912 354.945 101.31 355.225 100.778C355.514 100.246 355.901 99.826 356.387 99.518C356.872 99.21 357.413 99.056 358.011 99.056C358.617 99.056 359.154 99.21 359.621 99.518C360.097 99.8167 360.47 100.227 360.741 100.75C361.021 101.263 361.161 101.847 361.161 102.5V102.808H355.799C355.836 103.275 355.962 103.695 356.177 104.068C356.401 104.432 356.69 104.721 357.045 104.936C357.409 105.141 357.805 105.244 358.235 105.244C358.589 105.244 358.93 105.183 359.257 105.062C359.593 104.931 359.877 104.759 360.111 104.544L360.755 105.23C360.363 105.538 359.957 105.767 359.537 105.916C359.117 106.065 358.669 106.14 358.193 106.14ZM355.827 102.08H360.153C360.106 101.669 359.98 101.305 359.775 100.988C359.579 100.661 359.327 100.405 359.019 100.218C358.72 100.031 358.384 99.938 358.011 99.938C357.637 99.938 357.297 100.031 356.989 100.218C356.681 100.395 356.424 100.647 356.219 100.974C356.023 101.291 355.892 101.66 355.827 102.08ZM362.905 106V99.168H363.927V100.568C364.105 100.092 364.357 99.7233 364.683 99.462C365.019 99.1913 365.402 99.056 365.831 99.056C365.953 99.056 366.065 99.0653 366.167 99.084C366.27 99.0933 366.373 99.1167 366.475 99.154V100.078C366.363 100.041 366.242 100.013 366.111 99.994C365.99 99.966 365.873 99.952 365.761 99.952C365.341 99.952 364.973 100.073 364.655 100.316C364.347 100.559 364.105 100.899 363.927 101.338V106H362.905ZM371.081 106V99.168H372.103V106H371.081ZM371.599 97.474C371.394 97.474 371.216 97.404 371.067 97.264C370.927 97.1147 370.857 96.942 370.857 96.746C370.857 96.55 370.927 96.382 371.067 96.242C371.216 96.0927 371.394 96.018 371.599 96.018C371.804 96.018 371.977 96.0927 372.117 96.242C372.266 96.382 372.341 96.55 372.341 96.746C372.341 96.942 372.266 97.1147 372.117 97.264C371.977 97.404 371.804 97.474 371.599 97.474ZM374.198 106V99.168H375.22V100.274C375.482 99.8633 375.794 99.56 376.158 99.364C376.522 99.1587 376.933 99.056 377.39 99.056C377.885 99.056 378.314 99.1633 378.678 99.378C379.052 99.5833 379.341 99.8773 379.546 100.26C379.761 100.633 379.868 101.072 379.868 101.576V106H378.846V101.87C378.846 101.263 378.678 100.787 378.342 100.442C378.016 100.087 377.572 99.91 377.012 99.91C376.639 99.91 376.298 99.9987 375.99 100.176C375.682 100.353 375.426 100.615 375.22 100.96V106H374.198ZM381.923 108.926V99.168H382.931V100.148C383.192 99.8027 383.51 99.5413 383.883 99.364C384.266 99.1773 384.686 99.084 385.143 99.084C385.74 99.084 386.272 99.2427 386.739 99.56C387.215 99.868 387.593 100.288 387.873 100.82C388.153 101.343 388.293 101.931 388.293 102.584C388.293 103.237 388.148 103.83 387.859 104.362C387.579 104.894 387.196 105.319 386.711 105.636C386.235 105.944 385.694 106.098 385.087 106.098C384.658 106.098 384.261 106.019 383.897 105.86C383.533 105.692 383.216 105.454 382.945 105.146V108.926H381.923ZM384.891 105.216C385.348 105.216 385.754 105.104 386.109 104.88C386.473 104.647 386.758 104.334 386.963 103.942C387.178 103.541 387.285 103.093 387.285 102.598C387.285 102.094 387.178 101.646 386.963 101.254C386.758 100.862 386.473 100.554 386.109 100.33C385.754 100.097 385.348 99.98 384.891 99.98C384.49 99.98 384.116 100.064 383.771 100.232C383.435 100.391 383.16 100.619 382.945 100.918V104.264C383.169 104.563 383.449 104.796 383.785 104.964C384.13 105.132 384.499 105.216 384.891 105.216ZM392.521 106.112C392.036 106.112 391.606 106.005 391.233 105.79C390.86 105.575 390.566 105.277 390.351 104.894C390.146 104.511 390.043 104.073 390.043 103.578V99.168H391.079V103.284C391.079 103.891 391.242 104.371 391.569 104.726C391.896 105.081 392.339 105.258 392.899 105.258C393.282 105.258 393.622 105.169 393.921 104.992C394.229 104.815 394.486 104.558 394.691 104.222V99.168H395.713V106H394.691V104.894C394.43 105.295 394.117 105.599 393.753 105.804C393.398 106.009 392.988 106.112 392.521 106.112ZM400.414 106.14C399.826 106.14 399.378 106 399.07 105.72C398.771 105.431 398.622 105.015 398.622 104.474V100.008H397.208V99.168H398.622V97.292L399.644 97.054V99.168H401.604V100.008H399.644V104.208C399.644 104.572 399.718 104.833 399.868 104.992C400.026 105.151 400.283 105.23 400.638 105.23C400.815 105.23 400.974 105.216 401.114 105.188C401.254 105.16 401.417 105.113 401.604 105.048V105.958C401.417 106.023 401.221 106.07 401.016 106.098C400.81 106.126 400.61 106.14 400.414 106.14ZM407.586 106L405.71 99.168H406.704L408.132 104.628L409.77 99.168H410.68L412.318 104.628L413.732 99.168H414.698L412.836 106H411.842L410.218 100.484L408.594 106H407.586ZM416.13 106V99.168H417.152V106H416.13ZM416.648 97.474C416.442 97.474 416.265 97.404 416.116 97.264C415.976 97.1147 415.906 96.942 415.906 96.746C415.906 96.55 415.976 96.382 416.116 96.242C416.265 96.0927 416.442 96.018 416.648 96.018C416.853 96.018 417.026 96.0927 417.166 96.242C417.315 96.382 417.39 96.55 417.39 96.746C417.39 96.942 417.315 97.1147 417.166 97.264C417.026 97.404 416.853 97.474 416.648 97.474ZM421.851 106.14C421.263 106.14 420.815 106 420.507 105.72C420.209 105.431 420.059 105.015 420.059 104.474V100.008H418.645V99.168H420.059V97.292L421.081 97.054V99.168H423.041V100.008H421.081V104.208C421.081 104.572 421.156 104.833 421.305 104.992C421.464 105.151 421.721 105.23 422.075 105.23C422.253 105.23 422.411 105.216 422.551 105.188C422.691 105.16 422.855 105.113 423.041 105.048V105.958C422.855 106.023 422.659 106.07 422.453 106.098C422.248 106.126 422.047 106.14 421.851 106.14ZM424.538 106V95.892L425.56 95.682V100.274C425.822 99.8633 426.134 99.56 426.498 99.364C426.862 99.1587 427.273 99.056 427.73 99.056C428.225 99.056 428.654 99.1633 429.018 99.378C429.392 99.5833 429.681 99.8773 429.886 100.26C430.101 100.633 430.208 101.072 430.208 101.576V106H429.186V101.87C429.186 101.263 429.018 100.787 428.682 100.442C428.356 100.087 427.912 99.91 427.352 99.91C426.979 99.91 426.638 99.9987 426.33 100.176C426.022 100.353 425.766 100.615 425.56 100.96V106H424.538ZM437.966 106.112C437.481 106.112 437.052 106.005 436.678 105.79C436.305 105.575 436.011 105.277 435.796 104.894C435.591 104.511 435.488 104.073 435.488 103.578V99.168H436.524V103.284C436.524 103.891 436.688 104.371 437.014 104.726C437.341 105.081 437.784 105.258 438.344 105.258C438.727 105.258 439.068 105.169 439.366 104.992C439.674 104.815 439.931 104.558 440.136 104.222V99.168H441.158V106H440.136V104.894C439.875 105.295 439.562 105.599 439.198 105.804C438.844 106.009 438.433 106.112 437.966 106.112ZM443.255 106V99.168H444.277V100.274C444.538 99.8633 444.851 99.56 445.215 99.364C445.579 99.1587 445.99 99.056 446.447 99.056C446.942 99.056 447.371 99.1633 447.735 99.378C448.108 99.5833 448.398 99.8773 448.603 100.26C448.818 100.633 448.925 101.072 448.925 101.576V106H447.903V101.87C447.903 101.263 447.735 100.787 447.399 100.442C447.072 100.087 446.629 99.91 446.069 99.91C445.696 99.91 445.355 99.9987 445.047 100.176C444.739 100.353 444.482 100.615 444.277 100.96V106H443.255ZM450.966 106V99.168H451.988V106H450.966ZM451.484 97.474C451.278 97.474 451.101 97.404 450.952 97.264C450.812 97.1147 450.742 96.942 450.742 96.746C450.742 96.55 450.812 96.382 450.952 96.242C451.101 96.0927 451.278 96.018 451.484 96.018C451.689 96.018 451.862 96.0927 452.002 96.242C452.151 96.382 452.226 96.55 452.226 96.746C452.226 96.942 452.151 97.1147 452.002 97.264C451.862 97.404 451.689 97.474 451.484 97.474ZM456.687 106.14C456.099 106.14 455.651 106 455.343 105.72C455.045 105.431 454.895 105.015 454.895 104.474V100.008H453.481V99.168H454.895V97.292L455.917 97.054V99.168H457.877V100.008H455.917V104.208C455.917 104.572 455.992 104.833 456.141 104.992C456.3 105.151 456.557 105.23 456.911 105.23C457.089 105.23 457.247 105.216 457.387 105.188C457.527 105.16 457.691 105.113 457.877 105.048V105.958C457.691 106.023 457.495 106.07 457.289 106.098C457.084 106.126 456.883 106.14 456.687 106.14ZM461.625 106.14C461.065 106.14 460.547 106.056 460.071 105.888C459.595 105.711 459.189 105.459 458.853 105.132L459.399 104.46C459.81 104.759 460.188 104.978 460.533 105.118C460.878 105.249 461.233 105.314 461.597 105.314C462.092 105.314 462.502 105.197 462.829 104.964C463.156 104.731 463.319 104.432 463.319 104.068C463.319 103.788 463.221 103.569 463.025 103.41C462.838 103.251 462.526 103.13 462.087 103.046L460.967 102.85C460.304 102.729 459.814 102.523 459.497 102.234C459.189 101.945 459.035 101.553 459.035 101.058C459.035 100.666 459.138 100.321 459.343 100.022C459.558 99.7233 459.852 99.49 460.225 99.322C460.598 99.1447 461.023 99.056 461.499 99.056C461.966 99.056 462.409 99.126 462.829 99.266C463.249 99.3967 463.674 99.6113 464.103 99.91L463.599 100.624C463.244 100.372 462.89 100.19 462.535 100.078C462.18 99.9567 461.821 99.896 461.457 99.896C461.009 99.896 460.65 99.994 460.379 100.19C460.108 100.386 459.973 100.652 459.973 100.988C459.973 101.268 460.057 101.483 460.225 101.632C460.402 101.781 460.71 101.893 461.149 101.968L462.297 102.178C462.988 102.299 463.492 102.509 463.809 102.808C464.126 103.107 464.285 103.508 464.285 104.012C464.285 104.413 464.168 104.777 463.935 105.104C463.702 105.421 463.384 105.673 462.983 105.86C462.582 106.047 462.129 106.14 461.625 106.14Z" fill="#FF00FF"/>
<path d="M17.324 105.034H19.564C20.2733 105.034 20.908 104.861 21.468 104.516C22.028 104.171 22.4713 103.704 22.798 103.116C23.134 102.519 23.302 101.847 23.302 101.1C23.302 100.353 23.134 99.686 22.798 99.098C22.4713 98.5007 22.028 98.0293 21.468 97.684C20.908 97.3387 20.2733 97.166 19.564 97.166H17.324V105.034ZM16.246 106V96.2H19.494C20.2127 96.2 20.8707 96.326 21.468 96.578C22.0747 96.8207 22.5927 97.166 23.022 97.614C23.4607 98.0527 23.7967 98.5707 24.03 99.168C24.2727 99.756 24.394 100.4 24.394 101.1C24.394 101.8 24.2727 102.449 24.03 103.046C23.7967 103.634 23.4607 104.152 23.022 104.6C22.5927 105.039 22.0747 105.384 21.468 105.636C20.8707 105.879 20.2127 106 19.494 106H16.246ZM29.3155 106.14C28.6809 106.14 28.1069 105.986 27.5935 105.678C27.0802 105.361 26.6742 104.936 26.3755 104.404C26.0769 103.863 25.9275 103.256 25.9275 102.584C25.9275 101.912 26.0675 101.31 26.3475 100.778C26.6369 100.246 27.0242 99.826 27.5095 99.518C27.9949 99.21 28.5362 99.056 29.1335 99.056C29.7402 99.056 30.2769 99.21 30.7435 99.518C31.2195 99.8167 31.5929 100.227 31.8635 100.75C32.1435 101.263 32.2835 101.847 32.2835 102.5V102.808H26.9215C26.9589 103.275 27.0849 103.695 27.2995 104.068C27.5235 104.432 27.8129 104.721 28.1675 104.936C28.5315 105.141 28.9282 105.244 29.3575 105.244C29.7122 105.244 30.0529 105.183 30.3795 105.062C30.7155 104.931 31.0002 104.759 31.2335 104.544L31.8775 105.23C31.4855 105.538 31.0795 105.767 30.6595 105.916C30.2395 106.065 29.7915 106.14 29.3155 106.14ZM26.9495 102.08H31.2755C31.2289 101.669 31.1029 101.305 30.8975 100.988C30.7015 100.661 30.4495 100.405 30.1415 100.218C29.8429 100.031 29.5069 99.938 29.1335 99.938C28.7602 99.938 28.4195 100.031 28.1115 100.218C27.8035 100.395 27.5469 100.647 27.3415 100.974C27.1455 101.291 27.0149 101.66 26.9495 102.08ZM34.6914 106V100.008H33.1654V99.168H34.6914V97.74C34.6914 97.068 34.8688 96.55 35.2234 96.186C35.5781 95.822 36.0821 95.64 36.7354 95.64C36.9221 95.64 37.0901 95.6493 37.2394 95.668C37.3981 95.6867 37.5381 95.7193 37.6594 95.766V96.69C37.5101 96.6433 37.3748 96.6107 37.2534 96.592C37.1321 96.5733 36.9921 96.564 36.8334 96.564C36.4414 96.564 36.1568 96.662 35.9794 96.858C35.8021 97.0447 35.7134 97.3433 35.7134 97.754V99.168H37.6594V100.008H35.7134V106H34.6914ZM40.914 106.126C40.4287 106.126 39.9993 106.037 39.626 105.86C39.2527 105.683 38.9587 105.44 38.744 105.132C38.5387 104.815 38.436 104.451 38.436 104.04C38.436 103.629 38.5433 103.275 38.758 102.976C38.9727 102.668 39.2713 102.43 39.654 102.262C40.0367 102.094 40.4847 102.01 40.998 102.01C41.39 102.01 41.7587 102.052 42.104 102.136C42.4587 102.22 42.7853 102.355 43.084 102.542V101.604C43.084 101.044 42.9347 100.624 42.636 100.344C42.3373 100.055 41.8987 99.91 41.32 99.91C41.0027 99.91 40.676 99.9567 40.34 100.05C40.0133 100.143 39.6493 100.293 39.248 100.498L38.87 99.714C39.7847 99.2753 40.6433 99.056 41.446 99.056C42.2953 99.056 42.9487 99.266 43.406 99.686C43.8633 100.097 44.092 100.689 44.092 101.464V106H43.084V105.202C42.7853 105.51 42.454 105.743 42.09 105.902C41.726 106.051 41.334 106.126 40.914 106.126ZM39.416 104.012C39.416 104.413 39.57 104.735 39.878 104.978C40.1953 105.221 40.6107 105.342 41.124 105.342C41.5067 105.342 41.8567 105.277 42.174 105.146C42.5007 105.015 42.804 104.819 43.084 104.558V103.242C42.7947 103.074 42.496 102.953 42.188 102.878C41.88 102.794 41.5347 102.752 41.152 102.752C40.6293 102.752 40.2093 102.869 39.892 103.102C39.5747 103.326 39.416 103.629 39.416 104.012ZM48.5368 106.112C48.0514 106.112 47.6221 106.005 47.2488 105.79C46.8754 105.575 46.5814 105.277 46.3668 104.894C46.1614 104.511 46.0588 104.073 46.0588 103.578V99.168H47.0948V103.284C47.0948 103.891 47.2581 104.371 47.5848 104.726C47.9114 105.081 48.3548 105.258 48.9148 105.258C49.2974 105.258 49.6381 105.169 49.9368 104.992C50.2448 104.815 50.5014 104.558 50.7068 104.222V99.168H51.7288V106H50.7068V104.894C50.4454 105.295 50.1328 105.599 49.7688 105.804C49.4141 106.009 49.0034 106.112 48.5368 106.112ZM53.8254 106V95.892L54.8474 95.682V106H53.8254ZM59.5466 106.14C58.9586 106.14 58.5106 106 58.2026 105.72C57.9039 105.431 57.7546 105.015 57.7546 104.474V100.008H56.3406V99.168H57.7546V97.292L58.7766 97.054V99.168H60.7366V100.008H58.7766V104.208C58.7766 104.572 58.8512 104.833 59.0006 104.992C59.1592 105.151 59.4159 105.23 59.7706 105.23C59.9479 105.23 60.1066 105.216 60.2466 105.188C60.3866 105.16 60.5499 105.113 60.7366 105.048V105.958C60.5499 106.023 60.3539 106.07 60.1486 106.098C59.9432 106.126 59.7426 106.14 59.5466 106.14Z" fill="#FF00FF"/>
<path d="M625.324 105.034H627.564C628.273 105.034 628.908 104.861 629.468 104.516C630.028 104.171 630.471 103.704 630.798 103.116C631.134 102.519 631.302 101.847 631.302 101.1C631.302 100.353 631.134 99.686 630.798 99.098C630.471 98.5007 630.028 98.0293 629.468 97.684C628.908 97.3387 628.273 97.166 627.564 97.166H625.324V105.034ZM624.246 106V96.2H627.494C628.213 96.2 628.871 96.326 629.468 96.578C630.075 96.8207 630.593 97.166 631.022 97.614C631.461 98.0527 631.797 98.5707 632.03 99.168C632.273 99.756 632.394 100.4 632.394 101.1C632.394 101.8 632.273 102.449 632.03 103.046C631.797 103.634 631.461 104.152 631.022 104.6C630.593 105.039 630.075 105.384 629.468 105.636C628.871 105.879 628.213 106 627.494 106H624.246ZM634.222 106V99.168H635.244V106H634.222ZM634.74 97.474C634.534 97.474 634.357 97.404 634.208 97.264C634.068 97.1147 633.998 96.942 633.998 96.746C633.998 96.55 634.068 96.382 634.208 96.242C634.357 96.0927 634.534 96.018 634.74 96.018C634.945 96.018 635.118 96.0927 635.258 96.242C635.407 96.382 635.482 96.55 635.482 96.746C635.482 96.942 635.407 97.1147 635.258 97.264C635.118 97.404 634.945 97.474 634.74 97.474ZM639.453 106.14C638.893 106.14 638.375 106.056 637.899 105.888C637.423 105.711 637.017 105.459 636.681 105.132L637.227 104.46C637.638 104.759 638.016 104.978 638.361 105.118C638.706 105.249 639.061 105.314 639.425 105.314C639.92 105.314 640.33 105.197 640.657 104.964C640.984 104.731 641.147 104.432 641.147 104.068C641.147 103.788 641.049 103.569 640.853 103.41C640.666 103.251 640.354 103.13 639.915 103.046L638.795 102.85C638.132 102.729 637.642 102.523 637.325 102.234C637.017 101.945 636.863 101.553 636.863 101.058C636.863 100.666 636.966 100.321 637.171 100.022C637.386 99.7233 637.68 99.49 638.053 99.322C638.426 99.1447 638.851 99.056 639.327 99.056C639.794 99.056 640.237 99.126 640.657 99.266C641.077 99.3967 641.502 99.6113 641.931 99.91L641.427 100.624C641.072 100.372 640.718 100.19 640.363 100.078C640.008 99.9567 639.649 99.896 639.285 99.896C638.837 99.896 638.478 99.994 638.207 100.19C637.936 100.386 637.801 100.652 637.801 100.988C637.801 101.268 637.885 101.483 638.053 101.632C638.23 101.781 638.538 101.893 638.977 101.968L640.125 102.178C640.816 102.299 641.32 102.509 641.637 102.808C641.954 103.107 642.113 103.508 642.113 104.012C642.113 104.413 641.996 104.777 641.763 105.104C641.53 105.421 641.212 105.673 640.811 105.86C640.41 106.047 639.957 106.14 639.453 106.14ZM645.852 106.126C645.366 106.126 644.937 106.037 644.564 105.86C644.19 105.683 643.896 105.44 643.682 105.132C643.476 104.815 643.374 104.451 643.374 104.04C643.374 103.629 643.481 103.275 643.696 102.976C643.91 102.668 644.209 102.43 644.592 102.262C644.974 102.094 645.422 102.01 645.936 102.01C646.328 102.01 646.696 102.052 647.042 102.136C647.396 102.22 647.723 102.355 648.022 102.542V101.604C648.022 101.044 647.872 100.624 647.574 100.344C647.275 100.055 646.836 99.91 646.258 99.91C645.94 99.91 645.614 99.9567 645.278 100.05C644.951 100.143 644.587 100.293 644.186 100.498L643.808 99.714C644.722 99.2753 645.581 99.056 646.383 99.056C647.233 99.056 647.886 99.266 648.344 99.686C648.801 100.097 649.03 100.689 649.03 101.464V106H648.022V105.202C647.723 105.51 647.392 105.743 647.028 105.902C646.664 106.051 646.272 106.126 645.852 106.126ZM644.354 104.012C644.354 104.413 644.508 104.735 644.816 104.978C645.133 105.221 645.548 105.342 646.062 105.342C646.444 105.342 646.794 105.277 647.112 105.146C647.438 105.015 647.742 104.819 648.022 104.558V103.242C647.732 103.074 647.434 102.953 647.126 102.878C646.818 102.794 646.472 102.752 646.09 102.752C645.567 102.752 645.147 102.869 644.83 103.102C644.512 103.326 644.354 103.629 644.354 104.012ZM651.107 106V95.99L652.129 95.78V100.106C652.39 99.7793 652.707 99.5273 653.081 99.35C653.454 99.1727 653.869 99.084 654.327 99.084C654.924 99.084 655.456 99.2427 655.923 99.56C656.399 99.868 656.777 100.288 657.057 100.82C657.337 101.343 657.477 101.931 657.477 102.584C657.477 103.237 657.332 103.83 657.043 104.362C656.763 104.894 656.38 105.319 655.895 105.636C655.419 105.944 654.877 106.098 654.271 106.098C653.841 106.098 653.44 106.014 653.067 105.846C652.703 105.669 652.385 105.421 652.115 105.104V106H651.107ZM654.075 105.216C654.532 105.216 654.938 105.104 655.293 104.88C655.657 104.647 655.941 104.334 656.147 103.942C656.361 103.541 656.469 103.093 656.469 102.598C656.469 102.094 656.361 101.646 656.147 101.254C655.941 100.862 655.657 100.554 655.293 100.33C654.938 100.097 654.532 99.98 654.075 99.98C653.673 99.98 653.3 100.064 652.955 100.232C652.619 100.391 652.343 100.619 652.129 100.918V104.264C652.353 104.563 652.633 104.796 652.969 104.964C653.314 105.132 653.683 105.216 654.075 105.216ZM659.269 106V95.892L660.291 95.682V106H659.269ZM665.466 106.14C664.831 106.14 664.257 105.986 663.744 105.678C663.231 105.361 662.825 104.936 662.526 104.404C662.227 103.863 662.078 103.256 662.078 102.584C662.078 101.912 662.218 101.31 662.498 100.778C662.787 100.246 663.175 99.826 663.66 99.518C664.145 99.21 664.687 99.056 665.284 99.056C665.891 99.056 666.427 99.21 666.894 99.518C667.37 99.8167 667.743 100.227 668.014 100.75C668.294 101.263 668.434 101.847 668.434 102.5V102.808H663.072C663.109 103.275 663.235 103.695 663.45 104.068C663.674 104.432 663.963 104.721 664.318 104.936C664.682 105.141 665.079 105.244 665.508 105.244C665.863 105.244 666.203 105.183 666.53 105.062C666.866 104.931 667.151 104.759 667.384 104.544L668.028 105.23C667.636 105.538 667.23 105.767 666.81 105.916C666.39 106.065 665.942 106.14 665.466 106.14ZM663.1 102.08H667.426C667.379 101.669 667.253 101.305 667.048 100.988C666.852 100.661 666.6 100.405 666.292 100.218C665.993 100.031 665.657 99.938 665.284 99.938C664.911 99.938 664.57 100.031 664.262 100.218C663.954 100.395 663.697 100.647 663.492 100.974C663.296 101.291 663.165 101.66 663.1 102.08ZM673.021 106.098C672.433 106.098 671.901 105.944 671.425 105.636C670.949 105.319 670.571 104.899 670.291 104.376C670.011 103.844 669.871 103.251 669.871 102.598C669.871 101.935 670.011 101.343 670.291 100.82C670.58 100.288 670.968 99.868 671.453 99.56C671.938 99.2427 672.48 99.084 673.077 99.084C673.497 99.084 673.889 99.168 674.253 99.336C674.617 99.4947 674.934 99.728 675.205 100.036V95.892L676.227 95.682V106H675.205V105.09C674.944 105.417 674.626 105.669 674.253 105.846C673.88 106.014 673.469 106.098 673.021 106.098ZM673.273 105.202C673.674 105.202 674.043 105.123 674.379 104.964C674.715 104.805 674.99 104.581 675.205 104.292V100.904C674.981 100.615 674.696 100.391 674.351 100.232C674.015 100.064 673.656 99.98 673.273 99.98C672.816 99.98 672.405 100.092 672.041 100.316C671.686 100.54 671.402 100.848 671.187 101.24C670.982 101.632 670.879 102.08 670.879 102.584C670.879 103.079 670.982 103.527 671.187 103.928C671.402 104.32 671.686 104.633 672.041 104.866C672.405 105.09 672.816 105.202 673.273 105.202Z" fill="#FF00FF"/>
<defs>
<clipPath id="clip0_1464_5171">
<path d="M373 46C373 42.6863 375.686 40 379 40H476C479.314 40 482 42.6863 482 46V71C482 74.3137 479.314 77 476 77H379C375.686 77 373 74.3137 373 71V46Z" fill="white"/>
</clipPath>
<clipPath id="clip1_1464_5171">
<path d="M69 46C69 42.6863 71.6863 40 75 40H199C202.314 40 205 42.6863 205 46V71C205 74.3137 202.314 77 199 77H75C71.6863 77 69 74.3137 69 71V46Z" fill="white"/>
</clipPath>
</defs>
</svg>
