<svg width="732" height="106" viewBox="0 0 732 106" fill="none" xmlns="http://www.w3.org/2000/svg">
<rect width="732" height="106" fill="white"/>
<path d="M44.768 39.154C44.068 39.154 43.4147 39.028 42.808 38.776C42.2107 38.5147 41.6833 38.1553 41.226 37.698C40.7687 37.2313 40.414 36.6947 40.162 36.088C39.91 35.472 39.784 34.8093 39.784 34.1C39.784 33.3907 39.91 32.7327 40.162 32.126C40.414 31.51 40.7687 30.9733 41.226 30.516C41.6833 30.0493 42.2107 29.69 42.808 29.438C43.4147 29.1767 44.068 29.046 44.768 29.046C45.2533 29.046 45.7153 29.1113 46.154 29.242C46.602 29.3633 47.022 29.5453 47.414 29.788C47.806 30.0213 48.156 30.3107 48.464 30.656L47.75 31.398C47.386 30.9593 46.938 30.6233 46.406 30.39C45.8833 30.1473 45.3373 30.026 44.768 30.026C44.2173 30.026 43.704 30.1287 43.228 30.334C42.752 30.5393 42.3367 30.8287 41.982 31.202C41.6367 31.5753 41.366 32.0093 41.17 32.504C40.974 32.9893 40.876 33.5213 40.876 34.1C40.876 34.6693 40.974 35.2013 41.17 35.696C41.366 36.1907 41.6367 36.6247 41.982 36.998C42.3367 37.3713 42.752 37.6607 43.228 37.866C43.704 38.0713 44.2173 38.174 44.768 38.174C45.3373 38.174 45.8833 38.0527 46.406 37.81C46.938 37.5673 47.386 37.2313 47.75 36.802L48.464 37.544C48.156 37.8893 47.806 38.1833 47.414 38.426C47.022 38.6593 46.602 38.8413 46.154 38.972C45.7153 39.0933 45.2533 39.154 44.768 39.154ZM53.0271 39.112C52.3925 39.112 51.8231 38.958 51.3191 38.65C50.8151 38.342 50.4185 37.922 50.1291 37.39C49.8398 36.858 49.6951 36.256 49.6951 35.584C49.6951 34.912 49.8398 34.31 50.1291 33.778C50.4185 33.246 50.8151 32.826 51.3191 32.518C51.8231 32.21 52.3925 32.056 53.0271 32.056C53.6525 32.056 54.2125 32.21 54.7071 32.518C55.2111 32.826 55.6078 33.246 55.8971 33.778C56.1865 34.31 56.3311 34.912 56.3311 35.584C56.3311 36.256 56.1865 36.858 55.8971 37.39C55.6078 37.922 55.2111 38.342 54.7071 38.65C54.2125 38.958 53.6525 39.112 53.0271 39.112ZM53.0131 38.216C53.4611 38.216 53.8578 38.104 54.2031 37.88C54.5485 37.6467 54.8191 37.3293 55.0151 36.928C55.2205 36.5267 55.3231 36.0787 55.3231 35.584C55.3231 35.08 55.2205 34.632 55.0151 34.24C54.8191 33.8387 54.5485 33.526 54.2031 33.302C53.8578 33.0687 53.4611 32.952 53.0131 32.952C52.5651 32.952 52.1685 33.0687 51.8231 33.302C51.4778 33.526 51.2025 33.8387 50.9971 34.24C50.8011 34.632 50.7031 35.08 50.7031 35.584C50.7031 36.0787 50.8011 36.5267 50.9971 36.928C51.2025 37.3293 51.4778 37.6467 51.8231 37.88C52.1685 38.104 52.5651 38.216 53.0131 38.216ZM60.5602 39.112C60.0749 39.112 59.6456 39.0047 59.2722 38.79C58.8989 38.5753 58.6049 38.2767 58.3902 37.894C58.1849 37.5113 58.0822 37.0727 58.0822 36.578V32.168H59.1182V36.284C59.1182 36.8907 59.2816 37.3713 59.6082 37.726C59.9349 38.0807 60.3782 38.258 60.9382 38.258C61.3209 38.258 61.6616 38.1693 61.9602 37.992C62.2682 37.8147 62.5249 37.558 62.7302 37.222V32.168H63.7522V39H62.7302V37.894C62.4689 38.2953 62.1562 38.5987 61.7922 38.804C61.4376 39.0093 61.0269 39.112 60.5602 39.112ZM65.8488 39V28.892L66.8708 28.682V39H65.8488ZM71.808 39.098C71.22 39.098 70.688 38.944 70.212 38.636C69.736 38.3187 69.358 37.8987 69.078 37.376C68.798 36.844 68.658 36.2513 68.658 35.598C68.658 34.9353 68.798 34.3427 69.078 33.82C69.3673 33.288 69.7547 32.868 70.24 32.56C70.7253 32.2427 71.2667 32.084 71.864 32.084C72.284 32.084 72.676 32.168 73.04 32.336C73.404 32.4947 73.7213 32.728 73.992 33.036V28.892L75.014 28.682V39H73.992V38.09C73.7307 38.4167 73.4133 38.6687 73.04 38.846C72.6667 39.014 72.256 39.098 71.808 39.098ZM72.06 38.202C72.4613 38.202 72.83 38.1227 73.166 37.964C73.502 37.8053 73.7773 37.5813 73.992 37.292V33.904C73.768 33.6147 73.4833 33.3907 73.138 33.232C72.802 33.064 72.4427 32.98 72.06 32.98C71.6027 32.98 71.192 33.092 70.828 33.316C70.4733 33.54 70.1887 33.848 69.974 34.24C69.7687 34.632 69.666 35.08 69.666 35.584C69.666 36.0787 69.7687 36.5267 69.974 36.928C70.1887 37.32 70.4733 37.6327 70.828 37.866C71.192 38.09 71.6027 38.202 72.06 38.202ZM80.382 39V32.168H81.404V33.274C81.6654 32.8633 81.978 32.56 82.342 32.364C82.706 32.1587 83.1167 32.056 83.574 32.056C84.0687 32.056 84.498 32.1633 84.862 32.378C85.2354 32.5833 85.5247 32.8773 85.73 33.26C85.9447 33.6333 86.052 34.072 86.052 34.576V39H85.03V34.87C85.03 34.2633 84.862 33.7873 84.526 33.442C84.1994 33.0873 83.756 32.91 83.196 32.91C82.8227 32.91 82.482 32.9987 82.174 33.176C81.866 33.3533 81.6094 33.6147 81.404 33.96V39H80.382ZM91.1306 39.112C90.496 39.112 89.9266 38.958 89.4226 38.65C88.9186 38.342 88.522 37.922 88.2326 37.39C87.9433 36.858 87.7986 36.256 87.7986 35.584C87.7986 34.912 87.9433 34.31 88.2326 33.778C88.522 33.246 88.9186 32.826 89.4226 32.518C89.9266 32.21 90.496 32.056 91.1306 32.056C91.756 32.056 92.316 32.21 92.8106 32.518C93.3146 32.826 93.7113 33.246 94.0006 33.778C94.29 34.31 94.4346 34.912 94.4346 35.584C94.4346 36.256 94.29 36.858 94.0006 37.39C93.7113 37.922 93.3146 38.342 92.8106 38.65C92.316 38.958 91.756 39.112 91.1306 39.112ZM91.1166 38.216C91.5646 38.216 91.9613 38.104 92.3066 37.88C92.652 37.6467 92.9226 37.3293 93.1186 36.928C93.324 36.5267 93.4266 36.0787 93.4266 35.584C93.4266 35.08 93.324 34.632 93.1186 34.24C92.9226 33.8387 92.652 33.526 92.3066 33.302C91.9613 33.0687 91.5646 32.952 91.1166 32.952C90.6686 32.952 90.272 33.0687 89.9266 33.302C89.5813 33.526 89.306 33.8387 89.1006 34.24C88.9046 34.632 88.8066 35.08 88.8066 35.584C88.8066 36.0787 88.9046 36.5267 89.1006 36.928C89.306 37.3293 89.5813 37.6467 89.9266 37.88C90.272 38.104 90.6686 38.216 91.1166 38.216ZM98.4079 39.14C97.8199 39.14 97.3719 39 97.0639 38.72C96.7652 38.4307 96.6159 38.0153 96.6159 37.474V33.008H95.2019V32.168H96.6159V30.292L97.6379 30.054V32.168H99.5979V33.008H97.6379V37.208C97.6379 37.572 97.7126 37.8333 97.8619 37.992C98.0206 38.1507 98.2772 38.23 98.6319 38.23C98.8092 38.23 98.9679 38.216 99.1079 38.188C99.2479 38.16 99.4112 38.1133 99.5979 38.048V38.958C99.4112 39.0233 99.2152 39.07 99.0099 39.098C98.8046 39.126 98.6039 39.14 98.4079 39.14ZM106.323 39L103.523 32.168H104.629L106.841 37.726L109.025 32.168H110.117L107.303 39H106.323ZM113.217 39.126C112.731 39.126 112.302 39.0373 111.929 38.86C111.555 38.6827 111.261 38.44 111.047 38.132C110.841 37.8147 110.739 37.4507 110.739 37.04C110.739 36.6293 110.846 36.2747 111.061 35.976C111.275 35.668 111.574 35.43 111.957 35.262C112.339 35.094 112.787 35.01 113.301 35.01C113.693 35.01 114.061 35.052 114.407 35.136C114.761 35.22 115.088 35.3553 115.387 35.542V34.604C115.387 34.044 115.237 33.624 114.939 33.344C114.64 33.0547 114.201 32.91 113.623 32.91C113.305 32.91 112.979 32.9567 112.643 33.05C112.316 33.1433 111.952 33.2927 111.551 33.498L111.173 32.714C112.087 32.2753 112.946 32.056 113.749 32.056C114.598 32.056 115.251 32.266 115.709 32.686C116.166 33.0967 116.395 33.6893 116.395 34.464V39H115.387V38.202C115.088 38.51 114.757 38.7433 114.393 38.902C114.029 39.0513 113.637 39.126 113.217 39.126ZM111.719 37.012C111.719 37.4133 111.873 37.7353 112.181 37.978C112.498 38.2207 112.913 38.342 113.427 38.342C113.809 38.342 114.159 38.2767 114.477 38.146C114.803 38.0153 115.107 37.8193 115.387 37.558V36.242C115.097 36.074 114.799 35.9527 114.491 35.878C114.183 35.794 113.837 35.752 113.455 35.752C112.932 35.752 112.512 35.8687 112.195 36.102C111.877 36.326 111.719 36.6293 111.719 37.012ZM118.472 39V28.892L119.494 28.682V39H118.472ZM121.575 39V32.168H122.597V39H121.575ZM122.093 30.474C121.888 30.474 121.71 30.404 121.561 30.264C121.421 30.1147 121.351 29.942 121.351 29.746C121.351 29.55 121.421 29.382 121.561 29.242C121.71 29.0927 121.888 29.018 122.093 29.018C122.298 29.018 122.471 29.0927 122.611 29.242C122.76 29.382 122.835 29.55 122.835 29.746C122.835 29.942 122.76 30.1147 122.611 30.264C122.471 30.404 122.298 30.474 122.093 30.474ZM127.535 39.098C126.947 39.098 126.415 38.944 125.939 38.636C125.463 38.3187 125.085 37.8987 124.805 37.376C124.525 36.844 124.385 36.2513 124.385 35.598C124.385 34.9353 124.525 34.3427 124.805 33.82C125.094 33.288 125.481 32.868 125.967 32.56C126.452 32.2427 126.993 32.084 127.591 32.084C128.011 32.084 128.403 32.168 128.767 32.336C129.131 32.4947 129.448 32.728 129.719 33.036V28.892L130.741 28.682V39H129.719V38.09C129.457 38.4167 129.14 38.6687 128.767 38.846C128.393 39.014 127.983 39.098 127.535 39.098ZM127.787 38.202C128.188 38.202 128.557 38.1227 128.893 37.964C129.229 37.8053 129.504 37.5813 129.719 37.292V33.904C129.495 33.6147 129.21 33.3907 128.865 33.232C128.529 33.064 128.169 32.98 127.787 32.98C127.329 32.98 126.919 33.092 126.555 33.316C126.2 33.54 125.915 33.848 125.701 34.24C125.495 34.632 125.393 35.08 125.393 35.584C125.393 36.0787 125.495 36.5267 125.701 36.928C125.915 37.32 126.2 37.6327 126.555 37.866C126.919 38.09 127.329 38.202 127.787 38.202ZM134.955 39.126C134.47 39.126 134.04 39.0373 133.667 38.86C133.294 38.6827 133 38.44 132.785 38.132C132.58 37.8147 132.477 37.4507 132.477 37.04C132.477 36.6293 132.584 36.2747 132.799 35.976C133.014 35.668 133.312 35.43 133.695 35.262C134.078 35.094 134.526 35.01 135.039 35.01C135.431 35.01 135.8 35.052 136.145 35.136C136.5 35.22 136.826 35.3553 137.125 35.542V34.604C137.125 34.044 136.976 33.624 136.677 33.344C136.378 33.0547 135.94 32.91 135.361 32.91C135.044 32.91 134.717 32.9567 134.381 33.05C134.054 33.1433 133.69 33.2927 133.289 33.498L132.911 32.714C133.826 32.2753 134.684 32.056 135.487 32.056C136.336 32.056 136.99 32.266 137.447 32.686C137.904 33.0967 138.133 33.6893 138.133 34.464V39H137.125V38.202C136.826 38.51 136.495 38.7433 136.131 38.902C135.767 39.0513 135.375 39.126 134.955 39.126ZM133.457 37.012C133.457 37.4133 133.611 37.7353 133.919 37.978C134.236 38.2207 134.652 38.342 135.165 38.342C135.548 38.342 135.898 38.2767 136.215 38.146C136.542 38.0153 136.845 37.8193 137.125 37.558V36.242C136.836 36.074 136.537 35.9527 136.229 35.878C135.921 35.794 135.576 35.752 135.193 35.752C134.67 35.752 134.25 35.8687 133.933 36.102C133.616 36.326 133.457 36.6293 133.457 37.012ZM142.609 39.14C142.021 39.14 141.573 39 141.265 38.72C140.966 38.4307 140.817 38.0153 140.817 37.474V33.008H139.403V32.168H140.817V30.292L141.839 30.054V32.168H143.799V33.008H141.839V37.208C141.839 37.572 141.914 37.8333 142.063 37.992C142.222 38.1507 142.478 38.23 142.833 38.23C143.01 38.23 143.169 38.216 143.309 38.188C143.449 38.16 143.612 38.1133 143.799 38.048V38.958C143.612 39.0233 143.416 39.07 143.211 39.098C143.006 39.126 142.805 39.14 142.609 39.14ZM148.239 39.14C147.605 39.14 147.031 38.986 146.517 38.678C146.004 38.3607 145.598 37.936 145.299 37.404C145.001 36.8627 144.851 36.256 144.851 35.584C144.851 34.912 144.991 34.31 145.271 33.778C145.561 33.246 145.948 32.826 146.433 32.518C146.919 32.21 147.46 32.056 148.057 32.056C148.664 32.056 149.201 32.21 149.667 32.518C150.143 32.8167 150.517 33.2273 150.787 33.75C151.067 34.2633 151.207 34.8467 151.207 35.5V35.808H145.845C145.883 36.2747 146.009 36.6947 146.223 37.068C146.447 37.432 146.737 37.7213 147.091 37.936C147.455 38.1413 147.852 38.244 148.281 38.244C148.636 38.244 148.977 38.1833 149.303 38.062C149.639 37.9313 149.924 37.7587 150.157 37.544L150.801 38.23C150.409 38.538 150.003 38.7667 149.583 38.916C149.163 39.0653 148.715 39.14 148.239 39.14ZM145.873 35.08H150.199C150.153 34.6693 150.027 34.3053 149.821 33.988C149.625 33.6613 149.373 33.4047 149.065 33.218C148.767 33.0313 148.431 32.938 148.057 32.938C147.684 32.938 147.343 33.0313 147.035 33.218C146.727 33.3953 146.471 33.6473 146.265 33.974C146.069 34.2913 145.939 34.66 145.873 35.08ZM159.286 39.112C158.651 39.112 158.077 38.958 157.564 38.65C157.06 38.3327 156.659 37.908 156.36 37.376C156.061 36.8347 155.912 36.2373 155.912 35.584C155.912 34.9213 156.061 34.324 156.36 33.792C156.659 33.26 157.06 32.84 157.564 32.532C158.077 32.2147 158.651 32.056 159.286 32.056C159.79 32.056 160.271 32.1493 160.728 32.336C161.185 32.5227 161.582 32.784 161.918 33.12L161.26 33.834C161.017 33.5633 160.723 33.3533 160.378 33.204C160.033 33.0547 159.683 32.98 159.328 32.98C158.88 32.98 158.474 33.0967 158.11 33.33C157.755 33.5633 157.471 33.876 157.256 34.268C157.041 34.66 156.934 35.0987 156.934 35.584C156.934 36.0693 157.041 36.508 157.256 36.9C157.471 37.292 157.755 37.6047 158.11 37.838C158.474 38.0713 158.88 38.188 159.328 38.188C159.683 38.188 160.033 38.1133 160.378 37.964C160.723 37.8053 161.017 37.5953 161.26 37.334L161.918 38.048C161.582 38.384 161.185 38.6453 160.728 38.832C160.271 39.0187 159.79 39.112 159.286 39.112ZM163.343 39V32.168H164.365V33.568C164.542 33.092 164.794 32.7233 165.121 32.462C165.457 32.1913 165.84 32.056 166.269 32.056C166.39 32.056 166.502 32.0653 166.605 32.084C166.708 32.0933 166.81 32.1167 166.913 32.154V33.078C166.801 33.0407 166.68 33.0127 166.549 32.994C166.428 32.966 166.311 32.952 166.199 32.952C165.779 32.952 165.41 33.0733 165.093 33.316C164.785 33.5587 164.542 33.8993 164.365 34.338V39H163.343ZM170.921 39.14C170.286 39.14 169.712 38.986 169.199 38.678C168.686 38.3607 168.28 37.936 167.981 37.404C167.682 36.8627 167.533 36.256 167.533 35.584C167.533 34.912 167.673 34.31 167.953 33.778C168.242 33.246 168.63 32.826 169.115 32.518C169.6 32.21 170.142 32.056 170.739 32.056C171.346 32.056 171.882 32.21 172.349 32.518C172.825 32.8167 173.198 33.2273 173.469 33.75C173.749 34.2633 173.889 34.8467 173.889 35.5V35.808H168.527C168.564 36.2747 168.69 36.6947 168.905 37.068C169.129 37.432 169.418 37.7213 169.773 37.936C170.137 38.1413 170.534 38.244 170.963 38.244C171.318 38.244 171.658 38.1833 171.985 38.062C172.321 37.9313 172.606 37.7587 172.839 37.544L173.483 38.23C173.091 38.538 172.685 38.7667 172.265 38.916C171.845 39.0653 171.397 39.14 170.921 39.14ZM168.555 35.08H172.881C172.834 34.6693 172.708 34.3053 172.503 33.988C172.307 33.6613 172.055 33.4047 171.747 33.218C171.448 33.0313 171.112 32.938 170.739 32.938C170.366 32.938 170.025 33.0313 169.717 33.218C169.409 33.3953 169.152 33.6473 168.947 33.974C168.751 34.2913 168.62 34.66 168.555 35.08ZM178.476 39.098C177.888 39.098 177.356 38.944 176.88 38.636C176.404 38.3187 176.026 37.8987 175.746 37.376C175.466 36.844 175.326 36.2513 175.326 35.598C175.326 34.9353 175.466 34.3427 175.746 33.82C176.035 33.288 176.423 32.868 176.908 32.56C177.393 32.2427 177.935 32.084 178.532 32.084C178.952 32.084 179.344 32.168 179.708 32.336C180.072 32.4947 180.389 32.728 180.66 33.036V28.892L181.682 28.682V39H180.66V38.09C180.399 38.4167 180.081 38.6687 179.708 38.846C179.335 39.014 178.924 39.098 178.476 39.098ZM178.728 38.202C179.129 38.202 179.498 38.1227 179.834 37.964C180.17 37.8053 180.445 37.5813 180.66 37.292V33.904C180.436 33.6147 180.151 33.3907 179.806 33.232C179.47 33.064 179.111 32.98 178.728 32.98C178.271 32.98 177.86 33.092 177.496 33.316C177.141 33.54 176.857 33.848 176.642 34.24C176.437 34.632 176.334 35.08 176.334 35.584C176.334 36.0787 176.437 36.5267 176.642 36.928C176.857 37.32 177.141 37.6327 177.496 37.866C177.86 38.09 178.271 38.202 178.728 38.202ZM186.862 39.14C186.228 39.14 185.654 38.986 185.14 38.678C184.627 38.3607 184.221 37.936 183.922 37.404C183.624 36.8627 183.474 36.256 183.474 35.584C183.474 34.912 183.614 34.31 183.894 33.778C184.184 33.246 184.571 32.826 185.056 32.518C185.542 32.21 186.083 32.056 186.68 32.056C187.287 32.056 187.824 32.21 188.29 32.518C188.766 32.8167 189.14 33.2273 189.41 33.75C189.69 34.2633 189.83 34.8467 189.83 35.5V35.808H184.468C184.506 36.2747 184.632 36.6947 184.846 37.068C185.07 37.432 185.36 37.7213 185.714 37.936C186.078 38.1413 186.475 38.244 186.904 38.244C187.259 38.244 187.6 38.1833 187.926 38.062C188.262 37.9313 188.547 37.7587 188.78 37.544L189.424 38.23C189.032 38.538 188.626 38.7667 188.206 38.916C187.786 39.0653 187.338 39.14 186.862 39.14ZM184.496 35.08H188.822C188.776 34.6693 188.65 34.3053 188.444 33.988C188.248 33.6613 187.996 33.4047 187.688 33.218C187.39 33.0313 187.054 32.938 186.68 32.938C186.307 32.938 185.966 33.0313 185.658 33.218C185.35 33.3953 185.094 33.6473 184.888 33.974C184.692 34.2913 184.562 34.66 184.496 35.08ZM191.575 39V32.168H192.597V33.274C192.859 32.8633 193.171 32.56 193.535 32.364C193.899 32.1587 194.31 32.056 194.767 32.056C195.262 32.056 195.691 32.1633 196.055 32.378C196.429 32.5833 196.718 32.8773 196.923 33.26C197.138 33.6333 197.245 34.072 197.245 34.576V39H196.223V34.87C196.223 34.2633 196.055 33.7873 195.719 33.442C195.393 33.0873 194.949 32.91 194.389 32.91C194.016 32.91 193.675 32.9987 193.367 33.176C193.059 33.3533 192.803 33.6147 192.597 33.96V39H191.575ZM201.699 39.14C201.111 39.14 200.663 39 200.355 38.72C200.056 38.4307 199.907 38.0153 199.907 37.474V33.008H198.493V32.168H199.907V30.292L200.929 30.054V32.168H202.889V33.008H200.929V37.208C200.929 37.572 201.004 37.8333 201.153 37.992C201.312 38.1507 201.568 38.23 201.923 38.23C202.1 38.23 202.259 38.216 202.399 38.188C202.539 38.16 202.702 38.1133 202.889 38.048V38.958C202.702 39.0233 202.506 39.07 202.301 39.098C202.096 39.126 201.895 39.14 201.699 39.14ZM204.372 39V32.168H205.394V39H204.372ZM204.89 30.474C204.685 30.474 204.507 30.404 204.358 30.264C204.218 30.1147 204.148 29.942 204.148 29.746C204.148 29.55 204.218 29.382 204.358 29.242C204.507 29.0927 204.685 29.018 204.89 29.018C205.095 29.018 205.268 29.0927 205.408 29.242C205.557 29.382 205.632 29.55 205.632 29.746C205.632 29.942 205.557 30.1147 205.408 30.264C205.268 30.404 205.095 30.474 204.89 30.474ZM209.603 39.126C209.118 39.126 208.689 39.0373 208.315 38.86C207.942 38.6827 207.648 38.44 207.433 38.132C207.228 37.8147 207.125 37.4507 207.125 37.04C207.125 36.6293 207.233 36.2747 207.447 35.976C207.662 35.668 207.961 35.43 208.343 35.262C208.726 35.094 209.174 35.01 209.687 35.01C210.079 35.01 210.448 35.052 210.793 35.136C211.148 35.22 211.475 35.3553 211.773 35.542V34.604C211.773 34.044 211.624 33.624 211.325 33.344C211.027 33.0547 210.588 32.91 210.009 32.91C209.692 32.91 209.365 32.9567 209.029 33.05C208.703 33.1433 208.339 33.2927 207.937 33.498L207.559 32.714C208.474 32.2753 209.333 32.056 210.135 32.056C210.985 32.056 211.638 32.266 212.095 32.686C212.553 33.0967 212.781 33.6893 212.781 34.464V39H211.773V38.202C211.475 38.51 211.143 38.7433 210.779 38.902C210.415 39.0513 210.023 39.126 209.603 39.126ZM208.105 37.012C208.105 37.4133 208.259 37.7353 208.567 37.978C208.885 38.2207 209.3 38.342 209.813 38.342C210.196 38.342 210.546 38.2767 210.863 38.146C211.19 38.0153 211.493 37.8193 211.773 37.558V36.242C211.484 36.074 211.185 35.9527 210.877 35.878C210.569 35.794 210.224 35.752 209.841 35.752C209.319 35.752 208.899 35.8687 208.581 36.102C208.264 36.326 208.105 36.6293 208.105 37.012ZM214.859 39V28.892L215.881 28.682V39H214.859ZM220.09 39.14C219.53 39.14 219.012 39.056 218.536 38.888C218.06 38.7107 217.654 38.4587 217.318 38.132L217.864 37.46C218.274 37.7587 218.652 37.978 218.998 38.118C219.343 38.2487 219.698 38.314 220.062 38.314C220.556 38.314 220.967 38.1973 221.294 37.964C221.62 37.7307 221.784 37.432 221.784 37.068C221.784 36.788 221.686 36.5687 221.49 36.41C221.303 36.2513 220.99 36.13 220.552 36.046L219.432 35.85C218.769 35.7287 218.279 35.5233 217.962 35.234C217.654 34.9447 217.5 34.5527 217.5 34.058C217.5 33.666 217.602 33.3207 217.808 33.022C218.022 32.7233 218.316 32.49 218.69 32.322C219.063 32.1447 219.488 32.056 219.964 32.056C220.43 32.056 220.874 32.126 221.294 32.266C221.714 32.3967 222.138 32.6113 222.568 32.91L222.064 33.624C221.709 33.372 221.354 33.19 221 33.078C220.645 32.9567 220.286 32.896 219.922 32.896C219.474 32.896 219.114 32.994 218.844 33.19C218.573 33.386 218.438 33.652 218.438 33.988C218.438 34.268 218.522 34.4827 218.69 34.632C218.867 34.7813 219.175 34.8933 219.614 34.968L220.762 35.178C221.452 35.2993 221.956 35.5093 222.274 35.808C222.591 36.1067 222.75 36.508 222.75 37.012C222.75 37.4133 222.633 37.7773 222.4 38.104C222.166 38.4213 221.849 38.6733 221.448 38.86C221.046 39.0467 220.594 39.14 220.09 39.14Z" fill="#151515"/>
<path d="M39 71.5C39 67.0817 42.5817 63.5 47 63.5H254V79.5H47C42.5817 79.5 39 75.9183 39 71.5Z" fill="#B1380B"/>
<path d="M254 63.5H614C618.418 63.5 622 67.0817 622 71.5C622 75.9183 618.418 79.5 614 79.5H254V63.5Z" fill="#E0E0E0"/>
<path d="M643.329 76.154C642.657 76.154 642.027 76.0373 641.439 75.804C640.86 75.5707 640.347 75.2253 639.899 74.768L640.571 74.11C640.982 74.5207 641.402 74.8193 641.831 75.006C642.27 75.1833 642.764 75.272 643.315 75.272C643.791 75.272 644.211 75.188 644.575 75.02C644.948 74.852 645.238 74.6187 645.443 74.32C645.648 74.0213 645.751 73.6807 645.751 73.298C645.751 72.934 645.658 72.612 645.471 72.332C645.294 72.0427 645.046 71.8187 644.729 71.66C644.412 71.5013 644.048 71.422 643.637 71.422H642.475V70.554H643.595C644.127 70.554 644.556 70.3907 644.883 70.064C645.219 69.7373 645.387 69.3127 645.387 68.79C645.387 68.4447 645.294 68.132 645.107 67.852C644.92 67.572 644.664 67.3527 644.337 67.194C644.02 67.026 643.66 66.942 643.259 66.942C642.755 66.942 642.302 67.0353 641.901 67.222C641.509 67.3993 641.108 67.7027 640.697 68.132L640.025 67.46C640.464 66.9933 640.958 66.6433 641.509 66.41C642.06 66.1673 642.648 66.046 643.273 66.046C643.87 66.046 644.402 66.1627 644.869 66.396C645.345 66.6293 645.718 66.9513 645.989 67.362C646.26 67.7633 646.395 68.2207 646.395 68.734C646.395 69.2473 646.227 69.7093 645.891 70.12C645.555 70.5213 645.112 70.8013 644.561 70.96C645.224 71.1093 645.756 71.3987 646.157 71.828C646.558 72.2573 646.759 72.7567 646.759 73.326C646.759 73.8673 646.61 74.3527 646.311 74.782C646.022 75.2113 645.616 75.5473 645.093 75.79C644.58 76.0327 643.992 76.154 643.329 76.154ZM651.395 76.154C650.723 76.154 650.093 76.0373 649.505 75.804C648.927 75.5707 648.413 75.2253 647.965 74.768L648.637 74.11C649.048 74.5207 649.468 74.8193 649.897 75.006C650.336 75.1833 650.831 75.272 651.381 75.272C651.857 75.272 652.277 75.188 652.641 75.02C653.015 74.852 653.304 74.6187 653.509 74.32C653.715 74.0213 653.817 73.6807 653.817 73.298C653.817 72.934 653.724 72.612 653.537 72.332C653.36 72.0427 653.113 71.8187 652.795 71.66C652.478 71.5013 652.114 71.422 651.703 71.422H650.541V70.554H651.661C652.193 70.554 652.623 70.3907 652.949 70.064C653.285 69.7373 653.453 69.3127 653.453 68.79C653.453 68.4447 653.36 68.132 653.173 67.852C652.987 67.572 652.73 67.3527 652.403 67.194C652.086 67.026 651.727 66.942 651.325 66.942C650.821 66.942 650.369 67.0353 649.967 67.222C649.575 67.3993 649.174 67.7027 648.763 68.132L648.091 67.46C648.53 66.9933 649.025 66.6433 649.575 66.41C650.126 66.1673 650.714 66.046 651.339 66.046C651.937 66.046 652.469 66.1627 652.935 66.396C653.411 66.6293 653.785 66.9513 654.055 67.362C654.326 67.7633 654.461 68.2207 654.461 68.734C654.461 69.2473 654.293 69.7093 653.957 70.12C653.621 70.5213 653.178 70.8013 652.627 70.96C653.29 71.1093 653.822 71.3987 654.223 71.828C654.625 72.2573 654.825 72.7567 654.825 73.326C654.825 73.8673 654.676 74.3527 654.377 74.782C654.088 75.2113 653.682 75.5473 653.159 75.79C652.646 76.0327 652.058 76.154 651.395 76.154ZM658.1 71.17C657.494 71.17 656.999 70.9367 656.616 70.47C656.243 70.0033 656.056 69.3967 656.056 68.65C656.056 67.9033 656.243 67.2967 656.616 66.83C656.999 66.3633 657.494 66.13 658.1 66.13C658.707 66.13 659.197 66.3633 659.57 66.83C659.953 67.2967 660.144 67.9033 660.144 68.65C660.144 69.3967 659.953 70.0033 659.57 70.47C659.197 70.9367 658.707 71.17 658.1 71.17ZM658.1 70.54C658.511 70.54 658.838 70.372 659.08 70.036C659.323 69.6907 659.444 69.2287 659.444 68.65C659.444 68.0713 659.323 67.614 659.08 67.278C658.838 66.9327 658.511 66.76 658.1 66.76C657.699 66.76 657.372 66.9327 657.12 67.278C656.878 67.614 656.756 68.0713 656.756 68.65C656.756 69.2287 656.878 69.6907 657.12 70.036C657.372 70.372 657.699 70.54 658.1 70.54ZM657.666 76L663.168 66.2H663.98L658.464 76H657.666ZM663.56 76.07C662.954 76.07 662.459 75.8367 662.076 75.37C661.703 74.9033 661.516 74.2967 661.516 73.55C661.516 72.8033 661.703 72.1967 662.076 71.73C662.459 71.2633 662.954 71.03 663.56 71.03C664.167 71.03 664.657 71.2633 665.03 71.73C665.413 72.1967 665.604 72.8033 665.604 73.55C665.604 74.2967 665.413 74.9033 665.03 75.37C664.657 75.8367 664.167 76.07 663.56 76.07ZM663.56 75.44C663.971 75.44 664.298 75.272 664.54 74.936C664.783 74.5907 664.904 74.1287 664.904 73.55C664.904 72.9713 664.783 72.514 664.54 72.178C664.298 71.8327 663.971 71.66 663.56 71.66C663.159 71.66 662.832 71.8327 662.58 72.178C662.338 72.514 662.216 72.9713 662.216 73.55C662.216 74.1287 662.338 74.5907 662.58 74.936C662.832 75.272 663.159 75.44 663.56 75.44Z" fill="#151515"/>
<path d="M680.781 65C684.526 65 687.562 68.0374 687.562 71.7812C687.562 75.5272 684.526 78.5625 680.781 78.5625C677.036 78.5625 674 75.5272 674 71.7812C674 68.0374 677.036 65 680.781 65ZM680.781 73.1484C680.087 73.1484 679.523 73.7116 679.523 74.4062C679.523 75.1009 680.087 75.6641 680.781 75.6641C681.476 75.6641 682.039 75.1009 682.039 74.4062C682.039 73.7116 681.476 73.1484 680.781 73.1484ZM679.915 68.2812C679.727 68.2812 679.577 68.4391 679.587 68.627L679.79 72.3457C679.8 72.5196 679.943 72.6561 680.117 72.6562H681.445C681.619 72.6561 681.763 72.5196 681.772 72.3457L681.976 68.627C681.986 68.4391 681.836 68.2812 681.647 68.2812H679.915Z" fill="#B1380B"/>
</svg>
