<svg width="1155" height="192" viewBox="0 0 1155 192" fill="none" xmlns="http://www.w3.org/2000/svg">
<rect width="1155" height="192" fill="white"/>
<rect width="1117" height="69" transform="translate(19 20)" fill="#F2F2F2"/>
<path fill-rule="evenodd" clip-rule="evenodd" d="M71.7143 48.869C72.1482 48.869 72.5 48.5173 72.5 48.0833V46.119C72.5 45.6851 72.1482 45.3333 71.7143 45.3333H51.2857C50.8518 45.3333 50.5 45.6851 50.5 46.119V48.0833C50.5 48.5173 50.8518 48.869 51.2857 48.869H71.7143ZM71.7143 56.7262C72.1482 56.7262 72.5 56.3744 72.5 55.9405V53.9762C72.5 53.5422 72.1482 53.1905 71.7143 53.1905H51.2857C50.8518 53.1905 50.5 53.5422 50.5 53.9762V55.9405C50.5 56.3744 50.8518 56.7262 51.2857 56.7262H71.7143ZM71.7143 64.5833C72.1482 64.5833 72.5 64.2316 72.5 63.7976V61.8333C72.5 61.3994 72.1482 61.0476 71.7143 61.0476H51.2857C50.8518 61.0476 50.5 61.3994 50.5 61.8333V63.7976C50.5 64.2316 50.8518 64.5833 51.2857 64.5833H71.7143Z" fill="#1F1F1F"/>
<g clip-path="url(#clip0_121_25971)">
<path d="M144.241 61.9937V47.2405H152.018C152.987 47.2405 153.848 47.4478 154.599 47.8623C155.351 48.2768 155.945 48.8423 156.38 49.5589C156.816 50.2755 157.034 51.0974 157.034 52.0248C157.034 52.91 156.816 53.7073 156.38 54.4169C155.945 55.1265 155.348 55.685 154.589 56.0924C153.83 56.4999 152.973 56.7036 152.018 56.7036H147.866V61.9937H144.241ZM147.866 53.7109H151.596C152.13 53.7109 152.558 53.5563 152.882 53.2472C153.205 52.9381 153.366 52.5376 153.366 52.0459C153.366 51.54 153.205 51.1291 152.882 50.8129C152.558 50.4968 152.13 50.3387 151.596 50.3387H147.866V53.7109Z" fill="#1F1F1F"/>
<path d="M162.282 62.1833C161.495 62.1833 160.796 62.0358 160.184 61.7408C159.573 61.4457 159.096 61.0382 158.751 60.5183C158.407 59.9985 158.235 59.4013 158.235 58.7269C158.235 57.659 158.639 56.8336 159.447 56.2505C160.255 55.6674 161.382 55.3758 162.829 55.3758C163.701 55.3758 164.544 55.4812 165.359 55.692V55.144C165.359 54.034 164.649 53.479 163.23 53.479C162.387 53.479 161.263 53.774 159.858 54.3642L158.635 51.8561C160.434 51.0412 162.169 50.6337 163.841 50.6337C165.387 50.6337 166.588 51.0026 167.445 51.7402C168.302 52.4779 168.731 53.5141 168.731 54.8489V61.9937H165.359V61.3192C164.909 61.6283 164.435 61.8496 163.936 61.9831C163.437 62.1166 162.886 62.1833 162.282 62.1833ZM161.481 58.6637C161.481 59.0149 161.635 59.2889 161.944 59.4856C162.253 59.6823 162.682 59.7807 163.23 59.7807C164.073 59.7807 164.783 59.6051 165.359 59.2538V57.8206C164.712 57.652 164.038 57.5677 163.335 57.5677C162.745 57.5677 162.289 57.6626 161.965 57.8522C161.642 58.0419 161.481 58.3124 161.481 58.6637Z" fill="#1F1F1F"/>
<path d="M176.381 62.1412C173.684 62.1412 172.335 60.961 172.335 58.6005V53.6898H170.08V50.8445H172.335V47.9782L175.749 47.2405V50.8445H178.868V53.6898H175.749V57.926C175.749 58.4178 175.858 58.7656 176.076 58.9693C176.294 59.173 176.676 59.2749 177.224 59.2749C177.73 59.2749 178.243 59.1976 178.763 59.0431V61.804C178.454 61.9024 178.06 61.9832 177.583 62.0464C177.105 62.1096 176.704 62.1412 176.381 62.1412Z" fill="#1F1F1F"/>
<path d="M185.823 62.1412C183.126 62.1412 181.777 60.961 181.777 58.6005V53.6898H179.522V50.8445H181.777V47.9782L185.191 47.2405V50.8445H188.31V53.6898H185.191V57.926C185.191 58.4178 185.3 58.7656 185.518 58.9693C185.736 59.173 186.118 59.2749 186.666 59.2749C187.172 59.2749 187.685 59.1976 188.205 59.0431V61.804C187.896 61.9024 187.502 61.9832 187.025 62.0464C186.547 62.1096 186.147 62.1412 185.823 62.1412Z" fill="#1F1F1F"/>
<path d="M195.202 62.2045C194.064 62.2045 193.035 61.948 192.115 61.4352C191.194 60.9223 190.467 60.2304 189.933 59.3592C189.399 58.4881 189.132 57.5116 189.132 56.4297C189.132 55.3478 189.389 54.3712 189.902 53.5001C190.414 52.629 191.113 51.937 191.999 51.4241C192.884 50.9113 193.867 50.6548 194.949 50.6548C196.045 50.6548 197.015 50.9183 197.858 51.4452C198.701 51.9721 199.365 52.6922 199.849 53.6055C200.334 54.5188 200.577 55.5655 200.577 56.7458V57.5888H192.631C192.856 58.1087 193.207 58.5337 193.685 58.8639C194.162 59.1941 194.724 59.3592 195.371 59.3592C196.326 59.3592 197.071 59.0782 197.605 58.5162L199.86 60.5184C199.157 61.1085 198.437 61.5371 197.7 61.804C196.962 62.071 196.129 62.2045 195.202 62.2045ZM192.568 55.2073H197.225C197.043 54.6733 196.744 54.2448 196.33 53.9216C195.915 53.5985 195.434 53.4369 194.886 53.4369C194.324 53.4369 193.839 53.5914 193.432 53.9005C193.024 54.2097 192.736 54.6452 192.568 55.2073Z" fill="#1F1F1F"/>
<path d="M202.178 61.9937V50.8445H205.593V51.9616C206.351 51.0483 207.328 50.5916 208.522 50.5916C209.126 50.6057 209.555 50.697 209.808 50.8656V53.8373C209.33 53.6125 208.789 53.5001 208.185 53.5001C207.651 53.5001 207.156 53.623 206.699 53.8689C206.242 54.1148 205.874 54.4626 205.593 54.9122V61.9937H202.178Z" fill="#1F1F1F"/>
<path d="M211.283 61.9937V50.8445H214.697V51.6032C215.54 50.9569 216.538 50.6337 217.69 50.6337C218.561 50.6337 219.331 50.8234 219.998 51.2028C220.665 51.5821 221.189 52.109 221.568 52.7835C221.948 53.4579 222.137 54.2377 222.137 55.1229V61.9937H218.723V55.5866C218.723 54.9683 218.54 54.4766 218.175 54.1113C217.81 53.7459 217.318 53.5633 216.7 53.5633C215.843 53.5633 215.175 53.8583 214.697 54.4485V61.9937H211.283Z" fill="#1F1F1F"/>
<path d="M224.329 61.9937V47.2405H236.047V50.3809H227.954V53.1418H233.35V56.1767H227.954V61.9937H224.329Z" fill="#1F1F1F"/>
<path d="M237.902 61.9937V47.2405L241.316 46.7136V61.9937H237.902Z" fill="#1F1F1F"/>
<path d="M244.752 66.5461C244.485 66.5461 244.225 66.5355 243.972 66.5145C243.719 66.4934 243.508 66.4618 243.34 66.4196V63.5111C243.621 63.5673 243.972 63.5954 244.393 63.5954C245.489 63.5954 246.227 63.1177 246.606 62.1623V62.1412L242.328 50.8445H246.101L248.566 57.8628L251.433 50.8445H255.121L250.126 62.5627C249.719 63.5322 249.269 64.3085 248.777 64.8916C248.285 65.4747 247.716 65.8962 247.07 66.1562C246.424 66.4161 245.651 66.5461 244.752 66.5461Z" fill="#1F1F1F"/>
<path fill-rule="evenodd" clip-rule="evenodd" d="M110.478 36H133V58.5217H130.587C119.481 58.5217 110.478 49.5188 110.478 38.413V36Z" fill="#0066CC"/>
<path fill-rule="evenodd" clip-rule="evenodd" d="M133 36.8043L111.283 73H128.316C130.903 73 133 70.9031 133 68.3164V36.8043Z" fill="url(#paint0_linear_121_25971)"/>
<path fill-rule="evenodd" clip-rule="evenodd" d="M132.196 36L96 57.7174V40.6836C96 38.0969 98.0969 36 100.684 36H132.196Z" fill="url(#paint1_linear_121_25971)"/>
</g>
<mask id="path-16-inside-1_121_25971" fill="white">
<path d="M297 42C297 38.6863 299.686 36 303 36H531C534.314 36 537 38.6863 537 42V67C537 70.3137 534.314 73 531 73H303C299.686 73 297 70.3137 297 67V42Z"/>
</mask>
<path d="M297 42C297 38.6863 299.686 36 303 36H531C534.314 36 537 38.6863 537 42V67C537 70.3137 534.314 73 531 73H303C299.686 73 297 70.3137 297 67V42Z" fill="white"/>
<path d="M303 37H531V35H303V37ZM536 42V67H538V42H536ZM531 72H303V74H531V72ZM298 67V42H296V67H298ZM303 72C300.239 72 298 69.7614 298 67H296C296 70.866 299.134 74 303 74V72ZM536 67C536 69.7614 533.761 72 531 72V74C534.866 74 538 70.866 538 67H536ZM531 37C533.761 37 536 39.2386 536 42H538C538 38.134 534.866 35 531 35V37ZM303 35C299.134 35 296 38.134 296 42H298C298 39.2386 300.239 37 303 37V35Z" fill="#C7C7C7" mask="url(#path-16-inside-1_121_25971)"/>
<path d="M318.768 59.154C318.068 59.154 317.415 59.028 316.808 58.776C316.211 58.5147 315.683 58.1553 315.226 57.698C314.769 57.2313 314.414 56.6947 314.162 56.088C313.91 55.472 313.784 54.8093 313.784 54.1C313.784 53.3907 313.91 52.7327 314.162 52.126C314.414 51.51 314.769 50.9733 315.226 50.516C315.683 50.0493 316.211 49.69 316.808 49.438C317.415 49.1767 318.068 49.046 318.768 49.046C319.253 49.046 319.715 49.1113 320.154 49.242C320.602 49.3633 321.022 49.5453 321.414 49.788C321.806 50.0213 322.156 50.3107 322.464 50.656L321.75 51.398C321.386 50.9593 320.938 50.6233 320.406 50.39C319.883 50.1473 319.337 50.026 318.768 50.026C318.217 50.026 317.704 50.1287 317.228 50.334C316.752 50.5393 316.337 50.8287 315.982 51.202C315.637 51.5753 315.366 52.0093 315.17 52.504C314.974 52.9893 314.876 53.5213 314.876 54.1C314.876 54.6693 314.974 55.2013 315.17 55.696C315.366 56.1907 315.637 56.6247 315.982 56.998C316.337 57.3713 316.752 57.6607 317.228 57.866C317.704 58.0713 318.217 58.174 318.768 58.174C319.337 58.174 319.883 58.0527 320.406 57.81C320.938 57.5673 321.386 57.2313 321.75 56.802L322.464 57.544C322.156 57.8893 321.806 58.1833 321.414 58.426C321.022 58.6593 320.602 58.8413 320.154 58.972C319.715 59.0933 319.253 59.154 318.768 59.154ZM327.027 59.112C326.392 59.112 325.823 58.958 325.319 58.65C324.815 58.342 324.418 57.922 324.129 57.39C323.84 56.858 323.695 56.256 323.695 55.584C323.695 54.912 323.84 54.31 324.129 53.778C324.418 53.246 324.815 52.826 325.319 52.518C325.823 52.21 326.392 52.056 327.027 52.056C327.652 52.056 328.212 52.21 328.707 52.518C329.211 52.826 329.608 53.246 329.897 53.778C330.186 54.31 330.331 54.912 330.331 55.584C330.331 56.256 330.186 56.858 329.897 57.39C329.608 57.922 329.211 58.342 328.707 58.65C328.212 58.958 327.652 59.112 327.027 59.112ZM327.013 58.216C327.461 58.216 327.858 58.104 328.203 57.88C328.548 57.6467 328.819 57.3293 329.015 56.928C329.22 56.5267 329.323 56.0787 329.323 55.584C329.323 55.08 329.22 54.632 329.015 54.24C328.819 53.8387 328.548 53.526 328.203 53.302C327.858 53.0687 327.461 52.952 327.013 52.952C326.565 52.952 326.168 53.0687 325.823 53.302C325.478 53.526 325.202 53.8387 324.997 54.24C324.801 54.632 324.703 55.08 324.703 55.584C324.703 56.0787 324.801 56.5267 324.997 56.928C325.202 57.3293 325.478 57.6467 325.823 57.88C326.168 58.104 326.565 58.216 327.013 58.216ZM332.124 59V52.168H333.146V53.274C333.408 52.8633 333.72 52.56 334.084 52.364C334.448 52.1587 334.859 52.056 335.316 52.056C335.811 52.056 336.24 52.1633 336.604 52.378C336.978 52.5833 337.267 52.8773 337.472 53.26C337.687 53.6333 337.794 54.072 337.794 54.576V59H336.772V54.87C336.772 54.2633 336.604 53.7873 336.268 53.442C335.942 53.0873 335.498 52.91 334.938 52.91C334.565 52.91 334.224 52.9987 333.916 53.176C333.608 53.3533 333.352 53.6147 333.146 53.96V59H332.124ZM342.248 59.14C341.66 59.14 341.212 59 340.904 58.72C340.605 58.4307 340.456 58.0153 340.456 57.474V53.008H339.042V52.168H340.456V50.292L341.478 50.054V52.168H343.438V53.008H341.478V57.208C341.478 57.572 341.552 57.8333 341.702 57.992C341.86 58.1507 342.117 58.23 342.472 58.23C342.649 58.23 342.808 58.216 342.948 58.188C343.088 58.16 343.251 58.1133 343.438 58.048V58.958C343.251 59.0233 343.055 59.07 342.85 59.098C342.644 59.126 342.444 59.14 342.248 59.14ZM347.878 59.14C347.243 59.14 346.669 58.986 346.156 58.678C345.643 58.3607 345.237 57.936 344.938 57.404C344.639 56.8627 344.49 56.256 344.49 55.584C344.49 54.912 344.63 54.31 344.91 53.778C345.199 53.246 345.587 52.826 346.072 52.518C346.557 52.21 347.099 52.056 347.696 52.056C348.303 52.056 348.839 52.21 349.306 52.518C349.782 52.8167 350.155 53.2273 350.426 53.75C350.706 54.2633 350.846 54.8467 350.846 55.5V55.808H345.484C345.521 56.2747 345.647 56.6947 345.862 57.068C346.086 57.432 346.375 57.7213 346.73 57.936C347.094 58.1413 347.491 58.244 347.92 58.244C348.275 58.244 348.615 58.1833 348.942 58.062C349.278 57.9313 349.563 57.7587 349.796 57.544L350.44 58.23C350.048 58.538 349.642 58.7667 349.222 58.916C348.802 59.0653 348.354 59.14 347.878 59.14ZM345.512 55.08H349.838C349.791 54.6693 349.665 54.3053 349.46 53.988C349.264 53.6613 349.012 53.4047 348.704 53.218C348.405 53.0313 348.069 52.938 347.696 52.938C347.323 52.938 346.982 53.0313 346.674 53.218C346.366 53.3953 346.109 53.6473 345.904 53.974C345.708 54.2913 345.577 54.66 345.512 55.08ZM351.299 59L353.917 55.458L351.453 52.168H352.671L354.561 54.772L356.437 52.168H357.599L355.121 55.486L357.753 59H356.535L354.491 56.214L352.461 59H351.299ZM361.457 59.14C360.869 59.14 360.421 59 360.113 58.72C359.814 58.4307 359.665 58.0153 359.665 57.474V53.008H358.251V52.168H359.665V50.292L360.687 50.054V52.168H362.647V53.008H360.687V57.208C360.687 57.572 360.761 57.8333 360.911 57.992C361.069 58.1507 361.326 58.23 361.681 58.23C361.858 58.23 362.017 58.216 362.157 58.188C362.297 58.16 362.46 58.1133 362.647 58.048V58.958C362.46 59.0233 362.264 59.07 362.059 59.098C361.853 59.126 361.653 59.14 361.457 59.14ZM369.525 59.14C368.965 59.14 368.447 59.056 367.971 58.888C367.495 58.7107 367.089 58.4587 366.753 58.132L367.299 57.46C367.71 57.7587 368.088 57.978 368.433 58.118C368.779 58.2487 369.133 58.314 369.497 58.314C369.992 58.314 370.403 58.1973 370.729 57.964C371.056 57.7307 371.219 57.432 371.219 57.068C371.219 56.788 371.121 56.5687 370.925 56.41C370.739 56.2513 370.426 56.13 369.987 56.046L368.867 55.85C368.205 55.7287 367.715 55.5233 367.397 55.234C367.089 54.9447 366.935 54.5527 366.935 54.058C366.935 53.666 367.038 53.3207 367.243 53.022C367.458 52.7233 367.752 52.49 368.125 52.322C368.499 52.1447 368.923 52.056 369.399 52.056C369.866 52.056 370.309 52.126 370.729 52.266C371.149 52.3967 371.574 52.6113 372.003 52.91L371.499 53.624C371.145 53.372 370.79 53.19 370.435 53.078C370.081 52.9567 369.721 52.896 369.357 52.896C368.909 52.896 368.55 52.994 368.279 53.19C368.009 53.386 367.873 53.652 367.873 53.988C367.873 54.268 367.957 54.4827 368.125 54.632C368.303 54.7813 368.611 54.8933 369.049 54.968L370.197 55.178C370.888 55.2993 371.392 55.5093 371.709 55.808C372.027 56.1067 372.185 56.508 372.185 57.012C372.185 57.4133 372.069 57.7773 371.835 58.104C371.602 58.4213 371.285 58.6733 370.883 58.86C370.482 59.0467 370.029 59.14 369.525 59.14ZM374.959 59L373.083 52.168H374.077L375.505 57.628L377.143 52.168H378.053L379.691 57.628L381.105 52.168H382.071L380.209 59H379.215L377.591 53.484L375.967 59H374.959ZM383.503 59V52.168H384.525V59H383.503ZM384.021 50.474C383.815 50.474 383.638 50.404 383.489 50.264C383.349 50.1147 383.279 49.942 383.279 49.746C383.279 49.55 383.349 49.382 383.489 49.242C383.638 49.0927 383.815 49.018 384.021 49.018C384.226 49.018 384.399 49.0927 384.539 49.242C384.688 49.382 384.763 49.55 384.763 49.746C384.763 49.942 384.688 50.1147 384.539 50.264C384.399 50.404 384.226 50.474 384.021 50.474ZM389.224 59.14C388.636 59.14 388.188 59 387.88 58.72C387.582 58.4307 387.432 58.0153 387.432 57.474V53.008H386.018V52.168H387.432V50.292L388.454 50.054V52.168H390.414V53.008H388.454V57.208C388.454 57.572 388.529 57.8333 388.678 57.992C388.837 58.1507 389.094 58.23 389.448 58.23C389.626 58.23 389.784 58.216 389.924 58.188C390.064 58.16 390.228 58.1133 390.414 58.048V58.958C390.228 59.0233 390.032 59.07 389.826 59.098C389.621 59.126 389.42 59.14 389.224 59.14ZM394.841 59.112C394.206 59.112 393.632 58.958 393.119 58.65C392.615 58.3327 392.213 57.908 391.915 57.376C391.616 56.8347 391.467 56.2373 391.467 55.584C391.467 54.9213 391.616 54.324 391.915 53.792C392.213 53.26 392.615 52.84 393.119 52.532C393.632 52.2147 394.206 52.056 394.841 52.056C395.345 52.056 395.825 52.1493 396.283 52.336C396.74 52.5227 397.137 52.784 397.473 53.12L396.815 53.834C396.572 53.5633 396.278 53.3533 395.933 53.204C395.587 53.0547 395.237 52.98 394.883 52.98C394.435 52.98 394.029 53.0967 393.665 53.33C393.31 53.5633 393.025 53.876 392.811 54.268C392.596 54.66 392.489 55.0987 392.489 55.584C392.489 56.0693 392.596 56.508 392.811 56.9C393.025 57.292 393.31 57.6047 393.665 57.838C394.029 58.0713 394.435 58.188 394.883 58.188C395.237 58.188 395.587 58.1133 395.933 57.964C396.278 57.8053 396.572 57.5953 396.815 57.334L397.473 58.048C397.137 58.384 396.74 58.6453 396.283 58.832C395.825 59.0187 395.345 59.112 394.841 59.112ZM398.898 59V48.892L399.92 48.682V53.274C400.181 52.8633 400.494 52.56 400.858 52.364C401.222 52.1587 401.632 52.056 402.09 52.056C402.584 52.056 403.014 52.1633 403.378 52.378C403.751 52.5833 404.04 52.8773 404.246 53.26C404.46 53.6333 404.568 54.072 404.568 54.576V59H403.546V54.87C403.546 54.2633 403.378 53.7873 403.042 53.442C402.715 53.0873 402.272 52.91 401.712 52.91C401.338 52.91 400.998 52.9987 400.69 53.176C400.382 53.3533 400.125 53.6147 399.92 53.96V59H398.898ZM409.702 59.14C409.068 59.14 408.494 58.986 407.98 58.678C407.467 58.3607 407.061 57.936 406.762 57.404C406.464 56.8627 406.314 56.256 406.314 55.584C406.314 54.912 406.454 54.31 406.734 53.778C407.024 53.246 407.411 52.826 407.896 52.518C408.382 52.21 408.923 52.056 409.52 52.056C410.127 52.056 410.664 52.21 411.13 52.518C411.606 52.8167 411.98 53.2273 412.25 53.75C412.53 54.2633 412.67 54.8467 412.67 55.5V55.808H407.308C407.346 56.2747 407.472 56.6947 407.686 57.068C407.91 57.432 408.2 57.7213 408.554 57.936C408.918 58.1413 409.315 58.244 409.744 58.244C410.099 58.244 410.44 58.1833 410.766 58.062C411.102 57.9313 411.387 57.7587 411.62 57.544L412.264 58.23C411.872 58.538 411.466 58.7667 411.046 58.916C410.626 59.0653 410.178 59.14 409.702 59.14ZM407.336 55.08H411.662C411.616 54.6693 411.49 54.3053 411.284 53.988C411.088 53.6613 410.836 53.4047 410.528 53.218C410.23 53.0313 409.894 52.938 409.52 52.938C409.147 52.938 408.806 53.0313 408.498 53.218C408.19 53.3953 407.934 53.6473 407.728 53.974C407.532 54.2913 407.402 54.66 407.336 55.08ZM414.415 59V52.168H415.437V53.568C415.615 53.092 415.867 52.7233 416.193 52.462C416.529 52.1913 416.912 52.056 417.341 52.056C417.463 52.056 417.575 52.0653 417.677 52.084C417.78 52.0933 417.883 52.1167 417.985 52.154V53.078C417.873 53.0407 417.752 53.0127 417.621 52.994C417.5 52.966 417.383 52.952 417.271 52.952C416.851 52.952 416.483 53.0733 416.165 53.316C415.857 53.5587 415.615 53.8993 415.437 54.338V59H414.415Z" fill="#1F1F1F"/>
<path fill-rule="evenodd" clip-rule="evenodd" d="M516.389 57.1715L519.921 53.6102C520.267 53.2616 520.023 52.6667 519.534 52.6667H512.466C511.977 52.6667 511.733 53.2616 512.079 53.6102L515.611 57.1715C515.826 57.3873 516.174 57.3873 516.389 57.1715Z" fill="#1F1F1F"/>
<path d="M807 42C807 38.6863 809.686 36 813 36H851C854.314 36 857 38.6863 857 42V67C857 70.3137 854.314 73 851 73H813C809.686 73 807 70.3137 807 67V42Z" fill="#0066CC"/>
<mask id="path-21-inside-2_121_25971" fill="white">
<path d="M807 42C807 38.6863 809.686 36 813 36H851C854.314 36 857 38.6863 857 42V67C857 70.3137 854.314 73 851 73H813C809.686 73 807 70.3137 807 67V42Z"/>
</mask>
<path d="M807 42C807 38.6863 809.686 36 813 36H851C854.314 36 857 38.6863 857 42V67C857 70.3137 854.314 73 851 73H813C809.686 73 807 70.3137 807 67V42Z" fill="white"/>
<path d="M813 37H851V35H813V37ZM856 42V67H858V42H856ZM851 72H813V74H851V72ZM808 67V42H806V67H808ZM813 72C810.239 72 808 69.7614 808 67H806C806 70.866 809.134 74 813 74V72ZM856 67C856 69.7614 853.761 72 851 72V74C854.866 74 858 70.866 858 67H856ZM851 37C853.761 37 856 39.2386 856 42H858C858 38.134 854.866 35 851 35V37ZM813 35C809.134 35 806 38.134 806 42H808C808 39.2386 810.239 37 813 37V35Z" fill="#C7C7C7" mask="url(#path-21-inside-2_121_25971)"/>
<path fill-rule="evenodd" clip-rule="evenodd" d="M828.539 59.375C829.062 59.375 829.414 58.9484 829.417 58.5C829.418 58.2935 829.345 58.0824 829.181 57.9063C828.653 57.3387 827.664 56.4847 827.664 53.6875C827.664 51.5629 826.175 49.8621 824.166 49.4448V48.875C824.166 48.3918 823.775 48 823.292 48C822.809 48 822.417 48.3918 822.417 48.875V49.4448C820.409 49.8621 818.919 51.5629 818.919 53.6875C818.919 56.4847 817.93 57.3387 817.402 57.9063C817.238 58.0827 817.165 58.2935 817.167 58.5C817.17 58.9484 817.522 59.375 818.044 59.375H828.539ZM823.292 62C824.257 62 825.041 61.2166 825.041 60.25H821.542C821.542 61.2166 822.326 62 823.292 62Z" fill="#1F1F1F"/>
<path d="M837.374 59V50.292L835.806 50.992V50.068L837.752 49.2H838.382V59H837.374ZM844.145 59.154C843.399 59.154 842.736 58.9393 842.157 58.51C841.588 58.0807 841.14 57.488 840.813 56.732C840.487 55.9667 840.323 55.0893 840.323 54.1C840.323 53.1013 840.487 52.224 840.813 51.468C841.14 50.712 841.588 50.1193 842.157 49.69C842.736 49.2607 843.399 49.046 844.145 49.046C844.892 49.046 845.55 49.2607 846.119 49.69C846.698 50.1193 847.151 50.712 847.477 51.468C847.804 52.224 847.967 53.1013 847.967 54.1C847.967 55.0893 847.804 55.9667 847.477 56.732C847.151 57.488 846.698 58.0807 846.119 58.51C845.55 58.9393 844.892 59.154 844.145 59.154ZM844.145 58.244C844.715 58.244 845.205 58.076 845.615 57.74C846.035 57.3947 846.362 56.914 846.595 56.298C846.829 55.6727 846.945 54.94 846.945 54.1C846.945 53.26 846.829 52.532 846.595 51.916C846.362 51.2907 846.035 50.81 845.615 50.474C845.205 50.1287 844.715 49.956 844.145 49.956C843.585 49.956 843.095 50.1287 842.675 50.474C842.255 50.81 841.929 51.2907 841.695 51.916C841.462 52.532 841.345 53.26 841.345 54.1C841.345 54.94 841.462 55.6727 841.695 56.298C841.929 56.914 842.255 57.3947 842.675 57.74C843.095 58.076 843.585 58.244 844.145 58.244Z" fill="#1F1F1F"/>
<path d="M865.5 42C865.5 38.9624 867.962 36.5 871 36.5H896C899.038 36.5 901.5 38.9624 901.5 42V67C901.5 70.0376 899.038 72.5 896 72.5H871C867.962 72.5 865.5 70.0376 865.5 67V42Z" fill="white"/>
<path d="M865.5 42C865.5 38.9624 867.962 36.5 871 36.5H896C899.038 36.5 901.5 38.9624 901.5 42V67C901.5 70.0376 899.038 72.5 896 72.5H871C867.962 72.5 865.5 70.0376 865.5 67V42Z" stroke="#C7C7C7"/>
<path fill-rule="evenodd" clip-rule="evenodd" d="M885.836 61.8306C885.991 61.7968 886.101 61.6584 886.101 61.5004V60.1117C886.729 59.8887 887.311 59.5528 887.819 59.1209L889.023 59.8153C889.162 59.8943 889.334 59.8689 889.441 59.7504C890.139 58.9968 890.673 58.0879 890.987 57.0802C891.029 56.925 890.967 56.7613 890.829 56.6823L889.625 55.9879C889.746 55.3331 889.746 54.6613 889.625 54.0065L890.829 53.3121C890.967 53.2331 891.029 53.0694 890.984 52.9169C890.67 51.9121 890.136 51.0032 889.438 50.2468C889.331 50.1311 889.156 50.1028 889.02 50.1819L887.817 50.8762C887.311 50.4415 886.729 50.1057 886.099 49.8855V48.4996C886.099 48.3416 885.988 48.2032 885.833 48.1694C884.796 47.9379 883.733 47.9492 882.747 48.1694C882.592 48.2032 882.482 48.3416 882.482 48.4996V49.8883C881.854 50.1113 881.272 50.4472 880.764 50.879L879.563 50.1847C879.424 50.1057 879.252 50.1311 879.145 50.2496C878.447 51.0032 877.913 51.9121 877.599 52.9198C877.551 53.0722 877.616 53.2359 877.754 53.3149L878.958 54.0093C878.837 54.6641 878.837 55.3359 878.958 55.9907L877.754 56.6851C877.616 56.7641 877.554 56.9278 877.599 57.0802C877.913 58.0851 878.447 58.9939 879.145 59.7504C879.252 59.8661 879.427 59.8943 879.563 59.8153L880.767 59.1209C881.272 59.5556 881.854 59.8915 882.485 60.1117V61.5004C882.485 61.6584 882.595 61.7968 882.75 61.8306C883.787 62.0621 884.85 62.0508 885.836 61.8306ZM884.29 57.2552C883.044 57.2552 882.03 56.2419 882.03 54.9972C882.03 53.7524 883.044 52.7391 884.29 52.7391C885.536 52.7391 886.551 53.7524 886.551 54.9972C886.551 56.2419 885.536 57.2552 884.29 57.2552Z" fill="#1F1F1F"/>
<path d="M910.5 42C910.5 38.9624 912.962 36.5 916 36.5H941C944.038 36.5 946.5 38.9624 946.5 42V67C946.5 70.0376 944.038 72.5 941 72.5H916C912.962 72.5 910.5 70.0376 910.5 67V42Z" fill="white"/>
<path d="M910.5 42C910.5 38.9624 912.962 36.5 916 36.5H941C944.038 36.5 946.5 38.9624 946.5 42V67C946.5 70.0376 944.038 72.5 941 72.5H916C912.962 72.5 910.5 70.0376 910.5 67V42Z" stroke="#C7C7C7"/>
<path fill-rule="evenodd" clip-rule="evenodd" d="M929 62C932.866 62 936 58.8669 936 55C936 51.1354 932.866 48 929 48C925.134 48 922 51.1354 922 55C922 58.8669 925.134 62 929 62ZM929 60.6452C925.88 60.6452 923.355 58.1209 923.355 55C923.355 51.8812 925.88 49.3548 929 49.3548C932.119 49.3548 934.645 51.8802 934.645 55C934.645 58.1198 932.121 60.6452 929 60.6452ZM929.644 56.5806C929.831 56.5806 929.983 56.429 929.983 56.2419V56.0631C929.983 55.3637 932.027 55.3345 932.027 53.4419C932.027 52.0166 930.549 50.9355 929.164 50.9355C927.841 50.9355 926.992 51.4856 926.325 52.4649C926.223 52.6144 926.255 52.8175 926.399 52.9268L927.185 53.5223C927.332 53.6337 927.541 53.6068 927.655 53.4623C928.08 52.9263 928.382 52.6164 929.037 52.6164C929.539 52.6164 930.159 52.9395 930.159 53.4263C930.159 53.7943 929.856 53.9833 929.36 54.2612C928.782 54.5853 928.017 54.9886 928.017 55.9975V56.2419C928.017 56.429 928.169 56.5806 928.356 56.5806H929.644ZM929 59.3468C929.654 59.3468 930.185 58.815 930.185 58.1613C930.185 57.5076 929.654 56.9758 929 56.9758C928.346 56.9758 927.815 57.5076 927.815 58.1613C927.815 58.815 928.346 59.3468 929 59.3468Z" fill="#1F1F1F"/>
<mask id="path-29-inside-3_121_25971" fill="white">
<path d="M955 42C955 38.6863 957.686 36 961 36H1106C1109.31 36 1112 38.6863 1112 42V67C1112 70.3137 1109.31 73 1106 73H961C957.686 73 955 70.3137 955 67V42Z"/>
</mask>
<path d="M955 42C955 38.6863 957.686 36 961 36H1106C1109.31 36 1112 38.6863 1112 42V67C1112 70.3137 1109.31 73 1106 73H961C957.686 73 955 70.3137 955 67V42Z" fill="white"/>
<path d="M961 37H1106V35H961V37ZM1111 42V67H1113V42H1111ZM1106 72H961V74H1106V72ZM956 67V42H954V67H956ZM961 72C958.239 72 956 69.7614 956 67H954C954 70.866 957.134 74 961 74V72ZM1111 67C1111 69.7614 1108.76 72 1106 72V74C1109.87 74 1113 70.866 1113 67H1111ZM1106 37C1108.76 37 1111 39.2386 1111 42H1113C1113 38.134 1109.87 35 1106 35V37ZM961 35C957.134 35 954 38.134 954 42H956C956 39.2386 958.239 37 961 37V35Z" fill="#C7C7C7" mask="url(#path-29-inside-3_121_25971)"/>
<g clip-path="url(#clip1_121_25971)">
<circle cx="983" cy="54.5" r="12" fill="#F2F2F2"/>
<mask id="mask0_121_25971" style="mask-type:luminance" maskUnits="userSpaceOnUse" x="971" y="42" width="24" height="25">
<circle cx="983" cy="54.5" r="12" fill="white"/>
</mask>
<g mask="url(#mask0_121_25971)">
<path fill-rule="evenodd" clip-rule="evenodd" d="M982.762 55.9037C980.429 55.9037 978.496 53.9711 978.496 51.6385C978.496 49.306 980.429 47.3734 982.762 47.3734C985.096 47.3734 987.029 49.306 987.029 51.6385C987.029 53.9711 985.162 55.9037 982.762 55.9037Z" fill="#C7C7C7"/>
<path d="M979.829 66.4925V62.0274C978.496 62.294 977.896 62.9604 977.762 64.3599L977.696 66.4925H979.829Z" fill="#C7C7C7"/>
<path d="M977.696 66.5L977.762 64.3674C977.896 62.9679 978.496 62.3015 979.829 62.0349V66.5H986.096V62.0349C987.429 62.3015 988.029 62.9679 988.162 64.3674L988.229 66.5H991.362C991.096 63.9009 990.496 60.5021 989.429 59.1692C988.696 58.2362 987.896 57.7031 987.096 57.4365C986.296 57.1699 985.896 57.0366 982.896 57.0366C979.896 57.0366 978.829 57.5031 978.829 57.5031C978.029 57.7697 977.229 58.3028 976.562 59.2359C975.429 60.5021 974.829 63.9675 974.562 66.5H977.696Z" fill="#C7C7C7"/>
<path d="M988.229 66.4925L988.162 64.3599C988.029 62.9604 987.429 62.294 986.096 62.0274V66.4925H988.229Z" fill="#C7C7C7"/>
<path d="M994.5 54.4959C994.5 60.8447 989.351 65.9918 983 65.9918C976.649 65.9918 971.5 60.8447 971.5 54.4959C971.5 48.147 976.649 43 983 43C989.351 43 994.5 48.147 994.5 54.4959Z" stroke="#C7C7C7"/>
</g>
</g>
<path d="M1007.98 59.154C1007.18 59.154 1006.48 58.9813 1005.88 58.636C1005.3 58.2813 1004.84 57.782 1004.53 57.138C1004.21 56.494 1004.05 55.7333 1004.05 54.856V49.2H1005.13V54.856C1005.13 55.528 1005.24 56.1113 1005.48 56.606C1005.71 57.1007 1006.04 57.488 1006.47 57.768C1006.9 58.0387 1007.41 58.174 1007.98 58.174C1008.56 58.174 1009.07 58.0387 1009.5 57.768C1009.93 57.488 1010.26 57.1007 1010.49 56.606C1010.72 56.1113 1010.84 55.528 1010.84 54.856V49.2H1011.92V54.856C1011.92 55.7333 1011.76 56.494 1011.44 57.138C1011.12 57.782 1010.67 58.2813 1010.08 58.636C1009.5 58.9813 1008.8 59.154 1007.98 59.154ZM1016.2 59.14C1015.64 59.14 1015.12 59.056 1014.65 58.888C1014.17 58.7107 1013.76 58.4587 1013.43 58.132L1013.97 57.46C1014.38 57.7587 1014.76 57.978 1015.11 58.118C1015.45 58.2487 1015.81 58.314 1016.17 58.314C1016.67 58.314 1017.08 58.1973 1017.4 57.964C1017.73 57.7307 1017.89 57.432 1017.89 57.068C1017.89 56.788 1017.8 56.5687 1017.6 56.41C1017.41 56.2513 1017.1 56.13 1016.66 56.046L1015.54 55.85C1014.88 55.7287 1014.39 55.5233 1014.07 55.234C1013.76 54.9447 1013.61 54.5527 1013.61 54.058C1013.61 53.666 1013.71 53.3207 1013.92 53.022C1014.13 52.7233 1014.43 52.49 1014.8 52.322C1015.17 52.1447 1015.6 52.056 1016.07 52.056C1016.54 52.056 1016.98 52.126 1017.4 52.266C1017.82 52.3967 1018.25 52.6113 1018.68 52.91L1018.17 53.624C1017.82 53.372 1017.46 53.19 1017.11 53.078C1016.75 52.9567 1016.4 52.896 1016.03 52.896C1015.58 52.896 1015.22 52.994 1014.95 53.19C1014.68 53.386 1014.55 53.652 1014.55 53.988C1014.55 54.268 1014.63 54.4827 1014.8 54.632C1014.98 54.7813 1015.28 54.8933 1015.72 54.968L1016.87 55.178C1017.56 55.2993 1018.07 55.5093 1018.38 55.808C1018.7 56.1067 1018.86 56.508 1018.86 57.012C1018.86 57.4133 1018.74 57.7773 1018.51 58.104C1018.28 58.4213 1017.96 58.6733 1017.56 58.86C1017.16 59.0467 1016.7 59.14 1016.2 59.14ZM1023.56 59.14C1022.93 59.14 1022.35 58.986 1021.84 58.678C1021.33 58.3607 1020.92 57.936 1020.62 57.404C1020.32 56.8627 1020.18 56.256 1020.18 55.584C1020.18 54.912 1020.32 54.31 1020.6 53.778C1020.88 53.246 1021.27 52.826 1021.76 52.518C1022.24 52.21 1022.78 52.056 1023.38 52.056C1023.99 52.056 1024.52 52.21 1024.99 52.518C1025.47 52.8167 1025.84 53.2273 1026.11 53.75C1026.39 54.2633 1026.53 54.8467 1026.53 55.5V55.808H1021.17C1021.21 56.2747 1021.33 56.6947 1021.55 57.068C1021.77 57.432 1022.06 57.7213 1022.42 57.936C1022.78 58.1413 1023.18 58.244 1023.61 58.244C1023.96 58.244 1024.3 58.1833 1024.63 58.062C1024.96 57.9313 1025.25 57.7587 1025.48 57.544L1026.13 58.23C1025.73 58.538 1025.33 58.7667 1024.91 58.916C1024.49 59.0653 1024.04 59.14 1023.56 59.14ZM1021.2 55.08H1025.52C1025.48 54.6693 1025.35 54.3053 1025.15 53.988C1024.95 53.6613 1024.7 53.4047 1024.39 53.218C1024.09 53.0313 1023.75 52.938 1023.38 52.938C1023.01 52.938 1022.67 53.0313 1022.36 53.218C1022.05 53.3953 1021.79 53.6473 1021.59 53.974C1021.39 54.2913 1021.26 54.66 1021.2 55.08ZM1028.28 59V52.168H1029.3V53.568C1029.48 53.092 1029.73 52.7233 1030.05 52.462C1030.39 52.1913 1030.77 52.056 1031.2 52.056C1031.32 52.056 1031.44 52.0653 1031.54 52.084C1031.64 52.0933 1031.74 52.1167 1031.85 52.154V53.078C1031.73 53.0407 1031.61 53.0127 1031.48 52.994C1031.36 52.966 1031.24 52.952 1031.13 52.952C1030.71 52.952 1030.34 53.0733 1030.03 53.316C1029.72 53.5587 1029.48 53.8993 1029.3 54.338V59H1028.28ZM1033.2 59V52.168H1034.22V53.274C1034.48 52.8633 1034.79 52.56 1035.16 52.364C1035.52 52.1587 1035.93 52.056 1036.39 52.056C1036.89 52.056 1037.31 52.1633 1037.68 52.378C1038.05 52.5833 1038.34 52.8773 1038.55 53.26C1038.76 53.6333 1038.87 54.072 1038.87 54.576V59H1037.85V54.87C1037.85 54.2633 1037.68 53.7873 1037.34 53.442C1037.02 53.0873 1036.57 52.91 1036.01 52.91C1035.64 52.91 1035.3 52.9987 1034.99 53.176C1034.68 53.3533 1034.43 53.6147 1034.22 53.96V59H1033.2ZM1043.04 59.126C1042.55 59.126 1042.12 59.0373 1041.75 58.86C1041.38 58.6827 1041.08 58.44 1040.87 58.132C1040.66 57.8147 1040.56 57.4507 1040.56 57.04C1040.56 56.6293 1040.67 56.2747 1040.88 55.976C1041.1 55.668 1041.39 55.43 1041.78 55.262C1042.16 55.094 1042.61 55.01 1043.12 55.01C1043.51 55.01 1043.88 55.052 1044.23 55.136C1044.58 55.22 1044.91 55.3553 1045.21 55.542V54.604C1045.21 54.044 1045.06 53.624 1044.76 53.344C1044.46 53.0547 1044.02 52.91 1043.44 52.91C1043.13 52.91 1042.8 52.9567 1042.46 53.05C1042.14 53.1433 1041.77 53.2927 1041.37 53.498L1040.99 52.714C1041.91 52.2753 1042.77 52.056 1043.57 52.056C1044.42 52.056 1045.07 52.266 1045.53 52.686C1045.99 53.0967 1046.22 53.6893 1046.22 54.464V59H1045.21V58.202C1044.91 58.51 1044.58 58.7433 1044.21 58.902C1043.85 59.0513 1043.46 59.126 1043.04 59.126ZM1041.54 57.012C1041.54 57.4133 1041.69 57.7353 1042 57.978C1042.32 58.2207 1042.73 58.342 1043.25 58.342C1043.63 58.342 1043.98 58.2767 1044.3 58.146C1044.62 58.0153 1044.93 57.8193 1045.21 57.558V56.242C1044.92 56.074 1044.62 55.9527 1044.31 55.878C1044 55.794 1043.66 55.752 1043.28 55.752C1042.75 55.752 1042.33 55.8687 1042.02 56.102C1041.7 56.326 1041.54 56.6293 1041.54 57.012ZM1048.29 59V52.168H1049.31V53.232C1049.58 52.84 1049.87 52.546 1050.21 52.35C1050.55 52.154 1050.92 52.056 1051.34 52.056C1051.83 52.056 1052.25 52.1773 1052.62 52.42C1052.98 52.6533 1053.26 52.9753 1053.44 53.386C1053.71 52.9473 1054.04 52.616 1054.41 52.392C1054.79 52.168 1055.23 52.056 1055.73 52.056C1056.18 52.056 1056.58 52.1633 1056.93 52.378C1057.28 52.5927 1057.56 52.8913 1057.76 53.274C1057.95 53.6473 1058.05 54.086 1058.05 54.59V59H1057.03V54.842C1057.03 54.2447 1056.88 53.7733 1056.58 53.428C1056.28 53.0827 1055.87 52.91 1055.35 52.91C1054.99 52.91 1054.67 52.9987 1054.38 53.176C1054.1 53.3533 1053.85 53.624 1053.64 53.988C1053.66 54.0813 1053.67 54.1793 1053.68 54.282C1053.69 54.3847 1053.7 54.4873 1053.7 54.59V59H1052.67V54.842C1052.67 54.2447 1052.52 53.7733 1052.21 53.428C1051.91 53.0827 1051.5 52.91 1050.98 52.91C1050.28 52.91 1049.72 53.246 1049.31 53.918V59H1048.29ZM1063.2 59.14C1062.56 59.14 1061.99 58.986 1061.48 58.678C1060.96 58.3607 1060.56 57.936 1060.26 57.404C1059.96 56.8627 1059.81 56.256 1059.81 55.584C1059.81 54.912 1059.95 54.31 1060.23 53.778C1060.52 53.246 1060.91 52.826 1061.39 52.518C1061.88 52.21 1062.42 52.056 1063.02 52.056C1063.62 52.056 1064.16 52.21 1064.63 52.518C1065.1 52.8167 1065.48 53.2273 1065.75 53.75C1066.03 54.2633 1066.17 54.8467 1066.17 55.5V55.808H1060.8C1060.84 56.2747 1060.97 56.6947 1061.18 57.068C1061.41 57.432 1061.7 57.7213 1062.05 57.936C1062.41 58.1413 1062.81 58.244 1063.24 58.244C1063.6 58.244 1063.94 58.1833 1064.26 58.062C1064.6 57.9313 1064.88 57.7587 1065.12 57.544L1065.76 58.23C1065.37 58.538 1064.96 58.7667 1064.54 58.916C1064.12 59.0653 1063.67 59.14 1063.2 59.14ZM1060.83 55.08H1065.16C1065.11 54.6693 1064.99 54.3053 1064.78 53.988C1064.58 53.6613 1064.33 53.4047 1064.02 53.218C1063.73 53.0313 1063.39 52.938 1063.02 52.938C1062.64 52.938 1062.3 53.0313 1061.99 53.218C1061.69 53.3953 1061.43 53.6473 1061.22 53.974C1061.03 54.2913 1060.9 54.66 1060.83 55.08Z" fill="#1F1F1F"/>
<path fill-rule="evenodd" clip-rule="evenodd" d="M1086.39 57.1715L1089.92 53.6102C1090.27 53.2616 1090.02 52.6667 1089.53 52.6667H1082.47C1081.98 52.6667 1081.73 53.2616 1082.08 53.6102L1085.61 57.1715C1085.83 57.3873 1086.17 57.3873 1086.39 57.1715Z" fill="#1F1F1F"/>
<g filter="url(#filter0_d_121_25971)">
<path d="M297 79C297 75.6863 299.686 73 303 73H530C533.314 73 536 75.6863 536 79V166C536 169.314 533.314 172 530 172H303C299.686 172 297 169.314 297 166V79Z" fill="white"/>
<path d="M323.324 108.034H325.564C326.273 108.034 326.908 107.861 327.468 107.516C328.028 107.171 328.471 106.704 328.798 106.116C329.134 105.519 329.302 104.847 329.302 104.1C329.302 103.353 329.134 102.686 328.798 102.098C328.471 101.501 328.028 101.029 327.468 100.684C326.908 100.339 326.273 100.166 325.564 100.166H323.324V108.034ZM322.246 109V99.2H325.494C326.213 99.2 326.871 99.326 327.468 99.578C328.075 99.8207 328.593 100.166 329.022 100.614C329.461 101.053 329.797 101.571 330.03 102.168C330.273 102.756 330.394 103.4 330.394 104.1C330.394 104.8 330.273 105.449 330.03 106.046C329.797 106.634 329.461 107.152 329.022 107.6C328.593 108.039 328.075 108.384 327.468 108.636C326.871 108.879 326.213 109 325.494 109H322.246ZM335.316 109.14C334.681 109.14 334.107 108.986 333.594 108.678C333.08 108.361 332.674 107.936 332.376 107.404C332.077 106.863 331.928 106.256 331.928 105.584C331.928 104.912 332.068 104.31 332.348 103.778C332.637 103.246 333.024 102.826 333.51 102.518C333.995 102.21 334.536 102.056 335.134 102.056C335.74 102.056 336.277 102.21 336.744 102.518C337.22 102.817 337.593 103.227 337.864 103.75C338.144 104.263 338.284 104.847 338.284 105.5V105.808H332.922C332.959 106.275 333.085 106.695 333.3 107.068C333.524 107.432 333.813 107.721 334.168 107.936C334.532 108.141 334.928 108.244 335.358 108.244C335.712 108.244 336.053 108.183 336.38 108.062C336.716 107.931 337 107.759 337.234 107.544L337.878 108.23C337.486 108.538 337.08 108.767 336.66 108.916C336.24 109.065 335.792 109.14 335.316 109.14ZM332.95 105.08H337.276C337.229 104.669 337.103 104.305 336.898 103.988C336.702 103.661 336.45 103.405 336.142 103.218C335.843 103.031 335.507 102.938 335.134 102.938C334.76 102.938 334.42 103.031 334.112 103.218C333.804 103.395 333.547 103.647 333.342 103.974C333.146 104.291 333.015 104.66 332.95 105.08ZM342.211 109.14C341.651 109.14 341.133 109.056 340.657 108.888C340.181 108.711 339.775 108.459 339.439 108.132L339.985 107.46C340.396 107.759 340.774 107.978 341.119 108.118C341.464 108.249 341.819 108.314 342.183 108.314C342.678 108.314 343.088 108.197 343.415 107.964C343.742 107.731 343.905 107.432 343.905 107.068C343.905 106.788 343.807 106.569 343.611 106.41C343.424 106.251 343.112 106.13 342.673 106.046L341.553 105.85C340.89 105.729 340.4 105.523 340.083 105.234C339.775 104.945 339.621 104.553 339.621 104.058C339.621 103.666 339.724 103.321 339.929 103.022C340.144 102.723 340.438 102.49 340.811 102.322C341.184 102.145 341.609 102.056 342.085 102.056C342.552 102.056 342.995 102.126 343.415 102.266C343.835 102.397 344.26 102.611 344.689 102.91L344.185 103.624C343.83 103.372 343.476 103.19 343.121 103.078C342.766 102.957 342.407 102.896 342.043 102.896C341.595 102.896 341.236 102.994 340.965 103.19C340.694 103.386 340.559 103.652 340.559 103.988C340.559 104.268 340.643 104.483 340.811 104.632C340.988 104.781 341.296 104.893 341.735 104.968L342.883 105.178C343.574 105.299 344.078 105.509 344.395 105.808C344.712 106.107 344.871 106.508 344.871 107.012C344.871 107.413 344.754 107.777 344.521 108.104C344.288 108.421 343.97 108.673 343.569 108.86C343.168 109.047 342.715 109.14 342.211 109.14ZM346.413 109V102.168H347.435V109H346.413ZM346.931 100.474C346.726 100.474 346.548 100.404 346.399 100.264C346.259 100.115 346.189 99.942 346.189 99.746C346.189 99.55 346.259 99.382 346.399 99.242C346.548 99.0927 346.726 99.018 346.931 99.018C347.136 99.018 347.309 99.0927 347.449 99.242C347.598 99.382 347.673 99.55 347.673 99.746C347.673 99.942 347.598 100.115 347.449 100.264C347.309 100.404 347.136 100.474 346.931 100.474ZM352.694 112.066C352.237 112.066 351.775 112.001 351.308 111.87C350.851 111.749 350.426 111.576 350.034 111.352L350.468 110.568C350.888 110.783 351.271 110.941 351.616 111.044C351.962 111.147 352.307 111.198 352.652 111.198C353.278 111.198 353.749 111.049 354.066 110.75C354.393 110.451 354.556 110.017 354.556 109.448V108.076C354.295 108.403 353.978 108.655 353.604 108.832C353.231 109 352.82 109.084 352.372 109.084C351.784 109.084 351.252 108.93 350.776 108.622C350.3 108.305 349.922 107.885 349.642 107.362C349.362 106.83 349.222 106.237 349.222 105.584C349.222 104.931 349.362 104.343 349.642 103.82C349.932 103.288 350.319 102.868 350.804 102.56C351.29 102.243 351.831 102.084 352.428 102.084C352.858 102.084 353.254 102.168 353.618 102.336C353.982 102.495 354.3 102.733 354.57 103.05V102.168H355.578V109.434C355.578 110.283 355.331 110.932 354.836 111.38C354.342 111.837 353.628 112.066 352.694 112.066ZM352.624 108.202C353.026 108.202 353.394 108.123 353.73 107.964C354.066 107.796 354.342 107.567 354.556 107.278V103.904C354.332 103.615 354.048 103.391 353.702 103.232C353.366 103.064 353.007 102.98 352.624 102.98C352.167 102.98 351.756 103.092 351.392 103.316C351.038 103.54 350.753 103.848 350.538 104.24C350.333 104.632 350.23 105.08 350.23 105.584C350.23 106.079 350.333 106.527 350.538 106.928C350.753 107.32 351.038 107.633 351.392 107.866C351.756 108.09 352.167 108.202 352.624 108.202ZM357.679 109V102.168H358.701V103.274C358.962 102.863 359.275 102.56 359.639 102.364C360.003 102.159 360.414 102.056 360.871 102.056C361.366 102.056 361.795 102.163 362.159 102.378C362.532 102.583 362.822 102.877 363.027 103.26C363.242 103.633 363.349 104.072 363.349 104.576V109H362.327V104.87C362.327 104.263 362.159 103.787 361.823 103.442C361.496 103.087 361.053 102.91 360.493 102.91C360.12 102.91 359.779 102.999 359.471 103.176C359.163 103.353 358.906 103.615 358.701 103.96V109H357.679ZM371.835 112.066C371.378 112.066 370.916 112.001 370.449 111.87C369.992 111.749 369.567 111.576 369.175 111.352L369.609 110.568C370.029 110.783 370.412 110.941 370.757 111.044C371.102 111.147 371.448 111.198 371.793 111.198C372.418 111.198 372.89 111.049 373.207 110.75C373.534 110.451 373.697 110.017 373.697 109.448V108.076C373.436 108.403 373.118 108.655 372.745 108.832C372.372 109 371.961 109.084 371.513 109.084C370.925 109.084 370.393 108.93 369.917 108.622C369.441 108.305 369.063 107.885 368.783 107.362C368.503 106.83 368.363 106.237 368.363 105.584C368.363 104.931 368.503 104.343 368.783 103.82C369.072 103.288 369.46 102.868 369.945 102.56C370.43 102.243 370.972 102.084 371.569 102.084C371.998 102.084 372.395 102.168 372.759 102.336C373.123 102.495 373.44 102.733 373.711 103.05V102.168H374.719V109.434C374.719 110.283 374.472 110.932 373.977 111.38C373.482 111.837 372.768 112.066 371.835 112.066ZM371.765 108.202C372.166 108.202 372.535 108.123 372.871 107.964C373.207 107.796 373.482 107.567 373.697 107.278V103.904C373.473 103.615 373.188 103.391 372.843 103.232C372.507 103.064 372.148 102.98 371.765 102.98C371.308 102.98 370.897 103.092 370.533 103.316C370.178 103.54 369.894 103.848 369.679 104.24C369.474 104.632 369.371 105.08 369.371 105.584C369.371 106.079 369.474 106.527 369.679 106.928C369.894 107.32 370.178 107.633 370.533 107.866C370.897 108.09 371.308 108.202 371.765 108.202ZM379.256 109.112C378.77 109.112 378.341 109.005 377.968 108.79C377.594 108.575 377.3 108.277 377.086 107.894C376.88 107.511 376.778 107.073 376.778 106.578V102.168H377.814V106.284C377.814 106.891 377.977 107.371 378.304 107.726C378.63 108.081 379.074 108.258 379.634 108.258C380.016 108.258 380.357 108.169 380.656 107.992C380.964 107.815 381.22 107.558 381.426 107.222V102.168H382.448V109H381.426V107.894C381.164 108.295 380.852 108.599 380.488 108.804C380.133 109.009 379.722 109.112 379.256 109.112ZM384.53 109V102.168H385.552V109H384.53ZM385.048 100.474C384.843 100.474 384.665 100.404 384.516 100.264C384.376 100.115 384.306 99.942 384.306 99.746C384.306 99.55 384.376 99.382 384.516 99.242C384.665 99.0927 384.843 99.018 385.048 99.018C385.253 99.018 385.426 99.0927 385.566 99.242C385.715 99.382 385.79 99.55 385.79 99.746C385.79 99.942 385.715 100.115 385.566 100.264C385.426 100.404 385.253 100.474 385.048 100.474ZM390.49 109.098C389.902 109.098 389.37 108.944 388.894 108.636C388.418 108.319 388.04 107.899 387.76 107.376C387.48 106.844 387.34 106.251 387.34 105.598C387.34 104.935 387.48 104.343 387.76 103.82C388.049 103.288 388.436 102.868 388.922 102.56C389.407 102.243 389.948 102.084 390.546 102.084C390.966 102.084 391.358 102.168 391.722 102.336C392.086 102.495 392.403 102.728 392.674 103.036V98.892L393.696 98.682V109H392.674V108.09C392.412 108.417 392.095 108.669 391.722 108.846C391.348 109.014 390.938 109.098 390.49 109.098ZM390.742 108.202C391.143 108.202 391.512 108.123 391.848 107.964C392.184 107.805 392.459 107.581 392.674 107.292V103.904C392.45 103.615 392.165 103.391 391.82 103.232C391.484 103.064 391.124 102.98 390.742 102.98C390.284 102.98 389.874 103.092 389.51 103.316C389.155 103.54 388.87 103.848 388.656 104.24C388.45 104.632 388.348 105.08 388.348 105.584C388.348 106.079 388.45 106.527 388.656 106.928C388.87 107.32 389.155 107.633 389.51 107.866C389.874 108.09 390.284 108.202 390.742 108.202ZM398.876 109.14C398.241 109.14 397.667 108.986 397.154 108.678C396.641 108.361 396.235 107.936 395.936 107.404C395.637 106.863 395.488 106.256 395.488 105.584C395.488 104.912 395.628 104.31 395.908 103.778C396.197 103.246 396.585 102.826 397.07 102.518C397.555 102.21 398.097 102.056 398.694 102.056C399.301 102.056 399.837 102.21 400.304 102.518C400.78 102.817 401.153 103.227 401.424 103.75C401.704 104.263 401.844 104.847 401.844 105.5V105.808H396.482C396.519 106.275 396.645 106.695 396.86 107.068C397.084 107.432 397.373 107.721 397.728 107.936C398.092 108.141 398.489 108.244 398.918 108.244C399.273 108.244 399.613 108.183 399.94 108.062C400.276 107.931 400.561 107.759 400.794 107.544L401.438 108.23C401.046 108.538 400.64 108.767 400.22 108.916C399.8 109.065 399.352 109.14 398.876 109.14ZM396.51 105.08H400.836C400.789 104.669 400.663 104.305 400.458 103.988C400.262 103.661 400.01 103.405 399.702 103.218C399.403 103.031 399.067 102.938 398.694 102.938C398.321 102.938 397.98 103.031 397.672 103.218C397.364 103.395 397.107 103.647 396.902 103.974C396.706 104.291 396.575 104.66 396.51 105.08ZM403.589 109V98.892L404.611 98.682V109H403.589ZM406.692 109V102.168H407.714V109H406.692ZM407.21 100.474C407.005 100.474 406.828 100.404 406.678 100.264C406.538 100.115 406.468 99.942 406.468 99.746C406.468 99.55 406.538 99.382 406.678 99.242C406.828 99.0927 407.005 99.018 407.21 99.018C407.416 99.018 407.588 99.0927 407.728 99.242C407.878 99.382 407.952 99.55 407.952 99.746C407.952 99.942 407.878 100.115 407.728 100.264C407.588 100.404 407.416 100.474 407.21 100.474ZM409.81 109V102.168H410.832V103.274C411.093 102.863 411.406 102.56 411.77 102.364C412.134 102.159 412.544 102.056 413.002 102.056C413.496 102.056 413.926 102.163 414.29 102.378C414.663 102.583 414.952 102.877 415.158 103.26C415.372 103.633 415.48 104.072 415.48 104.576V109H414.458V104.87C414.458 104.263 414.29 103.787 413.954 103.442C413.627 103.087 413.184 102.91 412.624 102.91C412.25 102.91 411.91 102.999 411.602 103.176C411.294 103.353 411.037 103.615 410.832 103.96V109H409.81ZM420.614 109.14C419.98 109.14 419.406 108.986 418.892 108.678C418.379 108.361 417.973 107.936 417.674 107.404C417.376 106.863 417.226 106.256 417.226 105.584C417.226 104.912 417.366 104.31 417.646 103.778C417.936 103.246 418.323 102.826 418.808 102.518C419.294 102.21 419.835 102.056 420.432 102.056C421.039 102.056 421.576 102.21 422.042 102.518C422.518 102.817 422.892 103.227 423.162 103.75C423.442 104.263 423.582 104.847 423.582 105.5V105.808H418.22C418.258 106.275 418.384 106.695 418.598 107.068C418.822 107.432 419.112 107.721 419.466 107.936C419.83 108.141 420.227 108.244 420.656 108.244C421.011 108.244 421.352 108.183 421.678 108.062C422.014 107.931 422.299 107.759 422.532 107.544L423.176 108.23C422.784 108.538 422.378 108.767 421.958 108.916C421.538 109.065 421.09 109.14 420.614 109.14ZM418.248 105.08H422.574C422.528 104.669 422.402 104.305 422.196 103.988C422 103.661 421.748 103.405 421.44 103.218C421.142 103.031 420.806 102.938 420.432 102.938C420.059 102.938 419.718 103.031 419.41 103.218C419.102 103.395 418.846 103.647 418.64 103.974C418.444 104.291 418.314 104.66 418.248 105.08ZM427.51 109.14C426.95 109.14 426.432 109.056 425.956 108.888C425.48 108.711 425.074 108.459 424.738 108.132L425.284 107.46C425.694 107.759 426.072 107.978 426.418 108.118C426.763 108.249 427.118 108.314 427.482 108.314C427.976 108.314 428.387 108.197 428.714 107.964C429.04 107.731 429.204 107.432 429.204 107.068C429.204 106.788 429.106 106.569 428.91 106.41C428.723 106.251 428.41 106.13 427.972 106.046L426.852 105.85C426.189 105.729 425.699 105.523 425.382 105.234C425.074 104.945 424.92 104.553 424.92 104.058C424.92 103.666 425.022 103.321 425.228 103.022C425.442 102.723 425.736 102.49 426.11 102.322C426.483 102.145 426.908 102.056 427.384 102.056C427.85 102.056 428.294 102.126 428.714 102.266C429.134 102.397 429.558 102.611 429.988 102.91L429.484 103.624C429.129 103.372 428.774 103.19 428.42 103.078C428.065 102.957 427.706 102.896 427.342 102.896C426.894 102.896 426.534 102.994 426.264 103.19C425.993 103.386 425.858 103.652 425.858 103.988C425.858 104.268 425.942 104.483 426.11 104.632C426.287 104.781 426.595 104.893 427.034 104.968L428.182 105.178C428.872 105.299 429.376 105.509 429.694 105.808C430.011 106.107 430.17 106.508 430.17 107.012C430.17 107.413 430.053 107.777 429.82 108.104C429.586 108.421 429.269 108.673 428.868 108.86C428.466 109.047 428.014 109.14 427.51 109.14Z" fill="#1F1F1F"/>
<path fill-rule="evenodd" clip-rule="evenodd" d="M495.745 108.985L503.795 100.935C504.068 100.662 504.068 100.218 503.795 99.945L502.805 98.955C502.532 98.6817 502.088 98.6817 501.815 98.955L495.25 105.52L492.185 102.455C491.912 102.182 491.468 102.182 491.195 102.455L490.205 103.445C489.932 103.718 489.932 104.162 490.205 104.435L494.755 108.985C495.028 109.258 495.472 109.258 495.745 108.985Z" fill="#0066CC"/>
<path d="M323.324 149.034H325.564C326.273 149.034 326.908 148.861 327.468 148.516C328.028 148.171 328.471 147.704 328.798 147.116C329.134 146.519 329.302 145.847 329.302 145.1C329.302 144.353 329.134 143.686 328.798 143.098C328.471 142.501 328.028 142.029 327.468 141.684C326.908 141.339 326.273 141.166 325.564 141.166H323.324V149.034ZM322.246 150V140.2H325.494C326.213 140.2 326.871 140.326 327.468 140.578C328.075 140.821 328.593 141.166 329.022 141.614C329.461 142.053 329.797 142.571 330.03 143.168C330.273 143.756 330.394 144.4 330.394 145.1C330.394 145.8 330.273 146.449 330.03 147.046C329.797 147.634 329.461 148.152 329.022 148.6C328.593 149.039 328.075 149.384 327.468 149.636C326.871 149.879 326.213 150 325.494 150H322.246ZM335.26 150.112C334.625 150.112 334.056 149.958 333.552 149.65C333.048 149.342 332.651 148.922 332.362 148.39C332.072 147.858 331.928 147.256 331.928 146.584C331.928 145.912 332.072 145.31 332.362 144.778C332.651 144.246 333.048 143.826 333.552 143.518C334.056 143.21 334.625 143.056 335.26 143.056C335.885 143.056 336.445 143.21 336.94 143.518C337.444 143.826 337.84 144.246 338.13 144.778C338.419 145.31 338.564 145.912 338.564 146.584C338.564 147.256 338.419 147.858 338.13 148.39C337.84 148.922 337.444 149.342 336.94 149.65C336.445 149.958 335.885 150.112 335.26 150.112ZM335.246 149.216C335.694 149.216 336.09 149.104 336.436 148.88C336.781 148.647 337.052 148.329 337.248 147.928C337.453 147.527 337.556 147.079 337.556 146.584C337.556 146.08 337.453 145.632 337.248 145.24C337.052 144.839 336.781 144.526 336.436 144.302C336.09 144.069 335.694 143.952 335.246 143.952C334.798 143.952 334.401 144.069 334.056 144.302C333.71 144.526 333.435 144.839 333.23 145.24C333.034 145.632 332.936 146.08 332.936 146.584C332.936 147.079 333.034 147.527 333.23 147.928C333.435 148.329 333.71 148.647 334.056 148.88C334.401 149.104 334.798 149.216 335.246 149.216ZM343.423 150.112C342.788 150.112 342.214 149.958 341.701 149.65C341.197 149.333 340.795 148.908 340.497 148.376C340.198 147.835 340.049 147.237 340.049 146.584C340.049 145.921 340.198 145.324 340.497 144.792C340.795 144.26 341.197 143.84 341.701 143.532C342.214 143.215 342.788 143.056 343.423 143.056C343.927 143.056 344.407 143.149 344.865 143.336C345.322 143.523 345.719 143.784 346.055 144.12L345.397 144.834C345.154 144.563 344.86 144.353 344.515 144.204C344.169 144.055 343.819 143.98 343.465 143.98C343.017 143.98 342.611 144.097 342.247 144.33C341.892 144.563 341.607 144.876 341.393 145.268C341.178 145.66 341.071 146.099 341.071 146.584C341.071 147.069 341.178 147.508 341.393 147.9C341.607 148.292 341.892 148.605 342.247 148.838C342.611 149.071 343.017 149.188 343.465 149.188C343.819 149.188 344.169 149.113 344.515 148.964C344.86 148.805 345.154 148.595 345.397 148.334L346.055 149.048C345.719 149.384 345.322 149.645 344.865 149.832C344.407 150.019 343.927 150.112 343.423 150.112ZM349.916 150.112C349.43 150.112 349.001 150.005 348.628 149.79C348.254 149.575 347.96 149.277 347.746 148.894C347.54 148.511 347.438 148.073 347.438 147.578V143.168H348.474V147.284C348.474 147.891 348.637 148.371 348.964 148.726C349.29 149.081 349.734 149.258 350.294 149.258C350.676 149.258 351.017 149.169 351.316 148.992C351.624 148.815 351.88 148.558 352.086 148.222V143.168H353.108V150H352.086V148.894C351.824 149.295 351.512 149.599 351.148 149.804C350.793 150.009 350.382 150.112 349.916 150.112ZM355.204 150V143.168H356.226V144.232C356.488 143.84 356.786 143.546 357.122 143.35C357.458 143.154 357.836 143.056 358.256 143.056C358.742 143.056 359.166 143.177 359.53 143.42C359.894 143.653 360.17 143.975 360.356 144.386C360.627 143.947 360.949 143.616 361.322 143.392C361.705 143.168 362.144 143.056 362.638 143.056C363.096 143.056 363.497 143.163 363.842 143.378C364.197 143.593 364.472 143.891 364.668 144.274C364.864 144.647 364.962 145.086 364.962 145.59V150H363.94V145.842C363.94 145.245 363.791 144.773 363.492 144.428C363.194 144.083 362.783 143.91 362.26 143.91C361.906 143.91 361.584 143.999 361.294 144.176C361.014 144.353 360.767 144.624 360.552 144.988C360.571 145.081 360.585 145.179 360.594 145.282C360.604 145.385 360.608 145.487 360.608 145.59V150H359.586V145.842C359.586 145.245 359.432 144.773 359.124 144.428C358.826 144.083 358.415 143.91 357.892 143.91C357.192 143.91 356.637 144.246 356.226 144.918V150H355.204ZM370.11 150.14C369.476 150.14 368.902 149.986 368.388 149.678C367.875 149.361 367.469 148.936 367.17 148.404C366.872 147.863 366.722 147.256 366.722 146.584C366.722 145.912 366.862 145.31 367.142 144.778C367.432 144.246 367.819 143.826 368.304 143.518C368.79 143.21 369.331 143.056 369.928 143.056C370.535 143.056 371.072 143.21 371.538 143.518C372.014 143.817 372.388 144.227 372.658 144.75C372.938 145.263 373.078 145.847 373.078 146.5V146.808H367.716C367.754 147.275 367.88 147.695 368.094 148.068C368.318 148.432 368.608 148.721 368.962 148.936C369.326 149.141 369.723 149.244 370.152 149.244C370.507 149.244 370.848 149.183 371.174 149.062C371.51 148.931 371.795 148.759 372.028 148.544L372.672 149.23C372.28 149.538 371.874 149.767 371.454 149.916C371.034 150.065 370.586 150.14 370.11 150.14ZM367.744 146.08H372.07C372.024 145.669 371.898 145.305 371.692 144.988C371.496 144.661 371.244 144.405 370.936 144.218C370.638 144.031 370.302 143.938 369.928 143.938C369.555 143.938 369.214 144.031 368.906 144.218C368.598 144.395 368.342 144.647 368.136 144.974C367.94 145.291 367.81 145.66 367.744 146.08ZM374.823 150V143.168H375.845V144.274C376.107 143.863 376.419 143.56 376.783 143.364C377.147 143.159 377.558 143.056 378.015 143.056C378.51 143.056 378.939 143.163 379.303 143.378C379.677 143.583 379.966 143.877 380.171 144.26C380.386 144.633 380.493 145.072 380.493 145.576V150H379.471V145.87C379.471 145.263 379.303 144.787 378.967 144.442C378.641 144.087 378.197 143.91 377.637 143.91C377.264 143.91 376.923 143.999 376.615 144.176C376.307 144.353 376.051 144.615 375.845 144.96V150H374.823ZM384.947 150.14C384.359 150.14 383.911 150 383.603 149.72C383.304 149.431 383.155 149.015 383.155 148.474V144.008H381.741V143.168H383.155V141.292L384.177 141.054V143.168H386.137V144.008H384.177V148.208C384.177 148.572 384.252 148.833 384.401 148.992C384.56 149.151 384.816 149.23 385.171 149.23C385.348 149.23 385.507 149.216 385.647 149.188C385.787 149.16 385.95 149.113 386.137 149.048V149.958C385.95 150.023 385.754 150.07 385.549 150.098C385.344 150.126 385.143 150.14 384.947 150.14ZM389.748 150.126C389.263 150.126 388.833 150.037 388.46 149.86C388.087 149.683 387.793 149.44 387.578 149.132C387.373 148.815 387.27 148.451 387.27 148.04C387.27 147.629 387.377 147.275 387.592 146.976C387.807 146.668 388.105 146.43 388.488 146.262C388.871 146.094 389.319 146.01 389.832 146.01C390.224 146.01 390.593 146.052 390.938 146.136C391.293 146.22 391.619 146.355 391.918 146.542V145.604C391.918 145.044 391.769 144.624 391.47 144.344C391.171 144.055 390.733 143.91 390.154 143.91C389.837 143.91 389.51 143.957 389.174 144.05C388.847 144.143 388.483 144.293 388.082 144.498L387.704 143.714C388.619 143.275 389.477 143.056 390.28 143.056C391.129 143.056 391.783 143.266 392.24 143.686C392.697 144.097 392.926 144.689 392.926 145.464V150H391.918V149.202C391.619 149.51 391.288 149.743 390.924 149.902C390.56 150.051 390.168 150.126 389.748 150.126ZM388.25 148.012C388.25 148.413 388.404 148.735 388.712 148.978C389.029 149.221 389.445 149.342 389.958 149.342C390.341 149.342 390.691 149.277 391.008 149.146C391.335 149.015 391.638 148.819 391.918 148.558V147.242C391.629 147.074 391.33 146.953 391.022 146.878C390.714 146.794 390.369 146.752 389.986 146.752C389.463 146.752 389.043 146.869 388.726 147.102C388.409 147.326 388.25 147.629 388.25 148.012ZM397.402 150.14C396.814 150.14 396.366 150 396.058 149.72C395.759 149.431 395.61 149.015 395.61 148.474V144.008H394.196V143.168H395.61V141.292L396.632 141.054V143.168H398.592V144.008H396.632V148.208C396.632 148.572 396.707 148.833 396.856 148.992C397.015 149.151 397.271 149.23 397.626 149.23C397.803 149.23 397.962 149.216 398.102 149.188C398.242 149.16 398.405 149.113 398.592 149.048V149.958C398.405 150.023 398.209 150.07 398.004 150.098C397.799 150.126 397.598 150.14 397.402 150.14ZM400.075 150V143.168H401.097V150H400.075ZM400.593 141.474C400.388 141.474 400.21 141.404 400.061 141.264C399.921 141.115 399.851 140.942 399.851 140.746C399.851 140.55 399.921 140.382 400.061 140.242C400.21 140.093 400.388 140.018 400.593 140.018C400.798 140.018 400.971 140.093 401.111 140.242C401.26 140.382 401.335 140.55 401.335 140.746C401.335 140.942 401.26 141.115 401.111 141.264C400.971 141.404 400.798 141.474 400.593 141.474ZM406.217 150.112C405.582 150.112 405.013 149.958 404.509 149.65C404.005 149.342 403.608 148.922 403.319 148.39C403.029 147.858 402.885 147.256 402.885 146.584C402.885 145.912 403.029 145.31 403.319 144.778C403.608 144.246 404.005 143.826 404.509 143.518C405.013 143.21 405.582 143.056 406.217 143.056C406.842 143.056 407.402 143.21 407.897 143.518C408.401 143.826 408.797 144.246 409.087 144.778C409.376 145.31 409.521 145.912 409.521 146.584C409.521 147.256 409.376 147.858 409.087 148.39C408.797 148.922 408.401 149.342 407.897 149.65C407.402 149.958 406.842 150.112 406.217 150.112ZM406.203 149.216C406.651 149.216 407.047 149.104 407.393 148.88C407.738 148.647 408.009 148.329 408.205 147.928C408.41 147.527 408.513 147.079 408.513 146.584C408.513 146.08 408.41 145.632 408.205 145.24C408.009 144.839 407.738 144.526 407.393 144.302C407.047 144.069 406.651 143.952 406.203 143.952C405.755 143.952 405.358 144.069 405.013 144.302C404.667 144.526 404.392 144.839 404.187 145.24C403.991 145.632 403.893 146.08 403.893 146.584C403.893 147.079 403.991 147.527 404.187 147.928C404.392 148.329 404.667 148.647 405.013 148.88C405.358 149.104 405.755 149.216 406.203 149.216ZM411.314 150V143.168H412.336V144.274C412.597 143.863 412.91 143.56 413.274 143.364C413.638 143.159 414.048 143.056 414.506 143.056C415 143.056 415.43 143.163 415.794 143.378C416.167 143.583 416.456 143.877 416.662 144.26C416.876 144.633 416.984 145.072 416.984 145.576V150H415.962V145.87C415.962 145.263 415.794 144.787 415.458 144.442C415.131 144.087 414.688 143.91 414.128 143.91C413.754 143.91 413.414 143.999 413.106 144.176C412.798 144.353 412.541 144.615 412.336 144.96V150H411.314Z" fill="#1F1F1F"/>
</g>
<defs>
<filter id="filter0_d_121_25971" x="289" y="69" width="255" height="115" filterUnits="userSpaceOnUse" color-interpolation-filters="sRGB">
<feFlood flood-opacity="0" result="BackgroundImageFix"/>
<feColorMatrix in="SourceAlpha" type="matrix" values="0 0 0 0 0 0 0 0 0 0 0 0 0 0 0 0 0 0 127 0" result="hardAlpha"/>
<feOffset dy="4"/>
<feGaussianBlur stdDeviation="4"/>
<feColorMatrix type="matrix" values="0 0 0 0 0 0 0 0 0 0 0 0 0 0 0 0 0 0 0.12 0"/>
<feBlend mode="normal" in2="BackgroundImageFix" result="effect1_dropShadow_121_25971"/>
<feBlend mode="normal" in="SourceGraphic" in2="effect1_dropShadow_121_25971" result="shape"/>
</filter>
<linearGradient id="paint0_linear_121_25971" x1="1588.07" y1="36.8043" x2="-215.756" y2="3043.17" gradientUnits="userSpaceOnUse">
<stop stop-color="#2B9AF3"/>
<stop offset="1" stop-color="#73BCF7" stop-opacity="0.502213"/>
</linearGradient>
<linearGradient id="paint1_linear_121_25971" x1="132.196" y1="-1419.07" x2="-2874.17" y2="384.756" gradientUnits="userSpaceOnUse">
<stop stop-color="#2B9AF3"/>
<stop offset="1" stop-color="#73BCF7" stop-opacity="0.502213"/>
</linearGradient>
<clipPath id="clip0_121_25971">
<rect width="159.121" height="37" fill="white" transform="translate(96 36)"/>
</clipPath>
<clipPath id="clip1_121_25971">
<rect width="24" height="24" fill="white" transform="translate(971 42.5)"/>
</clipPath>
</defs>
</svg>
