<svg width="921" height="229" viewBox="0 0 921 229" fill="none" xmlns="http://www.w3.org/2000/svg">
<g clip-path="url(#clip0_1539_56071)">
<rect width="921" height="229" fill="white"/>
<path d="M43.1832 40.496H45.4872C46.2659 40.496 46.9699 40.3147 47.5992 39.952C48.2285 39.5893 48.7245 39.104 49.0872 38.496C49.4499 37.8773 49.6312 37.184 49.6312 36.416C49.6312 35.6373 49.4499 34.9387 49.0872 34.32C48.7245 33.7013 48.2285 33.2107 47.5992 32.848C46.9699 32.4853 46.2659 32.304 45.4872 32.304H43.1832V40.496ZM41.5032 42V30.8H45.4552C46.2979 30.8 47.0765 30.944 47.7912 31.232C48.5059 31.5093 49.1299 31.8987 49.6632 32.4C50.1965 32.9013 50.6125 33.4933 50.9112 34.176C51.2099 34.8587 51.3592 35.6 51.3592 36.4C51.3592 37.2107 51.2099 37.9573 50.9112 38.64C50.6232 39.312 50.2125 39.8987 49.6792 40.4C49.1459 40.9013 48.5165 41.296 47.7912 41.584C47.0765 41.8613 46.2979 42 45.4552 42H41.5032ZM56.8402 42.144C56.0402 42.144 55.3149 41.9573 54.6642 41.584C54.0242 41.2107 53.5122 40.704 53.1282 40.064C52.7549 39.424 52.5682 38.7093 52.5682 37.92C52.5682 37.1413 52.7495 36.4373 53.1122 35.808C53.4749 35.168 53.9655 34.6613 54.5842 34.288C55.2029 33.904 55.8909 33.712 56.6482 33.712C57.4055 33.712 58.0775 33.904 58.6642 34.288C59.2509 34.6613 59.7149 35.1733 60.0562 35.824C60.4082 36.464 60.5842 37.1893 60.5842 38V38.448H54.1682C54.2535 38.896 54.4189 39.296 54.6642 39.648C54.9202 40 55.2402 40.2773 55.6242 40.48C56.0189 40.6827 56.4455 40.784 56.9042 40.784C57.2989 40.784 57.6775 40.7253 58.0402 40.608C58.4135 40.48 58.7229 40.2987 58.9682 40.064L59.9922 41.072C59.5122 41.4347 59.0162 41.7067 58.5042 41.888C58.0029 42.0587 57.4482 42.144 56.8402 42.144ZM54.1842 37.248H59.0002C58.9362 36.8213 58.7869 36.448 58.5522 36.128C58.3282 35.7973 58.0455 35.5413 57.7042 35.36C57.3735 35.168 57.0109 35.072 56.6162 35.072C55.9975 35.072 55.4642 35.2747 55.0162 35.68C54.5789 36.0747 54.3015 36.5973 54.1842 37.248ZM63.0897 42V35.2H61.2017V33.856H63.0897V32.624C63.0897 31.7707 63.3244 31.12 63.7937 30.672C64.2737 30.224 64.9564 30 65.8417 30C66.0657 30 66.2737 30.016 66.4657 30.048C66.6684 30.0693 66.8497 30.1067 67.0097 30.16V31.536C66.8177 31.4827 66.647 31.4453 66.4977 31.424C66.3484 31.392 66.183 31.376 66.0017 31.376C65.1164 31.376 64.6737 31.808 64.6737 32.672V33.856H67.0097V35.2H64.6737V42H63.0897ZM70.5434 42.144C69.9568 42.144 69.4394 42.0427 68.9914 41.84C68.5434 41.6267 68.1914 41.3333 67.9354 40.96C67.6794 40.5867 67.5514 40.1547 67.5514 39.664C67.5514 38.896 67.8448 38.2933 68.4314 37.856C69.0181 37.408 69.8234 37.184 70.8474 37.184C71.6474 37.184 72.3888 37.3387 73.0714 37.648V36.784C73.0714 35.6213 72.4101 35.04 71.0874 35.04C70.7141 35.04 70.3248 35.0987 69.9194 35.216C69.5141 35.3227 69.0608 35.4933 68.5594 35.728L67.9674 34.528C68.5861 34.24 69.1621 34.032 69.6954 33.904C70.2288 33.7653 70.7674 33.696 71.3114 33.696C72.3674 33.696 73.1834 33.9467 73.7594 34.448C74.3461 34.9493 74.6394 35.664 74.6394 36.592V42H73.0714V41.296C72.7088 41.584 72.3194 41.7973 71.9034 41.936C71.4874 42.0747 71.0341 42.144 70.5434 42.144ZM69.0874 39.632C69.0874 40.0267 69.2528 40.3467 69.5834 40.592C69.9248 40.8373 70.3674 40.96 70.9114 40.96C71.7861 40.96 72.5061 40.6987 73.0714 40.176V38.8C72.4848 38.4587 71.7861 38.288 70.9754 38.288C70.3888 38.288 69.9248 38.4107 69.5834 38.656C69.2528 38.8907 69.0874 39.216 69.0874 39.632ZM79.5569 42.16C78.9276 42.16 78.3729 42.0267 77.8929 41.76C77.4129 41.4933 77.0396 41.12 76.7729 40.64C76.5063 40.16 76.3729 39.6 76.3729 38.96V33.856H77.9569V38.688C77.9569 39.328 78.1383 39.8347 78.5009 40.208C78.8743 40.5813 79.3703 40.768 79.9889 40.768C80.8636 40.768 81.5303 40.4107 81.9889 39.696V33.856H83.5889V42H81.9889V41.168C81.3596 41.8293 80.5489 42.16 79.5569 42.16ZM85.4831 42V30.8L87.0831 30.496V42H85.4831ZM92.4554 42.144C91.6661 42.144 91.0634 41.9627 90.6474 41.6C90.2314 41.2267 90.0234 40.688 90.0234 39.984V35.2H88.2954V33.856H90.0234V31.776L91.6074 31.392V33.856H94.0074V35.2H91.6074V39.616C91.6074 40.032 91.6981 40.3307 91.8794 40.512C92.0714 40.6827 92.3808 40.768 92.8074 40.768C93.0314 40.768 93.2288 40.752 93.3994 40.72C93.5808 40.688 93.7728 40.64 93.9754 40.576V41.92C93.7621 41.9947 93.5114 42.048 93.2234 42.08C92.9461 42.1227 92.6901 42.144 92.4554 42.144ZM101.33 42.16C100.626 42.16 99.9646 42.0587 99.3459 41.856C98.7379 41.6427 98.2099 41.344 97.7619 40.96L98.6419 39.904C99.0579 40.2347 99.4846 40.4907 99.9219 40.672C100.37 40.8427 100.823 40.928 101.282 40.928C101.858 40.928 102.327 40.816 102.69 40.592C103.053 40.368 103.234 40.0747 103.234 39.712C103.234 39.136 102.797 38.784 101.922 38.656L100.45 38.448C99.6393 38.3307 99.0313 38.08 98.6259 37.696C98.2206 37.312 98.0179 36.8 98.0179 36.16C98.0179 35.6693 98.1513 35.2427 98.4179 34.88C98.6846 34.5067 99.0579 34.2187 99.5379 34.016C100.018 33.8027 100.578 33.696 101.218 33.696C101.805 33.696 102.37 33.7813 102.914 33.952C103.458 34.1227 103.981 34.3893 104.482 34.752L103.666 35.808C102.781 35.232 101.922 34.944 101.09 34.944C100.599 34.944 100.205 35.0507 99.9059 35.264C99.6073 35.4667 99.4579 35.7333 99.4579 36.064C99.4579 36.3627 99.5593 36.5973 99.7619 36.768C99.9753 36.928 100.322 37.04 100.802 37.104L102.274 37.312C103.085 37.4293 103.698 37.68 104.114 38.064C104.53 38.4373 104.738 38.944 104.738 39.584C104.738 40.0747 104.589 40.5173 104.29 40.912C103.991 41.296 103.586 41.6 103.074 41.824C102.562 42.048 101.981 42.16 101.33 42.16ZM109.299 42.144C108.51 42.144 107.907 41.9627 107.491 41.6C107.075 41.2267 106.867 40.688 106.867 39.984V35.2H105.139V33.856H106.867V31.776L108.451 31.392V33.856H110.851V35.2H108.451V39.616C108.451 40.032 108.542 40.3307 108.723 40.512C108.915 40.6827 109.225 40.768 109.651 40.768C109.875 40.768 110.073 40.752 110.243 40.72C110.425 40.688 110.617 40.64 110.819 40.576V41.92C110.606 41.9947 110.355 42.048 110.067 42.08C109.79 42.1227 109.534 42.144 109.299 42.144ZM114.606 42.144C114.019 42.144 113.502 42.0427 113.054 41.84C112.606 41.6267 112.254 41.3333 111.998 40.96C111.742 40.5867 111.614 40.1547 111.614 39.664C111.614 38.896 111.907 38.2933 112.494 37.856C113.081 37.408 113.886 37.184 114.91 37.184C115.71 37.184 116.451 37.3387 117.134 37.648V36.784C117.134 35.6213 116.473 35.04 115.15 35.04C114.777 35.04 114.387 35.0987 113.982 35.216C113.577 35.3227 113.123 35.4933 112.622 35.728L112.03 34.528C112.649 34.24 113.225 34.032 113.758 33.904C114.291 33.7653 114.83 33.696 115.374 33.696C116.43 33.696 117.246 33.9467 117.822 34.448C118.409 34.9493 118.702 35.664 118.702 36.592V42H117.134V41.296C116.771 41.584 116.382 41.7973 115.966 41.936C115.55 42.0747 115.097 42.144 114.606 42.144ZM113.15 39.632C113.15 40.0267 113.315 40.3467 113.646 40.592C113.987 40.8373 114.43 40.96 114.974 40.96C115.849 40.96 116.569 40.6987 117.134 40.176V38.8C116.547 38.4587 115.849 38.288 115.038 38.288C114.451 38.288 113.987 38.4107 113.646 38.656C113.315 38.8907 113.15 39.216 113.15 39.632ZM123.799 42.144C123.01 42.144 122.407 41.9627 121.991 41.6C121.575 41.2267 121.367 40.688 121.367 39.984V35.2H119.639V33.856H121.367V31.776L122.951 31.392V33.856H125.351V35.2H122.951V39.616C122.951 40.032 123.042 40.3307 123.223 40.512C123.415 40.6827 123.725 40.768 124.151 40.768C124.375 40.768 124.573 40.752 124.743 40.72C124.925 40.688 125.117 40.64 125.319 40.576V41.92C125.106 41.9947 124.855 42.048 124.567 42.08C124.29 42.1227 124.034 42.144 123.799 42.144ZM130.309 42.144C129.509 42.144 128.784 41.9573 128.133 41.584C127.493 41.2107 126.981 40.704 126.597 40.064C126.224 39.424 126.037 38.7093 126.037 37.92C126.037 37.1413 126.218 36.4373 126.581 35.808C126.944 35.168 127.434 34.6613 128.053 34.288C128.672 33.904 129.36 33.712 130.117 33.712C130.874 33.712 131.546 33.904 132.133 34.288C132.72 34.6613 133.184 35.1733 133.525 35.824C133.877 36.464 134.053 37.1893 134.053 38V38.448H127.637C127.722 38.896 127.888 39.296 128.133 39.648C128.389 40 128.709 40.2773 129.093 40.48C129.488 40.6827 129.914 40.784 130.373 40.784C130.768 40.784 131.146 40.7253 131.509 40.608C131.882 40.48 132.192 40.2987 132.437 40.064L133.461 41.072C132.981 41.4347 132.485 41.7067 131.973 41.888C131.472 42.0587 130.917 42.144 130.309 42.144ZM127.653 37.248H132.469C132.405 36.8213 132.256 36.448 132.021 36.128C131.797 35.7973 131.514 35.5413 131.173 35.36C130.842 35.168 130.48 35.072 130.085 35.072C129.466 35.072 128.933 35.2747 128.485 35.68C128.048 36.0747 127.77 36.5973 127.653 37.248Z" fill="black"/>
<path d="M40.948 93V84.6H42.388V93H40.948ZM44.1798 93V86.988H45.5358V87.972C45.7678 87.612 46.0438 87.344 46.3638 87.168C46.6838 86.984 47.0398 86.892 47.4318 86.892C47.8478 86.892 48.2118 86.984 48.5238 87.168C48.8358 87.344 49.0798 87.592 49.2558 87.912C49.4398 88.232 49.5318 88.608 49.5318 89.04V93H48.1638V89.424C48.1638 88.984 48.0438 88.636 47.8038 88.38C47.5638 88.116 47.2438 87.984 46.8438 87.984C46.5718 87.984 46.3238 88.048 46.0998 88.176C45.8838 88.296 45.6958 88.476 45.5358 88.716V93H44.1798ZM51.1642 95.508V86.988H52.4962V87.84C52.7122 87.552 52.9802 87.332 53.3002 87.18C53.6282 87.02 53.9842 86.94 54.3682 86.94C54.8802 86.94 55.3402 87.076 55.7482 87.348C56.1562 87.62 56.4802 87.988 56.7202 88.452C56.9602 88.916 57.0802 89.432 57.0802 90C57.0802 90.568 56.9562 91.084 56.7082 91.548C56.4602 92.012 56.1242 92.38 55.7002 92.652C55.2762 92.924 54.8042 93.06 54.2842 93.06C53.9242 93.06 53.5922 92.996 53.2882 92.868C52.9922 92.732 52.7362 92.54 52.5202 92.292V95.508H51.1642ZM53.9602 91.932C54.3042 91.932 54.6082 91.848 54.8722 91.68C55.1442 91.512 55.3562 91.284 55.5082 90.996C55.6682 90.7 55.7482 90.368 55.7482 90C55.7482 89.632 55.6682 89.304 55.5082 89.016C55.3562 88.728 55.1442 88.5 54.8722 88.332C54.6082 88.164 54.3042 88.08 53.9602 88.08C53.6642 88.08 53.3922 88.14 53.1442 88.26C52.8962 88.372 52.6882 88.536 52.5202 88.752V91.26C52.6962 91.468 52.9082 91.632 53.1562 91.752C53.4042 91.872 53.6722 91.932 53.9602 91.932ZM60.5522 93.096C60.1362 93.096 59.7722 93.004 59.4602 92.82C59.1482 92.636 58.9002 92.384 58.7162 92.064C58.5402 91.744 58.4522 91.372 58.4522 90.948V86.988H59.8202V90.552C59.8202 91 59.9362 91.356 60.1682 91.62C60.4082 91.876 60.7322 92.004 61.1402 92.004C61.4122 92.004 61.6562 91.944 61.8722 91.824C62.0962 91.704 62.2882 91.524 62.4482 91.284V86.988H63.8042V93H62.4482V92.028C62.2162 92.38 61.9402 92.648 61.6202 92.832C61.3002 93.008 60.9442 93.096 60.5522 93.096ZM68.0765 93.12C67.4685 93.12 67.0085 92.98 66.6965 92.7C66.3845 92.412 66.2285 91.992 66.2285 91.44V88.068H65.0285V86.988H66.2285V85.332L67.5845 85.044V86.988H69.2525V88.068H67.5845V91.14C67.5845 91.436 67.6485 91.648 67.7765 91.776C67.9045 91.896 68.1205 91.956 68.4245 91.956C68.5605 91.956 68.6845 91.948 68.7965 91.932C68.9165 91.908 69.0645 91.868 69.2405 91.812V92.952C69.0725 93.008 68.8805 93.048 68.6645 93.072C68.4565 93.104 68.2605 93.12 68.0765 93.12ZM73.1486 93V84.396L74.5046 84.156V93H73.1486ZM77.996 93.108C77.58 93.108 77.208 93.032 76.88 92.88C76.56 92.72 76.308 92.504 76.124 92.232C75.948 91.952 75.86 91.632 75.86 91.272C75.86 90.912 75.952 90.6 76.136 90.336C76.328 90.072 76.596 89.868 76.94 89.724C77.284 89.58 77.692 89.508 78.164 89.508C78.444 89.508 78.72 89.54 78.992 89.604C79.264 89.66 79.528 89.756 79.784 89.892V89.22C79.784 88.82 79.668 88.52 79.436 88.32C79.212 88.12 78.868 88.02 78.404 88.02C78.156 88.02 77.888 88.06 77.6 88.14C77.32 88.212 77.004 88.328 76.652 88.488L76.172 87.504C77.052 87.096 77.884 86.892 78.668 86.892C79.452 86.892 80.056 87.084 80.48 87.468C80.912 87.844 81.128 88.38 81.128 89.076V93H79.784V92.376C79.528 92.624 79.252 92.808 78.956 92.928C78.66 93.048 78.34 93.108 77.996 93.108ZM77.132 91.248C77.132 91.528 77.244 91.748 77.468 91.908C77.692 92.068 77.992 92.148 78.368 92.148C78.64 92.148 78.892 92.108 79.124 92.028C79.364 91.94 79.584 91.812 79.784 91.644V90.672C79.576 90.576 79.36 90.504 79.136 90.456C78.912 90.408 78.668 90.384 78.404 90.384C78.012 90.384 77.7 90.46 77.468 90.612C77.244 90.764 77.132 90.976 77.132 91.248ZM82.7697 93V84.432L84.1257 84.204V87.792C84.3417 87.52 84.6057 87.312 84.9177 87.168C85.2377 87.016 85.5897 86.94 85.9737 86.94C86.4857 86.94 86.9457 87.076 87.3537 87.348C87.7617 87.62 88.0857 87.988 88.3257 88.452C88.5657 88.916 88.6857 89.432 88.6857 90C88.6857 90.568 88.5617 91.084 88.3137 91.548C88.0657 92.012 87.7297 92.38 87.3057 92.652C86.8817 92.924 86.4097 93.06 85.8897 93.06C85.5297 93.06 85.1977 92.988 84.8937 92.844C84.5897 92.7 84.3257 92.496 84.1017 92.232V93H82.7697ZM85.5657 91.932C85.9097 91.932 86.2137 91.848 86.4777 91.68C86.7497 91.512 86.9617 91.284 87.1137 90.996C87.2737 90.7 87.3537 90.368 87.3537 90C87.3537 89.632 87.2737 89.304 87.1137 89.016C86.9617 88.728 86.7497 88.5 86.4777 88.332C86.2137 88.164 85.9097 88.08 85.5657 88.08C85.2697 88.08 84.9977 88.14 84.7497 88.26C84.5017 88.372 84.2937 88.536 84.1257 88.752V91.26C84.3017 91.468 84.5137 91.632 84.7617 91.752C85.0097 91.872 85.2777 91.932 85.5657 91.932ZM92.9016 93.12C92.3256 93.12 91.8056 92.984 91.3416 92.712C90.8776 92.432 90.5096 92.06 90.2376 91.596C89.9656 91.124 89.8296 90.592 89.8296 90C89.8296 89.408 89.9576 88.88 90.2136 88.416C90.4696 87.952 90.8176 87.584 91.2576 87.312C91.7056 87.032 92.2016 86.892 92.7456 86.892C93.3056 86.892 93.7976 87.028 94.2216 87.3C94.6536 87.572 94.9896 87.94 95.2296 88.404C95.4776 88.868 95.6016 89.4 95.6016 90V90.324H91.1616C91.2096 90.652 91.3136 90.944 91.4736 91.2C91.6416 91.448 91.8536 91.644 92.1096 91.788C92.3736 91.932 92.6576 92.004 92.9616 92.004C93.2416 92.004 93.5056 91.956 93.7536 91.86C94.0096 91.756 94.2216 91.616 94.3896 91.44L95.2776 92.244C94.9096 92.548 94.5336 92.772 94.1496 92.916C93.7736 93.052 93.3576 93.12 92.9016 93.12ZM91.1736 89.484H94.3176C94.2696 89.196 94.1696 88.94 94.0176 88.716C93.8736 88.492 93.6896 88.316 93.4656 88.188C93.2496 88.06 93.0096 87.996 92.7456 87.996C92.4816 87.996 92.2376 88.06 92.0136 88.188C91.7976 88.308 91.6176 88.48 91.4736 88.704C91.3296 88.928 91.2296 89.188 91.1736 89.484ZM96.9845 93V84.396L98.3405 84.156V93H96.9845Z" fill="#151515"/>
<path d="M112 83C115.313 83 118 85.6875 118 89C118 92.3144 115.313 95 112 95C108.687 95 106 92.3144 106 89C106 85.6875 108.687 83 112 83ZM112 84.1611C109.326 84.1611 107.161 86.3267 107.161 89C107.161 91.6751 109.326 93.8389 112 93.8389C114.675 93.8389 116.839 91.6741 116.839 89C116.839 86.3259 114.673 84.1611 112 84.1611ZM112 90.6934C112.56 90.6934 113.017 91.1497 113.017 91.71C113.016 92.2701 112.56 92.7256 112 92.7256C111.44 92.7256 110.984 92.2701 110.983 91.71C110.983 91.1497 111.44 90.6934 112 90.6934ZM112.141 85.5166C113.328 85.5168 114.594 86.4428 114.595 87.6641C114.595 89.2862 112.843 89.3117 112.843 89.9111V90.0645C112.843 90.2248 112.712 90.3545 112.552 90.3545H111.448C111.288 90.3545 111.157 90.2248 111.157 90.0645V89.8555C111.157 88.9908 111.813 88.6449 112.309 88.3672C112.733 88.1291 112.994 87.9666 112.994 87.6514C112.994 87.2341 112.462 86.957 112.031 86.957C111.47 86.9571 111.212 87.2224 110.848 87.6816C110.75 87.8054 110.57 87.8287 110.444 87.7334L109.771 87.2227C109.647 87.1289 109.62 86.9552 109.707 86.8271C110.279 85.9878 111.007 85.5166 112.141 85.5166Z" fill="#707070"/>
<mask id="path-5-inside-1_1539_56071" fill="white">
<path d="M40 112C40 108.686 42.6863 106 46 106H281C284.314 106 287 108.686 287 112V137C287 140.314 284.314 143 281 143H46C42.6863 143 40 140.314 40 137V112Z"/>
</mask>
<path d="M40 112C40 108.686 42.6863 106 46 106H281C284.314 106 287 108.686 287 112V137C287 140.314 284.314 143 281 143H46C42.6863 143 40 140.314 40 137V112Z" fill="white"/>
<path d="M46 106V107H281V106V105H46V106ZM287 112H286V137H287H288V112H287ZM281 143V142H46V143V144H281V143ZM40 137H41V112H40H39V137H40ZM46 143V142C43.2386 142 41 139.761 41 137H40H39C39 140.866 42.134 144 46 144V143ZM287 137H286C286 139.761 283.761 142 281 142V143V144C284.866 144 288 140.866 288 137H287ZM281 106V107C283.761 107 286 109.239 286 112H287H288C288 108.134 284.866 105 281 105V106ZM46 106V105C42.134 105 39 108.134 39 112H40H41C41 109.239 43.2386 107 46 107V106Z" fill="#C7C7C7" mask="url(#path-5-inside-1_1539_56071)"/>
<path d="M57.232 129V119.2H58.31V129H57.232ZM60.591 129V122.168H61.613V123.274C61.8743 122.863 62.187 122.56 62.551 122.364C62.915 122.159 63.3257 122.056 63.783 122.056C64.2777 122.056 64.707 122.163 65.071 122.378C65.4443 122.583 65.7337 122.877 65.939 123.26C66.1537 123.633 66.261 124.072 66.261 124.576V129H65.239V124.87C65.239 124.263 65.071 123.787 64.735 123.442C64.4083 123.087 63.965 122.91 63.405 122.91C63.0317 122.91 62.691 122.999 62.383 123.176C62.075 123.353 61.8183 123.615 61.613 123.96V129H60.591ZM68.3156 131.926V122.168H69.3236V123.148C69.585 122.803 69.9023 122.541 70.2756 122.364C70.6583 122.177 71.0783 122.084 71.5356 122.084C72.133 122.084 72.665 122.243 73.1316 122.56C73.6076 122.868 73.9856 123.288 74.2656 123.82C74.5456 124.343 74.6856 124.931 74.6856 125.584C74.6856 126.237 74.541 126.83 74.2516 127.362C73.9716 127.894 73.589 128.319 73.1036 128.636C72.6276 128.944 72.0863 129.098 71.4796 129.098C71.0503 129.098 70.6536 129.019 70.2896 128.86C69.9256 128.692 69.6083 128.454 69.3376 128.146V131.926H68.3156ZM71.2836 128.216C71.741 128.216 72.147 128.104 72.5016 127.88C72.8656 127.647 73.1503 127.334 73.3556 126.942C73.5703 126.541 73.6776 126.093 73.6776 125.598C73.6776 125.094 73.5703 124.646 73.3556 124.254C73.1503 123.862 72.8656 123.554 72.5016 123.33C72.147 123.097 71.741 122.98 71.2836 122.98C70.8823 122.98 70.509 123.064 70.1636 123.232C69.8276 123.391 69.5523 123.619 69.3376 123.918V127.264C69.5616 127.563 69.8416 127.796 70.1776 127.964C70.523 128.132 70.8916 128.216 71.2836 128.216ZM78.9137 129.112C78.4284 129.112 77.9991 129.005 77.6257 128.79C77.2524 128.575 76.9584 128.277 76.7437 127.894C76.5384 127.511 76.4357 127.073 76.4357 126.578V122.168H77.4717V126.284C77.4717 126.891 77.6351 127.371 77.9617 127.726C78.2884 128.081 78.7317 128.258 79.2917 128.258C79.6744 128.258 80.0151 128.169 80.3137 127.992C80.6217 127.815 80.8784 127.558 81.0837 127.222V122.168H82.1057V129H81.0837V127.894C80.8224 128.295 80.5097 128.599 80.1457 128.804C79.7911 129.009 79.3804 129.112 78.9137 129.112ZM86.8063 129.14C86.2183 129.14 85.7703 129 85.4623 128.72C85.1637 128.431 85.0143 128.015 85.0143 127.474V123.008H83.6003V122.168H85.0143V120.292L86.0363 120.054V122.168H87.9963V123.008H86.0363V127.208C86.0363 127.572 86.111 127.833 86.2603 127.992C86.419 128.151 86.6757 128.23 87.0303 128.23C87.2077 128.23 87.3663 128.216 87.5063 128.188C87.6463 128.16 87.8097 128.113 87.9963 128.048V128.958C87.8097 129.023 87.6137 129.07 87.4083 129.098C87.203 129.126 87.0023 129.14 86.8063 129.14ZM95.3649 129.14C94.7769 129.14 94.3289 129 94.0209 128.72C93.7223 128.431 93.5729 128.015 93.5729 127.474V123.008H92.1589V122.168H93.5729V120.292L94.5949 120.054V122.168H96.5549V123.008H94.5949V127.208C94.5949 127.572 94.6696 127.833 94.8189 127.992C94.9776 128.151 95.2343 128.23 95.5889 128.23C95.7663 128.23 95.9249 128.216 96.0649 128.188C96.2049 128.16 96.3683 128.113 96.5549 128.048V128.958C96.3683 129.023 96.1723 129.07 95.9669 129.098C95.7616 129.126 95.5609 129.14 95.3649 129.14ZM100.995 129.14C100.361 129.14 99.7866 128.986 99.2732 128.678C98.7599 128.361 98.3539 127.936 98.0552 127.404C97.7566 126.863 97.6072 126.256 97.6072 125.584C97.6072 124.912 97.7472 124.31 98.0272 123.778C98.3166 123.246 98.7039 122.826 99.1892 122.518C99.6746 122.21 100.216 122.056 100.813 122.056C101.42 122.056 101.957 122.21 102.423 122.518C102.899 122.817 103.273 123.227 103.543 123.75C103.823 124.263 103.963 124.847 103.963 125.5V125.808H98.6012C98.6386 126.275 98.7646 126.695 98.9792 127.068C99.2032 127.432 99.4926 127.721 99.8472 127.936C100.211 128.141 100.608 128.244 101.037 128.244C101.392 128.244 101.733 128.183 102.059 128.062C102.395 127.931 102.68 127.759 102.913 127.544L103.557 128.23C103.165 128.538 102.759 128.767 102.339 128.916C101.919 129.065 101.471 129.14 100.995 129.14ZM98.6292 125.08H102.955C102.909 124.669 102.783 124.305 102.577 123.988C102.381 123.661 102.129 123.405 101.821 123.218C101.523 123.031 101.187 122.938 100.813 122.938C100.44 122.938 100.099 123.031 99.7912 123.218C99.4832 123.395 99.2266 123.647 99.0212 123.974C98.8252 124.291 98.6946 124.66 98.6292 125.08ZM104.416 129L107.034 125.458L104.57 122.168H105.788L107.678 124.772L109.554 122.168H110.716L108.238 125.486L110.87 129H109.652L107.608 126.214L105.578 129H104.416ZM114.574 129.14C113.986 129.14 113.538 129 113.23 128.72C112.931 128.431 112.782 128.015 112.782 127.474V123.008H111.368V122.168H112.782V120.292L113.804 120.054V122.168H115.764V123.008H113.804V127.208C113.804 127.572 113.879 127.833 114.028 127.992C114.187 128.151 114.443 128.23 114.798 128.23C114.975 128.23 115.134 128.216 115.274 128.188C115.414 128.16 115.577 128.113 115.764 128.048V128.958C115.577 129.023 115.381 129.07 115.176 129.098C114.971 129.126 114.77 129.14 114.574 129.14Z" fill="#151515"/>
<path d="M338.136 42V30.8H339.816V35.6H345.768V30.8H347.448V42H345.768V37.12H339.816V42H338.136ZM353.41 42.16C352.62 42.16 351.9 41.9733 351.25 41.6C350.61 41.2267 350.103 40.72 349.73 40.08C349.356 39.44 349.17 38.7253 349.17 37.936C349.17 37.1467 349.356 36.432 349.73 35.792C350.103 35.152 350.61 34.6453 351.25 34.272C351.9 33.888 352.62 33.696 353.41 33.696C354.21 33.696 354.93 33.888 355.57 34.272C356.21 34.6453 356.716 35.152 357.09 35.792C357.463 36.432 357.65 37.1467 357.65 37.936C357.65 38.7253 357.463 39.44 357.09 40.08C356.716 40.72 356.21 41.2267 355.57 41.6C354.93 41.9733 354.21 42.16 353.41 42.16ZM353.41 40.752C353.911 40.752 354.359 40.6293 354.754 40.384C355.159 40.128 355.479 39.7867 355.714 39.36C355.959 38.9333 356.082 38.4587 356.082 37.936C356.082 37.4027 355.964 36.928 355.73 36.512C355.495 36.0853 355.175 35.744 354.77 35.488C354.364 35.232 353.911 35.104 353.41 35.104C352.908 35.104 352.455 35.232 352.05 35.488C351.644 35.744 351.324 36.0853 351.09 36.512C350.855 36.928 350.738 37.4027 350.738 37.936C350.738 38.4587 350.855 38.9333 351.09 39.36C351.324 39.7867 351.644 40.128 352.05 40.384C352.455 40.6293 352.908 40.752 353.41 40.752ZM361.552 42L358.032 33.856H359.792L362.336 39.952L364.88 33.856H366.576L363.088 42H361.552ZM371.239 42.144C370.439 42.144 369.713 41.9573 369.063 41.584C368.423 41.2107 367.911 40.704 367.527 40.064C367.153 39.424 366.967 38.7093 366.967 37.92C366.967 37.1413 367.148 36.4373 367.511 35.808C367.873 35.168 368.364 34.6613 368.983 34.288C369.601 33.904 370.289 33.712 371.047 33.712C371.804 33.712 372.476 33.904 373.063 34.288C373.649 34.6613 374.113 35.1733 374.455 35.824C374.807 36.464 374.983 37.1893 374.983 38V38.448H368.567C368.652 38.896 368.817 39.296 369.063 39.648C369.319 40 369.639 40.2773 370.023 40.48C370.417 40.6827 370.844 40.784 371.303 40.784C371.697 40.784 372.076 40.7253 372.439 40.608C372.812 40.48 373.121 40.2987 373.367 40.064L374.391 41.072C373.911 41.4347 373.415 41.7067 372.903 41.888C372.401 42.0587 371.847 42.144 371.239 42.144ZM368.583 37.248H373.399C373.335 36.8213 373.185 36.448 372.951 36.128C372.727 35.7973 372.444 35.5413 372.103 35.36C371.772 35.168 371.409 35.072 371.015 35.072C370.396 35.072 369.863 35.2747 369.415 35.68C368.977 36.0747 368.7 36.5973 368.583 37.248ZM376.507 42V33.856H378.107V34.896C378.363 34.512 378.677 34.2133 379.051 34C379.435 33.776 379.867 33.664 380.347 33.664C380.677 33.6747 380.949 33.7227 381.163 33.808V35.248C380.853 35.1307 380.539 35.072 380.219 35.072C379.749 35.072 379.333 35.2 378.971 35.456C378.608 35.7013 378.32 36.064 378.107 36.544V42H376.507ZM388.588 42.16C387.884 42.16 387.222 42.0587 386.604 41.856C385.996 41.6427 385.468 41.344 385.02 40.96L385.9 39.904C386.316 40.2347 386.742 40.4907 387.18 40.672C387.628 40.8427 388.081 40.928 388.54 40.928C389.116 40.928 389.585 40.816 389.948 40.592C390.31 40.368 390.492 40.0747 390.492 39.712C390.492 39.136 390.054 38.784 389.18 38.656L387.708 38.448C386.897 38.3307 386.289 38.08 385.884 37.696C385.478 37.312 385.276 36.8 385.276 36.16C385.276 35.6693 385.409 35.2427 385.676 34.88C385.942 34.5067 386.316 34.2187 386.796 34.016C387.276 33.8027 387.836 33.696 388.476 33.696C389.062 33.696 389.628 33.7813 390.172 33.952C390.716 34.1227 391.238 34.3893 391.74 34.752L390.924 35.808C390.038 35.232 389.18 34.944 388.348 34.944C387.857 34.944 387.462 35.0507 387.164 35.264C386.865 35.4667 386.716 35.7333 386.716 36.064C386.716 36.3627 386.817 36.5973 387.02 36.768C387.233 36.928 387.58 37.04 388.06 37.104L389.532 37.312C390.342 37.4293 390.956 37.68 391.372 38.064C391.788 38.4373 391.996 38.944 391.996 39.584C391.996 40.0747 391.846 40.5173 391.548 40.912C391.249 41.296 390.844 41.6 390.332 41.824C389.82 42.048 389.238 42.16 388.588 42.16ZM396.557 42.144C395.768 42.144 395.165 41.9627 394.749 41.6C394.333 41.2267 394.125 40.688 394.125 39.984V35.2H392.397V33.856H394.125V31.776L395.709 31.392V33.856H398.109V35.2H395.709V39.616C395.709 40.032 395.8 40.3307 395.981 40.512C396.173 40.6827 396.482 40.768 396.909 40.768C397.133 40.768 397.33 40.752 397.501 40.72C397.682 40.688 397.874 40.64 398.077 40.576V41.92C397.864 41.9947 397.613 42.048 397.325 42.08C397.048 42.1227 396.792 42.144 396.557 42.144ZM401.864 42.144C401.277 42.144 400.76 42.0427 400.312 41.84C399.864 41.6267 399.512 41.3333 399.256 40.96C399 40.5867 398.872 40.1547 398.872 39.664C398.872 38.896 399.165 38.2933 399.752 37.856C400.338 37.408 401.144 37.184 402.168 37.184C402.968 37.184 403.709 37.3387 404.392 37.648V36.784C404.392 35.6213 403.73 35.04 402.408 35.04C402.034 35.04 401.645 35.0987 401.24 35.216C400.834 35.3227 400.381 35.4933 399.88 35.728L399.288 34.528C399.906 34.24 400.482 34.032 401.016 33.904C401.549 33.7653 402.088 33.696 402.632 33.696C403.688 33.696 404.504 33.9467 405.08 34.448C405.666 34.9493 405.96 35.664 405.96 36.592V42H404.392V41.296C404.029 41.584 403.64 41.7973 403.224 41.936C402.808 42.0747 402.354 42.144 401.864 42.144ZM400.408 39.632C400.408 40.0267 400.573 40.3467 400.904 40.592C401.245 40.8373 401.688 40.96 402.232 40.96C403.106 40.96 403.826 40.6987 404.392 40.176V38.8C403.805 38.4587 403.106 38.288 402.296 38.288C401.709 38.288 401.245 38.4107 400.904 38.656C400.573 38.8907 400.408 39.216 400.408 39.632ZM411.057 42.144C410.268 42.144 409.665 41.9627 409.249 41.6C408.833 41.2267 408.625 40.688 408.625 39.984V35.2H406.897V33.856H408.625V31.776L410.209 31.392V33.856H412.609V35.2H410.209V39.616C410.209 40.032 410.3 40.3307 410.481 40.512C410.673 40.6827 410.982 40.768 411.409 40.768C411.633 40.768 411.83 40.752 412.001 40.72C412.182 40.688 412.374 40.64 412.577 40.576V41.92C412.364 41.9947 412.113 42.048 411.825 42.08C411.548 42.1227 411.292 42.144 411.057 42.144ZM417.567 42.144C416.767 42.144 416.041 41.9573 415.391 41.584C414.751 41.2107 414.239 40.704 413.855 40.064C413.481 39.424 413.295 38.7093 413.295 37.92C413.295 37.1413 413.476 36.4373 413.839 35.808C414.201 35.168 414.692 34.6613 415.311 34.288C415.929 33.904 416.617 33.712 417.375 33.712C418.132 33.712 418.804 33.904 419.391 34.288C419.977 34.6613 420.441 35.1733 420.783 35.824C421.135 36.464 421.311 37.1893 421.311 38V38.448H414.895C414.98 38.896 415.145 39.296 415.391 39.648C415.647 40 415.967 40.2773 416.351 40.48C416.745 40.6827 417.172 40.784 417.631 40.784C418.025 40.784 418.404 40.7253 418.767 40.608C419.14 40.48 419.449 40.2987 419.695 40.064L420.719 41.072C420.239 41.4347 419.743 41.7067 419.231 41.888C418.729 42.0587 418.175 42.144 417.567 42.144ZM414.911 37.248H419.727C419.663 36.8213 419.513 36.448 419.279 36.128C419.055 35.7973 418.772 35.5413 418.431 35.36C418.1 35.168 417.737 35.072 417.343 35.072C416.724 35.072 416.191 35.2747 415.743 35.68C415.305 36.0747 415.028 36.5973 414.911 37.248Z" fill="black"/>
<path d="M337.948 93V84.6H339.388V93H337.948ZM341.18 93V86.988H342.536V87.972C342.768 87.612 343.044 87.344 343.364 87.168C343.684 86.984 344.04 86.892 344.432 86.892C344.848 86.892 345.212 86.984 345.524 87.168C345.836 87.344 346.08 87.592 346.256 87.912C346.44 88.232 346.532 88.608 346.532 89.04V93H345.164V89.424C345.164 88.984 345.044 88.636 344.804 88.38C344.564 88.116 344.244 87.984 343.844 87.984C343.572 87.984 343.324 88.048 343.1 88.176C342.884 88.296 342.696 88.476 342.536 88.716V93H341.18ZM348.164 95.508V86.988H349.496V87.84C349.712 87.552 349.98 87.332 350.3 87.18C350.628 87.02 350.984 86.94 351.368 86.94C351.88 86.94 352.34 87.076 352.748 87.348C353.156 87.62 353.48 87.988 353.72 88.452C353.96 88.916 354.08 89.432 354.08 90C354.08 90.568 353.956 91.084 353.708 91.548C353.46 92.012 353.124 92.38 352.7 92.652C352.276 92.924 351.804 93.06 351.284 93.06C350.924 93.06 350.592 92.996 350.288 92.868C349.992 92.732 349.736 92.54 349.52 92.292V95.508H348.164ZM350.96 91.932C351.304 91.932 351.608 91.848 351.872 91.68C352.144 91.512 352.356 91.284 352.508 90.996C352.668 90.7 352.748 90.368 352.748 90C352.748 89.632 352.668 89.304 352.508 89.016C352.356 88.728 352.144 88.5 351.872 88.332C351.608 88.164 351.304 88.08 350.96 88.08C350.664 88.08 350.392 88.14 350.144 88.26C349.896 88.372 349.688 88.536 349.52 88.752V91.26C349.696 91.468 349.908 91.632 350.156 91.752C350.404 91.872 350.672 91.932 350.96 91.932ZM357.552 93.096C357.136 93.096 356.772 93.004 356.46 92.82C356.148 92.636 355.9 92.384 355.716 92.064C355.54 91.744 355.452 91.372 355.452 90.948V86.988H356.82V90.552C356.82 91 356.936 91.356 357.168 91.62C357.408 91.876 357.732 92.004 358.14 92.004C358.412 92.004 358.656 91.944 358.872 91.824C359.096 91.704 359.288 91.524 359.448 91.284V86.988H360.804V93H359.448V92.028C359.216 92.38 358.94 92.648 358.62 92.832C358.3 93.008 357.944 93.096 357.552 93.096ZM365.077 93.12C364.469 93.12 364.009 92.98 363.697 92.7C363.385 92.412 363.229 91.992 363.229 91.44V88.068H362.029V86.988H363.229V85.332L364.585 85.044V86.988H366.253V88.068H364.585V91.14C364.585 91.436 364.649 91.648 364.777 91.776C364.905 91.896 365.121 91.956 365.425 91.956C365.561 91.956 365.685 91.948 365.797 91.932C365.917 91.908 366.065 91.868 366.241 91.812V92.952C366.073 93.008 365.881 93.048 365.665 93.072C365.457 93.104 365.261 93.12 365.077 93.12ZM370.149 93V84.396L371.505 84.156V93H370.149ZM374.996 93.108C374.58 93.108 374.208 93.032 373.88 92.88C373.56 92.72 373.308 92.504 373.124 92.232C372.948 91.952 372.86 91.632 372.86 91.272C372.86 90.912 372.952 90.6 373.136 90.336C373.328 90.072 373.596 89.868 373.94 89.724C374.284 89.58 374.692 89.508 375.164 89.508C375.444 89.508 375.72 89.54 375.992 89.604C376.264 89.66 376.528 89.756 376.784 89.892V89.22C376.784 88.82 376.668 88.52 376.436 88.32C376.212 88.12 375.868 88.02 375.404 88.02C375.156 88.02 374.888 88.06 374.6 88.14C374.32 88.212 374.004 88.328 373.652 88.488L373.172 87.504C374.052 87.096 374.884 86.892 375.668 86.892C376.452 86.892 377.056 87.084 377.48 87.468C377.912 87.844 378.128 88.38 378.128 89.076V93H376.784V92.376C376.528 92.624 376.252 92.808 375.956 92.928C375.66 93.048 375.34 93.108 374.996 93.108ZM374.132 91.248C374.132 91.528 374.244 91.748 374.468 91.908C374.692 92.068 374.992 92.148 375.368 92.148C375.64 92.148 375.892 92.108 376.124 92.028C376.364 91.94 376.584 91.812 376.784 91.644V90.672C376.576 90.576 376.36 90.504 376.136 90.456C375.912 90.408 375.668 90.384 375.404 90.384C375.012 90.384 374.7 90.46 374.468 90.612C374.244 90.764 374.132 90.976 374.132 91.248ZM379.77 93V84.432L381.126 84.204V87.792C381.342 87.52 381.606 87.312 381.918 87.168C382.238 87.016 382.59 86.94 382.974 86.94C383.486 86.94 383.946 87.076 384.354 87.348C384.762 87.62 385.086 87.988 385.326 88.452C385.566 88.916 385.686 89.432 385.686 90C385.686 90.568 385.562 91.084 385.314 91.548C385.066 92.012 384.73 92.38 384.306 92.652C383.882 92.924 383.41 93.06 382.89 93.06C382.53 93.06 382.198 92.988 381.894 92.844C381.59 92.7 381.326 92.496 381.102 92.232V93H379.77ZM382.566 91.932C382.91 91.932 383.214 91.848 383.478 91.68C383.75 91.512 383.962 91.284 384.114 90.996C384.274 90.7 384.354 90.368 384.354 90C384.354 89.632 384.274 89.304 384.114 89.016C383.962 88.728 383.75 88.5 383.478 88.332C383.214 88.164 382.91 88.08 382.566 88.08C382.27 88.08 381.998 88.14 381.75 88.26C381.502 88.372 381.294 88.536 381.126 88.752V91.26C381.302 91.468 381.514 91.632 381.762 91.752C382.01 91.872 382.278 91.932 382.566 91.932ZM389.902 93.12C389.326 93.12 388.806 92.984 388.342 92.712C387.878 92.432 387.51 92.06 387.238 91.596C386.966 91.124 386.83 90.592 386.83 90C386.83 89.408 386.958 88.88 387.214 88.416C387.47 87.952 387.818 87.584 388.258 87.312C388.706 87.032 389.202 86.892 389.746 86.892C390.306 86.892 390.798 87.028 391.222 87.3C391.654 87.572 391.99 87.94 392.23 88.404C392.478 88.868 392.602 89.4 392.602 90V90.324H388.162C388.21 90.652 388.314 90.944 388.474 91.2C388.642 91.448 388.854 91.644 389.11 91.788C389.374 91.932 389.658 92.004 389.962 92.004C390.242 92.004 390.506 91.956 390.754 91.86C391.01 91.756 391.222 91.616 391.39 91.44L392.278 92.244C391.91 92.548 391.534 92.772 391.15 92.916C390.774 93.052 390.358 93.12 389.902 93.12ZM388.174 89.484H391.318C391.27 89.196 391.17 88.94 391.018 88.716C390.874 88.492 390.69 88.316 390.466 88.188C390.25 88.06 390.01 87.996 389.746 87.996C389.482 87.996 389.238 88.06 389.014 88.188C388.798 88.308 388.618 88.48 388.474 88.704C388.33 88.928 388.23 89.188 388.174 89.484ZM393.985 93V84.396L395.341 84.156V93H393.985Z" fill="#151515"/>
<g style="mix-blend-mode:multiply">
<path d="M409 83C412.313 83 415 85.6875 415 89C415 92.3144 412.313 95 409 95C405.687 95 403 92.3144 403 89C403 85.6875 405.687 83 409 83ZM409 84.1611C406.326 84.1611 404.161 86.3267 404.161 89C404.161 91.6751 406.326 93.8389 409 93.8389C411.675 93.8389 413.839 91.6741 413.839 89C413.839 86.3259 411.673 84.1611 409 84.1611ZM409 90.6934C409.56 90.6934 410.017 91.1497 410.017 91.71C410.016 92.2701 409.56 92.7256 409 92.7256C408.44 92.7256 407.984 92.2701 407.983 91.71C407.983 91.1497 408.44 90.6934 409 90.6934ZM409.141 85.5166C410.328 85.5168 411.594 86.4428 411.595 87.6641C411.595 89.2862 409.843 89.3117 409.843 89.9111V90.0645C409.843 90.2248 409.712 90.3545 409.552 90.3545H408.448C408.288 90.3545 408.157 90.2248 408.157 90.0645V89.8555C408.157 88.9908 408.813 88.6449 409.309 88.3672C409.733 88.1291 409.994 87.9666 409.994 87.6514C409.994 87.2341 409.462 86.957 409.031 86.957C408.47 86.9571 408.212 87.2224 407.848 87.6816C407.75 87.8054 407.57 87.8287 407.444 87.7334L406.771 87.2227C406.647 87.1289 406.62 86.9552 406.707 86.8271C407.279 85.9878 408.007 85.5166 409.141 85.5166Z" fill="#1F1F1F"/>
</g>
<mask id="path-12-inside-2_1539_56071" fill="white">
<path d="M337 112C337 108.686 339.686 106 343 106H578C581.314 106 584 108.686 584 112V137C584 140.314 581.314 143 578 143H343C339.686 143 337 140.314 337 137V112Z"/>
</mask>
<path d="M337 112C337 108.686 339.686 106 343 106H578C581.314 106 584 108.686 584 112V137C584 140.314 581.314 143 578 143H343C339.686 143 337 140.314 337 137V112Z" fill="white"/>
<path d="M343 106V107H578V106V105H343V106ZM584 112H583V137H584H585V112H584ZM578 143V142H343V143V144H578V143ZM337 137H338V112H337H336V137H337ZM343 143V142C340.239 142 338 139.761 338 137H337H336C336 140.866 339.134 144 343 144V143ZM584 137H583C583 139.761 580.761 142 578 142V143V144C581.866 144 585 140.866 585 137H584ZM578 106V107C580.761 107 583 109.239 583 112H584H585C585 108.134 581.866 105 578 105V106ZM343 106V105C339.134 105 336 108.134 336 112H337H338C338 109.239 340.239 107 343 107V106Z" fill="#C7C7C7" mask="url(#path-12-inside-2_1539_56071)"/>
<path d="M354.232 129V119.2H355.31V129H354.232ZM357.591 129V122.168H358.613V123.274C358.874 122.863 359.187 122.56 359.551 122.364C359.915 122.159 360.326 122.056 360.783 122.056C361.278 122.056 361.707 122.163 362.071 122.378C362.444 122.583 362.734 122.877 362.939 123.26C363.154 123.633 363.261 124.072 363.261 124.576V129H362.239V124.87C362.239 124.263 362.071 123.787 361.735 123.442C361.408 123.087 360.965 122.91 360.405 122.91C360.032 122.91 359.691 122.999 359.383 123.176C359.075 123.353 358.818 123.615 358.613 123.96V129H357.591ZM365.316 131.926V122.168H366.324V123.148C366.585 122.803 366.902 122.541 367.276 122.364C367.658 122.177 368.078 122.084 368.536 122.084C369.133 122.084 369.665 122.243 370.132 122.56C370.608 122.868 370.986 123.288 371.266 123.82C371.546 124.343 371.686 124.931 371.686 125.584C371.686 126.237 371.541 126.83 371.252 127.362C370.972 127.894 370.589 128.319 370.104 128.636C369.628 128.944 369.086 129.098 368.48 129.098C368.05 129.098 367.654 129.019 367.29 128.86C366.926 128.692 366.608 128.454 366.338 128.146V131.926H365.316ZM368.284 128.216C368.741 128.216 369.147 128.104 369.502 127.88C369.866 127.647 370.15 127.334 370.356 126.942C370.57 126.541 370.678 126.093 370.678 125.598C370.678 125.094 370.57 124.646 370.356 124.254C370.15 123.862 369.866 123.554 369.502 123.33C369.147 123.097 368.741 122.98 368.284 122.98C367.882 122.98 367.509 123.064 367.164 123.232C366.828 123.391 366.552 123.619 366.338 123.918V127.264C366.562 127.563 366.842 127.796 367.178 127.964C367.523 128.132 367.892 128.216 368.284 128.216ZM375.914 129.112C375.428 129.112 374.999 129.005 374.626 128.79C374.252 128.575 373.958 128.277 373.744 127.894C373.538 127.511 373.436 127.073 373.436 126.578V122.168H374.472V126.284C374.472 126.891 374.635 127.371 374.962 127.726C375.288 128.081 375.732 128.258 376.292 128.258C376.674 128.258 377.015 128.169 377.314 127.992C377.622 127.815 377.878 127.558 378.084 127.222V122.168H379.106V129H378.084V127.894C377.822 128.295 377.51 128.599 377.146 128.804C376.791 129.009 376.38 129.112 375.914 129.112ZM383.806 129.14C383.218 129.14 382.77 129 382.462 128.72C382.164 128.431 382.014 128.015 382.014 127.474V123.008H380.6V122.168H382.014V120.292L383.036 120.054V122.168H384.996V123.008H383.036V127.208C383.036 127.572 383.111 127.833 383.26 127.992C383.419 128.151 383.676 128.23 384.03 128.23C384.208 128.23 384.366 128.216 384.506 128.188C384.646 128.16 384.81 128.113 384.996 128.048V128.958C384.81 129.023 384.614 129.07 384.408 129.098C384.203 129.126 384.002 129.14 383.806 129.14ZM392.365 129.14C391.777 129.14 391.329 129 391.021 128.72C390.722 128.431 390.573 128.015 390.573 127.474V123.008H389.159V122.168H390.573V120.292L391.595 120.054V122.168H393.555V123.008H391.595V127.208C391.595 127.572 391.67 127.833 391.819 127.992C391.978 128.151 392.234 128.23 392.589 128.23C392.766 128.23 392.925 128.216 393.065 128.188C393.205 128.16 393.368 128.113 393.555 128.048V128.958C393.368 129.023 393.172 129.07 392.967 129.098C392.762 129.126 392.561 129.14 392.365 129.14ZM397.995 129.14C397.361 129.14 396.787 128.986 396.273 128.678C395.76 128.361 395.354 127.936 395.055 127.404C394.757 126.863 394.607 126.256 394.607 125.584C394.607 124.912 394.747 124.31 395.027 123.778C395.317 123.246 395.704 122.826 396.189 122.518C396.675 122.21 397.216 122.056 397.813 122.056C398.42 122.056 398.957 122.21 399.423 122.518C399.899 122.817 400.273 123.227 400.543 123.75C400.823 124.263 400.963 124.847 400.963 125.5V125.808H395.601C395.639 126.275 395.765 126.695 395.979 127.068C396.203 127.432 396.493 127.721 396.847 127.936C397.211 128.141 397.608 128.244 398.037 128.244C398.392 128.244 398.733 128.183 399.059 128.062C399.395 127.931 399.68 127.759 399.913 127.544L400.557 128.23C400.165 128.538 399.759 128.767 399.339 128.916C398.919 129.065 398.471 129.14 397.995 129.14ZM395.629 125.08H399.955C399.909 124.669 399.783 124.305 399.577 123.988C399.381 123.661 399.129 123.405 398.821 123.218C398.523 123.031 398.187 122.938 397.813 122.938C397.44 122.938 397.099 123.031 396.791 123.218C396.483 123.395 396.227 123.647 396.021 123.974C395.825 124.291 395.695 124.66 395.629 125.08ZM401.416 129L404.034 125.458L401.57 122.168H402.788L404.678 124.772L406.554 122.168H407.716L405.238 125.486L407.87 129H406.652L404.608 126.214L402.578 129H401.416ZM411.574 129.14C410.986 129.14 410.538 129 410.23 128.72C409.931 128.431 409.782 128.015 409.782 127.474V123.008H408.368V122.168H409.782V120.292L410.804 120.054V122.168H412.764V123.008H410.804V127.208C410.804 127.572 410.879 127.833 411.028 127.992C411.187 128.151 411.443 128.23 411.798 128.23C411.975 128.23 412.134 128.216 412.274 128.188C412.414 128.16 412.577 128.113 412.764 128.048V128.958C412.577 129.023 412.381 129.07 412.176 129.098C411.971 129.126 411.77 129.14 411.574 129.14Z" fill="#151515"/>
<path d="M638.928 42.16C638.032 42.16 637.168 41.984 636.336 41.632C635.504 41.28 634.768 40.784 634.128 40.144L635.152 38.96C635.76 39.5573 636.379 40 637.008 40.288C637.648 40.576 638.315 40.72 639.008 40.72C639.552 40.72 640.027 40.6453 640.432 40.496C640.848 40.336 641.168 40.112 641.392 39.824C641.616 39.536 641.728 39.2107 641.728 38.848C641.728 38.3467 641.552 37.9627 641.2 37.696C640.848 37.4293 640.267 37.2267 639.456 37.088L637.584 36.784C636.56 36.6027 635.792 36.272 635.28 35.792C634.779 35.312 634.528 34.672 634.528 33.872C634.528 33.232 634.699 32.672 635.04 32.192C635.381 31.7013 635.861 31.3227 636.48 31.056C637.109 30.7893 637.835 30.656 638.656 30.656C639.467 30.656 640.261 30.7893 641.04 31.056C641.829 31.312 642.539 31.6853 643.168 32.176L642.24 33.456C641.035 32.5387 639.813 32.08 638.576 32.08C637.851 32.08 637.264 32.2347 636.816 32.544C636.368 32.8427 636.144 33.2427 636.144 33.744C636.144 34.2027 636.299 34.5547 636.608 34.8C636.917 35.0347 637.429 35.2053 638.144 35.312L639.952 35.616C641.136 35.808 642.005 36.1547 642.56 36.656C643.115 37.1573 643.392 37.8453 643.392 38.72C643.392 39.4027 643.205 40.0053 642.832 40.528C642.459 41.04 641.936 41.44 641.264 41.728C640.592 42.016 639.813 42.16 638.928 42.16ZM648.817 42.144C648.017 42.144 647.291 41.9573 646.641 41.584C646.001 41.2107 645.489 40.704 645.105 40.064C644.731 39.424 644.545 38.7093 644.545 37.92C644.545 37.1413 644.726 36.4373 645.089 35.808C645.451 35.168 645.942 34.6613 646.561 34.288C647.179 33.904 647.867 33.712 648.625 33.712C649.382 33.712 650.054 33.904 650.641 34.288C651.227 34.6613 651.691 35.1733 652.033 35.824C652.385 36.464 652.561 37.1893 652.561 38V38.448H646.145C646.23 38.896 646.395 39.296 646.641 39.648C646.897 40 647.217 40.2773 647.601 40.48C647.995 40.6827 648.422 40.784 648.881 40.784C649.275 40.784 649.654 40.7253 650.017 40.608C650.39 40.48 650.699 40.2987 650.945 40.064L651.969 41.072C651.489 41.4347 650.993 41.7067 650.481 41.888C649.979 42.0587 649.425 42.144 648.817 42.144ZM646.161 37.248H650.977C650.913 36.8213 650.763 36.448 650.529 36.128C650.305 35.7973 650.022 35.5413 649.681 35.36C649.35 35.168 648.987 35.072 648.593 35.072C647.974 35.072 647.441 35.2747 646.993 35.68C646.555 36.0747 646.278 36.5973 646.161 37.248ZM654.085 42V30.8L655.685 30.496V42H654.085ZM661.473 42.144C660.673 42.144 659.948 41.9573 659.297 41.584C658.657 41.2107 658.145 40.704 657.761 40.064C657.388 39.424 657.201 38.7093 657.201 37.92C657.201 37.1413 657.382 36.4373 657.745 35.808C658.108 35.168 658.598 34.6613 659.217 34.288C659.836 33.904 660.524 33.712 661.281 33.712C662.038 33.712 662.71 33.904 663.297 34.288C663.884 34.6613 664.348 35.1733 664.689 35.824C665.041 36.464 665.217 37.1893 665.217 38V38.448H658.801C658.886 38.896 659.052 39.296 659.297 39.648C659.553 40 659.873 40.2773 660.257 40.48C660.652 40.6827 661.078 40.784 661.537 40.784C661.932 40.784 662.31 40.7253 662.673 40.608C663.046 40.48 663.356 40.2987 663.601 40.064L664.625 41.072C664.145 41.4347 663.649 41.7067 663.137 41.888C662.636 42.0587 662.081 42.144 661.473 42.144ZM658.817 37.248H663.633C663.569 36.8213 663.42 36.448 663.185 36.128C662.961 35.7973 662.678 35.5413 662.337 35.36C662.006 35.168 661.644 35.072 661.249 35.072C660.63 35.072 660.097 35.2747 659.649 35.68C659.212 36.0747 658.934 36.5973 658.817 37.248ZM670.596 42.144C669.817 42.144 669.108 41.9573 668.468 41.584C667.839 41.2107 667.337 40.704 666.964 40.064C666.591 39.424 666.404 38.7093 666.404 37.92C666.404 37.1307 666.591 36.4213 666.964 35.792C667.337 35.152 667.839 34.6453 668.468 34.272C669.108 33.888 669.817 33.696 670.596 33.696C671.215 33.696 671.807 33.8133 672.372 34.048C672.948 34.2827 673.444 34.6133 673.86 35.04L672.868 36.144C672.559 35.8027 672.212 35.5467 671.828 35.376C671.444 35.2053 671.044 35.12 670.628 35.12C670.137 35.12 669.689 35.2427 669.284 35.488C668.889 35.7333 668.575 36.0693 668.34 36.496C668.105 36.9227 667.988 37.3973 667.988 37.92C667.988 38.4427 668.105 38.9227 668.34 39.36C668.575 39.7867 668.895 40.1227 669.3 40.368C669.705 40.6133 670.159 40.736 670.66 40.736C671.481 40.736 672.212 40.4107 672.852 39.76L673.828 40.784C673.401 41.2213 672.905 41.5573 672.34 41.792C671.785 42.0267 671.204 42.144 670.596 42.144ZM678.76 42.144C677.971 42.144 677.368 41.9627 676.952 41.6C676.536 41.2267 676.328 40.688 676.328 39.984V35.2H674.6V33.856H676.328V31.776L677.912 31.392V33.856H680.312V35.2H677.912V39.616C677.912 40.032 678.003 40.3307 678.184 40.512C678.376 40.6827 678.685 40.768 679.112 40.768C679.336 40.768 679.533 40.752 679.704 40.72C679.885 40.688 680.077 40.64 680.28 40.576V41.92C680.067 41.9947 679.816 42.048 679.528 42.08C679.251 42.1227 678.995 42.144 678.76 42.144ZM685.27 42.144C684.47 42.144 683.745 41.9573 683.094 41.584C682.454 41.2107 681.942 40.704 681.558 40.064C681.185 39.424 680.998 38.7093 680.998 37.92C680.998 37.1413 681.179 36.4373 681.542 35.808C681.905 35.168 682.395 34.6613 683.014 34.288C683.633 33.904 684.321 33.712 685.078 33.712C685.835 33.712 686.507 33.904 687.094 34.288C687.681 34.6613 688.145 35.1733 688.486 35.824C688.838 36.464 689.014 37.1893 689.014 38V38.448H682.598C682.683 38.896 682.849 39.296 683.094 39.648C683.35 40 683.67 40.2773 684.054 40.48C684.449 40.6827 684.875 40.784 685.334 40.784C685.729 40.784 686.107 40.7253 686.47 40.608C686.843 40.48 687.153 40.2987 687.398 40.064L688.422 41.072C687.942 41.4347 687.446 41.7067 686.934 41.888C686.433 42.0587 685.878 42.144 685.27 42.144ZM682.614 37.248H687.43C687.366 36.8213 687.217 36.448 686.982 36.128C686.758 35.7973 686.475 35.5413 686.134 35.36C685.803 35.168 685.441 35.072 685.046 35.072C684.427 35.072 683.894 35.2747 683.446 35.68C683.009 36.0747 682.731 36.5973 682.614 37.248ZM694.313 42.128C693.556 42.128 692.862 41.9413 692.233 41.568C691.604 41.1947 691.108 40.6933 690.745 40.064C690.382 39.424 690.201 38.7093 690.201 37.92C690.201 37.1307 690.382 36.4213 690.745 35.792C691.118 35.1627 691.62 34.6613 692.249 34.288C692.878 33.9147 693.577 33.728 694.345 33.728C695.262 33.728 696.078 34 696.793 34.544V30.8L698.393 30.496V42H696.809V41.216C696.116 41.824 695.284 42.128 694.313 42.128ZM694.521 40.736C694.99 40.736 695.417 40.6507 695.801 40.48C696.196 40.3093 696.526 40.064 696.793 39.744V36.08C696.526 35.7813 696.196 35.5467 695.801 35.376C695.406 35.1947 694.98 35.104 694.521 35.104C694.009 35.104 693.545 35.2267 693.129 35.472C692.713 35.7173 692.382 36.0533 692.137 36.48C691.892 36.896 691.769 37.3707 691.769 37.904C691.769 38.4373 691.892 38.9173 692.137 39.344C692.382 39.7707 692.713 40.112 693.129 40.368C693.545 40.6133 694.009 40.736 694.521 40.736ZM706.432 42.16C705.728 42.16 705.066 42.0587 704.448 41.856C703.84 41.6427 703.312 41.344 702.864 40.96L703.743 39.904C704.16 40.2347 704.586 40.4907 705.024 40.672C705.472 40.8427 705.925 40.928 706.384 40.928C706.96 40.928 707.429 40.816 707.792 40.592C708.154 40.368 708.336 40.0747 708.336 39.712C708.336 39.136 707.898 38.784 707.024 38.656L705.552 38.448C704.741 38.3307 704.133 38.08 703.728 37.696C703.322 37.312 703.12 36.8 703.12 36.16C703.12 35.6693 703.253 35.2427 703.52 34.88C703.786 34.5067 704.16 34.2187 704.64 34.016C705.12 33.8027 705.68 33.696 706.32 33.696C706.906 33.696 707.472 33.7813 708.016 33.952C708.56 34.1227 709.082 34.3893 709.584 34.752L708.768 35.808C707.882 35.232 707.024 34.944 706.192 34.944C705.701 34.944 705.306 35.0507 705.008 35.264C704.709 35.4667 704.56 35.7333 704.56 36.064C704.56 36.3627 704.661 36.5973 704.864 36.768C705.077 36.928 705.424 37.04 705.904 37.104L707.376 37.312C708.186 37.4293 708.8 37.68 709.216 38.064C709.632 38.4373 709.84 38.944 709.84 39.584C709.84 40.0747 709.69 40.5173 709.392 40.912C709.093 41.296 708.688 41.6 708.176 41.824C707.664 42.048 707.082 42.16 706.432 42.16ZM714.401 42.144C713.611 42.144 713.009 41.9627 712.593 41.6C712.177 41.2267 711.969 40.688 711.969 39.984V35.2H710.241V33.856H711.969V31.776L713.553 31.392V33.856H715.953V35.2H713.553V39.616C713.553 40.032 713.643 40.3307 713.825 40.512C714.017 40.6827 714.326 40.768 714.753 40.768C714.977 40.768 715.174 40.752 715.345 40.72C715.526 40.688 715.718 40.64 715.921 40.576V41.92C715.707 41.9947 715.457 42.048 715.169 42.08C714.891 42.1227 714.635 42.144 714.401 42.144ZM719.708 42.144C719.121 42.144 718.604 42.0427 718.156 41.84C717.708 41.6267 717.356 41.3333 717.1 40.96C716.844 40.5867 716.715 40.1547 716.715 39.664C716.715 38.896 717.009 38.2933 717.596 37.856C718.182 37.408 718.988 37.184 720.012 37.184C720.812 37.184 721.553 37.3387 722.236 37.648V36.784C722.236 35.6213 721.574 35.04 720.252 35.04C719.878 35.04 719.489 35.0987 719.084 35.216C718.678 35.3227 718.225 35.4933 717.724 35.728L717.132 34.528C717.75 34.24 718.326 34.032 718.86 33.904C719.393 33.7653 719.932 33.696 720.476 33.696C721.532 33.696 722.348 33.9467 722.924 34.448C723.51 34.9493 723.804 35.664 723.804 36.592V42H722.236V41.296C721.873 41.584 721.484 41.7973 721.068 41.936C720.652 42.0747 720.198 42.144 719.708 42.144ZM718.252 39.632C718.252 40.0267 718.417 40.3467 718.748 40.592C719.089 40.8373 719.532 40.96 720.076 40.96C720.95 40.96 721.67 40.6987 722.236 40.176V38.8C721.649 38.4587 720.95 38.288 720.14 38.288C719.553 38.288 719.089 38.4107 718.748 38.656C718.417 38.8907 718.252 39.216 718.252 39.632ZM728.901 42.144C728.111 42.144 727.509 41.9627 727.093 41.6C726.677 41.2267 726.469 40.688 726.469 39.984V35.2H724.741V33.856H726.469V31.776L728.053 31.392V33.856H730.453V35.2H728.053V39.616C728.053 40.032 728.143 40.3307 728.325 40.512C728.517 40.6827 728.826 40.768 729.253 40.768C729.477 40.768 729.674 40.752 729.845 40.72C730.026 40.688 730.218 40.64 730.421 40.576V41.92C730.207 41.9947 729.957 42.048 729.669 42.08C729.391 42.1227 729.135 42.144 728.901 42.144ZM735.411 42.144C734.611 42.144 733.885 41.9573 733.235 41.584C732.595 41.2107 732.083 40.704 731.699 40.064C731.325 39.424 731.139 38.7093 731.139 37.92C731.139 37.1413 731.32 36.4373 731.683 35.808C732.045 35.168 732.536 34.6613 733.155 34.288C733.773 33.904 734.461 33.712 735.219 33.712C735.976 33.712 736.648 33.904 737.235 34.288C737.821 34.6613 738.285 35.1733 738.627 35.824C738.979 36.464 739.155 37.1893 739.155 38V38.448H732.739C732.824 38.896 732.989 39.296 733.235 39.648C733.491 40 733.811 40.2773 734.195 40.48C734.589 40.6827 735.016 40.784 735.475 40.784C735.869 40.784 736.248 40.7253 736.611 40.608C736.984 40.48 737.293 40.2987 737.539 40.064L738.562 41.072C738.083 41.4347 737.587 41.7067 737.075 41.888C736.573 42.0587 736.019 42.144 735.411 42.144ZM732.755 37.248H737.571C737.507 36.8213 737.357 36.448 737.123 36.128C736.899 35.7973 736.616 35.5413 736.275 35.36C735.944 35.168 735.581 35.072 735.187 35.072C734.568 35.072 734.035 35.2747 733.587 35.68C733.149 36.0747 732.872 36.5973 732.755 37.248Z" fill="black"/>
<path d="M634.948 93V84.6H636.388V93H634.948ZM638.18 93V86.988H639.536V87.972C639.768 87.612 640.044 87.344 640.364 87.168C640.684 86.984 641.04 86.892 641.432 86.892C641.848 86.892 642.212 86.984 642.524 87.168C642.836 87.344 643.08 87.592 643.256 87.912C643.44 88.232 643.532 88.608 643.532 89.04V93H642.164V89.424C642.164 88.984 642.044 88.636 641.804 88.38C641.564 88.116 641.244 87.984 640.844 87.984C640.572 87.984 640.324 88.048 640.1 88.176C639.884 88.296 639.696 88.476 639.536 88.716V93H638.18ZM645.164 95.508V86.988H646.496V87.84C646.712 87.552 646.98 87.332 647.3 87.18C647.628 87.02 647.984 86.94 648.368 86.94C648.88 86.94 649.34 87.076 649.748 87.348C650.156 87.62 650.48 87.988 650.72 88.452C650.96 88.916 651.08 89.432 651.08 90C651.08 90.568 650.956 91.084 650.708 91.548C650.46 92.012 650.124 92.38 649.7 92.652C649.276 92.924 648.804 93.06 648.284 93.06C647.924 93.06 647.592 92.996 647.288 92.868C646.992 92.732 646.736 92.54 646.52 92.292V95.508H645.164ZM647.96 91.932C648.304 91.932 648.608 91.848 648.872 91.68C649.144 91.512 649.356 91.284 649.508 90.996C649.668 90.7 649.748 90.368 649.748 90C649.748 89.632 649.668 89.304 649.508 89.016C649.356 88.728 649.144 88.5 648.872 88.332C648.608 88.164 648.304 88.08 647.96 88.08C647.664 88.08 647.392 88.14 647.144 88.26C646.896 88.372 646.688 88.536 646.52 88.752V91.26C646.696 91.468 646.908 91.632 647.156 91.752C647.404 91.872 647.672 91.932 647.96 91.932ZM654.552 93.096C654.136 93.096 653.772 93.004 653.46 92.82C653.148 92.636 652.9 92.384 652.716 92.064C652.54 91.744 652.452 91.372 652.452 90.948V86.988H653.82V90.552C653.82 91 653.936 91.356 654.168 91.62C654.408 91.876 654.732 92.004 655.14 92.004C655.412 92.004 655.656 91.944 655.872 91.824C656.096 91.704 656.288 91.524 656.448 91.284V86.988H657.804V93H656.448V92.028C656.216 92.38 655.94 92.648 655.62 92.832C655.3 93.008 654.944 93.096 654.552 93.096ZM662.077 93.12C661.469 93.12 661.009 92.98 660.697 92.7C660.385 92.412 660.229 91.992 660.229 91.44V88.068H659.029V86.988H660.229V85.332L661.585 85.044V86.988H663.253V88.068H661.585V91.14C661.585 91.436 661.649 91.648 661.777 91.776C661.905 91.896 662.121 91.956 662.425 91.956C662.561 91.956 662.685 91.948 662.797 91.932C662.917 91.908 663.065 91.868 663.241 91.812V92.952C663.073 93.008 662.881 93.048 662.665 93.072C662.457 93.104 662.261 93.12 662.077 93.12ZM667.149 93V84.396L668.505 84.156V93H667.149ZM671.996 93.108C671.58 93.108 671.208 93.032 670.88 92.88C670.56 92.72 670.308 92.504 670.124 92.232C669.948 91.952 669.86 91.632 669.86 91.272C669.86 90.912 669.952 90.6 670.136 90.336C670.328 90.072 670.596 89.868 670.94 89.724C671.284 89.58 671.692 89.508 672.164 89.508C672.444 89.508 672.72 89.54 672.992 89.604C673.264 89.66 673.528 89.756 673.784 89.892V89.22C673.784 88.82 673.668 88.52 673.436 88.32C673.212 88.12 672.868 88.02 672.404 88.02C672.156 88.02 671.888 88.06 671.6 88.14C671.32 88.212 671.004 88.328 670.652 88.488L670.172 87.504C671.052 87.096 671.884 86.892 672.668 86.892C673.452 86.892 674.056 87.084 674.48 87.468C674.912 87.844 675.128 88.38 675.128 89.076V93H673.784V92.376C673.528 92.624 673.252 92.808 672.956 92.928C672.66 93.048 672.34 93.108 671.996 93.108ZM671.132 91.248C671.132 91.528 671.244 91.748 671.468 91.908C671.692 92.068 671.992 92.148 672.368 92.148C672.64 92.148 672.892 92.108 673.124 92.028C673.364 91.94 673.584 91.812 673.784 91.644V90.672C673.576 90.576 673.36 90.504 673.136 90.456C672.912 90.408 672.668 90.384 672.404 90.384C672.012 90.384 671.7 90.46 671.468 90.612C671.244 90.764 671.132 90.976 671.132 91.248ZM676.77 93V84.432L678.126 84.204V87.792C678.342 87.52 678.606 87.312 678.918 87.168C679.238 87.016 679.59 86.94 679.974 86.94C680.486 86.94 680.946 87.076 681.354 87.348C681.762 87.62 682.086 87.988 682.326 88.452C682.566 88.916 682.686 89.432 682.686 90C682.686 90.568 682.562 91.084 682.314 91.548C682.066 92.012 681.73 92.38 681.306 92.652C680.882 92.924 680.41 93.06 679.89 93.06C679.53 93.06 679.198 92.988 678.894 92.844C678.59 92.7 678.326 92.496 678.102 92.232V93H676.77ZM679.566 91.932C679.91 91.932 680.214 91.848 680.478 91.68C680.75 91.512 680.962 91.284 681.114 90.996C681.274 90.7 681.354 90.368 681.354 90C681.354 89.632 681.274 89.304 681.114 89.016C680.962 88.728 680.75 88.5 680.478 88.332C680.214 88.164 679.91 88.08 679.566 88.08C679.27 88.08 678.998 88.14 678.75 88.26C678.502 88.372 678.294 88.536 678.126 88.752V91.26C678.302 91.468 678.514 91.632 678.762 91.752C679.01 91.872 679.278 91.932 679.566 91.932ZM686.902 93.12C686.326 93.12 685.806 92.984 685.342 92.712C684.878 92.432 684.51 92.06 684.238 91.596C683.966 91.124 683.83 90.592 683.83 90C683.83 89.408 683.958 88.88 684.214 88.416C684.47 87.952 684.818 87.584 685.258 87.312C685.706 87.032 686.202 86.892 686.746 86.892C687.306 86.892 687.798 87.028 688.222 87.3C688.654 87.572 688.99 87.94 689.23 88.404C689.478 88.868 689.602 89.4 689.602 90V90.324H685.162C685.21 90.652 685.314 90.944 685.474 91.2C685.642 91.448 685.854 91.644 686.11 91.788C686.374 91.932 686.658 92.004 686.962 92.004C687.242 92.004 687.506 91.956 687.754 91.86C688.01 91.756 688.222 91.616 688.39 91.44L689.278 92.244C688.91 92.548 688.534 92.772 688.15 92.916C687.774 93.052 687.358 93.12 686.902 93.12ZM685.174 89.484H688.318C688.27 89.196 688.17 88.94 688.018 88.716C687.874 88.492 687.69 88.316 687.466 88.188C687.25 88.06 687.01 87.996 686.746 87.996C686.482 87.996 686.238 88.06 686.014 88.188C685.798 88.308 685.618 88.48 685.474 88.704C685.33 88.928 685.23 89.188 685.174 89.484ZM690.985 93V84.396L692.341 84.156V93H690.985Z" fill="#151515"/>
<g style="mix-blend-mode:multiply">
<path d="M706 83C709.313 83 712 85.6875 712 89C712 92.3144 709.313 95 706 95C702.687 95 700 92.3144 700 89C700 85.6875 702.687 83 706 83ZM706 84.1611C703.326 84.1611 701.161 86.3267 701.161 89C701.161 91.6751 703.326 93.8389 706 93.8389C708.675 93.8389 710.839 91.6741 710.839 89C710.839 86.3259 708.673 84.1611 706 84.1611ZM706 90.6934C706.56 90.6934 707.017 91.1497 707.017 91.71C707.016 92.2701 706.56 92.7256 706 92.7256C705.44 92.7256 704.984 92.2701 704.983 91.71C704.983 91.1497 705.44 90.6934 706 90.6934ZM706.141 85.5166C707.328 85.5168 708.594 86.4428 708.595 87.6641C708.595 89.2862 706.843 89.3117 706.843 89.9111V90.0645C706.843 90.2248 706.712 90.3545 706.552 90.3545H705.448C705.288 90.3545 705.157 90.2248 705.157 90.0645V89.8555C705.157 88.9908 705.813 88.6449 706.309 88.3672C706.733 88.1291 706.994 87.9666 706.994 87.6514C706.994 87.2341 706.462 86.957 706.031 86.957C705.47 86.9571 705.212 87.2224 704.848 87.6816C704.75 87.8054 704.57 87.8287 704.444 87.7334L703.771 87.2227C703.647 87.1289 703.62 86.9552 703.707 86.8271C704.279 85.9878 705.007 85.5166 706.141 85.5166Z" fill="#1F1F1F"/>
</g>
<mask id="path-19-inside-3_1539_56071" fill="white">
<path d="M634 112C634 108.686 636.686 106 640 106H875C878.314 106 881 108.686 881 112V137C881 140.314 878.314 143 875 143H640C636.686 143 634 140.314 634 137V112Z"/>
</mask>
<path d="M634 112C634 108.686 636.686 106 640 106H875C878.314 106 881 108.686 881 112V137C881 140.314 878.314 143 875 143H640C636.686 143 634 140.314 634 137V112Z" fill="white"/>
<path d="M640 106V107H875V106V105H640V106ZM881 112H880V137H881H882V112H881ZM875 143V142H640V143V144H875V143ZM634 137H635V112H634H633V137H634ZM640 143V142C637.239 142 635 139.761 635 137H634H633C633 140.866 636.134 144 640 144V143ZM881 137H880C880 139.761 877.761 142 875 142V143V144C878.866 144 882 140.866 882 137H881ZM875 106V107C877.761 107 880 109.239 880 112H881H882C882 108.134 878.866 105 875 105V106ZM640 106V105C636.134 105 633 108.134 633 112H634H635C635 109.239 637.239 107 640 107V106Z" fill="#C7C7C7" mask="url(#path-19-inside-3_1539_56071)"/>
<path d="M651.232 129V119.2H652.31V129H651.232ZM654.591 129V122.168H655.613V123.274C655.874 122.863 656.187 122.56 656.551 122.364C656.915 122.159 657.326 122.056 657.783 122.056C658.278 122.056 658.707 122.163 659.071 122.378C659.444 122.583 659.734 122.877 659.939 123.26C660.154 123.633 660.261 124.072 660.261 124.576V129H659.239V124.87C659.239 124.263 659.071 123.787 658.735 123.442C658.408 123.087 657.965 122.91 657.405 122.91C657.032 122.91 656.691 122.999 656.383 123.176C656.075 123.353 655.818 123.615 655.613 123.96V129H654.591ZM662.316 131.926V122.168H663.324V123.148C663.585 122.803 663.902 122.541 664.276 122.364C664.658 122.177 665.078 122.084 665.536 122.084C666.133 122.084 666.665 122.243 667.132 122.56C667.608 122.868 667.986 123.288 668.266 123.82C668.546 124.343 668.686 124.931 668.686 125.584C668.686 126.237 668.541 126.83 668.252 127.362C667.972 127.894 667.589 128.319 667.104 128.636C666.628 128.944 666.086 129.098 665.48 129.098C665.05 129.098 664.654 129.019 664.29 128.86C663.926 128.692 663.608 128.454 663.338 128.146V131.926H662.316ZM665.284 128.216C665.741 128.216 666.147 128.104 666.502 127.88C666.866 127.647 667.15 127.334 667.356 126.942C667.57 126.541 667.678 126.093 667.678 125.598C667.678 125.094 667.57 124.646 667.356 124.254C667.15 123.862 666.866 123.554 666.502 123.33C666.147 123.097 665.741 122.98 665.284 122.98C664.882 122.98 664.509 123.064 664.164 123.232C663.828 123.391 663.552 123.619 663.338 123.918V127.264C663.562 127.563 663.842 127.796 664.178 127.964C664.523 128.132 664.892 128.216 665.284 128.216ZM672.914 129.112C672.428 129.112 671.999 129.005 671.626 128.79C671.252 128.575 670.958 128.277 670.744 127.894C670.538 127.511 670.436 127.073 670.436 126.578V122.168H671.472V126.284C671.472 126.891 671.635 127.371 671.962 127.726C672.288 128.081 672.732 128.258 673.292 128.258C673.674 128.258 674.015 128.169 674.314 127.992C674.622 127.815 674.878 127.558 675.084 127.222V122.168H676.106V129H675.084V127.894C674.822 128.295 674.51 128.599 674.146 128.804C673.791 129.009 673.38 129.112 672.914 129.112ZM680.806 129.14C680.218 129.14 679.77 129 679.462 128.72C679.164 128.431 679.014 128.015 679.014 127.474V123.008H677.6V122.168H679.014V120.292L680.036 120.054V122.168H681.996V123.008H680.036V127.208C680.036 127.572 680.111 127.833 680.26 127.992C680.419 128.151 680.676 128.23 681.03 128.23C681.208 128.23 681.366 128.216 681.506 128.188C681.646 128.16 681.81 128.113 681.996 128.048V128.958C681.81 129.023 681.614 129.07 681.408 129.098C681.203 129.126 681.002 129.14 680.806 129.14ZM689.365 129.14C688.777 129.14 688.329 129 688.021 128.72C687.722 128.431 687.573 128.015 687.573 127.474V123.008H686.159V122.168H687.573V120.292L688.595 120.054V122.168H690.555V123.008H688.595V127.208C688.595 127.572 688.67 127.833 688.819 127.992C688.978 128.151 689.234 128.23 689.589 128.23C689.766 128.23 689.925 128.216 690.065 128.188C690.205 128.16 690.368 128.113 690.555 128.048V128.958C690.368 129.023 690.172 129.07 689.967 129.098C689.762 129.126 689.561 129.14 689.365 129.14ZM694.995 129.14C694.361 129.14 693.787 128.986 693.273 128.678C692.76 128.361 692.354 127.936 692.055 127.404C691.757 126.863 691.607 126.256 691.607 125.584C691.607 124.912 691.747 124.31 692.027 123.778C692.317 123.246 692.704 122.826 693.189 122.518C693.675 122.21 694.216 122.056 694.813 122.056C695.42 122.056 695.957 122.21 696.423 122.518C696.899 122.817 697.273 123.227 697.543 123.75C697.823 124.263 697.963 124.847 697.963 125.5V125.808H692.601C692.639 126.275 692.765 126.695 692.979 127.068C693.203 127.432 693.493 127.721 693.847 127.936C694.211 128.141 694.608 128.244 695.037 128.244C695.392 128.244 695.733 128.183 696.059 128.062C696.395 127.931 696.68 127.759 696.913 127.544L697.557 128.23C697.165 128.538 696.759 128.767 696.339 128.916C695.919 129.065 695.471 129.14 694.995 129.14ZM692.629 125.08H696.955C696.909 124.669 696.783 124.305 696.577 123.988C696.381 123.661 696.129 123.405 695.821 123.218C695.523 123.031 695.187 122.938 694.813 122.938C694.44 122.938 694.099 123.031 693.791 123.218C693.483 123.395 693.227 123.647 693.021 123.974C692.825 124.291 692.695 124.66 692.629 125.08ZM698.416 129L701.034 125.458L698.57 122.168H699.788L701.678 124.772L703.554 122.168H704.716L702.238 125.486L704.87 129H703.652L701.608 126.214L699.578 129H698.416ZM708.574 129.14C707.986 129.14 707.538 129 707.23 128.72C706.931 128.431 706.782 128.015 706.782 127.474V123.008H705.368V122.168H706.782V120.292L707.804 120.054V122.168H709.764V123.008H707.804V127.208C707.804 127.572 707.879 127.833 708.028 127.992C708.187 128.151 708.443 128.23 708.798 128.23C708.975 128.23 709.134 128.216 709.274 128.188C709.414 128.16 709.577 128.113 709.764 128.048V128.958C709.577 129.023 709.381 129.07 709.176 129.098C708.971 129.126 708.77 129.14 708.574 129.14Z" fill="#151515"/>
<g filter="url(#filter0_d_1539_56071)">
<path d="M706 99L716.825 114H695.175L706 99Z" fill="white"/>
<path d="M606 130C606 121.163 613.163 114 622 114H790C798.837 114 806 121.163 806 130V180C806 188.837 798.837 196 790 196H622C613.163 196 606 188.837 606 180V130Z" fill="white"/>
<path d="M782.653 136.577C782.979 136.252 783.507 136.252 783.833 136.577L784.423 137.167C784.748 137.493 784.748 138.021 784.423 138.347L781.769 141L784.423 143.653C784.748 143.979 784.748 144.507 784.423 144.833L783.833 145.423C783.507 145.748 782.979 145.748 782.653 145.423L780 142.769L777.347 145.423C777.021 145.748 776.493 145.748 776.167 145.423L775.577 144.833C775.252 144.507 775.252 143.979 775.577 143.653L778.23 141L775.577 138.347C775.252 138.021 775.252 137.493 775.577 137.167L776.167 136.577C776.493 136.252 777.021 136.252 777.347 136.577L780 139.23L782.653 136.577Z" fill="#1F1F1F"/>
<path d="M623.176 145V135.2H627.558C628.221 135.2 628.795 135.331 629.28 135.592C629.775 135.844 630.157 136.199 630.428 136.656C630.699 137.113 630.834 137.645 630.834 138.252C630.834 138.831 630.699 139.349 630.428 139.806C630.157 140.263 629.775 140.623 629.28 140.884C628.795 141.136 628.221 141.262 627.558 141.262H624.856V145H623.176ZM624.856 139.89H627.292C627.889 139.89 628.347 139.741 628.664 139.442C628.981 139.134 629.14 138.733 629.14 138.238C629.14 137.753 628.981 137.361 628.664 137.062C628.347 136.763 627.894 136.614 627.306 136.614H624.856V139.89ZM635.059 145.126C634.396 145.126 633.794 144.967 633.253 144.65C632.721 144.333 632.301 143.903 631.993 143.362C631.685 142.811 631.531 142.191 631.531 141.5C631.531 140.809 631.685 140.193 631.993 139.652C632.301 139.101 632.721 138.667 633.253 138.35C633.785 138.033 634.387 137.874 635.059 137.874C635.731 137.874 636.328 138.033 636.851 138.35C637.383 138.667 637.803 139.101 638.111 139.652C638.419 140.193 638.573 140.809 638.573 141.5C638.573 142.191 638.419 142.811 638.111 143.362C637.803 143.903 637.383 144.333 636.851 144.65C636.328 144.967 635.731 145.126 635.059 145.126ZM635.059 143.782C635.442 143.782 635.778 143.684 636.067 143.488C636.366 143.292 636.599 143.021 636.767 142.676C636.935 142.321 637.019 141.929 637.019 141.5C637.019 141.061 636.935 140.674 636.767 140.338C636.599 139.993 636.366 139.722 636.067 139.526C635.778 139.321 635.442 139.218 635.059 139.218C634.676 139.218 634.336 139.321 634.037 139.526C633.738 139.722 633.505 139.993 633.337 140.338C633.169 140.674 633.085 141.061 633.085 141.5C633.085 141.939 633.169 142.331 633.337 142.676C633.505 143.021 633.738 143.292 634.037 143.488C634.336 143.684 634.676 143.782 635.059 143.782ZM640.207 147.926V137.986H641.761V138.98C642.013 138.644 642.325 138.387 642.699 138.21C643.081 138.023 643.497 137.93 643.945 137.93C644.542 137.93 645.079 138.089 645.555 138.406C646.031 138.723 646.409 139.153 646.689 139.694C646.969 140.235 647.109 140.837 647.109 141.5C647.109 142.163 646.964 142.765 646.675 143.306C646.385 143.847 645.993 144.277 645.499 144.594C645.004 144.911 644.453 145.07 643.847 145.07C643.427 145.07 643.039 144.995 642.685 144.846C642.339 144.687 642.041 144.463 641.789 144.174V147.926H640.207ZM643.469 143.754C643.87 143.754 644.225 143.656 644.533 143.46C644.85 143.264 645.097 142.998 645.275 142.662C645.461 142.317 645.555 141.929 645.555 141.5C645.555 141.071 645.461 140.688 645.275 140.352C645.097 140.016 644.85 139.75 644.533 139.554C644.225 139.358 643.87 139.26 643.469 139.26C643.123 139.26 642.806 139.33 642.517 139.47C642.227 139.601 641.985 139.792 641.789 140.044V142.97C641.994 143.213 642.241 143.404 642.531 143.544C642.82 143.684 643.133 143.754 643.469 143.754ZM651.971 145.126C651.308 145.126 650.706 144.967 650.165 144.65C649.633 144.333 649.213 143.903 648.905 143.362C648.597 142.811 648.443 142.191 648.443 141.5C648.443 140.809 648.597 140.193 648.905 139.652C649.213 139.101 649.633 138.667 650.165 138.35C650.697 138.033 651.299 137.874 651.971 137.874C652.643 137.874 653.24 138.033 653.763 138.35C654.295 138.667 654.715 139.101 655.023 139.652C655.331 140.193 655.485 140.809 655.485 141.5C655.485 142.191 655.331 142.811 655.023 143.362C654.715 143.903 654.295 144.333 653.763 144.65C653.24 144.967 652.643 145.126 651.971 145.126ZM651.971 143.782C652.354 143.782 652.69 143.684 652.979 143.488C653.278 143.292 653.511 143.021 653.679 142.676C653.847 142.321 653.931 141.929 653.931 141.5C653.931 141.061 653.847 140.674 653.679 140.338C653.511 139.993 653.278 139.722 652.979 139.526C652.69 139.321 652.354 139.218 651.971 139.218C651.588 139.218 651.248 139.321 650.949 139.526C650.65 139.722 650.417 139.993 650.249 140.338C650.081 140.674 649.997 141.061 649.997 141.5C649.997 141.939 650.081 142.331 650.249 142.676C650.417 143.021 650.65 143.292 650.949 143.488C651.248 143.684 651.588 143.782 651.971 143.782ZM658.944 145L656.088 137.986H657.81L659.77 143.082L661.716 137.986H663.368L660.484 145H658.944ZM667.558 145.14C666.886 145.14 666.28 144.981 665.738 144.664C665.197 144.337 664.768 143.903 664.45 143.362C664.133 142.811 663.974 142.191 663.974 141.5C663.974 140.809 664.124 140.193 664.422 139.652C664.721 139.111 665.127 138.681 665.64 138.364C666.163 138.037 666.742 137.874 667.376 137.874C668.03 137.874 668.604 138.033 669.098 138.35C669.602 138.667 669.994 139.097 670.274 139.638C670.564 140.179 670.708 140.8 670.708 141.5V141.878H665.528C665.584 142.261 665.706 142.601 665.892 142.9C666.088 143.189 666.336 143.418 666.634 143.586C666.942 143.754 667.274 143.838 667.628 143.838C667.955 143.838 668.263 143.782 668.552 143.67C668.851 143.549 669.098 143.385 669.294 143.18L670.33 144.118C669.901 144.473 669.462 144.734 669.014 144.902C668.576 145.061 668.09 145.14 667.558 145.14ZM665.542 140.898H669.21C669.154 140.562 669.038 140.263 668.86 140.002C668.692 139.741 668.478 139.535 668.216 139.386C667.964 139.237 667.684 139.162 667.376 139.162C667.068 139.162 666.784 139.237 666.522 139.386C666.27 139.526 666.06 139.727 665.892 139.988C665.724 140.249 665.608 140.553 665.542 140.898ZM672.322 145V137.986H673.904V139.498C674.109 138.966 674.375 138.56 674.702 138.28C675.028 138 675.406 137.86 675.836 137.86C675.966 137.869 676.083 137.883 676.186 137.902C676.288 137.911 676.4 137.944 676.522 138V139.386C676.4 139.33 676.26 139.288 676.102 139.26C675.952 139.232 675.803 139.218 675.654 139.218C675.271 139.218 674.926 139.321 674.618 139.526C674.319 139.731 674.081 140.016 673.904 140.38V145H672.322ZM683.986 145.14C683.277 145.14 682.74 144.977 682.376 144.65C682.012 144.314 681.83 143.824 681.83 143.18V139.246H680.43V137.986H681.83V136.054L683.412 135.718V137.986H685.358V139.246H683.412V142.83C683.412 143.175 683.487 143.423 683.636 143.572C683.786 143.712 684.038 143.782 684.392 143.782C684.551 143.782 684.696 143.773 684.826 143.754C684.966 143.726 685.139 143.679 685.344 143.614V144.944C685.148 145.009 684.924 145.056 684.672 145.084C684.43 145.121 684.201 145.14 683.986 145.14ZM686.745 145V137.986H688.327V145H686.745ZM687.543 136.558C687.273 136.558 687.039 136.465 686.843 136.278C686.657 136.082 686.563 135.853 686.563 135.592C686.563 135.321 686.657 135.093 686.843 134.906C687.039 134.71 687.273 134.612 687.543 134.612C687.814 134.612 688.043 134.71 688.229 134.906C688.425 135.093 688.523 135.317 688.523 135.578C688.523 135.849 688.425 136.082 688.229 136.278C688.043 136.465 687.814 136.558 687.543 136.558ZM693.311 145.14C692.601 145.14 692.065 144.977 691.701 144.65C691.337 144.314 691.155 143.824 691.155 143.18V139.246H689.755V137.986H691.155V136.054L692.737 135.718V137.986H694.683V139.246H692.737V142.83C692.737 143.175 692.811 143.423 692.961 143.572C693.11 143.712 693.362 143.782 693.717 143.782C693.875 143.782 694.02 143.773 694.151 143.754C694.291 143.726 694.463 143.679 694.669 143.614V144.944C694.473 145.009 694.249 145.056 693.997 145.084C693.754 145.121 693.525 145.14 693.311 145.14ZM696.084 145V134.962L697.666 134.682V145H696.084ZM702.873 145.14C702.201 145.14 701.594 144.981 701.053 144.664C700.512 144.337 700.082 143.903 699.765 143.362C699.448 142.811 699.289 142.191 699.289 141.5C699.289 140.809 699.438 140.193 699.737 139.652C700.036 139.111 700.442 138.681 700.955 138.364C701.478 138.037 702.056 137.874 702.691 137.874C703.344 137.874 703.918 138.033 704.413 138.35C704.917 138.667 705.309 139.097 705.589 139.638C705.878 140.179 706.023 140.8 706.023 141.5V141.878H700.843C700.899 142.261 701.02 142.601 701.207 142.9C701.403 143.189 701.65 143.418 701.949 143.586C702.257 143.754 702.588 143.838 702.943 143.838C703.27 143.838 703.578 143.782 703.867 143.67C704.166 143.549 704.413 143.385 704.609 143.18L705.645 144.118C705.216 144.473 704.777 144.734 704.329 144.902C703.89 145.061 703.405 145.14 702.873 145.14ZM700.857 140.898H704.525C704.469 140.562 704.352 140.263 704.175 140.002C704.007 139.741 703.792 139.535 703.531 139.386C703.279 139.237 702.999 139.162 702.691 139.162C702.383 139.162 702.098 139.237 701.837 139.386C701.585 139.526 701.375 139.727 701.207 139.988C701.039 140.249 700.922 140.553 700.857 140.898Z" fill="#151515"/>
<path d="M623.246 174V164.2H627.292C627.927 164.2 628.477 164.321 628.944 164.564C629.411 164.797 629.77 165.133 630.022 165.572C630.283 166.001 630.414 166.51 630.414 167.098C630.414 167.677 630.283 168.185 630.022 168.624C629.77 169.063 629.411 169.403 628.944 169.646C628.477 169.879 627.927 169.996 627.292 169.996H624.324V174H623.246ZM624.324 169.072H627.166C627.847 169.072 628.379 168.895 628.762 168.54C629.145 168.185 629.336 167.705 629.336 167.098C629.336 166.491 629.145 166.015 628.762 165.67C628.379 165.325 627.847 165.152 627.166 165.152H624.324V169.072ZM634.537 174.112C633.902 174.112 633.333 173.958 632.829 173.65C632.325 173.342 631.928 172.922 631.639 172.39C631.35 171.858 631.205 171.256 631.205 170.584C631.205 169.912 631.35 169.31 631.639 168.778C631.928 168.246 632.325 167.826 632.829 167.518C633.333 167.21 633.902 167.056 634.537 167.056C635.162 167.056 635.722 167.21 636.217 167.518C636.721 167.826 637.118 168.246 637.407 168.778C637.696 169.31 637.841 169.912 637.841 170.584C637.841 171.256 637.696 171.858 637.407 172.39C637.118 172.922 636.721 173.342 636.217 173.65C635.722 173.958 635.162 174.112 634.537 174.112ZM634.523 173.216C634.971 173.216 635.368 173.104 635.713 172.88C636.058 172.647 636.329 172.329 636.525 171.928C636.73 171.527 636.833 171.079 636.833 170.584C636.833 170.08 636.73 169.632 636.525 169.24C636.329 168.839 636.058 168.526 635.713 168.302C635.368 168.069 634.971 167.952 634.523 167.952C634.075 167.952 633.678 168.069 633.333 168.302C632.988 168.526 632.712 168.839 632.507 169.24C632.311 169.632 632.213 170.08 632.213 170.584C632.213 171.079 632.311 171.527 632.507 171.928C632.712 172.329 632.988 172.647 633.333 172.88C633.678 173.104 634.075 173.216 634.523 173.216ZM639.634 176.926V167.168H640.642V168.148C640.903 167.803 641.221 167.541 641.594 167.364C641.977 167.177 642.397 167.084 642.854 167.084C643.451 167.084 643.983 167.243 644.45 167.56C644.926 167.868 645.304 168.288 645.584 168.82C645.864 169.343 646.004 169.931 646.004 170.584C646.004 171.237 645.859 171.83 645.57 172.362C645.29 172.894 644.907 173.319 644.422 173.636C643.946 173.944 643.405 174.098 642.798 174.098C642.369 174.098 641.972 174.019 641.608 173.86C641.244 173.692 640.927 173.454 640.656 173.146V176.926H639.634ZM642.602 173.216C643.059 173.216 643.465 173.104 643.82 172.88C644.184 172.647 644.469 172.334 644.674 171.942C644.889 171.541 644.996 171.093 644.996 170.598C644.996 170.094 644.889 169.646 644.674 169.254C644.469 168.862 644.184 168.554 643.82 168.33C643.465 168.097 643.059 167.98 642.602 167.98C642.201 167.98 641.827 168.064 641.482 168.232C641.146 168.391 640.871 168.619 640.656 168.918V172.264C640.88 172.563 641.16 172.796 641.496 172.964C641.841 173.132 642.21 173.216 642.602 173.216ZM650.82 174.112C650.185 174.112 649.616 173.958 649.112 173.65C648.608 173.342 648.211 172.922 647.922 172.39C647.633 171.858 647.488 171.256 647.488 170.584C647.488 169.912 647.633 169.31 647.922 168.778C648.211 168.246 648.608 167.826 649.112 167.518C649.616 167.21 650.185 167.056 650.82 167.056C651.445 167.056 652.005 167.21 652.5 167.518C653.004 167.826 653.401 168.246 653.69 168.778C653.979 169.31 654.124 169.912 654.124 170.584C654.124 171.256 653.979 171.858 653.69 172.39C653.401 172.922 653.004 173.342 652.5 173.65C652.005 173.958 651.445 174.112 650.82 174.112ZM650.806 173.216C651.254 173.216 651.651 173.104 651.996 172.88C652.341 172.647 652.612 172.329 652.808 171.928C653.013 171.527 653.116 171.079 653.116 170.584C653.116 170.08 653.013 169.632 652.808 169.24C652.612 168.839 652.341 168.526 651.996 168.302C651.651 168.069 651.254 167.952 650.806 167.952C650.358 167.952 649.961 168.069 649.616 168.302C649.271 168.526 648.995 168.839 648.79 169.24C648.594 169.632 648.496 170.08 648.496 170.584C648.496 171.079 648.594 171.527 648.79 171.928C648.995 172.329 649.271 172.647 649.616 172.88C649.961 173.104 650.358 173.216 650.806 173.216ZM657.672 174L654.872 167.168H655.978L658.19 172.726L660.374 167.168H661.466L658.652 174H657.672ZM665.601 174.14C664.966 174.14 664.392 173.986 663.879 173.678C663.365 173.361 662.959 172.936 662.661 172.404C662.362 171.863 662.213 171.256 662.213 170.584C662.213 169.912 662.353 169.31 662.633 168.778C662.922 168.246 663.309 167.826 663.795 167.518C664.28 167.21 664.821 167.056 665.419 167.056C666.025 167.056 666.562 167.21 667.029 167.518C667.505 167.817 667.878 168.227 668.149 168.75C668.429 169.263 668.569 169.847 668.569 170.5V170.808H663.207C663.244 171.275 663.37 171.695 663.585 172.068C663.809 172.432 664.098 172.721 664.453 172.936C664.817 173.141 665.213 173.244 665.643 173.244C665.997 173.244 666.338 173.183 666.665 173.062C667.001 172.931 667.285 172.759 667.519 172.544L668.163 173.23C667.771 173.538 667.365 173.767 666.945 173.916C666.525 174.065 666.077 174.14 665.601 174.14ZM663.235 170.08H667.561C667.514 169.669 667.388 169.305 667.183 168.988C666.987 168.661 666.735 168.405 666.427 168.218C666.128 168.031 665.792 167.938 665.419 167.938C665.045 167.938 664.705 168.031 664.397 168.218C664.089 168.395 663.832 168.647 663.627 168.974C663.431 169.291 663.3 169.66 663.235 170.08ZM670.314 174V167.168H671.336V168.568C671.513 168.092 671.765 167.723 672.092 167.462C672.428 167.191 672.81 167.056 673.24 167.056C673.361 167.056 673.473 167.065 673.576 167.084C673.678 167.093 673.781 167.117 673.884 167.154V168.078C673.772 168.041 673.65 168.013 673.52 167.994C673.398 167.966 673.282 167.952 673.17 167.952C672.75 167.952 672.381 168.073 672.064 168.316C671.756 168.559 671.513 168.899 671.336 169.338V174H670.314ZM681.569 174.112C680.934 174.112 680.36 173.958 679.847 173.65C679.343 173.333 678.942 172.908 678.643 172.376C678.344 171.835 678.195 171.237 678.195 170.584C678.195 169.921 678.344 169.324 678.643 168.792C678.942 168.26 679.343 167.84 679.847 167.532C680.36 167.215 680.934 167.056 681.569 167.056C682.073 167.056 682.554 167.149 683.011 167.336C683.468 167.523 683.865 167.784 684.201 168.12L683.543 168.834C683.3 168.563 683.006 168.353 682.661 168.204C682.316 168.055 681.966 167.98 681.611 167.98C681.163 167.98 680.757 168.097 680.393 168.33C680.038 168.563 679.754 168.876 679.539 169.268C679.324 169.66 679.217 170.099 679.217 170.584C679.217 171.069 679.324 171.508 679.539 171.9C679.754 172.292 680.038 172.605 680.393 172.838C680.757 173.071 681.163 173.188 681.611 173.188C681.966 173.188 682.316 173.113 682.661 172.964C683.006 172.805 683.3 172.595 683.543 172.334L684.201 173.048C683.865 173.384 683.468 173.645 683.011 173.832C682.554 174.019 682.073 174.112 681.569 174.112ZM688.445 174.112C687.81 174.112 687.241 173.958 686.737 173.65C686.233 173.342 685.836 172.922 685.547 172.39C685.258 171.858 685.113 171.256 685.113 170.584C685.113 169.912 685.258 169.31 685.547 168.778C685.836 168.246 686.233 167.826 686.737 167.518C687.241 167.21 687.81 167.056 688.445 167.056C689.07 167.056 689.63 167.21 690.125 167.518C690.629 167.826 691.026 168.246 691.315 168.778C691.604 169.31 691.749 169.912 691.749 170.584C691.749 171.256 691.604 171.858 691.315 172.39C691.026 172.922 690.629 173.342 690.125 173.65C689.63 173.958 689.07 174.112 688.445 174.112ZM688.431 173.216C688.879 173.216 689.276 173.104 689.621 172.88C689.966 172.647 690.237 172.329 690.433 171.928C690.638 171.527 690.741 171.079 690.741 170.584C690.741 170.08 690.638 169.632 690.433 169.24C690.237 168.839 689.966 168.526 689.621 168.302C689.276 168.069 688.879 167.952 688.431 167.952C687.983 167.952 687.586 168.069 687.241 168.302C686.896 168.526 686.62 168.839 686.415 169.24C686.219 169.632 686.121 170.08 686.121 170.584C686.121 171.079 686.219 171.527 686.415 171.928C686.62 172.329 686.896 172.647 687.241 172.88C687.586 173.104 687.983 173.216 688.431 173.216ZM693.542 174V167.168H694.564V168.274C694.826 167.863 695.138 167.56 695.502 167.364C695.866 167.159 696.277 167.056 696.734 167.056C697.229 167.056 697.658 167.163 698.022 167.378C698.396 167.583 698.685 167.877 698.89 168.26C699.105 168.633 699.212 169.072 699.212 169.576V174H698.19V169.87C698.19 169.263 698.022 168.787 697.686 168.442C697.36 168.087 696.916 167.91 696.356 167.91C695.983 167.91 695.642 167.999 695.334 168.176C695.026 168.353 694.77 168.615 694.564 168.96V174H693.542ZM703.666 174.14C703.078 174.14 702.63 174 702.322 173.72C702.023 173.431 701.874 173.015 701.874 172.474V168.008H700.46V167.168H701.874V165.292L702.896 165.054V167.168H704.856V168.008H702.896V172.208C702.896 172.572 702.97 172.833 703.12 172.992C703.278 173.151 703.535 173.23 703.89 173.23C704.067 173.23 704.226 173.216 704.366 173.188C704.506 173.16 704.669 173.113 704.856 173.048V173.958C704.669 174.023 704.473 174.07 704.268 174.098C704.062 174.126 703.862 174.14 703.666 174.14ZM709.296 174.14C708.661 174.14 708.087 173.986 707.574 173.678C707.061 173.361 706.655 172.936 706.356 172.404C706.057 171.863 705.908 171.256 705.908 170.584C705.908 169.912 706.048 169.31 706.328 168.778C706.617 168.246 707.005 167.826 707.49 167.518C707.975 167.21 708.517 167.056 709.114 167.056C709.721 167.056 710.257 167.21 710.724 167.518C711.2 167.817 711.573 168.227 711.844 168.75C712.124 169.263 712.264 169.847 712.264 170.5V170.808H706.902C706.939 171.275 707.065 171.695 707.28 172.068C707.504 172.432 707.793 172.721 708.148 172.936C708.512 173.141 708.909 173.244 709.338 173.244C709.693 173.244 710.033 173.183 710.36 173.062C710.696 172.931 710.981 172.759 711.214 172.544L711.858 173.23C711.466 173.538 711.06 173.767 710.64 173.916C710.22 174.065 709.772 174.14 709.296 174.14ZM706.93 170.08H711.256C711.209 169.669 711.083 169.305 710.878 168.988C710.682 168.661 710.43 168.405 710.122 168.218C709.823 168.031 709.487 167.938 709.114 167.938C708.741 167.938 708.4 168.031 708.092 168.218C707.784 168.395 707.527 168.647 707.322 168.974C707.126 169.291 706.995 169.66 706.93 170.08ZM714.009 174V167.168H715.031V168.274C715.292 167.863 715.605 167.56 715.969 167.364C716.333 167.159 716.744 167.056 717.201 167.056C717.696 167.056 718.125 167.163 718.489 167.378C718.862 167.583 719.152 167.877 719.357 168.26C719.572 168.633 719.679 169.072 719.679 169.576V174H718.657V169.87C718.657 169.263 718.489 168.787 718.153 168.442C717.826 168.087 717.383 167.91 716.823 167.91C716.45 167.91 716.109 167.999 715.801 168.176C715.493 168.353 715.236 168.615 715.031 168.96V174H714.009ZM724.133 174.14C723.545 174.14 723.097 174 722.789 173.72C722.49 173.431 722.341 173.015 722.341 172.474V168.008H720.927V167.168H722.341V165.292L723.363 165.054V167.168H725.323V168.008H723.363V172.208C723.363 172.572 723.437 172.833 723.587 172.992C723.745 173.151 724.002 173.23 724.357 173.23C724.534 173.23 724.693 173.216 724.833 173.188C724.973 173.16 725.136 173.113 725.323 173.048V173.958C725.136 174.023 724.94 174.07 724.735 174.098C724.529 174.126 724.329 174.14 724.133 174.14Z" fill="#151515"/>
<mask id="path-27-inside-4_1539_56071" fill="white">
<path d="M708.465 91.9268C708.465 90.3873 710.131 89.4252 711.465 90.1949L723.595 97.1977C724.929 97.9675 724.928 99.8922 723.595 100.662L720.372 102.523L722.01 105.361C722.563 106.318 722.235 107.541 721.278 108.093L719.475 109.134C718.519 109.686 717.296 109.358 716.743 108.402L715.105 105.564L711.465 107.665C710.131 108.435 708.464 107.473 708.464 105.934L708.465 91.9268Z"/>
</mask>
<path d="M708.465 91.9268C708.465 90.3873 710.131 89.4252 711.465 90.1949L723.595 97.1977C724.929 97.9675 724.928 99.8922 723.595 100.662L720.372 102.523L722.01 105.361C722.563 106.318 722.235 107.541 721.278 108.093L719.475 109.134C718.519 109.686 717.296 109.358 716.743 108.402L715.105 105.564L711.465 107.665C710.131 108.435 708.464 107.473 708.464 105.934L708.465 91.9268Z" fill="#FF00FF"/>
<path d="M708.465 91.9268L709.465 91.9269L709.465 91.9268L708.465 91.9268ZM711.465 90.1949L710.965 91.0609L710.965 91.0609L711.465 90.1949ZM723.595 97.1977L724.095 96.3317L724.095 96.3317L723.595 97.1977ZM723.595 100.662L724.095 101.528L723.595 100.662ZM720.372 102.523L719.872 101.657L719.006 102.157L719.506 103.023L720.372 102.523ZM722.01 105.361L722.877 104.861L722.877 104.861L722.01 105.361ZM721.278 108.093L721.778 108.959L721.778 108.959L721.278 108.093ZM716.743 108.402L715.877 108.902L715.877 108.902L716.743 108.402ZM715.105 105.564L715.971 105.064L715.471 104.198L714.605 104.698L715.105 105.564ZM711.465 107.665L711.965 108.531L711.965 108.531L711.465 107.665ZM708.464 105.934L707.464 105.934L707.464 105.934L708.464 105.934ZM708.465 91.9268L709.465 91.9268C709.465 91.1571 710.298 90.6761 710.965 91.0609L711.465 90.1949L711.965 89.3289C709.965 88.1743 707.465 89.6174 707.465 91.9268L708.465 91.9268ZM711.465 90.1949L710.965 91.0609L723.095 98.0638L723.595 97.1977L724.095 96.3317L711.965 89.3289L711.465 90.1949ZM723.595 97.1977L723.095 98.0638C723.762 98.4485 723.762 99.4109 723.095 99.796L723.595 100.662L724.095 101.528C726.095 100.374 726.095 97.4866 724.095 96.3317L723.595 97.1977ZM723.595 100.662L723.095 99.796L719.872 101.657L720.372 102.523L720.872 103.389L724.095 101.528L723.595 100.662ZM720.372 102.523L719.506 103.023L721.144 105.861L722.01 105.361L722.877 104.861L721.238 102.023L720.372 102.523ZM722.01 105.361L721.144 105.861C721.42 106.339 721.256 106.951 720.778 107.227L721.278 108.093L721.778 108.959C723.213 108.131 723.705 106.296 722.877 104.861L722.01 105.361ZM721.278 108.093L720.778 107.227L718.975 108.268L719.475 109.134L719.975 110L721.778 108.959L721.278 108.093ZM719.475 109.134L718.975 108.268C718.497 108.544 717.886 108.38 717.609 107.902L716.743 108.402L715.877 108.902C716.706 110.337 718.54 110.829 719.975 110L719.475 109.134ZM716.743 108.402L717.609 107.902L715.971 105.064L715.105 105.564L714.239 106.064L715.877 108.902L716.743 108.402ZM715.105 105.564L714.605 104.698L710.965 106.799L711.465 107.665L711.965 108.531L715.605 106.43L715.105 105.564ZM711.465 107.665L710.965 106.799C710.298 107.184 709.464 106.703 709.464 105.934L708.464 105.934L707.464 105.934C707.464 108.243 709.965 109.686 711.965 108.531L711.465 107.665ZM708.464 105.934L709.464 105.934L709.465 91.9269L708.465 91.9268L707.465 91.9268L707.464 105.934L708.464 105.934Z" fill="#FF00FF" mask="url(#path-27-inside-4_1539_56071)"/>
<path d="M706.387 84.3838C709.005 82.8722 712.353 83.7689 713.865 86.3868C714.613 87.6819 714.769 89.1555 714.421 90.4971L710.249 88.0879C708.915 87.3182 707.249 88.2803 707.249 89.8198L707.248 94.2655C706.082 93.8407 705.053 93.0197 704.384 91.8609C702.872 89.2429 703.769 85.8954 706.387 84.3838Z" fill="#FF00FF" fill-opacity="0.4"/>
<path d="M701.973 92.5513L699.866 93.7677" stroke="#FF00FF" stroke-linecap="round"/>
<path d="M717.775 83.4277L715.668 84.6442" stroke="#FF00FF" stroke-linecap="round"/>
<path d="M703.955 80.1699L705.171 82.2769" stroke="#FF00FF" stroke-linecap="round"/>
<mask id="path-33-inside-5_1539_56071" fill="white">
<path d="M410.465 91.9268C410.465 90.3873 412.131 89.4252 413.465 90.1949L425.595 97.1977C426.929 97.9675 426.928 99.8922 425.595 100.662L422.372 102.523L424.01 105.361C424.563 106.318 424.235 107.541 423.278 108.093L421.475 109.134C420.519 109.686 419.296 109.358 418.743 108.402L417.105 105.564L413.465 107.665C412.131 108.435 410.464 107.473 410.464 105.934L410.465 91.9268Z"/>
</mask>
<path d="M410.465 91.9268C410.465 90.3873 412.131 89.4252 413.465 90.1949L425.595 97.1977C426.929 97.9675 426.928 99.8922 425.595 100.662L422.372 102.523L424.01 105.361C424.563 106.318 424.235 107.541 423.278 108.093L421.475 109.134C420.519 109.686 419.296 109.358 418.743 108.402L417.105 105.564L413.465 107.665C412.131 108.435 410.464 107.473 410.464 105.934L410.465 91.9268Z" fill="#FF00FF"/>
<path d="M410.465 91.9268L411.465 91.9269L411.465 91.9268L410.465 91.9268ZM413.465 90.1949L412.965 91.0609L412.965 91.0609L413.465 90.1949ZM425.595 97.1977L426.095 96.3317L426.095 96.3317L425.595 97.1977ZM422.372 102.523L421.872 101.657L421.006 102.157L421.506 103.023L422.372 102.523ZM424.01 105.361L424.877 104.861L424.877 104.861L424.01 105.361ZM423.278 108.093L423.778 108.959L423.778 108.959L423.278 108.093ZM418.743 108.402L417.877 108.902L417.877 108.902L418.743 108.402ZM417.105 105.564L417.971 105.064L417.471 104.198L416.605 104.698L417.105 105.564ZM413.465 107.665L413.965 108.531L413.965 108.531L413.465 107.665ZM410.464 105.934L409.464 105.934L409.464 105.934L410.464 105.934ZM410.465 91.9268L411.465 91.9268C411.465 91.1571 412.298 90.6761 412.965 91.0609L413.465 90.1949L413.965 89.3289C411.965 88.1743 409.465 89.6174 409.465 91.9268L410.465 91.9268ZM413.465 90.1949L412.965 91.0609L425.095 98.0638L425.595 97.1977L426.095 96.3317L413.965 89.3289L413.465 90.1949ZM425.595 97.1977L425.095 98.0638C425.762 98.4485 425.762 99.4109 425.095 99.796L425.595 100.662L426.095 101.528C428.095 100.374 428.095 97.4866 426.095 96.3317L425.595 97.1977ZM425.595 100.662L425.095 99.796L421.872 101.657L422.372 102.523L422.872 103.389L426.095 101.528L425.595 100.662ZM422.372 102.523L421.506 103.023L423.144 105.861L424.01 105.361L424.877 104.861L423.238 102.023L422.372 102.523ZM424.01 105.361L423.144 105.861C423.42 106.339 423.256 106.951 422.778 107.227L423.278 108.093L423.778 108.959C425.213 108.131 425.705 106.296 424.877 104.861L424.01 105.361ZM423.278 108.093L422.778 107.227L420.975 108.268L421.475 109.134L421.975 110L423.778 108.959L423.278 108.093ZM421.475 109.134L420.975 108.268C420.497 108.544 419.886 108.38 419.609 107.902L418.743 108.402L417.877 108.902C418.706 110.337 420.54 110.829 421.975 110L421.475 109.134ZM418.743 108.402L419.609 107.902L417.971 105.064L417.105 105.564L416.239 106.064L417.877 108.902L418.743 108.402ZM417.105 105.564L416.605 104.698L412.965 106.799L413.465 107.665L413.965 108.531L417.605 106.43L417.105 105.564ZM413.465 107.665L412.965 106.799C412.298 107.184 411.464 106.703 411.464 105.934L410.464 105.934L409.464 105.934C409.464 108.243 411.965 109.686 413.965 108.531L413.465 107.665ZM410.464 105.934L411.464 105.934L411.465 91.9269L410.465 91.9268L409.465 91.9268L409.464 105.934L410.464 105.934Z" fill="#FF00FF" mask="url(#path-33-inside-5_1539_56071)"/>
</g>
</g>
<defs>
<filter id="filter0_d_1539_56071" x="388" y="70" width="566" height="139" filterUnits="userSpaceOnUse" color-interpolation-filters="sRGB">
<feFlood flood-opacity="0" result="BackgroundImageFix"/>
<feColorMatrix in="SourceAlpha" type="matrix" values="0 0 0 0 0 0 0 0 0 0 0 0 0 0 0 0 0 0 127 0" result="hardAlpha"/>
<feOffset dy="4"/>
<feGaussianBlur stdDeviation="4.5"/>
<feColorMatrix type="matrix" values="0 0 0 0 0.160784 0 0 0 0 0.160784 0 0 0 0 0.160784 0 0 0 0.15 0"/>
<feBlend mode="normal" in2="BackgroundImageFix" result="effect1_dropShadow_1539_56071"/>
<feBlend mode="normal" in="SourceGraphic" in2="effect1_dropShadow_1539_56071" result="shape"/>
</filter>
<clipPath id="clip0_1539_56071">
<rect width="921" height="229" fill="white"/>
</clipPath>
</defs>
</svg>
