<svg width="1240" height="825" viewBox="0 0 1240 825" fill="none" xmlns="http://www.w3.org/2000/svg">
<rect width="1240" height="825" fill="white"/>
<g filter="url(#filter0_d_1668_116905)">
<path d="M60 56C60 42.7452 70.7452 32 84 32H1156C1169.25 32 1180 42.7452 1180 56V769C1180 782.255 1169.25 793 1156 793H84C70.7452 793 60 782.255 60 769V56Z" fill="white"/>
<mask id="path-2-inside-1_1668_116905" fill="white">
<path d="M60 56C60 42.7452 70.7452 32 84 32H1156C1169.25 32 1180 42.7452 1180 56V149H60V56Z"/>
</mask>
<path d="M60 56C60 42.7452 70.7452 32 84 32H1156C1169.25 32 1180 42.7452 1180 56V149H60V56Z" fill="#F2F2F2"/>
<path d="M60 32H1180H60ZM1180 150H60V148H1180V150ZM60 149V32V149ZM1180 32V149V32Z" fill="#C7C7C7" mask="url(#path-2-inside-1_1668_116905)"/>
<path d="M95.424 84.308C93.968 84.308 92.6147 84.056 91.364 83.552C90.132 83.0293 89.04 82.3107 88.088 81.396C87.1547 80.4627 86.4267 79.3893 85.904 78.176C85.4 76.944 85.148 75.6187 85.148 74.2C85.148 72.7813 85.4 71.4653 85.904 70.252C86.4267 69.02 87.1547 67.9467 88.088 67.032C89.04 66.0987 90.1413 65.38 91.392 64.876C92.6427 64.3533 93.9867 64.092 95.424 64.092C96.4507 64.092 97.4493 64.232 98.42 64.512C99.4093 64.7733 100.315 65.156 101.136 65.66C101.976 66.164 102.704 66.7707 103.32 67.48L101.36 69.496C100.632 68.6187 99.7453 67.956 98.7 67.508C97.6547 67.0413 96.5627 66.808 95.424 66.808C94.0427 66.808 92.8013 67.1347 91.7 67.788C90.5987 68.4413 89.7307 69.328 89.096 70.448C88.4613 71.5493 88.144 72.8 88.144 74.2C88.144 75.6 88.4613 76.86 89.096 77.98C89.7493 79.0813 90.636 79.9587 91.756 80.612C92.876 81.2653 94.1267 81.592 95.508 81.592C96.6467 81.592 97.72 81.368 98.728 80.92C99.7547 80.4533 100.623 79.8 101.332 78.96L103.264 80.92C102.611 81.6107 101.864 82.2173 101.024 82.74C100.203 83.244 99.3067 83.636 98.336 83.916C97.384 84.1773 96.4133 84.308 95.424 84.308ZM105.804 84V69.748H108.604V71.568C109.052 70.896 109.603 70.3733 110.256 70C110.928 69.608 111.684 69.412 112.524 69.412C113.103 69.4307 113.579 69.5147 113.952 69.664V72.184C113.411 71.9787 112.86 71.876 112.3 71.876C111.479 71.876 110.751 72.1 110.116 72.548C109.482 72.9773 108.978 73.612 108.604 74.452V84H105.804ZM122.207 84.252C120.807 84.252 119.537 83.9253 118.399 83.272C117.279 82.6187 116.383 81.732 115.711 80.612C115.057 79.492 114.731 78.2413 114.731 76.86C114.731 75.4973 115.048 74.2653 115.683 73.164C116.317 72.044 117.176 71.1573 118.259 70.504C119.341 69.832 120.545 69.496 121.871 69.496C123.196 69.496 124.372 69.832 125.399 70.504C126.425 71.1573 127.237 72.0533 127.835 73.192C128.451 74.312 128.759 75.5813 128.759 77V77.784H117.531C117.68 78.568 117.969 79.268 118.399 79.884C118.847 80.5 119.407 80.9853 120.079 81.34C120.769 81.6947 121.516 81.872 122.319 81.872C123.009 81.872 123.672 81.7693 124.307 81.564C124.96 81.34 125.501 81.0227 125.931 80.612L127.723 82.376C126.883 83.0107 126.015 83.4867 125.119 83.804C124.241 84.1027 123.271 84.252 122.207 84.252ZM117.559 75.684H125.987C125.875 74.9373 125.613 74.284 125.203 73.724C124.811 73.1453 124.316 72.6973 123.719 72.38C123.14 72.044 122.505 71.876 121.815 71.876C120.732 71.876 119.799 72.2307 119.015 72.94C118.249 73.6307 117.764 74.5453 117.559 75.684ZM135.742 84.252C134.715 84.252 133.81 84.0747 133.026 83.72C132.242 83.3467 131.626 82.8333 131.178 82.18C130.73 81.5267 130.506 80.7707 130.506 79.912C130.506 78.568 131.019 77.5133 132.046 76.748C133.073 75.964 134.482 75.572 136.274 75.572C137.674 75.572 138.971 75.8427 140.166 76.384V74.872C140.166 72.8373 139.009 71.82 136.694 71.82C136.041 71.82 135.359 71.9227 134.65 72.128C133.941 72.3147 133.147 72.6133 132.27 73.024L131.234 70.924C132.317 70.42 133.325 70.056 134.258 69.832C135.191 69.5893 136.134 69.468 137.086 69.468C138.934 69.468 140.362 69.9067 141.37 70.784C142.397 71.6613 142.91 72.912 142.91 74.536V84H140.166V82.768C139.531 83.272 138.85 83.6453 138.122 83.888C137.394 84.1307 136.601 84.252 135.742 84.252ZM133.194 79.856C133.194 80.5467 133.483 81.1067 134.062 81.536C134.659 81.9653 135.434 82.18 136.386 82.18C137.917 82.18 139.177 81.7227 140.166 80.808V78.4C139.139 77.8027 137.917 77.504 136.498 77.504C135.471 77.504 134.659 77.7187 134.062 78.148C133.483 78.5587 133.194 79.128 133.194 79.856ZM151.83 84.252C150.449 84.252 149.394 83.9347 148.666 83.3C147.938 82.6467 147.574 81.704 147.574 80.472V72.1H144.55V69.748H147.574V66.108L150.346 65.436V69.748H154.546V72.1H150.346V79.828C150.346 80.556 150.505 81.0787 150.822 81.396C151.158 81.6947 151.7 81.844 152.446 81.844C152.838 81.844 153.184 81.816 153.482 81.76C153.8 81.704 154.136 81.62 154.49 81.508V83.86C154.117 83.9907 153.678 84.084 153.174 84.14C152.689 84.2147 152.241 84.252 151.83 84.252ZM163.222 84.252C161.822 84.252 160.553 83.9253 159.414 83.272C158.294 82.6187 157.398 81.732 156.726 80.612C156.073 79.492 155.746 78.2413 155.746 76.86C155.746 75.4973 156.064 74.2653 156.698 73.164C157.333 72.044 158.192 71.1573 159.274 70.504C160.357 69.832 161.561 69.496 162.886 69.496C164.212 69.496 165.388 69.832 166.414 70.504C167.441 71.1573 168.253 72.0533 168.85 73.192C169.466 74.312 169.774 75.5813 169.774 77V77.784H158.546C158.696 78.568 158.985 79.268 159.414 79.884C159.862 80.5 160.422 80.9853 161.094 81.34C161.785 81.6947 162.532 81.872 163.334 81.872C164.025 81.872 164.688 81.7693 165.322 81.564C165.976 81.34 166.517 81.0227 166.946 80.612L168.738 82.376C167.898 83.0107 167.03 83.4867 166.134 83.804C165.257 84.1027 164.286 84.252 163.222 84.252ZM158.574 75.684H167.002C166.89 74.9373 166.629 74.284 166.218 73.724C165.826 73.1453 165.332 72.6973 164.734 72.38C164.156 72.044 163.521 71.876 162.83 71.876C161.748 71.876 160.814 72.2307 160.03 72.94C159.265 73.6307 158.78 74.5453 158.574 75.684ZM178.293 89.712V69.748H181.065V71.12C182.259 70.056 183.715 69.524 185.433 69.524C186.777 69.524 187.99 69.8507 189.073 70.504C190.174 71.1573 191.042 72.0347 191.677 73.136C192.311 74.2373 192.629 75.4787 192.629 76.86C192.629 78.2413 192.302 79.492 191.649 80.612C191.014 81.7133 190.146 82.5907 189.045 83.244C187.962 83.8973 186.739 84.224 185.377 84.224C184.593 84.224 183.837 84.1027 183.109 83.86C182.381 83.5987 181.709 83.2347 181.093 82.768V89.712H178.293ZM185.069 81.788C185.983 81.788 186.795 81.5733 187.505 81.144C188.233 80.7147 188.811 80.136 189.241 79.408C189.67 78.6613 189.885 77.8213 189.885 76.888C189.885 75.9547 189.67 75.1147 189.241 74.368C188.811 73.6213 188.233 73.0333 187.505 72.604C186.795 72.1747 185.983 71.96 185.069 71.96C184.266 71.96 183.519 72.1093 182.829 72.408C182.138 72.7067 181.559 73.1267 181.093 73.668V80.108C181.559 80.6307 182.138 81.0413 182.829 81.34C183.538 81.6387 184.285 81.788 185.069 81.788ZM195.3 84V69.748H198.1V71.568C198.548 70.896 199.099 70.3733 199.752 70C200.424 69.608 201.18 69.412 202.02 69.412C202.599 69.4307 203.075 69.5147 203.448 69.664V72.184C202.907 71.9787 202.356 71.876 201.796 71.876C200.975 71.876 200.247 72.1 199.612 72.548C198.978 72.9773 198.474 73.612 198.1 74.452V84H195.3ZM211.647 84.28C210.265 84.28 209.005 83.9533 207.867 83.3C206.747 82.6467 205.86 81.76 205.207 80.64C204.553 79.52 204.227 78.2693 204.227 76.888C204.227 75.5067 204.553 74.256 205.207 73.136C205.86 72.016 206.747 71.1293 207.867 70.476C209.005 69.804 210.265 69.468 211.647 69.468C213.047 69.468 214.307 69.804 215.427 70.476C216.547 71.1293 217.433 72.016 218.087 73.136C218.74 74.256 219.067 75.5067 219.067 76.888C219.067 78.2693 218.74 79.52 218.087 80.64C217.433 81.76 216.547 82.6467 215.427 83.3C214.307 83.9533 213.047 84.28 211.647 84.28ZM211.647 81.816C212.524 81.816 213.308 81.6013 213.999 81.172C214.708 80.724 215.268 80.1267 215.679 79.38C216.108 78.6333 216.323 77.8027 216.323 76.888C216.323 75.9547 216.117 75.124 215.707 74.396C215.296 73.6493 214.736 73.052 214.027 72.604C213.317 72.156 212.524 71.932 211.647 71.932C210.769 71.932 209.976 72.156 209.267 72.604C208.557 73.052 207.997 73.6493 207.587 74.396C207.176 75.124 206.971 75.9547 206.971 76.888C206.971 77.8027 207.176 78.6333 207.587 79.38C207.997 80.1267 208.557 80.724 209.267 81.172C209.976 81.6013 210.769 81.816 211.647 81.816ZM223.115 67.452C222.648 67.452 222.247 67.284 221.91 66.948C221.575 66.5933 221.407 66.1827 221.407 65.716C221.407 65.2307 221.575 64.8293 221.91 64.512C222.247 64.176 222.648 64.008 223.115 64.008C223.6 64.008 224.011 64.176 224.347 64.512C224.683 64.8293 224.851 65.2307 224.851 65.716C224.851 66.1827 224.683 66.5933 224.347 66.948C224.011 67.284 223.6 67.452 223.115 67.452ZM220.455 89.992C220.156 89.992 219.866 89.964 219.586 89.908C219.288 89.8707 219.045 89.8333 218.858 89.796V87.556C219.176 87.6307 219.549 87.668 219.978 87.668C220.595 87.668 221.033 87.528 221.295 87.248C221.575 86.9867 221.715 86.548 221.715 85.932V69.748H224.515V86.128C224.515 87.36 224.16 88.312 223.451 88.984C222.76 89.656 221.761 89.992 220.455 89.992ZM234.644 84.252C233.244 84.252 231.975 83.9253 230.836 83.272C229.716 82.6187 228.82 81.732 228.148 80.612C227.495 79.492 227.168 78.2413 227.168 76.86C227.168 75.4973 227.485 74.2653 228.12 73.164C228.755 72.044 229.613 71.1573 230.696 70.504C231.779 69.832 232.983 69.496 234.308 69.496C235.633 69.496 236.809 69.832 237.836 70.504C238.863 71.1573 239.675 72.0533 240.272 73.192C240.888 74.312 241.196 75.5813 241.196 77V77.784H229.968C230.117 78.568 230.407 79.268 230.836 79.884C231.284 80.5 231.844 80.9853 232.516 81.34C233.207 81.6947 233.953 81.872 234.756 81.872C235.447 81.872 236.109 81.7693 236.744 81.564C237.397 81.34 237.939 81.0227 238.368 80.612L240.16 82.376C239.32 83.0107 238.452 83.4867 237.556 83.804C236.679 84.1027 235.708 84.252 234.644 84.252ZM229.996 75.684H238.424C238.312 74.9373 238.051 74.284 237.64 73.724C237.248 73.1453 236.753 72.6973 236.156 72.38C235.577 72.044 234.943 71.876 234.252 71.876C233.169 71.876 232.236 72.2307 231.452 72.94C230.687 73.6307 230.201 74.5453 229.996 75.684ZM250.61 84.252C249.247 84.252 248.006 83.9253 246.886 83.272C245.784 82.6187 244.907 81.732 244.254 80.612C243.6 79.492 243.274 78.2413 243.274 76.86C243.274 75.4787 243.6 74.2373 244.254 73.136C244.907 72.016 245.784 71.1293 246.886 70.476C248.006 69.804 249.247 69.468 250.61 69.468C251.692 69.468 252.728 69.6733 253.718 70.084C254.726 70.4947 255.594 71.0733 256.322 71.82L254.586 73.752C254.044 73.1547 253.438 72.7067 252.766 72.408C252.094 72.1093 251.394 71.96 250.666 71.96C249.807 71.96 249.023 72.1747 248.314 72.604C247.623 73.0333 247.072 73.6213 246.662 74.368C246.251 75.1147 246.046 75.9453 246.046 76.86C246.046 77.7747 246.251 78.6147 246.662 79.38C247.072 80.1267 247.632 80.7147 248.342 81.144C249.051 81.5733 249.844 81.788 250.722 81.788C252.159 81.788 253.438 81.2187 254.558 80.08L256.266 81.872C255.519 82.6373 254.651 83.2253 253.662 83.636C252.691 84.0467 251.674 84.252 250.61 84.252ZM264.897 84.252C263.515 84.252 262.461 83.9347 261.733 83.3C261.005 82.6467 260.641 81.704 260.641 80.472V72.1H257.617V69.748H260.641V66.108L263.413 65.436V69.748H267.613V72.1H263.413V79.828C263.413 80.556 263.571 81.0787 263.889 81.396C264.225 81.6947 264.766 81.844 265.513 81.844C265.905 81.844 266.25 81.816 266.549 81.76C266.866 81.704 267.202 81.62 267.557 81.508V83.86C267.183 83.9907 266.745 84.084 266.241 84.14C265.755 84.2147 265.307 84.252 264.897 84.252Z" fill="#151515"/>
<path d="M1143.44 67.9316C1144.02 67.3561 1144.95 67.3562 1145.53 67.9316L1146.57 68.9746C1147.14 69.5507 1147.14 70.484 1146.57 71.0595L1141.88 75.75L1146.57 80.4404C1147.14 81.0164 1147.14 81.9497 1146.57 82.5254L1145.53 83.5683C1144.95 84.1437 1144.02 84.1439 1143.44 83.5683L1138.75 78.8779L1134.06 83.5683C1133.48 84.1439 1132.55 84.1437 1131.97 83.5683L1130.93 82.5254C1130.36 81.9493 1130.36 81.0159 1130.93 80.4404L1135.62 75.75L1130.93 71.0595C1130.36 70.4835 1130.36 69.5502 1130.93 68.9746L1131.97 67.9316C1132.55 67.3562 1133.48 67.3561 1134.06 67.9316L1138.75 72.622L1143.44 67.9316Z" fill="#1F1F1F"/>
<path d="M85.246 116V106.2H86.744L90.02 113.172L93.296 106.2H94.794V116H93.772V107.474L90.02 115.3L86.254 107.446V116H85.246ZM99.0722 116.126C98.5869 116.126 98.1575 116.037 97.7842 115.86C97.4109 115.683 97.1169 115.44 96.9022 115.132C96.6969 114.815 96.5942 114.451 96.5942 114.04C96.5942 113.629 96.7015 113.275 96.9162 112.976C97.1309 112.668 97.4295 112.43 97.8122 112.262C98.1949 112.094 98.6429 112.01 99.1562 112.01C99.5482 112.01 99.9169 112.052 100.262 112.136C100.617 112.22 100.944 112.355 101.242 112.542V111.604C101.242 111.044 101.093 110.624 100.794 110.344C100.496 110.055 100.057 109.91 99.4782 109.91C99.1609 109.91 98.8342 109.957 98.4982 110.05C98.1715 110.143 97.8075 110.293 97.4062 110.498L97.0282 109.714C97.9429 109.275 98.8015 109.056 99.6042 109.056C100.454 109.056 101.107 109.266 101.564 109.686C102.022 110.097 102.25 110.689 102.25 111.464V116H101.242V115.202C100.944 115.51 100.612 115.743 100.248 115.902C99.8842 116.051 99.4922 116.126 99.0722 116.126ZM97.5742 114.012C97.5742 114.413 97.7282 114.735 98.0362 114.978C98.3535 115.221 98.7689 115.342 99.2822 115.342C99.6649 115.342 100.015 115.277 100.332 115.146C100.659 115.015 100.962 114.819 101.242 114.558V113.242C100.953 113.074 100.654 112.953 100.346 112.878C100.038 112.794 99.6929 112.752 99.3102 112.752C98.7875 112.752 98.3675 112.869 98.0502 113.102C97.7329 113.326 97.5742 113.629 97.5742 114.012ZM104.327 116V109.168H105.349V110.274C105.611 109.863 105.923 109.56 106.287 109.364C106.651 109.159 107.062 109.056 107.519 109.056C108.014 109.056 108.443 109.163 108.807 109.378C109.181 109.583 109.47 109.877 109.675 110.26C109.89 110.633 109.997 111.072 109.997 111.576V116H108.975V111.87C108.975 111.263 108.807 110.787 108.471 110.442C108.145 110.087 107.701 109.91 107.141 109.91C106.768 109.91 106.427 109.999 106.119 110.176C105.811 110.353 105.555 110.615 105.349 110.96V116H104.327ZM114.166 116.126C113.681 116.126 113.251 116.037 112.878 115.86C112.505 115.683 112.211 115.44 111.996 115.132C111.791 114.815 111.688 114.451 111.688 114.04C111.688 113.629 111.795 113.275 112.01 112.976C112.225 112.668 112.523 112.43 112.906 112.262C113.289 112.094 113.737 112.01 114.25 112.01C114.642 112.01 115.011 112.052 115.356 112.136C115.711 112.22 116.037 112.355 116.336 112.542V111.604C116.336 111.044 116.187 110.624 115.888 110.344C115.589 110.055 115.151 109.91 114.572 109.91C114.255 109.91 113.928 109.957 113.592 110.05C113.265 110.143 112.901 110.293 112.5 110.498L112.122 109.714C113.037 109.275 113.895 109.056 114.698 109.056C115.547 109.056 116.201 109.266 116.658 109.686C117.115 110.097 117.344 110.689 117.344 111.464V116H116.336V115.202C116.037 115.51 115.706 115.743 115.342 115.902C114.978 116.051 114.586 116.126 114.166 116.126ZM112.668 114.012C112.668 114.413 112.822 114.735 113.13 114.978C113.447 115.221 113.863 115.342 114.376 115.342C114.759 115.342 115.109 115.277 115.426 115.146C115.753 115.015 116.056 114.819 116.336 114.558V113.242C116.047 113.074 115.748 112.953 115.44 112.878C115.132 112.794 114.787 112.752 114.404 112.752C113.881 112.752 113.461 112.869 113.144 113.102C112.827 113.326 112.668 113.629 112.668 114.012ZM122.585 119.066C122.128 119.066 121.666 119.001 121.199 118.87C120.742 118.749 120.317 118.576 119.925 118.352L120.359 117.568C120.779 117.783 121.162 117.941 121.507 118.044C121.852 118.147 122.198 118.198 122.543 118.198C123.168 118.198 123.64 118.049 123.957 117.75C124.284 117.451 124.447 117.017 124.447 116.448V115.076C124.186 115.403 123.868 115.655 123.495 115.832C123.122 116 122.711 116.084 122.263 116.084C121.675 116.084 121.143 115.93 120.667 115.622C120.191 115.305 119.813 114.885 119.533 114.362C119.253 113.83 119.113 113.237 119.113 112.584C119.113 111.931 119.253 111.343 119.533 110.82C119.822 110.288 120.21 109.868 120.695 109.56C121.18 109.243 121.722 109.084 122.319 109.084C122.748 109.084 123.145 109.168 123.509 109.336C123.873 109.495 124.19 109.733 124.461 110.05V109.168H125.469V116.434C125.469 117.283 125.222 117.932 124.727 118.38C124.232 118.837 123.518 119.066 122.585 119.066ZM122.515 115.202C122.916 115.202 123.285 115.123 123.621 114.964C123.957 114.796 124.232 114.567 124.447 114.278V110.904C124.223 110.615 123.938 110.391 123.593 110.232C123.257 110.064 122.898 109.98 122.515 109.98C122.058 109.98 121.647 110.092 121.283 110.316C120.928 110.54 120.644 110.848 120.429 111.24C120.224 111.632 120.121 112.08 120.121 112.584C120.121 113.079 120.224 113.527 120.429 113.928C120.644 114.32 120.928 114.633 121.283 114.866C121.647 115.09 122.058 115.202 122.515 115.202ZM130.65 116.14C130.015 116.14 129.441 115.986 128.928 115.678C128.414 115.361 128.008 114.936 127.71 114.404C127.411 113.863 127.262 113.256 127.262 112.584C127.262 111.912 127.402 111.31 127.682 110.778C127.971 110.246 128.358 109.826 128.844 109.518C129.329 109.21 129.87 109.056 130.468 109.056C131.074 109.056 131.611 109.21 132.078 109.518C132.554 109.817 132.927 110.227 133.198 110.75C133.478 111.263 133.618 111.847 133.618 112.5V112.808H128.256C128.293 113.275 128.419 113.695 128.634 114.068C128.858 114.432 129.147 114.721 129.502 114.936C129.866 115.141 130.262 115.244 130.692 115.244C131.046 115.244 131.387 115.183 131.714 115.062C132.05 114.931 132.334 114.759 132.568 114.544L133.212 115.23C132.82 115.538 132.414 115.767 131.994 115.916C131.574 116.065 131.126 116.14 130.65 116.14ZM128.284 112.08H132.61C132.563 111.669 132.437 111.305 132.232 110.988C132.036 110.661 131.784 110.405 131.476 110.218C131.177 110.031 130.841 109.938 130.468 109.938C130.094 109.938 129.754 110.031 129.446 110.218C129.138 110.395 128.881 110.647 128.676 110.974C128.48 111.291 128.349 111.66 128.284 112.08ZM138.924 119.066C138.709 119.066 138.49 119.033 138.266 118.968V118.058C138.359 118.077 138.457 118.091 138.56 118.1C138.663 118.109 138.751 118.114 138.826 118.114C139.087 118.114 139.302 118.044 139.47 117.904C139.647 117.764 139.797 117.545 139.918 117.246L140.422 116L137.79 109.168H138.924L140.996 114.782L143.194 109.168H144.328L140.884 117.554C140.735 117.918 140.571 118.212 140.394 118.436C140.217 118.66 140.011 118.819 139.778 118.912C139.545 119.015 139.26 119.066 138.924 119.066ZM148.422 116.112C147.787 116.112 147.218 115.958 146.714 115.65C146.21 115.342 145.813 114.922 145.524 114.39C145.234 113.858 145.09 113.256 145.09 112.584C145.09 111.912 145.234 111.31 145.524 110.778C145.813 110.246 146.21 109.826 146.714 109.518C147.218 109.21 147.787 109.056 148.422 109.056C149.047 109.056 149.607 109.21 150.102 109.518C150.606 109.826 151.002 110.246 151.292 110.778C151.581 111.31 151.726 111.912 151.726 112.584C151.726 113.256 151.581 113.858 151.292 114.39C151.002 114.922 150.606 115.342 150.102 115.65C149.607 115.958 149.047 116.112 148.422 116.112ZM148.408 115.216C148.856 115.216 149.252 115.104 149.598 114.88C149.943 114.647 150.214 114.329 150.41 113.928C150.615 113.527 150.718 113.079 150.718 112.584C150.718 112.08 150.615 111.632 150.41 111.24C150.214 110.839 149.943 110.526 149.598 110.302C149.252 110.069 148.856 109.952 148.408 109.952C147.96 109.952 147.563 110.069 147.218 110.302C146.872 110.526 146.597 110.839 146.392 111.24C146.196 111.632 146.098 112.08 146.098 112.584C146.098 113.079 146.196 113.527 146.392 113.928C146.597 114.329 146.872 114.647 147.218 114.88C147.563 115.104 147.96 115.216 148.408 115.216ZM155.955 116.112C155.469 116.112 155.04 116.005 154.667 115.79C154.293 115.575 153.999 115.277 153.785 114.894C153.579 114.511 153.477 114.073 153.477 113.578V109.168H154.513V113.284C154.513 113.891 154.676 114.371 155.003 114.726C155.329 115.081 155.773 115.258 156.333 115.258C156.715 115.258 157.056 115.169 157.355 114.992C157.663 114.815 157.919 114.558 158.125 114.222V109.168H159.147V116H158.125V114.894C157.863 115.295 157.551 115.599 157.187 115.804C156.832 116.009 156.421 116.112 155.955 116.112ZM161.243 116V109.168H162.265V110.568C162.443 110.092 162.695 109.723 163.021 109.462C163.357 109.191 163.74 109.056 164.169 109.056C164.291 109.056 164.403 109.065 164.505 109.084C164.608 109.093 164.711 109.117 164.813 109.154V110.078C164.701 110.041 164.58 110.013 164.449 109.994C164.328 109.966 164.211 109.952 164.099 109.952C163.679 109.952 163.311 110.073 162.993 110.316C162.685 110.559 162.443 110.899 162.265 111.338V116H161.243ZM171.547 116.126C171.061 116.126 170.632 116.037 170.259 115.86C169.885 115.683 169.591 115.44 169.377 115.132C169.171 114.815 169.069 114.451 169.069 114.04C169.069 113.629 169.176 113.275 169.391 112.976C169.605 112.668 169.904 112.43 170.287 112.262C170.669 112.094 171.117 112.01 171.631 112.01C172.023 112.01 172.391 112.052 172.737 112.136C173.091 112.22 173.418 112.355 173.717 112.542V111.604C173.717 111.044 173.567 110.624 173.269 110.344C172.97 110.055 172.531 109.91 171.953 109.91C171.635 109.91 171.309 109.957 170.973 110.05C170.646 110.143 170.282 110.293 169.881 110.498L169.503 109.714C170.417 109.275 171.276 109.056 172.079 109.056C172.928 109.056 173.581 109.266 174.039 109.686C174.496 110.097 174.725 110.689 174.725 111.464V116H173.717V115.202C173.418 115.51 173.087 115.743 172.723 115.902C172.359 116.051 171.967 116.126 171.547 116.126ZM170.049 114.012C170.049 114.413 170.203 114.735 170.511 114.978C170.828 115.221 171.243 115.342 171.757 115.342C172.139 115.342 172.489 115.277 172.807 115.146C173.133 115.015 173.437 114.819 173.717 114.558V113.242C173.427 113.074 173.129 112.953 172.821 112.878C172.513 112.794 172.167 112.752 171.785 112.752C171.262 112.752 170.842 112.869 170.525 113.102C170.207 113.326 170.049 113.629 170.049 114.012ZM178.916 116.14C178.356 116.14 177.838 116.056 177.362 115.888C176.886 115.711 176.48 115.459 176.144 115.132L176.69 114.46C177.101 114.759 177.479 114.978 177.824 115.118C178.169 115.249 178.524 115.314 178.888 115.314C179.383 115.314 179.793 115.197 180.12 114.964C180.447 114.731 180.61 114.432 180.61 114.068C180.61 113.788 180.512 113.569 180.316 113.41C180.129 113.251 179.817 113.13 179.378 113.046L178.258 112.85C177.595 112.729 177.105 112.523 176.788 112.234C176.48 111.945 176.326 111.553 176.326 111.058C176.326 110.666 176.429 110.321 176.634 110.022C176.849 109.723 177.143 109.49 177.516 109.322C177.889 109.145 178.314 109.056 178.79 109.056C179.257 109.056 179.7 109.126 180.12 109.266C180.54 109.397 180.965 109.611 181.394 109.91L180.89 110.624C180.535 110.372 180.181 110.19 179.826 110.078C179.471 109.957 179.112 109.896 178.748 109.896C178.3 109.896 177.941 109.994 177.67 110.19C177.399 110.386 177.264 110.652 177.264 110.988C177.264 111.268 177.348 111.483 177.516 111.632C177.693 111.781 178.001 111.893 178.44 111.968L179.588 112.178C180.279 112.299 180.783 112.509 181.1 112.808C181.417 113.107 181.576 113.508 181.576 114.012C181.576 114.413 181.459 114.777 181.226 115.104C180.993 115.421 180.675 115.673 180.274 115.86C179.873 116.047 179.42 116.14 178.916 116.14ZM185.246 116.14C184.686 116.14 184.168 116.056 183.692 115.888C183.216 115.711 182.81 115.459 182.474 115.132L183.02 114.46C183.431 114.759 183.809 114.978 184.154 115.118C184.499 115.249 184.854 115.314 185.218 115.314C185.713 115.314 186.123 115.197 186.45 114.964C186.777 114.731 186.94 114.432 186.94 114.068C186.94 113.788 186.842 113.569 186.646 113.41C186.459 113.251 186.147 113.13 185.708 113.046L184.588 112.85C183.925 112.729 183.435 112.523 183.118 112.234C182.81 111.945 182.656 111.553 182.656 111.058C182.656 110.666 182.759 110.321 182.964 110.022C183.179 109.723 183.473 109.49 183.846 109.322C184.219 109.145 184.644 109.056 185.12 109.056C185.587 109.056 186.03 109.126 186.45 109.266C186.87 109.397 187.295 109.611 187.724 109.91L187.22 110.624C186.865 110.372 186.511 110.19 186.156 110.078C185.801 109.957 185.442 109.896 185.078 109.896C184.63 109.896 184.271 109.994 184 110.19C183.729 110.386 183.594 110.652 183.594 110.988C183.594 111.268 183.678 111.483 183.846 111.632C184.023 111.781 184.331 111.893 184.77 111.968L185.918 112.178C186.609 112.299 187.113 112.509 187.43 112.808C187.747 113.107 187.906 113.508 187.906 114.012C187.906 114.413 187.789 114.777 187.556 115.104C187.323 115.421 187.005 115.673 186.604 115.86C186.203 116.047 185.75 116.14 185.246 116.14ZM192.61 116.14C191.976 116.14 191.402 115.986 190.888 115.678C190.375 115.361 189.969 114.936 189.67 114.404C189.372 113.863 189.222 113.256 189.222 112.584C189.222 111.912 189.362 111.31 189.642 110.778C189.932 110.246 190.319 109.826 190.804 109.518C191.29 109.21 191.831 109.056 192.428 109.056C193.035 109.056 193.572 109.21 194.038 109.518C194.514 109.817 194.888 110.227 195.158 110.75C195.438 111.263 195.578 111.847 195.578 112.5V112.808H190.216C190.254 113.275 190.38 113.695 190.594 114.068C190.818 114.432 191.108 114.721 191.462 114.936C191.826 115.141 192.223 115.244 192.652 115.244C193.007 115.244 193.348 115.183 193.674 115.062C194.01 114.931 194.295 114.759 194.528 114.544L195.172 115.23C194.78 115.538 194.374 115.767 193.954 115.916C193.534 116.065 193.086 116.14 192.61 116.14ZM190.244 112.08H194.57C194.524 111.669 194.398 111.305 194.192 110.988C193.996 110.661 193.744 110.405 193.436 110.218C193.138 110.031 192.802 109.938 192.428 109.938C192.055 109.938 191.714 110.031 191.406 110.218C191.098 110.395 190.842 110.647 190.636 110.974C190.44 111.291 190.31 111.66 190.244 112.08ZM199.722 116.14C199.134 116.14 198.686 116 198.378 115.72C198.08 115.431 197.93 115.015 197.93 114.474V110.008H196.516V109.168H197.93V107.292L198.952 107.054V109.168H200.912V110.008H198.952V114.208C198.952 114.572 199.027 114.833 199.176 114.992C199.335 115.151 199.592 115.23 199.946 115.23C200.124 115.23 200.282 115.216 200.422 115.188C200.562 115.16 200.726 115.113 200.912 115.048V115.958C200.726 116.023 200.53 116.07 200.324 116.098C200.119 116.126 199.918 116.14 199.722 116.14ZM204.66 116.14C204.1 116.14 203.582 116.056 203.106 115.888C202.63 115.711 202.224 115.459 201.888 115.132L202.434 114.46C202.845 114.759 203.223 114.978 203.568 115.118C203.913 115.249 204.268 115.314 204.632 115.314C205.127 115.314 205.537 115.197 205.864 114.964C206.191 114.731 206.354 114.432 206.354 114.068C206.354 113.788 206.256 113.569 206.06 113.41C205.873 113.251 205.561 113.13 205.122 113.046L204.002 112.85C203.339 112.729 202.849 112.523 202.532 112.234C202.224 111.945 202.07 111.553 202.07 111.058C202.07 110.666 202.173 110.321 202.378 110.022C202.593 109.723 202.887 109.49 203.26 109.322C203.633 109.145 204.058 109.056 204.534 109.056C205.001 109.056 205.444 109.126 205.864 109.266C206.284 109.397 206.709 109.611 207.138 109.91L206.634 110.624C206.279 110.372 205.925 110.19 205.57 110.078C205.215 109.957 204.856 109.896 204.492 109.896C204.044 109.896 203.685 109.994 203.414 110.19C203.143 110.386 203.008 110.652 203.008 110.988C203.008 111.268 203.092 111.483 203.26 111.632C203.437 111.781 203.745 111.893 204.184 111.968L205.332 112.178C206.023 112.299 206.527 112.509 206.844 112.808C207.161 113.107 207.32 113.508 207.32 114.012C207.32 114.413 207.203 114.777 206.97 115.104C206.737 115.421 206.419 115.673 206.018 115.86C205.617 116.047 205.164 116.14 204.66 116.14ZM213.362 116L211.486 109.168H212.48L213.908 114.628L215.546 109.168H216.456L218.094 114.628L219.508 109.168H220.474L218.612 116H217.618L215.994 110.484L214.37 116H213.362ZM221.905 116V109.168H222.927V116H221.905ZM222.423 107.474C222.218 107.474 222.04 107.404 221.891 107.264C221.751 107.115 221.681 106.942 221.681 106.746C221.681 106.55 221.751 106.382 221.891 106.242C222.04 106.093 222.218 106.018 222.423 106.018C222.628 106.018 222.801 106.093 222.941 106.242C223.09 106.382 223.165 106.55 223.165 106.746C223.165 106.942 223.09 107.115 222.941 107.264C222.801 107.404 222.628 107.474 222.423 107.474ZM227.627 116.14C227.039 116.14 226.591 116 226.283 115.72C225.984 115.431 225.835 115.015 225.835 114.474V110.008H224.421V109.168H225.835V107.292L226.857 107.054V109.168H228.817V110.008H226.857V114.208C226.857 114.572 226.931 114.833 227.081 114.992C227.239 115.151 227.496 115.23 227.851 115.23C228.028 115.23 228.187 115.216 228.327 115.188C228.467 115.16 228.63 115.113 228.817 115.048V115.958C228.63 116.023 228.434 116.07 228.229 116.098C228.023 116.126 227.823 116.14 227.627 116.14ZM230.314 116V105.892L231.336 105.682V110.274C231.597 109.863 231.91 109.56 232.274 109.364C232.638 109.159 233.048 109.056 233.506 109.056C234 109.056 234.43 109.163 234.794 109.378C235.167 109.583 235.456 109.877 235.662 110.26C235.876 110.633 235.984 111.072 235.984 111.576V116H234.962V111.87C234.962 111.263 234.794 110.787 234.458 110.442C234.131 110.087 233.688 109.91 233.128 109.91C232.754 109.91 232.414 109.999 232.106 110.176C231.798 110.353 231.541 110.615 231.336 110.96V116H230.314ZM241.306 118.926V109.168H242.314V110.148C242.575 109.803 242.893 109.541 243.266 109.364C243.649 109.177 244.069 109.084 244.526 109.084C245.123 109.084 245.655 109.243 246.122 109.56C246.598 109.868 246.976 110.288 247.256 110.82C247.536 111.343 247.676 111.931 247.676 112.584C247.676 113.237 247.531 113.83 247.242 114.362C246.962 114.894 246.579 115.319 246.094 115.636C245.618 115.944 245.077 116.098 244.47 116.098C244.041 116.098 243.644 116.019 243.28 115.86C242.916 115.692 242.599 115.454 242.328 115.146V118.926H241.306ZM244.274 115.216C244.731 115.216 245.137 115.104 245.492 114.88C245.856 114.647 246.141 114.334 246.346 113.942C246.561 113.541 246.668 113.093 246.668 112.598C246.668 112.094 246.561 111.646 246.346 111.254C246.141 110.862 245.856 110.554 245.492 110.33C245.137 110.097 244.731 109.98 244.274 109.98C243.873 109.98 243.499 110.064 243.154 110.232C242.818 110.391 242.543 110.619 242.328 110.918V114.264C242.552 114.563 242.832 114.796 243.168 114.964C243.513 115.132 243.882 115.216 244.274 115.216ZM249.468 116V109.168H250.49V110.568C250.667 110.092 250.919 109.723 251.246 109.462C251.582 109.191 251.965 109.056 252.394 109.056C252.515 109.056 252.627 109.065 252.73 109.084C252.833 109.093 252.935 109.117 253.038 109.154V110.078C252.926 110.041 252.805 110.013 252.674 109.994C252.553 109.966 252.436 109.952 252.324 109.952C251.904 109.952 251.535 110.073 251.218 110.316C250.91 110.559 250.667 110.899 250.49 111.338V116H249.468ZM256.99 116.112C256.355 116.112 255.786 115.958 255.282 115.65C254.778 115.342 254.381 114.922 254.092 114.39C253.803 113.858 253.658 113.256 253.658 112.584C253.658 111.912 253.803 111.31 254.092 110.778C254.381 110.246 254.778 109.826 255.282 109.518C255.786 109.21 256.355 109.056 256.99 109.056C257.615 109.056 258.175 109.21 258.67 109.518C259.174 109.826 259.571 110.246 259.86 110.778C260.149 111.31 260.294 111.912 260.294 112.584C260.294 113.256 260.149 113.858 259.86 114.39C259.571 114.922 259.174 115.342 258.67 115.65C258.175 115.958 257.615 116.112 256.99 116.112ZM256.976 115.216C257.424 115.216 257.821 115.104 258.166 114.88C258.511 114.647 258.782 114.329 258.978 113.928C259.183 113.527 259.286 113.079 259.286 112.584C259.286 112.08 259.183 111.632 258.978 111.24C258.782 110.839 258.511 110.526 258.166 110.302C257.821 110.069 257.424 109.952 256.976 109.952C256.528 109.952 256.131 110.069 255.786 110.302C255.441 110.526 255.165 110.839 254.96 111.24C254.764 111.632 254.666 112.08 254.666 112.584C254.666 113.079 254.764 113.527 254.96 113.928C255.165 114.329 255.441 114.647 255.786 114.88C256.131 115.104 256.528 115.216 256.976 115.216ZM262.605 107.474C262.4 107.474 262.222 107.404 262.073 107.264C261.933 107.115 261.863 106.942 261.863 106.746C261.863 106.55 261.933 106.382 262.073 106.242C262.222 106.093 262.4 106.018 262.605 106.018C262.81 106.018 262.983 106.093 263.123 106.242C263.272 106.382 263.347 106.55 263.347 106.746C263.347 106.942 263.272 107.115 263.123 107.264C262.983 107.404 262.81 107.474 262.605 107.474ZM261.387 119.066C261.275 119.066 261.163 119.052 261.051 119.024C260.948 119.005 260.85 118.991 260.757 118.982V118.1C260.841 118.119 260.925 118.133 261.009 118.142C261.084 118.151 261.168 118.156 261.261 118.156C261.56 118.156 261.77 118.086 261.891 117.946C262.022 117.806 262.087 117.577 262.087 117.26V109.168H263.109V117.316C263.109 117.867 262.96 118.296 262.661 118.604C262.372 118.912 261.947 119.066 261.387 119.066ZM268.284 116.14C267.65 116.14 267.076 115.986 266.562 115.678C266.049 115.361 265.643 114.936 265.344 114.404C265.046 113.863 264.896 113.256 264.896 112.584C264.896 111.912 265.036 111.31 265.316 110.778C265.606 110.246 265.993 109.826 266.478 109.518C266.964 109.21 267.505 109.056 268.102 109.056C268.709 109.056 269.246 109.21 269.712 109.518C270.188 109.817 270.562 110.227 270.832 110.75C271.112 111.263 271.252 111.847 271.252 112.5V112.808H265.89C265.928 113.275 266.054 113.695 266.268 114.068C266.492 114.432 266.782 114.721 267.136 114.936C267.5 115.141 267.897 115.244 268.326 115.244C268.681 115.244 269.022 115.183 269.348 115.062C269.684 114.931 269.969 114.759 270.202 114.544L270.846 115.23C270.454 115.538 270.048 115.767 269.628 115.916C269.208 116.065 268.76 116.14 268.284 116.14ZM265.918 112.08H270.244C270.198 111.669 270.072 111.305 269.866 110.988C269.67 110.661 269.418 110.405 269.11 110.218C268.812 110.031 268.476 109.938 268.102 109.938C267.729 109.938 267.388 110.031 267.08 110.218C266.772 110.395 266.516 110.647 266.31 110.974C266.114 111.291 265.984 111.66 265.918 112.08ZM276.063 116.112C275.429 116.112 274.855 115.958 274.341 115.65C273.837 115.333 273.436 114.908 273.137 114.376C272.839 113.835 272.689 113.237 272.689 112.584C272.689 111.921 272.839 111.324 273.137 110.792C273.436 110.26 273.837 109.84 274.341 109.532C274.855 109.215 275.429 109.056 276.063 109.056C276.567 109.056 277.048 109.149 277.505 109.336C277.963 109.523 278.359 109.784 278.695 110.12L278.037 110.834C277.795 110.563 277.501 110.353 277.155 110.204C276.81 110.055 276.46 109.98 276.105 109.98C275.657 109.98 275.251 110.097 274.887 110.33C274.533 110.563 274.248 110.876 274.033 111.268C273.819 111.66 273.711 112.099 273.711 112.584C273.711 113.069 273.819 113.508 274.033 113.9C274.248 114.292 274.533 114.605 274.887 114.838C275.251 115.071 275.657 115.188 276.105 115.188C276.46 115.188 276.81 115.113 277.155 114.964C277.501 114.805 277.795 114.595 278.037 114.334L278.695 115.048C278.359 115.384 277.963 115.645 277.505 115.832C277.048 116.019 276.567 116.112 276.063 116.112ZM282.861 116.14C282.273 116.14 281.825 116 281.517 115.72C281.218 115.431 281.069 115.015 281.069 114.474V110.008H279.655V109.168H281.069V107.292L282.091 107.054V109.168H284.051V110.008H282.091V114.208C282.091 114.572 282.166 114.833 282.315 114.992C282.474 115.151 282.73 115.23 283.085 115.23C283.262 115.23 283.421 115.216 283.561 115.188C283.701 115.16 283.864 115.113 284.051 115.048V115.958C283.864 116.023 283.668 116.07 283.463 116.098C283.258 116.126 283.057 116.14 282.861 116.14ZM287.799 116.14C287.239 116.14 286.721 116.056 286.245 115.888C285.769 115.711 285.363 115.459 285.027 115.132L285.573 114.46C285.983 114.759 286.361 114.978 286.707 115.118C287.052 115.249 287.407 115.314 287.771 115.314C288.265 115.314 288.676 115.197 289.003 114.964C289.329 114.731 289.493 114.432 289.493 114.068C289.493 113.788 289.395 113.569 289.199 113.41C289.012 113.251 288.699 113.13 288.261 113.046L287.141 112.85C286.478 112.729 285.988 112.523 285.671 112.234C285.363 111.945 285.209 111.553 285.209 111.058C285.209 110.666 285.311 110.321 285.517 110.022C285.731 109.723 286.025 109.49 286.399 109.322C286.772 109.145 287.197 109.056 287.673 109.056C288.139 109.056 288.583 109.126 289.003 109.266C289.423 109.397 289.847 109.611 290.277 109.91L289.773 110.624C289.418 110.372 289.063 110.19 288.709 110.078C288.354 109.957 287.995 109.896 287.631 109.896C287.183 109.896 286.823 109.994 286.553 110.19C286.282 110.386 286.147 110.652 286.147 110.988C286.147 111.268 286.231 111.483 286.399 111.632C286.576 111.781 286.884 111.893 287.323 111.968L288.471 112.178C289.161 112.299 289.665 112.509 289.983 112.808C290.3 113.107 290.459 113.508 290.459 114.012C290.459 114.413 290.342 114.777 290.109 115.104C289.875 115.421 289.558 115.673 289.157 115.86C288.755 116.047 288.303 116.14 287.799 116.14ZM292.578 116.112C292.373 116.112 292.195 116.037 292.046 115.888C291.906 115.739 291.836 115.561 291.836 115.356C291.836 115.141 291.906 114.964 292.046 114.824C292.195 114.675 292.373 114.6 292.578 114.6C292.783 114.6 292.956 114.675 293.096 114.824C293.245 114.964 293.32 115.141 293.32 115.356C293.32 115.561 293.245 115.739 293.096 115.888C292.956 116.037 292.783 116.112 292.578 116.112Z" fill="#4D4D4D"/>
</g>
<path fill-rule="evenodd" clip-rule="evenodd" d="M641.626 328.293C642.65 327.904 643.604 327.347 644.435 326.648C644.846 326.312 644.943 325.719 644.68 325.259L643.963 323.994C644.566 323.287 645.039 322.464 645.354 321.571H646.798C647.323 321.571 647.778 321.182 647.865 320.651C648.049 319.545 648.04 318.431 647.865 317.369C647.778 316.839 647.323 316.458 646.798 316.458H645.354C645.039 315.565 644.566 314.742 643.963 314.035L644.68 312.77C644.943 312.31 644.838 311.717 644.435 311.381C643.604 310.683 642.659 310.125 641.626 309.736C641.127 309.55 640.567 309.745 640.305 310.214L639.587 311.479C638.668 311.311 637.732 311.311 636.813 311.479L636.096 310.214C635.833 309.745 635.273 309.55 634.774 309.736C633.75 310.125 632.797 310.683 631.965 311.381C631.554 311.717 631.458 312.31 631.72 312.77L632.438 314.035C631.834 314.742 631.362 315.565 631.047 316.458H629.603C629.078 316.458 628.623 316.848 628.535 317.378C628.351 318.484 628.36 319.598 628.535 320.66C628.623 321.191 629.078 321.571 629.603 321.571H631.047C631.362 322.464 631.834 323.287 632.438 323.994L631.72 325.259C631.458 325.719 631.563 326.312 631.965 326.648C632.797 327.347 633.742 327.904 634.774 328.293C635.273 328.479 635.833 328.284 636.096 327.816L636.813 326.551C637.732 326.719 638.677 326.719 639.587 326.551L640.305 327.816C640.567 328.284 641.127 328.479 641.626 328.293ZM614.219 351.688C615.216 351.512 615.943 350.627 615.943 349.601V346.629C617.719 346.001 619.347 345.037 620.747 343.825L623.293 345.311C624.177 345.824 625.297 345.63 625.945 344.842C627.362 343.126 628.894 341.163 629.673 339.022C630.023 338.049 629.638 336.961 628.754 336.448L625.805 334.962C626.146 333.105 626.146 331.203 625.805 329.346L628.754 327.86C629.638 327.338 629.979 326.25 629.629 325.286C628.85 323.145 627.362 321.182 625.945 319.466C625.297 318.679 624.168 318.484 623.293 318.997L620.747 320.483C619.347 319.271 617.719 318.316 615.943 317.679V314.707C615.943 313.672 615.199 312.797 614.193 312.62C611.961 312.239 609.695 312.257 607.542 312.628C606.545 312.805 605.827 313.69 605.827 314.707V317.688C604.051 318.316 602.423 319.28 601.023 320.492L598.476 319.006C597.593 318.493 596.472 318.687 595.825 319.475C594.407 321.191 592.911 323.154 592.132 325.295C591.773 326.259 592.167 327.347 593.051 327.86L595.965 329.355C595.624 331.212 595.624 333.114 595.965 334.962L593.051 336.448C592.167 336.97 591.782 338.058 592.132 339.022C592.911 341.154 594.407 343.118 595.825 344.834C596.472 345.621 597.601 345.815 598.476 345.302L601.023 343.825C602.423 345.037 604.051 345.992 605.827 346.629V349.601C605.827 350.636 606.571 351.512 607.577 351.688C609.809 352.078 612.066 352.06 614.219 351.688ZM635.894 321.35C633.304 317.944 637.146 314.053 640.515 316.68C643.105 320.085 639.263 323.968 635.894 321.35ZM606.264 327.479C613.003 322.243 620.694 330.018 615.514 336.829C608.776 342.065 601.084 334.29 606.264 327.479ZM636.096 354.254L636.813 352.989C637.732 353.157 638.677 353.157 639.587 352.989L640.305 354.254C640.567 354.722 641.127 354.917 641.626 354.731C642.65 354.342 643.604 353.785 644.435 353.086C644.846 352.75 644.943 352.157 644.68 351.697L643.963 350.432C644.566 349.725 645.039 348.902 645.354 348.009H646.798C647.323 348.009 647.778 347.62 647.865 347.089C648.049 345.983 648.04 344.869 647.865 343.807C647.778 343.277 647.323 342.896 646.798 342.896H645.354C645.039 342.003 644.566 341.181 643.963 340.473L644.68 339.208C644.943 338.748 644.838 338.155 644.435 337.819C643.604 337.121 642.659 336.563 641.626 336.174C641.127 335.988 640.567 336.183 640.305 336.652L639.587 337.917C638.668 337.749 637.732 337.749 636.813 337.917L636.096 336.652C635.833 336.183 635.273 335.988 634.774 336.174C633.75 336.563 632.797 337.121 631.965 337.819C631.554 338.155 631.458 338.748 631.72 339.208L632.438 340.473C631.834 341.181 631.362 342.003 631.047 342.896H629.603C629.078 342.896 628.623 343.286 628.535 343.816C628.351 344.922 628.36 346.036 628.535 347.098C628.623 347.629 629.078 348.009 629.603 348.009H631.047C631.362 348.902 631.834 349.725 632.438 350.432L631.72 351.697C631.458 352.157 631.563 352.75 631.965 353.086C632.797 353.785 633.742 354.342 634.774 354.731C635.273 354.917 635.833 354.722 636.096 354.254ZM635.894 347.779C633.304 344.374 637.146 340.491 640.515 343.109C643.105 346.514 639.263 350.397 635.894 347.779Z" fill="#1F1F1F"/>
<path d="M513.219 405.22C512.179 405.22 511.212 405.04 510.319 404.68C509.439 404.307 508.659 403.793 507.979 403.14C507.312 402.473 506.792 401.707 506.419 400.84C506.059 399.96 505.879 399.013 505.879 398C505.879 396.987 506.059 396.047 506.419 395.18C506.792 394.3 507.312 393.533 507.979 392.88C508.659 392.213 509.445 391.7 510.339 391.34C511.232 390.967 512.192 390.78 513.219 390.78C513.952 390.78 514.665 390.88 515.359 391.08C516.065 391.267 516.712 391.54 517.299 391.9C517.899 392.26 518.419 392.693 518.859 393.2L517.459 394.64C516.939 394.013 516.305 393.54 515.559 393.22C514.812 392.887 514.032 392.72 513.219 392.72C512.232 392.72 511.345 392.953 510.559 393.42C509.772 393.887 509.152 394.52 508.699 395.32C508.245 396.107 508.019 397 508.019 398C508.019 399 508.245 399.9 508.699 400.7C509.165 401.487 509.799 402.113 510.599 402.58C511.399 403.047 512.292 403.28 513.279 403.28C514.092 403.28 514.859 403.12 515.579 402.8C516.312 402.467 516.932 402 517.439 401.4L518.819 402.8C518.352 403.293 517.819 403.727 517.219 404.1C516.632 404.46 515.992 404.74 515.299 404.94C514.619 405.127 513.925 405.22 513.219 405.22ZM525.18 405.2C524.193 405.2 523.293 404.967 522.48 404.5C521.68 404.033 521.047 403.4 520.58 402.6C520.113 401.8 519.88 400.907 519.88 399.92C519.88 398.933 520.113 398.04 520.58 397.24C521.047 396.44 521.68 395.807 522.48 395.34C523.293 394.86 524.193 394.62 525.18 394.62C526.18 394.62 527.08 394.86 527.88 395.34C528.68 395.807 529.313 396.44 529.78 397.24C530.247 398.04 530.48 398.933 530.48 399.92C530.48 400.907 530.247 401.8 529.78 402.6C529.313 403.4 528.68 404.033 527.88 404.5C527.08 404.967 526.18 405.2 525.18 405.2ZM525.18 403.44C525.807 403.44 526.367 403.287 526.86 402.98C527.367 402.66 527.767 402.233 528.06 401.7C528.367 401.167 528.52 400.573 528.52 399.92C528.52 399.253 528.373 398.66 528.08 398.14C527.787 397.607 527.387 397.18 526.88 396.86C526.373 396.54 525.807 396.38 525.18 396.38C524.553 396.38 523.987 396.54 523.48 396.86C522.973 397.18 522.573 397.607 522.28 398.14C521.987 398.66 521.84 399.253 521.84 399.92C521.84 400.573 521.987 401.167 522.28 401.7C522.573 402.233 522.973 402.66 523.48 402.98C523.987 403.287 524.553 403.44 525.18 403.44ZM532.371 405V394.82H534.371V395.86C535.158 395.033 536.178 394.62 537.431 394.62C538.218 394.62 538.905 394.787 539.491 395.12C540.091 395.453 540.558 395.92 540.891 396.52C541.238 397.12 541.411 397.813 541.411 398.6V405H539.411V398.94C539.411 398.14 539.185 397.513 538.731 397.06C538.278 396.593 537.658 396.36 536.871 396.36C536.338 396.36 535.858 396.473 535.431 396.7C535.005 396.927 534.651 397.253 534.371 397.68V405H532.371ZM544.946 405V396.5H542.586V394.82H544.946V393.28C544.946 392.213 545.239 391.4 545.826 390.84C546.426 390.28 547.279 390 548.386 390C548.666 390 548.926 390.02 549.166 390.06C549.419 390.087 549.646 390.133 549.846 390.2V391.92C549.606 391.853 549.393 391.807 549.206 391.78C549.019 391.74 548.813 391.72 548.586 391.72C547.479 391.72 546.926 392.26 546.926 393.34V394.82H549.846V396.5H546.926V405H544.946ZM551.375 405V394.82H553.375V405H551.375ZM552.375 393.18C552.042 393.18 551.755 393.06 551.515 392.82C551.275 392.567 551.155 392.273 551.155 391.94C551.155 391.593 551.275 391.307 551.515 391.08C551.755 390.84 552.042 390.72 552.375 390.72C552.722 390.72 553.015 390.84 553.255 391.08C553.495 391.307 553.615 391.593 553.615 391.94C553.615 392.273 553.495 392.567 553.255 392.82C553.015 393.06 552.722 393.18 552.375 393.18ZM560.771 409.28C560.024 409.28 559.297 409.193 558.591 409.02C557.897 408.847 557.257 408.6 556.671 408.28L557.431 406.72C558.577 407.307 559.671 407.6 560.711 407.6C562.524 407.6 563.431 406.787 563.431 405.16V404C562.537 404.707 561.517 405.06 560.371 405.06C559.437 405.06 558.577 404.833 557.791 404.38C557.017 403.913 556.404 403.287 555.951 402.5C555.497 401.7 555.271 400.82 555.271 399.86C555.271 398.887 555.497 398.007 555.951 397.22C556.417 396.42 557.037 395.793 557.811 395.34C558.597 394.873 559.477 394.64 560.451 394.64C561.557 394.64 562.557 394.987 563.451 395.68V394.82H565.431V405.16C565.431 406.48 565.024 407.493 564.211 408.2C563.411 408.92 562.264 409.28 560.771 409.28ZM560.631 403.34C561.831 403.34 562.764 402.94 563.431 402.14V397.58C563.111 397.207 562.704 396.913 562.211 396.7C561.731 396.487 561.204 396.38 560.631 396.38C559.991 396.38 559.411 396.533 558.891 396.84C558.384 397.147 557.977 397.567 557.671 398.1C557.377 398.62 557.231 399.207 557.231 399.86C557.231 400.513 557.377 401.107 557.671 401.64C557.977 402.16 558.391 402.573 558.911 402.88C559.431 403.187 560.004 403.34 560.631 403.34ZM571.722 405.2C570.935 405.2 570.242 405.033 569.642 404.7C569.042 404.367 568.575 403.9 568.242 403.3C567.908 402.7 567.742 402 567.742 401.2V394.82H569.722V400.86C569.722 401.66 569.948 402.293 570.402 402.76C570.868 403.227 571.488 403.46 572.262 403.46C573.355 403.46 574.188 403.013 574.762 402.12V394.82H576.762V405H574.762V403.96C573.975 404.787 572.962 405.2 571.722 405.2ZM579.129 405V394.82H581.129V396.12C581.449 395.64 581.843 395.267 582.309 395C582.789 394.72 583.329 394.58 583.929 394.58C584.343 394.593 584.683 394.653 584.949 394.76V396.56C584.563 396.413 584.169 396.34 583.769 396.34C583.183 396.34 582.663 396.5 582.209 396.82C581.756 397.127 581.396 397.58 581.129 398.18V405H579.129ZM589.361 405.18C588.628 405.18 587.981 405.053 587.421 404.8C586.861 404.533 586.421 404.167 586.101 403.7C585.781 403.233 585.621 402.693 585.621 402.08C585.621 401.12 585.988 400.367 586.721 399.82C587.454 399.26 588.461 398.98 589.741 398.98C590.741 398.98 591.668 399.173 592.521 399.56V398.48C592.521 397.027 591.694 396.3 590.041 396.3C589.574 396.3 589.088 396.373 588.581 396.52C588.074 396.653 587.508 396.867 586.881 397.16L586.141 395.66C586.914 395.3 587.634 395.04 588.301 394.88C588.968 394.707 589.641 394.62 590.321 394.62C591.641 394.62 592.661 394.933 593.381 395.56C594.114 396.187 594.481 397.08 594.481 398.24V405H592.521V404.12C592.068 404.48 591.581 404.747 591.061 404.92C590.541 405.093 589.974 405.18 589.361 405.18ZM587.541 402.04C587.541 402.533 587.748 402.933 588.161 403.24C588.588 403.547 589.141 403.7 589.821 403.7C590.914 403.7 591.814 403.373 592.521 402.72V401C591.788 400.573 590.914 400.36 589.901 400.36C589.168 400.36 588.588 400.513 588.161 400.82C587.748 401.113 587.541 401.52 587.541 402.04ZM600.853 405.18C599.866 405.18 599.113 404.953 598.593 404.5C598.073 404.033 597.812 403.36 597.812 402.48V396.5H595.653V394.82H597.812V392.22L599.793 391.74V394.82H602.793V396.5H599.793V402.02C599.793 402.54 599.906 402.913 600.133 403.14C600.373 403.353 600.759 403.46 601.293 403.46C601.573 403.46 601.819 403.44 602.033 403.4C602.259 403.36 602.499 403.3 602.753 403.22V404.9C602.486 404.993 602.173 405.06 601.813 405.1C601.466 405.153 601.146 405.18 600.853 405.18ZM604.266 405V394.82H606.266V405H604.266ZM605.266 393.18C604.933 393.18 604.646 393.06 604.406 392.82C604.166 392.567 604.046 392.273 604.046 391.94C604.046 391.593 604.166 391.307 604.406 391.08C604.646 390.84 604.933 390.72 605.266 390.72C605.613 390.72 605.906 390.84 606.146 391.08C606.386 391.307 606.506 391.593 606.506 391.94C606.506 392.273 606.386 392.567 606.146 392.82C605.906 393.06 605.613 393.18 605.266 393.18ZM613.461 405.2C612.475 405.2 611.575 404.967 610.761 404.5C609.961 404.033 609.328 403.4 608.861 402.6C608.395 401.8 608.161 400.907 608.161 399.92C608.161 398.933 608.395 398.04 608.861 397.24C609.328 396.44 609.961 395.807 610.761 395.34C611.575 394.86 612.475 394.62 613.461 394.62C614.461 394.62 615.361 394.86 616.161 395.34C616.961 395.807 617.595 396.44 618.061 397.24C618.528 398.04 618.761 398.933 618.761 399.92C618.761 400.907 618.528 401.8 618.061 402.6C617.595 403.4 616.961 404.033 616.161 404.5C615.361 404.967 614.461 405.2 613.461 405.2ZM613.461 403.44C614.088 403.44 614.648 403.287 615.141 402.98C615.648 402.66 616.048 402.233 616.341 401.7C616.648 401.167 616.801 400.573 616.801 399.92C616.801 399.253 616.655 398.66 616.361 398.14C616.068 397.607 615.668 397.18 615.161 396.86C614.655 396.54 614.088 396.38 613.461 396.38C612.835 396.38 612.268 396.54 611.761 396.86C611.255 397.18 610.855 397.607 610.561 398.14C610.268 398.66 610.121 399.253 610.121 399.92C610.121 400.573 610.268 401.167 610.561 401.7C610.855 402.233 611.255 402.66 611.761 402.98C612.268 403.287 612.835 403.44 613.461 403.44ZM620.653 405V394.82H622.653V395.86C623.439 395.033 624.459 394.62 625.713 394.62C626.499 394.62 627.186 394.787 627.773 395.12C628.373 395.453 628.839 395.92 629.173 396.52C629.519 397.12 629.693 397.813 629.693 398.6V405H627.693V398.94C627.693 398.14 627.466 397.513 627.013 397.06C626.559 396.593 625.939 396.36 625.153 396.36C624.619 396.36 624.139 396.473 623.713 396.7C623.286 396.927 622.933 397.253 622.653 397.68V405H620.653ZM636.18 405V394.82H638.18V405H636.18ZM637.18 393.18C636.847 393.18 636.56 393.06 636.32 392.82C636.08 392.567 635.96 392.273 635.96 391.94C635.96 391.593 636.08 391.307 636.32 391.08C636.56 390.84 636.847 390.72 637.18 390.72C637.527 390.72 637.82 390.84 638.06 391.08C638.3 391.307 638.42 391.593 638.42 391.94C638.42 392.273 638.3 392.567 638.06 392.82C637.82 393.06 637.527 393.18 637.18 393.18ZM640.535 405V394.82H642.535V395.86C643.322 395.033 644.342 394.62 645.595 394.62C646.382 394.62 647.069 394.787 647.655 395.12C648.255 395.453 648.722 395.92 649.055 396.52C649.402 397.12 649.575 397.813 649.575 398.6V405H647.575V398.94C647.575 398.14 647.349 397.513 646.895 397.06C646.442 396.593 645.822 396.36 645.035 396.36C644.502 396.36 644.022 396.473 643.595 396.7C643.169 396.927 642.815 397.253 642.535 397.68V405H640.535ZM656.063 409.08V394.82H658.043V395.8C658.896 395.04 659.936 394.66 661.163 394.66C662.123 394.66 662.989 394.893 663.763 395.36C664.549 395.827 665.169 396.453 665.623 397.24C666.076 398.027 666.303 398.913 666.303 399.9C666.303 400.887 666.069 401.78 665.603 402.58C665.149 403.367 664.529 403.993 663.743 404.46C662.969 404.927 662.096 405.16 661.123 405.16C660.563 405.16 660.023 405.073 659.503 404.9C658.983 404.713 658.503 404.453 658.063 404.12V409.08H656.063ZM660.903 403.42C661.556 403.42 662.136 403.267 662.643 402.96C663.163 402.653 663.576 402.24 663.883 401.72C664.189 401.187 664.343 400.587 664.343 399.92C664.343 399.253 664.189 398.653 663.883 398.12C663.576 397.587 663.163 397.167 662.643 396.86C662.136 396.553 661.556 396.4 660.903 396.4C660.329 396.4 659.796 396.507 659.303 396.72C658.809 396.933 658.396 397.233 658.063 397.62V402.22C658.396 402.593 658.809 402.887 659.303 403.1C659.809 403.313 660.343 403.42 660.903 403.42ZM668.211 405V394.82H670.211V396.12C670.531 395.64 670.925 395.267 671.391 395C671.871 394.72 672.411 394.58 673.011 394.58C673.425 394.593 673.765 394.653 674.031 394.76V396.56C673.645 396.413 673.251 396.34 672.851 396.34C672.265 396.34 671.745 396.5 671.291 396.82C670.838 397.127 670.478 397.58 670.211 398.18V405H668.211ZM679.887 405.2C678.901 405.2 678.001 404.967 677.187 404.5C676.387 404.033 675.754 403.4 675.287 402.6C674.821 401.8 674.587 400.907 674.587 399.92C674.587 398.933 674.821 398.04 675.287 397.24C675.754 396.44 676.387 395.807 677.187 395.34C678.001 394.86 678.901 394.62 679.887 394.62C680.887 394.62 681.787 394.86 682.587 395.34C683.387 395.807 684.021 396.44 684.487 397.24C684.954 398.04 685.187 398.933 685.187 399.92C685.187 400.907 684.954 401.8 684.487 402.6C684.021 403.4 683.387 404.033 682.587 404.5C681.787 404.967 680.887 405.2 679.887 405.2ZM679.887 403.44C680.514 403.44 681.074 403.287 681.567 402.98C682.074 402.66 682.474 402.233 682.767 401.7C683.074 401.167 683.227 400.573 683.227 399.92C683.227 399.253 683.081 398.66 682.787 398.14C682.494 397.607 682.094 397.18 681.587 396.86C681.081 396.54 680.514 396.38 679.887 396.38C679.261 396.38 678.694 396.54 678.187 396.86C677.681 397.18 677.281 397.607 676.987 398.14C676.694 398.66 676.547 399.253 676.547 399.92C676.547 400.573 676.694 401.167 676.987 401.7C677.281 402.233 677.681 402.66 678.187 402.98C678.694 403.287 679.261 403.44 679.887 403.44ZM692.118 409.28C691.372 409.28 690.645 409.193 689.938 409.02C689.245 408.847 688.605 408.6 688.018 408.28L688.778 406.72C689.925 407.307 691.018 407.6 692.058 407.6C693.872 407.6 694.778 406.787 694.778 405.16V404C693.885 404.707 692.865 405.06 691.718 405.06C690.785 405.06 689.925 404.833 689.138 404.38C688.365 403.913 687.752 403.287 687.298 402.5C686.845 401.7 686.618 400.82 686.618 399.86C686.618 398.887 686.845 398.007 687.298 397.22C687.765 396.42 688.385 395.793 689.158 395.34C689.945 394.873 690.825 394.64 691.798 394.64C692.905 394.64 693.905 394.987 694.798 395.68V394.82H696.778V405.16C696.778 406.48 696.372 407.493 695.558 408.2C694.758 408.92 693.612 409.28 692.118 409.28ZM691.978 403.34C693.178 403.34 694.112 402.94 694.778 402.14V397.58C694.458 397.207 694.052 396.913 693.558 396.7C693.078 396.487 692.552 396.38 691.978 396.38C691.338 396.38 690.758 396.533 690.238 396.84C689.732 397.147 689.325 397.567 689.018 398.1C688.725 398.62 688.578 399.207 688.578 399.86C688.578 400.513 688.725 401.107 689.018 401.64C689.325 402.16 689.738 402.573 690.258 402.88C690.778 403.187 691.352 403.34 691.978 403.34ZM699.129 405V394.82H701.129V396.12C701.449 395.64 701.843 395.267 702.309 395C702.789 394.72 703.329 394.58 703.929 394.58C704.343 394.593 704.683 394.653 704.949 394.76V396.56C704.563 396.413 704.169 396.34 703.769 396.34C703.183 396.34 702.663 396.5 702.209 396.82C701.756 397.127 701.396 397.58 701.129 398.18V405H699.129ZM710.845 405.18C709.845 405.18 708.938 404.947 708.125 404.48C707.325 404.013 706.685 403.38 706.205 402.58C705.738 401.78 705.505 400.887 705.505 399.9C705.505 398.927 705.732 398.047 706.185 397.26C706.638 396.46 707.252 395.827 708.025 395.36C708.798 394.88 709.658 394.64 710.605 394.64C711.552 394.64 712.392 394.88 713.125 395.36C713.858 395.827 714.438 396.467 714.865 397.28C715.305 398.08 715.525 398.987 715.525 400V400.56H707.505C707.612 401.12 707.818 401.62 708.125 402.06C708.445 402.5 708.845 402.847 709.325 403.1C709.818 403.353 710.352 403.48 710.925 403.48C711.418 403.48 711.892 403.407 712.345 403.26C712.812 403.1 713.198 402.873 713.505 402.58L714.785 403.84C714.185 404.293 713.565 404.633 712.925 404.86C712.298 405.073 711.605 405.18 710.845 405.18ZM707.525 399.06H713.545C713.465 398.527 713.278 398.06 712.985 397.66C712.705 397.247 712.352 396.927 711.925 396.7C711.512 396.46 711.058 396.34 710.565 396.34C709.792 396.34 709.125 396.593 708.565 397.1C708.018 397.593 707.672 398.247 707.525 399.06ZM721.028 405.2C720.148 405.2 719.321 405.073 718.548 404.82C717.788 404.553 717.128 404.18 716.568 403.7L717.668 402.38C718.188 402.793 718.721 403.113 719.268 403.34C719.828 403.553 720.394 403.66 720.968 403.66C721.688 403.66 722.274 403.52 722.728 403.24C723.181 402.96 723.408 402.593 723.408 402.14C723.408 401.42 722.861 400.98 721.768 400.82L719.928 400.56C718.914 400.413 718.154 400.1 717.648 399.62C717.141 399.14 716.888 398.5 716.888 397.7C716.888 397.087 717.054 396.553 717.388 396.1C717.721 395.633 718.188 395.273 718.788 395.02C719.388 394.753 720.088 394.62 720.888 394.62C721.621 394.62 722.328 394.727 723.008 394.94C723.688 395.153 724.341 395.487 724.968 395.94L723.948 397.26C722.841 396.54 721.768 396.18 720.728 396.18C720.114 396.18 719.621 396.313 719.248 396.58C718.874 396.833 718.688 397.167 718.688 397.58C718.688 397.953 718.814 398.247 719.068 398.46C719.334 398.66 719.768 398.8 720.368 398.88L722.208 399.14C723.221 399.287 723.988 399.6 724.508 400.08C725.028 400.547 725.288 401.18 725.288 401.98C725.288 402.593 725.101 403.147 724.728 403.64C724.354 404.12 723.848 404.5 723.208 404.78C722.568 405.06 721.841 405.2 721.028 405.2ZM730.325 405.2C729.445 405.2 728.618 405.073 727.845 404.82C727.085 404.553 726.425 404.18 725.865 403.7L726.965 402.38C727.485 402.793 728.018 403.113 728.565 403.34C729.125 403.553 729.691 403.66 730.265 403.66C730.985 403.66 731.571 403.52 732.025 403.24C732.478 402.96 732.705 402.593 732.705 402.14C732.705 401.42 732.158 400.98 731.065 400.82L729.225 400.56C728.211 400.413 727.451 400.1 726.945 399.62C726.438 399.14 726.185 398.5 726.185 397.7C726.185 397.087 726.351 396.553 726.685 396.1C727.018 395.633 727.485 395.273 728.085 395.02C728.685 394.753 729.385 394.62 730.185 394.62C730.918 394.62 731.625 394.727 732.305 394.94C732.985 395.153 733.638 395.487 734.265 395.94L733.245 397.26C732.138 396.54 731.065 396.18 730.025 396.18C729.411 396.18 728.918 396.313 728.545 396.58C728.171 396.833 727.985 397.167 727.985 397.58C727.985 397.953 728.111 398.247 728.365 398.46C728.631 398.66 729.065 398.8 729.665 398.88L731.505 399.14C732.518 399.287 733.285 399.6 733.805 400.08C734.325 400.547 734.585 401.18 734.585 401.98C734.585 402.593 734.398 403.147 734.025 403.64C733.651 404.12 733.145 404.5 732.505 404.78C731.865 405.06 731.138 405.2 730.325 405.2Z" fill="#151515"/>
<path d="M401.927 445V440.424L397.575 433.8H399.015L402.583 439.352L406.167 433.8H407.527L403.159 440.456V445H401.927ZM410.711 445.128C409.985 445.128 409.335 444.952 408.759 444.6C408.183 444.248 407.729 443.768 407.399 443.16C407.068 442.552 406.903 441.864 406.903 441.096C406.903 440.328 407.068 439.64 407.399 439.032C407.729 438.424 408.183 437.944 408.759 437.592C409.335 437.24 409.985 437.064 410.711 437.064C411.425 437.064 412.065 437.24 412.631 437.592C413.207 437.944 413.66 438.424 413.991 439.032C414.321 439.64 414.487 440.328 414.487 441.096C414.487 441.864 414.321 442.552 413.991 443.16C413.66 443.768 413.207 444.248 412.631 444.6C412.065 444.952 411.425 445.128 410.711 445.128ZM410.695 444.104C411.207 444.104 411.66 443.976 412.055 443.72C412.449 443.453 412.759 443.091 412.983 442.632C413.217 442.173 413.335 441.661 413.335 441.096C413.335 440.52 413.217 440.008 412.983 439.56C412.759 439.101 412.449 438.744 412.055 438.488C411.66 438.221 411.207 438.088 410.695 438.088C410.183 438.088 409.729 438.221 409.335 438.488C408.94 438.744 408.625 439.101 408.391 439.56C408.167 440.008 408.055 440.52 408.055 441.096C408.055 441.661 408.167 442.173 408.391 442.632C408.625 443.091 408.94 443.453 409.335 443.72C409.729 443.976 410.183 444.104 410.695 444.104ZM419.32 445.128C418.765 445.128 418.275 445.005 417.848 444.76C417.421 444.515 417.085 444.173 416.84 443.736C416.605 443.299 416.488 442.797 416.488 442.232V437.192H417.672V441.896C417.672 442.589 417.859 443.139 418.232 443.544C418.605 443.949 419.112 444.152 419.752 444.152C420.189 444.152 420.579 444.051 420.92 443.848C421.272 443.645 421.565 443.352 421.8 442.968V437.192H422.968V445H421.8V443.736C421.501 444.195 421.144 444.541 420.728 444.776C420.323 445.011 419.853 445.128 419.32 445.128ZM425.364 445V437.192H426.532V438.792C426.735 438.248 427.023 437.827 427.396 437.528C427.78 437.219 428.217 437.064 428.708 437.064C428.847 437.064 428.975 437.075 429.092 437.096C429.209 437.107 429.327 437.133 429.444 437.176V438.232C429.316 438.189 429.177 438.157 429.028 438.136C428.889 438.104 428.756 438.088 428.628 438.088C428.148 438.088 427.727 438.227 427.364 438.504C427.012 438.781 426.735 439.171 426.532 439.672V445H425.364ZM434.723 448.344V437.192H435.875V438.312C436.174 437.917 436.537 437.619 436.963 437.416C437.401 437.203 437.881 437.096 438.403 437.096C439.086 437.096 439.694 437.277 440.227 437.64C440.771 437.992 441.203 438.472 441.523 439.08C441.843 439.677 442.003 440.349 442.003 441.096C442.003 441.843 441.838 442.52 441.507 443.128C441.187 443.736 440.75 444.221 440.195 444.584C439.651 444.936 439.033 445.112 438.339 445.112C437.849 445.112 437.395 445.021 436.979 444.84C436.563 444.648 436.201 444.376 435.891 444.024V448.344H434.723ZM438.115 444.104C438.638 444.104 439.102 443.976 439.507 443.72C439.923 443.453 440.249 443.096 440.483 442.648C440.729 442.189 440.851 441.677 440.851 441.112C440.851 440.536 440.729 440.024 440.483 439.576C440.249 439.128 439.923 438.776 439.507 438.52C439.102 438.253 438.638 438.12 438.115 438.12C437.657 438.12 437.23 438.216 436.835 438.408C436.451 438.589 436.137 438.851 435.891 439.192V443.016C436.147 443.357 436.467 443.624 436.851 443.816C437.246 444.008 437.667 444.104 438.115 444.104ZM444.052 445V437.192H445.22V438.792C445.422 438.248 445.71 437.827 446.084 437.528C446.468 437.219 446.905 437.064 447.396 437.064C447.534 437.064 447.662 437.075 447.78 437.096C447.897 437.107 448.014 437.133 448.132 437.176V438.232C448.004 438.189 447.865 438.157 447.716 438.136C447.577 438.104 447.444 438.088 447.316 438.088C446.836 438.088 446.414 438.227 446.052 438.504C445.7 438.781 445.422 439.171 445.22 439.672V445H444.052ZM452.648 445.128C451.923 445.128 451.272 444.952 450.696 444.6C450.12 444.248 449.667 443.768 449.336 443.16C449.006 442.552 448.84 441.864 448.84 441.096C448.84 440.328 449.006 439.64 449.336 439.032C449.667 438.424 450.12 437.944 450.696 437.592C451.272 437.24 451.923 437.064 452.648 437.064C453.363 437.064 454.003 437.24 454.568 437.592C455.144 437.944 455.598 438.424 455.928 439.032C456.259 439.64 456.424 440.328 456.424 441.096C456.424 441.864 456.259 442.552 455.928 443.16C455.598 443.768 455.144 444.248 454.568 444.6C454.003 444.952 453.363 445.128 452.648 445.128ZM452.632 444.104C453.144 444.104 453.598 443.976 453.992 443.72C454.387 443.453 454.696 443.091 454.92 442.632C455.155 442.173 455.272 441.661 455.272 441.096C455.272 440.52 455.155 440.008 454.92 439.56C454.696 439.101 454.387 438.744 453.992 438.488C453.598 438.221 453.144 438.088 452.632 438.088C452.12 438.088 451.667 438.221 451.272 438.488C450.878 438.744 450.563 439.101 450.328 439.56C450.104 440.008 449.992 440.52 449.992 441.096C449.992 441.661 450.104 442.173 450.328 442.632C450.563 443.091 450.878 443.453 451.272 443.72C451.667 443.976 452.12 444.104 452.632 444.104ZM459.065 435.256C458.831 435.256 458.628 435.176 458.457 435.016C458.297 434.845 458.217 434.648 458.217 434.424C458.217 434.2 458.297 434.008 458.457 433.848C458.628 433.677 458.831 433.592 459.065 433.592C459.3 433.592 459.497 433.677 459.657 433.848C459.828 434.008 459.913 434.2 459.913 434.424C459.913 434.648 459.828 434.845 459.657 435.016C459.497 435.176 459.3 435.256 459.065 435.256ZM457.673 448.504C457.545 448.504 457.417 448.488 457.289 448.456C457.172 448.435 457.06 448.419 456.953 448.408V447.4C457.049 447.421 457.145 447.437 457.241 447.448C457.327 447.459 457.423 447.464 457.529 447.464C457.871 447.464 458.111 447.384 458.249 447.224C458.399 447.064 458.473 446.803 458.473 446.44V437.192H459.641V446.504C459.641 447.133 459.471 447.624 459.129 447.976C458.799 448.328 458.313 448.504 457.673 448.504ZM465.556 445.16C464.831 445.16 464.175 444.984 463.588 444.632C463.001 444.269 462.537 443.784 462.196 443.176C461.855 442.557 461.684 441.864 461.684 441.096C461.684 440.328 461.844 439.64 462.164 439.032C462.495 438.424 462.937 437.944 463.492 437.592C464.047 437.24 464.665 437.064 465.348 437.064C466.041 437.064 466.655 437.24 467.188 437.592C467.732 437.933 468.159 438.403 468.468 439C468.788 439.587 468.948 440.253 468.948 441V441.352H462.82C462.863 441.885 463.007 442.365 463.252 442.792C463.508 443.208 463.839 443.539 464.244 443.784C464.66 444.019 465.113 444.136 465.604 444.136C466.009 444.136 466.399 444.067 466.772 443.928C467.156 443.779 467.481 443.581 467.748 443.336L468.484 444.12C468.036 444.472 467.572 444.733 467.092 444.904C466.612 445.075 466.1 445.16 465.556 445.16ZM462.852 440.52H467.796C467.743 440.051 467.599 439.635 467.364 439.272C467.14 438.899 466.852 438.605 466.5 438.392C466.159 438.179 465.775 438.072 465.348 438.072C464.921 438.072 464.532 438.179 464.18 438.392C463.828 438.595 463.535 438.883 463.3 439.256C463.076 439.619 462.927 440.04 462.852 440.52ZM474.446 445.128C473.721 445.128 473.065 444.952 472.478 444.6C471.902 444.237 471.444 443.752 471.102 443.144C470.761 442.525 470.59 441.843 470.59 441.096C470.59 440.339 470.761 439.656 471.102 439.048C471.444 438.44 471.902 437.96 472.478 437.608C473.065 437.245 473.721 437.064 474.446 437.064C475.022 437.064 475.572 437.171 476.094 437.384C476.617 437.597 477.07 437.896 477.454 438.28L476.702 439.096C476.425 438.787 476.089 438.547 475.694 438.376C475.3 438.205 474.9 438.12 474.494 438.12C473.982 438.12 473.518 438.253 473.102 438.52C472.697 438.787 472.372 439.144 472.126 439.592C471.881 440.04 471.758 440.541 471.758 441.096C471.758 441.651 471.881 442.152 472.126 442.6C472.372 443.048 472.697 443.405 473.102 443.672C473.518 443.939 473.982 444.072 474.494 444.072C474.9 444.072 475.3 443.987 475.694 443.816C476.089 443.635 476.425 443.395 476.702 443.096L477.454 443.912C477.07 444.296 476.617 444.595 476.094 444.808C475.572 445.021 475.022 445.128 474.446 445.128ZM482.215 445.16C481.543 445.16 481.031 445 480.679 444.68C480.338 444.349 480.167 443.875 480.167 443.256V438.152H478.551V437.192H480.167V435.048L481.335 434.776V437.192H483.575V438.152H481.335V442.952C481.335 443.368 481.42 443.667 481.591 443.848C481.772 444.029 482.066 444.12 482.471 444.12C482.674 444.12 482.855 444.104 483.015 444.072C483.175 444.04 483.362 443.987 483.575 443.912V444.952C483.362 445.027 483.138 445.08 482.903 445.112C482.668 445.144 482.439 445.16 482.215 445.16ZM489.004 445V437.192H490.172V445H489.004ZM489.596 435.256C489.362 435.256 489.159 435.176 488.988 435.016C488.828 434.845 488.748 434.648 488.748 434.424C488.748 434.2 488.828 434.008 488.988 433.848C489.159 433.677 489.362 433.592 489.596 433.592C489.831 433.592 490.028 433.677 490.188 433.848C490.359 434.008 490.444 434.2 490.444 434.424C490.444 434.648 490.359 434.845 490.188 435.016C490.028 435.176 489.831 435.256 489.596 435.256ZM494.983 445.16C494.343 445.16 493.751 445.064 493.207 444.872C492.663 444.669 492.199 444.381 491.815 444.008L492.439 443.24C492.909 443.581 493.341 443.832 493.735 443.992C494.13 444.141 494.535 444.216 494.951 444.216C495.517 444.216 495.986 444.083 496.359 443.816C496.733 443.549 496.919 443.208 496.919 442.792C496.919 442.472 496.807 442.221 496.583 442.04C496.37 441.859 496.013 441.72 495.511 441.624L494.231 441.4C493.474 441.261 492.914 441.027 492.551 440.696C492.199 440.365 492.023 439.917 492.023 439.352C492.023 438.904 492.141 438.509 492.375 438.168C492.621 437.827 492.957 437.56 493.383 437.368C493.81 437.165 494.295 437.064 494.839 437.064C495.373 437.064 495.879 437.144 496.359 437.304C496.839 437.453 497.325 437.699 497.815 438.04L497.239 438.856C496.834 438.568 496.429 438.36 496.023 438.232C495.618 438.093 495.207 438.024 494.791 438.024C494.279 438.024 493.869 438.136 493.559 438.36C493.25 438.584 493.095 438.888 493.095 439.272C493.095 439.592 493.191 439.837 493.383 440.008C493.586 440.179 493.938 440.307 494.439 440.392L495.751 440.632C496.541 440.771 497.117 441.011 497.479 441.352C497.842 441.693 498.023 442.152 498.023 442.728C498.023 443.187 497.89 443.603 497.623 443.976C497.357 444.339 496.994 444.627 496.535 444.84C496.077 445.053 495.559 445.16 494.983 445.16ZM503.536 445V433.56L504.704 433.32V438.264C505.003 437.891 505.365 437.603 505.792 437.4C506.219 437.197 506.693 437.096 507.216 437.096C507.899 437.096 508.507 437.277 509.04 437.64C509.584 437.992 510.016 438.472 510.336 439.08C510.656 439.677 510.816 440.349 510.816 441.096C510.816 441.843 510.651 442.52 510.32 443.128C510 443.736 509.563 444.221 509.008 444.584C508.464 444.936 507.845 445.112 507.152 445.112C506.661 445.112 506.203 445.016 505.776 444.824C505.36 444.621 504.997 444.339 504.688 443.976V445H503.536ZM506.928 444.104C507.451 444.104 507.915 443.976 508.32 443.72C508.736 443.453 509.061 443.096 509.296 442.648C509.541 442.189 509.664 441.677 509.664 441.112C509.664 440.536 509.541 440.024 509.296 439.576C509.061 439.128 508.736 438.776 508.32 438.52C507.915 438.253 507.451 438.12 506.928 438.12C506.469 438.12 506.043 438.216 505.648 438.408C505.264 438.589 504.949 438.851 504.704 439.192V443.016C504.96 443.357 505.28 443.624 505.664 443.816C506.059 444.008 506.48 444.104 506.928 444.104ZM516.384 445.16C515.659 445.16 515.003 444.984 514.416 444.632C513.829 444.269 513.365 443.784 513.024 443.176C512.683 442.557 512.512 441.864 512.512 441.096C512.512 440.328 512.672 439.64 512.992 439.032C513.323 438.424 513.765 437.944 514.32 437.592C514.875 437.24 515.493 437.064 516.176 437.064C516.869 437.064 517.483 437.24 518.016 437.592C518.56 437.933 518.987 438.403 519.296 439C519.616 439.587 519.776 440.253 519.776 441V441.352H513.648C513.691 441.885 513.835 442.365 514.08 442.792C514.336 443.208 514.667 443.539 515.072 443.784C515.488 444.019 515.941 444.136 516.432 444.136C516.837 444.136 517.227 444.067 517.6 443.928C517.984 443.779 518.309 443.581 518.576 443.336L519.312 444.12C518.864 444.472 518.4 444.733 517.92 444.904C517.44 445.075 516.928 445.16 516.384 445.16ZM513.68 440.52H518.624C518.571 440.051 518.427 439.635 518.192 439.272C517.968 438.899 517.68 438.605 517.328 438.392C516.987 438.179 516.603 438.072 516.176 438.072C515.749 438.072 515.36 438.179 515.008 438.392C514.656 438.595 514.363 438.883 514.128 439.256C513.904 439.619 513.755 440.04 513.68 440.52ZM521.754 445V437.192H522.922V445H521.754ZM522.346 435.256C522.112 435.256 521.909 435.176 521.738 435.016C521.578 434.845 521.498 434.648 521.498 434.424C521.498 434.2 521.578 434.008 521.738 433.848C521.909 433.677 522.112 433.592 522.346 433.592C522.581 433.592 522.778 433.677 522.938 433.848C523.109 434.008 523.194 434.2 523.194 434.424C523.194 434.648 523.109 434.845 522.938 435.016C522.778 435.176 522.581 435.256 522.346 435.256ZM525.317 445V437.192H526.485V438.456C526.784 437.987 527.141 437.64 527.557 437.416C527.973 437.181 528.443 437.064 528.965 437.064C529.531 437.064 530.021 437.187 530.437 437.432C530.864 437.667 531.195 438.003 531.429 438.44C531.675 438.867 531.797 439.368 531.797 439.944V445H530.629V440.28C530.629 439.587 530.437 439.043 530.053 438.648C529.68 438.243 529.173 438.04 528.533 438.04C528.107 438.04 527.717 438.141 527.365 438.344C527.013 438.547 526.72 438.845 526.485 439.24V445H525.317ZM537.761 448.504C537.239 448.504 536.711 448.429 536.177 448.28C535.655 448.141 535.169 447.944 534.721 447.688L535.217 446.792C535.697 447.037 536.135 447.219 536.529 447.336C536.924 447.453 537.319 447.512 537.713 447.512C538.428 447.512 538.967 447.341 539.329 447C539.703 446.659 539.889 446.163 539.889 445.512V443.944C539.591 444.317 539.228 444.605 538.801 444.808C538.375 445 537.905 445.096 537.393 445.096C536.721 445.096 536.113 444.92 535.569 444.568C535.025 444.205 534.593 443.725 534.273 443.128C533.953 442.52 533.793 441.843 533.793 441.096C533.793 440.349 533.953 439.677 534.273 439.08C534.604 438.472 535.047 437.992 535.601 437.64C536.156 437.277 536.775 437.096 537.457 437.096C537.948 437.096 538.401 437.192 538.817 437.384C539.233 437.565 539.596 437.837 539.905 438.2V437.192H541.057V445.496C541.057 446.467 540.775 447.208 540.209 447.72C539.644 448.243 538.828 448.504 537.761 448.504ZM537.681 444.088C538.14 444.088 538.561 443.997 538.945 443.816C539.329 443.624 539.644 443.363 539.889 443.032V439.176C539.633 438.845 539.308 438.589 538.913 438.408C538.529 438.216 538.119 438.12 537.681 438.12C537.159 438.12 536.689 438.248 536.273 438.504C535.868 438.76 535.543 439.112 535.297 439.56C535.063 440.008 534.945 440.52 534.945 441.096C534.945 441.661 535.063 442.173 535.297 442.632C535.543 443.08 535.868 443.437 536.273 443.704C536.689 443.96 537.159 444.088 537.681 444.088ZM550.696 445.128C549.971 445.128 549.315 444.952 548.728 444.6C548.152 444.237 547.694 443.752 547.352 443.144C547.011 442.525 546.84 441.843 546.84 441.096C546.84 440.339 547.011 439.656 547.352 439.048C547.694 438.44 548.152 437.96 548.728 437.608C549.315 437.245 549.971 437.064 550.696 437.064C551.272 437.064 551.822 437.171 552.344 437.384C552.867 437.597 553.32 437.896 553.704 438.28L552.952 439.096C552.675 438.787 552.339 438.547 551.944 438.376C551.55 438.205 551.15 438.12 550.744 438.12C550.232 438.12 549.768 438.253 549.352 438.52C548.947 438.787 548.622 439.144 548.376 439.592C548.131 440.04 548.008 440.541 548.008 441.096C548.008 441.651 548.131 442.152 548.376 442.6C548.622 443.048 548.947 443.405 549.352 443.672C549.768 443.939 550.232 444.072 550.744 444.072C551.15 444.072 551.55 443.987 551.944 443.816C552.339 443.635 552.675 443.395 552.952 443.096L553.704 443.912C553.32 444.296 552.867 444.595 552.344 444.808C551.822 445.021 551.272 445.128 550.696 445.128ZM558.554 445.128C557.829 445.128 557.178 444.952 556.602 444.6C556.026 444.248 555.573 443.768 555.242 443.16C554.912 442.552 554.746 441.864 554.746 441.096C554.746 440.328 554.912 439.64 555.242 439.032C555.573 438.424 556.026 437.944 556.602 437.592C557.178 437.24 557.829 437.064 558.554 437.064C559.269 437.064 559.909 437.24 560.474 437.592C561.05 437.944 561.504 438.424 561.834 439.032C562.165 439.64 562.33 440.328 562.33 441.096C562.33 441.864 562.165 442.552 561.834 443.16C561.504 443.768 561.05 444.248 560.474 444.6C559.909 444.952 559.269 445.128 558.554 445.128ZM558.538 444.104C559.05 444.104 559.504 443.976 559.898 443.72C560.293 443.453 560.602 443.091 560.826 442.632C561.061 442.173 561.178 441.661 561.178 441.096C561.178 440.52 561.061 440.008 560.826 439.56C560.602 439.101 560.293 438.744 559.898 438.488C559.504 438.221 559.05 438.088 558.538 438.088C558.026 438.088 557.573 438.221 557.178 438.488C556.784 438.744 556.469 439.101 556.234 439.56C556.01 440.008 555.898 440.52 555.898 441.096C555.898 441.661 556.01 442.173 556.234 442.632C556.469 443.091 556.784 443.453 557.178 443.72C557.573 443.976 558.026 444.104 558.538 444.104ZM564.38 445V437.192H565.548V438.456C565.846 437.987 566.204 437.64 566.62 437.416C567.036 437.181 567.505 437.064 568.028 437.064C568.593 437.064 569.084 437.187 569.5 437.432C569.926 437.667 570.257 438.003 570.492 438.44C570.737 438.867 570.86 439.368 570.86 439.944V445H569.692V440.28C569.692 439.587 569.5 439.043 569.116 438.648C568.742 438.243 568.236 438.04 567.596 438.04C567.169 438.04 566.78 438.141 566.428 438.344C566.076 438.547 565.782 438.845 565.548 439.24V445H564.38ZM573.965 445V438.152H572.221V437.192H573.965V435.56C573.965 434.792 574.168 434.2 574.573 433.784C574.979 433.368 575.555 433.16 576.301 433.16C576.515 433.16 576.707 433.171 576.877 433.192C577.059 433.213 577.219 433.251 577.357 433.304V434.36C577.187 434.307 577.032 434.269 576.893 434.248C576.755 434.227 576.595 434.216 576.413 434.216C575.965 434.216 575.64 434.328 575.437 434.552C575.235 434.765 575.133 435.107 575.133 435.576V437.192H577.357V438.152H575.133V445H573.965ZM578.879 445V437.192H580.047V445H578.879ZM579.471 435.256C579.237 435.256 579.034 435.176 578.863 435.016C578.703 434.845 578.623 434.648 578.623 434.424C578.623 434.2 578.703 434.008 578.863 433.848C579.034 433.677 579.237 433.592 579.471 433.592C579.706 433.592 579.903 433.677 580.063 433.848C580.234 434.008 580.319 434.2 580.319 434.424C580.319 434.648 580.234 434.845 580.063 435.016C579.903 435.176 579.706 435.256 579.471 435.256ZM586.058 448.504C585.536 448.504 585.008 448.429 584.474 448.28C583.952 448.141 583.466 447.944 583.018 447.688L583.514 446.792C583.994 447.037 584.432 447.219 584.826 447.336C585.221 447.453 585.616 447.512 586.01 447.512C586.725 447.512 587.264 447.341 587.626 447C588 446.659 588.186 446.163 588.186 445.512V443.944C587.888 444.317 587.525 444.605 587.098 444.808C586.672 445 586.202 445.096 585.69 445.096C585.018 445.096 584.41 444.92 583.866 444.568C583.322 444.205 582.89 443.725 582.57 443.128C582.25 442.52 582.09 441.843 582.09 441.096C582.09 440.349 582.25 439.677 582.57 439.08C582.901 438.472 583.344 437.992 583.898 437.64C584.453 437.277 585.072 437.096 585.754 437.096C586.245 437.096 586.698 437.192 587.114 437.384C587.53 437.565 587.893 437.837 588.202 438.2V437.192H589.354V445.496C589.354 446.467 589.072 447.208 588.506 447.72C587.941 448.243 587.125 448.504 586.058 448.504ZM585.978 444.088C586.437 444.088 586.858 443.997 587.242 443.816C587.626 443.624 587.941 443.363 588.186 443.032V439.176C587.93 438.845 587.605 438.589 587.21 438.408C586.826 438.216 586.416 438.12 585.978 438.12C585.456 438.12 584.986 438.248 584.57 438.504C584.165 438.76 583.84 439.112 583.594 439.56C583.36 440.008 583.242 440.52 583.242 441.096C583.242 441.661 583.36 442.173 583.594 442.632C583.84 443.08 584.165 443.437 584.57 443.704C584.986 443.96 585.456 444.088 585.978 444.088ZM594.539 445.128C593.984 445.128 593.493 445.005 593.067 444.76C592.64 444.515 592.304 444.173 592.059 443.736C591.824 443.299 591.707 442.797 591.707 442.232V437.192H592.891V441.896C592.891 442.589 593.077 443.139 593.451 443.544C593.824 443.949 594.331 444.152 594.971 444.152C595.408 444.152 595.797 444.051 596.139 443.848C596.491 443.645 596.784 443.352 597.019 442.968V437.192H598.187V445H597.019V443.736C596.72 444.195 596.363 444.541 595.947 444.776C595.541 445.011 595.072 445.128 594.539 445.128ZM600.583 445V437.192H601.751V438.792C601.953 438.248 602.241 437.827 602.615 437.528C602.999 437.219 603.436 437.064 603.927 437.064C604.065 437.064 604.193 437.075 604.311 437.096C604.428 437.107 604.545 437.133 604.663 437.176V438.232C604.535 438.189 604.396 438.157 604.247 438.136C604.108 438.104 603.975 438.088 603.847 438.088C603.367 438.088 602.945 438.227 602.583 438.504C602.231 438.781 601.953 439.171 601.751 439.672V445H600.583ZM609.243 445.16C608.518 445.16 607.862 444.984 607.275 444.632C606.689 444.269 606.225 443.784 605.883 443.176C605.542 442.557 605.371 441.864 605.371 441.096C605.371 440.328 605.531 439.64 605.851 439.032C606.182 438.424 606.625 437.944 607.179 437.592C607.734 437.24 608.353 437.064 609.035 437.064C609.729 437.064 610.342 437.24 610.875 437.592C611.419 437.933 611.846 438.403 612.155 439C612.475 439.587 612.635 440.253 612.635 441V441.352H606.507C606.55 441.885 606.694 442.365 606.939 442.792C607.195 443.208 607.526 443.539 607.931 443.784C608.347 444.019 608.801 444.136 609.291 444.136C609.697 444.136 610.086 444.067 610.459 443.928C610.843 443.779 611.169 443.581 611.435 443.336L612.171 444.12C611.723 444.472 611.259 444.733 610.779 444.904C610.299 445.075 609.787 445.16 609.243 445.16ZM606.539 440.52H611.483C611.43 440.051 611.286 439.635 611.051 439.272C610.827 438.899 610.539 438.605 610.187 438.392C609.846 438.179 609.462 438.072 609.035 438.072C608.609 438.072 608.219 438.179 607.867 438.392C607.515 438.595 607.222 438.883 606.987 439.256C606.763 439.619 606.614 440.04 606.539 440.52ZM617.878 445.112C617.206 445.112 616.598 444.936 616.054 444.584C615.51 444.221 615.078 443.741 614.758 443.144C614.438 442.536 614.278 441.859 614.278 441.112C614.278 440.355 614.438 439.677 614.758 439.08C615.088 438.472 615.531 437.992 616.086 437.64C616.64 437.277 617.259 437.096 617.942 437.096C618.422 437.096 618.87 437.192 619.286 437.384C619.702 437.565 620.064 437.832 620.374 438.184V433.448L621.542 433.208V445H620.374V443.96C620.075 444.333 619.712 444.621 619.286 444.824C618.859 445.016 618.39 445.112 617.878 445.112ZM618.166 444.088C618.624 444.088 619.046 443.997 619.43 443.816C619.814 443.635 620.128 443.379 620.374 443.048V439.176C620.118 438.845 619.792 438.589 619.398 438.408C619.014 438.216 618.603 438.12 618.166 438.12C617.643 438.12 617.174 438.248 616.758 438.504C616.352 438.76 616.027 439.112 615.782 439.56C615.547 440.008 615.43 440.52 615.43 441.096C615.43 441.661 615.547 442.173 615.782 442.632C616.027 443.08 616.352 443.437 616.758 443.704C617.174 443.96 617.643 444.088 618.166 444.088ZM624.742 445.128C624.508 445.128 624.305 445.043 624.134 444.872C623.974 444.701 623.894 444.499 623.894 444.264C623.894 444.019 623.974 443.816 624.134 443.656C624.305 443.485 624.508 443.4 624.742 443.4C624.977 443.4 625.174 443.485 625.334 443.656C625.505 443.816 625.59 444.019 625.59 444.264C625.59 444.499 625.505 444.701 625.334 444.872C625.174 445.043 624.977 445.128 624.742 445.128ZM634.797 445V434.888H630.925V433.8H639.901V434.888H636.029V445H634.797ZM641.552 445V433.448L642.72 433.208V438.456C643.018 437.987 643.376 437.64 643.792 437.416C644.208 437.181 644.677 437.064 645.2 437.064C645.765 437.064 646.256 437.187 646.672 437.432C647.098 437.667 647.429 438.003 647.664 438.44C647.909 438.867 648.032 439.368 648.032 439.944V445H646.864V440.28C646.864 439.587 646.672 439.043 646.288 438.648C645.914 438.243 645.408 438.04 644.768 438.04C644.341 438.04 643.952 438.141 643.6 438.344C643.248 438.547 642.954 438.845 642.72 439.24V445H641.552ZM650.364 445V437.192H651.532V445H650.364ZM650.956 435.256C650.721 435.256 650.518 435.176 650.348 435.016C650.188 434.845 650.108 434.648 650.108 434.424C650.108 434.2 650.188 434.008 650.348 433.848C650.518 433.677 650.721 433.592 650.956 433.592C651.19 433.592 651.388 433.677 651.548 433.848C651.718 434.008 651.804 434.2 651.804 434.424C651.804 434.648 651.718 434.845 651.548 435.016C651.388 435.176 651.19 435.256 650.956 435.256ZM656.343 445.16C655.703 445.16 655.111 445.064 654.567 444.872C654.023 444.669 653.559 444.381 653.175 444.008L653.799 443.24C654.268 443.581 654.7 443.832 655.095 443.992C655.489 444.141 655.895 444.216 656.311 444.216C656.876 444.216 657.345 444.083 657.719 443.816C658.092 443.549 658.279 443.208 658.279 442.792C658.279 442.472 658.167 442.221 657.943 442.04C657.729 441.859 657.372 441.72 656.871 441.624L655.591 441.4C654.833 441.261 654.273 441.027 653.911 440.696C653.559 440.365 653.383 439.917 653.383 439.352C653.383 438.904 653.5 438.509 653.735 438.168C653.98 437.827 654.316 437.56 654.743 437.368C655.169 437.165 655.655 437.064 656.199 437.064C656.732 437.064 657.239 437.144 657.719 437.304C658.199 437.453 658.684 437.699 659.175 438.04L658.599 438.856C658.193 438.568 657.788 438.36 657.383 438.232C656.977 438.093 656.567 438.024 656.151 438.024C655.639 438.024 655.228 438.136 654.919 438.36C654.609 438.584 654.455 438.888 654.455 439.272C654.455 439.592 654.551 439.837 654.743 440.008C654.945 440.179 655.297 440.307 655.799 440.392L657.111 440.632C657.9 440.771 658.476 441.011 658.839 441.352C659.201 441.693 659.383 442.152 659.383 442.728C659.383 443.187 659.249 443.603 658.983 443.976C658.716 444.339 658.353 444.627 657.895 444.84C657.436 445.053 656.919 445.16 656.343 445.16ZM668.399 445.128C667.674 445.128 667.018 444.952 666.431 444.6C665.855 444.237 665.397 443.752 665.055 443.144C664.714 442.525 664.543 441.843 664.543 441.096C664.543 440.339 664.714 439.656 665.055 439.048C665.397 438.44 665.855 437.96 666.431 437.608C667.018 437.245 667.674 437.064 668.399 437.064C668.975 437.064 669.525 437.171 670.047 437.384C670.57 437.597 671.023 437.896 671.407 438.28L670.655 439.096C670.378 438.787 670.042 438.547 669.647 438.376C669.253 438.205 668.853 438.12 668.447 438.12C667.935 438.12 667.471 438.253 667.055 438.52C666.65 438.787 666.325 439.144 666.079 439.592C665.834 440.04 665.711 440.541 665.711 441.096C665.711 441.651 665.834 442.152 666.079 442.6C666.325 443.048 666.65 443.405 667.055 443.672C667.471 443.939 667.935 444.072 668.447 444.072C668.853 444.072 669.253 443.987 669.647 443.816C670.042 443.635 670.378 443.395 670.655 443.096L671.407 443.912C671.023 444.296 670.57 444.595 670.047 444.808C669.525 445.021 668.975 445.128 668.399 445.128ZM676.258 445.128C675.532 445.128 674.882 444.952 674.306 444.6C673.73 444.248 673.276 443.768 672.946 443.16C672.615 442.552 672.45 441.864 672.45 441.096C672.45 440.328 672.615 439.64 672.946 439.032C673.276 438.424 673.73 437.944 674.306 437.592C674.882 437.24 675.532 437.064 676.258 437.064C676.972 437.064 677.612 437.24 678.178 437.592C678.754 437.944 679.207 438.424 679.538 439.032C679.868 439.64 680.034 440.328 680.034 441.096C680.034 441.864 679.868 442.552 679.538 443.16C679.207 443.768 678.754 444.248 678.178 444.6C677.612 444.952 676.972 445.128 676.258 445.128ZM676.242 444.104C676.754 444.104 677.207 443.976 677.602 443.72C677.996 443.453 678.306 443.091 678.53 442.632C678.764 442.173 678.882 441.661 678.882 441.096C678.882 440.52 678.764 440.008 678.53 439.56C678.306 439.101 677.996 438.744 677.602 438.488C677.207 438.221 676.754 438.088 676.242 438.088C675.73 438.088 675.276 438.221 674.882 438.488C674.487 438.744 674.172 439.101 673.938 439.56C673.714 440.008 673.602 440.52 673.602 441.096C673.602 441.661 673.714 442.173 673.938 442.632C674.172 443.091 674.487 443.453 674.882 443.72C675.276 443.976 675.73 444.104 676.242 444.104ZM684.867 445.128C684.312 445.128 683.821 445.005 683.395 444.76C682.968 444.515 682.632 444.173 682.387 443.736C682.152 443.299 682.035 442.797 682.035 442.232V437.192H683.219V441.896C683.219 442.589 683.405 443.139 683.779 443.544C684.152 443.949 684.659 444.152 685.299 444.152C685.736 444.152 686.125 444.051 686.467 443.848C686.819 443.645 687.112 443.352 687.347 442.968V437.192H688.515V445H687.347V443.736C687.048 444.195 686.691 444.541 686.275 444.776C685.869 445.011 685.4 445.128 684.867 445.128ZM690.911 445V433.448L692.079 433.208V445H690.911ZM697.721 445.112C697.049 445.112 696.441 444.936 695.897 444.584C695.353 444.221 694.921 443.741 694.601 443.144C694.281 442.536 694.121 441.859 694.121 441.112C694.121 440.355 694.281 439.677 694.601 439.08C694.932 438.472 695.375 437.992 695.929 437.64C696.484 437.277 697.103 437.096 697.785 437.096C698.265 437.096 698.713 437.192 699.129 437.384C699.545 437.565 699.908 437.832 700.217 438.184V433.448L701.385 433.208V445H700.217V443.96C699.919 444.333 699.556 444.621 699.129 444.824C698.703 445.016 698.233 445.112 697.721 445.112ZM698.009 444.088C698.468 444.088 698.889 443.997 699.273 443.816C699.657 443.635 699.972 443.379 700.217 443.048V439.176C699.961 438.845 699.636 438.589 699.241 438.408C698.857 438.216 698.447 438.12 698.009 438.12C697.487 438.12 697.017 438.248 696.601 438.504C696.196 438.76 695.871 439.112 695.625 439.56C695.391 440.008 695.273 440.52 695.273 441.096C695.273 441.661 695.391 442.173 695.625 442.632C695.871 443.08 696.196 443.437 696.601 443.704C697.017 443.96 697.487 444.088 698.009 444.088ZM710.496 445.16C709.824 445.16 709.312 445 708.96 444.68C708.619 444.349 708.448 443.875 708.448 443.256V438.152H706.832V437.192H708.448V435.048L709.616 434.776V437.192H711.856V438.152H709.616V442.952C709.616 443.368 709.702 443.667 709.872 443.848C710.054 444.029 710.347 444.12 710.752 444.12C710.955 444.12 711.136 444.104 711.296 444.072C711.456 444.04 711.643 443.987 711.856 443.912V444.952C711.643 445.027 711.419 445.08 711.184 445.112C710.95 445.144 710.72 445.16 710.496 445.16ZM715.983 445.144C715.429 445.144 714.938 445.043 714.511 444.84C714.085 444.637 713.749 444.36 713.503 444.008C713.269 443.645 713.151 443.229 713.151 442.76C713.151 442.291 713.274 441.885 713.519 441.544C713.765 441.192 714.106 440.92 714.543 440.728C714.981 440.536 715.493 440.44 716.079 440.44C716.527 440.44 716.949 440.488 717.343 440.584C717.749 440.68 718.122 440.835 718.463 441.048V439.976C718.463 439.336 718.293 438.856 717.951 438.536C717.61 438.205 717.109 438.04 716.447 438.04C716.085 438.04 715.711 438.093 715.327 438.2C714.954 438.307 714.538 438.477 714.079 438.712L713.647 437.816C714.693 437.315 715.674 437.064 716.591 437.064C717.562 437.064 718.309 437.304 718.831 437.784C719.354 438.253 719.615 438.931 719.615 439.816V445H718.463V444.088C718.122 444.44 717.743 444.707 717.327 444.888C716.911 445.059 716.463 445.144 715.983 445.144ZM714.271 442.728C714.271 443.187 714.447 443.555 714.799 443.832C715.162 444.109 715.637 444.248 716.223 444.248C716.661 444.248 717.061 444.173 717.423 444.024C717.797 443.875 718.143 443.651 718.463 443.352V441.848C718.133 441.656 717.791 441.517 717.439 441.432C717.087 441.336 716.693 441.288 716.255 441.288C715.658 441.288 715.178 441.421 714.815 441.688C714.453 441.944 714.271 442.291 714.271 442.728ZM721.989 445V433.448L723.157 433.208V440.696L726.869 437.192H728.277L724.309 440.904L728.453 445H726.917L723.157 441.272V445H721.989ZM732.697 445.16C731.971 445.16 731.315 444.984 730.729 444.632C730.142 444.269 729.678 443.784 729.337 443.176C728.995 442.557 728.825 441.864 728.825 441.096C728.825 440.328 728.985 439.64 729.305 439.032C729.635 438.424 730.078 437.944 730.633 437.592C731.187 437.24 731.806 437.064 732.489 437.064C733.182 437.064 733.795 437.24 734.329 437.592C734.873 437.933 735.299 438.403 735.609 439C735.929 439.587 736.089 440.253 736.089 441V441.352H729.961C730.003 441.885 730.147 442.365 730.393 442.792C730.649 443.208 730.979 443.539 731.385 443.784C731.801 444.019 732.254 444.136 732.745 444.136C733.15 444.136 733.539 444.067 733.913 443.928C734.297 443.779 734.622 443.581 734.889 443.336L735.625 444.12C735.177 444.472 734.713 444.733 734.233 444.904C733.753 445.075 733.241 445.16 732.697 445.16ZM729.993 440.52H734.937C734.883 440.051 734.739 439.635 734.505 439.272C734.281 438.899 733.993 438.605 733.641 438.392C733.299 438.179 732.915 438.072 732.489 438.072C732.062 438.072 731.673 438.179 731.321 438.392C730.969 438.595 730.675 438.883 730.441 439.256C730.217 439.619 730.067 440.04 729.993 440.52ZM744.233 445.144C743.679 445.144 743.188 445.043 742.761 444.84C742.335 444.637 741.999 444.36 741.753 444.008C741.519 443.645 741.401 443.229 741.401 442.76C741.401 442.291 741.524 441.885 741.769 441.544C742.015 441.192 742.356 440.92 742.793 440.728C743.231 440.536 743.743 440.44 744.329 440.44C744.777 440.44 745.199 440.488 745.593 440.584C745.999 440.68 746.372 440.835 746.713 441.048V439.976C746.713 439.336 746.543 438.856 746.201 438.536C745.86 438.205 745.359 438.04 744.697 438.04C744.335 438.04 743.961 438.093 743.577 438.2C743.204 438.307 742.788 438.477 742.329 438.712L741.897 437.816C742.943 437.315 743.924 437.064 744.841 437.064C745.812 437.064 746.559 437.304 747.081 437.784C747.604 438.253 747.865 438.931 747.865 439.816V445H746.713V444.088C746.372 444.44 745.993 444.707 745.577 444.888C745.161 445.059 744.713 445.144 744.233 445.144ZM742.521 442.728C742.521 443.187 742.697 443.555 743.049 443.832C743.412 444.109 743.887 444.248 744.473 444.248C744.911 444.248 745.311 444.173 745.673 444.024C746.047 443.875 746.393 443.651 746.713 443.352V441.848C746.383 441.656 746.041 441.517 745.689 441.432C745.337 441.336 744.943 441.288 744.505 441.288C743.908 441.288 743.428 441.421 743.065 441.688C742.703 441.944 742.521 442.291 742.521 442.728ZM754.965 445V438.152H753.221V437.192H754.965V435.56C754.965 434.792 755.168 434.2 755.573 433.784C755.979 433.368 756.555 433.16 757.301 433.16C757.515 433.16 757.707 433.171 757.877 433.192C758.059 433.213 758.219 433.251 758.357 433.304V434.36C758.187 434.307 758.032 434.269 757.893 434.248C757.755 434.227 757.595 434.216 757.413 434.216C756.965 434.216 756.64 434.328 756.437 434.552C756.235 434.765 756.133 435.107 756.133 435.576V437.192H758.357V438.152H756.133V445H754.965ZM763.087 445.16C762.362 445.16 761.706 444.984 761.119 444.632C760.533 444.269 760.069 443.784 759.727 443.176C759.386 442.557 759.215 441.864 759.215 441.096C759.215 440.328 759.375 439.64 759.695 439.032C760.026 438.424 760.469 437.944 761.023 437.592C761.578 437.24 762.197 437.064 762.879 437.064C763.573 437.064 764.186 437.24 764.719 437.592C765.263 437.933 765.69 438.403 765.999 439C766.319 439.587 766.479 440.253 766.479 441V441.352H760.351C760.394 441.885 760.538 442.365 760.783 442.792C761.039 443.208 761.37 443.539 761.775 443.784C762.191 444.019 762.645 444.136 763.135 444.136C763.541 444.136 763.93 444.067 764.303 443.928C764.687 443.779 765.013 443.581 765.279 443.336L766.015 444.12C765.567 444.472 765.103 444.733 764.623 444.904C764.143 445.075 763.631 445.16 763.087 445.16ZM760.383 440.52H765.327C765.274 440.051 765.13 439.635 764.895 439.272C764.671 438.899 764.383 438.605 764.031 438.392C763.69 438.179 763.306 438.072 762.879 438.072C762.453 438.072 762.063 438.179 761.711 438.392C761.359 438.595 761.066 438.883 760.831 439.256C760.607 439.619 760.458 440.04 760.383 440.52ZM769.709 445L767.565 437.192H768.701L770.333 443.432L772.205 437.192H773.245L775.117 443.432L776.733 437.192H777.837L775.709 445H774.573L772.717 438.696L770.861 445H769.709ZM783.223 445V437.192H784.391V438.408C784.69 437.96 785.031 437.624 785.415 437.4C785.799 437.176 786.231 437.064 786.711 437.064C787.266 437.064 787.751 437.203 788.167 437.48C788.583 437.747 788.898 438.115 789.111 438.584C789.421 438.083 789.789 437.704 790.215 437.448C790.653 437.192 791.154 437.064 791.719 437.064C792.242 437.064 792.701 437.187 793.095 437.432C793.501 437.677 793.815 438.019 794.039 438.456C794.263 438.883 794.375 439.384 794.375 439.96V445H793.207V440.248C793.207 439.565 793.037 439.027 792.695 438.632C792.354 438.237 791.885 438.04 791.287 438.04C790.882 438.04 790.514 438.141 790.183 438.344C789.863 438.547 789.581 438.856 789.335 439.272C789.357 439.379 789.373 439.491 789.383 439.608C789.394 439.725 789.399 439.843 789.399 439.96V445H788.231V440.248C788.231 439.565 788.055 439.027 787.703 438.632C787.362 438.237 786.893 438.04 786.295 438.04C785.495 438.04 784.861 438.424 784.391 439.192V445H783.223ZM796.723 445V437.192H797.891V445H796.723ZM797.315 435.256C797.08 435.256 796.878 435.176 796.707 435.016C796.547 434.845 796.467 434.648 796.467 434.424C796.467 434.2 796.547 434.008 796.707 433.848C796.878 433.677 797.08 433.592 797.315 433.592C797.55 433.592 797.747 433.677 797.907 433.848C798.078 434.008 798.163 434.2 798.163 434.424C798.163 434.648 798.078 434.845 797.907 435.016C797.747 435.176 797.55 435.256 797.315 435.256ZM800.286 445V437.192H801.454V438.456C801.753 437.987 802.11 437.64 802.526 437.416C802.942 437.181 803.411 437.064 803.934 437.064C804.499 437.064 804.99 437.187 805.406 437.432C805.833 437.667 806.163 438.003 806.398 438.44C806.643 438.867 806.766 439.368 806.766 439.944V445H805.598V440.28C805.598 439.587 805.406 439.043 805.022 438.648C804.649 438.243 804.142 438.04 803.502 438.04C803.075 438.04 802.686 438.141 802.334 438.344C801.982 438.547 801.689 438.845 801.454 439.24V445H800.286ZM811.82 445.128C811.265 445.128 810.775 445.005 810.348 444.76C809.921 444.515 809.585 444.173 809.34 443.736C809.105 443.299 808.988 442.797 808.988 442.232V437.192H810.172V441.896C810.172 442.589 810.359 443.139 810.732 443.544C811.105 443.949 811.612 444.152 812.252 444.152C812.689 444.152 813.079 444.051 813.42 443.848C813.772 443.645 814.065 443.352 814.3 442.968V437.192H815.468V445H814.3V443.736C814.001 444.195 813.644 444.541 813.228 444.776C812.823 445.011 812.353 445.128 811.82 445.128ZM820.84 445.16C820.168 445.16 819.656 445 819.304 444.68C818.963 444.349 818.792 443.875 818.792 443.256V438.152H817.176V437.192H818.792V435.048L819.96 434.776V437.192H822.2V438.152H819.96V442.952C819.96 443.368 820.045 443.667 820.216 443.848C820.397 444.029 820.691 444.12 821.096 444.12C821.299 444.12 821.48 444.104 821.64 444.072C821.8 444.04 821.987 443.987 822.2 443.912V444.952C821.987 445.027 821.763 445.08 821.528 445.112C821.293 445.144 821.064 445.16 820.84 445.16ZM827.275 445.16C826.549 445.16 825.893 444.984 825.307 444.632C824.72 444.269 824.256 443.784 823.915 443.176C823.573 442.557 823.403 441.864 823.403 441.096C823.403 440.328 823.563 439.64 823.883 439.032C824.213 438.424 824.656 437.944 825.211 437.592C825.765 437.24 826.384 437.064 827.067 437.064C827.76 437.064 828.373 437.24 828.907 437.592C829.451 437.933 829.877 438.403 830.187 439C830.507 439.587 830.667 440.253 830.667 441V441.352H824.539C824.581 441.885 824.725 442.365 824.971 442.792C825.227 443.208 825.557 443.539 825.963 443.784C826.379 444.019 826.832 444.136 827.323 444.136C827.728 444.136 828.117 444.067 828.491 443.928C828.875 443.779 829.2 443.581 829.467 443.336L830.203 444.12C829.755 444.472 829.291 444.733 828.811 444.904C828.331 445.075 827.819 445.16 827.275 445.16ZM824.571 440.52H829.515C829.461 440.051 829.317 439.635 829.083 439.272C828.859 438.899 828.571 438.605 828.219 438.392C827.877 438.179 827.493 438.072 827.067 438.072C826.64 438.072 826.251 438.179 825.899 438.392C825.547 438.595 825.253 438.883 825.019 439.256C824.795 439.619 824.645 440.04 824.571 440.52ZM835.155 445.16C834.515 445.16 833.923 445.064 833.379 444.872C832.835 444.669 832.371 444.381 831.987 444.008L832.611 443.24C833.08 443.581 833.512 443.832 833.907 443.992C834.302 444.141 834.707 444.216 835.123 444.216C835.688 444.216 836.158 444.083 836.531 443.816C836.904 443.549 837.091 443.208 837.091 442.792C837.091 442.472 836.979 442.221 836.755 442.04C836.542 441.859 836.184 441.72 835.683 441.624L834.403 441.4C833.646 441.261 833.086 441.027 832.723 440.696C832.371 440.365 832.195 439.917 832.195 439.352C832.195 438.904 832.312 438.509 832.547 438.168C832.792 437.827 833.128 437.56 833.555 437.368C833.982 437.165 834.467 437.064 835.011 437.064C835.544 437.064 836.051 437.144 836.531 437.304C837.011 437.453 837.496 437.699 837.987 438.04L837.411 438.856C837.006 438.568 836.6 438.36 836.195 438.232C835.79 438.093 835.379 438.024 834.963 438.024C834.451 438.024 834.04 438.136 833.731 438.36C833.422 438.584 833.267 438.888 833.267 439.272C833.267 439.592 833.363 439.837 833.555 440.008C833.758 440.179 834.11 440.307 834.611 440.392L835.923 440.632C836.712 440.771 837.288 441.011 837.651 441.352C838.014 441.693 838.195 442.152 838.195 442.728C838.195 443.187 838.062 443.603 837.795 443.976C837.528 444.339 837.166 444.627 836.707 444.84C836.248 445.053 835.731 445.16 835.155 445.16ZM840.617 445.128C840.383 445.128 840.18 445.043 840.009 444.872C839.849 444.701 839.769 444.499 839.769 444.264C839.769 444.019 839.849 443.816 840.009 443.656C840.18 443.485 840.383 443.4 840.617 443.4C840.852 443.4 841.049 443.485 841.209 443.656C841.38 443.816 841.465 444.019 841.465 444.264C841.465 444.499 841.38 444.701 841.209 444.872C841.049 445.043 840.852 445.128 840.617 445.128Z" fill="#4D4D4D"/>
<path d="M460 507.5C460 500.873 465.373 495.5 472 495.5H620V519.5H472C465.373 519.5 460 514.127 460 507.5V507.5Z" fill="#0066CC"/>
<path d="M620 495.5H768C774.627 495.5 780 500.873 780 507.5V507.5C780 514.127 774.627 519.5 768 519.5H620V495.5Z" fill="#E0E0E0"/>
<defs>
<filter id="filter0_d_1668_116905" x="40" y="22" width="1160" height="801" filterUnits="userSpaceOnUse" color-interpolation-filters="sRGB">
<feFlood flood-opacity="0" result="BackgroundImageFix"/>
<feColorMatrix in="SourceAlpha" type="matrix" values="0 0 0 0 0 0 0 0 0 0 0 0 0 0 0 0 0 0 127 0" result="hardAlpha"/>
<feOffset dy="10"/>
<feGaussianBlur stdDeviation="10"/>
<feColorMatrix type="matrix" values="0 0 0 0 0.160784 0 0 0 0 0.160784 0 0 0 0 0.160784 0 0 0 0.15 0"/>
<feBlend mode="normal" in2="BackgroundImageFix" result="effect1_dropShadow_1668_116905"/>
<feBlend mode="normal" in="SourceGraphic" in2="effect1_dropShadow_1668_116905" result="shape"/>
</filter>
</defs>
</svg>
