<svg width="732" height="297" viewBox="0 0 732 297" fill="none" xmlns="http://www.w3.org/2000/svg">
<rect width="732" height="297" fill="white"/>
<path d="M44.984 95.154C44.1813 95.154 43.4813 94.9813 42.884 94.636C42.296 94.2813 41.8433 93.782 41.526 93.138C41.2087 92.494 41.05 91.7333 41.05 90.856V85.2H42.128V90.856C42.128 91.528 42.2447 92.1113 42.478 92.606C42.7113 93.1007 43.0427 93.488 43.472 93.768C43.9013 94.0387 44.4053 94.174 44.984 94.174C45.5627 94.174 46.0667 94.0387 46.496 93.768C46.9253 93.488 47.2567 93.1007 47.49 92.606C47.7233 92.1113 47.84 91.528 47.84 90.856V85.2H48.918V90.856C48.918 91.7333 48.7593 92.494 48.442 93.138C48.1247 93.782 47.672 94.2813 47.084 94.636C46.496 94.9813 45.796 95.154 44.984 95.154ZM51.0168 97.926V88.168H52.0248V89.148C52.2861 88.8027 52.6035 88.5413 52.9768 88.364C53.3595 88.1773 53.7795 88.084 54.2368 88.084C54.8341 88.084 55.3661 88.2427 55.8328 88.56C56.3088 88.868 56.6868 89.288 56.9668 89.82C57.2468 90.3427 57.3868 90.9307 57.3868 91.584C57.3868 92.2373 57.2421 92.83 56.9528 93.362C56.6728 93.894 56.2901 94.3187 55.8048 94.636C55.3288 94.944 54.7875 95.098 54.1808 95.098C53.7515 95.098 53.3548 95.0187 52.9908 94.86C52.6268 94.692 52.3095 94.454 52.0388 94.146V97.926H51.0168ZM53.9848 94.216C54.4421 94.216 54.8481 94.104 55.2028 93.88C55.5668 93.6467 55.8515 93.334 56.0568 92.942C56.2715 92.5407 56.3788 92.0927 56.3788 91.598C56.3788 91.094 56.2715 90.646 56.0568 90.254C55.8515 89.862 55.5668 89.554 55.2028 89.33C54.8481 89.0967 54.4421 88.98 53.9848 88.98C53.5835 88.98 53.2101 89.064 52.8648 89.232C52.5288 89.3907 52.2535 89.6193 52.0388 89.918V93.264C52.2628 93.5627 52.5428 93.796 52.8788 93.964C53.2241 94.132 53.5928 94.216 53.9848 94.216ZM59.1789 95V84.892L60.2009 84.682V95H59.1789ZM65.3201 95.112C64.6854 95.112 64.1161 94.958 63.6121 94.65C63.1081 94.342 62.7114 93.922 62.4221 93.39C62.1328 92.858 61.9881 92.256 61.9881 91.584C61.9881 90.912 62.1328 90.31 62.4221 89.778C62.7114 89.246 63.1081 88.826 63.6121 88.518C64.1161 88.21 64.6854 88.056 65.3201 88.056C65.9454 88.056 66.5054 88.21 67.0001 88.518C67.5041 88.826 67.9008 89.246 68.1901 89.778C68.4794 90.31 68.6241 90.912 68.6241 91.584C68.6241 92.256 68.4794 92.858 68.1901 93.39C67.9008 93.922 67.5041 94.342 67.0001 94.65C66.5054 94.958 65.9454 95.112 65.3201 95.112ZM65.3061 94.216C65.7541 94.216 66.1508 94.104 66.4961 93.88C66.8414 93.6467 67.1121 93.3293 67.3081 92.928C67.5134 92.5267 67.6161 92.0787 67.6161 91.584C67.6161 91.08 67.5134 90.632 67.3081 90.24C67.1121 89.8387 66.8414 89.526 66.4961 89.302C66.1508 89.0687 65.7541 88.952 65.3061 88.952C64.8581 88.952 64.4614 89.0687 64.1161 89.302C63.7708 89.526 63.4954 89.8387 63.2901 90.24C63.0941 90.632 62.9961 91.08 62.9961 91.584C62.9961 92.0787 63.0941 92.5267 63.2901 92.928C63.4954 93.3293 63.7708 93.6467 64.1161 93.88C64.4614 94.104 64.8581 94.216 65.3061 94.216ZM72.5995 95.126C72.1142 95.126 71.6849 95.0373 71.3115 94.86C70.9382 94.6827 70.6442 94.44 70.4295 94.132C70.2242 93.8147 70.1215 93.4507 70.1215 93.04C70.1215 92.6293 70.2289 92.2747 70.4435 91.976C70.6582 91.668 70.9569 91.43 71.3395 91.262C71.7222 91.094 72.1702 91.01 72.6835 91.01C73.0755 91.01 73.4442 91.052 73.7895 91.136C74.1442 91.22 74.4709 91.3553 74.7695 91.542V90.604C74.7695 90.044 74.6202 89.624 74.3215 89.344C74.0229 89.0547 73.5842 88.91 73.0055 88.91C72.6882 88.91 72.3615 88.9567 72.0255 89.05C71.6989 89.1433 71.3349 89.2927 70.9335 89.498L70.5555 88.714C71.4702 88.2753 72.3289 88.056 73.1315 88.056C73.9809 88.056 74.6342 88.266 75.0915 88.686C75.5489 89.0967 75.7775 89.6893 75.7775 90.464V95H74.7695V94.202C74.4709 94.51 74.1395 94.7433 73.7755 94.902C73.4115 95.0513 73.0195 95.126 72.5995 95.126ZM71.1015 93.012C71.1015 93.4133 71.2555 93.7353 71.5635 93.978C71.8809 94.2207 72.2962 94.342 72.8095 94.342C73.1922 94.342 73.5422 94.2767 73.8595 94.146C74.1862 94.0153 74.4895 93.8193 74.7695 93.558V92.242C74.4802 92.074 74.1815 91.9527 73.8735 91.878C73.5655 91.794 73.2202 91.752 72.8375 91.752C72.3149 91.752 71.8949 91.8687 71.5775 92.102C71.2602 92.326 71.1015 92.6293 71.1015 93.012ZM80.6967 95.098C80.1087 95.098 79.5767 94.944 79.1007 94.636C78.6247 94.3187 78.2467 93.8987 77.9667 93.376C77.6867 92.844 77.5467 92.2513 77.5467 91.598C77.5467 90.9353 77.6867 90.3427 77.9667 89.82C78.256 89.288 78.6434 88.868 79.1287 88.56C79.614 88.2427 80.1554 88.084 80.7527 88.084C81.1727 88.084 81.5647 88.168 81.9287 88.336C82.2927 88.4947 82.61 88.728 82.8807 89.036V84.892L83.9027 84.682V95H82.8807V94.09C82.6194 94.4167 82.302 94.6687 81.9287 94.846C81.5554 95.014 81.1447 95.098 80.6967 95.098ZM80.9487 94.202C81.35 94.202 81.7187 94.1227 82.0547 93.964C82.3907 93.8053 82.666 93.5813 82.8807 93.292V89.904C82.6567 89.6147 82.372 89.3907 82.0267 89.232C81.6907 89.064 81.3314 88.98 80.9487 88.98C80.4914 88.98 80.0807 89.092 79.7167 89.316C79.362 89.54 79.0774 89.848 78.8627 90.24C78.6574 90.632 78.5547 91.08 78.5547 91.584C78.5547 92.0787 78.6574 92.5267 78.8627 92.928C79.0774 93.32 79.362 93.6327 79.7167 93.866C80.0807 94.09 80.4914 94.202 80.9487 94.202ZM85.9891 95V88.168H87.0111V95H85.9891ZM86.5071 86.474C86.3018 86.474 86.1245 86.404 85.9751 86.264C85.8351 86.1147 85.7651 85.942 85.7651 85.746C85.7651 85.55 85.8351 85.382 85.9751 85.242C86.1245 85.0927 86.3018 85.018 86.5071 85.018C86.7125 85.018 86.8851 85.0927 87.0251 85.242C87.1745 85.382 87.2491 85.55 87.2491 85.746C87.2491 85.942 87.1745 86.1147 87.0251 86.264C86.8851 86.404 86.7125 86.474 86.5071 86.474ZM89.1066 95V88.168H90.1286V89.274C90.39 88.8633 90.7026 88.56 91.0666 88.364C91.4306 88.1587 91.8413 88.056 92.2986 88.056C92.7933 88.056 93.2226 88.1633 93.5866 88.378C93.96 88.5833 94.2493 88.8773 94.4546 89.26C94.6693 89.6333 94.7766 90.072 94.7766 90.576V95H93.7546V90.87C93.7546 90.2633 93.5866 89.7873 93.2506 89.442C92.924 89.0873 92.4806 88.91 91.9206 88.91C91.5473 88.91 91.2066 88.9987 90.8986 89.176C90.5906 89.3533 90.334 89.6147 90.1286 89.96V95H89.1066ZM99.9953 98.066C99.5379 98.066 99.0759 98.0007 98.6093 97.87C98.1519 97.7487 97.7273 97.576 97.3353 97.352L97.7693 96.568C98.1893 96.7827 98.5719 96.9413 98.9173 97.044C99.2626 97.1467 99.6079 97.198 99.9533 97.198C100.579 97.198 101.05 97.0487 101.367 96.75C101.694 96.4513 101.857 96.0173 101.857 95.448V94.076C101.596 94.4027 101.279 94.6547 100.905 94.832C100.532 95 100.121 95.084 99.6733 95.084C99.0853 95.084 98.5533 94.93 98.0773 94.622C97.6013 94.3047 97.2233 93.8847 96.9433 93.362C96.6633 92.83 96.5233 92.2373 96.5233 91.584C96.5233 90.9307 96.6633 90.3427 96.9433 89.82C97.2326 89.288 97.6199 88.868 98.1053 88.56C98.5906 88.2427 99.1319 88.084 99.7293 88.084C100.159 88.084 100.555 88.168 100.919 88.336C101.283 88.4947 101.601 88.7327 101.871 89.05V88.168H102.879V95.434C102.879 96.2833 102.632 96.932 102.137 97.38C101.643 97.8373 100.929 98.066 99.9953 98.066ZM99.9253 94.202C100.327 94.202 100.695 94.1227 101.031 93.964C101.367 93.796 101.643 93.5673 101.857 93.278V89.904C101.633 89.6147 101.349 89.3907 101.003 89.232C100.667 89.064 100.308 88.98 99.9253 88.98C99.4679 88.98 99.0573 89.092 98.6933 89.316C98.3386 89.54 98.0539 89.848 97.8392 90.24C97.6339 90.632 97.5312 91.08 97.5312 91.584C97.5312 92.0787 97.6339 92.5267 97.8392 92.928C98.0539 93.32 98.3386 93.6327 98.6933 93.866C99.0573 94.09 99.4679 94.202 99.9253 94.202ZM109.115 95V89.008H107.589V88.168H109.115V86.74C109.115 86.068 109.293 85.55 109.647 85.186C110.002 84.822 110.506 84.64 111.159 84.64C111.346 84.64 111.514 84.6493 111.663 84.668C111.822 84.6867 111.962 84.7193 112.083 84.766V85.69C111.934 85.6433 111.799 85.6107 111.677 85.592C111.556 85.5733 111.416 85.564 111.257 85.564C110.865 85.564 110.581 85.662 110.403 85.858C110.226 86.0447 110.137 86.3433 110.137 86.754V88.168H112.083V89.008H110.137V95H109.115ZM113.415 95V88.168H114.437V95H113.415ZM113.933 86.474C113.728 86.474 113.55 86.404 113.401 86.264C113.261 86.1147 113.191 85.942 113.191 85.746C113.191 85.55 113.261 85.382 113.401 85.242C113.55 85.0927 113.728 85.018 113.933 85.018C114.138 85.018 114.311 85.0927 114.451 85.242C114.6 85.382 114.675 85.55 114.675 85.746C114.675 85.942 114.6 86.1147 114.451 86.264C114.311 86.404 114.138 86.474 113.933 86.474ZM116.532 95V84.892L117.554 84.682V95H116.532ZM122.73 95.14C122.095 95.14 121.521 94.986 121.008 94.678C120.494 94.3607 120.088 93.936 119.79 93.404C119.491 92.8627 119.342 92.256 119.342 91.584C119.342 90.912 119.482 90.31 119.762 89.778C120.051 89.246 120.438 88.826 120.924 88.518C121.409 88.21 121.95 88.056 122.548 88.056C123.154 88.056 123.691 88.21 124.158 88.518C124.634 88.8167 125.007 89.2273 125.278 89.75C125.558 90.2633 125.698 90.8467 125.698 91.5V91.808H120.336C120.373 92.2747 120.499 92.6947 120.714 93.068C120.938 93.432 121.227 93.7213 121.582 93.936C121.946 94.1413 122.342 94.244 122.772 94.244C123.126 94.244 123.467 94.1833 123.794 94.062C124.13 93.9313 124.414 93.7587 124.648 93.544L125.292 94.23C124.9 94.538 124.494 94.7667 124.074 94.916C123.654 95.0653 123.206 95.14 122.73 95.14ZM120.364 91.08H124.69C124.643 90.6693 124.517 90.3053 124.312 89.988C124.116 89.6613 123.864 89.4047 123.556 89.218C123.257 89.0313 122.921 88.938 122.548 88.938C122.174 88.938 121.834 89.0313 121.526 89.218C121.218 89.3953 120.961 89.6473 120.756 89.974C120.56 90.2913 120.429 90.66 120.364 91.08Z" fill="#151515"/>
<path d="M40 127.5C40 123.082 43.5817 119.5 48 119.5H344V135.5H48C43.5817 135.5 40 131.918 40 127.5V127.5Z" fill="#E0E0E0"/>
<path d="M344 119.5H640C644.418 119.5 648 123.082 648 127.5V127.5C648 131.918 644.418 135.5 640 135.5H344V119.5Z" fill="#E0E0E0"/>
<path d="M677.028 132.154C676.282 132.154 675.619 131.939 675.04 131.51C674.471 131.081 674.023 130.488 673.696 129.732C673.37 128.967 673.206 128.089 673.206 127.1C673.206 126.101 673.37 125.224 673.696 124.468C674.023 123.712 674.471 123.119 675.04 122.69C675.619 122.261 676.282 122.046 677.028 122.046C677.775 122.046 678.433 122.261 679.002 122.69C679.581 123.119 680.034 123.712 680.36 124.468C680.687 125.224 680.85 126.101 680.85 127.1C680.85 128.089 680.687 128.967 680.36 129.732C680.034 130.488 679.581 131.081 679.002 131.51C678.433 131.939 677.775 132.154 677.028 132.154ZM677.028 131.244C677.598 131.244 678.088 131.076 678.498 130.74C678.918 130.395 679.245 129.914 679.478 129.298C679.712 128.673 679.828 127.94 679.828 127.1C679.828 126.26 679.712 125.532 679.478 124.916C679.245 124.291 678.918 123.81 678.498 123.474C678.088 123.129 677.598 122.956 677.028 122.956C676.468 122.956 675.978 123.129 675.558 123.474C675.138 123.81 674.812 124.291 674.578 124.916C674.345 125.532 674.228 126.26 674.228 127.1C674.228 127.94 674.345 128.673 674.578 129.298C674.812 129.914 675.138 130.395 675.558 130.74C675.978 131.076 676.468 131.244 677.028 131.244ZM684.1 127.17C683.494 127.17 682.999 126.937 682.616 126.47C682.243 126.003 682.056 125.397 682.056 124.65C682.056 123.903 682.243 123.297 682.616 122.83C682.999 122.363 683.494 122.13 684.1 122.13C684.707 122.13 685.197 122.363 685.57 122.83C685.953 123.297 686.144 123.903 686.144 124.65C686.144 125.397 685.953 126.003 685.57 126.47C685.197 126.937 684.707 127.17 684.1 127.17ZM684.1 126.54C684.511 126.54 684.838 126.372 685.08 126.036C685.323 125.691 685.444 125.229 685.444 124.65C685.444 124.071 685.323 123.614 685.08 123.278C684.838 122.933 684.511 122.76 684.1 122.76C683.699 122.76 683.372 122.933 683.12 123.278C682.878 123.614 682.756 124.071 682.756 124.65C682.756 125.229 682.878 125.691 683.12 126.036C683.372 126.372 683.699 126.54 684.1 126.54ZM683.666 132L689.168 122.2H689.98L684.464 132H683.666ZM689.56 132.07C688.954 132.07 688.459 131.837 688.076 131.37C687.703 130.903 687.516 130.297 687.516 129.55C687.516 128.803 687.703 128.197 688.076 127.73C688.459 127.263 688.954 127.03 689.56 127.03C690.167 127.03 690.657 127.263 691.03 127.73C691.413 128.197 691.604 128.803 691.604 129.55C691.604 130.297 691.413 130.903 691.03 131.37C690.657 131.837 690.167 132.07 689.56 132.07ZM689.56 131.44C689.971 131.44 690.298 131.272 690.54 130.936C690.783 130.591 690.904 130.129 690.904 129.55C690.904 128.971 690.783 128.514 690.54 128.178C690.298 127.833 689.971 127.66 689.56 127.66C689.159 127.66 688.832 127.833 688.58 128.178C688.338 128.514 688.216 128.971 688.216 129.55C688.216 130.129 688.338 130.591 688.58 130.936C688.832 131.272 689.159 131.44 689.56 131.44Z" fill="#151515"/>
<path d="M43.962 177L40.126 167.2H41.274L44.634 175.964L48.008 167.2H49.114L45.25 177H43.962ZM51.7089 177.126C51.2236 177.126 50.7943 177.037 50.4209 176.86C50.0476 176.683 49.7536 176.44 49.5389 176.132C49.3336 175.815 49.2309 175.451 49.2309 175.04C49.2309 174.629 49.3383 174.275 49.5529 173.976C49.7676 173.668 50.0663 173.43 50.4489 173.262C50.8316 173.094 51.2796 173.01 51.7929 173.01C52.1849 173.01 52.5536 173.052 52.8989 173.136C53.2536 173.22 53.5803 173.355 53.8789 173.542V172.604C53.8789 172.044 53.7296 171.624 53.4309 171.344C53.1323 171.055 52.6936 170.91 52.1149 170.91C51.7976 170.91 51.4709 170.957 51.1349 171.05C50.8083 171.143 50.4443 171.293 50.0429 171.498L49.6649 170.714C50.5796 170.275 51.4383 170.056 52.2409 170.056C53.0903 170.056 53.7436 170.266 54.2009 170.686C54.6583 171.097 54.8869 171.689 54.8869 172.464V177H53.8789V176.202C53.5803 176.51 53.2489 176.743 52.8849 176.902C52.5209 177.051 52.1289 177.126 51.7089 177.126ZM50.2109 175.012C50.2109 175.413 50.3649 175.735 50.6729 175.978C50.9903 176.221 51.4056 176.342 51.9189 176.342C52.3016 176.342 52.6516 176.277 52.9689 176.146C53.2956 176.015 53.5989 175.819 53.8789 175.558V174.242C53.5896 174.074 53.2909 173.953 52.9829 173.878C52.6749 173.794 52.3296 173.752 51.9469 173.752C51.4243 173.752 51.0043 173.869 50.6869 174.102C50.3696 174.326 50.2109 174.629 50.2109 175.012ZM56.9641 177V166.892L57.9861 166.682V177H56.9641ZM60.0673 177V170.168H61.0892V177H60.0673ZM60.5853 168.474C60.3799 168.474 60.2026 168.404 60.0533 168.264C59.9133 168.115 59.8433 167.942 59.8433 167.746C59.8433 167.55 59.9133 167.382 60.0533 167.242C60.2026 167.093 60.3799 167.018 60.5853 167.018C60.7906 167.018 60.9633 167.093 61.1033 167.242C61.2526 167.382 61.3273 167.55 61.3273 167.746C61.3273 167.942 61.2526 168.115 61.1033 168.264C60.9633 168.404 60.7906 168.474 60.5853 168.474ZM66.0268 177.098C65.4388 177.098 64.9068 176.944 64.4308 176.636C63.9548 176.319 63.5768 175.899 63.2968 175.376C63.0168 174.844 62.8768 174.251 62.8768 173.598C62.8768 172.935 63.0168 172.343 63.2968 171.82C63.5861 171.288 63.9734 170.868 64.4588 170.56C64.9441 170.243 65.4854 170.084 66.0828 170.084C66.5028 170.084 66.8948 170.168 67.2588 170.336C67.6228 170.495 67.9401 170.728 68.2108 171.036V166.892L69.2328 166.682V177H68.2108V176.09C67.9494 176.417 67.6321 176.669 67.2588 176.846C66.8854 177.014 66.4748 177.098 66.0268 177.098ZM66.2788 176.202C66.6801 176.202 67.0488 176.123 67.3848 175.964C67.7208 175.805 67.9961 175.581 68.2108 175.292V171.904C67.9868 171.615 67.7021 171.391 67.3568 171.232C67.0208 171.064 66.6614 170.98 66.2788 170.98C65.8214 170.98 65.4108 171.092 65.0468 171.316C64.6921 171.54 64.4074 171.848 64.1928 172.24C63.9874 172.632 63.8848 173.08 63.8848 173.584C63.8848 174.079 63.9874 174.527 64.1928 174.928C64.4074 175.32 64.6921 175.633 65.0468 175.866C65.4108 176.09 65.8214 176.202 66.2788 176.202ZM73.4472 177.126C72.9619 177.126 72.5325 177.037 72.1592 176.86C71.7859 176.683 71.4919 176.44 71.2772 176.132C71.0719 175.815 70.9692 175.451 70.9692 175.04C70.9692 174.629 71.0765 174.275 71.2912 173.976C71.5059 173.668 71.8045 173.43 72.1872 173.262C72.5699 173.094 73.0179 173.01 73.5312 173.01C73.9232 173.01 74.2919 173.052 74.6372 173.136C74.9919 173.22 75.3185 173.355 75.6172 173.542V172.604C75.6172 172.044 75.4679 171.624 75.1692 171.344C74.8705 171.055 74.4319 170.91 73.8532 170.91C73.5359 170.91 73.2092 170.957 72.8732 171.05C72.5465 171.143 72.1825 171.293 71.7812 171.498L71.4032 170.714C72.3179 170.275 73.1765 170.056 73.9792 170.056C74.8285 170.056 75.4819 170.266 75.9392 170.686C76.3965 171.097 76.6252 171.689 76.6252 172.464V177H75.6172V176.202C75.3185 176.51 74.9872 176.743 74.6232 176.902C74.2592 177.051 73.8672 177.126 73.4472 177.126ZM71.9492 175.012C71.9492 175.413 72.1032 175.735 72.4112 175.978C72.7285 176.221 73.1439 176.342 73.6572 176.342C74.0399 176.342 74.3899 176.277 74.7072 176.146C75.0339 176.015 75.3372 175.819 75.6172 175.558V174.242C75.3279 174.074 75.0292 173.953 74.7212 173.878C74.4132 173.794 74.0679 173.752 73.6852 173.752C73.1625 173.752 72.7425 173.869 72.4252 174.102C72.1079 174.326 71.9492 174.629 71.9492 175.012ZM81.1013 177.14C80.5133 177.14 80.0653 177 79.7573 176.72C79.4586 176.431 79.3093 176.015 79.3093 175.474V171.008H77.8953V170.168H79.3093V168.292L80.3313 168.054V170.168H82.2913V171.008H80.3313V175.208C80.3313 175.572 80.4059 175.833 80.5553 175.992C80.7139 176.151 80.9706 176.23 81.3253 176.23C81.5026 176.23 81.6613 176.216 81.8013 176.188C81.9413 176.16 82.1046 176.113 82.2913 176.048V176.958C82.1046 177.023 81.9086 177.07 81.7033 177.098C81.4979 177.126 81.2973 177.14 81.1013 177.14ZM83.7743 177V170.168H84.7963V177H83.7743ZM84.2923 168.474C84.0869 168.474 83.9096 168.404 83.7603 168.264C83.6203 168.115 83.5503 167.942 83.5503 167.746C83.5503 167.55 83.6203 167.382 83.7603 167.242C83.9096 167.093 84.0869 167.018 84.2923 167.018C84.4976 167.018 84.6703 167.093 84.8103 167.242C84.9596 167.382 85.0343 167.55 85.0343 167.746C85.0343 167.942 84.9596 168.115 84.8103 168.264C84.6703 168.404 84.4976 168.474 84.2923 168.474ZM86.8918 177V170.168H87.9138V171.274C88.1751 170.863 88.4878 170.56 88.8518 170.364C89.2158 170.159 89.6265 170.056 90.0838 170.056C90.5785 170.056 91.0078 170.163 91.3718 170.378C91.7451 170.583 92.0345 170.877 92.2398 171.26C92.4545 171.633 92.5618 172.072 92.5618 172.576V177H91.5398V172.87C91.5398 172.263 91.3718 171.787 91.0358 171.442C90.7091 171.087 90.2658 170.91 89.7058 170.91C89.3325 170.91 88.9918 170.999 88.6838 171.176C88.3758 171.353 88.1191 171.615 87.9138 171.96V177H86.8918ZM97.7804 180.066C97.3231 180.066 96.8611 180.001 96.3944 179.87C95.9371 179.749 95.5124 179.576 95.1204 179.352L95.5544 178.568C95.9744 178.783 96.3571 178.941 96.7024 179.044C97.0477 179.147 97.3931 179.198 97.7384 179.198C98.3637 179.198 98.8351 179.049 99.1524 178.75C99.4791 178.451 99.6424 178.017 99.6424 177.448V176.076C99.3811 176.403 99.0637 176.655 98.6904 176.832C98.3171 177 97.9064 177.084 97.4584 177.084C96.8704 177.084 96.3384 176.93 95.8624 176.622C95.3864 176.305 95.0084 175.885 94.7284 175.362C94.4484 174.83 94.3084 174.237 94.3084 173.584C94.3084 172.931 94.4484 172.343 94.7284 171.82C95.0177 171.288 95.4051 170.868 95.8904 170.56C96.3757 170.243 96.9171 170.084 97.5144 170.084C97.9437 170.084 98.3404 170.168 98.7044 170.336C99.0684 170.495 99.3857 170.733 99.6564 171.05V170.168H100.664V177.434C100.664 178.283 100.417 178.932 99.9224 179.38C99.4277 179.837 98.7137 180.066 97.7804 180.066ZM97.7104 176.202C98.1117 176.202 98.4804 176.123 98.8164 175.964C99.1524 175.796 99.4277 175.567 99.6424 175.278V171.904C99.4184 171.615 99.1337 171.391 98.7884 171.232C98.4524 171.064 98.0931 170.98 97.7104 170.98C97.2531 170.98 96.8424 171.092 96.4784 171.316C96.1237 171.54 95.8391 171.848 95.6244 172.24C95.4191 172.632 95.3164 173.08 95.3164 173.584C95.3164 174.079 95.4191 174.527 95.6244 174.928C95.8391 175.32 96.1237 175.633 96.4784 175.866C96.8424 176.09 97.2531 176.202 97.7104 176.202ZM109.098 177.112C108.464 177.112 107.89 176.958 107.376 176.65C106.872 176.333 106.471 175.908 106.172 175.376C105.874 174.835 105.724 174.237 105.724 173.584C105.724 172.921 105.874 172.324 106.172 171.792C106.471 171.26 106.872 170.84 107.376 170.532C107.89 170.215 108.464 170.056 109.098 170.056C109.602 170.056 110.083 170.149 110.54 170.336C110.998 170.523 111.394 170.784 111.73 171.12L111.072 171.834C110.83 171.563 110.536 171.353 110.19 171.204C109.845 171.055 109.495 170.98 109.14 170.98C108.692 170.98 108.286 171.097 107.922 171.33C107.568 171.563 107.283 171.876 107.068 172.268C106.854 172.66 106.746 173.099 106.746 173.584C106.746 174.069 106.854 174.508 107.068 174.9C107.283 175.292 107.568 175.605 107.922 175.838C108.286 176.071 108.692 176.188 109.14 176.188C109.495 176.188 109.845 176.113 110.19 175.964C110.536 175.805 110.83 175.595 111.072 175.334L111.73 176.048C111.394 176.384 110.998 176.645 110.54 176.832C110.083 177.019 109.602 177.112 109.098 177.112ZM113.155 177V170.168H114.177V171.568C114.355 171.092 114.607 170.723 114.933 170.462C115.269 170.191 115.652 170.056 116.081 170.056C116.203 170.056 116.315 170.065 116.417 170.084C116.52 170.093 116.623 170.117 116.725 170.154V171.078C116.613 171.041 116.492 171.013 116.361 170.994C116.24 170.966 116.123 170.952 116.011 170.952C115.591 170.952 115.223 171.073 114.905 171.316C114.597 171.559 114.355 171.899 114.177 172.338V177H113.155ZM120.734 177.14C120.099 177.14 119.525 176.986 119.012 176.678C118.498 176.361 118.092 175.936 117.794 175.404C117.495 174.863 117.346 174.256 117.346 173.584C117.346 172.912 117.486 172.31 117.766 171.778C118.055 171.246 118.442 170.826 118.928 170.518C119.413 170.21 119.954 170.056 120.552 170.056C121.158 170.056 121.695 170.21 122.162 170.518C122.638 170.817 123.011 171.227 123.282 171.75C123.562 172.263 123.702 172.847 123.702 173.5V173.808H118.34C118.377 174.275 118.503 174.695 118.718 175.068C118.942 175.432 119.231 175.721 119.586 175.936C119.95 176.141 120.346 176.244 120.776 176.244C121.13 176.244 121.471 176.183 121.798 176.062C122.134 175.931 122.418 175.759 122.652 175.544L123.296 176.23C122.904 176.538 122.498 176.767 122.078 176.916C121.658 177.065 121.21 177.14 120.734 177.14ZM118.368 173.08H122.694C122.647 172.669 122.521 172.305 122.316 171.988C122.12 171.661 121.868 171.405 121.56 171.218C121.261 171.031 120.925 170.938 120.552 170.938C120.178 170.938 119.838 171.031 119.53 171.218C119.222 171.395 118.965 171.647 118.76 171.974C118.564 172.291 118.433 172.66 118.368 173.08ZM128.288 177.098C127.7 177.098 127.168 176.944 126.692 176.636C126.216 176.319 125.838 175.899 125.558 175.376C125.278 174.844 125.138 174.251 125.138 173.598C125.138 172.935 125.278 172.343 125.558 171.82C125.848 171.288 126.235 170.868 126.72 170.56C127.206 170.243 127.747 170.084 128.344 170.084C128.764 170.084 129.156 170.168 129.52 170.336C129.884 170.495 130.202 170.728 130.472 171.036V166.892L131.494 166.682V177H130.472V176.09C130.211 176.417 129.894 176.669 129.52 176.846C129.147 177.014 128.736 177.098 128.288 177.098ZM128.54 176.202C128.942 176.202 129.31 176.123 129.646 175.964C129.982 175.805 130.258 175.581 130.472 175.292V171.904C130.248 171.615 129.964 171.391 129.618 171.232C129.282 171.064 128.923 170.98 128.54 170.98C128.083 170.98 127.672 171.092 127.308 171.316C126.954 171.54 126.669 171.848 126.454 172.24C126.249 172.632 126.146 173.08 126.146 173.584C126.146 174.079 126.249 174.527 126.454 174.928C126.669 175.32 126.954 175.633 127.308 175.866C127.672 176.09 128.083 176.202 128.54 176.202ZM136.675 177.14C136.04 177.14 135.466 176.986 134.953 176.678C134.44 176.361 134.034 175.936 133.735 175.404C133.436 174.863 133.287 174.256 133.287 173.584C133.287 172.912 133.427 172.31 133.707 171.778C133.996 171.246 134.384 170.826 134.869 170.518C135.354 170.21 135.896 170.056 136.493 170.056C137.1 170.056 137.636 170.21 138.103 170.518C138.579 170.817 138.952 171.227 139.223 171.75C139.503 172.263 139.643 172.847 139.643 173.5V173.808H134.281C134.318 174.275 134.444 174.695 134.659 175.068C134.883 175.432 135.172 175.721 135.527 175.936C135.891 176.141 136.288 176.244 136.717 176.244C137.072 176.244 137.412 176.183 137.739 176.062C138.075 175.931 138.36 175.759 138.593 175.544L139.237 176.23C138.845 176.538 138.439 176.767 138.019 176.916C137.599 177.065 137.151 177.14 136.675 177.14ZM134.309 173.08H138.635C138.588 172.669 138.462 172.305 138.257 171.988C138.061 171.661 137.809 171.405 137.501 171.218C137.202 171.031 136.866 170.938 136.493 170.938C136.12 170.938 135.779 171.031 135.471 171.218C135.163 171.395 134.906 171.647 134.701 171.974C134.505 172.291 134.374 172.66 134.309 173.08ZM141.388 177V170.168H142.41V171.274C142.671 170.863 142.984 170.56 143.348 170.364C143.712 170.159 144.123 170.056 144.58 170.056C145.075 170.056 145.504 170.163 145.868 170.378C146.241 170.583 146.531 170.877 146.736 171.26C146.951 171.633 147.058 172.072 147.058 172.576V177H146.036V172.87C146.036 172.263 145.868 171.787 145.532 171.442C145.205 171.087 144.762 170.91 144.202 170.91C143.829 170.91 143.488 170.999 143.18 171.176C142.872 171.353 142.615 171.615 142.41 171.96V177H141.388ZM151.511 177.14C150.923 177.14 150.475 177 150.167 176.72C149.869 176.431 149.719 176.015 149.719 175.474V171.008H148.305V170.168H149.719V168.292L150.741 168.054V170.168H152.701V171.008H150.741V175.208C150.741 175.572 150.816 175.833 150.965 175.992C151.124 176.151 151.381 176.23 151.735 176.23C151.913 176.23 152.071 176.216 152.211 176.188C152.351 176.16 152.515 176.113 152.701 176.048V176.958C152.515 177.023 152.319 177.07 152.113 177.098C151.908 177.126 151.707 177.14 151.511 177.14ZM154.184 177V170.168H155.206V177H154.184ZM154.702 168.474C154.497 168.474 154.32 168.404 154.17 168.264C154.03 168.115 153.96 167.942 153.96 167.746C153.96 167.55 154.03 167.382 154.17 167.242C154.32 167.093 154.497 167.018 154.702 167.018C154.908 167.018 155.08 167.093 155.22 167.242C155.37 167.382 155.444 167.55 155.444 167.746C155.444 167.942 155.37 168.115 155.22 168.264C155.08 168.404 154.908 168.474 154.702 168.474ZM159.416 177.126C158.931 177.126 158.501 177.037 158.128 176.86C157.755 176.683 157.461 176.44 157.246 176.132C157.041 175.815 156.938 175.451 156.938 175.04C156.938 174.629 157.045 174.275 157.26 173.976C157.475 173.668 157.773 173.43 158.156 173.262C158.539 173.094 158.987 173.01 159.5 173.01C159.892 173.01 160.261 173.052 160.606 173.136C160.961 173.22 161.287 173.355 161.586 173.542V172.604C161.586 172.044 161.437 171.624 161.138 171.344C160.839 171.055 160.401 170.91 159.822 170.91C159.505 170.91 159.178 170.957 158.842 171.05C158.515 171.143 158.151 171.293 157.75 171.498L157.372 170.714C158.287 170.275 159.145 170.056 159.948 170.056C160.797 170.056 161.451 170.266 161.908 170.686C162.365 171.097 162.594 171.689 162.594 172.464V177H161.586V176.202C161.287 176.51 160.956 176.743 160.592 176.902C160.228 177.051 159.836 177.126 159.416 177.126ZM157.918 175.012C157.918 175.413 158.072 175.735 158.38 175.978C158.697 176.221 159.113 176.342 159.626 176.342C160.009 176.342 160.359 176.277 160.676 176.146C161.003 176.015 161.306 175.819 161.586 175.558V174.242C161.297 174.074 160.998 173.953 160.69 173.878C160.382 173.794 160.037 173.752 159.654 173.752C159.131 173.752 158.711 173.869 158.394 174.102C158.077 174.326 157.918 174.629 157.918 175.012ZM164.671 177V166.892L165.693 166.682V177H164.671ZM169.902 177.14C169.342 177.14 168.824 177.056 168.348 176.888C167.872 176.711 167.466 176.459 167.13 176.132L167.676 175.46C168.087 175.759 168.465 175.978 168.81 176.118C169.156 176.249 169.51 176.314 169.874 176.314C170.369 176.314 170.78 176.197 171.106 175.964C171.433 175.731 171.596 175.432 171.596 175.068C171.596 174.788 171.498 174.569 171.302 174.41C171.116 174.251 170.803 174.13 170.364 174.046L169.244 173.85C168.582 173.729 168.092 173.523 167.774 173.234C167.466 172.945 167.312 172.553 167.312 172.058C167.312 171.666 167.415 171.321 167.62 171.022C167.835 170.723 168.129 170.49 168.502 170.322C168.876 170.145 169.3 170.056 169.776 170.056C170.243 170.056 170.686 170.126 171.106 170.266C171.526 170.397 171.951 170.611 172.38 170.91L171.876 171.624C171.522 171.372 171.167 171.19 170.812 171.078C170.458 170.957 170.098 170.896 169.734 170.896C169.286 170.896 168.927 170.994 168.656 171.19C168.386 171.386 168.25 171.652 168.25 171.988C168.25 172.268 168.334 172.483 168.502 172.632C168.68 172.781 168.988 172.893 169.426 172.968L170.574 173.178C171.265 173.299 171.769 173.509 172.086 173.808C172.404 174.107 172.562 174.508 172.562 175.012C172.562 175.413 172.446 175.777 172.212 176.104C171.979 176.421 171.662 176.673 171.26 176.86C170.859 177.047 170.406 177.14 169.902 177.14Z" fill="#151515"/>
<path d="M40 209.5C40 205.082 43.5817 201.5 48 201.5H344V217.5H48C43.5817 217.5 40 213.918 40 209.5V209.5Z" fill="#0066CC"/>
<path d="M344 201.5H640C644.418 201.5 648 205.082 648 209.5V209.5C648 213.918 644.418 217.5 640 217.5H344V201.5Z" fill="#E0E0E0"/>
<path d="M668.274 214.154C666.986 214.154 665.875 213.711 664.942 212.824L665.572 212.138C666.001 212.539 666.426 212.833 666.846 213.02C667.275 213.197 667.756 213.286 668.288 213.286C668.764 213.286 669.184 213.188 669.548 212.992C669.912 212.796 670.192 212.521 670.388 212.166C670.593 211.811 670.696 211.405 670.696 210.948C670.696 210.295 670.472 209.767 670.024 209.366C669.585 208.965 669.006 208.764 668.288 208.764C667.914 208.764 667.55 208.811 667.196 208.904C666.841 208.988 666.472 209.128 666.09 209.324L665.39 209.1L665.614 204.2H671.186V205.082H666.482L666.328 208.47C666.701 208.283 667.06 208.153 667.406 208.078C667.751 207.994 668.115 207.952 668.498 207.952C669.142 207.952 669.702 208.078 670.178 208.33C670.663 208.573 671.036 208.918 671.298 209.366C671.568 209.805 671.704 210.318 671.704 210.906C671.704 211.55 671.559 212.115 671.27 212.6C670.98 213.085 670.579 213.468 670.066 213.748C669.552 214.019 668.955 214.154 668.274 214.154ZM677.028 214.154C676.282 214.154 675.619 213.939 675.04 213.51C674.471 213.081 674.023 212.488 673.696 211.732C673.37 210.967 673.206 210.089 673.206 209.1C673.206 208.101 673.37 207.224 673.696 206.468C674.023 205.712 674.471 205.119 675.04 204.69C675.619 204.261 676.282 204.046 677.028 204.046C677.775 204.046 678.433 204.261 679.002 204.69C679.581 205.119 680.034 205.712 680.36 206.468C680.687 207.224 680.85 208.101 680.85 209.1C680.85 210.089 680.687 210.967 680.36 211.732C680.034 212.488 679.581 213.081 679.002 213.51C678.433 213.939 677.775 214.154 677.028 214.154ZM677.028 213.244C677.598 213.244 678.088 213.076 678.498 212.74C678.918 212.395 679.245 211.914 679.478 211.298C679.712 210.673 679.828 209.94 679.828 209.1C679.828 208.26 679.712 207.532 679.478 206.916C679.245 206.291 678.918 205.81 678.498 205.474C678.088 205.129 677.598 204.956 677.028 204.956C676.468 204.956 675.978 205.129 675.558 205.474C675.138 205.81 674.812 206.291 674.578 206.916C674.345 207.532 674.228 208.26 674.228 209.1C674.228 209.94 674.345 210.673 674.578 211.298C674.812 211.914 675.138 212.395 675.558 212.74C675.978 213.076 676.468 213.244 677.028 213.244ZM684.1 209.17C683.494 209.17 682.999 208.937 682.616 208.47C682.243 208.003 682.056 207.397 682.056 206.65C682.056 205.903 682.243 205.297 682.616 204.83C682.999 204.363 683.494 204.13 684.1 204.13C684.707 204.13 685.197 204.363 685.57 204.83C685.953 205.297 686.144 205.903 686.144 206.65C686.144 207.397 685.953 208.003 685.57 208.47C685.197 208.937 684.707 209.17 684.1 209.17ZM684.1 208.54C684.511 208.54 684.838 208.372 685.08 208.036C685.323 207.691 685.444 207.229 685.444 206.65C685.444 206.071 685.323 205.614 685.08 205.278C684.838 204.933 684.511 204.76 684.1 204.76C683.699 204.76 683.372 204.933 683.12 205.278C682.878 205.614 682.756 206.071 682.756 206.65C682.756 207.229 682.878 207.691 683.12 208.036C683.372 208.372 683.699 208.54 684.1 208.54ZM683.666 214L689.168 204.2H689.98L684.464 214H683.666ZM689.56 214.07C688.954 214.07 688.459 213.837 688.076 213.37C687.703 212.903 687.516 212.297 687.516 211.55C687.516 210.803 687.703 210.197 688.076 209.73C688.459 209.263 688.954 209.03 689.56 209.03C690.167 209.03 690.657 209.263 691.03 209.73C691.413 210.197 691.604 210.803 691.604 211.55C691.604 212.297 691.413 212.903 691.03 213.37C690.657 213.837 690.167 214.07 689.56 214.07ZM689.56 213.44C689.971 213.44 690.298 213.272 690.54 212.936C690.783 212.591 690.904 212.129 690.904 211.55C690.904 210.971 690.783 210.514 690.54 210.178C690.298 209.833 689.971 209.66 689.56 209.66C689.159 209.66 688.832 209.833 688.58 210.178C688.338 210.514 688.216 210.971 688.216 211.55C688.216 212.129 688.338 212.591 688.58 212.936C688.832 213.272 689.159 213.44 689.56 213.44Z" fill="#151515"/>
<path d="M62 28C62 25.7909 63.7909 24 66 24H96C98.2091 24 100 25.7909 100 28V52C100 54.2091 98.2091 56 96 56H66C63.7909 56 62 54.2091 62 52V28Z" fill="#C806CC"/>
<path d="M80.8879 46V35.254L78.6199 36.208V34.624L81.5359 33.4H82.6699V46H80.8879Z" fill="white"/>
<path d="M81 69.3333C79.5272 69.3333 78.3333 70.5272 78.3333 72C78.3333 73.4728 79.5272 74.6667 81 74.6667C82.4728 74.6667 83.6667 73.4728 83.6667 72C83.6667 70.5272 82.4728 69.3333 81 69.3333ZM81 56L80.5 56L80.5 72L81 72L81.5 72L81.5 56L81 56Z" fill="#C806CC"/>
<path d="M658 65C658 62.7909 659.791 61 662 61H697C699.209 61 701 62.7909 701 65V89C701 91.2091 699.209 93 697 93H662C659.791 93 658 91.2091 658 89V65Z" fill="#C806CC"/>
<path d="M679.359 83.198C678.459 83.198 677.613 83.042 676.821 82.73C676.041 82.406 675.363 81.944 674.787 81.344L675.957 80.228C676.461 80.756 676.971 81.134 677.487 81.362C678.015 81.578 678.633 81.686 679.341 81.686C680.193 81.686 680.883 81.476 681.411 81.056C681.951 80.636 682.221 80.096 682.221 79.436C682.221 78.812 681.993 78.308 681.537 77.924C681.093 77.54 680.517 77.348 679.809 77.348H678.279V75.89H679.683C680.319 75.89 680.829 75.704 681.213 75.332C681.597 74.96 681.789 74.474 681.789 73.874C681.789 73.466 681.681 73.106 681.465 72.794C681.249 72.47 680.949 72.218 680.565 72.038C680.193 71.846 679.767 71.75 679.287 71.75C678.651 71.75 678.087 71.864 677.595 72.092C677.115 72.308 676.617 72.692 676.101 73.244L674.931 72.128C675.507 71.504 676.173 71.03 676.929 70.706C677.685 70.37 678.483 70.202 679.323 70.202C680.139 70.202 680.859 70.352 681.483 70.652C682.119 70.952 682.617 71.366 682.977 71.894C683.349 72.422 683.535 73.028 683.535 73.712C683.535 74.384 683.313 74.978 682.869 75.494C682.437 76.01 681.867 76.37 681.159 76.574C682.011 76.754 682.689 77.114 683.193 77.654C683.697 78.182 683.949 78.806 683.949 79.526C683.949 80.234 683.751 80.864 683.355 81.416C682.971 81.968 682.431 82.406 681.735 82.73C681.039 83.042 680.247 83.198 679.359 83.198Z" fill="white"/>
<path d="M679.5 106.333C678.027 106.333 676.833 107.527 676.833 109C676.833 110.473 678.027 111.667 679.5 111.667C680.973 111.667 682.167 110.473 682.167 109C682.167 107.527 680.973 106.333 679.5 106.333ZM679.5 93L679 93L679 109L679.5 109L680 109L680 93L679.5 93Z" fill="#C806CC"/>
<path d="M323 75C323 72.7909 324.791 71 327 71H361C363.209 71 365 72.7909 365 75V99C365 101.209 363.209 103 361 103H327C324.791 103 323 101.209 323 99V75Z" fill="#C806CC"/>
<path d="M339.89 93V91.74L345.002 86.304C345.518 85.764 345.866 85.302 346.046 84.918C346.238 84.534 346.334 84.126 346.334 83.694C346.334 83.13 346.106 82.662 345.65 82.29C345.194 81.918 344.618 81.732 343.922 81.732C343.346 81.732 342.806 81.846 342.302 82.074C341.798 82.302 341.24 82.698 340.628 83.262L339.656 82.074C340.988 80.826 342.422 80.202 343.958 80.202C344.762 80.202 345.47 80.346 346.082 80.634C346.694 80.922 347.168 81.324 347.504 81.84C347.852 82.344 348.026 82.926 348.026 83.586C348.026 84.006 347.972 84.396 347.864 84.756C347.756 85.104 347.57 85.476 347.306 85.872C347.042 86.256 346.67 86.7 346.19 87.204L342.086 91.524L348.278 91.506V93H339.89Z" fill="white"/>
<path d="M344 116.333C342.527 116.333 341.333 117.527 341.333 119C341.333 120.473 342.527 121.667 344 121.667C345.473 121.667 346.667 120.473 346.667 119C346.667 117.527 345.473 116.333 344 116.333ZM344 103L343.5 103L343.5 119L344 119L344.5 119L344.5 103L344 103Z" fill="#C806CC"/>
<path d="M302 215.333C300.527 215.333 299.333 216.527 299.333 218C299.333 219.473 300.527 220.667 302 220.667C303.473 220.667 304.667 219.473 304.667 218C304.667 216.527 303.473 215.333 302 215.333ZM302 218L301.5 218L301.5 234L302 234L302.5 234L302.5 218L302 218Z" fill="#C806CC"/>
<path d="M280 238C280 235.791 281.791 234 284 234H320C322.209 234 324 235.791 324 238V262C324 264.209 322.209 266 320 266H284C281.791 266 280 264.209 280 262V238Z" fill="#C806CC"/>
<path d="M303.866 256V252.796H296.72V251.374L303.65 243.4H305.648V251.284H307.178V252.796H305.648V256H303.866ZM298.862 251.284H303.866V245.524L298.862 251.284Z" fill="white"/>
</svg>
