<?xml version="1.0" encoding="utf-8"?>
<!-- Generator: Adobe Illustrator 24.0.1, SVG Export Plug-In . SVG Version: 6.00 Build 0)  -->
<svg version="1.1" id="Layer_1" xmlns="http://www.w3.org/2000/svg" xmlns:xlink="http://www.w3.org/1999/xlink" x="0px" y="0px"
	 viewBox="0 0 448 448" style="enable-background:new 0 0 448 448;" xml:space="preserve">
<path d="M422.4,64c0,0-25.6-35.2-48-44.8C304-19.2,217.6,6.4,179.2,73.6c-22.4,38.4-25.6,83.2-9.6,121.6L0,361.6V448h80v-48h48v-48
	h64l60.8-73.6c73.6,28.8,156.8-9.6,185.6-83.2C454.4,150.4,448,102.4,422.4,64z M387.2,96L387.2,96c0,25.6-19.2,44.8-44.8,44.8l0,0
	c-25.6,0-44.8-19.2-44.8-44.8s19.2-44.8,44.8-44.8C368,48,387.2,70.4,387.2,96L387.2,96z"/>
</svg>
