<svg width="427" height="416" viewBox="0 0 427 416" fill="none" xmlns="http://www.w3.org/2000/svg">
<g clip-path="url(#clip0_1649_83404)">
<rect width="427" height="416" fill="white"/>
<rect width="1120" height="958" transform="translate(40 24)" fill="#F2F2F2"/>
<rect width="1120" height="69" transform="translate(40 24)" fill="#F2F2F2"/>
<path d="M94.6426 66.6426C95.116 66.6426 95.5 67.0266 95.5 67.5V69.6426C95.5 70.116 95.116 70.5 94.6426 70.5H72.3574C71.884 70.5 71.5 70.116 71.5 69.6426V67.5C71.5 67.0266 71.884 66.6426 72.3574 66.6426H94.6426ZM94.6426 58.0713C95.116 58.0713 95.5 58.4553 95.5 58.9287V61.0713C95.5 61.5447 95.116 61.9287 94.6426 61.9287H72.3574C71.884 61.9287 71.5 61.5447 71.5 61.0713V58.9287C71.5 58.4553 71.884 58.0713 72.3574 58.0713H94.6426ZM94.6426 49.5C95.116 49.5 95.5 49.884 95.5 50.3574V52.5C95.5 52.9734 95.116 53.3574 94.6426 53.3574H72.3574C71.884 53.3574 71.5 52.9734 71.5 52.5V50.3574C71.5 49.884 71.884 49.5 72.3574 49.5H94.6426Z" fill="#1F1F1F"/>
<path fill-rule="evenodd" clip-rule="evenodd" d="M131.478 40H154V62.5217H151.587C140.481 62.5217 131.478 53.5188 131.478 42.413V40Z" fill="#0066CC"/>
<path fill-rule="evenodd" clip-rule="evenodd" d="M154 40.8043L132.283 77H149.317C151.903 77 154 74.9031 154 72.3165V40.8043Z" fill="url(#paint0_linear_1649_83404)"/>
<path fill-rule="evenodd" clip-rule="evenodd" d="M153.196 40L117 61.7174V44.6835C117 42.0969 119.097 40 121.683 40H153.196Z" fill="url(#paint1_linear_1649_83404)"/>
<rect width="254" height="768" transform="translate(40 93)" fill="#F2F2F2"/>
<path d="M85.754 132.154C85.0447 132.154 84.3867 132.023 83.78 131.762C83.1733 131.501 82.6367 131.141 82.17 130.684C81.7127 130.217 81.3533 129.681 81.092 129.074C80.84 128.458 80.714 127.8 80.714 127.1C80.714 126.4 80.84 125.747 81.092 125.14C81.3533 124.524 81.7127 123.987 82.17 123.53C82.6273 123.063 83.1593 122.699 83.766 122.438C84.3727 122.177 85.0307 122.046 85.74 122.046C86.524 122.046 87.2613 122.195 87.952 122.494C88.652 122.793 89.2353 123.227 89.702 123.796L88.526 124.846C88.19 124.426 87.7793 124.109 87.294 123.894C86.8087 123.67 86.2907 123.558 85.74 123.558C85.264 123.558 84.8253 123.647 84.424 123.824C84.0227 124.001 83.6727 124.253 83.374 124.58C83.0847 124.897 82.856 125.271 82.688 125.7C82.52 126.129 82.436 126.596 82.436 127.1C82.436 127.604 82.52 128.075 82.688 128.514C82.856 128.943 83.0893 129.317 83.388 129.634C83.696 129.951 84.0507 130.203 84.452 130.39C84.8533 130.567 85.2967 130.656 85.782 130.656C86.3047 130.656 86.776 130.549 87.196 130.334C87.616 130.11 87.9613 129.802 88.232 129.41C88.512 129.018 88.6847 128.579 88.75 128.094H85.838V126.652H90.528V127.198C90.528 127.907 90.4067 128.561 90.164 129.158C89.9307 129.755 89.5993 130.283 89.17 130.74C88.7407 131.188 88.2367 131.538 87.658 131.79C87.0793 132.033 86.4447 132.154 85.754 132.154ZM92.2046 132V124.986H93.7866V126.498C93.9919 125.966 94.2579 125.56 94.5846 125.28C94.9113 125 95.2893 124.86 95.7186 124.86C95.8493 124.869 95.9659 124.883 96.0686 124.902C96.1713 124.911 96.2833 124.944 96.4046 125V126.386C96.2833 126.33 96.1433 126.288 95.9846 126.26C95.8353 126.232 95.6859 126.218 95.5366 126.218C95.1539 126.218 94.8086 126.321 94.5006 126.526C94.2019 126.731 93.9639 127.016 93.7866 127.38V132H92.2046ZM100.579 132.126C99.9159 132.126 99.3139 131.967 98.7726 131.65C98.2406 131.333 97.8206 130.903 97.5126 130.362C97.2046 129.811 97.0506 129.191 97.0506 128.5C97.0506 127.809 97.2046 127.193 97.5126 126.652C97.8206 126.101 98.2406 125.667 98.7726 125.35C99.3046 125.033 99.9066 124.874 100.579 124.874C101.251 124.874 101.848 125.033 102.371 125.35C102.903 125.667 103.323 126.101 103.631 126.652C103.939 127.193 104.093 127.809 104.093 128.5C104.093 129.191 103.939 129.811 103.631 130.362C103.323 130.903 102.903 131.333 102.371 131.65C101.848 131.967 101.251 132.126 100.579 132.126ZM100.579 130.782C100.961 130.782 101.297 130.684 101.587 130.488C101.885 130.292 102.119 130.021 102.287 129.676C102.455 129.321 102.539 128.929 102.539 128.5C102.539 128.061 102.455 127.674 102.287 127.338C102.119 126.993 101.885 126.722 101.587 126.526C101.297 126.321 100.961 126.218 100.579 126.218C100.196 126.218 99.8552 126.321 99.5566 126.526C99.2579 126.722 99.0246 126.993 98.8566 127.338C98.6886 127.674 98.6046 128.061 98.6046 128.5C98.6046 128.939 98.6886 129.331 98.8566 129.676C99.0246 130.021 99.2579 130.292 99.5566 130.488C99.8552 130.684 100.196 130.782 100.579 130.782ZM108.12 132.112C107.635 132.112 107.21 132.005 106.846 131.79C106.482 131.575 106.193 131.281 105.978 130.908C105.773 130.535 105.67 130.101 105.67 129.606V124.986H107.266V129.144C107.266 129.667 107.401 130.082 107.672 130.39C107.952 130.689 108.33 130.838 108.806 130.838C109.123 130.838 109.408 130.768 109.66 130.628C109.921 130.488 110.145 130.278 110.332 129.998V124.986H111.914V132H110.332V130.866C110.061 131.277 109.739 131.589 109.366 131.804C108.993 132.009 108.577 132.112 108.12 132.112ZM113.875 134.926V124.986H115.429V125.98C115.681 125.644 115.993 125.387 116.367 125.21C116.749 125.023 117.165 124.93 117.613 124.93C118.21 124.93 118.747 125.089 119.223 125.406C119.699 125.723 120.077 126.153 120.357 126.694C120.637 127.235 120.777 127.837 120.777 128.5C120.777 129.163 120.632 129.765 120.343 130.306C120.053 130.847 119.661 131.277 119.167 131.594C118.672 131.911 118.121 132.07 117.515 132.07C117.095 132.07 116.707 131.995 116.353 131.846C116.007 131.687 115.709 131.463 115.457 131.174V134.926H113.875ZM117.137 130.754C117.538 130.754 117.893 130.656 118.201 130.46C118.518 130.264 118.765 129.998 118.943 129.662C119.129 129.317 119.223 128.929 119.223 128.5C119.223 128.071 119.129 127.688 118.943 127.352C118.765 127.016 118.518 126.75 118.201 126.554C117.893 126.358 117.538 126.26 117.137 126.26C116.791 126.26 116.474 126.33 116.185 126.47C115.895 126.601 115.653 126.792 115.457 127.044V129.97C115.662 130.213 115.909 130.404 116.199 130.544C116.488 130.684 116.801 130.754 117.137 130.754ZM125.578 132V121.962L127.16 121.682V126.134C127.43 125.714 127.752 125.401 128.126 125.196C128.499 124.981 128.914 124.874 129.372 124.874C129.857 124.874 130.282 124.981 130.646 125.196C131.01 125.401 131.294 125.691 131.5 126.064C131.714 126.437 131.822 126.876 131.822 127.38V132H130.226V127.828C130.226 127.315 130.086 126.909 129.806 126.61C129.526 126.302 129.152 126.148 128.686 126.148C128.368 126.148 128.079 126.223 127.818 126.372C127.566 126.512 127.346 126.722 127.16 127.002V132H125.578ZM136.988 132.14C136.316 132.14 135.709 131.981 135.168 131.664C134.627 131.337 134.197 130.903 133.88 130.362C133.563 129.811 133.404 129.191 133.404 128.5C133.404 127.809 133.553 127.193 133.852 126.652C134.151 126.111 134.557 125.681 135.07 125.364C135.593 125.037 136.171 124.874 136.806 124.874C137.459 124.874 138.033 125.033 138.528 125.35C139.032 125.667 139.424 126.097 139.704 126.638C139.993 127.179 140.138 127.8 140.138 128.5V128.878H134.958C135.014 129.261 135.135 129.601 135.322 129.9C135.518 130.189 135.765 130.418 136.064 130.586C136.372 130.754 136.703 130.838 137.058 130.838C137.385 130.838 137.693 130.782 137.982 130.67C138.281 130.549 138.528 130.385 138.724 130.18L139.76 131.118C139.331 131.473 138.892 131.734 138.444 131.902C138.005 132.061 137.52 132.14 136.988 132.14ZM134.972 127.898H138.64C138.584 127.562 138.467 127.263 138.29 127.002C138.122 126.741 137.907 126.535 137.646 126.386C137.394 126.237 137.114 126.162 136.806 126.162C136.498 126.162 136.213 126.237 135.952 126.386C135.7 126.526 135.49 126.727 135.322 126.988C135.154 127.249 135.037 127.553 134.972 127.898ZM143.811 132.126C143.326 132.126 142.892 132.037 142.509 131.86C142.136 131.673 141.842 131.421 141.627 131.104C141.422 130.777 141.319 130.404 141.319 129.984C141.319 129.564 141.426 129.2 141.641 128.892C141.865 128.584 142.178 128.346 142.579 128.178C142.98 128.01 143.456 127.926 144.007 127.926C144.334 127.926 144.656 127.963 144.973 128.038C145.29 128.103 145.598 128.215 145.897 128.374V127.59C145.897 127.123 145.762 126.773 145.491 126.54C145.23 126.307 144.828 126.19 144.287 126.19C143.998 126.19 143.685 126.237 143.349 126.33C143.022 126.414 142.654 126.549 142.243 126.736L141.683 125.588C142.71 125.112 143.68 124.874 144.595 124.874C145.51 124.874 146.214 125.098 146.709 125.546C147.213 125.985 147.465 126.61 147.465 127.422V132H145.897V131.272C145.598 131.561 145.276 131.776 144.931 131.916C144.586 132.056 144.212 132.126 143.811 132.126ZM142.803 129.956C142.803 130.283 142.934 130.539 143.195 130.726C143.456 130.913 143.806 131.006 144.245 131.006C144.562 131.006 144.856 130.959 145.127 130.866C145.407 130.763 145.664 130.614 145.897 130.418V129.284C145.654 129.172 145.402 129.088 145.141 129.032C144.88 128.976 144.595 128.948 144.287 128.948C143.83 128.948 143.466 129.037 143.195 129.214C142.934 129.391 142.803 129.639 142.803 129.956ZM152.222 132.07C151.634 132.07 151.102 131.911 150.626 131.594C150.15 131.267 149.768 130.838 149.478 130.306C149.198 129.765 149.058 129.163 149.058 128.5C149.058 127.828 149.203 127.226 149.492 126.694C149.782 126.153 150.174 125.723 150.668 125.406C151.172 125.089 151.728 124.93 152.334 124.93C152.736 124.93 153.109 125.009 153.454 125.168C153.809 125.317 154.117 125.541 154.378 125.84V121.962L155.96 121.682V132H154.392V131.076C154.14 131.393 153.828 131.641 153.454 131.818C153.081 131.986 152.67 132.07 152.222 132.07ZM152.712 130.74C153.048 130.74 153.361 130.675 153.65 130.544C153.94 130.404 154.182 130.213 154.378 129.97V127.016C154.173 126.773 153.926 126.587 153.636 126.456C153.347 126.325 153.039 126.26 152.712 126.26C152.311 126.26 151.952 126.358 151.634 126.554C151.326 126.741 151.079 127.002 150.892 127.338C150.706 127.674 150.612 128.061 150.612 128.5C150.612 128.92 150.706 129.303 150.892 129.648C151.079 129.984 151.326 130.25 151.634 130.446C151.952 130.642 152.311 130.74 152.712 130.74ZM161.187 132.14C160.515 132.14 159.909 131.981 159.367 131.664C158.826 131.337 158.397 130.903 158.079 130.362C157.762 129.811 157.603 129.191 157.603 128.5C157.603 127.809 157.753 127.193 158.051 126.652C158.35 126.111 158.756 125.681 159.269 125.364C159.792 125.037 160.371 124.874 161.005 124.874C161.659 124.874 162.233 125.033 162.727 125.35C163.231 125.667 163.623 126.097 163.903 126.638C164.193 127.179 164.337 127.8 164.337 128.5V128.878H159.157C159.213 129.261 159.335 129.601 159.521 129.9C159.717 130.189 159.965 130.418 160.263 130.586C160.571 130.754 160.903 130.838 161.257 130.838C161.584 130.838 161.892 130.782 162.181 130.67C162.48 130.549 162.727 130.385 162.923 130.18L163.959 131.118C163.53 131.473 163.091 131.734 162.643 131.902C162.205 132.061 161.719 132.14 161.187 132.14ZM159.171 127.898H162.839C162.783 127.562 162.667 127.263 162.489 127.002C162.321 126.741 162.107 126.535 161.845 126.386C161.593 126.237 161.313 126.162 161.005 126.162C160.697 126.162 160.413 126.237 160.151 126.386C159.899 126.526 159.689 126.727 159.521 126.988C159.353 127.249 159.237 127.553 159.171 127.898ZM165.951 132V124.986H167.533V126.498C167.738 125.966 168.004 125.56 168.331 125.28C168.657 125 169.035 124.86 169.465 124.86C169.595 124.869 169.712 124.883 169.815 124.902C169.917 124.911 170.029 124.944 170.151 125V126.386C170.029 126.33 169.889 126.288 169.731 126.26C169.581 126.232 169.432 126.218 169.283 126.218C168.9 126.218 168.555 126.321 168.247 126.526C167.948 126.731 167.71 127.016 167.533 127.38V132H165.951Z" fill="#151515"/>
<path d="M81.246 169V159.2H82.366L88.106 167.32L88.078 159.2H89.1V169H88.12L82.24 160.698L82.268 169H81.246ZM93.3769 169.126C92.8916 169.126 92.4622 169.037 92.0889 168.86C91.7156 168.683 91.4216 168.44 91.2069 168.132C91.0016 167.815 90.8989 167.451 90.8989 167.04C90.8989 166.629 91.0062 166.275 91.2209 165.976C91.4356 165.668 91.7342 165.43 92.1169 165.262C92.4996 165.094 92.9476 165.01 93.4609 165.01C93.8529 165.01 94.2216 165.052 94.5669 165.136C94.9216 165.22 95.2482 165.355 95.5469 165.542V164.604C95.5469 164.044 95.3976 163.624 95.0989 163.344C94.8002 163.055 94.3616 162.91 93.7829 162.91C93.4656 162.91 93.1389 162.957 92.8029 163.05C92.4762 163.143 92.1122 163.293 91.7109 163.498L91.3329 162.714C92.2476 162.275 93.1062 162.056 93.9089 162.056C94.7582 162.056 95.4116 162.266 95.8689 162.686C96.3262 163.097 96.5549 163.689 96.5549 164.464V169H95.5469V168.202C95.2482 168.51 94.9169 168.743 94.5529 168.902C94.1889 169.051 93.7969 169.126 93.3769 169.126ZM91.8789 167.012C91.8789 167.413 92.0329 167.735 92.3409 167.978C92.6582 168.221 93.0736 168.342 93.5869 168.342C93.9696 168.342 94.3196 168.277 94.6369 168.146C94.9636 168.015 95.2669 167.819 95.5469 167.558V166.242C95.2576 166.074 94.9589 165.953 94.6509 165.878C94.3429 165.794 93.9976 165.752 93.6149 165.752C93.0922 165.752 92.6722 165.869 92.3549 166.102C92.0376 166.326 91.8789 166.629 91.8789 167.012ZM100.319 169L97.5186 162.168H98.6246L100.837 167.726L103.021 162.168H104.113L101.299 169H100.319ZM108.626 169V162.168H109.648V169H108.626ZM109.144 160.474C108.939 160.474 108.761 160.404 108.612 160.264C108.472 160.115 108.402 159.942 108.402 159.746C108.402 159.55 108.472 159.382 108.612 159.242C108.761 159.093 108.939 159.018 109.144 159.018C109.349 159.018 109.522 159.093 109.662 159.242C109.811 159.382 109.886 159.55 109.886 159.746C109.886 159.942 109.811 160.115 109.662 160.264C109.522 160.404 109.349 160.474 109.144 160.474ZM114.347 169.14C113.759 169.14 113.311 169 113.003 168.72C112.705 168.431 112.555 168.015 112.555 167.474V163.008H111.141V162.168H112.555V160.292L113.577 160.054V162.168H115.537V163.008H113.577V167.208C113.577 167.572 113.652 167.833 113.801 167.992C113.96 168.151 114.217 168.23 114.571 168.23C114.749 168.23 114.907 168.216 115.047 168.188C115.187 168.16 115.351 168.113 115.537 168.048V168.958C115.351 169.023 115.155 169.07 114.949 169.098C114.744 169.126 114.543 169.14 114.347 169.14ZM119.978 169.14C119.343 169.14 118.769 168.986 118.256 168.678C117.742 168.361 117.336 167.936 117.038 167.404C116.739 166.863 116.59 166.256 116.59 165.584C116.59 164.912 116.73 164.31 117.01 163.778C117.299 163.246 117.686 162.826 118.172 162.518C118.657 162.21 119.198 162.056 119.796 162.056C120.402 162.056 120.939 162.21 121.406 162.518C121.882 162.817 122.255 163.227 122.526 163.75C122.806 164.263 122.946 164.847 122.946 165.5V165.808H117.584C117.621 166.275 117.747 166.695 117.962 167.068C118.186 167.432 118.475 167.721 118.83 167.936C119.194 168.141 119.59 168.244 120.02 168.244C120.374 168.244 120.715 168.183 121.042 168.062C121.378 167.931 121.662 167.759 121.896 167.544L122.54 168.23C122.148 168.538 121.742 168.767 121.322 168.916C120.902 169.065 120.454 169.14 119.978 169.14ZM117.612 165.08H121.938C121.891 164.669 121.765 164.305 121.56 163.988C121.364 163.661 121.112 163.405 120.804 163.218C120.505 163.031 120.169 162.938 119.796 162.938C119.422 162.938 119.082 163.031 118.774 163.218C118.466 163.395 118.209 163.647 118.004 163.974C117.808 164.291 117.677 164.66 117.612 165.08ZM124.691 169V162.168H125.713V163.232C125.974 162.84 126.273 162.546 126.609 162.35C126.945 162.154 127.323 162.056 127.743 162.056C128.228 162.056 128.653 162.177 129.017 162.42C129.381 162.653 129.656 162.975 129.843 163.386C130.113 162.947 130.435 162.616 130.809 162.392C131.191 162.168 131.63 162.056 132.125 162.056C132.582 162.056 132.983 162.163 133.329 162.378C133.683 162.593 133.959 162.891 134.155 163.274C134.351 163.647 134.449 164.086 134.449 164.59V169H133.427V164.842C133.427 164.245 133.277 163.773 132.979 163.428C132.68 163.083 132.269 162.91 131.747 162.91C131.392 162.91 131.07 162.999 130.781 163.176C130.501 163.353 130.253 163.624 130.039 163.988C130.057 164.081 130.071 164.179 130.081 164.282C130.09 164.385 130.095 164.487 130.095 164.59V169H129.073V164.842C129.073 164.245 128.919 163.773 128.611 163.428C128.312 163.083 127.901 162.91 127.379 162.91C126.679 162.91 126.123 163.246 125.713 163.918V169H124.691Z" fill="#4D4D4D"/>
<path d="M81.246 214V204.2H82.366L88.106 212.32L88.078 204.2H89.1V214H88.12L82.24 205.698L82.268 214H81.246ZM93.3769 214.126C92.8916 214.126 92.4622 214.037 92.0889 213.86C91.7156 213.683 91.4216 213.44 91.2069 213.132C91.0016 212.815 90.8989 212.451 90.8989 212.04C90.8989 211.629 91.0062 211.275 91.2209 210.976C91.4356 210.668 91.7342 210.43 92.1169 210.262C92.4996 210.094 92.9476 210.01 93.4609 210.01C93.8529 210.01 94.2216 210.052 94.5669 210.136C94.9216 210.22 95.2482 210.355 95.5469 210.542V209.604C95.5469 209.044 95.3976 208.624 95.0989 208.344C94.8002 208.055 94.3616 207.91 93.7829 207.91C93.4656 207.91 93.1389 207.957 92.8029 208.05C92.4762 208.143 92.1122 208.293 91.7109 208.498L91.3329 207.714C92.2476 207.275 93.1062 207.056 93.9089 207.056C94.7582 207.056 95.4116 207.266 95.8689 207.686C96.3262 208.097 96.5549 208.689 96.5549 209.464V214H95.5469V213.202C95.2482 213.51 94.9169 213.743 94.5529 213.902C94.1889 214.051 93.7969 214.126 93.3769 214.126ZM91.8789 212.012C91.8789 212.413 92.0329 212.735 92.3409 212.978C92.6582 213.221 93.0736 213.342 93.5869 213.342C93.9696 213.342 94.3196 213.277 94.6369 213.146C94.9636 213.015 95.2669 212.819 95.5469 212.558V211.242C95.2576 211.074 94.9589 210.953 94.6509 210.878C94.3429 210.794 93.9976 210.752 93.6149 210.752C93.0922 210.752 92.6722 210.869 92.3549 211.102C92.0376 211.326 91.8789 211.629 91.8789 212.012ZM100.319 214L97.5186 207.168H98.6246L100.837 212.726L103.021 207.168H104.113L101.299 214H100.319ZM108.626 214V207.168H109.648V214H108.626ZM109.144 205.474C108.939 205.474 108.761 205.404 108.612 205.264C108.472 205.115 108.402 204.942 108.402 204.746C108.402 204.55 108.472 204.382 108.612 204.242C108.761 204.093 108.939 204.018 109.144 204.018C109.349 204.018 109.522 204.093 109.662 204.242C109.811 204.382 109.886 204.55 109.886 204.746C109.886 204.942 109.811 205.115 109.662 205.264C109.522 205.404 109.349 205.474 109.144 205.474ZM114.347 214.14C113.759 214.14 113.311 214 113.003 213.72C112.705 213.431 112.555 213.015 112.555 212.474V208.008H111.141V207.168H112.555V205.292L113.577 205.054V207.168H115.537V208.008H113.577V212.208C113.577 212.572 113.652 212.833 113.801 212.992C113.96 213.151 114.217 213.23 114.571 213.23C114.749 213.23 114.907 213.216 115.047 213.188C115.187 213.16 115.351 213.113 115.537 213.048V213.958C115.351 214.023 115.155 214.07 114.949 214.098C114.744 214.126 114.543 214.14 114.347 214.14ZM119.978 214.14C119.343 214.14 118.769 213.986 118.256 213.678C117.742 213.361 117.336 212.936 117.038 212.404C116.739 211.863 116.59 211.256 116.59 210.584C116.59 209.912 116.73 209.31 117.01 208.778C117.299 208.246 117.686 207.826 118.172 207.518C118.657 207.21 119.198 207.056 119.796 207.056C120.402 207.056 120.939 207.21 121.406 207.518C121.882 207.817 122.255 208.227 122.526 208.75C122.806 209.263 122.946 209.847 122.946 210.5V210.808H117.584C117.621 211.275 117.747 211.695 117.962 212.068C118.186 212.432 118.475 212.721 118.83 212.936C119.194 213.141 119.59 213.244 120.02 213.244C120.374 213.244 120.715 213.183 121.042 213.062C121.378 212.931 121.662 212.759 121.896 212.544L122.54 213.23C122.148 213.538 121.742 213.767 121.322 213.916C120.902 214.065 120.454 214.14 119.978 214.14ZM117.612 210.08H121.938C121.891 209.669 121.765 209.305 121.56 208.988C121.364 208.661 121.112 208.405 120.804 208.218C120.505 208.031 120.169 207.938 119.796 207.938C119.422 207.938 119.082 208.031 118.774 208.218C118.466 208.395 118.209 208.647 118.004 208.974C117.808 209.291 117.677 209.66 117.612 210.08ZM124.691 214V207.168H125.713V208.232C125.974 207.84 126.273 207.546 126.609 207.35C126.945 207.154 127.323 207.056 127.743 207.056C128.228 207.056 128.653 207.177 129.017 207.42C129.381 207.653 129.656 207.975 129.843 208.386C130.113 207.947 130.435 207.616 130.809 207.392C131.191 207.168 131.63 207.056 132.125 207.056C132.582 207.056 132.983 207.163 133.329 207.378C133.683 207.593 133.959 207.891 134.155 208.274C134.351 208.647 134.449 209.086 134.449 209.59V214H133.427V209.842C133.427 209.245 133.277 208.773 132.979 208.428C132.68 208.083 132.269 207.91 131.747 207.91C131.392 207.91 131.07 207.999 130.781 208.176C130.501 208.353 130.253 208.624 130.039 208.988C130.057 209.081 130.071 209.179 130.081 209.282C130.09 209.385 130.095 209.487 130.095 209.59V214H129.073V209.842C129.073 209.245 128.919 208.773 128.611 208.428C128.312 208.083 127.901 207.91 127.379 207.91C126.679 207.91 126.123 208.246 125.713 208.918V214H124.691Z" fill="#4D4D4D"/>
<path d="M81.246 259V249.2H82.366L88.106 257.32L88.078 249.2H89.1V259H88.12L82.24 250.698L82.268 259H81.246ZM93.3769 259.126C92.8916 259.126 92.4622 259.037 92.0889 258.86C91.7156 258.683 91.4216 258.44 91.2069 258.132C91.0016 257.815 90.8989 257.451 90.8989 257.04C90.8989 256.629 91.0062 256.275 91.2209 255.976C91.4356 255.668 91.7342 255.43 92.1169 255.262C92.4996 255.094 92.9476 255.01 93.4609 255.01C93.8529 255.01 94.2216 255.052 94.5669 255.136C94.9216 255.22 95.2482 255.355 95.5469 255.542V254.604C95.5469 254.044 95.3976 253.624 95.0989 253.344C94.8002 253.055 94.3616 252.91 93.7829 252.91C93.4656 252.91 93.1389 252.957 92.8029 253.05C92.4762 253.143 92.1122 253.293 91.7109 253.498L91.3329 252.714C92.2476 252.275 93.1062 252.056 93.9089 252.056C94.7582 252.056 95.4116 252.266 95.8689 252.686C96.3262 253.097 96.5549 253.689 96.5549 254.464V259H95.5469V258.202C95.2482 258.51 94.9169 258.743 94.5529 258.902C94.1889 259.051 93.7969 259.126 93.3769 259.126ZM91.8789 257.012C91.8789 257.413 92.0329 257.735 92.3409 257.978C92.6582 258.221 93.0736 258.342 93.5869 258.342C93.9696 258.342 94.3196 258.277 94.6369 258.146C94.9636 258.015 95.2669 257.819 95.5469 257.558V256.242C95.2576 256.074 94.9589 255.953 94.6509 255.878C94.3429 255.794 93.9976 255.752 93.6149 255.752C93.0922 255.752 92.6722 255.869 92.3549 256.102C92.0376 256.326 91.8789 256.629 91.8789 257.012ZM100.319 259L97.5186 252.168H98.6246L100.837 257.726L103.021 252.168H104.113L101.299 259H100.319ZM108.626 259V252.168H109.648V259H108.626ZM109.144 250.474C108.939 250.474 108.761 250.404 108.612 250.264C108.472 250.115 108.402 249.942 108.402 249.746C108.402 249.55 108.472 249.382 108.612 249.242C108.761 249.093 108.939 249.018 109.144 249.018C109.349 249.018 109.522 249.093 109.662 249.242C109.811 249.382 109.886 249.55 109.886 249.746C109.886 249.942 109.811 250.115 109.662 250.264C109.522 250.404 109.349 250.474 109.144 250.474ZM114.347 259.14C113.759 259.14 113.311 259 113.003 258.72C112.705 258.431 112.555 258.015 112.555 257.474V253.008H111.141V252.168H112.555V250.292L113.577 250.054V252.168H115.537V253.008H113.577V257.208C113.577 257.572 113.652 257.833 113.801 257.992C113.96 258.151 114.217 258.23 114.571 258.23C114.749 258.23 114.907 258.216 115.047 258.188C115.187 258.16 115.351 258.113 115.537 258.048V258.958C115.351 259.023 115.155 259.07 114.949 259.098C114.744 259.126 114.543 259.14 114.347 259.14ZM119.978 259.14C119.343 259.14 118.769 258.986 118.256 258.678C117.742 258.361 117.336 257.936 117.038 257.404C116.739 256.863 116.59 256.256 116.59 255.584C116.59 254.912 116.73 254.31 117.01 253.778C117.299 253.246 117.686 252.826 118.172 252.518C118.657 252.21 119.198 252.056 119.796 252.056C120.402 252.056 120.939 252.21 121.406 252.518C121.882 252.817 122.255 253.227 122.526 253.75C122.806 254.263 122.946 254.847 122.946 255.5V255.808H117.584C117.621 256.275 117.747 256.695 117.962 257.068C118.186 257.432 118.475 257.721 118.83 257.936C119.194 258.141 119.59 258.244 120.02 258.244C120.374 258.244 120.715 258.183 121.042 258.062C121.378 257.931 121.662 257.759 121.896 257.544L122.54 258.23C122.148 258.538 121.742 258.767 121.322 258.916C120.902 259.065 120.454 259.14 119.978 259.14ZM117.612 255.08H121.938C121.891 254.669 121.765 254.305 121.56 253.988C121.364 253.661 121.112 253.405 120.804 253.218C120.505 253.031 120.169 252.938 119.796 252.938C119.422 252.938 119.082 253.031 118.774 253.218C118.466 253.395 118.209 253.647 118.004 253.974C117.808 254.291 117.677 254.66 117.612 255.08ZM124.691 259V252.168H125.713V253.232C125.974 252.84 126.273 252.546 126.609 252.35C126.945 252.154 127.323 252.056 127.743 252.056C128.228 252.056 128.653 252.177 129.017 252.42C129.381 252.653 129.656 252.975 129.843 253.386C130.113 252.947 130.435 252.616 130.809 252.392C131.191 252.168 131.63 252.056 132.125 252.056C132.582 252.056 132.983 252.163 133.329 252.378C133.683 252.593 133.959 252.891 134.155 253.274C134.351 253.647 134.449 254.086 134.449 254.59V259H133.427V254.842C133.427 254.245 133.277 253.773 132.979 253.428C132.68 253.083 132.269 252.91 131.747 252.91C131.392 252.91 131.07 252.999 130.781 253.176C130.501 253.353 130.253 253.624 130.039 253.988C130.057 254.081 130.071 254.179 130.081 254.282C130.09 254.385 130.095 254.487 130.095 254.59V259H129.073V254.842C129.073 254.245 128.919 253.773 128.611 253.428C128.312 253.083 127.901 252.91 127.379 252.91C126.679 252.91 126.123 253.246 125.713 253.918V259H124.691Z" fill="#4D4D4D"/>
<path d="M85.754 312.154C85.0447 312.154 84.3867 312.023 83.78 311.762C83.1733 311.501 82.6367 311.141 82.17 310.684C81.7127 310.217 81.3533 309.681 81.092 309.074C80.84 308.458 80.714 307.8 80.714 307.1C80.714 306.4 80.84 305.747 81.092 305.14C81.3533 304.524 81.7127 303.987 82.17 303.53C82.6273 303.063 83.1593 302.699 83.766 302.438C84.3727 302.177 85.0307 302.046 85.74 302.046C86.524 302.046 87.2613 302.195 87.952 302.494C88.652 302.793 89.2353 303.227 89.702 303.796L88.526 304.846C88.19 304.426 87.7793 304.109 87.294 303.894C86.8087 303.67 86.2907 303.558 85.74 303.558C85.264 303.558 84.8253 303.647 84.424 303.824C84.0227 304.001 83.6727 304.253 83.374 304.58C83.0847 304.897 82.856 305.271 82.688 305.7C82.52 306.129 82.436 306.596 82.436 307.1C82.436 307.604 82.52 308.075 82.688 308.514C82.856 308.943 83.0893 309.317 83.388 309.634C83.696 309.951 84.0507 310.203 84.452 310.39C84.8533 310.567 85.2967 310.656 85.782 310.656C86.3047 310.656 86.776 310.549 87.196 310.334C87.616 310.11 87.9613 309.802 88.232 309.41C88.512 309.018 88.6847 308.579 88.75 308.094H85.838V306.652H90.528V307.198C90.528 307.907 90.4067 308.561 90.164 309.158C89.9307 309.755 89.5993 310.283 89.17 310.74C88.7407 311.188 88.2367 311.538 87.658 311.79C87.0793 312.033 86.4447 312.154 85.754 312.154ZM92.2046 312V304.986H93.7866V306.498C93.9919 305.966 94.2579 305.56 94.5846 305.28C94.9113 305 95.2893 304.86 95.7186 304.86C95.8493 304.869 95.9659 304.883 96.0686 304.902C96.1713 304.911 96.2833 304.944 96.4046 305V306.386C96.2833 306.33 96.1433 306.288 95.9846 306.26C95.8353 306.232 95.6859 306.218 95.5366 306.218C95.1539 306.218 94.8086 306.321 94.5006 306.526C94.2019 306.731 93.9639 307.016 93.7866 307.38V312H92.2046ZM100.579 312.126C99.9159 312.126 99.3139 311.967 98.7726 311.65C98.2406 311.333 97.8206 310.903 97.5126 310.362C97.2046 309.811 97.0506 309.191 97.0506 308.5C97.0506 307.809 97.2046 307.193 97.5126 306.652C97.8206 306.101 98.2406 305.667 98.7726 305.35C99.3046 305.033 99.9066 304.874 100.579 304.874C101.251 304.874 101.848 305.033 102.371 305.35C102.903 305.667 103.323 306.101 103.631 306.652C103.939 307.193 104.093 307.809 104.093 308.5C104.093 309.191 103.939 309.811 103.631 310.362C103.323 310.903 102.903 311.333 102.371 311.65C101.848 311.967 101.251 312.126 100.579 312.126ZM100.579 310.782C100.961 310.782 101.297 310.684 101.587 310.488C101.885 310.292 102.119 310.021 102.287 309.676C102.455 309.321 102.539 308.929 102.539 308.5C102.539 308.061 102.455 307.674 102.287 307.338C102.119 306.993 101.885 306.722 101.587 306.526C101.297 306.321 100.961 306.218 100.579 306.218C100.196 306.218 99.8552 306.321 99.5566 306.526C99.2579 306.722 99.0246 306.993 98.8566 307.338C98.6886 307.674 98.6046 308.061 98.6046 308.5C98.6046 308.939 98.6886 309.331 98.8566 309.676C99.0246 310.021 99.2579 310.292 99.5566 310.488C99.8552 310.684 100.196 310.782 100.579 310.782ZM108.12 312.112C107.635 312.112 107.21 312.005 106.846 311.79C106.482 311.575 106.193 311.281 105.978 310.908C105.773 310.535 105.67 310.101 105.67 309.606V304.986H107.266V309.144C107.266 309.667 107.401 310.082 107.672 310.39C107.952 310.689 108.33 310.838 108.806 310.838C109.123 310.838 109.408 310.768 109.66 310.628C109.921 310.488 110.145 310.278 110.332 309.998V304.986H111.914V312H110.332V310.866C110.061 311.277 109.739 311.589 109.366 311.804C108.993 312.009 108.577 312.112 108.12 312.112ZM113.875 314.926V304.986H115.429V305.98C115.681 305.644 115.993 305.387 116.367 305.21C116.749 305.023 117.165 304.93 117.613 304.93C118.21 304.93 118.747 305.089 119.223 305.406C119.699 305.723 120.077 306.153 120.357 306.694C120.637 307.235 120.777 307.837 120.777 308.5C120.777 309.163 120.632 309.765 120.343 310.306C120.053 310.847 119.661 311.277 119.167 311.594C118.672 311.911 118.121 312.07 117.515 312.07C117.095 312.07 116.707 311.995 116.353 311.846C116.007 311.687 115.709 311.463 115.457 311.174V314.926H113.875ZM117.137 310.754C117.538 310.754 117.893 310.656 118.201 310.46C118.518 310.264 118.765 309.998 118.943 309.662C119.129 309.317 119.223 308.929 119.223 308.5C119.223 308.071 119.129 307.688 118.943 307.352C118.765 307.016 118.518 306.75 118.201 306.554C117.893 306.358 117.538 306.26 117.137 306.26C116.791 306.26 116.474 306.33 116.185 306.47C115.895 306.601 115.653 306.792 115.457 307.044V309.97C115.662 310.213 115.909 310.404 116.199 310.544C116.488 310.684 116.801 310.754 117.137 310.754ZM125.578 312V301.962L127.16 301.682V306.134C127.43 305.714 127.752 305.401 128.126 305.196C128.499 304.981 128.914 304.874 129.372 304.874C129.857 304.874 130.282 304.981 130.646 305.196C131.01 305.401 131.294 305.691 131.5 306.064C131.714 306.437 131.822 306.876 131.822 307.38V312H130.226V307.828C130.226 307.315 130.086 306.909 129.806 306.61C129.526 306.302 129.152 306.148 128.686 306.148C128.368 306.148 128.079 306.223 127.818 306.372C127.566 306.512 127.346 306.722 127.16 307.002V312H125.578ZM136.988 312.14C136.316 312.14 135.709 311.981 135.168 311.664C134.627 311.337 134.197 310.903 133.88 310.362C133.563 309.811 133.404 309.191 133.404 308.5C133.404 307.809 133.553 307.193 133.852 306.652C134.151 306.111 134.557 305.681 135.07 305.364C135.593 305.037 136.171 304.874 136.806 304.874C137.459 304.874 138.033 305.033 138.528 305.35C139.032 305.667 139.424 306.097 139.704 306.638C139.993 307.179 140.138 307.8 140.138 308.5V308.878H134.958C135.014 309.261 135.135 309.601 135.322 309.9C135.518 310.189 135.765 310.418 136.064 310.586C136.372 310.754 136.703 310.838 137.058 310.838C137.385 310.838 137.693 310.782 137.982 310.67C138.281 310.549 138.528 310.385 138.724 310.18L139.76 311.118C139.331 311.473 138.892 311.734 138.444 311.902C138.005 312.061 137.52 312.14 136.988 312.14ZM134.972 307.898H138.64C138.584 307.562 138.467 307.263 138.29 307.002C138.122 306.741 137.907 306.535 137.646 306.386C137.394 306.237 137.114 306.162 136.806 306.162C136.498 306.162 136.213 306.237 135.952 306.386C135.7 306.526 135.49 306.727 135.322 306.988C135.154 307.249 135.037 307.553 134.972 307.898ZM143.811 312.126C143.326 312.126 142.892 312.037 142.509 311.86C142.136 311.673 141.842 311.421 141.627 311.104C141.422 310.777 141.319 310.404 141.319 309.984C141.319 309.564 141.426 309.2 141.641 308.892C141.865 308.584 142.178 308.346 142.579 308.178C142.98 308.01 143.456 307.926 144.007 307.926C144.334 307.926 144.656 307.963 144.973 308.038C145.29 308.103 145.598 308.215 145.897 308.374V307.59C145.897 307.123 145.762 306.773 145.491 306.54C145.23 306.307 144.828 306.19 144.287 306.19C143.998 306.19 143.685 306.237 143.349 306.33C143.022 306.414 142.654 306.549 142.243 306.736L141.683 305.588C142.71 305.112 143.68 304.874 144.595 304.874C145.51 304.874 146.214 305.098 146.709 305.546C147.213 305.985 147.465 306.61 147.465 307.422V312H145.897V311.272C145.598 311.561 145.276 311.776 144.931 311.916C144.586 312.056 144.212 312.126 143.811 312.126ZM142.803 309.956C142.803 310.283 142.934 310.539 143.195 310.726C143.456 310.913 143.806 311.006 144.245 311.006C144.562 311.006 144.856 310.959 145.127 310.866C145.407 310.763 145.664 310.614 145.897 310.418V309.284C145.654 309.172 145.402 309.088 145.141 309.032C144.88 308.976 144.595 308.948 144.287 308.948C143.83 308.948 143.466 309.037 143.195 309.214C142.934 309.391 142.803 309.639 142.803 309.956ZM152.222 312.07C151.634 312.07 151.102 311.911 150.626 311.594C150.15 311.267 149.768 310.838 149.478 310.306C149.198 309.765 149.058 309.163 149.058 308.5C149.058 307.828 149.203 307.226 149.492 306.694C149.782 306.153 150.174 305.723 150.668 305.406C151.172 305.089 151.728 304.93 152.334 304.93C152.736 304.93 153.109 305.009 153.454 305.168C153.809 305.317 154.117 305.541 154.378 305.84V301.962L155.96 301.682V312H154.392V311.076C154.14 311.393 153.828 311.641 153.454 311.818C153.081 311.986 152.67 312.07 152.222 312.07ZM152.712 310.74C153.048 310.74 153.361 310.675 153.65 310.544C153.94 310.404 154.182 310.213 154.378 309.97V307.016C154.173 306.773 153.926 306.587 153.636 306.456C153.347 306.325 153.039 306.26 152.712 306.26C152.311 306.26 151.952 306.358 151.634 306.554C151.326 306.741 151.079 307.002 150.892 307.338C150.706 307.674 150.612 308.061 150.612 308.5C150.612 308.92 150.706 309.303 150.892 309.648C151.079 309.984 151.326 310.25 151.634 310.446C151.952 310.642 152.311 310.74 152.712 310.74ZM161.187 312.14C160.515 312.14 159.909 311.981 159.367 311.664C158.826 311.337 158.397 310.903 158.079 310.362C157.762 309.811 157.603 309.191 157.603 308.5C157.603 307.809 157.753 307.193 158.051 306.652C158.35 306.111 158.756 305.681 159.269 305.364C159.792 305.037 160.371 304.874 161.005 304.874C161.659 304.874 162.233 305.033 162.727 305.35C163.231 305.667 163.623 306.097 163.903 306.638C164.193 307.179 164.337 307.8 164.337 308.5V308.878H159.157C159.213 309.261 159.335 309.601 159.521 309.9C159.717 310.189 159.965 310.418 160.263 310.586C160.571 310.754 160.903 310.838 161.257 310.838C161.584 310.838 161.892 310.782 162.181 310.67C162.48 310.549 162.727 310.385 162.923 310.18L163.959 311.118C163.53 311.473 163.091 311.734 162.643 311.902C162.205 312.061 161.719 312.14 161.187 312.14ZM159.171 307.898H162.839C162.783 307.562 162.667 307.263 162.489 307.002C162.321 306.741 162.107 306.535 161.845 306.386C161.593 306.237 161.313 306.162 161.005 306.162C160.697 306.162 160.413 306.237 160.151 306.386C159.899 306.526 159.689 306.727 159.521 306.988C159.353 307.249 159.237 307.553 159.171 307.898ZM165.951 312V304.986H167.533V306.498C167.738 305.966 168.004 305.56 168.331 305.28C168.657 305 169.035 304.86 169.465 304.86C169.595 304.869 169.712 304.883 169.815 304.902C169.917 304.911 170.029 304.944 170.151 305V306.386C170.029 306.33 169.889 306.288 169.731 306.26C169.581 306.232 169.432 306.218 169.283 306.218C168.9 306.218 168.555 306.321 168.247 306.526C167.948 306.731 167.71 307.016 167.533 307.38V312H165.951Z" fill="#151515"/>
<path d="M81.246 349V339.2H82.366L88.106 347.32L88.078 339.2H89.1V349H88.12L82.24 340.698L82.268 349H81.246ZM93.3769 349.126C92.8916 349.126 92.4622 349.037 92.0889 348.86C91.7156 348.683 91.4216 348.44 91.2069 348.132C91.0016 347.815 90.8989 347.451 90.8989 347.04C90.8989 346.629 91.0062 346.275 91.2209 345.976C91.4356 345.668 91.7342 345.43 92.1169 345.262C92.4996 345.094 92.9476 345.01 93.4609 345.01C93.8529 345.01 94.2216 345.052 94.5669 345.136C94.9216 345.22 95.2482 345.355 95.5469 345.542V344.604C95.5469 344.044 95.3976 343.624 95.0989 343.344C94.8002 343.055 94.3616 342.91 93.7829 342.91C93.4656 342.91 93.1389 342.957 92.8029 343.05C92.4762 343.143 92.1122 343.293 91.7109 343.498L91.3329 342.714C92.2476 342.275 93.1062 342.056 93.9089 342.056C94.7582 342.056 95.4116 342.266 95.8689 342.686C96.3262 343.097 96.5549 343.689 96.5549 344.464V349H95.5469V348.202C95.2482 348.51 94.9169 348.743 94.5529 348.902C94.1889 349.051 93.7969 349.126 93.3769 349.126ZM91.8789 347.012C91.8789 347.413 92.0329 347.735 92.3409 347.978C92.6582 348.221 93.0736 348.342 93.5869 348.342C93.9696 348.342 94.3196 348.277 94.6369 348.146C94.9636 348.015 95.2669 347.819 95.5469 347.558V346.242C95.2576 346.074 94.9589 345.953 94.6509 345.878C94.3429 345.794 93.9976 345.752 93.6149 345.752C93.0922 345.752 92.6722 345.869 92.3549 346.102C92.0376 346.326 91.8789 346.629 91.8789 347.012ZM100.319 349L97.5186 342.168H98.6246L100.837 347.726L103.021 342.168H104.113L101.299 349H100.319ZM108.626 349V342.168H109.648V349H108.626ZM109.144 340.474C108.939 340.474 108.761 340.404 108.612 340.264C108.472 340.115 108.402 339.942 108.402 339.746C108.402 339.55 108.472 339.382 108.612 339.242C108.761 339.093 108.939 339.018 109.144 339.018C109.349 339.018 109.522 339.093 109.662 339.242C109.811 339.382 109.886 339.55 109.886 339.746C109.886 339.942 109.811 340.115 109.662 340.264C109.522 340.404 109.349 340.474 109.144 340.474ZM114.347 349.14C113.759 349.14 113.311 349 113.003 348.72C112.705 348.431 112.555 348.015 112.555 347.474V343.008H111.141V342.168H112.555V340.292L113.577 340.054V342.168H115.537V343.008H113.577V347.208C113.577 347.572 113.652 347.833 113.801 347.992C113.96 348.151 114.217 348.23 114.571 348.23C114.749 348.23 114.907 348.216 115.047 348.188C115.187 348.16 115.351 348.113 115.537 348.048V348.958C115.351 349.023 115.155 349.07 114.949 349.098C114.744 349.126 114.543 349.14 114.347 349.14ZM119.978 349.14C119.343 349.14 118.769 348.986 118.256 348.678C117.742 348.361 117.336 347.936 117.038 347.404C116.739 346.863 116.59 346.256 116.59 345.584C116.59 344.912 116.73 344.31 117.01 343.778C117.299 343.246 117.686 342.826 118.172 342.518C118.657 342.21 119.198 342.056 119.796 342.056C120.402 342.056 120.939 342.21 121.406 342.518C121.882 342.817 122.255 343.227 122.526 343.75C122.806 344.263 122.946 344.847 122.946 345.5V345.808H117.584C117.621 346.275 117.747 346.695 117.962 347.068C118.186 347.432 118.475 347.721 118.83 347.936C119.194 348.141 119.59 348.244 120.02 348.244C120.374 348.244 120.715 348.183 121.042 348.062C121.378 347.931 121.662 347.759 121.896 347.544L122.54 348.23C122.148 348.538 121.742 348.767 121.322 348.916C120.902 349.065 120.454 349.14 119.978 349.14ZM117.612 345.08H121.938C121.891 344.669 121.765 344.305 121.56 343.988C121.364 343.661 121.112 343.405 120.804 343.218C120.505 343.031 120.169 342.938 119.796 342.938C119.422 342.938 119.082 343.031 118.774 343.218C118.466 343.395 118.209 343.647 118.004 343.974C117.808 344.291 117.677 344.66 117.612 345.08ZM124.691 349V342.168H125.713V343.232C125.974 342.84 126.273 342.546 126.609 342.35C126.945 342.154 127.323 342.056 127.743 342.056C128.228 342.056 128.653 342.177 129.017 342.42C129.381 342.653 129.656 342.975 129.843 343.386C130.113 342.947 130.435 342.616 130.809 342.392C131.191 342.168 131.63 342.056 132.125 342.056C132.582 342.056 132.983 342.163 133.329 342.378C133.683 342.593 133.959 342.891 134.155 343.274C134.351 343.647 134.449 344.086 134.449 344.59V349H133.427V344.842C133.427 344.245 133.277 343.773 132.979 343.428C132.68 343.083 132.269 342.91 131.747 342.91C131.392 342.91 131.07 342.999 130.781 343.176C130.501 343.353 130.253 343.624 130.039 343.988C130.057 344.081 130.071 344.179 130.081 344.282C130.09 344.385 130.095 344.487 130.095 344.59V349H129.073V344.842C129.073 344.245 128.919 343.773 128.611 343.428C128.312 343.083 127.901 342.91 127.379 342.91C126.679 342.91 126.123 343.246 125.713 343.918V349H124.691Z" fill="#4D4D4D"/>
<path d="M81.246 394V384.2H82.366L88.106 392.32L88.078 384.2H89.1V394H88.12L82.24 385.698L82.268 394H81.246ZM93.3769 394.126C92.8916 394.126 92.4622 394.037 92.0889 393.86C91.7156 393.683 91.4216 393.44 91.2069 393.132C91.0016 392.815 90.8989 392.451 90.8989 392.04C90.8989 391.629 91.0062 391.275 91.2209 390.976C91.4356 390.668 91.7342 390.43 92.1169 390.262C92.4996 390.094 92.9476 390.01 93.4609 390.01C93.8529 390.01 94.2216 390.052 94.5669 390.136C94.9216 390.22 95.2482 390.355 95.5469 390.542V389.604C95.5469 389.044 95.3976 388.624 95.0989 388.344C94.8002 388.055 94.3616 387.91 93.7829 387.91C93.4656 387.91 93.1389 387.957 92.8029 388.05C92.4762 388.143 92.1122 388.293 91.7109 388.498L91.3329 387.714C92.2476 387.275 93.1062 387.056 93.9089 387.056C94.7582 387.056 95.4116 387.266 95.8689 387.686C96.3262 388.097 96.5549 388.689 96.5549 389.464V394H95.5469V393.202C95.2482 393.51 94.9169 393.743 94.5529 393.902C94.1889 394.051 93.7969 394.126 93.3769 394.126ZM91.8789 392.012C91.8789 392.413 92.0329 392.735 92.3409 392.978C92.6582 393.221 93.0736 393.342 93.5869 393.342C93.9696 393.342 94.3196 393.277 94.6369 393.146C94.9636 393.015 95.2669 392.819 95.5469 392.558V391.242C95.2576 391.074 94.9589 390.953 94.6509 390.878C94.3429 390.794 93.9976 390.752 93.6149 390.752C93.0922 390.752 92.6722 390.869 92.3549 391.102C92.0376 391.326 91.8789 391.629 91.8789 392.012ZM100.319 394L97.5186 387.168H98.6246L100.837 392.726L103.021 387.168H104.113L101.299 394H100.319ZM108.626 394V387.168H109.648V394H108.626ZM109.144 385.474C108.939 385.474 108.761 385.404 108.612 385.264C108.472 385.115 108.402 384.942 108.402 384.746C108.402 384.55 108.472 384.382 108.612 384.242C108.761 384.093 108.939 384.018 109.144 384.018C109.349 384.018 109.522 384.093 109.662 384.242C109.811 384.382 109.886 384.55 109.886 384.746C109.886 384.942 109.811 385.115 109.662 385.264C109.522 385.404 109.349 385.474 109.144 385.474ZM114.347 394.14C113.759 394.14 113.311 394 113.003 393.72C112.705 393.431 112.555 393.015 112.555 392.474V388.008H111.141V387.168H112.555V385.292L113.577 385.054V387.168H115.537V388.008H113.577V392.208C113.577 392.572 113.652 392.833 113.801 392.992C113.96 393.151 114.217 393.23 114.571 393.23C114.749 393.23 114.907 393.216 115.047 393.188C115.187 393.16 115.351 393.113 115.537 393.048V393.958C115.351 394.023 115.155 394.07 114.949 394.098C114.744 394.126 114.543 394.14 114.347 394.14ZM119.978 394.14C119.343 394.14 118.769 393.986 118.256 393.678C117.742 393.361 117.336 392.936 117.038 392.404C116.739 391.863 116.59 391.256 116.59 390.584C116.59 389.912 116.73 389.31 117.01 388.778C117.299 388.246 117.686 387.826 118.172 387.518C118.657 387.21 119.198 387.056 119.796 387.056C120.402 387.056 120.939 387.21 121.406 387.518C121.882 387.817 122.255 388.227 122.526 388.75C122.806 389.263 122.946 389.847 122.946 390.5V390.808H117.584C117.621 391.275 117.747 391.695 117.962 392.068C118.186 392.432 118.475 392.721 118.83 392.936C119.194 393.141 119.59 393.244 120.02 393.244C120.374 393.244 120.715 393.183 121.042 393.062C121.378 392.931 121.662 392.759 121.896 392.544L122.54 393.23C122.148 393.538 121.742 393.767 121.322 393.916C120.902 394.065 120.454 394.14 119.978 394.14ZM117.612 390.08H121.938C121.891 389.669 121.765 389.305 121.56 388.988C121.364 388.661 121.112 388.405 120.804 388.218C120.505 388.031 120.169 387.938 119.796 387.938C119.422 387.938 119.082 388.031 118.774 388.218C118.466 388.395 118.209 388.647 118.004 388.974C117.808 389.291 117.677 389.66 117.612 390.08ZM124.691 394V387.168H125.713V388.232C125.974 387.84 126.273 387.546 126.609 387.35C126.945 387.154 127.323 387.056 127.743 387.056C128.228 387.056 128.653 387.177 129.017 387.42C129.381 387.653 129.656 387.975 129.843 388.386C130.113 387.947 130.435 387.616 130.809 387.392C131.191 387.168 131.63 387.056 132.125 387.056C132.582 387.056 132.983 387.163 133.329 387.378C133.683 387.593 133.959 387.891 134.155 388.274C134.351 388.647 134.449 389.086 134.449 389.59V394H133.427V389.842C133.427 389.245 133.277 388.773 132.979 388.428C132.68 388.083 132.269 387.91 131.747 387.91C131.392 387.91 131.07 387.999 130.781 388.176C130.501 388.353 130.253 388.624 130.039 388.988C130.057 389.081 130.071 389.179 130.081 389.282C130.09 389.385 130.095 389.487 130.095 389.59V394H129.073V389.842C129.073 389.245 128.919 388.773 128.611 388.428C128.312 388.083 127.901 387.91 127.379 387.91C126.679 387.91 126.123 388.246 125.713 388.918V394H124.691Z" fill="#4D4D4D"/>
<path d="M318 109C318 100.163 325.163 93 334 93H1120C1128.84 93 1136 100.163 1136 109V821C1136 829.837 1128.84 837 1120 837H334C325.163 837 318 829.837 318 821V109Z" fill="white"/>
</g>
<defs>
<linearGradient id="paint0_linear_1649_83404" x1="1609.07" y1="40.8043" x2="-194.756" y2="3047.17" gradientUnits="userSpaceOnUse">
<stop stop-color="#2B9AF3"/>
<stop offset="1" stop-color="#73BCF7" stop-opacity="0.502213"/>
</linearGradient>
<linearGradient id="paint1_linear_1649_83404" x1="153.196" y1="-1415.07" x2="-2853.17" y2="388.756" gradientUnits="userSpaceOnUse">
<stop stop-color="#2B9AF3"/>
<stop offset="1" stop-color="#73BCF7" stop-opacity="0.502213"/>
</linearGradient>
<clipPath id="clip0_1649_83404">
<rect width="427" height="416" fill="white"/>
</clipPath>
</defs>
</svg>
