<svg width="232" height="307" viewBox="0 0 232 307" fill="none" xmlns="http://www.w3.org/2000/svg">
<rect width="232" height="307" fill="white"/>
<path d="M43.456 37.132C42.672 37.132 42 36.928 41.44 36.52C40.888 36.112 40.496 35.536 40.264 34.792L41.584 34.3C41.76 34.812 42.004 35.2 42.316 35.464C42.628 35.72 43.012 35.848 43.468 35.848C44.02 35.848 44.464 35.656 44.8 35.272C45.136 34.888 45.304 34.38 45.304 33.748V28.6H46.744V33.772C46.744 34.452 46.608 35.044 46.336 35.548C46.064 36.052 45.68 36.444 45.184 36.724C44.696 36.996 44.12 37.132 43.456 37.132ZM50.474 37.096C50.058 37.096 49.694 37.004 49.382 36.82C49.07 36.636 48.822 36.384 48.638 36.064C48.462 35.744 48.374 35.372 48.374 34.948V30.988H49.742V34.552C49.742 35 49.858 35.356 50.09 35.62C50.33 35.876 50.654 36.004 51.062 36.004C51.334 36.004 51.578 35.944 51.794 35.824C52.018 35.704 52.21 35.524 52.37 35.284V30.988H53.726V37H52.37V36.028C52.138 36.38 51.862 36.648 51.542 36.832C51.222 37.008 50.866 37.096 50.474 37.096ZM55.4064 37V30.988H56.7624V31.936C56.9864 31.592 57.2464 31.332 57.5424 31.156C57.8464 30.98 58.1784 30.892 58.5384 30.892C58.9544 30.892 59.3144 30.996 59.6184 31.204C59.9304 31.412 60.1624 31.692 60.3144 32.044C60.5544 31.668 60.8384 31.384 61.1664 31.192C61.5024 30.992 61.8824 30.892 62.3064 30.892C62.6904 30.892 63.0304 30.984 63.3264 31.168C63.6304 31.352 63.8624 31.608 64.0224 31.936C64.1904 32.264 64.2744 32.64 64.2744 33.064V37H62.9184V33.364C62.9184 32.94 62.8104 32.604 62.5944 32.356C62.3784 32.108 62.0824 31.984 61.7064 31.984C61.4664 31.984 61.2424 32.044 61.0344 32.164C60.8344 32.284 60.6584 32.464 60.5064 32.704C60.5144 32.76 60.5184 32.82 60.5184 32.884C60.5264 32.94 60.5304 33 60.5304 33.064V37H59.1624V33.364C59.1624 32.94 59.0544 32.604 58.8384 32.356C58.6224 32.108 58.3264 31.984 57.9504 31.984C57.4624 31.984 57.0664 32.216 56.7624 32.68V37H55.4064ZM65.9181 39.508V30.988H67.2501V31.84C67.4661 31.552 67.7341 31.332 68.0541 31.18C68.3821 31.02 68.7381 30.94 69.1221 30.94C69.6341 30.94 70.0941 31.076 70.5021 31.348C70.9101 31.62 71.2341 31.988 71.4741 32.452C71.7141 32.916 71.8341 33.432 71.8341 34C71.8341 34.568 71.7101 35.084 71.4621 35.548C71.2141 36.012 70.8781 36.38 70.4541 36.652C70.0301 36.924 69.5581 37.06 69.0381 37.06C68.6781 37.06 68.3461 36.996 68.0421 36.868C67.7461 36.732 67.4901 36.54 67.2741 36.292V39.508H65.9181ZM68.7141 35.932C69.0581 35.932 69.3621 35.848 69.6261 35.68C69.8981 35.512 70.1101 35.284 70.2621 34.996C70.4221 34.7 70.5021 34.368 70.5021 34C70.5021 33.632 70.4221 33.304 70.2621 33.016C70.1101 32.728 69.8981 32.5 69.6261 32.332C69.3621 32.164 69.0581 32.08 68.7141 32.08C68.4181 32.08 68.1461 32.14 67.8981 32.26C67.6501 32.372 67.4421 32.536 67.2741 32.752V35.26C67.4501 35.468 67.6621 35.632 67.9101 35.752C68.1581 35.872 68.4261 35.932 68.7141 35.932ZM78.5414 37.12C77.9334 37.12 77.4734 36.98 77.1614 36.7C76.8494 36.412 76.6934 35.992 76.6934 35.44V32.068H75.4934V30.988H76.6934V29.332L78.0494 29.044V30.988H79.7174V32.068H78.0494V35.14C78.0494 35.436 78.1134 35.648 78.2414 35.776C78.3694 35.896 78.5854 35.956 78.8894 35.956C79.0254 35.956 79.1494 35.948 79.2614 35.932C79.3814 35.908 79.5294 35.868 79.7054 35.812V36.952C79.5374 37.008 79.3454 37.048 79.1294 37.072C78.9214 37.104 78.7254 37.12 78.5414 37.12ZM83.5724 37.108C83.0044 37.108 82.4884 36.972 82.0244 36.7C81.5684 36.428 81.2084 36.06 80.9444 35.596C80.6804 35.124 80.5484 34.592 80.5484 34C80.5484 33.408 80.6804 32.88 80.9444 32.416C81.2084 31.944 81.5684 31.572 82.0244 31.3C82.4804 31.028 82.9964 30.892 83.5724 30.892C84.1484 30.892 84.6604 31.028 85.1084 31.3C85.5644 31.572 85.9244 31.944 86.1884 32.416C86.4524 32.88 86.5844 33.408 86.5844 34C86.5844 34.592 86.4524 35.124 86.1884 35.596C85.9244 36.06 85.5644 36.428 85.1084 36.7C84.6604 36.972 84.1484 37.108 83.5724 37.108ZM83.5724 35.956C83.9004 35.956 84.1884 35.872 84.4364 35.704C84.6924 35.536 84.8924 35.304 85.0364 35.008C85.1804 34.704 85.2524 34.368 85.2524 34C85.2524 33.624 85.1804 33.292 85.0364 33.004C84.8924 32.708 84.6924 32.476 84.4364 32.308C84.1884 32.132 83.9004 32.044 83.5724 32.044C83.2444 32.044 82.9524 32.132 82.6964 32.308C82.4404 32.476 82.2404 32.708 82.0964 33.004C81.9524 33.292 81.8804 33.624 81.8804 34C81.8804 34.376 81.9524 34.712 82.0964 35.008C82.2404 35.304 82.4404 35.536 82.6964 35.704C82.9524 35.872 83.2444 35.956 83.5724 35.956ZM92.7198 37.12C92.2078 37.12 91.7278 37.052 91.2798 36.916C90.8398 36.772 90.4598 36.568 90.1398 36.304L90.7758 35.404C91.1758 35.652 91.5198 35.828 91.8078 35.932C92.1038 36.036 92.4038 36.088 92.7078 36.088C93.0678 36.088 93.3598 36.012 93.5838 35.86C93.8078 35.708 93.9198 35.512 93.9198 35.272C93.9198 35.088 93.8518 34.944 93.7158 34.84C93.5878 34.728 93.3758 34.644 93.0798 34.588L92.0238 34.408C91.4398 34.296 91.0038 34.104 90.7158 33.832C90.4278 33.56 90.2838 33.2 90.2838 32.752C90.2838 32.376 90.3798 32.052 90.5718 31.78C90.7718 31.5 91.0438 31.284 91.3878 31.132C91.7398 30.972 92.1478 30.892 92.6118 30.892C93.0278 30.892 93.4318 30.952 93.8238 31.072C94.2158 31.192 94.5998 31.372 94.9758 31.612L94.3398 32.512C94.0358 32.312 93.7318 32.168 93.4278 32.08C93.1318 31.984 92.8318 31.936 92.5278 31.936C92.2158 31.936 91.9638 32 91.7718 32.128C91.5878 32.248 91.4958 32.416 91.4958 32.632C91.4958 32.824 91.5558 32.972 91.6758 33.076C91.8038 33.172 92.0238 33.244 92.3358 33.292L93.4038 33.496C94.0038 33.6 94.4478 33.792 94.7358 34.072C95.0318 34.344 95.1798 34.708 95.1798 35.164C95.1798 35.532 95.0718 35.864 94.8558 36.16C94.6398 36.456 94.3478 36.692 93.9798 36.868C93.6118 37.036 93.1918 37.12 92.7198 37.12ZM99.2766 37.12C98.7006 37.12 98.1806 36.984 97.7166 36.712C97.2526 36.432 96.8846 36.06 96.6126 35.596C96.3406 35.124 96.2046 34.592 96.2046 34C96.2046 33.408 96.3326 32.88 96.5886 32.416C96.8446 31.952 97.1926 31.584 97.6326 31.312C98.0806 31.032 98.5766 30.892 99.1206 30.892C99.6806 30.892 100.173 31.028 100.597 31.3C101.029 31.572 101.365 31.94 101.605 32.404C101.853 32.868 101.977 33.4 101.977 34V34.324H97.5366C97.5846 34.652 97.6886 34.944 97.8486 35.2C98.0166 35.448 98.2286 35.644 98.4846 35.788C98.7486 35.932 99.0326 36.004 99.3366 36.004C99.6166 36.004 99.8806 35.956 100.129 35.86C100.385 35.756 100.597 35.616 100.765 35.44L101.653 36.244C101.285 36.548 100.909 36.772 100.525 36.916C100.149 37.052 99.7326 37.12 99.2766 37.12ZM97.5486 33.484H100.693C100.645 33.196 100.545 32.94 100.393 32.716C100.249 32.492 100.065 32.316 99.8406 32.188C99.6246 32.06 99.3846 31.996 99.1206 31.996C98.8566 31.996 98.6126 32.06 98.3886 32.188C98.1726 32.308 97.9926 32.48 97.8486 32.704C97.7046 32.928 97.6046 33.188 97.5486 33.484ZM106.143 37.108C105.575 37.108 105.059 36.972 104.595 36.7C104.139 36.42 103.775 36.044 103.503 35.572C103.239 35.1 103.107 34.576 103.107 34C103.107 33.416 103.239 32.892 103.503 32.428C103.775 31.956 104.139 31.584 104.595 31.312C105.059 31.032 105.575 30.892 106.143 30.892C106.607 30.892 107.047 30.98 107.463 31.156C107.887 31.332 108.247 31.584 108.543 31.912L107.703 32.788C107.495 32.556 107.263 32.38 107.007 32.26C106.751 32.14 106.479 32.08 106.191 32.08C105.863 32.08 105.567 32.168 105.303 32.344C105.047 32.512 104.843 32.74 104.691 33.028C104.539 33.316 104.463 33.64 104.463 34C104.463 34.36 104.539 34.688 104.691 34.984C104.843 35.272 105.047 35.5 105.303 35.668C105.567 35.836 105.863 35.92 106.191 35.92C106.479 35.92 106.751 35.86 107.007 35.74C107.263 35.62 107.495 35.448 107.703 35.224L108.543 36.088C108.247 36.416 107.887 36.668 107.463 36.844C107.047 37.02 106.607 37.108 106.143 37.108ZM112.373 37.12C111.765 37.12 111.305 36.98 110.993 36.7C110.681 36.412 110.525 35.992 110.525 35.44V32.068H109.325V30.988H110.525V29.332L111.881 29.044V30.988H113.549V32.068H111.881V35.14C111.881 35.436 111.945 35.648 112.073 35.776C112.201 35.896 112.417 35.956 112.721 35.956C112.857 35.956 112.981 35.948 113.093 35.932C113.213 35.908 113.361 35.868 113.537 35.812V36.952C113.369 37.008 113.177 37.048 112.961 37.072C112.753 37.104 112.557 37.12 112.373 37.12ZM114.738 37V30.988H116.094V37H114.738ZM115.422 29.764C115.19 29.764 114.99 29.684 114.822 29.524C114.662 29.356 114.582 29.16 114.582 28.936C114.582 28.704 114.662 28.508 114.822 28.348C114.99 28.18 115.19 28.096 115.422 28.096C115.654 28.096 115.85 28.18 116.01 28.348C116.178 28.508 116.262 28.7 116.262 28.924C116.262 29.156 116.178 29.356 116.01 29.524C115.85 29.684 115.654 29.764 115.422 29.764ZM120.522 37.108C119.954 37.108 119.438 36.972 118.974 36.7C118.518 36.428 118.158 36.06 117.894 35.596C117.63 35.124 117.498 34.592 117.498 34C117.498 33.408 117.63 32.88 117.894 32.416C118.158 31.944 118.518 31.572 118.974 31.3C119.43 31.028 119.946 30.892 120.522 30.892C121.098 30.892 121.61 31.028 122.058 31.3C122.514 31.572 122.874 31.944 123.138 32.416C123.402 32.88 123.534 33.408 123.534 34C123.534 34.592 123.402 35.124 123.138 35.596C122.874 36.06 122.514 36.428 122.058 36.7C121.61 36.972 121.098 37.108 120.522 37.108ZM120.522 35.956C120.85 35.956 121.138 35.872 121.386 35.704C121.642 35.536 121.842 35.304 121.986 35.008C122.13 34.704 122.202 34.368 122.202 34C122.202 33.624 122.13 33.292 121.986 33.004C121.842 32.708 121.642 32.476 121.386 32.308C121.138 32.132 120.85 32.044 120.522 32.044C120.194 32.044 119.902 32.132 119.646 32.308C119.39 32.476 119.19 32.708 119.046 33.004C118.902 33.292 118.83 33.624 118.83 34C118.83 34.376 118.902 34.712 119.046 35.008C119.19 35.304 119.39 35.536 119.646 35.704C119.902 35.872 120.194 35.956 120.522 35.956ZM124.934 37V30.988H126.29V31.972C126.522 31.612 126.798 31.344 127.118 31.168C127.438 30.984 127.794 30.892 128.186 30.892C128.602 30.892 128.966 30.984 129.278 31.168C129.59 31.344 129.834 31.592 130.01 31.912C130.194 32.232 130.286 32.608 130.286 33.04V37H128.918V33.424C128.918 32.984 128.798 32.636 128.558 32.38C128.318 32.116 127.998 31.984 127.598 31.984C127.326 31.984 127.078 32.048 126.854 32.176C126.638 32.296 126.45 32.476 126.29 32.716V37H124.934Z" fill="#151515"/>
<mask id="path-2-inside-1_1316_89941" fill="white">
<path d="M40 58H110V103H40V58Z"/>
</mask>
<path d="M40 103H41V58H40H39V103H40Z" fill="#C7C7C7" mask="url(#path-2-inside-1_1316_89941)"/>
<path d="M57.2349 85V75.2H58.3129V79.582H63.9409V75.2H65.0189V85H63.9409V80.548H58.3129V85H57.2349ZM70.3308 85.112C69.6962 85.112 69.1268 84.958 68.6228 84.65C68.1188 84.342 67.7222 83.922 67.4328 83.39C67.1435 82.858 66.9988 82.256 66.9988 81.584C66.9988 80.912 67.1435 80.31 67.4328 79.778C67.7222 79.246 68.1188 78.826 68.6228 78.518C69.1268 78.21 69.6962 78.056 70.3308 78.056C70.9562 78.056 71.5162 78.21 72.0108 78.518C72.5148 78.826 72.9115 79.246 73.2008 79.778C73.4902 80.31 73.6348 80.912 73.6348 81.584C73.6348 82.256 73.4902 82.858 73.2008 83.39C72.9115 83.922 72.5148 84.342 72.0108 84.65C71.5162 84.958 70.9562 85.112 70.3308 85.112ZM70.3168 84.216C70.7648 84.216 71.1615 84.104 71.5068 83.88C71.8522 83.6467 72.1228 83.3293 72.3188 82.928C72.5242 82.5267 72.6268 82.0787 72.6268 81.584C72.6268 81.08 72.5242 80.632 72.3188 80.24C72.1228 79.8387 71.8522 79.526 71.5068 79.302C71.1615 79.0687 70.7648 78.952 70.3168 78.952C69.8688 78.952 69.4722 79.0687 69.1268 79.302C68.7815 79.526 68.5062 79.8387 68.3008 80.24C68.1048 80.632 68.0068 81.08 68.0068 81.584C68.0068 82.0787 68.1048 82.5267 68.3008 82.928C68.5062 83.3293 68.7815 83.6467 69.1268 83.88C69.4722 84.104 69.8688 84.216 70.3168 84.216ZM75.4279 85V78.168H76.4499V79.232C76.7113 78.84 77.0099 78.546 77.3459 78.35C77.6819 78.154 78.0599 78.056 78.4799 78.056C78.9653 78.056 79.3899 78.1773 79.7539 78.42C80.1179 78.6533 80.3933 78.9753 80.5799 79.386C80.8506 78.9473 81.1726 78.616 81.5459 78.392C81.9286 78.168 82.3673 78.056 82.8619 78.056C83.3193 78.056 83.7206 78.1633 84.0659 78.378C84.4206 78.5927 84.6959 78.8913 84.8919 79.274C85.0879 79.6473 85.1859 80.086 85.1859 80.59V85H84.1639V80.842C84.1639 80.2447 84.0146 79.7733 83.7159 79.428C83.4173 79.0827 83.0066 78.91 82.4839 78.91C82.1293 78.91 81.8073 78.9987 81.5179 79.176C81.2379 79.3533 80.9906 79.624 80.7759 79.988C80.7946 80.0813 80.8086 80.1793 80.8179 80.282C80.8273 80.3847 80.8319 80.4873 80.8319 80.59V85H79.8099V80.842C79.8099 80.2447 79.6559 79.7733 79.3479 79.428C79.0493 79.0827 78.6386 78.91 78.1159 78.91C77.4159 78.91 76.8606 79.246 76.4499 79.918V85H75.4279ZM90.3341 85.14C89.6994 85.14 89.1254 84.986 88.6121 84.678C88.0988 84.3607 87.6928 83.936 87.3941 83.404C87.0954 82.8627 86.9461 82.256 86.9461 81.584C86.9461 80.912 87.0861 80.31 87.3661 79.778C87.6554 79.246 88.0428 78.826 88.5281 78.518C89.0134 78.21 89.5548 78.056 90.1521 78.056C90.7588 78.056 91.2954 78.21 91.7621 78.518C92.2381 78.8167 92.6114 79.2273 92.8821 79.75C93.1621 80.2633 93.3021 80.8467 93.3021 81.5V81.808H87.9401C87.9774 82.2747 88.1034 82.6947 88.3181 83.068C88.5421 83.432 88.8314 83.7213 89.1861 83.936C89.5501 84.1413 89.9468 84.244 90.3761 84.244C90.7308 84.244 91.0714 84.1833 91.3981 84.062C91.7341 83.9313 92.0188 83.7587 92.2521 83.544L92.8961 84.23C92.5041 84.538 92.0981 84.7667 91.6781 84.916C91.2581 85.0653 90.8101 85.14 90.3341 85.14ZM87.9681 81.08H92.2941C92.2474 80.6693 92.1214 80.3053 91.9161 79.988C91.7201 79.6613 91.4681 79.4047 91.1601 79.218C90.8614 79.0313 90.5254 78.938 90.1521 78.938C89.7788 78.938 89.4381 79.0313 89.1301 79.218C88.8221 79.3953 88.5654 79.6473 88.3601 79.974C88.1641 80.2913 88.0334 80.66 87.9681 81.08Z" fill="#4D4D4D"/>
<mask id="path-6-inside-2_1316_89941" fill="white">
<path d="M40 103H111V148H40V103Z"/>
</mask>
<path d="M40 148H43V103H40H37V148H40Z" fill="#0066CC" mask="url(#path-6-inside-2_1316_89941)"/>
<path d="M57.6734 130V120.2H58.7514V130H57.6734ZM63.1464 130.14C62.5864 130.14 62.0684 130.056 61.5924 129.888C61.1164 129.711 60.7104 129.459 60.3744 129.132L60.9204 128.46C61.3311 128.759 61.7091 128.978 62.0544 129.118C62.3998 129.249 62.7544 129.314 63.1184 129.314C63.6131 129.314 64.0238 129.197 64.3504 128.964C64.6771 128.731 64.8404 128.432 64.8404 128.068C64.8404 127.788 64.7424 127.569 64.5464 127.41C64.3598 127.251 64.0471 127.13 63.6084 127.046L62.4884 126.85C61.8258 126.729 61.3358 126.523 61.0184 126.234C60.7104 125.945 60.5564 125.553 60.5564 125.058C60.5564 124.666 60.6591 124.321 60.8644 124.022C61.0791 123.723 61.3731 123.49 61.7464 123.322C62.1198 123.145 62.5444 123.056 63.0204 123.056C63.4871 123.056 63.9304 123.126 64.3504 123.266C64.7704 123.397 65.1951 123.611 65.6244 123.91L65.1204 124.624C64.7658 124.372 64.4111 124.19 64.0564 124.078C63.7018 123.957 63.3424 123.896 62.9784 123.896C62.5304 123.896 62.1711 123.994 61.9004 124.19C61.6298 124.386 61.4944 124.652 61.4944 124.988C61.4944 125.268 61.5784 125.483 61.7464 125.632C61.9238 125.781 62.2318 125.893 62.6704 125.968L63.8184 126.178C64.5091 126.299 65.0131 126.509 65.3304 126.808C65.6478 127.107 65.8064 127.508 65.8064 128.012C65.8064 128.413 65.6898 128.777 65.4564 129.104C65.2231 129.421 64.9058 129.673 64.5044 129.86C64.1031 130.047 63.6504 130.14 63.1464 130.14ZM69.4765 130.14C68.9165 130.14 68.3985 130.056 67.9225 129.888C67.4465 129.711 67.0405 129.459 66.7045 129.132L67.2505 128.46C67.6612 128.759 68.0392 128.978 68.3845 129.118C68.7298 129.249 69.0845 129.314 69.4485 129.314C69.9432 129.314 70.3538 129.197 70.6805 128.964C71.0072 128.731 71.1705 128.432 71.1705 128.068C71.1705 127.788 71.0725 127.569 70.8765 127.41C70.6898 127.251 70.3772 127.13 69.9385 127.046L68.8185 126.85C68.1558 126.729 67.6658 126.523 67.3485 126.234C67.0405 125.945 66.8865 125.553 66.8865 125.058C66.8865 124.666 66.9892 124.321 67.1945 124.022C67.4092 123.723 67.7032 123.49 68.0765 123.322C68.4498 123.145 68.8745 123.056 69.3505 123.056C69.8172 123.056 70.2605 123.126 70.6805 123.266C71.1005 123.397 71.5252 123.611 71.9545 123.91L71.4505 124.624C71.0958 124.372 70.7412 124.19 70.3865 124.078C70.0318 123.957 69.6725 123.896 69.3085 123.896C68.8605 123.896 68.5012 123.994 68.2305 124.19C67.9598 124.386 67.8245 124.652 67.8245 124.988C67.8245 125.268 67.9085 125.483 68.0765 125.632C68.2538 125.781 68.5618 125.893 69.0005 125.968L70.1485 126.178C70.8392 126.299 71.3432 126.509 71.6605 126.808C71.9778 127.107 72.1365 127.508 72.1365 128.012C72.1365 128.413 72.0198 128.777 71.7865 129.104C71.5532 129.421 71.2358 129.673 70.8345 129.86C70.4332 130.047 69.9805 130.14 69.4765 130.14ZM76.1286 130.112C75.6432 130.112 75.2139 130.005 74.8406 129.79C74.4672 129.575 74.1732 129.277 73.9586 128.894C73.7532 128.511 73.6506 128.073 73.6506 127.578V123.168H74.6866V127.284C74.6866 127.891 74.8499 128.371 75.1766 128.726C75.5032 129.081 75.9466 129.258 76.5066 129.258C76.8892 129.258 77.2299 129.169 77.5286 128.992C77.8366 128.815 78.0932 128.558 78.2986 128.222V123.168H79.3206V130H78.2986V128.894C78.0372 129.295 77.7246 129.599 77.3606 129.804C77.0059 130.009 76.5952 130.112 76.1286 130.112ZM84.4972 130.14C83.8625 130.14 83.2885 129.986 82.7752 129.678C82.2619 129.361 81.8559 128.936 81.5572 128.404C81.2585 127.863 81.1092 127.256 81.1092 126.584C81.1092 125.912 81.2492 125.31 81.5292 124.778C81.8185 124.246 82.2059 123.826 82.6912 123.518C83.1765 123.21 83.7179 123.056 84.3152 123.056C84.9219 123.056 85.4585 123.21 85.9252 123.518C86.4012 123.817 86.7745 124.227 87.0452 124.75C87.3252 125.263 87.4652 125.847 87.4652 126.5V126.808H82.1032C82.1405 127.275 82.2665 127.695 82.4812 128.068C82.7052 128.432 82.9945 128.721 83.3492 128.936C83.7132 129.141 84.1099 129.244 84.5392 129.244C84.8939 129.244 85.2345 129.183 85.5612 129.062C85.8972 128.931 86.1819 128.759 86.4152 128.544L87.0592 129.23C86.6672 129.538 86.2612 129.767 85.8412 129.916C85.4212 130.065 84.9732 130.14 84.4972 130.14ZM82.1312 126.08H86.4572C86.4105 125.669 86.2845 125.305 86.0792 124.988C85.8832 124.661 85.6312 124.405 85.3232 124.218C85.0245 124.031 84.6885 123.938 84.3152 123.938C83.9419 123.938 83.6012 124.031 83.2932 124.218C82.9852 124.395 82.7285 124.647 82.5232 124.974C82.3272 125.291 82.1965 125.66 82.1312 126.08ZM91.3925 130.14C90.8325 130.14 90.3145 130.056 89.8385 129.888C89.3625 129.711 88.9565 129.459 88.6205 129.132L89.1665 128.46C89.5772 128.759 89.9552 128.978 90.3005 129.118C90.6458 129.249 91.0005 129.314 91.3645 129.314C91.8592 129.314 92.2698 129.197 92.5965 128.964C92.9232 128.731 93.0865 128.432 93.0865 128.068C93.0865 127.788 92.9885 127.569 92.7925 127.41C92.6058 127.251 92.2932 127.13 91.8545 127.046L90.7345 126.85C90.0718 126.729 89.5818 126.523 89.2645 126.234C88.9565 125.945 88.8025 125.553 88.8025 125.058C88.8025 124.666 88.9052 124.321 89.1105 124.022C89.3252 123.723 89.6192 123.49 89.9925 123.322C90.3658 123.145 90.7905 123.056 91.2665 123.056C91.7332 123.056 92.1765 123.126 92.5965 123.266C93.0165 123.397 93.4412 123.611 93.8705 123.91L93.3665 124.624C93.0118 124.372 92.6572 124.19 92.3025 124.078C91.9478 123.957 91.5885 123.896 91.2245 123.896C90.7765 123.896 90.4172 123.994 90.1465 124.19C89.8758 124.386 89.7405 124.652 89.7405 124.988C89.7405 125.268 89.8245 125.483 89.9925 125.632C90.1698 125.781 90.4778 125.893 90.9165 125.968L92.0645 126.178C92.7552 126.299 93.2592 126.509 93.5765 126.808C93.8938 127.107 94.0525 127.508 94.0525 128.012C94.0525 128.413 93.9358 128.777 93.7025 129.104C93.4692 129.421 93.1518 129.673 92.7505 129.86C92.3492 130.047 91.8965 130.14 91.3925 130.14Z" fill="#151515"/>
<mask id="path-10-inside-3_1316_89941" fill="white">
<path d="M40 148H124V193H40V148Z"/>
</mask>
<path d="M40 193H41V148H40H39V193H40Z" fill="#C7C7C7" mask="url(#path-10-inside-3_1316_89941)"/>
<path d="M57.4267 175V165.2H61.4727C62.1073 165.2 62.658 165.321 63.1247 165.564C63.5913 165.797 63.9507 166.133 64.2027 166.572C64.464 167.001 64.5947 167.51 64.5947 168.098C64.5947 168.677 64.464 169.185 64.2027 169.624C63.9507 170.063 63.5913 170.403 63.1247 170.646C62.658 170.879 62.1073 170.996 61.4727 170.996H58.5047V175H57.4267ZM58.5047 170.072H61.3467C62.028 170.072 62.56 169.895 62.9427 169.54C63.3253 169.185 63.5167 168.705 63.5167 168.098C63.5167 167.491 63.3253 167.015 62.9427 166.67C62.56 166.325 62.028 166.152 61.3467 166.152H58.5047V170.072ZM66.3225 175V168.168H67.3445V169.568C67.5218 169.092 67.7738 168.723 68.1005 168.462C68.4365 168.191 68.8191 168.056 69.2485 168.056C69.3698 168.056 69.4818 168.065 69.5845 168.084C69.6871 168.093 69.7898 168.117 69.8925 168.154V169.078C69.7805 169.041 69.6591 169.013 69.5285 168.994C69.4071 168.966 69.2905 168.952 69.1785 168.952C68.7585 168.952 68.3898 169.073 68.0725 169.316C67.7645 169.559 67.5218 169.899 67.3445 170.338V175H66.3225ZM73.8445 175.112C73.2098 175.112 72.6405 174.958 72.1365 174.65C71.6325 174.342 71.2358 173.922 70.9465 173.39C70.6572 172.858 70.5125 172.256 70.5125 171.584C70.5125 170.912 70.6572 170.31 70.9465 169.778C71.2358 169.246 71.6325 168.826 72.1365 168.518C72.6405 168.21 73.2098 168.056 73.8445 168.056C74.4698 168.056 75.0298 168.21 75.5245 168.518C76.0285 168.826 76.4252 169.246 76.7145 169.778C77.0038 170.31 77.1485 170.912 77.1485 171.584C77.1485 172.256 77.0038 172.858 76.7145 173.39C76.4252 173.922 76.0285 174.342 75.5245 174.65C75.0298 174.958 74.4698 175.112 73.8445 175.112ZM73.8305 174.216C74.2785 174.216 74.6752 174.104 75.0205 173.88C75.3658 173.647 75.6365 173.329 75.8325 172.928C76.0378 172.527 76.1405 172.079 76.1405 171.584C76.1405 171.08 76.0378 170.632 75.8325 170.24C75.6365 169.839 75.3658 169.526 75.0205 169.302C74.6752 169.069 74.2785 168.952 73.8305 168.952C73.3825 168.952 72.9858 169.069 72.6405 169.302C72.2952 169.526 72.0198 169.839 71.8145 170.24C71.6185 170.632 71.5205 171.08 71.5205 171.584C71.5205 172.079 71.6185 172.527 71.8145 172.928C72.0198 173.329 72.2952 173.647 72.6405 173.88C72.9858 174.104 73.3825 174.216 73.8305 174.216ZM79.4596 166.474C79.2543 166.474 79.0769 166.404 78.9276 166.264C78.7876 166.115 78.7176 165.942 78.7176 165.746C78.7176 165.55 78.7876 165.382 78.9276 165.242C79.0769 165.093 79.2543 165.018 79.4596 165.018C79.6649 165.018 79.8376 165.093 79.9776 165.242C80.1269 165.382 80.2016 165.55 80.2016 165.746C80.2016 165.942 80.1269 166.115 79.9776 166.264C79.8376 166.404 79.6649 166.474 79.4596 166.474ZM78.2416 178.066C78.1296 178.066 78.0176 178.052 77.9056 178.024C77.8029 178.005 77.7049 177.991 77.6116 177.982V177.1C77.6956 177.119 77.7796 177.133 77.8636 177.142C77.9383 177.151 78.0223 177.156 78.1156 177.156C78.4143 177.156 78.6243 177.086 78.7456 176.946C78.8763 176.806 78.9416 176.577 78.9416 176.26V168.168H79.9636V176.316C79.9636 176.867 79.8143 177.296 79.5156 177.604C79.2263 177.912 78.8016 178.066 78.2416 178.066ZM85.1388 175.14C84.5041 175.14 83.9301 174.986 83.4168 174.678C82.9035 174.361 82.4975 173.936 82.1988 173.404C81.9001 172.863 81.7508 172.256 81.7508 171.584C81.7508 170.912 81.8908 170.31 82.1708 169.778C82.4601 169.246 82.8475 168.826 83.3328 168.518C83.8181 168.21 84.3595 168.056 84.9568 168.056C85.5635 168.056 86.1001 168.21 86.5668 168.518C87.0428 168.817 87.4161 169.227 87.6868 169.75C87.9668 170.263 88.1068 170.847 88.1068 171.5V171.808H82.7448C82.7821 172.275 82.9081 172.695 83.1228 173.068C83.3468 173.432 83.6361 173.721 83.9908 173.936C84.3548 174.141 84.7515 174.244 85.1808 174.244C85.5355 174.244 85.8761 174.183 86.2028 174.062C86.5388 173.931 86.8235 173.759 87.0568 173.544L87.7008 174.23C87.3088 174.538 86.9028 174.767 86.4828 174.916C86.0628 175.065 85.6148 175.14 85.1388 175.14ZM82.7728 171.08H87.0988C87.0521 170.669 86.9261 170.305 86.7208 169.988C86.5248 169.661 86.2728 169.405 85.9648 169.218C85.6661 169.031 85.3301 168.938 84.9568 168.938C84.5835 168.938 84.2428 169.031 83.9348 169.218C83.6268 169.395 83.3701 169.647 83.1648 169.974C82.9688 170.291 82.8381 170.66 82.7728 171.08ZM92.9178 175.112C92.2831 175.112 91.7091 174.958 91.1958 174.65C90.6918 174.333 90.2904 173.908 89.9918 173.376C89.6931 172.835 89.5438 172.237 89.5438 171.584C89.5438 170.921 89.6931 170.324 89.9918 169.792C90.2904 169.26 90.6918 168.84 91.1958 168.532C91.7091 168.215 92.2831 168.056 92.9178 168.056C93.4218 168.056 93.9024 168.149 94.3598 168.336C94.8171 168.523 95.2138 168.784 95.5498 169.12L94.8918 169.834C94.6491 169.563 94.3551 169.353 94.0098 169.204C93.6644 169.055 93.3144 168.98 92.9598 168.98C92.5118 168.98 92.1058 169.097 91.7418 169.33C91.3871 169.563 91.1024 169.876 90.8878 170.268C90.6731 170.66 90.5658 171.099 90.5658 171.584C90.5658 172.069 90.6731 172.508 90.8878 172.9C91.1024 173.292 91.3871 173.605 91.7418 173.838C92.1058 174.071 92.5118 174.188 92.9598 174.188C93.3144 174.188 93.6644 174.113 94.0098 173.964C94.3551 173.805 94.6491 173.595 94.8918 173.334L95.5498 174.048C95.2138 174.384 94.8171 174.645 94.3598 174.832C93.9024 175.019 93.4218 175.112 92.9178 175.112ZM99.7155 175.14C99.1275 175.14 98.6795 175 98.3715 174.72C98.0729 174.431 97.9235 174.015 97.9235 173.474V169.008H96.5095V168.168H97.9235V166.292L98.9455 166.054V168.168H100.906V169.008H98.9455V173.208C98.9455 173.572 99.0202 173.833 99.1695 173.992C99.3282 174.151 99.5849 174.23 99.9395 174.23C100.117 174.23 100.276 174.216 100.416 174.188C100.556 174.16 100.719 174.113 100.906 174.048V174.958C100.719 175.023 100.523 175.07 100.318 175.098C100.112 175.126 99.9115 175.14 99.7155 175.14ZM104.653 175.14C104.093 175.14 103.575 175.056 103.099 174.888C102.623 174.711 102.217 174.459 101.881 174.132L102.427 173.46C102.838 173.759 103.216 173.978 103.561 174.118C103.907 174.249 104.261 174.314 104.625 174.314C105.12 174.314 105.531 174.197 105.857 173.964C106.184 173.731 106.347 173.432 106.347 173.068C106.347 172.788 106.249 172.569 106.053 172.41C105.867 172.251 105.554 172.13 105.115 172.046L103.995 171.85C103.333 171.729 102.843 171.523 102.525 171.234C102.217 170.945 102.063 170.553 102.063 170.058C102.063 169.666 102.166 169.321 102.371 169.022C102.586 168.723 102.88 168.49 103.253 168.322C103.627 168.145 104.051 168.056 104.527 168.056C104.994 168.056 105.437 168.126 105.857 168.266C106.277 168.397 106.702 168.611 107.131 168.91L106.627 169.624C106.273 169.372 105.918 169.19 105.563 169.078C105.209 168.957 104.849 168.896 104.485 168.896C104.037 168.896 103.678 168.994 103.407 169.19C103.137 169.386 103.001 169.652 103.001 169.988C103.001 170.268 103.085 170.483 103.253 170.632C103.431 170.781 103.739 170.893 104.177 170.968L105.325 171.178C106.016 171.299 106.52 171.509 106.837 171.808C107.155 172.107 107.313 172.508 107.313 173.012C107.313 173.413 107.197 173.777 106.963 174.104C106.73 174.421 106.413 174.673 106.011 174.86C105.61 175.047 105.157 175.14 104.653 175.14Z" fill="#4D4D4D"/>
<mask id="path-14-inside-4_1316_89941" fill="white">
<path d="M40 193H135V238H40V193Z"/>
</mask>
<path d="M40 238H41V193H40H39V238H40Z" fill="#C7C7C7" mask="url(#path-14-inside-4_1316_89941)"/>
<path d="M57.5741 220V210.2H59.0721L62.3481 217.172L65.6241 210.2H67.1221V220H66.1001V211.474L62.3481 219.3L58.5821 211.446V220H57.5741ZM72.503 220.14C71.8684 220.14 71.2944 219.986 70.781 219.678C70.2677 219.361 69.8617 218.936 69.563 218.404C69.2644 217.863 69.115 217.256 69.115 216.584C69.115 215.912 69.255 215.31 69.535 214.778C69.8244 214.246 70.2117 213.826 70.697 213.518C71.1824 213.21 71.7237 213.056 72.321 213.056C72.9277 213.056 73.4644 213.21 73.931 213.518C74.407 213.817 74.7804 214.227 75.051 214.75C75.331 215.263 75.471 215.847 75.471 216.5V216.808H70.109C70.1464 217.275 70.2724 217.695 70.487 218.068C70.711 218.432 71.0004 218.721 71.355 218.936C71.719 219.141 72.1157 219.244 72.545 219.244C72.8997 219.244 73.2404 219.183 73.567 219.062C73.903 218.931 74.1877 218.759 74.421 218.544L75.065 219.23C74.673 219.538 74.267 219.767 73.847 219.916C73.427 220.065 72.979 220.14 72.503 220.14ZM70.137 216.08H74.463C74.4164 215.669 74.2904 215.305 74.085 214.988C73.889 214.661 73.637 214.405 73.329 214.218C73.0304 214.031 72.6944 213.938 72.321 213.938C71.9477 213.938 71.607 214.031 71.299 214.218C70.991 214.395 70.7344 214.647 70.529 214.974C70.333 215.291 70.2024 215.66 70.137 216.08ZM79.3984 220.14C78.8384 220.14 78.3204 220.056 77.8444 219.888C77.3684 219.711 76.9624 219.459 76.6264 219.132L77.1724 218.46C77.583 218.759 77.961 218.978 78.3064 219.118C78.6517 219.249 79.0064 219.314 79.3704 219.314C79.865 219.314 80.2757 219.197 80.6024 218.964C80.929 218.731 81.0924 218.432 81.0924 218.068C81.0924 217.788 80.9944 217.569 80.7984 217.41C80.6117 217.251 80.299 217.13 79.8604 217.046L78.7404 216.85C78.0777 216.729 77.5877 216.523 77.2704 216.234C76.9624 215.945 76.8084 215.553 76.8084 215.058C76.8084 214.666 76.911 214.321 77.1164 214.022C77.331 213.723 77.625 213.49 77.9984 213.322C78.3717 213.145 78.7964 213.056 79.2724 213.056C79.739 213.056 80.1824 213.126 80.6024 213.266C81.0224 213.397 81.447 213.611 81.8764 213.91L81.3724 214.624C81.0177 214.372 80.663 214.19 80.3084 214.078C79.9537 213.957 79.5944 213.896 79.2304 213.896C78.7824 213.896 78.423 213.994 78.1524 214.19C77.8817 214.386 77.7464 214.652 77.7464 214.988C77.7464 215.268 77.8304 215.483 77.9984 215.632C78.1757 215.781 78.4837 215.893 78.9224 215.968L80.0704 216.178C80.761 216.299 81.265 216.509 81.5824 216.808C81.8997 217.107 82.0584 217.508 82.0584 218.012C82.0584 218.413 81.9417 218.777 81.7084 219.104C81.475 219.421 81.1577 219.673 80.7564 219.86C80.355 220.047 79.9024 220.14 79.3984 220.14ZM85.7285 220.14C85.1685 220.14 84.6505 220.056 84.1745 219.888C83.6985 219.711 83.2925 219.459 82.9565 219.132L83.5025 218.46C83.9131 218.759 84.2911 218.978 84.6365 219.118C84.9818 219.249 85.3365 219.314 85.7005 219.314C86.1951 219.314 86.6058 219.197 86.9325 218.964C87.2591 218.731 87.4225 218.432 87.4225 218.068C87.4225 217.788 87.3245 217.569 87.1285 217.41C86.9418 217.251 86.6291 217.13 86.1905 217.046L85.0705 216.85C84.4078 216.729 83.9178 216.523 83.6005 216.234C83.2925 215.945 83.1385 215.553 83.1385 215.058C83.1385 214.666 83.2411 214.321 83.4465 214.022C83.6611 213.723 83.9551 213.49 84.3285 213.322C84.7018 213.145 85.1265 213.056 85.6025 213.056C86.0691 213.056 86.5125 213.126 86.9325 213.266C87.3525 213.397 87.7771 213.611 88.2065 213.91L87.7025 214.624C87.3478 214.372 86.9931 214.19 86.6385 214.078C86.2838 213.957 85.9245 213.896 85.5605 213.896C85.1125 213.896 84.7531 213.994 84.4825 214.19C84.2118 214.386 84.0765 214.652 84.0765 214.988C84.0765 215.268 84.1605 215.483 84.3285 215.632C84.5058 215.781 84.8138 215.893 85.2525 215.968L86.4005 216.178C87.0911 216.299 87.5951 216.509 87.9125 216.808C88.2298 217.107 88.3885 217.508 88.3885 218.012C88.3885 218.413 88.2718 218.777 88.0385 219.104C87.8051 219.421 87.4878 219.673 87.0865 219.86C86.6851 220.047 86.2325 220.14 85.7285 220.14ZM92.1269 220.126C91.6416 220.126 91.2122 220.037 90.8389 219.86C90.4656 219.683 90.1716 219.44 89.9569 219.132C89.7516 218.815 89.6489 218.451 89.6489 218.04C89.6489 217.629 89.7562 217.275 89.9709 216.976C90.1856 216.668 90.4842 216.43 90.8669 216.262C91.2496 216.094 91.6976 216.01 92.2109 216.01C92.6029 216.01 92.9716 216.052 93.3169 216.136C93.6716 216.22 93.9982 216.355 94.2969 216.542V215.604C94.2969 215.044 94.1476 214.624 93.8489 214.344C93.5502 214.055 93.1116 213.91 92.5329 213.91C92.2156 213.91 91.8889 213.957 91.5529 214.05C91.2262 214.143 90.8622 214.293 90.4609 214.498L90.0829 213.714C90.9976 213.275 91.8562 213.056 92.6589 213.056C93.5082 213.056 94.1616 213.266 94.6189 213.686C95.0762 214.097 95.3049 214.689 95.3049 215.464V220H94.2969V219.202C93.9982 219.51 93.6669 219.743 93.3029 219.902C92.9389 220.051 92.5469 220.126 92.1269 220.126ZM90.6289 218.012C90.6289 218.413 90.7829 218.735 91.0909 218.978C91.4082 219.221 91.8236 219.342 92.3369 219.342C92.7196 219.342 93.0696 219.277 93.3869 219.146C93.7136 219.015 94.0169 218.819 94.2969 218.558V217.242C94.0076 217.074 93.7089 216.953 93.4009 216.878C93.0929 216.794 92.7476 216.752 92.3649 216.752C91.8422 216.752 91.4222 216.869 91.1049 217.102C90.7876 217.326 90.6289 217.629 90.6289 218.012ZM100.546 223.066C100.089 223.066 99.6267 223.001 99.16 222.87C98.7027 222.749 98.278 222.576 97.886 222.352L98.32 221.568C98.74 221.783 99.1227 221.941 99.468 222.044C99.8134 222.147 100.159 222.198 100.504 222.198C101.129 222.198 101.601 222.049 101.918 221.75C102.245 221.451 102.408 221.017 102.408 220.448V219.076C102.147 219.403 101.829 219.655 101.456 219.832C101.083 220 100.672 220.084 100.224 220.084C99.636 220.084 99.104 219.93 98.628 219.622C98.152 219.305 97.774 218.885 97.494 218.362C97.214 217.83 97.074 217.237 97.074 216.584C97.074 215.931 97.214 215.343 97.494 214.82C97.7834 214.288 98.1707 213.868 98.656 213.56C99.1414 213.243 99.6827 213.084 100.28 213.084C100.709 213.084 101.106 213.168 101.47 213.336C101.834 213.495 102.151 213.733 102.422 214.05V213.168H103.43V220.434C103.43 221.283 103.183 221.932 102.688 222.38C102.193 222.837 101.479 223.066 100.546 223.066ZM100.476 219.202C100.877 219.202 101.246 219.123 101.582 218.964C101.918 218.796 102.193 218.567 102.408 218.278V214.904C102.184 214.615 101.899 214.391 101.554 214.232C101.218 214.064 100.859 213.98 100.476 213.98C100.019 213.98 99.608 214.092 99.244 214.316C98.8894 214.54 98.6047 214.848 98.39 215.24C98.1847 215.632 98.082 216.08 98.082 216.584C98.082 217.079 98.1847 217.527 98.39 217.928C98.6047 218.32 98.8894 218.633 99.244 218.866C99.608 219.09 100.019 219.202 100.476 219.202ZM108.61 220.14C107.976 220.14 107.402 219.986 106.888 219.678C106.375 219.361 105.969 218.936 105.67 218.404C105.372 217.863 105.222 217.256 105.222 216.584C105.222 215.912 105.362 215.31 105.642 214.778C105.932 214.246 106.319 213.826 106.804 213.518C107.29 213.21 107.831 213.056 108.428 213.056C109.035 213.056 109.572 213.21 110.038 213.518C110.514 213.817 110.888 214.227 111.158 214.75C111.438 215.263 111.578 215.847 111.578 216.5V216.808H106.216C106.254 217.275 106.38 217.695 106.594 218.068C106.818 218.432 107.108 218.721 107.462 218.936C107.826 219.141 108.223 219.244 108.652 219.244C109.007 219.244 109.348 219.183 109.674 219.062C110.01 218.931 110.295 218.759 110.528 218.544L111.172 219.23C110.78 219.538 110.374 219.767 109.954 219.916C109.534 220.065 109.086 220.14 108.61 220.14ZM106.244 216.08H110.57C110.524 215.669 110.398 215.305 110.192 214.988C109.996 214.661 109.744 214.405 109.436 214.218C109.138 214.031 108.802 213.938 108.428 213.938C108.055 213.938 107.714 214.031 107.406 214.218C107.098 214.395 106.842 214.647 106.636 214.974C106.44 215.291 106.31 215.66 106.244 216.08ZM115.506 220.14C114.946 220.14 114.428 220.056 113.952 219.888C113.476 219.711 113.07 219.459 112.734 219.132L113.28 218.46C113.69 218.759 114.068 218.978 114.414 219.118C114.759 219.249 115.114 219.314 115.478 219.314C115.972 219.314 116.383 219.197 116.71 218.964C117.036 218.731 117.2 218.432 117.2 218.068C117.2 217.788 117.102 217.569 116.906 217.41C116.719 217.251 116.406 217.13 115.968 217.046L114.848 216.85C114.185 216.729 113.695 216.523 113.378 216.234C113.07 215.945 112.916 215.553 112.916 215.058C112.916 214.666 113.018 214.321 113.224 214.022C113.438 213.723 113.732 213.49 114.106 213.322C114.479 213.145 114.904 213.056 115.38 213.056C115.846 213.056 116.29 213.126 116.71 213.266C117.13 213.397 117.554 213.611 117.984 213.91L117.48 214.624C117.125 214.372 116.77 214.19 116.416 214.078C116.061 213.957 115.702 213.896 115.338 213.896C114.89 213.896 114.53 213.994 114.26 214.19C113.989 214.386 113.854 214.652 113.854 214.988C113.854 215.268 113.938 215.483 114.106 215.632C114.283 215.781 114.591 215.893 115.03 215.968L116.178 216.178C116.868 216.299 117.372 216.509 117.69 216.808C118.007 217.107 118.166 217.508 118.166 218.012C118.166 218.413 118.049 218.777 117.816 219.104C117.582 219.421 117.265 219.673 116.864 219.86C116.462 220.047 116.01 220.14 115.506 220.14Z" fill="#4D4D4D"/>
<mask id="path-18-inside-5_1316_89941" fill="white">
<path d="M40 238H125V283H40V238Z"/>
</mask>
<path d="M40 283H41V238H40H39V283H40Z" fill="#C7C7C7" mask="url(#path-18-inside-5_1316_89941)"/>
<path d="M60.6737 265.154C59.9083 265.154 59.199 265.019 58.5457 264.748C57.8923 264.468 57.2623 264.048 56.6557 263.488L57.3137 262.704C57.9017 263.255 58.4523 263.647 58.9657 263.88C59.4883 264.113 60.067 264.23 60.7017 264.23C61.2057 264.23 61.6537 264.146 62.0457 263.978C62.447 263.801 62.7597 263.563 62.9837 263.264C63.2077 262.965 63.3197 262.625 63.3197 262.242C63.3197 261.747 63.1563 261.374 62.8297 261.122C62.503 260.861 61.9383 260.66 61.1357 260.52L59.5537 260.254C58.6577 260.095 57.9997 259.825 57.5797 259.442C57.169 259.05 56.9637 258.527 56.9637 257.874C56.9637 257.323 57.1037 256.838 57.3837 256.418C57.673 255.989 58.0697 255.653 58.5737 255.41C59.0777 255.167 59.661 255.046 60.3237 255.046C61.0517 255.046 61.7283 255.149 62.3537 255.354C62.979 255.55 63.595 255.863 64.2017 256.292L63.6417 257.132C63.1377 256.749 62.6057 256.46 62.0457 256.264C61.4857 256.059 60.9163 255.956 60.3377 255.956C59.8803 255.956 59.4743 256.035 59.1197 256.194C58.7743 256.353 58.499 256.567 58.2937 256.838C58.0977 257.109 57.9997 257.417 57.9997 257.762C57.9997 258.191 58.1443 258.527 58.4337 258.77C58.723 259.013 59.1943 259.185 59.8477 259.288L61.4157 259.554C62.461 259.741 63.217 260.044 63.6837 260.464C64.1597 260.875 64.3977 261.449 64.3977 262.186C64.3977 262.755 64.2343 263.264 63.9077 263.712C63.5903 264.16 63.1517 264.515 62.5917 264.776C62.0317 265.028 61.3923 265.154 60.6737 265.154ZM69.253 265.14C68.6184 265.14 68.0444 264.986 67.531 264.678C67.0177 264.361 66.6117 263.936 66.313 263.404C66.0144 262.863 65.865 262.256 65.865 261.584C65.865 260.912 66.005 260.31 66.285 259.778C66.5744 259.246 66.9617 258.826 67.447 258.518C67.9324 258.21 68.4737 258.056 69.071 258.056C69.6777 258.056 70.2144 258.21 70.681 258.518C71.157 258.817 71.5304 259.227 71.801 259.75C72.081 260.263 72.221 260.847 72.221 261.5V261.808H66.859C66.8964 262.275 67.0224 262.695 67.237 263.068C67.461 263.432 67.7504 263.721 68.105 263.936C68.469 264.141 68.8657 264.244 69.295 264.244C69.6497 264.244 69.9904 264.183 70.317 264.062C70.653 263.931 70.9377 263.759 71.171 263.544L71.815 264.23C71.423 264.538 71.017 264.767 70.597 264.916C70.177 265.065 69.729 265.14 69.253 265.14ZM66.887 261.08H71.213C71.1664 260.669 71.0404 260.305 70.835 259.988C70.639 259.661 70.387 259.405 70.079 259.218C69.7804 259.031 69.4444 258.938 69.071 258.938C68.6977 258.938 68.357 259.031 68.049 259.218C67.741 259.395 67.4844 259.647 67.279 259.974C67.083 260.291 66.9524 260.66 66.887 261.08ZM76.3649 265.14C75.7769 265.14 75.3289 265 75.0209 264.72C74.7223 264.431 74.5729 264.015 74.5729 263.474V259.008H73.1589V258.168H74.5729V256.292L75.5949 256.054V258.168H77.5549V259.008H75.5949V263.208C75.5949 263.572 75.6696 263.833 75.8189 263.992C75.9776 264.151 76.2343 264.23 76.5889 264.23C76.7663 264.23 76.9249 264.216 77.0649 264.188C77.2049 264.16 77.3683 264.113 77.5549 264.048V264.958C77.3683 265.023 77.1723 265.07 76.9669 265.098C76.7616 265.126 76.5609 265.14 76.3649 265.14ZM81.7927 265.14C81.2047 265.14 80.7567 265 80.4487 264.72C80.15 264.431 80.0007 264.015 80.0007 263.474V259.008H78.5867V258.168H80.0007V256.292L81.0227 256.054V258.168H82.9827V259.008H81.0227V263.208C81.0227 263.572 81.0973 263.833 81.2467 263.992C81.4053 264.151 81.662 264.23 82.0167 264.23C82.194 264.23 82.3527 264.216 82.4927 264.188C82.6327 264.16 82.796 264.113 82.9827 264.048V264.958C82.796 265.023 82.6 265.07 82.3947 265.098C82.1893 265.126 81.9887 265.14 81.7927 265.14ZM84.4657 265V258.168H85.4877V265H84.4657ZM84.9837 256.474C84.7784 256.474 84.601 256.404 84.4517 256.264C84.3117 256.115 84.2417 255.942 84.2417 255.746C84.2417 255.55 84.3117 255.382 84.4517 255.242C84.601 255.093 84.7784 255.018 84.9837 255.018C85.189 255.018 85.3617 255.093 85.5017 255.242C85.651 255.382 85.7257 255.55 85.7257 255.746C85.7257 255.942 85.651 256.115 85.5017 256.264C85.3617 256.404 85.189 256.474 84.9837 256.474ZM87.5832 265V258.168H88.6052V259.274C88.8665 258.863 89.1792 258.56 89.5432 258.364C89.9072 258.159 90.3179 258.056 90.7752 258.056C91.2699 258.056 91.6992 258.163 92.0632 258.378C92.4365 258.583 92.7259 258.877 92.9312 259.26C93.1459 259.633 93.2532 260.072 93.2532 260.576V265H92.2312V260.87C92.2312 260.263 92.0632 259.787 91.7272 259.442C91.4005 259.087 90.9572 258.91 90.3972 258.91C90.0239 258.91 89.6832 258.999 89.3752 259.176C89.0672 259.353 88.8105 259.615 88.6052 259.96V265H87.5832ZM98.4718 268.066C98.0145 268.066 97.5525 268.001 97.0858 267.87C96.6285 267.749 96.2038 267.576 95.8118 267.352L96.2458 266.568C96.6658 266.783 97.0485 266.941 97.3938 267.044C97.7391 267.147 98.0845 267.198 98.4298 267.198C99.0551 267.198 99.5265 267.049 99.8438 266.75C100.17 266.451 100.334 266.017 100.334 265.448V264.076C100.072 264.403 99.7551 264.655 99.3818 264.832C99.0085 265 98.5978 265.084 98.1498 265.084C97.5618 265.084 97.0298 264.93 96.5538 264.622C96.0778 264.305 95.6998 263.885 95.4198 263.362C95.1398 262.83 94.9998 262.237 94.9998 261.584C94.9998 260.931 95.1398 260.343 95.4198 259.82C95.7091 259.288 96.0965 258.868 96.5818 258.56C97.0671 258.243 97.6085 258.084 98.2058 258.084C98.6351 258.084 99.0318 258.168 99.3958 258.336C99.7598 258.495 100.077 258.733 100.348 259.05V258.168H101.356V265.434C101.356 266.283 101.108 266.932 100.614 267.38C100.119 267.837 99.4051 268.066 98.4718 268.066ZM98.4018 264.202C98.8031 264.202 99.1718 264.123 99.5078 263.964C99.8438 263.796 100.119 263.567 100.334 263.278V259.904C100.11 259.615 99.8251 259.391 99.4798 259.232C99.1438 259.064 98.7845 258.98 98.4018 258.98C97.9445 258.98 97.5338 259.092 97.1698 259.316C96.8151 259.54 96.5305 259.848 96.3158 260.24C96.1105 260.632 96.0078 261.08 96.0078 261.584C96.0078 262.079 96.1105 262.527 96.3158 262.928C96.5305 263.32 96.8151 263.633 97.1698 263.866C97.5338 264.09 97.9445 264.202 98.4018 264.202ZM105.57 265.14C105.01 265.14 104.492 265.056 104.016 264.888C103.54 264.711 103.134 264.459 102.798 264.132L103.344 263.46C103.755 263.759 104.133 263.978 104.478 264.118C104.824 264.249 105.178 264.314 105.542 264.314C106.037 264.314 106.448 264.197 106.774 263.964C107.101 263.731 107.264 263.432 107.264 263.068C107.264 262.788 107.166 262.569 106.97 262.41C106.784 262.251 106.471 262.13 106.032 262.046L104.912 261.85C104.25 261.729 103.76 261.523 103.442 261.234C103.134 260.945 102.98 260.553 102.98 260.058C102.98 259.666 103.083 259.321 103.288 259.022C103.503 258.723 103.797 258.49 104.17 258.322C104.544 258.145 104.968 258.056 105.444 258.056C105.911 258.056 106.354 258.126 106.774 258.266C107.194 258.397 107.619 258.611 108.048 258.91L107.544 259.624C107.19 259.372 106.835 259.19 106.48 259.078C106.126 258.957 105.766 258.896 105.402 258.896C104.954 258.896 104.595 258.994 104.324 259.19C104.054 259.386 103.918 259.652 103.918 259.988C103.918 260.268 104.002 260.483 104.17 260.632C104.348 260.781 104.656 260.893 105.094 260.968L106.242 261.178C106.933 261.299 107.437 261.509 107.754 261.808C108.072 262.107 108.23 262.508 108.23 263.012C108.23 263.413 108.114 263.777 107.88 264.104C107.647 264.421 107.33 264.673 106.928 264.86C106.527 265.047 106.074 265.14 105.57 265.14Z" fill="#4D4D4D"/>
<path d="M105.333 125C105.333 126.473 106.527 127.667 108 127.667C109.473 127.667 110.667 126.473 110.667 125C110.667 123.527 109.473 122.333 108 122.333C106.527 122.333 105.333 123.527 105.333 125ZM108 125V125.5H130V125V124.5H108V125Z" fill="#C806CC"/>
<path d="M130 113C130 110.791 131.791 109 134 109H164C166.209 109 168 110.791 168 113V137C168 139.209 166.209 141 164 141H134C131.791 141 130 139.209 130 137V113Z" fill="#C806CC"/>
<path d="M148.888 131V120.254L146.62 121.208V119.624L149.536 118.4H150.67V131H148.888Z" fill="white"/>
<path d="M129.333 215C129.333 216.473 130.527 217.667 132 217.667C133.473 217.667 134.667 216.473 134.667 215C134.667 213.527 133.473 212.333 132 212.333C130.527 212.333 129.333 213.527 129.333 215ZM132 215V215.5H150V215V214.5H132V215Z" fill="#C806CC"/>
<path d="M150 203C150 200.791 151.791 199 154 199H188C190.209 199 192 200.791 192 203V227C192 229.209 190.209 231 188 231H154C151.791 231 150 229.209 150 227V203Z" fill="#C806CC"/>
<path d="M166.89 221V219.74L172.002 214.304C172.518 213.764 172.866 213.302 173.046 212.918C173.238 212.534 173.334 212.126 173.334 211.694C173.334 211.13 173.106 210.662 172.65 210.29C172.194 209.918 171.618 209.732 170.922 209.732C170.346 209.732 169.806 209.846 169.302 210.074C168.798 210.302 168.24 210.698 167.628 211.262L166.656 210.074C167.988 208.826 169.422 208.202 170.958 208.202C171.762 208.202 172.47 208.346 173.082 208.634C173.694 208.922 174.168 209.324 174.504 209.84C174.852 210.344 175.026 210.926 175.026 211.586C175.026 212.006 174.972 212.396 174.864 212.756C174.756 213.104 174.57 213.476 174.306 213.872C174.042 214.256 173.67 214.7 173.19 215.204L169.086 219.524L175.278 219.506V221H166.89Z" fill="white"/>
</svg>
