<?xml version="1.0" encoding="utf-8"?>
<!-- Generator: Adobe Illustrator 24.0.1, SVG Export Plug-In . SVG Version: 6.00 Build 0)  -->
<svg version="1.1" id="Layer_1" xmlns="http://www.w3.org/2000/svg" xmlns:xlink="http://www.w3.org/1999/xlink" x="0px" y="0px"
	 viewBox="0 0 384 448" style="enable-background:new 0 0 384 448;" xml:space="preserve">
<path d="M224,136v112c0,4.5-3.5,8-8,8h-80c-4.5,0-8-3.5-8-8v-16c0-4.5,3.5-8,8-8h56v-88c0-4.5,3.5-8,8-8h16
	C220.5,128,224,131.5,224,136z M328,224c0-75-61-136-136-136S56,149,56,224s61,136,136,136S328,299,328,224z M384,224
	c0,106-86,192-192,192S0,330,0,224S86,32,192,32S384,118,384,224z"/>
</svg>
