<?xml version="1.0" encoding="utf-8"?>
<!-- Generator: Adobe Illustrator 24.0.1, SVG Export Plug-In . SVG Version: 6.00 Build 0)  -->
<svg version="1.1" id="Layer_1" xmlns="http://www.w3.org/2000/svg" xmlns:xlink="http://www.w3.org/1999/xlink" x="0px" y="0px"
	 viewBox="0 0 448 448" style="enable-background:new 0 0 448 448;" xml:space="preserve">
<path d="M128,312v48c0,13.2-10.8,24-24,24H24c-13.2,0-24-10.8-24-24v-48c0-13.2,10.8-24,24-24h80C117.2,288,128,298.8,128,312z
	 M128,184v48c0,13.2-10.8,24-24,24H24c-13.2,0-24-10.8-24-24v-48c0-13.2,10.8-24,24-24h80C117.2,160,128,170.8,128,184z M288,312v48
	c0,13.2-10.8,24-24,24h-80c-13.2,0-24-10.8-24-24v-48c0-13.2,10.8-24,24-24h80C277.2,288,288,298.8,288,312z M128,56v48
	c0,13.2-10.8,24-24,24H24c-13.2,0-24-10.8-24-24V56c0-13.2,10.8-24,24-24h80C117.2,32,128,42.8,128,56z M288,184v48
	c0,13.2-10.8,24-24,24h-80c-13.2,0-24-10.8-24-24v-48c0-13.2,10.8-24,24-24h80C277.2,160,288,170.8,288,184z M448,312v48
	c0,13.2-10.8,24-24,24h-80c-13.2,0-24-10.8-24-24v-48c0-13.2,10.8-24,24-24h80C437.2,288,448,298.8,448,312z M288,56v48
	c0,13.2-10.8,24-24,24h-80c-13.2,0-24-10.8-24-24V56c0-13.2,10.8-24,24-24h80C277.2,32,288,42.8,288,56z M448,184v48
	c0,13.2-10.8,24-24,24h-80c-13.2,0-24-10.8-24-24v-48c0-13.2,10.8-24,24-24h80C437.2,160,448,170.8,448,184z M448,56v48
	c0,13.2-10.8,24-24,24h-80c-13.2,0-24-10.8-24-24V56c0-13.2,10.8-24,24-24h80C437.2,32,448,42.8,448,56z"/>
</svg>
