<svg width="742" height="320" viewBox="0 0 742 320" fill="none" xmlns="http://www.w3.org/2000/svg">
<rect width="742" height="320" fill="white"/>
<path d="M49.018 161.982C50.0748 220.162 97.5676 267 156 267C215.094 267 263 219.094 263 160C263 101.585 216.19 54.1031 158.034 53.0189" stroke="#0066CC" stroke-width="8"/>
<path d="M155.014 53.0045C96.7044 53.5306 49.5345 100.698 49.0045 159.007" stroke="#B1380B" stroke-width="8"/>
<rect x="155" y="49" width="3" height="8" fill="white"/>
<rect x="53" y="159" width="3" height="8" transform="rotate(90 53 159)" fill="white"/>
<path d="M157.192 163.108C154.578 163.108 152.31 162.221 150.388 160.448L152.04 158.6C152.88 159.365 153.71 159.925 154.532 160.28C155.372 160.616 156.286 160.784 157.276 160.784C158.601 160.784 159.665 160.401 160.468 159.636C161.289 158.871 161.7 157.881 161.7 156.668C161.7 155.492 161.28 154.54 160.44 153.812C159.618 153.084 158.545 152.72 157.22 152.72C156.548 152.72 155.885 152.813 155.232 153C154.578 153.168 153.897 153.439 153.188 153.812L151.284 153.224L151.732 143.2H163.38V145.524H154.084L153.804 151.572C154.532 151.199 155.222 150.947 155.876 150.816C156.548 150.667 157.238 150.592 157.948 150.592C159.254 150.592 160.384 150.844 161.336 151.348C162.306 151.833 163.062 152.524 163.604 153.42C164.145 154.316 164.416 155.352 164.416 156.528C164.416 157.835 164.108 158.983 163.492 159.972C162.894 160.943 162.054 161.708 160.972 162.268C159.889 162.828 158.629 163.108 157.192 163.108Z" fill="#151515"/>
<path d="M113.916 186.8V177H120.608V177.952H114.994V181.452H118.83V182.39H114.994V186.8H113.916ZM123.463 186.926C122.977 186.926 122.548 186.837 122.175 186.66C121.801 186.483 121.507 186.24 121.293 185.932C121.087 185.615 120.985 185.251 120.985 184.84C120.985 184.429 121.092 184.075 121.307 183.776C121.521 183.468 121.82 183.23 122.203 183.062C122.585 182.894 123.033 182.81 123.547 182.81C123.939 182.81 124.307 182.852 124.653 182.936C125.007 183.02 125.334 183.155 125.633 183.342V182.404C125.633 181.844 125.483 181.424 125.185 181.144C124.886 180.855 124.447 180.71 123.869 180.71C123.551 180.71 123.225 180.757 122.889 180.85C122.562 180.943 122.198 181.093 121.797 181.298L121.419 180.514C122.333 180.075 123.192 179.856 123.995 179.856C124.844 179.856 125.497 180.066 125.955 180.486C126.412 180.897 126.641 181.489 126.641 182.264V186.8H125.633V186.002C125.334 186.31 125.003 186.543 124.639 186.702C124.275 186.851 123.883 186.926 123.463 186.926ZM121.965 184.812C121.965 185.213 122.119 185.535 122.427 185.778C122.744 186.021 123.159 186.142 123.673 186.142C124.055 186.142 124.405 186.077 124.723 185.946C125.049 185.815 125.353 185.619 125.633 185.358V184.042C125.343 183.874 125.045 183.753 124.737 183.678C124.429 183.594 124.083 183.552 123.701 183.552C123.178 183.552 122.758 183.669 122.441 183.902C122.123 184.126 121.965 184.429 121.965 184.812ZM128.704 186.8V179.968H129.726V186.8H128.704ZM129.222 178.274C129.017 178.274 128.839 178.204 128.69 178.064C128.55 177.915 128.48 177.742 128.48 177.546C128.48 177.35 128.55 177.182 128.69 177.042C128.839 176.893 129.017 176.818 129.222 176.818C129.427 176.818 129.6 176.893 129.74 177.042C129.889 177.182 129.964 177.35 129.964 177.546C129.964 177.742 129.889 177.915 129.74 178.064C129.6 178.204 129.427 178.274 129.222 178.274ZM131.821 186.8V176.692L132.843 176.482V186.8H131.821ZM138.019 186.94C137.384 186.94 136.81 186.786 136.297 186.478C135.783 186.161 135.377 185.736 135.079 185.204C134.78 184.663 134.631 184.056 134.631 183.384C134.631 182.712 134.771 182.11 135.051 181.578C135.34 181.046 135.727 180.626 136.213 180.318C136.698 180.01 137.239 179.856 137.837 179.856C138.443 179.856 138.98 180.01 139.447 180.318C139.923 180.617 140.296 181.027 140.567 181.55C140.847 182.063 140.987 182.647 140.987 183.3V183.608H135.625C135.662 184.075 135.788 184.495 136.003 184.868C136.227 185.232 136.516 185.521 136.871 185.736C137.235 185.941 137.631 186.044 138.061 186.044C138.415 186.044 138.756 185.983 139.083 185.862C139.419 185.731 139.703 185.559 139.937 185.344L140.581 186.03C140.189 186.338 139.783 186.567 139.363 186.716C138.943 186.865 138.495 186.94 138.019 186.94ZM135.653 182.88H139.979C139.932 182.469 139.806 182.105 139.601 181.788C139.405 181.461 139.153 181.205 138.845 181.018C138.546 180.831 138.21 180.738 137.837 180.738C137.463 180.738 137.123 180.831 136.815 181.018C136.507 181.195 136.25 181.447 136.045 181.774C135.849 182.091 135.718 182.46 135.653 182.88ZM145.574 186.898C144.986 186.898 144.454 186.744 143.978 186.436C143.502 186.119 143.124 185.699 142.844 185.176C142.564 184.644 142.424 184.051 142.424 183.398C142.424 182.735 142.564 182.143 142.844 181.62C143.133 181.088 143.52 180.668 144.006 180.36C144.491 180.043 145.032 179.884 145.63 179.884C146.05 179.884 146.442 179.968 146.806 180.136C147.17 180.295 147.487 180.528 147.758 180.836V176.692L148.78 176.482V186.8H147.758V185.89C147.496 186.217 147.179 186.469 146.806 186.646C146.432 186.814 146.022 186.898 145.574 186.898ZM145.826 186.002C146.227 186.002 146.596 185.923 146.932 185.764C147.268 185.605 147.543 185.381 147.758 185.092V181.704C147.534 181.415 147.249 181.191 146.904 181.032C146.568 180.864 146.208 180.78 145.826 180.78C145.368 180.78 144.958 180.892 144.594 181.116C144.239 181.34 143.954 181.648 143.74 182.04C143.534 182.432 143.432 182.88 143.432 183.384C143.432 183.879 143.534 184.327 143.74 184.728C143.954 185.12 144.239 185.433 144.594 185.666C144.958 185.89 145.368 186.002 145.826 186.002ZM154.666 178.274C154.46 178.274 154.283 178.204 154.134 178.064C153.994 177.915 153.924 177.742 153.924 177.546C153.924 177.35 153.994 177.182 154.134 177.042C154.283 176.893 154.46 176.818 154.666 176.818C154.871 176.818 155.044 176.893 155.184 177.042C155.333 177.182 155.408 177.35 155.408 177.546C155.408 177.742 155.333 177.915 155.184 178.064C155.044 178.204 154.871 178.274 154.666 178.274ZM153.448 189.866C153.336 189.866 153.224 189.852 153.112 189.824C153.009 189.805 152.911 189.791 152.818 189.782V188.9C152.902 188.919 152.986 188.933 153.07 188.942C153.144 188.951 153.228 188.956 153.322 188.956C153.62 188.956 153.83 188.886 153.952 188.746C154.082 188.606 154.148 188.377 154.148 188.06V179.968H155.17V188.116C155.17 188.667 155.02 189.096 154.722 189.404C154.432 189.712 154.008 189.866 153.448 189.866ZM160.289 186.912C159.654 186.912 159.085 186.758 158.581 186.45C158.077 186.142 157.68 185.722 157.391 185.19C157.102 184.658 156.957 184.056 156.957 183.384C156.957 182.712 157.102 182.11 157.391 181.578C157.68 181.046 158.077 180.626 158.581 180.318C159.085 180.01 159.654 179.856 160.289 179.856C160.914 179.856 161.474 180.01 161.969 180.318C162.473 180.626 162.87 181.046 163.159 181.578C163.448 182.11 163.593 182.712 163.593 183.384C163.593 184.056 163.448 184.658 163.159 185.19C162.87 185.722 162.473 186.142 161.969 186.45C161.474 186.758 160.914 186.912 160.289 186.912ZM160.275 186.016C160.723 186.016 161.12 185.904 161.465 185.68C161.81 185.447 162.081 185.129 162.277 184.728C162.482 184.327 162.585 183.879 162.585 183.384C162.585 182.88 162.482 182.432 162.277 182.04C162.081 181.639 161.81 181.326 161.465 181.102C161.12 180.869 160.723 180.752 160.275 180.752C159.827 180.752 159.43 180.869 159.085 181.102C158.74 181.326 158.464 181.639 158.259 182.04C158.063 182.432 157.965 182.88 157.965 183.384C157.965 183.879 158.063 184.327 158.259 184.728C158.464 185.129 158.74 185.447 159.085 185.68C159.43 185.904 159.827 186.016 160.275 186.016ZM165.386 186.8V176.79L166.408 176.58V180.906C166.669 180.579 166.987 180.327 167.36 180.15C167.733 179.973 168.149 179.884 168.606 179.884C169.203 179.884 169.735 180.043 170.202 180.36C170.678 180.668 171.056 181.088 171.336 181.62C171.616 182.143 171.756 182.731 171.756 183.384C171.756 184.037 171.611 184.63 171.322 185.162C171.042 185.694 170.659 186.119 170.174 186.436C169.698 186.744 169.157 186.898 168.55 186.898C168.121 186.898 167.719 186.814 167.346 186.646C166.982 186.469 166.665 186.221 166.394 185.904V186.8H165.386ZM168.354 186.016C168.811 186.016 169.217 185.904 169.572 185.68C169.936 185.447 170.221 185.134 170.426 184.742C170.641 184.341 170.748 183.893 170.748 183.398C170.748 182.894 170.641 182.446 170.426 182.054C170.221 181.662 169.936 181.354 169.572 181.13C169.217 180.897 168.811 180.78 168.354 180.78C167.953 180.78 167.579 180.864 167.234 181.032C166.898 181.191 166.623 181.419 166.408 181.718V185.064C166.632 185.363 166.912 185.596 167.248 185.764C167.593 185.932 167.962 186.016 168.354 186.016ZM176.816 186.8V179.968H177.838V181.368C178.015 180.892 178.267 180.523 178.594 180.262C178.93 179.991 179.312 179.856 179.742 179.856C179.863 179.856 179.975 179.865 180.078 179.884C180.18 179.893 180.283 179.917 180.386 179.954V180.878C180.274 180.841 180.152 180.813 180.022 180.794C179.9 180.766 179.784 180.752 179.672 180.752C179.252 180.752 178.883 180.873 178.566 181.116C178.258 181.359 178.015 181.699 177.838 182.138V186.8H176.816ZM184.037 186.912C183.551 186.912 183.122 186.805 182.749 186.59C182.375 186.375 182.081 186.077 181.867 185.694C181.661 185.311 181.559 184.873 181.559 184.378V179.968H182.595V184.084C182.595 184.691 182.758 185.171 183.085 185.526C183.411 185.881 183.855 186.058 184.415 186.058C184.797 186.058 185.138 185.969 185.437 185.792C185.745 185.615 186.001 185.358 186.207 185.022V179.968H187.229V186.8H186.207V185.694C185.945 186.095 185.633 186.399 185.269 186.604C184.914 186.809 184.503 186.912 184.037 186.912ZM189.325 186.8V179.968H190.347V181.074C190.609 180.663 190.921 180.36 191.285 180.164C191.649 179.959 192.06 179.856 192.517 179.856C193.012 179.856 193.441 179.963 193.805 180.178C194.179 180.383 194.468 180.677 194.673 181.06C194.888 181.433 194.995 181.872 194.995 182.376V186.8H193.973V182.67C193.973 182.063 193.805 181.587 193.469 181.242C193.143 180.887 192.699 180.71 192.139 180.71C191.766 180.71 191.425 180.799 191.117 180.976C190.809 181.153 190.553 181.415 190.347 181.76V186.8H189.325ZM199.164 186.94C198.604 186.94 198.086 186.856 197.61 186.688C197.134 186.511 196.728 186.259 196.392 185.932L196.938 185.26C197.349 185.559 197.727 185.778 198.072 185.918C198.417 186.049 198.772 186.114 199.136 186.114C199.631 186.114 200.041 185.997 200.368 185.764C200.695 185.531 200.858 185.232 200.858 184.868C200.858 184.588 200.76 184.369 200.564 184.21C200.377 184.051 200.065 183.93 199.626 183.846L198.506 183.65C197.843 183.529 197.353 183.323 197.036 183.034C196.728 182.745 196.574 182.353 196.574 181.858C196.574 181.466 196.677 181.121 196.882 180.822C197.097 180.523 197.391 180.29 197.764 180.122C198.137 179.945 198.562 179.856 199.038 179.856C199.505 179.856 199.948 179.926 200.368 180.066C200.788 180.197 201.213 180.411 201.642 180.71L201.138 181.424C200.783 181.172 200.429 180.99 200.074 180.878C199.719 180.757 199.36 180.696 198.996 180.696C198.548 180.696 198.189 180.794 197.918 180.99C197.647 181.186 197.512 181.452 197.512 181.788C197.512 182.068 197.596 182.283 197.764 182.432C197.941 182.581 198.249 182.693 198.688 182.768L199.836 182.978C200.527 183.099 201.031 183.309 201.348 183.608C201.665 183.907 201.824 184.308 201.824 184.812C201.824 185.213 201.707 185.577 201.474 185.904C201.241 186.221 200.923 186.473 200.522 186.66C200.121 186.847 199.668 186.94 199.164 186.94Z" fill="#4D4D4D"/>
<path d="M482 40C502.495 40 522.648 45.249 540.538 55.2467C558.429 65.2444 573.461 79.6575 584.202 97.1124C594.942 114.567 601.033 134.482 601.894 154.959C602.755 175.435 598.357 195.791 589.12 214.086C579.883 232.381 566.114 248.005 549.126 259.469C532.138 270.934 512.496 277.856 492.074 279.576C471.652 281.297 451.129 277.758 432.462 269.298C413.795 260.837 397.607 247.737 385.439 231.245L482 160V40Z" fill="#0066CC"/>
<mask id="path-8-inside-1_514_9599" fill="white">
<path d="M385.438 231.244C370.393 210.852 362.189 186.221 362.003 160.88C361.817 135.539 369.659 110.79 384.403 90.1797L482 160L385.438 231.244Z"/>
</mask>
<path d="M385.438 231.244C370.393 210.852 362.189 186.221 362.003 160.88C361.817 135.539 369.659 110.79 384.403 90.1797L482 160L385.438 231.244Z" fill="#B1380B" stroke="#B1380B" stroke-width="2" mask="url(#path-8-inside-1_514_9599)"/>
<path d="M382.648 92.7006C396.314 72.5267 415.797 56.991 438.506 48.1595L482 160L382.648 92.7006Z" fill="#B1380B"/>
<path d="M436.812 48.8332C451.181 42.9925 466.546 39.9928 482.056 40L482 160L436.812 48.8332Z" fill="#B1380B"/>
<rect x="626" y="138" width="10" height="10" fill="#0066CC"/>
<path d="M644.612 147V146.364L647.972 142.692C648.236 142.404 648.44 142.152 648.584 141.936C648.736 141.712 648.84 141.504 648.896 141.312C648.96 141.12 648.992 140.916 648.992 140.7C648.992 140.276 648.824 139.928 648.488 139.656C648.16 139.376 647.74 139.236 647.228 139.236C646.836 139.236 646.472 139.312 646.136 139.464C645.8 139.616 645.424 139.88 645.008 140.256L644.504 139.656C644.944 139.256 645.388 138.96 645.836 138.768C646.284 138.568 646.752 138.468 647.24 138.468C647.744 138.468 648.192 138.564 648.584 138.756C648.976 138.94 649.284 139.196 649.508 139.524C649.732 139.852 649.844 140.228 649.844 140.652C649.844 140.932 649.808 141.192 649.736 141.432C649.664 141.664 649.536 141.916 649.352 142.188C649.168 142.452 648.904 142.772 648.56 143.148L645.692 146.256L650.024 146.244V147H644.612ZM654.534 147.132C653.894 147.132 653.326 146.948 652.83 146.58C652.342 146.212 651.958 145.704 651.678 145.056C651.398 144.4 651.258 143.648 651.258 142.8C651.258 141.944 651.398 141.192 651.678 140.544C651.958 139.896 652.342 139.388 652.83 139.02C653.326 138.652 653.894 138.468 654.534 138.468C655.174 138.468 655.738 138.652 656.226 139.02C656.722 139.388 657.11 139.896 657.39 140.544C657.67 141.192 657.81 141.944 657.81 142.8C657.81 143.648 657.67 144.4 657.39 145.056C657.11 145.704 656.722 146.212 656.226 146.58C655.738 146.948 655.174 147.132 654.534 147.132ZM654.534 146.352C655.022 146.352 655.442 146.208 655.794 145.92C656.154 145.624 656.434 145.212 656.634 144.684C656.834 144.148 656.934 143.52 656.934 142.8C656.934 142.08 656.834 141.456 656.634 140.928C656.434 140.392 656.154 139.98 655.794 139.692C655.442 139.396 655.022 139.248 654.534 139.248C654.054 139.248 653.634 139.396 653.274 139.692C652.914 139.98 652.634 140.392 652.434 140.928C652.234 141.456 652.134 142.08 652.134 142.8C652.134 143.52 652.234 144.148 652.434 144.684C652.634 145.212 652.914 145.624 653.274 145.92C653.634 146.208 654.054 146.352 654.534 146.352ZM664.825 147.096C664.281 147.096 663.789 146.964 663.349 146.7C662.917 146.428 662.573 146.064 662.317 145.608C662.061 145.144 661.933 144.632 661.933 144.072C661.933 143.504 662.061 142.992 662.317 142.536C662.573 142.08 662.917 141.72 663.349 141.456C663.789 141.184 664.281 141.048 664.825 141.048C665.257 141.048 665.669 141.128 666.061 141.288C666.453 141.448 666.793 141.672 667.081 141.96L666.517 142.572C666.309 142.34 666.057 142.16 665.761 142.032C665.465 141.904 665.165 141.84 664.861 141.84C664.477 141.84 664.129 141.94 663.817 142.14C663.513 142.34 663.269 142.608 663.085 142.944C662.901 143.28 662.809 143.656 662.809 144.072C662.809 144.488 662.901 144.864 663.085 145.2C663.269 145.536 663.513 145.804 663.817 146.004C664.129 146.204 664.477 146.304 664.861 146.304C665.165 146.304 665.465 146.24 665.761 146.112C666.057 145.976 666.309 145.796 666.517 145.572L667.081 146.184C666.793 146.472 666.453 146.696 666.061 146.856C665.669 147.016 665.257 147.096 664.825 147.096ZM670.719 147.096C670.175 147.096 669.687 146.964 669.255 146.7C668.823 146.436 668.483 146.076 668.235 145.62C667.987 145.164 667.863 144.648 667.863 144.072C667.863 143.496 667.987 142.98 668.235 142.524C668.483 142.068 668.823 141.708 669.255 141.444C669.687 141.18 670.175 141.048 670.719 141.048C671.255 141.048 671.735 141.18 672.159 141.444C672.591 141.708 672.931 142.068 673.179 142.524C673.427 142.98 673.551 143.496 673.551 144.072C673.551 144.648 673.427 145.164 673.179 145.62C672.931 146.076 672.591 146.436 672.159 146.7C671.735 146.964 671.255 147.096 670.719 147.096ZM670.707 146.328C671.091 146.328 671.431 146.232 671.727 146.04C672.023 145.84 672.255 145.568 672.423 145.224C672.599 144.88 672.687 144.496 672.687 144.072C672.687 143.64 672.599 143.256 672.423 142.92C672.255 142.576 672.023 142.308 671.727 142.116C671.431 141.916 671.091 141.816 670.707 141.816C670.323 141.816 669.983 141.916 669.687 142.116C669.391 142.308 669.155 142.576 668.979 142.92C668.811 143.256 668.727 143.64 668.727 144.072C668.727 144.496 668.811 144.88 668.979 145.224C669.155 145.568 669.391 145.84 669.687 146.04C669.983 146.232 670.323 146.328 670.707 146.328ZM675.088 147V141.144H675.964V142.056C676.188 141.72 676.444 141.468 676.732 141.3C677.02 141.132 677.344 141.048 677.704 141.048C678.12 141.048 678.484 141.152 678.796 141.36C679.108 141.56 679.344 141.836 679.504 142.188C679.736 141.812 680.012 141.528 680.332 141.336C680.66 141.144 681.036 141.048 681.46 141.048C681.852 141.048 682.196 141.14 682.492 141.324C682.796 141.508 683.032 141.764 683.2 142.092C683.368 142.412 683.452 142.788 683.452 143.22V147H682.576V143.436C682.576 142.924 682.448 142.52 682.192 142.224C681.936 141.928 681.584 141.78 681.136 141.78C680.832 141.78 680.556 141.856 680.308 142.008C680.068 142.16 679.856 142.392 679.672 142.704C679.688 142.784 679.7 142.868 679.708 142.956C679.716 143.044 679.72 143.132 679.72 143.22V147H678.844V143.436C678.844 142.924 678.712 142.52 678.448 142.224C678.192 141.928 677.84 141.78 677.392 141.78C676.792 141.78 676.316 142.068 675.964 142.644V147H675.088ZM685.224 149.508V141.144H686.088V141.984C686.312 141.688 686.584 141.464 686.904 141.312C687.232 141.152 687.592 141.072 687.984 141.072C688.496 141.072 688.952 141.208 689.352 141.48C689.76 141.744 690.084 142.104 690.324 142.56C690.564 143.008 690.684 143.512 690.684 144.072C690.684 144.632 690.56 145.14 690.312 145.596C690.072 146.052 689.744 146.416 689.328 146.688C688.92 146.952 688.456 147.084 687.936 147.084C687.568 147.084 687.228 147.016 686.916 146.88C686.604 146.736 686.332 146.532 686.1 146.268V149.508H685.224ZM687.768 146.328C688.16 146.328 688.508 146.232 688.812 146.04C689.124 145.84 689.368 145.572 689.544 145.236C689.728 144.892 689.82 144.508 689.82 144.084C689.82 143.652 689.728 143.268 689.544 142.932C689.368 142.596 689.124 142.332 688.812 142.14C688.508 141.94 688.16 141.84 687.768 141.84C687.424 141.84 687.104 141.912 686.808 142.056C686.52 142.192 686.284 142.388 686.1 142.644V145.512C686.292 145.768 686.532 145.968 686.82 146.112C687.116 146.256 687.432 146.328 687.768 146.328ZM692.22 147V138.336L693.096 138.156V147H692.22ZM697.532 147.12C696.988 147.12 696.496 146.988 696.056 146.724C695.616 146.452 695.268 146.088 695.012 145.632C694.756 145.168 694.628 144.648 694.628 144.072C694.628 143.496 694.748 142.98 694.988 142.524C695.236 142.068 695.568 141.708 695.984 141.444C696.4 141.18 696.864 141.048 697.376 141.048C697.896 141.048 698.356 141.18 698.756 141.444C699.164 141.7 699.484 142.052 699.716 142.5C699.956 142.94 700.076 143.44 700.076 144V144.264H695.48C695.512 144.664 695.62 145.024 695.804 145.344C695.996 145.656 696.244 145.904 696.548 146.088C696.86 146.264 697.2 146.352 697.568 146.352C697.872 146.352 698.164 146.3 698.444 146.196C698.732 146.084 698.976 145.936 699.176 145.752L699.728 146.34C699.392 146.604 699.044 146.8 698.684 146.928C698.324 147.056 697.94 147.12 697.532 147.12ZM695.504 143.64H699.212C699.172 143.288 699.064 142.976 698.888 142.704C698.72 142.424 698.504 142.204 698.24 142.044C697.984 141.884 697.696 141.804 697.376 141.804C697.056 141.804 696.764 141.884 696.5 142.044C696.236 142.196 696.016 142.412 695.84 142.692C695.672 142.964 695.56 143.28 695.504 143.64ZM703.628 147.12C703.124 147.12 702.74 147 702.476 146.76C702.22 146.512 702.092 146.156 702.092 145.692V141.864H700.88V141.144H702.092V139.536L702.968 139.332V141.144H704.648V141.864H702.968V145.464C702.968 145.776 703.032 146 703.16 146.136C703.296 146.272 703.516 146.34 703.82 146.34C703.972 146.34 704.108 146.328 704.228 146.304C704.348 146.28 704.488 146.24 704.648 146.184V146.964C704.488 147.02 704.32 147.06 704.144 147.084C703.968 147.108 703.796 147.12 703.628 147.12ZM708.454 147.12C707.91 147.12 707.418 146.988 706.978 146.724C706.538 146.452 706.19 146.088 705.934 145.632C705.678 145.168 705.55 144.648 705.55 144.072C705.55 143.496 705.67 142.98 705.91 142.524C706.158 142.068 706.49 141.708 706.906 141.444C707.322 141.18 707.786 141.048 708.298 141.048C708.818 141.048 709.278 141.18 709.678 141.444C710.086 141.7 710.406 142.052 710.638 142.5C710.878 142.94 710.998 143.44 710.998 144V144.264H706.402C706.434 144.664 706.542 145.024 706.726 145.344C706.918 145.656 707.166 145.904 707.47 146.088C707.782 146.264 708.122 146.352 708.49 146.352C708.794 146.352 709.086 146.3 709.366 146.196C709.654 146.084 709.898 145.936 710.098 145.752L710.65 146.34C710.314 146.604 709.966 146.8 709.606 146.928C709.246 147.056 708.862 147.12 708.454 147.12ZM706.426 143.64H710.134C710.094 143.288 709.986 142.976 709.81 142.704C709.642 142.424 709.426 142.204 709.162 142.044C708.906 141.884 708.618 141.804 708.298 141.804C707.978 141.804 707.686 141.884 707.422 142.044C707.158 142.196 706.938 142.412 706.762 142.692C706.594 142.964 706.482 143.28 706.426 143.64ZM714.93 147.084C714.426 147.084 713.97 146.952 713.562 146.688C713.154 146.416 712.83 146.056 712.59 145.608C712.35 145.152 712.23 144.644 712.23 144.084C712.23 143.516 712.35 143.008 712.59 142.56C712.838 142.104 713.17 141.744 713.586 141.48C714.002 141.208 714.466 141.072 714.978 141.072C715.338 141.072 715.674 141.144 715.986 141.288C716.298 141.424 716.57 141.624 716.802 141.888V138.336L717.678 138.156V147H716.802V146.22C716.578 146.5 716.306 146.716 715.986 146.868C715.666 147.012 715.314 147.084 714.93 147.084ZM715.146 146.316C715.49 146.316 715.806 146.248 716.094 146.112C716.382 145.976 716.618 145.784 716.802 145.536V142.632C716.61 142.384 716.366 142.192 716.07 142.056C715.782 141.912 715.474 141.84 715.146 141.84C714.754 141.84 714.402 141.936 714.09 142.128C713.786 142.32 713.542 142.584 713.358 142.92C713.182 143.256 713.094 143.64 713.094 144.072C713.094 144.496 713.182 144.88 713.358 145.224C713.542 145.56 713.786 145.828 714.09 146.028C714.402 146.22 714.754 146.316 715.146 146.316Z" fill="#151515"/>
<rect x="626" y="172" width="10" height="10" fill="#B1380B"/>
<path d="M647.3 181.132C646.196 181.132 645.244 180.752 644.444 179.992L644.984 179.404C645.352 179.748 645.716 180 646.076 180.16C646.444 180.312 646.856 180.388 647.312 180.388C647.72 180.388 648.08 180.304 648.392 180.136C648.704 179.968 648.944 179.732 649.112 179.428C649.288 179.124 649.376 178.776 649.376 178.384C649.376 177.824 649.184 177.372 648.8 177.028C648.424 176.684 647.928 176.512 647.312 176.512C646.992 176.512 646.68 176.552 646.376 176.632C646.072 176.704 645.756 176.824 645.428 176.992L644.828 176.8L645.02 172.6H649.796V173.356H645.764L645.632 176.26C645.952 176.1 646.26 175.988 646.556 175.924C646.852 175.852 647.164 175.816 647.492 175.816C648.044 175.816 648.524 175.924 648.932 176.14C649.348 176.348 649.668 176.644 649.892 177.028C650.124 177.404 650.24 177.844 650.24 178.348C650.24 178.9 650.116 179.384 649.868 179.8C649.62 180.216 649.276 180.544 648.836 180.784C648.396 181.016 647.884 181.132 647.3 181.132ZM655.289 181V175.864H653.981V175.144H655.289V173.92C655.289 173.344 655.441 172.9 655.745 172.588C656.049 172.276 656.481 172.12 657.041 172.12C657.201 172.12 657.345 172.128 657.473 172.144C657.609 172.16 657.729 172.188 657.833 172.228V173.02C657.705 172.98 657.589 172.952 657.485 172.936C657.381 172.92 657.261 172.912 657.125 172.912C656.789 172.912 656.545 172.996 656.393 173.164C656.241 173.324 656.165 173.58 656.165 173.932V175.144H657.833V175.864H656.165V181H655.289ZM660.622 181.108C660.206 181.108 659.838 181.032 659.518 180.88C659.198 180.728 658.946 180.52 658.762 180.256C658.586 179.984 658.498 179.672 658.498 179.32C658.498 178.968 658.59 178.664 658.774 178.408C658.958 178.144 659.214 177.94 659.542 177.796C659.87 177.652 660.254 177.58 660.694 177.58C661.03 177.58 661.346 177.616 661.642 177.688C661.946 177.76 662.226 177.876 662.482 178.036V177.232C662.482 176.752 662.354 176.392 662.098 176.152C661.842 175.904 661.466 175.78 660.97 175.78C660.698 175.78 660.418 175.82 660.13 175.9C659.85 175.98 659.538 176.108 659.194 176.284L658.87 175.612C659.654 175.236 660.39 175.048 661.078 175.048C661.806 175.048 662.366 175.228 662.758 175.588C663.15 175.94 663.346 176.448 663.346 177.112V181H662.482V180.316C662.226 180.58 661.942 180.78 661.63 180.916C661.318 181.044 660.982 181.108 660.622 181.108ZM659.338 179.296C659.338 179.64 659.47 179.916 659.734 180.124C660.006 180.332 660.362 180.436 660.802 180.436C661.13 180.436 661.43 180.38 661.702 180.268C661.982 180.156 662.242 179.988 662.482 179.764V178.636C662.234 178.492 661.978 178.388 661.714 178.324C661.45 178.252 661.154 178.216 660.826 178.216C660.378 178.216 660.018 178.316 659.746 178.516C659.474 178.708 659.338 178.968 659.338 179.296ZM665.115 181V175.144H665.991V181H665.115ZM665.559 173.692C665.383 173.692 665.231 173.632 665.103 173.512C664.983 173.384 664.923 173.236 664.923 173.068C664.923 172.9 664.983 172.756 665.103 172.636C665.231 172.508 665.383 172.444 665.559 172.444C665.735 172.444 665.883 172.508 666.003 172.636C666.131 172.756 666.195 172.9 666.195 173.068C666.195 173.236 666.131 173.384 666.003 173.512C665.883 173.632 665.735 173.692 665.559 173.692ZM667.787 181V172.336L668.663 172.156V181H667.787ZM673.099 181.12C672.555 181.12 672.063 180.988 671.623 180.724C671.183 180.452 670.835 180.088 670.579 179.632C670.323 179.168 670.195 178.648 670.195 178.072C670.195 177.496 670.315 176.98 670.555 176.524C670.803 176.068 671.135 175.708 671.551 175.444C671.967 175.18 672.431 175.048 672.943 175.048C673.463 175.048 673.923 175.18 674.323 175.444C674.731 175.7 675.051 176.052 675.283 176.5C675.523 176.94 675.643 177.44 675.643 178V178.264H671.047C671.079 178.664 671.187 179.024 671.371 179.344C671.563 179.656 671.811 179.904 672.115 180.088C672.427 180.264 672.767 180.352 673.135 180.352C673.439 180.352 673.731 180.3 674.011 180.196C674.299 180.084 674.543 179.936 674.743 179.752L675.295 180.34C674.959 180.604 674.611 180.8 674.251 180.928C673.891 181.056 673.507 181.12 673.099 181.12ZM671.071 177.64H674.779C674.739 177.288 674.631 176.976 674.455 176.704C674.287 176.424 674.071 176.204 673.807 176.044C673.551 175.884 673.263 175.804 672.943 175.804C672.623 175.804 672.331 175.884 672.067 176.044C671.803 176.196 671.583 176.412 671.407 176.692C671.239 176.964 671.127 177.28 671.071 177.64ZM679.574 181.084C679.07 181.084 678.614 180.952 678.206 180.688C677.798 180.416 677.474 180.056 677.234 179.608C676.994 179.152 676.874 178.644 676.874 178.084C676.874 177.516 676.994 177.008 677.234 176.56C677.482 176.104 677.814 175.744 678.23 175.48C678.646 175.208 679.11 175.072 679.622 175.072C679.982 175.072 680.318 175.144 680.63 175.288C680.942 175.424 681.214 175.624 681.446 175.888V172.336L682.322 172.156V181H681.446V180.22C681.222 180.5 680.95 180.716 680.63 180.868C680.31 181.012 679.958 181.084 679.574 181.084ZM679.79 180.316C680.134 180.316 680.45 180.248 680.738 180.112C681.026 179.976 681.262 179.784 681.446 179.536V176.632C681.254 176.384 681.01 176.192 680.714 176.056C680.426 175.912 680.118 175.84 679.79 175.84C679.398 175.84 679.046 175.936 678.734 176.128C678.43 176.32 678.186 176.584 678.002 176.92C677.826 177.256 677.738 177.64 677.738 178.072C677.738 178.496 677.826 178.88 678.002 179.224C678.186 179.56 678.43 179.828 678.734 180.028C679.046 180.22 679.398 180.316 679.79 180.316Z" fill="#151515"/>
</svg>
