<svg width="449" height="228" viewBox="0 0 449 228" fill="none" xmlns="http://www.w3.org/2000/svg">
<rect width="449" height="228" fill="white"/>
<path d="M44.368 43.132C43.656 43.132 43.032 42.98 42.496 42.676C41.968 42.372 41.56 41.94 41.272 41.38C40.984 40.82 40.84 40.16 40.84 39.4V34.6H42.28V39.4C42.28 39.896 42.364 40.324 42.532 40.684C42.708 41.044 42.952 41.328 43.264 41.536C43.576 41.736 43.944 41.836 44.368 41.836C44.792 41.836 45.16 41.736 45.472 41.536C45.792 41.328 46.036 41.044 46.204 40.684C46.372 40.324 46.456 39.896 46.456 39.4V34.6H47.896V39.4C47.896 40.16 47.752 40.82 47.464 41.38C47.184 41.94 46.78 42.372 46.252 42.676C45.724 42.98 45.096 43.132 44.368 43.132ZM51.6691 43.12C51.1571 43.12 50.6771 43.052 50.2291 42.916C49.7891 42.772 49.4091 42.568 49.0891 42.304L49.7251 41.404C50.1251 41.652 50.4691 41.828 50.7571 41.932C51.0531 42.036 51.3531 42.088 51.6571 42.088C52.0171 42.088 52.3091 42.012 52.5331 41.86C52.7571 41.708 52.8691 41.512 52.8691 41.272C52.8691 41.088 52.8011 40.944 52.6651 40.84C52.5371 40.728 52.3251 40.644 52.0291 40.588L50.9731 40.408C50.3891 40.296 49.9531 40.104 49.6651 39.832C49.3771 39.56 49.2331 39.2 49.2331 38.752C49.2331 38.376 49.3291 38.052 49.5211 37.78C49.7211 37.5 49.9931 37.284 50.3371 37.132C50.6891 36.972 51.0971 36.892 51.5611 36.892C51.9771 36.892 52.3811 36.952 52.7731 37.072C53.1651 37.192 53.5491 37.372 53.9251 37.612L53.2891 38.512C52.9851 38.312 52.6811 38.168 52.3771 38.08C52.0811 37.984 51.7811 37.936 51.4771 37.936C51.1651 37.936 50.9131 38 50.7211 38.128C50.5371 38.248 50.4451 38.416 50.4451 38.632C50.4451 38.824 50.5051 38.972 50.6251 39.076C50.7531 39.172 50.9731 39.244 51.2851 39.292L52.3531 39.496C52.9531 39.6 53.3971 39.792 53.6851 40.072C53.9811 40.344 54.1291 40.708 54.1291 41.164C54.1291 41.532 54.0211 41.864 53.8051 42.16C53.5891 42.456 53.2971 42.692 52.9291 42.868C52.5611 43.036 52.1411 43.12 51.6691 43.12ZM58.2258 43.12C57.6498 43.12 57.1298 42.984 56.6658 42.712C56.2018 42.432 55.8338 42.06 55.5618 41.596C55.2898 41.124 55.1538 40.592 55.1538 40C55.1538 39.408 55.2818 38.88 55.5378 38.416C55.7938 37.952 56.1418 37.584 56.5818 37.312C57.0298 37.032 57.5258 36.892 58.0698 36.892C58.6298 36.892 59.1218 37.028 59.5458 37.3C59.9778 37.572 60.3138 37.94 60.5538 38.404C60.8018 38.868 60.9258 39.4 60.9258 40V40.324H56.4858C56.5338 40.652 56.6378 40.944 56.7978 41.2C56.9658 41.448 57.1778 41.644 57.4338 41.788C57.6978 41.932 57.9818 42.004 58.2858 42.004C58.5658 42.004 58.8298 41.956 59.0778 41.86C59.3338 41.756 59.5458 41.616 59.7138 41.44L60.6018 42.244C60.2338 42.548 59.8578 42.772 59.4738 42.916C59.0978 43.052 58.6818 43.12 58.2258 43.12ZM56.4978 39.484H59.6418C59.5938 39.196 59.4938 38.94 59.3418 38.716C59.1978 38.492 59.0138 38.316 58.7898 38.188C58.5738 38.06 58.3338 37.996 58.0698 37.996C57.8058 37.996 57.5618 38.06 57.3378 38.188C57.1218 38.308 56.9418 38.48 56.7978 38.704C56.6538 38.928 56.5538 39.188 56.4978 39.484ZM62.3088 43V36.988H63.6648V38.284C63.8408 37.828 64.0688 37.48 64.3488 37.24C64.6288 37 64.9528 36.88 65.3208 36.88C65.4328 36.888 65.5328 36.9 65.6208 36.916C65.7088 36.924 65.8048 36.952 65.9088 37V38.188C65.8048 38.14 65.6848 38.104 65.5488 38.08C65.4208 38.056 65.2928 38.044 65.1648 38.044C64.8368 38.044 64.5408 38.132 64.2768 38.308C64.0208 38.484 63.8168 38.728 63.6648 39.04V43H62.3088ZM67.0197 43V36.988H68.3757V37.972C68.6077 37.612 68.8837 37.344 69.2037 37.168C69.5237 36.984 69.8797 36.892 70.2717 36.892C70.6877 36.892 71.0517 36.984 71.3637 37.168C71.6757 37.344 71.9197 37.592 72.0957 37.912C72.2797 38.232 72.3717 38.608 72.3717 39.04V43H71.0037V39.424C71.0037 38.984 70.8837 38.636 70.6437 38.38C70.4037 38.116 70.0837 37.984 69.6837 37.984C69.4117 37.984 69.1637 38.048 68.9397 38.176C68.7237 38.296 68.5357 38.476 68.3757 38.716V43H67.0197ZM75.8281 43.108C75.4121 43.108 75.0401 43.032 74.7121 42.88C74.3921 42.72 74.1401 42.504 73.9561 42.232C73.7801 41.952 73.6921 41.632 73.6921 41.272C73.6921 40.912 73.7841 40.6 73.9681 40.336C74.1601 40.072 74.4281 39.868 74.7721 39.724C75.1161 39.58 75.5241 39.508 75.9961 39.508C76.2761 39.508 76.5521 39.54 76.8241 39.604C77.0961 39.66 77.3601 39.756 77.6161 39.892V39.22C77.6161 38.82 77.5001 38.52 77.2681 38.32C77.0441 38.12 76.7001 38.02 76.2361 38.02C75.9881 38.02 75.7201 38.06 75.4321 38.14C75.1521 38.212 74.8361 38.328 74.4841 38.488L74.0041 37.504C74.8841 37.096 75.7161 36.892 76.5001 36.892C77.2841 36.892 77.8881 37.084 78.3121 37.468C78.7441 37.844 78.9601 38.38 78.9601 39.076V43H77.6161V42.376C77.3601 42.624 77.0841 42.808 76.7881 42.928C76.4921 43.048 76.1721 43.108 75.8281 43.108ZM74.9641 41.248C74.9641 41.528 75.0761 41.748 75.3001 41.908C75.5241 42.068 75.8241 42.148 76.2001 42.148C76.4721 42.148 76.7241 42.108 76.9561 42.028C77.1961 41.94 77.4161 41.812 77.6161 41.644V40.672C77.4081 40.576 77.1921 40.504 76.9681 40.456C76.7441 40.408 76.5001 40.384 76.2361 40.384C75.8441 40.384 75.5321 40.46 75.3001 40.612C75.0761 40.764 74.9641 40.976 74.9641 41.248ZM80.6017 43V36.988H81.9577V37.936C82.1817 37.592 82.4417 37.332 82.7377 37.156C83.0417 36.98 83.3737 36.892 83.7337 36.892C84.1497 36.892 84.5097 36.996 84.8137 37.204C85.1257 37.412 85.3577 37.692 85.5097 38.044C85.7497 37.668 86.0337 37.384 86.3617 37.192C86.6977 36.992 87.0777 36.892 87.5017 36.892C87.8857 36.892 88.2257 36.984 88.5217 37.168C88.8257 37.352 89.0577 37.608 89.2177 37.936C89.3857 38.264 89.4697 38.64 89.4697 39.064V43H88.1137V39.364C88.1137 38.94 88.0057 38.604 87.7897 38.356C87.5737 38.108 87.2777 37.984 86.9017 37.984C86.6617 37.984 86.4377 38.044 86.2297 38.164C86.0297 38.284 85.8537 38.464 85.7017 38.704C85.7097 38.76 85.7137 38.82 85.7137 38.884C85.7217 38.94 85.7257 39 85.7257 39.064V43H84.3577V39.364C84.3577 38.94 84.2497 38.604 84.0337 38.356C83.8177 38.108 83.5217 37.984 83.1457 37.984C82.6577 37.984 82.2617 38.216 81.9577 38.68V43H80.6017ZM93.9094 43.12C93.3334 43.12 92.8134 42.984 92.3494 42.712C91.8854 42.432 91.5174 42.06 91.2454 41.596C90.9734 41.124 90.8374 40.592 90.8374 40C90.8374 39.408 90.9654 38.88 91.2214 38.416C91.4774 37.952 91.8254 37.584 92.2654 37.312C92.7134 37.032 93.2094 36.892 93.7534 36.892C94.3134 36.892 94.8054 37.028 95.2294 37.3C95.6614 37.572 95.9974 37.94 96.2374 38.404C96.4854 38.868 96.6094 39.4 96.6094 40V40.324H92.1694C92.2174 40.652 92.3214 40.944 92.4814 41.2C92.6494 41.448 92.8614 41.644 93.1174 41.788C93.3814 41.932 93.6654 42.004 93.9694 42.004C94.2494 42.004 94.5134 41.956 94.7614 41.86C95.0174 41.756 95.2294 41.616 95.3974 41.44L96.2854 42.244C95.9174 42.548 95.5414 42.772 95.1574 42.916C94.7814 43.052 94.3654 43.12 93.9094 43.12ZM92.1814 39.484H95.3254C95.2774 39.196 95.1774 38.94 95.0254 38.716C94.8814 38.492 94.6974 38.316 94.4734 38.188C94.2574 38.06 94.0174 37.996 93.7534 37.996C93.4894 37.996 93.2454 38.06 93.0214 38.188C92.8054 38.308 92.6254 38.48 92.4814 38.704C92.3374 38.928 92.2374 39.188 92.1814 39.484Z" fill="#151515"/>
<path d="M104.412 38.908L104.436 37.252L103.092 38.128L102.744 37.588L104.16 36.712L102.792 35.848L103.128 35.32L104.424 36.172L104.412 34.6H105.036L105.024 36.16L106.308 35.32L106.668 35.848L105.288 36.712L106.716 37.588L106.356 38.128L105.012 37.252L105.036 38.908H104.412Z" fill="#F4784A"/>
<mask id="path-3-inside-1_1247_21353" fill="white">
<path d="M40 62C40 58.6863 42.6863 56 46 56H403C406.314 56 409 58.6863 409 62V87C409 90.3137 406.314 93 403 93H46C42.6863 93 40 90.3137 40 87V62Z"/>
</mask>
<path d="M40 62C40 58.6863 42.6863 56 46 56H403C406.314 56 409 58.6863 409 62V87C409 90.3137 406.314 93 403 93H46C42.6863 93 40 90.3137 40 87V62Z" fill="white"/>
<path d="M46 56V57H403V56V55H46V56ZM409 62H408V87H409H410V62H409ZM403 93V92H46V93V94H403V93ZM40 87H41V62H40H39V87H40ZM46 93V92C43.2386 92 41 89.7614 41 87H40H39C39 90.866 42.134 94 46 94V93ZM409 87H408C408 89.7614 405.761 92 403 92V93V94C406.866 94 410 90.866 410 87H409ZM403 56V57C405.761 57 408 59.2386 408 62H409H410C410 58.134 406.866 55 403 55V56ZM46 56V55C42.134 55 39 58.134 39 62H40H41C41 59.2386 43.2386 57 46 57V56Z" fill="#B1380B" mask="url(#path-3-inside-1_1247_21353)"/>
<path d="M60.3036 79V72.168H61.3256V79H60.3036ZM60.8216 70.474C60.6162 70.474 60.4389 70.404 60.2896 70.264C60.1496 70.1147 60.0796 69.942 60.0796 69.746C60.0796 69.55 60.1496 69.382 60.2896 69.242C60.4389 69.0927 60.6162 69.018 60.8216 69.018C61.0269 69.018 61.1996 69.0927 61.3396 69.242C61.4889 69.382 61.5636 69.55 61.5636 69.746C61.5636 69.942 61.4889 70.1147 61.3396 70.264C61.1996 70.404 61.0269 70.474 60.8216 70.474ZM63.4211 79V72.168H64.4431V73.274C64.7044 72.8633 65.0171 72.56 65.3811 72.364C65.7451 72.1587 66.1558 72.056 66.6131 72.056C67.1078 72.056 67.5371 72.1633 67.9011 72.378C68.2744 72.5833 68.5638 72.8773 68.7691 73.26C68.9838 73.6333 69.0911 74.072 69.0911 74.576V79H68.0691V74.87C68.0691 74.2633 67.9011 73.7873 67.5651 73.442C67.2384 73.0873 66.7951 72.91 66.2351 72.91C65.8618 72.91 65.5211 72.9987 65.2131 73.176C64.9051 73.3533 64.6484 73.6147 64.4431 73.96V79H63.4211ZM72.8323 79L70.0323 72.168H71.1383L73.3503 77.726L75.5343 72.168H76.6263L73.8123 79H72.8323ZM79.7265 79.126C79.2412 79.126 78.8118 79.0373 78.4385 78.86C78.0652 78.6827 77.7712 78.44 77.5565 78.132C77.3512 77.8147 77.2485 77.4507 77.2485 77.04C77.2485 76.6293 77.3558 76.2747 77.5705 75.976C77.7852 75.668 78.0838 75.43 78.4665 75.262C78.8492 75.094 79.2972 75.01 79.8105 75.01C80.2025 75.01 80.5712 75.052 80.9165 75.136C81.2712 75.22 81.5978 75.3553 81.8965 75.542V74.604C81.8965 74.044 81.7472 73.624 81.4485 73.344C81.1498 73.0547 80.7112 72.91 80.1325 72.91C79.8152 72.91 79.4885 72.9567 79.1525 73.05C78.8258 73.1433 78.4618 73.2927 78.0605 73.498L77.6825 72.714C78.5972 72.2753 79.4558 72.056 80.2585 72.056C81.1078 72.056 81.7612 72.266 82.2185 72.686C82.6758 73.0967 82.9045 73.6893 82.9045 74.464V79H81.8965V78.202C81.5978 78.51 81.2665 78.7433 80.9025 78.902C80.5385 79.0513 80.1465 79.126 79.7265 79.126ZM78.2285 77.012C78.2285 77.4133 78.3825 77.7353 78.6905 77.978C79.0078 78.2207 79.4232 78.342 79.9365 78.342C80.3192 78.342 80.6692 78.2767 80.9865 78.146C81.3132 78.0153 81.6165 77.8193 81.8965 77.558V76.242C81.6072 76.074 81.3085 75.9527 81.0005 75.878C80.6925 75.794 80.3472 75.752 79.9645 75.752C79.4418 75.752 79.0218 75.8687 78.7045 76.102C78.3872 76.326 78.2285 76.6293 78.2285 77.012ZM84.9816 79V68.892L86.0036 68.682V79H84.9816ZM88.0848 79V72.168H89.1068V79H88.0848ZM88.6028 70.474C88.3975 70.474 88.2202 70.404 88.0708 70.264C87.9308 70.1147 87.8608 69.942 87.8608 69.746C87.8608 69.55 87.9308 69.382 88.0708 69.242C88.2202 69.0927 88.3975 69.018 88.6028 69.018C88.8082 69.018 88.9808 69.0927 89.1208 69.242C89.2702 69.382 89.3448 69.55 89.3448 69.746C89.3448 69.942 89.2702 70.1147 89.1208 70.264C88.9808 70.404 88.8082 70.474 88.6028 70.474ZM94.0443 79.098C93.4563 79.098 92.9243 78.944 92.4483 78.636C91.9723 78.3187 91.5943 77.8987 91.3143 77.376C91.0343 76.844 90.8943 76.2513 90.8943 75.598C90.8943 74.9353 91.0343 74.3427 91.3143 73.82C91.6037 73.288 91.991 72.868 92.4763 72.56C92.9617 72.2427 93.503 72.084 94.1003 72.084C94.5203 72.084 94.9123 72.168 95.2763 72.336C95.6403 72.4947 95.9577 72.728 96.2283 73.036V68.892L97.2503 68.682V79H96.2283V78.09C95.967 78.4167 95.6497 78.6687 95.2763 78.846C94.903 79.014 94.4923 79.098 94.0443 79.098ZM94.2963 78.202C94.6977 78.202 95.0663 78.1227 95.4023 77.964C95.7383 77.8053 96.0137 77.5813 96.2283 77.292V73.904C96.0043 73.6147 95.7197 73.3907 95.3743 73.232C95.0383 73.064 94.679 72.98 94.2963 72.98C93.839 72.98 93.4283 73.092 93.0643 73.316C92.7097 73.54 92.425 73.848 92.2103 74.24C92.005 74.632 91.9023 75.08 91.9023 75.584C91.9023 76.0787 92.005 76.5267 92.2103 76.928C92.425 77.32 92.7097 77.6327 93.0643 77.866C93.4283 78.09 93.839 78.202 94.2963 78.202ZM102.431 79.14C101.796 79.14 101.222 78.986 100.709 78.678C100.195 78.3607 99.7894 77.936 99.4908 77.404C99.1921 76.8627 99.0428 76.256 99.0428 75.584C99.0428 74.912 99.1828 74.31 99.4628 73.778C99.7521 73.246 100.139 72.826 100.625 72.518C101.11 72.21 101.651 72.056 102.249 72.056C102.855 72.056 103.392 72.21 103.859 72.518C104.335 72.8167 104.708 73.2273 104.979 73.75C105.259 74.2633 105.399 74.8467 105.399 75.5V75.808H100.037C100.074 76.2747 100.2 76.6947 100.415 77.068C100.639 77.432 100.928 77.7213 101.283 77.936C101.647 78.1413 102.043 78.244 102.473 78.244C102.827 78.244 103.168 78.1833 103.495 78.062C103.831 77.9313 104.115 77.7587 104.349 77.544L104.993 78.23C104.601 78.538 104.195 78.7667 103.775 78.916C103.355 79.0653 102.907 79.14 102.431 79.14ZM100.065 75.08H104.391C104.344 74.6693 104.218 74.3053 104.013 73.988C103.817 73.6613 103.565 73.4047 103.257 73.218C102.958 73.0313 102.622 72.938 102.249 72.938C101.875 72.938 101.535 73.0313 101.227 73.218C100.919 73.3953 100.662 73.6473 100.457 73.974C100.261 74.2913 100.13 74.66 100.065 75.08ZM110.224 79.14C109.589 79.14 109.015 78.986 108.502 78.678C107.988 78.3607 107.582 77.936 107.284 77.404C106.985 76.8627 106.836 76.256 106.836 75.584C106.836 74.912 106.976 74.31 107.256 73.778C107.545 73.246 107.932 72.826 108.418 72.518C108.903 72.21 109.444 72.056 110.042 72.056C110.648 72.056 111.185 72.21 111.652 72.518C112.128 72.8167 112.501 73.2273 112.772 73.75C113.052 74.2633 113.192 74.8467 113.192 75.5V75.808H107.83C107.867 76.2747 107.993 76.6947 108.208 77.068C108.432 77.432 108.721 77.7213 109.076 77.936C109.44 78.1413 109.836 78.244 110.266 78.244C110.62 78.244 110.961 78.1833 111.288 78.062C111.624 77.9313 111.908 77.7587 112.142 77.544L112.786 78.23C112.394 78.538 111.988 78.7667 111.568 78.916C111.148 79.0653 110.7 79.14 110.224 79.14ZM107.858 75.08H112.184C112.137 74.6693 112.011 74.3053 111.806 73.988C111.61 73.6613 111.358 73.4047 111.05 73.218C110.751 73.0313 110.415 72.938 110.042 72.938C109.668 72.938 109.328 73.0313 109.02 73.218C108.712 73.3953 108.455 73.6473 108.25 73.974C108.054 74.2913 107.923 74.66 107.858 75.08ZM114.937 79V72.168H115.959V73.232C116.22 72.84 116.519 72.546 116.855 72.35C117.191 72.154 117.569 72.056 117.989 72.056C118.474 72.056 118.899 72.1773 119.263 72.42C119.627 72.6533 119.902 72.9753 120.089 73.386C120.359 72.9473 120.681 72.616 121.055 72.392C121.437 72.168 121.876 72.056 122.371 72.056C122.828 72.056 123.229 72.1633 123.575 72.378C123.929 72.5927 124.205 72.8913 124.401 73.274C124.597 73.6473 124.695 74.086 124.695 74.59V79H123.673V74.842C123.673 74.2447 123.523 73.7733 123.225 73.428C122.926 73.0827 122.515 72.91 121.993 72.91C121.638 72.91 121.316 72.9987 121.027 73.176C120.747 73.3533 120.499 73.624 120.285 73.988C120.303 74.0813 120.317 74.1793 120.327 74.282C120.336 74.3847 120.341 74.4873 120.341 74.59V79H119.319V74.842C119.319 74.2447 119.165 73.7733 118.857 73.428C118.558 73.0827 118.147 72.91 117.625 72.91C116.925 72.91 116.369 73.246 115.959 73.918V79H114.937ZM128.877 79.126C128.392 79.126 127.962 79.0373 127.589 78.86C127.216 78.6827 126.922 78.44 126.707 78.132C126.502 77.8147 126.399 77.4507 126.399 77.04C126.399 76.6293 126.506 76.2747 126.721 75.976C126.936 75.668 127.234 75.43 127.617 75.262C128 75.094 128.448 75.01 128.961 75.01C129.353 75.01 129.722 75.052 130.067 75.136C130.422 75.22 130.748 75.3553 131.047 75.542V74.604C131.047 74.044 130.898 73.624 130.599 73.344C130.3 73.0547 129.862 72.91 129.283 72.91C128.966 72.91 128.639 72.9567 128.303 73.05C127.976 73.1433 127.612 73.2927 127.211 73.498L126.833 72.714C127.748 72.2753 128.606 72.056 129.409 72.056C130.258 72.056 130.912 72.266 131.369 72.686C131.826 73.0967 132.055 73.6893 132.055 74.464V79H131.047V78.202C130.748 78.51 130.417 78.7433 130.053 78.902C129.689 79.0513 129.297 79.126 128.877 79.126ZM127.379 77.012C127.379 77.4133 127.533 77.7353 127.841 77.978C128.158 78.2207 128.574 78.342 129.087 78.342C129.47 78.342 129.82 78.2767 130.137 78.146C130.464 78.0153 130.767 77.8193 131.047 77.558V76.242C130.758 76.074 130.459 75.9527 130.151 75.878C129.843 75.794 129.498 75.752 129.115 75.752C128.592 75.752 128.172 75.8687 127.855 76.102C127.538 76.326 127.379 76.6293 127.379 77.012ZM134.118 79V72.168H135.14V79H134.118ZM134.636 70.474C134.431 70.474 134.253 70.404 134.104 70.264C133.964 70.1147 133.894 69.942 133.894 69.746C133.894 69.55 133.964 69.382 134.104 69.242C134.253 69.0927 134.431 69.018 134.636 69.018C134.841 69.018 135.014 69.0927 135.154 69.242C135.303 69.382 135.378 69.55 135.378 69.746C135.378 69.942 135.303 70.1147 135.154 70.264C135.014 70.404 134.841 70.474 134.636 70.474ZM137.236 79V68.892L138.258 68.682V79H137.236ZM144.875 81.016C144.193 81.016 143.559 80.89 142.971 80.638C142.392 80.3953 141.883 80.05 141.445 79.602C141.015 79.1633 140.679 78.6453 140.437 78.048C140.203 77.4507 140.087 76.802 140.087 76.102C140.087 75.3647 140.203 74.6833 140.437 74.058C140.679 73.4233 141.011 72.8727 141.431 72.406C141.86 71.9393 142.364 71.58 142.943 71.328C143.521 71.0667 144.147 70.936 144.819 70.936C145.453 70.936 146.037 71.0433 146.569 71.258C147.11 71.4727 147.581 71.776 147.983 72.168C148.384 72.5507 148.697 73.0033 148.921 73.526C149.145 74.0487 149.257 74.618 149.257 75.234C149.257 75.8033 149.154 76.3167 148.949 76.774C148.743 77.222 148.463 77.5767 148.109 77.838C147.754 78.0993 147.353 78.23 146.905 78.23C146.307 78.23 145.892 78.0387 145.659 77.656C145.211 78.076 144.739 78.286 144.245 78.286C143.881 78.286 143.554 78.1927 143.265 78.006C142.975 77.8193 142.747 77.5673 142.579 77.25C142.411 76.9327 142.327 76.5733 142.327 76.172C142.327 75.7147 142.429 75.2993 142.635 74.926C142.84 74.5527 143.115 74.254 143.461 74.03C143.806 73.806 144.184 73.694 144.595 73.694C144.856 73.694 145.099 73.7407 145.323 73.834C145.556 73.9273 145.757 74.058 145.925 74.226L145.995 73.876H146.765L146.247 76.564C146.181 76.9 146.214 77.1613 146.345 77.348C146.475 77.5253 146.69 77.614 146.989 77.614C147.297 77.614 147.572 77.5113 147.815 77.306C148.067 77.1007 148.263 76.8207 148.403 76.466C148.543 76.102 148.613 75.7007 148.613 75.262C148.613 74.5527 148.445 73.918 148.109 73.358C147.782 72.798 147.329 72.3593 146.751 72.042C146.172 71.7153 145.519 71.552 144.791 71.552C144.221 71.552 143.689 71.6687 143.195 71.902C142.709 72.126 142.28 72.448 141.907 72.868C141.543 73.2787 141.258 73.7593 141.053 74.31C140.847 74.8513 140.745 75.4393 140.745 76.074C140.745 76.9047 140.922 77.6467 141.277 78.3C141.641 78.944 142.135 79.4527 142.761 79.826C143.395 80.1993 144.114 80.386 144.917 80.386C145.327 80.386 145.719 80.3347 146.093 80.232C146.475 80.1387 146.835 79.9987 147.171 79.812L147.409 80.386C147.035 80.5913 146.634 80.7453 146.205 80.848C145.775 80.96 145.332 81.016 144.875 81.016ZM144.413 77.628C144.814 77.628 145.169 77.4647 145.477 77.138C145.467 77.0353 145.463 76.9327 145.463 76.83C145.472 76.7273 145.486 76.6153 145.505 76.494L145.785 75.01C145.663 74.8047 145.495 74.646 145.281 74.534C145.066 74.422 144.833 74.366 144.581 74.366C144.31 74.366 144.058 74.4453 143.825 74.604C143.601 74.7627 143.419 74.9773 143.279 75.248C143.148 75.5093 143.083 75.7987 143.083 76.116C143.083 76.564 143.204 76.928 143.447 77.208C143.699 77.488 144.021 77.628 144.413 77.628ZM154.151 79.112C153.516 79.112 152.942 78.958 152.429 78.65C151.925 78.3327 151.524 77.908 151.225 77.376C150.926 76.8347 150.777 76.2373 150.777 75.584C150.777 74.9213 150.926 74.324 151.225 73.792C151.524 73.26 151.925 72.84 152.429 72.532C152.942 72.2147 153.516 72.056 154.151 72.056C154.655 72.056 155.136 72.1493 155.593 72.336C156.05 72.5227 156.447 72.784 156.783 73.12L156.125 73.834C155.882 73.5633 155.588 73.3533 155.243 73.204C154.898 73.0547 154.548 72.98 154.193 72.98C153.745 72.98 153.339 73.0967 152.975 73.33C152.62 73.5633 152.336 73.876 152.121 74.268C151.906 74.66 151.799 75.0987 151.799 75.584C151.799 76.0693 151.906 76.508 152.121 76.9C152.336 77.292 152.62 77.6047 152.975 77.838C153.339 78.0713 153.745 78.188 154.193 78.188C154.548 78.188 154.898 78.1133 155.243 77.964C155.588 77.8053 155.882 77.5953 156.125 77.334L156.783 78.048C156.447 78.384 156.05 78.6453 155.593 78.832C155.136 79.0187 154.655 79.112 154.151 79.112ZM161.027 79.112C160.392 79.112 159.823 78.958 159.319 78.65C158.815 78.342 158.418 77.922 158.129 77.39C157.84 76.858 157.695 76.256 157.695 75.584C157.695 74.912 157.84 74.31 158.129 73.778C158.418 73.246 158.815 72.826 159.319 72.518C159.823 72.21 160.392 72.056 161.027 72.056C161.652 72.056 162.212 72.21 162.707 72.518C163.211 72.826 163.608 73.246 163.897 73.778C164.186 74.31 164.331 74.912 164.331 75.584C164.331 76.256 164.186 76.858 163.897 77.39C163.608 77.922 163.211 78.342 162.707 78.65C162.212 78.958 161.652 79.112 161.027 79.112ZM161.013 78.216C161.461 78.216 161.858 78.104 162.203 77.88C162.548 77.6467 162.819 77.3293 163.015 76.928C163.22 76.5267 163.323 76.0787 163.323 75.584C163.323 75.08 163.22 74.632 163.015 74.24C162.819 73.8387 162.548 73.526 162.203 73.302C161.858 73.0687 161.461 72.952 161.013 72.952C160.565 72.952 160.168 73.0687 159.823 73.302C159.478 73.526 159.202 73.8387 158.997 74.24C158.801 74.632 158.703 75.08 158.703 75.584C158.703 76.0787 158.801 76.5267 158.997 76.928C159.202 77.3293 159.478 77.6467 159.823 77.88C160.168 78.104 160.565 78.216 161.013 78.216ZM166.124 79V72.168H167.146V73.232C167.408 72.84 167.706 72.546 168.042 72.35C168.378 72.154 168.756 72.056 169.176 72.056C169.662 72.056 170.086 72.1773 170.45 72.42C170.814 72.6533 171.09 72.9753 171.276 73.386C171.547 72.9473 171.869 72.616 172.242 72.392C172.625 72.168 173.064 72.056 173.558 72.056C174.016 72.056 174.417 72.1633 174.762 72.378C175.117 72.5927 175.392 72.8913 175.588 73.274C175.784 73.6473 175.882 74.086 175.882 74.59V79H174.86V74.842C174.86 74.2447 174.711 73.7733 174.412 73.428C174.114 73.0827 173.703 72.91 173.18 72.91C172.826 72.91 172.504 72.9987 172.214 73.176C171.934 73.3533 171.687 73.624 171.472 73.988C171.491 74.0813 171.505 74.1793 171.514 74.282C171.524 74.3847 171.528 74.4873 171.528 74.59V79H170.506V74.842C170.506 74.2447 170.352 73.7733 170.044 73.428C169.746 73.0827 169.335 72.91 168.812 72.91C168.112 72.91 167.557 73.246 167.146 73.918V79H166.124Z" fill="#151515"/>
<path d="M383 68C386.866 68 390 71.1354 390 75C390 78.8669 386.866 82 383 82C379.134 82 376 78.8669 376 75C376 71.1354 379.134 68 383 68ZM383 76.4111C382.283 76.4111 381.701 76.9929 381.701 77.71C381.701 78.4269 382.283 79.0078 383 79.0078C383.717 79.0078 384.299 78.4269 384.299 77.71C384.299 76.9929 383.717 76.4111 383 76.4111ZM382.105 71.3867C381.911 71.3867 381.757 71.5502 381.768 71.7441L381.977 75.583C381.986 75.7625 382.135 75.9031 382.314 75.9033H383.686C383.865 75.9031 384.014 75.7625 384.023 75.583L384.232 71.7441C384.243 71.5502 384.089 71.3867 383.895 71.3867H382.105Z" fill="#B1380B"/>
<path d="M49 104C52.3135 104 55 106.687 55 110C55 113.314 52.3135 116 49 116C45.6865 116 43 113.314 43 110C43 106.687 45.6865 104 49 104ZM49 111.21C48.3855 111.21 47.8869 111.708 47.8867 112.322C47.8867 112.937 48.3854 113.436 49 113.436C49.6146 113.436 50.1133 112.937 50.1133 112.322C50.1131 111.708 49.6145 111.21 49 111.21ZM48.2334 106.903C48.067 106.903 47.9345 107.043 47.9434 107.209L48.123 110.5C48.1316 110.654 48.259 110.774 48.4131 110.774H49.5869C49.741 110.774 49.8684 110.654 49.877 110.5L50.0566 107.209C50.0655 107.043 49.933 106.903 49.7666 106.903H48.2334Z" fill="#B1380B"/>
<path d="M63.008 114V105.6H69.02V106.824H64.448V109.164H67.64V110.364H64.448V112.776H69.068V114H63.008ZM70.5275 114V107.988H71.8835V108.972C72.1155 108.612 72.3915 108.344 72.7115 108.168C73.0315 107.984 73.3875 107.892 73.7795 107.892C74.1955 107.892 74.5595 107.984 74.8715 108.168C75.1835 108.344 75.4275 108.592 75.6035 108.912C75.7875 109.232 75.8795 109.608 75.8795 110.04V114H74.5115V110.424C74.5115 109.984 74.3915 109.636 74.1515 109.38C73.9115 109.116 73.5915 108.984 73.1915 108.984C72.9195 108.984 72.6715 109.048 72.4475 109.176C72.2315 109.296 72.0435 109.476 71.8835 109.716V114H70.5275ZM79.9281 114.12C79.3201 114.12 78.8601 113.98 78.5481 113.7C78.2361 113.412 78.0801 112.992 78.0801 112.44V109.068H76.8801V107.988H78.0801V106.332L79.4361 106.044V107.988H81.1041V109.068H79.4361V112.14C79.4361 112.436 79.5001 112.648 79.6281 112.776C79.7561 112.896 79.9721 112.956 80.2761 112.956C80.4121 112.956 80.5361 112.948 80.6481 112.932C80.7681 112.908 80.9161 112.868 81.0921 112.812V113.952C80.9241 114.008 80.7321 114.048 80.5161 114.072C80.3081 114.104 80.1121 114.12 79.9281 114.12ZM85.0071 114.12C84.4311 114.12 83.9111 113.984 83.4471 113.712C82.9831 113.432 82.6151 113.06 82.3431 112.596C82.0711 112.124 81.9351 111.592 81.9351 111C81.9351 110.408 82.0631 109.88 82.3191 109.416C82.5751 108.952 82.9231 108.584 83.3631 108.312C83.8111 108.032 84.3071 107.892 84.8511 107.892C85.4111 107.892 85.9031 108.028 86.3271 108.3C86.7591 108.572 87.0951 108.94 87.3351 109.404C87.5831 109.868 87.7071 110.4 87.7071 111V111.324H83.2671C83.3151 111.652 83.4191 111.944 83.5791 112.2C83.7471 112.448 83.9591 112.644 84.2151 112.788C84.4791 112.932 84.7631 113.004 85.0671 113.004C85.3471 113.004 85.6111 112.956 85.8591 112.86C86.1151 112.756 86.3271 112.616 86.4951 112.44L87.3831 113.244C87.0151 113.548 86.6391 113.772 86.2551 113.916C85.8791 114.052 85.4631 114.12 85.0071 114.12ZM83.2791 110.484H86.4231C86.3751 110.196 86.2751 109.94 86.1231 109.716C85.9791 109.492 85.7951 109.316 85.5711 109.188C85.3551 109.06 85.1151 108.996 84.8511 108.996C84.5871 108.996 84.3431 109.06 84.1191 109.188C83.9031 109.308 83.7231 109.48 83.5791 109.704C83.4351 109.928 83.3351 110.188 83.2791 110.484ZM89.09 114V107.988H90.446V109.284C90.622 108.828 90.85 108.48 91.13 108.24C91.41 108 91.734 107.88 92.102 107.88C92.214 107.888 92.314 107.9 92.402 107.916C92.49 107.924 92.586 107.952 92.69 108V109.188C92.586 109.14 92.466 109.104 92.33 109.08C92.202 109.056 92.074 109.044 91.946 109.044C91.618 109.044 91.322 109.132 91.058 109.308C90.802 109.484 90.598 109.728 90.446 110.04V114H89.09ZM98.3203 114.108C97.9043 114.108 97.5323 114.032 97.2043 113.88C96.8843 113.72 96.6323 113.504 96.4482 113.232C96.2723 112.952 96.1843 112.632 96.1843 112.272C96.1843 111.912 96.2763 111.6 96.4603 111.336C96.6523 111.072 96.9203 110.868 97.2643 110.724C97.6083 110.58 98.0163 110.508 98.4883 110.508C98.7683 110.508 99.0443 110.54 99.3163 110.604C99.5883 110.66 99.8523 110.756 100.108 110.892V110.22C100.108 109.82 99.9923 109.52 99.7603 109.32C99.5363 109.12 99.1923 109.02 98.7283 109.02C98.4803 109.02 98.2123 109.06 97.9243 109.14C97.6443 109.212 97.3283 109.328 96.9763 109.488L96.4963 108.504C97.3763 108.096 98.2083 107.892 98.9923 107.892C99.7763 107.892 100.38 108.084 100.804 108.468C101.236 108.844 101.452 109.38 101.452 110.076V114H100.108V113.376C99.8523 113.624 99.5763 113.808 99.2803 113.928C98.9843 114.048 98.6643 114.108 98.3203 114.108ZM97.4563 112.248C97.4563 112.528 97.5683 112.748 97.7923 112.908C98.0163 113.068 98.3163 113.148 98.6923 113.148C98.9643 113.148 99.2163 113.108 99.4483 113.028C99.6883 112.94 99.9083 112.812 100.108 112.644V111.672C99.9003 111.576 99.6843 111.504 99.4603 111.456C99.2363 111.408 98.9923 111.384 98.7283 111.384C98.3363 111.384 98.0243 111.46 97.7923 111.612C97.5683 111.764 97.4563 111.976 97.4563 112.248ZM107.529 114L105.081 107.988H106.557L108.237 112.356L109.905 107.988H111.321L108.849 114H107.529ZM113.941 114.108C113.525 114.108 113.153 114.032 112.825 113.88C112.505 113.72 112.253 113.504 112.069 113.232C111.893 112.952 111.805 112.632 111.805 112.272C111.805 111.912 111.897 111.6 112.081 111.336C112.273 111.072 112.541 110.868 112.885 110.724C113.229 110.58 113.637 110.508 114.109 110.508C114.389 110.508 114.665 110.54 114.937 110.604C115.209 110.66 115.473 110.756 115.729 110.892V110.22C115.729 109.82 115.613 109.52 115.381 109.32C115.157 109.12 114.813 109.02 114.349 109.02C114.101 109.02 113.833 109.06 113.545 109.14C113.265 109.212 112.949 109.328 112.597 109.488L112.117 108.504C112.997 108.096 113.829 107.892 114.613 107.892C115.397 107.892 116.001 108.084 116.425 108.468C116.857 108.844 117.073 109.38 117.073 110.076V114H115.729V113.376C115.473 113.624 115.197 113.808 114.901 113.928C114.605 114.048 114.285 114.108 113.941 114.108ZM113.077 112.248C113.077 112.528 113.189 112.748 113.413 112.908C113.637 113.068 113.937 113.148 114.313 113.148C114.585 113.148 114.837 113.108 115.069 113.028C115.309 112.94 115.529 112.812 115.729 112.644V111.672C115.521 111.576 115.305 111.504 115.081 111.456C114.857 111.408 114.613 111.384 114.349 111.384C113.957 111.384 113.645 111.46 113.413 111.612C113.189 111.764 113.077 111.976 113.077 112.248ZM118.715 114V105.396L120.071 105.156V114H118.715ZM121.726 114V107.988H123.082V114H121.726ZM122.41 106.764C122.178 106.764 121.978 106.684 121.81 106.524C121.65 106.356 121.57 106.16 121.57 105.936C121.57 105.704 121.65 105.508 121.81 105.348C121.978 105.18 122.178 105.096 122.41 105.096C122.642 105.096 122.838 105.18 122.998 105.348C123.166 105.508 123.25 105.7 123.25 105.924C123.25 106.156 123.166 106.356 122.998 106.524C122.838 106.684 122.642 106.764 122.41 106.764ZM127.198 114.06C126.694 114.06 126.238 113.924 125.83 113.652C125.422 113.372 125.094 113.004 124.846 112.548C124.606 112.084 124.486 111.568 124.486 111C124.486 110.424 124.61 109.908 124.858 109.452C125.106 108.988 125.442 108.62 125.866 108.348C126.298 108.076 126.774 107.94 127.294 107.94C127.638 107.94 127.958 108.008 128.254 108.144C128.558 108.272 128.822 108.464 129.046 108.72V105.396L130.402 105.156V114H129.058V113.208C128.842 113.48 128.574 113.692 128.254 113.844C127.934 113.988 127.582 114.06 127.198 114.06ZM127.618 112.92C127.906 112.92 128.174 112.864 128.422 112.752C128.67 112.632 128.878 112.468 129.046 112.26V109.728C128.87 109.52 128.658 109.36 128.41 109.248C128.162 109.136 127.898 109.08 127.618 109.08C127.274 109.08 126.966 109.164 126.694 109.332C126.43 109.492 126.218 109.716 126.058 110.004C125.898 110.292 125.818 110.624 125.818 111C125.818 111.36 125.898 111.688 126.058 111.984C126.218 112.272 126.43 112.5 126.694 112.668C126.966 112.836 127.274 112.92 127.618 112.92ZM137.577 114.12C137.001 114.12 136.481 113.984 136.017 113.712C135.553 113.432 135.185 113.06 134.913 112.596C134.641 112.124 134.505 111.592 134.505 111C134.505 110.408 134.633 109.88 134.889 109.416C135.145 108.952 135.493 108.584 135.933 108.312C136.381 108.032 136.877 107.892 137.421 107.892C137.981 107.892 138.473 108.028 138.897 108.3C139.329 108.572 139.665 108.94 139.905 109.404C140.153 109.868 140.277 110.4 140.277 111V111.324H135.837C135.885 111.652 135.989 111.944 136.149 112.2C136.317 112.448 136.529 112.644 136.785 112.788C137.049 112.932 137.333 113.004 137.637 113.004C137.917 113.004 138.181 112.956 138.429 112.86C138.685 112.756 138.897 112.616 139.065 112.44L139.953 113.244C139.585 113.548 139.209 113.772 138.825 113.916C138.449 114.052 138.033 114.12 137.577 114.12ZM135.849 110.484H138.993C138.945 110.196 138.845 109.94 138.693 109.716C138.549 109.492 138.365 109.316 138.141 109.188C137.925 109.06 137.685 108.996 137.421 108.996C137.157 108.996 136.913 109.06 136.689 109.188C136.473 109.308 136.293 109.48 136.149 109.704C136.005 109.928 135.905 110.188 135.849 110.484ZM141.66 114V107.988H143.016V108.936C143.24 108.592 143.5 108.332 143.796 108.156C144.1 107.98 144.432 107.892 144.792 107.892C145.208 107.892 145.568 107.996 145.872 108.204C146.184 108.412 146.416 108.692 146.568 109.044C146.808 108.668 147.092 108.384 147.42 108.192C147.756 107.992 148.136 107.892 148.56 107.892C148.944 107.892 149.284 107.984 149.58 108.168C149.884 108.352 150.116 108.608 150.276 108.936C150.444 109.264 150.528 109.64 150.528 110.064V114H149.172V110.364C149.172 109.94 149.064 109.604 148.848 109.356C148.632 109.108 148.336 108.984 147.96 108.984C147.72 108.984 147.496 109.044 147.288 109.164C147.088 109.284 146.912 109.464 146.76 109.704C146.768 109.76 146.772 109.82 146.772 109.884C146.78 109.94 146.784 110 146.784 110.064V114H145.416V110.364C145.416 109.94 145.308 109.604 145.092 109.356C144.876 109.108 144.58 108.984 144.204 108.984C143.716 108.984 143.32 109.216 143.016 109.68V114H141.66ZM153.996 114.108C153.58 114.108 153.208 114.032 152.88 113.88C152.56 113.72 152.308 113.504 152.124 113.232C151.948 112.952 151.86 112.632 151.86 112.272C151.86 111.912 151.952 111.6 152.136 111.336C152.328 111.072 152.596 110.868 152.94 110.724C153.284 110.58 153.692 110.508 154.164 110.508C154.444 110.508 154.72 110.54 154.992 110.604C155.264 110.66 155.528 110.756 155.784 110.892V110.22C155.784 109.82 155.668 109.52 155.436 109.32C155.212 109.12 154.868 109.02 154.404 109.02C154.156 109.02 153.888 109.06 153.6 109.14C153.32 109.212 153.004 109.328 152.652 109.488L152.172 108.504C153.052 108.096 153.884 107.892 154.668 107.892C155.452 107.892 156.056 108.084 156.48 108.468C156.912 108.844 157.128 109.38 157.128 110.076V114H155.784V113.376C155.528 113.624 155.252 113.808 154.956 113.928C154.66 114.048 154.34 114.108 153.996 114.108ZM153.132 112.248C153.132 112.528 153.244 112.748 153.468 112.908C153.692 113.068 153.992 113.148 154.368 113.148C154.64 113.148 154.892 113.108 155.124 113.028C155.364 112.94 155.584 112.812 155.784 112.644V111.672C155.576 111.576 155.36 111.504 155.136 111.456C154.912 111.408 154.668 111.384 154.404 111.384C154.012 111.384 153.7 111.46 153.468 111.612C153.244 111.764 153.132 111.976 153.132 112.248ZM158.758 114V107.988H160.114V114H158.758ZM159.442 106.764C159.21 106.764 159.01 106.684 158.842 106.524C158.682 106.356 158.602 106.16 158.602 105.936C158.602 105.704 158.682 105.508 158.842 105.348C159.01 105.18 159.21 105.096 159.442 105.096C159.674 105.096 159.87 105.18 160.03 105.348C160.198 105.508 160.282 105.7 160.282 105.924C160.282 106.156 160.198 106.356 160.03 106.524C159.87 106.684 159.674 106.764 159.442 106.764ZM161.793 114V105.396L163.149 105.156V114H161.793ZM169.336 114.108C168.92 114.108 168.548 114.032 168.22 113.88C167.9 113.72 167.648 113.504 167.464 113.232C167.288 112.952 167.2 112.632 167.2 112.272C167.2 111.912 167.292 111.6 167.476 111.336C167.668 111.072 167.936 110.868 168.28 110.724C168.624 110.58 169.032 110.508 169.504 110.508C169.784 110.508 170.06 110.54 170.332 110.604C170.604 110.66 170.868 110.756 171.124 110.892V110.22C171.124 109.82 171.008 109.52 170.776 109.32C170.552 109.12 170.208 109.02 169.744 109.02C169.496 109.02 169.228 109.06 168.94 109.14C168.66 109.212 168.344 109.328 167.992 109.488L167.512 108.504C168.392 108.096 169.224 107.892 170.008 107.892C170.792 107.892 171.396 108.084 171.82 108.468C172.252 108.844 172.468 109.38 172.468 110.076V114H171.124V113.376C170.868 113.624 170.592 113.808 170.296 113.928C170 114.048 169.68 114.108 169.336 114.108ZM168.472 112.248C168.472 112.528 168.584 112.748 168.808 112.908C169.032 113.068 169.332 113.148 169.708 113.148C169.98 113.148 170.232 113.108 170.464 113.028C170.704 112.94 170.924 112.812 171.124 112.644V111.672C170.916 111.576 170.7 111.504 170.476 111.456C170.252 111.408 170.008 111.384 169.744 111.384C169.352 111.384 169.04 111.46 168.808 111.612C168.584 111.764 168.472 111.976 168.472 112.248ZM176.546 114.06C176.042 114.06 175.586 113.924 175.178 113.652C174.77 113.372 174.442 113.004 174.194 112.548C173.954 112.084 173.834 111.568 173.834 111C173.834 110.424 173.958 109.908 174.206 109.452C174.454 108.988 174.79 108.62 175.214 108.348C175.646 108.076 176.122 107.94 176.642 107.94C176.986 107.94 177.306 108.008 177.602 108.144C177.906 108.272 178.17 108.464 178.394 108.72V105.396L179.75 105.156V114H178.406V113.208C178.19 113.48 177.922 113.692 177.602 113.844C177.282 113.988 176.93 114.06 176.546 114.06ZM176.966 112.92C177.254 112.92 177.522 112.864 177.77 112.752C178.018 112.632 178.226 112.468 178.394 112.26V109.728C178.218 109.52 178.006 109.36 177.758 109.248C177.51 109.136 177.246 109.08 176.966 109.08C176.622 109.08 176.314 109.164 176.042 109.332C175.778 109.492 175.566 109.716 175.406 110.004C175.246 110.292 175.166 110.624 175.166 111C175.166 111.36 175.246 111.688 175.406 111.984C175.566 112.272 175.778 112.5 176.042 112.668C176.314 112.836 176.622 112.92 176.966 112.92ZM183.87 114.06C183.366 114.06 182.91 113.924 182.502 113.652C182.094 113.372 181.766 113.004 181.518 112.548C181.278 112.084 181.158 111.568 181.158 111C181.158 110.424 181.282 109.908 181.53 109.452C181.778 108.988 182.114 108.62 182.538 108.348C182.97 108.076 183.446 107.94 183.966 107.94C184.31 107.94 184.63 108.008 184.926 108.144C185.23 108.272 185.494 108.464 185.718 108.72V105.396L187.074 105.156V114H185.73V113.208C185.514 113.48 185.246 113.692 184.926 113.844C184.606 113.988 184.254 114.06 183.87 114.06ZM184.29 112.92C184.578 112.92 184.846 112.864 185.094 112.752C185.342 112.632 185.55 112.468 185.718 112.26V109.728C185.542 109.52 185.33 109.36 185.082 109.248C184.834 109.136 184.57 109.08 184.29 109.08C183.946 109.08 183.638 109.164 183.366 109.332C183.102 109.492 182.89 109.716 182.73 110.004C182.57 110.292 182.49 110.624 182.49 111C182.49 111.36 182.57 111.688 182.73 111.984C182.89 112.272 183.102 112.5 183.366 112.668C183.638 112.836 183.946 112.92 184.29 112.92ZM188.758 114V107.988H190.114V109.284C190.29 108.828 190.518 108.48 190.798 108.24C191.078 108 191.402 107.88 191.77 107.88C191.882 107.888 191.982 107.9 192.07 107.916C192.158 107.924 192.254 107.952 192.358 108V109.188C192.254 109.14 192.134 109.104 191.998 109.08C191.87 109.056 191.742 109.044 191.614 109.044C191.286 109.044 190.99 109.132 190.726 109.308C190.47 109.484 190.266 109.728 190.114 110.04V114H188.758ZM195.984 114.12C195.408 114.12 194.888 113.984 194.424 113.712C193.96 113.432 193.592 113.06 193.32 112.596C193.048 112.124 192.912 111.592 192.912 111C192.912 110.408 193.04 109.88 193.296 109.416C193.552 108.952 193.9 108.584 194.34 108.312C194.788 108.032 195.284 107.892 195.828 107.892C196.388 107.892 196.88 108.028 197.304 108.3C197.736 108.572 198.072 108.94 198.312 109.404C198.56 109.868 198.684 110.4 198.684 111V111.324H194.244C194.292 111.652 194.396 111.944 194.556 112.2C194.724 112.448 194.936 112.644 195.192 112.788C195.456 112.932 195.74 113.004 196.044 113.004C196.324 113.004 196.588 112.956 196.836 112.86C197.092 112.756 197.304 112.616 197.472 112.44L198.36 113.244C197.992 113.548 197.616 113.772 197.232 113.916C196.856 114.052 196.44 114.12 195.984 114.12ZM194.256 110.484H197.4C197.352 110.196 197.252 109.94 197.1 109.716C196.956 109.492 196.772 109.316 196.548 109.188C196.332 109.06 196.092 108.996 195.828 108.996C195.564 108.996 195.32 109.06 195.096 109.188C194.88 109.308 194.7 109.48 194.556 109.704C194.412 109.928 194.312 110.188 194.256 110.484ZM202.165 114.12C201.653 114.12 201.173 114.052 200.725 113.916C200.285 113.772 199.905 113.568 199.585 113.304L200.221 112.404C200.621 112.652 200.965 112.828 201.253 112.932C201.549 113.036 201.849 113.088 202.153 113.088C202.513 113.088 202.805 113.012 203.029 112.86C203.253 112.708 203.365 112.512 203.365 112.272C203.365 112.088 203.297 111.944 203.161 111.84C203.033 111.728 202.821 111.644 202.525 111.588L201.469 111.408C200.885 111.296 200.449 111.104 200.161 110.832C199.873 110.56 199.729 110.2 199.729 109.752C199.729 109.376 199.825 109.052 200.017 108.78C200.217 108.5 200.489 108.284 200.833 108.132C201.185 107.972 201.593 107.892 202.057 107.892C202.473 107.892 202.877 107.952 203.269 108.072C203.661 108.192 204.045 108.372 204.421 108.612L203.785 109.512C203.481 109.312 203.177 109.168 202.873 109.08C202.577 108.984 202.277 108.936 201.973 108.936C201.661 108.936 201.409 109 201.217 109.128C201.033 109.248 200.941 109.416 200.941 109.632C200.941 109.824 201.001 109.972 201.121 110.076C201.249 110.172 201.469 110.244 201.781 110.292L202.849 110.496C203.449 110.6 203.893 110.792 204.181 111.072C204.477 111.344 204.625 111.708 204.625 112.164C204.625 112.532 204.517 112.864 204.301 113.16C204.085 113.456 203.793 113.692 203.425 113.868C203.057 114.036 202.637 114.12 202.165 114.12ZM207.907 114.12C207.395 114.12 206.915 114.052 206.467 113.916C206.027 113.772 205.647 113.568 205.327 113.304L205.963 112.404C206.363 112.652 206.707 112.828 206.995 112.932C207.291 113.036 207.591 113.088 207.895 113.088C208.255 113.088 208.547 113.012 208.771 112.86C208.995 112.708 209.107 112.512 209.107 112.272C209.107 112.088 209.039 111.944 208.903 111.84C208.775 111.728 208.563 111.644 208.267 111.588L207.211 111.408C206.627 111.296 206.191 111.104 205.903 110.832C205.615 110.56 205.471 110.2 205.471 109.752C205.471 109.376 205.567 109.052 205.759 108.78C205.959 108.5 206.231 108.284 206.575 108.132C206.927 107.972 207.335 107.892 207.799 107.892C208.215 107.892 208.619 107.952 209.011 108.072C209.403 108.192 209.787 108.372 210.163 108.612L209.527 109.512C209.223 109.312 208.919 109.168 208.615 109.08C208.319 108.984 208.019 108.936 207.715 108.936C207.403 108.936 207.151 109 206.959 109.128C206.775 109.248 206.683 109.416 206.683 109.632C206.683 109.824 206.743 109.972 206.863 110.076C206.991 110.172 207.211 110.244 207.523 110.292L208.591 110.496C209.191 110.6 209.635 110.792 209.923 111.072C210.219 111.344 210.367 111.708 210.367 112.164C210.367 112.532 210.259 112.864 210.043 113.16C209.827 113.456 209.535 113.692 209.167 113.868C208.799 114.036 208.379 114.12 207.907 114.12Z" fill="#151515"/>
<path d="M41.008 148V139.6H44.764C45.332 139.6 45.824 139.712 46.24 139.936C46.664 140.152 46.992 140.456 47.224 140.848C47.456 141.24 47.572 141.696 47.572 142.216C47.572 142.712 47.456 143.156 47.224 143.548C46.992 143.94 46.664 144.248 46.24 144.472C45.824 144.688 45.332 144.796 44.764 144.796H42.448V148H41.008ZM42.448 143.62H44.536C45.048 143.62 45.44 143.492 45.712 143.236C45.984 142.972 46.12 142.628 46.12 142.204C46.12 141.788 45.984 141.452 45.712 141.196C45.44 140.94 45.052 140.812 44.548 140.812H42.448V143.62ZM50.5624 148.108C50.1464 148.108 49.7744 148.032 49.4464 147.88C49.1264 147.72 48.8744 147.504 48.6904 147.232C48.5144 146.952 48.4264 146.632 48.4264 146.272C48.4264 145.912 48.5184 145.6 48.7024 145.336C48.8944 145.072 49.1624 144.868 49.5064 144.724C49.8504 144.58 50.2584 144.508 50.7304 144.508C51.0104 144.508 51.2864 144.54 51.5584 144.604C51.8304 144.66 52.0944 144.756 52.3504 144.892V144.22C52.3504 143.82 52.2344 143.52 52.0024 143.32C51.7784 143.12 51.4344 143.02 50.9704 143.02C50.7224 143.02 50.4544 143.06 50.1664 143.14C49.8864 143.212 49.5704 143.328 49.2184 143.488L48.7384 142.504C49.6184 142.096 50.4504 141.892 51.2344 141.892C52.0184 141.892 52.6224 142.084 53.0464 142.468C53.4784 142.844 53.6944 143.38 53.6944 144.076V148H52.3504V147.376C52.0944 147.624 51.8184 147.808 51.5224 147.928C51.2264 148.048 50.9064 148.108 50.5624 148.108ZM49.6984 146.248C49.6984 146.528 49.8104 146.748 50.0344 146.908C50.2584 147.068 50.5584 147.148 50.9344 147.148C51.2064 147.148 51.4584 147.108 51.6904 147.028C51.9304 146.94 52.1504 146.812 52.3504 146.644V145.672C52.1424 145.576 51.9264 145.504 51.7024 145.456C51.4784 145.408 51.2344 145.384 50.9704 145.384C50.5784 145.384 50.2664 145.46 50.0344 145.612C49.8104 145.764 49.6984 145.976 49.6984 146.248ZM57.3761 148.12C56.8641 148.12 56.3841 148.052 55.9361 147.916C55.4961 147.772 55.1161 147.568 54.7961 147.304L55.4321 146.404C55.8321 146.652 56.1761 146.828 56.4641 146.932C56.7601 147.036 57.0601 147.088 57.3641 147.088C57.7241 147.088 58.0161 147.012 58.2401 146.86C58.4641 146.708 58.5761 146.512 58.5761 146.272C58.5761 146.088 58.5081 145.944 58.3721 145.84C58.2441 145.728 58.0321 145.644 57.7361 145.588L56.6801 145.408C56.0961 145.296 55.6601 145.104 55.3721 144.832C55.0841 144.56 54.9401 144.2 54.9401 143.752C54.9401 143.376 55.0361 143.052 55.2281 142.78C55.4281 142.5 55.7001 142.284 56.0441 142.132C56.3961 141.972 56.8041 141.892 57.2681 141.892C57.6841 141.892 58.0881 141.952 58.4801 142.072C58.8721 142.192 59.2561 142.372 59.6321 142.612L58.9961 143.512C58.6921 143.312 58.3881 143.168 58.0841 143.08C57.7881 142.984 57.4881 142.936 57.1841 142.936C56.8721 142.936 56.6201 143 56.4281 143.128C56.2441 143.248 56.1521 143.416 56.1521 143.632C56.1521 143.824 56.2121 143.972 56.3321 144.076C56.4601 144.172 56.6801 144.244 56.9921 144.292L58.0601 144.496C58.6601 144.6 59.1041 144.792 59.3921 145.072C59.6881 145.344 59.8361 145.708 59.8361 146.164C59.8361 146.532 59.7281 146.864 59.5121 147.16C59.2961 147.456 59.0041 147.692 58.6361 147.868C58.2681 148.036 57.8481 148.12 57.3761 148.12ZM63.1183 148.12C62.6063 148.12 62.1263 148.052 61.6783 147.916C61.2383 147.772 60.8583 147.568 60.5383 147.304L61.1743 146.404C61.5743 146.652 61.9183 146.828 62.2063 146.932C62.5023 147.036 62.8023 147.088 63.1063 147.088C63.4663 147.088 63.7583 147.012 63.9823 146.86C64.2063 146.708 64.3183 146.512 64.3183 146.272C64.3183 146.088 64.2503 145.944 64.1143 145.84C63.9863 145.728 63.7743 145.644 63.4783 145.588L62.4223 145.408C61.8383 145.296 61.4023 145.104 61.1143 144.832C60.8263 144.56 60.6823 144.2 60.6823 143.752C60.6823 143.376 60.7783 143.052 60.9703 142.78C61.1703 142.5 61.4423 142.284 61.7863 142.132C62.1383 141.972 62.5463 141.892 63.0103 141.892C63.4263 141.892 63.8303 141.952 64.2223 142.072C64.6143 142.192 64.9983 142.372 65.3743 142.612L64.7383 143.512C64.4343 143.312 64.1303 143.168 63.8263 143.08C63.5303 142.984 63.2303 142.936 62.9263 142.936C62.6143 142.936 62.3623 143 62.1703 143.128C61.9863 143.248 61.8943 143.416 61.8943 143.632C61.8943 143.824 61.9543 143.972 62.0743 144.076C62.2023 144.172 62.4223 144.244 62.7343 144.292L63.8023 144.496C64.4023 144.6 64.8463 144.792 65.1343 145.072C65.4303 145.344 65.5783 145.708 65.5783 146.164C65.5783 146.532 65.4703 146.864 65.2543 147.16C65.0383 147.456 64.7463 147.692 64.3783 147.868C64.0103 148.036 63.5903 148.12 63.1183 148.12ZM67.8765 148L66.2565 141.988H67.5525L68.6085 146.224L69.8565 141.988H70.9965L72.2325 146.224L73.2885 141.988H74.5485L72.9285 148H71.6325L70.4085 143.764L69.1965 148H67.8765ZM78.2872 148.108C77.7192 148.108 77.2032 147.972 76.7392 147.7C76.2832 147.428 75.9232 147.06 75.6592 146.596C75.3952 146.124 75.2632 145.592 75.2632 145C75.2632 144.408 75.3952 143.88 75.6592 143.416C75.9232 142.944 76.2832 142.572 76.7392 142.3C77.1952 142.028 77.7112 141.892 78.2872 141.892C78.8632 141.892 79.3752 142.028 79.8232 142.3C80.2792 142.572 80.6392 142.944 80.9032 143.416C81.1672 143.88 81.2992 144.408 81.2992 145C81.2992 145.592 81.1672 146.124 80.9032 146.596C80.6392 147.06 80.2792 147.428 79.8232 147.7C79.3752 147.972 78.8632 148.108 78.2872 148.108ZM78.2872 146.956C78.6152 146.956 78.9032 146.872 79.1512 146.704C79.4072 146.536 79.6072 146.304 79.7512 146.008C79.8952 145.704 79.9672 145.368 79.9672 145C79.9672 144.624 79.8952 144.292 79.7512 144.004C79.6072 143.708 79.4072 143.476 79.1512 143.308C78.9032 143.132 78.6152 143.044 78.2872 143.044C77.9592 143.044 77.6672 143.132 77.4112 143.308C77.1552 143.476 76.9552 143.708 76.8112 144.004C76.6672 144.292 76.5952 144.624 76.5952 145C76.5952 145.376 76.6672 145.712 76.8112 146.008C76.9552 146.304 77.1552 146.536 77.4112 146.704C77.6672 146.872 77.9592 146.956 78.2872 146.956ZM82.6994 148V141.988H84.0554V143.284C84.2314 142.828 84.4594 142.48 84.7394 142.24C85.0194 142 85.3434 141.88 85.7114 141.88C85.8234 141.888 85.9234 141.9 86.0114 141.916C86.0994 141.924 86.1954 141.952 86.2994 142V143.188C86.1954 143.14 86.0754 143.104 85.9394 143.08C85.8114 143.056 85.6834 143.044 85.5554 143.044C85.2274 143.044 84.9314 143.132 84.6674 143.308C84.4114 143.484 84.2074 143.728 84.0554 144.04V148H82.6994ZM89.5651 148.06C89.0611 148.06 88.6051 147.924 88.1971 147.652C87.7891 147.372 87.4611 147.004 87.2131 146.548C86.9731 146.084 86.8531 145.568 86.8531 145C86.8531 144.424 86.9771 143.908 87.2251 143.452C87.4731 142.988 87.8091 142.62 88.2331 142.348C88.6651 142.076 89.1411 141.94 89.6611 141.94C90.0051 141.94 90.3251 142.008 90.6211 142.144C90.9251 142.272 91.1891 142.464 91.4131 142.72V139.396L92.7691 139.156V148H91.4251V147.208C91.2091 147.48 90.9411 147.692 90.6211 147.844C90.3011 147.988 89.9491 148.06 89.5651 148.06ZM89.9851 146.92C90.2731 146.92 90.5411 146.864 90.7891 146.752C91.0371 146.632 91.2451 146.468 91.4131 146.26V143.728C91.2371 143.52 91.0251 143.36 90.7771 143.248C90.5291 143.136 90.2651 143.08 89.9851 143.08C89.6411 143.08 89.3331 143.164 89.0611 143.332C88.7971 143.492 88.5851 143.716 88.4251 144.004C88.2651 144.292 88.1851 144.624 88.1851 145C88.1851 145.36 88.2651 145.688 88.4251 145.984C88.5851 146.272 88.7971 146.5 89.0611 146.668C89.3331 146.836 89.6411 146.92 89.9851 146.92Z" fill="#151515"/>
<path d="M100.412 143.908L100.436 142.252L99.092 143.128L98.744 142.588L100.16 141.712L98.792 140.848L99.128 140.32L100.424 141.172L100.412 139.6H101.036L101.024 141.16L102.308 140.32L102.668 140.848L101.288 141.712L102.716 142.588L102.356 143.128L101.012 142.252L101.036 143.908H100.412Z" fill="#F4784A"/>
<mask id="path-12-inside-2_1247_21353" fill="white">
<path d="M40 167C40 163.686 42.6863 161 46 161H403C406.314 161 409 163.686 409 167V192C409 195.314 406.314 198 403 198H46C42.6863 198 40 195.314 40 192V167Z"/>
</mask>
<path d="M40 167C40 163.686 42.6863 161 46 161H403C406.314 161 409 163.686 409 167V192C409 195.314 406.314 198 403 198H46C42.6863 198 40 195.314 40 192V167Z" fill="white"/>
<path d="M46 161V162H403V161V160H46V161ZM409 167H408V192H409H410V167H409ZM403 198V197H46V198V199H403V198ZM40 192H41V167H40H39V192H40ZM46 198V197C43.2386 197 41 194.761 41 192H40H39C39 195.866 42.134 199 46 199V198ZM409 192H408C408 194.761 405.761 197 403 197V198V199C406.866 199 410 195.866 410 192H409ZM403 161V162C405.761 162 408 164.239 408 167H409H410C410 163.134 406.866 160 403 160V161ZM46 161V160C42.134 160 39 163.134 39 167H40H41C41 164.239 43.2386 162 46 162V161Z" fill="#C7C7C7" mask="url(#path-12-inside-2_1247_21353)"/>
<path d="M58.408 180.472C58.0253 180.472 57.694 180.337 57.414 180.066C57.134 179.795 56.994 179.459 56.994 179.058C56.994 178.657 57.134 178.321 57.414 178.05C57.694 177.779 58.0207 177.644 58.394 177.644C58.7767 177.644 59.1033 177.779 59.374 178.05C59.654 178.321 59.794 178.657 59.794 179.058C59.794 179.459 59.654 179.795 59.374 180.066C59.1033 180.337 58.7813 180.472 58.408 180.472ZM63.1932 180.472C62.8105 180.472 62.4792 180.337 62.1992 180.066C61.9192 179.795 61.7792 179.459 61.7792 179.058C61.7792 178.657 61.9192 178.321 62.1992 178.05C62.4792 177.779 62.8058 177.644 63.1792 177.644C63.5618 177.644 63.8885 177.779 64.1592 178.05C64.4392 178.321 64.5792 178.657 64.5792 179.058C64.5792 179.459 64.4392 179.795 64.1592 180.066C63.8885 180.337 63.5665 180.472 63.1932 180.472ZM67.9783 180.472C67.5956 180.472 67.2643 180.337 66.9843 180.066C66.7043 179.795 66.5643 179.459 66.5643 179.058C66.5643 178.657 66.7043 178.321 66.9843 178.05C67.2643 177.779 67.591 177.644 67.9643 177.644C68.347 177.644 68.6736 177.779 68.9443 178.05C69.2243 178.321 69.3643 178.657 69.3643 179.058C69.3643 179.459 69.2243 179.795 68.9443 180.066C68.6736 180.337 68.3516 180.472 67.9783 180.472ZM72.7635 180.472C72.3808 180.472 72.0495 180.337 71.7695 180.066C71.4895 179.795 71.3495 179.459 71.3495 179.058C71.3495 178.657 71.4895 178.321 71.7695 178.05C72.0495 177.779 72.3761 177.644 72.7495 177.644C73.1321 177.644 73.4588 177.779 73.7295 178.05C74.0095 178.321 74.1495 178.657 74.1495 179.058C74.1495 179.459 74.0095 179.795 73.7295 180.066C73.4588 180.337 73.1368 180.472 72.7635 180.472ZM77.5486 180.472C77.166 180.472 76.8346 180.337 76.5546 180.066C76.2746 179.795 76.1346 179.459 76.1346 179.058C76.1346 178.657 76.2746 178.321 76.5546 178.05C76.8346 177.779 77.1613 177.644 77.5346 177.644C77.9173 177.644 78.244 177.779 78.5146 178.05C78.7946 178.321 78.9346 178.657 78.9346 179.058C78.9346 179.459 78.7946 179.795 78.5146 180.066C78.244 180.337 77.922 180.472 77.5486 180.472ZM82.3338 180.472C81.9511 180.472 81.6198 180.337 81.3398 180.066C81.0598 179.795 80.9198 179.459 80.9198 179.058C80.9198 178.657 81.0598 178.321 81.3398 178.05C81.6198 177.779 81.9464 177.644 82.3198 177.644C82.7024 177.644 83.0291 177.779 83.2998 178.05C83.5798 178.321 83.7198 178.657 83.7198 179.058C83.7198 179.459 83.5798 179.795 83.2998 180.066C83.0291 180.337 82.7071 180.472 82.3338 180.472ZM87.1189 180.472C86.7363 180.472 86.4049 180.337 86.1249 180.066C85.8449 179.795 85.7049 179.459 85.7049 179.058C85.7049 178.657 85.8449 178.321 86.1249 178.05C86.4049 177.779 86.7316 177.644 87.1049 177.644C87.4876 177.644 87.8143 177.779 88.0849 178.05C88.3649 178.321 88.5049 178.657 88.5049 179.058C88.5049 179.459 88.3649 179.795 88.0849 180.066C87.8143 180.337 87.4923 180.472 87.1189 180.472ZM91.9041 180.472C91.5214 180.472 91.1901 180.337 90.9101 180.066C90.6301 179.795 90.4901 179.459 90.4901 179.058C90.4901 178.657 90.6301 178.321 90.9101 178.05C91.1901 177.779 91.5168 177.644 91.8901 177.644C92.2728 177.644 92.5994 177.779 92.8701 178.05C93.1501 178.321 93.2901 178.657 93.2901 179.058C93.2901 179.459 93.1501 179.795 92.8701 180.066C92.5994 180.337 92.2774 180.472 91.9041 180.472ZM96.6893 180.472C96.3066 180.472 95.9753 180.337 95.6953 180.066C95.4153 179.795 95.2753 179.459 95.2753 179.058C95.2753 178.657 95.4153 178.321 95.6953 178.05C95.9753 177.779 96.3019 177.644 96.6753 177.644C97.0579 177.644 97.3846 177.779 97.6553 178.05C97.9353 178.321 98.0753 178.657 98.0753 179.058C98.0753 179.459 97.9353 179.795 97.6553 180.066C97.3846 180.337 97.0626 180.472 96.6893 180.472ZM101.474 180.472C101.092 180.472 100.76 180.337 100.48 180.066C100.2 179.795 100.06 179.459 100.06 179.058C100.06 178.657 100.2 178.321 100.48 178.05C100.76 177.779 101.087 177.644 101.46 177.644C101.843 177.644 102.17 177.779 102.44 178.05C102.72 178.321 102.86 178.657 102.86 179.058C102.86 179.459 102.72 179.795 102.44 180.066C102.17 180.337 101.848 180.472 101.474 180.472ZM106.26 180.472C105.877 180.472 105.546 180.337 105.266 180.066C104.986 179.795 104.846 179.459 104.846 179.058C104.846 178.657 104.986 178.321 105.266 178.05C105.546 177.779 105.872 177.644 106.246 177.644C106.628 177.644 106.955 177.779 107.226 178.05C107.506 178.321 107.646 178.657 107.646 179.058C107.646 179.459 107.506 179.795 107.226 180.066C106.955 180.337 106.633 180.472 106.26 180.472ZM111.045 180.472C110.662 180.472 110.331 180.337 110.051 180.066C109.771 179.795 109.631 179.459 109.631 179.058C109.631 178.657 109.771 178.321 110.051 178.05C110.331 177.779 110.657 177.644 111.031 177.644C111.413 177.644 111.74 177.779 112.011 178.05C112.291 178.321 112.431 178.657 112.431 179.058C112.431 179.459 112.291 179.795 112.011 180.066C111.74 180.337 111.418 180.472 111.045 180.472Z" fill="#4D4D4D"/>
</svg>
