<svg width="481" height="217" viewBox="0 0 481 217" fill="none" xmlns="http://www.w3.org/2000/svg">
<g clip-path="url(#clip0_1674_101104)">
<rect width="481" height="217" fill="white"/>
<rect width="324" height="2" transform="matrix(-1 0 0 1 379 36)" fill="#C7C7C7"/>
<circle cx="57" cy="37" r="11" fill="white" stroke="#C7C7C7" stroke-width="2"/>
<path d="M57 30C60.866 30 64 33.134 64 37C64 40.866 60.866 44 57 44C53.134 44 50 40.866 50 37C50 33.134 53.134 30 57 30ZM60.7451 34.2354C60.5688 34.0591 60.2828 34.0591 60.1064 34.2354L55.8711 38.4707L53.8936 36.4932C53.7173 36.3171 53.4312 36.3171 53.2549 36.4932L52.6162 37.1318C52.4399 37.3081 52.4401 37.5941 52.6162 37.7705L55.5518 40.7061C55.7281 40.8824 56.014 40.8824 56.1904 40.7061L61.3838 35.5127C61.5601 35.3363 61.5601 35.0504 61.3838 34.874L60.7451 34.2354Z" fill="#3D7317"/>
<path d="M46.424 75V63.8H54.072V64.888H47.656V68.888H52.04V69.96H47.656V75H46.424ZM55.7153 75V67.192H56.8832V75H55.7153ZM56.3073 65.256C56.0726 65.256 55.8699 65.176 55.6993 65.016C55.5393 64.8453 55.4593 64.648 55.4593 64.424C55.4593 64.2 55.5393 64.008 55.6993 63.848C55.8699 63.6773 56.0726 63.592 56.3073 63.592C56.5419 63.592 56.7393 63.6773 56.8993 63.848C57.0699 64.008 57.1553 64.2 57.1553 64.424C57.1553 64.648 57.0699 64.8453 56.8993 65.016C56.7393 65.176 56.5419 65.256 56.3073 65.256ZM59.2781 75V67.192H60.4461V68.792C60.6488 68.248 60.9368 67.8267 61.3101 67.528C61.6941 67.2187 62.1315 67.064 62.6221 67.064C62.7608 67.064 62.8888 67.0747 63.0061 67.096C63.1235 67.1067 63.2408 67.1333 63.3581 67.176V68.232C63.2301 68.1893 63.0915 68.1573 62.9421 68.136C62.8035 68.104 62.6701 68.088 62.5421 68.088C62.0621 68.088 61.6408 68.2267 61.2781 68.504C60.9261 68.7813 60.6488 69.1707 60.4461 69.672V75H59.2781ZM67.241 75.16C66.601 75.16 66.009 75.064 65.465 74.872C64.921 74.6693 64.457 74.3813 64.073 74.008L64.697 73.24C65.1663 73.5813 65.5983 73.832 65.993 73.992C66.3877 74.1413 66.793 74.216 67.209 74.216C67.7743 74.216 68.2437 74.0827 68.617 73.816C68.9903 73.5493 69.177 73.208 69.177 72.792C69.177 72.472 69.065 72.2213 68.841 72.04C68.6277 71.8587 68.2703 71.72 67.769 71.624L66.489 71.4C65.7317 71.2613 65.1717 71.0267 64.809 70.696C64.457 70.3653 64.281 69.9173 64.281 69.352C64.281 68.904 64.3983 68.5093 64.633 68.168C64.8783 67.8267 65.2143 67.56 65.641 67.368C66.0677 67.1653 66.553 67.064 67.097 67.064C67.6303 67.064 68.137 67.144 68.617 67.304C69.097 67.4533 69.5823 67.6987 70.073 68.04L69.497 68.856C69.0917 68.568 68.6863 68.36 68.281 68.232C67.8757 68.0933 67.465 68.024 67.049 68.024C66.537 68.024 66.1263 68.136 65.817 68.36C65.5077 68.584 65.353 68.888 65.353 69.272C65.353 69.592 65.449 69.8373 65.641 70.008C65.8437 70.1787 66.1957 70.3067 66.697 70.392L68.009 70.632C68.7983 70.7707 69.3743 71.0107 69.737 71.352C70.0997 71.6933 70.281 72.152 70.281 72.728C70.281 73.1867 70.1477 73.6027 69.881 73.976C69.6143 74.3387 69.2517 74.6267 68.793 74.84C68.3343 75.0533 67.817 75.16 67.241 75.16ZM74.8791 75.16C74.2071 75.16 73.6951 75 73.3431 74.68C73.0018 74.3493 72.8311 73.8747 72.8311 73.256V68.152H71.2151V67.192H72.8311V65.048L73.9991 64.776V67.192H76.2391V68.152H73.9991V72.952C73.9991 73.368 74.0845 73.6667 74.2551 73.848C74.4365 74.0293 74.7298 74.12 75.1351 74.12C75.3378 74.12 75.5191 74.104 75.6791 74.072C75.8391 74.04 76.0258 73.9867 76.2391 73.912V74.952C76.0258 75.0267 75.8018 75.08 75.5671 75.112C75.3325 75.144 75.1031 75.16 74.8791 75.16ZM84.1004 75.16C83.4604 75.16 82.8684 75.064 82.3244 74.872C81.7804 74.6693 81.3164 74.3813 80.9324 74.008L81.5564 73.24C82.0257 73.5813 82.4577 73.832 82.8524 73.992C83.247 74.1413 83.6524 74.216 84.0684 74.216C84.6337 74.216 85.103 74.0827 85.4764 73.816C85.8497 73.5493 86.0364 73.208 86.0364 72.792C86.0364 72.472 85.9244 72.2213 85.7004 72.04C85.487 71.8587 85.1297 71.72 84.6284 71.624L83.3484 71.4C82.591 71.2613 82.031 71.0267 81.6684 70.696C81.3164 70.3653 81.1404 69.9173 81.1404 69.352C81.1404 68.904 81.2577 68.5093 81.4924 68.168C81.7377 67.8267 82.0737 67.56 82.5004 67.368C82.927 67.1653 83.4124 67.064 83.9564 67.064C84.4897 67.064 84.9964 67.144 85.4764 67.304C85.9564 67.4533 86.4417 67.6987 86.9324 68.04L86.3564 68.856C85.951 68.568 85.5457 68.36 85.1404 68.232C84.735 68.0933 84.3244 68.024 83.9084 68.024C83.3964 68.024 82.9857 68.136 82.6764 68.36C82.367 68.584 82.2124 68.888 82.2124 69.272C82.2124 69.592 82.3084 69.8373 82.5004 70.008C82.703 70.1787 83.055 70.3067 83.5564 70.392L84.8684 70.632C85.6577 70.7707 86.2337 71.0107 86.5964 71.352C86.959 71.6933 87.1404 72.152 87.1404 72.728C87.1404 73.1867 87.007 73.6027 86.7404 73.976C86.4737 74.3387 86.111 74.6267 85.6524 74.84C85.1937 75.0533 84.6764 75.16 84.1004 75.16ZM91.7385 75.16C91.0665 75.16 90.5545 75 90.2025 74.68C89.8612 74.3493 89.6905 73.8747 89.6905 73.256V68.152H88.0745V67.192H89.6905V65.048L90.8585 64.776V67.192H93.0985V68.152H90.8585V72.952C90.8585 73.368 90.9438 73.6667 91.1145 73.848C91.2958 74.0293 91.5892 74.12 91.9945 74.12C92.1972 74.12 92.3785 74.104 92.5385 74.072C92.6985 74.04 92.8852 73.9867 93.0985 73.912V74.952C92.8852 75.0267 92.6612 75.08 92.4265 75.112C92.1918 75.144 91.9625 75.16 91.7385 75.16ZM98.1731 75.16C97.4478 75.16 96.7918 74.984 96.2051 74.632C95.6185 74.2693 95.1545 73.784 94.8131 73.176C94.4718 72.5573 94.3011 71.864 94.3011 71.096C94.3011 70.328 94.4611 69.64 94.7811 69.032C95.1118 68.424 95.5545 67.944 96.1091 67.592C96.6638 67.24 97.2825 67.064 97.9651 67.064C98.6585 67.064 99.2718 67.24 99.8051 67.592C100.349 67.9333 100.776 68.4027 101.085 69C101.405 69.5867 101.565 70.2533 101.565 71V71.352H95.4371C95.4798 71.8853 95.6238 72.3653 95.8691 72.792C96.1251 73.208 96.4558 73.5387 96.8611 73.784C97.2771 74.0187 97.7305 74.136 98.2211 74.136C98.6265 74.136 99.0158 74.0667 99.3891 73.928C99.7731 73.7787 100.098 73.5813 100.365 73.336L101.101 74.12C100.653 74.472 100.189 74.7333 99.7091 74.904C99.2291 75.0747 98.7171 75.16 98.1731 75.16ZM95.4691 70.52H100.413C100.36 70.0507 100.216 69.6347 99.9811 69.272C99.7571 68.8987 99.4691 68.6053 99.1171 68.392C98.7758 68.1787 98.3918 68.072 97.9651 68.072C97.5385 68.072 97.1491 68.1787 96.7971 68.392C96.4451 68.5947 96.1518 68.8827 95.9171 69.256C95.6931 69.6187 95.5438 70.04 95.4691 70.52ZM103.559 78.344V67.192H104.711V68.312C105.01 67.9173 105.373 67.6187 105.799 67.416C106.237 67.2027 106.717 67.096 107.239 67.096C107.922 67.096 108.53 67.2773 109.063 67.64C109.607 67.992 110.039 68.472 110.359 69.08C110.679 69.6773 110.839 70.3493 110.839 71.096C110.839 71.8427 110.674 72.52 110.343 73.128C110.023 73.736 109.586 74.2213 109.031 74.584C108.487 74.936 107.869 75.112 107.175 75.112C106.685 75.112 106.231 75.0213 105.815 74.84C105.399 74.648 105.037 74.376 104.727 74.024V78.344H103.559ZM106.951 74.104C107.474 74.104 107.938 73.976 108.343 73.72C108.759 73.4533 109.085 73.096 109.319 72.648C109.565 72.1893 109.687 71.6773 109.687 71.112C109.687 70.536 109.565 70.024 109.319 69.576C109.085 69.128 108.759 68.776 108.343 68.52C107.938 68.2533 107.474 68.12 106.951 68.12C106.493 68.12 106.066 68.216 105.671 68.408C105.287 68.5893 104.973 68.8507 104.727 69.192V73.016C104.983 73.3573 105.303 73.624 105.687 73.816C106.082 74.008 106.503 74.104 106.951 74.104Z" fill="#151515"/>
<line x1="45.5" y1="80.5" x2="111.5" y2="80.5" stroke="#1F1F1F" stroke-linecap="round" stroke-dasharray="2 2"/>
<circle cx="204" cy="37" r="11" fill="white" stroke="#C7C7C7" stroke-width="2"/>
<path d="M204.001 30C207.861 30 211 33.1404 211 37C211 40.8596 207.861 44 204.001 44C200.142 43.9998 197 40.8594 197 37C197 33.1419 200.14 30.0002 204.001 30ZM204 31.75C201.104 31.75 198.75 34.1057 198.75 37C198.75 39.8971 201.104 42.25 204 42.25C206.894 42.25 209.25 39.8957 209.25 37C209.25 34.1043 206.894 31.75 204 31.75ZM204 33.0625C206.175 33.0625 207.938 34.8248 207.938 37C207.937 39.1752 206.175 40.9375 204 40.9375C201.825 40.9375 200.063 39.1752 200.062 37C200.062 34.8248 201.825 33.0625 204 33.0625Z" fill="#0066CC"/>
<path d="M197.088 75.176C196.213 75.176 195.387 75.0267 194.608 74.728C193.84 74.4187 193.099 73.9653 192.384 73.368L193.424 71.96C194.149 72.5467 194.795 72.968 195.36 73.224C195.936 73.4693 196.549 73.592 197.2 73.592C197.691 73.592 198.123 73.5173 198.496 73.368C198.88 73.208 199.173 72.9947 199.376 72.728C199.589 72.4613 199.696 72.152 199.696 71.8C199.696 71.3413 199.541 70.9947 199.232 70.76C198.933 70.5147 198.411 70.328 197.664 70.2L195.6 69.848C194.629 69.6773 193.904 69.352 193.424 68.872C192.955 68.3813 192.72 67.7573 192.72 67C192.72 66.328 192.891 65.7413 193.232 65.24C193.573 64.728 194.048 64.3333 194.656 64.056C195.275 63.768 196.005 63.624 196.848 63.624C197.691 63.624 198.491 63.7467 199.248 63.992C200.005 64.2373 200.704 64.5947 201.344 65.064L200.368 66.504C199.803 66.0773 199.221 65.7573 198.624 65.544C198.027 65.32 197.413 65.208 196.784 65.208C196.336 65.208 195.941 65.2773 195.6 65.416C195.269 65.5547 195.008 65.7467 194.816 65.992C194.635 66.2373 194.544 66.5093 194.544 66.808C194.544 67.2133 194.677 67.528 194.944 67.752C195.221 67.9653 195.664 68.1253 196.272 68.232L198.272 68.568C199.403 68.7707 200.235 69.1227 200.768 69.624C201.312 70.1253 201.584 70.8027 201.584 71.656C201.584 72.3387 201.392 72.9467 201.008 73.48C200.635 74.0133 200.112 74.4293 199.44 74.728C198.768 75.0267 197.984 75.176 197.088 75.176ZM207.192 75.16C206.424 75.16 205.73 74.9787 205.112 74.616C204.493 74.2427 204.002 73.7467 203.64 73.128C203.277 72.4987 203.096 71.7893 203.096 71C203.096 70.2107 203.266 69.5067 203.608 68.888C203.949 68.2693 204.413 67.7787 205 67.416C205.597 67.0427 206.258 66.856 206.984 66.856C207.73 66.856 208.386 67.0373 208.952 67.4C209.528 67.7627 209.976 68.2533 210.296 68.872C210.626 69.4907 210.792 70.2 210.792 71V71.432H204.872C204.936 71.8693 205.074 72.2587 205.288 72.6C205.512 72.9307 205.794 73.192 206.136 73.384C206.488 73.576 206.866 73.672 207.272 73.672C207.645 73.672 207.997 73.608 208.328 73.48C208.669 73.3413 208.952 73.1547 209.176 72.92L210.36 73.992C209.869 74.3973 209.368 74.696 208.856 74.888C208.354 75.0693 207.8 75.16 207.192 75.16ZM204.888 70.312H209.08C209.016 69.928 208.882 69.5867 208.68 69.288C208.488 68.9893 208.242 68.7547 207.944 68.584C207.656 68.4133 207.336 68.328 206.984 68.328C206.632 68.328 206.306 68.4133 206.008 68.584C205.72 68.744 205.48 68.9733 205.288 69.272C205.096 69.5707 204.962 69.9173 204.888 70.312ZM216.347 75.144C215.59 75.144 214.902 74.9627 214.283 74.6C213.675 74.2267 213.19 73.7253 212.827 73.096C212.475 72.4667 212.299 71.768 212.299 71C212.299 70.2213 212.475 69.5227 212.827 68.904C213.19 68.2747 213.675 67.7787 214.283 67.416C214.902 67.0427 215.59 66.856 216.347 66.856C216.966 66.856 217.552 66.9733 218.107 67.208C218.672 67.4427 219.152 67.7787 219.547 68.216L218.427 69.384C218.15 69.0747 217.84 68.84 217.499 68.68C217.158 68.52 216.795 68.44 216.411 68.44C215.974 68.44 215.579 68.5573 215.227 68.792C214.886 69.016 214.614 69.32 214.411 69.704C214.208 70.088 214.107 70.52 214.107 71C214.107 71.48 214.208 71.9173 214.411 72.312C214.614 72.696 214.886 73 215.227 73.224C215.579 73.448 215.974 73.56 216.411 73.56C216.795 73.56 217.158 73.48 217.499 73.32C217.84 73.16 218.15 72.9307 218.427 72.632L219.547 73.784C219.152 74.2213 218.672 74.5573 218.107 74.792C217.552 75.0267 216.966 75.144 216.347 75.144ZM224.472 75.144C223.714 75.144 223.026 74.9627 222.408 74.6C221.8 74.2373 221.32 73.7467 220.968 73.128C220.616 72.4987 220.44 71.7893 220.44 71C220.44 70.2107 220.616 69.5067 220.968 68.888C221.32 68.2587 221.8 67.7627 222.408 67.4C223.016 67.0373 223.704 66.856 224.472 66.856C225.24 66.856 225.922 67.0373 226.52 67.4C227.128 67.7627 227.608 68.2587 227.96 68.888C228.312 69.5067 228.488 70.2107 228.488 71C228.488 71.7893 228.312 72.4987 227.96 73.128C227.608 73.7467 227.128 74.2373 226.52 74.6C225.922 74.9627 225.24 75.144 224.472 75.144ZM224.472 73.608C224.909 73.608 225.293 73.496 225.624 73.272C225.965 73.048 226.232 72.7387 226.424 72.344C226.616 71.9387 226.712 71.4907 226.712 71C226.712 70.4987 226.616 70.056 226.424 69.672C226.232 69.2773 225.965 68.968 225.624 68.744C225.293 68.5093 224.909 68.392 224.472 68.392C224.034 68.392 223.645 68.5093 223.304 68.744C222.962 68.968 222.696 69.2773 222.504 69.672C222.312 70.056 222.216 70.4987 222.216 71C222.216 71.5013 222.312 71.9493 222.504 72.344C222.696 72.7387 222.962 73.048 223.304 73.272C223.645 73.496 224.034 73.608 224.472 73.608ZM230.354 75V66.984H232.162V68.296C232.472 67.816 232.84 67.4587 233.266 67.224C233.693 66.9787 234.168 66.856 234.69 66.856C235.245 66.856 235.73 66.9787 236.146 67.224C236.562 67.4587 236.888 67.7893 237.122 68.216C237.368 68.6427 237.49 69.144 237.49 69.72V75H235.666V70.232C235.666 69.6453 235.506 69.1813 235.186 68.84C234.866 68.488 234.44 68.312 233.906 68.312C233.544 68.312 233.213 68.3973 232.914 68.568C232.626 68.728 232.376 68.968 232.162 69.288V75H230.354ZM242.915 75.08C242.243 75.08 241.635 74.8987 241.091 74.536C240.547 74.1627 240.11 73.672 239.779 73.064C239.459 72.4453 239.299 71.7573 239.299 71C239.299 70.232 239.464 69.544 239.795 68.936C240.126 68.3173 240.574 67.8267 241.139 67.464C241.715 67.1013 242.35 66.92 243.043 66.92C243.502 66.92 243.928 67.0107 244.323 67.192C244.728 67.3627 245.08 67.6187 245.379 67.96V63.528L247.187 63.208V75H245.395V73.944C245.107 74.3067 244.75 74.5893 244.323 74.792C243.896 74.984 243.427 75.08 242.915 75.08ZM243.475 73.56C243.859 73.56 244.216 73.4853 244.547 73.336C244.878 73.176 245.155 72.9573 245.379 72.68V69.304C245.144 69.0267 244.862 68.8133 244.531 68.664C244.2 68.5147 243.848 68.44 243.475 68.44C243.016 68.44 242.606 68.552 242.243 68.776C241.891 68.9893 241.608 69.288 241.395 69.672C241.182 70.056 241.075 70.4987 241.075 71C241.075 71.48 241.182 71.9173 241.395 72.312C241.608 72.696 241.891 73 242.243 73.224C242.606 73.448 243.016 73.56 243.475 73.56ZM255.746 75.16C255.064 75.16 254.424 75.0693 253.826 74.888C253.24 74.696 252.733 74.424 252.306 74.072L253.154 72.872C253.688 73.2027 254.146 73.4373 254.53 73.576C254.925 73.7147 255.325 73.784 255.73 73.784C256.21 73.784 256.6 73.6827 256.898 73.48C257.197 73.2773 257.346 73.016 257.346 72.696C257.346 72.4507 257.256 72.2587 257.074 72.12C256.904 71.9707 256.621 71.8587 256.226 71.784L254.818 71.544C254.04 71.3947 253.458 71.1387 253.074 70.776C252.69 70.4133 252.498 69.9333 252.498 69.336C252.498 68.8347 252.626 68.4027 252.882 68.04C253.149 67.6667 253.512 67.3787 253.97 67.176C254.44 66.9627 254.984 66.856 255.602 66.856C256.157 66.856 256.696 66.936 257.218 67.096C257.741 67.256 258.253 67.496 258.754 67.816L257.906 69.016C257.501 68.7493 257.096 68.5573 256.69 68.44C256.296 68.312 255.896 68.248 255.49 68.248C255.074 68.248 254.738 68.3333 254.482 68.504C254.237 68.664 254.114 68.888 254.114 69.176C254.114 69.432 254.194 69.6293 254.354 69.768C254.525 69.896 254.818 69.992 255.234 70.056L256.658 70.328C257.458 70.4667 258.05 70.7227 258.434 71.096C258.829 71.4587 259.026 71.944 259.026 72.552C259.026 73.0427 258.882 73.4853 258.594 73.88C258.306 74.2747 257.917 74.5893 257.426 74.824C256.936 75.048 256.376 75.16 255.746 75.16ZM263.982 75.16C263.172 75.16 262.558 74.9733 262.142 74.6C261.726 74.216 261.518 73.656 261.518 72.92V68.424H259.918V66.984H261.518V64.776L263.326 64.392V66.984H265.55V68.424H263.326V72.52C263.326 72.9147 263.412 73.1973 263.582 73.368C263.753 73.528 264.041 73.608 264.446 73.608C264.628 73.608 264.793 73.5973 264.942 73.576C265.102 73.544 265.3 73.4907 265.534 73.416V74.936C265.31 75.0107 265.054 75.064 264.766 75.096C264.489 75.1387 264.228 75.16 263.982 75.16ZM270.754 75.16C269.986 75.16 269.293 74.9787 268.674 74.616C268.056 74.2427 267.565 73.7467 267.202 73.128C266.84 72.4987 266.658 71.7893 266.658 71C266.658 70.2107 266.829 69.5067 267.17 68.888C267.512 68.2693 267.976 67.7787 268.562 67.416C269.16 67.0427 269.821 66.856 270.546 66.856C271.293 66.856 271.949 67.0373 272.514 67.4C273.09 67.7627 273.538 68.2533 273.858 68.872C274.189 69.4907 274.354 70.2 274.354 71V71.432H268.434C268.498 71.8693 268.637 72.2587 268.85 72.6C269.074 72.9307 269.357 73.192 269.698 73.384C270.05 73.576 270.429 73.672 270.834 73.672C271.208 73.672 271.56 73.608 271.89 73.48C272.232 73.3413 272.514 73.1547 272.738 72.92L273.922 73.992C273.432 74.3973 272.93 74.696 272.418 74.888C271.917 75.0693 271.362 75.16 270.754 75.16ZM268.45 70.312H272.642C272.578 69.928 272.445 69.5867 272.242 69.288C272.05 68.9893 271.805 68.7547 271.506 68.584C271.218 68.4133 270.898 68.328 270.546 68.328C270.194 68.328 269.869 68.4133 269.57 68.584C269.282 68.744 269.042 68.9733 268.85 69.272C268.658 69.5707 268.525 69.9173 268.45 70.312ZM276.198 78.344V66.984H277.974V68.12C278.262 67.736 278.619 67.4427 279.046 67.24C279.483 67.0267 279.958 66.92 280.47 66.92C281.153 66.92 281.766 67.1013 282.31 67.464C282.854 67.8267 283.286 68.3173 283.606 68.936C283.926 69.5547 284.086 70.2427 284.086 71C284.086 71.7573 283.921 72.4453 283.59 73.064C283.259 73.6827 282.811 74.1733 282.246 74.536C281.681 74.8987 281.051 75.08 280.358 75.08C279.878 75.08 279.435 74.9947 279.03 74.824C278.635 74.6427 278.294 74.3867 278.006 74.056V78.344H276.198ZM279.926 73.576C280.385 73.576 280.79 73.464 281.142 73.24C281.505 73.016 281.787 72.712 281.99 72.328C282.203 71.9333 282.31 71.4907 282.31 71C282.31 70.5093 282.203 70.072 281.99 69.688C281.787 69.304 281.505 69 281.142 68.776C280.79 68.552 280.385 68.44 279.926 68.44C279.531 68.44 279.169 68.52 278.838 68.68C278.507 68.8293 278.23 69.048 278.006 69.336V72.68C278.241 72.9573 278.523 73.176 278.854 73.336C279.185 73.496 279.542 73.576 279.926 73.576Z" fill="#151515"/>
<circle cx="377" cy="37" r="11" fill="white" stroke="#C7C7C7" stroke-width="2"/>
<path d="M369.32 75V64.888H365.448V63.8H374.424V64.888H370.552V75H369.32ZM376.075 75V63.448L377.243 63.208V68.456C377.542 67.9867 377.899 67.64 378.315 67.416C378.731 67.1813 379.2 67.064 379.723 67.064C380.288 67.064 380.779 67.1867 381.195 67.432C381.622 67.6667 381.952 68.0027 382.187 68.44C382.432 68.8667 382.555 69.368 382.555 69.944V75H381.387V70.28C381.387 69.5867 381.195 69.0427 380.811 68.648C380.438 68.2427 379.931 68.04 379.291 68.04C378.864 68.04 378.475 68.1413 378.123 68.344C377.771 68.5467 377.478 68.8453 377.243 69.24V75H376.075ZM384.887 75V67.192H386.055V75H384.887ZM385.479 65.256C385.244 65.256 385.042 65.176 384.871 65.016C384.711 64.8453 384.631 64.648 384.631 64.424C384.631 64.2 384.711 64.008 384.871 63.848C385.042 63.6773 385.244 63.592 385.479 63.592C385.714 63.592 385.911 63.6773 386.071 63.848C386.242 64.008 386.327 64.2 386.327 64.424C386.327 64.648 386.242 64.8453 386.071 65.016C385.911 65.176 385.714 65.256 385.479 65.256ZM388.45 75V67.192H389.618V68.792C389.821 68.248 390.109 67.8267 390.482 67.528C390.866 67.2187 391.303 67.064 391.794 67.064C391.933 67.064 392.061 67.0747 392.178 67.096C392.295 67.1067 392.413 67.1333 392.53 67.176V68.232C392.402 68.1893 392.263 68.1573 392.114 68.136C391.975 68.104 391.842 68.088 391.714 68.088C391.234 68.088 390.813 68.2267 390.45 68.504C390.098 68.7813 389.821 69.1707 389.618 69.672V75H388.45ZM396.839 75.112C396.167 75.112 395.559 74.936 395.015 74.584C394.471 74.2213 394.039 73.7413 393.719 73.144C393.399 72.536 393.239 71.8587 393.239 71.112C393.239 70.3547 393.399 69.6773 393.719 69.08C394.049 68.472 394.492 67.992 395.047 67.64C395.601 67.2773 396.22 67.096 396.903 67.096C397.383 67.096 397.831 67.192 398.247 67.384C398.663 67.5653 399.025 67.832 399.335 68.184V63.448L400.503 63.208V75H399.335V73.96C399.036 74.3333 398.673 74.6213 398.247 74.824C397.82 75.016 397.351 75.112 396.839 75.112ZM397.127 74.088C397.585 74.088 398.007 73.9973 398.391 73.816C398.775 73.6347 399.089 73.3787 399.335 73.048V69.176C399.079 68.8453 398.753 68.5893 398.359 68.408C397.975 68.216 397.564 68.12 397.127 68.12C396.604 68.12 396.135 68.248 395.719 68.504C395.313 68.76 394.988 69.112 394.743 69.56C394.508 70.008 394.391 70.52 394.391 71.096C394.391 71.6613 394.508 72.1733 394.743 72.632C394.988 73.08 395.313 73.4373 395.719 73.704C396.135 73.96 396.604 74.088 397.127 74.088ZM409.054 75.16C408.414 75.16 407.822 75.064 407.278 74.872C406.734 74.6693 406.27 74.3813 405.886 74.008L406.51 73.24C406.979 73.5813 407.411 73.832 407.806 73.992C408.2 74.1413 408.606 74.216 409.022 74.216C409.587 74.216 410.056 74.0827 410.43 73.816C410.803 73.5493 410.99 73.208 410.99 72.792C410.99 72.472 410.878 72.2213 410.654 72.04C410.44 71.8587 410.083 71.72 409.582 71.624L408.302 71.4C407.544 71.2613 406.984 71.0267 406.622 70.696C406.27 70.3653 406.094 69.9173 406.094 69.352C406.094 68.904 406.211 68.5093 406.446 68.168C406.691 67.8267 407.027 67.56 407.454 67.368C407.88 67.1653 408.366 67.064 408.91 67.064C409.443 67.064 409.95 67.144 410.43 67.304C410.91 67.4533 411.395 67.6987 411.886 68.04L411.31 68.856C410.904 68.568 410.499 68.36 410.094 68.232C409.688 68.0933 409.278 68.024 408.862 68.024C408.35 68.024 407.939 68.136 407.63 68.36C407.32 68.584 407.166 68.888 407.166 69.272C407.166 69.592 407.262 69.8373 407.454 70.008C407.656 70.1787 408.008 70.3067 408.51 70.392L409.822 70.632C410.611 70.7707 411.187 71.0107 411.55 71.352C411.912 71.6933 412.094 72.152 412.094 72.728C412.094 73.1867 411.96 73.6027 411.694 73.976C411.427 74.3387 411.064 74.6267 410.606 74.84C410.147 75.0533 409.63 75.16 409.054 75.16ZM416.692 75.16C416.02 75.16 415.508 75 415.156 74.68C414.814 74.3493 414.644 73.8747 414.644 73.256V68.152H413.028V67.192H414.644V65.048L415.812 64.776V67.192H418.052V68.152H415.812V72.952C415.812 73.368 415.897 73.6667 416.068 73.848C416.249 74.0293 416.542 74.12 416.948 74.12C417.15 74.12 417.332 74.104 417.492 74.072C417.652 74.04 417.838 73.9867 418.052 73.912V74.952C417.838 75.0267 417.614 75.08 417.38 75.112C417.145 75.144 416.916 75.16 416.692 75.16ZM423.126 75.16C422.401 75.16 421.745 74.984 421.158 74.632C420.572 74.2693 420.108 73.784 419.766 73.176C419.425 72.5573 419.254 71.864 419.254 71.096C419.254 70.328 419.414 69.64 419.734 69.032C420.065 68.424 420.508 67.944 421.062 67.592C421.617 67.24 422.236 67.064 422.918 67.064C423.612 67.064 424.225 67.24 424.758 67.592C425.302 67.9333 425.729 68.4027 426.038 69C426.358 69.5867 426.518 70.2533 426.518 71V71.352H420.39C420.433 71.8853 420.577 72.3653 420.822 72.792C421.078 73.208 421.409 73.5387 421.814 73.784C422.23 74.0187 422.684 74.136 423.174 74.136C423.58 74.136 423.969 74.0667 424.342 73.928C424.726 73.7787 425.052 73.5813 425.318 73.336L426.054 74.12C425.606 74.472 425.142 74.7333 424.662 74.904C424.182 75.0747 423.67 75.16 423.126 75.16ZM420.422 70.52H425.366C425.313 70.0507 425.169 69.6347 424.934 69.272C424.71 68.8987 424.422 68.6053 424.07 68.392C423.729 68.1787 423.345 68.072 422.918 68.072C422.492 68.072 422.102 68.1787 421.75 68.392C421.398 68.5947 421.105 68.8827 420.87 69.256C420.646 69.6187 420.497 70.04 420.422 70.52ZM428.513 78.344V67.192H429.664V68.312C429.963 67.9173 430.326 67.6187 430.753 67.416C431.19 67.2027 431.67 67.096 432.193 67.096C432.875 67.096 433.483 67.2773 434.017 67.64C434.561 67.992 434.993 68.472 435.312 69.08C435.633 69.6773 435.793 70.3493 435.793 71.096C435.793 71.8427 435.627 72.52 435.297 73.128C434.977 73.736 434.539 74.2213 433.985 74.584C433.441 74.936 432.822 75.112 432.129 75.112C431.638 75.112 431.185 75.0213 430.769 74.84C430.353 74.648 429.99 74.376 429.681 74.024V78.344H428.513ZM431.905 74.104C432.427 74.104 432.891 73.976 433.297 73.72C433.713 73.4533 434.038 73.096 434.273 72.648C434.518 72.1893 434.641 71.6773 434.641 71.112C434.641 70.536 434.518 70.024 434.273 69.576C434.038 69.128 433.713 68.776 433.297 68.52C432.891 68.2533 432.427 68.12 431.905 68.12C431.446 68.12 431.019 68.216 430.625 68.408C430.241 68.5893 429.926 68.8507 429.681 69.192V73.016C429.937 73.3573 430.257 73.624 430.641 73.816C431.035 74.008 431.457 74.104 431.905 74.104Z" fill="#4D4D4D"/>
<g filter="url(#filter0_d_1674_101104)">
<path d="M78.8253 87L89.6506 102H68L78.8253 87Z" fill="white"/>
<path d="M52 118C52 109.163 59.1634 102 68 102H334C342.837 102 350 109.163 350 118V168C350 176.837 342.837 184 334 184H68C59.1634 184 52 176.837 52 168V118Z" fill="white"/>
<path d="M69.176 133V123.2H76.218V124.628H70.856V127.428H74.552V128.828H70.856V133H69.176ZM77.634 133V125.986H79.216V133H77.634ZM78.432 124.558C78.1613 124.558 77.928 124.465 77.732 124.278C77.5453 124.082 77.452 123.853 77.452 123.592C77.452 123.321 77.5453 123.093 77.732 122.906C77.928 122.71 78.1613 122.612 78.432 122.612C78.7026 122.612 78.9313 122.71 79.118 122.906C79.314 123.093 79.412 123.317 79.412 123.578C79.412 123.849 79.314 124.082 79.118 124.278C78.9313 124.465 78.7026 124.558 78.432 124.558ZM81.1753 133V125.986H82.7573V127.498C82.9626 126.966 83.2286 126.56 83.5553 126.28C83.882 126 84.26 125.86 84.6893 125.86C84.82 125.869 84.9366 125.883 85.0393 125.902C85.142 125.911 85.254 125.944 85.3753 126V127.386C85.254 127.33 85.114 127.288 84.9553 127.26C84.806 127.232 84.6566 127.218 84.5073 127.218C84.1246 127.218 83.7793 127.321 83.4713 127.526C83.1726 127.731 82.9346 128.016 82.7573 128.38V133H81.1753ZM89.0788 133.14C88.4814 133.14 87.9214 133.061 87.3988 132.902C86.8854 132.734 86.4421 132.496 86.0688 132.188L86.8108 131.138C87.2774 131.427 87.6788 131.633 88.0148 131.754C88.3601 131.875 88.7101 131.936 89.0648 131.936C89.4848 131.936 89.8254 131.847 90.0868 131.67C90.3481 131.493 90.4788 131.264 90.4788 130.984C90.4788 130.769 90.3994 130.601 90.2408 130.48C90.0914 130.349 89.8441 130.251 89.4988 130.186L88.2668 129.976C87.5854 129.845 87.0768 129.621 86.7408 129.304C86.4048 128.987 86.2368 128.567 86.2368 128.044C86.2368 127.605 86.3488 127.227 86.5728 126.91C86.8061 126.583 87.1234 126.331 87.5248 126.154C87.9354 125.967 88.4114 125.874 88.9528 125.874C89.4381 125.874 89.9094 125.944 90.3668 126.084C90.8241 126.224 91.2721 126.434 91.7108 126.714L90.9688 127.764C90.6141 127.531 90.2594 127.363 89.9048 127.26C89.5594 127.148 89.2094 127.092 88.8548 127.092C88.4908 127.092 88.1968 127.167 87.9728 127.316C87.7581 127.456 87.6508 127.652 87.6508 127.904C87.6508 128.128 87.7208 128.301 87.8608 128.422C88.0101 128.534 88.2668 128.618 88.6308 128.674L89.8768 128.912C90.5768 129.033 91.0948 129.257 91.4308 129.584C91.7761 129.901 91.9488 130.326 91.9488 130.858C91.9488 131.287 91.8228 131.675 91.5708 132.02C91.3188 132.365 90.9781 132.641 90.5488 132.846C90.1194 133.042 89.6294 133.14 89.0788 133.14ZM96.2853 133.14C95.5759 133.14 95.0393 132.977 94.6753 132.65C94.3113 132.314 94.1292 131.824 94.1292 131.18V127.246H92.7293V125.986H94.1292V124.054L95.7113 123.718V125.986H97.6573V127.246H95.7113V130.83C95.7113 131.175 95.7859 131.423 95.9353 131.572C96.0846 131.712 96.3366 131.782 96.6913 131.782C96.8499 131.782 96.9946 131.773 97.1253 131.754C97.2653 131.726 97.4379 131.679 97.6433 131.614V132.944C97.4473 133.009 97.2233 133.056 96.9713 133.084C96.7286 133.121 96.4999 133.14 96.2853 133.14ZM104.583 133.14C103.985 133.14 103.425 133.061 102.903 132.902C102.389 132.734 101.946 132.496 101.573 132.188L102.315 131.138C102.781 131.427 103.183 131.633 103.519 131.754C103.864 131.875 104.214 131.936 104.569 131.936C104.989 131.936 105.329 131.847 105.591 131.67C105.852 131.493 105.983 131.264 105.983 130.984C105.983 130.769 105.903 130.601 105.745 130.48C105.595 130.349 105.348 130.251 105.003 130.186L103.771 129.976C103.089 129.845 102.581 129.621 102.245 129.304C101.909 128.987 101.741 128.567 101.741 128.044C101.741 127.605 101.853 127.227 102.077 126.91C102.31 126.583 102.627 126.331 103.029 126.154C103.439 125.967 103.915 125.874 104.457 125.874C104.942 125.874 105.413 125.944 105.871 126.084C106.328 126.224 106.776 126.434 107.215 126.714L106.473 127.764C106.118 127.531 105.763 127.363 105.409 127.26C105.063 127.148 104.713 127.092 104.359 127.092C103.995 127.092 103.701 127.167 103.477 127.316C103.262 127.456 103.155 127.652 103.155 127.904C103.155 128.128 103.225 128.301 103.365 128.422C103.514 128.534 103.771 128.618 104.135 128.674L105.381 128.912C106.081 129.033 106.599 129.257 106.935 129.584C107.28 129.901 107.453 130.326 107.453 130.858C107.453 131.287 107.327 131.675 107.075 132.02C106.823 132.365 106.482 132.641 106.053 132.846C105.623 133.042 105.133 133.14 104.583 133.14ZM111.789 133.14C111.08 133.14 110.543 132.977 110.179 132.65C109.815 132.314 109.633 131.824 109.633 131.18V127.246H108.233V125.986H109.633V124.054L111.215 123.718V125.986H113.161V127.246H111.215V130.83C111.215 131.175 111.29 131.423 111.439 131.572C111.588 131.712 111.84 131.782 112.195 131.782C112.354 131.782 112.498 131.773 112.629 131.754C112.769 131.726 112.942 131.679 113.147 131.614V132.944C112.951 133.009 112.727 133.056 112.475 133.084C112.232 133.121 112.004 133.14 111.789 133.14ZM117.715 133.14C117.043 133.14 116.436 132.981 115.895 132.664C115.353 132.337 114.924 131.903 114.607 131.362C114.289 130.811 114.131 130.191 114.131 129.5C114.131 128.809 114.28 128.193 114.579 127.652C114.877 127.111 115.283 126.681 115.797 126.364C116.319 126.037 116.898 125.874 117.533 125.874C118.186 125.874 118.76 126.033 119.255 126.35C119.759 126.667 120.151 127.097 120.431 127.638C120.72 128.179 120.865 128.8 120.865 129.5V129.878H115.685C115.741 130.261 115.862 130.601 116.049 130.9C116.245 131.189 116.492 131.418 116.791 131.586C117.099 131.754 117.43 131.838 117.785 131.838C118.111 131.838 118.419 131.782 118.709 131.67C119.007 131.549 119.255 131.385 119.451 131.18L120.487 132.118C120.057 132.473 119.619 132.734 119.171 132.902C118.732 133.061 118.247 133.14 117.715 133.14ZM115.699 128.898H119.367C119.311 128.562 119.194 128.263 119.017 128.002C118.849 127.741 118.634 127.535 118.373 127.386C118.121 127.237 117.841 127.162 117.533 127.162C117.225 127.162 116.94 127.237 116.679 127.386C116.427 127.526 116.217 127.727 116.049 127.988C115.881 128.249 115.764 128.553 115.699 128.898ZM122.478 135.926V125.986H124.032V126.98C124.284 126.644 124.597 126.387 124.97 126.21C125.353 126.023 125.768 125.93 126.216 125.93C126.813 125.93 127.35 126.089 127.826 126.406C128.302 126.723 128.68 127.153 128.96 127.694C129.24 128.235 129.38 128.837 129.38 129.5C129.38 130.163 129.235 130.765 128.946 131.306C128.657 131.847 128.265 132.277 127.77 132.594C127.275 132.911 126.725 133.07 126.118 133.07C125.698 133.07 125.311 132.995 124.956 132.846C124.611 132.687 124.312 132.463 124.06 132.174V135.926H122.478ZM125.74 131.754C126.141 131.754 126.496 131.656 126.804 131.46C127.121 131.264 127.369 130.998 127.546 130.662C127.733 130.317 127.826 129.929 127.826 129.5C127.826 129.071 127.733 128.688 127.546 128.352C127.369 128.016 127.121 127.75 126.804 127.554C126.496 127.358 126.141 127.26 125.74 127.26C125.395 127.26 125.077 127.33 124.788 127.47C124.499 127.601 124.256 127.792 124.06 128.044V130.97C124.265 131.213 124.513 131.404 124.802 131.544C125.091 131.684 125.404 131.754 125.74 131.754ZM134.181 135.926V125.986H135.735V126.98C135.987 126.644 136.3 126.387 136.673 126.21C137.056 126.023 137.471 125.93 137.919 125.93C138.517 125.93 139.053 126.089 139.529 126.406C140.005 126.723 140.383 127.153 140.663 127.694C140.943 128.235 141.083 128.837 141.083 129.5C141.083 130.163 140.939 130.765 140.649 131.306C140.36 131.847 139.968 132.277 139.473 132.594C138.979 132.911 138.428 133.07 137.821 133.07C137.401 133.07 137.014 132.995 136.659 132.846C136.314 132.687 136.015 132.463 135.763 132.174V135.926H134.181ZM137.443 131.754C137.845 131.754 138.199 131.656 138.507 131.46C138.825 131.264 139.072 130.998 139.249 130.662C139.436 130.317 139.529 129.929 139.529 129.5C139.529 129.071 139.436 128.688 139.249 128.352C139.072 128.016 138.825 127.75 138.507 127.554C138.199 127.358 137.845 127.26 137.443 127.26C137.098 127.26 136.781 127.33 136.491 127.47C136.202 127.601 135.959 127.792 135.763 128.044V130.97C135.969 131.213 136.216 131.404 136.505 131.544C136.795 131.684 137.107 131.754 137.443 131.754ZM145.946 133.126C145.283 133.126 144.681 132.967 144.14 132.65C143.608 132.333 143.188 131.903 142.88 131.362C142.572 130.811 142.418 130.191 142.418 129.5C142.418 128.809 142.572 128.193 142.88 127.652C143.188 127.101 143.608 126.667 144.14 126.35C144.672 126.033 145.274 125.874 145.946 125.874C146.618 125.874 147.215 126.033 147.738 126.35C148.27 126.667 148.69 127.101 148.998 127.652C149.306 128.193 149.46 128.809 149.46 129.5C149.46 130.191 149.306 130.811 148.998 131.362C148.69 131.903 148.27 132.333 147.738 132.65C147.215 132.967 146.618 133.126 145.946 133.126ZM145.946 131.782C146.328 131.782 146.664 131.684 146.954 131.488C147.252 131.292 147.486 131.021 147.654 130.676C147.822 130.321 147.906 129.929 147.906 129.5C147.906 129.061 147.822 128.674 147.654 128.338C147.486 127.993 147.252 127.722 146.954 127.526C146.664 127.321 146.328 127.218 145.946 127.218C145.563 127.218 145.222 127.321 144.924 127.526C144.625 127.722 144.392 127.993 144.224 128.338C144.056 128.674 143.972 129.061 143.972 129.5C143.972 129.939 144.056 130.331 144.224 130.676C144.392 131.021 144.625 131.292 144.924 131.488C145.222 131.684 145.563 131.782 145.946 131.782ZM151.093 135.926V125.986H152.647V126.98C152.899 126.644 153.212 126.387 153.585 126.21C153.968 126.023 154.383 125.93 154.831 125.93C155.429 125.93 155.965 126.089 156.441 126.406C156.917 126.723 157.295 127.153 157.575 127.694C157.855 128.235 157.995 128.837 157.995 129.5C157.995 130.163 157.851 130.765 157.561 131.306C157.272 131.847 156.88 132.277 156.385 132.594C155.891 132.911 155.34 133.07 154.733 133.07C154.313 133.07 153.926 132.995 153.571 132.846C153.226 132.687 152.927 132.463 152.675 132.174V135.926H151.093ZM154.355 131.754C154.757 131.754 155.111 131.656 155.419 131.46C155.737 131.264 155.984 130.998 156.161 130.662C156.348 130.317 156.441 129.929 156.441 129.5C156.441 129.071 156.348 128.688 156.161 128.352C155.984 128.016 155.737 127.75 155.419 127.554C155.111 127.358 154.757 127.26 154.355 127.26C154.01 127.26 153.693 127.33 153.403 127.47C153.114 127.601 152.871 127.792 152.675 128.044V130.97C152.881 131.213 153.128 131.404 153.417 131.544C153.707 131.684 154.019 131.754 154.355 131.754ZM162.858 133.126C162.195 133.126 161.593 132.967 161.052 132.65C160.52 132.333 160.1 131.903 159.792 131.362C159.484 130.811 159.33 130.191 159.33 129.5C159.33 128.809 159.484 128.193 159.792 127.652C160.1 127.101 160.52 126.667 161.052 126.35C161.584 126.033 162.186 125.874 162.858 125.874C163.53 125.874 164.127 126.033 164.65 126.35C165.182 126.667 165.602 127.101 165.91 127.652C166.218 128.193 166.372 128.809 166.372 129.5C166.372 130.191 166.218 130.811 165.91 131.362C165.602 131.903 165.182 132.333 164.65 132.65C164.127 132.967 163.53 133.126 162.858 133.126ZM162.858 131.782C163.241 131.782 163.577 131.684 163.866 131.488C164.165 131.292 164.398 131.021 164.566 130.676C164.734 130.321 164.818 129.929 164.818 129.5C164.818 129.061 164.734 128.674 164.566 128.338C164.398 127.993 164.165 127.722 163.866 127.526C163.577 127.321 163.241 127.218 162.858 127.218C162.475 127.218 162.135 127.321 161.836 127.526C161.537 127.722 161.304 127.993 161.136 128.338C160.968 128.674 160.884 129.061 160.884 129.5C160.884 129.939 160.968 130.331 161.136 130.676C161.304 131.021 161.537 131.292 161.836 131.488C162.135 131.684 162.475 131.782 162.858 131.782ZM169.83 133L166.974 125.986H168.696L170.656 131.082L172.602 125.986H174.254L171.37 133H169.83ZM178.445 133.14C177.773 133.14 177.166 132.981 176.625 132.664C176.084 132.337 175.654 131.903 175.337 131.362C175.02 130.811 174.861 130.191 174.861 129.5C174.861 128.809 175.01 128.193 175.309 127.652C175.608 127.111 176.014 126.681 176.527 126.364C177.05 126.037 177.628 125.874 178.263 125.874C178.916 125.874 179.49 126.033 179.985 126.35C180.489 126.667 180.881 127.097 181.161 127.638C181.45 128.179 181.595 128.8 181.595 129.5V129.878H176.415C176.471 130.261 176.592 130.601 176.779 130.9C176.975 131.189 177.222 131.418 177.521 131.586C177.829 131.754 178.16 131.838 178.515 131.838C178.842 131.838 179.15 131.782 179.439 131.67C179.738 131.549 179.985 131.385 180.181 131.18L181.217 132.118C180.788 132.473 180.349 132.734 179.901 132.902C179.462 133.061 178.977 133.14 178.445 133.14ZM176.429 128.898H180.097C180.041 128.562 179.924 128.263 179.747 128.002C179.579 127.741 179.364 127.535 179.103 127.386C178.851 127.237 178.571 127.162 178.263 127.162C177.955 127.162 177.67 127.237 177.409 127.386C177.157 127.526 176.947 127.727 176.779 127.988C176.611 128.249 176.494 128.553 176.429 128.898ZM183.209 133V125.986H184.791V127.498C184.996 126.966 185.262 126.56 185.589 126.28C185.915 126 186.293 125.86 186.723 125.86C186.853 125.869 186.97 125.883 187.073 125.902C187.175 125.911 187.287 125.944 187.409 126V127.386C187.287 127.33 187.147 127.288 186.989 127.26C186.839 127.232 186.69 127.218 186.541 127.218C186.158 127.218 185.813 127.321 185.505 127.526C185.206 127.731 184.968 128.016 184.791 128.38V133H183.209Z" fill="#151515"/>
<path d="M326.653 124.577C326.979 124.252 327.507 124.252 327.833 124.577L328.423 125.167C328.748 125.493 328.748 126.021 328.423 126.347L325.769 129L328.423 131.653C328.748 131.979 328.748 132.507 328.423 132.833L327.833 133.423C327.507 133.748 326.979 133.748 326.653 133.423L324 130.769L321.347 133.423C321.021 133.748 320.493 133.748 320.167 133.423L319.577 132.833C319.252 132.507 319.252 131.979 319.577 131.653L322.231 129L319.577 126.347C319.252 126.021 319.252 125.493 319.577 125.167L320.167 124.577C320.493 124.252 321.021 124.252 321.347 124.577L324 127.23L326.653 124.577Z" fill="#1F1F1F"/>
<path d="M68.126 162L72.004 152.2H73.292L77.114 162H75.952L74.79 158.92H70.422L69.26 162H68.126ZM70.758 158.066H74.468L72.606 153.18L70.758 158.066ZM80.8608 162.098C80.2728 162.098 79.7408 161.944 79.2648 161.636C78.7888 161.319 78.4108 160.899 78.1308 160.376C77.8508 159.844 77.7108 159.251 77.7108 158.598C77.7108 157.935 77.8508 157.343 78.1308 156.82C78.4201 156.288 78.8074 155.868 79.2928 155.56C79.7781 155.243 80.3194 155.084 80.9168 155.084C81.3368 155.084 81.7288 155.168 82.0928 155.336C82.4568 155.495 82.7741 155.728 83.0448 156.036V151.892L84.0668 151.682V162H83.0448V161.09C82.7834 161.417 82.4661 161.669 82.0928 161.846C81.7194 162.014 81.3088 162.098 80.8608 162.098ZM81.1128 161.202C81.5141 161.202 81.8828 161.123 82.2188 160.964C82.5548 160.805 82.8301 160.581 83.0448 160.292V156.904C82.8208 156.615 82.5361 156.391 82.1908 156.232C81.8548 156.064 81.4954 155.98 81.1128 155.98C80.6554 155.98 80.2448 156.092 79.8808 156.316C79.5261 156.54 79.2414 156.848 79.0267 157.24C78.8214 157.632 78.7188 158.08 78.7188 158.584C78.7188 159.079 78.8214 159.527 79.0267 159.928C79.2414 160.32 79.5261 160.633 79.8808 160.866C80.2448 161.09 80.6554 161.202 81.1128 161.202ZM89.0092 162.098C88.4212 162.098 87.8892 161.944 87.4132 161.636C86.9372 161.319 86.5592 160.899 86.2792 160.376C85.9992 159.844 85.8592 159.251 85.8592 158.598C85.8592 157.935 85.9992 157.343 86.2792 156.82C86.5685 156.288 86.9559 155.868 87.4412 155.56C87.9265 155.243 88.4679 155.084 89.0652 155.084C89.4852 155.084 89.8772 155.168 90.2412 155.336C90.6052 155.495 90.9225 155.728 91.1932 156.036V151.892L92.2152 151.682V162H91.1932V161.09C90.9319 161.417 90.6145 161.669 90.2412 161.846C89.8679 162.014 89.4572 162.098 89.0092 162.098ZM89.2612 161.202C89.6625 161.202 90.0312 161.123 90.3672 160.964C90.7032 160.805 90.9785 160.581 91.1932 160.292V156.904C90.9692 156.615 90.6845 156.391 90.3392 156.232C90.0032 156.064 89.6439 155.98 89.2612 155.98C88.8039 155.98 88.3932 156.092 88.0292 156.316C87.6745 156.54 87.3899 156.848 87.1752 157.24C86.9699 157.632 86.8672 158.08 86.8672 158.584C86.8672 159.079 86.9699 159.527 87.1752 159.928C87.3899 160.32 87.6745 160.633 88.0292 160.866C88.3932 161.09 88.8039 161.202 89.2612 161.202ZM94.3016 162V155.168H95.3236V162H94.3016ZM94.8196 153.474C94.6143 153.474 94.437 153.404 94.2876 153.264C94.1476 153.115 94.0776 152.942 94.0776 152.746C94.0776 152.55 94.1476 152.382 94.2876 152.242C94.437 152.093 94.6143 152.018 94.8196 152.018C95.025 152.018 95.1976 152.093 95.3376 152.242C95.487 152.382 95.5616 152.55 95.5616 152.746C95.5616 152.942 95.487 153.115 95.3376 153.264C95.1976 153.404 95.025 153.474 94.8196 153.474ZM100.023 162.14C99.4351 162.14 98.9871 162 98.6791 161.72C98.3805 161.431 98.2311 161.015 98.2311 160.474V156.008H96.8171V155.168H98.2311V153.292L99.2531 153.054V155.168H101.213V156.008H99.2531V160.208C99.2531 160.572 99.3278 160.833 99.4771 160.992C99.6358 161.151 99.8925 161.23 100.247 161.23C100.424 161.23 100.583 161.216 100.723 161.188C100.863 161.16 101.026 161.113 101.213 161.048V161.958C101.026 162.023 100.83 162.07 100.625 162.098C100.42 162.126 100.219 162.14 100.023 162.14ZM102.696 162V155.168H103.718V162H102.696ZM103.214 153.474C103.009 153.474 102.831 153.404 102.682 153.264C102.542 153.115 102.472 152.942 102.472 152.746C102.472 152.55 102.542 152.382 102.682 152.242C102.831 152.093 103.009 152.018 103.214 152.018C103.419 152.018 103.592 152.093 103.732 152.242C103.881 152.382 103.956 152.55 103.956 152.746C103.956 152.942 103.881 153.115 103.732 153.264C103.592 153.404 103.419 153.474 103.214 153.474ZM108.838 162.112C108.203 162.112 107.634 161.958 107.13 161.65C106.626 161.342 106.229 160.922 105.94 160.39C105.65 159.858 105.506 159.256 105.506 158.584C105.506 157.912 105.65 157.31 105.94 156.778C106.229 156.246 106.626 155.826 107.13 155.518C107.634 155.21 108.203 155.056 108.838 155.056C109.463 155.056 110.023 155.21 110.518 155.518C111.022 155.826 111.418 156.246 111.708 156.778C111.997 157.31 112.142 157.912 112.142 158.584C112.142 159.256 111.997 159.858 111.708 160.39C111.418 160.922 111.022 161.342 110.518 161.65C110.023 161.958 109.463 162.112 108.838 162.112ZM108.824 161.216C109.272 161.216 109.668 161.104 110.014 160.88C110.359 160.647 110.63 160.329 110.826 159.928C111.031 159.527 111.134 159.079 111.134 158.584C111.134 158.08 111.031 157.632 110.826 157.24C110.63 156.839 110.359 156.526 110.014 156.302C109.668 156.069 109.272 155.952 108.824 155.952C108.376 155.952 107.979 156.069 107.634 156.302C107.288 156.526 107.013 156.839 106.808 157.24C106.612 157.632 106.514 158.08 106.514 158.584C106.514 159.079 106.612 159.527 106.808 159.928C107.013 160.329 107.288 160.647 107.634 160.88C107.979 161.104 108.376 161.216 108.824 161.216ZM113.935 162V155.168H114.957V156.274C115.218 155.863 115.531 155.56 115.895 155.364C116.259 155.159 116.669 155.056 117.127 155.056C117.621 155.056 118.051 155.163 118.415 155.378C118.788 155.583 119.077 155.877 119.283 156.26C119.497 156.633 119.605 157.072 119.605 157.576V162H118.583V157.87C118.583 157.263 118.415 156.787 118.079 156.442C117.752 156.087 117.309 155.91 116.749 155.91C116.375 155.91 116.035 155.999 115.727 156.176C115.419 156.353 115.162 156.615 114.957 156.96V162H113.935ZM123.773 162.126C123.288 162.126 122.859 162.037 122.485 161.86C122.112 161.683 121.818 161.44 121.603 161.132C121.398 160.815 121.295 160.451 121.295 160.04C121.295 159.629 121.403 159.275 121.617 158.976C121.832 158.668 122.131 158.43 122.513 158.262C122.896 158.094 123.344 158.01 123.857 158.01C124.249 158.01 124.618 158.052 124.963 158.136C125.318 158.22 125.645 158.355 125.943 158.542V157.604C125.943 157.044 125.794 156.624 125.495 156.344C125.197 156.055 124.758 155.91 124.179 155.91C123.862 155.91 123.535 155.957 123.199 156.05C122.873 156.143 122.509 156.293 122.107 156.498L121.729 155.714C122.644 155.275 123.503 155.056 124.305 155.056C125.155 155.056 125.808 155.266 126.265 155.686C126.723 156.097 126.951 156.689 126.951 157.464V162H125.943V161.202C125.645 161.51 125.313 161.743 124.949 161.902C124.585 162.051 124.193 162.126 123.773 162.126ZM122.275 160.012C122.275 160.413 122.429 160.735 122.737 160.978C123.055 161.221 123.47 161.342 123.983 161.342C124.366 161.342 124.716 161.277 125.033 161.146C125.36 161.015 125.663 160.819 125.943 160.558V159.242C125.654 159.074 125.355 158.953 125.047 158.878C124.739 158.794 124.394 158.752 124.011 158.752C123.489 158.752 123.069 158.869 122.751 159.102C122.434 159.326 122.275 159.629 122.275 160.012ZM129.029 162V151.892L130.051 151.682V162H129.029ZM135.399 162V155.168H136.421V162H135.399ZM135.917 153.474C135.712 153.474 135.535 153.404 135.385 153.264C135.245 153.115 135.175 152.942 135.175 152.746C135.175 152.55 135.245 152.382 135.385 152.242C135.535 152.093 135.712 152.018 135.917 152.018C136.123 152.018 136.295 152.093 136.435 152.242C136.585 152.382 136.659 152.55 136.659 152.746C136.659 152.942 136.585 153.115 136.435 153.264C136.295 153.404 136.123 153.474 135.917 153.474ZM138.517 162V155.168H139.539V156.274C139.8 155.863 140.113 155.56 140.477 155.364C140.841 155.159 141.251 155.056 141.709 155.056C142.203 155.056 142.633 155.163 142.997 155.378C143.37 155.583 143.659 155.877 143.865 156.26C144.079 156.633 144.187 157.072 144.187 157.576V162H143.165V157.87C143.165 157.263 142.997 156.787 142.661 156.442C142.334 156.087 141.891 155.91 141.331 155.91C140.957 155.91 140.617 155.999 140.309 156.176C140.001 156.353 139.744 156.615 139.539 156.96V162H138.517ZM146.904 162V156.008H145.378V155.168H146.904V153.74C146.904 153.068 147.082 152.55 147.436 152.186C147.791 151.822 148.295 151.64 148.948 151.64C149.135 151.64 149.303 151.649 149.452 151.668C149.611 151.687 149.751 151.719 149.872 151.766V152.69C149.723 152.643 149.588 152.611 149.466 152.592C149.345 152.573 149.205 152.564 149.046 152.564C148.654 152.564 148.37 152.662 148.192 152.858C148.015 153.045 147.926 153.343 147.926 153.754V155.168H149.872V156.008H147.926V162H146.904ZM153.955 162.112C153.32 162.112 152.751 161.958 152.247 161.65C151.743 161.342 151.346 160.922 151.057 160.39C150.768 159.858 150.623 159.256 150.623 158.584C150.623 157.912 150.768 157.31 151.057 156.778C151.346 156.246 151.743 155.826 152.247 155.518C152.751 155.21 153.32 155.056 153.955 155.056C154.58 155.056 155.14 155.21 155.635 155.518C156.139 155.826 156.536 156.246 156.825 156.778C157.114 157.31 157.259 157.912 157.259 158.584C157.259 159.256 157.114 159.858 156.825 160.39C156.536 160.922 156.139 161.342 155.635 161.65C155.14 161.958 154.58 162.112 153.955 162.112ZM153.941 161.216C154.389 161.216 154.786 161.104 155.131 160.88C155.476 160.647 155.747 160.329 155.943 159.928C156.148 159.527 156.251 159.079 156.251 158.584C156.251 158.08 156.148 157.632 155.943 157.24C155.747 156.839 155.476 156.526 155.131 156.302C154.786 156.069 154.389 155.952 153.941 155.952C153.493 155.952 153.096 156.069 152.751 156.302C152.406 156.526 152.13 156.839 151.925 157.24C151.729 157.632 151.631 158.08 151.631 158.584C151.631 159.079 151.729 159.527 151.925 159.928C152.13 160.329 152.406 160.647 152.751 160.88C153.096 161.104 153.493 161.216 153.941 161.216ZM159.052 162V155.168H160.074V156.568C160.251 156.092 160.503 155.723 160.83 155.462C161.166 155.191 161.549 155.056 161.978 155.056C162.099 155.056 162.211 155.065 162.314 155.084C162.417 155.093 162.519 155.117 162.622 155.154V156.078C162.51 156.041 162.389 156.013 162.258 155.994C162.137 155.966 162.02 155.952 161.908 155.952C161.488 155.952 161.119 156.073 160.802 156.316C160.494 156.559 160.251 156.899 160.074 157.338V162H159.052ZM163.974 162V155.168H164.996V156.232C165.257 155.84 165.556 155.546 165.892 155.35C166.228 155.154 166.606 155.056 167.026 155.056C167.511 155.056 167.936 155.177 168.3 155.42C168.664 155.653 168.939 155.975 169.126 156.386C169.396 155.947 169.718 155.616 170.092 155.392C170.474 155.168 170.913 155.056 171.408 155.056C171.865 155.056 172.266 155.163 172.612 155.378C172.966 155.593 173.242 155.891 173.438 156.274C173.634 156.647 173.732 157.086 173.732 157.59V162H172.71V157.842C172.71 157.245 172.56 156.773 172.262 156.428C171.963 156.083 171.552 155.91 171.03 155.91C170.675 155.91 170.353 155.999 170.064 156.176C169.784 156.353 169.536 156.624 169.322 156.988C169.34 157.081 169.354 157.179 169.364 157.282C169.373 157.385 169.378 157.487 169.378 157.59V162H168.356V157.842C168.356 157.245 168.202 156.773 167.894 156.428C167.595 156.083 167.184 155.91 166.662 155.91C165.962 155.91 165.406 156.246 164.996 156.918V162H163.974ZM177.914 162.126C177.429 162.126 176.999 162.037 176.626 161.86C176.253 161.683 175.959 161.44 175.744 161.132C175.539 160.815 175.436 160.451 175.436 160.04C175.436 159.629 175.543 159.275 175.758 158.976C175.973 158.668 176.271 158.43 176.654 158.262C177.037 158.094 177.485 158.01 177.998 158.01C178.39 158.01 178.759 158.052 179.104 158.136C179.459 158.22 179.785 158.355 180.084 158.542V157.604C180.084 157.044 179.935 156.624 179.636 156.344C179.337 156.055 178.899 155.91 178.32 155.91C178.003 155.91 177.676 155.957 177.34 156.05C177.013 156.143 176.649 156.293 176.248 156.498L175.87 155.714C176.785 155.275 177.643 155.056 178.446 155.056C179.295 155.056 179.949 155.266 180.406 155.686C180.863 156.097 181.092 156.689 181.092 157.464V162H180.084V161.202C179.785 161.51 179.454 161.743 179.09 161.902C178.726 162.051 178.334 162.126 177.914 162.126ZM176.416 160.012C176.416 160.413 176.57 160.735 176.878 160.978C177.195 161.221 177.611 161.342 178.124 161.342C178.507 161.342 178.857 161.277 179.174 161.146C179.501 161.015 179.804 160.819 180.084 160.558V159.242C179.795 159.074 179.496 158.953 179.188 158.878C178.88 158.794 178.535 158.752 178.152 158.752C177.629 158.752 177.209 158.869 176.892 159.102C176.575 159.326 176.416 159.629 176.416 160.012ZM185.568 162.14C184.98 162.14 184.532 162 184.224 161.72C183.925 161.431 183.776 161.015 183.776 160.474V156.008H182.362V155.168H183.776V153.292L184.798 153.054V155.168H186.758V156.008H184.798V160.208C184.798 160.572 184.873 160.833 185.022 160.992C185.181 161.151 185.437 161.23 185.792 161.23C185.969 161.23 186.128 161.216 186.268 161.188C186.408 161.16 186.571 161.113 186.758 161.048V161.958C186.571 162.023 186.375 162.07 186.17 162.098C185.965 162.126 185.764 162.14 185.568 162.14ZM188.241 162V155.168H189.263V162H188.241ZM188.759 153.474C188.554 153.474 188.376 153.404 188.227 153.264C188.087 153.115 188.017 152.942 188.017 152.746C188.017 152.55 188.087 152.382 188.227 152.242C188.376 152.093 188.554 152.018 188.759 152.018C188.964 152.018 189.137 152.093 189.277 152.242C189.426 152.382 189.501 152.55 189.501 152.746C189.501 152.942 189.426 153.115 189.277 153.264C189.137 153.404 188.964 153.474 188.759 153.474ZM194.383 162.112C193.748 162.112 193.179 161.958 192.675 161.65C192.171 161.342 191.774 160.922 191.485 160.39C191.195 159.858 191.051 159.256 191.051 158.584C191.051 157.912 191.195 157.31 191.485 156.778C191.774 156.246 192.171 155.826 192.675 155.518C193.179 155.21 193.748 155.056 194.383 155.056C195.008 155.056 195.568 155.21 196.063 155.518C196.567 155.826 196.963 156.246 197.253 156.778C197.542 157.31 197.687 157.912 197.687 158.584C197.687 159.256 197.542 159.858 197.253 160.39C196.963 160.922 196.567 161.342 196.063 161.65C195.568 161.958 195.008 162.112 194.383 162.112ZM194.369 161.216C194.817 161.216 195.213 161.104 195.559 160.88C195.904 160.647 196.175 160.329 196.371 159.928C196.576 159.527 196.679 159.079 196.679 158.584C196.679 158.08 196.576 157.632 196.371 157.24C196.175 156.839 195.904 156.526 195.559 156.302C195.213 156.069 194.817 155.952 194.369 155.952C193.921 155.952 193.524 156.069 193.179 156.302C192.833 156.526 192.558 156.839 192.353 157.24C192.157 157.632 192.059 158.08 192.059 158.584C192.059 159.079 192.157 159.527 192.353 159.928C192.558 160.329 192.833 160.647 193.179 160.88C193.524 161.104 193.921 161.216 194.369 161.216ZM199.48 162V155.168H200.502V156.274C200.763 155.863 201.076 155.56 201.44 155.364C201.804 155.159 202.214 155.056 202.672 155.056C203.166 155.056 203.596 155.163 203.96 155.378C204.333 155.583 204.622 155.877 204.828 156.26C205.042 156.633 205.15 157.072 205.15 157.576V162H204.128V157.87C204.128 157.263 203.96 156.787 203.624 156.442C203.297 156.087 202.854 155.91 202.294 155.91C201.92 155.91 201.58 155.999 201.272 156.176C200.964 156.353 200.707 156.615 200.502 156.96V162H199.48ZM213.496 162.112C212.861 162.112 212.292 161.958 211.788 161.65C211.284 161.342 210.887 160.922 210.598 160.39C210.309 159.858 210.164 159.256 210.164 158.584C210.164 157.912 210.309 157.31 210.598 156.778C210.887 156.246 211.284 155.826 211.788 155.518C212.292 155.21 212.861 155.056 213.496 155.056C214.121 155.056 214.681 155.21 215.176 155.518C215.68 155.826 216.077 156.246 216.366 156.778C216.655 157.31 216.8 157.912 216.8 158.584C216.8 159.256 216.655 159.858 216.366 160.39C216.077 160.922 215.68 161.342 215.176 161.65C214.681 161.958 214.121 162.112 213.496 162.112ZM213.482 161.216C213.93 161.216 214.327 161.104 214.672 160.88C215.017 160.647 215.288 160.329 215.484 159.928C215.689 159.527 215.792 159.079 215.792 158.584C215.792 158.08 215.689 157.632 215.484 157.24C215.288 156.839 215.017 156.526 214.672 156.302C214.327 156.069 213.93 155.952 213.482 155.952C213.034 155.952 212.637 156.069 212.292 156.302C211.947 156.526 211.671 156.839 211.466 157.24C211.27 157.632 211.172 158.08 211.172 158.584C211.172 159.079 211.27 159.527 211.466 159.928C211.671 160.329 211.947 160.647 212.292 160.88C212.637 161.104 213.034 161.216 213.482 161.216ZM218.593 162V155.168H219.615V156.568C219.792 156.092 220.044 155.723 220.371 155.462C220.707 155.191 221.09 155.056 221.519 155.056C221.64 155.056 221.752 155.065 221.855 155.084C221.958 155.093 222.06 155.117 222.163 155.154V156.078C222.051 156.041 221.93 156.013 221.799 155.994C221.678 155.966 221.561 155.952 221.449 155.952C221.029 155.952 220.66 156.073 220.343 156.316C220.035 156.559 219.792 156.899 219.615 157.338V162H218.593ZM226.782 162V151.892L227.804 151.682V156.274C228.066 155.863 228.378 155.56 228.742 155.364C229.106 155.159 229.517 155.056 229.974 155.056C230.469 155.056 230.898 155.163 231.262 155.378C231.636 155.583 231.925 155.877 232.13 156.26C232.345 156.633 232.452 157.072 232.452 157.576V162H231.43V157.87C231.43 157.263 231.262 156.787 230.926 156.442C230.6 156.087 230.156 155.91 229.596 155.91C229.223 155.91 228.882 155.999 228.574 156.176C228.266 156.353 228.01 156.615 227.804 156.96V162H226.782ZM237.587 162.14C236.952 162.14 236.378 161.986 235.865 161.678C235.352 161.361 234.946 160.936 234.647 160.404C234.348 159.863 234.199 159.256 234.199 158.584C234.199 157.912 234.339 157.31 234.619 156.778C234.908 156.246 235.296 155.826 235.781 155.518C236.266 155.21 236.808 155.056 237.405 155.056C238.012 155.056 238.548 155.21 239.015 155.518C239.491 155.817 239.864 156.227 240.135 156.75C240.415 157.263 240.555 157.847 240.555 158.5V158.808H235.193C235.23 159.275 235.356 159.695 235.571 160.068C235.795 160.432 236.084 160.721 236.439 160.936C236.803 161.141 237.2 161.244 237.629 161.244C237.984 161.244 238.324 161.183 238.651 161.062C238.987 160.931 239.272 160.759 239.505 160.544L240.149 161.23C239.757 161.538 239.351 161.767 238.931 161.916C238.511 162.065 238.063 162.14 237.587 162.14ZM235.221 158.08H239.547C239.5 157.669 239.374 157.305 239.169 156.988C238.973 156.661 238.721 156.405 238.413 156.218C238.114 156.031 237.778 155.938 237.405 155.938C237.032 155.938 236.691 156.031 236.383 156.218C236.075 156.395 235.818 156.647 235.613 156.974C235.417 157.291 235.286 157.66 235.221 158.08ZM242.3 162V151.892L243.322 151.682V162H242.3ZM245.417 164.926V155.168H246.425V156.148C246.687 155.803 247.004 155.541 247.377 155.364C247.76 155.177 248.18 155.084 248.637 155.084C249.235 155.084 249.767 155.243 250.233 155.56C250.709 155.868 251.087 156.288 251.367 156.82C251.647 157.343 251.787 157.931 251.787 158.584C251.787 159.237 251.643 159.83 251.353 160.362C251.073 160.894 250.691 161.319 250.205 161.636C249.729 161.944 249.188 162.098 248.581 162.098C248.152 162.098 247.755 162.019 247.391 161.86C247.027 161.692 246.71 161.454 246.439 161.146V164.926H245.417ZM248.385 161.216C248.843 161.216 249.249 161.104 249.603 160.88C249.967 160.647 250.252 160.334 250.457 159.942C250.672 159.541 250.779 159.093 250.779 158.598C250.779 158.094 250.672 157.646 250.457 157.254C250.252 156.862 249.967 156.554 249.603 156.33C249.249 156.097 248.843 155.98 248.385 155.98C247.984 155.98 247.611 156.064 247.265 156.232C246.929 156.391 246.654 156.619 246.439 156.918V160.264C246.663 160.563 246.943 160.796 247.279 160.964C247.625 161.132 247.993 161.216 248.385 161.216ZM259.451 162.14C258.863 162.14 258.415 162 258.107 161.72C257.808 161.431 257.659 161.015 257.659 160.474V156.008H256.245V155.168H257.659V153.292L258.681 153.054V155.168H260.641V156.008H258.681V160.208C258.681 160.572 258.756 160.833 258.905 160.992C259.064 161.151 259.32 161.23 259.675 161.23C259.852 161.23 260.011 161.216 260.151 161.188C260.291 161.16 260.454 161.113 260.641 161.048V161.958C260.454 162.023 260.258 162.07 260.053 162.098C259.848 162.126 259.647 162.14 259.451 162.14ZM265.081 162.14C264.447 162.14 263.873 161.986 263.359 161.678C262.846 161.361 262.44 160.936 262.141 160.404C261.843 159.863 261.693 159.256 261.693 158.584C261.693 157.912 261.833 157.31 262.113 156.778C262.403 156.246 262.79 155.826 263.275 155.518C263.761 155.21 264.302 155.056 264.899 155.056C265.506 155.056 266.043 155.21 266.509 155.518C266.985 155.817 267.359 156.227 267.629 156.75C267.909 157.263 268.049 157.847 268.049 158.5V158.808H262.687C262.725 159.275 262.851 159.695 263.065 160.068C263.289 160.432 263.579 160.721 263.933 160.936C264.297 161.141 264.694 161.244 265.123 161.244C265.478 161.244 265.819 161.183 266.145 161.062C266.481 160.931 266.766 160.759 266.999 160.544L267.643 161.23C267.251 161.538 266.845 161.767 266.425 161.916C266.005 162.065 265.557 162.14 265.081 162.14ZM262.715 158.08H267.041C266.995 157.669 266.869 157.305 266.663 156.988C266.467 156.661 266.215 156.405 265.907 156.218C265.609 156.031 265.273 155.938 264.899 155.938C264.526 155.938 264.185 156.031 263.877 156.218C263.569 156.395 263.313 156.647 263.107 156.974C262.911 157.291 262.781 157.66 262.715 158.08ZM268.502 162L271.12 158.458L268.656 155.168H269.874L271.764 157.772L273.64 155.168H274.802L272.324 158.486L274.956 162H273.738L271.694 159.214L269.664 162H268.502ZM278.66 162.14C278.072 162.14 277.624 162 277.316 161.72C277.017 161.431 276.868 161.015 276.868 160.474V156.008H275.454V155.168H276.868V153.292L277.89 153.054V155.168H279.85V156.008H277.89V160.208C277.89 160.572 277.965 160.833 278.114 160.992C278.273 161.151 278.529 161.23 278.884 161.23C279.061 161.23 279.22 161.216 279.36 161.188C279.5 161.16 279.663 161.113 279.85 161.048V161.958C279.663 162.023 279.467 162.07 279.262 162.098C279.057 162.126 278.856 162.14 278.66 162.14ZM287.68 162.112C287.046 162.112 286.472 161.958 285.958 161.65C285.454 161.333 285.053 160.908 284.754 160.376C284.456 159.835 284.306 159.237 284.306 158.584C284.306 157.921 284.456 157.324 284.754 156.792C285.053 156.26 285.454 155.84 285.958 155.532C286.472 155.215 287.046 155.056 287.68 155.056C288.184 155.056 288.665 155.149 289.122 155.336C289.58 155.523 289.976 155.784 290.312 156.12L289.654 156.834C289.412 156.563 289.118 156.353 288.772 156.204C288.427 156.055 288.077 155.98 287.722 155.98C287.274 155.98 286.868 156.097 286.504 156.33C286.15 156.563 285.865 156.876 285.65 157.268C285.436 157.66 285.328 158.099 285.328 158.584C285.328 159.069 285.436 159.508 285.65 159.9C285.865 160.292 286.15 160.605 286.504 160.838C286.868 161.071 287.274 161.188 287.722 161.188C288.077 161.188 288.427 161.113 288.772 160.964C289.118 160.805 289.412 160.595 289.654 160.334L290.312 161.048C289.976 161.384 289.58 161.645 289.122 161.832C288.665 162.019 288.184 162.112 287.68 162.112ZM294.556 162.112C293.922 162.112 293.352 161.958 292.848 161.65C292.344 161.342 291.948 160.922 291.658 160.39C291.369 159.858 291.224 159.256 291.224 158.584C291.224 157.912 291.369 157.31 291.658 156.778C291.948 156.246 292.344 155.826 292.848 155.518C293.352 155.21 293.922 155.056 294.556 155.056C295.182 155.056 295.742 155.21 296.236 155.518C296.74 155.826 297.137 156.246 297.426 156.778C297.716 157.31 297.86 157.912 297.86 158.584C297.86 159.256 297.716 159.858 297.426 160.39C297.137 160.922 296.74 161.342 296.236 161.65C295.742 161.958 295.182 162.112 294.556 162.112ZM294.542 161.216C294.99 161.216 295.387 161.104 295.732 160.88C296.078 160.647 296.348 160.329 296.544 159.928C296.75 159.527 296.852 159.079 296.852 158.584C296.852 158.08 296.75 157.632 296.544 157.24C296.348 156.839 296.078 156.526 295.732 156.302C295.387 156.069 294.99 155.952 294.542 155.952C294.094 155.952 293.698 156.069 293.352 156.302C293.007 156.526 292.732 156.839 292.526 157.24C292.33 157.632 292.232 158.08 292.232 158.584C292.232 159.079 292.33 159.527 292.526 159.928C292.732 160.329 293.007 160.647 293.352 160.88C293.698 161.104 294.094 161.216 294.542 161.216ZM299.654 162V155.168H300.676V156.274C300.937 155.863 301.25 155.56 301.614 155.364C301.978 155.159 302.388 155.056 302.846 155.056C303.34 155.056 303.77 155.163 304.134 155.378C304.507 155.583 304.796 155.877 305.002 156.26C305.216 156.633 305.324 157.072 305.324 157.576V162H304.302V157.87C304.302 157.263 304.134 156.787 303.798 156.442C303.471 156.087 303.028 155.91 302.468 155.91C302.094 155.91 301.754 155.999 301.446 156.176C301.138 156.353 300.881 156.615 300.676 156.96V162H299.654ZM309.777 162.14C309.189 162.14 308.741 162 308.433 161.72C308.134 161.431 307.985 161.015 307.985 160.474V156.008H306.571V155.168H307.985V153.292L309.007 153.054V155.168H310.967V156.008H309.007V160.208C309.007 160.572 309.082 160.833 309.231 160.992C309.39 161.151 309.646 161.23 310.001 161.23C310.178 161.23 310.337 161.216 310.477 161.188C310.617 161.16 310.78 161.113 310.967 161.048V161.958C310.78 162.023 310.584 162.07 310.379 162.098C310.174 162.126 309.973 162.14 309.777 162.14ZM315.407 162.14C314.773 162.14 314.199 161.986 313.685 161.678C313.172 161.361 312.766 160.936 312.467 160.404C312.169 159.863 312.019 159.256 312.019 158.584C312.019 157.912 312.159 157.31 312.439 156.778C312.729 156.246 313.116 155.826 313.601 155.518C314.087 155.21 314.628 155.056 315.225 155.056C315.832 155.056 316.369 155.21 316.835 155.518C317.311 155.817 317.685 156.227 317.955 156.75C318.235 157.263 318.375 157.847 318.375 158.5V158.808H313.013C313.051 159.275 313.177 159.695 313.391 160.068C313.615 160.432 313.905 160.721 314.259 160.936C314.623 161.141 315.02 161.244 315.449 161.244C315.804 161.244 316.145 161.183 316.471 161.062C316.807 160.931 317.092 160.759 317.325 160.544L317.969 161.23C317.577 161.538 317.171 161.767 316.751 161.916C316.331 162.065 315.883 162.14 315.407 162.14ZM313.041 158.08H317.367C317.321 157.669 317.195 157.305 316.989 156.988C316.793 156.661 316.541 156.405 316.233 156.218C315.935 156.031 315.599 155.938 315.225 155.938C314.852 155.938 314.511 156.031 314.203 156.218C313.895 156.395 313.639 156.647 313.433 156.974C313.237 157.291 313.107 157.66 313.041 158.08ZM318.828 162L321.446 158.458L318.982 155.168H320.2L322.09 157.772L323.966 155.168H325.128L322.65 158.486L325.282 162H324.064L322.02 159.214L319.99 162H318.828ZM328.986 162.14C328.398 162.14 327.95 162 327.642 161.72C327.343 161.431 327.194 161.015 327.194 160.474V156.008H325.78V155.168H327.194V153.292L328.216 153.054V155.168H330.176V156.008H328.216V160.208C328.216 160.572 328.291 160.833 328.44 160.992C328.599 161.151 328.855 161.23 329.21 161.23C329.387 161.23 329.546 161.216 329.686 161.188C329.826 161.16 329.989 161.113 330.176 161.048V161.958C329.989 162.023 329.793 162.07 329.588 162.098C329.383 162.126 329.182 162.14 328.986 162.14Z" fill="#151515"/>
</g>
<mask id="path-16-inside-1_1674_101104" fill="white">
<path d="M101.465 79.9268C101.465 78.3873 103.131 77.4252 104.465 78.1949L116.595 85.1977C117.929 85.9675 117.928 87.8922 116.595 88.662L113.372 90.5229L115.01 93.3611C115.563 94.3176 115.235 95.5409 114.278 96.0932L112.475 97.1342C111.519 97.6864 110.296 97.3585 109.743 96.4021L108.105 93.5639L104.465 95.6654C103.131 96.4352 101.464 95.4732 101.464 93.9336L101.465 79.9268Z"/>
</mask>
<path d="M101.465 79.9268C101.465 78.3873 103.131 77.4252 104.465 78.1949L116.595 85.1977C117.929 85.9675 117.928 87.8922 116.595 88.662L113.372 90.5229L115.01 93.3611C115.563 94.3176 115.235 95.5409 114.278 96.0932L112.475 97.1342C111.519 97.6864 110.296 97.3585 109.743 96.4021L108.105 93.5639L104.465 95.6654C103.131 96.4352 101.464 95.4732 101.464 93.9336L101.465 79.9268Z" fill="#FF00FF"/>
<path d="M101.465 79.9268L102.465 79.9269L102.465 79.9268L101.465 79.9268ZM104.465 78.1949L103.965 79.0609L103.965 79.0609L104.465 78.1949ZM116.595 85.1977L117.095 84.3317L117.095 84.3317L116.595 85.1977ZM116.595 88.662L116.095 87.796L116.595 88.662ZM113.372 90.5229L112.872 89.6568L112.006 90.1568L112.506 91.0229L113.372 90.5229ZM115.01 93.3611L115.877 92.8613L115.877 92.8611L115.01 93.3611ZM114.278 96.0932L114.778 96.9592L114.778 96.9592L114.278 96.0932ZM109.743 96.4021L108.877 96.9021L108.877 96.9023L109.743 96.4021ZM108.105 93.5639L108.971 93.0639L108.471 92.1979L107.605 92.6979L108.105 93.5639ZM104.465 95.6654L104.965 96.5315L104.965 96.5315L104.465 95.6654ZM101.464 93.9336L100.464 93.9335L100.464 93.9336L101.464 93.9336ZM101.465 79.9268L102.465 79.9268C102.465 79.1571 103.298 78.6761 103.965 79.0609L104.465 78.1949L104.965 77.3289C102.965 76.1743 100.465 77.6174 100.465 79.9268L101.465 79.9268ZM104.465 78.1949L103.965 79.0609L116.095 86.0638L116.595 85.1977L117.095 84.3317L104.965 77.3289L104.465 78.1949ZM116.595 85.1977L116.095 86.0638C116.762 86.4485 116.762 87.4109 116.095 87.796L116.595 88.662L117.095 89.528C119.095 88.3735 119.095 85.4866 117.095 84.3317L116.595 85.1977ZM116.595 88.662L116.095 87.796L112.872 89.6568L113.372 90.5229L113.872 91.3889L117.095 89.528L116.595 88.662ZM113.372 90.5229L112.506 91.0229L114.144 93.8611L115.01 93.3611L115.877 92.8611L114.238 90.0229L113.372 90.5229ZM115.01 93.3611L114.144 93.861C114.42 94.3394 114.256 94.9511 113.778 95.2272L114.278 96.0932L114.778 96.9592C116.213 96.1307 116.705 94.2959 115.877 92.8613L115.01 93.3611ZM114.278 96.0932L113.778 95.2272L111.975 96.2682L112.475 97.1342L112.975 98.0002L114.778 96.9592L114.278 96.0932ZM112.475 97.1342L111.975 96.2682C111.497 96.5442 110.886 96.3804 110.609 95.902L109.743 96.4021L108.877 96.9023C109.706 98.3366 111.54 98.8287 112.975 98.0002L112.475 97.1342ZM109.743 96.4021L110.609 95.9021L108.971 93.0639L108.105 93.5639L107.239 94.0639L108.877 96.9021L109.743 96.4021ZM108.105 93.5639L107.605 92.6979L103.965 94.7994L104.465 95.6654L104.965 96.5315L108.605 94.4299L108.105 93.5639ZM104.465 95.6654L103.965 94.7994C103.298 95.1845 102.464 94.703 102.464 93.9336L101.464 93.9336L100.464 93.9336C100.464 96.2433 102.965 97.6859 104.965 96.5315L104.465 95.6654ZM101.464 93.9336L102.464 93.9336L102.465 79.9269L101.465 79.9268L100.465 79.9268L100.464 93.9335L101.464 93.9336Z" fill="#FF00FF" mask="url(#path-16-inside-1_1674_101104)"/>
<path d="M99.3871 72.3838C102.005 70.8722 105.353 71.7689 106.865 74.3868C107.613 75.6819 107.769 77.1555 107.422 78.4971L103.249 76.0879C101.915 75.3182 100.249 76.2803 100.249 77.8198L100.248 82.2655C99.082 81.8407 98.0527 81.0197 97.3836 79.8609C95.8723 77.2429 96.7693 73.8954 99.3871 72.3838Z" fill="#FF00FF" fill-opacity="0.4"/>
<path d="M94.9727 80.5513L92.8658 81.7677" stroke="#FF00FF" stroke-linecap="round"/>
<path d="M110.775 71.4277L108.668 72.6442" stroke="#FF00FF" stroke-linecap="round"/>
<path d="M96.9545 68.1699L98.171 70.2769" stroke="#FF00FF" stroke-linecap="round"/>
</g>
<defs>
<filter id="filter0_d_1674_101104" x="43" y="82" width="316" height="115" filterUnits="userSpaceOnUse" color-interpolation-filters="sRGB">
<feFlood flood-opacity="0" result="BackgroundImageFix"/>
<feColorMatrix in="SourceAlpha" type="matrix" values="0 0 0 0 0 0 0 0 0 0 0 0 0 0 0 0 0 0 127 0" result="hardAlpha"/>
<feOffset dy="4"/>
<feGaussianBlur stdDeviation="4.5"/>
<feColorMatrix type="matrix" values="0 0 0 0 0.160784 0 0 0 0 0.160784 0 0 0 0 0.160784 0 0 0 0.15 0"/>
<feBlend mode="normal" in2="BackgroundImageFix" result="effect1_dropShadow_1674_101104"/>
<feBlend mode="normal" in="SourceGraphic" in2="effect1_dropShadow_1674_101104" result="shape"/>
</filter>
<clipPath id="clip0_1674_101104">
<rect width="481" height="217" fill="white"/>
</clipPath>
</defs>
</svg>
