<svg width="323" height="225" viewBox="0 0 323 225" fill="none" xmlns="http://www.w3.org/2000/svg">
<rect width="323" height="225" fill="white"/>
<rect width="240" height="69" transform="translate(83 21)" fill="white"/>
<mask id="path-1-inside-1_3518_17624" fill="white">
<path d="M99 43C99 39.6863 101.686 37 105 37H147V74H105C101.686 74 99 71.3137 99 68V43Z"/>
</mask>
<path d="M99 43C99 39.6863 101.686 37 105 37H147V74H105C101.686 74 99 71.3137 99 68V43Z" fill="white"/>
<path d="M147 37H149V35H147V37ZM147 74V76H149V74H147ZM105 37V39H147V37V35H105V37ZM147 37H145V74H147H149V37H147ZM147 74V72H105V74V76H147V74ZM99 68H101V43H99H97V68H99ZM105 74V72C102.791 72 101 70.2091 101 68H99H97C97 72.4183 100.582 76 105 76V74ZM105 37V35C100.582 35 97 38.5817 97 43H99H101C101 40.7909 102.791 39 105 39V37Z" fill="#0066CC" mask="url(#path-1-inside-1_3518_17624)"/>
<mask id="path-3-inside-2_3518_17624" fill="white">
<path d="M115 51.5C115 49.2909 116.791 47.5 119 47.5H127C129.209 47.5 131 49.2909 131 51.5V59.5C131 61.7091 129.209 63.5 127 63.5H119C116.791 63.5 115 61.7091 115 59.5V51.5Z"/>
</mask>
<path d="M115 51.5C115 49.2909 116.791 47.5 119 47.5H127C129.209 47.5 131 49.2909 131 51.5V59.5C131 61.7091 129.209 63.5 127 63.5H119C116.791 63.5 115 61.7091 115 59.5V51.5Z" fill="white"/>
<path d="M119 47.5V48.5H127V47.5V46.5H119V47.5ZM131 51.5H130V59.5H131H132V51.5H131ZM127 63.5V62.5H119V63.5V64.5H127V63.5ZM115 59.5H116V51.5H115H114V59.5H115ZM119 63.5V62.5C117.343 62.5 116 61.1569 116 59.5H115H114C114 62.2614 116.239 64.5 119 64.5V63.5ZM131 59.5H130C130 61.1569 128.657 62.5 127 62.5V63.5V64.5C129.761 64.5 132 62.2614 132 59.5H131ZM127 47.5V48.5C128.657 48.5 130 49.8431 130 51.5H131H132C132 48.7386 129.761 46.5 127 46.5V47.5ZM119 47.5V46.5C116.239 46.5 114 48.7386 114 51.5H115H116C116 49.8431 117.343 48.5 119 48.5V47.5Z" fill="#C7C7C7" mask="url(#path-3-inside-2_3518_17624)"/>
<mask id="path-5-inside-3_3518_17624" fill="white">
<path d="M145 37H185C188.314 37 191 39.6863 191 43V68C191 71.3137 188.314 74 185 74H145V37Z"/>
</mask>
<path d="M145 37H185C188.314 37 191 39.6863 191 43V68C191 71.3137 188.314 74 185 74H145V37Z" fill="white"/>
<path d="M144 35H185C189.418 35 193 38.5817 193 43H189C189 40.7909 187.209 39 185 39H146L144 35ZM193 68C193 72.4183 189.418 76 185 76H144L146 72H185C187.209 72 189 70.2091 189 68H193ZM144 76V35L146 39V72L144 76ZM185 35C189.418 35 193 38.5817 193 43V68C193 72.4183 189.418 76 185 76V72C187.209 72 189 70.2091 189 68V43C189 40.7909 187.209 39 185 39V35Z" fill="#0066CC" mask="url(#path-5-inside-3_3518_17624)"/>
<path d="M171.534 53.167C172.023 53.1672 172.267 53.7618 171.921 54.1104L168.389 57.6719C168.174 57.8874 167.825 57.8875 167.611 57.6719L164.079 54.1104C163.733 53.7617 163.978 53.167 164.467 53.167H171.534Z" fill="#1F1F1F"/>
<g filter="url(#filter0_d_3518_17624)">
<path d="M99 80C99 76.6863 101.686 74 105 74H287C290.314 74 293 76.6863 293 80V195C293 198.314 290.314 201 287 201H105C101.686 201 99 198.314 99 195V80Z" fill="white"/>
<path d="M127.41 105.154C126.645 105.154 125.935 105.019 125.282 104.748C124.629 104.468 123.999 104.048 123.392 103.488L124.05 102.704C124.638 103.255 125.189 103.647 125.702 103.88C126.225 104.113 126.803 104.23 127.438 104.23C127.942 104.23 128.39 104.146 128.782 103.978C129.183 103.801 129.496 103.563 129.72 103.264C129.944 102.965 130.056 102.625 130.056 102.242C130.056 101.747 129.893 101.374 129.566 101.122C129.239 100.861 128.675 100.66 127.872 100.52L126.29 100.254C125.394 100.095 124.736 99.8247 124.316 99.442C123.905 99.05 123.7 98.5273 123.7 97.874C123.7 97.3233 123.84 96.838 124.12 96.418C124.409 95.9887 124.806 95.6527 125.31 95.41C125.814 95.1673 126.397 95.046 127.06 95.046C127.788 95.046 128.465 95.1487 129.09 95.354C129.715 95.55 130.331 95.8627 130.938 96.292L130.378 97.132C129.874 96.7493 129.342 96.46 128.782 96.264C128.222 96.0587 127.653 95.956 127.074 95.956C126.617 95.956 126.211 96.0353 125.856 96.194C125.511 96.3527 125.235 96.5673 125.03 96.838C124.834 97.1087 124.736 97.4167 124.736 97.762C124.736 98.1913 124.881 98.5273 125.17 98.77C125.459 99.0127 125.931 99.1853 126.584 99.288L128.152 99.554C129.197 99.7407 129.953 100.044 130.42 100.464C130.896 100.875 131.134 101.449 131.134 102.186C131.134 102.755 130.971 103.264 130.644 103.712C130.327 104.16 129.888 104.515 129.328 104.776C128.768 105.028 128.129 105.154 127.41 105.154ZM135.989 105.14C135.355 105.14 134.781 104.986 134.267 104.678C133.754 104.361 133.348 103.936 133.049 103.404C132.751 102.863 132.601 102.256 132.601 101.584C132.601 100.912 132.741 100.31 133.021 99.778C133.311 99.246 133.698 98.826 134.183 98.518C134.669 98.21 135.21 98.056 135.807 98.056C136.414 98.056 136.951 98.21 137.417 98.518C137.893 98.8167 138.267 99.2273 138.537 99.75C138.817 100.263 138.957 100.847 138.957 101.5V101.808H133.595C133.633 102.275 133.759 102.695 133.973 103.068C134.197 103.432 134.487 103.721 134.841 103.936C135.205 104.141 135.602 104.244 136.031 104.244C136.386 104.244 136.727 104.183 137.053 104.062C137.389 103.931 137.674 103.759 137.907 103.544L138.551 104.23C138.159 104.538 137.753 104.767 137.333 104.916C136.913 105.065 136.465 105.14 135.989 105.14ZM133.623 101.08H137.949C137.903 100.669 137.777 100.305 137.571 99.988C137.375 99.6613 137.123 99.4047 136.815 99.218C136.517 99.0313 136.181 98.938 135.807 98.938C135.434 98.938 135.093 99.0313 134.785 99.218C134.477 99.3953 134.221 99.6473 134.015 99.974C133.819 100.291 133.689 100.66 133.623 101.08ZM140.702 105V94.892L141.724 94.682V105H140.702ZM146.9 105.14C146.265 105.14 145.691 104.986 145.178 104.678C144.664 104.361 144.258 103.936 143.96 103.404C143.661 102.863 143.512 102.256 143.512 101.584C143.512 100.912 143.652 100.31 143.932 99.778C144.221 99.246 144.608 98.826 145.094 98.518C145.579 98.21 146.12 98.056 146.718 98.056C147.324 98.056 147.861 98.21 148.328 98.518C148.804 98.8167 149.177 99.2273 149.448 99.75C149.728 100.263 149.868 100.847 149.868 101.5V101.808H144.506C144.543 102.275 144.669 102.695 144.884 103.068C145.108 103.432 145.397 103.721 145.752 103.936C146.116 104.141 146.512 104.244 146.942 104.244C147.296 104.244 147.637 104.183 147.964 104.062C148.3 103.931 148.584 103.759 148.818 103.544L149.462 104.23C149.07 104.538 148.664 104.767 148.244 104.916C147.824 105.065 147.376 105.14 146.9 105.14ZM144.534 101.08H148.86C148.813 100.669 148.687 100.305 148.482 99.988C148.286 99.6613 148.034 99.4047 147.726 99.218C147.427 99.0313 147.091 98.938 146.718 98.938C146.344 98.938 146.004 99.0313 145.696 99.218C145.388 99.3953 145.131 99.6473 144.926 99.974C144.73 100.291 144.599 100.66 144.534 101.08ZM154.678 105.112C154.044 105.112 153.47 104.958 152.957 104.65C152.453 104.333 152.051 103.908 151.753 103.376C151.454 102.835 151.305 102.237 151.305 101.584C151.305 100.921 151.454 100.324 151.753 99.792C152.051 99.26 152.453 98.84 152.957 98.532C153.47 98.2147 154.044 98.056 154.678 98.056C155.183 98.056 155.663 98.1493 156.121 98.336C156.578 98.5227 156.975 98.784 157.311 99.12L156.653 99.834C156.41 99.5633 156.116 99.3533 155.771 99.204C155.425 99.0547 155.075 98.98 154.721 98.98C154.273 98.98 153.867 99.0967 153.503 99.33C153.148 99.5633 152.863 99.876 152.649 100.268C152.434 100.66 152.327 101.099 152.327 101.584C152.327 102.069 152.434 102.508 152.649 102.9C152.863 103.292 153.148 103.605 153.503 103.838C153.867 104.071 154.273 104.188 154.721 104.188C155.075 104.188 155.425 104.113 155.771 103.964C156.116 103.805 156.41 103.595 156.653 103.334L157.311 104.048C156.975 104.384 156.578 104.645 156.121 104.832C155.663 105.019 155.183 105.112 154.678 105.112ZM161.476 105.14C160.888 105.14 160.44 105 160.132 104.72C159.834 104.431 159.684 104.015 159.684 103.474V99.008H158.27V98.168H159.684V96.292L160.706 96.054V98.168H162.666V99.008H160.706V103.208C160.706 103.572 160.781 103.833 160.93 103.992C161.089 104.151 161.346 104.23 161.7 104.23C161.878 104.23 162.036 104.216 162.176 104.188C162.316 104.16 162.48 104.113 162.666 104.048V104.958C162.48 105.023 162.284 105.07 162.078 105.098C161.873 105.126 161.672 105.14 161.476 105.14ZM167.431 105V98.168H168.453V99.274C168.714 98.8633 169.027 98.56 169.391 98.364C169.755 98.1587 170.166 98.056 170.623 98.056C171.118 98.056 171.547 98.1633 171.911 98.378C172.284 98.5833 172.574 98.8773 172.779 99.26C172.994 99.6333 173.101 100.072 173.101 100.576V105H172.079V100.87C172.079 100.263 171.911 99.7873 171.575 99.442C171.248 99.0873 170.805 98.91 170.245 98.91C169.872 98.91 169.531 98.9987 169.223 99.176C168.915 99.3533 168.658 99.6147 168.453 99.96V105H167.431ZM178.179 105.112C177.545 105.112 176.975 104.958 176.471 104.65C175.967 104.342 175.571 103.922 175.281 103.39C174.992 102.858 174.847 102.256 174.847 101.584C174.847 100.912 174.992 100.31 175.281 99.778C175.571 99.246 175.967 98.826 176.471 98.518C176.975 98.21 177.545 98.056 178.179 98.056C178.805 98.056 179.365 98.21 179.859 98.518C180.363 98.826 180.76 99.246 181.049 99.778C181.339 100.31 181.483 100.912 181.483 101.584C181.483 102.256 181.339 102.858 181.049 103.39C180.76 103.922 180.363 104.342 179.859 104.65C179.365 104.958 178.805 105.112 178.179 105.112ZM178.165 104.216C178.613 104.216 179.01 104.104 179.355 103.88C179.701 103.647 179.971 103.329 180.167 102.928C180.373 102.527 180.475 102.079 180.475 101.584C180.475 101.08 180.373 100.632 180.167 100.24C179.971 99.8387 179.701 99.526 179.355 99.302C179.01 99.0687 178.613 98.952 178.165 98.952C177.717 98.952 177.321 99.0687 176.975 99.302C176.63 99.526 176.355 99.8387 176.149 100.24C175.953 100.632 175.855 101.08 175.855 101.584C175.855 102.079 175.953 102.527 176.149 102.928C176.355 103.329 176.63 103.647 176.975 103.88C177.321 104.104 177.717 104.216 178.165 104.216ZM183.277 105V98.168H184.299V99.274C184.56 98.8633 184.873 98.56 185.237 98.364C185.601 98.1587 186.011 98.056 186.469 98.056C186.963 98.056 187.393 98.1633 187.757 98.378C188.13 98.5833 188.419 98.8773 188.625 99.26C188.839 99.6333 188.947 100.072 188.947 100.576V105H187.925V100.87C187.925 100.263 187.757 99.7873 187.421 99.442C187.094 99.0873 186.651 98.91 186.091 98.91C185.717 98.91 185.377 98.9987 185.069 99.176C184.761 99.3533 184.504 99.6147 184.299 99.96V105H183.277ZM194.081 105.14C193.447 105.14 192.873 104.986 192.359 104.678C191.846 104.361 191.44 103.936 191.141 103.404C190.843 102.863 190.693 102.256 190.693 101.584C190.693 100.912 190.833 100.31 191.113 99.778C191.403 99.246 191.79 98.826 192.275 98.518C192.761 98.21 193.302 98.056 193.899 98.056C194.506 98.056 195.043 98.21 195.509 98.518C195.985 98.8167 196.359 99.2273 196.629 99.75C196.909 100.263 197.049 100.847 197.049 101.5V101.808H191.687C191.725 102.275 191.851 102.695 192.065 103.068C192.289 103.432 192.579 103.721 192.933 103.936C193.297 104.141 193.694 104.244 194.123 104.244C194.478 104.244 194.819 104.183 195.145 104.062C195.481 103.931 195.766 103.759 195.999 103.544L196.643 104.23C196.251 104.538 195.845 104.767 195.425 104.916C195.005 105.065 194.557 105.14 194.081 105.14ZM191.715 101.08H196.041C195.995 100.669 195.869 100.305 195.663 99.988C195.467 99.6613 195.215 99.4047 194.907 99.218C194.609 99.0313 194.273 98.938 193.899 98.938C193.526 98.938 193.185 99.0313 192.877 99.218C192.569 99.3953 192.313 99.6473 192.107 99.974C191.911 100.291 191.781 100.66 191.715 101.08ZM205.38 108.066C204.67 107.618 204.068 107.067 203.574 106.414C203.079 105.77 202.701 105.037 202.44 104.216C202.188 103.395 202.062 102.508 202.062 101.556C202.062 100.595 202.188 99.7033 202.44 98.882C202.701 98.0607 203.079 97.328 203.574 96.684C204.068 96.0307 204.67 95.48 205.38 95.032L205.912 95.746C204.997 96.3153 204.288 97.104 203.784 98.112C203.289 99.12 203.042 100.268 203.042 101.556C203.042 102.844 203.289 103.992 203.784 105C204.288 106.008 204.997 106.797 205.912 107.366L205.38 108.066ZM211.251 105.154C210.504 105.154 209.842 104.939 209.263 104.51C208.694 104.081 208.246 103.488 207.919 102.732C207.592 101.967 207.429 101.089 207.429 100.1C207.429 99.1013 207.592 98.224 207.919 97.468C208.246 96.712 208.694 96.1193 209.263 95.69C209.842 95.2607 210.504 95.046 211.251 95.046C211.998 95.046 212.656 95.2607 213.225 95.69C213.804 96.1193 214.256 96.712 214.583 97.468C214.91 98.224 215.073 99.1013 215.073 100.1C215.073 101.089 214.91 101.967 214.583 102.732C214.256 103.488 213.804 104.081 213.225 104.51C212.656 104.939 211.998 105.154 211.251 105.154ZM211.251 104.244C211.82 104.244 212.31 104.076 212.721 103.74C213.141 103.395 213.468 102.914 213.701 102.298C213.934 101.673 214.051 100.94 214.051 100.1C214.051 99.26 213.934 98.532 213.701 97.916C213.468 97.2907 213.141 96.81 212.721 96.474C212.31 96.1287 211.82 95.956 211.251 95.956C210.691 95.956 210.201 96.1287 209.781 96.474C209.361 96.81 209.034 97.2907 208.801 97.916C208.568 98.532 208.451 99.26 208.451 100.1C208.451 100.94 208.568 101.673 208.801 102.298C209.034 102.914 209.361 103.395 209.781 103.74C210.201 104.076 210.691 104.244 211.251 104.244ZM220.177 105V98.168H221.199V105H220.177ZM220.695 96.474C220.489 96.474 220.312 96.404 220.163 96.264C220.023 96.1147 219.953 95.942 219.953 95.746C219.953 95.55 220.023 95.382 220.163 95.242C220.312 95.0927 220.489 95.018 220.695 95.018C220.9 95.018 221.073 95.0927 221.213 95.242C221.362 95.382 221.437 95.55 221.437 95.746C221.437 95.942 221.362 96.1147 221.213 96.264C221.073 96.404 220.9 96.474 220.695 96.474ZM225.898 105.14C225.31 105.14 224.862 105 224.554 104.72C224.255 104.431 224.106 104.015 224.106 103.474V99.008H222.692V98.168H224.106V96.292L225.128 96.054V98.168H227.088V99.008H225.128V103.208C225.128 103.572 225.203 103.833 225.352 103.992C225.511 104.151 225.767 104.23 226.122 104.23C226.299 104.23 226.458 104.216 226.598 104.188C226.738 104.16 226.901 104.113 227.088 104.048V104.958C226.901 105.023 226.705 105.07 226.5 105.098C226.295 105.126 226.094 105.14 225.898 105.14ZM231.528 105.14C230.894 105.14 230.32 104.986 229.806 104.678C229.293 104.361 228.887 103.936 228.588 103.404C228.29 102.863 228.14 102.256 228.14 101.584C228.14 100.912 228.28 100.31 228.56 99.778C228.85 99.246 229.237 98.826 229.722 98.518C230.208 98.21 230.749 98.056 231.346 98.056C231.953 98.056 232.49 98.21 232.956 98.518C233.432 98.8167 233.806 99.2273 234.076 99.75C234.356 100.263 234.496 100.847 234.496 101.5V101.808H229.134C229.172 102.275 229.298 102.695 229.512 103.068C229.736 103.432 230.026 103.721 230.38 103.936C230.744 104.141 231.141 104.244 231.57 104.244C231.925 104.244 232.266 104.183 232.592 104.062C232.928 103.931 233.213 103.759 233.446 103.544L234.09 104.23C233.698 104.538 233.292 104.767 232.872 104.916C232.452 105.065 232.004 105.14 231.528 105.14ZM229.162 101.08H233.488C233.442 100.669 233.316 100.305 233.11 99.988C232.914 99.6613 232.662 99.4047 232.354 99.218C232.056 99.0313 231.72 98.938 231.346 98.938C230.973 98.938 230.632 99.0313 230.324 99.218C230.016 99.3953 229.76 99.6473 229.554 99.974C229.358 100.291 229.228 100.66 229.162 101.08ZM236.241 105V98.168H237.263V99.232C237.525 98.84 237.823 98.546 238.159 98.35C238.495 98.154 238.873 98.056 239.293 98.056C239.779 98.056 240.203 98.1773 240.567 98.42C240.931 98.6533 241.207 98.9753 241.393 99.386C241.664 98.9473 241.986 98.616 242.359 98.392C242.742 98.168 243.181 98.056 243.675 98.056C244.133 98.056 244.534 98.1633 244.879 98.378C245.234 98.5927 245.509 98.8913 245.705 99.274C245.901 99.6473 245.999 100.086 245.999 100.59V105H244.977V100.842C244.977 100.245 244.828 99.7733 244.529 99.428C244.231 99.0827 243.82 98.91 243.297 98.91C242.943 98.91 242.621 98.9987 242.331 99.176C242.051 99.3533 241.804 99.624 241.589 99.988C241.608 100.081 241.622 100.179 241.631 100.282C241.641 100.385 241.645 100.487 241.645 100.59V105H240.623V100.842C240.623 100.245 240.469 99.7733 240.161 99.428C239.863 99.0827 239.452 98.91 238.929 98.91C238.229 98.91 237.674 99.246 237.263 99.918V105H236.241ZM250.182 105.14C249.622 105.14 249.104 105.056 248.628 104.888C248.152 104.711 247.746 104.459 247.41 104.132L247.956 103.46C248.366 103.759 248.744 103.978 249.09 104.118C249.435 104.249 249.79 104.314 250.154 104.314C250.648 104.314 251.059 104.197 251.386 103.964C251.712 103.731 251.876 103.432 251.876 103.068C251.876 102.788 251.778 102.569 251.582 102.41C251.395 102.251 251.082 102.13 250.644 102.046L249.524 101.85C248.861 101.729 248.371 101.523 248.054 101.234C247.746 100.945 247.592 100.553 247.592 100.058C247.592 99.666 247.694 99.3207 247.9 99.022C248.114 98.7233 248.408 98.49 248.782 98.322C249.155 98.1447 249.58 98.056 250.056 98.056C250.522 98.056 250.966 98.126 251.386 98.266C251.806 98.3967 252.23 98.6113 252.66 98.91L252.156 99.624C251.801 99.372 251.446 99.19 251.092 99.078C250.737 98.9567 250.378 98.896 250.014 98.896C249.566 98.896 249.206 98.994 248.936 99.19C248.665 99.386 248.53 99.652 248.53 99.988C248.53 100.268 248.614 100.483 248.782 100.632C248.959 100.781 249.267 100.893 249.706 100.968L250.854 101.178C251.544 101.299 252.048 101.509 252.366 101.808C252.683 102.107 252.842 102.508 252.842 103.012C252.842 103.413 252.725 103.777 252.492 104.104C252.258 104.421 251.941 104.673 251.54 104.86C251.138 105.047 250.686 105.14 250.182 105.14ZM254.594 95.046C255.303 95.494 255.905 96.0447 256.4 96.698C256.894 97.342 257.268 98.0747 257.52 98.896C257.781 99.7173 257.912 100.604 257.912 101.556C257.912 102.517 257.781 103.409 257.52 104.23C257.268 105.051 256.894 105.784 256.4 106.428C255.905 107.081 255.303 107.632 254.594 108.08L254.062 107.366C254.976 106.797 255.681 106.008 256.176 105C256.68 103.992 256.932 102.844 256.932 101.556C256.932 100.268 256.68 99.12 256.176 98.112C255.681 97.104 254.976 96.3153 254.062 95.746L254.594 95.046Z" fill="#A3A3A3"/>
<path d="M127.41 142.154C126.645 142.154 125.935 142.019 125.282 141.748C124.629 141.468 123.999 141.048 123.392 140.488L124.05 139.704C124.638 140.255 125.189 140.647 125.702 140.88C126.225 141.113 126.803 141.23 127.438 141.23C127.942 141.23 128.39 141.146 128.782 140.978C129.183 140.801 129.496 140.563 129.72 140.264C129.944 139.965 130.056 139.625 130.056 139.242C130.056 138.747 129.893 138.374 129.566 138.122C129.239 137.861 128.675 137.66 127.872 137.52L126.29 137.254C125.394 137.095 124.736 136.825 124.316 136.442C123.905 136.05 123.7 135.527 123.7 134.874C123.7 134.323 123.84 133.838 124.12 133.418C124.409 132.989 124.806 132.653 125.31 132.41C125.814 132.167 126.397 132.046 127.06 132.046C127.788 132.046 128.465 132.149 129.09 132.354C129.715 132.55 130.331 132.863 130.938 133.292L130.378 134.132C129.874 133.749 129.342 133.46 128.782 133.264C128.222 133.059 127.653 132.956 127.074 132.956C126.617 132.956 126.211 133.035 125.856 133.194C125.511 133.353 125.235 133.567 125.03 133.838C124.834 134.109 124.736 134.417 124.736 134.762C124.736 135.191 124.881 135.527 125.17 135.77C125.459 136.013 125.931 136.185 126.584 136.288L128.152 136.554C129.197 136.741 129.953 137.044 130.42 137.464C130.896 137.875 131.134 138.449 131.134 139.186C131.134 139.755 130.971 140.264 130.644 140.712C130.327 141.16 129.888 141.515 129.328 141.776C128.768 142.028 128.129 142.154 127.41 142.154ZM135.989 142.14C135.355 142.14 134.781 141.986 134.267 141.678C133.754 141.361 133.348 140.936 133.049 140.404C132.751 139.863 132.601 139.256 132.601 138.584C132.601 137.912 132.741 137.31 133.021 136.778C133.311 136.246 133.698 135.826 134.183 135.518C134.669 135.21 135.21 135.056 135.807 135.056C136.414 135.056 136.951 135.21 137.417 135.518C137.893 135.817 138.267 136.227 138.537 136.75C138.817 137.263 138.957 137.847 138.957 138.5V138.808H133.595C133.633 139.275 133.759 139.695 133.973 140.068C134.197 140.432 134.487 140.721 134.841 140.936C135.205 141.141 135.602 141.244 136.031 141.244C136.386 141.244 136.727 141.183 137.053 141.062C137.389 140.931 137.674 140.759 137.907 140.544L138.551 141.23C138.159 141.538 137.753 141.767 137.333 141.916C136.913 142.065 136.465 142.14 135.989 142.14ZM133.623 138.08H137.949C137.903 137.669 137.777 137.305 137.571 136.988C137.375 136.661 137.123 136.405 136.815 136.218C136.517 136.031 136.181 135.938 135.807 135.938C135.434 135.938 135.093 136.031 134.785 136.218C134.477 136.395 134.221 136.647 134.015 136.974C133.819 137.291 133.689 137.66 133.623 138.08ZM140.702 142V131.892L141.724 131.682V142H140.702ZM146.9 142.14C146.265 142.14 145.691 141.986 145.178 141.678C144.664 141.361 144.258 140.936 143.96 140.404C143.661 139.863 143.512 139.256 143.512 138.584C143.512 137.912 143.652 137.31 143.932 136.778C144.221 136.246 144.608 135.826 145.094 135.518C145.579 135.21 146.12 135.056 146.718 135.056C147.324 135.056 147.861 135.21 148.328 135.518C148.804 135.817 149.177 136.227 149.448 136.75C149.728 137.263 149.868 137.847 149.868 138.5V138.808H144.506C144.543 139.275 144.669 139.695 144.884 140.068C145.108 140.432 145.397 140.721 145.752 140.936C146.116 141.141 146.512 141.244 146.942 141.244C147.296 141.244 147.637 141.183 147.964 141.062C148.3 140.931 148.584 140.759 148.818 140.544L149.462 141.23C149.07 141.538 148.664 141.767 148.244 141.916C147.824 142.065 147.376 142.14 146.9 142.14ZM144.534 138.08H148.86C148.813 137.669 148.687 137.305 148.482 136.988C148.286 136.661 148.034 136.405 147.726 136.218C147.427 136.031 147.091 135.938 146.718 135.938C146.344 135.938 146.004 136.031 145.696 136.218C145.388 136.395 145.131 136.647 144.926 136.974C144.73 137.291 144.599 137.66 144.534 138.08ZM154.678 142.112C154.044 142.112 153.47 141.958 152.957 141.65C152.453 141.333 152.051 140.908 151.753 140.376C151.454 139.835 151.305 139.237 151.305 138.584C151.305 137.921 151.454 137.324 151.753 136.792C152.051 136.26 152.453 135.84 152.957 135.532C153.47 135.215 154.044 135.056 154.678 135.056C155.183 135.056 155.663 135.149 156.121 135.336C156.578 135.523 156.975 135.784 157.311 136.12L156.653 136.834C156.41 136.563 156.116 136.353 155.771 136.204C155.425 136.055 155.075 135.98 154.721 135.98C154.273 135.98 153.867 136.097 153.503 136.33C153.148 136.563 152.863 136.876 152.649 137.268C152.434 137.66 152.327 138.099 152.327 138.584C152.327 139.069 152.434 139.508 152.649 139.9C152.863 140.292 153.148 140.605 153.503 140.838C153.867 141.071 154.273 141.188 154.721 141.188C155.075 141.188 155.425 141.113 155.771 140.964C156.116 140.805 156.41 140.595 156.653 140.334L157.311 141.048C156.975 141.384 156.578 141.645 156.121 141.832C155.663 142.019 155.183 142.112 154.678 142.112ZM161.476 142.14C160.888 142.14 160.44 142 160.132 141.72C159.834 141.431 159.684 141.015 159.684 140.474V136.008H158.27V135.168H159.684V133.292L160.706 133.054V135.168H162.666V136.008H160.706V140.208C160.706 140.572 160.781 140.833 160.93 140.992C161.089 141.151 161.346 141.23 161.7 141.23C161.878 141.23 162.036 141.216 162.176 141.188C162.316 141.16 162.48 141.113 162.666 141.048V141.958C162.48 142.023 162.284 142.07 162.078 142.098C161.873 142.126 161.672 142.14 161.476 142.14ZM167.431 144.926V135.168H168.439V136.148C168.7 135.803 169.018 135.541 169.391 135.364C169.774 135.177 170.194 135.084 170.651 135.084C171.248 135.084 171.78 135.243 172.247 135.56C172.723 135.868 173.101 136.288 173.381 136.82C173.661 137.343 173.801 137.931 173.801 138.584C173.801 139.237 173.656 139.83 173.367 140.362C173.087 140.894 172.704 141.319 172.219 141.636C171.743 141.944 171.202 142.098 170.595 142.098C170.166 142.098 169.769 142.019 169.405 141.86C169.041 141.692 168.724 141.454 168.453 141.146V144.926H167.431ZM170.399 141.216C170.856 141.216 171.262 141.104 171.617 140.88C171.981 140.647 172.266 140.334 172.471 139.942C172.686 139.541 172.793 139.093 172.793 138.598C172.793 138.094 172.686 137.646 172.471 137.254C172.266 136.862 171.981 136.554 171.617 136.33C171.262 136.097 170.856 135.98 170.399 135.98C169.998 135.98 169.624 136.064 169.279 136.232C168.943 136.391 168.668 136.619 168.453 136.918V140.264C168.677 140.563 168.957 140.796 169.293 140.964C169.638 141.132 170.007 141.216 170.399 141.216ZM177.775 142.126C177.29 142.126 176.861 142.037 176.487 141.86C176.114 141.683 175.82 141.44 175.605 141.132C175.4 140.815 175.297 140.451 175.297 140.04C175.297 139.629 175.405 139.275 175.619 138.976C175.834 138.668 176.133 138.43 176.515 138.262C176.898 138.094 177.346 138.01 177.859 138.01C178.251 138.01 178.62 138.052 178.965 138.136C179.32 138.22 179.647 138.355 179.945 138.542V137.604C179.945 137.044 179.796 136.624 179.497 136.344C179.199 136.055 178.76 135.91 178.181 135.91C177.864 135.91 177.537 135.957 177.201 136.05C176.875 136.143 176.511 136.293 176.109 136.498L175.731 135.714C176.646 135.275 177.505 135.056 178.307 135.056C179.157 135.056 179.81 135.266 180.267 135.686C180.725 136.097 180.953 136.689 180.953 137.464V142H179.945V141.202C179.647 141.51 179.315 141.743 178.951 141.902C178.587 142.051 178.195 142.126 177.775 142.126ZM176.277 140.012C176.277 140.413 176.431 140.735 176.739 140.978C177.057 141.221 177.472 141.342 177.985 141.342C178.368 141.342 178.718 141.277 179.035 141.146C179.362 141.015 179.665 140.819 179.945 140.558V139.242C179.656 139.074 179.357 138.953 179.049 138.878C178.741 138.794 178.396 138.752 178.013 138.752C177.491 138.752 177.071 138.869 176.753 139.102C176.436 139.326 176.277 139.629 176.277 140.012ZM186.194 145.066C185.737 145.066 185.275 145.001 184.808 144.87C184.351 144.749 183.926 144.576 183.534 144.352L183.968 143.568C184.388 143.783 184.771 143.941 185.116 144.044C185.462 144.147 185.807 144.198 186.152 144.198C186.778 144.198 187.249 144.049 187.566 143.75C187.893 143.451 188.056 143.017 188.056 142.448V141.076C187.795 141.403 187.478 141.655 187.104 141.832C186.731 142 186.32 142.084 185.872 142.084C185.284 142.084 184.752 141.93 184.276 141.622C183.8 141.305 183.422 140.885 183.142 140.362C182.862 139.83 182.722 139.237 182.722 138.584C182.722 137.931 182.862 137.343 183.142 136.82C183.432 136.288 183.819 135.868 184.304 135.56C184.79 135.243 185.331 135.084 185.928 135.084C186.358 135.084 186.754 135.168 187.118 135.336C187.482 135.495 187.8 135.733 188.07 136.05V135.168H189.078V142.434C189.078 143.283 188.831 143.932 188.336 144.38C187.842 144.837 187.128 145.066 186.194 145.066ZM186.124 141.202C186.526 141.202 186.894 141.123 187.23 140.964C187.566 140.796 187.842 140.567 188.056 140.278V136.904C187.832 136.615 187.548 136.391 187.202 136.232C186.866 136.064 186.507 135.98 186.124 135.98C185.667 135.98 185.256 136.092 184.892 136.316C184.538 136.54 184.253 136.848 184.038 137.24C183.833 137.632 183.73 138.08 183.73 138.584C183.73 139.079 183.833 139.527 184.038 139.928C184.253 140.32 184.538 140.633 184.892 140.866C185.256 141.09 185.667 141.202 186.124 141.202ZM194.259 142.14C193.624 142.14 193.05 141.986 192.537 141.678C192.024 141.361 191.618 140.936 191.319 140.404C191.02 139.863 190.871 139.256 190.871 138.584C190.871 137.912 191.011 137.31 191.291 136.778C191.58 136.246 191.968 135.826 192.453 135.518C192.938 135.21 193.48 135.056 194.077 135.056C194.684 135.056 195.22 135.21 195.687 135.518C196.163 135.817 196.536 136.227 196.807 136.75C197.087 137.263 197.227 137.847 197.227 138.5V138.808H191.865C191.902 139.275 192.028 139.695 192.243 140.068C192.467 140.432 192.756 140.721 193.111 140.936C193.475 141.141 193.872 141.244 194.301 141.244C194.656 141.244 194.996 141.183 195.323 141.062C195.659 140.931 195.944 140.759 196.177 140.544L196.821 141.23C196.429 141.538 196.023 141.767 195.603 141.916C195.183 142.065 194.735 142.14 194.259 142.14ZM191.893 138.08H196.219C196.172 137.669 196.046 137.305 195.841 136.988C195.645 136.661 195.393 136.405 195.085 136.218C194.786 136.031 194.45 135.938 194.077 135.938C193.704 135.938 193.363 136.031 193.055 136.218C192.747 136.395 192.49 136.647 192.285 136.974C192.089 137.291 191.958 137.66 191.893 138.08ZM205.557 145.066C204.848 144.618 204.246 144.067 203.751 143.414C203.257 142.77 202.879 142.037 202.617 141.216C202.365 140.395 202.239 139.508 202.239 138.556C202.239 137.595 202.365 136.703 202.617 135.882C202.879 135.061 203.257 134.328 203.751 133.684C204.246 133.031 204.848 132.48 205.557 132.032L206.089 132.746C205.175 133.315 204.465 134.104 203.961 135.112C203.467 136.12 203.219 137.268 203.219 138.556C203.219 139.844 203.467 140.992 203.961 142C204.465 143.008 205.175 143.797 206.089 144.366L205.557 145.066ZM208.951 142V133.292L207.383 133.992V133.068L209.329 132.2H209.959V142H208.951ZM215.722 142.154C214.975 142.154 214.312 141.939 213.734 141.51C213.164 141.081 212.716 140.488 212.39 139.732C212.063 138.967 211.9 138.089 211.9 137.1C211.9 136.101 212.063 135.224 212.39 134.468C212.716 133.712 213.164 133.119 213.734 132.69C214.312 132.261 214.975 132.046 215.722 132.046C216.468 132.046 217.126 132.261 217.696 132.69C218.274 133.119 218.727 133.712 219.054 134.468C219.38 135.224 219.544 136.101 219.544 137.1C219.544 138.089 219.38 138.967 219.054 139.732C218.727 140.488 218.274 141.081 217.696 141.51C217.126 141.939 216.468 142.154 215.722 142.154ZM215.722 141.244C216.291 141.244 216.781 141.076 217.192 140.74C217.612 140.395 217.938 139.914 218.172 139.298C218.405 138.673 218.522 137.94 218.522 137.1C218.522 136.26 218.405 135.532 218.172 134.916C217.938 134.291 217.612 133.81 217.192 133.474C216.781 133.129 216.291 132.956 215.722 132.956C215.162 132.956 214.672 133.129 214.252 133.474C213.832 133.81 213.505 134.291 213.272 134.916C213.038 135.532 212.922 136.26 212.922 137.1C212.922 137.94 213.038 138.673 213.272 139.298C213.505 139.914 213.832 140.395 214.252 140.74C214.672 141.076 215.162 141.244 215.722 141.244ZM224.647 142V135.168H225.669V142H224.647ZM225.165 133.474C224.96 133.474 224.783 133.404 224.633 133.264C224.493 133.115 224.423 132.942 224.423 132.746C224.423 132.55 224.493 132.382 224.633 132.242C224.783 132.093 224.96 132.018 225.165 132.018C225.371 132.018 225.543 132.093 225.683 132.242C225.833 132.382 225.907 132.55 225.907 132.746C225.907 132.942 225.833 133.115 225.683 133.264C225.543 133.404 225.371 133.474 225.165 133.474ZM230.369 142.14C229.781 142.14 229.333 142 229.025 141.72C228.726 141.431 228.577 141.015 228.577 140.474V136.008H227.163V135.168H228.577V133.292L229.599 133.054V135.168H231.559V136.008H229.599V140.208C229.599 140.572 229.674 140.833 229.823 140.992C229.982 141.151 230.238 141.23 230.593 141.23C230.77 141.23 230.929 141.216 231.069 141.188C231.209 141.16 231.372 141.113 231.559 141.048V141.958C231.372 142.023 231.176 142.07 230.971 142.098C230.766 142.126 230.565 142.14 230.369 142.14ZM235.999 142.14C235.364 142.14 234.79 141.986 234.277 141.678C233.764 141.361 233.358 140.936 233.059 140.404C232.76 139.863 232.611 139.256 232.611 138.584C232.611 137.912 232.751 137.31 233.031 136.778C233.32 136.246 233.708 135.826 234.193 135.518C234.678 135.21 235.22 135.056 235.817 135.056C236.424 135.056 236.96 135.21 237.427 135.518C237.903 135.817 238.276 136.227 238.547 136.75C238.827 137.263 238.967 137.847 238.967 138.5V138.808H233.605C233.642 139.275 233.768 139.695 233.983 140.068C234.207 140.432 234.496 140.721 234.851 140.936C235.215 141.141 235.612 141.244 236.041 141.244C236.396 141.244 236.736 141.183 237.063 141.062C237.399 140.931 237.684 140.759 237.917 140.544L238.561 141.23C238.169 141.538 237.763 141.767 237.343 141.916C236.923 142.065 236.475 142.14 235.999 142.14ZM233.633 138.08H237.959C237.912 137.669 237.786 137.305 237.581 136.988C237.385 136.661 237.133 136.405 236.825 136.218C236.526 136.031 236.19 135.938 235.817 135.938C235.444 135.938 235.103 136.031 234.795 136.218C234.487 136.395 234.23 136.647 234.025 136.974C233.829 137.291 233.698 137.66 233.633 138.08ZM240.712 142V135.168H241.734V136.232C241.995 135.84 242.294 135.546 242.63 135.35C242.966 135.154 243.344 135.056 243.764 135.056C244.249 135.056 244.674 135.177 245.038 135.42C245.402 135.653 245.677 135.975 245.864 136.386C246.135 135.947 246.457 135.616 246.83 135.392C247.213 135.168 247.651 135.056 248.146 135.056C248.603 135.056 249.005 135.163 249.35 135.378C249.705 135.593 249.98 135.891 250.176 136.274C250.372 136.647 250.47 137.086 250.47 137.59V142H249.448V137.842C249.448 137.245 249.299 136.773 249 136.428C248.701 136.083 248.291 135.91 247.768 135.91C247.413 135.91 247.091 135.999 246.802 136.176C246.522 136.353 246.275 136.624 246.06 136.988C246.079 137.081 246.093 137.179 246.102 137.282C246.111 137.385 246.116 137.487 246.116 137.59V142H245.094V137.842C245.094 137.245 244.94 136.773 244.632 136.428C244.333 136.083 243.923 135.91 243.4 135.91C242.7 135.91 242.145 136.246 241.734 136.918V142H240.712ZM254.652 142.14C254.092 142.14 253.574 142.056 253.098 141.888C252.622 141.711 252.216 141.459 251.88 141.132L252.426 140.46C252.837 140.759 253.215 140.978 253.56 141.118C253.906 141.249 254.26 141.314 254.624 141.314C255.119 141.314 255.53 141.197 255.856 140.964C256.183 140.731 256.346 140.432 256.346 140.068C256.346 139.788 256.248 139.569 256.052 139.41C255.866 139.251 255.553 139.13 255.114 139.046L253.994 138.85C253.332 138.729 252.842 138.523 252.524 138.234C252.216 137.945 252.062 137.553 252.062 137.058C252.062 136.666 252.165 136.321 252.37 136.022C252.585 135.723 252.879 135.49 253.252 135.322C253.626 135.145 254.05 135.056 254.526 135.056C254.993 135.056 255.436 135.126 255.856 135.266C256.276 135.397 256.701 135.611 257.13 135.91L256.626 136.624C256.272 136.372 255.917 136.19 255.562 136.078C255.208 135.957 254.848 135.896 254.484 135.896C254.036 135.896 253.677 135.994 253.406 136.19C253.136 136.386 253 136.652 253 136.988C253 137.268 253.084 137.483 253.252 137.632C253.43 137.781 253.738 137.893 254.176 137.968L255.324 138.178C256.015 138.299 256.519 138.509 256.836 138.808C257.154 139.107 257.312 139.508 257.312 140.012C257.312 140.413 257.196 140.777 256.962 141.104C256.729 141.421 256.412 141.673 256.01 141.86C255.609 142.047 255.156 142.14 254.652 142.14ZM259.064 132.046C259.774 132.494 260.376 133.045 260.87 133.698C261.365 134.342 261.738 135.075 261.99 135.896C262.252 136.717 262.382 137.604 262.382 138.556C262.382 139.517 262.252 140.409 261.99 141.23C261.738 142.051 261.365 142.784 260.87 143.428C260.376 144.081 259.774 144.632 259.064 145.08L258.532 144.366C259.447 143.797 260.152 143.008 260.646 142C261.15 140.992 261.402 139.844 261.402 138.556C261.402 137.268 261.15 136.12 260.646 135.112C260.152 134.104 259.447 133.315 258.532 132.746L259.064 132.046Z" fill="#151515"/>
<path d="M127.41 179.154C126.645 179.154 125.935 179.019 125.282 178.748C124.629 178.468 123.999 178.048 123.392 177.488L124.05 176.704C124.638 177.255 125.189 177.647 125.702 177.88C126.225 178.113 126.803 178.23 127.438 178.23C127.942 178.23 128.39 178.146 128.782 177.978C129.183 177.801 129.496 177.563 129.72 177.264C129.944 176.965 130.056 176.625 130.056 176.242C130.056 175.747 129.893 175.374 129.566 175.122C129.239 174.861 128.675 174.66 127.872 174.52L126.29 174.254C125.394 174.095 124.736 173.825 124.316 173.442C123.905 173.05 123.7 172.527 123.7 171.874C123.7 171.323 123.84 170.838 124.12 170.418C124.409 169.989 124.806 169.653 125.31 169.41C125.814 169.167 126.397 169.046 127.06 169.046C127.788 169.046 128.465 169.149 129.09 169.354C129.715 169.55 130.331 169.863 130.938 170.292L130.378 171.132C129.874 170.749 129.342 170.46 128.782 170.264C128.222 170.059 127.653 169.956 127.074 169.956C126.617 169.956 126.211 170.035 125.856 170.194C125.511 170.353 125.235 170.567 125.03 170.838C124.834 171.109 124.736 171.417 124.736 171.762C124.736 172.191 124.881 172.527 125.17 172.77C125.459 173.013 125.931 173.185 126.584 173.288L128.152 173.554C129.197 173.741 129.953 174.044 130.42 174.464C130.896 174.875 131.134 175.449 131.134 176.186C131.134 176.755 130.971 177.264 130.644 177.712C130.327 178.16 129.888 178.515 129.328 178.776C128.768 179.028 128.129 179.154 127.41 179.154ZM135.989 179.14C135.355 179.14 134.781 178.986 134.267 178.678C133.754 178.361 133.348 177.936 133.049 177.404C132.751 176.863 132.601 176.256 132.601 175.584C132.601 174.912 132.741 174.31 133.021 173.778C133.311 173.246 133.698 172.826 134.183 172.518C134.669 172.21 135.21 172.056 135.807 172.056C136.414 172.056 136.951 172.21 137.417 172.518C137.893 172.817 138.267 173.227 138.537 173.75C138.817 174.263 138.957 174.847 138.957 175.5V175.808H133.595C133.633 176.275 133.759 176.695 133.973 177.068C134.197 177.432 134.487 177.721 134.841 177.936C135.205 178.141 135.602 178.244 136.031 178.244C136.386 178.244 136.727 178.183 137.053 178.062C137.389 177.931 137.674 177.759 137.907 177.544L138.551 178.23C138.159 178.538 137.753 178.767 137.333 178.916C136.913 179.065 136.465 179.14 135.989 179.14ZM133.623 175.08H137.949C137.903 174.669 137.777 174.305 137.571 173.988C137.375 173.661 137.123 173.405 136.815 173.218C136.517 173.031 136.181 172.938 135.807 172.938C135.434 172.938 135.093 173.031 134.785 173.218C134.477 173.395 134.221 173.647 134.015 173.974C133.819 174.291 133.689 174.66 133.623 175.08ZM140.702 179V168.892L141.724 168.682V179H140.702ZM146.9 179.14C146.265 179.14 145.691 178.986 145.178 178.678C144.664 178.361 144.258 177.936 143.96 177.404C143.661 176.863 143.512 176.256 143.512 175.584C143.512 174.912 143.652 174.31 143.932 173.778C144.221 173.246 144.608 172.826 145.094 172.518C145.579 172.21 146.12 172.056 146.718 172.056C147.324 172.056 147.861 172.21 148.328 172.518C148.804 172.817 149.177 173.227 149.448 173.75C149.728 174.263 149.868 174.847 149.868 175.5V175.808H144.506C144.543 176.275 144.669 176.695 144.884 177.068C145.108 177.432 145.397 177.721 145.752 177.936C146.116 178.141 146.512 178.244 146.942 178.244C147.296 178.244 147.637 178.183 147.964 178.062C148.3 177.931 148.584 177.759 148.818 177.544L149.462 178.23C149.07 178.538 148.664 178.767 148.244 178.916C147.824 179.065 147.376 179.14 146.9 179.14ZM144.534 175.08H148.86C148.813 174.669 148.687 174.305 148.482 173.988C148.286 173.661 148.034 173.405 147.726 173.218C147.427 173.031 147.091 172.938 146.718 172.938C146.344 172.938 146.004 173.031 145.696 173.218C145.388 173.395 145.131 173.647 144.926 173.974C144.73 174.291 144.599 174.66 144.534 175.08ZM154.678 179.112C154.044 179.112 153.47 178.958 152.957 178.65C152.453 178.333 152.051 177.908 151.753 177.376C151.454 176.835 151.305 176.237 151.305 175.584C151.305 174.921 151.454 174.324 151.753 173.792C152.051 173.26 152.453 172.84 152.957 172.532C153.47 172.215 154.044 172.056 154.678 172.056C155.183 172.056 155.663 172.149 156.121 172.336C156.578 172.523 156.975 172.784 157.311 173.12L156.653 173.834C156.41 173.563 156.116 173.353 155.771 173.204C155.425 173.055 155.075 172.98 154.721 172.98C154.273 172.98 153.867 173.097 153.503 173.33C153.148 173.563 152.863 173.876 152.649 174.268C152.434 174.66 152.327 175.099 152.327 175.584C152.327 176.069 152.434 176.508 152.649 176.9C152.863 177.292 153.148 177.605 153.503 177.838C153.867 178.071 154.273 178.188 154.721 178.188C155.075 178.188 155.425 178.113 155.771 177.964C156.116 177.805 156.41 177.595 156.653 177.334L157.311 178.048C156.975 178.384 156.578 178.645 156.121 178.832C155.663 179.019 155.183 179.112 154.678 179.112ZM161.476 179.14C160.888 179.14 160.44 179 160.132 178.72C159.834 178.431 159.684 178.015 159.684 177.474V173.008H158.27V172.168H159.684V170.292L160.706 170.054V172.168H162.666V173.008H160.706V177.208C160.706 177.572 160.781 177.833 160.93 177.992C161.089 178.151 161.346 178.23 161.7 178.23C161.878 178.23 162.036 178.216 162.176 178.188C162.316 178.16 162.48 178.113 162.666 178.048V178.958C162.48 179.023 162.284 179.07 162.078 179.098C161.873 179.126 161.672 179.14 161.476 179.14ZM169.545 179.126C169.06 179.126 168.63 179.037 168.257 178.86C167.884 178.683 167.59 178.44 167.375 178.132C167.17 177.815 167.067 177.451 167.067 177.04C167.067 176.629 167.174 176.275 167.389 175.976C167.604 175.668 167.902 175.43 168.285 175.262C168.668 175.094 169.116 175.01 169.629 175.01C170.021 175.01 170.39 175.052 170.735 175.136C171.09 175.22 171.416 175.355 171.715 175.542V174.604C171.715 174.044 171.566 173.624 171.267 173.344C170.968 173.055 170.53 172.91 169.951 172.91C169.634 172.91 169.307 172.957 168.971 173.05C168.644 173.143 168.28 173.293 167.879 173.498L167.501 172.714C168.416 172.275 169.274 172.056 170.077 172.056C170.926 172.056 171.58 172.266 172.037 172.686C172.494 173.097 172.723 173.689 172.723 174.464V179H171.715V178.202C171.416 178.51 171.085 178.743 170.721 178.902C170.357 179.051 169.965 179.126 169.545 179.126ZM168.047 177.012C168.047 177.413 168.201 177.735 168.509 177.978C168.826 178.221 169.242 178.342 169.755 178.342C170.138 178.342 170.488 178.277 170.805 178.146C171.132 178.015 171.435 177.819 171.715 177.558V176.242C171.426 176.074 171.127 175.953 170.819 175.878C170.511 175.794 170.166 175.752 169.783 175.752C169.26 175.752 168.84 175.869 168.523 176.102C168.206 176.326 168.047 176.629 168.047 177.012ZM174.8 179V168.892L175.822 168.682V179H174.8ZM177.917 179V168.892L178.939 168.682V179H177.917ZM187.62 182.066C186.911 181.618 186.309 181.067 185.814 180.414C185.319 179.77 184.941 179.037 184.68 178.216C184.428 177.395 184.302 176.508 184.302 175.556C184.302 174.595 184.428 173.703 184.68 172.882C184.941 172.061 185.319 171.328 185.814 170.684C186.309 170.031 186.911 169.48 187.62 169.032L188.152 169.746C187.237 170.315 186.528 171.104 186.024 172.112C185.529 173.12 185.282 174.268 185.282 175.556C185.282 176.844 185.529 177.992 186.024 179C186.528 180.008 187.237 180.797 188.152 181.366L187.62 182.066ZM192.721 179.154C191.433 179.154 190.322 178.711 189.389 177.824L190.019 177.138C190.448 177.539 190.873 177.833 191.293 178.02C191.722 178.197 192.203 178.286 192.735 178.286C193.211 178.286 193.631 178.188 193.995 177.992C194.359 177.796 194.639 177.521 194.835 177.166C195.04 176.811 195.143 176.405 195.143 175.948C195.143 175.295 194.919 174.767 194.471 174.366C194.032 173.965 193.454 173.764 192.735 173.764C192.362 173.764 191.998 173.811 191.643 173.904C191.288 173.988 190.92 174.128 190.537 174.324L189.837 174.1L190.061 169.2H195.633V170.082H190.929L190.775 173.47C191.148 173.283 191.508 173.153 191.853 173.078C192.198 172.994 192.562 172.952 192.945 172.952C193.589 172.952 194.149 173.078 194.625 173.33C195.11 173.573 195.484 173.918 195.745 174.366C196.016 174.805 196.151 175.318 196.151 175.906C196.151 176.55 196.006 177.115 195.717 177.6C195.428 178.085 195.026 178.468 194.513 178.748C194 179.019 193.402 179.154 192.721 179.154ZM201.475 179.154C200.729 179.154 200.066 178.939 199.487 178.51C198.918 178.081 198.47 177.488 198.143 176.732C197.817 175.967 197.653 175.089 197.653 174.1C197.653 173.101 197.817 172.224 198.143 171.468C198.47 170.712 198.918 170.119 199.487 169.69C200.066 169.261 200.729 169.046 201.475 169.046C202.222 169.046 202.88 169.261 203.449 169.69C204.028 170.119 204.481 170.712 204.807 171.468C205.134 172.224 205.297 173.101 205.297 174.1C205.297 175.089 205.134 175.967 204.807 176.732C204.481 177.488 204.028 178.081 203.449 178.51C202.88 178.939 202.222 179.154 201.475 179.154ZM201.475 178.244C202.045 178.244 202.535 178.076 202.945 177.74C203.365 177.395 203.692 176.914 203.925 176.298C204.159 175.673 204.275 174.94 204.275 174.1C204.275 173.26 204.159 172.532 203.925 171.916C203.692 171.291 203.365 170.81 202.945 170.474C202.535 170.129 202.045 169.956 201.475 169.956C200.915 169.956 200.425 170.129 200.005 170.474C199.585 170.81 199.259 171.291 199.025 171.916C198.792 172.532 198.675 173.26 198.675 174.1C198.675 174.94 198.792 175.673 199.025 176.298C199.259 176.914 199.585 177.395 200.005 177.74C200.425 178.076 200.915 178.244 201.475 178.244ZM210.401 179V172.168H211.423V179H210.401ZM210.919 170.474C210.714 170.474 210.537 170.404 210.387 170.264C210.247 170.115 210.177 169.942 210.177 169.746C210.177 169.55 210.247 169.382 210.387 169.242C210.537 169.093 210.714 169.018 210.919 169.018C211.125 169.018 211.297 169.093 211.437 169.242C211.587 169.382 211.661 169.55 211.661 169.746C211.661 169.942 211.587 170.115 211.437 170.264C211.297 170.404 211.125 170.474 210.919 170.474ZM216.123 179.14C215.535 179.14 215.087 179 214.779 178.72C214.48 178.431 214.331 178.015 214.331 177.474V173.008H212.917V172.168H214.331V170.292L215.353 170.054V172.168H217.313V173.008H215.353V177.208C215.353 177.572 215.427 177.833 215.577 177.992C215.735 178.151 215.992 178.23 216.347 178.23C216.524 178.23 216.683 178.216 216.823 178.188C216.963 178.16 217.126 178.113 217.313 178.048V178.958C217.126 179.023 216.93 179.07 216.725 179.098C216.519 179.126 216.319 179.14 216.123 179.14ZM221.753 179.14C221.118 179.14 220.544 178.986 220.031 178.678C219.518 178.361 219.112 177.936 218.813 177.404C218.514 176.863 218.365 176.256 218.365 175.584C218.365 174.912 218.505 174.31 218.785 173.778C219.074 173.246 219.462 172.826 219.947 172.518C220.432 172.21 220.974 172.056 221.571 172.056C222.178 172.056 222.714 172.21 223.181 172.518C223.657 172.817 224.03 173.227 224.301 173.75C224.581 174.263 224.721 174.847 224.721 175.5V175.808H219.359C219.396 176.275 219.522 176.695 219.737 177.068C219.961 177.432 220.25 177.721 220.605 177.936C220.969 178.141 221.366 178.244 221.795 178.244C222.15 178.244 222.49 178.183 222.817 178.062C223.153 177.931 223.438 177.759 223.671 177.544L224.315 178.23C223.923 178.538 223.517 178.767 223.097 178.916C222.677 179.065 222.229 179.14 221.753 179.14ZM219.387 175.08H223.713C223.666 174.669 223.54 174.305 223.335 173.988C223.139 173.661 222.887 173.405 222.579 173.218C222.28 173.031 221.944 172.938 221.571 172.938C221.198 172.938 220.857 173.031 220.549 173.218C220.241 173.395 219.984 173.647 219.779 173.974C219.583 174.291 219.452 174.66 219.387 175.08ZM226.466 179V172.168H227.488V173.232C227.749 172.84 228.048 172.546 228.384 172.35C228.72 172.154 229.098 172.056 229.518 172.056C230.003 172.056 230.428 172.177 230.792 172.42C231.156 172.653 231.431 172.975 231.618 173.386C231.889 172.947 232.211 172.616 232.584 172.392C232.967 172.168 233.405 172.056 233.9 172.056C234.357 172.056 234.759 172.163 235.104 172.378C235.459 172.593 235.734 172.891 235.93 173.274C236.126 173.647 236.224 174.086 236.224 174.59V179H235.202V174.842C235.202 174.245 235.053 173.773 234.754 173.428C234.455 173.083 234.045 172.91 233.522 172.91C233.167 172.91 232.845 172.999 232.556 173.176C232.276 173.353 232.029 173.624 231.814 173.988C231.833 174.081 231.847 174.179 231.856 174.282C231.865 174.385 231.87 174.487 231.87 174.59V179H230.848V174.842C230.848 174.245 230.694 173.773 230.386 173.428C230.087 173.083 229.677 172.91 229.154 172.91C228.454 172.91 227.899 173.246 227.488 173.918V179H226.466ZM240.406 179.14C239.846 179.14 239.328 179.056 238.852 178.888C238.376 178.711 237.97 178.459 237.634 178.132L238.18 177.46C238.591 177.759 238.969 177.978 239.314 178.118C239.66 178.249 240.014 178.314 240.378 178.314C240.873 178.314 241.284 178.197 241.61 177.964C241.937 177.731 242.1 177.432 242.1 177.068C242.1 176.788 242.002 176.569 241.806 176.41C241.62 176.251 241.307 176.13 240.868 176.046L239.748 175.85C239.086 175.729 238.596 175.523 238.278 175.234C237.97 174.945 237.816 174.553 237.816 174.058C237.816 173.666 237.919 173.321 238.124 173.022C238.339 172.723 238.633 172.49 239.006 172.322C239.38 172.145 239.804 172.056 240.28 172.056C240.747 172.056 241.19 172.126 241.61 172.266C242.03 172.397 242.455 172.611 242.884 172.91L242.38 173.624C242.026 173.372 241.671 173.19 241.316 173.078C240.962 172.957 240.602 172.896 240.238 172.896C239.79 172.896 239.431 172.994 239.16 173.19C238.89 173.386 238.754 173.652 238.754 173.988C238.754 174.268 238.838 174.483 239.006 174.632C239.184 174.781 239.492 174.893 239.93 174.968L241.078 175.178C241.769 175.299 242.273 175.509 242.59 175.808C242.908 176.107 243.066 176.508 243.066 177.012C243.066 177.413 242.95 177.777 242.716 178.104C242.483 178.421 242.166 178.673 241.764 178.86C241.363 179.047 240.91 179.14 240.406 179.14ZM244.818 169.046C245.528 169.494 246.13 170.045 246.624 170.698C247.119 171.342 247.492 172.075 247.744 172.896C248.006 173.717 248.136 174.604 248.136 175.556C248.136 176.517 248.006 177.409 247.744 178.23C247.492 179.051 247.119 179.784 246.624 180.428C246.13 181.081 245.528 181.632 244.818 182.08L244.286 181.366C245.201 180.797 245.906 180.008 246.4 179C246.904 177.992 247.156 176.844 247.156 175.556C247.156 174.268 246.904 173.12 246.4 172.112C245.906 171.104 245.201 170.315 244.286 169.746L244.818 169.046Z" fill="#151515"/>
</g>
<path d="M176.333 55C176.333 56.4728 177.527 57.6667 179 57.6667C180.473 57.6667 181.667 56.4728 181.667 55C181.667 53.5272 180.473 52.3333 179 52.3333C177.527 52.3333 176.333 53.5272 176.333 55ZM179 55V55.5H235V55V54.5H179V55Z" fill="#C806CC"/>
<path d="M235 43C235 40.7909 236.791 39 239 39H269C271.209 39 273 40.7909 273 43V67C273 69.2091 271.209 71 269 71H239C236.791 71 235 69.2091 235 67V43Z" fill="#C806CC"/>
<path d="M249.89 61V59.74L255.002 54.304C255.518 53.764 255.866 53.302 256.046 52.918C256.238 52.534 256.334 52.126 256.334 51.694C256.334 51.13 256.106 50.662 255.65 50.29C255.194 49.918 254.618 49.732 253.922 49.732C253.346 49.732 252.806 49.846 252.302 50.074C251.798 50.302 251.24 50.698 250.628 51.262L249.656 50.074C250.988 48.826 252.422 48.202 253.958 48.202C254.762 48.202 255.47 48.346 256.082 48.634C256.694 48.922 257.168 49.324 257.504 49.84C257.852 50.344 258.026 50.926 258.026 51.586C258.026 52.006 257.972 52.396 257.864 52.756C257.756 53.104 257.57 53.476 257.306 53.872C257.042 54.256 256.67 54.7 256.19 55.204L252.086 59.524L258.278 59.506V61H249.89Z" fill="white"/>
<path d="M14 43C14 40.7909 15.7909 39 18 39H48C50.2091 39 52 40.7909 52 43V67C52 69.2091 50.2091 71 48 71H18C15.7909 71 14 69.2091 14 67V43Z" fill="#C806CC"/>
<path d="M32.8879 61V50.254L30.6199 51.208V49.624L33.5359 48.4H34.6699V61H32.8879Z" fill="white"/>
<path d="M110.667 55C110.667 56.4728 109.473 57.6667 108 57.6667C106.527 57.6667 105.333 56.4728 105.333 55C105.333 53.5272 106.527 52.3333 108 52.3333C109.473 52.3333 110.667 53.5272 110.667 55ZM108 55V55.5H52V55V54.5H108V55Z" fill="#C806CC"/>
<path d="M14 126C14 123.791 15.7909 122 18 122H48C50.2091 122 52 123.791 52 126V150C52 152.209 50.2091 154 48 154H18C15.7909 154 14 152.209 14 150V126Z" fill="#C806CC"/>
<path d="M32.8587 144.198C31.9587 144.198 31.1127 144.042 30.3207 143.73C29.5407 143.406 28.8627 142.944 28.2867 142.344L29.4567 141.228C29.9607 141.756 30.4707 142.134 30.9867 142.362C31.5147 142.578 32.1327 142.686 32.8407 142.686C33.6927 142.686 34.3827 142.476 34.9107 142.056C35.4507 141.636 35.7207 141.096 35.7207 140.436C35.7207 139.812 35.4927 139.308 35.0367 138.924C34.5927 138.54 34.0167 138.348 33.3087 138.348H31.7787V136.89H33.1827C33.8187 136.89 34.3287 136.704 34.7127 136.332C35.0967 135.96 35.2887 135.474 35.2887 134.874C35.2887 134.466 35.1807 134.106 34.9647 133.794C34.7487 133.47 34.4487 133.218 34.0647 133.038C33.6927 132.846 33.2667 132.75 32.7867 132.75C32.1507 132.75 31.5867 132.864 31.0947 133.092C30.6147 133.308 30.1167 133.692 29.6007 134.244L28.4307 133.128C29.0067 132.504 29.6727 132.03 30.4287 131.706C31.1847 131.37 31.9827 131.202 32.8227 131.202C33.6387 131.202 34.3587 131.352 34.9827 131.652C35.6187 131.952 36.1167 132.366 36.4767 132.894C36.8487 133.422 37.0347 134.028 37.0347 134.712C37.0347 135.384 36.8127 135.978 36.3687 136.494C35.9367 137.01 35.3667 137.37 34.6587 137.574C35.5107 137.754 36.1887 138.114 36.6927 138.654C37.1967 139.182 37.4487 139.806 37.4487 140.526C37.4487 141.234 37.2507 141.864 36.8547 142.416C36.4707 142.968 35.9307 143.406 35.2347 143.73C34.5387 144.042 33.7467 144.198 32.8587 144.198Z" fill="white"/>
<path d="M101.667 138C101.667 139.473 100.473 140.667 99 140.667C97.5272 140.667 96.3333 139.473 96.3333 138C96.3333 136.527 97.5272 135.333 99 135.333C100.473 135.333 101.667 136.527 101.667 138ZM99 138V138.5H52V138V137.5H99V138Z" fill="#C806CC"/>
<defs>
<filter id="filter0_d_3518_17624" x="90" y="69" width="212" height="145" filterUnits="userSpaceOnUse" color-interpolation-filters="sRGB">
<feFlood flood-opacity="0" result="BackgroundImageFix"/>
<feColorMatrix in="SourceAlpha" type="matrix" values="0 0 0 0 0 0 0 0 0 0 0 0 0 0 0 0 0 0 127 0" result="hardAlpha"/>
<feOffset dy="4"/>
<feGaussianBlur stdDeviation="4.5"/>
<feColorMatrix type="matrix" values="0 0 0 0 0.160784 0 0 0 0 0.160784 0 0 0 0 0.160784 0 0 0 0.15 0"/>
<feBlend mode="normal" in2="BackgroundImageFix" result="effect1_dropShadow_3518_17624"/>
<feBlend mode="normal" in="SourceGraphic" in2="effect1_dropShadow_3518_17624" result="shape"/>
</filter>
</defs>
</svg>
