<svg width="401" height="258" viewBox="0 0 401 258" fill="none" xmlns="http://www.w3.org/2000/svg">
<rect width="401" height="258" fill="white"/>
<rect width="240" height="69" transform="translate(83 54)" fill="white"/>
<mask id="path-1-inside-1_3518_24221" fill="white">
<path d="M99 76C99 72.6863 101.686 70 105 70H147V107H105C101.686 107 99 104.314 99 101V76Z"/>
</mask>
<path d="M99 76C99 72.6863 101.686 70 105 70H147V107H105C101.686 107 99 104.314 99 101V76Z" fill="white"/>
<path d="M147 70H149V68H147V70ZM147 107V109H149V107H147ZM105 70V72H147V70V68H105V70ZM147 70H145V107H147H149V70H147ZM147 107V105H105V107V109H147V107ZM99 101H101V76H99H97V101H99ZM105 107V105C102.791 105 101 103.209 101 101H99H97C97 105.418 100.582 109 105 109V107ZM105 70V68C100.582 68 97 71.5817 97 76H99H101C101 73.7909 102.791 72 105 72V70Z" fill="#0066CC" mask="url(#path-1-inside-1_3518_24221)"/>
<path d="M115 84.5C115 82.2909 116.791 80.5 119 80.5H127C129.209 80.5 131 82.2909 131 84.5V92.5C131 94.7091 129.209 96.5 127 96.5H119C116.791 96.5 115 94.7091 115 92.5V84.5Z" fill="#0066CC"/>
<path d="M127.127 84.1757C127.361 83.9414 127.741 83.9414 127.976 84.1757L128.824 85.0244C129.058 85.2587 129.058 85.6387 128.824 85.873L121.924 92.7724C121.69 93.0067 121.309 93.0067 121.075 92.7724L117.176 88.873C116.942 88.6387 116.942 88.2587 117.176 88.0244L118.024 87.1757C118.259 86.9415 118.639 86.9414 118.873 87.1757L121.5 89.8027L127.127 84.1757Z" fill="white"/>
<mask id="path-5-inside-2_3518_24221" fill="white">
<path d="M145 70H264C267.314 70 270 72.6863 270 76V101C270 104.314 267.314 107 264 107H145V70Z"/>
</mask>
<path d="M145 70H264C267.314 70 270 72.6863 270 76V101C270 104.314 267.314 107 264 107H145V70Z" fill="white"/>
<path d="M144 68H264C268.418 68 272 71.5817 272 76H268C268 73.7909 266.209 72 264 72H146L144 68ZM272 101C272 105.418 268.418 109 264 109H144L146 105H264C266.209 105 268 103.209 268 101H272ZM144 109V68L146 72V105L144 109ZM264 68C268.418 68 272 71.5817 272 76V101C272 105.418 268.418 109 264 109V105C266.209 105 268 103.209 268 101V76C268 73.7909 266.209 72 264 72V68Z" fill="#0066CC" mask="url(#path-5-inside-2_3518_24221)"/>
<path d="M163.142 93V84.292L161.574 84.992V84.068L163.52 83.2H164.15V93H163.142ZM169.913 93.154C169.166 93.154 168.504 92.9393 167.925 92.51C167.356 92.0807 166.908 91.488 166.581 90.732C166.254 89.9667 166.091 89.0893 166.091 88.1C166.091 87.1013 166.254 86.224 166.581 85.468C166.908 84.712 167.356 84.1193 167.925 83.69C168.504 83.2607 169.166 83.046 169.913 83.046C170.66 83.046 171.318 83.2607 171.887 83.69C172.466 84.1193 172.918 84.712 173.245 85.468C173.572 86.224 173.735 87.1013 173.735 88.1C173.735 89.0893 173.572 89.9667 173.245 90.732C172.918 91.488 172.466 92.0807 171.887 92.51C171.318 92.9393 170.66 93.154 169.913 93.154ZM169.913 92.244C170.482 92.244 170.972 92.076 171.383 91.74C171.803 91.3947 172.13 90.914 172.363 90.298C172.596 89.6727 172.713 88.94 172.713 88.1C172.713 87.26 172.596 86.532 172.363 85.916C172.13 85.2907 171.803 84.81 171.383 84.474C170.972 84.1287 170.482 83.956 169.913 83.956C169.353 83.956 168.863 84.1287 168.443 84.474C168.023 84.81 167.696 85.2907 167.463 85.916C167.23 86.532 167.113 87.26 167.113 88.1C167.113 88.94 167.23 89.6727 167.463 90.298C167.696 90.914 168.023 91.3947 168.443 91.74C168.863 92.076 169.353 92.244 169.913 92.244ZM180.967 93.14C180.407 93.14 179.889 93.056 179.413 92.888C178.937 92.7107 178.531 92.4587 178.195 92.132L178.741 91.46C179.151 91.7587 179.529 91.978 179.875 92.118C180.22 92.2487 180.575 92.314 180.939 92.314C181.433 92.314 181.844 92.1973 182.171 91.964C182.497 91.7307 182.661 91.432 182.661 91.068C182.661 90.788 182.563 90.5687 182.367 90.41C182.18 90.2513 181.867 90.13 181.429 90.046L180.309 89.85C179.646 89.7287 179.156 89.5233 178.839 89.234C178.531 88.9447 178.377 88.5527 178.377 88.058C178.377 87.666 178.479 87.3207 178.685 87.022C178.899 86.7233 179.193 86.49 179.567 86.322C179.94 86.1447 180.365 86.056 180.841 86.056C181.307 86.056 181.751 86.126 182.171 86.266C182.591 86.3967 183.015 86.6113 183.445 86.91L182.941 87.624C182.586 87.372 182.231 87.19 181.877 87.078C181.522 86.9567 181.163 86.896 180.799 86.896C180.351 86.896 179.991 86.994 179.721 87.19C179.45 87.386 179.315 87.652 179.315 87.988C179.315 88.268 179.399 88.4827 179.567 88.632C179.744 88.7813 180.052 88.8933 180.491 88.968L181.639 89.178C182.329 89.2993 182.833 89.5093 183.151 89.808C183.468 90.1067 183.627 90.508 183.627 91.012C183.627 91.4133 183.51 91.7773 183.277 92.104C183.043 92.4213 182.726 92.6733 182.325 92.86C181.923 93.0467 181.471 93.14 180.967 93.14ZM188.331 93.14C187.697 93.14 187.123 92.986 186.609 92.678C186.096 92.3607 185.69 91.936 185.391 91.404C185.093 90.8627 184.943 90.256 184.943 89.584C184.943 88.912 185.083 88.31 185.363 87.778C185.653 87.246 186.04 86.826 186.525 86.518C187.011 86.21 187.552 86.056 188.149 86.056C188.756 86.056 189.293 86.21 189.759 86.518C190.235 86.8167 190.609 87.2273 190.879 87.75C191.159 88.2633 191.299 88.8467 191.299 89.5V89.808H185.937C185.975 90.2747 186.101 90.6947 186.315 91.068C186.539 91.432 186.829 91.7213 187.183 91.936C187.547 92.1413 187.944 92.244 188.373 92.244C188.728 92.244 189.069 92.1833 189.395 92.062C189.731 91.9313 190.016 91.7587 190.249 91.544L190.893 92.23C190.501 92.538 190.095 92.7667 189.675 92.916C189.255 93.0653 188.807 93.14 188.331 93.14ZM185.965 89.08H190.291C190.245 88.6693 190.119 88.3053 189.913 87.988C189.717 87.6613 189.465 87.4047 189.157 87.218C188.859 87.0313 188.523 86.938 188.149 86.938C187.776 86.938 187.435 87.0313 187.127 87.218C186.819 87.3953 186.563 87.6473 186.357 87.974C186.161 88.2913 186.031 88.66 185.965 89.08ZM193.044 93V82.892L194.066 82.682V93H193.044ZM199.241 93.14C198.607 93.14 198.033 92.986 197.519 92.678C197.006 92.3607 196.6 91.936 196.301 91.404C196.003 90.8627 195.853 90.256 195.853 89.584C195.853 88.912 195.993 88.31 196.273 87.778C196.563 87.246 196.95 86.826 197.435 86.518C197.921 86.21 198.462 86.056 199.059 86.056C199.666 86.056 200.203 86.21 200.669 86.518C201.145 86.8167 201.519 87.2273 201.789 87.75C202.069 88.2633 202.209 88.8467 202.209 89.5V89.808H196.847C196.885 90.2747 197.011 90.6947 197.225 91.068C197.449 91.432 197.739 91.7213 198.093 91.936C198.457 92.1413 198.854 92.244 199.283 92.244C199.638 92.244 199.979 92.1833 200.305 92.062C200.641 91.9313 200.926 91.7587 201.159 91.544L201.803 92.23C201.411 92.538 201.005 92.7667 200.585 92.916C200.165 93.0653 199.717 93.14 199.241 93.14ZM196.875 89.08H201.201C201.155 88.6693 201.029 88.3053 200.823 87.988C200.627 87.6613 200.375 87.4047 200.067 87.218C199.769 87.0313 199.433 86.938 199.059 86.938C198.686 86.938 198.345 87.0313 198.037 87.218C197.729 87.3953 197.473 87.6473 197.267 87.974C197.071 88.2913 196.941 88.66 196.875 89.08ZM207.02 93.112C206.386 93.112 205.812 92.958 205.298 92.65C204.794 92.3327 204.393 91.908 204.094 91.376C203.796 90.8347 203.646 90.2373 203.646 89.584C203.646 88.9213 203.796 88.324 204.094 87.792C204.393 87.26 204.794 86.84 205.298 86.532C205.812 86.2147 206.386 86.056 207.02 86.056C207.524 86.056 208.005 86.1493 208.462 86.336C208.92 86.5227 209.316 86.784 209.652 87.12L208.994 87.834C208.752 87.5633 208.458 87.3533 208.112 87.204C207.767 87.0547 207.417 86.98 207.062 86.98C206.614 86.98 206.208 87.0967 205.844 87.33C205.49 87.5633 205.205 87.876 204.99 88.268C204.776 88.66 204.668 89.0987 204.668 89.584C204.668 90.0693 204.776 90.508 204.99 90.9C205.205 91.292 205.49 91.6047 205.844 91.838C206.208 92.0713 206.614 92.188 207.062 92.188C207.417 92.188 207.767 92.1133 208.112 91.964C208.458 91.8053 208.752 91.5953 208.994 91.334L209.652 92.048C209.316 92.384 208.92 92.6453 208.462 92.832C208.005 93.0187 207.524 93.112 207.02 93.112ZM213.818 93.14C213.23 93.14 212.782 93 212.474 92.72C212.175 92.4307 212.026 92.0153 212.026 91.474V87.008H210.612V86.168H212.026V84.292L213.048 84.054V86.168H215.008V87.008H213.048V91.208C213.048 91.572 213.123 91.8333 213.272 91.992C213.431 92.1507 213.687 92.23 214.042 92.23C214.219 92.23 214.378 92.216 214.518 92.188C214.658 92.16 214.821 92.1133 215.008 92.048V92.958C214.821 93.0233 214.625 93.07 214.42 93.098C214.215 93.126 214.014 93.14 213.818 93.14ZM219.448 93.14C218.814 93.14 218.24 92.986 217.726 92.678C217.213 92.3607 216.807 91.936 216.508 91.404C216.21 90.8627 216.06 90.256 216.06 89.584C216.06 88.912 216.2 88.31 216.48 87.778C216.77 87.246 217.157 86.826 217.642 86.518C218.128 86.21 218.669 86.056 219.266 86.056C219.873 86.056 220.41 86.21 220.876 86.518C221.352 86.8167 221.726 87.2273 221.996 87.75C222.276 88.2633 222.416 88.8467 222.416 89.5V89.808H217.054C217.092 90.2747 217.218 90.6947 217.432 91.068C217.656 91.432 217.946 91.7213 218.3 91.936C218.664 92.1413 219.061 92.244 219.49 92.244C219.845 92.244 220.186 92.1833 220.512 92.062C220.848 91.9313 221.133 91.7587 221.366 91.544L222.01 92.23C221.618 92.538 221.212 92.7667 220.792 92.916C220.372 93.0653 219.924 93.14 219.448 93.14ZM217.082 89.08H221.408C221.362 88.6693 221.236 88.3053 221.03 87.988C220.834 87.6613 220.582 87.4047 220.274 87.218C219.976 87.0313 219.64 86.938 219.266 86.938C218.893 86.938 218.552 87.0313 218.244 87.218C217.936 87.3953 217.68 87.6473 217.474 87.974C217.278 88.2913 217.148 88.66 217.082 89.08ZM227.003 93.098C226.415 93.098 225.883 92.944 225.407 92.636C224.931 92.3187 224.553 91.8987 224.273 91.376C223.993 90.844 223.853 90.2513 223.853 89.598C223.853 88.9353 223.993 88.3427 224.273 87.82C224.563 87.288 224.95 86.868 225.435 86.56C225.921 86.2427 226.462 86.084 227.059 86.084C227.479 86.084 227.871 86.168 228.235 86.336C228.599 86.4947 228.917 86.728 229.187 87.036V82.892L230.209 82.682V93H229.187V92.09C228.926 92.4167 228.609 92.6687 228.235 92.846C227.862 93.014 227.451 93.098 227.003 93.098ZM227.255 92.202C227.657 92.202 228.025 92.1227 228.361 91.964C228.697 91.8053 228.973 91.5813 229.187 91.292V87.904C228.963 87.6147 228.679 87.3907 228.333 87.232C227.997 87.064 227.638 86.98 227.255 86.98C226.798 86.98 226.387 87.092 226.023 87.316C225.669 87.54 225.384 87.848 225.169 88.24C224.964 88.632 224.861 89.08 224.861 89.584C224.861 90.0787 224.964 90.5267 225.169 90.928C225.384 91.32 225.669 91.6327 226.023 91.866C226.387 92.09 226.798 92.202 227.255 92.202Z" fill="#151515"/>
<path d="M250.534 86.167C251.023 86.1672 251.267 86.7618 250.921 87.1104L247.389 90.6719C247.174 90.8874 246.825 90.8875 246.611 90.6719L243.079 87.1104C242.733 86.7617 242.978 86.167 243.467 86.167H250.534Z" fill="#1F1F1F"/>
<g filter="url(#filter0_d_3518_24221)">
<path d="M99 113C99 109.686 101.686 107 105 107H287C290.314 107 293 109.686 293 113V228C293 231.314 290.314 234 287 234H105C101.686 234 99 231.314 99 228V113Z" fill="white"/>
<path d="M127.41 138.154C126.645 138.154 125.935 138.019 125.282 137.748C124.629 137.468 123.999 137.048 123.392 136.488L124.05 135.704C124.638 136.255 125.189 136.647 125.702 136.88C126.225 137.113 126.803 137.23 127.438 137.23C127.942 137.23 128.39 137.146 128.782 136.978C129.183 136.801 129.496 136.563 129.72 136.264C129.944 135.965 130.056 135.625 130.056 135.242C130.056 134.747 129.893 134.374 129.566 134.122C129.239 133.861 128.675 133.66 127.872 133.52L126.29 133.254C125.394 133.095 124.736 132.825 124.316 132.442C123.905 132.05 123.7 131.527 123.7 130.874C123.7 130.323 123.84 129.838 124.12 129.418C124.409 128.989 124.806 128.653 125.31 128.41C125.814 128.167 126.397 128.046 127.06 128.046C127.788 128.046 128.465 128.149 129.09 128.354C129.715 128.55 130.331 128.863 130.938 129.292L130.378 130.132C129.874 129.749 129.342 129.46 128.782 129.264C128.222 129.059 127.653 128.956 127.074 128.956C126.617 128.956 126.211 129.035 125.856 129.194C125.511 129.353 125.235 129.567 125.03 129.838C124.834 130.109 124.736 130.417 124.736 130.762C124.736 131.191 124.881 131.527 125.17 131.77C125.459 132.013 125.931 132.185 126.584 132.288L128.152 132.554C129.197 132.741 129.953 133.044 130.42 133.464C130.896 133.875 131.134 134.449 131.134 135.186C131.134 135.755 130.971 136.264 130.644 136.712C130.327 137.16 129.888 137.515 129.328 137.776C128.768 138.028 128.129 138.154 127.41 138.154ZM135.989 138.14C135.355 138.14 134.781 137.986 134.267 137.678C133.754 137.361 133.348 136.936 133.049 136.404C132.751 135.863 132.601 135.256 132.601 134.584C132.601 133.912 132.741 133.31 133.021 132.778C133.311 132.246 133.698 131.826 134.183 131.518C134.669 131.21 135.21 131.056 135.807 131.056C136.414 131.056 136.951 131.21 137.417 131.518C137.893 131.817 138.267 132.227 138.537 132.75C138.817 133.263 138.957 133.847 138.957 134.5V134.808H133.595C133.633 135.275 133.759 135.695 133.973 136.068C134.197 136.432 134.487 136.721 134.841 136.936C135.205 137.141 135.602 137.244 136.031 137.244C136.386 137.244 136.727 137.183 137.053 137.062C137.389 136.931 137.674 136.759 137.907 136.544L138.551 137.23C138.159 137.538 137.753 137.767 137.333 137.916C136.913 138.065 136.465 138.14 135.989 138.14ZM133.623 134.08H137.949C137.903 133.669 137.777 133.305 137.571 132.988C137.375 132.661 137.123 132.405 136.815 132.218C136.517 132.031 136.181 131.938 135.807 131.938C135.434 131.938 135.093 132.031 134.785 132.218C134.477 132.395 134.221 132.647 134.015 132.974C133.819 133.291 133.689 133.66 133.623 134.08ZM140.702 138V127.892L141.724 127.682V138H140.702ZM146.9 138.14C146.265 138.14 145.691 137.986 145.178 137.678C144.664 137.361 144.258 136.936 143.96 136.404C143.661 135.863 143.512 135.256 143.512 134.584C143.512 133.912 143.652 133.31 143.932 132.778C144.221 132.246 144.608 131.826 145.094 131.518C145.579 131.21 146.12 131.056 146.718 131.056C147.324 131.056 147.861 131.21 148.328 131.518C148.804 131.817 149.177 132.227 149.448 132.75C149.728 133.263 149.868 133.847 149.868 134.5V134.808H144.506C144.543 135.275 144.669 135.695 144.884 136.068C145.108 136.432 145.397 136.721 145.752 136.936C146.116 137.141 146.512 137.244 146.942 137.244C147.296 137.244 147.637 137.183 147.964 137.062C148.3 136.931 148.584 136.759 148.818 136.544L149.462 137.23C149.07 137.538 148.664 137.767 148.244 137.916C147.824 138.065 147.376 138.14 146.9 138.14ZM144.534 134.08H148.86C148.813 133.669 148.687 133.305 148.482 132.988C148.286 132.661 148.034 132.405 147.726 132.218C147.427 132.031 147.091 131.938 146.718 131.938C146.344 131.938 146.004 132.031 145.696 132.218C145.388 132.395 145.131 132.647 144.926 132.974C144.73 133.291 144.599 133.66 144.534 134.08ZM154.678 138.112C154.044 138.112 153.47 137.958 152.957 137.65C152.453 137.333 152.051 136.908 151.753 136.376C151.454 135.835 151.305 135.237 151.305 134.584C151.305 133.921 151.454 133.324 151.753 132.792C152.051 132.26 152.453 131.84 152.957 131.532C153.47 131.215 154.044 131.056 154.678 131.056C155.183 131.056 155.663 131.149 156.121 131.336C156.578 131.523 156.975 131.784 157.311 132.12L156.653 132.834C156.41 132.563 156.116 132.353 155.771 132.204C155.425 132.055 155.075 131.98 154.721 131.98C154.273 131.98 153.867 132.097 153.503 132.33C153.148 132.563 152.863 132.876 152.649 133.268C152.434 133.66 152.327 134.099 152.327 134.584C152.327 135.069 152.434 135.508 152.649 135.9C152.863 136.292 153.148 136.605 153.503 136.838C153.867 137.071 154.273 137.188 154.721 137.188C155.075 137.188 155.425 137.113 155.771 136.964C156.116 136.805 156.41 136.595 156.653 136.334L157.311 137.048C156.975 137.384 156.578 137.645 156.121 137.832C155.663 138.019 155.183 138.112 154.678 138.112ZM161.476 138.14C160.888 138.14 160.44 138 160.132 137.72C159.834 137.431 159.684 137.015 159.684 136.474V132.008H158.27V131.168H159.684V129.292L160.706 129.054V131.168H162.666V132.008H160.706V136.208C160.706 136.572 160.781 136.833 160.93 136.992C161.089 137.151 161.346 137.23 161.7 137.23C161.878 137.23 162.036 137.216 162.176 137.188C162.316 137.16 162.48 137.113 162.666 137.048V137.958C162.48 138.023 162.284 138.07 162.078 138.098C161.873 138.126 161.672 138.14 161.476 138.14ZM167.431 138V131.168H168.453V132.274C168.714 131.863 169.027 131.56 169.391 131.364C169.755 131.159 170.166 131.056 170.623 131.056C171.118 131.056 171.547 131.163 171.911 131.378C172.284 131.583 172.574 131.877 172.779 132.26C172.994 132.633 173.101 133.072 173.101 133.576V138H172.079V133.87C172.079 133.263 171.911 132.787 171.575 132.442C171.248 132.087 170.805 131.91 170.245 131.91C169.872 131.91 169.531 131.999 169.223 132.176C168.915 132.353 168.658 132.615 168.453 132.96V138H167.431ZM178.179 138.112C177.545 138.112 176.975 137.958 176.471 137.65C175.967 137.342 175.571 136.922 175.281 136.39C174.992 135.858 174.847 135.256 174.847 134.584C174.847 133.912 174.992 133.31 175.281 132.778C175.571 132.246 175.967 131.826 176.471 131.518C176.975 131.21 177.545 131.056 178.179 131.056C178.805 131.056 179.365 131.21 179.859 131.518C180.363 131.826 180.76 132.246 181.049 132.778C181.339 133.31 181.483 133.912 181.483 134.584C181.483 135.256 181.339 135.858 181.049 136.39C180.76 136.922 180.363 137.342 179.859 137.65C179.365 137.958 178.805 138.112 178.179 138.112ZM178.165 137.216C178.613 137.216 179.01 137.104 179.355 136.88C179.701 136.647 179.971 136.329 180.167 135.928C180.373 135.527 180.475 135.079 180.475 134.584C180.475 134.08 180.373 133.632 180.167 133.24C179.971 132.839 179.701 132.526 179.355 132.302C179.01 132.069 178.613 131.952 178.165 131.952C177.717 131.952 177.321 132.069 176.975 132.302C176.63 132.526 176.355 132.839 176.149 133.24C175.953 133.632 175.855 134.08 175.855 134.584C175.855 135.079 175.953 135.527 176.149 135.928C176.355 136.329 176.63 136.647 176.975 136.88C177.321 137.104 177.717 137.216 178.165 137.216ZM183.277 138V131.168H184.299V132.274C184.56 131.863 184.873 131.56 185.237 131.364C185.601 131.159 186.011 131.056 186.469 131.056C186.963 131.056 187.393 131.163 187.757 131.378C188.13 131.583 188.419 131.877 188.625 132.26C188.839 132.633 188.947 133.072 188.947 133.576V138H187.925V133.87C187.925 133.263 187.757 132.787 187.421 132.442C187.094 132.087 186.651 131.91 186.091 131.91C185.717 131.91 185.377 131.999 185.069 132.176C184.761 132.353 184.504 132.615 184.299 132.96V138H183.277ZM194.081 138.14C193.447 138.14 192.873 137.986 192.359 137.678C191.846 137.361 191.44 136.936 191.141 136.404C190.843 135.863 190.693 135.256 190.693 134.584C190.693 133.912 190.833 133.31 191.113 132.778C191.403 132.246 191.79 131.826 192.275 131.518C192.761 131.21 193.302 131.056 193.899 131.056C194.506 131.056 195.043 131.21 195.509 131.518C195.985 131.817 196.359 132.227 196.629 132.75C196.909 133.263 197.049 133.847 197.049 134.5V134.808H191.687C191.725 135.275 191.851 135.695 192.065 136.068C192.289 136.432 192.579 136.721 192.933 136.936C193.297 137.141 193.694 137.244 194.123 137.244C194.478 137.244 194.819 137.183 195.145 137.062C195.481 136.931 195.766 136.759 195.999 136.544L196.643 137.23C196.251 137.538 195.845 137.767 195.425 137.916C195.005 138.065 194.557 138.14 194.081 138.14ZM191.715 134.08H196.041C195.995 133.669 195.869 133.305 195.663 132.988C195.467 132.661 195.215 132.405 194.907 132.218C194.609 132.031 194.273 131.938 193.899 131.938C193.526 131.938 193.185 132.031 192.877 132.218C192.569 132.395 192.313 132.647 192.107 132.974C191.911 133.291 191.781 133.66 191.715 134.08ZM205.38 141.066C204.67 140.618 204.068 140.067 203.574 139.414C203.079 138.77 202.701 138.037 202.44 137.216C202.188 136.395 202.062 135.508 202.062 134.556C202.062 133.595 202.188 132.703 202.44 131.882C202.701 131.061 203.079 130.328 203.574 129.684C204.068 129.031 204.67 128.48 205.38 128.032L205.912 128.746C204.997 129.315 204.288 130.104 203.784 131.112C203.289 132.12 203.042 133.268 203.042 134.556C203.042 135.844 203.289 136.992 203.784 138C204.288 139.008 204.997 139.797 205.912 140.366L205.38 141.066ZM211.251 138.154C210.504 138.154 209.842 137.939 209.263 137.51C208.694 137.081 208.246 136.488 207.919 135.732C207.592 134.967 207.429 134.089 207.429 133.1C207.429 132.101 207.592 131.224 207.919 130.468C208.246 129.712 208.694 129.119 209.263 128.69C209.842 128.261 210.504 128.046 211.251 128.046C211.998 128.046 212.656 128.261 213.225 128.69C213.804 129.119 214.256 129.712 214.583 130.468C214.91 131.224 215.073 132.101 215.073 133.1C215.073 134.089 214.91 134.967 214.583 135.732C214.256 136.488 213.804 137.081 213.225 137.51C212.656 137.939 211.998 138.154 211.251 138.154ZM211.251 137.244C211.82 137.244 212.31 137.076 212.721 136.74C213.141 136.395 213.468 135.914 213.701 135.298C213.934 134.673 214.051 133.94 214.051 133.1C214.051 132.26 213.934 131.532 213.701 130.916C213.468 130.291 213.141 129.81 212.721 129.474C212.31 129.129 211.82 128.956 211.251 128.956C210.691 128.956 210.201 129.129 209.781 129.474C209.361 129.81 209.034 130.291 208.801 130.916C208.568 131.532 208.451 132.26 208.451 133.1C208.451 133.94 208.568 134.673 208.801 135.298C209.034 135.914 209.361 136.395 209.781 136.74C210.201 137.076 210.691 137.244 211.251 137.244ZM220.177 138V131.168H221.199V138H220.177ZM220.695 129.474C220.489 129.474 220.312 129.404 220.163 129.264C220.023 129.115 219.953 128.942 219.953 128.746C219.953 128.55 220.023 128.382 220.163 128.242C220.312 128.093 220.489 128.018 220.695 128.018C220.9 128.018 221.073 128.093 221.213 128.242C221.362 128.382 221.437 128.55 221.437 128.746C221.437 128.942 221.362 129.115 221.213 129.264C221.073 129.404 220.9 129.474 220.695 129.474ZM225.898 138.14C225.31 138.14 224.862 138 224.554 137.72C224.255 137.431 224.106 137.015 224.106 136.474V132.008H222.692V131.168H224.106V129.292L225.128 129.054V131.168H227.088V132.008H225.128V136.208C225.128 136.572 225.203 136.833 225.352 136.992C225.511 137.151 225.767 137.23 226.122 137.23C226.299 137.23 226.458 137.216 226.598 137.188C226.738 137.16 226.901 137.113 227.088 137.048V137.958C226.901 138.023 226.705 138.07 226.5 138.098C226.295 138.126 226.094 138.14 225.898 138.14ZM231.528 138.14C230.894 138.14 230.32 137.986 229.806 137.678C229.293 137.361 228.887 136.936 228.588 136.404C228.29 135.863 228.14 135.256 228.14 134.584C228.14 133.912 228.28 133.31 228.56 132.778C228.85 132.246 229.237 131.826 229.722 131.518C230.208 131.21 230.749 131.056 231.346 131.056C231.953 131.056 232.49 131.21 232.956 131.518C233.432 131.817 233.806 132.227 234.076 132.75C234.356 133.263 234.496 133.847 234.496 134.5V134.808H229.134C229.172 135.275 229.298 135.695 229.512 136.068C229.736 136.432 230.026 136.721 230.38 136.936C230.744 137.141 231.141 137.244 231.57 137.244C231.925 137.244 232.266 137.183 232.592 137.062C232.928 136.931 233.213 136.759 233.446 136.544L234.09 137.23C233.698 137.538 233.292 137.767 232.872 137.916C232.452 138.065 232.004 138.14 231.528 138.14ZM229.162 134.08H233.488C233.442 133.669 233.316 133.305 233.11 132.988C232.914 132.661 232.662 132.405 232.354 132.218C232.056 132.031 231.72 131.938 231.346 131.938C230.973 131.938 230.632 132.031 230.324 132.218C230.016 132.395 229.76 132.647 229.554 132.974C229.358 133.291 229.228 133.66 229.162 134.08ZM236.241 138V131.168H237.263V132.232C237.525 131.84 237.823 131.546 238.159 131.35C238.495 131.154 238.873 131.056 239.293 131.056C239.779 131.056 240.203 131.177 240.567 131.42C240.931 131.653 241.207 131.975 241.393 132.386C241.664 131.947 241.986 131.616 242.359 131.392C242.742 131.168 243.181 131.056 243.675 131.056C244.133 131.056 244.534 131.163 244.879 131.378C245.234 131.593 245.509 131.891 245.705 132.274C245.901 132.647 245.999 133.086 245.999 133.59V138H244.977V133.842C244.977 133.245 244.828 132.773 244.529 132.428C244.231 132.083 243.82 131.91 243.297 131.91C242.943 131.91 242.621 131.999 242.331 132.176C242.051 132.353 241.804 132.624 241.589 132.988C241.608 133.081 241.622 133.179 241.631 133.282C241.641 133.385 241.645 133.487 241.645 133.59V138H240.623V133.842C240.623 133.245 240.469 132.773 240.161 132.428C239.863 132.083 239.452 131.91 238.929 131.91C238.229 131.91 237.674 132.246 237.263 132.918V138H236.241ZM250.182 138.14C249.622 138.14 249.104 138.056 248.628 137.888C248.152 137.711 247.746 137.459 247.41 137.132L247.956 136.46C248.366 136.759 248.744 136.978 249.09 137.118C249.435 137.249 249.79 137.314 250.154 137.314C250.648 137.314 251.059 137.197 251.386 136.964C251.712 136.731 251.876 136.432 251.876 136.068C251.876 135.788 251.778 135.569 251.582 135.41C251.395 135.251 251.082 135.13 250.644 135.046L249.524 134.85C248.861 134.729 248.371 134.523 248.054 134.234C247.746 133.945 247.592 133.553 247.592 133.058C247.592 132.666 247.694 132.321 247.9 132.022C248.114 131.723 248.408 131.49 248.782 131.322C249.155 131.145 249.58 131.056 250.056 131.056C250.522 131.056 250.966 131.126 251.386 131.266C251.806 131.397 252.23 131.611 252.66 131.91L252.156 132.624C251.801 132.372 251.446 132.19 251.092 132.078C250.737 131.957 250.378 131.896 250.014 131.896C249.566 131.896 249.206 131.994 248.936 132.19C248.665 132.386 248.53 132.652 248.53 132.988C248.53 133.268 248.614 133.483 248.782 133.632C248.959 133.781 249.267 133.893 249.706 133.968L250.854 134.178C251.544 134.299 252.048 134.509 252.366 134.808C252.683 135.107 252.842 135.508 252.842 136.012C252.842 136.413 252.725 136.777 252.492 137.104C252.258 137.421 251.941 137.673 251.54 137.86C251.138 138.047 250.686 138.14 250.182 138.14ZM254.594 128.046C255.303 128.494 255.905 129.045 256.4 129.698C256.894 130.342 257.268 131.075 257.52 131.896C257.781 132.717 257.912 133.604 257.912 134.556C257.912 135.517 257.781 136.409 257.52 137.23C257.268 138.051 256.894 138.784 256.4 139.428C255.905 140.081 255.303 140.632 254.594 141.08L254.062 140.366C254.976 139.797 255.681 139.008 256.176 138C256.68 136.992 256.932 135.844 256.932 134.556C256.932 133.268 256.68 132.12 256.176 131.112C255.681 130.104 254.976 129.315 254.062 128.746L254.594 128.046Z" fill="#151515"/>
<path d="M127.41 175.154C126.645 175.154 125.935 175.019 125.282 174.748C124.629 174.468 123.999 174.048 123.392 173.488L124.05 172.704C124.638 173.255 125.189 173.647 125.702 173.88C126.225 174.113 126.803 174.23 127.438 174.23C127.942 174.23 128.39 174.146 128.782 173.978C129.183 173.801 129.496 173.563 129.72 173.264C129.944 172.965 130.056 172.625 130.056 172.242C130.056 171.747 129.893 171.374 129.566 171.122C129.239 170.861 128.675 170.66 127.872 170.52L126.29 170.254C125.394 170.095 124.736 169.825 124.316 169.442C123.905 169.05 123.7 168.527 123.7 167.874C123.7 167.323 123.84 166.838 124.12 166.418C124.409 165.989 124.806 165.653 125.31 165.41C125.814 165.167 126.397 165.046 127.06 165.046C127.788 165.046 128.465 165.149 129.09 165.354C129.715 165.55 130.331 165.863 130.938 166.292L130.378 167.132C129.874 166.749 129.342 166.46 128.782 166.264C128.222 166.059 127.653 165.956 127.074 165.956C126.617 165.956 126.211 166.035 125.856 166.194C125.511 166.353 125.235 166.567 125.03 166.838C124.834 167.109 124.736 167.417 124.736 167.762C124.736 168.191 124.881 168.527 125.17 168.77C125.459 169.013 125.931 169.185 126.584 169.288L128.152 169.554C129.197 169.741 129.953 170.044 130.42 170.464C130.896 170.875 131.134 171.449 131.134 172.186C131.134 172.755 130.971 173.264 130.644 173.712C130.327 174.16 129.888 174.515 129.328 174.776C128.768 175.028 128.129 175.154 127.41 175.154ZM135.989 175.14C135.355 175.14 134.781 174.986 134.267 174.678C133.754 174.361 133.348 173.936 133.049 173.404C132.751 172.863 132.601 172.256 132.601 171.584C132.601 170.912 132.741 170.31 133.021 169.778C133.311 169.246 133.698 168.826 134.183 168.518C134.669 168.21 135.21 168.056 135.807 168.056C136.414 168.056 136.951 168.21 137.417 168.518C137.893 168.817 138.267 169.227 138.537 169.75C138.817 170.263 138.957 170.847 138.957 171.5V171.808H133.595C133.633 172.275 133.759 172.695 133.973 173.068C134.197 173.432 134.487 173.721 134.841 173.936C135.205 174.141 135.602 174.244 136.031 174.244C136.386 174.244 136.727 174.183 137.053 174.062C137.389 173.931 137.674 173.759 137.907 173.544L138.551 174.23C138.159 174.538 137.753 174.767 137.333 174.916C136.913 175.065 136.465 175.14 135.989 175.14ZM133.623 171.08H137.949C137.903 170.669 137.777 170.305 137.571 169.988C137.375 169.661 137.123 169.405 136.815 169.218C136.517 169.031 136.181 168.938 135.807 168.938C135.434 168.938 135.093 169.031 134.785 169.218C134.477 169.395 134.221 169.647 134.015 169.974C133.819 170.291 133.689 170.66 133.623 171.08ZM140.702 175V164.892L141.724 164.682V175H140.702ZM146.9 175.14C146.265 175.14 145.691 174.986 145.178 174.678C144.664 174.361 144.258 173.936 143.96 173.404C143.661 172.863 143.512 172.256 143.512 171.584C143.512 170.912 143.652 170.31 143.932 169.778C144.221 169.246 144.608 168.826 145.094 168.518C145.579 168.21 146.12 168.056 146.718 168.056C147.324 168.056 147.861 168.21 148.328 168.518C148.804 168.817 149.177 169.227 149.448 169.75C149.728 170.263 149.868 170.847 149.868 171.5V171.808H144.506C144.543 172.275 144.669 172.695 144.884 173.068C145.108 173.432 145.397 173.721 145.752 173.936C146.116 174.141 146.512 174.244 146.942 174.244C147.296 174.244 147.637 174.183 147.964 174.062C148.3 173.931 148.584 173.759 148.818 173.544L149.462 174.23C149.07 174.538 148.664 174.767 148.244 174.916C147.824 175.065 147.376 175.14 146.9 175.14ZM144.534 171.08H148.86C148.813 170.669 148.687 170.305 148.482 169.988C148.286 169.661 148.034 169.405 147.726 169.218C147.427 169.031 147.091 168.938 146.718 168.938C146.344 168.938 146.004 169.031 145.696 169.218C145.388 169.395 145.131 169.647 144.926 169.974C144.73 170.291 144.599 170.66 144.534 171.08ZM154.678 175.112C154.044 175.112 153.47 174.958 152.957 174.65C152.453 174.333 152.051 173.908 151.753 173.376C151.454 172.835 151.305 172.237 151.305 171.584C151.305 170.921 151.454 170.324 151.753 169.792C152.051 169.26 152.453 168.84 152.957 168.532C153.47 168.215 154.044 168.056 154.678 168.056C155.183 168.056 155.663 168.149 156.121 168.336C156.578 168.523 156.975 168.784 157.311 169.12L156.653 169.834C156.41 169.563 156.116 169.353 155.771 169.204C155.425 169.055 155.075 168.98 154.721 168.98C154.273 168.98 153.867 169.097 153.503 169.33C153.148 169.563 152.863 169.876 152.649 170.268C152.434 170.66 152.327 171.099 152.327 171.584C152.327 172.069 152.434 172.508 152.649 172.9C152.863 173.292 153.148 173.605 153.503 173.838C153.867 174.071 154.273 174.188 154.721 174.188C155.075 174.188 155.425 174.113 155.771 173.964C156.116 173.805 156.41 173.595 156.653 173.334L157.311 174.048C156.975 174.384 156.578 174.645 156.121 174.832C155.663 175.019 155.183 175.112 154.678 175.112ZM161.476 175.14C160.888 175.14 160.44 175 160.132 174.72C159.834 174.431 159.684 174.015 159.684 173.474V169.008H158.27V168.168H159.684V166.292L160.706 166.054V168.168H162.666V169.008H160.706V173.208C160.706 173.572 160.781 173.833 160.93 173.992C161.089 174.151 161.346 174.23 161.7 174.23C161.878 174.23 162.036 174.216 162.176 174.188C162.316 174.16 162.48 174.113 162.666 174.048V174.958C162.48 175.023 162.284 175.07 162.078 175.098C161.873 175.126 161.672 175.14 161.476 175.14ZM167.431 177.926V168.168H168.439V169.148C168.7 168.803 169.018 168.541 169.391 168.364C169.774 168.177 170.194 168.084 170.651 168.084C171.248 168.084 171.78 168.243 172.247 168.56C172.723 168.868 173.101 169.288 173.381 169.82C173.661 170.343 173.801 170.931 173.801 171.584C173.801 172.237 173.656 172.83 173.367 173.362C173.087 173.894 172.704 174.319 172.219 174.636C171.743 174.944 171.202 175.098 170.595 175.098C170.166 175.098 169.769 175.019 169.405 174.86C169.041 174.692 168.724 174.454 168.453 174.146V177.926H167.431ZM170.399 174.216C170.856 174.216 171.262 174.104 171.617 173.88C171.981 173.647 172.266 173.334 172.471 172.942C172.686 172.541 172.793 172.093 172.793 171.598C172.793 171.094 172.686 170.646 172.471 170.254C172.266 169.862 171.981 169.554 171.617 169.33C171.262 169.097 170.856 168.98 170.399 168.98C169.998 168.98 169.624 169.064 169.279 169.232C168.943 169.391 168.668 169.619 168.453 169.918V173.264C168.677 173.563 168.957 173.796 169.293 173.964C169.638 174.132 170.007 174.216 170.399 174.216ZM177.775 175.126C177.29 175.126 176.861 175.037 176.487 174.86C176.114 174.683 175.82 174.44 175.605 174.132C175.4 173.815 175.297 173.451 175.297 173.04C175.297 172.629 175.405 172.275 175.619 171.976C175.834 171.668 176.133 171.43 176.515 171.262C176.898 171.094 177.346 171.01 177.859 171.01C178.251 171.01 178.62 171.052 178.965 171.136C179.32 171.22 179.647 171.355 179.945 171.542V170.604C179.945 170.044 179.796 169.624 179.497 169.344C179.199 169.055 178.76 168.91 178.181 168.91C177.864 168.91 177.537 168.957 177.201 169.05C176.875 169.143 176.511 169.293 176.109 169.498L175.731 168.714C176.646 168.275 177.505 168.056 178.307 168.056C179.157 168.056 179.81 168.266 180.267 168.686C180.725 169.097 180.953 169.689 180.953 170.464V175H179.945V174.202C179.647 174.51 179.315 174.743 178.951 174.902C178.587 175.051 178.195 175.126 177.775 175.126ZM176.277 173.012C176.277 173.413 176.431 173.735 176.739 173.978C177.057 174.221 177.472 174.342 177.985 174.342C178.368 174.342 178.718 174.277 179.035 174.146C179.362 174.015 179.665 173.819 179.945 173.558V172.242C179.656 172.074 179.357 171.953 179.049 171.878C178.741 171.794 178.396 171.752 178.013 171.752C177.491 171.752 177.071 171.869 176.753 172.102C176.436 172.326 176.277 172.629 176.277 173.012ZM186.194 178.066C185.737 178.066 185.275 178.001 184.808 177.87C184.351 177.749 183.926 177.576 183.534 177.352L183.968 176.568C184.388 176.783 184.771 176.941 185.116 177.044C185.462 177.147 185.807 177.198 186.152 177.198C186.778 177.198 187.249 177.049 187.566 176.75C187.893 176.451 188.056 176.017 188.056 175.448V174.076C187.795 174.403 187.478 174.655 187.104 174.832C186.731 175 186.32 175.084 185.872 175.084C185.284 175.084 184.752 174.93 184.276 174.622C183.8 174.305 183.422 173.885 183.142 173.362C182.862 172.83 182.722 172.237 182.722 171.584C182.722 170.931 182.862 170.343 183.142 169.82C183.432 169.288 183.819 168.868 184.304 168.56C184.79 168.243 185.331 168.084 185.928 168.084C186.358 168.084 186.754 168.168 187.118 168.336C187.482 168.495 187.8 168.733 188.07 169.05V168.168H189.078V175.434C189.078 176.283 188.831 176.932 188.336 177.38C187.842 177.837 187.128 178.066 186.194 178.066ZM186.124 174.202C186.526 174.202 186.894 174.123 187.23 173.964C187.566 173.796 187.842 173.567 188.056 173.278V169.904C187.832 169.615 187.548 169.391 187.202 169.232C186.866 169.064 186.507 168.98 186.124 168.98C185.667 168.98 185.256 169.092 184.892 169.316C184.538 169.54 184.253 169.848 184.038 170.24C183.833 170.632 183.73 171.08 183.73 171.584C183.73 172.079 183.833 172.527 184.038 172.928C184.253 173.32 184.538 173.633 184.892 173.866C185.256 174.09 185.667 174.202 186.124 174.202ZM194.259 175.14C193.624 175.14 193.05 174.986 192.537 174.678C192.024 174.361 191.618 173.936 191.319 173.404C191.02 172.863 190.871 172.256 190.871 171.584C190.871 170.912 191.011 170.31 191.291 169.778C191.58 169.246 191.968 168.826 192.453 168.518C192.938 168.21 193.48 168.056 194.077 168.056C194.684 168.056 195.22 168.21 195.687 168.518C196.163 168.817 196.536 169.227 196.807 169.75C197.087 170.263 197.227 170.847 197.227 171.5V171.808H191.865C191.902 172.275 192.028 172.695 192.243 173.068C192.467 173.432 192.756 173.721 193.111 173.936C193.475 174.141 193.872 174.244 194.301 174.244C194.656 174.244 194.996 174.183 195.323 174.062C195.659 173.931 195.944 173.759 196.177 173.544L196.821 174.23C196.429 174.538 196.023 174.767 195.603 174.916C195.183 175.065 194.735 175.14 194.259 175.14ZM191.893 171.08H196.219C196.172 170.669 196.046 170.305 195.841 169.988C195.645 169.661 195.393 169.405 195.085 169.218C194.786 169.031 194.45 168.938 194.077 168.938C193.704 168.938 193.363 169.031 193.055 169.218C192.747 169.395 192.49 169.647 192.285 169.974C192.089 170.291 191.958 170.66 191.893 171.08ZM205.557 178.066C204.848 177.618 204.246 177.067 203.751 176.414C203.257 175.77 202.879 175.037 202.617 174.216C202.365 173.395 202.239 172.508 202.239 171.556C202.239 170.595 202.365 169.703 202.617 168.882C202.879 168.061 203.257 167.328 203.751 166.684C204.246 166.031 204.848 165.48 205.557 165.032L206.089 165.746C205.175 166.315 204.465 167.104 203.961 168.112C203.467 169.12 203.219 170.268 203.219 171.556C203.219 172.844 203.467 173.992 203.961 175C204.465 176.008 205.175 176.797 206.089 177.366L205.557 178.066ZM208.951 175V166.292L207.383 166.992V166.068L209.329 165.2H209.959V175H208.951ZM215.722 175.154C214.975 175.154 214.312 174.939 213.734 174.51C213.164 174.081 212.716 173.488 212.39 172.732C212.063 171.967 211.9 171.089 211.9 170.1C211.9 169.101 212.063 168.224 212.39 167.468C212.716 166.712 213.164 166.119 213.734 165.69C214.312 165.261 214.975 165.046 215.722 165.046C216.468 165.046 217.126 165.261 217.696 165.69C218.274 166.119 218.727 166.712 219.054 167.468C219.38 168.224 219.544 169.101 219.544 170.1C219.544 171.089 219.38 171.967 219.054 172.732C218.727 173.488 218.274 174.081 217.696 174.51C217.126 174.939 216.468 175.154 215.722 175.154ZM215.722 174.244C216.291 174.244 216.781 174.076 217.192 173.74C217.612 173.395 217.938 172.914 218.172 172.298C218.405 171.673 218.522 170.94 218.522 170.1C218.522 169.26 218.405 168.532 218.172 167.916C217.938 167.291 217.612 166.81 217.192 166.474C216.781 166.129 216.291 165.956 215.722 165.956C215.162 165.956 214.672 166.129 214.252 166.474C213.832 166.81 213.505 167.291 213.272 167.916C213.038 168.532 212.922 169.26 212.922 170.1C212.922 170.94 213.038 171.673 213.272 172.298C213.505 172.914 213.832 173.395 214.252 173.74C214.672 174.076 215.162 174.244 215.722 174.244ZM224.647 175V168.168H225.669V175H224.647ZM225.165 166.474C224.96 166.474 224.783 166.404 224.633 166.264C224.493 166.115 224.423 165.942 224.423 165.746C224.423 165.55 224.493 165.382 224.633 165.242C224.783 165.093 224.96 165.018 225.165 165.018C225.371 165.018 225.543 165.093 225.683 165.242C225.833 165.382 225.907 165.55 225.907 165.746C225.907 165.942 225.833 166.115 225.683 166.264C225.543 166.404 225.371 166.474 225.165 166.474ZM230.369 175.14C229.781 175.14 229.333 175 229.025 174.72C228.726 174.431 228.577 174.015 228.577 173.474V169.008H227.163V168.168H228.577V166.292L229.599 166.054V168.168H231.559V169.008H229.599V173.208C229.599 173.572 229.674 173.833 229.823 173.992C229.982 174.151 230.238 174.23 230.593 174.23C230.77 174.23 230.929 174.216 231.069 174.188C231.209 174.16 231.372 174.113 231.559 174.048V174.958C231.372 175.023 231.176 175.07 230.971 175.098C230.766 175.126 230.565 175.14 230.369 175.14ZM235.999 175.14C235.364 175.14 234.79 174.986 234.277 174.678C233.764 174.361 233.358 173.936 233.059 173.404C232.76 172.863 232.611 172.256 232.611 171.584C232.611 170.912 232.751 170.31 233.031 169.778C233.32 169.246 233.708 168.826 234.193 168.518C234.678 168.21 235.22 168.056 235.817 168.056C236.424 168.056 236.96 168.21 237.427 168.518C237.903 168.817 238.276 169.227 238.547 169.75C238.827 170.263 238.967 170.847 238.967 171.5V171.808H233.605C233.642 172.275 233.768 172.695 233.983 173.068C234.207 173.432 234.496 173.721 234.851 173.936C235.215 174.141 235.612 174.244 236.041 174.244C236.396 174.244 236.736 174.183 237.063 174.062C237.399 173.931 237.684 173.759 237.917 173.544L238.561 174.23C238.169 174.538 237.763 174.767 237.343 174.916C236.923 175.065 236.475 175.14 235.999 175.14ZM233.633 171.08H237.959C237.912 170.669 237.786 170.305 237.581 169.988C237.385 169.661 237.133 169.405 236.825 169.218C236.526 169.031 236.19 168.938 235.817 168.938C235.444 168.938 235.103 169.031 234.795 169.218C234.487 169.395 234.23 169.647 234.025 169.974C233.829 170.291 233.698 170.66 233.633 171.08ZM240.712 175V168.168H241.734V169.232C241.995 168.84 242.294 168.546 242.63 168.35C242.966 168.154 243.344 168.056 243.764 168.056C244.249 168.056 244.674 168.177 245.038 168.42C245.402 168.653 245.677 168.975 245.864 169.386C246.135 168.947 246.457 168.616 246.83 168.392C247.213 168.168 247.651 168.056 248.146 168.056C248.603 168.056 249.005 168.163 249.35 168.378C249.705 168.593 249.98 168.891 250.176 169.274C250.372 169.647 250.47 170.086 250.47 170.59V175H249.448V170.842C249.448 170.245 249.299 169.773 249 169.428C248.701 169.083 248.291 168.91 247.768 168.91C247.413 168.91 247.091 168.999 246.802 169.176C246.522 169.353 246.275 169.624 246.06 169.988C246.079 170.081 246.093 170.179 246.102 170.282C246.111 170.385 246.116 170.487 246.116 170.59V175H245.094V170.842C245.094 170.245 244.94 169.773 244.632 169.428C244.333 169.083 243.923 168.91 243.4 168.91C242.7 168.91 242.145 169.246 241.734 169.918V175H240.712ZM254.652 175.14C254.092 175.14 253.574 175.056 253.098 174.888C252.622 174.711 252.216 174.459 251.88 174.132L252.426 173.46C252.837 173.759 253.215 173.978 253.56 174.118C253.906 174.249 254.26 174.314 254.624 174.314C255.119 174.314 255.53 174.197 255.856 173.964C256.183 173.731 256.346 173.432 256.346 173.068C256.346 172.788 256.248 172.569 256.052 172.41C255.866 172.251 255.553 172.13 255.114 172.046L253.994 171.85C253.332 171.729 252.842 171.523 252.524 171.234C252.216 170.945 252.062 170.553 252.062 170.058C252.062 169.666 252.165 169.321 252.37 169.022C252.585 168.723 252.879 168.49 253.252 168.322C253.626 168.145 254.05 168.056 254.526 168.056C254.993 168.056 255.436 168.126 255.856 168.266C256.276 168.397 256.701 168.611 257.13 168.91L256.626 169.624C256.272 169.372 255.917 169.19 255.562 169.078C255.208 168.957 254.848 168.896 254.484 168.896C254.036 168.896 253.677 168.994 253.406 169.19C253.136 169.386 253 169.652 253 169.988C253 170.268 253.084 170.483 253.252 170.632C253.43 170.781 253.738 170.893 254.176 170.968L255.324 171.178C256.015 171.299 256.519 171.509 256.836 171.808C257.154 172.107 257.312 172.508 257.312 173.012C257.312 173.413 257.196 173.777 256.962 174.104C256.729 174.421 256.412 174.673 256.01 174.86C255.609 175.047 255.156 175.14 254.652 175.14ZM259.064 165.046C259.774 165.494 260.376 166.045 260.87 166.698C261.365 167.342 261.738 168.075 261.99 168.896C262.252 169.717 262.382 170.604 262.382 171.556C262.382 172.517 262.252 173.409 261.99 174.23C261.738 175.051 261.365 175.784 260.87 176.428C260.376 177.081 259.774 177.632 259.064 178.08L258.532 177.366C259.447 176.797 260.152 176.008 260.646 175C261.15 173.992 261.402 172.844 261.402 171.556C261.402 170.268 261.15 169.12 260.646 168.112C260.152 167.104 259.447 166.315 258.532 165.746L259.064 165.046Z" fill="#151515"/>
<path d="M127.41 212.154C126.645 212.154 125.935 212.019 125.282 211.748C124.629 211.468 123.999 211.048 123.392 210.488L124.05 209.704C124.638 210.255 125.189 210.647 125.702 210.88C126.225 211.113 126.803 211.23 127.438 211.23C127.942 211.23 128.39 211.146 128.782 210.978C129.183 210.801 129.496 210.563 129.72 210.264C129.944 209.965 130.056 209.625 130.056 209.242C130.056 208.747 129.893 208.374 129.566 208.122C129.239 207.861 128.675 207.66 127.872 207.52L126.29 207.254C125.394 207.095 124.736 206.825 124.316 206.442C123.905 206.05 123.7 205.527 123.7 204.874C123.7 204.323 123.84 203.838 124.12 203.418C124.409 202.989 124.806 202.653 125.31 202.41C125.814 202.167 126.397 202.046 127.06 202.046C127.788 202.046 128.465 202.149 129.09 202.354C129.715 202.55 130.331 202.863 130.938 203.292L130.378 204.132C129.874 203.749 129.342 203.46 128.782 203.264C128.222 203.059 127.653 202.956 127.074 202.956C126.617 202.956 126.211 203.035 125.856 203.194C125.511 203.353 125.235 203.567 125.03 203.838C124.834 204.109 124.736 204.417 124.736 204.762C124.736 205.191 124.881 205.527 125.17 205.77C125.459 206.013 125.931 206.185 126.584 206.288L128.152 206.554C129.197 206.741 129.953 207.044 130.42 207.464C130.896 207.875 131.134 208.449 131.134 209.186C131.134 209.755 130.971 210.264 130.644 210.712C130.327 211.16 129.888 211.515 129.328 211.776C128.768 212.028 128.129 212.154 127.41 212.154ZM135.989 212.14C135.355 212.14 134.781 211.986 134.267 211.678C133.754 211.361 133.348 210.936 133.049 210.404C132.751 209.863 132.601 209.256 132.601 208.584C132.601 207.912 132.741 207.31 133.021 206.778C133.311 206.246 133.698 205.826 134.183 205.518C134.669 205.21 135.21 205.056 135.807 205.056C136.414 205.056 136.951 205.21 137.417 205.518C137.893 205.817 138.267 206.227 138.537 206.75C138.817 207.263 138.957 207.847 138.957 208.5V208.808H133.595C133.633 209.275 133.759 209.695 133.973 210.068C134.197 210.432 134.487 210.721 134.841 210.936C135.205 211.141 135.602 211.244 136.031 211.244C136.386 211.244 136.727 211.183 137.053 211.062C137.389 210.931 137.674 210.759 137.907 210.544L138.551 211.23C138.159 211.538 137.753 211.767 137.333 211.916C136.913 212.065 136.465 212.14 135.989 212.14ZM133.623 208.08H137.949C137.903 207.669 137.777 207.305 137.571 206.988C137.375 206.661 137.123 206.405 136.815 206.218C136.517 206.031 136.181 205.938 135.807 205.938C135.434 205.938 135.093 206.031 134.785 206.218C134.477 206.395 134.221 206.647 134.015 206.974C133.819 207.291 133.689 207.66 133.623 208.08ZM140.702 212V201.892L141.724 201.682V212H140.702ZM146.9 212.14C146.265 212.14 145.691 211.986 145.178 211.678C144.664 211.361 144.258 210.936 143.96 210.404C143.661 209.863 143.512 209.256 143.512 208.584C143.512 207.912 143.652 207.31 143.932 206.778C144.221 206.246 144.608 205.826 145.094 205.518C145.579 205.21 146.12 205.056 146.718 205.056C147.324 205.056 147.861 205.21 148.328 205.518C148.804 205.817 149.177 206.227 149.448 206.75C149.728 207.263 149.868 207.847 149.868 208.5V208.808H144.506C144.543 209.275 144.669 209.695 144.884 210.068C145.108 210.432 145.397 210.721 145.752 210.936C146.116 211.141 146.512 211.244 146.942 211.244C147.296 211.244 147.637 211.183 147.964 211.062C148.3 210.931 148.584 210.759 148.818 210.544L149.462 211.23C149.07 211.538 148.664 211.767 148.244 211.916C147.824 212.065 147.376 212.14 146.9 212.14ZM144.534 208.08H148.86C148.813 207.669 148.687 207.305 148.482 206.988C148.286 206.661 148.034 206.405 147.726 206.218C147.427 206.031 147.091 205.938 146.718 205.938C146.344 205.938 146.004 206.031 145.696 206.218C145.388 206.395 145.131 206.647 144.926 206.974C144.73 207.291 144.599 207.66 144.534 208.08ZM154.678 212.112C154.044 212.112 153.47 211.958 152.957 211.65C152.453 211.333 152.051 210.908 151.753 210.376C151.454 209.835 151.305 209.237 151.305 208.584C151.305 207.921 151.454 207.324 151.753 206.792C152.051 206.26 152.453 205.84 152.957 205.532C153.47 205.215 154.044 205.056 154.678 205.056C155.183 205.056 155.663 205.149 156.121 205.336C156.578 205.523 156.975 205.784 157.311 206.12L156.653 206.834C156.41 206.563 156.116 206.353 155.771 206.204C155.425 206.055 155.075 205.98 154.721 205.98C154.273 205.98 153.867 206.097 153.503 206.33C153.148 206.563 152.863 206.876 152.649 207.268C152.434 207.66 152.327 208.099 152.327 208.584C152.327 209.069 152.434 209.508 152.649 209.9C152.863 210.292 153.148 210.605 153.503 210.838C153.867 211.071 154.273 211.188 154.721 211.188C155.075 211.188 155.425 211.113 155.771 210.964C156.116 210.805 156.41 210.595 156.653 210.334L157.311 211.048C156.975 211.384 156.578 211.645 156.121 211.832C155.663 212.019 155.183 212.112 154.678 212.112ZM161.476 212.14C160.888 212.14 160.44 212 160.132 211.72C159.834 211.431 159.684 211.015 159.684 210.474V206.008H158.27V205.168H159.684V203.292L160.706 203.054V205.168H162.666V206.008H160.706V210.208C160.706 210.572 160.781 210.833 160.93 210.992C161.089 211.151 161.346 211.23 161.7 211.23C161.878 211.23 162.036 211.216 162.176 211.188C162.316 211.16 162.48 211.113 162.666 211.048V211.958C162.48 212.023 162.284 212.07 162.078 212.098C161.873 212.126 161.672 212.14 161.476 212.14ZM169.545 212.126C169.06 212.126 168.63 212.037 168.257 211.86C167.884 211.683 167.59 211.44 167.375 211.132C167.17 210.815 167.067 210.451 167.067 210.04C167.067 209.629 167.174 209.275 167.389 208.976C167.604 208.668 167.902 208.43 168.285 208.262C168.668 208.094 169.116 208.01 169.629 208.01C170.021 208.01 170.39 208.052 170.735 208.136C171.09 208.22 171.416 208.355 171.715 208.542V207.604C171.715 207.044 171.566 206.624 171.267 206.344C170.968 206.055 170.53 205.91 169.951 205.91C169.634 205.91 169.307 205.957 168.971 206.05C168.644 206.143 168.28 206.293 167.879 206.498L167.501 205.714C168.416 205.275 169.274 205.056 170.077 205.056C170.926 205.056 171.58 205.266 172.037 205.686C172.494 206.097 172.723 206.689 172.723 207.464V212H171.715V211.202C171.416 211.51 171.085 211.743 170.721 211.902C170.357 212.051 169.965 212.126 169.545 212.126ZM168.047 210.012C168.047 210.413 168.201 210.735 168.509 210.978C168.826 211.221 169.242 211.342 169.755 211.342C170.138 211.342 170.488 211.277 170.805 211.146C171.132 211.015 171.435 210.819 171.715 210.558V209.242C171.426 209.074 171.127 208.953 170.819 208.878C170.511 208.794 170.166 208.752 169.783 208.752C169.26 208.752 168.84 208.869 168.523 209.102C168.206 209.326 168.047 209.629 168.047 210.012ZM174.8 212V201.892L175.822 201.682V212H174.8ZM177.917 212V201.892L178.939 201.682V212H177.917ZM187.62 215.066C186.911 214.618 186.309 214.067 185.814 213.414C185.319 212.77 184.941 212.037 184.68 211.216C184.428 210.395 184.302 209.508 184.302 208.556C184.302 207.595 184.428 206.703 184.68 205.882C184.941 205.061 185.319 204.328 185.814 203.684C186.309 203.031 186.911 202.48 187.62 202.032L188.152 202.746C187.237 203.315 186.528 204.104 186.024 205.112C185.529 206.12 185.282 207.268 185.282 208.556C185.282 209.844 185.529 210.992 186.024 212C186.528 213.008 187.237 213.797 188.152 214.366L187.62 215.066ZM192.721 212.154C191.433 212.154 190.322 211.711 189.389 210.824L190.019 210.138C190.448 210.539 190.873 210.833 191.293 211.02C191.722 211.197 192.203 211.286 192.735 211.286C193.211 211.286 193.631 211.188 193.995 210.992C194.359 210.796 194.639 210.521 194.835 210.166C195.04 209.811 195.143 209.405 195.143 208.948C195.143 208.295 194.919 207.767 194.471 207.366C194.032 206.965 193.454 206.764 192.735 206.764C192.362 206.764 191.998 206.811 191.643 206.904C191.288 206.988 190.92 207.128 190.537 207.324L189.837 207.1L190.061 202.2H195.633V203.082H190.929L190.775 206.47C191.148 206.283 191.508 206.153 191.853 206.078C192.198 205.994 192.562 205.952 192.945 205.952C193.589 205.952 194.149 206.078 194.625 206.33C195.11 206.573 195.484 206.918 195.745 207.366C196.016 207.805 196.151 208.318 196.151 208.906C196.151 209.55 196.006 210.115 195.717 210.6C195.428 211.085 195.026 211.468 194.513 211.748C194 212.019 193.402 212.154 192.721 212.154ZM201.475 212.154C200.729 212.154 200.066 211.939 199.487 211.51C198.918 211.081 198.47 210.488 198.143 209.732C197.817 208.967 197.653 208.089 197.653 207.1C197.653 206.101 197.817 205.224 198.143 204.468C198.47 203.712 198.918 203.119 199.487 202.69C200.066 202.261 200.729 202.046 201.475 202.046C202.222 202.046 202.88 202.261 203.449 202.69C204.028 203.119 204.481 203.712 204.807 204.468C205.134 205.224 205.297 206.101 205.297 207.1C205.297 208.089 205.134 208.967 204.807 209.732C204.481 210.488 204.028 211.081 203.449 211.51C202.88 211.939 202.222 212.154 201.475 212.154ZM201.475 211.244C202.045 211.244 202.535 211.076 202.945 210.74C203.365 210.395 203.692 209.914 203.925 209.298C204.159 208.673 204.275 207.94 204.275 207.1C204.275 206.26 204.159 205.532 203.925 204.916C203.692 204.291 203.365 203.81 202.945 203.474C202.535 203.129 202.045 202.956 201.475 202.956C200.915 202.956 200.425 203.129 200.005 203.474C199.585 203.81 199.259 204.291 199.025 204.916C198.792 205.532 198.675 206.26 198.675 207.1C198.675 207.94 198.792 208.673 199.025 209.298C199.259 209.914 199.585 210.395 200.005 210.74C200.425 211.076 200.915 211.244 201.475 211.244ZM210.401 212V205.168H211.423V212H210.401ZM210.919 203.474C210.714 203.474 210.537 203.404 210.387 203.264C210.247 203.115 210.177 202.942 210.177 202.746C210.177 202.55 210.247 202.382 210.387 202.242C210.537 202.093 210.714 202.018 210.919 202.018C211.125 202.018 211.297 202.093 211.437 202.242C211.587 202.382 211.661 202.55 211.661 202.746C211.661 202.942 211.587 203.115 211.437 203.264C211.297 203.404 211.125 203.474 210.919 203.474ZM216.123 212.14C215.535 212.14 215.087 212 214.779 211.72C214.48 211.431 214.331 211.015 214.331 210.474V206.008H212.917V205.168H214.331V203.292L215.353 203.054V205.168H217.313V206.008H215.353V210.208C215.353 210.572 215.427 210.833 215.577 210.992C215.735 211.151 215.992 211.23 216.347 211.23C216.524 211.23 216.683 211.216 216.823 211.188C216.963 211.16 217.126 211.113 217.313 211.048V211.958C217.126 212.023 216.93 212.07 216.725 212.098C216.519 212.126 216.319 212.14 216.123 212.14ZM221.753 212.14C221.118 212.14 220.544 211.986 220.031 211.678C219.518 211.361 219.112 210.936 218.813 210.404C218.514 209.863 218.365 209.256 218.365 208.584C218.365 207.912 218.505 207.31 218.785 206.778C219.074 206.246 219.462 205.826 219.947 205.518C220.432 205.21 220.974 205.056 221.571 205.056C222.178 205.056 222.714 205.21 223.181 205.518C223.657 205.817 224.03 206.227 224.301 206.75C224.581 207.263 224.721 207.847 224.721 208.5V208.808H219.359C219.396 209.275 219.522 209.695 219.737 210.068C219.961 210.432 220.25 210.721 220.605 210.936C220.969 211.141 221.366 211.244 221.795 211.244C222.15 211.244 222.49 211.183 222.817 211.062C223.153 210.931 223.438 210.759 223.671 210.544L224.315 211.23C223.923 211.538 223.517 211.767 223.097 211.916C222.677 212.065 222.229 212.14 221.753 212.14ZM219.387 208.08H223.713C223.666 207.669 223.54 207.305 223.335 206.988C223.139 206.661 222.887 206.405 222.579 206.218C222.28 206.031 221.944 205.938 221.571 205.938C221.198 205.938 220.857 206.031 220.549 206.218C220.241 206.395 219.984 206.647 219.779 206.974C219.583 207.291 219.452 207.66 219.387 208.08ZM226.466 212V205.168H227.488V206.232C227.749 205.84 228.048 205.546 228.384 205.35C228.72 205.154 229.098 205.056 229.518 205.056C230.003 205.056 230.428 205.177 230.792 205.42C231.156 205.653 231.431 205.975 231.618 206.386C231.889 205.947 232.211 205.616 232.584 205.392C232.967 205.168 233.405 205.056 233.9 205.056C234.357 205.056 234.759 205.163 235.104 205.378C235.459 205.593 235.734 205.891 235.93 206.274C236.126 206.647 236.224 207.086 236.224 207.59V212H235.202V207.842C235.202 207.245 235.053 206.773 234.754 206.428C234.455 206.083 234.045 205.91 233.522 205.91C233.167 205.91 232.845 205.999 232.556 206.176C232.276 206.353 232.029 206.624 231.814 206.988C231.833 207.081 231.847 207.179 231.856 207.282C231.865 207.385 231.87 207.487 231.87 207.59V212H230.848V207.842C230.848 207.245 230.694 206.773 230.386 206.428C230.087 206.083 229.677 205.91 229.154 205.91C228.454 205.91 227.899 206.246 227.488 206.918V212H226.466ZM240.406 212.14C239.846 212.14 239.328 212.056 238.852 211.888C238.376 211.711 237.97 211.459 237.634 211.132L238.18 210.46C238.591 210.759 238.969 210.978 239.314 211.118C239.66 211.249 240.014 211.314 240.378 211.314C240.873 211.314 241.284 211.197 241.61 210.964C241.937 210.731 242.1 210.432 242.1 210.068C242.1 209.788 242.002 209.569 241.806 209.41C241.62 209.251 241.307 209.13 240.868 209.046L239.748 208.85C239.086 208.729 238.596 208.523 238.278 208.234C237.97 207.945 237.816 207.553 237.816 207.058C237.816 206.666 237.919 206.321 238.124 206.022C238.339 205.723 238.633 205.49 239.006 205.322C239.38 205.145 239.804 205.056 240.28 205.056C240.747 205.056 241.19 205.126 241.61 205.266C242.03 205.397 242.455 205.611 242.884 205.91L242.38 206.624C242.026 206.372 241.671 206.19 241.316 206.078C240.962 205.957 240.602 205.896 240.238 205.896C239.79 205.896 239.431 205.994 239.16 206.19C238.89 206.386 238.754 206.652 238.754 206.988C238.754 207.268 238.838 207.483 239.006 207.632C239.184 207.781 239.492 207.893 239.93 207.968L241.078 208.178C241.769 208.299 242.273 208.509 242.59 208.808C242.908 209.107 243.066 209.508 243.066 210.012C243.066 210.413 242.95 210.777 242.716 211.104C242.483 211.421 242.166 211.673 241.764 211.86C241.363 212.047 240.91 212.14 240.406 212.14ZM244.818 202.046C245.528 202.494 246.13 203.045 246.624 203.698C247.119 204.342 247.492 205.075 247.744 205.896C248.006 206.717 248.136 207.604 248.136 208.556C248.136 209.517 248.006 210.409 247.744 211.23C247.492 212.051 247.119 212.784 246.624 213.428C246.13 214.081 245.528 214.632 244.818 215.08L244.286 214.366C245.201 213.797 245.906 213.008 246.4 212C246.904 210.992 247.156 209.844 247.156 208.556C247.156 207.268 246.904 206.12 246.4 205.112C245.906 204.104 245.201 203.315 244.286 202.746L244.818 202.046Z" fill="#151515"/>
</g>
<path d="M257.333 88C257.333 89.4728 258.527 90.6667 260 90.6667C261.473 90.6667 262.667 89.4728 262.667 88C262.667 86.5272 261.473 85.3333 260 85.3333C258.527 85.3333 257.333 86.5272 257.333 88ZM260 88V88.5H316V88V87.5H260V88Z" fill="#C806CC"/>
<path d="M316 76C316 73.7909 317.791 72 320 72H350C352.209 72 354 73.7909 354 76V100C354 102.209 352.209 104 350 104H320C317.791 104 316 102.209 316 100V76Z" fill="#C806CC"/>
<path d="M334.859 94.198C333.959 94.198 333.113 94.042 332.321 93.73C331.541 93.406 330.863 92.944 330.287 92.344L331.457 91.228C331.961 91.756 332.471 92.134 332.987 92.362C333.515 92.578 334.133 92.686 334.841 92.686C335.693 92.686 336.383 92.476 336.911 92.056C337.451 91.636 337.721 91.096 337.721 90.436C337.721 89.812 337.493 89.308 337.037 88.924C336.593 88.54 336.017 88.348 335.309 88.348H333.779V86.89H335.183C335.819 86.89 336.329 86.704 336.713 86.332C337.097 85.96 337.289 85.474 337.289 84.874C337.289 84.466 337.181 84.106 336.965 83.794C336.749 83.47 336.449 83.218 336.065 83.038C335.693 82.846 335.267 82.75 334.787 82.75C334.151 82.75 333.587 82.864 333.095 83.092C332.615 83.308 332.117 83.692 331.601 84.244L330.431 83.128C331.007 82.504 331.673 82.03 332.429 81.706C333.185 81.37 333.983 81.202 334.823 81.202C335.639 81.202 336.359 81.352 336.983 81.652C337.619 81.952 338.117 82.366 338.477 82.894C338.849 83.422 339.035 84.028 339.035 84.712C339.035 85.384 338.813 85.978 338.369 86.494C337.937 87.01 337.367 87.37 336.659 87.574C337.511 87.754 338.189 88.114 338.693 88.654C339.197 89.182 339.449 89.806 339.449 90.526C339.449 91.234 339.251 91.864 338.855 92.416C338.471 92.968 337.931 93.406 337.235 93.73C336.539 94.042 335.747 94.198 334.859 94.198Z" fill="white"/>
<path d="M153 22C153 19.7909 154.791 18 157 18H187C189.209 18 191 19.7909 191 22V46C191 48.2091 189.209 50 187 50H157C154.791 50 153 48.2091 153 46V22Z" fill="#C806CC"/>
<path d="M167.89 40V38.74L173.002 33.304C173.518 32.764 173.866 32.302 174.046 31.918C174.238 31.534 174.334 31.126 174.334 30.694C174.334 30.13 174.106 29.662 173.65 29.29C173.194 28.918 172.618 28.732 171.922 28.732C171.346 28.732 170.806 28.846 170.302 29.074C169.798 29.302 169.24 29.698 168.628 30.262L167.656 29.074C168.988 27.826 170.422 27.202 171.958 27.202C172.762 27.202 173.47 27.346 174.082 27.634C174.694 27.922 175.168 28.324 175.504 28.84C175.852 29.344 176.026 29.926 176.026 30.586C176.026 31.006 175.972 31.396 175.864 31.756C175.756 32.104 175.57 32.476 175.306 32.872C175.042 33.256 174.67 33.7 174.19 34.204L170.086 38.524L176.278 38.506V40H167.89Z" fill="white"/>
<path d="M172 75.3333C170.527 75.3333 169.333 76.5272 169.333 78C169.333 79.4728 170.527 80.6667 172 80.6667C173.473 80.6667 174.667 79.4728 174.667 78C174.667 76.5272 173.473 75.3333 172 75.3333ZM172 50L171.5 50L171.5 78L172 78L172.5 78L172.5 50L172 50Z" fill="#C806CC"/>
<path d="M14 76C14 73.7909 15.7909 72 18 72H48C50.2091 72 52 73.7909 52 76V100C52 102.209 50.2091 104 48 104H18C15.7909 104 14 102.209 14 100V76Z" fill="#C806CC"/>
<path d="M32.8879 94V83.254L30.6199 84.208V82.624L33.5359 81.4H34.6699V94H32.8879Z" fill="white"/>
<path d="M110.667 88C110.667 89.4728 109.473 90.6667 108 90.6667C106.527 90.6667 105.333 89.4728 105.333 88C105.333 86.5272 106.527 85.3333 108 85.3333C109.473 85.3333 110.667 86.5272 110.667 88ZM108 88V88.5H52V88V87.5H108V88Z" fill="#C806CC"/>
<path d="M14 159C14 156.791 15.7909 155 18 155H48C50.2091 155 52 156.791 52 159V183C52 185.209 50.2091 187 48 187H18C15.7909 187 14 185.209 14 183V159Z" fill="#C806CC"/>
<path d="M34.8664 177V173.796H27.7204V172.374L34.6504 164.4H36.6484V172.284H38.1784V173.796H36.6484V177H34.8664ZM29.8624 172.284H34.8664V166.524L29.8624 172.284Z" fill="white"/>
<path d="M101.667 171C101.667 172.473 100.473 173.667 99 173.667C97.5272 173.667 96.3333 172.473 96.3333 171C96.3333 169.527 97.5272 168.333 99 168.333C100.473 168.333 101.667 169.527 101.667 171ZM99 171V171.5H52V171V170.5H99V171Z" fill="#C806CC"/>
<defs>
<filter id="filter0_d_3518_24221" x="90" y="102" width="212" height="145" filterUnits="userSpaceOnUse" color-interpolation-filters="sRGB">
<feFlood flood-opacity="0" result="BackgroundImageFix"/>
<feColorMatrix in="SourceAlpha" type="matrix" values="0 0 0 0 0 0 0 0 0 0 0 0 0 0 0 0 0 0 127 0" result="hardAlpha"/>
<feOffset dy="4"/>
<feGaussianBlur stdDeviation="4.5"/>
<feColorMatrix type="matrix" values="0 0 0 0 0.160784 0 0 0 0 0.160784 0 0 0 0 0.160784 0 0 0 0.15 0"/>
<feBlend mode="normal" in2="BackgroundImageFix" result="effect1_dropShadow_3518_24221"/>
<feBlend mode="normal" in="SourceGraphic" in2="effect1_dropShadow_3518_24221" result="shape"/>
</filter>
</defs>
</svg>
