<svg width="336" height="71" viewBox="0 0 336 71" fill="none" xmlns="http://www.w3.org/2000/svg">
<rect width="336" height="71" fill="white"/>
<path d="M15 17.5H321C324.038 17.5 326.5 19.9624 326.5 23V48C326.5 51.0376 324.038 53.5 321 53.5H15C11.9624 53.5 9.5 51.0376 9.5 48V23C9.5 19.9624 11.9624 17.5 15 17.5Z" fill="white"/>
<path d="M15 17.5H321C324.038 17.5 326.5 19.9624 326.5 23V48C326.5 51.0376 324.038 53.5 321 53.5H15C11.9624 53.5 9.5 51.0376 9.5 48V23C9.5 19.9624 11.9624 17.5 15 17.5Z" stroke="#C7C7C7"/>
<path d="M26.246 40V30.2H27.324V39.048H32.854V40H26.246ZM37.2224 40.112C36.5878 40.112 36.0184 39.958 35.5144 39.65C35.0104 39.342 34.6138 38.922 34.3244 38.39C34.0351 37.858 33.8904 37.256 33.8904 36.584C33.8904 35.912 34.0351 35.31 34.3244 34.778C34.6138 34.246 35.0104 33.826 35.5144 33.518C36.0184 33.21 36.5878 33.056 37.2224 33.056C37.8478 33.056 38.4078 33.21 38.9024 33.518C39.4064 33.826 39.8031 34.246 40.0924 34.778C40.3818 35.31 40.5264 35.912 40.5264 36.584C40.5264 37.256 40.3818 37.858 40.0924 38.39C39.8031 38.922 39.4064 39.342 38.9024 39.65C38.4078 39.958 37.8478 40.112 37.2224 40.112ZM37.2084 39.216C37.6564 39.216 38.0531 39.104 38.3984 38.88C38.7438 38.6467 39.0144 38.3293 39.2104 37.928C39.4158 37.5267 39.5184 37.0787 39.5184 36.584C39.5184 36.08 39.4158 35.632 39.2104 35.24C39.0144 34.8387 38.7438 34.526 38.3984 34.302C38.0531 34.0687 37.6564 33.952 37.2084 33.952C36.7604 33.952 36.3638 34.0687 36.0184 34.302C35.6731 34.526 35.3978 34.8387 35.1924 35.24C34.9964 35.632 34.8984 36.08 34.8984 36.584C34.8984 37.0787 34.9964 37.5267 35.1924 37.928C35.3978 38.3293 35.6731 38.6467 36.0184 38.88C36.3638 39.104 36.7604 39.216 37.2084 39.216ZM42.3195 40V33.168H43.3415V34.568C43.5189 34.092 43.7709 33.7233 44.0975 33.462C44.4335 33.1913 44.8162 33.056 45.2455 33.056C45.3669 33.056 45.4789 33.0653 45.5815 33.084C45.6842 33.0933 45.7869 33.1167 45.8895 33.154V34.078C45.7775 34.0407 45.6562 34.0127 45.5255 33.994C45.4042 33.966 45.2875 33.952 45.1755 33.952C44.7555 33.952 44.3869 34.0733 44.0695 34.316C43.7615 34.5587 43.5189 34.8993 43.3415 35.338V40H42.3195ZM49.8976 40.14C49.2629 40.14 48.6889 39.986 48.1756 39.678C47.6622 39.3607 47.2562 38.936 46.9576 38.404C46.6589 37.8627 46.5096 37.256 46.5096 36.584C46.5096 35.912 46.6496 35.31 46.9296 34.778C47.2189 34.246 47.6062 33.826 48.0916 33.518C48.5769 33.21 49.1182 33.056 49.7156 33.056C50.3222 33.056 50.8589 33.21 51.3256 33.518C51.8016 33.8167 52.1749 34.2273 52.4456 34.75C52.7256 35.2633 52.8656 35.8467 52.8656 36.5V36.808H47.5036C47.5409 37.2747 47.6669 37.6947 47.8816 38.068C48.1056 38.432 48.3949 38.7213 48.7496 38.936C49.1136 39.1413 49.5102 39.244 49.9396 39.244C50.2942 39.244 50.6349 39.1833 50.9616 39.062C51.2976 38.9313 51.5822 38.7587 51.8156 38.544L52.4596 39.23C52.0676 39.538 51.6616 39.7667 51.2416 39.916C50.8216 40.0653 50.3736 40.14 49.8976 40.14ZM47.5316 36.08H51.8576C51.8109 35.6693 51.6849 35.3053 51.4796 34.988C51.2836 34.6613 51.0316 34.4047 50.7236 34.218C50.4249 34.0313 50.0889 33.938 49.7156 33.938C49.3422 33.938 49.0016 34.0313 48.6936 34.218C48.3856 34.3953 48.1289 34.6473 47.9236 34.974C47.7276 35.2913 47.5969 35.66 47.5316 36.08ZM54.6105 40V33.168H55.6325V34.232C55.8939 33.84 56.1925 33.546 56.5285 33.35C56.8645 33.154 57.2425 33.056 57.6625 33.056C58.1479 33.056 58.5725 33.1773 58.9365 33.42C59.3005 33.6533 59.5759 33.9753 59.7625 34.386C60.0332 33.9473 60.3552 33.616 60.7285 33.392C61.1112 33.168 61.5499 33.056 62.0445 33.056C62.5019 33.056 62.9032 33.1633 63.2485 33.378C63.6032 33.5927 63.8785 33.8913 64.0745 34.274C64.2705 34.6473 64.3685 35.086 64.3685 35.59V40H63.3465V35.842C63.3465 35.2447 63.1972 34.7733 62.8985 34.428C62.5999 34.0827 62.1892 33.91 61.6665 33.91C61.3119 33.91 60.9899 33.9987 60.7005 34.176C60.4205 34.3533 60.1732 34.624 59.9585 34.988C59.9772 35.0813 59.9912 35.1793 60.0005 35.282C60.0099 35.3847 60.0145 35.4873 60.0145 35.59V40H58.9925V35.842C58.9925 35.2447 58.8385 34.7733 58.5305 34.428C58.2319 34.0827 57.8212 33.91 57.2985 33.91C56.5985 33.91 56.0432 34.246 55.6325 34.918V40H54.6105ZM69.6903 40V33.168H70.7123V40H69.6903ZM70.2083 31.474C70.003 31.474 69.8256 31.404 69.6763 31.264C69.5363 31.1147 69.4663 30.942 69.4663 30.746C69.4663 30.55 69.5363 30.382 69.6763 30.242C69.8256 30.0927 70.003 30.018 70.2083 30.018C70.4136 30.018 70.5863 30.0927 70.7263 30.242C70.8756 30.382 70.9503 30.55 70.9503 30.746C70.9503 30.942 70.8756 31.1147 70.7263 31.264C70.5863 31.404 70.4136 31.474 70.2083 31.474ZM72.8078 42.926V33.168H73.8158V34.148C74.0771 33.8027 74.3945 33.5413 74.7678 33.364C75.1505 33.1773 75.5705 33.084 76.0278 33.084C76.6251 33.084 77.1571 33.2427 77.6238 33.56C78.0998 33.868 78.4778 34.288 78.7578 34.82C79.0378 35.3427 79.1778 35.9307 79.1778 36.584C79.1778 37.2373 79.0331 37.83 78.7438 38.362C78.4638 38.894 78.0811 39.3187 77.5958 39.636C77.1198 39.944 76.5785 40.098 75.9718 40.098C75.5425 40.098 75.1458 40.0187 74.7818 39.86C74.4178 39.692 74.1005 39.454 73.8298 39.146V42.926H72.8078ZM75.7758 39.216C76.2331 39.216 76.6391 39.104 76.9938 38.88C77.3578 38.6467 77.6425 38.334 77.8478 37.942C78.0625 37.5407 78.1698 37.0927 78.1698 36.598C78.1698 36.094 78.0625 35.646 77.8478 35.254C77.6425 34.862 77.3578 34.554 76.9938 34.33C76.6391 34.0967 76.2331 33.98 75.7758 33.98C75.3745 33.98 75.0011 34.064 74.6558 34.232C74.3198 34.3907 74.0445 34.6193 73.8298 34.918V38.264C74.0538 38.5627 74.3338 38.796 74.6698 38.964C75.0151 39.132 75.3838 39.216 75.7758 39.216ZM83.0839 40.14C82.5239 40.14 82.0059 40.056 81.5299 39.888C81.0539 39.7107 80.6479 39.4587 80.3119 39.132L80.8579 38.46C81.2686 38.7587 81.6466 38.978 81.9919 39.118C82.3373 39.2487 82.6919 39.314 83.0559 39.314C83.5506 39.314 83.9613 39.1973 84.2879 38.964C84.6146 38.7307 84.7779 38.432 84.7779 38.068C84.7779 37.788 84.6799 37.5687 84.4839 37.41C84.2973 37.2513 83.9846 37.13 83.5459 37.046L82.4259 36.85C81.7633 36.7287 81.2733 36.5233 80.9559 36.234C80.6479 35.9447 80.4939 35.5527 80.4939 35.058C80.4939 34.666 80.5966 34.3207 80.8019 34.022C81.0166 33.7233 81.3106 33.49 81.6839 33.322C82.0573 33.1447 82.4819 33.056 82.9579 33.056C83.4246 33.056 83.8679 33.126 84.2879 33.266C84.7079 33.3967 85.1326 33.6113 85.5619 33.91L85.0579 34.624C84.7033 34.372 84.3486 34.19 83.9939 34.078C83.6393 33.9567 83.2799 33.896 82.9159 33.896C82.4679 33.896 82.1086 33.994 81.8379 34.19C81.5673 34.386 81.4319 34.652 81.4319 34.988C81.4319 35.268 81.5159 35.4827 81.6839 35.632C81.8613 35.7813 82.1693 35.8933 82.6079 35.968L83.7559 36.178C84.4466 36.2993 84.9506 36.5093 85.2679 36.808C85.5853 37.1067 85.7439 37.508 85.7439 38.012C85.7439 38.4133 85.6273 38.7773 85.3939 39.104C85.1606 39.4213 84.8433 39.6733 84.4419 39.86C84.0406 40.0467 83.5879 40.14 83.0839 40.14ZM89.736 40.112C89.2507 40.112 88.8213 40.0047 88.448 39.79C88.0747 39.5753 87.7807 39.2767 87.566 38.894C87.3607 38.5113 87.258 38.0727 87.258 37.578V33.168H88.294V37.284C88.294 37.8907 88.4573 38.3713 88.784 38.726C89.1107 39.0807 89.554 39.258 90.114 39.258C90.4967 39.258 90.8373 39.1693 91.136 38.992C91.444 38.8147 91.7007 38.558 91.906 38.222V33.168H92.928V40H91.906V38.894C91.6447 39.2953 91.332 39.5987 90.968 39.804C90.6133 40.0093 90.2027 40.112 89.736 40.112ZM95.0246 40V33.168H96.0466V34.232C96.3079 33.84 96.6066 33.546 96.9426 33.35C97.2786 33.154 97.6566 33.056 98.0766 33.056C98.5619 33.056 98.9866 33.1773 99.3506 33.42C99.7146 33.6533 99.9899 33.9753 100.177 34.386C100.447 33.9473 100.769 33.616 101.143 33.392C101.525 33.168 101.964 33.056 102.459 33.056C102.916 33.056 103.317 33.1633 103.663 33.378C104.017 33.5927 104.293 33.8913 104.489 34.274C104.685 34.6473 104.783 35.086 104.783 35.59V40H103.761V35.842C103.761 35.2447 103.611 34.7733 103.313 34.428C103.014 34.0827 102.603 33.91 102.081 33.91C101.726 33.91 101.404 33.9987 101.115 34.176C100.835 34.3533 100.587 34.624 100.373 34.988C100.391 35.0813 100.405 35.1793 100.415 35.282C100.424 35.3847 100.429 35.4873 100.429 35.59V40H99.4066V35.842C99.4066 35.2447 99.2526 34.7733 98.9446 34.428C98.6459 34.0827 98.2353 33.91 97.7126 33.91C97.0126 33.91 96.4573 34.246 96.0466 34.918V40H95.0246ZM112.96 40.098C112.372 40.098 111.84 39.944 111.364 39.636C110.888 39.3187 110.51 38.8987 110.23 38.376C109.95 37.844 109.81 37.2513 109.81 36.598C109.81 35.9353 109.95 35.3427 110.23 34.82C110.52 34.288 110.907 33.868 111.392 33.56C111.878 33.2427 112.419 33.084 113.016 33.084C113.436 33.084 113.828 33.168 114.192 33.336C114.556 33.4947 114.874 33.728 115.144 34.036V29.892L116.166 29.682V40H115.144V39.09C114.883 39.4167 114.566 39.6687 114.192 39.846C113.819 40.014 113.408 40.098 112.96 40.098ZM113.212 39.202C113.614 39.202 113.982 39.1227 114.318 38.964C114.654 38.8053 114.93 38.5813 115.144 38.292V34.904C114.92 34.6147 114.636 34.3907 114.29 34.232C113.954 34.064 113.595 33.98 113.212 33.98C112.755 33.98 112.344 34.092 111.98 34.316C111.626 34.54 111.341 34.848 111.126 35.24C110.921 35.632 110.818 36.08 110.818 36.584C110.818 37.0787 110.921 37.5267 111.126 37.928C111.341 38.32 111.626 38.6327 111.98 38.866C112.344 39.09 112.755 39.202 113.212 39.202ZM121.291 40.112C120.656 40.112 120.087 39.958 119.583 39.65C119.079 39.342 118.682 38.922 118.393 38.39C118.103 37.858 117.959 37.256 117.959 36.584C117.959 35.912 118.103 35.31 118.393 34.778C118.682 34.246 119.079 33.826 119.583 33.518C120.087 33.21 120.656 33.056 121.291 33.056C121.916 33.056 122.476 33.21 122.971 33.518C123.475 33.826 123.871 34.246 124.161 34.778C124.45 35.31 124.595 35.912 124.595 36.584C124.595 37.256 124.45 37.858 124.161 38.39C123.871 38.922 123.475 39.342 122.971 39.65C122.476 39.958 121.916 40.112 121.291 40.112ZM121.277 39.216C121.725 39.216 122.121 39.104 122.467 38.88C122.812 38.6467 123.083 38.3293 123.279 37.928C123.484 37.5267 123.587 37.0787 123.587 36.584C123.587 36.08 123.484 35.632 123.279 35.24C123.083 34.8387 122.812 34.526 122.467 34.302C122.121 34.0687 121.725 33.952 121.277 33.952C120.829 33.952 120.432 34.0687 120.087 34.302C119.741 34.526 119.466 34.8387 119.261 35.24C119.065 35.632 118.967 36.08 118.967 36.584C118.967 37.0787 119.065 37.5267 119.261 37.928C119.466 38.3293 119.741 38.6467 120.087 38.88C120.432 39.104 120.829 39.216 121.277 39.216ZM126.388 40V29.892L127.41 29.682V40H126.388ZM132.529 40.112C131.894 40.112 131.325 39.958 130.821 39.65C130.317 39.342 129.92 38.922 129.631 38.39C129.342 37.858 129.197 37.256 129.197 36.584C129.197 35.912 129.342 35.31 129.631 34.778C129.92 34.246 130.317 33.826 130.821 33.518C131.325 33.21 131.894 33.056 132.529 33.056C133.154 33.056 133.714 33.21 134.209 33.518C134.713 33.826 135.11 34.246 135.399 34.778C135.688 35.31 135.833 35.912 135.833 36.584C135.833 37.256 135.688 37.858 135.399 38.39C135.11 38.922 134.713 39.342 134.209 39.65C133.714 39.958 133.154 40.112 132.529 40.112ZM132.515 39.216C132.963 39.216 133.36 39.104 133.705 38.88C134.05 38.6467 134.321 38.3293 134.517 37.928C134.722 37.5267 134.825 37.0787 134.825 36.584C134.825 36.08 134.722 35.632 134.517 35.24C134.321 34.8387 134.05 34.526 133.705 34.302C133.36 34.0687 132.963 33.952 132.515 33.952C132.067 33.952 131.67 34.0687 131.325 34.302C130.98 34.526 130.704 34.8387 130.499 35.24C130.303 35.632 130.205 36.08 130.205 36.584C130.205 37.0787 130.303 37.5267 130.499 37.928C130.704 38.3293 130.98 38.6467 131.325 38.88C131.67 39.104 132.067 39.216 132.515 39.216ZM137.626 40V33.168H138.648V34.568C138.826 34.092 139.078 33.7233 139.404 33.462C139.74 33.1913 140.123 33.056 140.552 33.056C140.674 33.056 140.786 33.0653 140.888 33.084C140.991 33.0933 141.094 33.1167 141.196 33.154V34.078C141.084 34.0407 140.963 34.0127 140.832 33.994C140.711 33.966 140.594 33.952 140.482 33.952C140.062 33.952 139.694 34.0733 139.376 34.316C139.068 34.5587 138.826 34.8993 138.648 35.338V40H137.626ZM147.93 40.14C147.37 40.14 146.852 40.056 146.376 39.888C145.9 39.7107 145.494 39.4587 145.158 39.132L145.704 38.46C146.114 38.7587 146.492 38.978 146.838 39.118C147.183 39.2487 147.538 39.314 147.902 39.314C148.396 39.314 148.807 39.1973 149.134 38.964C149.46 38.7307 149.624 38.432 149.624 38.068C149.624 37.788 149.526 37.5687 149.33 37.41C149.143 37.2513 148.83 37.13 148.392 37.046L147.272 36.85C146.609 36.7287 146.119 36.5233 145.802 36.234C145.494 35.9447 145.34 35.5527 145.34 35.058C145.34 34.666 145.442 34.3207 145.648 34.022C145.862 33.7233 146.156 33.49 146.53 33.322C146.903 33.1447 147.328 33.056 147.804 33.056C148.27 33.056 148.714 33.126 149.134 33.266C149.554 33.3967 149.978 33.6113 150.408 33.91L149.904 34.624C149.549 34.372 149.194 34.19 148.84 34.078C148.485 33.9567 148.126 33.896 147.762 33.896C147.314 33.896 146.954 33.994 146.684 34.19C146.413 34.386 146.278 34.652 146.278 34.988C146.278 35.268 146.362 35.4827 146.53 35.632C146.707 35.7813 147.015 35.8933 147.454 35.968L148.602 36.178C149.292 36.2993 149.796 36.5093 150.114 36.808C150.431 37.1067 150.59 37.508 150.59 38.012C150.59 38.4133 150.473 38.7773 150.24 39.104C150.006 39.4213 149.689 39.6733 149.288 39.86C148.886 40.0467 148.434 40.14 147.93 40.14ZM152.132 40V33.168H153.154V40H152.132ZM152.65 31.474C152.444 31.474 152.267 31.404 152.118 31.264C151.978 31.1147 151.908 30.942 151.908 30.746C151.908 30.55 151.978 30.382 152.118 30.242C152.267 30.0927 152.444 30.018 152.65 30.018C152.855 30.018 153.028 30.0927 153.168 30.242C153.317 30.382 153.392 30.55 153.392 30.746C153.392 30.942 153.317 31.1147 153.168 31.264C153.028 31.404 152.855 31.474 152.65 31.474ZM157.853 40.14C157.265 40.14 156.817 40 156.509 39.72C156.211 39.4307 156.061 39.0153 156.061 38.474V34.008H154.647V33.168H156.061V31.292L157.083 31.054V33.168H159.043V34.008H157.083V38.208C157.083 38.572 157.158 38.8333 157.307 38.992C157.466 39.1507 157.723 39.23 158.077 39.23C158.255 39.23 158.413 39.216 158.553 39.188C158.693 39.16 158.857 39.1133 159.043 39.048V39.958C158.857 40.0233 158.661 40.07 158.455 40.098C158.25 40.126 158.049 40.14 157.853 40.14ZM165.922 40.126C165.436 40.126 165.007 40.0373 164.634 39.86C164.26 39.6827 163.966 39.44 163.752 39.132C163.546 38.8147 163.444 38.4507 163.444 38.04C163.444 37.6293 163.551 37.2747 163.766 36.976C163.98 36.668 164.279 36.43 164.662 36.262C165.044 36.094 165.492 36.01 166.006 36.01C166.398 36.01 166.766 36.052 167.112 36.136C167.466 36.22 167.793 36.3553 168.092 36.542V35.604C168.092 35.044 167.942 34.624 167.644 34.344C167.345 34.0547 166.906 33.91 166.328 33.91C166.01 33.91 165.684 33.9567 165.348 34.05C165.021 34.1433 164.657 34.2927 164.256 34.498L163.878 33.714C164.792 33.2753 165.651 33.056 166.454 33.056C167.303 33.056 167.956 33.266 168.414 33.686C168.871 34.0967 169.1 34.6893 169.1 35.464V40H168.092V39.202C167.793 39.51 167.462 39.7433 167.098 39.902C166.734 40.0513 166.342 40.126 165.922 40.126ZM164.424 38.012C164.424 38.4133 164.578 38.7353 164.886 38.978C165.203 39.2207 165.618 39.342 166.132 39.342C166.514 39.342 166.864 39.2767 167.182 39.146C167.508 39.0153 167.812 38.8193 168.092 38.558V37.242C167.802 37.074 167.504 36.9527 167.196 36.878C166.888 36.794 166.542 36.752 166.16 36.752C165.637 36.752 165.217 36.8687 164.9 37.102C164.582 37.326 164.424 37.6293 164.424 38.012ZM171.177 40V33.168H172.199V34.232C172.46 33.84 172.759 33.546 173.095 33.35C173.431 33.154 173.809 33.056 174.229 33.056C174.714 33.056 175.139 33.1773 175.503 33.42C175.867 33.6533 176.142 33.9753 176.329 34.386C176.6 33.9473 176.922 33.616 177.295 33.392C177.678 33.168 178.116 33.056 178.611 33.056C179.068 33.056 179.47 33.1633 179.815 33.378C180.17 33.5927 180.445 33.8913 180.641 34.274C180.837 34.6473 180.935 35.086 180.935 35.59V40H179.913V35.842C179.913 35.2447 179.764 34.7733 179.465 34.428C179.166 34.0827 178.756 33.91 178.233 33.91C177.878 33.91 177.556 33.9987 177.267 34.176C176.987 34.3533 176.74 34.624 176.525 34.988C176.544 35.0813 176.558 35.1793 176.567 35.282C176.576 35.3847 176.581 35.4873 176.581 35.59V40H175.559V35.842C175.559 35.2447 175.405 34.7733 175.097 34.428C174.798 34.0827 174.388 33.91 173.865 33.91C173.165 33.91 172.61 34.246 172.199 34.918V40H171.177ZM186.083 40.14C185.448 40.14 184.874 39.986 184.361 39.678C183.848 39.3607 183.442 38.936 183.143 38.404C182.844 37.8627 182.695 37.256 182.695 36.584C182.695 35.912 182.835 35.31 183.115 34.778C183.404 34.246 183.792 33.826 184.277 33.518C184.762 33.21 185.304 33.056 185.901 33.056C186.508 33.056 187.044 33.21 187.511 33.518C187.987 33.8167 188.36 34.2273 188.631 34.75C188.911 35.2633 189.051 35.8467 189.051 36.5V36.808H183.689C183.726 37.2747 183.852 37.6947 184.067 38.068C184.291 38.432 184.58 38.7213 184.935 38.936C185.299 39.1413 185.696 39.244 186.125 39.244C186.48 39.244 186.82 39.1833 187.147 39.062C187.483 38.9313 187.768 38.7587 188.001 38.544L188.645 39.23C188.253 39.538 187.847 39.7667 187.427 39.916C187.007 40.0653 186.559 40.14 186.083 40.14ZM183.717 36.08H188.043C187.996 35.6693 187.87 35.3053 187.665 34.988C187.469 34.6613 187.217 34.4047 186.909 34.218C186.61 34.0313 186.274 33.938 185.901 33.938C185.528 33.938 185.187 34.0313 184.879 34.218C184.571 34.3953 184.314 34.6473 184.109 34.974C183.913 35.2913 183.782 35.66 183.717 36.08ZM193.195 40.14C192.607 40.14 192.159 40 191.851 39.72C191.552 39.4307 191.403 39.0153 191.403 38.474V34.008H189.989V33.168H191.403V31.292L192.425 31.054V33.168H194.385V34.008H192.425V38.208C192.425 38.572 192.5 38.8333 192.649 38.992C192.808 39.1507 193.064 39.23 193.419 39.23C193.596 39.23 193.755 39.216 193.895 39.188C194.035 39.16 194.198 39.1133 194.385 39.048V39.958C194.198 40.0233 194.002 40.07 193.797 40.098C193.592 40.126 193.391 40.14 193.195 40.14ZM195.532 42.198L196.372 38.964H197.464L196.33 42.198H195.532ZM205.716 40.112C205.081 40.112 204.507 39.958 203.994 39.65C203.49 39.3327 203.088 38.908 202.79 38.376C202.491 37.8347 202.342 37.2373 202.342 36.584C202.342 35.9213 202.491 35.324 202.79 34.792C203.088 34.26 203.49 33.84 203.994 33.532C204.507 33.2147 205.081 33.056 205.716 33.056C206.22 33.056 206.7 33.1493 207.158 33.336C207.615 33.5227 208.012 33.784 208.348 34.12L207.69 34.834C207.447 34.5633 207.153 34.3533 206.808 34.204C206.462 34.0547 206.112 33.98 205.758 33.98C205.31 33.98 204.904 34.0967 204.54 34.33C204.185 34.5633 203.9 34.876 203.686 35.268C203.471 35.66 203.364 36.0987 203.364 36.584C203.364 37.0693 203.471 37.508 203.686 37.9C203.9 38.292 204.185 38.6047 204.54 38.838C204.904 39.0713 205.31 39.188 205.758 39.188C206.112 39.188 206.462 39.1133 206.808 38.964C207.153 38.8053 207.447 38.5953 207.69 38.334L208.348 39.048C208.012 39.384 207.615 39.6453 207.158 39.832C206.7 40.0187 206.22 40.112 205.716 40.112ZM212.592 40.112C211.957 40.112 211.388 39.958 210.884 39.65C210.38 39.342 209.983 38.922 209.694 38.39C209.404 37.858 209.26 37.256 209.26 36.584C209.26 35.912 209.404 35.31 209.694 34.778C209.983 34.246 210.38 33.826 210.884 33.518C211.388 33.21 211.957 33.056 212.592 33.056C213.217 33.056 213.777 33.21 214.272 33.518C214.776 33.826 215.172 34.246 215.462 34.778C215.751 35.31 215.896 35.912 215.896 36.584C215.896 37.256 215.751 37.858 215.462 38.39C215.172 38.922 214.776 39.342 214.272 39.65C213.777 39.958 213.217 40.112 212.592 40.112ZM212.578 39.216C213.026 39.216 213.422 39.104 213.768 38.88C214.113 38.6467 214.384 38.3293 214.58 37.928C214.785 37.5267 214.888 37.0787 214.888 36.584C214.888 36.08 214.785 35.632 214.58 35.24C214.384 34.8387 214.113 34.526 213.768 34.302C213.422 34.0687 213.026 33.952 212.578 33.952C212.13 33.952 211.733 34.0687 211.388 34.302C211.042 34.526 210.767 34.8387 210.562 35.24C210.366 35.632 210.268 36.08 210.268 36.584C210.268 37.0787 210.366 37.5267 210.562 37.928C210.767 38.3293 211.042 38.6467 211.388 38.88C211.733 39.104 212.13 39.216 212.578 39.216ZM217.689 40V33.168H218.711V34.274C218.972 33.8633 219.285 33.56 219.649 33.364C220.013 33.1587 220.423 33.056 220.881 33.056C221.375 33.056 221.805 33.1633 222.169 33.378C222.542 33.5833 222.831 33.8773 223.037 34.26C223.251 34.6333 223.359 35.072 223.359 35.576V40H222.337V35.87C222.337 35.2633 222.169 34.7873 221.833 34.442C221.506 34.0873 221.063 33.91 220.503 33.91C220.129 33.91 219.789 33.9987 219.481 34.176C219.173 34.3533 218.916 34.6147 218.711 34.96V40H217.689ZM227.527 40.14C226.967 40.14 226.449 40.056 225.973 39.888C225.497 39.7107 225.091 39.4587 224.755 39.132L225.301 38.46C225.712 38.7587 226.09 38.978 226.435 39.118C226.781 39.2487 227.135 39.314 227.499 39.314C227.994 39.314 228.405 39.1973 228.731 38.964C229.058 38.7307 229.221 38.432 229.221 38.068C229.221 37.788 229.123 37.5687 228.927 37.41C228.741 37.2513 228.428 37.13 227.989 37.046L226.869 36.85C226.207 36.7287 225.717 36.5233 225.399 36.234C225.091 35.9447 224.937 35.5527 224.937 35.058C224.937 34.666 225.04 34.3207 225.245 34.022C225.46 33.7233 225.754 33.49 226.127 33.322C226.501 33.1447 226.925 33.056 227.401 33.056C227.868 33.056 228.311 33.126 228.731 33.266C229.151 33.3967 229.576 33.6113 230.005 33.91L229.501 34.624C229.147 34.372 228.792 34.19 228.437 34.078C228.083 33.9567 227.723 33.896 227.359 33.896C226.911 33.896 226.552 33.994 226.281 34.19C226.011 34.386 225.875 34.652 225.875 34.988C225.875 35.268 225.959 35.4827 226.127 35.632C226.305 35.7813 226.613 35.8933 227.051 35.968L228.199 36.178C228.89 36.2993 229.394 36.5093 229.711 36.808C230.029 37.1067 230.187 37.508 230.187 38.012C230.187 38.4133 230.071 38.7773 229.837 39.104C229.604 39.4213 229.287 39.6733 228.885 39.86C228.484 40.0467 228.031 40.14 227.527 40.14ZM234.892 40.14C234.257 40.14 233.683 39.986 233.17 39.678C232.656 39.3607 232.25 38.936 231.952 38.404C231.653 37.8627 231.504 37.256 231.504 36.584C231.504 35.912 231.644 35.31 231.924 34.778C232.213 34.246 232.6 33.826 233.086 33.518C233.571 33.21 234.112 33.056 234.71 33.056C235.316 33.056 235.853 33.21 236.32 33.518C236.796 33.8167 237.169 34.2273 237.44 34.75C237.72 35.2633 237.86 35.8467 237.86 36.5V36.808H232.498C232.535 37.2747 232.661 37.6947 232.876 38.068C233.1 38.432 233.389 38.7213 233.744 38.936C234.108 39.1413 234.504 39.244 234.934 39.244C235.288 39.244 235.629 39.1833 235.956 39.062C236.292 38.9313 236.576 38.7587 236.81 38.544L237.454 39.23C237.062 39.538 236.656 39.7667 236.236 39.916C235.816 40.0653 235.368 40.14 234.892 40.14ZM232.526 36.08H236.852C236.805 35.6693 236.679 35.3053 236.474 34.988C236.278 34.6613 236.026 34.4047 235.718 34.218C235.419 34.0313 235.083 33.938 234.71 33.938C234.336 33.938 233.996 34.0313 233.688 34.218C233.38 34.3953 233.123 34.6473 232.918 34.974C232.722 35.2913 232.591 35.66 232.526 36.08ZM242.671 40.112C242.036 40.112 241.462 39.958 240.949 39.65C240.445 39.3327 240.043 38.908 239.745 38.376C239.446 37.8347 239.297 37.2373 239.297 36.584C239.297 35.9213 239.446 35.324 239.745 34.792C240.043 34.26 240.445 33.84 240.949 33.532C241.462 33.2147 242.036 33.056 242.671 33.056C243.175 33.056 243.655 33.1493 244.113 33.336C244.57 33.5227 244.967 33.784 245.303 34.12L244.645 34.834C244.402 34.5633 244.108 34.3533 243.763 34.204C243.417 34.0547 243.067 33.98 242.713 33.98C242.265 33.98 241.859 34.0967 241.495 34.33C241.14 34.5633 240.855 34.876 240.641 35.268C240.426 35.66 240.319 36.0987 240.319 36.584C240.319 37.0693 240.426 37.508 240.641 37.9C240.855 38.292 241.14 38.6047 241.495 38.838C241.859 39.0713 242.265 39.188 242.713 39.188C243.067 39.188 243.417 39.1133 243.763 38.964C244.108 38.8053 244.402 38.5953 244.645 38.334L245.303 39.048C244.967 39.384 244.57 39.6453 244.113 39.832C243.655 40.0187 243.175 40.112 242.671 40.112ZM249.468 40.14C248.88 40.14 248.432 40 248.124 39.72C247.826 39.4307 247.676 39.0153 247.676 38.474V34.008H246.262V33.168H247.676V31.292L248.698 31.054V33.168H250.658V34.008H248.698V38.208C248.698 38.572 248.773 38.8333 248.922 38.992C249.081 39.1507 249.338 39.23 249.692 39.23C249.87 39.23 250.028 39.216 250.168 39.188C250.308 39.16 250.472 39.1133 250.658 39.048V39.958C250.472 40.0233 250.276 40.07 250.07 40.098C249.865 40.126 249.664 40.14 249.468 40.14ZM255.099 40.14C254.464 40.14 253.89 39.986 253.377 39.678C252.863 39.3607 252.457 38.936 252.159 38.404C251.86 37.8627 251.711 37.256 251.711 36.584C251.711 35.912 251.851 35.31 252.131 34.778C252.42 34.246 252.807 33.826 253.293 33.518C253.778 33.21 254.319 33.056 254.917 33.056C255.523 33.056 256.06 33.21 256.527 33.518C257.003 33.8167 257.376 34.2273 257.647 34.75C257.927 35.2633 258.067 35.8467 258.067 36.5V36.808H252.705C252.742 37.2747 252.868 37.6947 253.083 38.068C253.307 38.432 253.596 38.7213 253.951 38.936C254.315 39.1413 254.711 39.244 255.141 39.244C255.495 39.244 255.836 39.1833 256.163 39.062C256.499 38.9313 256.783 38.7587 257.017 38.544L257.661 39.23C257.269 39.538 256.863 39.7667 256.443 39.916C256.023 40.0653 255.575 40.14 255.099 40.14ZM252.733 36.08H257.059C257.012 35.6693 256.886 35.3053 256.681 34.988C256.485 34.6613 256.233 34.4047 255.925 34.218C255.626 34.0313 255.29 33.938 254.917 33.938C254.543 33.938 254.203 34.0313 253.895 34.218C253.587 34.3953 253.33 34.6473 253.125 34.974C252.929 35.2913 252.798 35.66 252.733 36.08ZM262.211 40.14C261.623 40.14 261.175 40 260.867 39.72C260.568 39.4307 260.419 39.0153 260.419 38.474V34.008H259.005V33.168H260.419V31.292L261.441 31.054V33.168H263.401V34.008H261.441V38.208C261.441 38.572 261.515 38.8333 261.665 38.992C261.823 39.1507 262.08 39.23 262.435 39.23C262.612 39.23 262.771 39.216 262.911 39.188C263.051 39.16 263.214 39.1133 263.401 39.048V39.958C263.214 40.0233 263.018 40.07 262.813 40.098C262.607 40.126 262.407 40.14 262.211 40.14ZM267.334 40.112C266.848 40.112 266.419 40.0047 266.046 39.79C265.672 39.5753 265.378 39.2767 265.164 38.894C264.958 38.5113 264.856 38.0727 264.856 37.578V33.168H265.892V37.284C265.892 37.8907 266.055 38.3713 266.382 38.726C266.708 39.0807 267.152 39.258 267.712 39.258C268.094 39.258 268.435 39.1693 268.734 38.992C269.042 38.8147 269.298 38.558 269.504 38.222V33.168H270.526V40H269.504V38.894C269.242 39.2953 268.93 39.5987 268.566 39.804C268.211 40.0093 267.8 40.112 267.334 40.112ZM272.622 40V33.168H273.644V34.568C273.822 34.092 274.074 33.7233 274.4 33.462C274.736 33.1913 275.119 33.056 275.548 33.056C275.67 33.056 275.782 33.0653 275.884 33.084C275.987 33.0933 276.09 33.1167 276.192 33.154V34.078C276.08 34.0407 275.959 34.0127 275.828 33.994C275.707 33.966 275.59 33.952 275.478 33.952C275.058 33.952 274.69 34.0733 274.372 34.316C274.064 34.5587 273.822 34.8993 273.644 35.338V40H272.622ZM282.926 40.126C282.44 40.126 282.011 40.0373 281.638 39.86C281.264 39.6827 280.97 39.44 280.756 39.132C280.55 38.8147 280.448 38.4507 280.448 38.04C280.448 37.6293 280.555 37.2747 280.77 36.976C280.984 36.668 281.283 36.43 281.666 36.262C282.048 36.094 282.496 36.01 283.01 36.01C283.402 36.01 283.77 36.052 284.116 36.136C284.47 36.22 284.797 36.3553 285.096 36.542V35.604C285.096 35.044 284.946 34.624 284.648 34.344C284.349 34.0547 283.91 33.91 283.332 33.91C283.014 33.91 282.688 33.9567 282.352 34.05C282.025 34.1433 281.661 34.2927 281.26 34.498L280.882 33.714C281.796 33.2753 282.655 33.056 283.458 33.056C284.307 33.056 284.96 33.266 285.418 33.686C285.875 34.0967 286.104 34.6893 286.104 35.464V40H285.096V39.202C284.797 39.51 284.466 39.7433 284.102 39.902C283.738 40.0513 283.346 40.126 282.926 40.126ZM281.428 38.012C281.428 38.4133 281.582 38.7353 281.89 38.978C282.207 39.2207 282.622 39.342 283.136 39.342C283.518 39.342 283.868 39.2767 284.186 39.146C284.512 39.0153 284.816 38.8193 285.096 38.558V37.242C284.806 37.074 284.508 36.9527 284.2 36.878C283.892 36.794 283.546 36.752 283.164 36.752C282.641 36.752 282.221 36.8687 281.904 37.102C281.586 37.326 281.428 37.6293 281.428 38.012ZM291.023 40.098C290.435 40.098 289.903 39.944 289.427 39.636C288.951 39.3187 288.573 38.8987 288.293 38.376C288.013 37.844 287.873 37.2513 287.873 36.598C287.873 35.9353 288.013 35.3427 288.293 34.82C288.582 34.288 288.97 33.868 289.455 33.56C289.94 33.2427 290.482 33.084 291.079 33.084C291.499 33.084 291.891 33.168 292.255 33.336C292.619 33.4947 292.936 33.728 293.207 34.036V29.892L294.229 29.682V40H293.207V39.09C292.946 39.4167 292.628 39.6687 292.255 39.846C291.882 40.014 291.471 40.098 291.023 40.098ZM291.275 39.202C291.676 39.202 292.045 39.1227 292.381 38.964C292.717 38.8053 292.992 38.5813 293.207 38.292V34.904C292.983 34.6147 292.698 34.3907 292.353 34.232C292.017 34.064 291.658 33.98 291.275 33.98C290.818 33.98 290.407 34.092 290.043 34.316C289.688 34.54 289.404 34.848 289.189 35.24C288.984 35.632 288.881 36.08 288.881 36.584C288.881 37.0787 288.984 37.5267 289.189 37.928C289.404 38.32 289.688 38.6327 290.043 38.866C290.407 39.09 290.818 39.202 291.275 39.202ZM296.315 40V33.168H297.337V40H296.315ZM296.833 31.474C296.628 31.474 296.451 31.404 296.301 31.264C296.161 31.1147 296.091 30.942 296.091 30.746C296.091 30.55 296.161 30.382 296.301 30.242C296.451 30.0927 296.628 30.018 296.833 30.018C297.039 30.018 297.211 30.0927 297.351 30.242C297.501 30.382 297.575 30.55 297.575 30.746C297.575 30.942 297.501 31.1147 297.351 31.264C297.211 31.404 297.039 31.474 296.833 31.474ZM300.133 40.112C299.927 40.112 299.75 40.0373 299.601 39.888C299.461 39.7387 299.391 39.5613 299.391 39.356C299.391 39.1413 299.461 38.964 299.601 38.824C299.75 38.6747 299.927 38.6 300.133 38.6C300.338 38.6 300.511 38.6747 300.651 38.824C300.8 38.964 300.875 39.1413 300.875 39.356C300.875 39.5613 300.8 39.7387 300.651 39.888C300.511 40.0373 300.338 40.112 300.133 40.112ZM303.213 40.112C303.007 40.112 302.83 40.0373 302.681 39.888C302.541 39.7387 302.471 39.5613 302.471 39.356C302.471 39.1413 302.541 38.964 302.681 38.824C302.83 38.6747 303.007 38.6 303.213 38.6C303.418 38.6 303.591 38.6747 303.731 38.824C303.88 38.964 303.955 39.1413 303.955 39.356C303.955 39.5613 303.88 39.7387 303.731 39.888C303.591 40.0373 303.418 40.112 303.213 40.112ZM306.279 40.112C306.073 40.112 305.896 40.0373 305.747 39.888C305.607 39.7387 305.537 39.5613 305.537 39.356C305.537 39.1413 305.607 38.964 305.747 38.824C305.896 38.6747 306.073 38.6 306.279 38.6C306.484 38.6 306.657 38.6747 306.797 38.824C306.946 38.964 307.021 39.1413 307.021 39.356C307.021 39.5613 306.946 39.7387 306.797 39.888C306.657 40.0373 306.484 40.112 306.279 40.112Z" fill="#151515"/>
</svg>
