<svg width="713" height="303" viewBox="0 0 713 303" fill="none" xmlns="http://www.w3.org/2000/svg">
<rect width="713" height="303" fill="white"/>
<path d="M200 87C200 79.8203 205.82 74 213 74H253C260.18 74 266 79.8203 266 87C266 94.1797 260.18 100 253 100H213C205.82 100 200 94.1797 200 87Z" fill="#E0E0E0"/>
<path d="M209.068 91V82.6H209.992V90.184H214.732V91H209.068ZM218.001 91.108C217.585 91.108 217.217 91.032 216.897 90.88C216.577 90.728 216.325 90.52 216.141 90.256C215.965 89.984 215.877 89.672 215.877 89.32C215.877 88.968 215.969 88.664 216.153 88.408C216.337 88.144 216.593 87.94 216.921 87.796C217.249 87.652 217.633 87.58 218.073 87.58C218.409 87.58 218.725 87.616 219.021 87.688C219.325 87.76 219.605 87.876 219.861 88.036V87.232C219.861 86.752 219.733 86.392 219.477 86.152C219.221 85.904 218.845 85.78 218.349 85.78C218.077 85.78 217.797 85.82 217.509 85.9C217.229 85.98 216.917 86.108 216.573 86.284L216.249 85.612C217.033 85.236 217.769 85.048 218.457 85.048C219.185 85.048 219.745 85.228 220.137 85.588C220.529 85.94 220.725 86.448 220.725 87.112V91H219.861V90.316C219.605 90.58 219.321 90.78 219.009 90.916C218.697 91.044 218.361 91.108 218.001 91.108ZM216.717 89.296C216.717 89.64 216.849 89.916 217.113 90.124C217.385 90.332 217.741 90.436 218.181 90.436C218.509 90.436 218.809 90.38 219.081 90.268C219.361 90.156 219.621 89.988 219.861 89.764V88.636C219.613 88.492 219.357 88.388 219.093 88.324C218.829 88.252 218.533 88.216 218.205 88.216C217.757 88.216 217.397 88.316 217.125 88.516C216.853 88.708 216.717 88.968 216.717 89.296ZM222.505 91V82.42L223.381 82.24V85.948C223.605 85.668 223.877 85.452 224.197 85.3C224.517 85.148 224.873 85.072 225.265 85.072C225.777 85.072 226.233 85.208 226.633 85.48C227.041 85.744 227.365 86.104 227.605 86.56C227.845 87.008 227.965 87.512 227.965 88.072C227.965 88.632 227.841 89.14 227.593 89.596C227.353 90.052 227.025 90.416 226.609 90.688C226.201 90.952 225.737 91.084 225.217 91.084C224.849 91.084 224.505 91.012 224.185 90.868C223.873 90.716 223.601 90.504 223.369 90.232V91H222.505ZM225.049 90.328C225.441 90.328 225.789 90.232 226.093 90.04C226.405 89.84 226.649 89.572 226.825 89.236C227.009 88.892 227.101 88.508 227.101 88.084C227.101 87.652 227.009 87.268 226.825 86.932C226.649 86.596 226.405 86.332 226.093 86.14C225.789 85.94 225.441 85.84 225.049 85.84C224.705 85.84 224.385 85.912 224.089 86.056C223.801 86.192 223.565 86.388 223.381 86.644V89.512C223.573 89.768 223.813 89.968 224.101 90.112C224.397 90.256 224.713 90.328 225.049 90.328ZM232.142 91.12C231.598 91.12 231.106 90.988 230.666 90.724C230.226 90.452 229.878 90.088 229.622 89.632C229.366 89.168 229.238 88.648 229.238 88.072C229.238 87.496 229.358 86.98 229.598 86.524C229.846 86.068 230.178 85.708 230.594 85.444C231.01 85.18 231.474 85.048 231.986 85.048C232.506 85.048 232.966 85.18 233.366 85.444C233.774 85.7 234.094 86.052 234.326 86.5C234.566 86.94 234.686 87.44 234.686 88V88.264H230.09C230.122 88.664 230.23 89.024 230.414 89.344C230.606 89.656 230.854 89.904 231.158 90.088C231.47 90.264 231.81 90.352 232.178 90.352C232.482 90.352 232.774 90.3 233.054 90.196C233.342 90.084 233.586 89.936 233.786 89.752L234.338 90.34C234.002 90.604 233.654 90.8 233.294 90.928C232.934 91.056 232.55 91.12 232.142 91.12ZM230.114 87.64H233.822C233.782 87.288 233.674 86.976 233.498 86.704C233.33 86.424 233.114 86.204 232.85 86.044C232.594 85.884 232.306 85.804 231.986 85.804C231.666 85.804 231.374 85.884 231.11 86.044C230.846 86.196 230.626 86.412 230.45 86.692C230.282 86.964 230.17 87.28 230.114 87.64ZM236.181 91V82.336L237.057 82.156V91H236.181Z" fill="black"/>
<path fill-rule="evenodd" clip-rule="evenodd" d="M253.285 90.7907L253.791 90.2852C254.07 90.0061 254.07 89.5536 253.791 89.2743L251.516 87L253.791 84.7257C254.07 84.4466 254.07 83.9941 253.791 83.7148L253.285 83.2093C253.006 82.9302 252.554 82.9302 252.274 83.2093L250 85.4836L247.726 83.2093C247.447 82.9302 246.994 82.9302 246.715 83.2093L246.209 83.7148C245.93 83.9939 245.93 84.4464 246.209 84.7257L248.484 87L246.209 89.2743C245.93 89.5534 245.93 90.0059 246.209 90.2852L246.715 90.7907C246.994 91.0698 247.447 91.0698 247.726 90.7907L250 88.5164L252.274 90.7907C252.553 91.0698 253.006 91.0698 253.285 90.7907Z" fill="#1F1F1F"/>
<path d="M40 87C40 79.8203 45.8203 74 53 74H93C100.18 74 106 79.8203 106 87C106 94.1797 100.18 100 93 100H53C45.8203 100 40 94.1797 40 87Z" fill="#E0E0E0"/>
<path d="M49.068 91V82.6H49.992V90.184H54.732V91H49.068ZM58.0011 91.108C57.5851 91.108 57.2171 91.032 56.8971 90.88C56.5771 90.728 56.3251 90.52 56.1411 90.256C55.9651 89.984 55.8771 89.672 55.8771 89.32C55.8771 88.968 55.9691 88.664 56.1531 88.408C56.3371 88.144 56.5931 87.94 56.9211 87.796C57.2491 87.652 57.6331 87.58 58.0731 87.58C58.4091 87.58 58.7251 87.616 59.0211 87.688C59.3251 87.76 59.6051 87.876 59.8611 88.036V87.232C59.8611 86.752 59.7331 86.392 59.4771 86.152C59.2211 85.904 58.8451 85.78 58.3491 85.78C58.0771 85.78 57.7971 85.82 57.5091 85.9C57.2291 85.98 56.9171 86.108 56.5731 86.284L56.2491 85.612C57.0331 85.236 57.7691 85.048 58.4571 85.048C59.1851 85.048 59.7451 85.228 60.1371 85.588C60.5291 85.94 60.7251 86.448 60.7251 87.112V91H59.8611V90.316C59.6051 90.58 59.3211 90.78 59.0091 90.916C58.6971 91.044 58.3611 91.108 58.0011 91.108ZM56.7171 89.296C56.7171 89.64 56.8491 89.916 57.1131 90.124C57.3851 90.332 57.7411 90.436 58.1811 90.436C58.5091 90.436 58.8091 90.38 59.0811 90.268C59.3611 90.156 59.6211 89.988 59.8611 89.764V88.636C59.6131 88.492 59.3571 88.388 59.0931 88.324C58.8291 88.252 58.5331 88.216 58.2051 88.216C57.7571 88.216 57.3971 88.316 57.1251 88.516C56.8531 88.708 56.7171 88.968 56.7171 89.296ZM62.5055 91V82.42L63.3815 82.24V85.948C63.6055 85.668 63.8775 85.452 64.1975 85.3C64.5175 85.148 64.8735 85.072 65.2655 85.072C65.7775 85.072 66.2335 85.208 66.6335 85.48C67.0415 85.744 67.3655 86.104 67.6055 86.56C67.8455 87.008 67.9655 87.512 67.9655 88.072C67.9655 88.632 67.8415 89.14 67.5935 89.596C67.3535 90.052 67.0255 90.416 66.6095 90.688C66.2015 90.952 65.7375 91.084 65.2175 91.084C64.8495 91.084 64.5055 91.012 64.1855 90.868C63.8735 90.716 63.6015 90.504 63.3695 90.232V91H62.5055ZM65.0495 90.328C65.4415 90.328 65.7895 90.232 66.0935 90.04C66.4055 89.84 66.6495 89.572 66.8255 89.236C67.0095 88.892 67.1015 88.508 67.1015 88.084C67.1015 87.652 67.0095 87.268 66.8255 86.932C66.6495 86.596 66.4055 86.332 66.0935 86.14C65.7895 85.94 65.4415 85.84 65.0495 85.84C64.7055 85.84 64.3855 85.912 64.0895 86.056C63.8015 86.192 63.5655 86.388 63.3815 86.644V89.512C63.5735 89.768 63.8135 89.968 64.1015 90.112C64.3975 90.256 64.7135 90.328 65.0495 90.328ZM72.1416 91.12C71.5976 91.12 71.1056 90.988 70.6656 90.724C70.2256 90.452 69.8776 90.088 69.6216 89.632C69.3656 89.168 69.2376 88.648 69.2376 88.072C69.2376 87.496 69.3576 86.98 69.5976 86.524C69.8456 86.068 70.1776 85.708 70.5936 85.444C71.0096 85.18 71.4736 85.048 71.9856 85.048C72.5056 85.048 72.9656 85.18 73.3656 85.444C73.7736 85.7 74.0936 86.052 74.3256 86.5C74.5656 86.94 74.6856 87.44 74.6856 88V88.264H70.0896C70.1216 88.664 70.2296 89.024 70.4136 89.344C70.6056 89.656 70.8536 89.904 71.1576 90.088C71.4696 90.264 71.8096 90.352 72.1776 90.352C72.4816 90.352 72.7736 90.3 73.0536 90.196C73.3416 90.084 73.5856 89.936 73.7856 89.752L74.3376 90.34C74.0016 90.604 73.6536 90.8 73.2936 90.928C72.9336 91.056 72.5496 91.12 72.1416 91.12ZM70.1136 87.64H73.8216C73.7816 87.288 73.6736 86.976 73.4976 86.704C73.3296 86.424 73.1136 86.204 72.8496 86.044C72.5936 85.884 72.3056 85.804 71.9856 85.804C71.6656 85.804 71.3736 85.884 71.1096 86.044C70.8456 86.196 70.6256 86.412 70.4496 86.692C70.2816 86.964 70.1696 87.28 70.1136 87.64ZM76.1813 91V82.336L77.0573 82.156V91H76.1813Z" fill="black"/>
<path fill-rule="evenodd" clip-rule="evenodd" d="M93.2852 90.7907L93.7907 90.2852C94.0698 90.0061 94.0698 89.5536 93.7907 89.2743L91.5164 87L93.7907 84.7257C94.0698 84.4466 94.0698 83.9941 93.7907 83.7148L93.2852 83.2093C93.0061 82.9302 92.5536 82.9302 92.2743 83.2093L90 85.4836L87.7257 83.2093C87.4466 82.9302 86.9941 82.9302 86.7148 83.2093L86.2093 83.7148C85.9302 83.9939 85.9302 84.4464 86.2093 84.7257L88.4836 87L86.2093 89.2743C85.9302 89.5534 85.9302 90.0059 86.2093 90.2852L86.7148 90.7907C86.9939 91.0698 87.4466 91.0698 87.7257 90.7907L90 88.5164L92.2743 90.7907C92.5534 91.0698 93.0061 91.0698 93.2852 90.7907Z" fill="#1F1F1F"/>
<path d="M120 87C120 79.8203 125.82 74 133 74H173C180.18 74 186 79.8203 186 87C186 94.1797 180.18 100 173 100H133C125.82 100 120 94.1797 120 87Z" fill="#E0E0E0"/>
<path d="M129.068 91V82.6H129.992V90.184H134.732V91H129.068ZM138.001 91.108C137.585 91.108 137.217 91.032 136.897 90.88C136.577 90.728 136.325 90.52 136.141 90.256C135.965 89.984 135.877 89.672 135.877 89.32C135.877 88.968 135.969 88.664 136.153 88.408C136.337 88.144 136.593 87.94 136.921 87.796C137.249 87.652 137.633 87.58 138.073 87.58C138.409 87.58 138.725 87.616 139.021 87.688C139.325 87.76 139.605 87.876 139.861 88.036V87.232C139.861 86.752 139.733 86.392 139.477 86.152C139.221 85.904 138.845 85.78 138.349 85.78C138.077 85.78 137.797 85.82 137.509 85.9C137.229 85.98 136.917 86.108 136.573 86.284L136.249 85.612C137.033 85.236 137.769 85.048 138.457 85.048C139.185 85.048 139.745 85.228 140.137 85.588C140.529 85.94 140.725 86.448 140.725 87.112V91H139.861V90.316C139.605 90.58 139.321 90.78 139.009 90.916C138.697 91.044 138.361 91.108 138.001 91.108ZM136.717 89.296C136.717 89.64 136.849 89.916 137.113 90.124C137.385 90.332 137.741 90.436 138.181 90.436C138.509 90.436 138.809 90.38 139.081 90.268C139.361 90.156 139.621 89.988 139.861 89.764V88.636C139.613 88.492 139.357 88.388 139.093 88.324C138.829 88.252 138.533 88.216 138.205 88.216C137.757 88.216 137.397 88.316 137.125 88.516C136.853 88.708 136.717 88.968 136.717 89.296ZM142.505 91V82.42L143.381 82.24V85.948C143.605 85.668 143.877 85.452 144.197 85.3C144.517 85.148 144.873 85.072 145.265 85.072C145.777 85.072 146.233 85.208 146.633 85.48C147.041 85.744 147.365 86.104 147.605 86.56C147.845 87.008 147.965 87.512 147.965 88.072C147.965 88.632 147.841 89.14 147.593 89.596C147.353 90.052 147.025 90.416 146.609 90.688C146.201 90.952 145.737 91.084 145.217 91.084C144.849 91.084 144.505 91.012 144.185 90.868C143.873 90.716 143.601 90.504 143.369 90.232V91H142.505ZM145.049 90.328C145.441 90.328 145.789 90.232 146.093 90.04C146.405 89.84 146.649 89.572 146.825 89.236C147.009 88.892 147.101 88.508 147.101 88.084C147.101 87.652 147.009 87.268 146.825 86.932C146.649 86.596 146.405 86.332 146.093 86.14C145.789 85.94 145.441 85.84 145.049 85.84C144.705 85.84 144.385 85.912 144.089 86.056C143.801 86.192 143.565 86.388 143.381 86.644V89.512C143.573 89.768 143.813 89.968 144.101 90.112C144.397 90.256 144.713 90.328 145.049 90.328ZM152.142 91.12C151.598 91.12 151.106 90.988 150.666 90.724C150.226 90.452 149.878 90.088 149.622 89.632C149.366 89.168 149.238 88.648 149.238 88.072C149.238 87.496 149.358 86.98 149.598 86.524C149.846 86.068 150.178 85.708 150.594 85.444C151.01 85.18 151.474 85.048 151.986 85.048C152.506 85.048 152.966 85.18 153.366 85.444C153.774 85.7 154.094 86.052 154.326 86.5C154.566 86.94 154.686 87.44 154.686 88V88.264H150.09C150.122 88.664 150.23 89.024 150.414 89.344C150.606 89.656 150.854 89.904 151.158 90.088C151.47 90.264 151.81 90.352 152.178 90.352C152.482 90.352 152.774 90.3 153.054 90.196C153.342 90.084 153.586 89.936 153.786 89.752L154.338 90.34C154.002 90.604 153.654 90.8 153.294 90.928C152.934 91.056 152.55 91.12 152.142 91.12ZM150.114 87.64H153.822C153.782 87.288 153.674 86.976 153.498 86.704C153.33 86.424 153.114 86.204 152.85 86.044C152.594 85.884 152.306 85.804 151.986 85.804C151.666 85.804 151.374 85.884 151.11 86.044C150.846 86.196 150.626 86.412 150.45 86.692C150.282 86.964 150.17 87.28 150.114 87.64ZM156.181 91V82.336L157.057 82.156V91H156.181Z" fill="black"/>
<path fill-rule="evenodd" clip-rule="evenodd" d="M173.285 90.7907L173.791 90.2852C174.07 90.0061 174.07 89.5536 173.791 89.2743L171.516 87L173.791 84.7257C174.07 84.4466 174.07 83.9941 173.791 83.7148L173.285 83.2093C173.006 82.9302 172.554 82.9302 172.274 83.2093L170 85.4836L167.726 83.2093C167.447 82.9302 166.994 82.9302 166.715 83.2093L166.209 83.7148C165.93 83.9939 165.93 84.4464 166.209 84.7257L168.484 87L166.209 89.2743C165.93 89.5534 165.93 90.0059 166.209 90.2852L166.715 90.7907C166.994 91.0698 167.447 91.0698 167.726 90.7907L170 88.5164L172.274 90.7907C172.553 91.0698 173.006 91.0698 173.285 90.7907Z" fill="#1F1F1F"/>
<path d="M46 193.5H607C610.038 193.5 612.5 195.962 612.5 199V221C612.5 224.038 610.038 226.5 607 226.5H46C42.9624 226.5 40.5 224.038 40.5 221V199C40.5 195.962 42.9624 193.5 46 193.5Z" stroke="#C7C7C7"/>
<path d="M53.768 214.654C53.068 214.654 52.4147 214.528 51.808 214.276C51.2107 214.015 50.6833 213.655 50.226 213.198C49.7687 212.731 49.414 212.195 49.162 211.588C48.91 210.972 48.784 210.309 48.784 209.6C48.784 208.891 48.91 208.233 49.162 207.626C49.414 207.01 49.7687 206.473 50.226 206.016C50.6833 205.549 51.2107 205.19 51.808 204.938C52.4147 204.677 53.068 204.546 53.768 204.546C54.2533 204.546 54.7153 204.611 55.154 204.742C55.602 204.863 56.022 205.045 56.414 205.288C56.806 205.521 57.156 205.811 57.464 206.156L56.75 206.898C56.386 206.459 55.938 206.123 55.406 205.89C54.8833 205.647 54.3373 205.526 53.768 205.526C53.2173 205.526 52.704 205.629 52.228 205.834C51.752 206.039 51.3367 206.329 50.982 206.702C50.6367 207.075 50.366 207.509 50.17 208.004C49.974 208.489 49.876 209.021 49.876 209.6C49.876 210.169 49.974 210.701 50.17 211.196C50.366 211.691 50.6367 212.125 50.982 212.498C51.3367 212.871 51.752 213.161 52.228 213.366C52.704 213.571 53.2173 213.674 53.768 213.674C54.3373 213.674 54.8833 213.553 55.406 213.31C55.938 213.067 56.386 212.731 56.75 212.302L57.464 213.044C57.156 213.389 56.806 213.683 56.414 213.926C56.022 214.159 55.602 214.341 55.154 214.472C54.7153 214.593 54.2533 214.654 53.768 214.654ZM61.3222 214.626C60.8369 214.626 60.4075 214.537 60.0342 214.36C59.6609 214.183 59.3669 213.94 59.1522 213.632C58.9469 213.315 58.8442 212.951 58.8442 212.54C58.8442 212.129 58.9515 211.775 59.1662 211.476C59.3809 211.168 59.6795 210.93 60.0622 210.762C60.4449 210.594 60.8929 210.51 61.4062 210.51C61.7982 210.51 62.1669 210.552 62.5122 210.636C62.8669 210.72 63.1935 210.855 63.4922 211.042V210.104C63.4922 209.544 63.3429 209.124 63.0442 208.844C62.7455 208.555 62.3069 208.41 61.7282 208.41C61.4109 208.41 61.0842 208.457 60.7482 208.55C60.4215 208.643 60.0575 208.793 59.6562 208.998L59.2782 208.214C60.1929 207.775 61.0515 207.556 61.8542 207.556C62.7035 207.556 63.3569 207.766 63.8142 208.186C64.2715 208.597 64.5002 209.189 64.5002 209.964V214.5H63.4922V213.702C63.1935 214.01 62.8622 214.243 62.4982 214.402C62.1342 214.551 61.7422 214.626 61.3222 214.626ZM59.8242 212.512C59.8242 212.913 59.9782 213.235 60.2862 213.478C60.6035 213.721 61.0189 213.842 61.5322 213.842C61.9149 213.842 62.2649 213.777 62.5822 213.646C62.9089 213.515 63.2122 213.319 63.4922 213.058V211.742C63.2029 211.574 62.9042 211.453 62.5962 211.378C62.2882 211.294 61.9429 211.252 61.5602 211.252C61.0375 211.252 60.6175 211.369 60.3002 211.602C59.9829 211.826 59.8242 212.129 59.8242 212.512ZM68.9763 214.64C68.3883 214.64 67.9403 214.5 67.6323 214.22C67.3336 213.931 67.1843 213.515 67.1843 212.974V208.508H65.7703V207.668H67.1843V205.792L68.2063 205.554V207.668H70.1663V208.508H68.2063V212.708C68.2063 213.072 68.2809 213.333 68.4303 213.492C68.5889 213.651 68.8456 213.73 69.2003 213.73C69.3776 213.73 69.5363 213.716 69.6763 213.688C69.8163 213.66 69.9796 213.613 70.1663 213.548V214.458C69.9796 214.523 69.7836 214.57 69.5783 214.598C69.3729 214.626 69.1723 214.64 68.9763 214.64ZM74.6066 214.64C73.9719 214.64 73.3979 214.486 72.8846 214.178C72.3712 213.861 71.9652 213.436 71.6666 212.904C71.3679 212.363 71.2186 211.756 71.2186 211.084C71.2186 210.412 71.3586 209.81 71.6386 209.278C71.9279 208.746 72.3152 208.326 72.8006 208.018C73.2859 207.71 73.8272 207.556 74.4246 207.556C75.0312 207.556 75.5679 207.71 76.0346 208.018C76.5106 208.317 76.8839 208.727 77.1546 209.25C77.4346 209.763 77.5746 210.347 77.5746 211V211.308H72.2126C72.2499 211.775 72.3759 212.195 72.5906 212.568C72.8146 212.932 73.1039 213.221 73.4586 213.436C73.8226 213.641 74.2192 213.744 74.6486 213.744C75.0032 213.744 75.3439 213.683 75.6706 213.562C76.0066 213.431 76.2912 213.259 76.5246 213.044L77.1686 213.73C76.7766 214.038 76.3706 214.267 75.9506 214.416C75.5306 214.565 75.0826 214.64 74.6066 214.64ZM72.2406 210.58H76.5666C76.5199 210.169 76.3939 209.805 76.1886 209.488C75.9926 209.161 75.7406 208.905 75.4326 208.718C75.1339 208.531 74.7979 208.438 74.4246 208.438C74.0512 208.438 73.7106 208.531 73.4026 208.718C73.0946 208.895 72.8379 209.147 72.6326 209.474C72.4366 209.791 72.3059 210.16 72.2406 210.58ZM82.4835 217.566C82.0262 217.566 81.5642 217.501 81.0975 217.37C80.6402 217.249 80.2155 217.076 79.8235 216.852L80.2575 216.068C80.6775 216.283 81.0602 216.441 81.4055 216.544C81.7509 216.647 82.0962 216.698 82.4415 216.698C83.0669 216.698 83.5382 216.549 83.8555 216.25C84.1822 215.951 84.3455 215.517 84.3455 214.948V213.576C84.0842 213.903 83.7669 214.155 83.3935 214.332C83.0202 214.5 82.6095 214.584 82.1615 214.584C81.5735 214.584 81.0415 214.43 80.5655 214.122C80.0895 213.805 79.7115 213.385 79.4315 212.862C79.1515 212.33 79.0115 211.737 79.0115 211.084C79.0115 210.431 79.1515 209.843 79.4315 209.32C79.7209 208.788 80.1082 208.368 80.5935 208.06C81.0789 207.743 81.6202 207.584 82.2175 207.584C82.6469 207.584 83.0435 207.668 83.4075 207.836C83.7715 207.995 84.0889 208.233 84.3595 208.55V207.668H85.3675V214.934C85.3675 215.783 85.1202 216.432 84.6255 216.88C84.1309 217.337 83.4169 217.566 82.4835 217.566ZM82.4135 213.702C82.8149 213.702 83.1835 213.623 83.5195 213.464C83.8555 213.296 84.1309 213.067 84.3455 212.778V209.404C84.1215 209.115 83.8369 208.891 83.4915 208.732C83.1555 208.564 82.7962 208.48 82.4135 208.48C81.9562 208.48 81.5455 208.592 81.1815 208.816C80.8269 209.04 80.5422 209.348 80.3275 209.74C80.1222 210.132 80.0195 210.58 80.0195 211.084C80.0195 211.579 80.1222 212.027 80.3275 212.428C80.5422 212.82 80.8269 213.133 81.1815 213.366C81.5455 213.59 81.9562 213.702 82.4135 213.702ZM90.492 214.612C89.8573 214.612 89.288 214.458 88.784 214.15C88.28 213.842 87.8833 213.422 87.594 212.89C87.3046 212.358 87.16 211.756 87.16 211.084C87.16 210.412 87.3046 209.81 87.594 209.278C87.8833 208.746 88.28 208.326 88.784 208.018C89.288 207.71 89.8573 207.556 90.492 207.556C91.1173 207.556 91.6773 207.71 92.172 208.018C92.676 208.326 93.0726 208.746 93.362 209.278C93.6513 209.81 93.796 210.412 93.796 211.084C93.796 211.756 93.6513 212.358 93.362 212.89C93.0726 213.422 92.676 213.842 92.172 214.15C91.6773 214.458 91.1173 214.612 90.492 214.612ZM90.478 213.716C90.926 213.716 91.3226 213.604 91.668 213.38C92.0133 213.147 92.284 212.829 92.48 212.428C92.6853 212.027 92.788 211.579 92.788 211.084C92.788 210.58 92.6853 210.132 92.48 209.74C92.284 209.339 92.0133 209.026 91.668 208.802C91.3226 208.569 90.926 208.452 90.478 208.452C90.03 208.452 89.6333 208.569 89.288 208.802C88.9426 209.026 88.6673 209.339 88.462 209.74C88.266 210.132 88.168 210.58 88.168 211.084C88.168 211.579 88.266 212.027 88.462 212.428C88.6673 212.829 88.9426 213.147 89.288 213.38C89.6333 213.604 90.03 213.716 90.478 213.716ZM95.5891 214.5V207.668H96.6111V209.068C96.7884 208.592 97.0404 208.223 97.3671 207.962C97.7031 207.691 98.0857 207.556 98.5151 207.556C98.6364 207.556 98.7484 207.565 98.8511 207.584C98.9537 207.593 99.0564 207.617 99.1591 207.654V208.578C99.0471 208.541 98.9257 208.513 98.7951 208.494C98.6737 208.466 98.5571 208.452 98.4451 208.452C98.0251 208.452 97.6564 208.573 97.3391 208.816C97.0311 209.059 96.7884 209.399 96.6111 209.838V214.5H95.5891ZM100.942 217.566C100.727 217.566 100.508 217.533 100.284 217.468V216.558C100.377 216.577 100.475 216.591 100.578 216.6C100.68 216.609 100.769 216.614 100.844 216.614C101.105 216.614 101.32 216.544 101.488 216.404C101.665 216.264 101.814 216.045 101.936 215.746L102.44 214.5L99.8077 207.668H100.942L103.014 213.282L105.212 207.668H106.346L102.902 216.054C102.752 216.418 102.589 216.712 102.412 216.936C102.234 217.16 102.029 217.319 101.796 217.412C101.562 217.515 101.278 217.566 100.942 217.566Z" fill="#151515"/>
<path d="M111 210C111 202.82 116.82 197 124 197H164C171.18 197 177 202.82 177 210C177 217.18 171.18 223 164 223H124C116.82 223 111 217.18 111 210Z" fill="#E0E0E0"/>
<path d="M120.068 214V205.6H120.992V213.184H125.732V214H120.068ZM129.001 214.108C128.585 214.108 128.217 214.032 127.897 213.88C127.577 213.728 127.325 213.52 127.141 213.256C126.965 212.984 126.877 212.672 126.877 212.32C126.877 211.968 126.969 211.664 127.153 211.408C127.337 211.144 127.593 210.94 127.921 210.796C128.249 210.652 128.633 210.58 129.073 210.58C129.409 210.58 129.725 210.616 130.021 210.688C130.325 210.76 130.605 210.876 130.861 211.036V210.232C130.861 209.752 130.733 209.392 130.477 209.152C130.221 208.904 129.845 208.78 129.349 208.78C129.077 208.78 128.797 208.82 128.509 208.9C128.229 208.98 127.917 209.108 127.573 209.284L127.249 208.612C128.033 208.236 128.769 208.048 129.457 208.048C130.185 208.048 130.745 208.228 131.137 208.588C131.529 208.94 131.725 209.448 131.725 210.112V214H130.861V213.316C130.605 213.58 130.321 213.78 130.009 213.916C129.697 214.044 129.361 214.108 129.001 214.108ZM127.717 212.296C127.717 212.64 127.849 212.916 128.113 213.124C128.385 213.332 128.741 213.436 129.181 213.436C129.509 213.436 129.809 213.38 130.081 213.268C130.361 213.156 130.621 212.988 130.861 212.764V211.636C130.613 211.492 130.357 211.388 130.093 211.324C129.829 211.252 129.533 211.216 129.205 211.216C128.757 211.216 128.397 211.316 128.125 211.516C127.853 211.708 127.717 211.968 127.717 212.296ZM133.505 214V205.42L134.381 205.24V208.948C134.605 208.668 134.877 208.452 135.197 208.3C135.517 208.148 135.873 208.072 136.265 208.072C136.777 208.072 137.233 208.208 137.633 208.48C138.041 208.744 138.365 209.104 138.605 209.56C138.845 210.008 138.965 210.512 138.965 211.072C138.965 211.632 138.841 212.14 138.593 212.596C138.353 213.052 138.025 213.416 137.609 213.688C137.201 213.952 136.737 214.084 136.217 214.084C135.849 214.084 135.505 214.012 135.185 213.868C134.873 213.716 134.601 213.504 134.369 213.232V214H133.505ZM136.049 213.328C136.441 213.328 136.789 213.232 137.093 213.04C137.405 212.84 137.649 212.572 137.825 212.236C138.009 211.892 138.101 211.508 138.101 211.084C138.101 210.652 138.009 210.268 137.825 209.932C137.649 209.596 137.405 209.332 137.093 209.14C136.789 208.94 136.441 208.84 136.049 208.84C135.705 208.84 135.385 208.912 135.089 209.056C134.801 209.192 134.565 209.388 134.381 209.644V212.512C134.573 212.768 134.813 212.968 135.101 213.112C135.397 213.256 135.713 213.328 136.049 213.328ZM143.142 214.12C142.598 214.12 142.106 213.988 141.666 213.724C141.226 213.452 140.878 213.088 140.622 212.632C140.366 212.168 140.238 211.648 140.238 211.072C140.238 210.496 140.358 209.98 140.598 209.524C140.846 209.068 141.178 208.708 141.594 208.444C142.01 208.18 142.474 208.048 142.986 208.048C143.506 208.048 143.966 208.18 144.366 208.444C144.774 208.7 145.094 209.052 145.326 209.5C145.566 209.94 145.686 210.44 145.686 211V211.264H141.09C141.122 211.664 141.23 212.024 141.414 212.344C141.606 212.656 141.854 212.904 142.158 213.088C142.47 213.264 142.81 213.352 143.178 213.352C143.482 213.352 143.774 213.3 144.054 213.196C144.342 213.084 144.586 212.936 144.786 212.752L145.338 213.34C145.002 213.604 144.654 213.8 144.294 213.928C143.934 214.056 143.55 214.12 143.142 214.12ZM141.114 210.64H144.822C144.782 210.288 144.674 209.976 144.498 209.704C144.33 209.424 144.114 209.204 143.85 209.044C143.594 208.884 143.306 208.804 142.986 208.804C142.666 208.804 142.374 208.884 142.11 209.044C141.846 209.196 141.626 209.412 141.45 209.692C141.282 209.964 141.17 210.28 141.114 210.64ZM147.181 214V205.336L148.057 205.156V214H147.181Z" fill="#151515"/>
<path fill-rule="evenodd" clip-rule="evenodd" d="M164.285 213.791L164.791 213.285C165.07 213.006 165.07 212.554 164.791 212.274L162.516 210L164.791 207.726C165.07 207.447 165.07 206.994 164.791 206.715L164.285 206.209C164.006 205.93 163.554 205.93 163.274 206.209L161 208.484L158.726 206.209C158.447 205.93 157.994 205.93 157.715 206.209L157.209 206.715C156.93 206.994 156.93 207.446 157.209 207.726L159.484 210L157.209 212.274C156.93 212.553 156.93 213.006 157.209 213.285L157.715 213.791C157.994 214.07 158.447 214.07 158.726 213.791L161 211.516L163.274 213.791C163.553 214.07 164.006 214.07 164.285 213.791Z" fill="#1F1F1F"/>
<path d="M181 210C181 202.82 186.82 197 194 197H234C241.18 197 247 202.82 247 210C247 217.18 241.18 223 234 223H194C186.82 223 181 217.18 181 210Z" fill="#E0E0E0"/>
<path d="M190.068 214V205.6H190.992V213.184H195.732V214H190.068ZM199.001 214.108C198.585 214.108 198.217 214.032 197.897 213.88C197.577 213.728 197.325 213.52 197.141 213.256C196.965 212.984 196.877 212.672 196.877 212.32C196.877 211.968 196.969 211.664 197.153 211.408C197.337 211.144 197.593 210.94 197.921 210.796C198.249 210.652 198.633 210.58 199.073 210.58C199.409 210.58 199.725 210.616 200.021 210.688C200.325 210.76 200.605 210.876 200.861 211.036V210.232C200.861 209.752 200.733 209.392 200.477 209.152C200.221 208.904 199.845 208.78 199.349 208.78C199.077 208.78 198.797 208.82 198.509 208.9C198.229 208.98 197.917 209.108 197.573 209.284L197.249 208.612C198.033 208.236 198.769 208.048 199.457 208.048C200.185 208.048 200.745 208.228 201.137 208.588C201.529 208.94 201.725 209.448 201.725 210.112V214H200.861V213.316C200.605 213.58 200.321 213.78 200.009 213.916C199.697 214.044 199.361 214.108 199.001 214.108ZM197.717 212.296C197.717 212.64 197.849 212.916 198.113 213.124C198.385 213.332 198.741 213.436 199.181 213.436C199.509 213.436 199.809 213.38 200.081 213.268C200.361 213.156 200.621 212.988 200.861 212.764V211.636C200.613 211.492 200.357 211.388 200.093 211.324C199.829 211.252 199.533 211.216 199.205 211.216C198.757 211.216 198.397 211.316 198.125 211.516C197.853 211.708 197.717 211.968 197.717 212.296ZM203.505 214V205.42L204.381 205.24V208.948C204.605 208.668 204.877 208.452 205.197 208.3C205.517 208.148 205.873 208.072 206.265 208.072C206.777 208.072 207.233 208.208 207.633 208.48C208.041 208.744 208.365 209.104 208.605 209.56C208.845 210.008 208.965 210.512 208.965 211.072C208.965 211.632 208.841 212.14 208.593 212.596C208.353 213.052 208.025 213.416 207.609 213.688C207.201 213.952 206.737 214.084 206.217 214.084C205.849 214.084 205.505 214.012 205.185 213.868C204.873 213.716 204.601 213.504 204.369 213.232V214H203.505ZM206.049 213.328C206.441 213.328 206.789 213.232 207.093 213.04C207.405 212.84 207.649 212.572 207.825 212.236C208.009 211.892 208.101 211.508 208.101 211.084C208.101 210.652 208.009 210.268 207.825 209.932C207.649 209.596 207.405 209.332 207.093 209.14C206.789 208.94 206.441 208.84 206.049 208.84C205.705 208.84 205.385 208.912 205.089 209.056C204.801 209.192 204.565 209.388 204.381 209.644V212.512C204.573 212.768 204.813 212.968 205.101 213.112C205.397 213.256 205.713 213.328 206.049 213.328ZM213.142 214.12C212.598 214.12 212.106 213.988 211.666 213.724C211.226 213.452 210.878 213.088 210.622 212.632C210.366 212.168 210.238 211.648 210.238 211.072C210.238 210.496 210.358 209.98 210.598 209.524C210.846 209.068 211.178 208.708 211.594 208.444C212.01 208.18 212.474 208.048 212.986 208.048C213.506 208.048 213.966 208.18 214.366 208.444C214.774 208.7 215.094 209.052 215.326 209.5C215.566 209.94 215.686 210.44 215.686 211V211.264H211.09C211.122 211.664 211.23 212.024 211.414 212.344C211.606 212.656 211.854 212.904 212.158 213.088C212.47 213.264 212.81 213.352 213.178 213.352C213.482 213.352 213.774 213.3 214.054 213.196C214.342 213.084 214.586 212.936 214.786 212.752L215.338 213.34C215.002 213.604 214.654 213.8 214.294 213.928C213.934 214.056 213.55 214.12 213.142 214.12ZM211.114 210.64H214.822C214.782 210.288 214.674 209.976 214.498 209.704C214.33 209.424 214.114 209.204 213.85 209.044C213.594 208.884 213.306 208.804 212.986 208.804C212.666 208.804 212.374 208.884 212.11 209.044C211.846 209.196 211.626 209.412 211.45 209.692C211.282 209.964 211.17 210.28 211.114 210.64ZM217.181 214V205.336L218.057 205.156V214H217.181Z" fill="#151515"/>
<path fill-rule="evenodd" clip-rule="evenodd" d="M234.285 213.791L234.791 213.285C235.07 213.006 235.07 212.554 234.791 212.274L232.516 210L234.791 207.726C235.07 207.447 235.07 206.994 234.791 206.715L234.285 206.209C234.006 205.93 233.554 205.93 233.274 206.209L231 208.484L228.726 206.209C228.447 205.93 227.994 205.93 227.715 206.209L227.209 206.715C226.93 206.994 226.93 207.446 227.209 207.726L229.484 210L227.209 212.274C226.93 212.553 226.93 213.006 227.209 213.285L227.715 213.791C227.994 214.07 228.447 214.07 228.726 213.791L231 211.516L233.274 213.791C233.553 214.07 234.006 214.07 234.285 213.791Z" fill="#1F1F1F"/>
<path d="M251 210C251 202.82 256.82 197 264 197H304C311.18 197 317 202.82 317 210C317 217.18 311.18 223 304 223H264C256.82 223 251 217.18 251 210Z" fill="#E0E0E0"/>
<path d="M260.068 214V205.6H260.992V213.184H265.732V214H260.068ZM269.001 214.108C268.585 214.108 268.217 214.032 267.897 213.88C267.577 213.728 267.325 213.52 267.141 213.256C266.965 212.984 266.877 212.672 266.877 212.32C266.877 211.968 266.969 211.664 267.153 211.408C267.337 211.144 267.593 210.94 267.921 210.796C268.249 210.652 268.633 210.58 269.073 210.58C269.409 210.58 269.725 210.616 270.021 210.688C270.325 210.76 270.605 210.876 270.861 211.036V210.232C270.861 209.752 270.733 209.392 270.477 209.152C270.221 208.904 269.845 208.78 269.349 208.78C269.077 208.78 268.797 208.82 268.509 208.9C268.229 208.98 267.917 209.108 267.573 209.284L267.249 208.612C268.033 208.236 268.769 208.048 269.457 208.048C270.185 208.048 270.745 208.228 271.137 208.588C271.529 208.94 271.725 209.448 271.725 210.112V214H270.861V213.316C270.605 213.58 270.321 213.78 270.009 213.916C269.697 214.044 269.361 214.108 269.001 214.108ZM267.717 212.296C267.717 212.64 267.849 212.916 268.113 213.124C268.385 213.332 268.741 213.436 269.181 213.436C269.509 213.436 269.809 213.38 270.081 213.268C270.361 213.156 270.621 212.988 270.861 212.764V211.636C270.613 211.492 270.357 211.388 270.093 211.324C269.829 211.252 269.533 211.216 269.205 211.216C268.757 211.216 268.397 211.316 268.125 211.516C267.853 211.708 267.717 211.968 267.717 212.296ZM273.505 214V205.42L274.381 205.24V208.948C274.605 208.668 274.877 208.452 275.197 208.3C275.517 208.148 275.873 208.072 276.265 208.072C276.777 208.072 277.233 208.208 277.633 208.48C278.041 208.744 278.365 209.104 278.605 209.56C278.845 210.008 278.965 210.512 278.965 211.072C278.965 211.632 278.841 212.14 278.593 212.596C278.353 213.052 278.025 213.416 277.609 213.688C277.201 213.952 276.737 214.084 276.217 214.084C275.849 214.084 275.505 214.012 275.185 213.868C274.873 213.716 274.601 213.504 274.369 213.232V214H273.505ZM276.049 213.328C276.441 213.328 276.789 213.232 277.093 213.04C277.405 212.84 277.649 212.572 277.825 212.236C278.009 211.892 278.101 211.508 278.101 211.084C278.101 210.652 278.009 210.268 277.825 209.932C277.649 209.596 277.405 209.332 277.093 209.14C276.789 208.94 276.441 208.84 276.049 208.84C275.705 208.84 275.385 208.912 275.089 209.056C274.801 209.192 274.565 209.388 274.381 209.644V212.512C274.573 212.768 274.813 212.968 275.101 213.112C275.397 213.256 275.713 213.328 276.049 213.328ZM283.142 214.12C282.598 214.12 282.106 213.988 281.666 213.724C281.226 213.452 280.878 213.088 280.622 212.632C280.366 212.168 280.238 211.648 280.238 211.072C280.238 210.496 280.358 209.98 280.598 209.524C280.846 209.068 281.178 208.708 281.594 208.444C282.01 208.18 282.474 208.048 282.986 208.048C283.506 208.048 283.966 208.18 284.366 208.444C284.774 208.7 285.094 209.052 285.326 209.5C285.566 209.94 285.686 210.44 285.686 211V211.264H281.09C281.122 211.664 281.23 212.024 281.414 212.344C281.606 212.656 281.854 212.904 282.158 213.088C282.47 213.264 282.81 213.352 283.178 213.352C283.482 213.352 283.774 213.3 284.054 213.196C284.342 213.084 284.586 212.936 284.786 212.752L285.338 213.34C285.002 213.604 284.654 213.8 284.294 213.928C283.934 214.056 283.55 214.12 283.142 214.12ZM281.114 210.64H284.822C284.782 210.288 284.674 209.976 284.498 209.704C284.33 209.424 284.114 209.204 283.85 209.044C283.594 208.884 283.306 208.804 282.986 208.804C282.666 208.804 282.374 208.884 282.11 209.044C281.846 209.196 281.626 209.412 281.45 209.692C281.282 209.964 281.17 210.28 281.114 210.64ZM287.181 214V205.336L288.057 205.156V214H287.181Z" fill="#151515"/>
<path fill-rule="evenodd" clip-rule="evenodd" d="M304.285 213.791L304.791 213.285C305.07 213.006 305.07 212.554 304.791 212.274L302.516 210L304.791 207.726C305.07 207.447 305.07 206.994 304.791 206.715L304.285 206.209C304.006 205.93 303.554 205.93 303.274 206.209L301 208.484L298.726 206.209C298.447 205.93 297.994 205.93 297.715 206.209L297.209 206.715C296.93 206.994 296.93 207.446 297.209 207.726L299.484 210L297.209 212.274C296.93 212.553 296.93 213.006 297.209 213.285L297.715 213.791C297.994 214.07 298.447 214.07 298.726 213.791L301 211.516L303.274 213.791C303.553 214.07 304.006 214.07 304.285 213.791Z" fill="#1F1F1F"/>
<path d="M321 210C321 202.82 326.82 197 334 197H374C381.18 197 387 202.82 387 210C387 217.18 381.18 223 374 223H334C326.82 223 321 217.18 321 210Z" fill="#E0E0E0"/>
<path d="M330.068 214V205.6H330.992V213.184H335.732V214H330.068ZM339.001 214.108C338.585 214.108 338.217 214.032 337.897 213.88C337.577 213.728 337.325 213.52 337.141 213.256C336.965 212.984 336.877 212.672 336.877 212.32C336.877 211.968 336.969 211.664 337.153 211.408C337.337 211.144 337.593 210.94 337.921 210.796C338.249 210.652 338.633 210.58 339.073 210.58C339.409 210.58 339.725 210.616 340.021 210.688C340.325 210.76 340.605 210.876 340.861 211.036V210.232C340.861 209.752 340.733 209.392 340.477 209.152C340.221 208.904 339.845 208.78 339.349 208.78C339.077 208.78 338.797 208.82 338.509 208.9C338.229 208.98 337.917 209.108 337.573 209.284L337.249 208.612C338.033 208.236 338.769 208.048 339.457 208.048C340.185 208.048 340.745 208.228 341.137 208.588C341.529 208.94 341.725 209.448 341.725 210.112V214H340.861V213.316C340.605 213.58 340.321 213.78 340.009 213.916C339.697 214.044 339.361 214.108 339.001 214.108ZM337.717 212.296C337.717 212.64 337.849 212.916 338.113 213.124C338.385 213.332 338.741 213.436 339.181 213.436C339.509 213.436 339.809 213.38 340.081 213.268C340.361 213.156 340.621 212.988 340.861 212.764V211.636C340.613 211.492 340.357 211.388 340.093 211.324C339.829 211.252 339.533 211.216 339.205 211.216C338.757 211.216 338.397 211.316 338.125 211.516C337.853 211.708 337.717 211.968 337.717 212.296ZM343.505 214V205.42L344.381 205.24V208.948C344.605 208.668 344.877 208.452 345.197 208.3C345.517 208.148 345.873 208.072 346.265 208.072C346.777 208.072 347.233 208.208 347.633 208.48C348.041 208.744 348.365 209.104 348.605 209.56C348.845 210.008 348.965 210.512 348.965 211.072C348.965 211.632 348.841 212.14 348.593 212.596C348.353 213.052 348.025 213.416 347.609 213.688C347.201 213.952 346.737 214.084 346.217 214.084C345.849 214.084 345.505 214.012 345.185 213.868C344.873 213.716 344.601 213.504 344.369 213.232V214H343.505ZM346.049 213.328C346.441 213.328 346.789 213.232 347.093 213.04C347.405 212.84 347.649 212.572 347.825 212.236C348.009 211.892 348.101 211.508 348.101 211.084C348.101 210.652 348.009 210.268 347.825 209.932C347.649 209.596 347.405 209.332 347.093 209.14C346.789 208.94 346.441 208.84 346.049 208.84C345.705 208.84 345.385 208.912 345.089 209.056C344.801 209.192 344.565 209.388 344.381 209.644V212.512C344.573 212.768 344.813 212.968 345.101 213.112C345.397 213.256 345.713 213.328 346.049 213.328ZM353.142 214.12C352.598 214.12 352.106 213.988 351.666 213.724C351.226 213.452 350.878 213.088 350.622 212.632C350.366 212.168 350.238 211.648 350.238 211.072C350.238 210.496 350.358 209.98 350.598 209.524C350.846 209.068 351.178 208.708 351.594 208.444C352.01 208.18 352.474 208.048 352.986 208.048C353.506 208.048 353.966 208.18 354.366 208.444C354.774 208.7 355.094 209.052 355.326 209.5C355.566 209.94 355.686 210.44 355.686 211V211.264H351.09C351.122 211.664 351.23 212.024 351.414 212.344C351.606 212.656 351.854 212.904 352.158 213.088C352.47 213.264 352.81 213.352 353.178 213.352C353.482 213.352 353.774 213.3 354.054 213.196C354.342 213.084 354.586 212.936 354.786 212.752L355.338 213.34C355.002 213.604 354.654 213.8 354.294 213.928C353.934 214.056 353.55 214.12 353.142 214.12ZM351.114 210.64H354.822C354.782 210.288 354.674 209.976 354.498 209.704C354.33 209.424 354.114 209.204 353.85 209.044C353.594 208.884 353.306 208.804 352.986 208.804C352.666 208.804 352.374 208.884 352.11 209.044C351.846 209.196 351.626 209.412 351.45 209.692C351.282 209.964 351.17 210.28 351.114 210.64ZM357.181 214V205.336L358.057 205.156V214H357.181Z" fill="#151515"/>
<path fill-rule="evenodd" clip-rule="evenodd" d="M374.285 213.791L374.791 213.285C375.07 213.006 375.07 212.554 374.791 212.274L372.516 210L374.791 207.726C375.07 207.447 375.07 206.994 374.791 206.715L374.285 206.209C374.006 205.93 373.554 205.93 373.274 206.209L371 208.484L368.726 206.209C368.447 205.93 367.994 205.93 367.715 206.209L367.209 206.715C366.93 206.994 366.93 207.446 367.209 207.726L369.484 210L367.209 212.274C366.93 212.553 366.93 213.006 367.209 213.285L367.715 213.791C367.994 214.07 368.447 214.07 368.726 213.791L371 211.516L373.274 213.791C373.553 214.07 374.006 214.07 374.285 213.791Z" fill="#1F1F1F"/>
<path d="M391 210C391 202.82 396.82 197 404 197H444C451.18 197 457 202.82 457 210C457 217.18 451.18 223 444 223H404C396.82 223 391 217.18 391 210Z" fill="#E0E0E0"/>
<path d="M400.068 214V205.6H400.992V213.184H405.732V214H400.068ZM409.001 214.108C408.585 214.108 408.217 214.032 407.897 213.88C407.577 213.728 407.325 213.52 407.141 213.256C406.965 212.984 406.877 212.672 406.877 212.32C406.877 211.968 406.969 211.664 407.153 211.408C407.337 211.144 407.593 210.94 407.921 210.796C408.249 210.652 408.633 210.58 409.073 210.58C409.409 210.58 409.725 210.616 410.021 210.688C410.325 210.76 410.605 210.876 410.861 211.036V210.232C410.861 209.752 410.733 209.392 410.477 209.152C410.221 208.904 409.845 208.78 409.349 208.78C409.077 208.78 408.797 208.82 408.509 208.9C408.229 208.98 407.917 209.108 407.573 209.284L407.249 208.612C408.033 208.236 408.769 208.048 409.457 208.048C410.185 208.048 410.745 208.228 411.137 208.588C411.529 208.94 411.725 209.448 411.725 210.112V214H410.861V213.316C410.605 213.58 410.321 213.78 410.009 213.916C409.697 214.044 409.361 214.108 409.001 214.108ZM407.717 212.296C407.717 212.64 407.849 212.916 408.113 213.124C408.385 213.332 408.741 213.436 409.181 213.436C409.509 213.436 409.809 213.38 410.081 213.268C410.361 213.156 410.621 212.988 410.861 212.764V211.636C410.613 211.492 410.357 211.388 410.093 211.324C409.829 211.252 409.533 211.216 409.205 211.216C408.757 211.216 408.397 211.316 408.125 211.516C407.853 211.708 407.717 211.968 407.717 212.296ZM413.505 214V205.42L414.381 205.24V208.948C414.605 208.668 414.877 208.452 415.197 208.3C415.517 208.148 415.873 208.072 416.265 208.072C416.777 208.072 417.233 208.208 417.633 208.48C418.041 208.744 418.365 209.104 418.605 209.56C418.845 210.008 418.965 210.512 418.965 211.072C418.965 211.632 418.841 212.14 418.593 212.596C418.353 213.052 418.025 213.416 417.609 213.688C417.201 213.952 416.737 214.084 416.217 214.084C415.849 214.084 415.505 214.012 415.185 213.868C414.873 213.716 414.601 213.504 414.369 213.232V214H413.505ZM416.049 213.328C416.441 213.328 416.789 213.232 417.093 213.04C417.405 212.84 417.649 212.572 417.825 212.236C418.009 211.892 418.101 211.508 418.101 211.084C418.101 210.652 418.009 210.268 417.825 209.932C417.649 209.596 417.405 209.332 417.093 209.14C416.789 208.94 416.441 208.84 416.049 208.84C415.705 208.84 415.385 208.912 415.089 209.056C414.801 209.192 414.565 209.388 414.381 209.644V212.512C414.573 212.768 414.813 212.968 415.101 213.112C415.397 213.256 415.713 213.328 416.049 213.328ZM423.142 214.12C422.598 214.12 422.106 213.988 421.666 213.724C421.226 213.452 420.878 213.088 420.622 212.632C420.366 212.168 420.238 211.648 420.238 211.072C420.238 210.496 420.358 209.98 420.598 209.524C420.846 209.068 421.178 208.708 421.594 208.444C422.01 208.18 422.474 208.048 422.986 208.048C423.506 208.048 423.966 208.18 424.366 208.444C424.774 208.7 425.094 209.052 425.326 209.5C425.566 209.94 425.686 210.44 425.686 211V211.264H421.09C421.122 211.664 421.23 212.024 421.414 212.344C421.606 212.656 421.854 212.904 422.158 213.088C422.47 213.264 422.81 213.352 423.178 213.352C423.482 213.352 423.774 213.3 424.054 213.196C424.342 213.084 424.586 212.936 424.786 212.752L425.338 213.34C425.002 213.604 424.654 213.8 424.294 213.928C423.934 214.056 423.55 214.12 423.142 214.12ZM421.114 210.64H424.822C424.782 210.288 424.674 209.976 424.498 209.704C424.33 209.424 424.114 209.204 423.85 209.044C423.594 208.884 423.306 208.804 422.986 208.804C422.666 208.804 422.374 208.884 422.11 209.044C421.846 209.196 421.626 209.412 421.45 209.692C421.282 209.964 421.17 210.28 421.114 210.64ZM427.181 214V205.336L428.057 205.156V214H427.181Z" fill="#151515"/>
<path fill-rule="evenodd" clip-rule="evenodd" d="M444.285 213.791L444.791 213.285C445.07 213.006 445.07 212.554 444.791 212.274L442.516 210L444.791 207.726C445.07 207.447 445.07 206.994 444.791 206.715L444.285 206.209C444.006 205.93 443.554 205.93 443.274 206.209L441 208.484L438.726 206.209C438.447 205.93 437.994 205.93 437.715 206.209L437.209 206.715C436.93 206.994 436.93 207.446 437.209 207.726L439.484 210L437.209 212.274C436.93 212.553 436.93 213.006 437.209 213.285L437.715 213.791C437.994 214.07 438.447 214.07 438.726 213.791L441 211.516L443.274 213.791C443.553 214.07 444.006 214.07 444.285 213.791Z" fill="#1F1F1F"/>
<path d="M461 210C461 202.82 466.82 197 474 197H514C521.18 197 527 202.82 527 210C527 217.18 521.18 223 514 223H474C466.82 223 461 217.18 461 210Z" fill="#E0E0E0"/>
<path d="M470.068 214V205.6H470.992V213.184H475.732V214H470.068ZM479.001 214.108C478.585 214.108 478.217 214.032 477.897 213.88C477.577 213.728 477.325 213.52 477.141 213.256C476.965 212.984 476.877 212.672 476.877 212.32C476.877 211.968 476.969 211.664 477.153 211.408C477.337 211.144 477.593 210.94 477.921 210.796C478.249 210.652 478.633 210.58 479.073 210.58C479.409 210.58 479.725 210.616 480.021 210.688C480.325 210.76 480.605 210.876 480.861 211.036V210.232C480.861 209.752 480.733 209.392 480.477 209.152C480.221 208.904 479.845 208.78 479.349 208.78C479.077 208.78 478.797 208.82 478.509 208.9C478.229 208.98 477.917 209.108 477.573 209.284L477.249 208.612C478.033 208.236 478.769 208.048 479.457 208.048C480.185 208.048 480.745 208.228 481.137 208.588C481.529 208.94 481.725 209.448 481.725 210.112V214H480.861V213.316C480.605 213.58 480.321 213.78 480.009 213.916C479.697 214.044 479.361 214.108 479.001 214.108ZM477.717 212.296C477.717 212.64 477.849 212.916 478.113 213.124C478.385 213.332 478.741 213.436 479.181 213.436C479.509 213.436 479.809 213.38 480.081 213.268C480.361 213.156 480.621 212.988 480.861 212.764V211.636C480.613 211.492 480.357 211.388 480.093 211.324C479.829 211.252 479.533 211.216 479.205 211.216C478.757 211.216 478.397 211.316 478.125 211.516C477.853 211.708 477.717 211.968 477.717 212.296ZM483.505 214V205.42L484.381 205.24V208.948C484.605 208.668 484.877 208.452 485.197 208.3C485.517 208.148 485.873 208.072 486.265 208.072C486.777 208.072 487.233 208.208 487.633 208.48C488.041 208.744 488.365 209.104 488.605 209.56C488.845 210.008 488.965 210.512 488.965 211.072C488.965 211.632 488.841 212.14 488.593 212.596C488.353 213.052 488.025 213.416 487.609 213.688C487.201 213.952 486.737 214.084 486.217 214.084C485.849 214.084 485.505 214.012 485.185 213.868C484.873 213.716 484.601 213.504 484.369 213.232V214H483.505ZM486.049 213.328C486.441 213.328 486.789 213.232 487.093 213.04C487.405 212.84 487.649 212.572 487.825 212.236C488.009 211.892 488.101 211.508 488.101 211.084C488.101 210.652 488.009 210.268 487.825 209.932C487.649 209.596 487.405 209.332 487.093 209.14C486.789 208.94 486.441 208.84 486.049 208.84C485.705 208.84 485.385 208.912 485.089 209.056C484.801 209.192 484.565 209.388 484.381 209.644V212.512C484.573 212.768 484.813 212.968 485.101 213.112C485.397 213.256 485.713 213.328 486.049 213.328ZM493.142 214.12C492.598 214.12 492.106 213.988 491.666 213.724C491.226 213.452 490.878 213.088 490.622 212.632C490.366 212.168 490.238 211.648 490.238 211.072C490.238 210.496 490.358 209.98 490.598 209.524C490.846 209.068 491.178 208.708 491.594 208.444C492.01 208.18 492.474 208.048 492.986 208.048C493.506 208.048 493.966 208.18 494.366 208.444C494.774 208.7 495.094 209.052 495.326 209.5C495.566 209.94 495.686 210.44 495.686 211V211.264H491.09C491.122 211.664 491.23 212.024 491.414 212.344C491.606 212.656 491.854 212.904 492.158 213.088C492.47 213.264 492.81 213.352 493.178 213.352C493.482 213.352 493.774 213.3 494.054 213.196C494.342 213.084 494.586 212.936 494.786 212.752L495.338 213.34C495.002 213.604 494.654 213.8 494.294 213.928C493.934 214.056 493.55 214.12 493.142 214.12ZM491.114 210.64H494.822C494.782 210.288 494.674 209.976 494.498 209.704C494.33 209.424 494.114 209.204 493.85 209.044C493.594 208.884 493.306 208.804 492.986 208.804C492.666 208.804 492.374 208.884 492.11 209.044C491.846 209.196 491.626 209.412 491.45 209.692C491.282 209.964 491.17 210.28 491.114 210.64ZM497.181 214V205.336L498.057 205.156V214H497.181Z" fill="#151515"/>
<path fill-rule="evenodd" clip-rule="evenodd" d="M514.285 213.791L514.791 213.285C515.07 213.006 515.07 212.554 514.791 212.274L512.516 210L514.791 207.726C515.07 207.447 515.07 206.994 514.791 206.715L514.285 206.209C514.006 205.93 513.554 205.93 513.274 206.209L511 208.484L508.726 206.209C508.447 205.93 507.994 205.93 507.715 206.209L507.209 206.715C506.93 206.994 506.93 207.446 507.209 207.726L509.484 210L507.209 212.274C506.93 212.553 506.93 213.006 507.209 213.285L507.715 213.791C507.994 214.07 508.447 214.07 508.726 213.791L511 211.516L513.274 213.791C513.553 214.07 514.006 214.07 514.285 213.791Z" fill="#1F1F1F"/>
<path d="M542.384 214.132C541.808 214.132 541.268 214.032 540.764 213.832C540.268 213.632 539.828 213.336 539.444 212.944L540.02 212.38C540.372 212.732 540.732 212.988 541.1 213.148C541.476 213.3 541.9 213.376 542.372 213.376C542.78 213.376 543.14 213.304 543.452 213.16C543.772 213.016 544.02 212.816 544.196 212.56C544.372 212.304 544.46 212.012 544.46 211.684C544.46 211.372 544.38 211.096 544.22 210.856C544.068 210.608 543.856 210.416 543.584 210.28C543.312 210.144 543 210.076 542.648 210.076H541.652V209.332H542.612C543.068 209.332 543.436 209.192 543.716 208.912C544.004 208.632 544.148 208.268 544.148 207.82C544.148 207.524 544.068 207.256 543.908 207.016C543.748 206.776 543.528 206.588 543.248 206.452C542.976 206.308 542.668 206.236 542.324 206.236C541.892 206.236 541.504 206.316 541.16 206.476C540.824 206.628 540.48 206.888 540.128 207.256L539.552 206.68C539.928 206.28 540.352 205.98 540.824 205.78C541.296 205.572 541.8 205.468 542.336 205.468C542.848 205.468 543.304 205.568 543.704 205.768C544.112 205.968 544.432 206.244 544.664 206.596C544.896 206.94 545.012 207.332 545.012 207.772C545.012 208.212 544.868 208.608 544.58 208.96C544.292 209.304 543.912 209.544 543.44 209.68C544.008 209.808 544.464 210.056 544.808 210.424C545.152 210.792 545.324 211.22 545.324 211.708C545.324 212.172 545.196 212.588 544.94 212.956C544.692 213.324 544.344 213.612 543.896 213.82C543.456 214.028 542.952 214.132 542.384 214.132ZM549.732 214V208.144H550.608V209.056C550.832 208.72 551.088 208.468 551.376 208.3C551.664 208.132 551.988 208.048 552.348 208.048C552.764 208.048 553.128 208.152 553.44 208.36C553.752 208.56 553.988 208.836 554.148 209.188C554.38 208.812 554.656 208.528 554.976 208.336C555.304 208.144 555.68 208.048 556.104 208.048C556.496 208.048 556.84 208.14 557.136 208.324C557.44 208.508 557.676 208.764 557.844 209.092C558.012 209.412 558.096 209.788 558.096 210.22V214H557.22V210.436C557.22 209.924 557.092 209.52 556.836 209.224C556.58 208.928 556.228 208.78 555.78 208.78C555.476 208.78 555.2 208.856 554.952 209.008C554.712 209.16 554.5 209.392 554.316 209.704C554.332 209.784 554.344 209.868 554.352 209.956C554.36 210.044 554.364 210.132 554.364 210.22V214H553.488V210.436C553.488 209.924 553.356 209.52 553.092 209.224C552.836 208.928 552.484 208.78 552.036 208.78C551.436 208.78 550.96 209.068 550.608 209.644V214H549.732ZM562.461 214.096C561.917 214.096 561.429 213.964 560.997 213.7C560.565 213.436 560.225 213.076 559.977 212.62C559.729 212.164 559.605 211.648 559.605 211.072C559.605 210.496 559.729 209.98 559.977 209.524C560.225 209.068 560.565 208.708 560.997 208.444C561.429 208.18 561.917 208.048 562.461 208.048C562.997 208.048 563.477 208.18 563.901 208.444C564.333 208.708 564.673 209.068 564.921 209.524C565.169 209.98 565.293 210.496 565.293 211.072C565.293 211.648 565.169 212.164 564.921 212.62C564.673 213.076 564.333 213.436 563.901 213.7C563.477 213.964 562.997 214.096 562.461 214.096ZM562.449 213.328C562.833 213.328 563.173 213.232 563.469 213.04C563.765 212.84 563.997 212.568 564.165 212.224C564.341 211.88 564.429 211.496 564.429 211.072C564.429 210.64 564.341 210.256 564.165 209.92C563.997 209.576 563.765 209.308 563.469 209.116C563.173 208.916 562.833 208.816 562.449 208.816C562.065 208.816 561.725 208.916 561.429 209.116C561.133 209.308 560.897 209.576 560.721 209.92C560.553 210.256 560.469 210.64 560.469 211.072C560.469 211.496 560.553 211.88 560.721 212.224C560.897 212.568 561.133 212.84 561.429 213.04C561.725 213.232 562.065 213.328 562.449 213.328ZM566.83 214V208.144H567.706V209.344C567.858 208.936 568.074 208.62 568.354 208.396C568.642 208.164 568.97 208.048 569.338 208.048C569.442 208.048 569.538 208.056 569.626 208.072C569.714 208.08 569.802 208.1 569.89 208.132V208.924C569.794 208.892 569.69 208.868 569.578 208.852C569.474 208.828 569.374 208.816 569.278 208.816C568.918 208.816 568.602 208.92 568.33 209.128C568.066 209.336 567.858 209.628 567.706 210.004V214H566.83ZM573.325 214.12C572.781 214.12 572.289 213.988 571.849 213.724C571.409 213.452 571.061 213.088 570.805 212.632C570.549 212.168 570.421 211.648 570.421 211.072C570.421 210.496 570.541 209.98 570.781 209.524C571.029 209.068 571.361 208.708 571.777 208.444C572.193 208.18 572.657 208.048 573.169 208.048C573.689 208.048 574.149 208.18 574.549 208.444C574.957 208.7 575.277 209.052 575.509 209.5C575.749 209.94 575.869 210.44 575.869 211V211.264H571.273C571.305 211.664 571.413 212.024 571.597 212.344C571.789 212.656 572.037 212.904 572.341 213.088C572.653 213.264 572.993 213.352 573.361 213.352C573.665 213.352 573.957 213.3 574.237 213.196C574.525 213.084 574.769 212.936 574.969 212.752L575.521 213.34C575.185 213.604 574.837 213.8 574.477 213.928C574.117 214.056 573.733 214.12 573.325 214.12ZM571.297 210.64H575.005C574.965 210.288 574.857 209.976 574.681 209.704C574.513 209.424 574.297 209.204 574.033 209.044C573.777 208.884 573.489 208.804 573.169 208.804C572.849 208.804 572.557 208.884 572.293 209.044C572.029 209.196 571.809 209.412 571.633 209.692C571.465 209.964 571.353 210.28 571.297 210.64Z" fill="#0066CC"/>
<path fill-rule="evenodd" clip-rule="evenodd" d="M600.285 213.791L600.791 213.285C601.07 213.006 601.07 212.554 600.791 212.274L598.516 210L600.791 207.726C601.07 207.447 601.07 206.994 600.791 206.715L600.285 206.209C600.006 205.93 599.554 205.93 599.274 206.209L597 208.484L594.726 206.209C594.447 205.93 593.994 205.93 593.715 206.209L593.209 206.715C592.93 206.994 592.93 207.446 593.209 207.726L595.484 210L593.209 212.274C592.93 212.553 592.93 213.006 593.209 213.285L593.715 213.791C593.994 214.07 594.447 214.07 594.726 213.791L597 211.516L599.274 213.791C599.553 214.07 600.006 214.07 600.285 213.791Z" fill="#1F1F1F"/>
<path d="M41.42 44V30H47.48C48.4 30 49.2 30.1533 49.88 30.46C50.56 30.7667 51.0867 31.2 51.46 31.76C51.8333 32.3067 52.02 32.9533 52.02 33.7C52.02 34.38 51.8467 34.98 51.5 35.5C51.1533 36.02 50.6667 36.4333 50.04 36.74C50.8267 37.02 51.44 37.4467 51.88 38.02C52.3333 38.58 52.56 39.24 52.56 40C52.56 40.8133 52.36 41.52 51.96 42.12C51.56 42.72 51 43.1867 50.28 43.52C49.56 43.84 48.7133 44 47.74 44H41.42ZM43.52 35.94H47.36C48.1467 35.94 48.7733 35.7533 49.24 35.38C49.7067 35.0067 49.94 34.5 49.94 33.86C49.94 33.22 49.7067 32.7133 49.24 32.34C48.7733 31.9667 48.1467 31.78 47.36 31.78H43.52V35.94ZM43.52 42.22H47.58C48.46 42.22 49.1533 42.0133 49.66 41.6C50.18 41.1867 50.44 40.6267 50.44 39.92C50.44 39.2267 50.18 38.6733 49.66 38.26C49.1533 37.8333 48.46 37.62 47.58 37.62H43.52V42.22ZM57.818 44.18C57.0846 44.18 56.438 44.0533 55.878 43.8C55.318 43.5333 54.878 43.1667 54.558 42.7C54.238 42.2333 54.078 41.6933 54.078 41.08C54.078 40.12 54.4446 39.3667 55.178 38.82C55.9113 38.26 56.918 37.98 58.198 37.98C59.198 37.98 60.1246 38.1733 60.978 38.56V37.48C60.978 36.0267 60.1513 35.3 58.498 35.3C58.0313 35.3 57.5446 35.3733 57.038 35.52C56.5313 35.6533 55.9646 35.8667 55.338 36.16L54.598 34.66C55.3713 34.3 56.0913 34.04 56.758 33.88C57.4246 33.7067 58.098 33.62 58.778 33.62C60.098 33.62 61.118 33.9333 61.838 34.56C62.5713 35.1867 62.938 36.08 62.938 37.24V44H60.978V43.12C60.5246 43.48 60.038 43.7467 59.518 43.92C58.998 44.0933 58.4313 44.18 57.818 44.18ZM55.998 41.04C55.998 41.5333 56.2046 41.9333 56.618 42.24C57.0446 42.5467 57.598 42.7 58.278 42.7C59.3713 42.7 60.2713 42.3733 60.978 41.72V40C60.2446 39.5733 59.3713 39.36 58.358 39.36C57.6246 39.36 57.0446 39.5133 56.618 39.82C56.2046 40.1133 55.998 40.52 55.998 41.04ZM68.7425 44.2C67.8625 44.2 67.0358 44.0733 66.2625 43.82C65.5025 43.5533 64.8425 43.18 64.2825 42.7L65.3825 41.38C65.9025 41.7933 66.4358 42.1133 66.9825 42.34C67.5425 42.5533 68.1092 42.66 68.6825 42.66C69.4025 42.66 69.9892 42.52 70.4425 42.24C70.8958 41.96 71.1225 41.5933 71.1225 41.14C71.1225 40.42 70.5758 39.98 69.4825 39.82L67.6425 39.56C66.6292 39.4133 65.8692 39.1 65.3625 38.62C64.8558 38.14 64.6025 37.5 64.6025 36.7C64.6025 36.0867 64.7692 35.5533 65.1025 35.1C65.4358 34.6333 65.9025 34.2733 66.5025 34.02C67.1025 33.7533 67.8025 33.62 68.6025 33.62C69.3358 33.62 70.0425 33.7267 70.7225 33.94C71.4025 34.1533 72.0558 34.4867 72.6825 34.94L71.6625 36.26C70.5558 35.54 69.4825 35.18 68.4425 35.18C67.8292 35.18 67.3358 35.3133 66.9625 35.58C66.5892 35.8333 66.4025 36.1667 66.4025 36.58C66.4025 36.9533 66.5292 37.2467 66.7825 37.46C67.0492 37.66 67.4825 37.8 68.0825 37.88L69.9225 38.14C70.9358 38.2867 71.7025 38.6 72.2225 39.08C72.7425 39.5467 73.0025 40.18 73.0025 40.98C73.0025 41.5933 72.8158 42.1467 72.4425 42.64C72.0692 43.12 71.5625 43.5 70.9225 43.78C70.2825 44.06 69.5558 44.2 68.7425 44.2ZM74.5394 44V33.82H76.5394V44H74.5394ZM75.5394 32.18C75.206 32.18 74.9194 32.06 74.6794 31.82C74.4394 31.5667 74.3194 31.2733 74.3194 30.94C74.3194 30.5933 74.4394 30.3067 74.6794 30.08C74.9194 29.84 75.206 29.72 75.5394 29.72C75.886 29.72 76.1794 29.84 76.4194 30.08C76.6594 30.3067 76.7794 30.5933 76.7794 30.94C76.7794 31.2733 76.6594 31.5667 76.4194 31.82C76.1794 32.06 75.886 32.18 75.5394 32.18ZM83.6748 44.18C82.7015 44.18 81.8148 43.9467 81.0148 43.48C80.2282 43.0133 79.6015 42.38 79.1348 41.58C78.6682 40.78 78.4348 39.8867 78.4348 38.9C78.4348 37.9133 78.6682 37.0267 79.1348 36.24C79.6015 35.44 80.2282 34.8067 81.0148 34.34C81.8148 33.86 82.7015 33.62 83.6748 33.62C84.4482 33.62 85.1882 33.7667 85.8948 34.06C86.6148 34.3533 87.2348 34.7667 87.7548 35.3L86.5148 36.68C86.1282 36.2533 85.6948 35.9333 85.2148 35.72C84.7348 35.5067 84.2348 35.4 83.7148 35.4C83.1015 35.4 82.5415 35.5533 82.0348 35.86C81.5415 36.1667 81.1482 36.5867 80.8548 37.12C80.5615 37.6533 80.4148 38.2467 80.4148 38.9C80.4148 39.5533 80.5615 40.1533 80.8548 40.7C81.1482 41.2333 81.5482 41.6533 82.0548 41.96C82.5615 42.2667 83.1282 42.42 83.7548 42.42C84.7815 42.42 85.6948 42.0133 86.4948 41.2L87.7148 42.48C87.1815 43.0267 86.5615 43.4467 85.8548 43.74C85.1615 44.0333 84.4348 44.18 83.6748 44.18ZM93.5042 44V30L95.5042 29.62V44H93.5042ZM101.08 44.18C100.346 44.18 99.6997 44.0533 99.1397 43.8C98.5797 43.5333 98.1397 43.1667 97.8197 42.7C97.4997 42.2333 97.3397 41.6933 97.3397 41.08C97.3397 40.12 97.7064 39.3667 98.4397 38.82C99.173 38.26 100.18 37.98 101.46 37.98C102.46 37.98 103.386 38.1733 104.24 38.56V37.48C104.24 36.0267 103.413 35.3 101.76 35.3C101.293 35.3 100.806 35.3733 100.3 35.52C99.793 35.6533 99.2264 35.8667 98.5997 36.16L97.8597 34.66C98.633 34.3 99.353 34.04 100.02 33.88C100.686 33.7067 101.36 33.62 102.04 33.62C103.36 33.62 104.38 33.9333 105.1 34.56C105.833 35.1867 106.2 36.08 106.2 37.24V44H104.24V43.12C103.786 43.48 103.3 43.7467 102.78 43.92C102.26 44.0933 101.693 44.18 101.08 44.18ZM99.2597 41.04C99.2597 41.5333 99.4664 41.9333 99.8797 42.24C100.306 42.5467 100.86 42.7 101.54 42.7C102.633 42.7 103.533 42.3733 104.24 41.72V40C103.506 39.5733 102.633 39.36 101.62 39.36C100.886 39.36 100.306 39.5133 99.8797 39.82C99.4664 40.1133 99.2597 40.52 99.2597 41.04ZM108.504 44V30L110.504 29.62V34.78C111.358 34.0333 112.391 33.66 113.604 33.66C114.564 33.66 115.431 33.8933 116.204 34.36C116.991 34.8267 117.611 35.4533 118.064 36.24C118.518 37.0267 118.744 37.9133 118.744 38.9C118.744 39.8867 118.511 40.78 118.044 41.58C117.591 42.3667 116.971 42.9933 116.184 43.46C115.411 43.9267 114.538 44.16 113.564 44.16C112.418 44.16 111.391 43.8133 110.484 43.12V44H108.504ZM113.344 42.42C113.998 42.42 114.578 42.2667 115.084 41.96C115.604 41.6533 116.018 41.24 116.324 40.72C116.631 40.1867 116.784 39.5867 116.784 38.92C116.784 38.2533 116.631 37.6533 116.324 37.12C116.018 36.5867 115.604 36.1667 115.084 35.86C114.578 35.5533 113.998 35.4 113.344 35.4C112.771 35.4 112.238 35.5067 111.744 35.72C111.251 35.9333 110.838 36.2333 110.504 36.62V41.22C110.838 41.5933 111.251 41.8867 111.744 42.1C112.251 42.3133 112.784 42.42 113.344 42.42ZM125.533 44.18C124.533 44.18 123.626 43.9467 122.813 43.48C122.013 43.0133 121.373 42.38 120.893 41.58C120.426 40.78 120.193 39.8867 120.193 38.9C120.193 37.9267 120.419 37.0467 120.873 36.26C121.326 35.46 121.939 34.8267 122.713 34.36C123.486 33.88 124.346 33.64 125.293 33.64C126.239 33.64 127.079 33.88 127.813 34.36C128.546 34.8267 129.126 35.4667 129.553 36.28C129.993 37.08 130.213 37.9867 130.213 39V39.56H122.193C122.299 40.12 122.506 40.62 122.813 41.06C123.133 41.5 123.533 41.8467 124.013 42.1C124.506 42.3533 125.039 42.48 125.613 42.48C126.106 42.48 126.579 42.4067 127.033 42.26C127.499 42.1 127.886 41.8733 128.193 41.58L129.473 42.84C128.873 43.2933 128.253 43.6333 127.613 43.86C126.986 44.0733 126.293 44.18 125.533 44.18ZM122.213 38.06H128.233C128.153 37.5267 127.966 37.06 127.673 36.66C127.393 36.2467 127.039 35.9267 126.613 35.7C126.199 35.46 125.746 35.34 125.253 35.34C124.479 35.34 123.813 35.5933 123.253 36.1C122.706 36.5933 122.359 37.2467 122.213 38.06ZM132.118 44V30L134.118 29.62V44H132.118ZM145.693 48.28C144.946 48.28 144.219 48.1933 143.513 48.02C142.819 47.8467 142.179 47.6 141.593 47.28L142.353 45.72C143.499 46.3067 144.593 46.6 145.633 46.6C147.446 46.6 148.353 45.7867 148.353 44.16V43C147.459 43.7067 146.439 44.06 145.293 44.06C144.359 44.06 143.499 43.8333 142.713 43.38C141.939 42.9133 141.326 42.2867 140.873 41.5C140.419 40.7 140.193 39.82 140.193 38.86C140.193 37.8867 140.419 37.0067 140.873 36.22C141.339 35.42 141.959 34.7933 142.733 34.34C143.519 33.8733 144.399 33.64 145.373 33.64C146.479 33.64 147.479 33.9867 148.373 34.68V33.82H150.353V44.16C150.353 45.48 149.946 46.4933 149.133 47.2C148.333 47.92 147.186 48.28 145.693 48.28ZM145.553 42.34C146.753 42.34 147.686 41.94 148.353 41.14V36.58C148.033 36.2067 147.626 35.9133 147.133 35.7C146.653 35.4867 146.126 35.38 145.553 35.38C144.913 35.38 144.333 35.5333 143.813 35.84C143.306 36.1467 142.899 36.5667 142.593 37.1C142.299 37.62 142.153 38.2067 142.153 38.86C142.153 39.5133 142.299 40.1067 142.593 40.64C142.899 41.16 143.313 41.5733 143.833 41.88C144.353 42.1867 144.926 42.34 145.553 42.34ZM152.703 44V33.82H154.703V35.12C155.023 34.64 155.417 34.2667 155.883 34C156.363 33.72 156.903 33.58 157.503 33.58C157.917 33.5933 158.257 33.6533 158.523 33.76V35.56C158.137 35.4133 157.743 35.34 157.343 35.34C156.757 35.34 156.237 35.5 155.783 35.82C155.33 36.1267 154.97 36.58 154.703 37.18V44H152.703ZM164.379 44.2C163.393 44.2 162.493 43.9667 161.679 43.5C160.879 43.0333 160.246 42.4 159.779 41.6C159.313 40.8 159.079 39.9067 159.079 38.92C159.079 37.9333 159.313 37.04 159.779 36.24C160.246 35.44 160.879 34.8067 161.679 34.34C162.493 33.86 163.393 33.62 164.379 33.62C165.379 33.62 166.279 33.86 167.079 34.34C167.879 34.8067 168.513 35.44 168.979 36.24C169.446 37.04 169.679 37.9333 169.679 38.92C169.679 39.9067 169.446 40.8 168.979 41.6C168.513 42.4 167.879 43.0333 167.079 43.5C166.279 43.9667 165.379 44.2 164.379 44.2ZM164.379 42.44C165.006 42.44 165.566 42.2867 166.059 41.98C166.566 41.66 166.966 41.2333 167.259 40.7C167.566 40.1667 167.719 39.5733 167.719 38.92C167.719 38.2533 167.573 37.66 167.279 37.14C166.986 36.6067 166.586 36.18 166.079 35.86C165.573 35.54 165.006 35.38 164.379 35.38C163.753 35.38 163.186 35.54 162.679 35.86C162.173 36.18 161.773 36.6067 161.479 37.14C161.186 37.66 161.039 38.2533 161.039 38.92C161.039 39.5733 161.186 40.1667 161.479 40.7C161.773 41.2333 162.173 41.66 162.679 41.98C163.186 42.2867 163.753 42.44 164.379 42.44ZM175.511 44.2C174.724 44.2 174.031 44.0333 173.431 43.7C172.831 43.3667 172.364 42.9 172.031 42.3C171.697 41.7 171.531 41 171.531 40.2V33.82H173.511V39.86C173.511 40.66 173.737 41.2933 174.191 41.76C174.657 42.2267 175.277 42.46 176.051 42.46C177.144 42.46 177.977 42.0133 178.551 41.12V33.82H180.551V44H178.551V42.96C177.764 43.7867 176.751 44.2 175.511 44.2ZM182.918 48.08V33.82H184.898V34.8C185.752 34.04 186.792 33.66 188.018 33.66C188.978 33.66 189.845 33.8933 190.618 34.36C191.405 34.8267 192.025 35.4533 192.478 36.24C192.932 37.0267 193.158 37.9133 193.158 38.9C193.158 39.8867 192.925 40.78 192.458 41.58C192.005 42.3667 191.385 42.9933 190.598 43.46C189.825 43.9267 188.952 44.16 187.978 44.16C187.418 44.16 186.878 44.0733 186.358 43.9C185.838 43.7133 185.358 43.4533 184.918 43.12V48.08H182.918ZM187.758 42.42C188.412 42.42 188.992 42.2667 189.498 41.96C190.018 41.6533 190.432 41.24 190.738 40.72C191.045 40.1867 191.198 39.5867 191.198 38.92C191.198 38.2533 191.045 37.6533 190.738 37.12C190.432 36.5867 190.018 36.1667 189.498 35.86C188.992 35.5533 188.412 35.4 187.758 35.4C187.185 35.4 186.652 35.5067 186.158 35.72C185.665 35.9333 185.252 36.2333 184.918 36.62V41.22C185.252 41.5933 185.665 41.8867 186.158 42.1C186.665 42.3133 187.198 42.42 187.758 42.42Z" fill="black"/>
<path d="M48.16 163.22C47.12 163.22 46.1533 163.04 45.26 162.68C44.38 162.307 43.6 161.793 42.92 161.14C42.2533 160.473 41.7333 159.707 41.36 158.84C41 157.96 40.82 157.013 40.82 156C40.82 154.987 41 154.047 41.36 153.18C41.7333 152.3 42.2533 151.533 42.92 150.88C43.6 150.213 44.3867 149.7 45.28 149.34C46.1733 148.967 47.1333 148.78 48.16 148.78C48.8933 148.78 49.6067 148.88 50.3 149.08C51.0067 149.267 51.6533 149.54 52.24 149.9C52.84 150.26 53.36 150.693 53.8 151.2L52.4 152.64C51.88 152.013 51.2467 151.54 50.5 151.22C49.7533 150.887 48.9733 150.72 48.16 150.72C47.1733 150.72 46.2867 150.953 45.5 151.42C44.7133 151.887 44.0933 152.52 43.64 153.32C43.1867 154.107 42.96 155 42.96 156C42.96 157 43.1867 157.9 43.64 158.7C44.1067 159.487 44.74 160.113 45.54 160.58C46.34 161.047 47.2333 161.28 48.22 161.28C49.0333 161.28 49.8 161.12 50.52 160.8C51.2533 160.467 51.8733 160 52.38 159.4L53.76 160.8C53.2933 161.293 52.76 161.727 52.16 162.1C51.5733 162.46 50.9333 162.74 50.24 162.94C49.56 163.127 48.8667 163.22 48.16 163.22ZM58.7945 163.18C58.0612 163.18 57.4145 163.053 56.8545 162.8C56.2945 162.533 55.8545 162.167 55.5345 161.7C55.2145 161.233 55.0545 160.693 55.0545 160.08C55.0545 159.12 55.4212 158.367 56.1545 157.82C56.8879 157.26 57.8945 156.98 59.1745 156.98C60.1745 156.98 61.1012 157.173 61.9545 157.56V156.48C61.9545 155.027 61.1279 154.3 59.4745 154.3C59.0079 154.3 58.5212 154.373 58.0145 154.52C57.5079 154.653 56.9412 154.867 56.3145 155.16L55.5745 153.66C56.3479 153.3 57.0679 153.04 57.7345 152.88C58.4012 152.707 59.0745 152.62 59.7545 152.62C61.0745 152.62 62.0945 152.933 62.8145 153.56C63.5479 154.187 63.9145 155.08 63.9145 156.24V163H61.9545V162.12C61.5012 162.48 61.0145 162.747 60.4945 162.92C59.9745 163.093 59.4079 163.18 58.7945 163.18ZM56.9745 160.04C56.9745 160.533 57.1812 160.933 57.5945 161.24C58.0212 161.547 58.5745 161.7 59.2545 161.7C60.3479 161.7 61.2479 161.373 61.9545 160.72V159C61.2212 158.573 60.3479 158.36 59.3345 158.36C58.6012 158.36 58.0212 158.513 57.5945 158.82C57.1812 159.113 56.9745 159.52 56.9745 160.04ZM70.2861 163.18C69.2994 163.18 68.5461 162.953 68.0261 162.5C67.5061 162.033 67.2461 161.36 67.2461 160.48V154.5H65.0861V152.82H67.2461V150.22L69.2261 149.74V152.82H72.2261V154.5H69.2261V160.02C69.2261 160.54 69.3394 160.913 69.5661 161.14C69.8061 161.353 70.1928 161.46 70.7261 161.46C71.0061 161.46 71.2528 161.44 71.4661 161.4C71.6928 161.36 71.9328 161.3 72.1861 161.22V162.9C71.9194 162.993 71.6061 163.06 71.2461 163.1C70.8994 163.153 70.5794 163.18 70.2861 163.18ZM78.4233 163.18C77.4233 163.18 76.5166 162.947 75.7033 162.48C74.9033 162.013 74.2633 161.38 73.7833 160.58C73.3166 159.78 73.0833 158.887 73.0833 157.9C73.0833 156.927 73.3099 156.047 73.7633 155.26C74.2166 154.46 74.8299 153.827 75.6033 153.36C76.3766 152.88 77.2366 152.64 78.1833 152.64C79.1299 152.64 79.9699 152.88 80.7033 153.36C81.4366 153.827 82.0166 154.467 82.4433 155.28C82.8833 156.08 83.1033 156.987 83.1033 158V158.56H75.0833C75.1899 159.12 75.3966 159.62 75.7033 160.06C76.0233 160.5 76.4233 160.847 76.9033 161.1C77.3966 161.353 77.9299 161.48 78.5033 161.48C78.9966 161.48 79.4699 161.407 79.9233 161.26C80.3899 161.1 80.7766 160.873 81.0833 160.58L82.3633 161.84C81.7633 162.293 81.1433 162.633 80.5033 162.86C79.8766 163.073 79.1833 163.18 78.4233 163.18ZM75.1033 157.06H81.1233C81.0433 156.527 80.8566 156.06 80.5633 155.66C80.2833 155.247 79.9299 154.927 79.5033 154.7C79.0899 154.46 78.6366 154.34 78.1433 154.34C77.3699 154.34 76.7033 154.593 76.1433 155.1C75.5966 155.593 75.2499 156.247 75.1033 157.06ZM90.0872 167.28C89.3405 167.28 88.6139 167.193 87.9072 167.02C87.2139 166.847 86.5739 166.6 85.9872 166.28L86.7472 164.72C87.8939 165.307 88.9872 165.6 90.0272 165.6C91.8405 165.6 92.7472 164.787 92.7472 163.16V162C91.8539 162.707 90.8339 163.06 89.6872 163.06C88.7539 163.06 87.8939 162.833 87.1072 162.38C86.3339 161.913 85.7205 161.287 85.2672 160.5C84.8139 159.7 84.5872 158.82 84.5872 157.86C84.5872 156.887 84.8139 156.007 85.2672 155.22C85.7339 154.42 86.3539 153.793 87.1272 153.34C87.9139 152.873 88.7939 152.64 89.7672 152.64C90.8739 152.64 91.8739 152.987 92.7672 153.68V152.82H94.7472V163.16C94.7472 164.48 94.3405 165.493 93.5272 166.2C92.7272 166.92 91.5805 167.28 90.0872 167.28ZM89.9472 161.34C91.1472 161.34 92.0805 160.94 92.7472 160.14V155.58C92.4272 155.207 92.0205 154.913 91.5272 154.7C91.0472 154.487 90.5205 154.38 89.9472 154.38C89.3072 154.38 88.7272 154.533 88.2072 154.84C87.7005 155.147 87.2939 155.567 86.9872 156.1C86.6939 156.62 86.5472 157.207 86.5472 157.86C86.5472 158.513 86.6939 159.107 86.9872 159.64C87.2939 160.16 87.7072 160.573 88.2272 160.88C88.7472 161.187 89.3205 161.34 89.9472 161.34ZM101.938 163.2C100.951 163.2 100.051 162.967 99.238 162.5C98.438 162.033 97.8046 161.4 97.338 160.6C96.8713 159.8 96.638 158.907 96.638 157.92C96.638 156.933 96.8713 156.04 97.338 155.24C97.8046 154.44 98.438 153.807 99.238 153.34C100.051 152.86 100.951 152.62 101.938 152.62C102.938 152.62 103.838 152.86 104.638 153.34C105.438 153.807 106.071 154.44 106.538 155.24C107.005 156.04 107.238 156.933 107.238 157.92C107.238 158.907 107.005 159.8 106.538 160.6C106.071 161.4 105.438 162.033 104.638 162.5C103.838 162.967 102.938 163.2 101.938 163.2ZM101.938 161.44C102.565 161.44 103.125 161.287 103.618 160.98C104.125 160.66 104.525 160.233 104.818 159.7C105.125 159.167 105.278 158.573 105.278 157.92C105.278 157.253 105.131 156.66 104.838 156.14C104.545 155.607 104.145 155.18 103.638 154.86C103.131 154.54 102.565 154.38 101.938 154.38C101.311 154.38 100.745 154.54 100.238 154.86C99.7313 155.18 99.3313 155.607 99.038 156.14C98.7446 156.66 98.598 157.253 98.598 157.92C98.598 158.573 98.7446 159.167 99.038 159.7C99.3313 160.233 99.7313 160.66 100.238 160.98C100.745 161.287 101.311 161.44 101.938 161.44ZM109.129 163V152.82H111.129V154.12C111.449 153.64 111.843 153.267 112.309 153C112.789 152.72 113.329 152.58 113.929 152.58C114.343 152.593 114.683 152.653 114.949 152.76V154.56C114.563 154.413 114.169 154.34 113.769 154.34C113.183 154.34 112.663 154.5 112.209 154.82C111.756 155.127 111.396 155.58 111.129 156.18V163H109.129ZM116.551 163V152.82H118.551V163H116.551ZM117.551 151.18C117.218 151.18 116.931 151.06 116.691 150.82C116.451 150.567 116.331 150.273 116.331 149.94C116.331 149.593 116.451 149.307 116.691 149.08C116.931 148.84 117.218 148.72 117.551 148.72C117.898 148.72 118.191 148.84 118.431 149.08C118.671 149.307 118.791 149.593 118.791 149.94C118.791 150.273 118.671 150.567 118.431 150.82C118.191 151.06 117.898 151.18 117.551 151.18ZM120.307 163V161.52L126.027 154.54H120.367V152.82H128.527V154.28L122.807 161.28H128.627V163H120.307ZM135.044 163.18C134.044 163.18 133.138 162.947 132.324 162.48C131.524 162.013 130.884 161.38 130.404 160.58C129.938 159.78 129.704 158.887 129.704 157.9C129.704 156.927 129.931 156.047 130.384 155.26C130.838 154.46 131.451 153.827 132.224 153.36C132.998 152.88 133.858 152.64 134.804 152.64C135.751 152.64 136.591 152.88 137.324 153.36C138.058 153.827 138.638 154.467 139.064 155.28C139.504 156.08 139.724 156.987 139.724 158V158.56H131.704C131.811 159.12 132.018 159.62 132.324 160.06C132.644 160.5 133.044 160.847 133.524 161.1C134.018 161.353 134.551 161.48 135.124 161.48C135.618 161.48 136.091 161.407 136.544 161.26C137.011 161.1 137.398 160.873 137.704 160.58L138.984 161.84C138.384 162.293 137.764 162.633 137.124 162.86C136.498 163.073 135.804 163.18 135.044 163.18ZM131.724 157.06H137.744C137.664 156.527 137.478 156.06 137.184 155.66C136.904 155.247 136.551 154.927 136.124 154.7C135.711 154.46 135.258 154.34 134.764 154.34C133.991 154.34 133.324 154.593 132.764 155.1C132.218 155.593 131.871 156.247 131.724 157.06ZM146.348 163.16C145.402 163.16 144.535 162.927 143.748 162.46C142.962 161.993 142.342 161.367 141.888 160.58C141.435 159.78 141.208 158.887 141.208 157.9C141.208 156.913 141.435 156.027 141.888 155.24C142.355 154.453 142.982 153.827 143.768 153.36C144.555 152.893 145.428 152.66 146.388 152.66C147.535 152.66 148.555 153 149.448 153.68V149L151.448 148.62V163H149.468V162.02C148.602 162.78 147.562 163.16 146.348 163.16ZM146.608 161.42C147.195 161.42 147.728 161.313 148.208 161.1C148.702 160.887 149.115 160.58 149.448 160.18V155.6C149.115 155.227 148.702 154.933 148.208 154.72C147.715 154.493 147.182 154.38 146.608 154.38C145.968 154.38 145.388 154.533 144.868 154.84C144.348 155.147 143.935 155.567 143.628 156.1C143.322 156.62 143.168 157.213 143.168 157.88C143.168 158.547 143.322 159.147 143.628 159.68C143.935 160.213 144.348 160.64 144.868 160.96C145.388 161.267 145.968 161.42 146.608 161.42ZM157.996 163V149L159.996 148.62V163H157.996ZM165.572 163.18C164.839 163.18 164.192 163.053 163.632 162.8C163.072 162.533 162.632 162.167 162.312 161.7C161.992 161.233 161.832 160.693 161.832 160.08C161.832 159.12 162.199 158.367 162.932 157.82C163.665 157.26 164.672 156.98 165.952 156.98C166.952 156.98 167.879 157.173 168.732 157.56V156.48C168.732 155.027 167.905 154.3 166.252 154.3C165.785 154.3 165.299 154.373 164.792 154.52C164.285 154.653 163.719 154.867 163.092 155.16L162.352 153.66C163.125 153.3 163.845 153.04 164.512 152.88C165.179 152.707 165.852 152.62 166.532 152.62C167.852 152.62 168.872 152.933 169.592 153.56C170.325 154.187 170.692 155.08 170.692 156.24V163H168.732V162.12C168.279 162.48 167.792 162.747 167.272 162.92C166.752 163.093 166.185 163.18 165.572 163.18ZM163.752 160.04C163.752 160.533 163.959 160.933 164.372 161.24C164.799 161.547 165.352 161.7 166.032 161.7C167.125 161.7 168.025 161.373 168.732 160.72V159C167.999 158.573 167.125 158.36 166.112 158.36C165.379 158.36 164.799 158.513 164.372 158.82C163.959 159.113 163.752 159.52 163.752 160.04ZM172.996 163V149L174.996 148.62V153.78C175.85 153.033 176.883 152.66 178.096 152.66C179.056 152.66 179.923 152.893 180.696 153.36C181.483 153.827 182.103 154.453 182.556 155.24C183.01 156.027 183.236 156.913 183.236 157.9C183.236 158.887 183.003 159.78 182.536 160.58C182.083 161.367 181.463 161.993 180.676 162.46C179.903 162.927 179.03 163.16 178.056 163.16C176.91 163.16 175.883 162.813 174.976 162.12V163H172.996ZM177.836 161.42C178.49 161.42 179.07 161.267 179.576 160.96C180.096 160.653 180.51 160.24 180.816 159.72C181.123 159.187 181.276 158.587 181.276 157.92C181.276 157.253 181.123 156.653 180.816 156.12C180.51 155.587 180.096 155.167 179.576 154.86C179.07 154.553 178.49 154.4 177.836 154.4C177.263 154.4 176.73 154.507 176.236 154.72C175.743 154.933 175.33 155.233 174.996 155.62V160.22C175.33 160.593 175.743 160.887 176.236 161.1C176.743 161.313 177.276 161.42 177.836 161.42ZM190.025 163.18C189.025 163.18 188.118 162.947 187.305 162.48C186.505 162.013 185.865 161.38 185.385 160.58C184.918 159.78 184.685 158.887 184.685 157.9C184.685 156.927 184.912 156.047 185.365 155.26C185.818 154.46 186.432 153.827 187.205 153.36C187.978 152.88 188.838 152.64 189.785 152.64C190.732 152.64 191.572 152.88 192.305 153.36C193.038 153.827 193.618 154.467 194.045 155.28C194.485 156.08 194.705 156.987 194.705 158V158.56H186.685C186.792 159.12 186.998 159.62 187.305 160.06C187.625 160.5 188.025 160.847 188.505 161.1C188.998 161.353 189.532 161.48 190.105 161.48C190.598 161.48 191.072 161.407 191.525 161.26C191.992 161.1 192.378 160.873 192.685 160.58L193.965 161.84C193.365 162.293 192.745 162.633 192.105 162.86C191.478 163.073 190.785 163.18 190.025 163.18ZM186.705 157.06H192.725C192.645 156.527 192.458 156.06 192.165 155.66C191.885 155.247 191.532 154.927 191.105 154.7C190.692 154.46 190.238 154.34 189.745 154.34C188.972 154.34 188.305 154.593 187.745 155.1C187.198 155.593 186.852 156.247 186.705 157.06ZM196.61 163V149L198.61 148.62V163H196.61ZM210.185 167.28C209.438 167.28 208.712 167.193 208.005 167.02C207.312 166.847 206.672 166.6 206.085 166.28L206.845 164.72C207.992 165.307 209.085 165.6 210.125 165.6C211.938 165.6 212.845 164.787 212.845 163.16V162C211.952 162.707 210.932 163.06 209.785 163.06C208.852 163.06 207.992 162.833 207.205 162.38C206.432 161.913 205.818 161.287 205.365 160.5C204.912 159.7 204.685 158.82 204.685 157.86C204.685 156.887 204.912 156.007 205.365 155.22C205.832 154.42 206.452 153.793 207.225 153.34C208.012 152.873 208.892 152.64 209.865 152.64C210.972 152.64 211.972 152.987 212.865 153.68V152.82H214.845V163.16C214.845 164.48 214.438 165.493 213.625 166.2C212.825 166.92 211.678 167.28 210.185 167.28ZM210.045 161.34C211.245 161.34 212.178 160.94 212.845 160.14V155.58C212.525 155.207 212.118 154.913 211.625 154.7C211.145 154.487 210.618 154.38 210.045 154.38C209.405 154.38 208.825 154.533 208.305 154.84C207.798 155.147 207.392 155.567 207.085 156.1C206.792 156.62 206.645 157.207 206.645 157.86C206.645 158.513 206.792 159.107 207.085 159.64C207.392 160.16 207.805 160.573 208.325 160.88C208.845 161.187 209.418 161.34 210.045 161.34ZM217.196 163V152.82H219.196V154.12C219.516 153.64 219.909 153.267 220.376 153C220.856 152.72 221.396 152.58 221.996 152.58C222.409 152.593 222.749 152.653 223.016 152.76V154.56C222.629 154.413 222.236 154.34 221.836 154.34C221.249 154.34 220.729 154.5 220.276 154.82C219.822 155.127 219.462 155.58 219.196 156.18V163H217.196ZM228.872 163.2C227.885 163.2 226.985 162.967 226.172 162.5C225.372 162.033 224.738 161.4 224.272 160.6C223.805 159.8 223.572 158.907 223.572 157.92C223.572 156.933 223.805 156.04 224.272 155.24C224.738 154.44 225.372 153.807 226.172 153.34C226.985 152.86 227.885 152.62 228.872 152.62C229.872 152.62 230.772 152.86 231.572 153.34C232.372 153.807 233.005 154.44 233.472 155.24C233.938 156.04 234.172 156.933 234.172 157.92C234.172 158.907 233.938 159.8 233.472 160.6C233.005 161.4 232.372 162.033 231.572 162.5C230.772 162.967 229.872 163.2 228.872 163.2ZM228.872 161.44C229.498 161.44 230.058 161.287 230.552 160.98C231.058 160.66 231.458 160.233 231.752 159.7C232.058 159.167 232.212 158.573 232.212 157.92C232.212 157.253 232.065 156.66 231.772 156.14C231.478 155.607 231.078 155.18 230.572 154.86C230.065 154.54 229.498 154.38 228.872 154.38C228.245 154.38 227.678 154.54 227.172 154.86C226.665 155.18 226.265 155.607 225.972 156.14C225.678 156.66 225.532 157.253 225.532 157.92C225.532 158.573 225.678 159.167 225.972 159.7C226.265 160.233 226.665 160.66 227.172 160.98C227.678 161.287 228.245 161.44 228.872 161.44ZM240.003 163.2C239.216 163.2 238.523 163.033 237.923 162.7C237.323 162.367 236.856 161.9 236.523 161.3C236.189 160.7 236.023 160 236.023 159.2V152.82H238.003V158.86C238.003 159.66 238.229 160.293 238.683 160.76C239.149 161.227 239.769 161.46 240.543 161.46C241.636 161.46 242.469 161.013 243.043 160.12V152.82H245.043V163H243.043V161.96C242.256 162.787 241.243 163.2 240.003 163.2ZM247.41 167.08V152.82H249.39V153.8C250.244 153.04 251.284 152.66 252.51 152.66C253.47 152.66 254.337 152.893 255.11 153.36C255.897 153.827 256.517 154.453 256.97 155.24C257.424 156.027 257.65 156.913 257.65 157.9C257.65 158.887 257.417 159.78 256.95 160.58C256.497 161.367 255.877 161.993 255.09 162.46C254.317 162.927 253.444 163.16 252.47 163.16C251.91 163.16 251.37 163.073 250.85 162.9C250.33 162.713 249.85 162.453 249.41 162.12V167.08H247.41ZM252.25 161.42C252.904 161.42 253.484 161.267 253.99 160.96C254.51 160.653 254.924 160.24 255.23 159.72C255.537 159.187 255.69 158.587 255.69 157.92C255.69 157.253 255.537 156.653 255.23 156.12C254.924 155.587 254.51 155.167 253.99 154.86C253.484 154.553 252.904 154.4 252.25 154.4C251.677 154.4 251.144 154.507 250.65 154.72C250.157 154.933 249.744 155.233 249.41 155.62V160.22C249.744 160.593 250.157 160.887 250.65 161.1C251.157 161.313 251.69 161.42 252.25 161.42Z" fill="black"/>
<path d="M271.333 87C271.333 88.4728 272.527 89.6667 274 89.6667C275.473 89.6667 276.667 88.4728 276.667 87C276.667 85.5272 275.473 84.3333 274 84.3333C272.527 84.3333 271.333 85.5272 271.333 87ZM274 87V87.5H296V87V86.5H274V87Z" fill="#C806CC"/>
<path d="M296 75C296 72.7909 297.791 71 300 71H330C332.209 71 334 72.7909 334 75V99C334 101.209 332.209 103 330 103H300C297.791 103 296 101.209 296 99V75Z" fill="#C806CC"/>
<path d="M314.888 93V82.254L312.62 83.208V81.624L315.536 80.4H316.67V93H314.888Z" fill="white"/>
<path d="M610.333 210C610.333 211.473 611.527 212.667 613 212.667C614.473 212.667 615.667 211.473 615.667 210C615.667 208.527 614.473 207.333 613 207.333C611.527 207.333 610.333 208.527 610.333 210ZM613 210V210.5H629V210V209.5H613V210Z" fill="#C806CC"/>
<path d="M629 198C629 195.791 630.791 194 633 194H669C671.209 194 673 195.791 673 198V222C673 224.209 671.209 226 669 226H633C630.791 226 629 224.209 629 222V198Z" fill="#C806CC"/>
<path d="M652.866 216V212.796H645.72V211.374L652.65 203.4H654.648V211.284H656.178V212.796H654.648V216H652.866ZM647.862 211.284H652.866V205.524L647.862 211.284Z" fill="white"/>
<path d="M87 224.333C85.5272 224.333 84.3333 225.527 84.3333 227C84.3333 228.473 85.5272 229.667 87 229.667C88.4728 229.667 89.6667 228.473 89.6667 227C89.6667 225.527 88.4728 224.333 87 224.333ZM87 227L86.5 227L86.5 247L87 247L87.5 247L87.5 227L87 227Z" fill="#C806CC"/>
<path d="M66 251C66 248.791 67.7909 247 70 247H104C106.209 247 108 248.791 108 251V275C108 277.209 106.209 279 104 279H70C67.7909 279 66 277.209 66 275V251Z" fill="#C806CC"/>
<path d="M82.8898 269V267.74L88.0018 262.304C88.5178 261.764 88.8658 261.302 89.0458 260.918C89.2378 260.534 89.3338 260.126 89.3338 259.694C89.3338 259.13 89.1058 258.662 88.6498 258.29C88.1938 257.918 87.6178 257.732 86.9218 257.732C86.3458 257.732 85.8058 257.846 85.3018 258.074C84.7978 258.302 84.2398 258.698 83.6278 259.262L82.6558 258.074C83.9878 256.826 85.4218 256.202 86.9578 256.202C87.7618 256.202 88.4698 256.346 89.0818 256.634C89.6938 256.922 90.1678 257.324 90.5038 257.84C90.8518 258.344 91.0258 258.926 91.0258 259.586C91.0258 260.006 90.9718 260.396 90.8638 260.756C90.7558 261.104 90.5698 261.476 90.3058 261.872C90.0418 262.256 89.6698 262.7 89.1898 263.204L85.0858 267.524L91.2778 267.506V269H82.8898Z" fill="white"/>
<path d="M537 152C537 149.791 538.791 148 541 148H576C578.209 148 580 149.791 580 152V176C580 178.209 578.209 180 576 180H541C538.791 180 537 178.209 537 176V152Z" fill="#C806CC"/>
<path d="M558.359 170.198C557.459 170.198 556.613 170.042 555.821 169.73C555.041 169.406 554.363 168.944 553.787 168.344L554.957 167.228C555.461 167.756 555.971 168.134 556.487 168.362C557.015 168.578 557.633 168.686 558.341 168.686C559.193 168.686 559.883 168.476 560.411 168.056C560.951 167.636 561.221 167.096 561.221 166.436C561.221 165.812 560.993 165.308 560.537 164.924C560.093 164.54 559.517 164.348 558.809 164.348H557.279V162.89H558.683C559.319 162.89 559.829 162.704 560.213 162.332C560.597 161.96 560.789 161.474 560.789 160.874C560.789 160.466 560.681 160.106 560.465 159.794C560.249 159.47 559.949 159.218 559.565 159.038C559.193 158.846 558.767 158.75 558.287 158.75C557.651 158.75 557.087 158.864 556.595 159.092C556.115 159.308 555.617 159.692 555.101 160.244L553.931 159.128C554.507 158.504 555.173 158.03 555.929 157.706C556.685 157.37 557.483 157.202 558.323 157.202C559.139 157.202 559.859 157.352 560.483 157.652C561.119 157.952 561.617 158.366 561.977 158.894C562.349 159.422 562.535 160.028 562.535 160.712C562.535 161.384 562.313 161.978 561.869 162.494C561.437 163.01 560.867 163.37 560.159 163.574C561.011 163.754 561.689 164.114 562.193 164.654C562.697 165.182 562.949 165.806 562.949 166.526C562.949 167.234 562.751 167.864 562.355 168.416C561.971 168.968 561.431 169.406 560.735 169.73C560.039 170.042 559.247 170.198 558.359 170.198Z" fill="white"/>
<path d="M558.5 197.333C557.027 197.333 555.833 198.527 555.833 200C555.833 201.473 557.027 202.667 558.5 202.667C559.973 202.667 561.167 201.473 561.167 200C561.167 198.527 559.973 197.333 558.5 197.333ZM558.5 180L558 180L558 200L558.5 200L559 200L559 180L558.5 180Z" fill="#C806CC"/>
</svg>
