<svg id="ae7a9edd-cd64-4e9d-bfd2-214d077cf3c5" xmlns="http://www.w3.org/2000/svg" viewBox="0 0 970.55 653.18"><defs><style>.cls-1{fill:#a0616a;}.cls-2{fill:#d2d2d2;}.cls-3{fill:#212427;}.cls-4{opacity:0.2;isolation:isolate;}.cls-5{fill:#ffb8b8;}.cls-6{fill:#06c;}.cls-7{fill:#fff;}</style></defs><path class="cls-1" d="M146.41,445.31a10,10,0,0,0-13.93-2.85,9.88,9.88,0,0,0-1.39,1.1L99.33,427.17l2,18.47,29.85,12.73a10.11,10.11,0,0,0,15.25-13.06Z"/><path class="cls-2" d="M118.19,452.74a4.51,4.51,0,0,1-3.67,0L84.36,439.69A46.31,46.31,0,0,1,60.9,417L45,383.53a14.5,14.5,0,1,1,22.88-17.81l0,0,27.87,51.72,25.74,19.44a4.53,4.53,0,0,1,1.59,4.92L120.61,450a4.45,4.45,0,0,1-1.52,2.21A4.62,4.62,0,0,1,118.19,452.74Z"/><circle class="cls-1" cx="44.34" cy="319.6" r="24.56"/><polygon class="cls-1" points="54.29 641.8 66.55 641.8 72.38 594.51 54.29 594.51 54.29 641.8"/><path class="cls-3" d="M90.19,653.18H51.66V638.29H75.31a14.89,14.89,0,0,1,14.88,14.89Z"/><polygon class="cls-1" points="14.29 641.8 26.55 641.8 32.38 594.51 14.29 594.51 14.29 641.8"/><path class="cls-3" d="M50.19,653.18H11.66V638.29H35.31a14.89,14.89,0,0,1,14.88,14.89Z"/><path class="cls-3" d="M10,628.26a4.48,4.48,0,0,1-1.08-3.56l21.47-161,53.33,9,5.69-3.41L74.7,622.1a4.52,4.52,0,0,1-4.1,4l-16.14,1.34a4.49,4.49,0,0,1-4.86-4.11,4.42,4.42,0,0,1,0-.63l4.18-72.74a.5.5,0,0,0-1-.16l-20.68,76.7a4.54,4.54,0,0,1-4.35,3.33H13.39A4.48,4.48,0,0,1,10,628.26Z"/><path class="cls-2" d="M46.94,475a3.52,3.52,0,0,0-4.52-.19l-10.66,8.29a4.5,4.5,0,0,1-7.09-2.31c-5.22-18.31-17.07-64.41-14.15-96.86,1.65-18.39,17.53-32.37,35.4-31.2,12.22.81,20.25,7.86,23.89,20.94,8.92,32.13,18.72,91,20.6,102.53a4.48,4.48,0,0,1-2.14,4.59,33,33,0,0,1-16.69,4.7C64.46,485.48,55.93,483,46.94,475Z"/><path class="cls-1" d="M51,486.41a10.06,10.06,0,0,0-9.2-10.84,10.58,10.58,0,0,0-1.78,0l-14.87-32.5-9.84,15.75L30.9,487.28A10.11,10.11,0,0,0,51,486.41Z"/><path class="cls-2" d="M24.17,474.85a4.51,4.51,0,0,1-2.91-2.24L5.6,443.7a46.36,46.36,0,0,1-4.45-32.34l8.17-36.12a14.5,14.5,0,0,1,29,.11v0l-10,57.9,8.25,31.18a4.51,4.51,0,0,1-1.79,4.85l-7,4.86a4.54,4.54,0,0,1-3.61.68Z"/><polygon class="cls-4" points="36.33 399.8 27.32 437.8 40.33 469.8 31.32 438.8 36.33 399.8"/><path class="cls-3" d="M30.32,339.8a16.4,16.4,0,0,1-6.38-1.16c-.9-.34-1.83-.63-2.72-1C13.34,334.62,8.15,326.23,8,317.78s4.19-16.64,10.69-22,14.91-8.17,23.33-8.82c9.08-.69,19.3,1.61,24.37,9.17,1.35,2,2.29,4.45,1.49,6.88a4.43,4.43,0,0,1-1.24,1.91c-2.26,2-4.52.5-6.83.37-3.17-.19-6,2.38-7.05,5.39S52.15,317,53,320a23.67,23.67,0,0,1,1.18,5.71,5.75,5.75,0,0,1-2.38,5c-2,1.2-4.59.51-6.57-.69s-3.7-2.86-5.84-3.74-5-.68-6.27,1.27a6.87,6.87,0,0,0-.8,2.29c-1.11,5.09-.86,4.79-2,9.89Z"/><path class="cls-3" d="M757.33,196.53h-607a8.73,8.73,0,0,0-8.72,8.72V616.57a8.73,8.73,0,0,0,8.72,8.72h607a8.7,8.7,0,0,0,6.63-3.06,1.43,1.43,0,0,0,.19-.24,8.05,8.05,0,0,0,1.25-2.11,8.36,8.36,0,0,0,.66-3.31V360.52h-2.49V616.57a6.11,6.11,0,0,1-1,3.42,6.42,6.42,0,0,1-2.36,2.12,6.12,6.12,0,0,1-2.85.69h-607a6.24,6.24,0,0,1-6.23-6.23V205.25a6.24,6.24,0,0,1,6.23-6.23h607a6.23,6.23,0,0,1,6.24,6.23v55.27h2.49V205.25A8.72,8.72,0,0,0,757.33,196.53Z"/><rect class="cls-3" x="142.86" y="231.48" width="621.96" height="2.49"/><circle class="cls-2" cx="164.04" cy="215.23" r="7.48"/><circle class="cls-2" cx="185.54" cy="215.23" r="7.48"/><circle class="cls-2" cx="207.04" cy="215.23" r="7.48"/><path class="cls-5" d="M360.51,71.37a7.87,7.87,0,0,0,0,1.37l-31.4,26.35-9.37-3.39-7,13.46,20.47,9.75,34.33-38.52a8.68,8.68,0,1,0-7-10.09,9.46,9.46,0,0,0-.12,1.07Z"/><path class="cls-2" d="M318.39,115.62l-30.32-10.94a11.16,11.16,0,0,1,7.57-21L326,94.63a3.72,3.72,0,0,1,2.23,4.76h0l-5.05,14a3.72,3.72,0,0,1-4.76,2.23Z"/><polygon class="cls-5" points="296.18 222.25 306.32 222.25 311.14 183.16 296.18 183.16 296.18 222.25"/><path class="cls-3" d="M325.86,231.66H294v-12.3h19.55a12.3,12.3,0,0,1,12.3,12.3Z"/><polygon class="cls-5" points="271.14 209.16 279.43 214.99 305.86 185.79 293.62 177.18 271.14 209.16"/><path class="cls-3" d="M289,231.93,263,213.61h0L270,203.54h0l16,11.24a12.31,12.31,0,0,1,3,17.15Z"/><path class="cls-5" d="M318.36,151.84s25.29-3,20.75,13.42S284,195.85,284,195.85Z"/><circle class="cls-5" cx="300.95" cy="47.79" r="20.3" transform="matrix(0.22, -0.98, 0.98, 0.22, 188.65, 331.07)"/><path class="cls-2" d="M236.2,192.49c-11.55-13.45-15.59-34.1,2.83-51.27a60.62,60.62,0,0,1,15.28-10.15l14.85-41.52a22.65,22.65,0,0,1,20.91-15,21.67,21.67,0,0,1,21,13.51,18.82,18.82,0,0,1,.58,13.32A214.15,214.15,0,0,1,294.34,141l.76,6.14,37.54,3.33-.36.57c-.18.3-18.55,28.29-42,46.86-8,6.36-16.35,9-24.19,9C254.16,206.86,243.34,200.8,236.2,192.49Z"/><path class="cls-3" d="M232.66,54.16c3.59-4.28,5.13-9.88,6.37-15.32,2-8.62,3.48-17.54,7.84-25.23S259.23-.46,268.06,0,283.93,7.57,287.7,15.6a7,7,0,0,1,5.67.28c2.72,1.49,3.73,5.71,1.47,7.83a18.75,18.75,0,0,1,15.28-.38A18.45,18.45,0,0,1,321.3,39a10.09,10.09,0,0,1-2.68,7.56c-3.89,4-9.4,2.62-14.3,1.6-4.63-1-10.26-1.22-12.87,3.18a8.26,8.26,0,0,0-.8,6c1,4.4,4.25,7.47,7.41,10.4l.52,1c-11.16,2.18-23.35-5.44-26.28-16.43S276.16,28.63,286.92,25h0a4,4,0,0,1-4.15-3.9,4,4,0,0,1,.54-2.13,19.2,19.2,0,0,0-9.77-2.44c-5.56.37-10.37,4.32-13.27,9.09s-4.2,10.28-5.53,15.7S252,52.21,248.88,56.85a24.75,24.75,0,0,1-34.34,6.84,24.39,24.39,0,0,1-5.33-4.81A19.74,19.74,0,0,0,232.66,54.16Z"/><circle class="cls-6" cx="381.71" cy="79.95" r="29.51"/><path class="cls-5" d="M361.52,99.72A10,10,0,0,0,361,101l-39.63,10.51-7-7-12,9.22,14.39,17.53,47.45-20.28a8.65,8.65,0,1,0-2.61-11.19Z"/><path class="cls-2" d="M304.59,121.88,281.8,99.08a11.15,11.15,0,1,1,15.75-15.8l0,0,22.79,22.8a3.71,3.71,0,0,1,0,5.26h0l-10.52,10.52a3.72,3.72,0,0,1-5.26,0Z"/><path class="cls-7" d="M393,77.14A1.9,1.9,0,0,1,394.82,79v1.88A1.88,1.88,0,0,1,393,82.76h-8.43v8.43a1.91,1.91,0,0,1-1.87,1.88h-1.88a1.82,1.82,0,0,1-1.32-.56,1.8,1.8,0,0,1-.55-1.32V82.76h-8.43a1.8,1.8,0,0,1-1.32-.55,1.82,1.82,0,0,1-.56-1.32V79a1.91,1.91,0,0,1,1.88-1.87h8.43V68.71a1.88,1.88,0,0,1,1.87-1.87h1.88a1.9,1.9,0,0,1,1.87,1.87v8.43Z"/><path class="cls-3" d="M382.16,425.2a67.33,67.33,0,0,0-24,21.62,71.11,71.11,0,0,0-12,30.75H314.41A15.59,15.59,0,0,1,299,462.19V446.82a31.18,31.18,0,0,1,30.75-30.75h30.75A29.52,29.52,0,0,1,382.16,425.2Zm-37-24.51a31.18,31.18,0,1,1,21.63-9.13A29.55,29.55,0,0,1,345.16,400.69Zm144.63,30.75a53.73,53.73,0,0,1,27.63,7.45,55.32,55.32,0,0,1,20.18,20.18,53.73,53.73,0,0,1,7.45,27.63v13.93A23,23,0,0,1,522,523.7H383.6a23,23,0,0,1-23.06-23.07V486.7A53.73,53.73,0,0,1,368,459.07a55.32,55.32,0,0,1,20.18-20.18,53.73,53.73,0,0,1,27.63-7.45h3.84a75.32,75.32,0,0,0,66.31,0Zm-37-15.37a53.82,53.82,0,1,1,26.9-7.21A53,53,0,0,1,452.8,416.07Zm123,0a31.18,31.18,0,0,1,30.75,30.75v15.37a15.59,15.59,0,0,1-15.37,15.38H559.47a71.25,71.25,0,0,0-12-30.75,67.33,67.33,0,0,0-24-21.62,29.52,29.52,0,0,1,21.62-9.13Zm-15.37-15.38a31.18,31.18,0,1,1,21.62-9.13A29.56,29.56,0,0,1,560.43,400.69Z"/><path class="cls-7" d="M862.77,260.52H615.55s-19-3-17,24.25,2,60.75,2,60.75-4.83,17,29.88,17,125.13-2,125.13-2Z"/><path class="cls-2" d="M914.91,334.77h-176a8,8,0,1,1,0-16h176a8,8,0,0,1,0,16Z"/><path class="cls-2" d="M799.91,300.77h-61a8,8,0,1,1,0-16h61a8,8,0,0,1,0,16Z"/><path class="cls-3" d="M932.55,258.52h-317a17,17,0,0,0-17,17v70a17,17,0,0,0,17,17h317a17,17,0,0,0,17-17v-70A17,17,0,0,0,932.55,258.52Zm15,87a15,15,0,0,1-15,15h-317a15,15,0,0,1-15-15v-70a15,15,0,0,1,15-15h317a15,15,0,0,1,15,15Z"/><circle class="cls-6" cx="947.55" cy="263.52" r="23"/><path class="cls-7" d="M955.74,261.47a1.38,1.38,0,0,1,1.36,1.37v1.36a1.38,1.38,0,0,1-1.36,1.37H949.6v6.14a1.36,1.36,0,0,1-.4,1,1.31,1.31,0,0,1-1,.4h-1.37a1.31,1.31,0,0,1-1-.4,1.32,1.32,0,0,1-.4-1v-6.14h-6.14A1.4,1.4,0,0,1,938,264.2v-1.36a1.4,1.4,0,0,1,1.37-1.37h6.14v-6.14a1.29,1.29,0,0,1,.4-1,1.32,1.32,0,0,1,1-.41h1.37a1.38,1.38,0,0,1,1.36,1.36v6.14Z"/><circle class="cls-6" cx="664.71" cy="309.69" r="35.95"/><path class="cls-3" d="M928.59,544c-.07-.92-.17-1.87-.3-2.83l-6.44-11.57-.26,0c-.52,0-3-.33-6.76-.65-4.3-.35-10.33-.76-17.14-1l-.61,0-2,0-.3,1.82,12.33,2.05a2.51,2.51,0,0,1,2.09,2.56c0,.11,0,.21,0,.32a2.49,2.49,0,0,1-2.87,2l-43.58-7.24q-3,.45-5.83,1.06c-9.82,2.11-17.51,5.75-20,11.74l-2.69,6.58c-3.56,8.75-7.91,19.48-11.85,29.22h0L820,583.89c-3.29,8.17-6.09,15.09-7.57,18.73,0,.11-.07.2-.11.31v0a4.6,4.6,0,0,0-.1,2.3h0a4.48,4.48,0,0,0,2.14,2.93l8.34,4.82a4.42,4.42,0,0,0,1.5.54,4.37,4.37,0,0,0,2.21-.19,4.51,4.51,0,0,0,2.42-2l27.52-47.08L860.6,557c4.77,2,44.87,18.11,61.27,5.6a16.94,16.94,0,0,0,6.24-10.19A29.8,29.8,0,0,0,928.59,544Z"/><path class="cls-7" d="M902.61,528.88a2.49,2.49,0,0,1-2.5,2.5h-107a5.51,5.51,0,0,1-5.5-5.5v-49a5.51,5.51,0,0,1,5.5-5.5h89a5.38,5.38,0,0,1,1.27.15,5.5,5.5,0,0,1,4.23,5.35v49.5h12.5a2.49,2.49,0,0,1,2.48,2.18C902.6,528.67,902.61,528.77,902.61,528.88Z"/><path class="cls-3" d="M943.93,540.42h-48c0,1.38-49.48,2.5-49.48,2.5a12.11,12.11,0,0,0-2.11,2,12.37,12.37,0,0,0-2.9,8v2a12.5,12.5,0,0,0,12.5,12.5h90a12.52,12.52,0,0,0,12.5-12.5v-2A12.52,12.52,0,0,0,943.93,540.42Z"/><rect class="cls-3" x="892.92" y="566.92" width="13" height="84"/><path class="cls-3" d="M942.92,650.46c0,1.41-19.7.55-44,.55s-44,.86-44-.55,19.7-12.54,44-12.54S942.92,649.06,942.92,650.46Z"/><circle class="cls-3" cx="903.59" cy="399.85" r="28"/><polygon class="cls-5" points="833.91 639.42 821.65 639.41 815.82 592.13 833.92 592.13 833.91 639.42"/><path class="cls-3" d="M812.9,635.91h23.64V650.8H798A14.89,14.89,0,0,1,812.9,635.91Z"/><polygon class="cls-5" points="814.78 632.57 803.08 628.9 811.67 582.04 828.93 587.46 814.78 632.57"/><path class="cls-3" d="M795.77,622.94,818.33,630h0l-4.46,14.2h0l-36.76-11.53h0a14.89,14.89,0,0,1,18.66-9.75Z"/><path class="cls-3" d="M911.09,532.22a37.56,37.56,0,0,0-1.52-7l-2.29-2.88-6-7.48h-.26c-.44,0-2.27.12-5.1.34h0c-1.75.14-3.89.32-6.32.55l-2,.2v10.44h12.5a2.49,2.49,0,0,1,2.48,2.18c0,.11,0,.21,0,.32a2.49,2.49,0,0,1-2.5,2.5h-72.6a28.43,28.43,0,0,0-2.66,2,14.93,14.93,0,0,0-5.25,7.86c-4.24,18.64-12,53.4-14.25,63.61a4.56,4.56,0,0,0,1.35,4.28,4.41,4.41,0,0,0,1.47.91l9,3.38a4.69,4.69,0,0,0,1.15.27h.42a4.53,4.53,0,0,0,4.21-2.9l7.12-18.68,11-28.8,4.34-11.39c5,1.18,47.23,10.52,61.36-4.53A15.85,15.85,0,0,0,910,542.3,20.71,20.71,0,0,0,911.09,532.22Z"/><path class="cls-6" d="M922.22,446.72c-.16-.19-.33-.38-.51-.56a24.46,24.46,0,0,0-21-7.39,79.61,79.61,0,0,0-9.91,2A25,25,0,0,0,879.65,447a24.44,24.44,0,0,0-7.41,18.2c0,1.37,0,2.77,0,4.19,0,.66,0,1.33,0,2h9.86a5.38,5.38,0,0,1,1.27.15,5.5,5.5,0,0,1,4.23,5.35V523.4l2,.58.61.19.68.21c2,.63,4,1.3,6,2h3.26a2.49,2.49,0,0,1,2.48,2.18l2,.81c2.31,1,4.5,1.92,6.51,2.85,2.71,1.24,5.12,2.42,7.14,3.45a4.59,4.59,0,0,0,2,.5,4.34,4.34,0,0,0,2.6-.86,4,4,0,0,0,.45-.37,4.5,4.5,0,0,0,1.37-4,128.59,128.59,0,0,1-.9-23.7c.28-6.65.88-13.47,1.66-20.06.42-3.57.89-7.07,1.38-10.44.47-3.22,1-6.31,1.46-9.23A24.58,24.58,0,0,0,922.22,446.72Z"/><path class="cls-6" d="M881.23,447.54a12.29,12.29,0,0,0-1.58-.55,11.51,11.51,0,0,0-13.54,6.53l-6.87,15.86-.86,2h23.73a5.38,5.38,0,0,1,1.27.15l.8-1.85,3-7A11.5,11.5,0,0,0,881.23,447.54Z"/><circle class="cls-5" cx="902.57" cy="406.4" r="24.56"/><path class="cls-3" d="M877.57,394.33A88.4,88.4,0,0,0,915.89,407l-4-4.84a29.72,29.72,0,0,0,9.17,1.82c3.13-.05,6.41-1.25,8.19-3.83a9.36,9.36,0,0,0,.63-8.63,17.77,17.77,0,0,0-5.57-7A33.12,33.12,0,0,0,893.43,379a19.76,19.76,0,0,0-9.22,5.91c-2.33,2.87-6.81,5.43-5.62,8.93Z"/><path class="cls-3" d="M906.7,374.51a75.7,75.7,0,0,0-27.46-17.76c-6.64-2.46-13.87-4-20.81-2.58s-13.5,6.2-15.44,13c-1.58,5.57,0,11.56,2.51,16.81s5.74,10.1,7.73,15.53a35.48,35.48,0,0,1-35.69,47.57c6.82.91,13.1,4.12,19.77,5.82s14.53,1.59,19.48-3.18c5.24-5.06,5.35-13.27,5.1-20.55q-.57-16.21-1.13-32.44c-.2-5.52-.36-11.21,1.63-16.36s6.71-9.65,12.23-9.61c4.19,0,7.89,2.57,11.24,5.07s6.91,5.17,11.07,5.54,8.93-2.71,8.61-6.88Z"/><path class="cls-5" d="M926.84,476.76l-14,.38-1,9.85-.23,2.28-22,9.86-2,.9v17.53l2-.57,6.32-1.8h0l27.84-7.93.32-.09A10.87,10.87,0,0,0,932,496.82l.07-11.63.06-8.57Z"/><path class="cls-6" d="M931.4,457.28a11.5,11.5,0,0,0-23,1.41l1.53,25A4.53,4.53,0,0,0,911.8,487a4.44,4.44,0,0,0,2.94.87l10.72-.66,3.25-.2a4.36,4.36,0,0,0,3.1-1.51,1.76,1.76,0,0,0,.24-.3,4.43,4.43,0,0,0,.88-3Z"/><circle class="cls-6" cx="837.61" cy="501.38" r="6"/><path class="cls-3" d="M890.9,524.38h-1.29v-.13l-2,.28v1.85h9.24Q893.94,525.33,890.9,524.38Zm0,0h-1.29v-.13l-2,.28v1.85h9.24Q893.94,525.33,890.9,524.38Zm9.21,0h-10.5v-47.5a7.51,7.51,0,0,0-5.43-7.2,7.2,7.2,0,0,0-2.07-.3h-89a7.52,7.52,0,0,0-7.5,7.5v49a7.51,7.51,0,0,0,7.5,7.5h107a4.5,4.5,0,0,0,4.47-4,4,4,0,0,0,0-.49A4.5,4.5,0,0,0,900.11,524.38Zm2.5,4.5a2.49,2.49,0,0,1-2.5,2.5h-107a5.51,5.51,0,0,1-5.5-5.5v-49a5.51,5.51,0,0,1,5.5-5.5h89a5.38,5.38,0,0,1,1.27.15,5.5,5.5,0,0,1,4.23,5.35v49.5h12.5a2.49,2.49,0,0,1,2.48,2.18C902.6,528.67,902.61,528.77,902.61,528.88Zm-11.71-4.5h-1.29v-.13l-2,.28v1.85h9.24Q893.94,525.33,890.9,524.38Z"/><path class="cls-3" d="M890.9,524.38h-1.29v-.13l-2,.28v1.85h9.24Q893.94,525.33,890.9,524.38Z"/><path class="cls-3" d="M890.9,524.38h-1.29v-.13l-2,.28v1.85h9.24Q893.94,525.33,890.9,524.38Z"/><path class="cls-3" d="M890.9,524.38h-1.29v-.13l-2,.28v1.85h9.24Q893.94,525.33,890.9,524.38Z"/></svg>