<svg width="382" height="212" viewBox="0 0 382 212" fill="none" xmlns="http://www.w3.org/2000/svg">
<rect width="382" height="212" fill="white"/>
<g filter="url(#filter0_d_1541_56277)">
<path d="M40 30C40 26.6863 42.6863 24 46 24H176C179.314 24 182 26.6863 182 30V182C182 185.314 179.314 188 176 188H46C42.6863 188 40 185.314 40 182V30Z" fill="white"/>
<path d="M64.126 55L68.004 45.2H69.292L73.114 55H71.952L70.79 51.92H66.422L65.26 55H64.126ZM66.758 51.066H70.468L68.606 46.18L66.758 51.066ZM77.0847 55.112C76.4501 55.112 75.8761 54.958 75.3628 54.65C74.8588 54.3327 74.4574 53.908 74.1588 53.376C73.8601 52.8347 73.7108 52.2373 73.7108 51.584C73.7108 50.9213 73.8601 50.324 74.1588 49.792C74.4574 49.26 74.8588 48.84 75.3628 48.532C75.8761 48.2147 76.4501 48.056 77.0847 48.056C77.5888 48.056 78.0694 48.1493 78.5268 48.336C78.9841 48.5227 79.3808 48.784 79.7168 49.12L79.0588 49.834C78.8161 49.5633 78.5221 49.3533 78.1768 49.204C77.8314 49.0547 77.4814 48.98 77.1268 48.98C76.6788 48.98 76.2728 49.0967 75.9088 49.33C75.5541 49.5633 75.2694 49.876 75.0548 50.268C74.8401 50.66 74.7328 51.0987 74.7328 51.584C74.7328 52.0693 74.8401 52.508 75.0548 52.9C75.2694 53.292 75.5541 53.6047 75.9088 53.838C76.2728 54.0713 76.6788 54.188 77.1268 54.188C77.4814 54.188 77.8314 54.1133 78.1768 53.964C78.5221 53.8053 78.8161 53.5953 79.0588 53.334L79.7168 54.048C79.3808 54.384 78.9841 54.6453 78.5268 54.832C78.0694 55.0187 77.5888 55.112 77.0847 55.112ZM83.8825 55.14C83.2945 55.14 82.8465 55 82.5385 54.72C82.2398 54.4307 82.0905 54.0153 82.0905 53.474V49.008H80.6765V48.168H82.0905V46.292L83.1125 46.054V48.168H85.0725V49.008H83.1125V53.208C83.1125 53.572 83.1872 53.8333 83.3365 53.992C83.4952 54.1507 83.7518 54.23 84.1065 54.23C84.2838 54.23 84.4425 54.216 84.5825 54.188C84.7225 54.16 84.8858 54.1133 85.0725 54.048V54.958C84.8858 55.0233 84.6898 55.07 84.4845 55.098C84.2792 55.126 84.0785 55.14 83.8825 55.14ZM86.5555 55V48.168H87.5775V55H86.5555ZM87.0735 46.474C86.8682 46.474 86.6909 46.404 86.5415 46.264C86.4015 46.1147 86.3315 45.942 86.3315 45.746C86.3315 45.55 86.4015 45.382 86.5415 45.242C86.6909 45.0927 86.8682 45.018 87.0735 45.018C87.2789 45.018 87.4515 45.0927 87.5915 45.242C87.7409 45.382 87.8155 45.55 87.8155 45.746C87.8155 45.942 87.7409 46.1147 87.5915 46.264C87.4515 46.404 87.2789 46.474 87.0735 46.474ZM92.697 55.112C92.0624 55.112 91.493 54.958 90.989 54.65C90.485 54.342 90.0884 53.922 89.799 53.39C89.5097 52.858 89.365 52.256 89.365 51.584C89.365 50.912 89.5097 50.31 89.799 49.778C90.0884 49.246 90.485 48.826 90.989 48.518C91.493 48.21 92.0624 48.056 92.697 48.056C93.3224 48.056 93.8824 48.21 94.377 48.518C94.881 48.826 95.2777 49.246 95.567 49.778C95.8564 50.31 96.001 50.912 96.001 51.584C96.001 52.256 95.8564 52.858 95.567 53.39C95.2777 53.922 94.881 54.342 94.377 54.65C93.8824 54.958 93.3224 55.112 92.697 55.112ZM92.683 54.216C93.131 54.216 93.5277 54.104 93.873 53.88C94.2184 53.6467 94.489 53.3293 94.685 52.928C94.8904 52.5267 94.993 52.0787 94.993 51.584C94.993 51.08 94.8904 50.632 94.685 50.24C94.489 49.8387 94.2184 49.526 93.873 49.302C93.5277 49.0687 93.131 48.952 92.683 48.952C92.235 48.952 91.8384 49.0687 91.493 49.302C91.1477 49.526 90.8724 49.8387 90.667 50.24C90.471 50.632 90.373 51.08 90.373 51.584C90.373 52.0787 90.471 52.5267 90.667 52.928C90.8724 53.3293 91.1477 53.6467 91.493 53.88C91.8384 54.104 92.235 54.216 92.683 54.216ZM97.7941 55V48.168H98.8161V49.274C99.0775 48.8633 99.3901 48.56 99.7541 48.364C100.118 48.1587 100.529 48.056 100.986 48.056C101.481 48.056 101.91 48.1633 102.274 48.378C102.647 48.5833 102.937 48.8773 103.142 49.26C103.357 49.6333 103.464 50.072 103.464 50.576V55H102.442V50.87C102.442 50.2633 102.274 49.7873 101.938 49.442C101.611 49.0873 101.168 48.91 100.608 48.91C100.235 48.91 99.8941 48.9987 99.5861 49.176C99.2781 49.3533 99.0215 49.6147 98.8161 49.96V55H97.7941ZM109.878 55V46.292L108.31 46.992V46.068L110.256 45.2H110.886V55H109.878Z" fill="#151515"/>
<path d="M64.126 92L68.004 82.2H69.292L73.114 92H71.952L70.79 88.92H66.422L65.26 92H64.126ZM66.758 88.066H70.468L68.606 83.18L66.758 88.066ZM77.0847 92.112C76.4501 92.112 75.8761 91.958 75.3628 91.65C74.8588 91.3327 74.4574 90.908 74.1588 90.376C73.8601 89.8347 73.7108 89.2373 73.7108 88.584C73.7108 87.9213 73.8601 87.324 74.1588 86.792C74.4574 86.26 74.8588 85.84 75.3628 85.532C75.8761 85.2147 76.4501 85.056 77.0847 85.056C77.5888 85.056 78.0694 85.1493 78.5268 85.336C78.9841 85.5227 79.3808 85.784 79.7168 86.12L79.0588 86.834C78.8161 86.5633 78.5221 86.3533 78.1768 86.204C77.8314 86.0547 77.4814 85.98 77.1268 85.98C76.6788 85.98 76.2728 86.0967 75.9088 86.33C75.5541 86.5633 75.2694 86.876 75.0548 87.268C74.8401 87.66 74.7328 88.0987 74.7328 88.584C74.7328 89.0693 74.8401 89.508 75.0548 89.9C75.2694 90.292 75.5541 90.6047 75.9088 90.838C76.2728 91.0713 76.6788 91.188 77.1268 91.188C77.4814 91.188 77.8314 91.1133 78.1768 90.964C78.5221 90.8053 78.8161 90.5953 79.0588 90.334L79.7168 91.048C79.3808 91.384 78.9841 91.6453 78.5268 91.832C78.0694 92.0187 77.5888 92.112 77.0847 92.112ZM83.8825 92.14C83.2945 92.14 82.8465 92 82.5385 91.72C82.2398 91.4307 82.0905 91.0153 82.0905 90.474V86.008H80.6765V85.168H82.0905V83.292L83.1125 83.054V85.168H85.0725V86.008H83.1125V90.208C83.1125 90.572 83.1872 90.8333 83.3365 90.992C83.4952 91.1507 83.7518 91.23 84.1065 91.23C84.2838 91.23 84.4425 91.216 84.5825 91.188C84.7225 91.16 84.8858 91.1133 85.0725 91.048V91.958C84.8858 92.0233 84.6898 92.07 84.4845 92.098C84.2792 92.126 84.0785 92.14 83.8825 92.14ZM86.5555 92V85.168H87.5775V92H86.5555ZM87.0735 83.474C86.8682 83.474 86.6909 83.404 86.5415 83.264C86.4015 83.1147 86.3315 82.942 86.3315 82.746C86.3315 82.55 86.4015 82.382 86.5415 82.242C86.6909 82.0927 86.8682 82.018 87.0735 82.018C87.2789 82.018 87.4515 82.0927 87.5915 82.242C87.7409 82.382 87.8155 82.55 87.8155 82.746C87.8155 82.942 87.7409 83.1147 87.5915 83.264C87.4515 83.404 87.2789 83.474 87.0735 83.474ZM92.697 92.112C92.0624 92.112 91.493 91.958 90.989 91.65C90.485 91.342 90.0884 90.922 89.799 90.39C89.5097 89.858 89.365 89.256 89.365 88.584C89.365 87.912 89.5097 87.31 89.799 86.778C90.0884 86.246 90.485 85.826 90.989 85.518C91.493 85.21 92.0624 85.056 92.697 85.056C93.3224 85.056 93.8824 85.21 94.377 85.518C94.881 85.826 95.2777 86.246 95.567 86.778C95.8564 87.31 96.001 87.912 96.001 88.584C96.001 89.256 95.8564 89.858 95.567 90.39C95.2777 90.922 94.881 91.342 94.377 91.65C93.8824 91.958 93.3224 92.112 92.697 92.112ZM92.683 91.216C93.131 91.216 93.5277 91.104 93.873 90.88C94.2184 90.6467 94.489 90.3293 94.685 89.928C94.8904 89.5267 94.993 89.0787 94.993 88.584C94.993 88.08 94.8904 87.632 94.685 87.24C94.489 86.8387 94.2184 86.526 93.873 86.302C93.5277 86.0687 93.131 85.952 92.683 85.952C92.235 85.952 91.8384 86.0687 91.493 86.302C91.1477 86.526 90.8724 86.8387 90.667 87.24C90.471 87.632 90.373 88.08 90.373 88.584C90.373 89.0787 90.471 89.5267 90.667 89.928C90.8724 90.3293 91.1477 90.6467 91.493 90.88C91.8384 91.104 92.235 91.216 92.683 91.216ZM97.7941 92V85.168H98.8161V86.274C99.0775 85.8633 99.3901 85.56 99.7541 85.364C100.118 85.1587 100.529 85.056 100.986 85.056C101.481 85.056 101.91 85.1633 102.274 85.378C102.647 85.5833 102.937 85.8773 103.142 86.26C103.357 86.6333 103.464 87.072 103.464 87.576V92H102.442V87.87C102.442 87.2633 102.274 86.7873 101.938 86.442C101.611 86.0873 101.168 85.91 100.608 85.91C100.235 85.91 99.8941 85.9987 99.5861 86.176C99.2781 86.3533 99.0215 86.6147 98.8161 86.96V92H97.7941ZM108.45 92V91.258L112.37 86.974C112.678 86.638 112.916 86.344 113.084 86.092C113.262 85.8307 113.383 85.588 113.448 85.364C113.523 85.14 113.56 84.902 113.56 84.65C113.56 84.1553 113.364 83.7493 112.972 83.432C112.59 83.1053 112.1 82.942 111.502 82.942C111.045 82.942 110.62 83.0307 110.228 83.208C109.836 83.3853 109.398 83.6933 108.912 84.132L108.324 83.432C108.838 82.9653 109.356 82.62 109.878 82.396C110.401 82.1627 110.947 82.046 111.516 82.046C112.104 82.046 112.627 82.158 113.084 82.382C113.542 82.5967 113.901 82.8953 114.162 83.278C114.424 83.6607 114.554 84.0993 114.554 84.594C114.554 84.9207 114.512 85.224 114.428 85.504C114.344 85.7747 114.195 86.0687 113.98 86.386C113.766 86.694 113.458 87.0673 113.056 87.506L109.71 91.132L114.764 91.118V92H108.45Z" fill="#151515"/>
<path d="M64.126 129L68.004 119.2H69.292L73.114 129H71.952L70.79 125.92H66.422L65.26 129H64.126ZM66.758 125.066H70.468L68.606 120.18L66.758 125.066ZM77.0847 129.112C76.4501 129.112 75.8761 128.958 75.3628 128.65C74.8588 128.333 74.4574 127.908 74.1588 127.376C73.8601 126.835 73.7108 126.237 73.7108 125.584C73.7108 124.921 73.8601 124.324 74.1588 123.792C74.4574 123.26 74.8588 122.84 75.3628 122.532C75.8761 122.215 76.4501 122.056 77.0847 122.056C77.5888 122.056 78.0694 122.149 78.5268 122.336C78.9841 122.523 79.3808 122.784 79.7168 123.12L79.0588 123.834C78.8161 123.563 78.5221 123.353 78.1768 123.204C77.8314 123.055 77.4814 122.98 77.1268 122.98C76.6788 122.98 76.2728 123.097 75.9088 123.33C75.5541 123.563 75.2694 123.876 75.0548 124.268C74.8401 124.66 74.7328 125.099 74.7328 125.584C74.7328 126.069 74.8401 126.508 75.0548 126.9C75.2694 127.292 75.5541 127.605 75.9088 127.838C76.2728 128.071 76.6788 128.188 77.1268 128.188C77.4814 128.188 77.8314 128.113 78.1768 127.964C78.5221 127.805 78.8161 127.595 79.0588 127.334L79.7168 128.048C79.3808 128.384 78.9841 128.645 78.5268 128.832C78.0694 129.019 77.5888 129.112 77.0847 129.112ZM83.8825 129.14C83.2945 129.14 82.8465 129 82.5385 128.72C82.2398 128.431 82.0905 128.015 82.0905 127.474V123.008H80.6765V122.168H82.0905V120.292L83.1125 120.054V122.168H85.0725V123.008H83.1125V127.208C83.1125 127.572 83.1872 127.833 83.3365 127.992C83.4952 128.151 83.7518 128.23 84.1065 128.23C84.2838 128.23 84.4425 128.216 84.5825 128.188C84.7225 128.16 84.8858 128.113 85.0725 128.048V128.958C84.8858 129.023 84.6898 129.07 84.4845 129.098C84.2792 129.126 84.0785 129.14 83.8825 129.14ZM86.5555 129V122.168H87.5775V129H86.5555ZM87.0735 120.474C86.8682 120.474 86.6909 120.404 86.5415 120.264C86.4015 120.115 86.3315 119.942 86.3315 119.746C86.3315 119.55 86.4015 119.382 86.5415 119.242C86.6909 119.093 86.8682 119.018 87.0735 119.018C87.2789 119.018 87.4515 119.093 87.5915 119.242C87.7409 119.382 87.8155 119.55 87.8155 119.746C87.8155 119.942 87.7409 120.115 87.5915 120.264C87.4515 120.404 87.2789 120.474 87.0735 120.474ZM92.697 129.112C92.0624 129.112 91.493 128.958 90.989 128.65C90.485 128.342 90.0884 127.922 89.799 127.39C89.5097 126.858 89.365 126.256 89.365 125.584C89.365 124.912 89.5097 124.31 89.799 123.778C90.0884 123.246 90.485 122.826 90.989 122.518C91.493 122.21 92.0624 122.056 92.697 122.056C93.3224 122.056 93.8824 122.21 94.377 122.518C94.881 122.826 95.2777 123.246 95.567 123.778C95.8564 124.31 96.001 124.912 96.001 125.584C96.001 126.256 95.8564 126.858 95.567 127.39C95.2777 127.922 94.881 128.342 94.377 128.65C93.8824 128.958 93.3224 129.112 92.697 129.112ZM92.683 128.216C93.131 128.216 93.5277 128.104 93.873 127.88C94.2184 127.647 94.489 127.329 94.685 126.928C94.8904 126.527 94.993 126.079 94.993 125.584C94.993 125.08 94.8904 124.632 94.685 124.24C94.489 123.839 94.2184 123.526 93.873 123.302C93.5277 123.069 93.131 122.952 92.683 122.952C92.235 122.952 91.8384 123.069 91.493 123.302C91.1477 123.526 90.8724 123.839 90.667 124.24C90.471 124.632 90.373 125.08 90.373 125.584C90.373 126.079 90.471 126.527 90.667 126.928C90.8724 127.329 91.1477 127.647 91.493 127.88C91.8384 128.104 92.235 128.216 92.683 128.216ZM97.7941 129V122.168H98.8161V123.274C99.0775 122.863 99.3901 122.56 99.7541 122.364C100.118 122.159 100.529 122.056 100.986 122.056C101.481 122.056 101.91 122.163 102.274 122.378C102.647 122.583 102.937 122.877 103.142 123.26C103.357 123.633 103.464 124.072 103.464 124.576V129H102.442V124.87C102.442 124.263 102.274 123.787 101.938 123.442C101.611 123.087 101.168 122.91 100.608 122.91C100.235 122.91 99.8941 122.999 99.5861 123.176C99.2781 123.353 99.0215 123.615 98.8161 123.96V129H97.7941ZM111.684 129.154C111.012 129.154 110.382 129.037 109.794 128.804C109.216 128.571 108.702 128.225 108.254 127.768L108.926 127.11C109.337 127.521 109.757 127.819 110.186 128.006C110.625 128.183 111.12 128.272 111.67 128.272C112.146 128.272 112.566 128.188 112.93 128.02C113.304 127.852 113.593 127.619 113.798 127.32C114.004 127.021 114.106 126.681 114.106 126.298C114.106 125.934 114.013 125.612 113.826 125.332C113.649 125.043 113.402 124.819 113.084 124.66C112.767 124.501 112.403 124.422 111.992 124.422H110.83V123.554H111.95C112.482 123.554 112.912 123.391 113.238 123.064C113.574 122.737 113.742 122.313 113.742 121.79C113.742 121.445 113.649 121.132 113.462 120.852C113.276 120.572 113.019 120.353 112.692 120.194C112.375 120.026 112.016 119.942 111.614 119.942C111.11 119.942 110.658 120.035 110.256 120.222C109.864 120.399 109.463 120.703 109.052 121.132L108.38 120.46C108.819 119.993 109.314 119.643 109.864 119.41C110.415 119.167 111.003 119.046 111.628 119.046C112.226 119.046 112.758 119.163 113.224 119.396C113.7 119.629 114.074 119.951 114.344 120.362C114.615 120.763 114.75 121.221 114.75 121.734C114.75 122.247 114.582 122.709 114.246 123.12C113.91 123.521 113.467 123.801 112.916 123.96C113.579 124.109 114.111 124.399 114.512 124.828C114.914 125.257 115.114 125.757 115.114 126.326C115.114 126.867 114.965 127.353 114.666 127.782C114.377 128.211 113.971 128.547 113.448 128.79C112.935 129.033 112.347 129.154 111.684 129.154Z" fill="#A3A3A3"/>
<path d="M64.126 166L68.004 156.2H69.292L73.114 166H71.952L70.79 162.92H66.422L65.26 166H64.126ZM66.758 162.066H70.468L68.606 157.18L66.758 162.066ZM77.0847 166.112C76.4501 166.112 75.8761 165.958 75.3628 165.65C74.8588 165.333 74.4574 164.908 74.1588 164.376C73.8601 163.835 73.7108 163.237 73.7108 162.584C73.7108 161.921 73.8601 161.324 74.1588 160.792C74.4574 160.26 74.8588 159.84 75.3628 159.532C75.8761 159.215 76.4501 159.056 77.0847 159.056C77.5888 159.056 78.0694 159.149 78.5268 159.336C78.9841 159.523 79.3808 159.784 79.7168 160.12L79.0588 160.834C78.8161 160.563 78.5221 160.353 78.1768 160.204C77.8314 160.055 77.4814 159.98 77.1268 159.98C76.6788 159.98 76.2728 160.097 75.9088 160.33C75.5541 160.563 75.2694 160.876 75.0548 161.268C74.8401 161.66 74.7328 162.099 74.7328 162.584C74.7328 163.069 74.8401 163.508 75.0548 163.9C75.2694 164.292 75.5541 164.605 75.9088 164.838C76.2728 165.071 76.6788 165.188 77.1268 165.188C77.4814 165.188 77.8314 165.113 78.1768 164.964C78.5221 164.805 78.8161 164.595 79.0588 164.334L79.7168 165.048C79.3808 165.384 78.9841 165.645 78.5268 165.832C78.0694 166.019 77.5888 166.112 77.0847 166.112ZM83.8825 166.14C83.2945 166.14 82.8465 166 82.5385 165.72C82.2398 165.431 82.0905 165.015 82.0905 164.474V160.008H80.6765V159.168H82.0905V157.292L83.1125 157.054V159.168H85.0725V160.008H83.1125V164.208C83.1125 164.572 83.1872 164.833 83.3365 164.992C83.4952 165.151 83.7518 165.23 84.1065 165.23C84.2838 165.23 84.4425 165.216 84.5825 165.188C84.7225 165.16 84.8858 165.113 85.0725 165.048V165.958C84.8858 166.023 84.6898 166.07 84.4845 166.098C84.2792 166.126 84.0785 166.14 83.8825 166.14ZM86.5555 166V159.168H87.5775V166H86.5555ZM87.0735 157.474C86.8682 157.474 86.6909 157.404 86.5415 157.264C86.4015 157.115 86.3315 156.942 86.3315 156.746C86.3315 156.55 86.4015 156.382 86.5415 156.242C86.6909 156.093 86.8682 156.018 87.0735 156.018C87.2789 156.018 87.4515 156.093 87.5915 156.242C87.7409 156.382 87.8155 156.55 87.8155 156.746C87.8155 156.942 87.7409 157.115 87.5915 157.264C87.4515 157.404 87.2789 157.474 87.0735 157.474ZM92.697 166.112C92.0624 166.112 91.493 165.958 90.989 165.65C90.485 165.342 90.0884 164.922 89.799 164.39C89.5097 163.858 89.365 163.256 89.365 162.584C89.365 161.912 89.5097 161.31 89.799 160.778C90.0884 160.246 90.485 159.826 90.989 159.518C91.493 159.21 92.0624 159.056 92.697 159.056C93.3224 159.056 93.8824 159.21 94.377 159.518C94.881 159.826 95.2777 160.246 95.567 160.778C95.8564 161.31 96.001 161.912 96.001 162.584C96.001 163.256 95.8564 163.858 95.567 164.39C95.2777 164.922 94.881 165.342 94.377 165.65C93.8824 165.958 93.3224 166.112 92.697 166.112ZM92.683 165.216C93.131 165.216 93.5277 165.104 93.873 164.88C94.2184 164.647 94.489 164.329 94.685 163.928C94.8904 163.527 94.993 163.079 94.993 162.584C94.993 162.08 94.8904 161.632 94.685 161.24C94.489 160.839 94.2184 160.526 93.873 160.302C93.5277 160.069 93.131 159.952 92.683 159.952C92.235 159.952 91.8384 160.069 91.493 160.302C91.1477 160.526 90.8724 160.839 90.667 161.24C90.471 161.632 90.373 162.08 90.373 162.584C90.373 163.079 90.471 163.527 90.667 163.928C90.8724 164.329 91.1477 164.647 91.493 164.88C91.8384 165.104 92.235 165.216 92.683 165.216ZM97.7941 166V159.168H98.8161V160.274C99.0775 159.863 99.3901 159.56 99.7541 159.364C100.118 159.159 100.529 159.056 100.986 159.056C101.481 159.056 101.91 159.163 102.274 159.378C102.647 159.583 102.937 159.877 103.142 160.26C103.357 160.633 103.464 161.072 103.464 161.576V166H102.442V161.87C102.442 161.263 102.274 160.787 101.938 160.442C101.611 160.087 101.168 159.91 100.608 159.91C100.235 159.91 99.8941 159.999 99.5861 160.176C99.2781 160.353 99.0215 160.615 98.8161 160.96V166H97.7941ZM113.574 166V163.382H108.282V162.584L113.49 156.2H114.568V162.5H115.926V163.382H114.568V166H113.574ZM109.458 162.5H113.574V157.418L109.458 162.5Z" fill="#151515"/>
</g>
<g filter="url(#filter1_d_1541_56277)">
<path d="M127 124L142 113.175V134.825L127 124Z" fill="#292929"/>
<path d="M142 86C142 82.6863 144.686 80 148 80H336C339.314 80 342 82.6863 342 86V162C342 165.314 339.314 168 336 168H148C144.686 168 142 165.314 142 162V86Z" fill="#292929"/>
<path d="M168.826 101V97.568L165.562 92.6H166.642L169.318 96.764L172.006 92.6H173.026L169.75 97.592V101H168.826ZM175.414 101.096C174.87 101.096 174.382 100.964 173.95 100.7C173.518 100.436 173.178 100.076 172.93 99.62C172.682 99.164 172.558 98.648 172.558 98.072C172.558 97.496 172.682 96.98 172.93 96.524C173.178 96.068 173.518 95.708 173.95 95.444C174.382 95.18 174.87 95.048 175.414 95.048C175.95 95.048 176.43 95.18 176.854 95.444C177.286 95.708 177.626 96.068 177.874 96.524C178.122 96.98 178.246 97.496 178.246 98.072C178.246 98.648 178.122 99.164 177.874 99.62C177.626 100.076 177.286 100.436 176.854 100.7C176.43 100.964 175.95 101.096 175.414 101.096ZM175.402 100.328C175.786 100.328 176.126 100.232 176.422 100.04C176.718 99.84 176.95 99.568 177.118 99.224C177.294 98.88 177.382 98.496 177.382 98.072C177.382 97.64 177.294 97.256 177.118 96.92C176.95 96.576 176.718 96.308 176.422 96.116C176.126 95.916 175.786 95.816 175.402 95.816C175.018 95.816 174.678 95.916 174.382 96.116C174.086 96.308 173.85 96.576 173.674 96.92C173.506 97.256 173.422 97.64 173.422 98.072C173.422 98.496 173.506 98.88 173.674 99.224C173.85 99.568 174.086 99.84 174.382 100.04C174.678 100.232 175.018 100.328 175.402 100.328ZM181.871 101.096C181.455 101.096 181.087 101.004 180.767 100.82C180.447 100.636 180.195 100.38 180.011 100.052C179.835 99.724 179.747 99.348 179.747 98.924V95.144H180.635V98.672C180.635 99.192 180.775 99.604 181.055 99.908C181.335 100.212 181.715 100.364 182.195 100.364C182.523 100.364 182.815 100.288 183.071 100.136C183.335 99.984 183.555 99.764 183.731 99.476V95.144H184.607V101H183.731V100.052C183.507 100.396 183.239 100.656 182.927 100.832C182.623 101.008 182.271 101.096 181.871 101.096ZM191.641 101.084C191.137 101.084 190.681 100.952 190.273 100.688C189.865 100.416 189.541 100.056 189.301 99.608C189.061 99.152 188.941 98.644 188.941 98.084C188.941 97.516 189.061 97.008 189.301 96.56C189.549 96.104 189.881 95.744 190.297 95.48C190.713 95.208 191.177 95.072 191.689 95.072C192.049 95.072 192.385 95.144 192.697 95.288C193.009 95.424 193.281 95.624 193.513 95.888V92.336L194.389 92.156V101H193.513V100.22C193.289 100.5 193.017 100.716 192.697 100.868C192.377 101.012 192.025 101.084 191.641 101.084ZM191.857 100.316C192.201 100.316 192.517 100.248 192.805 100.112C193.093 99.976 193.329 99.784 193.513 99.536V96.632C193.321 96.384 193.077 96.192 192.781 96.056C192.493 95.912 192.185 95.84 191.857 95.84C191.465 95.84 191.113 95.936 190.801 96.128C190.497 96.32 190.253 96.584 190.069 96.92C189.893 97.256 189.805 97.64 189.805 98.072C189.805 98.496 189.893 98.88 190.069 99.224C190.253 99.56 190.497 99.828 190.801 100.028C191.113 100.22 191.465 100.316 191.857 100.316ZM198.781 101.096C198.237 101.096 197.749 100.964 197.317 100.7C196.885 100.436 196.545 100.076 196.297 99.62C196.049 99.164 195.925 98.648 195.925 98.072C195.925 97.496 196.049 96.98 196.297 96.524C196.545 96.068 196.885 95.708 197.317 95.444C197.749 95.18 198.237 95.048 198.781 95.048C199.317 95.048 199.797 95.18 200.221 95.444C200.653 95.708 200.993 96.068 201.241 96.524C201.489 96.98 201.613 97.496 201.613 98.072C201.613 98.648 201.489 99.164 201.241 99.62C200.993 100.076 200.653 100.436 200.221 100.7C199.797 100.964 199.317 101.096 198.781 101.096ZM198.769 100.328C199.153 100.328 199.493 100.232 199.789 100.04C200.085 99.84 200.317 99.568 200.485 99.224C200.661 98.88 200.749 98.496 200.749 98.072C200.749 97.64 200.661 97.256 200.485 96.92C200.317 96.576 200.085 96.308 199.789 96.116C199.493 95.916 199.153 95.816 198.769 95.816C198.385 95.816 198.045 95.916 197.749 96.116C197.453 96.308 197.217 96.576 197.041 96.92C196.873 97.256 196.789 97.64 196.789 98.072C196.789 98.496 196.873 98.88 197.041 99.224C197.217 99.568 197.453 99.84 197.749 100.04C198.045 100.232 198.385 100.328 198.769 100.328ZM205.951 101V95.144H206.827V96.092C207.051 95.74 207.319 95.48 207.631 95.312C207.943 95.136 208.295 95.048 208.687 95.048C209.111 95.048 209.479 95.14 209.791 95.324C210.111 95.5 210.359 95.752 210.535 96.08C210.719 96.4 210.811 96.776 210.811 97.208V101H209.935V97.46C209.935 96.94 209.791 96.532 209.503 96.236C209.223 95.932 208.843 95.78 208.363 95.78C208.043 95.78 207.751 95.856 207.487 96.008C207.223 96.16 207.003 96.384 206.827 96.68V101H205.951ZM215.164 101.096C214.62 101.096 214.132 100.964 213.7 100.7C213.268 100.436 212.928 100.076 212.68 99.62C212.432 99.164 212.308 98.648 212.308 98.072C212.308 97.496 212.432 96.98 212.68 96.524C212.928 96.068 213.268 95.708 213.7 95.444C214.132 95.18 214.62 95.048 215.164 95.048C215.7 95.048 216.18 95.18 216.604 95.444C217.036 95.708 217.376 96.068 217.624 96.524C217.872 96.98 217.996 97.496 217.996 98.072C217.996 98.648 217.872 99.164 217.624 99.62C217.376 100.076 217.036 100.436 216.604 100.7C216.18 100.964 215.7 101.096 215.164 101.096ZM215.152 100.328C215.536 100.328 215.876 100.232 216.172 100.04C216.468 99.84 216.7 99.568 216.868 99.224C217.044 98.88 217.132 98.496 217.132 98.072C217.132 97.64 217.044 97.256 216.868 96.92C216.7 96.576 216.468 96.308 216.172 96.116C215.876 95.916 215.536 95.816 215.152 95.816C214.768 95.816 214.428 95.916 214.132 96.116C213.836 96.308 213.6 96.576 213.424 96.92C213.256 97.256 213.172 97.64 213.172 98.072C213.172 98.496 213.256 98.88 213.424 99.224C213.6 99.568 213.836 99.84 214.132 100.04C214.428 100.232 214.768 100.328 215.152 100.328ZM221.402 101.12C220.898 101.12 220.514 101 220.25 100.76C219.994 100.512 219.866 100.156 219.866 99.692V95.864H218.654V95.144H219.866V93.536L220.742 93.332V95.144H222.422V95.864H220.742V99.464C220.742 99.776 220.806 100 220.934 100.136C221.07 100.272 221.29 100.34 221.594 100.34C221.746 100.34 221.882 100.328 222.002 100.304C222.122 100.28 222.262 100.24 222.422 100.184V100.964C222.262 101.02 222.094 101.06 221.918 101.084C221.742 101.108 221.57 101.12 221.402 101.12ZM226.505 101V92.336L227.381 92.156V96.092C227.605 95.74 227.873 95.48 228.185 95.312C228.497 95.136 228.849 95.048 229.241 95.048C229.665 95.048 230.033 95.14 230.345 95.324C230.665 95.5 230.913 95.752 231.089 96.08C231.273 96.4 231.365 96.776 231.365 97.208V101H230.489V97.46C230.489 96.94 230.345 96.532 230.057 96.236C229.777 95.932 229.397 95.78 228.917 95.78C228.597 95.78 228.305 95.856 228.041 96.008C227.777 96.16 227.557 96.384 227.381 96.68V101H226.505ZM234.939 101.108C234.523 101.108 234.155 101.032 233.835 100.88C233.515 100.728 233.263 100.52 233.079 100.256C232.903 99.984 232.815 99.672 232.815 99.32C232.815 98.968 232.907 98.664 233.091 98.408C233.275 98.144 233.531 97.94 233.859 97.796C234.187 97.652 234.571 97.58 235.011 97.58C235.347 97.58 235.663 97.616 235.959 97.688C236.263 97.76 236.543 97.876 236.799 98.036V97.232C236.799 96.752 236.671 96.392 236.415 96.152C236.159 95.904 235.783 95.78 235.287 95.78C235.015 95.78 234.735 95.82 234.447 95.9C234.167 95.98 233.855 96.108 233.511 96.284L233.187 95.612C233.971 95.236 234.707 95.048 235.395 95.048C236.123 95.048 236.683 95.228 237.075 95.588C237.467 95.94 237.663 96.448 237.663 97.112V101H236.799V100.316C236.543 100.58 236.259 100.78 235.947 100.916C235.635 101.044 235.299 101.108 234.939 101.108ZM233.655 99.296C233.655 99.64 233.787 99.916 234.051 100.124C234.323 100.332 234.679 100.436 235.119 100.436C235.447 100.436 235.747 100.38 236.019 100.268C236.299 100.156 236.559 99.988 236.799 99.764V98.636C236.551 98.492 236.295 98.388 236.031 98.324C235.767 98.252 235.471 98.216 235.143 98.216C234.695 98.216 234.335 98.316 234.063 98.516C233.791 98.708 233.655 98.968 233.655 99.296ZM240.889 101L238.489 95.144H239.437L241.333 99.908L243.205 95.144H244.141L241.729 101H240.889ZM247.685 101.12C247.141 101.12 246.649 100.988 246.209 100.724C245.769 100.452 245.421 100.088 245.165 99.632C244.909 99.168 244.781 98.648 244.781 98.072C244.781 97.496 244.901 96.98 245.141 96.524C245.389 96.068 245.721 95.708 246.137 95.444C246.553 95.18 247.017 95.048 247.529 95.048C248.049 95.048 248.509 95.18 248.909 95.444C249.317 95.7 249.637 96.052 249.869 96.5C250.109 96.94 250.229 97.44 250.229 98V98.264H245.633C245.665 98.664 245.773 99.024 245.957 99.344C246.149 99.656 246.397 99.904 246.701 100.088C247.013 100.264 247.353 100.352 247.721 100.352C248.025 100.352 248.317 100.3 248.597 100.196C248.885 100.084 249.129 99.936 249.329 99.752L249.881 100.34C249.545 100.604 249.197 100.8 248.837 100.928C248.477 101.056 248.093 101.12 247.685 101.12ZM245.657 97.64H249.365C249.325 97.288 249.217 96.976 249.041 96.704C248.873 96.424 248.657 96.204 248.393 96.044C248.137 95.884 247.849 95.804 247.529 95.804C247.209 95.804 246.917 95.884 246.653 96.044C246.389 96.196 246.169 96.412 245.993 96.692C245.825 96.964 245.713 97.28 245.657 97.64ZM256.757 101.12C256.253 101.12 255.869 101 255.605 100.76C255.349 100.512 255.221 100.156 255.221 99.692V95.864H254.009V95.144H255.221V93.536L256.097 93.332V95.144H257.777V95.864H256.097V99.464C256.097 99.776 256.161 100 256.289 100.136C256.425 100.272 256.645 100.34 256.949 100.34C257.101 100.34 257.237 100.328 257.357 100.304C257.477 100.28 257.617 100.24 257.777 100.184V100.964C257.617 101.02 257.449 101.06 257.273 101.084C257.097 101.108 256.925 101.12 256.757 101.12ZM259.06 101V92.336L259.936 92.156V96.092C260.16 95.74 260.428 95.48 260.74 95.312C261.052 95.136 261.404 95.048 261.796 95.048C262.22 95.048 262.588 95.14 262.9 95.324C263.22 95.5 263.468 95.752 263.644 96.08C263.828 96.4 263.92 96.776 263.92 97.208V101H263.044V97.46C263.044 96.94 262.9 96.532 262.612 96.236C262.332 95.932 261.952 95.78 261.472 95.78C261.152 95.78 260.86 95.856 260.596 96.008C260.332 96.16 260.112 96.384 259.936 96.68V101H259.06ZM268.321 101.12C267.777 101.12 267.285 100.988 266.845 100.724C266.405 100.452 266.057 100.088 265.801 99.632C265.545 99.168 265.417 98.648 265.417 98.072C265.417 97.496 265.537 96.98 265.777 96.524C266.025 96.068 266.357 95.708 266.773 95.444C267.189 95.18 267.653 95.048 268.165 95.048C268.685 95.048 269.145 95.18 269.545 95.444C269.953 95.7 270.273 96.052 270.505 96.5C270.745 96.94 270.865 97.44 270.865 98V98.264H266.269C266.301 98.664 266.409 99.024 266.593 99.344C266.785 99.656 267.033 99.904 267.337 100.088C267.649 100.264 267.989 100.352 268.357 100.352C268.661 100.352 268.953 100.3 269.233 100.196C269.521 100.084 269.765 99.936 269.965 99.752L270.517 100.34C270.181 100.604 269.833 100.8 269.473 100.928C269.113 101.056 268.729 101.12 268.321 101.12ZM266.293 97.64H270.001C269.961 97.288 269.853 96.976 269.677 96.704C269.509 96.424 269.293 96.204 269.029 96.044C268.773 95.884 268.485 95.804 268.165 95.804C267.845 95.804 267.553 95.884 267.289 96.044C267.025 96.196 266.805 96.412 266.629 96.692C266.461 96.964 266.349 97.28 266.293 97.64ZM275.162 101V95.144H276.038V96.344C276.19 95.936 276.406 95.62 276.686 95.396C276.974 95.164 277.302 95.048 277.67 95.048C277.774 95.048 277.87 95.056 277.958 95.072C278.046 95.08 278.134 95.1 278.222 95.132V95.924C278.126 95.892 278.022 95.868 277.91 95.852C277.806 95.828 277.706 95.816 277.61 95.816C277.25 95.816 276.934 95.92 276.662 96.128C276.398 96.336 276.19 96.628 276.038 97.004V101H275.162ZM281.657 101.12C281.113 101.12 280.621 100.988 280.181 100.724C279.741 100.452 279.393 100.088 279.137 99.632C278.881 99.168 278.753 98.648 278.753 98.072C278.753 97.496 278.873 96.98 279.113 96.524C279.361 96.068 279.693 95.708 280.109 95.444C280.525 95.18 280.989 95.048 281.501 95.048C282.021 95.048 282.481 95.18 282.881 95.444C283.289 95.7 283.609 96.052 283.841 96.5C284.081 96.94 284.201 97.44 284.201 98V98.264H279.605C279.637 98.664 279.745 99.024 279.929 99.344C280.121 99.656 280.369 99.904 280.673 100.088C280.985 100.264 281.325 100.352 281.693 100.352C281.997 100.352 282.289 100.3 282.569 100.196C282.857 100.084 283.101 99.936 283.301 99.752L283.853 100.34C283.517 100.604 283.169 100.8 282.809 100.928C282.449 101.056 282.065 101.12 281.657 101.12ZM279.629 97.64H283.337C283.297 97.288 283.189 96.976 283.013 96.704C282.845 96.424 282.629 96.204 282.365 96.044C282.109 95.884 281.821 95.804 281.501 95.804C281.181 95.804 280.889 95.884 280.625 96.044C280.361 96.196 280.141 96.412 279.965 96.692C279.797 96.964 279.685 97.28 279.629 97.64ZM290.005 103.508V100.22C289.781 100.5 289.509 100.716 289.189 100.868C288.869 101.012 288.517 101.084 288.133 101.084C287.629 101.084 287.173 100.952 286.765 100.688C286.357 100.416 286.033 100.056 285.793 99.608C285.553 99.152 285.433 98.644 285.433 98.084C285.433 97.516 285.553 97.008 285.793 96.56C286.041 96.104 286.373 95.744 286.789 95.48C287.205 95.208 287.669 95.072 288.181 95.072C288.541 95.072 288.877 95.144 289.189 95.288C289.501 95.424 289.773 95.624 290.005 95.888V95.144H290.881V103.508H290.005ZM288.349 100.316C288.693 100.316 289.009 100.248 289.297 100.112C289.585 99.976 289.821 99.784 290.005 99.536V96.632C289.813 96.384 289.569 96.192 289.273 96.056C288.985 95.912 288.677 95.84 288.349 95.84C287.957 95.84 287.605 95.936 287.293 96.128C286.989 96.32 286.745 96.584 286.561 96.92C286.385 97.256 286.297 97.64 286.297 98.072C286.297 98.496 286.385 98.88 286.561 99.224C286.745 99.56 286.989 99.828 287.293 100.028C287.605 100.22 287.957 100.316 288.349 100.316ZM294.769 101.096C294.353 101.096 293.985 101.004 293.665 100.82C293.345 100.636 293.093 100.38 292.909 100.052C292.733 99.724 292.645 99.348 292.645 98.924V95.144H293.533V98.672C293.533 99.192 293.673 99.604 293.953 99.908C294.233 100.212 294.613 100.364 295.093 100.364C295.421 100.364 295.713 100.288 295.969 100.136C296.233 99.984 296.453 99.764 296.629 99.476V95.144H297.505V101H296.629V100.052C296.405 100.396 296.137 100.656 295.825 100.832C295.521 101.008 295.169 101.096 294.769 101.096ZM299.29 101V95.144H300.166V101H299.29ZM299.734 93.692C299.558 93.692 299.406 93.632 299.278 93.512C299.158 93.384 299.098 93.236 299.098 93.068C299.098 92.9 299.158 92.756 299.278 92.636C299.406 92.508 299.558 92.444 299.734 92.444C299.91 92.444 300.058 92.508 300.178 92.636C300.306 92.756 300.37 92.9 300.37 93.068C300.37 93.236 300.306 93.384 300.178 93.512C300.058 93.632 299.91 93.692 299.734 93.692ZM301.963 101V95.144H302.839V96.344C302.991 95.936 303.207 95.62 303.487 95.396C303.775 95.164 304.103 95.048 304.471 95.048C304.575 95.048 304.671 95.056 304.759 95.072C304.847 95.08 304.935 95.1 305.023 95.132V95.924C304.927 95.892 304.823 95.868 304.711 95.852C304.607 95.828 304.507 95.816 304.411 95.816C304.051 95.816 303.735 95.92 303.463 96.128C303.199 96.336 302.991 96.628 302.839 97.004V101H301.963ZM308.458 101.12C307.914 101.12 307.422 100.988 306.982 100.724C306.542 100.452 306.194 100.088 305.938 99.632C305.682 99.168 305.554 98.648 305.554 98.072C305.554 97.496 305.674 96.98 305.914 96.524C306.162 96.068 306.494 95.708 306.91 95.444C307.326 95.18 307.79 95.048 308.302 95.048C308.822 95.048 309.282 95.18 309.682 95.444C310.09 95.7 310.41 96.052 310.642 96.5C310.882 96.94 311.002 97.44 311.002 98V98.264H306.406C306.438 98.664 306.546 99.024 306.73 99.344C306.922 99.656 307.17 99.904 307.474 100.088C307.786 100.264 308.126 100.352 308.494 100.352C308.798 100.352 309.09 100.3 309.37 100.196C309.658 100.084 309.902 99.936 310.102 99.752L310.654 100.34C310.318 100.604 309.97 100.8 309.61 100.928C309.25 101.056 308.866 101.12 308.458 101.12ZM306.43 97.64H310.138C310.098 97.288 309.99 96.976 309.814 96.704C309.646 96.424 309.43 96.204 309.166 96.044C308.91 95.884 308.622 95.804 308.302 95.804C307.982 95.804 307.69 95.884 307.426 96.044C307.162 96.196 306.942 96.412 306.766 96.692C306.598 96.964 306.486 97.28 306.43 97.64ZM314.934 101.084C314.43 101.084 313.974 100.952 313.566 100.688C313.158 100.416 312.834 100.056 312.594 99.608C312.354 99.152 312.234 98.644 312.234 98.084C312.234 97.516 312.354 97.008 312.594 96.56C312.842 96.104 313.174 95.744 313.59 95.48C314.006 95.208 314.47 95.072 314.982 95.072C315.342 95.072 315.678 95.144 315.99 95.288C316.302 95.424 316.574 95.624 316.806 95.888V92.336L317.682 92.156V101H316.806V100.22C316.582 100.5 316.31 100.716 315.99 100.868C315.67 101.012 315.318 101.084 314.934 101.084ZM315.15 100.316C315.494 100.316 315.81 100.248 316.098 100.112C316.386 99.976 316.622 99.784 316.806 99.536V96.632C316.614 96.384 316.37 96.192 316.074 96.056C315.786 95.912 315.478 95.84 315.15 95.84C314.758 95.84 314.406 95.936 314.094 96.128C313.79 96.32 313.546 96.584 313.362 96.92C313.186 97.256 313.098 97.64 313.098 98.072C313.098 98.496 313.186 98.88 313.362 99.224C313.546 99.56 313.79 99.828 314.094 100.028C314.406 100.22 314.758 100.316 315.15 100.316ZM170.08 121.508V113.144H170.944V113.984C171.168 113.688 171.44 113.464 171.76 113.312C172.088 113.152 172.448 113.072 172.84 113.072C173.352 113.072 173.808 113.208 174.208 113.48C174.616 113.744 174.94 114.104 175.18 114.56C175.42 115.008 175.54 115.512 175.54 116.072C175.54 116.632 175.416 117.14 175.168 117.596C174.928 118.052 174.6 118.416 174.184 118.688C173.776 118.952 173.312 119.084 172.792 119.084C172.424 119.084 172.084 119.016 171.772 118.88C171.46 118.736 171.188 118.532 170.956 118.268V121.508H170.08ZM172.624 118.328C173.016 118.328 173.364 118.232 173.668 118.04C173.98 117.84 174.224 117.572 174.4 117.236C174.584 116.892 174.676 116.508 174.676 116.084C174.676 115.652 174.584 115.268 174.4 114.932C174.224 114.596 173.98 114.332 173.668 114.14C173.364 113.94 173.016 113.84 172.624 113.84C172.28 113.84 171.96 113.912 171.664 114.056C171.376 114.192 171.14 114.388 170.956 114.644V117.512C171.148 117.768 171.388 117.968 171.676 118.112C171.972 118.256 172.288 118.328 172.624 118.328ZM179.716 119.12C179.172 119.12 178.68 118.988 178.24 118.724C177.8 118.452 177.452 118.088 177.196 117.632C176.94 117.168 176.812 116.648 176.812 116.072C176.812 115.496 176.932 114.98 177.172 114.524C177.42 114.068 177.752 113.708 178.168 113.444C178.584 113.18 179.048 113.048 179.56 113.048C180.08 113.048 180.54 113.18 180.94 113.444C181.348 113.7 181.668 114.052 181.9 114.5C182.14 114.94 182.26 115.44 182.26 116V116.264H177.664C177.696 116.664 177.804 117.024 177.988 117.344C178.18 117.656 178.428 117.904 178.732 118.088C179.044 118.264 179.384 118.352 179.752 118.352C180.056 118.352 180.348 118.3 180.628 118.196C180.916 118.084 181.16 117.936 181.36 117.752L181.912 118.34C181.576 118.604 181.228 118.8 180.868 118.928C180.508 119.056 180.124 119.12 179.716 119.12ZM177.688 115.64H181.396C181.356 115.288 181.248 114.976 181.072 114.704C180.904 114.424 180.688 114.204 180.424 114.044C180.168 113.884 179.88 113.804 179.56 113.804C179.24 113.804 178.948 113.884 178.684 114.044C178.42 114.196 178.2 114.412 178.024 114.692C177.856 114.964 177.744 115.28 177.688 115.64ZM183.755 119V113.144H184.631V114.344C184.783 113.936 184.999 113.62 185.279 113.396C185.567 113.164 185.895 113.048 186.263 113.048C186.367 113.048 186.463 113.056 186.551 113.072C186.639 113.08 186.727 113.1 186.815 113.132V113.924C186.719 113.892 186.615 113.868 186.503 113.852C186.399 113.828 186.299 113.816 186.203 113.816C185.843 113.816 185.527 113.92 185.255 114.128C184.991 114.336 184.783 114.628 184.631 115.004V119H183.755ZM187.974 119V113.144H188.85V114.056C189.074 113.72 189.33 113.468 189.618 113.3C189.906 113.132 190.23 113.048 190.59 113.048C191.006 113.048 191.37 113.152 191.682 113.36C191.994 113.56 192.23 113.836 192.39 114.188C192.622 113.812 192.898 113.528 193.218 113.336C193.546 113.144 193.922 113.048 194.346 113.048C194.738 113.048 195.082 113.14 195.378 113.324C195.682 113.508 195.918 113.764 196.086 114.092C196.254 114.412 196.338 114.788 196.338 115.22V119H195.462V115.436C195.462 114.924 195.334 114.52 195.078 114.224C194.822 113.928 194.47 113.78 194.022 113.78C193.718 113.78 193.442 113.856 193.194 114.008C192.954 114.16 192.742 114.392 192.558 114.704C192.574 114.784 192.586 114.868 192.594 114.956C192.602 115.044 192.606 115.132 192.606 115.22V119H191.73V115.436C191.73 114.924 191.598 114.52 191.334 114.224C191.078 113.928 190.726 113.78 190.278 113.78C189.678 113.78 189.202 114.068 188.85 114.644V119H187.974ZM198.099 119V113.144H198.975V119H198.099ZM198.543 111.692C198.367 111.692 198.215 111.632 198.087 111.512C197.967 111.384 197.907 111.236 197.907 111.068C197.907 110.9 197.967 110.756 198.087 110.636C198.215 110.508 198.367 110.444 198.543 110.444C198.719 110.444 198.867 110.508 198.987 110.636C199.115 110.756 199.179 110.9 199.179 111.068C199.179 111.236 199.115 111.384 198.987 111.512C198.867 111.632 198.719 111.692 198.543 111.692ZM202.583 119.12C202.103 119.12 201.659 119.048 201.251 118.904C200.843 118.752 200.495 118.536 200.207 118.256L200.675 117.68C201.027 117.936 201.351 118.124 201.647 118.244C201.943 118.356 202.247 118.412 202.559 118.412C202.983 118.412 203.335 118.312 203.615 118.112C203.895 117.912 204.035 117.656 204.035 117.344C204.035 117.104 203.951 116.916 203.783 116.78C203.623 116.644 203.355 116.54 202.979 116.468L202.019 116.3C201.451 116.196 201.031 116.02 200.759 115.772C200.495 115.524 200.363 115.188 200.363 114.764C200.363 114.428 200.451 114.132 200.627 113.876C200.811 113.62 201.063 113.42 201.383 113.276C201.703 113.124 202.067 113.048 202.475 113.048C202.875 113.048 203.255 113.108 203.615 113.228C203.975 113.34 204.339 113.524 204.707 113.78L204.275 114.392C203.971 114.176 203.667 114.02 203.363 113.924C203.059 113.82 202.751 113.768 202.439 113.768C202.055 113.768 201.747 113.852 201.515 114.02C201.283 114.188 201.167 114.416 201.167 114.704C201.167 114.944 201.239 115.128 201.383 115.256C201.535 115.384 201.799 115.48 202.175 115.544L203.159 115.724C203.751 115.828 204.183 116.008 204.455 116.264C204.727 116.52 204.863 116.864 204.863 117.296C204.863 117.64 204.763 117.952 204.563 118.232C204.363 118.504 204.091 118.72 203.747 118.88C203.403 119.04 203.015 119.12 202.583 119.12ZM208.009 119.12C207.529 119.12 207.085 119.048 206.677 118.904C206.269 118.752 205.921 118.536 205.633 118.256L206.101 117.68C206.453 117.936 206.777 118.124 207.073 118.244C207.369 118.356 207.673 118.412 207.985 118.412C208.409 118.412 208.761 118.312 209.041 118.112C209.321 117.912 209.461 117.656 209.461 117.344C209.461 117.104 209.377 116.916 209.209 116.78C209.049 116.644 208.781 116.54 208.405 116.468L207.445 116.3C206.877 116.196 206.457 116.02 206.185 115.772C205.921 115.524 205.789 115.188 205.789 114.764C205.789 114.428 205.877 114.132 206.053 113.876C206.237 113.62 206.489 113.42 206.809 113.276C207.129 113.124 207.493 113.048 207.901 113.048C208.301 113.048 208.681 113.108 209.041 113.228C209.401 113.34 209.765 113.524 210.133 113.78L209.701 114.392C209.397 114.176 209.093 114.02 208.789 113.924C208.485 113.82 208.177 113.768 207.865 113.768C207.481 113.768 207.173 113.852 206.941 114.02C206.709 114.188 206.593 114.416 206.593 114.704C206.593 114.944 206.665 115.128 206.809 115.256C206.961 115.384 207.225 115.48 207.601 115.544L208.585 115.724C209.177 115.828 209.609 116.008 209.881 116.264C210.153 116.52 210.289 116.864 210.289 117.296C210.289 117.64 210.189 117.952 209.989 118.232C209.789 118.504 209.517 118.72 209.173 118.88C208.829 119.04 208.441 119.12 208.009 119.12ZM211.611 119V113.144H212.487V119H211.611ZM212.055 111.692C211.879 111.692 211.727 111.632 211.599 111.512C211.479 111.384 211.419 111.236 211.419 111.068C211.419 110.9 211.479 110.756 211.599 110.636C211.727 110.508 211.879 110.444 212.055 110.444C212.231 110.444 212.379 110.508 212.499 110.636C212.627 110.756 212.691 110.9 212.691 111.068C212.691 111.236 212.627 111.384 212.499 111.512C212.379 111.632 212.231 111.692 212.055 111.692ZM216.875 119.096C216.331 119.096 215.843 118.964 215.411 118.7C214.979 118.436 214.639 118.076 214.391 117.62C214.143 117.164 214.019 116.648 214.019 116.072C214.019 115.496 214.143 114.98 214.391 114.524C214.639 114.068 214.979 113.708 215.411 113.444C215.843 113.18 216.331 113.048 216.875 113.048C217.411 113.048 217.891 113.18 218.315 113.444C218.747 113.708 219.087 114.068 219.335 114.524C219.583 114.98 219.707 115.496 219.707 116.072C219.707 116.648 219.583 117.164 219.335 117.62C219.087 118.076 218.747 118.436 218.315 118.7C217.891 118.964 217.411 119.096 216.875 119.096ZM216.863 118.328C217.247 118.328 217.587 118.232 217.883 118.04C218.179 117.84 218.411 117.568 218.579 117.224C218.755 116.88 218.843 116.496 218.843 116.072C218.843 115.64 218.755 115.256 218.579 114.92C218.411 114.576 218.179 114.308 217.883 114.116C217.587 113.916 217.247 113.816 216.863 113.816C216.479 113.816 216.139 113.916 215.843 114.116C215.547 114.308 215.311 114.576 215.135 114.92C214.967 115.256 214.883 115.64 214.883 116.072C214.883 116.496 214.967 116.88 215.135 117.224C215.311 117.568 215.547 117.84 215.843 118.04C216.139 118.232 216.479 118.328 216.863 118.328ZM221.244 119V113.144H222.12V114.092C222.344 113.74 222.612 113.48 222.924 113.312C223.236 113.136 223.588 113.048 223.98 113.048C224.404 113.048 224.772 113.14 225.084 113.324C225.404 113.5 225.652 113.752 225.828 114.08C226.012 114.4 226.104 114.776 226.104 115.208V119H225.228V115.46C225.228 114.94 225.084 114.532 224.796 114.236C224.516 113.932 224.136 113.78 223.656 113.78C223.336 113.78 223.044 113.856 222.78 114.008C222.516 114.16 222.296 114.384 222.12 114.68V119H221.244ZM229.677 119.12C229.197 119.12 228.753 119.048 228.345 118.904C227.937 118.752 227.589 118.536 227.301 118.256L227.769 117.68C228.121 117.936 228.445 118.124 228.741 118.244C229.037 118.356 229.341 118.412 229.653 118.412C230.077 118.412 230.429 118.312 230.709 118.112C230.989 117.912 231.129 117.656 231.129 117.344C231.129 117.104 231.045 116.916 230.877 116.78C230.717 116.644 230.449 116.54 230.073 116.468L229.113 116.3C228.545 116.196 228.125 116.02 227.853 115.772C227.589 115.524 227.457 115.188 227.457 114.764C227.457 114.428 227.545 114.132 227.721 113.876C227.905 113.62 228.157 113.42 228.477 113.276C228.797 113.124 229.161 113.048 229.569 113.048C229.969 113.048 230.349 113.108 230.709 113.228C231.069 113.34 231.433 113.524 231.801 113.78L231.369 114.392C231.065 114.176 230.761 114.02 230.457 113.924C230.153 113.82 229.845 113.768 229.533 113.768C229.149 113.768 228.841 113.852 228.609 114.02C228.377 114.188 228.261 114.416 228.261 114.704C228.261 114.944 228.333 115.128 228.477 115.256C228.629 115.384 228.893 115.48 229.269 115.544L230.253 115.724C230.845 115.828 231.277 116.008 231.549 116.264C231.821 116.52 231.957 116.864 231.957 117.296C231.957 117.64 231.857 117.952 231.657 118.232C231.457 118.504 231.185 118.72 230.841 118.88C230.497 119.04 230.109 119.12 229.677 119.12ZM238.323 119.12C237.819 119.12 237.435 119 237.171 118.76C236.915 118.512 236.787 118.156 236.787 117.692V113.864H235.575V113.144H236.787V111.536L237.663 111.332V113.144H239.343V113.864H237.663V117.464C237.663 117.776 237.727 118 237.855 118.136C237.991 118.272 238.211 118.34 238.515 118.34C238.667 118.34 238.803 118.328 238.923 118.304C239.043 118.28 239.183 118.24 239.343 118.184V118.964C239.183 119.02 239.015 119.06 238.839 119.084C238.663 119.108 238.491 119.12 238.323 119.12ZM243.101 119.096C242.557 119.096 242.069 118.964 241.637 118.7C241.205 118.436 240.865 118.076 240.617 117.62C240.369 117.164 240.245 116.648 240.245 116.072C240.245 115.496 240.369 114.98 240.617 114.524C240.865 114.068 241.205 113.708 241.637 113.444C242.069 113.18 242.557 113.048 243.101 113.048C243.637 113.048 244.117 113.18 244.541 113.444C244.973 113.708 245.313 114.068 245.561 114.524C245.809 114.98 245.933 115.496 245.933 116.072C245.933 116.648 245.809 117.164 245.561 117.62C245.313 118.076 244.973 118.436 244.541 118.7C244.117 118.964 243.637 119.096 243.101 119.096ZM243.089 118.328C243.473 118.328 243.813 118.232 244.109 118.04C244.405 117.84 244.637 117.568 244.805 117.224C244.981 116.88 245.069 116.496 245.069 116.072C245.069 115.64 244.981 115.256 244.805 114.92C244.637 114.576 244.405 114.308 244.109 114.116C243.813 113.916 243.473 113.816 243.089 113.816C242.705 113.816 242.365 113.916 242.069 114.116C241.773 114.308 241.537 114.576 241.361 114.92C241.193 115.256 241.109 115.64 241.109 116.072C241.109 116.496 241.193 116.88 241.361 117.224C241.537 117.568 241.773 117.84 242.069 118.04C242.365 118.232 242.705 118.328 243.089 118.328ZM250.271 121.508V113.144H251.135V113.984C251.359 113.688 251.631 113.464 251.951 113.312C252.279 113.152 252.639 113.072 253.031 113.072C253.543 113.072 253.999 113.208 254.399 113.48C254.807 113.744 255.131 114.104 255.371 114.56C255.611 115.008 255.731 115.512 255.731 116.072C255.731 116.632 255.607 117.14 255.359 117.596C255.119 118.052 254.791 118.416 254.375 118.688C253.967 118.952 253.503 119.084 252.983 119.084C252.615 119.084 252.275 119.016 251.963 118.88C251.651 118.736 251.379 118.532 251.147 118.268V121.508H250.271ZM252.815 118.328C253.207 118.328 253.555 118.232 253.859 118.04C254.171 117.84 254.415 117.572 254.591 117.236C254.775 116.892 254.867 116.508 254.867 116.084C254.867 115.652 254.775 115.268 254.591 114.932C254.415 114.596 254.171 114.332 253.859 114.14C253.555 113.94 253.207 113.84 252.815 113.84C252.471 113.84 252.151 113.912 251.855 114.056C251.567 114.192 251.331 114.388 251.147 114.644V117.512C251.339 117.768 251.579 117.968 251.867 118.112C252.163 118.256 252.479 118.328 252.815 118.328ZM259.907 119.12C259.363 119.12 258.871 118.988 258.431 118.724C257.991 118.452 257.643 118.088 257.387 117.632C257.131 117.168 257.003 116.648 257.003 116.072C257.003 115.496 257.123 114.98 257.363 114.524C257.611 114.068 257.943 113.708 258.359 113.444C258.775 113.18 259.239 113.048 259.751 113.048C260.271 113.048 260.731 113.18 261.131 113.444C261.539 113.7 261.859 114.052 262.091 114.5C262.331 114.94 262.451 115.44 262.451 116V116.264H257.855C257.887 116.664 257.995 117.024 258.179 117.344C258.371 117.656 258.619 117.904 258.923 118.088C259.235 118.264 259.575 118.352 259.943 118.352C260.247 118.352 260.539 118.3 260.819 118.196C261.107 118.084 261.351 117.936 261.551 117.752L262.103 118.34C261.767 118.604 261.419 118.8 261.059 118.928C260.699 119.056 260.315 119.12 259.907 119.12ZM257.879 115.64H261.587C261.547 115.288 261.439 114.976 261.263 114.704C261.095 114.424 260.879 114.204 260.615 114.044C260.359 113.884 260.071 113.804 259.751 113.804C259.431 113.804 259.139 113.884 258.875 114.044C258.611 114.196 258.391 114.412 258.215 114.692C258.047 114.964 257.935 115.28 257.879 115.64ZM263.947 119V113.144H264.823V114.344C264.975 113.936 265.191 113.62 265.471 113.396C265.759 113.164 266.087 113.048 266.455 113.048C266.559 113.048 266.655 113.056 266.743 113.072C266.831 113.08 266.919 113.1 267.007 113.132V113.924C266.911 113.892 266.807 113.868 266.695 113.852C266.591 113.828 266.491 113.816 266.395 113.816C266.035 113.816 265.719 113.92 265.447 114.128C265.183 114.336 264.975 114.628 264.823 115.004V119H263.947ZM268.91 119V113.864H267.602V113.144H268.91V111.92C268.91 111.344 269.062 110.9 269.366 110.588C269.67 110.276 270.102 110.12 270.662 110.12C270.822 110.12 270.966 110.128 271.094 110.144C271.23 110.16 271.35 110.188 271.454 110.228V111.02C271.326 110.98 271.21 110.952 271.106 110.936C271.002 110.92 270.882 110.912 270.746 110.912C270.41 110.912 270.166 110.996 270.014 111.164C269.862 111.324 269.786 111.58 269.786 111.932V113.144H271.454V113.864H269.786V119H268.91ZM274.953 119.096C274.409 119.096 273.921 118.964 273.489 118.7C273.057 118.436 272.717 118.076 272.469 117.62C272.221 117.164 272.097 116.648 272.097 116.072C272.097 115.496 272.221 114.98 272.469 114.524C272.717 114.068 273.057 113.708 273.489 113.444C273.921 113.18 274.409 113.048 274.953 113.048C275.489 113.048 275.969 113.18 276.393 113.444C276.825 113.708 277.165 114.068 277.413 114.524C277.661 114.98 277.785 115.496 277.785 116.072C277.785 116.648 277.661 117.164 277.413 117.62C277.165 118.076 276.825 118.436 276.393 118.7C275.969 118.964 275.489 119.096 274.953 119.096ZM274.941 118.328C275.325 118.328 275.665 118.232 275.961 118.04C276.257 117.84 276.489 117.568 276.657 117.224C276.833 116.88 276.921 116.496 276.921 116.072C276.921 115.64 276.833 115.256 276.657 114.92C276.489 114.576 276.257 114.308 275.961 114.116C275.665 113.916 275.325 113.816 274.941 113.816C274.557 113.816 274.217 113.916 273.921 114.116C273.625 114.308 273.389 114.576 273.213 114.92C273.045 115.256 272.961 115.64 272.961 116.072C272.961 116.496 273.045 116.88 273.213 117.224C273.389 117.568 273.625 117.84 273.921 118.04C274.217 118.232 274.557 118.328 274.941 118.328ZM279.322 119V113.144H280.198V114.344C280.35 113.936 280.566 113.62 280.846 113.396C281.134 113.164 281.462 113.048 281.83 113.048C281.934 113.048 282.03 113.056 282.118 113.072C282.206 113.08 282.294 113.1 282.382 113.132V113.924C282.286 113.892 282.182 113.868 282.07 113.852C281.966 113.828 281.866 113.816 281.77 113.816C281.41 113.816 281.094 113.92 280.822 114.128C280.558 114.336 280.35 114.628 280.198 115.004V119H279.322ZM283.541 119V113.144H284.417V114.056C284.641 113.72 284.897 113.468 285.185 113.3C285.473 113.132 285.797 113.048 286.157 113.048C286.573 113.048 286.937 113.152 287.249 113.36C287.561 113.56 287.797 113.836 287.957 114.188C288.189 113.812 288.465 113.528 288.785 113.336C289.113 113.144 289.489 113.048 289.913 113.048C290.305 113.048 290.649 113.14 290.945 113.324C291.249 113.508 291.485 113.764 291.653 114.092C291.821 114.412 291.905 114.788 291.905 115.22V119H291.029V115.436C291.029 114.924 290.901 114.52 290.645 114.224C290.389 113.928 290.037 113.78 289.589 113.78C289.285 113.78 289.009 113.856 288.761 114.008C288.521 114.16 288.309 114.392 288.125 114.704C288.141 114.784 288.153 114.868 288.161 114.956C288.169 115.044 288.173 115.132 288.173 115.22V119H287.297V115.436C287.297 114.924 287.165 114.52 286.901 114.224C286.645 113.928 286.293 113.78 285.845 113.78C285.245 113.78 284.769 114.068 284.417 114.644V119H283.541ZM298.71 119.12C298.206 119.12 297.822 119 297.558 118.76C297.302 118.512 297.174 118.156 297.174 117.692V113.864H295.962V113.144H297.174V111.536L298.05 111.332V113.144H299.73V113.864H298.05V117.464C298.05 117.776 298.114 118 298.242 118.136C298.378 118.272 298.598 118.34 298.902 118.34C299.054 118.34 299.19 118.328 299.31 118.304C299.43 118.28 299.57 118.24 299.73 118.184V118.964C299.57 119.02 299.402 119.06 299.226 119.084C299.05 119.108 298.878 119.12 298.71 119.12ZM301.013 119V110.336L301.889 110.156V114.092C302.113 113.74 302.381 113.48 302.693 113.312C303.005 113.136 303.357 113.048 303.749 113.048C304.173 113.048 304.541 113.14 304.853 113.324C305.173 113.5 305.421 113.752 305.597 114.08C305.781 114.4 305.873 114.776 305.873 115.208V119H304.997V115.46C304.997 114.94 304.853 114.532 304.565 114.236C304.285 113.932 303.905 113.78 303.425 113.78C303.105 113.78 302.813 113.856 302.549 114.008C302.285 114.16 302.065 114.384 301.889 114.68V119H301.013ZM307.622 119V113.144H308.498V119H307.622ZM308.066 111.692C307.89 111.692 307.738 111.632 307.61 111.512C307.49 111.384 307.43 111.236 307.43 111.068C307.43 110.9 307.49 110.756 307.61 110.636C307.738 110.508 307.89 110.444 308.066 110.444C308.242 110.444 308.39 110.508 308.51 110.636C308.638 110.756 308.702 110.9 308.702 111.068C308.702 111.236 308.638 111.384 308.51 111.512C308.39 111.632 308.242 111.692 308.066 111.692ZM312.107 119.12C311.627 119.12 311.183 119.048 310.775 118.904C310.367 118.752 310.019 118.536 309.731 118.256L310.199 117.68C310.551 117.936 310.875 118.124 311.171 118.244C311.467 118.356 311.771 118.412 312.083 118.412C312.507 118.412 312.859 118.312 313.139 118.112C313.419 117.912 313.559 117.656 313.559 117.344C313.559 117.104 313.475 116.916 313.307 116.78C313.147 116.644 312.879 116.54 312.503 116.468L311.543 116.3C310.975 116.196 310.555 116.02 310.283 115.772C310.019 115.524 309.887 115.188 309.887 114.764C309.887 114.428 309.975 114.132 310.151 113.876C310.335 113.62 310.587 113.42 310.907 113.276C311.227 113.124 311.591 113.048 311.999 113.048C312.399 113.048 312.779 113.108 313.139 113.228C313.499 113.34 313.863 113.524 314.231 113.78L313.799 114.392C313.495 114.176 313.191 114.02 312.887 113.924C312.583 113.82 312.275 113.768 311.963 113.768C311.579 113.768 311.271 113.852 311.039 114.02C310.807 114.188 310.691 114.416 310.691 114.704C310.691 114.944 310.763 115.128 310.907 115.256C311.059 115.384 311.323 115.48 311.699 115.544L312.683 115.724C313.275 115.828 313.707 116.008 313.979 116.264C314.251 116.52 314.387 116.864 314.387 117.296C314.387 117.64 314.287 117.952 314.087 118.232C313.887 118.504 313.615 118.72 313.271 118.88C312.927 119.04 312.539 119.12 312.107 119.12ZM179.878 137.108C179.462 137.108 179.094 137.032 178.774 136.88C178.454 136.728 178.202 136.52 178.018 136.256C177.842 135.984 177.754 135.672 177.754 135.32C177.754 134.968 177.846 134.664 178.03 134.408C178.214 134.144 178.47 133.94 178.798 133.796C179.126 133.652 179.51 133.58 179.95 133.58C180.286 133.58 180.602 133.616 180.898 133.688C181.202 133.76 181.482 133.876 181.738 134.036V133.232C181.738 132.752 181.61 132.392 181.354 132.152C181.098 131.904 180.722 131.78 180.226 131.78C179.954 131.78 179.674 131.82 179.386 131.9C179.106 131.98 178.794 132.108 178.45 132.284L178.126 131.612C178.91 131.236 179.646 131.048 180.334 131.048C181.062 131.048 181.622 131.228 182.014 131.588C182.406 131.94 182.602 132.448 182.602 133.112V137H181.738V136.316C181.482 136.58 181.198 136.78 180.886 136.916C180.574 137.044 180.238 137.108 179.878 137.108ZM178.594 135.296C178.594 135.64 178.726 135.916 178.99 136.124C179.262 136.332 179.618 136.436 180.058 136.436C180.386 136.436 180.686 136.38 180.958 136.268C181.238 136.156 181.498 135.988 181.738 135.764V134.636C181.49 134.492 181.234 134.388 180.97 134.324C180.706 134.252 180.41 134.216 180.082 134.216C179.634 134.216 179.274 134.316 179.002 134.516C178.73 134.708 178.594 134.968 178.594 135.296ZM187.01 137.096C186.466 137.096 185.974 136.964 185.534 136.7C185.102 136.428 184.758 136.064 184.502 135.608C184.246 135.144 184.118 134.632 184.118 134.072C184.118 133.504 184.246 132.992 184.502 132.536C184.758 132.08 185.102 131.72 185.534 131.456C185.974 131.184 186.466 131.048 187.01 131.048C187.442 131.048 187.854 131.128 188.246 131.288C188.638 131.448 188.978 131.672 189.266 131.96L188.702 132.572C188.494 132.34 188.242 132.16 187.946 132.032C187.65 131.904 187.35 131.84 187.046 131.84C186.662 131.84 186.314 131.94 186.002 132.14C185.698 132.34 185.454 132.608 185.27 132.944C185.086 133.28 184.994 133.656 184.994 134.072C184.994 134.488 185.086 134.864 185.27 135.2C185.454 135.536 185.698 135.804 186.002 136.004C186.314 136.204 186.662 136.304 187.046 136.304C187.35 136.304 187.65 136.24 187.946 136.112C188.242 135.976 188.494 135.796 188.702 135.572L189.266 136.184C188.978 136.472 188.638 136.696 188.246 136.856C187.854 137.016 187.442 137.096 187.01 137.096ZM192.837 137.12C192.333 137.12 191.949 137 191.685 136.76C191.429 136.512 191.301 136.156 191.301 135.692V131.864H190.089V131.144H191.301V129.536L192.177 129.332V131.144H193.857V131.864H192.177V135.464C192.177 135.776 192.241 136 192.369 136.136C192.505 136.272 192.725 136.34 193.029 136.34C193.181 136.34 193.317 136.328 193.437 136.304C193.557 136.28 193.697 136.24 193.857 136.184V136.964C193.697 137.02 193.529 137.06 193.353 137.084C193.177 137.108 193.005 137.12 192.837 137.12ZM195.128 137V131.144H196.004V137H195.128ZM195.572 129.692C195.396 129.692 195.244 129.632 195.116 129.512C194.996 129.384 194.936 129.236 194.936 129.068C194.936 128.9 194.996 128.756 195.116 128.636C195.244 128.508 195.396 128.444 195.572 128.444C195.748 128.444 195.896 128.508 196.016 128.636C196.144 128.756 196.208 128.9 196.208 129.068C196.208 129.236 196.144 129.384 196.016 129.512C195.896 129.632 195.748 129.692 195.572 129.692ZM200.392 137.096C199.848 137.096 199.36 136.964 198.928 136.7C198.496 136.436 198.156 136.076 197.908 135.62C197.66 135.164 197.536 134.648 197.536 134.072C197.536 133.496 197.66 132.98 197.908 132.524C198.156 132.068 198.496 131.708 198.928 131.444C199.36 131.18 199.848 131.048 200.392 131.048C200.928 131.048 201.408 131.18 201.832 131.444C202.264 131.708 202.604 132.068 202.852 132.524C203.1 132.98 203.224 133.496 203.224 134.072C203.224 134.648 203.1 135.164 202.852 135.62C202.604 136.076 202.264 136.436 201.832 136.7C201.408 136.964 200.928 137.096 200.392 137.096ZM200.38 136.328C200.764 136.328 201.104 136.232 201.4 136.04C201.696 135.84 201.928 135.568 202.096 135.224C202.272 134.88 202.36 134.496 202.36 134.072C202.36 133.64 202.272 133.256 202.096 132.92C201.928 132.576 201.696 132.308 201.4 132.116C201.104 131.916 200.764 131.816 200.38 131.816C199.996 131.816 199.656 131.916 199.36 132.116C199.064 132.308 198.828 132.576 198.652 132.92C198.484 133.256 198.4 133.64 198.4 134.072C198.4 134.496 198.484 134.88 198.652 135.224C198.828 135.568 199.064 135.84 199.36 136.04C199.656 136.232 199.996 136.328 200.38 136.328ZM204.761 137V131.144H205.637V132.092C205.861 131.74 206.129 131.48 206.441 131.312C206.753 131.136 207.105 131.048 207.497 131.048C207.921 131.048 208.289 131.14 208.601 131.324C208.921 131.5 209.169 131.752 209.345 132.08C209.529 132.4 209.621 132.776 209.621 133.208V137H208.745V133.46C208.745 132.94 208.601 132.532 208.313 132.236C208.033 131.932 207.653 131.78 207.173 131.78C206.853 131.78 206.561 131.856 206.297 132.008C206.033 132.16 205.813 132.384 205.637 132.68V137H204.761ZM211.982 137.096C211.806 137.096 211.654 137.032 211.526 136.904C211.406 136.776 211.346 136.624 211.346 136.448C211.346 136.264 211.406 136.112 211.526 135.992C211.654 135.864 211.806 135.8 211.982 135.8C212.158 135.8 212.306 135.864 212.426 135.992C212.554 136.112 212.618 136.264 212.618 136.448C212.618 136.624 212.554 136.776 212.426 136.904C212.306 137.032 212.158 137.096 211.982 137.096ZM221.227 137.132C220.627 137.132 220.067 137.024 219.547 136.808C219.035 136.584 218.583 136.276 218.191 135.884C217.799 135.484 217.495 135.024 217.279 134.504C217.063 133.976 216.955 133.408 216.955 132.8C216.955 132.192 217.063 131.628 217.279 131.108C217.495 130.58 217.799 130.12 218.191 129.728C218.583 129.328 219.035 129.02 219.547 128.804C220.067 128.58 220.627 128.468 221.227 128.468C221.643 128.468 222.039 128.524 222.415 128.636C222.799 128.74 223.159 128.896 223.495 129.104C223.831 129.304 224.131 129.552 224.395 129.848L223.783 130.484C223.471 130.108 223.087 129.82 222.631 129.62C222.183 129.412 221.715 129.308 221.227 129.308C220.755 129.308 220.315 129.396 219.907 129.572C219.499 129.748 219.143 129.996 218.839 130.316C218.543 130.636 218.311 131.008 218.143 131.432C217.975 131.848 217.891 132.304 217.891 132.8C217.891 133.288 217.975 133.744 218.143 134.168C218.311 134.592 218.543 134.964 218.839 135.284C219.143 135.604 219.499 135.852 219.907 136.028C220.315 136.204 220.755 136.292 221.227 136.292C221.715 136.292 222.183 136.188 222.631 135.98C223.087 135.772 223.471 135.484 223.783 135.116L224.395 135.752C224.131 136.048 223.831 136.3 223.495 136.508C223.159 136.708 222.799 136.864 222.415 136.976C222.039 137.08 221.643 137.132 221.227 137.132ZM228.306 137.096C227.762 137.096 227.274 136.964 226.842 136.7C226.41 136.436 226.07 136.076 225.822 135.62C225.574 135.164 225.45 134.648 225.45 134.072C225.45 133.496 225.574 132.98 225.822 132.524C226.07 132.068 226.41 131.708 226.842 131.444C227.274 131.18 227.762 131.048 228.306 131.048C228.842 131.048 229.322 131.18 229.746 131.444C230.178 131.708 230.518 132.068 230.766 132.524C231.014 132.98 231.138 133.496 231.138 134.072C231.138 134.648 231.014 135.164 230.766 135.62C230.518 136.076 230.178 136.436 229.746 136.7C229.322 136.964 228.842 137.096 228.306 137.096ZM228.294 136.328C228.678 136.328 229.018 136.232 229.314 136.04C229.61 135.84 229.842 135.568 230.01 135.224C230.186 134.88 230.274 134.496 230.274 134.072C230.274 133.64 230.186 133.256 230.01 132.92C229.842 132.576 229.61 132.308 229.314 132.116C229.018 131.916 228.678 131.816 228.294 131.816C227.91 131.816 227.57 131.916 227.274 132.116C226.978 132.308 226.742 132.576 226.566 132.92C226.398 133.256 226.314 133.64 226.314 134.072C226.314 134.496 226.398 134.88 226.566 135.224C226.742 135.568 226.978 135.84 227.274 136.04C227.57 136.232 227.91 136.328 228.294 136.328ZM232.675 137V131.144H233.551V132.092C233.775 131.74 234.043 131.48 234.355 131.312C234.667 131.136 235.019 131.048 235.411 131.048C235.835 131.048 236.203 131.14 236.515 131.324C236.835 131.5 237.083 131.752 237.259 132.08C237.443 132.4 237.535 132.776 237.535 133.208V137H236.659V133.46C236.659 132.94 236.515 132.532 236.227 132.236C235.947 131.932 235.567 131.78 235.087 131.78C234.767 131.78 234.475 131.856 234.211 132.008C233.947 132.16 233.727 132.384 233.551 132.68V137H232.675ZM241.353 137.12C240.849 137.12 240.465 137 240.201 136.76C239.945 136.512 239.817 136.156 239.817 135.692V131.864H238.605V131.144H239.817V129.536L240.693 129.332V131.144H242.373V131.864H240.693V135.464C240.693 135.776 240.757 136 240.885 136.136C241.021 136.272 241.241 136.34 241.545 136.34C241.697 136.34 241.833 136.328 241.953 136.304C242.073 136.28 242.213 136.24 242.373 136.184V136.964C242.213 137.02 242.045 137.06 241.869 137.084C241.693 137.108 241.521 137.12 241.353 137.12ZM245.468 137.108C245.052 137.108 244.684 137.032 244.364 136.88C244.044 136.728 243.792 136.52 243.608 136.256C243.432 135.984 243.344 135.672 243.344 135.32C243.344 134.968 243.436 134.664 243.62 134.408C243.804 134.144 244.06 133.94 244.388 133.796C244.716 133.652 245.1 133.58 245.54 133.58C245.876 133.58 246.192 133.616 246.488 133.688C246.792 133.76 247.072 133.876 247.328 134.036V133.232C247.328 132.752 247.2 132.392 246.944 132.152C246.688 131.904 246.312 131.78 245.816 131.78C245.544 131.78 245.264 131.82 244.976 131.9C244.696 131.98 244.384 132.108 244.04 132.284L243.716 131.612C244.5 131.236 245.236 131.048 245.924 131.048C246.652 131.048 247.212 131.228 247.604 131.588C247.996 131.94 248.192 132.448 248.192 133.112V137H247.328V136.316C247.072 136.58 246.788 136.78 246.476 136.916C246.164 137.044 245.828 137.108 245.468 137.108ZM244.184 135.296C244.184 135.64 244.316 135.916 244.58 136.124C244.852 136.332 245.208 136.436 245.648 136.436C245.976 136.436 246.276 136.38 246.548 136.268C246.828 136.156 247.088 135.988 247.328 135.764V134.636C247.08 134.492 246.824 134.388 246.56 134.324C246.296 134.252 246 134.216 245.672 134.216C245.224 134.216 244.864 134.316 244.592 134.516C244.32 134.708 244.184 134.968 244.184 135.296ZM252.6 137.096C252.056 137.096 251.564 136.964 251.124 136.7C250.692 136.428 250.348 136.064 250.092 135.608C249.836 135.144 249.708 134.632 249.708 134.072C249.708 133.504 249.836 132.992 250.092 132.536C250.348 132.08 250.692 131.72 251.124 131.456C251.564 131.184 252.056 131.048 252.6 131.048C253.032 131.048 253.444 131.128 253.836 131.288C254.228 131.448 254.568 131.672 254.856 131.96L254.292 132.572C254.084 132.34 253.832 132.16 253.536 132.032C253.24 131.904 252.94 131.84 252.636 131.84C252.252 131.84 251.904 131.94 251.592 132.14C251.288 132.34 251.044 132.608 250.86 132.944C250.676 133.28 250.584 133.656 250.584 134.072C250.584 134.488 250.676 134.864 250.86 135.2C251.044 135.536 251.288 135.804 251.592 136.004C251.904 136.204 252.252 136.304 252.636 136.304C252.94 136.304 253.24 136.24 253.536 136.112C253.832 135.976 254.084 135.796 254.292 135.572L254.856 136.184C254.568 136.472 254.228 136.696 253.836 136.856C253.444 137.016 253.032 137.096 252.6 137.096ZM258.427 137.12C257.923 137.12 257.539 137 257.275 136.76C257.019 136.512 256.891 136.156 256.891 135.692V131.864H255.679V131.144H256.891V129.536L257.767 129.332V131.144H259.447V131.864H257.767V135.464C257.767 135.776 257.831 136 257.959 136.136C258.095 136.272 258.315 136.34 258.619 136.34C258.771 136.34 258.907 136.328 259.027 136.304C259.147 136.28 259.287 136.24 259.447 136.184V136.964C259.287 137.02 259.119 137.06 258.943 137.084C258.767 137.108 258.595 137.12 258.427 137.12ZM263.783 139.628C263.599 139.628 263.411 139.6 263.219 139.544V138.764C263.299 138.78 263.383 138.792 263.471 138.8C263.559 138.808 263.635 138.812 263.699 138.812C263.923 138.812 264.107 138.752 264.251 138.632C264.403 138.512 264.531 138.324 264.635 138.068L265.067 137L262.811 131.144H263.783L265.559 135.956L267.443 131.144H268.415L265.463 138.332C265.335 138.644 265.195 138.896 265.043 139.088C264.891 139.28 264.715 139.416 264.515 139.496C264.315 139.584 264.071 139.628 263.783 139.628ZM271.924 137.096C271.38 137.096 270.892 136.964 270.46 136.7C270.028 136.436 269.688 136.076 269.44 135.62C269.192 135.164 269.068 134.648 269.068 134.072C269.068 133.496 269.192 132.98 269.44 132.524C269.688 132.068 270.028 131.708 270.46 131.444C270.892 131.18 271.38 131.048 271.924 131.048C272.46 131.048 272.94 131.18 273.364 131.444C273.796 131.708 274.136 132.068 274.384 132.524C274.632 132.98 274.756 133.496 274.756 134.072C274.756 134.648 274.632 135.164 274.384 135.62C274.136 136.076 273.796 136.436 273.364 136.7C272.94 136.964 272.46 137.096 271.924 137.096ZM271.912 136.328C272.296 136.328 272.636 136.232 272.932 136.04C273.228 135.84 273.46 135.568 273.628 135.224C273.804 134.88 273.892 134.496 273.892 134.072C273.892 133.64 273.804 133.256 273.628 132.92C273.46 132.576 273.228 132.308 272.932 132.116C272.636 131.916 272.296 131.816 271.912 131.816C271.528 131.816 271.188 131.916 270.892 132.116C270.596 132.308 270.36 132.576 270.184 132.92C270.016 133.256 269.932 133.64 269.932 134.072C269.932 134.496 270.016 134.88 270.184 135.224C270.36 135.568 270.596 135.84 270.892 136.04C271.188 136.232 271.528 136.328 271.912 136.328ZM278.381 137.096C277.965 137.096 277.597 137.004 277.277 136.82C276.957 136.636 276.705 136.38 276.521 136.052C276.345 135.724 276.257 135.348 276.257 134.924V131.144H277.145V134.672C277.145 135.192 277.285 135.604 277.565 135.908C277.845 136.212 278.225 136.364 278.705 136.364C279.033 136.364 279.325 136.288 279.581 136.136C279.845 135.984 280.065 135.764 280.241 135.476V131.144H281.117V137H280.241V136.052C280.017 136.396 279.749 136.656 279.437 136.832C279.133 137.008 278.781 137.096 278.381 137.096ZM282.914 137V131.144H283.79V132.344C283.942 131.936 284.158 131.62 284.438 131.396C284.726 131.164 285.054 131.048 285.422 131.048C285.526 131.048 285.622 131.056 285.71 131.072C285.798 131.08 285.886 131.1 285.974 131.132V131.924C285.878 131.892 285.774 131.868 285.662 131.852C285.558 131.828 285.458 131.816 285.362 131.816C285.002 131.816 284.686 131.92 284.414 132.128C284.15 132.336 283.942 132.628 283.79 133.004V137H282.914ZM292.525 137.096C291.981 137.096 291.493 136.964 291.061 136.7C290.629 136.436 290.289 136.076 290.041 135.62C289.793 135.164 289.669 134.648 289.669 134.072C289.669 133.496 289.793 132.98 290.041 132.524C290.289 132.068 290.629 131.708 291.061 131.444C291.493 131.18 291.981 131.048 292.525 131.048C293.061 131.048 293.541 131.18 293.965 131.444C294.397 131.708 294.737 132.068 294.985 132.524C295.233 132.98 295.357 133.496 295.357 134.072C295.357 134.648 295.233 135.164 294.985 135.62C294.737 136.076 294.397 136.436 293.965 136.7C293.541 136.964 293.061 137.096 292.525 137.096ZM292.513 136.328C292.897 136.328 293.237 136.232 293.533 136.04C293.829 135.84 294.061 135.568 294.229 135.224C294.405 134.88 294.493 134.496 294.493 134.072C294.493 133.64 294.405 133.256 294.229 132.92C294.061 132.576 293.829 132.308 293.533 132.116C293.237 131.916 292.897 131.816 292.513 131.816C292.129 131.816 291.789 131.916 291.493 132.116C291.197 132.308 290.961 132.576 290.785 132.92C290.617 133.256 290.533 133.64 290.533 134.072C290.533 134.496 290.617 134.88 290.785 135.224C290.961 135.568 291.197 135.84 291.493 136.04C291.789 136.232 292.129 136.328 292.513 136.328ZM296.894 137V131.144H297.77V132.344C297.922 131.936 298.138 131.62 298.418 131.396C298.706 131.164 299.034 131.048 299.402 131.048C299.506 131.048 299.602 131.056 299.69 131.072C299.778 131.08 299.866 131.1 299.954 131.132V131.924C299.858 131.892 299.754 131.868 299.642 131.852C299.538 131.828 299.438 131.816 299.342 131.816C298.982 131.816 298.666 131.92 298.394 132.128C298.13 132.336 297.922 132.628 297.77 133.004V137H296.894ZM303.462 139.628C303.07 139.628 302.674 139.572 302.274 139.46C301.882 139.356 301.518 139.208 301.182 139.016L301.554 138.344C301.914 138.528 302.242 138.664 302.538 138.752C302.834 138.84 303.13 138.884 303.426 138.884C303.962 138.884 304.366 138.756 304.638 138.5C304.918 138.244 305.058 137.872 305.058 137.384V136.208C304.834 136.488 304.562 136.704 304.242 136.856C303.922 137 303.57 137.072 303.186 137.072C302.682 137.072 302.226 136.94 301.818 136.676C301.41 136.404 301.086 136.044 300.846 135.596C300.606 135.14 300.486 134.632 300.486 134.072C300.486 133.512 300.606 133.008 300.846 132.56C301.094 132.104 301.426 131.744 301.842 131.48C302.258 131.208 302.722 131.072 303.234 131.072C303.602 131.072 303.942 131.144 304.254 131.288C304.566 131.424 304.838 131.628 305.07 131.9V131.144H305.934V137.372C305.934 138.1 305.722 138.656 305.298 139.04C304.874 139.432 304.262 139.628 303.462 139.628ZM303.402 136.316C303.746 136.316 304.062 136.248 304.35 136.112C304.638 135.968 304.874 135.772 305.058 135.524V132.632C304.866 132.384 304.622 132.192 304.326 132.056C304.038 131.912 303.73 131.84 303.402 131.84C303.01 131.84 302.658 131.936 302.346 132.128C302.042 132.32 301.798 132.584 301.614 132.92C301.438 133.256 301.35 133.64 301.35 134.072C301.35 134.496 301.438 134.88 301.614 135.224C301.798 135.56 302.042 135.828 302.346 136.028C302.658 136.22 303.01 136.316 303.402 136.316ZM226.853 155.108C226.437 155.108 226.069 155.032 225.749 154.88C225.429 154.728 225.177 154.52 224.993 154.256C224.817 153.984 224.729 153.672 224.729 153.32C224.729 152.968 224.821 152.664 225.005 152.408C225.189 152.144 225.445 151.94 225.773 151.796C226.101 151.652 226.485 151.58 226.925 151.58C227.261 151.58 227.577 151.616 227.873 151.688C228.177 151.76 228.457 151.876 228.713 152.036V151.232C228.713 150.752 228.585 150.392 228.329 150.152C228.073 149.904 227.697 149.78 227.201 149.78C226.929 149.78 226.649 149.82 226.361 149.9C226.081 149.98 225.769 150.108 225.425 150.284L225.101 149.612C225.885 149.236 226.621 149.048 227.309 149.048C228.037 149.048 228.597 149.228 228.989 149.588C229.381 149.94 229.577 150.448 229.577 151.112V155H228.713V154.316C228.457 154.58 228.173 154.78 227.861 154.916C227.549 155.044 227.213 155.108 226.853 155.108ZM225.569 153.296C225.569 153.64 225.701 153.916 225.965 154.124C226.237 154.332 226.593 154.436 227.033 154.436C227.361 154.436 227.661 154.38 227.933 154.268C228.213 154.156 228.473 153.988 228.713 153.764V152.636C228.465 152.492 228.209 152.388 227.945 152.324C227.681 152.252 227.385 152.216 227.057 152.216C226.609 152.216 226.249 152.316 225.977 152.516C225.705 152.708 225.569 152.968 225.569 153.296ZM233.793 155.084C233.289 155.084 232.833 154.952 232.425 154.688C232.017 154.416 231.693 154.056 231.453 153.608C231.213 153.152 231.093 152.644 231.093 152.084C231.093 151.516 231.213 151.008 231.453 150.56C231.701 150.104 232.033 149.744 232.449 149.48C232.865 149.208 233.329 149.072 233.841 149.072C234.201 149.072 234.537 149.144 234.849 149.288C235.161 149.424 235.433 149.624 235.665 149.888V146.336L236.541 146.156V155H235.665V154.22C235.441 154.5 235.169 154.716 234.849 154.868C234.529 155.012 234.177 155.084 233.793 155.084ZM234.009 154.316C234.353 154.316 234.669 154.248 234.957 154.112C235.245 153.976 235.481 153.784 235.665 153.536V150.632C235.473 150.384 235.229 150.192 234.933 150.056C234.645 149.912 234.337 149.84 234.009 149.84C233.617 149.84 233.265 149.936 232.953 150.128C232.649 150.32 232.405 150.584 232.221 150.92C232.045 151.256 231.957 151.64 231.957 152.072C231.957 152.496 232.045 152.88 232.221 153.224C232.405 153.56 232.649 153.828 232.953 154.028C233.265 154.22 233.617 154.316 234.009 154.316ZM238.341 155V149.144H239.217V150.056C239.441 149.72 239.697 149.468 239.985 149.3C240.273 149.132 240.597 149.048 240.957 149.048C241.373 149.048 241.737 149.152 242.049 149.36C242.361 149.56 242.597 149.836 242.757 150.188C242.989 149.812 243.265 149.528 243.585 149.336C243.913 149.144 244.289 149.048 244.713 149.048C245.105 149.048 245.449 149.14 245.745 149.324C246.049 149.508 246.285 149.764 246.453 150.092C246.621 150.412 246.705 150.788 246.705 151.22V155H245.829V151.436C245.829 150.924 245.701 150.52 245.445 150.224C245.189 149.928 244.837 149.78 244.389 149.78C244.085 149.78 243.809 149.856 243.561 150.008C243.321 150.16 243.109 150.392 242.925 150.704C242.941 150.784 242.953 150.868 242.961 150.956C242.969 151.044 242.973 151.132 242.973 151.22V155H242.097V151.436C242.097 150.924 241.965 150.52 241.701 150.224C241.445 149.928 241.093 149.78 240.645 149.78C240.045 149.78 239.569 150.068 239.217 150.644V155H238.341ZM248.466 155V149.144H249.342V155H248.466ZM248.91 147.692C248.734 147.692 248.582 147.632 248.454 147.512C248.334 147.384 248.274 147.236 248.274 147.068C248.274 146.9 248.334 146.756 248.454 146.636C248.582 146.508 248.734 146.444 248.91 146.444C249.086 146.444 249.234 146.508 249.354 146.636C249.482 146.756 249.546 146.9 249.546 147.068C249.546 147.236 249.482 147.384 249.354 147.512C249.234 147.632 249.086 147.692 248.91 147.692ZM251.138 155V149.144H252.014V150.092C252.238 149.74 252.506 149.48 252.818 149.312C253.13 149.136 253.482 149.048 253.874 149.048C254.298 149.048 254.666 149.14 254.978 149.324C255.298 149.5 255.546 149.752 255.722 150.08C255.906 150.4 255.998 150.776 255.998 151.208V155H255.122V151.46C255.122 150.94 254.978 150.532 254.69 150.236C254.41 149.932 254.03 149.78 253.55 149.78C253.23 149.78 252.938 149.856 252.674 150.008C252.41 150.16 252.19 150.384 252.014 150.68V155H251.138ZM258.359 155.096C258.183 155.096 258.031 155.032 257.903 154.904C257.783 154.776 257.723 154.624 257.723 154.448C257.723 154.264 257.783 154.112 257.903 153.992C258.031 153.864 258.183 153.8 258.359 153.8C258.535 153.8 258.683 153.864 258.803 153.992C258.931 154.112 258.995 154.264 258.995 154.448C258.995 154.624 258.931 154.776 258.803 154.904C258.683 155.032 258.535 155.096 258.359 155.096Z" fill="white"/>
</g>
<defs>
<filter id="filter0_d_1541_56277" x="31" y="19" width="160" height="182" filterUnits="userSpaceOnUse" color-interpolation-filters="sRGB">
<feFlood flood-opacity="0" result="BackgroundImageFix"/>
<feColorMatrix in="SourceAlpha" type="matrix" values="0 0 0 0 0 0 0 0 0 0 0 0 0 0 0 0 0 0 127 0" result="hardAlpha"/>
<feOffset dy="4"/>
<feGaussianBlur stdDeviation="4.5"/>
<feColorMatrix type="matrix" values="0 0 0 0 0.160784 0 0 0 0 0.160784 0 0 0 0 0.160784 0 0 0 0.15 0"/>
<feBlend mode="normal" in2="BackgroundImageFix" result="effect1_dropShadow_1541_56277"/>
<feBlend mode="normal" in="SourceGraphic" in2="effect1_dropShadow_1541_56277" result="shape"/>
</filter>
<filter id="filter1_d_1541_56277" x="118" y="75" width="233" height="106" filterUnits="userSpaceOnUse" color-interpolation-filters="sRGB">
<feFlood flood-opacity="0" result="BackgroundImageFix"/>
<feColorMatrix in="SourceAlpha" type="matrix" values="0 0 0 0 0 0 0 0 0 0 0 0 0 0 0 0 0 0 127 0" result="hardAlpha"/>
<feOffset dy="4"/>
<feGaussianBlur stdDeviation="4.5"/>
<feColorMatrix type="matrix" values="0 0 0 0 0.160784 0 0 0 0 0.160784 0 0 0 0 0.160784 0 0 0 0.15 0"/>
<feBlend mode="normal" in2="BackgroundImageFix" result="effect1_dropShadow_1541_56277"/>
<feBlend mode="normal" in="SourceGraphic" in2="effect1_dropShadow_1541_56277" result="shape"/>
</filter>
</defs>
</svg>
