<svg width="462" height="299" viewBox="0 0 462 299" fill="none" xmlns="http://www.w3.org/2000/svg">
<rect width="462" height="299" fill="white"/>
<g filter="url(#filter0_d_1541_55481)">
<path d="M40 90C40 86.6863 42.6863 84 46 84H176C179.314 84 182 86.6863 182 90V242C182 245.314 179.314 248 176 248H46C42.6863 248 40 245.314 40 242V90Z" fill="white"/>
<path d="M69.67 115.154C68.9887 115.154 68.354 115.028 67.766 114.776C67.178 114.515 66.66 114.155 66.212 113.698C65.7733 113.231 65.428 112.695 65.176 112.088C64.924 111.472 64.798 110.809 64.798 110.1C64.798 109.391 64.924 108.733 65.176 108.126C65.428 107.51 65.7733 106.973 66.212 106.516C66.66 106.049 67.178 105.69 67.766 105.438C68.354 105.177 68.9887 105.046 69.67 105.046C70.3513 105.046 70.986 105.177 71.574 105.438C72.162 105.69 72.6753 106.049 73.114 106.516C73.562 106.973 73.912 107.51 74.164 108.126C74.416 108.733 74.542 109.391 74.542 110.1C74.542 110.809 74.416 111.472 74.164 112.088C73.912 112.695 73.562 113.231 73.114 113.698C72.6753 114.155 72.162 114.515 71.574 114.776C70.986 115.028 70.3513 115.154 69.67 115.154ZM69.67 114.174C70.202 114.174 70.6967 114.071 71.154 113.866C71.6113 113.661 72.0127 113.371 72.358 112.998C72.7033 112.625 72.9693 112.191 73.156 111.696C73.352 111.201 73.45 110.669 73.45 110.1C73.45 109.521 73.352 108.989 73.156 108.504C72.9693 108.009 72.7033 107.575 72.358 107.202C72.0127 106.829 71.6113 106.539 71.154 106.334C70.6967 106.129 70.202 106.026 69.67 106.026C69.138 106.026 68.6433 106.129 68.186 106.334C67.7287 106.539 67.3273 106.829 66.982 107.202C66.6367 107.575 66.366 108.009 66.17 108.504C65.9833 108.989 65.89 109.517 65.89 110.086C65.89 110.665 65.9833 111.201 66.17 111.696C66.366 112.191 66.6367 112.625 66.982 112.998C67.3273 113.371 67.7287 113.661 68.186 113.866C68.6433 114.071 69.138 114.174 69.67 114.174ZM76.384 117.926V108.168H77.392V109.148C77.6533 108.803 77.9707 108.541 78.344 108.364C78.7267 108.177 79.1467 108.084 79.604 108.084C80.2013 108.084 80.7333 108.243 81.2 108.56C81.676 108.868 82.054 109.288 82.334 109.82C82.614 110.343 82.754 110.931 82.754 111.584C82.754 112.237 82.6093 112.83 82.32 113.362C82.04 113.894 81.6573 114.319 81.172 114.636C80.696 114.944 80.1547 115.098 79.548 115.098C79.1187 115.098 78.722 115.019 78.358 114.86C77.994 114.692 77.6767 114.454 77.406 114.146V117.926H76.384ZM79.352 114.216C79.8093 114.216 80.2153 114.104 80.57 113.88C80.934 113.647 81.2187 113.334 81.424 112.942C81.6387 112.541 81.746 112.093 81.746 111.598C81.746 111.094 81.6387 110.646 81.424 110.254C81.2187 109.862 80.934 109.554 80.57 109.33C80.2153 109.097 79.8093 108.98 79.352 108.98C78.9507 108.98 78.5773 109.064 78.232 109.232C77.896 109.391 77.6207 109.619 77.406 109.918V113.264C77.63 113.563 77.91 113.796 78.246 113.964C78.5913 114.132 78.96 114.216 79.352 114.216ZM86.7263 115.14C86.1383 115.14 85.6903 115 85.3823 114.72C85.0836 114.431 84.9343 114.015 84.9343 113.474V109.008H83.5203V108.168H84.9343V106.292L85.9563 106.054V108.168H87.9163V109.008H85.9563V113.208C85.9563 113.572 86.0309 113.833 86.1803 113.992C86.3389 114.151 86.5956 114.23 86.9503 114.23C87.1276 114.23 87.2863 114.216 87.4263 114.188C87.5663 114.16 87.7296 114.113 87.9163 114.048V114.958C87.7296 115.023 87.5336 115.07 87.3283 115.098C87.1229 115.126 86.9223 115.14 86.7263 115.14ZM89.3993 115V108.168H90.4213V115H89.3993ZM89.9173 106.474C89.7119 106.474 89.5346 106.404 89.3853 106.264C89.2453 106.115 89.1753 105.942 89.1753 105.746C89.1753 105.55 89.2453 105.382 89.3853 105.242C89.5346 105.093 89.7119 105.018 89.9173 105.018C90.1226 105.018 90.2953 105.093 90.4353 105.242C90.5846 105.382 90.6593 105.55 90.6593 105.746C90.6593 105.942 90.5846 106.115 90.4353 106.264C90.2953 106.404 90.1226 106.474 89.9173 106.474ZM95.5408 115.112C94.9061 115.112 94.3368 114.958 93.8328 114.65C93.3288 114.342 92.9321 113.922 92.6428 113.39C92.3535 112.858 92.2088 112.256 92.2088 111.584C92.2088 110.912 92.3535 110.31 92.6428 109.778C92.9321 109.246 93.3288 108.826 93.8328 108.518C94.3368 108.21 94.9061 108.056 95.5408 108.056C96.1661 108.056 96.7261 108.21 97.2208 108.518C97.7248 108.826 98.1215 109.246 98.4108 109.778C98.7001 110.31 98.8448 110.912 98.8448 111.584C98.8448 112.256 98.7001 112.858 98.4108 113.39C98.1215 113.922 97.7248 114.342 97.2208 114.65C96.7261 114.958 96.1661 115.112 95.5408 115.112ZM95.5268 114.216C95.9748 114.216 96.3715 114.104 96.7168 113.88C97.0621 113.647 97.3328 113.329 97.5288 112.928C97.7341 112.527 97.8368 112.079 97.8368 111.584C97.8368 111.08 97.7341 110.632 97.5288 110.24C97.3328 109.839 97.0621 109.526 96.7168 109.302C96.3715 109.069 95.9748 108.952 95.5268 108.952C95.0788 108.952 94.6821 109.069 94.3368 109.302C93.9915 109.526 93.7161 109.839 93.5108 110.24C93.3148 110.632 93.2168 111.08 93.2168 111.584C93.2168 112.079 93.3148 112.527 93.5108 112.928C93.7161 113.329 93.9915 113.647 94.3368 113.88C94.6821 114.104 95.0788 114.216 95.5268 114.216ZM100.638 115V108.168H101.66V109.274C101.921 108.863 102.234 108.56 102.598 108.364C102.962 108.159 103.373 108.056 103.83 108.056C104.325 108.056 104.754 108.163 105.118 108.378C105.491 108.583 105.781 108.877 105.986 109.26C106.201 109.633 106.308 110.072 106.308 110.576V115H105.286V110.87C105.286 110.263 105.118 109.787 104.782 109.442C104.455 109.087 104.012 108.91 103.452 108.91C103.079 108.91 102.738 108.999 102.43 109.176C102.122 109.353 101.865 109.615 101.66 109.96V115H100.638ZM112.722 115V106.292L111.154 106.992V106.068L113.1 105.2H113.73V115H112.722Z" fill="#151515"/>
<path fill-rule="evenodd" clip-rule="evenodd" d="M146.997 115.461L151.092 111.496C151.375 111.222 151.375 110.779 151.089 110.504L146.994 106.539C146.714 106.265 146.256 106.265 145.973 106.539L145.296 107.204C145.012 107.475 145.012 107.918 145.296 108.192L148.198 111.003L145.296 113.814C145.012 114.085 145.012 114.528 145.296 114.802L145.976 115.461C146.256 115.735 146.714 115.735 146.997 115.461Z" fill="#1F1F1F"/>
<path d="M69.67 152.154C68.9887 152.154 68.354 152.028 67.766 151.776C67.178 151.515 66.66 151.155 66.212 150.698C65.7733 150.231 65.428 149.695 65.176 149.088C64.924 148.472 64.798 147.809 64.798 147.1C64.798 146.391 64.924 145.733 65.176 145.126C65.428 144.51 65.7733 143.973 66.212 143.516C66.66 143.049 67.178 142.69 67.766 142.438C68.354 142.177 68.9887 142.046 69.67 142.046C70.3513 142.046 70.986 142.177 71.574 142.438C72.162 142.69 72.6753 143.049 73.114 143.516C73.562 143.973 73.912 144.51 74.164 145.126C74.416 145.733 74.542 146.391 74.542 147.1C74.542 147.809 74.416 148.472 74.164 149.088C73.912 149.695 73.562 150.231 73.114 150.698C72.6753 151.155 72.162 151.515 71.574 151.776C70.986 152.028 70.3513 152.154 69.67 152.154ZM69.67 151.174C70.202 151.174 70.6967 151.071 71.154 150.866C71.6113 150.661 72.0127 150.371 72.358 149.998C72.7033 149.625 72.9693 149.191 73.156 148.696C73.352 148.201 73.45 147.669 73.45 147.1C73.45 146.521 73.352 145.989 73.156 145.504C72.9693 145.009 72.7033 144.575 72.358 144.202C72.0127 143.829 71.6113 143.539 71.154 143.334C70.6967 143.129 70.202 143.026 69.67 143.026C69.138 143.026 68.6433 143.129 68.186 143.334C67.7287 143.539 67.3273 143.829 66.982 144.202C66.6367 144.575 66.366 145.009 66.17 145.504C65.9833 145.989 65.89 146.517 65.89 147.086C65.89 147.665 65.9833 148.201 66.17 148.696C66.366 149.191 66.6367 149.625 66.982 149.998C67.3273 150.371 67.7287 150.661 68.186 150.866C68.6433 151.071 69.138 151.174 69.67 151.174ZM76.384 154.926V145.168H77.392V146.148C77.6533 145.803 77.9707 145.541 78.344 145.364C78.7267 145.177 79.1467 145.084 79.604 145.084C80.2013 145.084 80.7333 145.243 81.2 145.56C81.676 145.868 82.054 146.288 82.334 146.82C82.614 147.343 82.754 147.931 82.754 148.584C82.754 149.237 82.6093 149.83 82.32 150.362C82.04 150.894 81.6573 151.319 81.172 151.636C80.696 151.944 80.1547 152.098 79.548 152.098C79.1187 152.098 78.722 152.019 78.358 151.86C77.994 151.692 77.6767 151.454 77.406 151.146V154.926H76.384ZM79.352 151.216C79.8093 151.216 80.2153 151.104 80.57 150.88C80.934 150.647 81.2187 150.334 81.424 149.942C81.6387 149.541 81.746 149.093 81.746 148.598C81.746 148.094 81.6387 147.646 81.424 147.254C81.2187 146.862 80.934 146.554 80.57 146.33C80.2153 146.097 79.8093 145.98 79.352 145.98C78.9507 145.98 78.5773 146.064 78.232 146.232C77.896 146.391 77.6207 146.619 77.406 146.918V150.264C77.63 150.563 77.91 150.796 78.246 150.964C78.5913 151.132 78.96 151.216 79.352 151.216ZM86.7263 152.14C86.1383 152.14 85.6903 152 85.3823 151.72C85.0836 151.431 84.9343 151.015 84.9343 150.474V146.008H83.5203V145.168H84.9343V143.292L85.9563 143.054V145.168H87.9163V146.008H85.9563V150.208C85.9563 150.572 86.0309 150.833 86.1803 150.992C86.3389 151.151 86.5956 151.23 86.9503 151.23C87.1276 151.23 87.2863 151.216 87.4263 151.188C87.5663 151.16 87.7296 151.113 87.9163 151.048V151.958C87.7296 152.023 87.5336 152.07 87.3283 152.098C87.1229 152.126 86.9223 152.14 86.7263 152.14ZM89.3993 152V145.168H90.4213V152H89.3993ZM89.9173 143.474C89.7119 143.474 89.5346 143.404 89.3853 143.264C89.2453 143.115 89.1753 142.942 89.1753 142.746C89.1753 142.55 89.2453 142.382 89.3853 142.242C89.5346 142.093 89.7119 142.018 89.9173 142.018C90.1226 142.018 90.2953 142.093 90.4353 142.242C90.5846 142.382 90.6593 142.55 90.6593 142.746C90.6593 142.942 90.5846 143.115 90.4353 143.264C90.2953 143.404 90.1226 143.474 89.9173 143.474ZM95.5408 152.112C94.9061 152.112 94.3368 151.958 93.8328 151.65C93.3288 151.342 92.9321 150.922 92.6428 150.39C92.3535 149.858 92.2088 149.256 92.2088 148.584C92.2088 147.912 92.3535 147.31 92.6428 146.778C92.9321 146.246 93.3288 145.826 93.8328 145.518C94.3368 145.21 94.9061 145.056 95.5408 145.056C96.1661 145.056 96.7261 145.21 97.2208 145.518C97.7248 145.826 98.1215 146.246 98.4108 146.778C98.7001 147.31 98.8448 147.912 98.8448 148.584C98.8448 149.256 98.7001 149.858 98.4108 150.39C98.1215 150.922 97.7248 151.342 97.2208 151.65C96.7261 151.958 96.1661 152.112 95.5408 152.112ZM95.5268 151.216C95.9748 151.216 96.3715 151.104 96.7168 150.88C97.0621 150.647 97.3328 150.329 97.5288 149.928C97.7341 149.527 97.8368 149.079 97.8368 148.584C97.8368 148.08 97.7341 147.632 97.5288 147.24C97.3328 146.839 97.0621 146.526 96.7168 146.302C96.3715 146.069 95.9748 145.952 95.5268 145.952C95.0788 145.952 94.6821 146.069 94.3368 146.302C93.9915 146.526 93.7161 146.839 93.5108 147.24C93.3148 147.632 93.2168 148.08 93.2168 148.584C93.2168 149.079 93.3148 149.527 93.5108 149.928C93.7161 150.329 93.9915 150.647 94.3368 150.88C94.6821 151.104 95.0788 151.216 95.5268 151.216ZM100.638 152V145.168H101.66V146.274C101.921 145.863 102.234 145.56 102.598 145.364C102.962 145.159 103.373 145.056 103.83 145.056C104.325 145.056 104.754 145.163 105.118 145.378C105.491 145.583 105.781 145.877 105.986 146.26C106.201 146.633 106.308 147.072 106.308 147.576V152H105.286V147.87C105.286 147.263 105.118 146.787 104.782 146.442C104.455 146.087 104.012 145.91 103.452 145.91C103.079 145.91 102.738 145.999 102.43 146.176C102.122 146.353 101.865 146.615 101.66 146.96V152H100.638ZM111.294 152V151.258L115.214 146.974C115.522 146.638 115.76 146.344 115.928 146.092C116.105 145.831 116.227 145.588 116.292 145.364C116.367 145.14 116.404 144.902 116.404 144.65C116.404 144.155 116.208 143.749 115.816 143.432C115.433 143.105 114.943 142.942 114.346 142.942C113.889 142.942 113.464 143.031 113.072 143.208C112.68 143.385 112.241 143.693 111.756 144.132L111.168 143.432C111.681 142.965 112.199 142.62 112.722 142.396C113.245 142.163 113.791 142.046 114.36 142.046C114.948 142.046 115.471 142.158 115.928 142.382C116.385 142.597 116.745 142.895 117.006 143.278C117.267 143.661 117.398 144.099 117.398 144.594C117.398 144.921 117.356 145.224 117.272 145.504C117.188 145.775 117.039 146.069 116.824 146.386C116.609 146.694 116.301 147.067 115.9 147.506L112.554 151.132L117.608 151.118V152H111.294Z" fill="#151515"/>
<path fill-rule="evenodd" clip-rule="evenodd" d="M146.997 152.461L151.092 148.496C151.375 148.222 151.375 147.779 151.089 147.504L146.994 143.539C146.714 143.265 146.256 143.265 145.973 143.539L145.296 144.204C145.012 144.475 145.012 144.918 145.296 145.192L148.198 148.003L145.296 150.814C145.012 151.085 145.012 151.528 145.296 151.802L145.976 152.461C146.256 152.735 146.714 152.735 146.997 152.461Z" fill="#1F1F1F"/>
<path d="M69.67 189.154C68.9887 189.154 68.354 189.028 67.766 188.776C67.178 188.515 66.66 188.155 66.212 187.698C65.7733 187.231 65.428 186.695 65.176 186.088C64.924 185.472 64.798 184.809 64.798 184.1C64.798 183.391 64.924 182.733 65.176 182.126C65.428 181.51 65.7733 180.973 66.212 180.516C66.66 180.049 67.178 179.69 67.766 179.438C68.354 179.177 68.9887 179.046 69.67 179.046C70.3513 179.046 70.986 179.177 71.574 179.438C72.162 179.69 72.6753 180.049 73.114 180.516C73.562 180.973 73.912 181.51 74.164 182.126C74.416 182.733 74.542 183.391 74.542 184.1C74.542 184.809 74.416 185.472 74.164 186.088C73.912 186.695 73.562 187.231 73.114 187.698C72.6753 188.155 72.162 188.515 71.574 188.776C70.986 189.028 70.3513 189.154 69.67 189.154ZM69.67 188.174C70.202 188.174 70.6967 188.071 71.154 187.866C71.6113 187.661 72.0127 187.371 72.358 186.998C72.7033 186.625 72.9693 186.191 73.156 185.696C73.352 185.201 73.45 184.669 73.45 184.1C73.45 183.521 73.352 182.989 73.156 182.504C72.9693 182.009 72.7033 181.575 72.358 181.202C72.0127 180.829 71.6113 180.539 71.154 180.334C70.6967 180.129 70.202 180.026 69.67 180.026C69.138 180.026 68.6433 180.129 68.186 180.334C67.7287 180.539 67.3273 180.829 66.982 181.202C66.6367 181.575 66.366 182.009 66.17 182.504C65.9833 182.989 65.89 183.517 65.89 184.086C65.89 184.665 65.9833 185.201 66.17 185.696C66.366 186.191 66.6367 186.625 66.982 186.998C67.3273 187.371 67.7287 187.661 68.186 187.866C68.6433 188.071 69.138 188.174 69.67 188.174ZM76.384 191.926V182.168H77.392V183.148C77.6533 182.803 77.9707 182.541 78.344 182.364C78.7267 182.177 79.1467 182.084 79.604 182.084C80.2013 182.084 80.7333 182.243 81.2 182.56C81.676 182.868 82.054 183.288 82.334 183.82C82.614 184.343 82.754 184.931 82.754 185.584C82.754 186.237 82.6093 186.83 82.32 187.362C82.04 187.894 81.6573 188.319 81.172 188.636C80.696 188.944 80.1547 189.098 79.548 189.098C79.1187 189.098 78.722 189.019 78.358 188.86C77.994 188.692 77.6767 188.454 77.406 188.146V191.926H76.384ZM79.352 188.216C79.8093 188.216 80.2153 188.104 80.57 187.88C80.934 187.647 81.2187 187.334 81.424 186.942C81.6387 186.541 81.746 186.093 81.746 185.598C81.746 185.094 81.6387 184.646 81.424 184.254C81.2187 183.862 80.934 183.554 80.57 183.33C80.2153 183.097 79.8093 182.98 79.352 182.98C78.9507 182.98 78.5773 183.064 78.232 183.232C77.896 183.391 77.6207 183.619 77.406 183.918V187.264C77.63 187.563 77.91 187.796 78.246 187.964C78.5913 188.132 78.96 188.216 79.352 188.216ZM86.7263 189.14C86.1383 189.14 85.6903 189 85.3823 188.72C85.0836 188.431 84.9343 188.015 84.9343 187.474V183.008H83.5203V182.168H84.9343V180.292L85.9563 180.054V182.168H87.9163V183.008H85.9563V187.208C85.9563 187.572 86.0309 187.833 86.1803 187.992C86.3389 188.151 86.5956 188.23 86.9503 188.23C87.1276 188.23 87.2863 188.216 87.4263 188.188C87.5663 188.16 87.7296 188.113 87.9163 188.048V188.958C87.7296 189.023 87.5336 189.07 87.3283 189.098C87.1229 189.126 86.9223 189.14 86.7263 189.14ZM89.3993 189V182.168H90.4213V189H89.3993ZM89.9173 180.474C89.7119 180.474 89.5346 180.404 89.3853 180.264C89.2453 180.115 89.1753 179.942 89.1753 179.746C89.1753 179.55 89.2453 179.382 89.3853 179.242C89.5346 179.093 89.7119 179.018 89.9173 179.018C90.1226 179.018 90.2953 179.093 90.4353 179.242C90.5846 179.382 90.6593 179.55 90.6593 179.746C90.6593 179.942 90.5846 180.115 90.4353 180.264C90.2953 180.404 90.1226 180.474 89.9173 180.474ZM95.5408 189.112C94.9061 189.112 94.3368 188.958 93.8328 188.65C93.3288 188.342 92.9321 187.922 92.6428 187.39C92.3535 186.858 92.2088 186.256 92.2088 185.584C92.2088 184.912 92.3535 184.31 92.6428 183.778C92.9321 183.246 93.3288 182.826 93.8328 182.518C94.3368 182.21 94.9061 182.056 95.5408 182.056C96.1661 182.056 96.7261 182.21 97.2208 182.518C97.7248 182.826 98.1215 183.246 98.4108 183.778C98.7001 184.31 98.8448 184.912 98.8448 185.584C98.8448 186.256 98.7001 186.858 98.4108 187.39C98.1215 187.922 97.7248 188.342 97.2208 188.65C96.7261 188.958 96.1661 189.112 95.5408 189.112ZM95.5268 188.216C95.9748 188.216 96.3715 188.104 96.7168 187.88C97.0621 187.647 97.3328 187.329 97.5288 186.928C97.7341 186.527 97.8368 186.079 97.8368 185.584C97.8368 185.08 97.7341 184.632 97.5288 184.24C97.3328 183.839 97.0621 183.526 96.7168 183.302C96.3715 183.069 95.9748 182.952 95.5268 182.952C95.0788 182.952 94.6821 183.069 94.3368 183.302C93.9915 183.526 93.7161 183.839 93.5108 184.24C93.3148 184.632 93.2168 185.08 93.2168 185.584C93.2168 186.079 93.3148 186.527 93.5108 186.928C93.7161 187.329 93.9915 187.647 94.3368 187.88C94.6821 188.104 95.0788 188.216 95.5268 188.216ZM100.638 189V182.168H101.66V183.274C101.921 182.863 102.234 182.56 102.598 182.364C102.962 182.159 103.373 182.056 103.83 182.056C104.325 182.056 104.754 182.163 105.118 182.378C105.491 182.583 105.781 182.877 105.986 183.26C106.201 183.633 106.308 184.072 106.308 184.576V189H105.286V184.87C105.286 184.263 105.118 183.787 104.782 183.442C104.455 183.087 104.012 182.91 103.452 182.91C103.079 182.91 102.738 182.999 102.43 183.176C102.122 183.353 101.865 183.615 101.66 183.96V189H100.638ZM114.528 189.154C113.856 189.154 113.226 189.037 112.638 188.804C112.059 188.571 111.546 188.225 111.098 187.768L111.77 187.11C112.181 187.521 112.601 187.819 113.03 188.006C113.469 188.183 113.963 188.272 114.514 188.272C114.99 188.272 115.41 188.188 115.774 188.02C116.147 187.852 116.437 187.619 116.642 187.32C116.847 187.021 116.95 186.681 116.95 186.298C116.95 185.934 116.857 185.612 116.67 185.332C116.493 185.043 116.245 184.819 115.928 184.66C115.611 184.501 115.247 184.422 114.836 184.422H113.674V183.554H114.794C115.326 183.554 115.755 183.391 116.082 183.064C116.418 182.737 116.586 182.313 116.586 181.79C116.586 181.445 116.493 181.132 116.306 180.852C116.119 180.572 115.863 180.353 115.536 180.194C115.219 180.026 114.859 179.942 114.458 179.942C113.954 179.942 113.501 180.035 113.1 180.222C112.708 180.399 112.307 180.703 111.896 181.132L111.224 180.46C111.663 179.993 112.157 179.643 112.708 179.41C113.259 179.167 113.847 179.046 114.472 179.046C115.069 179.046 115.601 179.163 116.068 179.396C116.544 179.629 116.917 179.951 117.188 180.362C117.459 180.763 117.594 181.221 117.594 181.734C117.594 182.247 117.426 182.709 117.09 183.12C116.754 183.521 116.311 183.801 115.76 183.96C116.423 184.109 116.955 184.399 117.356 184.828C117.757 185.257 117.958 185.757 117.958 186.326C117.958 186.867 117.809 187.353 117.51 187.782C117.221 188.211 116.815 188.547 116.292 188.79C115.779 189.033 115.191 189.154 114.528 189.154Z" fill="#151515"/>
<path fill-rule="evenodd" clip-rule="evenodd" d="M146.997 189.461L151.092 185.496C151.375 185.222 151.375 184.779 151.089 184.504L146.994 180.539C146.714 180.265 146.256 180.265 145.973 180.539L145.296 181.204C145.012 181.475 145.012 181.918 145.296 182.192L148.198 185.003L145.296 187.814C145.012 188.085 145.012 188.528 145.296 188.802L145.976 189.461C146.256 189.735 146.714 189.735 146.997 189.461Z" fill="#1F1F1F"/>
<path d="M69.67 226.154C68.9887 226.154 68.354 226.028 67.766 225.776C67.178 225.515 66.66 225.155 66.212 224.698C65.7733 224.231 65.428 223.695 65.176 223.088C64.924 222.472 64.798 221.809 64.798 221.1C64.798 220.391 64.924 219.733 65.176 219.126C65.428 218.51 65.7733 217.973 66.212 217.516C66.66 217.049 67.178 216.69 67.766 216.438C68.354 216.177 68.9887 216.046 69.67 216.046C70.3513 216.046 70.986 216.177 71.574 216.438C72.162 216.69 72.6753 217.049 73.114 217.516C73.562 217.973 73.912 218.51 74.164 219.126C74.416 219.733 74.542 220.391 74.542 221.1C74.542 221.809 74.416 222.472 74.164 223.088C73.912 223.695 73.562 224.231 73.114 224.698C72.6753 225.155 72.162 225.515 71.574 225.776C70.986 226.028 70.3513 226.154 69.67 226.154ZM69.67 225.174C70.202 225.174 70.6967 225.071 71.154 224.866C71.6113 224.661 72.0127 224.371 72.358 223.998C72.7033 223.625 72.9693 223.191 73.156 222.696C73.352 222.201 73.45 221.669 73.45 221.1C73.45 220.521 73.352 219.989 73.156 219.504C72.9693 219.009 72.7033 218.575 72.358 218.202C72.0127 217.829 71.6113 217.539 71.154 217.334C70.6967 217.129 70.202 217.026 69.67 217.026C69.138 217.026 68.6433 217.129 68.186 217.334C67.7287 217.539 67.3273 217.829 66.982 218.202C66.6367 218.575 66.366 219.009 66.17 219.504C65.9833 219.989 65.89 220.517 65.89 221.086C65.89 221.665 65.9833 222.201 66.17 222.696C66.366 223.191 66.6367 223.625 66.982 223.998C67.3273 224.371 67.7287 224.661 68.186 224.866C68.6433 225.071 69.138 225.174 69.67 225.174ZM76.384 228.926V219.168H77.392V220.148C77.6533 219.803 77.9707 219.541 78.344 219.364C78.7267 219.177 79.1467 219.084 79.604 219.084C80.2013 219.084 80.7333 219.243 81.2 219.56C81.676 219.868 82.054 220.288 82.334 220.82C82.614 221.343 82.754 221.931 82.754 222.584C82.754 223.237 82.6093 223.83 82.32 224.362C82.04 224.894 81.6573 225.319 81.172 225.636C80.696 225.944 80.1547 226.098 79.548 226.098C79.1187 226.098 78.722 226.019 78.358 225.86C77.994 225.692 77.6767 225.454 77.406 225.146V228.926H76.384ZM79.352 225.216C79.8093 225.216 80.2153 225.104 80.57 224.88C80.934 224.647 81.2187 224.334 81.424 223.942C81.6387 223.541 81.746 223.093 81.746 222.598C81.746 222.094 81.6387 221.646 81.424 221.254C81.2187 220.862 80.934 220.554 80.57 220.33C80.2153 220.097 79.8093 219.98 79.352 219.98C78.9507 219.98 78.5773 220.064 78.232 220.232C77.896 220.391 77.6207 220.619 77.406 220.918V224.264C77.63 224.563 77.91 224.796 78.246 224.964C78.5913 225.132 78.96 225.216 79.352 225.216ZM86.7263 226.14C86.1383 226.14 85.6903 226 85.3823 225.72C85.0836 225.431 84.9343 225.015 84.9343 224.474V220.008H83.5203V219.168H84.9343V217.292L85.9563 217.054V219.168H87.9163V220.008H85.9563V224.208C85.9563 224.572 86.0309 224.833 86.1803 224.992C86.3389 225.151 86.5956 225.23 86.9503 225.23C87.1276 225.23 87.2863 225.216 87.4263 225.188C87.5663 225.16 87.7296 225.113 87.9163 225.048V225.958C87.7296 226.023 87.5336 226.07 87.3283 226.098C87.1229 226.126 86.9223 226.14 86.7263 226.14ZM89.3993 226V219.168H90.4213V226H89.3993ZM89.9173 217.474C89.7119 217.474 89.5346 217.404 89.3853 217.264C89.2453 217.115 89.1753 216.942 89.1753 216.746C89.1753 216.55 89.2453 216.382 89.3853 216.242C89.5346 216.093 89.7119 216.018 89.9173 216.018C90.1226 216.018 90.2953 216.093 90.4353 216.242C90.5846 216.382 90.6593 216.55 90.6593 216.746C90.6593 216.942 90.5846 217.115 90.4353 217.264C90.2953 217.404 90.1226 217.474 89.9173 217.474ZM95.5408 226.112C94.9061 226.112 94.3368 225.958 93.8328 225.65C93.3288 225.342 92.9321 224.922 92.6428 224.39C92.3535 223.858 92.2088 223.256 92.2088 222.584C92.2088 221.912 92.3535 221.31 92.6428 220.778C92.9321 220.246 93.3288 219.826 93.8328 219.518C94.3368 219.21 94.9061 219.056 95.5408 219.056C96.1661 219.056 96.7261 219.21 97.2208 219.518C97.7248 219.826 98.1215 220.246 98.4108 220.778C98.7001 221.31 98.8448 221.912 98.8448 222.584C98.8448 223.256 98.7001 223.858 98.4108 224.39C98.1215 224.922 97.7248 225.342 97.2208 225.65C96.7261 225.958 96.1661 226.112 95.5408 226.112ZM95.5268 225.216C95.9748 225.216 96.3715 225.104 96.7168 224.88C97.0621 224.647 97.3328 224.329 97.5288 223.928C97.7341 223.527 97.8368 223.079 97.8368 222.584C97.8368 222.08 97.7341 221.632 97.5288 221.24C97.3328 220.839 97.0621 220.526 96.7168 220.302C96.3715 220.069 95.9748 219.952 95.5268 219.952C95.0788 219.952 94.6821 220.069 94.3368 220.302C93.9915 220.526 93.7161 220.839 93.5108 221.24C93.3148 221.632 93.2168 222.08 93.2168 222.584C93.2168 223.079 93.3148 223.527 93.5108 223.928C93.7161 224.329 93.9915 224.647 94.3368 224.88C94.6821 225.104 95.0788 225.216 95.5268 225.216ZM100.638 226V219.168H101.66V220.274C101.921 219.863 102.234 219.56 102.598 219.364C102.962 219.159 103.373 219.056 103.83 219.056C104.325 219.056 104.754 219.163 105.118 219.378C105.491 219.583 105.781 219.877 105.986 220.26C106.201 220.633 106.308 221.072 106.308 221.576V226H105.286V221.87C105.286 221.263 105.118 220.787 104.782 220.442C104.455 220.087 104.012 219.91 103.452 219.91C103.079 219.91 102.738 219.999 102.43 220.176C102.122 220.353 101.865 220.615 101.66 220.96V226H100.638ZM116.418 226V223.382H111.126V222.584L116.334 216.2H117.412V222.5H118.77V223.382H117.412V226H116.418ZM112.302 222.5H116.418V217.418L112.302 222.5Z" fill="#151515"/>
<path fill-rule="evenodd" clip-rule="evenodd" d="M146.997 226.461L151.092 222.496C151.375 222.222 151.375 221.779 151.089 221.504L146.994 217.539C146.714 217.265 146.256 217.265 145.973 217.539L145.296 218.204C145.012 218.475 145.012 218.918 145.296 219.192L148.198 222.003L145.296 224.814C145.012 225.085 145.012 225.528 145.296 225.802L145.976 226.461C146.256 226.735 146.714 226.735 146.997 226.461Z" fill="#1F1F1F"/>
</g>
<g filter="url(#filter1_d_1541_55481)">
<path d="M280 90C280 86.6863 282.686 84 286 84H416C419.314 84 422 86.6863 422 90V258C422 261.314 419.314 264 416 264H286C282.686 264 280 261.314 280 258V90Z" fill="white"/>
<path fill-rule="evenodd" clip-rule="evenodd" d="M317.411 115.461L318.091 114.799C318.374 114.528 318.374 114.085 318.091 113.811L315.19 111L318.088 108.186C318.371 107.915 318.371 107.472 318.088 107.198L317.408 106.539C317.128 106.265 316.671 106.265 316.388 106.539L312.295 110.504C312.012 110.779 312.012 111.222 312.298 111.496L316.391 115.461C316.671 115.735 317.128 115.735 317.411 115.461Z" fill="#1F1F1F"/>
<path d="M334.67 115.154C333.989 115.154 333.354 115.028 332.766 114.776C332.178 114.515 331.66 114.155 331.212 113.698C330.773 113.231 330.428 112.695 330.176 112.088C329.924 111.472 329.798 110.809 329.798 110.1C329.798 109.391 329.924 108.733 330.176 108.126C330.428 107.51 330.773 106.973 331.212 106.516C331.66 106.049 332.178 105.69 332.766 105.438C333.354 105.177 333.989 105.046 334.67 105.046C335.351 105.046 335.986 105.177 336.574 105.438C337.162 105.69 337.675 106.049 338.114 106.516C338.562 106.973 338.912 107.51 339.164 108.126C339.416 108.733 339.542 109.391 339.542 110.1C339.542 110.809 339.416 111.472 339.164 112.088C338.912 112.695 338.562 113.231 338.114 113.698C337.675 114.155 337.162 114.515 336.574 114.776C335.986 115.028 335.351 115.154 334.67 115.154ZM334.67 114.174C335.202 114.174 335.697 114.071 336.154 113.866C336.611 113.661 337.013 113.371 337.358 112.998C337.703 112.625 337.969 112.191 338.156 111.696C338.352 111.201 338.45 110.669 338.45 110.1C338.45 109.521 338.352 108.989 338.156 108.504C337.969 108.009 337.703 107.575 337.358 107.202C337.013 106.829 336.611 106.539 336.154 106.334C335.697 106.129 335.202 106.026 334.67 106.026C334.138 106.026 333.643 106.129 333.186 106.334C332.729 106.539 332.327 106.829 331.982 107.202C331.637 107.575 331.366 108.009 331.17 108.504C330.983 108.989 330.89 109.517 330.89 110.086C330.89 110.665 330.983 111.201 331.17 111.696C331.366 112.191 331.637 112.625 331.982 112.998C332.327 113.371 332.729 113.661 333.186 113.866C333.643 114.071 334.138 114.174 334.67 114.174ZM341.384 117.926V108.168H342.392V109.148C342.653 108.803 342.971 108.541 343.344 108.364C343.727 108.177 344.147 108.084 344.604 108.084C345.201 108.084 345.733 108.243 346.2 108.56C346.676 108.868 347.054 109.288 347.334 109.82C347.614 110.343 347.754 110.931 347.754 111.584C347.754 112.237 347.609 112.83 347.32 113.362C347.04 113.894 346.657 114.319 346.172 114.636C345.696 114.944 345.155 115.098 344.548 115.098C344.119 115.098 343.722 115.019 343.358 114.86C342.994 114.692 342.677 114.454 342.406 114.146V117.926H341.384ZM344.352 114.216C344.809 114.216 345.215 114.104 345.57 113.88C345.934 113.647 346.219 113.334 346.424 112.942C346.639 112.541 346.746 112.093 346.746 111.598C346.746 111.094 346.639 110.646 346.424 110.254C346.219 109.862 345.934 109.554 345.57 109.33C345.215 109.097 344.809 108.98 344.352 108.98C343.951 108.98 343.577 109.064 343.232 109.232C342.896 109.391 342.621 109.619 342.406 109.918V113.264C342.63 113.563 342.91 113.796 343.246 113.964C343.591 114.132 343.96 114.216 344.352 114.216ZM351.726 115.14C351.138 115.14 350.69 115 350.382 114.72C350.084 114.431 349.934 114.015 349.934 113.474V109.008H348.52V108.168H349.934V106.292L350.956 106.054V108.168H352.916V109.008H350.956V113.208C350.956 113.572 351.031 113.833 351.18 113.992C351.339 114.151 351.596 114.23 351.95 114.23C352.128 114.23 352.286 114.216 352.426 114.188C352.566 114.16 352.73 114.113 352.916 114.048V114.958C352.73 115.023 352.534 115.07 352.328 115.098C352.123 115.126 351.922 115.14 351.726 115.14ZM354.399 115V108.168H355.421V115H354.399ZM354.917 106.474C354.712 106.474 354.535 106.404 354.385 106.264C354.245 106.115 354.175 105.942 354.175 105.746C354.175 105.55 354.245 105.382 354.385 105.242C354.535 105.093 354.712 105.018 354.917 105.018C355.123 105.018 355.295 105.093 355.435 105.242C355.585 105.382 355.659 105.55 355.659 105.746C355.659 105.942 355.585 106.115 355.435 106.264C355.295 106.404 355.123 106.474 354.917 106.474ZM360.541 115.112C359.906 115.112 359.337 114.958 358.833 114.65C358.329 114.342 357.932 113.922 357.643 113.39C357.353 112.858 357.209 112.256 357.209 111.584C357.209 110.912 357.353 110.31 357.643 109.778C357.932 109.246 358.329 108.826 358.833 108.518C359.337 108.21 359.906 108.056 360.541 108.056C361.166 108.056 361.726 108.21 362.221 108.518C362.725 108.826 363.121 109.246 363.411 109.778C363.7 110.31 363.845 110.912 363.845 111.584C363.845 112.256 363.7 112.858 363.411 113.39C363.121 113.922 362.725 114.342 362.221 114.65C361.726 114.958 361.166 115.112 360.541 115.112ZM360.527 114.216C360.975 114.216 361.371 114.104 361.717 113.88C362.062 113.647 362.333 113.329 362.529 112.928C362.734 112.527 362.837 112.079 362.837 111.584C362.837 111.08 362.734 110.632 362.529 110.24C362.333 109.839 362.062 109.526 361.717 109.302C361.371 109.069 360.975 108.952 360.527 108.952C360.079 108.952 359.682 109.069 359.337 109.302C358.991 109.526 358.716 109.839 358.511 110.24C358.315 110.632 358.217 111.08 358.217 111.584C358.217 112.079 358.315 112.527 358.511 112.928C358.716 113.329 358.991 113.647 359.337 113.88C359.682 114.104 360.079 114.216 360.527 114.216ZM365.638 115V108.168H366.66V109.274C366.921 108.863 367.234 108.56 367.598 108.364C367.962 108.159 368.373 108.056 368.83 108.056C369.325 108.056 369.754 108.163 370.118 108.378C370.491 108.583 370.781 108.877 370.986 109.26C371.201 109.633 371.308 110.072 371.308 110.576V115H370.286V110.87C370.286 110.263 370.118 109.787 369.782 109.442C369.455 109.087 369.012 108.91 368.452 108.91C368.079 108.91 367.738 108.999 367.43 109.176C367.122 109.353 366.865 109.615 366.66 109.96V115H365.638ZM376.294 115V114.258L380.214 109.974C380.522 109.638 380.76 109.344 380.928 109.092C381.105 108.831 381.227 108.588 381.292 108.364C381.367 108.14 381.404 107.902 381.404 107.65C381.404 107.155 381.208 106.749 380.816 106.432C380.433 106.105 379.943 105.942 379.346 105.942C378.889 105.942 378.464 106.031 378.072 106.208C377.68 106.385 377.241 106.693 376.756 107.132L376.168 106.432C376.681 105.965 377.199 105.62 377.722 105.396C378.245 105.163 378.791 105.046 379.36 105.046C379.948 105.046 380.471 105.158 380.928 105.382C381.385 105.597 381.745 105.895 382.006 106.278C382.267 106.661 382.398 107.099 382.398 107.594C382.398 107.921 382.356 108.224 382.272 108.504C382.188 108.775 382.039 109.069 381.824 109.386C381.609 109.694 381.301 110.067 380.9 110.506L377.554 114.132L382.608 114.118V115H376.294Z" fill="#151515"/>
<rect width="142" height="1" transform="translate(280 137)" fill="#C7C7C7"/>
<path d="M309.67 169.154C308.989 169.154 308.354 169.028 307.766 168.776C307.178 168.515 306.66 168.155 306.212 167.698C305.773 167.231 305.428 166.695 305.176 166.088C304.924 165.472 304.798 164.809 304.798 164.1C304.798 163.391 304.924 162.733 305.176 162.126C305.428 161.51 305.773 160.973 306.212 160.516C306.66 160.049 307.178 159.69 307.766 159.438C308.354 159.177 308.989 159.046 309.67 159.046C310.351 159.046 310.986 159.177 311.574 159.438C312.162 159.69 312.675 160.049 313.114 160.516C313.562 160.973 313.912 161.51 314.164 162.126C314.416 162.733 314.542 163.391 314.542 164.1C314.542 164.809 314.416 165.472 314.164 166.088C313.912 166.695 313.562 167.231 313.114 167.698C312.675 168.155 312.162 168.515 311.574 168.776C310.986 169.028 310.351 169.154 309.67 169.154ZM309.67 168.174C310.202 168.174 310.697 168.071 311.154 167.866C311.611 167.661 312.013 167.371 312.358 166.998C312.703 166.625 312.969 166.191 313.156 165.696C313.352 165.201 313.45 164.669 313.45 164.1C313.45 163.521 313.352 162.989 313.156 162.504C312.969 162.009 312.703 161.575 312.358 161.202C312.013 160.829 311.611 160.539 311.154 160.334C310.697 160.129 310.202 160.026 309.67 160.026C309.138 160.026 308.643 160.129 308.186 160.334C307.729 160.539 307.327 160.829 306.982 161.202C306.637 161.575 306.366 162.009 306.17 162.504C305.983 162.989 305.89 163.517 305.89 164.086C305.89 164.665 305.983 165.201 306.17 165.696C306.366 166.191 306.637 166.625 306.982 166.998C307.327 167.371 307.729 167.661 308.186 167.866C308.643 168.071 309.138 168.174 309.67 168.174ZM316.384 171.926V162.168H317.392V163.148C317.653 162.803 317.971 162.541 318.344 162.364C318.727 162.177 319.147 162.084 319.604 162.084C320.201 162.084 320.733 162.243 321.2 162.56C321.676 162.868 322.054 163.288 322.334 163.82C322.614 164.343 322.754 164.931 322.754 165.584C322.754 166.237 322.609 166.83 322.32 167.362C322.04 167.894 321.657 168.319 321.172 168.636C320.696 168.944 320.155 169.098 319.548 169.098C319.119 169.098 318.722 169.019 318.358 168.86C317.994 168.692 317.677 168.454 317.406 168.146V171.926H316.384ZM319.352 168.216C319.809 168.216 320.215 168.104 320.57 167.88C320.934 167.647 321.219 167.334 321.424 166.942C321.639 166.541 321.746 166.093 321.746 165.598C321.746 165.094 321.639 164.646 321.424 164.254C321.219 163.862 320.934 163.554 320.57 163.33C320.215 163.097 319.809 162.98 319.352 162.98C318.951 162.98 318.577 163.064 318.232 163.232C317.896 163.391 317.621 163.619 317.406 163.918V167.264C317.63 167.563 317.91 167.796 318.246 167.964C318.591 168.132 318.96 168.216 319.352 168.216ZM326.726 169.14C326.138 169.14 325.69 169 325.382 168.72C325.084 168.431 324.934 168.015 324.934 167.474V163.008H323.52V162.168H324.934V160.292L325.956 160.054V162.168H327.916V163.008H325.956V167.208C325.956 167.572 326.031 167.833 326.18 167.992C326.339 168.151 326.596 168.23 326.95 168.23C327.128 168.23 327.286 168.216 327.426 168.188C327.566 168.16 327.73 168.113 327.916 168.048V168.958C327.73 169.023 327.534 169.07 327.328 169.098C327.123 169.126 326.922 169.14 326.726 169.14ZM329.399 169V162.168H330.421V169H329.399ZM329.917 160.474C329.712 160.474 329.535 160.404 329.385 160.264C329.245 160.115 329.175 159.942 329.175 159.746C329.175 159.55 329.245 159.382 329.385 159.242C329.535 159.093 329.712 159.018 329.917 159.018C330.123 159.018 330.295 159.093 330.435 159.242C330.585 159.382 330.659 159.55 330.659 159.746C330.659 159.942 330.585 160.115 330.435 160.264C330.295 160.404 330.123 160.474 329.917 160.474ZM335.541 169.112C334.906 169.112 334.337 168.958 333.833 168.65C333.329 168.342 332.932 167.922 332.643 167.39C332.353 166.858 332.209 166.256 332.209 165.584C332.209 164.912 332.353 164.31 332.643 163.778C332.932 163.246 333.329 162.826 333.833 162.518C334.337 162.21 334.906 162.056 335.541 162.056C336.166 162.056 336.726 162.21 337.221 162.518C337.725 162.826 338.121 163.246 338.411 163.778C338.7 164.31 338.845 164.912 338.845 165.584C338.845 166.256 338.7 166.858 338.411 167.39C338.121 167.922 337.725 168.342 337.221 168.65C336.726 168.958 336.166 169.112 335.541 169.112ZM335.527 168.216C335.975 168.216 336.371 168.104 336.717 167.88C337.062 167.647 337.333 167.329 337.529 166.928C337.734 166.527 337.837 166.079 337.837 165.584C337.837 165.08 337.734 164.632 337.529 164.24C337.333 163.839 337.062 163.526 336.717 163.302C336.371 163.069 335.975 162.952 335.527 162.952C335.079 162.952 334.682 163.069 334.337 163.302C333.991 163.526 333.716 163.839 333.511 164.24C333.315 164.632 333.217 165.08 333.217 165.584C333.217 166.079 333.315 166.527 333.511 166.928C333.716 167.329 333.991 167.647 334.337 167.88C334.682 168.104 335.079 168.216 335.527 168.216ZM340.638 169V162.168H341.66V163.274C341.921 162.863 342.234 162.56 342.598 162.364C342.962 162.159 343.373 162.056 343.83 162.056C344.325 162.056 344.754 162.163 345.118 162.378C345.491 162.583 345.781 162.877 345.986 163.26C346.201 163.633 346.308 164.072 346.308 164.576V169H345.286V164.87C345.286 164.263 345.118 163.787 344.782 163.442C344.455 163.087 344.012 162.91 343.452 162.91C343.079 162.91 342.738 162.999 342.43 163.176C342.122 163.353 341.865 163.615 341.66 163.96V169H340.638ZM351.294 169V168.258L355.214 163.974C355.522 163.638 355.76 163.344 355.928 163.092C356.105 162.831 356.227 162.588 356.292 162.364C356.367 162.14 356.404 161.902 356.404 161.65C356.404 161.155 356.208 160.749 355.816 160.432C355.433 160.105 354.943 159.942 354.346 159.942C353.889 159.942 353.464 160.031 353.072 160.208C352.68 160.385 352.241 160.693 351.756 161.132L351.168 160.432C351.681 159.965 352.199 159.62 352.722 159.396C353.245 159.163 353.791 159.046 354.36 159.046C354.948 159.046 355.471 159.158 355.928 159.382C356.385 159.597 356.745 159.895 357.006 160.278C357.267 160.661 357.398 161.099 357.398 161.594C357.398 161.921 357.356 162.224 357.272 162.504C357.188 162.775 357.039 163.069 356.824 163.386C356.609 163.694 356.301 164.067 355.9 164.506L352.554 168.132L357.608 168.118V169H351.294ZM360 169.112C359.795 169.112 359.617 169.037 359.468 168.888C359.328 168.739 359.258 168.561 359.258 168.356C359.258 168.141 359.328 167.964 359.468 167.824C359.617 167.675 359.795 167.6 360 167.6C360.205 167.6 360.378 167.675 360.518 167.824C360.667 167.964 360.742 168.141 360.742 168.356C360.742 168.561 360.667 168.739 360.518 168.888C360.378 169.037 360.205 169.112 360 169.112ZM363.263 169V160.292L361.695 160.992V160.068L363.641 159.2H364.271V169H363.263Z" fill="#151515"/>
<path fill-rule="evenodd" clip-rule="evenodd" d="M386.997 169.461L391.092 165.496C391.375 165.222 391.375 164.779 391.089 164.504L386.994 160.539C386.714 160.265 386.256 160.265 385.973 160.539L385.296 161.204C385.012 161.475 385.012 161.918 385.296 162.192L388.198 165.003L385.296 167.814C385.012 168.085 385.012 168.528 385.296 168.802L385.976 169.461C386.256 169.735 386.714 169.735 386.997 169.461Z" fill="#1F1F1F"/>
<path d="M309.67 206.154C308.989 206.154 308.354 206.028 307.766 205.776C307.178 205.515 306.66 205.155 306.212 204.698C305.773 204.231 305.428 203.695 305.176 203.088C304.924 202.472 304.798 201.809 304.798 201.1C304.798 200.391 304.924 199.733 305.176 199.126C305.428 198.51 305.773 197.973 306.212 197.516C306.66 197.049 307.178 196.69 307.766 196.438C308.354 196.177 308.989 196.046 309.67 196.046C310.351 196.046 310.986 196.177 311.574 196.438C312.162 196.69 312.675 197.049 313.114 197.516C313.562 197.973 313.912 198.51 314.164 199.126C314.416 199.733 314.542 200.391 314.542 201.1C314.542 201.809 314.416 202.472 314.164 203.088C313.912 203.695 313.562 204.231 313.114 204.698C312.675 205.155 312.162 205.515 311.574 205.776C310.986 206.028 310.351 206.154 309.67 206.154ZM309.67 205.174C310.202 205.174 310.697 205.071 311.154 204.866C311.611 204.661 312.013 204.371 312.358 203.998C312.703 203.625 312.969 203.191 313.156 202.696C313.352 202.201 313.45 201.669 313.45 201.1C313.45 200.521 313.352 199.989 313.156 199.504C312.969 199.009 312.703 198.575 312.358 198.202C312.013 197.829 311.611 197.539 311.154 197.334C310.697 197.129 310.202 197.026 309.67 197.026C309.138 197.026 308.643 197.129 308.186 197.334C307.729 197.539 307.327 197.829 306.982 198.202C306.637 198.575 306.366 199.009 306.17 199.504C305.983 199.989 305.89 200.517 305.89 201.086C305.89 201.665 305.983 202.201 306.17 202.696C306.366 203.191 306.637 203.625 306.982 203.998C307.327 204.371 307.729 204.661 308.186 204.866C308.643 205.071 309.138 205.174 309.67 205.174ZM316.384 208.926V199.168H317.392V200.148C317.653 199.803 317.971 199.541 318.344 199.364C318.727 199.177 319.147 199.084 319.604 199.084C320.201 199.084 320.733 199.243 321.2 199.56C321.676 199.868 322.054 200.288 322.334 200.82C322.614 201.343 322.754 201.931 322.754 202.584C322.754 203.237 322.609 203.83 322.32 204.362C322.04 204.894 321.657 205.319 321.172 205.636C320.696 205.944 320.155 206.098 319.548 206.098C319.119 206.098 318.722 206.019 318.358 205.86C317.994 205.692 317.677 205.454 317.406 205.146V208.926H316.384ZM319.352 205.216C319.809 205.216 320.215 205.104 320.57 204.88C320.934 204.647 321.219 204.334 321.424 203.942C321.639 203.541 321.746 203.093 321.746 202.598C321.746 202.094 321.639 201.646 321.424 201.254C321.219 200.862 320.934 200.554 320.57 200.33C320.215 200.097 319.809 199.98 319.352 199.98C318.951 199.98 318.577 200.064 318.232 200.232C317.896 200.391 317.621 200.619 317.406 200.918V204.264C317.63 204.563 317.91 204.796 318.246 204.964C318.591 205.132 318.96 205.216 319.352 205.216ZM326.726 206.14C326.138 206.14 325.69 206 325.382 205.72C325.084 205.431 324.934 205.015 324.934 204.474V200.008H323.52V199.168H324.934V197.292L325.956 197.054V199.168H327.916V200.008H325.956V204.208C325.956 204.572 326.031 204.833 326.18 204.992C326.339 205.151 326.596 205.23 326.95 205.23C327.128 205.23 327.286 205.216 327.426 205.188C327.566 205.16 327.73 205.113 327.916 205.048V205.958C327.73 206.023 327.534 206.07 327.328 206.098C327.123 206.126 326.922 206.14 326.726 206.14ZM329.399 206V199.168H330.421V206H329.399ZM329.917 197.474C329.712 197.474 329.535 197.404 329.385 197.264C329.245 197.115 329.175 196.942 329.175 196.746C329.175 196.55 329.245 196.382 329.385 196.242C329.535 196.093 329.712 196.018 329.917 196.018C330.123 196.018 330.295 196.093 330.435 196.242C330.585 196.382 330.659 196.55 330.659 196.746C330.659 196.942 330.585 197.115 330.435 197.264C330.295 197.404 330.123 197.474 329.917 197.474ZM335.541 206.112C334.906 206.112 334.337 205.958 333.833 205.65C333.329 205.342 332.932 204.922 332.643 204.39C332.353 203.858 332.209 203.256 332.209 202.584C332.209 201.912 332.353 201.31 332.643 200.778C332.932 200.246 333.329 199.826 333.833 199.518C334.337 199.21 334.906 199.056 335.541 199.056C336.166 199.056 336.726 199.21 337.221 199.518C337.725 199.826 338.121 200.246 338.411 200.778C338.7 201.31 338.845 201.912 338.845 202.584C338.845 203.256 338.7 203.858 338.411 204.39C338.121 204.922 337.725 205.342 337.221 205.65C336.726 205.958 336.166 206.112 335.541 206.112ZM335.527 205.216C335.975 205.216 336.371 205.104 336.717 204.88C337.062 204.647 337.333 204.329 337.529 203.928C337.734 203.527 337.837 203.079 337.837 202.584C337.837 202.08 337.734 201.632 337.529 201.24C337.333 200.839 337.062 200.526 336.717 200.302C336.371 200.069 335.975 199.952 335.527 199.952C335.079 199.952 334.682 200.069 334.337 200.302C333.991 200.526 333.716 200.839 333.511 201.24C333.315 201.632 333.217 202.08 333.217 202.584C333.217 203.079 333.315 203.527 333.511 203.928C333.716 204.329 333.991 204.647 334.337 204.88C334.682 205.104 335.079 205.216 335.527 205.216ZM340.638 206V199.168H341.66V200.274C341.921 199.863 342.234 199.56 342.598 199.364C342.962 199.159 343.373 199.056 343.83 199.056C344.325 199.056 344.754 199.163 345.118 199.378C345.491 199.583 345.781 199.877 345.986 200.26C346.201 200.633 346.308 201.072 346.308 201.576V206H345.286V201.87C345.286 201.263 345.118 200.787 344.782 200.442C344.455 200.087 344.012 199.91 343.452 199.91C343.079 199.91 342.738 199.999 342.43 200.176C342.122 200.353 341.865 200.615 341.66 200.96V206H340.638ZM351.294 206V205.258L355.214 200.974C355.522 200.638 355.76 200.344 355.928 200.092C356.105 199.831 356.227 199.588 356.292 199.364C356.367 199.14 356.404 198.902 356.404 198.65C356.404 198.155 356.208 197.749 355.816 197.432C355.433 197.105 354.943 196.942 354.346 196.942C353.889 196.942 353.464 197.031 353.072 197.208C352.68 197.385 352.241 197.693 351.756 198.132L351.168 197.432C351.681 196.965 352.199 196.62 352.722 196.396C353.245 196.163 353.791 196.046 354.36 196.046C354.948 196.046 355.471 196.158 355.928 196.382C356.385 196.597 356.745 196.895 357.006 197.278C357.267 197.661 357.398 198.099 357.398 198.594C357.398 198.921 357.356 199.224 357.272 199.504C357.188 199.775 357.039 200.069 356.824 200.386C356.609 200.694 356.301 201.067 355.9 201.506L352.554 205.132L357.608 205.118V206H351.294ZM360 206.112C359.795 206.112 359.617 206.037 359.468 205.888C359.328 205.739 359.258 205.561 359.258 205.356C359.258 205.141 359.328 204.964 359.468 204.824C359.617 204.675 359.795 204.6 360 204.6C360.205 204.6 360.378 204.675 360.518 204.824C360.667 204.964 360.742 205.141 360.742 205.356C360.742 205.561 360.667 205.739 360.518 205.888C360.378 206.037 360.205 206.112 360 206.112ZM362.464 206V205.258L366.384 200.974C366.692 200.638 366.93 200.344 367.098 200.092C367.275 199.831 367.397 199.588 367.462 199.364C367.537 199.14 367.574 198.902 367.574 198.65C367.574 198.155 367.378 197.749 366.986 197.432C366.603 197.105 366.113 196.942 365.516 196.942C365.059 196.942 364.634 197.031 364.242 197.208C363.85 197.385 363.411 197.693 362.926 198.132L362.338 197.432C362.851 196.965 363.369 196.62 363.892 196.396C364.415 196.163 364.961 196.046 365.53 196.046C366.118 196.046 366.641 196.158 367.098 196.382C367.555 196.597 367.915 196.895 368.176 197.278C368.437 197.661 368.568 198.099 368.568 198.594C368.568 198.921 368.526 199.224 368.442 199.504C368.358 199.775 368.209 200.069 367.994 200.386C367.779 200.694 367.471 201.067 367.07 201.506L363.724 205.132L368.778 205.118V206H362.464Z" fill="#151515"/>
<path fill-rule="evenodd" clip-rule="evenodd" d="M386.997 206.461L391.092 202.496C391.375 202.222 391.375 201.779 391.089 201.504L386.994 197.539C386.714 197.265 386.256 197.265 385.973 197.539L385.296 198.204C385.012 198.475 385.012 198.918 385.296 199.192L388.198 202.003L385.296 204.814C385.012 205.085 385.012 205.528 385.296 205.802L385.976 206.461C386.256 206.735 386.714 206.735 386.997 206.461Z" fill="#1F1F1F"/>
<path d="M309.67 243.154C308.989 243.154 308.354 243.028 307.766 242.776C307.178 242.515 306.66 242.155 306.212 241.698C305.773 241.231 305.428 240.695 305.176 240.088C304.924 239.472 304.798 238.809 304.798 238.1C304.798 237.391 304.924 236.733 305.176 236.126C305.428 235.51 305.773 234.973 306.212 234.516C306.66 234.049 307.178 233.69 307.766 233.438C308.354 233.177 308.989 233.046 309.67 233.046C310.351 233.046 310.986 233.177 311.574 233.438C312.162 233.69 312.675 234.049 313.114 234.516C313.562 234.973 313.912 235.51 314.164 236.126C314.416 236.733 314.542 237.391 314.542 238.1C314.542 238.809 314.416 239.472 314.164 240.088C313.912 240.695 313.562 241.231 313.114 241.698C312.675 242.155 312.162 242.515 311.574 242.776C310.986 243.028 310.351 243.154 309.67 243.154ZM309.67 242.174C310.202 242.174 310.697 242.071 311.154 241.866C311.611 241.661 312.013 241.371 312.358 240.998C312.703 240.625 312.969 240.191 313.156 239.696C313.352 239.201 313.45 238.669 313.45 238.1C313.45 237.521 313.352 236.989 313.156 236.504C312.969 236.009 312.703 235.575 312.358 235.202C312.013 234.829 311.611 234.539 311.154 234.334C310.697 234.129 310.202 234.026 309.67 234.026C309.138 234.026 308.643 234.129 308.186 234.334C307.729 234.539 307.327 234.829 306.982 235.202C306.637 235.575 306.366 236.009 306.17 236.504C305.983 236.989 305.89 237.517 305.89 238.086C305.89 238.665 305.983 239.201 306.17 239.696C306.366 240.191 306.637 240.625 306.982 240.998C307.327 241.371 307.729 241.661 308.186 241.866C308.643 242.071 309.138 242.174 309.67 242.174ZM316.384 245.926V236.168H317.392V237.148C317.653 236.803 317.971 236.541 318.344 236.364C318.727 236.177 319.147 236.084 319.604 236.084C320.201 236.084 320.733 236.243 321.2 236.56C321.676 236.868 322.054 237.288 322.334 237.82C322.614 238.343 322.754 238.931 322.754 239.584C322.754 240.237 322.609 240.83 322.32 241.362C322.04 241.894 321.657 242.319 321.172 242.636C320.696 242.944 320.155 243.098 319.548 243.098C319.119 243.098 318.722 243.019 318.358 242.86C317.994 242.692 317.677 242.454 317.406 242.146V245.926H316.384ZM319.352 242.216C319.809 242.216 320.215 242.104 320.57 241.88C320.934 241.647 321.219 241.334 321.424 240.942C321.639 240.541 321.746 240.093 321.746 239.598C321.746 239.094 321.639 238.646 321.424 238.254C321.219 237.862 320.934 237.554 320.57 237.33C320.215 237.097 319.809 236.98 319.352 236.98C318.951 236.98 318.577 237.064 318.232 237.232C317.896 237.391 317.621 237.619 317.406 237.918V241.264C317.63 241.563 317.91 241.796 318.246 241.964C318.591 242.132 318.96 242.216 319.352 242.216ZM326.726 243.14C326.138 243.14 325.69 243 325.382 242.72C325.084 242.431 324.934 242.015 324.934 241.474V237.008H323.52V236.168H324.934V234.292L325.956 234.054V236.168H327.916V237.008H325.956V241.208C325.956 241.572 326.031 241.833 326.18 241.992C326.339 242.151 326.596 242.23 326.95 242.23C327.128 242.23 327.286 242.216 327.426 242.188C327.566 242.16 327.73 242.113 327.916 242.048V242.958C327.73 243.023 327.534 243.07 327.328 243.098C327.123 243.126 326.922 243.14 326.726 243.14ZM329.399 243V236.168H330.421V243H329.399ZM329.917 234.474C329.712 234.474 329.535 234.404 329.385 234.264C329.245 234.115 329.175 233.942 329.175 233.746C329.175 233.55 329.245 233.382 329.385 233.242C329.535 233.093 329.712 233.018 329.917 233.018C330.123 233.018 330.295 233.093 330.435 233.242C330.585 233.382 330.659 233.55 330.659 233.746C330.659 233.942 330.585 234.115 330.435 234.264C330.295 234.404 330.123 234.474 329.917 234.474ZM335.541 243.112C334.906 243.112 334.337 242.958 333.833 242.65C333.329 242.342 332.932 241.922 332.643 241.39C332.353 240.858 332.209 240.256 332.209 239.584C332.209 238.912 332.353 238.31 332.643 237.778C332.932 237.246 333.329 236.826 333.833 236.518C334.337 236.21 334.906 236.056 335.541 236.056C336.166 236.056 336.726 236.21 337.221 236.518C337.725 236.826 338.121 237.246 338.411 237.778C338.7 238.31 338.845 238.912 338.845 239.584C338.845 240.256 338.7 240.858 338.411 241.39C338.121 241.922 337.725 242.342 337.221 242.65C336.726 242.958 336.166 243.112 335.541 243.112ZM335.527 242.216C335.975 242.216 336.371 242.104 336.717 241.88C337.062 241.647 337.333 241.329 337.529 240.928C337.734 240.527 337.837 240.079 337.837 239.584C337.837 239.08 337.734 238.632 337.529 238.24C337.333 237.839 337.062 237.526 336.717 237.302C336.371 237.069 335.975 236.952 335.527 236.952C335.079 236.952 334.682 237.069 334.337 237.302C333.991 237.526 333.716 237.839 333.511 238.24C333.315 238.632 333.217 239.08 333.217 239.584C333.217 240.079 333.315 240.527 333.511 240.928C333.716 241.329 333.991 241.647 334.337 241.88C334.682 242.104 335.079 242.216 335.527 242.216ZM340.638 243V236.168H341.66V237.274C341.921 236.863 342.234 236.56 342.598 236.364C342.962 236.159 343.373 236.056 343.83 236.056C344.325 236.056 344.754 236.163 345.118 236.378C345.491 236.583 345.781 236.877 345.986 237.26C346.201 237.633 346.308 238.072 346.308 238.576V243H345.286V238.87C345.286 238.263 345.118 237.787 344.782 237.442C344.455 237.087 344.012 236.91 343.452 236.91C343.079 236.91 342.738 236.999 342.43 237.176C342.122 237.353 341.865 237.615 341.66 237.96V243H340.638ZM351.294 243V242.258L355.214 237.974C355.522 237.638 355.76 237.344 355.928 237.092C356.105 236.831 356.227 236.588 356.292 236.364C356.367 236.14 356.404 235.902 356.404 235.65C356.404 235.155 356.208 234.749 355.816 234.432C355.433 234.105 354.943 233.942 354.346 233.942C353.889 233.942 353.464 234.031 353.072 234.208C352.68 234.385 352.241 234.693 351.756 235.132L351.168 234.432C351.681 233.965 352.199 233.62 352.722 233.396C353.245 233.163 353.791 233.046 354.36 233.046C354.948 233.046 355.471 233.158 355.928 233.382C356.385 233.597 356.745 233.895 357.006 234.278C357.267 234.661 357.398 235.099 357.398 235.594C357.398 235.921 357.356 236.224 357.272 236.504C357.188 236.775 357.039 237.069 356.824 237.386C356.609 237.694 356.301 238.067 355.9 238.506L352.554 242.132L357.608 242.118V243H351.294ZM360 243.112C359.795 243.112 359.617 243.037 359.468 242.888C359.328 242.739 359.258 242.561 359.258 242.356C359.258 242.141 359.328 241.964 359.468 241.824C359.617 241.675 359.795 241.6 360 241.6C360.205 241.6 360.378 241.675 360.518 241.824C360.667 241.964 360.742 242.141 360.742 242.356C360.742 242.561 360.667 242.739 360.518 242.888C360.378 243.037 360.205 243.112 360 243.112ZM365.561 243.154C364.889 243.154 364.259 243.037 363.671 242.804C363.093 242.571 362.579 242.225 362.131 241.768L362.803 241.11C363.214 241.521 363.634 241.819 364.063 242.006C364.502 242.183 364.997 242.272 365.547 242.272C366.023 242.272 366.443 242.188 366.807 242.02C367.181 241.852 367.47 241.619 367.675 241.32C367.881 241.021 367.983 240.681 367.983 240.298C367.983 239.934 367.89 239.612 367.703 239.332C367.526 239.043 367.279 238.819 366.961 238.66C366.644 238.501 366.28 238.422 365.869 238.422H364.707V237.554H365.827C366.359 237.554 366.789 237.391 367.115 237.064C367.451 236.737 367.619 236.313 367.619 235.79C367.619 235.445 367.526 235.132 367.339 234.852C367.153 234.572 366.896 234.353 366.569 234.194C366.252 234.026 365.893 233.942 365.491 233.942C364.987 233.942 364.535 234.035 364.133 234.222C363.741 234.399 363.34 234.703 362.929 235.132L362.257 234.46C362.696 233.993 363.191 233.643 363.741 233.41C364.292 233.167 364.88 233.046 365.505 233.046C366.103 233.046 366.635 233.163 367.101 233.396C367.577 233.629 367.951 233.951 368.221 234.362C368.492 234.763 368.627 235.221 368.627 235.734C368.627 236.247 368.459 236.709 368.123 237.12C367.787 237.521 367.344 237.801 366.793 237.96C367.456 238.109 367.988 238.399 368.389 238.828C368.791 239.257 368.991 239.757 368.991 240.326C368.991 240.867 368.842 241.353 368.543 241.782C368.254 242.211 367.848 242.547 367.325 242.79C366.812 243.033 366.224 243.154 365.561 243.154Z" fill="#151515"/>
<path fill-rule="evenodd" clip-rule="evenodd" d="M386.997 243.461L391.092 239.496C391.375 239.222 391.375 238.779 391.089 238.504L386.994 234.539C386.714 234.265 386.256 234.265 385.973 234.539L385.296 235.204C385.012 235.475 385.012 235.918 385.296 236.192L388.198 239.003L385.296 241.814C385.012 242.085 385.012 242.528 385.296 242.802L385.976 243.461C386.256 243.735 386.714 243.735 386.997 243.461Z" fill="#1F1F1F"/>
</g>
<mask id="path-19-inside-1_1541_55481" fill="white">
<path fill-rule="evenodd" clip-rule="evenodd" d="M159.155 151.594C157.806 150.776 156.086 151.769 156.119 153.347L156.409 167.009C156.441 168.53 158.091 169.459 159.408 168.699L162.799 166.741L164.437 169.579C164.99 170.535 166.213 170.863 167.169 170.311L168.718 169.417C169.674 168.864 170.002 167.641 169.45 166.685L167.812 163.847L170.806 162.118C172.123 161.358 172.143 159.464 170.843 158.676L159.155 151.594Z"/>
</mask>
<path fill-rule="evenodd" clip-rule="evenodd" d="M159.155 151.594C157.806 150.776 156.086 151.769 156.119 153.347L156.409 167.009C156.441 168.53 158.091 169.459 159.408 168.699L162.799 166.741L164.437 169.579C164.99 170.535 166.213 170.863 167.169 170.311L168.718 169.417C169.674 168.864 170.002 167.641 169.45 166.685L167.812 163.847L170.806 162.118C172.123 161.358 172.143 159.464 170.843 158.676L159.155 151.594Z" fill="#FF00FF"/>
<path d="M156.119 153.347L155.119 153.368L155.119 153.368L156.119 153.347ZM159.155 151.594L159.673 150.738L159.673 150.738L159.155 151.594ZM156.409 167.009L155.409 167.03L155.409 167.03L156.409 167.009ZM159.408 168.699L158.908 167.833L159.408 168.699ZM162.799 166.741L163.665 166.241L163.165 165.375L162.299 165.875L162.799 166.741ZM169.45 166.685L168.584 167.185L169.45 166.685ZM167.812 163.847L167.312 162.981L166.446 163.481L166.946 164.347L167.812 163.847ZM170.843 158.676L170.324 159.531L170.324 159.531L170.843 158.676ZM156.119 153.347L157.119 153.325C157.102 152.537 157.962 152.04 158.637 152.449L159.155 151.594L159.673 150.738C157.65 149.512 155.069 151.002 155.119 153.368L156.119 153.347ZM156.409 167.009L157.409 166.988L157.119 153.325L156.119 153.347L155.119 153.368L155.409 167.03L156.409 167.009ZM159.408 168.699L158.908 167.833C158.25 168.213 157.425 167.748 157.409 166.988L156.409 167.009L155.409 167.03C155.457 169.311 157.933 170.705 159.908 169.565L159.408 168.699ZM162.799 166.741L162.299 165.875L158.908 167.833L159.408 168.699L159.908 169.565L163.299 167.607L162.799 166.741ZM164.437 169.579L165.303 169.079L163.665 166.241L162.799 166.741L161.933 167.241L163.571 170.079L164.437 169.579ZM167.169 170.311L166.669 169.445C166.191 169.721 165.579 169.557 165.303 169.079L164.437 169.579L163.571 170.079C164.4 171.514 166.234 172.005 167.669 171.177L167.169 170.311ZM168.718 169.417L168.218 168.551L166.669 169.445L167.169 170.311L167.669 171.177L169.218 170.283L168.718 169.417ZM169.45 166.685L168.584 167.185C168.86 167.663 168.696 168.275 168.218 168.551L168.718 169.417L169.218 170.283C170.653 169.454 171.144 167.62 170.316 166.185L169.45 166.685ZM167.812 163.847L166.946 164.347L168.584 167.185L169.45 166.685L170.316 166.185L168.678 163.347L167.812 163.847ZM170.806 162.118L170.306 161.252L167.312 162.981L167.812 163.847L168.312 164.713L171.306 162.984L170.806 162.118ZM170.843 158.676L170.324 159.531C170.975 159.925 170.965 160.872 170.306 161.252L170.806 162.118L171.306 162.984C173.282 161.844 173.312 159.003 171.361 157.821L170.843 158.676ZM159.155 151.594L158.637 152.449L170.324 159.531L170.843 158.676L171.361 157.821L159.673 150.738L159.155 151.594Z" fill="#FF00FF" mask="url(#path-19-inside-1_1541_55481)"/>
<path fill-rule="evenodd" clip-rule="evenodd" d="M161.827 151.843C162.134 150.524 161.951 149.065 161.203 147.77C159.691 145.151 156.446 144.195 153.954 145.634C151.463 147.072 150.669 150.361 152.18 152.979C152.849 154.138 153.858 154.971 154.991 155.415L154.903 151.239C154.869 149.662 156.59 148.669 157.939 149.486L161.827 151.843Z" fill="#FF00FF" fill-opacity="0.4"/>
<path d="M149.871 153.61L147.866 154.767" stroke="#FF00FF" stroke-linecap="round"/>
<path d="M164.909 144.928L162.904 146.085" stroke="#FF00FF" stroke-linecap="round"/>
<path d="M151.521 141.42L152.738 143.527" stroke="#FF00FF" stroke-linecap="round"/>
<path d="M43.52 42.12H46.4C47.3733 42.12 48.2533 41.8933 49.04 41.44C49.8267 40.9867 50.4467 40.38 50.9 39.62C51.3533 38.8467 51.58 37.98 51.58 37.02C51.58 36.0467 51.3533 35.1733 50.9 34.4C50.4467 33.6267 49.8267 33.0133 49.04 32.56C48.2533 32.1067 47.3733 31.88 46.4 31.88H43.52V42.12ZM41.42 44V30H46.36C47.4133 30 48.3867 30.18 49.28 30.54C50.1733 30.8867 50.9533 31.3733 51.62 32C52.2867 32.6267 52.8067 33.3667 53.18 34.22C53.5533 35.0733 53.74 36 53.74 37C53.74 38.0133 53.5533 38.9467 53.18 39.8C52.82 40.64 52.3067 41.3733 51.64 42C50.9733 42.6267 50.1867 43.12 49.28 43.48C48.3867 43.8267 47.4133 44 46.36 44H41.42ZM55.7113 44V33.82H57.7113V35.12C58.0313 34.64 58.4246 34.2667 58.8913 34C59.3713 33.72 59.9113 33.58 60.5113 33.58C60.9246 33.5933 61.2646 33.6533 61.5313 33.76V35.56C61.1446 35.4133 60.7513 35.34 60.3513 35.34C59.7646 35.34 59.2446 35.5 58.7913 35.82C58.3379 36.1267 57.9779 36.58 57.7113 37.18V44H55.7113ZM63.1331 44V33.82H65.1331V44H63.1331ZM64.1331 32.18C63.7998 32.18 63.5131 32.06 63.2731 31.82C63.0331 31.5667 62.9131 31.2733 62.9131 30.94C62.9131 30.5933 63.0331 30.3067 63.2731 30.08C63.5131 29.84 63.7998 29.72 64.1331 29.72C64.4798 29.72 64.7731 29.84 65.0131 30.08C65.2531 30.3067 65.3731 30.5933 65.3731 30.94C65.3731 31.2733 65.2531 31.5667 65.0131 31.82C64.7731 32.06 64.4798 32.18 64.1331 32.18ZM67.4886 44V30L69.4886 29.62V44H67.4886ZM71.8441 44V30L73.8441 29.62V44H71.8441ZM80.8795 44.16C79.9329 44.16 79.0662 43.9267 78.2795 43.46C77.4929 42.9933 76.8729 42.3667 76.4195 41.58C75.9662 40.78 75.7395 39.8867 75.7395 38.9C75.7395 37.9133 75.9662 37.0267 76.4195 36.24C76.8862 35.4533 77.5129 34.8267 78.2995 34.36C79.0862 33.8933 79.9595 33.66 80.9195 33.66C82.0662 33.66 83.0862 34 83.9795 34.68V30L85.9795 29.62V44H83.9995V43.02C83.1329 43.78 82.0929 44.16 80.8795 44.16ZM81.1395 42.42C81.7262 42.42 82.2595 42.3133 82.7395 42.1C83.2329 41.8867 83.6462 41.58 83.9795 41.18V36.6C83.6462 36.2267 83.2329 35.9333 82.7395 35.72C82.2462 35.4933 81.7129 35.38 81.1395 35.38C80.4995 35.38 79.9195 35.5333 79.3995 35.84C78.8795 36.1467 78.4662 36.5667 78.1595 37.1C77.8529 37.62 77.6995 38.2133 77.6995 38.88C77.6995 39.5467 77.8529 40.1467 78.1595 40.68C78.4662 41.2133 78.8795 41.64 79.3995 41.96C79.9195 42.2667 80.4995 42.42 81.1395 42.42ZM93.188 44.2C92.2013 44.2 91.3013 43.9667 90.488 43.5C89.688 43.0333 89.0546 42.4 88.588 41.6C88.1213 40.8 87.888 39.9067 87.888 38.92C87.888 37.9333 88.1213 37.04 88.588 36.24C89.0546 35.44 89.688 34.8067 90.488 34.34C91.3013 33.86 92.2013 33.62 93.188 33.62C94.188 33.62 95.088 33.86 95.888 34.34C96.688 34.8067 97.3213 35.44 97.788 36.24C98.2546 37.04 98.488 37.9333 98.488 38.92C98.488 39.9067 98.2546 40.8 97.788 41.6C97.3213 42.4 96.688 43.0333 95.888 43.5C95.088 43.9667 94.188 44.2 93.188 44.2ZM93.188 42.44C93.8146 42.44 94.3746 42.2867 94.868 41.98C95.3746 41.66 95.7746 41.2333 96.068 40.7C96.3746 40.1667 96.528 39.5733 96.528 38.92C96.528 38.2533 96.3813 37.66 96.088 37.14C95.7946 36.6067 95.3946 36.18 94.888 35.86C94.3813 35.54 93.8146 35.38 93.188 35.38C92.5613 35.38 91.9946 35.54 91.488 35.86C90.9813 36.18 90.5813 36.6067 90.288 37.14C89.9946 37.66 89.848 38.2533 89.848 38.92C89.848 39.5733 89.9946 40.1667 90.288 40.7C90.5813 41.2333 90.9813 41.66 91.488 41.98C91.9946 42.2867 92.5613 42.44 93.188 42.44ZM102.084 44L99.2439 33.82H101.184L103.164 41.3L105.484 33.82H107.204L109.524 41.3L111.504 33.82H113.384L110.524 44H108.604L106.324 36.54L104.024 44H102.084ZM114.813 44V33.82H116.813V34.86C117.599 34.0333 118.619 33.62 119.873 33.62C120.659 33.62 121.346 33.7867 121.933 34.12C122.533 34.4533 122.999 34.92 123.333 35.52C123.679 36.12 123.853 36.8133 123.853 37.6V44H121.853V37.94C121.853 37.14 121.626 36.5133 121.173 36.06C120.719 35.5933 120.099 35.36 119.313 35.36C118.779 35.36 118.299 35.4733 117.873 35.7C117.446 35.9267 117.093 36.2533 116.813 36.68V44H114.813ZM132.24 44L129.4 33.82H131.34L133.32 41.3L135.64 33.82H137.36L139.68 41.3L141.66 33.82H143.54L140.68 44H138.76L136.48 36.54L134.18 44H132.24ZM144.969 44V33.82H146.969V44H144.969ZM145.969 32.18C145.636 32.18 145.349 32.06 145.109 31.82C144.869 31.5667 144.749 31.2733 144.749 30.94C144.749 30.5933 144.869 30.3067 145.109 30.08C145.349 29.84 145.636 29.72 145.969 29.72C146.316 29.72 146.609 29.84 146.849 30.08C147.089 30.3067 147.209 30.5933 147.209 30.94C147.209 31.2733 147.089 31.5667 146.849 31.82C146.609 32.06 146.316 32.18 145.969 32.18ZM153.685 44.18C152.698 44.18 151.945 43.9533 151.425 43.5C150.905 43.0333 150.645 42.36 150.645 41.48V35.5H148.485V33.82H150.645V31.22L152.625 30.74V33.82H155.625V35.5H152.625V41.02C152.625 41.54 152.738 41.9133 152.965 42.14C153.205 42.3533 153.591 42.46 154.125 42.46C154.405 42.46 154.651 42.44 154.865 42.4C155.091 42.36 155.331 42.3 155.585 42.22V43.9C155.318 43.9933 155.005 44.06 154.645 44.1C154.298 44.1533 153.978 44.18 153.685 44.18ZM157.098 44V30L159.098 29.56V34.86C159.885 34.0333 160.905 33.62 162.158 33.62C162.945 33.62 163.631 33.7867 164.218 34.12C164.818 34.4533 165.285 34.92 165.618 35.52C165.965 36.12 166.138 36.8133 166.138 37.6V44H164.138V37.94C164.138 37.14 163.911 36.5133 163.458 36.06C163.005 35.5933 162.385 35.36 161.598 35.36C161.065 35.36 160.585 35.4733 160.158 35.7C159.731 35.9267 159.378 36.2533 159.098 36.68V44H157.098ZM175.55 29.44L174.31 34.1H172.19L174.03 29.44H175.55ZM177.67 44V30H183.73C184.65 30 185.45 30.1533 186.13 30.46C186.81 30.7667 187.337 31.2 187.71 31.76C188.083 32.3067 188.27 32.9533 188.27 33.7C188.27 34.38 188.097 34.98 187.75 35.5C187.403 36.02 186.917 36.4333 186.29 36.74C187.077 37.02 187.69 37.4467 188.13 38.02C188.583 38.58 188.81 39.24 188.81 40C188.81 40.8133 188.61 41.52 188.21 42.12C187.81 42.72 187.25 43.1867 186.53 43.52C185.81 43.84 184.963 44 183.99 44H177.67ZM179.77 35.94H183.61C184.397 35.94 185.023 35.7533 185.49 35.38C185.957 35.0067 186.19 34.5 186.19 33.86C186.19 33.22 185.957 32.7133 185.49 32.34C185.023 31.9667 184.397 31.78 183.61 31.78H179.77V35.94ZM179.77 42.22H183.83C184.71 42.22 185.403 42.0133 185.91 41.6C186.43 41.1867 186.69 40.6267 186.69 39.92C186.69 39.2267 186.43 38.6733 185.91 38.26C185.403 37.8333 184.71 37.62 183.83 37.62H179.77V42.22ZM194.068 44.18C193.335 44.18 192.688 44.0533 192.128 43.8C191.568 43.5333 191.128 43.1667 190.808 42.7C190.488 42.2333 190.328 41.6933 190.328 41.08C190.328 40.12 190.695 39.3667 191.428 38.82C192.161 38.26 193.168 37.98 194.448 37.98C195.448 37.98 196.375 38.1733 197.228 38.56V37.48C197.228 36.0267 196.401 35.3 194.748 35.3C194.281 35.3 193.795 35.3733 193.288 35.52C192.781 35.6533 192.215 35.8667 191.588 36.16L190.848 34.66C191.621 34.3 192.341 34.04 193.008 33.88C193.675 33.7067 194.348 33.62 195.028 33.62C196.348 33.62 197.368 33.9333 198.088 34.56C198.821 35.1867 199.188 36.08 199.188 37.24V44H197.228V43.12C196.775 43.48 196.288 43.7467 195.768 43.92C195.248 44.0933 194.681 44.18 194.068 44.18ZM192.248 41.04C192.248 41.5333 192.455 41.9333 192.868 42.24C193.295 42.5467 193.848 42.7 194.528 42.7C195.621 42.7 196.521 42.3733 197.228 41.72V40C196.495 39.5733 195.621 39.36 194.608 39.36C193.875 39.36 193.295 39.5133 192.868 39.82C192.455 40.1133 192.248 40.52 192.248 41.04ZM206.273 44.18C205.299 44.18 204.413 43.9467 203.613 43.48C202.826 43.0133 202.199 42.38 201.733 41.58C201.266 40.78 201.033 39.8867 201.033 38.9C201.033 37.9133 201.266 37.0267 201.733 36.24C202.199 35.44 202.826 34.8067 203.613 34.34C204.413 33.86 205.299 33.62 206.273 33.62C207.046 33.62 207.786 33.7667 208.493 34.06C209.213 34.3533 209.833 34.7667 210.353 35.3L209.113 36.68C208.726 36.2533 208.293 35.9333 207.813 35.72C207.333 35.5067 206.833 35.4 206.313 35.4C205.699 35.4 205.139 35.5533 204.633 35.86C204.139 36.1667 203.746 36.5867 203.453 37.12C203.159 37.6533 203.013 38.2467 203.013 38.9C203.013 39.5533 203.159 40.1533 203.453 40.7C203.746 41.2333 204.146 41.6533 204.653 41.96C205.159 42.2667 205.726 42.42 206.353 42.42C207.379 42.42 208.293 42.0133 209.093 41.2L210.312 42.48C209.779 43.0267 209.159 43.4467 208.453 43.74C207.759 44.0333 207.033 44.18 206.273 44.18ZM211.922 44V30L213.922 29.62V38.28L218.862 33.82H221.202L215.942 38.58L221.482 44H218.842L213.922 39.22V44H211.922ZM222.365 34.08L223.605 29.42H225.725L223.885 34.08H222.365ZM231.629 44V30L233.629 29.62V34.78C234.483 34.0333 235.516 33.66 236.729 33.66C237.689 33.66 238.556 33.8933 239.329 34.36C240.116 34.8267 240.736 35.4533 241.189 36.24C241.643 37.0267 241.869 37.9133 241.869 38.9C241.869 39.8867 241.636 40.78 241.169 41.58C240.716 42.3667 240.096 42.9933 239.309 43.46C238.536 43.9267 237.663 44.16 236.689 44.16C235.543 44.16 234.516 43.8133 233.609 43.12V44H231.629ZM236.469 42.42C237.123 42.42 237.703 42.2667 238.209 41.96C238.729 41.6533 239.143 41.24 239.449 40.72C239.756 40.1867 239.909 39.5867 239.909 38.92C239.909 38.2533 239.756 37.6533 239.449 37.12C239.143 36.5867 238.729 36.1667 238.209 35.86C237.703 35.5533 237.123 35.4 236.469 35.4C235.896 35.4 235.363 35.5067 234.869 35.72C234.376 35.9333 233.963 36.2333 233.629 36.62V41.22C233.963 41.5933 234.376 41.8867 234.869 42.1C235.376 42.3133 235.909 42.42 236.469 42.42ZM247.718 44.2C246.931 44.2 246.238 44.0333 245.638 43.7C245.038 43.3667 244.571 42.9 244.238 42.3C243.904 41.7 243.738 41 243.738 40.2V33.82H245.718V39.86C245.718 40.66 245.944 41.2933 246.398 41.76C246.864 42.2267 247.484 42.46 248.258 42.46C249.351 42.46 250.184 42.0133 250.758 41.12V33.82H252.758V44H250.758V42.96C249.971 43.7867 248.958 44.2 247.718 44.2ZM259.485 44.18C258.499 44.18 257.745 43.9533 257.225 43.5C256.705 43.0333 256.445 42.36 256.445 41.48V35.5H254.285V33.82H256.445V31.22L258.425 30.74V33.82H261.425V35.5H258.425V41.02C258.425 41.54 258.539 41.9133 258.765 42.14C259.005 42.3533 259.392 42.46 259.925 42.46C260.205 42.46 260.452 42.44 260.665 42.4C260.892 42.36 261.132 42.3 261.385 42.22V43.9C261.119 43.9933 260.805 44.06 260.445 44.1C260.099 44.1533 259.779 44.18 259.485 44.18ZM267.454 44.18C266.467 44.18 265.714 43.9533 265.194 43.5C264.674 43.0333 264.414 42.36 264.414 41.48V35.5H262.254V33.82H264.414V31.22L266.394 30.74V33.82H269.394V35.5H266.394V41.02C266.394 41.54 266.507 41.9133 266.734 42.14C266.974 42.3533 267.361 42.46 267.894 42.46C268.174 42.46 268.421 42.44 268.634 42.4C268.861 42.36 269.101 42.3 269.354 42.22V43.9C269.087 43.9933 268.774 44.06 268.414 44.1C268.067 44.1533 267.747 44.18 267.454 44.18ZM275.551 44.2C274.565 44.2 273.665 43.9667 272.851 43.5C272.051 43.0333 271.418 42.4 270.951 41.6C270.485 40.8 270.251 39.9067 270.251 38.92C270.251 37.9333 270.485 37.04 270.951 36.24C271.418 35.44 272.051 34.8067 272.851 34.34C273.665 33.86 274.565 33.62 275.551 33.62C276.551 33.62 277.451 33.86 278.251 34.34C279.051 34.8067 279.685 35.44 280.151 36.24C280.618 37.04 280.851 37.9333 280.851 38.92C280.851 39.9067 280.618 40.8 280.151 41.6C279.685 42.4 279.051 43.0333 278.251 43.5C277.451 43.9667 276.551 44.2 275.551 44.2ZM275.551 42.44C276.178 42.44 276.738 42.2867 277.231 41.98C277.738 41.66 278.138 41.2333 278.431 40.7C278.738 40.1667 278.891 39.5733 278.891 38.92C278.891 38.2533 278.745 37.66 278.451 37.14C278.158 36.6067 277.758 36.18 277.251 35.86C276.745 35.54 276.178 35.38 275.551 35.38C274.925 35.38 274.358 35.54 273.851 35.86C273.345 36.18 272.945 36.6067 272.651 37.14C272.358 37.66 272.211 38.2533 272.211 38.92C272.211 39.5733 272.358 40.1667 272.651 40.7C272.945 41.2333 273.345 41.66 273.851 41.98C274.358 42.2867 274.925 42.44 275.551 42.44ZM282.743 44V33.82H284.743V34.86C285.529 34.0333 286.549 33.62 287.803 33.62C288.589 33.62 289.276 33.7867 289.863 34.12C290.463 34.4533 290.929 34.92 291.263 35.52C291.609 36.12 291.783 36.8133 291.783 37.6V44H289.783V37.94C289.783 37.14 289.556 36.5133 289.103 36.06C288.649 35.5933 288.029 35.36 287.243 35.36C286.709 35.36 286.229 35.4733 285.803 35.7C285.376 35.9267 285.023 36.2533 284.743 36.68V44H282.743Z" fill="black"/>
<path d="M256.354 165.646C256.549 165.842 256.549 166.158 256.354 166.354L253.172 169.536C252.976 169.731 252.66 169.731 252.464 169.536C252.269 169.34 252.269 169.024 252.464 168.828L255.293 166L252.464 163.172C252.269 162.976 252.269 162.66 252.464 162.464C252.66 162.269 252.976 162.269 253.172 162.464L256.354 165.646ZM206 166V165.5H256V166V166.5H206V166Z" fill="#C806CC"/>
<defs>
<filter id="filter0_d_1541_55481" x="31" y="79" width="160" height="182" filterUnits="userSpaceOnUse" color-interpolation-filters="sRGB">
<feFlood flood-opacity="0" result="BackgroundImageFix"/>
<feColorMatrix in="SourceAlpha" type="matrix" values="0 0 0 0 0 0 0 0 0 0 0 0 0 0 0 0 0 0 127 0" result="hardAlpha"/>
<feOffset dy="4"/>
<feGaussianBlur stdDeviation="4.5"/>
<feColorMatrix type="matrix" values="0 0 0 0 0.160784 0 0 0 0 0.160784 0 0 0 0 0.160784 0 0 0 0.15 0"/>
<feBlend mode="normal" in2="BackgroundImageFix" result="effect1_dropShadow_1541_55481"/>
<feBlend mode="normal" in="SourceGraphic" in2="effect1_dropShadow_1541_55481" result="shape"/>
</filter>
<filter id="filter1_d_1541_55481" x="271" y="79" width="160" height="198" filterUnits="userSpaceOnUse" color-interpolation-filters="sRGB">
<feFlood flood-opacity="0" result="BackgroundImageFix"/>
<feColorMatrix in="SourceAlpha" type="matrix" values="0 0 0 0 0 0 0 0 0 0 0 0 0 0 0 0 0 0 127 0" result="hardAlpha"/>
<feOffset dy="4"/>
<feGaussianBlur stdDeviation="4.5"/>
<feColorMatrix type="matrix" values="0 0 0 0 0.160784 0 0 0 0 0.160784 0 0 0 0 0.160784 0 0 0 0.15 0"/>
<feBlend mode="normal" in2="BackgroundImageFix" result="effect1_dropShadow_1541_55481"/>
<feBlend mode="normal" in="SourceGraphic" in2="effect1_dropShadow_1541_55481" result="shape"/>
</filter>
</defs>
</svg>
