<svg width="546" height="229" viewBox="0 0 546 229" fill="none" xmlns="http://www.w3.org/2000/svg">
<g clip-path="url(#clip0_1539_56071)">
<rect width="546" height="229" fill="white"/>
<path d="M43.1832 40.496H45.4872C46.2659 40.496 46.9699 40.3147 47.5992 39.952C48.2285 39.5893 48.7245 39.104 49.0872 38.496C49.4499 37.8773 49.6312 37.184 49.6312 36.416C49.6312 35.6373 49.4499 34.9387 49.0872 34.32C48.7245 33.7013 48.2285 33.2107 47.5992 32.848C46.9699 32.4853 46.2659 32.304 45.4872 32.304H43.1832V40.496ZM41.5032 42V30.8H45.4552C46.2979 30.8 47.0765 30.944 47.7912 31.232C48.5059 31.5093 49.1299 31.8987 49.6632 32.4C50.1965 32.9013 50.6125 33.4933 50.9112 34.176C51.2099 34.8587 51.3592 35.6 51.3592 36.4C51.3592 37.2107 51.2099 37.9573 50.9112 38.64C50.6232 39.312 50.2125 39.8987 49.6792 40.4C49.1459 40.9013 48.5165 41.296 47.7912 41.584C47.0765 41.8613 46.2979 42 45.4552 42H41.5032ZM56.8402 42.144C56.0402 42.144 55.3149 41.9573 54.6642 41.584C54.0242 41.2107 53.5122 40.704 53.1282 40.064C52.7549 39.424 52.5682 38.7093 52.5682 37.92C52.5682 37.1413 52.7495 36.4373 53.1122 35.808C53.4749 35.168 53.9655 34.6613 54.5842 34.288C55.2029 33.904 55.8909 33.712 56.6482 33.712C57.4055 33.712 58.0775 33.904 58.6642 34.288C59.2509 34.6613 59.7149 35.1733 60.0562 35.824C60.4082 36.464 60.5842 37.1893 60.5842 38V38.448H54.1682C54.2535 38.896 54.4189 39.296 54.6642 39.648C54.9202 40 55.2402 40.2773 55.6242 40.48C56.0189 40.6827 56.4455 40.784 56.9042 40.784C57.2989 40.784 57.6775 40.7253 58.0402 40.608C58.4135 40.48 58.7229 40.2987 58.9682 40.064L59.9922 41.072C59.5122 41.4347 59.0162 41.7067 58.5042 41.888C58.0029 42.0587 57.4482 42.144 56.8402 42.144ZM54.1842 37.248H59.0002C58.9362 36.8213 58.7869 36.448 58.5522 36.128C58.3282 35.7973 58.0455 35.5413 57.7042 35.36C57.3735 35.168 57.0109 35.072 56.6162 35.072C55.9975 35.072 55.4642 35.2747 55.0162 35.68C54.5789 36.0747 54.3015 36.5973 54.1842 37.248ZM63.0897 42V35.2H61.2017V33.856H63.0897V32.624C63.0897 31.7707 63.3244 31.12 63.7937 30.672C64.2737 30.224 64.9564 30 65.8417 30C66.0657 30 66.2737 30.016 66.4657 30.048C66.6684 30.0693 66.8497 30.1067 67.0097 30.16V31.536C66.8177 31.4827 66.647 31.4453 66.4977 31.424C66.3484 31.392 66.183 31.376 66.0017 31.376C65.1164 31.376 64.6737 31.808 64.6737 32.672V33.856H67.0097V35.2H64.6737V42H63.0897ZM70.5434 42.144C69.9568 42.144 69.4394 42.0427 68.9914 41.84C68.5434 41.6267 68.1914 41.3333 67.9354 40.96C67.6794 40.5867 67.5514 40.1547 67.5514 39.664C67.5514 38.896 67.8448 38.2933 68.4314 37.856C69.0181 37.408 69.8234 37.184 70.8474 37.184C71.6474 37.184 72.3888 37.3387 73.0714 37.648V36.784C73.0714 35.6213 72.4101 35.04 71.0874 35.04C70.7141 35.04 70.3248 35.0987 69.9194 35.216C69.5141 35.3227 69.0608 35.4933 68.5594 35.728L67.9674 34.528C68.5861 34.24 69.1621 34.032 69.6954 33.904C70.2288 33.7653 70.7674 33.696 71.3114 33.696C72.3674 33.696 73.1834 33.9467 73.7594 34.448C74.3461 34.9493 74.6394 35.664 74.6394 36.592V42H73.0714V41.296C72.7088 41.584 72.3194 41.7973 71.9034 41.936C71.4874 42.0747 71.0341 42.144 70.5434 42.144ZM69.0874 39.632C69.0874 40.0267 69.2528 40.3467 69.5834 40.592C69.9248 40.8373 70.3674 40.96 70.9114 40.96C71.7861 40.96 72.5061 40.6987 73.0714 40.176V38.8C72.4848 38.4587 71.7861 38.288 70.9754 38.288C70.3888 38.288 69.9248 38.4107 69.5834 38.656C69.2528 38.8907 69.0874 39.216 69.0874 39.632ZM79.5569 42.16C78.9276 42.16 78.3729 42.0267 77.8929 41.76C77.4129 41.4933 77.0396 41.12 76.7729 40.64C76.5063 40.16 76.3729 39.6 76.3729 38.96V33.856H77.9569V38.688C77.9569 39.328 78.1383 39.8347 78.5009 40.208C78.8743 40.5813 79.3703 40.768 79.9889 40.768C80.8636 40.768 81.5303 40.4107 81.9889 39.696V33.856H83.5889V42H81.9889V41.168C81.3596 41.8293 80.5489 42.16 79.5569 42.16ZM85.4831 42V30.8L87.0831 30.496V42H85.4831ZM92.4554 42.144C91.6661 42.144 91.0634 41.9627 90.6474 41.6C90.2314 41.2267 90.0234 40.688 90.0234 39.984V35.2H88.2954V33.856H90.0234V31.776L91.6074 31.392V33.856H94.0074V35.2H91.6074V39.616C91.6074 40.032 91.6981 40.3307 91.8794 40.512C92.0714 40.6827 92.3808 40.768 92.8074 40.768C93.0314 40.768 93.2288 40.752 93.3994 40.72C93.5808 40.688 93.7728 40.64 93.9754 40.576V41.92C93.7621 41.9947 93.5114 42.048 93.2234 42.08C92.9461 42.1227 92.6901 42.144 92.4554 42.144ZM101.33 42.16C100.626 42.16 99.9646 42.0587 99.3459 41.856C98.7379 41.6427 98.2099 41.344 97.7619 40.96L98.6419 39.904C99.0579 40.2347 99.4846 40.4907 99.9219 40.672C100.37 40.8427 100.823 40.928 101.282 40.928C101.858 40.928 102.327 40.816 102.69 40.592C103.053 40.368 103.234 40.0747 103.234 39.712C103.234 39.136 102.797 38.784 101.922 38.656L100.45 38.448C99.6393 38.3307 99.0313 38.08 98.6259 37.696C98.2206 37.312 98.0179 36.8 98.0179 36.16C98.0179 35.6693 98.1513 35.2427 98.4179 34.88C98.6846 34.5067 99.0579 34.2187 99.5379 34.016C100.018 33.8027 100.578 33.696 101.218 33.696C101.805 33.696 102.37 33.7813 102.914 33.952C103.458 34.1227 103.981 34.3893 104.482 34.752L103.666 35.808C102.781 35.232 101.922 34.944 101.09 34.944C100.599 34.944 100.205 35.0507 99.9059 35.264C99.6073 35.4667 99.4579 35.7333 99.4579 36.064C99.4579 36.3627 99.5593 36.5973 99.7619 36.768C99.9753 36.928 100.322 37.04 100.802 37.104L102.274 37.312C103.085 37.4293 103.698 37.68 104.114 38.064C104.53 38.4373 104.738 38.944 104.738 39.584C104.738 40.0747 104.589 40.5173 104.29 40.912C103.991 41.296 103.586 41.6 103.074 41.824C102.562 42.048 101.981 42.16 101.33 42.16ZM109.299 42.144C108.51 42.144 107.907 41.9627 107.491 41.6C107.075 41.2267 106.867 40.688 106.867 39.984V35.2H105.139V33.856H106.867V31.776L108.451 31.392V33.856H110.851V35.2H108.451V39.616C108.451 40.032 108.542 40.3307 108.723 40.512C108.915 40.6827 109.225 40.768 109.651 40.768C109.875 40.768 110.073 40.752 110.243 40.72C110.425 40.688 110.617 40.64 110.819 40.576V41.92C110.606 41.9947 110.355 42.048 110.067 42.08C109.79 42.1227 109.534 42.144 109.299 42.144ZM114.606 42.144C114.019 42.144 113.502 42.0427 113.054 41.84C112.606 41.6267 112.254 41.3333 111.998 40.96C111.742 40.5867 111.614 40.1547 111.614 39.664C111.614 38.896 111.907 38.2933 112.494 37.856C113.081 37.408 113.886 37.184 114.91 37.184C115.71 37.184 116.451 37.3387 117.134 37.648V36.784C117.134 35.6213 116.473 35.04 115.15 35.04C114.777 35.04 114.387 35.0987 113.982 35.216C113.577 35.3227 113.123 35.4933 112.622 35.728L112.03 34.528C112.649 34.24 113.225 34.032 113.758 33.904C114.291 33.7653 114.83 33.696 115.374 33.696C116.43 33.696 117.246 33.9467 117.822 34.448C118.409 34.9493 118.702 35.664 118.702 36.592V42H117.134V41.296C116.771 41.584 116.382 41.7973 115.966 41.936C115.55 42.0747 115.097 42.144 114.606 42.144ZM113.15 39.632C113.15 40.0267 113.315 40.3467 113.646 40.592C113.987 40.8373 114.43 40.96 114.974 40.96C115.849 40.96 116.569 40.6987 117.134 40.176V38.8C116.547 38.4587 115.849 38.288 115.038 38.288C114.451 38.288 113.987 38.4107 113.646 38.656C113.315 38.8907 113.15 39.216 113.15 39.632ZM123.799 42.144C123.01 42.144 122.407 41.9627 121.991 41.6C121.575 41.2267 121.367 40.688 121.367 39.984V35.2H119.639V33.856H121.367V31.776L122.951 31.392V33.856H125.351V35.2H122.951V39.616C122.951 40.032 123.042 40.3307 123.223 40.512C123.415 40.6827 123.725 40.768 124.151 40.768C124.375 40.768 124.573 40.752 124.743 40.72C124.925 40.688 125.117 40.64 125.319 40.576V41.92C125.106 41.9947 124.855 42.048 124.567 42.08C124.29 42.1227 124.034 42.144 123.799 42.144ZM130.309 42.144C129.509 42.144 128.784 41.9573 128.133 41.584C127.493 41.2107 126.981 40.704 126.597 40.064C126.224 39.424 126.037 38.7093 126.037 37.92C126.037 37.1413 126.218 36.4373 126.581 35.808C126.944 35.168 127.434 34.6613 128.053 34.288C128.672 33.904 129.36 33.712 130.117 33.712C130.874 33.712 131.546 33.904 132.133 34.288C132.72 34.6613 133.184 35.1733 133.525 35.824C133.877 36.464 134.053 37.1893 134.053 38V38.448H127.637C127.722 38.896 127.888 39.296 128.133 39.648C128.389 40 128.709 40.2773 129.093 40.48C129.488 40.6827 129.914 40.784 130.373 40.784C130.768 40.784 131.146 40.7253 131.509 40.608C131.882 40.48 132.192 40.2987 132.437 40.064L133.461 41.072C132.981 41.4347 132.485 41.7067 131.973 41.888C131.472 42.0587 130.917 42.144 130.309 42.144ZM127.653 37.248H132.469C132.405 36.8213 132.256 36.448 132.021 36.128C131.797 35.7973 131.514 35.5413 131.173 35.36C130.842 35.168 130.48 35.072 130.085 35.072C129.466 35.072 128.933 35.2747 128.485 35.68C128.048 36.0747 127.77 36.5973 127.653 37.248Z" fill="black"/>
<path d="M40.948 93V84.6H42.388V93H40.948ZM44.1798 93V86.988H45.5358V87.972C45.7678 87.612 46.0438 87.344 46.3638 87.168C46.6838 86.984 47.0398 86.892 47.4318 86.892C47.8478 86.892 48.2118 86.984 48.5238 87.168C48.8358 87.344 49.0798 87.592 49.2558 87.912C49.4398 88.232 49.5318 88.608 49.5318 89.04V93H48.1638V89.424C48.1638 88.984 48.0438 88.636 47.8038 88.38C47.5638 88.116 47.2438 87.984 46.8438 87.984C46.5718 87.984 46.3238 88.048 46.0998 88.176C45.8838 88.296 45.6958 88.476 45.5358 88.716V93H44.1798ZM51.1642 95.508V86.988H52.4962V87.84C52.7122 87.552 52.9802 87.332 53.3002 87.18C53.6282 87.02 53.9842 86.94 54.3682 86.94C54.8802 86.94 55.3402 87.076 55.7482 87.348C56.1562 87.62 56.4802 87.988 56.7202 88.452C56.9602 88.916 57.0802 89.432 57.0802 90C57.0802 90.568 56.9562 91.084 56.7082 91.548C56.4602 92.012 56.1242 92.38 55.7002 92.652C55.2762 92.924 54.8042 93.06 54.2842 93.06C53.9242 93.06 53.5922 92.996 53.2882 92.868C52.9922 92.732 52.7362 92.54 52.5202 92.292V95.508H51.1642ZM53.9602 91.932C54.3042 91.932 54.6082 91.848 54.8722 91.68C55.1442 91.512 55.3562 91.284 55.5082 90.996C55.6682 90.7 55.7482 90.368 55.7482 90C55.7482 89.632 55.6682 89.304 55.5082 89.016C55.3562 88.728 55.1442 88.5 54.8722 88.332C54.6082 88.164 54.3042 88.08 53.9602 88.08C53.6642 88.08 53.3922 88.14 53.1442 88.26C52.8962 88.372 52.6882 88.536 52.5202 88.752V91.26C52.6962 91.468 52.9082 91.632 53.1562 91.752C53.4042 91.872 53.6722 91.932 53.9602 91.932ZM60.5522 93.096C60.1362 93.096 59.7722 93.004 59.4602 92.82C59.1482 92.636 58.9002 92.384 58.7162 92.064C58.5402 91.744 58.4522 91.372 58.4522 90.948V86.988H59.8202V90.552C59.8202 91 59.9362 91.356 60.1682 91.62C60.4082 91.876 60.7322 92.004 61.1402 92.004C61.4122 92.004 61.6562 91.944 61.8722 91.824C62.0962 91.704 62.2882 91.524 62.4482 91.284V86.988H63.8042V93H62.4482V92.028C62.2162 92.38 61.9402 92.648 61.6202 92.832C61.3002 93.008 60.9442 93.096 60.5522 93.096ZM68.0765 93.12C67.4685 93.12 67.0085 92.98 66.6965 92.7C66.3845 92.412 66.2285 91.992 66.2285 91.44V88.068H65.0285V86.988H66.2285V85.332L67.5845 85.044V86.988H69.2525V88.068H67.5845V91.14C67.5845 91.436 67.6485 91.648 67.7765 91.776C67.9045 91.896 68.1205 91.956 68.4245 91.956C68.5605 91.956 68.6845 91.948 68.7965 91.932C68.9165 91.908 69.0645 91.868 69.2405 91.812V92.952C69.0725 93.008 68.8805 93.048 68.6645 93.072C68.4565 93.104 68.2605 93.12 68.0765 93.12ZM73.1486 93V84.396L74.5046 84.156V93H73.1486ZM77.996 93.108C77.58 93.108 77.208 93.032 76.88 92.88C76.56 92.72 76.308 92.504 76.124 92.232C75.948 91.952 75.86 91.632 75.86 91.272C75.86 90.912 75.952 90.6 76.136 90.336C76.328 90.072 76.596 89.868 76.94 89.724C77.284 89.58 77.692 89.508 78.164 89.508C78.444 89.508 78.72 89.54 78.992 89.604C79.264 89.66 79.528 89.756 79.784 89.892V89.22C79.784 88.82 79.668 88.52 79.436 88.32C79.212 88.12 78.868 88.02 78.404 88.02C78.156 88.02 77.888 88.06 77.6 88.14C77.32 88.212 77.004 88.328 76.652 88.488L76.172 87.504C77.052 87.096 77.884 86.892 78.668 86.892C79.452 86.892 80.056 87.084 80.48 87.468C80.912 87.844 81.128 88.38 81.128 89.076V93H79.784V92.376C79.528 92.624 79.252 92.808 78.956 92.928C78.66 93.048 78.34 93.108 77.996 93.108ZM77.132 91.248C77.132 91.528 77.244 91.748 77.468 91.908C77.692 92.068 77.992 92.148 78.368 92.148C78.64 92.148 78.892 92.108 79.124 92.028C79.364 91.94 79.584 91.812 79.784 91.644V90.672C79.576 90.576 79.36 90.504 79.136 90.456C78.912 90.408 78.668 90.384 78.404 90.384C78.012 90.384 77.7 90.46 77.468 90.612C77.244 90.764 77.132 90.976 77.132 91.248ZM82.7697 93V84.432L84.1257 84.204V87.792C84.3417 87.52 84.6057 87.312 84.9177 87.168C85.2377 87.016 85.5897 86.94 85.9737 86.94C86.4857 86.94 86.9457 87.076 87.3537 87.348C87.7617 87.62 88.0857 87.988 88.3257 88.452C88.5657 88.916 88.6857 89.432 88.6857 90C88.6857 90.568 88.5617 91.084 88.3137 91.548C88.0657 92.012 87.7297 92.38 87.3057 92.652C86.8817 92.924 86.4097 93.06 85.8897 93.06C85.5297 93.06 85.1977 92.988 84.8937 92.844C84.5897 92.7 84.3257 92.496 84.1017 92.232V93H82.7697ZM85.5657 91.932C85.9097 91.932 86.2137 91.848 86.4777 91.68C86.7497 91.512 86.9617 91.284 87.1137 90.996C87.2737 90.7 87.3537 90.368 87.3537 90C87.3537 89.632 87.2737 89.304 87.1137 89.016C86.9617 88.728 86.7497 88.5 86.4777 88.332C86.2137 88.164 85.9097 88.08 85.5657 88.08C85.2697 88.08 84.9977 88.14 84.7497 88.26C84.5017 88.372 84.2937 88.536 84.1257 88.752V91.26C84.3017 91.468 84.5137 91.632 84.7617 91.752C85.0097 91.872 85.2777 91.932 85.5657 91.932ZM92.9016 93.12C92.3256 93.12 91.8056 92.984 91.3416 92.712C90.8776 92.432 90.5096 92.06 90.2376 91.596C89.9656 91.124 89.8296 90.592 89.8296 90C89.8296 89.408 89.9576 88.88 90.2136 88.416C90.4696 87.952 90.8176 87.584 91.2576 87.312C91.7056 87.032 92.2016 86.892 92.7456 86.892C93.3056 86.892 93.7976 87.028 94.2216 87.3C94.6536 87.572 94.9896 87.94 95.2296 88.404C95.4776 88.868 95.6016 89.4 95.6016 90V90.324H91.1616C91.2096 90.652 91.3136 90.944 91.4736 91.2C91.6416 91.448 91.8536 91.644 92.1096 91.788C92.3736 91.932 92.6576 92.004 92.9616 92.004C93.2416 92.004 93.5056 91.956 93.7536 91.86C94.0096 91.756 94.2216 91.616 94.3896 91.44L95.2776 92.244C94.9096 92.548 94.5336 92.772 94.1496 92.916C93.7736 93.052 93.3576 93.12 92.9016 93.12ZM91.1736 89.484H94.3176C94.2696 89.196 94.1696 88.94 94.0176 88.716C93.8736 88.492 93.6896 88.316 93.4656 88.188C93.2496 88.06 93.0096 87.996 92.7456 87.996C92.4816 87.996 92.2376 88.06 92.0136 88.188C91.7976 88.308 91.6176 88.48 91.4736 88.704C91.3296 88.928 91.2296 89.188 91.1736 89.484ZM96.9845 93V84.396L98.3405 84.156V93H96.9845Z" fill="#151515"/>
<path d="M112 83C115.313 83 118 85.6875 118 89C118 92.3144 115.313 95 112 95C108.687 95 106 92.3144 106 89C106 85.6875 108.687 83 112 83ZM112 84.1611C109.326 84.1611 107.161 86.3267 107.161 89C107.161 91.6751 109.326 93.8389 112 93.8389C114.675 93.8389 116.839 91.6741 116.839 89C116.839 86.3259 114.673 84.1611 112 84.1611ZM112 90.6934C112.56 90.6934 113.017 91.1497 113.017 91.71C113.016 92.2701 112.56 92.7256 112 92.7256C111.44 92.7256 110.984 92.2701 110.983 91.71C110.983 91.1497 111.44 90.6934 112 90.6934ZM112.141 85.5166C113.328 85.5168 114.594 86.4428 114.595 87.6641C114.595 89.2862 112.843 89.3117 112.843 89.9111V90.0645C112.843 90.2248 112.712 90.3545 112.552 90.3545H111.448C111.288 90.3545 111.157 90.2248 111.157 90.0645V89.8555C111.157 88.9908 111.813 88.6449 112.309 88.3672C112.733 88.1291 112.994 87.9666 112.994 87.6514C112.994 87.2341 112.462 86.957 112.031 86.957C111.47 86.9571 111.212 87.2224 110.848 87.6816C110.75 87.8054 110.57 87.8287 110.444 87.7334L109.771 87.2227C109.647 87.1289 109.62 86.9552 109.707 86.8271C110.279 85.9878 111.007 85.5166 112.141 85.5166Z" fill="#707070"/>
<path d="M188.136 42V30.8H189.816V35.6H195.768V30.8H197.448V42H195.768V37.12H189.816V42H188.136ZM203.41 42.16C202.62 42.16 201.9 41.9733 201.25 41.6C200.61 41.2267 200.103 40.72 199.73 40.08C199.356 39.44 199.17 38.7253 199.17 37.936C199.17 37.1467 199.356 36.432 199.73 35.792C200.103 35.152 200.61 34.6453 201.25 34.272C201.9 33.888 202.62 33.696 203.41 33.696C204.21 33.696 204.93 33.888 205.57 34.272C206.21 34.6453 206.716 35.152 207.09 35.792C207.463 36.432 207.65 37.1467 207.65 37.936C207.65 38.7253 207.463 39.44 207.09 40.08C206.716 40.72 206.21 41.2267 205.57 41.6C204.93 41.9733 204.21 42.16 203.41 42.16ZM203.41 40.752C203.911 40.752 204.359 40.6293 204.754 40.384C205.159 40.128 205.479 39.7867 205.714 39.36C205.959 38.9333 206.082 38.4587 206.082 37.936C206.082 37.4027 205.964 36.928 205.73 36.512C205.495 36.0853 205.175 35.744 204.77 35.488C204.364 35.232 203.911 35.104 203.41 35.104C202.908 35.104 202.455 35.232 202.05 35.488C201.644 35.744 201.324 36.0853 201.09 36.512C200.855 36.928 200.738 37.4027 200.738 37.936C200.738 38.4587 200.855 38.9333 201.09 39.36C201.324 39.7867 201.644 40.128 202.05 40.384C202.455 40.6293 202.908 40.752 203.41 40.752ZM211.552 42L208.032 33.856H209.792L212.336 39.952L214.88 33.856H216.576L213.088 42H211.552ZM221.239 42.144C220.439 42.144 219.713 41.9573 219.063 41.584C218.423 41.2107 217.911 40.704 217.527 40.064C217.153 39.424 216.967 38.7093 216.967 37.92C216.967 37.1413 217.148 36.4373 217.511 35.808C217.873 35.168 218.364 34.6613 218.983 34.288C219.601 33.904 220.289 33.712 221.047 33.712C221.804 33.712 222.476 33.904 223.063 34.288C223.649 34.6613 224.113 35.1733 224.455 35.824C224.807 36.464 224.983 37.1893 224.983 38V38.448H218.567C218.652 38.896 218.817 39.296 219.063 39.648C219.319 40 219.639 40.2773 220.023 40.48C220.417 40.6827 220.844 40.784 221.303 40.784C221.697 40.784 222.076 40.7253 222.439 40.608C222.812 40.48 223.121 40.2987 223.367 40.064L224.391 41.072C223.911 41.4347 223.415 41.7067 222.903 41.888C222.401 42.0587 221.847 42.144 221.239 42.144ZM218.583 37.248H223.399C223.335 36.8213 223.185 36.448 222.951 36.128C222.727 35.7973 222.444 35.5413 222.103 35.36C221.772 35.168 221.409 35.072 221.015 35.072C220.396 35.072 219.863 35.2747 219.415 35.68C218.977 36.0747 218.7 36.5973 218.583 37.248ZM226.507 42V33.856H228.107V34.896C228.363 34.512 228.677 34.2133 229.051 34C229.435 33.776 229.867 33.664 230.347 33.664C230.677 33.6747 230.949 33.7227 231.163 33.808V35.248C230.853 35.1307 230.539 35.072 230.219 35.072C229.749 35.072 229.333 35.2 228.971 35.456C228.608 35.7013 228.32 36.064 228.107 36.544V42H226.507ZM238.588 42.16C237.884 42.16 237.222 42.0587 236.604 41.856C235.996 41.6427 235.468 41.344 235.02 40.96L235.9 39.904C236.316 40.2347 236.742 40.4907 237.18 40.672C237.628 40.8427 238.081 40.928 238.54 40.928C239.116 40.928 239.585 40.816 239.948 40.592C240.31 40.368 240.492 40.0747 240.492 39.712C240.492 39.136 240.054 38.784 239.18 38.656L237.708 38.448C236.897 38.3307 236.289 38.08 235.884 37.696C235.478 37.312 235.276 36.8 235.276 36.16C235.276 35.6693 235.409 35.2427 235.676 34.88C235.942 34.5067 236.316 34.2187 236.796 34.016C237.276 33.8027 237.836 33.696 238.476 33.696C239.062 33.696 239.628 33.7813 240.172 33.952C240.716 34.1227 241.238 34.3893 241.74 34.752L240.924 35.808C240.038 35.232 239.18 34.944 238.348 34.944C237.857 34.944 237.462 35.0507 237.164 35.264C236.865 35.4667 236.716 35.7333 236.716 36.064C236.716 36.3627 236.817 36.5973 237.02 36.768C237.233 36.928 237.58 37.04 238.06 37.104L239.532 37.312C240.342 37.4293 240.956 37.68 241.372 38.064C241.788 38.4373 241.996 38.944 241.996 39.584C241.996 40.0747 241.846 40.5173 241.548 40.912C241.249 41.296 240.844 41.6 240.332 41.824C239.82 42.048 239.238 42.16 238.588 42.16ZM246.557 42.144C245.768 42.144 245.165 41.9627 244.749 41.6C244.333 41.2267 244.125 40.688 244.125 39.984V35.2H242.397V33.856H244.125V31.776L245.709 31.392V33.856H248.109V35.2H245.709V39.616C245.709 40.032 245.8 40.3307 245.981 40.512C246.173 40.6827 246.482 40.768 246.909 40.768C247.133 40.768 247.33 40.752 247.501 40.72C247.682 40.688 247.874 40.64 248.077 40.576V41.92C247.864 41.9947 247.613 42.048 247.325 42.08C247.048 42.1227 246.792 42.144 246.557 42.144ZM251.864 42.144C251.277 42.144 250.76 42.0427 250.312 41.84C249.864 41.6267 249.512 41.3333 249.256 40.96C249 40.5867 248.872 40.1547 248.872 39.664C248.872 38.896 249.165 38.2933 249.752 37.856C250.338 37.408 251.144 37.184 252.168 37.184C252.968 37.184 253.709 37.3387 254.392 37.648V36.784C254.392 35.6213 253.73 35.04 252.408 35.04C252.034 35.04 251.645 35.0987 251.24 35.216C250.834 35.3227 250.381 35.4933 249.88 35.728L249.288 34.528C249.906 34.24 250.482 34.032 251.016 33.904C251.549 33.7653 252.088 33.696 252.632 33.696C253.688 33.696 254.504 33.9467 255.08 34.448C255.666 34.9493 255.96 35.664 255.96 36.592V42H254.392V41.296C254.029 41.584 253.64 41.7973 253.224 41.936C252.808 42.0747 252.354 42.144 251.864 42.144ZM250.408 39.632C250.408 40.0267 250.573 40.3467 250.904 40.592C251.245 40.8373 251.688 40.96 252.232 40.96C253.106 40.96 253.826 40.6987 254.392 40.176V38.8C253.805 38.4587 253.106 38.288 252.296 38.288C251.709 38.288 251.245 38.4107 250.904 38.656C250.573 38.8907 250.408 39.216 250.408 39.632ZM261.057 42.144C260.268 42.144 259.665 41.9627 259.249 41.6C258.833 41.2267 258.625 40.688 258.625 39.984V35.2H256.897V33.856H258.625V31.776L260.209 31.392V33.856H262.609V35.2H260.209V39.616C260.209 40.032 260.3 40.3307 260.481 40.512C260.673 40.6827 260.982 40.768 261.409 40.768C261.633 40.768 261.83 40.752 262.001 40.72C262.182 40.688 262.374 40.64 262.577 40.576V41.92C262.364 41.9947 262.113 42.048 261.825 42.08C261.548 42.1227 261.292 42.144 261.057 42.144ZM267.567 42.144C266.767 42.144 266.041 41.9573 265.391 41.584C264.751 41.2107 264.239 40.704 263.855 40.064C263.481 39.424 263.295 38.7093 263.295 37.92C263.295 37.1413 263.476 36.4373 263.839 35.808C264.201 35.168 264.692 34.6613 265.311 34.288C265.929 33.904 266.617 33.712 267.375 33.712C268.132 33.712 268.804 33.904 269.391 34.288C269.977 34.6613 270.441 35.1733 270.783 35.824C271.135 36.464 271.311 37.1893 271.311 38V38.448H264.895C264.98 38.896 265.145 39.296 265.391 39.648C265.647 40 265.967 40.2773 266.351 40.48C266.745 40.6827 267.172 40.784 267.631 40.784C268.025 40.784 268.404 40.7253 268.767 40.608C269.14 40.48 269.449 40.2987 269.695 40.064L270.719 41.072C270.239 41.4347 269.743 41.7067 269.231 41.888C268.729 42.0587 268.175 42.144 267.567 42.144ZM264.911 37.248H269.727C269.663 36.8213 269.513 36.448 269.279 36.128C269.055 35.7973 268.772 35.5413 268.431 35.36C268.1 35.168 267.737 35.072 267.343 35.072C266.724 35.072 266.191 35.2747 265.743 35.68C265.305 36.0747 265.028 36.5973 264.911 37.248Z" fill="black"/>
<path d="M187.948 93V84.6H189.388V93H187.948ZM191.18 93V86.988H192.536V87.972C192.768 87.612 193.044 87.344 193.364 87.168C193.684 86.984 194.04 86.892 194.432 86.892C194.848 86.892 195.212 86.984 195.524 87.168C195.836 87.344 196.08 87.592 196.256 87.912C196.44 88.232 196.532 88.608 196.532 89.04V93H195.164V89.424C195.164 88.984 195.044 88.636 194.804 88.38C194.564 88.116 194.244 87.984 193.844 87.984C193.572 87.984 193.324 88.048 193.1 88.176C192.884 88.296 192.696 88.476 192.536 88.716V93H191.18ZM198.164 95.508V86.988H199.496V87.84C199.712 87.552 199.98 87.332 200.3 87.18C200.628 87.02 200.984 86.94 201.368 86.94C201.88 86.94 202.34 87.076 202.748 87.348C203.156 87.62 203.48 87.988 203.72 88.452C203.96 88.916 204.08 89.432 204.08 90C204.08 90.568 203.956 91.084 203.708 91.548C203.46 92.012 203.124 92.38 202.7 92.652C202.276 92.924 201.804 93.06 201.284 93.06C200.924 93.06 200.592 92.996 200.288 92.868C199.992 92.732 199.736 92.54 199.52 92.292V95.508H198.164ZM200.96 91.932C201.304 91.932 201.608 91.848 201.872 91.68C202.144 91.512 202.356 91.284 202.508 90.996C202.668 90.7 202.748 90.368 202.748 90C202.748 89.632 202.668 89.304 202.508 89.016C202.356 88.728 202.144 88.5 201.872 88.332C201.608 88.164 201.304 88.08 200.96 88.08C200.664 88.08 200.392 88.14 200.144 88.26C199.896 88.372 199.688 88.536 199.52 88.752V91.26C199.696 91.468 199.908 91.632 200.156 91.752C200.404 91.872 200.672 91.932 200.96 91.932ZM207.552 93.096C207.136 93.096 206.772 93.004 206.46 92.82C206.148 92.636 205.9 92.384 205.716 92.064C205.54 91.744 205.452 91.372 205.452 90.948V86.988H206.82V90.552C206.82 91 206.936 91.356 207.168 91.62C207.408 91.876 207.732 92.004 208.14 92.004C208.412 92.004 208.656 91.944 208.872 91.824C209.096 91.704 209.288 91.524 209.448 91.284V86.988H210.804V93H209.448V92.028C209.216 92.38 208.94 92.648 208.62 92.832C208.3 93.008 207.944 93.096 207.552 93.096ZM215.077 93.12C214.469 93.12 214.009 92.98 213.697 92.7C213.385 92.412 213.229 91.992 213.229 91.44V88.068H212.029V86.988H213.229V85.332L214.585 85.044V86.988H216.253V88.068H214.585V91.14C214.585 91.436 214.649 91.648 214.777 91.776C214.905 91.896 215.121 91.956 215.425 91.956C215.561 91.956 215.685 91.948 215.797 91.932C215.917 91.908 216.065 91.868 216.241 91.812V92.952C216.073 93.008 215.881 93.048 215.665 93.072C215.457 93.104 215.261 93.12 215.077 93.12ZM220.149 93V84.396L221.505 84.156V93H220.149ZM224.996 93.108C224.58 93.108 224.208 93.032 223.88 92.88C223.56 92.72 223.308 92.504 223.124 92.232C222.948 91.952 222.86 91.632 222.86 91.272C222.86 90.912 222.952 90.6 223.136 90.336C223.328 90.072 223.596 89.868 223.94 89.724C224.284 89.58 224.692 89.508 225.164 89.508C225.444 89.508 225.72 89.54 225.992 89.604C226.264 89.66 226.528 89.756 226.784 89.892V89.22C226.784 88.82 226.668 88.52 226.436 88.32C226.212 88.12 225.868 88.02 225.404 88.02C225.156 88.02 224.888 88.06 224.6 88.14C224.32 88.212 224.004 88.328 223.652 88.488L223.172 87.504C224.052 87.096 224.884 86.892 225.668 86.892C226.452 86.892 227.056 87.084 227.48 87.468C227.912 87.844 228.128 88.38 228.128 89.076V93H226.784V92.376C226.528 92.624 226.252 92.808 225.956 92.928C225.66 93.048 225.34 93.108 224.996 93.108ZM224.132 91.248C224.132 91.528 224.244 91.748 224.468 91.908C224.692 92.068 224.992 92.148 225.368 92.148C225.64 92.148 225.892 92.108 226.124 92.028C226.364 91.94 226.584 91.812 226.784 91.644V90.672C226.576 90.576 226.36 90.504 226.136 90.456C225.912 90.408 225.668 90.384 225.404 90.384C225.012 90.384 224.7 90.46 224.468 90.612C224.244 90.764 224.132 90.976 224.132 91.248ZM229.77 93V84.432L231.126 84.204V87.792C231.342 87.52 231.606 87.312 231.918 87.168C232.238 87.016 232.59 86.94 232.974 86.94C233.486 86.94 233.946 87.076 234.354 87.348C234.762 87.62 235.086 87.988 235.326 88.452C235.566 88.916 235.686 89.432 235.686 90C235.686 90.568 235.562 91.084 235.314 91.548C235.066 92.012 234.73 92.38 234.306 92.652C233.882 92.924 233.41 93.06 232.89 93.06C232.53 93.06 232.198 92.988 231.894 92.844C231.59 92.7 231.326 92.496 231.102 92.232V93H229.77ZM232.566 91.932C232.91 91.932 233.214 91.848 233.478 91.68C233.75 91.512 233.962 91.284 234.114 90.996C234.274 90.7 234.354 90.368 234.354 90C234.354 89.632 234.274 89.304 234.114 89.016C233.962 88.728 233.75 88.5 233.478 88.332C233.214 88.164 232.91 88.08 232.566 88.08C232.27 88.08 231.998 88.14 231.75 88.26C231.502 88.372 231.294 88.536 231.126 88.752V91.26C231.302 91.468 231.514 91.632 231.762 91.752C232.01 91.872 232.278 91.932 232.566 91.932ZM239.902 93.12C239.326 93.12 238.806 92.984 238.342 92.712C237.878 92.432 237.51 92.06 237.238 91.596C236.966 91.124 236.83 90.592 236.83 90C236.83 89.408 236.958 88.88 237.214 88.416C237.47 87.952 237.818 87.584 238.258 87.312C238.706 87.032 239.202 86.892 239.746 86.892C240.306 86.892 240.798 87.028 241.222 87.3C241.654 87.572 241.99 87.94 242.23 88.404C242.478 88.868 242.602 89.4 242.602 90V90.324H238.162C238.21 90.652 238.314 90.944 238.474 91.2C238.642 91.448 238.854 91.644 239.11 91.788C239.374 91.932 239.658 92.004 239.962 92.004C240.242 92.004 240.506 91.956 240.754 91.86C241.01 91.756 241.222 91.616 241.39 91.44L242.278 92.244C241.91 92.548 241.534 92.772 241.15 92.916C240.774 93.052 240.358 93.12 239.902 93.12ZM238.174 89.484H241.318C241.27 89.196 241.17 88.94 241.018 88.716C240.874 88.492 240.69 88.316 240.466 88.188C240.25 88.06 240.01 87.996 239.746 87.996C239.482 87.996 239.238 88.06 239.014 88.188C238.798 88.308 238.618 88.48 238.474 88.704C238.33 88.928 238.23 89.188 238.174 89.484ZM243.985 93V84.396L245.341 84.156V93H243.985Z" fill="#151515"/>
<g style="mix-blend-mode:multiply">
<path d="M259 83C262.313 83 265 85.6875 265 89C265 92.3144 262.313 95 259 95C255.687 95 253 92.3144 253 89C253 85.6875 255.687 83 259 83ZM259 84.1611C256.326 84.1611 254.161 86.3267 254.161 89C254.161 91.6751 256.326 93.8389 259 93.8389C261.675 93.8389 263.839 91.6741 263.839 89C263.839 86.3259 261.673 84.1611 259 84.1611ZM259 90.6934C259.56 90.6934 260.017 91.1497 260.017 91.71C260.016 92.2701 259.56 92.7256 259 92.7256C258.44 92.7256 257.984 92.2701 257.983 91.71C257.983 91.1497 258.44 90.6934 259 90.6934ZM259.141 85.5166C260.328 85.5168 261.594 86.4428 261.595 87.6641C261.595 89.2862 259.843 89.3117 259.843 89.9111V90.0645C259.843 90.2248 259.712 90.3545 259.552 90.3545H258.448C258.288 90.3545 258.157 90.2248 258.157 90.0645V89.8555C258.157 88.9908 258.813 88.6449 259.309 88.3672C259.733 88.1291 259.994 87.9666 259.994 87.6514C259.994 87.2341 259.462 86.957 259.031 86.957C258.47 86.9571 258.212 87.2224 257.848 87.6816C257.75 87.8054 257.57 87.8287 257.444 87.7334L256.771 87.2227C256.647 87.1289 256.62 86.9552 256.707 86.8271C257.279 85.9878 258.007 85.5166 259.141 85.5166Z" fill="#1F1F1F"/>
</g>
<path d="M348.928 42.16C348.032 42.16 347.168 41.984 346.336 41.632C345.504 41.28 344.768 40.784 344.128 40.144L345.152 38.96C345.76 39.5573 346.379 40 347.008 40.288C347.648 40.576 348.315 40.72 349.008 40.72C349.552 40.72 350.027 40.6453 350.432 40.496C350.848 40.336 351.168 40.112 351.392 39.824C351.616 39.536 351.728 39.2107 351.728 38.848C351.728 38.3467 351.552 37.9627 351.2 37.696C350.848 37.4293 350.267 37.2267 349.456 37.088L347.584 36.784C346.56 36.6027 345.792 36.272 345.28 35.792C344.779 35.312 344.528 34.672 344.528 33.872C344.528 33.232 344.699 32.672 345.04 32.192C345.381 31.7013 345.861 31.3227 346.48 31.056C347.109 30.7893 347.835 30.656 348.656 30.656C349.467 30.656 350.261 30.7893 351.04 31.056C351.829 31.312 352.539 31.6853 353.168 32.176L352.24 33.456C351.035 32.5387 349.813 32.08 348.576 32.08C347.851 32.08 347.264 32.2347 346.816 32.544C346.368 32.8427 346.144 33.2427 346.144 33.744C346.144 34.2027 346.299 34.5547 346.608 34.8C346.917 35.0347 347.429 35.2053 348.144 35.312L349.952 35.616C351.136 35.808 352.005 36.1547 352.56 36.656C353.115 37.1573 353.392 37.8453 353.392 38.72C353.392 39.4027 353.205 40.0053 352.832 40.528C352.459 41.04 351.936 41.44 351.264 41.728C350.592 42.016 349.813 42.16 348.928 42.16ZM358.817 42.144C358.017 42.144 357.291 41.9573 356.641 41.584C356.001 41.2107 355.489 40.704 355.105 40.064C354.731 39.424 354.545 38.7093 354.545 37.92C354.545 37.1413 354.726 36.4373 355.089 35.808C355.451 35.168 355.942 34.6613 356.561 34.288C357.179 33.904 357.867 33.712 358.625 33.712C359.382 33.712 360.054 33.904 360.641 34.288C361.227 34.6613 361.691 35.1733 362.033 35.824C362.385 36.464 362.561 37.1893 362.561 38V38.448H356.145C356.23 38.896 356.395 39.296 356.641 39.648C356.897 40 357.217 40.2773 357.601 40.48C357.995 40.6827 358.422 40.784 358.881 40.784C359.275 40.784 359.654 40.7253 360.017 40.608C360.39 40.48 360.699 40.2987 360.945 40.064L361.969 41.072C361.489 41.4347 360.993 41.7067 360.481 41.888C359.979 42.0587 359.425 42.144 358.817 42.144ZM356.161 37.248H360.977C360.913 36.8213 360.763 36.448 360.529 36.128C360.305 35.7973 360.022 35.5413 359.681 35.36C359.35 35.168 358.987 35.072 358.593 35.072C357.974 35.072 357.441 35.2747 356.993 35.68C356.555 36.0747 356.278 36.5973 356.161 37.248ZM364.085 42V30.8L365.685 30.496V42H364.085ZM371.473 42.144C370.673 42.144 369.948 41.9573 369.297 41.584C368.657 41.2107 368.145 40.704 367.761 40.064C367.388 39.424 367.201 38.7093 367.201 37.92C367.201 37.1413 367.382 36.4373 367.745 35.808C368.108 35.168 368.598 34.6613 369.217 34.288C369.836 33.904 370.524 33.712 371.281 33.712C372.038 33.712 372.71 33.904 373.297 34.288C373.884 34.6613 374.348 35.1733 374.689 35.824C375.041 36.464 375.217 37.1893 375.217 38V38.448H368.801C368.886 38.896 369.052 39.296 369.297 39.648C369.553 40 369.873 40.2773 370.257 40.48C370.652 40.6827 371.078 40.784 371.537 40.784C371.932 40.784 372.31 40.7253 372.673 40.608C373.046 40.48 373.356 40.2987 373.601 40.064L374.625 41.072C374.145 41.4347 373.649 41.7067 373.137 41.888C372.636 42.0587 372.081 42.144 371.473 42.144ZM368.817 37.248H373.633C373.569 36.8213 373.42 36.448 373.185 36.128C372.961 35.7973 372.678 35.5413 372.337 35.36C372.006 35.168 371.644 35.072 371.249 35.072C370.63 35.072 370.097 35.2747 369.649 35.68C369.212 36.0747 368.934 36.5973 368.817 37.248ZM380.596 42.144C379.817 42.144 379.108 41.9573 378.468 41.584C377.839 41.2107 377.337 40.704 376.964 40.064C376.591 39.424 376.404 38.7093 376.404 37.92C376.404 37.1307 376.591 36.4213 376.964 35.792C377.337 35.152 377.839 34.6453 378.468 34.272C379.108 33.888 379.817 33.696 380.596 33.696C381.215 33.696 381.807 33.8133 382.372 34.048C382.948 34.2827 383.444 34.6133 383.86 35.04L382.868 36.144C382.559 35.8027 382.212 35.5467 381.828 35.376C381.444 35.2053 381.044 35.12 380.628 35.12C380.137 35.12 379.689 35.2427 379.284 35.488C378.889 35.7333 378.575 36.0693 378.34 36.496C378.105 36.9227 377.988 37.3973 377.988 37.92C377.988 38.4427 378.105 38.9227 378.34 39.36C378.575 39.7867 378.895 40.1227 379.3 40.368C379.705 40.6133 380.159 40.736 380.66 40.736C381.481 40.736 382.212 40.4107 382.852 39.76L383.828 40.784C383.401 41.2213 382.905 41.5573 382.34 41.792C381.785 42.0267 381.204 42.144 380.596 42.144ZM388.76 42.144C387.971 42.144 387.368 41.9627 386.952 41.6C386.536 41.2267 386.328 40.688 386.328 39.984V35.2H384.6V33.856H386.328V31.776L387.912 31.392V33.856H390.312V35.2H387.912V39.616C387.912 40.032 388.003 40.3307 388.184 40.512C388.376 40.6827 388.685 40.768 389.112 40.768C389.336 40.768 389.533 40.752 389.704 40.72C389.885 40.688 390.077 40.64 390.28 40.576V41.92C390.067 41.9947 389.816 42.048 389.528 42.08C389.251 42.1227 388.995 42.144 388.76 42.144ZM395.27 42.144C394.47 42.144 393.745 41.9573 393.094 41.584C392.454 41.2107 391.942 40.704 391.558 40.064C391.185 39.424 390.998 38.7093 390.998 37.92C390.998 37.1413 391.179 36.4373 391.542 35.808C391.905 35.168 392.395 34.6613 393.014 34.288C393.633 33.904 394.321 33.712 395.078 33.712C395.835 33.712 396.507 33.904 397.094 34.288C397.681 34.6613 398.145 35.1733 398.486 35.824C398.838 36.464 399.014 37.1893 399.014 38V38.448H392.598C392.683 38.896 392.849 39.296 393.094 39.648C393.35 40 393.67 40.2773 394.054 40.48C394.449 40.6827 394.875 40.784 395.334 40.784C395.729 40.784 396.107 40.7253 396.47 40.608C396.843 40.48 397.153 40.2987 397.398 40.064L398.422 41.072C397.942 41.4347 397.446 41.7067 396.934 41.888C396.433 42.0587 395.878 42.144 395.27 42.144ZM392.614 37.248H397.43C397.366 36.8213 397.217 36.448 396.982 36.128C396.758 35.7973 396.475 35.5413 396.134 35.36C395.803 35.168 395.441 35.072 395.046 35.072C394.427 35.072 393.894 35.2747 393.446 35.68C393.009 36.0747 392.731 36.5973 392.614 37.248ZM404.313 42.128C403.556 42.128 402.862 41.9413 402.233 41.568C401.604 41.1947 401.108 40.6933 400.745 40.064C400.382 39.424 400.201 38.7093 400.201 37.92C400.201 37.1307 400.382 36.4213 400.745 35.792C401.118 35.1627 401.62 34.6613 402.249 34.288C402.878 33.9147 403.577 33.728 404.345 33.728C405.262 33.728 406.078 34 406.793 34.544V30.8L408.393 30.496V42H406.809V41.216C406.116 41.824 405.284 42.128 404.313 42.128ZM404.521 40.736C404.99 40.736 405.417 40.6507 405.801 40.48C406.196 40.3093 406.526 40.064 406.793 39.744V36.08C406.526 35.7813 406.196 35.5467 405.801 35.376C405.406 35.1947 404.98 35.104 404.521 35.104C404.009 35.104 403.545 35.2267 403.129 35.472C402.713 35.7173 402.382 36.0533 402.137 36.48C401.892 36.896 401.769 37.3707 401.769 37.904C401.769 38.4373 401.892 38.9173 402.137 39.344C402.382 39.7707 402.713 40.112 403.129 40.368C403.545 40.6133 404.009 40.736 404.521 40.736ZM416.432 42.16C415.728 42.16 415.066 42.0587 414.448 41.856C413.84 41.6427 413.312 41.344 412.864 40.96L413.743 39.904C414.16 40.2347 414.586 40.4907 415.024 40.672C415.472 40.8427 415.925 40.928 416.384 40.928C416.96 40.928 417.429 40.816 417.792 40.592C418.154 40.368 418.336 40.0747 418.336 39.712C418.336 39.136 417.898 38.784 417.024 38.656L415.552 38.448C414.741 38.3307 414.133 38.08 413.728 37.696C413.322 37.312 413.12 36.8 413.12 36.16C413.12 35.6693 413.253 35.2427 413.52 34.88C413.786 34.5067 414.16 34.2187 414.64 34.016C415.12 33.8027 415.68 33.696 416.32 33.696C416.906 33.696 417.472 33.7813 418.016 33.952C418.56 34.1227 419.082 34.3893 419.584 34.752L418.768 35.808C417.882 35.232 417.024 34.944 416.192 34.944C415.701 34.944 415.306 35.0507 415.008 35.264C414.709 35.4667 414.56 35.7333 414.56 36.064C414.56 36.3627 414.661 36.5973 414.864 36.768C415.077 36.928 415.424 37.04 415.904 37.104L417.376 37.312C418.186 37.4293 418.8 37.68 419.216 38.064C419.632 38.4373 419.84 38.944 419.84 39.584C419.84 40.0747 419.69 40.5173 419.392 40.912C419.093 41.296 418.688 41.6 418.176 41.824C417.664 42.048 417.082 42.16 416.432 42.16ZM424.401 42.144C423.611 42.144 423.009 41.9627 422.593 41.6C422.177 41.2267 421.969 40.688 421.969 39.984V35.2H420.241V33.856H421.969V31.776L423.553 31.392V33.856H425.953V35.2H423.553V39.616C423.553 40.032 423.643 40.3307 423.825 40.512C424.017 40.6827 424.326 40.768 424.753 40.768C424.977 40.768 425.174 40.752 425.345 40.72C425.526 40.688 425.718 40.64 425.921 40.576V41.92C425.707 41.9947 425.457 42.048 425.169 42.08C424.891 42.1227 424.635 42.144 424.401 42.144ZM429.708 42.144C429.121 42.144 428.604 42.0427 428.156 41.84C427.708 41.6267 427.356 41.3333 427.1 40.96C426.844 40.5867 426.715 40.1547 426.715 39.664C426.715 38.896 427.009 38.2933 427.596 37.856C428.182 37.408 428.988 37.184 430.012 37.184C430.812 37.184 431.553 37.3387 432.236 37.648V36.784C432.236 35.6213 431.574 35.04 430.252 35.04C429.878 35.04 429.489 35.0987 429.084 35.216C428.678 35.3227 428.225 35.4933 427.724 35.728L427.132 34.528C427.75 34.24 428.326 34.032 428.86 33.904C429.393 33.7653 429.932 33.696 430.476 33.696C431.532 33.696 432.348 33.9467 432.924 34.448C433.51 34.9493 433.804 35.664 433.804 36.592V42H432.236V41.296C431.873 41.584 431.484 41.7973 431.068 41.936C430.652 42.0747 430.198 42.144 429.708 42.144ZM428.252 39.632C428.252 40.0267 428.417 40.3467 428.748 40.592C429.089 40.8373 429.532 40.96 430.076 40.96C430.95 40.96 431.67 40.6987 432.236 40.176V38.8C431.649 38.4587 430.95 38.288 430.14 38.288C429.553 38.288 429.089 38.4107 428.748 38.656C428.417 38.8907 428.252 39.216 428.252 39.632ZM438.901 42.144C438.111 42.144 437.509 41.9627 437.093 41.6C436.677 41.2267 436.469 40.688 436.469 39.984V35.2H434.741V33.856H436.469V31.776L438.053 31.392V33.856H440.453V35.2H438.053V39.616C438.053 40.032 438.143 40.3307 438.325 40.512C438.517 40.6827 438.826 40.768 439.253 40.768C439.477 40.768 439.674 40.752 439.845 40.72C440.026 40.688 440.218 40.64 440.421 40.576V41.92C440.207 41.9947 439.957 42.048 439.669 42.08C439.391 42.1227 439.135 42.144 438.901 42.144ZM445.411 42.144C444.611 42.144 443.885 41.9573 443.235 41.584C442.595 41.2107 442.083 40.704 441.699 40.064C441.325 39.424 441.139 38.7093 441.139 37.92C441.139 37.1413 441.32 36.4373 441.683 35.808C442.045 35.168 442.536 34.6613 443.155 34.288C443.773 33.904 444.461 33.712 445.219 33.712C445.976 33.712 446.648 33.904 447.235 34.288C447.821 34.6613 448.285 35.1733 448.627 35.824C448.979 36.464 449.155 37.1893 449.155 38V38.448H442.739C442.824 38.896 442.989 39.296 443.235 39.648C443.491 40 443.811 40.2773 444.195 40.48C444.589 40.6827 445.016 40.784 445.475 40.784C445.869 40.784 446.248 40.7253 446.611 40.608C446.984 40.48 447.293 40.2987 447.539 40.064L448.562 41.072C448.083 41.4347 447.587 41.7067 447.075 41.888C446.573 42.0587 446.019 42.144 445.411 42.144ZM442.755 37.248H447.571C447.507 36.8213 447.357 36.448 447.123 36.128C446.899 35.7973 446.616 35.5413 446.275 35.36C445.944 35.168 445.581 35.072 445.187 35.072C444.568 35.072 444.035 35.2747 443.587 35.68C443.149 36.0747 442.872 36.5973 442.755 37.248Z" fill="black"/>
<path d="M344.948 93V84.6H346.388V93H344.948ZM348.18 93V86.988H349.536V87.972C349.768 87.612 350.044 87.344 350.364 87.168C350.684 86.984 351.04 86.892 351.432 86.892C351.848 86.892 352.212 86.984 352.524 87.168C352.836 87.344 353.08 87.592 353.256 87.912C353.44 88.232 353.532 88.608 353.532 89.04V93H352.164V89.424C352.164 88.984 352.044 88.636 351.804 88.38C351.564 88.116 351.244 87.984 350.844 87.984C350.572 87.984 350.324 88.048 350.1 88.176C349.884 88.296 349.696 88.476 349.536 88.716V93H348.18ZM355.164 95.508V86.988H356.496V87.84C356.712 87.552 356.98 87.332 357.3 87.18C357.628 87.02 357.984 86.94 358.368 86.94C358.88 86.94 359.34 87.076 359.748 87.348C360.156 87.62 360.48 87.988 360.72 88.452C360.96 88.916 361.08 89.432 361.08 90C361.08 90.568 360.956 91.084 360.708 91.548C360.46 92.012 360.124 92.38 359.7 92.652C359.276 92.924 358.804 93.06 358.284 93.06C357.924 93.06 357.592 92.996 357.288 92.868C356.992 92.732 356.736 92.54 356.52 92.292V95.508H355.164ZM357.96 91.932C358.304 91.932 358.608 91.848 358.872 91.68C359.144 91.512 359.356 91.284 359.508 90.996C359.668 90.7 359.748 90.368 359.748 90C359.748 89.632 359.668 89.304 359.508 89.016C359.356 88.728 359.144 88.5 358.872 88.332C358.608 88.164 358.304 88.08 357.96 88.08C357.664 88.08 357.392 88.14 357.144 88.26C356.896 88.372 356.688 88.536 356.52 88.752V91.26C356.696 91.468 356.908 91.632 357.156 91.752C357.404 91.872 357.672 91.932 357.96 91.932ZM364.552 93.096C364.136 93.096 363.772 93.004 363.46 92.82C363.148 92.636 362.9 92.384 362.716 92.064C362.54 91.744 362.452 91.372 362.452 90.948V86.988H363.82V90.552C363.82 91 363.936 91.356 364.168 91.62C364.408 91.876 364.732 92.004 365.14 92.004C365.412 92.004 365.656 91.944 365.872 91.824C366.096 91.704 366.288 91.524 366.448 91.284V86.988H367.804V93H366.448V92.028C366.216 92.38 365.94 92.648 365.62 92.832C365.3 93.008 364.944 93.096 364.552 93.096ZM372.077 93.12C371.469 93.12 371.009 92.98 370.697 92.7C370.385 92.412 370.229 91.992 370.229 91.44V88.068H369.029V86.988H370.229V85.332L371.585 85.044V86.988H373.253V88.068H371.585V91.14C371.585 91.436 371.649 91.648 371.777 91.776C371.905 91.896 372.121 91.956 372.425 91.956C372.561 91.956 372.685 91.948 372.797 91.932C372.917 91.908 373.065 91.868 373.241 91.812V92.952C373.073 93.008 372.881 93.048 372.665 93.072C372.457 93.104 372.261 93.12 372.077 93.12ZM377.149 93V84.396L378.505 84.156V93H377.149ZM381.996 93.108C381.58 93.108 381.208 93.032 380.88 92.88C380.56 92.72 380.308 92.504 380.124 92.232C379.948 91.952 379.86 91.632 379.86 91.272C379.86 90.912 379.952 90.6 380.136 90.336C380.328 90.072 380.596 89.868 380.94 89.724C381.284 89.58 381.692 89.508 382.164 89.508C382.444 89.508 382.72 89.54 382.992 89.604C383.264 89.66 383.528 89.756 383.784 89.892V89.22C383.784 88.82 383.668 88.52 383.436 88.32C383.212 88.12 382.868 88.02 382.404 88.02C382.156 88.02 381.888 88.06 381.6 88.14C381.32 88.212 381.004 88.328 380.652 88.488L380.172 87.504C381.052 87.096 381.884 86.892 382.668 86.892C383.452 86.892 384.056 87.084 384.48 87.468C384.912 87.844 385.128 88.38 385.128 89.076V93H383.784V92.376C383.528 92.624 383.252 92.808 382.956 92.928C382.66 93.048 382.34 93.108 381.996 93.108ZM381.132 91.248C381.132 91.528 381.244 91.748 381.468 91.908C381.692 92.068 381.992 92.148 382.368 92.148C382.64 92.148 382.892 92.108 383.124 92.028C383.364 91.94 383.584 91.812 383.784 91.644V90.672C383.576 90.576 383.36 90.504 383.136 90.456C382.912 90.408 382.668 90.384 382.404 90.384C382.012 90.384 381.7 90.46 381.468 90.612C381.244 90.764 381.132 90.976 381.132 91.248ZM386.77 93V84.432L388.126 84.204V87.792C388.342 87.52 388.606 87.312 388.918 87.168C389.238 87.016 389.59 86.94 389.974 86.94C390.486 86.94 390.946 87.076 391.354 87.348C391.762 87.62 392.086 87.988 392.326 88.452C392.566 88.916 392.686 89.432 392.686 90C392.686 90.568 392.562 91.084 392.314 91.548C392.066 92.012 391.73 92.38 391.306 92.652C390.882 92.924 390.41 93.06 389.89 93.06C389.53 93.06 389.198 92.988 388.894 92.844C388.59 92.7 388.326 92.496 388.102 92.232V93H386.77ZM389.566 91.932C389.91 91.932 390.214 91.848 390.478 91.68C390.75 91.512 390.962 91.284 391.114 90.996C391.274 90.7 391.354 90.368 391.354 90C391.354 89.632 391.274 89.304 391.114 89.016C390.962 88.728 390.75 88.5 390.478 88.332C390.214 88.164 389.91 88.08 389.566 88.08C389.27 88.08 388.998 88.14 388.75 88.26C388.502 88.372 388.294 88.536 388.126 88.752V91.26C388.302 91.468 388.514 91.632 388.762 91.752C389.01 91.872 389.278 91.932 389.566 91.932ZM396.902 93.12C396.326 93.12 395.806 92.984 395.342 92.712C394.878 92.432 394.51 92.06 394.238 91.596C393.966 91.124 393.83 90.592 393.83 90C393.83 89.408 393.958 88.88 394.214 88.416C394.47 87.952 394.818 87.584 395.258 87.312C395.706 87.032 396.202 86.892 396.746 86.892C397.306 86.892 397.798 87.028 398.222 87.3C398.654 87.572 398.99 87.94 399.23 88.404C399.478 88.868 399.602 89.4 399.602 90V90.324H395.162C395.21 90.652 395.314 90.944 395.474 91.2C395.642 91.448 395.854 91.644 396.11 91.788C396.374 91.932 396.658 92.004 396.962 92.004C397.242 92.004 397.506 91.956 397.754 91.86C398.01 91.756 398.222 91.616 398.39 91.44L399.278 92.244C398.91 92.548 398.534 92.772 398.15 92.916C397.774 93.052 397.358 93.12 396.902 93.12ZM395.174 89.484H398.318C398.27 89.196 398.17 88.94 398.018 88.716C397.874 88.492 397.69 88.316 397.466 88.188C397.25 88.06 397.01 87.996 396.746 87.996C396.482 87.996 396.238 88.06 396.014 88.188C395.798 88.308 395.618 88.48 395.474 88.704C395.33 88.928 395.23 89.188 395.174 89.484ZM400.985 93V84.396L402.341 84.156V93H400.985Z" fill="#151515"/>
<g style="mix-blend-mode:multiply">
<path d="M416 83C419.313 83 422 85.6875 422 89C422 92.3144 419.313 95 416 95C412.687 95 410 92.3144 410 89C410 85.6875 412.687 83 416 83ZM416 84.1611C413.326 84.1611 411.161 86.3267 411.161 89C411.161 91.6751 413.326 93.8389 416 93.8389C418.675 93.8389 420.839 91.6741 420.839 89C420.839 86.3259 418.673 84.1611 416 84.1611ZM416 90.6934C416.56 90.6934 417.017 91.1497 417.017 91.71C417.016 92.2701 416.56 92.7256 416 92.7256C415.44 92.7256 414.984 92.2701 414.983 91.71C414.983 91.1497 415.44 90.6934 416 90.6934ZM416.141 85.5166C417.328 85.5168 418.594 86.4428 418.595 87.6641C418.595 89.2862 416.843 89.3117 416.843 89.9111V90.0645C416.843 90.2248 416.712 90.3545 416.552 90.3545H415.448C415.288 90.3545 415.157 90.2248 415.157 90.0645V89.8555C415.157 88.9908 415.813 88.6449 416.309 88.3672C416.733 88.1291 416.994 87.9666 416.994 87.6514C416.994 87.2341 416.462 86.957 416.031 86.957C415.47 86.9571 415.212 87.2224 414.848 87.6816C414.75 87.8054 414.57 87.8287 414.444 87.7334L413.771 87.2227C413.647 87.1289 413.62 86.9552 413.707 86.8271C414.279 85.9878 415.007 85.5166 416.141 85.5166Z" fill="#1F1F1F"/>
</g>
<g filter="url(#filter0_d_1539_56071)">
<path d="M416 99L426.825 114H405.175L416 99Z" fill="white"/>
<path d="M316 130C316 121.163 323.163 114 332 114H500C508.837 114 516 121.163 516 130V180C516 188.837 508.837 196 500 196H332C323.163 196 316 188.837 316 180V130Z" fill="white"/>
<path d="M492.653 136.577C492.979 136.252 493.507 136.252 493.833 136.577L494.423 137.167C494.748 137.493 494.748 138.021 494.423 138.347L491.769 141L494.423 143.653C494.748 143.979 494.748 144.507 494.423 144.833L493.833 145.423C493.507 145.748 492.979 145.748 492.653 145.423L490 142.769L487.347 145.423C487.021 145.748 486.493 145.748 486.167 145.423L485.577 144.833C485.252 144.507 485.252 143.979 485.577 143.653L488.23 141L485.577 138.347C485.252 138.021 485.252 137.493 485.577 137.167L486.167 136.577C486.493 136.252 487.021 136.252 487.347 136.577L490 139.23L492.653 136.577Z" fill="#1F1F1F"/>
<path d="M333.176 145V135.2H337.558C338.221 135.2 338.795 135.331 339.28 135.592C339.775 135.844 340.157 136.199 340.428 136.656C340.699 137.113 340.834 137.645 340.834 138.252C340.834 138.831 340.699 139.349 340.428 139.806C340.157 140.263 339.775 140.623 339.28 140.884C338.795 141.136 338.221 141.262 337.558 141.262H334.856V145H333.176ZM334.856 139.89H337.292C337.889 139.89 338.347 139.741 338.664 139.442C338.981 139.134 339.14 138.733 339.14 138.238C339.14 137.753 338.981 137.361 338.664 137.062C338.347 136.763 337.894 136.614 337.306 136.614H334.856V139.89ZM345.059 145.126C344.396 145.126 343.794 144.967 343.253 144.65C342.721 144.333 342.301 143.903 341.993 143.362C341.685 142.811 341.531 142.191 341.531 141.5C341.531 140.809 341.685 140.193 341.993 139.652C342.301 139.101 342.721 138.667 343.253 138.35C343.785 138.033 344.387 137.874 345.059 137.874C345.731 137.874 346.328 138.033 346.851 138.35C347.383 138.667 347.803 139.101 348.111 139.652C348.419 140.193 348.573 140.809 348.573 141.5C348.573 142.191 348.419 142.811 348.111 143.362C347.803 143.903 347.383 144.333 346.851 144.65C346.328 144.967 345.731 145.126 345.059 145.126ZM345.059 143.782C345.442 143.782 345.778 143.684 346.067 143.488C346.366 143.292 346.599 143.021 346.767 142.676C346.935 142.321 347.019 141.929 347.019 141.5C347.019 141.061 346.935 140.674 346.767 140.338C346.599 139.993 346.366 139.722 346.067 139.526C345.778 139.321 345.442 139.218 345.059 139.218C344.676 139.218 344.336 139.321 344.037 139.526C343.738 139.722 343.505 139.993 343.337 140.338C343.169 140.674 343.085 141.061 343.085 141.5C343.085 141.939 343.169 142.331 343.337 142.676C343.505 143.021 343.738 143.292 344.037 143.488C344.336 143.684 344.676 143.782 345.059 143.782ZM350.207 147.926V137.986H351.761V138.98C352.013 138.644 352.325 138.387 352.699 138.21C353.081 138.023 353.497 137.93 353.945 137.93C354.542 137.93 355.079 138.089 355.555 138.406C356.031 138.723 356.409 139.153 356.689 139.694C356.969 140.235 357.109 140.837 357.109 141.5C357.109 142.163 356.964 142.765 356.675 143.306C356.385 143.847 355.993 144.277 355.499 144.594C355.004 144.911 354.453 145.07 353.847 145.07C353.427 145.07 353.039 144.995 352.685 144.846C352.339 144.687 352.041 144.463 351.789 144.174V147.926H350.207ZM353.469 143.754C353.87 143.754 354.225 143.656 354.533 143.46C354.85 143.264 355.097 142.998 355.275 142.662C355.461 142.317 355.555 141.929 355.555 141.5C355.555 141.071 355.461 140.688 355.275 140.352C355.097 140.016 354.85 139.75 354.533 139.554C354.225 139.358 353.87 139.26 353.469 139.26C353.123 139.26 352.806 139.33 352.517 139.47C352.227 139.601 351.985 139.792 351.789 140.044V142.97C351.994 143.213 352.241 143.404 352.531 143.544C352.82 143.684 353.133 143.754 353.469 143.754ZM361.971 145.126C361.308 145.126 360.706 144.967 360.165 144.65C359.633 144.333 359.213 143.903 358.905 143.362C358.597 142.811 358.443 142.191 358.443 141.5C358.443 140.809 358.597 140.193 358.905 139.652C359.213 139.101 359.633 138.667 360.165 138.35C360.697 138.033 361.299 137.874 361.971 137.874C362.643 137.874 363.24 138.033 363.763 138.35C364.295 138.667 364.715 139.101 365.023 139.652C365.331 140.193 365.485 140.809 365.485 141.5C365.485 142.191 365.331 142.811 365.023 143.362C364.715 143.903 364.295 144.333 363.763 144.65C363.24 144.967 362.643 145.126 361.971 145.126ZM361.971 143.782C362.354 143.782 362.69 143.684 362.979 143.488C363.278 143.292 363.511 143.021 363.679 142.676C363.847 142.321 363.931 141.929 363.931 141.5C363.931 141.061 363.847 140.674 363.679 140.338C363.511 139.993 363.278 139.722 362.979 139.526C362.69 139.321 362.354 139.218 361.971 139.218C361.588 139.218 361.248 139.321 360.949 139.526C360.65 139.722 360.417 139.993 360.249 140.338C360.081 140.674 359.997 141.061 359.997 141.5C359.997 141.939 360.081 142.331 360.249 142.676C360.417 143.021 360.65 143.292 360.949 143.488C361.248 143.684 361.588 143.782 361.971 143.782ZM368.944 145L366.088 137.986H367.81L369.77 143.082L371.716 137.986H373.368L370.484 145H368.944ZM377.558 145.14C376.886 145.14 376.28 144.981 375.738 144.664C375.197 144.337 374.768 143.903 374.45 143.362C374.133 142.811 373.974 142.191 373.974 141.5C373.974 140.809 374.124 140.193 374.422 139.652C374.721 139.111 375.127 138.681 375.64 138.364C376.163 138.037 376.742 137.874 377.376 137.874C378.03 137.874 378.604 138.033 379.098 138.35C379.602 138.667 379.994 139.097 380.274 139.638C380.564 140.179 380.708 140.8 380.708 141.5V141.878H375.528C375.584 142.261 375.706 142.601 375.892 142.9C376.088 143.189 376.336 143.418 376.634 143.586C376.942 143.754 377.274 143.838 377.628 143.838C377.955 143.838 378.263 143.782 378.552 143.67C378.851 143.549 379.098 143.385 379.294 143.18L380.33 144.118C379.901 144.473 379.462 144.734 379.014 144.902C378.576 145.061 378.09 145.14 377.558 145.14ZM375.542 140.898H379.21C379.154 140.562 379.038 140.263 378.86 140.002C378.692 139.741 378.478 139.535 378.216 139.386C377.964 139.237 377.684 139.162 377.376 139.162C377.068 139.162 376.784 139.237 376.522 139.386C376.27 139.526 376.06 139.727 375.892 139.988C375.724 140.249 375.608 140.553 375.542 140.898ZM382.322 145V137.986H383.904V139.498C384.109 138.966 384.375 138.56 384.702 138.28C385.028 138 385.406 137.86 385.836 137.86C385.966 137.869 386.083 137.883 386.186 137.902C386.288 137.911 386.4 137.944 386.522 138V139.386C386.4 139.33 386.26 139.288 386.102 139.26C385.952 139.232 385.803 139.218 385.654 139.218C385.271 139.218 384.926 139.321 384.618 139.526C384.319 139.731 384.081 140.016 383.904 140.38V145H382.322ZM393.986 145.14C393.277 145.14 392.74 144.977 392.376 144.65C392.012 144.314 391.83 143.824 391.83 143.18V139.246H390.43V137.986H391.83V136.054L393.412 135.718V137.986H395.358V139.246H393.412V142.83C393.412 143.175 393.487 143.423 393.636 143.572C393.786 143.712 394.038 143.782 394.392 143.782C394.551 143.782 394.696 143.773 394.826 143.754C394.966 143.726 395.139 143.679 395.344 143.614V144.944C395.148 145.009 394.924 145.056 394.672 145.084C394.43 145.121 394.201 145.14 393.986 145.14ZM396.745 145V137.986H398.327V145H396.745ZM397.543 136.558C397.273 136.558 397.039 136.465 396.843 136.278C396.657 136.082 396.563 135.853 396.563 135.592C396.563 135.321 396.657 135.093 396.843 134.906C397.039 134.71 397.273 134.612 397.543 134.612C397.814 134.612 398.043 134.71 398.229 134.906C398.425 135.093 398.523 135.317 398.523 135.578C398.523 135.849 398.425 136.082 398.229 136.278C398.043 136.465 397.814 136.558 397.543 136.558ZM403.311 145.14C402.601 145.14 402.065 144.977 401.701 144.65C401.337 144.314 401.155 143.824 401.155 143.18V139.246H399.755V137.986H401.155V136.054L402.737 135.718V137.986H404.683V139.246H402.737V142.83C402.737 143.175 402.811 143.423 402.961 143.572C403.11 143.712 403.362 143.782 403.717 143.782C403.875 143.782 404.02 143.773 404.151 143.754C404.291 143.726 404.463 143.679 404.669 143.614V144.944C404.473 145.009 404.249 145.056 403.997 145.084C403.754 145.121 403.525 145.14 403.311 145.14ZM406.084 145V134.962L407.666 134.682V145H406.084ZM412.873 145.14C412.201 145.14 411.594 144.981 411.053 144.664C410.512 144.337 410.082 143.903 409.765 143.362C409.448 142.811 409.289 142.191 409.289 141.5C409.289 140.809 409.438 140.193 409.737 139.652C410.036 139.111 410.442 138.681 410.955 138.364C411.478 138.037 412.056 137.874 412.691 137.874C413.344 137.874 413.918 138.033 414.413 138.35C414.917 138.667 415.309 139.097 415.589 139.638C415.878 140.179 416.023 140.8 416.023 141.5V141.878H410.843C410.899 142.261 411.02 142.601 411.207 142.9C411.403 143.189 411.65 143.418 411.949 143.586C412.257 143.754 412.588 143.838 412.943 143.838C413.27 143.838 413.578 143.782 413.867 143.67C414.166 143.549 414.413 143.385 414.609 143.18L415.645 144.118C415.216 144.473 414.777 144.734 414.329 144.902C413.89 145.061 413.405 145.14 412.873 145.14ZM410.857 140.898H414.525C414.469 140.562 414.352 140.263 414.175 140.002C414.007 139.741 413.792 139.535 413.531 139.386C413.279 139.237 412.999 139.162 412.691 139.162C412.383 139.162 412.098 139.237 411.837 139.386C411.585 139.526 411.375 139.727 411.207 139.988C411.039 140.249 410.922 140.553 410.857 140.898Z" fill="#151515"/>
<path d="M333.246 174V164.2H337.292C337.927 164.2 338.477 164.321 338.944 164.564C339.411 164.797 339.77 165.133 340.022 165.572C340.283 166.001 340.414 166.51 340.414 167.098C340.414 167.677 340.283 168.185 340.022 168.624C339.77 169.063 339.411 169.403 338.944 169.646C338.477 169.879 337.927 169.996 337.292 169.996H334.324V174H333.246ZM334.324 169.072H337.166C337.847 169.072 338.379 168.895 338.762 168.54C339.145 168.185 339.336 167.705 339.336 167.098C339.336 166.491 339.145 166.015 338.762 165.67C338.379 165.325 337.847 165.152 337.166 165.152H334.324V169.072ZM344.537 174.112C343.902 174.112 343.333 173.958 342.829 173.65C342.325 173.342 341.928 172.922 341.639 172.39C341.35 171.858 341.205 171.256 341.205 170.584C341.205 169.912 341.35 169.31 341.639 168.778C341.928 168.246 342.325 167.826 342.829 167.518C343.333 167.21 343.902 167.056 344.537 167.056C345.162 167.056 345.722 167.21 346.217 167.518C346.721 167.826 347.118 168.246 347.407 168.778C347.696 169.31 347.841 169.912 347.841 170.584C347.841 171.256 347.696 171.858 347.407 172.39C347.118 172.922 346.721 173.342 346.217 173.65C345.722 173.958 345.162 174.112 344.537 174.112ZM344.523 173.216C344.971 173.216 345.368 173.104 345.713 172.88C346.058 172.647 346.329 172.329 346.525 171.928C346.73 171.527 346.833 171.079 346.833 170.584C346.833 170.08 346.73 169.632 346.525 169.24C346.329 168.839 346.058 168.526 345.713 168.302C345.368 168.069 344.971 167.952 344.523 167.952C344.075 167.952 343.678 168.069 343.333 168.302C342.988 168.526 342.712 168.839 342.507 169.24C342.311 169.632 342.213 170.08 342.213 170.584C342.213 171.079 342.311 171.527 342.507 171.928C342.712 172.329 342.988 172.647 343.333 172.88C343.678 173.104 344.075 173.216 344.523 173.216ZM349.634 176.926V167.168H350.642V168.148C350.903 167.803 351.221 167.541 351.594 167.364C351.977 167.177 352.397 167.084 352.854 167.084C353.451 167.084 353.983 167.243 354.45 167.56C354.926 167.868 355.304 168.288 355.584 168.82C355.864 169.343 356.004 169.931 356.004 170.584C356.004 171.237 355.859 171.83 355.57 172.362C355.29 172.894 354.907 173.319 354.422 173.636C353.946 173.944 353.405 174.098 352.798 174.098C352.369 174.098 351.972 174.019 351.608 173.86C351.244 173.692 350.927 173.454 350.656 173.146V176.926H349.634ZM352.602 173.216C353.059 173.216 353.465 173.104 353.82 172.88C354.184 172.647 354.469 172.334 354.674 171.942C354.889 171.541 354.996 171.093 354.996 170.598C354.996 170.094 354.889 169.646 354.674 169.254C354.469 168.862 354.184 168.554 353.82 168.33C353.465 168.097 353.059 167.98 352.602 167.98C352.201 167.98 351.827 168.064 351.482 168.232C351.146 168.391 350.871 168.619 350.656 168.918V172.264C350.88 172.563 351.16 172.796 351.496 172.964C351.841 173.132 352.21 173.216 352.602 173.216ZM360.82 174.112C360.185 174.112 359.616 173.958 359.112 173.65C358.608 173.342 358.211 172.922 357.922 172.39C357.633 171.858 357.488 171.256 357.488 170.584C357.488 169.912 357.633 169.31 357.922 168.778C358.211 168.246 358.608 167.826 359.112 167.518C359.616 167.21 360.185 167.056 360.82 167.056C361.445 167.056 362.005 167.21 362.5 167.518C363.004 167.826 363.401 168.246 363.69 168.778C363.979 169.31 364.124 169.912 364.124 170.584C364.124 171.256 363.979 171.858 363.69 172.39C363.401 172.922 363.004 173.342 362.5 173.65C362.005 173.958 361.445 174.112 360.82 174.112ZM360.806 173.216C361.254 173.216 361.651 173.104 361.996 172.88C362.341 172.647 362.612 172.329 362.808 171.928C363.013 171.527 363.116 171.079 363.116 170.584C363.116 170.08 363.013 169.632 362.808 169.24C362.612 168.839 362.341 168.526 361.996 168.302C361.651 168.069 361.254 167.952 360.806 167.952C360.358 167.952 359.961 168.069 359.616 168.302C359.271 168.526 358.995 168.839 358.79 169.24C358.594 169.632 358.496 170.08 358.496 170.584C358.496 171.079 358.594 171.527 358.79 171.928C358.995 172.329 359.271 172.647 359.616 172.88C359.961 173.104 360.358 173.216 360.806 173.216ZM367.672 174L364.872 167.168H365.978L368.19 172.726L370.374 167.168H371.466L368.652 174H367.672ZM375.601 174.14C374.966 174.14 374.392 173.986 373.879 173.678C373.365 173.361 372.959 172.936 372.661 172.404C372.362 171.863 372.213 171.256 372.213 170.584C372.213 169.912 372.353 169.31 372.633 168.778C372.922 168.246 373.309 167.826 373.795 167.518C374.28 167.21 374.821 167.056 375.419 167.056C376.025 167.056 376.562 167.21 377.029 167.518C377.505 167.817 377.878 168.227 378.149 168.75C378.429 169.263 378.569 169.847 378.569 170.5V170.808H373.207C373.244 171.275 373.37 171.695 373.585 172.068C373.809 172.432 374.098 172.721 374.453 172.936C374.817 173.141 375.213 173.244 375.643 173.244C375.997 173.244 376.338 173.183 376.665 173.062C377.001 172.931 377.285 172.759 377.519 172.544L378.163 173.23C377.771 173.538 377.365 173.767 376.945 173.916C376.525 174.065 376.077 174.14 375.601 174.14ZM373.235 170.08H377.561C377.514 169.669 377.388 169.305 377.183 168.988C376.987 168.661 376.735 168.405 376.427 168.218C376.128 168.031 375.792 167.938 375.419 167.938C375.045 167.938 374.705 168.031 374.397 168.218C374.089 168.395 373.832 168.647 373.627 168.974C373.431 169.291 373.3 169.66 373.235 170.08ZM380.314 174V167.168H381.336V168.568C381.513 168.092 381.765 167.723 382.092 167.462C382.428 167.191 382.81 167.056 383.24 167.056C383.361 167.056 383.473 167.065 383.576 167.084C383.678 167.093 383.781 167.117 383.884 167.154V168.078C383.772 168.041 383.65 168.013 383.52 167.994C383.398 167.966 383.282 167.952 383.17 167.952C382.75 167.952 382.381 168.073 382.064 168.316C381.756 168.559 381.513 168.899 381.336 169.338V174H380.314ZM391.569 174.112C390.934 174.112 390.36 173.958 389.847 173.65C389.343 173.333 388.942 172.908 388.643 172.376C388.344 171.835 388.195 171.237 388.195 170.584C388.195 169.921 388.344 169.324 388.643 168.792C388.942 168.26 389.343 167.84 389.847 167.532C390.36 167.215 390.934 167.056 391.569 167.056C392.073 167.056 392.554 167.149 393.011 167.336C393.468 167.523 393.865 167.784 394.201 168.12L393.543 168.834C393.3 168.563 393.006 168.353 392.661 168.204C392.316 168.055 391.966 167.98 391.611 167.98C391.163 167.98 390.757 168.097 390.393 168.33C390.038 168.563 389.754 168.876 389.539 169.268C389.324 169.66 389.217 170.099 389.217 170.584C389.217 171.069 389.324 171.508 389.539 171.9C389.754 172.292 390.038 172.605 390.393 172.838C390.757 173.071 391.163 173.188 391.611 173.188C391.966 173.188 392.316 173.113 392.661 172.964C393.006 172.805 393.3 172.595 393.543 172.334L394.201 173.048C393.865 173.384 393.468 173.645 393.011 173.832C392.554 174.019 392.073 174.112 391.569 174.112ZM398.445 174.112C397.81 174.112 397.241 173.958 396.737 173.65C396.233 173.342 395.836 172.922 395.547 172.39C395.258 171.858 395.113 171.256 395.113 170.584C395.113 169.912 395.258 169.31 395.547 168.778C395.836 168.246 396.233 167.826 396.737 167.518C397.241 167.21 397.81 167.056 398.445 167.056C399.07 167.056 399.63 167.21 400.125 167.518C400.629 167.826 401.026 168.246 401.315 168.778C401.604 169.31 401.749 169.912 401.749 170.584C401.749 171.256 401.604 171.858 401.315 172.39C401.026 172.922 400.629 173.342 400.125 173.65C399.63 173.958 399.07 174.112 398.445 174.112ZM398.431 173.216C398.879 173.216 399.276 173.104 399.621 172.88C399.966 172.647 400.237 172.329 400.433 171.928C400.638 171.527 400.741 171.079 400.741 170.584C400.741 170.08 400.638 169.632 400.433 169.24C400.237 168.839 399.966 168.526 399.621 168.302C399.276 168.069 398.879 167.952 398.431 167.952C397.983 167.952 397.586 168.069 397.241 168.302C396.896 168.526 396.62 168.839 396.415 169.24C396.219 169.632 396.121 170.08 396.121 170.584C396.121 171.079 396.219 171.527 396.415 171.928C396.62 172.329 396.896 172.647 397.241 172.88C397.586 173.104 397.983 173.216 398.431 173.216ZM403.542 174V167.168H404.564V168.274C404.826 167.863 405.138 167.56 405.502 167.364C405.866 167.159 406.277 167.056 406.734 167.056C407.229 167.056 407.658 167.163 408.022 167.378C408.396 167.583 408.685 167.877 408.89 168.26C409.105 168.633 409.212 169.072 409.212 169.576V174H408.19V169.87C408.19 169.263 408.022 168.787 407.686 168.442C407.36 168.087 406.916 167.91 406.356 167.91C405.983 167.91 405.642 167.999 405.334 168.176C405.026 168.353 404.77 168.615 404.564 168.96V174H403.542ZM413.666 174.14C413.078 174.14 412.63 174 412.322 173.72C412.023 173.431 411.874 173.015 411.874 172.474V168.008H410.46V167.168H411.874V165.292L412.896 165.054V167.168H414.856V168.008H412.896V172.208C412.896 172.572 412.97 172.833 413.12 172.992C413.278 173.151 413.535 173.23 413.89 173.23C414.067 173.23 414.226 173.216 414.366 173.188C414.506 173.16 414.669 173.113 414.856 173.048V173.958C414.669 174.023 414.473 174.07 414.268 174.098C414.062 174.126 413.862 174.14 413.666 174.14ZM419.296 174.14C418.661 174.14 418.087 173.986 417.574 173.678C417.061 173.361 416.655 172.936 416.356 172.404C416.057 171.863 415.908 171.256 415.908 170.584C415.908 169.912 416.048 169.31 416.328 168.778C416.617 168.246 417.005 167.826 417.49 167.518C417.975 167.21 418.517 167.056 419.114 167.056C419.721 167.056 420.257 167.21 420.724 167.518C421.2 167.817 421.573 168.227 421.844 168.75C422.124 169.263 422.264 169.847 422.264 170.5V170.808H416.902C416.939 171.275 417.065 171.695 417.28 172.068C417.504 172.432 417.793 172.721 418.148 172.936C418.512 173.141 418.909 173.244 419.338 173.244C419.693 173.244 420.033 173.183 420.36 173.062C420.696 172.931 420.981 172.759 421.214 172.544L421.858 173.23C421.466 173.538 421.06 173.767 420.64 173.916C420.22 174.065 419.772 174.14 419.296 174.14ZM416.93 170.08H421.256C421.209 169.669 421.083 169.305 420.878 168.988C420.682 168.661 420.43 168.405 420.122 168.218C419.823 168.031 419.487 167.938 419.114 167.938C418.741 167.938 418.4 168.031 418.092 168.218C417.784 168.395 417.527 168.647 417.322 168.974C417.126 169.291 416.995 169.66 416.93 170.08ZM424.009 174V167.168H425.031V168.274C425.292 167.863 425.605 167.56 425.969 167.364C426.333 167.159 426.744 167.056 427.201 167.056C427.696 167.056 428.125 167.163 428.489 167.378C428.862 167.583 429.152 167.877 429.357 168.26C429.572 168.633 429.679 169.072 429.679 169.576V174H428.657V169.87C428.657 169.263 428.489 168.787 428.153 168.442C427.826 168.087 427.383 167.91 426.823 167.91C426.45 167.91 426.109 167.999 425.801 168.176C425.493 168.353 425.236 168.615 425.031 168.96V174H424.009ZM434.133 174.14C433.545 174.14 433.097 174 432.789 173.72C432.49 173.431 432.341 173.015 432.341 172.474V168.008H430.927V167.168H432.341V165.292L433.363 165.054V167.168H435.323V168.008H433.363V172.208C433.363 172.572 433.437 172.833 433.587 172.992C433.745 173.151 434.002 173.23 434.357 173.23C434.534 173.23 434.693 173.216 434.833 173.188C434.973 173.16 435.136 173.113 435.323 173.048V173.958C435.136 174.023 434.94 174.07 434.735 174.098C434.529 174.126 434.329 174.14 434.133 174.14Z" fill="#151515"/>
<mask id="path-18-inside-1_1539_56071" fill="white">
<path fill-rule="evenodd" clip-rule="evenodd" d="M421.465 90.195C420.131 89.4252 418.465 90.3875 418.465 91.9271L418.465 105.934C418.465 107.474 420.131 108.436 421.465 107.666L425.105 105.565L426.743 108.402C427.295 109.359 428.518 109.687 429.475 109.134L431.278 108.093C432.235 107.541 432.562 106.318 432.01 105.361L430.372 102.524L433.595 100.663C434.928 99.8928 434.928 97.9683 433.595 97.1985L421.465 90.195Z"/>
</mask>
<path fill-rule="evenodd" clip-rule="evenodd" d="M421.465 90.195C420.131 89.4252 418.465 90.3875 418.465 91.9271L418.465 105.934C418.465 107.474 420.131 108.436 421.465 107.666L425.105 105.565L426.743 108.402C427.295 109.359 428.518 109.687 429.475 109.134L431.278 108.093C432.235 107.541 432.562 106.318 432.01 105.361L430.372 102.524L433.595 100.663C434.928 99.8928 434.928 97.9683 433.595 97.1985L421.465 90.195Z" fill="#FF00FF"/>
<path d="M418.465 91.9271L417.465 91.9271V91.9271L418.465 91.9271ZM421.465 90.195L421.965 89.329L421.965 89.329L421.465 90.195ZM418.465 105.934L419.465 105.934V105.934L418.465 105.934ZM425.105 105.565L425.971 105.065L425.471 104.199L424.605 104.699L425.105 105.565ZM426.743 108.402L425.877 108.902L426.743 108.402ZM430.372 102.524L429.872 101.657L429.006 102.157L429.506 103.024L430.372 102.524ZM433.595 97.1985L433.095 98.0645L433.095 98.0645L433.595 97.1985ZM418.465 91.9271L419.465 91.9271C419.465 91.1573 420.298 90.6762 420.965 91.0611L421.465 90.195L421.965 89.329C419.965 88.1743 417.465 89.6177 417.465 91.9271L418.465 91.9271ZM418.465 105.934L419.465 105.934L419.465 91.9271L418.465 91.9271L417.465 91.9271L417.465 105.934L418.465 105.934ZM421.465 107.666L420.965 106.8C420.298 107.185 419.465 106.704 419.465 105.934L418.465 105.934L417.465 105.934C417.465 108.243 419.965 109.687 421.965 108.532L421.465 107.666ZM425.105 105.565L424.605 104.699L420.965 106.8L421.465 107.666L421.965 108.532L425.605 106.431L425.105 105.565ZM426.743 108.402L427.609 107.902L425.971 105.065L425.105 105.565L424.238 106.065L425.877 108.902L426.743 108.402ZM429.475 109.134L428.975 108.268C428.497 108.544 427.885 108.381 427.609 107.902L426.743 108.402L425.877 108.902C426.705 110.337 428.54 110.829 429.975 110L429.475 109.134ZM431.278 108.093L430.778 107.227L428.975 108.268L429.475 109.134L429.975 110L431.778 108.959L431.278 108.093ZM432.01 105.361L431.144 105.861C431.42 106.339 431.256 106.951 430.778 107.227L431.278 108.093L431.778 108.959C433.213 108.131 433.705 106.296 432.876 104.861L432.01 105.361ZM430.372 102.524L429.506 103.024L431.144 105.861L432.01 105.361L432.876 104.861L431.238 102.024L430.372 102.524ZM433.595 100.663L433.095 99.7965L429.872 101.657L430.372 102.524L430.872 103.39L434.095 101.529L433.595 100.663ZM433.595 97.1985L433.095 98.0645C433.762 98.4494 433.762 99.4116 433.095 99.7965L433.595 100.663L434.095 101.529C436.095 100.374 436.095 97.4871 434.095 96.3324L433.595 97.1985ZM421.465 90.195L420.965 91.0611L433.095 98.0645L433.595 97.1985L434.095 96.3324L421.965 89.329L421.465 90.195Z" fill="#FF00FF" mask="url(#path-18-inside-1_1539_56071)"/>
<path fill-rule="evenodd" clip-rule="evenodd" d="M424.423 90.4981C424.771 89.1564 424.613 87.6825 423.865 86.3872C422.353 83.7691 419.006 82.872 416.387 84.3836C413.769 85.8952 412.872 89.2431 414.384 91.8612C415.053 93.0203 416.082 93.8421 417.248 94.2669L417.248 89.8199C417.248 88.2803 418.915 87.318 420.248 88.0878L424.423 90.4981Z" fill="#FF00FF" fill-opacity="0.4"/>
<path d="M411.973 92.5513L409.866 93.7677" stroke="#FF00FF" stroke-linecap="round"/>
<path d="M427.775 83.4277L425.668 84.6442" stroke="#FF00FF" stroke-linecap="round"/>
<path d="M413.955 80.1699L415.171 82.2769" stroke="#FF00FF" stroke-linecap="round"/>
<mask id="path-24-inside-2_1539_56071" fill="white">
<path fill-rule="evenodd" clip-rule="evenodd" d="M265.465 90.195C264.131 89.4252 262.465 90.3875 262.465 91.9271L262.465 105.934C262.465 107.474 264.131 108.436 265.465 107.666L269.105 105.565L270.743 108.402C271.295 109.359 272.518 109.687 273.475 109.134L275.278 108.093C276.235 107.541 276.562 106.318 276.01 105.361L274.372 102.524L277.595 100.663C278.928 99.8928 278.928 97.9683 277.595 97.1985L265.465 90.195Z"/>
</mask>
<path fill-rule="evenodd" clip-rule="evenodd" d="M265.465 90.195C264.131 89.4252 262.465 90.3875 262.465 91.9271L262.465 105.934C262.465 107.474 264.131 108.436 265.465 107.666L269.105 105.565L270.743 108.402C271.295 109.359 272.518 109.687 273.475 109.134L275.278 108.093C276.235 107.541 276.562 106.318 276.01 105.361L274.372 102.524L277.595 100.663C278.928 99.8928 278.928 97.9683 277.595 97.1985L265.465 90.195Z" fill="#FF00FF"/>
<path d="M262.465 91.9271L261.465 91.9271V91.9271L262.465 91.9271ZM265.465 90.195L265.965 89.329L265.965 89.329L265.465 90.195ZM262.465 105.934L263.465 105.934V105.934L262.465 105.934ZM269.105 105.565L269.971 105.065L269.471 104.199L268.605 104.699L269.105 105.565ZM270.743 108.402L269.877 108.902L270.743 108.402ZM274.372 102.524L273.872 101.657L273.006 102.157L273.506 103.024L274.372 102.524ZM277.595 100.663L278.095 101.529L277.595 100.663ZM277.595 97.1985L277.095 98.0645L277.095 98.0645L277.595 97.1985ZM262.465 91.9271L263.465 91.9271C263.465 91.1573 264.298 90.6762 264.965 91.0611L265.465 90.195L265.965 89.329C263.965 88.1743 261.465 89.6177 261.465 91.9271L262.465 91.9271ZM262.465 105.934L263.465 105.934L263.465 91.9271L262.465 91.9271L261.465 91.9271L261.465 105.934L262.465 105.934ZM265.465 107.666L264.965 106.8C264.298 107.185 263.465 106.704 263.465 105.934L262.465 105.934L261.465 105.934C261.465 108.243 263.965 109.687 265.965 108.532L265.465 107.666ZM269.105 105.565L268.605 104.699L264.965 106.8L265.465 107.666L265.965 108.532L269.605 106.431L269.105 105.565ZM270.743 108.402L271.609 107.902L269.971 105.065L269.105 105.565L268.238 106.065L269.877 108.902L270.743 108.402ZM273.475 109.134L272.975 108.268C272.497 108.544 271.885 108.381 271.609 107.902L270.743 108.402L269.877 108.902C270.705 110.337 272.54 110.829 273.975 110L273.475 109.134ZM275.278 108.093L274.778 107.227L272.975 108.268L273.475 109.134L273.975 110L275.778 108.959L275.278 108.093ZM276.01 105.361L275.144 105.861C275.42 106.339 275.256 106.951 274.778 107.227L275.278 108.093L275.778 108.959C277.213 108.131 277.705 106.296 276.876 104.861L276.01 105.361ZM274.372 102.524L273.506 103.024L275.144 105.861L276.01 105.361L276.876 104.861L275.238 102.024L274.372 102.524ZM277.595 100.663L277.095 99.7965L273.872 101.657L274.372 102.524L274.872 103.39L278.095 101.529L277.595 100.663ZM277.595 97.1985L277.095 98.0645C277.762 98.4494 277.762 99.4116 277.095 99.7965L277.595 100.663L278.095 101.529C280.095 100.374 280.095 97.4871 278.095 96.3324L277.595 97.1985ZM265.465 90.195L264.965 91.0611L277.095 98.0645L277.595 97.1985L278.095 96.3324L265.965 89.329L265.465 90.195Z" fill="#FF00FF" mask="url(#path-24-inside-2_1539_56071)"/>
</g>
</g>
<defs>
<filter id="filter0_d_1539_56071" x="240" y="70" width="424" height="139" filterUnits="userSpaceOnUse" color-interpolation-filters="sRGB">
<feFlood flood-opacity="0" result="BackgroundImageFix"/>
<feColorMatrix in="SourceAlpha" type="matrix" values="0 0 0 0 0 0 0 0 0 0 0 0 0 0 0 0 0 0 127 0" result="hardAlpha"/>
<feOffset dy="4"/>
<feGaussianBlur stdDeviation="4.5"/>
<feColorMatrix type="matrix" values="0 0 0 0 0.160784 0 0 0 0 0.160784 0 0 0 0 0.160784 0 0 0 0.15 0"/>
<feBlend mode="normal" in2="BackgroundImageFix" result="effect1_dropShadow_1539_56071"/>
<feBlend mode="normal" in="SourceGraphic" in2="effect1_dropShadow_1539_56071" result="shape"/>
</filter>
<clipPath id="clip0_1539_56071">
<rect width="546" height="229" fill="white"/>
</clipPath>
</defs>
</svg>
