<svg width="520" height="211" viewBox="0 0 520 211" fill="none" xmlns="http://www.w3.org/2000/svg">
<g clip-path="url(#clip0_385_66285)">
<rect width="520" height="211" fill="white"/>
<rect width="530" height="69" transform="translate(6 12)" fill="white"/>
<mask id="path-1-inside-1_385_66285" fill="white">
<path d="M22 34C22 30.6863 24.6863 28 28 28H241C244.314 28 247 30.6863 247 34V59C247 62.3137 244.314 65 241 65H28C24.6863 65 22 62.3137 22 59V34Z"/>
</mask>
<path d="M22 34C22 30.6863 24.6863 28 28 28H241C244.314 28 247 30.6863 247 34V59C247 62.3137 244.314 65 241 65H28C24.6863 65 22 62.3137 22 59V34Z" fill="white"/>
<path d="M28 29H241V27H28V29ZM246 34V59H248V34H246ZM241 64H28V66H241V64ZM23 59V34H21V59H23ZM28 64C25.2386 64 23 61.7614 23 59H21C21 62.866 24.134 66 28 66V64ZM246 59C246 61.7614 243.761 64 241 64V66C244.866 66 248 62.866 248 59H246ZM241 29C243.761 29 246 31.2386 246 34H248C248 30.134 244.866 27 241 27V29ZM28 27C24.134 27 21 30.134 21 34H23C23 31.2386 25.2386 29 28 29V27Z" fill="#C7C7C7" mask="url(#path-1-inside-1_385_66285)"/>
<path fill-rule="evenodd" clip-rule="evenodd" d="M51.75 52.8432V45.6781L56.8071 40.6203C57.2193 40.2081 56.9272 39.5 56.343 39.5H43.657C43.0741 39.5 42.78 40.2073 43.193 40.6203L48.25 45.6781V51.3125C48.25 51.5266 48.3545 51.7273 48.5299 51.8501L50.7174 53.3808C51.149 53.6829 51.75 53.3767 51.75 52.8432Z" fill="#1F1F1F"/>
<path d="M71.246 51V41.2H77.938V42.152H72.324V45.652H76.16V46.59H72.324V51H71.246ZM79.3758 51V44.168H80.3978V51H79.3758ZM79.8938 42.474C79.6885 42.474 79.5112 42.404 79.3618 42.264C79.2218 42.1147 79.1518 41.942 79.1518 41.746C79.1518 41.55 79.2218 41.382 79.3618 41.242C79.5112 41.0927 79.6885 41.018 79.8938 41.018C80.0992 41.018 80.2718 41.0927 80.4118 41.242C80.5612 41.382 80.6358 41.55 80.6358 41.746C80.6358 41.942 80.5612 42.1147 80.4118 42.264C80.2718 42.404 80.0992 42.474 79.8938 42.474ZM82.4934 51V40.892L83.5154 40.682V51H82.4934ZM88.2145 51.14C87.6265 51.14 87.1785 51 86.8705 50.72C86.5719 50.4307 86.4225 50.0153 86.4225 49.474V45.008H85.0085V44.168H86.4225V42.292L87.4445 42.054V44.168H89.4045V45.008H87.4445V49.208C87.4445 49.572 87.5192 49.8333 87.6685 49.992C87.8272 50.1507 88.0839 50.23 88.4385 50.23C88.6159 50.23 88.7745 50.216 88.9145 50.188C89.0545 50.16 89.2179 50.1133 89.4045 50.048V50.958C89.2179 51.0233 89.0219 51.07 88.8165 51.098C88.6112 51.126 88.4105 51.14 88.2145 51.14ZM93.8448 51.14C93.2102 51.14 92.6362 50.986 92.1228 50.678C91.6095 50.3607 91.2035 49.936 90.9048 49.404C90.6062 48.8627 90.4568 48.256 90.4568 47.584C90.4568 46.912 90.5968 46.31 90.8768 45.778C91.1662 45.246 91.5535 44.826 92.0388 44.518C92.5242 44.21 93.0655 44.056 93.6628 44.056C94.2695 44.056 94.8062 44.21 95.2728 44.518C95.7488 44.8167 96.1222 45.2273 96.3928 45.75C96.6728 46.2633 96.8128 46.8467 96.8128 47.5V47.808H91.4508C91.4882 48.2747 91.6142 48.6947 91.8288 49.068C92.0528 49.432 92.3422 49.7213 92.6968 49.936C93.0608 50.1413 93.4575 50.244 93.8868 50.244C94.2415 50.244 94.5822 50.1833 94.9088 50.062C95.2448 49.9313 95.5295 49.7587 95.7628 49.544L96.4068 50.23C96.0148 50.538 95.6088 50.7667 95.1888 50.916C94.7688 51.0653 94.3208 51.14 93.8448 51.14ZM91.4788 47.08H95.8048C95.7582 46.6693 95.6322 46.3053 95.4268 45.988C95.2308 45.6613 94.9788 45.4047 94.6708 45.218C94.3722 45.0313 94.0362 44.938 93.6628 44.938C93.2895 44.938 92.9488 45.0313 92.6408 45.218C92.3328 45.3953 92.0762 45.6473 91.8708 45.974C91.6748 46.2913 91.5442 46.66 91.4788 47.08ZM98.5578 51V44.168H99.5798V45.568C99.7571 45.092 100.009 44.7233 100.336 44.462C100.672 44.1913 101.054 44.056 101.484 44.056C101.605 44.056 101.717 44.0653 101.82 44.084C101.922 44.0933 102.025 44.1167 102.128 44.154V45.078C102.016 45.0407 101.894 45.0127 101.764 44.994C101.642 44.966 101.526 44.952 101.414 44.952C100.994 44.952 100.625 45.0733 100.308 45.316C99.9998 45.5587 99.7571 45.8993 99.5798 46.338V51H98.5578ZM106.747 51V40.99L107.769 40.78V45.106C108.031 44.7793 108.348 44.5273 108.721 44.35C109.095 44.1727 109.51 44.084 109.967 44.084C110.565 44.084 111.097 44.2427 111.563 44.56C112.039 44.868 112.417 45.288 112.697 45.82C112.977 46.3427 113.117 46.9307 113.117 47.584C113.117 48.2373 112.973 48.83 112.683 49.362C112.403 49.894 112.021 50.3187 111.535 50.636C111.059 50.944 110.518 51.098 109.911 51.098C109.482 51.098 109.081 51.014 108.707 50.846C108.343 50.6687 108.026 50.4213 107.755 50.104V51H106.747ZM109.715 50.216C110.173 50.216 110.579 50.104 110.933 49.88C111.297 49.6467 111.582 49.334 111.787 48.942C112.002 48.5407 112.109 48.0927 112.109 47.598C112.109 47.094 112.002 46.646 111.787 46.254C111.582 45.862 111.297 45.554 110.933 45.33C110.579 45.0967 110.173 44.98 109.715 44.98C109.314 44.98 108.941 45.064 108.595 45.232C108.259 45.3907 107.984 45.6193 107.769 45.918V49.264C107.993 49.5627 108.273 49.796 108.609 49.964C108.955 50.132 109.323 50.216 109.715 50.216ZM114.998 54.066C114.784 54.066 114.564 54.0333 114.34 53.968V53.058C114.434 53.0767 114.532 53.0907 114.634 53.1C114.737 53.1093 114.826 53.114 114.9 53.114C115.162 53.114 115.376 53.044 115.544 52.904C115.722 52.764 115.871 52.5447 115.992 52.246L116.496 51L113.864 44.168H114.998L117.07 49.782L119.268 44.168H120.402L116.958 52.554C116.809 52.918 116.646 53.212 116.468 53.436C116.291 53.66 116.086 53.8187 115.852 53.912C115.619 54.0147 115.334 54.066 114.998 54.066ZM127.059 51.14C126.499 51.14 125.981 51.056 125.505 50.888C125.029 50.7107 124.623 50.4587 124.287 50.132L124.833 49.46C125.243 49.7587 125.621 49.978 125.967 50.118C126.312 50.2487 126.667 50.314 127.031 50.314C127.525 50.314 127.936 50.1973 128.263 49.964C128.589 49.7307 128.753 49.432 128.753 49.068C128.753 48.788 128.655 48.5687 128.459 48.41C128.272 48.2513 127.959 48.13 127.521 48.046L126.401 47.85C125.738 47.7287 125.248 47.5233 124.931 47.234C124.623 46.9447 124.469 46.5527 124.469 46.058C124.469 45.666 124.571 45.3207 124.777 45.022C124.991 44.7233 125.285 44.49 125.659 44.322C126.032 44.1447 126.457 44.056 126.933 44.056C127.399 44.056 127.843 44.126 128.263 44.266C128.683 44.3967 129.107 44.6113 129.537 44.91L129.033 45.624C128.678 45.372 128.323 45.19 127.969 45.078C127.614 44.9567 127.255 44.896 126.891 44.896C126.443 44.896 126.083 44.994 125.813 45.19C125.542 45.386 125.407 45.652 125.407 45.988C125.407 46.268 125.491 46.4827 125.659 46.632C125.836 46.7813 126.144 46.8933 126.583 46.968L127.731 47.178C128.421 47.2993 128.925 47.5093 129.243 47.808C129.56 48.1067 129.719 48.508 129.719 49.012C129.719 49.4133 129.602 49.7773 129.369 50.104C129.135 50.4213 128.818 50.6733 128.417 50.86C128.015 51.0467 127.563 51.14 127.059 51.14ZM133.742 51.14C133.154 51.14 132.706 51 132.398 50.72C132.099 50.4307 131.95 50.0153 131.95 49.474V45.008H130.536V44.168H131.95V42.292L132.972 42.054V44.168H134.932V45.008H132.972V49.208C132.972 49.572 133.047 49.8333 133.196 49.992C133.355 50.1507 133.611 50.23 133.966 50.23C134.143 50.23 134.302 50.216 134.442 50.188C134.582 50.16 134.745 50.1133 134.932 50.048V50.958C134.745 51.0233 134.549 51.07 134.344 51.098C134.139 51.126 133.938 51.14 133.742 51.14ZM138.543 51.126C138.058 51.126 137.628 51.0373 137.255 50.86C136.882 50.6827 136.588 50.44 136.373 50.132C136.168 49.8147 136.065 49.4507 136.065 49.04C136.065 48.6293 136.172 48.2747 136.387 47.976C136.602 47.668 136.9 47.43 137.283 47.262C137.666 47.094 138.114 47.01 138.627 47.01C139.019 47.01 139.388 47.052 139.733 47.136C140.088 47.22 140.414 47.3553 140.713 47.542V46.604C140.713 46.044 140.564 45.624 140.265 45.344C139.966 45.0547 139.528 44.91 138.949 44.91C138.632 44.91 138.305 44.9567 137.969 45.05C137.642 45.1433 137.278 45.2927 136.877 45.498L136.499 44.714C137.414 44.2753 138.272 44.056 139.075 44.056C139.924 44.056 140.578 44.266 141.035 44.686C141.492 45.0967 141.721 45.6893 141.721 46.464V51H140.713V50.202C140.414 50.51 140.083 50.7433 139.719 50.902C139.355 51.0513 138.963 51.126 138.543 51.126ZM137.045 49.012C137.045 49.4133 137.199 49.7353 137.507 49.978C137.824 50.2207 138.24 50.342 138.753 50.342C139.136 50.342 139.486 50.2767 139.803 50.146C140.13 50.0153 140.433 49.8193 140.713 49.558V48.242C140.424 48.074 140.125 47.9527 139.817 47.878C139.509 47.794 139.164 47.752 138.781 47.752C138.258 47.752 137.838 47.8687 137.521 48.102C137.204 48.326 137.045 48.6293 137.045 49.012ZM146.197 51.14C145.609 51.14 145.161 51 144.853 50.72C144.554 50.4307 144.405 50.0153 144.405 49.474V45.008H142.991V44.168H144.405V42.292L145.427 42.054V44.168H147.387V45.008H145.427V49.208C145.427 49.572 145.502 49.8333 145.651 49.992C145.81 50.1507 146.066 50.23 146.421 50.23C146.598 50.23 146.757 50.216 146.897 50.188C147.037 50.16 147.2 50.1133 147.387 50.048V50.958C147.2 51.0233 147.004 51.07 146.799 51.098C146.594 51.126 146.393 51.14 146.197 51.14ZM151.32 51.112C150.835 51.112 150.405 51.0047 150.032 50.79C149.659 50.5753 149.365 50.2767 149.15 49.894C148.945 49.5113 148.842 49.0727 148.842 48.578V44.168H149.878V48.284C149.878 48.8907 150.041 49.3713 150.368 49.726C150.695 50.0807 151.138 50.258 151.698 50.258C152.081 50.258 152.421 50.1693 152.72 49.992C153.028 49.8147 153.285 49.558 153.49 49.222V44.168H154.512V51H153.49V49.894C153.229 50.2953 152.916 50.5987 152.552 50.804C152.197 51.0093 151.787 51.112 151.32 51.112ZM158.723 51.14C158.163 51.14 157.645 51.056 157.169 50.888C156.693 50.7107 156.287 50.4587 155.951 50.132L156.497 49.46C156.907 49.7587 157.285 49.978 157.631 50.118C157.976 50.2487 158.331 50.314 158.695 50.314C159.189 50.314 159.6 50.1973 159.927 49.964C160.253 49.7307 160.417 49.432 160.417 49.068C160.417 48.788 160.319 48.5687 160.123 48.41C159.936 48.2513 159.623 48.13 159.185 48.046L158.065 47.85C157.402 47.7287 156.912 47.5233 156.595 47.234C156.287 46.9447 156.133 46.5527 156.133 46.058C156.133 45.666 156.235 45.3207 156.441 45.022C156.655 44.7233 156.949 44.49 157.323 44.322C157.696 44.1447 158.121 44.056 158.597 44.056C159.063 44.056 159.507 44.126 159.927 44.266C160.347 44.3967 160.771 44.6113 161.201 44.91L160.697 45.624C160.342 45.372 159.987 45.19 159.633 45.078C159.278 44.9567 158.919 44.896 158.555 44.896C158.107 44.896 157.747 44.994 157.477 45.19C157.206 45.386 157.071 45.652 157.071 45.988C157.071 46.268 157.155 46.4827 157.323 46.632C157.5 46.7813 157.808 46.8933 158.247 46.968L159.395 47.178C160.085 47.2993 160.589 47.5093 160.907 47.808C161.224 48.1067 161.383 48.508 161.383 49.012C161.383 49.4133 161.266 49.7773 161.033 50.104C160.799 50.4213 160.482 50.6733 160.081 50.86C159.679 51.0467 159.227 51.14 158.723 51.14Z" fill="#151515"/>
<path d="M170 46.5C170 41.5294 174.029 37.5 179 37.5H193C197.971 37.5 202 41.5294 202 46.5V46.5C202 51.4706 197.971 55.5 193 55.5H179C174.029 55.5 170 51.4706 170 46.5V46.5Z" fill="#E0E0E0"/>
<path d="M185.881 50.5V43.48L184.393 44.116V42.952L186.361 42.1H187.189V50.5H185.881Z" fill="#151515"/>
<path fill-rule="evenodd" clip-rule="evenodd" d="M221.389 49.1714L224.921 45.6102C225.267 45.2615 225.023 44.6666 224.534 44.6666H217.466C216.977 44.6666 216.733 45.2615 217.079 45.6102L220.611 49.1714C220.826 49.3872 221.174 49.3872 221.389 49.1714Z" fill="#1F1F1F"/>
<path d="M263 46.5C263 36.2827 271.283 28 281.5 28H336.5C346.717 28 355 36.2827 355 46.5V46.5C355 56.7173 346.717 65 336.5 65H281.5C271.283 65 263 56.7173 263 46.5V46.5Z" fill="#0066CC"/>
<path d="M288.246 51V41.2H292.208C292.805 41.2 293.323 41.3027 293.762 41.508C294.21 41.7133 294.555 42.0027 294.798 42.376C295.041 42.7493 295.162 43.188 295.162 43.692C295.162 44.2333 295.003 44.7 294.686 45.092C294.378 45.4747 293.958 45.7453 293.426 45.904C294.079 46.0533 294.593 46.338 294.966 46.758C295.349 47.1687 295.54 47.6773 295.54 48.284C295.54 48.8253 295.409 49.3013 295.148 49.712C294.887 50.1227 294.518 50.44 294.042 50.664C293.566 50.888 293.006 51 292.362 51H288.246ZM289.324 45.484H292.124C292.721 45.484 293.197 45.3347 293.552 45.036C293.907 44.728 294.084 44.3173 294.084 43.804C294.084 43.2907 293.907 42.8847 293.552 42.586C293.197 42.278 292.721 42.124 292.124 42.124H289.324V45.484ZM289.324 50.076H292.25C292.913 50.076 293.445 49.908 293.846 49.572C294.247 49.2267 294.448 48.774 294.448 48.214C294.448 47.654 294.247 47.206 293.846 46.87C293.454 46.534 292.922 46.366 292.25 46.366H289.324V50.076ZM299.715 51.112C299.229 51.112 298.8 51.0047 298.427 50.79C298.053 50.5753 297.759 50.2767 297.545 49.894C297.339 49.5113 297.237 49.0727 297.237 48.578V44.168H298.273V48.284C298.273 48.8907 298.436 49.3713 298.763 49.726C299.089 50.0807 299.533 50.258 300.093 50.258C300.475 50.258 300.816 50.1693 301.115 49.992C301.423 49.8147 301.679 49.558 301.885 49.222V44.168H302.907V51H301.885V49.894C301.623 50.2953 301.311 50.5987 300.947 50.804C300.592 51.0093 300.181 51.112 299.715 51.112ZM307.607 51.14C307.019 51.14 306.571 51 306.263 50.72C305.964 50.4307 305.815 50.0153 305.815 49.474V45.008H304.401V44.168H305.815V42.292L306.837 42.054V44.168H308.797V45.008H306.837V49.208C306.837 49.572 306.912 49.8333 307.061 49.992C307.22 50.1507 307.476 50.23 307.831 50.23C308.008 50.23 308.167 50.216 308.307 50.188C308.447 50.16 308.61 50.1133 308.797 50.048V50.958C308.61 51.0233 308.414 51.07 308.209 51.098C308.004 51.126 307.803 51.14 307.607 51.14ZM313.035 51.14C312.447 51.14 311.999 51 311.691 50.72C311.392 50.4307 311.243 50.0153 311.243 49.474V45.008H309.829V44.168H311.243V42.292L312.265 42.054V44.168H314.225V45.008H312.265V49.208C312.265 49.572 312.34 49.8333 312.489 49.992C312.648 50.1507 312.904 50.23 313.259 50.23C313.436 50.23 313.595 50.216 313.735 50.188C313.875 50.16 314.038 50.1133 314.225 50.048V50.958C314.038 51.0233 313.842 51.07 313.637 51.098C313.432 51.126 313.231 51.14 313.035 51.14ZM318.609 51.112C317.974 51.112 317.405 50.958 316.901 50.65C316.397 50.342 316 49.922 315.711 49.39C315.422 48.858 315.277 48.256 315.277 47.584C315.277 46.912 315.422 46.31 315.711 45.778C316 45.246 316.397 44.826 316.901 44.518C317.405 44.21 317.974 44.056 318.609 44.056C319.234 44.056 319.794 44.21 320.289 44.518C320.793 44.826 321.19 45.246 321.479 45.778C321.768 46.31 321.913 46.912 321.913 47.584C321.913 48.256 321.768 48.858 321.479 49.39C321.19 49.922 320.793 50.342 320.289 50.65C319.794 50.958 319.234 51.112 318.609 51.112ZM318.595 50.216C319.043 50.216 319.44 50.104 319.785 49.88C320.13 49.6467 320.401 49.3293 320.597 48.928C320.802 48.5267 320.905 48.0787 320.905 47.584C320.905 47.08 320.802 46.632 320.597 46.24C320.401 45.8387 320.13 45.526 319.785 45.302C319.44 45.0687 319.043 44.952 318.595 44.952C318.147 44.952 317.75 45.0687 317.405 45.302C317.06 45.526 316.784 45.8387 316.579 46.24C316.383 46.632 316.285 47.08 316.285 47.584C316.285 48.0787 316.383 48.5267 316.579 48.928C316.784 49.3293 317.06 49.6467 317.405 49.88C317.75 50.104 318.147 50.216 318.595 50.216ZM323.706 51V44.168H324.728V45.274C324.99 44.8633 325.302 44.56 325.666 44.364C326.03 44.1587 326.441 44.056 326.898 44.056C327.393 44.056 327.822 44.1633 328.186 44.378C328.56 44.5833 328.849 44.8773 329.054 45.26C329.269 45.6333 329.376 46.072 329.376 46.576V51H328.354V46.87C328.354 46.2633 328.186 45.7873 327.85 45.442C327.524 45.0873 327.08 44.91 326.52 44.91C326.147 44.91 325.806 44.9987 325.498 45.176C325.19 45.3533 324.934 45.6147 324.728 45.96V51H323.706Z" fill="white"/>
<mask id="path-10-inside-2_385_66285" fill="white">
<path d="M363 46.5C363 36.2827 371.283 28 381.5 28H436.5C446.717 28 455 36.2827 455 46.5V46.5C455 56.7173 446.717 65 436.5 65H381.5C371.283 65 363 56.7173 363 46.5V46.5Z"/>
</mask>
<path d="M381.5 29H436.5V27H381.5V29ZM436.5 64H381.5V66H436.5V64ZM381.5 64C371.835 64 364 56.165 364 46.5H362C362 57.2696 370.73 66 381.5 66V64ZM454 46.5C454 56.165 446.165 64 436.5 64V66C447.27 66 456 57.2696 456 46.5H454ZM436.5 29C446.165 29 454 36.835 454 46.5H456C456 35.7304 447.27 27 436.5 27V29ZM381.5 27C370.73 27 362 35.7304 362 46.5H364C364 36.835 371.835 29 381.5 29V27Z" fill="#0066CC" mask="url(#path-10-inside-2_385_66285)"/>
<path d="M388.246 51V41.2H392.208C392.805 41.2 393.323 41.3027 393.762 41.508C394.21 41.7133 394.555 42.0027 394.798 42.376C395.041 42.7493 395.162 43.188 395.162 43.692C395.162 44.2333 395.003 44.7 394.686 45.092C394.378 45.4747 393.958 45.7453 393.426 45.904C394.079 46.0533 394.593 46.338 394.966 46.758C395.349 47.1687 395.54 47.6773 395.54 48.284C395.54 48.8253 395.409 49.3013 395.148 49.712C394.887 50.1227 394.518 50.44 394.042 50.664C393.566 50.888 393.006 51 392.362 51H388.246ZM389.324 45.484H392.124C392.721 45.484 393.197 45.3347 393.552 45.036C393.907 44.728 394.084 44.3173 394.084 43.804C394.084 43.2907 393.907 42.8847 393.552 42.586C393.197 42.278 392.721 42.124 392.124 42.124H389.324V45.484ZM389.324 50.076H392.25C392.913 50.076 393.445 49.908 393.846 49.572C394.247 49.2267 394.448 48.774 394.448 48.214C394.448 47.654 394.247 47.206 393.846 46.87C393.454 46.534 392.922 46.366 392.25 46.366H389.324V50.076ZM399.715 51.112C399.229 51.112 398.8 51.0047 398.427 50.79C398.053 50.5753 397.759 50.2767 397.545 49.894C397.339 49.5113 397.237 49.0727 397.237 48.578V44.168H398.273V48.284C398.273 48.8907 398.436 49.3713 398.763 49.726C399.089 50.0807 399.533 50.258 400.093 50.258C400.475 50.258 400.816 50.1693 401.115 49.992C401.423 49.8147 401.679 49.558 401.885 49.222V44.168H402.907V51H401.885V49.894C401.623 50.2953 401.311 50.5987 400.947 50.804C400.592 51.0093 400.181 51.112 399.715 51.112ZM407.607 51.14C407.019 51.14 406.571 51 406.263 50.72C405.964 50.4307 405.815 50.0153 405.815 49.474V45.008H404.401V44.168H405.815V42.292L406.837 42.054V44.168H408.797V45.008H406.837V49.208C406.837 49.572 406.912 49.8333 407.061 49.992C407.22 50.1507 407.476 50.23 407.831 50.23C408.008 50.23 408.167 50.216 408.307 50.188C408.447 50.16 408.61 50.1133 408.797 50.048V50.958C408.61 51.0233 408.414 51.07 408.209 51.098C408.004 51.126 407.803 51.14 407.607 51.14ZM413.035 51.14C412.447 51.14 411.999 51 411.691 50.72C411.392 50.4307 411.243 50.0153 411.243 49.474V45.008H409.829V44.168H411.243V42.292L412.265 42.054V44.168H414.225V45.008H412.265V49.208C412.265 49.572 412.34 49.8333 412.489 49.992C412.648 50.1507 412.904 50.23 413.259 50.23C413.436 50.23 413.595 50.216 413.735 50.188C413.875 50.16 414.038 50.1133 414.225 50.048V50.958C414.038 51.0233 413.842 51.07 413.637 51.098C413.432 51.126 413.231 51.14 413.035 51.14ZM418.609 51.112C417.974 51.112 417.405 50.958 416.901 50.65C416.397 50.342 416 49.922 415.711 49.39C415.422 48.858 415.277 48.256 415.277 47.584C415.277 46.912 415.422 46.31 415.711 45.778C416 45.246 416.397 44.826 416.901 44.518C417.405 44.21 417.974 44.056 418.609 44.056C419.234 44.056 419.794 44.21 420.289 44.518C420.793 44.826 421.19 45.246 421.479 45.778C421.768 46.31 421.913 46.912 421.913 47.584C421.913 48.256 421.768 48.858 421.479 49.39C421.19 49.922 420.793 50.342 420.289 50.65C419.794 50.958 419.234 51.112 418.609 51.112ZM418.595 50.216C419.043 50.216 419.44 50.104 419.785 49.88C420.13 49.6467 420.401 49.3293 420.597 48.928C420.802 48.5267 420.905 48.0787 420.905 47.584C420.905 47.08 420.802 46.632 420.597 46.24C420.401 45.8387 420.13 45.526 419.785 45.302C419.44 45.0687 419.043 44.952 418.595 44.952C418.147 44.952 417.75 45.0687 417.405 45.302C417.06 45.526 416.784 45.8387 416.579 46.24C416.383 46.632 416.285 47.08 416.285 47.584C416.285 48.0787 416.383 48.5267 416.579 48.928C416.784 49.3293 417.06 49.6467 417.405 49.88C417.75 50.104 418.147 50.216 418.595 50.216ZM423.706 51V44.168H424.728V45.274C424.99 44.8633 425.302 44.56 425.666 44.364C426.03 44.1587 426.441 44.056 426.898 44.056C427.393 44.056 427.822 44.1633 428.186 44.378C428.56 44.5833 428.849 44.8773 429.054 45.26C429.269 45.6333 429.376 46.072 429.376 46.576V51H428.354V46.87C428.354 46.2633 428.186 45.7873 427.85 45.442C427.524 45.0873 427.08 44.91 426.52 44.91C426.147 44.91 425.806 44.9987 425.498 45.176C425.19 45.3533 424.934 45.6147 424.728 45.96V51H423.706Z" fill="#0066CC"/>
<path fill-rule="evenodd" clip-rule="evenodd" d="M486.292 43.5645C487.42 43.5645 488.333 42.6556 488.333 41.5323C488.333 40.4089 487.42 39.5 486.292 39.5C485.163 39.5 484.25 40.4089 484.25 41.5323C484.25 42.6556 485.163 43.5645 486.292 43.5645ZM486.292 48.5323C487.42 48.5323 488.333 47.6234 488.333 46.5C488.333 45.3766 487.42 44.4677 486.292 44.4677C485.163 44.4677 484.25 45.3766 484.25 46.5C484.25 47.6234 485.163 48.5323 486.292 48.5323ZM486.292 53.5C487.42 53.5 488.333 52.5911 488.333 51.4677C488.333 50.3444 487.42 49.4355 486.292 49.4355C485.163 49.4355 484.25 50.3444 484.25 51.4677C484.25 52.5911 485.163 53.5 486.292 53.5Z" fill="#1F1F1F"/>
<g filter="url(#filter0_d_385_66285)">
<path d="M22 71C22 67.6863 24.6863 65 28 65H221C224.314 65 227 67.6863 227 71V186C227 189.314 224.314 192 221 192H28C24.6863 192 22 189.314 22 186V71Z" fill="white"/>
<mask id="path-16-inside-3_385_66285" fill="white">
<path d="M46 87.5C46 85.2909 47.7909 83.5 50 83.5H58C60.2091 83.5 62 85.2909 62 87.5V95.5C62 97.7091 60.2091 99.5 58 99.5H50C47.7909 99.5 46 97.7091 46 95.5V87.5Z"/>
</mask>
<path d="M46 87.5C46 85.2909 47.7909 83.5 50 83.5H58C60.2091 83.5 62 85.2909 62 87.5V95.5C62 97.7091 60.2091 99.5 58 99.5H50C47.7909 99.5 46 97.7091 46 95.5V87.5Z" fill="white"/>
<path d="M50 84.5H58V82.5H50V84.5ZM61 87.5V95.5H63V87.5H61ZM58 98.5H50V100.5H58V98.5ZM47 95.5V87.5H45V95.5H47ZM50 98.5C48.3431 98.5 47 97.1569 47 95.5H45C45 98.2614 47.2386 100.5 50 100.5V98.5ZM61 95.5C61 97.1569 59.6569 98.5 58 98.5V100.5C60.7614 100.5 63 98.2614 63 95.5H61ZM58 84.5C59.6569 84.5 61 85.8431 61 87.5H63C63 84.7386 60.7614 82.5 58 82.5V84.5ZM50 82.5C47.2386 82.5 45 84.7386 45 87.5H47C47 85.8431 48.3431 84.5 50 84.5V82.5Z" fill="#C7C7C7" mask="url(#path-16-inside-3_385_66285)"/>
<path d="M71.232 96V86.2H72.31V96H71.232ZM74.591 96V89.168H75.613V90.274C75.8743 89.8633 76.187 89.56 76.551 89.364C76.915 89.1587 77.3257 89.056 77.783 89.056C78.2777 89.056 78.707 89.1633 79.071 89.378C79.4443 89.5833 79.7337 89.8773 79.939 90.26C80.1537 90.6333 80.261 91.072 80.261 91.576V96H79.239V91.87C79.239 91.2633 79.071 90.7873 78.735 90.442C78.4083 90.0873 77.965 89.91 77.405 89.91C77.0317 89.91 76.691 89.9987 76.383 90.176C76.075 90.3533 75.8183 90.6147 75.613 90.96V96H74.591ZM82.9785 96V90.008H81.4525V89.168H82.9785V87.74C82.9785 87.068 83.1559 86.55 83.5105 86.186C83.8652 85.822 84.3692 85.64 85.0225 85.64C85.2092 85.64 85.3772 85.6493 85.5265 85.668C85.6852 85.6867 85.8252 85.7193 85.9465 85.766V86.69C85.7972 86.6433 85.6619 86.6107 85.5405 86.592C85.4192 86.5733 85.2792 86.564 85.1205 86.564C84.7285 86.564 84.4439 86.662 84.2665 86.858C84.0892 87.0447 84.0005 87.3433 84.0005 87.754V89.168H85.9465V90.008H84.0005V96H82.9785ZM90.0291 96.112C89.3944 96.112 88.8251 95.958 88.3211 95.65C87.8171 95.342 87.4204 94.922 87.1311 94.39C86.8417 93.858 86.6971 93.256 86.6971 92.584C86.6971 91.912 86.8417 91.31 87.1311 90.778C87.4204 90.246 87.8171 89.826 88.3211 89.518C88.8251 89.21 89.3944 89.056 90.0291 89.056C90.6544 89.056 91.2144 89.21 91.7091 89.518C92.2131 89.826 92.6097 90.246 92.8991 90.778C93.1884 91.31 93.3331 91.912 93.3331 92.584C93.3331 93.256 93.1884 93.858 92.8991 94.39C92.6097 94.922 92.2131 95.342 91.7091 95.65C91.2144 95.958 90.6544 96.112 90.0291 96.112ZM90.0151 95.216C90.4631 95.216 90.8597 95.104 91.2051 94.88C91.5504 94.6467 91.8211 94.3293 92.0171 93.928C92.2224 93.5267 92.3251 93.0787 92.3251 92.584C92.3251 92.08 92.2224 91.632 92.0171 91.24C91.8211 90.8387 91.5504 90.526 91.2051 90.302C90.8597 90.0687 90.4631 89.952 90.0151 89.952C89.5671 89.952 89.1704 90.0687 88.8251 90.302C88.4797 90.526 88.2044 90.8387 87.9991 91.24C87.8031 91.632 87.7051 92.08 87.7051 92.584C87.7051 93.0787 87.8031 93.5267 87.9991 93.928C88.2044 94.3293 88.4797 94.6467 88.8251 94.88C89.1704 95.104 89.5671 95.216 90.0151 95.216Z" fill="#151515"/>
<path d="M46 124.5C46 122.291 47.7909 120.5 50 120.5H58C60.2091 120.5 62 122.291 62 124.5V132.5C62 134.709 60.2091 136.5 58 136.5H50C47.7909 136.5 46 134.709 46 132.5V124.5Z" fill="#0066CC"/>
<path fill-rule="evenodd" clip-rule="evenodd" d="M52.9242 132.773L59.8242 125.873C60.0585 125.638 60.0585 125.259 59.8242 125.024L58.9757 124.176C58.7414 123.941 58.3615 123.941 58.1272 124.176L52.5 129.803L49.8728 127.176C49.6385 126.941 49.2585 126.941 49.0242 127.176L48.1757 128.024C47.9414 128.259 47.9414 128.638 48.1757 128.873L52.0757 132.773C52.31 133.007 52.6899 133.007 52.9242 132.773Z" fill="white"/>
<path d="M72.702 133L70.588 123.2H71.68L73.346 131.306L75.768 123.2H76.818L79.24 131.278L80.92 123.2H81.97L79.856 133H78.764L76.286 124.684L73.794 133H72.702ZM85.1679 133.126C84.6826 133.126 84.2532 133.037 83.8799 132.86C83.5066 132.683 83.2126 132.44 82.9979 132.132C82.7926 131.815 82.6899 131.451 82.6899 131.04C82.6899 130.629 82.7972 130.275 83.0119 129.976C83.2266 129.668 83.5252 129.43 83.9079 129.262C84.2906 129.094 84.7386 129.01 85.2519 129.01C85.6439 129.01 86.0126 129.052 86.3579 129.136C86.7126 129.22 87.0392 129.355 87.3379 129.542V128.604C87.3379 128.044 87.1886 127.624 86.8899 127.344C86.5912 127.055 86.1526 126.91 85.5739 126.91C85.2566 126.91 84.9299 126.957 84.5939 127.05C84.2672 127.143 83.9032 127.293 83.5019 127.498L83.1239 126.714C84.0386 126.275 84.8972 126.056 85.6999 126.056C86.5492 126.056 87.2026 126.266 87.6599 126.686C88.1172 127.097 88.3459 127.689 88.3459 128.464V133H87.3379V132.202C87.0392 132.51 86.7079 132.743 86.3439 132.902C85.9799 133.051 85.5879 133.126 85.1679 133.126ZM83.6699 131.012C83.6699 131.413 83.8239 131.735 84.1319 131.978C84.4492 132.221 84.8646 132.342 85.3779 132.342C85.7606 132.342 86.1106 132.277 86.4279 132.146C86.7546 132.015 87.0579 131.819 87.3379 131.558V130.242C87.0486 130.074 86.7499 129.953 86.4419 129.878C86.1339 129.794 85.7886 129.752 85.4059 129.752C84.8832 129.752 84.4632 129.869 84.1459 130.102C83.8286 130.326 83.6699 130.629 83.6699 131.012ZM90.423 133V126.168H91.445V127.568C91.6224 127.092 91.8744 126.723 92.201 126.462C92.537 126.191 92.9197 126.056 93.349 126.056C93.4704 126.056 93.5824 126.065 93.685 126.084C93.7877 126.093 93.8904 126.117 93.993 126.154V127.078C93.881 127.041 93.7597 127.013 93.629 126.994C93.5077 126.966 93.391 126.952 93.279 126.952C92.859 126.952 92.4904 127.073 92.173 127.316C91.865 127.559 91.6224 127.899 91.445 128.338V133H90.423ZM95.3449 133V126.168H96.3669V127.274C96.6283 126.863 96.9409 126.56 97.3049 126.364C97.6689 126.159 98.0796 126.056 98.5369 126.056C99.0316 126.056 99.4609 126.163 99.8249 126.378C100.198 126.583 100.488 126.877 100.693 127.26C100.908 127.633 101.015 128.072 101.015 128.576V133H99.9929V128.87C99.9929 128.263 99.8249 127.787 99.4889 127.442C99.1623 127.087 98.7189 126.91 98.1589 126.91C97.7856 126.91 97.4449 126.999 97.1369 127.176C96.8289 127.353 96.5723 127.615 96.3669 127.96V133H95.3449ZM103.056 133V126.168H104.078V133H103.056ZM103.574 124.474C103.368 124.474 103.191 124.404 103.042 124.264C102.902 124.115 102.832 123.942 102.832 123.746C102.832 123.55 102.902 123.382 103.042 123.242C103.191 123.093 103.368 123.018 103.574 123.018C103.779 123.018 103.952 123.093 104.092 123.242C104.241 123.382 104.316 123.55 104.316 123.746C104.316 123.942 104.241 124.115 104.092 124.264C103.952 124.404 103.779 124.474 103.574 124.474ZM106.173 133V126.168H107.195V127.274C107.456 126.863 107.769 126.56 108.133 126.364C108.497 126.159 108.908 126.056 109.365 126.056C109.86 126.056 110.289 126.163 110.653 126.378C111.026 126.583 111.316 126.877 111.521 127.26C111.736 127.633 111.843 128.072 111.843 128.576V133H110.821V128.87C110.821 128.263 110.653 127.787 110.317 127.442C109.99 127.087 109.547 126.91 108.987 126.91C108.614 126.91 108.273 126.999 107.965 127.176C107.657 127.353 107.4 127.615 107.195 127.96V133H106.173ZM117.062 136.066C116.604 136.066 116.142 136.001 115.676 135.87C115.218 135.749 114.794 135.576 114.402 135.352L114.836 134.568C115.256 134.783 115.638 134.941 115.984 135.044C116.329 135.147 116.674 135.198 117.02 135.198C117.645 135.198 118.116 135.049 118.434 134.75C118.76 134.451 118.924 134.017 118.924 133.448V132.076C118.662 132.403 118.345 132.655 117.972 132.832C117.598 133 117.188 133.084 116.74 133.084C116.152 133.084 115.62 132.93 115.144 132.622C114.668 132.305 114.29 131.885 114.01 131.362C113.73 130.83 113.59 130.237 113.59 129.584C113.59 128.931 113.73 128.343 114.01 127.82C114.299 127.288 114.686 126.868 115.172 126.56C115.657 126.243 116.198 126.084 116.796 126.084C117.225 126.084 117.622 126.168 117.986 126.336C118.35 126.495 118.667 126.733 118.938 127.05V126.168H119.946V133.434C119.946 134.283 119.698 134.932 119.204 135.38C118.709 135.837 117.995 136.066 117.062 136.066ZM116.992 132.202C117.393 132.202 117.762 132.123 118.098 131.964C118.434 131.796 118.709 131.567 118.924 131.278V127.904C118.7 127.615 118.415 127.391 118.07 127.232C117.734 127.064 117.374 126.98 116.992 126.98C116.534 126.98 116.124 127.092 115.76 127.316C115.405 127.54 115.12 127.848 114.906 128.24C114.7 128.632 114.598 129.08 114.598 129.584C114.598 130.079 114.7 130.527 114.906 130.928C115.12 131.32 115.405 131.633 115.76 131.866C116.124 132.09 116.534 132.202 116.992 132.202Z" fill="#151515"/>
<mask id="path-22-inside-4_385_66285" fill="white">
<path d="M46 161.5C46 159.291 47.7909 157.5 50 157.5H58C60.2091 157.5 62 159.291 62 161.5V169.5C62 171.709 60.2091 173.5 58 173.5H50C47.7909 173.5 46 171.709 46 169.5V161.5Z"/>
</mask>
<path d="M46 161.5C46 159.291 47.7909 157.5 50 157.5H58C60.2091 157.5 62 159.291 62 161.5V169.5C62 171.709 60.2091 173.5 58 173.5H50C47.7909 173.5 46 171.709 46 169.5V161.5Z" fill="white"/>
<path d="M50 158.5H58V156.5H50V158.5ZM61 161.5V169.5H63V161.5H61ZM58 172.5H50V174.5H58V172.5ZM47 169.5V161.5H45V169.5H47ZM50 172.5C48.3431 172.5 47 171.157 47 169.5H45C45 172.261 47.2386 174.5 50 174.5V172.5ZM61 169.5C61 171.157 59.6569 172.5 58 172.5V174.5C60.7614 174.5 63 172.261 63 169.5H61ZM58 158.5C59.6569 158.5 61 159.843 61 161.5H63C63 158.739 60.7614 156.5 58 156.5V158.5ZM50 156.5C47.2386 156.5 45 158.739 45 161.5H47C47 159.843 48.3431 158.5 50 158.5V156.5Z" fill="#C7C7C7" mask="url(#path-22-inside-4_385_66285)"/>
<path d="M71.246 170V160.2H77.938V161.152H72.324V164.582H76.216V165.52H72.324V169.048H77.994V170H71.246ZM79.718 170V163.168H80.74V164.568C80.9173 164.092 81.1693 163.723 81.496 163.462C81.832 163.191 82.2146 163.056 82.644 163.056C82.7653 163.056 82.8773 163.065 82.98 163.084C83.0826 163.093 83.1853 163.117 83.288 163.154V164.078C83.176 164.041 83.0546 164.013 82.924 163.994C82.8026 163.966 82.686 163.952 82.574 163.952C82.154 163.952 81.7853 164.073 81.468 164.316C81.16 164.559 80.9173 164.899 80.74 165.338V170H79.718ZM84.6398 170V163.168H85.6618V164.568C85.8392 164.092 86.0912 163.723 86.4178 163.462C86.7538 163.191 87.1365 163.056 87.5658 163.056C87.6872 163.056 87.7992 163.065 87.9018 163.084C88.0045 163.093 88.1072 163.117 88.2098 163.154V164.078C88.0978 164.041 87.9765 164.013 87.8458 163.994C87.7245 163.966 87.6078 163.952 87.4958 163.952C87.0758 163.952 86.7072 164.073 86.3898 164.316C86.0818 164.559 85.8392 164.899 85.6618 165.338V170H84.6398ZM92.1619 170.112C91.5272 170.112 90.9579 169.958 90.4539 169.65C89.9499 169.342 89.5532 168.922 89.2639 168.39C88.9746 167.858 88.8299 167.256 88.8299 166.584C88.8299 165.912 88.9746 165.31 89.2639 164.778C89.5532 164.246 89.9499 163.826 90.4539 163.518C90.9579 163.21 91.5272 163.056 92.1619 163.056C92.7872 163.056 93.3472 163.21 93.8419 163.518C94.3459 163.826 94.7426 164.246 95.0319 164.778C95.3212 165.31 95.4659 165.912 95.4659 166.584C95.4659 167.256 95.3212 167.858 95.0319 168.39C94.7426 168.922 94.3459 169.342 93.8419 169.65C93.3472 169.958 92.7872 170.112 92.1619 170.112ZM92.1479 169.216C92.5959 169.216 92.9926 169.104 93.3379 168.88C93.6832 168.647 93.9539 168.329 94.1499 167.928C94.3552 167.527 94.4579 167.079 94.4579 166.584C94.4579 166.08 94.3552 165.632 94.1499 165.24C93.9539 164.839 93.6832 164.526 93.3379 164.302C92.9926 164.069 92.5959 163.952 92.1479 163.952C91.6999 163.952 91.3032 164.069 90.9579 164.302C90.6126 164.526 90.3372 164.839 90.1319 165.24C89.9359 165.632 89.8379 166.08 89.8379 166.584C89.8379 167.079 89.9359 167.527 90.1319 167.928C90.3372 168.329 90.6126 168.647 90.9579 168.88C91.3032 169.104 91.6999 169.216 92.1479 169.216ZM97.259 170V163.168H98.281V164.568C98.4583 164.092 98.7103 163.723 99.037 163.462C99.373 163.191 99.7557 163.056 100.185 163.056C100.306 163.056 100.418 163.065 100.521 163.084C100.624 163.093 100.726 163.117 100.829 163.154V164.078C100.717 164.041 100.596 164.013 100.465 163.994C100.344 163.966 100.227 163.952 100.115 163.952C99.695 163.952 99.3263 164.073 99.009 164.316C98.701 164.559 98.4583 164.899 98.281 165.338V170H97.259Z" fill="#151515"/>
</g>
</g>
<defs>
<filter id="filter0_d_385_66285" x="13" y="60" width="223" height="145" filterUnits="userSpaceOnUse" color-interpolation-filters="sRGB">
<feFlood flood-opacity="0" result="BackgroundImageFix"/>
<feColorMatrix in="SourceAlpha" type="matrix" values="0 0 0 0 0 0 0 0 0 0 0 0 0 0 0 0 0 0 127 0" result="hardAlpha"/>
<feOffset dy="4"/>
<feGaussianBlur stdDeviation="4.5"/>
<feColorMatrix type="matrix" values="0 0 0 0 0.160784 0 0 0 0 0.160784 0 0 0 0 0.160784 0 0 0 0.15 0"/>
<feBlend mode="normal" in2="BackgroundImageFix" result="effect1_dropShadow_385_66285"/>
<feBlend mode="normal" in="SourceGraphic" in2="effect1_dropShadow_385_66285" result="shape"/>
</filter>
<clipPath id="clip0_385_66285">
<rect width="520" height="211" fill="white"/>
</clipPath>
</defs>
</svg>
