<svg width="637" height="253" viewBox="0 0 637 253" fill="none" xmlns="http://www.w3.org/2000/svg">
<rect width="637" height="253" fill="white"/>
<mask id="path-1-inside-1_385_9940" fill="white">
<path d="M26 28C26 24.6863 28.6863 22 32 22H264C267.314 22 270 24.6863 270 28V53C270 56.3137 267.314 59 264 59H32C28.6863 59 26 56.3137 26 53V28Z"/>
</mask>
<path d="M26 28C26 24.6863 28.6863 22 32 22H264C267.314 22 270 24.6863 270 28V53C270 56.3137 267.314 59 264 59H32C28.6863 59 26 56.3137 26 53V28Z" fill="white"/>
<path d="M32 24H264V20H32V24ZM268 28V53H272V28H268ZM264 57H32V61H264V57ZM28 53V28H24V53H28ZM32 57C29.7909 57 28 55.2091 28 53H24C24 57.4183 27.5817 61 32 61V57ZM268 53C268 55.2091 266.209 57 264 57V61C268.418 61 272 57.4183 272 53H268ZM264 24C266.209 24 268 25.7909 268 28H272C272 23.5817 268.418 20 264 20V24ZM32 20C27.5817 20 24 23.5817 24 28H28C28 25.7909 29.7909 24 32 24V20Z" fill="#0066CC" mask="url(#path-1-inside-1_385_9940)"/>
<path d="M42.126 45L46.004 35.2H47.292L51.114 45H49.952L48.79 41.92H44.422L43.26 45H42.126ZM44.758 41.066H48.468L46.606 36.18L44.758 41.066ZM52.2922 45V38.168H53.3142V39.568C53.4915 39.092 53.7435 38.7233 54.0702 38.462C54.4062 38.1913 54.7889 38.056 55.2182 38.056C55.3395 38.056 55.4515 38.0653 55.5542 38.084C55.6569 38.0933 55.7595 38.1167 55.8622 38.154V39.078C55.7502 39.0407 55.6289 39.0127 55.4982 38.994C55.3769 38.966 55.2602 38.952 55.1482 38.952C54.7282 38.952 54.3595 39.0733 54.0422 39.316C53.7342 39.5587 53.4915 39.8993 53.3142 40.338V45H52.2922ZM57.2001 45V38.168H58.2221V45H57.2001ZM57.7181 36.474C57.5127 36.474 57.3354 36.404 57.1861 36.264C57.0461 36.1147 56.9761 35.942 56.9761 35.746C56.9761 35.55 57.0461 35.382 57.1861 35.242C57.3354 35.0927 57.5127 35.018 57.7181 35.018C57.9234 35.018 58.0961 35.0927 58.2361 35.242C58.3854 35.382 58.4601 35.55 58.4601 35.746C58.4601 35.942 58.3854 36.1147 58.2361 36.264C58.0961 36.404 57.9234 36.474 57.7181 36.474ZM59.8416 45V44.188L63.7756 39.092L59.8836 39.106V38.168H65.0216V38.966L61.0736 44.09L65.0776 44.076V45H59.8416ZM69.5623 45.112C68.9276 45.112 68.3583 44.958 67.8543 44.65C67.3503 44.342 66.9536 43.922 66.6643 43.39C66.3749 42.858 66.2303 42.256 66.2303 41.584C66.2303 40.912 66.3749 40.31 66.6643 39.778C66.9536 39.246 67.3503 38.826 67.8543 38.518C68.3583 38.21 68.9276 38.056 69.5623 38.056C70.1876 38.056 70.7476 38.21 71.2423 38.518C71.7463 38.826 72.1429 39.246 72.4323 39.778C72.7216 40.31 72.8663 40.912 72.8663 41.584C72.8663 42.256 72.7216 42.858 72.4323 43.39C72.1429 43.922 71.7463 44.342 71.2423 44.65C70.7476 44.958 70.1876 45.112 69.5623 45.112ZM69.5483 44.216C69.9963 44.216 70.3929 44.104 70.7383 43.88C71.0836 43.6467 71.3543 43.3293 71.5503 42.928C71.7556 42.5267 71.8583 42.0787 71.8583 41.584C71.8583 41.08 71.7556 40.632 71.5503 40.24C71.3543 39.8387 71.0836 39.526 70.7383 39.302C70.3929 39.0687 69.9963 38.952 69.5483 38.952C69.1003 38.952 68.7036 39.0687 68.3583 39.302C68.0129 39.526 67.7376 39.8387 67.5323 40.24C67.3363 40.632 67.2383 41.08 67.2383 41.584C67.2383 42.0787 67.3363 42.5267 67.5323 42.928C67.7376 43.3293 68.0129 43.6467 68.3583 43.88C68.7036 44.104 69.1003 44.216 69.5483 44.216ZM74.6594 45V38.168H75.6814V39.274C75.9427 38.8633 76.2554 38.56 76.6194 38.364C76.9834 38.1587 77.394 38.056 77.8514 38.056C78.346 38.056 78.7754 38.1633 79.1394 38.378C79.5127 38.5833 79.802 38.8773 80.0074 39.26C80.222 39.6333 80.3294 40.072 80.3294 40.576V45H79.3074V40.87C79.3074 40.2633 79.1394 39.7873 78.8034 39.442C78.4767 39.0873 78.0334 38.91 77.4734 38.91C77.1 38.91 76.7594 38.9987 76.4514 39.176C76.1434 39.3533 75.8867 39.6147 75.6814 39.96V45H74.6594ZM84.498 45.126C84.0127 45.126 83.5833 45.0373 83.21 44.86C82.8367 44.6827 82.5427 44.44 82.328 44.132C82.1227 43.8147 82.02 43.4507 82.02 43.04C82.02 42.6293 82.1273 42.2747 82.342 41.976C82.5567 41.668 82.8553 41.43 83.238 41.262C83.6207 41.094 84.0687 41.01 84.582 41.01C84.974 41.01 85.3427 41.052 85.688 41.136C86.0427 41.22 86.3693 41.3553 86.668 41.542V40.604C86.668 40.044 86.5187 39.624 86.22 39.344C85.9213 39.0547 85.4827 38.91 84.904 38.91C84.5867 38.91 84.26 38.9567 83.924 39.05C83.5973 39.1433 83.2333 39.2927 82.832 39.498L82.454 38.714C83.3687 38.2753 84.2273 38.056 85.03 38.056C85.8793 38.056 86.5327 38.266 86.99 38.686C87.4473 39.0967 87.676 39.6893 87.676 40.464V45H86.668V44.202C86.3693 44.51 86.038 44.7433 85.674 44.902C85.31 45.0513 84.918 45.126 84.498 45.126ZM83 43.012C83 43.4133 83.154 43.7353 83.462 43.978C83.7793 44.2207 84.1947 44.342 84.708 44.342C85.0907 44.342 85.4407 44.2767 85.758 44.146C86.0847 44.0153 86.388 43.8193 86.668 43.558V42.242C86.3787 42.074 86.08 41.9527 85.772 41.878C85.464 41.794 85.1187 41.752 84.736 41.752C84.2133 41.752 83.7933 41.8687 83.476 42.102C83.1587 42.326 83 42.6293 83 43.012Z" fill="#151515"/>
<path fill-rule="evenodd" clip-rule="evenodd" d="M244.389 43.1714L247.921 39.6102C248.267 39.2615 248.023 38.6666 247.534 38.6666H240.466C239.977 38.6666 239.733 39.2615 240.079 39.6102L243.611 43.1714C243.826 43.3872 244.174 43.3872 244.389 43.1714Z" fill="#1F1F1F"/>
<g filter="url(#filter0_d_385_9940)">
<path d="M26 65C26 61.6863 28.6863 59 32 59H264C267.314 59 270 61.6863 270 65V226C270 229.314 267.314 232 264 232H32C28.6863 232 26 229.314 26 226V65Z" fill="white"/>
<path d="M50.126 95L54.004 85.2H55.292L59.114 95H57.952L56.79 91.92H52.422L51.26 95H50.126ZM52.758 91.066H56.468L54.606 86.18L52.758 91.066ZM60.2922 95V88.168H61.3142V89.568C61.4915 89.092 61.7435 88.7233 62.0702 88.462C62.4062 88.1913 62.7889 88.056 63.2182 88.056C63.3395 88.056 63.4515 88.0653 63.5542 88.084C63.6569 88.0933 63.7595 88.1167 63.8622 88.154V89.078C63.7502 89.0407 63.6289 89.0127 63.4982 88.994C63.3769 88.966 63.2602 88.952 63.1482 88.952C62.7282 88.952 62.3595 89.0733 62.0422 89.316C61.7342 89.5587 61.4915 89.8993 61.3142 90.338V95H60.2922ZM65.2001 95V88.168H66.2221V95H65.2001ZM65.7181 86.474C65.5127 86.474 65.3354 86.404 65.1861 86.264C65.0461 86.1147 64.9761 85.942 64.9761 85.746C64.9761 85.55 65.0461 85.382 65.1861 85.242C65.3354 85.0927 65.5127 85.018 65.7181 85.018C65.9234 85.018 66.0961 85.0927 66.2361 85.242C66.3854 85.382 66.4601 85.55 66.4601 85.746C66.4601 85.942 66.3854 86.1147 66.2361 86.264C66.0961 86.404 65.9234 86.474 65.7181 86.474ZM67.8416 95V94.188L71.7756 89.092L67.8836 89.106V88.168H73.0216V88.966L69.0736 94.09L73.0776 94.076V95H67.8416ZM77.5623 95.112C76.9276 95.112 76.3583 94.958 75.8543 94.65C75.3503 94.342 74.9536 93.922 74.6643 93.39C74.3749 92.858 74.2303 92.256 74.2303 91.584C74.2303 90.912 74.3749 90.31 74.6643 89.778C74.9536 89.246 75.3503 88.826 75.8543 88.518C76.3583 88.21 76.9276 88.056 77.5623 88.056C78.1876 88.056 78.7476 88.21 79.2423 88.518C79.7463 88.826 80.1429 89.246 80.4323 89.778C80.7216 90.31 80.8663 90.912 80.8663 91.584C80.8663 92.256 80.7216 92.858 80.4323 93.39C80.1429 93.922 79.7463 94.342 79.2423 94.65C78.7476 94.958 78.1876 95.112 77.5623 95.112ZM77.5483 94.216C77.9963 94.216 78.3929 94.104 78.7383 93.88C79.0836 93.6467 79.3543 93.3293 79.5503 92.928C79.7556 92.5267 79.8583 92.0787 79.8583 91.584C79.8583 91.08 79.7556 90.632 79.5503 90.24C79.3543 89.8387 79.0836 89.526 78.7383 89.302C78.3929 89.0687 77.9963 88.952 77.5483 88.952C77.1003 88.952 76.7036 89.0687 76.3583 89.302C76.0129 89.526 75.7376 89.8387 75.5323 90.24C75.3363 90.632 75.2383 91.08 75.2383 91.584C75.2383 92.0787 75.3363 92.5267 75.5323 92.928C75.7376 93.3293 76.0129 93.6467 76.3583 93.88C76.7036 94.104 77.1003 94.216 77.5483 94.216ZM82.6594 95V88.168H83.6814V89.274C83.9427 88.8633 84.2554 88.56 84.6194 88.364C84.9834 88.1587 85.394 88.056 85.8514 88.056C86.346 88.056 86.7754 88.1633 87.1394 88.378C87.5127 88.5833 87.802 88.8773 88.0074 89.26C88.222 89.6333 88.3294 90.072 88.3294 90.576V95H87.3074V90.87C87.3074 90.2633 87.1394 89.7873 86.8034 89.442C86.4767 89.0873 86.0334 88.91 85.4734 88.91C85.1 88.91 84.7594 88.9987 84.4514 89.176C84.1434 89.3533 83.8867 89.6147 83.6814 89.96V95H82.6594ZM92.498 95.126C92.0127 95.126 91.5833 95.0373 91.21 94.86C90.8367 94.6827 90.5427 94.44 90.328 94.132C90.1227 93.8147 90.02 93.4507 90.02 93.04C90.02 92.6293 90.1273 92.2747 90.342 91.976C90.5567 91.668 90.8553 91.43 91.238 91.262C91.6207 91.094 92.0687 91.01 92.582 91.01C92.974 91.01 93.3427 91.052 93.688 91.136C94.0427 91.22 94.3693 91.3553 94.668 91.542V90.604C94.668 90.044 94.5187 89.624 94.22 89.344C93.9213 89.0547 93.4827 88.91 92.904 88.91C92.5867 88.91 92.26 88.9567 91.924 89.05C91.5973 89.1433 91.2333 89.2927 90.832 89.498L90.454 88.714C91.3687 88.2753 92.2273 88.056 93.03 88.056C93.8793 88.056 94.5327 88.266 94.99 88.686C95.4473 89.0967 95.676 89.6893 95.676 90.464V95H94.668V94.202C94.3693 94.51 94.038 94.7433 93.674 94.902C93.31 95.0513 92.918 95.126 92.498 95.126ZM91 93.012C91 93.4133 91.154 93.7353 91.462 93.978C91.7793 94.2207 92.1947 94.342 92.708 94.342C93.0907 94.342 93.4407 94.2767 93.758 94.146C94.0847 94.0153 94.388 93.8193 94.668 93.558V92.242C94.3787 92.074 94.08 91.9527 93.772 91.878C93.464 91.794 93.1187 91.752 92.736 91.752C92.2133 91.752 91.7933 91.8687 91.476 92.102C91.1587 92.326 91 92.6293 91 93.012Z" fill="#151515"/>
<path fill-rule="evenodd" clip-rule="evenodd" d="M229.745 94.9849L237.795 86.9349C238.068 86.6615 238.068 86.2183 237.795 85.945L236.805 84.955C236.532 84.6817 236.088 84.6817 235.815 84.955L229.25 91.5201L226.185 88.455C225.912 88.1816 225.468 88.1816 225.195 88.455L224.205 89.445C223.932 89.7183 223.932 90.1616 224.205 90.4349L228.755 94.9849C229.028 95.2583 229.472 95.2583 229.745 94.9849Z" fill="#0066CC"/>
<rect width="244" height="37" transform="translate(26 113)" fill="#C7C7C7" fill-opacity="0.25"/>
<path d="M55.768 136.154C55.068 136.154 54.4147 136.028 53.808 135.776C53.2107 135.515 52.6833 135.155 52.226 134.698C51.7687 134.231 51.414 133.695 51.162 133.088C50.91 132.472 50.784 131.809 50.784 131.1C50.784 130.391 50.91 129.733 51.162 129.126C51.414 128.51 51.7687 127.973 52.226 127.516C52.6833 127.049 53.2107 126.69 53.808 126.438C54.4147 126.177 55.068 126.046 55.768 126.046C56.2533 126.046 56.7153 126.111 57.154 126.242C57.602 126.363 58.022 126.545 58.414 126.788C58.806 127.021 59.156 127.311 59.464 127.656L58.75 128.398C58.386 127.959 57.938 127.623 57.406 127.39C56.8833 127.147 56.3373 127.026 55.768 127.026C55.2173 127.026 54.704 127.129 54.228 127.334C53.752 127.539 53.3367 127.829 52.982 128.202C52.6367 128.575 52.366 129.009 52.17 129.504C51.974 129.989 51.876 130.521 51.876 131.1C51.876 131.669 51.974 132.201 52.17 132.696C52.366 133.191 52.6367 133.625 52.982 133.998C53.3367 134.371 53.752 134.661 54.228 134.866C54.704 135.071 55.2173 135.174 55.768 135.174C56.3373 135.174 56.8833 135.053 57.406 134.81C57.938 134.567 58.386 134.231 58.75 133.802L59.464 134.544C59.156 134.889 58.806 135.183 58.414 135.426C58.022 135.659 57.602 135.841 57.154 135.972C56.7153 136.093 56.2533 136.154 55.768 136.154ZM63.3222 136.126C62.8369 136.126 62.4075 136.037 62.0342 135.86C61.6609 135.683 61.3669 135.44 61.1522 135.132C60.9469 134.815 60.8442 134.451 60.8442 134.04C60.8442 133.629 60.9515 133.275 61.1662 132.976C61.3809 132.668 61.6795 132.43 62.0622 132.262C62.4449 132.094 62.8929 132.01 63.4062 132.01C63.7982 132.01 64.1669 132.052 64.5122 132.136C64.8669 132.22 65.1935 132.355 65.4922 132.542V131.604C65.4922 131.044 65.3429 130.624 65.0442 130.344C64.7455 130.055 64.3069 129.91 63.7282 129.91C63.4109 129.91 63.0842 129.957 62.7482 130.05C62.4215 130.143 62.0575 130.293 61.6562 130.498L61.2782 129.714C62.1929 129.275 63.0515 129.056 63.8542 129.056C64.7035 129.056 65.3569 129.266 65.8142 129.686C66.2715 130.097 66.5002 130.689 66.5002 131.464V136H65.4922V135.202C65.1935 135.51 64.8622 135.743 64.4982 135.902C64.1342 136.051 63.7422 136.126 63.3222 136.126ZM61.8242 134.012C61.8242 134.413 61.9782 134.735 62.2862 134.978C62.6035 135.221 63.0189 135.342 63.5322 135.342C63.9149 135.342 64.2649 135.277 64.5822 135.146C64.9089 135.015 65.2122 134.819 65.4922 134.558V133.242C65.2029 133.074 64.9042 132.953 64.5962 132.878C64.2882 132.794 63.9429 132.752 63.5602 132.752C63.0375 132.752 62.6175 132.869 62.3002 133.102C61.9829 133.326 61.8242 133.629 61.8242 134.012ZM68.5773 136V125.892L69.5993 125.682V136H68.5773ZM71.6805 136V129.168H72.7025V136H71.6805ZM72.1985 127.474C71.9932 127.474 71.8159 127.404 71.6665 127.264C71.5265 127.115 71.4565 126.942 71.4565 126.746C71.4565 126.55 71.5265 126.382 71.6665 126.242C71.8159 126.093 71.9932 126.018 72.1985 126.018C72.4039 126.018 72.5765 126.093 72.7165 126.242C72.8659 126.382 72.9405 126.55 72.9405 126.746C72.9405 126.942 72.8659 127.115 72.7165 127.264C72.5765 127.404 72.4039 127.474 72.1985 127.474ZM75.666 136V130.008H74.14V129.168H75.666V127.74C75.666 127.068 75.8434 126.55 76.198 126.186C76.5527 125.822 77.0567 125.64 77.71 125.64C77.8967 125.64 78.0647 125.649 78.214 125.668C78.3727 125.687 78.5127 125.719 78.634 125.766V126.69C78.4847 126.643 78.3494 126.611 78.228 126.592C78.1067 126.573 77.9667 126.564 77.808 126.564C77.416 126.564 77.1314 126.662 76.954 126.858C76.7767 127.045 76.688 127.343 76.688 127.754V129.168H78.634V130.008H76.688V136H75.666ZM82.7166 136.112C82.0819 136.112 81.5126 135.958 81.0086 135.65C80.5046 135.342 80.1079 134.922 79.8186 134.39C79.5292 133.858 79.3846 133.256 79.3846 132.584C79.3846 131.912 79.5292 131.31 79.8186 130.778C80.1079 130.246 80.5046 129.826 81.0086 129.518C81.5126 129.21 82.0819 129.056 82.7166 129.056C83.3419 129.056 83.9019 129.21 84.3966 129.518C84.9006 129.826 85.2972 130.246 85.5866 130.778C85.8759 131.31 86.0206 131.912 86.0206 132.584C86.0206 133.256 85.8759 133.858 85.5866 134.39C85.2972 134.922 84.9006 135.342 84.3966 135.65C83.9019 135.958 83.3419 136.112 82.7166 136.112ZM82.7026 135.216C83.1506 135.216 83.5472 135.104 83.8926 134.88C84.2379 134.647 84.5086 134.329 84.7046 133.928C84.9099 133.527 85.0126 133.079 85.0126 132.584C85.0126 132.08 84.9099 131.632 84.7046 131.24C84.5086 130.839 84.2379 130.526 83.8926 130.302C83.5472 130.069 83.1506 129.952 82.7026 129.952C82.2546 129.952 81.8579 130.069 81.5126 130.302C81.1672 130.526 80.8919 130.839 80.6866 131.24C80.4906 131.632 80.3926 132.08 80.3926 132.584C80.3926 133.079 80.4906 133.527 80.6866 133.928C80.8919 134.329 81.1672 134.647 81.5126 134.88C81.8579 135.104 82.2546 135.216 82.7026 135.216ZM87.8137 136V129.168H88.8357V130.568C89.013 130.092 89.265 129.723 89.5917 129.462C89.9277 129.191 90.3103 129.056 90.7397 129.056C90.861 129.056 90.973 129.065 91.0757 129.084C91.1783 129.093 91.281 129.117 91.3837 129.154V130.078C91.2717 130.041 91.1503 130.013 91.0197 129.994C90.8983 129.966 90.7817 129.952 90.6697 129.952C90.2497 129.952 89.881 130.073 89.5637 130.316C89.2557 130.559 89.013 130.899 88.8357 131.338V136H87.8137ZM92.7355 136V129.168H93.7575V130.274C94.0189 129.863 94.3315 129.56 94.6955 129.364C95.0595 129.159 95.4702 129.056 95.9275 129.056C96.4222 129.056 96.8515 129.163 97.2155 129.378C97.5889 129.583 97.8782 129.877 98.0835 130.26C98.2982 130.633 98.4055 131.072 98.4055 131.576V136H97.3835V131.87C97.3835 131.263 97.2155 130.787 96.8795 130.442C96.5529 130.087 96.1095 129.91 95.5495 129.91C95.1762 129.91 94.8355 129.999 94.5275 130.176C94.2195 130.353 93.9629 130.615 93.7575 130.96V136H92.7355ZM100.446 136V129.168H101.468V136H100.446ZM100.964 127.474C100.759 127.474 100.581 127.404 100.432 127.264C100.292 127.115 100.222 126.942 100.222 126.746C100.222 126.55 100.292 126.382 100.432 126.242C100.581 126.093 100.759 126.018 100.964 126.018C101.169 126.018 101.342 126.093 101.482 126.242C101.631 126.382 101.706 126.55 101.706 126.746C101.706 126.942 101.631 127.115 101.482 127.264C101.342 127.404 101.169 127.474 100.964 127.474ZM105.678 136.126C105.192 136.126 104.763 136.037 104.39 135.86C104.016 135.683 103.722 135.44 103.508 135.132C103.302 134.815 103.2 134.451 103.2 134.04C103.2 133.629 103.307 133.275 103.522 132.976C103.736 132.668 104.035 132.43 104.418 132.262C104.8 132.094 105.248 132.01 105.762 132.01C106.154 132.01 106.522 132.052 106.868 132.136C107.222 132.22 107.549 132.355 107.848 132.542V131.604C107.848 131.044 107.698 130.624 107.4 130.344C107.101 130.055 106.662 129.91 106.084 129.91C105.766 129.91 105.44 129.957 105.104 130.05C104.777 130.143 104.413 130.293 104.012 130.498L103.634 129.714C104.548 129.275 105.407 129.056 106.21 129.056C107.059 129.056 107.712 129.266 108.17 129.686C108.627 130.097 108.856 130.689 108.856 131.464V136H107.848V135.202C107.549 135.51 107.218 135.743 106.854 135.902C106.49 136.051 106.098 136.126 105.678 136.126ZM104.18 134.012C104.18 134.413 104.334 134.735 104.642 134.978C104.959 135.221 105.374 135.342 105.888 135.342C106.27 135.342 106.62 135.277 106.938 135.146C107.264 135.015 107.568 134.819 107.848 134.558V133.242C107.558 133.074 107.26 132.953 106.952 132.878C106.644 132.794 106.298 132.752 105.916 132.752C105.393 132.752 104.973 132.869 104.656 133.102C104.338 133.326 104.18 133.629 104.18 134.012Z" fill="#151515"/>
<path d="M51.246 173V163.2H52.744L56.02 170.172L59.296 163.2H60.794V173H59.772V164.474L56.02 172.3L52.254 164.446V173H51.246ZM65.0722 173.126C64.5869 173.126 64.1575 173.037 63.7842 172.86C63.4109 172.683 63.1169 172.44 62.9022 172.132C62.6969 171.815 62.5942 171.451 62.5942 171.04C62.5942 170.629 62.7015 170.275 62.9162 169.976C63.1309 169.668 63.4295 169.43 63.8122 169.262C64.1949 169.094 64.6429 169.01 65.1562 169.01C65.5482 169.01 65.9169 169.052 66.2622 169.136C66.6169 169.22 66.9435 169.355 67.2422 169.542V168.604C67.2422 168.044 67.0929 167.624 66.7942 167.344C66.4955 167.055 66.0569 166.91 65.4782 166.91C65.1609 166.91 64.8342 166.957 64.4982 167.05C64.1715 167.143 63.8075 167.293 63.4062 167.498L63.0282 166.714C63.9429 166.275 64.8015 166.056 65.6042 166.056C66.4535 166.056 67.1069 166.266 67.5642 166.686C68.0215 167.097 68.2502 167.689 68.2502 168.464V173H67.2422V172.202C66.9435 172.51 66.6122 172.743 66.2482 172.902C65.8842 173.051 65.4922 173.126 65.0722 173.126ZM63.5742 171.012C63.5742 171.413 63.7282 171.735 64.0362 171.978C64.3535 172.221 64.7689 172.342 65.2822 172.342C65.6649 172.342 66.0149 172.277 66.3322 172.146C66.6589 172.015 66.9622 171.819 67.2422 171.558V170.242C66.9529 170.074 66.6542 169.953 66.3462 169.878C66.0382 169.794 65.6929 169.752 65.3102 169.752C64.7875 169.752 64.3675 169.869 64.0502 170.102C63.7329 170.326 63.5742 170.629 63.5742 171.012ZM72.4413 173.14C71.8813 173.14 71.3633 173.056 70.8873 172.888C70.4113 172.711 70.0053 172.459 69.6693 172.132L70.2153 171.46C70.626 171.759 71.004 171.978 71.3493 172.118C71.6947 172.249 72.0493 172.314 72.4133 172.314C72.908 172.314 73.3187 172.197 73.6453 171.964C73.972 171.731 74.1353 171.432 74.1353 171.068C74.1353 170.788 74.0373 170.569 73.8413 170.41C73.6547 170.251 73.342 170.13 72.9033 170.046L71.7833 169.85C71.1207 169.729 70.6307 169.523 70.3133 169.234C70.0053 168.945 69.8513 168.553 69.8513 168.058C69.8513 167.666 69.954 167.321 70.1593 167.022C70.374 166.723 70.668 166.49 71.0413 166.322C71.4147 166.145 71.8393 166.056 72.3153 166.056C72.782 166.056 73.2253 166.126 73.6453 166.266C74.0653 166.397 74.49 166.611 74.9193 166.91L74.4153 167.624C74.0607 167.372 73.706 167.19 73.3513 167.078C72.9967 166.957 72.6373 166.896 72.2733 166.896C71.8253 166.896 71.466 166.994 71.1953 167.19C70.9247 167.386 70.7893 167.652 70.7893 167.988C70.7893 168.268 70.8733 168.483 71.0413 168.632C71.2187 168.781 71.5267 168.893 71.9653 168.968L73.1133 169.178C73.804 169.299 74.308 169.509 74.6253 169.808C74.9427 170.107 75.1013 170.508 75.1013 171.012C75.1013 171.413 74.9847 171.777 74.7513 172.104C74.518 172.421 74.2007 172.673 73.7993 172.86C73.398 173.047 72.9453 173.14 72.4413 173.14ZM78.7714 173.14C78.2114 173.14 77.6934 173.056 77.2174 172.888C76.7414 172.711 76.3354 172.459 75.9994 172.132L76.5454 171.46C76.9561 171.759 77.3341 171.978 77.6794 172.118C78.0248 172.249 78.3794 172.314 78.7434 172.314C79.2381 172.314 79.6488 172.197 79.9754 171.964C80.3021 171.731 80.4654 171.432 80.4654 171.068C80.4654 170.788 80.3674 170.569 80.1714 170.41C79.9848 170.251 79.6721 170.13 79.2334 170.046L78.1134 169.85C77.4508 169.729 76.9608 169.523 76.6434 169.234C76.3354 168.945 76.1814 168.553 76.1814 168.058C76.1814 167.666 76.2841 167.321 76.4894 167.022C76.7041 166.723 76.9981 166.49 77.3714 166.322C77.7448 166.145 78.1694 166.056 78.6454 166.056C79.1121 166.056 79.5554 166.126 79.9754 166.266C80.3954 166.397 80.8201 166.611 81.2494 166.91L80.7454 167.624C80.3908 167.372 80.0361 167.19 79.6814 167.078C79.3268 166.957 78.9674 166.896 78.6034 166.896C78.1554 166.896 77.7961 166.994 77.5254 167.19C77.2548 167.386 77.1194 167.652 77.1194 167.988C77.1194 168.268 77.2034 168.483 77.3714 168.632C77.5488 168.781 77.8568 168.893 78.2954 168.968L79.4434 169.178C80.1341 169.299 80.6381 169.509 80.9554 169.808C81.2728 170.107 81.4314 170.508 81.4314 171.012C81.4314 171.413 81.3148 171.777 81.0814 172.104C80.8481 172.421 80.5308 172.673 80.1294 172.86C79.7281 173.047 79.2754 173.14 78.7714 173.14ZM85.1699 173.126C84.6845 173.126 84.2552 173.037 83.8819 172.86C83.5085 172.683 83.2145 172.44 82.9999 172.132C82.7945 171.815 82.6919 171.451 82.6919 171.04C82.6919 170.629 82.7992 170.275 83.0139 169.976C83.2285 169.668 83.5272 169.43 83.9099 169.262C84.2925 169.094 84.7405 169.01 85.2539 169.01C85.6459 169.01 86.0145 169.052 86.3599 169.136C86.7145 169.22 87.0412 169.355 87.3399 169.542V168.604C87.3399 168.044 87.1905 167.624 86.8919 167.344C86.5932 167.055 86.1545 166.91 85.5759 166.91C85.2585 166.91 84.9319 166.957 84.5959 167.05C84.2692 167.143 83.9052 167.293 83.5039 167.498L83.1259 166.714C84.0405 166.275 84.8992 166.056 85.7019 166.056C86.5512 166.056 87.2045 166.266 87.6619 166.686C88.1192 167.097 88.3479 167.689 88.3479 168.464V173H87.3399V172.202C87.0412 172.51 86.7099 172.743 86.3459 172.902C85.9819 173.051 85.5899 173.126 85.1699 173.126ZM83.6719 171.012C83.6719 171.413 83.8259 171.735 84.1339 171.978C84.4512 172.221 84.8665 172.342 85.3799 172.342C85.7625 172.342 86.1125 172.277 86.4299 172.146C86.7565 172.015 87.0599 171.819 87.3399 171.558V170.242C87.0505 170.074 86.7519 169.953 86.4439 169.878C86.1359 169.794 85.7905 169.752 85.4079 169.752C84.8852 169.752 84.4652 169.869 84.1479 170.102C83.8305 170.326 83.6719 170.629 83.6719 171.012ZM93.491 173.112C92.8563 173.112 92.2823 172.958 91.769 172.65C91.265 172.333 90.8637 171.908 90.565 171.376C90.2663 170.835 90.117 170.237 90.117 169.584C90.117 168.921 90.2663 168.324 90.565 167.792C90.8637 167.26 91.265 166.84 91.769 166.532C92.2823 166.215 92.8563 166.056 93.491 166.056C93.995 166.056 94.4757 166.149 94.933 166.336C95.3903 166.523 95.787 166.784 96.123 167.12L95.465 167.834C95.2223 167.563 94.9283 167.353 94.583 167.204C94.2377 167.055 93.8877 166.98 93.533 166.98C93.085 166.98 92.679 167.097 92.315 167.33C91.9603 167.563 91.6757 167.876 91.461 168.268C91.2463 168.66 91.139 169.099 91.139 169.584C91.139 170.069 91.2463 170.508 91.461 170.9C91.6757 171.292 91.9603 171.605 92.315 171.838C92.679 172.071 93.085 172.188 93.533 172.188C93.8877 172.188 94.2377 172.113 94.583 171.964C94.9283 171.805 95.2223 171.595 95.465 171.334L96.123 172.048C95.787 172.384 95.3903 172.645 94.933 172.832C94.4757 173.019 93.995 173.112 93.491 173.112ZM97.548 173V162.892L98.57 162.682V167.274C98.8314 166.863 99.144 166.56 99.508 166.364C99.872 166.159 100.283 166.056 100.74 166.056C101.235 166.056 101.664 166.163 102.028 166.378C102.401 166.583 102.691 166.877 102.896 167.26C103.111 167.633 103.218 168.072 103.218 168.576V173H102.196V168.87C102.196 168.263 102.028 167.787 101.692 167.442C101.365 167.087 100.922 166.91 100.362 166.91C99.9887 166.91 99.648 166.999 99.34 167.176C99.032 167.353 98.7754 167.615 98.57 167.96V173H97.548ZM107.64 173.112C107.155 173.112 106.726 173.005 106.352 172.79C105.979 172.575 105.685 172.277 105.47 171.894C105.265 171.511 105.162 171.073 105.162 170.578V166.168H106.198V170.284C106.198 170.891 106.362 171.371 106.688 171.726C107.015 172.081 107.458 172.258 108.018 172.258C108.401 172.258 108.742 172.169 109.04 171.992C109.348 171.815 109.605 171.558 109.81 171.222V166.168H110.832V173H109.81V171.894C109.549 172.295 109.236 172.599 108.872 172.804C108.518 173.009 108.107 173.112 107.64 173.112ZM115.043 173.14C114.483 173.14 113.965 173.056 113.489 172.888C113.013 172.711 112.607 172.459 112.271 172.132L112.817 171.46C113.228 171.759 113.606 171.978 113.951 172.118C114.296 172.249 114.651 172.314 115.015 172.314C115.51 172.314 115.92 172.197 116.247 171.964C116.574 171.731 116.737 171.432 116.737 171.068C116.737 170.788 116.639 170.569 116.443 170.41C116.256 170.251 115.944 170.13 115.505 170.046L114.385 169.85C113.722 169.729 113.232 169.523 112.915 169.234C112.607 168.945 112.453 168.553 112.453 168.058C112.453 167.666 112.556 167.321 112.761 167.022C112.976 166.723 113.27 166.49 113.643 166.322C114.016 166.145 114.441 166.056 114.917 166.056C115.384 166.056 115.827 166.126 116.247 166.266C116.667 166.397 117.092 166.611 117.521 166.91L117.017 167.624C116.662 167.372 116.308 167.19 115.953 167.078C115.598 166.957 115.239 166.896 114.875 166.896C114.427 166.896 114.068 166.994 113.797 167.19C113.526 167.386 113.391 167.652 113.391 167.988C113.391 168.268 113.475 168.483 113.643 168.632C113.82 168.781 114.128 168.893 114.567 168.968L115.715 169.178C116.406 169.299 116.91 169.509 117.227 169.808C117.544 170.107 117.703 170.508 117.703 171.012C117.703 171.413 117.586 171.777 117.353 172.104C117.12 172.421 116.802 172.673 116.401 172.86C116 173.047 115.547 173.14 115.043 173.14ZM122.407 173.14C121.773 173.14 121.199 172.986 120.685 172.678C120.172 172.361 119.766 171.936 119.467 171.404C119.169 170.863 119.019 170.256 119.019 169.584C119.019 168.912 119.159 168.31 119.439 167.778C119.729 167.246 120.116 166.826 120.601 166.518C121.087 166.21 121.628 166.056 122.225 166.056C122.832 166.056 123.369 166.21 123.835 166.518C124.311 166.817 124.685 167.227 124.955 167.75C125.235 168.263 125.375 168.847 125.375 169.5V169.808H120.013C120.051 170.275 120.177 170.695 120.391 171.068C120.615 171.432 120.905 171.721 121.259 171.936C121.623 172.141 122.02 172.244 122.449 172.244C122.804 172.244 123.145 172.183 123.471 172.062C123.807 171.931 124.092 171.759 124.325 171.544L124.969 172.23C124.577 172.538 124.171 172.767 123.751 172.916C123.331 173.065 122.883 173.14 122.407 173.14ZM120.041 169.08H124.367C124.321 168.669 124.195 168.305 123.989 167.988C123.793 167.661 123.541 167.405 123.233 167.218C122.935 167.031 122.599 166.938 122.225 166.938C121.852 166.938 121.511 167.031 121.203 167.218C120.895 167.395 120.639 167.647 120.433 167.974C120.237 168.291 120.107 168.66 120.041 169.08ZM129.519 173.14C128.931 173.14 128.483 173 128.175 172.72C127.877 172.431 127.727 172.015 127.727 171.474V167.008H126.313V166.168H127.727V164.292L128.749 164.054V166.168H130.709V167.008H128.749V171.208C128.749 171.572 128.824 171.833 128.973 171.992C129.132 172.151 129.389 172.23 129.743 172.23C129.921 172.23 130.079 172.216 130.219 172.188C130.359 172.16 130.523 172.113 130.709 172.048V172.958C130.523 173.023 130.327 173.07 130.121 173.098C129.916 173.126 129.715 173.14 129.519 173.14ZM134.947 173.14C134.359 173.14 133.911 173 133.603 172.72C133.304 172.431 133.155 172.015 133.155 171.474V167.008H131.741V166.168H133.155V164.292L134.177 164.054V166.168H136.137V167.008H134.177V171.208C134.177 171.572 134.252 171.833 134.401 171.992C134.56 172.151 134.816 172.23 135.171 172.23C135.348 172.23 135.507 172.216 135.647 172.188C135.787 172.16 135.95 172.113 136.137 172.048V172.958C135.95 173.023 135.754 173.07 135.549 173.098C135.344 173.126 135.143 173.14 134.947 173.14ZM139.885 173.14C139.325 173.14 138.807 173.056 138.331 172.888C137.855 172.711 137.449 172.459 137.113 172.132L137.659 171.46C138.069 171.759 138.447 171.978 138.793 172.118C139.138 172.249 139.493 172.314 139.857 172.314C140.351 172.314 140.762 172.197 141.089 171.964C141.415 171.731 141.579 171.432 141.579 171.068C141.579 170.788 141.481 170.569 141.285 170.41C141.098 170.251 140.785 170.13 140.347 170.046L139.227 169.85C138.564 169.729 138.074 169.523 137.757 169.234C137.449 168.945 137.295 168.553 137.295 168.058C137.295 167.666 137.397 167.321 137.603 167.022C137.817 166.723 138.111 166.49 138.485 166.322C138.858 166.145 139.283 166.056 139.759 166.056C140.225 166.056 140.669 166.126 141.089 166.266C141.509 166.397 141.933 166.611 142.363 166.91L141.859 167.624C141.504 167.372 141.149 167.19 140.795 167.078C140.44 166.957 140.081 166.896 139.717 166.896C139.269 166.896 138.909 166.994 138.639 167.19C138.368 167.386 138.233 167.652 138.233 167.988C138.233 168.268 138.317 168.483 138.485 168.632C138.662 168.781 138.97 168.893 139.409 168.968L140.557 169.178C141.247 169.299 141.751 169.509 142.069 169.808C142.386 170.107 142.545 170.508 142.545 171.012C142.545 171.413 142.428 171.777 142.195 172.104C141.961 172.421 141.644 172.673 141.243 172.86C140.841 173.047 140.389 173.14 139.885 173.14Z" fill="#151515"/>
<path d="M51.246 210V200.2H52.366L58.106 208.32L58.078 200.2H59.1V210H58.12L52.24 201.698L52.268 210H51.246ZM64.4796 210.14C63.8449 210.14 63.2709 209.986 62.7576 209.678C62.2443 209.361 61.8383 208.936 61.5396 208.404C61.2409 207.863 61.0916 207.256 61.0916 206.584C61.0916 205.912 61.2316 205.31 61.5116 204.778C61.8009 204.246 62.1883 203.826 62.6736 203.518C63.1589 203.21 63.7003 203.056 64.2976 203.056C64.9043 203.056 65.4409 203.21 65.9076 203.518C66.3836 203.817 66.7569 204.227 67.0276 204.75C67.3076 205.263 67.4476 205.847 67.4476 206.5V206.808H62.0856C62.1229 207.275 62.2489 207.695 62.4636 208.068C62.6876 208.432 62.9769 208.721 63.3316 208.936C63.6956 209.141 64.0923 209.244 64.5216 209.244C64.8763 209.244 65.2169 209.183 65.5436 209.062C65.8796 208.931 66.1643 208.759 66.3976 208.544L67.0416 209.23C66.6496 209.538 66.2436 209.767 65.8236 209.916C65.4036 210.065 64.9556 210.14 64.4796 210.14ZM62.1136 206.08H66.4396C66.3929 205.669 66.2669 205.305 66.0616 204.988C65.8656 204.661 65.6136 204.405 65.3056 204.218C65.0069 204.031 64.6709 203.938 64.2976 203.938C63.9243 203.938 63.5836 204.031 63.2756 204.218C62.9676 204.395 62.7109 204.647 62.5056 204.974C62.3096 205.291 62.1789 205.66 62.1136 206.08ZM70.2739 210L68.3979 203.168H69.3919L70.8199 208.628L72.4579 203.168H73.3679L75.0059 208.628L76.4199 203.168H77.3859L75.5239 210H74.5299L72.9059 204.484L71.2819 210H70.2739ZM85.0248 210V205.996L81.2168 200.2H82.4768L85.5988 205.058L88.7348 200.2H89.9248L86.1028 206.024V210H85.0248ZM92.7107 210.112C92.0761 210.112 91.5067 209.958 91.0027 209.65C90.4987 209.342 90.1021 208.922 89.8127 208.39C89.5234 207.858 89.3787 207.256 89.3787 206.584C89.3787 205.912 89.5234 205.31 89.8127 204.778C90.1021 204.246 90.4987 203.826 91.0027 203.518C91.5067 203.21 92.0761 203.056 92.7107 203.056C93.3361 203.056 93.8961 203.21 94.3907 203.518C94.8947 203.826 95.2914 204.246 95.5807 204.778C95.8701 205.31 96.0147 205.912 96.0147 206.584C96.0147 207.256 95.8701 207.858 95.5807 208.39C95.2914 208.922 94.8947 209.342 94.3907 209.65C93.8961 209.958 93.3361 210.112 92.7107 210.112ZM92.6967 209.216C93.1447 209.216 93.5414 209.104 93.8867 208.88C94.2321 208.647 94.5027 208.329 94.6987 207.928C94.9041 207.527 95.0067 207.079 95.0067 206.584C95.0067 206.08 94.9041 205.632 94.6987 205.24C94.5027 204.839 94.2321 204.526 93.8867 204.302C93.5414 204.069 93.1447 203.952 92.6967 203.952C92.2487 203.952 91.8521 204.069 91.5067 204.302C91.1614 204.526 90.8861 204.839 90.6807 205.24C90.4847 205.632 90.3867 206.08 90.3867 206.584C90.3867 207.079 90.4847 207.527 90.6807 207.928C90.8861 208.329 91.1614 208.647 91.5067 208.88C91.8521 209.104 92.2487 209.216 92.6967 209.216ZM97.8078 210V203.168H98.8298V204.568C99.0071 204.092 99.2591 203.723 99.5858 203.462C99.9218 203.191 100.304 203.056 100.734 203.056C100.855 203.056 100.967 203.065 101.07 203.084C101.172 203.093 101.275 203.117 101.378 203.154V204.078C101.266 204.041 101.144 204.013 101.014 203.994C100.892 203.966 100.776 203.952 100.664 203.952C100.244 203.952 99.8751 204.073 99.5578 204.316C99.2498 204.559 99.0071 204.899 98.8298 205.338V210H97.8078ZM102.73 210V199.892L103.752 199.682V206.234L107 203.168H108.232L104.76 206.416L108.386 210H107.042L103.752 206.738V210H102.73Z" fill="#151515"/>
</g>
<g filter="url(#filter1_d_385_9940)">
<path d="M150.27 151.28C149.99 150.92 149.64 150.19 149.03 149.28C148.68 148.78 147.82 147.83 147.56 147.34C147.373 147.042 147.318 146.68 147.41 146.34C147.567 145.694 148.18 145.266 148.84 145.34C149.351 145.443 149.82 145.693 150.19 146.06C150.448 146.303 150.686 146.567 150.9 146.85C151.06 147.05 151.1 147.13 151.28 147.36C151.46 147.59 151.58 147.82 151.49 147.48C151.42 146.98 151.3 146.14 151.13 145.39C151 144.82 150.97 144.73 150.85 144.3C150.73 143.87 150.66 143.51 150.53 143.02C150.411 142.538 150.318 142.051 150.25 141.56C150.124 140.932 150.216 140.279 150.51 139.71C150.859 139.381 151.372 139.295 151.81 139.49C152.251 139.815 152.579 140.27 152.75 140.79C153.012 141.43 153.187 142.103 153.27 142.79C153.43 143.79 153.74 145.25 153.75 145.55C153.75 145.18 153.68 144.4 153.75 144.05C153.819 143.685 154.073 143.382 154.42 143.25C154.718 143.159 155.033 143.138 155.34 143.19C155.65 143.255 155.925 143.433 156.11 143.69C156.342 144.273 156.47 144.893 156.49 145.52C156.517 144.971 156.611 144.426 156.77 143.9C156.937 143.664 157.181 143.495 157.46 143.42C157.791 143.359 158.129 143.359 158.46 143.42C158.731 143.511 158.968 143.681 159.14 143.91C159.352 144.44 159.48 145 159.52 145.57C159.52 145.71 159.59 145.18 159.81 144.83C159.924 144.491 160.211 144.238 160.562 144.167C160.913 144.097 161.275 144.218 161.512 144.487C161.749 144.756 161.824 145.131 161.71 145.47C161.71 146.12 161.71 146.09 161.71 146.53C161.71 146.97 161.71 147.36 161.71 147.73C161.674 148.315 161.593 148.897 161.47 149.47C161.296 149.977 161.054 150.458 160.75 150.9C160.264 151.44 159.863 152.05 159.56 152.71C159.485 153.038 159.451 153.374 159.46 153.71C159.459 154.021 159.499 154.33 159.58 154.63C159.171 154.673 158.759 154.673 158.35 154.63C157.96 154.57 157.48 153.79 157.35 153.55C157.286 153.421 157.154 153.34 157.01 153.34C156.866 153.34 156.734 153.421 156.67 153.55C156.45 153.93 155.96 154.62 155.62 154.66C154.95 154.74 153.57 154.66 152.48 154.66C152.48 154.66 152.66 153.66 152.25 153.3C151.84 152.94 151.42 152.52 151.11 152.24L150.27 151.28Z" fill="white"/>
<path fill-rule="evenodd" clip-rule="evenodd" d="M150.27 151.28C149.99 150.92 149.64 150.19 149.03 149.28C148.68 148.78 147.82 147.83 147.56 147.34C147.373 147.042 147.318 146.68 147.41 146.34C147.567 145.694 148.18 145.266 148.84 145.34C149.351 145.443 149.82 145.693 150.19 146.06C150.448 146.303 150.686 146.567 150.9 146.85C151.06 147.05 151.1 147.13 151.28 147.36C151.46 147.59 151.58 147.82 151.49 147.48C151.42 146.98 151.3 146.14 151.13 145.39C151 144.82 150.97 144.73 150.85 144.3C150.73 143.87 150.66 143.51 150.53 143.02C150.411 142.538 150.318 142.051 150.25 141.56C150.124 140.932 150.216 140.279 150.51 139.71C150.859 139.381 151.372 139.295 151.81 139.49C152.251 139.815 152.579 140.27 152.75 140.79C153.012 141.43 153.187 142.103 153.27 142.79C153.43 143.79 153.74 145.25 153.75 145.55C153.75 145.18 153.68 144.4 153.75 144.05C153.819 143.685 154.073 143.382 154.42 143.25C154.718 143.159 155.033 143.138 155.34 143.19C155.65 143.255 155.925 143.433 156.11 143.69C156.342 144.273 156.47 144.893 156.49 145.52C156.517 144.971 156.611 144.426 156.77 143.9C156.937 143.664 157.181 143.495 157.46 143.42C157.791 143.359 158.129 143.359 158.46 143.42C158.731 143.511 158.968 143.681 159.14 143.91C159.352 144.44 159.48 145 159.52 145.57C159.52 145.71 159.59 145.18 159.81 144.83C159.924 144.491 160.211 144.238 160.562 144.167C160.913 144.097 161.275 144.218 161.512 144.487C161.749 144.756 161.824 145.131 161.71 145.47C161.71 146.12 161.71 146.09 161.71 146.53C161.71 146.97 161.71 147.36 161.71 147.73C161.674 148.315 161.593 148.897 161.47 149.47C161.296 149.977 161.054 150.458 160.75 150.9C160.264 151.44 159.863 152.05 159.56 152.71C159.485 153.038 159.451 153.374 159.46 153.71C159.459 154.021 159.499 154.33 159.58 154.63C159.171 154.673 158.759 154.673 158.35 154.63C157.96 154.57 157.48 153.79 157.35 153.55C157.286 153.421 157.154 153.34 157.01 153.34C156.866 153.34 156.734 153.421 156.67 153.55C156.45 153.93 155.96 154.62 155.62 154.66C154.95 154.74 153.57 154.66 152.48 154.66C152.48 154.66 152.66 153.66 152.25 153.3C151.84 152.94 151.42 152.52 151.11 152.24L150.27 151.28Z" stroke="#202125" stroke-width="0.75" stroke-linecap="round" stroke-linejoin="round"/>
<path d="M158.75 151.826V148.374C158.75 148.167 158.582 148 158.375 148C158.168 148 158 148.167 158 148.374V151.826C158 152.032 158.168 152.2 158.375 152.2C158.582 152.2 158.75 152.032 158.75 151.826Z" fill="#202125"/>
<path d="M156.77 151.825L156.75 148.371C156.749 148.165 156.58 147.999 156.373 148C156.166 148.001 155.999 148.169 156 148.375L156.02 151.829C156.021 152.035 156.19 152.201 156.397 152.2C156.604 152.199 156.771 152.031 156.77 151.825Z" fill="#202125"/>
<path d="M154 148.379L154.02 151.825C154.021 152.033 154.19 152.201 154.397 152.2C154.604 152.199 154.771 152.029 154.77 151.821L154.75 148.374C154.749 148.166 154.58 147.999 154.373 148C154.166 148.001 153.999 148.171 154 148.379Z" fill="#202125"/>
</g>
<mask id="path-16-inside-2_385_9940" fill="white">
<path d="M367 28C367 24.6863 369.686 22 373 22H605C608.314 22 611 24.6863 611 28V53C611 56.3137 608.314 59 605 59H373C369.686 59 367 56.3137 367 53V28Z"/>
</mask>
<path d="M367 28C367 24.6863 369.686 22 373 22H605C608.314 22 611 24.6863 611 28V53C611 56.3137 608.314 59 605 59H373C369.686 59 367 56.3137 367 53V28Z" fill="white"/>
<path d="M373 24H605V20H373V24ZM609 28V53H613V28H609ZM605 57H373V61H605V57ZM369 53V28H365V53H369ZM373 57C370.791 57 369 55.2091 369 53H365C365 57.4183 368.582 61 373 61V57ZM609 53C609 55.2091 607.209 57 605 57V61C609.418 61 613 57.4183 613 53H609ZM605 24C607.209 24 609 25.7909 609 28H613C613 23.5817 609.418 20 605 20V24ZM373 20C368.582 20 365 23.5817 365 28H369C369 25.7909 370.791 24 373 24V20Z" fill="#0066CC" mask="url(#path-16-inside-2_385_9940)"/>
<path d="M388.768 45.154C388.068 45.154 387.415 45.028 386.808 44.776C386.211 44.5147 385.683 44.1553 385.226 43.698C384.769 43.2313 384.414 42.6947 384.162 42.088C383.91 41.472 383.784 40.8093 383.784 40.1C383.784 39.3907 383.91 38.7327 384.162 38.126C384.414 37.51 384.769 36.9733 385.226 36.516C385.683 36.0493 386.211 35.69 386.808 35.438C387.415 35.1767 388.068 35.046 388.768 35.046C389.253 35.046 389.715 35.1113 390.154 35.242C390.602 35.3633 391.022 35.5453 391.414 35.788C391.806 36.0213 392.156 36.3107 392.464 36.656L391.75 37.398C391.386 36.9593 390.938 36.6233 390.406 36.39C389.883 36.1473 389.337 36.026 388.768 36.026C388.217 36.026 387.704 36.1287 387.228 36.334C386.752 36.5393 386.337 36.8287 385.982 37.202C385.637 37.5753 385.366 38.0093 385.17 38.504C384.974 38.9893 384.876 39.5213 384.876 40.1C384.876 40.6693 384.974 41.2013 385.17 41.696C385.366 42.1907 385.637 42.6247 385.982 42.998C386.337 43.3713 386.752 43.6607 387.228 43.866C387.704 44.0713 388.217 44.174 388.768 44.174C389.337 44.174 389.883 44.0527 390.406 43.81C390.938 43.5673 391.386 43.2313 391.75 42.802L392.464 43.544C392.156 43.8893 391.806 44.1833 391.414 44.426C391.022 44.6593 390.602 44.8413 390.154 44.972C389.715 45.0933 389.253 45.154 388.768 45.154ZM396.322 45.126C395.837 45.126 395.408 45.0373 395.034 44.86C394.661 44.6827 394.367 44.44 394.152 44.132C393.947 43.8147 393.844 43.4507 393.844 43.04C393.844 42.6293 393.952 42.2747 394.166 41.976C394.381 41.668 394.68 41.43 395.062 41.262C395.445 41.094 395.893 41.01 396.406 41.01C396.798 41.01 397.167 41.052 397.512 41.136C397.867 41.22 398.194 41.3553 398.492 41.542V40.604C398.492 40.044 398.343 39.624 398.044 39.344C397.746 39.0547 397.307 38.91 396.728 38.91C396.411 38.91 396.084 38.9567 395.748 39.05C395.422 39.1433 395.058 39.2927 394.656 39.498L394.278 38.714C395.193 38.2753 396.052 38.056 396.854 38.056C397.704 38.056 398.357 38.266 398.814 38.686C399.272 39.0967 399.5 39.6893 399.5 40.464V45H398.492V44.202C398.194 44.51 397.862 44.7433 397.498 44.902C397.134 45.0513 396.742 45.126 396.322 45.126ZM394.824 43.012C394.824 43.4133 394.978 43.7353 395.286 43.978C395.604 44.2207 396.019 44.342 396.532 44.342C396.915 44.342 397.265 44.2767 397.582 44.146C397.909 44.0153 398.212 43.8193 398.492 43.558V42.242C398.203 42.074 397.904 41.9527 397.596 41.878C397.288 41.794 396.943 41.752 396.56 41.752C396.038 41.752 395.618 41.8687 395.3 42.102C394.983 42.326 394.824 42.6293 394.824 43.012ZM401.577 45V34.892L402.599 34.682V45H401.577ZM404.681 45V38.168H405.703V45H404.681ZM405.199 36.474C404.993 36.474 404.816 36.404 404.667 36.264C404.527 36.1147 404.457 35.942 404.457 35.746C404.457 35.55 404.527 35.382 404.667 35.242C404.816 35.0927 404.993 35.018 405.199 35.018C405.404 35.018 405.577 35.0927 405.717 35.242C405.866 35.382 405.941 35.55 405.941 35.746C405.941 35.942 405.866 36.1147 405.717 36.264C405.577 36.404 405.404 36.474 405.199 36.474ZM408.666 45V39.008H407.14V38.168H408.666V36.74C408.666 36.068 408.843 35.55 409.198 35.186C409.553 34.822 410.057 34.64 410.71 34.64C410.897 34.64 411.065 34.6493 411.214 34.668C411.373 34.6867 411.513 34.7193 411.634 34.766V35.69C411.485 35.6433 411.349 35.6107 411.228 35.592C411.107 35.5733 410.967 35.564 410.808 35.564C410.416 35.564 410.131 35.662 409.954 35.858C409.777 36.0447 409.688 36.3433 409.688 36.754V38.168H411.634V39.008H409.688V45H408.666ZM415.717 45.112C415.082 45.112 414.513 44.958 414.009 44.65C413.505 44.342 413.108 43.922 412.819 43.39C412.529 42.858 412.385 42.256 412.385 41.584C412.385 40.912 412.529 40.31 412.819 39.778C413.108 39.246 413.505 38.826 414.009 38.518C414.513 38.21 415.082 38.056 415.717 38.056C416.342 38.056 416.902 38.21 417.397 38.518C417.901 38.826 418.297 39.246 418.587 39.778C418.876 40.31 419.021 40.912 419.021 41.584C419.021 42.256 418.876 42.858 418.587 43.39C418.297 43.922 417.901 44.342 417.397 44.65C416.902 44.958 416.342 45.112 415.717 45.112ZM415.703 44.216C416.151 44.216 416.547 44.104 416.893 43.88C417.238 43.6467 417.509 43.3293 417.705 42.928C417.91 42.5267 418.013 42.0787 418.013 41.584C418.013 41.08 417.91 40.632 417.705 40.24C417.509 39.8387 417.238 39.526 416.893 39.302C416.547 39.0687 416.151 38.952 415.703 38.952C415.255 38.952 414.858 39.0687 414.513 39.302C414.167 39.526 413.892 39.8387 413.687 40.24C413.491 40.632 413.393 41.08 413.393 41.584C413.393 42.0787 413.491 42.5267 413.687 42.928C413.892 43.3293 414.167 43.6467 414.513 43.88C414.858 44.104 415.255 44.216 415.703 44.216ZM420.814 45V38.168H421.836V39.568C422.013 39.092 422.265 38.7233 422.592 38.462C422.928 38.1913 423.31 38.056 423.74 38.056C423.861 38.056 423.973 38.0653 424.076 38.084C424.178 38.0933 424.281 38.1167 424.384 38.154V39.078C424.272 39.0407 424.15 39.0127 424.02 38.994C423.898 38.966 423.782 38.952 423.67 38.952C423.25 38.952 422.881 39.0733 422.564 39.316C422.256 39.5587 422.013 39.8993 421.836 40.338V45H420.814ZM425.736 45V38.168H426.758V39.274C427.019 38.8633 427.332 38.56 427.696 38.364C428.06 38.1587 428.47 38.056 428.928 38.056C429.422 38.056 429.852 38.1633 430.216 38.378C430.589 38.5833 430.878 38.8773 431.084 39.26C431.298 39.6333 431.406 40.072 431.406 40.576V45H430.384V40.87C430.384 40.2633 430.216 39.7873 429.88 39.442C429.553 39.0873 429.11 38.91 428.55 38.91C428.176 38.91 427.836 38.9987 427.528 39.176C427.22 39.3533 426.963 39.6147 426.758 39.96V45H425.736ZM433.446 45V38.168H434.468V45H433.446ZM433.964 36.474C433.759 36.474 433.581 36.404 433.432 36.264C433.292 36.1147 433.222 35.942 433.222 35.746C433.222 35.55 433.292 35.382 433.432 35.242C433.581 35.0927 433.759 35.018 433.964 35.018C434.169 35.018 434.342 35.0927 434.482 35.242C434.631 35.382 434.706 35.55 434.706 35.746C434.706 35.942 434.631 36.1147 434.482 36.264C434.342 36.404 434.169 36.474 433.964 36.474ZM438.678 45.126C438.192 45.126 437.763 45.0373 437.39 44.86C437.016 44.6827 436.722 44.44 436.508 44.132C436.302 43.8147 436.2 43.4507 436.2 43.04C436.2 42.6293 436.307 42.2747 436.522 41.976C436.736 41.668 437.035 41.43 437.418 41.262C437.8 41.094 438.248 41.01 438.762 41.01C439.154 41.01 439.522 41.052 439.868 41.136C440.222 41.22 440.549 41.3553 440.848 41.542V40.604C440.848 40.044 440.698 39.624 440.4 39.344C440.101 39.0547 439.662 38.91 439.084 38.91C438.766 38.91 438.44 38.9567 438.104 39.05C437.777 39.1433 437.413 39.2927 437.012 39.498L436.634 38.714C437.548 38.2753 438.407 38.056 439.21 38.056C440.059 38.056 440.712 38.266 441.17 38.686C441.627 39.0967 441.856 39.6893 441.856 40.464V45H440.848V44.202C440.549 44.51 440.218 44.7433 439.854 44.902C439.49 45.0513 439.098 45.126 438.678 45.126ZM437.18 43.012C437.18 43.4133 437.334 43.7353 437.642 43.978C437.959 44.2207 438.374 44.342 438.888 44.342C439.27 44.342 439.62 44.2767 439.938 44.146C440.264 44.0153 440.568 43.8193 440.848 43.558V42.242C440.558 42.074 440.26 41.9527 439.952 41.878C439.644 41.794 439.298 41.752 438.916 41.752C438.393 41.752 437.973 41.8687 437.656 42.102C437.338 42.326 437.18 42.6293 437.18 43.012Z" fill="#151515"/>
<path fill-rule="evenodd" clip-rule="evenodd" d="M585.389 43.1714L588.921 39.6102C589.267 39.2615 589.023 38.6666 588.534 38.6666H581.466C580.977 38.6666 580.733 39.2615 581.079 39.6102L584.611 43.1714C584.826 43.3872 585.174 43.3872 585.389 43.1714Z" fill="#1F1F1F"/>
<g filter="url(#filter2_d_385_9940)">
<path d="M367 65C367 61.6863 369.686 59 373 59H605C608.314 59 611 61.6863 611 65V226C611 229.314 608.314 232 605 232H373C369.686 232 367 229.314 367 226V65Z" fill="white"/>
<path d="M391.126 90L395.004 80.2H396.292L400.114 90H398.952L397.79 86.92H393.422L392.26 90H391.126ZM393.758 86.066H397.468L395.606 81.18L393.758 86.066ZM401.292 90V83.168H402.314V84.568C402.492 84.092 402.744 83.7233 403.07 83.462C403.406 83.1913 403.789 83.056 404.218 83.056C404.34 83.056 404.452 83.0653 404.554 83.084C404.657 83.0933 404.76 83.1167 404.862 83.154V84.078C404.75 84.0407 404.629 84.0127 404.498 83.994C404.377 83.966 404.26 83.952 404.148 83.952C403.728 83.952 403.36 84.0733 403.042 84.316C402.734 84.5587 402.492 84.8993 402.314 85.338V90H401.292ZM406.2 90V83.168H407.222V90H406.2ZM406.718 81.474C406.513 81.474 406.335 81.404 406.186 81.264C406.046 81.1147 405.976 80.942 405.976 80.746C405.976 80.55 406.046 80.382 406.186 80.242C406.335 80.0927 406.513 80.018 406.718 80.018C406.923 80.018 407.096 80.0927 407.236 80.242C407.385 80.382 407.46 80.55 407.46 80.746C407.46 80.942 407.385 81.1147 407.236 81.264C407.096 81.404 406.923 81.474 406.718 81.474ZM408.842 90V89.188L412.776 84.092L408.884 84.106V83.168H414.022V83.966L410.074 89.09L414.078 89.076V90H408.842ZM418.562 90.112C417.928 90.112 417.358 89.958 416.854 89.65C416.35 89.342 415.954 88.922 415.664 88.39C415.375 87.858 415.23 87.256 415.23 86.584C415.23 85.912 415.375 85.31 415.664 84.778C415.954 84.246 416.35 83.826 416.854 83.518C417.358 83.21 417.928 83.056 418.562 83.056C419.188 83.056 419.748 83.21 420.242 83.518C420.746 83.826 421.143 84.246 421.432 84.778C421.722 85.31 421.866 85.912 421.866 86.584C421.866 87.256 421.722 87.858 421.432 88.39C421.143 88.922 420.746 89.342 420.242 89.65C419.748 89.958 419.188 90.112 418.562 90.112ZM418.548 89.216C418.996 89.216 419.393 89.104 419.738 88.88C420.084 88.6467 420.354 88.3293 420.55 87.928C420.756 87.5267 420.858 87.0787 420.858 86.584C420.858 86.08 420.756 85.632 420.55 85.24C420.354 84.8387 420.084 84.526 419.738 84.302C419.393 84.0687 418.996 83.952 418.548 83.952C418.1 83.952 417.704 84.0687 417.358 84.302C417.013 84.526 416.738 84.8387 416.532 85.24C416.336 85.632 416.238 86.08 416.238 86.584C416.238 87.0787 416.336 87.5267 416.532 87.928C416.738 88.3293 417.013 88.6467 417.358 88.88C417.704 89.104 418.1 89.216 418.548 89.216ZM423.659 90V83.168H424.681V84.274C424.943 83.8633 425.255 83.56 425.619 83.364C425.983 83.1587 426.394 83.056 426.851 83.056C427.346 83.056 427.775 83.1633 428.139 83.378C428.513 83.5833 428.802 83.8773 429.007 84.26C429.222 84.6333 429.329 85.072 429.329 85.576V90H428.307V85.87C428.307 85.2633 428.139 84.7873 427.803 84.442C427.477 84.0873 427.033 83.91 426.473 83.91C426.1 83.91 425.759 83.9987 425.451 84.176C425.143 84.3533 424.887 84.6147 424.681 84.96V90H423.659ZM433.498 90.126C433.013 90.126 432.583 90.0373 432.21 89.86C431.837 89.6827 431.543 89.44 431.328 89.132C431.123 88.8147 431.02 88.4507 431.02 88.04C431.02 87.6293 431.127 87.2747 431.342 86.976C431.557 86.668 431.855 86.43 432.238 86.262C432.621 86.094 433.069 86.01 433.582 86.01C433.974 86.01 434.343 86.052 434.688 86.136C435.043 86.22 435.369 86.3553 435.668 86.542V85.604C435.668 85.044 435.519 84.624 435.22 84.344C434.921 84.0547 434.483 83.91 433.904 83.91C433.587 83.91 433.26 83.9567 432.924 84.05C432.597 84.1433 432.233 84.2927 431.832 84.498L431.454 83.714C432.369 83.2753 433.227 83.056 434.03 83.056C434.879 83.056 435.533 83.266 435.99 83.686C436.447 84.0967 436.676 84.6893 436.676 85.464V90H435.668V89.202C435.369 89.51 435.038 89.7433 434.674 89.902C434.31 90.0513 433.918 90.126 433.498 90.126ZM432 88.012C432 88.4133 432.154 88.7353 432.462 88.978C432.779 89.2207 433.195 89.342 433.708 89.342C434.091 89.342 434.441 89.2767 434.758 89.146C435.085 89.0153 435.388 88.8193 435.668 88.558V87.242C435.379 87.074 435.08 86.9527 434.772 86.878C434.464 86.794 434.119 86.752 433.736 86.752C433.213 86.752 432.793 86.8687 432.476 87.102C432.159 87.326 432 87.6293 432 88.012Z" fill="#151515"/>
<path d="M396.768 132.154C396.068 132.154 395.415 132.028 394.808 131.776C394.211 131.515 393.683 131.155 393.226 130.698C392.769 130.231 392.414 129.695 392.162 129.088C391.91 128.472 391.784 127.809 391.784 127.1C391.784 126.391 391.91 125.733 392.162 125.126C392.414 124.51 392.769 123.973 393.226 123.516C393.683 123.049 394.211 122.69 394.808 122.438C395.415 122.177 396.068 122.046 396.768 122.046C397.253 122.046 397.715 122.111 398.154 122.242C398.602 122.363 399.022 122.545 399.414 122.788C399.806 123.021 400.156 123.311 400.464 123.656L399.75 124.398C399.386 123.959 398.938 123.623 398.406 123.39C397.883 123.147 397.337 123.026 396.768 123.026C396.217 123.026 395.704 123.129 395.228 123.334C394.752 123.539 394.337 123.829 393.982 124.202C393.637 124.575 393.366 125.009 393.17 125.504C392.974 125.989 392.876 126.521 392.876 127.1C392.876 127.669 392.974 128.201 393.17 128.696C393.366 129.191 393.637 129.625 393.982 129.998C394.337 130.371 394.752 130.661 395.228 130.866C395.704 131.071 396.217 131.174 396.768 131.174C397.337 131.174 397.883 131.053 398.406 130.81C398.938 130.567 399.386 130.231 399.75 129.802L400.464 130.544C400.156 130.889 399.806 131.183 399.414 131.426C399.022 131.659 398.602 131.841 398.154 131.972C397.715 132.093 397.253 132.154 396.768 132.154ZM404.322 132.126C403.837 132.126 403.408 132.037 403.034 131.86C402.661 131.683 402.367 131.44 402.152 131.132C401.947 130.815 401.844 130.451 401.844 130.04C401.844 129.629 401.952 129.275 402.166 128.976C402.381 128.668 402.68 128.43 403.062 128.262C403.445 128.094 403.893 128.01 404.406 128.01C404.798 128.01 405.167 128.052 405.512 128.136C405.867 128.22 406.194 128.355 406.492 128.542V127.604C406.492 127.044 406.343 126.624 406.044 126.344C405.746 126.055 405.307 125.91 404.728 125.91C404.411 125.91 404.084 125.957 403.748 126.05C403.422 126.143 403.058 126.293 402.656 126.498L402.278 125.714C403.193 125.275 404.052 125.056 404.854 125.056C405.704 125.056 406.357 125.266 406.814 125.686C407.272 126.097 407.5 126.689 407.5 127.464V132H406.492V131.202C406.194 131.51 405.862 131.743 405.498 131.902C405.134 132.051 404.742 132.126 404.322 132.126ZM402.824 130.012C402.824 130.413 402.978 130.735 403.286 130.978C403.604 131.221 404.019 131.342 404.532 131.342C404.915 131.342 405.265 131.277 405.582 131.146C405.909 131.015 406.212 130.819 406.492 130.558V129.242C406.203 129.074 405.904 128.953 405.596 128.878C405.288 128.794 404.943 128.752 404.56 128.752C404.038 128.752 403.618 128.869 403.3 129.102C402.983 129.326 402.824 129.629 402.824 130.012ZM409.577 132V121.892L410.599 121.682V132H409.577ZM412.681 132V125.168H413.703V132H412.681ZM413.199 123.474C412.993 123.474 412.816 123.404 412.667 123.264C412.527 123.115 412.457 122.942 412.457 122.746C412.457 122.55 412.527 122.382 412.667 122.242C412.816 122.093 412.993 122.018 413.199 122.018C413.404 122.018 413.577 122.093 413.717 122.242C413.866 122.382 413.941 122.55 413.941 122.746C413.941 122.942 413.866 123.115 413.717 123.264C413.577 123.404 413.404 123.474 413.199 123.474ZM416.666 132V126.008H415.14V125.168H416.666V123.74C416.666 123.068 416.843 122.55 417.198 122.186C417.553 121.822 418.057 121.64 418.71 121.64C418.897 121.64 419.065 121.649 419.214 121.668C419.373 121.687 419.513 121.719 419.634 121.766V122.69C419.485 122.643 419.349 122.611 419.228 122.592C419.107 122.573 418.967 122.564 418.808 122.564C418.416 122.564 418.131 122.662 417.954 122.858C417.777 123.045 417.688 123.343 417.688 123.754V125.168H419.634V126.008H417.688V132H416.666ZM423.717 132.112C423.082 132.112 422.513 131.958 422.009 131.65C421.505 131.342 421.108 130.922 420.819 130.39C420.529 129.858 420.385 129.256 420.385 128.584C420.385 127.912 420.529 127.31 420.819 126.778C421.108 126.246 421.505 125.826 422.009 125.518C422.513 125.21 423.082 125.056 423.717 125.056C424.342 125.056 424.902 125.21 425.397 125.518C425.901 125.826 426.297 126.246 426.587 126.778C426.876 127.31 427.021 127.912 427.021 128.584C427.021 129.256 426.876 129.858 426.587 130.39C426.297 130.922 425.901 131.342 425.397 131.65C424.902 131.958 424.342 132.112 423.717 132.112ZM423.703 131.216C424.151 131.216 424.547 131.104 424.893 130.88C425.238 130.647 425.509 130.329 425.705 129.928C425.91 129.527 426.013 129.079 426.013 128.584C426.013 128.08 425.91 127.632 425.705 127.24C425.509 126.839 425.238 126.526 424.893 126.302C424.547 126.069 424.151 125.952 423.703 125.952C423.255 125.952 422.858 126.069 422.513 126.302C422.167 126.526 421.892 126.839 421.687 127.24C421.491 127.632 421.393 128.08 421.393 128.584C421.393 129.079 421.491 129.527 421.687 129.928C421.892 130.329 422.167 130.647 422.513 130.88C422.858 131.104 423.255 131.216 423.703 131.216ZM428.814 132V125.168H429.836V126.568C430.013 126.092 430.265 125.723 430.592 125.462C430.928 125.191 431.31 125.056 431.74 125.056C431.861 125.056 431.973 125.065 432.076 125.084C432.178 125.093 432.281 125.117 432.384 125.154V126.078C432.272 126.041 432.15 126.013 432.02 125.994C431.898 125.966 431.782 125.952 431.67 125.952C431.25 125.952 430.881 126.073 430.564 126.316C430.256 126.559 430.013 126.899 429.836 127.338V132H428.814ZM433.736 132V125.168H434.758V126.274C435.019 125.863 435.332 125.56 435.696 125.364C436.06 125.159 436.47 125.056 436.928 125.056C437.422 125.056 437.852 125.163 438.216 125.378C438.589 125.583 438.878 125.877 439.084 126.26C439.298 126.633 439.406 127.072 439.406 127.576V132H438.384V127.87C438.384 127.263 438.216 126.787 437.88 126.442C437.553 126.087 437.11 125.91 436.55 125.91C436.176 125.91 435.836 125.999 435.528 126.176C435.22 126.353 434.963 126.615 434.758 126.96V132H433.736ZM441.446 132V125.168H442.468V132H441.446ZM441.964 123.474C441.759 123.474 441.581 123.404 441.432 123.264C441.292 123.115 441.222 122.942 441.222 122.746C441.222 122.55 441.292 122.382 441.432 122.242C441.581 122.093 441.759 122.018 441.964 122.018C442.169 122.018 442.342 122.093 442.482 122.242C442.631 122.382 442.706 122.55 442.706 122.746C442.706 122.942 442.631 123.115 442.482 123.264C442.342 123.404 442.169 123.474 441.964 123.474ZM446.678 132.126C446.192 132.126 445.763 132.037 445.39 131.86C445.016 131.683 444.722 131.44 444.508 131.132C444.302 130.815 444.2 130.451 444.2 130.04C444.2 129.629 444.307 129.275 444.522 128.976C444.736 128.668 445.035 128.43 445.418 128.262C445.8 128.094 446.248 128.01 446.762 128.01C447.154 128.01 447.522 128.052 447.868 128.136C448.222 128.22 448.549 128.355 448.848 128.542V127.604C448.848 127.044 448.698 126.624 448.4 126.344C448.101 126.055 447.662 125.91 447.084 125.91C446.766 125.91 446.44 125.957 446.104 126.05C445.777 126.143 445.413 126.293 445.012 126.498L444.634 125.714C445.548 125.275 446.407 125.056 447.21 125.056C448.059 125.056 448.712 125.266 449.17 125.686C449.627 126.097 449.856 126.689 449.856 127.464V132H448.848V131.202C448.549 131.51 448.218 131.743 447.854 131.902C447.49 132.051 447.098 132.126 446.678 132.126ZM445.18 130.012C445.18 130.413 445.334 130.735 445.642 130.978C445.959 131.221 446.374 131.342 446.888 131.342C447.27 131.342 447.62 131.277 447.938 131.146C448.264 131.015 448.568 130.819 448.848 130.558V129.242C448.558 129.074 448.26 128.953 447.952 128.878C447.644 128.794 447.298 128.752 446.916 128.752C446.393 128.752 445.973 128.869 445.656 129.102C445.338 129.326 445.18 129.629 445.18 130.012Z" fill="#151515"/>
<path fill-rule="evenodd" clip-rule="evenodd" d="M570.745 131.985L578.795 123.935C579.068 123.662 579.068 123.218 578.795 122.945L577.805 121.955C577.532 121.682 577.088 121.682 576.815 121.955L570.25 128.52L567.185 125.455C566.912 125.182 566.468 125.182 566.195 125.455L565.205 126.445C564.932 126.718 564.932 127.162 565.205 127.435L569.755 131.985C570.028 132.258 570.472 132.258 570.745 131.985Z" fill="#0066CC"/>
<path d="M392.246 173V163.2H393.744L397.02 170.172L400.296 163.2H401.794V173H400.772V164.474L397.02 172.3L393.254 164.446V173H392.246ZM406.072 173.126C405.587 173.126 405.158 173.037 404.784 172.86C404.411 172.683 404.117 172.44 403.902 172.132C403.697 171.815 403.594 171.451 403.594 171.04C403.594 170.629 403.702 170.275 403.916 169.976C404.131 169.668 404.43 169.43 404.812 169.262C405.195 169.094 405.643 169.01 406.156 169.01C406.548 169.01 406.917 169.052 407.262 169.136C407.617 169.22 407.944 169.355 408.242 169.542V168.604C408.242 168.044 408.093 167.624 407.794 167.344C407.496 167.055 407.057 166.91 406.478 166.91C406.161 166.91 405.834 166.957 405.498 167.05C405.172 167.143 404.808 167.293 404.406 167.498L404.028 166.714C404.943 166.275 405.802 166.056 406.604 166.056C407.454 166.056 408.107 166.266 408.564 166.686C409.022 167.097 409.25 167.689 409.25 168.464V173H408.242V172.202C407.944 172.51 407.612 172.743 407.248 172.902C406.884 173.051 406.492 173.126 406.072 173.126ZM404.574 171.012C404.574 171.413 404.728 171.735 405.036 171.978C405.354 172.221 405.769 172.342 406.282 172.342C406.665 172.342 407.015 172.277 407.332 172.146C407.659 172.015 407.962 171.819 408.242 171.558V170.242C407.953 170.074 407.654 169.953 407.346 169.878C407.038 169.794 406.693 169.752 406.31 169.752C405.788 169.752 405.368 169.869 405.05 170.102C404.733 170.326 404.574 170.629 404.574 171.012ZM413.441 173.14C412.881 173.14 412.363 173.056 411.887 172.888C411.411 172.711 411.005 172.459 410.669 172.132L411.215 171.46C411.626 171.759 412.004 171.978 412.349 172.118C412.695 172.249 413.049 172.314 413.413 172.314C413.908 172.314 414.319 172.197 414.645 171.964C414.972 171.731 415.135 171.432 415.135 171.068C415.135 170.788 415.037 170.569 414.841 170.41C414.655 170.251 414.342 170.13 413.903 170.046L412.783 169.85C412.121 169.729 411.631 169.523 411.313 169.234C411.005 168.945 410.851 168.553 410.851 168.058C410.851 167.666 410.954 167.321 411.159 167.022C411.374 166.723 411.668 166.49 412.041 166.322C412.415 166.145 412.839 166.056 413.315 166.056C413.782 166.056 414.225 166.126 414.645 166.266C415.065 166.397 415.49 166.611 415.919 166.91L415.415 167.624C415.061 167.372 414.706 167.19 414.351 167.078C413.997 166.957 413.637 166.896 413.273 166.896C412.825 166.896 412.466 166.994 412.195 167.19C411.925 167.386 411.789 167.652 411.789 167.988C411.789 168.268 411.873 168.483 412.041 168.632C412.219 168.781 412.527 168.893 412.965 168.968L414.113 169.178C414.804 169.299 415.308 169.509 415.625 169.808C415.943 170.107 416.101 170.508 416.101 171.012C416.101 171.413 415.985 171.777 415.751 172.104C415.518 172.421 415.201 172.673 414.799 172.86C414.398 173.047 413.945 173.14 413.441 173.14ZM419.771 173.14C419.211 173.14 418.693 173.056 418.217 172.888C417.741 172.711 417.335 172.459 416.999 172.132L417.545 171.46C417.956 171.759 418.334 171.978 418.679 172.118C419.025 172.249 419.379 172.314 419.743 172.314C420.238 172.314 420.649 172.197 420.975 171.964C421.302 171.731 421.465 171.432 421.465 171.068C421.465 170.788 421.367 170.569 421.171 170.41C420.985 170.251 420.672 170.13 420.233 170.046L419.113 169.85C418.451 169.729 417.961 169.523 417.643 169.234C417.335 168.945 417.181 168.553 417.181 168.058C417.181 167.666 417.284 167.321 417.489 167.022C417.704 166.723 417.998 166.49 418.371 166.322C418.745 166.145 419.169 166.056 419.645 166.056C420.112 166.056 420.555 166.126 420.975 166.266C421.395 166.397 421.82 166.611 422.249 166.91L421.745 167.624C421.391 167.372 421.036 167.19 420.681 167.078C420.327 166.957 419.967 166.896 419.603 166.896C419.155 166.896 418.796 166.994 418.525 167.19C418.255 167.386 418.119 167.652 418.119 167.988C418.119 168.268 418.203 168.483 418.371 168.632C418.549 168.781 418.857 168.893 419.295 168.968L420.443 169.178C421.134 169.299 421.638 169.509 421.955 169.808C422.273 170.107 422.431 170.508 422.431 171.012C422.431 171.413 422.315 171.777 422.081 172.104C421.848 172.421 421.531 172.673 421.129 172.86C420.728 173.047 420.275 173.14 419.771 173.14ZM426.17 173.126C425.685 173.126 425.255 173.037 424.882 172.86C424.509 172.683 424.215 172.44 424 172.132C423.795 171.815 423.692 171.451 423.692 171.04C423.692 170.629 423.799 170.275 424.014 169.976C424.229 169.668 424.527 169.43 424.91 169.262C425.293 169.094 425.741 169.01 426.254 169.01C426.646 169.01 427.015 169.052 427.36 169.136C427.715 169.22 428.041 169.355 428.34 169.542V168.604C428.34 168.044 428.191 167.624 427.892 167.344C427.593 167.055 427.155 166.91 426.576 166.91C426.259 166.91 425.932 166.957 425.596 167.05C425.269 167.143 424.905 167.293 424.504 167.498L424.126 166.714C425.041 166.275 425.899 166.056 426.702 166.056C427.551 166.056 428.205 166.266 428.662 166.686C429.119 167.097 429.348 167.689 429.348 168.464V173H428.34V172.202C428.041 172.51 427.71 172.743 427.346 172.902C426.982 173.051 426.59 173.126 426.17 173.126ZM424.672 171.012C424.672 171.413 424.826 171.735 425.134 171.978C425.451 172.221 425.867 172.342 426.38 172.342C426.763 172.342 427.113 172.277 427.43 172.146C427.757 172.015 428.06 171.819 428.34 171.558V170.242C428.051 170.074 427.752 169.953 427.444 169.878C427.136 169.794 426.791 169.752 426.408 169.752C425.885 169.752 425.465 169.869 425.148 170.102C424.831 170.326 424.672 170.629 424.672 171.012ZM434.491 173.112C433.856 173.112 433.282 172.958 432.769 172.65C432.265 172.333 431.864 171.908 431.565 171.376C431.266 170.835 431.117 170.237 431.117 169.584C431.117 168.921 431.266 168.324 431.565 167.792C431.864 167.26 432.265 166.84 432.769 166.532C433.282 166.215 433.856 166.056 434.491 166.056C434.995 166.056 435.476 166.149 435.933 166.336C436.39 166.523 436.787 166.784 437.123 167.12L436.465 167.834C436.222 167.563 435.928 167.353 435.583 167.204C435.238 167.055 434.888 166.98 434.533 166.98C434.085 166.98 433.679 167.097 433.315 167.33C432.96 167.563 432.676 167.876 432.461 168.268C432.246 168.66 432.139 169.099 432.139 169.584C432.139 170.069 432.246 170.508 432.461 170.9C432.676 171.292 432.96 171.605 433.315 171.838C433.679 172.071 434.085 172.188 434.533 172.188C434.888 172.188 435.238 172.113 435.583 171.964C435.928 171.805 436.222 171.595 436.465 171.334L437.123 172.048C436.787 172.384 436.39 172.645 435.933 172.832C435.476 173.019 434.995 173.112 434.491 173.112ZM438.548 173V162.892L439.57 162.682V167.274C439.831 166.863 440.144 166.56 440.508 166.364C440.872 166.159 441.283 166.056 441.74 166.056C442.235 166.056 442.664 166.163 443.028 166.378C443.401 166.583 443.691 166.877 443.896 167.26C444.111 167.633 444.218 168.072 444.218 168.576V173H443.196V168.87C443.196 168.263 443.028 167.787 442.692 167.442C442.365 167.087 441.922 166.91 441.362 166.91C440.989 166.91 440.648 166.999 440.34 167.176C440.032 167.353 439.775 167.615 439.57 167.96V173H438.548ZM448.64 173.112C448.155 173.112 447.726 173.005 447.352 172.79C446.979 172.575 446.685 172.277 446.47 171.894C446.265 171.511 446.162 171.073 446.162 170.578V166.168H447.198V170.284C447.198 170.891 447.362 171.371 447.688 171.726C448.015 172.081 448.458 172.258 449.018 172.258C449.401 172.258 449.742 172.169 450.04 171.992C450.348 171.815 450.605 171.558 450.81 171.222V166.168H451.832V173H450.81V171.894C450.549 172.295 450.236 172.599 449.872 172.804C449.518 173.009 449.107 173.112 448.64 173.112ZM456.043 173.14C455.483 173.14 454.965 173.056 454.489 172.888C454.013 172.711 453.607 172.459 453.271 172.132L453.817 171.46C454.228 171.759 454.606 171.978 454.951 172.118C455.296 172.249 455.651 172.314 456.015 172.314C456.51 172.314 456.92 172.197 457.247 171.964C457.574 171.731 457.737 171.432 457.737 171.068C457.737 170.788 457.639 170.569 457.443 170.41C457.256 170.251 456.944 170.13 456.505 170.046L455.385 169.85C454.722 169.729 454.232 169.523 453.915 169.234C453.607 168.945 453.453 168.553 453.453 168.058C453.453 167.666 453.556 167.321 453.761 167.022C453.976 166.723 454.27 166.49 454.643 166.322C455.016 166.145 455.441 166.056 455.917 166.056C456.384 166.056 456.827 166.126 457.247 166.266C457.667 166.397 458.092 166.611 458.521 166.91L458.017 167.624C457.662 167.372 457.308 167.19 456.953 167.078C456.598 166.957 456.239 166.896 455.875 166.896C455.427 166.896 455.068 166.994 454.797 167.19C454.526 167.386 454.391 167.652 454.391 167.988C454.391 168.268 454.475 168.483 454.643 168.632C454.82 168.781 455.128 168.893 455.567 168.968L456.715 169.178C457.406 169.299 457.91 169.509 458.227 169.808C458.544 170.107 458.703 170.508 458.703 171.012C458.703 171.413 458.586 171.777 458.353 172.104C458.12 172.421 457.802 172.673 457.401 172.86C457 173.047 456.547 173.14 456.043 173.14ZM463.407 173.14C462.773 173.14 462.199 172.986 461.685 172.678C461.172 172.361 460.766 171.936 460.467 171.404C460.169 170.863 460.019 170.256 460.019 169.584C460.019 168.912 460.159 168.31 460.439 167.778C460.729 167.246 461.116 166.826 461.601 166.518C462.087 166.21 462.628 166.056 463.225 166.056C463.832 166.056 464.369 166.21 464.835 166.518C465.311 166.817 465.685 167.227 465.955 167.75C466.235 168.263 466.375 168.847 466.375 169.5V169.808H461.013C461.051 170.275 461.177 170.695 461.391 171.068C461.615 171.432 461.905 171.721 462.259 171.936C462.623 172.141 463.02 172.244 463.449 172.244C463.804 172.244 464.145 172.183 464.471 172.062C464.807 171.931 465.092 171.759 465.325 171.544L465.969 172.23C465.577 172.538 465.171 172.767 464.751 172.916C464.331 173.065 463.883 173.14 463.407 173.14ZM461.041 169.08H465.367C465.321 168.669 465.195 168.305 464.989 167.988C464.793 167.661 464.541 167.405 464.233 167.218C463.935 167.031 463.599 166.938 463.225 166.938C462.852 166.938 462.511 167.031 462.203 167.218C461.895 167.395 461.639 167.647 461.433 167.974C461.237 168.291 461.107 168.66 461.041 169.08ZM470.519 173.14C469.931 173.14 469.483 173 469.175 172.72C468.877 172.431 468.727 172.015 468.727 171.474V167.008H467.313V166.168H468.727V164.292L469.749 164.054V166.168H471.709V167.008H469.749V171.208C469.749 171.572 469.824 171.833 469.973 171.992C470.132 172.151 470.389 172.23 470.743 172.23C470.921 172.23 471.079 172.216 471.219 172.188C471.359 172.16 471.523 172.113 471.709 172.048V172.958C471.523 173.023 471.327 173.07 471.121 173.098C470.916 173.126 470.715 173.14 470.519 173.14ZM475.947 173.14C475.359 173.14 474.911 173 474.603 172.72C474.304 172.431 474.155 172.015 474.155 171.474V167.008H472.741V166.168H474.155V164.292L475.177 164.054V166.168H477.137V167.008H475.177V171.208C475.177 171.572 475.252 171.833 475.401 171.992C475.56 172.151 475.816 172.23 476.171 172.23C476.348 172.23 476.507 172.216 476.647 172.188C476.787 172.16 476.95 172.113 477.137 172.048V172.958C476.95 173.023 476.754 173.07 476.549 173.098C476.344 173.126 476.143 173.14 475.947 173.14ZM480.885 173.14C480.325 173.14 479.807 173.056 479.331 172.888C478.855 172.711 478.449 172.459 478.113 172.132L478.659 171.46C479.069 171.759 479.447 171.978 479.793 172.118C480.138 172.249 480.493 172.314 480.857 172.314C481.351 172.314 481.762 172.197 482.089 171.964C482.415 171.731 482.579 171.432 482.579 171.068C482.579 170.788 482.481 170.569 482.285 170.41C482.098 170.251 481.785 170.13 481.347 170.046L480.227 169.85C479.564 169.729 479.074 169.523 478.757 169.234C478.449 168.945 478.295 168.553 478.295 168.058C478.295 167.666 478.397 167.321 478.603 167.022C478.817 166.723 479.111 166.49 479.485 166.322C479.858 166.145 480.283 166.056 480.759 166.056C481.225 166.056 481.669 166.126 482.089 166.266C482.509 166.397 482.933 166.611 483.363 166.91L482.859 167.624C482.504 167.372 482.149 167.19 481.795 167.078C481.44 166.957 481.081 166.896 480.717 166.896C480.269 166.896 479.909 166.994 479.639 167.19C479.368 167.386 479.233 167.652 479.233 167.988C479.233 168.268 479.317 168.483 479.485 168.632C479.662 168.781 479.97 168.893 480.409 168.968L481.557 169.178C482.247 169.299 482.751 169.509 483.069 169.808C483.386 170.107 483.545 170.508 483.545 171.012C483.545 171.413 483.428 171.777 483.195 172.104C482.961 172.421 482.644 172.673 482.243 172.86C481.841 173.047 481.389 173.14 480.885 173.14Z" fill="#151515"/>
<path d="M392.246 210V200.2H393.366L399.106 208.32L399.078 200.2H400.1V210H399.12L393.24 201.698L393.268 210H392.246ZM405.48 210.14C404.845 210.14 404.271 209.986 403.758 209.678C403.244 209.361 402.838 208.936 402.54 208.404C402.241 207.863 402.092 207.256 402.092 206.584C402.092 205.912 402.232 205.31 402.512 204.778C402.801 204.246 403.188 203.826 403.674 203.518C404.159 203.21 404.7 203.056 405.298 203.056C405.904 203.056 406.441 203.21 406.908 203.518C407.384 203.817 407.757 204.227 408.028 204.75C408.308 205.263 408.448 205.847 408.448 206.5V206.808H403.086C403.123 207.275 403.249 207.695 403.464 208.068C403.688 208.432 403.977 208.721 404.332 208.936C404.696 209.141 405.092 209.244 405.522 209.244C405.876 209.244 406.217 209.183 406.544 209.062C406.88 208.931 407.164 208.759 407.398 208.544L408.042 209.23C407.65 209.538 407.244 209.767 406.824 209.916C406.404 210.065 405.956 210.14 405.48 210.14ZM403.114 206.08H407.44C407.393 205.669 407.267 205.305 407.062 204.988C406.866 204.661 406.614 204.405 406.306 204.218C406.007 204.031 405.671 203.938 405.298 203.938C404.924 203.938 404.584 204.031 404.276 204.218C403.968 204.395 403.711 204.647 403.506 204.974C403.31 205.291 403.179 205.66 403.114 206.08ZM411.274 210L409.398 203.168H410.392L411.82 208.628L413.458 203.168H414.368L416.006 208.628L417.42 203.168H418.386L416.524 210H415.53L413.906 204.484L412.282 210H411.274ZM426.025 210V205.996L422.217 200.2H423.477L426.599 205.058L429.735 200.2H430.925L427.103 206.024V210H426.025ZM433.711 210.112C433.076 210.112 432.507 209.958 432.003 209.65C431.499 209.342 431.102 208.922 430.813 208.39C430.523 207.858 430.379 207.256 430.379 206.584C430.379 205.912 430.523 205.31 430.813 204.778C431.102 204.246 431.499 203.826 432.003 203.518C432.507 203.21 433.076 203.056 433.711 203.056C434.336 203.056 434.896 203.21 435.391 203.518C435.895 203.826 436.291 204.246 436.581 204.778C436.87 205.31 437.015 205.912 437.015 206.584C437.015 207.256 436.87 207.858 436.581 208.39C436.291 208.922 435.895 209.342 435.391 209.65C434.896 209.958 434.336 210.112 433.711 210.112ZM433.697 209.216C434.145 209.216 434.541 209.104 434.887 208.88C435.232 208.647 435.503 208.329 435.699 207.928C435.904 207.527 436.007 207.079 436.007 206.584C436.007 206.08 435.904 205.632 435.699 205.24C435.503 204.839 435.232 204.526 434.887 204.302C434.541 204.069 434.145 203.952 433.697 203.952C433.249 203.952 432.852 204.069 432.507 204.302C432.161 204.526 431.886 204.839 431.681 205.24C431.485 205.632 431.387 206.08 431.387 206.584C431.387 207.079 431.485 207.527 431.681 207.928C431.886 208.329 432.161 208.647 432.507 208.88C432.852 209.104 433.249 209.216 433.697 209.216ZM438.808 210V203.168H439.83V204.568C440.007 204.092 440.259 203.723 440.586 203.462C440.922 203.191 441.304 203.056 441.734 203.056C441.855 203.056 441.967 203.065 442.07 203.084C442.172 203.093 442.275 203.117 442.378 203.154V204.078C442.266 204.041 442.144 204.013 442.014 203.994C441.892 203.966 441.776 203.952 441.664 203.952C441.244 203.952 440.875 204.073 440.558 204.316C440.25 204.559 440.007 204.899 439.83 205.338V210H438.808ZM443.73 210V199.892L444.752 199.682V206.234L448 203.168H449.232L445.76 206.416L449.386 210H448.042L444.752 206.738V210H443.73Z" fill="#151515"/>
</g>
<path d="M344 127L339 124.113V129.887L344 127ZM294 127.5H339.5V126.5H294V127.5Z" fill="#707070"/>
<defs>
<filter id="filter0_d_385_9940" x="17" y="54" width="262" height="191" filterUnits="userSpaceOnUse" color-interpolation-filters="sRGB">
<feFlood flood-opacity="0" result="BackgroundImageFix"/>
<feColorMatrix in="SourceAlpha" type="matrix" values="0 0 0 0 0 0 0 0 0 0 0 0 0 0 0 0 0 0 127 0" result="hardAlpha"/>
<feOffset dy="4"/>
<feGaussianBlur stdDeviation="4.5"/>
<feColorMatrix type="matrix" values="0 0 0 0 0.160784 0 0 0 0 0.160784 0 0 0 0 0.160784 0 0 0 0.15 0"/>
<feBlend mode="normal" in2="BackgroundImageFix" result="effect1_dropShadow_385_9940"/>
<feBlend mode="normal" in="SourceGraphic" in2="effect1_dropShadow_385_9940" result="shape"/>
</filter>
<filter id="filter1_d_385_9940" x="146.191" y="139.012" width="16.7461" height="17.8588" filterUnits="userSpaceOnUse" color-interpolation-filters="sRGB">
<feFlood flood-opacity="0" result="BackgroundImageFix"/>
<feColorMatrix in="SourceAlpha" type="matrix" values="0 0 0 0 0 0 0 0 0 0 0 0 0 0 0 0 0 0 127 0" result="hardAlpha"/>
<feOffset dy="1"/>
<feGaussianBlur stdDeviation="0.4"/>
<feColorMatrix type="matrix" values="0 0 0 0 0 0 0 0 0 0 0 0 0 0 0 0 0 0 0.5 0"/>
<feBlend mode="normal" in2="BackgroundImageFix" result="effect1_dropShadow_385_9940"/>
<feBlend mode="normal" in="SourceGraphic" in2="effect1_dropShadow_385_9940" result="shape"/>
</filter>
<filter id="filter2_d_385_9940" x="358" y="54" width="262" height="191" filterUnits="userSpaceOnUse" color-interpolation-filters="sRGB">
<feFlood flood-opacity="0" result="BackgroundImageFix"/>
<feColorMatrix in="SourceAlpha" type="matrix" values="0 0 0 0 0 0 0 0 0 0 0 0 0 0 0 0 0 0 127 0" result="hardAlpha"/>
<feOffset dy="4"/>
<feGaussianBlur stdDeviation="4.5"/>
<feColorMatrix type="matrix" values="0 0 0 0 0.160784 0 0 0 0 0.160784 0 0 0 0 0.160784 0 0 0 0.15 0"/>
<feBlend mode="normal" in2="BackgroundImageFix" result="effect1_dropShadow_385_9940"/>
<feBlend mode="normal" in="SourceGraphic" in2="effect1_dropShadow_385_9940" result="shape"/>
</filter>
</defs>
</svg>
