<svg width="697" height="371" viewBox="0 0 697 371" fill="none" xmlns="http://www.w3.org/2000/svg">
<rect width="697" height="371" fill="white"/>
<path d="M75.836 49V41.536L74.492 42.136V41.344L76.16 40.6H76.7V49H75.836ZM81.6397 49.132C80.9997 49.132 80.4317 48.948 79.9357 48.58C79.4477 48.212 79.0637 47.704 78.7837 47.056C78.5037 46.4 78.3637 45.648 78.3637 44.8C78.3637 43.944 78.5037 43.192 78.7837 42.544C79.0637 41.896 79.4477 41.388 79.9357 41.02C80.4317 40.652 80.9997 40.468 81.6397 40.468C82.2797 40.468 82.8437 40.652 83.3317 41.02C83.8277 41.388 84.2157 41.896 84.4957 42.544C84.7757 43.192 84.9157 43.944 84.9157 44.8C84.9157 45.648 84.7757 46.4 84.4957 47.056C84.2157 47.704 83.8277 48.212 83.3317 48.58C82.8437 48.948 82.2797 49.132 81.6397 49.132ZM81.6397 48.352C82.1277 48.352 82.5477 48.208 82.8997 47.92C83.2597 47.624 83.5397 47.212 83.7397 46.684C83.9397 46.148 84.0397 45.52 84.0397 44.8C84.0397 44.08 83.9397 43.456 83.7397 42.928C83.5397 42.392 83.2597 41.98 82.8997 41.692C82.5477 41.396 82.1277 41.248 81.6397 41.248C81.1597 41.248 80.7397 41.396 80.3797 41.692C80.0197 41.98 79.7397 42.392 79.5397 42.928C79.3397 43.456 79.2397 44.08 79.2397 44.8C79.2397 45.52 79.3397 46.148 79.5397 46.684C79.7397 47.212 80.0197 47.624 80.3797 47.92C80.7397 48.208 81.1597 48.352 81.6397 48.352Z" fill="#151515"/>
<rect x="90" y="44.5" width="5" height="1" fill="#C7C7C7"/>
<path d="M81.456 63.168C82.104 63.168 82.672 63.34 83.16 63.684C83.656 64.028 84.044 64.504 84.324 65.112C84.604 65.712 84.744 66.408 84.744 67.2C84.744 68.128 84.588 68.94 84.276 69.636C83.964 70.324 83.524 70.86 82.956 71.244C82.396 71.628 81.736 71.82 80.976 71.82C80.632 71.82 80.284 71.772 79.932 71.676C79.588 71.572 79.28 71.432 79.008 71.256L79.44 70.584C79.688 70.728 79.948 70.84 80.22 70.92C80.5 71 80.776 71.04 81.048 71.04C81.624 71.04 82.12 70.892 82.536 70.596C82.96 70.292 83.288 69.86 83.52 69.3C83.752 68.732 83.872 68.06 83.88 67.284C83.568 67.684 83.196 67.996 82.764 68.22C82.332 68.444 81.884 68.556 81.42 68.556C80.876 68.556 80.392 68.444 79.968 68.22C79.544 67.988 79.212 67.676 78.972 67.284C78.732 66.892 78.612 66.444 78.612 65.94C78.612 65.404 78.736 64.928 78.984 64.512C79.232 64.096 79.568 63.768 79.992 63.528C80.424 63.288 80.912 63.168 81.456 63.168ZM81.54 67.848C81.98 67.848 82.4 67.74 82.8 67.524C83.208 67.3 83.56 66.996 83.856 66.612C83.8 66.068 83.664 65.596 83.448 65.196C83.232 64.796 82.956 64.484 82.62 64.26C82.284 64.036 81.9 63.924 81.468 63.924C81.084 63.924 80.74 64.012 80.436 64.188C80.14 64.356 79.904 64.592 79.728 64.896C79.56 65.192 79.476 65.532 79.476 65.916C79.476 66.292 79.564 66.628 79.74 66.924C79.916 67.212 80.156 67.44 80.46 67.608C80.772 67.768 81.132 67.848 81.54 67.848Z" fill="#151515"/>
<rect x="90" y="67.2" width="5" height="1" fill="#C7C7C7"/>
<path d="M81.684 94.532C81.108 94.532 80.596 94.428 80.148 94.22C79.7 94.012 79.344 93.728 79.08 93.368C78.824 93 78.696 92.588 78.696 92.132C78.696 91.788 78.78 91.472 78.948 91.184C79.116 90.888 79.348 90.636 79.644 90.428C79.948 90.212 80.292 90.06 80.676 89.972C80.188 89.836 79.788 89.592 79.476 89.24C79.172 88.888 79.02 88.492 79.02 88.052C79.02 87.636 79.136 87.264 79.368 86.936C79.6 86.608 79.916 86.348 80.316 86.156C80.724 85.964 81.18 85.868 81.684 85.868C82.196 85.868 82.652 85.964 83.052 86.156C83.452 86.348 83.768 86.608 84 86.936C84.232 87.264 84.348 87.636 84.348 88.052C84.348 88.492 84.196 88.888 83.892 89.24C83.588 89.592 83.188 89.836 82.692 89.972C83.276 90.108 83.752 90.376 84.12 90.776C84.488 91.168 84.672 91.62 84.672 92.132C84.672 92.588 84.544 93 84.288 93.368C84.032 93.728 83.676 94.012 83.22 94.22C82.772 94.428 82.26 94.532 81.684 94.532ZM81.684 89.612C82.028 89.612 82.336 89.544 82.608 89.408C82.888 89.272 83.108 89.092 83.268 88.868C83.428 88.636 83.508 88.376 83.508 88.088C83.508 87.8 83.428 87.54 83.268 87.308C83.108 87.076 82.888 86.896 82.608 86.768C82.336 86.632 82.028 86.564 81.684 86.564C81.34 86.564 81.028 86.632 80.748 86.768C80.476 86.896 80.26 87.076 80.1 87.308C79.94 87.54 79.86 87.8 79.86 88.088C79.86 88.376 79.94 88.636 80.1 88.868C80.26 89.092 80.476 89.272 80.748 89.408C81.028 89.544 81.34 89.612 81.684 89.612ZM81.684 93.836C82.092 93.836 82.456 93.76 82.776 93.608C83.096 93.456 83.348 93.248 83.532 92.984C83.724 92.72 83.82 92.424 83.82 92.096C83.82 91.768 83.724 91.472 83.532 91.208C83.348 90.944 83.096 90.736 82.776 90.584C82.456 90.432 82.092 90.356 81.684 90.356C81.276 90.356 80.912 90.432 80.592 90.584C80.272 90.736 80.016 90.944 79.824 91.208C79.64 91.472 79.548 91.768 79.548 92.096C79.548 92.424 79.64 92.72 79.824 92.984C80.016 93.248 80.272 93.456 80.592 93.608C80.912 93.76 81.276 93.836 81.684 93.836Z" fill="#151515"/>
<rect x="90" y="89.9" width="5" height="1" fill="#C7C7C7"/>
<path d="M80.236 117.1L84.412 109.456H79.372V108.7H85.348V109.372L81.22 117.1H80.236Z" fill="#151515"/>
<rect x="90" y="112.6" width="5" height="1" fill="#C7C7C7"/>
<path d="M81.972 139.92C81.324 139.92 80.752 139.748 80.256 139.404C79.768 139.06 79.384 138.588 79.104 137.988C78.824 137.38 78.684 136.68 78.684 135.888C78.684 134.96 78.84 134.152 79.152 133.464C79.464 132.768 79.904 132.228 80.472 131.844C81.04 131.46 81.7 131.268 82.452 131.268C82.804 131.268 83.152 131.316 83.496 131.412C83.84 131.508 84.148 131.648 84.42 131.832L83.988 132.504C83.74 132.36 83.48 132.248 83.208 132.168C82.936 132.088 82.66 132.048 82.38 132.048C81.804 132.048 81.304 132.2 80.88 132.504C80.464 132.8 80.14 133.228 79.908 133.788C79.684 134.348 79.564 135.02 79.548 135.804C79.86 135.404 80.232 135.092 80.664 134.868C81.096 134.644 81.544 134.532 82.008 134.532C82.552 134.532 83.036 134.644 83.46 134.868C83.884 135.092 84.216 135.404 84.456 135.804C84.696 136.196 84.816 136.644 84.816 137.148C84.816 137.676 84.692 138.152 84.444 138.576C84.196 138.992 83.856 139.32 83.424 139.56C83 139.8 82.516 139.92 81.972 139.92ZM81.888 135.24C81.448 135.24 81.024 135.352 80.616 135.576C80.216 135.792 79.868 136.092 79.572 136.476C79.636 137.012 79.772 137.484 79.98 137.892C80.196 138.292 80.472 138.604 80.808 138.828C81.152 139.052 81.536 139.164 81.96 139.164C82.344 139.164 82.684 139.08 82.98 138.912C83.284 138.736 83.52 138.496 83.688 138.192C83.864 137.888 83.952 137.548 83.952 137.172C83.952 136.796 83.864 136.464 83.688 136.176C83.512 135.88 83.268 135.652 82.956 135.492C82.652 135.324 82.296 135.24 81.888 135.24Z" fill="#151515"/>
<rect x="90" y="135.3" width="5" height="1" fill="#C7C7C7"/>
<path d="M82.3 162.632C81.196 162.632 80.244 162.252 79.444 161.492L79.984 160.904C80.352 161.248 80.716 161.5 81.076 161.66C81.444 161.812 81.856 161.888 82.312 161.888C82.72 161.888 83.08 161.804 83.392 161.636C83.704 161.468 83.944 161.232 84.112 160.928C84.288 160.624 84.376 160.276 84.376 159.884C84.376 159.324 84.184 158.872 83.8 158.528C83.424 158.184 82.928 158.012 82.312 158.012C81.992 158.012 81.68 158.052 81.376 158.132C81.072 158.204 80.756 158.324 80.428 158.492L79.828 158.3L80.02 154.1H84.796V154.856H80.764L80.632 157.76C80.952 157.6 81.26 157.488 81.556 157.424C81.852 157.352 82.164 157.316 82.492 157.316C83.044 157.316 83.524 157.424 83.932 157.64C84.348 157.848 84.668 158.144 84.892 158.528C85.124 158.904 85.24 159.344 85.24 159.848C85.24 160.4 85.116 160.884 84.868 161.3C84.62 161.716 84.276 162.044 83.836 162.284C83.396 162.516 82.884 162.632 82.3 162.632Z" fill="#151515"/>
<rect x="90" y="158" width="5" height="1" fill="#C7C7C7"/>
<path d="M83.004 185.2V182.956H78.468V182.272L82.932 176.8H83.856V182.2H85.02V182.956H83.856V185.2H83.004ZM79.476 182.2H83.004V177.844L79.476 182.2Z" fill="#151515"/>
<rect x="90" y="180.7" width="5" height="1" fill="#C7C7C7"/>
<path d="M81.384 208.032C80.808 208.032 80.268 207.932 79.764 207.732C79.268 207.532 78.828 207.236 78.444 206.844L79.02 206.28C79.372 206.632 79.732 206.888 80.1 207.048C80.476 207.2 80.9 207.276 81.372 207.276C81.78 207.276 82.14 207.204 82.452 207.06C82.772 206.916 83.02 206.716 83.196 206.46C83.372 206.204 83.46 205.912 83.46 205.584C83.46 205.272 83.38 204.996 83.22 204.756C83.068 204.508 82.856 204.316 82.584 204.18C82.312 204.044 82 203.976 81.648 203.976H80.652V203.232H81.612C82.068 203.232 82.436 203.092 82.716 202.812C83.004 202.532 83.148 202.168 83.148 201.72C83.148 201.424 83.068 201.156 82.908 200.916C82.748 200.676 82.528 200.488 82.248 200.352C81.976 200.208 81.668 200.136 81.324 200.136C80.892 200.136 80.504 200.216 80.16 200.376C79.824 200.528 79.48 200.788 79.128 201.156L78.552 200.58C78.928 200.18 79.352 199.88 79.824 199.68C80.296 199.472 80.8 199.368 81.336 199.368C81.848 199.368 82.304 199.468 82.704 199.668C83.112 199.868 83.432 200.144 83.664 200.496C83.896 200.84 84.012 201.232 84.012 201.672C84.012 202.112 83.868 202.508 83.58 202.86C83.292 203.204 82.912 203.444 82.44 203.58C83.008 203.708 83.464 203.956 83.808 204.324C84.152 204.692 84.324 205.12 84.324 205.608C84.324 206.072 84.196 206.488 83.94 206.856C83.692 207.224 83.344 207.512 82.896 207.72C82.456 207.928 81.952 208.032 81.384 208.032Z" fill="#151515"/>
<rect x="90" y="203.4" width="5" height="1" fill="#C7C7C7"/>
<path d="M79.612 230.6V229.964L82.972 226.292C83.236 226.004 83.44 225.752 83.584 225.536C83.736 225.312 83.84 225.104 83.896 224.912C83.96 224.72 83.992 224.516 83.992 224.3C83.992 223.876 83.824 223.528 83.488 223.256C83.16 222.976 82.74 222.836 82.228 222.836C81.836 222.836 81.472 222.912 81.136 223.064C80.8 223.216 80.424 223.48 80.008 223.856L79.504 223.256C79.944 222.856 80.388 222.56 80.836 222.368C81.284 222.168 81.752 222.068 82.24 222.068C82.744 222.068 83.192 222.164 83.584 222.356C83.976 222.54 84.284 222.796 84.508 223.124C84.732 223.452 84.844 223.828 84.844 224.252C84.844 224.532 84.808 224.792 84.736 225.032C84.664 225.264 84.536 225.516 84.352 225.788C84.168 226.052 83.904 226.372 83.56 226.748L80.692 229.856L85.024 229.844V230.6H79.612Z" fill="#151515"/>
<rect x="90" y="226.1" width="5" height="1" fill="#C7C7C7"/>
<path d="M83.836 253.3V245.836L82.492 246.436V245.644L84.16 244.9H84.7V253.3H83.836Z" fill="#151515"/>
<rect x="90" y="248.8" width="5" height="1" fill="#C7C7C7"/>
<rect x="95" y="36" width="1" height="245" fill="#C7C7C7"/>
<rect x="128" y="103" width="16" height="177" fill="#0066CC"/>
<rect x="302.333" y="159" width="16" height="122" fill="#DCA614"/>
<rect x="457" y="182" width="16" height="98" fill="#5E40BE"/>
<rect x="631" y="130" width="16" height="150" fill="#CA6C0F"/>
<path fill-rule="evenodd" clip-rule="evenodd" d="M96 280H669V281H96V280Z" fill="#C7C7C7"/>
<g clip-path="url(#clip0_514_9929)">
<rect x="136" y="281" width="5" height="1" transform="rotate(90 136 281)" fill="#C7C7C7"/>
<path d="M111.246 301V291.2H112.744L116.02 298.172L119.296 291.2H120.794V301H119.772V292.474L116.02 300.3L112.254 292.446V301H111.246ZM126.119 301.112C125.484 301.112 124.915 300.958 124.411 300.65C123.907 300.342 123.51 299.922 123.221 299.39C122.932 298.858 122.787 298.256 122.787 297.584C122.787 296.912 122.932 296.31 123.221 295.778C123.51 295.246 123.907 294.826 124.411 294.518C124.915 294.21 125.484 294.056 126.119 294.056C126.744 294.056 127.304 294.21 127.799 294.518C128.303 294.826 128.7 295.246 128.989 295.778C129.278 296.31 129.423 296.912 129.423 297.584C129.423 298.256 129.278 298.858 128.989 299.39C128.7 299.922 128.303 300.342 127.799 300.65C127.304 300.958 126.744 301.112 126.119 301.112ZM126.105 300.216C126.553 300.216 126.95 300.104 127.295 299.88C127.64 299.647 127.911 299.329 128.107 298.928C128.312 298.527 128.415 298.079 128.415 297.584C128.415 297.08 128.312 296.632 128.107 296.24C127.911 295.839 127.64 295.526 127.295 295.302C126.95 295.069 126.553 294.952 126.105 294.952C125.657 294.952 125.26 295.069 124.915 295.302C124.57 295.526 124.294 295.839 124.089 296.24C123.893 296.632 123.795 297.08 123.795 297.584C123.795 298.079 123.893 298.527 124.089 298.928C124.294 299.329 124.57 299.647 124.915 299.88C125.26 300.104 125.657 300.216 126.105 300.216ZM131.216 301V294.168H132.238V295.274C132.499 294.863 132.812 294.56 133.176 294.364C133.54 294.159 133.951 294.056 134.408 294.056C134.903 294.056 135.332 294.163 135.696 294.378C136.069 294.583 136.359 294.877 136.564 295.26C136.779 295.633 136.886 296.072 136.886 296.576V301H135.864V296.87C135.864 296.263 135.696 295.787 135.36 295.442C135.033 295.087 134.59 294.91 134.03 294.91C133.657 294.91 133.316 294.999 133.008 295.176C132.7 295.353 132.443 295.615 132.238 295.96V301H131.216ZM141.783 301.098C141.195 301.098 140.663 300.944 140.187 300.636C139.711 300.319 139.333 299.899 139.053 299.376C138.773 298.844 138.633 298.251 138.633 297.598C138.633 296.935 138.773 296.343 139.053 295.82C139.342 295.288 139.729 294.868 140.215 294.56C140.7 294.243 141.241 294.084 141.839 294.084C142.259 294.084 142.651 294.168 143.015 294.336C143.379 294.495 143.696 294.728 143.967 295.036V290.892L144.989 290.682V301H143.967V300.09C143.705 300.417 143.388 300.669 143.015 300.846C142.641 301.014 142.231 301.098 141.783 301.098ZM142.035 300.202C142.436 300.202 142.805 300.123 143.141 299.964C143.477 299.805 143.752 299.581 143.967 299.292V295.904C143.743 295.615 143.458 295.391 143.113 295.232C142.777 295.064 142.417 294.98 142.035 294.98C141.577 294.98 141.167 295.092 140.803 295.316C140.448 295.54 140.163 295.848 139.949 296.24C139.743 296.632 139.641 297.08 139.641 297.584C139.641 298.079 139.743 298.527 139.949 298.928C140.163 299.32 140.448 299.633 140.803 299.866C141.167 300.09 141.577 300.202 142.035 300.202ZM149.203 301.126C148.718 301.126 148.288 301.037 147.915 300.86C147.542 300.683 147.248 300.44 147.033 300.132C146.828 299.815 146.725 299.451 146.725 299.04C146.725 298.629 146.832 298.275 147.047 297.976C147.262 297.668 147.56 297.43 147.943 297.262C148.326 297.094 148.774 297.01 149.287 297.01C149.679 297.01 150.048 297.052 150.393 297.136C150.748 297.22 151.074 297.355 151.373 297.542V296.604C151.373 296.044 151.224 295.624 150.925 295.344C150.626 295.055 150.188 294.91 149.609 294.91C149.292 294.91 148.965 294.957 148.629 295.05C148.302 295.143 147.938 295.293 147.537 295.498L147.159 294.714C148.074 294.275 148.932 294.056 149.735 294.056C150.584 294.056 151.238 294.266 151.695 294.686C152.152 295.097 152.381 295.689 152.381 296.464V301H151.373V300.202C151.074 300.51 150.743 300.743 150.379 300.902C150.015 301.051 149.623 301.126 149.203 301.126ZM147.705 299.012C147.705 299.413 147.859 299.735 148.167 299.978C148.484 300.221 148.9 300.342 149.413 300.342C149.796 300.342 150.146 300.277 150.463 300.146C150.79 300.015 151.093 299.819 151.373 299.558V298.242C151.084 298.074 150.785 297.953 150.477 297.878C150.169 297.794 149.824 297.752 149.441 297.752C148.918 297.752 148.498 297.869 148.181 298.102C147.864 298.326 147.705 298.629 147.705 299.012ZM154.615 304.066C154.401 304.066 154.181 304.033 153.957 303.968V303.058C154.051 303.077 154.149 303.091 154.251 303.1C154.354 303.109 154.443 303.114 154.517 303.114C154.779 303.114 154.993 303.044 155.161 302.904C155.339 302.764 155.488 302.545 155.609 302.246L156.113 301L153.481 294.168H154.615L156.687 299.782L158.885 294.168H160.019L156.575 302.554C156.426 302.918 156.263 303.212 156.085 303.436C155.908 303.66 155.703 303.819 155.469 303.912C155.236 304.015 154.951 304.066 154.615 304.066Z" fill="#151515"/>
<rect x="309.833" y="281" width="5" height="1" transform="rotate(90 309.833 281)" fill="#C7C7C7"/>
<path d="M286.613 301V292.152H283.225V291.2H291.079V292.152H287.691V301H286.613ZM294.399 301.112C293.914 301.112 293.485 301.005 293.111 300.79C292.738 300.575 292.444 300.277 292.229 299.894C292.024 299.511 291.921 299.073 291.921 298.578V294.168H292.957V298.284C292.957 298.891 293.121 299.371 293.447 299.726C293.774 300.081 294.217 300.258 294.777 300.258C295.16 300.258 295.501 300.169 295.799 299.992C296.107 299.815 296.364 299.558 296.569 299.222V294.168H297.591V301H296.569V299.894C296.308 300.295 295.995 300.599 295.631 300.804C295.277 301.009 294.866 301.112 294.399 301.112ZM302.768 301.14C302.133 301.14 301.559 300.986 301.046 300.678C300.533 300.361 300.127 299.936 299.828 299.404C299.529 298.863 299.38 298.256 299.38 297.584C299.38 296.912 299.52 296.31 299.8 295.778C300.089 295.246 300.477 294.826 300.962 294.518C301.447 294.21 301.989 294.056 302.586 294.056C303.193 294.056 303.729 294.21 304.196 294.518C304.672 294.817 305.045 295.227 305.316 295.75C305.596 296.263 305.736 296.847 305.736 297.5V297.808H300.374C300.411 298.275 300.537 298.695 300.752 299.068C300.976 299.432 301.265 299.721 301.62 299.936C301.984 300.141 302.381 300.244 302.81 300.244C303.165 300.244 303.505 300.183 303.832 300.062C304.168 299.931 304.453 299.759 304.686 299.544L305.33 300.23C304.938 300.538 304.532 300.767 304.112 300.916C303.692 301.065 303.244 301.14 302.768 301.14ZM300.402 297.08H304.728C304.681 296.669 304.555 296.305 304.35 295.988C304.154 295.661 303.902 295.405 303.594 295.218C303.295 295.031 302.959 294.938 302.586 294.938C302.213 294.938 301.872 295.031 301.564 295.218C301.256 295.395 300.999 295.647 300.794 295.974C300.598 296.291 300.467 296.66 300.402 297.08ZM309.663 301.14C309.103 301.14 308.585 301.056 308.109 300.888C307.633 300.711 307.227 300.459 306.891 300.132L307.437 299.46C307.848 299.759 308.226 299.978 308.571 300.118C308.917 300.249 309.271 300.314 309.635 300.314C310.13 300.314 310.541 300.197 310.867 299.964C311.194 299.731 311.357 299.432 311.357 299.068C311.357 298.788 311.259 298.569 311.063 298.41C310.877 298.251 310.564 298.13 310.125 298.046L309.005 297.85C308.343 297.729 307.853 297.523 307.535 297.234C307.227 296.945 307.073 296.553 307.073 296.058C307.073 295.666 307.176 295.321 307.381 295.022C307.596 294.723 307.89 294.49 308.263 294.322C308.637 294.145 309.061 294.056 309.537 294.056C310.004 294.056 310.447 294.126 310.867 294.266C311.287 294.397 311.712 294.611 312.141 294.91L311.637 295.624C311.283 295.372 310.928 295.19 310.573 295.078C310.219 294.957 309.859 294.896 309.495 294.896C309.047 294.896 308.688 294.994 308.417 295.19C308.147 295.386 308.011 295.652 308.011 295.988C308.011 296.268 308.095 296.483 308.263 296.632C308.441 296.781 308.749 296.893 309.187 296.968L310.335 297.178C311.026 297.299 311.53 297.509 311.847 297.808C312.165 298.107 312.323 298.508 312.323 299.012C312.323 299.413 312.207 299.777 311.973 300.104C311.74 300.421 311.423 300.673 311.021 300.86C310.62 301.047 310.167 301.14 309.663 301.14ZM316.79 301.098C316.202 301.098 315.67 300.944 315.194 300.636C314.718 300.319 314.34 299.899 314.06 299.376C313.78 298.844 313.64 298.251 313.64 297.598C313.64 296.935 313.78 296.343 314.06 295.82C314.349 295.288 314.736 294.868 315.222 294.56C315.707 294.243 316.248 294.084 316.846 294.084C317.266 294.084 317.658 294.168 318.022 294.336C318.386 294.495 318.703 294.728 318.974 295.036V290.892L319.996 290.682V301H318.974V300.09C318.712 300.417 318.395 300.669 318.022 300.846C317.648 301.014 317.238 301.098 316.79 301.098ZM317.042 300.202C317.443 300.202 317.812 300.123 318.148 299.964C318.484 299.805 318.759 299.581 318.974 299.292V295.904C318.75 295.615 318.465 295.391 318.12 295.232C317.784 295.064 317.424 294.98 317.042 294.98C316.584 294.98 316.174 295.092 315.81 295.316C315.455 295.54 315.17 295.848 314.956 296.24C314.75 296.632 314.648 297.08 314.648 297.584C314.648 298.079 314.75 298.527 314.956 298.928C315.17 299.32 315.455 299.633 315.81 299.866C316.174 300.09 316.584 300.202 317.042 300.202ZM324.21 301.126C323.725 301.126 323.296 301.037 322.922 300.86C322.549 300.683 322.255 300.44 322.04 300.132C321.835 299.815 321.732 299.451 321.732 299.04C321.732 298.629 321.84 298.275 322.054 297.976C322.269 297.668 322.568 297.43 322.95 297.262C323.333 297.094 323.781 297.01 324.294 297.01C324.686 297.01 325.055 297.052 325.4 297.136C325.755 297.22 326.082 297.355 326.38 297.542V296.604C326.38 296.044 326.231 295.624 325.932 295.344C325.634 295.055 325.195 294.91 324.616 294.91C324.299 294.91 323.972 294.957 323.636 295.05C323.31 295.143 322.946 295.293 322.544 295.498L322.166 294.714C323.081 294.275 323.94 294.056 324.742 294.056C325.592 294.056 326.245 294.266 326.702 294.686C327.16 295.097 327.388 295.689 327.388 296.464V301H326.38V300.202C326.082 300.51 325.75 300.743 325.386 300.902C325.022 301.051 324.63 301.126 324.21 301.126ZM322.712 299.012C322.712 299.413 322.866 299.735 323.174 299.978C323.492 300.221 323.907 300.342 324.42 300.342C324.803 300.342 325.153 300.277 325.47 300.146C325.797 300.015 326.1 299.819 326.38 299.558V298.242C326.091 298.074 325.792 297.953 325.484 297.878C325.176 297.794 324.831 297.752 324.448 297.752C323.926 297.752 323.506 297.869 323.188 298.102C322.871 298.326 322.712 298.629 322.712 299.012ZM329.623 304.066C329.408 304.066 329.189 304.033 328.965 303.968V303.058C329.058 303.077 329.156 303.091 329.259 303.1C329.361 303.109 329.45 303.114 329.525 303.114C329.786 303.114 330.001 303.044 330.169 302.904C330.346 302.764 330.495 302.545 330.617 302.246L331.121 301L328.489 294.168H329.623L331.695 299.782L333.893 294.168H335.027L331.583 302.554C331.433 302.918 331.27 303.212 331.093 303.436C330.915 303.66 330.71 303.819 330.477 303.912C330.243 304.015 329.959 304.066 329.623 304.066Z" fill="#151515"/>
<rect x="464.167" y="281" width="5" height="1" transform="rotate(90 464.167 281)" fill="#C7C7C7"/>
<path d="M429.869 301L427.755 291.2H428.847L430.513 299.306L432.935 291.2H433.985L436.407 299.278L438.087 291.2H439.137L437.023 301H435.931L433.453 292.684L430.961 301H429.869ZM443.301 301.14C442.666 301.14 442.092 300.986 441.579 300.678C441.065 300.361 440.659 299.936 440.361 299.404C440.062 298.863 439.913 298.256 439.913 297.584C439.913 296.912 440.053 296.31 440.333 295.778C440.622 295.246 441.009 294.826 441.495 294.518C441.98 294.21 442.521 294.056 443.119 294.056C443.725 294.056 444.262 294.21 444.729 294.518C445.205 294.817 445.578 295.227 445.849 295.75C446.129 296.263 446.269 296.847 446.269 297.5V297.808H440.907C440.944 298.275 441.07 298.695 441.285 299.068C441.509 299.432 441.798 299.721 442.153 299.936C442.517 300.141 442.913 300.244 443.343 300.244C443.697 300.244 444.038 300.183 444.365 300.062C444.701 299.931 444.985 299.759 445.219 299.544L445.863 300.23C445.471 300.538 445.065 300.767 444.645 300.916C444.225 301.065 443.777 301.14 443.301 301.14ZM440.935 297.08H445.261C445.214 296.669 445.088 296.305 444.883 295.988C444.687 295.661 444.435 295.405 444.127 295.218C443.828 295.031 443.492 294.938 443.119 294.938C442.745 294.938 442.405 295.031 442.097 295.218C441.789 295.395 441.532 295.647 441.327 295.974C441.131 296.291 441 296.66 440.935 297.08ZM450.856 301.098C450.268 301.098 449.736 300.944 449.26 300.636C448.784 300.319 448.406 299.899 448.126 299.376C447.846 298.844 447.706 298.251 447.706 297.598C447.706 296.935 447.846 296.343 448.126 295.82C448.415 295.288 448.802 294.868 449.288 294.56C449.773 294.243 450.314 294.084 450.912 294.084C451.332 294.084 451.724 294.168 452.088 294.336C452.452 294.495 452.769 294.728 453.04 295.036V290.892L454.062 290.682V301H453.04V300.09C452.778 300.417 452.461 300.669 452.088 300.846C451.714 301.014 451.304 301.098 450.856 301.098ZM451.108 300.202C451.509 300.202 451.878 300.123 452.214 299.964C452.55 299.805 452.825 299.581 453.04 299.292V295.904C452.816 295.615 452.531 295.391 452.186 295.232C451.85 295.064 451.49 294.98 451.108 294.98C450.65 294.98 450.24 295.092 449.876 295.316C449.521 295.54 449.236 295.848 449.022 296.24C448.816 296.632 448.714 297.08 448.714 297.584C448.714 298.079 448.816 298.527 449.022 298.928C449.236 299.32 449.521 299.633 449.876 299.866C450.24 300.09 450.65 300.202 451.108 300.202ZM456.162 301V294.168H457.184V295.274C457.445 294.863 457.758 294.56 458.122 294.364C458.486 294.159 458.897 294.056 459.354 294.056C459.849 294.056 460.278 294.163 460.642 294.378C461.015 294.583 461.305 294.877 461.51 295.26C461.725 295.633 461.832 296.072 461.832 296.576V301H460.81V296.87C460.81 296.263 460.642 295.787 460.306 295.442C459.979 295.087 459.536 294.91 458.976 294.91C458.603 294.91 458.262 294.999 457.954 295.176C457.646 295.353 457.389 295.615 457.184 295.96V301H456.162ZM466.967 301.14C466.332 301.14 465.758 300.986 465.245 300.678C464.731 300.361 464.325 299.936 464.027 299.404C463.728 298.863 463.579 298.256 463.579 297.584C463.579 296.912 463.719 296.31 463.999 295.778C464.288 295.246 464.675 294.826 465.161 294.518C465.646 294.21 466.187 294.056 466.785 294.056C467.391 294.056 467.928 294.21 468.395 294.518C468.871 294.817 469.244 295.227 469.515 295.75C469.795 296.263 469.935 296.847 469.935 297.5V297.808H464.573C464.61 298.275 464.736 298.695 464.951 299.068C465.175 299.432 465.464 299.721 465.819 299.936C466.183 300.141 466.579 300.244 467.009 300.244C467.363 300.244 467.704 300.183 468.031 300.062C468.367 299.931 468.651 299.759 468.885 299.544L469.529 300.23C469.137 300.538 468.731 300.767 468.311 300.916C467.891 301.065 467.443 301.14 466.967 301.14ZM464.601 297.08H468.927C468.88 296.669 468.754 296.305 468.549 295.988C468.353 295.661 468.101 295.405 467.793 295.218C467.494 295.031 467.158 294.938 466.785 294.938C466.411 294.938 466.071 295.031 465.763 295.218C465.455 295.395 465.198 295.647 464.993 295.974C464.797 296.291 464.666 296.66 464.601 297.08ZM473.862 301.14C473.302 301.14 472.784 301.056 472.308 300.888C471.832 300.711 471.426 300.459 471.09 300.132L471.636 299.46C472.047 299.759 472.425 299.978 472.77 300.118C473.115 300.249 473.47 300.314 473.834 300.314C474.329 300.314 474.739 300.197 475.066 299.964C475.393 299.731 475.556 299.432 475.556 299.068C475.556 298.788 475.458 298.569 475.262 298.41C475.075 298.251 474.763 298.13 474.324 298.046L473.204 297.85C472.541 297.729 472.051 297.523 471.734 297.234C471.426 296.945 471.272 296.553 471.272 296.058C471.272 295.666 471.375 295.321 471.58 295.022C471.795 294.723 472.089 294.49 472.462 294.322C472.835 294.145 473.26 294.056 473.736 294.056C474.203 294.056 474.646 294.126 475.066 294.266C475.486 294.397 475.911 294.611 476.34 294.91L475.836 295.624C475.481 295.372 475.127 295.19 474.772 295.078C474.417 294.957 474.058 294.896 473.694 294.896C473.246 294.896 472.887 294.994 472.616 295.19C472.345 295.386 472.21 295.652 472.21 295.988C472.21 296.268 472.294 296.483 472.462 296.632C472.639 296.781 472.947 296.893 473.386 296.968L474.534 297.178C475.225 297.299 475.729 297.509 476.046 297.808C476.363 298.107 476.522 298.508 476.522 299.012C476.522 299.413 476.405 299.777 476.172 300.104C475.939 300.421 475.621 300.673 475.22 300.86C474.819 301.047 474.366 301.14 473.862 301.14ZM480.988 301.098C480.4 301.098 479.868 300.944 479.392 300.636C478.916 300.319 478.538 299.899 478.258 299.376C477.978 298.844 477.838 298.251 477.838 297.598C477.838 296.935 477.978 296.343 478.258 295.82C478.548 295.288 478.935 294.868 479.42 294.56C479.906 294.243 480.447 294.084 481.044 294.084C481.464 294.084 481.856 294.168 482.22 294.336C482.584 294.495 482.902 294.728 483.172 295.036V290.892L484.194 290.682V301H483.172V300.09C482.911 300.417 482.594 300.669 482.22 300.846C481.847 301.014 481.436 301.098 480.988 301.098ZM481.24 300.202C481.642 300.202 482.01 300.123 482.346 299.964C482.682 299.805 482.958 299.581 483.172 299.292V295.904C482.948 295.615 482.664 295.391 482.318 295.232C481.982 295.064 481.623 294.98 481.24 294.98C480.783 294.98 480.372 295.092 480.008 295.316C479.654 295.54 479.369 295.848 479.154 296.24C478.949 296.632 478.846 297.08 478.846 297.584C478.846 298.079 478.949 298.527 479.154 298.928C479.369 299.32 479.654 299.633 480.008 299.866C480.372 300.09 480.783 300.202 481.24 300.202ZM488.409 301.126C487.923 301.126 487.494 301.037 487.121 300.86C486.747 300.683 486.453 300.44 486.239 300.132C486.033 299.815 485.931 299.451 485.931 299.04C485.931 298.629 486.038 298.275 486.253 297.976C486.467 297.668 486.766 297.43 487.149 297.262C487.531 297.094 487.979 297.01 488.493 297.01C488.885 297.01 489.253 297.052 489.599 297.136C489.953 297.22 490.28 297.355 490.579 297.542V296.604C490.579 296.044 490.429 295.624 490.131 295.344C489.832 295.055 489.393 294.91 488.815 294.91C488.497 294.91 488.171 294.957 487.835 295.05C487.508 295.143 487.144 295.293 486.743 295.498L486.365 294.714C487.279 294.275 488.138 294.056 488.941 294.056C489.79 294.056 490.443 294.266 490.901 294.686C491.358 295.097 491.587 295.689 491.587 296.464V301H490.579V300.202C490.28 300.51 489.949 300.743 489.585 300.902C489.221 301.051 488.829 301.126 488.409 301.126ZM486.911 299.012C486.911 299.413 487.065 299.735 487.373 299.978C487.69 300.221 488.105 300.342 488.619 300.342C489.001 300.342 489.351 300.277 489.669 300.146C489.995 300.015 490.299 299.819 490.579 299.558V298.242C490.289 298.074 489.991 297.953 489.683 297.878C489.375 297.794 489.029 297.752 488.647 297.752C488.124 297.752 487.704 297.869 487.387 298.102C487.069 298.326 486.911 298.629 486.911 299.012ZM493.821 304.066C493.607 304.066 493.387 304.033 493.163 303.968V303.058C493.257 303.077 493.355 303.091 493.457 303.1C493.56 303.109 493.649 303.114 493.723 303.114C493.985 303.114 494.199 303.044 494.367 302.904C494.545 302.764 494.694 302.545 494.815 302.246L495.319 301L492.687 294.168H493.821L495.893 299.782L498.091 294.168H499.225L495.781 302.554C495.632 302.918 495.469 303.212 495.291 303.436C495.114 303.66 494.909 303.819 494.675 303.912C494.442 304.015 494.157 304.066 493.821 304.066Z" fill="#151515"/>
<rect x="640.5" y="281" width="5" height="1" transform="rotate(90 640.5 281)" fill="#C7C7C7"/>
<path d="M614.78 301V292.152H611.392V291.2H619.246V292.152H615.858V301H614.78ZM620.691 301V290.892L621.713 290.682V295.274C621.974 294.863 622.287 294.56 622.651 294.364C623.015 294.159 623.425 294.056 623.883 294.056C624.377 294.056 624.807 294.163 625.171 294.378C625.544 294.583 625.833 294.877 626.039 295.26C626.253 295.633 626.361 296.072 626.361 296.576V301H625.339V296.87C625.339 296.263 625.171 295.787 624.835 295.442C624.508 295.087 624.065 294.91 623.505 294.91C623.131 294.91 622.791 294.999 622.483 295.176C622.175 295.353 621.918 295.615 621.713 295.96V301H620.691ZM630.783 301.112C630.298 301.112 629.868 301.005 629.495 300.79C629.122 300.575 628.828 300.277 628.613 299.894C628.408 299.511 628.305 299.073 628.305 298.578V294.168H629.341V298.284C629.341 298.891 629.504 299.371 629.831 299.726C630.158 300.081 630.601 300.258 631.161 300.258C631.544 300.258 631.884 300.169 632.183 299.992C632.491 299.815 632.748 299.558 632.953 299.222V294.168H633.975V301H632.953V299.894C632.692 300.295 632.379 300.599 632.015 300.804C631.66 301.009 631.25 301.112 630.783 301.112ZM636.071 301V294.168H637.093V295.568C637.271 295.092 637.523 294.723 637.849 294.462C638.185 294.191 638.568 294.056 638.997 294.056C639.119 294.056 639.231 294.065 639.333 294.084C639.436 294.093 639.539 294.117 639.641 294.154V295.078C639.529 295.041 639.408 295.013 639.277 294.994C639.156 294.966 639.039 294.952 638.927 294.952C638.507 294.952 638.139 295.073 637.821 295.316C637.513 295.559 637.271 295.899 637.093 296.338V301H636.071ZM643.039 301.14C642.479 301.14 641.961 301.056 641.485 300.888C641.009 300.711 640.603 300.459 640.267 300.132L640.813 299.46C641.224 299.759 641.602 299.978 641.947 300.118C642.292 300.249 642.647 300.314 643.011 300.314C643.506 300.314 643.916 300.197 644.243 299.964C644.57 299.731 644.733 299.432 644.733 299.068C644.733 298.788 644.635 298.569 644.439 298.41C644.252 298.251 643.94 298.13 643.501 298.046L642.381 297.85C641.718 297.729 641.228 297.523 640.911 297.234C640.603 296.945 640.449 296.553 640.449 296.058C640.449 295.666 640.552 295.321 640.757 295.022C640.972 294.723 641.266 294.49 641.639 294.322C642.012 294.145 642.437 294.056 642.913 294.056C643.38 294.056 643.823 294.126 644.243 294.266C644.663 294.397 645.088 294.611 645.517 294.91L645.013 295.624C644.658 295.372 644.304 295.19 643.949 295.078C643.594 294.957 643.235 294.896 642.871 294.896C642.423 294.896 642.064 294.994 641.793 295.19C641.522 295.386 641.387 295.652 641.387 295.988C641.387 296.268 641.471 296.483 641.639 296.632C641.816 296.781 642.124 296.893 642.563 296.968L643.711 297.178C644.402 297.299 644.906 297.509 645.223 297.808C645.54 298.107 645.699 298.508 645.699 299.012C645.699 299.413 645.582 299.777 645.349 300.104C645.116 300.421 644.798 300.673 644.397 300.86C643.996 301.047 643.543 301.14 643.039 301.14ZM650.165 301.098C649.577 301.098 649.045 300.944 648.569 300.636C648.093 300.319 647.715 299.899 647.435 299.376C647.155 298.844 647.015 298.251 647.015 297.598C647.015 296.935 647.155 296.343 647.435 295.82C647.725 295.288 648.112 294.868 648.597 294.56C649.083 294.243 649.624 294.084 650.221 294.084C650.641 294.084 651.033 294.168 651.397 294.336C651.761 294.495 652.079 294.728 652.349 295.036V290.892L653.371 290.682V301H652.349V300.09C652.088 300.417 651.771 300.669 651.397 300.846C651.024 301.014 650.613 301.098 650.165 301.098ZM650.417 300.202C650.819 300.202 651.187 300.123 651.523 299.964C651.859 299.805 652.135 299.581 652.349 299.292V295.904C652.125 295.615 651.841 295.391 651.495 295.232C651.159 295.064 650.8 294.98 650.417 294.98C649.96 294.98 649.549 295.092 649.185 295.316C648.831 295.54 648.546 295.848 648.331 296.24C648.126 296.632 648.023 297.08 648.023 297.584C648.023 298.079 648.126 298.527 648.331 298.928C648.546 299.32 648.831 299.633 649.185 299.866C649.549 300.09 649.96 300.202 650.417 300.202ZM657.586 301.126C657.101 301.126 656.671 301.037 656.298 300.86C655.925 300.683 655.631 300.44 655.416 300.132C655.211 299.815 655.108 299.451 655.108 299.04C655.108 298.629 655.215 298.275 655.43 297.976C655.645 297.668 655.943 297.43 656.326 297.262C656.709 297.094 657.157 297.01 657.67 297.01C658.062 297.01 658.431 297.052 658.776 297.136C659.131 297.22 659.457 297.355 659.756 297.542V296.604C659.756 296.044 659.607 295.624 659.308 295.344C659.009 295.055 658.571 294.91 657.992 294.91C657.675 294.91 657.348 294.957 657.012 295.05C656.685 295.143 656.321 295.293 655.92 295.498L655.542 294.714C656.457 294.275 657.315 294.056 658.118 294.056C658.967 294.056 659.621 294.266 660.078 294.686C660.535 295.097 660.764 295.689 660.764 296.464V301H659.756V300.202C659.457 300.51 659.126 300.743 658.762 300.902C658.398 301.051 658.006 301.126 657.586 301.126ZM656.088 299.012C656.088 299.413 656.242 299.735 656.55 299.978C656.867 300.221 657.283 300.342 657.796 300.342C658.179 300.342 658.529 300.277 658.846 300.146C659.173 300.015 659.476 299.819 659.756 299.558V298.242C659.467 298.074 659.168 297.953 658.86 297.878C658.552 297.794 658.207 297.752 657.824 297.752C657.301 297.752 656.881 297.869 656.564 298.102C656.247 298.326 656.088 298.629 656.088 299.012ZM662.998 304.066C662.784 304.066 662.564 304.033 662.34 303.968V303.058C662.434 303.077 662.532 303.091 662.634 303.1C662.737 303.109 662.826 303.114 662.9 303.114C663.162 303.114 663.376 303.044 663.544 302.904C663.722 302.764 663.871 302.545 663.992 302.246L664.496 301L661.864 294.168H662.998L665.07 299.782L667.268 294.168H668.402L664.958 302.554C664.809 302.918 664.646 303.212 664.468 303.436C664.291 303.66 664.086 303.819 663.852 303.912C663.619 304.015 663.334 304.066 662.998 304.066Z" fill="#151515"/>
</g>
<path d="M351.992 349.172H353.912C354.52 349.172 355.064 349.024 355.544 348.728C356.024 348.432 356.404 348.032 356.684 347.528C356.972 347.016 357.116 346.44 357.116 345.8C357.116 345.16 356.972 344.588 356.684 344.084C356.404 343.572 356.024 343.168 355.544 342.872C355.064 342.576 354.52 342.428 353.912 342.428H351.992V349.172ZM351.068 350V341.6H353.852C354.468 341.6 355.032 341.708 355.544 341.924C356.064 342.132 356.508 342.428 356.876 342.812C357.252 343.188 357.54 343.632 357.74 344.144C357.948 344.648 358.052 345.2 358.052 345.8C358.052 346.4 357.948 346.956 357.74 347.468C357.54 347.972 357.252 348.416 356.876 348.8C356.508 349.176 356.064 349.472 355.544 349.688C355.032 349.896 354.468 350 353.852 350H351.068ZM361.325 350.108C360.909 350.108 360.541 350.032 360.221 349.88C359.901 349.728 359.649 349.52 359.465 349.256C359.289 348.984 359.201 348.672 359.201 348.32C359.201 347.968 359.293 347.664 359.477 347.408C359.661 347.144 359.917 346.94 360.245 346.796C360.573 346.652 360.957 346.58 361.397 346.58C361.733 346.58 362.049 346.616 362.345 346.688C362.649 346.76 362.929 346.876 363.185 347.036V346.232C363.185 345.752 363.057 345.392 362.801 345.152C362.545 344.904 362.169 344.78 361.673 344.78C361.401 344.78 361.121 344.82 360.833 344.9C360.553 344.98 360.241 345.108 359.897 345.284L359.573 344.612C360.357 344.236 361.093 344.048 361.781 344.048C362.509 344.048 363.069 344.228 363.461 344.588C363.853 344.94 364.049 345.448 364.049 346.112V350H363.185V349.316C362.929 349.58 362.645 349.78 362.333 349.916C362.021 350.044 361.685 350.108 361.325 350.108ZM360.041 348.296C360.041 348.64 360.173 348.916 360.437 349.124C360.709 349.332 361.065 349.436 361.505 349.436C361.833 349.436 362.133 349.38 362.405 349.268C362.685 349.156 362.945 348.988 363.185 348.764V347.636C362.937 347.492 362.681 347.388 362.417 347.324C362.153 347.252 361.857 347.216 361.529 347.216C361.081 347.216 360.721 347.316 360.449 347.516C360.177 347.708 360.041 347.968 360.041 348.296ZM365.965 352.628C365.781 352.628 365.593 352.6 365.401 352.544V351.764C365.481 351.78 365.565 351.792 365.653 351.8C365.741 351.808 365.817 351.812 365.881 351.812C366.105 351.812 366.289 351.752 366.433 351.632C366.585 351.512 366.713 351.324 366.817 351.068L367.249 350L364.993 344.144H365.965L367.741 348.956L369.625 344.144H370.597L367.645 351.332C367.517 351.644 367.377 351.896 367.225 352.088C367.073 352.28 366.897 352.416 366.697 352.496C366.497 352.584 366.252 352.628 365.965 352.628ZM377.082 350.096C376.538 350.096 376.05 349.964 375.618 349.7C375.186 349.436 374.846 349.076 374.598 348.62C374.35 348.164 374.226 347.648 374.226 347.072C374.226 346.496 374.35 345.98 374.598 345.524C374.846 345.068 375.186 344.708 375.618 344.444C376.05 344.18 376.538 344.048 377.082 344.048C377.618 344.048 378.098 344.18 378.522 344.444C378.954 344.708 379.294 345.068 379.542 345.524C379.79 345.98 379.914 346.496 379.914 347.072C379.914 347.648 379.79 348.164 379.542 348.62C379.294 349.076 378.954 349.436 378.522 349.7C378.098 349.964 377.618 350.096 377.082 350.096ZM377.07 349.328C377.454 349.328 377.794 349.232 378.09 349.04C378.386 348.84 378.618 348.568 378.786 348.224C378.962 347.88 379.05 347.496 379.05 347.072C379.05 346.64 378.962 346.256 378.786 345.92C378.618 345.576 378.386 345.308 378.09 345.116C377.794 344.916 377.454 344.816 377.07 344.816C376.686 344.816 376.346 344.916 376.05 345.116C375.754 345.308 375.518 345.576 375.342 345.92C375.174 346.256 375.09 346.64 375.09 347.072C375.09 347.496 375.174 347.88 375.342 348.224C375.518 348.568 375.754 348.84 376.05 349.04C376.346 349.232 376.686 349.328 377.07 349.328ZM381.832 350V344.864H380.524V344.144H381.832V342.92C381.832 342.344 381.984 341.9 382.288 341.588C382.592 341.276 383.024 341.12 383.584 341.12C383.744 341.12 383.888 341.128 384.016 341.144C384.152 341.16 384.272 341.188 384.376 341.228V342.02C384.248 341.98 384.132 341.952 384.028 341.936C383.924 341.92 383.804 341.912 383.668 341.912C383.332 341.912 383.088 341.996 382.936 342.164C382.784 342.324 382.708 342.58 382.708 342.932V344.144H384.376V344.864H382.708V350H381.832ZM389.374 350L387.766 344.144H388.618L389.842 348.824L391.246 344.144H392.026L393.43 348.824L394.642 344.144H395.47L393.874 350H393.022L391.63 345.272L390.238 350H389.374ZM399.231 350.12C398.687 350.12 398.195 349.988 397.755 349.724C397.315 349.452 396.967 349.088 396.711 348.632C396.455 348.168 396.327 347.648 396.327 347.072C396.327 346.496 396.447 345.98 396.687 345.524C396.935 345.068 397.267 344.708 397.683 344.444C398.099 344.18 398.563 344.048 399.075 344.048C399.595 344.048 400.055 344.18 400.455 344.444C400.863 344.7 401.183 345.052 401.415 345.5C401.655 345.94 401.775 346.44 401.775 347V347.264H397.179C397.211 347.664 397.319 348.024 397.503 348.344C397.695 348.656 397.943 348.904 398.247 349.088C398.559 349.264 398.899 349.352 399.267 349.352C399.571 349.352 399.863 349.3 400.143 349.196C400.431 349.084 400.675 348.936 400.875 348.752L401.427 349.34C401.091 349.604 400.743 349.8 400.383 349.928C400.023 350.056 399.639 350.12 399.231 350.12ZM397.203 346.64H400.911C400.871 346.288 400.763 345.976 400.587 345.704C400.419 345.424 400.203 345.204 399.939 345.044C399.683 344.884 399.395 344.804 399.075 344.804C398.755 344.804 398.463 344.884 398.199 345.044C397.935 345.196 397.715 345.412 397.539 345.692C397.371 345.964 397.259 346.28 397.203 346.64ZM405.911 350.12C405.367 350.12 404.875 349.988 404.435 349.724C403.995 349.452 403.647 349.088 403.391 348.632C403.135 348.168 403.007 347.648 403.007 347.072C403.007 346.496 403.127 345.98 403.367 345.524C403.615 345.068 403.947 344.708 404.363 344.444C404.779 344.18 405.243 344.048 405.755 344.048C406.275 344.048 406.735 344.18 407.135 344.444C407.543 344.7 407.863 345.052 408.095 345.5C408.335 345.94 408.455 346.44 408.455 347V347.264H403.859C403.891 347.664 403.999 348.024 404.183 348.344C404.375 348.656 404.623 348.904 404.927 349.088C405.239 349.264 405.579 349.352 405.947 349.352C406.251 349.352 406.543 349.3 406.823 349.196C407.111 349.084 407.355 348.936 407.555 348.752L408.107 349.34C407.771 349.604 407.423 349.8 407.063 349.928C406.703 350.056 406.319 350.12 405.911 350.12ZM403.883 346.64H407.591C407.551 346.288 407.443 345.976 407.267 345.704C407.099 345.424 406.883 345.204 406.619 345.044C406.363 344.884 406.075 344.804 405.755 344.804C405.435 344.804 405.143 344.884 404.879 345.044C404.615 345.196 404.395 345.412 404.219 345.692C404.051 345.964 403.939 346.28 403.883 346.64ZM409.951 350V341.336L410.827 341.156V346.772L413.611 344.144H414.667L411.691 346.928L414.799 350H413.647L410.827 347.204V350H409.951Z" fill="black"/>
<path d="M41.132 187.14C41.132 187.724 41.024 188.268 40.808 188.772C40.584 189.276 40.276 189.72 39.884 190.104C39.484 190.48 39.024 190.776 38.504 190.992C37.976 191.208 37.408 191.316 36.8 191.316C36.192 191.316 35.628 191.208 35.108 190.992C34.58 190.776 34.12 190.48 33.728 190.104C33.328 189.72 33.02 189.276 32.804 188.772C32.58 188.268 32.468 187.724 32.468 187.14C32.468 186.556 32.58 186.012 32.804 185.508C33.02 185.004 33.328 184.564 33.728 184.188C34.12 183.804 34.58 183.504 35.108 183.288C35.628 183.072 36.192 182.964 36.8 182.964C37.408 182.964 37.976 183.072 38.504 183.288C39.024 183.504 39.484 183.804 39.884 184.188C40.276 184.564 40.584 185.004 40.808 185.508C41.024 186.012 41.132 186.556 41.132 187.14ZM40.292 187.14C40.292 186.684 40.204 186.26 40.028 185.868C39.852 185.476 39.604 185.132 39.284 184.836C38.964 184.54 38.592 184.312 38.168 184.152C37.744 183.984 37.288 183.9 36.8 183.9C36.304 183.9 35.848 183.984 35.432 184.152C35.008 184.312 34.636 184.54 34.316 184.836C33.996 185.132 33.748 185.476 33.572 185.868C33.396 186.26 33.308 186.684 33.308 187.14C33.308 187.596 33.396 188.02 33.572 188.412C33.748 188.804 33.996 189.148 34.316 189.444C34.636 189.74 35.008 189.972 35.432 190.14C35.848 190.3 36.3 190.38 36.788 190.38C37.284 190.38 37.744 190.3 38.168 190.14C38.592 189.972 38.964 189.74 39.284 189.444C39.604 189.148 39.852 188.804 40.028 188.412C40.204 188.02 40.292 187.596 40.292 187.14ZM41.096 178.757C41.096 179.301 40.964 179.793 40.7 180.233C40.428 180.665 40.064 181.009 39.608 181.265C39.144 181.521 38.632 181.649 38.072 181.649C37.504 181.649 36.992 181.521 36.536 181.265C36.08 181.009 35.72 180.665 35.456 180.233C35.184 179.793 35.048 179.301 35.048 178.757C35.048 178.325 35.128 177.913 35.288 177.521C35.448 177.129 35.672 176.789 35.96 176.501L36.572 177.065C36.34 177.273 36.16 177.525 36.032 177.821C35.904 178.117 35.84 178.417 35.84 178.721C35.84 179.105 35.94 179.453 36.14 179.765C36.34 180.069 36.608 180.313 36.944 180.497C37.28 180.681 37.656 180.773 38.072 180.773C38.488 180.773 38.864 180.681 39.2 180.497C39.536 180.313 39.804 180.069 40.004 179.765C40.204 179.453 40.304 179.105 40.304 178.721C40.304 178.417 40.24 178.117 40.112 177.821C39.976 177.525 39.796 177.273 39.572 177.065L40.184 176.501C40.472 176.789 40.696 177.129 40.856 177.521C41.016 177.913 41.096 178.325 41.096 178.757ZM41.096 172.827C41.096 173.371 40.964 173.863 40.7 174.303C40.428 174.735 40.064 175.079 39.608 175.335C39.144 175.591 38.632 175.719 38.072 175.719C37.504 175.719 36.992 175.591 36.536 175.335C36.08 175.079 35.72 174.735 35.456 174.303C35.184 173.863 35.048 173.371 35.048 172.827C35.048 172.395 35.128 171.983 35.288 171.591C35.448 171.199 35.672 170.859 35.96 170.571L36.572 171.135C36.34 171.343 36.16 171.595 36.032 171.891C35.904 172.187 35.84 172.487 35.84 172.791C35.84 173.175 35.94 173.523 36.14 173.835C36.34 174.139 36.608 174.383 36.944 174.567C37.28 174.751 37.656 174.843 38.072 174.843C38.488 174.843 38.864 174.751 39.2 174.567C39.536 174.383 39.804 174.139 40.004 173.835C40.204 173.523 40.304 173.175 40.304 172.791C40.304 172.487 40.24 172.187 40.112 171.891C39.976 171.595 39.796 171.343 39.572 171.135L40.184 170.571C40.472 170.859 40.696 171.199 40.856 171.591C41.016 171.983 41.096 172.395 41.096 172.827ZM41.096 167.262C41.096 167.678 41.004 168.046 40.82 168.366C40.636 168.686 40.38 168.938 40.052 169.122C39.724 169.298 39.348 169.386 38.924 169.386L35.144 169.386L35.144 168.498L38.672 168.498C39.192 168.498 39.604 168.358 39.908 168.078C40.212 167.798 40.364 167.418 40.364 166.938C40.364 166.61 40.288 166.318 40.136 166.062C39.984 165.798 39.764 165.578 39.476 165.402L35.144 165.402L35.144 164.526L41 164.526L41 165.402L40.052 165.402C40.396 165.626 40.656 165.894 40.832 166.206C41.008 166.51 41.096 166.862 41.096 167.262ZM41 162.729L35.144 162.729L35.144 161.853L36.344 161.853C35.936 161.701 35.62 161.485 35.396 161.205C35.164 160.917 35.048 160.589 35.048 160.221C35.048 160.117 35.056 160.021 35.072 159.933C35.08 159.845 35.1 159.757 35.132 159.669L35.924 159.669C35.892 159.765 35.868 159.869 35.852 159.981C35.828 160.085 35.816 160.185 35.816 160.281C35.816 160.641 35.92 160.957 36.128 161.229C36.336 161.493 36.628 161.701 37.004 161.853L41 161.853L41 162.729ZM41 158.51L35.144 158.51L35.144 157.634L36.344 157.634C35.936 157.482 35.62 157.266 35.396 156.986C35.164 156.698 35.048 156.37 35.048 156.002C35.048 155.898 35.056 155.802 35.072 155.714C35.08 155.626 35.1 155.538 35.132 155.45L35.924 155.45C35.892 155.546 35.868 155.65 35.852 155.762C35.828 155.866 35.816 155.966 35.816 156.062C35.816 156.422 35.92 156.738 36.128 157.01C36.336 157.274 36.628 157.482 37.004 157.634L41 157.634L41 158.51ZM41.12 152.015C41.12 152.559 40.988 153.051 40.724 153.491C40.452 153.931 40.088 154.279 39.632 154.535C39.168 154.791 38.648 154.919 38.072 154.919C37.496 154.919 36.98 154.799 36.524 154.559C36.068 154.311 35.708 153.979 35.444 153.563C35.18 153.147 35.048 152.683 35.048 152.171C35.048 151.651 35.18 151.191 35.444 150.791C35.7 150.383 36.052 150.063 36.5 149.831C36.94 149.591 37.44 149.471 38 149.471L38.264 149.471L38.264 154.067C38.664 154.035 39.024 153.927 39.344 153.743C39.656 153.551 39.904 153.303 40.088 152.999C40.264 152.687 40.352 152.347 40.352 151.979C40.352 151.675 40.3 151.383 40.196 151.103C40.084 150.815 39.936 150.571 39.752 150.371L40.34 149.819C40.604 150.155 40.8 150.503 40.928 150.863C41.056 151.223 41.12 151.607 41.12 152.015ZM37.64 154.043L37.64 150.335C37.288 150.375 36.976 150.483 36.704 150.659C36.424 150.827 36.204 151.043 36.044 151.307C35.884 151.563 35.804 151.851 35.804 152.171C35.804 152.491 35.884 152.783 36.044 153.047C36.196 153.311 36.412 153.531 36.692 153.707C36.964 153.875 37.28 153.987 37.64 154.043ZM41 147.975L35.144 147.975L35.144 147.099L36.092 147.099C35.74 146.875 35.48 146.607 35.312 146.295C35.136 145.983 35.048 145.631 35.048 145.239C35.048 144.815 35.14 144.447 35.324 144.135C35.5 143.815 35.752 143.567 36.08 143.391C36.4 143.207 36.776 143.115 37.208 143.115L41 143.115L41 143.991L37.46 143.991C36.94 143.991 36.532 144.135 36.236 144.423C35.932 144.703 35.78 145.083 35.78 145.563C35.78 145.883 35.856 146.175 36.008 146.439C36.16 146.703 36.384 146.923 36.68 147.099L41 147.099L41 147.975ZM41.096 138.726C41.096 139.27 40.964 139.762 40.7 140.202C40.428 140.634 40.064 140.978 39.608 141.234C39.144 141.49 38.632 141.618 38.072 141.618C37.504 141.618 36.992 141.49 36.536 141.234C36.08 140.978 35.72 140.634 35.456 140.202C35.184 139.762 35.048 139.27 35.048 138.726C35.048 138.294 35.128 137.882 35.288 137.49C35.448 137.098 35.672 136.758 35.96 136.47L36.572 137.034C36.34 137.242 36.16 137.494 36.032 137.79C35.904 138.086 35.84 138.386 35.84 138.69C35.84 139.074 35.94 139.422 36.14 139.734C36.34 140.038 36.608 140.282 36.944 140.466C37.28 140.65 37.656 140.742 38.072 140.742C38.488 140.742 38.864 140.65 39.2 140.466C39.536 140.282 39.804 140.038 40.004 139.734C40.204 139.422 40.304 139.074 40.304 138.69C40.304 138.386 40.24 138.086 40.112 137.79C39.976 137.494 39.796 137.242 39.572 137.034L40.184 136.47C40.472 136.758 40.696 137.098 40.856 137.49C41.016 137.882 41.096 138.294 41.096 138.726ZM41.12 132.784C41.12 133.328 40.988 133.82 40.724 134.26C40.452 134.7 40.088 135.048 39.632 135.304C39.168 135.56 38.648 135.688 38.072 135.688C37.496 135.688 36.98 135.568 36.524 135.328C36.068 135.08 35.708 134.748 35.444 134.332C35.18 133.916 35.048 133.452 35.048 132.94C35.048 132.42 35.18 131.96 35.444 131.56C35.7 131.152 36.052 130.832 36.5 130.6C36.94 130.36 37.44 130.24 38 130.24L38.264 130.24L38.264 134.836C38.664 134.804 39.024 134.696 39.344 134.512C39.656 134.32 39.904 134.072 40.088 133.768C40.264 133.456 40.352 133.116 40.352 132.748C40.352 132.444 40.3 132.152 40.196 131.872C40.084 131.584 39.936 131.34 39.752 131.14L40.34 130.588C40.604 130.924 40.8 131.272 40.928 131.632C41.056 131.992 41.12 132.376 41.12 132.784ZM37.64 134.812L37.64 131.104C37.288 131.144 36.976 131.252 36.704 131.428C36.424 131.596 36.204 131.812 36.044 132.076C35.884 132.332 35.804 132.62 35.804 132.94C35.804 133.26 35.884 133.552 36.044 133.816C36.196 134.08 36.412 134.3 36.692 134.476C36.964 134.644 37.28 134.756 37.64 134.812ZM41.12 126.874C41.12 127.354 41.048 127.798 40.904 128.206C40.752 128.614 40.536 128.962 40.256 129.25L39.68 128.782C39.936 128.43 40.124 128.106 40.244 127.81C40.356 127.514 40.412 127.21 40.412 126.898C40.412 126.474 40.312 126.122 40.112 125.842C39.912 125.562 39.656 125.422 39.344 125.422C39.104 125.422 38.916 125.506 38.78 125.674C38.644 125.834 38.54 126.102 38.468 126.478L38.3 127.438C38.196 128.006 38.02 128.426 37.772 128.698C37.524 128.962 37.188 129.094 36.764 129.094C36.428 129.094 36.132 129.006 35.876 128.83C35.62 128.646 35.42 128.394 35.276 128.074C35.124 127.754 35.048 127.39 35.048 126.982C35.048 126.582 35.108 126.202 35.228 125.842C35.34 125.482 35.524 125.118 35.78 124.75L36.392 125.182C36.176 125.486 36.02 125.79 35.924 126.094C35.82 126.398 35.768 126.706 35.768 127.018C35.768 127.402 35.852 127.71 36.02 127.942C36.188 128.174 36.416 128.29 36.704 128.29C36.944 128.29 37.128 128.218 37.256 128.074C37.384 127.922 37.48 127.658 37.544 127.282L37.724 126.298C37.828 125.706 38.008 125.274 38.264 125.002C38.52 124.73 38.864 124.594 39.296 124.594C39.64 124.594 39.952 124.694 40.232 124.894C40.504 125.094 40.72 125.366 40.88 125.71C41.04 126.054 41.12 126.442 41.12 126.874Z" fill="black"/>
<defs>
<clipPath id="clip0_514_9929">
<rect width="573" height="26" fill="white" transform="translate(96 281)"/>
</clipPath>
</defs>
</svg>
