<svg width="696" height="341" viewBox="0 0 696 341" fill="none" xmlns="http://www.w3.org/2000/svg">
<rect width="696" height="341" fill="white"/>
<path d="M51.836 55V47.536L50.492 48.136V47.344L52.16 46.6H52.7V55H51.836ZM57.6397 55.132C56.9997 55.132 56.4317 54.948 55.9357 54.58C55.4477 54.212 55.0637 53.704 54.7837 53.056C54.5037 52.4 54.3637 51.648 54.3637 50.8C54.3637 49.944 54.5037 49.192 54.7837 48.544C55.0637 47.896 55.4477 47.388 55.9357 47.02C56.4317 46.652 56.9997 46.468 57.6397 46.468C58.2797 46.468 58.8437 46.652 59.3317 47.02C59.8277 47.388 60.2157 47.896 60.4957 48.544C60.7757 49.192 60.9157 49.944 60.9157 50.8C60.9157 51.648 60.7757 52.4 60.4957 53.056C60.2157 53.704 59.8277 54.212 59.3317 54.58C58.8437 54.948 58.2797 55.132 57.6397 55.132ZM57.6397 54.352C58.1277 54.352 58.5477 54.208 58.8997 53.92C59.2597 53.624 59.5397 53.212 59.7397 52.684C59.9397 52.148 60.0397 51.52 60.0397 50.8C60.0397 50.08 59.9397 49.456 59.7397 48.928C59.5397 48.392 59.2597 47.98 58.8997 47.692C58.5477 47.396 58.1277 47.248 57.6397 47.248C57.1597 47.248 56.7397 47.396 56.3797 47.692C56.0197 47.98 55.7397 48.392 55.5397 48.928C55.3397 49.456 55.2397 50.08 55.2397 50.8C55.2397 51.52 55.3397 52.148 55.5397 52.684C55.7397 53.212 56.0197 53.624 56.3797 53.92C56.7397 54.208 57.1597 54.352 57.6397 54.352Z" fill="#151515"/>
<rect x="66" y="50.5" width="5" height="1" fill="#C7C7C7"/>
<path d="M57.456 69.168C58.104 69.168 58.672 69.34 59.16 69.684C59.656 70.028 60.044 70.504 60.324 71.112C60.604 71.712 60.744 72.408 60.744 73.2C60.744 74.128 60.588 74.94 60.276 75.636C59.964 76.324 59.524 76.86 58.956 77.244C58.396 77.628 57.736 77.82 56.976 77.82C56.632 77.82 56.284 77.772 55.932 77.676C55.588 77.572 55.28 77.432 55.008 77.256L55.44 76.584C55.688 76.728 55.948 76.84 56.22 76.92C56.5 77 56.776 77.04 57.048 77.04C57.624 77.04 58.12 76.892 58.536 76.596C58.96 76.292 59.288 75.86 59.52 75.3C59.752 74.732 59.872 74.06 59.88 73.284C59.568 73.684 59.196 73.996 58.764 74.22C58.332 74.444 57.884 74.556 57.42 74.556C56.876 74.556 56.392 74.444 55.968 74.22C55.544 73.988 55.212 73.676 54.972 73.284C54.732 72.892 54.612 72.444 54.612 71.94C54.612 71.404 54.736 70.928 54.984 70.512C55.232 70.096 55.568 69.768 55.992 69.528C56.424 69.288 56.912 69.168 57.456 69.168ZM57.54 73.848C57.98 73.848 58.4 73.74 58.8 73.524C59.208 73.3 59.56 72.996 59.856 72.612C59.8 72.068 59.664 71.596 59.448 71.196C59.232 70.796 58.956 70.484 58.62 70.26C58.284 70.036 57.9 69.924 57.468 69.924C57.084 69.924 56.74 70.012 56.436 70.188C56.14 70.356 55.904 70.592 55.728 70.896C55.56 71.192 55.476 71.532 55.476 71.916C55.476 72.292 55.564 72.628 55.74 72.924C55.916 73.212 56.156 73.44 56.46 73.608C56.772 73.768 57.132 73.848 57.54 73.848Z" fill="#151515"/>
<rect x="66" y="73.2" width="5" height="1" fill="#C7C7C7"/>
<path d="M57.684 100.532C57.108 100.532 56.596 100.428 56.148 100.22C55.7 100.012 55.344 99.728 55.08 99.368C54.824 99 54.696 98.588 54.696 98.132C54.696 97.788 54.78 97.472 54.948 97.184C55.116 96.888 55.348 96.636 55.644 96.428C55.948 96.212 56.292 96.06 56.676 95.972C56.188 95.836 55.788 95.592 55.476 95.24C55.172 94.888 55.02 94.492 55.02 94.052C55.02 93.636 55.136 93.264 55.368 92.936C55.6 92.608 55.916 92.348 56.316 92.156C56.724 91.964 57.18 91.868 57.684 91.868C58.196 91.868 58.652 91.964 59.052 92.156C59.452 92.348 59.768 92.608 60 92.936C60.232 93.264 60.348 93.636 60.348 94.052C60.348 94.492 60.196 94.888 59.892 95.24C59.588 95.592 59.188 95.836 58.692 95.972C59.276 96.108 59.752 96.376 60.12 96.776C60.488 97.168 60.672 97.62 60.672 98.132C60.672 98.588 60.544 99 60.288 99.368C60.032 99.728 59.676 100.012 59.22 100.22C58.772 100.428 58.26 100.532 57.684 100.532ZM57.684 95.612C58.028 95.612 58.336 95.544 58.608 95.408C58.888 95.272 59.108 95.092 59.268 94.868C59.428 94.636 59.508 94.376 59.508 94.088C59.508 93.8 59.428 93.54 59.268 93.308C59.108 93.076 58.888 92.896 58.608 92.768C58.336 92.632 58.028 92.564 57.684 92.564C57.34 92.564 57.028 92.632 56.748 92.768C56.476 92.896 56.26 93.076 56.1 93.308C55.94 93.54 55.86 93.8 55.86 94.088C55.86 94.376 55.94 94.636 56.1 94.868C56.26 95.092 56.476 95.272 56.748 95.408C57.028 95.544 57.34 95.612 57.684 95.612ZM57.684 99.836C58.092 99.836 58.456 99.76 58.776 99.608C59.096 99.456 59.348 99.248 59.532 98.984C59.724 98.72 59.82 98.424 59.82 98.096C59.82 97.768 59.724 97.472 59.532 97.208C59.348 96.944 59.096 96.736 58.776 96.584C58.456 96.432 58.092 96.356 57.684 96.356C57.276 96.356 56.912 96.432 56.592 96.584C56.272 96.736 56.016 96.944 55.824 97.208C55.64 97.472 55.548 97.768 55.548 98.096C55.548 98.424 55.64 98.72 55.824 98.984C56.016 99.248 56.272 99.456 56.592 99.608C56.912 99.76 57.276 99.836 57.684 99.836Z" fill="#151515"/>
<rect x="66" y="95.9" width="5" height="1" fill="#C7C7C7"/>
<path d="M56.236 123.1L60.412 115.456H55.372V114.7H61.348V115.372L57.22 123.1H56.236Z" fill="#151515"/>
<rect x="66" y="118.6" width="5" height="1" fill="#C7C7C7"/>
<path d="M57.972 145.92C57.324 145.92 56.752 145.748 56.256 145.404C55.768 145.06 55.384 144.588 55.104 143.988C54.824 143.38 54.684 142.68 54.684 141.888C54.684 140.96 54.84 140.152 55.152 139.464C55.464 138.768 55.904 138.228 56.472 137.844C57.04 137.46 57.7 137.268 58.452 137.268C58.804 137.268 59.152 137.316 59.496 137.412C59.84 137.508 60.148 137.648 60.42 137.832L59.988 138.504C59.74 138.36 59.48 138.248 59.208 138.168C58.936 138.088 58.66 138.048 58.38 138.048C57.804 138.048 57.304 138.2 56.88 138.504C56.464 138.8 56.14 139.228 55.908 139.788C55.684 140.348 55.564 141.02 55.548 141.804C55.86 141.404 56.232 141.092 56.664 140.868C57.096 140.644 57.544 140.532 58.008 140.532C58.552 140.532 59.036 140.644 59.46 140.868C59.884 141.092 60.216 141.404 60.456 141.804C60.696 142.196 60.816 142.644 60.816 143.148C60.816 143.676 60.692 144.152 60.444 144.576C60.196 144.992 59.856 145.32 59.424 145.56C59 145.8 58.516 145.92 57.972 145.92ZM57.888 141.24C57.448 141.24 57.024 141.352 56.616 141.576C56.216 141.792 55.868 142.092 55.572 142.476C55.636 143.012 55.772 143.484 55.98 143.892C56.196 144.292 56.472 144.604 56.808 144.828C57.152 145.052 57.536 145.164 57.96 145.164C58.344 145.164 58.684 145.08 58.98 144.912C59.284 144.736 59.52 144.496 59.688 144.192C59.864 143.888 59.952 143.548 59.952 143.172C59.952 142.796 59.864 142.464 59.688 142.176C59.512 141.88 59.268 141.652 58.956 141.492C58.652 141.324 58.296 141.24 57.888 141.24Z" fill="#151515"/>
<rect x="66" y="141.3" width="5" height="1" fill="#C7C7C7"/>
<path d="M58.3 168.632C57.196 168.632 56.244 168.252 55.444 167.492L55.984 166.904C56.352 167.248 56.716 167.5 57.076 167.66C57.444 167.812 57.856 167.888 58.312 167.888C58.72 167.888 59.08 167.804 59.392 167.636C59.704 167.468 59.944 167.232 60.112 166.928C60.288 166.624 60.376 166.276 60.376 165.884C60.376 165.324 60.184 164.872 59.8 164.528C59.424 164.184 58.928 164.012 58.312 164.012C57.992 164.012 57.68 164.052 57.376 164.132C57.072 164.204 56.756 164.324 56.428 164.492L55.828 164.3L56.02 160.1H60.796V160.856H56.764L56.632 163.76C56.952 163.6 57.26 163.488 57.556 163.424C57.852 163.352 58.164 163.316 58.492 163.316C59.044 163.316 59.524 163.424 59.932 163.64C60.348 163.848 60.668 164.144 60.892 164.528C61.124 164.904 61.24 165.344 61.24 165.848C61.24 166.4 61.116 166.884 60.868 167.3C60.62 167.716 60.276 168.044 59.836 168.284C59.396 168.516 58.884 168.632 58.3 168.632Z" fill="#151515"/>
<rect x="66" y="164" width="5" height="1" fill="#C7C7C7"/>
<path d="M59.004 191.2V188.956H54.468V188.272L58.932 182.8H59.856V188.2H61.02V188.956H59.856V191.2H59.004ZM55.476 188.2H59.004V183.844L55.476 188.2Z" fill="#151515"/>
<rect x="66" y="186.7" width="5" height="1" fill="#C7C7C7"/>
<path d="M57.384 214.032C56.808 214.032 56.268 213.932 55.764 213.732C55.268 213.532 54.828 213.236 54.444 212.844L55.02 212.28C55.372 212.632 55.732 212.888 56.1 213.048C56.476 213.2 56.9 213.276 57.372 213.276C57.78 213.276 58.14 213.204 58.452 213.06C58.772 212.916 59.02 212.716 59.196 212.46C59.372 212.204 59.46 211.912 59.46 211.584C59.46 211.272 59.38 210.996 59.22 210.756C59.068 210.508 58.856 210.316 58.584 210.18C58.312 210.044 58 209.976 57.648 209.976H56.652V209.232H57.612C58.068 209.232 58.436 209.092 58.716 208.812C59.004 208.532 59.148 208.168 59.148 207.72C59.148 207.424 59.068 207.156 58.908 206.916C58.748 206.676 58.528 206.488 58.248 206.352C57.976 206.208 57.668 206.136 57.324 206.136C56.892 206.136 56.504 206.216 56.16 206.376C55.824 206.528 55.48 206.788 55.128 207.156L54.552 206.58C54.928 206.18 55.352 205.88 55.824 205.68C56.296 205.472 56.8 205.368 57.336 205.368C57.848 205.368 58.304 205.468 58.704 205.668C59.112 205.868 59.432 206.144 59.664 206.496C59.896 206.84 60.012 207.232 60.012 207.672C60.012 208.112 59.868 208.508 59.58 208.86C59.292 209.204 58.912 209.444 58.44 209.58C59.008 209.708 59.464 209.956 59.808 210.324C60.152 210.692 60.324 211.12 60.324 211.608C60.324 212.072 60.196 212.488 59.94 212.856C59.692 213.224 59.344 213.512 58.896 213.72C58.456 213.928 57.952 214.032 57.384 214.032Z" fill="#151515"/>
<rect x="66" y="209.4" width="5" height="1" fill="#C7C7C7"/>
<path d="M55.612 236.6V235.964L58.972 232.292C59.236 232.004 59.44 231.752 59.584 231.536C59.736 231.312 59.84 231.104 59.896 230.912C59.96 230.72 59.992 230.516 59.992 230.3C59.992 229.876 59.824 229.528 59.488 229.256C59.16 228.976 58.74 228.836 58.228 228.836C57.836 228.836 57.472 228.912 57.136 229.064C56.8 229.216 56.424 229.48 56.008 229.856L55.504 229.256C55.944 228.856 56.388 228.56 56.836 228.368C57.284 228.168 57.752 228.068 58.24 228.068C58.744 228.068 59.192 228.164 59.584 228.356C59.976 228.54 60.284 228.796 60.508 229.124C60.732 229.452 60.844 229.828 60.844 230.252C60.844 230.532 60.808 230.792 60.736 231.032C60.664 231.264 60.536 231.516 60.352 231.788C60.168 232.052 59.904 232.372 59.56 232.748L56.692 235.856L61.024 235.844V236.6H55.612Z" fill="#151515"/>
<rect x="66" y="232.1" width="5" height="1" fill="#C7C7C7"/>
<path d="M59.836 259.3V251.836L58.492 252.436V251.644L60.16 250.9H60.7V259.3H59.836Z" fill="#151515"/>
<rect x="66" y="254.8" width="5" height="1" fill="#C7C7C7"/>
<rect x="71" y="42" width="1" height="245" fill="#C7C7C7"/>
<rect x="72" y="148" width="16" height="138" fill="#0066CC"/>
<rect x="88" y="111" width="16" height="175" fill="#92C5F9"/>
<rect x="104" y="104" width="16" height="182" fill="#003366"/>
<rect x="120" y="81" width="16" height="205" fill="#4394E5"/>
<rect x="136" y="42" width="16" height="244" fill="#004D99"/>
<rect x="180" y="148" width="16" height="138" fill="#0066CC"/>
<rect x="196" y="111" width="16" height="175" fill="#92C5F9"/>
<rect x="212" y="104" width="16" height="182" fill="#003366"/>
<rect x="228" y="81" width="16" height="205" fill="#4394E5"/>
<rect x="244" y="42" width="16" height="244" fill="#004D99"/>
<rect x="288" y="148" width="16" height="138" fill="#0066CC"/>
<rect x="304" y="111" width="16" height="175" fill="#92C5F9"/>
<rect x="320" y="104" width="16" height="182" fill="#003366"/>
<rect x="336" y="81" width="16" height="205" fill="#4394E5"/>
<rect x="352" y="42" width="16" height="244" fill="#004D99"/>
<rect x="396" y="148" width="16" height="138" fill="#0066CC"/>
<rect x="412" y="111" width="16" height="175" fill="#92C5F9"/>
<rect x="428" y="104" width="16" height="182" fill="#003366"/>
<rect x="444" y="81" width="16" height="205" fill="#4394E5"/>
<rect x="460" y="42" width="16" height="244" fill="#004D99"/>
<path fill-rule="evenodd" clip-rule="evenodd" d="M72 286H476V287H72V286Z" fill="#C7C7C7"/>
<rect x="219" y="287" width="5" height="1" transform="rotate(90 219 287)" fill="#C7C7C7"/>
<path d="M217.502 307.336L216.732 306.412C216.359 306.645 215.957 306.827 215.528 306.958C215.099 307.089 214.646 307.154 214.17 307.154C213.489 307.154 212.854 307.028 212.266 306.776C211.678 306.515 211.16 306.155 210.712 305.698C210.273 305.231 209.928 304.695 209.676 304.088C209.424 303.472 209.298 302.809 209.298 302.1C209.298 301.391 209.424 300.733 209.676 300.126C209.928 299.51 210.273 298.973 210.712 298.516C211.16 298.049 211.678 297.69 212.266 297.438C212.854 297.177 213.489 297.046 214.17 297.046C214.851 297.046 215.486 297.177 216.074 297.438C216.662 297.69 217.175 298.049 217.614 298.516C218.062 298.973 218.412 299.51 218.664 300.126C218.916 300.733 219.042 301.391 219.042 302.1C219.042 302.837 218.902 303.528 218.622 304.172C218.342 304.816 217.964 305.367 217.488 305.824L218.608 307.182L217.502 307.336ZM214.17 306.174C214.525 306.174 214.861 306.127 215.178 306.034C215.505 305.941 215.808 305.81 216.088 305.642L214.66 303.948L215.766 303.78L216.816 305.04C217.171 304.667 217.446 304.233 217.642 303.738C217.847 303.234 217.95 302.688 217.95 302.1C217.95 301.521 217.852 300.989 217.656 300.504C217.469 300.009 217.203 299.575 216.858 299.202C216.513 298.829 216.111 298.539 215.654 298.334C215.197 298.129 214.702 298.026 214.17 298.026C213.638 298.026 213.143 298.129 212.686 298.334C212.229 298.539 211.827 298.829 211.482 299.202C211.137 299.575 210.866 300.009 210.67 300.504C210.483 300.989 210.39 301.521 210.39 302.1C210.39 302.669 210.483 303.201 210.67 303.696C210.866 304.191 211.137 304.625 211.482 304.998C211.827 305.371 212.229 305.661 212.686 305.866C213.143 306.071 213.638 306.174 214.17 306.174ZM220.548 307V306.258L224.468 301.974C224.776 301.638 225.014 301.344 225.182 301.092C225.359 300.831 225.481 300.588 225.546 300.364C225.621 300.14 225.658 299.902 225.658 299.65C225.658 299.155 225.462 298.749 225.07 298.432C224.687 298.105 224.197 297.942 223.6 297.942C223.143 297.942 222.718 298.031 222.326 298.208C221.934 298.385 221.495 298.693 221.01 299.132L220.422 298.432C220.935 297.965 221.453 297.62 221.976 297.396C222.499 297.163 223.045 297.046 223.614 297.046C224.202 297.046 224.725 297.158 225.182 297.382C225.639 297.597 225.999 297.895 226.26 298.278C226.521 298.661 226.652 299.099 226.652 299.594C226.652 299.921 226.61 300.224 226.526 300.504C226.442 300.775 226.293 301.069 226.078 301.386C225.863 301.694 225.555 302.067 225.154 302.506L221.808 306.132L226.862 306.118V307H220.548Z" fill="#151515"/>
<rect x="114.5" y="287" width="5" height="1" transform="rotate(90 114.5 287)" fill="#C7C7C7"/>
<path d="M115.002 307.336L114.232 306.412C113.859 306.645 113.457 306.827 113.028 306.958C112.599 307.089 112.146 307.154 111.67 307.154C110.989 307.154 110.354 307.028 109.766 306.776C109.178 306.515 108.66 306.155 108.212 305.698C107.773 305.231 107.428 304.695 107.176 304.088C106.924 303.472 106.798 302.809 106.798 302.1C106.798 301.391 106.924 300.733 107.176 300.126C107.428 299.51 107.773 298.973 108.212 298.516C108.66 298.049 109.178 297.69 109.766 297.438C110.354 297.177 110.989 297.046 111.67 297.046C112.351 297.046 112.986 297.177 113.574 297.438C114.162 297.69 114.675 298.049 115.114 298.516C115.562 298.973 115.912 299.51 116.164 300.126C116.416 300.733 116.542 301.391 116.542 302.1C116.542 302.837 116.402 303.528 116.122 304.172C115.842 304.816 115.464 305.367 114.988 305.824L116.108 307.182L115.002 307.336ZM111.67 306.174C112.025 306.174 112.361 306.127 112.678 306.034C113.005 305.941 113.308 305.81 113.588 305.642L112.16 303.948L113.266 303.78L114.316 305.04C114.671 304.667 114.946 304.233 115.142 303.738C115.347 303.234 115.45 302.688 115.45 302.1C115.45 301.521 115.352 300.989 115.156 300.504C114.969 300.009 114.703 299.575 114.358 299.202C114.013 298.829 113.611 298.539 113.154 298.334C112.697 298.129 112.202 298.026 111.67 298.026C111.138 298.026 110.643 298.129 110.186 298.334C109.729 298.539 109.327 298.829 108.982 299.202C108.637 299.575 108.366 300.009 108.17 300.504C107.983 300.989 107.89 301.521 107.89 302.1C107.89 302.669 107.983 303.201 108.17 303.696C108.366 304.191 108.637 304.625 108.982 304.998C109.327 305.371 109.729 305.661 110.186 305.866C110.643 306.071 111.138 306.174 111.67 306.174ZM119.476 307V298.292L117.908 298.992V298.068L119.854 297.2H120.484V307H119.476Z" fill="#151515"/>
<rect x="440.5" y="287" width="5" height="1" transform="rotate(90 440.5 287)" fill="#C7C7C7"/>
<path d="M439.002 307.336L438.232 306.412C437.859 306.645 437.457 306.827 437.028 306.958C436.599 307.089 436.146 307.154 435.67 307.154C434.989 307.154 434.354 307.028 433.766 306.776C433.178 306.515 432.66 306.155 432.212 305.698C431.773 305.231 431.428 304.695 431.176 304.088C430.924 303.472 430.798 302.809 430.798 302.1C430.798 301.391 430.924 300.733 431.176 300.126C431.428 299.51 431.773 298.973 432.212 298.516C432.66 298.049 433.178 297.69 433.766 297.438C434.354 297.177 434.989 297.046 435.67 297.046C436.351 297.046 436.986 297.177 437.574 297.438C438.162 297.69 438.675 298.049 439.114 298.516C439.562 298.973 439.912 299.51 440.164 300.126C440.416 300.733 440.542 301.391 440.542 302.1C440.542 302.837 440.402 303.528 440.122 304.172C439.842 304.816 439.464 305.367 438.988 305.824L440.108 307.182L439.002 307.336ZM435.67 306.174C436.025 306.174 436.361 306.127 436.678 306.034C437.005 305.941 437.308 305.81 437.588 305.642L436.16 303.948L437.266 303.78L438.316 305.04C438.671 304.667 438.946 304.233 439.142 303.738C439.347 303.234 439.45 302.688 439.45 302.1C439.45 301.521 439.352 300.989 439.156 300.504C438.969 300.009 438.703 299.575 438.358 299.202C438.013 298.829 437.611 298.539 437.154 298.334C436.697 298.129 436.202 298.026 435.67 298.026C435.138 298.026 434.643 298.129 434.186 298.334C433.729 298.539 433.327 298.829 432.982 299.202C432.637 299.575 432.366 300.009 432.17 300.504C431.983 300.989 431.89 301.521 431.89 302.1C431.89 302.669 431.983 303.201 432.17 303.696C432.366 304.191 432.637 304.625 432.982 304.998C433.327 305.371 433.729 305.661 434.186 305.866C434.643 306.071 435.138 306.174 435.67 306.174ZM447.172 307V304.382H441.88V303.584L447.088 297.2H448.166V303.5H449.524V304.382H448.166V307H447.172ZM443.056 303.5H447.172V298.418L443.056 303.5Z" fill="#151515"/>
<rect x="325.5" y="287" width="5" height="1" transform="rotate(90 325.5 287)" fill="#C7C7C7"/>
<path d="M324.002 307.336L323.232 306.412C322.859 306.645 322.457 306.827 322.028 306.958C321.599 307.089 321.146 307.154 320.67 307.154C319.989 307.154 319.354 307.028 318.766 306.776C318.178 306.515 317.66 306.155 317.212 305.698C316.773 305.231 316.428 304.695 316.176 304.088C315.924 303.472 315.798 302.809 315.798 302.1C315.798 301.391 315.924 300.733 316.176 300.126C316.428 299.51 316.773 298.973 317.212 298.516C317.66 298.049 318.178 297.69 318.766 297.438C319.354 297.177 319.989 297.046 320.67 297.046C321.351 297.046 321.986 297.177 322.574 297.438C323.162 297.69 323.675 298.049 324.114 298.516C324.562 298.973 324.912 299.51 325.164 300.126C325.416 300.733 325.542 301.391 325.542 302.1C325.542 302.837 325.402 303.528 325.122 304.172C324.842 304.816 324.464 305.367 323.988 305.824L325.108 307.182L324.002 307.336ZM320.67 306.174C321.025 306.174 321.361 306.127 321.678 306.034C322.005 305.941 322.308 305.81 322.588 305.642L321.16 303.948L322.266 303.78L323.316 305.04C323.671 304.667 323.946 304.233 324.142 303.738C324.347 303.234 324.45 302.688 324.45 302.1C324.45 301.521 324.352 300.989 324.156 300.504C323.969 300.009 323.703 299.575 323.358 299.202C323.013 298.829 322.611 298.539 322.154 298.334C321.697 298.129 321.202 298.026 320.67 298.026C320.138 298.026 319.643 298.129 319.186 298.334C318.729 298.539 318.327 298.829 317.982 299.202C317.637 299.575 317.366 300.009 317.17 300.504C316.983 300.989 316.89 301.521 316.89 302.1C316.89 302.669 316.983 303.201 317.17 303.696C317.366 304.191 317.637 304.625 317.982 304.998C318.327 305.371 318.729 305.661 319.186 305.866C319.643 306.071 320.138 306.174 320.67 306.174ZM330.282 307.154C329.61 307.154 328.98 307.037 328.392 306.804C327.813 306.571 327.3 306.225 326.852 305.768L327.524 305.11C327.935 305.521 328.355 305.819 328.784 306.006C329.223 306.183 329.717 306.272 330.268 306.272C330.744 306.272 331.164 306.188 331.528 306.02C331.901 305.852 332.191 305.619 332.396 305.32C332.601 305.021 332.704 304.681 332.704 304.298C332.704 303.934 332.611 303.612 332.424 303.332C332.247 303.043 331.999 302.819 331.682 302.66C331.365 302.501 331.001 302.422 330.59 302.422H329.428V301.554H330.548C331.08 301.554 331.509 301.391 331.836 301.064C332.172 300.737 332.34 300.313 332.34 299.79C332.34 299.445 332.247 299.132 332.06 298.852C331.873 298.572 331.617 298.353 331.29 298.194C330.973 298.026 330.613 297.942 330.212 297.942C329.708 297.942 329.255 298.035 328.854 298.222C328.462 298.399 328.061 298.703 327.65 299.132L326.978 298.46C327.417 297.993 327.911 297.643 328.462 297.41C329.013 297.167 329.601 297.046 330.226 297.046C330.823 297.046 331.355 297.163 331.822 297.396C332.298 297.629 332.671 297.951 332.942 298.362C333.213 298.763 333.348 299.221 333.348 299.734C333.348 300.247 333.18 300.709 332.844 301.12C332.508 301.521 332.065 301.801 331.514 301.96C332.177 302.109 332.709 302.399 333.11 302.828C333.511 303.257 333.712 303.757 333.712 304.326C333.712 304.867 333.563 305.353 333.264 305.782C332.975 306.211 332.569 306.547 332.046 306.79C331.533 307.033 330.945 307.154 330.282 307.154Z" fill="#151515"/>
<rect x="500" y="104.5" width="10" height="10" fill="#0066CC"/>
<path d="M518.108 113.5L521.432 105.1H522.536L525.812 113.5H524.816L523.82 110.86H520.076L519.08 113.5H518.108ZM520.364 110.128H523.544L521.948 105.94L520.364 110.128ZM528.81 113.62C528.33 113.62 527.886 113.548 527.478 113.404C527.07 113.252 526.722 113.036 526.434 112.756L526.902 112.18C527.254 112.436 527.578 112.624 527.874 112.744C528.17 112.856 528.474 112.912 528.786 112.912C529.21 112.912 529.562 112.812 529.842 112.612C530.122 112.412 530.262 112.156 530.262 111.844C530.262 111.604 530.178 111.416 530.01 111.28C529.85 111.144 529.582 111.04 529.206 110.968L528.246 110.8C527.678 110.696 527.258 110.52 526.986 110.272C526.722 110.024 526.59 109.688 526.59 109.264C526.59 108.928 526.678 108.632 526.854 108.376C527.038 108.12 527.29 107.92 527.61 107.776C527.93 107.624 528.294 107.548 528.702 107.548C529.102 107.548 529.482 107.608 529.842 107.728C530.202 107.84 530.566 108.024 530.934 108.28L530.502 108.892C530.198 108.676 529.894 108.52 529.59 108.424C529.286 108.32 528.978 108.268 528.666 108.268C528.282 108.268 527.974 108.352 527.742 108.52C527.51 108.688 527.394 108.916 527.394 109.204C527.394 109.444 527.466 109.628 527.61 109.756C527.762 109.884 528.026 109.98 528.402 110.044L529.386 110.224C529.978 110.328 530.41 110.508 530.682 110.764C530.954 111.02 531.09 111.364 531.09 111.796C531.09 112.14 530.99 112.452 530.79 112.732C530.59 113.004 530.318 113.22 529.974 113.38C529.63 113.54 529.242 113.62 528.81 113.62ZM532.411 113.5V107.644H533.287V113.5H532.411ZM532.855 106.192C532.679 106.192 532.527 106.132 532.399 106.012C532.279 105.884 532.219 105.736 532.219 105.568C532.219 105.4 532.279 105.256 532.399 105.136C532.527 105.008 532.679 104.944 532.855 104.944C533.031 104.944 533.179 105.008 533.299 105.136C533.427 105.256 533.491 105.4 533.491 105.568C533.491 105.736 533.427 105.884 533.299 106.012C533.179 106.132 533.031 106.192 532.855 106.192ZM536.896 113.608C536.48 113.608 536.112 113.532 535.792 113.38C535.472 113.228 535.22 113.02 535.036 112.756C534.86 112.484 534.772 112.172 534.772 111.82C534.772 111.468 534.864 111.164 535.048 110.908C535.232 110.644 535.488 110.44 535.816 110.296C536.144 110.152 536.528 110.08 536.968 110.08C537.304 110.08 537.62 110.116 537.916 110.188C538.22 110.26 538.5 110.376 538.756 110.536V109.732C538.756 109.252 538.628 108.892 538.372 108.652C538.116 108.404 537.74 108.28 537.244 108.28C536.972 108.28 536.692 108.32 536.404 108.4C536.124 108.48 535.812 108.608 535.468 108.784L535.144 108.112C535.928 107.736 536.664 107.548 537.352 107.548C538.08 107.548 538.64 107.728 539.032 108.088C539.424 108.44 539.62 108.948 539.62 109.612V113.5H538.756V112.816C538.5 113.08 538.216 113.28 537.904 113.416C537.592 113.544 537.256 113.608 536.896 113.608ZM535.612 111.796C535.612 112.14 535.744 112.416 536.008 112.624C536.28 112.832 536.636 112.936 537.076 112.936C537.404 112.936 537.704 112.88 537.976 112.768C538.256 112.656 538.516 112.488 538.756 112.264V111.136C538.508 110.992 538.252 110.888 537.988 110.824C537.724 110.752 537.428 110.716 537.1 110.716C536.652 110.716 536.292 110.816 536.02 111.016C535.748 111.208 535.612 111.468 535.612 111.796ZM544.369 113.5V105.1H547.837C548.381 105.1 548.853 105.204 549.253 105.412C549.653 105.612 549.961 105.9 550.177 106.276C550.401 106.644 550.513 107.08 550.513 107.584C550.513 108.08 550.401 108.516 550.177 108.892C549.961 109.268 549.653 109.56 549.253 109.768C548.853 109.968 548.381 110.068 547.837 110.068H545.293V113.5H544.369ZM545.293 109.276H547.729C548.313 109.276 548.769 109.124 549.097 108.82C549.425 108.516 549.589 108.104 549.589 107.584C549.589 107.064 549.425 106.656 549.097 106.36C548.769 106.064 548.313 105.916 547.729 105.916H545.293V109.276ZM553.56 113.608C553.144 113.608 552.776 113.532 552.456 113.38C552.136 113.228 551.884 113.02 551.7 112.756C551.524 112.484 551.436 112.172 551.436 111.82C551.436 111.468 551.528 111.164 551.712 110.908C551.896 110.644 552.152 110.44 552.48 110.296C552.808 110.152 553.192 110.08 553.632 110.08C553.968 110.08 554.284 110.116 554.58 110.188C554.884 110.26 555.164 110.376 555.42 110.536V109.732C555.42 109.252 555.292 108.892 555.036 108.652C554.78 108.404 554.404 108.28 553.908 108.28C553.636 108.28 553.356 108.32 553.068 108.4C552.788 108.48 552.476 108.608 552.132 108.784L551.808 108.112C552.592 107.736 553.328 107.548 554.016 107.548C554.744 107.548 555.304 107.728 555.696 108.088C556.088 108.44 556.284 108.948 556.284 109.612V113.5H555.42V112.816C555.164 113.08 554.88 113.28 554.568 113.416C554.256 113.544 553.92 113.608 553.56 113.608ZM552.276 111.796C552.276 112.14 552.408 112.416 552.672 112.624C552.944 112.832 553.3 112.936 553.74 112.936C554.068 112.936 554.368 112.88 554.64 112.768C554.92 112.656 555.18 112.488 555.42 112.264V111.136C555.172 110.992 554.916 110.888 554.652 110.824C554.388 110.752 554.092 110.716 553.764 110.716C553.316 110.716 552.956 110.816 552.684 111.016C552.412 111.208 552.276 111.468 552.276 111.796ZM560.692 113.596C560.148 113.596 559.656 113.464 559.216 113.2C558.784 112.928 558.44 112.564 558.184 112.108C557.928 111.644 557.8 111.132 557.8 110.572C557.8 110.004 557.928 109.492 558.184 109.036C558.44 108.58 558.784 108.22 559.216 107.956C559.656 107.684 560.148 107.548 560.692 107.548C561.124 107.548 561.536 107.628 561.928 107.788C562.32 107.948 562.66 108.172 562.948 108.46L562.384 109.072C562.176 108.84 561.924 108.66 561.628 108.532C561.332 108.404 561.032 108.34 560.728 108.34C560.344 108.34 559.996 108.44 559.684 108.64C559.38 108.84 559.136 109.108 558.952 109.444C558.768 109.78 558.676 110.156 558.676 110.572C558.676 110.988 558.768 111.364 558.952 111.7C559.136 112.036 559.38 112.304 559.684 112.504C559.996 112.704 560.344 112.804 560.728 112.804C561.032 112.804 561.332 112.74 561.628 112.612C561.924 112.476 562.176 112.296 562.384 112.072L562.948 112.684C562.66 112.972 562.32 113.196 561.928 113.356C561.536 113.516 561.124 113.596 560.692 113.596ZM564.158 113.5V107.644H565.034V113.5H564.158ZM564.602 106.192C564.426 106.192 564.274 106.132 564.146 106.012C564.026 105.884 563.966 105.736 563.966 105.568C563.966 105.4 564.026 105.256 564.146 105.136C564.274 105.008 564.426 104.944 564.602 104.944C564.778 104.944 564.926 105.008 565.046 105.136C565.174 105.256 565.238 105.4 565.238 105.568C565.238 105.736 565.174 105.884 565.046 106.012C564.926 106.132 564.778 106.192 564.602 106.192ZM567.574 113.5V108.364H566.266V107.644H567.574V106.42C567.574 105.844 567.726 105.4 568.03 105.088C568.334 104.776 568.766 104.62 569.326 104.62C569.486 104.62 569.63 104.628 569.758 104.644C569.894 104.66 570.014 104.688 570.118 104.728V105.52C569.99 105.48 569.874 105.452 569.77 105.436C569.666 105.42 569.546 105.412 569.41 105.412C569.074 105.412 568.83 105.496 568.678 105.664C568.526 105.824 568.45 106.08 568.45 106.432V107.644H570.118V108.364H568.45V113.5H567.574ZM571.259 113.5V107.644H572.135V113.5H571.259ZM571.703 106.192C571.527 106.192 571.375 106.132 571.247 106.012C571.127 105.884 571.067 105.736 571.067 105.568C571.067 105.4 571.127 105.256 571.247 105.136C571.375 105.008 571.527 104.944 571.703 104.944C571.879 104.944 572.027 105.008 572.147 105.136C572.275 105.256 572.339 105.4 572.339 105.568C572.339 105.736 572.275 105.884 572.147 106.012C572.027 106.132 571.879 106.192 571.703 106.192ZM576.559 113.596C576.015 113.596 575.523 113.464 575.083 113.2C574.651 112.928 574.307 112.564 574.051 112.108C573.795 111.644 573.667 111.132 573.667 110.572C573.667 110.004 573.795 109.492 574.051 109.036C574.307 108.58 574.651 108.22 575.083 107.956C575.523 107.684 576.015 107.548 576.559 107.548C576.991 107.548 577.403 107.628 577.795 107.788C578.187 107.948 578.527 108.172 578.815 108.46L578.251 109.072C578.043 108.84 577.791 108.66 577.495 108.532C577.199 108.404 576.899 108.34 576.595 108.34C576.211 108.34 575.863 108.44 575.551 108.64C575.247 108.84 575.003 109.108 574.819 109.444C574.635 109.78 574.543 110.156 574.543 110.572C574.543 110.988 574.635 111.364 574.819 111.7C575.003 112.036 575.247 112.304 575.551 112.504C575.863 112.704 576.211 112.804 576.595 112.804C576.899 112.804 577.199 112.74 577.495 112.612C577.791 112.476 578.043 112.296 578.251 112.072L578.815 112.684C578.527 112.972 578.187 113.196 577.795 113.356C577.403 113.516 576.991 113.596 576.559 113.596Z" fill="#151515"/>
<rect x="500" y="138.5" width="10" height="10" fill="#92C5F9"/>
<path d="M519.068 147.5V139.1H524.804V139.916H519.992V142.856H523.328V143.66H519.992V146.684H524.852V147.5H519.068ZM528.242 147.596C527.826 147.596 527.458 147.504 527.138 147.32C526.818 147.136 526.566 146.88 526.382 146.552C526.206 146.224 526.118 145.848 526.118 145.424V141.644H527.006V145.172C527.006 145.692 527.146 146.104 527.426 146.408C527.706 146.712 528.086 146.864 528.566 146.864C528.894 146.864 529.186 146.788 529.442 146.636C529.706 146.484 529.926 146.264 530.102 145.976V141.644H530.978V147.5H530.102V146.552C529.878 146.896 529.61 147.156 529.298 147.332C528.994 147.508 528.642 147.596 528.242 147.596ZM532.775 147.5V141.644H533.651V142.844C533.803 142.436 534.019 142.12 534.299 141.896C534.587 141.664 534.915 141.548 535.283 141.548C535.387 141.548 535.483 141.556 535.571 141.572C535.659 141.58 535.747 141.6 535.835 141.632V142.424C535.739 142.392 535.635 142.368 535.523 142.352C535.419 142.328 535.319 142.316 535.223 142.316C534.863 142.316 534.547 142.42 534.275 142.628C534.011 142.836 533.803 143.128 533.651 143.504V147.5H532.775ZM539.222 147.596C538.678 147.596 538.19 147.464 537.758 147.2C537.326 146.936 536.986 146.576 536.738 146.12C536.49 145.664 536.366 145.148 536.366 144.572C536.366 143.996 536.49 143.48 536.738 143.024C536.986 142.568 537.326 142.208 537.758 141.944C538.19 141.68 538.678 141.548 539.222 141.548C539.758 141.548 540.238 141.68 540.662 141.944C541.094 142.208 541.434 142.568 541.682 143.024C541.93 143.48 542.054 143.996 542.054 144.572C542.054 145.148 541.93 145.664 541.682 146.12C541.434 146.576 541.094 146.936 540.662 147.2C540.238 147.464 539.758 147.596 539.222 147.596ZM539.21 146.828C539.594 146.828 539.934 146.732 540.23 146.54C540.526 146.34 540.758 146.068 540.926 145.724C541.102 145.38 541.19 144.996 541.19 144.572C541.19 144.14 541.102 143.756 540.926 143.42C540.758 143.076 540.526 142.808 540.23 142.616C539.934 142.416 539.594 142.316 539.21 142.316C538.826 142.316 538.486 142.416 538.19 142.616C537.894 142.808 537.658 143.076 537.482 143.42C537.314 143.756 537.23 144.14 537.23 144.572C537.23 144.996 537.314 145.38 537.482 145.724C537.658 146.068 537.894 146.34 538.19 146.54C538.486 146.732 538.826 146.828 539.21 146.828ZM543.591 150.008V141.644H544.455V142.484C544.679 142.188 544.951 141.964 545.271 141.812C545.599 141.652 545.959 141.572 546.351 141.572C546.863 141.572 547.319 141.708 547.719 141.98C548.127 142.244 548.451 142.604 548.691 143.06C548.931 143.508 549.051 144.012 549.051 144.572C549.051 145.132 548.927 145.64 548.679 146.096C548.439 146.552 548.111 146.916 547.695 147.188C547.287 147.452 546.823 147.584 546.303 147.584C545.935 147.584 545.595 147.516 545.283 147.38C544.971 147.236 544.699 147.032 544.467 146.768V150.008H543.591ZM546.135 146.828C546.527 146.828 546.875 146.732 547.179 146.54C547.491 146.34 547.735 146.072 547.911 145.736C548.095 145.392 548.187 145.008 548.187 144.584C548.187 144.152 548.095 143.768 547.911 143.432C547.735 143.096 547.491 142.832 547.179 142.64C546.875 142.44 546.527 142.34 546.135 142.34C545.791 142.34 545.471 142.412 545.175 142.556C544.887 142.692 544.651 142.888 544.467 143.144V146.012C544.659 146.268 544.899 146.468 545.187 146.612C545.483 146.756 545.799 146.828 546.135 146.828ZM553.228 147.62C552.684 147.62 552.192 147.488 551.752 147.224C551.312 146.952 550.964 146.588 550.708 146.132C550.452 145.668 550.324 145.148 550.324 144.572C550.324 143.996 550.444 143.48 550.684 143.024C550.932 142.568 551.264 142.208 551.68 141.944C552.096 141.68 552.56 141.548 553.072 141.548C553.592 141.548 554.052 141.68 554.452 141.944C554.86 142.2 555.18 142.552 555.412 143C555.652 143.44 555.772 143.94 555.772 144.5V144.764H551.176C551.208 145.164 551.316 145.524 551.5 145.844C551.692 146.156 551.94 146.404 552.244 146.588C552.556 146.764 552.896 146.852 553.264 146.852C553.568 146.852 553.86 146.8 554.14 146.696C554.428 146.584 554.672 146.436 554.872 146.252L555.424 146.84C555.088 147.104 554.74 147.3 554.38 147.428C554.02 147.556 553.636 147.62 553.228 147.62ZM551.2 144.14H554.908C554.868 143.788 554.76 143.476 554.584 143.204C554.416 142.924 554.2 142.704 553.936 142.544C553.68 142.384 553.392 142.304 553.072 142.304C552.752 142.304 552.46 142.384 552.196 142.544C551.932 142.696 551.712 142.912 551.536 143.192C551.368 143.464 551.256 143.78 551.2 144.14ZM561.88 147.608C561.464 147.608 561.096 147.532 560.776 147.38C560.456 147.228 560.204 147.02 560.02 146.756C559.844 146.484 559.756 146.172 559.756 145.82C559.756 145.468 559.848 145.164 560.032 144.908C560.216 144.644 560.472 144.44 560.8 144.296C561.128 144.152 561.512 144.08 561.952 144.08C562.288 144.08 562.604 144.116 562.9 144.188C563.204 144.26 563.484 144.376 563.74 144.536V143.732C563.74 143.252 563.612 142.892 563.356 142.652C563.1 142.404 562.724 142.28 562.228 142.28C561.956 142.28 561.676 142.32 561.388 142.4C561.108 142.48 560.796 142.608 560.452 142.784L560.128 142.112C560.912 141.736 561.648 141.548 562.336 141.548C563.064 141.548 563.624 141.728 564.016 142.088C564.408 142.44 564.604 142.948 564.604 143.612V147.5H563.74V146.816C563.484 147.08 563.2 147.28 562.888 147.416C562.576 147.544 562.24 147.608 561.88 147.608ZM560.596 145.796C560.596 146.14 560.728 146.416 560.992 146.624C561.264 146.832 561.62 146.936 562.06 146.936C562.388 146.936 562.688 146.88 562.96 146.768C563.24 146.656 563.5 146.488 563.74 146.264V145.136C563.492 144.992 563.236 144.888 562.972 144.824C562.708 144.752 562.412 144.716 562.084 144.716C561.636 144.716 561.276 144.816 561.004 145.016C560.732 145.208 560.596 145.468 560.596 145.796ZM566.384 147.5V141.644H567.26V142.592C567.484 142.24 567.752 141.98 568.064 141.812C568.376 141.636 568.728 141.548 569.12 141.548C569.544 141.548 569.912 141.64 570.224 141.824C570.544 142 570.792 142.252 570.968 142.58C571.152 142.9 571.244 143.276 571.244 143.708V147.5H570.368V143.96C570.368 143.44 570.224 143.032 569.936 142.736C569.656 142.432 569.276 142.28 568.796 142.28C568.476 142.28 568.184 142.356 567.92 142.508C567.656 142.66 567.436 142.884 567.26 143.18V147.5H566.384ZM575.441 147.584C574.937 147.584 574.481 147.452 574.073 147.188C573.665 146.916 573.341 146.556 573.101 146.108C572.861 145.652 572.741 145.144 572.741 144.584C572.741 144.016 572.861 143.508 573.101 143.06C573.349 142.604 573.681 142.244 574.097 141.98C574.513 141.708 574.977 141.572 575.489 141.572C575.849 141.572 576.185 141.644 576.497 141.788C576.809 141.924 577.081 142.124 577.313 142.388V138.836L578.189 138.656V147.5H577.313V146.72C577.089 147 576.817 147.216 576.497 147.368C576.177 147.512 575.825 147.584 575.441 147.584ZM575.657 146.816C576.001 146.816 576.317 146.748 576.605 146.612C576.893 146.476 577.129 146.284 577.313 146.036V143.132C577.121 142.884 576.877 142.692 576.581 142.556C576.293 142.412 575.985 142.34 575.657 142.34C575.265 142.34 574.913 142.436 574.601 142.628C574.297 142.82 574.053 143.084 573.869 143.42C573.693 143.756 573.605 144.14 573.605 144.572C573.605 144.996 573.693 145.38 573.869 145.724C574.053 146.06 574.297 146.328 574.601 146.528C574.913 146.72 575.265 146.816 575.657 146.816ZM582.959 147.5V139.1H584.243L587.051 145.076L589.859 139.1H591.143V147.5H590.267V140.192L587.051 146.9L583.823 140.168V147.5H582.959ZM593.103 147.5V141.644H593.979V147.5H593.103ZM593.547 140.192C593.371 140.192 593.219 140.132 593.091 140.012C592.971 139.884 592.911 139.736 592.911 139.568C592.911 139.4 592.971 139.256 593.091 139.136C593.219 139.008 593.371 138.944 593.547 138.944C593.723 138.944 593.871 139.008 593.991 139.136C594.119 139.256 594.183 139.4 594.183 139.568C594.183 139.736 594.119 139.884 593.991 140.012C593.871 140.132 593.723 140.192 593.547 140.192ZM598.211 147.584C597.707 147.584 597.251 147.452 596.843 147.188C596.435 146.916 596.111 146.556 595.871 146.108C595.631 145.652 595.511 145.144 595.511 144.584C595.511 144.016 595.631 143.508 595.871 143.06C596.119 142.604 596.451 142.244 596.867 141.98C597.283 141.708 597.747 141.572 598.259 141.572C598.619 141.572 598.955 141.644 599.267 141.788C599.579 141.924 599.851 142.124 600.083 142.388V138.836L600.959 138.656V147.5H600.083V146.72C599.859 147 599.587 147.216 599.267 147.368C598.947 147.512 598.595 147.584 598.211 147.584ZM598.427 146.816C598.771 146.816 599.087 146.748 599.375 146.612C599.663 146.476 599.899 146.284 600.083 146.036V143.132C599.891 142.884 599.647 142.692 599.351 142.556C599.063 142.412 598.755 142.34 598.427 142.34C598.035 142.34 597.683 142.436 597.371 142.628C597.067 142.82 596.823 143.084 596.639 143.42C596.463 143.756 596.375 144.14 596.375 144.572C596.375 144.996 596.463 145.38 596.639 145.724C596.823 146.06 597.067 146.328 597.371 146.528C597.683 146.72 598.035 146.816 598.427 146.816ZM605.195 147.584C604.691 147.584 604.235 147.452 603.827 147.188C603.419 146.916 603.095 146.556 602.855 146.108C602.615 145.652 602.495 145.144 602.495 144.584C602.495 144.016 602.615 143.508 602.855 143.06C603.103 142.604 603.435 142.244 603.851 141.98C604.267 141.708 604.731 141.572 605.243 141.572C605.603 141.572 605.939 141.644 606.251 141.788C606.563 141.924 606.835 142.124 607.067 142.388V138.836L607.943 138.656V147.5H607.067V146.72C606.843 147 606.571 147.216 606.251 147.368C605.931 147.512 605.579 147.584 605.195 147.584ZM605.411 146.816C605.755 146.816 606.071 146.748 606.359 146.612C606.647 146.476 606.883 146.284 607.067 146.036V143.132C606.875 142.884 606.631 142.692 606.335 142.556C606.047 142.412 605.739 142.34 605.411 142.34C605.019 142.34 604.667 142.436 604.355 142.628C604.051 142.82 603.807 143.084 603.623 143.42C603.447 143.756 603.359 144.14 603.359 144.572C603.359 144.996 603.447 145.38 603.623 145.724C603.807 146.06 604.051 146.328 604.355 146.528C604.667 146.72 605.019 146.816 605.411 146.816ZM609.744 147.5V138.836L610.62 138.656V147.5H609.744ZM615.056 147.62C614.512 147.62 614.02 147.488 613.58 147.224C613.14 146.952 612.792 146.588 612.536 146.132C612.28 145.668 612.152 145.148 612.152 144.572C612.152 143.996 612.272 143.48 612.512 143.024C612.76 142.568 613.092 142.208 613.508 141.944C613.924 141.68 614.388 141.548 614.9 141.548C615.42 141.548 615.88 141.68 616.28 141.944C616.688 142.2 617.008 142.552 617.24 143C617.48 143.44 617.6 143.94 617.6 144.5V144.764H613.004C613.036 145.164 613.144 145.524 613.328 145.844C613.52 146.156 613.768 146.404 614.072 146.588C614.384 146.764 614.724 146.852 615.092 146.852C615.396 146.852 615.688 146.8 615.968 146.696C616.256 146.584 616.5 146.436 616.7 146.252L617.252 146.84C616.916 147.104 616.568 147.3 616.208 147.428C615.848 147.556 615.464 147.62 615.056 147.62ZM613.028 144.14H616.736C616.696 143.788 616.588 143.476 616.412 143.204C616.244 142.924 616.028 142.704 615.764 142.544C615.508 142.384 615.22 142.304 614.9 142.304C614.58 142.304 614.288 142.384 614.024 142.544C613.76 142.696 613.54 142.912 613.364 143.192C613.196 143.464 613.084 143.78 613.028 144.14ZM622.064 147.5V139.1H627.8V139.916H622.988V142.856H626.324V143.66H622.988V146.684H627.848V147.5H622.064ZM631.138 147.608C630.722 147.608 630.354 147.532 630.034 147.38C629.714 147.228 629.462 147.02 629.278 146.756C629.102 146.484 629.014 146.172 629.014 145.82C629.014 145.468 629.106 145.164 629.29 144.908C629.474 144.644 629.73 144.44 630.058 144.296C630.386 144.152 630.77 144.08 631.21 144.08C631.546 144.08 631.862 144.116 632.158 144.188C632.462 144.26 632.742 144.376 632.998 144.536V143.732C632.998 143.252 632.87 142.892 632.614 142.652C632.358 142.404 631.982 142.28 631.486 142.28C631.214 142.28 630.934 142.32 630.646 142.4C630.366 142.48 630.054 142.608 629.71 142.784L629.386 142.112C630.17 141.736 630.906 141.548 631.594 141.548C632.322 141.548 632.882 141.728 633.274 142.088C633.666 142.44 633.862 142.948 633.862 143.612V147.5H632.998V146.816C632.742 147.08 632.458 147.28 632.146 147.416C631.834 147.544 631.498 147.608 631.138 147.608ZM629.854 145.796C629.854 146.14 629.986 146.416 630.25 146.624C630.522 146.832 630.878 146.936 631.318 146.936C631.646 146.936 631.946 146.88 632.218 146.768C632.498 146.656 632.758 146.488 632.998 146.264V145.136C632.75 144.992 632.494 144.888 632.23 144.824C631.966 144.752 631.67 144.716 631.342 144.716C630.894 144.716 630.534 144.816 630.262 145.016C629.99 145.208 629.854 145.468 629.854 145.796ZM637.454 147.62C636.974 147.62 636.53 147.548 636.122 147.404C635.714 147.252 635.366 147.036 635.078 146.756L635.546 146.18C635.898 146.436 636.222 146.624 636.518 146.744C636.814 146.856 637.118 146.912 637.43 146.912C637.854 146.912 638.206 146.812 638.486 146.612C638.766 146.412 638.906 146.156 638.906 145.844C638.906 145.604 638.822 145.416 638.654 145.28C638.494 145.144 638.226 145.04 637.85 144.968L636.89 144.8C636.322 144.696 635.902 144.52 635.63 144.272C635.366 144.024 635.234 143.688 635.234 143.264C635.234 142.928 635.322 142.632 635.498 142.376C635.682 142.12 635.934 141.92 636.254 141.776C636.574 141.624 636.938 141.548 637.346 141.548C637.746 141.548 638.126 141.608 638.486 141.728C638.846 141.84 639.21 142.024 639.578 142.28L639.146 142.892C638.842 142.676 638.538 142.52 638.234 142.424C637.93 142.32 637.622 142.268 637.31 142.268C636.926 142.268 636.618 142.352 636.386 142.52C636.154 142.688 636.038 142.916 636.038 143.204C636.038 143.444 636.11 143.628 636.254 143.756C636.406 143.884 636.67 143.98 637.046 144.044L638.03 144.224C638.622 144.328 639.054 144.508 639.326 144.764C639.598 145.02 639.734 145.364 639.734 145.796C639.734 146.14 639.634 146.452 639.434 146.732C639.234 147.004 638.962 147.22 638.618 147.38C638.274 147.54 637.886 147.62 637.454 147.62ZM643.183 147.62C642.679 147.62 642.295 147.5 642.031 147.26C641.775 147.012 641.647 146.656 641.647 146.192V142.364H640.435V141.644H641.647V140.036L642.523 139.832V141.644H644.203V142.364H642.523V145.964C642.523 146.276 642.587 146.5 642.715 146.636C642.851 146.772 643.071 146.84 643.375 146.84C643.527 146.84 643.663 146.828 643.783 146.804C643.903 146.78 644.043 146.74 644.203 146.684V147.464C644.043 147.52 643.875 147.56 643.699 147.584C643.523 147.608 643.351 147.62 643.183 147.62Z" fill="#151515"/>
<rect x="500" y="172.5" width="10" height="10" fill="#003366"/>
<path d="M518.108 181.5L521.432 173.1H522.536L525.812 181.5H524.816L523.82 178.86H520.076L519.08 181.5H518.108ZM520.364 178.128H523.544L521.948 173.94L520.364 178.128ZM526.851 181.5V176.364H525.543V175.644H526.851V174.42C526.851 173.844 527.003 173.4 527.307 173.088C527.611 172.776 528.043 172.62 528.603 172.62C528.763 172.62 528.907 172.628 529.035 172.644C529.171 172.66 529.291 172.688 529.395 172.728V173.52C529.267 173.48 529.151 173.452 529.047 173.436C528.943 173.42 528.823 173.412 528.687 173.412C528.351 173.412 528.107 173.496 527.955 173.664C527.803 173.824 527.727 174.08 527.727 174.432V175.644H529.395V176.364H527.727V181.5H526.851ZM530.548 181.5V175.644H531.424V176.844C531.576 176.436 531.792 176.12 532.072 175.896C532.36 175.664 532.688 175.548 533.056 175.548C533.16 175.548 533.256 175.556 533.344 175.572C533.432 175.58 533.52 175.6 533.608 175.632V176.424C533.512 176.392 533.408 176.368 533.296 176.352C533.192 176.328 533.092 176.316 532.996 176.316C532.636 176.316 532.32 176.42 532.048 176.628C531.784 176.836 531.576 177.128 531.424 177.504V181.5H530.548ZM534.755 181.5V175.644H535.631V181.5H534.755ZM535.199 174.192C535.023 174.192 534.871 174.132 534.743 174.012C534.623 173.884 534.563 173.736 534.563 173.568C534.563 173.4 534.623 173.256 534.743 173.136C534.871 173.008 535.023 172.944 535.199 172.944C535.375 172.944 535.523 173.008 535.643 173.136C535.771 173.256 535.835 173.4 535.835 173.568C535.835 173.736 535.771 173.884 535.643 174.012C535.523 174.132 535.375 174.192 535.199 174.192ZM540.055 181.596C539.511 181.596 539.019 181.464 538.579 181.2C538.147 180.928 537.803 180.564 537.547 180.108C537.291 179.644 537.163 179.132 537.163 178.572C537.163 178.004 537.291 177.492 537.547 177.036C537.803 176.58 538.147 176.22 538.579 175.956C539.019 175.684 539.511 175.548 540.055 175.548C540.487 175.548 540.899 175.628 541.291 175.788C541.683 175.948 542.023 176.172 542.311 176.46L541.747 177.072C541.539 176.84 541.287 176.66 540.991 176.532C540.695 176.404 540.395 176.34 540.091 176.34C539.707 176.34 539.359 176.44 539.047 176.64C538.743 176.84 538.499 177.108 538.315 177.444C538.131 177.78 538.039 178.156 538.039 178.572C538.039 178.988 538.131 179.364 538.315 179.7C538.499 180.036 538.743 180.304 539.047 180.504C539.359 180.704 539.707 180.804 540.091 180.804C540.395 180.804 540.695 180.74 540.991 180.612C541.287 180.476 541.539 180.296 541.747 180.072L542.311 180.684C542.023 180.972 541.683 181.196 541.291 181.356C540.899 181.516 540.487 181.596 540.055 181.596ZM545.345 181.608C544.929 181.608 544.561 181.532 544.241 181.38C543.921 181.228 543.669 181.02 543.485 180.756C543.309 180.484 543.221 180.172 543.221 179.82C543.221 179.468 543.313 179.164 543.497 178.908C543.681 178.644 543.937 178.44 544.265 178.296C544.593 178.152 544.977 178.08 545.417 178.08C545.753 178.08 546.069 178.116 546.365 178.188C546.669 178.26 546.949 178.376 547.205 178.536V177.732C547.205 177.252 547.077 176.892 546.821 176.652C546.565 176.404 546.189 176.28 545.693 176.28C545.421 176.28 545.141 176.32 544.853 176.4C544.573 176.48 544.261 176.608 543.917 176.784L543.593 176.112C544.377 175.736 545.113 175.548 545.801 175.548C546.529 175.548 547.089 175.728 547.481 176.088C547.873 176.44 548.069 176.948 548.069 177.612V181.5H547.205V180.816C546.949 181.08 546.665 181.28 546.353 181.416C546.041 181.544 545.705 181.608 545.345 181.608ZM544.061 179.796C544.061 180.14 544.193 180.416 544.457 180.624C544.729 180.832 545.085 180.936 545.525 180.936C545.853 180.936 546.153 180.88 546.425 180.768C546.705 180.656 546.965 180.488 547.205 180.264V179.136C546.957 178.992 546.701 178.888 546.437 178.824C546.173 178.752 545.877 178.716 545.549 178.716C545.101 178.716 544.741 178.816 544.469 179.016C544.197 179.208 544.061 179.468 544.061 179.796Z" fill="#151515"/>
<rect x="500" y="206.5" width="10" height="10" fill="#4394E5"/>
<path d="M519.068 215.5V207.1H519.992V214.684H524.732V215.5H519.068ZM528.001 215.608C527.585 215.608 527.217 215.532 526.897 215.38C526.577 215.228 526.325 215.02 526.141 214.756C525.965 214.484 525.877 214.172 525.877 213.82C525.877 213.468 525.969 213.164 526.153 212.908C526.337 212.644 526.593 212.44 526.921 212.296C527.249 212.152 527.633 212.08 528.073 212.08C528.409 212.08 528.725 212.116 529.021 212.188C529.325 212.26 529.605 212.376 529.861 212.536V211.732C529.861 211.252 529.733 210.892 529.477 210.652C529.221 210.404 528.845 210.28 528.349 210.28C528.077 210.28 527.797 210.32 527.509 210.4C527.229 210.48 526.917 210.608 526.573 210.784L526.249 210.112C527.033 209.736 527.769 209.548 528.457 209.548C529.185 209.548 529.745 209.728 530.137 210.088C530.529 210.44 530.725 210.948 530.725 211.612V215.5H529.861V214.816C529.605 215.08 529.321 215.28 529.009 215.416C528.697 215.544 528.361 215.608 528.001 215.608ZM526.717 213.796C526.717 214.14 526.849 214.416 527.113 214.624C527.385 214.832 527.741 214.936 528.181 214.936C528.509 214.936 528.809 214.88 529.081 214.768C529.361 214.656 529.621 214.488 529.861 214.264V213.136C529.613 212.992 529.357 212.888 529.093 212.824C528.829 212.752 528.533 212.716 528.205 212.716C527.757 212.716 527.397 212.816 527.125 213.016C526.853 213.208 526.717 213.468 526.717 213.796ZM534.562 215.62C534.058 215.62 533.674 215.5 533.41 215.26C533.154 215.012 533.026 214.656 533.026 214.192V210.364H531.814V209.644H533.026V208.036L533.902 207.832V209.644H535.582V210.364H533.902V213.964C533.902 214.276 533.966 214.5 534.094 214.636C534.23 214.772 534.45 214.84 534.754 214.84C534.906 214.84 535.042 214.828 535.162 214.804C535.282 214.78 535.422 214.74 535.582 214.684V215.464C535.422 215.52 535.254 215.56 535.078 215.584C534.902 215.608 534.73 215.62 534.562 215.62ZM536.853 215.5V209.644H537.729V215.5H536.853ZM537.297 208.192C537.121 208.192 536.969 208.132 536.841 208.012C536.721 207.884 536.661 207.736 536.661 207.568C536.661 207.4 536.721 207.256 536.841 207.136C536.969 207.008 537.121 206.944 537.297 206.944C537.473 206.944 537.621 207.008 537.741 207.136C537.869 207.256 537.933 207.4 537.933 207.568C537.933 207.736 537.869 207.884 537.741 208.012C537.621 208.132 537.473 208.192 537.297 208.192ZM539.525 215.5V209.644H540.401V210.592C540.625 210.24 540.893 209.98 541.205 209.812C541.517 209.636 541.869 209.548 542.261 209.548C542.685 209.548 543.053 209.64 543.365 209.824C543.685 210 543.933 210.252 544.109 210.58C544.293 210.9 544.385 211.276 544.385 211.708V215.5H543.509V211.96C543.509 211.44 543.365 211.032 543.077 210.736C542.797 210.432 542.417 210.28 541.937 210.28C541.617 210.28 541.325 210.356 541.061 210.508C540.797 210.66 540.577 210.884 540.401 211.18V215.5H539.525ZM548.155 215.5L551.479 207.1H552.583L555.859 215.5H554.863L553.867 212.86H550.123L549.127 215.5H548.155ZM550.411 212.128H553.591L551.995 207.94L550.411 212.128ZM556.869 215.5V209.644H557.745V210.556C557.969 210.22 558.225 209.968 558.513 209.8C558.801 209.632 559.125 209.548 559.485 209.548C559.901 209.548 560.265 209.652 560.577 209.86C560.889 210.06 561.125 210.336 561.285 210.688C561.517 210.312 561.793 210.028 562.113 209.836C562.441 209.644 562.817 209.548 563.241 209.548C563.633 209.548 563.977 209.64 564.273 209.824C564.577 210.008 564.813 210.264 564.981 210.592C565.149 210.912 565.233 211.288 565.233 211.72V215.5H564.357V211.936C564.357 211.424 564.229 211.02 563.973 210.724C563.717 210.428 563.365 210.28 562.917 210.28C562.613 210.28 562.337 210.356 562.089 210.508C561.849 210.66 561.637 210.892 561.453 211.204C561.469 211.284 561.481 211.368 561.489 211.456C561.497 211.544 561.501 211.632 561.501 211.72V215.5H560.625V211.936C560.625 211.424 560.493 211.02 560.229 210.724C559.973 210.428 559.621 210.28 559.173 210.28C558.573 210.28 558.097 210.568 557.745 211.144V215.5H556.869ZM569.645 215.62C569.101 215.62 568.609 215.488 568.169 215.224C567.729 214.952 567.381 214.588 567.125 214.132C566.869 213.668 566.741 213.148 566.741 212.572C566.741 211.996 566.861 211.48 567.101 211.024C567.349 210.568 567.681 210.208 568.097 209.944C568.513 209.68 568.977 209.548 569.489 209.548C570.009 209.548 570.469 209.68 570.869 209.944C571.277 210.2 571.597 210.552 571.829 211C572.069 211.44 572.189 211.94 572.189 212.5V212.764H567.593C567.625 213.164 567.733 213.524 567.917 213.844C568.109 214.156 568.357 214.404 568.661 214.588C568.973 214.764 569.313 214.852 569.681 214.852C569.985 214.852 570.277 214.8 570.557 214.696C570.845 214.584 571.089 214.436 571.289 214.252L571.841 214.84C571.505 215.104 571.157 215.3 570.797 215.428C570.437 215.556 570.053 215.62 569.645 215.62ZM567.617 212.14H571.325C571.285 211.788 571.177 211.476 571.001 211.204C570.833 210.924 570.617 210.704 570.353 210.544C570.097 210.384 569.809 210.304 569.489 210.304C569.169 210.304 568.877 210.384 568.613 210.544C568.349 210.696 568.129 210.912 567.953 211.192C567.785 211.464 567.673 211.78 567.617 212.14ZM573.685 215.5V209.644H574.561V210.844C574.713 210.436 574.929 210.12 575.209 209.896C575.497 209.664 575.825 209.548 576.193 209.548C576.297 209.548 576.393 209.556 576.481 209.572C576.569 209.58 576.657 209.6 576.745 209.632V210.424C576.649 210.392 576.545 210.368 576.433 210.352C576.329 210.328 576.229 210.316 576.133 210.316C575.773 210.316 575.457 210.42 575.185 210.628C574.921 210.836 574.713 211.128 574.561 211.504V215.5H573.685ZM577.892 215.5V209.644H578.768V215.5H577.892ZM578.336 208.192C578.16 208.192 578.008 208.132 577.88 208.012C577.76 207.884 577.7 207.736 577.7 207.568C577.7 207.4 577.76 207.256 577.88 207.136C578.008 207.008 578.16 206.944 578.336 206.944C578.512 206.944 578.66 207.008 578.78 207.136C578.908 207.256 578.972 207.4 578.972 207.568C578.972 207.736 578.908 207.884 578.78 208.012C578.66 208.132 578.512 208.192 578.336 208.192ZM583.192 215.596C582.648 215.596 582.156 215.464 581.716 215.2C581.284 214.928 580.94 214.564 580.684 214.108C580.428 213.644 580.3 213.132 580.3 212.572C580.3 212.004 580.428 211.492 580.684 211.036C580.94 210.58 581.284 210.22 581.716 209.956C582.156 209.684 582.648 209.548 583.192 209.548C583.624 209.548 584.036 209.628 584.428 209.788C584.82 209.948 585.16 210.172 585.448 210.46L584.884 211.072C584.676 210.84 584.424 210.66 584.128 210.532C583.832 210.404 583.532 210.34 583.228 210.34C582.844 210.34 582.496 210.44 582.184 210.64C581.88 210.84 581.636 211.108 581.452 211.444C581.268 211.78 581.176 212.156 581.176 212.572C581.176 212.988 581.268 213.364 581.452 213.7C581.636 214.036 581.88 214.304 582.184 214.504C582.496 214.704 582.844 214.804 583.228 214.804C583.532 214.804 583.832 214.74 584.128 214.612C584.424 214.476 584.676 214.296 584.884 214.072L585.448 214.684C585.16 214.972 584.82 215.196 584.428 215.356C584.036 215.516 583.624 215.596 583.192 215.596ZM588.482 215.608C588.066 215.608 587.698 215.532 587.378 215.38C587.058 215.228 586.806 215.02 586.622 214.756C586.446 214.484 586.358 214.172 586.358 213.82C586.358 213.468 586.45 213.164 586.634 212.908C586.818 212.644 587.074 212.44 587.402 212.296C587.73 212.152 588.114 212.08 588.554 212.08C588.89 212.08 589.206 212.116 589.502 212.188C589.806 212.26 590.086 212.376 590.342 212.536V211.732C590.342 211.252 590.214 210.892 589.958 210.652C589.702 210.404 589.326 210.28 588.83 210.28C588.558 210.28 588.278 210.32 587.99 210.4C587.71 210.48 587.398 210.608 587.054 210.784L586.73 210.112C587.514 209.736 588.25 209.548 588.938 209.548C589.666 209.548 590.226 209.728 590.618 210.088C591.01 210.44 591.206 210.948 591.206 211.612V215.5H590.342V214.816C590.086 215.08 589.802 215.28 589.49 215.416C589.178 215.544 588.842 215.608 588.482 215.608ZM587.198 213.796C587.198 214.14 587.33 214.416 587.594 214.624C587.866 214.832 588.222 214.936 588.662 214.936C588.99 214.936 589.29 214.88 589.562 214.768C589.842 214.656 590.102 214.488 590.342 214.264V213.136C590.094 212.992 589.838 212.888 589.574 212.824C589.31 212.752 589.014 212.716 588.686 212.716C588.238 212.716 587.878 212.816 587.606 213.016C587.334 213.208 587.198 213.468 587.198 213.796Z" fill="#151515"/>
<rect x="500" y="240.5" width="10" height="10" fill="#004D99"/>
<path d="M519.068 249.5V241.1H520.028L524.948 248.06L524.924 241.1H525.8V249.5H524.96L519.92 242.384L519.944 249.5H519.068ZM530.363 249.596C529.819 249.596 529.331 249.464 528.899 249.2C528.467 248.936 528.127 248.576 527.879 248.12C527.631 247.664 527.507 247.148 527.507 246.572C527.507 245.996 527.631 245.48 527.879 245.024C528.127 244.568 528.467 244.208 528.899 243.944C529.331 243.68 529.819 243.548 530.363 243.548C530.899 243.548 531.379 243.68 531.803 243.944C532.235 244.208 532.575 244.568 532.823 245.024C533.071 245.48 533.195 245.996 533.195 246.572C533.195 247.148 533.071 247.664 532.823 248.12C532.575 248.576 532.235 248.936 531.803 249.2C531.379 249.464 530.899 249.596 530.363 249.596ZM530.351 248.828C530.735 248.828 531.075 248.732 531.371 248.54C531.667 248.34 531.899 248.068 532.067 247.724C532.243 247.38 532.331 246.996 532.331 246.572C532.331 246.14 532.243 245.756 532.067 245.42C531.899 245.076 531.667 244.808 531.371 244.616C531.075 244.416 530.735 244.316 530.351 244.316C529.967 244.316 529.627 244.416 529.331 244.616C529.035 244.808 528.799 245.076 528.623 245.42C528.455 245.756 528.371 246.14 528.371 246.572C528.371 246.996 528.455 247.38 528.623 247.724C528.799 248.068 529.035 248.34 529.331 248.54C529.627 248.732 529.967 248.828 530.351 248.828ZM534.732 249.5V243.644H535.608V244.844C535.76 244.436 535.976 244.12 536.256 243.896C536.544 243.664 536.872 243.548 537.24 243.548C537.344 243.548 537.44 243.556 537.528 243.572C537.616 243.58 537.704 243.6 537.792 243.632V244.424C537.696 244.392 537.592 244.368 537.48 244.352C537.376 244.328 537.276 244.316 537.18 244.316C536.82 244.316 536.504 244.42 536.232 244.628C535.968 244.836 535.76 245.128 535.608 245.504V249.5H534.732ZM541.183 249.62C540.679 249.62 540.295 249.5 540.031 249.26C539.775 249.012 539.647 248.656 539.647 248.192V244.364H538.435V243.644H539.647V242.036L540.523 241.832V243.644H542.203V244.364H540.523V247.964C540.523 248.276 540.587 248.5 540.715 248.636C540.851 248.772 541.071 248.84 541.375 248.84C541.527 248.84 541.663 248.828 541.783 248.804C541.903 248.78 542.043 248.74 542.203 248.684V249.464C542.043 249.52 541.875 249.56 541.699 249.584C541.523 249.608 541.351 249.62 541.183 249.62ZM543.486 249.5V240.836L544.362 240.656V244.592C544.586 244.24 544.854 243.98 545.166 243.812C545.478 243.636 545.83 243.548 546.222 243.548C546.646 243.548 547.014 243.64 547.326 243.824C547.646 244 547.894 244.252 548.07 244.58C548.254 244.9 548.346 245.276 548.346 245.708V249.5H547.47V245.96C547.47 245.44 547.326 245.032 547.038 244.736C546.758 244.432 546.378 244.28 545.898 244.28C545.578 244.28 545.286 244.356 545.022 244.508C544.758 244.66 544.538 244.884 544.362 245.18V249.5H543.486ZM552.116 249.5L555.44 241.1H556.544L559.82 249.5H558.824L557.828 246.86H554.084L553.088 249.5H552.116ZM554.372 246.128H557.552L555.956 241.94L554.372 246.128ZM560.83 249.5V243.644H561.706V244.556C561.93 244.22 562.186 243.968 562.474 243.8C562.762 243.632 563.086 243.548 563.446 243.548C563.862 243.548 564.226 243.652 564.538 243.86C564.85 244.06 565.086 244.336 565.246 244.688C565.478 244.312 565.754 244.028 566.074 243.836C566.402 243.644 566.778 243.548 567.202 243.548C567.594 243.548 567.938 243.64 568.234 243.824C568.538 244.008 568.774 244.264 568.942 244.592C569.11 244.912 569.194 245.288 569.194 245.72V249.5H568.318V245.936C568.318 245.424 568.19 245.02 567.934 244.724C567.678 244.428 567.326 244.28 566.878 244.28C566.574 244.28 566.298 244.356 566.05 244.508C565.81 244.66 565.598 244.892 565.414 245.204C565.43 245.284 565.442 245.368 565.45 245.456C565.458 245.544 565.462 245.632 565.462 245.72V249.5H564.586V245.936C564.586 245.424 564.454 245.02 564.19 244.724C563.934 244.428 563.582 244.28 563.134 244.28C562.534 244.28 562.058 244.568 561.706 245.144V249.5H560.83ZM573.606 249.62C573.062 249.62 572.57 249.488 572.13 249.224C571.69 248.952 571.342 248.588 571.086 248.132C570.83 247.668 570.702 247.148 570.702 246.572C570.702 245.996 570.822 245.48 571.062 245.024C571.31 244.568 571.642 244.208 572.058 243.944C572.474 243.68 572.938 243.548 573.45 243.548C573.97 243.548 574.43 243.68 574.83 243.944C575.238 244.2 575.558 244.552 575.79 245C576.03 245.44 576.15 245.94 576.15 246.5V246.764H571.554C571.586 247.164 571.694 247.524 571.878 247.844C572.07 248.156 572.318 248.404 572.622 248.588C572.934 248.764 573.274 248.852 573.642 248.852C573.946 248.852 574.238 248.8 574.518 248.696C574.806 248.584 575.05 248.436 575.25 248.252L575.802 248.84C575.466 249.104 575.118 249.3 574.758 249.428C574.398 249.556 574.014 249.62 573.606 249.62ZM571.578 246.14H575.286C575.246 245.788 575.138 245.476 574.962 245.204C574.794 244.924 574.578 244.704 574.314 244.544C574.058 244.384 573.77 244.304 573.45 244.304C573.13 244.304 572.838 244.384 572.574 244.544C572.31 244.696 572.09 244.912 571.914 245.192C571.746 245.464 571.634 245.78 571.578 246.14ZM577.646 249.5V243.644H578.522V244.844C578.674 244.436 578.89 244.12 579.17 243.896C579.458 243.664 579.786 243.548 580.154 243.548C580.258 243.548 580.354 243.556 580.442 243.572C580.53 243.58 580.618 243.6 580.706 243.632V244.424C580.61 244.392 580.506 244.368 580.394 244.352C580.29 244.328 580.19 244.316 580.094 244.316C579.734 244.316 579.418 244.42 579.146 244.628C578.882 244.836 578.674 245.128 578.522 245.504V249.5H577.646ZM581.853 249.5V243.644H582.729V249.5H581.853ZM582.297 242.192C582.121 242.192 581.969 242.132 581.841 242.012C581.721 241.884 581.661 241.736 581.661 241.568C581.661 241.4 581.721 241.256 581.841 241.136C581.969 241.008 582.121 240.944 582.297 240.944C582.473 240.944 582.621 241.008 582.741 241.136C582.869 241.256 582.933 241.4 582.933 241.568C582.933 241.736 582.869 241.884 582.741 242.012C582.621 242.132 582.473 242.192 582.297 242.192ZM587.153 249.596C586.609 249.596 586.117 249.464 585.677 249.2C585.245 248.928 584.901 248.564 584.645 248.108C584.389 247.644 584.261 247.132 584.261 246.572C584.261 246.004 584.389 245.492 584.645 245.036C584.901 244.58 585.245 244.22 585.677 243.956C586.117 243.684 586.609 243.548 587.153 243.548C587.585 243.548 587.997 243.628 588.389 243.788C588.781 243.948 589.121 244.172 589.409 244.46L588.845 245.072C588.637 244.84 588.385 244.66 588.089 244.532C587.793 244.404 587.493 244.34 587.189 244.34C586.805 244.34 586.457 244.44 586.145 244.64C585.841 244.84 585.597 245.108 585.413 245.444C585.229 245.78 585.137 246.156 585.137 246.572C585.137 246.988 585.229 247.364 585.413 247.7C585.597 248.036 585.841 248.304 586.145 248.504C586.457 248.704 586.805 248.804 587.189 248.804C587.493 248.804 587.793 248.74 588.089 248.612C588.385 248.476 588.637 248.296 588.845 248.072L589.409 248.684C589.121 248.972 588.781 249.196 588.389 249.356C587.997 249.516 587.585 249.596 587.153 249.596ZM592.442 249.608C592.026 249.608 591.658 249.532 591.338 249.38C591.018 249.228 590.766 249.02 590.582 248.756C590.406 248.484 590.318 248.172 590.318 247.82C590.318 247.468 590.41 247.164 590.594 246.908C590.778 246.644 591.034 246.44 591.362 246.296C591.69 246.152 592.074 246.08 592.514 246.08C592.85 246.08 593.166 246.116 593.462 246.188C593.766 246.26 594.046 246.376 594.302 246.536V245.732C594.302 245.252 594.174 244.892 593.918 244.652C593.662 244.404 593.286 244.28 592.79 244.28C592.518 244.28 592.238 244.32 591.95 244.4C591.67 244.48 591.358 244.608 591.014 244.784L590.69 244.112C591.474 243.736 592.21 243.548 592.898 243.548C593.626 243.548 594.186 243.728 594.578 244.088C594.97 244.44 595.166 244.948 595.166 245.612V249.5H594.302V248.816C594.046 249.08 593.762 249.28 593.45 249.416C593.138 249.544 592.802 249.608 592.442 249.608ZM591.158 247.796C591.158 248.14 591.29 248.416 591.554 248.624C591.826 248.832 592.182 248.936 592.622 248.936C592.95 248.936 593.25 248.88 593.522 248.768C593.802 248.656 594.062 248.488 594.302 248.264V247.136C594.054 246.992 593.798 246.888 593.534 246.824C593.27 246.752 592.974 246.716 592.646 246.716C592.198 246.716 591.838 246.816 591.566 247.016C591.294 247.208 591.158 247.468 591.158 247.796Z" fill="#151515"/>
</svg>
