<svg width="415" height="69" viewBox="0 0 415 69" fill="none" xmlns="http://www.w3.org/2000/svg">
<rect width="415" height="69" fill="white"/>
<path d="M93 28C93 25.7909 94.7909 24 97 24H210C212.209 24 214 25.7909 214 28V41C214 43.2091 212.209 45 210 45H97C94.7909 45 93 43.2091 93 41V28Z" fill="#F2F2F2"/>
<path d="M97.714 39V38.258L101.634 33.974C101.942 33.638 102.18 33.344 102.348 33.092C102.525 32.8307 102.647 32.588 102.712 32.364C102.787 32.14 102.824 31.902 102.824 31.65C102.824 31.1553 102.628 30.7493 102.236 30.432C101.853 30.1053 101.363 29.942 100.766 29.942C100.309 29.942 99.884 30.0307 99.492 30.208C99.1 30.3853 98.6613 30.6933 98.176 31.132L97.588 30.432C98.1013 29.9653 98.6193 29.62 99.142 29.396C99.6647 29.1627 100.211 29.046 100.78 29.046C101.368 29.046 101.891 29.158 102.348 29.382C102.805 29.5967 103.165 29.8953 103.426 30.278C103.687 30.6607 103.818 31.0993 103.818 31.594C103.818 31.9207 103.776 32.224 103.692 32.504C103.608 32.7747 103.459 33.0687 103.244 33.386C103.029 33.694 102.721 34.0673 102.32 34.506L98.974 38.132L104.028 38.118V39H97.714ZM106.42 39.112C106.215 39.112 106.037 39.0373 105.888 38.888C105.748 38.7387 105.678 38.5613 105.678 38.356C105.678 38.1413 105.748 37.964 105.888 37.824C106.037 37.6747 106.215 37.6 106.42 37.6C106.625 37.6 106.798 37.6747 106.938 37.824C107.087 37.964 107.162 38.1413 107.162 38.356C107.162 38.5613 107.087 38.7387 106.938 38.888C106.798 39.0373 106.625 39.112 106.42 39.112ZM111.981 39.154C111.309 39.154 110.679 39.0373 110.091 38.804C109.513 38.5707 108.999 38.2253 108.551 37.768L109.223 37.11C109.634 37.5207 110.054 37.8193 110.483 38.006C110.922 38.1833 111.417 38.272 111.967 38.272C112.443 38.272 112.863 38.188 113.227 38.02C113.601 37.852 113.89 37.6187 114.095 37.32C114.301 37.0213 114.403 36.6807 114.403 36.298C114.403 35.934 114.31 35.612 114.123 35.332C113.946 35.0427 113.699 34.8187 113.381 34.66C113.064 34.5013 112.7 34.422 112.289 34.422H111.127V33.554H112.247C112.779 33.554 113.209 33.3907 113.535 33.064C113.871 32.7373 114.039 32.3127 114.039 31.79C114.039 31.4447 113.946 31.132 113.759 30.852C113.573 30.572 113.316 30.3527 112.989 30.194C112.672 30.026 112.313 29.942 111.911 29.942C111.407 29.942 110.955 30.0353 110.553 30.222C110.161 30.3993 109.76 30.7027 109.349 31.132L108.677 30.46C109.116 29.9933 109.611 29.6433 110.161 29.41C110.712 29.1673 111.3 29.046 111.925 29.046C112.523 29.046 113.055 29.1627 113.521 29.396C113.997 29.6293 114.371 29.9513 114.641 30.362C114.912 30.7633 115.047 31.2207 115.047 31.734C115.047 32.2473 114.879 32.7093 114.543 33.12C114.207 33.5213 113.764 33.8013 113.213 33.96C113.876 34.1093 114.408 34.3987 114.809 34.828C115.211 35.2573 115.411 35.7567 115.411 36.326C115.411 36.8673 115.262 37.3527 114.963 37.782C114.674 38.2113 114.268 38.5473 113.745 38.79C113.232 39.0327 112.644 39.154 111.981 39.154ZM117.699 39.112C117.494 39.112 117.317 39.0373 117.167 38.888C117.027 38.7387 116.957 38.5613 116.957 38.356C116.957 38.1413 117.027 37.964 117.167 37.824C117.317 37.6747 117.494 37.6 117.699 37.6C117.905 37.6 118.077 37.6747 118.217 37.824C118.367 37.964 118.441 38.1413 118.441 38.356C118.441 38.5613 118.367 38.7387 118.217 38.888C118.077 39.0373 117.905 39.112 117.699 39.112ZM125 39V36.382H119.708V35.584L124.916 29.2H125.994V35.5H127.352V36.382H125.994V39H125ZM120.884 35.5H125V30.418L120.884 35.5ZM128.67 35.5V34.618H133.332V35.5H128.67ZM134.409 39V38.258L138.329 33.974C138.637 33.638 138.875 33.344 139.043 33.092C139.221 32.8307 139.342 32.588 139.407 32.364C139.482 32.14 139.519 31.902 139.519 31.65C139.519 31.1553 139.323 30.7493 138.931 30.432C138.549 30.1053 138.059 29.942 137.461 29.942C137.004 29.942 136.579 30.0307 136.187 30.208C135.795 30.3853 135.357 30.6933 134.871 31.132L134.283 30.432C134.797 29.9653 135.315 29.62 135.837 29.396C136.36 29.1627 136.906 29.046 137.475 29.046C138.063 29.046 138.586 29.158 139.043 29.382C139.501 29.5967 139.86 29.8953 140.121 30.278C140.383 30.6607 140.513 31.0993 140.513 31.594C140.513 31.9207 140.471 32.224 140.387 32.504C140.303 32.7747 140.154 33.0687 139.939 33.386C139.725 33.694 139.417 34.0673 139.015 34.506L135.669 38.132L140.723 38.118V39H134.409ZM142.219 35.5V34.618H146.881V35.5H142.219ZM148.786 39V32.168H149.808V33.568C149.986 33.092 150.238 32.7233 150.564 32.462C150.9 32.1913 151.283 32.056 151.712 32.056C151.834 32.056 151.946 32.0653 152.048 32.084C152.151 32.0933 152.254 32.1167 152.356 32.154V33.078C152.244 33.0407 152.123 33.0127 151.992 32.994C151.871 32.966 151.754 32.952 151.642 32.952C151.222 32.952 150.854 33.0733 150.536 33.316C150.228 33.5587 149.986 33.8993 149.808 34.338V39H148.786ZM156.364 39.14C155.73 39.14 155.156 38.986 154.642 38.678C154.129 38.3607 153.723 37.936 153.424 37.404C153.126 36.8627 152.976 36.256 152.976 35.584C152.976 34.912 153.116 34.31 153.396 33.778C153.686 33.246 154.073 32.826 154.558 32.518C155.044 32.21 155.585 32.056 156.182 32.056C156.789 32.056 157.326 32.21 157.792 32.518C158.268 32.8167 158.642 33.2273 158.912 33.75C159.192 34.2633 159.332 34.8467 159.332 35.5V35.808H153.97C154.008 36.2747 154.134 36.6947 154.348 37.068C154.572 37.432 154.862 37.7213 155.216 37.936C155.58 38.1413 155.977 38.244 156.406 38.244C156.761 38.244 157.102 38.1833 157.428 38.062C157.764 37.9313 158.049 37.7587 158.282 37.544L158.926 38.23C158.534 38.538 158.128 38.7667 157.708 38.916C157.288 39.0653 156.84 39.14 156.364 39.14ZM153.998 35.08H158.324C158.278 34.6693 158.152 34.3053 157.946 33.988C157.75 33.6613 157.498 33.4047 157.19 33.218C156.892 33.0313 156.556 32.938 156.182 32.938C155.809 32.938 155.468 33.0313 155.16 33.218C154.852 33.3953 154.596 33.6473 154.39 33.974C154.194 34.2913 154.064 34.66 153.998 35.08ZM163.919 39.098C163.331 39.098 162.799 38.944 162.323 38.636C161.847 38.3187 161.469 37.8987 161.189 37.376C160.909 36.844 160.769 36.2513 160.769 35.598C160.769 34.9353 160.909 34.3427 161.189 33.82C161.479 33.288 161.866 32.868 162.351 32.56C162.837 32.2427 163.378 32.084 163.975 32.084C164.395 32.084 164.787 32.168 165.151 32.336C165.515 32.4947 165.833 32.728 166.103 33.036V28.892L167.125 28.682V39H166.103V38.09C165.842 38.4167 165.525 38.6687 165.151 38.846C164.778 39.014 164.367 39.098 163.919 39.098ZM164.171 38.202C164.573 38.202 164.941 38.1227 165.277 37.964C165.613 37.8053 165.889 37.5813 166.103 37.292V33.904C165.879 33.6147 165.595 33.3907 165.249 33.232C164.913 33.064 164.554 32.98 164.171 32.98C163.714 32.98 163.303 33.092 162.939 33.316C162.585 33.54 162.3 33.848 162.085 34.24C161.88 34.632 161.777 35.08 161.777 35.584C161.777 36.0787 161.88 36.5267 162.085 36.928C162.3 37.32 162.585 37.6327 162.939 37.866C163.303 38.09 163.714 38.202 164.171 38.202ZM169.226 39V28.892L170.248 28.682V33.274C170.509 32.8633 170.822 32.56 171.186 32.364C171.55 32.1587 171.96 32.056 172.418 32.056C172.912 32.056 173.342 32.1633 173.706 32.378C174.079 32.5833 174.368 32.8773 174.574 33.26C174.788 33.6333 174.896 34.072 174.896 34.576V39H173.874V34.87C173.874 34.2633 173.706 33.7873 173.37 33.442C173.043 33.0873 172.6 32.91 172.04 32.91C171.666 32.91 171.326 32.9987 171.018 33.176C170.71 33.3533 170.453 33.6147 170.248 33.96V39H169.226ZM179.064 39.126C178.579 39.126 178.15 39.0373 177.776 38.86C177.403 38.6827 177.109 38.44 176.894 38.132C176.689 37.8147 176.586 37.4507 176.586 37.04C176.586 36.6293 176.694 36.2747 176.908 35.976C177.123 35.668 177.422 35.43 177.804 35.262C178.187 35.094 178.635 35.01 179.148 35.01C179.54 35.01 179.909 35.052 180.254 35.136C180.609 35.22 180.936 35.3553 181.234 35.542V34.604C181.234 34.044 181.085 33.624 180.786 33.344C180.488 33.0547 180.049 32.91 179.47 32.91C179.153 32.91 178.826 32.9567 178.49 33.05C178.164 33.1433 177.8 33.2927 177.398 33.498L177.02 32.714C177.935 32.2753 178.794 32.056 179.596 32.056C180.446 32.056 181.099 32.266 181.556 32.686C182.014 33.0967 182.242 33.6893 182.242 34.464V39H181.234V38.202C180.936 38.51 180.604 38.7433 180.24 38.902C179.876 39.0513 179.484 39.126 179.064 39.126ZM177.566 37.012C177.566 37.4133 177.72 37.7353 178.028 37.978C178.346 38.2207 178.761 38.342 179.274 38.342C179.657 38.342 180.007 38.2767 180.324 38.146C180.651 38.0153 180.954 37.8193 181.234 37.558V36.242C180.945 36.074 180.646 35.9527 180.338 35.878C180.03 35.794 179.685 35.752 179.302 35.752C178.78 35.752 178.36 35.8687 178.042 36.102C177.725 36.326 177.566 36.6293 177.566 37.012ZM186.718 39.14C186.13 39.14 185.682 39 185.374 38.72C185.076 38.4307 184.926 38.0153 184.926 37.474V33.008H183.512V32.168H184.926V30.292L185.948 30.054V32.168H187.908V33.008H185.948V37.208C185.948 37.572 186.023 37.8333 186.172 37.992C186.331 38.1507 186.588 38.23 186.942 38.23C187.12 38.23 187.278 38.216 187.418 38.188C187.558 38.16 187.722 38.1133 187.908 38.048V38.958C187.722 39.0233 187.526 39.07 187.32 39.098C187.115 39.126 186.914 39.14 186.718 39.14Z" fill="#151515"/>
<path fill-rule="evenodd" clip-rule="evenodd" d="M204.937 38.75C205.248 38.75 205.5 38.4981 205.5 38.1875V32H203.062C202.753 32 202.5 31.7469 202.5 31.4375V29H198.562C198.252 29 198 29.2518 198 29.5625V38.1875C198 38.4981 198.252 38.75 198.562 38.75H204.937ZM205.5 31.25V31.108C205.5 30.9794 205.426 30.8012 205.335 30.7102L203.79 29.1647C203.699 29.0738 203.521 29 203.392 29H203.25V31.25H205.5ZM201.937 41C202.248 41 202.5 40.7481 202.5 40.4375V39.5H198.562C197.839 39.5 197.25 38.9112 197.25 38.1875V31.25H195.562C195.252 31.25 195 31.5018 195 31.8125V40.4375C195 40.7481 195.252 41 195.562 41H201.937Z" fill="#707070"/>
<path d="M48.6388 39.154C47.9668 39.154 47.3695 39.0327 46.8468 38.79C46.3242 38.5473 45.9088 38.216 45.6008 37.796C45.3022 37.3667 45.1528 36.886 45.1528 36.354C45.1528 35.9527 45.2508 35.584 45.4468 35.248C45.6428 34.9027 45.9135 34.6087 46.2588 34.366C46.6135 34.114 47.0148 33.9367 47.4628 33.834C46.8935 33.6753 46.4268 33.3907 46.0628 32.98C45.7082 32.5693 45.5308 32.1073 45.5308 31.594C45.5308 31.1087 45.6662 30.6747 45.9368 30.292C46.2075 29.9093 46.5762 29.606 47.0428 29.382C47.5188 29.158 48.0508 29.046 48.6388 29.046C49.2362 29.046 49.7682 29.158 50.2348 29.382C50.7015 29.606 51.0702 29.9093 51.3408 30.292C51.6115 30.6747 51.7468 31.1087 51.7468 31.594C51.7468 32.1073 51.5695 32.5693 51.2148 32.98C50.8602 33.3907 50.3935 33.6753 49.8148 33.834C50.4962 33.9927 51.0515 34.3053 51.4808 34.772C51.9102 35.2293 52.1248 35.7567 52.1248 36.354C52.1248 36.886 51.9755 37.3667 51.6768 37.796C51.3782 38.216 50.9628 38.5473 50.4308 38.79C49.9082 39.0327 49.3108 39.154 48.6388 39.154ZM48.6388 33.414C49.0402 33.414 49.3995 33.3347 49.7168 33.176C50.0435 33.0173 50.3002 32.8073 50.4868 32.546C50.6735 32.2753 50.7668 31.972 50.7668 31.636C50.7668 31.3 50.6735 30.9967 50.4868 30.726C50.3002 30.4553 50.0435 30.2453 49.7168 30.096C49.3995 29.9373 49.0402 29.858 48.6388 29.858C48.2375 29.858 47.8735 29.9373 47.5468 30.096C47.2295 30.2453 46.9775 30.4553 46.7908 30.726C46.6042 30.9967 46.5108 31.3 46.5108 31.636C46.5108 31.972 46.6042 32.2753 46.7908 32.546C46.9775 32.8073 47.2295 33.0173 47.5468 33.176C47.8735 33.3347 48.2375 33.414 48.6388 33.414ZM48.6388 38.342C49.1148 38.342 49.5395 38.2533 49.9128 38.076C50.2862 37.8987 50.5802 37.656 50.7948 37.348C51.0188 37.04 51.1308 36.6947 51.1308 36.312C51.1308 35.9293 51.0188 35.584 50.7948 35.276C50.5802 34.968 50.2862 34.7253 49.9128 34.548C49.5395 34.3707 49.1148 34.282 48.6388 34.282C48.1628 34.282 47.7382 34.3707 47.3648 34.548C46.9915 34.7253 46.6928 34.968 46.4688 35.276C46.2542 35.584 46.1468 35.9293 46.1468 36.312C46.1468 36.6947 46.2542 37.04 46.4688 37.348C46.6928 37.656 46.9915 37.8987 47.3648 38.076C47.7382 38.2533 48.1628 38.342 48.6388 38.342ZM54.5834 39.112C54.378 39.112 54.2007 39.0373 54.0514 38.888C53.9114 38.7387 53.8414 38.5613 53.8414 38.356C53.8414 38.1413 53.9114 37.964 54.0514 37.824C54.2007 37.6747 54.378 37.6 54.5834 37.6C54.7887 37.6 54.9614 37.6747 55.1014 37.824C55.2507 37.964 55.3254 38.1413 55.3254 38.356C55.3254 38.5613 55.2507 38.7387 55.1014 38.888C54.9614 39.0373 54.7887 39.112 54.5834 39.112ZM61.126 39L65.004 29.2H66.292L70.114 39H68.952L67.79 35.92H63.422L62.26 39H61.126ZM63.758 35.066H67.468L65.606 30.18L63.758 35.066ZM73.8608 39.098C73.2728 39.098 72.7408 38.944 72.2648 38.636C71.7888 38.3187 71.4108 37.8987 71.1308 37.376C70.8508 36.844 70.7108 36.2513 70.7108 35.598C70.7108 34.9353 70.8508 34.3427 71.1308 33.82C71.4201 33.288 71.8074 32.868 72.2928 32.56C72.7781 32.2427 73.3194 32.084 73.9168 32.084C74.3368 32.084 74.7288 32.168 75.0928 32.336C75.4568 32.4947 75.7741 32.728 76.0448 33.036V28.892L77.0668 28.682V39H76.0448V38.09C75.7834 38.4167 75.4661 38.6687 75.0928 38.846C74.7194 39.014 74.3088 39.098 73.8608 39.098ZM74.1128 38.202C74.5141 38.202 74.8828 38.1227 75.2188 37.964C75.5548 37.8053 75.8301 37.5813 76.0448 37.292V33.904C75.8208 33.6147 75.5361 33.3907 75.1908 33.232C74.8548 33.064 74.4954 32.98 74.1128 32.98C73.6554 32.98 73.2448 33.092 72.8808 33.316C72.5261 33.54 72.2414 33.848 72.0267 34.24C71.8214 34.632 71.7188 35.08 71.7188 35.584C71.7188 36.0787 71.8214 36.5267 72.0267 36.928C72.2414 37.32 72.5261 37.6327 72.8808 37.866C73.2448 38.09 73.6554 38.202 74.1128 38.202ZM82.0092 39.098C81.4212 39.098 80.8892 38.944 80.4132 38.636C79.9372 38.3187 79.5592 37.8987 79.2792 37.376C78.9992 36.844 78.8592 36.2513 78.8592 35.598C78.8592 34.9353 78.9992 34.3427 79.2792 33.82C79.5685 33.288 79.9559 32.868 80.4412 32.56C80.9265 32.2427 81.4679 32.084 82.0652 32.084C82.4852 32.084 82.8772 32.168 83.2412 32.336C83.6052 32.4947 83.9225 32.728 84.1932 33.036V28.892L85.2152 28.682V39H84.1932V38.09C83.9319 38.4167 83.6145 38.6687 83.2412 38.846C82.8679 39.014 82.4572 39.098 82.0092 39.098ZM82.2612 38.202C82.6625 38.202 83.0312 38.1227 83.3672 37.964C83.7032 37.8053 83.9785 37.5813 84.1932 37.292V33.904C83.9692 33.6147 83.6845 33.3907 83.3392 33.232C83.0032 33.064 82.6439 32.98 82.2612 32.98C81.8039 32.98 81.3932 33.092 81.0292 33.316C80.6745 33.54 80.3899 33.848 80.1752 34.24C79.9699 34.632 79.8672 35.08 79.8672 35.584C79.8672 36.0787 79.9699 36.5267 80.1752 36.928C80.3899 37.32 80.6745 37.6327 81.0292 37.866C81.3932 38.09 81.8039 38.202 82.2612 38.202Z" fill="black"/>
<path d="M221.036 39V32.168H222.058V39H221.036ZM221.554 30.474C221.349 30.474 221.171 30.404 221.022 30.264C220.882 30.1147 220.812 29.942 220.812 29.746C220.812 29.55 220.882 29.382 221.022 29.242C221.171 29.0927 221.349 29.018 221.554 29.018C221.759 29.018 221.932 29.0927 222.072 29.242C222.221 29.382 222.296 29.55 222.296 29.746C222.296 29.942 222.221 30.1147 222.072 30.264C221.932 30.404 221.759 30.474 221.554 30.474ZM224.154 39V32.168H225.176V33.274C225.437 32.8633 225.75 32.56 226.114 32.364C226.478 32.1587 226.888 32.056 227.346 32.056C227.84 32.056 228.27 32.1633 228.634 32.378C229.007 32.5833 229.296 32.8773 229.502 33.26C229.716 33.6333 229.824 34.072 229.824 34.576V39H228.802V34.87C228.802 34.2633 228.634 33.7873 228.298 33.442C227.971 33.0873 227.528 32.91 226.968 32.91C226.594 32.91 226.254 32.9987 225.946 33.176C225.638 33.3533 225.381 33.6147 225.176 33.96V39H224.154ZM237.75 39.14C237.162 39.14 236.714 39 236.406 38.72C236.107 38.4307 235.958 38.0153 235.958 37.474V33.008H234.544V32.168H235.958V30.292L236.98 30.054V32.168H238.94V33.008H236.98V37.208C236.98 37.572 237.054 37.8333 237.204 37.992C237.362 38.1507 237.619 38.23 237.974 38.23C238.151 38.23 238.31 38.216 238.45 38.188C238.59 38.16 238.753 38.1133 238.94 38.048V38.958C238.753 39.0233 238.557 39.07 238.352 39.098C238.146 39.126 237.946 39.14 237.75 39.14ZM240.437 39V28.892L241.459 28.682V33.274C241.72 32.8633 242.033 32.56 242.397 32.364C242.761 32.1587 243.171 32.056 243.629 32.056C244.123 32.056 244.553 32.1633 244.917 32.378C245.29 32.5833 245.579 32.8773 245.785 33.26C245.999 33.6333 246.107 34.072 246.107 34.576V39H245.085V34.87C245.085 34.2633 244.917 33.7873 244.581 33.442C244.254 33.0873 243.811 32.91 243.251 32.91C242.877 32.91 242.537 32.9987 242.229 33.176C241.921 33.3533 241.664 33.6147 241.459 33.96V39H240.437ZM251.241 39.14C250.607 39.14 250.033 38.986 249.519 38.678C249.006 38.3607 248.6 37.936 248.301 37.404C248.003 36.8627 247.853 36.256 247.853 35.584C247.853 34.912 247.993 34.31 248.273 33.778C248.563 33.246 248.95 32.826 249.435 32.518C249.921 32.21 250.462 32.056 251.059 32.056C251.666 32.056 252.203 32.21 252.669 32.518C253.145 32.8167 253.519 33.2273 253.789 33.75C254.069 34.2633 254.209 34.8467 254.209 35.5V35.808H248.847C248.885 36.2747 249.011 36.6947 249.225 37.068C249.449 37.432 249.739 37.7213 250.093 37.936C250.457 38.1413 250.854 38.244 251.283 38.244C251.638 38.244 251.979 38.1833 252.305 38.062C252.641 37.9313 252.926 37.7587 253.159 37.544L253.803 38.23C253.411 38.538 253.005 38.7667 252.585 38.916C252.165 39.0653 251.717 39.14 251.241 39.14ZM248.875 35.08H253.201C253.155 34.6693 253.029 34.3053 252.823 33.988C252.627 33.6613 252.375 33.4047 252.067 33.218C251.769 33.0313 251.433 32.938 251.059 32.938C250.686 32.938 250.345 33.0313 250.037 33.218C249.729 33.3953 249.473 33.6473 249.267 33.974C249.071 34.2913 248.941 34.66 248.875 35.08ZM263.926 39.154C263.217 39.154 262.559 39.0233 261.952 38.762C261.345 38.5007 260.809 38.1413 260.342 37.684C259.885 37.2173 259.525 36.6807 259.264 36.074C259.012 35.458 258.886 34.8 258.886 34.1C258.886 33.4 259.012 32.7467 259.264 32.14C259.525 31.524 259.885 30.9873 260.342 30.53C260.799 30.0633 261.331 29.6993 261.938 29.438C262.545 29.1767 263.203 29.046 263.912 29.046C264.696 29.046 265.433 29.1953 266.124 29.494C266.824 29.7927 267.407 30.2267 267.874 30.796L266.698 31.846C266.362 31.426 265.951 31.1087 265.466 30.894C264.981 30.67 264.463 30.558 263.912 30.558C263.436 30.558 262.997 30.6467 262.596 30.824C262.195 31.0013 261.845 31.2533 261.546 31.58C261.257 31.8973 261.028 32.2707 260.86 32.7C260.692 33.1293 260.608 33.596 260.608 34.1C260.608 34.604 260.692 35.0753 260.86 35.514C261.028 35.9433 261.261 36.3167 261.56 36.634C261.868 36.9513 262.223 37.2033 262.624 37.39C263.025 37.5673 263.469 37.656 263.954 37.656C264.477 37.656 264.948 37.5487 265.368 37.334C265.788 37.11 266.133 36.802 266.404 36.41C266.684 36.018 266.857 35.5793 266.922 35.094H264.01V33.652H268.7V34.198C268.7 34.9073 268.579 35.5607 268.336 36.158C268.103 36.7553 267.771 37.2827 267.342 37.74C266.913 38.188 266.409 38.538 265.83 38.79C265.251 39.0327 264.617 39.154 263.926 39.154ZM270.362 39V31.986H271.944V39H270.362ZM271.16 30.558C270.89 30.558 270.656 30.4647 270.46 30.278C270.274 30.082 270.18 29.8533 270.18 29.592C270.18 29.3213 270.274 29.0927 270.46 28.906C270.656 28.71 270.89 28.612 271.16 28.612C271.431 28.612 271.66 28.71 271.846 28.906C272.042 29.0927 272.14 29.3167 272.14 29.578C272.14 29.8487 272.042 30.082 271.846 30.278C271.66 30.4647 271.431 30.558 271.16 30.558ZM276.928 39.14C276.218 39.14 275.682 38.9767 275.318 38.65C274.954 38.314 274.772 37.824 274.772 37.18V33.246H273.372V31.986H274.772V30.054L276.354 29.718V31.986H278.3V33.246H276.354V36.83C276.354 37.1753 276.428 37.4227 276.578 37.572C276.727 37.712 276.979 37.782 277.334 37.782C277.492 37.782 277.637 37.7727 277.768 37.754C277.908 37.726 278.08 37.6793 278.286 37.614V38.944C278.09 39.0093 277.866 39.056 277.614 39.084C277.371 39.1213 277.142 39.14 276.928 39.14ZM282.845 39V31.986H284.427V33.498C284.633 32.966 284.899 32.56 285.225 32.28C285.552 32 285.93 31.86 286.359 31.86C286.49 31.8693 286.607 31.8833 286.709 31.902C286.812 31.9113 286.924 31.944 287.045 32V33.386C286.924 33.33 286.784 33.288 286.625 33.26C286.476 33.232 286.327 33.218 286.177 33.218C285.795 33.218 285.449 33.3207 285.141 33.526C284.843 33.7313 284.605 34.016 284.427 34.38V39H282.845ZM291.275 39.14C290.603 39.14 289.997 38.9813 289.455 38.664C288.914 38.3373 288.485 37.9033 288.167 37.362C287.85 36.8113 287.691 36.1907 287.691 35.5C287.691 34.8093 287.841 34.1933 288.139 33.652C288.438 33.1107 288.844 32.6813 289.357 32.364C289.88 32.0373 290.459 31.874 291.093 31.874C291.747 31.874 292.321 32.0327 292.815 32.35C293.319 32.6673 293.711 33.0967 293.991 33.638C294.281 34.1793 294.425 34.8 294.425 35.5V35.878H289.245C289.301 36.2607 289.423 36.6013 289.609 36.9C289.805 37.1893 290.053 37.418 290.351 37.586C290.659 37.754 290.991 37.838 291.345 37.838C291.672 37.838 291.98 37.782 292.269 37.67C292.568 37.5487 292.815 37.3853 293.011 37.18L294.047 38.118C293.618 38.4727 293.179 38.734 292.731 38.902C292.293 39.0607 291.807 39.14 291.275 39.14ZM289.259 34.898H292.927C292.871 34.562 292.755 34.2633 292.577 34.002C292.409 33.7407 292.195 33.5353 291.933 33.386C291.681 33.2367 291.401 33.162 291.093 33.162C290.785 33.162 290.501 33.2367 290.239 33.386C289.987 33.526 289.777 33.7267 289.609 33.988C289.441 34.2493 289.325 34.5527 289.259 34.898ZM296.786 39V33.246H295.274V31.986H296.786V30.782C296.786 30.026 296.991 29.4473 297.402 29.046C297.822 28.6353 298.424 28.43 299.208 28.43C299.404 28.43 299.595 28.4393 299.782 28.458C299.968 28.4767 300.127 28.5093 300.258 28.556V29.9C300.08 29.8627 299.931 29.8393 299.81 29.83C299.688 29.8113 299.558 29.802 299.418 29.802C299.054 29.802 298.788 29.8813 298.62 30.04C298.452 30.1987 298.368 30.4553 298.368 30.81V31.986H300.258V33.246H298.368V39H296.786ZM304.564 39.14C303.892 39.14 303.286 38.9813 302.744 38.664C302.203 38.3373 301.774 37.9033 301.456 37.362C301.139 36.8113 300.98 36.1907 300.98 35.5C300.98 34.8093 301.13 34.1933 301.428 33.652C301.727 33.1107 302.133 32.6813 302.646 32.364C303.169 32.0373 303.748 31.874 304.382 31.874C305.036 31.874 305.61 32.0327 306.104 32.35C306.608 32.6673 307 33.0967 307.28 33.638C307.57 34.1793 307.714 34.8 307.714 35.5V35.878H302.534C302.59 36.2607 302.712 36.6013 302.898 36.9C303.094 37.1893 303.342 37.418 303.64 37.586C303.948 37.754 304.28 37.838 304.634 37.838C304.961 37.838 305.269 37.782 305.558 37.67C305.857 37.5487 306.104 37.3853 306.3 37.18L307.336 38.118C306.907 38.4727 306.468 38.734 306.02 38.902C305.582 39.0607 305.096 39.14 304.564 39.14ZM302.548 34.898H306.216C306.16 34.562 306.044 34.2633 305.866 34.002C305.698 33.7407 305.484 33.5353 305.222 33.386C304.97 33.2367 304.69 33.162 304.382 33.162C304.074 33.162 303.79 33.2367 303.528 33.386C303.276 33.526 303.066 33.7267 302.898 33.988C302.73 34.2493 302.614 34.5527 302.548 34.898ZM309.328 39V31.986H310.91V33.498C311.115 32.966 311.381 32.56 311.708 32.28C312.034 32 312.412 31.86 312.842 31.86C312.972 31.8693 313.089 31.8833 313.192 31.902C313.294 31.9113 313.406 31.944 313.528 32V33.386C313.406 33.33 313.266 33.288 313.108 33.26C312.958 33.232 312.809 33.218 312.66 33.218C312.277 33.218 311.932 33.3207 311.624 33.526C311.325 33.7313 311.087 34.016 310.91 34.38V39H309.328ZM317.758 39.14C317.086 39.14 316.479 38.9813 315.938 38.664C315.396 38.3373 314.967 37.9033 314.65 37.362C314.332 36.8113 314.174 36.1907 314.174 35.5C314.174 34.8093 314.323 34.1933 314.622 33.652C314.92 33.1107 315.326 32.6813 315.84 32.364C316.362 32.0373 316.941 31.874 317.576 31.874C318.229 31.874 318.803 32.0327 319.298 32.35C319.802 32.6673 320.194 33.0967 320.474 33.638C320.763 34.1793 320.908 34.8 320.908 35.5V35.878H315.728C315.784 36.2607 315.905 36.6013 316.092 36.9C316.288 37.1893 316.535 37.418 316.834 37.586C317.142 37.754 317.473 37.838 317.828 37.838C318.154 37.838 318.462 37.782 318.752 37.67C319.05 37.5487 319.298 37.3853 319.494 37.18L320.53 38.118C320.1 38.4727 319.662 38.734 319.214 38.902C318.775 39.0607 318.29 39.14 317.758 39.14ZM315.742 34.898H319.41C319.354 34.562 319.237 34.2633 319.06 34.002C318.892 33.7407 318.677 33.5353 318.416 33.386C318.164 33.2367 317.884 33.162 317.576 33.162C317.268 33.162 316.983 33.2367 316.722 33.386C316.47 33.526 316.26 33.7267 316.092 33.988C315.924 34.2493 315.807 34.5527 315.742 34.898ZM322.521 39V31.986H324.103V33.134C324.374 32.714 324.696 32.4013 325.069 32.196C325.442 31.9813 325.858 31.874 326.315 31.874C326.8 31.874 327.225 31.9813 327.589 32.196C327.953 32.4013 328.238 32.6907 328.443 33.064C328.658 33.4373 328.765 33.876 328.765 34.38V39H327.169V34.828C327.169 34.3147 327.029 33.9087 326.749 33.61C326.469 33.302 326.096 33.148 325.629 33.148C325.312 33.148 325.022 33.2227 324.761 33.372C324.509 33.512 324.29 33.722 324.103 34.002V39H322.521ZM333.889 39.126C333.227 39.126 332.625 38.9673 332.083 38.65C331.551 38.3233 331.127 37.8847 330.809 37.334C330.501 36.7833 330.347 36.172 330.347 35.5C330.347 34.8187 330.501 34.2073 330.809 33.666C331.127 33.1153 331.551 32.6813 332.083 32.364C332.625 32.0373 333.227 31.874 333.889 31.874C334.431 31.874 334.944 31.9767 335.429 32.182C335.924 32.3873 336.344 32.6813 336.689 33.064L335.709 34.086C335.467 33.8153 335.196 33.61 334.897 33.47C334.599 33.33 334.281 33.26 333.945 33.26C333.563 33.26 333.217 33.3627 332.909 33.568C332.611 33.764 332.373 34.03 332.195 34.366C332.018 34.702 331.929 35.08 331.929 35.5C331.929 35.92 332.018 36.3027 332.195 36.648C332.373 36.984 332.611 37.25 332.909 37.446C333.217 37.642 333.563 37.74 333.945 37.74C334.281 37.74 334.599 37.67 334.897 37.53C335.196 37.39 335.467 37.1893 335.709 36.928L336.689 37.936C336.344 38.3187 335.924 38.6127 335.429 38.818C334.944 39.0233 334.431 39.126 333.889 39.126ZM341.055 39.14C340.383 39.14 339.776 38.9813 339.235 38.664C338.693 38.3373 338.264 37.9033 337.947 37.362C337.629 36.8113 337.471 36.1907 337.471 35.5C337.471 34.8093 337.62 34.1933 337.919 33.652C338.217 33.1107 338.623 32.6813 339.137 32.364C339.659 32.0373 340.238 31.874 340.873 31.874C341.526 31.874 342.1 32.0327 342.595 32.35C343.099 32.6673 343.491 33.0967 343.771 33.638C344.06 34.1793 344.204 34.8 344.204 35.5V35.878H339.025C339.081 36.2607 339.202 36.6013 339.389 36.9C339.585 37.1893 339.832 37.418 340.131 37.586C340.439 37.754 340.77 37.838 341.125 37.838C341.451 37.838 341.759 37.782 342.049 37.67C342.347 37.5487 342.595 37.3853 342.791 37.18L343.827 38.118C343.397 38.4727 342.959 38.734 342.511 38.902C342.072 39.0607 341.587 39.14 341.055 39.14ZM339.039 34.898H342.707C342.651 34.562 342.534 34.2633 342.357 34.002C342.189 33.7407 341.974 33.5353 341.713 33.386C341.461 33.2367 341.181 33.162 340.873 33.162C340.565 33.162 340.28 33.2367 340.019 33.386C339.767 33.526 339.557 33.7267 339.389 33.988C339.221 34.2493 339.104 34.5527 339.039 34.898ZM350.023 39V33.008H348.497V32.168H350.023V30.74C350.023 30.068 350.201 29.55 350.555 29.186C350.91 28.822 351.414 28.64 352.067 28.64C352.254 28.64 352.422 28.6493 352.571 28.668C352.73 28.6867 352.87 28.7193 352.991 28.766V29.69C352.842 29.6433 352.707 29.6107 352.585 29.592C352.464 29.5733 352.324 29.564 352.165 29.564C351.773 29.564 351.489 29.662 351.311 29.858C351.134 30.0447 351.045 30.3433 351.045 30.754V32.168H352.991V33.008H351.045V39H350.023ZM354.323 39V32.168H355.345V39H354.323ZM354.841 30.474C354.636 30.474 354.458 30.404 354.309 30.264C354.169 30.1147 354.099 29.942 354.099 29.746C354.099 29.55 354.169 29.382 354.309 29.242C354.458 29.0927 354.636 29.018 354.841 29.018C355.046 29.018 355.219 29.0927 355.359 29.242C355.508 29.382 355.583 29.55 355.583 29.746C355.583 29.942 355.508 30.1147 355.359 30.264C355.219 30.404 355.046 30.474 354.841 30.474ZM360.521 39.14C359.886 39.14 359.312 38.986 358.799 38.678C358.285 38.3607 357.879 37.936 357.581 37.404C357.282 36.8627 357.133 36.256 357.133 35.584C357.133 34.912 357.273 34.31 357.553 33.778C357.842 33.246 358.229 32.826 358.715 32.518C359.2 32.21 359.741 32.056 360.339 32.056C360.945 32.056 361.482 32.21 361.949 32.518C362.425 32.8167 362.798 33.2273 363.069 33.75C363.349 34.2633 363.489 34.8467 363.489 35.5V35.808H358.127C358.164 36.2747 358.29 36.6947 358.505 37.068C358.729 37.432 359.018 37.7213 359.373 37.936C359.737 38.1413 360.133 38.244 360.563 38.244C360.917 38.244 361.258 38.1833 361.585 38.062C361.921 37.9313 362.205 37.7587 362.439 37.544L363.083 38.23C362.691 38.538 362.285 38.7667 361.865 38.916C361.445 39.0653 360.997 39.14 360.521 39.14ZM358.155 35.08H362.481C362.434 34.6693 362.308 34.3053 362.103 33.988C361.907 33.6613 361.655 33.4047 361.347 33.218C361.048 33.0313 360.712 32.938 360.339 32.938C359.965 32.938 359.625 33.0313 359.317 33.218C359.009 33.3953 358.752 33.6473 358.547 33.974C358.351 34.2913 358.22 34.66 358.155 35.08ZM365.234 39V28.892L366.256 28.682V39H365.234ZM371.193 39.098C370.605 39.098 370.073 38.944 369.597 38.636C369.121 38.3187 368.743 37.8987 368.463 37.376C368.183 36.844 368.043 36.2513 368.043 35.598C368.043 34.9353 368.183 34.3427 368.463 33.82C368.752 33.288 369.139 32.868 369.625 32.56C370.11 32.2427 370.651 32.084 371.249 32.084C371.669 32.084 372.061 32.168 372.425 32.336C372.789 32.4947 373.106 32.728 373.377 33.036V28.892L374.399 28.682V39H373.377V38.09C373.115 38.4167 372.798 38.6687 372.425 38.846C372.051 39.014 371.641 39.098 371.193 39.098ZM371.445 38.202C371.846 38.202 372.215 38.1227 372.551 37.964C372.887 37.8053 373.162 37.5813 373.377 37.292V33.904C373.153 33.6147 372.868 33.3907 372.523 33.232C372.187 33.064 371.827 32.98 371.445 32.98C370.987 32.98 370.577 33.092 370.213 33.316C369.858 33.54 369.573 33.848 369.359 34.24C369.153 34.632 369.051 35.08 369.051 35.584C369.051 36.0787 369.153 36.5267 369.359 36.928C369.573 37.32 369.858 37.6327 370.213 37.866C370.577 38.09 370.987 38.202 371.445 38.202ZM377.199 39.112C376.994 39.112 376.817 39.0373 376.667 38.888C376.527 38.7387 376.457 38.5613 376.457 38.356C376.457 38.1413 376.527 37.964 376.667 37.824C376.817 37.6747 376.994 37.6 377.199 37.6C377.405 37.6 377.577 37.6747 377.717 37.824C377.867 37.964 377.941 38.1413 377.941 38.356C377.941 38.5613 377.867 38.7387 377.717 38.888C377.577 39.0373 377.405 39.112 377.199 39.112Z" fill="black"/>
</svg>
