<svg width="516" height="143" viewBox="0 0 516 143" fill="none" xmlns="http://www.w3.org/2000/svg">
<rect width="516" height="143" fill="white"/>
<path d="M93 65C93 62.7909 94.7909 61 97 61H210C212.209 61 214 62.7909 214 65V78C214 80.2091 212.209 82 210 82H97C94.7909 82 93 80.2091 93 78V65Z" fill="#F2F2F2"/>
<path d="M97.714 76V75.258L101.634 70.974C101.942 70.638 102.18 70.344 102.348 70.092C102.525 69.8307 102.647 69.588 102.712 69.364C102.787 69.14 102.824 68.902 102.824 68.65C102.824 68.1553 102.628 67.7493 102.236 67.432C101.853 67.1053 101.363 66.942 100.766 66.942C100.309 66.942 99.884 67.0307 99.492 67.208C99.1 67.3853 98.6613 67.6933 98.176 68.132L97.588 67.432C98.1013 66.9653 98.6193 66.62 99.142 66.396C99.6647 66.1627 100.211 66.046 100.78 66.046C101.368 66.046 101.891 66.158 102.348 66.382C102.805 66.5967 103.165 66.8953 103.426 67.278C103.687 67.6607 103.818 68.0993 103.818 68.594C103.818 68.9207 103.776 69.224 103.692 69.504C103.608 69.7747 103.459 70.0687 103.244 70.386C103.029 70.694 102.721 71.0673 102.32 71.506L98.974 75.132L104.028 75.118V76H97.714ZM106.42 76.112C106.215 76.112 106.037 76.0373 105.888 75.888C105.748 75.7387 105.678 75.5613 105.678 75.356C105.678 75.1413 105.748 74.964 105.888 74.824C106.037 74.6747 106.215 74.6 106.42 74.6C106.625 74.6 106.798 74.6747 106.938 74.824C107.087 74.964 107.162 75.1413 107.162 75.356C107.162 75.5613 107.087 75.7387 106.938 75.888C106.798 76.0373 106.625 76.112 106.42 76.112ZM111.981 76.154C111.309 76.154 110.679 76.0373 110.091 75.804C109.513 75.5707 108.999 75.2253 108.551 74.768L109.223 74.11C109.634 74.5207 110.054 74.8193 110.483 75.006C110.922 75.1833 111.417 75.272 111.967 75.272C112.443 75.272 112.863 75.188 113.227 75.02C113.601 74.852 113.89 74.6187 114.095 74.32C114.301 74.0213 114.403 73.6807 114.403 73.298C114.403 72.934 114.31 72.612 114.123 72.332C113.946 72.0427 113.699 71.8187 113.381 71.66C113.064 71.5013 112.7 71.422 112.289 71.422H111.127V70.554H112.247C112.779 70.554 113.209 70.3907 113.535 70.064C113.871 69.7373 114.039 69.3127 114.039 68.79C114.039 68.4447 113.946 68.132 113.759 67.852C113.573 67.572 113.316 67.3527 112.989 67.194C112.672 67.026 112.313 66.942 111.911 66.942C111.407 66.942 110.955 67.0353 110.553 67.222C110.161 67.3993 109.76 67.7027 109.349 68.132L108.677 67.46C109.116 66.9933 109.611 66.6433 110.161 66.41C110.712 66.1673 111.3 66.046 111.925 66.046C112.523 66.046 113.055 66.1627 113.521 66.396C113.997 66.6293 114.371 66.9513 114.641 67.362C114.912 67.7633 115.047 68.2207 115.047 68.734C115.047 69.2473 114.879 69.7093 114.543 70.12C114.207 70.5213 113.764 70.8013 113.213 70.96C113.876 71.1093 114.408 71.3987 114.809 71.828C115.211 72.2573 115.411 72.7567 115.411 73.326C115.411 73.8673 115.262 74.3527 114.963 74.782C114.674 75.2113 114.268 75.5473 113.745 75.79C113.232 76.0327 112.644 76.154 111.981 76.154ZM117.699 76.112C117.494 76.112 117.317 76.0373 117.167 75.888C117.027 75.7387 116.957 75.5613 116.957 75.356C116.957 75.1413 117.027 74.964 117.167 74.824C117.317 74.6747 117.494 74.6 117.699 74.6C117.905 74.6 118.077 74.6747 118.217 74.824C118.367 74.964 118.441 75.1413 118.441 75.356C118.441 75.5613 118.367 75.7387 118.217 75.888C118.077 76.0373 117.905 76.112 117.699 76.112ZM125 76V73.382H119.708V72.584L124.916 66.2H125.994V72.5H127.352V73.382H125.994V76H125ZM120.884 72.5H125V67.418L120.884 72.5ZM128.67 72.5V71.618H133.332V72.5H128.67ZM134.409 76V75.258L138.329 70.974C138.637 70.638 138.875 70.344 139.043 70.092C139.221 69.8307 139.342 69.588 139.407 69.364C139.482 69.14 139.519 68.902 139.519 68.65C139.519 68.1553 139.323 67.7493 138.931 67.432C138.549 67.1053 138.059 66.942 137.461 66.942C137.004 66.942 136.579 67.0307 136.187 67.208C135.795 67.3853 135.357 67.6933 134.871 68.132L134.283 67.432C134.797 66.9653 135.315 66.62 135.837 66.396C136.36 66.1627 136.906 66.046 137.475 66.046C138.063 66.046 138.586 66.158 139.043 66.382C139.501 66.5967 139.86 66.8953 140.121 67.278C140.383 67.6607 140.513 68.0993 140.513 68.594C140.513 68.9207 140.471 69.224 140.387 69.504C140.303 69.7747 140.154 70.0687 139.939 70.386C139.725 70.694 139.417 71.0673 139.015 71.506L135.669 75.132L140.723 75.118V76H134.409ZM142.219 72.5V71.618H146.881V72.5H142.219ZM148.786 76V69.168H149.808V70.568C149.986 70.092 150.238 69.7233 150.564 69.462C150.9 69.1913 151.283 69.056 151.712 69.056C151.834 69.056 151.946 69.0653 152.048 69.084C152.151 69.0933 152.254 69.1167 152.356 69.154V70.078C152.244 70.0407 152.123 70.0127 151.992 69.994C151.871 69.966 151.754 69.952 151.642 69.952C151.222 69.952 150.854 70.0733 150.536 70.316C150.228 70.5587 149.986 70.8993 149.808 71.338V76H148.786ZM156.364 76.14C155.73 76.14 155.156 75.986 154.642 75.678C154.129 75.3607 153.723 74.936 153.424 74.404C153.126 73.8627 152.976 73.256 152.976 72.584C152.976 71.912 153.116 71.31 153.396 70.778C153.686 70.246 154.073 69.826 154.558 69.518C155.044 69.21 155.585 69.056 156.182 69.056C156.789 69.056 157.326 69.21 157.792 69.518C158.268 69.8167 158.642 70.2273 158.912 70.75C159.192 71.2633 159.332 71.8467 159.332 72.5V72.808H153.97C154.008 73.2747 154.134 73.6947 154.348 74.068C154.572 74.432 154.862 74.7213 155.216 74.936C155.58 75.1413 155.977 75.244 156.406 75.244C156.761 75.244 157.102 75.1833 157.428 75.062C157.764 74.9313 158.049 74.7587 158.282 74.544L158.926 75.23C158.534 75.538 158.128 75.7667 157.708 75.916C157.288 76.0653 156.84 76.14 156.364 76.14ZM153.998 72.08H158.324C158.278 71.6693 158.152 71.3053 157.946 70.988C157.75 70.6613 157.498 70.4047 157.19 70.218C156.892 70.0313 156.556 69.938 156.182 69.938C155.809 69.938 155.468 70.0313 155.16 70.218C154.852 70.3953 154.596 70.6473 154.39 70.974C154.194 71.2913 154.064 71.66 153.998 72.08ZM163.919 76.098C163.331 76.098 162.799 75.944 162.323 75.636C161.847 75.3187 161.469 74.8987 161.189 74.376C160.909 73.844 160.769 73.2513 160.769 72.598C160.769 71.9353 160.909 71.3427 161.189 70.82C161.479 70.288 161.866 69.868 162.351 69.56C162.837 69.2427 163.378 69.084 163.975 69.084C164.395 69.084 164.787 69.168 165.151 69.336C165.515 69.4947 165.833 69.728 166.103 70.036V65.892L167.125 65.682V76H166.103V75.09C165.842 75.4167 165.525 75.6687 165.151 75.846C164.778 76.014 164.367 76.098 163.919 76.098ZM164.171 75.202C164.573 75.202 164.941 75.1227 165.277 74.964C165.613 74.8053 165.889 74.5813 166.103 74.292V70.904C165.879 70.6147 165.595 70.3907 165.249 70.232C164.913 70.064 164.554 69.98 164.171 69.98C163.714 69.98 163.303 70.092 162.939 70.316C162.585 70.54 162.3 70.848 162.085 71.24C161.88 71.632 161.777 72.08 161.777 72.584C161.777 73.0787 161.88 73.5267 162.085 73.928C162.3 74.32 162.585 74.6327 162.939 74.866C163.303 75.09 163.714 75.202 164.171 75.202ZM169.226 76V65.892L170.248 65.682V70.274C170.509 69.8633 170.822 69.56 171.186 69.364C171.55 69.1587 171.96 69.056 172.418 69.056C172.912 69.056 173.342 69.1633 173.706 69.378C174.079 69.5833 174.368 69.8773 174.574 70.26C174.788 70.6333 174.896 71.072 174.896 71.576V76H173.874V71.87C173.874 71.2633 173.706 70.7873 173.37 70.442C173.043 70.0873 172.6 69.91 172.04 69.91C171.666 69.91 171.326 69.9987 171.018 70.176C170.71 70.3533 170.453 70.6147 170.248 70.96V76H169.226ZM179.064 76.126C178.579 76.126 178.15 76.0373 177.776 75.86C177.403 75.6827 177.109 75.44 176.894 75.132C176.689 74.8147 176.586 74.4507 176.586 74.04C176.586 73.6293 176.694 73.2747 176.908 72.976C177.123 72.668 177.422 72.43 177.804 72.262C178.187 72.094 178.635 72.01 179.148 72.01C179.54 72.01 179.909 72.052 180.254 72.136C180.609 72.22 180.936 72.3553 181.234 72.542V71.604C181.234 71.044 181.085 70.624 180.786 70.344C180.488 70.0547 180.049 69.91 179.47 69.91C179.153 69.91 178.826 69.9567 178.49 70.05C178.164 70.1433 177.8 70.2927 177.398 70.498L177.02 69.714C177.935 69.2753 178.794 69.056 179.596 69.056C180.446 69.056 181.099 69.266 181.556 69.686C182.014 70.0967 182.242 70.6893 182.242 71.464V76H181.234V75.202C180.936 75.51 180.604 75.7433 180.24 75.902C179.876 76.0513 179.484 76.126 179.064 76.126ZM177.566 74.012C177.566 74.4133 177.72 74.7353 178.028 74.978C178.346 75.2207 178.761 75.342 179.274 75.342C179.657 75.342 180.007 75.2767 180.324 75.146C180.651 75.0153 180.954 74.8193 181.234 74.558V73.242C180.945 73.074 180.646 72.9527 180.338 72.878C180.03 72.794 179.685 72.752 179.302 72.752C178.78 72.752 178.36 72.8687 178.042 73.102C177.725 73.326 177.566 73.6293 177.566 74.012ZM186.718 76.14C186.13 76.14 185.682 76 185.374 75.72C185.076 75.4307 184.926 75.0153 184.926 74.474V70.008H183.512V69.168H184.926V67.292L185.948 67.054V69.168H187.908V70.008H185.948V74.208C185.948 74.572 186.023 74.8333 186.172 74.992C186.331 75.1507 186.588 75.23 186.942 75.23C187.12 75.23 187.278 75.216 187.418 75.188C187.558 75.16 187.722 75.1133 187.908 75.048V75.958C187.722 76.0233 187.526 76.07 187.32 76.098C187.115 76.126 186.914 76.14 186.718 76.14Z" fill="#151515"/>
<path fill-rule="evenodd" clip-rule="evenodd" d="M204.937 75.75C205.248 75.75 205.5 75.4981 205.5 75.1875V69H203.062C202.753 69 202.5 68.7469 202.5 68.4375V66H198.562C198.252 66 198 66.2518 198 66.5625V75.1875C198 75.4981 198.252 75.75 198.562 75.75H204.937ZM205.5 68.25V68.108C205.5 67.9794 205.426 67.8012 205.335 67.7102L203.79 66.1647C203.699 66.0738 203.521 66 203.392 66H203.25V68.25H205.5ZM201.937 78C202.248 78 202.5 77.7481 202.5 77.4375V76.5H198.562C197.839 76.5 197.25 75.9112 197.25 75.1875V68.25H195.562C195.252 68.25 195 68.5018 195 68.8125V77.4375C195 77.7481 195.252 78 195.562 78H201.937Z" fill="#707070"/>
<path d="M46.1608 39L51.0328 30.082H45.1528V29.2H52.1248V29.984L47.3088 39H46.1608ZM54.5834 39.112C54.378 39.112 54.2007 39.0373 54.0514 38.888C53.9114 38.7387 53.8414 38.5613 53.8414 38.356C53.8414 38.1413 53.9114 37.964 54.0514 37.824C54.2007 37.6747 54.378 37.6 54.5834 37.6C54.7887 37.6 54.9614 37.6747 55.1014 37.824C55.2507 37.964 55.3254 38.1413 55.3254 38.356C55.3254 38.5613 55.2507 38.7387 55.1014 38.888C54.9614 39.0373 54.7887 39.112 54.5834 39.112ZM66.768 39.154C66.068 39.154 65.4147 39.028 64.808 38.776C64.2107 38.5147 63.6833 38.1553 63.226 37.698C62.7687 37.2313 62.414 36.6947 62.162 36.088C61.91 35.472 61.784 34.8093 61.784 34.1C61.784 33.3907 61.91 32.7327 62.162 32.126C62.414 31.51 62.7687 30.9733 63.226 30.516C63.6833 30.0493 64.2107 29.69 64.808 29.438C65.4147 29.1767 66.068 29.046 66.768 29.046C67.2533 29.046 67.7153 29.1113 68.154 29.242C68.602 29.3633 69.022 29.5453 69.414 29.788C69.806 30.0213 70.156 30.3107 70.464 30.656L69.75 31.398C69.386 30.9593 68.938 30.6233 68.406 30.39C67.8833 30.1473 67.3373 30.026 66.768 30.026C66.2173 30.026 65.704 30.1287 65.228 30.334C64.752 30.5393 64.3367 30.8287 63.982 31.202C63.6367 31.5753 63.366 32.0093 63.17 32.504C62.974 32.9893 62.876 33.5213 62.876 34.1C62.876 34.6693 62.974 35.2013 63.17 35.696C63.366 36.1907 63.6367 36.6247 63.982 36.998C64.3367 37.3713 64.752 37.6607 65.228 37.866C65.704 38.0713 66.2173 38.174 66.768 38.174C67.3373 38.174 67.8833 38.0527 68.406 37.81C68.938 37.5673 69.386 37.2313 69.75 36.802L70.464 37.544C70.156 37.8893 69.806 38.1833 69.414 38.426C69.022 38.6593 68.602 38.8413 68.154 38.972C67.7153 39.0933 67.2533 39.154 66.768 39.154ZM72.2082 39V28.892L73.2302 28.682V39H72.2082ZM75.3114 39V32.168H76.3334V39H75.3114ZM75.8294 30.474C75.6241 30.474 75.4467 30.404 75.2974 30.264C75.1574 30.1147 75.0874 29.942 75.0874 29.746C75.0874 29.55 75.1574 29.382 75.2974 29.242C75.4467 29.0927 75.6241 29.018 75.8294 29.018C76.0347 29.018 76.2074 29.0927 76.3474 29.242C76.4967 29.382 76.5714 29.55 76.5714 29.746C76.5714 29.942 76.4967 30.1147 76.3474 30.264C76.2074 30.404 76.0347 30.474 75.8294 30.474ZM81.4949 39.112C80.8602 39.112 80.2862 38.958 79.7729 38.65C79.2689 38.3327 78.8676 37.908 78.5689 37.376C78.2702 36.8347 78.1209 36.2373 78.1209 35.584C78.1209 34.9213 78.2702 34.324 78.5689 33.792C78.8676 33.26 79.2689 32.84 79.7729 32.532C80.2862 32.2147 80.8602 32.056 81.4949 32.056C81.9989 32.056 82.4796 32.1493 82.9369 32.336C83.3942 32.5227 83.7909 32.784 84.1269 33.12L83.4689 33.834C83.2262 33.5633 82.9322 33.3533 82.5869 33.204C82.2416 33.0547 81.8916 32.98 81.5369 32.98C81.0889 32.98 80.6829 33.0967 80.3189 33.33C79.9642 33.5633 79.6796 33.876 79.4649 34.268C79.2502 34.66 79.1429 35.0987 79.1429 35.584C79.1429 36.0693 79.2502 36.508 79.4649 36.9C79.6796 37.292 79.9642 37.6047 80.3189 37.838C80.6829 38.0713 81.0889 38.188 81.5369 38.188C81.8916 38.188 82.2416 38.1133 82.5869 37.964C82.9322 37.8053 83.2262 37.5953 83.4689 37.334L84.1269 38.048C83.7909 38.384 83.3942 38.6453 82.9369 38.832C82.4796 39.0187 81.9989 39.112 81.4949 39.112ZM85.552 39V28.892L86.574 28.682V35.234L89.822 32.168H91.054L87.582 35.416L91.208 39H89.864L86.574 35.738V39H85.552ZM99.0711 39.154C98.3058 39.154 97.5825 39.0233 96.9011 38.762C96.2291 38.4913 95.5805 38.0947 94.9551 37.572L95.8651 36.34C96.4998 36.8533 97.0645 37.222 97.5591 37.446C98.0631 37.6607 98.5998 37.768 99.1691 37.768C99.5985 37.768 99.9765 37.7027 100.303 37.572C100.639 37.432 100.896 37.2453 101.073 37.012C101.26 36.7787 101.353 36.508 101.353 36.2C101.353 35.7987 101.218 35.4953 100.947 35.29C100.686 35.0753 100.228 34.912 99.5751 34.8L97.7691 34.492C96.9198 34.3427 96.2851 34.058 95.8651 33.638C95.4545 33.2087 95.2491 32.6627 95.2491 32C95.2491 31.412 95.3985 30.8987 95.6971 30.46C95.9958 30.012 96.4111 29.6667 96.9431 29.424C97.4845 29.172 98.1238 29.046 98.8611 29.046C99.5985 29.046 100.298 29.1533 100.961 29.368C101.624 29.5827 102.235 29.8953 102.795 30.306L101.941 31.566C101.446 31.1927 100.938 30.9127 100.415 30.726C99.8925 30.53 99.3558 30.432 98.8051 30.432C98.4131 30.432 98.0678 30.4927 97.7691 30.614C97.4798 30.7353 97.2511 30.9033 97.0831 31.118C96.9245 31.3327 96.8451 31.5707 96.8451 31.832C96.8451 32.1867 96.9618 32.462 97.1951 32.658C97.4378 32.8447 97.8251 32.9847 98.3571 33.078L100.107 33.372C101.096 33.5493 101.824 33.8573 102.291 34.296C102.767 34.7347 103.005 35.3273 103.005 36.074C103.005 36.6713 102.837 37.2033 102.501 37.67C102.174 38.1367 101.717 38.5007 101.129 38.762C100.541 39.0233 99.8551 39.154 99.0711 39.154ZM104.513 39V28.962L106.095 28.682V33.134C106.366 32.714 106.688 32.4013 107.061 32.196C107.435 31.9813 107.85 31.874 108.307 31.874C108.793 31.874 109.217 31.9813 109.581 32.196C109.945 32.4013 110.23 32.6907 110.435 33.064C110.65 33.4373 110.757 33.876 110.757 34.38V39H109.161V34.828C109.161 34.3147 109.021 33.9087 108.741 33.61C108.461 33.302 108.088 33.148 107.621 33.148C107.304 33.148 107.015 33.2227 106.753 33.372C106.501 33.512 106.282 33.722 106.095 34.002V39H104.513ZM115.868 39.126C115.205 39.126 114.603 38.9673 114.062 38.65C113.53 38.3327 113.11 37.9033 112.802 37.362C112.494 36.8113 112.34 36.1907 112.34 35.5C112.34 34.8093 112.494 34.1933 112.802 33.652C113.11 33.1013 113.53 32.6673 114.062 32.35C114.594 32.0327 115.196 31.874 115.868 31.874C116.54 31.874 117.137 32.0327 117.66 32.35C118.192 32.6673 118.612 33.1013 118.92 33.652C119.228 34.1933 119.382 34.8093 119.382 35.5C119.382 36.1907 119.228 36.8113 118.92 37.362C118.612 37.9033 118.192 38.3327 117.66 38.65C117.137 38.9673 116.54 39.126 115.868 39.126ZM115.868 37.782C116.25 37.782 116.586 37.684 116.876 37.488C117.174 37.292 117.408 37.0213 117.576 36.676C117.744 36.3213 117.828 35.9293 117.828 35.5C117.828 35.0613 117.744 34.674 117.576 34.338C117.408 33.9927 117.174 33.722 116.876 33.526C116.586 33.3207 116.25 33.218 115.868 33.218C115.485 33.218 115.144 33.3207 114.846 33.526C114.547 33.722 114.314 33.9927 114.146 34.338C113.978 34.674 113.894 35.0613 113.894 35.5C113.894 35.9387 113.978 36.3307 114.146 36.676C114.314 37.0213 114.547 37.292 114.846 37.488C115.144 37.684 115.485 37.782 115.868 37.782ZM122.11 39L120.22 31.986H121.732L122.964 36.928L124.42 31.986H125.75L127.192 36.928L128.424 31.986H129.894L128.004 39H126.492L125.064 34.058L123.65 39H122.11ZM136.46 39.126C135.974 39.126 135.54 39.0373 135.158 38.86C134.784 38.6733 134.49 38.4213 134.276 38.104C134.07 37.7773 133.968 37.404 133.968 36.984C133.968 36.564 134.075 36.2 134.29 35.892C134.514 35.584 134.826 35.346 135.228 35.178C135.629 35.01 136.105 34.926 136.656 34.926C136.982 34.926 137.304 34.9633 137.622 35.038C137.939 35.1033 138.247 35.2153 138.546 35.374V34.59C138.546 34.1233 138.41 33.7733 138.14 33.54C137.878 33.3067 137.477 33.19 136.936 33.19C136.646 33.19 136.334 33.2367 135.998 33.33C135.671 33.414 135.302 33.5493 134.892 33.736L134.332 32.588C135.358 32.112 136.329 31.874 137.244 31.874C138.158 31.874 138.863 32.098 139.358 32.546C139.862 32.9847 140.114 33.61 140.114 34.422V39H138.546V38.272C138.247 38.5613 137.925 38.776 137.58 38.916C137.234 39.056 136.861 39.126 136.46 39.126ZM135.452 36.956C135.452 37.2827 135.582 37.5393 135.844 37.726C136.105 37.9127 136.455 38.006 136.894 38.006C137.211 38.006 137.505 37.9593 137.776 37.866C138.056 37.7633 138.312 37.614 138.546 37.418V36.284C138.303 36.172 138.051 36.088 137.79 36.032C137.528 35.976 137.244 35.948 136.936 35.948C136.478 35.948 136.114 36.0367 135.844 36.214C135.582 36.3913 135.452 36.6387 135.452 36.956ZM144.871 39.07C144.283 39.07 143.751 38.9113 143.275 38.594C142.799 38.2673 142.416 37.838 142.127 37.306C141.847 36.7647 141.707 36.1627 141.707 35.5C141.707 34.828 141.851 34.226 142.141 33.694C142.43 33.1527 142.822 32.7233 143.317 32.406C143.821 32.0887 144.376 31.93 144.983 31.93C145.384 31.93 145.757 32.0093 146.103 32.168C146.457 32.3173 146.765 32.5413 147.027 32.84V28.962L148.609 28.682V39H147.041V38.076C146.789 38.3933 146.476 38.6407 146.103 38.818C145.729 38.986 145.319 39.07 144.871 39.07ZM145.361 37.74C145.697 37.74 146.009 37.6747 146.299 37.544C146.588 37.404 146.831 37.2127 147.027 36.97V34.016C146.821 33.7733 146.574 33.5867 146.285 33.456C145.995 33.3253 145.687 33.26 145.361 33.26C144.959 33.26 144.6 33.358 144.283 33.554C143.975 33.7407 143.727 34.002 143.541 34.338C143.354 34.674 143.261 35.0613 143.261 35.5C143.261 35.92 143.354 36.3027 143.541 36.648C143.727 36.984 143.975 37.25 144.283 37.446C144.6 37.642 144.959 37.74 145.361 37.74ZM152.604 39L149.748 31.986H151.47L153.43 37.082L155.376 31.986H157.028L154.144 39H152.604ZM160.085 39.126C159.599 39.126 159.165 39.0373 158.783 38.86C158.409 38.6733 158.115 38.4213 157.901 38.104C157.695 37.7773 157.593 37.404 157.593 36.984C157.593 36.564 157.7 36.2 157.915 35.892C158.139 35.584 158.451 35.346 158.853 35.178C159.254 35.01 159.73 34.926 160.281 34.926C160.607 34.926 160.929 34.9633 161.247 35.038C161.564 35.1033 161.872 35.2153 162.171 35.374V34.59C162.171 34.1233 162.035 33.7733 161.765 33.54C161.503 33.3067 161.102 33.19 160.561 33.19C160.271 33.19 159.959 33.2367 159.623 33.33C159.296 33.414 158.927 33.5493 158.517 33.736L157.957 32.588C158.983 32.112 159.954 31.874 160.869 31.874C161.783 31.874 162.488 32.098 162.983 32.546C163.487 32.9847 163.739 33.61 163.739 34.422V39H162.171V38.272C161.872 38.5613 161.55 38.776 161.205 38.916C160.859 39.056 160.486 39.126 160.085 39.126ZM159.077 36.956C159.077 37.2827 159.207 37.5393 159.469 37.726C159.73 37.9127 160.08 38.006 160.519 38.006C160.836 38.006 161.13 37.9593 161.401 37.866C161.681 37.7633 161.937 37.614 162.171 37.418V36.284C161.928 36.172 161.676 36.088 161.415 36.032C161.153 35.976 160.869 35.948 160.561 35.948C160.103 35.948 159.739 36.0367 159.469 36.214C159.207 36.3913 159.077 36.6387 159.077 36.956ZM165.654 39V31.986H167.236V33.134C167.506 32.714 167.828 32.4013 168.202 32.196C168.575 31.9813 168.99 31.874 169.448 31.874C169.933 31.874 170.358 31.9813 170.722 32.196C171.086 32.4013 171.37 32.6907 171.576 33.064C171.79 33.4373 171.898 33.876 171.898 34.38V39H170.302V34.828C170.302 34.3147 170.162 33.9087 169.882 33.61C169.602 33.302 169.228 33.148 168.762 33.148C168.444 33.148 168.155 33.2227 167.894 33.372C167.642 33.512 167.422 33.722 167.236 34.002V39H165.654ZM177.022 39.126C176.36 39.126 175.758 38.9673 175.216 38.65C174.684 38.3233 174.26 37.8847 173.942 37.334C173.634 36.7833 173.48 36.172 173.48 35.5C173.48 34.8187 173.634 34.2073 173.942 33.666C174.26 33.1153 174.684 32.6813 175.216 32.364C175.758 32.0373 176.36 31.874 177.022 31.874C177.564 31.874 178.077 31.9767 178.562 32.182C179.057 32.3873 179.477 32.6813 179.822 33.064L178.842 34.086C178.6 33.8153 178.329 33.61 178.03 33.47C177.732 33.33 177.414 33.26 177.078 33.26C176.696 33.26 176.35 33.3627 176.042 33.568C175.744 33.764 175.506 34.03 175.328 34.366C175.151 34.702 175.062 35.08 175.062 35.5C175.062 35.92 175.151 36.3027 175.328 36.648C175.506 36.984 175.744 37.25 176.042 37.446C176.35 37.642 176.696 37.74 177.078 37.74C177.414 37.74 177.732 37.67 178.03 37.53C178.329 37.39 178.6 37.1893 178.842 36.928L179.822 37.936C179.477 38.3187 179.057 38.6127 178.562 38.818C178.077 39.0233 177.564 39.126 177.022 39.126ZM184.187 39.14C183.515 39.14 182.909 38.9813 182.367 38.664C181.826 38.3373 181.397 37.9033 181.079 37.362C180.762 36.8113 180.603 36.1907 180.603 35.5C180.603 34.8093 180.753 34.1933 181.051 33.652C181.35 33.1107 181.756 32.6813 182.269 32.364C182.792 32.0373 183.371 31.874 184.005 31.874C184.659 31.874 185.233 32.0327 185.727 32.35C186.231 32.6673 186.623 33.0967 186.903 33.638C187.193 34.1793 187.337 34.8 187.337 35.5V35.878H182.157C182.213 36.2607 182.335 36.6013 182.521 36.9C182.717 37.1893 182.965 37.418 183.263 37.586C183.571 37.754 183.903 37.838 184.257 37.838C184.584 37.838 184.892 37.782 185.181 37.67C185.48 37.5487 185.727 37.3853 185.923 37.18L186.959 38.118C186.53 38.4727 186.091 38.734 185.643 38.902C185.205 39.0607 184.719 39.14 184.187 39.14ZM182.171 34.898H185.839C185.783 34.562 185.667 34.2633 185.489 34.002C185.321 33.7407 185.107 33.5353 184.845 33.386C184.593 33.2367 184.313 33.162 184.005 33.162C183.697 33.162 183.413 33.2367 183.151 33.386C182.899 33.526 182.689 33.7267 182.521 33.988C182.353 34.2493 182.237 34.5527 182.171 34.898ZM191.82 39.07C191.232 39.07 190.7 38.9113 190.224 38.594C189.748 38.2673 189.365 37.838 189.076 37.306C188.796 36.7647 188.656 36.1627 188.656 35.5C188.656 34.828 188.801 34.226 189.09 33.694C189.379 33.1527 189.771 32.7233 190.266 32.406C190.77 32.0887 191.325 31.93 191.932 31.93C192.333 31.93 192.707 32.0093 193.052 32.168C193.407 32.3173 193.715 32.5413 193.976 32.84V28.962L195.558 28.682V39H193.99V38.076C193.738 38.3933 193.425 38.6407 193.052 38.818C192.679 38.986 192.268 39.07 191.82 39.07ZM192.31 37.74C192.646 37.74 192.959 37.6747 193.248 37.544C193.537 37.404 193.78 37.2127 193.976 36.97V34.016C193.771 33.7733 193.523 33.5867 193.234 33.456C192.945 33.3253 192.637 33.26 192.31 33.26C191.909 33.26 191.549 33.358 191.232 33.554C190.924 33.7407 190.677 34.002 190.49 34.338C190.303 34.674 190.21 35.0613 190.21 35.5C190.21 35.92 190.303 36.3027 190.49 36.648C190.677 36.984 190.924 37.25 191.232 37.446C191.549 37.642 191.909 37.74 192.31 37.74ZM205.442 39.154C204.732 39.154 204.074 39.0233 203.468 38.762C202.861 38.5007 202.324 38.1413 201.858 37.684C201.4 37.2173 201.041 36.6807 200.78 36.074C200.528 35.458 200.402 34.8 200.402 34.1C200.402 33.4 200.528 32.7467 200.78 32.14C201.041 31.524 201.4 30.9873 201.858 30.53C202.315 30.0633 202.847 29.6993 203.454 29.438C204.06 29.1767 204.718 29.046 205.428 29.046C206.212 29.046 206.949 29.1953 207.64 29.494C208.34 29.7927 208.923 30.2267 209.39 30.796L208.214 31.846C207.878 31.426 207.467 31.1087 206.982 30.894C206.496 30.67 205.978 30.558 205.428 30.558C204.952 30.558 204.513 30.6467 204.112 30.824C203.71 31.0013 203.36 31.2533 203.062 31.58C202.772 31.8973 202.544 32.2707 202.376 32.7C202.208 33.1293 202.124 33.596 202.124 34.1C202.124 34.604 202.208 35.0753 202.376 35.514C202.544 35.9433 202.777 36.3167 203.076 36.634C203.384 36.9513 203.738 37.2033 204.14 37.39C204.541 37.5673 204.984 37.656 205.47 37.656C205.992 37.656 206.464 37.5487 206.883 37.334C207.304 37.11 207.649 36.802 207.919 36.41C208.2 36.018 208.372 35.5793 208.438 35.094H205.526V33.652H210.216V34.198C210.216 34.9073 210.094 35.5607 209.852 36.158C209.618 36.7553 209.287 37.2827 208.858 37.74C208.428 38.188 207.924 38.538 207.346 38.79C206.767 39.0327 206.132 39.154 205.442 39.154ZM211.878 39V31.986H213.46V39H211.878ZM212.676 30.558C212.405 30.558 212.172 30.4647 211.976 30.278C211.789 30.082 211.696 29.8533 211.696 29.592C211.696 29.3213 211.789 29.0927 211.976 28.906C212.172 28.71 212.405 28.612 212.676 28.612C212.947 28.612 213.175 28.71 213.362 28.906C213.558 29.0927 213.656 29.3167 213.656 29.578C213.656 29.8487 213.558 30.082 213.362 30.278C213.175 30.4647 212.947 30.558 212.676 30.558ZM218.443 39.14C217.734 39.14 217.197 38.9767 216.833 38.65C216.469 38.314 216.287 37.824 216.287 37.18V33.246H214.887V31.986H216.287V30.054L217.869 29.718V31.986H219.815V33.246H217.869V36.83C217.869 37.1753 217.944 37.4227 218.093 37.572C218.243 37.712 218.495 37.782 218.849 37.782C219.008 37.782 219.153 37.7727 219.283 37.754C219.423 37.726 219.596 37.6793 219.801 37.614V38.944C219.605 39.0093 219.381 39.056 219.129 39.084C218.887 39.1213 218.658 39.14 218.443 39.14ZM227.567 39.126C226.904 39.126 226.302 38.9673 225.761 38.65C225.229 38.3327 224.809 37.9033 224.501 37.362C224.193 36.8113 224.039 36.1907 224.039 35.5C224.039 34.8093 224.193 34.1933 224.501 33.652C224.809 33.1013 225.229 32.6673 225.761 32.35C226.293 32.0327 226.895 31.874 227.567 31.874C228.239 31.874 228.836 32.0327 229.359 32.35C229.891 32.6673 230.311 33.1013 230.619 33.652C230.927 34.1933 231.081 34.8093 231.081 35.5C231.081 36.1907 230.927 36.8113 230.619 37.362C230.311 37.9033 229.891 38.3327 229.359 38.65C228.836 38.9673 228.239 39.126 227.567 39.126ZM227.567 37.782C227.95 37.782 228.286 37.684 228.575 37.488C228.874 37.292 229.107 37.0213 229.275 36.676C229.443 36.3213 229.527 35.9293 229.527 35.5C229.527 35.0613 229.443 34.674 229.275 34.338C229.107 33.9927 228.874 33.722 228.575 33.526C228.286 33.3207 227.95 33.218 227.567 33.218C227.184 33.218 226.844 33.3207 226.545 33.526C226.246 33.722 226.013 33.9927 225.845 34.338C225.677 34.674 225.593 35.0613 225.593 35.5C225.593 35.9387 225.677 36.3307 225.845 36.676C226.013 37.0213 226.246 37.292 226.545 37.488C226.844 37.684 227.184 37.782 227.567 37.782ZM232.714 41.926V31.986H234.268V32.98C234.52 32.644 234.833 32.3873 235.206 32.21C235.589 32.0233 236.004 31.93 236.452 31.93C237.05 31.93 237.586 32.0887 238.062 32.406C238.538 32.7233 238.916 33.1527 239.196 33.694C239.476 34.2353 239.616 34.8373 239.616 35.5C239.616 36.1627 239.472 36.7647 239.182 37.306C238.893 37.8473 238.501 38.2767 238.006 38.594C237.512 38.9113 236.961 39.07 236.354 39.07C235.934 39.07 235.547 38.9953 235.192 38.846C234.847 38.6873 234.548 38.4633 234.296 38.174V41.926H232.714ZM235.976 37.754C236.378 37.754 236.732 37.656 237.04 37.46C237.358 37.264 237.605 36.998 237.782 36.662C237.969 36.3167 238.062 35.9293 238.062 35.5C238.062 35.0707 237.969 34.688 237.782 34.352C237.605 34.016 237.358 33.75 237.04 33.554C236.732 33.358 236.378 33.26 235.976 33.26C235.631 33.26 235.314 33.33 235.024 33.47C234.735 33.6007 234.492 33.792 234.296 34.044V36.97C234.502 37.2127 234.749 37.404 235.038 37.544C235.328 37.684 235.64 37.754 235.976 37.754ZM243.969 39.14C243.26 39.14 242.723 38.9767 242.359 38.65C241.995 38.314 241.813 37.824 241.813 37.18V33.246H240.413V31.986H241.813V30.054L243.395 29.718V31.986H245.341V33.246H243.395V36.83C243.395 37.1753 243.47 37.4227 243.619 37.572C243.768 37.712 244.02 37.782 244.375 37.782C244.534 37.782 244.678 37.7727 244.809 37.754C244.949 37.726 245.122 37.6793 245.327 37.614V38.944C245.131 39.0093 244.907 39.056 244.655 39.084C244.412 39.1213 244.184 39.14 243.969 39.14ZM246.728 39V31.986H248.31V39H246.728ZM247.526 30.558C247.255 30.558 247.022 30.4647 246.826 30.278C246.639 30.082 246.546 29.8533 246.546 29.592C246.546 29.3213 246.639 29.0927 246.826 28.906C247.022 28.71 247.255 28.612 247.526 28.612C247.796 28.612 248.025 28.71 248.212 28.906C248.408 29.0927 248.506 29.3167 248.506 29.578C248.506 29.8487 248.408 30.082 248.212 30.278C248.025 30.4647 247.796 30.558 247.526 30.558ZM253.475 39.126C252.812 39.126 252.21 38.9673 251.669 38.65C251.137 38.3327 250.717 37.9033 250.409 37.362C250.101 36.8113 249.947 36.1907 249.947 35.5C249.947 34.8093 250.101 34.1933 250.409 33.652C250.717 33.1013 251.137 32.6673 251.669 32.35C252.201 32.0327 252.803 31.874 253.475 31.874C254.147 31.874 254.744 32.0327 255.267 32.35C255.799 32.6673 256.219 33.1013 256.527 33.652C256.835 34.1933 256.989 34.8093 256.989 35.5C256.989 36.1907 256.835 36.8113 256.527 37.362C256.219 37.9033 255.799 38.3327 255.267 38.65C254.744 38.9673 254.147 39.126 253.475 39.126ZM253.475 37.782C253.858 37.782 254.194 37.684 254.483 37.488C254.782 37.292 255.015 37.0213 255.183 36.676C255.351 36.3213 255.435 35.9293 255.435 35.5C255.435 35.0613 255.351 34.674 255.183 34.338C255.015 33.9927 254.782 33.722 254.483 33.526C254.194 33.3207 253.858 33.218 253.475 33.218C253.092 33.218 252.752 33.3207 252.453 33.526C252.154 33.722 251.921 33.9927 251.753 34.338C251.585 34.674 251.501 35.0613 251.501 35.5C251.501 35.9387 251.585 36.3307 251.753 36.676C251.921 37.0213 252.154 37.292 252.453 37.488C252.752 37.684 253.092 37.782 253.475 37.782ZM258.623 39V31.986H260.205V33.134C260.475 32.714 260.797 32.4013 261.171 32.196C261.544 31.9813 261.959 31.874 262.417 31.874C262.902 31.874 263.327 31.9813 263.691 32.196C264.055 32.4013 264.339 32.6907 264.545 33.064C264.759 33.4373 264.867 33.876 264.867 34.38V39H263.271V34.828C263.271 34.3147 263.131 33.9087 262.851 33.61C262.571 33.302 262.197 33.148 261.731 33.148C261.413 33.148 261.124 33.2227 260.863 33.372C260.611 33.512 260.391 33.722 260.205 34.002V39H258.623ZM269.151 39.14C268.554 39.14 267.994 39.0607 267.471 38.902C266.958 38.734 266.514 38.496 266.141 38.188L266.883 37.138C267.35 37.4273 267.751 37.6327 268.087 37.754C268.432 37.8753 268.782 37.936 269.137 37.936C269.557 37.936 269.898 37.8473 270.159 37.67C270.42 37.4927 270.551 37.264 270.551 36.984C270.551 36.7693 270.472 36.6013 270.313 36.48C270.164 36.3493 269.916 36.2513 269.571 36.186L268.339 35.976C267.658 35.8453 267.149 35.6213 266.813 35.304C266.477 34.9867 266.309 34.5667 266.309 34.044C266.309 33.6053 266.421 33.2273 266.645 32.91C266.878 32.5833 267.196 32.3313 267.597 32.154C268.008 31.9673 268.484 31.874 269.025 31.874C269.51 31.874 269.982 31.944 270.439 32.084C270.896 32.224 271.344 32.434 271.783 32.714L271.041 33.764C270.686 33.5307 270.332 33.3627 269.977 33.26C269.632 33.148 269.282 33.092 268.927 33.092C268.563 33.092 268.269 33.1667 268.045 33.316C267.83 33.456 267.723 33.652 267.723 33.904C267.723 34.128 267.793 34.3007 267.933 34.422C268.082 34.534 268.339 34.618 268.703 34.674L269.949 34.912C270.649 35.0333 271.167 35.2573 271.503 35.584C271.848 35.9013 272.021 36.326 272.021 36.858C272.021 37.2873 271.895 37.6747 271.643 38.02C271.391 38.3653 271.05 38.6407 270.621 38.846C270.192 39.042 269.702 39.14 269.151 39.14ZM279.412 39.14C278.824 39.14 278.376 39 278.068 38.72C277.769 38.4307 277.62 38.0153 277.62 37.474V33.008H276.206V32.168H277.62V30.292L278.642 30.054V32.168H280.602V33.008H278.642V37.208C278.642 37.572 278.716 37.8333 278.866 37.992C279.024 38.1507 279.281 38.23 279.636 38.23C279.813 38.23 279.972 38.216 280.112 38.188C280.252 38.16 280.415 38.1133 280.602 38.048V38.958C280.415 39.0233 280.219 39.07 280.014 39.098C279.808 39.126 279.608 39.14 279.412 39.14ZM284.986 39.112C284.351 39.112 283.782 38.958 283.278 38.65C282.774 38.342 282.377 37.922 282.088 37.39C281.799 36.858 281.654 36.256 281.654 35.584C281.654 34.912 281.799 34.31 282.088 33.778C282.377 33.246 282.774 32.826 283.278 32.518C283.782 32.21 284.351 32.056 284.986 32.056C285.611 32.056 286.171 32.21 286.666 32.518C287.17 32.826 287.567 33.246 287.856 33.778C288.145 34.31 288.29 34.912 288.29 35.584C288.29 36.256 288.145 36.858 287.856 37.39C287.567 37.922 287.17 38.342 286.666 38.65C286.171 38.958 285.611 39.112 284.986 39.112ZM284.972 38.216C285.42 38.216 285.817 38.104 286.162 37.88C286.507 37.6467 286.778 37.3293 286.974 36.928C287.179 36.5267 287.282 36.0787 287.282 35.584C287.282 35.08 287.179 34.632 286.974 34.24C286.778 33.8387 286.507 33.526 286.162 33.302C285.817 33.0687 285.42 32.952 284.972 32.952C284.524 32.952 284.127 33.0687 283.782 33.302C283.437 33.526 283.161 33.8387 282.956 34.24C282.76 34.632 282.662 35.08 282.662 35.584C282.662 36.0787 282.76 36.5267 282.956 36.928C283.161 37.3293 283.437 37.6467 283.782 37.88C284.127 38.104 284.524 38.216 284.972 38.216ZM296.431 39.14C295.796 39.14 295.222 38.986 294.709 38.678C294.195 38.3607 293.789 37.936 293.491 37.404C293.192 36.8627 293.043 36.256 293.043 35.584C293.043 34.912 293.183 34.31 293.463 33.778C293.752 33.246 294.139 32.826 294.625 32.518C295.11 32.21 295.651 32.056 296.249 32.056C296.855 32.056 297.392 32.21 297.859 32.518C298.335 32.8167 298.708 33.2273 298.979 33.75C299.259 34.2633 299.399 34.8467 299.399 35.5V35.808H294.037C294.074 36.2747 294.2 36.6947 294.415 37.068C294.639 37.432 294.928 37.7213 295.283 37.936C295.647 38.1413 296.043 38.244 296.473 38.244C296.827 38.244 297.168 38.1833 297.495 38.062C297.831 37.9313 298.115 37.7587 298.349 37.544L298.993 38.23C298.601 38.538 298.195 38.7667 297.775 38.916C297.355 39.0653 296.907 39.14 296.431 39.14ZM294.065 35.08H298.391C298.344 34.6693 298.218 34.3053 298.013 33.988C297.817 33.6613 297.565 33.4047 297.257 33.218C296.958 33.0313 296.622 32.938 296.249 32.938C295.875 32.938 295.535 33.0313 295.227 33.218C294.919 33.3953 294.662 33.6473 294.457 33.974C294.261 34.2913 294.13 34.66 294.065 35.08ZM299.852 39L302.47 35.458L300.006 32.168H301.224L303.114 34.772L304.99 32.168H306.152L303.674 35.486L306.306 39H305.088L303.044 36.214L301.014 39H299.852ZM307.542 41.926V32.168H308.55V33.148C308.812 32.8027 309.129 32.5413 309.502 32.364C309.885 32.1773 310.305 32.084 310.762 32.084C311.36 32.084 311.892 32.2427 312.358 32.56C312.834 32.868 313.212 33.288 313.492 33.82C313.772 34.3427 313.912 34.9307 313.912 35.584C313.912 36.2373 313.768 36.83 313.478 37.362C313.198 37.894 312.816 38.3187 312.33 38.636C311.854 38.944 311.313 39.098 310.706 39.098C310.277 39.098 309.88 39.0187 309.516 38.86C309.152 38.692 308.835 38.454 308.564 38.146V41.926H307.542ZM310.51 38.216C310.968 38.216 311.374 38.104 311.728 37.88C312.092 37.6467 312.377 37.334 312.582 36.942C312.797 36.5407 312.904 36.0927 312.904 35.598C312.904 35.094 312.797 34.646 312.582 34.254C312.377 33.862 312.092 33.554 311.728 33.33C311.374 33.0967 310.968 32.98 310.51 32.98C310.109 32.98 309.736 33.064 309.39 33.232C309.054 33.3907 308.779 33.6193 308.564 33.918V37.264C308.788 37.5627 309.068 37.796 309.404 37.964C309.75 38.132 310.118 38.216 310.51 38.216ZM318.728 39.112C318.094 39.112 317.524 38.958 317.02 38.65C316.516 38.342 316.12 37.922 315.83 37.39C315.541 36.858 315.396 36.256 315.396 35.584C315.396 34.912 315.541 34.31 315.83 33.778C316.12 33.246 316.516 32.826 317.02 32.518C317.524 32.21 318.094 32.056 318.728 32.056C319.354 32.056 319.914 32.21 320.408 32.518C320.912 32.826 321.309 33.246 321.598 33.778C321.888 34.31 322.032 34.912 322.032 35.584C322.032 36.256 321.888 36.858 321.598 37.39C321.309 37.922 320.912 38.342 320.408 38.65C319.914 38.958 319.354 39.112 318.728 39.112ZM318.714 38.216C319.162 38.216 319.559 38.104 319.904 37.88C320.25 37.6467 320.52 37.3293 320.716 36.928C320.922 36.5267 321.024 36.0787 321.024 35.584C321.024 35.08 320.922 34.632 320.716 34.24C320.52 33.8387 320.25 33.526 319.904 33.302C319.559 33.0687 319.162 32.952 318.714 32.952C318.266 32.952 317.87 33.0687 317.524 33.302C317.179 33.526 316.904 33.8387 316.698 34.24C316.502 34.632 316.404 35.08 316.404 35.584C316.404 36.0787 316.502 36.5267 316.698 36.928C316.904 37.3293 317.179 37.6467 317.524 37.88C317.87 38.104 318.266 38.216 318.714 38.216ZM325.939 39.14C325.379 39.14 324.861 39.056 324.385 38.888C323.909 38.7107 323.503 38.4587 323.167 38.132L323.713 37.46C324.124 37.7587 324.502 37.978 324.847 38.118C325.193 38.2487 325.547 38.314 325.911 38.314C326.406 38.314 326.817 38.1973 327.143 37.964C327.47 37.7307 327.633 37.432 327.633 37.068C327.633 36.788 327.535 36.5687 327.339 36.41C327.153 36.2513 326.84 36.13 326.401 36.046L325.281 35.85C324.619 35.7287 324.129 35.5233 323.811 35.234C323.503 34.9447 323.349 34.5527 323.349 34.058C323.349 33.666 323.452 33.3207 323.657 33.022C323.872 32.7233 324.166 32.49 324.539 32.322C324.913 32.1447 325.337 32.056 325.813 32.056C326.28 32.056 326.723 32.126 327.143 32.266C327.563 32.3967 327.988 32.6113 328.417 32.91L327.913 33.624C327.559 33.372 327.204 33.19 326.849 33.078C326.495 32.9567 326.135 32.896 325.771 32.896C325.323 32.896 324.964 32.994 324.693 33.19C324.423 33.386 324.287 33.652 324.287 33.988C324.287 34.268 324.371 34.4827 324.539 34.632C324.717 34.7813 325.025 34.8933 325.463 34.968L326.611 35.178C327.302 35.2993 327.806 35.5093 328.123 35.808C328.441 36.1067 328.599 36.508 328.599 37.012C328.599 37.4133 328.483 37.7773 328.249 38.104C328.016 38.4213 327.699 38.6733 327.297 38.86C326.896 39.0467 326.443 39.14 325.939 39.14ZM333.304 39.14C332.669 39.14 332.095 38.986 331.582 38.678C331.068 38.3607 330.662 37.936 330.364 37.404C330.065 36.8627 329.916 36.256 329.916 35.584C329.916 34.912 330.056 34.31 330.336 33.778C330.625 33.246 331.012 32.826 331.498 32.518C331.983 32.21 332.524 32.056 333.122 32.056C333.728 32.056 334.265 32.21 334.732 32.518C335.208 32.8167 335.581 33.2273 335.852 33.75C336.132 34.2633 336.272 34.8467 336.272 35.5V35.808H330.91C330.947 36.2747 331.073 36.6947 331.288 37.068C331.512 37.432 331.801 37.7213 332.156 37.936C332.52 38.1413 332.916 38.244 333.346 38.244C333.7 38.244 334.041 38.1833 334.368 38.062C334.704 37.9313 334.988 37.7587 335.222 37.544L335.866 38.23C335.474 38.538 335.068 38.7667 334.648 38.916C334.228 39.0653 333.78 39.14 333.304 39.14ZM330.938 35.08H335.264C335.217 34.6693 335.091 34.3053 334.886 33.988C334.69 33.6613 334.438 33.4047 334.13 33.218C333.831 33.0313 333.495 32.938 333.122 32.938C332.748 32.938 332.408 33.0313 332.1 33.218C331.792 33.3953 331.535 33.6473 331.33 33.974C331.134 34.2913 331.003 34.66 330.938 35.08ZM343.398 39.126C342.913 39.126 342.484 39.0373 342.11 38.86C341.737 38.6827 341.443 38.44 341.228 38.132C341.023 37.8147 340.92 37.4507 340.92 37.04C340.92 36.6293 341.028 36.2747 341.242 35.976C341.457 35.668 341.756 35.43 342.138 35.262C342.521 35.094 342.969 35.01 343.482 35.01C343.874 35.01 344.243 35.052 344.588 35.136C344.943 35.22 345.27 35.3553 345.568 35.542V34.604C345.568 34.044 345.419 33.624 345.12 33.344C344.822 33.0547 344.383 32.91 343.804 32.91C343.487 32.91 343.16 32.9567 342.824 33.05C342.498 33.1433 342.134 33.2927 341.732 33.498L341.354 32.714C342.269 32.2753 343.128 32.056 343.93 32.056C344.78 32.056 345.433 32.266 345.89 32.686C346.348 33.0967 346.576 33.6893 346.576 34.464V39H345.568V38.202C345.27 38.51 344.938 38.7433 344.574 38.902C344.21 39.0513 343.818 39.126 343.398 39.126ZM341.9 37.012C341.9 37.4133 342.054 37.7353 342.362 37.978C342.68 38.2207 343.095 38.342 343.608 38.342C343.991 38.342 344.341 38.2767 344.658 38.146C344.985 38.0153 345.288 37.8193 345.568 37.558V36.242C345.279 36.074 344.98 35.9527 344.672 35.878C344.364 35.794 344.019 35.752 343.636 35.752C343.114 35.752 342.694 35.8687 342.376 36.102C342.059 36.326 341.9 36.6293 341.9 37.012ZM351.496 39.098C350.908 39.098 350.376 38.944 349.9 38.636C349.424 38.3187 349.046 37.8987 348.766 37.376C348.486 36.844 348.346 36.2513 348.346 35.598C348.346 34.9353 348.486 34.3427 348.766 33.82C349.055 33.288 349.442 32.868 349.928 32.56C350.413 32.2427 350.954 32.084 351.552 32.084C351.972 32.084 352.364 32.168 352.728 32.336C353.092 32.4947 353.409 32.728 353.68 33.036V28.892L354.702 28.682V39H353.68V38.09C353.418 38.4167 353.101 38.6687 352.728 38.846C352.354 39.014 351.944 39.098 351.496 39.098ZM351.748 38.202C352.149 38.202 352.518 38.1227 352.854 37.964C353.19 37.8053 353.465 37.5813 353.68 37.292V33.904C353.456 33.6147 353.171 33.3907 352.826 33.232C352.49 33.064 352.13 32.98 351.748 32.98C351.29 32.98 350.88 33.092 350.516 33.316C350.161 33.54 349.876 33.848 349.662 34.24C349.456 34.632 349.354 35.08 349.354 35.584C349.354 36.0787 349.456 36.5267 349.662 36.928C349.876 37.32 350.161 37.6327 350.516 37.866C350.88 38.09 351.29 38.202 351.748 38.202ZM359.644 39.098C359.056 39.098 358.524 38.944 358.048 38.636C357.572 38.3187 357.194 37.8987 356.914 37.376C356.634 36.844 356.494 36.2513 356.494 35.598C356.494 34.9353 356.634 34.3427 356.914 33.82C357.203 33.288 357.591 32.868 358.076 32.56C358.561 32.2427 359.103 32.084 359.7 32.084C360.12 32.084 360.512 32.168 360.876 32.336C361.24 32.4947 361.557 32.728 361.828 33.036V28.892L362.85 28.682V39H361.828V38.09C361.567 38.4167 361.249 38.6687 360.876 38.846C360.503 39.014 360.092 39.098 359.644 39.098ZM359.896 38.202C360.297 38.202 360.666 38.1227 361.002 37.964C361.338 37.8053 361.613 37.5813 361.828 37.292V33.904C361.604 33.6147 361.319 33.3907 360.974 33.232C360.638 33.064 360.279 32.98 359.896 32.98C359.439 32.98 359.028 33.092 358.664 33.316C358.309 33.54 358.025 33.848 357.81 34.24C357.605 34.632 357.502 35.08 357.502 35.584C357.502 36.0787 357.605 36.5267 357.81 36.928C358.025 37.32 358.309 37.6327 358.664 37.866C359.028 38.09 359.439 38.202 359.896 38.202ZM364.936 39V32.168H365.958V39H364.936ZM365.454 30.474C365.249 30.474 365.072 30.404 364.922 30.264C364.782 30.1147 364.712 29.942 364.712 29.746C364.712 29.55 364.782 29.382 364.922 29.242C365.072 29.0927 365.249 29.018 365.454 29.018C365.66 29.018 365.832 29.0927 365.972 29.242C366.122 29.382 366.196 29.55 366.196 29.746C366.196 29.942 366.122 30.1147 365.972 30.264C365.832 30.404 365.66 30.474 365.454 30.474ZM370.658 39.14C370.07 39.14 369.622 39 369.314 38.72C369.015 38.4307 368.866 38.0153 368.866 37.474V33.008H367.452V32.168H368.866V30.292L369.888 30.054V32.168H371.848V33.008H369.888V37.208C369.888 37.572 369.963 37.8333 370.112 37.992C370.271 38.1507 370.527 38.23 370.882 38.23C371.059 38.23 371.218 38.216 371.358 38.188C371.498 38.16 371.661 38.1133 371.848 38.048V38.958C371.661 39.0233 371.465 39.07 371.26 39.098C371.055 39.126 370.854 39.14 370.658 39.14ZM373.331 39V32.168H374.353V39H373.331ZM373.849 30.474C373.644 30.474 373.466 30.404 373.317 30.264C373.177 30.1147 373.107 29.942 373.107 29.746C373.107 29.55 373.177 29.382 373.317 29.242C373.466 29.0927 373.644 29.018 373.849 29.018C374.054 29.018 374.227 29.0927 374.367 29.242C374.516 29.382 374.591 29.55 374.591 29.746C374.591 29.942 374.516 30.1147 374.367 30.264C374.227 30.404 374.054 30.474 373.849 30.474ZM379.472 39.112C378.838 39.112 378.268 38.958 377.764 38.65C377.26 38.342 376.864 37.922 376.574 37.39C376.285 36.858 376.14 36.256 376.14 35.584C376.14 34.912 376.285 34.31 376.574 33.778C376.864 33.246 377.26 32.826 377.764 32.518C378.268 32.21 378.838 32.056 379.472 32.056C380.098 32.056 380.658 32.21 381.152 32.518C381.656 32.826 382.053 33.246 382.342 33.778C382.632 34.31 382.776 34.912 382.776 35.584C382.776 36.256 382.632 36.858 382.342 37.39C382.053 37.922 381.656 38.342 381.152 38.65C380.658 38.958 380.098 39.112 379.472 39.112ZM379.458 38.216C379.906 38.216 380.303 38.104 380.648 37.88C380.994 37.6467 381.264 37.3293 381.46 36.928C381.666 36.5267 381.768 36.0787 381.768 35.584C381.768 35.08 381.666 34.632 381.46 34.24C381.264 33.8387 380.994 33.526 380.648 33.302C380.303 33.0687 379.906 32.952 379.458 32.952C379.01 32.952 378.614 33.0687 378.268 33.302C377.923 33.526 377.648 33.8387 377.442 34.24C377.246 34.632 377.148 35.08 377.148 35.584C377.148 36.0787 377.246 36.5267 377.442 36.928C377.648 37.3293 377.923 37.6467 378.268 37.88C378.614 38.104 379.01 38.216 379.458 38.216ZM384.57 39V32.168H385.592V33.274C385.853 32.8633 386.166 32.56 386.53 32.364C386.894 32.1587 387.304 32.056 387.762 32.056C388.256 32.056 388.686 32.1633 389.05 32.378C389.423 32.5833 389.712 32.8773 389.918 33.26C390.132 33.6333 390.24 34.072 390.24 34.576V39H389.218V34.87C389.218 34.2633 389.05 33.7873 388.714 33.442C388.387 33.0873 387.944 32.91 387.384 32.91C387.01 32.91 386.67 32.9987 386.362 33.176C386.054 33.3533 385.797 33.6147 385.592 33.96V39H384.57ZM394.408 39.126C393.923 39.126 393.493 39.0373 393.12 38.86C392.747 38.6827 392.453 38.44 392.238 38.132C392.033 37.8147 391.93 37.4507 391.93 37.04C391.93 36.6293 392.037 36.2747 392.252 35.976C392.467 35.668 392.765 35.43 393.148 35.262C393.531 35.094 393.979 35.01 394.492 35.01C394.884 35.01 395.253 35.052 395.598 35.136C395.953 35.22 396.279 35.3553 396.578 35.542V34.604C396.578 34.044 396.429 33.624 396.13 33.344C395.831 33.0547 395.393 32.91 394.814 32.91C394.497 32.91 394.17 32.9567 393.834 33.05C393.507 33.1433 393.143 33.2927 392.742 33.498L392.364 32.714C393.279 32.2753 394.137 32.056 394.94 32.056C395.789 32.056 396.443 32.266 396.9 32.686C397.357 33.0967 397.586 33.6893 397.586 34.464V39H396.578V38.202C396.279 38.51 395.948 38.7433 395.584 38.902C395.22 39.0513 394.828 39.126 394.408 39.126ZM392.91 37.012C392.91 37.4133 393.064 37.7353 393.372 37.978C393.689 38.2207 394.105 38.342 394.618 38.342C395.001 38.342 395.351 38.2767 395.668 38.146C395.995 38.0153 396.298 37.8193 396.578 37.558V36.242C396.289 36.074 395.99 35.9527 395.682 35.878C395.374 35.794 395.029 35.752 394.646 35.752C394.123 35.752 393.703 35.8687 393.386 36.102C393.069 36.326 392.91 36.6293 392.91 37.012ZM399.663 39V28.892L400.685 28.682V39H399.663ZM406.916 39V33.008H405.39V32.168H406.916V30.74C406.916 30.068 407.093 29.55 407.448 29.186C407.803 28.822 408.307 28.64 408.96 28.64C409.147 28.64 409.315 28.6493 409.464 28.668C409.623 28.6867 409.763 28.7193 409.884 28.766V29.69C409.735 29.6433 409.599 29.6107 409.478 29.592C409.357 29.5733 409.217 29.564 409.058 29.564C408.666 29.564 408.381 29.662 408.204 29.858C408.027 30.0447 407.938 30.3433 407.938 30.754V32.168H409.884V33.008H407.938V39H406.916ZM413.967 39.112C413.332 39.112 412.763 38.958 412.259 38.65C411.755 38.342 411.358 37.922 411.069 37.39C410.779 36.858 410.635 36.256 410.635 35.584C410.635 34.912 410.779 34.31 411.069 33.778C411.358 33.246 411.755 32.826 412.259 32.518C412.763 32.21 413.332 32.056 413.967 32.056C414.592 32.056 415.152 32.21 415.647 32.518C416.151 32.826 416.547 33.246 416.837 33.778C417.126 34.31 417.271 34.912 417.271 35.584C417.271 36.256 417.126 36.858 416.837 37.39C416.547 37.922 416.151 38.342 415.647 38.65C415.152 38.958 414.592 39.112 413.967 39.112ZM413.953 38.216C414.401 38.216 414.797 38.104 415.143 37.88C415.488 37.6467 415.759 37.3293 415.955 36.928C416.16 36.5267 416.263 36.0787 416.263 35.584C416.263 35.08 416.16 34.632 415.955 34.24C415.759 33.8387 415.488 33.526 415.143 33.302C414.797 33.0687 414.401 32.952 413.953 32.952C413.505 32.952 413.108 33.0687 412.763 33.302C412.417 33.526 412.142 33.8387 411.937 34.24C411.741 34.632 411.643 35.08 411.643 35.584C411.643 36.0787 411.741 36.5267 411.937 36.928C412.142 37.3293 412.417 37.6467 412.763 37.88C413.108 38.104 413.505 38.216 413.953 38.216ZM419.064 39V32.168H420.086V33.568C420.263 33.092 420.515 32.7233 420.842 32.462C421.178 32.1913 421.56 32.056 421.99 32.056C422.111 32.056 422.223 32.0653 422.326 32.084C422.428 32.0933 422.531 32.1167 422.634 32.154V33.078C422.522 33.0407 422.4 33.0127 422.27 32.994C422.148 32.966 422.032 32.952 421.92 32.952C421.5 32.952 421.131 33.0733 420.814 33.316C420.506 33.5587 420.263 33.8993 420.086 34.338V39H419.064ZM423.986 39V32.168H425.008V33.232C425.269 32.84 425.568 32.546 425.904 32.35C426.24 32.154 426.618 32.056 427.038 32.056C427.523 32.056 427.948 32.1773 428.312 32.42C428.676 32.6533 428.951 32.9753 429.138 33.386C429.408 32.9473 429.73 32.616 430.104 32.392C430.486 32.168 430.925 32.056 431.42 32.056C431.877 32.056 432.278 32.1633 432.624 32.378C432.978 32.5927 433.254 32.8913 433.45 33.274C433.646 33.6473 433.744 34.086 433.744 34.59V39H432.722V34.842C432.722 34.2447 432.572 33.7733 432.274 33.428C431.975 33.0827 431.564 32.91 431.042 32.91C430.687 32.91 430.365 32.9987 430.076 33.176C429.796 33.3533 429.548 33.624 429.334 33.988C429.352 34.0813 429.366 34.1793 429.376 34.282C429.385 34.3847 429.39 34.4873 429.39 34.59V39H428.368V34.842C428.368 34.2447 428.214 33.7733 427.906 33.428C427.607 33.0827 427.196 32.91 426.674 32.91C425.974 32.91 425.418 33.246 425.008 33.918V39H423.986ZM439.947 39V33.008H438.421V32.168H439.947V30.74C439.947 30.068 440.125 29.55 440.479 29.186C440.834 28.822 441.338 28.64 441.991 28.64C442.178 28.64 442.346 28.6493 442.495 28.668C442.654 28.6867 442.794 28.7193 442.915 28.766V29.69C442.766 29.6433 442.631 29.6107 442.509 29.592C442.388 29.5733 442.248 29.564 442.089 29.564C441.697 29.564 441.413 29.662 441.235 29.858C441.058 30.0447 440.969 30.3433 440.969 30.754V32.168H442.915V33.008H440.969V39H439.947ZM444.247 39V32.168H445.269V39H444.247ZM444.765 30.474C444.56 30.474 444.382 30.404 444.233 30.264C444.093 30.1147 444.023 29.942 444.023 29.746C444.023 29.55 444.093 29.382 444.233 29.242C444.382 29.0927 444.56 29.018 444.765 29.018C444.97 29.018 445.143 29.0927 445.283 29.242C445.432 29.382 445.507 29.55 445.507 29.746C445.507 29.942 445.432 30.1147 445.283 30.264C445.143 30.404 444.97 30.474 444.765 30.474ZM450.444 39.14C449.81 39.14 449.236 38.986 448.722 38.678C448.209 38.3607 447.803 37.936 447.504 37.404C447.206 36.8627 447.056 36.256 447.056 35.584C447.056 34.912 447.196 34.31 447.476 33.778C447.766 33.246 448.153 32.826 448.638 32.518C449.124 32.21 449.665 32.056 450.262 32.056C450.869 32.056 451.406 32.21 451.872 32.518C452.348 32.8167 452.722 33.2273 452.992 33.75C453.272 34.2633 453.412 34.8467 453.412 35.5V35.808H448.05C448.088 36.2747 448.214 36.6947 448.428 37.068C448.652 37.432 448.942 37.7213 449.296 37.936C449.66 38.1413 450.057 38.244 450.486 38.244C450.841 38.244 451.182 38.1833 451.508 38.062C451.844 37.9313 452.129 37.7587 452.362 37.544L453.006 38.23C452.614 38.538 452.208 38.7667 451.788 38.916C451.368 39.0653 450.92 39.14 450.444 39.14ZM448.078 35.08H452.404C452.358 34.6693 452.232 34.3053 452.026 33.988C451.83 33.6613 451.578 33.4047 451.27 33.218C450.972 33.0313 450.636 32.938 450.262 32.938C449.889 32.938 449.548 33.0313 449.24 33.218C448.932 33.3953 448.676 33.6473 448.47 33.974C448.274 34.2913 448.144 34.66 448.078 35.08ZM455.157 39V28.892L456.179 28.682V39H455.157ZM461.117 39.098C460.529 39.098 459.997 38.944 459.521 38.636C459.045 38.3187 458.667 37.8987 458.387 37.376C458.107 36.844 457.967 36.2513 457.967 35.598C457.967 34.9353 458.107 34.3427 458.387 33.82C458.676 33.288 459.063 32.868 459.549 32.56C460.034 32.2427 460.575 32.084 461.173 32.084C461.593 32.084 461.985 32.168 462.349 32.336C462.713 32.4947 463.03 32.728 463.301 33.036V28.892L464.323 28.682V39H463.301V38.09C463.039 38.4167 462.722 38.6687 462.349 38.846C461.975 39.014 461.565 39.098 461.117 39.098ZM461.369 38.202C461.77 38.202 462.139 38.1227 462.475 37.964C462.811 37.8053 463.086 37.5813 463.301 37.292V33.904C463.077 33.6147 462.792 33.3907 462.447 33.232C462.111 33.064 461.751 32.98 461.369 32.98C460.911 32.98 460.501 33.092 460.137 33.316C459.782 33.54 459.497 33.848 459.283 34.24C459.077 34.632 458.975 35.08 458.975 35.584C458.975 36.0787 459.077 36.5267 459.283 36.928C459.497 37.32 459.782 37.6327 460.137 37.866C460.501 38.09 460.911 38.202 461.369 38.202ZM468.537 39.14C467.977 39.14 467.459 39.056 466.983 38.888C466.507 38.7107 466.101 38.4587 465.765 38.132L466.311 37.46C466.722 37.7587 467.1 37.978 467.445 38.118C467.79 38.2487 468.145 38.314 468.509 38.314C469.004 38.314 469.414 38.1973 469.741 37.964C470.068 37.7307 470.231 37.432 470.231 37.068C470.231 36.788 470.133 36.5687 469.937 36.41C469.75 36.2513 469.438 36.13 468.999 36.046L467.879 35.85C467.216 35.7287 466.726 35.5233 466.409 35.234C466.101 34.9447 465.947 34.5527 465.947 34.058C465.947 33.666 466.05 33.3207 466.255 33.022C466.47 32.7233 466.764 32.49 467.137 32.322C467.51 32.1447 467.935 32.056 468.411 32.056C468.878 32.056 469.321 32.126 469.741 32.266C470.161 32.3967 470.586 32.6113 471.015 32.91L470.511 33.624C470.156 33.372 469.802 33.19 469.447 33.078C469.092 32.9567 468.733 32.896 468.369 32.896C467.921 32.896 467.562 32.994 467.291 33.19C467.02 33.386 466.885 33.652 466.885 33.988C466.885 34.268 466.969 34.4827 467.137 34.632C467.314 34.7813 467.622 34.8933 468.061 34.968L469.209 35.178C469.9 35.2993 470.404 35.5093 470.721 35.808C471.038 36.1067 471.197 36.508 471.197 37.012C471.197 37.4133 471.08 37.7773 470.847 38.104C470.614 38.4213 470.296 38.6733 469.895 38.86C469.494 39.0467 469.041 39.14 468.537 39.14ZM473.316 39.112C473.111 39.112 472.934 39.0373 472.784 38.888C472.644 38.7387 472.574 38.5613 472.574 38.356C472.574 38.1413 472.644 37.964 472.784 37.824C472.934 37.6747 473.111 37.6 473.316 37.6C473.522 37.6 473.694 37.6747 473.834 37.824C473.984 37.964 474.058 38.1413 474.058 38.356C474.058 38.5613 473.984 38.7387 473.834 38.888C473.694 39.0373 473.522 39.112 473.316 39.112Z" fill="black"/>
<path d="M48.3448 103.046C49.1008 103.046 49.7635 103.247 50.3328 103.648C50.9115 104.049 51.3642 104.605 51.6908 105.314C52.0175 106.014 52.1808 106.826 52.1808 107.75C52.1808 108.833 51.9988 109.78 51.6348 110.592C51.2708 111.395 50.7575 112.02 50.0948 112.468C49.4322 112.916 48.6622 113.14 47.7848 113.14C47.3742 113.14 46.9682 113.084 46.5668 112.972C46.1655 112.86 45.8062 112.697 45.4888 112.482L45.9928 111.698C46.2822 111.866 46.5855 111.997 46.9028 112.09C47.2202 112.183 47.5422 112.23 47.8688 112.23C48.5408 112.23 49.1195 112.057 49.6048 111.712C50.0995 111.357 50.4775 110.853 50.7388 110.2C51.0095 109.547 51.1542 108.763 51.1728 107.848C50.8088 108.315 50.3748 108.679 49.8708 108.94C49.3668 109.201 48.8442 109.332 48.3028 109.332C47.6682 109.332 47.1035 109.201 46.6088 108.94C46.1142 108.679 45.7268 108.319 45.4468 107.862C45.1668 107.395 45.0268 106.868 45.0268 106.28C45.0268 105.664 45.1715 105.113 45.4608 104.628C45.7502 104.133 46.1422 103.746 46.6368 103.466C47.1408 103.186 47.7102 103.046 48.3448 103.046ZM48.4428 108.506C48.9562 108.506 49.4462 108.38 49.9128 108.128C50.3888 107.867 50.7995 107.512 51.1448 107.064C51.0702 106.439 50.9068 105.893 50.6548 105.426C50.4122 104.95 50.0902 104.581 49.6888 104.32C49.2968 104.059 48.8535 103.928 48.3588 103.928C47.9108 103.928 47.5095 104.031 47.1548 104.236C46.8095 104.432 46.5342 104.707 46.3288 105.062C46.1328 105.417 46.0348 105.813 46.0348 106.252C46.0348 106.691 46.1375 107.083 46.3428 107.428C46.5482 107.764 46.8282 108.03 47.1828 108.226C47.5468 108.413 47.9668 108.506 48.4428 108.506ZM54.5834 113.112C54.378 113.112 54.2007 113.037 54.0514 112.888C53.9114 112.739 53.8414 112.561 53.8414 112.356C53.8414 112.141 53.9114 111.964 54.0514 111.824C54.2007 111.675 54.378 111.6 54.5834 111.6C54.7887 111.6 54.9614 111.675 55.1014 111.824C55.2507 111.964 55.3254 112.141 55.3254 112.356C55.3254 112.561 55.2507 112.739 55.1014 112.888C54.9614 113.037 54.7887 113.112 54.5834 113.112ZM61.126 113L65.004 103.2H66.292L70.114 113H68.952L67.79 109.92H63.422L62.26 113H61.126ZM63.758 109.066H67.468L65.606 104.18L63.758 109.066ZM73.0622 113.14C72.4742 113.14 72.0262 113 71.7182 112.72C71.4195 112.431 71.2702 112.015 71.2702 111.474V107.008H69.8562V106.168H71.2702V104.292L72.2922 104.054V106.168H74.2522V107.008H72.2922V111.208C72.2922 111.572 72.3669 111.833 72.5162 111.992C72.6749 112.151 72.9315 112.23 73.2862 112.23C73.4635 112.23 73.6222 112.216 73.7622 112.188C73.9022 112.16 74.0655 112.113 74.2522 112.048V112.958C74.0655 113.023 73.8695 113.07 73.6642 113.098C73.4589 113.126 73.2582 113.14 73.0622 113.14ZM81.6208 113.14C81.0328 113.14 80.5848 113 80.2768 112.72C79.9781 112.431 79.8288 112.015 79.8288 111.474V107.008H78.4148V106.168H79.8288V104.292L80.8508 104.054V106.168H82.8108V107.008H80.8508V111.208C80.8508 111.572 80.9255 111.833 81.0748 111.992C81.2335 112.151 81.4901 112.23 81.8448 112.23C82.0221 112.23 82.1808 112.216 82.3208 112.188C82.4608 112.16 82.6241 112.113 82.8108 112.048V112.958C82.6241 113.023 82.4281 113.07 82.2228 113.098C82.0175 113.126 81.8168 113.14 81.6208 113.14ZM84.3078 113V102.892L85.3298 102.682V107.274C85.5911 106.863 85.9038 106.56 86.2678 106.364C86.6318 106.159 87.0425 106.056 87.4998 106.056C87.9945 106.056 88.4238 106.163 88.7878 106.378C89.1611 106.583 89.4505 106.877 89.6558 107.26C89.8705 107.633 89.9778 108.072 89.9778 108.576V113H88.9558V108.87C88.9558 108.263 88.7878 107.787 88.4518 107.442C88.1251 107.087 87.6818 106.91 87.1218 106.91C86.7485 106.91 86.4078 106.999 86.0998 107.176C85.7918 107.353 85.5351 107.615 85.3298 107.96V113H84.3078ZM95.1124 113.14C94.4778 113.14 93.9038 112.986 93.3904 112.678C92.8771 112.361 92.4711 111.936 92.1724 111.404C91.8738 110.863 91.7244 110.256 91.7244 109.584C91.7244 108.912 91.8644 108.31 92.1444 107.778C92.4338 107.246 92.8211 106.826 93.3064 106.518C93.7918 106.21 94.3331 106.056 94.9304 106.056C95.5371 106.056 96.0738 106.21 96.5404 106.518C97.0164 106.817 97.3898 107.227 97.6604 107.75C97.9404 108.263 98.0804 108.847 98.0804 109.5V109.808H92.7184C92.7558 110.275 92.8818 110.695 93.0964 111.068C93.3204 111.432 93.6098 111.721 93.9644 111.936C94.3284 112.141 94.7251 112.244 95.1544 112.244C95.5091 112.244 95.8498 112.183 96.1764 112.062C96.5124 111.931 96.7971 111.759 97.0304 111.544L97.6744 112.23C97.2824 112.538 96.8764 112.767 96.4564 112.916C96.0364 113.065 95.5884 113.14 95.1124 113.14ZM92.7464 109.08H97.0724C97.0258 108.669 96.8998 108.305 96.6944 107.988C96.4984 107.661 96.2464 107.405 95.9384 107.218C95.6398 107.031 95.3038 106.938 94.9304 106.938C94.5571 106.938 94.2164 107.031 93.9084 107.218C93.6004 107.395 93.3438 107.647 93.1384 107.974C92.9424 108.291 92.8118 108.66 92.7464 109.08ZM106.173 113.14C105.538 113.14 104.964 112.986 104.451 112.678C103.938 112.361 103.532 111.936 103.233 111.404C102.934 110.863 102.785 110.256 102.785 109.584C102.785 108.912 102.925 108.31 103.205 107.778C103.494 107.246 103.882 106.826 104.367 106.518C104.852 106.21 105.394 106.056 105.991 106.056C106.598 106.056 107.134 106.21 107.601 106.518C108.077 106.817 108.45 107.227 108.721 107.75C109.001 108.263 109.141 108.847 109.141 109.5V109.808H103.779C103.816 110.275 103.942 110.695 104.157 111.068C104.381 111.432 104.67 111.721 105.025 111.936C105.389 112.141 105.786 112.244 106.215 112.244C106.57 112.244 106.91 112.183 107.237 112.062C107.573 111.931 107.858 111.759 108.091 111.544L108.735 112.23C108.343 112.538 107.937 112.767 107.517 112.916C107.097 113.065 106.649 113.14 106.173 113.14ZM103.807 109.08H108.133C108.086 108.669 107.96 108.305 107.755 107.988C107.559 107.661 107.307 107.405 106.999 107.218C106.7 107.031 106.364 106.938 105.991 106.938C105.618 106.938 105.277 107.031 104.969 107.218C104.661 107.395 104.404 107.647 104.199 107.974C104.003 108.291 103.872 108.66 103.807 109.08ZM110.886 113V106.168H111.908V107.274C112.169 106.863 112.482 106.56 112.846 106.364C113.21 106.159 113.621 106.056 114.078 106.056C114.573 106.056 115.002 106.163 115.366 106.378C115.739 106.583 116.029 106.877 116.234 107.26C116.449 107.633 116.556 108.072 116.556 108.576V113H115.534V108.87C115.534 108.263 115.366 107.787 115.03 107.442C114.703 107.087 114.26 106.91 113.7 106.91C113.327 106.91 112.986 106.999 112.678 107.176C112.37 107.353 112.113 107.615 111.908 107.96V113H110.886ZM121.453 113.098C120.865 113.098 120.333 112.944 119.857 112.636C119.381 112.319 119.003 111.899 118.723 111.376C118.443 110.844 118.303 110.251 118.303 109.598C118.303 108.935 118.443 108.343 118.723 107.82C119.012 107.288 119.399 106.868 119.885 106.56C120.37 106.243 120.911 106.084 121.509 106.084C121.929 106.084 122.321 106.168 122.685 106.336C123.049 106.495 123.366 106.728 123.637 107.036V102.892L124.659 102.682V113H123.637V112.09C123.375 112.417 123.058 112.669 122.685 112.846C122.311 113.014 121.901 113.098 121.453 113.098ZM121.705 112.202C122.106 112.202 122.475 112.123 122.811 111.964C123.147 111.805 123.422 111.581 123.637 111.292V107.904C123.413 107.615 123.128 107.391 122.783 107.232C122.447 107.064 122.087 106.98 121.705 106.98C121.247 106.98 120.837 107.092 120.473 107.316C120.118 107.54 119.833 107.848 119.619 108.24C119.413 108.632 119.311 109.08 119.311 109.584C119.311 110.079 119.413 110.527 119.619 110.928C119.833 111.32 120.118 111.633 120.473 111.866C120.837 112.09 121.247 112.202 121.705 112.202ZM133.051 113.112C132.416 113.112 131.847 112.958 131.343 112.65C130.839 112.342 130.442 111.922 130.153 111.39C129.863 110.858 129.719 110.256 129.719 109.584C129.719 108.912 129.863 108.31 130.153 107.778C130.442 107.246 130.839 106.826 131.343 106.518C131.847 106.21 132.416 106.056 133.051 106.056C133.676 106.056 134.236 106.21 134.731 106.518C135.235 106.826 135.631 107.246 135.921 107.778C136.21 108.31 136.355 108.912 136.355 109.584C136.355 110.256 136.21 110.858 135.921 111.39C135.631 111.922 135.235 112.342 134.731 112.65C134.236 112.958 133.676 113.112 133.051 113.112ZM133.037 112.216C133.485 112.216 133.881 112.104 134.227 111.88C134.572 111.647 134.843 111.329 135.039 110.928C135.244 110.527 135.347 110.079 135.347 109.584C135.347 109.08 135.244 108.632 135.039 108.24C134.843 107.839 134.572 107.526 134.227 107.302C133.881 107.069 133.485 106.952 133.037 106.952C132.589 106.952 132.192 107.069 131.847 107.302C131.501 107.526 131.226 107.839 131.021 108.24C130.825 108.632 130.727 109.08 130.727 109.584C130.727 110.079 130.825 110.527 131.021 110.928C131.226 111.329 131.501 111.647 131.847 111.88C132.192 112.104 132.589 112.216 133.037 112.216ZM138.592 113V107.008H137.066V106.168H138.592V104.74C138.592 104.068 138.769 103.55 139.124 103.186C139.478 102.822 139.982 102.64 140.636 102.64C140.822 102.64 140.99 102.649 141.14 102.668C141.298 102.687 141.438 102.719 141.56 102.766V103.69C141.41 103.643 141.275 103.611 141.154 103.592C141.032 103.573 140.892 103.564 140.734 103.564C140.342 103.564 140.057 103.662 139.88 103.858C139.702 104.045 139.614 104.343 139.614 104.754V106.168H141.56V107.008H139.614V113H138.592ZM148.777 113.14C148.189 113.14 147.741 113 147.433 112.72C147.134 112.431 146.985 112.015 146.985 111.474V107.008H145.571V106.168H146.985V104.292L148.007 104.054V106.168H149.967V107.008H148.007V111.208C148.007 111.572 148.082 111.833 148.231 111.992C148.39 112.151 148.646 112.23 149.001 112.23C149.178 112.23 149.337 112.216 149.477 112.188C149.617 112.16 149.78 112.113 149.967 112.048V112.958C149.78 113.023 149.584 113.07 149.379 113.098C149.174 113.126 148.973 113.14 148.777 113.14ZM151.464 113V102.892L152.486 102.682V107.274C152.747 106.863 153.06 106.56 153.424 106.364C153.788 106.159 154.199 106.056 154.656 106.056C155.151 106.056 155.58 106.163 155.944 106.378C156.317 106.583 156.607 106.877 156.812 107.26C157.027 107.633 157.134 108.072 157.134 108.576V113H156.112V108.87C156.112 108.263 155.944 107.787 155.608 107.442C155.281 107.087 154.838 106.91 154.278 106.91C153.905 106.91 153.564 106.999 153.256 107.176C152.948 107.353 152.691 107.615 152.486 107.96V113H151.464ZM162.269 113.14C161.634 113.14 161.06 112.986 160.547 112.678C160.033 112.361 159.627 111.936 159.329 111.404C159.03 110.863 158.881 110.256 158.881 109.584C158.881 108.912 159.021 108.31 159.301 107.778C159.59 107.246 159.977 106.826 160.463 106.518C160.948 106.21 161.489 106.056 162.087 106.056C162.693 106.056 163.23 106.21 163.697 106.518C164.173 106.817 164.546 107.227 164.817 107.75C165.097 108.263 165.237 108.847 165.237 109.5V109.808H159.875C159.912 110.275 160.038 110.695 160.253 111.068C160.477 111.432 160.766 111.721 161.121 111.936C161.485 112.141 161.881 112.244 162.311 112.244C162.665 112.244 163.006 112.183 163.333 112.062C163.669 111.931 163.953 111.759 164.187 111.544L164.831 112.23C164.439 112.538 164.033 112.767 163.613 112.916C163.193 113.065 162.745 113.14 162.269 113.14ZM159.903 109.08H164.229C164.182 108.669 164.056 108.305 163.851 107.988C163.655 107.661 163.403 107.405 163.095 107.218C162.796 107.031 162.46 106.938 162.087 106.938C161.713 106.938 161.373 107.031 161.065 107.218C160.757 107.395 160.5 107.647 160.295 107.974C160.099 108.291 159.968 108.66 159.903 109.08ZM171.117 113V107.008H169.591V106.168H171.117V104.74C171.117 104.068 171.295 103.55 171.649 103.186C172.004 102.822 172.508 102.64 173.161 102.64C173.348 102.64 173.516 102.649 173.665 102.668C173.824 102.687 173.964 102.719 174.085 102.766V103.69C173.936 103.643 173.801 103.611 173.679 103.592C173.558 103.573 173.418 103.564 173.259 103.564C172.867 103.564 172.583 103.662 172.405 103.858C172.228 104.045 172.139 104.343 172.139 104.754V106.168H174.085V107.008H172.139V113H171.117ZM178.168 113.112C177.533 113.112 176.964 112.958 176.46 112.65C175.956 112.342 175.559 111.922 175.27 111.39C174.98 110.858 174.836 110.256 174.836 109.584C174.836 108.912 174.98 108.31 175.27 107.778C175.559 107.246 175.956 106.826 176.46 106.518C176.964 106.21 177.533 106.056 178.168 106.056C178.793 106.056 179.353 106.21 179.848 106.518C180.352 106.826 180.748 107.246 181.038 107.778C181.327 108.31 181.472 108.912 181.472 109.584C181.472 110.256 181.327 110.858 181.038 111.39C180.748 111.922 180.352 112.342 179.848 112.65C179.353 112.958 178.793 113.112 178.168 113.112ZM178.154 112.216C178.602 112.216 178.998 112.104 179.344 111.88C179.689 111.647 179.96 111.329 180.156 110.928C180.361 110.527 180.464 110.079 180.464 109.584C180.464 109.08 180.361 108.632 180.156 108.24C179.96 107.839 179.689 107.526 179.344 107.302C178.998 107.069 178.602 106.952 178.154 106.952C177.706 106.952 177.309 107.069 176.964 107.302C176.618 107.526 176.343 107.839 176.138 108.24C175.942 108.632 175.844 109.08 175.844 109.584C175.844 110.079 175.942 110.527 176.138 110.928C176.343 111.329 176.618 111.647 176.964 111.88C177.309 112.104 177.706 112.216 178.154 112.216ZM183.265 113V106.168H184.287V107.568C184.464 107.092 184.716 106.723 185.043 106.462C185.379 106.191 185.762 106.056 186.191 106.056C186.312 106.056 186.424 106.065 186.527 106.084C186.63 106.093 186.732 106.117 186.835 106.154V107.078C186.723 107.041 186.602 107.013 186.471 106.994C186.35 106.966 186.233 106.952 186.121 106.952C185.701 106.952 185.332 107.073 185.015 107.316C184.707 107.559 184.464 107.899 184.287 108.338V113H183.265ZM188.187 113V106.168H189.209V107.232C189.47 106.84 189.769 106.546 190.105 106.35C190.441 106.154 190.819 106.056 191.239 106.056C191.724 106.056 192.149 106.177 192.513 106.42C192.877 106.653 193.152 106.975 193.339 107.386C193.609 106.947 193.931 106.616 194.305 106.392C194.687 106.168 195.126 106.056 195.621 106.056C196.078 106.056 196.479 106.163 196.825 106.378C197.179 106.593 197.455 106.891 197.651 107.274C197.847 107.647 197.945 108.086 197.945 108.59V113H196.923V108.842C196.923 108.245 196.773 107.773 196.475 107.428C196.176 107.083 195.765 106.91 195.243 106.91C194.888 106.91 194.566 106.999 194.277 107.176C193.997 107.353 193.749 107.624 193.535 107.988C193.553 108.081 193.567 108.179 193.577 108.282C193.586 108.385 193.591 108.487 193.591 108.59V113H192.569V108.842C192.569 108.245 192.415 107.773 192.107 107.428C191.808 107.083 191.397 106.91 190.875 106.91C190.175 106.91 189.619 107.246 189.209 107.918V113H188.187ZM199.663 115.198L200.503 111.964H201.595L200.461 115.198H199.663ZM209.846 113.112C209.212 113.112 208.638 112.958 208.124 112.65C207.62 112.333 207.219 111.908 206.92 111.376C206.622 110.835 206.472 110.237 206.472 109.584C206.472 108.921 206.622 108.324 206.92 107.792C207.219 107.26 207.62 106.84 208.124 106.532C208.638 106.215 209.212 106.056 209.846 106.056C210.35 106.056 210.831 106.149 211.288 106.336C211.746 106.523 212.142 106.784 212.478 107.12L211.82 107.834C211.578 107.563 211.284 107.353 210.938 107.204C210.593 107.055 210.243 106.98 209.888 106.98C209.44 106.98 209.034 107.097 208.67 107.33C208.316 107.563 208.031 107.876 207.816 108.268C207.602 108.66 207.494 109.099 207.494 109.584C207.494 110.069 207.602 110.508 207.816 110.9C208.031 111.292 208.316 111.605 208.67 111.838C209.034 112.071 209.44 112.188 209.888 112.188C210.243 112.188 210.593 112.113 210.938 111.964C211.284 111.805 211.578 111.595 211.82 111.334L212.478 112.048C212.142 112.384 211.746 112.645 211.288 112.832C210.831 113.019 210.35 113.112 209.846 113.112ZM213.904 113V102.892L214.926 102.682V113H213.904ZM217.007 113V106.168H218.029V113H217.007ZM217.525 104.474C217.319 104.474 217.142 104.404 216.993 104.264C216.853 104.115 216.783 103.942 216.783 103.746C216.783 103.55 216.853 103.382 216.993 103.242C217.142 103.093 217.319 103.018 217.525 103.018C217.73 103.018 217.903 103.093 218.043 103.242C218.192 103.382 218.267 103.55 218.267 103.746C218.267 103.942 218.192 104.115 218.043 104.264C217.903 104.404 217.73 104.474 217.525 104.474ZM223.19 113.112C222.556 113.112 221.982 112.958 221.468 112.65C220.964 112.333 220.563 111.908 220.264 111.376C219.966 110.835 219.816 110.237 219.816 109.584C219.816 108.921 219.966 108.324 220.264 107.792C220.563 107.26 220.964 106.84 221.468 106.532C221.982 106.215 222.556 106.056 223.19 106.056C223.694 106.056 224.175 106.149 224.632 106.336C225.09 106.523 225.486 106.784 225.822 107.12L225.164 107.834C224.922 107.563 224.628 107.353 224.282 107.204C223.937 107.055 223.587 106.98 223.232 106.98C222.784 106.98 222.378 107.097 222.014 107.33C221.66 107.563 221.375 107.876 221.16 108.268C220.946 108.66 220.838 109.099 220.838 109.584C220.838 110.069 220.946 110.508 221.16 110.9C221.375 111.292 221.66 111.605 222.014 111.838C222.378 112.071 222.784 112.188 223.232 112.188C223.587 112.188 223.937 112.113 224.282 111.964C224.628 111.805 224.922 111.595 225.164 111.334L225.822 112.048C225.486 112.384 225.09 112.645 224.632 112.832C224.175 113.019 223.694 113.112 223.19 113.112ZM227.247 113V102.892L228.269 102.682V109.234L231.517 106.168H232.749L229.277 109.416L232.903 113H231.559L228.269 109.738V113H227.247ZM242.096 113.154C241.387 113.154 240.724 113.028 240.108 112.776C239.492 112.515 238.951 112.155 238.484 111.698C238.027 111.231 237.668 110.695 237.406 110.088C237.154 109.472 237.028 108.809 237.028 108.1C237.028 107.391 237.154 106.733 237.406 106.126C237.668 105.51 238.027 104.973 238.484 104.516C238.951 104.049 239.492 103.69 240.108 103.438C240.724 103.177 241.387 103.046 242.096 103.046C242.6 103.046 243.086 103.116 243.552 103.256C244.019 103.396 244.453 103.597 244.854 103.858C245.265 104.11 245.62 104.423 245.918 104.796L244.798 105.888C244.453 105.449 244.047 105.118 243.58 104.894C243.114 104.67 242.619 104.558 242.096 104.558C241.62 104.558 241.177 104.647 240.766 104.824C240.365 105.001 240.01 105.253 239.702 105.58C239.404 105.897 239.17 106.271 239.002 106.7C238.834 107.129 238.75 107.596 238.75 108.1C238.75 108.604 238.834 109.071 239.002 109.5C239.17 109.929 239.404 110.307 239.702 110.634C240.01 110.951 240.365 111.199 240.766 111.376C241.177 111.553 241.62 111.642 242.096 111.642C242.619 111.642 243.114 111.53 243.58 111.306C244.047 111.073 244.453 110.741 244.798 110.312L245.918 111.404C245.62 111.768 245.265 112.081 244.854 112.342C244.453 112.603 244.019 112.804 243.552 112.944C243.086 113.084 242.6 113.154 242.096 113.154ZM247.412 113V105.986H248.994V107.498C249.199 106.966 249.465 106.56 249.792 106.28C250.118 106 250.496 105.86 250.926 105.86C251.056 105.869 251.173 105.883 251.276 105.902C251.378 105.911 251.49 105.944 251.612 106V107.386C251.49 107.33 251.35 107.288 251.192 107.26C251.042 107.232 250.893 107.218 250.744 107.218C250.361 107.218 250.016 107.321 249.708 107.526C249.409 107.731 249.171 108.016 248.994 108.38V113H247.412ZM255.842 113.14C255.17 113.14 254.563 112.981 254.022 112.664C253.48 112.337 253.051 111.903 252.734 111.362C252.416 110.811 252.258 110.191 252.258 109.5C252.258 108.809 252.407 108.193 252.706 107.652C253.004 107.111 253.41 106.681 253.924 106.364C254.446 106.037 255.025 105.874 255.66 105.874C256.313 105.874 256.887 106.033 257.382 106.35C257.886 106.667 258.278 107.097 258.558 107.638C258.847 108.179 258.992 108.8 258.992 109.5V109.878H253.812C253.868 110.261 253.989 110.601 254.176 110.9C254.372 111.189 254.619 111.418 254.918 111.586C255.226 111.754 255.557 111.838 255.912 111.838C256.238 111.838 256.546 111.782 256.836 111.67C257.134 111.549 257.382 111.385 257.578 111.18L258.614 112.118C258.184 112.473 257.746 112.734 257.298 112.902C256.859 113.061 256.374 113.14 255.842 113.14ZM253.826 108.898H257.494C257.438 108.562 257.321 108.263 257.144 108.002C256.976 107.741 256.761 107.535 256.5 107.386C256.248 107.237 255.968 107.162 255.66 107.162C255.352 107.162 255.067 107.237 254.806 107.386C254.554 107.526 254.344 107.727 254.176 107.988C254.008 108.249 253.891 108.553 253.826 108.898ZM262.665 113.126C262.179 113.126 261.745 113.037 261.363 112.86C260.989 112.673 260.695 112.421 260.481 112.104C260.275 111.777 260.173 111.404 260.173 110.984C260.173 110.564 260.28 110.2 260.495 109.892C260.719 109.584 261.031 109.346 261.433 109.178C261.834 109.01 262.31 108.926 262.861 108.926C263.187 108.926 263.509 108.963 263.827 109.038C264.144 109.103 264.452 109.215 264.751 109.374V108.59C264.751 108.123 264.615 107.773 264.345 107.54C264.083 107.307 263.682 107.19 263.141 107.19C262.851 107.19 262.539 107.237 262.203 107.33C261.876 107.414 261.507 107.549 261.097 107.736L260.537 106.588C261.563 106.112 262.534 105.874 263.449 105.874C264.363 105.874 265.068 106.098 265.563 106.546C266.067 106.985 266.319 107.61 266.319 108.422V113H264.751V112.272C264.452 112.561 264.13 112.776 263.785 112.916C263.439 113.056 263.066 113.126 262.665 113.126ZM261.657 110.956C261.657 111.283 261.787 111.539 262.049 111.726C262.31 111.913 262.66 112.006 263.099 112.006C263.416 112.006 263.71 111.959 263.981 111.866C264.261 111.763 264.517 111.614 264.751 111.418V110.284C264.508 110.172 264.256 110.088 263.995 110.032C263.733 109.976 263.449 109.948 263.141 109.948C262.683 109.948 262.319 110.037 262.049 110.214C261.787 110.391 261.657 110.639 261.657 110.956ZM271.053 113.14C270.343 113.14 269.807 112.977 269.443 112.65C269.079 112.314 268.897 111.824 268.897 111.18V107.246H267.497V105.986H268.897V104.054L270.479 103.718V105.986H272.425V107.246H270.479V110.83C270.479 111.175 270.553 111.423 270.703 111.572C270.852 111.712 271.104 111.782 271.459 111.782C271.617 111.782 271.762 111.773 271.893 111.754C272.033 111.726 272.205 111.679 272.411 111.614V112.944C272.215 113.009 271.991 113.056 271.739 113.084C271.496 113.121 271.267 113.14 271.053 113.14ZM276.978 113.14C276.306 113.14 275.7 112.981 275.158 112.664C274.617 112.337 274.188 111.903 273.87 111.362C273.553 110.811 273.394 110.191 273.394 109.5C273.394 108.809 273.544 108.193 273.842 107.652C274.141 107.111 274.547 106.681 275.06 106.364C275.583 106.037 276.162 105.874 276.796 105.874C277.45 105.874 278.024 106.033 278.518 106.35C279.022 106.667 279.414 107.097 279.694 107.638C279.984 108.179 280.128 108.8 280.128 109.5V109.878H274.948C275.004 110.261 275.126 110.601 275.312 110.9C275.508 111.189 275.756 111.418 276.054 111.586C276.362 111.754 276.694 111.838 277.048 111.838C277.375 111.838 277.683 111.782 277.972 111.67C278.271 111.549 278.518 111.385 278.714 111.18L279.75 112.118C279.321 112.473 278.882 112.734 278.434 112.902C277.996 113.061 277.51 113.14 276.978 113.14ZM274.962 108.898H278.63C278.574 108.562 278.458 108.263 278.28 108.002C278.112 107.741 277.898 107.535 277.636 107.386C277.384 107.237 277.104 107.162 276.796 107.162C276.488 107.162 276.204 107.237 275.942 107.386C275.69 107.526 275.48 107.727 275.312 107.988C275.144 108.249 275.028 108.553 274.962 108.898ZM282.156 113.126C281.886 113.126 281.652 113.028 281.456 112.832C281.27 112.627 281.176 112.389 281.176 112.118C281.176 111.829 281.27 111.586 281.456 111.39C281.652 111.194 281.886 111.096 282.156 111.096C282.427 111.096 282.656 111.194 282.842 111.39C283.038 111.586 283.136 111.829 283.136 112.118C283.136 112.389 283.038 112.627 282.842 112.832C282.656 113.028 282.427 113.126 282.156 113.126Z" fill="black"/>
<path d="M48.6388 76.154C47.9668 76.154 47.3695 76.0327 46.8468 75.79C46.3242 75.5473 45.9088 75.216 45.6008 74.796C45.3022 74.3667 45.1528 73.886 45.1528 73.354C45.1528 72.9527 45.2508 72.584 45.4468 72.248C45.6428 71.9027 45.9135 71.6087 46.2588 71.366C46.6135 71.114 47.0148 70.9367 47.4628 70.834C46.8935 70.6753 46.4268 70.3907 46.0628 69.98C45.7082 69.5693 45.5308 69.1073 45.5308 68.594C45.5308 68.1087 45.6662 67.6747 45.9368 67.292C46.2075 66.9093 46.5762 66.606 47.0428 66.382C47.5188 66.158 48.0508 66.046 48.6388 66.046C49.2362 66.046 49.7682 66.158 50.2348 66.382C50.7015 66.606 51.0702 66.9093 51.3408 67.292C51.6115 67.6747 51.7468 68.1087 51.7468 68.594C51.7468 69.1073 51.5695 69.5693 51.2148 69.98C50.8602 70.3907 50.3935 70.6753 49.8148 70.834C50.4962 70.9927 51.0515 71.3053 51.4808 71.772C51.9102 72.2293 52.1248 72.7567 52.1248 73.354C52.1248 73.886 51.9755 74.3667 51.6768 74.796C51.3782 75.216 50.9628 75.5473 50.4308 75.79C49.9082 76.0327 49.3108 76.154 48.6388 76.154ZM48.6388 70.414C49.0402 70.414 49.3995 70.3347 49.7168 70.176C50.0435 70.0173 50.3002 69.8073 50.4868 69.546C50.6735 69.2753 50.7668 68.972 50.7668 68.636C50.7668 68.3 50.6735 67.9967 50.4868 67.726C50.3002 67.4553 50.0435 67.2453 49.7168 67.096C49.3995 66.9373 49.0402 66.858 48.6388 66.858C48.2375 66.858 47.8735 66.9373 47.5468 67.096C47.2295 67.2453 46.9775 67.4553 46.7908 67.726C46.6042 67.9967 46.5108 68.3 46.5108 68.636C46.5108 68.972 46.6042 69.2753 46.7908 69.546C46.9775 69.8073 47.2295 70.0173 47.5468 70.176C47.8735 70.3347 48.2375 70.414 48.6388 70.414ZM48.6388 75.342C49.1148 75.342 49.5395 75.2533 49.9128 75.076C50.2862 74.8987 50.5802 74.656 50.7948 74.348C51.0188 74.04 51.1308 73.6947 51.1308 73.312C51.1308 72.9293 51.0188 72.584 50.7948 72.276C50.5802 71.968 50.2862 71.7253 49.9128 71.548C49.5395 71.3707 49.1148 71.282 48.6388 71.282C48.1628 71.282 47.7382 71.3707 47.3648 71.548C46.9915 71.7253 46.6928 71.968 46.4688 72.276C46.2542 72.584 46.1468 72.9293 46.1468 73.312C46.1468 73.6947 46.2542 74.04 46.4688 74.348C46.6928 74.656 46.9915 74.8987 47.3648 75.076C47.7382 75.2533 48.1628 75.342 48.6388 75.342ZM54.5834 76.112C54.378 76.112 54.2007 76.0373 54.0514 75.888C53.9114 75.7387 53.8414 75.5613 53.8414 75.356C53.8414 75.1413 53.9114 74.964 54.0514 74.824C54.2007 74.6747 54.378 74.6 54.5834 74.6C54.7887 74.6 54.9614 74.6747 55.1014 74.824C55.2507 74.964 55.3254 75.1413 55.3254 75.356C55.3254 75.5613 55.2507 75.7387 55.1014 75.888C54.9614 76.0373 54.7887 76.112 54.5834 76.112ZM61.126 76L65.004 66.2H66.292L70.114 76H68.952L67.79 72.92H63.422L62.26 76H61.126ZM63.758 72.066H67.468L65.606 67.18L63.758 72.066ZM73.8608 76.098C73.2728 76.098 72.7408 75.944 72.2648 75.636C71.7888 75.3187 71.4108 74.8987 71.1308 74.376C70.8508 73.844 70.7108 73.2513 70.7108 72.598C70.7108 71.9353 70.8508 71.3427 71.1308 70.82C71.4201 70.288 71.8074 69.868 72.2928 69.56C72.7781 69.2427 73.3194 69.084 73.9168 69.084C74.3368 69.084 74.7288 69.168 75.0928 69.336C75.4568 69.4947 75.7741 69.728 76.0448 70.036V65.892L77.0668 65.682V76H76.0448V75.09C75.7834 75.4167 75.4661 75.6687 75.0928 75.846C74.7194 76.014 74.3088 76.098 73.8608 76.098ZM74.1128 75.202C74.5141 75.202 74.8828 75.1227 75.2188 74.964C75.5548 74.8053 75.8301 74.5813 76.0448 74.292V70.904C75.8208 70.6147 75.5361 70.3907 75.1908 70.232C74.8548 70.064 74.4954 69.98 74.1128 69.98C73.6554 69.98 73.2448 70.092 72.8808 70.316C72.5261 70.54 72.2414 70.848 72.0267 71.24C71.8214 71.632 71.7188 72.08 71.7188 72.584C71.7188 73.0787 71.8214 73.5267 72.0267 73.928C72.2414 74.32 72.5261 74.6327 72.8808 74.866C73.2448 75.09 73.6554 75.202 74.1128 75.202ZM82.0092 76.098C81.4212 76.098 80.8892 75.944 80.4132 75.636C79.9372 75.3187 79.5592 74.8987 79.2792 74.376C78.9992 73.844 78.8592 73.2513 78.8592 72.598C78.8592 71.9353 78.9992 71.3427 79.2792 70.82C79.5685 70.288 79.9559 69.868 80.4412 69.56C80.9265 69.2427 81.4679 69.084 82.0652 69.084C82.4852 69.084 82.8772 69.168 83.2412 69.336C83.6052 69.4947 83.9225 69.728 84.1932 70.036V65.892L85.2152 65.682V76H84.1932V75.09C83.9319 75.4167 83.6145 75.6687 83.2412 75.846C82.8679 76.014 82.4572 76.098 82.0092 76.098ZM82.2612 75.202C82.6625 75.202 83.0312 75.1227 83.3672 74.964C83.7032 74.8053 83.9785 74.5813 84.1932 74.292V70.904C83.9692 70.6147 83.6845 70.3907 83.3392 70.232C83.0032 70.064 82.6439 69.98 82.2612 69.98C81.8039 69.98 81.3932 70.092 81.0292 70.316C80.6745 70.54 80.3899 70.848 80.1752 71.24C79.9699 71.632 79.8672 72.08 79.8672 72.584C79.8672 73.0787 79.9699 73.5267 80.1752 73.928C80.3899 74.32 80.6745 74.6327 81.0292 74.866C81.3932 75.09 81.8039 75.202 82.2612 75.202Z" fill="black"/>
<path d="M221.036 76V69.168H222.058V76H221.036ZM221.554 67.474C221.349 67.474 221.171 67.404 221.022 67.264C220.882 67.1147 220.812 66.942 220.812 66.746C220.812 66.55 220.882 66.382 221.022 66.242C221.171 66.0927 221.349 66.018 221.554 66.018C221.759 66.018 221.932 66.0927 222.072 66.242C222.221 66.382 222.296 66.55 222.296 66.746C222.296 66.942 222.221 67.1147 222.072 67.264C221.932 67.404 221.759 67.474 221.554 67.474ZM224.154 76V69.168H225.176V70.274C225.437 69.8633 225.75 69.56 226.114 69.364C226.478 69.1587 226.888 69.056 227.346 69.056C227.84 69.056 228.27 69.1633 228.634 69.378C229.007 69.5833 229.296 69.8773 229.502 70.26C229.716 70.6333 229.824 71.072 229.824 71.576V76H228.802V71.87C228.802 71.2633 228.634 70.7873 228.298 70.442C227.971 70.0873 227.528 69.91 226.968 69.91C226.594 69.91 226.254 69.9987 225.946 70.176C225.638 70.3533 225.381 70.6147 225.176 70.96V76H224.154ZM237.75 76.14C237.162 76.14 236.714 76 236.406 75.72C236.107 75.4307 235.958 75.0153 235.958 74.474V70.008H234.544V69.168H235.958V67.292L236.98 67.054V69.168H238.94V70.008H236.98V74.208C236.98 74.572 237.054 74.8333 237.204 74.992C237.362 75.1507 237.619 75.23 237.974 75.23C238.151 75.23 238.31 75.216 238.45 75.188C238.59 75.16 238.753 75.1133 238.94 75.048V75.958C238.753 76.0233 238.557 76.07 238.352 76.098C238.146 76.126 237.946 76.14 237.75 76.14ZM240.437 76V65.892L241.459 65.682V70.274C241.72 69.8633 242.033 69.56 242.397 69.364C242.761 69.1587 243.171 69.056 243.629 69.056C244.123 69.056 244.553 69.1633 244.917 69.378C245.29 69.5833 245.579 69.8773 245.785 70.26C245.999 70.6333 246.107 71.072 246.107 71.576V76H245.085V71.87C245.085 71.2633 244.917 70.7873 244.581 70.442C244.254 70.0873 243.811 69.91 243.251 69.91C242.877 69.91 242.537 69.9987 242.229 70.176C241.921 70.3533 241.664 70.6147 241.459 70.96V76H240.437ZM251.241 76.14C250.607 76.14 250.033 75.986 249.519 75.678C249.006 75.3607 248.6 74.936 248.301 74.404C248.003 73.8627 247.853 73.256 247.853 72.584C247.853 71.912 247.993 71.31 248.273 70.778C248.563 70.246 248.95 69.826 249.435 69.518C249.921 69.21 250.462 69.056 251.059 69.056C251.666 69.056 252.203 69.21 252.669 69.518C253.145 69.8167 253.519 70.2273 253.789 70.75C254.069 71.2633 254.209 71.8467 254.209 72.5V72.808H248.847C248.885 73.2747 249.011 73.6947 249.225 74.068C249.449 74.432 249.739 74.7213 250.093 74.936C250.457 75.1413 250.854 75.244 251.283 75.244C251.638 75.244 251.979 75.1833 252.305 75.062C252.641 74.9313 252.926 74.7587 253.159 74.544L253.803 75.23C253.411 75.538 253.005 75.7667 252.585 75.916C252.165 76.0653 251.717 76.14 251.241 76.14ZM248.875 72.08H253.201C253.155 71.6693 253.029 71.3053 252.823 70.988C252.627 70.6613 252.375 70.4047 252.067 70.218C251.769 70.0313 251.433 69.938 251.059 69.938C250.686 69.938 250.345 70.0313 250.037 70.218C249.729 70.3953 249.473 70.6473 249.267 70.974C249.071 71.2913 248.941 71.66 248.875 72.08ZM263.926 76.154C263.217 76.154 262.559 76.0233 261.952 75.762C261.345 75.5007 260.809 75.1413 260.342 74.684C259.885 74.2173 259.525 73.6807 259.264 73.074C259.012 72.458 258.886 71.8 258.886 71.1C258.886 70.4 259.012 69.7467 259.264 69.14C259.525 68.524 259.885 67.9873 260.342 67.53C260.799 67.0633 261.331 66.6993 261.938 66.438C262.545 66.1767 263.203 66.046 263.912 66.046C264.696 66.046 265.433 66.1953 266.124 66.494C266.824 66.7927 267.407 67.2267 267.874 67.796L266.698 68.846C266.362 68.426 265.951 68.1087 265.466 67.894C264.981 67.67 264.463 67.558 263.912 67.558C263.436 67.558 262.997 67.6467 262.596 67.824C262.195 68.0013 261.845 68.2533 261.546 68.58C261.257 68.8973 261.028 69.2707 260.86 69.7C260.692 70.1293 260.608 70.596 260.608 71.1C260.608 71.604 260.692 72.0753 260.86 72.514C261.028 72.9433 261.261 73.3167 261.56 73.634C261.868 73.9513 262.223 74.2033 262.624 74.39C263.025 74.5673 263.469 74.656 263.954 74.656C264.477 74.656 264.948 74.5487 265.368 74.334C265.788 74.11 266.133 73.802 266.404 73.41C266.684 73.018 266.857 72.5793 266.922 72.094H264.01V70.652H268.7V71.198C268.7 71.9073 268.579 72.5607 268.336 73.158C268.103 73.7553 267.771 74.2827 267.342 74.74C266.913 75.188 266.409 75.538 265.83 75.79C265.251 76.0327 264.617 76.154 263.926 76.154ZM270.362 76V68.986H271.944V76H270.362ZM271.16 67.558C270.89 67.558 270.656 67.4647 270.46 67.278C270.274 67.082 270.18 66.8533 270.18 66.592C270.18 66.3213 270.274 66.0927 270.46 65.906C270.656 65.71 270.89 65.612 271.16 65.612C271.431 65.612 271.66 65.71 271.846 65.906C272.042 66.0927 272.14 66.3167 272.14 66.578C272.14 66.8487 272.042 67.082 271.846 67.278C271.66 67.4647 271.431 67.558 271.16 67.558ZM276.928 76.14C276.218 76.14 275.682 75.9767 275.318 75.65C274.954 75.314 274.772 74.824 274.772 74.18V70.246H273.372V68.986H274.772V67.054L276.354 66.718V68.986H278.3V70.246H276.354V73.83C276.354 74.1753 276.428 74.4227 276.578 74.572C276.727 74.712 276.979 74.782 277.334 74.782C277.492 74.782 277.637 74.7727 277.768 74.754C277.908 74.726 278.08 74.6793 278.286 74.614V75.944C278.09 76.0093 277.866 76.056 277.614 76.084C277.371 76.1213 277.142 76.14 276.928 76.14ZM282.845 76V68.986H284.427V70.498C284.633 69.966 284.899 69.56 285.225 69.28C285.552 69 285.93 68.86 286.359 68.86C286.49 68.8693 286.607 68.8833 286.709 68.902C286.812 68.9113 286.924 68.944 287.045 69V70.386C286.924 70.33 286.784 70.288 286.625 70.26C286.476 70.232 286.327 70.218 286.177 70.218C285.795 70.218 285.449 70.3207 285.141 70.526C284.843 70.7313 284.605 71.016 284.427 71.38V76H282.845ZM291.275 76.14C290.603 76.14 289.997 75.9813 289.455 75.664C288.914 75.3373 288.485 74.9033 288.167 74.362C287.85 73.8113 287.691 73.1907 287.691 72.5C287.691 71.8093 287.841 71.1933 288.139 70.652C288.438 70.1107 288.844 69.6813 289.357 69.364C289.88 69.0373 290.459 68.874 291.093 68.874C291.747 68.874 292.321 69.0327 292.815 69.35C293.319 69.6673 293.711 70.0967 293.991 70.638C294.281 71.1793 294.425 71.8 294.425 72.5V72.878H289.245C289.301 73.2607 289.423 73.6013 289.609 73.9C289.805 74.1893 290.053 74.418 290.351 74.586C290.659 74.754 290.991 74.838 291.345 74.838C291.672 74.838 291.98 74.782 292.269 74.67C292.568 74.5487 292.815 74.3853 293.011 74.18L294.047 75.118C293.618 75.4727 293.179 75.734 292.731 75.902C292.293 76.0607 291.807 76.14 291.275 76.14ZM289.259 71.898H292.927C292.871 71.562 292.755 71.2633 292.577 71.002C292.409 70.7407 292.195 70.5353 291.933 70.386C291.681 70.2367 291.401 70.162 291.093 70.162C290.785 70.162 290.501 70.2367 290.239 70.386C289.987 70.526 289.777 70.7267 289.609 70.988C289.441 71.2493 289.325 71.5527 289.259 71.898ZM296.786 76V70.246H295.274V68.986H296.786V67.782C296.786 67.026 296.991 66.4473 297.402 66.046C297.822 65.6353 298.424 65.43 299.208 65.43C299.404 65.43 299.595 65.4393 299.782 65.458C299.968 65.4767 300.127 65.5093 300.258 65.556V66.9C300.08 66.8627 299.931 66.8393 299.81 66.83C299.688 66.8113 299.558 66.802 299.418 66.802C299.054 66.802 298.788 66.8813 298.62 67.04C298.452 67.1987 298.368 67.4553 298.368 67.81V68.986H300.258V70.246H298.368V76H296.786ZM304.564 76.14C303.892 76.14 303.286 75.9813 302.744 75.664C302.203 75.3373 301.774 74.9033 301.456 74.362C301.139 73.8113 300.98 73.1907 300.98 72.5C300.98 71.8093 301.13 71.1933 301.428 70.652C301.727 70.1107 302.133 69.6813 302.646 69.364C303.169 69.0373 303.748 68.874 304.382 68.874C305.036 68.874 305.61 69.0327 306.104 69.35C306.608 69.6673 307 70.0967 307.28 70.638C307.57 71.1793 307.714 71.8 307.714 72.5V72.878H302.534C302.59 73.2607 302.712 73.6013 302.898 73.9C303.094 74.1893 303.342 74.418 303.64 74.586C303.948 74.754 304.28 74.838 304.634 74.838C304.961 74.838 305.269 74.782 305.558 74.67C305.857 74.5487 306.104 74.3853 306.3 74.18L307.336 75.118C306.907 75.4727 306.468 75.734 306.02 75.902C305.582 76.0607 305.096 76.14 304.564 76.14ZM302.548 71.898H306.216C306.16 71.562 306.044 71.2633 305.866 71.002C305.698 70.7407 305.484 70.5353 305.222 70.386C304.97 70.2367 304.69 70.162 304.382 70.162C304.074 70.162 303.79 70.2367 303.528 70.386C303.276 70.526 303.066 70.7267 302.898 70.988C302.73 71.2493 302.614 71.5527 302.548 71.898ZM309.328 76V68.986H310.91V70.498C311.115 69.966 311.381 69.56 311.708 69.28C312.034 69 312.412 68.86 312.842 68.86C312.972 68.8693 313.089 68.8833 313.192 68.902C313.294 68.9113 313.406 68.944 313.528 69V70.386C313.406 70.33 313.266 70.288 313.108 70.26C312.958 70.232 312.809 70.218 312.66 70.218C312.277 70.218 311.932 70.3207 311.624 70.526C311.325 70.7313 311.087 71.016 310.91 71.38V76H309.328ZM317.758 76.14C317.086 76.14 316.479 75.9813 315.938 75.664C315.396 75.3373 314.967 74.9033 314.65 74.362C314.332 73.8113 314.174 73.1907 314.174 72.5C314.174 71.8093 314.323 71.1933 314.622 70.652C314.92 70.1107 315.326 69.6813 315.84 69.364C316.362 69.0373 316.941 68.874 317.576 68.874C318.229 68.874 318.803 69.0327 319.298 69.35C319.802 69.6673 320.194 70.0967 320.474 70.638C320.763 71.1793 320.908 71.8 320.908 72.5V72.878H315.728C315.784 73.2607 315.905 73.6013 316.092 73.9C316.288 74.1893 316.535 74.418 316.834 74.586C317.142 74.754 317.473 74.838 317.828 74.838C318.154 74.838 318.462 74.782 318.752 74.67C319.05 74.5487 319.298 74.3853 319.494 74.18L320.53 75.118C320.1 75.4727 319.662 75.734 319.214 75.902C318.775 76.0607 318.29 76.14 317.758 76.14ZM315.742 71.898H319.41C319.354 71.562 319.237 71.2633 319.06 71.002C318.892 70.7407 318.677 70.5353 318.416 70.386C318.164 70.2367 317.884 70.162 317.576 70.162C317.268 70.162 316.983 70.2367 316.722 70.386C316.47 70.526 316.26 70.7267 316.092 70.988C315.924 71.2493 315.807 71.5527 315.742 71.898ZM322.521 76V68.986H324.103V70.134C324.374 69.714 324.696 69.4013 325.069 69.196C325.442 68.9813 325.858 68.874 326.315 68.874C326.8 68.874 327.225 68.9813 327.589 69.196C327.953 69.4013 328.238 69.6907 328.443 70.064C328.658 70.4373 328.765 70.876 328.765 71.38V76H327.169V71.828C327.169 71.3147 327.029 70.9087 326.749 70.61C326.469 70.302 326.096 70.148 325.629 70.148C325.312 70.148 325.022 70.2227 324.761 70.372C324.509 70.512 324.29 70.722 324.103 71.002V76H322.521ZM333.889 76.126C333.227 76.126 332.625 75.9673 332.083 75.65C331.551 75.3233 331.127 74.8847 330.809 74.334C330.501 73.7833 330.347 73.172 330.347 72.5C330.347 71.8187 330.501 71.2073 330.809 70.666C331.127 70.1153 331.551 69.6813 332.083 69.364C332.625 69.0373 333.227 68.874 333.889 68.874C334.431 68.874 334.944 68.9767 335.429 69.182C335.924 69.3873 336.344 69.6813 336.689 70.064L335.709 71.086C335.467 70.8153 335.196 70.61 334.897 70.47C334.599 70.33 334.281 70.26 333.945 70.26C333.563 70.26 333.217 70.3627 332.909 70.568C332.611 70.764 332.373 71.03 332.195 71.366C332.018 71.702 331.929 72.08 331.929 72.5C331.929 72.92 332.018 73.3027 332.195 73.648C332.373 73.984 332.611 74.25 332.909 74.446C333.217 74.642 333.563 74.74 333.945 74.74C334.281 74.74 334.599 74.67 334.897 74.53C335.196 74.39 335.467 74.1893 335.709 73.928L336.689 74.936C336.344 75.3187 335.924 75.6127 335.429 75.818C334.944 76.0233 334.431 76.126 333.889 76.126ZM341.055 76.14C340.383 76.14 339.776 75.9813 339.235 75.664C338.693 75.3373 338.264 74.9033 337.947 74.362C337.629 73.8113 337.471 73.1907 337.471 72.5C337.471 71.8093 337.62 71.1933 337.919 70.652C338.217 70.1107 338.623 69.6813 339.137 69.364C339.659 69.0373 340.238 68.874 340.873 68.874C341.526 68.874 342.1 69.0327 342.595 69.35C343.099 69.6673 343.491 70.0967 343.771 70.638C344.06 71.1793 344.204 71.8 344.204 72.5V72.878H339.025C339.081 73.2607 339.202 73.6013 339.389 73.9C339.585 74.1893 339.832 74.418 340.131 74.586C340.439 74.754 340.77 74.838 341.125 74.838C341.451 74.838 341.759 74.782 342.049 74.67C342.347 74.5487 342.595 74.3853 342.791 74.18L343.827 75.118C343.397 75.4727 342.959 75.734 342.511 75.902C342.072 76.0607 341.587 76.14 341.055 76.14ZM339.039 71.898H342.707C342.651 71.562 342.534 71.2633 342.357 71.002C342.189 70.7407 341.974 70.5353 341.713 70.386C341.461 70.2367 341.181 70.162 340.873 70.162C340.565 70.162 340.28 70.2367 340.019 70.386C339.767 70.526 339.557 70.7267 339.389 70.988C339.221 71.2493 339.104 71.5527 339.039 71.898ZM350.023 76V70.008H348.497V69.168H350.023V67.74C350.023 67.068 350.201 66.55 350.555 66.186C350.91 65.822 351.414 65.64 352.067 65.64C352.254 65.64 352.422 65.6493 352.571 65.668C352.73 65.6867 352.87 65.7193 352.991 65.766V66.69C352.842 66.6433 352.707 66.6107 352.585 66.592C352.464 66.5733 352.324 66.564 352.165 66.564C351.773 66.564 351.489 66.662 351.311 66.858C351.134 67.0447 351.045 67.3433 351.045 67.754V69.168H352.991V70.008H351.045V76H350.023ZM354.323 76V69.168H355.345V76H354.323ZM354.841 67.474C354.636 67.474 354.458 67.404 354.309 67.264C354.169 67.1147 354.099 66.942 354.099 66.746C354.099 66.55 354.169 66.382 354.309 66.242C354.458 66.0927 354.636 66.018 354.841 66.018C355.046 66.018 355.219 66.0927 355.359 66.242C355.508 66.382 355.583 66.55 355.583 66.746C355.583 66.942 355.508 67.1147 355.359 67.264C355.219 67.404 355.046 67.474 354.841 67.474ZM360.521 76.14C359.886 76.14 359.312 75.986 358.799 75.678C358.285 75.3607 357.879 74.936 357.581 74.404C357.282 73.8627 357.133 73.256 357.133 72.584C357.133 71.912 357.273 71.31 357.553 70.778C357.842 70.246 358.229 69.826 358.715 69.518C359.2 69.21 359.741 69.056 360.339 69.056C360.945 69.056 361.482 69.21 361.949 69.518C362.425 69.8167 362.798 70.2273 363.069 70.75C363.349 71.2633 363.489 71.8467 363.489 72.5V72.808H358.127C358.164 73.2747 358.29 73.6947 358.505 74.068C358.729 74.432 359.018 74.7213 359.373 74.936C359.737 75.1413 360.133 75.244 360.563 75.244C360.917 75.244 361.258 75.1833 361.585 75.062C361.921 74.9313 362.205 74.7587 362.439 74.544L363.083 75.23C362.691 75.538 362.285 75.7667 361.865 75.916C361.445 76.0653 360.997 76.14 360.521 76.14ZM358.155 72.08H362.481C362.434 71.6693 362.308 71.3053 362.103 70.988C361.907 70.6613 361.655 70.4047 361.347 70.218C361.048 70.0313 360.712 69.938 360.339 69.938C359.965 69.938 359.625 70.0313 359.317 70.218C359.009 70.3953 358.752 70.6473 358.547 70.974C358.351 71.2913 358.22 71.66 358.155 72.08ZM365.234 76V65.892L366.256 65.682V76H365.234ZM371.193 76.098C370.605 76.098 370.073 75.944 369.597 75.636C369.121 75.3187 368.743 74.8987 368.463 74.376C368.183 73.844 368.043 73.2513 368.043 72.598C368.043 71.9353 368.183 71.3427 368.463 70.82C368.752 70.288 369.139 69.868 369.625 69.56C370.11 69.2427 370.651 69.084 371.249 69.084C371.669 69.084 372.061 69.168 372.425 69.336C372.789 69.4947 373.106 69.728 373.377 70.036V65.892L374.399 65.682V76H373.377V75.09C373.115 75.4167 372.798 75.6687 372.425 75.846C372.051 76.014 371.641 76.098 371.193 76.098ZM371.445 75.202C371.846 75.202 372.215 75.1227 372.551 74.964C372.887 74.8053 373.162 74.5813 373.377 74.292V70.904C373.153 70.6147 372.868 70.3907 372.523 70.232C372.187 70.064 371.827 69.98 371.445 69.98C370.987 69.98 370.577 70.092 370.213 70.316C369.858 70.54 369.573 70.848 369.359 71.24C369.153 71.632 369.051 72.08 369.051 72.584C369.051 73.0787 369.153 73.5267 369.359 73.928C369.573 74.32 369.858 74.6327 370.213 74.866C370.577 75.09 370.987 75.202 371.445 75.202ZM377.199 76.112C376.994 76.112 376.817 76.0373 376.667 75.888C376.527 75.7387 376.457 75.5613 376.457 75.356C376.457 75.1413 376.527 74.964 376.667 74.824C376.817 74.6747 376.994 74.6 377.199 74.6C377.405 74.6 377.577 74.6747 377.717 74.824C377.867 74.964 377.941 75.1413 377.941 75.356C377.941 75.5613 377.867 75.7387 377.717 75.888C377.577 76.0373 377.405 76.112 377.199 76.112Z" fill="black"/>
</svg>
