<svg width="516" height="85" viewBox="0 0 516 85" fill="none" xmlns="http://www.w3.org/2000/svg">
<rect width="516" height="85" fill="white"/>
<path d="M40.5 30C40.5 26.9624 42.9624 24.5 46 24.5H413C416.038 24.5 418.5 26.9624 418.5 30V55C418.5 58.0376 416.038 60.5 413 60.5H46C42.9624 60.5 40.5 58.0376 40.5 55V30Z" fill="white"/>
<path d="M40.5 30C40.5 26.9624 42.9624 24.5 46 24.5H413C416.038 24.5 418.5 26.9624 418.5 30V55C418.5 58.0376 416.038 60.5 413 60.5H46C42.9624 60.5 40.5 58.0376 40.5 55V30Z" stroke="#C7C7C7"/>
<path d="M59.78 47V38.152H56.392V37.2H64.246V38.152H60.858V47H59.78ZM65.6906 47V36.892L66.7126 36.682V41.274C66.974 40.8633 67.2866 40.56 67.6506 40.364C68.0146 40.1587 68.4253 40.056 68.8826 40.056C69.3773 40.056 69.8066 40.1633 70.1706 40.378C70.544 40.5833 70.8333 40.8773 71.0386 41.26C71.2533 41.6333 71.3606 42.072 71.3606 42.576V47H70.3386V42.87C70.3386 42.2633 70.1706 41.7873 69.8346 41.442C69.508 41.0873 69.0646 40.91 68.5046 40.91C68.1313 40.91 67.7906 40.9987 67.4826 41.176C67.1746 41.3533 66.918 41.6147 66.7126 41.96V47H65.6906ZM73.4012 47V40.168H74.4232V47H73.4012ZM73.9192 38.474C73.7139 38.474 73.5366 38.404 73.3872 38.264C73.2472 38.1147 73.1772 37.942 73.1772 37.746C73.1772 37.55 73.2472 37.382 73.3872 37.242C73.5366 37.0927 73.7139 37.018 73.9192 37.018C74.1246 37.018 74.2972 37.0927 74.4372 37.242C74.5866 37.382 74.6612 37.55 74.6612 37.746C74.6612 37.942 74.5866 38.1147 74.4372 38.264C74.2972 38.404 74.1246 38.474 73.9192 38.474ZM78.6328 47.14C78.0728 47.14 77.5548 47.056 77.0788 46.888C76.6028 46.7107 76.1968 46.4587 75.8608 46.132L76.4068 45.46C76.8174 45.7587 77.1954 45.978 77.5408 46.118C77.8861 46.2487 78.2408 46.314 78.6048 46.314C79.0994 46.314 79.5101 46.1973 79.8368 45.964C80.1634 45.7307 80.3268 45.432 80.3268 45.068C80.3268 44.788 80.2288 44.5687 80.0328 44.41C79.8461 44.2513 79.5334 44.13 79.0948 44.046L77.9748 43.85C77.3121 43.7287 76.8221 43.5233 76.5048 43.234C76.1968 42.9447 76.0428 42.5527 76.0428 42.058C76.0428 41.666 76.1454 41.3207 76.3508 41.022C76.5654 40.7233 76.8594 40.49 77.2328 40.322C77.6061 40.1447 78.0308 40.056 78.5068 40.056C78.9734 40.056 79.4168 40.126 79.8368 40.266C80.2568 40.3967 80.6814 40.6113 81.1108 40.91L80.6068 41.624C80.2521 41.372 79.8974 41.19 79.5428 41.078C79.1881 40.9567 78.8288 40.896 78.4648 40.896C78.0168 40.896 77.6574 40.994 77.3868 41.19C77.1161 41.386 76.9808 41.652 76.9808 41.988C76.9808 42.268 77.0648 42.4827 77.2328 42.632C77.4101 42.7813 77.7181 42.8933 78.1568 42.968L79.3048 43.178C79.9954 43.2993 80.4994 43.5093 80.8168 43.808C81.1341 44.1067 81.2928 44.508 81.2928 45.012C81.2928 45.4133 81.1761 45.7773 80.9428 46.104C80.7094 46.4213 80.3921 46.6733 79.9908 46.86C79.5894 47.0467 79.1368 47.14 78.6328 47.14ZM86.1024 47V40.168H87.1244V47H86.1024ZM86.6204 38.474C86.4151 38.474 86.2377 38.404 86.0884 38.264C85.9484 38.1147 85.8784 37.942 85.8784 37.746C85.8784 37.55 85.9484 37.382 86.0884 37.242C86.2377 37.0927 86.4151 37.018 86.6204 37.018C86.8257 37.018 86.9984 37.0927 87.1384 37.242C87.2877 37.382 87.3624 37.55 87.3624 37.746C87.3624 37.942 87.2877 38.1147 87.1384 38.264C86.9984 38.404 86.8257 38.474 86.6204 38.474ZM91.3339 47.14C90.7739 47.14 90.2559 47.056 89.7799 46.888C89.3039 46.7107 88.8979 46.4587 88.5619 46.132L89.1079 45.46C89.5186 45.7587 89.8966 45.978 90.2419 46.118C90.5873 46.2487 90.9419 46.314 91.3059 46.314C91.8006 46.314 92.2113 46.1973 92.5379 45.964C92.8646 45.7307 93.0279 45.432 93.0279 45.068C93.0279 44.788 92.9299 44.5687 92.7339 44.41C92.5473 44.2513 92.2346 44.13 91.7959 44.046L90.6759 43.85C90.0133 43.7287 89.5233 43.5233 89.2059 43.234C88.8979 42.9447 88.7439 42.5527 88.7439 42.058C88.7439 41.666 88.8466 41.3207 89.0519 41.022C89.2666 40.7233 89.5606 40.49 89.9339 40.322C90.3073 40.1447 90.7319 40.056 91.2079 40.056C91.6746 40.056 92.1179 40.126 92.5379 40.266C92.9579 40.3967 93.3826 40.6113 93.8119 40.91L93.3079 41.624C92.9533 41.372 92.5986 41.19 92.2439 41.078C91.8893 40.9567 91.5299 40.896 91.1659 40.896C90.7179 40.896 90.3586 40.994 90.0879 41.19C89.8173 41.386 89.6819 41.652 89.6819 41.988C89.6819 42.268 89.7659 42.4827 89.9339 42.632C90.1113 42.7813 90.4193 42.8933 90.8579 42.968L92.0059 43.178C92.6966 43.2993 93.2006 43.5093 93.5179 43.808C93.8353 44.1067 93.9939 44.508 93.9939 45.012C93.9939 45.4133 93.8773 45.7773 93.6439 46.104C93.4106 46.4213 93.0933 46.6733 92.6919 46.86C92.2906 47.0467 91.8379 47.14 91.3339 47.14ZM100.932 47.126C100.446 47.126 100.017 47.0373 99.6436 46.86C99.2702 46.6827 98.9762 46.44 98.7616 46.132C98.5562 45.8147 98.4536 45.4507 98.4536 45.04C98.4536 44.6293 98.5609 44.2747 98.7756 43.976C98.9902 43.668 99.2889 43.43 99.6716 43.262C100.054 43.094 100.502 43.01 101.016 43.01C101.408 43.01 101.776 43.052 102.122 43.136C102.476 43.22 102.803 43.3553 103.102 43.542V42.604C103.102 42.044 102.952 41.624 102.654 41.344C102.355 41.0547 101.916 40.91 101.338 40.91C101.02 40.91 100.694 40.9567 100.358 41.05C100.031 41.1433 99.6669 41.2927 99.2656 41.498L98.8876 40.714C99.8022 40.2753 100.661 40.056 101.464 40.056C102.313 40.056 102.966 40.266 103.424 40.686C103.881 41.0967 104.11 41.6893 104.11 42.464V47H103.102V46.202C102.803 46.51 102.472 46.7433 102.108 46.902C101.744 47.0513 101.352 47.126 100.932 47.126ZM99.4336 45.012C99.4336 45.4133 99.5876 45.7353 99.8956 45.978C100.213 46.2207 100.628 46.342 101.142 46.342C101.524 46.342 101.874 46.2767 102.192 46.146C102.518 46.0153 102.822 45.8193 103.102 45.558V44.242C102.812 44.074 102.514 43.9527 102.206 43.878C101.898 43.794 101.552 43.752 101.17 43.752C100.647 43.752 100.227 43.8687 99.9096 44.102C99.5922 44.326 99.4336 44.6293 99.4336 45.012ZM106.187 47V40.168H107.209V41.274C107.47 40.8633 107.783 40.56 108.147 40.364C108.511 40.1587 108.921 40.056 109.379 40.056C109.873 40.056 110.303 40.1633 110.667 40.378C111.04 40.5833 111.329 40.8773 111.535 41.26C111.749 41.6333 111.857 42.072 111.857 42.576V47H110.835V42.87C110.835 42.2633 110.667 41.7873 110.331 41.442C110.004 41.0873 109.561 40.91 109.001 40.91C108.627 40.91 108.287 40.9987 107.979 41.176C107.671 41.3533 107.414 41.6147 107.209 41.96V47H106.187ZM120.259 47.14C119.624 47.14 119.05 46.986 118.537 46.678C118.024 46.3607 117.618 45.936 117.319 45.404C117.02 44.8627 116.871 44.256 116.871 43.584C116.871 42.912 117.011 42.31 117.291 41.778C117.58 41.246 117.968 40.826 118.453 40.518C118.938 40.21 119.48 40.056 120.077 40.056C120.684 40.056 121.22 40.21 121.687 40.518C122.163 40.8167 122.536 41.2273 122.807 41.75C123.087 42.2633 123.227 42.8467 123.227 43.5V43.808H117.865C117.902 44.2747 118.028 44.6947 118.243 45.068C118.467 45.432 118.756 45.7213 119.111 45.936C119.475 46.1413 119.872 46.244 120.301 46.244C120.656 46.244 120.996 46.1833 121.323 46.062C121.659 45.9313 121.944 45.7587 122.177 45.544L122.821 46.23C122.429 46.538 122.023 46.7667 121.603 46.916C121.183 47.0653 120.735 47.14 120.259 47.14ZM117.893 43.08H122.219C122.172 42.6693 122.046 42.3053 121.841 41.988C121.645 41.6613 121.393 41.4047 121.085 41.218C120.786 41.0313 120.45 40.938 120.077 40.938C119.704 40.938 119.363 41.0313 119.055 41.218C118.747 41.3953 118.49 41.6473 118.285 41.974C118.089 42.2913 117.958 42.66 117.893 43.08ZM127.814 47.098C127.226 47.098 126.694 46.944 126.218 46.636C125.742 46.3187 125.364 45.8987 125.084 45.376C124.804 44.844 124.664 44.2513 124.664 43.598C124.664 42.9353 124.804 42.3427 125.084 41.82C125.373 41.288 125.761 40.868 126.246 40.56C126.731 40.2427 127.273 40.084 127.87 40.084C128.29 40.084 128.682 40.168 129.046 40.336C129.41 40.4947 129.727 40.728 129.998 41.036V36.892L131.02 36.682V47H129.998V46.09C129.737 46.4167 129.419 46.6687 129.046 46.846C128.673 47.014 128.262 47.098 127.814 47.098ZM128.066 46.202C128.467 46.202 128.836 46.1227 129.172 45.964C129.508 45.8053 129.783 45.5813 129.998 45.292V41.904C129.774 41.6147 129.489 41.3907 129.144 41.232C128.808 41.064 128.449 40.98 128.066 40.98C127.609 40.98 127.198 41.092 126.834 41.316C126.479 41.54 126.195 41.848 125.98 42.24C125.775 42.632 125.672 43.08 125.672 43.584C125.672 44.0787 125.775 44.5267 125.98 44.928C126.195 45.32 126.479 45.6327 126.834 45.866C127.198 46.09 127.609 46.202 128.066 46.202ZM133.106 47V40.168H134.128V47H133.106ZM133.624 38.474C133.419 38.474 133.242 38.404 133.092 38.264C132.952 38.1147 132.882 37.942 132.882 37.746C132.882 37.55 132.952 37.382 133.092 37.242C133.242 37.0927 133.419 37.018 133.624 37.018C133.83 37.018 134.002 37.0927 134.142 37.242C134.292 37.382 134.366 37.55 134.366 37.746C134.366 37.942 134.292 38.1147 134.142 38.264C134.002 38.404 133.83 38.474 133.624 38.474ZM138.828 47.14C138.24 47.14 137.792 47 137.484 46.72C137.185 46.4307 137.036 46.0153 137.036 45.474V41.008H135.622V40.168H137.036V38.292L138.058 38.054V40.168H140.018V41.008H138.058V45.208C138.058 45.572 138.132 45.8333 138.282 45.992C138.44 46.1507 138.697 46.23 139.052 46.23C139.229 46.23 139.388 46.216 139.528 46.188C139.668 46.16 139.831 46.1133 140.018 46.048V46.958C139.831 47.0233 139.635 47.07 139.43 47.098C139.224 47.126 139.024 47.14 138.828 47.14ZM143.629 47.126C143.144 47.126 142.714 47.0373 142.341 46.86C141.968 46.6827 141.674 46.44 141.459 46.132C141.254 45.8147 141.151 45.4507 141.151 45.04C141.151 44.6293 141.258 44.2747 141.473 43.976C141.688 43.668 141.986 43.43 142.369 43.262C142.752 43.094 143.2 43.01 143.713 43.01C144.105 43.01 144.474 43.052 144.819 43.136C145.174 43.22 145.5 43.3553 145.799 43.542V42.604C145.799 42.044 145.65 41.624 145.351 41.344C145.052 41.0547 144.614 40.91 144.035 40.91C143.718 40.91 143.391 40.9567 143.055 41.05C142.728 41.1433 142.364 41.2927 141.963 41.498L141.585 40.714C142.5 40.2753 143.358 40.056 144.161 40.056C145.01 40.056 145.664 40.266 146.121 40.686C146.578 41.0967 146.807 41.6893 146.807 42.464V47H145.799V46.202C145.5 46.51 145.169 46.7433 144.805 46.902C144.441 47.0513 144.049 47.126 143.629 47.126ZM142.131 45.012C142.131 45.4133 142.285 45.7353 142.593 45.978C142.91 46.2207 143.326 46.342 143.839 46.342C144.222 46.342 144.572 46.2767 144.889 46.146C145.216 46.0153 145.519 45.8193 145.799 45.558V44.242C145.51 44.074 145.211 43.9527 144.903 43.878C144.595 43.794 144.25 43.752 143.867 43.752C143.344 43.752 142.924 43.8687 142.607 44.102C142.29 44.326 142.131 44.6293 142.131 45.012ZM148.884 47V36.99L149.906 36.78V41.106C150.167 40.7793 150.485 40.5273 150.858 40.35C151.231 40.1727 151.647 40.084 152.104 40.084C152.701 40.084 153.233 40.2427 153.7 40.56C154.176 40.868 154.554 41.288 154.834 41.82C155.114 42.3427 155.254 42.9307 155.254 43.584C155.254 44.2373 155.109 44.83 154.82 45.362C154.54 45.894 154.157 46.3187 153.672 46.636C153.196 46.944 152.655 47.098 152.048 47.098C151.619 47.098 151.217 47.014 150.844 46.846C150.48 46.6687 150.163 46.4213 149.892 46.104V47H148.884ZM151.852 46.216C152.309 46.216 152.715 46.104 153.07 45.88C153.434 45.6467 153.719 45.334 153.924 44.942C154.139 44.5407 154.246 44.0927 154.246 43.598C154.246 43.094 154.139 42.646 153.924 42.254C153.719 41.862 153.434 41.554 153.07 41.33C152.715 41.0967 152.309 40.98 151.852 40.98C151.451 40.98 151.077 41.064 150.732 41.232C150.396 41.3907 150.121 41.6193 149.906 41.918V45.264C150.13 45.5627 150.41 45.796 150.746 45.964C151.091 46.132 151.46 46.216 151.852 46.216ZM157.046 47V36.892L158.068 36.682V47H157.046ZM163.243 47.14C162.609 47.14 162.035 46.986 161.521 46.678C161.008 46.3607 160.602 45.936 160.303 45.404C160.005 44.8627 159.855 44.256 159.855 43.584C159.855 42.912 159.995 42.31 160.275 41.778C160.565 41.246 160.952 40.826 161.437 40.518C161.923 40.21 162.464 40.056 163.061 40.056C163.668 40.056 164.205 40.21 164.671 40.518C165.147 40.8167 165.521 41.2273 165.791 41.75C166.071 42.2633 166.211 42.8467 166.211 43.5V43.808H160.849C160.887 44.2747 161.013 44.6947 161.227 45.068C161.451 45.432 161.741 45.7213 162.095 45.936C162.459 46.1413 162.856 46.244 163.285 46.244C163.64 46.244 163.981 46.1833 164.307 46.062C164.643 45.9313 164.928 45.7587 165.161 45.544L165.805 46.23C165.413 46.538 165.007 46.7667 164.587 46.916C164.167 47.0653 163.719 47.14 163.243 47.14ZM160.877 43.08H165.203C165.157 42.6693 165.031 42.3053 164.825 41.988C164.629 41.6613 164.377 41.4047 164.069 41.218C163.771 41.0313 163.435 40.938 163.061 40.938C162.688 40.938 162.347 41.0313 162.039 41.218C161.731 41.3953 161.475 41.6473 161.269 41.974C161.073 42.2913 160.943 42.66 160.877 43.08ZM174.29 47.112C173.655 47.112 173.081 46.958 172.568 46.65C172.064 46.3327 171.662 45.908 171.364 45.376C171.065 44.8347 170.916 44.2373 170.916 43.584C170.916 42.9213 171.065 42.324 171.364 41.792C171.662 41.26 172.064 40.84 172.568 40.532C173.081 40.2147 173.655 40.056 174.29 40.056C174.794 40.056 175.274 40.1493 175.732 40.336C176.189 40.5227 176.586 40.784 176.922 41.12L176.264 41.834C176.021 41.5633 175.727 41.3533 175.382 41.204C175.036 41.0547 174.686 40.98 174.332 40.98C173.884 40.98 173.478 41.0967 173.114 41.33C172.759 41.5633 172.474 41.876 172.26 42.268C172.045 42.66 171.938 43.0987 171.938 43.584C171.938 44.0693 172.045 44.508 172.26 44.9C172.474 45.292 172.759 45.6047 173.114 45.838C173.478 46.0713 173.884 46.188 174.332 46.188C174.686 46.188 175.036 46.1133 175.382 45.964C175.727 45.8053 176.021 45.5953 176.264 45.334L176.922 46.048C176.586 46.384 176.189 46.6453 175.732 46.832C175.274 47.0187 174.794 47.112 174.29 47.112ZM181.166 47.112C180.531 47.112 179.962 46.958 179.458 46.65C178.954 46.342 178.557 45.922 178.268 45.39C177.978 44.858 177.834 44.256 177.834 43.584C177.834 42.912 177.978 42.31 178.268 41.778C178.557 41.246 178.954 40.826 179.458 40.518C179.962 40.21 180.531 40.056 181.166 40.056C181.791 40.056 182.351 40.21 182.846 40.518C183.35 40.826 183.746 41.246 184.036 41.778C184.325 42.31 184.47 42.912 184.47 43.584C184.47 44.256 184.325 44.858 184.036 45.39C183.746 45.922 183.35 46.342 182.846 46.65C182.351 46.958 181.791 47.112 181.166 47.112ZM181.152 46.216C181.6 46.216 181.996 46.104 182.342 45.88C182.687 45.6467 182.958 45.3293 183.154 44.928C183.359 44.5267 183.462 44.0787 183.462 43.584C183.462 43.08 183.359 42.632 183.154 42.24C182.958 41.8387 182.687 41.526 182.342 41.302C181.996 41.0687 181.6 40.952 181.152 40.952C180.704 40.952 180.307 41.0687 179.962 41.302C179.616 41.526 179.341 41.8387 179.136 42.24C178.94 42.632 178.842 43.08 178.842 43.584C178.842 44.0787 178.94 44.5267 179.136 44.928C179.341 45.3293 179.616 45.6467 179.962 45.88C180.307 46.104 180.704 46.216 181.152 46.216ZM186.263 49.926V40.168H187.271V41.148C187.532 40.8027 187.85 40.5413 188.223 40.364C188.606 40.1773 189.026 40.084 189.483 40.084C190.08 40.084 190.612 40.2427 191.079 40.56C191.555 40.868 191.933 41.288 192.213 41.82C192.493 42.3427 192.633 42.9307 192.633 43.584C192.633 44.2373 192.488 44.83 192.199 45.362C191.919 45.894 191.536 46.3187 191.051 46.636C190.575 46.944 190.034 47.098 189.427 47.098C188.998 47.098 188.601 47.0187 188.237 46.86C187.873 46.692 187.556 46.454 187.285 46.146V49.926H186.263ZM189.231 46.216C189.688 46.216 190.094 46.104 190.449 45.88C190.813 45.6467 191.098 45.334 191.303 44.942C191.518 44.5407 191.625 44.0927 191.625 43.598C191.625 43.094 191.518 42.646 191.303 42.254C191.098 41.862 190.813 41.554 190.449 41.33C190.094 41.0967 189.688 40.98 189.231 40.98C188.83 40.98 188.456 41.064 188.111 41.232C187.775 41.3907 187.5 41.6193 187.285 41.918V45.264C187.509 45.5627 187.789 45.796 188.125 45.964C188.47 46.132 188.839 46.216 189.231 46.216ZM194.514 50.066C194.299 50.066 194.08 50.0333 193.856 49.968V49.058C193.949 49.0767 194.047 49.0907 194.15 49.1C194.253 49.1093 194.341 49.114 194.416 49.114C194.677 49.114 194.892 49.044 195.06 48.904C195.237 48.764 195.387 48.5447 195.508 48.246L196.012 47L193.38 40.168H194.514L196.586 45.782L198.784 40.168H199.918L196.474 48.554C196.325 48.918 196.161 49.212 195.984 49.436C195.807 49.66 195.601 49.8187 195.368 49.912C195.135 50.0147 194.85 50.066 194.514 50.066ZM207.064 47.14C206.476 47.14 206.028 47 205.72 46.72C205.421 46.4307 205.272 46.0153 205.272 45.474V41.008H203.858V40.168H205.272V38.292L206.294 38.054V40.168H208.254V41.008H206.294V45.208C206.294 45.572 206.369 45.8333 206.518 45.992C206.677 46.1507 206.933 46.23 207.288 46.23C207.465 46.23 207.624 46.216 207.764 46.188C207.904 46.16 208.067 46.1133 208.254 46.048V46.958C208.067 47.0233 207.871 47.07 207.666 47.098C207.461 47.126 207.26 47.14 207.064 47.14ZM212.638 47.112C212.004 47.112 211.434 46.958 210.93 46.65C210.426 46.342 210.03 45.922 209.74 45.39C209.451 44.858 209.306 44.256 209.306 43.584C209.306 42.912 209.451 42.31 209.74 41.778C210.03 41.246 210.426 40.826 210.93 40.518C211.434 40.21 212.004 40.056 212.638 40.056C213.264 40.056 213.824 40.21 214.318 40.518C214.822 40.826 215.219 41.246 215.508 41.778C215.798 42.31 215.942 42.912 215.942 43.584C215.942 44.256 215.798 44.858 215.508 45.39C215.219 45.922 214.822 46.342 214.318 46.65C213.824 46.958 213.264 47.112 212.638 47.112ZM212.624 46.216C213.072 46.216 213.469 46.104 213.814 45.88C214.16 45.6467 214.43 45.3293 214.626 44.928C214.832 44.5267 214.934 44.0787 214.934 43.584C214.934 43.08 214.832 42.632 214.626 42.24C214.43 41.8387 214.16 41.526 213.814 41.302C213.469 41.0687 213.072 40.952 212.624 40.952C212.176 40.952 211.78 41.0687 211.434 41.302C211.089 41.526 210.814 41.8387 210.608 42.24C210.412 42.632 210.314 43.08 210.314 43.584C210.314 44.0787 210.412 44.5267 210.608 44.928C210.814 45.3293 211.089 45.6467 211.434 45.88C211.78 46.104 212.176 46.216 212.624 46.216ZM224.069 47.112C223.434 47.112 222.86 46.958 222.347 46.65C221.843 46.3327 221.442 45.908 221.143 45.376C220.844 44.8347 220.695 44.2373 220.695 43.584C220.695 42.9213 220.844 42.324 221.143 41.792C221.442 41.26 221.843 40.84 222.347 40.532C222.86 40.2147 223.434 40.056 224.069 40.056C224.573 40.056 225.054 40.1493 225.511 40.336C225.968 40.5227 226.365 40.784 226.701 41.12L226.043 41.834C225.8 41.5633 225.506 41.3533 225.161 41.204C224.816 41.0547 224.466 40.98 224.111 40.98C223.663 40.98 223.257 41.0967 222.893 41.33C222.538 41.5633 222.254 41.876 222.039 42.268C221.824 42.66 221.717 43.0987 221.717 43.584C221.717 44.0693 221.824 44.508 222.039 44.9C222.254 45.292 222.538 45.6047 222.893 45.838C223.257 46.0713 223.663 46.188 224.111 46.188C224.466 46.188 224.816 46.1133 225.161 45.964C225.506 45.8053 225.8 45.5953 226.043 45.334L226.701 46.048C226.365 46.384 225.968 46.6453 225.511 46.832C225.054 47.0187 224.573 47.112 224.069 47.112ZM228.126 47V36.892L229.148 36.682V47H228.126ZM231.229 47V40.168H232.251V47H231.229ZM231.747 38.474C231.542 38.474 231.365 38.404 231.215 38.264C231.075 38.1147 231.005 37.942 231.005 37.746C231.005 37.55 231.075 37.382 231.215 37.242C231.365 37.0927 231.542 37.018 231.747 37.018C231.953 37.018 232.125 37.0927 232.265 37.242C232.415 37.382 232.489 37.55 232.489 37.746C232.489 37.942 232.415 38.1147 232.265 38.264C232.125 38.404 231.953 38.474 231.747 38.474ZM234.347 49.926V40.168H235.355V41.148C235.616 40.8027 235.934 40.5413 236.307 40.364C236.69 40.1773 237.11 40.084 237.567 40.084C238.164 40.084 238.696 40.2427 239.163 40.56C239.639 40.868 240.017 41.288 240.297 41.82C240.577 42.3427 240.717 42.9307 240.717 43.584C240.717 44.2373 240.572 44.83 240.283 45.362C240.003 45.894 239.62 46.3187 239.135 46.636C238.659 46.944 238.118 47.098 237.511 47.098C237.082 47.098 236.685 47.0187 236.321 46.86C235.957 46.692 235.64 46.454 235.369 46.146V49.926H234.347ZM237.315 46.216C237.772 46.216 238.178 46.104 238.533 45.88C238.897 45.6467 239.182 45.334 239.387 44.942C239.602 44.5407 239.709 44.0927 239.709 43.598C239.709 43.094 239.602 42.646 239.387 42.254C239.182 41.862 238.897 41.554 238.533 41.33C238.178 41.0967 237.772 40.98 237.315 40.98C236.914 40.98 236.54 41.064 236.195 41.232C235.859 41.3907 235.584 41.6193 235.369 41.918V45.264C235.593 45.5627 235.873 45.796 236.209 45.964C236.554 46.132 236.923 46.216 237.315 46.216ZM242.509 47V36.99L243.531 36.78V41.106C243.792 40.7793 244.11 40.5273 244.483 40.35C244.856 40.1727 245.272 40.084 245.729 40.084C246.326 40.084 246.858 40.2427 247.325 40.56C247.801 40.868 248.179 41.288 248.459 41.82C248.739 42.3427 248.879 42.9307 248.879 43.584C248.879 44.2373 248.734 44.83 248.445 45.362C248.165 45.894 247.782 46.3187 247.297 46.636C246.821 46.944 246.28 47.098 245.673 47.098C245.244 47.098 244.842 47.014 244.469 46.846C244.105 46.6687 243.788 46.4213 243.517 46.104V47H242.509ZM245.477 46.216C245.934 46.216 246.34 46.104 246.695 45.88C247.059 45.6467 247.344 45.334 247.549 44.942C247.764 44.5407 247.871 44.0927 247.871 43.598C247.871 43.094 247.764 42.646 247.549 42.254C247.344 41.862 247.059 41.554 246.695 41.33C246.34 41.0967 245.934 40.98 245.477 40.98C245.076 40.98 244.702 41.064 244.357 41.232C244.021 41.3907 243.746 41.6193 243.531 41.918V45.264C243.755 45.5627 244.035 45.796 244.371 45.964C244.716 46.132 245.085 46.216 245.477 46.216ZM253.695 47.112C253.06 47.112 252.491 46.958 251.987 46.65C251.483 46.342 251.086 45.922 250.797 45.39C250.508 44.858 250.363 44.256 250.363 43.584C250.363 42.912 250.508 42.31 250.797 41.778C251.086 41.246 251.483 40.826 251.987 40.518C252.491 40.21 253.06 40.056 253.695 40.056C254.32 40.056 254.88 40.21 255.375 40.518C255.879 40.826 256.276 41.246 256.565 41.778C256.854 42.31 256.999 42.912 256.999 43.584C256.999 44.256 256.854 44.858 256.565 45.39C256.276 45.922 255.879 46.342 255.375 46.65C254.88 46.958 254.32 47.112 253.695 47.112ZM253.681 46.216C254.129 46.216 254.526 46.104 254.871 45.88C255.216 45.6467 255.487 45.3293 255.683 44.928C255.888 44.5267 255.991 44.0787 255.991 43.584C255.991 43.08 255.888 42.632 255.683 42.24C255.487 41.8387 255.216 41.526 254.871 41.302C254.526 41.0687 254.129 40.952 253.681 40.952C253.233 40.952 252.836 41.0687 252.491 41.302C252.146 41.526 251.87 41.8387 251.665 42.24C251.469 42.632 251.371 43.08 251.371 43.584C251.371 44.0787 251.469 44.5267 251.665 44.928C251.87 45.3293 252.146 45.6467 252.491 45.88C252.836 46.104 253.233 46.216 253.681 46.216ZM260.975 47.126C260.489 47.126 260.06 47.0373 259.687 46.86C259.313 46.6827 259.019 46.44 258.805 46.132C258.599 45.8147 258.497 45.4507 258.497 45.04C258.497 44.6293 258.604 44.2747 258.819 43.976C259.033 43.668 259.332 43.43 259.715 43.262C260.097 43.094 260.545 43.01 261.059 43.01C261.451 43.01 261.819 43.052 262.165 43.136C262.519 43.22 262.846 43.3553 263.145 43.542V42.604C263.145 42.044 262.995 41.624 262.697 41.344C262.398 41.0547 261.959 40.91 261.381 40.91C261.063 40.91 260.737 40.9567 260.401 41.05C260.074 41.1433 259.71 41.2927 259.309 41.498L258.931 40.714C259.845 40.2753 260.704 40.056 261.507 40.056C262.356 40.056 263.009 40.266 263.467 40.686C263.924 41.0967 264.153 41.6893 264.153 42.464V47H263.145V46.202C262.846 46.51 262.515 46.7433 262.151 46.902C261.787 47.0513 261.395 47.126 260.975 47.126ZM259.477 45.012C259.477 45.4133 259.631 45.7353 259.939 45.978C260.256 46.2207 260.671 46.342 261.185 46.342C261.567 46.342 261.917 46.2767 262.235 46.146C262.561 46.0153 262.865 45.8193 263.145 45.558V44.242C262.855 44.074 262.557 43.9527 262.249 43.878C261.941 43.794 261.595 43.752 261.213 43.752C260.69 43.752 260.27 43.8687 259.953 44.102C259.635 44.326 259.477 44.6293 259.477 45.012ZM266.23 47V40.168H267.252V41.568C267.429 41.092 267.681 40.7233 268.008 40.462C268.344 40.1913 268.726 40.056 269.156 40.056C269.277 40.056 269.389 40.0653 269.492 40.084C269.594 40.0933 269.697 40.1167 269.8 40.154V41.078C269.688 41.0407 269.566 41.0127 269.436 40.994C269.314 40.966 269.198 40.952 269.086 40.952C268.666 40.952 268.297 41.0733 267.98 41.316C267.672 41.5587 267.429 41.8993 267.252 42.338V47H266.23ZM273.57 47.098C272.982 47.098 272.45 46.944 271.974 46.636C271.498 46.3187 271.12 45.8987 270.84 45.376C270.56 44.844 270.42 44.2513 270.42 43.598C270.42 42.9353 270.56 42.3427 270.84 41.82C271.129 41.288 271.516 40.868 272.002 40.56C272.487 40.2427 273.028 40.084 273.626 40.084C274.046 40.084 274.438 40.168 274.802 40.336C275.166 40.4947 275.483 40.728 275.754 41.036V36.892L276.776 36.682V47H275.754V46.09C275.492 46.4167 275.175 46.6687 274.802 46.846C274.428 47.014 274.018 47.098 273.57 47.098ZM273.822 46.202C274.223 46.202 274.592 46.1227 274.928 45.964C275.264 45.8053 275.539 45.5813 275.754 45.292V41.904C275.53 41.6147 275.245 41.3907 274.9 41.232C274.564 41.064 274.204 40.98 273.822 40.98C273.364 40.98 272.954 41.092 272.59 41.316C272.235 41.54 271.95 41.848 271.736 42.24C271.53 42.632 271.428 43.08 271.428 43.584C271.428 44.0787 271.53 44.5267 271.736 44.928C271.95 45.32 272.235 45.6327 272.59 45.866C272.954 46.09 273.364 46.202 273.822 46.202ZM282.13 47V40.168H283.152V47H282.13ZM282.648 38.474C282.442 38.474 282.265 38.404 282.116 38.264C281.976 38.1147 281.906 37.942 281.906 37.746C281.906 37.55 281.976 37.382 282.116 37.242C282.265 37.0927 282.442 37.018 282.648 37.018C282.853 37.018 283.026 37.0927 283.166 37.242C283.315 37.382 283.39 37.55 283.39 37.746C283.39 37.942 283.315 38.1147 283.166 38.264C283.026 38.404 282.853 38.474 282.648 38.474ZM285.247 47V40.168H286.269V41.274C286.531 40.8633 286.843 40.56 287.207 40.364C287.571 40.1587 287.982 40.056 288.439 40.056C288.934 40.056 289.363 40.1633 289.727 40.378C290.101 40.5833 290.39 40.8773 290.595 41.26C290.81 41.6333 290.917 42.072 290.917 42.576V47H289.895V42.87C289.895 42.2633 289.727 41.7873 289.391 41.442C289.065 41.0873 288.621 40.91 288.061 40.91C287.688 40.91 287.347 40.9987 287.039 41.176C286.731 41.3533 286.475 41.6147 286.269 41.96V47H285.247ZM292.972 49.926V40.168H293.98V41.148C294.241 40.8027 294.559 40.5413 294.932 40.364C295.315 40.1773 295.735 40.084 296.192 40.084C296.789 40.084 297.321 40.2427 297.788 40.56C298.264 40.868 298.642 41.288 298.922 41.82C299.202 42.3427 299.342 42.9307 299.342 43.584C299.342 44.2373 299.197 44.83 298.908 45.362C298.628 45.894 298.245 46.3187 297.76 46.636C297.284 46.944 296.743 47.098 296.136 47.098C295.707 47.098 295.31 47.0187 294.946 46.86C294.582 46.692 294.265 46.454 293.994 46.146V49.926H292.972ZM295.94 46.216C296.397 46.216 296.803 46.104 297.158 45.88C297.522 45.6467 297.807 45.334 298.012 44.942C298.227 44.5407 298.334 44.0927 298.334 43.598C298.334 43.094 298.227 42.646 298.012 42.254C297.807 41.862 297.522 41.554 297.158 41.33C296.803 41.0967 296.397 40.98 295.94 40.98C295.539 40.98 295.165 41.064 294.82 41.232C294.484 41.3907 294.209 41.6193 293.994 41.918V45.264C294.218 45.5627 294.498 45.796 294.834 45.964C295.179 46.132 295.548 46.216 295.94 46.216ZM303.57 47.112C303.085 47.112 302.655 47.0047 302.282 46.79C301.909 46.5753 301.615 46.2767 301.4 45.894C301.195 45.5113 301.092 45.0727 301.092 44.578V40.168H302.128V44.284C302.128 44.8907 302.291 45.3713 302.618 45.726C302.945 46.0807 303.388 46.258 303.948 46.258C304.331 46.258 304.671 46.1693 304.97 45.992C305.278 45.8147 305.535 45.558 305.74 45.222V40.168H306.762V47H305.74V45.894C305.479 46.2953 305.166 46.5987 304.802 46.804C304.447 47.0093 304.037 47.112 303.57 47.112ZM311.463 47.14C310.875 47.14 310.427 47 310.119 46.72C309.82 46.4307 309.671 46.0153 309.671 45.474V41.008H308.257V40.168H309.671V38.292L310.693 38.054V40.168H312.653V41.008H310.693V45.208C310.693 45.572 310.767 45.8333 310.917 45.992C311.075 46.1507 311.332 46.23 311.687 46.23C311.864 46.23 312.023 46.216 312.163 46.188C312.303 46.16 312.466 46.1133 312.653 46.048V46.958C312.466 47.0233 312.27 47.07 312.065 47.098C311.859 47.126 311.659 47.14 311.463 47.14ZM318.285 47V41.008H316.759V40.168H318.285V38.74C318.285 38.068 318.463 37.55 318.817 37.186C319.172 36.822 319.676 36.64 320.329 36.64C320.516 36.64 320.684 36.6493 320.833 36.668C320.992 36.6867 321.132 36.7193 321.253 36.766V37.69C321.104 37.6433 320.969 37.6107 320.847 37.592C320.726 37.5733 320.586 37.564 320.427 37.564C320.035 37.564 319.751 37.662 319.573 37.858C319.396 38.0447 319.307 38.3433 319.307 38.754V40.168H321.253V41.008H319.307V47H318.285ZM322.585 47V40.168H323.607V47H322.585ZM323.103 38.474C322.897 38.474 322.72 38.404 322.571 38.264C322.431 38.1147 322.361 37.942 322.361 37.746C322.361 37.55 322.431 37.382 322.571 37.242C322.72 37.0927 322.897 37.018 323.103 37.018C323.308 37.018 323.481 37.0927 323.621 37.242C323.77 37.382 323.845 37.55 323.845 37.746C323.845 37.942 323.77 38.1147 323.621 38.264C323.481 38.404 323.308 38.474 323.103 38.474ZM328.782 47.14C328.148 47.14 327.574 46.986 327.06 46.678C326.547 46.3607 326.141 45.936 325.842 45.404C325.544 44.8627 325.394 44.256 325.394 43.584C325.394 42.912 325.534 42.31 325.814 41.778C326.104 41.246 326.491 40.826 326.976 40.518C327.462 40.21 328.003 40.056 328.6 40.056C329.207 40.056 329.744 40.21 330.21 40.518C330.686 40.8167 331.06 41.2273 331.33 41.75C331.61 42.2633 331.75 42.8467 331.75 43.5V43.808H326.388C326.426 44.2747 326.552 44.6947 326.766 45.068C326.99 45.432 327.28 45.7213 327.634 45.936C327.998 46.1413 328.395 46.244 328.824 46.244C329.179 46.244 329.52 46.1833 329.846 46.062C330.182 45.9313 330.467 45.7587 330.7 45.544L331.344 46.23C330.952 46.538 330.546 46.7667 330.126 46.916C329.706 47.0653 329.258 47.14 328.782 47.14ZM326.416 43.08H330.742C330.696 42.6693 330.57 42.3053 330.364 41.988C330.168 41.6613 329.916 41.4047 329.608 41.218C329.31 41.0313 328.974 40.938 328.6 40.938C328.227 40.938 327.886 41.0313 327.578 41.218C327.27 41.3953 327.014 41.6473 326.808 41.974C326.612 42.2913 326.482 42.66 326.416 43.08ZM333.495 47V36.892L334.517 36.682V47H333.495ZM339.455 47.098C338.867 47.098 338.335 46.944 337.859 46.636C337.383 46.3187 337.005 45.8987 336.725 45.376C336.445 44.844 336.305 44.2513 336.305 43.598C336.305 42.9353 336.445 42.3427 336.725 41.82C337.014 41.288 337.401 40.868 337.887 40.56C338.372 40.2427 338.913 40.084 339.511 40.084C339.931 40.084 340.323 40.168 340.687 40.336C341.051 40.4947 341.368 40.728 341.639 41.036V36.892L342.661 36.682V47H341.639V46.09C341.377 46.4167 341.06 46.6687 340.687 46.846C340.313 47.014 339.903 47.098 339.455 47.098ZM339.707 46.202C340.108 46.202 340.477 46.1227 340.813 45.964C341.149 45.8053 341.424 45.5813 341.639 45.292V41.904C341.415 41.6147 341.13 41.3907 340.785 41.232C340.449 41.064 340.089 40.98 339.707 40.98C339.249 40.98 338.839 41.092 338.475 41.316C338.12 41.54 337.835 41.848 337.62 42.24C337.415 42.632 337.312 43.08 337.312 43.584C337.312 44.0787 337.415 44.5267 337.62 44.928C337.835 45.32 338.12 45.6327 338.475 45.866C338.839 46.09 339.249 46.202 339.707 46.202Z" fill="#151515"/>
<path d="M423.5 30C423.5 26.9624 425.962 24.5 429 24.5H470C473.038 24.5 475.5 26.9624 475.5 30V55C475.5 58.0376 473.038 60.5 470 60.5H429C425.962 60.5 423.5 58.0376 423.5 55V30Z" fill="white"/>
<path d="M423.5 30C423.5 26.9624 425.962 24.5 429 24.5H470C473.038 24.5 475.5 26.9624 475.5 30V55C475.5 58.0376 473.038 60.5 470 60.5H429C425.962 60.5 423.5 58.0376 423.5 55V30Z" stroke="#C7C7C7"/>
<path fill-rule="evenodd" clip-rule="evenodd" d="M455.76 47.375C456.123 47.375 456.417 47.0812 456.417 46.7187V39.5H453.573C453.212 39.5 452.917 39.2047 452.917 38.8437V36H448.323C447.96 36 447.667 36.2938 447.667 36.6562V46.7187C447.667 47.0812 447.96 47.375 448.323 47.375H455.76ZM456.417 38.625V38.4593C456.417 38.3093 456.33 38.1014 456.224 37.9953L454.421 36.1922C454.315 36.0861 454.107 36 453.957 36H453.792V38.625H456.417ZM452.26 50C452.623 50 452.917 49.7062 452.917 49.3437V48.25H448.323C447.479 48.25 446.792 47.5631 446.792 46.7187V38.625H444.823C444.46 38.625 444.167 38.9188 444.167 39.2812V49.3437C444.167 49.7062 444.46 50 444.823 50H452.26Z" fill="#1F1F1F"/>
</svg>
