<svg width="300" height="325" viewBox="0 0 300 325" fill="none" xmlns="http://www.w3.org/2000/svg">
<g clip-path="url(#clip0_121_25673)">
<rect width="300" height="325" fill="white"/>
<mask id="path-1-inside-1_121_25673" fill="white">
<path d="M34 15C34 11.6863 36.6863 9 40 9H260C263.314 9 266 11.6863 266 15V40C266 43.3137 263.314 46 260 46H40C36.6863 46 34 43.3137 34 40V15Z"/>
</mask>
<path d="M34 15C34 11.6863 36.6863 9 40 9H260C263.314 9 266 11.6863 266 15V40C266 43.3137 263.314 46 260 46H40C36.6863 46 34 43.3137 34 40V15Z" fill="white"/>
<path d="M40 11H260V7H40V11ZM264 15V40H268V15H264ZM260 44H40V48H260V44ZM36 40V15H32V40H36ZM40 44C37.7909 44 36 42.2091 36 40H32C32 44.4183 35.5817 48 40 48V44ZM264 40C264 42.2091 262.209 44 260 44V48C264.418 48 268 44.4183 268 40H264ZM260 11C262.209 11 264 12.7909 264 15H268C268 10.5817 264.418 7 260 7V11ZM40 7C35.5817 7 32 10.5817 32 15H36C36 12.7909 37.7909 11 40 11V7Z" fill="#0066CC" mask="url(#path-1-inside-1_121_25673)"/>
<path d="M50.126 32L54.004 22.2H55.292L59.114 32H57.952L56.79 28.92H52.422L51.26 32H50.126ZM52.758 28.066H56.468L54.606 23.18L52.758 28.066ZM60.2922 32V21.892L61.3142 21.682V32H60.2922ZM63.4094 32V21.892L64.4314 21.682V32H63.4094ZM69.7941 34.926V25.168H70.8021V26.148C71.0635 25.8027 71.3808 25.5413 71.7541 25.364C72.1368 25.1773 72.5568 25.084 73.0141 25.084C73.6115 25.084 74.1435 25.2427 74.6101 25.56C75.0861 25.868 75.4641 26.288 75.7441 26.82C76.0241 27.3427 76.1641 27.9307 76.1641 28.584C76.1641 29.2373 76.0195 29.83 75.7301 30.362C75.4501 30.894 75.0675 31.3187 74.5821 31.636C74.1061 31.944 73.5648 32.098 72.9581 32.098C72.5288 32.098 72.1321 32.0187 71.7681 31.86C71.4041 31.692 71.0868 31.454 70.8161 31.146V34.926H69.7941ZM72.7621 31.216C73.2195 31.216 73.6255 31.104 73.9801 30.88C74.3441 30.6467 74.6288 30.334 74.8341 29.942C75.0488 29.5407 75.1561 29.0927 75.1561 28.598C75.1561 28.094 75.0488 27.646 74.8341 27.254C74.6288 26.862 74.3441 26.554 73.9801 26.33C73.6255 26.0967 73.2195 25.98 72.7621 25.98C72.3608 25.98 71.9875 26.064 71.6421 26.232C71.3061 26.3907 71.0308 26.6193 70.8161 26.918V30.264C71.0401 30.5627 71.3201 30.796 71.6561 30.964C72.0015 31.132 72.3701 31.216 72.7621 31.216ZM77.9563 32V25.168H78.9783V26.568C79.1556 26.092 79.4076 25.7233 79.7343 25.462C80.0703 25.1913 80.4529 25.056 80.8823 25.056C81.0036 25.056 81.1156 25.0653 81.2183 25.084C81.3209 25.0933 81.4236 25.1167 81.5263 25.154V26.078C81.4143 26.0407 81.2929 26.0127 81.1623 25.994C81.0409 25.966 80.9243 25.952 80.8123 25.952C80.3923 25.952 80.0236 26.0733 79.7063 26.316C79.3983 26.5587 79.1556 26.8993 78.9783 27.338V32H77.9563ZM85.4783 32.112C84.8436 32.112 84.2743 31.958 83.7703 31.65C83.2663 31.342 82.8696 30.922 82.5803 30.39C82.291 29.858 82.1463 29.256 82.1463 28.584C82.1463 27.912 82.291 27.31 82.5803 26.778C82.8696 26.246 83.2663 25.826 83.7703 25.518C84.2743 25.21 84.8436 25.056 85.4783 25.056C86.1036 25.056 86.6636 25.21 87.1583 25.518C87.6623 25.826 88.059 26.246 88.3483 26.778C88.6376 27.31 88.7823 27.912 88.7823 28.584C88.7823 29.256 88.6376 29.858 88.3483 30.39C88.059 30.922 87.6623 31.342 87.1583 31.65C86.6636 31.958 86.1036 32.112 85.4783 32.112ZM85.4643 31.216C85.9123 31.216 86.309 31.104 86.6543 30.88C86.9996 30.6467 87.2703 30.3293 87.4663 29.928C87.6716 29.5267 87.7743 29.0787 87.7743 28.584C87.7743 28.08 87.6716 27.632 87.4663 27.24C87.2703 26.8387 86.9996 26.526 86.6543 26.302C86.309 26.0687 85.9123 25.952 85.4643 25.952C85.0163 25.952 84.6196 26.0687 84.2743 26.302C83.929 26.526 83.6536 26.8387 83.4483 27.24C83.2523 27.632 83.1543 28.08 83.1543 28.584C83.1543 29.0787 83.2523 29.5267 83.4483 29.928C83.6536 30.3293 83.929 30.6467 84.2743 30.88C84.6196 31.104 85.0163 31.216 85.4643 31.216ZM91.0934 23.474C90.8881 23.474 90.7107 23.404 90.5614 23.264C90.4214 23.1147 90.3514 22.942 90.3514 22.746C90.3514 22.55 90.4214 22.382 90.5614 22.242C90.7107 22.0927 90.8881 22.018 91.0934 22.018C91.2987 22.018 91.4714 22.0927 91.6114 22.242C91.7607 22.382 91.8354 22.55 91.8354 22.746C91.8354 22.942 91.7607 23.1147 91.6114 23.264C91.4714 23.404 91.2987 23.474 91.0934 23.474ZM89.8754 35.066C89.7634 35.066 89.6514 35.052 89.5394 35.024C89.4367 35.0053 89.3387 34.9913 89.2454 34.982V34.1C89.3294 34.1187 89.4134 34.1327 89.4974 34.142C89.5721 34.1513 89.6561 34.156 89.7494 34.156C90.0481 34.156 90.2581 34.086 90.3794 33.946C90.5101 33.806 90.5754 33.5773 90.5754 33.26V25.168H91.5974V33.316C91.5974 33.8667 91.4481 34.296 91.1494 34.604C90.8601 34.912 90.4354 35.066 89.8754 35.066ZM96.7726 32.14C96.1379 32.14 95.5639 31.986 95.0506 31.678C94.5372 31.3607 94.1312 30.936 93.8326 30.404C93.5339 29.8627 93.3846 29.256 93.3846 28.584C93.3846 27.912 93.5246 27.31 93.8046 26.778C94.0939 26.246 94.4812 25.826 94.9666 25.518C95.4519 25.21 95.9932 25.056 96.5906 25.056C97.1972 25.056 97.7339 25.21 98.2006 25.518C98.6766 25.8167 99.0499 26.2273 99.3206 26.75C99.6006 27.2633 99.7406 27.8467 99.7406 28.5V28.808H94.3786C94.4159 29.2747 94.5419 29.6947 94.7566 30.068C94.9806 30.432 95.2699 30.7213 95.6246 30.936C95.9886 31.1413 96.3852 31.244 96.8146 31.244C97.1692 31.244 97.5099 31.1833 97.8366 31.062C98.1726 30.9313 98.4572 30.7587 98.6906 30.544L99.3346 31.23C98.9426 31.538 98.5366 31.7667 98.1166 31.916C97.6966 32.0653 97.2486 32.14 96.7726 32.14ZM94.4066 28.08H98.7326C98.6859 27.6693 98.5599 27.3053 98.3546 26.988C98.1586 26.6613 97.9066 26.4047 97.5986 26.218C97.2999 26.0313 96.9639 25.938 96.5906 25.938C96.2172 25.938 95.8766 26.0313 95.5686 26.218C95.2606 26.3953 95.0039 26.6473 94.7986 26.974C94.6026 27.2913 94.4719 27.66 94.4066 28.08ZM104.552 32.112C103.917 32.112 103.343 31.958 102.83 31.65C102.326 31.3327 101.924 30.908 101.626 30.376C101.327 29.8347 101.178 29.2373 101.178 28.584C101.178 27.9213 101.327 27.324 101.626 26.792C101.924 26.26 102.326 25.84 102.83 25.532C103.343 25.2147 103.917 25.056 104.552 25.056C105.056 25.056 105.536 25.1493 105.994 25.336C106.451 25.5227 106.848 25.784 107.184 26.12L106.526 26.834C106.283 26.5633 105.989 26.3533 105.644 26.204C105.298 26.0547 104.948 25.98 104.594 25.98C104.146 25.98 103.74 26.0967 103.376 26.33C103.021 26.5633 102.736 26.876 102.522 27.268C102.307 27.66 102.2 28.0987 102.2 28.584C102.2 29.0693 102.307 29.508 102.522 29.9C102.736 30.292 103.021 30.6047 103.376 30.838C103.74 31.0713 104.146 31.188 104.594 31.188C104.948 31.188 105.298 31.1133 105.644 30.964C105.989 30.8053 106.283 30.5953 106.526 30.334L107.184 31.048C106.848 31.384 106.451 31.6453 105.994 31.832C105.536 32.0187 105.056 32.112 104.552 32.112ZM111.349 32.14C110.761 32.14 110.313 32 110.005 31.72C109.707 31.4307 109.557 31.0153 109.557 30.474V26.008H108.143V25.168H109.557V23.292L110.579 23.054V25.168H112.539V26.008H110.579V30.208C110.579 30.572 110.654 30.8333 110.803 30.992C110.962 31.1507 111.219 31.23 111.573 31.23C111.751 31.23 111.909 31.216 112.049 31.188C112.189 31.16 112.353 31.1133 112.539 31.048V31.958C112.353 32.0233 112.157 32.07 111.951 32.098C111.746 32.126 111.545 32.14 111.349 32.14ZM116.287 32.14C115.727 32.14 115.209 32.056 114.733 31.888C114.257 31.7107 113.851 31.4587 113.515 31.132L114.061 30.46C114.472 30.7587 114.85 30.978 115.195 31.118C115.54 31.2487 115.895 31.314 116.259 31.314C116.754 31.314 117.164 31.1973 117.491 30.964C117.818 30.7307 117.981 30.432 117.981 30.068C117.981 29.788 117.883 29.5687 117.687 29.41C117.5 29.2513 117.188 29.13 116.749 29.046L115.629 28.85C114.966 28.7287 114.476 28.5233 114.159 28.234C113.851 27.9447 113.697 27.5527 113.697 27.058C113.697 26.666 113.8 26.3207 114.005 26.022C114.22 25.7233 114.514 25.49 114.887 25.322C115.26 25.1447 115.685 25.056 116.161 25.056C116.628 25.056 117.071 25.126 117.491 25.266C117.911 25.3967 118.336 25.6113 118.765 25.91L118.261 26.624C117.906 26.372 117.552 26.19 117.197 26.078C116.842 25.9567 116.483 25.896 116.119 25.896C115.671 25.896 115.312 25.994 115.041 26.19C114.77 26.386 114.635 26.652 114.635 26.988C114.635 27.268 114.719 27.4827 114.887 27.632C115.064 27.7813 115.372 27.8933 115.811 27.968L116.959 28.178C117.65 28.2993 118.154 28.5093 118.471 28.808C118.788 29.1067 118.947 29.508 118.947 30.012C118.947 30.4133 118.83 30.7773 118.597 31.104C118.364 31.4213 118.046 31.6733 117.645 31.86C117.244 32.0467 116.791 32.14 116.287 32.14Z" fill="#1F1F1F"/>
<path fill-rule="evenodd" clip-rule="evenodd" d="M240.389 30.1715L243.921 26.6102C244.267 26.2616 244.023 25.6667 243.534 25.6667H236.466C235.977 25.6667 235.733 26.2616 236.079 26.6102L239.611 30.1715C239.826 30.3873 240.174 30.3873 240.389 30.1715Z" fill="#1F1F1F"/>
<g filter="url(#filter0_d_121_25673)">
<path d="M34 52C34 48.6863 36.6863 46 40 46H260C263.314 46 266 48.6863 266 52V311C266 314.314 263.314 317 260 317H40C36.6863 317 34 314.314 34 311V52Z" fill="white"/>
<path d="M56 62.5H244C247.038 62.5 249.5 64.9624 249.5 68V93C249.5 96.0376 247.038 98.5 244 98.5H56C52.9624 98.5 50.5 96.0376 50.5 93V68C50.5 64.9624 52.9624 62.5 56 62.5Z" fill="white"/>
<path d="M56 62.5H244C247.038 62.5 249.5 64.9624 249.5 68V93C249.5 96.0376 247.038 98.5 244 98.5H56C52.9624 98.5 50.5 96.0376 50.5 93V68C50.5 64.9624 52.9624 62.5 56 62.5Z" stroke="#C7C7C7"/>
<path fill-rule="evenodd" clip-rule="evenodd" d="M75.032 87.8086L75.8058 87.0347C76.0629 86.7777 76.0629 86.3621 75.8086 86.1051L73.0824 83.3789C72.9593 83.2558 72.7926 83.1875 72.6175 83.1875H72.1719C72.9265 82.2223 73.375 81.0082 73.375 79.6875C73.375 76.5457 70.8293 74 67.6875 74C64.5457 74 62 76.5457 62 79.6875C62 82.8293 64.5457 85.375 67.6875 85.375C69.0082 85.375 70.2223 84.9265 71.1875 84.1719V84.6175C71.1875 84.7926 71.2558 84.9593 71.3789 85.0824L74.1051 87.8086C74.3621 88.0656 74.7777 88.0656 75.032 87.8086ZM67.6875 83.1875C65.7543 83.1875 64.1875 81.6234 64.1875 79.6875C64.1875 77.7543 65.7516 76.1875 67.6875 76.1875C69.6207 76.1875 71.1875 77.7516 71.1875 79.6875C71.1875 81.6207 69.6234 83.1875 67.6875 83.1875Z" fill="#1F1F1F"/>
<path d="M91.41 85.154C90.6447 85.154 89.9353 85.0187 89.282 84.748C88.6287 84.468 87.9987 84.048 87.392 83.488L88.05 82.704C88.638 83.2547 89.1887 83.6467 89.702 83.88C90.2247 84.1133 90.8033 84.23 91.438 84.23C91.942 84.23 92.39 84.146 92.782 83.978C93.1833 83.8007 93.496 83.5627 93.72 83.264C93.944 82.9653 94.056 82.6247 94.056 82.242C94.056 81.7473 93.8927 81.374 93.566 81.122C93.2393 80.8607 92.6747 80.66 91.872 80.52L90.29 80.254C89.394 80.0953 88.736 79.8247 88.316 79.442C87.9053 79.05 87.7 78.5273 87.7 77.874C87.7 77.3233 87.84 76.838 88.12 76.418C88.4093 75.9887 88.806 75.6527 89.31 75.41C89.814 75.1673 90.3973 75.046 91.06 75.046C91.788 75.046 92.4647 75.1487 93.09 75.354C93.7153 75.55 94.3313 75.8627 94.938 76.292L94.378 77.132C93.874 76.7493 93.342 76.46 92.782 76.264C92.222 76.0587 91.6527 75.956 91.074 75.956C90.6167 75.956 90.2107 76.0353 89.856 76.194C89.5107 76.3527 89.2353 76.5673 89.03 76.838C88.834 77.1087 88.736 77.4167 88.736 77.762C88.736 78.1913 88.8807 78.5273 89.17 78.77C89.4593 79.0127 89.9307 79.1853 90.584 79.288L92.152 79.554C93.1973 79.7407 93.9533 80.044 94.42 80.464C94.896 80.8747 95.134 81.4487 95.134 82.186C95.134 82.7553 94.9707 83.264 94.644 83.712C94.3267 84.16 93.888 84.5147 93.328 84.776C92.768 85.028 92.1287 85.154 91.41 85.154ZM99.9894 85.14C99.3547 85.14 98.7807 84.986 98.2674 84.678C97.754 84.3607 97.348 83.936 97.0494 83.404C96.7507 82.8627 96.6014 82.256 96.6014 81.584C96.6014 80.912 96.7414 80.31 97.0214 79.778C97.3107 79.246 97.698 78.826 98.1834 78.518C98.6687 78.21 99.21 78.056 99.8074 78.056C100.414 78.056 100.951 78.21 101.417 78.518C101.893 78.8167 102.267 79.2273 102.537 79.75C102.817 80.2633 102.957 80.8467 102.957 81.5V81.808H97.5954C97.6327 82.2747 97.7587 82.6947 97.9734 83.068C98.1974 83.432 98.4867 83.7213 98.8414 83.936C99.2054 84.1413 99.602 84.244 100.031 84.244C100.386 84.244 100.727 84.1833 101.053 84.062C101.389 83.9313 101.674 83.7587 101.907 83.544L102.551 84.23C102.159 84.538 101.753 84.7667 101.333 84.916C100.913 85.0653 100.465 85.14 99.9894 85.14ZM97.6234 81.08H101.949C101.903 80.6693 101.777 80.3053 101.571 79.988C101.375 79.6613 101.123 79.4047 100.815 79.218C100.517 79.0313 100.181 78.938 99.8074 78.938C99.434 78.938 99.0934 79.0313 98.7854 79.218C98.4774 79.3953 98.2207 79.6473 98.0154 79.974C97.8194 80.2913 97.6887 80.66 97.6234 81.08ZM106.68 85.126C106.194 85.126 105.765 85.0373 105.392 84.86C105.018 84.6827 104.724 84.44 104.51 84.132C104.304 83.8147 104.202 83.4507 104.202 83.04C104.202 82.6293 104.309 82.2747 104.524 81.976C104.738 81.668 105.037 81.43 105.42 81.262C105.802 81.094 106.25 81.01 106.764 81.01C107.156 81.01 107.524 81.052 107.87 81.136C108.224 81.22 108.551 81.3553 108.85 81.542V80.604C108.85 80.044 108.7 79.624 108.402 79.344C108.103 79.0547 107.664 78.91 107.086 78.91C106.768 78.91 106.442 78.9567 106.106 79.05C105.779 79.1433 105.415 79.2927 105.014 79.498L104.636 78.714C105.55 78.2753 106.409 78.056 107.212 78.056C108.061 78.056 108.714 78.266 109.172 78.686C109.629 79.0967 109.858 79.6893 109.858 80.464V85H108.85V84.202C108.551 84.51 108.22 84.7433 107.856 84.902C107.492 85.0513 107.1 85.126 106.68 85.126ZM105.182 83.012C105.182 83.4133 105.336 83.7353 105.644 83.978C105.961 84.2207 106.376 84.342 106.89 84.342C107.272 84.342 107.622 84.2767 107.94 84.146C108.266 84.0153 108.57 83.8193 108.85 83.558V82.242C108.56 82.074 108.262 81.9527 107.954 81.878C107.646 81.794 107.3 81.752 106.918 81.752C106.395 81.752 105.975 81.8687 105.658 82.102C105.34 82.326 105.182 82.6293 105.182 83.012ZM111.935 85V78.168H112.957V79.568C113.134 79.092 113.386 78.7233 113.713 78.462C114.049 78.1913 114.431 78.056 114.861 78.056C114.982 78.056 115.094 78.0653 115.197 78.084C115.299 78.0933 115.402 78.1167 115.505 78.154V79.078C115.393 79.0407 115.271 79.0127 115.141 78.994C115.019 78.966 114.903 78.952 114.791 78.952C114.371 78.952 114.002 79.0733 113.685 79.316C113.377 79.5587 113.134 79.8993 112.957 80.338V85H111.935ZM119.499 85.112C118.864 85.112 118.29 84.958 117.777 84.65C117.273 84.3327 116.871 83.908 116.573 83.376C116.274 82.8347 116.125 82.2373 116.125 81.584C116.125 80.9213 116.274 80.324 116.573 79.792C116.871 79.26 117.273 78.84 117.777 78.532C118.29 78.2147 118.864 78.056 119.499 78.056C120.003 78.056 120.483 78.1493 120.941 78.336C121.398 78.5227 121.795 78.784 122.131 79.12L121.473 79.834C121.23 79.5633 120.936 79.3533 120.591 79.204C120.245 79.0547 119.895 78.98 119.541 78.98C119.093 78.98 118.687 79.0967 118.323 79.33C117.968 79.5633 117.683 79.876 117.469 80.268C117.254 80.66 117.147 81.0987 117.147 81.584C117.147 82.0693 117.254 82.508 117.469 82.9C117.683 83.292 117.968 83.6047 118.323 83.838C118.687 84.0713 119.093 84.188 119.541 84.188C119.895 84.188 120.245 84.1133 120.591 83.964C120.936 83.8053 121.23 83.5953 121.473 83.334L122.131 84.048C121.795 84.384 121.398 84.6453 120.941 84.832C120.483 85.0187 120.003 85.112 119.499 85.112ZM123.556 85V74.892L124.578 74.682V79.274C124.839 78.8633 125.152 78.56 125.516 78.364C125.88 78.1587 126.291 78.056 126.748 78.056C127.243 78.056 127.672 78.1633 128.036 78.378C128.409 78.5833 128.699 78.8773 128.904 79.26C129.119 79.6333 129.226 80.072 129.226 80.576V85H128.204V80.87C128.204 80.2633 128.036 79.7873 127.7 79.442C127.373 79.0873 126.93 78.91 126.37 78.91C125.997 78.91 125.656 78.9987 125.348 79.176C125.04 79.3533 124.783 79.6147 124.578 79.96V85H123.556Z" fill="#4D4D4D"/>
<rect width="232" height="1" transform="translate(34 115)" fill="#C7C7C7"/>
<path d="M59.246 147V137.2H60.744L64.02 144.172L67.296 137.2H68.794V147H67.772V138.474L64.02 146.3L60.254 138.446V147H59.246ZM71.3889 150.066C71.1743 150.066 70.9549 150.033 70.7309 149.968V149.058C70.8243 149.077 70.9223 149.091 71.0249 149.1C71.1276 149.109 71.2163 149.114 71.2909 149.114C71.5523 149.114 71.7669 149.044 71.9349 148.904C72.1123 148.764 72.2616 148.545 72.3829 148.246L72.8869 147L70.2549 140.168H71.3889L73.4609 145.782L75.6589 140.168H76.7929L73.3489 148.554C73.1996 148.918 73.0363 149.212 72.8589 149.436C72.6816 149.66 72.4763 149.819 72.2429 149.912C72.0096 150.015 71.7249 150.066 71.3889 150.066ZM81.3352 149.926V140.168H82.3432V141.148C82.6045 140.803 82.9218 140.541 83.2952 140.364C83.6778 140.177 84.0978 140.084 84.5552 140.084C85.1525 140.084 85.6845 140.243 86.1512 140.56C86.6272 140.868 87.0052 141.288 87.2852 141.82C87.5652 142.343 87.7052 142.931 87.7052 143.584C87.7052 144.237 87.5605 144.83 87.2712 145.362C86.9912 145.894 86.6085 146.319 86.1232 146.636C85.6472 146.944 85.1058 147.098 84.4992 147.098C84.0698 147.098 83.6732 147.019 83.3092 146.86C82.9452 146.692 82.6278 146.454 82.3572 146.146V149.926H81.3352ZM84.3032 146.216C84.7605 146.216 85.1665 146.104 85.5212 145.88C85.8852 145.647 86.1698 145.334 86.3752 144.942C86.5898 144.541 86.6972 144.093 86.6972 143.598C86.6972 143.094 86.5898 142.646 86.3752 142.254C86.1698 141.862 85.8852 141.554 85.5212 141.33C85.1665 141.097 84.7605 140.98 84.3032 140.98C83.9018 140.98 83.5285 141.064 83.1832 141.232C82.8472 141.391 82.5718 141.619 82.3572 141.918V145.264C82.5812 145.563 82.8612 145.796 83.1972 145.964C83.5425 146.132 83.9112 146.216 84.3032 146.216ZM89.4973 147V140.168H90.5193V141.568C90.6966 141.092 90.9486 140.723 91.2753 140.462C91.6113 140.191 91.9939 140.056 92.4233 140.056C92.5446 140.056 92.6566 140.065 92.7593 140.084C92.8619 140.093 92.9646 140.117 93.0673 140.154V141.078C92.9553 141.041 92.8339 141.013 92.7033 140.994C92.5819 140.966 92.4653 140.952 92.3533 140.952C91.9333 140.952 91.5646 141.073 91.2473 141.316C90.9393 141.559 90.6966 141.899 90.5193 142.338V147H89.4973ZM97.0193 147.112C96.3846 147.112 95.8153 146.958 95.3113 146.65C94.8073 146.342 94.4106 145.922 94.1213 145.39C93.832 144.858 93.6873 144.256 93.6873 143.584C93.6873 142.912 93.832 142.31 94.1213 141.778C94.4106 141.246 94.8073 140.826 95.3113 140.518C95.8153 140.21 96.3846 140.056 97.0193 140.056C97.6446 140.056 98.2046 140.21 98.6993 140.518C99.2033 140.826 99.6 141.246 99.8893 141.778C100.179 142.31 100.323 142.912 100.323 143.584C100.323 144.256 100.179 144.858 99.8893 145.39C99.6 145.922 99.2033 146.342 98.6993 146.65C98.2046 146.958 97.6446 147.112 97.0193 147.112ZM97.0053 146.216C97.4533 146.216 97.85 146.104 98.1953 145.88C98.5406 145.647 98.8113 145.329 99.0073 144.928C99.2126 144.527 99.3153 144.079 99.3153 143.584C99.3153 143.08 99.2126 142.632 99.0073 142.24C98.8113 141.839 98.5406 141.526 98.1953 141.302C97.85 141.069 97.4533 140.952 97.0053 140.952C96.5573 140.952 96.1606 141.069 95.8153 141.302C95.47 141.526 95.1946 141.839 94.9893 142.24C94.7933 142.632 94.6953 143.08 94.6953 143.584C94.6953 144.079 94.7933 144.527 94.9893 144.928C95.1946 145.329 95.47 145.647 95.8153 145.88C96.1606 146.104 96.5573 146.216 97.0053 146.216ZM102.634 138.474C102.429 138.474 102.252 138.404 102.102 138.264C101.962 138.115 101.892 137.942 101.892 137.746C101.892 137.55 101.962 137.382 102.102 137.242C102.252 137.093 102.429 137.018 102.634 137.018C102.84 137.018 103.012 137.093 103.152 137.242C103.302 137.382 103.376 137.55 103.376 137.746C103.376 137.942 103.302 138.115 103.152 138.264C103.012 138.404 102.84 138.474 102.634 138.474ZM101.416 150.066C101.304 150.066 101.192 150.052 101.08 150.024C100.978 150.005 100.88 149.991 100.786 149.982V149.1C100.87 149.119 100.954 149.133 101.038 149.142C101.113 149.151 101.197 149.156 101.29 149.156C101.589 149.156 101.799 149.086 101.92 148.946C102.051 148.806 102.116 148.577 102.116 148.26V140.168H103.138V148.316C103.138 148.867 102.989 149.296 102.69 149.604C102.401 149.912 101.976 150.066 101.416 150.066ZM108.314 147.14C107.679 147.14 107.105 146.986 106.592 146.678C106.078 146.361 105.672 145.936 105.374 145.404C105.075 144.863 104.926 144.256 104.926 143.584C104.926 142.912 105.066 142.31 105.346 141.778C105.635 141.246 106.022 140.826 106.508 140.518C106.993 140.21 107.534 140.056 108.132 140.056C108.738 140.056 109.275 140.21 109.742 140.518C110.218 140.817 110.591 141.227 110.862 141.75C111.142 142.263 111.282 142.847 111.282 143.5V143.808H105.92C105.957 144.275 106.083 144.695 106.298 145.068C106.522 145.432 106.811 145.721 107.166 145.936C107.53 146.141 107.926 146.244 108.356 146.244C108.71 146.244 109.051 146.183 109.378 146.062C109.714 145.931 109.998 145.759 110.232 145.544L110.876 146.23C110.484 146.538 110.078 146.767 109.658 146.916C109.238 147.065 108.79 147.14 108.314 147.14ZM105.948 143.08H110.274C110.227 142.669 110.101 142.305 109.896 141.988C109.7 141.661 109.448 141.405 109.14 141.218C108.841 141.031 108.505 140.938 108.132 140.938C107.758 140.938 107.418 141.031 107.11 141.218C106.802 141.395 106.545 141.647 106.34 141.974C106.144 142.291 106.013 142.66 105.948 143.08ZM116.093 147.112C115.458 147.112 114.884 146.958 114.371 146.65C113.867 146.333 113.465 145.908 113.167 145.376C112.868 144.835 112.719 144.237 112.719 143.584C112.719 142.921 112.868 142.324 113.167 141.792C113.465 141.26 113.867 140.84 114.371 140.532C114.884 140.215 115.458 140.056 116.093 140.056C116.597 140.056 117.077 140.149 117.535 140.336C117.992 140.523 118.389 140.784 118.725 141.12L118.067 141.834C117.824 141.563 117.53 141.353 117.185 141.204C116.839 141.055 116.489 140.98 116.135 140.98C115.687 140.98 115.281 141.097 114.917 141.33C114.562 141.563 114.277 141.876 114.063 142.268C113.848 142.66 113.741 143.099 113.741 143.584C113.741 144.069 113.848 144.508 114.063 144.9C114.277 145.292 114.562 145.605 114.917 145.838C115.281 146.071 115.687 146.188 116.135 146.188C116.489 146.188 116.839 146.113 117.185 145.964C117.53 145.805 117.824 145.595 118.067 145.334L118.725 146.048C118.389 146.384 117.992 146.645 117.535 146.832C117.077 147.019 116.597 147.112 116.093 147.112ZM122.89 147.14C122.302 147.14 121.854 147 121.546 146.72C121.248 146.431 121.098 146.015 121.098 145.474V141.008H119.684V140.168H121.098V138.292L122.12 138.054V140.168H124.08V141.008H122.12V145.208C122.12 145.572 122.195 145.833 122.344 145.992C122.503 146.151 122.76 146.23 123.114 146.23C123.292 146.23 123.45 146.216 123.59 146.188C123.73 146.16 123.894 146.113 124.08 146.048V146.958C123.894 147.023 123.698 147.07 123.492 147.098C123.287 147.126 123.086 147.14 122.89 147.14Z" fill="#1F1F1F"/>
<path d="M63.67 184.154C62.9887 184.154 62.354 184.028 61.766 183.776C61.178 183.515 60.66 183.155 60.212 182.698C59.7733 182.231 59.428 181.695 59.176 181.088C58.924 180.472 58.798 179.809 58.798 179.1C58.798 178.391 58.924 177.733 59.176 177.126C59.428 176.51 59.7733 175.973 60.212 175.516C60.66 175.049 61.178 174.69 61.766 174.438C62.354 174.177 62.9887 174.046 63.67 174.046C64.3513 174.046 64.986 174.177 65.574 174.438C66.162 174.69 66.6753 175.049 67.114 175.516C67.562 175.973 67.912 176.51 68.164 177.126C68.416 177.733 68.542 178.391 68.542 179.1C68.542 179.809 68.416 180.472 68.164 181.088C67.912 181.695 67.562 182.231 67.114 182.698C66.6753 183.155 66.162 183.515 65.574 183.776C64.986 184.028 64.3513 184.154 63.67 184.154ZM63.67 183.174C64.202 183.174 64.6967 183.071 65.154 182.866C65.6113 182.661 66.0127 182.371 66.358 181.998C66.7033 181.625 66.9693 181.191 67.156 180.696C67.352 180.201 67.45 179.669 67.45 179.1C67.45 178.521 67.352 177.989 67.156 177.504C66.9693 177.009 66.7033 176.575 66.358 176.202C66.0127 175.829 65.6113 175.539 65.154 175.334C64.6967 175.129 64.202 175.026 63.67 175.026C63.138 175.026 62.6433 175.129 62.186 175.334C61.7287 175.539 61.3273 175.829 60.982 176.202C60.6367 176.575 60.366 177.009 60.17 177.504C59.9833 177.989 59.89 178.517 59.89 179.086C59.89 179.665 59.9833 180.201 60.17 180.696C60.366 181.191 60.6367 181.625 60.982 181.998C61.3273 182.371 61.7287 182.661 62.186 182.866C62.6433 183.071 63.138 183.174 63.67 183.174ZM70.384 186.926V177.168H71.392V178.148C71.6533 177.803 71.9707 177.541 72.344 177.364C72.7267 177.177 73.1467 177.084 73.604 177.084C74.2013 177.084 74.7333 177.243 75.2 177.56C75.676 177.868 76.054 178.288 76.334 178.82C76.614 179.343 76.754 179.931 76.754 180.584C76.754 181.237 76.6093 181.83 76.32 182.362C76.04 182.894 75.6573 183.319 75.172 183.636C74.696 183.944 74.1547 184.098 73.548 184.098C73.1187 184.098 72.722 184.019 72.358 183.86C71.994 183.692 71.6767 183.454 71.406 183.146V186.926H70.384ZM73.352 183.216C73.8093 183.216 74.2153 183.104 74.57 182.88C74.934 182.647 75.2187 182.334 75.424 181.942C75.6387 181.541 75.746 181.093 75.746 180.598C75.746 180.094 75.6387 179.646 75.424 179.254C75.2187 178.862 74.934 178.554 74.57 178.33C74.2153 178.097 73.8093 177.98 73.352 177.98C72.9507 177.98 72.5773 178.064 72.232 178.232C71.896 178.391 71.6207 178.619 71.406 178.918V182.264C71.63 182.563 71.91 182.796 72.246 182.964C72.5913 183.132 72.96 183.216 73.352 183.216ZM81.6261 184.14C80.9914 184.14 80.4174 183.986 79.9041 183.678C79.3908 183.361 78.9848 182.936 78.6861 182.404C78.3874 181.863 78.2381 181.256 78.2381 180.584C78.2381 179.912 78.3781 179.31 78.6581 178.778C78.9474 178.246 79.3348 177.826 79.8201 177.518C80.3054 177.21 80.8468 177.056 81.4441 177.056C82.0508 177.056 82.5874 177.21 83.0541 177.518C83.5301 177.817 83.9034 178.227 84.1741 178.75C84.4541 179.263 84.5941 179.847 84.5941 180.5V180.808H79.2321C79.2694 181.275 79.3954 181.695 79.6101 182.068C79.8341 182.432 80.1234 182.721 80.4781 182.936C80.8421 183.141 81.2388 183.244 81.6681 183.244C82.0228 183.244 82.3634 183.183 82.6901 183.062C83.0261 182.931 83.3108 182.759 83.5441 182.544L84.1881 183.23C83.7961 183.538 83.3901 183.767 82.9701 183.916C82.5501 184.065 82.1021 184.14 81.6261 184.14ZM79.2601 180.08H83.5861C83.5394 179.669 83.4134 179.305 83.2081 178.988C83.0121 178.661 82.7601 178.405 82.4521 178.218C82.1534 178.031 81.8174 177.938 81.4441 177.938C81.0708 177.938 80.7301 178.031 80.4221 178.218C80.1141 178.395 79.8574 178.647 79.6521 178.974C79.4561 179.291 79.3254 179.66 79.2601 180.08ZM86.3391 184V177.168H87.3611V178.274C87.6224 177.863 87.9351 177.56 88.2991 177.364C88.6631 177.159 89.0737 177.056 89.5311 177.056C90.0257 177.056 90.4551 177.163 90.8191 177.378C91.1924 177.583 91.4817 177.877 91.6871 178.26C91.9017 178.633 92.0091 179.072 92.0091 179.576V184H90.9871V179.87C90.9871 179.263 90.8191 178.787 90.4831 178.442C90.1564 178.087 89.7131 177.91 89.1531 177.91C88.7797 177.91 88.4391 177.999 88.1311 178.176C87.8231 178.353 87.5664 178.615 87.3611 178.96V184H86.3391ZM97.4237 184.154C96.6583 184.154 95.949 184.019 95.2957 183.748C94.6423 183.468 94.0123 183.048 93.4057 182.488L94.0637 181.704C94.6517 182.255 95.2023 182.647 95.7157 182.88C96.2383 183.113 96.817 183.23 97.4517 183.23C97.9557 183.23 98.4037 183.146 98.7957 182.978C99.197 182.801 99.5097 182.563 99.7337 182.264C99.9577 181.965 100.07 181.625 100.07 181.242C100.07 180.747 99.9063 180.374 99.5797 180.122C99.253 179.861 98.6883 179.66 97.8857 179.52L96.3037 179.254C95.4077 179.095 94.7497 178.825 94.3297 178.442C93.919 178.05 93.7137 177.527 93.7137 176.874C93.7137 176.323 93.8537 175.838 94.1337 175.418C94.423 174.989 94.8197 174.653 95.3237 174.41C95.8277 174.167 96.411 174.046 97.0737 174.046C97.8017 174.046 98.4783 174.149 99.1037 174.354C99.729 174.55 100.345 174.863 100.952 175.292L100.392 176.132C99.8877 175.749 99.3557 175.46 98.7957 175.264C98.2357 175.059 97.6663 174.956 97.0877 174.956C96.6303 174.956 96.2243 175.035 95.8697 175.194C95.5243 175.353 95.249 175.567 95.0437 175.838C94.8477 176.109 94.7497 176.417 94.7497 176.762C94.7497 177.191 94.8943 177.527 95.1837 177.77C95.473 178.013 95.9443 178.185 96.5977 178.288L98.1657 178.554C99.211 178.741 99.967 179.044 100.434 179.464C100.91 179.875 101.148 180.449 101.148 181.186C101.148 181.755 100.984 182.264 100.658 182.712C100.34 183.16 99.9017 183.515 99.3417 183.776C98.7817 184.028 98.1423 184.154 97.4237 184.154ZM102.786 184V173.892L103.808 173.682V178.274C104.07 177.863 104.382 177.56 104.746 177.364C105.11 177.159 105.521 177.056 105.978 177.056C106.473 177.056 106.902 177.163 107.266 177.378C107.64 177.583 107.929 177.877 108.134 178.26C108.349 178.633 108.456 179.072 108.456 179.576V184H107.434V179.87C107.434 179.263 107.266 178.787 106.93 178.442C106.604 178.087 106.16 177.91 105.6 177.91C105.227 177.91 104.886 177.999 104.578 178.176C104.27 178.353 104.014 178.615 103.808 178.96V184H102.786ZM110.497 184V177.168H111.519V184H110.497ZM111.015 175.474C110.81 175.474 110.632 175.404 110.483 175.264C110.343 175.115 110.273 174.942 110.273 174.746C110.273 174.55 110.343 174.382 110.483 174.242C110.632 174.093 110.81 174.018 111.015 174.018C111.22 174.018 111.393 174.093 111.533 174.242C111.682 174.382 111.757 174.55 111.757 174.746C111.757 174.942 111.682 175.115 111.533 175.264C111.393 175.404 111.22 175.474 111.015 175.474ZM114.482 184V178.008H112.956V177.168H114.482V175.74C114.482 175.068 114.66 174.55 115.014 174.186C115.369 173.822 115.873 173.64 116.526 173.64C116.713 173.64 116.881 173.649 117.03 173.668C117.189 173.687 117.329 173.719 117.45 173.766V174.69C117.301 174.643 117.166 174.611 117.044 174.592C116.923 174.573 116.783 174.564 116.624 174.564C116.232 174.564 115.948 174.662 115.77 174.858C115.593 175.045 115.504 175.343 115.504 175.754V177.168H117.45V178.008H115.504V184H114.482ZM121.537 184.14C120.949 184.14 120.501 184 120.193 183.72C119.894 183.431 119.745 183.015 119.745 182.474V178.008H118.331V177.168H119.745V175.292L120.767 175.054V177.168H122.727V178.008H120.767V182.208C120.767 182.572 120.841 182.833 120.991 182.992C121.149 183.151 121.406 183.23 121.761 183.23C121.938 183.23 122.097 183.216 122.237 183.188C122.377 183.16 122.54 183.113 122.727 183.048V183.958C122.54 184.023 122.344 184.07 122.139 184.098C121.933 184.126 121.733 184.14 121.537 184.14ZM132.209 184.154C131.509 184.154 130.856 184.028 130.249 183.776C129.652 183.515 129.125 183.155 128.667 182.698C128.21 182.231 127.855 181.695 127.603 181.088C127.351 180.472 127.225 179.809 127.225 179.1C127.225 178.391 127.351 177.733 127.603 177.126C127.855 176.51 128.21 175.973 128.667 175.516C129.125 175.049 129.652 174.69 130.249 174.438C130.856 174.177 131.509 174.046 132.209 174.046C132.695 174.046 133.157 174.111 133.595 174.242C134.043 174.363 134.463 174.545 134.855 174.788C135.247 175.021 135.597 175.311 135.905 175.656L135.191 176.398C134.827 175.959 134.379 175.623 133.847 175.39C133.325 175.147 132.779 175.026 132.209 175.026C131.659 175.026 131.145 175.129 130.669 175.334C130.193 175.539 129.778 175.829 129.423 176.202C129.078 176.575 128.807 177.009 128.611 177.504C128.415 177.989 128.317 178.521 128.317 179.1C128.317 179.669 128.415 180.201 128.611 180.696C128.807 181.191 129.078 181.625 129.423 181.998C129.778 182.371 130.193 182.661 130.669 182.866C131.145 183.071 131.659 183.174 132.209 183.174C132.779 183.174 133.325 183.053 133.847 182.81C134.379 182.567 134.827 182.231 135.191 181.802L135.905 182.544C135.597 182.889 135.247 183.183 134.855 183.426C134.463 183.659 134.043 183.841 133.595 183.972C133.157 184.093 132.695 184.154 132.209 184.154ZM137.65 184V173.892L138.672 173.682V184H137.65ZM143.203 184.112C142.717 184.112 142.288 184.005 141.915 183.79C141.541 183.575 141.247 183.277 141.033 182.894C140.827 182.511 140.725 182.073 140.725 181.578V177.168H141.761V181.284C141.761 181.891 141.924 182.371 142.251 182.726C142.577 183.081 143.021 183.258 143.581 183.258C143.963 183.258 144.304 183.169 144.603 182.992C144.911 182.815 145.167 182.558 145.373 182.222V177.168H146.395V184H145.373V182.894C145.111 183.295 144.799 183.599 144.435 183.804C144.08 184.009 143.669 184.112 143.203 184.112ZM150.605 184.14C150.045 184.14 149.527 184.056 149.051 183.888C148.575 183.711 148.169 183.459 147.833 183.132L148.379 182.46C148.79 182.759 149.168 182.978 149.513 183.118C149.859 183.249 150.213 183.314 150.577 183.314C151.072 183.314 151.483 183.197 151.809 182.964C152.136 182.731 152.299 182.432 152.299 182.068C152.299 181.788 152.201 181.569 152.005 181.41C151.819 181.251 151.506 181.13 151.067 181.046L149.947 180.85C149.285 180.729 148.795 180.523 148.477 180.234C148.169 179.945 148.015 179.553 148.015 179.058C148.015 178.666 148.118 178.321 148.323 178.022C148.538 177.723 148.832 177.49 149.205 177.322C149.579 177.145 150.003 177.056 150.479 177.056C150.946 177.056 151.389 177.126 151.809 177.266C152.229 177.397 152.654 177.611 153.083 177.91L152.579 178.624C152.225 178.372 151.87 178.19 151.515 178.078C151.161 177.957 150.801 177.896 150.437 177.896C149.989 177.896 149.63 177.994 149.359 178.19C149.089 178.386 148.953 178.652 148.953 178.988C148.953 179.268 149.037 179.483 149.205 179.632C149.383 179.781 149.691 179.893 150.129 179.968L151.277 180.178C151.968 180.299 152.472 180.509 152.789 180.808C153.107 181.107 153.265 181.508 153.265 182.012C153.265 182.413 153.149 182.777 152.915 183.104C152.682 183.421 152.365 183.673 151.963 183.86C151.562 184.047 151.109 184.14 150.605 184.14ZM157.289 184.14C156.701 184.14 156.253 184 155.945 183.72C155.646 183.431 155.497 183.015 155.497 182.474V178.008H154.083V177.168H155.497V175.292L156.519 175.054V177.168H158.479V178.008H156.519V182.208C156.519 182.572 156.593 182.833 156.743 182.992C156.901 183.151 157.158 183.23 157.513 183.23C157.69 183.23 157.849 183.216 157.989 183.188C158.129 183.16 158.292 183.113 158.479 183.048V183.958C158.292 184.023 158.096 184.07 157.891 184.098C157.685 184.126 157.485 184.14 157.289 184.14ZM162.919 184.14C162.284 184.14 161.71 183.986 161.197 183.678C160.684 183.361 160.278 182.936 159.979 182.404C159.68 181.863 159.531 181.256 159.531 180.584C159.531 179.912 159.671 179.31 159.951 178.778C160.24 178.246 160.628 177.826 161.113 177.518C161.598 177.21 162.14 177.056 162.737 177.056C163.344 177.056 163.88 177.21 164.347 177.518C164.823 177.817 165.196 178.227 165.467 178.75C165.747 179.263 165.887 179.847 165.887 180.5V180.808H160.525C160.562 181.275 160.688 181.695 160.903 182.068C161.127 182.432 161.416 182.721 161.771 182.936C162.135 183.141 162.532 183.244 162.961 183.244C163.316 183.244 163.656 183.183 163.983 183.062C164.319 182.931 164.604 182.759 164.837 182.544L165.481 183.23C165.089 183.538 164.683 183.767 164.263 183.916C163.843 184.065 163.395 184.14 162.919 184.14ZM160.553 180.08H164.879C164.832 179.669 164.706 179.305 164.501 178.988C164.305 178.661 164.053 178.405 163.745 178.218C163.446 178.031 163.11 177.938 162.737 177.938C162.364 177.938 162.023 178.031 161.715 178.218C161.407 178.395 161.15 178.647 160.945 178.974C160.749 179.291 160.618 179.66 160.553 180.08ZM167.632 184V177.168H168.654V178.568C168.831 178.092 169.083 177.723 169.41 177.462C169.746 177.191 170.129 177.056 170.558 177.056C170.679 177.056 170.791 177.065 170.894 177.084C170.997 177.093 171.099 177.117 171.202 177.154V178.078C171.09 178.041 170.969 178.013 170.838 177.994C170.717 177.966 170.6 177.952 170.488 177.952C170.068 177.952 169.699 178.073 169.382 178.316C169.074 178.559 168.831 178.899 168.654 179.338V184H167.632Z" fill="#1F1F1F"/>
<path d="M58.126 221L62.004 211.2H63.292L67.114 221H65.952L64.79 217.92H60.422L59.26 221H58.126ZM60.758 217.066H64.468L62.606 212.18L60.758 217.066ZM69.3836 221L67.2696 211.2H68.3616L70.0276 219.306L72.4496 211.2H73.4996L75.9216 219.278L77.6016 211.2H78.6516L76.5376 221H75.4456L72.9676 212.684L70.4756 221H69.3836ZM83.5194 221.154C82.754 221.154 82.0447 221.019 81.3914 220.748C80.738 220.468 80.108 220.048 79.5014 219.488L80.1594 218.704C80.7474 219.255 81.298 219.647 81.8114 219.88C82.334 220.113 82.9127 220.23 83.5474 220.23C84.0514 220.23 84.4994 220.146 84.8914 219.978C85.2927 219.801 85.6054 219.563 85.8294 219.264C86.0534 218.965 86.1654 218.625 86.1654 218.242C86.1654 217.747 86.002 217.374 85.6754 217.122C85.3487 216.861 84.784 216.66 83.9814 216.52L82.3994 216.254C81.5034 216.095 80.8454 215.825 80.4254 215.442C80.0147 215.05 79.8094 214.527 79.8094 213.874C79.8094 213.323 79.9494 212.838 80.2294 212.418C80.5187 211.989 80.9154 211.653 81.4194 211.41C81.9234 211.167 82.5067 211.046 83.1694 211.046C83.8974 211.046 84.574 211.149 85.1994 211.354C85.8247 211.55 86.4407 211.863 87.0474 212.292L86.4874 213.132C85.9834 212.749 85.4514 212.46 84.8914 212.264C84.3314 212.059 83.762 211.956 83.1834 211.956C82.726 211.956 82.32 212.035 81.9654 212.194C81.62 212.353 81.3447 212.567 81.1394 212.838C80.9434 213.109 80.8454 213.417 80.8454 213.762C80.8454 214.191 80.99 214.527 81.2794 214.77C81.5687 215.013 82.04 215.185 82.6934 215.288L84.2614 215.554C85.3067 215.741 86.0627 216.044 86.5294 216.464C87.0054 216.875 87.2434 217.449 87.2434 218.186C87.2434 218.755 87.08 219.264 86.7534 219.712C86.436 220.16 85.9974 220.515 85.4374 220.776C84.8774 221.028 84.238 221.154 83.5194 221.154Z" fill="#1F1F1F"/>
<path d="M59.246 258V248.2H63.292C63.9267 248.2 64.4773 248.321 64.944 248.564C65.4107 248.797 65.77 249.133 66.022 249.572C66.2833 250.001 66.414 250.51 66.414 251.098C66.414 251.677 66.2833 252.185 66.022 252.624C65.77 253.063 65.4107 253.403 64.944 253.646C64.4773 253.879 63.9267 253.996 63.292 253.996H60.324V258H59.246ZM60.324 253.072H63.166C63.8473 253.072 64.3793 252.895 64.762 252.54C65.1447 252.185 65.336 251.705 65.336 251.098C65.336 250.491 65.1447 250.015 64.762 249.67C64.3793 249.325 63.8473 249.152 63.166 249.152H60.324V253.072ZM68.1418 258V251.168H69.1638V252.568C69.3411 252.092 69.5931 251.723 69.9198 251.462C70.2558 251.191 70.6385 251.056 71.0678 251.056C71.1891 251.056 71.3011 251.065 71.4038 251.084C71.5065 251.093 71.6091 251.117 71.7118 251.154V252.078C71.5998 252.041 71.4785 252.013 71.3478 251.994C71.2265 251.966 71.1098 251.952 70.9978 251.952C70.5778 251.952 70.2091 252.073 69.8918 252.316C69.5838 252.559 69.3411 252.899 69.1638 253.338V258H68.1418ZM75.6638 258.112C75.0292 258.112 74.4598 257.958 73.9558 257.65C73.4518 257.342 73.0552 256.922 72.7658 256.39C72.4765 255.858 72.3318 255.256 72.3318 254.584C72.3318 253.912 72.4765 253.31 72.7658 252.778C73.0552 252.246 73.4518 251.826 73.9558 251.518C74.4598 251.21 75.0292 251.056 75.6638 251.056C76.2892 251.056 76.8492 251.21 77.3438 251.518C77.8478 251.826 78.2445 252.246 78.5338 252.778C78.8232 253.31 78.9678 253.912 78.9678 254.584C78.9678 255.256 78.8232 255.858 78.5338 256.39C78.2445 256.922 77.8478 257.342 77.3438 257.65C76.8492 257.958 76.2892 258.112 75.6638 258.112ZM75.6498 257.216C76.0978 257.216 76.4945 257.104 76.8398 256.88C77.1852 256.647 77.4558 256.329 77.6518 255.928C77.8572 255.527 77.9598 255.079 77.9598 254.584C77.9598 254.08 77.8572 253.632 77.6518 253.24C77.4558 252.839 77.1852 252.526 76.8398 252.302C76.4945 252.069 76.0978 251.952 75.6498 251.952C75.2018 251.952 74.8052 252.069 74.4598 252.302C74.1145 252.526 73.8392 252.839 73.6338 253.24C73.4378 253.632 73.3398 254.08 73.3398 254.584C73.3398 255.079 73.4378 255.527 73.6338 255.928C73.8392 256.329 74.1145 256.647 74.4598 256.88C74.8052 257.104 75.2018 257.216 75.6498 257.216ZM83.6029 258.098C83.0149 258.098 82.4829 257.944 82.0069 257.636C81.5309 257.319 81.1529 256.899 80.8729 256.376C80.5929 255.844 80.4529 255.251 80.4529 254.598C80.4529 253.935 80.5929 253.343 80.8729 252.82C81.1623 252.288 81.5496 251.868 82.0349 251.56C82.5203 251.243 83.0616 251.084 83.6589 251.084C84.0789 251.084 84.4709 251.168 84.8349 251.336C85.1989 251.495 85.5163 251.728 85.7869 252.036V247.892L86.8089 247.682V258H85.7869V257.09C85.5256 257.417 85.2083 257.669 84.8349 257.846C84.4616 258.014 84.0509 258.098 83.6029 258.098ZM83.8549 257.202C84.2563 257.202 84.6249 257.123 84.9609 256.964C85.2969 256.805 85.5723 256.581 85.7869 256.292V252.904C85.5629 252.615 85.2783 252.391 84.9329 252.232C84.5969 252.064 84.2376 251.98 83.8549 251.98C83.3976 251.98 82.9869 252.092 82.6229 252.316C82.2683 252.54 81.9836 252.848 81.7689 253.24C81.5636 253.632 81.4609 254.08 81.4609 254.584C81.4609 255.079 81.5636 255.527 81.7689 255.928C81.9836 256.32 82.2683 256.633 82.6229 256.866C82.9869 257.09 83.3976 257.202 83.8549 257.202ZM91.3454 258.112C90.86 258.112 90.4307 258.005 90.0574 257.79C89.684 257.575 89.39 257.277 89.1754 256.894C88.97 256.511 88.8674 256.073 88.8674 255.578V251.168H89.9034V255.284C89.9034 255.891 90.0667 256.371 90.3934 256.726C90.72 257.081 91.1634 257.258 91.7234 257.258C92.106 257.258 92.4467 257.169 92.7454 256.992C93.0534 256.815 93.31 256.558 93.5154 256.222V251.168H94.5374V258H93.5154V256.894C93.254 257.295 92.9414 257.599 92.5774 257.804C92.2227 258.009 91.812 258.112 91.3454 258.112ZM99.7 258.112C99.0653 258.112 98.4913 257.958 97.978 257.65C97.474 257.333 97.0727 256.908 96.774 256.376C96.4753 255.835 96.326 255.237 96.326 254.584C96.326 253.921 96.4753 253.324 96.774 252.792C97.0727 252.26 97.474 251.84 97.978 251.532C98.4913 251.215 99.0653 251.056 99.7 251.056C100.204 251.056 100.685 251.149 101.142 251.336C101.599 251.523 101.996 251.784 102.332 252.12L101.674 252.834C101.431 252.563 101.137 252.353 100.792 252.204C100.447 252.055 100.097 251.98 99.742 251.98C99.294 251.98 98.888 252.097 98.524 252.33C98.1693 252.563 97.8847 252.876 97.67 253.268C97.4553 253.66 97.348 254.099 97.348 254.584C97.348 255.069 97.4553 255.508 97.67 255.9C97.8847 256.292 98.1693 256.605 98.524 256.838C98.888 257.071 99.294 257.188 99.742 257.188C100.097 257.188 100.447 257.113 100.792 256.964C101.137 256.805 101.431 256.595 101.674 256.334L102.332 257.048C101.996 257.384 101.599 257.645 101.142 257.832C100.685 258.019 100.204 258.112 99.7 258.112ZM106.498 258.14C105.91 258.14 105.462 258 105.154 257.72C104.855 257.431 104.706 257.015 104.706 256.474V252.008H103.292V251.168H104.706V249.292L105.728 249.054V251.168H107.688V252.008H105.728V256.208C105.728 256.572 105.802 256.833 105.952 256.992C106.11 257.151 106.367 257.23 106.722 257.23C106.899 257.23 107.058 257.216 107.198 257.188C107.338 257.16 107.501 257.113 107.688 257.048V257.958C107.501 258.023 107.305 258.07 107.1 258.098C106.894 258.126 106.694 258.14 106.498 258.14ZM109.171 258V251.168H110.193V258H109.171ZM109.689 249.474C109.483 249.474 109.306 249.404 109.157 249.264C109.017 249.115 108.947 248.942 108.947 248.746C108.947 248.55 109.017 248.382 109.157 248.242C109.306 248.093 109.483 248.018 109.689 248.018C109.894 248.018 110.067 248.093 110.207 248.242C110.356 248.382 110.431 248.55 110.431 248.746C110.431 248.942 110.356 249.115 110.207 249.264C110.067 249.404 109.894 249.474 109.689 249.474ZM115.312 258.112C114.678 258.112 114.108 257.958 113.604 257.65C113.1 257.342 112.704 256.922 112.414 256.39C112.125 255.858 111.98 255.256 111.98 254.584C111.98 253.912 112.125 253.31 112.414 252.778C112.704 252.246 113.1 251.826 113.604 251.518C114.108 251.21 114.678 251.056 115.312 251.056C115.938 251.056 116.498 251.21 116.992 251.518C117.496 251.826 117.893 252.246 118.182 252.778C118.472 253.31 118.616 253.912 118.616 254.584C118.616 255.256 118.472 255.858 118.182 256.39C117.893 256.922 117.496 257.342 116.992 257.65C116.498 257.958 115.938 258.112 115.312 258.112ZM115.298 257.216C115.746 257.216 116.143 257.104 116.488 256.88C116.834 256.647 117.104 256.329 117.3 255.928C117.506 255.527 117.608 255.079 117.608 254.584C117.608 254.08 117.506 253.632 117.3 253.24C117.104 252.839 116.834 252.526 116.488 252.302C116.143 252.069 115.746 251.952 115.298 251.952C114.85 251.952 114.454 252.069 114.108 252.302C113.763 252.526 113.488 252.839 113.282 253.24C113.086 253.632 112.988 254.08 112.988 254.584C112.988 255.079 113.086 255.527 113.282 255.928C113.488 256.329 113.763 256.647 114.108 256.88C114.454 257.104 114.85 257.216 115.298 257.216ZM120.409 258V251.168H121.431V252.274C121.693 251.863 122.005 251.56 122.369 251.364C122.733 251.159 123.144 251.056 123.601 251.056C124.096 251.056 124.525 251.163 124.889 251.378C125.263 251.583 125.552 251.877 125.757 252.26C125.972 252.633 126.079 253.072 126.079 253.576V258H125.057V253.87C125.057 253.263 124.889 252.787 124.553 252.442C124.227 252.087 123.783 251.91 123.223 251.91C122.85 251.91 122.509 251.999 122.201 252.176C121.893 252.353 121.637 252.615 121.431 252.96V258H120.409ZM130.478 258L134.356 248.2H135.644L139.466 258H138.304L137.142 254.92H132.774L131.612 258H130.478ZM133.11 254.066H136.82L134.958 249.18L133.11 254.066ZM140.644 258V251.168H141.666V252.274C141.927 251.863 142.24 251.56 142.604 251.364C142.968 251.159 143.378 251.056 143.836 251.056C144.33 251.056 144.76 251.163 145.124 251.378C145.497 251.583 145.786 251.877 145.992 252.26C146.206 252.633 146.314 253.072 146.314 253.576V258H145.292V253.87C145.292 253.263 145.124 252.787 144.788 252.442C144.461 252.087 144.018 251.91 143.458 251.91C143.084 251.91 142.744 251.999 142.436 252.176C142.128 252.353 141.871 252.615 141.666 252.96V258H140.644ZM150.482 258.14C149.922 258.14 149.404 258.056 148.928 257.888C148.452 257.711 148.046 257.459 147.71 257.132L148.256 256.46C148.667 256.759 149.045 256.978 149.39 257.118C149.736 257.249 150.09 257.314 150.454 257.314C150.949 257.314 151.36 257.197 151.686 256.964C152.013 256.731 152.176 256.432 152.176 256.068C152.176 255.788 152.078 255.569 151.882 255.41C151.696 255.251 151.383 255.13 150.944 255.046L149.824 254.85C149.162 254.729 148.672 254.523 148.354 254.234C148.046 253.945 147.892 253.553 147.892 253.058C147.892 252.666 147.995 252.321 148.2 252.022C148.415 251.723 148.709 251.49 149.082 251.322C149.456 251.145 149.88 251.056 150.356 251.056C150.823 251.056 151.266 251.126 151.686 251.266C152.106 251.397 152.531 251.611 152.96 251.91L152.456 252.624C152.102 252.372 151.747 252.19 151.392 252.078C151.038 251.957 150.678 251.896 150.314 251.896C149.866 251.896 149.507 251.994 149.236 252.19C148.966 252.386 148.83 252.652 148.83 252.988C148.83 253.268 148.914 253.483 149.082 253.632C149.26 253.781 149.568 253.893 150.006 253.968L151.154 254.178C151.845 254.299 152.349 254.509 152.666 254.808C152.984 255.107 153.142 255.508 153.142 256.012C153.142 256.413 153.026 256.777 152.792 257.104C152.559 257.421 152.242 257.673 151.84 257.86C151.439 258.047 150.986 258.14 150.482 258.14ZM154.684 258V251.168H155.706V258H154.684ZM155.202 249.474C154.997 249.474 154.82 249.404 154.67 249.264C154.53 249.115 154.46 248.942 154.46 248.746C154.46 248.55 154.53 248.382 154.67 248.242C154.82 248.093 154.997 248.018 155.202 248.018C155.408 248.018 155.58 248.093 155.72 248.242C155.87 248.382 155.944 248.55 155.944 248.746C155.944 248.942 155.87 249.115 155.72 249.264C155.58 249.404 155.408 249.474 155.202 249.474ZM157.802 258V247.99L158.824 247.78V252.106C159.085 251.779 159.403 251.527 159.776 251.35C160.149 251.173 160.565 251.084 161.022 251.084C161.619 251.084 162.151 251.243 162.618 251.56C163.094 251.868 163.472 252.288 163.752 252.82C164.032 253.343 164.172 253.931 164.172 254.584C164.172 255.237 164.027 255.83 163.738 256.362C163.458 256.894 163.075 257.319 162.59 257.636C162.114 257.944 161.573 258.098 160.966 258.098C160.537 258.098 160.135 258.014 159.762 257.846C159.398 257.669 159.081 257.421 158.81 257.104V258H157.802ZM160.77 257.216C161.227 257.216 161.633 257.104 161.988 256.88C162.352 256.647 162.637 256.334 162.842 255.942C163.057 255.541 163.164 255.093 163.164 254.598C163.164 254.094 163.057 253.646 162.842 253.254C162.637 252.862 162.352 252.554 161.988 252.33C161.633 252.097 161.227 251.98 160.77 251.98C160.369 251.98 159.995 252.064 159.65 252.232C159.314 252.391 159.039 252.619 158.824 252.918V256.264C159.048 256.563 159.328 256.796 159.664 256.964C160.009 257.132 160.378 257.216 160.77 257.216ZM165.964 258V247.892L166.986 247.682V258H165.964ZM172.161 258.14C171.527 258.14 170.953 257.986 170.439 257.678C169.926 257.361 169.52 256.936 169.221 256.404C168.923 255.863 168.773 255.256 168.773 254.584C168.773 253.912 168.913 253.31 169.193 252.778C169.483 252.246 169.87 251.826 170.355 251.518C170.841 251.21 171.382 251.056 171.979 251.056C172.586 251.056 173.123 251.21 173.589 251.518C174.065 251.817 174.439 252.227 174.709 252.75C174.989 253.263 175.129 253.847 175.129 254.5V254.808H169.767C169.805 255.275 169.931 255.695 170.145 256.068C170.369 256.432 170.659 256.721 171.013 256.936C171.377 257.141 171.774 257.244 172.203 257.244C172.558 257.244 172.899 257.183 173.225 257.062C173.561 256.931 173.846 256.759 174.079 256.544L174.723 257.23C174.331 257.538 173.925 257.767 173.505 257.916C173.085 258.065 172.637 258.14 172.161 258.14ZM169.795 254.08H174.121C174.075 253.669 173.949 253.305 173.743 252.988C173.547 252.661 173.295 252.405 172.987 252.218C172.689 252.031 172.353 251.938 171.979 251.938C171.606 251.938 171.265 252.031 170.957 252.218C170.649 252.395 170.393 252.647 170.187 252.974C169.991 253.291 169.861 253.66 169.795 254.08Z" fill="#1F1F1F"/>
<path d="M58.126 295L62.004 285.2H63.292L67.114 295H65.952L64.79 291.92H60.422L59.26 295H58.126ZM60.758 291.066H64.468L62.606 286.18L60.758 291.066ZM68.0213 295V294.188L71.9553 289.092L68.0633 289.106V288.168H73.2013V288.966L69.2533 294.09L73.2573 294.076V295H68.0213ZM77.359 295.112C76.8737 295.112 76.4444 295.005 76.071 294.79C75.6977 294.575 75.4037 294.277 75.189 293.894C74.9837 293.511 74.881 293.073 74.881 292.578V288.168H75.917V292.284C75.917 292.891 76.0804 293.371 76.407 293.726C76.7337 294.081 77.177 294.258 77.737 294.258C78.1197 294.258 78.4604 294.169 78.759 293.992C79.067 293.815 79.3237 293.558 79.529 293.222V288.168H80.551V295H79.529V293.894C79.2677 294.295 78.955 294.599 78.591 294.804C78.2364 295.009 77.8257 295.112 77.359 295.112ZM82.6477 295V288.168H83.6697V289.568C83.847 289.092 84.099 288.723 84.4257 288.462C84.7617 288.191 85.1443 288.056 85.5737 288.056C85.695 288.056 85.807 288.065 85.9097 288.084C86.0123 288.093 86.115 288.117 86.2177 288.154V289.078C86.1057 289.041 85.9843 289.013 85.8537 288.994C85.7323 288.966 85.6157 288.952 85.5037 288.952C85.0837 288.952 84.715 289.073 84.3977 289.316C84.0897 289.559 83.847 289.899 83.6697 290.338V295H82.6477ZM90.2257 295.14C89.591 295.14 89.017 294.986 88.5037 294.678C87.9904 294.361 87.5844 293.936 87.2857 293.404C86.987 292.863 86.8377 292.256 86.8377 291.584C86.8377 290.912 86.9777 290.31 87.2577 289.778C87.547 289.246 87.9344 288.826 88.4197 288.518C88.905 288.21 89.4464 288.056 90.0437 288.056C90.6504 288.056 91.187 288.21 91.6537 288.518C92.1297 288.817 92.503 289.227 92.7737 289.75C93.0537 290.263 93.1937 290.847 93.1937 291.5V291.808H87.8317C87.869 292.275 87.995 292.695 88.2097 293.068C88.4337 293.432 88.723 293.721 89.0777 293.936C89.4417 294.141 89.8384 294.244 90.2677 294.244C90.6224 294.244 90.963 294.183 91.2897 294.062C91.6257 293.931 91.9104 293.759 92.1437 293.544L92.7877 294.23C92.3957 294.538 91.9897 294.767 91.5697 294.916C91.1497 295.065 90.7017 295.14 90.2257 295.14ZM87.8597 291.08H92.1857C92.139 290.669 92.013 290.305 91.8077 289.988C91.6117 289.661 91.3597 289.405 91.0517 289.218C90.753 289.031 90.417 288.938 90.0437 288.938C89.6704 288.938 89.3297 289.031 89.0217 289.218C88.7137 289.395 88.457 289.647 88.2517 289.974C88.0557 290.291 87.925 290.66 87.8597 291.08Z" fill="#1F1F1F"/>
</g>
</g>
<defs>
<filter id="filter0_d_121_25673" x="26" y="42" width="248" height="287" filterUnits="userSpaceOnUse" color-interpolation-filters="sRGB">
<feFlood flood-opacity="0" result="BackgroundImageFix"/>
<feColorMatrix in="SourceAlpha" type="matrix" values="0 0 0 0 0 0 0 0 0 0 0 0 0 0 0 0 0 0 127 0" result="hardAlpha"/>
<feOffset dy="4"/>
<feGaussianBlur stdDeviation="4"/>
<feColorMatrix type="matrix" values="0 0 0 0 0 0 0 0 0 0 0 0 0 0 0 0 0 0 0.12 0"/>
<feBlend mode="normal" in2="BackgroundImageFix" result="effect1_dropShadow_121_25673"/>
<feBlend mode="normal" in="SourceGraphic" in2="effect1_dropShadow_121_25673" result="shape"/>
</filter>
<clipPath id="clip0_121_25673">
<rect width="300" height="325" fill="white"/>
</clipPath>
</defs>
</svg>
