<svg width="198" height="71" viewBox="0 0 198 71" fill="none" xmlns="http://www.w3.org/2000/svg">
<rect width="198" height="71" fill="white"/>
<path d="M18 17.5H180C183.038 17.5 185.5 19.9624 185.5 23V48C185.5 51.0376 183.038 53.5 180 53.5H18C14.9624 53.5 12.5 51.0376 12.5 48V23C12.5 19.9624 14.9624 17.5 18 17.5Z" fill="white"/>
<path d="M18 17.5H180C183.038 17.5 185.5 19.9624 185.5 23V48C185.5 51.0376 183.038 53.5 180 53.5H18C14.9624 53.5 12.5 51.0376 12.5 48V23C12.5 19.9624 14.9624 17.5 18 17.5Z" stroke="#C7C7C7"/>
<path d="M29.75 40.112C29.5447 40.112 29.3673 40.0373 29.218 39.888C29.078 39.7387 29.008 39.5613 29.008 39.356C29.008 39.1413 29.078 38.964 29.218 38.824C29.3673 38.6747 29.5447 38.6 29.75 38.6C29.9553 38.6 30.128 38.6747 30.268 38.824C30.4173 38.964 30.492 39.1413 30.492 39.356C30.492 39.5613 30.4173 39.7387 30.268 39.888C30.128 40.0373 29.9553 40.112 29.75 40.112ZM33.25 40.112C33.0447 40.112 32.8673 40.0373 32.718 39.888C32.578 39.7387 32.508 39.5613 32.508 39.356C32.508 39.1413 32.578 38.964 32.718 38.824C32.8673 38.6747 33.0447 38.6 33.25 38.6C33.4553 38.6 33.628 38.6747 33.768 38.824C33.9173 38.964 33.992 39.1413 33.992 39.356C33.992 39.5613 33.9173 39.7387 33.768 39.888C33.628 40.0373 33.4553 40.112 33.25 40.112ZM36.75 40.112C36.5447 40.112 36.3673 40.0373 36.218 39.888C36.078 39.7387 36.008 39.5613 36.008 39.356C36.008 39.1413 36.078 38.964 36.218 38.824C36.3673 38.6747 36.5447 38.6 36.75 38.6C36.9553 38.6 37.128 38.6747 37.268 38.824C37.4173 38.964 37.492 39.1413 37.492 39.356C37.492 39.5613 37.4173 39.7387 37.268 39.888C37.128 40.0373 36.9553 40.112 36.75 40.112ZM39.584 40V34.008H38.058V33.168H39.584V31.74C39.584 31.068 39.7613 30.55 40.116 30.186C40.4707 29.822 40.9747 29.64 41.628 29.64C41.8147 29.64 41.9827 29.6493 42.132 29.668C42.2907 29.6867 42.4307 29.7193 42.552 29.766V30.69C42.4027 30.6433 42.2673 30.6107 42.146 30.592C42.0247 30.5733 41.8847 30.564 41.726 30.564C41.334 30.564 41.0493 30.662 40.872 30.858C40.6947 31.0447 40.606 31.3433 40.606 31.754V33.168H42.552V34.008H40.606V40H39.584ZM46.6905 40.14C46.0559 40.14 45.4819 39.986 44.9685 39.678C44.4552 39.3607 44.0492 38.936 43.7505 38.404C43.4519 37.8627 43.3025 37.256 43.3025 36.584C43.3025 35.912 43.4425 35.31 43.7225 34.778C44.0119 34.246 44.3992 33.826 44.8845 33.518C45.3699 33.21 45.9112 33.056 46.5085 33.056C47.1152 33.056 47.6519 33.21 48.1185 33.518C48.5945 33.8167 48.9679 34.2273 49.2385 34.75C49.5185 35.2633 49.6585 35.8467 49.6585 36.5V36.808H44.2965C44.3339 37.2747 44.4599 37.6947 44.6745 38.068C44.8985 38.432 45.1879 38.7213 45.5425 38.936C45.9065 39.1413 46.3032 39.244 46.7325 39.244C47.0872 39.244 47.4279 39.1833 47.7545 39.062C48.0905 38.9313 48.3752 38.7587 48.6085 38.544L49.2525 39.23C48.8605 39.538 48.4545 39.7667 48.0345 39.916C47.6145 40.0653 47.1665 40.14 46.6905 40.14ZM44.3245 36.08H48.6505C48.6039 35.6693 48.4779 35.3053 48.2725 34.988C48.0765 34.6613 47.8245 34.4047 47.5165 34.218C47.2179 34.0313 46.8819 33.938 46.5085 33.938C46.1352 33.938 45.7945 34.0313 45.4865 34.218C45.1785 34.3953 44.9219 34.6473 44.7165 34.974C44.5205 35.2913 44.3899 35.66 44.3245 36.08ZM54.2455 40.098C53.6575 40.098 53.1255 39.944 52.6495 39.636C52.1735 39.3187 51.7955 38.8987 51.5155 38.376C51.2355 37.844 51.0955 37.2513 51.0955 36.598C51.0955 35.9353 51.2355 35.3427 51.5155 34.82C51.8048 34.288 52.1922 33.868 52.6775 33.56C53.1628 33.2427 53.7042 33.084 54.3015 33.084C54.7215 33.084 55.1135 33.168 55.4775 33.336C55.8415 33.4947 56.1588 33.728 56.4295 34.036V29.892L57.4515 29.682V40H56.4295V39.09C56.1682 39.4167 55.8508 39.6687 55.4775 39.846C55.1042 40.014 54.6935 40.098 54.2455 40.098ZM54.4975 39.202C54.8988 39.202 55.2675 39.1227 55.6035 38.964C55.9395 38.8053 56.2148 38.5813 56.4295 38.292V34.904C56.2055 34.6147 55.9208 34.3907 55.5755 34.232C55.2395 34.064 54.8802 33.98 54.4975 33.98C54.0402 33.98 53.6295 34.092 53.2655 34.316C52.9108 34.54 52.6262 34.848 52.4115 35.24C52.2062 35.632 52.1035 36.08 52.1035 36.584C52.1035 37.0787 52.2062 37.5267 52.4115 37.928C52.6262 38.32 52.9108 38.6327 53.2655 38.866C53.6295 39.09 54.0402 39.202 54.4975 39.202ZM62.576 40.112C61.9413 40.112 61.372 39.958 60.868 39.65C60.364 39.342 59.9673 38.922 59.678 38.39C59.3886 37.858 59.244 37.256 59.244 36.584C59.244 35.912 59.3886 35.31 59.678 34.778C59.9673 34.246 60.364 33.826 60.868 33.518C61.372 33.21 61.9413 33.056 62.576 33.056C63.2013 33.056 63.7613 33.21 64.256 33.518C64.76 33.826 65.1566 34.246 65.446 34.778C65.7353 35.31 65.88 35.912 65.88 36.584C65.88 37.256 65.7353 37.858 65.446 38.39C65.1566 38.922 64.76 39.342 64.256 39.65C63.7613 39.958 63.2013 40.112 62.576 40.112ZM62.562 39.216C63.01 39.216 63.4066 39.104 63.752 38.88C64.0973 38.6467 64.368 38.3293 64.564 37.928C64.7693 37.5267 64.872 37.0787 64.872 36.584C64.872 36.08 64.7693 35.632 64.564 35.24C64.368 34.8387 64.0973 34.526 63.752 34.302C63.4066 34.0687 63.01 33.952 62.562 33.952C62.114 33.952 61.7173 34.0687 61.372 34.302C61.0266 34.526 60.7513 34.8387 60.546 35.24C60.35 35.632 60.252 36.08 60.252 36.584C60.252 37.0787 60.35 37.5267 60.546 37.928C60.7513 38.3293 61.0266 38.6467 61.372 38.88C61.7173 39.104 62.114 39.216 62.562 39.216ZM67.673 40V33.168H68.695V34.568C68.8724 34.092 69.1244 33.7233 69.451 33.462C69.787 33.1913 70.1697 33.056 70.599 33.056C70.7204 33.056 70.8324 33.0653 70.935 33.084C71.0377 33.0933 71.1404 33.1167 71.243 33.154V34.078C71.131 34.0407 71.0097 34.0127 70.879 33.994C70.7577 33.966 70.641 33.952 70.529 33.952C70.109 33.952 69.7404 34.0733 69.423 34.316C69.115 34.5587 68.8724 34.8993 68.695 35.338V40H67.673ZM74.4218 40.126C73.9365 40.126 73.5071 40.0373 73.1338 39.86C72.7605 39.6827 72.4665 39.44 72.2518 39.132C72.0465 38.8147 71.9438 38.4507 71.9438 38.04C71.9438 37.6293 72.0511 37.2747 72.2658 36.976C72.4805 36.668 72.7791 36.43 73.1618 36.262C73.5445 36.094 73.9925 36.01 74.5058 36.01C74.8978 36.01 75.2665 36.052 75.6118 36.136C75.9665 36.22 76.2931 36.3553 76.5918 36.542V35.604C76.5918 35.044 76.4425 34.624 76.1438 34.344C75.8451 34.0547 75.4065 33.91 74.8278 33.91C74.5105 33.91 74.1838 33.9567 73.8478 34.05C73.5211 34.1433 73.1571 34.2927 72.7558 34.498L72.3778 33.714C73.2925 33.2753 74.1511 33.056 74.9538 33.056C75.8031 33.056 76.4565 33.266 76.9138 33.686C77.3711 34.0967 77.5998 34.6893 77.5998 35.464V40H76.5918V39.202C76.2931 39.51 75.9618 39.7433 75.5978 39.902C75.2338 40.0513 74.8418 40.126 74.4218 40.126ZM72.9238 38.012C72.9238 38.4133 73.0778 38.7353 73.3858 38.978C73.7031 39.2207 74.1185 39.342 74.6318 39.342C75.0145 39.342 75.3645 39.2767 75.6818 39.146C76.0085 39.0153 76.3118 38.8193 76.5918 38.558V37.242C76.3025 37.074 76.0038 36.9527 75.6958 36.878C75.3878 36.794 75.0425 36.752 74.6598 36.752C74.1371 36.752 73.7171 36.8687 73.3998 37.102C73.0825 37.326 72.9238 37.6293 72.9238 38.012ZM79.481 36.5V35.618H84.143V36.5H79.481ZM86.048 40V33.168H87.07V34.568C87.2474 34.092 87.4994 33.7233 87.826 33.462C88.162 33.1913 88.5447 33.056 88.974 33.056C89.0954 33.056 89.2074 33.0653 89.31 33.084C89.4127 33.0933 89.5154 33.1167 89.618 33.154V34.078C89.506 34.0407 89.3847 34.0127 89.254 33.994C89.1327 33.966 89.016 33.952 88.904 33.952C88.484 33.952 88.1154 34.0733 87.798 34.316C87.49 34.5587 87.2474 34.8993 87.07 35.338V40H86.048ZM93.6261 40.14C92.9914 40.14 92.4174 39.986 91.9041 39.678C91.3908 39.3607 90.9848 38.936 90.6861 38.404C90.3874 37.8627 90.2381 37.256 90.2381 36.584C90.2381 35.912 90.3781 35.31 90.6581 34.778C90.9474 34.246 91.3348 33.826 91.8201 33.518C92.3054 33.21 92.8468 33.056 93.4441 33.056C94.0508 33.056 94.5874 33.21 95.0541 33.518C95.5301 33.8167 95.9034 34.2273 96.1741 34.75C96.4541 35.2633 96.5941 35.8467 96.5941 36.5V36.808H91.2321C91.2694 37.2747 91.3954 37.6947 91.6101 38.068C91.8341 38.432 92.1234 38.7213 92.4781 38.936C92.8421 39.1413 93.2388 39.244 93.6681 39.244C94.0228 39.244 94.3634 39.1833 94.6901 39.062C95.0261 38.9313 95.3108 38.7587 95.5441 38.544L96.1881 39.23C95.7961 39.538 95.3901 39.7667 94.9701 39.916C94.5501 40.0653 94.1021 40.14 93.6261 40.14ZM91.2601 36.08H95.5861C95.5394 35.6693 95.4134 35.3053 95.2081 34.988C95.0121 34.6613 94.7601 34.4047 94.4521 34.218C94.1534 34.0313 93.8174 33.938 93.4441 33.938C93.0708 33.938 92.7301 34.0313 92.4221 34.218C92.1141 34.3953 91.8574 34.6473 91.6521 34.974C91.4561 35.2913 91.3254 35.66 91.2601 36.08ZM101.181 40.098C100.593 40.098 100.061 39.944 99.5851 39.636C99.1091 39.3187 98.7311 38.8987 98.4511 38.376C98.1711 37.844 98.0311 37.2513 98.0311 36.598C98.0311 35.9353 98.1711 35.3427 98.4511 34.82C98.7404 34.288 99.1277 33.868 99.6131 33.56C100.098 33.2427 100.64 33.084 101.237 33.084C101.657 33.084 102.049 33.168 102.413 33.336C102.777 33.4947 103.094 33.728 103.365 34.036V29.892L104.387 29.682V40H103.365V39.09C103.104 39.4167 102.786 39.6687 102.413 39.846C102.04 40.014 101.629 40.098 101.181 40.098ZM101.433 39.202C101.834 39.202 102.203 39.1227 102.539 38.964C102.875 38.8053 103.15 38.5813 103.365 38.292V34.904C103.141 34.6147 102.856 34.3907 102.511 34.232C102.175 34.064 101.816 33.98 101.433 33.98C100.976 33.98 100.565 34.092 100.201 34.316C99.8464 34.54 99.5617 34.848 99.3471 35.24C99.1417 35.632 99.0391 36.08 99.0391 36.584C99.0391 37.0787 99.1417 37.5267 99.3471 37.928C99.5617 38.32 99.8464 38.6327 100.201 38.866C100.565 39.09 100.976 39.202 101.433 39.202ZM106.292 36.5V35.618H110.954V36.5H106.292ZM112.859 40V29.892L113.881 29.682V40H112.859ZM119 40.112C118.365 40.112 117.796 39.958 117.292 39.65C116.788 39.342 116.391 38.922 116.102 38.39C115.812 37.858 115.668 37.256 115.668 36.584C115.668 35.912 115.812 35.31 116.102 34.778C116.391 34.246 116.788 33.826 117.292 33.518C117.796 33.21 118.365 33.056 119 33.056C119.625 33.056 120.185 33.21 120.68 33.518C121.184 33.826 121.58 34.246 121.87 34.778C122.159 35.31 122.304 35.912 122.304 36.584C122.304 37.256 122.159 37.858 121.87 38.39C121.58 38.922 121.184 39.342 120.68 39.65C120.185 39.958 119.625 40.112 119 40.112ZM118.986 39.216C119.434 39.216 119.83 39.104 120.176 38.88C120.521 38.6467 120.792 38.3293 120.988 37.928C121.193 37.5267 121.296 37.0787 121.296 36.584C121.296 36.08 121.193 35.632 120.988 35.24C120.792 34.8387 120.521 34.526 120.176 34.302C119.83 34.0687 119.434 33.952 118.986 33.952C118.538 33.952 118.141 34.0687 117.796 34.302C117.45 34.526 117.175 34.8387 116.97 35.24C116.774 35.632 116.676 36.08 116.676 36.584C116.676 37.0787 116.774 37.5267 116.97 37.928C117.175 38.3293 117.45 38.6467 117.796 38.88C118.141 39.104 118.538 39.216 118.986 39.216ZM127.261 43.066C126.804 43.066 126.342 43.0007 125.875 42.87C125.418 42.7487 124.993 42.576 124.601 42.352L125.035 41.568C125.455 41.7827 125.838 41.9413 126.183 42.044C126.528 42.1467 126.874 42.198 127.219 42.198C127.844 42.198 128.316 42.0487 128.633 41.75C128.96 41.4513 129.123 41.0173 129.123 40.448V39.076C128.862 39.4027 128.544 39.6547 128.171 39.832C127.798 40 127.387 40.084 126.939 40.084C126.351 40.084 125.819 39.93 125.343 39.622C124.867 39.3047 124.489 38.8847 124.209 38.362C123.929 37.83 123.789 37.2373 123.789 36.584C123.789 35.9307 123.929 35.3427 124.209 34.82C124.498 34.288 124.886 33.868 125.371 33.56C125.856 33.2427 126.398 33.084 126.995 33.084C127.424 33.084 127.821 33.168 128.185 33.336C128.549 33.4947 128.866 33.7327 129.137 34.05V33.168H130.145V40.434C130.145 41.2833 129.898 41.932 129.403 42.38C128.908 42.8373 128.194 43.066 127.261 43.066ZM127.191 39.202C127.592 39.202 127.961 39.1227 128.297 38.964C128.633 38.796 128.908 38.5673 129.123 38.278V34.904C128.899 34.6147 128.614 34.3907 128.269 34.232C127.933 34.064 127.574 33.98 127.191 33.98C126.734 33.98 126.323 34.092 125.959 34.316C125.604 34.54 125.32 34.848 125.105 35.24C124.9 35.632 124.797 36.08 124.797 36.584C124.797 37.0787 124.9 37.5267 125.105 37.928C125.32 38.32 125.604 38.6327 125.959 38.866C126.323 39.09 126.734 39.202 127.191 39.202ZM135.269 40.112C134.635 40.112 134.065 39.958 133.561 39.65C133.057 39.342 132.661 38.922 132.371 38.39C132.082 37.858 131.937 37.256 131.937 36.584C131.937 35.912 132.082 35.31 132.371 34.778C132.661 34.246 133.057 33.826 133.561 33.518C134.065 33.21 134.635 33.056 135.269 33.056C135.895 33.056 136.455 33.21 136.949 33.518C137.453 33.826 137.85 34.246 138.139 34.778C138.429 35.31 138.573 35.912 138.573 36.584C138.573 37.256 138.429 37.858 138.139 38.39C137.85 38.922 137.453 39.342 136.949 39.65C136.455 39.958 135.895 40.112 135.269 40.112ZM135.255 39.216C135.703 39.216 136.1 39.104 136.445 38.88C136.791 38.6467 137.061 38.3293 137.257 37.928C137.463 37.5267 137.565 37.0787 137.565 36.584C137.565 36.08 137.463 35.632 137.257 35.24C137.061 34.8387 136.791 34.526 136.445 34.302C136.1 34.0687 135.703 33.952 135.255 33.952C134.807 33.952 134.411 34.0687 134.065 34.302C133.72 34.526 133.445 34.8387 133.239 35.24C133.043 35.632 132.945 36.08 132.945 36.584C132.945 37.0787 133.043 37.5267 133.239 37.928C133.445 38.3293 133.72 38.6467 134.065 38.88C134.411 39.104 134.807 39.216 135.255 39.216ZM140.711 40.112C140.506 40.112 140.328 40.0373 140.179 39.888C140.039 39.7387 139.969 39.5613 139.969 39.356C139.969 39.1413 140.039 38.964 140.179 38.824C140.328 38.6747 140.506 38.6 140.711 38.6C140.916 38.6 141.089 38.6747 141.229 38.824C141.378 38.964 141.453 39.1413 141.453 39.356C141.453 39.5613 141.378 39.7387 141.229 39.888C141.089 40.0373 140.916 40.112 140.711 40.112ZM143.035 40V39.188L146.969 34.092L143.077 34.106V33.168H148.215V33.966L144.267 39.09L148.271 39.076V40H143.035ZM149.923 40V33.168H150.945V40H149.923ZM150.441 31.474C150.235 31.474 150.058 31.404 149.909 31.264C149.769 31.1147 149.699 30.942 149.699 30.746C149.699 30.55 149.769 30.382 149.909 30.242C150.058 30.0927 150.235 30.018 150.441 30.018C150.646 30.018 150.819 30.0927 150.959 30.242C151.108 30.382 151.183 30.55 151.183 30.746C151.183 30.942 151.108 31.1147 150.959 31.264C150.819 31.404 150.646 31.474 150.441 31.474ZM153.04 42.926V33.168H154.048V34.148C154.31 33.8027 154.627 33.5413 155 33.364C155.383 33.1773 155.803 33.084 156.26 33.084C156.858 33.084 157.39 33.2427 157.856 33.56C158.332 33.868 158.71 34.288 158.99 34.82C159.27 35.3427 159.41 35.9307 159.41 36.584C159.41 37.2373 159.266 37.83 158.976 38.362C158.696 38.894 158.314 39.3187 157.828 39.636C157.352 39.944 156.811 40.098 156.204 40.098C155.775 40.098 155.378 40.0187 155.014 39.86C154.65 39.692 154.333 39.454 154.062 39.146V42.926H153.04ZM156.008 39.216C156.466 39.216 156.872 39.104 157.226 38.88C157.59 38.6467 157.875 38.334 158.08 37.942C158.295 37.5407 158.402 37.0927 158.402 36.598C158.402 36.094 158.295 35.646 158.08 35.254C157.875 34.862 157.59 34.554 157.226 34.33C156.872 34.0967 156.466 33.98 156.008 33.98C155.607 33.98 155.234 34.064 154.888 34.232C154.552 34.3907 154.277 34.6193 154.062 34.918V38.264C154.286 38.5627 154.566 38.796 154.902 38.964C155.248 39.132 155.616 39.216 156.008 39.216Z" fill="#151515"/>
</svg>
