<svg width="308" height="71" viewBox="0 0 308 71" fill="none" xmlns="http://www.w3.org/2000/svg">
<rect width="308" height="71" fill="white"/>
<path d="M15 17.5H287C290.038 17.5 292.5 19.9624 292.5 23V48C292.5 51.0376 290.038 53.5 287 53.5H15C11.9624 53.5 9.5 51.0376 9.5 48V23C9.5 19.9624 11.9624 17.5 15 17.5Z" fill="white"/>
<path d="M15 17.5H287C290.038 17.5 292.5 19.9624 292.5 23V48C292.5 51.0376 290.038 53.5 287 53.5H15C11.9624 53.5 9.5 51.0376 9.5 48V23C9.5 19.9624 11.9624 17.5 15 17.5Z" stroke="#C7C7C7"/>
<path d="M28.78 40V31.152H25.392V30.2H33.246V31.152H29.858V40H28.78ZM34.6906 40V29.892L35.7126 29.682V34.274C35.974 33.8633 36.2866 33.56 36.6506 33.364C37.0146 33.1587 37.4253 33.056 37.8826 33.056C38.3773 33.056 38.8066 33.1633 39.1706 33.378C39.544 33.5833 39.8333 33.8773 40.0386 34.26C40.2533 34.6333 40.3606 35.072 40.3606 35.576V40H39.3386V35.87C39.3386 35.2633 39.1706 34.7873 38.8346 34.442C38.508 34.0873 38.0646 33.91 37.5046 33.91C37.1313 33.91 36.7906 33.9987 36.4826 34.176C36.1746 34.3533 35.918 34.6147 35.7126 34.96V40H34.6906ZM42.4012 40V33.168H43.4232V40H42.4012ZM42.9192 31.474C42.7139 31.474 42.5366 31.404 42.3872 31.264C42.2472 31.1147 42.1772 30.942 42.1772 30.746C42.1772 30.55 42.2472 30.382 42.3872 30.242C42.5366 30.0927 42.7139 30.018 42.9192 30.018C43.1246 30.018 43.2972 30.0927 43.4372 30.242C43.5866 30.382 43.6612 30.55 43.6612 30.746C43.6612 30.942 43.5866 31.1147 43.4372 31.264C43.2972 31.404 43.1246 31.474 42.9192 31.474ZM47.6328 40.14C47.0728 40.14 46.5548 40.056 46.0788 39.888C45.6028 39.7107 45.1968 39.4587 44.8608 39.132L45.4068 38.46C45.8174 38.7587 46.1954 38.978 46.5408 39.118C46.8861 39.2487 47.2408 39.314 47.6048 39.314C48.0994 39.314 48.5101 39.1973 48.8368 38.964C49.1634 38.7307 49.3268 38.432 49.3268 38.068C49.3268 37.788 49.2288 37.5687 49.0328 37.41C48.8461 37.2513 48.5334 37.13 48.0948 37.046L46.9748 36.85C46.3121 36.7287 45.8221 36.5233 45.5048 36.234C45.1968 35.9447 45.0428 35.5527 45.0428 35.058C45.0428 34.666 45.1454 34.3207 45.3508 34.022C45.5654 33.7233 45.8594 33.49 46.2328 33.322C46.6061 33.1447 47.0308 33.056 47.5068 33.056C47.9734 33.056 48.4168 33.126 48.8368 33.266C49.2568 33.3967 49.6814 33.6113 50.1108 33.91L49.6068 34.624C49.2521 34.372 48.8974 34.19 48.5428 34.078C48.1881 33.9567 47.8288 33.896 47.4648 33.896C47.0168 33.896 46.6574 33.994 46.3868 34.19C46.1161 34.386 45.9808 34.652 45.9808 34.988C45.9808 35.268 46.0648 35.4827 46.2328 35.632C46.4101 35.7813 46.7181 35.8933 47.1568 35.968L48.3048 36.178C48.9954 36.2993 49.4994 36.5093 49.8168 36.808C50.1341 37.1067 50.2928 37.508 50.2928 38.012C50.2928 38.4133 50.1761 38.7773 49.9428 39.104C49.7094 39.4213 49.3921 39.6733 48.9908 39.86C48.5894 40.0467 48.1368 40.14 47.6328 40.14ZM55.1024 40V33.168H56.1244V40H55.1024ZM55.6204 31.474C55.4151 31.474 55.2377 31.404 55.0884 31.264C54.9484 31.1147 54.8784 30.942 54.8784 30.746C54.8784 30.55 54.9484 30.382 55.0884 30.242C55.2377 30.0927 55.4151 30.018 55.6204 30.018C55.8257 30.018 55.9984 30.0927 56.1384 30.242C56.2877 30.382 56.3624 30.55 56.3624 30.746C56.3624 30.942 56.2877 31.1147 56.1384 31.264C55.9984 31.404 55.8257 31.474 55.6204 31.474ZM60.3339 40.14C59.7739 40.14 59.2559 40.056 58.7799 39.888C58.3039 39.7107 57.8979 39.4587 57.5619 39.132L58.1079 38.46C58.5186 38.7587 58.8966 38.978 59.2419 39.118C59.5873 39.2487 59.9419 39.314 60.3059 39.314C60.8006 39.314 61.2113 39.1973 61.5379 38.964C61.8646 38.7307 62.0279 38.432 62.0279 38.068C62.0279 37.788 61.9299 37.5687 61.7339 37.41C61.5473 37.2513 61.2346 37.13 60.7959 37.046L59.6759 36.85C59.0133 36.7287 58.5233 36.5233 58.2059 36.234C57.8979 35.9447 57.7439 35.5527 57.7439 35.058C57.7439 34.666 57.8466 34.3207 58.0519 34.022C58.2666 33.7233 58.5606 33.49 58.9339 33.322C59.3073 33.1447 59.7319 33.056 60.2079 33.056C60.6746 33.056 61.1179 33.126 61.5379 33.266C61.9579 33.3967 62.3826 33.6113 62.8119 33.91L62.3079 34.624C61.9533 34.372 61.5986 34.19 61.2439 34.078C60.8893 33.9567 60.5299 33.896 60.1659 33.896C59.7179 33.896 59.3586 33.994 59.0879 34.19C58.8173 34.386 58.6819 34.652 58.6819 34.988C58.6819 35.268 58.7659 35.4827 58.9339 35.632C59.1113 35.7813 59.4193 35.8933 59.8579 35.968L61.0059 36.178C61.6966 36.2993 62.2006 36.5093 62.5179 36.808C62.8353 37.1067 62.9939 37.508 62.9939 38.012C62.9939 38.4133 62.8773 38.7773 62.6439 39.104C62.4106 39.4213 62.0933 39.6733 61.6919 39.86C61.2906 40.0467 60.8379 40.14 60.3339 40.14ZM69.9316 40.126C69.4462 40.126 69.0169 40.0373 68.6436 39.86C68.2702 39.6827 67.9762 39.44 67.7616 39.132C67.5562 38.8147 67.4536 38.4507 67.4536 38.04C67.4536 37.6293 67.5609 37.2747 67.7756 36.976C67.9902 36.668 68.2889 36.43 68.6716 36.262C69.0542 36.094 69.5022 36.01 70.0156 36.01C70.4076 36.01 70.7762 36.052 71.1216 36.136C71.4762 36.22 71.8029 36.3553 72.1016 36.542V35.604C72.1016 35.044 71.9522 34.624 71.6536 34.344C71.3549 34.0547 70.9162 33.91 70.3376 33.91C70.0202 33.91 69.6936 33.9567 69.3576 34.05C69.0309 34.1433 68.6669 34.2927 68.2656 34.498L67.8876 33.714C68.8022 33.2753 69.6609 33.056 70.4636 33.056C71.3129 33.056 71.9662 33.266 72.4236 33.686C72.8809 34.0967 73.1096 34.6893 73.1096 35.464V40H72.1016V39.202C71.8029 39.51 71.4716 39.7433 71.1076 39.902C70.7436 40.0513 70.3516 40.126 69.9316 40.126ZM68.4336 38.012C68.4336 38.4133 68.5876 38.7353 68.8956 38.978C69.2129 39.2207 69.6282 39.342 70.1416 39.342C70.5242 39.342 70.8742 39.2767 71.1916 39.146C71.5182 39.0153 71.8216 38.8193 72.1016 38.558V37.242C71.8122 37.074 71.5136 36.9527 71.2056 36.878C70.8976 36.794 70.5522 36.752 70.1696 36.752C69.6469 36.752 69.2269 36.8687 68.9096 37.102C68.5922 37.326 68.4336 37.6293 68.4336 38.012ZM78.4543 40V29.892L79.4763 29.682V40H78.4543ZM81.5575 40V33.168H82.5795V40H81.5575ZM82.0755 31.474C81.8702 31.474 81.6928 31.404 81.5435 31.264C81.4035 31.1147 81.3335 30.942 81.3335 30.746C81.3335 30.55 81.4035 30.382 81.5435 30.242C81.6928 30.0927 81.8702 30.018 82.0755 30.018C82.2808 30.018 82.4535 30.0927 82.5935 30.242C82.7428 30.382 82.8175 30.55 82.8175 30.746C82.8175 30.942 82.7428 31.1147 82.5935 31.264C82.4535 31.404 82.2808 31.474 82.0755 31.474ZM84.675 40V33.168H85.697V34.274C85.9583 33.8633 86.271 33.56 86.635 33.364C86.999 33.1587 87.4097 33.056 87.867 33.056C88.3617 33.056 88.791 33.1633 89.155 33.378C89.5283 33.5833 89.8177 33.8773 90.023 34.26C90.2377 34.6333 90.345 35.072 90.345 35.576V40H89.323V35.87C89.323 35.2633 89.155 34.7873 88.819 34.442C88.4923 34.0873 88.049 33.91 87.489 33.91C87.1157 33.91 86.775 33.9987 86.467 34.176C86.159 34.3533 85.9023 34.6147 85.697 34.96V40H84.675ZM95.4796 40.14C94.8449 40.14 94.2709 39.986 93.7576 39.678C93.2443 39.3607 92.8383 38.936 92.5396 38.404C92.2409 37.8627 92.0916 37.256 92.0916 36.584C92.0916 35.912 92.2316 35.31 92.5116 34.778C92.8009 34.246 93.1883 33.826 93.6736 33.518C94.1589 33.21 94.7003 33.056 95.2976 33.056C95.9043 33.056 96.4409 33.21 96.9076 33.518C97.3836 33.8167 97.7569 34.2273 98.0276 34.75C98.3076 35.2633 98.4476 35.8467 98.4476 36.5V36.808H93.0856C93.1229 37.2747 93.2489 37.6947 93.4636 38.068C93.6876 38.432 93.9769 38.7213 94.3316 38.936C94.6956 39.1413 95.0923 39.244 95.5216 39.244C95.8763 39.244 96.2169 39.1833 96.5436 39.062C96.8796 38.9313 97.1643 38.7587 97.3976 38.544L98.0416 39.23C97.6496 39.538 97.2436 39.7667 96.8236 39.916C96.4036 40.0653 95.9556 40.14 95.4796 40.14ZM93.1136 36.08H97.4396C97.3929 35.6693 97.2669 35.3053 97.0616 34.988C96.8656 34.6613 96.6136 34.4047 96.3056 34.218C96.0069 34.0313 95.6709 33.938 95.2976 33.938C94.9243 33.938 94.5836 34.0313 94.2756 34.218C93.9676 34.3953 93.7109 34.6473 93.5056 34.974C93.3096 35.2913 93.1789 35.66 93.1136 36.08ZM106.484 40.112C105.849 40.112 105.28 39.958 104.776 39.65C104.272 39.342 103.875 38.922 103.586 38.39C103.297 37.858 103.152 37.256 103.152 36.584C103.152 35.912 103.297 35.31 103.586 34.778C103.875 34.246 104.272 33.826 104.776 33.518C105.28 33.21 105.849 33.056 106.484 33.056C107.109 33.056 107.669 33.21 108.164 33.518C108.668 33.826 109.065 34.246 109.354 34.778C109.643 35.31 109.788 35.912 109.788 36.584C109.788 37.256 109.643 37.858 109.354 38.39C109.065 38.922 108.668 39.342 108.164 39.65C107.669 39.958 107.109 40.112 106.484 40.112ZM106.47 39.216C106.918 39.216 107.315 39.104 107.66 38.88C108.005 38.6467 108.276 38.3293 108.472 37.928C108.677 37.5267 108.78 37.0787 108.78 36.584C108.78 36.08 108.677 35.632 108.472 35.24C108.276 34.8387 108.005 34.526 107.66 34.302C107.315 34.0687 106.918 33.952 106.47 33.952C106.022 33.952 105.625 34.0687 105.28 34.302C104.935 34.526 104.659 34.8387 104.454 35.24C104.258 35.632 104.16 36.08 104.16 36.584C104.16 37.0787 104.258 37.5267 104.454 37.928C104.659 38.3293 104.935 38.6467 105.28 38.88C105.625 39.104 106.022 39.216 106.47 39.216ZM112.025 40V34.008H110.499V33.168H112.025V31.74C112.025 31.068 112.203 30.55 112.557 30.186C112.912 29.822 113.416 29.64 114.069 29.64C114.256 29.64 114.424 29.6493 114.573 29.668C114.732 29.6867 114.872 29.7193 114.993 29.766V30.69C114.844 30.6433 114.709 30.6107 114.587 30.592C114.466 30.5733 114.326 30.564 114.167 30.564C113.775 30.564 113.491 30.662 113.313 30.858C113.136 31.0447 113.047 31.3433 113.047 31.754V33.168H114.993V34.008H113.047V40H112.025ZM115.85 40.112C115.644 40.112 115.467 40.0373 115.318 39.888C115.178 39.7387 115.108 39.5613 115.108 39.356C115.108 39.1413 115.178 38.964 115.318 38.824C115.467 38.6747 115.644 38.6 115.85 38.6C116.055 38.6 116.228 38.6747 116.368 38.824C116.517 38.964 116.592 39.1413 116.592 39.356C116.592 39.5613 116.517 39.7387 116.368 39.888C116.228 40.0373 116.055 40.112 115.85 40.112ZM119.35 40.112C119.144 40.112 118.967 40.0373 118.818 39.888C118.678 39.7387 118.608 39.5613 118.608 39.356C118.608 39.1413 118.678 38.964 118.818 38.824C118.967 38.6747 119.144 38.6 119.35 38.6C119.555 38.6 119.728 38.6747 119.868 38.824C120.017 38.964 120.092 39.1413 120.092 39.356C120.092 39.5613 120.017 39.7387 119.868 39.888C119.728 40.0373 119.555 40.112 119.35 40.112ZM122.85 40.112C122.644 40.112 122.467 40.0373 122.318 39.888C122.178 39.7387 122.108 39.5613 122.108 39.356C122.108 39.1413 122.178 38.964 122.318 38.824C122.467 38.6747 122.644 38.6 122.85 38.6C123.055 38.6 123.228 38.6747 123.368 38.824C123.517 38.964 123.592 39.1413 123.592 39.356C123.592 39.5613 123.517 39.7387 123.368 39.888C123.228 40.0373 123.055 40.112 122.85 40.112ZM125.65 40V33.168H126.672V34.232C126.933 33.84 127.232 33.546 127.568 33.35C127.904 33.154 128.282 33.056 128.702 33.056C129.187 33.056 129.612 33.1773 129.976 33.42C130.34 33.6533 130.615 33.9753 130.802 34.386C131.072 33.9473 131.394 33.616 131.768 33.392C132.15 33.168 132.589 33.056 133.084 33.056C133.541 33.056 133.942 33.1633 134.288 33.378C134.642 33.5927 134.918 33.8913 135.114 34.274C135.31 34.6473 135.408 35.086 135.408 35.59V40H134.386V35.842C134.386 35.2447 134.236 34.7733 133.938 34.428C133.639 34.0827 133.228 33.91 132.706 33.91C132.351 33.91 132.029 33.9987 131.74 34.176C131.46 34.3533 131.212 34.624 130.998 34.988C131.016 35.0813 131.03 35.1793 131.04 35.282C131.049 35.3847 131.054 35.4873 131.054 35.59V40H130.032V35.842C130.032 35.2447 129.878 34.7733 129.57 34.428C129.271 34.0827 128.86 33.91 128.338 33.91C127.638 33.91 127.082 34.246 126.672 34.918V40H125.65ZM137.462 40V33.168H138.484V40H137.462ZM137.98 31.474C137.774 31.474 137.597 31.404 137.448 31.264C137.308 31.1147 137.238 30.942 137.238 30.746C137.238 30.55 137.308 30.382 137.448 30.242C137.597 30.0927 137.774 30.018 137.98 30.018C138.185 30.018 138.358 30.0927 138.498 30.242C138.647 30.382 138.722 30.55 138.722 30.746C138.722 30.942 138.647 31.1147 138.498 31.264C138.358 31.404 138.185 31.474 137.98 31.474ZM143.421 40.098C142.833 40.098 142.301 39.944 141.825 39.636C141.349 39.3187 140.971 38.8987 140.691 38.376C140.411 37.844 140.271 37.2513 140.271 36.598C140.271 35.9353 140.411 35.3427 140.691 34.82C140.981 34.288 141.368 33.868 141.853 33.56C142.339 33.2427 142.88 33.084 143.477 33.084C143.897 33.084 144.289 33.168 144.653 33.336C145.017 33.4947 145.335 33.728 145.605 34.036V29.892L146.627 29.682V40H145.605V39.09C145.344 39.4167 145.027 39.6687 144.653 39.846C144.28 40.014 143.869 40.098 143.421 40.098ZM143.673 39.202C144.075 39.202 144.443 39.1227 144.779 38.964C145.115 38.8053 145.391 38.5813 145.605 38.292V34.904C145.381 34.6147 145.097 34.3907 144.751 34.232C144.415 34.064 144.056 33.98 143.673 33.98C143.216 33.98 142.805 34.092 142.441 34.316C142.087 34.54 141.802 34.848 141.587 35.24C141.382 35.632 141.279 36.08 141.279 36.584C141.279 37.0787 141.382 37.5267 141.587 37.928C141.802 38.32 142.087 38.6327 142.441 38.866C142.805 39.09 143.216 39.202 143.673 39.202ZM151.57 40.098C150.982 40.098 150.45 39.944 149.974 39.636C149.498 39.3187 149.12 38.8987 148.84 38.376C148.56 37.844 148.42 37.2513 148.42 36.598C148.42 35.9353 148.56 35.3427 148.84 34.82C149.129 34.288 149.516 33.868 150.002 33.56C150.487 33.2427 151.028 33.084 151.626 33.084C152.046 33.084 152.438 33.168 152.802 33.336C153.166 33.4947 153.483 33.728 153.754 34.036V29.892L154.776 29.682V40H153.754V39.09C153.492 39.4167 153.175 39.6687 152.802 39.846C152.428 40.014 152.018 40.098 151.57 40.098ZM151.822 39.202C152.223 39.202 152.592 39.1227 152.928 38.964C153.264 38.8053 153.539 38.5813 153.754 38.292V34.904C153.53 34.6147 153.245 34.3907 152.9 34.232C152.564 34.064 152.204 33.98 151.822 33.98C151.364 33.98 150.954 34.092 150.59 34.316C150.235 34.54 149.95 34.848 149.736 35.24C149.53 35.632 149.428 36.08 149.428 36.584C149.428 37.0787 149.53 37.5267 149.736 37.928C149.95 38.32 150.235 38.6327 150.59 38.866C150.954 39.09 151.364 39.202 151.822 39.202ZM156.876 40V29.892L157.898 29.682V40H156.876ZM163.073 40.14C162.439 40.14 161.865 39.986 161.351 39.678C160.838 39.3607 160.432 38.936 160.133 38.404C159.835 37.8627 159.685 37.256 159.685 36.584C159.685 35.912 159.825 35.31 160.105 34.778C160.395 34.246 160.782 33.826 161.267 33.518C161.753 33.21 162.294 33.056 162.891 33.056C163.498 33.056 164.035 33.21 164.501 33.518C164.977 33.8167 165.351 34.2273 165.621 34.75C165.901 35.2633 166.041 35.8467 166.041 36.5V36.808H160.679C160.717 37.2747 160.843 37.6947 161.057 38.068C161.281 38.432 161.571 38.7213 161.925 38.936C162.289 39.1413 162.686 39.244 163.115 39.244C163.47 39.244 163.811 39.1833 164.137 39.062C164.473 38.9313 164.758 38.7587 164.991 38.544L165.635 39.23C165.243 39.538 164.837 39.7667 164.417 39.916C163.997 40.0653 163.549 40.14 163.073 40.14ZM160.707 36.08H165.033C164.987 35.6693 164.861 35.3053 164.655 34.988C164.459 34.6613 164.207 34.4047 163.899 34.218C163.601 34.0313 163.265 33.938 162.891 33.938C162.518 33.938 162.177 34.0313 161.869 34.218C161.561 34.3953 161.305 34.6473 161.099 34.974C160.903 35.2913 160.773 35.66 160.707 36.08ZM174.078 40.112C173.443 40.112 172.874 39.958 172.37 39.65C171.866 39.342 171.469 38.922 171.18 38.39C170.891 37.858 170.746 37.256 170.746 36.584C170.746 35.912 170.891 35.31 171.18 34.778C171.469 34.246 171.866 33.826 172.37 33.518C172.874 33.21 173.443 33.056 174.078 33.056C174.703 33.056 175.263 33.21 175.758 33.518C176.262 33.826 176.659 34.246 176.948 34.778C177.237 35.31 177.382 35.912 177.382 36.584C177.382 37.256 177.237 37.858 176.948 38.39C176.659 38.922 176.262 39.342 175.758 39.65C175.263 39.958 174.703 40.112 174.078 40.112ZM174.064 39.216C174.512 39.216 174.909 39.104 175.254 38.88C175.599 38.6467 175.87 38.3293 176.066 37.928C176.271 37.5267 176.374 37.0787 176.374 36.584C176.374 36.08 176.271 35.632 176.066 35.24C175.87 34.8387 175.599 34.526 175.254 34.302C174.909 34.0687 174.512 33.952 174.064 33.952C173.616 33.952 173.219 34.0687 172.874 34.302C172.529 34.526 172.253 34.8387 172.048 35.24C171.852 35.632 171.754 36.08 171.754 36.584C171.754 37.0787 171.852 37.5267 172.048 37.928C172.253 38.3293 172.529 38.6467 172.874 38.88C173.219 39.104 173.616 39.216 174.064 39.216ZM179.619 40V34.008H178.093V33.168H179.619V31.74C179.619 31.068 179.797 30.55 180.151 30.186C180.506 29.822 181.01 29.64 181.663 29.64C181.85 29.64 182.018 29.6493 182.167 29.668C182.326 29.6867 182.466 29.7193 182.587 29.766V30.69C182.438 30.6433 182.303 30.6107 182.181 30.592C182.06 30.5733 181.92 30.564 181.761 30.564C181.369 30.564 181.085 30.662 180.907 30.858C180.73 31.0447 180.641 31.3433 180.641 31.754V33.168H182.587V34.008H180.641V40H179.619ZM189.804 40.14C189.216 40.14 188.768 40 188.46 39.72C188.162 39.4307 188.012 39.0153 188.012 38.474V34.008H186.598V33.168H188.012V31.292L189.034 31.054V33.168H190.994V34.008H189.034V38.208C189.034 38.572 189.109 38.8333 189.258 38.992C189.417 39.1507 189.674 39.23 190.028 39.23C190.206 39.23 190.364 39.216 190.504 39.188C190.644 39.16 190.808 39.1133 190.994 39.048V39.958C190.808 40.0233 190.612 40.07 190.406 40.098C190.201 40.126 190 40.14 189.804 40.14ZM192.491 40V29.892L193.513 29.682V34.274C193.775 33.8633 194.087 33.56 194.451 33.364C194.815 33.1587 195.226 33.056 195.683 33.056C196.178 33.056 196.607 33.1633 196.971 33.378C197.345 33.5833 197.634 33.8773 197.839 34.26C198.054 34.6333 198.161 35.072 198.161 35.576V40H197.139V35.87C197.139 35.2633 196.971 34.7873 196.635 34.442C196.309 34.0873 195.865 33.91 195.305 33.91C194.932 33.91 194.591 33.9987 194.283 34.176C193.975 34.3533 193.719 34.6147 193.513 34.96V40H192.491ZM203.296 40.14C202.661 40.14 202.087 39.986 201.574 39.678C201.061 39.3607 200.655 38.936 200.356 38.404C200.057 37.8627 199.908 37.256 199.908 36.584C199.908 35.912 200.048 35.31 200.328 34.778C200.617 34.246 201.005 33.826 201.49 33.518C201.975 33.21 202.517 33.056 203.114 33.056C203.721 33.056 204.257 33.21 204.724 33.518C205.2 33.8167 205.573 34.2273 205.844 34.75C206.124 35.2633 206.264 35.8467 206.264 36.5V36.808H200.902C200.939 37.2747 201.065 37.6947 201.28 38.068C201.504 38.432 201.793 38.7213 202.148 38.936C202.512 39.1413 202.909 39.244 203.338 39.244C203.693 39.244 204.033 39.1833 204.36 39.062C204.696 38.9313 204.981 38.7587 205.214 38.544L205.858 39.23C205.466 39.538 205.06 39.7667 204.64 39.916C204.22 40.0653 203.772 40.14 203.296 40.14ZM200.93 36.08H205.256C205.209 35.6693 205.083 35.3053 204.878 34.988C204.682 34.6613 204.43 34.4047 204.122 34.218C203.823 34.0313 203.487 33.938 203.114 33.938C202.741 33.938 202.4 34.0313 202.092 34.218C201.784 34.3953 201.527 34.6473 201.322 34.974C201.126 35.2913 200.995 35.66 200.93 36.08ZM213.391 40.14C212.831 40.14 212.313 40.056 211.837 39.888C211.361 39.7107 210.955 39.4587 210.619 39.132L211.165 38.46C211.575 38.7587 211.953 38.978 212.299 39.118C212.644 39.2487 212.999 39.314 213.363 39.314C213.857 39.314 214.268 39.1973 214.595 38.964C214.921 38.7307 215.085 38.432 215.085 38.068C215.085 37.788 214.987 37.5687 214.791 37.41C214.604 37.2513 214.291 37.13 213.853 37.046L212.733 36.85C212.07 36.7287 211.58 36.5233 211.263 36.234C210.955 35.9447 210.801 35.5527 210.801 35.058C210.801 34.666 210.903 34.3207 211.109 34.022C211.323 33.7233 211.617 33.49 211.991 33.322C212.364 33.1447 212.789 33.056 213.265 33.056C213.731 33.056 214.175 33.126 214.595 33.266C215.015 33.3967 215.439 33.6113 215.869 33.91L215.365 34.624C215.01 34.372 214.655 34.19 214.301 34.078C213.946 33.9567 213.587 33.896 213.223 33.896C212.775 33.896 212.415 33.994 212.145 34.19C211.874 34.386 211.739 34.652 211.739 34.988C211.739 35.268 211.823 35.4827 211.991 35.632C212.168 35.7813 212.476 35.8933 212.915 35.968L214.063 36.178C214.753 36.2993 215.257 36.5093 215.575 36.808C215.892 37.1067 216.051 37.508 216.051 38.012C216.051 38.4133 215.934 38.7773 215.701 39.104C215.467 39.4213 215.15 39.6733 214.749 39.86C214.347 40.0467 213.895 40.14 213.391 40.14ZM220.755 40.14C220.12 40.14 219.546 39.986 219.033 39.678C218.52 39.3607 218.114 38.936 217.815 38.404C217.516 37.8627 217.367 37.256 217.367 36.584C217.367 35.912 217.507 35.31 217.787 34.778C218.076 34.246 218.464 33.826 218.949 33.518C219.434 33.21 219.976 33.056 220.573 33.056C221.18 33.056 221.716 33.21 222.183 33.518C222.659 33.8167 223.032 34.2273 223.303 34.75C223.583 35.2633 223.723 35.8467 223.723 36.5V36.808H218.361C218.398 37.2747 218.524 37.6947 218.739 38.068C218.963 38.432 219.252 38.7213 219.607 38.936C219.971 39.1413 220.368 39.244 220.797 39.244C221.152 39.244 221.492 39.1833 221.819 39.062C222.155 38.9313 222.44 38.7587 222.673 38.544L223.317 39.23C222.925 39.538 222.519 39.7667 222.099 39.916C221.679 40.0653 221.231 40.14 220.755 40.14ZM218.389 36.08H222.715C222.668 35.6693 222.542 35.3053 222.337 34.988C222.141 34.6613 221.889 34.4047 221.581 34.218C221.282 34.0313 220.946 33.938 220.573 33.938C220.2 33.938 219.859 34.0313 219.551 34.218C219.243 34.3953 218.986 34.6473 218.781 34.974C218.585 35.2913 218.454 35.66 218.389 36.08ZM225.468 40V33.168H226.49V34.274C226.751 33.8633 227.064 33.56 227.428 33.364C227.792 33.1587 228.203 33.056 228.66 33.056C229.155 33.056 229.584 33.1633 229.948 33.378C230.321 33.5833 230.611 33.8773 230.816 34.26C231.031 34.6333 231.138 35.072 231.138 35.576V40H230.116V35.87C230.116 35.2633 229.948 34.7873 229.612 34.442C229.285 34.0873 228.842 33.91 228.282 33.91C227.909 33.91 227.568 33.9987 227.26 34.176C226.952 34.3533 226.695 34.6147 226.49 34.96V40H225.468ZM235.592 40.14C235.004 40.14 234.556 40 234.248 39.72C233.949 39.4307 233.8 39.0153 233.8 38.474V34.008H232.386V33.168H233.8V31.292L234.822 31.054V33.168H236.782V34.008H234.822V38.208C234.822 38.572 234.896 38.8333 235.046 38.992C235.204 39.1507 235.461 39.23 235.816 39.23C235.993 39.23 236.152 39.216 236.292 39.188C236.432 39.16 236.595 39.1133 236.782 39.048V39.958C236.595 40.0233 236.399 40.07 236.194 40.098C235.988 40.126 235.788 40.14 235.592 40.14ZM241.222 40.14C240.587 40.14 240.013 39.986 239.5 39.678C238.986 39.3607 238.58 38.936 238.282 38.404C237.983 37.8627 237.834 37.256 237.834 36.584C237.834 35.912 237.974 35.31 238.254 34.778C238.543 34.246 238.93 33.826 239.416 33.518C239.901 33.21 240.442 33.056 241.04 33.056C241.646 33.056 242.183 33.21 242.65 33.518C243.126 33.8167 243.499 34.2273 243.77 34.75C244.05 35.2633 244.19 35.8467 244.19 36.5V36.808H238.828C238.865 37.2747 238.991 37.6947 239.206 38.068C239.43 38.432 239.719 38.7213 240.074 38.936C240.438 39.1413 240.834 39.244 241.264 39.244C241.618 39.244 241.959 39.1833 242.286 39.062C242.622 38.9313 242.906 38.7587 243.14 38.544L243.784 39.23C243.392 39.538 242.986 39.7667 242.566 39.916C242.146 40.0653 241.698 40.14 241.222 40.14ZM238.856 36.08H243.182C243.135 35.6693 243.009 35.3053 242.804 34.988C242.608 34.6613 242.356 34.4047 242.048 34.218C241.749 34.0313 241.413 33.938 241.04 33.938C240.666 33.938 240.326 34.0313 240.018 34.218C239.71 34.3953 239.453 34.6473 239.248 34.974C239.052 35.2913 238.921 35.66 238.856 36.08ZM245.935 40V33.168H246.957V34.274C247.218 33.8633 247.531 33.56 247.895 33.364C248.259 33.1587 248.669 33.056 249.127 33.056C249.621 33.056 250.051 33.1633 250.415 33.378C250.788 33.5833 251.077 33.8773 251.283 34.26C251.497 34.6333 251.605 35.072 251.605 35.576V40H250.583V35.87C250.583 35.2633 250.415 34.7873 250.079 34.442C249.752 34.0873 249.309 33.91 248.749 33.91C248.375 33.91 248.035 33.9987 247.727 34.176C247.419 34.3533 247.162 34.6147 246.957 34.96V40H245.935ZM256.725 40.112C256.091 40.112 255.517 39.958 255.003 39.65C254.499 39.3327 254.098 38.908 253.799 38.376C253.501 37.8347 253.351 37.2373 253.351 36.584C253.351 35.9213 253.501 35.324 253.799 34.792C254.098 34.26 254.499 33.84 255.003 33.532C255.517 33.2147 256.091 33.056 256.725 33.056C257.229 33.056 257.71 33.1493 258.167 33.336C258.625 33.5227 259.021 33.784 259.357 34.12L258.699 34.834C258.457 34.5633 258.163 34.3533 257.817 34.204C257.472 34.0547 257.122 33.98 256.767 33.98C256.319 33.98 255.913 34.0967 255.549 34.33C255.195 34.5633 254.91 34.876 254.695 35.268C254.481 35.66 254.373 36.0987 254.373 36.584C254.373 37.0693 254.481 37.508 254.695 37.9C254.91 38.292 255.195 38.6047 255.549 38.838C255.913 39.0713 256.319 39.188 256.767 39.188C257.122 39.188 257.472 39.1133 257.817 38.964C258.163 38.8053 258.457 38.5953 258.699 38.334L259.357 39.048C259.021 39.384 258.625 39.6453 258.167 39.832C257.71 40.0187 257.229 40.112 256.725 40.112ZM263.657 40.14C263.023 40.14 262.449 39.986 261.935 39.678C261.422 39.3607 261.016 38.936 260.717 38.404C260.419 37.8627 260.269 37.256 260.269 36.584C260.269 35.912 260.409 35.31 260.689 34.778C260.979 34.246 261.366 33.826 261.851 33.518C262.337 33.21 262.878 33.056 263.475 33.056C264.082 33.056 264.619 33.21 265.085 33.518C265.561 33.8167 265.935 34.2273 266.205 34.75C266.485 35.2633 266.625 35.8467 266.625 36.5V36.808H261.263C261.301 37.2747 261.427 37.6947 261.641 38.068C261.865 38.432 262.155 38.7213 262.509 38.936C262.873 39.1413 263.27 39.244 263.699 39.244C264.054 39.244 264.395 39.1833 264.721 39.062C265.057 38.9313 265.342 38.7587 265.575 38.544L266.219 39.23C265.827 39.538 265.421 39.7667 265.001 39.916C264.581 40.0653 264.133 40.14 263.657 40.14ZM261.291 36.08H265.617C265.571 35.6693 265.445 35.3053 265.239 34.988C265.043 34.6613 264.791 34.4047 264.483 34.218C264.185 34.0313 263.849 33.938 263.475 33.938C263.102 33.938 262.761 34.0313 262.453 34.218C262.145 34.3953 261.889 34.6473 261.683 34.974C261.487 35.2913 261.357 35.66 261.291 36.08ZM268.715 40.112C268.51 40.112 268.332 40.0373 268.183 39.888C268.043 39.7387 267.973 39.5613 267.973 39.356C267.973 39.1413 268.043 38.964 268.183 38.824C268.332 38.6747 268.51 38.6 268.715 38.6C268.92 38.6 269.093 38.6747 269.233 38.824C269.382 38.964 269.457 39.1413 269.457 39.356C269.457 39.5613 269.382 39.7387 269.233 39.888C269.093 40.0373 268.92 40.112 268.715 40.112Z" fill="#151515"/>
</svg>
