<svg width="520" height="254" viewBox="0 0 520 254" fill="none" xmlns="http://www.w3.org/2000/svg">
<rect width="520" height="254" fill="white"/>
<g filter="url(#filter0_d_1967_21583)">
<mask id="path-1-inside-1_1967_21583" fill="white">
<path d="M20 49C20 40.1634 27.1634 33 36 33H478C486.837 33 494 40.1634 494 49V95C494 103.837 486.837 111 478 111H36C27.1635 111 20 103.837 20 95V49Z"/>
</mask>
<path d="M20 49C20 40.1634 27.1634 33 36 33H478C486.837 33 494 40.1634 494 49V95C494 103.837 486.837 111 478 111H36C27.1635 111 20 103.837 20 95V49Z" fill="white"/>
<path d="M36 33V35H478V33V31H36V33ZM494 49H492V95H494H496V49H494ZM478 111V109H36V111V113H478V111ZM20 95H22V49H20H18V95H20ZM36 111V109C28.268 109 22 102.732 22 95H20H18C18 104.941 26.0589 113 36 113V111ZM494 95H492C492 102.732 485.732 109 478 109V111V113C487.941 113 496 104.941 496 95H494ZM478 33V35C485.732 35 492 41.268 492 49H494H496C496 39.0589 487.941 31 478 31V33ZM36 33V31C26.0589 31 18 39.0589 18 49H20H22C22 41.268 28.268 35 36 35V33Z" fill="#DCA614" mask="url(#path-1-inside-1_1967_21583)"/>
<path d="M46.1549 53.6557C46.6599 52.7806 47.9242 52.7823 48.4283 53.6557L54.9889 65.0316C55.4936 65.9065 54.8602 67.0004 53.8522 67.0004H40.7311C39.7212 67.0004 39.0899 65.9047 39.5934 65.0316L46.1549 53.6557ZM47.2916 62.6801C46.597 62.6801 46.0338 63.2432 46.0338 63.9379C46.034 64.6323 46.5971 65.1957 47.2916 65.1957C47.9862 65.1957 48.5492 64.6324 48.5494 63.9379C48.5494 63.2432 47.9863 62.6801 47.2916 62.6801ZM46.4254 57.8129C46.2372 57.8129 46.087 57.9706 46.0973 58.1586L46.3004 61.8773C46.3099 62.0512 46.4535 62.1877 46.6276 62.1879H47.9557C48.1298 62.1877 48.2733 62.0512 48.2828 61.8773L48.486 58.1586C48.4962 57.9706 48.3461 57.8129 48.1578 57.8129H46.4254Z" fill="#DCA614"/>
<path d="M65.084 64L68.934 54.2H70.88L74.674 64H72.868L71.86 61.256H67.842L66.834 64H65.084ZM68.332 59.94H71.398L69.858 55.796L68.332 59.94ZM75.7417 64V56.986H77.3237V58.134C77.5944 57.714 77.9164 57.4013 78.2897 57.196C78.6631 56.9813 79.0784 56.874 79.5357 56.874C80.0211 56.874 80.4457 56.9813 80.8097 57.196C81.1737 57.4013 81.4584 57.6907 81.6637 58.064C81.8784 58.4373 81.9857 58.876 81.9857 59.38V64H80.3897V59.828C80.3897 59.3147 80.2497 58.9087 79.9697 58.61C79.6897 58.302 79.3164 58.148 78.8497 58.148C78.5324 58.148 78.2431 58.2227 77.9817 58.372C77.7297 58.512 77.5104 58.722 77.3237 59.002V64H75.7417ZM86.1387 64L89.9887 54.2H91.9347L95.7287 64H93.9227L92.9147 61.256H88.8967L87.8887 64H86.1387ZM89.3867 59.94H92.4527L90.9127 55.796L89.3867 59.94ZM96.7964 64V53.962L98.3784 53.682V64H96.7964ZM103.586 64.14C102.914 64.14 102.307 63.9813 101.766 63.664C101.224 63.3373 100.795 62.9033 100.478 62.362C100.16 61.8113 100.002 61.1907 100.002 60.5C100.002 59.8093 100.151 59.1933 100.45 58.652C100.748 58.1107 101.154 57.6813 101.668 57.364C102.19 57.0373 102.769 56.874 103.404 56.874C104.057 56.874 104.631 57.0327 105.126 57.35C105.63 57.6673 106.022 58.0967 106.302 58.638C106.591 59.1793 106.736 59.8 106.736 60.5V60.878H101.556C101.612 61.2607 101.733 61.6013 101.92 61.9C102.116 62.1893 102.363 62.418 102.662 62.586C102.97 62.754 103.301 62.838 103.656 62.838C103.982 62.838 104.29 62.782 104.58 62.67C104.878 62.5487 105.126 62.3853 105.322 62.18L106.358 63.118C105.928 63.4727 105.49 63.734 105.042 63.902C104.603 64.0607 104.118 64.14 103.586 64.14ZM101.57 59.898H105.238C105.182 59.562 105.065 59.2633 104.888 59.002C104.72 58.7407 104.505 58.5353 104.244 58.386C103.992 58.2367 103.712 58.162 103.404 58.162C103.096 58.162 102.811 58.2367 102.55 58.386C102.298 58.526 102.088 58.7267 101.92 58.988C101.752 59.2493 101.635 59.5527 101.57 59.898ZM108.349 64V56.986H109.931V58.498C110.136 57.966 110.402 57.56 110.729 57.28C111.056 57 111.434 56.86 111.863 56.86C111.994 56.8693 112.11 56.8833 112.213 56.902C112.316 56.9113 112.428 56.944 112.549 57V58.386C112.428 58.33 112.288 58.288 112.129 58.26C111.98 58.232 111.83 58.218 111.681 58.218C111.298 58.218 110.953 58.3207 110.645 58.526C110.346 58.7313 110.108 59.016 109.931 59.38V64H108.349ZM116.869 64.14C116.16 64.14 115.623 63.9767 115.259 63.65C114.895 63.314 114.713 62.824 114.713 62.18V58.246H113.313V56.986H114.713V55.054L116.295 54.718V56.986H118.241V58.246H116.295V61.83C116.295 62.1753 116.37 62.4227 116.519 62.572C116.669 62.712 116.921 62.782 117.275 62.782C117.434 62.782 117.579 62.7727 117.709 62.754C117.849 62.726 118.022 62.6793 118.227 62.614V63.944C118.031 64.0093 117.807 64.056 117.555 64.084C117.313 64.1213 117.084 64.14 116.869 64.14ZM125.811 64.14C125.101 64.14 124.565 63.9767 124.201 63.65C123.837 63.314 123.655 62.824 123.655 62.18V58.246H122.255V56.986H123.655V55.054L125.237 54.718V56.986H127.183V58.246H125.237V61.83C125.237 62.1753 125.311 62.4227 125.461 62.572C125.61 62.712 125.862 62.782 126.217 62.782C126.375 62.782 126.52 62.7727 126.651 62.754C126.791 62.726 126.963 62.6793 127.169 62.614V63.944C126.973 64.0093 126.749 64.056 126.497 64.084C126.254 64.1213 126.025 64.14 125.811 64.14ZM128.57 64V56.986H130.152V64H128.57ZM129.368 55.558C129.097 55.558 128.864 55.4647 128.668 55.278C128.481 55.082 128.388 54.8533 128.388 54.592C128.388 54.3213 128.481 54.0927 128.668 53.906C128.864 53.71 129.097 53.612 129.368 53.612C129.638 53.612 129.867 53.71 130.054 53.906C130.25 54.0927 130.348 54.3167 130.348 54.578C130.348 54.8487 130.25 55.082 130.054 55.278C129.867 55.4647 129.638 55.558 129.368 55.558ZM135.135 64.14C134.426 64.14 133.889 63.9767 133.525 63.65C133.161 63.314 132.979 62.824 132.979 62.18V58.246H131.579V56.986H132.979V55.054L134.561 54.718V56.986H136.507V58.246H134.561V61.83C134.561 62.1753 134.636 62.4227 134.785 62.572C134.934 62.712 135.186 62.782 135.541 62.782C135.7 62.782 135.844 62.7727 135.975 62.754C136.115 62.726 136.288 62.6793 136.493 62.614V63.944C136.297 64.0093 136.073 64.056 135.821 64.084C135.578 64.1213 135.35 64.14 135.135 64.14ZM137.908 64V53.962L139.49 53.682V64H137.908ZM144.697 64.14C144.025 64.14 143.418 63.9813 142.877 63.664C142.336 63.3373 141.906 62.9033 141.589 62.362C141.272 61.8113 141.113 61.1907 141.113 60.5C141.113 59.8093 141.262 59.1933 141.561 58.652C141.86 58.1107 142.266 57.6813 142.779 57.364C143.302 57.0373 143.88 56.874 144.515 56.874C145.168 56.874 145.742 57.0327 146.237 57.35C146.741 57.6673 147.133 58.0967 147.413 58.638C147.702 59.1793 147.847 59.8 147.847 60.5V60.878H142.667C142.723 61.2607 142.844 61.6013 143.031 61.9C143.227 62.1893 143.474 62.418 143.773 62.586C144.081 62.754 144.412 62.838 144.767 62.838C145.094 62.838 145.402 62.782 145.691 62.67C145.99 62.5487 146.237 62.3853 146.433 62.18L147.469 63.118C147.04 63.4727 146.601 63.734 146.153 63.902C145.714 64.0607 145.229 64.14 144.697 64.14ZM142.681 59.898H146.349C146.293 59.562 146.176 59.2633 145.999 59.002C145.831 58.7407 145.616 58.5353 145.355 58.386C145.103 58.2367 144.823 58.162 144.515 58.162C144.207 58.162 143.922 58.2367 143.661 58.386C143.409 58.526 143.199 58.7267 143.031 58.988C142.863 59.2493 142.746 59.5527 142.681 59.898ZM155.629 64.14C154.92 64.14 154.383 63.9767 154.019 63.65C153.655 63.314 153.473 62.824 153.473 62.18V58.246H152.073V56.986H153.473V55.054L155.055 54.718V56.986H157.001V58.246H155.055V61.83C155.055 62.1753 155.13 62.4227 155.279 62.572C155.428 62.712 155.68 62.782 156.035 62.782C156.194 62.782 156.338 62.7727 156.469 62.754C156.609 62.726 156.782 62.6793 156.987 62.614V63.944C156.791 64.0093 156.567 64.056 156.315 64.084C156.072 64.1213 155.844 64.14 155.629 64.14ZM158.402 64V53.962L159.984 53.682V58.134C160.255 57.714 160.577 57.4013 160.95 57.196C161.323 56.9813 161.739 56.874 162.196 56.874C162.681 56.874 163.106 56.9813 163.47 57.196C163.834 57.4013 164.119 57.6907 164.324 58.064C164.539 58.4373 164.646 58.876 164.646 59.38V64H163.05V59.828C163.05 59.3147 162.91 58.9087 162.63 58.61C162.35 58.302 161.977 58.148 161.51 58.148C161.193 58.148 160.903 58.2227 160.642 58.372C160.39 58.512 160.171 58.722 159.984 59.002V64H158.402ZM168.678 64.126C168.193 64.126 167.759 64.0373 167.376 63.86C167.003 63.6733 166.709 63.4213 166.494 63.104C166.289 62.7773 166.186 62.404 166.186 61.984C166.186 61.564 166.294 61.2 166.508 60.892C166.732 60.584 167.045 60.346 167.446 60.178C167.848 60.01 168.324 59.926 168.874 59.926C169.201 59.926 169.523 59.9633 169.84 60.038C170.158 60.1033 170.466 60.2153 170.764 60.374V59.59C170.764 59.1233 170.629 58.7733 170.358 58.54C170.097 58.3067 169.696 58.19 169.154 58.19C168.865 58.19 168.552 58.2367 168.216 58.33C167.89 58.414 167.521 58.5493 167.11 58.736L166.55 57.588C167.577 57.112 168.548 56.874 169.462 56.874C170.377 56.874 171.082 57.098 171.576 57.546C172.08 57.9847 172.332 58.61 172.332 59.422V64H170.764V63.272C170.466 63.5613 170.144 63.776 169.798 63.916C169.453 64.056 169.08 64.126 168.678 64.126ZM167.67 61.956C167.67 62.2827 167.801 62.5393 168.062 62.726C168.324 62.9127 168.674 63.006 169.112 63.006C169.43 63.006 169.724 62.9593 169.994 62.866C170.274 62.7633 170.531 62.614 170.764 62.418V61.284C170.522 61.172 170.27 61.088 170.008 61.032C169.747 60.976 169.462 60.948 169.154 60.948C168.697 60.948 168.333 61.0367 168.062 61.214C167.801 61.3913 167.67 61.6387 167.67 61.956ZM177.067 64.14C176.357 64.14 175.821 63.9767 175.457 63.65C175.093 63.314 174.91 62.824 174.91 62.18V58.246H173.511V56.986H174.91V55.054L176.493 54.718V56.986H178.439V58.246H176.493V61.83C176.493 62.1753 176.567 62.4227 176.717 62.572C176.866 62.712 177.118 62.782 177.473 62.782C177.631 62.782 177.776 62.7727 177.907 62.754C178.047 62.726 178.219 62.6793 178.425 62.614V63.944C178.229 64.0093 178.005 64.056 177.753 64.084C177.51 64.1213 177.281 64.14 177.067 64.14ZM182.97 64V56.986H184.552V64H182.97ZM183.768 55.558C183.497 55.558 183.264 55.4647 183.068 55.278C182.881 55.082 182.788 54.8533 182.788 54.592C182.788 54.3213 182.881 54.0927 183.068 53.906C183.264 53.71 183.497 53.612 183.768 53.612C184.039 53.612 184.267 53.71 184.454 53.906C184.65 54.0927 184.748 54.3167 184.748 54.578C184.748 54.8487 184.65 55.082 184.454 55.278C184.267 55.4647 184.039 55.558 183.768 55.558ZM188.891 64.14C188.294 64.14 187.734 64.0607 187.211 63.902C186.698 63.734 186.255 63.496 185.881 63.188L186.623 62.138C187.09 62.4273 187.491 62.6327 187.827 62.754C188.173 62.8753 188.523 62.936 188.877 62.936C189.297 62.936 189.638 62.8473 189.899 62.67C190.161 62.4927 190.291 62.264 190.291 61.984C190.291 61.7693 190.212 61.6013 190.053 61.48C189.904 61.3493 189.657 61.2513 189.311 61.186L188.079 60.976C187.398 60.8453 186.889 60.6213 186.553 60.304C186.217 59.9867 186.049 59.5667 186.049 59.044C186.049 58.6053 186.161 58.2273 186.385 57.91C186.619 57.5833 186.936 57.3313 187.337 57.154C187.748 56.9673 188.224 56.874 188.765 56.874C189.251 56.874 189.722 56.944 190.179 57.084C190.637 57.224 191.085 57.434 191.523 57.714L190.781 58.764C190.427 58.5307 190.072 58.3627 189.717 58.26C189.372 58.148 189.022 58.092 188.667 58.092C188.303 58.092 188.009 58.1667 187.785 58.316C187.571 58.456 187.463 58.652 187.463 58.904C187.463 59.128 187.533 59.3007 187.673 59.422C187.823 59.534 188.079 59.618 188.443 59.674L189.689 59.912C190.389 60.0333 190.907 60.2573 191.243 60.584C191.589 60.9013 191.761 61.326 191.761 61.858C191.761 62.2873 191.635 62.6747 191.383 63.02C191.131 63.3653 190.791 63.6407 190.361 63.846C189.932 64.042 189.442 64.14 188.891 64.14ZM196.355 64V56.986H197.937V58.498C198.142 57.966 198.408 57.56 198.735 57.28C199.062 57 199.44 56.86 199.869 56.86C200 56.8693 200.116 56.8833 200.219 56.902C200.322 56.9113 200.434 56.944 200.555 57V58.386C200.434 58.33 200.294 58.288 200.135 58.26C199.986 58.232 199.836 58.218 199.687 58.218C199.304 58.218 198.959 58.3207 198.651 58.526C198.352 58.7313 198.114 59.016 197.937 59.38V64H196.355ZM204.785 64.14C204.113 64.14 203.506 63.9813 202.965 63.664C202.424 63.3373 201.994 62.9033 201.677 62.362C201.36 61.8113 201.201 61.1907 201.201 60.5C201.201 59.8093 201.35 59.1933 201.649 58.652C201.948 58.1107 202.354 57.6813 202.867 57.364C203.39 57.0373 203.968 56.874 204.603 56.874C205.256 56.874 205.83 57.0327 206.325 57.35C206.829 57.6673 207.221 58.0967 207.501 58.638C207.79 59.1793 207.935 59.8 207.935 60.5V60.878H202.755C202.811 61.2607 202.932 61.6013 203.119 61.9C203.315 62.1893 203.562 62.418 203.861 62.586C204.169 62.754 204.5 62.838 204.855 62.838C205.182 62.838 205.49 62.782 205.779 62.67C206.078 62.5487 206.325 62.3853 206.521 62.18L207.557 63.118C207.128 63.4727 206.689 63.734 206.241 63.902C205.802 64.0607 205.317 64.14 204.785 64.14ZM202.769 59.898H206.437C206.381 59.562 206.264 59.2633 206.087 59.002C205.919 58.7407 205.704 58.5353 205.443 58.386C205.191 58.2367 204.911 58.162 204.603 58.162C204.295 58.162 204.01 58.2367 203.749 58.386C203.497 58.526 203.287 58.7267 203.119 58.988C202.951 59.2493 202.834 59.5527 202.769 59.898ZM211.608 64.126C211.123 64.126 210.689 64.0373 210.306 63.86C209.933 63.6733 209.639 63.4213 209.424 63.104C209.219 62.7773 209.116 62.404 209.116 61.984C209.116 61.564 209.223 61.2 209.438 60.892C209.662 60.584 209.975 60.346 210.376 60.178C210.777 60.01 211.253 59.926 211.804 59.926C212.131 59.926 212.453 59.9633 212.77 60.038C213.087 60.1033 213.395 60.2153 213.694 60.374V59.59C213.694 59.1233 213.559 58.7733 213.288 58.54C213.027 58.3067 212.625 58.19 212.084 58.19C211.795 58.19 211.482 58.2367 211.146 58.33C210.819 58.414 210.451 58.5493 210.04 58.736L209.48 57.588C210.507 57.112 211.477 56.874 212.392 56.874C213.307 56.874 214.011 57.098 214.506 57.546C215.01 57.9847 215.262 58.61 215.262 59.422V64H213.694V63.272C213.395 63.5613 213.073 63.776 212.728 63.916C212.383 64.056 212.009 64.126 211.608 64.126ZM210.6 61.956C210.6 62.2827 210.731 62.5393 210.992 62.726C211.253 62.9127 211.603 63.006 212.042 63.006C212.359 63.006 212.653 62.9593 212.924 62.866C213.204 62.7633 213.461 62.614 213.694 62.418V61.284C213.451 61.172 213.199 61.088 212.938 61.032C212.677 60.976 212.392 60.948 212.084 60.948C211.627 60.948 211.263 61.0367 210.992 61.214C210.731 61.3913 210.6 61.6387 210.6 61.956ZM217.177 64V53.962L218.759 53.682V64H217.177ZM220.705 64V53.962L222.287 53.682V64H220.705ZM224.736 67.066C224.484 67.066 224.223 67.0333 223.952 66.968V65.596C224.045 65.6147 224.143 65.6287 224.246 65.638C224.358 65.6473 224.465 65.652 224.568 65.652C224.848 65.652 225.077 65.5867 225.254 65.456C225.431 65.3253 225.581 65.1247 225.702 64.854L226.024 64.07L223.378 56.986H225.128L226.92 62.18L228.866 56.986H230.602L227.242 65.218C227.065 65.666 226.864 66.0253 226.64 66.296C226.416 66.5667 226.15 66.7627 225.842 66.884C225.543 67.0053 225.175 67.066 224.736 67.066ZM234.896 64V53.962L236.478 53.682V64H234.896ZM241.629 64.126C240.967 64.126 240.365 63.9673 239.823 63.65C239.291 63.3327 238.871 62.9033 238.563 62.362C238.255 61.8113 238.101 61.1907 238.101 60.5C238.101 59.8093 238.255 59.1933 238.563 58.652C238.871 58.1013 239.291 57.6673 239.823 57.35C240.355 57.0327 240.957 56.874 241.629 56.874C242.301 56.874 242.899 57.0327 243.421 57.35C243.953 57.6673 244.373 58.1013 244.681 58.652C244.989 59.1933 245.143 59.8093 245.143 60.5C245.143 61.1907 244.989 61.8113 244.681 62.362C244.373 62.9033 243.953 63.3327 243.421 63.65C242.899 63.9673 242.301 64.126 241.629 64.126ZM241.629 62.782C242.012 62.782 242.348 62.684 242.637 62.488C242.936 62.292 243.169 62.0213 243.337 61.676C243.505 61.3213 243.589 60.9293 243.589 60.5C243.589 60.0613 243.505 59.674 243.337 59.338C243.169 58.9927 242.936 58.722 242.637 58.526C242.348 58.3207 242.012 58.218 241.629 58.218C241.247 58.218 240.906 58.3207 240.607 58.526C240.309 58.722 240.075 58.9927 239.907 59.338C239.739 59.674 239.655 60.0613 239.655 60.5C239.655 60.9387 239.739 61.3307 239.907 61.676C240.075 62.0213 240.309 62.292 240.607 62.488C240.906 62.684 241.247 62.782 241.629 62.782ZM246.777 64V56.986H248.359V58.134C248.63 57.714 248.952 57.4013 249.325 57.196C249.698 56.9813 250.114 56.874 250.571 56.874C251.056 56.874 251.481 56.9813 251.845 57.196C252.209 57.4013 252.494 57.6907 252.699 58.064C252.914 58.4373 253.021 58.876 253.021 59.38V64H251.425V59.828C251.425 59.3147 251.285 58.9087 251.005 58.61C250.725 58.302 250.352 58.148 249.885 58.148C249.568 58.148 249.278 58.2227 249.017 58.372C248.765 58.512 248.546 58.722 248.359 59.002V64H246.777ZM258.201 67.066C257.707 67.066 257.217 67.0053 256.731 66.884C256.246 66.7627 255.798 66.5947 255.387 66.38L255.933 65.218C256.353 65.414 256.736 65.5587 257.081 65.652C257.436 65.7547 257.786 65.806 258.131 65.806C258.719 65.806 259.163 65.6753 259.461 65.414C259.769 65.1527 259.923 64.7653 259.923 64.252V63.062C259.671 63.37 259.359 63.6127 258.985 63.79C258.612 63.958 258.206 64.042 257.767 64.042C257.179 64.042 256.647 63.8833 256.171 63.566C255.695 63.2393 255.313 62.81 255.023 62.278C254.743 61.7367 254.603 61.1347 254.603 60.472C254.603 59.8093 254.748 59.212 255.037 58.68C255.327 58.148 255.719 57.7233 256.213 57.406C256.717 57.0887 257.273 56.93 257.879 56.93C258.29 56.93 258.673 57.0093 259.027 57.168C259.382 57.3267 259.685 57.56 259.937 57.868V56.986H261.505V64.252C261.505 65.1573 261.221 65.8527 260.651 66.338C260.082 66.8233 259.265 67.066 258.201 67.066ZM258.257 62.726C258.593 62.726 258.906 62.6607 259.195 62.53C259.485 62.39 259.727 62.1987 259.923 61.956V59.016C259.718 58.7733 259.471 58.5867 259.181 58.456C258.892 58.3253 258.584 58.26 258.257 58.26C257.856 58.26 257.497 58.358 257.179 58.554C256.871 58.7407 256.624 59.002 256.437 59.338C256.251 59.6647 256.157 60.0473 256.157 60.486C256.157 60.906 256.251 61.2887 256.437 61.634C256.624 61.97 256.871 62.236 257.179 62.432C257.497 62.628 257.856 62.726 258.257 62.726ZM267.833 64L265.943 56.986H267.455L268.687 61.928L270.143 56.986H271.473L272.915 61.928L274.147 56.986H275.617L273.727 64H272.215L270.787 59.058L269.373 64H267.833ZM276.896 64V56.986H278.478V64H276.896ZM277.694 55.558C277.423 55.558 277.19 55.4647 276.994 55.278C276.807 55.082 276.714 54.8533 276.714 54.592C276.714 54.3213 276.807 54.0927 276.994 53.906C277.19 53.71 277.423 53.612 277.694 53.612C277.964 53.612 278.193 53.71 278.38 53.906C278.576 54.0927 278.674 54.3167 278.674 54.578C278.674 54.8487 278.576 55.082 278.38 55.278C278.193 55.4647 277.964 55.558 277.694 55.558ZM283.461 64.14C282.752 64.14 282.215 63.9767 281.851 63.65C281.487 63.314 281.305 62.824 281.305 62.18V58.246H279.905V56.986H281.305V55.054L282.887 54.718V56.986H284.833V58.246H282.887V61.83C282.887 62.1753 282.962 62.4227 283.111 62.572C283.26 62.712 283.512 62.782 283.867 62.782C284.026 62.782 284.17 62.7727 284.301 62.754C284.441 62.726 284.614 62.6793 284.819 62.614V63.944C284.623 64.0093 284.399 64.056 284.147 64.084C283.904 64.1213 283.676 64.14 283.461 64.14ZM286.234 64V53.962L287.816 53.682V58.134C288.087 57.714 288.409 57.4013 288.782 57.196C289.155 56.9813 289.571 56.874 290.028 56.874C290.513 56.874 290.938 56.9813 291.302 57.196C291.666 57.4013 291.951 57.6907 292.156 58.064C292.371 58.4373 292.478 58.876 292.478 59.38V64H290.882V59.828C290.882 59.3147 290.742 58.9087 290.462 58.61C290.182 58.302 289.809 58.148 289.342 58.148C289.025 58.148 288.735 58.2227 288.474 58.372C288.222 58.512 288.003 58.722 287.816 59.002V64H286.234ZM299.655 64.126C299.17 64.126 298.736 64.0373 298.353 63.86C297.98 63.6733 297.686 63.4213 297.471 63.104C297.266 62.7773 297.163 62.404 297.163 61.984C297.163 61.564 297.27 61.2 297.485 60.892C297.709 60.584 298.022 60.346 298.423 60.178C298.824 60.01 299.3 59.926 299.851 59.926C300.178 59.926 300.5 59.9633 300.817 60.038C301.134 60.1033 301.442 60.2153 301.741 60.374V59.59C301.741 59.1233 301.606 58.7733 301.335 58.54C301.074 58.3067 300.672 58.19 300.131 58.19C299.842 58.19 299.529 58.2367 299.193 58.33C298.866 58.414 298.498 58.5493 298.087 58.736L297.527 57.588C298.554 57.112 299.524 56.874 300.439 56.874C301.354 56.874 302.058 57.098 302.553 57.546C303.057 57.9847 303.309 58.61 303.309 59.422V64H301.741V63.272C301.442 63.5613 301.12 63.776 300.775 63.916C300.43 64.056 300.056 64.126 299.655 64.126ZM298.647 61.956C298.647 62.2827 298.778 62.5393 299.039 62.726C299.3 62.9127 299.65 63.006 300.089 63.006C300.406 63.006 300.7 62.9593 300.971 62.866C301.251 62.7633 301.508 62.614 301.741 62.418V61.284C301.498 61.172 301.246 61.088 300.985 61.032C300.724 60.976 300.439 60.948 300.131 60.948C299.674 60.948 299.31 61.0367 299.039 61.214C298.778 61.3913 298.647 61.6387 298.647 61.956ZM311.393 64.14C310.683 64.14 310.147 63.9767 309.783 63.65C309.419 63.314 309.237 62.824 309.237 62.18V58.246H307.837V56.986H309.237V55.054L310.819 54.718V56.986H312.765V58.246H310.819V61.83C310.819 62.1753 310.893 62.4227 311.043 62.572C311.192 62.712 311.444 62.782 311.799 62.782C311.957 62.782 312.102 62.7727 312.233 62.754C312.373 62.726 312.545 62.6793 312.751 62.614V63.944C312.555 64.0093 312.331 64.056 312.079 64.084C311.836 64.1213 311.607 64.14 311.393 64.14ZM314.166 64V56.986H315.748V58.498C315.953 57.966 316.219 57.56 316.546 57.28C316.872 57 317.25 56.86 317.68 56.86C317.81 56.8693 317.927 56.8833 318.03 56.902C318.132 56.9113 318.244 56.944 318.366 57V58.386C318.244 58.33 318.104 58.288 317.946 58.26C317.796 58.232 317.647 58.218 317.498 58.218C317.115 58.218 316.77 58.3207 316.462 58.526C316.163 58.7313 315.925 59.016 315.748 59.38V64H314.166ZM321.987 64.112C321.502 64.112 321.077 64.0047 320.713 63.79C320.349 63.5753 320.06 63.2813 319.845 62.908C319.64 62.5347 319.537 62.1007 319.537 61.606V56.986H321.133V61.144C321.133 61.6667 321.269 62.082 321.539 62.39C321.819 62.6887 322.197 62.838 322.673 62.838C322.991 62.838 323.275 62.768 323.527 62.628C323.789 62.488 324.013 62.278 324.199 61.998V56.986H325.781V64H324.199V62.866C323.929 63.2767 323.607 63.5893 323.233 63.804C322.86 64.0093 322.445 64.112 321.987 64.112ZM327.742 64V56.986H329.324V58.134C329.594 57.714 329.916 57.4013 330.29 57.196C330.663 56.9813 331.078 56.874 331.536 56.874C332.021 56.874 332.446 56.9813 332.81 57.196C333.174 57.4013 333.458 57.6907 333.664 58.064C333.878 58.4373 333.986 58.876 333.986 59.38V64H332.39V59.828C332.39 59.3147 332.25 58.9087 331.97 58.61C331.69 58.302 331.316 58.148 330.85 58.148C330.532 58.148 330.243 58.2227 329.982 58.372C329.73 58.512 329.51 58.722 329.324 59.002V64H327.742ZM339.11 64.126C338.447 64.126 337.845 63.9673 337.304 63.65C336.772 63.3233 336.347 62.8847 336.03 62.334C335.722 61.7833 335.568 61.172 335.568 60.5C335.568 59.8187 335.722 59.2073 336.03 58.666C336.347 58.1153 336.772 57.6813 337.304 57.364C337.845 57.0373 338.447 56.874 339.11 56.874C339.651 56.874 340.165 56.9767 340.65 57.182C341.145 57.3873 341.565 57.6813 341.91 58.064L340.93 59.086C340.687 58.8153 340.417 58.61 340.118 58.47C339.819 58.33 339.502 58.26 339.166 58.26C338.783 58.26 338.438 58.3627 338.13 58.568C337.831 58.764 337.593 59.03 337.416 59.366C337.239 59.702 337.15 60.08 337.15 60.5C337.15 60.92 337.239 61.3027 337.416 61.648C337.593 61.984 337.831 62.25 338.13 62.446C338.438 62.642 338.783 62.74 339.166 62.74C339.502 62.74 339.819 62.67 340.118 62.53C340.417 62.39 340.687 62.1893 340.93 61.928L341.91 62.936C341.565 63.3187 341.145 63.6127 340.65 63.818C340.165 64.0233 339.651 64.126 339.11 64.126ZM345.346 64.126C344.861 64.126 344.427 64.0373 344.044 63.86C343.671 63.6733 343.377 63.4213 343.162 63.104C342.957 62.7773 342.854 62.404 342.854 61.984C342.854 61.564 342.962 61.2 343.176 60.892C343.4 60.584 343.713 60.346 344.114 60.178C344.516 60.01 344.992 59.926 345.542 59.926C345.869 59.926 346.191 59.9633 346.508 60.038C346.826 60.1033 347.134 60.2153 347.432 60.374V59.59C347.432 59.1233 347.297 58.7733 347.026 58.54C346.765 58.3067 346.364 58.19 345.822 58.19C345.533 58.19 345.22 58.2367 344.884 58.33C344.558 58.414 344.189 58.5493 343.778 58.736L343.218 57.588C344.245 57.112 345.216 56.874 346.13 56.874C347.045 56.874 347.75 57.098 348.244 57.546C348.748 57.9847 349 58.61 349 59.422V64H347.432V63.272C347.134 63.5613 346.812 63.776 346.466 63.916C346.121 64.056 345.748 64.126 345.346 64.126ZM344.338 61.956C344.338 62.2827 344.469 62.5393 344.73 62.726C344.992 62.9127 345.342 63.006 345.78 63.006C346.098 63.006 346.392 62.9593 346.662 62.866C346.942 62.7633 347.199 62.614 347.432 62.418V61.284C347.19 61.172 346.938 61.088 346.676 61.032C346.415 60.976 346.13 60.948 345.822 60.948C345.365 60.948 345.001 61.0367 344.73 61.214C344.469 61.3913 344.338 61.6387 344.338 61.956ZM353.734 64.14C353.025 64.14 352.488 63.9767 352.124 63.65C351.76 63.314 351.578 62.824 351.578 62.18V58.246H350.178V56.986H351.578V55.054L353.16 54.718V56.986H355.106V58.246H353.16V61.83C353.16 62.1753 353.235 62.4227 353.384 62.572C353.534 62.712 353.786 62.782 354.14 62.782C354.299 62.782 354.444 62.7727 354.574 62.754C354.714 62.726 354.887 62.6793 355.092 62.614V63.944C354.896 64.0093 354.672 64.056 354.42 64.084C354.178 64.1213 353.949 64.14 353.734 64.14ZM359.66 64.14C358.988 64.14 358.381 63.9813 357.84 63.664C357.299 63.3373 356.869 62.9033 356.552 62.362C356.235 61.8113 356.076 61.1907 356.076 60.5C356.076 59.8093 356.225 59.1933 356.524 58.652C356.823 58.1107 357.229 57.6813 357.742 57.364C358.265 57.0373 358.843 56.874 359.478 56.874C360.131 56.874 360.705 57.0327 361.2 57.35C361.704 57.6673 362.096 58.0967 362.376 58.638C362.665 59.1793 362.81 59.8 362.81 60.5V60.878H357.63C357.686 61.2607 357.807 61.6013 357.994 61.9C358.19 62.1893 358.437 62.418 358.736 62.586C359.044 62.754 359.375 62.838 359.73 62.838C360.057 62.838 360.365 62.782 360.654 62.67C360.953 62.5487 361.2 62.3853 361.396 62.18L362.432 63.118C362.003 63.4727 361.564 63.734 361.116 63.902C360.677 64.0607 360.192 64.14 359.66 64.14ZM357.644 59.898H361.312C361.256 59.562 361.139 59.2633 360.962 59.002C360.794 58.7407 360.579 58.5353 360.318 58.386C360.066 58.2367 359.786 58.162 359.478 58.162C359.17 58.162 358.885 58.2367 358.624 58.386C358.372 58.526 358.162 58.7267 357.994 58.988C357.826 59.2493 357.709 59.5527 357.644 59.898ZM364.838 64.126C364.567 64.126 364.334 64.028 364.138 63.832C363.951 63.6267 363.858 63.3887 363.858 63.118C363.858 62.8287 363.951 62.586 364.138 62.39C364.334 62.194 364.567 62.096 364.838 62.096C365.109 62.096 365.337 62.194 365.524 62.39C365.72 62.586 365.818 62.8287 365.818 63.118C365.818 63.3887 365.72 63.6267 365.524 63.832C365.337 64.028 365.109 64.126 364.838 64.126ZM368.338 64.126C368.067 64.126 367.834 64.028 367.638 63.832C367.451 63.6267 367.358 63.3887 367.358 63.118C367.358 62.8287 367.451 62.586 367.638 62.39C367.834 62.194 368.067 62.096 368.338 62.096C368.609 62.096 368.837 62.194 369.024 62.39C369.22 62.586 369.318 62.8287 369.318 63.118C369.318 63.3887 369.22 63.6267 369.024 63.832C368.837 64.028 368.609 64.126 368.338 64.126ZM371.838 64.126C371.567 64.126 371.334 64.028 371.138 63.832C370.951 63.6267 370.858 63.3887 370.858 63.118C370.858 62.8287 370.951 62.586 371.138 62.39C371.334 62.194 371.567 62.096 371.838 62.096C372.109 62.096 372.337 62.194 372.524 62.39C372.72 62.586 372.818 62.8287 372.818 63.118C372.818 63.3887 372.72 63.6267 372.524 63.832C372.337 64.028 372.109 64.126 371.838 64.126Z" fill="#151515"/>
<path d="M68.78 89V80.152H65.392V79.2H73.246V80.152H69.858V89H68.78ZM74.6906 89V78.892L75.7126 78.682V83.274C75.974 82.8633 76.2866 82.56 76.6506 82.364C77.0146 82.1587 77.4253 82.056 77.8826 82.056C78.3773 82.056 78.8066 82.1633 79.1706 82.378C79.544 82.5833 79.8333 82.8773 80.0386 83.26C80.2533 83.6333 80.3606 84.072 80.3606 84.576V89H79.3386V84.87C79.3386 84.2633 79.1706 83.7873 78.8346 83.442C78.508 83.0873 78.0646 82.91 77.5046 82.91C77.1313 82.91 76.7906 82.9987 76.4826 83.176C76.1746 83.3533 75.918 83.6147 75.7126 83.96V89H74.6906ZM82.4012 89V82.168H83.4232V89H82.4012ZM82.9192 80.474C82.7139 80.474 82.5366 80.404 82.3872 80.264C82.2472 80.1147 82.1772 79.942 82.1772 79.746C82.1772 79.55 82.2472 79.382 82.3872 79.242C82.5366 79.0927 82.7139 79.018 82.9192 79.018C83.1246 79.018 83.2972 79.0927 83.4372 79.242C83.5866 79.382 83.6612 79.55 83.6612 79.746C83.6612 79.942 83.5866 80.1147 83.4372 80.264C83.2972 80.404 83.1246 80.474 82.9192 80.474ZM87.6328 89.14C87.0728 89.14 86.5548 89.056 86.0788 88.888C85.6028 88.7107 85.1968 88.4587 84.8608 88.132L85.4068 87.46C85.8174 87.7587 86.1954 87.978 86.5408 88.118C86.8861 88.2487 87.2408 88.314 87.6048 88.314C88.0994 88.314 88.5101 88.1973 88.8368 87.964C89.1634 87.7307 89.3268 87.432 89.3268 87.068C89.3268 86.788 89.2288 86.5687 89.0328 86.41C88.8461 86.2513 88.5334 86.13 88.0948 86.046L86.9748 85.85C86.3121 85.7287 85.8221 85.5233 85.5048 85.234C85.1968 84.9447 85.0428 84.5527 85.0428 84.058C85.0428 83.666 85.1454 83.3207 85.3508 83.022C85.5654 82.7233 85.8594 82.49 86.2328 82.322C86.6061 82.1447 87.0308 82.056 87.5068 82.056C87.9734 82.056 88.4168 82.126 88.8368 82.266C89.2568 82.3967 89.6814 82.6113 90.1108 82.91L89.6068 83.624C89.2521 83.372 88.8974 83.19 88.5428 83.078C88.1881 82.9567 87.8288 82.896 87.4648 82.896C87.0168 82.896 86.6574 82.994 86.3868 83.19C86.1161 83.386 85.9808 83.652 85.9808 83.988C85.9808 84.268 86.0648 84.4827 86.2328 84.632C86.4101 84.7813 86.7181 84.8933 87.1568 84.968L88.3048 85.178C88.9954 85.2993 89.4994 85.5093 89.8168 85.808C90.1341 86.1067 90.2928 86.508 90.2928 87.012C90.2928 87.4133 90.1761 87.7773 89.9428 88.104C89.7094 88.4213 89.3921 88.6733 88.9908 88.86C88.5894 89.0467 88.1368 89.14 87.6328 89.14ZM95.1024 89V82.168H96.1244V89H95.1024ZM95.6204 80.474C95.4151 80.474 95.2377 80.404 95.0884 80.264C94.9484 80.1147 94.8784 79.942 94.8784 79.746C94.8784 79.55 94.9484 79.382 95.0884 79.242C95.2377 79.0927 95.4151 79.018 95.6204 79.018C95.8257 79.018 95.9984 79.0927 96.1384 79.242C96.2877 79.382 96.3624 79.55 96.3624 79.746C96.3624 79.942 96.2877 80.1147 96.1384 80.264C95.9984 80.404 95.8257 80.474 95.6204 80.474ZM100.334 89.14C99.7739 89.14 99.2559 89.056 98.7799 88.888C98.3039 88.7107 97.8979 88.4587 97.5619 88.132L98.1079 87.46C98.5186 87.7587 98.8966 87.978 99.2419 88.118C99.5873 88.2487 99.9419 88.314 100.306 88.314C100.801 88.314 101.211 88.1973 101.538 87.964C101.865 87.7307 102.028 87.432 102.028 87.068C102.028 86.788 101.93 86.5687 101.734 86.41C101.547 86.2513 101.235 86.13 100.796 86.046L99.6759 85.85C99.0133 85.7287 98.5233 85.5233 98.2059 85.234C97.8979 84.9447 97.7439 84.5527 97.7439 84.058C97.7439 83.666 97.8466 83.3207 98.0519 83.022C98.2666 82.7233 98.5606 82.49 98.9339 82.322C99.3073 82.1447 99.7319 82.056 100.208 82.056C100.675 82.056 101.118 82.126 101.538 82.266C101.958 82.3967 102.383 82.6113 102.812 82.91L102.308 83.624C101.953 83.372 101.599 83.19 101.244 83.078C100.889 82.9567 100.53 82.896 100.166 82.896C99.7179 82.896 99.3586 82.994 99.0879 83.19C98.8173 83.386 98.6819 83.652 98.6819 83.988C98.6819 84.268 98.7659 84.4827 98.9339 84.632C99.1113 84.7813 99.4193 84.8933 99.8579 84.968L101.006 85.178C101.697 85.2993 102.201 85.5093 102.518 85.808C102.835 86.1067 102.994 86.508 102.994 87.012C102.994 87.4133 102.877 87.7773 102.644 88.104C102.411 88.4213 102.093 88.6733 101.692 88.86C101.291 89.0467 100.838 89.14 100.334 89.14ZM109.932 89.126C109.446 89.126 109.017 89.0373 108.644 88.86C108.27 88.6827 107.976 88.44 107.762 88.132C107.556 87.8147 107.454 87.4507 107.454 87.04C107.454 86.6293 107.561 86.2747 107.776 85.976C107.99 85.668 108.289 85.43 108.672 85.262C109.054 85.094 109.502 85.01 110.016 85.01C110.408 85.01 110.776 85.052 111.122 85.136C111.476 85.22 111.803 85.3553 112.102 85.542V84.604C112.102 84.044 111.952 83.624 111.654 83.344C111.355 83.0547 110.916 82.91 110.338 82.91C110.02 82.91 109.694 82.9567 109.358 83.05C109.031 83.1433 108.667 83.2927 108.266 83.498L107.888 82.714C108.802 82.2753 109.661 82.056 110.464 82.056C111.313 82.056 111.966 82.266 112.424 82.686C112.881 83.0967 113.11 83.6893 113.11 84.464V89H112.102V88.202C111.803 88.51 111.472 88.7433 111.108 88.902C110.744 89.0513 110.352 89.126 109.932 89.126ZM108.434 87.012C108.434 87.4133 108.588 87.7353 108.896 87.978C109.213 88.2207 109.628 88.342 110.142 88.342C110.524 88.342 110.874 88.2767 111.192 88.146C111.518 88.0153 111.822 87.8193 112.102 87.558V86.242C111.812 86.074 111.514 85.9527 111.206 85.878C110.898 85.794 110.552 85.752 110.17 85.752C109.647 85.752 109.227 85.8687 108.91 86.102C108.592 86.326 108.434 86.6293 108.434 87.012ZM119.672 89L117.796 82.168H118.79L120.218 87.628L121.856 82.168H122.766L124.404 87.628L125.818 82.168H126.784L124.922 89H123.928L122.304 83.484L120.68 89H119.672ZM130.275 89.126C129.79 89.126 129.361 89.0373 128.987 88.86C128.614 88.6827 128.32 88.44 128.105 88.132C127.9 87.8147 127.797 87.4507 127.797 87.04C127.797 86.6293 127.905 86.2747 128.119 85.976C128.334 85.668 128.633 85.43 129.015 85.262C129.398 85.094 129.846 85.01 130.359 85.01C130.751 85.01 131.12 85.052 131.465 85.136C131.82 85.22 132.147 85.3553 132.445 85.542V84.604C132.445 84.044 132.296 83.624 131.997 83.344C131.699 83.0547 131.26 82.91 130.681 82.91C130.364 82.91 130.037 82.9567 129.701 83.05C129.375 83.1433 129.011 83.2927 128.609 83.498L128.231 82.714C129.146 82.2753 130.005 82.056 130.807 82.056C131.657 82.056 132.31 82.266 132.767 82.686C133.225 83.0967 133.453 83.6893 133.453 84.464V89H132.445V88.202C132.147 88.51 131.815 88.7433 131.451 88.902C131.087 89.0513 130.695 89.126 130.275 89.126ZM128.777 87.012C128.777 87.4133 128.931 87.7353 129.239 87.978C129.557 88.2207 129.972 88.342 130.485 88.342C130.868 88.342 131.218 88.2767 131.535 88.146C131.862 88.0153 132.165 87.8193 132.445 87.558V86.242C132.156 86.074 131.857 85.9527 131.549 85.878C131.241 85.794 130.896 85.752 130.513 85.752C129.991 85.752 129.571 85.8687 129.253 86.102C128.936 86.326 128.777 86.6293 128.777 87.012ZM135.53 89V82.168H136.552V83.568C136.73 83.092 136.982 82.7233 137.308 82.462C137.644 82.1913 138.027 82.056 138.456 82.056C138.578 82.056 138.69 82.0653 138.792 82.084C138.895 82.0933 138.998 82.1167 139.1 82.154V83.078C138.988 83.0407 138.867 83.0127 138.736 82.994C138.615 82.966 138.498 82.952 138.386 82.952C137.966 82.952 137.598 83.0733 137.28 83.316C136.972 83.5587 136.73 83.8993 136.552 84.338V89H135.53ZM140.452 89V82.168H141.474V83.274C141.736 82.8633 142.048 82.56 142.412 82.364C142.776 82.1587 143.187 82.056 143.644 82.056C144.139 82.056 144.568 82.1633 144.932 82.378C145.306 82.5833 145.595 82.8773 145.8 83.26C146.015 83.6333 146.122 84.072 146.122 84.576V89H145.1V84.87C145.1 84.2633 144.932 83.7873 144.596 83.442C144.27 83.0873 143.826 82.91 143.266 82.91C142.893 82.91 142.552 82.9987 142.244 83.176C141.936 83.3533 141.68 83.6147 141.474 83.96V89H140.452ZM148.163 89V82.168H149.185V89H148.163ZM148.681 80.474C148.476 80.474 148.298 80.404 148.149 80.264C148.009 80.1147 147.939 79.942 147.939 79.746C147.939 79.55 148.009 79.382 148.149 79.242C148.298 79.0927 148.476 79.018 148.681 79.018C148.886 79.018 149.059 79.0927 149.199 79.242C149.348 79.382 149.423 79.55 149.423 79.746C149.423 79.942 149.348 80.1147 149.199 80.264C149.059 80.404 148.886 80.474 148.681 80.474ZM151.28 89V82.168H152.302V83.274C152.564 82.8633 152.876 82.56 153.24 82.364C153.604 82.1587 154.015 82.056 154.472 82.056C154.967 82.056 155.396 82.1633 155.76 82.378C156.134 82.5833 156.423 82.8773 156.628 83.26C156.843 83.6333 156.95 84.072 156.95 84.576V89H155.928V84.87C155.928 84.2633 155.76 83.7873 155.424 83.442C155.098 83.0873 154.654 82.91 154.094 82.91C153.721 82.91 153.38 82.9987 153.072 83.176C152.764 83.3533 152.508 83.6147 152.302 83.96V89H151.28ZM162.169 92.066C161.712 92.066 161.25 92.0007 160.783 91.87C160.326 91.7487 159.901 91.576 159.509 91.352L159.943 90.568C160.363 90.7827 160.746 90.9413 161.091 91.044C161.436 91.1467 161.782 91.198 162.127 91.198C162.752 91.198 163.224 91.0487 163.541 90.75C163.868 90.4513 164.031 90.0173 164.031 89.448V88.076C163.77 88.4027 163.452 88.6547 163.079 88.832C162.706 89 162.295 89.084 161.847 89.084C161.259 89.084 160.727 88.93 160.251 88.622C159.775 88.3047 159.397 87.8847 159.117 87.362C158.837 86.83 158.697 86.2373 158.697 85.584C158.697 84.9307 158.837 84.3427 159.117 83.82C159.406 83.288 159.794 82.868 160.279 82.56C160.764 82.2427 161.306 82.084 161.903 82.084C162.332 82.084 162.729 82.168 163.093 82.336C163.457 82.4947 163.774 82.7327 164.045 83.05V82.168H165.053V89.434C165.053 90.2833 164.806 90.932 164.311 91.38C163.816 91.8373 163.102 92.066 162.169 92.066ZM162.099 88.202C162.5 88.202 162.869 88.1227 163.205 87.964C163.541 87.796 163.816 87.5673 164.031 87.278V83.904C163.807 83.6147 163.522 83.3907 163.177 83.232C162.841 83.064 162.482 82.98 162.099 82.98C161.642 82.98 161.231 83.092 160.867 83.316C160.512 83.54 160.228 83.848 160.013 84.24C159.808 84.632 159.705 85.08 159.705 85.584C159.705 86.0787 159.808 86.5267 160.013 86.928C160.228 87.32 160.512 87.6327 160.867 87.866C161.231 88.09 161.642 88.202 162.099 88.202ZM172.535 89.126C172.05 89.126 171.62 89.0373 171.247 88.86C170.874 88.6827 170.58 88.44 170.365 88.132C170.16 87.8147 170.057 87.4507 170.057 87.04C170.057 86.6293 170.164 86.2747 170.379 85.976C170.594 85.668 170.892 85.43 171.275 85.262C171.658 85.094 172.106 85.01 172.619 85.01C173.011 85.01 173.38 85.052 173.725 85.136C174.08 85.22 174.406 85.3553 174.705 85.542V84.604C174.705 84.044 174.556 83.624 174.257 83.344C173.958 83.0547 173.52 82.91 172.941 82.91C172.624 82.91 172.297 82.9567 171.961 83.05C171.634 83.1433 171.27 83.2927 170.869 83.498L170.491 82.714C171.406 82.2753 172.264 82.056 173.067 82.056C173.916 82.056 174.57 82.266 175.027 82.686C175.484 83.0967 175.713 83.6893 175.713 84.464V89H174.705V88.202C174.406 88.51 174.075 88.7433 173.711 88.902C173.347 89.0513 172.955 89.126 172.535 89.126ZM171.037 87.012C171.037 87.4133 171.191 87.7353 171.499 87.978C171.816 88.2207 172.232 88.342 172.745 88.342C173.128 88.342 173.478 88.2767 173.795 88.146C174.122 88.0153 174.425 87.8193 174.705 87.558V86.242C174.416 86.074 174.117 85.9527 173.809 85.878C173.501 85.794 173.156 85.752 172.773 85.752C172.25 85.752 171.83 85.8687 171.513 86.102C171.196 86.326 171.037 86.6293 171.037 87.012ZM177.79 89V78.892L178.812 78.682V89H177.79ZM183.987 89.14C183.353 89.14 182.779 88.986 182.265 88.678C181.752 88.3607 181.346 87.936 181.047 87.404C180.749 86.8627 180.599 86.256 180.599 85.584C180.599 84.912 180.739 84.31 181.019 83.778C181.309 83.246 181.696 82.826 182.181 82.518C182.667 82.21 183.208 82.056 183.805 82.056C184.412 82.056 184.949 82.21 185.415 82.518C185.891 82.8167 186.265 83.2273 186.535 83.75C186.815 84.2633 186.955 84.8467 186.955 85.5V85.808H181.593C181.631 86.2747 181.757 86.6947 181.971 87.068C182.195 87.432 182.485 87.7213 182.839 87.936C183.203 88.1413 183.6 88.244 184.029 88.244C184.384 88.244 184.725 88.1833 185.051 88.062C185.387 87.9313 185.672 87.7587 185.905 87.544L186.549 88.23C186.157 88.538 185.751 88.7667 185.331 88.916C184.911 89.0653 184.463 89.14 183.987 89.14ZM181.621 85.08H185.947C185.901 84.6693 185.775 84.3053 185.569 83.988C185.373 83.6613 185.121 83.4047 184.813 83.218C184.515 83.0313 184.179 82.938 183.805 82.938C183.432 82.938 183.091 83.0313 182.783 83.218C182.475 83.3953 182.219 83.6473 182.013 83.974C181.817 84.2913 181.687 84.66 181.621 85.08ZM188.7 89V82.168H189.722V83.568C189.9 83.092 190.152 82.7233 190.478 82.462C190.814 82.1913 191.197 82.056 191.626 82.056C191.748 82.056 191.86 82.0653 191.962 82.084C192.065 82.0933 192.168 82.1167 192.27 82.154V83.078C192.158 83.0407 192.037 83.0127 191.906 82.994C191.785 82.966 191.668 82.952 191.556 82.952C191.136 82.952 190.768 83.0733 190.45 83.316C190.142 83.5587 189.9 83.8993 189.722 84.338V89H188.7ZM196.226 89.14C195.638 89.14 195.19 89 194.882 88.72C194.584 88.4307 194.434 88.0153 194.434 87.474V83.008H193.02V82.168H194.434V80.292L195.456 80.054V82.168H197.416V83.008H195.456V87.208C195.456 87.572 195.531 87.8333 195.68 87.992C195.839 88.1507 196.096 88.23 196.45 88.23C196.628 88.23 196.786 88.216 196.926 88.188C197.066 88.16 197.23 88.1133 197.416 88.048V88.958C197.23 89.0233 197.034 89.07 196.828 89.098C196.623 89.126 196.422 89.14 196.226 89.14ZM205.023 89.098C204.435 89.098 203.903 88.944 203.427 88.636C202.951 88.3187 202.573 87.8987 202.293 87.376C202.013 86.844 201.873 86.2513 201.873 85.598C201.873 84.9353 202.013 84.3427 202.293 83.82C202.582 83.288 202.97 82.868 203.455 82.56C203.94 82.2427 204.482 82.084 205.079 82.084C205.499 82.084 205.891 82.168 206.255 82.336C206.619 82.4947 206.936 82.728 207.207 83.036V78.892L208.229 78.682V89H207.207V88.09C206.946 88.4167 206.628 88.6687 206.255 88.846C205.882 89.014 205.471 89.098 205.023 89.098ZM205.275 88.202C205.676 88.202 206.045 88.1227 206.381 87.964C206.717 87.8053 206.992 87.5813 207.207 87.292V83.904C206.983 83.6147 206.698 83.3907 206.353 83.232C206.017 83.064 205.658 82.98 205.275 82.98C204.818 82.98 204.407 83.092 204.043 83.316C203.688 83.54 203.404 83.848 203.189 84.24C202.984 84.632 202.881 85.08 202.881 85.584C202.881 86.0787 202.984 86.5267 203.189 86.928C203.404 87.32 203.688 87.6327 204.043 87.866C204.407 88.09 204.818 88.202 205.275 88.202ZM213.409 89.14C212.775 89.14 212.201 88.986 211.687 88.678C211.174 88.3607 210.768 87.936 210.469 87.404C210.171 86.8627 210.021 86.256 210.021 85.584C210.021 84.912 210.161 84.31 210.441 83.778C210.731 83.246 211.118 82.826 211.603 82.518C212.089 82.21 212.63 82.056 213.227 82.056C213.834 82.056 214.371 82.21 214.837 82.518C215.313 82.8167 215.687 83.2273 215.957 83.75C216.237 84.2633 216.377 84.8467 216.377 85.5V85.808H211.015C211.053 86.2747 211.179 86.6947 211.393 87.068C211.617 87.432 211.907 87.7213 212.261 87.936C212.625 88.1413 213.022 88.244 213.451 88.244C213.806 88.244 214.147 88.1833 214.473 88.062C214.809 87.9313 215.094 87.7587 215.327 87.544L215.971 88.23C215.579 88.538 215.173 88.7667 214.753 88.916C214.333 89.0653 213.885 89.14 213.409 89.14ZM211.043 85.08H215.369C215.323 84.6693 215.197 84.3053 214.991 83.988C214.795 83.6613 214.543 83.4047 214.235 83.218C213.937 83.0313 213.601 82.938 213.227 82.938C212.854 82.938 212.513 83.0313 212.205 83.218C211.897 83.3953 211.641 83.6473 211.435 83.974C211.239 84.2913 211.109 84.66 211.043 85.08ZM220.305 89.14C219.745 89.14 219.227 89.056 218.751 88.888C218.275 88.7107 217.869 88.4587 217.533 88.132L218.079 87.46C218.489 87.7587 218.867 87.978 219.213 88.118C219.558 88.2487 219.913 88.314 220.277 88.314C220.771 88.314 221.182 88.1973 221.509 87.964C221.835 87.7307 221.999 87.432 221.999 87.068C221.999 86.788 221.901 86.5687 221.705 86.41C221.518 86.2513 221.205 86.13 220.767 86.046L219.647 85.85C218.984 85.7287 218.494 85.5233 218.177 85.234C217.869 84.9447 217.715 84.5527 217.715 84.058C217.715 83.666 217.817 83.3207 218.023 83.022C218.237 82.7233 218.531 82.49 218.905 82.322C219.278 82.1447 219.703 82.056 220.179 82.056C220.645 82.056 221.089 82.126 221.509 82.266C221.929 82.3967 222.353 82.6113 222.783 82.91L222.279 83.624C221.924 83.372 221.569 83.19 221.215 83.078C220.86 82.9567 220.501 82.896 220.137 82.896C219.689 82.896 219.329 82.994 219.059 83.19C218.788 83.386 218.653 83.652 218.653 83.988C218.653 84.268 218.737 84.4827 218.905 84.632C219.082 84.7813 219.39 84.8933 219.829 84.968L220.977 85.178C221.667 85.2993 222.171 85.5093 222.489 85.808C222.806 86.1067 222.965 86.508 222.965 87.012C222.965 87.4133 222.848 87.7773 222.615 88.104C222.381 88.4213 222.064 88.6733 221.663 88.86C221.261 89.0467 220.809 89.14 220.305 89.14ZM227.655 89.112C227.02 89.112 226.446 88.958 225.933 88.65C225.429 88.3327 225.028 87.908 224.729 87.376C224.43 86.8347 224.281 86.2373 224.281 85.584C224.281 84.9213 224.43 84.324 224.729 83.792C225.028 83.26 225.429 82.84 225.933 82.532C226.446 82.2147 227.02 82.056 227.655 82.056C228.159 82.056 228.64 82.1493 229.097 82.336C229.554 82.5227 229.951 82.784 230.287 83.12L229.629 83.834C229.386 83.5633 229.092 83.3533 228.747 83.204C228.402 83.0547 228.052 82.98 227.697 82.98C227.249 82.98 226.843 83.0967 226.479 83.33C226.124 83.5633 225.84 83.876 225.625 84.268C225.41 84.66 225.303 85.0987 225.303 85.584C225.303 86.0693 225.41 86.508 225.625 86.9C225.84 87.292 226.124 87.6047 226.479 87.838C226.843 88.0713 227.249 88.188 227.697 88.188C228.052 88.188 228.402 88.1133 228.747 87.964C229.092 87.8053 229.386 87.5953 229.629 87.334L230.287 88.048C229.951 88.384 229.554 88.6453 229.097 88.832C228.64 89.0187 228.159 89.112 227.655 89.112ZM231.712 89V82.168H232.734V83.568C232.911 83.092 233.163 82.7233 233.49 82.462C233.826 82.1913 234.209 82.056 234.638 82.056C234.759 82.056 234.871 82.0653 234.974 82.084C235.077 82.0933 235.179 82.1167 235.282 82.154V83.078C235.17 83.0407 235.049 83.0127 234.918 82.994C234.797 82.966 234.68 82.952 234.568 82.952C234.148 82.952 233.779 83.0733 233.462 83.316C233.154 83.5587 232.911 83.8993 232.734 84.338V89H231.712ZM236.62 89V82.168H237.642V89H236.62ZM237.138 80.474C236.933 80.474 236.755 80.404 236.606 80.264C236.466 80.1147 236.396 79.942 236.396 79.746C236.396 79.55 236.466 79.382 236.606 79.242C236.755 79.0927 236.933 79.018 237.138 79.018C237.343 79.018 237.516 79.0927 237.656 79.242C237.805 79.382 237.88 79.55 237.88 79.746C237.88 79.942 237.805 80.1147 237.656 80.264C237.516 80.404 237.343 80.474 237.138 80.474ZM239.738 91.926V82.168H240.745V83.148C241.007 82.8027 241.324 82.5413 241.698 82.364C242.08 82.1773 242.5 82.084 242.958 82.084C243.555 82.084 244.087 82.2427 244.554 82.56C245.03 82.868 245.408 83.288 245.688 83.82C245.968 84.3427 246.108 84.9307 246.108 85.584C246.108 86.2373 245.963 86.83 245.674 87.362C245.394 87.894 245.011 88.3187 244.526 88.636C244.05 88.944 243.508 89.098 242.902 89.098C242.472 89.098 242.076 89.0187 241.712 88.86C241.348 88.692 241.03 88.454 240.76 88.146V91.926H239.738ZM242.706 88.216C243.163 88.216 243.569 88.104 243.924 87.88C244.288 87.6467 244.572 87.334 244.778 86.942C244.992 86.5407 245.1 86.0927 245.1 85.598C245.1 85.094 244.992 84.646 244.778 84.254C244.572 83.862 244.288 83.554 243.924 83.33C243.569 83.0967 243.163 82.98 242.706 82.98C242.304 82.98 241.931 83.064 241.586 83.232C241.25 83.3907 240.974 83.6193 240.76 83.918V87.264C240.984 87.5627 241.264 87.796 241.6 87.964C241.945 88.132 242.314 88.216 242.706 88.216ZM250.08 89.14C249.492 89.14 249.044 89 248.736 88.72C248.437 88.4307 248.288 88.0153 248.288 87.474V83.008H246.874V82.168H248.288V80.292L249.31 80.054V82.168H251.27V83.008H249.31V87.208C249.31 87.572 249.384 87.8333 249.534 87.992C249.692 88.1507 249.949 88.23 250.304 88.23C250.481 88.23 250.64 88.216 250.78 88.188C250.92 88.16 251.083 88.1133 251.27 88.048V88.958C251.083 89.0233 250.887 89.07 250.682 89.098C250.476 89.126 250.276 89.14 250.08 89.14ZM252.753 89V82.168H253.775V89H252.753ZM253.271 80.474C253.065 80.474 252.888 80.404 252.739 80.264C252.599 80.1147 252.529 79.942 252.529 79.746C252.529 79.55 252.599 79.382 252.739 79.242C252.888 79.0927 253.065 79.018 253.271 79.018C253.476 79.018 253.649 79.0927 253.789 79.242C253.938 79.382 254.013 79.55 254.013 79.746C254.013 79.942 253.938 80.1147 253.789 80.264C253.649 80.404 253.476 80.474 253.271 80.474ZM258.894 89.112C258.26 89.112 257.69 88.958 257.186 88.65C256.682 88.342 256.286 87.922 255.996 87.39C255.707 86.858 255.562 86.256 255.562 85.584C255.562 84.912 255.707 84.31 255.996 83.778C256.286 83.246 256.682 82.826 257.186 82.518C257.69 82.21 258.26 82.056 258.894 82.056C259.52 82.056 260.08 82.21 260.574 82.518C261.078 82.826 261.475 83.246 261.764 83.778C262.054 84.31 262.198 84.912 262.198 85.584C262.198 86.256 262.054 86.858 261.764 87.39C261.475 87.922 261.078 88.342 260.574 88.65C260.08 88.958 259.52 89.112 258.894 89.112ZM258.88 88.216C259.328 88.216 259.725 88.104 260.07 87.88C260.416 87.6467 260.686 87.3293 260.882 86.928C261.088 86.5267 261.19 86.0787 261.19 85.584C261.19 85.08 261.088 84.632 260.882 84.24C260.686 83.8387 260.416 83.526 260.07 83.302C259.725 83.0687 259.328 82.952 258.88 82.952C258.432 82.952 258.036 83.0687 257.69 83.302C257.345 83.526 257.07 83.8387 256.864 84.24C256.668 84.632 256.57 85.08 256.57 85.584C256.57 86.0787 256.668 86.5267 256.864 86.928C257.07 87.3293 257.345 87.6467 257.69 87.88C258.036 88.104 258.432 88.216 258.88 88.216ZM263.991 89V82.168H265.013V83.274C265.275 82.8633 265.587 82.56 265.951 82.364C266.315 82.1587 266.726 82.056 267.183 82.056C267.678 82.056 268.107 82.1633 268.471 82.378C268.845 82.5833 269.134 82.8773 269.339 83.26C269.554 83.6333 269.661 84.072 269.661 84.576V89H268.639V84.87C268.639 84.2633 268.471 83.7873 268.135 83.442C267.809 83.0873 267.365 82.91 266.805 82.91C266.432 82.91 266.091 82.9987 265.783 83.176C265.475 83.3533 265.219 83.6147 265.013 83.96V89H263.991Z" fill="#151515"/>
<path d="M469.882 55.585C470.218 55.2492 470.763 55.2492 471.099 55.585L471.706 56.1934C472.042 56.5294 472.042 57.0734 471.706 57.4092L468.97 60.1455L471.706 62.8818C472.042 63.2179 472.042 63.7629 471.706 64.0986L471.099 64.7061C470.763 65.0419 470.218 65.0419 469.882 64.7061L467.146 61.9697L464.409 64.7061C464.073 65.0419 463.529 65.0419 463.193 64.7061L462.585 64.0986C462.249 63.7626 462.249 63.2176 462.585 62.8818L465.321 60.1455L462.585 57.4092C462.25 57.0732 462.249 56.5291 462.585 56.1934L463.193 55.585C463.529 55.2494 464.073 55.2495 464.409 55.585L467.146 58.3213L469.882 55.585Z" fill="#1F1F1F"/>
</g>
<g filter="url(#filter1_d_1967_21583)">
<mask id="path-8-inside-2_1967_21583" fill="white">
<path d="M20 154C20 145.163 27.1634 138 36 138H478C486.837 138 494 145.163 494 154V200C494 208.837 486.837 216 478 216H36C27.1635 216 20 208.837 20 200V154Z"/>
</mask>
<path d="M20 154C20 145.163 27.1634 138 36 138H478C486.837 138 494 145.163 494 154V200C494 208.837 486.837 216 478 216H36C27.1635 216 20 208.837 20 200V154Z" fill="white"/>
<path d="M36 138V140H478V138V136H36V138ZM494 154H492V200H494H496V154H494ZM478 216V214H36V216V218H478V216ZM20 200H22V154H20H18V200H20ZM36 216V214C28.268 214 22 207.732 22 200H20H18C18 209.941 26.0589 218 36 218V216ZM494 200H492C492 207.732 485.732 214 478 214V216V218C487.941 218 496 209.941 496 200H494ZM478 138V140C485.732 140 492 146.268 492 154H494H496C496 144.059 487.941 136 478 136V138ZM36 138V136C26.0589 136 18 144.059 18 154H20H22C22 146.268 28.268 140 36 140V138Z" fill="#5E40BE" mask="url(#path-8-inside-2_1967_21583)"/>
<path d="M47 158C50.8657 158 54 161.135 54 165C54 168.867 50.8657 172 47 172C43.1343 172 40 168.867 40 165C40 161.135 43.1343 158 47 158ZM45.7578 164.097C45.5709 164.097 45.4189 164.249 45.4189 164.436V165.113C45.4191 165.3 45.571 165.451 45.7578 165.451H46.0967V167.258H45.7578C45.5709 167.258 45.419 167.41 45.4189 167.597V168.274C45.4191 168.461 45.571 168.613 45.7578 168.613H48.2422C48.4291 168.613 48.5809 168.461 48.5811 168.274V167.597C48.581 167.41 48.4291 167.258 48.2422 167.258H47.9033V164.436C47.9033 164.248 47.7515 164.097 47.5645 164.097H45.7578ZM47 161.104C46.3454 161.104 45.8146 161.635 45.8145 162.29C45.8145 162.945 46.3453 163.476 47 163.476C47.6547 163.476 48.1855 162.945 48.1855 162.29C48.1854 161.635 47.6546 161.104 47 161.104Z" fill="#5E40BE"/>
<path d="M65.084 169L68.934 159.2H70.88L74.674 169H72.868L71.86 166.256H67.842L66.834 169H65.084ZM68.332 164.94H71.398L69.858 160.796L68.332 164.94ZM75.7417 169V158.962L77.3237 158.682V169H75.7417ZM82.5311 169.14C81.8591 169.14 81.2524 168.981 80.7111 168.664C80.1697 168.337 79.7404 167.903 79.4231 167.362C79.1057 166.811 78.9471 166.191 78.9471 165.5C78.9471 164.809 79.0964 164.193 79.3951 163.652C79.6937 163.111 80.0997 162.681 80.6131 162.364C81.1357 162.037 81.7144 161.874 82.3491 161.874C83.0024 161.874 83.5764 162.033 84.0711 162.35C84.5751 162.667 84.9671 163.097 85.2471 163.638C85.5364 164.179 85.6811 164.8 85.6811 165.5V165.878H80.5011C80.5571 166.261 80.6784 166.601 80.8651 166.9C81.0611 167.189 81.3084 167.418 81.6071 167.586C81.9151 167.754 82.2464 167.838 82.6011 167.838C82.9277 167.838 83.2357 167.782 83.5251 167.67C83.8237 167.549 84.0711 167.385 84.2671 167.18L85.3031 168.118C84.8737 168.473 84.4351 168.734 83.9871 168.902C83.5484 169.061 83.0631 169.14 82.5311 169.14ZM80.5151 164.898H84.1831C84.1271 164.562 84.0104 164.263 83.8331 164.002C83.6651 163.741 83.4504 163.535 83.1891 163.386C82.9371 163.237 82.6571 163.162 82.3491 163.162C82.0411 163.162 81.7564 163.237 81.4951 163.386C81.2431 163.526 81.0331 163.727 80.8651 163.988C80.6971 164.249 80.5804 164.553 80.5151 164.898ZM87.2945 169V161.986H88.8765V163.498C89.0818 162.966 89.3478 162.56 89.6745 162.28C90.0011 162 90.3791 161.86 90.8085 161.86C90.9391 161.869 91.0558 161.883 91.1585 161.902C91.2611 161.911 91.3731 161.944 91.4945 162V163.386C91.3731 163.33 91.2331 163.288 91.0745 163.26C90.9251 163.232 90.7758 163.218 90.6265 163.218C90.2438 163.218 89.8985 163.321 89.5905 163.526C89.2918 163.731 89.0538 164.016 88.8765 164.38V169H87.2945ZM95.8145 169.14C95.1052 169.14 94.5685 168.977 94.2045 168.65C93.8405 168.314 93.6585 167.824 93.6585 167.18V163.246H92.2585V161.986H93.6585V160.054L95.2405 159.718V161.986H97.1865V163.246H95.2405V166.83C95.2405 167.175 95.3152 167.423 95.4645 167.572C95.6139 167.712 95.8659 167.782 96.2205 167.782C96.3792 167.782 96.5239 167.773 96.6545 167.754C96.7945 167.726 96.9672 167.679 97.1725 167.614V168.944C96.9765 169.009 96.7525 169.056 96.5005 169.084C96.2579 169.121 96.0292 169.14 95.8145 169.14ZM104.756 169.14C104.047 169.14 103.51 168.977 103.146 168.65C102.782 168.314 102.6 167.824 102.6 167.18V163.246H101.2V161.986H102.6V160.054L104.182 159.718V161.986H106.128V163.246H104.182V166.83C104.182 167.175 104.257 167.423 104.406 167.572C104.555 167.712 104.807 167.782 105.162 167.782C105.321 167.782 105.465 167.773 105.596 167.754C105.736 167.726 105.909 167.679 106.114 167.614V168.944C105.918 169.009 105.694 169.056 105.442 169.084C105.199 169.121 104.971 169.14 104.756 169.14ZM107.515 169V161.986H109.097V169H107.515ZM108.313 160.558C108.042 160.558 107.809 160.465 107.613 160.278C107.426 160.082 107.333 159.853 107.333 159.592C107.333 159.321 107.426 159.093 107.613 158.906C107.809 158.71 108.042 158.612 108.313 158.612C108.583 158.612 108.812 158.71 108.999 158.906C109.195 159.093 109.293 159.317 109.293 159.578C109.293 159.849 109.195 160.082 108.999 160.278C108.812 160.465 108.583 160.558 108.313 160.558ZM114.08 169.14C113.371 169.14 112.834 168.977 112.47 168.65C112.106 168.314 111.924 167.824 111.924 167.18V163.246H110.524V161.986H111.924V160.054L113.506 159.718V161.986H115.452V163.246H113.506V166.83C113.506 167.175 113.581 167.423 113.73 167.572C113.88 167.712 114.132 167.782 114.486 167.782C114.645 167.782 114.79 167.773 114.92 167.754C115.06 167.726 115.233 167.679 115.438 167.614V168.944C115.242 169.009 115.018 169.056 114.766 169.084C114.524 169.121 114.295 169.14 114.08 169.14ZM116.853 169V158.962L118.435 158.682V169H116.853ZM123.642 169.14C122.97 169.14 122.364 168.981 121.822 168.664C121.281 168.337 120.852 167.903 120.534 167.362C120.217 166.811 120.058 166.191 120.058 165.5C120.058 164.809 120.208 164.193 120.506 163.652C120.805 163.111 121.211 162.681 121.724 162.364C122.247 162.037 122.826 161.874 123.46 161.874C124.114 161.874 124.688 162.033 125.182 162.35C125.686 162.667 126.078 163.097 126.358 163.638C126.648 164.179 126.792 164.8 126.792 165.5V165.878H121.612C121.668 166.261 121.79 166.601 121.976 166.9C122.172 167.189 122.42 167.418 122.718 167.586C123.026 167.754 123.358 167.838 123.712 167.838C124.039 167.838 124.347 167.782 124.636 167.67C124.935 167.549 125.182 167.385 125.378 167.18L126.414 168.118C125.985 168.473 125.546 168.734 125.098 168.902C124.66 169.061 124.174 169.14 123.642 169.14ZM121.626 164.898H125.294C125.238 164.562 125.122 164.263 124.944 164.002C124.776 163.741 124.562 163.535 124.3 163.386C124.048 163.237 123.768 163.162 123.46 163.162C123.152 163.162 122.868 163.237 122.606 163.386C122.354 163.526 122.144 163.727 121.976 163.988C121.808 164.249 121.692 164.553 121.626 164.898Z" fill="#151515"/>
<path d="M68.78 194V185.152H65.392V184.2H73.246V185.152H69.858V194H68.78ZM74.6906 194V183.892L75.7126 183.682V188.274C75.974 187.863 76.2866 187.56 76.6506 187.364C77.0146 187.159 77.4253 187.056 77.8826 187.056C78.3773 187.056 78.8066 187.163 79.1706 187.378C79.544 187.583 79.8333 187.877 80.0386 188.26C80.2533 188.633 80.3606 189.072 80.3606 189.576V194H79.3386V189.87C79.3386 189.263 79.1706 188.787 78.8346 188.442C78.508 188.087 78.0646 187.91 77.5046 187.91C77.1313 187.91 76.7906 187.999 76.4826 188.176C76.1746 188.353 75.918 188.615 75.7126 188.96V194H74.6906ZM82.4012 194V187.168H83.4232V194H82.4012ZM82.9192 185.474C82.7139 185.474 82.5366 185.404 82.3872 185.264C82.2472 185.115 82.1772 184.942 82.1772 184.746C82.1772 184.55 82.2472 184.382 82.3872 184.242C82.5366 184.093 82.7139 184.018 82.9192 184.018C83.1246 184.018 83.2972 184.093 83.4372 184.242C83.5866 184.382 83.6612 184.55 83.6612 184.746C83.6612 184.942 83.5866 185.115 83.4372 185.264C83.2972 185.404 83.1246 185.474 82.9192 185.474ZM87.6328 194.14C87.0728 194.14 86.5548 194.056 86.0788 193.888C85.6028 193.711 85.1968 193.459 84.8608 193.132L85.4068 192.46C85.8174 192.759 86.1954 192.978 86.5408 193.118C86.8861 193.249 87.2408 193.314 87.6048 193.314C88.0994 193.314 88.5101 193.197 88.8368 192.964C89.1634 192.731 89.3268 192.432 89.3268 192.068C89.3268 191.788 89.2288 191.569 89.0328 191.41C88.8461 191.251 88.5334 191.13 88.0948 191.046L86.9748 190.85C86.3121 190.729 85.8221 190.523 85.5048 190.234C85.1968 189.945 85.0428 189.553 85.0428 189.058C85.0428 188.666 85.1454 188.321 85.3508 188.022C85.5654 187.723 85.8594 187.49 86.2328 187.322C86.6061 187.145 87.0308 187.056 87.5068 187.056C87.9734 187.056 88.4168 187.126 88.8368 187.266C89.2568 187.397 89.6814 187.611 90.1108 187.91L89.6068 188.624C89.2521 188.372 88.8974 188.19 88.5428 188.078C88.1881 187.957 87.8288 187.896 87.4648 187.896C87.0168 187.896 86.6574 187.994 86.3868 188.19C86.1161 188.386 85.9808 188.652 85.9808 188.988C85.9808 189.268 86.0648 189.483 86.2328 189.632C86.4101 189.781 86.7181 189.893 87.1568 189.968L88.3048 190.178C88.9954 190.299 89.4994 190.509 89.8168 190.808C90.1341 191.107 90.2928 191.508 90.2928 192.012C90.2928 192.413 90.1761 192.777 89.9428 193.104C89.7094 193.421 89.3921 193.673 88.9908 193.86C88.5894 194.047 88.1368 194.14 87.6328 194.14ZM95.1024 194V187.168H96.1244V194H95.1024ZM95.6204 185.474C95.4151 185.474 95.2377 185.404 95.0884 185.264C94.9484 185.115 94.8784 184.942 94.8784 184.746C94.8784 184.55 94.9484 184.382 95.0884 184.242C95.2377 184.093 95.4151 184.018 95.6204 184.018C95.8257 184.018 95.9984 184.093 96.1384 184.242C96.2877 184.382 96.3624 184.55 96.3624 184.746C96.3624 184.942 96.2877 185.115 96.1384 185.264C95.9984 185.404 95.8257 185.474 95.6204 185.474ZM100.334 194.14C99.7739 194.14 99.2559 194.056 98.7799 193.888C98.3039 193.711 97.8979 193.459 97.5619 193.132L98.1079 192.46C98.5186 192.759 98.8966 192.978 99.2419 193.118C99.5873 193.249 99.9419 193.314 100.306 193.314C100.801 193.314 101.211 193.197 101.538 192.964C101.865 192.731 102.028 192.432 102.028 192.068C102.028 191.788 101.93 191.569 101.734 191.41C101.547 191.251 101.235 191.13 100.796 191.046L99.6759 190.85C99.0133 190.729 98.5233 190.523 98.2059 190.234C97.8979 189.945 97.7439 189.553 97.7439 189.058C97.7439 188.666 97.8466 188.321 98.0519 188.022C98.2666 187.723 98.5606 187.49 98.9339 187.322C99.3073 187.145 99.7319 187.056 100.208 187.056C100.675 187.056 101.118 187.126 101.538 187.266C101.958 187.397 102.383 187.611 102.812 187.91L102.308 188.624C101.953 188.372 101.599 188.19 101.244 188.078C100.889 187.957 100.53 187.896 100.166 187.896C99.7179 187.896 99.3586 187.994 99.0879 188.19C98.8173 188.386 98.6819 188.652 98.6819 188.988C98.6819 189.268 98.7659 189.483 98.9339 189.632C99.1113 189.781 99.4193 189.893 99.8579 189.968L101.006 190.178C101.697 190.299 102.201 190.509 102.518 190.808C102.835 191.107 102.994 191.508 102.994 192.012C102.994 192.413 102.877 192.777 102.644 193.104C102.411 193.421 102.093 193.673 101.692 193.86C101.291 194.047 100.838 194.14 100.334 194.14ZM109.932 194.126C109.446 194.126 109.017 194.037 108.644 193.86C108.27 193.683 107.976 193.44 107.762 193.132C107.556 192.815 107.454 192.451 107.454 192.04C107.454 191.629 107.561 191.275 107.776 190.976C107.99 190.668 108.289 190.43 108.672 190.262C109.054 190.094 109.502 190.01 110.016 190.01C110.408 190.01 110.776 190.052 111.122 190.136C111.476 190.22 111.803 190.355 112.102 190.542V189.604C112.102 189.044 111.952 188.624 111.654 188.344C111.355 188.055 110.916 187.91 110.338 187.91C110.02 187.91 109.694 187.957 109.358 188.05C109.031 188.143 108.667 188.293 108.266 188.498L107.888 187.714C108.802 187.275 109.661 187.056 110.464 187.056C111.313 187.056 111.966 187.266 112.424 187.686C112.881 188.097 113.11 188.689 113.11 189.464V194H112.102V193.202C111.803 193.51 111.472 193.743 111.108 193.902C110.744 194.051 110.352 194.126 109.932 194.126ZM108.434 192.012C108.434 192.413 108.588 192.735 108.896 192.978C109.213 193.221 109.628 193.342 110.142 193.342C110.524 193.342 110.874 193.277 111.192 193.146C111.518 193.015 111.822 192.819 112.102 192.558V191.242C111.812 191.074 111.514 190.953 111.206 190.878C110.898 190.794 110.552 190.752 110.17 190.752C109.647 190.752 109.227 190.869 108.91 191.102C108.592 191.326 108.434 191.629 108.434 192.012ZM118.454 194V187.168H119.476V188.568C119.654 188.092 119.906 187.723 120.232 187.462C120.568 187.191 120.951 187.056 121.38 187.056C121.502 187.056 121.614 187.065 121.716 187.084C121.819 187.093 121.922 187.117 122.024 187.154V188.078C121.912 188.041 121.791 188.013 121.66 187.994C121.539 187.966 121.422 187.952 121.31 187.952C120.89 187.952 120.522 188.073 120.204 188.316C119.896 188.559 119.654 188.899 119.476 189.338V194H118.454ZM126.032 194.14C125.398 194.14 124.824 193.986 124.31 193.678C123.797 193.361 123.391 192.936 123.092 192.404C122.794 191.863 122.644 191.256 122.644 190.584C122.644 189.912 122.784 189.31 123.064 188.778C123.354 188.246 123.741 187.826 124.226 187.518C124.712 187.21 125.253 187.056 125.85 187.056C126.457 187.056 126.994 187.21 127.46 187.518C127.936 187.817 128.31 188.227 128.58 188.75C128.86 189.263 129 189.847 129 190.5V190.808H123.638C123.676 191.275 123.802 191.695 124.016 192.068C124.24 192.432 124.53 192.721 124.884 192.936C125.248 193.141 125.645 193.244 126.074 193.244C126.429 193.244 126.77 193.183 127.096 193.062C127.432 192.931 127.717 192.759 127.95 192.544L128.594 193.23C128.202 193.538 127.796 193.767 127.376 193.916C126.956 194.065 126.508 194.14 126.032 194.14ZM123.666 190.08H127.992C127.946 189.669 127.82 189.305 127.614 188.988C127.418 188.661 127.166 188.405 126.858 188.218C126.56 188.031 126.224 187.938 125.85 187.938C125.477 187.938 125.136 188.031 124.828 188.218C124.52 188.395 124.264 188.647 124.058 188.974C123.862 189.291 123.732 189.66 123.666 190.08ZM132.723 194.126C132.237 194.126 131.808 194.037 131.435 193.86C131.061 193.683 130.767 193.44 130.553 193.132C130.347 192.815 130.245 192.451 130.245 192.04C130.245 191.629 130.352 191.275 130.567 190.976C130.781 190.668 131.08 190.43 131.463 190.262C131.845 190.094 132.293 190.01 132.807 190.01C133.199 190.01 133.567 190.052 133.913 190.136C134.267 190.22 134.594 190.355 134.893 190.542V189.604C134.893 189.044 134.743 188.624 134.445 188.344C134.146 188.055 133.707 187.91 133.129 187.91C132.811 187.91 132.485 187.957 132.149 188.05C131.822 188.143 131.458 188.293 131.057 188.498L130.679 187.714C131.593 187.275 132.452 187.056 133.255 187.056C134.104 187.056 134.757 187.266 135.215 187.686C135.672 188.097 135.901 188.689 135.901 189.464V194H134.893V193.202C134.594 193.51 134.263 193.743 133.899 193.902C133.535 194.051 133.143 194.126 132.723 194.126ZM131.225 192.012C131.225 192.413 131.379 192.735 131.687 192.978C132.004 193.221 132.419 193.342 132.933 193.342C133.315 193.342 133.665 193.277 133.983 193.146C134.309 193.015 134.613 192.819 134.893 192.558V191.242C134.603 191.074 134.305 190.953 133.997 190.878C133.689 190.794 133.343 190.752 132.961 190.752C132.438 190.752 132.018 190.869 131.701 191.102C131.383 191.326 131.225 191.629 131.225 192.012ZM137.978 194V183.892L139 183.682V194H137.978ZM141.095 194V183.892L142.117 183.682V194H141.095ZM144.506 197.066C144.291 197.066 144.072 197.033 143.848 196.968V196.058C143.941 196.077 144.039 196.091 144.142 196.1C144.245 196.109 144.333 196.114 144.408 196.114C144.669 196.114 144.884 196.044 145.052 195.904C145.229 195.764 145.379 195.545 145.5 195.246L146.004 194L143.372 187.168H144.506L146.578 192.782L148.776 187.168H149.91L146.466 195.554C146.317 195.918 146.153 196.212 145.976 196.436C145.799 196.66 145.593 196.819 145.36 196.912C145.127 197.015 144.842 197.066 144.506 197.066ZM154.452 194V183.892L155.474 183.682V194H154.452ZM160.594 194.112C159.959 194.112 159.39 193.958 158.886 193.65C158.382 193.342 157.985 192.922 157.696 192.39C157.406 191.858 157.262 191.256 157.262 190.584C157.262 189.912 157.406 189.31 157.696 188.778C157.985 188.246 158.382 187.826 158.886 187.518C159.39 187.21 159.959 187.056 160.594 187.056C161.219 187.056 161.779 187.21 162.274 187.518C162.778 187.826 163.174 188.246 163.464 188.778C163.753 189.31 163.898 189.912 163.898 190.584C163.898 191.256 163.753 191.858 163.464 192.39C163.174 192.922 162.778 193.342 162.274 193.65C161.779 193.958 161.219 194.112 160.594 194.112ZM160.58 193.216C161.028 193.216 161.424 193.104 161.77 192.88C162.115 192.647 162.386 192.329 162.582 191.928C162.787 191.527 162.89 191.079 162.89 190.584C162.89 190.08 162.787 189.632 162.582 189.24C162.386 188.839 162.115 188.526 161.77 188.302C161.424 188.069 161.028 187.952 160.58 187.952C160.132 187.952 159.735 188.069 159.39 188.302C159.044 188.526 158.769 188.839 158.564 189.24C158.368 189.632 158.27 190.08 158.27 190.584C158.27 191.079 158.368 191.527 158.564 191.928C158.769 192.329 159.044 192.647 159.39 192.88C159.735 193.104 160.132 193.216 160.58 193.216ZM165.691 194V187.168H166.713V188.274C166.974 187.863 167.287 187.56 167.651 187.364C168.015 187.159 168.425 187.056 168.883 187.056C169.377 187.056 169.807 187.163 170.171 187.378C170.544 187.583 170.833 187.877 171.039 188.26C171.253 188.633 171.361 189.072 171.361 189.576V194H170.339V189.87C170.339 189.263 170.171 188.787 169.835 188.442C169.508 188.087 169.065 187.91 168.505 187.91C168.131 187.91 167.791 187.999 167.483 188.176C167.175 188.353 166.918 188.615 166.713 188.96V194H165.691ZM176.579 197.066C176.122 197.066 175.66 197.001 175.193 196.87C174.736 196.749 174.311 196.576 173.919 196.352L174.353 195.568C174.773 195.783 175.156 195.941 175.501 196.044C175.847 196.147 176.192 196.198 176.537 196.198C177.163 196.198 177.634 196.049 177.951 195.75C178.278 195.451 178.441 195.017 178.441 194.448V193.076C178.18 193.403 177.863 193.655 177.489 193.832C177.116 194 176.705 194.084 176.257 194.084C175.669 194.084 175.137 193.93 174.661 193.622C174.185 193.305 173.807 192.885 173.527 192.362C173.247 191.83 173.107 191.237 173.107 190.584C173.107 189.931 173.247 189.343 173.527 188.82C173.817 188.288 174.204 187.868 174.689 187.56C175.175 187.243 175.716 187.084 176.313 187.084C176.743 187.084 177.139 187.168 177.503 187.336C177.867 187.495 178.185 187.733 178.455 188.05V187.168H179.463V194.434C179.463 195.283 179.216 195.932 178.721 196.38C178.227 196.837 177.513 197.066 176.579 197.066ZM176.509 193.202C176.911 193.202 177.279 193.123 177.615 192.964C177.951 192.796 178.227 192.567 178.441 192.278V188.904C178.217 188.615 177.933 188.391 177.587 188.232C177.251 188.064 176.892 187.98 176.509 187.98C176.052 187.98 175.641 188.092 175.277 188.316C174.923 188.54 174.638 188.848 174.423 189.24C174.218 189.632 174.115 190.08 174.115 190.584C174.115 191.079 174.218 191.527 174.423 191.928C174.638 192.32 174.923 192.633 175.277 192.866C175.641 193.09 176.052 193.202 176.509 193.202ZM186.945 194.126C186.46 194.126 186.031 194.037 185.657 193.86C185.284 193.683 184.99 193.44 184.775 193.132C184.57 192.815 184.467 192.451 184.467 192.04C184.467 191.629 184.575 191.275 184.789 190.976C185.004 190.668 185.303 190.43 185.685 190.262C186.068 190.094 186.516 190.01 187.029 190.01C187.421 190.01 187.79 190.052 188.135 190.136C188.49 190.22 188.817 190.355 189.115 190.542V189.604C189.115 189.044 188.966 188.624 188.667 188.344C188.369 188.055 187.93 187.91 187.351 187.91C187.034 187.91 186.707 187.957 186.371 188.05C186.045 188.143 185.681 188.293 185.279 188.498L184.901 187.714C185.816 187.275 186.675 187.056 187.477 187.056C188.327 187.056 188.98 187.266 189.437 187.686C189.895 188.097 190.123 188.689 190.123 189.464V194H189.115V193.202C188.817 193.51 188.485 193.743 188.121 193.902C187.757 194.051 187.365 194.126 186.945 194.126ZM185.447 192.012C185.447 192.413 185.601 192.735 185.909 192.978C186.227 193.221 186.642 193.342 187.155 193.342C187.538 193.342 187.888 193.277 188.205 193.146C188.532 193.015 188.835 192.819 189.115 192.558V191.242C188.826 191.074 188.527 190.953 188.219 190.878C187.911 190.794 187.566 190.752 187.183 190.752C186.661 190.752 186.241 190.869 185.923 191.102C185.606 191.326 185.447 191.629 185.447 192.012ZM192.2 194V187.168H193.222V188.274C193.484 187.863 193.796 187.56 194.16 187.364C194.524 187.159 194.935 187.056 195.392 187.056C195.887 187.056 196.316 187.163 196.68 187.378C197.054 187.583 197.343 187.877 197.548 188.26C197.763 188.633 197.87 189.072 197.87 189.576V194H196.848V189.87C196.848 189.263 196.68 188.787 196.344 188.442C196.018 188.087 195.574 187.91 195.014 187.91C194.641 187.91 194.3 187.999 193.992 188.176C193.684 188.353 193.428 188.615 193.222 188.96V194H192.2ZM202.767 194.098C202.179 194.098 201.647 193.944 201.171 193.636C200.695 193.319 200.317 192.899 200.037 192.376C199.757 191.844 199.617 191.251 199.617 190.598C199.617 189.935 199.757 189.343 200.037 188.82C200.326 188.288 200.714 187.868 201.199 187.56C201.684 187.243 202.226 187.084 202.823 187.084C203.243 187.084 203.635 187.168 203.999 187.336C204.363 187.495 204.68 187.728 204.951 188.036V183.892L205.973 183.682V194H204.951V193.09C204.69 193.417 204.372 193.669 203.999 193.846C203.626 194.014 203.215 194.098 202.767 194.098ZM203.019 193.202C203.42 193.202 203.789 193.123 204.125 192.964C204.461 192.805 204.736 192.581 204.951 192.292V188.904C204.727 188.615 204.442 188.391 204.097 188.232C203.761 188.064 203.402 187.98 203.019 187.98C202.562 187.98 202.151 188.092 201.787 188.316C201.432 188.54 201.148 188.848 200.933 189.24C200.728 189.632 200.625 190.08 200.625 190.584C200.625 191.079 200.728 191.527 200.933 191.928C201.148 192.32 201.432 192.633 201.787 192.866C202.151 193.09 202.562 193.202 203.019 193.202ZM211.327 194V187.168H212.349V194H211.327ZM211.845 185.474C211.64 185.474 211.462 185.404 211.313 185.264C211.173 185.115 211.103 184.942 211.103 184.746C211.103 184.55 211.173 184.382 211.313 184.242C211.462 184.093 211.64 184.018 211.845 184.018C212.05 184.018 212.223 184.093 212.363 184.242C212.512 184.382 212.587 184.55 212.587 184.746C212.587 184.942 212.512 185.115 212.363 185.264C212.223 185.404 212.05 185.474 211.845 185.474ZM214.445 194V187.168H215.467V188.274C215.728 187.863 216.041 187.56 216.405 187.364C216.769 187.159 217.179 187.056 217.637 187.056C218.131 187.056 218.561 187.163 218.925 187.378C219.298 187.583 219.587 187.877 219.793 188.26C220.007 188.633 220.115 189.072 220.115 189.576V194H219.093V189.87C219.093 189.263 218.925 188.787 218.589 188.442C218.262 188.087 217.819 187.91 217.259 187.91C216.885 187.91 216.545 187.999 216.237 188.176C215.929 188.353 215.672 188.615 215.467 188.96V194H214.445ZM224.568 194.14C223.98 194.14 223.532 194 223.224 193.72C222.925 193.431 222.776 193.015 222.776 192.474V188.008H221.362V187.168H222.776V185.292L223.798 185.054V187.168H225.758V188.008H223.798V192.208C223.798 192.572 223.873 192.833 224.022 192.992C224.181 193.151 224.437 193.23 224.792 193.23C224.969 193.23 225.128 193.216 225.268 193.188C225.408 193.16 225.571 193.113 225.758 193.048V193.958C225.571 194.023 225.375 194.07 225.17 194.098C224.965 194.126 224.764 194.14 224.568 194.14ZM230.198 194.14C229.564 194.14 228.99 193.986 228.476 193.678C227.963 193.361 227.557 192.936 227.258 192.404C226.96 191.863 226.81 191.256 226.81 190.584C226.81 189.912 226.95 189.31 227.23 188.778C227.52 188.246 227.907 187.826 228.392 187.518C228.878 187.21 229.419 187.056 230.016 187.056C230.623 187.056 231.16 187.21 231.626 187.518C232.102 187.817 232.476 188.227 232.746 188.75C233.026 189.263 233.166 189.847 233.166 190.5V190.808H227.804C227.842 191.275 227.968 191.695 228.182 192.068C228.406 192.432 228.696 192.721 229.05 192.936C229.414 193.141 229.811 193.244 230.24 193.244C230.595 193.244 230.936 193.183 231.262 193.062C231.598 192.931 231.883 192.759 232.116 192.544L232.76 193.23C232.368 193.538 231.962 193.767 231.542 193.916C231.122 194.065 230.674 194.14 230.198 194.14ZM227.832 190.08H232.158C232.112 189.669 231.986 189.305 231.78 188.988C231.584 188.661 231.332 188.405 231.024 188.218C230.726 188.031 230.39 187.938 230.016 187.938C229.643 187.938 229.302 188.031 228.994 188.218C228.686 188.395 228.43 188.647 228.224 188.974C228.028 189.291 227.898 189.66 227.832 190.08ZM234.911 194V187.168H235.933V188.568C236.111 188.092 236.363 187.723 236.689 187.462C237.025 187.191 237.408 187.056 237.837 187.056C237.959 187.056 238.071 187.065 238.173 187.084C238.276 187.093 238.379 187.117 238.481 187.154V188.078C238.369 188.041 238.248 188.013 238.117 187.994C237.996 187.966 237.879 187.952 237.767 187.952C237.347 187.952 236.979 188.073 236.661 188.316C236.353 188.559 236.111 188.899 235.933 189.338V194H234.911ZM242.489 194.14C241.855 194.14 241.281 193.986 240.767 193.678C240.254 193.361 239.848 192.936 239.549 192.404C239.251 191.863 239.101 191.256 239.101 190.584C239.101 189.912 239.241 189.31 239.521 188.778C239.811 188.246 240.198 187.826 240.683 187.518C241.169 187.21 241.71 187.056 242.307 187.056C242.914 187.056 243.451 187.21 243.917 187.518C244.393 187.817 244.767 188.227 245.037 188.75C245.317 189.263 245.457 189.847 245.457 190.5V190.808H240.095C240.133 191.275 240.259 191.695 240.473 192.068C240.697 192.432 240.987 192.721 241.341 192.936C241.705 193.141 242.102 193.244 242.531 193.244C242.886 193.244 243.227 193.183 243.553 193.062C243.889 192.931 244.174 192.759 244.407 192.544L245.051 193.23C244.659 193.538 244.253 193.767 243.833 193.916C243.413 194.065 242.965 194.14 242.489 194.14ZM240.123 190.08H244.449C244.403 189.669 244.277 189.305 244.071 188.988C243.875 188.661 243.623 188.405 243.315 188.218C243.017 188.031 242.681 187.938 242.307 187.938C241.934 187.938 241.593 188.031 241.285 188.218C240.977 188.395 240.721 188.647 240.515 188.974C240.319 189.291 240.189 189.66 240.123 190.08ZM249.385 194.14C248.825 194.14 248.307 194.056 247.831 193.888C247.355 193.711 246.949 193.459 246.613 193.132L247.159 192.46C247.569 192.759 247.947 192.978 248.293 193.118C248.638 193.249 248.993 193.314 249.357 193.314C249.851 193.314 250.262 193.197 250.589 192.964C250.915 192.731 251.079 192.432 251.079 192.068C251.079 191.788 250.981 191.569 250.785 191.41C250.598 191.251 250.285 191.13 249.847 191.046L248.727 190.85C248.064 190.729 247.574 190.523 247.257 190.234C246.949 189.945 246.795 189.553 246.795 189.058C246.795 188.666 246.897 188.321 247.103 188.022C247.317 187.723 247.611 187.49 247.985 187.322C248.358 187.145 248.783 187.056 249.259 187.056C249.725 187.056 250.169 187.126 250.589 187.266C251.009 187.397 251.433 187.611 251.863 187.91L251.359 188.624C251.004 188.372 250.649 188.19 250.295 188.078C249.94 187.957 249.581 187.896 249.217 187.896C248.769 187.896 248.409 187.994 248.139 188.19C247.868 188.386 247.733 188.652 247.733 188.988C247.733 189.268 247.817 189.483 247.985 189.632C248.162 189.781 248.47 189.893 248.909 189.968L250.057 190.178C250.747 190.299 251.251 190.509 251.569 190.808C251.886 191.107 252.045 191.508 252.045 192.012C252.045 192.413 251.928 192.777 251.695 193.104C251.461 193.421 251.144 193.673 250.743 193.86C250.341 194.047 249.889 194.14 249.385 194.14ZM256.068 194.14C255.48 194.14 255.032 194 254.724 193.72C254.425 193.431 254.276 193.015 254.276 192.474V188.008H252.862V187.168H254.276V185.292L255.298 185.054V187.168H257.258V188.008H255.298V192.208C255.298 192.572 255.373 192.833 255.522 192.992C255.681 193.151 255.937 193.23 256.292 193.23C256.469 193.23 256.628 193.216 256.768 193.188C256.908 193.16 257.071 193.113 257.258 193.048V193.958C257.071 194.023 256.875 194.07 256.67 194.098C256.465 194.126 256.264 194.14 256.068 194.14ZM258.741 194V187.168H259.763V194H258.741ZM259.259 185.474C259.054 185.474 258.876 185.404 258.727 185.264C258.587 185.115 258.517 184.942 258.517 184.746C258.517 184.55 258.587 184.382 258.727 184.242C258.876 184.093 259.054 184.018 259.259 184.018C259.464 184.018 259.637 184.093 259.777 184.242C259.926 184.382 260.001 184.55 260.001 184.746C260.001 184.942 259.926 185.115 259.777 185.264C259.637 185.404 259.464 185.474 259.259 185.474ZM261.859 194V187.168H262.881V188.274C263.142 187.863 263.455 187.56 263.819 187.364C264.183 187.159 264.593 187.056 265.051 187.056C265.545 187.056 265.975 187.163 266.339 187.378C266.712 187.583 267.001 187.877 267.207 188.26C267.421 188.633 267.529 189.072 267.529 189.576V194H266.507V189.87C266.507 189.263 266.339 188.787 266.003 188.442C265.676 188.087 265.233 187.91 264.673 187.91C264.299 187.91 263.959 187.999 263.651 188.176C263.343 188.353 263.086 188.615 262.881 188.96V194H261.859ZM272.747 197.066C272.29 197.066 271.828 197.001 271.361 196.87C270.904 196.749 270.479 196.576 270.087 196.352L270.521 195.568C270.941 195.783 271.324 195.941 271.669 196.044C272.015 196.147 272.36 196.198 272.705 196.198C273.331 196.198 273.802 196.049 274.119 195.75C274.446 195.451 274.609 195.017 274.609 194.448V193.076C274.348 193.403 274.031 193.655 273.657 193.832C273.284 194 272.873 194.084 272.425 194.084C271.837 194.084 271.305 193.93 270.829 193.622C270.353 193.305 269.975 192.885 269.695 192.362C269.415 191.83 269.275 191.237 269.275 190.584C269.275 189.931 269.415 189.343 269.695 188.82C269.985 188.288 270.372 187.868 270.857 187.56C271.343 187.243 271.884 187.084 272.481 187.084C272.911 187.084 273.307 187.168 273.671 187.336C274.035 187.495 274.353 187.733 274.623 188.05V187.168H275.631V194.434C275.631 195.283 275.384 195.932 274.889 196.38C274.395 196.837 273.681 197.066 272.747 197.066ZM272.677 193.202C273.079 193.202 273.447 193.123 273.783 192.964C274.119 192.796 274.395 192.567 274.609 192.278V188.904C274.385 188.615 274.101 188.391 273.755 188.232C273.419 188.064 273.06 187.98 272.677 187.98C272.22 187.98 271.809 188.092 271.445 188.316C271.091 188.54 270.806 188.848 270.591 189.24C270.386 189.632 270.283 190.08 270.283 190.584C270.283 191.079 270.386 191.527 270.591 191.928C270.806 192.32 271.091 192.633 271.445 192.866C271.809 193.09 272.22 193.202 272.677 193.202ZM283.841 194.098C283.253 194.098 282.721 193.944 282.245 193.636C281.769 193.319 281.391 192.899 281.111 192.376C280.831 191.844 280.691 191.251 280.691 190.598C280.691 189.935 280.831 189.343 281.111 188.82C281.401 188.288 281.788 187.868 282.273 187.56C282.759 187.243 283.3 187.084 283.897 187.084C284.317 187.084 284.709 187.168 285.073 187.336C285.437 187.495 285.755 187.728 286.025 188.036V183.892L287.047 183.682V194H286.025V193.09C285.764 193.417 285.447 193.669 285.073 193.846C284.7 194.014 284.289 194.098 283.841 194.098ZM284.093 193.202C284.495 193.202 284.863 193.123 285.199 192.964C285.535 192.805 285.811 192.581 286.025 192.292V188.904C285.801 188.615 285.517 188.391 285.171 188.232C284.835 188.064 284.476 187.98 284.093 187.98C283.636 187.98 283.225 188.092 282.861 188.316C282.507 188.54 282.222 188.848 282.007 189.24C281.802 189.632 281.699 190.08 281.699 190.584C281.699 191.079 281.802 191.527 282.007 191.928C282.222 192.32 282.507 192.633 282.861 192.866C283.225 193.09 283.636 193.202 284.093 193.202ZM292.228 194.14C291.593 194.14 291.019 193.986 290.506 193.678C289.992 193.361 289.586 192.936 289.288 192.404C288.989 191.863 288.84 191.256 288.84 190.584C288.84 189.912 288.98 189.31 289.26 188.778C289.549 188.246 289.936 187.826 290.422 187.518C290.907 187.21 291.448 187.056 292.046 187.056C292.652 187.056 293.189 187.21 293.656 187.518C294.132 187.817 294.505 188.227 294.776 188.75C295.056 189.263 295.196 189.847 295.196 190.5V190.808H289.834C289.871 191.275 289.997 191.695 290.212 192.068C290.436 192.432 290.725 192.721 291.08 192.936C291.444 193.141 291.84 193.244 292.27 193.244C292.624 193.244 292.965 193.183 293.292 193.062C293.628 192.931 293.912 192.759 294.146 192.544L294.79 193.23C294.398 193.538 293.992 193.767 293.572 193.916C293.152 194.065 292.704 194.14 292.228 194.14ZM289.862 190.08H294.188C294.141 189.669 294.015 189.305 293.81 188.988C293.614 188.661 293.362 188.405 293.054 188.218C292.755 188.031 292.419 187.938 292.046 187.938C291.672 187.938 291.332 188.031 291.024 188.218C290.716 188.395 290.459 188.647 290.254 188.974C290.058 189.291 289.927 189.66 289.862 190.08ZM299.123 194.14C298.563 194.14 298.045 194.056 297.569 193.888C297.093 193.711 296.687 193.459 296.351 193.132L296.897 192.46C297.308 192.759 297.686 192.978 298.031 193.118C298.376 193.249 298.731 193.314 299.095 193.314C299.59 193.314 300 193.197 300.327 192.964C300.654 192.731 300.817 192.432 300.817 192.068C300.817 191.788 300.719 191.569 300.523 191.41C300.336 191.251 300.024 191.13 299.585 191.046L298.465 190.85C297.802 190.729 297.312 190.523 296.995 190.234C296.687 189.945 296.533 189.553 296.533 189.058C296.533 188.666 296.636 188.321 296.841 188.022C297.056 187.723 297.35 187.49 297.723 187.322C298.096 187.145 298.521 187.056 298.997 187.056C299.464 187.056 299.907 187.126 300.327 187.266C300.747 187.397 301.172 187.611 301.601 187.91L301.097 188.624C300.742 188.372 300.388 188.19 300.033 188.078C299.678 187.957 299.319 187.896 298.955 187.896C298.507 187.896 298.148 187.994 297.877 188.19C297.606 188.386 297.471 188.652 297.471 188.988C297.471 189.268 297.555 189.483 297.723 189.632C297.9 189.781 298.208 189.893 298.647 189.968L299.795 190.178C300.486 190.299 300.99 190.509 301.307 190.808C301.624 191.107 301.783 191.508 301.783 192.012C301.783 192.413 301.666 192.777 301.433 193.104C301.2 193.421 300.882 193.673 300.481 193.86C300.08 194.047 299.627 194.14 299.123 194.14ZM306.473 194.112C305.839 194.112 305.265 193.958 304.751 193.65C304.247 193.333 303.846 192.908 303.547 192.376C303.249 191.835 303.099 191.237 303.099 190.584C303.099 189.921 303.249 189.324 303.547 188.792C303.846 188.26 304.247 187.84 304.751 187.532C305.265 187.215 305.839 187.056 306.473 187.056C306.977 187.056 307.458 187.149 307.915 187.336C308.373 187.523 308.769 187.784 309.105 188.12L308.447 188.834C308.205 188.563 307.911 188.353 307.565 188.204C307.22 188.055 306.87 187.98 306.515 187.98C306.067 187.98 305.661 188.097 305.297 188.33C304.943 188.563 304.658 188.876 304.443 189.268C304.229 189.66 304.121 190.099 304.121 190.584C304.121 191.069 304.229 191.508 304.443 191.9C304.658 192.292 304.943 192.605 305.297 192.838C305.661 193.071 306.067 193.188 306.515 193.188C306.87 193.188 307.22 193.113 307.565 192.964C307.911 192.805 308.205 192.595 308.447 192.334L309.105 193.048C308.769 193.384 308.373 193.645 307.915 193.832C307.458 194.019 306.977 194.112 306.473 194.112ZM310.53 194V187.168H311.552V188.568C311.73 188.092 311.982 187.723 312.308 187.462C312.644 187.191 313.027 187.056 313.456 187.056C313.578 187.056 313.69 187.065 313.792 187.084C313.895 187.093 313.998 187.117 314.1 187.154V188.078C313.988 188.041 313.867 188.013 313.736 187.994C313.615 187.966 313.498 187.952 313.386 187.952C312.966 187.952 312.598 188.073 312.28 188.316C311.972 188.559 311.73 188.899 311.552 189.338V194H310.53ZM315.438 194V187.168H316.46V194H315.438ZM315.956 185.474C315.751 185.474 315.574 185.404 315.424 185.264C315.284 185.115 315.214 184.942 315.214 184.746C315.214 184.55 315.284 184.382 315.424 184.242C315.574 184.093 315.751 184.018 315.956 184.018C316.162 184.018 316.334 184.093 316.474 184.242C316.624 184.382 316.698 184.55 316.698 184.746C316.698 184.942 316.624 185.115 316.474 185.264C316.334 185.404 316.162 185.474 315.956 185.474ZM318.556 196.926V187.168H319.564V188.148C319.825 187.803 320.143 187.541 320.516 187.364C320.899 187.177 321.319 187.084 321.776 187.084C322.373 187.084 322.905 187.243 323.372 187.56C323.848 187.868 324.226 188.288 324.506 188.82C324.786 189.343 324.926 189.931 324.926 190.584C324.926 191.237 324.781 191.83 324.492 192.362C324.212 192.894 323.829 193.319 323.344 193.636C322.868 193.944 322.327 194.098 321.72 194.098C321.291 194.098 320.894 194.019 320.53 193.86C320.166 193.692 319.849 193.454 319.578 193.146V196.926H318.556ZM321.524 193.216C321.981 193.216 322.387 193.104 322.742 192.88C323.106 192.647 323.391 192.334 323.596 191.942C323.811 191.541 323.918 191.093 323.918 190.598C323.918 190.094 323.811 189.646 323.596 189.254C323.391 188.862 323.106 188.554 322.742 188.33C322.387 188.097 321.981 187.98 321.524 187.98C321.123 187.98 320.749 188.064 320.404 188.232C320.068 188.391 319.793 188.619 319.578 188.918V192.264C319.802 192.563 320.082 192.796 320.418 192.964C320.763 193.132 321.132 193.216 321.524 193.216ZM328.898 194.14C328.31 194.14 327.862 194 327.554 193.72C327.255 193.431 327.106 193.015 327.106 192.474V188.008H325.692V187.168H327.106V185.292L328.128 185.054V187.168H330.088V188.008H328.128V192.208C328.128 192.572 328.203 192.833 328.352 192.992C328.511 193.151 328.767 193.23 329.122 193.23C329.299 193.23 329.458 193.216 329.598 193.188C329.738 193.16 329.901 193.113 330.088 193.048V193.958C329.901 194.023 329.705 194.07 329.5 194.098C329.295 194.126 329.094 194.14 328.898 194.14ZM331.571 194V187.168H332.593V194H331.571ZM332.089 185.474C331.884 185.474 331.706 185.404 331.557 185.264C331.417 185.115 331.347 184.942 331.347 184.746C331.347 184.55 331.417 184.382 331.557 184.242C331.706 184.093 331.884 184.018 332.089 184.018C332.294 184.018 332.467 184.093 332.607 184.242C332.756 184.382 332.831 184.55 332.831 184.746C332.831 184.942 332.756 185.115 332.607 185.264C332.467 185.404 332.294 185.474 332.089 185.474ZM337.713 194.112C337.078 194.112 336.509 193.958 336.005 193.65C335.501 193.342 335.104 192.922 334.815 192.39C334.525 191.858 334.381 191.256 334.381 190.584C334.381 189.912 334.525 189.31 334.815 188.778C335.104 188.246 335.501 187.826 336.005 187.518C336.509 187.21 337.078 187.056 337.713 187.056C338.338 187.056 338.898 187.21 339.393 187.518C339.897 187.826 340.293 188.246 340.583 188.778C340.872 189.31 341.017 189.912 341.017 190.584C341.017 191.256 340.872 191.858 340.583 192.39C340.293 192.922 339.897 193.342 339.393 193.65C338.898 193.958 338.338 194.112 337.713 194.112ZM337.699 193.216C338.147 193.216 338.543 193.104 338.889 192.88C339.234 192.647 339.505 192.329 339.701 191.928C339.906 191.527 340.009 191.079 340.009 190.584C340.009 190.08 339.906 189.632 339.701 189.24C339.505 188.839 339.234 188.526 338.889 188.302C338.543 188.069 338.147 187.952 337.699 187.952C337.251 187.952 336.854 188.069 336.509 188.302C336.163 188.526 335.888 188.839 335.683 189.24C335.487 189.632 335.389 190.08 335.389 190.584C335.389 191.079 335.487 191.527 335.683 191.928C335.888 192.329 336.163 192.647 336.509 192.88C336.854 193.104 337.251 193.216 337.699 193.216ZM342.81 194V187.168H343.832V188.274C344.093 187.863 344.406 187.56 344.77 187.364C345.134 187.159 345.544 187.056 346.002 187.056C346.496 187.056 346.926 187.163 347.29 187.378C347.663 187.583 347.952 187.877 348.158 188.26C348.372 188.633 348.48 189.072 348.48 189.576V194H347.458V189.87C347.458 189.263 347.29 188.787 346.954 188.442C346.627 188.087 346.184 187.91 345.624 187.91C345.25 187.91 344.91 187.999 344.602 188.176C344.294 188.353 344.037 188.615 343.832 188.96V194H342.81ZM355.02 194L353.144 187.168H354.138L355.566 192.628L357.204 187.168H358.114L359.752 192.628L361.166 187.168H362.132L360.27 194H359.276L357.652 188.484L356.028 194H355.02ZM363.563 194V187.168H364.585V194H363.563ZM364.081 185.474C363.876 185.474 363.699 185.404 363.549 185.264C363.409 185.115 363.339 184.942 363.339 184.746C363.339 184.55 363.409 184.382 363.549 184.242C363.699 184.093 363.876 184.018 364.081 184.018C364.287 184.018 364.459 184.093 364.599 184.242C364.749 184.382 364.823 184.55 364.823 184.746C364.823 184.942 364.749 185.115 364.599 185.264C364.459 185.404 364.287 185.474 364.081 185.474ZM367.381 194.112C367.176 194.112 366.998 194.037 366.849 193.888C366.709 193.739 366.639 193.561 366.639 193.356C366.639 193.141 366.709 192.964 366.849 192.824C366.998 192.675 367.176 192.6 367.381 192.6C367.586 192.6 367.759 192.675 367.899 192.824C368.048 192.964 368.123 193.141 368.123 193.356C368.123 193.561 368.048 193.739 367.899 193.888C367.759 194.037 367.586 194.112 367.381 194.112ZM370.881 194.112C370.676 194.112 370.498 194.037 370.349 193.888C370.209 193.739 370.139 193.561 370.139 193.356C370.139 193.141 370.209 192.964 370.349 192.824C370.498 192.675 370.676 192.6 370.881 192.6C371.086 192.6 371.259 192.675 371.399 192.824C371.548 192.964 371.623 193.141 371.623 193.356C371.623 193.561 371.548 193.739 371.399 193.888C371.259 194.037 371.086 194.112 370.881 194.112ZM374.381 194.112C374.176 194.112 373.998 194.037 373.849 193.888C373.709 193.739 373.639 193.561 373.639 193.356C373.639 193.141 373.709 192.964 373.849 192.824C373.998 192.675 374.176 192.6 374.381 192.6C374.586 192.6 374.759 192.675 374.899 192.824C375.048 192.964 375.123 193.141 375.123 193.356C375.123 193.561 375.048 193.739 374.899 193.888C374.759 194.037 374.586 194.112 374.381 194.112Z" fill="#151515"/>
<path d="M469.882 160.585C470.218 160.249 470.763 160.249 471.099 160.585L471.706 161.193C472.042 161.529 472.042 162.073 471.706 162.409L468.97 165.146L471.706 167.882C472.042 168.218 472.042 168.763 471.706 169.099L471.099 169.706C470.763 170.042 470.218 170.042 469.882 169.706L467.146 166.97L464.409 169.706C464.073 170.042 463.529 170.042 463.193 169.706L462.585 169.099C462.249 168.763 462.249 168.218 462.585 167.882L465.321 165.146L462.585 162.409C462.25 162.073 462.249 161.529 462.585 161.193L463.193 160.585C463.529 160.249 464.073 160.25 464.409 160.585L467.146 163.321L469.882 160.585Z" fill="#1F1F1F"/>
</g>
<defs>
<filter id="filter0_d_1967_21583" x="0" y="23" width="514" height="118" filterUnits="userSpaceOnUse" color-interpolation-filters="sRGB">
<feFlood flood-opacity="0" result="BackgroundImageFix"/>
<feColorMatrix in="SourceAlpha" type="matrix" values="0 0 0 0 0 0 0 0 0 0 0 0 0 0 0 0 0 0 127 0" result="hardAlpha"/>
<feOffset dy="10"/>
<feGaussianBlur stdDeviation="10"/>
<feColorMatrix type="matrix" values="0 0 0 0 0.160784 0 0 0 0 0.160784 0 0 0 0 0.160784 0 0 0 0.15 0"/>
<feBlend mode="normal" in2="BackgroundImageFix" result="effect1_dropShadow_1967_21583"/>
<feBlend mode="normal" in="SourceGraphic" in2="effect1_dropShadow_1967_21583" result="shape"/>
</filter>
<filter id="filter1_d_1967_21583" x="0" y="128" width="514" height="118" filterUnits="userSpaceOnUse" color-interpolation-filters="sRGB">
<feFlood flood-opacity="0" result="BackgroundImageFix"/>
<feColorMatrix in="SourceAlpha" type="matrix" values="0 0 0 0 0 0 0 0 0 0 0 0 0 0 0 0 0 0 127 0" result="hardAlpha"/>
<feOffset dy="10"/>
<feGaussianBlur stdDeviation="10"/>
<feColorMatrix type="matrix" values="0 0 0 0 0.160784 0 0 0 0 0.160784 0 0 0 0 0.160784 0 0 0 0.15 0"/>
<feBlend mode="normal" in2="BackgroundImageFix" result="effect1_dropShadow_1967_21583"/>
<feBlend mode="normal" in="SourceGraphic" in2="effect1_dropShadow_1967_21583" result="shape"/>
</filter>
</defs>
</svg>
