<svg width="427" height="416" viewBox="0 0 427 416" fill="none" xmlns="http://www.w3.org/2000/svg">
<g clip-path="url(#clip0_1649_83856)">
<rect width="427" height="416" fill="white"/>
<rect width="1120" height="958" transform="translate(40 24)" fill="#F2F2F2"/>
<rect width="1120" height="69" transform="translate(40 24)" fill="#F2F2F2"/>
<path d="M94.6426 66.6426C95.116 66.6426 95.5 67.0266 95.5 67.5V69.6426C95.5 70.116 95.116 70.5 94.6426 70.5H72.3574C71.884 70.5 71.5 70.116 71.5 69.6426V67.5C71.5 67.0266 71.884 66.6426 72.3574 66.6426H94.6426ZM94.6426 58.0713C95.116 58.0713 95.5 58.4553 95.5 58.9287V61.0713C95.5 61.5447 95.116 61.9287 94.6426 61.9287H72.3574C71.884 61.9287 71.5 61.5447 71.5 61.0713V58.9287C71.5 58.4553 71.884 58.0713 72.3574 58.0713H94.6426ZM94.6426 49.5C95.116 49.5 95.5 49.884 95.5 50.3574V52.5C95.5 52.9734 95.116 53.3574 94.6426 53.3574H72.3574C71.884 53.3574 71.5 52.9734 71.5 52.5V50.3574C71.5 49.884 71.884 49.5 72.3574 49.5H94.6426Z" fill="#1F1F1F"/>
<rect width="254" height="768" transform="translate(40 93)" fill="#F2F2F2"/>
<path d="M64 123C64 119.686 66.6863 117 70 117H288C291.314 117 294 119.686 294 123V148C294 151.314 291.314 154 288 154H70C66.6863 154 64 151.314 64 148V123Z" fill="white"/>
<path d="M81.246 140V130.2H82.366L88.106 138.32L88.078 130.2H89.1V140H88.12L82.24 131.698L82.268 140H81.246ZM93.3769 140.126C92.8916 140.126 92.4622 140.037 92.0889 139.86C91.7156 139.683 91.4216 139.44 91.2069 139.132C91.0016 138.815 90.8989 138.451 90.8989 138.04C90.8989 137.629 91.0062 137.275 91.2209 136.976C91.4356 136.668 91.7342 136.43 92.1169 136.262C92.4996 136.094 92.9476 136.01 93.4609 136.01C93.8529 136.01 94.2216 136.052 94.5669 136.136C94.9216 136.22 95.2482 136.355 95.5469 136.542V135.604C95.5469 135.044 95.3976 134.624 95.0989 134.344C94.8002 134.055 94.3616 133.91 93.7829 133.91C93.4656 133.91 93.1389 133.957 92.8029 134.05C92.4762 134.143 92.1122 134.293 91.7109 134.498L91.3329 133.714C92.2476 133.275 93.1062 133.056 93.9089 133.056C94.7582 133.056 95.4116 133.266 95.8689 133.686C96.3262 134.097 96.5549 134.689 96.5549 135.464V140H95.5469V139.202C95.2482 139.51 94.9169 139.743 94.5529 139.902C94.1889 140.051 93.7969 140.126 93.3769 140.126ZM91.8789 138.012C91.8789 138.413 92.0329 138.735 92.3409 138.978C92.6582 139.221 93.0736 139.342 93.5869 139.342C93.9696 139.342 94.3196 139.277 94.6369 139.146C94.9636 139.015 95.2669 138.819 95.5469 138.558V137.242C95.2576 137.074 94.9589 136.953 94.6509 136.878C94.3429 136.794 93.9976 136.752 93.6149 136.752C93.0922 136.752 92.6722 136.869 92.3549 137.102C92.0376 137.326 91.8789 137.629 91.8789 138.012ZM100.319 140L97.5186 133.168H98.6246L100.837 138.726L103.021 133.168H104.113L101.299 140H100.319ZM108.626 140V133.168H109.648V140H108.626ZM109.144 131.474C108.939 131.474 108.761 131.404 108.612 131.264C108.472 131.115 108.402 130.942 108.402 130.746C108.402 130.55 108.472 130.382 108.612 130.242C108.761 130.093 108.939 130.018 109.144 130.018C109.349 130.018 109.522 130.093 109.662 130.242C109.811 130.382 109.886 130.55 109.886 130.746C109.886 130.942 109.811 131.115 109.662 131.264C109.522 131.404 109.349 131.474 109.144 131.474ZM114.347 140.14C113.759 140.14 113.311 140 113.003 139.72C112.705 139.431 112.555 139.015 112.555 138.474V134.008H111.141V133.168H112.555V131.292L113.577 131.054V133.168H115.537V134.008H113.577V138.208C113.577 138.572 113.652 138.833 113.801 138.992C113.96 139.151 114.217 139.23 114.571 139.23C114.749 139.23 114.907 139.216 115.047 139.188C115.187 139.16 115.351 139.113 115.537 139.048V139.958C115.351 140.023 115.155 140.07 114.949 140.098C114.744 140.126 114.543 140.14 114.347 140.14ZM119.978 140.14C119.343 140.14 118.769 139.986 118.256 139.678C117.742 139.361 117.336 138.936 117.038 138.404C116.739 137.863 116.59 137.256 116.59 136.584C116.59 135.912 116.73 135.31 117.01 134.778C117.299 134.246 117.686 133.826 118.172 133.518C118.657 133.21 119.198 133.056 119.796 133.056C120.402 133.056 120.939 133.21 121.406 133.518C121.882 133.817 122.255 134.227 122.526 134.75C122.806 135.263 122.946 135.847 122.946 136.5V136.808H117.584C117.621 137.275 117.747 137.695 117.962 138.068C118.186 138.432 118.475 138.721 118.83 138.936C119.194 139.141 119.59 139.244 120.02 139.244C120.374 139.244 120.715 139.183 121.042 139.062C121.378 138.931 121.662 138.759 121.896 138.544L122.54 139.23C122.148 139.538 121.742 139.767 121.322 139.916C120.902 140.065 120.454 140.14 119.978 140.14ZM117.612 136.08H121.938C121.891 135.669 121.765 135.305 121.56 134.988C121.364 134.661 121.112 134.405 120.804 134.218C120.505 134.031 120.169 133.938 119.796 133.938C119.422 133.938 119.082 134.031 118.774 134.218C118.466 134.395 118.209 134.647 118.004 134.974C117.808 135.291 117.677 135.66 117.612 136.08ZM124.691 140V133.168H125.713V134.232C125.974 133.84 126.273 133.546 126.609 133.35C126.945 133.154 127.323 133.056 127.743 133.056C128.228 133.056 128.653 133.177 129.017 133.42C129.381 133.653 129.656 133.975 129.843 134.386C130.113 133.947 130.435 133.616 130.809 133.392C131.191 133.168 131.63 133.056 132.125 133.056C132.582 133.056 132.983 133.163 133.329 133.378C133.683 133.593 133.959 133.891 134.155 134.274C134.351 134.647 134.449 135.086 134.449 135.59V140H133.427V135.842C133.427 135.245 133.277 134.773 132.979 134.428C132.68 134.083 132.269 133.91 131.747 133.91C131.392 133.91 131.07 133.999 130.781 134.176C130.501 134.353 130.253 134.624 130.039 134.988C130.057 135.081 130.071 135.179 130.081 135.282C130.09 135.385 130.095 135.487 130.095 135.59V140H129.073V135.842C129.073 135.245 128.919 134.773 128.611 134.428C128.312 134.083 127.901 133.91 127.379 133.91C126.679 133.91 126.123 134.246 125.713 134.918V140H124.691Z" fill="#151515"/>
<path d="M270.813 133.289C271.087 133.015 271.53 133.015 271.801 133.289L272.461 133.949C272.735 134.223 272.735 134.667 272.461 134.938L268.494 138.906C268.225 139.18 267.781 139.18 267.507 138.906L263.539 134.938C263.265 134.664 263.265 134.22 263.539 133.949L264.199 133.289C264.473 133.015 264.917 133.015 265.188 133.289L268 136.102L270.813 133.289Z" fill="#1F1F1F"/>
<path d="M100.41 185.154C99.6447 185.154 98.9353 185.019 98.282 184.748C97.6287 184.468 96.9987 184.048 96.392 183.488L97.05 182.704C97.638 183.255 98.1887 183.647 98.702 183.88C99.2247 184.113 99.8033 184.23 100.438 184.23C100.942 184.23 101.39 184.146 101.782 183.978C102.183 183.801 102.496 183.563 102.72 183.264C102.944 182.965 103.056 182.625 103.056 182.242C103.056 181.747 102.893 181.374 102.566 181.122C102.239 180.861 101.675 180.66 100.872 180.52L99.29 180.254C98.394 180.095 97.736 179.825 97.316 179.442C96.9053 179.05 96.7 178.527 96.7 177.874C96.7 177.323 96.84 176.838 97.12 176.418C97.4093 175.989 97.806 175.653 98.31 175.41C98.814 175.167 99.3973 175.046 100.06 175.046C100.788 175.046 101.465 175.149 102.09 175.354C102.715 175.55 103.331 175.863 103.938 176.292L103.378 177.132C102.874 176.749 102.342 176.46 101.782 176.264C101.222 176.059 100.653 175.956 100.074 175.956C99.6167 175.956 99.2107 176.035 98.856 176.194C98.5107 176.353 98.2353 176.567 98.03 176.838C97.834 177.109 97.736 177.417 97.736 177.762C97.736 178.191 97.8807 178.527 98.17 178.77C98.4593 179.013 98.9307 179.185 99.584 179.288L101.152 179.554C102.197 179.741 102.953 180.044 103.42 180.464C103.896 180.875 104.134 181.449 104.134 182.186C104.134 182.755 103.971 183.264 103.644 183.712C103.327 184.16 102.888 184.515 102.328 184.776C101.768 185.028 101.129 185.154 100.41 185.154ZM108.989 185.14C108.355 185.14 107.781 184.986 107.267 184.678C106.754 184.361 106.348 183.936 106.049 183.404C105.751 182.863 105.601 182.256 105.601 181.584C105.601 180.912 105.741 180.31 106.021 179.778C106.311 179.246 106.698 178.826 107.183 178.518C107.669 178.21 108.21 178.056 108.807 178.056C109.414 178.056 109.951 178.21 110.417 178.518C110.893 178.817 111.267 179.227 111.537 179.75C111.817 180.263 111.957 180.847 111.957 181.5V181.808H106.595C106.633 182.275 106.759 182.695 106.973 183.068C107.197 183.432 107.487 183.721 107.841 183.936C108.205 184.141 108.602 184.244 109.031 184.244C109.386 184.244 109.727 184.183 110.053 184.062C110.389 183.931 110.674 183.759 110.907 183.544L111.551 184.23C111.159 184.538 110.753 184.767 110.333 184.916C109.913 185.065 109.465 185.14 108.989 185.14ZM106.623 181.08H110.949C110.903 180.669 110.777 180.305 110.571 179.988C110.375 179.661 110.123 179.405 109.815 179.218C109.517 179.031 109.181 178.938 108.807 178.938C108.434 178.938 108.093 179.031 107.785 179.218C107.477 179.395 107.221 179.647 107.015 179.974C106.819 180.291 106.689 180.66 106.623 181.08ZM116.768 185.112C116.134 185.112 115.56 184.958 115.046 184.65C114.542 184.333 114.141 183.908 113.842 183.376C113.544 182.835 113.394 182.237 113.394 181.584C113.394 180.921 113.544 180.324 113.842 179.792C114.141 179.26 114.542 178.84 115.046 178.532C115.56 178.215 116.134 178.056 116.768 178.056C117.272 178.056 117.753 178.149 118.21 178.336C118.668 178.523 119.064 178.784 119.4 179.12L118.742 179.834C118.5 179.563 118.206 179.353 117.86 179.204C117.515 179.055 117.165 178.98 116.81 178.98C116.362 178.98 115.956 179.097 115.592 179.33C115.238 179.563 114.953 179.876 114.738 180.268C114.524 180.66 114.416 181.099 114.416 181.584C114.416 182.069 114.524 182.508 114.738 182.9C114.953 183.292 115.238 183.605 115.592 183.838C115.956 184.071 116.362 184.188 116.81 184.188C117.165 184.188 117.515 184.113 117.86 183.964C118.206 183.805 118.5 183.595 118.742 183.334L119.4 184.048C119.064 184.384 118.668 184.645 118.21 184.832C117.753 185.019 117.272 185.112 116.768 185.112ZM123.644 185.112C123.01 185.112 122.44 184.958 121.936 184.65C121.432 184.342 121.036 183.922 120.746 183.39C120.457 182.858 120.312 182.256 120.312 181.584C120.312 180.912 120.457 180.31 120.746 179.778C121.036 179.246 121.432 178.826 121.936 178.518C122.44 178.21 123.01 178.056 123.644 178.056C124.27 178.056 124.83 178.21 125.324 178.518C125.828 178.826 126.225 179.246 126.514 179.778C126.804 180.31 126.948 180.912 126.948 181.584C126.948 182.256 126.804 182.858 126.514 183.39C126.225 183.922 125.828 184.342 125.324 184.65C124.83 184.958 124.27 185.112 123.644 185.112ZM123.63 184.216C124.078 184.216 124.475 184.104 124.82 183.88C125.166 183.647 125.436 183.329 125.632 182.928C125.838 182.527 125.94 182.079 125.94 181.584C125.94 181.08 125.838 180.632 125.632 180.24C125.436 179.839 125.166 179.526 124.82 179.302C124.475 179.069 124.078 178.952 123.63 178.952C123.182 178.952 122.786 179.069 122.44 179.302C122.095 179.526 121.82 179.839 121.614 180.24C121.418 180.632 121.32 181.08 121.32 181.584C121.32 182.079 121.418 182.527 121.614 182.928C121.82 183.329 122.095 183.647 122.44 183.88C122.786 184.104 123.182 184.216 123.63 184.216ZM128.741 185V178.168H129.763V179.274C130.025 178.863 130.337 178.56 130.701 178.364C131.065 178.159 131.476 178.056 131.933 178.056C132.428 178.056 132.857 178.163 133.221 178.378C133.595 178.583 133.884 178.877 134.089 179.26C134.304 179.633 134.411 180.072 134.411 180.576V185H133.389V180.87C133.389 180.263 133.221 179.787 132.885 179.442C132.559 179.087 132.115 178.91 131.555 178.91C131.182 178.91 130.841 178.999 130.533 179.176C130.225 179.353 129.969 179.615 129.763 179.96V185H128.741ZM139.308 185.098C138.72 185.098 138.188 184.944 137.712 184.636C137.236 184.319 136.858 183.899 136.578 183.376C136.298 182.844 136.158 182.251 136.158 181.598C136.158 180.935 136.298 180.343 136.578 179.82C136.867 179.288 137.255 178.868 137.74 178.56C138.225 178.243 138.767 178.084 139.364 178.084C139.784 178.084 140.176 178.168 140.54 178.336C140.904 178.495 141.221 178.728 141.492 179.036V174.892L142.514 174.682V185H141.492V184.09C141.231 184.417 140.913 184.669 140.54 184.846C140.167 185.014 139.756 185.098 139.308 185.098ZM139.56 184.202C139.961 184.202 140.33 184.123 140.666 183.964C141.002 183.805 141.277 183.581 141.492 183.292V179.904C141.268 179.615 140.983 179.391 140.638 179.232C140.302 179.064 139.943 178.98 139.56 178.98C139.103 178.98 138.692 179.092 138.328 179.316C137.973 179.54 137.689 179.848 137.474 180.24C137.269 180.632 137.166 181.08 137.166 181.584C137.166 182.079 137.269 182.527 137.474 182.928C137.689 183.32 137.973 183.633 138.328 183.866C138.692 184.09 139.103 184.202 139.56 184.202ZM147.882 185V174.892L148.904 174.682V185H147.882ZM154.079 185.14C153.445 185.14 152.871 184.986 152.357 184.678C151.844 184.361 151.438 183.936 151.139 183.404C150.841 182.863 150.691 182.256 150.691 181.584C150.691 180.912 150.831 180.31 151.111 179.778C151.401 179.246 151.788 178.826 152.273 178.518C152.759 178.21 153.3 178.056 153.897 178.056C154.504 178.056 155.041 178.21 155.507 178.518C155.983 178.817 156.357 179.227 156.627 179.75C156.907 180.263 157.047 180.847 157.047 181.5V181.808H151.685C151.723 182.275 151.849 182.695 152.063 183.068C152.287 183.432 152.577 183.721 152.931 183.936C153.295 184.141 153.692 184.244 154.121 184.244C154.476 184.244 154.817 184.183 155.143 184.062C155.479 183.931 155.764 183.759 155.997 183.544L156.641 184.23C156.249 184.538 155.843 184.767 155.423 184.916C155.003 185.065 154.555 185.14 154.079 185.14ZM151.713 181.08H156.039C155.993 180.669 155.867 180.305 155.661 179.988C155.465 179.661 155.213 179.405 154.905 179.218C154.607 179.031 154.271 178.938 153.897 178.938C153.524 178.938 153.183 179.031 152.875 179.218C152.567 179.395 152.311 179.647 152.105 179.974C151.909 180.291 151.779 180.66 151.713 181.08ZM160.547 185L157.747 178.168H158.853L161.065 183.726L163.249 178.168H164.341L161.527 185H160.547ZM168.476 185.14C167.841 185.14 167.267 184.986 166.754 184.678C166.24 184.361 165.834 183.936 165.536 183.404C165.237 182.863 165.088 182.256 165.088 181.584C165.088 180.912 165.228 180.31 165.508 179.778C165.797 179.246 166.184 178.826 166.67 178.518C167.155 178.21 167.696 178.056 168.294 178.056C168.9 178.056 169.437 178.21 169.904 178.518C170.38 178.817 170.753 179.227 171.024 179.75C171.304 180.263 171.444 180.847 171.444 181.5V181.808H166.082C166.119 182.275 166.245 182.695 166.46 183.068C166.684 183.432 166.973 183.721 167.328 183.936C167.692 184.141 168.088 184.244 168.518 184.244C168.872 184.244 169.213 184.183 169.54 184.062C169.876 183.931 170.16 183.759 170.394 183.544L171.038 184.23C170.646 184.538 170.24 184.767 169.82 184.916C169.4 185.065 168.952 185.14 168.476 185.14ZM166.11 181.08H170.436C170.389 180.669 170.263 180.305 170.058 179.988C169.862 179.661 169.61 179.405 169.302 179.218C169.003 179.031 168.667 178.938 168.294 178.938C167.92 178.938 167.58 179.031 167.272 179.218C166.964 179.395 166.707 179.647 166.502 179.974C166.306 180.291 166.175 180.66 166.11 181.08ZM173.189 185V174.892L174.211 174.682V185H173.189ZM179.573 185V178.168H180.595V179.274C180.857 178.863 181.169 178.56 181.533 178.364C181.897 178.159 182.308 178.056 182.765 178.056C183.26 178.056 183.689 178.163 184.053 178.378C184.427 178.583 184.716 178.877 184.921 179.26C185.136 179.633 185.243 180.072 185.243 180.576V185H184.221V180.87C184.221 180.263 184.053 179.787 183.717 179.442C183.391 179.087 182.947 178.91 182.387 178.91C182.014 178.91 181.673 178.999 181.365 179.176C181.057 179.353 180.801 179.615 180.595 179.96V185H179.573ZM189.412 185.126C188.927 185.126 188.497 185.037 188.124 184.86C187.751 184.683 187.457 184.44 187.242 184.132C187.037 183.815 186.934 183.451 186.934 183.04C186.934 182.629 187.041 182.275 187.256 181.976C187.471 181.668 187.769 181.43 188.152 181.262C188.535 181.094 188.983 181.01 189.496 181.01C189.888 181.01 190.257 181.052 190.602 181.136C190.957 181.22 191.283 181.355 191.582 181.542V180.604C191.582 180.044 191.433 179.624 191.134 179.344C190.835 179.055 190.397 178.91 189.818 178.91C189.501 178.91 189.174 178.957 188.838 179.05C188.511 179.143 188.147 179.293 187.746 179.498L187.368 178.714C188.283 178.275 189.141 178.056 189.944 178.056C190.793 178.056 191.447 178.266 191.904 178.686C192.361 179.097 192.59 179.689 192.59 180.464V185H191.582V184.202C191.283 184.51 190.952 184.743 190.588 184.902C190.224 185.051 189.832 185.126 189.412 185.126ZM187.914 183.012C187.914 183.413 188.068 183.735 188.376 183.978C188.693 184.221 189.109 184.342 189.622 184.342C190.005 184.342 190.355 184.277 190.672 184.146C190.999 184.015 191.302 183.819 191.582 183.558V182.242C191.293 182.074 190.994 181.953 190.686 181.878C190.378 181.794 190.033 181.752 189.65 181.752C189.127 181.752 188.707 181.869 188.39 182.102C188.073 182.326 187.914 182.629 187.914 183.012ZM196.354 185L193.554 178.168H194.66L196.872 183.726L199.056 178.168H200.148L197.334 185H196.354ZM204.661 185V178.168H205.683V185H204.661ZM205.179 176.474C204.974 176.474 204.796 176.404 204.647 176.264C204.507 176.115 204.437 175.942 204.437 175.746C204.437 175.55 204.507 175.382 204.647 175.242C204.796 175.093 204.974 175.018 205.179 175.018C205.384 175.018 205.557 175.093 205.697 175.242C205.846 175.382 205.921 175.55 205.921 175.746C205.921 175.942 205.846 176.115 205.697 176.264C205.557 176.404 205.384 176.474 205.179 176.474ZM210.383 185.14C209.795 185.14 209.347 185 209.039 184.72C208.74 184.431 208.591 184.015 208.591 183.474V179.008H207.177V178.168H208.591V176.292L209.613 176.054V178.168H211.573V179.008H209.613V183.208C209.613 183.572 209.687 183.833 209.837 183.992C209.995 184.151 210.252 184.23 210.607 184.23C210.784 184.23 210.943 184.216 211.083 184.188C211.223 184.16 211.386 184.113 211.573 184.048V184.958C211.386 185.023 211.19 185.07 210.985 185.098C210.779 185.126 210.579 185.14 210.383 185.14ZM216.013 185.14C215.378 185.14 214.804 184.986 214.291 184.678C213.777 184.361 213.371 183.936 213.073 183.404C212.774 182.863 212.625 182.256 212.625 181.584C212.625 180.912 212.765 180.31 213.045 179.778C213.334 179.246 213.721 178.826 214.207 178.518C214.692 178.21 215.233 178.056 215.831 178.056C216.437 178.056 216.974 178.21 217.441 178.518C217.917 178.817 218.29 179.227 218.561 179.75C218.841 180.263 218.981 180.847 218.981 181.5V181.808H213.619C213.656 182.275 213.782 182.695 213.997 183.068C214.221 183.432 214.51 183.721 214.865 183.936C215.229 184.141 215.625 184.244 216.055 184.244C216.409 184.244 216.75 184.183 217.077 184.062C217.413 183.931 217.697 183.759 217.931 183.544L218.575 184.23C218.183 184.538 217.777 184.767 217.357 184.916C216.937 185.065 216.489 185.14 216.013 185.14ZM213.647 181.08H217.973C217.926 180.669 217.8 180.305 217.595 179.988C217.399 179.661 217.147 179.405 216.839 179.218C216.54 179.031 216.204 178.938 215.831 178.938C215.457 178.938 215.117 179.031 214.809 179.218C214.501 179.395 214.244 179.647 214.039 179.974C213.843 180.291 213.712 180.66 213.647 181.08ZM220.726 185V178.168H221.748V179.232C222.009 178.84 222.308 178.546 222.644 178.35C222.98 178.154 223.358 178.056 223.778 178.056C224.263 178.056 224.688 178.177 225.052 178.42C225.416 178.653 225.691 178.975 225.878 179.386C226.148 178.947 226.47 178.616 226.844 178.392C227.226 178.168 227.665 178.056 228.16 178.056C228.617 178.056 229.018 178.163 229.364 178.378C229.718 178.593 229.994 178.891 230.19 179.274C230.386 179.647 230.484 180.086 230.484 180.59V185H229.462V180.842C229.462 180.245 229.312 179.773 229.014 179.428C228.715 179.083 228.304 178.91 227.782 178.91C227.427 178.91 227.105 178.999 226.816 179.176C226.536 179.353 226.288 179.624 226.074 179.988C226.092 180.081 226.106 180.179 226.116 180.282C226.125 180.385 226.13 180.487 226.13 180.59V185H225.108V180.842C225.108 180.245 224.954 179.773 224.646 179.428C224.347 179.083 223.936 178.91 223.414 178.91C222.714 178.91 222.158 179.246 221.748 179.918V185H220.726Z" fill="#4D4D4D"/>
<path d="M100.41 230.154C99.6447 230.154 98.9353 230.019 98.282 229.748C97.6287 229.468 96.9987 229.048 96.392 228.488L97.05 227.704C97.638 228.255 98.1887 228.647 98.702 228.88C99.2247 229.113 99.8033 229.23 100.438 229.23C100.942 229.23 101.39 229.146 101.782 228.978C102.183 228.801 102.496 228.563 102.72 228.264C102.944 227.965 103.056 227.625 103.056 227.242C103.056 226.747 102.893 226.374 102.566 226.122C102.239 225.861 101.675 225.66 100.872 225.52L99.29 225.254C98.394 225.095 97.736 224.825 97.316 224.442C96.9053 224.05 96.7 223.527 96.7 222.874C96.7 222.323 96.84 221.838 97.12 221.418C97.4093 220.989 97.806 220.653 98.31 220.41C98.814 220.167 99.3973 220.046 100.06 220.046C100.788 220.046 101.465 220.149 102.09 220.354C102.715 220.55 103.331 220.863 103.938 221.292L103.378 222.132C102.874 221.749 102.342 221.46 101.782 221.264C101.222 221.059 100.653 220.956 100.074 220.956C99.6167 220.956 99.2107 221.035 98.856 221.194C98.5107 221.353 98.2353 221.567 98.03 221.838C97.834 222.109 97.736 222.417 97.736 222.762C97.736 223.191 97.8807 223.527 98.17 223.77C98.4593 224.013 98.9307 224.185 99.584 224.288L101.152 224.554C102.197 224.741 102.953 225.044 103.42 225.464C103.896 225.875 104.134 226.449 104.134 227.186C104.134 227.755 103.971 228.264 103.644 228.712C103.327 229.16 102.888 229.515 102.328 229.776C101.768 230.028 101.129 230.154 100.41 230.154ZM108.989 230.14C108.355 230.14 107.781 229.986 107.267 229.678C106.754 229.361 106.348 228.936 106.049 228.404C105.751 227.863 105.601 227.256 105.601 226.584C105.601 225.912 105.741 225.31 106.021 224.778C106.311 224.246 106.698 223.826 107.183 223.518C107.669 223.21 108.21 223.056 108.807 223.056C109.414 223.056 109.951 223.21 110.417 223.518C110.893 223.817 111.267 224.227 111.537 224.75C111.817 225.263 111.957 225.847 111.957 226.5V226.808H106.595C106.633 227.275 106.759 227.695 106.973 228.068C107.197 228.432 107.487 228.721 107.841 228.936C108.205 229.141 108.602 229.244 109.031 229.244C109.386 229.244 109.727 229.183 110.053 229.062C110.389 228.931 110.674 228.759 110.907 228.544L111.551 229.23C111.159 229.538 110.753 229.767 110.333 229.916C109.913 230.065 109.465 230.14 108.989 230.14ZM106.623 226.08H110.949C110.903 225.669 110.777 225.305 110.571 224.988C110.375 224.661 110.123 224.405 109.815 224.218C109.517 224.031 109.181 223.938 108.807 223.938C108.434 223.938 108.093 224.031 107.785 224.218C107.477 224.395 107.221 224.647 107.015 224.974C106.819 225.291 106.689 225.66 106.623 226.08ZM116.768 230.112C116.134 230.112 115.56 229.958 115.046 229.65C114.542 229.333 114.141 228.908 113.842 228.376C113.544 227.835 113.394 227.237 113.394 226.584C113.394 225.921 113.544 225.324 113.842 224.792C114.141 224.26 114.542 223.84 115.046 223.532C115.56 223.215 116.134 223.056 116.768 223.056C117.272 223.056 117.753 223.149 118.21 223.336C118.668 223.523 119.064 223.784 119.4 224.12L118.742 224.834C118.5 224.563 118.206 224.353 117.86 224.204C117.515 224.055 117.165 223.98 116.81 223.98C116.362 223.98 115.956 224.097 115.592 224.33C115.238 224.563 114.953 224.876 114.738 225.268C114.524 225.66 114.416 226.099 114.416 226.584C114.416 227.069 114.524 227.508 114.738 227.9C114.953 228.292 115.238 228.605 115.592 228.838C115.956 229.071 116.362 229.188 116.81 229.188C117.165 229.188 117.515 229.113 117.86 228.964C118.206 228.805 118.5 228.595 118.742 228.334L119.4 229.048C119.064 229.384 118.668 229.645 118.21 229.832C117.753 230.019 117.272 230.112 116.768 230.112ZM123.644 230.112C123.01 230.112 122.44 229.958 121.936 229.65C121.432 229.342 121.036 228.922 120.746 228.39C120.457 227.858 120.312 227.256 120.312 226.584C120.312 225.912 120.457 225.31 120.746 224.778C121.036 224.246 121.432 223.826 121.936 223.518C122.44 223.21 123.01 223.056 123.644 223.056C124.27 223.056 124.83 223.21 125.324 223.518C125.828 223.826 126.225 224.246 126.514 224.778C126.804 225.31 126.948 225.912 126.948 226.584C126.948 227.256 126.804 227.858 126.514 228.39C126.225 228.922 125.828 229.342 125.324 229.65C124.83 229.958 124.27 230.112 123.644 230.112ZM123.63 229.216C124.078 229.216 124.475 229.104 124.82 228.88C125.166 228.647 125.436 228.329 125.632 227.928C125.838 227.527 125.94 227.079 125.94 226.584C125.94 226.08 125.838 225.632 125.632 225.24C125.436 224.839 125.166 224.526 124.82 224.302C124.475 224.069 124.078 223.952 123.63 223.952C123.182 223.952 122.786 224.069 122.44 224.302C122.095 224.526 121.82 224.839 121.614 225.24C121.418 225.632 121.32 226.08 121.32 226.584C121.32 227.079 121.418 227.527 121.614 227.928C121.82 228.329 122.095 228.647 122.44 228.88C122.786 229.104 123.182 229.216 123.63 229.216ZM128.741 230V223.168H129.763V224.274C130.025 223.863 130.337 223.56 130.701 223.364C131.065 223.159 131.476 223.056 131.933 223.056C132.428 223.056 132.857 223.163 133.221 223.378C133.595 223.583 133.884 223.877 134.089 224.26C134.304 224.633 134.411 225.072 134.411 225.576V230H133.389V225.87C133.389 225.263 133.221 224.787 132.885 224.442C132.559 224.087 132.115 223.91 131.555 223.91C131.182 223.91 130.841 223.999 130.533 224.176C130.225 224.353 129.969 224.615 129.763 224.96V230H128.741ZM139.308 230.098C138.72 230.098 138.188 229.944 137.712 229.636C137.236 229.319 136.858 228.899 136.578 228.376C136.298 227.844 136.158 227.251 136.158 226.598C136.158 225.935 136.298 225.343 136.578 224.82C136.867 224.288 137.255 223.868 137.74 223.56C138.225 223.243 138.767 223.084 139.364 223.084C139.784 223.084 140.176 223.168 140.54 223.336C140.904 223.495 141.221 223.728 141.492 224.036V219.892L142.514 219.682V230H141.492V229.09C141.231 229.417 140.913 229.669 140.54 229.846C140.167 230.014 139.756 230.098 139.308 230.098ZM139.56 229.202C139.961 229.202 140.33 229.123 140.666 228.964C141.002 228.805 141.277 228.581 141.492 228.292V224.904C141.268 224.615 140.983 224.391 140.638 224.232C140.302 224.064 139.943 223.98 139.56 223.98C139.103 223.98 138.692 224.092 138.328 224.316C137.973 224.54 137.689 224.848 137.474 225.24C137.269 225.632 137.166 226.08 137.166 226.584C137.166 227.079 137.269 227.527 137.474 227.928C137.689 228.32 137.973 228.633 138.328 228.866C138.692 229.09 139.103 229.202 139.56 229.202ZM147.882 230V219.892L148.904 219.682V230H147.882ZM154.079 230.14C153.445 230.14 152.871 229.986 152.357 229.678C151.844 229.361 151.438 228.936 151.139 228.404C150.841 227.863 150.691 227.256 150.691 226.584C150.691 225.912 150.831 225.31 151.111 224.778C151.401 224.246 151.788 223.826 152.273 223.518C152.759 223.21 153.3 223.056 153.897 223.056C154.504 223.056 155.041 223.21 155.507 223.518C155.983 223.817 156.357 224.227 156.627 224.75C156.907 225.263 157.047 225.847 157.047 226.5V226.808H151.685C151.723 227.275 151.849 227.695 152.063 228.068C152.287 228.432 152.577 228.721 152.931 228.936C153.295 229.141 153.692 229.244 154.121 229.244C154.476 229.244 154.817 229.183 155.143 229.062C155.479 228.931 155.764 228.759 155.997 228.544L156.641 229.23C156.249 229.538 155.843 229.767 155.423 229.916C155.003 230.065 154.555 230.14 154.079 230.14ZM151.713 226.08H156.039C155.993 225.669 155.867 225.305 155.661 224.988C155.465 224.661 155.213 224.405 154.905 224.218C154.607 224.031 154.271 223.938 153.897 223.938C153.524 223.938 153.183 224.031 152.875 224.218C152.567 224.395 152.311 224.647 152.105 224.974C151.909 225.291 151.779 225.66 151.713 226.08ZM160.547 230L157.747 223.168H158.853L161.065 228.726L163.249 223.168H164.341L161.527 230H160.547ZM168.476 230.14C167.841 230.14 167.267 229.986 166.754 229.678C166.24 229.361 165.834 228.936 165.536 228.404C165.237 227.863 165.088 227.256 165.088 226.584C165.088 225.912 165.228 225.31 165.508 224.778C165.797 224.246 166.184 223.826 166.67 223.518C167.155 223.21 167.696 223.056 168.294 223.056C168.9 223.056 169.437 223.21 169.904 223.518C170.38 223.817 170.753 224.227 171.024 224.75C171.304 225.263 171.444 225.847 171.444 226.5V226.808H166.082C166.119 227.275 166.245 227.695 166.46 228.068C166.684 228.432 166.973 228.721 167.328 228.936C167.692 229.141 168.088 229.244 168.518 229.244C168.872 229.244 169.213 229.183 169.54 229.062C169.876 228.931 170.16 228.759 170.394 228.544L171.038 229.23C170.646 229.538 170.24 229.767 169.82 229.916C169.4 230.065 168.952 230.14 168.476 230.14ZM166.11 226.08H170.436C170.389 225.669 170.263 225.305 170.058 224.988C169.862 224.661 169.61 224.405 169.302 224.218C169.003 224.031 168.667 223.938 168.294 223.938C167.92 223.938 167.58 224.031 167.272 224.218C166.964 224.395 166.707 224.647 166.502 224.974C166.306 225.291 166.175 225.66 166.11 226.08ZM173.189 230V219.892L174.211 219.682V230H173.189ZM179.573 230V223.168H180.595V224.274C180.857 223.863 181.169 223.56 181.533 223.364C181.897 223.159 182.308 223.056 182.765 223.056C183.26 223.056 183.689 223.163 184.053 223.378C184.427 223.583 184.716 223.877 184.921 224.26C185.136 224.633 185.243 225.072 185.243 225.576V230H184.221V225.87C184.221 225.263 184.053 224.787 183.717 224.442C183.391 224.087 182.947 223.91 182.387 223.91C182.014 223.91 181.673 223.999 181.365 224.176C181.057 224.353 180.801 224.615 180.595 224.96V230H179.573ZM189.412 230.126C188.927 230.126 188.497 230.037 188.124 229.86C187.751 229.683 187.457 229.44 187.242 229.132C187.037 228.815 186.934 228.451 186.934 228.04C186.934 227.629 187.041 227.275 187.256 226.976C187.471 226.668 187.769 226.43 188.152 226.262C188.535 226.094 188.983 226.01 189.496 226.01C189.888 226.01 190.257 226.052 190.602 226.136C190.957 226.22 191.283 226.355 191.582 226.542V225.604C191.582 225.044 191.433 224.624 191.134 224.344C190.835 224.055 190.397 223.91 189.818 223.91C189.501 223.91 189.174 223.957 188.838 224.05C188.511 224.143 188.147 224.293 187.746 224.498L187.368 223.714C188.283 223.275 189.141 223.056 189.944 223.056C190.793 223.056 191.447 223.266 191.904 223.686C192.361 224.097 192.59 224.689 192.59 225.464V230H191.582V229.202C191.283 229.51 190.952 229.743 190.588 229.902C190.224 230.051 189.832 230.126 189.412 230.126ZM187.914 228.012C187.914 228.413 188.068 228.735 188.376 228.978C188.693 229.221 189.109 229.342 189.622 229.342C190.005 229.342 190.355 229.277 190.672 229.146C190.999 229.015 191.302 228.819 191.582 228.558V227.242C191.293 227.074 190.994 226.953 190.686 226.878C190.378 226.794 190.033 226.752 189.65 226.752C189.127 226.752 188.707 226.869 188.39 227.102C188.073 227.326 187.914 227.629 187.914 228.012ZM196.354 230L193.554 223.168H194.66L196.872 228.726L199.056 223.168H200.148L197.334 230H196.354ZM204.661 230V223.168H205.683V230H204.661ZM205.179 221.474C204.974 221.474 204.796 221.404 204.647 221.264C204.507 221.115 204.437 220.942 204.437 220.746C204.437 220.55 204.507 220.382 204.647 220.242C204.796 220.093 204.974 220.018 205.179 220.018C205.384 220.018 205.557 220.093 205.697 220.242C205.846 220.382 205.921 220.55 205.921 220.746C205.921 220.942 205.846 221.115 205.697 221.264C205.557 221.404 205.384 221.474 205.179 221.474ZM210.383 230.14C209.795 230.14 209.347 230 209.039 229.72C208.74 229.431 208.591 229.015 208.591 228.474V224.008H207.177V223.168H208.591V221.292L209.613 221.054V223.168H211.573V224.008H209.613V228.208C209.613 228.572 209.687 228.833 209.837 228.992C209.995 229.151 210.252 229.23 210.607 229.23C210.784 229.23 210.943 229.216 211.083 229.188C211.223 229.16 211.386 229.113 211.573 229.048V229.958C211.386 230.023 211.19 230.07 210.985 230.098C210.779 230.126 210.579 230.14 210.383 230.14ZM216.013 230.14C215.378 230.14 214.804 229.986 214.291 229.678C213.777 229.361 213.371 228.936 213.073 228.404C212.774 227.863 212.625 227.256 212.625 226.584C212.625 225.912 212.765 225.31 213.045 224.778C213.334 224.246 213.721 223.826 214.207 223.518C214.692 223.21 215.233 223.056 215.831 223.056C216.437 223.056 216.974 223.21 217.441 223.518C217.917 223.817 218.29 224.227 218.561 224.75C218.841 225.263 218.981 225.847 218.981 226.5V226.808H213.619C213.656 227.275 213.782 227.695 213.997 228.068C214.221 228.432 214.51 228.721 214.865 228.936C215.229 229.141 215.625 229.244 216.055 229.244C216.409 229.244 216.75 229.183 217.077 229.062C217.413 228.931 217.697 228.759 217.931 228.544L218.575 229.23C218.183 229.538 217.777 229.767 217.357 229.916C216.937 230.065 216.489 230.14 216.013 230.14ZM213.647 226.08H217.973C217.926 225.669 217.8 225.305 217.595 224.988C217.399 224.661 217.147 224.405 216.839 224.218C216.54 224.031 216.204 223.938 215.831 223.938C215.457 223.938 215.117 224.031 214.809 224.218C214.501 224.395 214.244 224.647 214.039 224.974C213.843 225.291 213.712 225.66 213.647 226.08ZM220.726 230V223.168H221.748V224.232C222.009 223.84 222.308 223.546 222.644 223.35C222.98 223.154 223.358 223.056 223.778 223.056C224.263 223.056 224.688 223.177 225.052 223.42C225.416 223.653 225.691 223.975 225.878 224.386C226.148 223.947 226.47 223.616 226.844 223.392C227.226 223.168 227.665 223.056 228.16 223.056C228.617 223.056 229.018 223.163 229.364 223.378C229.718 223.593 229.994 223.891 230.19 224.274C230.386 224.647 230.484 225.086 230.484 225.59V230H229.462V225.842C229.462 225.245 229.312 224.773 229.014 224.428C228.715 224.083 228.304 223.91 227.782 223.91C227.427 223.91 227.105 223.999 226.816 224.176C226.536 224.353 226.288 224.624 226.074 224.988C226.092 225.081 226.106 225.179 226.116 225.282C226.125 225.385 226.13 225.487 226.13 225.59V230H225.108V225.842C225.108 225.245 224.954 224.773 224.646 224.428C224.347 224.083 223.936 223.91 223.414 223.91C222.714 223.91 222.158 224.246 221.748 224.918V230H220.726Z" fill="#4D4D4D"/>
<path d="M81.246 283V273.2H82.366L88.106 281.32L88.078 273.2H89.1V283H88.12L82.24 274.698L82.268 283H81.246ZM93.3769 283.126C92.8916 283.126 92.4622 283.037 92.0889 282.86C91.7156 282.683 91.4216 282.44 91.2069 282.132C91.0016 281.815 90.8989 281.451 90.8989 281.04C90.8989 280.629 91.0062 280.275 91.2209 279.976C91.4356 279.668 91.7342 279.43 92.1169 279.262C92.4996 279.094 92.9476 279.01 93.4609 279.01C93.8529 279.01 94.2216 279.052 94.5669 279.136C94.9216 279.22 95.2482 279.355 95.5469 279.542V278.604C95.5469 278.044 95.3976 277.624 95.0989 277.344C94.8002 277.055 94.3616 276.91 93.7829 276.91C93.4656 276.91 93.1389 276.957 92.8029 277.05C92.4762 277.143 92.1122 277.293 91.7109 277.498L91.3329 276.714C92.2476 276.275 93.1062 276.056 93.9089 276.056C94.7582 276.056 95.4116 276.266 95.8689 276.686C96.3262 277.097 96.5549 277.689 96.5549 278.464V283H95.5469V282.202C95.2482 282.51 94.9169 282.743 94.5529 282.902C94.1889 283.051 93.7969 283.126 93.3769 283.126ZM91.8789 281.012C91.8789 281.413 92.0329 281.735 92.3409 281.978C92.6582 282.221 93.0736 282.342 93.5869 282.342C93.9696 282.342 94.3196 282.277 94.6369 282.146C94.9636 282.015 95.2669 281.819 95.5469 281.558V280.242C95.2576 280.074 94.9589 279.953 94.6509 279.878C94.3429 279.794 93.9976 279.752 93.6149 279.752C93.0922 279.752 92.6722 279.869 92.3549 280.102C92.0376 280.326 91.8789 280.629 91.8789 281.012ZM100.319 283L97.5186 276.168H98.6246L100.837 281.726L103.021 276.168H104.113L101.299 283H100.319ZM108.626 283V276.168H109.648V283H108.626ZM109.144 274.474C108.939 274.474 108.761 274.404 108.612 274.264C108.472 274.115 108.402 273.942 108.402 273.746C108.402 273.55 108.472 273.382 108.612 273.242C108.761 273.093 108.939 273.018 109.144 273.018C109.349 273.018 109.522 273.093 109.662 273.242C109.811 273.382 109.886 273.55 109.886 273.746C109.886 273.942 109.811 274.115 109.662 274.264C109.522 274.404 109.349 274.474 109.144 274.474ZM114.347 283.14C113.759 283.14 113.311 283 113.003 282.72C112.705 282.431 112.555 282.015 112.555 281.474V277.008H111.141V276.168H112.555V274.292L113.577 274.054V276.168H115.537V277.008H113.577V281.208C113.577 281.572 113.652 281.833 113.801 281.992C113.96 282.151 114.217 282.23 114.571 282.23C114.749 282.23 114.907 282.216 115.047 282.188C115.187 282.16 115.351 282.113 115.537 282.048V282.958C115.351 283.023 115.155 283.07 114.949 283.098C114.744 283.126 114.543 283.14 114.347 283.14ZM119.978 283.14C119.343 283.14 118.769 282.986 118.256 282.678C117.742 282.361 117.336 281.936 117.038 281.404C116.739 280.863 116.59 280.256 116.59 279.584C116.59 278.912 116.73 278.31 117.01 277.778C117.299 277.246 117.686 276.826 118.172 276.518C118.657 276.21 119.198 276.056 119.796 276.056C120.402 276.056 120.939 276.21 121.406 276.518C121.882 276.817 122.255 277.227 122.526 277.75C122.806 278.263 122.946 278.847 122.946 279.5V279.808H117.584C117.621 280.275 117.747 280.695 117.962 281.068C118.186 281.432 118.475 281.721 118.83 281.936C119.194 282.141 119.59 282.244 120.02 282.244C120.374 282.244 120.715 282.183 121.042 282.062C121.378 281.931 121.662 281.759 121.896 281.544L122.54 282.23C122.148 282.538 121.742 282.767 121.322 282.916C120.902 283.065 120.454 283.14 119.978 283.14ZM117.612 279.08H121.938C121.891 278.669 121.765 278.305 121.56 277.988C121.364 277.661 121.112 277.405 120.804 277.218C120.505 277.031 120.169 276.938 119.796 276.938C119.422 276.938 119.082 277.031 118.774 277.218C118.466 277.395 118.209 277.647 118.004 277.974C117.808 278.291 117.677 278.66 117.612 279.08ZM124.691 283V276.168H125.713V277.232C125.974 276.84 126.273 276.546 126.609 276.35C126.945 276.154 127.323 276.056 127.743 276.056C128.228 276.056 128.653 276.177 129.017 276.42C129.381 276.653 129.656 276.975 129.843 277.386C130.113 276.947 130.435 276.616 130.809 276.392C131.191 276.168 131.63 276.056 132.125 276.056C132.582 276.056 132.983 276.163 133.329 276.378C133.683 276.593 133.959 276.891 134.155 277.274C134.351 277.647 134.449 278.086 134.449 278.59V283H133.427V278.842C133.427 278.245 133.277 277.773 132.979 277.428C132.68 277.083 132.269 276.91 131.747 276.91C131.392 276.91 131.07 276.999 130.781 277.176C130.501 277.353 130.253 277.624 130.039 277.988C130.057 278.081 130.071 278.179 130.081 278.282C130.09 278.385 130.095 278.487 130.095 278.59V283H129.073V278.842C129.073 278.245 128.919 277.773 128.611 277.428C128.312 277.083 127.901 276.91 127.379 276.91C126.679 276.91 126.123 277.246 125.713 277.918V283H124.691Z" fill="#4D4D4D"/>
<path d="M265.973 274.539C266.256 274.265 266.714 274.265 266.994 274.539L271.089 278.504C271.375 278.778 271.375 279.221 271.092 279.495L266.996 283.461C266.713 283.735 266.256 283.735 265.976 283.461L265.295 282.802C265.013 282.528 265.013 282.085 265.295 281.814L268.199 279.003L265.295 276.192C265.013 275.918 265.012 275.474 265.295 275.203L265.973 274.539Z" fill="#707070"/>
<path d="M81.246 328V318.2H82.366L88.106 326.32L88.078 318.2H89.1V328H88.12L82.24 319.698L82.268 328H81.246ZM93.3769 328.126C92.8916 328.126 92.4622 328.037 92.0889 327.86C91.7156 327.683 91.4216 327.44 91.2069 327.132C91.0016 326.815 90.8989 326.451 90.8989 326.04C90.8989 325.629 91.0062 325.275 91.2209 324.976C91.4356 324.668 91.7342 324.43 92.1169 324.262C92.4996 324.094 92.9476 324.01 93.4609 324.01C93.8529 324.01 94.2216 324.052 94.5669 324.136C94.9216 324.22 95.2482 324.355 95.5469 324.542V323.604C95.5469 323.044 95.3976 322.624 95.0989 322.344C94.8002 322.055 94.3616 321.91 93.7829 321.91C93.4656 321.91 93.1389 321.957 92.8029 322.05C92.4762 322.143 92.1122 322.293 91.7109 322.498L91.3329 321.714C92.2476 321.275 93.1062 321.056 93.9089 321.056C94.7582 321.056 95.4116 321.266 95.8689 321.686C96.3262 322.097 96.5549 322.689 96.5549 323.464V328H95.5469V327.202C95.2482 327.51 94.9169 327.743 94.5529 327.902C94.1889 328.051 93.7969 328.126 93.3769 328.126ZM91.8789 326.012C91.8789 326.413 92.0329 326.735 92.3409 326.978C92.6582 327.221 93.0736 327.342 93.5869 327.342C93.9696 327.342 94.3196 327.277 94.6369 327.146C94.9636 327.015 95.2669 326.819 95.5469 326.558V325.242C95.2576 325.074 94.9589 324.953 94.6509 324.878C94.3429 324.794 93.9976 324.752 93.6149 324.752C93.0922 324.752 92.6722 324.869 92.3549 325.102C92.0376 325.326 91.8789 325.629 91.8789 326.012ZM100.319 328L97.5186 321.168H98.6246L100.837 326.726L103.021 321.168H104.113L101.299 328H100.319ZM108.626 328V321.168H109.648V328H108.626ZM109.144 319.474C108.939 319.474 108.761 319.404 108.612 319.264C108.472 319.115 108.402 318.942 108.402 318.746C108.402 318.55 108.472 318.382 108.612 318.242C108.761 318.093 108.939 318.018 109.144 318.018C109.349 318.018 109.522 318.093 109.662 318.242C109.811 318.382 109.886 318.55 109.886 318.746C109.886 318.942 109.811 319.115 109.662 319.264C109.522 319.404 109.349 319.474 109.144 319.474ZM114.347 328.14C113.759 328.14 113.311 328 113.003 327.72C112.705 327.431 112.555 327.015 112.555 326.474V322.008H111.141V321.168H112.555V319.292L113.577 319.054V321.168H115.537V322.008H113.577V326.208C113.577 326.572 113.652 326.833 113.801 326.992C113.96 327.151 114.217 327.23 114.571 327.23C114.749 327.23 114.907 327.216 115.047 327.188C115.187 327.16 115.351 327.113 115.537 327.048V327.958C115.351 328.023 115.155 328.07 114.949 328.098C114.744 328.126 114.543 328.14 114.347 328.14ZM119.978 328.14C119.343 328.14 118.769 327.986 118.256 327.678C117.742 327.361 117.336 326.936 117.038 326.404C116.739 325.863 116.59 325.256 116.59 324.584C116.59 323.912 116.73 323.31 117.01 322.778C117.299 322.246 117.686 321.826 118.172 321.518C118.657 321.21 119.198 321.056 119.796 321.056C120.402 321.056 120.939 321.21 121.406 321.518C121.882 321.817 122.255 322.227 122.526 322.75C122.806 323.263 122.946 323.847 122.946 324.5V324.808H117.584C117.621 325.275 117.747 325.695 117.962 326.068C118.186 326.432 118.475 326.721 118.83 326.936C119.194 327.141 119.59 327.244 120.02 327.244C120.374 327.244 120.715 327.183 121.042 327.062C121.378 326.931 121.662 326.759 121.896 326.544L122.54 327.23C122.148 327.538 121.742 327.767 121.322 327.916C120.902 328.065 120.454 328.14 119.978 328.14ZM117.612 324.08H121.938C121.891 323.669 121.765 323.305 121.56 322.988C121.364 322.661 121.112 322.405 120.804 322.218C120.505 322.031 120.169 321.938 119.796 321.938C119.422 321.938 119.082 322.031 118.774 322.218C118.466 322.395 118.209 322.647 118.004 322.974C117.808 323.291 117.677 323.66 117.612 324.08ZM124.691 328V321.168H125.713V322.232C125.974 321.84 126.273 321.546 126.609 321.35C126.945 321.154 127.323 321.056 127.743 321.056C128.228 321.056 128.653 321.177 129.017 321.42C129.381 321.653 129.656 321.975 129.843 322.386C130.113 321.947 130.435 321.616 130.809 321.392C131.191 321.168 131.63 321.056 132.125 321.056C132.582 321.056 132.983 321.163 133.329 321.378C133.683 321.593 133.959 321.891 134.155 322.274C134.351 322.647 134.449 323.086 134.449 323.59V328H133.427V323.842C133.427 323.245 133.277 322.773 132.979 322.428C132.68 322.083 132.269 321.91 131.747 321.91C131.392 321.91 131.07 321.999 130.781 322.176C130.501 322.353 130.253 322.624 130.039 322.988C130.057 323.081 130.071 323.179 130.081 323.282C130.09 323.385 130.095 323.487 130.095 323.59V328H129.073V323.842C129.073 323.245 128.919 322.773 128.611 322.428C128.312 322.083 127.901 321.91 127.379 321.91C126.679 321.91 126.123 322.246 125.713 322.918V328H124.691Z" fill="#4D4D4D"/>
<path d="M265.973 319.539C266.256 319.265 266.714 319.265 266.994 319.539L271.089 323.504C271.375 323.778 271.375 324.221 271.092 324.495L266.996 328.461C266.713 328.735 266.256 328.735 265.976 328.461L265.295 327.802C265.013 327.528 265.013 327.085 265.295 326.814L268.199 324.003L265.295 321.192C265.013 320.918 265.012 320.474 265.295 320.203L265.973 319.539Z" fill="#707070"/>
<path d="M81.246 373V363.2H82.366L88.106 371.32L88.078 363.2H89.1V373H88.12L82.24 364.698L82.268 373H81.246ZM93.3769 373.126C92.8916 373.126 92.4622 373.037 92.0889 372.86C91.7156 372.683 91.4216 372.44 91.2069 372.132C91.0016 371.815 90.8989 371.451 90.8989 371.04C90.8989 370.629 91.0062 370.275 91.2209 369.976C91.4356 369.668 91.7342 369.43 92.1169 369.262C92.4996 369.094 92.9476 369.01 93.4609 369.01C93.8529 369.01 94.2216 369.052 94.5669 369.136C94.9216 369.22 95.2482 369.355 95.5469 369.542V368.604C95.5469 368.044 95.3976 367.624 95.0989 367.344C94.8002 367.055 94.3616 366.91 93.7829 366.91C93.4656 366.91 93.1389 366.957 92.8029 367.05C92.4762 367.143 92.1122 367.293 91.7109 367.498L91.3329 366.714C92.2476 366.275 93.1062 366.056 93.9089 366.056C94.7582 366.056 95.4116 366.266 95.8689 366.686C96.3262 367.097 96.5549 367.689 96.5549 368.464V373H95.5469V372.202C95.2482 372.51 94.9169 372.743 94.5529 372.902C94.1889 373.051 93.7969 373.126 93.3769 373.126ZM91.8789 371.012C91.8789 371.413 92.0329 371.735 92.3409 371.978C92.6582 372.221 93.0736 372.342 93.5869 372.342C93.9696 372.342 94.3196 372.277 94.6369 372.146C94.9636 372.015 95.2669 371.819 95.5469 371.558V370.242C95.2576 370.074 94.9589 369.953 94.6509 369.878C94.3429 369.794 93.9976 369.752 93.6149 369.752C93.0922 369.752 92.6722 369.869 92.3549 370.102C92.0376 370.326 91.8789 370.629 91.8789 371.012ZM100.319 373L97.5186 366.168H98.6246L100.837 371.726L103.021 366.168H104.113L101.299 373H100.319ZM108.626 373V366.168H109.648V373H108.626ZM109.144 364.474C108.939 364.474 108.761 364.404 108.612 364.264C108.472 364.115 108.402 363.942 108.402 363.746C108.402 363.55 108.472 363.382 108.612 363.242C108.761 363.093 108.939 363.018 109.144 363.018C109.349 363.018 109.522 363.093 109.662 363.242C109.811 363.382 109.886 363.55 109.886 363.746C109.886 363.942 109.811 364.115 109.662 364.264C109.522 364.404 109.349 364.474 109.144 364.474ZM114.347 373.14C113.759 373.14 113.311 373 113.003 372.72C112.705 372.431 112.555 372.015 112.555 371.474V367.008H111.141V366.168H112.555V364.292L113.577 364.054V366.168H115.537V367.008H113.577V371.208C113.577 371.572 113.652 371.833 113.801 371.992C113.96 372.151 114.217 372.23 114.571 372.23C114.749 372.23 114.907 372.216 115.047 372.188C115.187 372.16 115.351 372.113 115.537 372.048V372.958C115.351 373.023 115.155 373.07 114.949 373.098C114.744 373.126 114.543 373.14 114.347 373.14ZM119.978 373.14C119.343 373.14 118.769 372.986 118.256 372.678C117.742 372.361 117.336 371.936 117.038 371.404C116.739 370.863 116.59 370.256 116.59 369.584C116.59 368.912 116.73 368.31 117.01 367.778C117.299 367.246 117.686 366.826 118.172 366.518C118.657 366.21 119.198 366.056 119.796 366.056C120.402 366.056 120.939 366.21 121.406 366.518C121.882 366.817 122.255 367.227 122.526 367.75C122.806 368.263 122.946 368.847 122.946 369.5V369.808H117.584C117.621 370.275 117.747 370.695 117.962 371.068C118.186 371.432 118.475 371.721 118.83 371.936C119.194 372.141 119.59 372.244 120.02 372.244C120.374 372.244 120.715 372.183 121.042 372.062C121.378 371.931 121.662 371.759 121.896 371.544L122.54 372.23C122.148 372.538 121.742 372.767 121.322 372.916C120.902 373.065 120.454 373.14 119.978 373.14ZM117.612 369.08H121.938C121.891 368.669 121.765 368.305 121.56 367.988C121.364 367.661 121.112 367.405 120.804 367.218C120.505 367.031 120.169 366.938 119.796 366.938C119.422 366.938 119.082 367.031 118.774 367.218C118.466 367.395 118.209 367.647 118.004 367.974C117.808 368.291 117.677 368.66 117.612 369.08ZM124.691 373V366.168H125.713V367.232C125.974 366.84 126.273 366.546 126.609 366.35C126.945 366.154 127.323 366.056 127.743 366.056C128.228 366.056 128.653 366.177 129.017 366.42C129.381 366.653 129.656 366.975 129.843 367.386C130.113 366.947 130.435 366.616 130.809 366.392C131.191 366.168 131.63 366.056 132.125 366.056C132.582 366.056 132.983 366.163 133.329 366.378C133.683 366.593 133.959 366.891 134.155 367.274C134.351 367.647 134.449 368.086 134.449 368.59V373H133.427V368.842C133.427 368.245 133.277 367.773 132.979 367.428C132.68 367.083 132.269 366.91 131.747 366.91C131.392 366.91 131.07 366.999 130.781 367.176C130.501 367.353 130.253 367.624 130.039 367.988C130.057 368.081 130.071 368.179 130.081 368.282C130.09 368.385 130.095 368.487 130.095 368.59V373H129.073V368.842C129.073 368.245 128.919 367.773 128.611 367.428C128.312 367.083 127.901 366.91 127.379 366.91C126.679 366.91 126.123 367.246 125.713 367.918V373H124.691Z" fill="#4D4D4D"/>
<path d="M265.973 364.539C266.256 364.265 266.714 364.265 266.994 364.539L271.089 368.504C271.375 368.778 271.375 369.221 271.092 369.495L266.996 373.461C266.713 373.735 266.256 373.735 265.976 373.461L265.295 372.802C265.013 372.528 265.013 372.085 265.295 371.814L268.199 369.003L265.295 366.192C265.013 365.918 265.012 365.474 265.295 365.203L265.973 364.539Z" fill="#707070"/>
<path d="M81.246 418V408.2H82.366L88.106 416.32L88.078 408.2H89.1V418H88.12L82.24 409.698L82.268 418H81.246ZM93.3769 418.126C92.8916 418.126 92.4622 418.037 92.0889 417.86C91.7156 417.683 91.4216 417.44 91.2069 417.132C91.0016 416.815 90.8989 416.451 90.8989 416.04C90.8989 415.629 91.0062 415.275 91.2209 414.976C91.4356 414.668 91.7342 414.43 92.1169 414.262C92.4996 414.094 92.9476 414.01 93.4609 414.01C93.8529 414.01 94.2216 414.052 94.5669 414.136C94.9216 414.22 95.2482 414.355 95.5469 414.542V413.604C95.5469 413.044 95.3976 412.624 95.0989 412.344C94.8002 412.055 94.3616 411.91 93.7829 411.91C93.4656 411.91 93.1389 411.957 92.8029 412.05C92.4762 412.143 92.1122 412.293 91.7109 412.498L91.3329 411.714C92.2476 411.275 93.1062 411.056 93.9089 411.056C94.7582 411.056 95.4116 411.266 95.8689 411.686C96.3262 412.097 96.5549 412.689 96.5549 413.464V418H95.5469V417.202C95.2482 417.51 94.9169 417.743 94.5529 417.902C94.1889 418.051 93.7969 418.126 93.3769 418.126ZM91.8789 416.012C91.8789 416.413 92.0329 416.735 92.3409 416.978C92.6582 417.221 93.0736 417.342 93.5869 417.342C93.9696 417.342 94.3196 417.277 94.6369 417.146C94.9636 417.015 95.2669 416.819 95.5469 416.558V415.242C95.2576 415.074 94.9589 414.953 94.6509 414.878C94.3429 414.794 93.9976 414.752 93.6149 414.752C93.0922 414.752 92.6722 414.869 92.3549 415.102C92.0376 415.326 91.8789 415.629 91.8789 416.012ZM100.319 418L97.5186 411.168H98.6246L100.837 416.726L103.021 411.168H104.113L101.299 418H100.319ZM108.626 418V411.168H109.648V418H108.626ZM109.144 409.474C108.939 409.474 108.761 409.404 108.612 409.264C108.472 409.115 108.402 408.942 108.402 408.746C108.402 408.55 108.472 408.382 108.612 408.242C108.761 408.093 108.939 408.018 109.144 408.018C109.349 408.018 109.522 408.093 109.662 408.242C109.811 408.382 109.886 408.55 109.886 408.746C109.886 408.942 109.811 409.115 109.662 409.264C109.522 409.404 109.349 409.474 109.144 409.474ZM114.347 418.14C113.759 418.14 113.311 418 113.003 417.72C112.705 417.431 112.555 417.015 112.555 416.474V412.008H111.141V411.168H112.555V409.292L113.577 409.054V411.168H115.537V412.008H113.577V416.208C113.577 416.572 113.652 416.833 113.801 416.992C113.96 417.151 114.217 417.23 114.571 417.23C114.749 417.23 114.907 417.216 115.047 417.188C115.187 417.16 115.351 417.113 115.537 417.048V417.958C115.351 418.023 115.155 418.07 114.949 418.098C114.744 418.126 114.543 418.14 114.347 418.14ZM119.978 418.14C119.343 418.14 118.769 417.986 118.256 417.678C117.742 417.361 117.336 416.936 117.038 416.404C116.739 415.863 116.59 415.256 116.59 414.584C116.59 413.912 116.73 413.31 117.01 412.778C117.299 412.246 117.686 411.826 118.172 411.518C118.657 411.21 119.198 411.056 119.796 411.056C120.402 411.056 120.939 411.21 121.406 411.518C121.882 411.817 122.255 412.227 122.526 412.75C122.806 413.263 122.946 413.847 122.946 414.5V414.808H117.584C117.621 415.275 117.747 415.695 117.962 416.068C118.186 416.432 118.475 416.721 118.83 416.936C119.194 417.141 119.59 417.244 120.02 417.244C120.374 417.244 120.715 417.183 121.042 417.062C121.378 416.931 121.662 416.759 121.896 416.544L122.54 417.23C122.148 417.538 121.742 417.767 121.322 417.916C120.902 418.065 120.454 418.14 119.978 418.14ZM117.612 414.08H121.938C121.891 413.669 121.765 413.305 121.56 412.988C121.364 412.661 121.112 412.405 120.804 412.218C120.505 412.031 120.169 411.938 119.796 411.938C119.422 411.938 119.082 412.031 118.774 412.218C118.466 412.395 118.209 412.647 118.004 412.974C117.808 413.291 117.677 413.66 117.612 414.08ZM124.691 418V411.168H125.713V412.232C125.974 411.84 126.273 411.546 126.609 411.35C126.945 411.154 127.323 411.056 127.743 411.056C128.228 411.056 128.653 411.177 129.017 411.42C129.381 411.653 129.656 411.975 129.843 412.386C130.113 411.947 130.435 411.616 130.809 411.392C131.191 411.168 131.63 411.056 132.125 411.056C132.582 411.056 132.983 411.163 133.329 411.378C133.683 411.593 133.959 411.891 134.155 412.274C134.351 412.647 134.449 413.086 134.449 413.59V418H133.427V413.842C133.427 413.245 133.277 412.773 132.979 412.428C132.68 412.083 132.269 411.91 131.747 411.91C131.392 411.91 131.07 411.999 130.781 412.176C130.501 412.353 130.253 412.624 130.039 412.988C130.057 413.081 130.071 413.179 130.081 413.282C130.09 413.385 130.095 413.487 130.095 413.59V418H129.073V413.842C129.073 413.245 128.919 412.773 128.611 412.428C128.312 412.083 127.901 411.91 127.379 411.91C126.679 411.91 126.123 412.246 125.713 412.918V418H124.691Z" fill="#4D4D4D"/>
<path d="M265.973 409.539C266.256 409.265 266.714 409.265 266.994 409.539L271.089 413.504C271.375 413.778 271.375 414.221 271.092 414.495L266.996 418.461C266.713 418.735 266.256 418.735 265.976 418.461L265.295 417.802C265.013 417.528 265.013 417.085 265.295 416.814L268.199 414.003L265.295 411.192C265.013 410.918 265.012 410.474 265.295 410.203L265.973 409.539Z" fill="#707070"/>
<path d="M318 109C318 100.163 325.163 93 334 93H1120C1128.84 93 1136 100.163 1136 109V821C1136 829.837 1128.84 837 1120 837H334C325.163 837 318 829.837 318 821V109Z" fill="white"/>
</g>
<defs>
<clipPath id="clip0_1649_83856">
<rect width="427" height="416" fill="white"/>
</clipPath>
</defs>
</svg>
