<svg width="873" height="395" viewBox="0 0 873 395" fill="none" xmlns="http://www.w3.org/2000/svg">
<g clip-path="url(#clip0_1649_90845)">
<rect width="873" height="395" fill="white"/>
<path d="M457.707 210.293C458.098 210.683 458.098 211.317 457.707 211.707L451.343 218.071C450.953 218.462 450.319 218.462 449.929 218.071C449.538 217.681 449.538 217.047 449.929 216.657L455.586 211L449.929 205.343C449.538 204.953 449.538 204.319 449.929 203.929C450.319 203.538 450.953 203.538 451.343 203.929L457.707 210.293ZM361 211V210L457 210V211V212L361 212V211Z" fill="#C806CC"/>
<mask id="mask0_1649_90845" style="mask-type:alpha" maskUnits="userSpaceOnUse" x="481" y="21" width="352" height="395">
<rect x="481" y="21" width="352" height="395" fill="#D9D9D9"/>
</mask>
<g mask="url(#mask0_1649_90845)">
<rect width="1120" height="958" transform="translate(485 24)" fill="#F2F2F2"/>
<rect width="1120" height="69" transform="translate(485 24)" fill="#F2F2F2"/>
<path d="M539.643 66.6426C540.116 66.6426 540.5 67.0266 540.5 67.5V69.6426C540.5 70.116 540.116 70.5 539.643 70.5H517.357C516.884 70.5 516.5 70.116 516.5 69.6426V67.5C516.5 67.0266 516.884 66.6426 517.357 66.6426H539.643ZM539.643 58.0713C540.116 58.0713 540.5 58.4553 540.5 58.9287V61.0713C540.5 61.5447 540.116 61.9287 539.643 61.9287H517.357C516.884 61.9287 516.5 61.5447 516.5 61.0713V58.9287C516.5 58.4553 516.884 58.0713 517.357 58.0713H539.643ZM539.643 49.5C540.116 49.5 540.5 49.884 540.5 50.3574V52.5C540.5 52.9734 540.116 53.3574 539.643 53.3574H517.357C516.884 53.3574 516.5 52.9734 516.5 52.5V50.3574C516.5 49.884 516.884 49.5 517.357 49.5H539.643Z" fill="#1F1F1F"/>
<rect width="254" height="768" transform="translate(485 93)" fill="#F2F2F2"/>
<path d="M537.388 131.538C537.671 131.264 538.128 131.265 538.408 131.538L539.088 132.198C539.371 132.472 539.371 132.915 539.088 133.186L536.19 136L539.092 138.811C539.374 139.085 539.374 139.528 539.092 139.799L538.411 140.461C538.128 140.735 537.67 140.735 537.391 140.461L533.298 136.496C533.012 136.221 533.012 135.778 533.295 135.504L537.388 131.538Z" fill="#707070"/>
<path d="M555.246 140V130.2H556.366L562.106 138.32L562.078 130.2H563.1V140H562.12L556.24 131.698L556.268 140H555.246ZM567.377 140.126C566.892 140.126 566.462 140.037 566.089 139.86C565.716 139.683 565.422 139.44 565.207 139.132C565.002 138.815 564.899 138.451 564.899 138.04C564.899 137.629 565.006 137.275 565.221 136.976C565.436 136.668 565.734 136.43 566.117 136.262C566.5 136.094 566.948 136.01 567.461 136.01C567.853 136.01 568.222 136.052 568.567 136.136C568.922 136.22 569.248 136.355 569.547 136.542V135.604C569.547 135.044 569.398 134.624 569.099 134.344C568.8 134.055 568.362 133.91 567.783 133.91C567.466 133.91 567.139 133.957 566.803 134.05C566.476 134.143 566.112 134.293 565.711 134.498L565.333 133.714C566.248 133.275 567.106 133.056 567.909 133.056C568.758 133.056 569.412 133.266 569.869 133.686C570.326 134.097 570.555 134.689 570.555 135.464V140H569.547V139.202C569.248 139.51 568.917 139.743 568.553 139.902C568.189 140.051 567.797 140.126 567.377 140.126ZM565.879 138.012C565.879 138.413 566.033 138.735 566.341 138.978C566.658 139.221 567.074 139.342 567.587 139.342C567.97 139.342 568.32 139.277 568.637 139.146C568.964 139.015 569.267 138.819 569.547 138.558V137.242C569.258 137.074 568.959 136.953 568.651 136.878C568.343 136.794 567.998 136.752 567.615 136.752C567.092 136.752 566.672 136.869 566.355 137.102C566.038 137.326 565.879 137.629 565.879 138.012ZM574.319 140L571.519 133.168H572.625L574.837 138.726L577.021 133.168H578.113L575.299 140H574.319ZM582.626 140V133.168H583.648V140H582.626ZM583.144 131.474C582.939 131.474 582.761 131.404 582.612 131.264C582.472 131.115 582.402 130.942 582.402 130.746C582.402 130.55 582.472 130.382 582.612 130.242C582.761 130.093 582.939 130.018 583.144 130.018C583.349 130.018 583.522 130.093 583.662 130.242C583.811 130.382 583.886 130.55 583.886 130.746C583.886 130.942 583.811 131.115 583.662 131.264C583.522 131.404 583.349 131.474 583.144 131.474ZM588.347 140.14C587.759 140.14 587.311 140 587.003 139.72C586.705 139.431 586.555 139.015 586.555 138.474V134.008H585.141V133.168H586.555V131.292L587.577 131.054V133.168H589.537V134.008H587.577V138.208C587.577 138.572 587.652 138.833 587.801 138.992C587.96 139.151 588.217 139.23 588.571 139.23C588.749 139.23 588.907 139.216 589.047 139.188C589.187 139.16 589.351 139.113 589.537 139.048V139.958C589.351 140.023 589.155 140.07 588.949 140.098C588.744 140.126 588.543 140.14 588.347 140.14ZM593.978 140.14C593.343 140.14 592.769 139.986 592.256 139.678C591.742 139.361 591.336 138.936 591.038 138.404C590.739 137.863 590.59 137.256 590.59 136.584C590.59 135.912 590.73 135.31 591.01 134.778C591.299 134.246 591.686 133.826 592.172 133.518C592.657 133.21 593.198 133.056 593.796 133.056C594.402 133.056 594.939 133.21 595.406 133.518C595.882 133.817 596.255 134.227 596.526 134.75C596.806 135.263 596.946 135.847 596.946 136.5V136.808H591.584C591.621 137.275 591.747 137.695 591.962 138.068C592.186 138.432 592.475 138.721 592.83 138.936C593.194 139.141 593.59 139.244 594.02 139.244C594.374 139.244 594.715 139.183 595.042 139.062C595.378 138.931 595.662 138.759 595.896 138.544L596.54 139.23C596.148 139.538 595.742 139.767 595.322 139.916C594.902 140.065 594.454 140.14 593.978 140.14ZM591.612 136.08H595.938C595.891 135.669 595.765 135.305 595.56 134.988C595.364 134.661 595.112 134.405 594.804 134.218C594.505 134.031 594.169 133.938 593.796 133.938C593.422 133.938 593.082 134.031 592.774 134.218C592.466 134.395 592.209 134.647 592.004 134.974C591.808 135.291 591.677 135.66 591.612 136.08ZM598.691 140V133.168H599.713V134.232C599.974 133.84 600.273 133.546 600.609 133.35C600.945 133.154 601.323 133.056 601.743 133.056C602.228 133.056 602.653 133.177 603.017 133.42C603.381 133.653 603.656 133.975 603.843 134.386C604.113 133.947 604.435 133.616 604.809 133.392C605.191 133.168 605.63 133.056 606.125 133.056C606.582 133.056 606.983 133.163 607.329 133.378C607.683 133.593 607.959 133.891 608.155 134.274C608.351 134.647 608.449 135.086 608.449 135.59V140H607.427V135.842C607.427 135.245 607.277 134.773 606.979 134.428C606.68 134.083 606.269 133.91 605.747 133.91C605.392 133.91 605.07 133.999 604.781 134.176C604.501 134.353 604.253 134.624 604.039 134.988C604.057 135.081 604.071 135.179 604.081 135.282C604.09 135.385 604.095 135.487 604.095 135.59V140H603.073V135.842C603.073 135.245 602.919 134.773 602.611 134.428C602.312 134.083 601.901 133.91 601.379 133.91C600.679 133.91 600.123 134.246 599.713 134.918V140H598.691Z" fill="#4D4D4D"/>
<path d="M529.41 185.154C528.645 185.154 527.935 185.019 527.282 184.748C526.629 184.468 525.999 184.048 525.392 183.488L526.05 182.704C526.638 183.255 527.189 183.647 527.702 183.88C528.225 184.113 528.803 184.23 529.438 184.23C529.942 184.23 530.39 184.146 530.782 183.978C531.183 183.801 531.496 183.563 531.72 183.264C531.944 182.965 532.056 182.625 532.056 182.242C532.056 181.747 531.893 181.374 531.566 181.122C531.239 180.861 530.675 180.66 529.872 180.52L528.29 180.254C527.394 180.095 526.736 179.825 526.316 179.442C525.905 179.05 525.7 178.527 525.7 177.874C525.7 177.323 525.84 176.838 526.12 176.418C526.409 175.989 526.806 175.653 527.31 175.41C527.814 175.167 528.397 175.046 529.06 175.046C529.788 175.046 530.465 175.149 531.09 175.354C531.715 175.55 532.331 175.863 532.938 176.292L532.378 177.132C531.874 176.749 531.342 176.46 530.782 176.264C530.222 176.059 529.653 175.956 529.074 175.956C528.617 175.956 528.211 176.035 527.856 176.194C527.511 176.353 527.235 176.567 527.03 176.838C526.834 177.109 526.736 177.417 526.736 177.762C526.736 178.191 526.881 178.527 527.17 178.77C527.459 179.013 527.931 179.185 528.584 179.288L530.152 179.554C531.197 179.741 531.953 180.044 532.42 180.464C532.896 180.875 533.134 181.449 533.134 182.186C533.134 182.755 532.971 183.264 532.644 183.712C532.327 184.16 531.888 184.515 531.328 184.776C530.768 185.028 530.129 185.154 529.41 185.154ZM537.989 185.14C537.355 185.14 536.781 184.986 536.267 184.678C535.754 184.361 535.348 183.936 535.049 183.404C534.751 182.863 534.601 182.256 534.601 181.584C534.601 180.912 534.741 180.31 535.021 179.778C535.311 179.246 535.698 178.826 536.183 178.518C536.669 178.21 537.21 178.056 537.807 178.056C538.414 178.056 538.951 178.21 539.417 178.518C539.893 178.817 540.267 179.227 540.537 179.75C540.817 180.263 540.957 180.847 540.957 181.5V181.808H535.595C535.633 182.275 535.759 182.695 535.973 183.068C536.197 183.432 536.487 183.721 536.841 183.936C537.205 184.141 537.602 184.244 538.031 184.244C538.386 184.244 538.727 184.183 539.053 184.062C539.389 183.931 539.674 183.759 539.907 183.544L540.551 184.23C540.159 184.538 539.753 184.767 539.333 184.916C538.913 185.065 538.465 185.14 537.989 185.14ZM535.623 181.08H539.949C539.903 180.669 539.777 180.305 539.571 179.988C539.375 179.661 539.123 179.405 538.815 179.218C538.517 179.031 538.181 178.938 537.807 178.938C537.434 178.938 537.093 179.031 536.785 179.218C536.477 179.395 536.221 179.647 536.015 179.974C535.819 180.291 535.689 180.66 535.623 181.08ZM545.768 185.112C545.134 185.112 544.56 184.958 544.046 184.65C543.542 184.333 543.141 183.908 542.842 183.376C542.544 182.835 542.394 182.237 542.394 181.584C542.394 180.921 542.544 180.324 542.842 179.792C543.141 179.26 543.542 178.84 544.046 178.532C544.56 178.215 545.134 178.056 545.768 178.056C546.272 178.056 546.753 178.149 547.21 178.336C547.668 178.523 548.064 178.784 548.4 179.12L547.742 179.834C547.5 179.563 547.206 179.353 546.86 179.204C546.515 179.055 546.165 178.98 545.81 178.98C545.362 178.98 544.956 179.097 544.592 179.33C544.238 179.563 543.953 179.876 543.738 180.268C543.524 180.66 543.416 181.099 543.416 181.584C543.416 182.069 543.524 182.508 543.738 182.9C543.953 183.292 544.238 183.605 544.592 183.838C544.956 184.071 545.362 184.188 545.81 184.188C546.165 184.188 546.515 184.113 546.86 183.964C547.206 183.805 547.5 183.595 547.742 183.334L548.4 184.048C548.064 184.384 547.668 184.645 547.21 184.832C546.753 185.019 546.272 185.112 545.768 185.112ZM552.644 185.112C552.01 185.112 551.44 184.958 550.936 184.65C550.432 184.342 550.036 183.922 549.746 183.39C549.457 182.858 549.312 182.256 549.312 181.584C549.312 180.912 549.457 180.31 549.746 179.778C550.036 179.246 550.432 178.826 550.936 178.518C551.44 178.21 552.01 178.056 552.644 178.056C553.27 178.056 553.83 178.21 554.324 178.518C554.828 178.826 555.225 179.246 555.514 179.778C555.804 180.31 555.948 180.912 555.948 181.584C555.948 182.256 555.804 182.858 555.514 183.39C555.225 183.922 554.828 184.342 554.324 184.65C553.83 184.958 553.27 185.112 552.644 185.112ZM552.63 184.216C553.078 184.216 553.475 184.104 553.82 183.88C554.166 183.647 554.436 183.329 554.632 182.928C554.838 182.527 554.94 182.079 554.94 181.584C554.94 181.08 554.838 180.632 554.632 180.24C554.436 179.839 554.166 179.526 553.82 179.302C553.475 179.069 553.078 178.952 552.63 178.952C552.182 178.952 551.786 179.069 551.44 179.302C551.095 179.526 550.82 179.839 550.614 180.24C550.418 180.632 550.32 181.08 550.32 181.584C550.32 182.079 550.418 182.527 550.614 182.928C550.82 183.329 551.095 183.647 551.44 183.88C551.786 184.104 552.182 184.216 552.63 184.216ZM557.741 185V178.168H558.763V179.274C559.025 178.863 559.337 178.56 559.701 178.364C560.065 178.159 560.476 178.056 560.933 178.056C561.428 178.056 561.857 178.163 562.221 178.378C562.595 178.583 562.884 178.877 563.089 179.26C563.304 179.633 563.411 180.072 563.411 180.576V185H562.389V180.87C562.389 180.263 562.221 179.787 561.885 179.442C561.559 179.087 561.115 178.91 560.555 178.91C560.182 178.91 559.841 178.999 559.533 179.176C559.225 179.353 558.969 179.615 558.763 179.96V185H557.741ZM568.308 185.098C567.72 185.098 567.188 184.944 566.712 184.636C566.236 184.319 565.858 183.899 565.578 183.376C565.298 182.844 565.158 182.251 565.158 181.598C565.158 180.935 565.298 180.343 565.578 179.82C565.867 179.288 566.255 178.868 566.74 178.56C567.225 178.243 567.767 178.084 568.364 178.084C568.784 178.084 569.176 178.168 569.54 178.336C569.904 178.495 570.221 178.728 570.492 179.036V174.892L571.514 174.682V185H570.492V184.09C570.231 184.417 569.913 184.669 569.54 184.846C569.167 185.014 568.756 185.098 568.308 185.098ZM568.56 184.202C568.961 184.202 569.33 184.123 569.666 183.964C570.002 183.805 570.277 183.581 570.492 183.292V179.904C570.268 179.615 569.983 179.391 569.638 179.232C569.302 179.064 568.943 178.98 568.56 178.98C568.103 178.98 567.692 179.092 567.328 179.316C566.973 179.54 566.689 179.848 566.474 180.24C566.269 180.632 566.166 181.08 566.166 181.584C566.166 182.079 566.269 182.527 566.474 182.928C566.689 183.32 566.973 183.633 567.328 183.866C567.692 184.09 568.103 184.202 568.56 184.202ZM576.882 185V174.892L577.904 174.682V185H576.882ZM583.079 185.14C582.445 185.14 581.871 184.986 581.357 184.678C580.844 184.361 580.438 183.936 580.139 183.404C579.841 182.863 579.691 182.256 579.691 181.584C579.691 180.912 579.831 180.31 580.111 179.778C580.401 179.246 580.788 178.826 581.273 178.518C581.759 178.21 582.3 178.056 582.897 178.056C583.504 178.056 584.041 178.21 584.507 178.518C584.983 178.817 585.357 179.227 585.627 179.75C585.907 180.263 586.047 180.847 586.047 181.5V181.808H580.685C580.723 182.275 580.849 182.695 581.063 183.068C581.287 183.432 581.577 183.721 581.931 183.936C582.295 184.141 582.692 184.244 583.121 184.244C583.476 184.244 583.817 184.183 584.143 184.062C584.479 183.931 584.764 183.759 584.997 183.544L585.641 184.23C585.249 184.538 584.843 184.767 584.423 184.916C584.003 185.065 583.555 185.14 583.079 185.14ZM580.713 181.08H585.039C584.993 180.669 584.867 180.305 584.661 179.988C584.465 179.661 584.213 179.405 583.905 179.218C583.607 179.031 583.271 178.938 582.897 178.938C582.524 178.938 582.183 179.031 581.875 179.218C581.567 179.395 581.311 179.647 581.105 179.974C580.909 180.291 580.779 180.66 580.713 181.08ZM589.547 185L586.747 178.168H587.853L590.065 183.726L592.249 178.168H593.341L590.527 185H589.547ZM597.476 185.14C596.841 185.14 596.267 184.986 595.754 184.678C595.24 184.361 594.834 183.936 594.536 183.404C594.237 182.863 594.088 182.256 594.088 181.584C594.088 180.912 594.228 180.31 594.508 179.778C594.797 179.246 595.184 178.826 595.67 178.518C596.155 178.21 596.696 178.056 597.294 178.056C597.9 178.056 598.437 178.21 598.904 178.518C599.38 178.817 599.753 179.227 600.024 179.75C600.304 180.263 600.444 180.847 600.444 181.5V181.808H595.082C595.119 182.275 595.245 182.695 595.46 183.068C595.684 183.432 595.973 183.721 596.328 183.936C596.692 184.141 597.088 184.244 597.518 184.244C597.872 184.244 598.213 184.183 598.54 184.062C598.876 183.931 599.16 183.759 599.394 183.544L600.038 184.23C599.646 184.538 599.24 184.767 598.82 184.916C598.4 185.065 597.952 185.14 597.476 185.14ZM595.11 181.08H599.436C599.389 180.669 599.263 180.305 599.058 179.988C598.862 179.661 598.61 179.405 598.302 179.218C598.003 179.031 597.667 178.938 597.294 178.938C596.92 178.938 596.58 179.031 596.272 179.218C595.964 179.395 595.707 179.647 595.502 179.974C595.306 180.291 595.175 180.66 595.11 181.08ZM602.189 185V174.892L603.211 174.682V185H602.189ZM608.573 185V178.168H609.595V179.274C609.857 178.863 610.169 178.56 610.533 178.364C610.897 178.159 611.308 178.056 611.765 178.056C612.26 178.056 612.689 178.163 613.053 178.378C613.427 178.583 613.716 178.877 613.921 179.26C614.136 179.633 614.243 180.072 614.243 180.576V185H613.221V180.87C613.221 180.263 613.053 179.787 612.717 179.442C612.391 179.087 611.947 178.91 611.387 178.91C611.014 178.91 610.673 178.999 610.365 179.176C610.057 179.353 609.801 179.615 609.595 179.96V185H608.573ZM618.412 185.126C617.927 185.126 617.497 185.037 617.124 184.86C616.751 184.683 616.457 184.44 616.242 184.132C616.037 183.815 615.934 183.451 615.934 183.04C615.934 182.629 616.041 182.275 616.256 181.976C616.471 181.668 616.769 181.43 617.152 181.262C617.535 181.094 617.983 181.01 618.496 181.01C618.888 181.01 619.257 181.052 619.602 181.136C619.957 181.22 620.283 181.355 620.582 181.542V180.604C620.582 180.044 620.433 179.624 620.134 179.344C619.835 179.055 619.397 178.91 618.818 178.91C618.501 178.91 618.174 178.957 617.838 179.05C617.511 179.143 617.147 179.293 616.746 179.498L616.368 178.714C617.283 178.275 618.141 178.056 618.944 178.056C619.793 178.056 620.447 178.266 620.904 178.686C621.361 179.097 621.59 179.689 621.59 180.464V185H620.582V184.202C620.283 184.51 619.952 184.743 619.588 184.902C619.224 185.051 618.832 185.126 618.412 185.126ZM616.914 183.012C616.914 183.413 617.068 183.735 617.376 183.978C617.693 184.221 618.109 184.342 618.622 184.342C619.005 184.342 619.355 184.277 619.672 184.146C619.999 184.015 620.302 183.819 620.582 183.558V182.242C620.293 182.074 619.994 181.953 619.686 181.878C619.378 181.794 619.033 181.752 618.65 181.752C618.127 181.752 617.707 181.869 617.39 182.102C617.073 182.326 616.914 182.629 616.914 183.012ZM625.354 185L622.554 178.168H623.66L625.872 183.726L628.056 178.168H629.148L626.334 185H625.354ZM633.661 185V178.168H634.683V185H633.661ZM634.179 176.474C633.974 176.474 633.796 176.404 633.647 176.264C633.507 176.115 633.437 175.942 633.437 175.746C633.437 175.55 633.507 175.382 633.647 175.242C633.796 175.093 633.974 175.018 634.179 175.018C634.384 175.018 634.557 175.093 634.697 175.242C634.846 175.382 634.921 175.55 634.921 175.746C634.921 175.942 634.846 176.115 634.697 176.264C634.557 176.404 634.384 176.474 634.179 176.474ZM639.383 185.14C638.795 185.14 638.347 185 638.039 184.72C637.74 184.431 637.591 184.015 637.591 183.474V179.008H636.177V178.168H637.591V176.292L638.613 176.054V178.168H640.573V179.008H638.613V183.208C638.613 183.572 638.687 183.833 638.837 183.992C638.995 184.151 639.252 184.23 639.607 184.23C639.784 184.23 639.943 184.216 640.083 184.188C640.223 184.16 640.386 184.113 640.573 184.048V184.958C640.386 185.023 640.19 185.07 639.985 185.098C639.779 185.126 639.579 185.14 639.383 185.14ZM645.013 185.14C644.378 185.14 643.804 184.986 643.291 184.678C642.777 184.361 642.371 183.936 642.073 183.404C641.774 182.863 641.625 182.256 641.625 181.584C641.625 180.912 641.765 180.31 642.045 179.778C642.334 179.246 642.721 178.826 643.207 178.518C643.692 178.21 644.233 178.056 644.831 178.056C645.437 178.056 645.974 178.21 646.441 178.518C646.917 178.817 647.29 179.227 647.561 179.75C647.841 180.263 647.981 180.847 647.981 181.5V181.808H642.619C642.656 182.275 642.782 182.695 642.997 183.068C643.221 183.432 643.51 183.721 643.865 183.936C644.229 184.141 644.625 184.244 645.055 184.244C645.409 184.244 645.75 184.183 646.077 184.062C646.413 183.931 646.697 183.759 646.931 183.544L647.575 184.23C647.183 184.538 646.777 184.767 646.357 184.916C645.937 185.065 645.489 185.14 645.013 185.14ZM642.647 181.08H646.973C646.926 180.669 646.8 180.305 646.595 179.988C646.399 179.661 646.147 179.405 645.839 179.218C645.54 179.031 645.204 178.938 644.831 178.938C644.457 178.938 644.117 179.031 643.809 179.218C643.501 179.395 643.244 179.647 643.039 179.974C642.843 180.291 642.712 180.66 642.647 181.08ZM649.726 185V178.168H650.748V179.232C651.009 178.84 651.308 178.546 651.644 178.35C651.98 178.154 652.358 178.056 652.778 178.056C653.263 178.056 653.688 178.177 654.052 178.42C654.416 178.653 654.691 178.975 654.878 179.386C655.148 178.947 655.47 178.616 655.844 178.392C656.226 178.168 656.665 178.056 657.16 178.056C657.617 178.056 658.018 178.163 658.364 178.378C658.718 178.593 658.994 178.891 659.19 179.274C659.386 179.647 659.484 180.086 659.484 180.59V185H658.462V180.842C658.462 180.245 658.312 179.773 658.014 179.428C657.715 179.083 657.304 178.91 656.782 178.91C656.427 178.91 656.105 178.999 655.816 179.176C655.536 179.353 655.288 179.624 655.074 179.988C655.092 180.081 655.106 180.179 655.116 180.282C655.125 180.385 655.13 180.487 655.13 180.59V185H654.108V180.842C654.108 180.245 653.954 179.773 653.646 179.428C653.347 179.083 652.936 178.91 652.414 178.91C651.714 178.91 651.158 179.246 650.748 179.918V185H649.726Z" fill="#4D4D4D"/>
<path d="M529.41 230.154C528.645 230.154 527.935 230.019 527.282 229.748C526.629 229.468 525.999 229.048 525.392 228.488L526.05 227.704C526.638 228.255 527.189 228.647 527.702 228.88C528.225 229.113 528.803 229.23 529.438 229.23C529.942 229.23 530.39 229.146 530.782 228.978C531.183 228.801 531.496 228.563 531.72 228.264C531.944 227.965 532.056 227.625 532.056 227.242C532.056 226.747 531.893 226.374 531.566 226.122C531.239 225.861 530.675 225.66 529.872 225.52L528.29 225.254C527.394 225.095 526.736 224.825 526.316 224.442C525.905 224.05 525.7 223.527 525.7 222.874C525.7 222.323 525.84 221.838 526.12 221.418C526.409 220.989 526.806 220.653 527.31 220.41C527.814 220.167 528.397 220.046 529.06 220.046C529.788 220.046 530.465 220.149 531.09 220.354C531.715 220.55 532.331 220.863 532.938 221.292L532.378 222.132C531.874 221.749 531.342 221.46 530.782 221.264C530.222 221.059 529.653 220.956 529.074 220.956C528.617 220.956 528.211 221.035 527.856 221.194C527.511 221.353 527.235 221.567 527.03 221.838C526.834 222.109 526.736 222.417 526.736 222.762C526.736 223.191 526.881 223.527 527.17 223.77C527.459 224.013 527.931 224.185 528.584 224.288L530.152 224.554C531.197 224.741 531.953 225.044 532.42 225.464C532.896 225.875 533.134 226.449 533.134 227.186C533.134 227.755 532.971 228.264 532.644 228.712C532.327 229.16 531.888 229.515 531.328 229.776C530.768 230.028 530.129 230.154 529.41 230.154ZM537.989 230.14C537.355 230.14 536.781 229.986 536.267 229.678C535.754 229.361 535.348 228.936 535.049 228.404C534.751 227.863 534.601 227.256 534.601 226.584C534.601 225.912 534.741 225.31 535.021 224.778C535.311 224.246 535.698 223.826 536.183 223.518C536.669 223.21 537.21 223.056 537.807 223.056C538.414 223.056 538.951 223.21 539.417 223.518C539.893 223.817 540.267 224.227 540.537 224.75C540.817 225.263 540.957 225.847 540.957 226.5V226.808H535.595C535.633 227.275 535.759 227.695 535.973 228.068C536.197 228.432 536.487 228.721 536.841 228.936C537.205 229.141 537.602 229.244 538.031 229.244C538.386 229.244 538.727 229.183 539.053 229.062C539.389 228.931 539.674 228.759 539.907 228.544L540.551 229.23C540.159 229.538 539.753 229.767 539.333 229.916C538.913 230.065 538.465 230.14 537.989 230.14ZM535.623 226.08H539.949C539.903 225.669 539.777 225.305 539.571 224.988C539.375 224.661 539.123 224.405 538.815 224.218C538.517 224.031 538.181 223.938 537.807 223.938C537.434 223.938 537.093 224.031 536.785 224.218C536.477 224.395 536.221 224.647 536.015 224.974C535.819 225.291 535.689 225.66 535.623 226.08ZM545.768 230.112C545.134 230.112 544.56 229.958 544.046 229.65C543.542 229.333 543.141 228.908 542.842 228.376C542.544 227.835 542.394 227.237 542.394 226.584C542.394 225.921 542.544 225.324 542.842 224.792C543.141 224.26 543.542 223.84 544.046 223.532C544.56 223.215 545.134 223.056 545.768 223.056C546.272 223.056 546.753 223.149 547.21 223.336C547.668 223.523 548.064 223.784 548.4 224.12L547.742 224.834C547.5 224.563 547.206 224.353 546.86 224.204C546.515 224.055 546.165 223.98 545.81 223.98C545.362 223.98 544.956 224.097 544.592 224.33C544.238 224.563 543.953 224.876 543.738 225.268C543.524 225.66 543.416 226.099 543.416 226.584C543.416 227.069 543.524 227.508 543.738 227.9C543.953 228.292 544.238 228.605 544.592 228.838C544.956 229.071 545.362 229.188 545.81 229.188C546.165 229.188 546.515 229.113 546.86 228.964C547.206 228.805 547.5 228.595 547.742 228.334L548.4 229.048C548.064 229.384 547.668 229.645 547.21 229.832C546.753 230.019 546.272 230.112 545.768 230.112ZM552.644 230.112C552.01 230.112 551.44 229.958 550.936 229.65C550.432 229.342 550.036 228.922 549.746 228.39C549.457 227.858 549.312 227.256 549.312 226.584C549.312 225.912 549.457 225.31 549.746 224.778C550.036 224.246 550.432 223.826 550.936 223.518C551.44 223.21 552.01 223.056 552.644 223.056C553.27 223.056 553.83 223.21 554.324 223.518C554.828 223.826 555.225 224.246 555.514 224.778C555.804 225.31 555.948 225.912 555.948 226.584C555.948 227.256 555.804 227.858 555.514 228.39C555.225 228.922 554.828 229.342 554.324 229.65C553.83 229.958 553.27 230.112 552.644 230.112ZM552.63 229.216C553.078 229.216 553.475 229.104 553.82 228.88C554.166 228.647 554.436 228.329 554.632 227.928C554.838 227.527 554.94 227.079 554.94 226.584C554.94 226.08 554.838 225.632 554.632 225.24C554.436 224.839 554.166 224.526 553.82 224.302C553.475 224.069 553.078 223.952 552.63 223.952C552.182 223.952 551.786 224.069 551.44 224.302C551.095 224.526 550.82 224.839 550.614 225.24C550.418 225.632 550.32 226.08 550.32 226.584C550.32 227.079 550.418 227.527 550.614 227.928C550.82 228.329 551.095 228.647 551.44 228.88C551.786 229.104 552.182 229.216 552.63 229.216ZM557.741 230V223.168H558.763V224.274C559.025 223.863 559.337 223.56 559.701 223.364C560.065 223.159 560.476 223.056 560.933 223.056C561.428 223.056 561.857 223.163 562.221 223.378C562.595 223.583 562.884 223.877 563.089 224.26C563.304 224.633 563.411 225.072 563.411 225.576V230H562.389V225.87C562.389 225.263 562.221 224.787 561.885 224.442C561.559 224.087 561.115 223.91 560.555 223.91C560.182 223.91 559.841 223.999 559.533 224.176C559.225 224.353 558.969 224.615 558.763 224.96V230H557.741ZM568.308 230.098C567.72 230.098 567.188 229.944 566.712 229.636C566.236 229.319 565.858 228.899 565.578 228.376C565.298 227.844 565.158 227.251 565.158 226.598C565.158 225.935 565.298 225.343 565.578 224.82C565.867 224.288 566.255 223.868 566.74 223.56C567.225 223.243 567.767 223.084 568.364 223.084C568.784 223.084 569.176 223.168 569.54 223.336C569.904 223.495 570.221 223.728 570.492 224.036V219.892L571.514 219.682V230H570.492V229.09C570.231 229.417 569.913 229.669 569.54 229.846C569.167 230.014 568.756 230.098 568.308 230.098ZM568.56 229.202C568.961 229.202 569.33 229.123 569.666 228.964C570.002 228.805 570.277 228.581 570.492 228.292V224.904C570.268 224.615 569.983 224.391 569.638 224.232C569.302 224.064 568.943 223.98 568.56 223.98C568.103 223.98 567.692 224.092 567.328 224.316C566.973 224.54 566.689 224.848 566.474 225.24C566.269 225.632 566.166 226.08 566.166 226.584C566.166 227.079 566.269 227.527 566.474 227.928C566.689 228.32 566.973 228.633 567.328 228.866C567.692 229.09 568.103 229.202 568.56 229.202ZM576.882 230V219.892L577.904 219.682V230H576.882ZM583.079 230.14C582.445 230.14 581.871 229.986 581.357 229.678C580.844 229.361 580.438 228.936 580.139 228.404C579.841 227.863 579.691 227.256 579.691 226.584C579.691 225.912 579.831 225.31 580.111 224.778C580.401 224.246 580.788 223.826 581.273 223.518C581.759 223.21 582.3 223.056 582.897 223.056C583.504 223.056 584.041 223.21 584.507 223.518C584.983 223.817 585.357 224.227 585.627 224.75C585.907 225.263 586.047 225.847 586.047 226.5V226.808H580.685C580.723 227.275 580.849 227.695 581.063 228.068C581.287 228.432 581.577 228.721 581.931 228.936C582.295 229.141 582.692 229.244 583.121 229.244C583.476 229.244 583.817 229.183 584.143 229.062C584.479 228.931 584.764 228.759 584.997 228.544L585.641 229.23C585.249 229.538 584.843 229.767 584.423 229.916C584.003 230.065 583.555 230.14 583.079 230.14ZM580.713 226.08H585.039C584.993 225.669 584.867 225.305 584.661 224.988C584.465 224.661 584.213 224.405 583.905 224.218C583.607 224.031 583.271 223.938 582.897 223.938C582.524 223.938 582.183 224.031 581.875 224.218C581.567 224.395 581.311 224.647 581.105 224.974C580.909 225.291 580.779 225.66 580.713 226.08ZM589.547 230L586.747 223.168H587.853L590.065 228.726L592.249 223.168H593.341L590.527 230H589.547ZM597.476 230.14C596.841 230.14 596.267 229.986 595.754 229.678C595.24 229.361 594.834 228.936 594.536 228.404C594.237 227.863 594.088 227.256 594.088 226.584C594.088 225.912 594.228 225.31 594.508 224.778C594.797 224.246 595.184 223.826 595.67 223.518C596.155 223.21 596.696 223.056 597.294 223.056C597.9 223.056 598.437 223.21 598.904 223.518C599.38 223.817 599.753 224.227 600.024 224.75C600.304 225.263 600.444 225.847 600.444 226.5V226.808H595.082C595.119 227.275 595.245 227.695 595.46 228.068C595.684 228.432 595.973 228.721 596.328 228.936C596.692 229.141 597.088 229.244 597.518 229.244C597.872 229.244 598.213 229.183 598.54 229.062C598.876 228.931 599.16 228.759 599.394 228.544L600.038 229.23C599.646 229.538 599.24 229.767 598.82 229.916C598.4 230.065 597.952 230.14 597.476 230.14ZM595.11 226.08H599.436C599.389 225.669 599.263 225.305 599.058 224.988C598.862 224.661 598.61 224.405 598.302 224.218C598.003 224.031 597.667 223.938 597.294 223.938C596.92 223.938 596.58 224.031 596.272 224.218C595.964 224.395 595.707 224.647 595.502 224.974C595.306 225.291 595.175 225.66 595.11 226.08ZM602.189 230V219.892L603.211 219.682V230H602.189ZM608.573 230V223.168H609.595V224.274C609.857 223.863 610.169 223.56 610.533 223.364C610.897 223.159 611.308 223.056 611.765 223.056C612.26 223.056 612.689 223.163 613.053 223.378C613.427 223.583 613.716 223.877 613.921 224.26C614.136 224.633 614.243 225.072 614.243 225.576V230H613.221V225.87C613.221 225.263 613.053 224.787 612.717 224.442C612.391 224.087 611.947 223.91 611.387 223.91C611.014 223.91 610.673 223.999 610.365 224.176C610.057 224.353 609.801 224.615 609.595 224.96V230H608.573ZM618.412 230.126C617.927 230.126 617.497 230.037 617.124 229.86C616.751 229.683 616.457 229.44 616.242 229.132C616.037 228.815 615.934 228.451 615.934 228.04C615.934 227.629 616.041 227.275 616.256 226.976C616.471 226.668 616.769 226.43 617.152 226.262C617.535 226.094 617.983 226.01 618.496 226.01C618.888 226.01 619.257 226.052 619.602 226.136C619.957 226.22 620.283 226.355 620.582 226.542V225.604C620.582 225.044 620.433 224.624 620.134 224.344C619.835 224.055 619.397 223.91 618.818 223.91C618.501 223.91 618.174 223.957 617.838 224.05C617.511 224.143 617.147 224.293 616.746 224.498L616.368 223.714C617.283 223.275 618.141 223.056 618.944 223.056C619.793 223.056 620.447 223.266 620.904 223.686C621.361 224.097 621.59 224.689 621.59 225.464V230H620.582V229.202C620.283 229.51 619.952 229.743 619.588 229.902C619.224 230.051 618.832 230.126 618.412 230.126ZM616.914 228.012C616.914 228.413 617.068 228.735 617.376 228.978C617.693 229.221 618.109 229.342 618.622 229.342C619.005 229.342 619.355 229.277 619.672 229.146C619.999 229.015 620.302 228.819 620.582 228.558V227.242C620.293 227.074 619.994 226.953 619.686 226.878C619.378 226.794 619.033 226.752 618.65 226.752C618.127 226.752 617.707 226.869 617.39 227.102C617.073 227.326 616.914 227.629 616.914 228.012ZM625.354 230L622.554 223.168H623.66L625.872 228.726L628.056 223.168H629.148L626.334 230H625.354ZM633.661 230V223.168H634.683V230H633.661ZM634.179 221.474C633.974 221.474 633.796 221.404 633.647 221.264C633.507 221.115 633.437 220.942 633.437 220.746C633.437 220.55 633.507 220.382 633.647 220.242C633.796 220.093 633.974 220.018 634.179 220.018C634.384 220.018 634.557 220.093 634.697 220.242C634.846 220.382 634.921 220.55 634.921 220.746C634.921 220.942 634.846 221.115 634.697 221.264C634.557 221.404 634.384 221.474 634.179 221.474ZM639.383 230.14C638.795 230.14 638.347 230 638.039 229.72C637.74 229.431 637.591 229.015 637.591 228.474V224.008H636.177V223.168H637.591V221.292L638.613 221.054V223.168H640.573V224.008H638.613V228.208C638.613 228.572 638.687 228.833 638.837 228.992C638.995 229.151 639.252 229.23 639.607 229.23C639.784 229.23 639.943 229.216 640.083 229.188C640.223 229.16 640.386 229.113 640.573 229.048V229.958C640.386 230.023 640.19 230.07 639.985 230.098C639.779 230.126 639.579 230.14 639.383 230.14ZM645.013 230.14C644.378 230.14 643.804 229.986 643.291 229.678C642.777 229.361 642.371 228.936 642.073 228.404C641.774 227.863 641.625 227.256 641.625 226.584C641.625 225.912 641.765 225.31 642.045 224.778C642.334 224.246 642.721 223.826 643.207 223.518C643.692 223.21 644.233 223.056 644.831 223.056C645.437 223.056 645.974 223.21 646.441 223.518C646.917 223.817 647.29 224.227 647.561 224.75C647.841 225.263 647.981 225.847 647.981 226.5V226.808H642.619C642.656 227.275 642.782 227.695 642.997 228.068C643.221 228.432 643.51 228.721 643.865 228.936C644.229 229.141 644.625 229.244 645.055 229.244C645.409 229.244 645.75 229.183 646.077 229.062C646.413 228.931 646.697 228.759 646.931 228.544L647.575 229.23C647.183 229.538 646.777 229.767 646.357 229.916C645.937 230.065 645.489 230.14 645.013 230.14ZM642.647 226.08H646.973C646.926 225.669 646.8 225.305 646.595 224.988C646.399 224.661 646.147 224.405 645.839 224.218C645.54 224.031 645.204 223.938 644.831 223.938C644.457 223.938 644.117 224.031 643.809 224.218C643.501 224.395 643.244 224.647 643.039 224.974C642.843 225.291 642.712 225.66 642.647 226.08ZM649.726 230V223.168H650.748V224.232C651.009 223.84 651.308 223.546 651.644 223.35C651.98 223.154 652.358 223.056 652.778 223.056C653.263 223.056 653.688 223.177 654.052 223.42C654.416 223.653 654.691 223.975 654.878 224.386C655.148 223.947 655.47 223.616 655.844 223.392C656.226 223.168 656.665 223.056 657.16 223.056C657.617 223.056 658.018 223.163 658.364 223.378C658.718 223.593 658.994 223.891 659.19 224.274C659.386 224.647 659.484 225.086 659.484 225.59V230H658.462V225.842C658.462 225.245 658.312 224.773 658.014 224.428C657.715 224.083 657.304 223.91 656.782 223.91C656.427 223.91 656.105 223.999 655.816 224.176C655.536 224.353 655.288 224.624 655.074 224.988C655.092 225.081 655.106 225.179 655.116 225.282C655.125 225.385 655.13 225.487 655.13 225.59V230H654.108V225.842C654.108 225.245 653.954 224.773 653.646 224.428C653.347 224.083 652.936 223.91 652.414 223.91C651.714 223.91 651.158 224.246 650.748 224.918V230H649.726Z" fill="#4D4D4D"/>
<path d="M529.41 275.154C528.645 275.154 527.935 275.019 527.282 274.748C526.629 274.468 525.999 274.048 525.392 273.488L526.05 272.704C526.638 273.255 527.189 273.647 527.702 273.88C528.225 274.113 528.803 274.23 529.438 274.23C529.942 274.23 530.39 274.146 530.782 273.978C531.183 273.801 531.496 273.563 531.72 273.264C531.944 272.965 532.056 272.625 532.056 272.242C532.056 271.747 531.893 271.374 531.566 271.122C531.239 270.861 530.675 270.66 529.872 270.52L528.29 270.254C527.394 270.095 526.736 269.825 526.316 269.442C525.905 269.05 525.7 268.527 525.7 267.874C525.7 267.323 525.84 266.838 526.12 266.418C526.409 265.989 526.806 265.653 527.31 265.41C527.814 265.167 528.397 265.046 529.06 265.046C529.788 265.046 530.465 265.149 531.09 265.354C531.715 265.55 532.331 265.863 532.938 266.292L532.378 267.132C531.874 266.749 531.342 266.46 530.782 266.264C530.222 266.059 529.653 265.956 529.074 265.956C528.617 265.956 528.211 266.035 527.856 266.194C527.511 266.353 527.235 266.567 527.03 266.838C526.834 267.109 526.736 267.417 526.736 267.762C526.736 268.191 526.881 268.527 527.17 268.77C527.459 269.013 527.931 269.185 528.584 269.288L530.152 269.554C531.197 269.741 531.953 270.044 532.42 270.464C532.896 270.875 533.134 271.449 533.134 272.186C533.134 272.755 532.971 273.264 532.644 273.712C532.327 274.16 531.888 274.515 531.328 274.776C530.768 275.028 530.129 275.154 529.41 275.154ZM537.989 275.14C537.355 275.14 536.781 274.986 536.267 274.678C535.754 274.361 535.348 273.936 535.049 273.404C534.751 272.863 534.601 272.256 534.601 271.584C534.601 270.912 534.741 270.31 535.021 269.778C535.311 269.246 535.698 268.826 536.183 268.518C536.669 268.21 537.21 268.056 537.807 268.056C538.414 268.056 538.951 268.21 539.417 268.518C539.893 268.817 540.267 269.227 540.537 269.75C540.817 270.263 540.957 270.847 540.957 271.5V271.808H535.595C535.633 272.275 535.759 272.695 535.973 273.068C536.197 273.432 536.487 273.721 536.841 273.936C537.205 274.141 537.602 274.244 538.031 274.244C538.386 274.244 538.727 274.183 539.053 274.062C539.389 273.931 539.674 273.759 539.907 273.544L540.551 274.23C540.159 274.538 539.753 274.767 539.333 274.916C538.913 275.065 538.465 275.14 537.989 275.14ZM535.623 271.08H539.949C539.903 270.669 539.777 270.305 539.571 269.988C539.375 269.661 539.123 269.405 538.815 269.218C538.517 269.031 538.181 268.938 537.807 268.938C537.434 268.938 537.093 269.031 536.785 269.218C536.477 269.395 536.221 269.647 536.015 269.974C535.819 270.291 535.689 270.66 535.623 271.08ZM545.768 275.112C545.134 275.112 544.56 274.958 544.046 274.65C543.542 274.333 543.141 273.908 542.842 273.376C542.544 272.835 542.394 272.237 542.394 271.584C542.394 270.921 542.544 270.324 542.842 269.792C543.141 269.26 543.542 268.84 544.046 268.532C544.56 268.215 545.134 268.056 545.768 268.056C546.272 268.056 546.753 268.149 547.21 268.336C547.668 268.523 548.064 268.784 548.4 269.12L547.742 269.834C547.5 269.563 547.206 269.353 546.86 269.204C546.515 269.055 546.165 268.98 545.81 268.98C545.362 268.98 544.956 269.097 544.592 269.33C544.238 269.563 543.953 269.876 543.738 270.268C543.524 270.66 543.416 271.099 543.416 271.584C543.416 272.069 543.524 272.508 543.738 272.9C543.953 273.292 544.238 273.605 544.592 273.838C544.956 274.071 545.362 274.188 545.81 274.188C546.165 274.188 546.515 274.113 546.86 273.964C547.206 273.805 547.5 273.595 547.742 273.334L548.4 274.048C548.064 274.384 547.668 274.645 547.21 274.832C546.753 275.019 546.272 275.112 545.768 275.112ZM552.644 275.112C552.01 275.112 551.44 274.958 550.936 274.65C550.432 274.342 550.036 273.922 549.746 273.39C549.457 272.858 549.312 272.256 549.312 271.584C549.312 270.912 549.457 270.31 549.746 269.778C550.036 269.246 550.432 268.826 550.936 268.518C551.44 268.21 552.01 268.056 552.644 268.056C553.27 268.056 553.83 268.21 554.324 268.518C554.828 268.826 555.225 269.246 555.514 269.778C555.804 270.31 555.948 270.912 555.948 271.584C555.948 272.256 555.804 272.858 555.514 273.39C555.225 273.922 554.828 274.342 554.324 274.65C553.83 274.958 553.27 275.112 552.644 275.112ZM552.63 274.216C553.078 274.216 553.475 274.104 553.82 273.88C554.166 273.647 554.436 273.329 554.632 272.928C554.838 272.527 554.94 272.079 554.94 271.584C554.94 271.08 554.838 270.632 554.632 270.24C554.436 269.839 554.166 269.526 553.82 269.302C553.475 269.069 553.078 268.952 552.63 268.952C552.182 268.952 551.786 269.069 551.44 269.302C551.095 269.526 550.82 269.839 550.614 270.24C550.418 270.632 550.32 271.08 550.32 271.584C550.32 272.079 550.418 272.527 550.614 272.928C550.82 273.329 551.095 273.647 551.44 273.88C551.786 274.104 552.182 274.216 552.63 274.216ZM557.741 275V268.168H558.763V269.274C559.025 268.863 559.337 268.56 559.701 268.364C560.065 268.159 560.476 268.056 560.933 268.056C561.428 268.056 561.857 268.163 562.221 268.378C562.595 268.583 562.884 268.877 563.089 269.26C563.304 269.633 563.411 270.072 563.411 270.576V275H562.389V270.87C562.389 270.263 562.221 269.787 561.885 269.442C561.559 269.087 561.115 268.91 560.555 268.91C560.182 268.91 559.841 268.999 559.533 269.176C559.225 269.353 558.969 269.615 558.763 269.96V275H557.741ZM568.308 275.098C567.72 275.098 567.188 274.944 566.712 274.636C566.236 274.319 565.858 273.899 565.578 273.376C565.298 272.844 565.158 272.251 565.158 271.598C565.158 270.935 565.298 270.343 565.578 269.82C565.867 269.288 566.255 268.868 566.74 268.56C567.225 268.243 567.767 268.084 568.364 268.084C568.784 268.084 569.176 268.168 569.54 268.336C569.904 268.495 570.221 268.728 570.492 269.036V264.892L571.514 264.682V275H570.492V274.09C570.231 274.417 569.913 274.669 569.54 274.846C569.167 275.014 568.756 275.098 568.308 275.098ZM568.56 274.202C568.961 274.202 569.33 274.123 569.666 273.964C570.002 273.805 570.277 273.581 570.492 273.292V269.904C570.268 269.615 569.983 269.391 569.638 269.232C569.302 269.064 568.943 268.98 568.56 268.98C568.103 268.98 567.692 269.092 567.328 269.316C566.973 269.54 566.689 269.848 566.474 270.24C566.269 270.632 566.166 271.08 566.166 271.584C566.166 272.079 566.269 272.527 566.474 272.928C566.689 273.32 566.973 273.633 567.328 273.866C567.692 274.09 568.103 274.202 568.56 274.202ZM576.882 275V264.892L577.904 264.682V275H576.882ZM583.079 275.14C582.445 275.14 581.871 274.986 581.357 274.678C580.844 274.361 580.438 273.936 580.139 273.404C579.841 272.863 579.691 272.256 579.691 271.584C579.691 270.912 579.831 270.31 580.111 269.778C580.401 269.246 580.788 268.826 581.273 268.518C581.759 268.21 582.3 268.056 582.897 268.056C583.504 268.056 584.041 268.21 584.507 268.518C584.983 268.817 585.357 269.227 585.627 269.75C585.907 270.263 586.047 270.847 586.047 271.5V271.808H580.685C580.723 272.275 580.849 272.695 581.063 273.068C581.287 273.432 581.577 273.721 581.931 273.936C582.295 274.141 582.692 274.244 583.121 274.244C583.476 274.244 583.817 274.183 584.143 274.062C584.479 273.931 584.764 273.759 584.997 273.544L585.641 274.23C585.249 274.538 584.843 274.767 584.423 274.916C584.003 275.065 583.555 275.14 583.079 275.14ZM580.713 271.08H585.039C584.993 270.669 584.867 270.305 584.661 269.988C584.465 269.661 584.213 269.405 583.905 269.218C583.607 269.031 583.271 268.938 582.897 268.938C582.524 268.938 582.183 269.031 581.875 269.218C581.567 269.395 581.311 269.647 581.105 269.974C580.909 270.291 580.779 270.66 580.713 271.08ZM589.547 275L586.747 268.168H587.853L590.065 273.726L592.249 268.168H593.341L590.527 275H589.547ZM597.476 275.14C596.841 275.14 596.267 274.986 595.754 274.678C595.24 274.361 594.834 273.936 594.536 273.404C594.237 272.863 594.088 272.256 594.088 271.584C594.088 270.912 594.228 270.31 594.508 269.778C594.797 269.246 595.184 268.826 595.67 268.518C596.155 268.21 596.696 268.056 597.294 268.056C597.9 268.056 598.437 268.21 598.904 268.518C599.38 268.817 599.753 269.227 600.024 269.75C600.304 270.263 600.444 270.847 600.444 271.5V271.808H595.082C595.119 272.275 595.245 272.695 595.46 273.068C595.684 273.432 595.973 273.721 596.328 273.936C596.692 274.141 597.088 274.244 597.518 274.244C597.872 274.244 598.213 274.183 598.54 274.062C598.876 273.931 599.16 273.759 599.394 273.544L600.038 274.23C599.646 274.538 599.24 274.767 598.82 274.916C598.4 275.065 597.952 275.14 597.476 275.14ZM595.11 271.08H599.436C599.389 270.669 599.263 270.305 599.058 269.988C598.862 269.661 598.61 269.405 598.302 269.218C598.003 269.031 597.667 268.938 597.294 268.938C596.92 268.938 596.58 269.031 596.272 269.218C595.964 269.395 595.707 269.647 595.502 269.974C595.306 270.291 595.175 270.66 595.11 271.08ZM602.189 275V264.892L603.211 264.682V275H602.189ZM608.573 275V268.168H609.595V269.274C609.857 268.863 610.169 268.56 610.533 268.364C610.897 268.159 611.308 268.056 611.765 268.056C612.26 268.056 612.689 268.163 613.053 268.378C613.427 268.583 613.716 268.877 613.921 269.26C614.136 269.633 614.243 270.072 614.243 270.576V275H613.221V270.87C613.221 270.263 613.053 269.787 612.717 269.442C612.391 269.087 611.947 268.91 611.387 268.91C611.014 268.91 610.673 268.999 610.365 269.176C610.057 269.353 609.801 269.615 609.595 269.96V275H608.573ZM618.412 275.126C617.927 275.126 617.497 275.037 617.124 274.86C616.751 274.683 616.457 274.44 616.242 274.132C616.037 273.815 615.934 273.451 615.934 273.04C615.934 272.629 616.041 272.275 616.256 271.976C616.471 271.668 616.769 271.43 617.152 271.262C617.535 271.094 617.983 271.01 618.496 271.01C618.888 271.01 619.257 271.052 619.602 271.136C619.957 271.22 620.283 271.355 620.582 271.542V270.604C620.582 270.044 620.433 269.624 620.134 269.344C619.835 269.055 619.397 268.91 618.818 268.91C618.501 268.91 618.174 268.957 617.838 269.05C617.511 269.143 617.147 269.293 616.746 269.498L616.368 268.714C617.283 268.275 618.141 268.056 618.944 268.056C619.793 268.056 620.447 268.266 620.904 268.686C621.361 269.097 621.59 269.689 621.59 270.464V275H620.582V274.202C620.283 274.51 619.952 274.743 619.588 274.902C619.224 275.051 618.832 275.126 618.412 275.126ZM616.914 273.012C616.914 273.413 617.068 273.735 617.376 273.978C617.693 274.221 618.109 274.342 618.622 274.342C619.005 274.342 619.355 274.277 619.672 274.146C619.999 274.015 620.302 273.819 620.582 273.558V272.242C620.293 272.074 619.994 271.953 619.686 271.878C619.378 271.794 619.033 271.752 618.65 271.752C618.127 271.752 617.707 271.869 617.39 272.102C617.073 272.326 616.914 272.629 616.914 273.012ZM625.354 275L622.554 268.168H623.66L625.872 273.726L628.056 268.168H629.148L626.334 275H625.354ZM633.661 275V268.168H634.683V275H633.661ZM634.179 266.474C633.974 266.474 633.796 266.404 633.647 266.264C633.507 266.115 633.437 265.942 633.437 265.746C633.437 265.55 633.507 265.382 633.647 265.242C633.796 265.093 633.974 265.018 634.179 265.018C634.384 265.018 634.557 265.093 634.697 265.242C634.846 265.382 634.921 265.55 634.921 265.746C634.921 265.942 634.846 266.115 634.697 266.264C634.557 266.404 634.384 266.474 634.179 266.474ZM639.383 275.14C638.795 275.14 638.347 275 638.039 274.72C637.74 274.431 637.591 274.015 637.591 273.474V269.008H636.177V268.168H637.591V266.292L638.613 266.054V268.168H640.573V269.008H638.613V273.208C638.613 273.572 638.687 273.833 638.837 273.992C638.995 274.151 639.252 274.23 639.607 274.23C639.784 274.23 639.943 274.216 640.083 274.188C640.223 274.16 640.386 274.113 640.573 274.048V274.958C640.386 275.023 640.19 275.07 639.985 275.098C639.779 275.126 639.579 275.14 639.383 275.14ZM645.013 275.14C644.378 275.14 643.804 274.986 643.291 274.678C642.777 274.361 642.371 273.936 642.073 273.404C641.774 272.863 641.625 272.256 641.625 271.584C641.625 270.912 641.765 270.31 642.045 269.778C642.334 269.246 642.721 268.826 643.207 268.518C643.692 268.21 644.233 268.056 644.831 268.056C645.437 268.056 645.974 268.21 646.441 268.518C646.917 268.817 647.29 269.227 647.561 269.75C647.841 270.263 647.981 270.847 647.981 271.5V271.808H642.619C642.656 272.275 642.782 272.695 642.997 273.068C643.221 273.432 643.51 273.721 643.865 273.936C644.229 274.141 644.625 274.244 645.055 274.244C645.409 274.244 645.75 274.183 646.077 274.062C646.413 273.931 646.697 273.759 646.931 273.544L647.575 274.23C647.183 274.538 646.777 274.767 646.357 274.916C645.937 275.065 645.489 275.14 645.013 275.14ZM642.647 271.08H646.973C646.926 270.669 646.8 270.305 646.595 269.988C646.399 269.661 646.147 269.405 645.839 269.218C645.54 269.031 645.204 268.938 644.831 268.938C644.457 268.938 644.117 269.031 643.809 269.218C643.501 269.395 643.244 269.647 643.039 269.974C642.843 270.291 642.712 270.66 642.647 271.08ZM649.726 275V268.168H650.748V269.232C651.009 268.84 651.308 268.546 651.644 268.35C651.98 268.154 652.358 268.056 652.778 268.056C653.263 268.056 653.688 268.177 654.052 268.42C654.416 268.653 654.691 268.975 654.878 269.386C655.148 268.947 655.47 268.616 655.844 268.392C656.226 268.168 656.665 268.056 657.16 268.056C657.617 268.056 658.018 268.163 658.364 268.378C658.718 268.593 658.994 268.891 659.19 269.274C659.386 269.647 659.484 270.086 659.484 270.59V275H658.462V270.842C658.462 270.245 658.312 269.773 658.014 269.428C657.715 269.083 657.304 268.91 656.782 268.91C656.427 268.91 656.105 268.999 655.816 269.176C655.536 269.353 655.288 269.624 655.074 269.988C655.092 270.081 655.106 270.179 655.116 270.282C655.125 270.385 655.13 270.487 655.13 270.59V275H654.108V270.842C654.108 270.245 653.954 269.773 653.646 269.428C653.347 269.083 652.936 268.91 652.414 268.91C651.714 268.91 651.158 269.246 650.748 269.918V275H649.726Z" fill="#4D4D4D"/>
<path d="M715.813 268.289C716.087 268.015 716.531 268.015 716.802 268.289L717.461 268.948C717.735 269.223 717.735 269.666 717.461 269.938L713.494 273.905C713.225 274.18 712.781 274.179 712.507 273.905L708.539 269.938C708.265 269.663 708.265 269.22 708.539 268.948L709.199 268.289C709.473 268.015 709.917 268.015 710.188 268.289L713 271.102L715.813 268.289Z" fill="#707070"/>
<path d="M544.78 320V311.152H541.392V310.2H549.246V311.152H545.858V320H544.78ZM550.691 320V309.892L551.713 309.682V314.274C551.974 313.863 552.287 313.56 552.651 313.364C553.015 313.159 553.425 313.056 553.883 313.056C554.377 313.056 554.807 313.163 555.171 313.378C555.544 313.583 555.833 313.877 556.039 314.26C556.253 314.633 556.361 315.072 556.361 315.576V320H555.339V315.87C555.339 315.263 555.171 314.787 554.835 314.442C554.508 314.087 554.065 313.91 553.505 313.91C553.131 313.91 552.791 313.999 552.483 314.176C552.175 314.353 551.918 314.615 551.713 314.96V320H550.691ZM558.401 320V313.168H559.423V320H558.401ZM558.919 311.474C558.714 311.474 558.537 311.404 558.387 311.264C558.247 311.115 558.177 310.942 558.177 310.746C558.177 310.55 558.247 310.382 558.387 310.242C558.537 310.093 558.714 310.018 558.919 310.018C559.125 310.018 559.297 310.093 559.437 310.242C559.587 310.382 559.661 310.55 559.661 310.746C559.661 310.942 559.587 311.115 559.437 311.264C559.297 311.404 559.125 311.474 558.919 311.474ZM561.519 320V313.168H562.541V314.568C562.718 314.092 562.97 313.723 563.297 313.462C563.633 313.191 564.015 313.056 564.445 313.056C564.566 313.056 564.678 313.065 564.781 313.084C564.883 313.093 564.986 313.117 565.089 313.154V314.078C564.977 314.041 564.855 314.013 564.725 313.994C564.603 313.966 564.487 313.952 564.375 313.952C563.955 313.952 563.586 314.073 563.269 314.316C562.961 314.559 562.718 314.899 562.541 315.338V320H561.519ZM568.859 320.098C568.271 320.098 567.739 319.944 567.263 319.636C566.787 319.319 566.409 318.899 566.129 318.376C565.849 317.844 565.709 317.251 565.709 316.598C565.709 315.935 565.849 315.343 566.129 314.82C566.418 314.288 566.805 313.868 567.291 313.56C567.776 313.243 568.317 313.084 568.915 313.084C569.335 313.084 569.727 313.168 570.091 313.336C570.455 313.495 570.772 313.728 571.043 314.036V309.892L572.065 309.682V320H571.043V319.09C570.781 319.417 570.464 319.669 570.091 319.846C569.717 320.014 569.307 320.098 568.859 320.098ZM569.111 319.202C569.512 319.202 569.881 319.123 570.217 318.964C570.553 318.805 570.828 318.581 571.043 318.292V314.904C570.819 314.615 570.534 314.391 570.189 314.232C569.853 314.064 569.493 313.98 569.111 313.98C568.653 313.98 568.243 314.092 567.879 314.316C567.524 314.54 567.239 314.848 567.025 315.24C566.819 315.632 566.717 316.08 566.717 316.584C566.717 317.079 566.819 317.527 567.025 317.928C567.239 318.32 567.524 318.633 567.879 318.866C568.243 319.09 568.653 319.202 569.111 319.202ZM577.433 320V309.892L578.455 309.682V320H577.433ZM583.63 320.14C582.995 320.14 582.421 319.986 581.908 319.678C581.395 319.361 580.989 318.936 580.69 318.404C580.391 317.863 580.242 317.256 580.242 316.584C580.242 315.912 580.382 315.31 580.662 314.778C580.951 314.246 581.339 313.826 581.824 313.518C582.309 313.21 582.851 313.056 583.448 313.056C584.055 313.056 584.591 313.21 585.058 313.518C585.534 313.817 585.907 314.227 586.178 314.75C586.458 315.263 586.598 315.847 586.598 316.5V316.808H581.236C581.273 317.275 581.399 317.695 581.614 318.068C581.838 318.432 582.127 318.721 582.482 318.936C582.846 319.141 583.243 319.244 583.672 319.244C584.027 319.244 584.367 319.183 584.694 319.062C585.03 318.931 585.315 318.759 585.548 318.544L586.192 319.23C585.8 319.538 585.394 319.767 584.974 319.916C584.554 320.065 584.106 320.14 583.63 320.14ZM581.264 316.08H585.59C585.543 315.669 585.417 315.305 585.212 314.988C585.016 314.661 584.764 314.405 584.456 314.218C584.157 314.031 583.821 313.938 583.448 313.938C583.075 313.938 582.734 314.031 582.426 314.218C582.118 314.395 581.861 314.647 581.656 314.974C581.46 315.291 581.329 315.66 581.264 316.08ZM590.098 320L587.298 313.168H588.404L590.616 318.726L592.8 313.168H593.892L591.078 320H590.098ZM598.026 320.14C597.392 320.14 596.818 319.986 596.304 319.678C595.791 319.361 595.385 318.936 595.086 318.404C594.788 317.863 594.638 317.256 594.638 316.584C594.638 315.912 594.778 315.31 595.058 314.778C595.348 314.246 595.735 313.826 596.22 313.518C596.706 313.21 597.247 313.056 597.844 313.056C598.451 313.056 598.988 313.21 599.454 313.518C599.93 313.817 600.304 314.227 600.574 314.75C600.854 315.263 600.994 315.847 600.994 316.5V316.808H595.632C595.67 317.275 595.796 317.695 596.01 318.068C596.234 318.432 596.524 318.721 596.878 318.936C597.242 319.141 597.639 319.244 598.068 319.244C598.423 319.244 598.764 319.183 599.09 319.062C599.426 318.931 599.711 318.759 599.944 318.544L600.588 319.23C600.196 319.538 599.79 319.767 599.37 319.916C598.95 320.065 598.502 320.14 598.026 320.14ZM595.66 316.08H599.986C599.94 315.669 599.814 315.305 599.608 314.988C599.412 314.661 599.16 314.405 598.852 314.218C598.554 314.031 598.218 313.938 597.844 313.938C597.471 313.938 597.13 314.031 596.822 314.218C596.514 314.395 596.258 314.647 596.052 314.974C595.856 315.291 595.726 315.66 595.66 316.08ZM602.739 320V309.892L603.761 309.682V320H602.739ZM609.124 320V313.168H610.146V314.274C610.408 313.863 610.72 313.56 611.084 313.364C611.448 313.159 611.859 313.056 612.316 313.056C612.811 313.056 613.24 313.163 613.604 313.378C613.978 313.583 614.267 313.877 614.472 314.26C614.687 314.633 614.794 315.072 614.794 315.576V320H613.772V315.87C613.772 315.263 613.604 314.787 613.268 314.442C612.942 314.087 612.498 313.91 611.938 313.91C611.565 313.91 611.224 313.999 610.916 314.176C610.608 314.353 610.352 314.615 610.146 314.96V320H609.124ZM618.963 320.126C618.477 320.126 618.048 320.037 617.675 319.86C617.301 319.683 617.007 319.44 616.793 319.132C616.587 318.815 616.485 318.451 616.485 318.04C616.485 317.629 616.592 317.275 616.807 316.976C617.021 316.668 617.32 316.43 617.703 316.262C618.085 316.094 618.533 316.01 619.047 316.01C619.439 316.01 619.807 316.052 620.153 316.136C620.507 316.22 620.834 316.355 621.133 316.542V315.604C621.133 315.044 620.983 314.624 620.685 314.344C620.386 314.055 619.947 313.91 619.369 313.91C619.051 313.91 618.725 313.957 618.389 314.05C618.062 314.143 617.698 314.293 617.297 314.498L616.919 313.714C617.833 313.275 618.692 313.056 619.495 313.056C620.344 313.056 620.997 313.266 621.455 313.686C621.912 314.097 622.141 314.689 622.141 315.464V320H621.133V319.202C620.834 319.51 620.503 319.743 620.139 319.902C619.775 320.051 619.383 320.126 618.963 320.126ZM617.465 318.012C617.465 318.413 617.619 318.735 617.927 318.978C618.244 319.221 618.659 319.342 619.173 319.342C619.555 319.342 619.905 319.277 620.223 319.146C620.549 319.015 620.853 318.819 621.133 318.558V317.242C620.843 317.074 620.545 316.953 620.237 316.878C619.929 316.794 619.583 316.752 619.201 316.752C618.678 316.752 618.258 316.869 617.941 317.102C617.623 317.326 617.465 317.629 617.465 318.012ZM625.905 320L623.105 313.168H624.211L626.423 318.726L628.607 313.168H629.699L626.885 320H625.905ZM634.212 320V313.168H635.234V320H634.212ZM634.73 311.474C634.524 311.474 634.347 311.404 634.198 311.264C634.058 311.115 633.988 310.942 633.988 310.746C633.988 310.55 634.058 310.382 634.198 310.242C634.347 310.093 634.524 310.018 634.73 310.018C634.935 310.018 635.108 310.093 635.248 310.242C635.397 310.382 635.472 310.55 635.472 310.746C635.472 310.942 635.397 311.115 635.248 311.264C635.108 311.404 634.935 311.474 634.73 311.474ZM639.933 320.14C639.345 320.14 638.897 320 638.589 319.72C638.291 319.431 638.141 319.015 638.141 318.474V314.008H636.727V313.168H638.141V311.292L639.163 311.054V313.168H641.123V314.008H639.163V318.208C639.163 318.572 639.238 318.833 639.387 318.992C639.546 319.151 639.803 319.23 640.157 319.23C640.335 319.23 640.493 319.216 640.633 319.188C640.773 319.16 640.937 319.113 641.123 319.048V319.958C640.937 320.023 640.741 320.07 640.535 320.098C640.33 320.126 640.129 320.14 639.933 320.14ZM645.564 320.14C644.929 320.14 644.355 319.986 643.842 319.678C643.328 319.361 642.922 318.936 642.624 318.404C642.325 317.863 642.176 317.256 642.176 316.584C642.176 315.912 642.316 315.31 642.596 314.778C642.885 314.246 643.272 313.826 643.758 313.518C644.243 313.21 644.784 313.056 645.382 313.056C645.988 313.056 646.525 313.21 646.992 313.518C647.468 313.817 647.841 314.227 648.112 314.75C648.392 315.263 648.532 315.847 648.532 316.5V316.808H643.17C643.207 317.275 643.333 317.695 643.548 318.068C643.772 318.432 644.061 318.721 644.416 318.936C644.78 319.141 645.176 319.244 645.606 319.244C645.96 319.244 646.301 319.183 646.628 319.062C646.964 318.931 647.248 318.759 647.482 318.544L648.126 319.23C647.734 319.538 647.328 319.767 646.908 319.916C646.488 320.065 646.04 320.14 645.564 320.14ZM643.198 316.08H647.524C647.477 315.669 647.351 315.305 647.146 314.988C646.95 314.661 646.698 314.405 646.39 314.218C646.091 314.031 645.755 313.938 645.382 313.938C645.008 313.938 644.668 314.031 644.36 314.218C644.052 314.395 643.795 314.647 643.59 314.974C643.394 315.291 643.263 315.66 643.198 316.08ZM650.277 320V313.168H651.299V314.232C651.56 313.84 651.859 313.546 652.195 313.35C652.531 313.154 652.909 313.056 653.329 313.056C653.814 313.056 654.239 313.177 654.603 313.42C654.967 313.653 655.242 313.975 655.429 314.386C655.699 313.947 656.021 313.616 656.395 313.392C656.777 313.168 657.216 313.056 657.711 313.056C658.168 313.056 658.569 313.163 658.915 313.378C659.269 313.593 659.545 313.891 659.741 314.274C659.937 314.647 660.035 315.086 660.035 315.59V320H659.013V315.842C659.013 315.245 658.863 314.773 658.565 314.428C658.266 314.083 657.855 313.91 657.333 313.91C656.978 313.91 656.656 313.999 656.367 314.176C656.087 314.353 655.839 314.624 655.625 314.988C655.643 315.081 655.657 315.179 655.667 315.282C655.676 315.385 655.681 315.487 655.681 315.59V320H654.659V315.842C654.659 315.245 654.505 314.773 654.197 314.428C653.898 314.083 653.487 313.91 652.965 313.91C652.265 313.91 651.709 314.246 651.299 314.918V320H650.277Z" fill="#4D4D4D"/>
<path d="M544.78 365V356.152H541.392V355.2H549.246V356.152H545.858V365H544.78ZM550.691 365V354.892L551.713 354.682V359.274C551.974 358.863 552.287 358.56 552.651 358.364C553.015 358.159 553.425 358.056 553.883 358.056C554.377 358.056 554.807 358.163 555.171 358.378C555.544 358.583 555.833 358.877 556.039 359.26C556.253 359.633 556.361 360.072 556.361 360.576V365H555.339V360.87C555.339 360.263 555.171 359.787 554.835 359.442C554.508 359.087 554.065 358.91 553.505 358.91C553.131 358.91 552.791 358.999 552.483 359.176C552.175 359.353 551.918 359.615 551.713 359.96V365H550.691ZM558.401 365V358.168H559.423V365H558.401ZM558.919 356.474C558.714 356.474 558.537 356.404 558.387 356.264C558.247 356.115 558.177 355.942 558.177 355.746C558.177 355.55 558.247 355.382 558.387 355.242C558.537 355.093 558.714 355.018 558.919 355.018C559.125 355.018 559.297 355.093 559.437 355.242C559.587 355.382 559.661 355.55 559.661 355.746C559.661 355.942 559.587 356.115 559.437 356.264C559.297 356.404 559.125 356.474 558.919 356.474ZM561.519 365V358.168H562.541V359.568C562.718 359.092 562.97 358.723 563.297 358.462C563.633 358.191 564.015 358.056 564.445 358.056C564.566 358.056 564.678 358.065 564.781 358.084C564.883 358.093 564.986 358.117 565.089 358.154V359.078C564.977 359.041 564.855 359.013 564.725 358.994C564.603 358.966 564.487 358.952 564.375 358.952C563.955 358.952 563.586 359.073 563.269 359.316C562.961 359.559 562.718 359.899 562.541 360.338V365H561.519ZM568.859 365.098C568.271 365.098 567.739 364.944 567.263 364.636C566.787 364.319 566.409 363.899 566.129 363.376C565.849 362.844 565.709 362.251 565.709 361.598C565.709 360.935 565.849 360.343 566.129 359.82C566.418 359.288 566.805 358.868 567.291 358.56C567.776 358.243 568.317 358.084 568.915 358.084C569.335 358.084 569.727 358.168 570.091 358.336C570.455 358.495 570.772 358.728 571.043 359.036V354.892L572.065 354.682V365H571.043V364.09C570.781 364.417 570.464 364.669 570.091 364.846C569.717 365.014 569.307 365.098 568.859 365.098ZM569.111 364.202C569.512 364.202 569.881 364.123 570.217 363.964C570.553 363.805 570.828 363.581 571.043 363.292V359.904C570.819 359.615 570.534 359.391 570.189 359.232C569.853 359.064 569.493 358.98 569.111 358.98C568.653 358.98 568.243 359.092 567.879 359.316C567.524 359.54 567.239 359.848 567.025 360.24C566.819 360.632 566.717 361.08 566.717 361.584C566.717 362.079 566.819 362.527 567.025 362.928C567.239 363.32 567.524 363.633 567.879 363.866C568.243 364.09 568.653 364.202 569.111 364.202ZM577.433 365V354.892L578.455 354.682V365H577.433ZM583.63 365.14C582.995 365.14 582.421 364.986 581.908 364.678C581.395 364.361 580.989 363.936 580.69 363.404C580.391 362.863 580.242 362.256 580.242 361.584C580.242 360.912 580.382 360.31 580.662 359.778C580.951 359.246 581.339 358.826 581.824 358.518C582.309 358.21 582.851 358.056 583.448 358.056C584.055 358.056 584.591 358.21 585.058 358.518C585.534 358.817 585.907 359.227 586.178 359.75C586.458 360.263 586.598 360.847 586.598 361.5V361.808H581.236C581.273 362.275 581.399 362.695 581.614 363.068C581.838 363.432 582.127 363.721 582.482 363.936C582.846 364.141 583.243 364.244 583.672 364.244C584.027 364.244 584.367 364.183 584.694 364.062C585.03 363.931 585.315 363.759 585.548 363.544L586.192 364.23C585.8 364.538 585.394 364.767 584.974 364.916C584.554 365.065 584.106 365.14 583.63 365.14ZM581.264 361.08H585.59C585.543 360.669 585.417 360.305 585.212 359.988C585.016 359.661 584.764 359.405 584.456 359.218C584.157 359.031 583.821 358.938 583.448 358.938C583.075 358.938 582.734 359.031 582.426 359.218C582.118 359.395 581.861 359.647 581.656 359.974C581.46 360.291 581.329 360.66 581.264 361.08ZM590.098 365L587.298 358.168H588.404L590.616 363.726L592.8 358.168H593.892L591.078 365H590.098ZM598.026 365.14C597.392 365.14 596.818 364.986 596.304 364.678C595.791 364.361 595.385 363.936 595.086 363.404C594.788 362.863 594.638 362.256 594.638 361.584C594.638 360.912 594.778 360.31 595.058 359.778C595.348 359.246 595.735 358.826 596.22 358.518C596.706 358.21 597.247 358.056 597.844 358.056C598.451 358.056 598.988 358.21 599.454 358.518C599.93 358.817 600.304 359.227 600.574 359.75C600.854 360.263 600.994 360.847 600.994 361.5V361.808H595.632C595.67 362.275 595.796 362.695 596.01 363.068C596.234 363.432 596.524 363.721 596.878 363.936C597.242 364.141 597.639 364.244 598.068 364.244C598.423 364.244 598.764 364.183 599.09 364.062C599.426 363.931 599.711 363.759 599.944 363.544L600.588 364.23C600.196 364.538 599.79 364.767 599.37 364.916C598.95 365.065 598.502 365.14 598.026 365.14ZM595.66 361.08H599.986C599.94 360.669 599.814 360.305 599.608 359.988C599.412 359.661 599.16 359.405 598.852 359.218C598.554 359.031 598.218 358.938 597.844 358.938C597.471 358.938 597.13 359.031 596.822 359.218C596.514 359.395 596.258 359.647 596.052 359.974C595.856 360.291 595.726 360.66 595.66 361.08ZM602.739 365V354.892L603.761 354.682V365H602.739ZM609.124 365V358.168H610.146V359.274C610.408 358.863 610.72 358.56 611.084 358.364C611.448 358.159 611.859 358.056 612.316 358.056C612.811 358.056 613.24 358.163 613.604 358.378C613.978 358.583 614.267 358.877 614.472 359.26C614.687 359.633 614.794 360.072 614.794 360.576V365H613.772V360.87C613.772 360.263 613.604 359.787 613.268 359.442C612.942 359.087 612.498 358.91 611.938 358.91C611.565 358.91 611.224 358.999 610.916 359.176C610.608 359.353 610.352 359.615 610.146 359.96V365H609.124ZM618.963 365.126C618.477 365.126 618.048 365.037 617.675 364.86C617.301 364.683 617.007 364.44 616.793 364.132C616.587 363.815 616.485 363.451 616.485 363.04C616.485 362.629 616.592 362.275 616.807 361.976C617.021 361.668 617.32 361.43 617.703 361.262C618.085 361.094 618.533 361.01 619.047 361.01C619.439 361.01 619.807 361.052 620.153 361.136C620.507 361.22 620.834 361.355 621.133 361.542V360.604C621.133 360.044 620.983 359.624 620.685 359.344C620.386 359.055 619.947 358.91 619.369 358.91C619.051 358.91 618.725 358.957 618.389 359.05C618.062 359.143 617.698 359.293 617.297 359.498L616.919 358.714C617.833 358.275 618.692 358.056 619.495 358.056C620.344 358.056 620.997 358.266 621.455 358.686C621.912 359.097 622.141 359.689 622.141 360.464V365H621.133V364.202C620.834 364.51 620.503 364.743 620.139 364.902C619.775 365.051 619.383 365.126 618.963 365.126ZM617.465 363.012C617.465 363.413 617.619 363.735 617.927 363.978C618.244 364.221 618.659 364.342 619.173 364.342C619.555 364.342 619.905 364.277 620.223 364.146C620.549 364.015 620.853 363.819 621.133 363.558V362.242C620.843 362.074 620.545 361.953 620.237 361.878C619.929 361.794 619.583 361.752 619.201 361.752C618.678 361.752 618.258 361.869 617.941 362.102C617.623 362.326 617.465 362.629 617.465 363.012ZM625.905 365L623.105 358.168H624.211L626.423 363.726L628.607 358.168H629.699L626.885 365H625.905ZM634.212 365V358.168H635.234V365H634.212ZM634.73 356.474C634.524 356.474 634.347 356.404 634.198 356.264C634.058 356.115 633.988 355.942 633.988 355.746C633.988 355.55 634.058 355.382 634.198 355.242C634.347 355.093 634.524 355.018 634.73 355.018C634.935 355.018 635.108 355.093 635.248 355.242C635.397 355.382 635.472 355.55 635.472 355.746C635.472 355.942 635.397 356.115 635.248 356.264C635.108 356.404 634.935 356.474 634.73 356.474ZM639.933 365.14C639.345 365.14 638.897 365 638.589 364.72C638.291 364.431 638.141 364.015 638.141 363.474V359.008H636.727V358.168H638.141V356.292L639.163 356.054V358.168H641.123V359.008H639.163V363.208C639.163 363.572 639.238 363.833 639.387 363.992C639.546 364.151 639.803 364.23 640.157 364.23C640.335 364.23 640.493 364.216 640.633 364.188C640.773 364.16 640.937 364.113 641.123 364.048V364.958C640.937 365.023 640.741 365.07 640.535 365.098C640.33 365.126 640.129 365.14 639.933 365.14ZM645.564 365.14C644.929 365.14 644.355 364.986 643.842 364.678C643.328 364.361 642.922 363.936 642.624 363.404C642.325 362.863 642.176 362.256 642.176 361.584C642.176 360.912 642.316 360.31 642.596 359.778C642.885 359.246 643.272 358.826 643.758 358.518C644.243 358.21 644.784 358.056 645.382 358.056C645.988 358.056 646.525 358.21 646.992 358.518C647.468 358.817 647.841 359.227 648.112 359.75C648.392 360.263 648.532 360.847 648.532 361.5V361.808H643.17C643.207 362.275 643.333 362.695 643.548 363.068C643.772 363.432 644.061 363.721 644.416 363.936C644.78 364.141 645.176 364.244 645.606 364.244C645.96 364.244 646.301 364.183 646.628 364.062C646.964 363.931 647.248 363.759 647.482 363.544L648.126 364.23C647.734 364.538 647.328 364.767 646.908 364.916C646.488 365.065 646.04 365.14 645.564 365.14ZM643.198 361.08H647.524C647.477 360.669 647.351 360.305 647.146 359.988C646.95 359.661 646.698 359.405 646.39 359.218C646.091 359.031 645.755 358.938 645.382 358.938C645.008 358.938 644.668 359.031 644.36 359.218C644.052 359.395 643.795 359.647 643.59 359.974C643.394 360.291 643.263 360.66 643.198 361.08ZM650.277 365V358.168H651.299V359.232C651.56 358.84 651.859 358.546 652.195 358.35C652.531 358.154 652.909 358.056 653.329 358.056C653.814 358.056 654.239 358.177 654.603 358.42C654.967 358.653 655.242 358.975 655.429 359.386C655.699 358.947 656.021 358.616 656.395 358.392C656.777 358.168 657.216 358.056 657.711 358.056C658.168 358.056 658.569 358.163 658.915 358.378C659.269 358.593 659.545 358.891 659.741 359.274C659.937 359.647 660.035 360.086 660.035 360.59V365H659.013V360.842C659.013 360.245 658.863 359.773 658.565 359.428C658.266 359.083 657.855 358.91 657.333 358.91C656.978 358.91 656.656 358.999 656.367 359.176C656.087 359.353 655.839 359.624 655.625 359.988C655.643 360.081 655.657 360.179 655.667 360.282C655.676 360.385 655.681 360.487 655.681 360.59V365H654.659V360.842C654.659 360.245 654.505 359.773 654.197 359.428C653.898 359.083 653.487 358.91 652.965 358.91C652.265 358.91 651.709 359.246 651.299 359.918V365H650.277Z" fill="#4D4D4D"/>
<path d="M763 109C763 100.163 770.163 93 779 93H1565C1573.84 93 1581 100.163 1581 109V821C1581 829.837 1573.84 837 1565 837H779C770.163 837 763 829.837 763 821V109Z" fill="white"/>
</g>
<mask id="mask1_1649_90845" style="mask-type:alpha" maskUnits="userSpaceOnUse" x="36" y="21" width="352" height="395">
<rect x="36" y="21" width="352" height="395" fill="#D9D9D9"/>
</mask>
<g mask="url(#mask1_1649_90845)">
<rect width="1120" height="958" transform="translate(40 24)" fill="#F2F2F2"/>
<rect width="1120" height="69" transform="translate(40 24)" fill="#F2F2F2"/>
<path d="M94.6426 66.6426C95.116 66.6426 95.5 67.0266 95.5 67.5V69.6426C95.5 70.116 95.116 70.5 94.6426 70.5H72.3574C71.884 70.5 71.5 70.116 71.5 69.6426V67.5C71.5 67.0266 71.884 66.6426 72.3574 66.6426H94.6426ZM94.6426 58.0713C95.116 58.0713 95.5 58.4553 95.5 58.9287V61.0713C95.5 61.5447 95.116 61.9287 94.6426 61.9287H72.3574C71.884 61.9287 71.5 61.5447 71.5 61.0713V58.9287C71.5 58.4553 71.884 58.0713 72.3574 58.0713H94.6426ZM94.6426 49.5C95.116 49.5 95.5 49.884 95.5 50.3574V52.5C95.5 52.9734 95.116 53.3574 94.6426 53.3574H72.3574C71.884 53.3574 71.5 52.9734 71.5 52.5V50.3574C71.5 49.884 71.884 49.5 72.3574 49.5H94.6426Z" fill="#1F1F1F"/>
<path fill-rule="evenodd" clip-rule="evenodd" d="M131.478 40H154V62.5217H151.587C140.481 62.5217 131.478 53.5188 131.478 42.413V40Z" fill="#0066CC"/>
<path fill-rule="evenodd" clip-rule="evenodd" d="M154 40.8044L132.283 77.0001H149.317C151.903 77.0001 154 74.9032 154 72.3166V40.8044Z" fill="url(#paint0_linear_1649_90845)"/>
<path fill-rule="evenodd" clip-rule="evenodd" d="M153.196 39.9999L117 61.7173V44.6834C117 42.0968 119.097 39.9999 121.683 39.9999H153.196Z" fill="url(#paint1_linear_1649_90845)"/>
<rect width="254" height="768" transform="translate(40 93)" fill="#F2F2F2"/>
<path d="M81.246 140V130.2H82.366L88.106 138.32L88.078 130.2H89.1V140H88.12L82.24 131.698L82.268 140H81.246ZM93.3769 140.126C92.8916 140.126 92.4622 140.037 92.0889 139.86C91.7156 139.683 91.4216 139.44 91.2069 139.132C91.0016 138.815 90.8989 138.451 90.8989 138.04C90.8989 137.629 91.0062 137.275 91.2209 136.976C91.4356 136.668 91.7342 136.43 92.1169 136.262C92.4996 136.094 92.9476 136.01 93.4609 136.01C93.8529 136.01 94.2216 136.052 94.5669 136.136C94.9216 136.22 95.2482 136.355 95.5469 136.542V135.604C95.5469 135.044 95.3976 134.624 95.0989 134.344C94.8002 134.055 94.3616 133.91 93.7829 133.91C93.4656 133.91 93.1389 133.957 92.8029 134.05C92.4762 134.143 92.1122 134.293 91.7109 134.498L91.3329 133.714C92.2476 133.275 93.1062 133.056 93.9089 133.056C94.7582 133.056 95.4116 133.266 95.8689 133.686C96.3262 134.097 96.5549 134.689 96.5549 135.464V140H95.5469V139.202C95.2482 139.51 94.9169 139.743 94.5529 139.902C94.1889 140.051 93.7969 140.126 93.3769 140.126ZM91.8789 138.012C91.8789 138.413 92.0329 138.735 92.3409 138.978C92.6582 139.221 93.0736 139.342 93.5869 139.342C93.9696 139.342 94.3196 139.277 94.6369 139.146C94.9636 139.015 95.2669 138.819 95.5469 138.558V137.242C95.2576 137.074 94.9589 136.953 94.6509 136.878C94.3429 136.794 93.9976 136.752 93.6149 136.752C93.0922 136.752 92.6722 136.869 92.3549 137.102C92.0376 137.326 91.8789 137.629 91.8789 138.012ZM100.319 140L97.5186 133.168H98.6246L100.837 138.726L103.021 133.168H104.113L101.299 140H100.319ZM108.626 140V133.168H109.648V140H108.626ZM109.144 131.474C108.939 131.474 108.761 131.404 108.612 131.264C108.472 131.115 108.402 130.942 108.402 130.746C108.402 130.55 108.472 130.382 108.612 130.242C108.761 130.093 108.939 130.018 109.144 130.018C109.349 130.018 109.522 130.093 109.662 130.242C109.811 130.382 109.886 130.55 109.886 130.746C109.886 130.942 109.811 131.115 109.662 131.264C109.522 131.404 109.349 131.474 109.144 131.474ZM114.347 140.14C113.759 140.14 113.311 140 113.003 139.72C112.705 139.431 112.555 139.015 112.555 138.474V134.008H111.141V133.168H112.555V131.292L113.577 131.054V133.168H115.537V134.008H113.577V138.208C113.577 138.572 113.652 138.833 113.801 138.992C113.96 139.151 114.217 139.23 114.571 139.23C114.749 139.23 114.907 139.216 115.047 139.188C115.187 139.16 115.351 139.113 115.537 139.048V139.958C115.351 140.023 115.155 140.07 114.949 140.098C114.744 140.126 114.543 140.14 114.347 140.14ZM119.978 140.14C119.343 140.14 118.769 139.986 118.256 139.678C117.742 139.361 117.336 138.936 117.038 138.404C116.739 137.863 116.59 137.256 116.59 136.584C116.59 135.912 116.73 135.31 117.01 134.778C117.299 134.246 117.686 133.826 118.172 133.518C118.657 133.21 119.198 133.056 119.796 133.056C120.402 133.056 120.939 133.21 121.406 133.518C121.882 133.817 122.255 134.227 122.526 134.75C122.806 135.263 122.946 135.847 122.946 136.5V136.808H117.584C117.621 137.275 117.747 137.695 117.962 138.068C118.186 138.432 118.475 138.721 118.83 138.936C119.194 139.141 119.59 139.244 120.02 139.244C120.374 139.244 120.715 139.183 121.042 139.062C121.378 138.931 121.662 138.759 121.896 138.544L122.54 139.23C122.148 139.538 121.742 139.767 121.322 139.916C120.902 140.065 120.454 140.14 119.978 140.14ZM117.612 136.08H121.938C121.891 135.669 121.765 135.305 121.56 134.988C121.364 134.661 121.112 134.405 120.804 134.218C120.505 134.031 120.169 133.938 119.796 133.938C119.422 133.938 119.082 134.031 118.774 134.218C118.466 134.395 118.209 134.647 118.004 134.974C117.808 135.291 117.677 135.66 117.612 136.08ZM124.691 140V133.168H125.713V134.232C125.974 133.84 126.273 133.546 126.609 133.35C126.945 133.154 127.323 133.056 127.743 133.056C128.228 133.056 128.653 133.177 129.017 133.42C129.381 133.653 129.656 133.975 129.843 134.386C130.113 133.947 130.435 133.616 130.809 133.392C131.191 133.168 131.63 133.056 132.125 133.056C132.582 133.056 132.983 133.163 133.329 133.378C133.683 133.593 133.959 133.891 134.155 134.274C134.351 134.647 134.449 135.086 134.449 135.59V140H133.427V135.842C133.427 135.245 133.277 134.773 132.979 134.428C132.68 134.083 132.269 133.91 131.747 133.91C131.392 133.91 131.07 133.999 130.781 134.176C130.501 134.353 130.253 134.624 130.039 134.988C130.057 135.081 130.071 135.179 130.081 135.282C130.09 135.385 130.095 135.487 130.095 135.59V140H129.073V135.842C129.073 135.245 128.919 134.773 128.611 134.428C128.312 134.083 127.901 133.91 127.379 133.91C126.679 133.91 126.123 134.246 125.713 134.918V140H124.691Z" fill="#4D4D4D"/>
<path d="M265.973 131.54C266.256 131.265 266.714 131.265 266.994 131.54L271.089 135.504C271.375 135.778 271.375 136.222 271.092 136.496L266.996 140.461C266.713 140.735 266.256 140.735 265.976 140.461L265.295 139.802C265.013 139.528 265.013 139.085 265.295 138.814L268.199 136.003L265.295 133.192C265.013 132.918 265.012 132.475 265.295 132.204L265.973 131.54Z" fill="#707070"/>
<path d="M81.246 185V175.2H82.366L88.106 183.32L88.078 175.2H89.1V185H88.12L82.24 176.698L82.268 185H81.246ZM93.3769 185.126C92.8916 185.126 92.4622 185.037 92.0889 184.86C91.7156 184.683 91.4216 184.44 91.2069 184.132C91.0016 183.815 90.8989 183.451 90.8989 183.04C90.8989 182.629 91.0062 182.275 91.2209 181.976C91.4356 181.668 91.7342 181.43 92.1169 181.262C92.4996 181.094 92.9476 181.01 93.4609 181.01C93.8529 181.01 94.2216 181.052 94.5669 181.136C94.9216 181.22 95.2482 181.355 95.5469 181.542V180.604C95.5469 180.044 95.3976 179.624 95.0989 179.344C94.8002 179.055 94.3616 178.91 93.7829 178.91C93.4656 178.91 93.1389 178.957 92.8029 179.05C92.4762 179.143 92.1122 179.293 91.7109 179.498L91.3329 178.714C92.2476 178.275 93.1062 178.056 93.9089 178.056C94.7582 178.056 95.4116 178.266 95.8689 178.686C96.3262 179.097 96.5549 179.689 96.5549 180.464V185H95.5469V184.202C95.2482 184.51 94.9169 184.743 94.5529 184.902C94.1889 185.051 93.7969 185.126 93.3769 185.126ZM91.8789 183.012C91.8789 183.413 92.0329 183.735 92.3409 183.978C92.6582 184.221 93.0736 184.342 93.5869 184.342C93.9696 184.342 94.3196 184.277 94.6369 184.146C94.9636 184.015 95.2669 183.819 95.5469 183.558V182.242C95.2576 182.074 94.9589 181.953 94.6509 181.878C94.3429 181.794 93.9976 181.752 93.6149 181.752C93.0922 181.752 92.6722 181.869 92.3549 182.102C92.0376 182.326 91.8789 182.629 91.8789 183.012ZM100.319 185L97.5186 178.168H98.6246L100.837 183.726L103.021 178.168H104.113L101.299 185H100.319ZM108.626 185V178.168H109.648V185H108.626ZM109.144 176.474C108.939 176.474 108.761 176.404 108.612 176.264C108.472 176.115 108.402 175.942 108.402 175.746C108.402 175.55 108.472 175.382 108.612 175.242C108.761 175.093 108.939 175.018 109.144 175.018C109.349 175.018 109.522 175.093 109.662 175.242C109.811 175.382 109.886 175.55 109.886 175.746C109.886 175.942 109.811 176.115 109.662 176.264C109.522 176.404 109.349 176.474 109.144 176.474ZM114.347 185.14C113.759 185.14 113.311 185 113.003 184.72C112.705 184.431 112.555 184.015 112.555 183.474V179.008H111.141V178.168H112.555V176.292L113.577 176.054V178.168H115.537V179.008H113.577V183.208C113.577 183.572 113.652 183.833 113.801 183.992C113.96 184.151 114.217 184.23 114.571 184.23C114.749 184.23 114.907 184.216 115.047 184.188C115.187 184.16 115.351 184.113 115.537 184.048V184.958C115.351 185.023 115.155 185.07 114.949 185.098C114.744 185.126 114.543 185.14 114.347 185.14ZM119.978 185.14C119.343 185.14 118.769 184.986 118.256 184.678C117.742 184.361 117.336 183.936 117.038 183.404C116.739 182.863 116.59 182.256 116.59 181.584C116.59 180.912 116.73 180.31 117.01 179.778C117.299 179.246 117.686 178.826 118.172 178.518C118.657 178.21 119.198 178.056 119.796 178.056C120.402 178.056 120.939 178.21 121.406 178.518C121.882 178.817 122.255 179.227 122.526 179.75C122.806 180.263 122.946 180.847 122.946 181.5V181.808H117.584C117.621 182.275 117.747 182.695 117.962 183.068C118.186 183.432 118.475 183.721 118.83 183.936C119.194 184.141 119.59 184.244 120.02 184.244C120.374 184.244 120.715 184.183 121.042 184.062C121.378 183.931 121.662 183.759 121.896 183.544L122.54 184.23C122.148 184.538 121.742 184.767 121.322 184.916C120.902 185.065 120.454 185.14 119.978 185.14ZM117.612 181.08H121.938C121.891 180.669 121.765 180.305 121.56 179.988C121.364 179.661 121.112 179.405 120.804 179.218C120.505 179.031 120.169 178.938 119.796 178.938C119.422 178.938 119.082 179.031 118.774 179.218C118.466 179.395 118.209 179.647 118.004 179.974C117.808 180.291 117.677 180.66 117.612 181.08ZM124.691 185V178.168H125.713V179.232C125.974 178.84 126.273 178.546 126.609 178.35C126.945 178.154 127.323 178.056 127.743 178.056C128.228 178.056 128.653 178.177 129.017 178.42C129.381 178.653 129.656 178.975 129.843 179.386C130.113 178.947 130.435 178.616 130.809 178.392C131.191 178.168 131.63 178.056 132.125 178.056C132.582 178.056 132.983 178.163 133.329 178.378C133.683 178.593 133.959 178.891 134.155 179.274C134.351 179.647 134.449 180.086 134.449 180.59V185H133.427V180.842C133.427 180.245 133.277 179.773 132.979 179.428C132.68 179.083 132.269 178.91 131.747 178.91C131.392 178.91 131.07 178.999 130.781 179.176C130.501 179.353 130.253 179.624 130.039 179.988C130.057 180.081 130.071 180.179 130.081 180.282C130.09 180.385 130.095 180.487 130.095 180.59V185H129.073V180.842C129.073 180.245 128.919 179.773 128.611 179.428C128.312 179.083 127.901 178.91 127.379 178.91C126.679 178.91 126.123 179.246 125.713 179.918V185H124.691Z" fill="#4D4D4D"/>
<path d="M265.973 176.54C266.256 176.265 266.714 176.265 266.994 176.54L271.089 180.504C271.375 180.778 271.375 181.222 271.092 181.496L266.996 185.461C266.713 185.735 266.256 185.735 265.976 185.461L265.295 184.802C265.013 184.528 265.013 184.085 265.295 183.814L268.199 181.003L265.295 178.192C265.013 177.918 265.012 177.475 265.295 177.204L265.973 176.54Z" fill="#707070"/>
<path d="M64 213C64 209.686 66.6863 207 70 207H288C291.314 207 294 209.686 294 213V238C294 241.314 291.314 244 288 244H70C66.6863 244 64 241.314 64 238V213Z" fill="white"/>
<path d="M81.246 230V220.2H82.366L88.106 228.32L88.078 220.2H89.1V230H88.12L82.24 221.698L82.268 230H81.246ZM93.3769 230.126C92.8916 230.126 92.4622 230.037 92.0889 229.86C91.7156 229.683 91.4216 229.44 91.2069 229.132C91.0016 228.815 90.8989 228.451 90.8989 228.04C90.8989 227.629 91.0062 227.275 91.2209 226.976C91.4356 226.668 91.7342 226.43 92.1169 226.262C92.4996 226.094 92.9476 226.01 93.4609 226.01C93.8529 226.01 94.2216 226.052 94.5669 226.136C94.9216 226.22 95.2482 226.355 95.5469 226.542V225.604C95.5469 225.044 95.3976 224.624 95.0989 224.344C94.8002 224.055 94.3616 223.91 93.7829 223.91C93.4656 223.91 93.1389 223.957 92.8029 224.05C92.4762 224.143 92.1122 224.293 91.7109 224.498L91.3329 223.714C92.2476 223.275 93.1062 223.056 93.9089 223.056C94.7582 223.056 95.4116 223.266 95.8689 223.686C96.3262 224.097 96.5549 224.689 96.5549 225.464V230H95.5469V229.202C95.2482 229.51 94.9169 229.743 94.5529 229.902C94.1889 230.051 93.7969 230.126 93.3769 230.126ZM91.8789 228.012C91.8789 228.413 92.0329 228.735 92.3409 228.978C92.6582 229.221 93.0736 229.342 93.5869 229.342C93.9696 229.342 94.3196 229.277 94.6369 229.146C94.9636 229.015 95.2669 228.819 95.5469 228.558V227.242C95.2576 227.074 94.9589 226.953 94.6509 226.878C94.3429 226.794 93.9976 226.752 93.6149 226.752C93.0922 226.752 92.6722 226.869 92.3549 227.102C92.0376 227.326 91.8789 227.629 91.8789 228.012ZM100.319 230L97.5186 223.168H98.6246L100.837 228.726L103.021 223.168H104.113L101.299 230H100.319ZM108.626 230V223.168H109.648V230H108.626ZM109.144 221.474C108.939 221.474 108.761 221.404 108.612 221.264C108.472 221.115 108.402 220.942 108.402 220.746C108.402 220.55 108.472 220.382 108.612 220.242C108.761 220.093 108.939 220.018 109.144 220.018C109.349 220.018 109.522 220.093 109.662 220.242C109.811 220.382 109.886 220.55 109.886 220.746C109.886 220.942 109.811 221.115 109.662 221.264C109.522 221.404 109.349 221.474 109.144 221.474ZM114.347 230.14C113.759 230.14 113.311 230 113.003 229.72C112.705 229.431 112.555 229.015 112.555 228.474V224.008H111.141V223.168H112.555V221.292L113.577 221.054V223.168H115.537V224.008H113.577V228.208C113.577 228.572 113.652 228.833 113.801 228.992C113.96 229.151 114.217 229.23 114.571 229.23C114.749 229.23 114.907 229.216 115.047 229.188C115.187 229.16 115.351 229.113 115.537 229.048V229.958C115.351 230.023 115.155 230.07 114.949 230.098C114.744 230.126 114.543 230.14 114.347 230.14ZM119.978 230.14C119.343 230.14 118.769 229.986 118.256 229.678C117.742 229.361 117.336 228.936 117.038 228.404C116.739 227.863 116.59 227.256 116.59 226.584C116.59 225.912 116.73 225.31 117.01 224.778C117.299 224.246 117.686 223.826 118.172 223.518C118.657 223.21 119.198 223.056 119.796 223.056C120.402 223.056 120.939 223.21 121.406 223.518C121.882 223.817 122.255 224.227 122.526 224.75C122.806 225.263 122.946 225.847 122.946 226.5V226.808H117.584C117.621 227.275 117.747 227.695 117.962 228.068C118.186 228.432 118.475 228.721 118.83 228.936C119.194 229.141 119.59 229.244 120.02 229.244C120.374 229.244 120.715 229.183 121.042 229.062C121.378 228.931 121.662 228.759 121.896 228.544L122.54 229.23C122.148 229.538 121.742 229.767 121.322 229.916C120.902 230.065 120.454 230.14 119.978 230.14ZM117.612 226.08H121.938C121.891 225.669 121.765 225.305 121.56 224.988C121.364 224.661 121.112 224.405 120.804 224.218C120.505 224.031 120.169 223.938 119.796 223.938C119.422 223.938 119.082 224.031 118.774 224.218C118.466 224.395 118.209 224.647 118.004 224.974C117.808 225.291 117.677 225.66 117.612 226.08ZM124.691 230V223.168H125.713V224.232C125.974 223.84 126.273 223.546 126.609 223.35C126.945 223.154 127.323 223.056 127.743 223.056C128.228 223.056 128.653 223.177 129.017 223.42C129.381 223.653 129.656 223.975 129.843 224.386C130.113 223.947 130.435 223.616 130.809 223.392C131.191 223.168 131.63 223.056 132.125 223.056C132.582 223.056 132.983 223.163 133.329 223.378C133.683 223.593 133.959 223.891 134.155 224.274C134.351 224.647 134.449 225.086 134.449 225.59V230H133.427V225.842C133.427 225.245 133.277 224.773 132.979 224.428C132.68 224.083 132.269 223.91 131.747 223.91C131.392 223.91 131.07 223.999 130.781 224.176C130.501 224.353 130.253 224.624 130.039 224.988C130.057 225.081 130.071 225.179 130.081 225.282C130.09 225.385 130.095 225.487 130.095 225.59V230H129.073V225.842C129.073 225.245 128.919 224.773 128.611 224.428C128.312 224.083 127.901 223.91 127.379 223.91C126.679 223.91 126.123 224.246 125.713 224.918V230H124.691Z" fill="#151515"/>
<path d="M265.973 221.538C266.256 221.265 266.714 221.265 266.994 221.538L271.089 225.504C271.375 225.778 271.375 226.221 271.092 226.495L266.997 230.461C266.714 230.735 266.256 230.735 265.976 230.461L265.296 229.802C265.013 229.528 265.013 229.085 265.296 228.814L268.198 226.002L265.296 223.192C265.013 222.918 265.013 222.475 265.296 222.203L265.973 221.538Z" fill="#1F1F1F"/>
<path d="M81.246 275V265.2H82.366L88.106 273.32L88.078 265.2H89.1V275H88.12L82.24 266.698L82.268 275H81.246ZM93.3769 275.126C92.8916 275.126 92.4622 275.037 92.0889 274.86C91.7156 274.683 91.4216 274.44 91.2069 274.132C91.0016 273.815 90.8989 273.451 90.8989 273.04C90.8989 272.629 91.0062 272.275 91.2209 271.976C91.4356 271.668 91.7342 271.43 92.1169 271.262C92.4996 271.094 92.9476 271.01 93.4609 271.01C93.8529 271.01 94.2216 271.052 94.5669 271.136C94.9216 271.22 95.2482 271.355 95.5469 271.542V270.604C95.5469 270.044 95.3976 269.624 95.0989 269.344C94.8002 269.055 94.3616 268.91 93.7829 268.91C93.4656 268.91 93.1389 268.957 92.8029 269.05C92.4762 269.143 92.1122 269.293 91.7109 269.498L91.3329 268.714C92.2476 268.275 93.1062 268.056 93.9089 268.056C94.7582 268.056 95.4116 268.266 95.8689 268.686C96.3262 269.097 96.5549 269.689 96.5549 270.464V275H95.5469V274.202C95.2482 274.51 94.9169 274.743 94.5529 274.902C94.1889 275.051 93.7969 275.126 93.3769 275.126ZM91.8789 273.012C91.8789 273.413 92.0329 273.735 92.3409 273.978C92.6582 274.221 93.0736 274.342 93.5869 274.342C93.9696 274.342 94.3196 274.277 94.6369 274.146C94.9636 274.015 95.2669 273.819 95.5469 273.558V272.242C95.2576 272.074 94.9589 271.953 94.6509 271.878C94.3429 271.794 93.9976 271.752 93.6149 271.752C93.0922 271.752 92.6722 271.869 92.3549 272.102C92.0376 272.326 91.8789 272.629 91.8789 273.012ZM100.319 275L97.5186 268.168H98.6246L100.837 273.726L103.021 268.168H104.113L101.299 275H100.319ZM108.626 275V268.168H109.648V275H108.626ZM109.144 266.474C108.939 266.474 108.761 266.404 108.612 266.264C108.472 266.115 108.402 265.942 108.402 265.746C108.402 265.55 108.472 265.382 108.612 265.242C108.761 265.093 108.939 265.018 109.144 265.018C109.349 265.018 109.522 265.093 109.662 265.242C109.811 265.382 109.886 265.55 109.886 265.746C109.886 265.942 109.811 266.115 109.662 266.264C109.522 266.404 109.349 266.474 109.144 266.474ZM114.347 275.14C113.759 275.14 113.311 275 113.003 274.72C112.705 274.431 112.555 274.015 112.555 273.474V269.008H111.141V268.168H112.555V266.292L113.577 266.054V268.168H115.537V269.008H113.577V273.208C113.577 273.572 113.652 273.833 113.801 273.992C113.96 274.151 114.217 274.23 114.571 274.23C114.749 274.23 114.907 274.216 115.047 274.188C115.187 274.16 115.351 274.113 115.537 274.048V274.958C115.351 275.023 115.155 275.07 114.949 275.098C114.744 275.126 114.543 275.14 114.347 275.14ZM119.978 275.14C119.343 275.14 118.769 274.986 118.256 274.678C117.742 274.361 117.336 273.936 117.038 273.404C116.739 272.863 116.59 272.256 116.59 271.584C116.59 270.912 116.73 270.31 117.01 269.778C117.299 269.246 117.686 268.826 118.172 268.518C118.657 268.21 119.198 268.056 119.796 268.056C120.402 268.056 120.939 268.21 121.406 268.518C121.882 268.817 122.255 269.227 122.526 269.75C122.806 270.263 122.946 270.847 122.946 271.5V271.808H117.584C117.621 272.275 117.747 272.695 117.962 273.068C118.186 273.432 118.475 273.721 118.83 273.936C119.194 274.141 119.59 274.244 120.02 274.244C120.374 274.244 120.715 274.183 121.042 274.062C121.378 273.931 121.662 273.759 121.896 273.544L122.54 274.23C122.148 274.538 121.742 274.767 121.322 274.916C120.902 275.065 120.454 275.14 119.978 275.14ZM117.612 271.08H121.938C121.891 270.669 121.765 270.305 121.56 269.988C121.364 269.661 121.112 269.405 120.804 269.218C120.505 269.031 120.169 268.938 119.796 268.938C119.422 268.938 119.082 269.031 118.774 269.218C118.466 269.395 118.209 269.647 118.004 269.974C117.808 270.291 117.677 270.66 117.612 271.08ZM124.691 275V268.168H125.713V269.232C125.974 268.84 126.273 268.546 126.609 268.35C126.945 268.154 127.323 268.056 127.743 268.056C128.228 268.056 128.653 268.177 129.017 268.42C129.381 268.653 129.656 268.975 129.843 269.386C130.113 268.947 130.435 268.616 130.809 268.392C131.191 268.168 131.63 268.056 132.125 268.056C132.582 268.056 132.983 268.163 133.329 268.378C133.683 268.593 133.959 268.891 134.155 269.274C134.351 269.647 134.449 270.086 134.449 270.59V275H133.427V270.842C133.427 270.245 133.277 269.773 132.979 269.428C132.68 269.083 132.269 268.91 131.747 268.91C131.392 268.91 131.07 268.999 130.781 269.176C130.501 269.353 130.253 269.624 130.039 269.988C130.057 270.081 130.071 270.179 130.081 270.282C130.09 270.385 130.095 270.487 130.095 270.59V275H129.073V270.842C129.073 270.245 128.919 269.773 128.611 269.428C128.312 269.083 127.901 268.91 127.379 268.91C126.679 268.91 126.123 269.246 125.713 269.918V275H124.691Z" fill="#4D4D4D"/>
<path d="M265.973 266.54C266.256 266.265 266.714 266.265 266.994 266.54L271.089 270.504C271.375 270.778 271.375 271.222 271.092 271.496L266.996 275.461C266.713 275.735 266.256 275.735 265.976 275.461L265.295 274.802C265.013 274.528 265.013 274.085 265.295 273.814L268.199 271.003L265.295 268.192C265.013 267.918 265.012 267.475 265.295 267.204L265.973 266.54Z" fill="#707070"/>
<path d="M81.246 320V310.2H82.366L88.106 318.32L88.078 310.2H89.1V320H88.12L82.24 311.698L82.268 320H81.246ZM93.3769 320.126C92.8916 320.126 92.4622 320.037 92.0889 319.86C91.7156 319.683 91.4216 319.44 91.2069 319.132C91.0016 318.815 90.8989 318.451 90.8989 318.04C90.8989 317.629 91.0062 317.275 91.2209 316.976C91.4356 316.668 91.7342 316.43 92.1169 316.262C92.4996 316.094 92.9476 316.01 93.4609 316.01C93.8529 316.01 94.2216 316.052 94.5669 316.136C94.9216 316.22 95.2482 316.355 95.5469 316.542V315.604C95.5469 315.044 95.3976 314.624 95.0989 314.344C94.8002 314.055 94.3616 313.91 93.7829 313.91C93.4656 313.91 93.1389 313.957 92.8029 314.05C92.4762 314.143 92.1122 314.293 91.7109 314.498L91.3329 313.714C92.2476 313.275 93.1062 313.056 93.9089 313.056C94.7582 313.056 95.4116 313.266 95.8689 313.686C96.3262 314.097 96.5549 314.689 96.5549 315.464V320H95.5469V319.202C95.2482 319.51 94.9169 319.743 94.5529 319.902C94.1889 320.051 93.7969 320.126 93.3769 320.126ZM91.8789 318.012C91.8789 318.413 92.0329 318.735 92.3409 318.978C92.6582 319.221 93.0736 319.342 93.5869 319.342C93.9696 319.342 94.3196 319.277 94.6369 319.146C94.9636 319.015 95.2669 318.819 95.5469 318.558V317.242C95.2576 317.074 94.9589 316.953 94.6509 316.878C94.3429 316.794 93.9976 316.752 93.6149 316.752C93.0922 316.752 92.6722 316.869 92.3549 317.102C92.0376 317.326 91.8789 317.629 91.8789 318.012ZM100.319 320L97.5186 313.168H98.6246L100.837 318.726L103.021 313.168H104.113L101.299 320H100.319ZM108.626 320V313.168H109.648V320H108.626ZM109.144 311.474C108.939 311.474 108.761 311.404 108.612 311.264C108.472 311.115 108.402 310.942 108.402 310.746C108.402 310.55 108.472 310.382 108.612 310.242C108.761 310.093 108.939 310.018 109.144 310.018C109.349 310.018 109.522 310.093 109.662 310.242C109.811 310.382 109.886 310.55 109.886 310.746C109.886 310.942 109.811 311.115 109.662 311.264C109.522 311.404 109.349 311.474 109.144 311.474ZM114.347 320.14C113.759 320.14 113.311 320 113.003 319.72C112.705 319.431 112.555 319.015 112.555 318.474V314.008H111.141V313.168H112.555V311.292L113.577 311.054V313.168H115.537V314.008H113.577V318.208C113.577 318.572 113.652 318.833 113.801 318.992C113.96 319.151 114.217 319.23 114.571 319.23C114.749 319.23 114.907 319.216 115.047 319.188C115.187 319.16 115.351 319.113 115.537 319.048V319.958C115.351 320.023 115.155 320.07 114.949 320.098C114.744 320.126 114.543 320.14 114.347 320.14ZM119.978 320.14C119.343 320.14 118.769 319.986 118.256 319.678C117.742 319.361 117.336 318.936 117.038 318.404C116.739 317.863 116.59 317.256 116.59 316.584C116.59 315.912 116.73 315.31 117.01 314.778C117.299 314.246 117.686 313.826 118.172 313.518C118.657 313.21 119.198 313.056 119.796 313.056C120.402 313.056 120.939 313.21 121.406 313.518C121.882 313.817 122.255 314.227 122.526 314.75C122.806 315.263 122.946 315.847 122.946 316.5V316.808H117.584C117.621 317.275 117.747 317.695 117.962 318.068C118.186 318.432 118.475 318.721 118.83 318.936C119.194 319.141 119.59 319.244 120.02 319.244C120.374 319.244 120.715 319.183 121.042 319.062C121.378 318.931 121.662 318.759 121.896 318.544L122.54 319.23C122.148 319.538 121.742 319.767 121.322 319.916C120.902 320.065 120.454 320.14 119.978 320.14ZM117.612 316.08H121.938C121.891 315.669 121.765 315.305 121.56 314.988C121.364 314.661 121.112 314.405 120.804 314.218C120.505 314.031 120.169 313.938 119.796 313.938C119.422 313.938 119.082 314.031 118.774 314.218C118.466 314.395 118.209 314.647 118.004 314.974C117.808 315.291 117.677 315.66 117.612 316.08ZM124.691 320V313.168H125.713V314.232C125.974 313.84 126.273 313.546 126.609 313.35C126.945 313.154 127.323 313.056 127.743 313.056C128.228 313.056 128.653 313.177 129.017 313.42C129.381 313.653 129.656 313.975 129.843 314.386C130.113 313.947 130.435 313.616 130.809 313.392C131.191 313.168 131.63 313.056 132.125 313.056C132.582 313.056 132.983 313.163 133.329 313.378C133.683 313.593 133.959 313.891 134.155 314.274C134.351 314.647 134.449 315.086 134.449 315.59V320H133.427V315.842C133.427 315.245 133.277 314.773 132.979 314.428C132.68 314.083 132.269 313.91 131.747 313.91C131.392 313.91 131.07 313.999 130.781 314.176C130.501 314.353 130.253 314.624 130.039 314.988C130.057 315.081 130.071 315.179 130.081 315.282C130.09 315.385 130.095 315.487 130.095 315.59V320H129.073V315.842C129.073 315.245 128.919 314.773 128.611 314.428C128.312 314.083 127.901 313.91 127.379 313.91C126.679 313.91 126.123 314.246 125.713 314.918V320H124.691Z" fill="#4D4D4D"/>
<path d="M265.973 311.54C266.256 311.265 266.714 311.265 266.994 311.54L271.089 315.504C271.375 315.778 271.375 316.222 271.092 316.496L266.996 320.461C266.713 320.735 266.256 320.735 265.976 320.461L265.295 319.802C265.013 319.528 265.013 319.085 265.295 318.814L268.199 316.003L265.295 313.192C265.013 312.918 265.012 312.475 265.295 312.204L265.973 311.54Z" fill="#707070"/>
<path d="M318 109C318 100.163 325.163 93 334 93H1120C1128.84 93 1136 100.163 1136 109V821C1136 829.837 1128.84 837 1120 837H334C325.163 837 318 829.837 318 821V109Z" fill="white"/>
<mask id="path-33-inside-1_1649_90845" fill="white">
<path fill-rule="evenodd" clip-rule="evenodd" d="M276.465 229.195C275.131 228.425 273.465 229.387 273.465 230.927L273.465 244.934C273.465 246.474 275.131 247.436 276.465 246.666L280.105 244.565L281.743 247.402C282.295 248.359 283.518 248.687 284.475 248.134L286.278 247.093C287.235 246.541 287.562 245.318 287.01 244.361L285.372 241.524L288.595 239.663C289.928 238.893 289.928 236.968 288.595 236.198L276.465 229.195Z"/>
</mask>
<path fill-rule="evenodd" clip-rule="evenodd" d="M276.465 229.195C275.131 228.425 273.465 229.387 273.465 230.927L273.465 244.934C273.465 246.474 275.131 247.436 276.465 246.666L280.105 244.565L281.743 247.402C282.295 248.359 283.518 248.687 284.475 248.134L286.278 247.093C287.235 246.541 287.562 245.318 287.01 244.361L285.372 241.524L288.595 239.663C289.928 238.893 289.928 236.968 288.595 236.198L276.465 229.195Z" fill="#FF00FF"/>
<path d="M273.465 230.927L272.465 230.927V230.927L273.465 230.927ZM276.465 229.195L276.965 228.329L276.965 228.329L276.465 229.195ZM273.465 244.934L274.465 244.934V244.934L273.465 244.934ZM280.105 244.565L280.971 244.065L280.471 243.199L279.605 243.699L280.105 244.565ZM284.475 248.134L284.975 249L284.475 248.134ZM286.278 247.093L285.778 246.227L286.278 247.093ZM285.372 241.524L284.872 240.657L284.006 241.157L284.506 242.024L285.372 241.524ZM288.595 239.663L289.095 240.529L288.595 239.663ZM288.595 236.198L288.095 237.064L288.095 237.064L288.595 236.198ZM273.465 230.927L274.465 230.927C274.465 230.157 275.298 229.676 275.965 230.061L276.465 229.195L276.965 228.329C274.965 227.174 272.465 228.618 272.465 230.927L273.465 230.927ZM273.465 244.934L274.465 244.934L274.465 230.927L273.465 230.927L272.465 230.927L272.465 244.934L273.465 244.934ZM276.465 246.666L275.965 245.8C275.298 246.185 274.465 245.704 274.465 244.934L273.465 244.934L272.465 244.934C272.465 247.243 274.965 248.687 276.965 247.532L276.465 246.666ZM280.105 244.565L279.605 243.699L275.965 245.8L276.465 246.666L276.965 247.532L280.605 245.431L280.105 244.565ZM281.743 247.402L282.609 246.902L280.971 244.065L280.105 244.565L279.238 245.065L280.877 247.902L281.743 247.402ZM284.475 248.134L283.975 247.268C283.497 247.544 282.885 247.381 282.609 246.902L281.743 247.402L280.877 247.902C281.705 249.337 283.54 249.829 284.975 249L284.475 248.134ZM286.278 247.093L285.778 246.227L283.975 247.268L284.475 248.134L284.975 249L286.778 247.959L286.278 247.093ZM287.01 244.361L286.144 244.861C286.42 245.339 286.256 245.951 285.778 246.227L286.278 247.093L286.778 247.959C288.213 247.131 288.705 245.296 287.876 243.861L287.01 244.361ZM285.372 241.524L284.506 242.024L286.144 244.861L287.01 244.361L287.876 243.861L286.238 241.024L285.372 241.524ZM288.595 239.663L288.095 238.797L284.872 240.657L285.372 241.524L285.872 242.39L289.095 240.529L288.595 239.663ZM288.595 236.198L288.095 237.064C288.762 237.449 288.762 238.412 288.095 238.797L288.595 239.663L289.095 240.529C291.095 239.374 291.095 236.487 289.095 235.332L288.595 236.198ZM276.465 229.195L275.965 230.061L288.095 237.064L288.595 236.198L289.095 235.332L276.965 228.329L276.465 229.195Z" fill="#FF00FF" mask="url(#path-33-inside-1_1649_90845)"/>
<path fill-rule="evenodd" clip-rule="evenodd" d="M279.423 229.498C279.771 228.156 279.613 226.683 278.865 225.387C277.353 222.769 274.006 221.872 271.387 223.384C268.769 224.895 267.872 228.243 269.384 230.861C270.053 232.02 271.082 232.842 272.248 233.267L272.248 228.82C272.248 227.28 273.915 226.318 275.248 227.088L279.423 229.498Z" fill="#FF00FF" fill-opacity="0.4"/>
<path d="M266.973 231.551L264.866 232.768" stroke="#FF00FF" stroke-linecap="round"/>
<path d="M282.775 222.428L280.668 223.644" stroke="#FF00FF" stroke-linecap="round"/>
<path d="M268.955 219.17L270.171 221.277" stroke="#FF00FF" stroke-linecap="round"/>
</g>
</g>
<defs>
<linearGradient id="paint0_linear_1649_90845" x1="1609.07" y1="40.8044" x2="-194.756" y2="3047.17" gradientUnits="userSpaceOnUse">
<stop stop-color="#2B9AF3"/>
<stop offset="1" stop-color="#73BCF7" stop-opacity="0.502213"/>
</linearGradient>
<linearGradient id="paint1_linear_1649_90845" x1="153.196" y1="-1415.07" x2="-2853.17" y2="388.756" gradientUnits="userSpaceOnUse">
<stop stop-color="#2B9AF3"/>
<stop offset="1" stop-color="#73BCF7" stop-opacity="0.502213"/>
</linearGradient>
<clipPath id="clip0_1649_90845">
<rect width="873" height="395" fill="white"/>
</clipPath>
</defs>
</svg>
