<svg width="346" height="252" viewBox="0 0 346 252" fill="none" xmlns="http://www.w3.org/2000/svg">
<g clip-path="url(#clip0_135_74673)">
<rect width="346" height="252" fill="white"/>
<rect width="374" height="69" transform="translate(0 43)" fill="white"/>
<mask id="path-1-inside-1_135_74673" fill="white">
<path d="M16 65C16 61.6863 18.6863 59 22 59H157C160.314 59 163 61.6863 163 65V90C163 93.3137 160.314 96 157 96H22C18.6863 96 16 93.3137 16 90V65Z"/>
</mask>
<path d="M16 65C16 61.6863 18.6863 59 22 59H157C160.314 59 163 61.6863 163 65V90C163 93.3137 160.314 96 157 96H22C18.6863 96 16 93.3137 16 90V65Z" fill="white"/>
<path d="M22 61H157V57H22V61ZM161 65V90H165V65H161ZM157 94H22V98H157V94ZM18 90V65H14V90H18ZM22 94C19.7909 94 18 92.2091 18 90H14C14 94.4183 17.5817 98 22 98V94ZM161 90C161 92.2091 159.209 94 157 94V98C161.418 98 165 94.4183 165 90H161ZM157 61C159.209 61 161 62.7909 161 65H165C165 60.5817 161.418 57 157 57V61ZM22 57C17.5817 57 14 60.5817 14 65H18C18 62.7909 19.7909 61 22 61V57Z" fill="#0066CC" mask="url(#path-1-inside-1_135_74673)"/>
<path fill-rule="evenodd" clip-rule="evenodd" d="M45.75 83.8432V76.6781L50.8071 71.6203C51.2193 71.2081 50.9272 70.5 50.3431 70.5H37.657C37.0741 70.5 36.78 71.2073 37.193 71.6203L42.25 76.6781V82.3125C42.25 82.5266 42.3545 82.7273 42.5299 82.8501L44.7174 84.3808C45.149 84.6829 45.75 84.3767 45.75 83.8432Z" fill="#1F1F1F"/>
<path d="M65.246 82V72.2H71.938V73.152H66.324V76.582H70.216V77.52H66.324V81.048H71.994V82H65.246ZM72.85 82L75.468 78.458L73.004 75.168H74.222L76.112 77.772L77.988 75.168H79.15L76.672 78.486L79.304 82H78.086L76.042 79.214L74.012 82H72.85ZM82.4492 82.126C81.9638 82.126 81.5345 82.0373 81.1612 81.86C80.7878 81.6827 80.4938 81.44 80.2792 81.132C80.0738 80.8147 79.9712 80.4507 79.9712 80.04C79.9712 79.6293 80.0785 79.2747 80.2932 78.976C80.5078 78.668 80.8065 78.43 81.1892 78.262C81.5718 78.094 82.0198 78.01 82.5332 78.01C82.9252 78.01 83.2938 78.052 83.6392 78.136C83.9938 78.22 84.3205 78.3553 84.6192 78.542V77.604C84.6192 77.044 84.4698 76.624 84.1712 76.344C83.8725 76.0547 83.4338 75.91 82.8552 75.91C82.5378 75.91 82.2112 75.9567 81.8752 76.05C81.5485 76.1433 81.1845 76.2927 80.7832 76.498L80.4052 75.714C81.3198 75.2753 82.1785 75.056 82.9812 75.056C83.8305 75.056 84.4838 75.266 84.9412 75.686C85.3985 76.0967 85.6272 76.6893 85.6272 77.464V82H84.6192V81.202C84.3205 81.51 83.9892 81.7433 83.6252 81.902C83.2612 82.0513 82.8692 82.126 82.4492 82.126ZM80.9512 80.012C80.9512 80.4133 81.1052 80.7353 81.4132 80.978C81.7305 81.2207 82.1458 81.342 82.6592 81.342C83.0418 81.342 83.3918 81.2767 83.7092 81.146C84.0358 81.0153 84.3392 80.8193 84.6192 80.558V79.242C84.3298 79.074 84.0312 78.9527 83.7232 78.878C83.4152 78.794 83.0698 78.752 82.6872 78.752C82.1645 78.752 81.7445 78.8687 81.4272 79.102C81.1098 79.326 80.9512 79.6293 80.9512 80.012ZM87.7043 82V75.168H88.7263V76.232C88.9876 75.84 89.2863 75.546 89.6223 75.35C89.9583 75.154 90.3363 75.056 90.7563 75.056C91.2416 75.056 91.6663 75.1773 92.0303 75.42C92.3943 75.6533 92.6696 75.9753 92.8563 76.386C93.127 75.9473 93.449 75.616 93.8223 75.392C94.205 75.168 94.6436 75.056 95.1383 75.056C95.5956 75.056 95.997 75.1633 96.3423 75.378C96.697 75.5927 96.9723 75.8913 97.1683 76.274C97.3643 76.6473 97.4623 77.086 97.4623 77.59V82H96.4403V77.842C96.4403 77.2447 96.291 76.7733 95.9923 76.428C95.6936 76.0827 95.283 75.91 94.7603 75.91C94.4056 75.91 94.0836 75.9987 93.7943 76.176C93.5143 76.3533 93.267 76.624 93.0523 76.988C93.071 77.0813 93.085 77.1793 93.0943 77.282C93.1036 77.3847 93.1083 77.4873 93.1083 77.59V82H92.0863V77.842C92.0863 77.2447 91.9323 76.7733 91.6243 76.428C91.3256 76.0827 90.915 75.91 90.3923 75.91C89.6923 75.91 89.137 76.246 88.7263 76.918V82H87.7043ZM99.5305 84.926V75.168H100.538V76.148C100.8 75.8027 101.117 75.5413 101.49 75.364C101.873 75.1773 102.293 75.084 102.75 75.084C103.348 75.084 103.88 75.2427 104.346 75.56C104.822 75.868 105.2 76.288 105.48 76.82C105.76 77.3427 105.9 77.9307 105.9 78.584C105.9 79.2373 105.756 79.83 105.466 80.362C105.186 80.894 104.804 81.3187 104.318 81.636C103.842 81.944 103.301 82.098 102.694 82.098C102.265 82.098 101.868 82.0187 101.504 81.86C101.14 81.692 100.823 81.454 100.552 81.146V84.926H99.5305ZM102.498 81.216C102.956 81.216 103.362 81.104 103.716 80.88C104.08 80.6467 104.365 80.334 104.57 79.942C104.785 79.5407 104.892 79.0927 104.892 78.598C104.892 78.094 104.785 77.646 104.57 77.254C104.365 76.862 104.08 76.554 103.716 76.33C103.362 76.0967 102.956 75.98 102.498 75.98C102.097 75.98 101.724 76.064 101.378 76.232C101.042 76.3907 100.767 76.6193 100.552 76.918V80.264C100.776 80.5627 101.056 80.796 101.392 80.964C101.738 81.132 102.106 81.216 102.498 81.216ZM107.693 82V71.892L108.715 71.682V82H107.693ZM113.89 82.14C113.255 82.14 112.681 81.986 112.168 81.678C111.654 81.3607 111.248 80.936 110.95 80.404C110.651 79.8627 110.502 79.256 110.502 78.584C110.502 77.912 110.642 77.31 110.922 76.778C111.211 76.246 111.598 75.826 112.084 75.518C112.569 75.21 113.11 75.056 113.708 75.056C114.314 75.056 114.851 75.21 115.318 75.518C115.794 75.8167 116.167 76.2273 116.438 76.75C116.718 77.2633 116.858 77.8467 116.858 78.5V78.808H111.496C111.533 79.2747 111.659 79.6947 111.874 80.068C112.098 80.432 112.387 80.7213 112.742 80.936C113.106 81.1413 113.502 81.244 113.932 81.244C114.286 81.244 114.627 81.1833 114.954 81.062C115.29 80.9313 115.574 80.7587 115.808 80.544L116.452 81.23C116.06 81.538 115.654 81.7667 115.234 81.916C114.814 82.0653 114.366 82.14 113.89 82.14ZM111.524 78.08H115.85C115.803 77.6693 115.677 77.3053 115.472 76.988C115.276 76.6613 115.024 76.4047 114.716 76.218C114.417 76.0313 114.081 75.938 113.708 75.938C113.334 75.938 112.994 76.0313 112.686 76.218C112.378 76.3953 112.121 76.6473 111.916 76.974C111.72 77.2913 111.589 77.66 111.524 78.08Z" fill="#151515"/>
<path fill-rule="evenodd" clip-rule="evenodd" d="M137.389 80.1714L140.921 76.6102C141.267 76.2615 141.023 75.6666 140.534 75.6666H133.466C132.977 75.6666 132.733 76.2615 133.079 76.6102L136.611 80.1714C136.826 80.3872 137.174 80.3872 137.389 80.1714Z" fill="#1F1F1F"/>
<mask id="path-6-inside-2_135_74673" fill="white">
<path d="M167 65C167 61.6863 169.686 59 173 59H325C328.314 59 331 61.6863 331 65V90C331 93.3137 328.314 96 325 96H173C169.686 96 167 93.3137 167 90V65Z"/>
</mask>
<path d="M167 65C167 61.6863 169.686 59 173 59H325C328.314 59 331 61.6863 331 65V90C331 93.3137 328.314 96 325 96H173C169.686 96 167 93.3137 167 90V65Z" fill="white"/>
<path d="M173 60H325V58H173V60ZM330 65V90H332V65H330ZM325 95H173V97H325V95ZM168 90V65H166V90H168ZM173 95C170.239 95 168 92.7614 168 90H166C166 93.866 169.134 97 173 97V95ZM330 90C330 92.7614 327.761 95 325 95V97C328.866 97 332 93.866 332 90H330ZM325 60C327.761 60 330 62.2386 330 65H332C332 61.134 328.866 58 325 58V60ZM173 58C169.134 58 166 61.134 166 65H168C168 62.2386 170.239 60 173 60V58Z" fill="#C7C7C7" mask="url(#path-6-inside-2_135_74673)"/>
<path fill-rule="evenodd" clip-rule="evenodd" d="M196.75 83.8432V76.6781L201.807 71.6203C202.219 71.2081 201.927 70.5 201.343 70.5H188.657C188.074 70.5 187.78 71.2073 188.193 71.6203L193.25 76.6781V82.3125C193.25 82.5266 193.354 82.7273 193.53 82.8501L195.717 84.3808C196.149 84.6829 196.75 84.3767 196.75 83.8432Z" fill="#1F1F1F"/>
<path d="M215.126 82L219.004 72.2H220.292L224.114 82H222.952L221.79 78.92H217.422L216.26 82H215.126ZM217.758 78.066H221.468L219.606 73.18L217.758 78.066ZM225.292 82V71.892L226.314 71.682V82H225.292ZM228.409 82V71.892L229.431 71.682V82H228.409ZM236.908 82.14C236.348 82.14 235.83 82.056 235.354 81.888C234.878 81.7107 234.472 81.4587 234.136 81.132L234.682 80.46C235.093 80.7587 235.471 80.978 235.816 81.118C236.161 81.2487 236.516 81.314 236.88 81.314C237.375 81.314 237.785 81.1973 238.112 80.964C238.439 80.7307 238.602 80.432 238.602 80.068C238.602 79.788 238.504 79.5687 238.308 79.41C238.121 79.2513 237.809 79.13 237.37 79.046L236.25 78.85C235.587 78.7287 235.097 78.5233 234.78 78.234C234.472 77.9447 234.318 77.5527 234.318 77.058C234.318 76.666 234.421 76.3207 234.626 76.022C234.841 75.7233 235.135 75.49 235.508 75.322C235.881 75.1447 236.306 75.056 236.782 75.056C237.249 75.056 237.692 75.126 238.112 75.266C238.532 75.3967 238.957 75.6113 239.386 75.91L238.882 76.624C238.527 76.372 238.173 76.19 237.818 76.078C237.463 75.9567 237.104 75.896 236.74 75.896C236.292 75.896 235.933 75.994 235.662 76.19C235.391 76.386 235.256 76.652 235.256 76.988C235.256 77.268 235.34 77.4827 235.508 77.632C235.685 77.7813 235.993 77.8933 236.432 77.968L237.58 78.178C238.271 78.2993 238.775 78.5093 239.092 78.808C239.409 79.1067 239.568 79.508 239.568 80.012C239.568 80.4133 239.451 80.7773 239.218 81.104C238.985 81.4213 238.667 81.6733 238.266 81.86C237.865 82.0467 237.412 82.14 236.908 82.14ZM243.592 82.14C243.004 82.14 242.556 82 242.248 81.72C241.949 81.4307 241.8 81.0153 241.8 80.474V76.008H240.386V75.168H241.8V73.292L242.822 73.054V75.168H244.782V76.008H242.822V80.208C242.822 80.572 242.896 80.8333 243.046 80.992C243.204 81.1507 243.461 81.23 243.816 81.23C243.993 81.23 244.152 81.216 244.292 81.188C244.432 81.16 244.595 81.1133 244.782 81.048V81.958C244.595 82.0233 244.399 82.07 244.194 82.098C243.988 82.126 243.788 82.14 243.592 82.14ZM248.393 82.126C247.907 82.126 247.478 82.0373 247.105 81.86C246.731 81.6827 246.437 81.44 246.223 81.132C246.017 80.8147 245.915 80.4507 245.915 80.04C245.915 79.6293 246.022 79.2747 246.237 78.976C246.451 78.668 246.75 78.43 247.133 78.262C247.515 78.094 247.963 78.01 248.477 78.01C248.869 78.01 249.237 78.052 249.583 78.136C249.937 78.22 250.264 78.3553 250.563 78.542V77.604C250.563 77.044 250.413 76.624 250.115 76.344C249.816 76.0547 249.377 75.91 248.799 75.91C248.481 75.91 248.155 75.9567 247.819 76.05C247.492 76.1433 247.128 76.2927 246.727 76.498L246.349 75.714C247.263 75.2753 248.122 75.056 248.925 75.056C249.774 75.056 250.427 75.266 250.885 75.686C251.342 76.0967 251.571 76.6893 251.571 77.464V82H250.563V81.202C250.264 81.51 249.933 81.7433 249.569 81.902C249.205 82.0513 248.813 82.126 248.393 82.126ZM246.895 80.012C246.895 80.4133 247.049 80.7353 247.357 80.978C247.674 81.2207 248.089 81.342 248.603 81.342C248.985 81.342 249.335 81.2767 249.653 81.146C249.979 81.0153 250.283 80.8193 250.563 80.558V79.242C250.273 79.074 249.975 78.9527 249.667 78.878C249.359 78.794 249.013 78.752 248.631 78.752C248.108 78.752 247.688 78.8687 247.371 79.102C247.053 79.326 246.895 79.6293 246.895 80.012ZM256.047 82.14C255.459 82.14 255.011 82 254.703 81.72C254.404 81.4307 254.255 81.0153 254.255 80.474V76.008H252.841V75.168H254.255V73.292L255.277 73.054V75.168H257.237V76.008H255.277V80.208C255.277 80.572 255.351 80.8333 255.501 80.992C255.659 81.1507 255.916 81.23 256.271 81.23C256.448 81.23 256.607 81.216 256.747 81.188C256.887 81.16 257.05 81.1133 257.237 81.048V81.958C257.05 82.0233 256.854 82.07 256.649 82.098C256.443 82.126 256.243 82.14 256.047 82.14ZM261.17 82.112C260.684 82.112 260.255 82.0047 259.882 81.79C259.508 81.5753 259.214 81.2767 259 80.894C258.794 80.5113 258.692 80.0727 258.692 79.578V75.168H259.728V79.284C259.728 79.8907 259.891 80.3713 260.218 80.726C260.544 81.0807 260.988 81.258 261.548 81.258C261.93 81.258 262.271 81.1693 262.57 80.992C262.878 80.8147 263.134 80.558 263.34 80.222V75.168H264.362V82H263.34V80.894C263.078 81.2953 262.766 81.5987 262.402 81.804C262.047 82.0093 261.636 82.112 261.17 82.112ZM268.572 82.14C268.012 82.14 267.494 82.056 267.018 81.888C266.542 81.7107 266.136 81.4587 265.8 81.132L266.346 80.46C266.757 80.7587 267.135 80.978 267.48 81.118C267.826 81.2487 268.18 81.314 268.544 81.314C269.039 81.314 269.45 81.1973 269.776 80.964C270.103 80.7307 270.266 80.432 270.266 80.068C270.266 79.788 270.168 79.5687 269.972 79.41C269.786 79.2513 269.473 79.13 269.034 79.046L267.914 78.85C267.252 78.7287 266.762 78.5233 266.444 78.234C266.136 77.9447 265.982 77.5527 265.982 77.058C265.982 76.666 266.085 76.3207 266.29 76.022C266.505 75.7233 266.799 75.49 267.172 75.322C267.546 75.1447 267.97 75.056 268.446 75.056C268.913 75.056 269.356 75.126 269.776 75.266C270.196 75.3967 270.621 75.6113 271.05 75.91L270.546 76.624C270.192 76.372 269.837 76.19 269.482 76.078C269.128 75.9567 268.768 75.896 268.404 75.896C267.956 75.896 267.597 75.994 267.326 76.19C267.056 76.386 266.92 76.652 266.92 76.988C266.92 77.268 267.004 77.4827 267.172 77.632C267.35 77.7813 267.658 77.8933 268.096 77.968L269.244 78.178C269.935 78.2993 270.439 78.5093 270.756 78.808C271.074 79.1067 271.232 79.508 271.232 80.012C271.232 80.4133 271.116 80.7773 270.882 81.104C270.649 81.4213 270.332 81.6733 269.93 81.86C269.529 82.0467 269.076 82.14 268.572 82.14ZM275.937 82.14C275.302 82.14 274.728 81.986 274.215 81.678C273.701 81.3607 273.295 80.936 272.997 80.404C272.698 79.8627 272.549 79.256 272.549 78.584C272.549 77.912 272.689 77.31 272.969 76.778C273.258 76.246 273.645 75.826 274.131 75.518C274.616 75.21 275.157 75.056 275.755 75.056C276.361 75.056 276.898 75.21 277.365 75.518C277.841 75.8167 278.214 76.2273 278.485 76.75C278.765 77.2633 278.905 77.8467 278.905 78.5V78.808H273.543C273.58 79.2747 273.706 79.6947 273.921 80.068C274.145 80.432 274.434 80.7213 274.789 80.936C275.153 81.1413 275.549 81.244 275.979 81.244C276.333 81.244 276.674 81.1833 277.001 81.062C277.337 80.9313 277.621 80.7587 277.855 80.544L278.499 81.23C278.107 81.538 277.701 81.7667 277.281 81.916C276.861 82.0653 276.413 82.14 275.937 82.14ZM273.571 78.08H277.897C277.85 77.6693 277.724 77.3053 277.519 76.988C277.323 76.6613 277.071 76.4047 276.763 76.218C276.464 76.0313 276.128 75.938 275.755 75.938C275.381 75.938 275.041 76.0313 274.733 76.218C274.425 76.3953 274.168 76.6473 273.963 76.974C273.767 77.2913 273.636 77.66 273.571 78.08ZM282.832 82.14C282.272 82.14 281.754 82.056 281.278 81.888C280.802 81.7107 280.396 81.4587 280.06 81.132L280.606 80.46C281.017 80.7587 281.395 80.978 281.74 81.118C282.085 81.2487 282.44 81.314 282.804 81.314C283.299 81.314 283.709 81.1973 284.036 80.964C284.363 80.7307 284.526 80.432 284.526 80.068C284.526 79.788 284.428 79.5687 284.232 79.41C284.045 79.2513 283.733 79.13 283.294 79.046L282.174 78.85C281.511 78.7287 281.021 78.5233 280.704 78.234C280.396 77.9447 280.242 77.5527 280.242 77.058C280.242 76.666 280.345 76.3207 280.55 76.022C280.765 75.7233 281.059 75.49 281.432 75.322C281.805 75.1447 282.23 75.056 282.706 75.056C283.173 75.056 283.616 75.126 284.036 75.266C284.456 75.3967 284.881 75.6113 285.31 75.91L284.806 76.624C284.451 76.372 284.097 76.19 283.742 76.078C283.387 75.9567 283.028 75.896 282.664 75.896C282.216 75.896 281.857 75.994 281.586 76.19C281.315 76.386 281.18 76.652 281.18 76.988C281.18 77.268 281.264 77.4827 281.432 77.632C281.609 77.7813 281.917 77.8933 282.356 77.968L283.504 78.178C284.195 78.2993 284.699 78.5093 285.016 78.808C285.333 79.1067 285.492 79.508 285.492 80.012C285.492 80.4133 285.375 80.7773 285.142 81.104C284.909 81.4213 284.591 81.6733 284.19 81.86C283.789 82.0467 283.336 82.14 282.832 82.14Z" fill="#151515"/>
<path fill-rule="evenodd" clip-rule="evenodd" d="M305.389 80.1714L308.921 76.6102C309.267 76.2615 309.023 75.6666 308.534 75.6666H301.466C300.977 75.6666 300.733 76.2615 301.079 76.6102L304.611 80.1714C304.826 80.3872 305.174 80.3872 305.389 80.1714Z" fill="#1F1F1F"/>
<g filter="url(#filter0_d_135_74673)">
<path d="M16 102C16 98.6863 18.6863 96 22 96H153C156.314 96 159 98.6863 159 102V235C159 238.314 156.314 241 153 241H22C18.6863 241 16 238.314 16 235V102Z" fill="white"/>
<path d="M40.126 127L44.004 117.2H45.292L49.114 127H47.952L46.79 123.92H42.422L41.26 127H40.126ZM42.758 123.066H46.468L44.606 118.18L42.758 123.066ZM50.2922 127V116.892L51.3142 116.682V127H50.2922ZM53.4094 127V116.892L54.4314 116.682V127H53.4094ZM59.7941 127V120.168H60.8161V121.568C60.9935 121.092 61.2455 120.723 61.5721 120.462C61.9081 120.191 62.2908 120.056 62.7201 120.056C62.8415 120.056 62.9535 120.065 63.0561 120.084C63.1588 120.093 63.2615 120.117 63.3641 120.154V121.078C63.2521 121.041 63.1308 121.013 63.0001 120.994C62.8788 120.966 62.7621 120.952 62.6501 120.952C62.2301 120.952 61.8615 121.073 61.5441 121.316C61.2361 121.559 60.9935 121.899 60.8161 122.338V127H59.7941ZM67.3722 127.14C66.7375 127.14 66.1635 126.986 65.6502 126.678C65.1369 126.361 64.7309 125.936 64.4322 125.404C64.1335 124.863 63.9842 124.256 63.9842 123.584C63.9842 122.912 64.1242 122.31 64.4042 121.778C64.6935 121.246 65.0809 120.826 65.5662 120.518C66.0515 120.21 66.5929 120.056 67.1902 120.056C67.7969 120.056 68.3335 120.21 68.8002 120.518C69.2762 120.817 69.6495 121.227 69.9202 121.75C70.2002 122.263 70.3402 122.847 70.3402 123.5V123.808H64.9782C65.0155 124.275 65.1415 124.695 65.3562 125.068C65.5802 125.432 65.8695 125.721 66.2242 125.936C66.5882 126.141 66.9849 126.244 67.4142 126.244C67.7689 126.244 68.1095 126.183 68.4362 126.062C68.7722 125.931 69.0569 125.759 69.2902 125.544L69.9342 126.23C69.5422 126.538 69.1362 126.767 68.7162 126.916C68.2962 127.065 67.8482 127.14 67.3722 127.14ZM65.0062 123.08H69.3322C69.2855 122.669 69.1595 122.305 68.9542 121.988C68.7582 121.661 68.5062 121.405 68.1982 121.218C67.8995 121.031 67.5635 120.938 67.1902 120.938C66.8169 120.938 66.4762 121.031 66.1682 121.218C65.8602 121.395 65.6035 121.647 65.3982 121.974C65.2022 122.291 65.0715 122.66 65.0062 123.08ZM74.2675 127.14C73.7075 127.14 73.1895 127.056 72.7135 126.888C72.2375 126.711 71.8315 126.459 71.4955 126.132L72.0415 125.46C72.4522 125.759 72.8302 125.978 73.1755 126.118C73.5208 126.249 73.8755 126.314 74.2395 126.314C74.7342 126.314 75.1448 126.197 75.4715 125.964C75.7982 125.731 75.9615 125.432 75.9615 125.068C75.9615 124.788 75.8635 124.569 75.6675 124.41C75.4808 124.251 75.1682 124.13 74.7295 124.046L73.6095 123.85C72.9468 123.729 72.4568 123.523 72.1395 123.234C71.8315 122.945 71.6775 122.553 71.6775 122.058C71.6775 121.666 71.7802 121.321 71.9855 121.022C72.2002 120.723 72.4942 120.49 72.8675 120.322C73.2408 120.145 73.6655 120.056 74.1415 120.056C74.6082 120.056 75.0515 120.126 75.4715 120.266C75.8915 120.397 76.3162 120.611 76.7455 120.91L76.2415 121.624C75.8868 121.372 75.5322 121.19 75.1775 121.078C74.8228 120.957 74.4635 120.896 74.0995 120.896C73.6515 120.896 73.2922 120.994 73.0215 121.19C72.7508 121.386 72.6155 121.652 72.6155 121.988C72.6155 122.268 72.6995 122.483 72.8675 122.632C73.0448 122.781 73.3528 122.893 73.7915 122.968L74.9395 123.178C75.6302 123.299 76.1342 123.509 76.4515 123.808C76.7688 124.107 76.9275 124.508 76.9275 125.012C76.9275 125.413 76.8108 125.777 76.5775 126.104C76.3442 126.421 76.0268 126.673 75.6255 126.86C75.2242 127.047 74.7715 127.14 74.2675 127.14ZM81.576 127.112C80.9413 127.112 80.372 126.958 79.868 126.65C79.364 126.342 78.9673 125.922 78.678 125.39C78.3886 124.858 78.244 124.256 78.244 123.584C78.244 122.912 78.3886 122.31 78.678 121.778C78.9673 121.246 79.364 120.826 79.868 120.518C80.372 120.21 80.9413 120.056 81.576 120.056C82.2013 120.056 82.7613 120.21 83.256 120.518C83.76 120.826 84.1566 121.246 84.446 121.778C84.7353 122.31 84.88 122.912 84.88 123.584C84.88 124.256 84.7353 124.858 84.446 125.39C84.1566 125.922 83.76 126.342 83.256 126.65C82.7613 126.958 82.2013 127.112 81.576 127.112ZM81.562 126.216C82.01 126.216 82.4066 126.104 82.752 125.88C83.0973 125.647 83.368 125.329 83.564 124.928C83.7693 124.527 83.872 124.079 83.872 123.584C83.872 123.08 83.7693 122.632 83.564 122.24C83.368 121.839 83.0973 121.526 82.752 121.302C82.4066 121.069 82.01 120.952 81.562 120.952C81.114 120.952 80.7173 121.069 80.372 121.302C80.0266 121.526 79.7513 121.839 79.546 122.24C79.35 122.632 79.252 123.08 79.252 123.584C79.252 124.079 79.35 124.527 79.546 124.928C79.7513 125.329 80.0266 125.647 80.372 125.88C80.7173 126.104 81.114 126.216 81.562 126.216ZM89.109 127.112C88.6237 127.112 88.1944 127.005 87.821 126.79C87.4477 126.575 87.1537 126.277 86.939 125.894C86.7337 125.511 86.631 125.073 86.631 124.578V120.168H87.667V124.284C87.667 124.891 87.8304 125.371 88.157 125.726C88.4837 126.081 88.927 126.258 89.487 126.258C89.8697 126.258 90.2104 126.169 90.509 125.992C90.817 125.815 91.0737 125.558 91.279 125.222V120.168H92.301V127H91.279V125.894C91.0177 126.295 90.705 126.599 90.341 126.804C89.9864 127.009 89.5757 127.112 89.109 127.112ZM94.3977 127V120.168H95.4197V121.568C95.597 121.092 95.849 120.723 96.1757 120.462C96.5117 120.191 96.8943 120.056 97.3237 120.056C97.445 120.056 97.557 120.065 97.6597 120.084C97.7623 120.093 97.865 120.117 97.9677 120.154V121.078C97.8557 121.041 97.7343 121.013 97.6037 120.994C97.4823 120.966 97.3657 120.952 97.2537 120.952C96.8337 120.952 96.465 121.073 96.1477 121.316C95.8397 121.559 95.597 121.899 95.4197 122.338V127H94.3977ZM101.962 127.112C101.327 127.112 100.753 126.958 100.24 126.65C99.7357 126.333 99.3344 125.908 99.0357 125.376C98.737 124.835 98.5877 124.237 98.5877 123.584C98.5877 122.921 98.737 122.324 99.0357 121.792C99.3344 121.26 99.7357 120.84 100.24 120.532C100.753 120.215 101.327 120.056 101.962 120.056C102.466 120.056 102.946 120.149 103.404 120.336C103.861 120.523 104.258 120.784 104.594 121.12L103.936 121.834C103.693 121.563 103.399 121.353 103.054 121.204C102.708 121.055 102.358 120.98 102.004 120.98C101.556 120.98 101.15 121.097 100.786 121.33C100.431 121.563 100.146 121.876 99.9317 122.268C99.717 122.66 99.6097 123.099 99.6097 123.584C99.6097 124.069 99.717 124.508 99.9317 124.9C100.146 125.292 100.431 125.605 100.786 125.838C101.15 126.071 101.556 126.188 102.004 126.188C102.358 126.188 102.708 126.113 103.054 125.964C103.399 125.805 103.693 125.595 103.936 125.334L104.594 126.048C104.258 126.384 103.861 126.645 103.404 126.832C102.946 127.019 102.466 127.112 101.962 127.112ZM108.894 127.14C108.259 127.14 107.685 126.986 107.172 126.678C106.658 126.361 106.252 125.936 105.954 125.404C105.655 124.863 105.506 124.256 105.506 123.584C105.506 122.912 105.646 122.31 105.926 121.778C106.215 121.246 106.602 120.826 107.088 120.518C107.573 120.21 108.114 120.056 108.712 120.056C109.318 120.056 109.855 120.21 110.322 120.518C110.798 120.817 111.171 121.227 111.442 121.75C111.722 122.263 111.862 122.847 111.862 123.5V123.808H106.5C106.537 124.275 106.663 124.695 106.878 125.068C107.102 125.432 107.391 125.721 107.746 125.936C108.11 126.141 108.506 126.244 108.936 126.244C109.29 126.244 109.631 126.183 109.958 126.062C110.294 125.931 110.578 125.759 110.812 125.544L111.456 126.23C111.064 126.538 110.658 126.767 110.238 126.916C109.818 127.065 109.37 127.14 108.894 127.14ZM106.528 123.08H110.854C110.807 122.669 110.681 122.305 110.476 121.988C110.28 121.661 110.028 121.405 109.72 121.218C109.421 121.031 109.085 120.938 108.712 120.938C108.338 120.938 107.998 121.031 107.69 121.218C107.382 121.395 107.125 121.647 106.92 121.974C106.724 122.291 106.593 122.66 106.528 123.08ZM115.789 127.14C115.229 127.14 114.711 127.056 114.235 126.888C113.759 126.711 113.353 126.459 113.017 126.132L113.563 125.46C113.974 125.759 114.352 125.978 114.697 126.118C115.042 126.249 115.397 126.314 115.761 126.314C116.256 126.314 116.666 126.197 116.993 125.964C117.32 125.731 117.483 125.432 117.483 125.068C117.483 124.788 117.385 124.569 117.189 124.41C117.002 124.251 116.69 124.13 116.251 124.046L115.131 123.85C114.468 123.729 113.978 123.523 113.661 123.234C113.353 122.945 113.199 122.553 113.199 122.058C113.199 121.666 113.302 121.321 113.507 121.022C113.722 120.723 114.016 120.49 114.389 120.322C114.762 120.145 115.187 120.056 115.663 120.056C116.13 120.056 116.573 120.126 116.993 120.266C117.413 120.397 117.838 120.611 118.267 120.91L117.763 121.624C117.408 121.372 117.054 121.19 116.699 121.078C116.344 120.957 115.985 120.896 115.621 120.896C115.173 120.896 114.814 120.994 114.543 121.19C114.272 121.386 114.137 121.652 114.137 121.988C114.137 122.268 114.221 122.483 114.389 122.632C114.566 122.781 114.874 122.893 115.313 122.968L116.461 123.178C117.152 123.299 117.656 123.509 117.973 123.808C118.29 124.107 118.449 124.508 118.449 125.012C118.449 125.413 118.332 125.777 118.099 126.104C117.866 126.421 117.548 126.673 117.147 126.86C116.746 127.047 116.293 127.14 115.789 127.14Z" fill="#1F1F1F"/>
<path d="M41.246 169V159.2H47.938V160.152H42.324V163.582H46.216V164.52H42.324V168.048H47.994V169H41.246ZM48.85 169L51.468 165.458L49.004 162.168H50.222L52.112 164.772L53.988 162.168H55.15L52.672 165.486L55.304 169H54.086L52.042 166.214L50.012 169H48.85ZM58.4492 169.126C57.9638 169.126 57.5345 169.037 57.1612 168.86C56.7878 168.683 56.4938 168.44 56.2792 168.132C56.0738 167.815 55.9712 167.451 55.9712 167.04C55.9712 166.629 56.0785 166.275 56.2932 165.976C56.5078 165.668 56.8065 165.43 57.1892 165.262C57.5718 165.094 58.0198 165.01 58.5332 165.01C58.9252 165.01 59.2938 165.052 59.6392 165.136C59.9938 165.22 60.3205 165.355 60.6192 165.542V164.604C60.6192 164.044 60.4698 163.624 60.1712 163.344C59.8725 163.055 59.4338 162.91 58.8552 162.91C58.5378 162.91 58.2112 162.957 57.8752 163.05C57.5485 163.143 57.1845 163.293 56.7832 163.498L56.4052 162.714C57.3198 162.275 58.1785 162.056 58.9812 162.056C59.8305 162.056 60.4838 162.266 60.9412 162.686C61.3985 163.097 61.6272 163.689 61.6272 164.464V169H60.6192V168.202C60.3205 168.51 59.9892 168.743 59.6252 168.902C59.2612 169.051 58.8692 169.126 58.4492 169.126ZM56.9512 167.012C56.9512 167.413 57.1052 167.735 57.4132 167.978C57.7305 168.221 58.1458 168.342 58.6592 168.342C59.0418 168.342 59.3918 168.277 59.7092 168.146C60.0358 168.015 60.3392 167.819 60.6192 167.558V166.242C60.3298 166.074 60.0312 165.953 59.7232 165.878C59.4152 165.794 59.0698 165.752 58.6872 165.752C58.1645 165.752 57.7445 165.869 57.4272 166.102C57.1098 166.326 56.9512 166.629 56.9512 167.012ZM63.7043 169V162.168H64.7263V163.232C64.9876 162.84 65.2863 162.546 65.6223 162.35C65.9583 162.154 66.3363 162.056 66.7563 162.056C67.2416 162.056 67.6663 162.177 68.0303 162.42C68.3943 162.653 68.6696 162.975 68.8563 163.386C69.127 162.947 69.449 162.616 69.8223 162.392C70.205 162.168 70.6436 162.056 71.1383 162.056C71.5956 162.056 71.997 162.163 72.3423 162.378C72.697 162.593 72.9723 162.891 73.1683 163.274C73.3643 163.647 73.4623 164.086 73.4623 164.59V169H72.4403V164.842C72.4403 164.245 72.291 163.773 71.9923 163.428C71.6936 163.083 71.283 162.91 70.7603 162.91C70.4056 162.91 70.0836 162.999 69.7943 163.176C69.5143 163.353 69.267 163.624 69.0523 163.988C69.071 164.081 69.085 164.179 69.0943 164.282C69.1036 164.385 69.1083 164.487 69.1083 164.59V169H68.0863V164.842C68.0863 164.245 67.9323 163.773 67.6243 163.428C67.3256 163.083 66.915 162.91 66.3923 162.91C65.6923 162.91 65.137 163.246 64.7263 163.918V169H63.7043ZM75.5305 171.926V162.168H76.5385V163.148C76.7998 162.803 77.1171 162.541 77.4905 162.364C77.8731 162.177 78.2931 162.084 78.7505 162.084C79.3478 162.084 79.8798 162.243 80.3465 162.56C80.8225 162.868 81.2005 163.288 81.4805 163.82C81.7605 164.343 81.9005 164.931 81.9005 165.584C81.9005 166.237 81.7558 166.83 81.4665 167.362C81.1865 167.894 80.8038 168.319 80.3185 168.636C79.8425 168.944 79.3011 169.098 78.6945 169.098C78.2651 169.098 77.8685 169.019 77.5045 168.86C77.1405 168.692 76.8231 168.454 76.5525 168.146V171.926H75.5305ZM78.4985 168.216C78.9558 168.216 79.3618 168.104 79.7165 167.88C80.0805 167.647 80.3651 167.334 80.5705 166.942C80.7851 166.541 80.8925 166.093 80.8925 165.598C80.8925 165.094 80.7851 164.646 80.5705 164.254C80.3651 163.862 80.0805 163.554 79.7165 163.33C79.3618 163.097 78.9558 162.98 78.4985 162.98C78.0971 162.98 77.7238 163.064 77.3785 163.232C77.0425 163.391 76.7671 163.619 76.5525 163.918V167.264C76.7765 167.563 77.0565 167.796 77.3925 167.964C77.7378 168.132 78.1065 168.216 78.4985 168.216ZM83.6926 169V158.892L84.7146 158.682V169H83.6926ZM89.8898 169.14C89.2551 169.14 88.6811 168.986 88.1678 168.678C87.6544 168.361 87.2484 167.936 86.9498 167.404C86.6511 166.863 86.5018 166.256 86.5018 165.584C86.5018 164.912 86.6418 164.31 86.9218 163.778C87.2111 163.246 87.5984 162.826 88.0838 162.518C88.5691 162.21 89.1104 162.056 89.7078 162.056C90.3144 162.056 90.8511 162.21 91.3178 162.518C91.7938 162.817 92.1671 163.227 92.4378 163.75C92.7178 164.263 92.8578 164.847 92.8578 165.5V165.808H87.4958C87.5331 166.275 87.6591 166.695 87.8738 167.068C88.0978 167.432 88.3871 167.721 88.7418 167.936C89.1058 168.141 89.5024 168.244 89.9318 168.244C90.2864 168.244 90.6271 168.183 90.9538 168.062C91.2898 167.931 91.5744 167.759 91.8078 167.544L92.4518 168.23C92.0598 168.538 91.6538 168.767 91.2338 168.916C90.8138 169.065 90.3658 169.14 89.8898 169.14ZM87.5238 165.08H91.8498C91.8031 164.669 91.6771 164.305 91.4718 163.988C91.2758 163.661 91.0238 163.405 90.7158 163.218C90.4171 163.031 90.0811 162.938 89.7078 162.938C89.3344 162.938 88.9938 163.031 88.6858 163.218C88.3778 163.395 88.1211 163.647 87.9158 163.974C87.7198 164.291 87.5891 164.66 87.5238 165.08Z" fill="#1F1F1F"/>
<path d="M41.246 215V205.2H47.938V206.152H42.324V209.652H46.16V210.59H42.324V215H41.246ZM49.3758 215V208.168H50.3978V215H49.3758ZM49.8938 206.474C49.6885 206.474 49.5112 206.404 49.3618 206.264C49.2218 206.115 49.1518 205.942 49.1518 205.746C49.1518 205.55 49.2218 205.382 49.3618 205.242C49.5112 205.093 49.6885 205.018 49.8938 205.018C50.0992 205.018 50.2718 205.093 50.4118 205.242C50.5612 205.382 50.6358 205.55 50.6358 205.746C50.6358 205.942 50.5612 206.115 50.4118 206.264C50.2718 206.404 50.0992 206.474 49.8938 206.474ZM52.4934 215V208.168H53.5154V209.274C53.7767 208.863 54.0894 208.56 54.4534 208.364C54.8174 208.159 55.228 208.056 55.6854 208.056C56.18 208.056 56.6094 208.163 56.9734 208.378C57.3467 208.583 57.636 208.877 57.8414 209.26C58.056 209.633 58.1634 210.072 58.1634 210.576V215H57.1414V210.87C57.1414 210.263 56.9734 209.787 56.6374 209.442C56.3107 209.087 55.8674 208.91 55.3074 208.91C54.934 208.91 54.5934 208.999 54.2854 209.176C53.9774 209.353 53.7207 209.615 53.5154 209.96V215H52.4934ZM62.332 215.126C61.8466 215.126 61.4173 215.037 61.044 214.86C60.6706 214.683 60.3766 214.44 60.162 214.132C59.9566 213.815 59.854 213.451 59.854 213.04C59.854 212.629 59.9613 212.275 60.176 211.976C60.3906 211.668 60.6893 211.43 61.072 211.262C61.4546 211.094 61.9026 211.01 62.416 211.01C62.808 211.01 63.1766 211.052 63.522 211.136C63.8766 211.22 64.2033 211.355 64.502 211.542V210.604C64.502 210.044 64.3526 209.624 64.054 209.344C63.7553 209.055 63.3166 208.91 62.738 208.91C62.4206 208.91 62.094 208.957 61.758 209.05C61.4313 209.143 61.0673 209.293 60.666 209.498L60.288 208.714C61.2026 208.275 62.0613 208.056 62.864 208.056C63.7133 208.056 64.3666 208.266 64.824 208.686C65.2813 209.097 65.51 209.689 65.51 210.464V215H64.502V214.202C64.2033 214.51 63.872 214.743 63.508 214.902C63.144 215.051 62.752 215.126 62.332 215.126ZM60.834 213.012C60.834 213.413 60.988 213.735 61.296 213.978C61.6133 214.221 62.0286 214.342 62.542 214.342C62.9246 214.342 63.2746 214.277 63.592 214.146C63.9186 214.015 64.222 213.819 64.502 213.558V212.242C64.2126 212.074 63.914 211.953 63.606 211.878C63.298 211.794 62.9526 211.752 62.57 211.752C62.0473 211.752 61.6273 211.869 61.31 212.102C60.9926 212.326 60.834 212.629 60.834 213.012ZM67.5871 215V204.892L68.6091 204.682V215H67.5871Z" fill="#1F1F1F"/>
<path fill-rule="evenodd" clip-rule="evenodd" d="M118.745 214.985L126.795 206.935C127.068 206.662 127.068 206.218 126.795 205.945L125.805 204.955C125.532 204.682 125.088 204.682 124.815 204.955L118.25 211.52L115.185 208.455C114.912 208.182 114.468 208.182 114.195 208.455L113.205 209.445C112.932 209.718 112.932 210.162 113.205 210.435L117.755 214.985C118.028 215.258 118.472 215.258 118.745 214.985Z" fill="#0066CC"/>
</g>
<path d="M67.5 15C67.5 12.7909 69.2909 11 71.5 11H101.5C103.709 11 105.5 12.7909 105.5 15V39C105.5 41.2091 103.709 43 101.5 43H71.5C69.2909 43 67.5 41.2091 67.5 39V15Z" fill="#C806CC"/>
<path d="M86.3879 33V22.254L84.1199 23.208V21.624L87.0359 20.4H88.1699V33H86.3879Z" fill="white"/>
<path d="M86.5 56.3333C85.0272 56.3333 83.8333 57.5272 83.8333 59C83.8333 60.4728 85.0272 61.6667 86.5 61.6667C87.9728 61.6667 89.1667 60.4728 89.1667 59C89.1667 57.5272 87.9728 56.3333 86.5 56.3333ZM86 43L86 59L87 59L87 43L86 43Z" fill="#C806CC"/>
<path d="M227.5 15C227.5 12.7909 229.291 11 231.5 11H265.5C267.709 11 269.5 12.7909 269.5 15V39C269.5 41.2091 267.709 43 265.5 43H231.5C229.291 43 227.5 41.2091 227.5 39V15Z" fill="#C806CC"/>
<path d="M244.39 33V31.74L249.502 26.304C250.018 25.764 250.366 25.302 250.546 24.918C250.738 24.534 250.834 24.126 250.834 23.694C250.834 23.13 250.606 22.662 250.15 22.29C249.694 21.918 249.118 21.732 248.422 21.732C247.846 21.732 247.306 21.846 246.802 22.074C246.298 22.302 245.74 22.698 245.128 23.262L244.156 22.074C245.488 20.826 246.922 20.202 248.458 20.202C249.262 20.202 249.97 20.346 250.582 20.634C251.194 20.922 251.668 21.324 252.004 21.84C252.352 22.344 252.526 22.926 252.526 23.586C252.526 24.006 252.472 24.396 252.364 24.756C252.256 25.104 252.07 25.476 251.806 25.872C251.542 26.256 251.17 26.7 250.69 27.204L246.586 31.524L252.778 31.506V33H244.39Z" fill="white"/>
<path d="M248.5 56.3333C247.027 56.3333 245.833 57.5272 245.833 59C245.833 60.4728 247.027 61.6667 248.5 61.6667C249.973 61.6667 251.167 60.4728 251.167 59C251.167 57.5272 249.973 56.3333 248.5 56.3333ZM248 43L248 59L249 59L249 43L248 43Z" fill="#C806CC"/>
</g>
<defs>
<filter id="filter0_d_135_74673" x="7" y="91" width="161" height="163" filterUnits="userSpaceOnUse" color-interpolation-filters="sRGB">
<feFlood flood-opacity="0" result="BackgroundImageFix"/>
<feColorMatrix in="SourceAlpha" type="matrix" values="0 0 0 0 0 0 0 0 0 0 0 0 0 0 0 0 0 0 127 0" result="hardAlpha"/>
<feOffset dy="4"/>
<feGaussianBlur stdDeviation="4.5"/>
<feColorMatrix type="matrix" values="0 0 0 0 0.160784 0 0 0 0 0.160784 0 0 0 0 0.160784 0 0 0 0.15 0"/>
<feBlend mode="normal" in2="BackgroundImageFix" result="effect1_dropShadow_135_74673"/>
<feBlend mode="normal" in="SourceGraphic" in2="effect1_dropShadow_135_74673" result="shape"/>
</filter>
<clipPath id="clip0_135_74673">
<rect width="346" height="252" fill="white"/>
</clipPath>
</defs>
</svg>
