<svg width="373" height="242" viewBox="0 0 373 242" fill="none" xmlns="http://www.w3.org/2000/svg">
<g clip-path="url(#clip0_160_11503)">
<rect width="373" height="242" fill="white"/>
<rect width="389" height="69" fill="white"/>
<path fill-rule="evenodd" clip-rule="evenodd" d="M36.25 40.8432V33.6781L41.3071 28.6203C41.7193 28.2081 41.4272 27.5 40.8431 27.5H28.157C27.5741 27.5 27.28 28.2073 27.693 28.6203L32.75 33.6781V39.3125C32.75 39.5266 32.8545 39.7273 33.0299 39.8501L35.2174 41.3808C35.649 41.6829 36.25 41.3767 36.25 40.8432Z" fill="#1F1F1F"/>
<path fill-rule="evenodd" clip-rule="evenodd" d="M71.1256 40.9165C71.2256 40.9165 71.3641 40.8592 71.4348 40.7885L73.6223 38.1635C73.8963 37.8887 73.7013 37.4167 73.3125 37.4167H72V29.1042C72 28.8627 71.804 28.6667 71.5625 28.6667H70.6875C70.446 28.6667 70.25 28.8627 70.25 29.1042V37.4167H68.9375C68.5495 37.4167 68.3532 37.8881 68.6288 38.1635L70.8163 40.7885C70.887 40.8592 71.0256 40.9165 71.1256 40.9165ZM82.0625 30.4167C82.304 30.4167 82.5 30.2207 82.5 29.9792V29.1042C82.5 28.8627 82.304 28.6667 82.0625 28.6667H75.0625C74.821 28.6667 74.625 28.8627 74.625 29.1042V29.9792C74.625 30.2207 74.821 30.4167 75.0625 30.4167H82.0625ZM80.3125 33.9167C80.554 33.9167 80.75 33.7207 80.75 33.4792V32.6042C80.75 32.3627 80.554 32.1667 80.3125 32.1667H75.0625C74.821 32.1667 74.625 32.3627 74.625 32.6042V33.4792C74.625 33.7207 74.821 33.9167 75.0625 33.9167H80.3125ZM78.5625 37.4167C78.804 37.4167 79 37.2207 79 36.9792V36.1042C79 35.8627 78.804 35.6667 78.5625 35.6667H75.0625C74.821 35.6667 74.625 35.8627 74.625 36.1042V36.9792C74.625 37.2207 74.821 37.4167 75.0625 37.4167H78.5625ZM76.8125 40.9167C77.054 40.9167 77.25 40.7207 77.25 40.4792V39.6042C77.25 39.3627 77.054 39.1667 76.8125 39.1667H75.0625C74.821 39.1667 74.625 39.3627 74.625 39.6042V40.4792C74.625 40.7207 74.821 40.9167 75.0625 40.9167H76.8125Z" fill="#707070"/>
<path fill-rule="evenodd" clip-rule="evenodd" d="M116.792 31.5645C117.92 31.5645 118.833 30.6556 118.833 29.5323C118.833 28.4089 117.92 27.5 116.792 27.5C115.663 27.5 114.75 28.4089 114.75 29.5323C114.75 30.6556 115.663 31.5645 116.792 31.5645ZM116.792 36.5323C117.92 36.5323 118.833 35.6234 118.833 34.5C118.833 33.3766 117.92 32.4677 116.792 32.4677C115.663 32.4677 114.75 33.3766 114.75 34.5C114.75 35.6234 115.663 36.5323 116.792 36.5323ZM116.792 41.5C117.92 41.5 118.833 40.5911 118.833 39.4677C118.833 38.3444 117.92 37.4355 116.792 37.4355C115.663 37.4355 114.75 38.3444 114.75 39.4677C114.75 40.5911 115.663 41.5 116.792 41.5Z" fill="#707070"/>
<path d="M280.142 39V30.292L278.574 30.992V30.068L280.52 29.2H281.15V39H280.142ZM286.913 39.154C286.166 39.154 285.504 38.9393 284.925 38.51C284.356 38.0807 283.908 37.488 283.581 36.732C283.254 35.9667 283.091 35.0893 283.091 34.1C283.091 33.1013 283.254 32.224 283.581 31.468C283.908 30.712 284.356 30.1193 284.925 29.69C285.504 29.2607 286.166 29.046 286.913 29.046C287.66 29.046 288.318 29.2607 288.887 29.69C289.466 30.1193 289.918 30.712 290.245 31.468C290.572 32.224 290.735 33.1013 290.735 34.1C290.735 35.0893 290.572 35.9667 290.245 36.732C289.918 37.488 289.466 38.0807 288.887 38.51C288.318 38.9393 287.66 39.154 286.913 39.154ZM286.913 38.244C287.482 38.244 287.972 38.076 288.383 37.74C288.803 37.3947 289.13 36.914 289.363 36.298C289.596 35.6727 289.713 34.94 289.713 34.1C289.713 33.26 289.596 32.532 289.363 31.916C289.13 31.2907 288.803 30.81 288.383 30.474C287.972 30.1287 287.482 29.956 286.913 29.956C286.353 29.956 285.863 30.1287 285.443 30.474C285.023 30.81 284.696 31.2907 284.463 31.916C284.23 32.532 284.113 33.26 284.113 34.1C284.113 34.94 284.23 35.6727 284.463 36.298C284.696 36.914 285.023 37.3947 285.443 37.74C285.863 38.076 286.353 38.244 286.913 38.244ZM298.877 39.112C298.242 39.112 297.673 38.958 297.169 38.65C296.665 38.342 296.268 37.922 295.979 37.39C295.689 36.858 295.545 36.256 295.545 35.584C295.545 34.912 295.689 34.31 295.979 33.778C296.268 33.246 296.665 32.826 297.169 32.518C297.673 32.21 298.242 32.056 298.877 32.056C299.502 32.056 300.062 32.21 300.557 32.518C301.061 32.826 301.457 33.246 301.747 33.778C302.036 34.31 302.181 34.912 302.181 35.584C302.181 36.256 302.036 36.858 301.747 37.39C301.457 37.922 301.061 38.342 300.557 38.65C300.062 38.958 299.502 39.112 298.877 39.112ZM298.863 38.216C299.311 38.216 299.707 38.104 300.053 37.88C300.398 37.6467 300.669 37.3293 300.865 36.928C301.07 36.5267 301.173 36.0787 301.173 35.584C301.173 35.08 301.07 34.632 300.865 34.24C300.669 33.8387 300.398 33.526 300.053 33.302C299.707 33.0687 299.311 32.952 298.863 32.952C298.415 32.952 298.018 33.0687 297.673 33.302C297.327 33.526 297.052 33.8387 296.847 34.24C296.651 34.632 296.553 35.08 296.553 35.584C296.553 36.0787 296.651 36.5267 296.847 36.928C297.052 37.3293 297.327 37.6467 297.673 37.88C298.018 38.104 298.415 38.216 298.863 38.216ZM304.418 39V33.008H302.892V32.168H304.418V30.74C304.418 30.068 304.595 29.55 304.95 29.186C305.305 28.822 305.809 28.64 306.462 28.64C306.649 28.64 306.817 28.6493 306.966 28.668C307.125 28.6867 307.265 28.7193 307.386 28.766V29.69C307.237 29.6433 307.101 29.6107 306.98 29.592C306.859 29.5733 306.719 29.564 306.56 29.564C306.168 29.564 305.883 29.662 305.706 29.858C305.529 30.0447 305.44 30.3433 305.44 30.754V32.168H307.386V33.008H305.44V39H304.418ZM313.091 39V30.292L311.523 30.992V30.068L313.469 29.2H314.099V39H313.091ZM316.684 39L321.556 30.082H315.676V29.2H322.648V29.984L317.832 39H316.684ZM327.352 39V32.168H328.374V39H327.352ZM327.87 30.474C327.665 30.474 327.488 30.404 327.338 30.264C327.198 30.1147 327.128 29.942 327.128 29.746C327.128 29.55 327.198 29.382 327.338 29.242C327.488 29.0927 327.665 29.018 327.87 29.018C328.076 29.018 328.248 29.0927 328.388 29.242C328.538 29.382 328.612 29.55 328.612 29.746C328.612 29.942 328.538 30.1147 328.388 30.264C328.248 30.404 328.076 30.474 327.87 30.474ZM333.074 39.14C332.486 39.14 332.038 39 331.73 38.72C331.431 38.4307 331.282 38.0153 331.282 37.474V33.008H329.868V32.168H331.282V30.292L332.304 30.054V32.168H334.264V33.008H332.304V37.208C332.304 37.572 332.379 37.8333 332.528 37.992C332.687 38.1507 332.943 38.23 333.298 38.23C333.475 38.23 333.634 38.216 333.774 38.188C333.914 38.16 334.077 38.1133 334.264 38.048V38.958C334.077 39.0233 333.881 39.07 333.676 39.098C333.471 39.126 333.27 39.14 333.074 39.14ZM338.704 39.14C338.07 39.14 337.496 38.986 336.982 38.678C336.469 38.3607 336.063 37.936 335.764 37.404C335.466 36.8627 335.316 36.256 335.316 35.584C335.316 34.912 335.456 34.31 335.736 33.778C336.026 33.246 336.413 32.826 336.898 32.518C337.384 32.21 337.925 32.056 338.522 32.056C339.129 32.056 339.666 32.21 340.132 32.518C340.608 32.8167 340.982 33.2273 341.252 33.75C341.532 34.2633 341.672 34.8467 341.672 35.5V35.808H336.31C336.348 36.2747 336.474 36.6947 336.688 37.068C336.912 37.432 337.202 37.7213 337.556 37.936C337.92 38.1413 338.317 38.244 338.746 38.244C339.101 38.244 339.442 38.1833 339.768 38.062C340.104 37.9313 340.389 37.7587 340.622 37.544L341.266 38.23C340.874 38.538 340.468 38.7667 340.048 38.916C339.628 39.0653 339.18 39.14 338.704 39.14ZM336.338 35.08H340.664C340.618 34.6693 340.492 34.3053 340.286 33.988C340.09 33.6613 339.838 33.4047 339.53 33.218C339.232 33.0313 338.896 32.938 338.522 32.938C338.149 32.938 337.808 33.0313 337.5 33.218C337.192 33.3953 336.936 33.6473 336.73 33.974C336.534 34.2913 336.404 34.66 336.338 35.08ZM343.417 39V32.168H344.439V33.232C344.701 32.84 344.999 32.546 345.335 32.35C345.671 32.154 346.049 32.056 346.469 32.056C346.955 32.056 347.379 32.1773 347.743 32.42C348.107 32.6533 348.383 32.9753 348.569 33.386C348.84 32.9473 349.162 32.616 349.535 32.392C349.918 32.168 350.357 32.056 350.851 32.056C351.309 32.056 351.71 32.1633 352.055 32.378C352.41 32.5927 352.685 32.8913 352.881 33.274C353.077 33.6473 353.175 34.086 353.175 34.59V39H352.153V34.842C352.153 34.2447 352.004 33.7733 351.705 33.428C351.407 33.0827 350.996 32.91 350.473 32.91C350.119 32.91 349.797 32.9987 349.507 33.176C349.227 33.3533 348.98 33.624 348.765 33.988C348.784 34.0813 348.798 34.1793 348.807 34.282C348.817 34.3847 348.821 34.4873 348.821 34.59V39H347.799V34.842C347.799 34.2447 347.645 33.7733 347.337 33.428C347.039 33.0827 346.628 32.91 346.105 32.91C345.405 32.91 344.85 33.246 344.439 33.918V39H343.417ZM357.357 39.14C356.797 39.14 356.279 39.056 355.803 38.888C355.327 38.7107 354.921 38.4587 354.585 38.132L355.131 37.46C355.542 37.7587 355.92 37.978 356.265 38.118C356.611 38.2487 356.965 38.314 357.329 38.314C357.824 38.314 358.235 38.1973 358.561 37.964C358.888 37.7307 359.051 37.432 359.051 37.068C359.051 36.788 358.953 36.5687 358.757 36.41C358.571 36.2513 358.258 36.13 357.819 36.046L356.699 35.85C356.037 35.7287 355.547 35.5233 355.229 35.234C354.921 34.9447 354.767 34.5527 354.767 34.058C354.767 33.666 354.87 33.3207 355.075 33.022C355.29 32.7233 355.584 32.49 355.957 32.322C356.331 32.1447 356.755 32.056 357.231 32.056C357.698 32.056 358.141 32.126 358.561 32.266C358.981 32.3967 359.406 32.6113 359.835 32.91L359.331 33.624C358.977 33.372 358.622 33.19 358.267 33.078C357.913 32.9567 357.553 32.896 357.189 32.896C356.741 32.896 356.382 32.994 356.111 33.19C355.841 33.386 355.705 33.652 355.705 33.988C355.705 34.268 355.789 34.4827 355.957 34.632C356.135 34.7813 356.443 34.8933 356.881 34.968L358.029 35.178C358.72 35.2993 359.224 35.5093 359.541 35.808C359.859 36.1067 360.017 36.508 360.017 37.012C360.017 37.4133 359.901 37.7773 359.667 38.104C359.434 38.4213 359.117 38.6733 358.715 38.86C358.314 39.0467 357.861 39.14 357.357 39.14Z" fill="#1F1F1F"/>
<rect width="389" height="136" transform="translate(0 106)" fill="white"/>
<path d="M16 128C16 124.686 18.6863 122 22 122H47C50.3137 122 53 124.686 53 128V153C53 156.314 50.3137 159 47 159H22C18.6863 159 16 156.314 16 153V128Z" fill="#C7C7C7" fill-opacity="0.25" style="mix-blend-mode:multiply"/>
<path fill-rule="evenodd" clip-rule="evenodd" d="M36.25 146.843V139.678L41.3071 134.62C41.7193 134.208 41.4272 133.5 40.8431 133.5H28.157C27.5741 133.5 27.28 134.207 27.693 134.62L32.75 139.678V145.312C32.75 145.527 32.8545 145.727 33.0299 145.85L35.2174 147.381C35.649 147.683 36.25 147.377 36.25 146.843Z" fill="#1F1F1F"/>
<path fill-rule="evenodd" clip-rule="evenodd" d="M71.1256 146.917C71.2256 146.917 71.3641 146.859 71.4348 146.788L73.6223 144.163C73.8963 143.889 73.7013 143.417 73.3125 143.417H72V135.104C72 134.863 71.804 134.667 71.5625 134.667H70.6875C70.446 134.667 70.25 134.863 70.25 135.104V143.417H68.9375C68.5495 143.417 68.3532 143.888 68.6288 144.163L70.8163 146.788C70.887 146.859 71.0256 146.917 71.1256 146.917ZM82.0625 136.417C82.304 136.417 82.5 136.221 82.5 135.979V135.104C82.5 134.863 82.304 134.667 82.0625 134.667H75.0625C74.821 134.667 74.625 134.863 74.625 135.104V135.979C74.625 136.221 74.821 136.417 75.0625 136.417H82.0625ZM80.3125 139.917C80.554 139.917 80.75 139.721 80.75 139.479V138.604C80.75 138.363 80.554 138.167 80.3125 138.167H75.0625C74.821 138.167 74.625 138.363 74.625 138.604V139.479C74.625 139.721 74.821 139.917 75.0625 139.917H80.3125ZM78.5625 143.417C78.804 143.417 79 143.221 79 142.979V142.104C79 141.863 78.804 141.667 78.5625 141.667H75.0625C74.821 141.667 74.625 141.863 74.625 142.104V142.979C74.625 143.221 74.821 143.417 75.0625 143.417H78.5625ZM76.8125 146.917C77.054 146.917 77.25 146.721 77.25 146.479V145.604C77.25 145.363 77.054 145.167 76.8125 145.167H75.0625C74.821 145.167 74.625 145.363 74.625 145.604V146.479C74.625 146.721 74.821 146.917 75.0625 146.917H76.8125Z" fill="#707070"/>
<path fill-rule="evenodd" clip-rule="evenodd" d="M116.792 137.565C117.92 137.565 118.833 136.656 118.833 135.532C118.833 134.409 117.92 133.5 116.792 133.5C115.663 133.5 114.75 134.409 114.75 135.532C114.75 136.656 115.663 137.565 116.792 137.565ZM116.792 142.532C117.92 142.532 118.833 141.623 118.833 140.5C118.833 139.377 117.92 138.468 116.792 138.468C115.663 138.468 114.75 139.377 114.75 140.5C114.75 141.623 115.663 142.532 116.792 142.532ZM116.792 147.5C117.92 147.5 118.833 146.591 118.833 145.468C118.833 144.344 117.92 143.435 116.792 143.435C115.663 143.435 114.75 144.344 114.75 145.468C114.75 146.591 115.663 147.5 116.792 147.5Z" fill="#707070"/>
<path d="M280.142 145V136.292L278.574 136.992V136.068L280.52 135.2H281.15V145H280.142ZM286.913 145.154C286.166 145.154 285.504 144.939 284.925 144.51C284.356 144.081 283.908 143.488 283.581 142.732C283.254 141.967 283.091 141.089 283.091 140.1C283.091 139.101 283.254 138.224 283.581 137.468C283.908 136.712 284.356 136.119 284.925 135.69C285.504 135.261 286.166 135.046 286.913 135.046C287.66 135.046 288.318 135.261 288.887 135.69C289.466 136.119 289.918 136.712 290.245 137.468C290.572 138.224 290.735 139.101 290.735 140.1C290.735 141.089 290.572 141.967 290.245 142.732C289.918 143.488 289.466 144.081 288.887 144.51C288.318 144.939 287.66 145.154 286.913 145.154ZM286.913 144.244C287.482 144.244 287.972 144.076 288.383 143.74C288.803 143.395 289.13 142.914 289.363 142.298C289.596 141.673 289.713 140.94 289.713 140.1C289.713 139.26 289.596 138.532 289.363 137.916C289.13 137.291 288.803 136.81 288.383 136.474C287.972 136.129 287.482 135.956 286.913 135.956C286.353 135.956 285.863 136.129 285.443 136.474C285.023 136.81 284.696 137.291 284.463 137.916C284.23 138.532 284.113 139.26 284.113 140.1C284.113 140.94 284.23 141.673 284.463 142.298C284.696 142.914 285.023 143.395 285.443 143.74C285.863 144.076 286.353 144.244 286.913 144.244ZM298.877 145.112C298.242 145.112 297.673 144.958 297.169 144.65C296.665 144.342 296.268 143.922 295.979 143.39C295.689 142.858 295.545 142.256 295.545 141.584C295.545 140.912 295.689 140.31 295.979 139.778C296.268 139.246 296.665 138.826 297.169 138.518C297.673 138.21 298.242 138.056 298.877 138.056C299.502 138.056 300.062 138.21 300.557 138.518C301.061 138.826 301.457 139.246 301.747 139.778C302.036 140.31 302.181 140.912 302.181 141.584C302.181 142.256 302.036 142.858 301.747 143.39C301.457 143.922 301.061 144.342 300.557 144.65C300.062 144.958 299.502 145.112 298.877 145.112ZM298.863 144.216C299.311 144.216 299.707 144.104 300.053 143.88C300.398 143.647 300.669 143.329 300.865 142.928C301.07 142.527 301.173 142.079 301.173 141.584C301.173 141.08 301.07 140.632 300.865 140.24C300.669 139.839 300.398 139.526 300.053 139.302C299.707 139.069 299.311 138.952 298.863 138.952C298.415 138.952 298.018 139.069 297.673 139.302C297.327 139.526 297.052 139.839 296.847 140.24C296.651 140.632 296.553 141.08 296.553 141.584C296.553 142.079 296.651 142.527 296.847 142.928C297.052 143.329 297.327 143.647 297.673 143.88C298.018 144.104 298.415 144.216 298.863 144.216ZM304.418 145V139.008H302.892V138.168H304.418V136.74C304.418 136.068 304.595 135.55 304.95 135.186C305.305 134.822 305.809 134.64 306.462 134.64C306.649 134.64 306.817 134.649 306.966 134.668C307.125 134.687 307.265 134.719 307.386 134.766V135.69C307.237 135.643 307.101 135.611 306.98 135.592C306.859 135.573 306.719 135.564 306.56 135.564C306.168 135.564 305.883 135.662 305.706 135.858C305.529 136.045 305.44 136.343 305.44 136.754V138.168H307.386V139.008H305.44V145H304.418ZM313.091 145V136.292L311.523 136.992V136.068L313.469 135.2H314.099V145H313.091ZM316.684 145L321.556 136.082H315.676V135.2H322.648V135.984L317.832 145H316.684ZM327.352 145V138.168H328.374V145H327.352ZM327.87 136.474C327.665 136.474 327.488 136.404 327.338 136.264C327.198 136.115 327.128 135.942 327.128 135.746C327.128 135.55 327.198 135.382 327.338 135.242C327.488 135.093 327.665 135.018 327.87 135.018C328.076 135.018 328.248 135.093 328.388 135.242C328.538 135.382 328.612 135.55 328.612 135.746C328.612 135.942 328.538 136.115 328.388 136.264C328.248 136.404 328.076 136.474 327.87 136.474ZM333.074 145.14C332.486 145.14 332.038 145 331.73 144.72C331.431 144.431 331.282 144.015 331.282 143.474V139.008H329.868V138.168H331.282V136.292L332.304 136.054V138.168H334.264V139.008H332.304V143.208C332.304 143.572 332.379 143.833 332.528 143.992C332.687 144.151 332.943 144.23 333.298 144.23C333.475 144.23 333.634 144.216 333.774 144.188C333.914 144.16 334.077 144.113 334.264 144.048V144.958C334.077 145.023 333.881 145.07 333.676 145.098C333.471 145.126 333.27 145.14 333.074 145.14ZM338.704 145.14C338.07 145.14 337.496 144.986 336.982 144.678C336.469 144.361 336.063 143.936 335.764 143.404C335.466 142.863 335.316 142.256 335.316 141.584C335.316 140.912 335.456 140.31 335.736 139.778C336.026 139.246 336.413 138.826 336.898 138.518C337.384 138.21 337.925 138.056 338.522 138.056C339.129 138.056 339.666 138.21 340.132 138.518C340.608 138.817 340.982 139.227 341.252 139.75C341.532 140.263 341.672 140.847 341.672 141.5V141.808H336.31C336.348 142.275 336.474 142.695 336.688 143.068C336.912 143.432 337.202 143.721 337.556 143.936C337.92 144.141 338.317 144.244 338.746 144.244C339.101 144.244 339.442 144.183 339.768 144.062C340.104 143.931 340.389 143.759 340.622 143.544L341.266 144.23C340.874 144.538 340.468 144.767 340.048 144.916C339.628 145.065 339.18 145.14 338.704 145.14ZM336.338 141.08H340.664C340.618 140.669 340.492 140.305 340.286 139.988C340.09 139.661 339.838 139.405 339.53 139.218C339.232 139.031 338.896 138.938 338.522 138.938C338.149 138.938 337.808 139.031 337.5 139.218C337.192 139.395 336.936 139.647 336.73 139.974C336.534 140.291 336.404 140.66 336.338 141.08ZM343.417 145V138.168H344.439V139.232C344.701 138.84 344.999 138.546 345.335 138.35C345.671 138.154 346.049 138.056 346.469 138.056C346.955 138.056 347.379 138.177 347.743 138.42C348.107 138.653 348.383 138.975 348.569 139.386C348.84 138.947 349.162 138.616 349.535 138.392C349.918 138.168 350.357 138.056 350.851 138.056C351.309 138.056 351.71 138.163 352.055 138.378C352.41 138.593 352.685 138.891 352.881 139.274C353.077 139.647 353.175 140.086 353.175 140.59V145H352.153V140.842C352.153 140.245 352.004 139.773 351.705 139.428C351.407 139.083 350.996 138.91 350.473 138.91C350.119 138.91 349.797 138.999 349.507 139.176C349.227 139.353 348.98 139.624 348.765 139.988C348.784 140.081 348.798 140.179 348.807 140.282C348.817 140.385 348.821 140.487 348.821 140.59V145H347.799V140.842C347.799 140.245 347.645 139.773 347.337 139.428C347.039 139.083 346.628 138.91 346.105 138.91C345.405 138.91 344.85 139.246 344.439 139.918V145H343.417ZM357.357 145.14C356.797 145.14 356.279 145.056 355.803 144.888C355.327 144.711 354.921 144.459 354.585 144.132L355.131 143.46C355.542 143.759 355.92 143.978 356.265 144.118C356.611 144.249 356.965 144.314 357.329 144.314C357.824 144.314 358.235 144.197 358.561 143.964C358.888 143.731 359.051 143.432 359.051 143.068C359.051 142.788 358.953 142.569 358.757 142.41C358.571 142.251 358.258 142.13 357.819 142.046L356.699 141.85C356.037 141.729 355.547 141.523 355.229 141.234C354.921 140.945 354.767 140.553 354.767 140.058C354.767 139.666 354.87 139.321 355.075 139.022C355.29 138.723 355.584 138.49 355.957 138.322C356.331 138.145 356.755 138.056 357.231 138.056C357.698 138.056 358.141 138.126 358.561 138.266C358.981 138.397 359.406 138.611 359.835 138.91L359.331 139.624C358.977 139.372 358.622 139.19 358.267 139.078C357.913 138.957 357.553 138.896 357.189 138.896C356.741 138.896 356.382 138.994 356.111 139.19C355.841 139.386 355.705 139.652 355.705 139.988C355.705 140.268 355.789 140.483 355.957 140.632C356.135 140.781 356.443 140.893 356.881 140.968L358.029 141.178C358.72 141.299 359.224 141.509 359.541 141.808C359.859 142.107 360.017 142.508 360.017 143.012C360.017 143.413 359.901 143.777 359.667 144.104C359.434 144.421 359.117 144.673 358.715 144.86C358.314 145.047 357.861 145.14 357.357 145.14Z" fill="#1F1F1F"/>
<g filter="url(#filter0_d_160_11503)">
<rect width="317" height="69" transform="translate(17 160)" fill="white"/>
<mask id="path-17-inside-1_160_11503" fill="white">
<path d="M33 182C33 178.686 35.6863 176 39 176H126C129.314 176 132 178.686 132 182V207C132 210.314 129.314 213 126 213H39C35.6863 213 33 210.314 33 207V182Z"/>
</mask>
<path d="M33 182C33 178.686 35.6863 176 39 176H126C129.314 176 132 178.686 132 182V207C132 210.314 129.314 213 126 213H39C35.6863 213 33 210.314 33 207V182Z" fill="white"/>
<path d="M39 177H126V175H39V177ZM131 182V207H133V182H131ZM126 212H39V214H126V212ZM34 207V182H32V207H34ZM39 212C36.2386 212 34 209.761 34 207H32C32 210.866 35.134 214 39 214V212ZM131 207C131 209.761 128.761 212 126 212V214C129.866 214 133 210.866 133 207H131ZM126 177C128.761 177 131 179.239 131 182H133C133 178.134 129.866 175 126 175V177ZM39 175C35.134 175 32 178.134 32 182H34C34 179.239 36.2386 177 39 177V175Z" fill="#C7C7C7" mask="url(#path-17-inside-1_160_11503)"/>
<path d="M50.246 199V189.2H51.366L57.106 197.32L57.078 189.2H58.1V199H57.12L51.24 190.698L51.268 199H50.246ZM62.3769 199.126C61.8916 199.126 61.4622 199.037 61.0889 198.86C60.7156 198.683 60.4216 198.44 60.2069 198.132C60.0016 197.815 59.8989 197.451 59.8989 197.04C59.8989 196.629 60.0062 196.275 60.2209 195.976C60.4356 195.668 60.7342 195.43 61.1169 195.262C61.4996 195.094 61.9476 195.01 62.4609 195.01C62.8529 195.01 63.2216 195.052 63.5669 195.136C63.9216 195.22 64.2482 195.355 64.5469 195.542V194.604C64.5469 194.044 64.3976 193.624 64.0989 193.344C63.8002 193.055 63.3616 192.91 62.7829 192.91C62.4656 192.91 62.1389 192.957 61.8029 193.05C61.4762 193.143 61.1122 193.293 60.7109 193.498L60.3329 192.714C61.2476 192.275 62.1062 192.056 62.9089 192.056C63.7582 192.056 64.4116 192.266 64.8689 192.686C65.3262 193.097 65.5549 193.689 65.5549 194.464V199H64.5469V198.202C64.2482 198.51 63.9169 198.743 63.5529 198.902C63.1889 199.051 62.7969 199.126 62.3769 199.126ZM60.8789 197.012C60.8789 197.413 61.0329 197.735 61.3409 197.978C61.6582 198.221 62.0736 198.342 62.5869 198.342C62.9696 198.342 63.3196 198.277 63.6369 198.146C63.9636 198.015 64.2669 197.819 64.5469 197.558V196.242C64.2576 196.074 63.9589 195.953 63.6509 195.878C63.3429 195.794 62.9976 195.752 62.6149 195.752C62.0922 195.752 61.6722 195.869 61.3549 196.102C61.0376 196.326 60.8789 196.629 60.8789 197.012ZM67.632 199V192.168H68.654V193.232C68.9154 192.84 69.214 192.546 69.55 192.35C69.886 192.154 70.264 192.056 70.684 192.056C71.1694 192.056 71.594 192.177 71.958 192.42C72.322 192.653 72.5974 192.975 72.784 193.386C73.0547 192.947 73.3767 192.616 73.75 192.392C74.1327 192.168 74.5714 192.056 75.066 192.056C75.5234 192.056 75.9247 192.163 76.27 192.378C76.6247 192.593 76.9 192.891 77.096 193.274C77.292 193.647 77.39 194.086 77.39 194.59V199H76.368V194.842C76.368 194.245 76.2187 193.773 75.92 193.428C75.6214 193.083 75.2107 192.91 74.688 192.91C74.3334 192.91 74.0114 192.999 73.722 193.176C73.442 193.353 73.1947 193.624 72.98 193.988C72.9987 194.081 73.0127 194.179 73.022 194.282C73.0314 194.385 73.036 194.487 73.036 194.59V199H72.014V194.842C72.014 194.245 71.86 193.773 71.552 193.428C71.2534 193.083 70.8427 192.91 70.32 192.91C69.62 192.91 69.0647 193.246 68.654 193.918V199H67.632ZM82.5382 199.14C81.9035 199.14 81.3295 198.986 80.8162 198.678C80.3029 198.361 79.8969 197.936 79.5982 197.404C79.2995 196.863 79.1502 196.256 79.1502 195.584C79.1502 194.912 79.2902 194.31 79.5702 193.778C79.8595 193.246 80.2469 192.826 80.7322 192.518C81.2175 192.21 81.7589 192.056 82.3562 192.056C82.9629 192.056 83.4995 192.21 83.9662 192.518C84.4422 192.817 84.8155 193.227 85.0862 193.75C85.3662 194.263 85.5062 194.847 85.5062 195.5V195.808H80.1442C80.1815 196.275 80.3075 196.695 80.5222 197.068C80.7462 197.432 81.0355 197.721 81.3902 197.936C81.7542 198.141 82.1509 198.244 82.5802 198.244C82.9349 198.244 83.2755 198.183 83.6022 198.062C83.9382 197.931 84.2229 197.759 84.4562 197.544L85.1002 198.23C84.7082 198.538 84.3022 198.767 83.8822 198.916C83.4622 199.065 83.0142 199.14 82.5382 199.14ZM80.1722 195.08H84.4982C84.4515 194.669 84.3255 194.305 84.1202 193.988C83.9242 193.661 83.6722 193.405 83.3642 193.218C83.0655 193.031 82.7295 192.938 82.3562 192.938C81.9829 192.938 81.6422 193.031 81.3342 193.218C81.0262 193.395 80.7695 193.647 80.5642 193.974C80.3682 194.291 80.2375 194.66 80.1722 195.08Z" fill="#151515"/>
<path fill-rule="evenodd" clip-rule="evenodd" d="M106.389 197.172L109.921 193.61C110.267 193.262 110.023 192.667 109.534 192.667H102.466C101.977 192.667 101.733 193.262 102.079 193.61L105.611 197.172C105.826 197.387 106.174 197.387 106.389 197.172Z" fill="#1F1F1F"/>
<path d="M136.5 182C136.5 178.962 138.962 176.5 142 176.5H267C270.038 176.5 272.5 178.962 272.5 182V207C272.5 210.038 270.038 212.5 267 212.5H142C138.962 212.5 136.5 210.038 136.5 207V182Z" fill="white"/>
<path d="M136.5 182C136.5 178.962 138.962 176.5 142 176.5H267C270.038 176.5 272.5 178.962 272.5 182V207C272.5 210.038 270.038 212.5 267 212.5H142C138.962 212.5 136.5 210.038 136.5 207V182Z" stroke="#C7C7C7"/>
<path fill-rule="evenodd" clip-rule="evenodd" d="M161.032 201.809L161.806 201.035C162.063 200.778 162.063 200.362 161.809 200.105L159.082 197.379C158.959 197.256 158.793 197.187 158.618 197.187H158.172C158.927 196.222 159.375 195.008 159.375 193.687C159.375 190.546 156.829 188 153.687 188C150.546 188 148 190.546 148 193.687C148 196.829 150.546 199.375 153.687 199.375C155.008 199.375 156.222 198.927 157.187 198.172V198.618C157.187 198.793 157.256 198.959 157.379 199.082L160.105 201.809C160.362 202.066 160.778 202.066 161.032 201.809ZM153.687 197.187C151.754 197.187 150.187 195.623 150.187 193.687C150.187 191.754 151.752 190.187 153.687 190.187C155.621 190.187 157.187 191.752 157.187 193.687C157.187 195.621 155.623 197.187 153.687 197.187Z" fill="#1F1F1F"/>
<path d="M174.246 199V189.2H180.938V190.152H175.324V193.652H179.16V194.59H175.324V199H174.246ZM182.376 199V192.168H183.398V199H182.376ZM182.894 190.474C182.689 190.474 182.511 190.404 182.362 190.264C182.222 190.115 182.152 189.942 182.152 189.746C182.152 189.55 182.222 189.382 182.362 189.242C182.511 189.093 182.689 189.018 182.894 189.018C183.099 189.018 183.272 189.093 183.412 189.242C183.561 189.382 183.636 189.55 183.636 189.746C183.636 189.942 183.561 190.115 183.412 190.264C183.272 190.404 183.099 190.474 182.894 190.474ZM185.493 199V188.892L186.515 188.682V199H185.493ZM191.215 199.14C190.627 199.14 190.179 199 189.871 198.72C189.572 198.431 189.423 198.015 189.423 197.474V193.008H188.009V192.168H189.423V190.292L190.445 190.054V192.168H192.405V193.008H190.445V197.208C190.445 197.572 190.519 197.833 190.669 197.992C190.827 198.151 191.084 198.23 191.439 198.23C191.616 198.23 191.775 198.216 191.915 198.188C192.055 198.16 192.218 198.113 192.405 198.048V198.958C192.218 199.023 192.022 199.07 191.817 199.098C191.611 199.126 191.411 199.14 191.215 199.14ZM196.845 199.14C196.21 199.14 195.636 198.986 195.123 198.678C194.61 198.361 194.204 197.936 193.905 197.404C193.606 196.863 193.457 196.256 193.457 195.584C193.457 194.912 193.597 194.31 193.877 193.778C194.166 193.246 194.554 192.826 195.039 192.518C195.524 192.21 196.066 192.056 196.663 192.056C197.27 192.056 197.806 192.21 198.273 192.518C198.749 192.817 199.122 193.227 199.393 193.75C199.673 194.263 199.813 194.847 199.813 195.5V195.808H194.451C194.488 196.275 194.614 196.695 194.829 197.068C195.053 197.432 195.342 197.721 195.697 197.936C196.061 198.141 196.458 198.244 196.887 198.244C197.242 198.244 197.582 198.183 197.909 198.062C198.245 197.931 198.53 197.759 198.763 197.544L199.407 198.23C199.015 198.538 198.609 198.767 198.189 198.916C197.769 199.065 197.321 199.14 196.845 199.14ZM194.479 195.08H198.805C198.758 194.669 198.632 194.305 198.427 193.988C198.231 193.661 197.979 193.405 197.671 193.218C197.372 193.031 197.036 192.938 196.663 192.938C196.29 192.938 195.949 193.031 195.641 193.218C195.333 193.395 195.076 193.647 194.871 193.974C194.675 194.291 194.544 194.66 194.479 195.08ZM201.558 199V192.168H202.58V193.568C202.757 193.092 203.009 192.723 203.336 192.462C203.672 192.191 204.054 192.056 204.484 192.056C204.605 192.056 204.717 192.065 204.82 192.084C204.922 192.093 205.025 192.117 205.128 192.154V193.078C205.016 193.041 204.894 193.013 204.764 192.994C204.642 192.966 204.526 192.952 204.414 192.952C203.994 192.952 203.625 193.073 203.308 193.316C203 193.559 202.757 193.899 202.58 194.338V199H201.558ZM209.747 199V188.99L210.769 188.78V193.106C211.031 192.779 211.348 192.527 211.721 192.35C212.095 192.173 212.51 192.084 212.967 192.084C213.565 192.084 214.097 192.243 214.563 192.56C215.039 192.868 215.417 193.288 215.697 193.82C215.977 194.343 216.117 194.931 216.117 195.584C216.117 196.237 215.973 196.83 215.683 197.362C215.403 197.894 215.021 198.319 214.535 198.636C214.059 198.944 213.518 199.098 212.911 199.098C212.482 199.098 212.081 199.014 211.707 198.846C211.343 198.669 211.026 198.421 210.755 198.104V199H209.747ZM212.715 198.216C213.173 198.216 213.579 198.104 213.933 197.88C214.297 197.647 214.582 197.334 214.787 196.942C215.002 196.541 215.109 196.093 215.109 195.598C215.109 195.094 215.002 194.646 214.787 194.254C214.582 193.862 214.297 193.554 213.933 193.33C213.579 193.097 213.173 192.98 212.715 192.98C212.314 192.98 211.941 193.064 211.595 193.232C211.259 193.391 210.984 193.619 210.769 193.918V197.264C210.993 197.563 211.273 197.796 211.609 197.964C211.955 198.132 212.323 198.216 212.715 198.216ZM217.998 202.066C217.784 202.066 217.564 202.033 217.34 201.968V201.058C217.434 201.077 217.532 201.091 217.634 201.1C217.737 201.109 217.826 201.114 217.9 201.114C218.162 201.114 218.376 201.044 218.544 200.904C218.722 200.764 218.871 200.545 218.992 200.246L219.496 199L216.864 192.168H217.998L220.07 197.782L222.268 192.168H223.402L219.958 200.554C219.809 200.918 219.646 201.212 219.468 201.436C219.291 201.66 219.086 201.819 218.852 201.912C218.619 202.015 218.334 202.066 217.998 202.066ZM227.945 199V192.168H228.967V193.274C229.228 192.863 229.541 192.56 229.905 192.364C230.269 192.159 230.679 192.056 231.137 192.056C231.631 192.056 232.061 192.163 232.425 192.378C232.798 192.583 233.087 192.877 233.293 193.26C233.507 193.633 233.615 194.072 233.615 194.576V199H232.593V194.87C232.593 194.263 232.425 193.787 232.089 193.442C231.762 193.087 231.319 192.91 230.759 192.91C230.385 192.91 230.045 192.999 229.737 193.176C229.429 193.353 229.172 193.615 228.967 193.96V199H227.945ZM237.783 199.126C237.298 199.126 236.868 199.037 236.495 198.86C236.122 198.683 235.828 198.44 235.613 198.132C235.408 197.815 235.305 197.451 235.305 197.04C235.305 196.629 235.412 196.275 235.627 195.976C235.842 195.668 236.14 195.43 236.523 195.262C236.906 195.094 237.354 195.01 237.867 195.01C238.259 195.01 238.628 195.052 238.973 195.136C239.328 195.22 239.654 195.355 239.953 195.542V194.604C239.953 194.044 239.804 193.624 239.505 193.344C239.206 193.055 238.768 192.91 238.189 192.91C237.872 192.91 237.545 192.957 237.209 193.05C236.882 193.143 236.518 193.293 236.117 193.498L235.739 192.714C236.654 192.275 237.512 192.056 238.315 192.056C239.164 192.056 239.818 192.266 240.275 192.686C240.732 193.097 240.961 193.689 240.961 194.464V199H239.953V198.202C239.654 198.51 239.323 198.743 238.959 198.902C238.595 199.051 238.203 199.126 237.783 199.126ZM236.285 197.012C236.285 197.413 236.439 197.735 236.747 197.978C237.064 198.221 237.48 198.342 237.993 198.342C238.376 198.342 238.726 198.277 239.043 198.146C239.37 198.015 239.673 197.819 239.953 197.558V196.242C239.664 196.074 239.365 195.953 239.057 195.878C238.749 195.794 238.404 195.752 238.021 195.752C237.498 195.752 237.078 195.869 236.761 196.102C236.444 196.326 236.285 196.629 236.285 197.012ZM243.038 199V192.168H244.06V193.232C244.322 192.84 244.62 192.546 244.956 192.35C245.292 192.154 245.67 192.056 246.09 192.056C246.576 192.056 247 192.177 247.364 192.42C247.728 192.653 248.004 192.975 248.19 193.386C248.461 192.947 248.783 192.616 249.156 192.392C249.539 192.168 249.978 192.056 250.472 192.056C250.93 192.056 251.331 192.163 251.676 192.378C252.031 192.593 252.306 192.891 252.502 193.274C252.698 193.647 252.796 194.086 252.796 194.59V199H251.774V194.842C251.774 194.245 251.625 193.773 251.326 193.428C251.028 193.083 250.617 192.91 250.094 192.91C249.74 192.91 249.418 192.999 249.128 193.176C248.848 193.353 248.601 193.624 248.386 193.988C248.405 194.081 248.419 194.179 248.428 194.282C248.438 194.385 248.442 194.487 248.442 194.59V199H247.42V194.842C247.42 194.245 247.266 193.773 246.958 193.428C246.66 193.083 246.249 192.91 245.726 192.91C245.026 192.91 244.471 193.246 244.06 193.918V199H243.038ZM257.944 199.14C257.31 199.14 256.736 198.986 256.222 198.678C255.709 198.361 255.303 197.936 255.004 197.404C254.706 196.863 254.556 196.256 254.556 195.584C254.556 194.912 254.696 194.31 254.976 193.778C255.266 193.246 255.653 192.826 256.138 192.518C256.624 192.21 257.165 192.056 257.762 192.056C258.369 192.056 258.906 192.21 259.372 192.518C259.848 192.817 260.222 193.227 260.492 193.75C260.772 194.263 260.912 194.847 260.912 195.5V195.808H255.55C255.588 196.275 255.714 196.695 255.928 197.068C256.152 197.432 256.442 197.721 256.796 197.936C257.16 198.141 257.557 198.244 257.986 198.244C258.341 198.244 258.682 198.183 259.008 198.062C259.344 197.931 259.629 197.759 259.862 197.544L260.506 198.23C260.114 198.538 259.708 198.767 259.288 198.916C258.868 199.065 258.42 199.14 257.944 199.14ZM255.578 195.08H259.904C259.858 194.669 259.732 194.305 259.526 193.988C259.33 193.661 259.078 193.405 258.77 193.218C258.472 193.031 258.136 192.938 257.762 192.938C257.389 192.938 257.048 193.031 256.74 193.218C256.432 193.395 256.176 193.647 255.97 193.974C255.774 194.291 255.644 194.66 255.578 195.08Z" fill="#4D4D4D"/>
<path d="M277.5 182C277.5 178.962 279.962 176.5 283 176.5H317C320.038 176.5 322.5 178.962 322.5 182V207C322.5 210.038 320.038 212.5 317 212.5H283C279.962 212.5 277.5 210.038 277.5 207V182Z" fill="white"/>
<path d="M277.5 182C277.5 178.962 279.962 176.5 283 176.5H317C320.038 176.5 322.5 178.962 322.5 182V207C322.5 210.038 320.038 212.5 317 212.5H283C279.962 212.5 277.5 210.038 277.5 207V182Z" stroke="#C7C7C7"/>
<path fill-rule="evenodd" clip-rule="evenodd" d="M300.705 201.274L306.78 195.042C307.073 194.744 307.073 194.256 306.78 193.955L300.705 187.726C300.415 187.425 299.94 187.425 299.646 187.726L298.952 188.438C298.653 188.742 298.659 189.239 298.965 189.537L302.73 193.218H293.75C293.334 193.218 293 193.561 293 193.987V195.013C293 195.439 293.334 195.782 293.75 195.782H302.73L298.965 199.463C298.662 199.761 298.656 200.258 298.952 200.562L299.646 201.274C299.937 201.575 300.412 201.575 300.705 201.274Z" fill="#1F1F1F"/>
</g>
<circle opacity="0.3" cx="49" cy="132" r="8" fill="#3E68FF"/>
<circle opacity="0.6" cx="49" cy="132" r="2" fill="#3E68FF"/>
<g filter="url(#filter1_d_160_11503)">
<path d="M48.27 144.28C47.99 143.92 47.64 143.19 47.03 142.28C46.68 141.78 45.82 140.83 45.56 140.34C45.3726 140.042 45.3182 139.68 45.41 139.34C45.567 138.694 46.1796 138.266 46.84 138.34C47.3508 138.443 47.8202 138.693 48.19 139.06C48.4482 139.303 48.6857 139.567 48.9 139.85C49.06 140.05 49.1 140.13 49.28 140.36C49.46 140.59 49.58 140.82 49.49 140.48C49.42 139.98 49.3 139.14 49.13 138.39C49 137.82 48.97 137.73 48.85 137.3C48.73 136.87 48.66 136.51 48.53 136.02C48.4112 135.538 48.3177 135.051 48.25 134.56C48.1239 133.932 48.2156 133.279 48.51 132.71C48.8594 132.381 49.3719 132.295 49.81 132.49C50.2506 132.815 50.5791 133.27 50.75 133.79C51.0121 134.43 51.187 135.103 51.27 135.79C51.43 136.79 51.74 138.25 51.75 138.55C51.75 138.18 51.68 137.4 51.75 137.05C51.8193 136.685 52.073 136.382 52.42 136.25C52.7178 136.159 53.0328 136.138 53.34 136.19C53.65 136.255 53.9247 136.433 54.11 136.69C54.3417 137.273 54.4703 137.893 54.49 138.52C54.5168 137.971 54.6108 137.426 54.77 136.9C54.9371 136.664 55.1811 136.495 55.46 136.42C55.7906 136.359 56.1294 136.359 56.46 136.42C56.7311 136.511 56.9682 136.681 57.14 136.91C57.3518 137.44 57.48 138 57.52 138.57C57.52 138.71 57.59 138.18 57.81 137.83C57.9243 137.491 58.211 137.238 58.5621 137.167C58.9132 137.097 59.2754 137.218 59.5121 137.487C59.7489 137.756 59.8243 138.131 59.71 138.47C59.71 139.12 59.71 139.09 59.71 139.53C59.71 139.97 59.71 140.36 59.71 140.73C59.6736 141.315 59.5933 141.897 59.47 142.47C59.296 142.977 59.0537 143.458 58.75 143.9C58.2644 144.44 57.8632 145.05 57.56 145.71C57.4848 146.038 57.4512 146.374 57.46 146.71C57.459 147.021 57.4993 147.33 57.58 147.63C57.1711 147.673 56.7589 147.673 56.35 147.63C55.96 147.57 55.48 146.79 55.35 146.55C55.2857 146.421 55.154 146.34 55.01 146.34C54.866 146.34 54.7343 146.421 54.67 146.55C54.45 146.93 53.96 147.62 53.62 147.66C52.95 147.74 51.57 147.66 50.48 147.66C50.48 147.66 50.66 146.66 50.25 146.3C49.84 145.94 49.42 145.52 49.11 145.24L48.27 144.28Z" fill="white"/>
<path fill-rule="evenodd" clip-rule="evenodd" d="M48.27 144.28C47.99 143.92 47.64 143.19 47.03 142.28C46.68 141.78 45.82 140.83 45.56 140.34C45.3726 140.042 45.3182 139.68 45.41 139.34C45.567 138.694 46.1796 138.266 46.84 138.34C47.3508 138.443 47.8202 138.693 48.19 139.06C48.4482 139.303 48.6857 139.567 48.9 139.85C49.06 140.05 49.1 140.13 49.28 140.36C49.46 140.59 49.58 140.82 49.49 140.48C49.42 139.98 49.3 139.14 49.13 138.39C49 137.82 48.97 137.73 48.85 137.3C48.73 136.87 48.66 136.51 48.53 136.02C48.4112 135.538 48.3177 135.051 48.25 134.56C48.1239 133.932 48.2156 133.279 48.51 132.71C48.8594 132.381 49.3719 132.295 49.81 132.49C50.2506 132.815 50.5791 133.27 50.75 133.79C51.0121 134.43 51.187 135.103 51.27 135.79C51.43 136.79 51.74 138.25 51.75 138.55C51.75 138.18 51.68 137.4 51.75 137.05C51.8193 136.685 52.073 136.382 52.42 136.25C52.7178 136.159 53.0328 136.138 53.34 136.19C53.65 136.255 53.9247 136.433 54.11 136.69C54.3417 137.273 54.4703 137.893 54.49 138.52C54.5168 137.971 54.6108 137.426 54.77 136.9C54.9371 136.664 55.1811 136.495 55.46 136.42C55.7906 136.359 56.1294 136.359 56.46 136.42C56.7311 136.511 56.9682 136.681 57.14 136.91C57.3518 137.44 57.48 138 57.52 138.57C57.52 138.71 57.59 138.18 57.81 137.83C57.9243 137.491 58.211 137.238 58.5621 137.167C58.9132 137.097 59.2754 137.218 59.5121 137.487C59.7489 137.756 59.8243 138.131 59.71 138.47C59.71 139.12 59.71 139.09 59.71 139.53C59.71 139.97 59.71 140.36 59.71 140.73C59.6736 141.315 59.5933 141.897 59.47 142.47C59.296 142.977 59.0537 143.458 58.75 143.9C58.2644 144.44 57.8632 145.05 57.56 145.71C57.4848 146.038 57.4512 146.374 57.46 146.71C57.459 147.021 57.4993 147.33 57.58 147.63C57.1711 147.673 56.7589 147.673 56.35 147.63C55.96 147.57 55.48 146.79 55.35 146.55C55.2857 146.421 55.154 146.34 55.01 146.34C54.866 146.34 54.7343 146.421 54.67 146.55C54.45 146.93 53.96 147.62 53.62 147.66C52.95 147.74 51.57 147.66 50.48 147.66C50.48 147.66 50.66 146.66 50.25 146.3C49.84 145.94 49.42 145.52 49.11 145.24L48.27 144.28Z" stroke="#202125" stroke-width="0.75" stroke-linecap="round" stroke-linejoin="round"/>
<path d="M56.75 144.826V141.374C56.75 141.167 56.5821 141 56.375 141C56.1679 141 56 141.167 56 141.374V144.826C56 145.033 56.1679 145.2 56.375 145.2C56.5821 145.2 56.75 145.033 56.75 144.826Z" fill="#202125"/>
<path d="M54.77 144.825L54.75 141.371C54.7488 141.165 54.5799 140.999 54.3728 141C54.1657 141.001 53.9988 141.169 54 141.375L54.02 144.829C54.0212 145.035 54.1901 145.201 54.3972 145.2C54.6043 145.199 54.7712 145.031 54.77 144.825Z" fill="#202125"/>
<path d="M52 141.379L52.02 144.825C52.0212 145.033 52.1901 145.201 52.3972 145.2C52.6043 145.199 52.7712 145.029 52.77 144.821L52.75 141.375C52.7488 141.167 52.5799 140.999 52.3728 141C52.1657 141.001 51.9988 141.171 52 141.379Z" fill="#202125"/>
</g>
<path d="M186 119L188.887 114L183.113 114L186 119ZM185.5 69L185.5 114.5L186.5 114.5L186.5 69L185.5 69Z" fill="#707070"/>
</g>
<defs>
<filter id="filter0_d_160_11503" x="8" y="155" width="335" height="87" filterUnits="userSpaceOnUse" color-interpolation-filters="sRGB">
<feFlood flood-opacity="0" result="BackgroundImageFix"/>
<feColorMatrix in="SourceAlpha" type="matrix" values="0 0 0 0 0 0 0 0 0 0 0 0 0 0 0 0 0 0 127 0" result="hardAlpha"/>
<feOffset dy="4"/>
<feGaussianBlur stdDeviation="4.5"/>
<feColorMatrix type="matrix" values="0 0 0 0 0.160784 0 0 0 0 0.160784 0 0 0 0 0.160784 0 0 0 0.15 0"/>
<feBlend mode="normal" in2="BackgroundImageFix" result="effect1_dropShadow_160_11503"/>
<feBlend mode="normal" in="SourceGraphic" in2="effect1_dropShadow_160_11503" result="shape"/>
</filter>
<filter id="filter1_d_160_11503" x="44.1913" y="132.012" width="16.7461" height="17.8588" filterUnits="userSpaceOnUse" color-interpolation-filters="sRGB">
<feFlood flood-opacity="0" result="BackgroundImageFix"/>
<feColorMatrix in="SourceAlpha" type="matrix" values="0 0 0 0 0 0 0 0 0 0 0 0 0 0 0 0 0 0 127 0" result="hardAlpha"/>
<feOffset dy="1"/>
<feGaussianBlur stdDeviation="0.4"/>
<feColorMatrix type="matrix" values="0 0 0 0 0 0 0 0 0 0 0 0 0 0 0 0 0 0 0.5 0"/>
<feBlend mode="normal" in2="BackgroundImageFix" result="effect1_dropShadow_160_11503"/>
<feBlend mode="normal" in="SourceGraphic" in2="effect1_dropShadow_160_11503" result="shape"/>
</filter>
<clipPath id="clip0_160_11503">
<rect width="373" height="242" fill="white"/>
</clipPath>
</defs>
</svg>
