<svg width="850" height="200" viewBox="0 0 850 200" fill="none" xmlns="http://www.w3.org/2000/svg">
<rect width="850" height="200" fill="white"/>
<rect width="756" height="69" transform="translate(81 111)" fill="white"/>
<g clip-path="url(#clip0_126_26354)">
<path d="M97.5 133C97.5 129.962 99.9624 127.5 103 127.5H246C249.038 127.5 251.5 129.962 251.5 133V158C251.5 161.038 249.038 163.5 246 163.5H103C99.9624 163.5 97.5 161.038 97.5 158V133Z" fill="white"/>
<path d="M97.5 133C97.5 129.962 99.9624 127.5 103 127.5H246C249.038 127.5 251.5 129.962 251.5 133V158C251.5 161.038 249.038 163.5 246 163.5H103C99.9624 163.5 97.5 161.038 97.5 158V133Z" stroke="#C7C7C7"/>
<path fill-rule="evenodd" clip-rule="evenodd" d="M122.032 152.809L122.806 152.035C123.063 151.778 123.063 151.362 122.809 151.105L120.082 148.379C119.959 148.256 119.793 148.187 119.618 148.187H119.172C119.927 147.222 120.375 146.008 120.375 144.687C120.375 141.546 117.829 139 114.687 139C111.546 139 109 141.546 109 144.687C109 147.829 111.546 150.375 114.687 150.375C116.008 150.375 117.222 149.927 118.187 149.172V149.618C118.187 149.793 118.256 149.959 118.379 150.082L121.105 152.809C121.362 153.066 121.778 153.066 122.032 152.809ZM114.687 148.187C112.754 148.187 111.187 146.623 111.187 144.687C111.187 142.754 112.752 141.187 114.687 141.187C116.621 141.187 118.187 142.752 118.187 144.687C118.187 146.621 116.623 148.187 114.687 148.187Z" fill="#1F1F1F"/>
<path d="M135.246 150V140.2H141.938V141.152H136.324V144.652H140.16V145.59H136.324V150H135.246ZM143.376 150V143.168H144.398V150H143.376ZM143.894 141.474C143.689 141.474 143.511 141.404 143.362 141.264C143.222 141.115 143.152 140.942 143.152 140.746C143.152 140.55 143.222 140.382 143.362 140.242C143.511 140.093 143.689 140.018 143.894 140.018C144.099 140.018 144.272 140.093 144.412 140.242C144.561 140.382 144.636 140.55 144.636 140.746C144.636 140.942 144.561 141.115 144.412 141.264C144.272 141.404 144.099 141.474 143.894 141.474ZM146.493 150V139.892L147.515 139.682V150H146.493ZM152.215 150.14C151.627 150.14 151.179 150 150.871 149.72C150.572 149.431 150.423 149.015 150.423 148.474V144.008H149.009V143.168H150.423V141.292L151.445 141.054V143.168H153.405V144.008H151.445V148.208C151.445 148.572 151.519 148.833 151.669 148.992C151.827 149.151 152.084 149.23 152.439 149.23C152.616 149.23 152.775 149.216 152.915 149.188C153.055 149.16 153.218 149.113 153.405 149.048V149.958C153.218 150.023 153.022 150.07 152.817 150.098C152.611 150.126 152.411 150.14 152.215 150.14ZM157.845 150.14C157.21 150.14 156.636 149.986 156.123 149.678C155.61 149.361 155.204 148.936 154.905 148.404C154.606 147.863 154.457 147.256 154.457 146.584C154.457 145.912 154.597 145.31 154.877 144.778C155.166 144.246 155.554 143.826 156.039 143.518C156.524 143.21 157.066 143.056 157.663 143.056C158.27 143.056 158.806 143.21 159.273 143.518C159.749 143.817 160.122 144.227 160.393 144.75C160.673 145.263 160.813 145.847 160.813 146.5V146.808H155.451C155.488 147.275 155.614 147.695 155.829 148.068C156.053 148.432 156.342 148.721 156.697 148.936C157.061 149.141 157.458 149.244 157.887 149.244C158.242 149.244 158.582 149.183 158.909 149.062C159.245 148.931 159.53 148.759 159.763 148.544L160.407 149.23C160.015 149.538 159.609 149.767 159.189 149.916C158.769 150.065 158.321 150.14 157.845 150.14ZM155.479 146.08H159.805C159.758 145.669 159.632 145.305 159.427 144.988C159.231 144.661 158.979 144.405 158.671 144.218C158.372 144.031 158.036 143.938 157.663 143.938C157.29 143.938 156.949 144.031 156.641 144.218C156.333 144.395 156.076 144.647 155.871 144.974C155.675 145.291 155.544 145.66 155.479 146.08ZM162.558 150V143.168H163.58V144.568C163.757 144.092 164.009 143.723 164.336 143.462C164.672 143.191 165.054 143.056 165.484 143.056C165.605 143.056 165.717 143.065 165.82 143.084C165.922 143.093 166.025 143.117 166.128 143.154V144.078C166.016 144.041 165.894 144.013 165.764 143.994C165.642 143.966 165.526 143.952 165.414 143.952C164.994 143.952 164.625 144.073 164.308 144.316C164 144.559 163.757 144.899 163.58 145.338V150H162.558ZM170.747 150V139.99L171.769 139.78V144.106C172.031 143.779 172.348 143.527 172.721 143.35C173.095 143.173 173.51 143.084 173.967 143.084C174.565 143.084 175.097 143.243 175.563 143.56C176.039 143.868 176.417 144.288 176.697 144.82C176.977 145.343 177.117 145.931 177.117 146.584C177.117 147.237 176.973 147.83 176.683 148.362C176.403 148.894 176.021 149.319 175.535 149.636C175.059 149.944 174.518 150.098 173.911 150.098C173.482 150.098 173.081 150.014 172.707 149.846C172.343 149.669 172.026 149.421 171.755 149.104V150H170.747ZM173.715 149.216C174.173 149.216 174.579 149.104 174.933 148.88C175.297 148.647 175.582 148.334 175.787 147.942C176.002 147.541 176.109 147.093 176.109 146.598C176.109 146.094 176.002 145.646 175.787 145.254C175.582 144.862 175.297 144.554 174.933 144.33C174.579 144.097 174.173 143.98 173.715 143.98C173.314 143.98 172.941 144.064 172.595 144.232C172.259 144.391 171.984 144.619 171.769 144.918V148.264C171.993 148.563 172.273 148.796 172.609 148.964C172.955 149.132 173.323 149.216 173.715 149.216ZM178.998 153.066C178.784 153.066 178.564 153.033 178.34 152.968V152.058C178.434 152.077 178.532 152.091 178.634 152.1C178.737 152.109 178.826 152.114 178.9 152.114C179.162 152.114 179.376 152.044 179.544 151.904C179.722 151.764 179.871 151.545 179.992 151.246L180.496 150L177.864 143.168H178.998L181.07 148.782L183.268 143.168H184.402L180.958 151.554C180.809 151.918 180.646 152.212 180.468 152.436C180.291 152.66 180.086 152.819 179.852 152.912C179.619 153.015 179.334 153.066 178.998 153.066ZM188.945 150V143.168H189.967V144.274C190.228 143.863 190.541 143.56 190.905 143.364C191.269 143.159 191.679 143.056 192.137 143.056C192.631 143.056 193.061 143.163 193.425 143.378C193.798 143.583 194.087 143.877 194.293 144.26C194.507 144.633 194.615 145.072 194.615 145.576V150H193.593V145.87C193.593 145.263 193.425 144.787 193.089 144.442C192.762 144.087 192.319 143.91 191.759 143.91C191.385 143.91 191.045 143.999 190.737 144.176C190.429 144.353 190.172 144.615 189.967 144.96V150H188.945ZM198.783 150.126C198.298 150.126 197.868 150.037 197.495 149.86C197.122 149.683 196.828 149.44 196.613 149.132C196.408 148.815 196.305 148.451 196.305 148.04C196.305 147.629 196.412 147.275 196.627 146.976C196.842 146.668 197.14 146.43 197.523 146.262C197.906 146.094 198.354 146.01 198.867 146.01C199.259 146.01 199.628 146.052 199.973 146.136C200.328 146.22 200.654 146.355 200.953 146.542V145.604C200.953 145.044 200.804 144.624 200.505 144.344C200.206 144.055 199.768 143.91 199.189 143.91C198.872 143.91 198.545 143.957 198.209 144.05C197.882 144.143 197.518 144.293 197.117 144.498L196.739 143.714C197.654 143.275 198.512 143.056 199.315 143.056C200.164 143.056 200.818 143.266 201.275 143.686C201.732 144.097 201.961 144.689 201.961 145.464V150H200.953V149.202C200.654 149.51 200.323 149.743 199.959 149.902C199.595 150.051 199.203 150.126 198.783 150.126ZM197.285 148.012C197.285 148.413 197.439 148.735 197.747 148.978C198.064 149.221 198.48 149.342 198.993 149.342C199.376 149.342 199.726 149.277 200.043 149.146C200.37 149.015 200.673 148.819 200.953 148.558V147.242C200.664 147.074 200.365 146.953 200.057 146.878C199.749 146.794 199.404 146.752 199.021 146.752C198.498 146.752 198.078 146.869 197.761 147.102C197.444 147.326 197.285 147.629 197.285 148.012ZM204.038 150V143.168H205.06V144.232C205.322 143.84 205.62 143.546 205.956 143.35C206.292 143.154 206.67 143.056 207.09 143.056C207.576 143.056 208 143.177 208.364 143.42C208.728 143.653 209.004 143.975 209.19 144.386C209.461 143.947 209.783 143.616 210.156 143.392C210.539 143.168 210.978 143.056 211.472 143.056C211.93 143.056 212.331 143.163 212.676 143.378C213.031 143.593 213.306 143.891 213.502 144.274C213.698 144.647 213.796 145.086 213.796 145.59V150H212.774V145.842C212.774 145.245 212.625 144.773 212.326 144.428C212.028 144.083 211.617 143.91 211.094 143.91C210.74 143.91 210.418 143.999 210.128 144.176C209.848 144.353 209.601 144.624 209.386 144.988C209.405 145.081 209.419 145.179 209.428 145.282C209.438 145.385 209.442 145.487 209.442 145.59V150H208.42V145.842C208.42 145.245 208.266 144.773 207.958 144.428C207.66 144.083 207.249 143.91 206.726 143.91C206.026 143.91 205.471 144.246 205.06 144.918V150H204.038ZM218.944 150.14C218.31 150.14 217.736 149.986 217.222 149.678C216.709 149.361 216.303 148.936 216.004 148.404C215.706 147.863 215.556 147.256 215.556 146.584C215.556 145.912 215.696 145.31 215.976 144.778C216.266 144.246 216.653 143.826 217.138 143.518C217.624 143.21 218.165 143.056 218.762 143.056C219.369 143.056 219.906 143.21 220.372 143.518C220.848 143.817 221.222 144.227 221.492 144.75C221.772 145.263 221.912 145.847 221.912 146.5V146.808H216.55C216.588 147.275 216.714 147.695 216.928 148.068C217.152 148.432 217.442 148.721 217.796 148.936C218.16 149.141 218.557 149.244 218.986 149.244C219.341 149.244 219.682 149.183 220.008 149.062C220.344 148.931 220.629 148.759 220.862 148.544L221.506 149.23C221.114 149.538 220.708 149.767 220.288 149.916C219.868 150.065 219.42 150.14 218.944 150.14ZM216.578 146.08H220.904C220.858 145.669 220.732 145.305 220.526 144.988C220.33 144.661 220.078 144.405 219.77 144.218C219.472 144.031 219.136 143.938 218.762 143.938C218.389 143.938 218.048 144.031 217.74 144.218C217.432 144.395 217.176 144.647 216.97 144.974C216.774 145.291 216.644 145.66 216.578 146.08Z" fill="#4D4D4D"/>
<path d="M256.5 133C256.5 129.962 258.962 127.5 262 127.5H296C299.038 127.5 301.5 129.962 301.5 133V158C301.5 161.038 299.038 163.5 296 163.5H262C258.962 163.5 256.5 161.038 256.5 158V133Z" fill="white"/>
<path d="M256.5 133C256.5 129.962 258.962 127.5 262 127.5H296C299.038 127.5 301.5 129.962 301.5 133V158C301.5 161.038 299.038 163.5 296 163.5H262C258.962 163.5 256.5 161.038 256.5 158V133Z" stroke="#C7C7C7"/>
<path fill-rule="evenodd" clip-rule="evenodd" d="M279.326 151.415L284.642 146.099C284.899 145.845 284.899 145.429 284.642 145.172L279.326 139.859C279.072 139.602 278.656 139.602 278.399 139.859L277.792 140.466C277.53 140.726 277.535 141.15 277.803 141.404L281.098 144.543H273.24C272.876 144.543 272.583 144.836 272.583 145.2V146.075C272.583 146.438 272.876 146.731 273.24 146.731H281.098L277.803 149.87C277.538 150.124 277.533 150.548 277.792 150.808L278.399 151.415C278.654 151.672 279.069 151.672 279.326 151.415Z" fill="#1F1F1F"/>
</g>
<path d="M318 145.5C318 135.283 326.283 127 336.5 127H388.5C398.717 127 407 135.283 407 145.5C407 155.717 398.717 164 388.5 164H336.5C326.283 164 318 155.717 318 145.5Z" fill="#0066CC"/>
<path d="M342.126 150L346.004 140.2H347.292L351.114 150H349.952L348.79 146.92H344.422L343.26 150H342.126ZM344.758 146.066H348.468L346.606 141.18L344.758 146.066ZM355.085 150.112C354.45 150.112 353.876 149.958 353.363 149.65C352.859 149.333 352.457 148.908 352.159 148.376C351.86 147.835 351.711 147.237 351.711 146.584C351.711 145.921 351.86 145.324 352.159 144.792C352.457 144.26 352.859 143.84 353.363 143.532C353.876 143.215 354.45 143.056 355.085 143.056C355.589 143.056 356.069 143.149 356.527 143.336C356.984 143.523 357.381 143.784 357.717 144.12L357.059 144.834C356.816 144.563 356.522 144.353 356.177 144.204C355.831 144.055 355.481 143.98 355.127 143.98C354.679 143.98 354.273 144.097 353.909 144.33C353.554 144.563 353.269 144.876 353.055 145.268C352.84 145.66 352.733 146.099 352.733 146.584C352.733 147.069 352.84 147.508 353.055 147.9C353.269 148.292 353.554 148.605 353.909 148.838C354.273 149.071 354.679 149.188 355.127 149.188C355.481 149.188 355.831 149.113 356.177 148.964C356.522 148.805 356.816 148.595 357.059 148.334L357.717 149.048C357.381 149.384 356.984 149.645 356.527 149.832C356.069 150.019 355.589 150.112 355.085 150.112ZM361.883 150.14C361.295 150.14 360.847 150 360.539 149.72C360.24 149.431 360.091 149.015 360.091 148.474V144.008H358.677V143.168H360.091V141.292L361.113 141.054V143.168H363.073V144.008H361.113V148.208C361.113 148.572 361.187 148.833 361.337 148.992C361.495 149.151 361.752 149.23 362.107 149.23C362.284 149.23 362.443 149.216 362.583 149.188C362.723 149.16 362.886 149.113 363.073 149.048V149.958C362.886 150.023 362.69 150.07 362.485 150.098C362.279 150.126 362.079 150.14 361.883 150.14ZM364.556 150V143.168H365.578V150H364.556ZM365.074 141.474C364.868 141.474 364.691 141.404 364.542 141.264C364.402 141.115 364.332 140.942 364.332 140.746C364.332 140.55 364.402 140.382 364.542 140.242C364.691 140.093 364.868 140.018 365.074 140.018C365.279 140.018 365.452 140.093 365.592 140.242C365.741 140.382 365.816 140.55 365.816 140.746C365.816 140.942 365.741 141.115 365.592 141.264C365.452 141.404 365.279 141.474 365.074 141.474ZM370.697 150.112C370.062 150.112 369.493 149.958 368.989 149.65C368.485 149.342 368.088 148.922 367.799 148.39C367.51 147.858 367.365 147.256 367.365 146.584C367.365 145.912 367.51 145.31 367.799 144.778C368.088 144.246 368.485 143.826 368.989 143.518C369.493 143.21 370.062 143.056 370.697 143.056C371.322 143.056 371.882 143.21 372.377 143.518C372.881 143.826 373.278 144.246 373.567 144.778C373.856 145.31 374.001 145.912 374.001 146.584C374.001 147.256 373.856 147.858 373.567 148.39C373.278 148.922 372.881 149.342 372.377 149.65C371.882 149.958 371.322 150.112 370.697 150.112ZM370.683 149.216C371.131 149.216 371.528 149.104 371.873 148.88C372.218 148.647 372.489 148.329 372.685 147.928C372.89 147.527 372.993 147.079 372.993 146.584C372.993 146.08 372.89 145.632 372.685 145.24C372.489 144.839 372.218 144.526 371.873 144.302C371.528 144.069 371.131 143.952 370.683 143.952C370.235 143.952 369.838 144.069 369.493 144.302C369.148 144.526 368.872 144.839 368.667 145.24C368.471 145.632 368.373 146.08 368.373 146.584C368.373 147.079 368.471 147.527 368.667 147.928C368.872 148.329 369.148 148.647 369.493 148.88C369.838 149.104 370.235 149.216 370.683 149.216ZM375.794 150V143.168H376.816V144.274C377.077 143.863 377.39 143.56 377.754 143.364C378.118 143.159 378.529 143.056 378.986 143.056C379.481 143.056 379.91 143.163 380.274 143.378C380.647 143.583 380.937 143.877 381.142 144.26C381.357 144.633 381.464 145.072 381.464 145.576V150H380.442V145.87C380.442 145.263 380.274 144.787 379.938 144.442C379.611 144.087 379.168 143.91 378.608 143.91C378.235 143.91 377.894 143.999 377.586 144.176C377.278 144.353 377.021 144.615 376.816 144.96V150H375.794Z" fill="white"/>
<mask id="path-8-inside-1_126_26354" fill="white">
<path d="M415 145.5C415 135.283 423.283 127 433.5 127H485.5C495.717 127 504 135.283 504 145.5C504 155.717 495.717 164 485.5 164H433.5C423.283 164 415 155.717 415 145.5Z"/>
</mask>
<path d="M433.5 128H485.5V126H433.5V128ZM485.5 163H433.5V165H485.5V163ZM433.5 163C423.835 163 416 155.165 416 145.5H414C414 156.27 422.73 165 433.5 165V163ZM503 145.5C503 155.165 495.165 163 485.5 163V165C496.27 165 505 156.27 505 145.5H503ZM485.5 128C495.165 128 503 135.835 503 145.5H505C505 134.73 496.27 126 485.5 126V128ZM433.5 126C422.73 126 414 134.73 414 145.5H416C416 135.835 423.835 128 433.5 128V126Z" fill="#0066CC" mask="url(#path-8-inside-1_126_26354)"/>
<path d="M439.126 150L443.004 140.2H444.292L448.114 150H446.952L445.79 146.92H441.422L440.26 150H439.126ZM441.758 146.066H445.468L443.606 141.18L441.758 146.066ZM452.085 150.112C451.45 150.112 450.876 149.958 450.363 149.65C449.859 149.333 449.457 148.908 449.159 148.376C448.86 147.835 448.711 147.237 448.711 146.584C448.711 145.921 448.86 145.324 449.159 144.792C449.457 144.26 449.859 143.84 450.363 143.532C450.876 143.215 451.45 143.056 452.085 143.056C452.589 143.056 453.069 143.149 453.527 143.336C453.984 143.523 454.381 143.784 454.717 144.12L454.059 144.834C453.816 144.563 453.522 144.353 453.177 144.204C452.831 144.055 452.481 143.98 452.127 143.98C451.679 143.98 451.273 144.097 450.909 144.33C450.554 144.563 450.269 144.876 450.055 145.268C449.84 145.66 449.733 146.099 449.733 146.584C449.733 147.069 449.84 147.508 450.055 147.9C450.269 148.292 450.554 148.605 450.909 148.838C451.273 149.071 451.679 149.188 452.127 149.188C452.481 149.188 452.831 149.113 453.177 148.964C453.522 148.805 453.816 148.595 454.059 148.334L454.717 149.048C454.381 149.384 453.984 149.645 453.527 149.832C453.069 150.019 452.589 150.112 452.085 150.112ZM458.883 150.14C458.295 150.14 457.847 150 457.539 149.72C457.24 149.431 457.091 149.015 457.091 148.474V144.008H455.677V143.168H457.091V141.292L458.113 141.054V143.168H460.073V144.008H458.113V148.208C458.113 148.572 458.187 148.833 458.337 148.992C458.495 149.151 458.752 149.23 459.107 149.23C459.284 149.23 459.443 149.216 459.583 149.188C459.723 149.16 459.886 149.113 460.073 149.048V149.958C459.886 150.023 459.69 150.07 459.485 150.098C459.279 150.126 459.079 150.14 458.883 150.14ZM461.556 150V143.168H462.578V150H461.556ZM462.074 141.474C461.868 141.474 461.691 141.404 461.542 141.264C461.402 141.115 461.332 140.942 461.332 140.746C461.332 140.55 461.402 140.382 461.542 140.242C461.691 140.093 461.868 140.018 462.074 140.018C462.279 140.018 462.452 140.093 462.592 140.242C462.741 140.382 462.816 140.55 462.816 140.746C462.816 140.942 462.741 141.115 462.592 141.264C462.452 141.404 462.279 141.474 462.074 141.474ZM467.697 150.112C467.062 150.112 466.493 149.958 465.989 149.65C465.485 149.342 465.088 148.922 464.799 148.39C464.51 147.858 464.365 147.256 464.365 146.584C464.365 145.912 464.51 145.31 464.799 144.778C465.088 144.246 465.485 143.826 465.989 143.518C466.493 143.21 467.062 143.056 467.697 143.056C468.322 143.056 468.882 143.21 469.377 143.518C469.881 143.826 470.278 144.246 470.567 144.778C470.856 145.31 471.001 145.912 471.001 146.584C471.001 147.256 470.856 147.858 470.567 148.39C470.278 148.922 469.881 149.342 469.377 149.65C468.882 149.958 468.322 150.112 467.697 150.112ZM467.683 149.216C468.131 149.216 468.528 149.104 468.873 148.88C469.218 148.647 469.489 148.329 469.685 147.928C469.89 147.527 469.993 147.079 469.993 146.584C469.993 146.08 469.89 145.632 469.685 145.24C469.489 144.839 469.218 144.526 468.873 144.302C468.528 144.069 468.131 143.952 467.683 143.952C467.235 143.952 466.838 144.069 466.493 144.302C466.148 144.526 465.872 144.839 465.667 145.24C465.471 145.632 465.373 146.08 465.373 146.584C465.373 147.079 465.471 147.527 465.667 147.928C465.872 148.329 466.148 148.647 466.493 148.88C466.838 149.104 467.235 149.216 467.683 149.216ZM472.794 150V143.168H473.816V144.274C474.077 143.863 474.39 143.56 474.754 143.364C475.118 143.159 475.529 143.056 475.986 143.056C476.481 143.056 476.91 143.163 477.274 143.378C477.647 143.583 477.937 143.877 478.142 144.26C478.357 144.633 478.464 145.072 478.464 145.576V150H477.442V145.87C477.442 145.263 477.274 144.787 476.938 144.442C476.611 144.087 476.168 143.91 475.608 143.91C475.235 143.91 474.894 143.999 474.586 144.176C474.278 144.353 474.021 144.615 473.816 144.96V150H472.794Z" fill="#0066CC"/>
<path fill-rule="evenodd" clip-rule="evenodd" d="M535.292 142.565C536.42 142.565 537.333 141.656 537.333 140.532C537.333 139.409 536.42 138.5 535.292 138.5C534.163 138.5 533.25 139.409 533.25 140.532C533.25 141.656 534.163 142.565 535.292 142.565ZM535.292 147.532C536.42 147.532 537.333 146.623 537.333 145.5C537.333 144.377 536.42 143.468 535.292 143.468C534.163 143.468 533.25 144.377 533.25 145.5C533.25 146.623 534.163 147.532 535.292 147.532ZM535.292 152.5C536.42 152.5 537.333 151.591 537.333 150.468C537.333 149.344 536.42 148.435 535.292 148.435C534.163 148.435 533.25 149.344 533.25 150.468C533.25 151.591 534.163 152.5 535.292 152.5Z" fill="#1F1F1F"/>
<path d="M604.254 150V141.81L602.518 142.552V141.194L604.814 140.2H605.78V150H604.254ZM610.714 146.696V145.352H615.6V146.696H610.714ZM620.255 150V148.894L624.273 144.694C624.516 144.442 624.702 144.213 624.833 144.008C624.973 143.803 625.071 143.607 625.127 143.42C625.192 143.224 625.225 143.023 625.225 142.818C625.225 142.407 625.057 142.067 624.721 141.796C624.385 141.525 623.96 141.39 623.447 141.39C622.999 141.39 622.579 141.479 622.187 141.656C621.795 141.833 621.366 142.141 620.899 142.58L620.031 141.53C620.572 141.035 621.128 140.667 621.697 140.424C622.266 140.172 622.859 140.046 623.475 140.046C624.119 140.046 624.684 140.163 625.169 140.396C625.654 140.62 626.032 140.933 626.303 141.334C626.574 141.735 626.709 142.202 626.709 142.734C626.709 143.051 626.667 143.35 626.583 143.63C626.499 143.91 626.354 144.195 626.149 144.484C625.953 144.773 625.678 145.105 625.323 145.478L622.201 148.698L626.891 148.684V150H620.255ZM632.243 150.14C631.45 150.14 630.75 149.93 630.143 149.51C629.546 149.081 629.075 148.488 628.729 147.732C628.393 146.967 628.225 146.089 628.225 145.1C628.225 144.092 628.393 143.21 628.729 142.454C629.075 141.698 629.546 141.11 630.143 140.69C630.75 140.261 631.45 140.046 632.243 140.046C633.037 140.046 633.732 140.261 634.329 140.69C634.936 141.11 635.407 141.698 635.743 142.454C636.079 143.21 636.247 144.092 636.247 145.1C636.247 146.089 636.079 146.967 635.743 147.732C635.407 148.488 634.936 149.081 634.329 149.51C633.732 149.93 633.037 150.14 632.243 150.14ZM632.243 148.782C632.747 148.782 633.181 148.633 633.545 148.334C633.919 148.026 634.208 147.597 634.413 147.046C634.619 146.495 634.721 145.847 634.721 145.1C634.721 144.344 634.619 143.691 634.413 143.14C634.208 142.589 633.919 142.165 633.545 141.866C633.181 141.558 632.747 141.404 632.243 141.404C631.739 141.404 631.301 141.558 630.927 141.866C630.563 142.165 630.274 142.589 630.059 143.14C629.854 143.691 629.751 144.344 629.751 145.1C629.751 145.847 629.854 146.495 630.059 147.046C630.274 147.597 630.563 148.026 630.927 148.334C631.301 148.633 631.739 148.782 632.243 148.782Z" fill="#1F1F1F"/>
<path d="M645.074 150.112C644.439 150.112 643.87 149.958 643.366 149.65C642.862 149.342 642.465 148.922 642.176 148.39C641.887 147.858 641.742 147.256 641.742 146.584C641.742 145.912 641.887 145.31 642.176 144.778C642.465 144.246 642.862 143.826 643.366 143.518C643.87 143.21 644.439 143.056 645.074 143.056C645.699 143.056 646.259 143.21 646.754 143.518C647.258 143.826 647.655 144.246 647.944 144.778C648.233 145.31 648.378 145.912 648.378 146.584C648.378 147.256 648.233 147.858 647.944 148.39C647.655 148.922 647.258 149.342 646.754 149.65C646.259 149.958 645.699 150.112 645.074 150.112ZM645.06 149.216C645.508 149.216 645.905 149.104 646.25 148.88C646.595 148.647 646.866 148.329 647.062 147.928C647.267 147.527 647.37 147.079 647.37 146.584C647.37 146.08 647.267 145.632 647.062 145.24C646.866 144.839 646.595 144.526 646.25 144.302C645.905 144.069 645.508 143.952 645.06 143.952C644.612 143.952 644.215 144.069 643.87 144.302C643.525 144.526 643.249 144.839 643.044 145.24C642.848 145.632 642.75 146.08 642.75 146.584C642.75 147.079 642.848 147.527 643.044 147.928C643.249 148.329 643.525 148.647 643.87 148.88C644.215 149.104 644.612 149.216 645.06 149.216ZM650.615 150V144.008H649.089V143.168H650.615V141.74C650.615 141.068 650.793 140.55 651.147 140.186C651.502 139.822 652.006 139.64 652.659 139.64C652.846 139.64 653.014 139.649 653.163 139.668C653.322 139.687 653.462 139.719 653.583 139.766V140.69C653.434 140.643 653.299 140.611 653.177 140.592C653.056 140.573 652.916 140.564 652.757 140.564C652.365 140.564 652.081 140.662 651.903 140.858C651.726 141.045 651.637 141.343 651.637 141.754V143.168H653.583V144.008H651.637V150H650.615Z" fill="#1F1F1F"/>
<path d="M661.934 150.154C660.609 150.154 659.461 149.711 658.49 148.824L659.414 147.774C659.834 148.147 660.245 148.418 660.646 148.586C661.057 148.754 661.505 148.838 661.99 148.838C662.41 148.838 662.774 148.759 663.082 148.6C663.399 148.441 663.642 148.217 663.81 147.928C663.987 147.629 664.076 147.293 664.076 146.92C664.076 146.369 663.875 145.926 663.474 145.59C663.082 145.245 662.573 145.072 661.948 145.072C661.621 145.072 661.299 145.114 660.982 145.198C660.674 145.282 660.352 145.413 660.016 145.59L658.938 145.268L659.162 140.2H665.112V141.516H660.506L660.38 144.33C660.735 144.153 661.071 144.036 661.388 143.98C661.715 143.915 662.046 143.882 662.382 143.882C663.035 143.882 663.605 144.008 664.09 144.26C664.575 144.503 664.953 144.848 665.224 145.296C665.495 145.735 665.63 146.248 665.63 146.836C665.63 147.499 665.476 148.077 665.168 148.572C664.86 149.067 664.426 149.454 663.866 149.734C663.315 150.014 662.671 150.154 661.934 150.154ZM666.821 150V148.894L670.839 144.694C671.082 144.442 671.269 144.213 671.399 144.008C671.539 143.803 671.637 143.607 671.693 143.42C671.759 143.224 671.791 143.023 671.791 142.818C671.791 142.407 671.623 142.067 671.287 141.796C670.951 141.525 670.527 141.39 670.013 141.39C669.565 141.39 669.145 141.479 668.753 141.656C668.361 141.833 667.932 142.141 667.465 142.58L666.597 141.53C667.139 141.035 667.694 140.667 668.263 140.424C668.833 140.172 669.425 140.046 670.041 140.046C670.685 140.046 671.25 140.163 671.735 140.396C672.221 140.62 672.599 140.933 672.869 141.334C673.14 141.735 673.275 142.202 673.275 142.734C673.275 143.051 673.233 143.35 673.149 143.63C673.065 143.91 672.921 144.195 672.715 144.484C672.519 144.773 672.244 145.105 671.889 145.478L668.767 148.698L673.457 148.684V150H666.821ZM678.208 150.154C677.48 150.154 676.803 150.028 676.178 149.776C675.552 149.515 675.02 149.151 674.582 148.684L675.604 147.704C675.996 148.115 676.388 148.404 676.78 148.572C677.172 148.731 677.638 148.81 678.18 148.81C678.609 148.81 678.982 148.745 679.3 148.614C679.626 148.474 679.878 148.283 680.056 148.04C680.233 147.797 680.322 147.513 680.322 147.186C680.322 146.897 680.247 146.64 680.098 146.416C679.948 146.192 679.743 146.019 679.482 145.898C679.22 145.767 678.917 145.702 678.572 145.702H677.368V144.414H678.446C678.922 144.414 679.3 144.283 679.58 144.022C679.869 143.761 680.014 143.406 680.014 142.958C680.014 142.669 679.93 142.407 679.762 142.174C679.603 141.931 679.384 141.745 679.104 141.614C678.824 141.474 678.506 141.404 678.152 141.404C677.657 141.404 677.223 141.493 676.85 141.67C676.486 141.838 676.108 142.137 675.716 142.566L674.68 141.6C675.128 141.096 675.655 140.713 676.262 140.452C676.878 140.181 677.522 140.046 678.194 140.046C678.847 140.046 679.426 140.163 679.93 140.396C680.434 140.629 680.826 140.956 681.106 141.376C681.395 141.787 681.54 142.258 681.54 142.79C681.54 143.313 681.367 143.779 681.022 144.19C680.686 144.591 680.242 144.871 679.692 145.03C680.345 145.17 680.868 145.445 681.26 145.856C681.661 146.257 681.862 146.733 681.862 147.284C681.862 147.835 681.703 148.329 681.386 148.768C681.068 149.197 680.634 149.538 680.084 149.79C679.542 150.033 678.917 150.154 678.208 150.154Z" fill="#1F1F1F"/>
<path fill-rule="evenodd" clip-rule="evenodd" d="M699.444 147.982L703.481 143.912C703.877 143.513 703.597 142.833 703.039 142.833H694.961C694.403 142.833 694.123 143.513 694.519 143.912L698.556 147.982C698.801 148.228 699.199 148.228 699.444 147.982Z" fill="#1F1F1F"/>
<path fill-rule="evenodd" clip-rule="evenodd" d="M759.424 149.581L760.042 148.96C760.299 148.706 760.299 148.29 760.042 148.033L757.406 145.397L760.039 142.759C760.296 142.504 760.296 142.089 760.039 141.832L759.421 141.214C759.167 140.957 758.752 140.957 758.494 141.214L754.776 144.932C754.519 145.189 754.519 145.605 754.778 145.862L758.497 149.581C758.752 149.838 759.167 149.838 759.424 149.581Z" fill="#A3A3A3"/>
<path fill-rule="evenodd" clip-rule="evenodd" d="M801.321 149.393L805.04 145.675C805.297 145.417 805.297 145.002 805.037 144.745L801.318 141.026C801.064 140.769 800.648 140.769 800.391 141.026L799.776 141.65C799.519 141.904 799.519 142.319 799.776 142.577L802.412 145.212L799.776 147.848C799.519 148.103 799.519 148.518 799.776 148.775L800.394 149.393C800.648 149.65 801.064 149.65 801.321 149.393Z" fill="#1F1F1F"/>
<rect width="756" height="69" transform="translate(81 20)" fill="white"/>
<path d="M97.5 42C97.5 38.9624 99.9624 36.5 103 36.5H296C299.038 36.5 301.5 38.9624 301.5 42V67C301.5 70.0376 299.038 72.5 296 72.5H103C99.9624 72.5 97.5 70.0376 97.5 67V42Z" fill="white"/>
<path d="M97.5 42C97.5 38.9624 99.9624 36.5 103 36.5H296C299.038 36.5 301.5 38.9624 301.5 42V67C301.5 70.0376 299.038 72.5 296 72.5H103C99.9624 72.5 97.5 70.0376 97.5 67V42Z" stroke="#C7C7C7"/>
<path fill-rule="evenodd" clip-rule="evenodd" d="M122.032 61.8086L122.806 61.0347C123.063 60.7777 123.063 60.3621 122.809 60.1051L120.082 57.3789C119.959 57.2558 119.793 57.1875 119.618 57.1875H119.172C119.927 56.2223 120.375 55.0082 120.375 53.6875C120.375 50.5457 117.829 48 114.687 48C111.546 48 109 50.5457 109 53.6875C109 56.8293 111.546 59.375 114.687 59.375C116.008 59.375 117.222 58.9265 118.187 58.1719V58.6175C118.187 58.7926 118.256 58.9593 118.379 59.0824L121.105 61.8086C121.362 62.0656 121.778 62.0656 122.032 61.8086ZM114.687 57.1875C112.754 57.1875 111.187 55.6234 111.187 53.6875C111.187 51.7543 112.752 50.1875 114.687 50.1875C116.621 50.1875 118.187 51.7516 118.187 53.6875C118.187 55.6207 116.623 57.1875 114.687 57.1875Z" fill="#1F1F1F"/>
<path d="M135.246 59V49.2H141.938V50.152H136.324V53.652H140.16V54.59H136.324V59H135.246ZM143.376 59V52.168H144.398V59H143.376ZM143.894 50.474C143.689 50.474 143.511 50.404 143.362 50.264C143.222 50.1147 143.152 49.942 143.152 49.746C143.152 49.55 143.222 49.382 143.362 49.242C143.511 49.0927 143.689 49.018 143.894 49.018C144.099 49.018 144.272 49.0927 144.412 49.242C144.561 49.382 144.636 49.55 144.636 49.746C144.636 49.942 144.561 50.1147 144.412 50.264C144.272 50.404 144.099 50.474 143.894 50.474ZM146.493 59V48.892L147.515 48.682V59H146.493ZM152.215 59.14C151.627 59.14 151.179 59 150.871 58.72C150.572 58.4307 150.423 58.0153 150.423 57.474V53.008H149.009V52.168H150.423V50.292L151.445 50.054V52.168H153.405V53.008H151.445V57.208C151.445 57.572 151.519 57.8333 151.669 57.992C151.827 58.1507 152.084 58.23 152.439 58.23C152.616 58.23 152.775 58.216 152.915 58.188C153.055 58.16 153.218 58.1133 153.405 58.048V58.958C153.218 59.0233 153.022 59.07 152.817 59.098C152.611 59.126 152.411 59.14 152.215 59.14ZM157.845 59.14C157.21 59.14 156.636 58.986 156.123 58.678C155.61 58.3607 155.204 57.936 154.905 57.404C154.606 56.8627 154.457 56.256 154.457 55.584C154.457 54.912 154.597 54.31 154.877 53.778C155.166 53.246 155.554 52.826 156.039 52.518C156.524 52.21 157.066 52.056 157.663 52.056C158.27 52.056 158.806 52.21 159.273 52.518C159.749 52.8167 160.122 53.2273 160.393 53.75C160.673 54.2633 160.813 54.8467 160.813 55.5V55.808H155.451C155.488 56.2747 155.614 56.6947 155.829 57.068C156.053 57.432 156.342 57.7213 156.697 57.936C157.061 58.1413 157.458 58.244 157.887 58.244C158.242 58.244 158.582 58.1833 158.909 58.062C159.245 57.9313 159.53 57.7587 159.763 57.544L160.407 58.23C160.015 58.538 159.609 58.7667 159.189 58.916C158.769 59.0653 158.321 59.14 157.845 59.14ZM155.479 55.08H159.805C159.758 54.6693 159.632 54.3053 159.427 53.988C159.231 53.6613 158.979 53.4047 158.671 53.218C158.372 53.0313 158.036 52.938 157.663 52.938C157.29 52.938 156.949 53.0313 156.641 53.218C156.333 53.3953 156.076 53.6473 155.871 53.974C155.675 54.2913 155.544 54.66 155.479 55.08ZM162.558 59V52.168H163.58V53.568C163.757 53.092 164.009 52.7233 164.336 52.462C164.672 52.1913 165.054 52.056 165.484 52.056C165.605 52.056 165.717 52.0653 165.82 52.084C165.922 52.0933 166.025 52.1167 166.128 52.154V53.078C166.016 53.0407 165.894 53.0127 165.764 52.994C165.642 52.966 165.526 52.952 165.414 52.952C164.994 52.952 164.625 53.0733 164.308 53.316C164 53.5587 163.757 53.8993 163.58 54.338V59H162.558ZM170.747 59V48.99L171.769 48.78V53.106C172.031 52.7793 172.348 52.5273 172.721 52.35C173.095 52.1727 173.51 52.084 173.967 52.084C174.565 52.084 175.097 52.2427 175.563 52.56C176.039 52.868 176.417 53.288 176.697 53.82C176.977 54.3427 177.117 54.9307 177.117 55.584C177.117 56.2373 176.973 56.83 176.683 57.362C176.403 57.894 176.021 58.3187 175.535 58.636C175.059 58.944 174.518 59.098 173.911 59.098C173.482 59.098 173.081 59.014 172.707 58.846C172.343 58.6687 172.026 58.4213 171.755 58.104V59H170.747ZM173.715 58.216C174.173 58.216 174.579 58.104 174.933 57.88C175.297 57.6467 175.582 57.334 175.787 56.942C176.002 56.5407 176.109 56.0927 176.109 55.598C176.109 55.094 176.002 54.646 175.787 54.254C175.582 53.862 175.297 53.554 174.933 53.33C174.579 53.0967 174.173 52.98 173.715 52.98C173.314 52.98 172.941 53.064 172.595 53.232C172.259 53.3907 171.984 53.6193 171.769 53.918V57.264C171.993 57.5627 172.273 57.796 172.609 57.964C172.955 58.132 173.323 58.216 173.715 58.216ZM178.998 62.066C178.784 62.066 178.564 62.0333 178.34 61.968V61.058C178.434 61.0767 178.532 61.0907 178.634 61.1C178.737 61.1093 178.826 61.114 178.9 61.114C179.162 61.114 179.376 61.044 179.544 60.904C179.722 60.764 179.871 60.5447 179.992 60.246L180.496 59L177.864 52.168H178.998L181.07 57.782L183.268 52.168H184.402L180.958 60.554C180.809 60.918 180.646 61.212 180.468 61.436C180.291 61.66 180.086 61.8187 179.852 61.912C179.619 62.0147 179.334 62.066 178.998 62.066ZM188.945 59V52.168H189.967V53.274C190.228 52.8633 190.541 52.56 190.905 52.364C191.269 52.1587 191.679 52.056 192.137 52.056C192.631 52.056 193.061 52.1633 193.425 52.378C193.798 52.5833 194.087 52.8773 194.293 53.26C194.507 53.6333 194.615 54.072 194.615 54.576V59H193.593V54.87C193.593 54.2633 193.425 53.7873 193.089 53.442C192.762 53.0873 192.319 52.91 191.759 52.91C191.385 52.91 191.045 52.9987 190.737 53.176C190.429 53.3533 190.172 53.6147 189.967 53.96V59H188.945ZM198.783 59.126C198.298 59.126 197.868 59.0373 197.495 58.86C197.122 58.6827 196.828 58.44 196.613 58.132C196.408 57.8147 196.305 57.4507 196.305 57.04C196.305 56.6293 196.412 56.2747 196.627 55.976C196.842 55.668 197.14 55.43 197.523 55.262C197.906 55.094 198.354 55.01 198.867 55.01C199.259 55.01 199.628 55.052 199.973 55.136C200.328 55.22 200.654 55.3553 200.953 55.542V54.604C200.953 54.044 200.804 53.624 200.505 53.344C200.206 53.0547 199.768 52.91 199.189 52.91C198.872 52.91 198.545 52.9567 198.209 53.05C197.882 53.1433 197.518 53.2927 197.117 53.498L196.739 52.714C197.654 52.2753 198.512 52.056 199.315 52.056C200.164 52.056 200.818 52.266 201.275 52.686C201.732 53.0967 201.961 53.6893 201.961 54.464V59H200.953V58.202C200.654 58.51 200.323 58.7433 199.959 58.902C199.595 59.0513 199.203 59.126 198.783 59.126ZM197.285 57.012C197.285 57.4133 197.439 57.7353 197.747 57.978C198.064 58.2207 198.48 58.342 198.993 58.342C199.376 58.342 199.726 58.2767 200.043 58.146C200.37 58.0153 200.673 57.8193 200.953 57.558V56.242C200.664 56.074 200.365 55.9527 200.057 55.878C199.749 55.794 199.404 55.752 199.021 55.752C198.498 55.752 198.078 55.8687 197.761 56.102C197.444 56.326 197.285 56.6293 197.285 57.012ZM204.038 59V52.168H205.06V53.232C205.322 52.84 205.62 52.546 205.956 52.35C206.292 52.154 206.67 52.056 207.09 52.056C207.576 52.056 208 52.1773 208.364 52.42C208.728 52.6533 209.004 52.9753 209.19 53.386C209.461 52.9473 209.783 52.616 210.156 52.392C210.539 52.168 210.978 52.056 211.472 52.056C211.93 52.056 212.331 52.1633 212.676 52.378C213.031 52.5927 213.306 52.8913 213.502 53.274C213.698 53.6473 213.796 54.086 213.796 54.59V59H212.774V54.842C212.774 54.2447 212.625 53.7733 212.326 53.428C212.028 53.0827 211.617 52.91 211.094 52.91C210.74 52.91 210.418 52.9987 210.128 53.176C209.848 53.3533 209.601 53.624 209.386 53.988C209.405 54.0813 209.419 54.1793 209.428 54.282C209.438 54.3847 209.442 54.4873 209.442 54.59V59H208.42V54.842C208.42 54.2447 208.266 53.7733 207.958 53.428C207.66 53.0827 207.249 52.91 206.726 52.91C206.026 52.91 205.471 53.246 205.06 53.918V59H204.038ZM218.944 59.14C218.31 59.14 217.736 58.986 217.222 58.678C216.709 58.3607 216.303 57.936 216.004 57.404C215.706 56.8627 215.556 56.256 215.556 55.584C215.556 54.912 215.696 54.31 215.976 53.778C216.266 53.246 216.653 52.826 217.138 52.518C217.624 52.21 218.165 52.056 218.762 52.056C219.369 52.056 219.906 52.21 220.372 52.518C220.848 52.8167 221.222 53.2273 221.492 53.75C221.772 54.2633 221.912 54.8467 221.912 55.5V55.808H216.55C216.588 56.2747 216.714 56.6947 216.928 57.068C217.152 57.432 217.442 57.7213 217.796 57.936C218.16 58.1413 218.557 58.244 218.986 58.244C219.341 58.244 219.682 58.1833 220.008 58.062C220.344 57.9313 220.629 57.7587 220.862 57.544L221.506 58.23C221.114 58.538 220.708 58.7667 220.288 58.916C219.868 59.0653 219.42 59.14 218.944 59.14ZM216.578 55.08H220.904C220.858 54.6693 220.732 54.3053 220.526 53.988C220.33 53.6613 220.078 53.4047 219.77 53.218C219.472 53.0313 219.136 52.938 218.762 52.938C218.389 52.938 218.048 53.0313 217.74 53.218C217.432 53.3953 217.176 53.6473 216.97 53.974C216.774 54.2913 216.644 54.66 216.578 55.08Z" fill="#4D4D4D"/>
<path d="M318 54.5C318 44.2827 326.283 36 336.5 36H388.5C398.717 36 407 44.2827 407 54.5C407 64.7173 398.717 73 388.5 73H336.5C326.283 73 318 64.7173 318 54.5Z" fill="#0066CC"/>
<path d="M342.126 59L346.004 49.2H347.292L351.114 59H349.952L348.79 55.92H344.422L343.26 59H342.126ZM344.758 55.066H348.468L346.606 50.18L344.758 55.066ZM355.085 59.112C354.45 59.112 353.876 58.958 353.363 58.65C352.859 58.3327 352.457 57.908 352.159 57.376C351.86 56.8347 351.711 56.2373 351.711 55.584C351.711 54.9213 351.86 54.324 352.159 53.792C352.457 53.26 352.859 52.84 353.363 52.532C353.876 52.2147 354.45 52.056 355.085 52.056C355.589 52.056 356.069 52.1493 356.527 52.336C356.984 52.5227 357.381 52.784 357.717 53.12L357.059 53.834C356.816 53.5633 356.522 53.3533 356.177 53.204C355.831 53.0547 355.481 52.98 355.127 52.98C354.679 52.98 354.273 53.0967 353.909 53.33C353.554 53.5633 353.269 53.876 353.055 54.268C352.84 54.66 352.733 55.0987 352.733 55.584C352.733 56.0693 352.84 56.508 353.055 56.9C353.269 57.292 353.554 57.6047 353.909 57.838C354.273 58.0713 354.679 58.188 355.127 58.188C355.481 58.188 355.831 58.1133 356.177 57.964C356.522 57.8053 356.816 57.5953 357.059 57.334L357.717 58.048C357.381 58.384 356.984 58.6453 356.527 58.832C356.069 59.0187 355.589 59.112 355.085 59.112ZM361.883 59.14C361.295 59.14 360.847 59 360.539 58.72C360.24 58.4307 360.091 58.0153 360.091 57.474V53.008H358.677V52.168H360.091V50.292L361.113 50.054V52.168H363.073V53.008H361.113V57.208C361.113 57.572 361.187 57.8333 361.337 57.992C361.495 58.1507 361.752 58.23 362.107 58.23C362.284 58.23 362.443 58.216 362.583 58.188C362.723 58.16 362.886 58.1133 363.073 58.048V58.958C362.886 59.0233 362.69 59.07 362.485 59.098C362.279 59.126 362.079 59.14 361.883 59.14ZM364.556 59V52.168H365.578V59H364.556ZM365.074 50.474C364.868 50.474 364.691 50.404 364.542 50.264C364.402 50.1147 364.332 49.942 364.332 49.746C364.332 49.55 364.402 49.382 364.542 49.242C364.691 49.0927 364.868 49.018 365.074 49.018C365.279 49.018 365.452 49.0927 365.592 49.242C365.741 49.382 365.816 49.55 365.816 49.746C365.816 49.942 365.741 50.1147 365.592 50.264C365.452 50.404 365.279 50.474 365.074 50.474ZM370.697 59.112C370.062 59.112 369.493 58.958 368.989 58.65C368.485 58.342 368.088 57.922 367.799 57.39C367.51 56.858 367.365 56.256 367.365 55.584C367.365 54.912 367.51 54.31 367.799 53.778C368.088 53.246 368.485 52.826 368.989 52.518C369.493 52.21 370.062 52.056 370.697 52.056C371.322 52.056 371.882 52.21 372.377 52.518C372.881 52.826 373.278 53.246 373.567 53.778C373.856 54.31 374.001 54.912 374.001 55.584C374.001 56.256 373.856 56.858 373.567 57.39C373.278 57.922 372.881 58.342 372.377 58.65C371.882 58.958 371.322 59.112 370.697 59.112ZM370.683 58.216C371.131 58.216 371.528 58.104 371.873 57.88C372.218 57.6467 372.489 57.3293 372.685 56.928C372.89 56.5267 372.993 56.0787 372.993 55.584C372.993 55.08 372.89 54.632 372.685 54.24C372.489 53.8387 372.218 53.526 371.873 53.302C371.528 53.0687 371.131 52.952 370.683 52.952C370.235 52.952 369.838 53.0687 369.493 53.302C369.148 53.526 368.872 53.8387 368.667 54.24C368.471 54.632 368.373 55.08 368.373 55.584C368.373 56.0787 368.471 56.5267 368.667 56.928C368.872 57.3293 369.148 57.6467 369.493 57.88C369.838 58.104 370.235 58.216 370.683 58.216ZM375.794 59V52.168H376.816V53.274C377.077 52.8633 377.39 52.56 377.754 52.364C378.118 52.1587 378.529 52.056 378.986 52.056C379.481 52.056 379.91 52.1633 380.274 52.378C380.647 52.5833 380.937 52.8773 381.142 53.26C381.357 53.6333 381.464 54.072 381.464 54.576V59H380.442V54.87C380.442 54.2633 380.274 53.7873 379.938 53.442C379.611 53.0873 379.168 52.91 378.608 52.91C378.235 52.91 377.894 52.9987 377.586 53.176C377.278 53.3533 377.021 53.6147 376.816 53.96V59H375.794Z" fill="white"/>
<mask id="path-27-inside-2_126_26354" fill="white">
<path d="M415 54.5C415 44.2827 423.283 36 433.5 36H485.5C495.717 36 504 44.2827 504 54.5C504 64.7173 495.717 73 485.5 73H433.5C423.283 73 415 64.7173 415 54.5Z"/>
</mask>
<path d="M433.5 37H485.5V35H433.5V37ZM485.5 72H433.5V74H485.5V72ZM433.5 72C423.835 72 416 64.165 416 54.5H414C414 65.2696 422.73 74 433.5 74V72ZM503 54.5C503 64.165 495.165 72 485.5 72V74C496.27 74 505 65.2696 505 54.5H503ZM485.5 37C495.165 37 503 44.835 503 54.5H505C505 43.7304 496.27 35 485.5 35V37ZM433.5 35C422.73 35 414 43.7304 414 54.5H416C416 44.835 423.835 37 433.5 37V35Z" fill="#0066CC" mask="url(#path-27-inside-2_126_26354)"/>
<path d="M439.126 59L443.004 49.2H444.292L448.114 59H446.952L445.79 55.92H441.422L440.26 59H439.126ZM441.758 55.066H445.468L443.606 50.18L441.758 55.066ZM452.085 59.112C451.45 59.112 450.876 58.958 450.363 58.65C449.859 58.3327 449.457 57.908 449.159 57.376C448.86 56.8347 448.711 56.2373 448.711 55.584C448.711 54.9213 448.86 54.324 449.159 53.792C449.457 53.26 449.859 52.84 450.363 52.532C450.876 52.2147 451.45 52.056 452.085 52.056C452.589 52.056 453.069 52.1493 453.527 52.336C453.984 52.5227 454.381 52.784 454.717 53.12L454.059 53.834C453.816 53.5633 453.522 53.3533 453.177 53.204C452.831 53.0547 452.481 52.98 452.127 52.98C451.679 52.98 451.273 53.0967 450.909 53.33C450.554 53.5633 450.269 53.876 450.055 54.268C449.84 54.66 449.733 55.0987 449.733 55.584C449.733 56.0693 449.84 56.508 450.055 56.9C450.269 57.292 450.554 57.6047 450.909 57.838C451.273 58.0713 451.679 58.188 452.127 58.188C452.481 58.188 452.831 58.1133 453.177 57.964C453.522 57.8053 453.816 57.5953 454.059 57.334L454.717 58.048C454.381 58.384 453.984 58.6453 453.527 58.832C453.069 59.0187 452.589 59.112 452.085 59.112ZM458.883 59.14C458.295 59.14 457.847 59 457.539 58.72C457.24 58.4307 457.091 58.0153 457.091 57.474V53.008H455.677V52.168H457.091V50.292L458.113 50.054V52.168H460.073V53.008H458.113V57.208C458.113 57.572 458.187 57.8333 458.337 57.992C458.495 58.1507 458.752 58.23 459.107 58.23C459.284 58.23 459.443 58.216 459.583 58.188C459.723 58.16 459.886 58.1133 460.073 58.048V58.958C459.886 59.0233 459.69 59.07 459.485 59.098C459.279 59.126 459.079 59.14 458.883 59.14ZM461.556 59V52.168H462.578V59H461.556ZM462.074 50.474C461.868 50.474 461.691 50.404 461.542 50.264C461.402 50.1147 461.332 49.942 461.332 49.746C461.332 49.55 461.402 49.382 461.542 49.242C461.691 49.0927 461.868 49.018 462.074 49.018C462.279 49.018 462.452 49.0927 462.592 49.242C462.741 49.382 462.816 49.55 462.816 49.746C462.816 49.942 462.741 50.1147 462.592 50.264C462.452 50.404 462.279 50.474 462.074 50.474ZM467.697 59.112C467.062 59.112 466.493 58.958 465.989 58.65C465.485 58.342 465.088 57.922 464.799 57.39C464.51 56.858 464.365 56.256 464.365 55.584C464.365 54.912 464.51 54.31 464.799 53.778C465.088 53.246 465.485 52.826 465.989 52.518C466.493 52.21 467.062 52.056 467.697 52.056C468.322 52.056 468.882 52.21 469.377 52.518C469.881 52.826 470.278 53.246 470.567 53.778C470.856 54.31 471.001 54.912 471.001 55.584C471.001 56.256 470.856 56.858 470.567 57.39C470.278 57.922 469.881 58.342 469.377 58.65C468.882 58.958 468.322 59.112 467.697 59.112ZM467.683 58.216C468.131 58.216 468.528 58.104 468.873 57.88C469.218 57.6467 469.489 57.3293 469.685 56.928C469.89 56.5267 469.993 56.0787 469.993 55.584C469.993 55.08 469.89 54.632 469.685 54.24C469.489 53.8387 469.218 53.526 468.873 53.302C468.528 53.0687 468.131 52.952 467.683 52.952C467.235 52.952 466.838 53.0687 466.493 53.302C466.148 53.526 465.872 53.8387 465.667 54.24C465.471 54.632 465.373 55.08 465.373 55.584C465.373 56.0787 465.471 56.5267 465.667 56.928C465.872 57.3293 466.148 57.6467 466.493 57.88C466.838 58.104 467.235 58.216 467.683 58.216ZM472.794 59V52.168H473.816V53.274C474.077 52.8633 474.39 52.56 474.754 52.364C475.118 52.1587 475.529 52.056 475.986 52.056C476.481 52.056 476.91 52.1633 477.274 52.378C477.647 52.5833 477.937 52.8773 478.142 53.26C478.357 53.6333 478.464 54.072 478.464 54.576V59H477.442V54.87C477.442 54.2633 477.274 53.7873 476.938 53.442C476.611 53.0873 476.168 52.91 475.608 52.91C475.235 52.91 474.894 52.9987 474.586 53.176C474.278 53.3533 474.021 53.6147 473.816 53.96V59H472.794Z" fill="#0066CC"/>
<path fill-rule="evenodd" clip-rule="evenodd" d="M535.292 51.5645C536.42 51.5645 537.333 50.6556 537.333 49.5323C537.333 48.4089 536.42 47.5 535.292 47.5C534.163 47.5 533.25 48.4089 533.25 49.5323C533.25 50.6556 534.163 51.5645 535.292 51.5645ZM535.292 56.5323C536.42 56.5323 537.333 55.6234 537.333 54.5C537.333 53.3766 536.42 52.4677 535.292 52.4677C534.163 52.4677 533.25 53.3766 533.25 54.5C533.25 55.6234 534.163 56.5323 535.292 56.5323ZM535.292 61.5C536.42 61.5 537.333 60.5911 537.333 59.4677C537.333 58.3444 536.42 57.4355 535.292 57.4355C534.163 57.4355 533.25 58.3444 533.25 59.4677C533.25 60.5911 534.163 61.5 535.292 61.5Z" fill="#1F1F1F"/>
<path d="M604.254 59V50.81L602.518 51.552V50.194L604.814 49.2H605.78V59H604.254ZM610.714 55.696V54.352H615.6V55.696H610.714ZM620.255 59V57.894L624.273 53.694C624.516 53.442 624.702 53.2133 624.833 53.008C624.973 52.8027 625.071 52.6067 625.127 52.42C625.192 52.224 625.225 52.0233 625.225 51.818C625.225 51.4073 625.057 51.0667 624.721 50.796C624.385 50.5253 623.96 50.39 623.447 50.39C622.999 50.39 622.579 50.4787 622.187 50.656C621.795 50.8333 621.366 51.1413 620.899 51.58L620.031 50.53C620.572 50.0353 621.128 49.6667 621.697 49.424C622.266 49.172 622.859 49.046 623.475 49.046C624.119 49.046 624.684 49.1627 625.169 49.396C625.654 49.62 626.032 49.9327 626.303 50.334C626.574 50.7353 626.709 51.202 626.709 51.734C626.709 52.0513 626.667 52.35 626.583 52.63C626.499 52.91 626.354 53.1947 626.149 53.484C625.953 53.7733 625.678 54.1047 625.323 54.478L622.201 57.698L626.891 57.684V59H620.255ZM632.243 59.14C631.45 59.14 630.75 58.93 630.143 58.51C629.546 58.0807 629.075 57.488 628.729 56.732C628.393 55.9667 628.225 55.0893 628.225 54.1C628.225 53.092 628.393 52.21 628.729 51.454C629.075 50.698 629.546 50.11 630.143 49.69C630.75 49.2607 631.45 49.046 632.243 49.046C633.037 49.046 633.732 49.2607 634.329 49.69C634.936 50.11 635.407 50.698 635.743 51.454C636.079 52.21 636.247 53.092 636.247 54.1C636.247 55.0893 636.079 55.9667 635.743 56.732C635.407 57.488 634.936 58.0807 634.329 58.51C633.732 58.93 633.037 59.14 632.243 59.14ZM632.243 57.782C632.747 57.782 633.181 57.6327 633.545 57.334C633.919 57.026 634.208 56.5967 634.413 56.046C634.619 55.4953 634.721 54.8467 634.721 54.1C634.721 53.344 634.619 52.6907 634.413 52.14C634.208 51.5893 633.919 51.1647 633.545 50.866C633.181 50.558 632.747 50.404 632.243 50.404C631.739 50.404 631.301 50.558 630.927 50.866C630.563 51.1647 630.274 51.5893 630.059 52.14C629.854 52.6907 629.751 53.344 629.751 54.1C629.751 54.8467 629.854 55.4953 630.059 56.046C630.274 56.5967 630.563 57.026 630.927 57.334C631.301 57.6327 631.739 57.782 632.243 57.782Z" fill="#1F1F1F"/>
<path d="M645.074 59.112C644.439 59.112 643.87 58.958 643.366 58.65C642.862 58.342 642.465 57.922 642.176 57.39C641.887 56.858 641.742 56.256 641.742 55.584C641.742 54.912 641.887 54.31 642.176 53.778C642.465 53.246 642.862 52.826 643.366 52.518C643.87 52.21 644.439 52.056 645.074 52.056C645.699 52.056 646.259 52.21 646.754 52.518C647.258 52.826 647.655 53.246 647.944 53.778C648.233 54.31 648.378 54.912 648.378 55.584C648.378 56.256 648.233 56.858 647.944 57.39C647.655 57.922 647.258 58.342 646.754 58.65C646.259 58.958 645.699 59.112 645.074 59.112ZM645.06 58.216C645.508 58.216 645.905 58.104 646.25 57.88C646.595 57.6467 646.866 57.3293 647.062 56.928C647.267 56.5267 647.37 56.0787 647.37 55.584C647.37 55.08 647.267 54.632 647.062 54.24C646.866 53.8387 646.595 53.526 646.25 53.302C645.905 53.0687 645.508 52.952 645.06 52.952C644.612 52.952 644.215 53.0687 643.87 53.302C643.525 53.526 643.249 53.8387 643.044 54.24C642.848 54.632 642.75 55.08 642.75 55.584C642.75 56.0787 642.848 56.5267 643.044 56.928C643.249 57.3293 643.525 57.6467 643.87 57.88C644.215 58.104 644.612 58.216 645.06 58.216ZM650.615 59V53.008H649.089V52.168H650.615V50.74C650.615 50.068 650.793 49.55 651.147 49.186C651.502 48.822 652.006 48.64 652.659 48.64C652.846 48.64 653.014 48.6493 653.163 48.668C653.322 48.6867 653.462 48.7193 653.583 48.766V49.69C653.434 49.6433 653.299 49.6107 653.177 49.592C653.056 49.5733 652.916 49.564 652.757 49.564C652.365 49.564 652.081 49.662 651.903 49.858C651.726 50.0447 651.637 50.3433 651.637 50.754V52.168H653.583V53.008H651.637V59H650.615Z" fill="#1F1F1F"/>
<path d="M661.934 59.154C660.609 59.154 659.461 58.7107 658.49 57.824L659.414 56.774C659.834 57.1473 660.245 57.418 660.646 57.586C661.057 57.754 661.505 57.838 661.99 57.838C662.41 57.838 662.774 57.7587 663.082 57.6C663.399 57.4413 663.642 57.2173 663.81 56.928C663.987 56.6293 664.076 56.2933 664.076 55.92C664.076 55.3693 663.875 54.926 663.474 54.59C663.082 54.2447 662.573 54.072 661.948 54.072C661.621 54.072 661.299 54.114 660.982 54.198C660.674 54.282 660.352 54.4127 660.016 54.59L658.938 54.268L659.162 49.2H665.112V50.516H660.506L660.38 53.33C660.735 53.1527 661.071 53.036 661.388 52.98C661.715 52.9147 662.046 52.882 662.382 52.882C663.035 52.882 663.605 53.008 664.09 53.26C664.575 53.5027 664.953 53.848 665.224 54.296C665.495 54.7347 665.63 55.248 665.63 55.836C665.63 56.4987 665.476 57.0773 665.168 57.572C664.86 58.0667 664.426 58.454 663.866 58.734C663.315 59.014 662.671 59.154 661.934 59.154ZM666.821 59V57.894L670.839 53.694C671.082 53.442 671.269 53.2133 671.399 53.008C671.539 52.8027 671.637 52.6067 671.693 52.42C671.759 52.224 671.791 52.0233 671.791 51.818C671.791 51.4073 671.623 51.0667 671.287 50.796C670.951 50.5253 670.527 50.39 670.013 50.39C669.565 50.39 669.145 50.4787 668.753 50.656C668.361 50.8333 667.932 51.1413 667.465 51.58L666.597 50.53C667.139 50.0353 667.694 49.6667 668.263 49.424C668.833 49.172 669.425 49.046 670.041 49.046C670.685 49.046 671.25 49.1627 671.735 49.396C672.221 49.62 672.599 49.9327 672.869 50.334C673.14 50.7353 673.275 51.202 673.275 51.734C673.275 52.0513 673.233 52.35 673.149 52.63C673.065 52.91 672.921 53.1947 672.715 53.484C672.519 53.7733 672.244 54.1047 671.889 54.478L668.767 57.698L673.457 57.684V59H666.821ZM678.208 59.154C677.48 59.154 676.803 59.028 676.178 58.776C675.552 58.5147 675.02 58.1507 674.582 57.684L675.604 56.704C675.996 57.1147 676.388 57.404 676.78 57.572C677.172 57.7307 677.638 57.81 678.18 57.81C678.609 57.81 678.982 57.7447 679.3 57.614C679.626 57.474 679.878 57.2827 680.056 57.04C680.233 56.7973 680.322 56.5127 680.322 56.186C680.322 55.8967 680.247 55.64 680.098 55.416C679.948 55.192 679.743 55.0193 679.482 54.898C679.22 54.7673 678.917 54.702 678.572 54.702H677.368V53.414H678.446C678.922 53.414 679.3 53.2833 679.58 53.022C679.869 52.7607 680.014 52.406 680.014 51.958C680.014 51.6687 679.93 51.4073 679.762 51.174C679.603 50.9313 679.384 50.7447 679.104 50.614C678.824 50.474 678.506 50.404 678.152 50.404C677.657 50.404 677.223 50.4927 676.85 50.67C676.486 50.838 676.108 51.1367 675.716 51.566L674.68 50.6C675.128 50.096 675.655 49.7133 676.262 49.452C676.878 49.1813 677.522 49.046 678.194 49.046C678.847 49.046 679.426 49.1627 679.93 49.396C680.434 49.6293 680.826 49.956 681.106 50.376C681.395 50.7867 681.54 51.258 681.54 51.79C681.54 52.3127 681.367 52.7793 681.022 53.19C680.686 53.5913 680.242 53.8713 679.692 54.03C680.345 54.17 680.868 54.4453 681.26 54.856C681.661 55.2573 681.862 55.7333 681.862 56.284C681.862 56.8347 681.703 57.3293 681.386 57.768C681.068 58.1973 680.634 58.538 680.084 58.79C679.542 59.0327 678.917 59.154 678.208 59.154Z" fill="#1F1F1F"/>
<path fill-rule="evenodd" clip-rule="evenodd" d="M699.444 56.9817L703.481 52.9117C703.877 52.5132 703.597 51.8333 703.039 51.8333H694.961C694.403 51.8333 694.123 52.5132 694.519 52.9117L698.556 56.9817C698.801 57.2283 699.199 57.2283 699.444 56.9817Z" fill="#1F1F1F"/>
<path fill-rule="evenodd" clip-rule="evenodd" d="M759.424 58.5808L760.042 57.9601C760.299 57.7058 760.299 57.2902 760.042 57.0332L757.406 54.3972L760.039 51.7585C760.296 51.5043 760.296 51.0886 760.039 50.8316L759.421 50.2136C759.167 49.9566 758.752 49.9566 758.494 50.2136L754.776 53.9324C754.519 54.1894 754.519 54.605 754.778 54.8621L758.497 58.5808C758.752 58.8378 759.167 58.8378 759.424 58.5808Z" fill="#A3A3A3"/>
<path fill-rule="evenodd" clip-rule="evenodd" d="M801.321 58.3933L805.04 54.6745C805.297 54.4175 805.297 54.0019 805.037 53.7449L801.318 50.0261C801.064 49.7691 800.648 49.7691 800.391 50.0261L799.776 50.6495C799.519 50.9038 799.519 51.3195 799.776 51.5765L802.412 54.2124L799.776 56.8484C799.519 57.1027 799.519 57.5183 799.776 57.7753L800.394 58.3933C800.648 58.6503 801.064 58.6503 801.321 58.3933Z" fill="#1F1F1F"/>
<path d="M14 42C14 39.7909 15.7909 38 18 38H48C50.2091 38 52 39.7909 52 42V66C52 68.2091 50.2091 70 48 70H18C15.7909 70 14 68.2091 14 66V42Z" fill="#C806CC"/>
<path d="M32.8879 60V49.254L30.6199 50.208V48.624L33.5359 47.4H34.6699V60H32.8879Z" fill="white"/>
<path d="M88.3333 54C88.3333 55.4728 89.5272 56.6667 91 56.6667C92.4728 56.6667 93.6667 55.4728 93.6667 54C93.6667 52.5272 92.4728 51.3333 91 51.3333C89.5272 51.3333 88.3333 52.5272 88.3333 54ZM52 54.5H91V53.5H52V54.5Z" fill="#C806CC"/>
<path d="M14 134C14 131.791 15.7909 130 18 130H52C54.2091 130 56 131.791 56 134V158C56 160.209 54.2091 162 52 162H18C15.7909 162 14 160.209 14 158V134Z" fill="#C806CC"/>
<path d="M30.8898 152V150.74L36.0018 145.304C36.5178 144.764 36.8658 144.302 37.0458 143.918C37.2378 143.534 37.3338 143.126 37.3338 142.694C37.3338 142.13 37.1058 141.662 36.6498 141.29C36.1938 140.918 35.6178 140.732 34.9218 140.732C34.3458 140.732 33.8058 140.846 33.3018 141.074C32.7978 141.302 32.2398 141.698 31.6278 142.262L30.6558 141.074C31.9878 139.826 33.4218 139.202 34.9578 139.202C35.7618 139.202 36.4698 139.346 37.0818 139.634C37.6938 139.922 38.1678 140.324 38.5038 140.84C38.8518 141.344 39.0258 141.926 39.0258 142.586C39.0258 143.006 38.9718 143.396 38.8638 143.756C38.7558 144.104 38.5698 144.476 38.3058 144.872C38.0418 145.256 37.6698 145.7 37.1898 146.204L33.0858 150.524L39.2778 150.506V152H30.8898Z" fill="white"/>
<path d="M88.3333 146C88.3333 147.473 89.5272 148.667 91 148.667C92.4728 148.667 93.6667 147.473 93.6667 146C93.6667 144.527 92.4728 143.333 91 143.333C89.5272 143.333 88.3333 144.527 88.3333 146ZM56 146.5H91V145.5H56V146.5Z" fill="#C806CC"/>
<defs>
<clipPath id="clip0_126_26354">
<rect width="205" height="37" fill="white" transform="translate(97 127)"/>
</clipPath>
</defs>
</svg>
