<svg width="693" height="463" viewBox="0 0 693 463" fill="none" xmlns="http://www.w3.org/2000/svg">
<rect width="693" height="463" fill="white"/>
<path opacity="0.3" d="M54 408.787V105.812L98.0179 170.511C109.073 186.76 123.254 200.644 139.733 211.354L163.063 226.516C192.755 245.813 228.381 253.824 263.475 249.095L264.873 248.907C292.127 245.235 319.864 249.228 344.975 260.439L380.574 276.334C409.794 289.38 442.991 290.321 472.902 278.951C527.309 258.271 588.73 279.254 619.112 328.899L668 408.787H54Z" fill="#5E40BE"/>
<path d="M54 104.937L98.0179 169.635C109.073 185.884 123.254 199.769 139.733 210.479L163.063 225.64C192.755 244.937 228.381 252.948 263.475 248.22L264.873 248.031C292.127 244.359 319.864 248.353 344.975 259.564L380.574 275.458C409.794 288.504 442.991 289.445 472.902 278.076V278.076C527.309 257.395 588.73 278.378 619.112 328.024L668 407.912" stroke="#5E40BE" stroke-width="2"/>
<path opacity="0.3" d="M668 408.787V285.679L649.419 282.48C622.094 277.777 593.998 280.843 568.332 291.33L546.848 300.109C525.173 308.965 501.706 312.553 478.375 310.576L443.686 307.638C426.032 306.142 408.253 307.829 391.195 312.617L335.101 328.363C310.83 335.176 285.221 335.677 260.702 329.817L187.662 312.362C168.371 307.752 148.35 307.066 128.789 310.346L54 322.885V408.787H668Z" fill="#21134D"/>
<path d="M667.371 285.679L650.179 282.531C622.379 277.441 593.704 280.416 567.542 291.106L546.848 299.562C525.173 308.418 501.706 312.006 478.375 310.029L443.686 307.09C426.032 305.595 408.253 307.281 391.195 312.07L335.101 327.816C310.83 334.629 285.221 335.129 260.702 329.27L188.806 312.088C168.776 307.301 147.968 306.748 127.711 310.462L54 323.979" stroke="#21134D" stroke-width="2"/>
<path fill-rule="evenodd" clip-rule="evenodd" d="M54 408H668V409H54V408Z" fill="#C7C7C7"/>
<g clip-path="url(#clip0_153_10544)">
<rect x="55" y="409" width="5" height="1" transform="rotate(90 55 409)" fill="#C7C7C7"/>
<path d="M56.142 429V420.292L54.574 420.992V420.068L56.52 419.2H57.15V429H56.142Z" fill="#151515"/>
<rect x="121.944" y="409" width="5" height="1" transform="rotate(90 121.944 409)" fill="#C7C7C7"/>
<path d="M118.158 429V428.258L122.078 423.974C122.386 423.638 122.624 423.344 122.792 423.092C122.97 422.831 123.091 422.588 123.156 422.364C123.231 422.14 123.268 421.902 123.268 421.65C123.268 421.155 123.072 420.749 122.68 420.432C122.298 420.105 121.808 419.942 121.21 419.942C120.753 419.942 120.328 420.031 119.936 420.208C119.544 420.385 119.106 420.693 118.62 421.132L118.032 420.432C118.546 419.965 119.064 419.62 119.586 419.396C120.109 419.163 120.655 419.046 121.224 419.046C121.812 419.046 122.335 419.158 122.792 419.382C123.25 419.597 123.609 419.895 123.87 420.278C124.132 420.661 124.262 421.099 124.262 421.594C124.262 421.921 124.22 422.224 124.136 422.504C124.052 422.775 123.903 423.069 123.688 423.386C123.474 423.694 123.166 424.067 122.764 424.506L119.418 428.132L124.472 428.118V429H118.158Z" fill="#151515"/>
<rect x="188.889" y="409" width="5" height="1" transform="rotate(90 188.889 409)" fill="#C7C7C7"/>
<path d="M187.837 429.154C187.165 429.154 186.535 429.037 185.947 428.804C185.368 428.571 184.855 428.225 184.407 427.768L185.079 427.11C185.49 427.521 185.91 427.819 186.339 428.006C186.778 428.183 187.272 428.272 187.823 428.272C188.299 428.272 188.719 428.188 189.083 428.02C189.456 427.852 189.746 427.619 189.951 427.32C190.156 427.021 190.259 426.681 190.259 426.298C190.259 425.934 190.166 425.612 189.979 425.332C189.802 425.043 189.554 424.819 189.237 424.66C188.92 424.501 188.556 424.422 188.145 424.422H186.983V423.554H188.103C188.635 423.554 189.064 423.391 189.391 423.064C189.727 422.737 189.895 422.313 189.895 421.79C189.895 421.445 189.802 421.132 189.615 420.852C189.428 420.572 189.172 420.353 188.845 420.194C188.528 420.026 188.168 419.942 187.767 419.942C187.263 419.942 186.81 420.035 186.409 420.222C186.017 420.399 185.616 420.703 185.205 421.132L184.533 420.46C184.972 419.993 185.466 419.643 186.017 419.41C186.568 419.167 187.156 419.046 187.781 419.046C188.378 419.046 188.91 419.163 189.377 419.396C189.853 419.629 190.226 419.951 190.497 420.362C190.768 420.763 190.903 421.221 190.903 421.734C190.903 422.247 190.735 422.709 190.399 423.12C190.063 423.521 189.62 423.801 189.069 423.96C189.732 424.109 190.264 424.399 190.665 424.828C191.066 425.257 191.267 425.757 191.267 426.326C191.267 426.867 191.118 427.353 190.819 427.782C190.53 428.211 190.124 428.547 189.601 428.79C189.088 429.033 188.5 429.154 187.837 429.154Z" fill="#151515"/>
<rect x="256.333" y="409" width="5" height="1" transform="rotate(90 256.333 409)" fill="#C7C7C7"/>
<path d="M257.171 429V426.382H251.879V425.584L257.087 419.2H258.165V425.5H259.523V426.382H258.165V429H257.171ZM253.055 425.5H257.171V420.418L253.055 425.5Z" fill="#151515"/>
<rect x="323.278" y="409" width="5" height="1" transform="rotate(90 323.278 409)" fill="#C7C7C7"/>
<path d="M322.628 429.154C321.34 429.154 320.229 428.711 319.296 427.824L319.926 427.138C320.355 427.539 320.78 427.833 321.2 428.02C321.629 428.197 322.11 428.286 322.642 428.286C323.118 428.286 323.538 428.188 323.902 427.992C324.266 427.796 324.546 427.521 324.742 427.166C324.947 426.811 325.05 426.405 325.05 425.948C325.05 425.295 324.826 424.767 324.378 424.366C323.939 423.965 323.36 423.764 322.642 423.764C322.268 423.764 321.904 423.811 321.55 423.904C321.195 423.988 320.826 424.128 320.444 424.324L319.744 424.1L319.968 419.2H325.54V420.082H320.836L320.682 423.47C321.055 423.283 321.414 423.153 321.76 423.078C322.105 422.994 322.469 422.952 322.852 422.952C323.496 422.952 324.056 423.078 324.532 423.33C325.017 423.573 325.39 423.918 325.652 424.366C325.922 424.805 326.058 425.318 326.058 425.906C326.058 426.55 325.913 427.115 325.624 427.6C325.334 428.085 324.933 428.468 324.42 428.748C323.906 429.019 323.309 429.154 322.628 429.154Z" fill="#151515"/>
<rect x="390.222" y="409" width="5" height="1" transform="rotate(90 390.222 409)" fill="#C7C7C7"/>
<path d="M389.856 429.14C389.1 429.14 388.433 428.939 387.854 428.538C387.285 428.137 386.837 427.586 386.51 426.886C386.184 426.177 386.02 425.36 386.02 424.436C386.02 423.353 386.202 422.411 386.566 421.608C386.93 420.796 387.444 420.166 388.106 419.718C388.769 419.27 389.539 419.046 390.416 419.046C390.827 419.046 391.233 419.102 391.634 419.214C392.036 419.326 392.395 419.489 392.712 419.704L392.208 420.488C391.919 420.32 391.616 420.189 391.298 420.096C390.981 420.003 390.659 419.956 390.332 419.956C389.66 419.956 389.077 420.133 388.582 420.488C388.097 420.833 387.719 421.333 387.448 421.986C387.187 422.639 387.047 423.423 387.028 424.338C387.392 423.871 387.826 423.507 388.33 423.246C388.834 422.985 389.357 422.854 389.898 422.854C390.533 422.854 391.098 422.985 391.592 423.246C392.087 423.507 392.474 423.871 392.754 424.338C393.034 424.795 393.174 425.318 393.174 425.906C393.174 426.522 393.03 427.077 392.74 427.572C392.451 428.057 392.054 428.44 391.55 428.72C391.056 429 390.491 429.14 389.856 429.14ZM389.758 423.68C389.245 423.68 388.75 423.811 388.274 424.072C387.808 424.324 387.402 424.674 387.056 425.122C387.131 425.747 387.29 426.298 387.532 426.774C387.784 427.241 388.106 427.605 388.498 427.866C388.9 428.127 389.348 428.258 389.842 428.258C390.29 428.258 390.687 428.16 391.032 427.964C391.387 427.759 391.662 427.479 391.858 427.124C392.064 426.769 392.166 426.373 392.166 425.934C392.166 425.495 392.064 425.108 391.858 424.772C391.653 424.427 391.368 424.161 391.004 423.974C390.65 423.778 390.234 423.68 389.758 423.68Z" fill="#151515"/>
<rect x="457.167" y="409" width="5" height="1" transform="rotate(90 457.167 409)" fill="#C7C7C7"/>
<path d="M454.109 429L458.981 420.082H453.101V419.2H460.073V419.984L455.257 429H454.109Z" fill="#151515"/>
<rect x="524.111" y="409" width="5" height="1" transform="rotate(90 524.111 409)" fill="#C7C7C7"/>
<path d="M523.409 429.154C522.737 429.154 522.14 429.033 521.617 428.79C521.094 428.547 520.679 428.216 520.371 427.796C520.072 427.367 519.923 426.886 519.923 426.354C519.923 425.953 520.021 425.584 520.217 425.248C520.413 424.903 520.684 424.609 521.029 424.366C521.384 424.114 521.785 423.937 522.233 423.834C521.664 423.675 521.197 423.391 520.833 422.98C520.478 422.569 520.301 422.107 520.301 421.594C520.301 421.109 520.436 420.675 520.707 420.292C520.978 419.909 521.346 419.606 521.813 419.382C522.289 419.158 522.821 419.046 523.409 419.046C524.006 419.046 524.538 419.158 525.005 419.382C525.472 419.606 525.84 419.909 526.111 420.292C526.382 420.675 526.517 421.109 526.517 421.594C526.517 422.107 526.34 422.569 525.985 422.98C525.63 423.391 525.164 423.675 524.585 423.834C525.266 423.993 525.822 424.305 526.251 424.772C526.68 425.229 526.895 425.757 526.895 426.354C526.895 426.886 526.746 427.367 526.447 427.796C526.148 428.216 525.733 428.547 525.201 428.79C524.678 429.033 524.081 429.154 523.409 429.154ZM523.409 423.414C523.81 423.414 524.17 423.335 524.487 423.176C524.814 423.017 525.07 422.807 525.257 422.546C525.444 422.275 525.537 421.972 525.537 421.636C525.537 421.3 525.444 420.997 525.257 420.726C525.07 420.455 524.814 420.245 524.487 420.096C524.17 419.937 523.81 419.858 523.409 419.858C523.008 419.858 522.644 419.937 522.317 420.096C522 420.245 521.748 420.455 521.561 420.726C521.374 420.997 521.281 421.3 521.281 421.636C521.281 421.972 521.374 422.275 521.561 422.546C521.748 422.807 522 423.017 522.317 423.176C522.644 423.335 523.008 423.414 523.409 423.414ZM523.409 428.342C523.885 428.342 524.31 428.253 524.683 428.076C525.056 427.899 525.35 427.656 525.565 427.348C525.789 427.04 525.901 426.695 525.901 426.312C525.901 425.929 525.789 425.584 525.565 425.276C525.35 424.968 525.056 424.725 524.683 424.548C524.31 424.371 523.885 424.282 523.409 424.282C522.933 424.282 522.508 424.371 522.135 424.548C521.762 424.725 521.463 424.968 521.239 425.276C521.024 425.584 520.917 425.929 520.917 426.312C520.917 426.695 521.024 427.04 521.239 427.348C521.463 427.656 521.762 427.899 522.135 428.076C522.508 428.253 522.933 428.342 523.409 428.342Z" fill="#151515"/>
<rect x="591.556" y="409" width="5" height="1" transform="rotate(90 591.556 409)" fill="#C7C7C7"/>
<path d="M590.588 419.046C591.344 419.046 592.006 419.247 592.576 419.648C593.154 420.049 593.607 420.605 593.934 421.314C594.26 422.014 594.424 422.826 594.424 423.75C594.424 424.833 594.242 425.78 593.878 426.592C593.514 427.395 593 428.02 592.338 428.468C591.684 428.916 590.914 429.14 590.028 429.14C589.626 429.14 589.22 429.084 588.81 428.972C588.408 428.851 588.049 428.687 587.732 428.482L588.236 427.698C588.525 427.866 588.828 427.997 589.146 428.09C589.472 428.183 589.794 428.23 590.112 428.23C590.784 428.23 591.362 428.057 591.848 427.712C592.342 427.357 592.725 426.853 592.996 426.2C593.266 425.537 593.406 424.753 593.416 423.848C593.052 424.315 592.618 424.679 592.114 424.94C591.61 425.201 591.087 425.332 590.546 425.332C589.911 425.332 589.346 425.201 588.852 424.94C588.357 424.669 587.97 424.305 587.69 423.848C587.41 423.391 587.27 422.868 587.27 422.28C587.27 421.655 587.414 421.099 587.704 420.614C587.993 420.129 588.385 419.746 588.88 419.466C589.384 419.186 589.953 419.046 590.588 419.046ZM590.686 424.506C591.199 424.506 591.689 424.38 592.156 424.128C592.632 423.867 593.042 423.512 593.388 423.064C593.322 422.429 593.164 421.879 592.912 421.412C592.66 420.945 592.338 420.581 591.946 420.32C591.554 420.059 591.106 419.928 590.602 419.928C590.154 419.928 589.752 420.031 589.398 420.236C589.052 420.432 588.777 420.707 588.572 421.062C588.376 421.407 588.278 421.804 588.278 422.252C588.278 422.691 588.38 423.083 588.586 423.428C588.791 423.764 589.071 424.03 589.426 424.226C589.79 424.413 590.21 424.506 590.686 424.506Z" fill="#151515"/>
<rect x="661.5" y="409" width="5" height="1" transform="rotate(90 661.5 409)" fill="#C7C7C7"/>
<path d="M656.142 429V420.292L654.574 420.992V420.068L656.52 419.2H657.15V429H656.142ZM662.913 429.154C662.166 429.154 661.504 428.939 660.925 428.51C660.356 428.081 659.908 427.488 659.581 426.732C659.254 425.967 659.091 425.089 659.091 424.1C659.091 423.101 659.254 422.224 659.581 421.468C659.908 420.712 660.356 420.119 660.925 419.69C661.504 419.261 662.166 419.046 662.913 419.046C663.66 419.046 664.318 419.261 664.887 419.69C665.466 420.119 665.918 420.712 666.245 421.468C666.572 422.224 666.735 423.101 666.735 424.1C666.735 425.089 666.572 425.967 666.245 426.732C665.918 427.488 665.466 428.081 664.887 428.51C664.318 428.939 663.66 429.154 662.913 429.154ZM662.913 428.244C663.482 428.244 663.972 428.076 664.383 427.74C664.803 427.395 665.13 426.914 665.363 426.298C665.596 425.673 665.713 424.94 665.713 424.1C665.713 423.26 665.596 422.532 665.363 421.916C665.13 421.291 664.803 420.81 664.383 420.474C663.972 420.129 663.482 419.956 662.913 419.956C662.353 419.956 661.863 420.129 661.443 420.474C661.023 420.81 660.696 421.291 660.463 421.916C660.23 422.532 660.113 423.26 660.113 424.1C660.113 424.94 660.23 425.673 660.463 426.298C660.696 426.914 661.023 427.395 661.443 427.74C661.863 428.076 662.353 428.244 662.913 428.244Z" fill="#151515"/>
</g>
<path d="M25.5 27C25.5 25.067 27.067 23.5 29 23.5H110.5V59.5H29C27.067 59.5 25.5 57.933 25.5 56V27Z" stroke="#C7C7C7"/>
<path d="M41.126 46L45.004 36.2H46.292L50.114 46H48.952L47.79 42.92H43.422L42.26 46H41.126ZM43.758 42.066H47.468L45.606 37.18L43.758 42.066ZM51.2922 46V35.892L52.3142 35.682V46H51.2922ZM54.4094 46V35.892L55.4314 35.682V46H54.4094ZM63.3981 46.14C62.8101 46.14 62.3621 46 62.0541 45.72C61.7555 45.4307 61.6061 45.0153 61.6061 44.474V40.008H60.1921V39.168H61.6061V37.292L62.6281 37.054V39.168H64.5881V40.008H62.6281V44.208C62.6281 44.572 62.7028 44.8333 62.8521 44.992C63.0108 45.1507 63.2675 45.23 63.6221 45.23C63.7995 45.23 63.9581 45.216 64.0981 45.188C64.2381 45.16 64.4015 45.1133 64.5881 45.048V45.958C64.4015 46.0233 64.2055 46.07 64.0001 46.098C63.7948 46.126 63.5941 46.14 63.3981 46.14ZM66.5159 49.066C66.3012 49.066 66.0819 49.0333 65.8579 48.968V48.058C65.9512 48.0767 66.0492 48.0907 66.1519 48.1C66.2545 48.1093 66.3432 48.114 66.4179 48.114C66.6792 48.114 66.8939 48.044 67.0619 47.904C67.2392 47.764 67.3885 47.5447 67.5099 47.246L68.0139 46L65.3819 39.168H66.5159L68.5879 44.782L70.7859 39.168H71.9199L68.4759 47.554C68.3265 47.918 68.1632 48.212 67.9859 48.436C67.8085 48.66 67.6032 48.8187 67.3699 48.912C67.1365 49.0147 66.8519 49.066 66.5159 49.066ZM73.1945 48.926V39.168H74.2025V40.148C74.4639 39.8027 74.7812 39.5413 75.1545 39.364C75.5372 39.1773 75.9572 39.084 76.4145 39.084C77.0119 39.084 77.5439 39.2427 78.0105 39.56C78.4865 39.868 78.8645 40.288 79.1445 40.82C79.4245 41.3427 79.5645 41.9307 79.5645 42.584C79.5645 43.2373 79.4199 43.83 79.1305 44.362C78.8505 44.894 78.4679 45.3187 77.9825 45.636C77.5065 45.944 76.9652 46.098 76.3585 46.098C75.9292 46.098 75.5325 46.0187 75.1685 45.86C74.8045 45.692 74.4872 45.454 74.2165 45.146V48.926H73.1945ZM76.1625 45.216C76.6199 45.216 77.0259 45.104 77.3805 44.88C77.7445 44.6467 78.0292 44.334 78.2345 43.942C78.4492 43.5407 78.5565 43.0927 78.5565 42.598C78.5565 42.094 78.4492 41.646 78.2345 41.254C78.0292 40.862 77.7445 40.554 77.3805 40.33C77.0259 40.0967 76.6199 39.98 76.1625 39.98C75.7612 39.98 75.3879 40.064 75.0425 40.232C74.7065 40.3907 74.4312 40.6193 74.2165 40.918V44.264C74.4405 44.5627 74.7205 44.796 75.0565 44.964C75.4019 45.132 75.7705 45.216 76.1625 45.216ZM84.4366 46.14C83.802 46.14 83.228 45.986 82.7146 45.678C82.2013 45.3607 81.7953 44.936 81.4966 44.404C81.198 43.8627 81.0486 43.256 81.0486 42.584C81.0486 41.912 81.1886 41.31 81.4686 40.778C81.758 40.246 82.1453 39.826 82.6306 39.518C83.116 39.21 83.6573 39.056 84.2546 39.056C84.8613 39.056 85.398 39.21 85.8646 39.518C86.3406 39.8167 86.714 40.2273 86.9846 40.75C87.2646 41.2633 87.4046 41.8467 87.4046 42.5V42.808H82.0426C82.08 43.2747 82.206 43.6947 82.4206 44.068C82.6446 44.432 82.934 44.7213 83.2886 44.936C83.6526 45.1413 84.0493 45.244 84.4786 45.244C84.8333 45.244 85.174 45.1833 85.5006 45.062C85.8366 44.9313 86.1213 44.7587 86.3546 44.544L86.9986 45.23C86.6066 45.538 86.2006 45.7667 85.7806 45.916C85.3606 46.0653 84.9126 46.14 84.4366 46.14ZM82.0706 42.08H86.3966C86.35 41.6693 86.224 41.3053 86.0186 40.988C85.8226 40.6613 85.5706 40.4047 85.2626 40.218C84.964 40.0313 84.628 39.938 84.2546 39.938C83.8813 39.938 83.5406 40.0313 83.2326 40.218C82.9246 40.3953 82.668 40.6473 82.4626 40.974C82.2666 41.2913 82.136 41.66 82.0706 42.08ZM91.332 46.14C90.772 46.14 90.254 46.056 89.778 45.888C89.302 45.7107 88.896 45.4587 88.56 45.132L89.106 44.46C89.5166 44.7587 89.8946 44.978 90.24 45.118C90.5853 45.2487 90.94 45.314 91.304 45.314C91.7986 45.314 92.2093 45.1973 92.536 44.964C92.8626 44.7307 93.026 44.432 93.026 44.068C93.026 43.788 92.928 43.5687 92.732 43.41C92.5453 43.2513 92.2326 43.13 91.794 43.046L90.674 42.85C90.0113 42.7287 89.5213 42.5233 89.204 42.234C88.896 41.9447 88.742 41.5527 88.742 41.058C88.742 40.666 88.8446 40.3207 89.05 40.022C89.2646 39.7233 89.5586 39.49 89.932 39.322C90.3053 39.1447 90.73 39.056 91.206 39.056C91.6726 39.056 92.116 39.126 92.536 39.266C92.956 39.3967 93.3806 39.6113 93.81 39.91L93.306 40.624C92.9513 40.372 92.5966 40.19 92.242 40.078C91.8873 39.9567 91.528 39.896 91.164 39.896C90.716 39.896 90.3566 39.994 90.086 40.19C89.8153 40.386 89.68 40.652 89.68 40.988C89.68 41.268 89.764 41.4827 89.932 41.632C90.1093 41.7813 90.4173 41.8933 90.856 41.968L92.004 42.178C92.6946 42.2993 93.1986 42.5093 93.516 42.808C93.8333 43.1067 93.992 43.508 93.992 44.012C93.992 44.4133 93.8753 44.7773 93.642 45.104C93.4086 45.4213 93.0913 45.6733 92.69 45.86C92.2886 46.0467 91.836 46.14 91.332 46.14Z" fill="#151515"/>
<mask id="path-28-inside-1_153_10544" fill="white">
<path d="M110 23H218C220.209 23 222 24.7909 222 27V56C222 58.2091 220.209 60 218 60H110V23Z"/>
</mask>
<path d="M110 23H218C220.209 23 222 24.7909 222 27V56C222 58.2091 220.209 60 218 60H110V23Z" fill="#0066CC"/>
<path d="M110 23H222H110ZM222 60H110H222ZM109 60V23H111V60H109ZM222 23V60V23Z" fill="#C7C7C7" mask="url(#path-28-inside-1_153_10544)"/>
<path d="M128.702 46L126.588 36.2H127.68L129.346 44.306L131.768 36.2H132.818L135.24 44.278L136.92 36.2H137.97L135.856 46H134.764L132.286 37.684L129.794 46H128.702ZM142.078 46.112C141.443 46.112 140.874 45.958 140.37 45.65C139.866 45.342 139.469 44.922 139.18 44.39C138.891 43.858 138.746 43.256 138.746 42.584C138.746 41.912 138.891 41.31 139.18 40.778C139.469 40.246 139.866 39.826 140.37 39.518C140.874 39.21 141.443 39.056 142.078 39.056C142.703 39.056 143.263 39.21 143.758 39.518C144.262 39.826 144.659 40.246 144.948 40.778C145.237 41.31 145.382 41.912 145.382 42.584C145.382 43.256 145.237 43.858 144.948 44.39C144.659 44.922 144.262 45.342 143.758 45.65C143.263 45.958 142.703 46.112 142.078 46.112ZM142.064 45.216C142.512 45.216 142.909 45.104 143.254 44.88C143.599 44.6467 143.87 44.3293 144.066 43.928C144.271 43.5267 144.374 43.0787 144.374 42.584C144.374 42.08 144.271 41.632 144.066 41.24C143.87 40.8387 143.599 40.526 143.254 40.302C142.909 40.0687 142.512 39.952 142.064 39.952C141.616 39.952 141.219 40.0687 140.874 40.302C140.529 40.526 140.253 40.8387 140.048 41.24C139.852 41.632 139.754 42.08 139.754 42.584C139.754 43.0787 139.852 43.5267 140.048 43.928C140.253 44.3293 140.529 44.6467 140.874 44.88C141.219 45.104 141.616 45.216 142.064 45.216ZM147.175 46V39.168H148.197V40.568C148.374 40.092 148.626 39.7233 148.953 39.462C149.289 39.1913 149.672 39.056 150.101 39.056C150.222 39.056 150.334 39.0653 150.437 39.084C150.54 39.0933 150.642 39.1167 150.745 39.154V40.078C150.633 40.0407 150.512 40.0127 150.381 39.994C150.26 39.966 150.143 39.952 150.031 39.952C149.611 39.952 149.242 40.0733 148.925 40.316C148.617 40.5587 148.374 40.8993 148.197 41.338V46H147.175ZM152.097 46V35.892L153.119 35.682V42.234L156.367 39.168H157.599L154.127 42.416L157.753 46H156.409L153.119 42.738V46H152.097ZM161.466 46.14C160.831 46.14 160.257 45.986 159.744 45.678C159.231 45.3607 158.825 44.936 158.526 44.404C158.227 43.8627 158.078 43.256 158.078 42.584C158.078 41.912 158.218 41.31 158.498 40.778C158.787 40.246 159.175 39.826 159.66 39.518C160.145 39.21 160.687 39.056 161.284 39.056C161.891 39.056 162.427 39.21 162.894 39.518C163.37 39.8167 163.743 40.2273 164.014 40.75C164.294 41.2633 164.434 41.8467 164.434 42.5V42.808H159.072C159.109 43.2747 159.235 43.6947 159.45 44.068C159.674 44.432 159.963 44.7213 160.318 44.936C160.682 45.1413 161.079 45.244 161.508 45.244C161.863 45.244 162.203 45.1833 162.53 45.062C162.866 44.9313 163.151 44.7587 163.384 44.544L164.028 45.23C163.636 45.538 163.23 45.7667 162.81 45.916C162.39 46.0653 161.942 46.14 161.466 46.14ZM159.1 42.08H163.426C163.379 41.6693 163.253 41.3053 163.048 40.988C162.852 40.6613 162.6 40.4047 162.292 40.218C161.993 40.0313 161.657 39.938 161.284 39.938C160.911 39.938 160.57 40.0313 160.262 40.218C159.954 40.3953 159.697 40.6473 159.492 40.974C159.296 41.2913 159.165 41.66 159.1 42.08ZM166.179 46V39.168H167.201V40.568C167.378 40.092 167.63 39.7233 167.957 39.462C168.293 39.1913 168.676 39.056 169.105 39.056C169.226 39.056 169.338 39.0653 169.441 39.084C169.544 39.0933 169.646 39.1167 169.749 39.154V40.078C169.637 40.0407 169.516 40.0127 169.385 39.994C169.264 39.966 169.147 39.952 169.035 39.952C168.615 39.952 168.246 40.0733 167.929 40.316C167.621 40.5587 167.378 40.8993 167.201 41.338V46H166.179ZM173.146 46.14C172.586 46.14 172.068 46.056 171.592 45.888C171.116 45.7107 170.71 45.4587 170.374 45.132L170.92 44.46C171.331 44.7587 171.709 44.978 172.054 45.118C172.4 45.2487 172.754 45.314 173.118 45.314C173.613 45.314 174.024 45.1973 174.35 44.964C174.677 44.7307 174.84 44.432 174.84 44.068C174.84 43.788 174.742 43.5687 174.546 43.41C174.36 43.2513 174.047 43.13 173.608 43.046L172.488 42.85C171.826 42.7287 171.336 42.5233 171.018 42.234C170.71 41.9447 170.556 41.5527 170.556 41.058C170.556 40.666 170.659 40.3207 170.864 40.022C171.079 39.7233 171.373 39.49 171.746 39.322C172.12 39.1447 172.544 39.056 173.02 39.056C173.487 39.056 173.93 39.126 174.35 39.266C174.77 39.3967 175.195 39.6113 175.624 39.91L175.12 40.624C174.766 40.372 174.411 40.19 174.056 40.078C173.702 39.9567 173.342 39.896 172.978 39.896C172.53 39.896 172.171 39.994 171.9 40.19C171.63 40.386 171.494 40.652 171.494 40.988C171.494 41.268 171.578 41.4827 171.746 41.632C171.924 41.7813 172.232 41.8933 172.67 41.968L173.818 42.178C174.509 42.2993 175.013 42.5093 175.33 42.808C175.648 43.1067 175.806 43.508 175.806 44.012C175.806 44.4133 175.69 44.7773 175.456 45.104C175.223 45.4213 174.906 45.6733 174.504 45.86C174.103 46.0467 173.65 46.14 173.146 46.14ZM183.654 46.112C183.019 46.112 182.45 45.958 181.946 45.65C181.442 45.342 181.045 44.922 180.756 44.39C180.467 43.858 180.322 43.256 180.322 42.584C180.322 41.912 180.467 41.31 180.756 40.778C181.045 40.246 181.442 39.826 181.946 39.518C182.45 39.21 183.019 39.056 183.654 39.056C184.279 39.056 184.839 39.21 185.334 39.518C185.838 39.826 186.235 40.246 186.524 40.778C186.813 41.31 186.958 41.912 186.958 42.584C186.958 43.256 186.813 43.858 186.524 44.39C186.235 44.922 185.838 45.342 185.334 45.65C184.839 45.958 184.279 46.112 183.654 46.112ZM183.64 45.216C184.088 45.216 184.485 45.104 184.83 44.88C185.175 44.6467 185.446 44.3293 185.642 43.928C185.847 43.5267 185.95 43.0787 185.95 42.584C185.95 42.08 185.847 41.632 185.642 41.24C185.446 40.8387 185.175 40.526 184.83 40.302C184.485 40.0687 184.088 39.952 183.64 39.952C183.192 39.952 182.795 40.0687 182.45 40.302C182.105 40.526 181.829 40.8387 181.624 41.24C181.428 41.632 181.33 42.08 181.33 42.584C181.33 43.0787 181.428 43.5267 181.624 43.928C181.829 44.3293 182.105 44.6467 182.45 44.88C182.795 45.104 183.192 45.216 183.64 45.216ZM188.751 46V39.168H189.773V40.274C190.035 39.8633 190.347 39.56 190.711 39.364C191.075 39.1587 191.486 39.056 191.943 39.056C192.438 39.056 192.867 39.1633 193.231 39.378C193.605 39.5833 193.894 39.8773 194.099 40.26C194.314 40.6333 194.421 41.072 194.421 41.576V46H193.399V41.87C193.399 41.2633 193.231 40.7873 192.895 40.442C192.569 40.0873 192.125 39.91 191.565 39.91C191.192 39.91 190.851 39.9987 190.543 40.176C190.235 40.3533 189.979 40.6147 189.773 40.96V46H188.751ZM196.476 46V35.892L197.498 35.682V46H196.476ZM199.887 49.066C199.672 49.066 199.453 49.0333 199.229 48.968V48.058C199.322 48.0767 199.42 48.0907 199.523 48.1C199.626 48.1093 199.714 48.114 199.789 48.114C200.05 48.114 200.265 48.044 200.433 47.904C200.61 47.764 200.76 47.5447 200.881 47.246L201.385 46L198.753 39.168H199.887L201.959 44.782L204.157 39.168H205.291L201.847 47.554C201.698 47.918 201.534 48.212 201.357 48.436C201.18 48.66 200.974 48.8187 200.741 48.912C200.508 49.0147 200.223 49.066 199.887 49.066Z" fill="white"/>
<path d="M26.836 114V106.536L25.492 107.136V106.344L27.16 105.6H27.7V114H26.836ZM32.6397 114.132C31.9997 114.132 31.4317 113.948 30.9357 113.58C30.4477 113.212 30.0637 112.704 29.7837 112.056C29.5037 111.4 29.3637 110.648 29.3637 109.8C29.3637 108.944 29.5037 108.192 29.7837 107.544C30.0637 106.896 30.4477 106.388 30.9357 106.02C31.4317 105.652 31.9997 105.468 32.6397 105.468C33.2797 105.468 33.8437 105.652 34.3317 106.02C34.8277 106.388 35.2157 106.896 35.4957 107.544C35.7757 108.192 35.9157 108.944 35.9157 109.8C35.9157 110.648 35.7757 111.4 35.4957 112.056C35.2157 112.704 34.8277 113.212 34.3317 113.58C33.8437 113.948 33.2797 114.132 32.6397 114.132ZM32.6397 113.352C33.1277 113.352 33.5477 113.208 33.8997 112.92C34.2597 112.624 34.5397 112.212 34.7397 111.684C34.9397 111.148 35.0397 110.52 35.0397 109.8C35.0397 109.08 34.9397 108.456 34.7397 107.928C34.5397 107.392 34.2597 106.98 33.8997 106.692C33.5477 106.396 33.1277 106.248 32.6397 106.248C32.1597 106.248 31.7397 106.396 31.3797 106.692C31.0197 106.98 30.7397 107.392 30.5397 107.928C30.3397 108.456 30.2397 109.08 30.2397 109.8C30.2397 110.52 30.3397 111.148 30.5397 111.684C30.7397 112.212 31.0197 112.624 31.3797 112.92C31.7397 113.208 32.1597 113.352 32.6397 113.352ZM40.5616 114.132C39.9216 114.132 39.3536 113.948 38.8576 113.58C38.3696 113.212 37.9856 112.704 37.7056 112.056C37.4256 111.4 37.2856 110.648 37.2856 109.8C37.2856 108.944 37.4256 108.192 37.7056 107.544C37.9856 106.896 38.3696 106.388 38.8576 106.02C39.3536 105.652 39.9216 105.468 40.5616 105.468C41.2016 105.468 41.7656 105.652 42.2536 106.02C42.7496 106.388 43.1376 106.896 43.4176 107.544C43.6976 108.192 43.8376 108.944 43.8376 109.8C43.8376 110.648 43.6976 111.4 43.4176 112.056C43.1376 112.704 42.7496 113.212 42.2536 113.58C41.7656 113.948 41.2016 114.132 40.5616 114.132ZM40.5616 113.352C41.0496 113.352 41.4696 113.208 41.8216 112.92C42.1816 112.624 42.4616 112.212 42.6616 111.684C42.8616 111.148 42.9616 110.52 42.9616 109.8C42.9616 109.08 42.8616 108.456 42.6616 107.928C42.4616 107.392 42.1816 106.98 41.8216 106.692C41.4696 106.396 41.0496 106.248 40.5616 106.248C40.0816 106.248 39.6616 106.396 39.3016 106.692C38.9416 106.98 38.6616 107.392 38.4616 107.928C38.2616 108.456 38.1616 109.08 38.1616 109.8C38.1616 110.52 38.2616 111.148 38.4616 111.684C38.6616 112.212 38.9416 112.624 39.3016 112.92C39.6616 113.208 40.0816 113.352 40.5616 113.352Z" fill="#151515"/>
<rect x="49" y="109.5" width="5" height="1" fill="#C7C7C7"/>
<path d="M32.456 134.968C33.104 134.968 33.672 135.14 34.16 135.484C34.656 135.828 35.044 136.304 35.324 136.912C35.604 137.512 35.744 138.208 35.744 139C35.744 139.928 35.588 140.74 35.276 141.436C34.964 142.124 34.524 142.66 33.956 143.044C33.396 143.428 32.736 143.62 31.976 143.62C31.632 143.62 31.284 143.572 30.932 143.476C30.588 143.372 30.28 143.232 30.008 143.056L30.44 142.384C30.688 142.528 30.948 142.64 31.22 142.72C31.5 142.8 31.776 142.84 32.048 142.84C32.624 142.84 33.12 142.692 33.536 142.396C33.96 142.092 34.288 141.66 34.52 141.1C34.752 140.532 34.872 139.86 34.88 139.084C34.568 139.484 34.196 139.796 33.764 140.02C33.332 140.244 32.884 140.356 32.42 140.356C31.876 140.356 31.392 140.244 30.968 140.02C30.544 139.788 30.212 139.476 29.972 139.084C29.732 138.692 29.612 138.244 29.612 137.74C29.612 137.204 29.736 136.728 29.984 136.312C30.232 135.896 30.568 135.568 30.992 135.328C31.424 135.088 31.912 134.968 32.456 134.968ZM32.54 139.648C32.98 139.648 33.4 139.54 33.8 139.324C34.208 139.1 34.56 138.796 34.856 138.412C34.8 137.868 34.664 137.396 34.448 136.996C34.232 136.596 33.956 136.284 33.62 136.06C33.284 135.836 32.9 135.724 32.468 135.724C32.084 135.724 31.74 135.812 31.436 135.988C31.14 136.156 30.904 136.392 30.728 136.696C30.56 136.992 30.476 137.332 30.476 137.716C30.476 138.092 30.564 138.428 30.74 138.724C30.916 139.012 31.156 139.24 31.46 139.408C31.772 139.568 32.132 139.648 32.54 139.648ZM40.3897 143.632C39.7497 143.632 39.1817 143.448 38.6857 143.08C38.1977 142.712 37.8137 142.204 37.5337 141.556C37.2537 140.9 37.1137 140.148 37.1137 139.3C37.1137 138.444 37.2537 137.692 37.5337 137.044C37.8137 136.396 38.1977 135.888 38.6857 135.52C39.1817 135.152 39.7497 134.968 40.3897 134.968C41.0297 134.968 41.5937 135.152 42.0817 135.52C42.5777 135.888 42.9657 136.396 43.2457 137.044C43.5257 137.692 43.6657 138.444 43.6657 139.3C43.6657 140.148 43.5257 140.9 43.2457 141.556C42.9657 142.204 42.5777 142.712 42.0817 143.08C41.5937 143.448 41.0297 143.632 40.3897 143.632ZM40.3897 142.852C40.8777 142.852 41.2977 142.708 41.6497 142.42C42.0097 142.124 42.2897 141.712 42.4897 141.184C42.6897 140.648 42.7897 140.02 42.7897 139.3C42.7897 138.58 42.6897 137.956 42.4897 137.428C42.2897 136.892 42.0097 136.48 41.6497 136.192C41.2977 135.896 40.8777 135.748 40.3897 135.748C39.9097 135.748 39.4897 135.896 39.1297 136.192C38.7697 136.48 38.4897 136.892 38.2897 137.428C38.0897 137.956 37.9897 138.58 37.9897 139.3C37.9897 140.02 38.0897 140.648 38.2897 141.184C38.4897 141.712 38.7697 142.124 39.1297 142.42C39.4897 142.708 39.9097 142.852 40.3897 142.852Z" fill="#151515"/>
<rect x="49" y="139" width="5" height="1" fill="#C7C7C7"/>
<path d="M32.684 173.132C32.108 173.132 31.596 173.028 31.148 172.82C30.7 172.612 30.344 172.328 30.08 171.968C29.824 171.6 29.696 171.188 29.696 170.732C29.696 170.388 29.78 170.072 29.948 169.784C30.116 169.488 30.348 169.236 30.644 169.028C30.948 168.812 31.292 168.66 31.676 168.572C31.188 168.436 30.788 168.192 30.476 167.84C30.172 167.488 30.02 167.092 30.02 166.652C30.02 166.236 30.136 165.864 30.368 165.536C30.6 165.208 30.916 164.948 31.316 164.756C31.724 164.564 32.18 164.468 32.684 164.468C33.196 164.468 33.652 164.564 34.052 164.756C34.452 164.948 34.768 165.208 35 165.536C35.232 165.864 35.348 166.236 35.348 166.652C35.348 167.092 35.196 167.488 34.892 167.84C34.588 168.192 34.188 168.436 33.692 168.572C34.276 168.708 34.752 168.976 35.12 169.376C35.488 169.768 35.672 170.22 35.672 170.732C35.672 171.188 35.544 171.6 35.288 171.968C35.032 172.328 34.676 172.612 34.22 172.82C33.772 173.028 33.26 173.132 32.684 173.132ZM32.684 168.212C33.028 168.212 33.336 168.144 33.608 168.008C33.888 167.872 34.108 167.692 34.268 167.468C34.428 167.236 34.508 166.976 34.508 166.688C34.508 166.4 34.428 166.14 34.268 165.908C34.108 165.676 33.888 165.496 33.608 165.368C33.336 165.232 33.028 165.164 32.684 165.164C32.34 165.164 32.028 165.232 31.748 165.368C31.476 165.496 31.26 165.676 31.1 165.908C30.94 166.14 30.86 166.4 30.86 166.688C30.86 166.976 30.94 167.236 31.1 167.468C31.26 167.692 31.476 167.872 31.748 168.008C32.028 168.144 32.34 168.212 32.684 168.212ZM32.684 172.436C33.092 172.436 33.456 172.36 33.776 172.208C34.096 172.056 34.348 171.848 34.532 171.584C34.724 171.32 34.82 171.024 34.82 170.696C34.82 170.368 34.724 170.072 34.532 169.808C34.348 169.544 34.096 169.336 33.776 169.184C33.456 169.032 33.092 168.956 32.684 168.956C32.276 168.956 31.912 169.032 31.592 169.184C31.272 169.336 31.016 169.544 30.824 169.808C30.64 170.072 30.548 170.368 30.548 170.696C30.548 171.024 30.64 171.32 30.824 171.584C31.016 171.848 31.272 172.056 31.592 172.208C31.912 172.36 32.276 172.436 32.684 172.436ZM40.2139 173.132C39.5739 173.132 39.0059 172.948 38.5099 172.58C38.0219 172.212 37.6379 171.704 37.3579 171.056C37.0779 170.4 36.9379 169.648 36.9379 168.8C36.9379 167.944 37.0779 167.192 37.3579 166.544C37.6379 165.896 38.0219 165.388 38.5099 165.02C39.0059 164.652 39.5739 164.468 40.2139 164.468C40.8539 164.468 41.4179 164.652 41.9059 165.02C42.4019 165.388 42.7899 165.896 43.0699 166.544C43.3499 167.192 43.4899 167.944 43.4899 168.8C43.4899 169.648 43.3499 170.4 43.0699 171.056C42.7899 171.704 42.4019 172.212 41.9059 172.58C41.4179 172.948 40.8539 173.132 40.2139 173.132ZM40.2139 172.352C40.7019 172.352 41.1219 172.208 41.4739 171.92C41.8339 171.624 42.1139 171.212 42.3139 170.684C42.5139 170.148 42.6139 169.52 42.6139 168.8C42.6139 168.08 42.5139 167.456 42.3139 166.928C42.1139 166.392 41.8339 165.98 41.4739 165.692C41.1219 165.396 40.7019 165.248 40.2139 165.248C39.7339 165.248 39.3139 165.396 38.9539 165.692C38.5939 165.98 38.3139 166.392 38.1139 166.928C37.9139 167.456 37.8139 168.08 37.8139 168.8C37.8139 169.52 37.9139 170.148 38.1139 170.684C38.3139 171.212 38.5939 171.624 38.9539 171.92C39.3139 172.208 39.7339 172.352 40.2139 172.352Z" fill="#151515"/>
<rect x="49" y="168.5" width="5" height="1" fill="#C7C7C7"/>
<path d="M31.236 202.5L35.412 194.856H30.372V194.1H36.348V194.772L32.22 202.5H31.236ZM40.4053 202.632C39.7653 202.632 39.1973 202.448 38.7013 202.08C38.2133 201.712 37.8293 201.204 37.5493 200.556C37.2693 199.9 37.1293 199.148 37.1293 198.3C37.1293 197.444 37.2693 196.692 37.5493 196.044C37.8293 195.396 38.2133 194.888 38.7013 194.52C39.1973 194.152 39.7653 193.968 40.4053 193.968C41.0453 193.968 41.6093 194.152 42.0973 194.52C42.5933 194.888 42.9813 195.396 43.2613 196.044C43.5413 196.692 43.6813 197.444 43.6813 198.3C43.6813 199.148 43.5413 199.9 43.2613 200.556C42.9813 201.204 42.5933 201.712 42.0973 202.08C41.6093 202.448 41.0453 202.632 40.4053 202.632ZM40.4053 201.852C40.8933 201.852 41.3133 201.708 41.6653 201.42C42.0253 201.124 42.3053 200.712 42.5053 200.184C42.7053 199.648 42.8053 199.02 42.8053 198.3C42.8053 197.58 42.7053 196.956 42.5053 196.428C42.3053 195.892 42.0253 195.48 41.6653 195.192C41.3133 194.896 40.8933 194.748 40.4053 194.748C39.9253 194.748 39.5053 194.896 39.1453 195.192C38.7853 195.48 38.5053 195.892 38.3053 196.428C38.1053 196.956 38.0053 197.58 38.0053 198.3C38.0053 199.02 38.1053 199.648 38.3053 200.184C38.5053 200.712 38.7853 201.124 39.1453 201.42C39.5053 201.708 39.9253 201.852 40.4053 201.852Z" fill="#151515"/>
<rect x="49" y="198" width="5" height="1" fill="#C7C7C7"/>
<path d="M32.972 232.12C32.324 232.12 31.752 231.948 31.256 231.604C30.768 231.26 30.384 230.788 30.104 230.188C29.824 229.58 29.684 228.88 29.684 228.088C29.684 227.16 29.84 226.352 30.152 225.664C30.464 224.968 30.904 224.428 31.472 224.044C32.04 223.66 32.7 223.468 33.452 223.468C33.804 223.468 34.152 223.516 34.496 223.612C34.84 223.708 35.148 223.848 35.42 224.032L34.988 224.704C34.74 224.56 34.48 224.448 34.208 224.368C33.936 224.288 33.66 224.248 33.38 224.248C32.804 224.248 32.304 224.4 31.88 224.704C31.464 225 31.14 225.428 30.908 225.988C30.684 226.548 30.564 227.22 30.548 228.004C30.86 227.604 31.232 227.292 31.664 227.068C32.096 226.844 32.544 226.732 33.008 226.732C33.552 226.732 34.036 226.844 34.46 227.068C34.884 227.292 35.216 227.604 35.456 228.004C35.696 228.396 35.816 228.844 35.816 229.348C35.816 229.876 35.692 230.352 35.444 230.776C35.196 231.192 34.856 231.52 34.424 231.76C34 232 33.516 232.12 32.972 232.12ZM32.888 227.44C32.448 227.44 32.024 227.552 31.616 227.776C31.216 227.992 30.868 228.292 30.572 228.676C30.636 229.212 30.772 229.684 30.98 230.092C31.196 230.492 31.472 230.804 31.808 231.028C32.152 231.252 32.536 231.364 32.96 231.364C33.344 231.364 33.684 231.28 33.98 231.112C34.284 230.936 34.52 230.696 34.688 230.392C34.864 230.088 34.952 229.748 34.952 229.372C34.952 228.996 34.864 228.664 34.688 228.376C34.512 228.08 34.268 227.852 33.956 227.692C33.652 227.524 33.296 227.44 32.888 227.44ZM40.3897 232.132C39.7497 232.132 39.1817 231.948 38.6857 231.58C38.1977 231.212 37.8137 230.704 37.5337 230.056C37.2537 229.4 37.1137 228.648 37.1137 227.8C37.1137 226.944 37.2537 226.192 37.5337 225.544C37.8137 224.896 38.1977 224.388 38.6857 224.02C39.1817 223.652 39.7497 223.468 40.3897 223.468C41.0297 223.468 41.5937 223.652 42.0817 224.02C42.5777 224.388 42.9657 224.896 43.2457 225.544C43.5257 226.192 43.6657 226.944 43.6657 227.8C43.6657 228.648 43.5257 229.4 43.2457 230.056C42.9657 230.704 42.5777 231.212 42.0817 231.58C41.5937 231.948 41.0297 232.132 40.3897 232.132ZM40.3897 231.352C40.8777 231.352 41.2977 231.208 41.6497 230.92C42.0097 230.624 42.2897 230.212 42.4897 229.684C42.6897 229.148 42.7897 228.52 42.7897 227.8C42.7897 227.08 42.6897 226.456 42.4897 225.928C42.2897 225.392 42.0097 224.98 41.6497 224.692C41.2977 224.396 40.8777 224.248 40.3897 224.248C39.9097 224.248 39.4897 224.396 39.1297 224.692C38.7697 224.98 38.4897 225.392 38.2897 225.928C38.0897 226.456 37.9897 227.08 37.9897 227.8C37.9897 228.52 38.0897 229.148 38.2897 229.684C38.4897 230.212 38.7697 230.624 39.1297 230.92C39.4897 231.208 39.9097 231.352 40.3897 231.352Z" fill="#151515"/>
<rect x="49" y="227.5" width="5" height="1" fill="#C7C7C7"/>
<path d="M33.3 261.632C32.196 261.632 31.244 261.252 30.444 260.492L30.984 259.904C31.352 260.248 31.716 260.5 32.076 260.66C32.444 260.812 32.856 260.888 33.312 260.888C33.72 260.888 34.08 260.804 34.392 260.636C34.704 260.468 34.944 260.232 35.112 259.928C35.288 259.624 35.376 259.276 35.376 258.884C35.376 258.324 35.184 257.872 34.8 257.528C34.424 257.184 33.928 257.012 33.312 257.012C32.992 257.012 32.68 257.052 32.376 257.132C32.072 257.204 31.756 257.324 31.428 257.492L30.828 257.3L31.02 253.1H35.796V253.856H31.764L31.632 256.76C31.952 256.6 32.26 256.488 32.556 256.424C32.852 256.352 33.164 256.316 33.492 256.316C34.044 256.316 34.524 256.424 34.932 256.64C35.348 256.848 35.668 257.144 35.892 257.528C36.124 257.904 36.24 258.344 36.24 258.848C36.24 259.4 36.116 259.884 35.868 260.3C35.62 260.716 35.276 261.044 34.836 261.284C34.396 261.516 33.884 261.632 33.3 261.632ZM40.8038 261.632C40.1638 261.632 39.5958 261.448 39.0998 261.08C38.6118 260.712 38.2278 260.204 37.9478 259.556C37.6678 258.9 37.5278 258.148 37.5278 257.3C37.5278 256.444 37.6678 255.692 37.9478 255.044C38.2278 254.396 38.6118 253.888 39.0998 253.52C39.5958 253.152 40.1638 252.968 40.8038 252.968C41.4438 252.968 42.0078 253.152 42.4958 253.52C42.9918 253.888 43.3798 254.396 43.6598 255.044C43.9398 255.692 44.0798 256.444 44.0798 257.3C44.0798 258.148 43.9398 258.9 43.6598 259.556C43.3798 260.204 42.9918 260.712 42.4958 261.08C42.0078 261.448 41.4438 261.632 40.8038 261.632ZM40.8038 260.852C41.2918 260.852 41.7118 260.708 42.0638 260.42C42.4238 260.124 42.7038 259.712 42.9037 259.184C43.1038 258.648 43.2038 258.02 43.2038 257.3C43.2038 256.58 43.1038 255.956 42.9037 255.428C42.7038 254.892 42.4238 254.48 42.0638 254.192C41.7118 253.896 41.2918 253.748 40.8038 253.748C40.3238 253.748 39.9038 253.896 39.5438 254.192C39.1838 254.48 38.9038 254.892 38.7038 255.428C38.5038 255.956 38.4038 256.58 38.4038 257.3C38.4038 258.02 38.5038 258.648 38.7038 259.184C38.9038 259.712 39.1838 260.124 39.5438 260.42C39.9038 260.708 40.3238 260.852 40.8038 260.852Z" fill="#151515"/>
<rect x="49" y="257" width="5" height="1" fill="#C7C7C7"/>
<path d="M34.004 291V288.756H29.468V288.072L33.932 282.6H34.856V288H36.02V288.756H34.856V291H34.004ZM30.476 288H34.004V283.644L30.476 288ZM40.378 291.132C39.738 291.132 39.17 290.948 38.674 290.58C38.186 290.212 37.802 289.704 37.522 289.056C37.242 288.4 37.102 287.648 37.102 286.8C37.102 285.944 37.242 285.192 37.522 284.544C37.802 283.896 38.186 283.388 38.674 283.02C39.17 282.652 39.738 282.468 40.378 282.468C41.018 282.468 41.582 282.652 42.07 283.02C42.566 283.388 42.954 283.896 43.234 284.544C43.514 285.192 43.654 285.944 43.654 286.8C43.654 287.648 43.514 288.4 43.234 289.056C42.954 289.704 42.566 290.212 42.07 290.58C41.582 290.948 41.018 291.132 40.378 291.132ZM40.378 290.352C40.866 290.352 41.286 290.208 41.638 289.92C41.998 289.624 42.278 289.212 42.478 288.684C42.678 288.148 42.778 287.52 42.778 286.8C42.778 286.08 42.678 285.456 42.478 284.928C42.278 284.392 41.998 283.98 41.638 283.692C41.286 283.396 40.866 283.248 40.378 283.248C39.898 283.248 39.478 283.396 39.118 283.692C38.758 283.98 38.478 284.392 38.278 284.928C38.078 285.456 37.978 286.08 37.978 286.8C37.978 287.52 38.078 288.148 38.278 288.684C38.478 289.212 38.758 289.624 39.118 289.92C39.478 290.208 39.898 290.352 40.378 290.352Z" fill="#151515"/>
<rect x="49" y="286.5" width="5" height="1" fill="#C7C7C7"/>
<path d="M33.384 320.632C32.808 320.632 32.268 320.532 31.764 320.332C31.268 320.132 30.828 319.836 30.444 319.444L31.02 318.88C31.372 319.232 31.732 319.488 32.1 319.648C32.476 319.8 32.9 319.876 33.372 319.876C33.78 319.876 34.14 319.804 34.452 319.66C34.772 319.516 35.02 319.316 35.196 319.06C35.372 318.804 35.46 318.512 35.46 318.184C35.46 317.872 35.38 317.596 35.22 317.356C35.068 317.108 34.856 316.916 34.584 316.78C34.312 316.644 34 316.576 33.648 316.576H32.652V315.832H33.612C34.068 315.832 34.436 315.692 34.716 315.412C35.004 315.132 35.148 314.768 35.148 314.32C35.148 314.024 35.068 313.756 34.908 313.516C34.748 313.276 34.528 313.088 34.248 312.952C33.976 312.808 33.668 312.736 33.324 312.736C32.892 312.736 32.504 312.816 32.16 312.976C31.824 313.128 31.48 313.388 31.128 313.756L30.552 313.18C30.928 312.78 31.352 312.48 31.824 312.28C32.296 312.072 32.8 311.968 33.336 311.968C33.848 311.968 34.304 312.068 34.704 312.268C35.112 312.468 35.432 312.744 35.664 313.096C35.896 313.44 36.012 313.832 36.012 314.272C36.012 314.712 35.868 315.108 35.58 315.46C35.292 315.804 34.912 316.044 34.44 316.18C35.008 316.308 35.464 316.556 35.808 316.924C36.152 317.292 36.324 317.72 36.324 318.208C36.324 318.672 36.196 319.088 35.94 319.456C35.692 319.824 35.344 320.112 34.896 320.32C34.456 320.528 33.952 320.632 33.384 320.632ZM40.8741 320.632C40.2341 320.632 39.6661 320.448 39.1701 320.08C38.6821 319.712 38.2981 319.204 38.0181 318.556C37.7381 317.9 37.5981 317.148 37.5981 316.3C37.5981 315.444 37.7381 314.692 38.0181 314.044C38.2981 313.396 38.6821 312.888 39.1701 312.52C39.6661 312.152 40.2341 311.968 40.8741 311.968C41.5141 311.968 42.0781 312.152 42.5661 312.52C43.0621 312.888 43.4501 313.396 43.7301 314.044C44.0101 314.692 44.1501 315.444 44.1501 316.3C44.1501 317.148 44.0101 317.9 43.7301 318.556C43.4501 319.204 43.0621 319.712 42.5661 320.08C42.0781 320.448 41.5141 320.632 40.8741 320.632ZM40.8741 319.852C41.3621 319.852 41.7821 319.708 42.1341 319.42C42.4941 319.124 42.7741 318.712 42.9741 318.184C43.1741 317.648 43.2741 317.02 43.2741 316.3C43.2741 315.58 43.1741 314.956 42.9741 314.428C42.7741 313.892 42.4941 313.48 42.1341 313.192C41.7821 312.896 41.3621 312.748 40.8741 312.748C40.3941 312.748 39.9741 312.896 39.6141 313.192C39.2541 313.48 38.9741 313.892 38.7741 314.428C38.5741 314.956 38.4741 315.58 38.4741 316.3C38.4741 317.02 38.5741 317.648 38.7741 318.184C38.9741 318.712 39.2541 319.124 39.6141 319.42C39.9741 319.708 40.3941 319.852 40.8741 319.852Z" fill="#151515"/>
<rect x="49" y="316" width="5" height="1" fill="#C7C7C7"/>
<path d="M30.612 350V349.364L33.972 345.692C34.236 345.404 34.44 345.152 34.584 344.936C34.736 344.712 34.84 344.504 34.896 344.312C34.96 344.12 34.992 343.916 34.992 343.7C34.992 343.276 34.824 342.928 34.488 342.656C34.16 342.376 33.74 342.236 33.228 342.236C32.836 342.236 32.472 342.312 32.136 342.464C31.8 342.616 31.424 342.88 31.008 343.256L30.504 342.656C30.944 342.256 31.388 341.96 31.836 341.768C32.284 341.568 32.752 341.468 33.24 341.468C33.744 341.468 34.192 341.564 34.584 341.756C34.976 341.94 35.284 342.196 35.508 342.524C35.732 342.852 35.844 343.228 35.844 343.652C35.844 343.932 35.808 344.192 35.736 344.432C35.664 344.664 35.536 344.916 35.352 345.188C35.168 345.452 34.904 345.772 34.56 346.148L31.692 349.256L36.024 349.244V350H30.612ZM40.5342 350.132C39.8942 350.132 39.3262 349.948 38.8302 349.58C38.3422 349.212 37.9582 348.704 37.6782 348.056C37.3982 347.4 37.2582 346.648 37.2582 345.8C37.2582 344.944 37.3982 344.192 37.6782 343.544C37.9582 342.896 38.3422 342.388 38.8302 342.02C39.3262 341.652 39.8942 341.468 40.5342 341.468C41.1742 341.468 41.7382 341.652 42.2262 342.02C42.7222 342.388 43.1102 342.896 43.3902 343.544C43.6702 344.192 43.8102 344.944 43.8102 345.8C43.8102 346.648 43.6702 347.4 43.3902 348.056C43.1102 348.704 42.7222 349.212 42.2262 349.58C41.7382 349.948 41.1742 350.132 40.5342 350.132ZM40.5342 349.352C41.0222 349.352 41.4422 349.208 41.7942 348.92C42.1542 348.624 42.4342 348.212 42.6342 347.684C42.8342 347.148 42.9342 346.52 42.9342 345.8C42.9342 345.08 42.8342 344.456 42.6342 343.928C42.4342 343.392 42.1542 342.98 41.7942 342.692C41.4422 342.396 41.0222 342.248 40.5342 342.248C40.0542 342.248 39.6342 342.396 39.2742 342.692C38.9142 342.98 38.6342 343.392 38.4342 343.928C38.2342 344.456 38.1342 345.08 38.1342 345.8C38.1342 346.52 38.2342 347.148 38.4342 347.684C38.6342 348.212 38.9142 348.624 39.2742 348.92C39.6342 349.208 40.0542 349.352 40.5342 349.352Z" fill="#151515"/>
<rect x="49" y="345.5" width="5" height="1" fill="#C7C7C7"/>
<path d="M34.836 379.5V372.036L33.492 372.636V371.844L35.16 371.1H35.7V379.5H34.836ZM40.6397 379.632C39.9997 379.632 39.4317 379.448 38.9357 379.08C38.4477 378.712 38.0637 378.204 37.7837 377.556C37.5037 376.9 37.3637 376.148 37.3637 375.3C37.3637 374.444 37.5037 373.692 37.7837 373.044C38.0637 372.396 38.4477 371.888 38.9357 371.52C39.4317 371.152 39.9997 370.968 40.6397 370.968C41.2797 370.968 41.8437 371.152 42.3317 371.52C42.8277 371.888 43.2157 372.396 43.4957 373.044C43.7757 373.692 43.9157 374.444 43.9157 375.3C43.9157 376.148 43.7757 376.9 43.4957 377.556C43.2157 378.204 42.8277 378.712 42.3317 379.08C41.8437 379.448 41.2797 379.632 40.6397 379.632ZM40.6397 378.852C41.1277 378.852 41.5477 378.708 41.8997 378.42C42.2597 378.124 42.5397 377.712 42.7397 377.184C42.9397 376.648 43.0397 376.02 43.0397 375.3C43.0397 374.58 42.9397 373.956 42.7397 373.428C42.5397 372.892 42.2597 372.48 41.8997 372.192C41.5477 371.896 41.1277 371.748 40.6397 371.748C40.1597 371.748 39.7397 371.896 39.3797 372.192C39.0197 372.48 38.7397 372.892 38.5397 373.428C38.3397 373.956 38.2397 374.58 38.2397 375.3C38.2397 376.02 38.3397 376.648 38.5397 377.184C38.7397 377.712 39.0197 378.124 39.3797 378.42C39.7397 378.708 40.1597 378.852 40.6397 378.852Z" fill="#151515"/>
<rect x="49" y="375" width="5" height="1" fill="#C7C7C7"/>
<rect x="54" y="101" width="1" height="313" fill="#C7C7C7"/>
<defs>
<clipPath id="clip0_153_10544">
<rect width="614" height="26" fill="white" transform="translate(54 409)"/>
</clipPath>
</defs>
</svg>
