<svg width="282" height="127" viewBox="0 0 282 127" fill="none" xmlns="http://www.w3.org/2000/svg">
<rect width="282" height="127" fill="white"/>
<path d="M55.001 64C58.8605 64 62 67.1404 62 71C62 74.8596 58.8605 78 55.001 78C51.1416 77.9998 48 74.8581 48 71C48 67.1419 51.1402 64.0002 55.001 64ZM55 65.75C52.1043 65.75 49.75 68.1057 49.75 71C49.75 73.8971 52.1043 76.25 55 76.25C57.8943 76.25 60.25 73.8957 60.25 71C60.25 68.1043 57.8957 65.75 55 65.75ZM55.6699 67.9375C55.7832 67.9375 55.875 68.0293 55.875 68.1426V70.125H57.8574C57.9709 70.1255 58.0625 70.2177 58.0625 70.3311V71.6709C58.0625 71.7252 58.0405 71.7772 58.002 71.8154C57.9635 71.8537 57.9117 71.8754 57.8574 71.875H55.875V73.8564C55.875 73.9698 55.7834 74.062 55.6699 74.0625H54.3301C54.2166 74.062 54.125 73.9698 54.125 73.8564V71.875H52.1426C52.0293 71.875 51.9375 71.7832 51.9375 71.6699V70.3301C51.9375 70.2168 52.0293 70.125 52.1426 70.125H54.125V68.1426C54.125 68.0293 54.2168 67.9375 54.3301 67.9375H55.6699Z" fill="#0066CC"/>
<path d="M69.126 75L73.004 65.2H74.292L78.114 75H76.952L75.79 71.92H71.422L70.26 75H69.126ZM71.758 71.066H75.468L73.606 66.18L71.758 71.066ZM81.8608 75.098C81.2728 75.098 80.7408 74.944 80.2648 74.636C79.7888 74.3187 79.4108 73.8987 79.1308 73.376C78.8508 72.844 78.7108 72.2513 78.7108 71.598C78.7108 70.9353 78.8508 70.3427 79.1308 69.82C79.4201 69.288 79.8074 68.868 80.2928 68.56C80.7781 68.2427 81.3194 68.084 81.9168 68.084C82.3368 68.084 82.7288 68.168 83.0928 68.336C83.4568 68.4947 83.7741 68.728 84.0448 69.036V64.892L85.0668 64.682V75H84.0448V74.09C83.7834 74.4167 83.4661 74.6687 83.0928 74.846C82.7194 75.014 82.3088 75.098 81.8608 75.098ZM82.1128 74.202C82.5141 74.202 82.8828 74.1227 83.2188 73.964C83.5548 73.8053 83.8301 73.5813 84.0448 73.292V69.904C83.8208 69.6147 83.5361 69.3907 83.1908 69.232C82.8548 69.064 82.4954 68.98 82.1128 68.98C81.6554 68.98 81.2448 69.092 80.8808 69.316C80.5261 69.54 80.2414 69.848 80.0267 70.24C79.8214 70.632 79.7188 71.08 79.7188 71.584C79.7188 72.0787 79.8214 72.5267 80.0267 72.928C80.2414 73.32 80.5261 73.6327 80.8808 73.866C81.2448 74.09 81.6554 74.202 82.1128 74.202ZM90.0092 75.098C89.4212 75.098 88.8892 74.944 88.4132 74.636C87.9372 74.3187 87.5592 73.8987 87.2792 73.376C86.9992 72.844 86.8592 72.2513 86.8592 71.598C86.8592 70.9353 86.9992 70.3427 87.2792 69.82C87.5685 69.288 87.9559 68.868 88.4412 68.56C88.9265 68.2427 89.4679 68.084 90.0652 68.084C90.4852 68.084 90.8772 68.168 91.2412 68.336C91.6052 68.4947 91.9225 68.728 92.1932 69.036V64.892L93.2152 64.682V75H92.1932V74.09C91.9319 74.4167 91.6145 74.6687 91.2412 74.846C90.8679 75.014 90.4572 75.098 90.0092 75.098ZM90.2612 74.202C90.6625 74.202 91.0312 74.1227 91.3672 73.964C91.7032 73.8053 91.9785 73.5813 92.1932 73.292V69.904C91.9692 69.6147 91.6845 69.3907 91.3392 69.232C91.0032 69.064 90.6439 68.98 90.2612 68.98C89.8039 68.98 89.3932 69.092 89.0292 69.316C88.6745 69.54 88.3899 69.848 88.1752 70.24C87.9699 70.632 87.8672 71.08 87.8672 71.584C87.8672 72.0787 87.9699 72.5267 88.1752 72.928C88.3899 73.32 88.6745 73.6327 89.0292 73.866C89.3932 74.09 89.8039 74.202 90.2612 74.202Z" fill="#0066CC"/>
<path d="M168 58C168 54.6863 170.686 52 174 52H229C232.314 52 235 54.6863 235 58V83C235 86.3137 232.314 89 229 89H174C170.686 89 168 86.3137 168 83V58Z" fill="#C7C7C7" fill-opacity="0.25"/>
<path d="M187.001 64C190.861 64 194 67.1404 194 71C194 74.8596 190.861 78 187.001 78C183.142 77.9998 180 74.8581 180 71C180 67.1419 183.14 64.0002 187.001 64ZM187 65.75C184.104 65.75 181.75 68.1057 181.75 71C181.75 73.8971 184.104 76.25 187 76.25C189.894 76.25 192.25 73.8957 192.25 71C192.25 68.1043 189.896 65.75 187 65.75ZM187.67 67.9375C187.783 67.9375 187.875 68.0293 187.875 68.1426V70.125H189.857C189.971 70.1255 190.063 70.2177 190.062 70.3311V71.6709C190.062 71.7252 190.04 71.7772 190.002 71.8154C189.963 71.8537 189.912 71.8754 189.857 71.875H187.875V73.8564C187.875 73.9698 187.783 74.062 187.67 74.0625H186.33C186.217 74.062 186.125 73.9698 186.125 73.8564V71.875H184.143C184.029 71.875 183.938 71.7832 183.938 71.6699V70.3301C183.938 70.2168 184.029 70.125 184.143 70.125H186.125V68.1426C186.125 68.0293 186.217 67.9375 186.33 67.9375H187.67Z" fill="#004D99"/>
<path d="M201.126 75L205.004 65.2H206.292L210.114 75H208.952L207.79 71.92H203.422L202.26 75H201.126ZM203.758 71.066H207.468L205.606 66.18L203.758 71.066ZM213.861 75.098C213.273 75.098 212.741 74.944 212.265 74.636C211.789 74.3187 211.411 73.8987 211.131 73.376C210.851 72.844 210.711 72.2513 210.711 71.598C210.711 70.9353 210.851 70.3427 211.131 69.82C211.42 69.288 211.807 68.868 212.293 68.56C212.778 68.2427 213.319 68.084 213.917 68.084C214.337 68.084 214.729 68.168 215.093 68.336C215.457 68.4947 215.774 68.728 216.045 69.036V64.892L217.067 64.682V75H216.045V74.09C215.783 74.4167 215.466 74.6687 215.093 74.846C214.719 75.014 214.309 75.098 213.861 75.098ZM214.113 74.202C214.514 74.202 214.883 74.1227 215.219 73.964C215.555 73.8053 215.83 73.5813 216.045 73.292V69.904C215.821 69.6147 215.536 69.3907 215.191 69.232C214.855 69.064 214.495 68.98 214.113 68.98C213.655 68.98 213.245 69.092 212.881 69.316C212.526 69.54 212.241 69.848 212.027 70.24C211.821 70.632 211.719 71.08 211.719 71.584C211.719 72.0787 211.821 72.5267 212.027 72.928C212.241 73.32 212.526 73.6327 212.881 73.866C213.245 74.09 213.655 74.202 214.113 74.202ZM222.009 75.098C221.421 75.098 220.889 74.944 220.413 74.636C219.937 74.3187 219.559 73.8987 219.279 73.376C218.999 72.844 218.859 72.2513 218.859 71.598C218.859 70.9353 218.999 70.3427 219.279 69.82C219.569 69.288 219.956 68.868 220.441 68.56C220.927 68.2427 221.468 68.084 222.065 68.084C222.485 68.084 222.877 68.168 223.241 68.336C223.605 68.4947 223.923 68.728 224.193 69.036V64.892L225.215 64.682V75H224.193V74.09C223.932 74.4167 223.615 74.6687 223.241 74.846C222.868 75.014 222.457 75.098 222.009 75.098ZM222.261 74.202C222.663 74.202 223.031 74.1227 223.367 73.964C223.703 73.8053 223.979 73.5813 224.193 73.292V69.904C223.969 69.6147 223.685 69.3907 223.339 69.232C223.003 69.064 222.644 68.98 222.261 68.98C221.804 68.98 221.393 69.092 221.029 69.316C220.675 69.54 220.39 69.848 220.175 70.24C219.97 70.632 219.867 71.08 219.867 71.584C219.867 72.0787 219.97 72.5267 220.175 72.928C220.39 73.32 220.675 73.6327 221.029 73.866C221.393 74.09 221.804 74.202 222.261 74.202Z" fill="#004D99"/>
<mask id="path-6-inside-1_1514_40617" fill="white">
<path d="M224.465 84.9271C224.465 83.3875 226.131 82.4254 227.465 83.1951L239.595 90.198C240.929 90.9678 240.928 92.8925 239.595 93.6623L236.372 95.5231L238.01 98.3614C238.563 99.3179 238.235 100.541 237.278 101.093L235.475 102.134C234.519 102.687 233.296 102.359 232.743 101.402L231.105 98.5641L227.465 100.666C226.131 101.435 224.464 100.473 224.464 98.9338L224.465 84.9271Z"/>
</mask>
<path d="M224.465 84.9271C224.465 83.3875 226.131 82.4254 227.465 83.1951L239.595 90.198C240.929 90.9678 240.928 92.8925 239.595 93.6623L236.372 95.5231L238.01 98.3614C238.563 99.3179 238.235 100.541 237.278 101.093L235.475 102.134C234.519 102.687 233.296 102.359 232.743 101.402L231.105 98.5641L227.465 100.666C226.131 101.435 224.464 100.473 224.464 98.9338L224.465 84.9271Z" fill="#FF00FF"/>
<path d="M224.465 84.9271L225.465 84.9271L225.465 84.9271L224.465 84.9271ZM227.465 83.1951L226.965 84.0612L226.965 84.0612L227.465 83.1951ZM239.595 90.198L240.095 89.332L240.095 89.3319L239.595 90.198ZM239.595 93.6623L239.095 92.7962L239.595 93.6623ZM236.372 95.5231L235.872 94.6571L235.006 95.1571L235.506 96.0231L236.372 95.5231ZM238.01 98.3614L238.877 97.8615L238.877 97.8614L238.01 98.3614ZM237.278 101.093L237.778 101.959L237.778 101.959L237.278 101.093ZM232.743 101.402L231.877 101.902L231.877 101.903L232.743 101.402ZM231.105 98.5641L231.971 98.0641L231.471 97.1981L230.605 97.6981L231.105 98.5641ZM227.465 100.666L227.965 101.532L227.965 101.532L227.465 100.666ZM224.464 98.9338L223.464 98.9338L223.464 98.9338L224.464 98.9338ZM224.465 84.9271L225.465 84.9271C225.465 84.1574 226.298 83.6763 226.965 84.0612L227.465 83.1951L227.965 82.3291C225.965 81.1746 223.465 82.6177 223.465 84.9271L224.465 84.9271ZM227.465 83.1951L226.965 84.0612L239.095 91.064L239.595 90.198L240.095 89.3319L227.965 82.3291L227.465 83.1951ZM239.595 90.198L239.095 91.064C239.762 91.4487 239.762 92.4112 239.095 92.7962L239.595 93.6623L240.095 94.5283C242.095 93.3738 242.095 90.4868 240.095 89.332L239.595 90.198ZM239.595 93.6623L239.095 92.7962L235.872 94.6571L236.372 95.5231L236.872 96.3891L240.095 94.5283L239.595 93.6623ZM236.372 95.5231L235.506 96.0231L237.144 98.8614L238.01 98.3614L238.877 97.8614L237.238 95.0231L236.372 95.5231ZM238.01 98.3614L237.144 98.8612C237.42 99.3396 237.256 99.9514 236.778 100.227L237.278 101.093L237.778 101.959C239.213 101.131 239.705 99.2961 238.877 97.8615L238.01 98.3614ZM237.278 101.093L236.778 100.227L234.975 101.268L235.475 102.134L235.975 103L237.778 101.959L237.278 101.093ZM235.475 102.134L234.975 101.268C234.497 101.544 233.886 101.381 233.609 100.902L232.743 101.402L231.877 101.903C232.706 103.337 234.54 103.829 235.975 103L235.475 102.134ZM232.743 101.402L233.609 100.902L231.971 98.0641L231.105 98.5641L230.239 99.0641L231.877 101.902L232.743 101.402ZM231.105 98.5641L230.605 97.6981L226.965 99.7997L227.465 100.666L227.965 101.532L231.605 99.4301L231.105 98.5641ZM227.465 100.666L226.965 99.7996C226.298 100.185 225.464 99.7032 225.464 98.9338L224.464 98.9338L223.464 98.9338C223.464 101.244 225.965 102.686 227.965 101.532L227.465 100.666ZM224.464 98.9338L225.464 98.9339L225.465 84.9271L224.465 84.9271L223.465 84.927L223.464 98.9338L224.464 98.9338Z" fill="#FF00FF" mask="url(#path-6-inside-1_1514_40617)"/>
<path d="M45.816 38.496H48.12C48.8987 38.496 49.6027 38.3147 50.232 37.952C50.8613 37.5893 51.3573 37.104 51.72 36.496C52.0827 35.8773 52.264 35.184 52.264 34.416C52.264 33.6373 52.0827 32.9387 51.72 32.32C51.3573 31.7013 50.8613 31.2107 50.232 30.848C49.6027 30.4853 48.8987 30.304 48.12 30.304H45.816V38.496ZM44.136 40V28.8H48.088C48.9307 28.8 49.7093 28.944 50.424 29.232C51.1387 29.5093 51.7627 29.8987 52.296 30.4C52.8293 30.9013 53.2453 31.4933 53.544 32.176C53.8427 32.8587 53.992 33.6 53.992 34.4C53.992 35.2107 53.8427 35.9573 53.544 36.64C53.256 37.312 52.8453 37.8987 52.312 38.4C51.7787 38.9013 51.1493 39.296 50.424 39.584C49.7093 39.8613 48.9307 40 48.088 40H44.136ZM59.473 40.144C58.673 40.144 57.9477 39.9573 57.297 39.584C56.657 39.2107 56.145 38.704 55.761 38.064C55.3877 37.424 55.201 36.7093 55.201 35.92C55.201 35.1413 55.3823 34.4373 55.745 33.808C56.1077 33.168 56.5983 32.6613 57.217 32.288C57.8357 31.904 58.5237 31.712 59.281 31.712C60.0383 31.712 60.7103 31.904 61.297 32.288C61.8837 32.6613 62.3477 33.1733 62.689 33.824C63.041 34.464 63.217 35.1893 63.217 36V36.448H56.801C56.8863 36.896 57.0517 37.296 57.297 37.648C57.553 38 57.873 38.2773 58.257 38.48C58.6517 38.6827 59.0783 38.784 59.537 38.784C59.9317 38.784 60.3103 38.7253 60.673 38.608C61.0463 38.48 61.3557 38.2987 61.601 38.064L62.625 39.072C62.145 39.4347 61.649 39.7067 61.137 39.888C60.6357 40.0587 60.081 40.144 59.473 40.144ZM56.817 35.248H61.633C61.569 34.8213 61.4197 34.448 61.185 34.128C60.961 33.7973 60.6783 33.5413 60.337 33.36C60.0063 33.168 59.6437 33.072 59.249 33.072C58.6303 33.072 58.097 33.2747 57.649 33.68C57.2117 34.0747 56.9343 34.5973 56.817 35.248ZM65.7225 40V33.2H63.8345V31.856H65.7225V30.624C65.7225 29.7707 65.9572 29.12 66.4265 28.672C66.9065 28.224 67.5892 28 68.4745 28C68.6985 28 68.9065 28.016 69.0985 28.048C69.3012 28.0693 69.4825 28.1067 69.6425 28.16V29.536C69.4505 29.4827 69.2798 29.4453 69.1305 29.424C68.9812 29.392 68.8158 29.376 68.6345 29.376C67.7492 29.376 67.3065 29.808 67.3065 30.672V31.856H69.6425V33.2H67.3065V40H65.7225ZM73.1763 40.144C72.5896 40.144 72.0723 40.0427 71.6243 39.84C71.1763 39.6267 70.8243 39.3333 70.5683 38.96C70.3123 38.5867 70.1842 38.1547 70.1842 37.664C70.1842 36.896 70.4776 36.2933 71.0643 35.856C71.6509 35.408 72.4563 35.184 73.4803 35.184C74.2803 35.184 75.0216 35.3387 75.7043 35.648V34.784C75.7043 33.6213 75.0429 33.04 73.7203 33.04C73.3469 33.04 72.9576 33.0987 72.5523 33.216C72.1469 33.3227 71.6936 33.4933 71.1923 33.728L70.6003 32.528C71.2189 32.24 71.7949 32.032 72.3283 31.904C72.8616 31.7653 73.4003 31.696 73.9443 31.696C75.0003 31.696 75.8163 31.9467 76.3923 32.448C76.9789 32.9493 77.2723 33.664 77.2723 34.592V40H75.7043V39.296C75.3416 39.584 74.9523 39.7973 74.5363 39.936C74.1203 40.0747 73.6669 40.144 73.1763 40.144ZM71.7203 37.632C71.7203 38.0267 71.8856 38.3467 72.2163 38.592C72.5576 38.8373 73.0003 38.96 73.5443 38.96C74.4189 38.96 75.1389 38.6987 75.7043 38.176V36.8C75.1176 36.4587 74.4189 36.288 73.6083 36.288C73.0216 36.288 72.5576 36.4107 72.2163 36.656C71.8856 36.8907 71.7203 37.216 71.7203 37.632ZM82.1898 40.16C81.5604 40.16 81.0058 40.0267 80.5258 39.76C80.0458 39.4933 79.6724 39.12 79.4058 38.64C79.1391 38.16 79.0058 37.6 79.0058 36.96V31.856H80.5898V36.688C80.5898 37.328 80.7711 37.8347 81.1338 38.208C81.5071 38.5813 82.0031 38.768 82.6218 38.768C83.4964 38.768 84.1631 38.4107 84.6218 37.696V31.856H86.2218V40H84.6218V39.168C83.9924 39.8293 83.1818 40.16 82.1898 40.16ZM88.1159 40V28.8L89.7159 28.496V40H88.1159ZM95.0883 40.144C94.2989 40.144 93.6963 39.9627 93.2803 39.6C92.8643 39.2267 92.6562 38.688 92.6562 37.984V33.2H90.9283V31.856H92.6562V29.776L94.2403 29.392V31.856H96.6403V33.2H94.2403V37.616C94.2403 38.032 94.3309 38.3307 94.5123 38.512C94.7043 38.6827 95.0136 38.768 95.4403 38.768C95.6643 38.768 95.8616 38.752 96.0323 38.72C96.2136 38.688 96.4056 38.64 96.6083 38.576V39.92C96.3949 39.9947 96.1443 40.048 95.8563 40.08C95.5789 40.1227 95.3229 40.144 95.0883 40.144Z" fill="black"/>
<path d="M177.136 40V28.8H178.816V33.6H184.768V28.8H186.448V40H184.768V35.12H178.816V40H177.136ZM192.41 40.16C191.62 40.16 190.9 39.9733 190.25 39.6C189.61 39.2267 189.103 38.72 188.73 38.08C188.356 37.44 188.17 36.7253 188.17 35.936C188.17 35.1467 188.356 34.432 188.73 33.792C189.103 33.152 189.61 32.6453 190.25 32.272C190.9 31.888 191.62 31.696 192.41 31.696C193.21 31.696 193.93 31.888 194.57 32.272C195.21 32.6453 195.716 33.152 196.09 33.792C196.463 34.432 196.65 35.1467 196.65 35.936C196.65 36.7253 196.463 37.44 196.09 38.08C195.716 38.72 195.21 39.2267 194.57 39.6C193.93 39.9733 193.21 40.16 192.41 40.16ZM192.41 38.752C192.911 38.752 193.359 38.6293 193.754 38.384C194.159 38.128 194.479 37.7867 194.714 37.36C194.959 36.9333 195.082 36.4587 195.082 35.936C195.082 35.4027 194.964 34.928 194.73 34.512C194.495 34.0853 194.175 33.744 193.77 33.488C193.364 33.232 192.911 33.104 192.41 33.104C191.908 33.104 191.455 33.232 191.05 33.488C190.644 33.744 190.324 34.0853 190.09 34.512C189.855 34.928 189.738 35.4027 189.738 35.936C189.738 36.4587 189.855 36.9333 190.09 37.36C190.324 37.7867 190.644 38.128 191.05 38.384C191.455 38.6293 191.908 38.752 192.41 38.752ZM200.552 40L197.032 31.856H198.792L201.336 37.952L203.88 31.856H205.576L202.088 40H200.552ZM210.239 40.144C209.439 40.144 208.713 39.9573 208.063 39.584C207.423 39.2107 206.911 38.704 206.527 38.064C206.153 37.424 205.967 36.7093 205.967 35.92C205.967 35.1413 206.148 34.4373 206.511 33.808C206.873 33.168 207.364 32.6613 207.983 32.288C208.601 31.904 209.289 31.712 210.047 31.712C210.804 31.712 211.476 31.904 212.063 32.288C212.649 32.6613 213.113 33.1733 213.455 33.824C213.807 34.464 213.983 35.1893 213.983 36V36.448H207.567C207.652 36.896 207.817 37.296 208.063 37.648C208.319 38 208.639 38.2773 209.023 38.48C209.417 38.6827 209.844 38.784 210.303 38.784C210.697 38.784 211.076 38.7253 211.439 38.608C211.812 38.48 212.121 38.2987 212.367 38.064L213.391 39.072C212.911 39.4347 212.415 39.7067 211.903 39.888C211.401 40.0587 210.847 40.144 210.239 40.144ZM207.583 35.248H212.399C212.335 34.8213 212.185 34.448 211.951 34.128C211.727 33.7973 211.444 33.5413 211.103 33.36C210.772 33.168 210.409 33.072 210.015 33.072C209.396 33.072 208.863 33.2747 208.415 33.68C207.977 34.0747 207.7 34.5973 207.583 35.248ZM215.507 40V31.856H217.107V32.896C217.363 32.512 217.677 32.2133 218.051 32C218.435 31.776 218.867 31.664 219.347 31.664C219.677 31.6747 219.949 31.7227 220.163 31.808V33.248C219.853 33.1307 219.539 33.072 219.219 33.072C218.749 33.072 218.333 33.2 217.971 33.456C217.608 33.7013 217.32 34.064 217.107 34.544V40H215.507Z" fill="black"/>
</svg>
