<svg width="678" height="104" viewBox="0 0 678 104" fill="none" xmlns="http://www.w3.org/2000/svg">
<rect width="678" height="104" fill="white"/>
<path d="M70.6875 47.75C70.929 47.75 71.125 47.946 71.125 48.1875V49.0625C71.125 49.304 70.929 49.5 70.6875 49.5H66.75V58.25H75.5V55.1875C75.5 54.946 75.696 54.75 75.9375 54.75H76.8125C77.054 54.75 77.25 54.946 77.25 55.1875V58.6875C77.25 59.412 76.662 60 75.9375 60H66.3125C65.588 60 65 59.412 65 58.6875V49.0625C65 48.338 65.588 47.75 66.3125 47.75H70.6875ZM78.3438 46C78.706 46 79 46.294 79 46.6562V50.1562C79 50.7441 78.2891 51.0312 77.8789 50.6211L76.9023 49.6455L70.2412 56.3086C70.1351 56.4151 69.9268 56.5019 69.7764 56.502C69.626 56.502 69.4177 56.4151 69.3115 56.3086L68.6914 55.6895C68.5849 55.5832 68.498 55.375 68.498 55.2246C68.4982 55.0742 68.5849 54.8659 68.6914 54.7598L75.3555 48.0977L74.3789 47.1211C73.9674 46.7085 74.2594 46 74.8438 46H78.3438Z" fill="#0066CC"/>
<path d="M88.324 56.034H90.564C91.2733 56.034 91.908 55.8613 92.468 55.516C93.028 55.1707 93.4713 54.704 93.798 54.116C94.134 53.5187 94.302 52.8467 94.302 52.1C94.302 51.3533 94.134 50.686 93.798 50.098C93.4713 49.5007 93.028 49.0293 92.468 48.684C91.908 48.3387 91.2733 48.166 90.564 48.166H88.324V56.034ZM87.246 57V47.2H90.494C91.2127 47.2 91.8707 47.326 92.468 47.578C93.0747 47.8207 93.5927 48.166 94.022 48.614C94.4607 49.0527 94.7967 49.5707 95.03 50.168C95.2727 50.756 95.394 51.4 95.394 52.1C95.394 52.8 95.2727 53.4487 95.03 54.046C94.7967 54.634 94.4607 55.152 94.022 55.6C93.5927 56.0387 93.0747 56.384 92.468 56.636C91.8707 56.8787 91.2127 57 90.494 57H87.246ZM100.316 57.14C99.6809 57.14 99.1069 56.986 98.5935 56.678C98.0802 56.3607 97.6742 55.936 97.3755 55.404C97.0769 54.8627 96.9275 54.256 96.9275 53.584C96.9275 52.912 97.0675 52.31 97.3475 51.778C97.6369 51.246 98.0242 50.826 98.5095 50.518C98.9949 50.21 99.5362 50.056 100.134 50.056C100.74 50.056 101.277 50.21 101.744 50.518C102.22 50.8167 102.593 51.2273 102.864 51.75C103.144 52.2633 103.284 52.8467 103.284 53.5V53.808H97.9215C97.9589 54.2747 98.0849 54.6947 98.2995 55.068C98.5235 55.432 98.8129 55.7213 99.1675 55.936C99.5315 56.1413 99.9282 56.244 100.358 56.244C100.712 56.244 101.053 56.1833 101.38 56.062C101.716 55.9313 102 55.7587 102.234 55.544L102.878 56.23C102.486 56.538 102.08 56.7667 101.66 56.916C101.24 57.0653 100.792 57.14 100.316 57.14ZM97.9495 53.08H102.276C102.229 52.6693 102.103 52.3053 101.898 51.988C101.702 51.6613 101.45 51.4047 101.142 51.218C100.843 51.0313 100.507 50.938 100.134 50.938C99.7602 50.938 99.4195 51.0313 99.1115 51.218C98.8035 51.3953 98.5469 51.6473 98.3415 51.974C98.1455 52.2913 98.0149 52.66 97.9495 53.08ZM105.691 57V51.008H104.165V50.168H105.691V48.74C105.691 48.068 105.869 47.55 106.223 47.186C106.578 46.822 107.082 46.64 107.735 46.64C107.922 46.64 108.09 46.6493 108.239 46.668C108.398 46.6867 108.538 46.7193 108.659 46.766V47.69C108.51 47.6433 108.375 47.6107 108.253 47.592C108.132 47.5733 107.992 47.564 107.833 47.564C107.441 47.564 107.157 47.662 106.979 47.858C106.802 48.0447 106.713 48.3433 106.713 48.754V50.168H108.659V51.008H106.713V57H105.691ZM111.914 57.126C111.429 57.126 110.999 57.0373 110.626 56.86C110.253 56.6827 109.959 56.44 109.744 56.132C109.539 55.8147 109.436 55.4507 109.436 55.04C109.436 54.6293 109.543 54.2747 109.758 53.976C109.973 53.668 110.271 53.43 110.654 53.262C111.037 53.094 111.485 53.01 111.998 53.01C112.39 53.01 112.759 53.052 113.104 53.136C113.459 53.22 113.785 53.3553 114.084 53.542V52.604C114.084 52.044 113.935 51.624 113.636 51.344C113.337 51.0547 112.899 50.91 112.32 50.91C112.003 50.91 111.676 50.9567 111.34 51.05C111.013 51.1433 110.649 51.2927 110.248 51.498L109.87 50.714C110.785 50.2753 111.643 50.056 112.446 50.056C113.295 50.056 113.949 50.266 114.406 50.686C114.863 51.0967 115.092 51.6893 115.092 52.464V57H114.084V56.202C113.785 56.51 113.454 56.7433 113.09 56.902C112.726 57.0513 112.334 57.126 111.914 57.126ZM110.416 55.012C110.416 55.4133 110.57 55.7353 110.878 55.978C111.195 56.2207 111.611 56.342 112.124 56.342C112.507 56.342 112.857 56.2767 113.174 56.146C113.501 56.0153 113.804 55.8193 114.084 55.558V54.242C113.795 54.074 113.496 53.9527 113.188 53.878C112.88 53.794 112.535 53.752 112.152 53.752C111.629 53.752 111.209 53.8687 110.892 54.102C110.575 54.326 110.416 54.6293 110.416 55.012ZM119.537 57.112C119.051 57.112 118.622 57.0047 118.249 56.79C117.875 56.5753 117.581 56.2767 117.367 55.894C117.161 55.5113 117.059 55.0727 117.059 54.578V50.168H118.095V54.284C118.095 54.8907 118.258 55.3713 118.585 55.726C118.911 56.0807 119.355 56.258 119.915 56.258C120.297 56.258 120.638 56.1693 120.937 55.992C121.245 55.8147 121.501 55.558 121.707 55.222V50.168H122.729V57H121.707V55.894C121.445 56.2953 121.133 56.5987 120.769 56.804C120.414 57.0093 120.003 57.112 119.537 57.112ZM124.825 57V46.892L125.847 46.682V57H124.825ZM130.547 57.14C129.959 57.14 129.511 57 129.203 56.72C128.904 56.4307 128.755 56.0153 128.755 55.474V51.008H127.341V50.168H128.755V48.292L129.777 48.054V50.168H131.737V51.008H129.777V55.208C129.777 55.572 129.851 55.8333 130.001 55.992C130.159 56.1507 130.416 56.23 130.771 56.23C130.948 56.23 131.107 56.216 131.247 56.188C131.387 56.16 131.55 56.1133 131.737 56.048V56.958C131.55 57.0233 131.354 57.07 131.149 57.098C130.943 57.126 130.743 57.14 130.547 57.14ZM136.501 57V46.892L137.523 46.682V57H136.501ZM139.604 57V50.168H140.626V57H139.604ZM140.122 48.474C139.917 48.474 139.74 48.404 139.59 48.264C139.45 48.1147 139.38 47.942 139.38 47.746C139.38 47.55 139.45 47.382 139.59 47.242C139.74 47.0927 139.917 47.018 140.122 47.018C140.328 47.018 140.5 47.0927 140.64 47.242C140.79 47.382 140.864 47.55 140.864 47.746C140.864 47.942 140.79 48.1147 140.64 48.264C140.5 48.404 140.328 48.474 140.122 48.474ZM142.722 57V50.168H143.744V51.274C144.005 50.8633 144.318 50.56 144.682 50.364C145.046 50.1587 145.457 50.056 145.914 50.056C146.409 50.056 146.838 50.1633 147.202 50.378C147.575 50.5833 147.865 50.8773 148.07 51.26C148.285 51.6333 148.392 52.072 148.392 52.576V57H147.37V52.87C147.37 52.2633 147.202 51.7873 146.866 51.442C146.539 51.0873 146.096 50.91 145.536 50.91C145.163 50.91 144.822 50.9987 144.514 51.176C144.206 51.3533 143.949 51.6147 143.744 51.96V57H142.722ZM150.446 57V46.892L151.468 46.682V53.234L154.716 50.168H155.948L152.476 53.416L156.102 57H154.758L151.468 53.738V57H150.446ZM160.564 57V46.99L161.586 46.78V51.106C161.847 50.7793 162.164 50.5273 162.538 50.35C162.911 50.1727 163.326 50.084 163.784 50.084C164.381 50.084 164.913 50.2427 165.38 50.56C165.856 50.868 166.234 51.288 166.514 51.82C166.794 52.3427 166.934 52.9307 166.934 53.584C166.934 54.2373 166.789 54.83 166.5 55.362C166.22 55.894 165.837 56.3187 165.352 56.636C164.876 56.944 164.334 57.098 163.728 57.098C163.298 57.098 162.897 57.014 162.524 56.846C162.16 56.6687 161.842 56.4213 161.572 56.104V57H160.564ZM163.532 56.216C163.989 56.216 164.395 56.104 164.75 55.88C165.114 55.6467 165.398 55.334 165.604 54.942C165.818 54.5407 165.926 54.0927 165.926 53.598C165.926 53.094 165.818 52.646 165.604 52.254C165.398 51.862 165.114 51.554 164.75 51.33C164.395 51.0967 163.989 50.98 163.532 50.98C163.13 50.98 162.757 51.064 162.412 51.232C162.076 51.3907 161.8 51.6193 161.586 51.918V55.264C161.81 55.5627 162.09 55.796 162.426 55.964C162.771 56.132 163.14 56.216 163.532 56.216ZM171.162 57.112C170.676 57.112 170.247 57.0047 169.874 56.79C169.5 56.5753 169.206 56.2767 168.992 55.894C168.786 55.5113 168.684 55.0727 168.684 54.578V50.168H169.72V54.284C169.72 54.8907 169.883 55.3713 170.21 55.726C170.536 56.0807 170.98 56.258 171.54 56.258C171.922 56.258 172.263 56.1693 172.562 55.992C172.87 55.8147 173.126 55.558 173.332 55.222V50.168H174.354V57H173.332V55.894C173.07 56.2953 172.758 56.5987 172.394 56.804C172.039 57.0093 171.628 57.112 171.162 57.112ZM179.054 57.14C178.466 57.14 178.018 57 177.71 56.72C177.412 56.4307 177.262 56.0153 177.262 55.474V51.008H175.848V50.168H177.262V48.292L178.284 48.054V50.168H180.244V51.008H178.284V55.208C178.284 55.572 178.359 55.8333 178.508 55.992C178.667 56.1507 178.924 56.23 179.278 56.23C179.456 56.23 179.614 56.216 179.754 56.188C179.894 56.16 180.058 56.1133 180.244 56.048V56.958C180.058 57.0233 179.862 57.07 179.656 57.098C179.451 57.126 179.25 57.14 179.054 57.14ZM184.482 57.14C183.894 57.14 183.446 57 183.138 56.72C182.839 56.4307 182.69 56.0153 182.69 55.474V51.008H181.276V50.168H182.69V48.292L183.712 48.054V50.168H185.672V51.008H183.712V55.208C183.712 55.572 183.787 55.8333 183.936 55.992C184.095 56.1507 184.351 56.23 184.706 56.23C184.883 56.23 185.042 56.216 185.182 56.188C185.322 56.16 185.485 56.1133 185.672 56.048V56.958C185.485 57.0233 185.289 57.07 185.084 57.098C184.879 57.126 184.678 57.14 184.482 57.14ZM190.056 57.112C189.422 57.112 188.852 56.958 188.348 56.65C187.844 56.342 187.448 55.922 187.158 55.39C186.869 54.858 186.724 54.256 186.724 53.584C186.724 52.912 186.869 52.31 187.158 51.778C187.448 51.246 187.844 50.826 188.348 50.518C188.852 50.21 189.422 50.056 190.056 50.056C190.682 50.056 191.242 50.21 191.736 50.518C192.24 50.826 192.637 51.246 192.926 51.778C193.216 52.31 193.36 52.912 193.36 53.584C193.36 54.256 193.216 54.858 192.926 55.39C192.637 55.922 192.24 56.342 191.736 56.65C191.242 56.958 190.682 57.112 190.056 57.112ZM190.042 56.216C190.49 56.216 190.887 56.104 191.232 55.88C191.578 55.6467 191.848 55.3293 192.044 54.928C192.25 54.5267 192.352 54.0787 192.352 53.584C192.352 53.08 192.25 52.632 192.044 52.24C191.848 51.8387 191.578 51.526 191.232 51.302C190.887 51.0687 190.49 50.952 190.042 50.952C189.594 50.952 189.198 51.0687 188.852 51.302C188.507 51.526 188.232 51.8387 188.026 52.24C187.83 52.632 187.732 53.08 187.732 53.584C187.732 54.0787 187.83 54.5267 188.026 54.928C188.232 55.3293 188.507 55.6467 188.852 55.88C189.198 56.104 189.594 56.216 190.042 56.216ZM195.154 57V50.168H196.176V51.274C196.437 50.8633 196.75 50.56 197.114 50.364C197.478 50.1587 197.888 50.056 198.346 50.056C198.84 50.056 199.27 50.1633 199.634 50.378C200.007 50.5833 200.296 50.8773 200.502 51.26C200.716 51.6333 200.824 52.072 200.824 52.576V57H199.802V52.87C199.802 52.2633 199.634 51.7873 199.298 51.442C198.971 51.0873 198.528 50.91 197.968 50.91C197.594 50.91 197.254 50.9987 196.946 51.176C196.638 51.3533 196.381 51.6147 196.176 51.96V57H195.154Z" fill="#0066CC"/>
<path d="M306.324 55.034H308.564C309.273 55.034 309.908 54.8613 310.468 54.516C311.028 54.1707 311.471 53.704 311.798 53.116C312.134 52.5187 312.302 51.8467 312.302 51.1C312.302 50.3533 312.134 49.686 311.798 49.098C311.471 48.5007 311.028 48.0293 310.468 47.684C309.908 47.3387 309.273 47.166 308.564 47.166H306.324V55.034ZM305.246 56V46.2H308.494C309.213 46.2 309.871 46.326 310.468 46.578C311.075 46.8207 311.593 47.166 312.022 47.614C312.461 48.0527 312.797 48.5707 313.03 49.168C313.273 49.756 313.394 50.4 313.394 51.1C313.394 51.8 313.273 52.4487 313.03 53.046C312.797 53.634 312.461 54.152 312.022 54.6C311.593 55.0387 311.075 55.384 310.468 55.636C309.871 55.8787 309.213 56 308.494 56H305.246ZM318.316 56.14C317.681 56.14 317.107 55.986 316.594 55.678C316.08 55.3607 315.674 54.936 315.376 54.404C315.077 53.8627 314.928 53.256 314.928 52.584C314.928 51.912 315.068 51.31 315.348 50.778C315.637 50.246 316.024 49.826 316.51 49.518C316.995 49.21 317.536 49.056 318.134 49.056C318.74 49.056 319.277 49.21 319.744 49.518C320.22 49.8167 320.593 50.2273 320.864 50.75C321.144 51.2633 321.284 51.8467 321.284 52.5V52.808H315.922C315.959 53.2747 316.085 53.6947 316.3 54.068C316.524 54.432 316.813 54.7213 317.168 54.936C317.532 55.1413 317.928 55.244 318.358 55.244C318.712 55.244 319.053 55.1833 319.38 55.062C319.716 54.9313 320 54.7587 320.234 54.544L320.878 55.23C320.486 55.538 320.08 55.7667 319.66 55.916C319.24 56.0653 318.792 56.14 318.316 56.14ZM315.95 52.08H320.276C320.229 51.6693 320.103 51.3053 319.898 50.988C319.702 50.6613 319.45 50.4047 319.142 50.218C318.843 50.0313 318.507 49.938 318.134 49.938C317.76 49.938 317.42 50.0313 317.112 50.218C316.804 50.3953 316.547 50.6473 316.342 50.974C316.146 51.2913 316.015 51.66 315.95 52.08ZM323.691 56V50.008H322.165V49.168H323.691V47.74C323.691 47.068 323.869 46.55 324.223 46.186C324.578 45.822 325.082 45.64 325.735 45.64C325.922 45.64 326.09 45.6493 326.239 45.668C326.398 45.6867 326.538 45.7193 326.659 45.766V46.69C326.51 46.6433 326.375 46.6107 326.253 46.592C326.132 46.5733 325.992 46.564 325.833 46.564C325.441 46.564 325.157 46.662 324.979 46.858C324.802 47.0447 324.713 47.3433 324.713 47.754V49.168H326.659V50.008H324.713V56H323.691ZM329.914 56.126C329.429 56.126 328.999 56.0373 328.626 55.86C328.253 55.6827 327.959 55.44 327.744 55.132C327.539 54.8147 327.436 54.4507 327.436 54.04C327.436 53.6293 327.543 53.2747 327.758 52.976C327.973 52.668 328.271 52.43 328.654 52.262C329.037 52.094 329.485 52.01 329.998 52.01C330.39 52.01 330.759 52.052 331.104 52.136C331.459 52.22 331.785 52.3553 332.084 52.542V51.604C332.084 51.044 331.935 50.624 331.636 50.344C331.337 50.0547 330.899 49.91 330.32 49.91C330.003 49.91 329.676 49.9567 329.34 50.05C329.013 50.1433 328.649 50.2927 328.248 50.498L327.87 49.714C328.785 49.2753 329.643 49.056 330.446 49.056C331.295 49.056 331.949 49.266 332.406 49.686C332.863 50.0967 333.092 50.6893 333.092 51.464V56H332.084V55.202C331.785 55.51 331.454 55.7433 331.09 55.902C330.726 56.0513 330.334 56.126 329.914 56.126ZM328.416 54.012C328.416 54.4133 328.57 54.7353 328.878 54.978C329.195 55.2207 329.611 55.342 330.124 55.342C330.507 55.342 330.857 55.2767 331.174 55.146C331.501 55.0153 331.804 54.8193 332.084 54.558V53.242C331.795 53.074 331.496 52.9527 331.188 52.878C330.88 52.794 330.535 52.752 330.152 52.752C329.629 52.752 329.209 52.8687 328.892 53.102C328.575 53.326 328.416 53.6293 328.416 54.012ZM337.537 56.112C337.051 56.112 336.622 56.0047 336.249 55.79C335.875 55.5753 335.581 55.2767 335.367 54.894C335.161 54.5113 335.059 54.0727 335.059 53.578V49.168H336.095V53.284C336.095 53.8907 336.258 54.3713 336.585 54.726C336.911 55.0807 337.355 55.258 337.915 55.258C338.297 55.258 338.638 55.1693 338.937 54.992C339.245 54.8147 339.501 54.558 339.707 54.222V49.168H340.729V56H339.707V54.894C339.445 55.2953 339.133 55.5987 338.769 55.804C338.414 56.0093 338.003 56.112 337.537 56.112ZM342.825 56V45.892L343.847 45.682V56H342.825ZM348.547 56.14C347.959 56.14 347.511 56 347.203 55.72C346.904 55.4307 346.755 55.0153 346.755 54.474V50.008H345.341V49.168H346.755V47.292L347.777 47.054V49.168H349.737V50.008H347.777V54.208C347.777 54.572 347.851 54.8333 348.001 54.992C348.159 55.1507 348.416 55.23 348.771 55.23C348.948 55.23 349.107 55.216 349.247 55.188C349.387 55.16 349.55 55.1133 349.737 55.048V55.958C349.55 56.0233 349.354 56.07 349.149 56.098C348.943 56.126 348.743 56.14 348.547 56.14ZM354.501 56V45.892L355.523 45.682V56H354.501ZM357.604 56V49.168H358.626V56H357.604ZM358.122 47.474C357.917 47.474 357.74 47.404 357.59 47.264C357.45 47.1147 357.38 46.942 357.38 46.746C357.38 46.55 357.45 46.382 357.59 46.242C357.74 46.0927 357.917 46.018 358.122 46.018C358.328 46.018 358.5 46.0927 358.64 46.242C358.79 46.382 358.864 46.55 358.864 46.746C358.864 46.942 358.79 47.1147 358.64 47.264C358.5 47.404 358.328 47.474 358.122 47.474ZM360.722 56V49.168H361.744V50.274C362.005 49.8633 362.318 49.56 362.682 49.364C363.046 49.1587 363.457 49.056 363.914 49.056C364.409 49.056 364.838 49.1633 365.202 49.378C365.575 49.5833 365.865 49.8773 366.07 50.26C366.285 50.6333 366.392 51.072 366.392 51.576V56H365.37V51.87C365.37 51.2633 365.202 50.7873 364.866 50.442C364.539 50.0873 364.096 49.91 363.536 49.91C363.163 49.91 362.822 49.9987 362.514 50.176C362.206 50.3533 361.949 50.6147 361.744 50.96V56H360.722ZM368.446 56V45.892L369.468 45.682V52.234L372.716 49.168H373.948L370.476 52.416L374.102 56H372.758L369.468 52.738V56H368.446ZM378.564 56V45.99L379.586 45.78V50.106C379.847 49.7793 380.164 49.5273 380.538 49.35C380.911 49.1727 381.326 49.084 381.784 49.084C382.381 49.084 382.913 49.2427 383.38 49.56C383.856 49.868 384.234 50.288 384.514 50.82C384.794 51.3427 384.934 51.9307 384.934 52.584C384.934 53.2373 384.789 53.83 384.5 54.362C384.22 54.894 383.837 55.3187 383.352 55.636C382.876 55.944 382.334 56.098 381.728 56.098C381.298 56.098 380.897 56.014 380.524 55.846C380.16 55.6687 379.842 55.4213 379.572 55.104V56H378.564ZM381.532 55.216C381.989 55.216 382.395 55.104 382.75 54.88C383.114 54.6467 383.398 54.334 383.604 53.942C383.818 53.5407 383.926 53.0927 383.926 52.598C383.926 52.094 383.818 51.646 383.604 51.254C383.398 50.862 383.114 50.554 382.75 50.33C382.395 50.0967 381.989 49.98 381.532 49.98C381.13 49.98 380.757 50.064 380.412 50.232C380.076 50.3907 379.8 50.6193 379.586 50.918V54.264C379.81 54.5627 380.09 54.796 380.426 54.964C380.771 55.132 381.14 55.216 381.532 55.216ZM389.162 56.112C388.676 56.112 388.247 56.0047 387.874 55.79C387.5 55.5753 387.206 55.2767 386.992 54.894C386.786 54.5113 386.684 54.0727 386.684 53.578V49.168H387.72V53.284C387.72 53.8907 387.883 54.3713 388.21 54.726C388.536 55.0807 388.98 55.258 389.54 55.258C389.922 55.258 390.263 55.1693 390.562 54.992C390.87 54.8147 391.126 54.558 391.332 54.222V49.168H392.354V56H391.332V54.894C391.07 55.2953 390.758 55.5987 390.394 55.804C390.039 56.0093 389.628 56.112 389.162 56.112ZM397.054 56.14C396.466 56.14 396.018 56 395.71 55.72C395.412 55.4307 395.262 55.0153 395.262 54.474V50.008H393.848V49.168H395.262V47.292L396.284 47.054V49.168H398.244V50.008H396.284V54.208C396.284 54.572 396.359 54.8333 396.508 54.992C396.667 55.1507 396.924 55.23 397.278 55.23C397.456 55.23 397.614 55.216 397.754 55.188C397.894 55.16 398.058 55.1133 398.244 55.048V55.958C398.058 56.0233 397.862 56.07 397.656 56.098C397.451 56.126 397.25 56.14 397.054 56.14ZM402.482 56.14C401.894 56.14 401.446 56 401.138 55.72C400.839 55.4307 400.69 55.0153 400.69 54.474V50.008H399.276V49.168H400.69V47.292L401.712 47.054V49.168H403.672V50.008H401.712V54.208C401.712 54.572 401.787 54.8333 401.936 54.992C402.095 55.1507 402.351 55.23 402.706 55.23C402.883 55.23 403.042 55.216 403.182 55.188C403.322 55.16 403.485 55.1133 403.672 55.048V55.958C403.485 56.0233 403.289 56.07 403.084 56.098C402.879 56.126 402.678 56.14 402.482 56.14ZM408.056 56.112C407.422 56.112 406.852 55.958 406.348 55.65C405.844 55.342 405.448 54.922 405.158 54.39C404.869 53.858 404.724 53.256 404.724 52.584C404.724 51.912 404.869 51.31 405.158 50.778C405.448 50.246 405.844 49.826 406.348 49.518C406.852 49.21 407.422 49.056 408.056 49.056C408.682 49.056 409.242 49.21 409.736 49.518C410.24 49.826 410.637 50.246 410.926 50.778C411.216 51.31 411.36 51.912 411.36 52.584C411.36 53.256 411.216 53.858 410.926 54.39C410.637 54.922 410.24 55.342 409.736 55.65C409.242 55.958 408.682 56.112 408.056 56.112ZM408.042 55.216C408.49 55.216 408.887 55.104 409.232 54.88C409.578 54.6467 409.848 54.3293 410.044 53.928C410.25 53.5267 410.352 53.0787 410.352 52.584C410.352 52.08 410.25 51.632 410.044 51.24C409.848 50.8387 409.578 50.526 409.232 50.302C408.887 50.0687 408.49 49.952 408.042 49.952C407.594 49.952 407.198 50.0687 406.852 50.302C406.507 50.526 406.232 50.8387 406.026 51.24C405.83 51.632 405.732 52.08 405.732 52.584C405.732 53.0787 405.83 53.5267 406.026 53.928C406.232 54.3293 406.507 54.6467 406.852 54.88C407.198 55.104 407.594 55.216 408.042 55.216ZM413.154 56V49.168H414.176V50.274C414.437 49.8633 414.75 49.56 415.114 49.364C415.478 49.1587 415.888 49.056 416.346 49.056C416.84 49.056 417.27 49.1633 417.634 49.378C418.007 49.5833 418.296 49.8773 418.502 50.26C418.716 50.6333 418.824 51.072 418.824 51.576V56H417.802V51.87C417.802 51.2633 417.634 50.7873 417.298 50.442C416.971 50.0873 416.528 49.91 415.968 49.91C415.594 49.91 415.254 49.9987 414.946 50.176C414.638 50.3533 414.381 50.6147 414.176 50.96V56H413.154Z" fill="#0066CC"/>
<path d="M433.688 46.75C433.929 46.75 434.125 46.946 434.125 47.1875V48.0625C434.125 48.304 433.929 48.5 433.688 48.5H429.75V57.25H438.5V54.1875C438.5 53.946 438.696 53.75 438.938 53.75H439.812C440.054 53.75 440.25 53.946 440.25 54.1875V57.6875C440.25 58.412 439.662 59 438.938 59H429.312C428.588 59 428 58.412 428 57.6875V48.0625C428 47.338 428.588 46.75 429.312 46.75H433.688ZM441.344 45C441.706 45 442 45.294 442 45.6562V49.1562C442 49.7441 441.289 50.0312 440.879 49.6211L439.902 48.6455L433.241 55.3086C433.135 55.4151 432.927 55.5019 432.776 55.502C432.626 55.502 432.418 55.4151 432.312 55.3086L431.691 54.6895C431.585 54.5832 431.498 54.375 431.498 54.2246C431.498 54.0742 431.585 53.8659 431.691 53.7598L438.355 47.0977L437.379 46.1211C436.967 45.7085 437.259 45 437.844 45H441.344Z" fill="#0066CC"/>
<path d="M540.232 55V45.2H541.31V55H540.232ZM543.591 55V48.168H544.613V49.274C544.874 48.8633 545.187 48.56 545.551 48.364C545.915 48.1587 546.326 48.056 546.783 48.056C547.278 48.056 547.707 48.1633 548.071 48.378C548.444 48.5833 548.734 48.8773 548.939 49.26C549.154 49.6333 549.261 50.072 549.261 50.576V55H548.239V50.87C548.239 50.2633 548.071 49.7873 547.735 49.442C547.408 49.0873 546.965 48.91 546.405 48.91C546.032 48.91 545.691 48.9987 545.383 49.176C545.075 49.3533 544.818 49.6147 544.613 49.96V55H543.591ZM551.316 55V44.892L552.338 44.682V55H551.316ZM554.419 55V48.168H555.441V55H554.419ZM554.937 46.474C554.731 46.474 554.554 46.404 554.405 46.264C554.265 46.1147 554.195 45.942 554.195 45.746C554.195 45.55 554.265 45.382 554.405 45.242C554.554 45.0927 554.731 45.018 554.937 45.018C555.142 45.018 555.315 45.0927 555.455 45.242C555.604 45.382 555.679 45.55 555.679 45.746C555.679 45.942 555.604 46.1147 555.455 46.264C555.315 46.404 555.142 46.474 554.937 46.474ZM557.536 55V48.168H558.558V49.274C558.82 48.8633 559.132 48.56 559.496 48.364C559.86 48.1587 560.271 48.056 560.728 48.056C561.223 48.056 561.652 48.1633 562.016 48.378C562.39 48.5833 562.679 48.8773 562.884 49.26C563.099 49.6333 563.206 50.072 563.206 50.576V55H562.184V50.87C562.184 50.2633 562.016 49.7873 561.68 49.442C561.354 49.0873 560.91 48.91 560.35 48.91C559.977 48.91 559.636 48.9987 559.328 49.176C559.02 49.3533 558.764 49.6147 558.558 49.96V55H557.536ZM568.341 55.14C567.706 55.14 567.132 54.986 566.619 54.678C566.106 54.3607 565.7 53.936 565.401 53.404C565.102 52.8627 564.953 52.256 564.953 51.584C564.953 50.912 565.093 50.31 565.373 49.778C565.662 49.246 566.05 48.826 566.535 48.518C567.02 48.21 567.562 48.056 568.159 48.056C568.766 48.056 569.302 48.21 569.769 48.518C570.245 48.8167 570.618 49.2273 570.889 49.75C571.169 50.2633 571.309 50.8467 571.309 51.5V51.808H565.947C565.984 52.2747 566.11 52.6947 566.325 53.068C566.549 53.432 566.838 53.7213 567.193 53.936C567.557 54.1413 567.954 54.244 568.383 54.244C568.738 54.244 569.078 54.1833 569.405 54.062C569.741 53.9313 570.026 53.7587 570.259 53.544L570.903 54.23C570.511 54.538 570.105 54.7667 569.685 54.916C569.265 55.0653 568.817 55.14 568.341 55.14ZM565.975 51.08H570.301C570.254 50.6693 570.128 50.3053 569.923 49.988C569.727 49.6613 569.475 49.4047 569.167 49.218C568.868 49.0313 568.532 48.938 568.159 48.938C567.786 48.938 567.445 49.0313 567.137 49.218C566.829 49.3953 566.572 49.6473 566.367 49.974C566.171 50.2913 566.04 50.66 565.975 51.08ZM576.321 55V44.892L577.343 44.682V55H576.321ZM579.425 55V48.168H580.447V55H579.425ZM579.943 46.474C579.737 46.474 579.56 46.404 579.411 46.264C579.271 46.1147 579.201 45.942 579.201 45.746C579.201 45.55 579.271 45.382 579.411 45.242C579.56 45.0927 579.737 45.018 579.943 45.018C580.148 45.018 580.321 45.0927 580.461 45.242C580.61 45.382 580.685 45.55 580.685 45.746C580.685 45.942 580.61 46.1147 580.461 46.264C580.321 46.404 580.148 46.474 579.943 46.474ZM582.542 55V48.168H583.564V49.274C583.826 48.8633 584.138 48.56 584.502 48.364C584.866 48.1587 585.277 48.056 585.734 48.056C586.229 48.056 586.658 48.1633 587.022 48.378C587.396 48.5833 587.685 48.8773 587.89 49.26C588.105 49.6333 588.212 50.072 588.212 50.576V55H587.19V50.87C587.19 50.2633 587.022 49.7873 586.686 49.442C586.36 49.0873 585.916 48.91 585.356 48.91C584.983 48.91 584.642 48.9987 584.334 49.176C584.026 49.3533 583.77 49.6147 583.564 49.96V55H582.542ZM590.267 55V44.892L591.289 44.682V51.234L594.537 48.168H595.769L592.297 51.416L595.923 55H594.579L591.289 51.738V55H590.267Z" fill="#0066CC"/>
<path d="M539 58.5H596.063V59.9H539V58.5Z" fill="#0066CC"/>
<path d="M611.688 45.75C611.929 45.75 612.125 45.946 612.125 46.1875V47.0625C612.125 47.304 611.929 47.5 611.688 47.5H607.75V56.25H616.5V53.1875C616.5 52.946 616.696 52.75 616.938 52.75H617.812C618.054 52.75 618.25 52.946 618.25 53.1875V56.6875C618.25 57.412 617.662 58 616.938 58H607.312C606.588 58 606 57.412 606 56.6875V47.0625C606 46.338 606.588 45.75 607.312 45.75H611.688ZM619.344 44C619.706 44 620 44.294 620 44.6562V48.1562C620 48.7441 619.289 49.0312 618.879 48.6211L617.902 47.6455L611.241 54.3086C611.135 54.4151 610.927 54.5019 610.776 54.502C610.626 54.502 610.418 54.4151 610.312 54.3086L609.691 53.6895C609.585 53.5832 609.498 53.375 609.498 53.2246C609.498 53.0742 609.585 52.8659 609.691 52.7598L616.355 46.0977L615.379 45.1211C614.967 44.7085 615.259 44 615.844 44H619.344Z" fill="#0066CC"/>
</svg>
