<svg width="454" height="105" viewBox="0 0 454 105" fill="none" xmlns="http://www.w3.org/2000/svg">
<rect width="454" height="105" fill="white"/>
<path d="M276.05 47V40.168H277.072V41.274C277.333 40.8633 277.646 40.56 278.01 40.364C278.374 40.1587 278.785 40.056 279.242 40.056C279.737 40.056 280.166 40.1633 280.53 40.378C280.903 40.5833 281.193 40.8773 281.398 41.26C281.613 41.6333 281.72 42.072 281.72 42.576V47H280.698V42.87C280.698 42.2633 280.53 41.7873 280.194 41.442C279.867 41.0873 279.424 40.91 278.864 40.91C278.491 40.91 278.15 40.9987 277.842 41.176C277.534 41.3533 277.277 41.6147 277.072 41.96V47H276.05ZM286.855 47.14C286.22 47.14 285.646 46.986 285.133 46.678C284.619 46.3607 284.213 45.936 283.915 45.404C283.616 44.8627 283.467 44.256 283.467 43.584C283.467 42.912 283.607 42.31 283.887 41.778C284.176 41.246 284.563 40.826 285.049 40.518C285.534 40.21 286.075 40.056 286.673 40.056C287.279 40.056 287.816 40.21 288.283 40.518C288.759 40.8167 289.132 41.2273 289.403 41.75C289.683 42.2633 289.823 42.8467 289.823 43.5V43.808H284.461C284.498 44.2747 284.624 44.6947 284.839 45.068C285.063 45.432 285.352 45.7213 285.707 45.936C286.071 46.1413 286.467 46.244 286.897 46.244C287.251 46.244 287.592 46.1833 287.919 46.062C288.255 45.9313 288.539 45.7587 288.773 45.544L289.417 46.23C289.025 46.538 288.619 46.7667 288.199 46.916C287.779 47.0653 287.331 47.14 286.855 47.14ZM284.489 43.08H288.815C288.768 42.6693 288.642 42.3053 288.437 41.988C288.241 41.6613 287.989 41.4047 287.681 41.218C287.382 41.0313 287.046 40.938 286.673 40.938C286.299 40.938 285.959 41.0313 285.651 41.218C285.343 41.3953 285.086 41.6473 284.881 41.974C284.685 42.2913 284.554 42.66 284.489 43.08ZM292.649 47L290.773 40.168H291.767L293.195 45.628L294.833 40.168H295.743L297.381 45.628L298.795 40.168H299.761L297.899 47H296.905L295.281 41.484L293.657 47H292.649ZM306.91 47.112C306.424 47.112 305.995 47.0047 305.622 46.79C305.248 46.5753 304.954 46.2767 304.74 45.894C304.534 45.5113 304.432 45.0727 304.432 44.578V40.168H305.468V44.284C305.468 44.8907 305.631 45.3713 305.958 45.726C306.284 46.0807 306.728 46.258 307.288 46.258C307.67 46.258 308.011 46.1693 308.31 45.992C308.618 45.8147 308.874 45.558 309.08 45.222V40.168H310.102V47H309.08V45.894C308.818 46.2953 308.506 46.5987 308.142 46.804C307.787 47.0093 307.376 47.112 306.91 47.112ZM314.312 47.14C313.752 47.14 313.234 47.056 312.758 46.888C312.282 46.7107 311.876 46.4587 311.54 46.132L312.086 45.46C312.497 45.7587 312.875 45.978 313.22 46.118C313.566 46.2487 313.92 46.314 314.284 46.314C314.779 46.314 315.19 46.1973 315.516 45.964C315.843 45.7307 316.006 45.432 316.006 45.068C316.006 44.788 315.908 44.5687 315.712 44.41C315.526 44.2513 315.213 44.13 314.774 44.046L313.654 43.85C312.992 43.7287 312.502 43.5233 312.184 43.234C311.876 42.9447 311.722 42.5527 311.722 42.058C311.722 41.666 311.825 41.3207 312.03 41.022C312.245 40.7233 312.539 40.49 312.912 40.322C313.286 40.1447 313.71 40.056 314.186 40.056C314.653 40.056 315.096 40.126 315.516 40.266C315.936 40.3967 316.361 40.6113 316.79 40.91L316.286 41.624C315.932 41.372 315.577 41.19 315.222 41.078C314.868 40.9567 314.508 40.896 314.144 40.896C313.696 40.896 313.337 40.994 313.066 41.19C312.796 41.386 312.66 41.652 312.66 41.988C312.66 42.268 312.744 42.4827 312.912 42.632C313.09 42.7813 313.398 42.8933 313.836 42.968L314.984 43.178C315.675 43.2993 316.179 43.5093 316.496 43.808C316.814 44.1067 316.972 44.508 316.972 45.012C316.972 45.4133 316.856 45.7773 316.622 46.104C316.389 46.4213 316.072 46.6733 315.67 46.86C315.269 47.0467 314.816 47.14 314.312 47.14ZM321.677 47.14C321.042 47.14 320.468 46.986 319.955 46.678C319.442 46.3607 319.036 45.936 318.737 45.404C318.438 44.8627 318.289 44.256 318.289 43.584C318.289 42.912 318.429 42.31 318.709 41.778C318.998 41.246 319.386 40.826 319.871 40.518C320.356 40.21 320.898 40.056 321.495 40.056C322.102 40.056 322.638 40.21 323.105 40.518C323.581 40.8167 323.954 41.2273 324.225 41.75C324.505 42.2633 324.645 42.8467 324.645 43.5V43.808H319.283C319.32 44.2747 319.446 44.6947 319.661 45.068C319.885 45.432 320.174 45.7213 320.529 45.936C320.893 46.1413 321.29 46.244 321.719 46.244C322.074 46.244 322.414 46.1833 322.741 46.062C323.077 45.9313 323.362 45.7587 323.595 45.544L324.239 46.23C323.847 46.538 323.441 46.7667 323.021 46.916C322.601 47.0653 322.153 47.14 321.677 47.14ZM319.311 43.08H323.637C323.59 42.6693 323.464 42.3053 323.259 41.988C323.063 41.6613 322.811 41.4047 322.503 41.218C322.204 41.0313 321.868 40.938 321.495 40.938C321.122 40.938 320.781 41.0313 320.473 41.218C320.165 41.3953 319.908 41.6473 319.703 41.974C319.507 42.2913 319.376 42.66 319.311 43.08ZM326.39 47V40.168H327.412V41.568C327.589 41.092 327.841 40.7233 328.168 40.462C328.504 40.1913 328.887 40.056 329.316 40.056C329.437 40.056 329.549 40.0653 329.652 40.084C329.755 40.0933 329.857 40.1167 329.96 40.154V41.078C329.848 41.0407 329.727 41.0127 329.596 40.994C329.475 40.966 329.358 40.952 329.246 40.952C328.826 40.952 328.457 41.0733 328.14 41.316C327.832 41.5587 327.589 41.8993 327.412 42.338V47H326.39ZM337.421 47.098C336.833 47.098 336.301 46.944 335.825 46.636C335.349 46.3187 334.971 45.8987 334.691 45.376C334.411 44.844 334.271 44.2513 334.271 43.598C334.271 42.9353 334.411 42.3427 334.691 41.82C334.981 41.288 335.368 40.868 335.853 40.56C336.339 40.2427 336.88 40.084 337.477 40.084C337.897 40.084 338.289 40.168 338.653 40.336C339.017 40.4947 339.335 40.728 339.605 41.036V36.892L340.627 36.682V47H339.605V46.09C339.344 46.4167 339.027 46.6687 338.653 46.846C338.28 47.014 337.869 47.098 337.421 47.098ZM337.673 46.202C338.075 46.202 338.443 46.1227 338.779 45.964C339.115 45.8053 339.391 45.5813 339.605 45.292V41.904C339.381 41.6147 339.097 41.3907 338.751 41.232C338.415 41.064 338.056 40.98 337.673 40.98C337.216 40.98 336.805 41.092 336.441 41.316C336.087 41.54 335.802 41.848 335.587 42.24C335.382 42.632 335.279 43.08 335.279 43.584C335.279 44.0787 335.382 44.5267 335.587 44.928C335.802 45.32 336.087 45.6327 336.441 45.866C336.805 46.09 337.216 46.202 337.673 46.202ZM345.752 47.112C345.117 47.112 344.548 46.958 344.044 46.65C343.54 46.342 343.143 45.922 342.854 45.39C342.564 44.858 342.42 44.256 342.42 43.584C342.42 42.912 342.564 42.31 342.854 41.778C343.143 41.246 343.54 40.826 344.044 40.518C344.548 40.21 345.117 40.056 345.752 40.056C346.377 40.056 346.937 40.21 347.432 40.518C347.936 40.826 348.332 41.246 348.622 41.778C348.911 42.31 349.056 42.912 349.056 43.584C349.056 44.256 348.911 44.858 348.622 45.39C348.332 45.922 347.936 46.342 347.432 46.65C346.937 46.958 346.377 47.112 345.752 47.112ZM345.738 46.216C346.186 46.216 346.582 46.104 346.928 45.88C347.273 45.6467 347.544 45.3293 347.74 44.928C347.945 44.5267 348.048 44.0787 348.048 43.584C348.048 43.08 347.945 42.632 347.74 42.24C347.544 41.8387 347.273 41.526 346.928 41.302C346.582 41.0687 346.186 40.952 345.738 40.952C345.29 40.952 344.893 41.0687 344.548 41.302C344.202 41.526 343.927 41.8387 343.722 42.24C343.526 42.632 343.428 43.08 343.428 43.584C343.428 44.0787 343.526 44.5267 343.722 44.928C343.927 45.3293 344.202 45.6467 344.548 45.88C344.893 46.104 345.29 46.216 345.738 46.216ZM353.915 47.112C353.28 47.112 352.706 46.958 352.193 46.65C351.689 46.3327 351.287 45.908 350.989 45.376C350.69 44.8347 350.541 44.2373 350.541 43.584C350.541 42.9213 350.69 42.324 350.989 41.792C351.287 41.26 351.689 40.84 352.193 40.532C352.706 40.2147 353.28 40.056 353.915 40.056C354.419 40.056 354.899 40.1493 355.357 40.336C355.814 40.5227 356.211 40.784 356.547 41.12L355.889 41.834C355.646 41.5633 355.352 41.3533 355.007 41.204C354.661 41.0547 354.311 40.98 353.957 40.98C353.509 40.98 353.103 41.0967 352.739 41.33C352.384 41.5633 352.099 41.876 351.885 42.268C351.67 42.66 351.563 43.0987 351.563 43.584C351.563 44.0693 351.67 44.508 351.885 44.9C352.099 45.292 352.384 45.6047 352.739 45.838C353.103 46.0713 353.509 46.188 353.957 46.188C354.311 46.188 354.661 46.1133 355.007 45.964C355.352 45.8053 355.646 45.5953 355.889 45.334L356.547 46.048C356.211 46.384 355.814 46.6453 355.357 46.832C354.899 47.0187 354.419 47.112 353.915 47.112ZM360.408 47.112C359.923 47.112 359.493 47.0047 359.12 46.79C358.747 46.5753 358.453 46.2767 358.238 45.894C358.033 45.5113 357.93 45.0727 357.93 44.578V40.168H358.966V44.284C358.966 44.8907 359.129 45.3713 359.456 45.726C359.783 46.0807 360.226 46.258 360.786 46.258C361.169 46.258 361.509 46.1693 361.808 45.992C362.116 45.8147 362.373 45.558 362.578 45.222V40.168H363.6V47H362.578V45.894C362.317 46.2953 362.004 46.5987 361.64 46.804C361.285 47.0093 360.875 47.112 360.408 47.112ZM365.696 47V40.168H366.718V41.232C366.98 40.84 367.278 40.546 367.614 40.35C367.95 40.154 368.328 40.056 368.748 40.056C369.234 40.056 369.658 40.1773 370.022 40.42C370.386 40.6533 370.662 40.9753 370.848 41.386C371.119 40.9473 371.441 40.616 371.814 40.392C372.197 40.168 372.636 40.056 373.13 40.056C373.588 40.056 373.989 40.1633 374.334 40.378C374.689 40.5927 374.964 40.8913 375.16 41.274C375.356 41.6473 375.454 42.086 375.454 42.59V47H374.432V42.842C374.432 42.2447 374.283 41.7733 373.984 41.428C373.686 41.0827 373.275 40.91 372.752 40.91C372.398 40.91 372.076 40.9987 371.786 41.176C371.506 41.3533 371.259 41.624 371.044 41.988C371.063 42.0813 371.077 42.1793 371.086 42.282C371.096 42.3847 371.1 42.4873 371.1 42.59V47H370.078V42.842C370.078 42.2447 369.924 41.7733 369.616 41.428C369.318 41.0827 368.907 40.91 368.384 40.91C367.684 40.91 367.129 41.246 366.718 41.918V47H365.696ZM380.603 47.14C379.968 47.14 379.394 46.986 378.881 46.678C378.367 46.3607 377.961 45.936 377.663 45.404C377.364 44.8627 377.215 44.256 377.215 43.584C377.215 42.912 377.355 42.31 377.635 41.778C377.924 41.246 378.311 40.826 378.797 40.518C379.282 40.21 379.823 40.056 380.421 40.056C381.027 40.056 381.564 40.21 382.031 40.518C382.507 40.8167 382.88 41.2273 383.151 41.75C383.431 42.2633 383.571 42.8467 383.571 43.5V43.808H378.209C378.246 44.2747 378.372 44.6947 378.587 45.068C378.811 45.432 379.1 45.7213 379.455 45.936C379.819 46.1413 380.215 46.244 380.645 46.244C380.999 46.244 381.34 46.1833 381.667 46.062C382.003 45.9313 382.287 45.7587 382.521 45.544L383.165 46.23C382.773 46.538 382.367 46.7667 381.947 46.916C381.527 47.0653 381.079 47.14 380.603 47.14ZM378.237 43.08H382.563C382.516 42.6693 382.39 42.3053 382.185 41.988C381.989 41.6613 381.737 41.4047 381.429 41.218C381.13 41.0313 380.794 40.938 380.421 40.938C380.047 40.938 379.707 41.0313 379.399 41.218C379.091 41.3953 378.834 41.6473 378.629 41.974C378.433 42.2913 378.302 42.66 378.237 43.08ZM385.316 47V40.168H386.338V41.274C386.599 40.8633 386.912 40.56 387.276 40.364C387.64 40.1587 388.05 40.056 388.508 40.056C389.002 40.056 389.432 40.1633 389.796 40.378C390.169 40.5833 390.458 40.8773 390.664 41.26C390.878 41.6333 390.986 42.072 390.986 42.576V47H389.964V42.87C389.964 42.2633 389.796 41.7873 389.46 41.442C389.133 41.0873 388.69 40.91 388.13 40.91C387.756 40.91 387.416 40.9987 387.108 41.176C386.8 41.3533 386.543 41.6147 386.338 41.96V47H385.316ZM395.439 47.14C394.851 47.14 394.403 47 394.095 46.72C393.796 46.4307 393.647 46.0153 393.647 45.474V41.008H392.233V40.168H393.647V38.292L394.669 38.054V40.168H396.629V41.008H394.669V45.208C394.669 45.572 394.744 45.8333 394.893 45.992C395.052 46.1507 395.308 46.23 395.663 46.23C395.84 46.23 395.999 46.216 396.139 46.188C396.279 46.16 396.442 46.1133 396.629 46.048V46.958C396.442 47.0233 396.246 47.07 396.041 47.098C395.836 47.126 395.635 47.14 395.439 47.14ZM400.24 47.126C399.755 47.126 399.326 47.0373 398.952 46.86C398.579 46.6827 398.285 46.44 398.07 46.132C397.865 45.8147 397.762 45.4507 397.762 45.04C397.762 44.6293 397.87 44.2747 398.084 43.976C398.299 43.668 398.598 43.43 398.98 43.262C399.363 43.094 399.811 43.01 400.324 43.01C400.716 43.01 401.085 43.052 401.43 43.136C401.785 43.22 402.112 43.3553 402.41 43.542V42.604C402.41 42.044 402.261 41.624 401.962 41.344C401.664 41.0547 401.225 40.91 400.646 40.91C400.329 40.91 400.002 40.9567 399.666 41.05C399.34 41.1433 398.976 41.2927 398.574 41.498L398.196 40.714C399.111 40.2753 399.97 40.056 400.772 40.056C401.622 40.056 402.275 40.266 402.732 40.686C403.19 41.0967 403.418 41.6893 403.418 42.464V47H402.41V46.202C402.112 46.51 401.78 46.7433 401.416 46.902C401.052 47.0513 400.66 47.126 400.24 47.126ZM398.742 45.012C398.742 45.4133 398.896 45.7353 399.204 45.978C399.522 46.2207 399.937 46.342 400.45 46.342C400.833 46.342 401.183 46.2767 401.5 46.146C401.827 46.0153 402.13 45.8193 402.41 45.558V44.242C402.121 44.074 401.822 43.9527 401.514 43.878C401.206 43.794 400.861 43.752 400.478 43.752C399.956 43.752 399.536 43.8687 399.218 44.102C398.901 44.326 398.742 44.6293 398.742 45.012ZM407.894 47.14C407.306 47.14 406.858 47 406.55 46.72C406.252 46.4307 406.102 46.0153 406.102 45.474V41.008H404.688V40.168H406.102V38.292L407.124 38.054V40.168H409.084V41.008H407.124V45.208C407.124 45.572 407.199 45.8333 407.348 45.992C407.507 46.1507 407.764 46.23 408.118 46.23C408.296 46.23 408.454 46.216 408.594 46.188C408.734 46.16 408.898 46.1133 409.084 46.048V46.958C408.898 47.0233 408.702 47.07 408.496 47.098C408.291 47.126 408.09 47.14 407.894 47.14ZM410.567 47V40.168H411.589V47H410.567ZM411.085 38.474C410.88 38.474 410.703 38.404 410.553 38.264C410.413 38.1147 410.343 37.942 410.343 37.746C410.343 37.55 410.413 37.382 410.553 37.242C410.703 37.0927 410.88 37.018 411.085 37.018C411.291 37.018 411.463 37.0927 411.603 37.242C411.753 37.382 411.827 37.55 411.827 37.746C411.827 37.942 411.753 38.1147 411.603 38.264C411.463 38.404 411.291 38.474 411.085 38.474ZM416.709 47.112C416.074 47.112 415.505 46.958 415.001 46.65C414.497 46.342 414.1 45.922 413.811 45.39C413.521 44.858 413.377 44.256 413.377 43.584C413.377 42.912 413.521 42.31 413.811 41.778C414.1 41.246 414.497 40.826 415.001 40.518C415.505 40.21 416.074 40.056 416.709 40.056C417.334 40.056 417.894 40.21 418.389 40.518C418.893 40.826 419.289 41.246 419.579 41.778C419.868 42.31 420.013 42.912 420.013 43.584C420.013 44.256 419.868 44.858 419.579 45.39C419.289 45.922 418.893 46.342 418.389 46.65C417.894 46.958 417.334 47.112 416.709 47.112ZM416.695 46.216C417.143 46.216 417.539 46.104 417.885 45.88C418.23 45.6467 418.501 45.3293 418.697 44.928C418.902 44.5267 419.005 44.0787 419.005 43.584C419.005 43.08 418.902 42.632 418.697 42.24C418.501 41.8387 418.23 41.526 417.885 41.302C417.539 41.0687 417.143 40.952 416.695 40.952C416.247 40.952 415.85 41.0687 415.505 41.302C415.159 41.526 414.884 41.8387 414.679 42.24C414.483 42.632 414.385 43.08 414.385 43.584C414.385 44.0787 414.483 44.5267 414.679 44.928C414.884 45.3293 415.159 45.6467 415.505 45.88C415.85 46.104 416.247 46.216 416.695 46.216ZM421.806 47V40.168H422.828V41.274C423.089 40.8633 423.402 40.56 423.766 40.364C424.13 40.1587 424.541 40.056 424.998 40.056C425.493 40.056 425.922 40.1633 426.286 40.378C426.659 40.5833 426.949 40.8773 427.154 41.26C427.369 41.6333 427.476 42.072 427.476 42.576V47H426.454V42.87C426.454 42.2633 426.286 41.7873 425.95 41.442C425.623 41.0873 425.18 40.91 424.62 40.91C424.247 40.91 423.906 40.9987 423.598 41.176C423.29 41.3533 423.033 41.6147 422.828 41.96V47H421.806Z" fill="#0066CC"/>
<path d="M275 50.5H428.484V51.9H275V50.5Z" fill="#0066CC"/>
<path d="M28.78 47V38.152H25.392V37.2H33.246V38.152H29.858V47H28.78ZM36.3201 47.112C35.6854 47.112 35.1161 46.958 34.6121 46.65C34.1081 46.342 33.7114 45.922 33.4221 45.39C33.1328 44.858 32.9881 44.256 32.9881 43.584C32.9881 42.912 33.1328 42.31 33.4221 41.778C33.7114 41.246 34.1081 40.826 34.6121 40.518C35.1161 40.21 35.6854 40.056 36.3201 40.056C36.9454 40.056 37.5054 40.21 38.0001 40.518C38.5041 40.826 38.9008 41.246 39.1901 41.778C39.4794 42.31 39.6241 42.912 39.6241 43.584C39.6241 44.256 39.4794 44.858 39.1901 45.39C38.9008 45.922 38.5041 46.342 38.0001 46.65C37.5054 46.958 36.9454 47.112 36.3201 47.112ZM36.3061 46.216C36.7541 46.216 37.1508 46.104 37.4961 45.88C37.8414 45.6467 38.1121 45.3293 38.3081 44.928C38.5134 44.5267 38.6161 44.0787 38.6161 43.584C38.6161 43.08 38.5134 42.632 38.3081 42.24C38.1121 41.8387 37.8414 41.526 37.4961 41.302C37.1508 41.0687 36.7541 40.952 36.3061 40.952C35.8581 40.952 35.4614 41.0687 35.1161 41.302C34.7708 41.526 34.4954 41.8387 34.2901 42.24C34.0941 42.632 33.9961 43.08 33.9961 43.584C33.9961 44.0787 34.0941 44.5267 34.2901 44.928C34.4954 45.3293 34.7708 45.6467 35.1161 45.88C35.4614 46.104 35.8581 46.216 36.3061 46.216ZM46.7988 47.14C46.2388 47.14 45.7208 47.056 45.2448 46.888C44.7688 46.7107 44.3628 46.4587 44.0268 46.132L44.5728 45.46C44.9834 45.7587 45.3614 45.978 45.7068 46.118C46.0521 46.2487 46.4068 46.314 46.7708 46.314C47.2654 46.314 47.6761 46.1973 48.0028 45.964C48.3294 45.7307 48.4928 45.432 48.4928 45.068C48.4928 44.788 48.3948 44.5687 48.1988 44.41C48.0121 44.2513 47.6994 44.13 47.2608 44.046L46.1408 43.85C45.4781 43.7287 44.9881 43.5233 44.6708 43.234C44.3628 42.9447 44.2088 42.5527 44.2088 42.058C44.2088 41.666 44.3114 41.3207 44.5168 41.022C44.7314 40.7233 45.0254 40.49 45.3988 40.322C45.7721 40.1447 46.1968 40.056 46.6728 40.056C47.1394 40.056 47.5828 40.126 48.0028 40.266C48.4228 40.3967 48.8474 40.6113 49.2768 40.91L48.7728 41.624C48.4181 41.372 48.0634 41.19 47.7088 41.078C47.3541 40.9567 46.9948 40.896 46.6308 40.896C46.1828 40.896 45.8234 40.994 45.5528 41.19C45.2821 41.386 45.1468 41.652 45.1468 41.988C45.1468 42.268 45.2308 42.4827 45.3988 42.632C45.5761 42.7813 45.8841 42.8933 46.3228 42.968L47.4708 43.178C48.1614 43.2993 48.6654 43.5093 48.9828 43.808C49.3001 44.1067 49.4588 44.508 49.4588 45.012C49.4588 45.4133 49.3421 45.7773 49.1088 46.104C48.8754 46.4213 48.5581 46.6733 48.1568 46.86C47.7554 47.0467 47.3028 47.14 46.7988 47.14ZM54.1632 47.14C53.5285 47.14 52.9545 46.986 52.4412 46.678C51.9279 46.3607 51.5219 45.936 51.2232 45.404C50.9245 44.8627 50.7752 44.256 50.7752 43.584C50.7752 42.912 50.9152 42.31 51.1952 41.778C51.4845 41.246 51.8719 40.826 52.3572 40.518C52.8425 40.21 53.3839 40.056 53.9812 40.056C54.5879 40.056 55.1245 40.21 55.5912 40.518C56.0672 40.8167 56.4405 41.2273 56.7112 41.75C56.9912 42.2633 57.1312 42.8467 57.1312 43.5V43.808H51.7692C51.8065 44.2747 51.9325 44.6947 52.1472 45.068C52.3712 45.432 52.6605 45.7213 53.0152 45.936C53.3792 46.1413 53.7759 46.244 54.2052 46.244C54.5599 46.244 54.9005 46.1833 55.2272 46.062C55.5632 45.9313 55.8479 45.7587 56.0812 45.544L56.7252 46.23C56.3332 46.538 55.9272 46.7667 55.5072 46.916C55.0872 47.0653 54.6392 47.14 54.1632 47.14ZM51.7972 43.08H56.1232C56.0765 42.6693 55.9505 42.3053 55.7452 41.988C55.5492 41.6613 55.2972 41.4047 54.9892 41.218C54.6905 41.0313 54.3545 40.938 53.9812 40.938C53.6079 40.938 53.2672 41.0313 52.9592 41.218C52.6512 41.3953 52.3945 41.6473 52.1892 41.974C51.9932 42.2913 51.8625 42.66 51.7972 43.08ZM61.2751 47.14C60.6871 47.14 60.2391 47 59.9311 46.72C59.6324 46.4307 59.4831 46.0153 59.4831 45.474V41.008H58.0691V40.168H59.4831V38.292L60.5051 38.054V40.168H62.4651V41.008H60.5051V45.208C60.5051 45.572 60.5798 45.8333 60.7291 45.992C60.8878 46.1507 61.1444 46.23 61.4991 46.23C61.6764 46.23 61.8351 46.216 61.9751 46.188C62.1151 46.16 62.2784 46.1133 62.4651 46.048V46.958C62.2784 47.0233 62.0824 47.07 61.8771 47.098C61.6718 47.126 61.4711 47.14 61.2751 47.14ZM69.6657 47.112C69.1804 47.112 68.751 47.0047 68.3777 46.79C68.0044 46.5753 67.7104 46.2767 67.4957 45.894C67.2904 45.5113 67.1877 45.0727 67.1877 44.578V40.168H68.2237V44.284C68.2237 44.8907 68.387 45.3713 68.7137 45.726C69.0404 46.0807 69.4837 46.258 70.0437 46.258C70.4264 46.258 70.767 46.1693 71.0657 45.992C71.3737 45.8147 71.6304 45.558 71.8357 45.222V40.168H72.8577V47H71.8357V45.894C71.5744 46.2953 71.2617 46.5987 70.8977 46.804C70.543 47.0093 70.1324 47.112 69.6657 47.112ZM74.9543 49.926V40.168H75.9623V41.148C76.2236 40.8027 76.541 40.5413 76.9143 40.364C77.297 40.1773 77.717 40.084 78.1743 40.084C78.7716 40.084 79.3036 40.2427 79.7703 40.56C80.2463 40.868 80.6243 41.288 80.9043 41.82C81.1843 42.3427 81.3243 42.9307 81.3243 43.584C81.3243 44.2373 81.1796 44.83 80.8903 45.362C80.6103 45.894 80.2276 46.3187 79.7423 46.636C79.2663 46.944 78.725 47.098 78.1183 47.098C77.689 47.098 77.2923 47.0187 76.9283 46.86C76.5643 46.692 76.247 46.454 75.9763 46.146V49.926H74.9543ZM77.9223 46.216C78.3796 46.216 78.7856 46.104 79.1403 45.88C79.5043 45.6467 79.789 45.334 79.9943 44.942C80.209 44.5407 80.3163 44.0927 80.3163 43.598C80.3163 43.094 80.209 42.646 79.9943 42.254C79.789 41.862 79.5043 41.554 79.1403 41.33C78.7856 41.0967 78.3796 40.98 77.9223 40.98C77.521 40.98 77.1476 41.064 76.8023 41.232C76.4663 41.3907 76.191 41.6193 75.9763 41.918V45.264C76.2003 45.5627 76.4803 45.796 76.8163 45.964C77.1616 46.132 77.5303 46.216 77.9223 46.216ZM86.678 50.066C86.4633 50.066 86.244 50.0333 86.02 49.968V49.058C86.1133 49.0767 86.2113 49.0907 86.314 49.1C86.4167 49.1093 86.5053 49.114 86.58 49.114C86.8413 49.114 87.056 49.044 87.224 48.904C87.4013 48.764 87.5507 48.5447 87.672 48.246L88.176 47L85.544 40.168H86.678L88.75 45.782L90.948 40.168H92.082L88.638 48.554C88.4887 48.918 88.3253 49.212 88.148 49.436C87.9707 49.66 87.7653 49.8187 87.532 49.912C87.2987 50.0147 87.014 50.066 86.678 50.066ZM96.1756 47.112C95.5409 47.112 94.9716 46.958 94.4676 46.65C93.9636 46.342 93.5669 45.922 93.2776 45.39C92.9882 44.858 92.8436 44.256 92.8436 43.584C92.8436 42.912 92.9882 42.31 93.2776 41.778C93.5669 41.246 93.9636 40.826 94.4676 40.518C94.9716 40.21 95.5409 40.056 96.1756 40.056C96.8009 40.056 97.3609 40.21 97.8556 40.518C98.3596 40.826 98.7562 41.246 99.0456 41.778C99.3349 42.31 99.4796 42.912 99.4796 43.584C99.4796 44.256 99.3349 44.858 99.0456 45.39C98.7562 45.922 98.3596 46.342 97.8556 46.65C97.3609 46.958 96.8009 47.112 96.1756 47.112ZM96.1616 46.216C96.6096 46.216 97.0062 46.104 97.3516 45.88C97.6969 45.6467 97.9676 45.3293 98.1636 44.928C98.3689 44.5267 98.4716 44.0787 98.4716 43.584C98.4716 43.08 98.3689 42.632 98.1636 42.24C97.9676 41.8387 97.6969 41.526 97.3516 41.302C97.0062 41.0687 96.6096 40.952 96.1616 40.952C95.7136 40.952 95.3169 41.0687 94.9716 41.302C94.6262 41.526 94.3509 41.8387 94.1456 42.24C93.9496 42.632 93.8516 43.08 93.8516 43.584C93.8516 44.0787 93.9496 44.5267 94.1456 44.928C94.3509 45.3293 94.6262 45.6467 94.9716 45.88C95.3169 46.104 95.7136 46.216 96.1616 46.216ZM103.709 47.112C103.223 47.112 102.794 47.0047 102.421 46.79C102.047 46.5753 101.753 46.2767 101.539 45.894C101.333 45.5113 101.231 45.0727 101.231 44.578V40.168H102.267V44.284C102.267 44.8907 102.43 45.3713 102.757 45.726C103.083 46.0807 103.527 46.258 104.087 46.258C104.469 46.258 104.81 46.1693 105.109 45.992C105.417 45.8147 105.673 45.558 105.879 45.222V40.168H106.901V47H105.879V45.894C105.617 46.2953 105.305 46.5987 104.941 46.804C104.586 47.0093 104.175 47.112 103.709 47.112ZM108.997 47V40.168H110.019V41.568C110.197 41.092 110.449 40.7233 110.775 40.462C111.111 40.1913 111.494 40.056 111.923 40.056C112.045 40.056 112.157 40.0653 112.259 40.084C112.362 40.0933 112.465 40.1167 112.567 40.154V41.078C112.455 41.0407 112.334 41.0127 112.203 40.994C112.082 40.966 111.965 40.952 111.853 40.952C111.433 40.952 111.065 41.0733 110.747 41.316C110.439 41.5587 110.197 41.8993 110.019 42.338V47H108.997ZM117.187 47V40.168H118.209V41.274C118.47 40.8633 118.783 40.56 119.147 40.364C119.511 40.1587 119.921 40.056 120.379 40.056C120.873 40.056 121.303 40.1633 121.667 40.378C122.04 40.5833 122.329 40.8773 122.535 41.26C122.749 41.6333 122.857 42.072 122.857 42.576V47H121.835V42.87C121.835 42.2633 121.667 41.7873 121.331 41.442C121.004 41.0873 120.561 40.91 120.001 40.91C119.627 40.91 119.287 40.9987 118.979 41.176C118.671 41.3533 118.414 41.6147 118.209 41.96V47H117.187ZM127.991 47.14C127.357 47.14 126.783 46.986 126.269 46.678C125.756 46.3607 125.35 45.936 125.051 45.404C124.753 44.8627 124.603 44.256 124.603 43.584C124.603 42.912 124.743 42.31 125.023 41.778C125.313 41.246 125.7 40.826 126.185 40.518C126.671 40.21 127.212 40.056 127.809 40.056C128.416 40.056 128.953 40.21 129.419 40.518C129.895 40.8167 130.269 41.2273 130.539 41.75C130.819 42.2633 130.959 42.8467 130.959 43.5V43.808H125.597C125.635 44.2747 125.761 44.6947 125.975 45.068C126.199 45.432 126.489 45.7213 126.843 45.936C127.207 46.1413 127.604 46.244 128.033 46.244C128.388 46.244 128.729 46.1833 129.055 46.062C129.391 45.9313 129.676 45.7587 129.909 45.544L130.553 46.23C130.161 46.538 129.755 46.7667 129.335 46.916C128.915 47.0653 128.467 47.14 127.991 47.14ZM125.625 43.08H129.951C129.905 42.6693 129.779 42.3053 129.573 41.988C129.377 41.6613 129.125 41.4047 128.817 41.218C128.519 41.0313 128.183 40.938 127.809 40.938C127.436 40.938 127.095 41.0313 126.787 41.218C126.479 41.3953 126.223 41.6473 126.017 41.974C125.821 42.2913 125.691 42.66 125.625 43.08ZM133.786 47L131.91 40.168H132.904L134.332 45.628L135.97 40.168H136.88L138.518 45.628L139.932 40.168H140.898L139.036 47H138.042L136.418 41.484L134.794 47H133.786ZM147.725 47.126C147.239 47.126 146.81 47.0373 146.437 46.86C146.063 46.6827 145.769 46.44 145.555 46.132C145.349 45.8147 145.247 45.4507 145.247 45.04C145.247 44.6293 145.354 44.2747 145.569 43.976C145.783 43.668 146.082 43.43 146.465 43.262C146.847 43.094 147.295 43.01 147.809 43.01C148.201 43.01 148.569 43.052 148.915 43.136C149.269 43.22 149.596 43.3553 149.895 43.542V42.604C149.895 42.044 149.745 41.624 149.447 41.344C149.148 41.0547 148.709 40.91 148.131 40.91C147.813 40.91 147.487 40.9567 147.151 41.05C146.824 41.1433 146.46 41.2927 146.059 41.498L145.681 40.714C146.595 40.2753 147.454 40.056 148.257 40.056C149.106 40.056 149.759 40.266 150.217 40.686C150.674 41.0967 150.903 41.6893 150.903 42.464V47H149.895V46.202C149.596 46.51 149.265 46.7433 148.901 46.902C148.537 47.0513 148.145 47.126 147.725 47.126ZM146.227 45.012C146.227 45.4133 146.381 45.7353 146.689 45.978C147.006 46.2207 147.421 46.342 147.935 46.342C148.317 46.342 148.667 46.2767 148.985 46.146C149.311 46.0153 149.615 45.8193 149.895 45.558V44.242C149.605 44.074 149.307 43.9527 148.999 43.878C148.691 43.794 148.345 43.752 147.963 43.752C147.44 43.752 147.02 43.8687 146.703 44.102C146.385 44.326 146.227 44.6293 146.227 45.012ZM156.046 47.112C155.411 47.112 154.837 46.958 154.324 46.65C153.82 46.3327 153.418 45.908 153.12 45.376C152.821 44.8347 152.672 44.2373 152.672 43.584C152.672 42.9213 152.821 42.324 153.12 41.792C153.418 41.26 153.82 40.84 154.324 40.532C154.837 40.2147 155.411 40.056 156.046 40.056C156.55 40.056 157.03 40.1493 157.488 40.336C157.945 40.5227 158.342 40.784 158.678 41.12L158.02 41.834C157.777 41.5633 157.483 41.3533 157.138 41.204C156.792 41.0547 156.442 40.98 156.088 40.98C155.64 40.98 155.234 41.0967 154.87 41.33C154.515 41.5633 154.23 41.876 154.016 42.268C153.801 42.66 153.694 43.0987 153.694 43.584C153.694 44.0693 153.801 44.508 154.016 44.9C154.23 45.292 154.515 45.6047 154.87 45.838C155.234 46.0713 155.64 46.188 156.088 46.188C156.442 46.188 156.792 46.1133 157.138 45.964C157.483 45.8053 157.777 45.5953 158.02 45.334L158.678 46.048C158.342 46.384 157.945 46.6453 157.488 46.832C157.03 47.0187 156.55 47.112 156.046 47.112ZM162.964 47.112C162.329 47.112 161.755 46.958 161.242 46.65C160.738 46.3327 160.336 45.908 160.038 45.376C159.739 44.8347 159.59 44.2373 159.59 43.584C159.59 42.9213 159.739 42.324 160.038 41.792C160.336 41.26 160.738 40.84 161.242 40.532C161.755 40.2147 162.329 40.056 162.964 40.056C163.468 40.056 163.948 40.1493 164.406 40.336C164.863 40.5227 165.26 40.784 165.596 41.12L164.938 41.834C164.695 41.5633 164.401 41.3533 164.056 41.204C163.71 41.0547 163.36 40.98 163.006 40.98C162.558 40.98 162.152 41.0967 161.788 41.33C161.433 41.5633 161.148 41.876 160.934 42.268C160.719 42.66 160.612 43.0987 160.612 43.584C160.612 44.0693 160.719 44.508 160.934 44.9C161.148 45.292 161.433 45.6047 161.788 45.838C162.152 46.0713 162.558 46.188 163.006 46.188C163.36 46.188 163.71 46.1133 164.056 45.964C164.401 45.8053 164.695 45.5953 164.938 45.334L165.596 46.048C165.26 46.384 164.863 46.6453 164.406 46.832C163.948 47.0187 163.468 47.112 162.964 47.112ZM169.84 47.112C169.205 47.112 168.636 46.958 168.132 46.65C167.628 46.342 167.231 45.922 166.942 45.39C166.652 44.858 166.508 44.256 166.508 43.584C166.508 42.912 166.652 42.31 166.942 41.778C167.231 41.246 167.628 40.826 168.132 40.518C168.636 40.21 169.205 40.056 169.84 40.056C170.465 40.056 171.025 40.21 171.52 40.518C172.024 40.826 172.42 41.246 172.71 41.778C172.999 42.31 173.144 42.912 173.144 43.584C173.144 44.256 172.999 44.858 172.71 45.39C172.42 45.922 172.024 46.342 171.52 46.65C171.025 46.958 170.465 47.112 169.84 47.112ZM169.826 46.216C170.274 46.216 170.67 46.104 171.016 45.88C171.361 45.6467 171.632 45.3293 171.828 44.928C172.033 44.5267 172.136 44.0787 172.136 43.584C172.136 43.08 172.033 42.632 171.828 42.24C171.632 41.8387 171.361 41.526 171.016 41.302C170.67 41.0687 170.274 40.952 169.826 40.952C169.378 40.952 168.981 41.0687 168.636 41.302C168.29 41.526 168.015 41.8387 167.81 42.24C167.614 42.632 167.516 43.08 167.516 43.584C167.516 44.0787 167.614 44.5267 167.81 44.928C168.015 45.3293 168.29 45.6467 168.636 45.88C168.981 46.104 169.378 46.216 169.826 46.216ZM177.373 47.112C176.887 47.112 176.458 47.0047 176.085 46.79C175.711 46.5753 175.417 46.2767 175.203 45.894C174.997 45.5113 174.895 45.0727 174.895 44.578V40.168H175.931V44.284C175.931 44.8907 176.094 45.3713 176.421 45.726C176.747 46.0807 177.191 46.258 177.751 46.258C178.133 46.258 178.474 46.1693 178.773 45.992C179.081 45.8147 179.337 45.558 179.543 45.222V40.168H180.565V47H179.543V45.894C179.281 46.2953 178.969 46.5987 178.605 46.804C178.25 47.0093 177.839 47.112 177.373 47.112ZM182.661 47V40.168H183.683V41.274C183.945 40.8633 184.257 40.56 184.621 40.364C184.985 40.1587 185.396 40.056 185.853 40.056C186.348 40.056 186.777 40.1633 187.141 40.378C187.515 40.5833 187.804 40.8773 188.009 41.26C188.224 41.6333 188.331 42.072 188.331 42.576V47H187.309V42.87C187.309 42.2633 187.141 41.7873 186.805 41.442C186.479 41.0873 186.035 40.91 185.475 40.91C185.102 40.91 184.761 40.9987 184.453 41.176C184.145 41.3533 183.889 41.6147 183.683 41.96V47H182.661ZM192.785 47.14C192.197 47.14 191.749 47 191.441 46.72C191.142 46.4307 190.993 46.0153 190.993 45.474V41.008H189.579V40.168H190.993V38.292L192.015 38.054V40.168H193.975V41.008H192.015V45.208C192.015 45.572 192.09 45.8333 192.239 45.992C192.398 46.1507 192.654 46.23 193.009 46.23C193.186 46.23 193.345 46.216 193.485 46.188C193.625 46.16 193.788 46.1133 193.975 46.048V46.958C193.788 47.0233 193.592 47.07 193.387 47.098C193.182 47.126 192.981 47.14 192.785 47.14ZM195.122 49.198L195.962 45.964H197.054L195.92 49.198H195.122ZM202.239 47V40.168H203.261V41.568C203.439 41.092 203.691 40.7233 204.017 40.462C204.353 40.1913 204.736 40.056 205.165 40.056C205.287 40.056 205.399 40.0653 205.501 40.084C205.604 40.0933 205.707 40.1167 205.809 40.154V41.078C205.697 41.0407 205.576 41.0127 205.445 40.994C205.324 40.966 205.207 40.952 205.095 40.952C204.675 40.952 204.307 41.0733 203.989 41.316C203.681 41.5587 203.439 41.8993 203.261 42.338V47H202.239ZM209.818 47.14C209.183 47.14 208.609 46.986 208.096 46.678C207.582 46.3607 207.176 45.936 206.878 45.404C206.579 44.8627 206.43 44.256 206.43 43.584C206.43 42.912 206.57 42.31 206.85 41.778C207.139 41.246 207.526 40.826 208.012 40.518C208.497 40.21 209.038 40.056 209.636 40.056C210.242 40.056 210.779 40.21 211.246 40.518C211.722 40.8167 212.095 41.2273 212.366 41.75C212.646 42.2633 212.786 42.8467 212.786 43.5V43.808H207.424C207.461 44.2747 207.587 44.6947 207.802 45.068C208.026 45.432 208.315 45.7213 208.67 45.936C209.034 46.1413 209.43 46.244 209.86 46.244C210.214 46.244 210.555 46.1833 210.882 46.062C211.218 45.9313 211.502 45.7587 211.736 45.544L212.38 46.23C211.988 46.538 211.582 46.7667 211.162 46.916C210.742 47.0653 210.294 47.14 209.818 47.14ZM207.452 43.08H211.778C211.731 42.6693 211.605 42.3053 211.4 41.988C211.204 41.6613 210.952 41.4047 210.644 41.218C210.345 41.0313 210.009 40.938 209.636 40.938C209.262 40.938 208.922 41.0313 208.614 41.218C208.306 41.3953 208.049 41.6473 207.844 41.974C207.648 42.2913 207.517 42.66 207.452 43.08ZM215.193 47V41.008H213.667V40.168H215.193V38.74C215.193 38.068 215.371 37.55 215.725 37.186C216.08 36.822 216.584 36.64 217.237 36.64C217.424 36.64 217.592 36.6493 217.741 36.668C217.9 36.6867 218.04 36.7193 218.161 36.766V37.69C218.012 37.6433 217.877 37.6107 217.755 37.592C217.634 37.5733 217.494 37.564 217.335 37.564C216.943 37.564 216.659 37.662 216.481 37.858C216.304 38.0447 216.215 38.3433 216.215 38.754V40.168H218.161V41.008H216.215V47H215.193ZM222.3 47.14C221.665 47.14 221.091 46.986 220.578 46.678C220.065 46.3607 219.659 45.936 219.36 45.404C219.061 44.8627 218.912 44.256 218.912 43.584C218.912 42.912 219.052 42.31 219.332 41.778C219.621 41.246 220.009 40.826 220.494 40.518C220.979 40.21 221.521 40.056 222.118 40.056C222.725 40.056 223.261 40.21 223.728 40.518C224.204 40.8167 224.577 41.2273 224.848 41.75C225.128 42.2633 225.268 42.8467 225.268 43.5V43.808H219.906C219.943 44.2747 220.069 44.6947 220.284 45.068C220.508 45.432 220.797 45.7213 221.152 45.936C221.516 46.1413 221.913 46.244 222.342 46.244C222.697 46.244 223.037 46.1833 223.364 46.062C223.7 45.9313 223.985 45.7587 224.218 45.544L224.862 46.23C224.47 46.538 224.064 46.7667 223.644 46.916C223.224 47.0653 222.776 47.14 222.3 47.14ZM219.934 43.08H224.26C224.213 42.6693 224.087 42.3053 223.882 41.988C223.686 41.6613 223.434 41.4047 223.126 41.218C222.827 41.0313 222.491 40.938 222.118 40.938C221.745 40.938 221.404 41.0313 221.096 41.218C220.788 41.3953 220.531 41.6473 220.326 41.974C220.13 42.2913 219.999 42.66 219.934 43.08ZM227.013 47V40.168H228.035V41.568C228.212 41.092 228.464 40.7233 228.791 40.462C229.127 40.1913 229.51 40.056 229.939 40.056C230.06 40.056 230.172 40.0653 230.275 40.084C230.378 40.0933 230.48 40.1167 230.583 40.154V41.078C230.471 41.0407 230.35 41.0127 230.219 40.994C230.098 40.966 229.981 40.952 229.869 40.952C229.449 40.952 229.08 41.0733 228.763 41.316C228.455 41.5587 228.212 41.8993 228.035 42.338V47H227.013ZM237.806 47.14C237.218 47.14 236.77 47 236.462 46.72C236.164 46.4307 236.014 46.0153 236.014 45.474V41.008H234.6V40.168H236.014V38.292L237.036 38.054V40.168H238.996V41.008H237.036V45.208C237.036 45.572 237.111 45.8333 237.26 45.992C237.419 46.1507 237.676 46.23 238.03 46.23C238.208 46.23 238.366 46.216 238.506 46.188C238.646 46.16 238.81 46.1133 238.996 46.048V46.958C238.81 47.0233 238.614 47.07 238.408 47.098C238.203 47.126 238.002 47.14 237.806 47.14ZM243.381 47.112C242.746 47.112 242.177 46.958 241.673 46.65C241.169 46.342 240.772 45.922 240.483 45.39C240.193 44.858 240.049 44.256 240.049 43.584C240.049 42.912 240.193 42.31 240.483 41.778C240.772 41.246 241.169 40.826 241.673 40.518C242.177 40.21 242.746 40.056 243.381 40.056C244.006 40.056 244.566 40.21 245.061 40.518C245.565 40.826 245.961 41.246 246.251 41.778C246.54 42.31 246.685 42.912 246.685 43.584C246.685 44.256 246.54 44.858 246.251 45.39C245.961 45.922 245.565 46.342 245.061 46.65C244.566 46.958 244.006 47.112 243.381 47.112ZM243.367 46.216C243.815 46.216 244.211 46.104 244.557 45.88C244.902 45.6467 245.173 45.3293 245.369 44.928C245.574 44.5267 245.677 44.0787 245.677 43.584C245.677 43.08 245.574 42.632 245.369 42.24C245.173 41.8387 244.902 41.526 244.557 41.302C244.211 41.0687 243.815 40.952 243.367 40.952C242.919 40.952 242.522 41.0687 242.177 41.302C241.831 41.526 241.556 41.8387 241.351 42.24C241.155 42.632 241.057 43.08 241.057 43.584C241.057 44.0787 241.155 44.5267 241.351 44.928C241.556 45.3293 241.831 45.6467 242.177 45.88C242.522 46.104 242.919 46.216 243.367 46.216ZM254.349 47.14C253.761 47.14 253.313 47 253.005 46.72C252.707 46.4307 252.557 46.0153 252.557 45.474V41.008H251.143V40.168H252.557V38.292L253.579 38.054V40.168H255.539V41.008H253.579V45.208C253.579 45.572 253.654 45.8333 253.803 45.992C253.962 46.1507 254.219 46.23 254.573 46.23C254.751 46.23 254.909 46.216 255.049 46.188C255.189 46.16 255.353 46.1133 255.539 46.048V46.958C255.353 47.0233 255.157 47.07 254.951 47.098C254.746 47.126 254.545 47.14 254.349 47.14ZM257.036 47V36.892L258.058 36.682V41.274C258.32 40.8633 258.632 40.56 258.996 40.364C259.36 40.1587 259.771 40.056 260.228 40.056C260.723 40.056 261.152 40.1633 261.516 40.378C261.89 40.5833 262.179 40.8773 262.384 41.26C262.599 41.6333 262.706 42.072 262.706 42.576V47H261.684V42.87C261.684 42.2633 261.516 41.7873 261.18 41.442C260.854 41.0873 260.41 40.91 259.85 40.91C259.477 40.91 259.136 40.9987 258.828 41.176C258.52 41.3533 258.264 41.6147 258.058 41.96V47H257.036ZM267.841 47.14C267.206 47.14 266.632 46.986 266.119 46.678C265.606 46.3607 265.2 45.936 264.901 45.404C264.602 44.8627 264.453 44.256 264.453 43.584C264.453 42.912 264.593 42.31 264.873 41.778C265.162 41.246 265.55 40.826 266.035 40.518C266.52 40.21 267.062 40.056 267.659 40.056C268.266 40.056 268.802 40.21 269.269 40.518C269.745 40.8167 270.118 41.2273 270.389 41.75C270.669 42.2633 270.809 42.8467 270.809 43.5V43.808H265.447C265.484 44.2747 265.61 44.6947 265.825 45.068C266.049 45.432 266.338 45.7213 266.693 45.936C267.057 46.1413 267.454 46.244 267.883 46.244C268.238 46.244 268.578 46.1833 268.905 46.062C269.241 45.9313 269.526 45.7587 269.759 45.544L270.403 46.23C270.011 46.538 269.605 46.7667 269.185 46.916C268.765 47.0653 268.317 47.14 267.841 47.14ZM265.475 43.08H269.801C269.754 42.6693 269.628 42.3053 269.423 41.988C269.227 41.6613 268.975 41.4047 268.667 41.218C268.368 41.0313 268.032 40.938 267.659 40.938C267.286 40.938 266.945 41.0313 266.637 41.218C266.329 41.3953 266.072 41.6473 265.867 41.974C265.671 42.2913 265.54 42.66 265.475 43.08Z" fill="black"/>
<path d="M28.164 68.126C27.6787 68.126 27.2493 68.0373 26.876 67.86C26.5027 67.6827 26.2087 67.44 25.994 67.132C25.7887 66.8147 25.686 66.4507 25.686 66.04C25.686 65.6293 25.7933 65.2747 26.008 64.976C26.2227 64.668 26.5213 64.43 26.904 64.262C27.2867 64.094 27.7347 64.01 28.248 64.01C28.64 64.01 29.0087 64.052 29.354 64.136C29.7087 64.22 30.0353 64.3553 30.334 64.542V63.604C30.334 63.044 30.1847 62.624 29.886 62.344C29.5873 62.0547 29.1487 61.91 28.57 61.91C28.2527 61.91 27.926 61.9567 27.59 62.05C27.2633 62.1433 26.8993 62.2927 26.498 62.498L26.12 61.714C27.0347 61.2753 27.8933 61.056 28.696 61.056C29.5453 61.056 30.1987 61.266 30.656 61.686C31.1133 62.0967 31.342 62.6893 31.342 63.464V68H30.334V67.202C30.0353 67.51 29.704 67.7433 29.34 67.902C28.976 68.0513 28.584 68.126 28.164 68.126ZM26.666 66.012C26.666 66.4133 26.82 66.7353 27.128 66.978C27.4453 67.2207 27.8607 67.342 28.374 67.342C28.7567 67.342 29.1067 67.2767 29.424 67.146C29.7507 67.0153 30.054 66.8193 30.334 66.558V65.242C30.0447 65.074 29.746 64.9527 29.438 64.878C29.13 64.794 28.7847 64.752 28.402 64.752C27.8793 64.752 27.4593 64.8687 27.142 65.102C26.8247 65.326 26.666 65.6293 26.666 66.012ZM33.4191 68V61.168H34.4411V62.274C34.7025 61.8633 35.0151 61.56 35.3791 61.364C35.7431 61.1587 36.1538 61.056 36.6111 61.056C37.1058 61.056 37.5351 61.1633 37.8991 61.378C38.2725 61.5833 38.5618 61.8773 38.7671 62.26C38.9818 62.6333 39.0891 63.072 39.0891 63.576V68H38.0671V63.87C38.0671 63.2633 37.8991 62.7873 37.5631 62.442C37.2365 62.0873 36.7931 61.91 36.2331 61.91C35.8598 61.91 35.5191 61.9987 35.2111 62.176C34.9031 62.3533 34.6465 62.6147 34.4411 62.96V68H33.4191ZM43.9858 68.098C43.3978 68.098 42.8658 67.944 42.3898 67.636C41.9138 67.3187 41.5358 66.8987 41.2558 66.376C40.9758 65.844 40.8358 65.2513 40.8358 64.598C40.8358 63.9353 40.9758 63.3427 41.2558 62.82C41.5451 62.288 41.9324 61.868 42.4178 61.56C42.9031 61.2427 43.4444 61.084 44.0418 61.084C44.4618 61.084 44.8538 61.168 45.2178 61.336C45.5818 61.4947 45.8991 61.728 46.1698 62.036V57.892L47.1918 57.682V68H46.1698V67.09C45.9084 67.4167 45.5911 67.6687 45.2178 67.846C44.8444 68.014 44.4338 68.098 43.9858 68.098ZM44.2378 67.202C44.6391 67.202 45.0078 67.1227 45.3438 66.964C45.6798 66.8053 45.9551 66.5813 46.1698 66.292V62.904C45.9458 62.6147 45.6611 62.3907 45.3158 62.232C44.9798 62.064 44.6204 61.98 44.2378 61.98C43.7804 61.98 43.3698 62.092 43.0058 62.316C42.6511 62.54 42.3664 62.848 42.1517 63.24C41.9464 63.632 41.8438 64.08 41.8438 64.584C41.8438 65.0787 41.9464 65.5267 42.1517 65.928C42.3664 66.32 42.6511 66.6327 43.0058 66.866C43.3698 67.09 43.7804 67.202 44.2378 67.202ZM52.5598 68V61.168H53.5818V62.568C53.7591 62.092 54.0111 61.7233 54.3378 61.462C54.6738 61.1913 55.0564 61.056 55.4858 61.056C55.6071 61.056 55.7191 61.0653 55.8218 61.084C55.9244 61.0933 56.0271 61.1167 56.1298 61.154V62.078C56.0178 62.0407 55.8964 62.0127 55.7658 61.994C55.6444 61.966 55.5278 61.952 55.4158 61.952C54.9958 61.952 54.6271 62.0733 54.3098 62.316C54.0018 62.5587 53.7591 62.8993 53.5818 63.338V68H52.5598ZM60.1378 68.14C59.5031 68.14 58.9291 67.986 58.4158 67.678C57.9025 67.3607 57.4965 66.936 57.1978 66.404C56.8991 65.8627 56.7498 65.256 56.7498 64.584C56.7498 63.912 56.8898 63.31 57.1698 62.778C57.4591 62.246 57.8465 61.826 58.3318 61.518C58.8171 61.21 59.3585 61.056 59.9558 61.056C60.5625 61.056 61.0991 61.21 61.5658 61.518C62.0418 61.8167 62.4151 62.2273 62.6858 62.75C62.9658 63.2633 63.1058 63.8467 63.1058 64.5V64.808H57.7438C57.7811 65.2747 57.9071 65.6947 58.1218 66.068C58.3458 66.432 58.6351 66.7213 58.9898 66.936C59.3538 67.1413 59.7505 67.244 60.1798 67.244C60.5345 67.244 60.8751 67.1833 61.2018 67.062C61.5378 66.9313 61.8225 66.7587 62.0558 66.544L62.6998 67.23C62.3078 67.538 61.9018 67.7667 61.4818 67.916C61.0618 68.0653 60.6138 68.14 60.1378 68.14ZM57.7718 64.08H62.0978C62.0511 63.6693 61.9251 63.3053 61.7198 62.988C61.5238 62.6613 61.2718 62.4047 60.9638 62.218C60.6651 62.0313 60.3291 61.938 59.9558 61.938C59.5825 61.938 59.2418 62.0313 58.9338 62.218C58.6258 62.3953 58.3691 62.6473 58.1638 62.974C57.9678 63.2913 57.8371 63.66 57.7718 64.08ZM66.8281 68.126C66.3427 68.126 65.9134 68.0373 65.5401 67.86C65.1667 67.6827 64.8727 67.44 64.6581 67.132C64.4527 66.8147 64.3501 66.4507 64.3501 66.04C64.3501 65.6293 64.4574 65.2747 64.6721 64.976C64.8867 64.668 65.1854 64.43 65.5681 64.262C65.9507 64.094 66.3987 64.01 66.9121 64.01C67.3041 64.01 67.6727 64.052 68.0181 64.136C68.3727 64.22 68.6994 64.3553 68.9981 64.542V63.604C68.9981 63.044 68.8487 62.624 68.5501 62.344C68.2514 62.0547 67.8127 61.91 67.2341 61.91C66.9167 61.91 66.5901 61.9567 66.2541 62.05C65.9274 62.1433 65.5634 62.2927 65.1621 62.498L64.7841 61.714C65.6987 61.2753 66.5574 61.056 67.3601 61.056C68.2094 61.056 68.8627 61.266 69.3201 61.686C69.7774 62.0967 70.0061 62.6893 70.0061 63.464V68H68.9981V67.202C68.6994 67.51 68.3681 67.7433 68.0041 67.902C67.6401 68.0513 67.2481 68.126 66.8281 68.126ZM65.3301 66.012C65.3301 66.4133 65.4841 66.7353 65.7921 66.978C66.1094 67.2207 66.5247 67.342 67.0381 67.342C67.4207 67.342 67.7707 67.2767 68.0881 67.146C68.4147 67.0153 68.7181 66.8193 68.9981 66.558V65.242C68.7087 65.074 68.4101 64.9527 68.1021 64.878C67.7941 64.794 67.4487 64.752 67.0661 64.752C66.5434 64.752 66.1234 64.8687 65.8061 65.102C65.4887 65.326 65.3301 65.6293 65.3301 66.012ZM75.1492 68.112C74.5145 68.112 73.9405 67.958 73.4272 67.65C72.9232 67.3327 72.5219 66.908 72.2232 66.376C71.9245 65.8347 71.7752 65.2373 71.7752 64.584C71.7752 63.9213 71.9245 63.324 72.2232 62.792C72.5219 62.26 72.9232 61.84 73.4272 61.532C73.9405 61.2147 74.5145 61.056 75.1492 61.056C75.6532 61.056 76.1339 61.1493 76.5912 61.336C77.0485 61.5227 77.4452 61.784 77.7812 62.12L77.1232 62.834C76.8805 62.5633 76.5865 62.3533 76.2412 62.204C75.8959 62.0547 75.5459 61.98 75.1912 61.98C74.7432 61.98 74.3372 62.0967 73.9732 62.33C73.6185 62.5633 73.3339 62.876 73.1192 63.268C72.9045 63.66 72.7972 64.0987 72.7972 64.584C72.7972 65.0693 72.9045 65.508 73.1192 65.9C73.3339 66.292 73.6185 66.6047 73.9732 66.838C74.3372 67.0713 74.7432 67.188 75.1912 67.188C75.5459 67.188 75.8959 67.1133 76.2412 66.964C76.5865 66.8053 76.8805 66.5953 77.1232 66.334L77.7812 67.048C77.4452 67.384 77.0485 67.6453 76.5912 67.832C76.1339 68.0187 75.6532 68.112 75.1492 68.112ZM79.2063 68V57.892L80.2283 57.682V62.274C80.4896 61.8633 80.8023 61.56 81.1663 61.364C81.5303 61.1587 81.9409 61.056 82.3983 61.056C82.8929 61.056 83.3223 61.1633 83.6863 61.378C84.0596 61.5833 84.3489 61.8773 84.5543 62.26C84.7689 62.6333 84.8763 63.072 84.8763 63.576V68H83.8543V63.87C83.8543 63.2633 83.6863 62.7873 83.3503 62.442C83.0236 62.0873 82.5803 61.91 82.0203 61.91C81.6469 61.91 81.3063 61.9987 80.9983 62.176C80.6903 62.3533 80.4336 62.6147 80.2283 62.96V68H79.2063ZM93.2224 68.112C92.5878 68.112 92.0184 67.958 91.5144 67.65C91.0104 67.342 90.6138 66.922 90.3244 66.39C90.0351 65.858 89.8904 65.256 89.8904 64.584C89.8904 63.912 90.0351 63.31 90.3244 62.778C90.6138 62.246 91.0104 61.826 91.5144 61.518C92.0184 61.21 92.5878 61.056 93.2224 61.056C93.8478 61.056 94.4078 61.21 94.9024 61.518C95.4064 61.826 95.8031 62.246 96.0924 62.778C96.3818 63.31 96.5264 63.912 96.5264 64.584C96.5264 65.256 96.3818 65.858 96.0924 66.39C95.8031 66.922 95.4064 67.342 94.9024 67.65C94.4078 67.958 93.8478 68.112 93.2224 68.112ZM93.2084 67.216C93.6564 67.216 94.0531 67.104 94.3984 66.88C94.7438 66.6467 95.0144 66.3293 95.2104 65.928C95.4158 65.5267 95.5184 65.0787 95.5184 64.584C95.5184 64.08 95.4158 63.632 95.2104 63.24C95.0144 62.8387 94.7438 62.526 94.3984 62.302C94.0531 62.0687 93.6564 61.952 93.2084 61.952C92.7604 61.952 92.3638 62.0687 92.0184 62.302C91.6731 62.526 91.3978 62.8387 91.1924 63.24C90.9964 63.632 90.8984 64.08 90.8984 64.584C90.8984 65.0787 90.9964 65.5267 91.1924 65.928C91.3978 66.3293 91.6731 66.6467 92.0184 66.88C92.3638 67.104 92.7604 67.216 93.2084 67.216ZM100.756 68.112C100.27 68.112 99.8409 68.0047 99.4675 67.79C99.0942 67.5753 98.8002 67.2767 98.5855 66.894C98.3802 66.5113 98.2775 66.0727 98.2775 65.578V61.168H99.3135V65.284C99.3135 65.8907 99.4769 66.3713 99.8035 66.726C100.13 67.0807 100.574 67.258 101.134 67.258C101.516 67.258 101.857 67.1693 102.156 66.992C102.464 66.8147 102.72 66.558 102.926 66.222V61.168H103.948V68H102.926V66.894C102.664 67.2953 102.352 67.5987 101.988 67.804C101.633 68.0093 101.222 68.112 100.756 68.112ZM108.648 68.14C108.06 68.14 107.612 68 107.304 67.72C107.005 67.4307 106.856 67.0153 106.856 66.474V62.008H105.442V61.168H106.856V59.292L107.878 59.054V61.168H109.838V62.008H107.878V66.208C107.878 66.572 107.953 66.8333 108.102 66.992C108.261 67.1507 108.517 67.23 108.872 67.23C109.049 67.23 109.208 67.216 109.348 67.188C109.488 67.16 109.651 67.1133 109.838 67.048V67.958C109.651 68.0233 109.455 68.07 109.25 68.098C109.045 68.126 108.844 68.14 108.648 68.14ZM117.207 68.14C116.619 68.14 116.171 68 115.863 67.72C115.564 67.4307 115.415 67.0153 115.415 66.474V62.008H114.001V61.168H115.415V59.292L116.437 59.054V61.168H118.397V62.008H116.437V66.208C116.437 66.572 116.511 66.8333 116.661 66.992C116.819 67.1507 117.076 67.23 117.431 67.23C117.608 67.23 117.767 67.216 117.907 67.188C118.047 67.16 118.21 67.1133 118.397 67.048V67.958C118.21 68.0233 118.014 68.07 117.809 68.098C117.603 68.126 117.403 68.14 117.207 68.14ZM122.781 68.112C122.146 68.112 121.577 67.958 121.073 67.65C120.569 67.342 120.172 66.922 119.883 66.39C119.594 65.858 119.449 65.256 119.449 64.584C119.449 63.912 119.594 63.31 119.883 62.778C120.172 62.246 120.569 61.826 121.073 61.518C121.577 61.21 122.146 61.056 122.781 61.056C123.406 61.056 123.966 61.21 124.461 61.518C124.965 61.826 125.362 62.246 125.651 62.778C125.94 63.31 126.085 63.912 126.085 64.584C126.085 65.256 125.94 65.858 125.651 66.39C125.362 66.922 124.965 67.342 124.461 67.65C123.966 67.958 123.406 68.112 122.781 68.112ZM122.767 67.216C123.215 67.216 123.612 67.104 123.957 66.88C124.302 66.6467 124.573 66.3293 124.769 65.928C124.974 65.5267 125.077 65.0787 125.077 64.584C125.077 64.08 124.974 63.632 124.769 63.24C124.573 62.8387 124.302 62.526 123.957 62.302C123.612 62.0687 123.215 61.952 122.767 61.952C122.319 61.952 121.922 62.0687 121.577 62.302C121.232 62.526 120.956 62.8387 120.751 63.24C120.555 63.632 120.457 64.08 120.457 64.584C120.457 65.0787 120.555 65.5267 120.751 65.928C120.956 66.3293 121.232 66.6467 121.577 66.88C121.922 67.104 122.319 67.216 122.767 67.216ZM131.44 71.066C131.225 71.066 131.006 71.0333 130.782 70.968V70.058C130.875 70.0767 130.973 70.0907 131.076 70.1C131.178 70.1093 131.267 70.114 131.342 70.114C131.603 70.114 131.818 70.044 131.986 69.904C132.163 69.764 132.312 69.5447 132.434 69.246L132.938 68L130.306 61.168H131.44L133.512 66.782L135.71 61.168H136.844L133.4 69.554C133.25 69.918 133.087 70.212 132.91 70.436C132.732 70.66 132.527 70.8187 132.294 70.912C132.06 71.0147 131.776 71.066 131.44 71.066ZM140.937 68.112C140.303 68.112 139.733 67.958 139.229 67.65C138.725 67.342 138.329 66.922 138.039 66.39C137.75 65.858 137.605 65.256 137.605 64.584C137.605 63.912 137.75 63.31 138.039 62.778C138.329 62.246 138.725 61.826 139.229 61.518C139.733 61.21 140.303 61.056 140.937 61.056C141.563 61.056 142.123 61.21 142.617 61.518C143.121 61.826 143.518 62.246 143.807 62.778C144.097 63.31 144.241 63.912 144.241 64.584C144.241 65.256 144.097 65.858 143.807 66.39C143.518 66.922 143.121 67.342 142.617 67.65C142.123 67.958 141.563 68.112 140.937 68.112ZM140.923 67.216C141.371 67.216 141.768 67.104 142.113 66.88C142.459 66.6467 142.729 66.3293 142.925 65.928C143.131 65.5267 143.233 65.0787 143.233 64.584C143.233 64.08 143.131 63.632 142.925 63.24C142.729 62.8387 142.459 62.526 142.113 62.302C141.768 62.0687 141.371 61.952 140.923 61.952C140.475 61.952 140.079 62.0687 139.733 62.302C139.388 62.526 139.113 62.8387 138.907 63.24C138.711 63.632 138.613 64.08 138.613 64.584C138.613 65.0787 138.711 65.5267 138.907 65.928C139.113 66.3293 139.388 66.6467 139.733 66.88C140.079 67.104 140.475 67.216 140.923 67.216ZM148.47 68.112C147.985 68.112 147.556 68.0047 147.182 67.79C146.809 67.5753 146.515 67.2767 146.3 66.894C146.095 66.5113 145.992 66.0727 145.992 65.578V61.168H147.028V65.284C147.028 65.8907 147.192 66.3713 147.518 66.726C147.845 67.0807 148.288 67.258 148.848 67.258C149.231 67.258 149.572 67.1693 149.87 66.992C150.178 66.8147 150.435 66.558 150.64 66.222V61.168H151.662V68H150.64V66.894C150.379 67.2953 150.066 67.5987 149.702 67.804C149.348 68.0093 148.937 68.112 148.47 68.112ZM153.759 68V61.168H154.781V62.568C154.958 62.092 155.21 61.7233 155.537 61.462C155.873 61.1913 156.256 61.056 156.685 61.056C156.806 61.056 156.918 61.0653 157.021 61.084C157.124 61.0933 157.226 61.1167 157.329 61.154V62.078C157.217 62.0407 157.096 62.0127 156.965 61.994C156.844 61.966 156.727 61.952 156.615 61.952C156.195 61.952 155.826 62.0733 155.509 62.316C155.201 62.5587 154.958 62.8993 154.781 63.338V68H153.759ZM162.13 68V58.2H163.208V68H162.13ZM168.219 68V59.152H164.831V58.2H172.685V59.152H169.297V68H168.219ZM179.512 68.126C179.026 68.126 178.597 68.0373 178.224 67.86C177.85 67.6827 177.556 67.44 177.342 67.132C177.136 66.8147 177.034 66.4507 177.034 66.04C177.034 65.6293 177.141 65.2747 177.356 64.976C177.57 64.668 177.869 64.43 178.252 64.262C178.634 64.094 179.082 64.01 179.596 64.01C179.988 64.01 180.356 64.052 180.702 64.136C181.056 64.22 181.383 64.3553 181.682 64.542V63.604C181.682 63.044 181.532 62.624 181.234 62.344C180.935 62.0547 180.496 61.91 179.918 61.91C179.6 61.91 179.274 61.9567 178.938 62.05C178.611 62.1433 178.247 62.2927 177.846 62.498L177.468 61.714C178.382 61.2753 179.241 61.056 180.044 61.056C180.893 61.056 181.546 61.266 182.004 61.686C182.461 62.0967 182.69 62.6893 182.69 63.464V68H181.682V67.202C181.383 67.51 181.052 67.7433 180.688 67.902C180.324 68.0513 179.932 68.126 179.512 68.126ZM178.014 66.012C178.014 66.4133 178.168 66.7353 178.476 66.978C178.793 67.2207 179.208 67.342 179.722 67.342C180.104 67.342 180.454 67.2767 180.772 67.146C181.098 67.0153 181.402 66.8193 181.682 66.558V65.242C181.392 65.074 181.094 64.9527 180.786 64.878C180.478 64.794 180.132 64.752 179.75 64.752C179.227 64.752 178.807 64.8687 178.49 65.102C178.172 65.326 178.014 65.6293 178.014 66.012ZM187.609 68.098C187.021 68.098 186.489 67.944 186.013 67.636C185.537 67.3187 185.159 66.8987 184.879 66.376C184.599 65.844 184.459 65.2513 184.459 64.598C184.459 63.9353 184.599 63.3427 184.879 62.82C185.168 62.288 185.555 61.868 186.041 61.56C186.526 61.2427 187.067 61.084 187.665 61.084C188.085 61.084 188.477 61.168 188.841 61.336C189.205 61.4947 189.522 61.728 189.793 62.036V57.892L190.815 57.682V68H189.793V67.09C189.531 67.4167 189.214 67.6687 188.841 67.846C188.467 68.014 188.057 68.098 187.609 68.098ZM187.861 67.202C188.262 67.202 188.631 67.1227 188.967 66.964C189.303 66.8053 189.578 66.5813 189.793 66.292V62.904C189.569 62.6147 189.284 62.3907 188.939 62.232C188.603 62.064 188.243 61.98 187.861 61.98C187.403 61.98 186.993 62.092 186.629 62.316C186.274 62.54 185.989 62.848 185.775 63.24C185.569 63.632 185.467 64.08 185.467 64.584C185.467 65.0787 185.569 65.5267 185.775 65.928C185.989 66.32 186.274 66.6327 186.629 66.866C186.993 67.09 187.403 67.202 187.861 67.202ZM192.915 68V61.168H193.937V62.232C194.199 61.84 194.497 61.546 194.833 61.35C195.169 61.154 195.547 61.056 195.967 61.056C196.453 61.056 196.877 61.1773 197.241 61.42C197.605 61.6533 197.881 61.9753 198.067 62.386C198.338 61.9473 198.66 61.616 199.033 61.392C199.416 61.168 199.855 61.056 200.349 61.056C200.807 61.056 201.208 61.1633 201.553 61.378C201.908 61.5927 202.183 61.8913 202.379 62.274C202.575 62.6473 202.673 63.086 202.673 63.59V68H201.651V63.842C201.651 63.2447 201.502 62.7733 201.203 62.428C200.905 62.0827 200.494 61.91 199.971 61.91C199.617 61.91 199.295 61.9987 199.005 62.176C198.725 62.3533 198.478 62.624 198.263 62.988C198.282 63.0813 198.296 63.1793 198.305 63.282C198.315 63.3847 198.319 63.4873 198.319 63.59V68H197.297V63.842C197.297 63.2447 197.143 62.7733 196.835 62.428C196.537 62.0827 196.126 61.91 195.603 61.91C194.903 61.91 194.348 62.246 193.937 62.918V68H192.915ZM204.727 68V61.168H205.749V68H204.727ZM205.245 59.474C205.04 59.474 204.863 59.404 204.713 59.264C204.573 59.1147 204.503 58.942 204.503 58.746C204.503 58.55 204.573 58.382 204.713 58.242C204.863 58.0927 205.04 58.018 205.245 58.018C205.451 58.018 205.623 58.0927 205.763 58.242C205.913 58.382 205.987 58.55 205.987 58.746C205.987 58.942 205.913 59.1147 205.763 59.264C205.623 59.404 205.451 59.474 205.245 59.474ZM207.845 68V61.168H208.867V62.274C209.128 61.8633 209.441 61.56 209.805 61.364C210.169 61.1587 210.58 61.056 211.037 61.056C211.532 61.056 211.961 61.1633 212.325 61.378C212.698 61.5833 212.988 61.8773 213.193 62.26C213.408 62.6333 213.515 63.072 213.515 63.576V68H212.493V63.87C212.493 63.2633 212.325 62.7873 211.989 62.442C211.662 62.0873 211.219 61.91 210.659 61.91C210.286 61.91 209.945 61.9987 209.637 62.176C209.329 62.3533 209.072 62.6147 208.867 62.96V68H207.845ZM216.27 68.112C216.064 68.112 215.887 68.0373 215.738 67.888C215.598 67.7387 215.528 67.5613 215.528 67.356C215.528 67.1413 215.598 66.964 215.738 66.824C215.887 66.6747 216.064 66.6 216.27 66.6C216.475 66.6 216.648 66.6747 216.788 66.824C216.937 66.964 217.012 67.1413 217.012 67.356C217.012 67.5613 216.937 67.7387 216.788 67.888C216.648 68.0373 216.475 68.112 216.27 68.112Z" fill="black"/>
</svg>
