<svg width="412" height="155" viewBox="0 0 412 155" fill="none" xmlns="http://www.w3.org/2000/svg">
<rect width="412" height="155" fill="white"/>
<path d="M57.126 67L61.004 57.2H62.292L66.114 67H64.952L63.79 63.92H59.422L58.26 67H57.126ZM59.758 63.066H63.468L61.606 58.18L59.758 63.066ZM69.8608 67.098C69.2728 67.098 68.7408 66.944 68.2648 66.636C67.7888 66.3187 67.4108 65.8987 67.1308 65.376C66.8508 64.844 66.7108 64.2513 66.7108 63.598C66.7108 62.9353 66.8508 62.3427 67.1308 61.82C67.4201 61.288 67.8074 60.868 68.2928 60.56C68.7781 60.2427 69.3194 60.084 69.9168 60.084C70.3368 60.084 70.7288 60.168 71.0928 60.336C71.4568 60.4947 71.7741 60.728 72.0448 61.036V56.892L73.0668 56.682V67H72.0448V66.09C71.7834 66.4167 71.4661 66.6687 71.0928 66.846C70.7194 67.014 70.3088 67.098 69.8608 67.098ZM70.1128 66.202C70.5141 66.202 70.8828 66.1227 71.2188 65.964C71.5548 65.8053 71.8301 65.5813 72.0448 65.292V61.904C71.8208 61.6147 71.5361 61.3907 71.1908 61.232C70.8548 61.064 70.4954 60.98 70.1128 60.98C69.6554 60.98 69.2448 61.092 68.8808 61.316C68.5261 61.54 68.2414 61.848 68.0267 62.24C67.8214 62.632 67.7188 63.08 67.7188 63.584C67.7188 64.0787 67.8214 64.5267 68.0267 64.928C68.2414 65.32 68.5261 65.6327 68.8808 65.866C69.2448 66.09 69.6554 66.202 70.1128 66.202ZM78.0092 67.098C77.4212 67.098 76.8892 66.944 76.4132 66.636C75.9372 66.3187 75.5592 65.8987 75.2792 65.376C74.9992 64.844 74.8592 64.2513 74.8592 63.598C74.8592 62.9353 74.9992 62.3427 75.2792 61.82C75.5685 61.288 75.9559 60.868 76.4412 60.56C76.9265 60.2427 77.4679 60.084 78.0652 60.084C78.4852 60.084 78.8772 60.168 79.2412 60.336C79.6052 60.4947 79.9225 60.728 80.1932 61.036V56.892L81.2152 56.682V67H80.1932V66.09C79.9319 66.4167 79.6145 66.6687 79.2412 66.846C78.8679 67.014 78.4572 67.098 78.0092 67.098ZM78.2612 66.202C78.6625 66.202 79.0312 66.1227 79.3672 65.964C79.7032 65.8053 79.9785 65.5813 80.1932 65.292V61.904C79.9692 61.6147 79.6845 61.3907 79.3392 61.232C79.0032 61.064 78.6439 60.98 78.2612 60.98C77.8039 60.98 77.3932 61.092 77.0292 61.316C76.6745 61.54 76.3899 61.848 76.1752 62.24C75.9699 62.632 75.8672 63.08 75.8672 63.584C75.8672 64.0787 75.9699 64.5267 76.1752 64.928C76.3899 65.32 76.6745 65.6327 77.0292 65.866C77.3932 66.09 77.8039 66.202 78.2612 66.202Z" fill="#0066CC"/>
<path d="M57 70.5H82.2652V71.9H57V70.5Z" fill="#0066CC"/>
<path d="M186.126 67L190.004 57.2H191.292L195.114 67H193.952L192.79 63.92H188.422L187.26 67H186.126ZM188.758 63.066H192.468L190.606 58.18L188.758 63.066ZM198.861 67.098C198.273 67.098 197.741 66.944 197.265 66.636C196.789 66.3187 196.411 65.8987 196.131 65.376C195.851 64.844 195.711 64.2513 195.711 63.598C195.711 62.9353 195.851 62.3427 196.131 61.82C196.42 61.288 196.807 60.868 197.293 60.56C197.778 60.2427 198.319 60.084 198.917 60.084C199.337 60.084 199.729 60.168 200.093 60.336C200.457 60.4947 200.774 60.728 201.045 61.036V56.892L202.067 56.682V67H201.045V66.09C200.783 66.4167 200.466 66.6687 200.093 66.846C199.719 67.014 199.309 67.098 198.861 67.098ZM199.113 66.202C199.514 66.202 199.883 66.1227 200.219 65.964C200.555 65.8053 200.83 65.5813 201.045 65.292V61.904C200.821 61.6147 200.536 61.3907 200.191 61.232C199.855 61.064 199.495 60.98 199.113 60.98C198.655 60.98 198.245 61.092 197.881 61.316C197.526 61.54 197.241 61.848 197.027 62.24C196.821 62.632 196.719 63.08 196.719 63.584C196.719 64.0787 196.821 64.5267 197.027 64.928C197.241 65.32 197.526 65.6327 197.881 65.866C198.245 66.09 198.655 66.202 199.113 66.202ZM207.009 67.098C206.421 67.098 205.889 66.944 205.413 66.636C204.937 66.3187 204.559 65.8987 204.279 65.376C203.999 64.844 203.859 64.2513 203.859 63.598C203.859 62.9353 203.999 62.3427 204.279 61.82C204.569 61.288 204.956 60.868 205.441 60.56C205.927 60.2427 206.468 60.084 207.065 60.084C207.485 60.084 207.877 60.168 208.241 60.336C208.605 60.4947 208.923 60.728 209.193 61.036V56.892L210.215 56.682V67H209.193V66.09C208.932 66.4167 208.615 66.6687 208.241 66.846C207.868 67.014 207.457 67.098 207.009 67.098ZM207.261 66.202C207.663 66.202 208.031 66.1227 208.367 65.964C208.703 65.8053 208.979 65.5813 209.193 65.292V61.904C208.969 61.6147 208.685 61.3907 208.339 61.232C208.003 61.064 207.644 60.98 207.261 60.98C206.804 60.98 206.393 61.092 206.029 61.316C205.675 61.54 205.39 61.848 205.175 62.24C204.97 62.632 204.867 63.08 204.867 63.584C204.867 64.0787 204.97 64.5267 205.175 64.928C205.39 65.32 205.675 65.6327 206.029 65.866C206.393 66.09 206.804 66.202 207.261 66.202Z" fill="#004D99"/>
<path d="M186 70.5H211.265V71.9H186V70.5Z" fill="#004D99"/>
<mask id="path-3-inside-1_1515_59731" fill="white">
<path d="M208.465 70.9271C208.465 69.3875 210.131 68.4254 211.465 69.1951L223.595 76.198C224.929 76.9678 224.928 78.8925 223.595 79.6623L220.372 81.5231L222.01 84.3614C222.563 85.3179 222.235 86.5412 221.278 87.0934L219.475 88.1344C218.519 88.6867 217.296 88.3587 216.743 87.4024L215.105 84.5641L211.465 86.6657C210.131 87.4354 208.464 86.4734 208.464 84.9338L208.465 70.9271Z"/>
</mask>
<path d="M208.465 70.9271C208.465 69.3875 210.131 68.4254 211.465 69.1951L223.595 76.198C224.929 76.9678 224.928 78.8925 223.595 79.6623L220.372 81.5231L222.01 84.3614C222.563 85.3179 222.235 86.5412 221.278 87.0934L219.475 88.1344C218.519 88.6867 217.296 88.3587 216.743 87.4024L215.105 84.5641L211.465 86.6657C210.131 87.4354 208.464 86.4734 208.464 84.9338L208.465 70.9271Z" fill="#FF00FF"/>
<path d="M208.465 70.9271L209.465 70.9271L209.465 70.9271L208.465 70.9271ZM211.465 69.1951L210.965 70.0612L210.965 70.0612L211.465 69.1951ZM223.595 76.198L224.095 75.332L224.095 75.3319L223.595 76.198ZM220.372 81.5231L219.872 80.6571L219.006 81.1571L219.506 82.0231L220.372 81.5231ZM222.01 84.3614L222.877 83.8615L222.877 83.8614L222.01 84.3614ZM221.278 87.0934L221.778 87.9594L221.778 87.9594L221.278 87.0934ZM216.743 87.4024L215.877 87.9024L215.877 87.9025L216.743 87.4024ZM215.105 84.5641L215.971 84.0641L215.471 83.1981L214.605 83.6981L215.105 84.5641ZM211.465 86.6657L211.965 87.5317L211.965 87.5317L211.465 86.6657ZM208.464 84.9338L207.464 84.9338L207.464 84.9338L208.464 84.9338ZM208.465 70.9271L209.465 70.9271C209.465 70.1574 210.298 69.6763 210.965 70.0612L211.465 69.1951L211.965 68.3291C209.965 67.1746 207.465 68.6177 207.465 70.9271L208.465 70.9271ZM211.465 69.1951L210.965 70.0612L223.095 77.064L223.595 76.198L224.095 75.3319L211.965 68.3291L211.465 69.1951ZM223.595 76.198L223.095 77.064C223.762 77.4487 223.762 78.4112 223.095 78.7962L223.595 79.6623L224.095 80.5283C226.095 79.3738 226.095 76.4868 224.095 75.332L223.595 76.198ZM223.595 79.6623L223.095 78.7962L219.872 80.6571L220.372 81.5231L220.872 82.3891L224.095 80.5283L223.595 79.6623ZM220.372 81.5231L219.506 82.0231L221.144 84.8614L222.01 84.3614L222.877 83.8614L221.238 81.0231L220.372 81.5231ZM222.01 84.3614L221.144 84.8612C221.42 85.3396 221.256 85.9514 220.778 86.2274L221.278 87.0934L221.778 87.9594C223.213 87.131 223.705 85.2961 222.877 83.8615L222.01 84.3614ZM221.278 87.0934L220.778 86.2274L218.975 87.2684L219.475 88.1344L219.975 89.0005L221.778 87.9594L221.278 87.0934ZM219.475 88.1344L218.975 87.2684C218.497 87.5444 217.886 87.3806 217.609 86.9022L216.743 87.4024L215.877 87.9025C216.706 89.3369 218.54 89.8289 219.975 89.0005L219.475 88.1344ZM216.743 87.4024L217.609 86.9024L215.971 84.0641L215.105 84.5641L214.239 85.0641L215.877 87.9024L216.743 87.4024ZM215.105 84.5641L214.605 83.6981L210.965 85.7997L211.465 86.6657L211.965 87.5317L215.605 85.4301L215.105 84.5641ZM211.465 86.6657L210.965 85.7996C210.298 86.1847 209.464 85.7032 209.464 84.9338L208.464 84.9338L207.464 84.9338C207.464 87.2436 209.965 88.6862 211.965 87.5317L211.465 86.6657ZM208.464 84.9338L209.464 84.9339L209.465 70.9271L208.465 70.9271L207.465 70.927L207.464 84.9338L208.464 84.9338Z" fill="#FF00FF" mask="url(#path-3-inside-1_1515_59731)"/>
<path d="M57.126 108L61.004 98.2H62.292L66.114 108H64.952L63.79 104.92H59.422L58.26 108H57.126ZM59.758 104.066H63.468L61.606 99.18L59.758 104.066ZM69.8608 108.098C69.2728 108.098 68.7408 107.944 68.2648 107.636C67.7888 107.319 67.4108 106.899 67.1308 106.376C66.8508 105.844 66.7108 105.251 66.7108 104.598C66.7108 103.935 66.8508 103.343 67.1308 102.82C67.4201 102.288 67.8074 101.868 68.2928 101.56C68.7781 101.243 69.3194 101.084 69.9168 101.084C70.3368 101.084 70.7288 101.168 71.0928 101.336C71.4568 101.495 71.7741 101.728 72.0448 102.036V97.892L73.0668 97.682V108H72.0448V107.09C71.7834 107.417 71.4661 107.669 71.0928 107.846C70.7194 108.014 70.3088 108.098 69.8608 108.098ZM70.1128 107.202C70.5141 107.202 70.8828 107.123 71.2188 106.964C71.5548 106.805 71.8301 106.581 72.0448 106.292V102.904C71.8208 102.615 71.5361 102.391 71.1908 102.232C70.8548 102.064 70.4954 101.98 70.1128 101.98C69.6554 101.98 69.2448 102.092 68.8808 102.316C68.5261 102.54 68.2414 102.848 68.0267 103.24C67.8214 103.632 67.7188 104.08 67.7188 104.584C67.7188 105.079 67.8214 105.527 68.0267 105.928C68.2414 106.32 68.5261 106.633 68.8808 106.866C69.2448 107.09 69.6554 107.202 70.1128 107.202ZM78.0092 108.098C77.4212 108.098 76.8892 107.944 76.4132 107.636C75.9372 107.319 75.5592 106.899 75.2792 106.376C74.9992 105.844 74.8592 105.251 74.8592 104.598C74.8592 103.935 74.9992 103.343 75.2792 102.82C75.5685 102.288 75.9559 101.868 76.4412 101.56C76.9265 101.243 77.4679 101.084 78.0652 101.084C78.4852 101.084 78.8772 101.168 79.2412 101.336C79.6052 101.495 79.9225 101.728 80.1932 102.036V97.892L81.2152 97.682V108H80.1932V107.09C79.9319 107.417 79.6145 107.669 79.2412 107.846C78.8679 108.014 78.4572 108.098 78.0092 108.098ZM78.2612 107.202C78.6625 107.202 79.0312 107.123 79.3672 106.964C79.7032 106.805 79.9785 106.581 80.1932 106.292V102.904C79.9692 102.615 79.6845 102.391 79.3392 102.232C79.0032 102.064 78.6439 101.98 78.2612 101.98C77.8039 101.98 77.3932 102.092 77.0292 102.316C76.6745 102.54 76.3899 102.848 76.1752 103.24C75.9699 103.632 75.8672 104.08 75.8672 104.584C75.8672 105.079 75.9699 105.527 76.1752 105.928C76.3899 106.32 76.6745 106.633 77.0292 106.866C77.3932 107.09 77.8039 107.202 78.2612 107.202Z" fill="#0066CC"/>
<path d="M57 111.5H82.2652V112.9H57V111.5Z" fill="#0066CC"/>
<path d="M97.6875 98.75C97.929 98.75 98.125 98.946 98.125 99.1875V100.062C98.125 100.304 97.929 100.5 97.6875 100.5H93.75V109.25H102.5V106.188C102.5 105.946 102.696 105.75 102.938 105.75H103.812C104.054 105.75 104.25 105.946 104.25 106.188V109.688C104.25 110.412 103.662 111 102.938 111H93.3125C92.588 111 92 110.412 92 109.688V100.062C92 99.338 92.588 98.75 93.3125 98.75H97.6875ZM105.344 97C105.706 97 106 97.294 106 97.6562V101.156C106 101.744 105.289 102.031 104.879 101.621L103.902 100.646L97.2412 107.309C97.1351 107.415 96.9268 107.502 96.7764 107.502C96.626 107.502 96.4177 107.415 96.3115 107.309L95.6914 106.689C95.5849 106.583 95.498 106.375 95.498 106.225C95.4982 106.074 95.5849 105.866 95.6914 105.76L102.355 99.0977L101.379 98.1211C100.967 97.7085 101.259 97 101.844 97H105.344Z" fill="#0066CC"/>
<path d="M186.126 108L190.004 98.2H191.292L195.114 108H193.952L192.79 104.92H188.422L187.26 108H186.126ZM188.758 104.066H192.468L190.606 99.18L188.758 104.066ZM198.861 108.098C198.273 108.098 197.741 107.944 197.265 107.636C196.789 107.319 196.411 106.899 196.131 106.376C195.851 105.844 195.711 105.251 195.711 104.598C195.711 103.935 195.851 103.343 196.131 102.82C196.42 102.288 196.807 101.868 197.293 101.56C197.778 101.243 198.319 101.084 198.917 101.084C199.337 101.084 199.729 101.168 200.093 101.336C200.457 101.495 200.774 101.728 201.045 102.036V97.892L202.067 97.682V108H201.045V107.09C200.783 107.417 200.466 107.669 200.093 107.846C199.719 108.014 199.309 108.098 198.861 108.098ZM199.113 107.202C199.514 107.202 199.883 107.123 200.219 106.964C200.555 106.805 200.83 106.581 201.045 106.292V102.904C200.821 102.615 200.536 102.391 200.191 102.232C199.855 102.064 199.495 101.98 199.113 101.98C198.655 101.98 198.245 102.092 197.881 102.316C197.526 102.54 197.241 102.848 197.027 103.24C196.821 103.632 196.719 104.08 196.719 104.584C196.719 105.079 196.821 105.527 197.027 105.928C197.241 106.32 197.526 106.633 197.881 106.866C198.245 107.09 198.655 107.202 199.113 107.202ZM207.009 108.098C206.421 108.098 205.889 107.944 205.413 107.636C204.937 107.319 204.559 106.899 204.279 106.376C203.999 105.844 203.859 105.251 203.859 104.598C203.859 103.935 203.999 103.343 204.279 102.82C204.569 102.288 204.956 101.868 205.441 101.56C205.927 101.243 206.468 101.084 207.065 101.084C207.485 101.084 207.877 101.168 208.241 101.336C208.605 101.495 208.923 101.728 209.193 102.036V97.892L210.215 97.682V108H209.193V107.09C208.932 107.417 208.615 107.669 208.241 107.846C207.868 108.014 207.457 108.098 207.009 108.098ZM207.261 107.202C207.663 107.202 208.031 107.123 208.367 106.964C208.703 106.805 208.979 106.581 209.193 106.292V102.904C208.969 102.615 208.685 102.391 208.339 102.232C208.003 102.064 207.644 101.98 207.261 101.98C206.804 101.98 206.393 102.092 206.029 102.316C205.675 102.54 205.39 102.848 205.175 103.24C204.97 103.632 204.867 104.08 204.867 104.584C204.867 105.079 204.97 105.527 205.175 105.928C205.39 106.32 205.675 106.633 206.029 106.866C206.393 107.09 206.804 107.202 207.261 107.202Z" fill="#004D99"/>
<path d="M186 111.5H211.265V112.9H186V111.5Z" fill="#004D99"/>
<path d="M226.688 98.75C226.929 98.75 227.125 98.946 227.125 99.1875V100.062C227.125 100.304 226.929 100.5 226.688 100.5H222.75V109.25H231.5V106.188C231.5 105.946 231.696 105.75 231.938 105.75H232.812C233.054 105.75 233.25 105.946 233.25 106.188V109.688C233.25 110.412 232.662 111 231.938 111H222.312C221.588 111 221 110.412 221 109.688V100.062C221 99.338 221.588 98.75 222.312 98.75H226.688ZM234.344 97C234.706 97 235 97.294 235 97.6562V101.156C235 101.744 234.289 102.031 233.879 101.621L232.902 100.646L226.241 107.309C226.135 107.415 225.927 107.502 225.776 107.502C225.626 107.502 225.418 107.415 225.312 107.309L224.691 106.689C224.585 106.583 224.498 106.375 224.498 106.225C224.498 106.074 224.585 105.866 224.691 105.76L231.355 99.0977L230.379 98.1211C229.967 97.7085 230.259 97 230.844 97H234.344Z" fill="#004D99"/>
<path d="M315.126 66L319.004 56.2H320.292L324.114 66H322.952L321.79 62.92H317.422L316.26 66H315.126ZM317.758 62.066H321.468L319.606 57.18L317.758 62.066ZM327.861 66.098C327.273 66.098 326.741 65.944 326.265 65.636C325.789 65.3187 325.411 64.8987 325.131 64.376C324.851 63.844 324.711 63.2513 324.711 62.598C324.711 61.9353 324.851 61.3427 325.131 60.82C325.42 60.288 325.807 59.868 326.293 59.56C326.778 59.2427 327.319 59.084 327.917 59.084C328.337 59.084 328.729 59.168 329.093 59.336C329.457 59.4947 329.774 59.728 330.045 60.036V55.892L331.067 55.682V66H330.045V65.09C329.783 65.4167 329.466 65.6687 329.093 65.846C328.719 66.014 328.309 66.098 327.861 66.098ZM328.113 65.202C328.514 65.202 328.883 65.1227 329.219 64.964C329.555 64.8053 329.83 64.5813 330.045 64.292V60.904C329.821 60.6147 329.536 60.3907 329.191 60.232C328.855 60.064 328.495 59.98 328.113 59.98C327.655 59.98 327.245 60.092 326.881 60.316C326.526 60.54 326.241 60.848 326.027 61.24C325.821 61.632 325.719 62.08 325.719 62.584C325.719 63.0787 325.821 63.5267 326.027 63.928C326.241 64.32 326.526 64.6327 326.881 64.866C327.245 65.09 327.655 65.202 328.113 65.202ZM336.009 66.098C335.421 66.098 334.889 65.944 334.413 65.636C333.937 65.3187 333.559 64.8987 333.279 64.376C332.999 63.844 332.859 63.2513 332.859 62.598C332.859 61.9353 332.999 61.3427 333.279 60.82C333.569 60.288 333.956 59.868 334.441 59.56C334.927 59.2427 335.468 59.084 336.065 59.084C336.485 59.084 336.877 59.168 337.241 59.336C337.605 59.4947 337.923 59.728 338.193 60.036V55.892L339.215 55.682V66H338.193V65.09C337.932 65.4167 337.615 65.6687 337.241 65.846C336.868 66.014 336.457 66.098 336.009 66.098ZM336.261 65.202C336.663 65.202 337.031 65.1227 337.367 64.964C337.703 64.8053 337.979 64.5813 338.193 64.292V60.904C337.969 60.6147 337.685 60.3907 337.339 60.232C337.003 60.064 336.644 59.98 336.261 59.98C335.804 59.98 335.393 60.092 335.029 60.316C334.675 60.54 334.39 60.848 334.175 61.24C333.97 61.632 333.867 62.08 333.867 62.584C333.867 63.0787 333.97 63.5267 334.175 63.928C334.39 64.32 334.675 64.6327 335.029 64.866C335.393 65.09 335.804 65.202 336.261 65.202Z" fill="#5E40BE"/>
<path d="M315 69.5H340.265V70.9H315V69.5Z" fill="#5E40BE"/>
<path d="M315.126 107L319.004 97.2H320.292L324.114 107H322.952L321.79 103.92H317.422L316.26 107H315.126ZM317.758 103.066H321.468L319.606 98.18L317.758 103.066ZM327.861 107.098C327.273 107.098 326.741 106.944 326.265 106.636C325.789 106.319 325.411 105.899 325.131 105.376C324.851 104.844 324.711 104.251 324.711 103.598C324.711 102.935 324.851 102.343 325.131 101.82C325.42 101.288 325.807 100.868 326.293 100.56C326.778 100.243 327.319 100.084 327.917 100.084C328.337 100.084 328.729 100.168 329.093 100.336C329.457 100.495 329.774 100.728 330.045 101.036V96.892L331.067 96.682V107H330.045V106.09C329.783 106.417 329.466 106.669 329.093 106.846C328.719 107.014 328.309 107.098 327.861 107.098ZM328.113 106.202C328.514 106.202 328.883 106.123 329.219 105.964C329.555 105.805 329.83 105.581 330.045 105.292V101.904C329.821 101.615 329.536 101.391 329.191 101.232C328.855 101.064 328.495 100.98 328.113 100.98C327.655 100.98 327.245 101.092 326.881 101.316C326.526 101.54 326.241 101.848 326.027 102.24C325.821 102.632 325.719 103.08 325.719 103.584C325.719 104.079 325.821 104.527 326.027 104.928C326.241 105.32 326.526 105.633 326.881 105.866C327.245 106.09 327.655 106.202 328.113 106.202ZM336.009 107.098C335.421 107.098 334.889 106.944 334.413 106.636C333.937 106.319 333.559 105.899 333.279 105.376C332.999 104.844 332.859 104.251 332.859 103.598C332.859 102.935 332.999 102.343 333.279 101.82C333.569 101.288 333.956 100.868 334.441 100.56C334.927 100.243 335.468 100.084 336.065 100.084C336.485 100.084 336.877 100.168 337.241 100.336C337.605 100.495 337.923 100.728 338.193 101.036V96.892L339.215 96.682V107H338.193V106.09C337.932 106.417 337.615 106.669 337.241 106.846C336.868 107.014 336.457 107.098 336.009 107.098ZM336.261 106.202C336.663 106.202 337.031 106.123 337.367 105.964C337.703 105.805 337.979 105.581 338.193 105.292V101.904C337.969 101.615 337.685 101.391 337.339 101.232C337.003 101.064 336.644 100.98 336.261 100.98C335.804 100.98 335.393 101.092 335.029 101.316C334.675 101.54 334.39 101.848 334.175 102.24C333.97 102.632 333.867 103.08 333.867 103.584C333.867 104.079 333.97 104.527 334.175 104.928C334.39 105.32 334.675 105.633 335.029 105.866C335.393 106.09 335.804 106.202 336.261 106.202Z" fill="#5E40BE"/>
<path d="M315 110.5H340.265V111.9H315V110.5Z" fill="#5E40BE"/>
<path d="M355.688 97.75C355.929 97.75 356.125 97.946 356.125 98.1875V99.0625C356.125 99.304 355.929 99.5 355.688 99.5H351.75V108.25H360.5V105.188C360.5 104.946 360.696 104.75 360.938 104.75H361.812C362.054 104.75 362.25 104.946 362.25 105.188V108.688C362.25 109.412 361.662 110 360.938 110H351.312C350.588 110 350 109.412 350 108.688V99.0625C350 98.338 350.588 97.75 351.312 97.75H355.688ZM363.344 96C363.706 96 364 96.294 364 96.6562V100.156C364 100.744 363.289 101.031 362.879 100.621L361.902 99.6455L355.241 106.309C355.135 106.415 354.927 106.502 354.776 106.502C354.626 106.502 354.418 106.415 354.312 106.309L353.691 105.689C353.585 105.583 353.498 105.375 353.498 105.225C353.498 105.074 353.585 104.866 353.691 104.76L360.355 98.0977L359.379 97.1211C358.967 96.7085 359.259 96 359.844 96H363.344Z" fill="#5E40BE"/>
<mask id="path-12-inside-2_1515_59731" fill="white">
<path d="M208.465 110.927C208.465 109.388 210.131 108.425 211.465 109.195L223.595 116.198C224.929 116.968 224.928 118.892 223.595 119.662L220.372 121.523L222.01 124.361C222.563 125.318 222.235 126.541 221.278 127.093L219.475 128.134C218.519 128.687 217.296 128.359 216.743 127.402L215.105 124.564L211.465 126.666C210.131 127.435 208.464 126.473 208.464 124.934L208.465 110.927Z"/>
</mask>
<path d="M208.465 110.927C208.465 109.388 210.131 108.425 211.465 109.195L223.595 116.198C224.929 116.968 224.928 118.892 223.595 119.662L220.372 121.523L222.01 124.361C222.563 125.318 222.235 126.541 221.278 127.093L219.475 128.134C218.519 128.687 217.296 128.359 216.743 127.402L215.105 124.564L211.465 126.666C210.131 127.435 208.464 126.473 208.464 124.934L208.465 110.927Z" fill="#FF00FF"/>
<path d="M208.465 110.927L209.465 110.927L209.465 110.927L208.465 110.927ZM211.465 109.195L210.965 110.061L210.965 110.061L211.465 109.195ZM223.595 116.198L224.095 115.332L224.095 115.332L223.595 116.198ZM220.372 121.523L219.872 120.657L219.006 121.157L219.506 122.023L220.372 121.523ZM222.01 124.361L222.877 123.862L222.877 123.861L222.01 124.361ZM221.278 127.093L221.778 127.959L221.778 127.959L221.278 127.093ZM216.743 127.402L215.877 127.902L215.877 127.903L216.743 127.402ZM215.105 124.564L215.971 124.064L215.471 123.198L214.605 123.698L215.105 124.564ZM211.465 126.666L211.965 127.532L211.965 127.532L211.465 126.666ZM208.464 124.934L207.464 124.934L207.464 124.934L208.464 124.934ZM208.465 110.927L209.465 110.927C209.465 110.157 210.298 109.676 210.965 110.061L211.465 109.195L211.965 108.329C209.965 107.175 207.465 108.618 207.465 110.927L208.465 110.927ZM211.465 109.195L210.965 110.061L223.095 117.064L223.595 116.198L224.095 115.332L211.965 108.329L211.465 109.195ZM223.595 116.198L223.095 117.064C223.762 117.449 223.762 118.411 223.095 118.796L223.595 119.662L224.095 120.528C226.095 119.374 226.095 116.487 224.095 115.332L223.595 116.198ZM223.595 119.662L223.095 118.796L219.872 120.657L220.372 121.523L220.872 122.389L224.095 120.528L223.595 119.662ZM220.372 121.523L219.506 122.023L221.144 124.861L222.01 124.361L222.877 123.861L221.238 121.023L220.372 121.523ZM222.01 124.361L221.144 124.861C221.42 125.34 221.256 125.951 220.778 126.227L221.278 127.093L221.778 127.959C223.213 127.131 223.705 125.296 222.877 123.862L222.01 124.361ZM221.278 127.093L220.778 126.227L218.975 127.268L219.475 128.134L219.975 129L221.778 127.959L221.278 127.093ZM219.475 128.134L218.975 127.268C218.497 127.544 217.886 127.381 217.609 126.902L216.743 127.402L215.877 127.903C216.706 129.337 218.54 129.829 219.975 129L219.475 128.134ZM216.743 127.402L217.609 126.902L215.971 124.064L215.105 124.564L214.239 125.064L215.877 127.902L216.743 127.402ZM215.105 124.564L214.605 123.698L210.965 125.8L211.465 126.666L211.965 127.532L215.605 125.43L215.105 124.564ZM211.465 126.666L210.965 125.8C210.298 126.185 209.464 125.703 209.464 124.934L208.464 124.934L207.464 124.934C207.464 127.244 209.965 128.686 211.965 127.532L211.465 126.666ZM208.464 124.934L209.464 124.934L209.465 110.927L208.465 110.927L207.465 110.927L207.464 124.934L208.464 124.934Z" fill="#FF00FF" mask="url(#path-12-inside-2_1515_59731)"/>
<path d="M45.816 38.496H48.12C48.8987 38.496 49.6027 38.3147 50.232 37.952C50.8613 37.5893 51.3573 37.104 51.72 36.496C52.0827 35.8773 52.264 35.184 52.264 34.416C52.264 33.6373 52.0827 32.9387 51.72 32.32C51.3573 31.7013 50.8613 31.2107 50.232 30.848C49.6027 30.4853 48.8987 30.304 48.12 30.304H45.816V38.496ZM44.136 40V28.8H48.088C48.9307 28.8 49.7093 28.944 50.424 29.232C51.1387 29.5093 51.7627 29.8987 52.296 30.4C52.8293 30.9013 53.2453 31.4933 53.544 32.176C53.8427 32.8587 53.992 33.6 53.992 34.4C53.992 35.2107 53.8427 35.9573 53.544 36.64C53.256 37.312 52.8453 37.8987 52.312 38.4C51.7787 38.9013 51.1493 39.296 50.424 39.584C49.7093 39.8613 48.9307 40 48.088 40H44.136ZM59.473 40.144C58.673 40.144 57.9477 39.9573 57.297 39.584C56.657 39.2107 56.145 38.704 55.761 38.064C55.3877 37.424 55.201 36.7093 55.201 35.92C55.201 35.1413 55.3823 34.4373 55.745 33.808C56.1077 33.168 56.5983 32.6613 57.217 32.288C57.8357 31.904 58.5237 31.712 59.281 31.712C60.0383 31.712 60.7103 31.904 61.297 32.288C61.8837 32.6613 62.3477 33.1733 62.689 33.824C63.041 34.464 63.217 35.1893 63.217 36V36.448H56.801C56.8863 36.896 57.0517 37.296 57.297 37.648C57.553 38 57.873 38.2773 58.257 38.48C58.6517 38.6827 59.0783 38.784 59.537 38.784C59.9317 38.784 60.3103 38.7253 60.673 38.608C61.0463 38.48 61.3557 38.2987 61.601 38.064L62.625 39.072C62.145 39.4347 61.649 39.7067 61.137 39.888C60.6357 40.0587 60.081 40.144 59.473 40.144ZM56.817 35.248H61.633C61.569 34.8213 61.4197 34.448 61.185 34.128C60.961 33.7973 60.6783 33.5413 60.337 33.36C60.0063 33.168 59.6437 33.072 59.249 33.072C58.6303 33.072 58.097 33.2747 57.649 33.68C57.2117 34.0747 56.9343 34.5973 56.817 35.248ZM65.7225 40V33.2H63.8345V31.856H65.7225V30.624C65.7225 29.7707 65.9572 29.12 66.4265 28.672C66.9065 28.224 67.5892 28 68.4745 28C68.6985 28 68.9065 28.016 69.0985 28.048C69.3012 28.0693 69.4825 28.1067 69.6425 28.16V29.536C69.4505 29.4827 69.2798 29.4453 69.1305 29.424C68.9812 29.392 68.8158 29.376 68.6345 29.376C67.7492 29.376 67.3065 29.808 67.3065 30.672V31.856H69.6425V33.2H67.3065V40H65.7225ZM73.1763 40.144C72.5896 40.144 72.0723 40.0427 71.6243 39.84C71.1763 39.6267 70.8243 39.3333 70.5683 38.96C70.3123 38.5867 70.1842 38.1547 70.1842 37.664C70.1842 36.896 70.4776 36.2933 71.0643 35.856C71.6509 35.408 72.4563 35.184 73.4803 35.184C74.2803 35.184 75.0216 35.3387 75.7043 35.648V34.784C75.7043 33.6213 75.0429 33.04 73.7203 33.04C73.3469 33.04 72.9576 33.0987 72.5523 33.216C72.1469 33.3227 71.6936 33.4933 71.1923 33.728L70.6003 32.528C71.2189 32.24 71.7949 32.032 72.3283 31.904C72.8616 31.7653 73.4003 31.696 73.9443 31.696C75.0003 31.696 75.8163 31.9467 76.3923 32.448C76.9789 32.9493 77.2723 33.664 77.2723 34.592V40H75.7043V39.296C75.3416 39.584 74.9523 39.7973 74.5363 39.936C74.1203 40.0747 73.6669 40.144 73.1763 40.144ZM71.7203 37.632C71.7203 38.0267 71.8856 38.3467 72.2163 38.592C72.5576 38.8373 73.0003 38.96 73.5443 38.96C74.4189 38.96 75.1389 38.6987 75.7043 38.176V36.8C75.1176 36.4587 74.4189 36.288 73.6083 36.288C73.0216 36.288 72.5576 36.4107 72.2163 36.656C71.8856 36.8907 71.7203 37.216 71.7203 37.632ZM82.1898 40.16C81.5604 40.16 81.0058 40.0267 80.5258 39.76C80.0458 39.4933 79.6724 39.12 79.4058 38.64C79.1391 38.16 79.0058 37.6 79.0058 36.96V31.856H80.5898V36.688C80.5898 37.328 80.7711 37.8347 81.1338 38.208C81.5071 38.5813 82.0031 38.768 82.6218 38.768C83.4964 38.768 84.1631 38.4107 84.6218 37.696V31.856H86.2218V40H84.6218V39.168C83.9924 39.8293 83.1818 40.16 82.1898 40.16ZM88.1159 40V28.8L89.7159 28.496V40H88.1159ZM95.0883 40.144C94.2989 40.144 93.6963 39.9627 93.2803 39.6C92.8643 39.2267 92.6562 38.688 92.6562 37.984V33.2H90.9283V31.856H92.6562V29.776L94.2403 29.392V31.856H96.6403V33.2H94.2403V37.616C94.2403 38.032 94.3309 38.3307 94.5123 38.512C94.7043 38.6827 95.0136 38.768 95.4403 38.768C95.6643 38.768 95.8616 38.752 96.0323 38.72C96.2136 38.688 96.4056 38.64 96.6083 38.576V39.92C96.3949 39.9947 96.1443 40.048 95.8563 40.08C95.5789 40.1227 95.3229 40.144 95.0883 40.144Z" fill="black"/>
<path d="M177.136 40V28.8H178.816V33.6H184.768V28.8H186.448V40H184.768V35.12H178.816V40H177.136ZM192.41 40.16C191.62 40.16 190.9 39.9733 190.25 39.6C189.61 39.2267 189.103 38.72 188.73 38.08C188.356 37.44 188.17 36.7253 188.17 35.936C188.17 35.1467 188.356 34.432 188.73 33.792C189.103 33.152 189.61 32.6453 190.25 32.272C190.9 31.888 191.62 31.696 192.41 31.696C193.21 31.696 193.93 31.888 194.57 32.272C195.21 32.6453 195.716 33.152 196.09 33.792C196.463 34.432 196.65 35.1467 196.65 35.936C196.65 36.7253 196.463 37.44 196.09 38.08C195.716 38.72 195.21 39.2267 194.57 39.6C193.93 39.9733 193.21 40.16 192.41 40.16ZM192.41 38.752C192.911 38.752 193.359 38.6293 193.754 38.384C194.159 38.128 194.479 37.7867 194.714 37.36C194.959 36.9333 195.082 36.4587 195.082 35.936C195.082 35.4027 194.964 34.928 194.73 34.512C194.495 34.0853 194.175 33.744 193.77 33.488C193.364 33.232 192.911 33.104 192.41 33.104C191.908 33.104 191.455 33.232 191.05 33.488C190.644 33.744 190.324 34.0853 190.09 34.512C189.855 34.928 189.738 35.4027 189.738 35.936C189.738 36.4587 189.855 36.9333 190.09 37.36C190.324 37.7867 190.644 38.128 191.05 38.384C191.455 38.6293 191.908 38.752 192.41 38.752ZM200.552 40L197.032 31.856H198.792L201.336 37.952L203.88 31.856H205.576L202.088 40H200.552ZM210.239 40.144C209.439 40.144 208.713 39.9573 208.063 39.584C207.423 39.2107 206.911 38.704 206.527 38.064C206.153 37.424 205.967 36.7093 205.967 35.92C205.967 35.1413 206.148 34.4373 206.511 33.808C206.873 33.168 207.364 32.6613 207.983 32.288C208.601 31.904 209.289 31.712 210.047 31.712C210.804 31.712 211.476 31.904 212.063 32.288C212.649 32.6613 213.113 33.1733 213.455 33.824C213.807 34.464 213.983 35.1893 213.983 36V36.448H207.567C207.652 36.896 207.817 37.296 208.063 37.648C208.319 38 208.639 38.2773 209.023 38.48C209.417 38.6827 209.844 38.784 210.303 38.784C210.697 38.784 211.076 38.7253 211.439 38.608C211.812 38.48 212.121 38.2987 212.367 38.064L213.391 39.072C212.911 39.4347 212.415 39.7067 211.903 39.888C211.401 40.0587 210.847 40.144 210.239 40.144ZM207.583 35.248H212.399C212.335 34.8213 212.185 34.448 211.951 34.128C211.727 33.7973 211.444 33.5413 211.103 33.36C210.772 33.168 210.409 33.072 210.015 33.072C209.396 33.072 208.863 33.2747 208.415 33.68C207.977 34.0747 207.7 34.5973 207.583 35.248ZM215.507 40V31.856H217.107V32.896C217.363 32.512 217.677 32.2133 218.051 32C218.435 31.776 218.867 31.664 219.347 31.664C219.677 31.6747 219.949 31.7227 220.163 31.808V33.248C219.853 33.1307 219.539 33.072 219.219 33.072C218.749 33.072 218.333 33.2 217.971 33.456C217.608 33.7013 217.32 34.064 217.107 34.544V40H215.507Z" fill="black"/>
<path d="M309.592 40L305.016 28.8H306.824L310.616 38.336L314.472 28.8H316.2L311.56 40H309.592ZM317.163 40V31.856H318.763V40H317.163ZM317.963 30.544C317.696 30.544 317.467 30.448 317.275 30.256C317.083 30.0533 316.987 29.8187 316.987 29.552C316.987 29.2747 317.083 29.0453 317.275 28.864C317.467 28.672 317.696 28.576 317.963 28.576C318.24 28.576 318.475 28.672 318.667 28.864C318.859 29.0453 318.955 29.2747 318.955 29.552C318.955 29.8187 318.859 30.0533 318.667 30.256C318.475 30.448 318.24 30.544 317.963 30.544ZM323.447 40.16C322.743 40.16 322.082 40.0587 321.463 39.856C320.855 39.6427 320.327 39.344 319.879 38.96L320.759 37.904C321.175 38.2347 321.602 38.4907 322.039 38.672C322.487 38.8427 322.94 38.928 323.399 38.928C323.975 38.928 324.444 38.816 324.807 38.592C325.17 38.368 325.351 38.0747 325.351 37.712C325.351 37.136 324.914 36.784 324.039 36.656L322.567 36.448C321.756 36.3307 321.148 36.08 320.743 35.696C320.338 35.312 320.135 34.8 320.135 34.16C320.135 33.6693 320.268 33.2427 320.535 32.88C320.802 32.5067 321.175 32.2187 321.655 32.016C322.135 31.8027 322.695 31.696 323.335 31.696C323.922 31.696 324.487 31.7813 325.031 31.952C325.575 32.1227 326.098 32.3893 326.599 32.752L325.783 33.808C324.898 33.232 324.039 32.944 323.207 32.944C322.716 32.944 322.322 33.0507 322.023 33.264C321.724 33.4667 321.575 33.7333 321.575 34.064C321.575 34.3627 321.676 34.5973 321.879 34.768C322.092 34.928 322.439 35.04 322.919 35.104L324.391 35.312C325.202 35.4293 325.815 35.68 326.231 36.064C326.647 36.4373 326.855 36.944 326.855 37.584C326.855 38.0747 326.706 38.5173 326.407 38.912C326.108 39.296 325.703 39.6 325.191 39.824C324.679 40.048 324.098 40.16 323.447 40.16ZM328.085 40V31.856H329.685V40H328.085ZM328.885 30.544C328.618 30.544 328.389 30.448 328.197 30.256C328.005 30.0533 327.909 29.8187 327.909 29.552C327.909 29.2747 328.005 29.0453 328.197 28.864C328.389 28.672 328.618 28.576 328.885 28.576C329.162 28.576 329.397 28.672 329.589 28.864C329.781 29.0453 329.877 29.2747 329.877 29.552C329.877 29.8187 329.781 30.0533 329.589 30.256C329.397 30.448 329.162 30.544 328.885 30.544ZM335.057 40.144C334.268 40.144 333.665 39.9627 333.249 39.6C332.833 39.2267 332.625 38.688 332.625 37.984V33.2H330.897V31.856H332.625V29.776L334.209 29.392V31.856H336.609V33.2H334.209V37.616C334.209 38.032 334.3 38.3307 334.481 38.512C334.673 38.6827 334.982 38.768 335.409 38.768C335.633 38.768 335.83 38.752 336.001 38.72C336.182 38.688 336.374 38.64 336.577 38.576V39.92C336.364 39.9947 336.113 40.048 335.825 40.08C335.548 40.1227 335.292 40.144 335.057 40.144ZM341.567 40.144C340.767 40.144 340.041 39.9573 339.391 39.584C338.751 39.2107 338.239 38.704 337.855 38.064C337.481 37.424 337.295 36.7093 337.295 35.92C337.295 35.1413 337.476 34.4373 337.839 33.808C338.201 33.168 338.692 32.6613 339.311 32.288C339.929 31.904 340.617 31.712 341.375 31.712C342.132 31.712 342.804 31.904 343.391 32.288C343.977 32.6613 344.441 33.1733 344.783 33.824C345.135 34.464 345.311 35.1893 345.311 36V36.448H338.895C338.98 36.896 339.145 37.296 339.391 37.648C339.647 38 339.967 38.2773 340.351 38.48C340.745 38.6827 341.172 38.784 341.631 38.784C342.025 38.784 342.404 38.7253 342.767 38.608C343.14 38.48 343.449 38.2987 343.695 38.064L344.719 39.072C344.239 39.4347 343.743 39.7067 343.231 39.888C342.729 40.0587 342.175 40.144 341.567 40.144ZM338.911 35.248H343.727C343.663 34.8213 343.513 34.448 343.279 34.128C343.055 33.7973 342.772 33.5413 342.431 33.36C342.1 33.168 341.737 33.072 341.343 33.072C340.724 33.072 340.191 33.2747 339.743 33.68C339.305 34.0747 339.028 34.5973 338.911 35.248ZM350.61 40.128C349.853 40.128 349.159 39.9413 348.53 39.568C347.901 39.1947 347.405 38.6933 347.042 38.064C346.679 37.424 346.498 36.7093 346.498 35.92C346.498 35.1307 346.679 34.4213 347.042 33.792C347.415 33.1627 347.917 32.6613 348.546 32.288C349.175 31.9147 349.874 31.728 350.642 31.728C351.559 31.728 352.375 32 353.09 32.544V28.8L354.69 28.496V40H353.106V39.216C352.413 39.824 351.581 40.128 350.61 40.128ZM350.818 38.736C351.287 38.736 351.714 38.6507 352.098 38.48C352.493 38.3093 352.823 38.064 353.09 37.744V34.08C352.823 33.7813 352.493 33.5467 352.098 33.376C351.703 33.1947 351.277 33.104 350.818 33.104C350.306 33.104 349.842 33.2267 349.426 33.472C349.01 33.7173 348.679 34.0533 348.434 34.48C348.189 34.896 348.066 35.3707 348.066 35.904C348.066 36.4373 348.189 36.9173 348.434 37.344C348.679 37.7707 349.01 38.112 349.426 38.368C349.842 38.6133 350.306 38.736 350.818 38.736Z" fill="black"/>
</svg>
