<svg width="351" height="355" viewBox="0 0 351 355" fill="none" xmlns="http://www.w3.org/2000/svg">
<rect width="351" height="355" fill="white"/>
<path d="M92.8126 71.2891C93.0868 71.0151 93.5296 71.0151 93.8009 71.2891L94.4611 71.9483C94.7352 72.2225 94.7352 72.6663 94.4611 72.9376L90.4933 76.9054C90.2249 77.1796 89.7812 77.1795 89.507 76.9054L85.5392 72.9376C85.2649 72.6633 85.2649 72.2197 85.5392 71.9483L86.1984 71.2891C86.4726 71.015 86.9163 71.0149 87.1876 71.2891L90.0001 74.1016L92.8126 71.2891Z" fill="#1F1F1F"/>
<path d="M111.78 78V69.152H108.392V68.2H116.246V69.152H112.858V78H111.78ZM117.062 78V71.168H118.084V72.568C118.261 72.092 118.513 71.7233 118.84 71.462C119.176 71.1913 119.558 71.056 119.988 71.056C120.109 71.056 120.221 71.0653 120.324 71.084C120.426 71.0933 120.529 71.1167 120.632 71.154V72.078C120.52 72.0407 120.398 72.0127 120.268 71.994C120.146 71.966 120.03 71.952 119.918 71.952C119.498 71.952 119.129 72.0733 118.812 72.316C118.504 72.5587 118.261 72.8993 118.084 73.338V78H117.062ZM124.64 78.14C124.005 78.14 123.431 77.986 122.918 77.678C122.404 77.3607 121.998 76.936 121.7 76.404C121.401 75.8627 121.252 75.256 121.252 74.584C121.252 73.912 121.392 73.31 121.672 72.778C121.961 72.246 122.348 71.826 122.834 71.518C123.319 71.21 123.86 71.056 124.458 71.056C125.064 71.056 125.601 71.21 126.068 71.518C126.544 71.8167 126.917 72.2273 127.188 72.75C127.468 73.2633 127.608 73.8467 127.608 74.5V74.808H122.246C122.283 75.2747 122.409 75.6947 122.624 76.068C122.848 76.432 123.137 76.7213 123.492 76.936C123.856 77.1413 124.252 77.244 124.682 77.244C125.036 77.244 125.377 77.1833 125.704 77.062C126.04 76.9313 126.324 76.7587 126.558 76.544L127.202 77.23C126.81 77.538 126.404 77.7667 125.984 77.916C125.564 78.0653 125.116 78.14 124.64 78.14ZM122.274 74.08H126.6C126.553 73.6693 126.427 73.3053 126.222 72.988C126.026 72.6613 125.774 72.4047 125.466 72.218C125.167 72.0313 124.831 71.938 124.458 71.938C124.084 71.938 123.744 72.0313 123.436 72.218C123.128 72.3953 122.871 72.6473 122.666 72.974C122.47 73.2913 122.339 73.66 122.274 74.08ZM132.433 78.14C131.798 78.14 131.224 77.986 130.711 77.678C130.197 77.3607 129.791 76.936 129.493 76.404C129.194 75.8627 129.045 75.256 129.045 74.584C129.045 73.912 129.185 73.31 129.465 72.778C129.754 72.246 130.141 71.826 130.627 71.518C131.112 71.21 131.653 71.056 132.251 71.056C132.857 71.056 133.394 71.21 133.861 71.518C134.337 71.8167 134.71 72.2273 134.981 72.75C135.261 73.2633 135.401 73.8467 135.401 74.5V74.808H130.039C130.076 75.2747 130.202 75.6947 130.417 76.068C130.641 76.432 130.93 76.7213 131.285 76.936C131.649 77.1413 132.045 77.244 132.475 77.244C132.829 77.244 133.17 77.1833 133.497 77.062C133.833 76.9313 134.117 76.7587 134.351 76.544L134.995 77.23C134.603 77.538 134.197 77.7667 133.777 77.916C133.357 78.0653 132.909 78.14 132.433 78.14ZM130.067 74.08H134.393C134.346 73.6693 134.22 73.3053 134.015 72.988C133.819 72.6613 133.567 72.4047 133.259 72.218C132.96 72.0313 132.624 71.938 132.251 71.938C131.877 71.938 131.537 72.0313 131.229 72.218C130.921 72.3953 130.664 72.6473 130.459 72.974C130.263 73.2913 130.132 73.66 130.067 74.08ZM140.413 78V71.168H141.435V72.274C141.697 71.8633 142.009 71.56 142.373 71.364C142.737 71.1587 143.148 71.056 143.605 71.056C144.1 71.056 144.529 71.1633 144.893 71.378C145.267 71.5833 145.556 71.8773 145.761 72.26C145.976 72.6333 146.083 73.072 146.083 73.576V78H145.061V73.87C145.061 73.2633 144.893 72.7873 144.557 72.442C144.231 72.0873 143.787 71.91 143.227 71.91C142.854 71.91 142.513 71.9987 142.205 72.176C141.897 72.3533 141.641 72.6147 141.435 72.96V78H140.413ZM151.162 78.112C150.527 78.112 149.958 77.958 149.454 77.65C148.95 77.342 148.553 76.922 148.264 76.39C147.975 75.858 147.83 75.256 147.83 74.584C147.83 73.912 147.975 73.31 148.264 72.778C148.553 72.246 148.95 71.826 149.454 71.518C149.958 71.21 150.527 71.056 151.162 71.056C151.787 71.056 152.347 71.21 152.842 71.518C153.346 71.826 153.743 72.246 154.032 72.778C154.321 73.31 154.466 73.912 154.466 74.584C154.466 75.256 154.321 75.858 154.032 76.39C153.743 76.922 153.346 77.342 152.842 77.65C152.347 77.958 151.787 78.112 151.162 78.112ZM151.148 77.216C151.596 77.216 151.993 77.104 152.338 76.88C152.683 76.6467 152.954 76.3293 153.15 75.928C153.355 75.5267 153.458 75.0787 153.458 74.584C153.458 74.08 153.355 73.632 153.15 73.24C152.954 72.8387 152.683 72.526 152.338 72.302C151.993 72.0687 151.596 71.952 151.148 71.952C150.7 71.952 150.303 72.0687 149.958 72.302C149.613 72.526 149.337 72.8387 149.132 73.24C148.936 73.632 148.838 74.08 148.838 74.584C148.838 75.0787 148.936 75.5267 149.132 75.928C149.337 76.3293 149.613 76.6467 149.958 76.88C150.303 77.104 150.7 77.216 151.148 77.216ZM159.101 78.098C158.513 78.098 157.981 77.944 157.505 77.636C157.029 77.3187 156.651 76.8987 156.371 76.376C156.091 75.844 155.951 75.2513 155.951 74.598C155.951 73.9353 156.091 73.3427 156.371 72.82C156.66 72.288 157.048 71.868 157.533 71.56C158.018 71.2427 158.56 71.084 159.157 71.084C159.577 71.084 159.969 71.168 160.333 71.336C160.697 71.4947 161.014 71.728 161.285 72.036V67.892L162.307 67.682V78H161.285V77.09C161.024 77.4167 160.706 77.6687 160.333 77.846C159.96 78.014 159.549 78.098 159.101 78.098ZM159.353 77.202C159.754 77.202 160.123 77.1227 160.459 76.964C160.795 76.8053 161.07 76.5813 161.285 76.292V72.904C161.061 72.6147 160.776 72.3907 160.431 72.232C160.095 72.064 159.736 71.98 159.353 71.98C158.896 71.98 158.485 72.092 158.121 72.316C157.766 72.54 157.482 72.848 157.267 73.24C157.062 73.632 156.959 74.08 156.959 74.584C156.959 75.0787 157.062 75.5267 157.267 75.928C157.482 76.32 157.766 76.6327 158.121 76.866C158.485 77.09 158.896 77.202 159.353 77.202ZM167.487 78.14C166.853 78.14 166.279 77.986 165.765 77.678C165.252 77.3607 164.846 76.936 164.547 76.404C164.249 75.8627 164.099 75.256 164.099 74.584C164.099 73.912 164.239 73.31 164.519 72.778C164.809 72.246 165.196 71.826 165.681 71.518C166.167 71.21 166.708 71.056 167.305 71.056C167.912 71.056 168.449 71.21 168.915 71.518C169.391 71.8167 169.765 72.2273 170.035 72.75C170.315 73.2633 170.455 73.8467 170.455 74.5V74.808H165.093C165.131 75.2747 165.257 75.6947 165.471 76.068C165.695 76.432 165.985 76.7213 166.339 76.936C166.703 77.1413 167.1 77.244 167.529 77.244C167.884 77.244 168.225 77.1833 168.551 77.062C168.887 76.9313 169.172 76.7587 169.405 76.544L170.049 77.23C169.657 77.538 169.251 77.7667 168.831 77.916C168.411 78.0653 167.963 78.14 167.487 78.14ZM165.121 74.08H169.447C169.401 73.6693 169.275 73.3053 169.069 72.988C168.873 72.6613 168.621 72.4047 168.313 72.218C168.015 72.0313 167.679 71.938 167.305 71.938C166.932 71.938 166.591 72.0313 166.283 72.218C165.975 72.3953 165.719 72.6473 165.513 72.974C165.317 73.2913 165.187 73.66 165.121 74.08Z" fill="#4D4D4D"/>
<path d="M120.813 108.289C121.087 108.015 121.53 108.015 121.801 108.289L122.461 108.948C122.735 109.223 122.735 109.666 122.461 109.938L118.493 113.905C118.225 114.18 117.781 114.179 117.507 113.905L113.539 109.938C113.265 109.663 113.265 109.22 113.539 108.948L114.198 108.289C114.473 108.015 114.916 108.015 115.188 108.289L118 111.102L120.813 108.289Z" fill="#1F1F1F"/>
<path d="M139.78 115V106.152H136.392V105.2H144.246V106.152H140.858V115H139.78ZM145.062 115V108.168H146.084V109.568C146.261 109.092 146.513 108.723 146.84 108.462C147.176 108.191 147.558 108.056 147.988 108.056C148.109 108.056 148.221 108.065 148.324 108.084C148.426 108.093 148.529 108.117 148.632 108.154V109.078C148.52 109.041 148.398 109.013 148.268 108.994C148.146 108.966 148.03 108.952 147.918 108.952C147.498 108.952 147.129 109.073 146.812 109.316C146.504 109.559 146.261 109.899 146.084 110.338V115H145.062ZM152.64 115.14C152.005 115.14 151.431 114.986 150.918 114.678C150.404 114.361 149.998 113.936 149.7 113.404C149.401 112.863 149.252 112.256 149.252 111.584C149.252 110.912 149.392 110.31 149.672 109.778C149.961 109.246 150.348 108.826 150.834 108.518C151.319 108.21 151.86 108.056 152.458 108.056C153.064 108.056 153.601 108.21 154.068 108.518C154.544 108.817 154.917 109.227 155.188 109.75C155.468 110.263 155.608 110.847 155.608 111.5V111.808H150.246C150.283 112.275 150.409 112.695 150.624 113.068C150.848 113.432 151.137 113.721 151.492 113.936C151.856 114.141 152.252 114.244 152.682 114.244C153.036 114.244 153.377 114.183 153.704 114.062C154.04 113.931 154.324 113.759 154.558 113.544L155.202 114.23C154.81 114.538 154.404 114.767 153.984 114.916C153.564 115.065 153.116 115.14 152.64 115.14ZM150.274 111.08H154.6C154.553 110.669 154.427 110.305 154.222 109.988C154.026 109.661 153.774 109.405 153.466 109.218C153.167 109.031 152.831 108.938 152.458 108.938C152.084 108.938 151.744 109.031 151.436 109.218C151.128 109.395 150.871 109.647 150.666 109.974C150.47 110.291 150.339 110.66 150.274 111.08ZM160.433 115.14C159.798 115.14 159.224 114.986 158.711 114.678C158.197 114.361 157.791 113.936 157.493 113.404C157.194 112.863 157.045 112.256 157.045 111.584C157.045 110.912 157.185 110.31 157.465 109.778C157.754 109.246 158.141 108.826 158.627 108.518C159.112 108.21 159.653 108.056 160.251 108.056C160.857 108.056 161.394 108.21 161.861 108.518C162.337 108.817 162.71 109.227 162.981 109.75C163.261 110.263 163.401 110.847 163.401 111.5V111.808H158.039C158.076 112.275 158.202 112.695 158.417 113.068C158.641 113.432 158.93 113.721 159.285 113.936C159.649 114.141 160.045 114.244 160.475 114.244C160.829 114.244 161.17 114.183 161.497 114.062C161.833 113.931 162.117 113.759 162.351 113.544L162.995 114.23C162.603 114.538 162.197 114.767 161.777 114.916C161.357 115.065 160.909 115.14 160.433 115.14ZM158.067 111.08H162.393C162.346 110.669 162.22 110.305 162.015 109.988C161.819 109.661 161.567 109.405 161.259 109.218C160.96 109.031 160.624 108.938 160.251 108.938C159.877 108.938 159.537 109.031 159.229 109.218C158.921 109.395 158.664 109.647 158.459 109.974C158.263 110.291 158.132 110.66 158.067 111.08ZM168.413 115V108.168H169.435V109.274C169.697 108.863 170.009 108.56 170.373 108.364C170.737 108.159 171.148 108.056 171.605 108.056C172.1 108.056 172.529 108.163 172.893 108.378C173.267 108.583 173.556 108.877 173.761 109.26C173.976 109.633 174.083 110.072 174.083 110.576V115H173.061V110.87C173.061 110.263 172.893 109.787 172.557 109.442C172.231 109.087 171.787 108.91 171.227 108.91C170.854 108.91 170.513 108.999 170.205 109.176C169.897 109.353 169.641 109.615 169.435 109.96V115H168.413ZM179.162 115.112C178.527 115.112 177.958 114.958 177.454 114.65C176.95 114.342 176.553 113.922 176.264 113.39C175.975 112.858 175.83 112.256 175.83 111.584C175.83 110.912 175.975 110.31 176.264 109.778C176.553 109.246 176.95 108.826 177.454 108.518C177.958 108.21 178.527 108.056 179.162 108.056C179.787 108.056 180.347 108.21 180.842 108.518C181.346 108.826 181.743 109.246 182.032 109.778C182.321 110.31 182.466 110.912 182.466 111.584C182.466 112.256 182.321 112.858 182.032 113.39C181.743 113.922 181.346 114.342 180.842 114.65C180.347 114.958 179.787 115.112 179.162 115.112ZM179.148 114.216C179.596 114.216 179.993 114.104 180.338 113.88C180.683 113.647 180.954 113.329 181.15 112.928C181.355 112.527 181.458 112.079 181.458 111.584C181.458 111.08 181.355 110.632 181.15 110.24C180.954 109.839 180.683 109.526 180.338 109.302C179.993 109.069 179.596 108.952 179.148 108.952C178.7 108.952 178.303 109.069 177.958 109.302C177.613 109.526 177.337 109.839 177.132 110.24C176.936 110.632 176.838 111.08 176.838 111.584C176.838 112.079 176.936 112.527 177.132 112.928C177.337 113.329 177.613 113.647 177.958 113.88C178.303 114.104 178.7 114.216 179.148 114.216ZM187.101 115.098C186.513 115.098 185.981 114.944 185.505 114.636C185.029 114.319 184.651 113.899 184.371 113.376C184.091 112.844 183.951 112.251 183.951 111.598C183.951 110.935 184.091 110.343 184.371 109.82C184.66 109.288 185.048 108.868 185.533 108.56C186.018 108.243 186.56 108.084 187.157 108.084C187.577 108.084 187.969 108.168 188.333 108.336C188.697 108.495 189.014 108.728 189.285 109.036V104.892L190.307 104.682V115H189.285V114.09C189.024 114.417 188.706 114.669 188.333 114.846C187.96 115.014 187.549 115.098 187.101 115.098ZM187.353 114.202C187.754 114.202 188.123 114.123 188.459 113.964C188.795 113.805 189.07 113.581 189.285 113.292V109.904C189.061 109.615 188.776 109.391 188.431 109.232C188.095 109.064 187.736 108.98 187.353 108.98C186.896 108.98 186.485 109.092 186.121 109.316C185.766 109.54 185.482 109.848 185.267 110.24C185.062 110.632 184.959 111.08 184.959 111.584C184.959 112.079 185.062 112.527 185.267 112.928C185.482 113.32 185.766 113.633 186.121 113.866C186.485 114.09 186.896 114.202 187.353 114.202ZM195.487 115.14C194.853 115.14 194.279 114.986 193.765 114.678C193.252 114.361 192.846 113.936 192.547 113.404C192.249 112.863 192.099 112.256 192.099 111.584C192.099 110.912 192.239 110.31 192.519 109.778C192.809 109.246 193.196 108.826 193.681 108.518C194.167 108.21 194.708 108.056 195.305 108.056C195.912 108.056 196.449 108.21 196.915 108.518C197.391 108.817 197.765 109.227 198.035 109.75C198.315 110.263 198.455 110.847 198.455 111.5V111.808H193.093C193.131 112.275 193.257 112.695 193.471 113.068C193.695 113.432 193.985 113.721 194.339 113.936C194.703 114.141 195.1 114.244 195.529 114.244C195.884 114.244 196.225 114.183 196.551 114.062C196.887 113.931 197.172 113.759 197.405 113.544L198.049 114.23C197.657 114.538 197.251 114.767 196.831 114.916C196.411 115.065 195.963 115.14 195.487 115.14ZM193.121 111.08H197.447C197.401 110.669 197.275 110.305 197.069 109.988C196.873 109.661 196.621 109.405 196.313 109.218C196.015 109.031 195.679 108.938 195.305 108.938C194.932 108.938 194.591 109.031 194.283 109.218C193.975 109.395 193.719 109.647 193.513 109.974C193.317 110.291 193.187 110.66 193.121 111.08Z" fill="#4D4D4D"/>
<path d="M165.78 152V143.152H162.392V142.2H170.246V143.152H166.858V152H165.78ZM171.062 152V145.168H172.084V146.568C172.261 146.092 172.513 145.723 172.84 145.462C173.176 145.191 173.558 145.056 173.988 145.056C174.109 145.056 174.221 145.065 174.324 145.084C174.426 145.093 174.529 145.117 174.632 145.154V146.078C174.52 146.041 174.398 146.013 174.268 145.994C174.146 145.966 174.03 145.952 173.918 145.952C173.498 145.952 173.129 146.073 172.812 146.316C172.504 146.559 172.261 146.899 172.084 147.338V152H171.062ZM178.64 152.14C178.005 152.14 177.431 151.986 176.918 151.678C176.404 151.361 175.998 150.936 175.7 150.404C175.401 149.863 175.252 149.256 175.252 148.584C175.252 147.912 175.392 147.31 175.672 146.778C175.961 146.246 176.348 145.826 176.834 145.518C177.319 145.21 177.86 145.056 178.458 145.056C179.064 145.056 179.601 145.21 180.068 145.518C180.544 145.817 180.917 146.227 181.188 146.75C181.468 147.263 181.608 147.847 181.608 148.5V148.808H176.246C176.283 149.275 176.409 149.695 176.624 150.068C176.848 150.432 177.137 150.721 177.492 150.936C177.856 151.141 178.252 151.244 178.682 151.244C179.036 151.244 179.377 151.183 179.704 151.062C180.04 150.931 180.324 150.759 180.558 150.544L181.202 151.23C180.81 151.538 180.404 151.767 179.984 151.916C179.564 152.065 179.116 152.14 178.64 152.14ZM176.274 148.08H180.6C180.553 147.669 180.427 147.305 180.222 146.988C180.026 146.661 179.774 146.405 179.466 146.218C179.167 146.031 178.831 145.938 178.458 145.938C178.084 145.938 177.744 146.031 177.436 146.218C177.128 146.395 176.871 146.647 176.666 146.974C176.47 147.291 176.339 147.66 176.274 148.08ZM186.433 152.14C185.798 152.14 185.224 151.986 184.711 151.678C184.197 151.361 183.791 150.936 183.493 150.404C183.194 149.863 183.045 149.256 183.045 148.584C183.045 147.912 183.185 147.31 183.465 146.778C183.754 146.246 184.141 145.826 184.627 145.518C185.112 145.21 185.653 145.056 186.251 145.056C186.857 145.056 187.394 145.21 187.861 145.518C188.337 145.817 188.71 146.227 188.981 146.75C189.261 147.263 189.401 147.847 189.401 148.5V148.808H184.039C184.076 149.275 184.202 149.695 184.417 150.068C184.641 150.432 184.93 150.721 185.285 150.936C185.649 151.141 186.045 151.244 186.475 151.244C186.829 151.244 187.17 151.183 187.497 151.062C187.833 150.931 188.117 150.759 188.351 150.544L188.995 151.23C188.603 151.538 188.197 151.767 187.777 151.916C187.357 152.065 186.909 152.14 186.433 152.14ZM184.067 148.08H188.393C188.346 147.669 188.22 147.305 188.015 146.988C187.819 146.661 187.567 146.405 187.259 146.218C186.96 146.031 186.624 145.938 186.251 145.938C185.877 145.938 185.537 146.031 185.229 146.218C184.921 146.395 184.664 146.647 184.459 146.974C184.263 147.291 184.132 147.66 184.067 148.08ZM194.413 152V145.168H195.435V146.274C195.697 145.863 196.009 145.56 196.373 145.364C196.737 145.159 197.148 145.056 197.605 145.056C198.1 145.056 198.529 145.163 198.893 145.378C199.267 145.583 199.556 145.877 199.761 146.26C199.976 146.633 200.083 147.072 200.083 147.576V152H199.061V147.87C199.061 147.263 198.893 146.787 198.557 146.442C198.231 146.087 197.787 145.91 197.227 145.91C196.854 145.91 196.513 145.999 196.205 146.176C195.897 146.353 195.641 146.615 195.435 146.96V152H194.413ZM205.162 152.112C204.527 152.112 203.958 151.958 203.454 151.65C202.95 151.342 202.553 150.922 202.264 150.39C201.975 149.858 201.83 149.256 201.83 148.584C201.83 147.912 201.975 147.31 202.264 146.778C202.553 146.246 202.95 145.826 203.454 145.518C203.958 145.21 204.527 145.056 205.162 145.056C205.787 145.056 206.347 145.21 206.842 145.518C207.346 145.826 207.743 146.246 208.032 146.778C208.321 147.31 208.466 147.912 208.466 148.584C208.466 149.256 208.321 149.858 208.032 150.39C207.743 150.922 207.346 151.342 206.842 151.65C206.347 151.958 205.787 152.112 205.162 152.112ZM205.148 151.216C205.596 151.216 205.993 151.104 206.338 150.88C206.683 150.647 206.954 150.329 207.15 149.928C207.355 149.527 207.458 149.079 207.458 148.584C207.458 148.08 207.355 147.632 207.15 147.24C206.954 146.839 206.683 146.526 206.338 146.302C205.993 146.069 205.596 145.952 205.148 145.952C204.7 145.952 204.303 146.069 203.958 146.302C203.613 146.526 203.337 146.839 203.132 147.24C202.936 147.632 202.838 148.08 202.838 148.584C202.838 149.079 202.936 149.527 203.132 149.928C203.337 150.329 203.613 150.647 203.958 150.88C204.303 151.104 204.7 151.216 205.148 151.216ZM213.101 152.098C212.513 152.098 211.981 151.944 211.505 151.636C211.029 151.319 210.651 150.899 210.371 150.376C210.091 149.844 209.951 149.251 209.951 148.598C209.951 147.935 210.091 147.343 210.371 146.82C210.66 146.288 211.048 145.868 211.533 145.56C212.018 145.243 212.56 145.084 213.157 145.084C213.577 145.084 213.969 145.168 214.333 145.336C214.697 145.495 215.014 145.728 215.285 146.036V141.892L216.307 141.682V152H215.285V151.09C215.024 151.417 214.706 151.669 214.333 151.846C213.96 152.014 213.549 152.098 213.101 152.098ZM213.353 151.202C213.754 151.202 214.123 151.123 214.459 150.964C214.795 150.805 215.07 150.581 215.285 150.292V146.904C215.061 146.615 214.776 146.391 214.431 146.232C214.095 146.064 213.736 145.98 213.353 145.98C212.896 145.98 212.485 146.092 212.121 146.316C211.766 146.54 211.482 146.848 211.267 147.24C211.062 147.632 210.959 148.08 210.959 148.584C210.959 149.079 211.062 149.527 211.267 149.928C211.482 150.32 211.766 150.633 212.121 150.866C212.485 151.09 212.896 151.202 213.353 151.202ZM221.487 152.14C220.853 152.14 220.279 151.986 219.765 151.678C219.252 151.361 218.846 150.936 218.547 150.404C218.249 149.863 218.099 149.256 218.099 148.584C218.099 147.912 218.239 147.31 218.519 146.778C218.809 146.246 219.196 145.826 219.681 145.518C220.167 145.21 220.708 145.056 221.305 145.056C221.912 145.056 222.449 145.21 222.915 145.518C223.391 145.817 223.765 146.227 224.035 146.75C224.315 147.263 224.455 147.847 224.455 148.5V148.808H219.093C219.131 149.275 219.257 149.695 219.471 150.068C219.695 150.432 219.985 150.721 220.339 150.936C220.703 151.141 221.1 151.244 221.529 151.244C221.884 151.244 222.225 151.183 222.551 151.062C222.887 150.931 223.172 150.759 223.405 150.544L224.049 151.23C223.657 151.538 223.251 151.767 222.831 151.916C222.411 152.065 221.963 152.14 221.487 152.14ZM219.121 148.08H223.447C223.401 147.669 223.275 147.305 223.069 146.988C222.873 146.661 222.621 146.405 222.313 146.218C222.015 146.031 221.679 145.938 221.305 145.938C220.932 145.938 220.591 146.031 220.283 146.218C219.975 146.395 219.719 146.647 219.513 146.974C219.317 147.291 219.187 147.66 219.121 148.08Z" fill="#4D4D4D"/>
<path d="M115.973 180.539C116.256 180.264 116.714 180.264 116.994 180.539L121.089 184.504C121.375 184.779 121.375 185.222 121.092 185.496L116.997 189.46C116.714 189.735 116.255 189.735 115.975 189.46L115.296 188.802C115.013 188.528 115.013 188.085 115.296 187.814L118.198 185.002L115.296 182.192C115.013 181.918 115.013 181.475 115.296 181.204L115.973 180.539Z" fill="#707070"/>
<path d="M139.78 189V180.152H136.392V179.2H144.246V180.152H140.858V189H139.78ZM145.062 189V182.168H146.084V183.568C146.261 183.092 146.513 182.723 146.84 182.462C147.176 182.191 147.558 182.056 147.988 182.056C148.109 182.056 148.221 182.065 148.324 182.084C148.426 182.093 148.529 182.117 148.632 182.154V183.078C148.52 183.041 148.398 183.013 148.268 182.994C148.146 182.966 148.03 182.952 147.918 182.952C147.498 182.952 147.129 183.073 146.812 183.316C146.504 183.559 146.261 183.899 146.084 184.338V189H145.062ZM152.64 189.14C152.005 189.14 151.431 188.986 150.918 188.678C150.404 188.361 149.998 187.936 149.7 187.404C149.401 186.863 149.252 186.256 149.252 185.584C149.252 184.912 149.392 184.31 149.672 183.778C149.961 183.246 150.348 182.826 150.834 182.518C151.319 182.21 151.86 182.056 152.458 182.056C153.064 182.056 153.601 182.21 154.068 182.518C154.544 182.817 154.917 183.227 155.188 183.75C155.468 184.263 155.608 184.847 155.608 185.5V185.808H150.246C150.283 186.275 150.409 186.695 150.624 187.068C150.848 187.432 151.137 187.721 151.492 187.936C151.856 188.141 152.252 188.244 152.682 188.244C153.036 188.244 153.377 188.183 153.704 188.062C154.04 187.931 154.324 187.759 154.558 187.544L155.202 188.23C154.81 188.538 154.404 188.767 153.984 188.916C153.564 189.065 153.116 189.14 152.64 189.14ZM150.274 185.08H154.6C154.553 184.669 154.427 184.305 154.222 183.988C154.026 183.661 153.774 183.405 153.466 183.218C153.167 183.031 152.831 182.938 152.458 182.938C152.084 182.938 151.744 183.031 151.436 183.218C151.128 183.395 150.871 183.647 150.666 183.974C150.47 184.291 150.339 184.66 150.274 185.08ZM160.433 189.14C159.798 189.14 159.224 188.986 158.711 188.678C158.197 188.361 157.791 187.936 157.493 187.404C157.194 186.863 157.045 186.256 157.045 185.584C157.045 184.912 157.185 184.31 157.465 183.778C157.754 183.246 158.141 182.826 158.627 182.518C159.112 182.21 159.653 182.056 160.251 182.056C160.857 182.056 161.394 182.21 161.861 182.518C162.337 182.817 162.71 183.227 162.981 183.75C163.261 184.263 163.401 184.847 163.401 185.5V185.808H158.039C158.076 186.275 158.202 186.695 158.417 187.068C158.641 187.432 158.93 187.721 159.285 187.936C159.649 188.141 160.045 188.244 160.475 188.244C160.829 188.244 161.17 188.183 161.497 188.062C161.833 187.931 162.117 187.759 162.351 187.544L162.995 188.23C162.603 188.538 162.197 188.767 161.777 188.916C161.357 189.065 160.909 189.14 160.433 189.14ZM158.067 185.08H162.393C162.346 184.669 162.22 184.305 162.015 183.988C161.819 183.661 161.567 183.405 161.259 183.218C160.96 183.031 160.624 182.938 160.251 182.938C159.877 182.938 159.537 183.031 159.229 183.218C158.921 183.395 158.664 183.647 158.459 183.974C158.263 184.291 158.132 184.66 158.067 185.08ZM168.413 189V182.168H169.435V183.274C169.697 182.863 170.009 182.56 170.373 182.364C170.737 182.159 171.148 182.056 171.605 182.056C172.1 182.056 172.529 182.163 172.893 182.378C173.267 182.583 173.556 182.877 173.761 183.26C173.976 183.633 174.083 184.072 174.083 184.576V189H173.061V184.87C173.061 184.263 172.893 183.787 172.557 183.442C172.231 183.087 171.787 182.91 171.227 182.91C170.854 182.91 170.513 182.999 170.205 183.176C169.897 183.353 169.641 183.615 169.435 183.96V189H168.413ZM179.162 189.112C178.527 189.112 177.958 188.958 177.454 188.65C176.95 188.342 176.553 187.922 176.264 187.39C175.975 186.858 175.83 186.256 175.83 185.584C175.83 184.912 175.975 184.31 176.264 183.778C176.553 183.246 176.95 182.826 177.454 182.518C177.958 182.21 178.527 182.056 179.162 182.056C179.787 182.056 180.347 182.21 180.842 182.518C181.346 182.826 181.743 183.246 182.032 183.778C182.321 184.31 182.466 184.912 182.466 185.584C182.466 186.256 182.321 186.858 182.032 187.39C181.743 187.922 181.346 188.342 180.842 188.65C180.347 188.958 179.787 189.112 179.162 189.112ZM179.148 188.216C179.596 188.216 179.993 188.104 180.338 187.88C180.683 187.647 180.954 187.329 181.15 186.928C181.355 186.527 181.458 186.079 181.458 185.584C181.458 185.08 181.355 184.632 181.15 184.24C180.954 183.839 180.683 183.526 180.338 183.302C179.993 183.069 179.596 182.952 179.148 182.952C178.7 182.952 178.303 183.069 177.958 183.302C177.613 183.526 177.337 183.839 177.132 184.24C176.936 184.632 176.838 185.08 176.838 185.584C176.838 186.079 176.936 186.527 177.132 186.928C177.337 187.329 177.613 187.647 177.958 187.88C178.303 188.104 178.7 188.216 179.148 188.216ZM187.101 189.098C186.513 189.098 185.981 188.944 185.505 188.636C185.029 188.319 184.651 187.899 184.371 187.376C184.091 186.844 183.951 186.251 183.951 185.598C183.951 184.935 184.091 184.343 184.371 183.82C184.66 183.288 185.048 182.868 185.533 182.56C186.018 182.243 186.56 182.084 187.157 182.084C187.577 182.084 187.969 182.168 188.333 182.336C188.697 182.495 189.014 182.728 189.285 183.036V178.892L190.307 178.682V189H189.285V188.09C189.024 188.417 188.706 188.669 188.333 188.846C187.96 189.014 187.549 189.098 187.101 189.098ZM187.353 188.202C187.754 188.202 188.123 188.123 188.459 187.964C188.795 187.805 189.07 187.581 189.285 187.292V183.904C189.061 183.615 188.776 183.391 188.431 183.232C188.095 183.064 187.736 182.98 187.353 182.98C186.896 182.98 186.485 183.092 186.121 183.316C185.766 183.54 185.482 183.848 185.267 184.24C185.062 184.632 184.959 185.08 184.959 185.584C184.959 186.079 185.062 186.527 185.267 186.928C185.482 187.32 185.766 187.633 186.121 187.866C186.485 188.09 186.896 188.202 187.353 188.202ZM195.487 189.14C194.853 189.14 194.279 188.986 193.765 188.678C193.252 188.361 192.846 187.936 192.547 187.404C192.249 186.863 192.099 186.256 192.099 185.584C192.099 184.912 192.239 184.31 192.519 183.778C192.809 183.246 193.196 182.826 193.681 182.518C194.167 182.21 194.708 182.056 195.305 182.056C195.912 182.056 196.449 182.21 196.915 182.518C197.391 182.817 197.765 183.227 198.035 183.75C198.315 184.263 198.455 184.847 198.455 185.5V185.808H193.093C193.131 186.275 193.257 186.695 193.471 187.068C193.695 187.432 193.985 187.721 194.339 187.936C194.703 188.141 195.1 188.244 195.529 188.244C195.884 188.244 196.225 188.183 196.551 188.062C196.887 187.931 197.172 187.759 197.405 187.544L198.049 188.23C197.657 188.538 197.251 188.767 196.831 188.916C196.411 189.065 195.963 189.14 195.487 189.14ZM193.121 185.08H197.447C197.401 184.669 197.275 184.305 197.069 183.988C196.873 183.661 196.621 183.405 196.313 183.218C196.015 183.031 195.679 182.938 195.305 182.938C194.932 182.938 194.591 183.031 194.283 183.218C193.975 183.395 193.719 183.647 193.513 183.974C193.317 184.291 193.187 184.66 193.121 185.08Z" fill="#4D4D4D"/>
<path d="M87.9725 217.539C88.2556 217.264 88.714 217.264 88.994 217.539L93.0887 221.504C93.3745 221.779 93.3746 222.222 93.0917 222.496L88.9969 226.46C88.7139 226.735 88.2555 226.735 87.9754 226.46L87.2958 225.802C87.0128 225.528 87.0128 225.085 87.2958 224.814L90.1981 222.002L87.2958 219.192C87.0127 218.918 87.0127 218.475 87.2958 218.204L87.9725 217.539Z" fill="#707070"/>
<path d="M111.78 226V217.152H108.392V216.2H116.246V217.152H112.858V226H111.78ZM117.062 226V219.168H118.084V220.568C118.261 220.092 118.513 219.723 118.84 219.462C119.176 219.191 119.558 219.056 119.988 219.056C120.109 219.056 120.221 219.065 120.324 219.084C120.426 219.093 120.529 219.117 120.632 219.154V220.078C120.52 220.041 120.398 220.013 120.268 219.994C120.146 219.966 120.03 219.952 119.918 219.952C119.498 219.952 119.129 220.073 118.812 220.316C118.504 220.559 118.261 220.899 118.084 221.338V226H117.062ZM124.64 226.14C124.005 226.14 123.431 225.986 122.918 225.678C122.404 225.361 121.998 224.936 121.7 224.404C121.401 223.863 121.252 223.256 121.252 222.584C121.252 221.912 121.392 221.31 121.672 220.778C121.961 220.246 122.348 219.826 122.834 219.518C123.319 219.21 123.86 219.056 124.458 219.056C125.064 219.056 125.601 219.21 126.068 219.518C126.544 219.817 126.917 220.227 127.188 220.75C127.468 221.263 127.608 221.847 127.608 222.5V222.808H122.246C122.283 223.275 122.409 223.695 122.624 224.068C122.848 224.432 123.137 224.721 123.492 224.936C123.856 225.141 124.252 225.244 124.682 225.244C125.036 225.244 125.377 225.183 125.704 225.062C126.04 224.931 126.324 224.759 126.558 224.544L127.202 225.23C126.81 225.538 126.404 225.767 125.984 225.916C125.564 226.065 125.116 226.14 124.64 226.14ZM122.274 222.08H126.6C126.553 221.669 126.427 221.305 126.222 220.988C126.026 220.661 125.774 220.405 125.466 220.218C125.167 220.031 124.831 219.938 124.458 219.938C124.084 219.938 123.744 220.031 123.436 220.218C123.128 220.395 122.871 220.647 122.666 220.974C122.47 221.291 122.339 221.66 122.274 222.08ZM132.433 226.14C131.798 226.14 131.224 225.986 130.711 225.678C130.197 225.361 129.791 224.936 129.493 224.404C129.194 223.863 129.045 223.256 129.045 222.584C129.045 221.912 129.185 221.31 129.465 220.778C129.754 220.246 130.141 219.826 130.627 219.518C131.112 219.21 131.653 219.056 132.251 219.056C132.857 219.056 133.394 219.21 133.861 219.518C134.337 219.817 134.71 220.227 134.981 220.75C135.261 221.263 135.401 221.847 135.401 222.5V222.808H130.039C130.076 223.275 130.202 223.695 130.417 224.068C130.641 224.432 130.93 224.721 131.285 224.936C131.649 225.141 132.045 225.244 132.475 225.244C132.829 225.244 133.17 225.183 133.497 225.062C133.833 224.931 134.117 224.759 134.351 224.544L134.995 225.23C134.603 225.538 134.197 225.767 133.777 225.916C133.357 226.065 132.909 226.14 132.433 226.14ZM130.067 222.08H134.393C134.346 221.669 134.22 221.305 134.015 220.988C133.819 220.661 133.567 220.405 133.259 220.218C132.96 220.031 132.624 219.938 132.251 219.938C131.877 219.938 131.537 220.031 131.229 220.218C130.921 220.395 130.664 220.647 130.459 220.974C130.263 221.291 130.132 221.66 130.067 222.08ZM140.413 226V219.168H141.435V220.274C141.697 219.863 142.009 219.56 142.373 219.364C142.737 219.159 143.148 219.056 143.605 219.056C144.1 219.056 144.529 219.163 144.893 219.378C145.267 219.583 145.556 219.877 145.761 220.26C145.976 220.633 146.083 221.072 146.083 221.576V226H145.061V221.87C145.061 221.263 144.893 220.787 144.557 220.442C144.231 220.087 143.787 219.91 143.227 219.91C142.854 219.91 142.513 219.999 142.205 220.176C141.897 220.353 141.641 220.615 141.435 220.96V226H140.413ZM151.162 226.112C150.527 226.112 149.958 225.958 149.454 225.65C148.95 225.342 148.553 224.922 148.264 224.39C147.975 223.858 147.83 223.256 147.83 222.584C147.83 221.912 147.975 221.31 148.264 220.778C148.553 220.246 148.95 219.826 149.454 219.518C149.958 219.21 150.527 219.056 151.162 219.056C151.787 219.056 152.347 219.21 152.842 219.518C153.346 219.826 153.743 220.246 154.032 220.778C154.321 221.31 154.466 221.912 154.466 222.584C154.466 223.256 154.321 223.858 154.032 224.39C153.743 224.922 153.346 225.342 152.842 225.65C152.347 225.958 151.787 226.112 151.162 226.112ZM151.148 225.216C151.596 225.216 151.993 225.104 152.338 224.88C152.683 224.647 152.954 224.329 153.15 223.928C153.355 223.527 153.458 223.079 153.458 222.584C153.458 222.08 153.355 221.632 153.15 221.24C152.954 220.839 152.683 220.526 152.338 220.302C151.993 220.069 151.596 219.952 151.148 219.952C150.7 219.952 150.303 220.069 149.958 220.302C149.613 220.526 149.337 220.839 149.132 221.24C148.936 221.632 148.838 222.08 148.838 222.584C148.838 223.079 148.936 223.527 149.132 223.928C149.337 224.329 149.613 224.647 149.958 224.88C150.303 225.104 150.7 225.216 151.148 225.216ZM159.101 226.098C158.513 226.098 157.981 225.944 157.505 225.636C157.029 225.319 156.651 224.899 156.371 224.376C156.091 223.844 155.951 223.251 155.951 222.598C155.951 221.935 156.091 221.343 156.371 220.82C156.66 220.288 157.048 219.868 157.533 219.56C158.018 219.243 158.56 219.084 159.157 219.084C159.577 219.084 159.969 219.168 160.333 219.336C160.697 219.495 161.014 219.728 161.285 220.036V215.892L162.307 215.682V226H161.285V225.09C161.024 225.417 160.706 225.669 160.333 225.846C159.96 226.014 159.549 226.098 159.101 226.098ZM159.353 225.202C159.754 225.202 160.123 225.123 160.459 224.964C160.795 224.805 161.07 224.581 161.285 224.292V220.904C161.061 220.615 160.776 220.391 160.431 220.232C160.095 220.064 159.736 219.98 159.353 219.98C158.896 219.98 158.485 220.092 158.121 220.316C157.766 220.54 157.482 220.848 157.267 221.24C157.062 221.632 156.959 222.08 156.959 222.584C156.959 223.079 157.062 223.527 157.267 223.928C157.482 224.32 157.766 224.633 158.121 224.866C158.485 225.09 158.896 225.202 159.353 225.202ZM167.487 226.14C166.853 226.14 166.279 225.986 165.765 225.678C165.252 225.361 164.846 224.936 164.547 224.404C164.249 223.863 164.099 223.256 164.099 222.584C164.099 221.912 164.239 221.31 164.519 220.778C164.809 220.246 165.196 219.826 165.681 219.518C166.167 219.21 166.708 219.056 167.305 219.056C167.912 219.056 168.449 219.21 168.915 219.518C169.391 219.817 169.765 220.227 170.035 220.75C170.315 221.263 170.455 221.847 170.455 222.5V222.808H165.093C165.131 223.275 165.257 223.695 165.471 224.068C165.695 224.432 165.985 224.721 166.339 224.936C166.703 225.141 167.1 225.244 167.529 225.244C167.884 225.244 168.225 225.183 168.551 225.062C168.887 224.931 169.172 224.759 169.405 224.544L170.049 225.23C169.657 225.538 169.251 225.767 168.831 225.916C168.411 226.065 167.963 226.14 167.487 226.14ZM165.121 222.08H169.447C169.401 221.669 169.275 221.305 169.069 220.988C168.873 220.661 168.621 220.405 168.313 220.218C168.015 220.031 167.679 219.938 167.305 219.938C166.932 219.938 166.591 220.031 166.283 220.218C165.975 220.395 165.719 220.647 165.513 220.974C165.317 221.291 165.187 221.66 165.121 222.08Z" fill="#4D4D4D"/>
<path d="M87.9725 254.539C88.2556 254.264 88.714 254.264 88.994 254.539L93.0887 258.504C93.3745 258.779 93.3746 259.222 93.0917 259.496L88.9969 263.46C88.7139 263.735 88.2555 263.735 87.9754 263.46L87.2958 262.802C87.0128 262.528 87.0128 262.085 87.2958 261.814L90.1981 259.002L87.2958 256.192C87.0127 255.918 87.0127 255.475 87.2958 255.204L87.9725 254.539Z" fill="#707070"/>
<path d="M109.246 263V253.2H113.264C113.889 253.2 114.435 253.321 114.902 253.564C115.369 253.797 115.733 254.124 115.994 254.544C116.255 254.964 116.386 255.459 116.386 256.028C116.386 256.681 116.204 257.241 115.84 257.708C115.476 258.165 114.977 258.487 114.342 258.674L116.428 263H115.238L113.25 258.814H110.324V263H109.246ZM110.324 257.918H113.18C113.824 257.918 114.337 257.75 114.72 257.414C115.112 257.069 115.308 256.611 115.308 256.042C115.308 255.463 115.112 255.006 114.72 254.67C114.337 254.325 113.824 254.152 113.18 254.152H110.324V257.918ZM120.839 263.14C120.204 263.14 119.63 262.986 119.117 262.678C118.604 262.361 118.198 261.936 117.899 261.404C117.6 260.863 117.451 260.256 117.451 259.584C117.451 258.912 117.591 258.31 117.871 257.778C118.16 257.246 118.548 256.826 119.033 256.518C119.518 256.21 120.06 256.056 120.657 256.056C121.264 256.056 121.8 256.21 122.267 256.518C122.743 256.817 123.116 257.227 123.387 257.75C123.667 258.263 123.807 258.847 123.807 259.5V259.808H118.445C118.482 260.275 118.608 260.695 118.823 261.068C119.047 261.432 119.336 261.721 119.691 261.936C120.055 262.141 120.452 262.244 120.881 262.244C121.236 262.244 121.576 262.183 121.903 262.062C122.239 261.931 122.524 261.759 122.757 261.544L123.401 262.23C123.009 262.538 122.603 262.767 122.183 262.916C121.763 263.065 121.315 263.14 120.839 263.14ZM118.473 259.08H122.799C122.752 258.669 122.626 258.305 122.421 257.988C122.225 257.661 121.973 257.405 121.665 257.218C121.366 257.031 121.03 256.938 120.657 256.938C120.284 256.938 119.943 257.031 119.635 257.218C119.327 257.395 119.07 257.647 118.865 257.974C118.669 258.291 118.538 258.66 118.473 259.08ZM127.529 263.126C127.044 263.126 126.615 263.037 126.241 262.86C125.868 262.683 125.574 262.44 125.359 262.132C125.154 261.815 125.051 261.451 125.051 261.04C125.051 260.629 125.159 260.275 125.373 259.976C125.588 259.668 125.887 259.43 126.269 259.262C126.652 259.094 127.1 259.01 127.613 259.01C128.005 259.01 128.374 259.052 128.719 259.136C129.074 259.22 129.401 259.355 129.699 259.542V258.604C129.699 258.044 129.55 257.624 129.251 257.344C128.953 257.055 128.514 256.91 127.935 256.91C127.618 256.91 127.291 256.957 126.955 257.05C126.629 257.143 126.265 257.293 125.863 257.498L125.485 256.714C126.4 256.275 127.259 256.056 128.061 256.056C128.911 256.056 129.564 256.266 130.021 256.686C130.479 257.097 130.707 257.689 130.707 258.464V263H129.699V262.202C129.401 262.51 129.069 262.743 128.705 262.902C128.341 263.051 127.949 263.126 127.529 263.126ZM126.031 261.012C126.031 261.413 126.185 261.735 126.493 261.978C126.811 262.221 127.226 262.342 127.739 262.342C128.122 262.342 128.472 262.277 128.789 262.146C129.116 262.015 129.419 261.819 129.699 261.558V260.242C129.41 260.074 129.111 259.953 128.803 259.878C128.495 259.794 128.15 259.752 127.767 259.752C127.245 259.752 126.825 259.869 126.507 260.102C126.19 260.326 126.031 260.629 126.031 261.012ZM132.784 263V252.892L133.806 252.682V263H132.784ZM135.902 263V252.892L136.924 252.682V263H135.902ZM139.313 266.066C139.098 266.066 138.879 266.033 138.655 265.968V265.058C138.748 265.077 138.846 265.091 138.949 265.1C139.051 265.109 139.14 265.114 139.215 265.114C139.476 265.114 139.691 265.044 139.859 264.904C140.036 264.764 140.185 264.545 140.307 264.246L140.811 263L138.179 256.168H139.313L141.385 261.782L143.583 256.168H144.717L141.273 264.554C141.123 264.918 140.96 265.212 140.783 265.436C140.605 265.66 140.4 265.819 140.167 265.912C139.933 266.015 139.649 266.066 139.313 266.066ZM149.259 263V256.168H150.281V257.568C150.458 257.092 150.71 256.723 151.037 256.462C151.373 256.191 151.756 256.056 152.185 256.056C152.306 256.056 152.418 256.065 152.521 256.084C152.624 256.093 152.726 256.117 152.829 256.154V257.078C152.717 257.041 152.596 257.013 152.465 256.994C152.344 256.966 152.227 256.952 152.115 256.952C151.695 256.952 151.326 257.073 151.009 257.316C150.701 257.559 150.458 257.899 150.281 258.338V263H149.259ZM156.837 263.14C156.202 263.14 155.628 262.986 155.115 262.678C154.602 262.361 154.196 261.936 153.897 261.404C153.598 260.863 153.449 260.256 153.449 259.584C153.449 258.912 153.589 258.31 153.869 257.778C154.158 257.246 154.546 256.826 155.031 256.518C155.516 256.21 156.058 256.056 156.655 256.056C157.262 256.056 157.798 256.21 158.265 256.518C158.741 256.817 159.114 257.227 159.385 257.75C159.665 258.263 159.805 258.847 159.805 259.5V259.808H154.443C154.48 260.275 154.606 260.695 154.821 261.068C155.045 261.432 155.334 261.721 155.689 261.936C156.053 262.141 156.45 262.244 156.879 262.244C157.234 262.244 157.574 262.183 157.901 262.062C158.237 261.931 158.522 261.759 158.755 261.544L159.399 262.23C159.007 262.538 158.601 262.767 158.181 262.916C157.761 263.065 157.313 263.14 156.837 263.14ZM154.471 259.08H158.797C158.75 258.669 158.624 258.305 158.419 257.988C158.223 257.661 157.971 257.405 157.663 257.218C157.364 257.031 157.028 256.938 156.655 256.938C156.282 256.938 155.941 257.031 155.633 257.218C155.325 257.395 155.068 257.647 154.863 257.974C154.667 258.291 154.536 258.66 154.471 259.08ZM163.527 263.126C163.042 263.126 162.613 263.037 162.239 262.86C161.866 262.683 161.572 262.44 161.357 262.132C161.152 261.815 161.049 261.451 161.049 261.04C161.049 260.629 161.157 260.275 161.371 259.976C161.586 259.668 161.885 259.43 162.267 259.262C162.65 259.094 163.098 259.01 163.611 259.01C164.003 259.01 164.372 259.052 164.717 259.136C165.072 259.22 165.399 259.355 165.697 259.542V258.604C165.697 258.044 165.548 257.624 165.249 257.344C164.951 257.055 164.512 256.91 163.933 256.91C163.616 256.91 163.289 256.957 162.953 257.05C162.627 257.143 162.263 257.293 161.861 257.498L161.483 256.714C162.398 256.275 163.257 256.056 164.059 256.056C164.909 256.056 165.562 256.266 166.019 256.686C166.477 257.097 166.705 257.689 166.705 258.464V263H165.697V262.202C165.399 262.51 165.067 262.743 164.703 262.902C164.339 263.051 163.947 263.126 163.527 263.126ZM162.029 261.012C162.029 261.413 162.183 261.735 162.491 261.978C162.809 262.221 163.224 262.342 163.737 262.342C164.12 262.342 164.47 262.277 164.787 262.146C165.114 262.015 165.417 261.819 165.697 261.558V260.242C165.408 260.074 165.109 259.953 164.801 259.878C164.493 259.794 164.148 259.752 163.765 259.752C163.243 259.752 162.823 259.869 162.505 260.102C162.188 260.326 162.029 260.629 162.029 261.012ZM168.782 263V252.892L169.804 252.682V263H168.782ZM171.9 263V252.892L172.922 252.682V263H171.9ZM175.311 266.066C175.096 266.066 174.877 266.033 174.653 265.968V265.058C174.746 265.077 174.844 265.091 174.947 265.1C175.049 265.109 175.138 265.114 175.213 265.114C175.474 265.114 175.689 265.044 175.857 264.904C176.034 264.764 176.183 264.545 176.305 264.246L176.809 263L174.177 256.168H175.311L177.383 261.782L179.581 256.168H180.715L177.271 264.554C177.121 264.918 176.958 265.212 176.781 265.436C176.603 265.66 176.398 265.819 176.165 265.912C175.931 266.015 175.647 266.066 175.311 266.066ZM185.257 263V252.892L186.279 252.682V263H185.257ZM191.398 263.112C190.764 263.112 190.194 262.958 189.69 262.65C189.186 262.342 188.79 261.922 188.5 261.39C188.211 260.858 188.066 260.256 188.066 259.584C188.066 258.912 188.211 258.31 188.5 257.778C188.79 257.246 189.186 256.826 189.69 256.518C190.194 256.21 190.764 256.056 191.398 256.056C192.024 256.056 192.584 256.21 193.078 256.518C193.582 256.826 193.979 257.246 194.268 257.778C194.558 258.31 194.702 258.912 194.702 259.584C194.702 260.256 194.558 260.858 194.268 261.39C193.979 261.922 193.582 262.342 193.078 262.65C192.584 262.958 192.024 263.112 191.398 263.112ZM191.384 262.216C191.832 262.216 192.229 262.104 192.574 261.88C192.92 261.647 193.19 261.329 193.386 260.928C193.592 260.527 193.694 260.079 193.694 259.584C193.694 259.08 193.592 258.632 193.386 258.24C193.19 257.839 192.92 257.526 192.574 257.302C192.229 257.069 191.832 256.952 191.384 256.952C190.936 256.952 190.54 257.069 190.194 257.302C189.849 257.526 189.574 257.839 189.368 258.24C189.172 258.632 189.074 259.08 189.074 259.584C189.074 260.079 189.172 260.527 189.368 260.928C189.574 261.329 189.849 261.647 190.194 261.88C190.54 262.104 190.936 262.216 191.384 262.216ZM196.495 263V256.168H197.517V257.274C197.779 256.863 198.091 256.56 198.455 256.364C198.819 256.159 199.23 256.056 199.687 256.056C200.182 256.056 200.611 256.163 200.975 256.378C201.349 256.583 201.638 256.877 201.843 257.26C202.058 257.633 202.165 258.072 202.165 258.576V263H201.143V258.87C201.143 258.263 200.975 257.787 200.639 257.442C200.313 257.087 199.869 256.91 199.309 256.91C198.936 256.91 198.595 256.999 198.287 257.176C197.979 257.353 197.723 257.615 197.517 257.96V263H196.495ZM207.384 266.066C206.927 266.066 206.465 266.001 205.998 265.87C205.541 265.749 205.116 265.576 204.724 265.352L205.158 264.568C205.578 264.783 205.961 264.941 206.306 265.044C206.651 265.147 206.997 265.198 207.342 265.198C207.967 265.198 208.439 265.049 208.756 264.75C209.083 264.451 209.246 264.017 209.246 263.448V262.076C208.985 262.403 208.667 262.655 208.294 262.832C207.921 263 207.51 263.084 207.062 263.084C206.474 263.084 205.942 262.93 205.466 262.622C204.99 262.305 204.612 261.885 204.332 261.362C204.052 260.83 203.912 260.237 203.912 259.584C203.912 258.931 204.052 258.343 204.332 257.82C204.621 257.288 205.009 256.868 205.494 256.56C205.979 256.243 206.521 256.084 207.118 256.084C207.547 256.084 207.944 256.168 208.308 256.336C208.672 256.495 208.989 256.733 209.26 257.05V256.168H210.268V263.434C210.268 264.283 210.021 264.932 209.526 265.38C209.031 265.837 208.317 266.066 207.384 266.066ZM207.314 262.202C207.715 262.202 208.084 262.123 208.42 261.964C208.756 261.796 209.031 261.567 209.246 261.278V257.904C209.022 257.615 208.737 257.391 208.392 257.232C208.056 257.064 207.697 256.98 207.314 256.98C206.857 256.98 206.446 257.092 206.082 257.316C205.727 257.54 205.443 257.848 205.228 258.24C205.023 258.632 204.92 259.08 204.92 259.584C204.92 260.079 205.023 260.527 205.228 260.928C205.443 261.32 205.727 261.633 206.082 261.866C206.446 262.09 206.857 262.202 207.314 262.202ZM216.504 263V257.008H214.978V256.168H216.504V254.74C216.504 254.068 216.681 253.55 217.036 253.186C217.391 252.822 217.895 252.64 218.548 252.64C218.735 252.64 218.903 252.649 219.052 252.668C219.211 252.687 219.351 252.719 219.472 252.766V253.69C219.323 253.643 219.187 253.611 219.066 253.592C218.945 253.573 218.805 253.564 218.646 253.564C218.254 253.564 217.969 253.662 217.792 253.858C217.615 254.045 217.526 254.343 217.526 254.754V256.168H219.472V257.008H217.526V263H216.504ZM223.554 263.112C222.92 263.112 222.35 262.958 221.846 262.65C221.342 262.342 220.946 261.922 220.656 261.39C220.367 260.858 220.222 260.256 220.222 259.584C220.222 258.912 220.367 258.31 220.656 257.778C220.946 257.246 221.342 256.826 221.846 256.518C222.35 256.21 222.92 256.056 223.554 256.056C224.18 256.056 224.74 256.21 225.234 256.518C225.738 256.826 226.135 257.246 226.424 257.778C226.714 258.31 226.858 258.912 226.858 259.584C226.858 260.256 226.714 260.858 226.424 261.39C226.135 261.922 225.738 262.342 225.234 262.65C224.74 262.958 224.18 263.112 223.554 263.112ZM223.54 262.216C223.988 262.216 224.385 262.104 224.73 261.88C225.076 261.647 225.346 261.329 225.542 260.928C225.748 260.527 225.85 260.079 225.85 259.584C225.85 259.08 225.748 258.632 225.542 258.24C225.346 257.839 225.076 257.526 224.73 257.302C224.385 257.069 223.988 256.952 223.54 256.952C223.092 256.952 222.696 257.069 222.35 257.302C222.005 257.526 221.73 257.839 221.524 258.24C221.328 258.632 221.23 259.08 221.23 259.584C221.23 260.079 221.328 260.527 221.524 260.928C221.73 261.329 222.005 261.647 222.35 261.88C222.696 262.104 223.092 262.216 223.54 262.216ZM228.652 263V252.892L229.674 252.682V263H228.652ZM234.611 263.098C234.023 263.098 233.491 262.944 233.015 262.636C232.539 262.319 232.161 261.899 231.881 261.376C231.601 260.844 231.461 260.251 231.461 259.598C231.461 258.935 231.601 258.343 231.881 257.82C232.17 257.288 232.557 256.868 233.043 256.56C233.528 256.243 234.069 256.084 234.667 256.084C235.087 256.084 235.479 256.168 235.843 256.336C236.207 256.495 236.524 256.728 236.795 257.036V252.892L237.817 252.682V263H236.795V262.09C236.533 262.417 236.216 262.669 235.843 262.846C235.469 263.014 235.059 263.098 234.611 263.098ZM234.863 262.202C235.264 262.202 235.633 262.123 235.969 261.964C236.305 261.805 236.58 261.581 236.795 261.292V257.904C236.571 257.615 236.286 257.391 235.941 257.232C235.605 257.064 235.245 256.98 234.863 256.98C234.405 256.98 233.995 257.092 233.631 257.316C233.276 257.54 232.991 257.848 232.777 258.24C232.571 258.632 232.469 259.08 232.469 259.584C232.469 260.079 232.571 260.527 232.777 260.928C232.991 261.32 233.276 261.633 233.631 261.866C233.995 262.09 234.405 262.202 234.863 262.202ZM242.997 263.14C242.363 263.14 241.789 262.986 241.275 262.678C240.762 262.361 240.356 261.936 240.057 261.404C239.759 260.863 239.609 260.256 239.609 259.584C239.609 258.912 239.749 258.31 240.029 257.778C240.319 257.246 240.706 256.826 241.191 256.518C241.677 256.21 242.218 256.056 242.815 256.056C243.422 256.056 243.959 256.21 244.425 256.518C244.901 256.817 245.275 257.227 245.545 257.75C245.825 258.263 245.965 258.847 245.965 259.5V259.808H240.603C240.641 260.275 240.767 260.695 240.981 261.068C241.205 261.432 241.495 261.721 241.849 261.936C242.213 262.141 242.61 262.244 243.039 262.244C243.394 262.244 243.735 262.183 244.061 262.062C244.397 261.931 244.682 261.759 244.915 261.544L245.559 262.23C245.167 262.538 244.761 262.767 244.341 262.916C243.921 263.065 243.473 263.14 242.997 263.14ZM240.631 259.08H244.957C244.911 258.669 244.785 258.305 244.579 257.988C244.383 257.661 244.131 257.405 243.823 257.218C243.525 257.031 243.189 256.938 242.815 256.938C242.442 256.938 242.101 257.031 241.793 257.218C241.485 257.395 241.229 257.647 241.023 257.974C240.827 258.291 240.697 258.66 240.631 259.08ZM247.71 263V256.168H248.732V257.568C248.909 257.092 249.161 256.723 249.488 256.462C249.824 256.191 250.207 256.056 250.636 256.056C250.757 256.056 250.869 256.065 250.972 256.084C251.075 256.093 251.177 256.117 251.28 256.154V257.078C251.168 257.041 251.047 257.013 250.916 256.994C250.795 256.966 250.678 256.952 250.566 256.952C250.146 256.952 249.777 257.073 249.46 257.316C249.152 257.559 248.909 257.899 248.732 258.338V263H247.71ZM255.9 263V256.168H256.922V257.274C257.183 256.863 257.496 256.56 257.86 256.364C258.224 256.159 258.634 256.056 259.092 256.056C259.586 256.056 260.016 256.163 260.38 256.378C260.753 256.583 261.042 256.877 261.248 257.26C261.462 257.633 261.57 258.072 261.57 258.576V263H260.548V258.87C260.548 258.263 260.38 257.787 260.044 257.442C259.717 257.087 259.274 256.91 258.714 256.91C258.34 256.91 258 256.999 257.692 257.176C257.384 257.353 257.127 257.615 256.922 257.96V263H255.9ZM265.738 263.126C265.253 263.126 264.824 263.037 264.45 262.86C264.077 262.683 263.783 262.44 263.568 262.132C263.363 261.815 263.26 261.451 263.26 261.04C263.26 260.629 263.368 260.275 263.582 259.976C263.797 259.668 264.096 259.43 264.478 259.262C264.861 259.094 265.309 259.01 265.822 259.01C266.214 259.01 266.583 259.052 266.928 259.136C267.283 259.22 267.61 259.355 267.908 259.542V258.604C267.908 258.044 267.759 257.624 267.46 257.344C267.162 257.055 266.723 256.91 266.144 256.91C265.827 256.91 265.5 256.957 265.164 257.05C264.838 257.143 264.474 257.293 264.072 257.498L263.694 256.714C264.609 256.275 265.468 256.056 266.27 256.056C267.12 256.056 267.773 256.266 268.23 256.686C268.688 257.097 268.916 257.689 268.916 258.464V263H267.908V262.202C267.61 262.51 267.278 262.743 266.914 262.902C266.55 263.051 266.158 263.126 265.738 263.126ZM264.24 261.012C264.24 261.413 264.394 261.735 264.702 261.978C265.02 262.221 265.435 262.342 265.948 262.342C266.331 262.342 266.681 262.277 266.998 262.146C267.325 262.015 267.628 261.819 267.908 261.558V260.242C267.619 260.074 267.32 259.953 267.012 259.878C266.704 259.794 266.359 259.752 265.976 259.752C265.454 259.752 265.034 259.869 264.716 260.102C264.399 260.326 264.24 260.629 264.24 261.012ZM270.993 263V256.168H272.015V257.232C272.277 256.84 272.575 256.546 272.911 256.35C273.247 256.154 273.625 256.056 274.045 256.056C274.531 256.056 274.955 256.177 275.319 256.42C275.683 256.653 275.959 256.975 276.145 257.386C276.416 256.947 276.738 256.616 277.111 256.392C277.494 256.168 277.933 256.056 278.427 256.056C278.885 256.056 279.286 256.163 279.631 256.378C279.986 256.593 280.261 256.891 280.457 257.274C280.653 257.647 280.751 258.086 280.751 258.59V263H279.729V258.842C279.729 258.245 279.58 257.773 279.281 257.428C278.983 257.083 278.572 256.91 278.049 256.91C277.695 256.91 277.373 256.999 277.083 257.176C276.803 257.353 276.556 257.624 276.341 257.988C276.36 258.081 276.374 258.179 276.383 258.282C276.393 258.385 276.397 258.487 276.397 258.59V263H275.375V258.842C275.375 258.245 275.221 257.773 274.913 257.428C274.615 257.083 274.204 256.91 273.681 256.91C272.981 256.91 272.426 257.246 272.015 257.918V263H270.993ZM285.9 263.14C285.265 263.14 284.691 262.986 284.178 262.678C283.664 262.361 283.258 261.936 282.96 261.404C282.661 260.863 282.512 260.256 282.512 259.584C282.512 258.912 282.652 258.31 282.932 257.778C283.221 257.246 283.608 256.826 284.094 256.518C284.579 256.21 285.12 256.056 285.718 256.056C286.324 256.056 286.861 256.21 287.328 256.518C287.804 256.817 288.177 257.227 288.448 257.75C288.728 258.263 288.868 258.847 288.868 259.5V259.808H283.506C283.543 260.275 283.669 260.695 283.884 261.068C284.108 261.432 284.397 261.721 284.752 261.936C285.116 262.141 285.512 262.244 285.942 262.244C286.296 262.244 286.637 262.183 286.964 262.062C287.3 261.931 287.584 261.759 287.818 261.544L288.462 262.23C288.07 262.538 287.664 262.767 287.244 262.916C286.824 263.065 286.376 263.14 285.9 263.14ZM283.534 259.08H287.86C287.813 258.669 287.687 258.305 287.482 257.988C287.286 257.661 287.034 257.405 286.726 257.218C286.427 257.031 286.091 256.938 285.718 256.938C285.344 256.938 285.004 257.031 284.696 257.218C284.388 257.395 284.131 257.647 283.926 257.974C283.73 258.291 283.599 258.66 283.534 259.08ZM290.957 263.112C290.752 263.112 290.574 263.037 290.425 262.888C290.285 262.739 290.215 262.561 290.215 262.356C290.215 262.141 290.285 261.964 290.425 261.824C290.574 261.675 290.752 261.6 290.957 261.6C291.162 261.6 291.335 261.675 291.475 261.824C291.624 261.964 291.699 262.141 291.699 262.356C291.699 262.561 291.624 262.739 291.475 262.888C291.335 263.037 291.162 263.112 290.957 263.112ZM294.457 263.112C294.252 263.112 294.074 263.037 293.925 262.888C293.785 262.739 293.715 262.561 293.715 262.356C293.715 262.141 293.785 261.964 293.925 261.824C294.074 261.675 294.252 261.6 294.457 261.6C294.662 261.6 294.835 261.675 294.975 261.824C295.124 261.964 295.199 262.141 295.199 262.356C295.199 262.561 295.124 262.739 294.975 262.888C294.835 263.037 294.662 263.112 294.457 263.112ZM297.957 263.112C297.752 263.112 297.574 263.037 297.425 262.888C297.285 262.739 297.215 262.561 297.215 262.356C297.215 262.141 297.285 261.964 297.425 261.824C297.574 261.675 297.752 261.6 297.957 261.6C298.162 261.6 298.335 261.675 298.475 261.824C298.624 261.964 298.699 262.141 298.699 262.356C298.699 262.561 298.624 262.739 298.475 262.888C298.335 263.037 298.162 263.112 297.957 263.112Z" fill="#4D4D4D"/>
<path d="M20 61C20 58.7909 21.7909 57 24 57H54C56.2091 57 58 58.7909 58 61V85C58 87.2091 56.2091 89 54 89H24C21.7909 89 20 87.2091 20 85V61Z" fill="#C806CC"/>
<path d="M38.8879 79V68.254L36.6199 69.208V67.624L39.5359 66.4H40.6699V79H38.8879Z" fill="white"/>
<path d="M77.6667 73C77.6667 74.4728 76.4728 75.6667 75 75.6667C73.5272 75.6667 72.3333 74.4728 72.3333 73C72.3333 71.5272 73.5272 70.3333 75 70.3333C76.4728 70.3333 77.6667 71.5272 77.6667 73ZM75 73V73.5H58V73V72.5H75V73Z" fill="#C806CC"/>
<path d="M125 18C125 15.7909 126.791 14 129 14H163C165.209 14 167 15.7909 167 18V42C167 44.2091 165.209 46 163 46H129C126.791 46 125 44.2091 125 42V18Z" fill="#C806CC"/>
<path d="M141.89 36V34.74L147.002 29.304C147.518 28.764 147.866 28.302 148.046 27.918C148.238 27.534 148.334 27.126 148.334 26.694C148.334 26.13 148.106 25.662 147.65 25.29C147.194 24.918 146.618 24.732 145.922 24.732C145.346 24.732 144.806 24.846 144.302 25.074C143.798 25.302 143.24 25.698 142.628 26.262L141.656 25.074C142.988 23.826 144.422 23.202 145.958 23.202C146.762 23.202 147.47 23.346 148.082 23.634C148.694 23.922 149.168 24.324 149.504 24.84C149.852 25.344 150.026 25.926 150.026 26.586C150.026 27.006 149.972 27.396 149.864 27.756C149.756 28.104 149.57 28.476 149.306 28.872C149.042 29.256 148.67 29.7 148.19 30.204L144.086 34.524L150.278 34.506V36H141.89Z" fill="white"/>
<path d="M146 60.3333C144.527 60.3333 143.333 61.5272 143.333 63C143.333 64.4728 144.527 65.6667 146 65.6667C147.473 65.6667 148.667 64.4728 148.667 63C148.667 61.5272 147.473 60.3333 146 60.3333ZM146 46L145.5 46L145.5 63L146 63L146.5 63L146.5 46L146 46Z" fill="#C806CC"/>
<path d="M203.333 111C203.333 112.473 204.527 113.667 206 113.667C207.473 113.667 208.667 112.473 208.667 111C208.667 109.527 207.473 108.333 206 108.333C204.527 108.333 203.333 109.527 203.333 111ZM206 111V111.5H240V111V110.5H206V111Z" fill="#C806CC"/>
<path d="M240 99C240 96.7909 241.791 95 244 95H279C281.209 95 283 96.7909 283 99V123C283 125.209 281.209 127 279 127H244C241.791 127 240 125.209 240 123V99Z" fill="#C806CC"/>
<path d="M261.359 117.198C260.459 117.198 259.613 117.042 258.821 116.73C258.041 116.406 257.363 115.944 256.787 115.344L257.957 114.228C258.461 114.756 258.971 115.134 259.487 115.362C260.015 115.578 260.633 115.686 261.341 115.686C262.193 115.686 262.883 115.476 263.411 115.056C263.951 114.636 264.221 114.096 264.221 113.436C264.221 112.812 263.993 112.308 263.537 111.924C263.093 111.54 262.517 111.348 261.809 111.348H260.279V109.89H261.683C262.319 109.89 262.829 109.704 263.213 109.332C263.597 108.96 263.789 108.474 263.789 107.874C263.789 107.466 263.681 107.106 263.465 106.794C263.249 106.47 262.949 106.218 262.565 106.038C262.193 105.846 261.767 105.75 261.287 105.75C260.651 105.75 260.087 105.864 259.595 106.092C259.115 106.308 258.617 106.692 258.101 107.244L256.931 106.128C257.507 105.504 258.173 105.03 258.929 104.706C259.685 104.37 260.483 104.202 261.323 104.202C262.139 104.202 262.859 104.352 263.483 104.652C264.119 104.952 264.617 105.366 264.977 105.894C265.349 106.422 265.535 107.028 265.535 107.712C265.535 108.384 265.313 108.978 264.869 109.494C264.437 110.01 263.867 110.37 263.159 110.574C264.011 110.754 264.689 111.114 265.193 111.654C265.697 112.182 265.949 112.806 265.949 113.526C265.949 114.234 265.751 114.864 265.355 115.416C264.971 115.968 264.431 116.406 263.735 116.73C263.039 117.042 262.247 117.198 261.359 117.198Z" fill="white"/>
<path d="M231.333 149C231.333 150.473 232.527 151.667 234 151.667C235.473 151.667 236.667 150.473 236.667 149C236.667 147.527 235.473 146.333 234 146.333C232.527 146.333 231.333 147.527 231.333 149ZM234 149V149.5H248V149V148.5H234V149Z" fill="#C806CC"/>
<path d="M248 137C248 134.791 249.791 133 252 133H288C290.209 133 292 134.791 292 137V161C292 163.209 290.209 165 288 165H252C249.791 165 248 163.209 248 161V137Z" fill="#C806CC"/>
<path d="M271.866 155V151.796H264.72V150.374L271.65 142.4H273.648V150.284H275.178V151.796H273.648V155H271.866ZM266.862 150.284H271.866V144.524L266.862 150.284Z" fill="white"/>
<path d="M265.5 273.333C264.027 273.333 262.833 274.527 262.833 276C262.833 277.473 264.027 278.667 265.5 278.667C266.973 278.667 268.167 277.473 268.167 276C268.167 274.527 266.973 273.333 265.5 273.333ZM265.5 276L265 276L265 290L265.5 290L266 290L266 276L265.5 276Z" fill="#C806CC"/>
<path d="M244 294C244 291.791 245.791 290 248 290H283C285.209 290 287 291.791 287 294V318C287 320.209 285.209 322 283 322H248C245.791 322 244 320.209 244 318V294Z" fill="#C806CC"/>
<path d="M265.302 312.198C263.622 312.198 262.164 311.628 260.928 310.488L261.99 309.3C262.53 309.792 263.064 310.152 263.592 310.38C264.132 310.596 264.72 310.704 265.356 310.704C266.208 310.704 266.892 310.458 267.408 309.966C267.936 309.474 268.2 308.838 268.2 308.058C268.2 307.302 267.93 306.69 267.39 306.222C266.862 305.754 266.172 305.52 265.32 305.52C264.888 305.52 264.462 305.58 264.042 305.7C263.622 305.808 263.184 305.982 262.728 306.222L261.504 305.844L261.792 299.4H269.28V300.894H263.304L263.124 304.782C263.592 304.542 264.036 304.38 264.456 304.296C264.888 304.2 265.332 304.152 265.788 304.152C266.628 304.152 267.354 304.314 267.966 304.638C268.59 304.95 269.076 305.394 269.424 305.97C269.772 306.546 269.946 307.212 269.946 307.968C269.946 308.808 269.748 309.546 269.352 310.182C268.968 310.806 268.428 311.298 267.732 311.658C267.036 312.018 266.226 312.198 265.302 312.198Z" fill="white"/>
</svg>
