<svg width="411" height="410" viewBox="0 0 411 410" fill="none" xmlns="http://www.w3.org/2000/svg">
<path d="M40 42C40 40.8954 40.8954 40 42 40H369C370.105 40 371 40.8954 371 42V368C371 369.105 370.105 370 369 370H42C40.8954 370 40 369.105 40 368V42Z" fill="white"/>
<path d="M42 40V41H369V40V39H42V40ZM371 42H370V368H371H372V42H371ZM369 370V369H42V370V371H369V370ZM40 368H41V42H40H39V368H40ZM42 370V369C41.4477 369 41 368.552 41 368H40H39C39 369.657 40.3431 371 42 371V370ZM371 368H370C370 368.552 369.552 369 369 369V370V371C370.657 371 372 369.657 372 368H371ZM369 40V41C369.552 41 370 41.4477 370 42H371H372C372 40.3431 370.657 39 369 39V40ZM42 40V39C40.3431 39 39 40.3431 39 42H40H41C41 41.4477 41.4477 41 42 41V40Z" fill="white" fill-opacity="0.1"/>
<path d="M121.813 110.289C122.087 110.015 122.53 110.015 122.801 110.289L123.461 110.948C123.735 111.223 123.735 111.666 123.461 111.938L119.493 115.905C119.225 116.18 118.781 116.179 118.507 115.905L114.539 111.938C114.265 111.663 114.265 111.22 114.539 110.948L115.198 110.289C115.473 110.015 115.916 110.015 116.188 110.289L119 113.102L121.813 110.289Z" fill="#1F1F1F"/>
<path d="M140.78 117V108.152H137.392V107.2H145.246V108.152H141.858V117H140.78ZM146.062 117V110.168H147.084V111.568C147.261 111.092 147.513 110.723 147.84 110.462C148.176 110.191 148.558 110.056 148.988 110.056C149.109 110.056 149.221 110.065 149.324 110.084C149.426 110.093 149.529 110.117 149.632 110.154V111.078C149.52 111.041 149.398 111.013 149.268 110.994C149.146 110.966 149.03 110.952 148.918 110.952C148.498 110.952 148.129 111.073 147.812 111.316C147.504 111.559 147.261 111.899 147.084 112.338V117H146.062ZM153.64 117.14C153.005 117.14 152.431 116.986 151.918 116.678C151.404 116.361 150.998 115.936 150.7 115.404C150.401 114.863 150.252 114.256 150.252 113.584C150.252 112.912 150.392 112.31 150.672 111.778C150.961 111.246 151.348 110.826 151.834 110.518C152.319 110.21 152.86 110.056 153.458 110.056C154.064 110.056 154.601 110.21 155.068 110.518C155.544 110.817 155.917 111.227 156.188 111.75C156.468 112.263 156.608 112.847 156.608 113.5V113.808H151.246C151.283 114.275 151.409 114.695 151.624 115.068C151.848 115.432 152.137 115.721 152.492 115.936C152.856 116.141 153.252 116.244 153.682 116.244C154.036 116.244 154.377 116.183 154.704 116.062C155.04 115.931 155.324 115.759 155.558 115.544L156.202 116.23C155.81 116.538 155.404 116.767 154.984 116.916C154.564 117.065 154.116 117.14 153.64 117.14ZM151.274 113.08H155.6C155.553 112.669 155.427 112.305 155.222 111.988C155.026 111.661 154.774 111.405 154.466 111.218C154.167 111.031 153.831 110.938 153.458 110.938C153.084 110.938 152.744 111.031 152.436 111.218C152.128 111.395 151.871 111.647 151.666 111.974C151.47 112.291 151.339 112.66 151.274 113.08ZM161.433 117.14C160.798 117.14 160.224 116.986 159.711 116.678C159.197 116.361 158.791 115.936 158.493 115.404C158.194 114.863 158.045 114.256 158.045 113.584C158.045 112.912 158.185 112.31 158.465 111.778C158.754 111.246 159.141 110.826 159.627 110.518C160.112 110.21 160.653 110.056 161.251 110.056C161.857 110.056 162.394 110.21 162.861 110.518C163.337 110.817 163.71 111.227 163.981 111.75C164.261 112.263 164.401 112.847 164.401 113.5V113.808H159.039C159.076 114.275 159.202 114.695 159.417 115.068C159.641 115.432 159.93 115.721 160.285 115.936C160.649 116.141 161.045 116.244 161.475 116.244C161.829 116.244 162.17 116.183 162.497 116.062C162.833 115.931 163.117 115.759 163.351 115.544L163.995 116.23C163.603 116.538 163.197 116.767 162.777 116.916C162.357 117.065 161.909 117.14 161.433 117.14ZM159.067 113.08H163.393C163.346 112.669 163.22 112.305 163.015 111.988C162.819 111.661 162.567 111.405 162.259 111.218C161.96 111.031 161.624 110.938 161.251 110.938C160.877 110.938 160.537 111.031 160.229 111.218C159.921 111.395 159.664 111.647 159.459 111.974C159.263 112.291 159.132 112.66 159.067 113.08ZM169.413 117V110.168H170.435V111.274C170.697 110.863 171.009 110.56 171.373 110.364C171.737 110.159 172.148 110.056 172.605 110.056C173.1 110.056 173.529 110.163 173.893 110.378C174.267 110.583 174.556 110.877 174.761 111.26C174.976 111.633 175.083 112.072 175.083 112.576V117H174.061V112.87C174.061 112.263 173.893 111.787 173.557 111.442C173.231 111.087 172.787 110.91 172.227 110.91C171.854 110.91 171.513 110.999 171.205 111.176C170.897 111.353 170.641 111.615 170.435 111.96V117H169.413ZM180.162 117.112C179.527 117.112 178.958 116.958 178.454 116.65C177.95 116.342 177.553 115.922 177.264 115.39C176.975 114.858 176.83 114.256 176.83 113.584C176.83 112.912 176.975 112.31 177.264 111.778C177.553 111.246 177.95 110.826 178.454 110.518C178.958 110.21 179.527 110.056 180.162 110.056C180.787 110.056 181.347 110.21 181.842 110.518C182.346 110.826 182.743 111.246 183.032 111.778C183.321 112.31 183.466 112.912 183.466 113.584C183.466 114.256 183.321 114.858 183.032 115.39C182.743 115.922 182.346 116.342 181.842 116.65C181.347 116.958 180.787 117.112 180.162 117.112ZM180.148 116.216C180.596 116.216 180.993 116.104 181.338 115.88C181.683 115.647 181.954 115.329 182.15 114.928C182.355 114.527 182.458 114.079 182.458 113.584C182.458 113.08 182.355 112.632 182.15 112.24C181.954 111.839 181.683 111.526 181.338 111.302C180.993 111.069 180.596 110.952 180.148 110.952C179.7 110.952 179.303 111.069 178.958 111.302C178.613 111.526 178.337 111.839 178.132 112.24C177.936 112.632 177.838 113.08 177.838 113.584C177.838 114.079 177.936 114.527 178.132 114.928C178.337 115.329 178.613 115.647 178.958 115.88C179.303 116.104 179.7 116.216 180.148 116.216ZM188.101 117.098C187.513 117.098 186.981 116.944 186.505 116.636C186.029 116.319 185.651 115.899 185.371 115.376C185.091 114.844 184.951 114.251 184.951 113.598C184.951 112.935 185.091 112.343 185.371 111.82C185.66 111.288 186.048 110.868 186.533 110.56C187.018 110.243 187.56 110.084 188.157 110.084C188.577 110.084 188.969 110.168 189.333 110.336C189.697 110.495 190.014 110.728 190.285 111.036V106.892L191.307 106.682V117H190.285V116.09C190.024 116.417 189.706 116.669 189.333 116.846C188.96 117.014 188.549 117.098 188.101 117.098ZM188.353 116.202C188.754 116.202 189.123 116.123 189.459 115.964C189.795 115.805 190.07 115.581 190.285 115.292V111.904C190.061 111.615 189.776 111.391 189.431 111.232C189.095 111.064 188.736 110.98 188.353 110.98C187.896 110.98 187.485 111.092 187.121 111.316C186.766 111.54 186.482 111.848 186.267 112.24C186.062 112.632 185.959 113.08 185.959 113.584C185.959 114.079 186.062 114.527 186.267 114.928C186.482 115.32 186.766 115.633 187.121 115.866C187.485 116.09 187.896 116.202 188.353 116.202ZM196.487 117.14C195.853 117.14 195.279 116.986 194.765 116.678C194.252 116.361 193.846 115.936 193.547 115.404C193.249 114.863 193.099 114.256 193.099 113.584C193.099 112.912 193.239 112.31 193.519 111.778C193.809 111.246 194.196 110.826 194.681 110.518C195.167 110.21 195.708 110.056 196.305 110.056C196.912 110.056 197.449 110.21 197.915 110.518C198.391 110.817 198.765 111.227 199.035 111.75C199.315 112.263 199.455 112.847 199.455 113.5V113.808H194.093C194.131 114.275 194.257 114.695 194.471 115.068C194.695 115.432 194.985 115.721 195.339 115.936C195.703 116.141 196.1 116.244 196.529 116.244C196.884 116.244 197.225 116.183 197.551 116.062C197.887 115.931 198.172 115.759 198.405 115.544L199.049 116.23C198.657 116.538 198.251 116.767 197.831 116.916C197.411 117.065 196.963 117.14 196.487 117.14ZM194.121 113.08H198.447C198.401 112.669 198.275 112.305 198.069 111.988C197.873 111.661 197.621 111.405 197.313 111.218C197.015 111.031 196.679 110.938 196.305 110.938C195.932 110.938 195.591 111.031 195.283 111.218C194.975 111.395 194.719 111.647 194.513 111.974C194.317 112.291 194.187 112.66 194.121 113.08Z" fill="#4D4D4D"/>
<path d="M149.813 147.289C150.087 147.015 150.53 147.015 150.801 147.289L151.461 147.948C151.735 148.223 151.735 148.666 151.461 148.938L147.493 152.905C147.225 153.18 146.781 153.179 146.507 152.905L142.539 148.938C142.265 148.663 142.265 148.22 142.539 147.948L143.198 147.289C143.473 147.015 143.916 147.015 144.188 147.289L147 150.102L149.813 147.289Z" fill="#1F1F1F"/>
<path d="M168.78 154V145.152H165.392V144.2H173.246V145.152H169.858V154H168.78ZM174.062 154V147.168H175.084V148.568C175.261 148.092 175.513 147.723 175.84 147.462C176.176 147.191 176.558 147.056 176.988 147.056C177.109 147.056 177.221 147.065 177.324 147.084C177.426 147.093 177.529 147.117 177.632 147.154V148.078C177.52 148.041 177.398 148.013 177.268 147.994C177.146 147.966 177.03 147.952 176.918 147.952C176.498 147.952 176.129 148.073 175.812 148.316C175.504 148.559 175.261 148.899 175.084 149.338V154H174.062ZM181.64 154.14C181.005 154.14 180.431 153.986 179.918 153.678C179.404 153.361 178.998 152.936 178.7 152.404C178.401 151.863 178.252 151.256 178.252 150.584C178.252 149.912 178.392 149.31 178.672 148.778C178.961 148.246 179.348 147.826 179.834 147.518C180.319 147.21 180.86 147.056 181.458 147.056C182.064 147.056 182.601 147.21 183.068 147.518C183.544 147.817 183.917 148.227 184.188 148.75C184.468 149.263 184.608 149.847 184.608 150.5V150.808H179.246C179.283 151.275 179.409 151.695 179.624 152.068C179.848 152.432 180.137 152.721 180.492 152.936C180.856 153.141 181.252 153.244 181.682 153.244C182.036 153.244 182.377 153.183 182.704 153.062C183.04 152.931 183.324 152.759 183.558 152.544L184.202 153.23C183.81 153.538 183.404 153.767 182.984 153.916C182.564 154.065 182.116 154.14 181.64 154.14ZM179.274 150.08H183.6C183.553 149.669 183.427 149.305 183.222 148.988C183.026 148.661 182.774 148.405 182.466 148.218C182.167 148.031 181.831 147.938 181.458 147.938C181.084 147.938 180.744 148.031 180.436 148.218C180.128 148.395 179.871 148.647 179.666 148.974C179.47 149.291 179.339 149.66 179.274 150.08ZM189.433 154.14C188.798 154.14 188.224 153.986 187.711 153.678C187.197 153.361 186.791 152.936 186.493 152.404C186.194 151.863 186.045 151.256 186.045 150.584C186.045 149.912 186.185 149.31 186.465 148.778C186.754 148.246 187.141 147.826 187.627 147.518C188.112 147.21 188.653 147.056 189.251 147.056C189.857 147.056 190.394 147.21 190.861 147.518C191.337 147.817 191.71 148.227 191.981 148.75C192.261 149.263 192.401 149.847 192.401 150.5V150.808H187.039C187.076 151.275 187.202 151.695 187.417 152.068C187.641 152.432 187.93 152.721 188.285 152.936C188.649 153.141 189.045 153.244 189.475 153.244C189.829 153.244 190.17 153.183 190.497 153.062C190.833 152.931 191.117 152.759 191.351 152.544L191.995 153.23C191.603 153.538 191.197 153.767 190.777 153.916C190.357 154.065 189.909 154.14 189.433 154.14ZM187.067 150.08H191.393C191.346 149.669 191.22 149.305 191.015 148.988C190.819 148.661 190.567 148.405 190.259 148.218C189.96 148.031 189.624 147.938 189.251 147.938C188.877 147.938 188.537 148.031 188.229 148.218C187.921 148.395 187.664 148.647 187.459 148.974C187.263 149.291 187.132 149.66 187.067 150.08ZM197.413 154V147.168H198.435V148.274C198.697 147.863 199.009 147.56 199.373 147.364C199.737 147.159 200.148 147.056 200.605 147.056C201.1 147.056 201.529 147.163 201.893 147.378C202.267 147.583 202.556 147.877 202.761 148.26C202.976 148.633 203.083 149.072 203.083 149.576V154H202.061V149.87C202.061 149.263 201.893 148.787 201.557 148.442C201.231 148.087 200.787 147.91 200.227 147.91C199.854 147.91 199.513 147.999 199.205 148.176C198.897 148.353 198.641 148.615 198.435 148.96V154H197.413ZM208.162 154.112C207.527 154.112 206.958 153.958 206.454 153.65C205.95 153.342 205.553 152.922 205.264 152.39C204.975 151.858 204.83 151.256 204.83 150.584C204.83 149.912 204.975 149.31 205.264 148.778C205.553 148.246 205.95 147.826 206.454 147.518C206.958 147.21 207.527 147.056 208.162 147.056C208.787 147.056 209.347 147.21 209.842 147.518C210.346 147.826 210.743 148.246 211.032 148.778C211.321 149.31 211.466 149.912 211.466 150.584C211.466 151.256 211.321 151.858 211.032 152.39C210.743 152.922 210.346 153.342 209.842 153.65C209.347 153.958 208.787 154.112 208.162 154.112ZM208.148 153.216C208.596 153.216 208.993 153.104 209.338 152.88C209.683 152.647 209.954 152.329 210.15 151.928C210.355 151.527 210.458 151.079 210.458 150.584C210.458 150.08 210.355 149.632 210.15 149.24C209.954 148.839 209.683 148.526 209.338 148.302C208.993 148.069 208.596 147.952 208.148 147.952C207.7 147.952 207.303 148.069 206.958 148.302C206.613 148.526 206.337 148.839 206.132 149.24C205.936 149.632 205.838 150.08 205.838 150.584C205.838 151.079 205.936 151.527 206.132 151.928C206.337 152.329 206.613 152.647 206.958 152.88C207.303 153.104 207.7 153.216 208.148 153.216ZM216.101 154.098C215.513 154.098 214.981 153.944 214.505 153.636C214.029 153.319 213.651 152.899 213.371 152.376C213.091 151.844 212.951 151.251 212.951 150.598C212.951 149.935 213.091 149.343 213.371 148.82C213.66 148.288 214.048 147.868 214.533 147.56C215.018 147.243 215.56 147.084 216.157 147.084C216.577 147.084 216.969 147.168 217.333 147.336C217.697 147.495 218.014 147.728 218.285 148.036V143.892L219.307 143.682V154H218.285V153.09C218.024 153.417 217.706 153.669 217.333 153.846C216.96 154.014 216.549 154.098 216.101 154.098ZM216.353 153.202C216.754 153.202 217.123 153.123 217.459 152.964C217.795 152.805 218.07 152.581 218.285 152.292V148.904C218.061 148.615 217.776 148.391 217.431 148.232C217.095 148.064 216.736 147.98 216.353 147.98C215.896 147.98 215.485 148.092 215.121 148.316C214.766 148.54 214.482 148.848 214.267 149.24C214.062 149.632 213.959 150.08 213.959 150.584C213.959 151.079 214.062 151.527 214.267 151.928C214.482 152.32 214.766 152.633 215.121 152.866C215.485 153.09 215.896 153.202 216.353 153.202ZM224.487 154.14C223.853 154.14 223.279 153.986 222.765 153.678C222.252 153.361 221.846 152.936 221.547 152.404C221.249 151.863 221.099 151.256 221.099 150.584C221.099 149.912 221.239 149.31 221.519 148.778C221.809 148.246 222.196 147.826 222.681 147.518C223.167 147.21 223.708 147.056 224.305 147.056C224.912 147.056 225.449 147.21 225.915 147.518C226.391 147.817 226.765 148.227 227.035 148.75C227.315 149.263 227.455 149.847 227.455 150.5V150.808H222.093C222.131 151.275 222.257 151.695 222.471 152.068C222.695 152.432 222.985 152.721 223.339 152.936C223.703 153.141 224.1 153.244 224.529 153.244C224.884 153.244 225.225 153.183 225.551 153.062C225.887 152.931 226.172 152.759 226.405 152.544L227.049 153.23C226.657 153.538 226.251 153.767 225.831 153.916C225.411 154.065 224.963 154.14 224.487 154.14ZM222.121 150.08H226.447C226.401 149.669 226.275 149.305 226.069 148.988C225.873 148.661 225.621 148.405 225.313 148.218C225.015 148.031 224.679 147.938 224.305 147.938C223.932 147.938 223.591 148.031 223.283 148.218C222.975 148.395 222.719 148.647 222.513 148.974C222.317 149.291 222.187 149.66 222.121 150.08Z" fill="#4D4D4D"/>
<path d="M194.78 191V182.152H191.392V181.2H199.246V182.152H195.858V191H194.78ZM200.062 191V184.168H201.084V185.568C201.261 185.092 201.513 184.723 201.84 184.462C202.176 184.191 202.558 184.056 202.988 184.056C203.109 184.056 203.221 184.065 203.324 184.084C203.426 184.093 203.529 184.117 203.632 184.154V185.078C203.52 185.041 203.398 185.013 203.268 184.994C203.146 184.966 203.03 184.952 202.918 184.952C202.498 184.952 202.129 185.073 201.812 185.316C201.504 185.559 201.261 185.899 201.084 186.338V191H200.062ZM207.64 191.14C207.005 191.14 206.431 190.986 205.918 190.678C205.404 190.361 204.998 189.936 204.7 189.404C204.401 188.863 204.252 188.256 204.252 187.584C204.252 186.912 204.392 186.31 204.672 185.778C204.961 185.246 205.348 184.826 205.834 184.518C206.319 184.21 206.86 184.056 207.458 184.056C208.064 184.056 208.601 184.21 209.068 184.518C209.544 184.817 209.917 185.227 210.188 185.75C210.468 186.263 210.608 186.847 210.608 187.5V187.808H205.246C205.283 188.275 205.409 188.695 205.624 189.068C205.848 189.432 206.137 189.721 206.492 189.936C206.856 190.141 207.252 190.244 207.682 190.244C208.036 190.244 208.377 190.183 208.704 190.062C209.04 189.931 209.324 189.759 209.558 189.544L210.202 190.23C209.81 190.538 209.404 190.767 208.984 190.916C208.564 191.065 208.116 191.14 207.64 191.14ZM205.274 187.08H209.6C209.553 186.669 209.427 186.305 209.222 185.988C209.026 185.661 208.774 185.405 208.466 185.218C208.167 185.031 207.831 184.938 207.458 184.938C207.084 184.938 206.744 185.031 206.436 185.218C206.128 185.395 205.871 185.647 205.666 185.974C205.47 186.291 205.339 186.66 205.274 187.08ZM215.433 191.14C214.798 191.14 214.224 190.986 213.711 190.678C213.197 190.361 212.791 189.936 212.493 189.404C212.194 188.863 212.045 188.256 212.045 187.584C212.045 186.912 212.185 186.31 212.465 185.778C212.754 185.246 213.141 184.826 213.627 184.518C214.112 184.21 214.653 184.056 215.251 184.056C215.857 184.056 216.394 184.21 216.861 184.518C217.337 184.817 217.71 185.227 217.981 185.75C218.261 186.263 218.401 186.847 218.401 187.5V187.808H213.039C213.076 188.275 213.202 188.695 213.417 189.068C213.641 189.432 213.93 189.721 214.285 189.936C214.649 190.141 215.045 190.244 215.475 190.244C215.829 190.244 216.17 190.183 216.497 190.062C216.833 189.931 217.117 189.759 217.351 189.544L217.995 190.23C217.603 190.538 217.197 190.767 216.777 190.916C216.357 191.065 215.909 191.14 215.433 191.14ZM213.067 187.08H217.393C217.346 186.669 217.22 186.305 217.015 185.988C216.819 185.661 216.567 185.405 216.259 185.218C215.96 185.031 215.624 184.938 215.251 184.938C214.877 184.938 214.537 185.031 214.229 185.218C213.921 185.395 213.664 185.647 213.459 185.974C213.263 186.291 213.132 186.66 213.067 187.08ZM223.413 191V184.168H224.435V185.274C224.697 184.863 225.009 184.56 225.373 184.364C225.737 184.159 226.148 184.056 226.605 184.056C227.1 184.056 227.529 184.163 227.893 184.378C228.267 184.583 228.556 184.877 228.761 185.26C228.976 185.633 229.083 186.072 229.083 186.576V191H228.061V186.87C228.061 186.263 227.893 185.787 227.557 185.442C227.231 185.087 226.787 184.91 226.227 184.91C225.854 184.91 225.513 184.999 225.205 185.176C224.897 185.353 224.641 185.615 224.435 185.96V191H223.413ZM234.162 191.112C233.527 191.112 232.958 190.958 232.454 190.65C231.95 190.342 231.553 189.922 231.264 189.39C230.975 188.858 230.83 188.256 230.83 187.584C230.83 186.912 230.975 186.31 231.264 185.778C231.553 185.246 231.95 184.826 232.454 184.518C232.958 184.21 233.527 184.056 234.162 184.056C234.787 184.056 235.347 184.21 235.842 184.518C236.346 184.826 236.743 185.246 237.032 185.778C237.321 186.31 237.466 186.912 237.466 187.584C237.466 188.256 237.321 188.858 237.032 189.39C236.743 189.922 236.346 190.342 235.842 190.65C235.347 190.958 234.787 191.112 234.162 191.112ZM234.148 190.216C234.596 190.216 234.993 190.104 235.338 189.88C235.683 189.647 235.954 189.329 236.15 188.928C236.355 188.527 236.458 188.079 236.458 187.584C236.458 187.08 236.355 186.632 236.15 186.24C235.954 185.839 235.683 185.526 235.338 185.302C234.993 185.069 234.596 184.952 234.148 184.952C233.7 184.952 233.303 185.069 232.958 185.302C232.613 185.526 232.337 185.839 232.132 186.24C231.936 186.632 231.838 187.08 231.838 187.584C231.838 188.079 231.936 188.527 232.132 188.928C232.337 189.329 232.613 189.647 232.958 189.88C233.303 190.104 233.7 190.216 234.148 190.216ZM242.101 191.098C241.513 191.098 240.981 190.944 240.505 190.636C240.029 190.319 239.651 189.899 239.371 189.376C239.091 188.844 238.951 188.251 238.951 187.598C238.951 186.935 239.091 186.343 239.371 185.82C239.66 185.288 240.048 184.868 240.533 184.56C241.018 184.243 241.56 184.084 242.157 184.084C242.577 184.084 242.969 184.168 243.333 184.336C243.697 184.495 244.014 184.728 244.285 185.036V180.892L245.307 180.682V191H244.285V190.09C244.024 190.417 243.706 190.669 243.333 190.846C242.96 191.014 242.549 191.098 242.101 191.098ZM242.353 190.202C242.754 190.202 243.123 190.123 243.459 189.964C243.795 189.805 244.07 189.581 244.285 189.292V185.904C244.061 185.615 243.776 185.391 243.431 185.232C243.095 185.064 242.736 184.98 242.353 184.98C241.896 184.98 241.485 185.092 241.121 185.316C240.766 185.54 240.482 185.848 240.267 186.24C240.062 186.632 239.959 187.08 239.959 187.584C239.959 188.079 240.062 188.527 240.267 188.928C240.482 189.32 240.766 189.633 241.121 189.866C241.485 190.09 241.896 190.202 242.353 190.202ZM250.487 191.14C249.853 191.14 249.279 190.986 248.765 190.678C248.252 190.361 247.846 189.936 247.547 189.404C247.249 188.863 247.099 188.256 247.099 187.584C247.099 186.912 247.239 186.31 247.519 185.778C247.809 185.246 248.196 184.826 248.681 184.518C249.167 184.21 249.708 184.056 250.305 184.056C250.912 184.056 251.449 184.21 251.915 184.518C252.391 184.817 252.765 185.227 253.035 185.75C253.315 186.263 253.455 186.847 253.455 187.5V187.808H248.093C248.131 188.275 248.257 188.695 248.471 189.068C248.695 189.432 248.985 189.721 249.339 189.936C249.703 190.141 250.1 190.244 250.529 190.244C250.884 190.244 251.225 190.183 251.551 190.062C251.887 189.931 252.172 189.759 252.405 189.544L253.049 190.23C252.657 190.538 252.251 190.767 251.831 190.916C251.411 191.065 250.963 191.14 250.487 191.14ZM248.121 187.08H252.447C252.401 186.669 252.275 186.305 252.069 185.988C251.873 185.661 251.621 185.405 251.313 185.218C251.015 185.031 250.679 184.938 250.305 184.938C249.932 184.938 249.591 185.031 249.283 185.218C248.975 185.395 248.719 185.647 248.513 185.974C248.317 186.291 248.187 186.66 248.121 187.08Z" fill="#4D4D4D"/>
<path d="M144.973 219.539C145.256 219.264 145.714 219.264 145.994 219.539L150.089 223.504C150.375 223.779 150.375 224.222 150.092 224.496L145.997 228.46C145.714 228.735 145.255 228.735 144.975 228.46L144.296 227.802C144.013 227.528 144.013 227.085 144.296 226.814L147.198 224.002L144.296 221.192C144.013 220.918 144.013 220.475 144.296 220.204L144.973 219.539Z" fill="#707070"/>
<path d="M168.78 228V219.152H165.392V218.2H173.246V219.152H169.858V228H168.78ZM174.062 228V221.168H175.084V222.568C175.261 222.092 175.513 221.723 175.84 221.462C176.176 221.191 176.558 221.056 176.988 221.056C177.109 221.056 177.221 221.065 177.324 221.084C177.426 221.093 177.529 221.117 177.632 221.154V222.078C177.52 222.041 177.398 222.013 177.268 221.994C177.146 221.966 177.03 221.952 176.918 221.952C176.498 221.952 176.129 222.073 175.812 222.316C175.504 222.559 175.261 222.899 175.084 223.338V228H174.062ZM181.64 228.14C181.005 228.14 180.431 227.986 179.918 227.678C179.404 227.361 178.998 226.936 178.7 226.404C178.401 225.863 178.252 225.256 178.252 224.584C178.252 223.912 178.392 223.31 178.672 222.778C178.961 222.246 179.348 221.826 179.834 221.518C180.319 221.21 180.86 221.056 181.458 221.056C182.064 221.056 182.601 221.21 183.068 221.518C183.544 221.817 183.917 222.227 184.188 222.75C184.468 223.263 184.608 223.847 184.608 224.5V224.808H179.246C179.283 225.275 179.409 225.695 179.624 226.068C179.848 226.432 180.137 226.721 180.492 226.936C180.856 227.141 181.252 227.244 181.682 227.244C182.036 227.244 182.377 227.183 182.704 227.062C183.04 226.931 183.324 226.759 183.558 226.544L184.202 227.23C183.81 227.538 183.404 227.767 182.984 227.916C182.564 228.065 182.116 228.14 181.64 228.14ZM179.274 224.08H183.6C183.553 223.669 183.427 223.305 183.222 222.988C183.026 222.661 182.774 222.405 182.466 222.218C182.167 222.031 181.831 221.938 181.458 221.938C181.084 221.938 180.744 222.031 180.436 222.218C180.128 222.395 179.871 222.647 179.666 222.974C179.47 223.291 179.339 223.66 179.274 224.08ZM189.433 228.14C188.798 228.14 188.224 227.986 187.711 227.678C187.197 227.361 186.791 226.936 186.493 226.404C186.194 225.863 186.045 225.256 186.045 224.584C186.045 223.912 186.185 223.31 186.465 222.778C186.754 222.246 187.141 221.826 187.627 221.518C188.112 221.21 188.653 221.056 189.251 221.056C189.857 221.056 190.394 221.21 190.861 221.518C191.337 221.817 191.71 222.227 191.981 222.75C192.261 223.263 192.401 223.847 192.401 224.5V224.808H187.039C187.076 225.275 187.202 225.695 187.417 226.068C187.641 226.432 187.93 226.721 188.285 226.936C188.649 227.141 189.045 227.244 189.475 227.244C189.829 227.244 190.17 227.183 190.497 227.062C190.833 226.931 191.117 226.759 191.351 226.544L191.995 227.23C191.603 227.538 191.197 227.767 190.777 227.916C190.357 228.065 189.909 228.14 189.433 228.14ZM187.067 224.08H191.393C191.346 223.669 191.22 223.305 191.015 222.988C190.819 222.661 190.567 222.405 190.259 222.218C189.96 222.031 189.624 221.938 189.251 221.938C188.877 221.938 188.537 222.031 188.229 222.218C187.921 222.395 187.664 222.647 187.459 222.974C187.263 223.291 187.132 223.66 187.067 224.08ZM197.413 228V221.168H198.435V222.274C198.697 221.863 199.009 221.56 199.373 221.364C199.737 221.159 200.148 221.056 200.605 221.056C201.1 221.056 201.529 221.163 201.893 221.378C202.267 221.583 202.556 221.877 202.761 222.26C202.976 222.633 203.083 223.072 203.083 223.576V228H202.061V223.87C202.061 223.263 201.893 222.787 201.557 222.442C201.231 222.087 200.787 221.91 200.227 221.91C199.854 221.91 199.513 221.999 199.205 222.176C198.897 222.353 198.641 222.615 198.435 222.96V228H197.413ZM208.162 228.112C207.527 228.112 206.958 227.958 206.454 227.65C205.95 227.342 205.553 226.922 205.264 226.39C204.975 225.858 204.83 225.256 204.83 224.584C204.83 223.912 204.975 223.31 205.264 222.778C205.553 222.246 205.95 221.826 206.454 221.518C206.958 221.21 207.527 221.056 208.162 221.056C208.787 221.056 209.347 221.21 209.842 221.518C210.346 221.826 210.743 222.246 211.032 222.778C211.321 223.31 211.466 223.912 211.466 224.584C211.466 225.256 211.321 225.858 211.032 226.39C210.743 226.922 210.346 227.342 209.842 227.65C209.347 227.958 208.787 228.112 208.162 228.112ZM208.148 227.216C208.596 227.216 208.993 227.104 209.338 226.88C209.683 226.647 209.954 226.329 210.15 225.928C210.355 225.527 210.458 225.079 210.458 224.584C210.458 224.08 210.355 223.632 210.15 223.24C209.954 222.839 209.683 222.526 209.338 222.302C208.993 222.069 208.596 221.952 208.148 221.952C207.7 221.952 207.303 222.069 206.958 222.302C206.613 222.526 206.337 222.839 206.132 223.24C205.936 223.632 205.838 224.08 205.838 224.584C205.838 225.079 205.936 225.527 206.132 225.928C206.337 226.329 206.613 226.647 206.958 226.88C207.303 227.104 207.7 227.216 208.148 227.216ZM216.101 228.098C215.513 228.098 214.981 227.944 214.505 227.636C214.029 227.319 213.651 226.899 213.371 226.376C213.091 225.844 212.951 225.251 212.951 224.598C212.951 223.935 213.091 223.343 213.371 222.82C213.66 222.288 214.048 221.868 214.533 221.56C215.018 221.243 215.56 221.084 216.157 221.084C216.577 221.084 216.969 221.168 217.333 221.336C217.697 221.495 218.014 221.728 218.285 222.036V217.892L219.307 217.682V228H218.285V227.09C218.024 227.417 217.706 227.669 217.333 227.846C216.96 228.014 216.549 228.098 216.101 228.098ZM216.353 227.202C216.754 227.202 217.123 227.123 217.459 226.964C217.795 226.805 218.07 226.581 218.285 226.292V222.904C218.061 222.615 217.776 222.391 217.431 222.232C217.095 222.064 216.736 221.98 216.353 221.98C215.896 221.98 215.485 222.092 215.121 222.316C214.766 222.54 214.482 222.848 214.267 223.24C214.062 223.632 213.959 224.08 213.959 224.584C213.959 225.079 214.062 225.527 214.267 225.928C214.482 226.32 214.766 226.633 215.121 226.866C215.485 227.09 215.896 227.202 216.353 227.202ZM224.487 228.14C223.853 228.14 223.279 227.986 222.765 227.678C222.252 227.361 221.846 226.936 221.547 226.404C221.249 225.863 221.099 225.256 221.099 224.584C221.099 223.912 221.239 223.31 221.519 222.778C221.809 222.246 222.196 221.826 222.681 221.518C223.167 221.21 223.708 221.056 224.305 221.056C224.912 221.056 225.449 221.21 225.915 221.518C226.391 221.817 226.765 222.227 227.035 222.75C227.315 223.263 227.455 223.847 227.455 224.5V224.808H222.093C222.131 225.275 222.257 225.695 222.471 226.068C222.695 226.432 222.985 226.721 223.339 226.936C223.703 227.141 224.1 227.244 224.529 227.244C224.884 227.244 225.225 227.183 225.551 227.062C225.887 226.931 226.172 226.759 226.405 226.544L227.049 227.23C226.657 227.538 226.251 227.767 225.831 227.916C225.411 228.065 224.963 228.14 224.487 228.14ZM222.121 224.08H226.447C226.401 223.669 226.275 223.305 226.069 222.988C225.873 222.661 225.621 222.405 225.313 222.218C225.015 222.031 224.679 221.938 224.305 221.938C223.932 221.938 223.591 222.031 223.283 222.218C222.975 222.395 222.719 222.647 222.513 222.974C222.317 223.291 222.187 223.66 222.121 224.08Z" fill="#4D4D4D"/>
<path d="M116.973 256.539C117.256 256.264 117.714 256.264 117.994 256.539L122.089 260.504C122.375 260.779 122.375 261.222 122.092 261.496L117.997 265.46C117.714 265.735 117.255 265.735 116.975 265.46L116.296 264.802C116.013 264.528 116.013 264.085 116.296 263.814L119.198 261.002L116.296 258.192C116.013 257.918 116.013 257.475 116.296 257.204L116.973 256.539Z" fill="#707070"/>
<path d="M140.78 265V256.152H137.392V255.2H145.246V256.152H141.858V265H140.78ZM146.062 265V258.168H147.084V259.568C147.261 259.092 147.513 258.723 147.84 258.462C148.176 258.191 148.558 258.056 148.988 258.056C149.109 258.056 149.221 258.065 149.324 258.084C149.426 258.093 149.529 258.117 149.632 258.154V259.078C149.52 259.041 149.398 259.013 149.268 258.994C149.146 258.966 149.03 258.952 148.918 258.952C148.498 258.952 148.129 259.073 147.812 259.316C147.504 259.559 147.261 259.899 147.084 260.338V265H146.062ZM153.64 265.14C153.005 265.14 152.431 264.986 151.918 264.678C151.404 264.361 150.998 263.936 150.7 263.404C150.401 262.863 150.252 262.256 150.252 261.584C150.252 260.912 150.392 260.31 150.672 259.778C150.961 259.246 151.348 258.826 151.834 258.518C152.319 258.21 152.86 258.056 153.458 258.056C154.064 258.056 154.601 258.21 155.068 258.518C155.544 258.817 155.917 259.227 156.188 259.75C156.468 260.263 156.608 260.847 156.608 261.5V261.808H151.246C151.283 262.275 151.409 262.695 151.624 263.068C151.848 263.432 152.137 263.721 152.492 263.936C152.856 264.141 153.252 264.244 153.682 264.244C154.036 264.244 154.377 264.183 154.704 264.062C155.04 263.931 155.324 263.759 155.558 263.544L156.202 264.23C155.81 264.538 155.404 264.767 154.984 264.916C154.564 265.065 154.116 265.14 153.64 265.14ZM151.274 261.08H155.6C155.553 260.669 155.427 260.305 155.222 259.988C155.026 259.661 154.774 259.405 154.466 259.218C154.167 259.031 153.831 258.938 153.458 258.938C153.084 258.938 152.744 259.031 152.436 259.218C152.128 259.395 151.871 259.647 151.666 259.974C151.47 260.291 151.339 260.66 151.274 261.08ZM161.433 265.14C160.798 265.14 160.224 264.986 159.711 264.678C159.197 264.361 158.791 263.936 158.493 263.404C158.194 262.863 158.045 262.256 158.045 261.584C158.045 260.912 158.185 260.31 158.465 259.778C158.754 259.246 159.141 258.826 159.627 258.518C160.112 258.21 160.653 258.056 161.251 258.056C161.857 258.056 162.394 258.21 162.861 258.518C163.337 258.817 163.71 259.227 163.981 259.75C164.261 260.263 164.401 260.847 164.401 261.5V261.808H159.039C159.076 262.275 159.202 262.695 159.417 263.068C159.641 263.432 159.93 263.721 160.285 263.936C160.649 264.141 161.045 264.244 161.475 264.244C161.829 264.244 162.17 264.183 162.497 264.062C162.833 263.931 163.117 263.759 163.351 263.544L163.995 264.23C163.603 264.538 163.197 264.767 162.777 264.916C162.357 265.065 161.909 265.14 161.433 265.14ZM159.067 261.08H163.393C163.346 260.669 163.22 260.305 163.015 259.988C162.819 259.661 162.567 259.405 162.259 259.218C161.96 259.031 161.624 258.938 161.251 258.938C160.877 258.938 160.537 259.031 160.229 259.218C159.921 259.395 159.664 259.647 159.459 259.974C159.263 260.291 159.132 260.66 159.067 261.08ZM169.413 265V258.168H170.435V259.274C170.697 258.863 171.009 258.56 171.373 258.364C171.737 258.159 172.148 258.056 172.605 258.056C173.1 258.056 173.529 258.163 173.893 258.378C174.267 258.583 174.556 258.877 174.761 259.26C174.976 259.633 175.083 260.072 175.083 260.576V265H174.061V260.87C174.061 260.263 173.893 259.787 173.557 259.442C173.231 259.087 172.787 258.91 172.227 258.91C171.854 258.91 171.513 258.999 171.205 259.176C170.897 259.353 170.641 259.615 170.435 259.96V265H169.413ZM180.162 265.112C179.527 265.112 178.958 264.958 178.454 264.65C177.95 264.342 177.553 263.922 177.264 263.39C176.975 262.858 176.83 262.256 176.83 261.584C176.83 260.912 176.975 260.31 177.264 259.778C177.553 259.246 177.95 258.826 178.454 258.518C178.958 258.21 179.527 258.056 180.162 258.056C180.787 258.056 181.347 258.21 181.842 258.518C182.346 258.826 182.743 259.246 183.032 259.778C183.321 260.31 183.466 260.912 183.466 261.584C183.466 262.256 183.321 262.858 183.032 263.39C182.743 263.922 182.346 264.342 181.842 264.65C181.347 264.958 180.787 265.112 180.162 265.112ZM180.148 264.216C180.596 264.216 180.993 264.104 181.338 263.88C181.683 263.647 181.954 263.329 182.15 262.928C182.355 262.527 182.458 262.079 182.458 261.584C182.458 261.08 182.355 260.632 182.15 260.24C181.954 259.839 181.683 259.526 181.338 259.302C180.993 259.069 180.596 258.952 180.148 258.952C179.7 258.952 179.303 259.069 178.958 259.302C178.613 259.526 178.337 259.839 178.132 260.24C177.936 260.632 177.838 261.08 177.838 261.584C177.838 262.079 177.936 262.527 178.132 262.928C178.337 263.329 178.613 263.647 178.958 263.88C179.303 264.104 179.7 264.216 180.148 264.216ZM188.101 265.098C187.513 265.098 186.981 264.944 186.505 264.636C186.029 264.319 185.651 263.899 185.371 263.376C185.091 262.844 184.951 262.251 184.951 261.598C184.951 260.935 185.091 260.343 185.371 259.82C185.66 259.288 186.048 258.868 186.533 258.56C187.018 258.243 187.56 258.084 188.157 258.084C188.577 258.084 188.969 258.168 189.333 258.336C189.697 258.495 190.014 258.728 190.285 259.036V254.892L191.307 254.682V265H190.285V264.09C190.024 264.417 189.706 264.669 189.333 264.846C188.96 265.014 188.549 265.098 188.101 265.098ZM188.353 264.202C188.754 264.202 189.123 264.123 189.459 263.964C189.795 263.805 190.07 263.581 190.285 263.292V259.904C190.061 259.615 189.776 259.391 189.431 259.232C189.095 259.064 188.736 258.98 188.353 258.98C187.896 258.98 187.485 259.092 187.121 259.316C186.766 259.54 186.482 259.848 186.267 260.24C186.062 260.632 185.959 261.08 185.959 261.584C185.959 262.079 186.062 262.527 186.267 262.928C186.482 263.32 186.766 263.633 187.121 263.866C187.485 264.09 187.896 264.202 188.353 264.202ZM196.487 265.14C195.853 265.14 195.279 264.986 194.765 264.678C194.252 264.361 193.846 263.936 193.547 263.404C193.249 262.863 193.099 262.256 193.099 261.584C193.099 260.912 193.239 260.31 193.519 259.778C193.809 259.246 194.196 258.826 194.681 258.518C195.167 258.21 195.708 258.056 196.305 258.056C196.912 258.056 197.449 258.21 197.915 258.518C198.391 258.817 198.765 259.227 199.035 259.75C199.315 260.263 199.455 260.847 199.455 261.5V261.808H194.093C194.131 262.275 194.257 262.695 194.471 263.068C194.695 263.432 194.985 263.721 195.339 263.936C195.703 264.141 196.1 264.244 196.529 264.244C196.884 264.244 197.225 264.183 197.551 264.062C197.887 263.931 198.172 263.759 198.405 263.544L199.049 264.23C198.657 264.538 198.251 264.767 197.831 264.916C197.411 265.065 196.963 265.14 196.487 265.14ZM194.121 261.08H198.447C198.401 260.669 198.275 260.305 198.069 259.988C197.873 259.661 197.621 259.405 197.313 259.218C197.015 259.031 196.679 258.938 196.305 258.938C195.932 258.938 195.591 259.031 195.283 259.218C194.975 259.395 194.719 259.647 194.513 259.974C194.317 260.291 194.187 260.66 194.121 261.08Z" fill="#4D4D4D"/>
<path d="M116.973 293.539C117.256 293.264 117.714 293.264 117.994 293.539L122.089 297.504C122.375 297.779 122.375 298.222 122.092 298.496L117.997 302.46C117.714 302.735 117.255 302.735 116.975 302.46L116.296 301.802C116.013 301.528 116.013 301.085 116.296 300.814L119.198 298.002L116.296 295.192C116.013 294.918 116.013 294.475 116.296 294.204L116.973 293.539Z" fill="#707070"/>
<path d="M138.246 302V292.2H142.264C142.889 292.2 143.435 292.321 143.902 292.564C144.369 292.797 144.733 293.124 144.994 293.544C145.255 293.964 145.386 294.459 145.386 295.028C145.386 295.681 145.204 296.241 144.84 296.708C144.476 297.165 143.977 297.487 143.342 297.674L145.428 302H144.238L142.25 297.814H139.324V302H138.246ZM139.324 296.918H142.18C142.824 296.918 143.337 296.75 143.72 296.414C144.112 296.069 144.308 295.611 144.308 295.042C144.308 294.463 144.112 294.006 143.72 293.67C143.337 293.325 142.824 293.152 142.18 293.152H139.324V296.918ZM149.839 302.14C149.204 302.14 148.63 301.986 148.117 301.678C147.604 301.361 147.198 300.936 146.899 300.404C146.6 299.863 146.451 299.256 146.451 298.584C146.451 297.912 146.591 297.31 146.871 296.778C147.16 296.246 147.548 295.826 148.033 295.518C148.518 295.21 149.06 295.056 149.657 295.056C150.264 295.056 150.8 295.21 151.267 295.518C151.743 295.817 152.116 296.227 152.387 296.75C152.667 297.263 152.807 297.847 152.807 298.5V298.808H147.445C147.482 299.275 147.608 299.695 147.823 300.068C148.047 300.432 148.336 300.721 148.691 300.936C149.055 301.141 149.452 301.244 149.881 301.244C150.236 301.244 150.576 301.183 150.903 301.062C151.239 300.931 151.524 300.759 151.757 300.544L152.401 301.23C152.009 301.538 151.603 301.767 151.183 301.916C150.763 302.065 150.315 302.14 149.839 302.14ZM147.473 298.08H151.799C151.752 297.669 151.626 297.305 151.421 296.988C151.225 296.661 150.973 296.405 150.665 296.218C150.366 296.031 150.03 295.938 149.657 295.938C149.284 295.938 148.943 296.031 148.635 296.218C148.327 296.395 148.07 296.647 147.865 296.974C147.669 297.291 147.538 297.66 147.473 298.08ZM156.529 302.126C156.044 302.126 155.615 302.037 155.241 301.86C154.868 301.683 154.574 301.44 154.359 301.132C154.154 300.815 154.051 300.451 154.051 300.04C154.051 299.629 154.159 299.275 154.373 298.976C154.588 298.668 154.887 298.43 155.269 298.262C155.652 298.094 156.1 298.01 156.613 298.01C157.005 298.01 157.374 298.052 157.719 298.136C158.074 298.22 158.401 298.355 158.699 298.542V297.604C158.699 297.044 158.55 296.624 158.251 296.344C157.953 296.055 157.514 295.91 156.935 295.91C156.618 295.91 156.291 295.957 155.955 296.05C155.629 296.143 155.265 296.293 154.863 296.498L154.485 295.714C155.4 295.275 156.259 295.056 157.061 295.056C157.911 295.056 158.564 295.266 159.021 295.686C159.479 296.097 159.707 296.689 159.707 297.464V302H158.699V301.202C158.401 301.51 158.069 301.743 157.705 301.902C157.341 302.051 156.949 302.126 156.529 302.126ZM155.031 300.012C155.031 300.413 155.185 300.735 155.493 300.978C155.811 301.221 156.226 301.342 156.739 301.342C157.122 301.342 157.472 301.277 157.789 301.146C158.116 301.015 158.419 300.819 158.699 300.558V299.242C158.41 299.074 158.111 298.953 157.803 298.878C157.495 298.794 157.15 298.752 156.767 298.752C156.245 298.752 155.825 298.869 155.507 299.102C155.19 299.326 155.031 299.629 155.031 300.012ZM161.784 302V291.892L162.806 291.682V302H161.784ZM164.902 302V291.892L165.924 291.682V302H164.902ZM168.313 305.066C168.098 305.066 167.879 305.033 167.655 304.968V304.058C167.748 304.077 167.846 304.091 167.949 304.1C168.051 304.109 168.14 304.114 168.215 304.114C168.476 304.114 168.691 304.044 168.859 303.904C169.036 303.764 169.185 303.545 169.307 303.246L169.811 302L167.179 295.168H168.313L170.385 300.782L172.583 295.168H173.717L170.273 303.554C170.123 303.918 169.96 304.212 169.783 304.436C169.605 304.66 169.4 304.819 169.167 304.912C168.933 305.015 168.649 305.066 168.313 305.066ZM178.259 302V295.168H179.281V296.568C179.458 296.092 179.71 295.723 180.037 295.462C180.373 295.191 180.756 295.056 181.185 295.056C181.306 295.056 181.418 295.065 181.521 295.084C181.624 295.093 181.726 295.117 181.829 295.154V296.078C181.717 296.041 181.596 296.013 181.465 295.994C181.344 295.966 181.227 295.952 181.115 295.952C180.695 295.952 180.326 296.073 180.009 296.316C179.701 296.559 179.458 296.899 179.281 297.338V302H178.259ZM185.837 302.14C185.202 302.14 184.628 301.986 184.115 301.678C183.602 301.361 183.196 300.936 182.897 300.404C182.598 299.863 182.449 299.256 182.449 298.584C182.449 297.912 182.589 297.31 182.869 296.778C183.158 296.246 183.546 295.826 184.031 295.518C184.516 295.21 185.058 295.056 185.655 295.056C186.262 295.056 186.798 295.21 187.265 295.518C187.741 295.817 188.114 296.227 188.385 296.75C188.665 297.263 188.805 297.847 188.805 298.5V298.808H183.443C183.48 299.275 183.606 299.695 183.821 300.068C184.045 300.432 184.334 300.721 184.689 300.936C185.053 301.141 185.45 301.244 185.879 301.244C186.234 301.244 186.574 301.183 186.901 301.062C187.237 300.931 187.522 300.759 187.755 300.544L188.399 301.23C188.007 301.538 187.601 301.767 187.181 301.916C186.761 302.065 186.313 302.14 185.837 302.14ZM183.471 298.08H187.797C187.75 297.669 187.624 297.305 187.419 296.988C187.223 296.661 186.971 296.405 186.663 296.218C186.364 296.031 186.028 295.938 185.655 295.938C185.282 295.938 184.941 296.031 184.633 296.218C184.325 296.395 184.068 296.647 183.863 296.974C183.667 297.291 183.536 297.66 183.471 298.08ZM192.527 302.126C192.042 302.126 191.613 302.037 191.239 301.86C190.866 301.683 190.572 301.44 190.357 301.132C190.152 300.815 190.049 300.451 190.049 300.04C190.049 299.629 190.157 299.275 190.371 298.976C190.586 298.668 190.885 298.43 191.267 298.262C191.65 298.094 192.098 298.01 192.611 298.01C193.003 298.01 193.372 298.052 193.717 298.136C194.072 298.22 194.399 298.355 194.697 298.542V297.604C194.697 297.044 194.548 296.624 194.249 296.344C193.951 296.055 193.512 295.91 192.933 295.91C192.616 295.91 192.289 295.957 191.953 296.05C191.627 296.143 191.263 296.293 190.861 296.498L190.483 295.714C191.398 295.275 192.257 295.056 193.059 295.056C193.909 295.056 194.562 295.266 195.019 295.686C195.477 296.097 195.705 296.689 195.705 297.464V302H194.697V301.202C194.399 301.51 194.067 301.743 193.703 301.902C193.339 302.051 192.947 302.126 192.527 302.126ZM191.029 300.012C191.029 300.413 191.183 300.735 191.491 300.978C191.809 301.221 192.224 301.342 192.737 301.342C193.12 301.342 193.47 301.277 193.787 301.146C194.114 301.015 194.417 300.819 194.697 300.558V299.242C194.408 299.074 194.109 298.953 193.801 298.878C193.493 298.794 193.148 298.752 192.765 298.752C192.243 298.752 191.823 298.869 191.505 299.102C191.188 299.326 191.029 299.629 191.029 300.012ZM197.782 302V291.892L198.804 291.682V302H197.782ZM200.9 302V291.892L201.922 291.682V302H200.9ZM204.311 305.066C204.096 305.066 203.877 305.033 203.653 304.968V304.058C203.746 304.077 203.844 304.091 203.947 304.1C204.049 304.109 204.138 304.114 204.213 304.114C204.474 304.114 204.689 304.044 204.857 303.904C205.034 303.764 205.183 303.545 205.305 303.246L205.809 302L203.177 295.168H204.311L206.383 300.782L208.581 295.168H209.715L206.271 303.554C206.121 303.918 205.958 304.212 205.781 304.436C205.603 304.66 205.398 304.819 205.165 304.912C204.931 305.015 204.647 305.066 204.311 305.066ZM214.257 302V291.892L215.279 291.682V302H214.257ZM220.398 302.112C219.764 302.112 219.194 301.958 218.69 301.65C218.186 301.342 217.79 300.922 217.5 300.39C217.211 299.858 217.066 299.256 217.066 298.584C217.066 297.912 217.211 297.31 217.5 296.778C217.79 296.246 218.186 295.826 218.69 295.518C219.194 295.21 219.764 295.056 220.398 295.056C221.024 295.056 221.584 295.21 222.078 295.518C222.582 295.826 222.979 296.246 223.268 296.778C223.558 297.31 223.702 297.912 223.702 298.584C223.702 299.256 223.558 299.858 223.268 300.39C222.979 300.922 222.582 301.342 222.078 301.65C221.584 301.958 221.024 302.112 220.398 302.112ZM220.384 301.216C220.832 301.216 221.229 301.104 221.574 300.88C221.92 300.647 222.19 300.329 222.386 299.928C222.592 299.527 222.694 299.079 222.694 298.584C222.694 298.08 222.592 297.632 222.386 297.24C222.19 296.839 221.92 296.526 221.574 296.302C221.229 296.069 220.832 295.952 220.384 295.952C219.936 295.952 219.54 296.069 219.194 296.302C218.849 296.526 218.574 296.839 218.368 297.24C218.172 297.632 218.074 298.08 218.074 298.584C218.074 299.079 218.172 299.527 218.368 299.928C218.574 300.329 218.849 300.647 219.194 300.88C219.54 301.104 219.936 301.216 220.384 301.216ZM225.495 302V295.168H226.517V296.274C226.779 295.863 227.091 295.56 227.455 295.364C227.819 295.159 228.23 295.056 228.687 295.056C229.182 295.056 229.611 295.163 229.975 295.378C230.349 295.583 230.638 295.877 230.843 296.26C231.058 296.633 231.165 297.072 231.165 297.576V302H230.143V297.87C230.143 297.263 229.975 296.787 229.639 296.442C229.313 296.087 228.869 295.91 228.309 295.91C227.936 295.91 227.595 295.999 227.287 296.176C226.979 296.353 226.723 296.615 226.517 296.96V302H225.495ZM236.384 305.066C235.927 305.066 235.465 305.001 234.998 304.87C234.541 304.749 234.116 304.576 233.724 304.352L234.158 303.568C234.578 303.783 234.961 303.941 235.306 304.044C235.651 304.147 235.997 304.198 236.342 304.198C236.967 304.198 237.439 304.049 237.756 303.75C238.083 303.451 238.246 303.017 238.246 302.448V301.076C237.985 301.403 237.667 301.655 237.294 301.832C236.921 302 236.51 302.084 236.062 302.084C235.474 302.084 234.942 301.93 234.466 301.622C233.99 301.305 233.612 300.885 233.332 300.362C233.052 299.83 232.912 299.237 232.912 298.584C232.912 297.931 233.052 297.343 233.332 296.82C233.621 296.288 234.009 295.868 234.494 295.56C234.979 295.243 235.521 295.084 236.118 295.084C236.547 295.084 236.944 295.168 237.308 295.336C237.672 295.495 237.989 295.733 238.26 296.05V295.168H239.268V302.434C239.268 303.283 239.021 303.932 238.526 304.38C238.031 304.837 237.317 305.066 236.384 305.066ZM236.314 301.202C236.715 301.202 237.084 301.123 237.42 300.964C237.756 300.796 238.031 300.567 238.246 300.278V296.904C238.022 296.615 237.737 296.391 237.392 296.232C237.056 296.064 236.697 295.98 236.314 295.98C235.857 295.98 235.446 296.092 235.082 296.316C234.727 296.54 234.443 296.848 234.228 297.24C234.023 297.632 233.92 298.08 233.92 298.584C233.92 299.079 234.023 299.527 234.228 299.928C234.443 300.32 234.727 300.633 235.082 300.866C235.446 301.09 235.857 301.202 236.314 301.202ZM245.504 302V296.008H243.978V295.168H245.504V293.74C245.504 293.068 245.681 292.55 246.036 292.186C246.391 291.822 246.895 291.64 247.548 291.64C247.735 291.64 247.903 291.649 248.052 291.668C248.211 291.687 248.351 291.719 248.472 291.766V292.69C248.323 292.643 248.187 292.611 248.066 292.592C247.945 292.573 247.805 292.564 247.646 292.564C247.254 292.564 246.969 292.662 246.792 292.858C246.615 293.045 246.526 293.343 246.526 293.754V295.168H248.472V296.008H246.526V302H245.504ZM252.554 302.112C251.92 302.112 251.35 301.958 250.846 301.65C250.342 301.342 249.946 300.922 249.656 300.39C249.367 299.858 249.222 299.256 249.222 298.584C249.222 297.912 249.367 297.31 249.656 296.778C249.946 296.246 250.342 295.826 250.846 295.518C251.35 295.21 251.92 295.056 252.554 295.056C253.18 295.056 253.74 295.21 254.234 295.518C254.738 295.826 255.135 296.246 255.424 296.778C255.714 297.31 255.858 297.912 255.858 298.584C255.858 299.256 255.714 299.858 255.424 300.39C255.135 300.922 254.738 301.342 254.234 301.65C253.74 301.958 253.18 302.112 252.554 302.112ZM252.54 301.216C252.988 301.216 253.385 301.104 253.73 300.88C254.076 300.647 254.346 300.329 254.542 299.928C254.748 299.527 254.85 299.079 254.85 298.584C254.85 298.08 254.748 297.632 254.542 297.24C254.346 296.839 254.076 296.526 253.73 296.302C253.385 296.069 252.988 295.952 252.54 295.952C252.092 295.952 251.696 296.069 251.35 296.302C251.005 296.526 250.73 296.839 250.524 297.24C250.328 297.632 250.23 298.08 250.23 298.584C250.23 299.079 250.328 299.527 250.524 299.928C250.73 300.329 251.005 300.647 251.35 300.88C251.696 301.104 252.092 301.216 252.54 301.216ZM257.652 302V291.892L258.674 291.682V302H257.652ZM263.611 302.098C263.023 302.098 262.491 301.944 262.015 301.636C261.539 301.319 261.161 300.899 260.881 300.376C260.601 299.844 260.461 299.251 260.461 298.598C260.461 297.935 260.601 297.343 260.881 296.82C261.17 296.288 261.557 295.868 262.043 295.56C262.528 295.243 263.069 295.084 263.667 295.084C264.087 295.084 264.479 295.168 264.843 295.336C265.207 295.495 265.524 295.728 265.795 296.036V291.892L266.817 291.682V302H265.795V301.09C265.533 301.417 265.216 301.669 264.843 301.846C264.469 302.014 264.059 302.098 263.611 302.098ZM263.863 301.202C264.264 301.202 264.633 301.123 264.969 300.964C265.305 300.805 265.58 300.581 265.795 300.292V296.904C265.571 296.615 265.286 296.391 264.941 296.232C264.605 296.064 264.245 295.98 263.863 295.98C263.405 295.98 262.995 296.092 262.631 296.316C262.276 296.54 261.991 296.848 261.777 297.24C261.571 297.632 261.469 298.08 261.469 298.584C261.469 299.079 261.571 299.527 261.777 299.928C261.991 300.32 262.276 300.633 262.631 300.866C262.995 301.09 263.405 301.202 263.863 301.202ZM271.997 302.14C271.363 302.14 270.789 301.986 270.275 301.678C269.762 301.361 269.356 300.936 269.057 300.404C268.759 299.863 268.609 299.256 268.609 298.584C268.609 297.912 268.749 297.31 269.029 296.778C269.319 296.246 269.706 295.826 270.191 295.518C270.677 295.21 271.218 295.056 271.815 295.056C272.422 295.056 272.959 295.21 273.425 295.518C273.901 295.817 274.275 296.227 274.545 296.75C274.825 297.263 274.965 297.847 274.965 298.5V298.808H269.603C269.641 299.275 269.767 299.695 269.981 300.068C270.205 300.432 270.495 300.721 270.849 300.936C271.213 301.141 271.61 301.244 272.039 301.244C272.394 301.244 272.735 301.183 273.061 301.062C273.397 300.931 273.682 300.759 273.915 300.544L274.559 301.23C274.167 301.538 273.761 301.767 273.341 301.916C272.921 302.065 272.473 302.14 271.997 302.14ZM269.631 298.08H273.957C273.911 297.669 273.785 297.305 273.579 296.988C273.383 296.661 273.131 296.405 272.823 296.218C272.525 296.031 272.189 295.938 271.815 295.938C271.442 295.938 271.101 296.031 270.793 296.218C270.485 296.395 270.229 296.647 270.023 296.974C269.827 297.291 269.697 297.66 269.631 298.08ZM276.71 302V295.168H277.732V296.568C277.909 296.092 278.161 295.723 278.488 295.462C278.824 295.191 279.207 295.056 279.636 295.056C279.757 295.056 279.869 295.065 279.972 295.084C280.075 295.093 280.177 295.117 280.28 295.154V296.078C280.168 296.041 280.047 296.013 279.916 295.994C279.795 295.966 279.678 295.952 279.566 295.952C279.146 295.952 278.777 296.073 278.46 296.316C278.152 296.559 277.909 296.899 277.732 297.338V302H276.71ZM284.9 302V295.168H285.922V296.274C286.183 295.863 286.496 295.56 286.86 295.364C287.224 295.159 287.634 295.056 288.092 295.056C288.586 295.056 289.016 295.163 289.38 295.378C289.753 295.583 290.042 295.877 290.248 296.26C290.462 296.633 290.57 297.072 290.57 297.576V302H289.548V297.87C289.548 297.263 289.38 296.787 289.044 296.442C288.717 296.087 288.274 295.91 287.714 295.91C287.34 295.91 287 295.999 286.692 296.176C286.384 296.353 286.127 296.615 285.922 296.96V302H284.9ZM294.738 302.126C294.253 302.126 293.824 302.037 293.45 301.86C293.077 301.683 292.783 301.44 292.568 301.132C292.363 300.815 292.26 300.451 292.26 300.04C292.26 299.629 292.368 299.275 292.582 298.976C292.797 298.668 293.096 298.43 293.478 298.262C293.861 298.094 294.309 298.01 294.822 298.01C295.214 298.01 295.583 298.052 295.928 298.136C296.283 298.22 296.61 298.355 296.908 298.542V297.604C296.908 297.044 296.759 296.624 296.46 296.344C296.162 296.055 295.723 295.91 295.144 295.91C294.827 295.91 294.5 295.957 294.164 296.05C293.838 296.143 293.474 296.293 293.072 296.498L292.694 295.714C293.609 295.275 294.468 295.056 295.27 295.056C296.12 295.056 296.773 295.266 297.23 295.686C297.688 296.097 297.916 296.689 297.916 297.464V302H296.908V301.202C296.61 301.51 296.278 301.743 295.914 301.902C295.55 302.051 295.158 302.126 294.738 302.126ZM293.24 300.012C293.24 300.413 293.394 300.735 293.702 300.978C294.02 301.221 294.435 301.342 294.948 301.342C295.331 301.342 295.681 301.277 295.998 301.146C296.325 301.015 296.628 300.819 296.908 300.558V299.242C296.619 299.074 296.32 298.953 296.012 298.878C295.704 298.794 295.359 298.752 294.976 298.752C294.454 298.752 294.034 298.869 293.716 299.102C293.399 299.326 293.24 299.629 293.24 300.012ZM299.993 302V295.168H301.015V296.232C301.277 295.84 301.575 295.546 301.911 295.35C302.247 295.154 302.625 295.056 303.045 295.056C303.531 295.056 303.955 295.177 304.319 295.42C304.683 295.653 304.959 295.975 305.145 296.386C305.416 295.947 305.738 295.616 306.111 295.392C306.494 295.168 306.933 295.056 307.427 295.056C307.885 295.056 308.286 295.163 308.631 295.378C308.986 295.593 309.261 295.891 309.457 296.274C309.653 296.647 309.751 297.086 309.751 297.59V302H308.729V297.842C308.729 297.245 308.58 296.773 308.281 296.428C307.983 296.083 307.572 295.91 307.049 295.91C306.695 295.91 306.373 295.999 306.083 296.176C305.803 296.353 305.556 296.624 305.341 296.988C305.36 297.081 305.374 297.179 305.383 297.282C305.393 297.385 305.397 297.487 305.397 297.59V302H304.375V297.842C304.375 297.245 304.221 296.773 303.913 296.428C303.615 296.083 303.204 295.91 302.681 295.91C301.981 295.91 301.426 296.246 301.015 296.918V302H299.993ZM314.9 302.14C314.265 302.14 313.691 301.986 313.178 301.678C312.664 301.361 312.258 300.936 311.96 300.404C311.661 299.863 311.512 299.256 311.512 298.584C311.512 297.912 311.652 297.31 311.932 296.778C312.221 296.246 312.608 295.826 313.094 295.518C313.579 295.21 314.12 295.056 314.718 295.056C315.324 295.056 315.861 295.21 316.328 295.518C316.804 295.817 317.177 296.227 317.448 296.75C317.728 297.263 317.868 297.847 317.868 298.5V298.808H312.506C312.543 299.275 312.669 299.695 312.884 300.068C313.108 300.432 313.397 300.721 313.752 300.936C314.116 301.141 314.512 301.244 314.942 301.244C315.296 301.244 315.637 301.183 315.964 301.062C316.3 300.931 316.584 300.759 316.818 300.544L317.462 301.23C317.07 301.538 316.664 301.767 316.244 301.916C315.824 302.065 315.376 302.14 314.9 302.14ZM312.534 298.08H316.86C316.813 297.669 316.687 297.305 316.482 296.988C316.286 296.661 316.034 296.405 315.726 296.218C315.427 296.031 315.091 295.938 314.718 295.938C314.344 295.938 314.004 296.031 313.696 296.218C313.388 296.395 313.131 296.647 312.926 296.974C312.73 297.291 312.599 297.66 312.534 298.08ZM319.957 302.112C319.752 302.112 319.574 302.037 319.425 301.888C319.285 301.739 319.215 301.561 319.215 301.356C319.215 301.141 319.285 300.964 319.425 300.824C319.574 300.675 319.752 300.6 319.957 300.6C320.162 300.6 320.335 300.675 320.475 300.824C320.624 300.964 320.699 301.141 320.699 301.356C320.699 301.561 320.624 301.739 320.475 301.888C320.335 302.037 320.162 302.112 319.957 302.112ZM323.457 302.112C323.252 302.112 323.074 302.037 322.925 301.888C322.785 301.739 322.715 301.561 322.715 301.356C322.715 301.141 322.785 300.964 322.925 300.824C323.074 300.675 323.252 300.6 323.457 300.6C323.662 300.6 323.835 300.675 323.975 300.824C324.124 300.964 324.199 301.141 324.199 301.356C324.199 301.561 324.124 301.739 323.975 301.888C323.835 302.037 323.662 302.112 323.457 302.112ZM326.957 302.112C326.752 302.112 326.574 302.037 326.425 301.888C326.285 301.739 326.215 301.561 326.215 301.356C326.215 301.141 326.285 300.964 326.425 300.824C326.574 300.675 326.752 300.6 326.957 300.6C327.162 300.6 327.335 300.675 327.475 300.824C327.624 300.964 327.699 301.141 327.699 301.356C327.699 301.561 327.624 301.739 327.475 301.888C327.335 302.037 327.162 302.112 326.957 302.112Z" fill="#4D4D4D"/>
<path d="M49 100C49 97.7909 50.7909 96 53 96H83C85.2091 96 87 97.7909 87 100V124C87 126.209 85.2091 128 83 128H53C50.7909 128 49 126.209 49 124V100Z" fill="#C806CC"/>
<path d="M67.8879 118V107.254L65.6199 108.208V106.624L68.5359 105.4H69.6699V118H67.8879Z" fill="white"/>
<path d="M106.667 112C106.667 113.473 105.473 114.667 104 114.667C102.527 114.667 101.333 113.473 101.333 112C101.333 110.527 102.527 109.333 104 109.333C105.473 109.333 106.667 110.527 106.667 112ZM104 112V112.5H87V112V111.5H104V112Z" fill="#C806CC"/>
<path d="M154 57C154 54.7909 155.791 53 158 53H192C194.209 53 196 54.7909 196 57V81C196 83.2091 194.209 85 192 85H158C155.791 85 154 83.2091 154 81V57Z" fill="#C806CC"/>
<path d="M170.89 75V73.74L176.002 68.304C176.518 67.764 176.866 67.302 177.046 66.918C177.238 66.534 177.334 66.126 177.334 65.694C177.334 65.13 177.106 64.662 176.65 64.29C176.194 63.918 175.618 63.732 174.922 63.732C174.346 63.732 173.806 63.846 173.302 64.074C172.798 64.302 172.24 64.698 171.628 65.262L170.656 64.074C171.988 62.826 173.422 62.202 174.958 62.202C175.762 62.202 176.47 62.346 177.082 62.634C177.694 62.922 178.168 63.324 178.504 63.84C178.852 64.344 179.026 64.926 179.026 65.586C179.026 66.006 178.972 66.396 178.864 66.756C178.756 67.104 178.57 67.476 178.306 67.872C178.042 68.256 177.67 68.7 177.19 69.204L173.086 73.524L179.278 73.506V75H170.89Z" fill="white"/>
<path d="M175 99.3333C173.527 99.3333 172.333 100.527 172.333 102C172.333 103.473 173.527 104.667 175 104.667C176.473 104.667 177.667 103.473 177.667 102C177.667 100.527 176.473 99.3333 175 99.3333ZM175 85L174.5 85L174.5 102L175 102L175.5 102L175.5 85L175 85Z" fill="#C806CC"/>
<path d="M232.333 150C232.333 151.473 233.527 152.667 235 152.667C236.473 152.667 237.667 151.473 237.667 150C237.667 148.527 236.473 147.333 235 147.333C233.527 147.333 232.333 148.527 232.333 150ZM235 150V150.5H269V150V149.5H235V150Z" fill="#C806CC"/>
<path d="M269 138C269 135.791 270.791 134 273 134H308C310.209 134 312 135.791 312 138V162C312 164.209 310.209 166 308 166H273C270.791 166 269 164.209 269 162V138Z" fill="#C806CC"/>
<path d="M290.359 156.198C289.459 156.198 288.613 156.042 287.821 155.73C287.041 155.406 286.363 154.944 285.787 154.344L286.957 153.228C287.461 153.756 287.971 154.134 288.487 154.362C289.015 154.578 289.633 154.686 290.341 154.686C291.193 154.686 291.883 154.476 292.411 154.056C292.951 153.636 293.221 153.096 293.221 152.436C293.221 151.812 292.993 151.308 292.537 150.924C292.093 150.54 291.517 150.348 290.809 150.348H289.279V148.89H290.683C291.319 148.89 291.829 148.704 292.213 148.332C292.597 147.96 292.789 147.474 292.789 146.874C292.789 146.466 292.681 146.106 292.465 145.794C292.249 145.47 291.949 145.218 291.565 145.038C291.193 144.846 290.767 144.75 290.287 144.75C289.651 144.75 289.087 144.864 288.595 145.092C288.115 145.308 287.617 145.692 287.101 146.244L285.931 145.128C286.507 144.504 287.173 144.03 287.929 143.706C288.685 143.37 289.483 143.202 290.323 143.202C291.139 143.202 291.859 143.352 292.483 143.652C293.119 143.952 293.617 144.366 293.977 144.894C294.349 145.422 294.535 146.028 294.535 146.712C294.535 147.384 294.313 147.978 293.869 148.494C293.437 149.01 292.867 149.37 292.159 149.574C293.011 149.754 293.689 150.114 294.193 150.654C294.697 151.182 294.949 151.806 294.949 152.526C294.949 153.234 294.751 153.864 294.355 154.416C293.971 154.968 293.431 155.406 292.735 155.73C292.039 156.042 291.247 156.198 290.359 156.198Z" fill="white"/>
<path d="M260.333 188C260.333 189.473 261.527 190.667 263 190.667C264.473 190.667 265.667 189.473 265.667 188C265.667 186.527 264.473 185.333 263 185.333C261.527 185.333 260.333 186.527 260.333 188ZM263 188V188.5H277V188V187.5H263V188Z" fill="#C806CC"/>
<path d="M277 176C277 173.791 278.791 172 281 172H317C319.209 172 321 173.791 321 176V200C321 202.209 319.209 204 317 204H281C278.791 204 277 202.209 277 200V176Z" fill="#C806CC"/>
<path d="M300.866 194V190.796H293.72V189.374L300.65 181.4H302.648V189.284H304.178V190.796H302.648V194H300.866ZM295.862 189.284H300.866V183.524L295.862 189.284Z" fill="white"/>
<path d="M294.5 312.333C293.027 312.333 291.833 313.527 291.833 315C291.833 316.473 293.027 317.667 294.5 317.667C295.973 317.667 297.167 316.473 297.167 315C297.167 313.527 295.973 312.333 294.5 312.333ZM294.5 315L294 315L294 329L294.5 329L295 329L295 315L294.5 315Z" fill="#C806CC"/>
<path d="M273 333C273 330.791 274.791 329 277 329H312C314.209 329 316 330.791 316 333V357C316 359.209 314.209 361 312 361H277C274.791 361 273 359.209 273 357V333Z" fill="#C806CC"/>
<path d="M294.302 351.198C292.622 351.198 291.164 350.628 289.928 349.488L290.99 348.3C291.53 348.792 292.064 349.152 292.592 349.38C293.132 349.596 293.72 349.704 294.356 349.704C295.208 349.704 295.892 349.458 296.408 348.966C296.936 348.474 297.2 347.838 297.2 347.058C297.2 346.302 296.93 345.69 296.39 345.222C295.862 344.754 295.172 344.52 294.32 344.52C293.888 344.52 293.462 344.58 293.042 344.7C292.622 344.808 292.184 344.982 291.728 345.222L290.504 344.844L290.792 338.4H298.28V339.894H292.304L292.124 343.782C292.592 343.542 293.036 343.38 293.456 343.296C293.888 343.2 294.332 343.152 294.788 343.152C295.628 343.152 296.354 343.314 296.966 343.638C297.59 343.95 298.076 344.394 298.424 344.97C298.772 345.546 298.946 346.212 298.946 346.968C298.946 347.808 298.748 348.546 298.352 349.182C297.968 349.806 297.428 350.298 296.732 350.658C296.036 351.018 295.226 351.198 294.302 351.198Z" fill="white"/>
<rect x="40" y="4" width="97.6875" height="30" rx="3" fill="white"/>
<rect x="40.5" y="4.5" width="96.6875" height="29" rx="2.5" stroke="white" stroke-opacity="0.0980392"/>
<path d="M49.1094 22.125C48.6094 22.125 48.168 21.9987 47.7852 21.7461C47.4023 21.4909 47.1029 21.1315 46.8867 20.668C46.6706 20.2018 46.5625 19.651 46.5625 19.0156C46.5625 18.3854 46.6706 17.8385 46.8867 17.375C47.1029 16.9115 47.4036 16.5534 47.7891 16.3008C48.1745 16.0482 48.6198 15.9219 49.125 15.9219C49.5156 15.9219 49.8242 15.987 50.0508 16.1172C50.2799 16.2448 50.4544 16.3906 50.5742 16.5547C50.6966 16.7161 50.7917 16.849 50.8594 16.9531H50.9375V14H51.8594V22H50.9688V21.0781H50.8594C50.7917 21.1875 50.6953 21.3255 50.5703 21.4922C50.4453 21.6562 50.2669 21.8034 50.0352 21.9336C49.8034 22.0612 49.4948 22.125 49.1094 22.125ZM49.2344 21.2969C49.6042 21.2969 49.9167 21.2005 50.1719 21.0078C50.4271 20.8125 50.6211 20.543 50.7539 20.1992C50.8867 19.8529 50.9531 19.4531 50.9531 19C50.9531 18.5521 50.888 18.1602 50.7578 17.8242C50.6276 17.4857 50.4349 17.2227 50.1797 17.0352C49.9245 16.8451 49.6094 16.75 49.2344 16.75C48.8438 16.75 48.5182 16.8503 48.2578 17.0508C48 17.2487 47.806 17.5182 47.6758 17.8594C47.5482 18.1979 47.4844 18.5781 47.4844 19C47.4844 19.4271 47.5495 19.8151 47.6797 20.1641C47.8125 20.5104 48.0078 20.7865 48.2656 20.9922C48.526 21.1953 48.849 21.2969 49.2344 21.2969ZM56.1914 22.125C55.6133 22.125 55.1146 21.9974 54.6953 21.7422C54.2786 21.4844 53.957 21.125 53.7305 20.6641C53.5065 20.2005 53.3945 19.6615 53.3945 19.0469C53.3945 18.4323 53.5065 17.8906 53.7305 17.4219C53.957 16.9505 54.2721 16.5833 54.6758 16.3203C55.082 16.0547 55.556 15.9219 56.0977 15.9219C56.4102 15.9219 56.7188 15.974 57.0234 16.0781C57.3281 16.1823 57.6055 16.3516 57.8555 16.5859C58.1055 16.8177 58.3047 17.125 58.4531 17.5078C58.6016 17.8906 58.6758 18.362 58.6758 18.9219V19.3125H54.0508V18.5156H57.7383C57.7383 18.1771 57.6706 17.875 57.5352 17.6094C57.4023 17.3437 57.2122 17.1341 56.9648 16.9805C56.7201 16.8268 56.431 16.75 56.0977 16.75C55.7305 16.75 55.4128 16.8411 55.1445 17.0234C54.8789 17.2031 54.6745 17.4375 54.5313 17.7266C54.388 18.0156 54.3164 18.3255 54.3164 18.6562V19.1875C54.3164 19.6406 54.3945 20.0247 54.5508 20.3398C54.7096 20.6523 54.9297 20.8906 55.2109 21.0547C55.4922 21.2161 55.819 21.2969 56.1914 21.2969C56.4336 21.2969 56.6523 21.263 56.8477 21.1953C57.0456 21.125 57.2161 21.0208 57.3594 20.8828C57.5026 20.7422 57.6133 20.5677 57.6914 20.3594L58.582 20.6094C58.4883 20.9115 58.3307 21.1771 58.1094 21.4062C57.888 21.6328 57.6146 21.8099 57.2891 21.9375C56.9635 22.0625 56.5977 22.125 56.1914 22.125ZM62.75 16V16.7812H59.5156V16H62.75ZM60.4844 22V15.1719C60.4844 14.8281 60.5651 14.5417 60.7266 14.3125C60.888 14.0833 61.0977 13.9115 61.3555 13.7969C61.6133 13.6823 61.8854 13.625 62.1719 13.625C62.3984 13.625 62.5833 13.6432 62.7266 13.6797C62.8698 13.7161 62.9766 13.75 63.0469 13.7812L62.7813 14.5781C62.7344 14.5625 62.6693 14.543 62.5859 14.5195C62.5052 14.4961 62.3984 14.4844 62.2656 14.4844C61.9609 14.4844 61.7409 14.5612 61.6055 14.7148C61.4727 14.8685 61.4063 15.0937 61.4063 15.3906V22H60.4844ZM65.6357 22.1406C65.2555 22.1406 64.9105 22.069 64.6006 21.9258C64.2907 21.7799 64.0446 21.5703 63.8623 21.2969C63.68 21.0208 63.5889 20.6875 63.5889 20.2969C63.5889 19.9531 63.6566 19.6745 63.792 19.4609C63.9274 19.2448 64.1084 19.0755 64.335 18.9531C64.5615 18.8307 64.8115 18.7396 65.085 18.6797C65.361 18.6172 65.6383 18.5677 65.917 18.5313C66.2816 18.4844 66.5771 18.4492 66.8037 18.4258C67.0329 18.3997 67.1995 18.3568 67.3037 18.2969C67.4105 18.237 67.4639 18.1328 67.4639 17.9844V17.9531C67.4639 17.5677 67.3584 17.2682 67.1475 17.0547C66.9391 16.8411 66.6227 16.7344 66.1982 16.7344C65.7581 16.7344 65.4131 16.8307 65.1631 17.0234C64.9131 17.2161 64.7373 17.4219 64.6357 17.6406L63.7607 17.3281C63.917 16.9635 64.1253 16.6797 64.3857 16.4766C64.6488 16.2708 64.9352 16.1276 65.2451 16.0469C65.5576 15.9635 65.8649 15.9219 66.167 15.9219C66.3597 15.9219 66.5811 15.9453 66.8311 15.9922C67.0837 16.0365 67.3271 16.1289 67.5615 16.2695C67.7985 16.4102 67.9951 16.6224 68.1514 16.9062C68.3076 17.1901 68.3857 17.5703 68.3857 18.0469V22H67.4639V21.1875H67.417C67.3545 21.3177 67.2503 21.457 67.1045 21.6055C66.9587 21.7539 66.7646 21.8802 66.5225 21.9844C66.2803 22.0885 65.9847 22.1406 65.6357 22.1406ZM65.7764 21.3125C66.141 21.3125 66.4482 21.2409 66.6982 21.0977C66.9508 20.9544 67.141 20.7695 67.2686 20.543C67.3988 20.3164 67.4639 20.0781 67.4639 19.8281V18.9844C67.4248 19.0312 67.3389 19.0742 67.2061 19.1133C67.0758 19.1497 66.9248 19.1823 66.7529 19.2109C66.5837 19.237 66.4183 19.2604 66.2568 19.2812C66.098 19.2995 65.9691 19.3151 65.8701 19.3281C65.6305 19.3594 65.4066 19.4102 65.1982 19.4805C64.9925 19.5482 64.8258 19.651 64.6982 19.7891C64.5732 19.9245 64.5107 20.1094 64.5107 20.3437C64.5107 20.6641 64.6292 20.9062 64.8662 21.0703C65.1058 21.2318 65.4092 21.3125 65.7764 21.3125ZM73.8496 19.5469V16H74.7715V22H73.8496V20.9844H73.7871C73.6465 21.2891 73.4277 21.5482 73.1309 21.7617C72.834 21.9727 72.459 22.0781 72.0059 22.0781C71.6309 22.0781 71.2975 21.9961 71.0059 21.832C70.7142 21.6654 70.485 21.4154 70.3184 21.082C70.1517 20.7461 70.0684 20.3229 70.0684 19.8125V16H70.9902V19.75C70.9902 20.1875 71.1126 20.5365 71.3574 20.7969C71.6048 21.0573 71.9199 21.1875 72.3027 21.1875C72.5319 21.1875 72.765 21.1289 73.002 21.0117C73.2415 20.8945 73.4421 20.7148 73.6035 20.4727C73.7676 20.2305 73.8496 19.9219 73.8496 19.5469ZM77.3818 14V22H76.46V14H77.3818ZM81.6797 16V16.7812H78.5703V16H81.6797ZM79.4766 14.5625H80.3984V20.2812C80.3984 20.5417 80.4362 20.737 80.5117 20.8672C80.5898 20.9948 80.6888 21.0807 80.8086 21.125C80.931 21.1667 81.0599 21.1875 81.1953 21.1875C81.2969 21.1875 81.3802 21.1823 81.4453 21.1719C81.5104 21.1589 81.5625 21.1484 81.6016 21.1406L81.7891 21.9687C81.7266 21.9922 81.6393 22.0156 81.5273 22.0391C81.4154 22.0651 81.2734 22.0781 81.1016 22.0781C80.8411 22.0781 80.5859 22.0221 80.3359 21.9102C80.0885 21.7982 79.8828 21.6276 79.7187 21.3984C79.5573 21.1693 79.4766 20.8802 79.4766 20.5312V14.5625ZM86.2891 18.1406V19H82.7891V18.1406H86.2891ZM90.5205 16V16.7812H87.4111V16H90.5205ZM88.3174 14.5625H89.2393V20.2812C89.2393 20.5417 89.277 20.737 89.3525 20.8672C89.4307 20.9948 89.5296 21.0807 89.6494 21.125C89.7718 21.1667 89.9007 21.1875 90.0361 21.1875C90.1377 21.1875 90.221 21.1823 90.2861 21.1719C90.3512 21.1589 90.4033 21.1484 90.4424 21.1406L90.6299 21.9687C90.5674 21.9922 90.4801 22.0156 90.3682 22.0391C90.2562 22.0651 90.1143 22.0781 89.9424 22.0781C89.682 22.0781 89.4268 22.0221 89.1768 21.9102C88.9294 21.7982 88.7236 21.6276 88.5596 21.3984C88.3981 21.1693 88.3174 20.8802 88.3174 20.5312V14.5625ZM91.9072 22V16H92.7979V16.9062H92.8604C92.9697 16.6094 93.1676 16.3685 93.4541 16.1836C93.7406 15.9987 94.0635 15.9062 94.4229 15.9062C94.4906 15.9062 94.5752 15.9076 94.6768 15.9102C94.7783 15.9128 94.8551 15.9167 94.9072 15.9219V16.8594C94.876 16.8516 94.8044 16.8398 94.6924 16.8242C94.583 16.806 94.4671 16.7969 94.3447 16.7969C94.0531 16.7969 93.7926 16.8581 93.5635 16.9805C93.3369 17.1003 93.1572 17.2669 93.0244 17.4805C92.8942 17.6914 92.8291 17.9323 92.8291 18.2031V22H91.9072ZM98.333 22.125C97.7549 22.125 97.2562 21.9974 96.8369 21.7422C96.4202 21.4844 96.0986 21.125 95.8721 20.6641C95.6481 20.2005 95.5361 19.6615 95.5361 19.0469C95.5361 18.4323 95.6481 17.8906 95.8721 17.4219C96.0986 16.9505 96.4137 16.5833 96.8174 16.3203C97.2236 16.0547 97.6976 15.9219 98.2393 15.9219C98.5518 15.9219 98.8604 15.974 99.165 16.0781C99.4697 16.1823 99.7471 16.3516 99.9971 16.5859C100.247 16.8177 100.446 17.125 100.595 17.5078C100.743 17.8906 100.817 18.362 100.817 18.9219V19.3125H96.1924V18.5156H99.8799C99.8799 18.1771 99.8122 17.875 99.6768 17.6094C99.5439 17.3437 99.3538 17.1341 99.1064 16.9805C98.8617 16.8268 98.5726 16.75 98.2393 16.75C97.8721 16.75 97.5544 16.8411 97.2861 17.0234C97.0205 17.2031 96.8161 17.4375 96.6729 17.7266C96.5296 18.0156 96.458 18.3255 96.458 18.6562V19.1875C96.458 19.6406 96.5361 20.0247 96.6924 20.3398C96.8512 20.6523 97.0713 20.8906 97.3525 21.0547C97.6338 21.2161 97.9606 21.2969 98.333 21.2969C98.5752 21.2969 98.7939 21.263 98.9893 21.1953C99.1872 21.125 99.3577 21.0208 99.501 20.8828C99.6442 20.7422 99.7549 20.5677 99.833 20.3594L100.724 20.6094C100.63 20.9115 100.472 21.1771 100.251 21.4062C100.03 21.6328 99.7562 21.8099 99.4307 21.9375C99.1051 22.0625 98.7393 22.125 98.333 22.125ZM104.735 22.125C104.157 22.125 103.659 21.9974 103.239 21.7422C102.823 21.4844 102.501 21.125 102.274 20.6641C102.05 20.2005 101.938 19.6615 101.938 19.0469C101.938 18.4323 102.05 17.8906 102.274 17.4219C102.501 16.9505 102.816 16.5833 103.22 16.3203C103.626 16.0547 104.1 15.9219 104.642 15.9219C104.954 15.9219 105.263 15.974 105.567 16.0781C105.872 16.1823 106.149 16.3516 106.399 16.5859C106.649 16.8177 106.849 17.125 106.997 17.5078C107.146 17.8906 107.22 18.362 107.22 18.9219V19.3125H102.595V18.5156H106.282C106.282 18.1771 106.215 17.875 106.079 17.6094C105.946 17.3437 105.756 17.1341 105.509 16.9805C105.264 16.8268 104.975 16.75 104.642 16.75C104.274 16.75 103.957 16.8411 103.688 17.0234C103.423 17.2031 103.218 17.4375 103.075 17.7266C102.932 18.0156 102.86 18.3255 102.86 18.6562V19.1875C102.86 19.6406 102.938 20.0247 103.095 20.3398C103.254 20.6523 103.474 20.8906 103.755 21.0547C104.036 21.2161 104.363 21.2969 104.735 21.2969C104.978 21.2969 105.196 21.263 105.392 21.1953C105.59 21.125 105.76 21.0208 105.903 20.8828C106.047 20.7422 106.157 20.5677 106.235 20.3594L107.126 20.6094C107.032 20.9115 106.875 21.1771 106.653 21.4062C106.432 21.6328 106.159 21.8099 105.833 21.9375C105.507 22.0625 105.142 22.125 104.735 22.125ZM113.346 16L111.127 22H110.189L107.971 16H108.971L110.627 20.7812H110.689L112.346 16H113.346ZM114.563 22V16H115.484V22H114.563ZM115.031 15C114.852 15 114.697 14.9388 114.566 14.8164C114.439 14.694 114.375 14.5469 114.375 14.375C114.375 14.2031 114.439 14.056 114.566 13.9336C114.697 13.8112 114.852 13.75 115.031 13.75C115.211 13.75 115.365 13.8112 115.492 13.9336C115.622 14.056 115.688 14.2031 115.688 14.375C115.688 14.5469 115.622 14.694 115.492 14.8164C115.365 14.9388 115.211 15 115.031 15ZM119.688 22.125C119.11 22.125 118.612 21.9974 118.192 21.7422C117.776 21.4844 117.454 21.125 117.228 20.6641C117.004 20.2005 116.892 19.6615 116.892 19.0469C116.892 18.4323 117.004 17.8906 117.228 17.4219C117.454 16.9505 117.769 16.5833 118.173 16.3203C118.579 16.0547 119.053 15.9219 119.595 15.9219C119.907 15.9219 120.216 15.974 120.521 16.0781C120.825 16.1823 121.103 16.3516 121.353 16.5859C121.603 16.8177 121.802 17.125 121.95 17.5078C122.099 17.8906 122.173 18.362 122.173 18.9219V19.3125H117.548V18.5156H121.235C121.235 18.1771 121.168 17.875 121.032 17.6094C120.899 17.3437 120.709 17.1341 120.462 16.9805C120.217 16.8268 119.928 16.75 119.595 16.75C119.228 16.75 118.91 16.8411 118.642 17.0234C118.376 17.2031 118.172 17.4375 118.028 17.7266C117.885 18.0156 117.813 18.3255 117.813 18.6562V19.1875C117.813 19.6406 117.892 20.0247 118.048 20.3398C118.207 20.6523 118.427 20.8906 118.708 21.0547C118.989 21.2161 119.316 21.2969 119.688 21.2969C119.931 21.2969 120.149 21.263 120.345 21.1953C120.543 21.125 120.713 21.0208 120.856 20.8828C121 20.7422 121.11 20.5677 121.188 20.3594L122.079 20.6094C121.985 20.9115 121.828 21.1771 121.606 21.4062C121.385 21.6328 121.112 21.8099 120.786 21.9375C120.461 22.0625 120.095 22.125 119.688 22.125ZM124.935 22L123.106 16H124.075L125.372 20.5938H125.435L126.716 16H127.7L128.966 20.5781H129.028L130.325 16H131.294L129.466 22H128.56L127.247 17.3906H127.153L125.841 22H124.935Z" fill="black"/>
</svg>
