<svg width="580" height="332" viewBox="0 0 580 332" fill="none" xmlns="http://www.w3.org/2000/svg">
<rect width="580" height="332" fill="white"/>
<path d="M288.611 42.5882C289.508 42.2493 290.492 42.2492 291.378 42.5882L302.315 46.6897C303.858 47.2693 304.875 48.7348 304.875 50.3753V62.2425L315.44 66.2024C316.983 66.7821 318 68.2474 318 69.888V81.93C318 83.4174 317.158 84.7852 315.823 85.4524L304.886 90.9212C303.781 91.4788 302.469 91.4788 301.364 90.9212L290 85.2337L278.636 90.9212C277.531 91.4788 276.219 91.4788 275.114 90.9212L264.177 85.4524C262.842 84.7852 262 83.4174 262 81.93V69.888C262 68.2474 263.018 66.7821 264.549 66.2024L275.114 62.2425V50.3753C275.114 48.7348 276.132 47.2693 277.674 46.6897L288.611 42.5882ZM278.734 78.0579V86.7102L288.031 82.0618V73.8147L278.734 78.0579ZM304.984 78.0579V86.7102L314.281 82.0618V73.8147L304.984 78.0579ZM265.719 69.7464V69.8118L276.875 74.3401L288.031 69.8118V69.7464L276.875 65.5676L265.719 69.7464ZM291.969 69.7464V69.8118L303.125 74.3401L314.281 69.8118V69.7464L303.125 65.5676L291.969 69.7464ZM291.859 58.3596V65.8196L301.156 62.3303V54.3128L291.859 58.3596ZM278.844 50.2229V50.2884L290 54.8167L301.156 50.2884V50.2229L290 46.0442L278.844 50.2229Z" fill="#707070"/>
<path d="M197.467 132V119.86H192.547V118H204.487V119.86H199.567V132H197.467ZM206.004 132V118L208.004 117.56V122.86C208.791 122.033 209.811 121.62 211.064 121.62C211.851 121.62 212.538 121.787 213.124 122.12C213.724 122.453 214.191 122.92 214.524 123.52C214.871 124.12 215.044 124.813 215.044 125.6V132H213.044V125.94C213.044 125.14 212.818 124.513 212.364 124.06C211.911 123.593 211.291 123.36 210.504 123.36C209.971 123.36 209.491 123.473 209.064 123.7C208.638 123.927 208.284 124.253 208.004 124.68V132H206.004ZM217.352 132V121.82H219.352V132H217.352ZM218.352 120.18C218.019 120.18 217.732 120.06 217.492 119.82C217.252 119.567 217.132 119.273 217.132 118.94C217.132 118.593 217.252 118.307 217.492 118.08C217.732 117.84 218.019 117.72 218.352 117.72C218.699 117.72 218.992 117.84 219.232 118.08C219.472 118.307 219.592 118.593 219.592 118.94C219.592 119.273 219.472 119.567 219.232 119.82C218.992 120.06 218.699 120.18 218.352 120.18ZM225.207 132.2C224.327 132.2 223.501 132.073 222.727 131.82C221.967 131.553 221.307 131.18 220.747 130.7L221.847 129.38C222.367 129.793 222.901 130.113 223.447 130.34C224.007 130.553 224.574 130.66 225.147 130.66C225.867 130.66 226.454 130.52 226.907 130.24C227.361 129.96 227.587 129.593 227.587 129.14C227.587 128.42 227.041 127.98 225.947 127.82L224.107 127.56C223.094 127.413 222.334 127.1 221.827 126.62C221.321 126.14 221.067 125.5 221.067 124.7C221.067 124.087 221.234 123.553 221.567 123.1C221.901 122.633 222.367 122.273 222.967 122.02C223.567 121.753 224.267 121.62 225.067 121.62C225.801 121.62 226.507 121.727 227.187 121.94C227.867 122.153 228.521 122.487 229.147 122.94L228.127 124.26C227.021 123.54 225.947 123.18 224.907 123.18C224.294 123.18 223.801 123.313 223.427 123.58C223.054 123.833 222.867 124.167 222.867 124.58C222.867 124.953 222.994 125.247 223.247 125.46C223.514 125.66 223.947 125.8 224.547 125.88L226.387 126.14C227.401 126.287 228.167 126.6 228.687 127.08C229.207 127.547 229.467 128.18 229.467 128.98C229.467 129.593 229.281 130.147 228.907 130.64C228.534 131.12 228.027 131.5 227.387 131.78C226.747 132.06 226.021 132.2 225.207 132.2ZM235.184 132V121.82H237.184V132H235.184ZM236.184 120.18C235.851 120.18 235.564 120.06 235.324 119.82C235.084 119.567 234.964 119.273 234.964 118.94C234.964 118.593 235.084 118.307 235.324 118.08C235.564 117.84 235.851 117.72 236.184 117.72C236.531 117.72 236.824 117.84 237.064 118.08C237.304 118.307 237.424 118.593 237.424 118.94C237.424 119.273 237.304 119.567 237.064 119.82C236.824 120.06 236.531 120.18 236.184 120.18ZM243.039 132.2C242.159 132.2 241.333 132.073 240.559 131.82C239.799 131.553 239.139 131.18 238.579 130.7L239.679 129.38C240.199 129.793 240.733 130.113 241.279 130.34C241.839 130.553 242.406 130.66 242.979 130.66C243.699 130.66 244.286 130.52 244.739 130.24C245.193 129.96 245.419 129.593 245.419 129.14C245.419 128.42 244.873 127.98 243.779 127.82L241.939 127.56C240.926 127.413 240.166 127.1 239.659 126.62C239.153 126.14 238.899 125.5 238.899 124.7C238.899 124.087 239.066 123.553 239.399 123.1C239.733 122.633 240.199 122.273 240.799 122.02C241.399 121.753 242.099 121.62 242.899 121.62C243.633 121.62 244.339 121.727 245.019 121.94C245.699 122.153 246.353 122.487 246.979 122.94L245.959 124.26C244.853 123.54 243.779 123.18 242.739 123.18C242.126 123.18 241.633 123.313 241.259 123.58C240.886 123.833 240.699 124.167 240.699 124.58C240.699 124.953 240.826 125.247 241.079 125.46C241.346 125.66 241.779 125.8 242.379 125.88L244.219 126.14C245.233 126.287 245.999 126.6 246.519 127.08C247.039 127.547 247.299 128.18 247.299 128.98C247.299 129.593 247.113 130.147 246.739 130.64C246.366 131.12 245.859 131.5 245.219 131.78C244.579 132.06 243.853 132.2 243.039 132.2ZM256.236 132.18C255.503 132.18 254.856 132.053 254.296 131.8C253.736 131.533 253.296 131.167 252.976 130.7C252.656 130.233 252.496 129.693 252.496 129.08C252.496 128.12 252.863 127.367 253.596 126.82C254.329 126.26 255.336 125.98 256.616 125.98C257.616 125.98 258.543 126.173 259.396 126.56V125.48C259.396 124.027 258.569 123.3 256.916 123.3C256.449 123.3 255.963 123.373 255.456 123.52C254.949 123.653 254.383 123.867 253.756 124.16L253.016 122.66C253.789 122.3 254.509 122.04 255.176 121.88C255.843 121.707 256.516 121.62 257.196 121.62C258.516 121.62 259.536 121.933 260.256 122.56C260.989 123.187 261.356 124.08 261.356 125.24V132H259.396V131.12C258.943 131.48 258.456 131.747 257.936 131.92C257.416 132.093 256.849 132.18 256.236 132.18ZM254.416 129.04C254.416 129.533 254.623 129.933 255.036 130.24C255.463 130.547 256.016 130.7 256.696 130.7C257.789 130.7 258.689 130.373 259.396 129.72V128C258.663 127.573 257.789 127.36 256.776 127.36C256.043 127.36 255.463 127.513 255.036 127.82C254.623 128.113 254.416 128.52 254.416 129.04ZM263.66 132V121.82H265.66V122.86C266.447 122.033 267.467 121.62 268.72 121.62C269.507 121.62 270.194 121.787 270.78 122.12C271.38 122.453 271.847 122.92 272.18 123.52C272.527 124.12 272.7 124.813 272.7 125.6V132H270.7V125.94C270.7 125.14 270.474 124.513 270.02 124.06C269.567 123.593 268.947 123.36 268.16 123.36C267.627 123.36 267.147 123.473 266.72 123.7C266.294 123.927 265.94 124.253 265.66 124.68V132H263.66ZM284.068 132.18C283.068 132.18 282.161 131.947 281.348 131.48C280.548 131.013 279.908 130.38 279.428 129.58C278.961 128.78 278.728 127.887 278.728 126.9C278.728 125.927 278.954 125.047 279.408 124.26C279.861 123.46 280.474 122.827 281.248 122.36C282.021 121.88 282.881 121.64 283.828 121.64C284.774 121.64 285.614 121.88 286.348 122.36C287.081 122.827 287.661 123.467 288.088 124.28C288.528 125.08 288.748 125.987 288.748 127V127.56H280.728C280.834 128.12 281.041 128.62 281.348 129.06C281.668 129.5 282.068 129.847 282.548 130.1C283.041 130.353 283.574 130.48 284.148 130.48C284.641 130.48 285.114 130.407 285.568 130.26C286.034 130.1 286.421 129.873 286.728 129.58L288.008 130.84C287.408 131.293 286.788 131.633 286.148 131.86C285.521 132.073 284.828 132.18 284.068 132.18ZM280.748 126.06H286.768C286.688 125.527 286.501 125.06 286.208 124.66C285.928 124.247 285.574 123.927 285.148 123.7C284.734 123.46 284.281 123.34 283.788 123.34C283.014 123.34 282.348 123.593 281.788 124.1C281.241 124.593 280.894 125.247 280.748 126.06ZM290.653 132V121.82H292.653V122.8C293.413 122.013 294.366 121.62 295.513 121.62C296.206 121.62 296.819 121.773 297.353 122.08C297.899 122.387 298.333 122.8 298.653 123.32C299.493 122.187 300.639 121.62 302.093 121.62C302.853 121.62 303.513 121.787 304.073 122.12C304.646 122.453 305.093 122.92 305.413 123.52C305.746 124.12 305.913 124.813 305.913 125.6V132H303.913V125.94C303.913 125.14 303.699 124.513 303.273 124.06C302.859 123.593 302.293 123.36 301.573 123.36C300.573 123.36 299.779 123.82 299.193 124.74C299.219 124.873 299.239 125.013 299.253 125.16C299.266 125.307 299.273 125.453 299.273 125.6V132H297.293V125.94C297.293 125.14 297.079 124.513 296.653 124.06C296.239 123.593 295.673 123.36 294.953 123.36C293.979 123.36 293.213 123.773 292.653 124.6V132H290.653ZM308.211 136.08V121.82H310.191V122.8C311.045 122.04 312.085 121.66 313.311 121.66C314.271 121.66 315.138 121.893 315.911 122.36C316.698 122.827 317.318 123.453 317.771 124.24C318.225 125.027 318.451 125.913 318.451 126.9C318.451 127.887 318.218 128.78 317.751 129.58C317.298 130.367 316.678 130.993 315.891 131.46C315.118 131.927 314.245 132.16 313.271 132.16C312.711 132.16 312.171 132.073 311.651 131.9C311.131 131.713 310.651 131.453 310.211 131.12V136.08H308.211ZM313.051 130.42C313.705 130.42 314.285 130.267 314.791 129.96C315.311 129.653 315.725 129.24 316.031 128.72C316.338 128.187 316.491 127.587 316.491 126.92C316.491 126.253 316.338 125.653 316.031 125.12C315.725 124.587 315.311 124.167 314.791 123.86C314.285 123.553 313.705 123.4 313.051 123.4C312.478 123.4 311.945 123.507 311.451 123.72C310.958 123.933 310.545 124.233 310.211 124.62V129.22C310.545 129.593 310.958 129.887 311.451 130.1C311.958 130.313 312.491 130.42 313.051 130.42ZM324.134 132.18C323.147 132.18 322.394 131.953 321.874 131.5C321.354 131.033 321.094 130.36 321.094 129.48V123.5H318.934V121.82H321.094V119.22L323.074 118.74V121.82H326.074V123.5H323.074V129.02C323.074 129.54 323.187 129.913 323.414 130.14C323.654 130.353 324.04 130.46 324.574 130.46C324.854 130.46 325.1 130.44 325.314 130.4C325.54 130.36 325.78 130.3 326.034 130.22V131.9C325.767 131.993 325.454 132.06 325.094 132.1C324.747 132.153 324.427 132.18 324.134 132.18ZM328.423 136.3C328.209 136.3 328.009 136.287 327.823 136.26C327.636 136.247 327.483 136.22 327.363 136.18V134.42C327.603 134.473 327.896 134.5 328.243 134.5C329.176 134.5 329.849 134 330.263 133L330.703 132.02L326.623 121.82H328.843L331.803 129.58L335.083 121.82H337.243L332.323 133.26C332.003 133.98 331.663 134.56 331.303 135C330.943 135.453 330.529 135.78 330.063 135.98C329.596 136.193 329.049 136.3 328.423 136.3ZM346.164 132.2C345.284 132.2 344.458 132.073 343.684 131.82C342.924 131.553 342.264 131.18 341.704 130.7L342.804 129.38C343.324 129.793 343.858 130.113 344.404 130.34C344.964 130.553 345.531 130.66 346.104 130.66C346.824 130.66 347.411 130.52 347.864 130.24C348.318 129.96 348.544 129.593 348.544 129.14C348.544 128.42 347.998 127.98 346.904 127.82L345.064 127.56C344.051 127.413 343.291 127.1 342.784 126.62C342.278 126.14 342.024 125.5 342.024 124.7C342.024 124.087 342.191 123.553 342.524 123.1C342.858 122.633 343.324 122.273 343.924 122.02C344.524 121.753 345.224 121.62 346.024 121.62C346.758 121.62 347.464 121.727 348.144 121.94C348.824 122.153 349.478 122.487 350.104 122.94L349.084 124.26C347.978 123.54 346.904 123.18 345.864 123.18C345.251 123.18 344.758 123.313 344.384 123.58C344.011 123.833 343.824 124.167 343.824 124.58C343.824 124.953 343.951 125.247 344.204 125.46C344.471 125.66 344.904 125.8 345.504 125.88L347.344 126.14C348.358 126.287 349.124 126.6 349.644 127.08C350.164 127.547 350.424 128.18 350.424 128.98C350.424 129.593 350.238 130.147 349.864 130.64C349.491 131.12 348.984 131.5 348.344 131.78C347.704 132.06 346.978 132.2 346.164 132.2ZM356.126 132.18C355.139 132.18 354.386 131.953 353.866 131.5C353.346 131.033 353.086 130.36 353.086 129.48V123.5H350.926V121.82H353.086V119.22L355.066 118.74V121.82H358.066V123.5H355.066V129.02C355.066 129.54 355.179 129.913 355.406 130.14C355.646 130.353 356.033 130.46 356.566 130.46C356.846 130.46 357.093 130.44 357.306 130.4C357.533 130.36 357.773 130.3 358.026 130.22V131.9C357.759 131.993 357.446 132.06 357.086 132.1C356.739 132.153 356.419 132.18 356.126 132.18ZM362.759 132.18C362.026 132.18 361.379 132.053 360.819 131.8C360.259 131.533 359.819 131.167 359.499 130.7C359.179 130.233 359.019 129.693 359.019 129.08C359.019 128.12 359.386 127.367 360.119 126.82C360.853 126.26 361.859 125.98 363.139 125.98C364.139 125.98 365.066 126.173 365.919 126.56V125.48C365.919 124.027 365.093 123.3 363.439 123.3C362.973 123.3 362.486 123.373 361.979 123.52C361.473 123.653 360.906 123.867 360.279 124.16L359.539 122.66C360.313 122.3 361.033 122.04 361.699 121.88C362.366 121.707 363.039 121.62 363.719 121.62C365.039 121.62 366.059 121.933 366.779 122.56C367.513 123.187 367.879 124.08 367.879 125.24V132H365.919V131.12C365.466 131.48 364.979 131.747 364.459 131.92C363.939 132.093 363.373 132.18 362.759 132.18ZM360.939 129.04C360.939 129.533 361.146 129.933 361.559 130.24C361.986 130.547 362.539 130.7 363.219 130.7C364.313 130.7 365.213 130.373 365.919 129.72V128C365.186 127.573 364.313 127.36 363.299 127.36C362.566 127.36 361.986 127.513 361.559 127.82C361.146 128.113 360.939 128.52 360.939 129.04ZM374.251 132.18C373.264 132.18 372.511 131.953 371.991 131.5C371.471 131.033 371.211 130.36 371.211 129.48V123.5H369.051V121.82H371.211V119.22L373.191 118.74V121.82H376.191V123.5H373.191V129.02C373.191 129.54 373.304 129.913 373.531 130.14C373.771 130.353 374.158 130.46 374.691 130.46C374.971 130.46 375.218 130.44 375.431 130.4C375.658 130.36 375.898 130.3 376.151 130.22V131.9C375.884 131.993 375.571 132.06 375.211 132.1C374.864 132.153 374.544 132.18 374.251 132.18ZM382.388 132.18C381.388 132.18 380.481 131.947 379.668 131.48C378.868 131.013 378.228 130.38 377.748 129.58C377.281 128.78 377.048 127.887 377.048 126.9C377.048 125.927 377.275 125.047 377.728 124.26C378.181 123.46 378.795 122.827 379.568 122.36C380.341 121.88 381.201 121.64 382.148 121.64C383.095 121.64 383.935 121.88 384.668 122.36C385.401 122.827 385.981 123.467 386.408 124.28C386.848 125.08 387.068 125.987 387.068 127V127.56H379.048C379.155 128.12 379.361 128.62 379.668 129.06C379.988 129.5 380.388 129.847 380.868 130.1C381.361 130.353 381.895 130.48 382.468 130.48C382.961 130.48 383.435 130.407 383.888 130.26C384.355 130.1 384.741 129.873 385.048 129.58L386.328 130.84C385.728 131.293 385.108 131.633 384.468 131.86C383.841 132.073 383.148 132.18 382.388 132.18ZM379.068 126.06H385.088C385.008 125.527 384.821 125.06 384.528 124.66C384.248 124.247 383.895 123.927 383.468 123.7C383.055 123.46 382.601 123.34 382.108 123.34C381.335 123.34 380.668 123.593 380.108 124.1C379.561 124.593 379.215 125.247 379.068 126.06Z" fill="#151515"/>
<path d="M108.343 172V161.888H104.471V160.8H113.447V161.888H109.575V172H108.343ZM115.098 172V160.448L116.266 160.208V165.456C116.565 164.987 116.922 164.64 117.338 164.416C117.754 164.181 118.224 164.064 118.746 164.064C119.312 164.064 119.802 164.187 120.218 164.432C120.645 164.667 120.976 165.003 121.21 165.44C121.456 165.867 121.578 166.368 121.578 166.944V172H120.41V167.28C120.41 166.587 120.218 166.043 119.834 165.648C119.461 165.243 118.954 165.04 118.314 165.04C117.888 165.04 117.498 165.141 117.146 165.344C116.794 165.547 116.501 165.845 116.266 166.24V172H115.098ZM123.911 172V164.192H125.079V172H123.911ZM124.503 162.256C124.268 162.256 124.065 162.176 123.895 162.016C123.735 161.845 123.655 161.648 123.655 161.424C123.655 161.2 123.735 161.008 123.895 160.848C124.065 160.677 124.268 160.592 124.503 160.592C124.737 160.592 124.935 160.677 125.095 160.848C125.265 161.008 125.351 161.2 125.351 161.424C125.351 161.648 125.265 161.845 125.095 162.016C124.935 162.176 124.737 162.256 124.503 162.256ZM129.889 172.16C129.249 172.16 128.657 172.064 128.113 171.872C127.569 171.669 127.105 171.381 126.721 171.008L127.345 170.24C127.815 170.581 128.247 170.832 128.641 170.992C129.036 171.141 129.441 171.216 129.857 171.216C130.423 171.216 130.892 171.083 131.265 170.816C131.639 170.549 131.825 170.208 131.825 169.792C131.825 169.472 131.713 169.221 131.489 169.04C131.276 168.859 130.919 168.72 130.417 168.624L129.137 168.4C128.38 168.261 127.82 168.027 127.457 167.696C127.105 167.365 126.929 166.917 126.929 166.352C126.929 165.904 127.047 165.509 127.281 165.168C127.527 164.827 127.863 164.56 128.289 164.368C128.716 164.165 129.201 164.064 129.745 164.064C130.279 164.064 130.785 164.144 131.265 164.304C131.745 164.453 132.231 164.699 132.721 165.04L132.145 165.856C131.74 165.568 131.335 165.36 130.929 165.232C130.524 165.093 130.113 165.024 129.697 165.024C129.185 165.024 128.775 165.136 128.465 165.36C128.156 165.584 128.001 165.888 128.001 166.272C128.001 166.592 128.097 166.837 128.289 167.008C128.492 167.179 128.844 167.307 129.345 167.392L130.657 167.632C131.447 167.771 132.023 168.011 132.385 168.352C132.748 168.693 132.929 169.152 132.929 169.728C132.929 170.187 132.796 170.603 132.529 170.976C132.263 171.339 131.9 171.627 131.441 171.84C130.983 172.053 130.465 172.16 129.889 172.16ZM138.426 172V164.192H139.594V172H138.426ZM139.018 162.256C138.784 162.256 138.581 162.176 138.41 162.016C138.25 161.845 138.17 161.648 138.17 161.424C138.17 161.2 138.25 161.008 138.41 160.848C138.581 160.677 138.784 160.592 139.018 160.592C139.253 160.592 139.45 160.677 139.61 160.848C139.781 161.008 139.866 161.2 139.866 161.424C139.866 161.648 139.781 161.845 139.61 162.016C139.45 162.176 139.253 162.256 139.018 162.256ZM144.405 172.16C143.765 172.16 143.173 172.064 142.629 171.872C142.085 171.669 141.621 171.381 141.237 171.008L141.861 170.24C142.33 170.581 142.762 170.832 143.157 170.992C143.552 171.141 143.957 171.216 144.373 171.216C144.938 171.216 145.408 171.083 145.781 170.816C146.154 170.549 146.341 170.208 146.341 169.792C146.341 169.472 146.229 169.221 146.005 169.04C145.792 168.859 145.434 168.72 144.933 168.624L143.653 168.4C142.896 168.261 142.336 168.027 141.973 167.696C141.621 167.365 141.445 166.917 141.445 166.352C141.445 165.904 141.562 165.509 141.797 165.168C142.042 164.827 142.378 164.56 142.805 164.368C143.232 164.165 143.717 164.064 144.261 164.064C144.794 164.064 145.301 164.144 145.781 164.304C146.261 164.453 146.746 164.699 147.237 165.04L146.661 165.856C146.256 165.568 145.85 165.36 145.445 165.232C145.04 165.093 144.629 165.024 144.213 165.024C143.701 165.024 143.29 165.136 142.981 165.36C142.672 165.584 142.517 165.888 142.517 166.272C142.517 166.592 142.613 166.837 142.805 167.008C143.008 167.179 143.36 167.307 143.861 167.392L145.173 167.632C145.962 167.771 146.538 168.011 146.901 168.352C147.264 168.693 147.445 169.152 147.445 169.728C147.445 170.187 147.312 170.603 147.045 170.976C146.778 171.339 146.416 171.627 145.957 171.84C145.498 172.053 144.981 172.16 144.405 172.16ZM155.374 172.144C154.819 172.144 154.328 172.043 153.902 171.84C153.475 171.637 153.139 171.36 152.894 171.008C152.659 170.645 152.542 170.229 152.542 169.76C152.542 169.291 152.664 168.885 152.91 168.544C153.155 168.192 153.496 167.92 153.934 167.728C154.371 167.536 154.883 167.44 155.47 167.44C155.918 167.44 156.339 167.488 156.734 167.584C157.139 167.68 157.512 167.835 157.854 168.048V166.976C157.854 166.336 157.683 165.856 157.342 165.536C157 165.205 156.499 165.04 155.838 165.04C155.475 165.04 155.102 165.093 154.718 165.2C154.344 165.307 153.928 165.477 153.47 165.712L153.038 164.816C154.083 164.315 155.064 164.064 155.982 164.064C156.952 164.064 157.699 164.304 158.222 164.784C158.744 165.253 159.006 165.931 159.006 166.816V172H157.854V171.088C157.512 171.44 157.134 171.707 156.718 171.888C156.302 172.059 155.854 172.144 155.374 172.144ZM153.662 169.728C153.662 170.187 153.838 170.555 154.19 170.832C154.552 171.109 155.027 171.248 155.614 171.248C156.051 171.248 156.451 171.173 156.814 171.024C157.187 170.875 157.534 170.651 157.854 170.352V168.848C157.523 168.656 157.182 168.517 156.83 168.432C156.478 168.336 156.083 168.288 155.646 168.288C155.048 168.288 154.568 168.421 154.206 168.688C153.843 168.944 153.662 169.291 153.662 169.728ZM161.38 172V164.192H162.548V165.456C162.846 164.987 163.204 164.64 163.62 164.416C164.036 164.181 164.505 164.064 165.028 164.064C165.593 164.064 166.084 164.187 166.5 164.432C166.926 164.667 167.257 165.003 167.492 165.44C167.737 165.867 167.86 166.368 167.86 166.944V172H166.692V167.28C166.692 166.587 166.5 166.043 166.116 165.648C165.742 165.243 165.236 165.04 164.596 165.04C164.169 165.04 163.78 165.141 163.428 165.344C163.076 165.547 162.782 165.845 162.548 166.24V172H161.38ZM177.462 172.16C176.737 172.16 176.081 171.984 175.494 171.632C174.908 171.269 174.444 170.784 174.102 170.176C173.761 169.557 173.59 168.864 173.59 168.096C173.59 167.328 173.75 166.64 174.07 166.032C174.401 165.424 174.844 164.944 175.398 164.592C175.953 164.24 176.572 164.064 177.254 164.064C177.948 164.064 178.561 164.24 179.094 164.592C179.638 164.933 180.065 165.403 180.374 166C180.694 166.587 180.854 167.253 180.854 168V168.352H174.726C174.769 168.885 174.913 169.365 175.158 169.792C175.414 170.208 175.745 170.539 176.15 170.784C176.566 171.019 177.02 171.136 177.51 171.136C177.916 171.136 178.305 171.067 178.678 170.928C179.062 170.779 179.388 170.581 179.654 170.336L180.39 171.12C179.942 171.472 179.478 171.733 178.998 171.904C178.518 172.075 178.006 172.16 177.462 172.16ZM174.758 167.52H179.702C179.649 167.051 179.505 166.635 179.27 166.272C179.046 165.899 178.758 165.605 178.406 165.392C178.065 165.179 177.681 165.072 177.254 165.072C176.828 165.072 176.438 165.179 176.086 165.392C175.734 165.595 175.441 165.883 175.206 166.256C174.982 166.619 174.833 167.04 174.758 167.52ZM181.372 172L184.364 167.952L181.548 164.192H182.94L185.1 167.168L187.244 164.192H188.572L185.74 167.984L188.748 172H187.356L185.02 168.816L182.7 172H181.372ZM192.343 172.144C191.788 172.144 191.297 172.043 190.871 171.84C190.444 171.637 190.108 171.36 189.863 171.008C189.628 170.645 189.511 170.229 189.511 169.76C189.511 169.291 189.633 168.885 189.879 168.544C190.124 168.192 190.465 167.92 190.903 167.728C191.34 167.536 191.852 167.44 192.439 167.44C192.887 167.44 193.308 167.488 193.703 167.584C194.108 167.68 194.481 167.835 194.823 168.048V166.976C194.823 166.336 194.652 165.856 194.311 165.536C193.969 165.205 193.468 165.04 192.807 165.04C192.444 165.04 192.071 165.093 191.687 165.2C191.313 165.307 190.897 165.477 190.439 165.712L190.007 164.816C191.052 164.315 192.033 164.064 192.951 164.064C193.921 164.064 194.668 164.304 195.191 164.784C195.713 165.253 195.975 165.931 195.975 166.816V172H194.823V171.088C194.481 171.44 194.103 171.707 193.687 171.888C193.271 172.059 192.823 172.144 192.343 172.144ZM190.631 169.728C190.631 170.187 190.807 170.555 191.159 170.832C191.521 171.109 191.996 171.248 192.583 171.248C193.02 171.248 193.42 171.173 193.783 171.024C194.156 170.875 194.503 170.651 194.823 170.352V168.848C194.492 168.656 194.151 168.517 193.799 168.432C193.447 168.336 193.052 168.288 192.615 168.288C192.017 168.288 191.537 168.421 191.175 168.688C190.812 168.944 190.631 169.291 190.631 169.728ZM198.348 172V164.192H199.516V165.408C199.815 164.96 200.156 164.624 200.54 164.4C200.924 164.176 201.356 164.064 201.836 164.064C202.391 164.064 202.876 164.203 203.292 164.48C203.708 164.747 204.023 165.115 204.236 165.584C204.546 165.083 204.914 164.704 205.34 164.448C205.778 164.192 206.279 164.064 206.844 164.064C207.367 164.064 207.826 164.187 208.22 164.432C208.626 164.677 208.94 165.019 209.164 165.456C209.388 165.883 209.5 166.384 209.5 166.96V172H208.332V167.248C208.332 166.565 208.162 166.027 207.82 165.632C207.479 165.237 207.01 165.04 206.412 165.04C206.007 165.04 205.639 165.141 205.308 165.344C204.988 165.547 204.706 165.856 204.46 166.272C204.482 166.379 204.498 166.491 204.508 166.608C204.519 166.725 204.524 166.843 204.524 166.96V172H203.356V167.248C203.356 166.565 203.18 166.027 202.828 165.632C202.487 165.237 202.018 165.04 201.42 165.04C200.62 165.04 199.986 165.424 199.516 166.192V172H198.348ZM211.864 175.344V164.192H213.016V165.312C213.315 164.917 213.677 164.619 214.104 164.416C214.541 164.203 215.021 164.096 215.544 164.096C216.227 164.096 216.835 164.277 217.368 164.64C217.912 164.992 218.344 165.472 218.664 166.08C218.984 166.677 219.144 167.349 219.144 168.096C219.144 168.843 218.979 169.52 218.648 170.128C218.328 170.736 217.891 171.221 217.336 171.584C216.792 171.936 216.173 172.112 215.48 172.112C214.989 172.112 214.536 172.021 214.12 171.84C213.704 171.648 213.341 171.376 213.032 171.024V175.344H211.864ZM215.256 171.104C215.779 171.104 216.243 170.976 216.648 170.72C217.064 170.453 217.389 170.096 217.624 169.648C217.869 169.189 217.992 168.677 217.992 168.112C217.992 167.536 217.869 167.024 217.624 166.576C217.389 166.128 217.064 165.776 216.648 165.52C216.243 165.253 215.779 165.12 215.256 165.12C214.797 165.12 214.371 165.216 213.976 165.408C213.592 165.589 213.277 165.851 213.032 166.192V170.016C213.288 170.357 213.608 170.624 213.992 170.816C214.387 171.008 214.808 171.104 215.256 171.104ZM221.192 172V160.448L222.36 160.208V172H221.192ZM228.275 172.16C227.549 172.16 226.893 171.984 226.307 171.632C225.72 171.269 225.256 170.784 224.915 170.176C224.573 169.557 224.403 168.864 224.403 168.096C224.403 167.328 224.563 166.64 224.883 166.032C225.213 165.424 225.656 164.944 226.211 164.592C226.765 164.24 227.384 164.064 228.067 164.064C228.76 164.064 229.373 164.24 229.907 164.592C230.451 164.933 230.877 165.403 231.187 166C231.507 166.587 231.667 167.253 231.667 168V168.352H225.539C225.581 168.885 225.725 169.365 225.971 169.792C226.227 170.208 226.557 170.539 226.963 170.784C227.379 171.019 227.832 171.136 228.323 171.136C228.728 171.136 229.117 171.067 229.491 170.928C229.875 170.779 230.2 170.581 230.467 170.336L231.203 171.12C230.755 171.472 230.291 171.733 229.811 171.904C229.331 172.075 228.819 172.16 228.275 172.16ZM225.571 167.52H230.515C230.461 167.051 230.317 166.635 230.083 166.272C229.859 165.899 229.571 165.605 229.219 165.392C228.877 165.179 228.493 165.072 228.067 165.072C227.64 165.072 227.251 165.179 226.899 165.392C226.547 165.595 226.253 165.883 226.019 166.256C225.795 166.619 225.645 167.04 225.571 167.52ZM240.851 172.128C240.126 172.128 239.475 171.952 238.899 171.6C238.323 171.248 237.87 170.768 237.539 170.16C237.209 169.552 237.043 168.864 237.043 168.096C237.043 167.328 237.209 166.64 237.539 166.032C237.87 165.424 238.323 164.944 238.899 164.592C239.475 164.24 240.126 164.064 240.851 164.064C241.566 164.064 242.206 164.24 242.771 164.592C243.347 164.944 243.801 165.424 244.131 166.032C244.462 166.64 244.627 167.328 244.627 168.096C244.627 168.864 244.462 169.552 244.131 170.16C243.801 170.768 243.347 171.248 242.771 171.6C242.206 171.952 241.566 172.128 240.851 172.128ZM240.835 171.104C241.347 171.104 241.801 170.976 242.195 170.72C242.59 170.453 242.899 170.091 243.123 169.632C243.358 169.173 243.475 168.661 243.475 168.096C243.475 167.52 243.358 167.008 243.123 166.56C242.899 166.101 242.59 165.744 242.195 165.488C241.801 165.221 241.347 165.088 240.835 165.088C240.323 165.088 239.87 165.221 239.475 165.488C239.081 165.744 238.766 166.101 238.531 166.56C238.307 167.008 238.195 167.52 238.195 168.096C238.195 168.661 238.307 169.173 238.531 169.632C238.766 170.091 239.081 170.453 239.475 170.72C239.87 170.976 240.323 171.104 240.835 171.104ZM247.184 172V165.152H245.44V164.192H247.184V162.56C247.184 161.792 247.387 161.2 247.792 160.784C248.198 160.368 248.774 160.16 249.52 160.16C249.734 160.16 249.926 160.171 250.096 160.192C250.278 160.213 250.438 160.251 250.576 160.304V161.36C250.406 161.307 250.251 161.269 250.112 161.248C249.974 161.227 249.814 161.216 249.632 161.216C249.184 161.216 248.859 161.328 248.656 161.552C248.454 161.765 248.352 162.107 248.352 162.576V164.192H250.576V165.152H248.352V172H247.184ZM258.264 172.144C257.71 172.144 257.219 172.043 256.792 171.84C256.366 171.637 256.03 171.36 255.784 171.008C255.55 170.645 255.432 170.229 255.432 169.76C255.432 169.291 255.555 168.885 255.8 168.544C256.046 168.192 256.387 167.92 256.824 167.728C257.262 167.536 257.774 167.44 258.36 167.44C258.808 167.44 259.23 167.488 259.624 167.584C260.03 167.68 260.403 167.835 260.744 168.048V166.976C260.744 166.336 260.574 165.856 260.232 165.536C259.891 165.205 259.39 165.04 258.728 165.04C258.366 165.04 257.992 165.093 257.608 165.2C257.235 165.307 256.819 165.477 256.36 165.712L255.928 164.816C256.974 164.315 257.955 164.064 258.872 164.064C259.843 164.064 260.59 164.304 261.112 164.784C261.635 165.253 261.896 165.931 261.896 166.816V172H260.744V171.088C260.403 171.44 260.024 171.707 259.608 171.888C259.192 172.059 258.744 172.144 258.264 172.144ZM256.552 169.728C256.552 170.187 256.728 170.555 257.08 170.832C257.443 171.109 257.918 171.248 258.504 171.248C258.942 171.248 259.342 171.173 259.704 171.024C260.078 170.875 260.424 170.651 260.744 170.352V168.848C260.414 168.656 260.072 168.517 259.72 168.432C259.368 168.336 258.974 168.288 258.536 168.288C257.939 168.288 257.459 168.421 257.096 168.688C256.734 168.944 256.552 169.291 256.552 169.728ZM271.253 172.112C270.581 172.112 269.973 171.936 269.429 171.584C268.885 171.221 268.453 170.741 268.133 170.144C267.813 169.536 267.653 168.859 267.653 168.112C267.653 167.355 267.813 166.677 268.133 166.08C268.463 165.472 268.906 164.992 269.461 164.64C270.015 164.277 270.634 164.096 271.317 164.096C271.797 164.096 272.245 164.192 272.661 164.384C273.077 164.565 273.439 164.832 273.749 165.184V160.448L274.917 160.208V172H273.749V170.96C273.45 171.333 273.087 171.621 272.661 171.824C272.234 172.016 271.765 172.112 271.253 172.112ZM271.541 171.088C271.999 171.088 272.421 170.997 272.805 170.816C273.189 170.635 273.503 170.379 273.749 170.048V166.176C273.493 165.845 273.167 165.589 272.773 165.408C272.389 165.216 271.978 165.12 271.541 165.12C271.018 165.12 270.549 165.248 270.133 165.504C269.727 165.76 269.402 166.112 269.157 166.56C268.922 167.008 268.805 167.52 268.805 168.096C268.805 168.661 268.922 169.173 269.157 169.632C269.402 170.08 269.727 170.437 270.133 170.704C270.549 170.96 271.018 171.088 271.541 171.088ZM280.837 172.16C280.112 172.16 279.456 171.984 278.869 171.632C278.283 171.269 277.819 170.784 277.477 170.176C277.136 169.557 276.965 168.864 276.965 168.096C276.965 167.328 277.125 166.64 277.445 166.032C277.776 165.424 278.219 164.944 278.773 164.592C279.328 164.24 279.947 164.064 280.629 164.064C281.323 164.064 281.936 164.24 282.469 164.592C283.013 164.933 283.44 165.403 283.749 166C284.069 166.587 284.229 167.253 284.229 168V168.352H278.101C278.144 168.885 278.288 169.365 278.533 169.792C278.789 170.208 279.12 170.539 279.525 170.784C279.941 171.019 280.395 171.136 280.885 171.136C281.291 171.136 281.68 171.067 282.053 170.928C282.437 170.779 282.763 170.581 283.029 170.336L283.765 171.12C283.317 171.472 282.853 171.733 282.373 171.904C281.893 172.075 281.381 172.16 280.837 172.16ZM278.133 167.52H283.077C283.024 167.051 282.88 166.635 282.645 166.272C282.421 165.899 282.133 165.605 281.781 165.392C281.44 165.179 281.056 165.072 280.629 165.072C280.203 165.072 279.813 165.179 279.461 165.392C279.109 165.595 278.816 165.883 278.581 166.256C278.357 166.619 278.208 167.04 278.133 167.52ZM288.718 172.16C288.078 172.16 287.486 172.064 286.942 171.872C286.398 171.669 285.934 171.381 285.55 171.008L286.174 170.24C286.643 170.581 287.075 170.832 287.47 170.992C287.864 171.141 288.27 171.216 288.686 171.216C289.251 171.216 289.72 171.083 290.094 170.816C290.467 170.549 290.654 170.208 290.654 169.792C290.654 169.472 290.542 169.221 290.318 169.04C290.104 168.859 289.747 168.72 289.246 168.624L287.966 168.4C287.208 168.261 286.648 168.027 286.286 167.696C285.934 167.365 285.758 166.917 285.758 166.352C285.758 165.904 285.875 165.509 286.11 165.168C286.355 164.827 286.691 164.56 287.118 164.368C287.544 164.165 288.03 164.064 288.574 164.064C289.107 164.064 289.614 164.144 290.094 164.304C290.574 164.453 291.059 164.699 291.55 165.04L290.974 165.856C290.568 165.568 290.163 165.36 289.758 165.232C289.352 165.093 288.942 165.024 288.526 165.024C288.014 165.024 287.603 165.136 287.294 165.36C286.984 165.584 286.83 165.888 286.83 166.272C286.83 166.592 286.926 166.837 287.118 167.008C287.32 167.179 287.672 167.307 288.174 167.392L289.486 167.632C290.275 167.771 290.851 168.011 291.214 168.352C291.576 168.693 291.758 169.152 291.758 169.728C291.758 170.187 291.624 170.603 291.358 170.976C291.091 171.339 290.728 171.627 290.27 171.84C289.811 172.053 289.294 172.16 288.718 172.16ZM297.118 172.128C296.393 172.128 295.737 171.952 295.15 171.6C294.574 171.237 294.115 170.752 293.774 170.144C293.433 169.525 293.262 168.843 293.262 168.096C293.262 167.339 293.433 166.656 293.774 166.048C294.115 165.44 294.574 164.96 295.15 164.608C295.737 164.245 296.393 164.064 297.118 164.064C297.694 164.064 298.243 164.171 298.766 164.384C299.289 164.597 299.742 164.896 300.126 165.28L299.374 166.096C299.097 165.787 298.761 165.547 298.366 165.376C297.971 165.205 297.571 165.12 297.166 165.12C296.654 165.12 296.19 165.253 295.774 165.52C295.369 165.787 295.043 166.144 294.798 166.592C294.553 167.04 294.43 167.541 294.43 168.096C294.43 168.651 294.553 169.152 294.798 169.6C295.043 170.048 295.369 170.405 295.774 170.672C296.19 170.939 296.654 171.072 297.166 171.072C297.571 171.072 297.971 170.987 298.366 170.816C298.761 170.635 299.097 170.395 299.374 170.096L300.126 170.912C299.742 171.296 299.289 171.595 298.766 171.808C298.243 172.021 297.694 172.128 297.118 172.128ZM301.755 172V164.192H302.923V165.792C303.125 165.248 303.413 164.827 303.787 164.528C304.171 164.219 304.608 164.064 305.099 164.064C305.237 164.064 305.365 164.075 305.483 164.096C305.6 164.107 305.717 164.133 305.835 164.176V165.232C305.707 165.189 305.568 165.157 305.419 165.136C305.28 165.104 305.147 165.088 305.019 165.088C304.539 165.088 304.117 165.227 303.755 165.504C303.403 165.781 303.125 166.171 302.923 166.672V172H301.755ZM307.364 172V164.192H308.532V172H307.364ZM307.956 162.256C307.721 162.256 307.518 162.176 307.348 162.016C307.188 161.845 307.108 161.648 307.108 161.424C307.108 161.2 307.188 161.008 307.348 160.848C307.518 160.677 307.721 160.592 307.956 160.592C308.19 160.592 308.388 160.677 308.548 160.848C308.718 161.008 308.804 161.2 308.804 161.424C308.804 161.648 308.718 161.845 308.548 162.016C308.388 162.176 308.19 162.256 307.956 162.256ZM310.927 175.344V164.192H312.079V165.312C312.377 164.917 312.74 164.619 313.167 164.416C313.604 164.203 314.084 164.096 314.607 164.096C315.289 164.096 315.897 164.277 316.431 164.64C316.975 164.992 317.407 165.472 317.727 166.08C318.047 166.677 318.207 167.349 318.207 168.096C318.207 168.843 318.041 169.52 317.711 170.128C317.391 170.736 316.953 171.221 316.399 171.584C315.855 171.936 315.236 172.112 314.543 172.112C314.052 172.112 313.599 172.021 313.183 171.84C312.767 171.648 312.404 171.376 312.095 171.024V175.344H310.927ZM314.319 171.104C314.841 171.104 315.305 170.976 315.711 170.72C316.127 170.453 316.452 170.096 316.687 169.648C316.932 169.189 317.055 168.677 317.055 168.112C317.055 167.536 316.932 167.024 316.687 166.576C316.452 166.128 316.127 165.776 315.711 165.52C315.305 165.253 314.841 165.12 314.319 165.12C313.86 165.12 313.433 165.216 313.039 165.408C312.655 165.589 312.34 165.851 312.095 166.192V170.016C312.351 170.357 312.671 170.624 313.055 170.816C313.449 171.008 313.871 171.104 314.319 171.104ZM322.746 172.16C322.074 172.16 321.562 172 321.21 171.68C320.869 171.349 320.698 170.875 320.698 170.256V165.152H319.082V164.192H320.698V162.048L321.866 161.776V164.192H324.106V165.152H321.866V169.952C321.866 170.368 321.952 170.667 322.122 170.848C322.304 171.029 322.597 171.12 323.002 171.12C323.205 171.12 323.386 171.104 323.546 171.072C323.706 171.04 323.893 170.987 324.106 170.912V171.952C323.893 172.027 323.669 172.08 323.434 172.112C323.2 172.144 322.97 172.16 322.746 172.16ZM325.801 172V164.192H326.969V172H325.801ZM326.393 162.256C326.159 162.256 325.956 162.176 325.785 162.016C325.625 161.845 325.545 161.648 325.545 161.424C325.545 161.2 325.625 161.008 325.785 160.848C325.956 160.677 326.159 160.592 326.393 160.592C326.628 160.592 326.825 160.677 326.985 160.848C327.156 161.008 327.241 161.2 327.241 161.424C327.241 161.648 327.156 161.845 326.985 162.016C326.825 162.176 326.628 162.256 326.393 162.256ZM332.82 172.128C332.095 172.128 331.444 171.952 330.868 171.6C330.292 171.248 329.839 170.768 329.508 170.16C329.177 169.552 329.012 168.864 329.012 168.096C329.012 167.328 329.177 166.64 329.508 166.032C329.839 165.424 330.292 164.944 330.868 164.592C331.444 164.24 332.095 164.064 332.82 164.064C333.535 164.064 334.175 164.24 334.74 164.592C335.316 164.944 335.769 165.424 336.1 166.032C336.431 166.64 336.596 167.328 336.596 168.096C336.596 168.864 336.431 169.552 336.1 170.16C335.769 170.768 335.316 171.248 334.74 171.6C334.175 171.952 333.535 172.128 332.82 172.128ZM332.804 171.104C333.316 171.104 333.769 170.976 334.164 170.72C334.559 170.453 334.868 170.091 335.092 169.632C335.327 169.173 335.444 168.661 335.444 168.096C335.444 167.52 335.327 167.008 335.092 166.56C334.868 166.101 334.559 165.744 334.164 165.488C333.769 165.221 333.316 165.088 332.804 165.088C332.292 165.088 331.839 165.221 331.444 165.488C331.049 165.744 330.735 166.101 330.5 166.56C330.276 167.008 330.164 167.52 330.164 168.096C330.164 168.661 330.276 169.173 330.5 169.632C330.735 170.091 331.049 170.453 331.444 170.72C331.839 170.976 332.292 171.104 332.804 171.104ZM338.645 172V164.192H339.813V165.456C340.112 164.987 340.469 164.64 340.885 164.416C341.301 164.181 341.771 164.064 342.293 164.064C342.859 164.064 343.349 164.187 343.765 164.432C344.192 164.667 344.523 165.003 344.757 165.44C345.003 165.867 345.125 166.368 345.125 166.944V172H343.957V167.28C343.957 166.587 343.765 166.043 343.381 165.648C343.008 165.243 342.501 165.04 341.861 165.04C341.435 165.04 341.045 165.141 340.693 165.344C340.341 165.547 340.048 165.845 339.813 166.24V172H338.645ZM351.192 172V164.192H352.36V172H351.192ZM351.784 162.256C351.549 162.256 351.346 162.176 351.176 162.016C351.016 161.845 350.936 161.648 350.936 161.424C350.936 161.2 351.016 161.008 351.176 160.848C351.346 160.677 351.549 160.592 351.784 160.592C352.018 160.592 352.216 160.677 352.376 160.848C352.546 161.008 352.632 161.2 352.632 161.424C352.632 161.648 352.546 161.845 352.376 162.016C352.216 162.176 352.018 162.256 351.784 162.256ZM354.755 172V164.192H355.923V165.456C356.221 164.987 356.579 164.64 356.995 164.416C357.411 164.181 357.88 164.064 358.403 164.064C358.968 164.064 359.459 164.187 359.875 164.432C360.301 164.667 360.632 165.003 360.867 165.44C361.112 165.867 361.235 166.368 361.235 166.944V172H360.067V167.28C360.067 166.587 359.875 166.043 359.491 165.648C359.117 165.243 358.611 165.04 357.971 165.04C357.544 165.04 357.155 165.141 356.803 165.344C356.451 165.547 356.157 165.845 355.923 166.24V172H354.755ZM369.733 172.144C369.179 172.144 368.688 172.043 368.261 171.84C367.835 171.637 367.499 171.36 367.253 171.008C367.019 170.645 366.901 170.229 366.901 169.76C366.901 169.291 367.024 168.885 367.269 168.544C367.515 168.192 367.856 167.92 368.293 167.728C368.731 167.536 369.243 167.44 369.829 167.44C370.277 167.44 370.699 167.488 371.093 167.584C371.499 167.68 371.872 167.835 372.213 168.048V166.976C372.213 166.336 372.043 165.856 371.701 165.536C371.36 165.205 370.859 165.04 370.197 165.04C369.835 165.04 369.461 165.093 369.077 165.2C368.704 165.307 368.288 165.477 367.829 165.712L367.397 164.816C368.443 164.315 369.424 164.064 370.341 164.064C371.312 164.064 372.059 164.304 372.581 164.784C373.104 165.253 373.365 165.931 373.365 166.816V172H372.213V171.088C371.872 171.44 371.493 171.707 371.077 171.888C370.661 172.059 370.213 172.144 369.733 172.144ZM368.021 169.728C368.021 170.187 368.197 170.555 368.549 170.832C368.912 171.109 369.387 171.248 369.973 171.248C370.411 171.248 370.811 171.173 371.173 171.024C371.547 170.875 371.893 170.651 372.213 170.352V168.848C371.883 168.656 371.541 168.517 371.189 168.432C370.837 168.336 370.443 168.288 370.005 168.288C369.408 168.288 368.928 168.421 368.565 168.688C368.203 168.944 368.021 169.291 368.021 169.728ZM375.739 172V164.192H376.907V165.456C377.206 164.987 377.563 164.64 377.979 164.416C378.395 164.181 378.864 164.064 379.387 164.064C379.952 164.064 380.443 164.187 380.859 164.432C381.286 164.667 381.616 165.003 381.851 165.44C382.096 165.867 382.219 166.368 382.219 166.944V172H381.051V167.28C381.051 166.587 380.859 166.043 380.475 165.648C380.102 165.243 379.595 165.04 378.955 165.04C378.528 165.04 378.139 165.141 377.787 165.344C377.435 165.547 377.142 165.845 376.907 166.24V172H375.739ZM391.822 172.16C391.096 172.16 390.44 171.984 389.854 171.632C389.267 171.269 388.803 170.784 388.462 170.176C388.12 169.557 387.95 168.864 387.95 168.096C387.95 167.328 388.11 166.64 388.43 166.032C388.76 165.424 389.203 164.944 389.758 164.592C390.312 164.24 390.931 164.064 391.614 164.064C392.307 164.064 392.92 164.24 393.454 164.592C393.998 164.933 394.424 165.403 394.734 166C395.054 166.587 395.214 167.253 395.214 168V168.352H389.086C389.128 168.885 389.272 169.365 389.518 169.792C389.774 170.208 390.104 170.539 390.51 170.784C390.926 171.019 391.379 171.136 391.87 171.136C392.275 171.136 392.664 171.067 393.038 170.928C393.422 170.779 393.747 170.581 394.014 170.336L394.75 171.12C394.302 171.472 393.838 171.733 393.358 171.904C392.878 172.075 392.366 172.16 391.822 172.16ZM389.118 167.52H394.062C394.008 167.051 393.864 166.635 393.63 166.272C393.406 165.899 393.118 165.605 392.766 165.392C392.424 165.179 392.04 165.072 391.614 165.072C391.187 165.072 390.798 165.179 390.446 165.392C390.094 165.595 389.8 165.883 389.566 166.256C389.342 166.619 389.192 167.04 389.118 167.52ZM397.208 172V164.192H398.376V165.408C398.674 164.96 399.016 164.624 399.4 164.4C399.784 164.176 400.216 164.064 400.696 164.064C401.25 164.064 401.736 164.203 402.152 164.48C402.568 164.747 402.882 165.115 403.096 165.584C403.405 165.083 403.773 164.704 404.2 164.448C404.637 164.192 405.138 164.064 405.704 164.064C406.226 164.064 406.685 164.187 407.08 164.432C407.485 164.677 407.8 165.019 408.024 165.456C408.248 165.883 408.36 166.384 408.36 166.96V172H407.192V167.248C407.192 166.565 407.021 166.027 406.68 165.632C406.338 165.237 405.869 165.04 405.272 165.04C404.866 165.04 404.498 165.141 404.168 165.344C403.848 165.547 403.565 165.856 403.32 166.272C403.341 166.379 403.357 166.491 403.368 166.608C403.378 166.725 403.384 166.843 403.384 166.96V172H402.216V167.248C402.216 166.565 402.04 166.027 401.688 165.632C401.346 165.237 400.877 165.04 400.28 165.04C399.48 165.04 398.845 165.424 398.376 166.192V172H397.208ZM410.723 175.344V164.192H411.875V165.312C412.174 164.917 412.537 164.619 412.963 164.416C413.401 164.203 413.881 164.096 414.403 164.096C415.086 164.096 415.694 164.277 416.227 164.64C416.771 164.992 417.203 165.472 417.523 166.08C417.843 166.677 418.003 167.349 418.003 168.096C418.003 168.843 417.838 169.52 417.507 170.128C417.187 170.736 416.75 171.221 416.195 171.584C415.651 171.936 415.033 172.112 414.339 172.112C413.849 172.112 413.395 172.021 412.979 171.84C412.563 171.648 412.201 171.376 411.891 171.024V175.344H410.723ZM414.115 171.104C414.638 171.104 415.102 170.976 415.507 170.72C415.923 170.453 416.249 170.096 416.483 169.648C416.729 169.189 416.851 168.677 416.851 168.112C416.851 167.536 416.729 167.024 416.483 166.576C416.249 166.128 415.923 165.776 415.507 165.52C415.102 165.253 414.638 165.12 414.115 165.12C413.657 165.12 413.23 165.216 412.835 165.408C412.451 165.589 412.137 165.851 411.891 166.192V170.016C412.147 170.357 412.467 170.624 412.851 170.816C413.246 171.008 413.667 171.104 414.115 171.104ZM422.543 172.16C421.871 172.16 421.359 172 421.007 171.68C420.666 171.349 420.495 170.875 420.495 170.256V165.152H418.879V164.192H420.495V162.048L421.663 161.776V164.192H423.903V165.152H421.663V169.952C421.663 170.368 421.749 170.667 421.919 170.848C422.101 171.029 422.394 171.12 422.799 171.12C423.002 171.12 423.183 171.104 423.343 171.072C423.503 171.04 423.69 170.987 423.903 170.912V171.952C423.69 172.027 423.466 172.08 423.231 172.112C422.997 172.144 422.767 172.16 422.543 172.16ZM426.106 175.504C425.861 175.504 425.61 175.467 425.354 175.392V174.352C425.461 174.373 425.573 174.389 425.69 174.4C425.808 174.411 425.909 174.416 425.994 174.416C426.293 174.416 426.538 174.336 426.73 174.176C426.933 174.016 427.104 173.765 427.242 173.424L427.818 172L424.81 164.192H426.106L428.474 170.608L430.986 164.192H432.282L428.346 173.776C428.176 174.192 427.989 174.528 427.786 174.784C427.584 175.04 427.349 175.221 427.082 175.328C426.816 175.445 426.49 175.504 426.106 175.504ZM439.889 172.16C439.249 172.16 438.657 172.064 438.113 171.872C437.569 171.669 437.105 171.381 436.721 171.008L437.345 170.24C437.815 170.581 438.247 170.832 438.641 170.992C439.036 171.141 439.441 171.216 439.857 171.216C440.423 171.216 440.892 171.083 441.265 170.816C441.639 170.549 441.825 170.208 441.825 169.792C441.825 169.472 441.713 169.221 441.489 169.04C441.276 168.859 440.919 168.72 440.417 168.624L439.137 168.4C438.38 168.261 437.82 168.027 437.457 167.696C437.105 167.365 436.929 166.917 436.929 166.352C436.929 165.904 437.047 165.509 437.281 165.168C437.527 164.827 437.863 164.56 438.289 164.368C438.716 164.165 439.201 164.064 439.745 164.064C440.279 164.064 440.785 164.144 441.265 164.304C441.745 164.453 442.231 164.699 442.721 165.04L442.145 165.856C441.74 165.568 441.335 165.36 440.929 165.232C440.524 165.093 440.113 165.024 439.697 165.024C439.185 165.024 438.775 165.136 438.465 165.36C438.156 165.584 438.001 165.888 438.001 166.272C438.001 166.592 438.097 166.837 438.289 167.008C438.492 167.179 438.844 167.307 439.345 167.392L440.657 167.632C441.447 167.771 442.023 168.011 442.385 168.352C442.748 168.693 442.929 169.152 442.929 169.728C442.929 170.187 442.796 170.603 442.529 170.976C442.263 171.339 441.9 171.627 441.441 171.84C440.983 172.053 440.465 172.16 439.889 172.16ZM447.528 172.16C446.856 172.16 446.344 172 445.992 171.68C445.65 171.349 445.48 170.875 445.48 170.256V165.152H443.864V164.192H445.48V162.048L446.648 161.776V164.192H448.888V165.152H446.648V169.952C446.648 170.368 446.733 170.667 446.904 170.848C447.085 171.029 447.378 171.12 447.784 171.12C447.986 171.12 448.168 171.104 448.328 171.072C448.488 171.04 448.674 170.987 448.888 170.912V171.952C448.674 172.027 448.45 172.08 448.216 172.112C447.981 172.144 447.752 172.16 447.528 172.16ZM453.014 172.144C452.46 172.144 451.969 172.043 451.542 171.84C451.116 171.637 450.78 171.36 450.534 171.008C450.3 170.645 450.182 170.229 450.182 169.76C450.182 169.291 450.305 168.885 450.55 168.544C450.796 168.192 451.137 167.92 451.574 167.728C452.012 167.536 452.524 167.44 453.11 167.44C453.558 167.44 453.98 167.488 454.374 167.584C454.78 167.68 455.153 167.835 455.494 168.048V166.976C455.494 166.336 455.324 165.856 454.982 165.536C454.641 165.205 454.14 165.04 453.478 165.04C453.116 165.04 452.742 165.093 452.358 165.2C451.985 165.307 451.569 165.477 451.11 165.712L450.678 164.816C451.724 164.315 452.705 164.064 453.622 164.064C454.593 164.064 455.34 164.304 455.862 164.784C456.385 165.253 456.646 165.931 456.646 166.816V172H455.494V171.088C455.153 171.44 454.774 171.707 454.358 171.888C453.942 172.059 453.494 172.144 453.014 172.144ZM451.302 169.728C451.302 170.187 451.478 170.555 451.83 170.832C452.193 171.109 452.668 171.248 453.254 171.248C453.692 171.248 454.092 171.173 454.454 171.024C454.828 170.875 455.174 170.651 455.494 170.352V168.848C455.164 168.656 454.822 168.517 454.47 168.432C454.118 168.336 453.724 168.288 453.286 168.288C452.689 168.288 452.209 168.421 451.846 168.688C451.484 168.944 451.302 169.291 451.302 169.728ZM461.762 172.16C461.09 172.16 460.578 172 460.226 171.68C459.885 171.349 459.714 170.875 459.714 170.256V165.152H458.098V164.192H459.714V162.048L460.882 161.776V164.192H463.122V165.152H460.882V169.952C460.882 170.368 460.967 170.667 461.138 170.848C461.319 171.029 461.613 171.12 462.018 171.12C462.221 171.12 462.402 171.104 462.562 171.072C462.722 171.04 462.909 170.987 463.122 170.912V171.952C462.909 172.027 462.685 172.08 462.45 172.112C462.215 172.144 461.986 172.16 461.762 172.16ZM468.197 172.16C467.471 172.16 466.815 171.984 466.229 171.632C465.642 171.269 465.178 170.784 464.837 170.176C464.495 169.557 464.325 168.864 464.325 168.096C464.325 167.328 464.485 166.64 464.805 166.032C465.135 165.424 465.578 164.944 466.133 164.592C466.687 164.24 467.306 164.064 467.989 164.064C468.682 164.064 469.295 164.24 469.829 164.592C470.373 164.933 470.799 165.403 471.109 166C471.429 166.587 471.589 167.253 471.589 168V168.352H465.461C465.503 168.885 465.647 169.365 465.893 169.792C466.149 170.208 466.479 170.539 466.885 170.784C467.301 171.019 467.754 171.136 468.245 171.136C468.65 171.136 469.039 171.067 469.413 170.928C469.797 170.779 470.122 170.581 470.389 170.336L471.125 171.12C470.677 171.472 470.213 171.733 469.733 171.904C469.253 172.075 468.741 172.16 468.197 172.16ZM465.493 167.52H470.437C470.383 167.051 470.239 166.635 470.005 166.272C469.781 165.899 469.493 165.605 469.141 165.392C468.799 165.179 468.415 165.072 467.989 165.072C467.562 165.072 467.173 165.179 466.821 165.392C466.469 165.595 466.175 165.883 465.941 166.256C465.717 166.619 465.567 167.04 465.493 167.52ZM473.977 172.128C473.742 172.128 473.539 172.043 473.369 171.872C473.209 171.701 473.129 171.499 473.129 171.264C473.129 171.019 473.209 170.816 473.369 170.656C473.539 170.485 473.742 170.4 473.977 170.4C474.211 170.4 474.409 170.485 474.569 170.656C474.739 170.816 474.825 171.019 474.825 171.264C474.825 171.499 474.739 171.701 474.569 171.872C474.409 172.043 474.211 172.128 473.977 172.128Z" fill="#4D4D4D"/>
<path d="M220.5 228.5C220.5 218.283 228.783 210 239 210H341C351.217 210 359.5 218.283 359.5 228.5V228.5C359.5 238.717 351.217 247 341 247H239C228.783 247 220.5 238.717 220.5 228.5V228.5Z" fill="#0066CC"/>
<path d="M245.746 233V223.2H249.792C250.427 223.2 250.977 223.321 251.444 223.564C251.911 223.797 252.27 224.133 252.522 224.572C252.783 225.001 252.914 225.51 252.914 226.098C252.914 226.677 252.783 227.185 252.522 227.624C252.27 228.063 251.911 228.403 251.444 228.646C250.977 228.879 250.427 228.996 249.792 228.996H246.824V233H245.746ZM246.824 228.072H249.666C250.347 228.072 250.879 227.895 251.262 227.54C251.645 227.185 251.836 226.705 251.836 226.098C251.836 225.491 251.645 225.015 251.262 224.67C250.879 224.325 250.347 224.152 249.666 224.152H246.824V228.072ZM254.642 233V226.168H255.664V227.568C255.841 227.092 256.093 226.723 256.42 226.462C256.756 226.191 257.138 226.056 257.568 226.056C257.689 226.056 257.801 226.065 257.904 226.084C258.006 226.093 258.109 226.117 258.212 226.154V227.078C258.1 227.041 257.978 227.013 257.848 226.994C257.726 226.966 257.61 226.952 257.498 226.952C257.078 226.952 256.709 227.073 256.392 227.316C256.084 227.559 255.841 227.899 255.664 228.338V233H254.642ZM259.55 233V226.168H260.572V233H259.55ZM260.068 224.474C259.862 224.474 259.685 224.404 259.536 224.264C259.396 224.115 259.326 223.942 259.326 223.746C259.326 223.55 259.396 223.382 259.536 223.242C259.685 223.093 259.862 223.018 260.068 223.018C260.273 223.018 260.446 223.093 260.586 223.242C260.735 223.382 260.81 223.55 260.81 223.746C260.81 223.942 260.735 224.115 260.586 224.264C260.446 224.404 260.273 224.474 260.068 224.474ZM262.667 233V226.168H263.689V227.232C263.951 226.84 264.249 226.546 264.585 226.35C264.921 226.154 265.299 226.056 265.719 226.056C266.205 226.056 266.629 226.177 266.993 226.42C267.357 226.653 267.633 226.975 267.819 227.386C268.09 226.947 268.412 226.616 268.785 226.392C269.168 226.168 269.607 226.056 270.101 226.056C270.559 226.056 270.96 226.163 271.305 226.378C271.66 226.593 271.935 226.891 272.131 227.274C272.327 227.647 272.425 228.086 272.425 228.59V233H271.403V228.842C271.403 228.245 271.254 227.773 270.955 227.428C270.657 227.083 270.246 226.91 269.723 226.91C269.369 226.91 269.047 226.999 268.757 227.176C268.477 227.353 268.23 227.624 268.015 227.988C268.034 228.081 268.048 228.179 268.057 228.282C268.067 228.385 268.071 228.487 268.071 228.59V233H267.049V228.842C267.049 228.245 266.895 227.773 266.587 227.428C266.289 227.083 265.878 226.91 265.355 226.91C264.655 226.91 264.1 227.246 263.689 227.918V233H262.667ZM276.607 233.126C276.122 233.126 275.693 233.037 275.319 232.86C274.946 232.683 274.652 232.44 274.437 232.132C274.232 231.815 274.129 231.451 274.129 231.04C274.129 230.629 274.237 230.275 274.451 229.976C274.666 229.668 274.965 229.43 275.347 229.262C275.73 229.094 276.178 229.01 276.691 229.01C277.083 229.01 277.452 229.052 277.797 229.136C278.152 229.22 278.479 229.355 278.777 229.542V228.604C278.777 228.044 278.628 227.624 278.329 227.344C278.031 227.055 277.592 226.91 277.013 226.91C276.696 226.91 276.369 226.957 276.033 227.05C275.707 227.143 275.343 227.293 274.941 227.498L274.563 226.714C275.478 226.275 276.337 226.056 277.139 226.056C277.989 226.056 278.642 226.266 279.099 226.686C279.557 227.097 279.785 227.689 279.785 228.464V233H278.777V232.202C278.479 232.51 278.147 232.743 277.783 232.902C277.419 233.051 277.027 233.126 276.607 233.126ZM275.109 231.012C275.109 231.413 275.263 231.735 275.571 231.978C275.889 232.221 276.304 232.342 276.817 232.342C277.2 232.342 277.55 232.277 277.867 232.146C278.194 232.015 278.497 231.819 278.777 231.558V230.242C278.488 230.074 278.189 229.953 277.881 229.878C277.573 229.794 277.228 229.752 276.845 229.752C276.323 229.752 275.903 229.869 275.585 230.102C275.268 230.326 275.109 230.629 275.109 231.012ZM281.863 233V226.168H282.885V227.568C283.062 227.092 283.314 226.723 283.641 226.462C283.977 226.191 284.359 226.056 284.789 226.056C284.91 226.056 285.022 226.065 285.125 226.084C285.227 226.093 285.33 226.117 285.433 226.154V227.078C285.321 227.041 285.199 227.013 285.069 226.994C284.947 226.966 284.831 226.952 284.719 226.952C284.299 226.952 283.93 227.073 283.613 227.316C283.305 227.559 283.062 227.899 282.885 228.338V233H281.863ZM287.215 236.066C287 236.066 286.781 236.033 286.557 235.968V235.058C286.65 235.077 286.748 235.091 286.851 235.1C286.954 235.109 287.042 235.114 287.117 235.114C287.378 235.114 287.593 235.044 287.761 234.904C287.938 234.764 288.088 234.545 288.209 234.246L288.713 233L286.081 226.168H287.215L289.287 231.782L291.485 226.168H292.619L289.175 234.554C289.026 234.918 288.862 235.212 288.685 235.436C288.508 235.66 288.302 235.819 288.069 235.912C287.836 236.015 287.551 236.066 287.215 236.066ZM299.275 233.126C298.79 233.126 298.361 233.037 297.987 232.86C297.614 232.683 297.32 232.44 297.105 232.132C296.9 231.815 296.797 231.451 296.797 231.04C296.797 230.629 296.905 230.275 297.119 229.976C297.334 229.668 297.633 229.43 298.015 229.262C298.398 229.094 298.846 229.01 299.359 229.01C299.751 229.01 300.12 229.052 300.465 229.136C300.82 229.22 301.147 229.355 301.445 229.542V228.604C301.445 228.044 301.296 227.624 300.997 227.344C300.699 227.055 300.26 226.91 299.681 226.91C299.364 226.91 299.037 226.957 298.701 227.05C298.375 227.143 298.011 227.293 297.609 227.498L297.231 226.714C298.146 226.275 299.005 226.056 299.807 226.056C300.657 226.056 301.31 226.266 301.767 226.686C302.225 227.097 302.453 227.689 302.453 228.464V233H301.445V232.202C301.147 232.51 300.815 232.743 300.451 232.902C300.087 233.051 299.695 233.126 299.275 233.126ZM297.777 231.012C297.777 231.413 297.931 231.735 298.239 231.978C298.557 232.221 298.972 232.342 299.485 232.342C299.868 232.342 300.218 232.277 300.535 232.146C300.862 232.015 301.165 231.819 301.445 231.558V230.242C301.156 230.074 300.857 229.953 300.549 229.878C300.241 229.794 299.896 229.752 299.513 229.752C298.991 229.752 298.571 229.869 298.253 230.102C297.936 230.326 297.777 230.629 297.777 231.012ZM307.596 233.112C306.962 233.112 306.388 232.958 305.874 232.65C305.37 232.333 304.969 231.908 304.67 231.376C304.372 230.835 304.222 230.237 304.222 229.584C304.222 228.921 304.372 228.324 304.67 227.792C304.969 227.26 305.37 226.84 305.874 226.532C306.388 226.215 306.962 226.056 307.596 226.056C308.1 226.056 308.581 226.149 309.038 226.336C309.496 226.523 309.892 226.784 310.228 227.12L309.57 227.834C309.328 227.563 309.034 227.353 308.688 227.204C308.343 227.055 307.993 226.98 307.638 226.98C307.19 226.98 306.784 227.097 306.42 227.33C306.066 227.563 305.781 227.876 305.566 228.268C305.352 228.66 305.244 229.099 305.244 229.584C305.244 230.069 305.352 230.508 305.566 230.9C305.781 231.292 306.066 231.605 306.42 231.838C306.784 232.071 307.19 232.188 307.638 232.188C307.993 232.188 308.343 232.113 308.688 231.964C309.034 231.805 309.328 231.595 309.57 231.334L310.228 232.048C309.892 232.384 309.496 232.645 309.038 232.832C308.581 233.019 308.1 233.112 307.596 233.112ZM314.394 233.14C313.806 233.14 313.358 233 313.05 232.72C312.752 232.431 312.602 232.015 312.602 231.474V227.008H311.188V226.168H312.602V224.292L313.624 224.054V226.168H315.584V227.008H313.624V231.208C313.624 231.572 313.699 231.833 313.848 231.992C314.007 232.151 314.264 232.23 314.618 232.23C314.796 232.23 314.954 232.216 315.094 232.188C315.234 232.16 315.398 232.113 315.584 232.048V232.958C315.398 233.023 315.202 233.07 314.996 233.098C314.791 233.126 314.59 233.14 314.394 233.14ZM317.067 233V226.168H318.089V233H317.067ZM317.585 224.474C317.38 224.474 317.203 224.404 317.053 224.264C316.913 224.115 316.843 223.942 316.843 223.746C316.843 223.55 316.913 223.382 317.053 223.242C317.203 223.093 317.38 223.018 317.585 223.018C317.791 223.018 317.963 223.093 318.103 223.242C318.253 223.382 318.327 223.55 318.327 223.746C318.327 223.942 318.253 224.115 318.103 224.264C317.963 224.404 317.791 224.474 317.585 224.474ZM323.209 233.112C322.574 233.112 322.005 232.958 321.501 232.65C320.997 232.342 320.6 231.922 320.311 231.39C320.021 230.858 319.877 230.256 319.877 229.584C319.877 228.912 320.021 228.31 320.311 227.778C320.6 227.246 320.997 226.826 321.501 226.518C322.005 226.21 322.574 226.056 323.209 226.056C323.834 226.056 324.394 226.21 324.889 226.518C325.393 226.826 325.789 227.246 326.079 227.778C326.368 228.31 326.513 228.912 326.513 229.584C326.513 230.256 326.368 230.858 326.079 231.39C325.789 231.922 325.393 232.342 324.889 232.65C324.394 232.958 323.834 233.112 323.209 233.112ZM323.195 232.216C323.643 232.216 324.039 232.104 324.385 231.88C324.73 231.647 325.001 231.329 325.197 230.928C325.402 230.527 325.505 230.079 325.505 229.584C325.505 229.08 325.402 228.632 325.197 228.24C325.001 227.839 324.73 227.526 324.385 227.302C324.039 227.069 323.643 226.952 323.195 226.952C322.747 226.952 322.35 227.069 322.005 227.302C321.659 227.526 321.384 227.839 321.179 228.24C320.983 228.632 320.885 229.08 320.885 229.584C320.885 230.079 320.983 230.527 321.179 230.928C321.384 231.329 321.659 231.647 322.005 231.88C322.35 232.104 322.747 232.216 323.195 232.216ZM328.306 233V226.168H329.328V227.274C329.589 226.863 329.902 226.56 330.266 226.364C330.63 226.159 331.041 226.056 331.498 226.056C331.993 226.056 332.422 226.163 332.786 226.378C333.159 226.583 333.449 226.877 333.654 227.26C333.869 227.633 333.976 228.072 333.976 228.576V233H332.954V228.87C332.954 228.263 332.786 227.787 332.45 227.442C332.123 227.087 331.68 226.91 331.12 226.91C330.747 226.91 330.406 226.999 330.098 227.176C329.79 227.353 329.533 227.615 329.328 227.96V233H328.306Z" fill="white"/>
<path d="M239.41 278.154C238.645 278.154 237.935 278.019 237.282 277.748C236.629 277.468 235.999 277.048 235.392 276.488L236.05 275.704C236.638 276.255 237.189 276.647 237.702 276.88C238.225 277.113 238.803 277.23 239.438 277.23C239.942 277.23 240.39 277.146 240.782 276.978C241.183 276.801 241.496 276.563 241.72 276.264C241.944 275.965 242.056 275.625 242.056 275.242C242.056 274.747 241.893 274.374 241.566 274.122C241.239 273.861 240.675 273.66 239.872 273.52L238.29 273.254C237.394 273.095 236.736 272.825 236.316 272.442C235.905 272.05 235.7 271.527 235.7 270.874C235.7 270.323 235.84 269.838 236.12 269.418C236.409 268.989 236.806 268.653 237.31 268.41C237.814 268.167 238.397 268.046 239.06 268.046C239.788 268.046 240.465 268.149 241.09 268.354C241.715 268.55 242.331 268.863 242.938 269.292L242.378 270.132C241.874 269.749 241.342 269.46 240.782 269.264C240.222 269.059 239.653 268.956 239.074 268.956C238.617 268.956 238.211 269.035 237.856 269.194C237.511 269.353 237.235 269.567 237.03 269.838C236.834 270.109 236.736 270.417 236.736 270.762C236.736 271.191 236.881 271.527 237.17 271.77C237.459 272.013 237.931 272.185 238.584 272.288L240.152 272.554C241.197 272.741 241.953 273.044 242.42 273.464C242.896 273.875 243.134 274.449 243.134 275.186C243.134 275.755 242.971 276.264 242.644 276.712C242.327 277.16 241.888 277.515 241.328 277.776C240.768 278.028 240.129 278.154 239.41 278.154ZM247.989 278.14C247.355 278.14 246.781 277.986 246.267 277.678C245.754 277.361 245.348 276.936 245.049 276.404C244.751 275.863 244.601 275.256 244.601 274.584C244.601 273.912 244.741 273.31 245.021 272.778C245.311 272.246 245.698 271.826 246.183 271.518C246.669 271.21 247.21 271.056 247.807 271.056C248.414 271.056 248.951 271.21 249.417 271.518C249.893 271.817 250.267 272.227 250.537 272.75C250.817 273.263 250.957 273.847 250.957 274.5V274.808H245.595C245.633 275.275 245.759 275.695 245.973 276.068C246.197 276.432 246.487 276.721 246.841 276.936C247.205 277.141 247.602 277.244 248.031 277.244C248.386 277.244 248.727 277.183 249.053 277.062C249.389 276.931 249.674 276.759 249.907 276.544L250.551 277.23C250.159 277.538 249.753 277.767 249.333 277.916C248.913 278.065 248.465 278.14 247.989 278.14ZM245.623 274.08H249.949C249.903 273.669 249.777 273.305 249.571 272.988C249.375 272.661 249.123 272.405 248.815 272.218C248.517 272.031 248.181 271.938 247.807 271.938C247.434 271.938 247.093 272.031 246.785 272.218C246.477 272.395 246.221 272.647 246.015 272.974C245.819 273.291 245.689 273.66 245.623 274.08ZM255.768 278.112C255.134 278.112 254.56 277.958 254.046 277.65C253.542 277.333 253.141 276.908 252.842 276.376C252.544 275.835 252.394 275.237 252.394 274.584C252.394 273.921 252.544 273.324 252.842 272.792C253.141 272.26 253.542 271.84 254.046 271.532C254.56 271.215 255.134 271.056 255.768 271.056C256.272 271.056 256.753 271.149 257.21 271.336C257.668 271.523 258.064 271.784 258.4 272.12L257.742 272.834C257.5 272.563 257.206 272.353 256.86 272.204C256.515 272.055 256.165 271.98 255.81 271.98C255.362 271.98 254.956 272.097 254.592 272.33C254.238 272.563 253.953 272.876 253.738 273.268C253.524 273.66 253.416 274.099 253.416 274.584C253.416 275.069 253.524 275.508 253.738 275.9C253.953 276.292 254.238 276.605 254.592 276.838C254.956 277.071 255.362 277.188 255.81 277.188C256.165 277.188 256.515 277.113 256.86 276.964C257.206 276.805 257.5 276.595 257.742 276.334L258.4 277.048C258.064 277.384 257.668 277.645 257.21 277.832C256.753 278.019 256.272 278.112 255.768 278.112ZM262.644 278.112C262.01 278.112 261.44 277.958 260.936 277.65C260.432 277.342 260.036 276.922 259.746 276.39C259.457 275.858 259.312 275.256 259.312 274.584C259.312 273.912 259.457 273.31 259.746 272.778C260.036 272.246 260.432 271.826 260.936 271.518C261.44 271.21 262.01 271.056 262.644 271.056C263.27 271.056 263.83 271.21 264.324 271.518C264.828 271.826 265.225 272.246 265.514 272.778C265.804 273.31 265.948 273.912 265.948 274.584C265.948 275.256 265.804 275.858 265.514 276.39C265.225 276.922 264.828 277.342 264.324 277.65C263.83 277.958 263.27 278.112 262.644 278.112ZM262.63 277.216C263.078 277.216 263.475 277.104 263.82 276.88C264.166 276.647 264.436 276.329 264.632 275.928C264.838 275.527 264.94 275.079 264.94 274.584C264.94 274.08 264.838 273.632 264.632 273.24C264.436 272.839 264.166 272.526 263.82 272.302C263.475 272.069 263.078 271.952 262.63 271.952C262.182 271.952 261.786 272.069 261.44 272.302C261.095 272.526 260.82 272.839 260.614 273.24C260.418 273.632 260.32 274.08 260.32 274.584C260.32 275.079 260.418 275.527 260.614 275.928C260.82 276.329 261.095 276.647 261.44 276.88C261.786 277.104 262.182 277.216 262.63 277.216ZM267.741 278V271.168H268.763V272.274C269.025 271.863 269.337 271.56 269.701 271.364C270.065 271.159 270.476 271.056 270.933 271.056C271.428 271.056 271.857 271.163 272.221 271.378C272.595 271.583 272.884 271.877 273.089 272.26C273.304 272.633 273.411 273.072 273.411 273.576V278H272.389V273.87C272.389 273.263 272.221 272.787 271.885 272.442C271.559 272.087 271.115 271.91 270.555 271.91C270.182 271.91 269.841 271.999 269.533 272.176C269.225 272.353 268.969 272.615 268.763 272.96V278H267.741ZM278.308 278.098C277.72 278.098 277.188 277.944 276.712 277.636C276.236 277.319 275.858 276.899 275.578 276.376C275.298 275.844 275.158 275.251 275.158 274.598C275.158 273.935 275.298 273.343 275.578 272.82C275.867 272.288 276.255 271.868 276.74 271.56C277.225 271.243 277.767 271.084 278.364 271.084C278.784 271.084 279.176 271.168 279.54 271.336C279.904 271.495 280.221 271.728 280.492 272.036V267.892L281.514 267.682V278H280.492V277.09C280.231 277.417 279.913 277.669 279.54 277.846C279.167 278.014 278.756 278.098 278.308 278.098ZM278.56 277.202C278.961 277.202 279.33 277.123 279.666 276.964C280.002 276.805 280.277 276.581 280.492 276.292V272.904C280.268 272.615 279.983 272.391 279.638 272.232C279.302 272.064 278.943 271.98 278.56 271.98C278.103 271.98 277.692 272.092 277.328 272.316C276.973 272.54 276.689 272.848 276.474 273.24C276.269 273.632 276.166 274.08 276.166 274.584C276.166 275.079 276.269 275.527 276.474 275.928C276.689 276.32 276.973 276.633 277.328 276.866C277.692 277.09 278.103 277.202 278.56 277.202ZM285.728 278.126C285.243 278.126 284.814 278.037 284.44 277.86C284.067 277.683 283.773 277.44 283.558 277.132C283.353 276.815 283.25 276.451 283.25 276.04C283.25 275.629 283.358 275.275 283.572 274.976C283.787 274.668 284.086 274.43 284.468 274.262C284.851 274.094 285.299 274.01 285.812 274.01C286.204 274.01 286.573 274.052 286.918 274.136C287.273 274.22 287.6 274.355 287.898 274.542V273.604C287.898 273.044 287.749 272.624 287.45 272.344C287.152 272.055 286.713 271.91 286.134 271.91C285.817 271.91 285.49 271.957 285.154 272.05C284.828 272.143 284.464 272.293 284.062 272.498L283.684 271.714C284.599 271.275 285.458 271.056 286.26 271.056C287.11 271.056 287.763 271.266 288.22 271.686C288.678 272.097 288.906 272.689 288.906 273.464V278H287.898V277.202C287.6 277.51 287.268 277.743 286.904 277.902C286.54 278.051 286.148 278.126 285.728 278.126ZM284.23 276.012C284.23 276.413 284.384 276.735 284.692 276.978C285.01 277.221 285.425 277.342 285.938 277.342C286.321 277.342 286.671 277.277 286.988 277.146C287.315 277.015 287.618 276.819 287.898 276.558V275.242C287.609 275.074 287.31 274.953 287.002 274.878C286.694 274.794 286.349 274.752 285.966 274.752C285.444 274.752 285.024 274.869 284.706 275.102C284.389 275.326 284.23 275.629 284.23 276.012ZM290.984 278V271.168H292.006V272.568C292.183 272.092 292.435 271.723 292.762 271.462C293.098 271.191 293.48 271.056 293.91 271.056C294.031 271.056 294.143 271.065 294.246 271.084C294.348 271.093 294.451 271.117 294.554 271.154V272.078C294.442 272.041 294.32 272.013 294.19 271.994C294.068 271.966 293.952 271.952 293.84 271.952C293.42 271.952 293.051 272.073 292.734 272.316C292.426 272.559 292.183 272.899 292.006 273.338V278H290.984ZM296.336 281.066C296.122 281.066 295.902 281.033 295.678 280.968V280.058C295.772 280.077 295.87 280.091 295.972 280.1C296.075 280.109 296.164 280.114 296.238 280.114C296.5 280.114 296.714 280.044 296.882 279.904C297.06 279.764 297.209 279.545 297.33 279.246L297.834 278L295.202 271.168H296.336L298.408 276.782L300.606 271.168H301.74L298.296 279.554C298.147 279.918 297.984 280.212 297.806 280.436C297.629 280.66 297.424 280.819 297.19 280.912C296.957 281.015 296.672 281.066 296.336 281.066ZM308.396 278.126C307.911 278.126 307.482 278.037 307.108 277.86C306.735 277.683 306.441 277.44 306.226 277.132C306.021 276.815 305.918 276.451 305.918 276.04C305.918 275.629 306.026 275.275 306.24 274.976C306.455 274.668 306.754 274.43 307.136 274.262C307.519 274.094 307.967 274.01 308.48 274.01C308.872 274.01 309.241 274.052 309.586 274.136C309.941 274.22 310.268 274.355 310.566 274.542V273.604C310.566 273.044 310.417 272.624 310.118 272.344C309.82 272.055 309.381 271.91 308.802 271.91C308.485 271.91 308.158 271.957 307.822 272.05C307.496 272.143 307.132 272.293 306.73 272.498L306.352 271.714C307.267 271.275 308.126 271.056 308.928 271.056C309.778 271.056 310.431 271.266 310.888 271.686C311.346 272.097 311.574 272.689 311.574 273.464V278H310.566V277.202C310.268 277.51 309.936 277.743 309.572 277.902C309.208 278.051 308.816 278.126 308.396 278.126ZM306.898 276.012C306.898 276.413 307.052 276.735 307.36 276.978C307.678 277.221 308.093 277.342 308.606 277.342C308.989 277.342 309.339 277.277 309.656 277.146C309.983 277.015 310.286 276.819 310.566 276.558V275.242C310.277 275.074 309.978 274.953 309.67 274.878C309.362 274.794 309.017 274.752 308.634 274.752C308.112 274.752 307.692 274.869 307.374 275.102C307.057 275.326 306.898 275.629 306.898 276.012ZM316.718 278.112C316.083 278.112 315.509 277.958 314.996 277.65C314.492 277.333 314.09 276.908 313.792 276.376C313.493 275.835 313.344 275.237 313.344 274.584C313.344 273.921 313.493 273.324 313.792 272.792C314.09 272.26 314.492 271.84 314.996 271.532C315.509 271.215 316.083 271.056 316.718 271.056C317.222 271.056 317.702 271.149 318.16 271.336C318.617 271.523 319.014 271.784 319.35 272.12L318.692 272.834C318.449 272.563 318.155 272.353 317.81 272.204C317.464 272.055 317.114 271.98 316.76 271.98C316.312 271.98 315.906 272.097 315.542 272.33C315.187 272.563 314.902 272.876 314.688 273.268C314.473 273.66 314.366 274.099 314.366 274.584C314.366 275.069 314.473 275.508 314.688 275.9C314.902 276.292 315.187 276.605 315.542 276.838C315.906 277.071 316.312 277.188 316.76 277.188C317.114 277.188 317.464 277.113 317.81 276.964C318.155 276.805 318.449 276.595 318.692 276.334L319.35 277.048C319.014 277.384 318.617 277.645 318.16 277.832C317.702 278.019 317.222 278.112 316.718 278.112ZM323.515 278.14C322.927 278.14 322.479 278 322.171 277.72C321.873 277.431 321.723 277.015 321.723 276.474V272.008H320.309V271.168H321.723V269.292L322.745 269.054V271.168H324.705V272.008H322.745V276.208C322.745 276.572 322.82 276.833 322.969 276.992C323.128 277.151 323.385 277.23 323.739 277.23C323.917 277.23 324.075 277.216 324.215 277.188C324.355 277.16 324.519 277.113 324.705 277.048V277.958C324.519 278.023 324.323 278.07 324.117 278.098C323.912 278.126 323.711 278.14 323.515 278.14ZM326.188 278V271.168H327.21V278H326.188ZM326.706 269.474C326.501 269.474 326.324 269.404 326.174 269.264C326.034 269.115 325.964 268.942 325.964 268.746C325.964 268.55 326.034 268.382 326.174 268.242C326.324 268.093 326.501 268.018 326.706 268.018C326.912 268.018 327.084 268.093 327.224 268.242C327.374 268.382 327.448 268.55 327.448 268.746C327.448 268.942 327.374 269.115 327.224 269.264C327.084 269.404 326.912 269.474 326.706 269.474ZM332.33 278.112C331.695 278.112 331.126 277.958 330.622 277.65C330.118 277.342 329.721 276.922 329.432 276.39C329.143 275.858 328.998 275.256 328.998 274.584C328.998 273.912 329.143 273.31 329.432 272.778C329.721 272.246 330.118 271.826 330.622 271.518C331.126 271.21 331.695 271.056 332.33 271.056C332.955 271.056 333.515 271.21 334.01 271.518C334.514 271.826 334.911 272.246 335.2 272.778C335.489 273.31 335.634 273.912 335.634 274.584C335.634 275.256 335.489 275.858 335.2 276.39C334.911 276.922 334.514 277.342 334.01 277.65C333.515 277.958 332.955 278.112 332.33 278.112ZM332.316 277.216C332.764 277.216 333.161 277.104 333.506 276.88C333.851 276.647 334.122 276.329 334.318 275.928C334.523 275.527 334.626 275.079 334.626 274.584C334.626 274.08 334.523 273.632 334.318 273.24C334.122 272.839 333.851 272.526 333.506 272.302C333.161 272.069 332.764 271.952 332.316 271.952C331.868 271.952 331.471 272.069 331.126 272.302C330.781 272.526 330.505 272.839 330.3 273.24C330.104 273.632 330.006 274.08 330.006 274.584C330.006 275.079 330.104 275.527 330.3 275.928C330.505 276.329 330.781 276.647 331.126 276.88C331.471 277.104 331.868 277.216 332.316 277.216ZM337.427 278V271.168H338.449V272.274C338.71 271.863 339.023 271.56 339.387 271.364C339.751 271.159 340.162 271.056 340.619 271.056C341.114 271.056 341.543 271.163 341.907 271.378C342.28 271.583 342.57 271.877 342.775 272.26C342.99 272.633 343.097 273.072 343.097 273.576V278H342.075V273.87C342.075 273.263 341.907 272.787 341.571 272.442C341.244 272.087 340.801 271.91 340.241 271.91C339.868 271.91 339.527 271.999 339.219 272.176C338.911 272.353 338.654 272.615 338.449 272.96V278H337.427Z" fill="#0066CC"/>
</svg>
