<svg width="384" height="278" viewBox="0 0 384 278" fill="none" xmlns="http://www.w3.org/2000/svg">
<g clip-path="url(#clip0_135_68166)">
<rect width="384" height="278" fill="white"/>
<rect width="462" height="119" transform="translate(0 39)" fill="white"/>
<rect width="462" height="119" transform="translate(0 39)" fill="white"/>
<path d="M17 61C17 58.2386 19.2386 56 22 56H144C146.761 56 149 58.2386 149 61V86C149 88.7614 146.761 91 144 91H22C19.2386 91 17 88.7614 17 86V61Z" fill="white"/>
<path d="M17 61C17 58.2386 19.2386 56 22 56H144C146.761 56 149 58.2386 149 61V86C149 88.7614 146.761 91 144 91H22C19.2386 91 17 88.7614 17 86V61Z" stroke="#0066CC" stroke-width="2"/>
<path fill-rule="evenodd" clip-rule="evenodd" d="M45.75 79.8432V72.6781L50.8071 67.6203C51.2193 67.2081 50.9272 66.5 50.3431 66.5H37.657C37.0741 66.5 36.78 67.2073 37.193 67.6203L42.25 72.6781V78.3125C42.25 78.5266 42.3545 78.7273 42.5299 78.8501L44.7174 80.3808C45.149 80.6829 45.75 80.3767 45.75 79.8432Z" fill="#1F1F1F"/>
<path d="M68.41 78.154C67.6447 78.154 66.9353 78.0187 66.282 77.748C65.6287 77.468 64.9987 77.048 64.392 76.488L65.05 75.704C65.638 76.2547 66.1887 76.6467 66.702 76.88C67.2247 77.1133 67.8033 77.23 68.438 77.23C68.942 77.23 69.39 77.146 69.782 76.978C70.1833 76.8007 70.496 76.5627 70.72 76.264C70.944 75.9653 71.056 75.6247 71.056 75.242C71.056 74.7473 70.8927 74.374 70.566 74.122C70.2393 73.8607 69.6747 73.66 68.872 73.52L67.29 73.254C66.394 73.0953 65.736 72.8247 65.316 72.442C64.9053 72.05 64.7 71.5273 64.7 70.874C64.7 70.3233 64.84 69.838 65.12 69.418C65.4093 68.9887 65.806 68.6527 66.31 68.41C66.814 68.1673 67.3973 68.046 68.06 68.046C68.788 68.046 69.4647 68.1487 70.09 68.354C70.7153 68.55 71.3313 68.8627 71.938 69.292L71.378 70.132C70.874 69.7493 70.342 69.46 69.782 69.264C69.222 69.0587 68.6527 68.956 68.074 68.956C67.6167 68.956 67.2107 69.0353 66.856 69.194C66.5107 69.3527 66.2353 69.5673 66.03 69.838C65.834 70.1087 65.736 70.4167 65.736 70.762C65.736 71.1913 65.8807 71.5273 66.17 71.77C66.4593 72.0127 66.9307 72.1853 67.584 72.288L69.152 72.554C70.1973 72.7407 70.9533 73.044 71.42 73.464C71.896 73.8747 72.134 74.4487 72.134 75.186C72.134 75.7553 71.9707 76.264 71.644 76.712C71.3267 77.16 70.888 77.5147 70.328 77.776C69.768 78.028 69.1287 78.154 68.41 78.154ZM76.1716 78.14C75.5836 78.14 75.1356 78 74.8276 77.72C74.5289 77.4307 74.3796 77.0153 74.3796 76.474V72.008H72.9656V71.168H74.3796V69.292L75.4016 69.054V71.168H77.3616V72.008H75.4016V76.208C75.4016 76.572 75.4762 76.8333 75.6256 76.992C75.7842 77.1507 76.0409 77.23 76.3956 77.23C76.5729 77.23 76.7316 77.216 76.8716 77.188C77.0116 77.16 77.1749 77.1133 77.3616 77.048V77.958C77.1749 78.0233 76.9789 78.07 76.7736 78.098C76.5682 78.126 76.3676 78.14 76.1716 78.14ZM80.9726 78.126C80.4873 78.126 80.0579 78.0373 79.6846 77.86C79.3113 77.6827 79.0173 77.44 78.8026 77.132C78.5973 76.8147 78.4946 76.4507 78.4946 76.04C78.4946 75.6293 78.6019 75.2747 78.8166 74.976C79.0313 74.668 79.3299 74.43 79.7126 74.262C80.0953 74.094 80.5433 74.01 81.0566 74.01C81.4486 74.01 81.8173 74.052 82.1626 74.136C82.5173 74.22 82.8439 74.3553 83.1426 74.542V73.604C83.1426 73.044 82.9933 72.624 82.6946 72.344C82.3959 72.0547 81.9573 71.91 81.3786 71.91C81.0613 71.91 80.7346 71.9567 80.3986 72.05C80.0719 72.1433 79.7079 72.2927 79.3066 72.498L78.9286 71.714C79.8433 71.2753 80.7019 71.056 81.5046 71.056C82.3539 71.056 83.0073 71.266 83.4646 71.686C83.9219 72.0967 84.1506 72.6893 84.1506 73.464V78H83.1426V77.202C82.8439 77.51 82.5126 77.7433 82.1486 77.902C81.7846 78.0513 81.3926 78.126 80.9726 78.126ZM79.4746 76.012C79.4746 76.4133 79.6286 76.7353 79.9366 76.978C80.2539 77.2207 80.6693 77.342 81.1826 77.342C81.5653 77.342 81.9153 77.2767 82.2326 77.146C82.5593 77.0153 82.8626 76.8193 83.1426 76.558V75.242C82.8533 75.074 82.5546 74.9527 82.2466 74.878C81.9386 74.794 81.5933 74.752 81.2106 74.752C80.6879 74.752 80.2679 74.8687 79.9506 75.102C79.6333 75.326 79.4746 75.6293 79.4746 76.012ZM88.6267 78.14C88.0387 78.14 87.5907 78 87.2827 77.72C86.984 77.4307 86.8347 77.0153 86.8347 76.474V72.008H85.4207V71.168H86.8347V69.292L87.8567 69.054V71.168H89.8167V72.008H87.8567V76.208C87.8567 76.572 87.9313 76.8333 88.0807 76.992C88.2393 77.1507 88.496 77.23 88.8507 77.23C89.028 77.23 89.1867 77.216 89.3267 77.188C89.4667 77.16 89.63 77.1133 89.8167 77.048V77.958C89.63 78.0233 89.434 78.07 89.2287 78.098C89.0233 78.126 88.8227 78.14 88.6267 78.14ZM93.7497 78.112C93.2643 78.112 92.835 78.0047 92.4617 77.79C92.0883 77.5753 91.7943 77.2767 91.5797 76.894C91.3743 76.5113 91.2717 76.0727 91.2717 75.578V71.168H92.3077V75.284C92.3077 75.8907 92.471 76.3713 92.7977 76.726C93.1243 77.0807 93.5677 77.258 94.1277 77.258C94.5103 77.258 94.851 77.1693 95.1497 76.992C95.4577 76.8147 95.7143 76.558 95.9197 76.222V71.168H96.9417V78H95.9197V76.894C95.6583 77.2953 95.3457 77.5987 94.9817 77.804C94.627 78.0093 94.2163 78.112 93.7497 78.112ZM101.152 78.14C100.592 78.14 100.074 78.056 99.5983 77.888C99.1223 77.7107 98.7163 77.4587 98.3803 77.132L98.9263 76.46C99.3369 76.7587 99.7149 76.978 100.06 77.118C100.406 77.2487 100.76 77.314 101.124 77.314C101.619 77.314 102.03 77.1973 102.356 76.964C102.683 76.7307 102.846 76.432 102.846 76.068C102.846 75.788 102.748 75.5687 102.552 75.41C102.366 75.2513 102.053 75.13 101.614 75.046L100.494 74.85C99.8316 74.7287 99.3416 74.5233 99.0243 74.234C98.7163 73.9447 98.5623 73.5527 98.5623 73.058C98.5623 72.666 98.6649 72.3207 98.8703 72.022C99.0849 71.7233 99.3789 71.49 99.7523 71.322C100.126 71.1447 100.55 71.056 101.026 71.056C101.493 71.056 101.936 71.126 102.356 71.266C102.776 71.3967 103.201 71.6113 103.63 71.91L103.126 72.624C102.772 72.372 102.417 72.19 102.062 72.078C101.708 71.9567 101.348 71.896 100.984 71.896C100.536 71.896 100.177 71.994 99.9063 72.19C99.6356 72.386 99.5003 72.652 99.5003 72.988C99.5003 73.268 99.5843 73.4827 99.7523 73.632C99.9296 73.7813 100.238 73.8933 100.676 73.968L101.824 74.178C102.515 74.2993 103.019 74.5093 103.336 74.808C103.654 75.1067 103.812 75.508 103.812 76.012C103.812 76.4133 103.696 76.7773 103.462 77.104C103.229 77.4213 102.912 77.6733 102.51 77.86C102.109 78.0467 101.656 78.14 101.152 78.14Z" fill="#1F1F1F"/>
<path fill-rule="evenodd" clip-rule="evenodd" d="M124.389 76.1714L127.921 72.6102C128.267 72.2615 128.023 71.6666 127.534 71.6666H120.466C119.977 71.6666 119.733 72.2615 120.079 72.6102L123.611 76.1714C123.826 76.3872 124.174 76.3872 124.389 76.1714Z" fill="#1F1F1F"/>
<g clip-path="url(#clip1_135_68166)">
<path d="M167 61C167 58.2386 169.239 56 172 56H365C367.761 56 370 58.2386 370 61V86C370 88.7614 367.761 91 365 91H172C169.239 91 167 88.7614 167 86V61Z" fill="white"/>
<path d="M167 61C167 58.2386 169.239 56 172 56H365C367.761 56 370 58.2386 370 61V86C370 88.7614 367.761 91 365 91H172C169.239 91 167 88.7614 167 86V61Z" stroke="#0066CC" stroke-width="2"/>
<path d="M183.246 78V68.2H189.938V69.152H184.324V72.652H188.16V73.59H184.324V78H183.246ZM191.376 78V71.168H192.398V78H191.376ZM191.894 69.474C191.689 69.474 191.511 69.404 191.362 69.264C191.222 69.1147 191.152 68.942 191.152 68.746C191.152 68.55 191.222 68.382 191.362 68.242C191.511 68.0927 191.689 68.018 191.894 68.018C192.099 68.018 192.272 68.0927 192.412 68.242C192.561 68.382 192.636 68.55 192.636 68.746C192.636 68.942 192.561 69.1147 192.412 69.264C192.272 69.404 192.099 69.474 191.894 69.474ZM194.493 78V67.892L195.515 67.682V78H194.493ZM200.215 78.14C199.627 78.14 199.179 78 198.871 77.72C198.572 77.4307 198.423 77.0153 198.423 76.474V72.008H197.009V71.168H198.423V69.292L199.445 69.054V71.168H201.405V72.008H199.445V76.208C199.445 76.572 199.519 76.8333 199.669 76.992C199.827 77.1507 200.084 77.23 200.439 77.23C200.616 77.23 200.775 77.216 200.915 77.188C201.055 77.16 201.218 77.1133 201.405 77.048V77.958C201.218 78.0233 201.022 78.07 200.817 78.098C200.611 78.126 200.411 78.14 200.215 78.14ZM205.845 78.14C205.21 78.14 204.636 77.986 204.123 77.678C203.61 77.3607 203.204 76.936 202.905 76.404C202.606 75.8627 202.457 75.256 202.457 74.584C202.457 73.912 202.597 73.31 202.877 72.778C203.166 72.246 203.554 71.826 204.039 71.518C204.524 71.21 205.066 71.056 205.663 71.056C206.27 71.056 206.806 71.21 207.273 71.518C207.749 71.8167 208.122 72.2273 208.393 72.75C208.673 73.2633 208.813 73.8467 208.813 74.5V74.808H203.451C203.488 75.2747 203.614 75.6947 203.829 76.068C204.053 76.432 204.342 76.7213 204.697 76.936C205.061 77.1413 205.458 77.244 205.887 77.244C206.242 77.244 206.582 77.1833 206.909 77.062C207.245 76.9313 207.53 76.7587 207.763 76.544L208.407 77.23C208.015 77.538 207.609 77.7667 207.189 77.916C206.769 78.0653 206.321 78.14 205.845 78.14ZM203.479 74.08H207.805C207.758 73.6693 207.632 73.3053 207.427 72.988C207.231 72.6613 206.979 72.4047 206.671 72.218C206.372 72.0313 206.036 71.938 205.663 71.938C205.29 71.938 204.949 72.0313 204.641 72.218C204.333 72.3953 204.076 72.6473 203.871 72.974C203.675 73.2913 203.544 73.66 203.479 74.08ZM210.558 78V71.168H211.58V72.568C211.757 72.092 212.009 71.7233 212.336 71.462C212.672 71.1913 213.054 71.056 213.484 71.056C213.605 71.056 213.717 71.0653 213.82 71.084C213.922 71.0933 214.025 71.1167 214.128 71.154V72.078C214.016 72.0407 213.894 72.0127 213.764 71.994C213.642 71.966 213.526 71.952 213.414 71.952C212.994 71.952 212.625 72.0733 212.308 72.316C212 72.5587 211.757 72.8993 211.58 73.338V78H210.558ZM218.747 78V67.99L219.769 67.78V72.106C220.031 71.7793 220.348 71.5273 220.721 71.35C221.095 71.1727 221.51 71.084 221.967 71.084C222.565 71.084 223.097 71.2427 223.563 71.56C224.039 71.868 224.417 72.288 224.697 72.82C224.977 73.3427 225.117 73.9307 225.117 74.584C225.117 75.2373 224.973 75.83 224.683 76.362C224.403 76.894 224.021 77.3187 223.535 77.636C223.059 77.944 222.518 78.098 221.911 78.098C221.482 78.098 221.081 78.014 220.707 77.846C220.343 77.6687 220.026 77.4213 219.755 77.104V78H218.747ZM221.715 77.216C222.173 77.216 222.579 77.104 222.933 76.88C223.297 76.6467 223.582 76.334 223.787 75.942C224.002 75.5407 224.109 75.0927 224.109 74.598C224.109 74.094 224.002 73.646 223.787 73.254C223.582 72.862 223.297 72.554 222.933 72.33C222.579 72.0967 222.173 71.98 221.715 71.98C221.314 71.98 220.941 72.064 220.595 72.232C220.259 72.3907 219.984 72.6193 219.769 72.918V76.264C219.993 76.5627 220.273 76.796 220.609 76.964C220.955 77.132 221.323 77.216 221.715 77.216ZM226.998 81.066C226.784 81.066 226.564 81.0333 226.34 80.968V80.058C226.434 80.0767 226.532 80.0907 226.634 80.1C226.737 80.1093 226.826 80.114 226.9 80.114C227.162 80.114 227.376 80.044 227.544 79.904C227.722 79.764 227.871 79.5447 227.992 79.246L228.496 78L225.864 71.168H226.998L229.07 76.782L231.268 71.168H232.402L228.958 79.554C228.809 79.918 228.646 80.212 228.468 80.436C228.291 80.66 228.086 80.8187 227.852 80.912C227.619 81.0147 227.334 81.066 226.998 81.066ZM239.059 78.14C238.499 78.14 237.981 78.056 237.505 77.888C237.029 77.7107 236.623 77.4587 236.287 77.132L236.833 76.46C237.243 76.7587 237.621 76.978 237.967 77.118C238.312 77.2487 238.667 77.314 239.031 77.314C239.525 77.314 239.936 77.1973 240.263 76.964C240.589 76.7307 240.753 76.432 240.753 76.068C240.753 75.788 240.655 75.5687 240.459 75.41C240.272 75.2513 239.959 75.13 239.521 75.046L238.401 74.85C237.738 74.7287 237.248 74.5233 236.931 74.234C236.623 73.9447 236.469 73.5527 236.469 73.058C236.469 72.666 236.571 72.3207 236.777 72.022C236.991 71.7233 237.285 71.49 237.659 71.322C238.032 71.1447 238.457 71.056 238.933 71.056C239.399 71.056 239.843 71.126 240.263 71.266C240.683 71.3967 241.107 71.6113 241.537 71.91L241.033 72.624C240.678 72.372 240.323 72.19 239.969 72.078C239.614 71.9567 239.255 71.896 238.891 71.896C238.443 71.896 238.083 71.994 237.813 72.19C237.542 72.386 237.407 72.652 237.407 72.988C237.407 73.268 237.491 73.4827 237.659 73.632C237.836 73.7813 238.144 73.8933 238.583 73.968L239.731 74.178C240.421 74.2993 240.925 74.5093 241.243 74.808C241.56 75.1067 241.719 75.508 241.719 76.012C241.719 76.4133 241.602 76.7773 241.369 77.104C241.135 77.4213 240.818 77.6733 240.417 77.86C240.015 78.0467 239.563 78.14 239.059 78.14ZM245.742 78.14C245.154 78.14 244.706 78 244.398 77.72C244.099 77.4307 243.95 77.0153 243.95 76.474V72.008H242.536V71.168H243.95V69.292L244.972 69.054V71.168H246.932V72.008H244.972V76.208C244.972 76.572 245.047 76.8333 245.196 76.992C245.355 77.1507 245.611 77.23 245.966 77.23C246.143 77.23 246.302 77.216 246.442 77.188C246.582 77.16 246.745 77.1133 246.932 77.048V77.958C246.745 78.0233 246.549 78.07 246.344 78.098C246.139 78.126 245.938 78.14 245.742 78.14ZM250.543 78.126C250.058 78.126 249.628 78.0373 249.255 77.86C248.882 77.6827 248.588 77.44 248.373 77.132C248.168 76.8147 248.065 76.4507 248.065 76.04C248.065 75.6293 248.172 75.2747 248.387 74.976C248.602 74.668 248.9 74.43 249.283 74.262C249.666 74.094 250.114 74.01 250.627 74.01C251.019 74.01 251.388 74.052 251.733 74.136C252.088 74.22 252.414 74.3553 252.713 74.542V73.604C252.713 73.044 252.564 72.624 252.265 72.344C251.966 72.0547 251.528 71.91 250.949 71.91C250.632 71.91 250.305 71.9567 249.969 72.05C249.642 72.1433 249.278 72.2927 248.877 72.498L248.499 71.714C249.414 71.2753 250.272 71.056 251.075 71.056C251.924 71.056 252.578 71.266 253.035 71.686C253.492 72.0967 253.721 72.6893 253.721 73.464V78H252.713V77.202C252.414 77.51 252.083 77.7433 251.719 77.902C251.355 78.0513 250.963 78.126 250.543 78.126ZM249.045 76.012C249.045 76.4133 249.199 76.7353 249.507 76.978C249.824 77.2207 250.24 77.342 250.753 77.342C251.136 77.342 251.486 77.2767 251.803 77.146C252.13 77.0153 252.433 76.8193 252.713 76.558V75.242C252.424 75.074 252.125 74.9527 251.817 74.878C251.509 74.794 251.164 74.752 250.781 74.752C250.258 74.752 249.838 74.8687 249.521 75.102C249.204 75.326 249.045 75.6293 249.045 76.012ZM258.197 78.14C257.609 78.14 257.161 78 256.853 77.72C256.554 77.4307 256.405 77.0153 256.405 76.474V72.008H254.991V71.168H256.405V69.292L257.427 69.054V71.168H259.387V72.008H257.427V76.208C257.427 76.572 257.502 76.8333 257.651 76.992C257.81 77.1507 258.066 77.23 258.421 77.23C258.598 77.23 258.757 77.216 258.897 77.188C259.037 77.16 259.2 77.1133 259.387 77.048V77.958C259.2 78.0233 259.004 78.07 258.799 78.098C258.594 78.126 258.393 78.14 258.197 78.14ZM263.32 78.112C262.835 78.112 262.405 78.0047 262.032 77.79C261.659 77.5753 261.365 77.2767 261.15 76.894C260.945 76.5113 260.842 76.0727 260.842 75.578V71.168H261.878V75.284C261.878 75.8907 262.041 76.3713 262.368 76.726C262.695 77.0807 263.138 77.258 263.698 77.258C264.081 77.258 264.421 77.1693 264.72 76.992C265.028 76.8147 265.285 76.558 265.49 76.222V71.168H266.512V78H265.49V76.894C265.229 77.2953 264.916 77.5987 264.552 77.804C264.197 78.0093 263.787 78.112 263.32 78.112ZM270.723 78.14C270.163 78.14 269.645 78.056 269.169 77.888C268.693 77.7107 268.287 77.4587 267.951 77.132L268.497 76.46C268.907 76.7587 269.285 76.978 269.631 77.118C269.976 77.2487 270.331 77.314 270.695 77.314C271.189 77.314 271.6 77.1973 271.927 76.964C272.253 76.7307 272.417 76.432 272.417 76.068C272.417 75.788 272.319 75.5687 272.123 75.41C271.936 75.2513 271.623 75.13 271.185 75.046L270.065 74.85C269.402 74.7287 268.912 74.5233 268.595 74.234C268.287 73.9447 268.133 73.5527 268.133 73.058C268.133 72.666 268.235 72.3207 268.441 72.022C268.655 71.7233 268.949 71.49 269.323 71.322C269.696 71.1447 270.121 71.056 270.597 71.056C271.063 71.056 271.507 71.126 271.927 71.266C272.347 71.3967 272.771 71.6113 273.201 71.91L272.697 72.624C272.342 72.372 271.987 72.19 271.633 72.078C271.278 71.9567 270.919 71.896 270.555 71.896C270.107 71.896 269.747 71.994 269.477 72.19C269.206 72.386 269.071 72.652 269.071 72.988C269.071 73.268 269.155 73.4827 269.323 73.632C269.5 73.7813 269.808 73.8933 270.247 73.968L271.395 74.178C272.085 74.2993 272.589 74.5093 272.907 74.808C273.224 75.1067 273.383 75.508 273.383 76.012C273.383 76.4133 273.266 76.7773 273.033 77.104C272.799 77.4213 272.482 77.6733 272.081 77.86C271.679 78.0467 271.227 78.14 270.723 78.14Z" fill="#151515"/>
<path d="M284 73.5C284 68.5294 288.029 64.5 293 64.5H307C311.971 64.5 316 68.5294 316 73.5C316 78.4706 311.971 82.5 307 82.5H293C288.029 82.5 284 78.4706 284 73.5Z" fill="#0066CC"/>
<path d="M299.881 77.5V70.48L298.393 71.116V69.952L300.361 69.1H301.189V77.5H299.881Z" fill="white"/>
<path fill-rule="evenodd" clip-rule="evenodd" d="M353.389 76.1714L356.921 72.6102C357.267 72.2615 357.023 71.6666 356.534 71.6666H349.466C348.977 71.6666 348.733 72.2615 349.079 72.6102L352.611 76.1714C352.826 76.3872 353.174 76.3872 353.389 76.1714Z" fill="#1F1F1F"/>
</g>
<path d="M16.5 114C16.5 110.962 18.9624 108.5 22 108.5H158C161.038 108.5 163.5 110.962 163.5 114V136C163.5 139.038 161.038 141.5 158 141.5H22C18.9624 141.5 16.5 139.038 16.5 136V114Z" stroke="#C7C7C7"/>
<path d="M28.41 129.654C27.6447 129.654 26.9353 129.519 26.282 129.248C25.6287 128.968 24.9987 128.548 24.392 127.988L25.05 127.204C25.638 127.755 26.1887 128.147 26.702 128.38C27.2247 128.613 27.8033 128.73 28.438 128.73C28.942 128.73 29.39 128.646 29.782 128.478C30.1833 128.301 30.496 128.063 30.72 127.764C30.944 127.465 31.056 127.125 31.056 126.742C31.056 126.247 30.8927 125.874 30.566 125.622C30.2393 125.361 29.6747 125.16 28.872 125.02L27.29 124.754C26.394 124.595 25.736 124.325 25.316 123.942C24.9053 123.55 24.7 123.027 24.7 122.374C24.7 121.823 24.84 121.338 25.12 120.918C25.4093 120.489 25.806 120.153 26.31 119.91C26.814 119.667 27.3973 119.546 28.06 119.546C28.788 119.546 29.4647 119.649 30.09 119.854C30.7153 120.05 31.3313 120.363 31.938 120.792L31.378 121.632C30.874 121.249 30.342 120.96 29.782 120.764C29.222 120.559 28.6527 120.456 28.074 120.456C27.6167 120.456 27.2107 120.535 26.856 120.694C26.5107 120.853 26.2353 121.067 26.03 121.338C25.834 121.609 25.736 121.917 25.736 122.262C25.736 122.691 25.8807 123.027 26.17 123.27C26.4593 123.513 26.9307 123.685 27.584 123.788L29.152 124.054C30.1973 124.241 30.9533 124.544 31.42 124.964C31.896 125.375 32.134 125.949 32.134 126.686C32.134 127.255 31.9707 127.764 31.644 128.212C31.3267 128.66 30.888 129.015 30.328 129.276C29.768 129.528 29.1287 129.654 28.41 129.654ZM36.1716 129.64C35.5836 129.64 35.1356 129.5 34.8276 129.22C34.5289 128.931 34.3796 128.515 34.3796 127.974V123.508H32.9656V122.668H34.3796V120.792L35.4016 120.554V122.668H37.3616V123.508H35.4016V127.708C35.4016 128.072 35.4762 128.333 35.6256 128.492C35.7842 128.651 36.0409 128.73 36.3956 128.73C36.5729 128.73 36.7316 128.716 36.8716 128.688C37.0116 128.66 37.1749 128.613 37.3616 128.548V129.458C37.1749 129.523 36.9789 129.57 36.7736 129.598C36.5682 129.626 36.3676 129.64 36.1716 129.64ZM40.9726 129.626C40.4873 129.626 40.0579 129.537 39.6846 129.36C39.3113 129.183 39.0173 128.94 38.8026 128.632C38.5973 128.315 38.4946 127.951 38.4946 127.54C38.4946 127.129 38.6019 126.775 38.8166 126.476C39.0313 126.168 39.3299 125.93 39.7126 125.762C40.0953 125.594 40.5433 125.51 41.0566 125.51C41.4486 125.51 41.8173 125.552 42.1626 125.636C42.5173 125.72 42.8439 125.855 43.1426 126.042V125.104C43.1426 124.544 42.9933 124.124 42.6946 123.844C42.3959 123.555 41.9573 123.41 41.3786 123.41C41.0613 123.41 40.7346 123.457 40.3986 123.55C40.0719 123.643 39.7079 123.793 39.3066 123.998L38.9286 123.214C39.8433 122.775 40.7019 122.556 41.5046 122.556C42.3539 122.556 43.0073 122.766 43.4646 123.186C43.9219 123.597 44.1506 124.189 44.1506 124.964V129.5H43.1426V128.702C42.8439 129.01 42.5126 129.243 42.1486 129.402C41.7846 129.551 41.3926 129.626 40.9726 129.626ZM39.4746 127.512C39.4746 127.913 39.6286 128.235 39.9366 128.478C40.2539 128.721 40.6693 128.842 41.1826 128.842C41.5653 128.842 41.9153 128.777 42.2326 128.646C42.5593 128.515 42.8626 128.319 43.1426 128.058V126.742C42.8533 126.574 42.5546 126.453 42.2466 126.378C41.9386 126.294 41.5933 126.252 41.2106 126.252C40.6879 126.252 40.2679 126.369 39.9506 126.602C39.6333 126.826 39.4746 127.129 39.4746 127.512ZM48.6267 129.64C48.0387 129.64 47.5907 129.5 47.2827 129.22C46.984 128.931 46.8347 128.515 46.8347 127.974V123.508H45.4207V122.668H46.8347V120.792L47.8567 120.554V122.668H49.8167V123.508H47.8567V127.708C47.8567 128.072 47.9313 128.333 48.0807 128.492C48.2393 128.651 48.496 128.73 48.8507 128.73C49.028 128.73 49.1867 128.716 49.3267 128.688C49.4667 128.66 49.63 128.613 49.8167 128.548V129.458C49.63 129.523 49.434 129.57 49.2287 129.598C49.0233 129.626 48.8227 129.64 48.6267 129.64ZM53.7497 129.612C53.2643 129.612 52.835 129.505 52.4617 129.29C52.0883 129.075 51.7943 128.777 51.5797 128.394C51.3743 128.011 51.2717 127.573 51.2717 127.078V122.668H52.3077V126.784C52.3077 127.391 52.471 127.871 52.7977 128.226C53.1243 128.581 53.5677 128.758 54.1277 128.758C54.5103 128.758 54.851 128.669 55.1497 128.492C55.4577 128.315 55.7143 128.058 55.9197 127.722V122.668H56.9417V129.5H55.9197V128.394C55.6583 128.795 55.3457 129.099 54.9817 129.304C54.627 129.509 54.2163 129.612 53.7497 129.612ZM61.1523 129.64C60.5923 129.64 60.0743 129.556 59.5983 129.388C59.1223 129.211 58.7163 128.959 58.3803 128.632L58.9263 127.96C59.3369 128.259 59.7149 128.478 60.0603 128.618C60.4056 128.749 60.7603 128.814 61.1243 128.814C61.6189 128.814 62.0296 128.697 62.3563 128.464C62.6829 128.231 62.8463 127.932 62.8463 127.568C62.8463 127.288 62.7483 127.069 62.5523 126.91C62.3656 126.751 62.0529 126.63 61.6143 126.546L60.4943 126.35C59.8316 126.229 59.3416 126.023 59.0243 125.734C58.7163 125.445 58.5623 125.053 58.5623 124.558C58.5623 124.166 58.6649 123.821 58.8703 123.522C59.0849 123.223 59.3789 122.99 59.7523 122.822C60.1256 122.645 60.5503 122.556 61.0263 122.556C61.4929 122.556 61.9363 122.626 62.3563 122.766C62.7763 122.897 63.2009 123.111 63.6303 123.41L63.1263 124.124C62.7716 123.872 62.4169 123.69 62.0623 123.578C61.7076 123.457 61.3483 123.396 60.9843 123.396C60.5363 123.396 60.1769 123.494 59.9063 123.69C59.6356 123.886 59.5003 124.152 59.5003 124.488C59.5003 124.768 59.5843 124.983 59.7523 125.132C59.9296 125.281 60.2376 125.393 60.6763 125.468L61.8243 125.678C62.5149 125.799 63.0189 126.009 63.3363 126.308C63.6536 126.607 63.8123 127.008 63.8123 127.512C63.8123 127.913 63.6956 128.277 63.4623 128.604C63.2289 128.921 62.9116 129.173 62.5103 129.36C62.1089 129.547 61.6563 129.64 61.1523 129.64Z" fill="#151515"/>
<path d="M69 125C69 117.82 74.8203 112 82 112H123C130.18 112 136 117.82 136 125C136 132.18 130.18 138 123 138H82C74.8203 138 69 132.18 69 125Z" fill="#E0E0E0"/>
<path d="M78.992 128.172H80.912C81.52 128.172 82.064 128.024 82.544 127.728C83.024 127.432 83.404 127.032 83.684 126.528C83.972 126.016 84.116 125.44 84.116 124.8C84.116 124.16 83.972 123.588 83.684 123.084C83.404 122.572 83.024 122.168 82.544 121.872C82.064 121.576 81.52 121.428 80.912 121.428H78.992V128.172ZM78.068 129V120.6H80.852C81.468 120.6 82.032 120.708 82.544 120.924C83.064 121.132 83.508 121.428 83.876 121.812C84.252 122.188 84.54 122.632 84.74 123.144C84.948 123.648 85.052 124.2 85.052 124.8C85.052 125.4 84.948 125.956 84.74 126.468C84.54 126.972 84.252 127.416 83.876 127.8C83.508 128.176 83.064 128.472 82.544 128.688C82.032 128.896 81.468 129 80.852 129H78.068ZM89.2225 129.096C88.6785 129.096 88.1905 128.964 87.7585 128.7C87.3265 128.436 86.9865 128.076 86.7385 127.62C86.4905 127.164 86.3665 126.648 86.3665 126.072C86.3665 125.496 86.4905 124.98 86.7385 124.524C86.9865 124.068 87.3265 123.708 87.7585 123.444C88.1905 123.18 88.6785 123.048 89.2225 123.048C89.7585 123.048 90.2385 123.18 90.6625 123.444C91.0945 123.708 91.4345 124.068 91.6825 124.524C91.9305 124.98 92.0545 125.496 92.0545 126.072C92.0545 126.648 91.9305 127.164 91.6825 127.62C91.4345 128.076 91.0945 128.436 90.6625 128.7C90.2385 128.964 89.7585 129.096 89.2225 129.096ZM89.2105 128.328C89.5945 128.328 89.9345 128.232 90.2305 128.04C90.5265 127.84 90.7585 127.568 90.9265 127.224C91.1025 126.88 91.1905 126.496 91.1905 126.072C91.1905 125.64 91.1025 125.256 90.9265 124.92C90.7585 124.576 90.5265 124.308 90.2305 124.116C89.9345 123.916 89.5945 123.816 89.2105 123.816C88.8265 123.816 88.4865 123.916 88.1905 124.116C87.8945 124.308 87.6585 124.576 87.4825 124.92C87.3145 125.256 87.2305 125.64 87.2305 126.072C87.2305 126.496 87.3145 126.88 87.4825 127.224C87.6585 127.568 87.8945 127.84 88.1905 128.04C88.4865 128.232 88.8265 128.328 89.2105 128.328ZM94.5182 129L92.9102 123.144H93.7622L94.9862 127.824L96.3902 123.144H97.1702L98.5742 127.824L99.7862 123.144H100.614L99.0182 129H98.1662L96.7742 124.272L95.3822 129H94.5182ZM101.853 129V123.144H102.729V124.092C102.953 123.74 103.221 123.48 103.533 123.312C103.845 123.136 104.197 123.048 104.589 123.048C105.013 123.048 105.381 123.14 105.693 123.324C106.013 123.5 106.261 123.752 106.437 124.08C106.621 124.4 106.713 124.776 106.713 125.208V129H105.837V125.46C105.837 124.94 105.693 124.532 105.405 124.236C105.125 123.932 104.745 123.78 104.265 123.78C103.945 123.78 103.653 123.856 103.389 124.008C103.125 124.16 102.905 124.384 102.729 124.68V129H101.853Z" fill="#151515"/>
<path fill-rule="evenodd" clip-rule="evenodd" d="M123.285 128.791L123.791 128.285C124.07 128.006 124.07 127.554 123.791 127.274L121.516 125L123.791 122.726C124.07 122.447 124.07 121.994 123.791 121.715L123.285 121.209C123.006 120.93 122.554 120.93 122.274 121.209L120 123.484L117.726 121.209C117.447 120.93 116.994 120.93 116.715 121.209L116.209 121.715C115.93 121.994 115.93 122.446 116.209 122.726L118.484 125L116.209 127.274C115.93 127.553 115.93 128.006 116.209 128.285L116.715 128.791C116.994 129.07 117.447 129.07 117.726 128.791L120 126.516L122.274 128.791C122.553 129.07 123.006 129.07 123.285 128.791Z" fill="#1F1F1F"/>
<path fill-rule="evenodd" clip-rule="evenodd" d="M151.285 128.791L151.791 128.285C152.07 128.006 152.07 127.554 151.791 127.274L149.516 125L151.791 122.726C152.07 122.447 152.07 121.994 151.791 121.715L151.285 121.209C151.006 120.93 150.554 120.93 150.274 121.209L148 123.484L145.726 121.209C145.447 120.93 144.994 120.93 144.715 121.209L144.209 121.715C143.93 121.994 143.93 122.446 144.209 122.726L146.484 125L144.209 127.274C143.93 127.553 143.93 128.006 144.209 128.285L144.715 128.791C144.994 129.07 145.447 129.07 145.726 128.791L148 126.516L150.274 128.791C150.553 129.07 151.006 129.07 151.285 128.791Z" fill="#1F1F1F"/>
<g filter="url(#filter0_d_135_68166)">
<path d="M166 99C166 95.6863 168.686 93 172 93H365C368.314 93 371 95.6863 371 99V251C371 254.314 368.314 257 365 257H172C168.686 257 166 254.314 166 251V99Z" fill="white"/>
<mask id="path-17-inside-1_135_68166" fill="white">
<path d="M190 115.5C190 113.291 191.791 111.5 194 111.5H202C204.209 111.5 206 113.291 206 115.5V123.5C206 125.709 204.209 127.5 202 127.5H194C191.791 127.5 190 125.709 190 123.5V115.5Z"/>
</mask>
<path d="M190 115.5C190 113.291 191.791 111.5 194 111.5H202C204.209 111.5 206 113.291 206 115.5V123.5C206 125.709 204.209 127.5 202 127.5H194C191.791 127.5 190 125.709 190 123.5V115.5Z" fill="white"/>
<path d="M194 112.5H202V110.5H194V112.5ZM205 115.5V123.5H207V115.5H205ZM202 126.5H194V128.5H202V126.5ZM191 123.5V115.5H189V123.5H191ZM194 126.5C192.343 126.5 191 125.157 191 123.5H189C189 126.261 191.239 128.5 194 128.5V126.5ZM205 123.5C205 125.157 203.657 126.5 202 126.5V128.5C204.761 128.5 207 126.261 207 123.5H205ZM202 112.5C203.657 112.5 205 113.843 205 115.5H207C207 112.739 204.761 110.5 202 110.5V112.5ZM194 110.5C191.239 110.5 189 112.739 189 115.5H191C191 113.843 192.343 112.5 194 112.5V110.5Z" fill="#C7C7C7" mask="url(#path-17-inside-1_135_68166)"/>
<path d="M218.41 124.154C217.645 124.154 216.935 124.019 216.282 123.748C215.629 123.468 214.999 123.048 214.392 122.488L215.05 121.704C215.638 122.255 216.189 122.647 216.702 122.88C217.225 123.113 217.803 123.23 218.438 123.23C218.942 123.23 219.39 123.146 219.782 122.978C220.183 122.801 220.496 122.563 220.72 122.264C220.944 121.965 221.056 121.625 221.056 121.242C221.056 120.747 220.893 120.374 220.566 120.122C220.239 119.861 219.675 119.66 218.872 119.52L217.29 119.254C216.394 119.095 215.736 118.825 215.316 118.442C214.905 118.05 214.7 117.527 214.7 116.874C214.7 116.323 214.84 115.838 215.12 115.418C215.409 114.989 215.806 114.653 216.31 114.41C216.814 114.167 217.397 114.046 218.06 114.046C218.788 114.046 219.465 114.149 220.09 114.354C220.715 114.55 221.331 114.863 221.938 115.292L221.378 116.132C220.874 115.749 220.342 115.46 219.782 115.264C219.222 115.059 218.653 114.956 218.074 114.956C217.617 114.956 217.211 115.035 216.856 115.194C216.511 115.353 216.235 115.567 216.03 115.838C215.834 116.109 215.736 116.417 215.736 116.762C215.736 117.191 215.881 117.527 216.17 117.77C216.459 118.013 216.931 118.185 217.584 118.288L219.152 118.554C220.197 118.741 220.953 119.044 221.42 119.464C221.896 119.875 222.134 120.449 222.134 121.186C222.134 121.755 221.971 122.264 221.644 122.712C221.327 123.16 220.888 123.515 220.328 123.776C219.768 124.028 219.129 124.154 218.41 124.154ZM226.172 124.14C225.584 124.14 225.136 124 224.828 123.72C224.529 123.431 224.38 123.015 224.38 122.474V118.008H222.966V117.168H224.38V115.292L225.402 115.054V117.168H227.362V118.008H225.402V122.208C225.402 122.572 225.476 122.833 225.626 122.992C225.784 123.151 226.041 123.23 226.396 123.23C226.573 123.23 226.732 123.216 226.872 123.188C227.012 123.16 227.175 123.113 227.362 123.048V123.958C227.175 124.023 226.979 124.07 226.774 124.098C226.568 124.126 226.368 124.14 226.172 124.14ZM231.746 124.112C231.111 124.112 230.542 123.958 230.038 123.65C229.534 123.342 229.137 122.922 228.848 122.39C228.559 121.858 228.414 121.256 228.414 120.584C228.414 119.912 228.559 119.31 228.848 118.778C229.137 118.246 229.534 117.826 230.038 117.518C230.542 117.21 231.111 117.056 231.746 117.056C232.371 117.056 232.931 117.21 233.426 117.518C233.93 117.826 234.327 118.246 234.616 118.778C234.905 119.31 235.05 119.912 235.05 120.584C235.05 121.256 234.905 121.858 234.616 122.39C234.327 122.922 233.93 123.342 233.426 123.65C232.931 123.958 232.371 124.112 231.746 124.112ZM231.732 123.216C232.18 123.216 232.577 123.104 232.922 122.88C233.267 122.647 233.538 122.329 233.734 121.928C233.939 121.527 234.042 121.079 234.042 120.584C234.042 120.08 233.939 119.632 233.734 119.24C233.538 118.839 233.267 118.526 232.922 118.302C232.577 118.069 232.18 117.952 231.732 117.952C231.284 117.952 230.887 118.069 230.542 118.302C230.197 118.526 229.921 118.839 229.716 119.24C229.52 119.632 229.422 120.08 229.422 120.584C229.422 121.079 229.52 121.527 229.716 121.928C229.921 122.329 230.197 122.647 230.542 122.88C230.887 123.104 231.284 123.216 231.732 123.216ZM236.843 126.926V117.168H237.851V118.148C238.112 117.803 238.43 117.541 238.803 117.364C239.186 117.177 239.606 117.084 240.063 117.084C240.66 117.084 241.192 117.243 241.659 117.56C242.135 117.868 242.513 118.288 242.793 118.82C243.073 119.343 243.213 119.931 243.213 120.584C243.213 121.237 243.068 121.83 242.779 122.362C242.499 122.894 242.116 123.319 241.631 123.636C241.155 123.944 240.614 124.098 240.007 124.098C239.578 124.098 239.181 124.019 238.817 123.86C238.453 123.692 238.136 123.454 237.865 123.146V126.926H236.843ZM239.811 123.216C240.268 123.216 240.674 123.104 241.029 122.88C241.393 122.647 241.678 122.334 241.883 121.942C242.098 121.541 242.205 121.093 242.205 120.598C242.205 120.094 242.098 119.646 241.883 119.254C241.678 118.862 241.393 118.554 241.029 118.33C240.674 118.097 240.268 117.98 239.811 117.98C239.41 117.98 239.036 118.064 238.691 118.232C238.355 118.391 238.08 118.619 237.865 118.918V122.264C238.089 122.563 238.369 122.796 238.705 122.964C239.05 123.132 239.419 123.216 239.811 123.216ZM245.005 126.926V117.168H246.013V118.148C246.274 117.803 246.592 117.541 246.965 117.364C247.348 117.177 247.768 117.084 248.225 117.084C248.822 117.084 249.354 117.243 249.821 117.56C250.297 117.868 250.675 118.288 250.955 118.82C251.235 119.343 251.375 119.931 251.375 120.584C251.375 121.237 251.23 121.83 250.941 122.362C250.661 122.894 250.278 123.319 249.793 123.636C249.317 123.944 248.776 124.098 248.169 124.098C247.74 124.098 247.343 124.019 246.979 123.86C246.615 123.692 246.298 123.454 246.027 123.146V126.926H245.005ZM247.973 123.216C248.43 123.216 248.836 123.104 249.191 122.88C249.555 122.647 249.84 122.334 250.045 121.942C250.26 121.541 250.367 121.093 250.367 120.598C250.367 120.094 250.26 119.646 250.045 119.254C249.84 118.862 249.555 118.554 249.191 118.33C248.836 118.097 248.43 117.98 247.973 117.98C247.572 117.98 247.198 118.064 246.853 118.232C246.517 118.391 246.242 118.619 246.027 118.918V122.264C246.251 122.563 246.531 122.796 246.867 122.964C247.212 123.132 247.581 123.216 247.973 123.216ZM256.247 124.14C255.613 124.14 255.039 123.986 254.525 123.678C254.012 123.361 253.606 122.936 253.307 122.404C253.009 121.863 252.859 121.256 252.859 120.584C252.859 119.912 252.999 119.31 253.279 118.778C253.569 118.246 253.956 117.826 254.441 117.518C254.927 117.21 255.468 117.056 256.065 117.056C256.672 117.056 257.209 117.21 257.675 117.518C258.151 117.817 258.525 118.227 258.795 118.75C259.075 119.263 259.215 119.847 259.215 120.5V120.808H253.853C253.891 121.275 254.017 121.695 254.231 122.068C254.455 122.432 254.745 122.721 255.099 122.936C255.463 123.141 255.86 123.244 256.289 123.244C256.644 123.244 256.985 123.183 257.311 123.062C257.647 122.931 257.932 122.759 258.165 122.544L258.809 123.23C258.417 123.538 258.011 123.767 257.591 123.916C257.171 124.065 256.723 124.14 256.247 124.14ZM253.881 120.08H258.207C258.161 119.669 258.035 119.305 257.829 118.988C257.633 118.661 257.381 118.405 257.073 118.218C256.775 118.031 256.439 117.938 256.065 117.938C255.692 117.938 255.351 118.031 255.043 118.218C254.735 118.395 254.479 118.647 254.273 118.974C254.077 119.291 253.947 119.66 253.881 120.08ZM263.802 124.098C263.214 124.098 262.682 123.944 262.206 123.636C261.73 123.319 261.352 122.899 261.072 122.376C260.792 121.844 260.652 121.251 260.652 120.598C260.652 119.935 260.792 119.343 261.072 118.82C261.361 118.288 261.749 117.868 262.234 117.56C262.719 117.243 263.261 117.084 263.858 117.084C264.278 117.084 264.67 117.168 265.034 117.336C265.398 117.495 265.715 117.728 265.986 118.036V113.892L267.008 113.682V124H265.986V123.09C265.725 123.417 265.407 123.669 265.034 123.846C264.661 124.014 264.25 124.098 263.802 124.098ZM264.054 123.202C264.455 123.202 264.824 123.123 265.16 122.964C265.496 122.805 265.771 122.581 265.986 122.292V118.904C265.762 118.615 265.477 118.391 265.132 118.232C264.796 118.064 264.437 117.98 264.054 117.98C263.597 117.98 263.186 118.092 262.822 118.316C262.467 118.54 262.183 118.848 261.968 119.24C261.763 119.632 261.66 120.08 261.66 120.584C261.66 121.079 261.763 121.527 261.968 121.928C262.183 122.32 262.467 122.633 262.822 122.866C263.186 123.09 263.597 123.202 264.054 123.202Z" fill="#151515"/>
<path d="M190 152.5C190 150.291 191.791 148.5 194 148.5H202C204.209 148.5 206 150.291 206 152.5V160.5C206 162.709 204.209 164.5 202 164.5H194C191.791 164.5 190 162.709 190 160.5V152.5Z" fill="#0066CC"/>
<path fill-rule="evenodd" clip-rule="evenodd" d="M196.924 160.773L203.824 153.873C204.059 153.638 204.059 153.259 203.824 153.024L202.976 152.176C202.741 151.941 202.361 151.941 202.127 152.176L196.5 157.803L193.873 155.176C193.638 154.941 193.259 154.941 193.024 155.176L192.176 156.024C191.941 156.259 191.941 156.638 192.176 156.873L196.076 160.773C196.31 161.007 196.69 161.007 196.924 160.773Z" fill="white"/>
<path d="M216.324 160.034H218.564C219.273 160.034 219.908 159.861 220.468 159.516C221.028 159.171 221.471 158.704 221.798 158.116C222.134 157.519 222.302 156.847 222.302 156.1C222.302 155.353 222.134 154.686 221.798 154.098C221.471 153.501 221.028 153.029 220.468 152.684C219.908 152.339 219.273 152.166 218.564 152.166H216.324V160.034ZM215.246 161V151.2H218.494C219.213 151.2 219.871 151.326 220.468 151.578C221.075 151.821 221.593 152.166 222.022 152.614C222.461 153.053 222.797 153.571 223.03 154.168C223.273 154.756 223.394 155.4 223.394 156.1C223.394 156.8 223.273 157.449 223.03 158.046C222.797 158.634 222.461 159.152 222.022 159.6C221.593 160.039 221.075 160.384 220.468 160.636C219.871 160.879 219.213 161 218.494 161H215.246ZM228.26 161.112C227.625 161.112 227.056 160.958 226.552 160.65C226.048 160.342 225.651 159.922 225.362 159.39C225.072 158.858 224.928 158.256 224.928 157.584C224.928 156.912 225.072 156.31 225.362 155.778C225.651 155.246 226.048 154.826 226.552 154.518C227.056 154.21 227.625 154.056 228.26 154.056C228.885 154.056 229.445 154.21 229.94 154.518C230.444 154.826 230.84 155.246 231.13 155.778C231.419 156.31 231.564 156.912 231.564 157.584C231.564 158.256 231.419 158.858 231.13 159.39C230.84 159.922 230.444 160.342 229.94 160.65C229.445 160.958 228.885 161.112 228.26 161.112ZM228.246 160.216C228.694 160.216 229.09 160.104 229.436 159.88C229.781 159.647 230.052 159.329 230.248 158.928C230.453 158.527 230.556 158.079 230.556 157.584C230.556 157.08 230.453 156.632 230.248 156.24C230.052 155.839 229.781 155.526 229.436 155.302C229.09 155.069 228.694 154.952 228.246 154.952C227.798 154.952 227.401 155.069 227.056 155.302C226.71 155.526 226.435 155.839 226.23 156.24C226.034 156.632 225.936 157.08 225.936 157.584C225.936 158.079 226.034 158.527 226.23 158.928C226.435 159.329 226.71 159.647 227.056 159.88C227.401 160.104 227.798 160.216 228.246 160.216ZM234.438 161L232.562 154.168H233.556L234.984 159.628L236.622 154.168H237.532L239.17 159.628L240.584 154.168H241.55L239.688 161H238.694L237.07 155.484L235.446 161H234.438ZM242.995 161V154.168H244.017V155.274C244.279 154.863 244.591 154.56 244.955 154.364C245.319 154.159 245.73 154.056 246.187 154.056C246.682 154.056 247.111 154.163 247.475 154.378C247.849 154.583 248.138 154.877 248.343 155.26C248.558 155.633 248.665 156.072 248.665 156.576V161H247.643V156.87C247.643 156.263 247.475 155.787 247.139 155.442C246.813 155.087 246.369 154.91 245.809 154.91C245.436 154.91 245.095 154.999 244.787 155.176C244.479 155.353 244.223 155.615 244.017 155.96V161H242.995Z" fill="#1F1F1F"/>
<mask id="path-23-inside-2_135_68166" fill="white">
<path d="M190 189.5C190 187.291 191.791 185.5 194 185.5H202C204.209 185.5 206 187.291 206 189.5V197.5C206 199.709 204.209 201.5 202 201.5H194C191.791 201.5 190 199.709 190 197.5V189.5Z"/>
</mask>
<path d="M190 189.5C190 187.291 191.791 185.5 194 185.5H202C204.209 185.5 206 187.291 206 189.5V197.5C206 199.709 204.209 201.5 202 201.5H194C191.791 201.5 190 199.709 190 197.5V189.5Z" fill="white"/>
<path d="M194 186.5H202V184.5H194V186.5ZM205 189.5V197.5H207V189.5H205ZM202 200.5H194V202.5H202V200.5ZM191 197.5V189.5H189V197.5H191ZM194 200.5C192.343 200.5 191 199.157 191 197.5H189C189 200.261 191.239 202.5 194 202.5V200.5ZM205 197.5C205 199.157 203.657 200.5 202 200.5V202.5C204.761 202.5 207 200.261 207 197.5H205ZM202 186.5C203.657 186.5 205 187.843 205 189.5H207C207 186.739 204.761 184.5 202 184.5V186.5ZM194 184.5C191.239 184.5 189 186.739 189 189.5H191C191 187.843 192.343 186.5 194 186.5V184.5Z" fill="#C7C7C7" mask="url(#path-23-inside-2_135_68166)"/>
<path d="M216.324 197.034H218.564C219.273 197.034 219.908 196.861 220.468 196.516C221.028 196.171 221.471 195.704 221.798 195.116C222.134 194.519 222.302 193.847 222.302 193.1C222.302 192.353 222.134 191.686 221.798 191.098C221.471 190.501 221.028 190.029 220.468 189.684C219.908 189.339 219.273 189.166 218.564 189.166H216.324V197.034ZM215.246 198V188.2H218.494C219.213 188.2 219.871 188.326 220.468 188.578C221.075 188.821 221.593 189.166 222.022 189.614C222.461 190.053 222.797 190.571 223.03 191.168C223.273 191.756 223.394 192.4 223.394 193.1C223.394 193.8 223.273 194.449 223.03 195.046C222.797 195.634 222.461 196.152 222.022 196.6C221.593 197.039 221.075 197.384 220.468 197.636C219.871 197.879 219.213 198 218.494 198H215.246ZM228.316 198.14C227.681 198.14 227.107 197.986 226.594 197.678C226.08 197.361 225.674 196.936 225.376 196.404C225.077 195.863 224.928 195.256 224.928 194.584C224.928 193.912 225.068 193.31 225.348 192.778C225.637 192.246 226.024 191.826 226.51 191.518C226.995 191.21 227.536 191.056 228.134 191.056C228.74 191.056 229.277 191.21 229.744 191.518C230.22 191.817 230.593 192.227 230.864 192.75C231.144 193.263 231.284 193.847 231.284 194.5V194.808H225.922C225.959 195.275 226.085 195.695 226.3 196.068C226.524 196.432 226.813 196.721 227.168 196.936C227.532 197.141 227.928 197.244 228.358 197.244C228.712 197.244 229.053 197.183 229.38 197.062C229.716 196.931 230 196.759 230.234 196.544L230.878 197.23C230.486 197.538 230.08 197.767 229.66 197.916C229.24 198.065 228.792 198.14 228.316 198.14ZM225.95 194.08H230.276C230.229 193.669 230.103 193.305 229.898 192.988C229.702 192.661 229.45 192.405 229.142 192.218C228.843 192.031 228.507 191.938 228.134 191.938C227.76 191.938 227.42 192.031 227.112 192.218C226.804 192.395 226.547 192.647 226.342 192.974C226.146 193.291 226.015 193.66 225.95 194.08ZM236.193 201.066C235.735 201.066 235.273 201.001 234.807 200.87C234.349 200.749 233.925 200.576 233.533 200.352L233.967 199.568C234.387 199.783 234.769 199.941 235.115 200.044C235.46 200.147 235.805 200.198 236.151 200.198C236.776 200.198 237.247 200.049 237.565 199.75C237.891 199.451 238.055 199.017 238.055 198.448V197.076C237.793 197.403 237.476 197.655 237.103 197.832C236.729 198 236.319 198.084 235.871 198.084C235.283 198.084 234.751 197.93 234.275 197.622C233.799 197.305 233.421 196.885 233.141 196.362C232.861 195.83 232.721 195.237 232.721 194.584C232.721 193.931 232.861 193.343 233.141 192.82C233.43 192.288 233.817 191.868 234.303 191.56C234.788 191.243 235.329 191.084 235.927 191.084C236.356 191.084 236.753 191.168 237.117 191.336C237.481 191.495 237.798 191.733 238.069 192.05V191.168H239.077V198.434C239.077 199.283 238.829 199.932 238.335 200.38C237.84 200.837 237.126 201.066 236.193 201.066ZM236.123 197.202C236.524 197.202 236.893 197.123 237.229 196.964C237.565 196.796 237.84 196.567 238.055 196.278V192.904C237.831 192.615 237.546 192.391 237.201 192.232C236.865 192.064 236.505 191.98 236.123 191.98C235.665 191.98 235.255 192.092 234.891 192.316C234.536 192.54 234.251 192.848 234.037 193.24C233.831 193.632 233.729 194.08 233.729 194.584C233.729 195.079 233.831 195.527 234.037 195.928C234.251 196.32 234.536 196.633 234.891 196.866C235.255 197.09 235.665 197.202 236.123 197.202ZM241.177 198V191.168H242.199V192.568C242.376 192.092 242.628 191.723 242.955 191.462C243.291 191.191 243.674 191.056 244.103 191.056C244.224 191.056 244.336 191.065 244.439 191.084C244.542 191.093 244.644 191.117 244.747 191.154V192.078C244.635 192.041 244.514 192.013 244.383 191.994C244.262 191.966 244.145 191.952 244.033 191.952C243.613 191.952 243.244 192.073 242.927 192.316C242.619 192.559 242.376 192.899 242.199 193.338V198H241.177ZM247.926 198.126C247.44 198.126 247.011 198.037 246.638 197.86C246.264 197.683 245.97 197.44 245.756 197.132C245.55 196.815 245.448 196.451 245.448 196.04C245.448 195.629 245.555 195.275 245.77 194.976C245.984 194.668 246.283 194.43 246.666 194.262C247.048 194.094 247.496 194.01 248.01 194.01C248.402 194.01 248.77 194.052 249.116 194.136C249.47 194.22 249.797 194.355 250.096 194.542V193.604C250.096 193.044 249.946 192.624 249.648 192.344C249.349 192.055 248.91 191.91 248.332 191.91C248.014 191.91 247.688 191.957 247.352 192.05C247.025 192.143 246.661 192.293 246.26 192.498L245.882 191.714C246.796 191.275 247.655 191.056 248.458 191.056C249.307 191.056 249.96 191.266 250.418 191.686C250.875 192.097 251.104 192.689 251.104 193.464V198H250.096V197.202C249.797 197.51 249.466 197.743 249.102 197.902C248.738 198.051 248.346 198.126 247.926 198.126ZM246.428 196.012C246.428 196.413 246.582 196.735 246.89 196.978C247.207 197.221 247.622 197.342 248.136 197.342C248.518 197.342 248.868 197.277 249.186 197.146C249.512 197.015 249.816 196.819 250.096 196.558V195.242C249.806 195.074 249.508 194.953 249.2 194.878C248.892 194.794 248.546 194.752 248.164 194.752C247.641 194.752 247.221 194.869 246.904 195.102C246.586 195.326 246.428 195.629 246.428 196.012ZM256.023 198.098C255.435 198.098 254.903 197.944 254.427 197.636C253.951 197.319 253.573 196.899 253.293 196.376C253.013 195.844 252.873 195.251 252.873 194.598C252.873 193.935 253.013 193.343 253.293 192.82C253.582 192.288 253.97 191.868 254.455 191.56C254.94 191.243 255.482 191.084 256.079 191.084C256.499 191.084 256.891 191.168 257.255 191.336C257.619 191.495 257.936 191.728 258.207 192.036V187.892L259.229 187.682V198H258.207V197.09C257.946 197.417 257.628 197.669 257.255 197.846C256.882 198.014 256.471 198.098 256.023 198.098ZM256.275 197.202C256.676 197.202 257.045 197.123 257.381 196.964C257.717 196.805 257.992 196.581 258.207 196.292V192.904C257.983 192.615 257.698 192.391 257.353 192.232C257.017 192.064 256.658 191.98 256.275 191.98C255.818 191.98 255.407 192.092 255.043 192.316C254.688 192.54 254.404 192.848 254.189 193.24C253.984 193.632 253.881 194.08 253.881 194.584C253.881 195.079 253.984 195.527 254.189 195.928C254.404 196.32 254.688 196.633 255.043 196.866C255.407 197.09 255.818 197.202 256.275 197.202ZM264.409 198.14C263.775 198.14 263.201 197.986 262.687 197.678C262.174 197.361 261.768 196.936 261.469 196.404C261.171 195.863 261.021 195.256 261.021 194.584C261.021 193.912 261.161 193.31 261.441 192.778C261.731 192.246 262.118 191.826 262.603 191.518C263.089 191.21 263.63 191.056 264.227 191.056C264.834 191.056 265.371 191.21 265.837 191.518C266.313 191.817 266.687 192.227 266.957 192.75C267.237 193.263 267.377 193.847 267.377 194.5V194.808H262.015C262.053 195.275 262.179 195.695 262.393 196.068C262.617 196.432 262.907 196.721 263.261 196.936C263.625 197.141 264.022 197.244 264.451 197.244C264.806 197.244 265.147 197.183 265.473 197.062C265.809 196.931 266.094 196.759 266.327 196.544L266.971 197.23C266.579 197.538 266.173 197.767 265.753 197.916C265.333 198.065 264.885 198.14 264.409 198.14ZM262.043 194.08H266.369C266.323 193.669 266.197 193.305 265.991 192.988C265.795 192.661 265.543 192.405 265.235 192.218C264.937 192.031 264.601 191.938 264.227 191.938C263.854 191.938 263.513 192.031 263.205 192.218C262.897 192.395 262.641 192.647 262.435 192.974C262.239 193.291 262.109 193.66 262.043 194.08ZM271.964 198.098C271.376 198.098 270.844 197.944 270.368 197.636C269.892 197.319 269.514 196.899 269.234 196.376C268.954 195.844 268.814 195.251 268.814 194.598C268.814 193.935 268.954 193.343 269.234 192.82C269.524 192.288 269.911 191.868 270.396 191.56C270.882 191.243 271.423 191.084 272.02 191.084C272.44 191.084 272.832 191.168 273.196 191.336C273.56 191.495 273.878 191.728 274.148 192.036V187.892L275.17 187.682V198H274.148V197.09C273.887 197.417 273.57 197.669 273.196 197.846C272.823 198.014 272.412 198.098 271.964 198.098ZM272.216 197.202C272.618 197.202 272.986 197.123 273.322 196.964C273.658 196.805 273.934 196.581 274.148 196.292V192.904C273.924 192.615 273.64 192.391 273.294 192.232C272.958 192.064 272.599 191.98 272.216 191.98C271.759 191.98 271.348 192.092 270.984 192.316C270.63 192.54 270.345 192.848 270.13 193.24C269.925 193.632 269.822 194.08 269.822 194.584C269.822 195.079 269.925 195.527 270.13 195.928C270.345 196.32 270.63 196.633 270.984 196.866C271.348 197.09 271.759 197.202 272.216 197.202Z" fill="#151515"/>
<mask id="path-26-inside-3_135_68166" fill="white">
<path d="M190 226.5C190 224.291 191.791 222.5 194 222.5H202C204.209 222.5 206 224.291 206 226.5V234.5C206 236.709 204.209 238.5 202 238.5H194C191.791 238.5 190 236.709 190 234.5V226.5Z"/>
</mask>
<path d="M190 226.5C190 224.291 191.791 222.5 194 222.5H202C204.209 222.5 206 224.291 206 226.5V234.5C206 236.709 204.209 238.5 202 238.5H194C191.791 238.5 190 236.709 190 234.5V226.5Z" fill="white"/>
<path d="M194 223.5H202V221.5H194V223.5ZM205 226.5V234.5H207V226.5H205ZM202 237.5H194V239.5H202V237.5ZM191 234.5V226.5H189V234.5H191ZM194 237.5C192.343 237.5 191 236.157 191 234.5H189C189 237.261 191.239 239.5 194 239.5V237.5ZM205 234.5C205 236.157 203.657 237.5 202 237.5V239.5C204.761 239.5 207 237.261 207 234.5H205ZM202 223.5C203.657 223.5 205 224.843 205 226.5H207C207 223.739 204.761 221.5 202 221.5V223.5ZM194 221.5C191.239 221.5 189 223.739 189 226.5H191C191 224.843 192.343 223.5 194 223.5V221.5Z" fill="#C7C7C7" mask="url(#path-26-inside-3_135_68166)"/>
<path d="M215.246 235V225.2H219.264C219.889 225.2 220.435 225.321 220.902 225.564C221.369 225.797 221.733 226.124 221.994 226.544C222.255 226.964 222.386 227.459 222.386 228.028C222.386 228.681 222.204 229.241 221.84 229.708C221.476 230.165 220.977 230.487 220.342 230.674L222.428 235H221.238L219.25 230.814H216.324V235H215.246ZM216.324 229.918H219.18C219.824 229.918 220.337 229.75 220.72 229.414C221.112 229.069 221.308 228.611 221.308 228.042C221.308 227.463 221.112 227.006 220.72 226.67C220.337 226.325 219.824 226.152 219.18 226.152H216.324V229.918ZM226.414 235.112C225.928 235.112 225.499 235.005 225.126 234.79C224.752 234.575 224.458 234.277 224.244 233.894C224.038 233.511 223.936 233.073 223.936 232.578V228.168H224.972V232.284C224.972 232.891 225.135 233.371 225.462 233.726C225.788 234.081 226.232 234.258 226.792 234.258C227.174 234.258 227.515 234.169 227.814 233.992C228.122 233.815 228.378 233.558 228.584 233.222V228.168H229.606V235H228.584V233.894C228.322 234.295 228.01 234.599 227.646 234.804C227.291 235.009 226.88 235.112 226.414 235.112ZM231.702 235V228.168H232.724V229.274C232.986 228.863 233.298 228.56 233.662 228.364C234.026 228.159 234.437 228.056 234.894 228.056C235.389 228.056 235.818 228.163 236.182 228.378C236.556 228.583 236.845 228.877 237.05 229.26C237.265 229.633 237.372 230.072 237.372 230.576V235H236.35V230.87C236.35 230.263 236.182 229.787 235.846 229.442C235.52 229.087 235.076 228.91 234.516 228.91C234.143 228.91 233.802 228.999 233.494 229.176C233.186 229.353 232.93 229.615 232.724 229.96V235H231.702ZM239.427 235V228.168H240.449V229.274C240.71 228.863 241.023 228.56 241.387 228.364C241.751 228.159 242.162 228.056 242.619 228.056C243.114 228.056 243.543 228.163 243.907 228.378C244.28 228.583 244.57 228.877 244.775 229.26C244.99 229.633 245.097 230.072 245.097 230.576V235H244.075V230.87C244.075 230.263 243.907 229.787 243.571 229.442C243.244 229.087 242.801 228.91 242.241 228.91C241.868 228.91 241.527 228.999 241.219 229.176C240.911 229.353 240.654 229.615 240.449 229.96V235H239.427ZM247.138 235V228.168H248.16V235H247.138ZM247.656 226.474C247.45 226.474 247.273 226.404 247.124 226.264C246.984 226.115 246.914 225.942 246.914 225.746C246.914 225.55 246.984 225.382 247.124 225.242C247.273 225.093 247.45 225.018 247.656 225.018C247.861 225.018 248.034 225.093 248.174 225.242C248.323 225.382 248.398 225.55 248.398 225.746C248.398 225.942 248.323 226.115 248.174 226.264C248.034 226.404 247.861 226.474 247.656 226.474ZM250.255 235V228.168H251.277V229.274C251.538 228.863 251.851 228.56 252.215 228.364C252.579 228.159 252.99 228.056 253.447 228.056C253.942 228.056 254.371 228.163 254.735 228.378C255.108 228.583 255.398 228.877 255.603 229.26C255.818 229.633 255.925 230.072 255.925 230.576V235H254.903V230.87C254.903 230.263 254.735 229.787 254.399 229.442C254.072 229.087 253.629 228.91 253.069 228.91C252.696 228.91 252.355 228.999 252.047 229.176C251.739 229.353 251.482 229.615 251.277 229.96V235H250.255ZM261.144 238.066C260.686 238.066 260.224 238.001 259.758 237.87C259.3 237.749 258.876 237.576 258.484 237.352L258.918 236.568C259.338 236.783 259.72 236.941 260.066 237.044C260.411 237.147 260.756 237.198 261.102 237.198C261.727 237.198 262.198 237.049 262.516 236.75C262.842 236.451 263.006 236.017 263.006 235.448V234.076C262.744 234.403 262.427 234.655 262.054 234.832C261.68 235 261.27 235.084 260.822 235.084C260.234 235.084 259.702 234.93 259.226 234.622C258.75 234.305 258.372 233.885 258.092 233.362C257.812 232.83 257.672 232.237 257.672 231.584C257.672 230.931 257.812 230.343 258.092 229.82C258.381 229.288 258.768 228.868 259.254 228.56C259.739 228.243 260.28 228.084 260.878 228.084C261.307 228.084 261.704 228.168 262.068 228.336C262.432 228.495 262.749 228.733 263.02 229.05V228.168H264.028V235.434C264.028 236.283 263.78 236.932 263.286 237.38C262.791 237.837 262.077 238.066 261.144 238.066ZM261.074 234.202C261.475 234.202 261.844 234.123 262.18 233.964C262.516 233.796 262.791 233.567 263.006 233.278V229.904C262.782 229.615 262.497 229.391 262.152 229.232C261.816 229.064 261.456 228.98 261.074 228.98C260.616 228.98 260.206 229.092 259.842 229.316C259.487 229.54 259.202 229.848 258.988 230.24C258.782 230.632 258.68 231.08 258.68 231.584C258.68 232.079 258.782 232.527 258.988 232.928C259.202 233.32 259.487 233.633 259.842 233.866C260.206 234.09 260.616 234.202 261.074 234.202Z" fill="#1F1F1F"/>
</g>
<path d="M65.5 11C65.5 8.79086 67.2909 7 69.5 7H99.5C101.709 7 103.5 8.79086 103.5 11V35C103.5 37.2091 101.709 39 99.5 39H69.5C67.2909 39 65.5 37.2091 65.5 35V11Z" fill="#C806CC"/>
<path d="M84.3879 29V18.254L82.1199 19.208V17.624L85.0359 16.4H86.1699V29H84.3879Z" fill="white"/>
<path d="M84.5 52.3333C83.0272 52.3333 81.8333 53.5272 81.8333 55C81.8333 56.4728 83.0272 57.6667 84.5 57.6667C85.9728 57.6667 87.1667 56.4728 87.1667 55C87.1667 53.5272 85.9728 52.3333 84.5 52.3333ZM84 39L84 55L85 55L85 39L84 39Z" fill="#C806CC"/>
<path d="M237.5 11C237.5 8.79086 239.291 7 241.5 7H285.5C287.709 7 289.5 8.79086 289.5 11V35C289.5 37.2091 287.709 39 285.5 39H241.5C239.291 39 237.5 37.2091 237.5 35V11Z" fill="#C806CC"/>
<path d="M254.696 29V27.74L259.808 22.304C260.324 21.764 260.672 21.302 260.852 20.918C261.044 20.534 261.14 20.126 261.14 19.694C261.14 19.13 260.912 18.662 260.456 18.29C260 17.918 259.424 17.732 258.728 17.732C258.152 17.732 257.612 17.846 257.108 18.074C256.604 18.302 256.046 18.698 255.434 19.262L254.462 18.074C255.794 16.826 257.228 16.202 258.764 16.202C259.568 16.202 260.276 16.346 260.888 16.634C261.5 16.922 261.974 17.324 262.31 17.84C262.658 18.344 262.832 18.926 262.832 19.586C262.832 20.006 262.778 20.396 262.67 20.756C262.562 21.104 262.376 21.476 262.112 21.872C261.848 22.256 261.476 22.7 260.996 23.204L256.892 27.524L263.084 27.506V29H254.696ZM269.163 29.162C268.287 29.162 267.489 28.952 266.769 28.532C266.061 28.112 265.497 27.542 265.077 26.822C264.657 26.102 264.447 25.298 264.447 24.41C264.447 23.522 264.657 22.724 265.077 22.016C265.497 21.296 266.061 20.726 266.769 20.306C267.489 19.874 268.287 19.658 269.163 19.658C269.859 19.658 270.525 19.79 271.161 20.054C271.809 20.318 272.367 20.69 272.835 21.17L271.719 22.412C271.371 22.028 270.981 21.74 270.549 21.548C270.117 21.356 269.667 21.26 269.199 21.26C268.647 21.26 268.143 21.398 267.687 21.674C267.243 21.95 266.889 22.328 266.625 22.808C266.361 23.288 266.229 23.822 266.229 24.41C266.229 24.998 266.361 25.538 266.625 26.03C266.889 26.51 267.249 26.888 267.705 27.164C268.161 27.44 268.671 27.578 269.235 27.578C270.159 27.578 270.981 27.212 271.701 26.48L272.799 27.632C272.319 28.124 271.761 28.502 271.125 28.766C270.501 29.03 269.847 29.162 269.163 29.162Z" fill="white"/>
<path d="M263.5 52.3333C262.027 52.3333 260.833 53.5272 260.833 55C260.833 56.4728 262.027 57.6667 263.5 57.6667C264.973 57.6667 266.167 56.4728 266.167 55C266.167 53.5272 264.973 52.3333 263.5 52.3333ZM263 39L263 55L264 55L264 39L263 39Z" fill="#C806CC"/>
</g>
<defs>
<filter id="filter0_d_135_68166" x="157" y="88" width="223" height="182" filterUnits="userSpaceOnUse" color-interpolation-filters="sRGB">
<feFlood flood-opacity="0" result="BackgroundImageFix"/>
<feColorMatrix in="SourceAlpha" type="matrix" values="0 0 0 0 0 0 0 0 0 0 0 0 0 0 0 0 0 0 127 0" result="hardAlpha"/>
<feOffset dy="4"/>
<feGaussianBlur stdDeviation="4.5"/>
<feColorMatrix type="matrix" values="0 0 0 0 0.160784 0 0 0 0 0.160784 0 0 0 0 0.160784 0 0 0 0.15 0"/>
<feBlend mode="normal" in2="BackgroundImageFix" result="effect1_dropShadow_135_68166"/>
<feBlend mode="normal" in="SourceGraphic" in2="effect1_dropShadow_135_68166" result="shape"/>
</filter>
<clipPath id="clip0_135_68166">
<rect width="384" height="278" fill="white"/>
</clipPath>
<clipPath id="clip1_135_68166">
<rect width="205" height="37" fill="white" transform="translate(166 55)"/>
</clipPath>
</defs>
</svg>
