<svg width="400" height="125" viewBox="0 0 400 125" fill="none" xmlns="http://www.w3.org/2000/svg">
<rect width="400" height="125" fill="white"/>
<rect width="382" height="69" transform="translate(9 44)" fill="white"/>
<rect width="382" height="69" transform="translate(9 44)" fill="white"/>
<mask id="path-1-inside-1_135_68165" fill="white">
<path d="M25 66C25 62.6863 27.6863 60 31 60H153C156.314 60 159 62.6863 159 66V91C159 94.3137 156.314 97 153 97H31C27.6863 97 25 94.3137 25 91V66Z"/>
</mask>
<path d="M25 66C25 62.6863 27.6863 60 31 60H153C156.314 60 159 62.6863 159 66V91C159 94.3137 156.314 97 153 97H31C27.6863 97 25 94.3137 25 91V66Z" fill="white"/>
<path d="M31 61H153V59H31V61ZM158 66V91H160V66H158ZM153 96H31V98H153V96ZM26 91V66H24V91H26ZM31 96C28.2386 96 26 93.7614 26 91H24C24 94.866 27.134 98 31 98V96ZM158 91C158 93.7614 155.761 96 153 96V98C156.866 98 160 94.866 160 91H158ZM153 61C155.761 61 158 63.2386 158 66H160C160 62.134 156.866 59 153 59V61ZM31 59C27.134 59 24 62.134 24 66H26C26 63.2386 28.2386 61 31 61V59Z" fill="#C7C7C7" mask="url(#path-1-inside-1_135_68165)"/>
<path fill-rule="evenodd" clip-rule="evenodd" d="M54.75 84.8432V77.6781L59.8071 72.6203C60.2193 72.2081 59.9272 71.5 59.343 71.5H46.657C46.0741 71.5 45.78 72.2073 46.193 72.6203L51.25 77.6781V83.3125C51.25 83.5266 51.3545 83.7273 51.5299 83.8501L53.7174 85.3808C54.149 85.6829 54.75 85.3767 54.75 84.8432Z" fill="#1F1F1F"/>
<path d="M77.41 83.154C76.6447 83.154 75.9353 83.0187 75.282 82.748C74.6287 82.468 73.9987 82.048 73.392 81.488L74.05 80.704C74.638 81.2547 75.1887 81.6467 75.702 81.88C76.2247 82.1133 76.8033 82.23 77.438 82.23C77.942 82.23 78.39 82.146 78.782 81.978C79.1833 81.8007 79.496 81.5627 79.72 81.264C79.944 80.9653 80.056 80.6247 80.056 80.242C80.056 79.7473 79.8927 79.374 79.566 79.122C79.2393 78.8607 78.6747 78.66 77.872 78.52L76.29 78.254C75.394 78.0953 74.736 77.8247 74.316 77.442C73.9053 77.05 73.7 76.5273 73.7 75.874C73.7 75.3233 73.84 74.838 74.12 74.418C74.4093 73.9887 74.806 73.6527 75.31 73.41C75.814 73.1673 76.3973 73.046 77.06 73.046C77.788 73.046 78.4647 73.1487 79.09 73.354C79.7153 73.55 80.3313 73.8627 80.938 74.292L80.378 75.132C79.874 74.7493 79.342 74.46 78.782 74.264C78.222 74.0587 77.6527 73.956 77.074 73.956C76.6167 73.956 76.2107 74.0353 75.856 74.194C75.5107 74.3527 75.2353 74.5673 75.03 74.838C74.834 75.1087 74.736 75.4167 74.736 75.762C74.736 76.1913 74.8807 76.5273 75.17 76.77C75.4593 77.0127 75.9307 77.1853 76.584 77.288L78.152 77.554C79.1973 77.7407 79.9533 78.044 80.42 78.464C80.896 78.8747 81.134 79.4487 81.134 80.186C81.134 80.7553 80.9707 81.264 80.644 81.712C80.3267 82.16 79.888 82.5147 79.328 82.776C78.768 83.028 78.1287 83.154 77.41 83.154ZM85.1716 83.14C84.5836 83.14 84.1356 83 83.8276 82.72C83.5289 82.4307 83.3796 82.0153 83.3796 81.474V77.008H81.9656V76.168H83.3796V74.292L84.4016 74.054V76.168H86.3616V77.008H84.4016V81.208C84.4016 81.572 84.4762 81.8333 84.6256 81.992C84.7842 82.1507 85.0409 82.23 85.3956 82.23C85.5729 82.23 85.7316 82.216 85.8716 82.188C86.0116 82.16 86.1749 82.1133 86.3616 82.048V82.958C86.1749 83.0233 85.9789 83.07 85.7736 83.098C85.5682 83.126 85.3676 83.14 85.1716 83.14ZM89.9726 83.126C89.4873 83.126 89.0579 83.0373 88.6846 82.86C88.3113 82.6827 88.0173 82.44 87.8026 82.132C87.5973 81.8147 87.4946 81.4507 87.4946 81.04C87.4946 80.6293 87.6019 80.2747 87.8166 79.976C88.0313 79.668 88.3299 79.43 88.7126 79.262C89.0953 79.094 89.5433 79.01 90.0566 79.01C90.4486 79.01 90.8173 79.052 91.1626 79.136C91.5173 79.22 91.8439 79.3553 92.1426 79.542V78.604C92.1426 78.044 91.9933 77.624 91.6946 77.344C91.3959 77.0547 90.9573 76.91 90.3786 76.91C90.0613 76.91 89.7346 76.9567 89.3986 77.05C89.0719 77.1433 88.7079 77.2927 88.3066 77.498L87.9286 76.714C88.8433 76.2753 89.7019 76.056 90.5046 76.056C91.3539 76.056 92.0073 76.266 92.4646 76.686C92.9219 77.0967 93.1506 77.6893 93.1506 78.464V83H92.1426V82.202C91.8439 82.51 91.5126 82.7433 91.1486 82.902C90.7846 83.0513 90.3926 83.126 89.9726 83.126ZM88.4746 81.012C88.4746 81.4133 88.6286 81.7353 88.9366 81.978C89.2539 82.2207 89.6693 82.342 90.1826 82.342C90.5653 82.342 90.9153 82.2767 91.2326 82.146C91.5593 82.0153 91.8626 81.8193 92.1426 81.558V80.242C91.8533 80.074 91.5546 79.9527 91.2466 79.878C90.9386 79.794 90.5933 79.752 90.2106 79.752C89.6879 79.752 89.2679 79.8687 88.9506 80.102C88.6333 80.326 88.4746 80.6293 88.4746 81.012ZM97.6267 83.14C97.0387 83.14 96.5907 83 96.2827 82.72C95.984 82.4307 95.8347 82.0153 95.8347 81.474V77.008H94.4207V76.168H95.8347V74.292L96.8567 74.054V76.168H98.8167V77.008H96.8567V81.208C96.8567 81.572 96.9313 81.8333 97.0807 81.992C97.2393 82.1507 97.496 82.23 97.8507 82.23C98.028 82.23 98.1867 82.216 98.3267 82.188C98.4667 82.16 98.63 82.1133 98.8167 82.048V82.958C98.63 83.0233 98.434 83.07 98.2287 83.098C98.0233 83.126 97.8227 83.14 97.6267 83.14ZM102.75 83.112C102.264 83.112 101.835 83.0047 101.462 82.79C101.088 82.5753 100.794 82.2767 100.58 81.894C100.374 81.5113 100.272 81.0727 100.272 80.578V76.168H101.308V80.284C101.308 80.8907 101.471 81.3713 101.798 81.726C102.124 82.0807 102.568 82.258 103.128 82.258C103.51 82.258 103.851 82.1693 104.15 81.992C104.458 81.8147 104.714 81.558 104.92 81.222V76.168H105.942V83H104.92V81.894C104.658 82.2953 104.346 82.5987 103.982 82.804C103.627 83.0093 103.216 83.112 102.75 83.112ZM110.152 83.14C109.592 83.14 109.074 83.056 108.598 82.888C108.122 82.7107 107.716 82.4587 107.38 82.132L107.926 81.46C108.337 81.7587 108.715 81.978 109.06 82.118C109.406 82.2487 109.76 82.314 110.124 82.314C110.619 82.314 111.03 82.1973 111.356 81.964C111.683 81.7307 111.846 81.432 111.846 81.068C111.846 80.788 111.748 80.5687 111.552 80.41C111.366 80.2513 111.053 80.13 110.614 80.046L109.494 79.85C108.832 79.7287 108.342 79.5233 108.024 79.234C107.716 78.9447 107.562 78.5527 107.562 78.058C107.562 77.666 107.665 77.3207 107.87 77.022C108.085 76.7233 108.379 76.49 108.752 76.322C109.126 76.1447 109.55 76.056 110.026 76.056C110.493 76.056 110.936 76.126 111.356 76.266C111.776 76.3967 112.201 76.6113 112.63 76.91L112.126 77.624C111.772 77.372 111.417 77.19 111.062 77.078C110.708 76.9567 110.348 76.896 109.984 76.896C109.536 76.896 109.177 76.994 108.906 77.19C108.636 77.386 108.5 77.652 108.5 77.988C108.5 78.268 108.584 78.4827 108.752 78.632C108.93 78.7813 109.238 78.8933 109.676 78.968L110.824 79.178C111.515 79.2993 112.019 79.5093 112.336 79.808C112.654 80.1067 112.812 80.508 112.812 81.012C112.812 81.4133 112.696 81.7773 112.462 82.104C112.229 82.4213 111.912 82.6733 111.51 82.86C111.109 83.0467 110.656 83.14 110.152 83.14Z" fill="#151515"/>
<path fill-rule="evenodd" clip-rule="evenodd" d="M133.389 81.1714L136.921 77.6102C137.267 77.2615 137.023 76.6666 136.534 76.6666H129.466C128.977 76.6666 128.733 77.2615 129.079 77.6102L132.611 81.1714C132.826 81.3872 133.174 81.3872 133.389 81.1714Z" fill="#1F1F1F"/>
<path d="M169 60.5H333C336.038 60.5 338.5 62.9624 338.5 66V91C338.5 94.0376 336.038 96.5 333 96.5H169C165.962 96.5 163.5 94.0376 163.5 91V66C163.5 62.9624 165.962 60.5 169 60.5Z" fill="white"/>
<path d="M169 60.5H333C336.038 60.5 338.5 62.9624 338.5 66V91C338.5 94.0376 336.038 96.5 333 96.5H169C165.962 96.5 163.5 94.0376 163.5 91V66C163.5 62.9624 165.962 60.5 169 60.5Z" stroke="#C7C7C7"/>
<path fill-rule="evenodd" clip-rule="evenodd" d="M188.032 85.8086L188.806 85.0347C189.063 84.7777 189.063 84.3621 188.809 84.1051L186.082 81.3789C185.959 81.2558 185.793 81.1875 185.618 81.1875H185.172C185.927 80.2223 186.375 79.0082 186.375 77.6875C186.375 74.5457 183.829 72 180.687 72C177.546 72 175 74.5457 175 77.6875C175 80.8293 177.546 83.375 180.687 83.375C182.008 83.375 183.222 82.9265 184.187 82.1719V82.6175C184.187 82.7926 184.256 82.9593 184.379 83.0824L187.105 85.8086C187.362 86.0656 187.778 86.0656 188.032 85.8086ZM180.687 81.1875C178.754 81.1875 177.187 79.6234 177.187 77.6875C177.187 75.7543 178.752 74.1875 180.687 74.1875C182.621 74.1875 184.187 75.7516 184.187 77.6875C184.187 79.6207 182.623 81.1875 180.687 81.1875Z" fill="#1F1F1F"/>
<path d="M201.246 83V73.2H207.938V74.152H202.324V77.652H206.16V78.59H202.324V83H201.246ZM209.376 83V76.168H210.398V83H209.376ZM209.894 74.474C209.689 74.474 209.511 74.404 209.362 74.264C209.222 74.1147 209.152 73.942 209.152 73.746C209.152 73.55 209.222 73.382 209.362 73.242C209.511 73.0927 209.689 73.018 209.894 73.018C210.099 73.018 210.272 73.0927 210.412 73.242C210.561 73.382 210.636 73.55 210.636 73.746C210.636 73.942 210.561 74.1147 210.412 74.264C210.272 74.404 210.099 74.474 209.894 74.474ZM212.493 83V72.892L213.515 72.682V83H212.493ZM218.215 83.14C217.627 83.14 217.179 83 216.871 82.72C216.572 82.4307 216.423 82.0153 216.423 81.474V77.008H215.009V76.168H216.423V74.292L217.445 74.054V76.168H219.405V77.008H217.445V81.208C217.445 81.572 217.519 81.8333 217.669 81.992C217.827 82.1507 218.084 82.23 218.439 82.23C218.616 82.23 218.775 82.216 218.915 82.188C219.055 82.16 219.218 82.1133 219.405 82.048V82.958C219.218 83.0233 219.022 83.07 218.817 83.098C218.611 83.126 218.411 83.14 218.215 83.14ZM223.845 83.14C223.21 83.14 222.636 82.986 222.123 82.678C221.61 82.3607 221.204 81.936 220.905 81.404C220.606 80.8627 220.457 80.256 220.457 79.584C220.457 78.912 220.597 78.31 220.877 77.778C221.166 77.246 221.554 76.826 222.039 76.518C222.524 76.21 223.066 76.056 223.663 76.056C224.27 76.056 224.806 76.21 225.273 76.518C225.749 76.8167 226.122 77.2273 226.393 77.75C226.673 78.2633 226.813 78.8467 226.813 79.5V79.808H221.451C221.488 80.2747 221.614 80.6947 221.829 81.068C222.053 81.432 222.342 81.7213 222.697 81.936C223.061 82.1413 223.458 82.244 223.887 82.244C224.242 82.244 224.582 82.1833 224.909 82.062C225.245 81.9313 225.53 81.7587 225.763 81.544L226.407 82.23C226.015 82.538 225.609 82.7667 225.189 82.916C224.769 83.0653 224.321 83.14 223.845 83.14ZM221.479 79.08H225.805C225.758 78.6693 225.632 78.3053 225.427 77.988C225.231 77.6613 224.979 77.4047 224.671 77.218C224.372 77.0313 224.036 76.938 223.663 76.938C223.29 76.938 222.949 77.0313 222.641 77.218C222.333 77.3953 222.076 77.6473 221.871 77.974C221.675 78.2913 221.544 78.66 221.479 79.08ZM228.558 83V76.168H229.58V77.568C229.757 77.092 230.009 76.7233 230.336 76.462C230.672 76.1913 231.054 76.056 231.484 76.056C231.605 76.056 231.717 76.0653 231.82 76.084C231.922 76.0933 232.025 76.1167 232.128 76.154V77.078C232.016 77.0407 231.894 77.0127 231.764 76.994C231.642 76.966 231.526 76.952 231.414 76.952C230.994 76.952 230.625 77.0733 230.308 77.316C230 77.5587 229.757 77.8993 229.58 78.338V83H228.558ZM236.747 83V72.99L237.769 72.78V77.106C238.031 76.7793 238.348 76.5273 238.721 76.35C239.095 76.1727 239.51 76.084 239.967 76.084C240.565 76.084 241.097 76.2427 241.563 76.56C242.039 76.868 242.417 77.288 242.697 77.82C242.977 78.3427 243.117 78.9307 243.117 79.584C243.117 80.2373 242.973 80.83 242.683 81.362C242.403 81.894 242.021 82.3187 241.535 82.636C241.059 82.944 240.518 83.098 239.911 83.098C239.482 83.098 239.081 83.014 238.707 82.846C238.343 82.6687 238.026 82.4213 237.755 82.104V83H236.747ZM239.715 82.216C240.173 82.216 240.579 82.104 240.933 81.88C241.297 81.6467 241.582 81.334 241.787 80.942C242.002 80.5407 242.109 80.0927 242.109 79.598C242.109 79.094 242.002 78.646 241.787 78.254C241.582 77.862 241.297 77.554 240.933 77.33C240.579 77.0967 240.173 76.98 239.715 76.98C239.314 76.98 238.941 77.064 238.595 77.232C238.259 77.3907 237.984 77.6193 237.769 77.918V81.264C237.993 81.5627 238.273 81.796 238.609 81.964C238.955 82.132 239.323 82.216 239.715 82.216ZM244.998 86.066C244.784 86.066 244.564 86.0333 244.34 85.968V85.058C244.434 85.0767 244.532 85.0907 244.634 85.1C244.737 85.1093 244.826 85.114 244.9 85.114C245.162 85.114 245.376 85.044 245.544 84.904C245.722 84.764 245.871 84.5447 245.992 84.246L246.496 83L243.864 76.168H244.998L247.07 81.782L249.268 76.168H250.402L246.958 84.554C246.809 84.918 246.646 85.212 246.468 85.436C246.291 85.66 246.086 85.8187 245.852 85.912C245.619 86.0147 245.334 86.066 244.998 86.066ZM257.059 83.14C256.499 83.14 255.981 83.056 255.505 82.888C255.029 82.7107 254.623 82.4587 254.287 82.132L254.833 81.46C255.243 81.7587 255.621 81.978 255.967 82.118C256.312 82.2487 256.667 82.314 257.031 82.314C257.525 82.314 257.936 82.1973 258.263 81.964C258.589 81.7307 258.753 81.432 258.753 81.068C258.753 80.788 258.655 80.5687 258.459 80.41C258.272 80.2513 257.959 80.13 257.521 80.046L256.401 79.85C255.738 79.7287 255.248 79.5233 254.931 79.234C254.623 78.9447 254.469 78.5527 254.469 78.058C254.469 77.666 254.571 77.3207 254.777 77.022C254.991 76.7233 255.285 76.49 255.659 76.322C256.032 76.1447 256.457 76.056 256.933 76.056C257.399 76.056 257.843 76.126 258.263 76.266C258.683 76.3967 259.107 76.6113 259.537 76.91L259.033 77.624C258.678 77.372 258.323 77.19 257.969 77.078C257.614 76.9567 257.255 76.896 256.891 76.896C256.443 76.896 256.083 76.994 255.813 77.19C255.542 77.386 255.407 77.652 255.407 77.988C255.407 78.268 255.491 78.4827 255.659 78.632C255.836 78.7813 256.144 78.8933 256.583 78.968L257.731 79.178C258.421 79.2993 258.925 79.5093 259.243 79.808C259.56 80.1067 259.719 80.508 259.719 81.012C259.719 81.4133 259.602 81.7773 259.369 82.104C259.135 82.4213 258.818 82.6733 258.417 82.86C258.015 83.0467 257.563 83.14 257.059 83.14ZM264.423 83.14C263.788 83.14 263.214 82.986 262.701 82.678C262.188 82.3607 261.782 81.936 261.483 81.404C261.184 80.8627 261.035 80.256 261.035 79.584C261.035 78.912 261.175 78.31 261.455 77.778C261.744 77.246 262.132 76.826 262.617 76.518C263.102 76.21 263.644 76.056 264.241 76.056C264.848 76.056 265.384 76.21 265.851 76.518C266.327 76.8167 266.7 77.2273 266.971 77.75C267.251 78.2633 267.391 78.8467 267.391 79.5V79.808H262.029C262.066 80.2747 262.192 80.6947 262.407 81.068C262.631 81.432 262.92 81.7213 263.275 81.936C263.639 82.1413 264.036 82.244 264.465 82.244C264.82 82.244 265.16 82.1833 265.487 82.062C265.823 81.9313 266.108 81.7587 266.341 81.544L266.985 82.23C266.593 82.538 266.187 82.7667 265.767 82.916C265.347 83.0653 264.899 83.14 264.423 83.14ZM262.057 79.08H266.383C266.336 78.6693 266.21 78.3053 266.005 77.988C265.809 77.6613 265.557 77.4047 265.249 77.218C264.95 77.0313 264.614 76.938 264.241 76.938C263.868 76.938 263.527 77.0313 263.219 77.218C262.911 77.3953 262.654 77.6473 262.449 77.974C262.253 78.2913 262.122 78.66 262.057 79.08ZM269.136 83V76.168H270.158V77.568C270.335 77.092 270.587 76.7233 270.914 76.462C271.25 76.1913 271.633 76.056 272.062 76.056C272.183 76.056 272.295 76.0653 272.398 76.084C272.501 76.0933 272.603 76.1167 272.706 76.154V77.078C272.594 77.0407 272.473 77.0127 272.342 76.994C272.221 76.966 272.104 76.952 271.992 76.952C271.572 76.952 271.203 77.0733 270.886 77.316C270.578 77.5587 270.335 77.8993 270.158 78.338V83H269.136ZM276.223 83L273.423 76.168H274.529L276.741 81.726L278.925 76.168H280.017L277.203 83H276.223ZM284.151 83.14C283.517 83.14 282.943 82.986 282.429 82.678C281.916 82.3607 281.51 81.936 281.211 81.404C280.913 80.8627 280.763 80.256 280.763 79.584C280.763 78.912 280.903 78.31 281.183 77.778C281.473 77.246 281.86 76.826 282.345 76.518C282.831 76.21 283.372 76.056 283.969 76.056C284.576 76.056 285.113 76.21 285.579 76.518C286.055 76.8167 286.429 77.2273 286.699 77.75C286.979 78.2633 287.119 78.8467 287.119 79.5V79.808H281.757C281.795 80.2747 281.921 80.6947 282.135 81.068C282.359 81.432 282.649 81.7213 283.003 81.936C283.367 82.1413 283.764 82.244 284.193 82.244C284.548 82.244 284.889 82.1833 285.215 82.062C285.551 81.9313 285.836 81.7587 286.069 81.544L286.713 82.23C286.321 82.538 285.915 82.7667 285.495 82.916C285.075 83.0653 284.627 83.14 284.151 83.14ZM281.785 79.08H286.111C286.065 78.6693 285.939 78.3053 285.733 77.988C285.537 77.6613 285.285 77.4047 284.977 77.218C284.679 77.0313 284.343 76.938 283.969 76.938C283.596 76.938 283.255 77.0313 282.947 77.218C282.639 77.3953 282.383 77.6473 282.177 77.974C281.981 78.2913 281.851 78.66 281.785 79.08ZM288.864 83V76.168H289.886V77.568C290.064 77.092 290.316 76.7233 290.642 76.462C290.978 76.1913 291.361 76.056 291.79 76.056C291.912 76.056 292.024 76.0653 292.126 76.084C292.229 76.0933 292.332 76.1167 292.434 76.154V77.078C292.322 77.0407 292.201 77.0127 292.07 76.994C291.949 76.966 291.832 76.952 291.72 76.952C291.3 76.952 290.932 77.0733 290.614 77.316C290.306 77.5587 290.064 77.8993 289.886 78.338V83H288.864ZM297.054 83V76.168H298.076V77.274C298.337 76.8633 298.65 76.56 299.014 76.364C299.378 76.1587 299.789 76.056 300.246 76.056C300.741 76.056 301.17 76.1633 301.534 76.378C301.907 76.5833 302.197 76.8773 302.402 77.26C302.617 77.6333 302.724 78.072 302.724 78.576V83H301.702V78.87C301.702 78.2633 301.534 77.7873 301.198 77.442C300.871 77.0873 300.428 76.91 299.868 76.91C299.495 76.91 299.154 76.9987 298.846 77.176C298.538 77.3533 298.281 77.6147 298.076 77.96V83H297.054ZM306.893 83.126C306.407 83.126 305.978 83.0373 305.605 82.86C305.231 82.6827 304.937 82.44 304.723 82.132C304.517 81.8147 304.415 81.4507 304.415 81.04C304.415 80.6293 304.522 80.2747 304.737 79.976C304.951 79.668 305.25 79.43 305.633 79.262C306.015 79.094 306.463 79.01 306.977 79.01C307.369 79.01 307.737 79.052 308.083 79.136C308.437 79.22 308.764 79.3553 309.063 79.542V78.604C309.063 78.044 308.913 77.624 308.615 77.344C308.316 77.0547 307.877 76.91 307.299 76.91C306.981 76.91 306.655 76.9567 306.319 77.05C305.992 77.1433 305.628 77.2927 305.227 77.498L304.849 76.714C305.763 76.2753 306.622 76.056 307.425 76.056C308.274 76.056 308.927 76.266 309.385 76.686C309.842 77.0967 310.071 77.6893 310.071 78.464V83H309.063V82.202C308.764 82.51 308.433 82.7433 308.069 82.902C307.705 83.0513 307.313 83.126 306.893 83.126ZM305.395 81.012C305.395 81.4133 305.549 81.7353 305.857 81.978C306.174 82.2207 306.589 82.342 307.103 82.342C307.485 82.342 307.835 82.2767 308.153 82.146C308.479 82.0153 308.783 81.8193 309.063 81.558V80.242C308.773 80.074 308.475 79.9527 308.167 79.878C307.859 79.794 307.513 79.752 307.131 79.752C306.608 79.752 306.188 79.8687 305.871 80.102C305.553 80.326 305.395 80.6293 305.395 81.012ZM312.148 83V76.168H313.17V77.232C313.431 76.84 313.73 76.546 314.066 76.35C314.402 76.154 314.78 76.056 315.2 76.056C315.685 76.056 316.11 76.1773 316.474 76.42C316.838 76.6533 317.113 76.9753 317.3 77.386C317.57 76.9473 317.892 76.616 318.266 76.392C318.648 76.168 319.087 76.056 319.582 76.056C320.039 76.056 320.44 76.1633 320.786 76.378C321.14 76.5927 321.416 76.8913 321.612 77.274C321.808 77.6473 321.906 78.086 321.906 78.59V83H320.884V78.842C320.884 78.2447 320.734 77.7733 320.436 77.428C320.137 77.0827 319.726 76.91 319.204 76.91C318.849 76.91 318.527 76.9987 318.238 77.176C317.958 77.3533 317.71 77.624 317.496 77.988C317.514 78.0813 317.528 78.1793 317.538 78.282C317.547 78.3847 317.552 78.4873 317.552 78.59V83H316.53V78.842C316.53 78.2447 316.376 77.7733 316.068 77.428C315.769 77.0827 315.358 76.91 314.836 76.91C314.136 76.91 313.58 77.246 313.17 77.918V83H312.148ZM327.054 83.14C326.419 83.14 325.845 82.986 325.332 82.678C324.818 82.3607 324.412 81.936 324.114 81.404C323.815 80.8627 323.666 80.256 323.666 79.584C323.666 78.912 323.806 78.31 324.086 77.778C324.375 77.246 324.762 76.826 325.248 76.518C325.733 76.21 326.274 76.056 326.872 76.056C327.478 76.056 328.015 76.21 328.482 76.518C328.958 76.8167 329.331 77.2273 329.602 77.75C329.882 78.2633 330.022 78.8467 330.022 79.5V79.808H324.66C324.697 80.2747 324.823 80.6947 325.038 81.068C325.262 81.432 325.551 81.7213 325.906 81.936C326.27 82.1413 326.666 82.244 327.096 82.244C327.45 82.244 327.791 82.1833 328.118 82.062C328.454 81.9313 328.738 81.7587 328.972 81.544L329.616 82.23C329.224 82.538 328.818 82.7667 328.398 82.916C327.978 83.0653 327.53 83.14 327.054 83.14ZM324.688 79.08H329.014C328.967 78.6693 328.841 78.3053 328.636 77.988C328.44 77.6613 328.188 77.4047 327.88 77.218C327.581 77.0313 327.245 76.938 326.872 76.938C326.498 76.938 326.158 77.0313 325.85 77.218C325.542 77.3953 325.285 77.6473 325.08 77.974C324.884 78.2913 324.753 78.66 324.688 79.08Z" fill="#4D4D4D"/>
<path d="M74.5 16C74.5 13.7909 76.2909 12 78.5 12H108.5C110.709 12 112.5 13.7909 112.5 16V40C112.5 42.2091 110.709 44 108.5 44H78.5C76.2909 44 74.5 42.2091 74.5 40V16Z" fill="#C806CC"/>
<path d="M93.3879 34V23.254L91.1199 24.208V22.624L94.0359 21.4H95.1699V34H93.3879Z" fill="white"/>
<path d="M93.5 57.3333C92.0272 57.3333 90.8333 58.5272 90.8333 60C90.8333 61.4728 92.0272 62.6667 93.5 62.6667C94.9728 62.6667 96.1667 61.4728 96.1667 60C96.1667 58.5272 94.9728 57.3333 93.5 57.3333ZM93 44L93 60L94 60L94 44L93 44Z" fill="#C806CC"/>
<path d="M251 16C251 13.7909 252.791 12 255 12H299C301.209 12 303 13.7909 303 16V40C303 42.2091 301.209 44 299 44H255C252.791 44 251 42.2091 251 40V16Z" fill="#C806CC"/>
<path d="M268.1 34V32.74L273.212 27.304C273.728 26.764 274.076 26.302 274.256 25.918C274.448 25.534 274.544 25.126 274.544 24.694C274.544 24.13 274.316 23.662 273.86 23.29C273.404 22.918 272.828 22.732 272.132 22.732C271.556 22.732 271.016 22.846 270.512 23.074C270.008 23.302 269.45 23.698 268.838 24.262L267.866 23.074C269.198 21.826 270.632 21.202 272.168 21.202C272.972 21.202 273.68 21.346 274.292 21.634C274.904 21.922 275.378 22.324 275.714 22.84C276.062 23.344 276.236 23.926 276.236 24.586C276.236 25.006 276.182 25.396 276.074 25.756C275.966 26.104 275.78 26.476 275.516 26.872C275.252 27.256 274.88 27.7 274.4 28.204L270.296 32.524L276.488 32.506V34H268.1ZM281.162 34.162C280.502 34.162 279.92 34.048 279.416 33.82C278.912 33.58 278.516 33.25 278.228 32.83C277.94 32.41 277.796 31.924 277.796 31.372C277.796 30.508 278.126 29.83 278.786 29.338C279.446 28.834 280.352 28.582 281.504 28.582C282.404 28.582 283.238 28.756 284.006 29.104V28.132C284.006 26.824 283.262 26.17 281.774 26.17C281.354 26.17 280.916 26.236 280.46 26.368C280.004 26.488 279.494 26.68 278.93 26.944L278.264 25.594C278.96 25.27 279.608 25.036 280.208 24.892C280.808 24.736 281.414 24.658 282.026 24.658C283.214 24.658 284.132 24.94 284.78 25.504C285.44 26.068 285.77 26.872 285.77 27.916V34H284.006V33.208C283.598 33.532 283.16 33.772 282.692 33.928C282.224 34.084 281.714 34.162 281.162 34.162ZM279.524 31.336C279.524 31.78 279.71 32.14 280.082 32.416C280.466 32.692 280.964 32.83 281.576 32.83C282.56 32.83 283.37 32.536 284.006 31.948V30.4C283.346 30.016 282.56 29.824 281.648 29.824C280.988 29.824 280.466 29.962 280.082 30.238C279.71 30.502 279.524 30.868 279.524 31.336Z" fill="white"/>
<path d="M277 57.3333C275.527 57.3333 274.333 58.5272 274.333 60C274.333 61.4728 275.527 62.6667 277 62.6667C278.473 62.6667 279.667 61.4728 279.667 60C279.667 58.5272 278.473 57.3333 277 57.3333ZM276.5 44L276.5 60L277.5 60L277.5 44L276.5 44Z" fill="#C806CC"/>
</svg>
