<svg width="532" height="256" viewBox="0 0 532 256" fill="none" xmlns="http://www.w3.org/2000/svg">
<rect width="532" height="256" fill="white"/>
<g clip-path="url(#clip0_126_68093)">
<rect width="522" height="106" transform="translate(10 11)" fill="white"/>
<mask id="path-1-inside-1_126_68093" fill="white">
<path d="M26 33C26 29.6863 28.6863 27 32 27H260C263.314 27 266 29.6863 266 33V58C266 61.3137 263.314 64 260 64H32C28.6863 64 26 61.3137 26 58V33Z"/>
</mask>
<path d="M26 33C26 29.6863 28.6863 27 32 27H260C263.314 27 266 29.6863 266 33V58C266 61.3137 263.314 64 260 64H32C28.6863 64 26 61.3137 26 58V33Z" fill="white"/>
<path d="M32 28H260V26H32V28ZM265 33V58H267V33H265ZM260 63H32V65H260V63ZM27 58V33H25V58H27ZM32 63C29.2386 63 27 60.7614 27 58H25C25 61.866 28.134 65 32 65V63ZM265 58C265 60.7614 262.761 63 260 63V65C263.866 65 267 61.866 267 58H265ZM260 28C262.761 28 265 30.2386 265 33H267C267 29.134 263.866 26 260 26V28ZM32 26C28.134 26 25 29.134 25 33H27C27 30.2386 29.2386 28 32 28V26Z" fill="#C7C7C7" mask="url(#path-1-inside-1_126_68093)"/>
<path fill-rule="evenodd" clip-rule="evenodd" d="M55.75 51.8432V44.6781L60.8071 39.6203C61.2193 39.2081 60.9272 38.5 60.3431 38.5H47.657C47.0741 38.5 46.78 39.2073 47.193 39.6203L52.25 44.6781V50.3125C52.25 50.5266 52.3545 50.7273 52.5299 50.8501L54.7174 52.3808C55.149 52.6829 55.75 52.3767 55.75 51.8432Z" fill="#1F1F1F"/>
<path d="M75.246 50V40.2H79.264C79.8893 40.2 80.4353 40.3213 80.902 40.564C81.3687 40.7973 81.7327 41.124 81.994 41.544C82.2553 41.964 82.386 42.4587 82.386 43.028C82.386 43.6813 82.204 44.2413 81.84 44.708C81.476 45.1653 80.9767 45.4873 80.342 45.674L82.428 50H81.238L79.25 45.814H76.324V50H75.246ZM76.324 44.918H79.18C79.824 44.918 80.3373 44.75 80.72 44.414C81.112 44.0687 81.308 43.6113 81.308 43.042C81.308 42.4633 81.112 42.006 80.72 41.67C80.3373 41.3247 79.824 41.152 79.18 41.152H76.324V44.918ZM86.839 50.14C86.2043 50.14 85.6303 49.986 85.117 49.678C84.6037 49.3607 84.1977 48.936 83.899 48.404C83.6003 47.8627 83.451 47.256 83.451 46.584C83.451 45.912 83.591 45.31 83.871 44.778C84.1603 44.246 84.5477 43.826 85.033 43.518C85.5183 43.21 86.0597 43.056 86.657 43.056C87.2637 43.056 87.8003 43.21 88.267 43.518C88.743 43.8167 89.1163 44.2273 89.387 44.75C89.667 45.2633 89.807 45.8467 89.807 46.5V46.808H84.445C84.4823 47.2747 84.6083 47.6947 84.823 48.068C85.047 48.432 85.3363 48.7213 85.691 48.936C86.055 49.1413 86.4517 49.244 86.881 49.244C87.2357 49.244 87.5763 49.1833 87.903 49.062C88.239 48.9313 88.5237 48.7587 88.757 48.544L89.401 49.23C89.009 49.538 88.603 49.7667 88.183 49.916C87.763 50.0653 87.315 50.14 86.839 50.14ZM84.473 46.08H88.799C88.7523 45.6693 88.6263 45.3053 88.421 44.988C88.225 44.6613 87.973 44.4047 87.665 44.218C87.3663 44.0313 87.0303 43.938 86.657 43.938C86.2837 43.938 85.943 44.0313 85.635 44.218C85.327 44.3953 85.0703 44.6473 84.865 44.974C84.669 45.2913 84.5383 45.66 84.473 46.08ZM93.7343 50.14C93.1743 50.14 92.6563 50.056 92.1803 49.888C91.7043 49.7107 91.2983 49.4587 90.9623 49.132L91.5083 48.46C91.919 48.7587 92.297 48.978 92.6423 49.118C92.9876 49.2487 93.3423 49.314 93.7063 49.314C94.201 49.314 94.6116 49.1973 94.9383 48.964C95.265 48.7307 95.4283 48.432 95.4283 48.068C95.4283 47.788 95.3303 47.5687 95.1343 47.41C94.9476 47.2513 94.635 47.13 94.1963 47.046L93.0763 46.85C92.4136 46.7287 91.9236 46.5233 91.6063 46.234C91.2983 45.9447 91.1443 45.5527 91.1443 45.058C91.1443 44.666 91.247 44.3207 91.4523 44.022C91.667 43.7233 91.961 43.49 92.3343 43.322C92.7076 43.1447 93.1323 43.056 93.6083 43.056C94.075 43.056 94.5183 43.126 94.9383 43.266C95.3583 43.3967 95.783 43.6113 96.2123 43.91L95.7083 44.624C95.3536 44.372 94.999 44.19 94.6443 44.078C94.2896 43.9567 93.9303 43.896 93.5663 43.896C93.1183 43.896 92.759 43.994 92.4883 44.19C92.2176 44.386 92.0823 44.652 92.0823 44.988C92.0823 45.268 92.1663 45.4827 92.3343 45.632C92.5116 45.7813 92.8196 45.8933 93.2583 45.968L94.4063 46.178C95.097 46.2993 95.601 46.5093 95.9183 46.808C96.2356 47.1067 96.3943 47.508 96.3943 48.012C96.3943 48.4133 96.2776 48.7773 96.0443 49.104C95.811 49.4213 95.4936 49.6733 95.0923 49.86C94.691 50.0467 94.2383 50.14 93.7343 50.14ZM101.043 50.112C100.408 50.112 99.8388 49.958 99.3348 49.65C98.8308 49.342 98.4341 48.922 98.1448 48.39C97.8554 47.858 97.7108 47.256 97.7108 46.584C97.7108 45.912 97.8554 45.31 98.1448 44.778C98.4341 44.246 98.8308 43.826 99.3348 43.518C99.8388 43.21 100.408 43.056 101.043 43.056C101.668 43.056 102.228 43.21 102.723 43.518C103.227 43.826 103.623 44.246 103.913 44.778C104.202 45.31 104.347 45.912 104.347 46.584C104.347 47.256 104.202 47.858 103.913 48.39C103.623 48.922 103.227 49.342 102.723 49.65C102.228 49.958 101.668 50.112 101.043 50.112ZM101.029 49.216C101.477 49.216 101.873 49.104 102.219 48.88C102.564 48.6467 102.835 48.3293 103.031 47.928C103.236 47.5267 103.339 47.0787 103.339 46.584C103.339 46.08 103.236 45.632 103.031 45.24C102.835 44.8387 102.564 44.526 102.219 44.302C101.873 44.0687 101.477 43.952 101.029 43.952C100.581 43.952 100.184 44.0687 99.8388 44.302C99.4934 44.526 99.2181 44.8387 99.0128 45.24C98.8168 45.632 98.7188 46.08 98.7188 46.584C98.7188 47.0787 98.8168 47.5267 99.0128 47.928C99.2181 48.3293 99.4934 48.6467 99.8388 48.88C100.184 49.104 100.581 49.216 101.029 49.216ZM108.576 50.112C108.091 50.112 107.661 50.0047 107.288 49.79C106.915 49.5753 106.621 49.2767 106.406 48.894C106.201 48.5113 106.098 48.0727 106.098 47.578V43.168H107.134V47.284C107.134 47.8907 107.297 48.3713 107.624 48.726C107.951 49.0807 108.394 49.258 108.954 49.258C109.337 49.258 109.677 49.1693 109.976 48.992C110.284 48.8147 110.541 48.558 110.746 48.222V43.168H111.768V50H110.746V48.894C110.485 49.2953 110.172 49.5987 109.808 49.804C109.453 50.0093 109.043 50.112 108.576 50.112ZM113.864 50V43.168H114.886V44.568C115.064 44.092 115.316 43.7233 115.642 43.462C115.978 43.1913 116.361 43.056 116.79 43.056C116.912 43.056 117.024 43.0653 117.126 43.084C117.229 43.0933 117.332 43.1167 117.434 43.154V44.078C117.322 44.0407 117.201 44.0127 117.07 43.994C116.949 43.966 116.832 43.952 116.72 43.952C116.3 43.952 115.932 44.0733 115.614 44.316C115.306 44.5587 115.064 44.8993 114.886 45.338V50H113.864ZM121.428 50.112C120.794 50.112 120.22 49.958 119.707 49.65C119.203 49.3327 118.801 48.908 118.503 48.376C118.204 47.8347 118.055 47.2373 118.055 46.584C118.055 45.9213 118.204 45.324 118.503 44.792C118.801 44.26 119.203 43.84 119.707 43.532C120.22 43.2147 120.794 43.056 121.428 43.056C121.933 43.056 122.413 43.1493 122.871 43.336C123.328 43.5227 123.725 43.784 124.061 44.12L123.403 44.834C123.16 44.5633 122.866 44.3533 122.521 44.204C122.175 44.0547 121.825 43.98 121.471 43.98C121.023 43.98 120.617 44.0967 120.253 44.33C119.898 44.5633 119.613 44.876 119.399 45.268C119.184 45.66 119.077 46.0987 119.077 46.584C119.077 47.0693 119.184 47.508 119.399 47.9C119.613 48.292 119.898 48.6047 120.253 48.838C120.617 49.0713 121.023 49.188 121.471 49.188C121.825 49.188 122.175 49.1133 122.521 48.964C122.866 48.8053 123.16 48.5953 123.403 48.334L124.061 49.048C123.725 49.384 123.328 49.6453 122.871 49.832C122.413 50.0187 121.933 50.112 121.428 50.112ZM128.36 50.14C127.726 50.14 127.152 49.986 126.638 49.678C126.125 49.3607 125.719 48.936 125.42 48.404C125.122 47.8627 124.972 47.256 124.972 46.584C124.972 45.912 125.112 45.31 125.392 44.778C125.682 44.246 126.069 43.826 126.554 43.518C127.04 43.21 127.581 43.056 128.178 43.056C128.785 43.056 129.322 43.21 129.788 43.518C130.264 43.8167 130.638 44.2273 130.908 44.75C131.188 45.2633 131.328 45.8467 131.328 46.5V46.808H125.966C126.004 47.2747 126.13 47.6947 126.344 48.068C126.568 48.432 126.858 48.7213 127.212 48.936C127.576 49.1413 127.973 49.244 128.402 49.244C128.757 49.244 129.098 49.1833 129.424 49.062C129.76 48.9313 130.045 48.7587 130.278 48.544L130.922 49.23C130.53 49.538 130.124 49.7667 129.704 49.916C129.284 50.0653 128.836 50.14 128.36 50.14ZM125.994 46.08H130.32C130.274 45.6693 130.148 45.3053 129.942 44.988C129.746 44.6613 129.494 44.4047 129.186 44.218C128.888 44.0313 128.552 43.938 128.178 43.938C127.805 43.938 127.464 44.0313 127.156 44.218C126.848 44.3953 126.592 44.6473 126.386 44.974C126.19 45.2913 126.06 45.66 125.994 46.08ZM135.256 50.14C134.696 50.14 134.178 50.056 133.702 49.888C133.226 49.7107 132.82 49.4587 132.484 49.132L133.03 48.46C133.44 48.7587 133.818 48.978 134.164 49.118C134.509 49.2487 134.864 49.314 135.228 49.314C135.722 49.314 136.133 49.1973 136.46 48.964C136.786 48.7307 136.95 48.432 136.95 48.068C136.95 47.788 136.852 47.5687 136.656 47.41C136.469 47.2513 136.156 47.13 135.718 47.046L134.598 46.85C133.935 46.7287 133.445 46.5233 133.128 46.234C132.82 45.9447 132.666 45.5527 132.666 45.058C132.666 44.666 132.768 44.3207 132.974 44.022C133.188 43.7233 133.482 43.49 133.856 43.322C134.229 43.1447 134.654 43.056 135.13 43.056C135.596 43.056 136.04 43.126 136.46 43.266C136.88 43.3967 137.304 43.6113 137.734 43.91L137.23 44.624C136.875 44.372 136.52 44.19 136.166 44.078C135.811 43.9567 135.452 43.896 135.088 43.896C134.64 43.896 134.28 43.994 134.01 44.19C133.739 44.386 133.604 44.652 133.604 44.988C133.604 45.268 133.688 45.4827 133.856 45.632C134.033 45.7813 134.341 45.8933 134.78 45.968L135.928 46.178C136.618 46.2993 137.122 46.5093 137.44 46.808C137.757 47.1067 137.916 47.508 137.916 48.012C137.916 48.4133 137.799 48.7773 137.566 49.104C137.332 49.4213 137.015 49.6733 136.614 49.86C136.212 50.0467 135.76 50.14 135.256 50.14Z" fill="#151515"/>
<path d="M147 45.5C147 40.5294 151.029 36.5 156 36.5H212C216.971 36.5 221 40.5294 221 45.5C221 50.4706 216.971 54.5 212 54.5H156C151.029 54.5 147 50.4706 147 45.5Z" fill="#0066CC"/>
<path d="M155.79 49.5V48.552L159.234 44.952C159.442 44.736 159.602 44.54 159.714 44.364C159.834 44.188 159.918 44.02 159.966 43.86C160.022 43.692 160.05 43.52 160.05 43.344C160.05 42.992 159.906 42.7 159.618 42.468C159.33 42.236 158.966 42.12 158.526 42.12C158.142 42.12 157.782 42.196 157.446 42.348C157.11 42.5 156.742 42.764 156.342 43.14L155.598 42.24C156.062 41.816 156.538 41.5 157.026 41.292C157.514 41.076 158.022 40.968 158.55 40.968C159.102 40.968 159.586 41.068 160.002 41.268C160.418 41.46 160.742 41.728 160.974 42.072C161.206 42.416 161.322 42.816 161.322 43.272C161.322 43.544 161.286 43.8 161.214 44.04C161.142 44.28 161.018 44.524 160.842 44.772C160.674 45.02 160.438 45.304 160.134 45.624L157.458 48.384L161.478 48.372V49.5H155.79ZM167.597 49.62C167.085 49.62 166.605 49.552 166.157 49.416C165.717 49.272 165.337 49.068 165.017 48.804L165.653 47.904C166.053 48.152 166.397 48.328 166.685 48.432C166.981 48.536 167.281 48.588 167.585 48.588C167.945 48.588 168.237 48.512 168.461 48.36C168.685 48.208 168.797 48.012 168.797 47.772C168.797 47.588 168.729 47.444 168.593 47.34C168.465 47.228 168.253 47.144 167.957 47.088L166.901 46.908C166.317 46.796 165.881 46.604 165.593 46.332C165.305 46.06 165.161 45.7 165.161 45.252C165.161 44.876 165.257 44.552 165.449 44.28C165.649 44 165.921 43.784 166.265 43.632C166.617 43.472 167.025 43.392 167.489 43.392C167.905 43.392 168.309 43.452 168.701 43.572C169.093 43.692 169.477 43.872 169.853 44.112L169.217 45.012C168.913 44.812 168.609 44.668 168.305 44.58C168.009 44.484 167.709 44.436 167.405 44.436C167.093 44.436 166.841 44.5 166.649 44.628C166.465 44.748 166.373 44.916 166.373 45.132C166.373 45.324 166.433 45.472 166.553 45.576C166.681 45.672 166.901 45.744 167.213 45.792L168.281 45.996C168.881 46.1 169.325 46.292 169.613 46.572C169.909 46.844 170.057 47.208 170.057 47.664C170.057 48.032 169.949 48.364 169.733 48.66C169.517 48.956 169.225 49.192 168.857 49.368C168.489 49.536 168.069 49.62 167.597 49.62ZM174.154 49.62C173.578 49.62 173.058 49.484 172.594 49.212C172.13 48.932 171.762 48.56 171.49 48.096C171.218 47.624 171.082 47.092 171.082 46.5C171.082 45.908 171.21 45.38 171.466 44.916C171.722 44.452 172.07 44.084 172.51 43.812C172.958 43.532 173.454 43.392 173.998 43.392C174.558 43.392 175.05 43.528 175.474 43.8C175.906 44.072 176.242 44.44 176.482 44.904C176.73 45.368 176.854 45.9 176.854 46.5V46.824H172.414C172.462 47.152 172.566 47.444 172.726 47.7C172.894 47.948 173.106 48.144 173.362 48.288C173.626 48.432 173.91 48.504 174.214 48.504C174.494 48.504 174.758 48.456 175.006 48.36C175.262 48.256 175.474 48.116 175.642 47.94L176.53 48.744C176.162 49.048 175.786 49.272 175.402 49.416C175.026 49.552 174.61 49.62 174.154 49.62ZM172.426 45.984H175.57C175.522 45.696 175.422 45.44 175.27 45.216C175.126 44.992 174.942 44.816 174.718 44.688C174.502 44.56 174.262 44.496 173.998 44.496C173.734 44.496 173.49 44.56 173.266 44.688C173.05 44.808 172.87 44.98 172.726 45.204C172.582 45.428 172.482 45.688 172.426 45.984ZM178.236 49.5V40.896L179.592 40.656V49.5H178.236ZM184.056 49.62C183.48 49.62 182.96 49.484 182.496 49.212C182.032 48.932 181.664 48.56 181.392 48.096C181.12 47.624 180.984 47.092 180.984 46.5C180.984 45.908 181.112 45.38 181.368 44.916C181.624 44.452 181.972 44.084 182.412 43.812C182.86 43.532 183.356 43.392 183.9 43.392C184.46 43.392 184.952 43.528 185.376 43.8C185.808 44.072 186.144 44.44 186.384 44.904C186.632 45.368 186.756 45.9 186.756 46.5V46.824H182.316C182.364 47.152 182.468 47.444 182.628 47.7C182.796 47.948 183.008 48.144 183.264 48.288C183.528 48.432 183.812 48.504 184.116 48.504C184.396 48.504 184.66 48.456 184.908 48.36C185.164 48.256 185.376 48.116 185.544 47.94L186.432 48.744C186.064 49.048 185.688 49.272 185.304 49.416C184.928 49.552 184.512 49.62 184.056 49.62ZM182.328 45.984H185.472C185.424 45.696 185.324 45.44 185.172 45.216C185.028 44.992 184.844 44.816 184.62 44.688C184.404 44.56 184.164 44.496 183.9 44.496C183.636 44.496 183.392 44.56 183.168 44.688C182.952 44.808 182.772 44.98 182.628 45.204C182.484 45.428 182.384 45.688 182.328 45.984ZM190.922 49.608C190.354 49.608 189.838 49.472 189.374 49.2C188.918 48.92 188.554 48.544 188.282 48.072C188.018 47.6 187.886 47.076 187.886 46.5C187.886 45.916 188.018 45.392 188.282 44.928C188.554 44.456 188.918 44.084 189.374 43.812C189.838 43.532 190.354 43.392 190.922 43.392C191.386 43.392 191.826 43.48 192.242 43.656C192.666 43.832 193.026 44.084 193.322 44.412L192.482 45.288C192.274 45.056 192.042 44.88 191.786 44.76C191.53 44.64 191.258 44.58 190.97 44.58C190.642 44.58 190.346 44.668 190.082 44.844C189.826 45.012 189.622 45.24 189.47 45.528C189.318 45.816 189.242 46.14 189.242 46.5C189.242 46.86 189.318 47.188 189.47 47.484C189.622 47.772 189.826 48 190.082 48.168C190.346 48.336 190.642 48.42 190.97 48.42C191.258 48.42 191.53 48.36 191.786 48.24C192.042 48.12 192.274 47.948 192.482 47.724L193.322 48.588C193.026 48.916 192.666 49.168 192.242 49.344C191.826 49.52 191.386 49.608 190.922 49.608ZM197.153 49.62C196.545 49.62 196.085 49.48 195.773 49.2C195.461 48.912 195.305 48.492 195.305 47.94V44.568H194.105V43.488H195.305V41.832L196.661 41.544V43.488H198.329V44.568H196.661V47.64C196.661 47.936 196.725 48.148 196.853 48.276C196.981 48.396 197.197 48.456 197.501 48.456C197.637 48.456 197.761 48.448 197.873 48.432C197.993 48.408 198.141 48.368 198.317 48.312V49.452C198.149 49.508 197.957 49.548 197.741 49.572C197.533 49.604 197.337 49.62 197.153 49.62ZM202.232 49.62C201.656 49.62 201.136 49.484 200.672 49.212C200.208 48.932 199.84 48.56 199.568 48.096C199.296 47.624 199.16 47.092 199.16 46.5C199.16 45.908 199.288 45.38 199.544 44.916C199.8 44.452 200.148 44.084 200.588 43.812C201.036 43.532 201.532 43.392 202.076 43.392C202.636 43.392 203.128 43.528 203.552 43.8C203.984 44.072 204.32 44.44 204.56 44.904C204.808 45.368 204.932 45.9 204.932 46.5V46.824H200.492C200.54 47.152 200.644 47.444 200.804 47.7C200.972 47.948 201.184 48.144 201.44 48.288C201.704 48.432 201.988 48.504 202.292 48.504C202.572 48.504 202.836 48.456 203.084 48.36C203.34 48.256 203.552 48.116 203.72 47.94L204.608 48.744C204.24 49.048 203.864 49.272 203.48 49.416C203.104 49.552 202.688 49.62 202.232 49.62ZM200.504 45.984H203.648C203.6 45.696 203.5 45.44 203.348 45.216C203.204 44.992 203.02 44.816 202.796 44.688C202.58 44.56 202.34 44.496 202.076 44.496C201.812 44.496 201.568 44.56 201.344 44.688C201.128 44.808 200.948 44.98 200.804 45.204C200.66 45.428 200.56 45.688 200.504 45.984ZM208.774 49.56C208.27 49.56 207.814 49.424 207.406 49.152C206.998 48.872 206.67 48.504 206.422 48.048C206.182 47.584 206.062 47.068 206.062 46.5C206.062 45.924 206.186 45.408 206.434 44.952C206.682 44.488 207.018 44.12 207.442 43.848C207.874 43.576 208.35 43.44 208.87 43.44C209.214 43.44 209.534 43.508 209.83 43.644C210.134 43.772 210.398 43.964 210.622 44.22V40.896L211.978 40.656V49.5H210.634V48.708C210.418 48.98 210.15 49.192 209.83 49.344C209.51 49.488 209.158 49.56 208.774 49.56ZM209.194 48.42C209.482 48.42 209.75 48.364 209.998 48.252C210.246 48.132 210.454 47.968 210.622 47.76V45.228C210.446 45.02 210.234 44.86 209.986 44.748C209.738 44.636 209.474 44.58 209.194 44.58C208.85 44.58 208.542 44.664 208.27 44.832C208.006 44.992 207.794 45.216 207.634 45.504C207.474 45.792 207.394 46.124 207.394 46.5C207.394 46.86 207.474 47.188 207.634 47.484C207.794 47.772 208.006 48 208.27 48.168C208.542 48.336 208.85 48.42 209.194 48.42Z" fill="white"/>
<path fill-rule="evenodd" clip-rule="evenodd" d="M240.389 48.1715L243.921 44.6102C244.267 44.2616 244.023 43.6667 243.534 43.6667H236.466C235.977 43.6667 235.733 44.2616 236.079 44.6102L239.611 48.1715C239.826 48.3873 240.174 48.3873 240.389 48.1715Z" fill="#1F1F1F"/>
<path d="M282 45.5C282 35.2827 290.283 27 300.5 27H352.5C362.717 27 371 35.2827 371 45.5C371 55.7173 362.717 64 352.5 64H300.5C290.283 64 282 55.7173 282 45.5Z" fill="#0066CC"/>
<path d="M306.126 50L310.004 40.2H311.292L315.114 50H313.952L312.79 46.92H308.422L307.26 50H306.126ZM308.758 46.066H312.468L310.606 41.18L308.758 46.066ZM319.085 50.112C318.45 50.112 317.876 49.958 317.363 49.65C316.859 49.3327 316.457 48.908 316.159 48.376C315.86 47.8347 315.711 47.2373 315.711 46.584C315.711 45.9213 315.86 45.324 316.159 44.792C316.457 44.26 316.859 43.84 317.363 43.532C317.876 43.2147 318.45 43.056 319.085 43.056C319.589 43.056 320.069 43.1493 320.527 43.336C320.984 43.5227 321.381 43.784 321.717 44.12L321.059 44.834C320.816 44.5633 320.522 44.3533 320.177 44.204C319.831 44.0547 319.481 43.98 319.127 43.98C318.679 43.98 318.273 44.0967 317.909 44.33C317.554 44.5633 317.269 44.876 317.055 45.268C316.84 45.66 316.733 46.0987 316.733 46.584C316.733 47.0693 316.84 47.508 317.055 47.9C317.269 48.292 317.554 48.6047 317.909 48.838C318.273 49.0713 318.679 49.188 319.127 49.188C319.481 49.188 319.831 49.1133 320.177 48.964C320.522 48.8053 320.816 48.5953 321.059 48.334L321.717 49.048C321.381 49.384 320.984 49.6453 320.527 49.832C320.069 50.0187 319.589 50.112 319.085 50.112ZM325.883 50.14C325.295 50.14 324.847 50 324.539 49.72C324.24 49.4307 324.091 49.0153 324.091 48.474V44.008H322.677V43.168H324.091V41.292L325.113 41.054V43.168H327.073V44.008H325.113V48.208C325.113 48.572 325.187 48.8333 325.337 48.992C325.495 49.1507 325.752 49.23 326.107 49.23C326.284 49.23 326.443 49.216 326.583 49.188C326.723 49.16 326.886 49.1133 327.073 49.048V49.958C326.886 50.0233 326.69 50.07 326.485 50.098C326.279 50.126 326.079 50.14 325.883 50.14ZM328.556 50V43.168H329.578V50H328.556ZM329.074 41.474C328.868 41.474 328.691 41.404 328.542 41.264C328.402 41.1147 328.332 40.942 328.332 40.746C328.332 40.55 328.402 40.382 328.542 40.242C328.691 40.0927 328.868 40.018 329.074 40.018C329.279 40.018 329.452 40.0927 329.592 40.242C329.741 40.382 329.816 40.55 329.816 40.746C329.816 40.942 329.741 41.1147 329.592 41.264C329.452 41.404 329.279 41.474 329.074 41.474ZM334.697 50.112C334.062 50.112 333.493 49.958 332.989 49.65C332.485 49.342 332.088 48.922 331.799 48.39C331.51 47.858 331.365 47.256 331.365 46.584C331.365 45.912 331.51 45.31 331.799 44.778C332.088 44.246 332.485 43.826 332.989 43.518C333.493 43.21 334.062 43.056 334.697 43.056C335.322 43.056 335.882 43.21 336.377 43.518C336.881 43.826 337.278 44.246 337.567 44.778C337.856 45.31 338.001 45.912 338.001 46.584C338.001 47.256 337.856 47.858 337.567 48.39C337.278 48.922 336.881 49.342 336.377 49.65C335.882 49.958 335.322 50.112 334.697 50.112ZM334.683 49.216C335.131 49.216 335.528 49.104 335.873 48.88C336.218 48.6467 336.489 48.3293 336.685 47.928C336.89 47.5267 336.993 47.0787 336.993 46.584C336.993 46.08 336.89 45.632 336.685 45.24C336.489 44.8387 336.218 44.526 335.873 44.302C335.528 44.0687 335.131 43.952 334.683 43.952C334.235 43.952 333.838 44.0687 333.493 44.302C333.148 44.526 332.872 44.8387 332.667 45.24C332.471 45.632 332.373 46.08 332.373 46.584C332.373 47.0787 332.471 47.5267 332.667 47.928C332.872 48.3293 333.148 48.6467 333.493 48.88C333.838 49.104 334.235 49.216 334.683 49.216ZM339.794 50V43.168H340.816V44.274C341.077 43.8633 341.39 43.56 341.754 43.364C342.118 43.1587 342.529 43.056 342.986 43.056C343.481 43.056 343.91 43.1633 344.274 43.378C344.647 43.5833 344.937 43.8773 345.142 44.26C345.357 44.6333 345.464 45.072 345.464 45.576V50H344.442V45.87C344.442 45.2633 344.274 44.7873 343.938 44.442C343.611 44.0873 343.168 43.91 342.608 43.91C342.235 43.91 341.894 43.9987 341.586 44.176C341.278 44.3533 341.021 44.6147 340.816 44.96V50H339.794Z" fill="white"/>
<mask id="path-10-inside-2_126_68093" fill="white">
<path d="M379 45.5C379 35.2827 387.283 27 397.5 27H449.5C459.717 27 468 35.2827 468 45.5C468 55.7173 459.717 64 449.5 64H397.5C387.283 64 379 55.7173 379 45.5Z"/>
</mask>
<path d="M397.5 28H449.5V26H397.5V28ZM449.5 63H397.5V65H449.5V63ZM397.5 63C387.835 63 380 55.165 380 45.5H378C378 56.2696 386.73 65 397.5 65V63ZM467 45.5C467 55.165 459.165 63 449.5 63V65C460.27 65 469 56.2696 469 45.5H467ZM449.5 28C459.165 28 467 35.835 467 45.5H469C469 34.7304 460.27 26 449.5 26V28ZM397.5 26C386.73 26 378 34.7304 378 45.5H380C380 35.835 387.835 28 397.5 28V26Z" fill="#0066CC" mask="url(#path-10-inside-2_126_68093)"/>
<path d="M403.126 50L407.004 40.2H408.292L412.114 50H410.952L409.79 46.92H405.422L404.26 50H403.126ZM405.758 46.066H409.468L407.606 41.18L405.758 46.066ZM416.085 50.112C415.45 50.112 414.876 49.958 414.363 49.65C413.859 49.3327 413.457 48.908 413.159 48.376C412.86 47.8347 412.711 47.2373 412.711 46.584C412.711 45.9213 412.86 45.324 413.159 44.792C413.457 44.26 413.859 43.84 414.363 43.532C414.876 43.2147 415.45 43.056 416.085 43.056C416.589 43.056 417.069 43.1493 417.527 43.336C417.984 43.5227 418.381 43.784 418.717 44.12L418.059 44.834C417.816 44.5633 417.522 44.3533 417.177 44.204C416.831 44.0547 416.481 43.98 416.127 43.98C415.679 43.98 415.273 44.0967 414.909 44.33C414.554 44.5633 414.269 44.876 414.055 45.268C413.84 45.66 413.733 46.0987 413.733 46.584C413.733 47.0693 413.84 47.508 414.055 47.9C414.269 48.292 414.554 48.6047 414.909 48.838C415.273 49.0713 415.679 49.188 416.127 49.188C416.481 49.188 416.831 49.1133 417.177 48.964C417.522 48.8053 417.816 48.5953 418.059 48.334L418.717 49.048C418.381 49.384 417.984 49.6453 417.527 49.832C417.069 50.0187 416.589 50.112 416.085 50.112ZM422.883 50.14C422.295 50.14 421.847 50 421.539 49.72C421.24 49.4307 421.091 49.0153 421.091 48.474V44.008H419.677V43.168H421.091V41.292L422.113 41.054V43.168H424.073V44.008H422.113V48.208C422.113 48.572 422.187 48.8333 422.337 48.992C422.495 49.1507 422.752 49.23 423.107 49.23C423.284 49.23 423.443 49.216 423.583 49.188C423.723 49.16 423.886 49.1133 424.073 49.048V49.958C423.886 50.0233 423.69 50.07 423.485 50.098C423.279 50.126 423.079 50.14 422.883 50.14ZM425.556 50V43.168H426.578V50H425.556ZM426.074 41.474C425.868 41.474 425.691 41.404 425.542 41.264C425.402 41.1147 425.332 40.942 425.332 40.746C425.332 40.55 425.402 40.382 425.542 40.242C425.691 40.0927 425.868 40.018 426.074 40.018C426.279 40.018 426.452 40.0927 426.592 40.242C426.741 40.382 426.816 40.55 426.816 40.746C426.816 40.942 426.741 41.1147 426.592 41.264C426.452 41.404 426.279 41.474 426.074 41.474ZM431.697 50.112C431.062 50.112 430.493 49.958 429.989 49.65C429.485 49.342 429.088 48.922 428.799 48.39C428.51 47.858 428.365 47.256 428.365 46.584C428.365 45.912 428.51 45.31 428.799 44.778C429.088 44.246 429.485 43.826 429.989 43.518C430.493 43.21 431.062 43.056 431.697 43.056C432.322 43.056 432.882 43.21 433.377 43.518C433.881 43.826 434.278 44.246 434.567 44.778C434.856 45.31 435.001 45.912 435.001 46.584C435.001 47.256 434.856 47.858 434.567 48.39C434.278 48.922 433.881 49.342 433.377 49.65C432.882 49.958 432.322 50.112 431.697 50.112ZM431.683 49.216C432.131 49.216 432.528 49.104 432.873 48.88C433.218 48.6467 433.489 48.3293 433.685 47.928C433.89 47.5267 433.993 47.0787 433.993 46.584C433.993 46.08 433.89 45.632 433.685 45.24C433.489 44.8387 433.218 44.526 432.873 44.302C432.528 44.0687 432.131 43.952 431.683 43.952C431.235 43.952 430.838 44.0687 430.493 44.302C430.148 44.526 429.872 44.8387 429.667 45.24C429.471 45.632 429.373 46.08 429.373 46.584C429.373 47.0787 429.471 47.5267 429.667 47.928C429.872 48.3293 430.148 48.6467 430.493 48.88C430.838 49.104 431.235 49.216 431.683 49.216ZM436.794 50V43.168H437.816V44.274C438.077 43.8633 438.39 43.56 438.754 43.364C439.118 43.1587 439.529 43.056 439.986 43.056C440.481 43.056 440.91 43.1633 441.274 43.378C441.647 43.5833 441.937 43.8773 442.142 44.26C442.357 44.6333 442.464 45.072 442.464 45.576V50H441.442V45.87C441.442 45.2633 441.274 44.7873 440.938 44.442C440.611 44.0873 440.168 43.91 439.608 43.91C439.235 43.91 438.894 43.9987 438.586 44.176C438.278 44.3533 438.021 44.6147 437.816 44.96V50H436.794Z" fill="#0066CC"/>
<path fill-rule="evenodd" clip-rule="evenodd" d="M499.292 42.5645C500.42 42.5645 501.333 41.6556 501.333 40.5323C501.333 39.4089 500.42 38.5 499.292 38.5C498.163 38.5 497.25 39.4089 497.25 40.5323C497.25 41.6556 498.163 42.5645 499.292 42.5645ZM499.292 47.5323C500.42 47.5323 501.333 46.6234 501.333 45.5C501.333 44.3766 500.42 43.4677 499.292 43.4677C498.163 43.4677 497.25 44.3766 497.25 45.5C497.25 46.6234 498.163 47.5323 499.292 47.5323ZM499.292 52.5C500.42 52.5 501.333 51.5911 501.333 50.4677C501.333 49.3444 500.42 48.4355 499.292 48.4355C498.163 48.4355 497.25 49.3444 497.25 50.4677C497.25 51.5911 498.163 52.5 499.292 52.5Z" fill="#1F1F1F"/>
<path d="M26.5 87.5C26.5 84.4624 28.9624 82 32 82H286C289.038 82 291.5 84.4624 291.5 87.5V109.5C291.5 112.538 289.038 115 286 115H32C28.9624 115 26.5 112.538 26.5 109.5V87.5Z" stroke="#C7C7C7"/>
<path d="M35.246 103V93.2H39.264C39.8893 93.2 40.4353 93.3213 40.902 93.564C41.3687 93.7973 41.7327 94.124 41.994 94.544C42.2553 94.964 42.386 95.4587 42.386 96.028C42.386 96.6813 42.204 97.2413 41.84 97.708C41.476 98.1653 40.9767 98.4873 40.342 98.674L42.428 103H41.238L39.25 98.814H36.324V103H35.246ZM36.324 97.918H39.18C39.824 97.918 40.3373 97.75 40.72 97.414C41.112 97.0687 41.308 96.6113 41.308 96.042C41.308 95.4633 41.112 95.006 40.72 94.67C40.3373 94.3247 39.824 94.152 39.18 94.152H36.324V97.918ZM46.839 103.14C46.2043 103.14 45.6303 102.986 45.117 102.678C44.6037 102.361 44.1977 101.936 43.899 101.404C43.6003 100.863 43.451 100.256 43.451 99.584C43.451 98.912 43.591 98.31 43.871 97.778C44.1603 97.246 44.5477 96.826 45.033 96.518C45.5183 96.21 46.0597 96.056 46.657 96.056C47.2637 96.056 47.8003 96.21 48.267 96.518C48.743 96.8167 49.1163 97.2273 49.387 97.75C49.667 98.2633 49.807 98.8467 49.807 99.5V99.808H44.445C44.4823 100.275 44.6083 100.695 44.823 101.068C45.047 101.432 45.3363 101.721 45.691 101.936C46.055 102.141 46.4517 102.244 46.881 102.244C47.2357 102.244 47.5763 102.183 47.903 102.062C48.239 101.931 48.5237 101.759 48.757 101.544L49.401 102.23C49.009 102.538 48.603 102.767 48.183 102.916C47.763 103.065 47.315 103.14 46.839 103.14ZM44.473 99.08H48.799C48.7523 98.6693 48.6263 98.3053 48.421 97.988C48.225 97.6613 47.973 97.4047 47.665 97.218C47.3663 97.0313 47.0303 96.938 46.657 96.938C46.2837 96.938 45.943 97.0313 45.635 97.218C45.327 97.3953 45.0703 97.6473 44.865 97.974C44.669 98.2913 44.5383 98.66 44.473 99.08ZM53.7343 103.14C53.1743 103.14 52.6563 103.056 52.1803 102.888C51.7043 102.711 51.2983 102.459 50.9623 102.132L51.5083 101.46C51.919 101.759 52.297 101.978 52.6423 102.118C52.9876 102.249 53.3423 102.314 53.7063 102.314C54.201 102.314 54.6116 102.197 54.9383 101.964C55.265 101.731 55.4283 101.432 55.4283 101.068C55.4283 100.788 55.3303 100.569 55.1343 100.41C54.9476 100.251 54.635 100.13 54.1963 100.046L53.0763 99.85C52.4136 99.7287 51.9236 99.5233 51.6063 99.234C51.2983 98.9447 51.1443 98.5527 51.1443 98.058C51.1443 97.666 51.247 97.3207 51.4523 97.022C51.667 96.7233 51.961 96.49 52.3343 96.322C52.7076 96.1447 53.1323 96.056 53.6083 96.056C54.075 96.056 54.5183 96.126 54.9383 96.266C55.3583 96.3967 55.783 96.6113 56.2123 96.91L55.7083 97.624C55.3536 97.372 54.999 97.19 54.6443 97.078C54.2896 96.9567 53.9303 96.896 53.5663 96.896C53.1183 96.896 52.759 96.994 52.4883 97.19C52.2176 97.386 52.0823 97.652 52.0823 97.988C52.0823 98.268 52.1663 98.4827 52.3343 98.632C52.5116 98.7813 52.8196 98.8933 53.2583 98.968L54.4063 99.178C55.097 99.2993 55.601 99.5093 55.9183 99.808C56.2356 100.107 56.3943 100.508 56.3943 101.012C56.3943 101.413 56.2776 101.777 56.0443 102.104C55.811 102.421 55.4936 102.673 55.0923 102.86C54.691 103.047 54.2383 103.14 53.7343 103.14ZM61.0428 103.112C60.4081 103.112 59.8388 102.958 59.3348 102.65C58.8308 102.342 58.4341 101.922 58.1448 101.39C57.8554 100.858 57.7108 100.256 57.7108 99.584C57.7108 98.912 57.8554 98.31 58.1448 97.778C58.4341 97.246 58.8308 96.826 59.3348 96.518C59.8388 96.21 60.4081 96.056 61.0428 96.056C61.6681 96.056 62.2281 96.21 62.7228 96.518C63.2268 96.826 63.6234 97.246 63.9128 97.778C64.2021 98.31 64.3468 98.912 64.3468 99.584C64.3468 100.256 64.2021 100.858 63.9128 101.39C63.6234 101.922 63.2268 102.342 62.7228 102.65C62.2281 102.958 61.6681 103.112 61.0428 103.112ZM61.0288 102.216C61.4768 102.216 61.8734 102.104 62.2188 101.88C62.5641 101.647 62.8348 101.329 63.0308 100.928C63.2361 100.527 63.3388 100.079 63.3388 99.584C63.3388 99.08 63.2361 98.632 63.0308 98.24C62.8348 97.8387 62.5641 97.526 62.2188 97.302C61.8734 97.0687 61.4768 96.952 61.0288 96.952C60.5808 96.952 60.1841 97.0687 59.8388 97.302C59.4934 97.526 59.2181 97.8387 59.0128 98.24C58.8168 98.632 58.7188 99.08 58.7188 99.584C58.7188 100.079 58.8168 100.527 59.0128 100.928C59.2181 101.329 59.4934 101.647 59.8388 101.88C60.1841 102.104 60.5808 102.216 61.0288 102.216ZM68.5758 103.112C68.0905 103.112 67.6612 103.005 67.2878 102.79C66.9145 102.575 66.6205 102.277 66.4058 101.894C66.2005 101.511 66.0978 101.073 66.0978 100.578V96.168H67.1338V100.284C67.1338 100.891 67.2972 101.371 67.6238 101.726C67.9505 102.081 68.3938 102.258 68.9538 102.258C69.3365 102.258 69.6772 102.169 69.9758 101.992C70.2838 101.815 70.5405 101.558 70.7458 101.222V96.168H71.7678V103H70.7458V101.894C70.4845 102.295 70.1718 102.599 69.8078 102.804C69.4532 103.009 69.0425 103.112 68.5758 103.112ZM73.8645 103V96.168H74.8865V97.568C75.0638 97.092 75.3158 96.7233 75.6425 96.462C75.9785 96.1913 76.3611 96.056 76.7905 96.056C76.9118 96.056 77.0238 96.0653 77.1265 96.084C77.2291 96.0933 77.3318 96.1167 77.4345 96.154V97.078C77.3225 97.0407 77.2011 97.0127 77.0705 96.994C76.9491 96.966 76.8325 96.952 76.7205 96.952C76.3005 96.952 75.9318 97.0733 75.6145 97.316C75.3065 97.5587 75.0638 97.8993 74.8865 98.338V103H73.8645ZM81.4285 103.112C80.7938 103.112 80.2198 102.958 79.7065 102.65C79.2025 102.333 78.8012 101.908 78.5025 101.376C78.2038 100.835 78.0545 100.237 78.0545 99.584C78.0545 98.9213 78.2038 98.324 78.5025 97.792C78.8012 97.26 79.2025 96.84 79.7065 96.532C80.2198 96.2147 80.7938 96.056 81.4285 96.056C81.9325 96.056 82.4132 96.1493 82.8705 96.336C83.3278 96.5227 83.7245 96.784 84.0605 97.12L83.4025 97.834C83.1598 97.5633 82.8658 97.3533 82.5205 97.204C82.1752 97.0547 81.8252 96.98 81.4705 96.98C81.0225 96.98 80.6165 97.0967 80.2525 97.33C79.8978 97.5633 79.6132 97.876 79.3985 98.268C79.1838 98.66 79.0765 99.0987 79.0765 99.584C79.0765 100.069 79.1838 100.508 79.3985 100.9C79.6132 101.292 79.8978 101.605 80.2525 101.838C80.6165 102.071 81.0225 102.188 81.4705 102.188C81.8252 102.188 82.1752 102.113 82.5205 101.964C82.8658 101.805 83.1598 101.595 83.4025 101.334L84.0605 102.048C83.7245 102.384 83.3278 102.645 82.8705 102.832C82.4132 103.019 81.9325 103.112 81.4285 103.112ZM88.3605 103.14C87.7258 103.14 87.1518 102.986 86.6385 102.678C86.1251 102.361 85.7191 101.936 85.4205 101.404C85.1218 100.863 84.9725 100.256 84.9725 99.584C84.9725 98.912 85.1125 98.31 85.3925 97.778C85.6818 97.246 86.0691 96.826 86.5545 96.518C87.0398 96.21 87.5811 96.056 88.1785 96.056C88.7851 96.056 89.3218 96.21 89.7885 96.518C90.2645 96.8167 90.6378 97.2273 90.9085 97.75C91.1885 98.2633 91.3285 98.8467 91.3285 99.5V99.808H85.9665C86.0038 100.275 86.1298 100.695 86.3445 101.068C86.5685 101.432 86.8578 101.721 87.2125 101.936C87.5765 102.141 87.9731 102.244 88.4025 102.244C88.7571 102.244 89.0978 102.183 89.4245 102.062C89.7605 101.931 90.0451 101.759 90.2785 101.544L90.9225 102.23C90.5305 102.538 90.1245 102.767 89.7045 102.916C89.2845 103.065 88.8365 103.14 88.3605 103.14ZM85.9945 99.08H90.3205C90.2738 98.6693 90.1478 98.3053 89.9425 97.988C89.7465 97.6613 89.4945 97.4047 89.1865 97.218C88.8878 97.0313 88.5518 96.938 88.1785 96.938C87.8051 96.938 87.4645 97.0313 87.1565 97.218C86.8485 97.3953 86.5918 97.6473 86.3865 97.974C86.1905 98.2913 86.0598 98.66 85.9945 99.08Z" fill="#1F1F1F"/>
<path d="M97 98.5C97 91.3203 102.82 85.5 110 85.5H164C171.18 85.5 177 91.3203 177 98.5C177 105.68 171.18 111.5 164 111.5H110C102.82 111.5 97 105.68 97 98.5Z" fill="#E0E0E0"/>
<path d="M109.86 102.632C109.276 102.632 108.732 102.524 108.228 102.308C107.724 102.084 107.28 101.776 106.896 101.384C106.52 100.984 106.224 100.524 106.008 100.004C105.792 99.476 105.684 98.908 105.684 98.3C105.684 97.692 105.792 97.128 106.008 96.608C106.224 96.08 106.52 95.62 106.896 95.228C107.28 94.828 107.724 94.52 108.228 94.304C108.732 94.08 109.276 93.968 109.86 93.968C110.444 93.968 110.988 94.08 111.492 94.304C111.996 94.52 112.436 94.828 112.812 95.228C113.196 95.62 113.496 96.08 113.712 96.608C113.928 97.128 114.036 97.692 114.036 98.3C114.036 98.908 113.928 99.476 113.712 100.004C113.496 100.524 113.196 100.984 112.812 101.384C112.436 101.776 111.996 102.084 111.492 102.308C110.988 102.524 110.444 102.632 109.86 102.632ZM109.86 101.792C110.316 101.792 110.74 101.704 111.132 101.528C111.524 101.352 111.868 101.104 112.164 100.784C112.46 100.464 112.688 100.092 112.848 99.668C113.016 99.244 113.1 98.788 113.1 98.3C113.1 97.804 113.016 97.348 112.848 96.932C112.688 96.508 112.46 96.136 112.164 95.816C111.868 95.496 111.524 95.248 111.132 95.072C110.74 94.896 110.316 94.808 109.86 94.808C109.404 94.808 108.98 94.896 108.588 95.072C108.196 95.248 107.852 95.496 107.556 95.816C107.26 96.136 107.028 96.508 106.86 96.932C106.7 97.348 106.62 97.8 106.62 98.288C106.62 98.784 106.7 99.244 106.86 99.668C107.028 100.092 107.26 100.464 107.556 100.784C107.852 101.104 108.196 101.352 108.588 101.528C108.98 101.704 109.404 101.792 109.86 101.792ZM115.615 105.008V96.644H116.479V97.484C116.703 97.188 116.975 96.964 117.295 96.812C117.623 96.652 117.983 96.572 118.375 96.572C118.887 96.572 119.343 96.708 119.743 96.98C120.151 97.244 120.475 97.604 120.715 98.06C120.955 98.508 121.075 99.012 121.075 99.572C121.075 100.132 120.951 100.64 120.703 101.096C120.463 101.552 120.135 101.916 119.719 102.188C119.311 102.452 118.847 102.584 118.327 102.584C117.959 102.584 117.619 102.516 117.307 102.38C116.995 102.236 116.723 102.032 116.491 101.768V105.008H115.615ZM118.159 101.828C118.551 101.828 118.899 101.732 119.203 101.54C119.515 101.34 119.759 101.072 119.935 100.736C120.119 100.392 120.211 100.008 120.211 99.584C120.211 99.152 120.119 98.768 119.935 98.432C119.759 98.096 119.515 97.832 119.203 97.64C118.899 97.44 118.551 97.34 118.159 97.34C117.815 97.34 117.495 97.412 117.199 97.556C116.911 97.692 116.675 97.888 116.491 98.144V101.012C116.683 101.268 116.923 101.468 117.211 101.612C117.507 101.756 117.823 101.828 118.159 101.828ZM124.48 102.62C123.976 102.62 123.592 102.5 123.328 102.26C123.072 102.012 122.944 101.656 122.944 101.192V97.364H121.732V96.644H122.944V95.036L123.82 94.832V96.644H125.5V97.364H123.82V100.964C123.82 101.276 123.884 101.5 124.012 101.636C124.148 101.772 124.368 101.84 124.672 101.84C124.824 101.84 124.96 101.828 125.08 101.804C125.2 101.78 125.34 101.74 125.5 101.684V102.464C125.34 102.52 125.172 102.56 124.996 102.584C124.82 102.608 124.648 102.62 124.48 102.62ZM126.771 102.5V96.644H127.647V102.5H126.771ZM127.215 95.192C127.039 95.192 126.887 95.132 126.759 95.012C126.639 94.884 126.579 94.736 126.579 94.568C126.579 94.4 126.639 94.256 126.759 94.136C126.887 94.008 127.039 93.944 127.215 93.944C127.391 93.944 127.539 94.008 127.659 94.136C127.787 94.256 127.851 94.4 127.851 94.568C127.851 94.736 127.787 94.884 127.659 95.012C127.539 95.132 127.391 95.192 127.215 95.192ZM132.035 102.596C131.491 102.596 131.003 102.464 130.571 102.2C130.139 101.936 129.799 101.576 129.551 101.12C129.303 100.664 129.179 100.148 129.179 99.572C129.179 98.996 129.303 98.48 129.551 98.024C129.799 97.568 130.139 97.208 130.571 96.944C131.003 96.68 131.491 96.548 132.035 96.548C132.571 96.548 133.051 96.68 133.475 96.944C133.907 97.208 134.247 97.568 134.495 98.024C134.743 98.48 134.867 98.996 134.867 99.572C134.867 100.148 134.743 100.664 134.495 101.12C134.247 101.576 133.907 101.936 133.475 102.2C133.051 102.464 132.571 102.596 132.035 102.596ZM132.023 101.828C132.407 101.828 132.747 101.732 133.043 101.54C133.339 101.34 133.571 101.068 133.739 100.724C133.915 100.38 134.003 99.996 134.003 99.572C134.003 99.14 133.915 98.756 133.739 98.42C133.571 98.076 133.339 97.808 133.043 97.616C132.747 97.416 132.407 97.316 132.023 97.316C131.639 97.316 131.299 97.416 131.003 97.616C130.707 97.808 130.471 98.076 130.295 98.42C130.127 98.756 130.043 99.14 130.043 99.572C130.043 99.996 130.127 100.38 130.295 100.724C130.471 101.068 130.707 101.34 131.003 101.54C131.299 101.732 131.639 101.828 132.023 101.828ZM136.404 102.5V96.644H137.28V97.592C137.504 97.24 137.772 96.98 138.084 96.812C138.396 96.636 138.748 96.548 139.14 96.548C139.564 96.548 139.932 96.64 140.244 96.824C140.564 97 140.812 97.252 140.988 97.58C141.172 97.9 141.264 98.276 141.264 98.708V102.5H140.388V98.96C140.388 98.44 140.244 98.032 139.956 97.736C139.676 97.432 139.296 97.28 138.816 97.28C138.496 97.28 138.204 97.356 137.94 97.508C137.676 97.66 137.456 97.884 137.28 98.18V102.5H136.404ZM146.762 102.5V95.036L145.418 95.636V94.844L147.086 94.1H147.626V102.5H146.762Z" fill="#1F1F1F"/>
<path fill-rule="evenodd" clip-rule="evenodd" d="M164.285 102.291L164.791 101.785C165.07 101.506 165.07 101.054 164.791 100.774L162.516 98.5L164.791 96.2257C165.07 95.9466 165.07 95.4941 164.791 95.2148L164.285 94.7093C164.006 94.4302 163.554 94.4302 163.274 94.7093L161 96.9836L158.726 94.7093C158.447 94.4302 157.994 94.4302 157.715 94.7093L157.209 95.2148C156.93 95.4939 156.93 95.9464 157.209 96.2257L159.484 98.5L157.209 100.774C156.93 101.053 156.93 101.506 157.209 101.785L157.715 102.291C157.994 102.57 158.447 102.57 158.726 102.291L161 100.016L163.274 102.291C163.553 102.57 164.006 102.57 164.285 102.291Z" fill="#1F1F1F"/>
<path d="M181 98.5C181 91.3203 186.82 85.5 194 85.5H251C258.18 85.5 264 91.3203 264 98.5C264 105.68 258.18 111.5 251 111.5H194C186.82 111.5 181 105.68 181 98.5Z" fill="#E0E0E0"/>
<path d="M193.86 102.632C193.276 102.632 192.732 102.524 192.228 102.308C191.724 102.084 191.28 101.776 190.896 101.384C190.52 100.984 190.224 100.524 190.008 100.004C189.792 99.476 189.684 98.908 189.684 98.3C189.684 97.692 189.792 97.128 190.008 96.608C190.224 96.08 190.52 95.62 190.896 95.228C191.28 94.828 191.724 94.52 192.228 94.304C192.732 94.08 193.276 93.968 193.86 93.968C194.444 93.968 194.988 94.08 195.492 94.304C195.996 94.52 196.436 94.828 196.812 95.228C197.196 95.62 197.496 96.08 197.712 96.608C197.928 97.128 198.036 97.692 198.036 98.3C198.036 98.908 197.928 99.476 197.712 100.004C197.496 100.524 197.196 100.984 196.812 101.384C196.436 101.776 195.996 102.084 195.492 102.308C194.988 102.524 194.444 102.632 193.86 102.632ZM193.86 101.792C194.316 101.792 194.74 101.704 195.132 101.528C195.524 101.352 195.868 101.104 196.164 100.784C196.46 100.464 196.688 100.092 196.848 99.668C197.016 99.244 197.1 98.788 197.1 98.3C197.1 97.804 197.016 97.348 196.848 96.932C196.688 96.508 196.46 96.136 196.164 95.816C195.868 95.496 195.524 95.248 195.132 95.072C194.74 94.896 194.316 94.808 193.86 94.808C193.404 94.808 192.98 94.896 192.588 95.072C192.196 95.248 191.852 95.496 191.556 95.816C191.26 96.136 191.028 96.508 190.86 96.932C190.7 97.348 190.62 97.8 190.62 98.288C190.62 98.784 190.7 99.244 190.86 99.668C191.028 100.092 191.26 100.464 191.556 100.784C191.852 101.104 192.196 101.352 192.588 101.528C192.98 101.704 193.404 101.792 193.86 101.792ZM199.615 105.008V96.644H200.479V97.484C200.703 97.188 200.975 96.964 201.295 96.812C201.623 96.652 201.983 96.572 202.375 96.572C202.887 96.572 203.343 96.708 203.743 96.98C204.151 97.244 204.475 97.604 204.715 98.06C204.955 98.508 205.075 99.012 205.075 99.572C205.075 100.132 204.951 100.64 204.703 101.096C204.463 101.552 204.135 101.916 203.719 102.188C203.311 102.452 202.847 102.584 202.327 102.584C201.959 102.584 201.619 102.516 201.307 102.38C200.995 102.236 200.723 102.032 200.491 101.768V105.008H199.615ZM202.159 101.828C202.551 101.828 202.899 101.732 203.203 101.54C203.515 101.34 203.759 101.072 203.935 100.736C204.119 100.392 204.211 100.008 204.211 99.584C204.211 99.152 204.119 98.768 203.935 98.432C203.759 98.096 203.515 97.832 203.203 97.64C202.899 97.44 202.551 97.34 202.159 97.34C201.815 97.34 201.495 97.412 201.199 97.556C200.911 97.692 200.675 97.888 200.491 98.144V101.012C200.683 101.268 200.923 101.468 201.211 101.612C201.507 101.756 201.823 101.828 202.159 101.828ZM208.48 102.62C207.976 102.62 207.592 102.5 207.328 102.26C207.072 102.012 206.944 101.656 206.944 101.192V97.364H205.732V96.644H206.944V95.036L207.82 94.832V96.644H209.5V97.364H207.82V100.964C207.82 101.276 207.884 101.5 208.012 101.636C208.148 101.772 208.368 101.84 208.672 101.84C208.824 101.84 208.96 101.828 209.08 101.804C209.2 101.78 209.34 101.74 209.5 101.684V102.464C209.34 102.52 209.172 102.56 208.996 102.584C208.82 102.608 208.648 102.62 208.48 102.62ZM210.771 102.5V96.644H211.647V102.5H210.771ZM211.215 95.192C211.039 95.192 210.887 95.132 210.759 95.012C210.639 94.884 210.579 94.736 210.579 94.568C210.579 94.4 210.639 94.256 210.759 94.136C210.887 94.008 211.039 93.944 211.215 93.944C211.391 93.944 211.539 94.008 211.659 94.136C211.787 94.256 211.851 94.4 211.851 94.568C211.851 94.736 211.787 94.884 211.659 95.012C211.539 95.132 211.391 95.192 211.215 95.192ZM216.035 102.596C215.491 102.596 215.003 102.464 214.571 102.2C214.139 101.936 213.799 101.576 213.551 101.12C213.303 100.664 213.179 100.148 213.179 99.572C213.179 98.996 213.303 98.48 213.551 98.024C213.799 97.568 214.139 97.208 214.571 96.944C215.003 96.68 215.491 96.548 216.035 96.548C216.571 96.548 217.051 96.68 217.475 96.944C217.907 97.208 218.247 97.568 218.495 98.024C218.743 98.48 218.867 98.996 218.867 99.572C218.867 100.148 218.743 100.664 218.495 101.12C218.247 101.576 217.907 101.936 217.475 102.2C217.051 102.464 216.571 102.596 216.035 102.596ZM216.023 101.828C216.407 101.828 216.747 101.732 217.043 101.54C217.339 101.34 217.571 101.068 217.739 100.724C217.915 100.38 218.003 99.996 218.003 99.572C218.003 99.14 217.915 98.756 217.739 98.42C217.571 98.076 217.339 97.808 217.043 97.616C216.747 97.416 216.407 97.316 216.023 97.316C215.639 97.316 215.299 97.416 215.003 97.616C214.707 97.808 214.471 98.076 214.295 98.42C214.127 98.756 214.043 99.14 214.043 99.572C214.043 99.996 214.127 100.38 214.295 100.724C214.471 101.068 214.707 101.34 215.003 101.54C215.299 101.732 215.639 101.828 216.023 101.828ZM220.404 102.5V96.644H221.28V97.592C221.504 97.24 221.772 96.98 222.084 96.812C222.396 96.636 222.748 96.548 223.14 96.548C223.564 96.548 223.932 96.64 224.244 96.824C224.564 97 224.812 97.252 224.988 97.58C225.172 97.9 225.264 98.276 225.264 98.708V102.5H224.388V98.96C224.388 98.44 224.244 98.032 223.956 97.736C223.676 97.432 223.296 97.28 222.816 97.28C222.496 97.28 222.204 97.356 221.94 97.508C221.676 97.66 221.456 97.884 221.28 98.18V102.5H220.404ZM229.538 102.5V101.864L232.898 98.192C233.162 97.904 233.366 97.652 233.51 97.436C233.662 97.212 233.766 97.004 233.822 96.812C233.886 96.62 233.918 96.416 233.918 96.2C233.918 95.776 233.75 95.428 233.414 95.156C233.086 94.876 232.666 94.736 232.154 94.736C231.762 94.736 231.398 94.812 231.062 94.964C230.726 95.116 230.35 95.38 229.934 95.756L229.43 95.156C229.87 94.756 230.314 94.46 230.762 94.268C231.21 94.068 231.678 93.968 232.166 93.968C232.67 93.968 233.118 94.064 233.51 94.256C233.902 94.44 234.21 94.696 234.434 95.024C234.658 95.352 234.77 95.728 234.77 96.152C234.77 96.432 234.734 96.692 234.662 96.932C234.59 97.164 234.462 97.416 234.278 97.688C234.094 97.952 233.83 98.272 233.486 98.648L230.618 101.756L234.95 101.744V102.5H229.538Z" fill="#1F1F1F"/>
<path fill-rule="evenodd" clip-rule="evenodd" d="M251.285 102.291L251.791 101.785C252.07 101.506 252.07 101.054 251.791 100.774L249.516 98.5L251.791 96.2257C252.07 95.9466 252.07 95.4941 251.791 95.2148L251.285 94.7093C251.006 94.4302 250.554 94.4302 250.274 94.7093L248 96.9836L245.726 94.7093C245.447 94.4302 244.994 94.4302 244.715 94.7093L244.209 95.2148C243.93 95.4939 243.93 95.9464 244.209 96.2257L246.484 98.5L244.209 100.774C243.93 101.053 243.93 101.506 244.209 101.785L244.715 102.291C244.994 102.57 245.447 102.57 245.726 102.291L248 100.016L250.274 102.291C250.553 102.57 251.006 102.57 251.285 102.291Z" fill="#1F1F1F"/>
<path fill-rule="evenodd" clip-rule="evenodd" d="M279.285 102.291L279.791 101.785C280.07 101.506 280.07 101.054 279.791 100.774L277.516 98.5L279.791 96.2257C280.07 95.9466 280.07 95.4941 279.791 95.2148L279.285 94.7093C279.006 94.4302 278.554 94.4302 278.274 94.7093L276 96.9836L273.726 94.7093C273.447 94.4302 272.994 94.4302 272.715 94.7093L272.209 95.2148C271.93 95.4939 271.93 95.9464 272.209 96.2257L274.484 98.5L272.209 100.774C271.93 101.053 271.93 101.506 272.209 101.785L272.715 102.291C272.994 102.57 273.447 102.57 273.726 102.291L276 100.016L278.274 102.291C278.553 102.57 279.006 102.57 279.285 102.291Z" fill="#1F1F1F"/>
<path d="M308.714 103V102.258L312.634 97.974C312.942 97.638 313.18 97.344 313.348 97.092C313.525 96.8307 313.647 96.588 313.712 96.364C313.787 96.14 313.824 95.902 313.824 95.65C313.824 95.1553 313.628 94.7493 313.236 94.432C312.853 94.1053 312.363 93.942 311.766 93.942C311.309 93.942 310.884 94.0307 310.492 94.208C310.1 94.3853 309.661 94.6933 309.176 95.132L308.588 94.432C309.101 93.9653 309.619 93.62 310.142 93.396C310.665 93.1627 311.211 93.046 311.78 93.046C312.368 93.046 312.891 93.158 313.348 93.382C313.805 93.5967 314.165 93.8953 314.426 94.278C314.687 94.6607 314.818 95.0993 314.818 95.594C314.818 95.9207 314.776 96.224 314.692 96.504C314.608 96.7747 314.459 97.0687 314.244 97.386C314.029 97.694 313.721 98.0673 313.32 98.506L309.974 102.132L315.028 102.118V103H308.714ZM320.856 103V97.008H319.33V96.168H320.856V94.74C320.856 94.068 321.033 93.55 321.388 93.186C321.742 92.822 322.246 92.64 322.9 92.64C323.086 92.64 323.254 92.6493 323.404 92.668C323.562 92.6867 323.702 92.7193 323.824 92.766V93.69C323.674 93.6433 323.539 93.6107 323.418 93.592C323.296 93.5733 323.156 93.564 322.998 93.564C322.606 93.564 322.321 93.662 322.144 93.858C321.966 94.0447 321.878 94.3433 321.878 94.754V96.168H323.824V97.008H321.878V103H320.856ZM325.155 103V96.168H326.177V103H325.155ZM325.673 94.474C325.468 94.474 325.29 94.404 325.141 94.264C325.001 94.1147 324.931 93.942 324.931 93.746C324.931 93.55 325.001 93.382 325.141 93.242C325.29 93.0927 325.468 93.018 325.673 93.018C325.878 93.018 326.051 93.0927 326.191 93.242C326.34 93.382 326.415 93.55 326.415 93.746C326.415 93.942 326.34 94.1147 326.191 94.264C326.051 94.404 325.878 94.474 325.673 94.474ZM328.273 103V92.892L329.295 92.682V103H328.273ZM333.994 103.14C333.406 103.14 332.958 103 332.65 102.72C332.351 102.431 332.202 102.015 332.202 101.474V97.008H330.788V96.168H332.202V94.292L333.224 94.054V96.168H335.184V97.008H333.224V101.208C333.224 101.572 333.299 101.833 333.448 101.992C333.607 102.151 333.863 102.23 334.218 102.23C334.395 102.23 334.554 102.216 334.694 102.188C334.834 102.16 334.997 102.113 335.184 102.048V102.958C334.997 103.023 334.801 103.07 334.596 103.098C334.391 103.126 334.19 103.14 333.994 103.14ZM339.624 103.14C338.989 103.14 338.415 102.986 337.902 102.678C337.389 102.361 336.983 101.936 336.684 101.404C336.385 100.863 336.236 100.256 336.236 99.584C336.236 98.912 336.376 98.31 336.656 97.778C336.945 97.246 337.333 96.826 337.818 96.518C338.303 96.21 338.845 96.056 339.442 96.056C340.049 96.056 340.585 96.21 341.052 96.518C341.528 96.8167 341.901 97.2273 342.172 97.75C342.452 98.2633 342.592 98.8467 342.592 99.5V99.808H337.23C337.267 100.275 337.393 100.695 337.608 101.068C337.832 101.432 338.121 101.721 338.476 101.936C338.84 102.141 339.237 102.244 339.666 102.244C340.021 102.244 340.361 102.183 340.688 102.062C341.024 101.931 341.309 101.759 341.542 101.544L342.186 102.23C341.794 102.538 341.388 102.767 340.968 102.916C340.548 103.065 340.1 103.14 339.624 103.14ZM337.258 99.08H341.584C341.537 98.6693 341.411 98.3053 341.206 97.988C341.01 97.6613 340.758 97.4047 340.45 97.218C340.151 97.0313 339.815 96.938 339.442 96.938C339.069 96.938 338.728 97.0313 338.42 97.218C338.112 97.3953 337.855 97.6473 337.65 97.974C337.454 98.2913 337.323 98.66 337.258 99.08ZM344.337 103V96.168H345.359V97.568C345.536 97.092 345.788 96.7233 346.115 96.462C346.451 96.1913 346.834 96.056 347.263 96.056C347.384 96.056 347.496 96.0653 347.599 96.084C347.702 96.0933 347.804 96.1167 347.907 96.154V97.078C347.795 97.0407 347.674 97.0127 347.543 96.994C347.422 96.966 347.305 96.952 347.193 96.952C346.773 96.952 346.404 97.0733 346.087 97.316C345.779 97.5587 345.536 97.8993 345.359 98.338V103H344.337ZM351.305 103.14C350.745 103.14 350.227 103.056 349.751 102.888C349.275 102.711 348.869 102.459 348.533 102.132L349.079 101.46C349.489 101.759 349.867 101.978 350.213 102.118C350.558 102.249 350.913 102.314 351.277 102.314C351.771 102.314 352.182 102.197 352.509 101.964C352.835 101.731 352.999 101.432 352.999 101.068C352.999 100.788 352.901 100.569 352.705 100.41C352.518 100.251 352.205 100.13 351.767 100.046L350.647 99.85C349.984 99.7287 349.494 99.5233 349.177 99.234C348.869 98.9447 348.715 98.5527 348.715 98.058C348.715 97.666 348.817 97.3207 349.023 97.022C349.237 96.7233 349.531 96.49 349.905 96.322C350.278 96.1447 350.703 96.056 351.179 96.056C351.645 96.056 352.089 96.126 352.509 96.266C352.929 96.3967 353.353 96.6113 353.783 96.91L353.279 97.624C352.924 97.372 352.569 97.19 352.215 97.078C351.86 96.9567 351.501 96.896 351.137 96.896C350.689 96.896 350.329 96.994 350.059 97.19C349.788 97.386 349.653 97.652 349.653 97.988C349.653 98.268 349.737 98.4827 349.905 98.632C350.082 98.7813 350.39 98.8933 350.829 98.968L351.977 99.178C352.667 99.2993 353.171 99.5093 353.489 99.808C353.806 100.107 353.965 100.508 353.965 101.012C353.965 101.413 353.848 101.777 353.615 102.104C353.381 102.421 353.064 102.673 352.663 102.86C352.261 103.047 351.809 103.14 351.305 103.14ZM360.902 103.126C360.417 103.126 359.988 103.037 359.614 102.86C359.241 102.683 358.947 102.44 358.732 102.132C358.527 101.815 358.424 101.451 358.424 101.04C358.424 100.629 358.532 100.275 358.746 99.976C358.961 99.668 359.26 99.43 359.642 99.262C360.025 99.094 360.473 99.01 360.986 99.01C361.378 99.01 361.747 99.052 362.092 99.136C362.447 99.22 362.774 99.3553 363.072 99.542V98.604C363.072 98.044 362.923 97.624 362.624 97.344C362.326 97.0547 361.887 96.91 361.308 96.91C360.991 96.91 360.664 96.9567 360.328 97.05C360.002 97.1433 359.638 97.2927 359.236 97.498L358.858 96.714C359.773 96.2753 360.632 96.056 361.434 96.056C362.284 96.056 362.937 96.266 363.394 96.686C363.852 97.0967 364.08 97.6893 364.08 98.464V103H363.072V102.202C362.774 102.51 362.442 102.743 362.078 102.902C361.714 103.051 361.322 103.126 360.902 103.126ZM359.404 101.012C359.404 101.413 359.558 101.735 359.866 101.978C360.184 102.221 360.599 102.342 361.112 102.342C361.495 102.342 361.845 102.277 362.162 102.146C362.489 102.015 362.792 101.819 363.072 101.558V100.242C362.783 100.074 362.484 99.9527 362.176 99.878C361.868 99.794 361.523 99.752 361.14 99.752C360.618 99.752 360.198 99.8687 359.88 100.102C359.563 100.326 359.404 100.629 359.404 101.012ZM366.157 105.926V96.168H367.165V97.148C367.427 96.8027 367.744 96.5413 368.117 96.364C368.5 96.1773 368.92 96.084 369.377 96.084C369.975 96.084 370.507 96.2427 370.973 96.56C371.449 96.868 371.827 97.288 372.107 97.82C372.387 98.3427 372.527 98.9307 372.527 99.584C372.527 100.237 372.383 100.83 372.093 101.362C371.813 101.894 371.431 102.319 370.945 102.636C370.469 102.944 369.928 103.098 369.321 103.098C368.892 103.098 368.495 103.019 368.131 102.86C367.767 102.692 367.45 102.454 367.179 102.146V105.926H366.157ZM369.125 102.216C369.583 102.216 369.989 102.104 370.343 101.88C370.707 101.647 370.992 101.334 371.197 100.942C371.412 100.541 371.519 100.093 371.519 99.598C371.519 99.094 371.412 98.646 371.197 98.254C370.992 97.862 370.707 97.554 370.343 97.33C369.989 97.0967 369.583 96.98 369.125 96.98C368.724 96.98 368.351 97.064 368.005 97.232C367.669 97.3907 367.394 97.6193 367.179 97.918V101.264C367.403 101.563 367.683 101.796 368.019 101.964C368.365 102.132 368.733 102.216 369.125 102.216ZM374.32 105.926V96.168H375.328V97.148C375.589 96.8027 375.906 96.5413 376.28 96.364C376.662 96.1773 377.082 96.084 377.54 96.084C378.137 96.084 378.669 96.2427 379.136 96.56C379.612 96.868 379.99 97.288 380.27 97.82C380.55 98.3427 380.69 98.9307 380.69 99.584C380.69 100.237 380.545 100.83 380.256 101.362C379.976 101.894 379.593 102.319 379.108 102.636C378.632 102.944 378.09 103.098 377.484 103.098C377.054 103.098 376.658 103.019 376.294 102.86C375.93 102.692 375.612 102.454 375.342 102.146V105.926H374.32ZM377.288 102.216C377.745 102.216 378.151 102.104 378.506 101.88C378.87 101.647 379.154 101.334 379.36 100.942C379.574 100.541 379.682 100.093 379.682 99.598C379.682 99.094 379.574 98.646 379.36 98.254C379.154 97.862 378.87 97.554 378.506 97.33C378.151 97.0967 377.745 96.98 377.288 96.98C376.886 96.98 376.513 97.064 376.168 97.232C375.832 97.3907 375.556 97.6193 375.342 97.918V101.264C375.566 101.563 375.846 101.796 376.182 101.964C376.527 102.132 376.896 102.216 377.288 102.216ZM382.482 103V92.892L383.504 92.682V103H382.482ZM385.585 103V96.168H386.607V103H385.585ZM386.103 94.474C385.897 94.474 385.72 94.404 385.571 94.264C385.431 94.1147 385.361 93.942 385.361 93.746C385.361 93.55 385.431 93.382 385.571 93.242C385.72 93.0927 385.897 93.018 386.103 93.018C386.308 93.018 386.481 93.0927 386.621 93.242C386.77 93.382 386.845 93.55 386.845 93.746C386.845 93.942 386.77 94.1147 386.621 94.264C386.481 94.404 386.308 94.474 386.103 94.474ZM391.782 103.14C391.148 103.14 390.574 102.986 390.06 102.678C389.547 102.361 389.141 101.936 388.842 101.404C388.544 100.863 388.394 100.256 388.394 99.584C388.394 98.912 388.534 98.31 388.814 97.778C389.104 97.246 389.491 96.826 389.976 96.518C390.462 96.21 391.003 96.056 391.6 96.056C392.207 96.056 392.744 96.21 393.21 96.518C393.686 96.8167 394.06 97.2273 394.33 97.75C394.61 98.2633 394.75 98.8467 394.75 99.5V99.808H389.388C389.426 100.275 389.552 100.695 389.766 101.068C389.99 101.432 390.28 101.721 390.634 101.936C390.998 102.141 391.395 102.244 391.824 102.244C392.179 102.244 392.52 102.183 392.846 102.062C393.182 101.931 393.467 101.759 393.7 101.544L394.344 102.23C393.952 102.538 393.546 102.767 393.126 102.916C392.706 103.065 392.258 103.14 391.782 103.14ZM389.416 99.08H393.742C393.696 98.6693 393.57 98.3053 393.364 97.988C393.168 97.6613 392.916 97.4047 392.608 97.218C392.31 97.0313 391.974 96.938 391.6 96.938C391.227 96.938 390.886 97.0313 390.578 97.218C390.27 97.3953 390.014 97.6473 389.808 97.974C389.612 98.2913 389.482 98.66 389.416 99.08ZM399.337 103.098C398.749 103.098 398.217 102.944 397.741 102.636C397.265 102.319 396.887 101.899 396.607 101.376C396.327 100.844 396.187 100.251 396.187 99.598C396.187 98.9353 396.327 98.3427 396.607 97.82C396.897 97.288 397.284 96.868 397.769 96.56C398.255 96.2427 398.796 96.084 399.393 96.084C399.813 96.084 400.205 96.168 400.569 96.336C400.933 96.4947 401.251 96.728 401.521 97.036V92.892L402.543 92.682V103H401.521V102.09C401.26 102.417 400.943 102.669 400.569 102.846C400.196 103.014 399.785 103.098 399.337 103.098ZM399.589 102.202C399.991 102.202 400.359 102.123 400.695 101.964C401.031 101.805 401.307 101.581 401.521 101.292V97.904C401.297 97.6147 401.013 97.3907 400.667 97.232C400.331 97.064 399.972 96.98 399.589 96.98C399.132 96.98 398.721 97.092 398.357 97.316C398.003 97.54 397.718 97.848 397.503 98.24C397.298 98.632 397.195 99.08 397.195 99.584C397.195 100.079 397.298 100.527 397.503 100.928C397.718 101.32 398.003 101.633 398.357 101.866C398.721 102.09 399.132 102.202 399.589 102.202Z" fill="black"/>
<path d="M425.768 103.154C425.068 103.154 424.415 103.028 423.808 102.776C423.211 102.515 422.683 102.155 422.226 101.698C421.769 101.231 421.414 100.695 421.162 100.088C420.91 99.472 420.784 98.8093 420.784 98.1C420.784 97.3907 420.91 96.7327 421.162 96.126C421.414 95.51 421.769 94.9733 422.226 94.516C422.683 94.0493 423.211 93.69 423.808 93.438C424.415 93.1767 425.068 93.046 425.768 93.046C426.253 93.046 426.715 93.1113 427.154 93.242C427.602 93.3633 428.022 93.5453 428.414 93.788C428.806 94.0213 429.156 94.3107 429.464 94.656L428.75 95.398C428.386 94.9593 427.938 94.6233 427.406 94.39C426.883 94.1473 426.337 94.026 425.768 94.026C425.217 94.026 424.704 94.1287 424.228 94.334C423.752 94.5393 423.337 94.8287 422.982 95.202C422.637 95.5753 422.366 96.0093 422.17 96.504C421.974 96.9893 421.876 97.5213 421.876 98.1C421.876 98.6693 421.974 99.2013 422.17 99.696C422.366 100.191 422.637 100.625 422.982 100.998C423.337 101.371 423.752 101.661 424.228 101.866C424.704 102.071 425.217 102.174 425.768 102.174C426.337 102.174 426.883 102.053 427.406 101.81C427.938 101.567 428.386 101.231 428.75 100.802L429.464 101.544C429.156 101.889 428.806 102.183 428.414 102.426C428.022 102.659 427.602 102.841 427.154 102.972C426.715 103.093 426.253 103.154 425.768 103.154ZM431.208 103V92.892L432.23 92.682V103H431.208ZM437.405 103.14C436.771 103.14 436.197 102.986 435.683 102.678C435.17 102.361 434.764 101.936 434.465 101.404C434.167 100.863 434.017 100.256 434.017 99.584C434.017 98.912 434.157 98.31 434.437 97.778C434.727 97.246 435.114 96.826 435.599 96.518C436.085 96.21 436.626 96.056 437.223 96.056C437.83 96.056 438.367 96.21 438.833 96.518C439.309 96.8167 439.683 97.2273 439.953 97.75C440.233 98.2633 440.373 98.8467 440.373 99.5V99.808H435.011C435.049 100.275 435.175 100.695 435.389 101.068C435.613 101.432 435.903 101.721 436.257 101.936C436.621 102.141 437.018 102.244 437.447 102.244C437.802 102.244 438.143 102.183 438.469 102.062C438.805 101.931 439.09 101.759 439.323 101.544L439.967 102.23C439.575 102.538 439.169 102.767 438.749 102.916C438.329 103.065 437.881 103.14 437.405 103.14ZM435.039 99.08H439.365C439.319 98.6693 439.193 98.3053 438.987 97.988C438.791 97.6613 438.539 97.4047 438.231 97.218C437.933 97.0313 437.597 96.938 437.223 96.938C436.85 96.938 436.509 97.0313 436.201 97.218C435.893 97.3953 435.637 97.6473 435.431 97.974C435.235 98.2913 435.105 98.66 435.039 99.08ZM444.096 103.126C443.61 103.126 443.181 103.037 442.808 102.86C442.434 102.683 442.14 102.44 441.926 102.132C441.72 101.815 441.618 101.451 441.618 101.04C441.618 100.629 441.725 100.275 441.94 99.976C442.154 99.668 442.453 99.43 442.836 99.262C443.218 99.094 443.666 99.01 444.18 99.01C444.572 99.01 444.94 99.052 445.286 99.136C445.64 99.22 445.967 99.3553 446.266 99.542V98.604C446.266 98.044 446.116 97.624 445.818 97.344C445.519 97.0547 445.08 96.91 444.502 96.91C444.184 96.91 443.858 96.9567 443.522 97.05C443.195 97.1433 442.831 97.2927 442.43 97.498L442.052 96.714C442.966 96.2753 443.825 96.056 444.628 96.056C445.477 96.056 446.13 96.266 446.588 96.686C447.045 97.0967 447.274 97.6893 447.274 98.464V103H446.266V102.202C445.967 102.51 445.636 102.743 445.272 102.902C444.908 103.051 444.516 103.126 444.096 103.126ZM442.598 101.012C442.598 101.413 442.752 101.735 443.06 101.978C443.377 102.221 443.792 102.342 444.306 102.342C444.688 102.342 445.038 102.277 445.356 102.146C445.682 102.015 445.986 101.819 446.266 101.558V100.242C445.976 100.074 445.678 99.9527 445.37 99.878C445.062 99.794 444.716 99.752 444.334 99.752C443.811 99.752 443.391 99.8687 443.074 100.102C442.756 100.326 442.598 100.629 442.598 101.012ZM449.351 103V96.168H450.373V97.568C450.55 97.092 450.802 96.7233 451.129 96.462C451.465 96.1913 451.847 96.056 452.277 96.056C452.398 96.056 452.51 96.0653 452.613 96.084C452.715 96.0933 452.818 96.1167 452.921 96.154V97.078C452.809 97.0407 452.687 97.0127 452.557 96.994C452.435 96.966 452.319 96.952 452.207 96.952C451.787 96.952 451.418 97.0733 451.101 97.316C450.793 97.5587 450.55 97.8993 450.373 98.338V103H449.351ZM458.408 103V97.008H456.882V96.168H458.408V94.74C458.408 94.068 458.586 93.55 458.94 93.186C459.295 92.822 459.799 92.64 460.452 92.64C460.639 92.64 460.807 92.6493 460.956 92.668C461.115 92.6867 461.255 92.7193 461.376 92.766V93.69C461.227 93.6433 461.092 93.6107 460.97 93.592C460.849 93.5733 460.709 93.564 460.55 93.564C460.158 93.564 459.874 93.662 459.696 93.858C459.519 94.0447 459.43 94.3433 459.43 94.754V96.168H461.376V97.008H459.43V103H458.408ZM462.708 103V96.168H463.73V103H462.708ZM463.226 94.474C463.021 94.474 462.843 94.404 462.694 94.264C462.554 94.1147 462.484 93.942 462.484 93.746C462.484 93.55 462.554 93.382 462.694 93.242C462.843 93.0927 463.021 93.018 463.226 93.018C463.431 93.018 463.604 93.0927 463.744 93.242C463.893 93.382 463.968 93.55 463.968 93.746C463.968 93.942 463.893 94.1147 463.744 94.264C463.604 94.404 463.431 94.474 463.226 94.474ZM465.825 103V92.892L466.847 92.682V103H465.825ZM471.547 103.14C470.959 103.14 470.511 103 470.203 102.72C469.904 102.431 469.755 102.015 469.755 101.474V97.008H468.341V96.168H469.755V94.292L470.777 94.054V96.168H472.737V97.008H470.777V101.208C470.777 101.572 470.851 101.833 471.001 101.992C471.159 102.151 471.416 102.23 471.771 102.23C471.948 102.23 472.107 102.216 472.247 102.188C472.387 102.16 472.55 102.113 472.737 102.048V102.958C472.55 103.023 472.354 103.07 472.149 103.098C471.943 103.126 471.743 103.14 471.547 103.14ZM477.177 103.14C476.542 103.14 475.968 102.986 475.455 102.678C474.942 102.361 474.536 101.936 474.237 101.404C473.938 100.863 473.789 100.256 473.789 99.584C473.789 98.912 473.929 98.31 474.209 97.778C474.498 97.246 474.886 96.826 475.371 96.518C475.856 96.21 476.398 96.056 476.995 96.056C477.602 96.056 478.138 96.21 478.605 96.518C479.081 96.8167 479.454 97.2273 479.725 97.75C480.005 98.2633 480.145 98.8467 480.145 99.5V99.808H474.783C474.82 100.275 474.946 100.695 475.161 101.068C475.385 101.432 475.674 101.721 476.029 101.936C476.393 102.141 476.79 102.244 477.219 102.244C477.574 102.244 477.914 102.183 478.241 102.062C478.577 101.931 478.862 101.759 479.095 101.544L479.739 102.23C479.347 102.538 478.941 102.767 478.521 102.916C478.101 103.065 477.653 103.14 477.177 103.14ZM474.811 99.08H479.137C479.09 98.6693 478.964 98.3053 478.759 97.988C478.563 97.6613 478.311 97.4047 478.003 97.218C477.704 97.0313 477.368 96.938 476.995 96.938C476.622 96.938 476.281 97.0313 475.973 97.218C475.665 97.3953 475.408 97.6473 475.203 97.974C475.007 98.2913 474.876 98.66 474.811 99.08ZM481.89 103V96.168H482.912V97.568C483.089 97.092 483.341 96.7233 483.668 96.462C484.004 96.1913 484.387 96.056 484.816 96.056C484.937 96.056 485.049 96.0653 485.152 96.084C485.255 96.0933 485.357 96.1167 485.46 96.154V97.078C485.348 97.0407 485.227 97.0127 485.096 96.994C484.975 96.966 484.858 96.952 484.746 96.952C484.326 96.952 483.957 97.0733 483.64 97.316C483.332 97.5587 483.089 97.8993 482.912 98.338V103H481.89ZM488.857 103.14C488.297 103.14 487.779 103.056 487.303 102.888C486.827 102.711 486.421 102.459 486.085 102.132L486.631 101.46C487.042 101.759 487.42 101.978 487.765 102.118C488.111 102.249 488.465 102.314 488.829 102.314C489.324 102.314 489.735 102.197 490.061 101.964C490.388 101.731 490.551 101.432 490.551 101.068C490.551 100.788 490.453 100.569 490.257 100.41C490.071 100.251 489.758 100.13 489.319 100.046L488.199 99.85C487.537 99.7287 487.047 99.5233 486.729 99.234C486.421 98.9447 486.267 98.5527 486.267 98.058C486.267 97.666 486.37 97.3207 486.575 97.022C486.79 96.7233 487.084 96.49 487.457 96.322C487.831 96.1447 488.255 96.056 488.731 96.056C489.198 96.056 489.641 96.126 490.061 96.266C490.481 96.3967 490.906 96.6113 491.335 96.91L490.831 97.624C490.477 97.372 490.122 97.19 489.767 97.078C489.413 96.9567 489.053 96.896 488.689 96.896C488.241 96.896 487.882 96.994 487.611 97.19C487.341 97.386 487.205 97.652 487.205 97.988C487.205 98.268 487.289 98.4827 487.457 98.632C487.635 98.7813 487.943 98.8933 488.381 98.968L489.529 99.178C490.22 99.2993 490.724 99.5093 491.041 99.808C491.359 100.107 491.517 100.508 491.517 101.012C491.517 101.413 491.401 101.777 491.167 102.104C490.934 102.421 490.617 102.673 490.215 102.86C489.814 103.047 489.361 103.14 488.857 103.14Z" fill="#0066CC"/>
<g filter="url(#filter0_d_126_68093)">
<path d="M27 70C27 66.6863 29.6863 64 33 64H260C263.314 64 266 66.6863 266 70V222C266 225.314 263.314 228 260 228H33C29.6863 228 27 225.314 27 222V70Z" fill="white"/>
<mask id="path-27-inside-3_126_68093" fill="white">
<path d="M51 86.5C51 84.2909 52.7909 82.5 55 82.5H63C65.2091 82.5 67 84.2909 67 86.5V94.5C67 96.7091 65.2091 98.5 63 98.5H55C52.7909 98.5 51 96.7091 51 94.5V86.5Z"/>
</mask>
<path d="M51 86.5C51 84.2909 52.7909 82.5 55 82.5H63C65.2091 82.5 67 84.2909 67 86.5V94.5C67 96.7091 65.2091 98.5 63 98.5H55C52.7909 98.5 51 96.7091 51 94.5V86.5Z" fill="white"/>
<path d="M55 83.5H63V81.5H55V83.5ZM66 86.5V94.5H68V86.5H66ZM63 97.5H55V99.5H63V97.5ZM52 94.5V86.5H50V94.5H52ZM55 97.5C53.3431 97.5 52 96.1569 52 94.5H50C50 97.2614 52.2386 99.5 55 99.5V97.5ZM66 94.5C66 96.1569 64.6569 97.5 63 97.5V99.5C65.7614 99.5 68 97.2614 68 94.5H66ZM63 83.5C64.6569 83.5 66 84.8431 66 86.5H68C68 83.7386 65.7614 81.5 63 81.5V83.5ZM55 81.5C52.2386 81.5 50 83.7386 50 86.5H52C52 84.8431 53.3431 83.5 55 83.5V81.5Z" fill="#C7C7C7" mask="url(#path-27-inside-3_126_68093)"/>
<path d="M80.67 95.154C79.9887 95.154 79.354 95.028 78.766 94.776C78.178 94.5147 77.66 94.1553 77.212 93.698C76.7733 93.2313 76.428 92.6947 76.176 92.088C75.924 91.472 75.798 90.8093 75.798 90.1C75.798 89.3907 75.924 88.7327 76.176 88.126C76.428 87.51 76.7733 86.9733 77.212 86.516C77.66 86.0493 78.178 85.69 78.766 85.438C79.354 85.1767 79.9887 85.046 80.67 85.046C81.3513 85.046 81.986 85.1767 82.574 85.438C83.162 85.69 83.6753 86.0493 84.114 86.516C84.562 86.9733 84.912 87.51 85.164 88.126C85.416 88.7327 85.542 89.3907 85.542 90.1C85.542 90.8093 85.416 91.472 85.164 92.088C84.912 92.6947 84.562 93.2313 84.114 93.698C83.6753 94.1553 83.162 94.5147 82.574 94.776C81.986 95.028 81.3513 95.154 80.67 95.154ZM80.67 94.174C81.202 94.174 81.6967 94.0713 82.154 93.866C82.6113 93.6607 83.0127 93.3713 83.358 92.998C83.7033 92.6247 83.9693 92.1907 84.156 91.696C84.352 91.2013 84.45 90.6693 84.45 90.1C84.45 89.5213 84.352 88.9893 84.156 88.504C83.9693 88.0093 83.7033 87.5753 83.358 87.202C83.0127 86.8287 82.6113 86.5393 82.154 86.334C81.6967 86.1287 81.202 86.026 80.67 86.026C80.138 86.026 79.6433 86.1287 79.186 86.334C78.7287 86.5393 78.3273 86.8287 77.982 87.202C77.6367 87.5753 77.366 88.0093 77.17 88.504C76.9833 88.9893 76.89 89.5167 76.89 90.086C76.89 90.6647 76.9833 91.2013 77.17 91.696C77.366 92.1907 77.6367 92.6247 77.982 92.998C78.3273 93.3713 78.7287 93.6607 79.186 93.866C79.6433 94.0713 80.138 94.174 80.67 94.174ZM87.384 97.926V88.168H88.392V89.148C88.6533 88.8027 88.9707 88.5413 89.344 88.364C89.7267 88.1773 90.1467 88.084 90.604 88.084C91.2013 88.084 91.7333 88.2427 92.2 88.56C92.676 88.868 93.054 89.288 93.334 89.82C93.614 90.3427 93.754 90.9307 93.754 91.584C93.754 92.2373 93.6093 92.83 93.32 93.362C93.04 93.894 92.6573 94.3187 92.172 94.636C91.696 94.944 91.1547 95.098 90.548 95.098C90.1187 95.098 89.722 95.0187 89.358 94.86C88.994 94.692 88.6767 94.454 88.406 94.146V97.926H87.384ZM90.352 94.216C90.8093 94.216 91.2153 94.104 91.57 93.88C91.934 93.6467 92.2187 93.334 92.424 92.942C92.6387 92.5407 92.746 92.0927 92.746 91.598C92.746 91.094 92.6387 90.646 92.424 90.254C92.2187 89.862 91.934 89.554 91.57 89.33C91.2153 89.0967 90.8093 88.98 90.352 88.98C89.9507 88.98 89.5773 89.064 89.232 89.232C88.896 89.3907 88.6207 89.6193 88.406 89.918V93.264C88.63 93.5627 88.91 93.796 89.246 93.964C89.5913 94.132 89.96 94.216 90.352 94.216ZM97.7263 95.14C97.1383 95.14 96.6903 95 96.3823 94.72C96.0836 94.4307 95.9343 94.0153 95.9343 93.474V89.008H94.5203V88.168H95.9343V86.292L96.9563 86.054V88.168H98.9163V89.008H96.9563V93.208C96.9563 93.572 97.0309 93.8333 97.1803 93.992C97.3389 94.1507 97.5956 94.23 97.9503 94.23C98.1276 94.23 98.2863 94.216 98.4263 94.188C98.5663 94.16 98.7296 94.1133 98.9163 94.048V94.958C98.7296 95.0233 98.5336 95.07 98.3283 95.098C98.1229 95.126 97.9223 95.14 97.7263 95.14ZM100.399 95V88.168H101.421V95H100.399ZM100.917 86.474C100.712 86.474 100.535 86.404 100.385 86.264C100.245 86.1147 100.175 85.942 100.175 85.746C100.175 85.55 100.245 85.382 100.385 85.242C100.535 85.0927 100.712 85.018 100.917 85.018C101.123 85.018 101.295 85.0927 101.435 85.242C101.585 85.382 101.659 85.55 101.659 85.746C101.659 85.942 101.585 86.1147 101.435 86.264C101.295 86.404 101.123 86.474 100.917 86.474ZM106.541 95.112C105.906 95.112 105.337 94.958 104.833 94.65C104.329 94.342 103.932 93.922 103.643 93.39C103.353 92.858 103.209 92.256 103.209 91.584C103.209 90.912 103.353 90.31 103.643 89.778C103.932 89.246 104.329 88.826 104.833 88.518C105.337 88.21 105.906 88.056 106.541 88.056C107.166 88.056 107.726 88.21 108.221 88.518C108.725 88.826 109.121 89.246 109.411 89.778C109.7 90.31 109.845 90.912 109.845 91.584C109.845 92.256 109.7 92.858 109.411 93.39C109.121 93.922 108.725 94.342 108.221 94.65C107.726 94.958 107.166 95.112 106.541 95.112ZM106.527 94.216C106.975 94.216 107.371 94.104 107.717 93.88C108.062 93.6467 108.333 93.3293 108.529 92.928C108.734 92.5267 108.837 92.0787 108.837 91.584C108.837 91.08 108.734 90.632 108.529 90.24C108.333 89.8387 108.062 89.526 107.717 89.302C107.371 89.0687 106.975 88.952 106.527 88.952C106.079 88.952 105.682 89.0687 105.337 89.302C104.991 89.526 104.716 89.8387 104.511 90.24C104.315 90.632 104.217 91.08 104.217 91.584C104.217 92.0787 104.315 92.5267 104.511 92.928C104.716 93.3293 104.991 93.6467 105.337 93.88C105.682 94.104 106.079 94.216 106.527 94.216ZM111.638 95V88.168H112.66V89.274C112.921 88.8633 113.234 88.56 113.598 88.364C113.962 88.1587 114.373 88.056 114.83 88.056C115.325 88.056 115.754 88.1633 116.118 88.378C116.491 88.5833 116.781 88.8773 116.986 89.26C117.201 89.6333 117.308 90.072 117.308 90.576V95H116.286V90.87C116.286 90.2633 116.118 89.7873 115.782 89.442C115.455 89.0873 115.012 88.91 114.452 88.91C114.079 88.91 113.738 88.9987 113.43 89.176C113.122 89.3533 112.865 89.6147 112.66 89.96V95H111.638ZM123.722 95V86.292L122.154 86.992V86.068L124.1 85.2H124.73V95H123.722Z" fill="#1F1F1F"/>
<path d="M51 123.5C51 121.291 52.7909 119.5 55 119.5H63C65.2091 119.5 67 121.291 67 123.5V131.5C67 133.709 65.2091 135.5 63 135.5H55C52.7909 135.5 51 133.709 51 131.5V123.5Z" fill="#0066CC"/>
<path fill-rule="evenodd" clip-rule="evenodd" d="M57.9242 131.773L64.8242 124.873C65.0585 124.638 65.0585 124.259 64.8242 124.024L63.9757 123.176C63.7414 122.941 63.3615 122.941 63.1272 123.176L57.5 128.803L54.8728 126.176C54.6385 125.941 54.2585 125.941 54.0242 126.176L53.1757 127.024C52.9414 127.259 52.9414 127.638 53.1757 127.873L57.0757 131.773C57.31 132.007 57.6899 132.007 57.9242 131.773Z" fill="white"/>
<path d="M80.67 132.154C79.9887 132.154 79.354 132.028 78.766 131.776C78.178 131.515 77.66 131.155 77.212 130.698C76.7733 130.231 76.428 129.695 76.176 129.088C75.924 128.472 75.798 127.809 75.798 127.1C75.798 126.391 75.924 125.733 76.176 125.126C76.428 124.51 76.7733 123.973 77.212 123.516C77.66 123.049 78.178 122.69 78.766 122.438C79.354 122.177 79.9887 122.046 80.67 122.046C81.3513 122.046 81.986 122.177 82.574 122.438C83.162 122.69 83.6753 123.049 84.114 123.516C84.562 123.973 84.912 124.51 85.164 125.126C85.416 125.733 85.542 126.391 85.542 127.1C85.542 127.809 85.416 128.472 85.164 129.088C84.912 129.695 84.562 130.231 84.114 130.698C83.6753 131.155 83.162 131.515 82.574 131.776C81.986 132.028 81.3513 132.154 80.67 132.154ZM80.67 131.174C81.202 131.174 81.6967 131.071 82.154 130.866C82.6113 130.661 83.0127 130.371 83.358 129.998C83.7033 129.625 83.9693 129.191 84.156 128.696C84.352 128.201 84.45 127.669 84.45 127.1C84.45 126.521 84.352 125.989 84.156 125.504C83.9693 125.009 83.7033 124.575 83.358 124.202C83.0127 123.829 82.6113 123.539 82.154 123.334C81.6967 123.129 81.202 123.026 80.67 123.026C80.138 123.026 79.6433 123.129 79.186 123.334C78.7287 123.539 78.3273 123.829 77.982 124.202C77.6367 124.575 77.366 125.009 77.17 125.504C76.9833 125.989 76.89 126.517 76.89 127.086C76.89 127.665 76.9833 128.201 77.17 128.696C77.366 129.191 77.6367 129.625 77.982 129.998C78.3273 130.371 78.7287 130.661 79.186 130.866C79.6433 131.071 80.138 131.174 80.67 131.174ZM87.384 134.926V125.168H88.392V126.148C88.6533 125.803 88.9707 125.541 89.344 125.364C89.7267 125.177 90.1467 125.084 90.604 125.084C91.2013 125.084 91.7333 125.243 92.2 125.56C92.676 125.868 93.054 126.288 93.334 126.82C93.614 127.343 93.754 127.931 93.754 128.584C93.754 129.237 93.6093 129.83 93.32 130.362C93.04 130.894 92.6573 131.319 92.172 131.636C91.696 131.944 91.1547 132.098 90.548 132.098C90.1187 132.098 89.722 132.019 89.358 131.86C88.994 131.692 88.6767 131.454 88.406 131.146V134.926H87.384ZM90.352 131.216C90.8093 131.216 91.2153 131.104 91.57 130.88C91.934 130.647 92.2187 130.334 92.424 129.942C92.6387 129.541 92.746 129.093 92.746 128.598C92.746 128.094 92.6387 127.646 92.424 127.254C92.2187 126.862 91.934 126.554 91.57 126.33C91.2153 126.097 90.8093 125.98 90.352 125.98C89.9507 125.98 89.5773 126.064 89.232 126.232C88.896 126.391 88.6207 126.619 88.406 126.918V130.264C88.63 130.563 88.91 130.796 89.246 130.964C89.5913 131.132 89.96 131.216 90.352 131.216ZM97.7263 132.14C97.1383 132.14 96.6903 132 96.3823 131.72C96.0836 131.431 95.9343 131.015 95.9343 130.474V126.008H94.5203V125.168H95.9343V123.292L96.9563 123.054V125.168H98.9163V126.008H96.9563V130.208C96.9563 130.572 97.0309 130.833 97.1803 130.992C97.3389 131.151 97.5956 131.23 97.9503 131.23C98.1276 131.23 98.2863 131.216 98.4263 131.188C98.5663 131.16 98.7296 131.113 98.9163 131.048V131.958C98.7296 132.023 98.5336 132.07 98.3283 132.098C98.1229 132.126 97.9223 132.14 97.7263 132.14ZM100.399 132V125.168H101.421V132H100.399ZM100.917 123.474C100.712 123.474 100.535 123.404 100.385 123.264C100.245 123.115 100.175 122.942 100.175 122.746C100.175 122.55 100.245 122.382 100.385 122.242C100.535 122.093 100.712 122.018 100.917 122.018C101.123 122.018 101.295 122.093 101.435 122.242C101.585 122.382 101.659 122.55 101.659 122.746C101.659 122.942 101.585 123.115 101.435 123.264C101.295 123.404 101.123 123.474 100.917 123.474ZM106.541 132.112C105.906 132.112 105.337 131.958 104.833 131.65C104.329 131.342 103.932 130.922 103.643 130.39C103.353 129.858 103.209 129.256 103.209 128.584C103.209 127.912 103.353 127.31 103.643 126.778C103.932 126.246 104.329 125.826 104.833 125.518C105.337 125.21 105.906 125.056 106.541 125.056C107.166 125.056 107.726 125.21 108.221 125.518C108.725 125.826 109.121 126.246 109.411 126.778C109.7 127.31 109.845 127.912 109.845 128.584C109.845 129.256 109.7 129.858 109.411 130.39C109.121 130.922 108.725 131.342 108.221 131.65C107.726 131.958 107.166 132.112 106.541 132.112ZM106.527 131.216C106.975 131.216 107.371 131.104 107.717 130.88C108.062 130.647 108.333 130.329 108.529 129.928C108.734 129.527 108.837 129.079 108.837 128.584C108.837 128.08 108.734 127.632 108.529 127.24C108.333 126.839 108.062 126.526 107.717 126.302C107.371 126.069 106.975 125.952 106.527 125.952C106.079 125.952 105.682 126.069 105.337 126.302C104.991 126.526 104.716 126.839 104.511 127.24C104.315 127.632 104.217 128.08 104.217 128.584C104.217 129.079 104.315 129.527 104.511 129.928C104.716 130.329 104.991 130.647 105.337 130.88C105.682 131.104 106.079 131.216 106.527 131.216ZM111.638 132V125.168H112.66V126.274C112.921 125.863 113.234 125.56 113.598 125.364C113.962 125.159 114.373 125.056 114.83 125.056C115.325 125.056 115.754 125.163 116.118 125.378C116.491 125.583 116.781 125.877 116.986 126.26C117.201 126.633 117.308 127.072 117.308 127.576V132H116.286V127.87C116.286 127.263 116.118 126.787 115.782 126.442C115.455 126.087 115.012 125.91 114.452 125.91C114.079 125.91 113.738 125.999 113.43 126.176C113.122 126.353 112.865 126.615 112.66 126.96V132H111.638ZM122.294 132V131.258L126.214 126.974C126.522 126.638 126.76 126.344 126.928 126.092C127.105 125.831 127.227 125.588 127.292 125.364C127.367 125.14 127.404 124.902 127.404 124.65C127.404 124.155 127.208 123.749 126.816 123.432C126.433 123.105 125.943 122.942 125.346 122.942C124.889 122.942 124.464 123.031 124.072 123.208C123.68 123.385 123.241 123.693 122.756 124.132L122.168 123.432C122.681 122.965 123.199 122.62 123.722 122.396C124.245 122.163 124.791 122.046 125.36 122.046C125.948 122.046 126.471 122.158 126.928 122.382C127.385 122.597 127.745 122.895 128.006 123.278C128.267 123.661 128.398 124.099 128.398 124.594C128.398 124.921 128.356 125.224 128.272 125.504C128.188 125.775 128.039 126.069 127.824 126.386C127.609 126.694 127.301 127.067 126.9 127.506L123.554 131.132L128.608 131.118V132H122.294Z" fill="#1F1F1F"/>
<path d="M51 160.5C51 158.291 52.7909 156.5 55 156.5H63C65.2091 156.5 67 158.291 67 160.5V168.5C67 170.709 65.2091 172.5 63 172.5H55C52.7909 172.5 51 170.709 51 168.5V160.5Z" fill="#0066CC"/>
<path fill-rule="evenodd" clip-rule="evenodd" d="M57.9242 168.773L64.8242 161.873C65.0585 161.638 65.0585 161.259 64.8242 161.024L63.9757 160.176C63.7414 159.941 63.3615 159.941 63.1272 160.176L57.5 165.803L54.8728 163.176C54.6385 162.941 54.2585 162.941 54.0242 163.176L53.1757 164.024C52.9414 164.259 52.9414 164.638 53.1757 164.873L57.0757 168.773C57.31 169.007 57.6899 169.007 57.9242 168.773Z" fill="white"/>
<path d="M80.67 169.154C79.9887 169.154 79.354 169.028 78.766 168.776C78.178 168.515 77.66 168.155 77.212 167.698C76.7733 167.231 76.428 166.695 76.176 166.088C75.924 165.472 75.798 164.809 75.798 164.1C75.798 163.391 75.924 162.733 76.176 162.126C76.428 161.51 76.7733 160.973 77.212 160.516C77.66 160.049 78.178 159.69 78.766 159.438C79.354 159.177 79.9887 159.046 80.67 159.046C81.3513 159.046 81.986 159.177 82.574 159.438C83.162 159.69 83.6753 160.049 84.114 160.516C84.562 160.973 84.912 161.51 85.164 162.126C85.416 162.733 85.542 163.391 85.542 164.1C85.542 164.809 85.416 165.472 85.164 166.088C84.912 166.695 84.562 167.231 84.114 167.698C83.6753 168.155 83.162 168.515 82.574 168.776C81.986 169.028 81.3513 169.154 80.67 169.154ZM80.67 168.174C81.202 168.174 81.6967 168.071 82.154 167.866C82.6113 167.661 83.0127 167.371 83.358 166.998C83.7033 166.625 83.9693 166.191 84.156 165.696C84.352 165.201 84.45 164.669 84.45 164.1C84.45 163.521 84.352 162.989 84.156 162.504C83.9693 162.009 83.7033 161.575 83.358 161.202C83.0127 160.829 82.6113 160.539 82.154 160.334C81.6967 160.129 81.202 160.026 80.67 160.026C80.138 160.026 79.6433 160.129 79.186 160.334C78.7287 160.539 78.3273 160.829 77.982 161.202C77.6367 161.575 77.366 162.009 77.17 162.504C76.9833 162.989 76.89 163.517 76.89 164.086C76.89 164.665 76.9833 165.201 77.17 165.696C77.366 166.191 77.6367 166.625 77.982 166.998C78.3273 167.371 78.7287 167.661 79.186 167.866C79.6433 168.071 80.138 168.174 80.67 168.174ZM87.384 171.926V162.168H88.392V163.148C88.6533 162.803 88.9707 162.541 89.344 162.364C89.7267 162.177 90.1467 162.084 90.604 162.084C91.2013 162.084 91.7333 162.243 92.2 162.56C92.676 162.868 93.054 163.288 93.334 163.82C93.614 164.343 93.754 164.931 93.754 165.584C93.754 166.237 93.6093 166.83 93.32 167.362C93.04 167.894 92.6573 168.319 92.172 168.636C91.696 168.944 91.1547 169.098 90.548 169.098C90.1187 169.098 89.722 169.019 89.358 168.86C88.994 168.692 88.6767 168.454 88.406 168.146V171.926H87.384ZM90.352 168.216C90.8093 168.216 91.2153 168.104 91.57 167.88C91.934 167.647 92.2187 167.334 92.424 166.942C92.6387 166.541 92.746 166.093 92.746 165.598C92.746 165.094 92.6387 164.646 92.424 164.254C92.2187 163.862 91.934 163.554 91.57 163.33C91.2153 163.097 90.8093 162.98 90.352 162.98C89.9507 162.98 89.5773 163.064 89.232 163.232C88.896 163.391 88.6207 163.619 88.406 163.918V167.264C88.63 167.563 88.91 167.796 89.246 167.964C89.5913 168.132 89.96 168.216 90.352 168.216ZM97.7263 169.14C97.1383 169.14 96.6903 169 96.3823 168.72C96.0836 168.431 95.9343 168.015 95.9343 167.474V163.008H94.5203V162.168H95.9343V160.292L96.9563 160.054V162.168H98.9163V163.008H96.9563V167.208C96.9563 167.572 97.0309 167.833 97.1803 167.992C97.3389 168.151 97.5956 168.23 97.9503 168.23C98.1276 168.23 98.2863 168.216 98.4263 168.188C98.5663 168.16 98.7296 168.113 98.9163 168.048V168.958C98.7296 169.023 98.5336 169.07 98.3283 169.098C98.1229 169.126 97.9223 169.14 97.7263 169.14ZM100.399 169V162.168H101.421V169H100.399ZM100.917 160.474C100.712 160.474 100.535 160.404 100.385 160.264C100.245 160.115 100.175 159.942 100.175 159.746C100.175 159.55 100.245 159.382 100.385 159.242C100.535 159.093 100.712 159.018 100.917 159.018C101.123 159.018 101.295 159.093 101.435 159.242C101.585 159.382 101.659 159.55 101.659 159.746C101.659 159.942 101.585 160.115 101.435 160.264C101.295 160.404 101.123 160.474 100.917 160.474ZM106.541 169.112C105.906 169.112 105.337 168.958 104.833 168.65C104.329 168.342 103.932 167.922 103.643 167.39C103.353 166.858 103.209 166.256 103.209 165.584C103.209 164.912 103.353 164.31 103.643 163.778C103.932 163.246 104.329 162.826 104.833 162.518C105.337 162.21 105.906 162.056 106.541 162.056C107.166 162.056 107.726 162.21 108.221 162.518C108.725 162.826 109.121 163.246 109.411 163.778C109.7 164.31 109.845 164.912 109.845 165.584C109.845 166.256 109.7 166.858 109.411 167.39C109.121 167.922 108.725 168.342 108.221 168.65C107.726 168.958 107.166 169.112 106.541 169.112ZM106.527 168.216C106.975 168.216 107.371 168.104 107.717 167.88C108.062 167.647 108.333 167.329 108.529 166.928C108.734 166.527 108.837 166.079 108.837 165.584C108.837 165.08 108.734 164.632 108.529 164.24C108.333 163.839 108.062 163.526 107.717 163.302C107.371 163.069 106.975 162.952 106.527 162.952C106.079 162.952 105.682 163.069 105.337 163.302C104.991 163.526 104.716 163.839 104.511 164.24C104.315 164.632 104.217 165.08 104.217 165.584C104.217 166.079 104.315 166.527 104.511 166.928C104.716 167.329 104.991 167.647 105.337 167.88C105.682 168.104 106.079 168.216 106.527 168.216ZM111.638 169V162.168H112.66V163.274C112.921 162.863 113.234 162.56 113.598 162.364C113.962 162.159 114.373 162.056 114.83 162.056C115.325 162.056 115.754 162.163 116.118 162.378C116.491 162.583 116.781 162.877 116.986 163.26C117.201 163.633 117.308 164.072 117.308 164.576V169H116.286V164.87C116.286 164.263 116.118 163.787 115.782 163.442C115.455 163.087 115.012 162.91 114.452 162.91C114.079 162.91 113.738 162.999 113.43 163.176C113.122 163.353 112.865 163.615 112.66 163.96V169H111.638ZM125.528 169.154C124.856 169.154 124.226 169.037 123.638 168.804C123.059 168.571 122.546 168.225 122.098 167.768L122.77 167.11C123.181 167.521 123.601 167.819 124.03 168.006C124.469 168.183 124.963 168.272 125.514 168.272C125.99 168.272 126.41 168.188 126.774 168.02C127.147 167.852 127.437 167.619 127.642 167.32C127.847 167.021 127.95 166.681 127.95 166.298C127.95 165.934 127.857 165.612 127.67 165.332C127.493 165.043 127.245 164.819 126.928 164.66C126.611 164.501 126.247 164.422 125.836 164.422H124.674V163.554H125.794C126.326 163.554 126.755 163.391 127.082 163.064C127.418 162.737 127.586 162.313 127.586 161.79C127.586 161.445 127.493 161.132 127.306 160.852C127.119 160.572 126.863 160.353 126.536 160.194C126.219 160.026 125.859 159.942 125.458 159.942C124.954 159.942 124.501 160.035 124.1 160.222C123.708 160.399 123.307 160.703 122.896 161.132L122.224 160.46C122.663 159.993 123.157 159.643 123.708 159.41C124.259 159.167 124.847 159.046 125.472 159.046C126.069 159.046 126.601 159.163 127.068 159.396C127.544 159.629 127.917 159.951 128.188 160.362C128.459 160.763 128.594 161.221 128.594 161.734C128.594 162.247 128.426 162.709 128.09 163.12C127.754 163.521 127.311 163.801 126.76 163.96C127.423 164.109 127.955 164.399 128.356 164.828C128.757 165.257 128.958 165.757 128.958 166.326C128.958 166.867 128.809 167.353 128.51 167.782C128.221 168.211 127.815 168.547 127.292 168.79C126.779 169.033 126.191 169.154 125.528 169.154Z" fill="#1F1F1F"/>
<mask id="path-36-inside-4_126_68093" fill="white">
<path d="M51 197.5C51 195.291 52.7909 193.5 55 193.5H63C65.2091 193.5 67 195.291 67 197.5V205.5C67 207.709 65.2091 209.5 63 209.5H55C52.7909 209.5 51 207.709 51 205.5V197.5Z"/>
</mask>
<path d="M51 197.5C51 195.291 52.7909 193.5 55 193.5H63C65.2091 193.5 67 195.291 67 197.5V205.5C67 207.709 65.2091 209.5 63 209.5H55C52.7909 209.5 51 207.709 51 205.5V197.5Z" fill="white"/>
<path d="M55 194.5H63V192.5H55V194.5ZM66 197.5V205.5H68V197.5H66ZM63 208.5H55V210.5H63V208.5ZM52 205.5V197.5H50V205.5H52ZM55 208.5C53.3431 208.5 52 207.157 52 205.5H50C50 208.261 52.2386 210.5 55 210.5V208.5ZM66 205.5C66 207.157 64.6569 208.5 63 208.5V210.5C65.7614 210.5 68 208.261 68 205.5H66ZM63 194.5C64.6569 194.5 66 195.843 66 197.5H68C68 194.739 65.7614 192.5 63 192.5V194.5ZM55 192.5C52.2386 192.5 50 194.739 50 197.5H52C52 195.843 53.3431 194.5 55 194.5V192.5Z" fill="#C7C7C7" mask="url(#path-36-inside-4_126_68093)"/>
<path d="M80.67 206.154C79.9887 206.154 79.354 206.028 78.766 205.776C78.178 205.515 77.66 205.155 77.212 204.698C76.7733 204.231 76.428 203.695 76.176 203.088C75.924 202.472 75.798 201.809 75.798 201.1C75.798 200.391 75.924 199.733 76.176 199.126C76.428 198.51 76.7733 197.973 77.212 197.516C77.66 197.049 78.178 196.69 78.766 196.438C79.354 196.177 79.9887 196.046 80.67 196.046C81.3513 196.046 81.986 196.177 82.574 196.438C83.162 196.69 83.6753 197.049 84.114 197.516C84.562 197.973 84.912 198.51 85.164 199.126C85.416 199.733 85.542 200.391 85.542 201.1C85.542 201.809 85.416 202.472 85.164 203.088C84.912 203.695 84.562 204.231 84.114 204.698C83.6753 205.155 83.162 205.515 82.574 205.776C81.986 206.028 81.3513 206.154 80.67 206.154ZM80.67 205.174C81.202 205.174 81.6967 205.071 82.154 204.866C82.6113 204.661 83.0127 204.371 83.358 203.998C83.7033 203.625 83.9693 203.191 84.156 202.696C84.352 202.201 84.45 201.669 84.45 201.1C84.45 200.521 84.352 199.989 84.156 199.504C83.9693 199.009 83.7033 198.575 83.358 198.202C83.0127 197.829 82.6113 197.539 82.154 197.334C81.6967 197.129 81.202 197.026 80.67 197.026C80.138 197.026 79.6433 197.129 79.186 197.334C78.7287 197.539 78.3273 197.829 77.982 198.202C77.6367 198.575 77.366 199.009 77.17 199.504C76.9833 199.989 76.89 200.517 76.89 201.086C76.89 201.665 76.9833 202.201 77.17 202.696C77.366 203.191 77.6367 203.625 77.982 203.998C78.3273 204.371 78.7287 204.661 79.186 204.866C79.6433 205.071 80.138 205.174 80.67 205.174ZM87.384 208.926V199.168H88.392V200.148C88.6533 199.803 88.9707 199.541 89.344 199.364C89.7267 199.177 90.1467 199.084 90.604 199.084C91.2013 199.084 91.7333 199.243 92.2 199.56C92.676 199.868 93.054 200.288 93.334 200.82C93.614 201.343 93.754 201.931 93.754 202.584C93.754 203.237 93.6093 203.83 93.32 204.362C93.04 204.894 92.6573 205.319 92.172 205.636C91.696 205.944 91.1547 206.098 90.548 206.098C90.1187 206.098 89.722 206.019 89.358 205.86C88.994 205.692 88.6767 205.454 88.406 205.146V208.926H87.384ZM90.352 205.216C90.8093 205.216 91.2153 205.104 91.57 204.88C91.934 204.647 92.2187 204.334 92.424 203.942C92.6387 203.541 92.746 203.093 92.746 202.598C92.746 202.094 92.6387 201.646 92.424 201.254C92.2187 200.862 91.934 200.554 91.57 200.33C91.2153 200.097 90.8093 199.98 90.352 199.98C89.9507 199.98 89.5773 200.064 89.232 200.232C88.896 200.391 88.6207 200.619 88.406 200.918V204.264C88.63 204.563 88.91 204.796 89.246 204.964C89.5913 205.132 89.96 205.216 90.352 205.216ZM97.7263 206.14C97.1383 206.14 96.6903 206 96.3823 205.72C96.0836 205.431 95.9343 205.015 95.9343 204.474V200.008H94.5203V199.168H95.9343V197.292L96.9563 197.054V199.168H98.9163V200.008H96.9563V204.208C96.9563 204.572 97.0309 204.833 97.1803 204.992C97.3389 205.151 97.5956 205.23 97.9503 205.23C98.1276 205.23 98.2863 205.216 98.4263 205.188C98.5663 205.16 98.7296 205.113 98.9163 205.048V205.958C98.7296 206.023 98.5336 206.07 98.3283 206.098C98.1229 206.126 97.9223 206.14 97.7263 206.14ZM100.399 206V199.168H101.421V206H100.399ZM100.917 197.474C100.712 197.474 100.535 197.404 100.385 197.264C100.245 197.115 100.175 196.942 100.175 196.746C100.175 196.55 100.245 196.382 100.385 196.242C100.535 196.093 100.712 196.018 100.917 196.018C101.123 196.018 101.295 196.093 101.435 196.242C101.585 196.382 101.659 196.55 101.659 196.746C101.659 196.942 101.585 197.115 101.435 197.264C101.295 197.404 101.123 197.474 100.917 197.474ZM106.541 206.112C105.906 206.112 105.337 205.958 104.833 205.65C104.329 205.342 103.932 204.922 103.643 204.39C103.353 203.858 103.209 203.256 103.209 202.584C103.209 201.912 103.353 201.31 103.643 200.778C103.932 200.246 104.329 199.826 104.833 199.518C105.337 199.21 105.906 199.056 106.541 199.056C107.166 199.056 107.726 199.21 108.221 199.518C108.725 199.826 109.121 200.246 109.411 200.778C109.7 201.31 109.845 201.912 109.845 202.584C109.845 203.256 109.7 203.858 109.411 204.39C109.121 204.922 108.725 205.342 108.221 205.65C107.726 205.958 107.166 206.112 106.541 206.112ZM106.527 205.216C106.975 205.216 107.371 205.104 107.717 204.88C108.062 204.647 108.333 204.329 108.529 203.928C108.734 203.527 108.837 203.079 108.837 202.584C108.837 202.08 108.734 201.632 108.529 201.24C108.333 200.839 108.062 200.526 107.717 200.302C107.371 200.069 106.975 199.952 106.527 199.952C106.079 199.952 105.682 200.069 105.337 200.302C104.991 200.526 104.716 200.839 104.511 201.24C104.315 201.632 104.217 202.08 104.217 202.584C104.217 203.079 104.315 203.527 104.511 203.928C104.716 204.329 104.991 204.647 105.337 204.88C105.682 205.104 106.079 205.216 106.527 205.216ZM111.638 206V199.168H112.66V200.274C112.921 199.863 113.234 199.56 113.598 199.364C113.962 199.159 114.373 199.056 114.83 199.056C115.325 199.056 115.754 199.163 116.118 199.378C116.491 199.583 116.781 199.877 116.986 200.26C117.201 200.633 117.308 201.072 117.308 201.576V206H116.286V201.87C116.286 201.263 116.118 200.787 115.782 200.442C115.455 200.087 115.012 199.91 114.452 199.91C114.079 199.91 113.738 199.999 113.43 200.176C113.122 200.353 112.865 200.615 112.66 200.96V206H111.638ZM127.418 206V203.382H122.126V202.584L127.334 196.2H128.412V202.5H129.77V203.382H128.412V206H127.418ZM123.302 202.5H127.418V197.418L123.302 202.5Z" fill="#151515"/>
</g>
</g>
<defs>
<filter id="filter0_d_126_68093" x="18" y="59" width="257" height="182" filterUnits="userSpaceOnUse" color-interpolation-filters="sRGB">
<feFlood flood-opacity="0" result="BackgroundImageFix"/>
<feColorMatrix in="SourceAlpha" type="matrix" values="0 0 0 0 0 0 0 0 0 0 0 0 0 0 0 0 0 0 127 0" result="hardAlpha"/>
<feOffset dy="4"/>
<feGaussianBlur stdDeviation="4.5"/>
<feColorMatrix type="matrix" values="0 0 0 0 0.160784 0 0 0 0 0.160784 0 0 0 0 0.160784 0 0 0 0.15 0"/>
<feBlend mode="normal" in2="BackgroundImageFix" result="effect1_dropShadow_126_68093"/>
<feBlend mode="normal" in="SourceGraphic" in2="effect1_dropShadow_126_68093" result="shape"/>
</filter>
<clipPath id="clip0_126_68093">
<rect width="532" height="217" fill="white" transform="translate(0 17)"/>
</clipPath>
</defs>
</svg>
