<svg width="522" height="119" viewBox="0 0 522 119" fill="none" xmlns="http://www.w3.org/2000/svg">
<rect width="522" height="106" fill="white"/>
<mask id="path-1-inside-1_154_14376" fill="white">
<path d="M16 22C16 18.6863 18.6863 16 22 16H250C253.314 16 256 18.6863 256 22V47C256 50.3137 253.314 53 250 53H22C18.6863 53 16 50.3137 16 47V22Z"/>
</mask>
<path d="M16 22C16 18.6863 18.6863 16 22 16H250C253.314 16 256 18.6863 256 22V47C256 50.3137 253.314 53 250 53H22C18.6863 53 16 50.3137 16 47V22Z" fill="white"/>
<path d="M22 17H250V15H22V17ZM255 22V47H257V22H255ZM250 52H22V54H250V52ZM17 47V22H15V47H17ZM22 52C19.2386 52 17 49.7614 17 47H15C15 50.866 18.134 54 22 54V52ZM255 47C255 49.7614 252.761 52 250 52V54C253.866 54 257 50.866 257 47H255ZM250 17C252.761 17 255 19.2386 255 22H257C257 18.134 253.866 15 250 15V17ZM22 15C18.134 15 15 18.134 15 22H17C17 19.2386 19.2386 17 22 17V15Z" fill="#C7C7C7" mask="url(#path-1-inside-1_154_14376)"/>
<path fill-rule="evenodd" clip-rule="evenodd" d="M45.75 40.8432V33.6781L50.8071 28.6203C51.2193 28.2081 50.9272 27.5 50.3431 27.5L37.657 27.5C37.0741 27.5 36.78 28.2073 37.193 28.6203L42.25 33.6781V39.3125C42.25 39.5266 42.3545 39.7273 42.5299 39.8501L44.7174 41.3808C45.149 41.6829 45.75 41.3767 45.75 40.8432Z" fill="#1F1F1F"/>
<path d="M65.246 39V29.2H69.264C69.8893 29.2 70.4353 29.3213 70.902 29.564C71.3687 29.7973 71.7327 30.124 71.994 30.544C72.2553 30.964 72.386 31.4587 72.386 32.028C72.386 32.6813 72.204 33.2413 71.84 33.708C71.476 34.1653 70.9767 34.4873 70.342 34.674L72.428 39H71.238L69.25 34.814H66.324V39H65.246ZM66.324 33.918H69.18C69.824 33.918 70.3373 33.75 70.72 33.414C71.112 33.0687 71.308 32.6113 71.308 32.042C71.308 31.4633 71.112 31.006 70.72 30.67C70.3373 30.3247 69.824 30.152 69.18 30.152H66.324V33.918ZM76.839 39.14C76.2043 39.14 75.6303 38.986 75.117 38.678C74.6037 38.3607 74.1977 37.936 73.899 37.404C73.6003 36.8627 73.451 36.256 73.451 35.584C73.451 34.912 73.591 34.31 73.871 33.778C74.1603 33.246 74.5477 32.826 75.033 32.518C75.5183 32.21 76.0597 32.056 76.657 32.056C77.2637 32.056 77.8003 32.21 78.267 32.518C78.743 32.8167 79.1163 33.2273 79.387 33.75C79.667 34.2633 79.807 34.8467 79.807 35.5V35.808H74.445C74.4823 36.2747 74.6083 36.6947 74.823 37.068C75.047 37.432 75.3363 37.7213 75.691 37.936C76.055 38.1413 76.4517 38.244 76.881 38.244C77.2357 38.244 77.5763 38.1833 77.903 38.062C78.239 37.9313 78.5237 37.7587 78.757 37.544L79.401 38.23C79.009 38.538 78.603 38.7667 78.183 38.916C77.763 39.0653 77.315 39.14 76.839 39.14ZM74.473 35.08H78.799C78.7523 34.6693 78.6263 34.3053 78.421 33.988C78.225 33.6613 77.973 33.4047 77.665 33.218C77.3663 33.0313 77.0303 32.938 76.657 32.938C76.2837 32.938 75.943 33.0313 75.635 33.218C75.327 33.3953 75.0703 33.6473 74.865 33.974C74.669 34.2913 74.5383 34.66 74.473 35.08ZM83.7343 39.14C83.1743 39.14 82.6563 39.056 82.1803 38.888C81.7043 38.7107 81.2983 38.4587 80.9623 38.132L81.5083 37.46C81.919 37.7587 82.297 37.978 82.6423 38.118C82.9876 38.2487 83.3423 38.314 83.7063 38.314C84.201 38.314 84.6116 38.1973 84.9383 37.964C85.265 37.7307 85.4283 37.432 85.4283 37.068C85.4283 36.788 85.3303 36.5687 85.1343 36.41C84.9476 36.2513 84.635 36.13 84.1963 36.046L83.0763 35.85C82.4136 35.7287 81.9236 35.5233 81.6063 35.234C81.2983 34.9447 81.1443 34.5527 81.1443 34.058C81.1443 33.666 81.247 33.3207 81.4523 33.022C81.667 32.7233 81.961 32.49 82.3343 32.322C82.7076 32.1447 83.1323 32.056 83.6083 32.056C84.075 32.056 84.5183 32.126 84.9383 32.266C85.3583 32.3967 85.783 32.6113 86.2123 32.91L85.7083 33.624C85.3536 33.372 84.999 33.19 84.6443 33.078C84.2896 32.9567 83.9303 32.896 83.5663 32.896C83.1183 32.896 82.759 32.994 82.4883 33.19C82.2176 33.386 82.0823 33.652 82.0823 33.988C82.0823 34.268 82.1663 34.4827 82.3343 34.632C82.5116 34.7813 82.8196 34.8933 83.2583 34.968L84.4063 35.178C85.097 35.2993 85.601 35.5093 85.9183 35.808C86.2356 36.1067 86.3943 36.508 86.3943 37.012C86.3943 37.4133 86.2776 37.7773 86.0443 38.104C85.811 38.4213 85.4936 38.6733 85.0923 38.86C84.691 39.0467 84.2383 39.14 83.7343 39.14ZM91.0428 39.112C90.4081 39.112 89.8388 38.958 89.3348 38.65C88.8308 38.342 88.4341 37.922 88.1448 37.39C87.8554 36.858 87.7108 36.256 87.7108 35.584C87.7108 34.912 87.8554 34.31 88.1448 33.778C88.4341 33.246 88.8308 32.826 89.3348 32.518C89.8388 32.21 90.4081 32.056 91.0428 32.056C91.6681 32.056 92.2281 32.21 92.7228 32.518C93.2268 32.826 93.6234 33.246 93.9128 33.778C94.2021 34.31 94.3468 34.912 94.3468 35.584C94.3468 36.256 94.2021 36.858 93.9128 37.39C93.6234 37.922 93.2268 38.342 92.7228 38.65C92.2281 38.958 91.6681 39.112 91.0428 39.112ZM91.0288 38.216C91.4768 38.216 91.8734 38.104 92.2188 37.88C92.5641 37.6467 92.8348 37.3293 93.0308 36.928C93.2361 36.5267 93.3388 36.0787 93.3388 35.584C93.3388 35.08 93.2361 34.632 93.0308 34.24C92.8348 33.8387 92.5641 33.526 92.2188 33.302C91.8734 33.0687 91.4768 32.952 91.0288 32.952C90.5808 32.952 90.1841 33.0687 89.8388 33.302C89.4934 33.526 89.2181 33.8387 89.0128 34.24C88.8168 34.632 88.7188 35.08 88.7188 35.584C88.7188 36.0787 88.8168 36.5267 89.0128 36.928C89.2181 37.3293 89.4934 37.6467 89.8388 37.88C90.1841 38.104 90.5808 38.216 91.0288 38.216ZM98.5758 39.112C98.0905 39.112 97.6612 39.0047 97.2878 38.79C96.9145 38.5753 96.6205 38.2767 96.4058 37.894C96.2005 37.5113 96.0978 37.0727 96.0978 36.578V32.168H97.1338V36.284C97.1338 36.8907 97.2972 37.3713 97.6238 37.726C97.9505 38.0807 98.3938 38.258 98.9538 38.258C99.3365 38.258 99.6772 38.1693 99.9758 37.992C100.284 37.8147 100.541 37.558 100.746 37.222V32.168H101.768V39H100.746V37.894C100.485 38.2953 100.172 38.5987 99.8078 38.804C99.4532 39.0093 99.0425 39.112 98.5758 39.112ZM103.864 39V32.168H104.886V33.568C105.064 33.092 105.316 32.7233 105.642 32.462C105.978 32.1913 106.361 32.056 106.79 32.056C106.912 32.056 107.024 32.0653 107.126 32.084C107.229 32.0933 107.332 32.1167 107.434 32.154V33.078C107.322 33.0407 107.201 33.0127 107.07 32.994C106.949 32.966 106.832 32.952 106.72 32.952C106.3 32.952 105.932 33.0733 105.614 33.316C105.306 33.5587 105.064 33.8993 104.886 34.338V39H103.864ZM111.428 39.112C110.794 39.112 110.22 38.958 109.707 38.65C109.203 38.3327 108.801 37.908 108.503 37.376C108.204 36.8347 108.055 36.2373 108.055 35.584C108.055 34.9213 108.204 34.324 108.503 33.792C108.801 33.26 109.203 32.84 109.707 32.532C110.22 32.2147 110.794 32.056 111.428 32.056C111.933 32.056 112.413 32.1493 112.871 32.336C113.328 32.5227 113.725 32.784 114.061 33.12L113.403 33.834C113.16 33.5633 112.866 33.3533 112.521 33.204C112.175 33.0547 111.825 32.98 111.471 32.98C111.023 32.98 110.617 33.0967 110.253 33.33C109.898 33.5633 109.613 33.876 109.399 34.268C109.184 34.66 109.077 35.0987 109.077 35.584C109.077 36.0693 109.184 36.508 109.399 36.9C109.613 37.292 109.898 37.6047 110.253 37.838C110.617 38.0713 111.023 38.188 111.471 38.188C111.825 38.188 112.175 38.1133 112.521 37.964C112.866 37.8053 113.16 37.5953 113.403 37.334L114.061 38.048C113.725 38.384 113.328 38.6453 112.871 38.832C112.413 39.0187 111.933 39.112 111.428 39.112ZM118.36 39.14C117.726 39.14 117.152 38.986 116.638 38.678C116.125 38.3607 115.719 37.936 115.42 37.404C115.122 36.8627 114.972 36.256 114.972 35.584C114.972 34.912 115.112 34.31 115.392 33.778C115.682 33.246 116.069 32.826 116.554 32.518C117.04 32.21 117.581 32.056 118.178 32.056C118.785 32.056 119.322 32.21 119.788 32.518C120.264 32.8167 120.638 33.2273 120.908 33.75C121.188 34.2633 121.328 34.8467 121.328 35.5V35.808H115.966C116.004 36.2747 116.13 36.6947 116.344 37.068C116.568 37.432 116.858 37.7213 117.212 37.936C117.576 38.1413 117.973 38.244 118.402 38.244C118.757 38.244 119.098 38.1833 119.424 38.062C119.76 37.9313 120.045 37.7587 120.278 37.544L120.922 38.23C120.53 38.538 120.124 38.7667 119.704 38.916C119.284 39.0653 118.836 39.14 118.36 39.14ZM115.994 35.08H120.32C120.274 34.6693 120.148 34.3053 119.942 33.988C119.746 33.6613 119.494 33.4047 119.186 33.218C118.888 33.0313 118.552 32.938 118.178 32.938C117.805 32.938 117.464 33.0313 117.156 33.218C116.848 33.3953 116.592 33.6473 116.386 33.974C116.19 34.2913 116.06 34.66 115.994 35.08ZM125.256 39.14C124.696 39.14 124.178 39.056 123.702 38.888C123.226 38.7107 122.82 38.4587 122.484 38.132L123.03 37.46C123.44 37.7587 123.818 37.978 124.164 38.118C124.509 38.2487 124.864 38.314 125.228 38.314C125.722 38.314 126.133 38.1973 126.46 37.964C126.786 37.7307 126.95 37.432 126.95 37.068C126.95 36.788 126.852 36.5687 126.656 36.41C126.469 36.2513 126.156 36.13 125.718 36.046L124.598 35.85C123.935 35.7287 123.445 35.5233 123.128 35.234C122.82 34.9447 122.666 34.5527 122.666 34.058C122.666 33.666 122.768 33.3207 122.974 33.022C123.188 32.7233 123.482 32.49 123.856 32.322C124.229 32.1447 124.654 32.056 125.13 32.056C125.596 32.056 126.04 32.126 126.46 32.266C126.88 32.3967 127.304 32.6113 127.734 32.91L127.23 33.624C126.875 33.372 126.52 33.19 126.166 33.078C125.811 32.9567 125.452 32.896 125.088 32.896C124.64 32.896 124.28 32.994 124.01 33.19C123.739 33.386 123.604 33.652 123.604 33.988C123.604 34.268 123.688 34.4827 123.856 34.632C124.033 34.7813 124.341 34.8933 124.78 34.968L125.928 35.178C126.618 35.2993 127.122 35.5093 127.44 35.808C127.757 36.1067 127.916 36.508 127.916 37.012C127.916 37.4133 127.799 37.7773 127.566 38.104C127.332 38.4213 127.015 38.6733 126.614 38.86C126.212 39.0467 125.76 39.14 125.256 39.14Z" fill="#151515"/>
<path d="M137 34.5C137 29.5294 141.029 25.5 146 25.5H202C206.971 25.5 211 29.5294 211 34.5C211 39.4706 206.971 43.5 202 43.5H146C141.029 43.5 137 39.4706 137 34.5Z" fill="#0066CC"/>
<path d="M145.79 38.5V37.552L149.234 33.952C149.442 33.736 149.602 33.54 149.714 33.364C149.834 33.188 149.918 33.02 149.966 32.86C150.022 32.692 150.05 32.52 150.05 32.344C150.05 31.992 149.906 31.7 149.618 31.468C149.33 31.236 148.966 31.12 148.526 31.12C148.142 31.12 147.782 31.196 147.446 31.348C147.11 31.5 146.742 31.764 146.342 32.14L145.598 31.24C146.062 30.816 146.538 30.5 147.026 30.292C147.514 30.076 148.022 29.968 148.55 29.968C149.102 29.968 149.586 30.068 150.002 30.268C150.418 30.46 150.742 30.728 150.974 31.072C151.206 31.416 151.322 31.816 151.322 32.272C151.322 32.544 151.286 32.8 151.214 33.04C151.142 33.28 151.018 33.524 150.842 33.772C150.674 34.02 150.438 34.304 150.134 34.624L147.458 37.384L151.478 37.372V38.5H145.79ZM157.597 38.62C157.085 38.62 156.605 38.552 156.157 38.416C155.717 38.272 155.337 38.068 155.017 37.804L155.653 36.904C156.053 37.152 156.397 37.328 156.685 37.432C156.981 37.536 157.281 37.588 157.585 37.588C157.945 37.588 158.237 37.512 158.461 37.36C158.685 37.208 158.797 37.012 158.797 36.772C158.797 36.588 158.729 36.444 158.593 36.34C158.465 36.228 158.253 36.144 157.957 36.088L156.901 35.908C156.317 35.796 155.881 35.604 155.593 35.332C155.305 35.06 155.161 34.7 155.161 34.252C155.161 33.876 155.257 33.552 155.449 33.28C155.649 33 155.921 32.784 156.265 32.632C156.617 32.472 157.025 32.392 157.489 32.392C157.905 32.392 158.309 32.452 158.701 32.572C159.093 32.692 159.477 32.872 159.853 33.112L159.217 34.012C158.913 33.812 158.609 33.668 158.305 33.58C158.009 33.484 157.709 33.436 157.405 33.436C157.093 33.436 156.841 33.5 156.649 33.628C156.465 33.748 156.373 33.916 156.373 34.132C156.373 34.324 156.433 34.472 156.553 34.576C156.681 34.672 156.901 34.744 157.213 34.792L158.281 34.996C158.881 35.1 159.325 35.292 159.613 35.572C159.909 35.844 160.057 36.208 160.057 36.664C160.057 37.032 159.949 37.364 159.733 37.66C159.517 37.956 159.225 38.192 158.857 38.368C158.489 38.536 158.069 38.62 157.597 38.62ZM164.154 38.62C163.578 38.62 163.058 38.484 162.594 38.212C162.13 37.932 161.762 37.56 161.49 37.096C161.218 36.624 161.082 36.092 161.082 35.5C161.082 34.908 161.21 34.38 161.466 33.916C161.722 33.452 162.07 33.084 162.51 32.812C162.958 32.532 163.454 32.392 163.998 32.392C164.558 32.392 165.05 32.528 165.474 32.8C165.906 33.072 166.242 33.44 166.482 33.904C166.73 34.368 166.854 34.9 166.854 35.5V35.824H162.414C162.462 36.152 162.566 36.444 162.726 36.7C162.894 36.948 163.106 37.144 163.362 37.288C163.626 37.432 163.91 37.504 164.214 37.504C164.494 37.504 164.758 37.456 165.006 37.36C165.262 37.256 165.474 37.116 165.642 36.94L166.53 37.744C166.162 38.048 165.786 38.272 165.402 38.416C165.026 38.552 164.61 38.62 164.154 38.62ZM162.426 34.984H165.57C165.522 34.696 165.422 34.44 165.27 34.216C165.126 33.992 164.942 33.816 164.718 33.688C164.502 33.56 164.262 33.496 163.998 33.496C163.734 33.496 163.49 33.56 163.266 33.688C163.05 33.808 162.87 33.98 162.726 34.204C162.582 34.428 162.482 34.688 162.426 34.984ZM168.236 38.5V29.896L169.592 29.656V38.5H168.236ZM174.056 38.62C173.48 38.62 172.96 38.484 172.496 38.212C172.032 37.932 171.664 37.56 171.392 37.096C171.12 36.624 170.984 36.092 170.984 35.5C170.984 34.908 171.112 34.38 171.368 33.916C171.624 33.452 171.972 33.084 172.412 32.812C172.86 32.532 173.356 32.392 173.9 32.392C174.46 32.392 174.952 32.528 175.376 32.8C175.808 33.072 176.144 33.44 176.384 33.904C176.632 34.368 176.756 34.9 176.756 35.5V35.824H172.316C172.364 36.152 172.468 36.444 172.628 36.7C172.796 36.948 173.008 37.144 173.264 37.288C173.528 37.432 173.812 37.504 174.116 37.504C174.396 37.504 174.66 37.456 174.908 37.36C175.164 37.256 175.376 37.116 175.544 36.94L176.432 37.744C176.064 38.048 175.688 38.272 175.304 38.416C174.928 38.552 174.512 38.62 174.056 38.62ZM172.328 34.984H175.472C175.424 34.696 175.324 34.44 175.172 34.216C175.028 33.992 174.844 33.816 174.62 33.688C174.404 33.56 174.164 33.496 173.9 33.496C173.636 33.496 173.392 33.56 173.168 33.688C172.952 33.808 172.772 33.98 172.628 34.204C172.484 34.428 172.384 34.688 172.328 34.984ZM180.922 38.608C180.354 38.608 179.838 38.472 179.374 38.2C178.918 37.92 178.554 37.544 178.282 37.072C178.018 36.6 177.886 36.076 177.886 35.5C177.886 34.916 178.018 34.392 178.282 33.928C178.554 33.456 178.918 33.084 179.374 32.812C179.838 32.532 180.354 32.392 180.922 32.392C181.386 32.392 181.826 32.48 182.242 32.656C182.666 32.832 183.026 33.084 183.322 33.412L182.482 34.288C182.274 34.056 182.042 33.88 181.786 33.76C181.53 33.64 181.258 33.58 180.97 33.58C180.642 33.58 180.346 33.668 180.082 33.844C179.826 34.012 179.622 34.24 179.47 34.528C179.318 34.816 179.242 35.14 179.242 35.5C179.242 35.86 179.318 36.188 179.47 36.484C179.622 36.772 179.826 37 180.082 37.168C180.346 37.336 180.642 37.42 180.97 37.42C181.258 37.42 181.53 37.36 181.786 37.24C182.042 37.12 182.274 36.948 182.482 36.724L183.322 37.588C183.026 37.916 182.666 38.168 182.242 38.344C181.826 38.52 181.386 38.608 180.922 38.608ZM187.153 38.62C186.545 38.62 186.085 38.48 185.773 38.2C185.461 37.912 185.305 37.492 185.305 36.94V33.568H184.105V32.488H185.305V30.832L186.661 30.544V32.488H188.329V33.568H186.661V36.64C186.661 36.936 186.725 37.148 186.853 37.276C186.981 37.396 187.197 37.456 187.501 37.456C187.637 37.456 187.761 37.448 187.873 37.432C187.993 37.408 188.141 37.368 188.317 37.312V38.452C188.149 38.508 187.957 38.548 187.741 38.572C187.533 38.604 187.337 38.62 187.153 38.62ZM192.232 38.62C191.656 38.62 191.136 38.484 190.672 38.212C190.208 37.932 189.84 37.56 189.568 37.096C189.296 36.624 189.16 36.092 189.16 35.5C189.16 34.908 189.288 34.38 189.544 33.916C189.8 33.452 190.148 33.084 190.588 32.812C191.036 32.532 191.532 32.392 192.076 32.392C192.636 32.392 193.128 32.528 193.552 32.8C193.984 33.072 194.32 33.44 194.56 33.904C194.808 34.368 194.932 34.9 194.932 35.5V35.824H190.492C190.54 36.152 190.644 36.444 190.804 36.7C190.972 36.948 191.184 37.144 191.44 37.288C191.704 37.432 191.988 37.504 192.292 37.504C192.572 37.504 192.836 37.456 193.084 37.36C193.34 37.256 193.552 37.116 193.72 36.94L194.608 37.744C194.24 38.048 193.864 38.272 193.48 38.416C193.104 38.552 192.688 38.62 192.232 38.62ZM190.504 34.984H193.648C193.6 34.696 193.5 34.44 193.348 34.216C193.204 33.992 193.02 33.816 192.796 33.688C192.58 33.56 192.34 33.496 192.076 33.496C191.812 33.496 191.568 33.56 191.344 33.688C191.128 33.808 190.948 33.98 190.804 34.204C190.66 34.428 190.56 34.688 190.504 34.984ZM198.774 38.56C198.27 38.56 197.814 38.424 197.406 38.152C196.998 37.872 196.67 37.504 196.422 37.048C196.182 36.584 196.062 36.068 196.062 35.5C196.062 34.924 196.186 34.408 196.434 33.952C196.682 33.488 197.018 33.12 197.442 32.848C197.874 32.576 198.35 32.44 198.87 32.44C199.214 32.44 199.534 32.508 199.83 32.644C200.134 32.772 200.398 32.964 200.622 33.22V29.896L201.978 29.656V38.5H200.634V37.708C200.418 37.98 200.15 38.192 199.83 38.344C199.51 38.488 199.158 38.56 198.774 38.56ZM199.194 37.42C199.482 37.42 199.75 37.364 199.998 37.252C200.246 37.132 200.454 36.968 200.622 36.76V34.228C200.446 34.02 200.234 33.86 199.986 33.748C199.738 33.636 199.474 33.58 199.194 33.58C198.85 33.58 198.542 33.664 198.27 33.832C198.006 33.992 197.794 34.216 197.634 34.504C197.474 34.792 197.394 35.124 197.394 35.5C197.394 35.86 197.474 36.188 197.634 36.484C197.794 36.772 198.006 37 198.27 37.168C198.542 37.336 198.85 37.42 199.194 37.42Z" fill="white"/>
<path fill-rule="evenodd" clip-rule="evenodd" d="M230.389 37.1715L233.921 33.6103C234.267 33.2617 234.023 32.6667 233.534 32.6667H226.466C225.977 32.6667 225.733 33.2617 226.079 33.6103L229.611 37.1715C229.826 37.3874 230.174 37.3874 230.389 37.1715Z" fill="#1F1F1F"/>
<path d="M272 34.5C272 24.2827 280.283 16 290.5 16H342.5C352.717 16 361 24.2827 361 34.5C361 44.7173 352.717 53 342.5 53H290.5C280.283 53 272 44.7173 272 34.5Z" fill="#0066CC"/>
<path d="M296.126 39L300.004 29.2H301.292L305.114 39H303.952L302.79 35.92H298.422L297.26 39H296.126ZM298.758 35.066H302.468L300.606 30.18L298.758 35.066ZM309.085 39.112C308.45 39.112 307.876 38.958 307.363 38.65C306.859 38.3327 306.457 37.908 306.159 37.376C305.86 36.8347 305.711 36.2373 305.711 35.584C305.711 34.9213 305.86 34.324 306.159 33.792C306.457 33.26 306.859 32.84 307.363 32.532C307.876 32.2147 308.45 32.056 309.085 32.056C309.589 32.056 310.069 32.1493 310.527 32.336C310.984 32.5227 311.381 32.784 311.717 33.12L311.059 33.834C310.816 33.5633 310.522 33.3533 310.177 33.204C309.831 33.0547 309.481 32.98 309.127 32.98C308.679 32.98 308.273 33.0967 307.909 33.33C307.554 33.5633 307.269 33.876 307.055 34.268C306.84 34.66 306.733 35.0987 306.733 35.584C306.733 36.0693 306.84 36.508 307.055 36.9C307.269 37.292 307.554 37.6047 307.909 37.838C308.273 38.0713 308.679 38.188 309.127 38.188C309.481 38.188 309.831 38.1133 310.177 37.964C310.522 37.8053 310.816 37.5953 311.059 37.334L311.717 38.048C311.381 38.384 310.984 38.6453 310.527 38.832C310.069 39.0187 309.589 39.112 309.085 39.112ZM315.883 39.14C315.295 39.14 314.847 39 314.539 38.72C314.24 38.4307 314.091 38.0153 314.091 37.474V33.008H312.677V32.168H314.091V30.292L315.113 30.054V32.168H317.073V33.008H315.113V37.208C315.113 37.572 315.187 37.8333 315.337 37.992C315.495 38.1507 315.752 38.23 316.107 38.23C316.284 38.23 316.443 38.216 316.583 38.188C316.723 38.16 316.886 38.1133 317.073 38.048V38.958C316.886 39.0233 316.69 39.07 316.485 39.098C316.279 39.126 316.079 39.14 315.883 39.14ZM318.556 39V32.168H319.578V39H318.556ZM319.074 30.474C318.868 30.474 318.691 30.404 318.542 30.264C318.402 30.1147 318.332 29.942 318.332 29.746C318.332 29.55 318.402 29.382 318.542 29.242C318.691 29.0927 318.868 29.018 319.074 29.018C319.279 29.018 319.452 29.0927 319.592 29.242C319.741 29.382 319.816 29.55 319.816 29.746C319.816 29.942 319.741 30.1147 319.592 30.264C319.452 30.404 319.279 30.474 319.074 30.474ZM324.697 39.112C324.062 39.112 323.493 38.958 322.989 38.65C322.485 38.342 322.088 37.922 321.799 37.39C321.51 36.858 321.365 36.256 321.365 35.584C321.365 34.912 321.51 34.31 321.799 33.778C322.088 33.246 322.485 32.826 322.989 32.518C323.493 32.21 324.062 32.056 324.697 32.056C325.322 32.056 325.882 32.21 326.377 32.518C326.881 32.826 327.278 33.246 327.567 33.778C327.856 34.31 328.001 34.912 328.001 35.584C328.001 36.256 327.856 36.858 327.567 37.39C327.278 37.922 326.881 38.342 326.377 38.65C325.882 38.958 325.322 39.112 324.697 39.112ZM324.683 38.216C325.131 38.216 325.528 38.104 325.873 37.88C326.218 37.6467 326.489 37.3293 326.685 36.928C326.89 36.5267 326.993 36.0787 326.993 35.584C326.993 35.08 326.89 34.632 326.685 34.24C326.489 33.8387 326.218 33.526 325.873 33.302C325.528 33.0687 325.131 32.952 324.683 32.952C324.235 32.952 323.838 33.0687 323.493 33.302C323.148 33.526 322.872 33.8387 322.667 34.24C322.471 34.632 322.373 35.08 322.373 35.584C322.373 36.0787 322.471 36.5267 322.667 36.928C322.872 37.3293 323.148 37.6467 323.493 37.88C323.838 38.104 324.235 38.216 324.683 38.216ZM329.794 39V32.168H330.816V33.274C331.077 32.8633 331.39 32.56 331.754 32.364C332.118 32.1587 332.529 32.056 332.986 32.056C333.481 32.056 333.91 32.1633 334.274 32.378C334.647 32.5833 334.937 32.8773 335.142 33.26C335.357 33.6333 335.464 34.072 335.464 34.576V39H334.442V34.87C334.442 34.2633 334.274 33.7873 333.938 33.442C333.611 33.0873 333.168 32.91 332.608 32.91C332.235 32.91 331.894 32.9987 331.586 33.176C331.278 33.3533 331.021 33.6147 330.816 33.96V39H329.794Z" fill="white"/>
<mask id="path-10-inside-2_154_14376" fill="white">
<path d="M369 34.5C369 24.2827 377.283 16 387.5 16H439.5C449.717 16 458 24.2827 458 34.5C458 44.7173 449.717 53 439.5 53H387.5C377.283 53 369 44.7173 369 34.5Z"/>
</mask>
<path d="M387.5 17H439.5V15H387.5V17ZM439.5 52H387.5V54H439.5V52ZM387.5 52C377.835 52 370 44.165 370 34.5H368C368 45.2696 376.73 54 387.5 54V52ZM457 34.5C457 44.165 449.165 52 439.5 52V54C450.27 54 459 45.2696 459 34.5H457ZM439.5 17C449.165 17 457 24.835 457 34.5H459C459 23.7304 450.27 15 439.5 15V17ZM387.5 15C376.73 15 368 23.7304 368 34.5H370C370 24.835 377.835 17 387.5 17V15Z" fill="#0066CC" mask="url(#path-10-inside-2_154_14376)"/>
<path d="M393.126 39L397.004 29.2H398.292L402.114 39H400.952L399.79 35.92H395.422L394.26 39H393.126ZM395.758 35.066H399.468L397.606 30.18L395.758 35.066ZM406.085 39.112C405.45 39.112 404.876 38.958 404.363 38.65C403.859 38.3327 403.457 37.908 403.159 37.376C402.86 36.8347 402.711 36.2373 402.711 35.584C402.711 34.9213 402.86 34.324 403.159 33.792C403.457 33.26 403.859 32.84 404.363 32.532C404.876 32.2147 405.45 32.056 406.085 32.056C406.589 32.056 407.069 32.1493 407.527 32.336C407.984 32.5227 408.381 32.784 408.717 33.12L408.059 33.834C407.816 33.5633 407.522 33.3533 407.177 33.204C406.831 33.0547 406.481 32.98 406.127 32.98C405.679 32.98 405.273 33.0967 404.909 33.33C404.554 33.5633 404.269 33.876 404.055 34.268C403.84 34.66 403.733 35.0987 403.733 35.584C403.733 36.0693 403.84 36.508 404.055 36.9C404.269 37.292 404.554 37.6047 404.909 37.838C405.273 38.0713 405.679 38.188 406.127 38.188C406.481 38.188 406.831 38.1133 407.177 37.964C407.522 37.8053 407.816 37.5953 408.059 37.334L408.717 38.048C408.381 38.384 407.984 38.6453 407.527 38.832C407.069 39.0187 406.589 39.112 406.085 39.112ZM412.883 39.14C412.295 39.14 411.847 39 411.539 38.72C411.24 38.4307 411.091 38.0153 411.091 37.474V33.008H409.677V32.168H411.091V30.292L412.113 30.054V32.168H414.073V33.008H412.113V37.208C412.113 37.572 412.187 37.8333 412.337 37.992C412.495 38.1507 412.752 38.23 413.107 38.23C413.284 38.23 413.443 38.216 413.583 38.188C413.723 38.16 413.886 38.1133 414.073 38.048V38.958C413.886 39.0233 413.69 39.07 413.485 39.098C413.279 39.126 413.079 39.14 412.883 39.14ZM415.556 39V32.168H416.578V39H415.556ZM416.074 30.474C415.868 30.474 415.691 30.404 415.542 30.264C415.402 30.1147 415.332 29.942 415.332 29.746C415.332 29.55 415.402 29.382 415.542 29.242C415.691 29.0927 415.868 29.018 416.074 29.018C416.279 29.018 416.452 29.0927 416.592 29.242C416.741 29.382 416.816 29.55 416.816 29.746C416.816 29.942 416.741 30.1147 416.592 30.264C416.452 30.404 416.279 30.474 416.074 30.474ZM421.697 39.112C421.062 39.112 420.493 38.958 419.989 38.65C419.485 38.342 419.088 37.922 418.799 37.39C418.51 36.858 418.365 36.256 418.365 35.584C418.365 34.912 418.51 34.31 418.799 33.778C419.088 33.246 419.485 32.826 419.989 32.518C420.493 32.21 421.062 32.056 421.697 32.056C422.322 32.056 422.882 32.21 423.377 32.518C423.881 32.826 424.278 33.246 424.567 33.778C424.856 34.31 425.001 34.912 425.001 35.584C425.001 36.256 424.856 36.858 424.567 37.39C424.278 37.922 423.881 38.342 423.377 38.65C422.882 38.958 422.322 39.112 421.697 39.112ZM421.683 38.216C422.131 38.216 422.528 38.104 422.873 37.88C423.218 37.6467 423.489 37.3293 423.685 36.928C423.89 36.5267 423.993 36.0787 423.993 35.584C423.993 35.08 423.89 34.632 423.685 34.24C423.489 33.8387 423.218 33.526 422.873 33.302C422.528 33.0687 422.131 32.952 421.683 32.952C421.235 32.952 420.838 33.0687 420.493 33.302C420.148 33.526 419.872 33.8387 419.667 34.24C419.471 34.632 419.373 35.08 419.373 35.584C419.373 36.0787 419.471 36.5267 419.667 36.928C419.872 37.3293 420.148 37.6467 420.493 37.88C420.838 38.104 421.235 38.216 421.683 38.216ZM426.794 39V32.168H427.816V33.274C428.077 32.8633 428.39 32.56 428.754 32.364C429.118 32.1587 429.529 32.056 429.986 32.056C430.481 32.056 430.91 32.1633 431.274 32.378C431.647 32.5833 431.937 32.8773 432.142 33.26C432.357 33.6333 432.464 34.072 432.464 34.576V39H431.442V34.87C431.442 34.2633 431.274 33.7873 430.938 33.442C430.611 33.0873 430.168 32.91 429.608 32.91C429.235 32.91 428.894 32.9987 428.586 33.176C428.278 33.3533 428.021 33.6147 427.816 33.96V39H426.794Z" fill="#0066CC"/>
<path fill-rule="evenodd" clip-rule="evenodd" d="M489.292 31.5645C490.42 31.5645 491.333 30.6556 491.333 29.5323C491.333 28.4089 490.42 27.5 489.292 27.5C488.163 27.5 487.25 28.4089 487.25 29.5323C487.25 30.6556 488.163 31.5645 489.292 31.5645ZM489.292 36.5323C490.42 36.5323 491.333 35.6234 491.333 34.5C491.333 33.3766 490.42 32.4677 489.292 32.4677C488.163 32.4677 487.25 33.3766 487.25 34.5C487.25 35.6234 488.163 36.5323 489.292 36.5323ZM489.292 41.5C490.42 41.5 491.333 40.5911 491.333 39.4677C491.333 38.3444 490.42 37.4355 489.292 37.4355C488.163 37.4355 487.25 38.3444 487.25 39.4677C487.25 40.5911 488.163 41.5 489.292 41.5Z" fill="#1F1F1F"/>
<path d="M16.5 76.5C16.5 73.4624 18.9624 71 22 71H282C285.038 71 287.5 73.4624 287.5 76.5V98.5C287.5 101.538 285.038 104 282 104H22C18.9624 104 16.5 101.538 16.5 98.5V76.5Z" stroke="#C7C7C7"/>
<path d="M25.246 92V82.2H29.264C29.8893 82.2 30.4353 82.3213 30.902 82.564C31.3687 82.7973 31.7327 83.124 31.994 83.544C32.2553 83.964 32.386 84.4587 32.386 85.028C32.386 85.6813 32.204 86.2413 31.84 86.708C31.476 87.1653 30.9767 87.4873 30.342 87.674L32.428 92H31.238L29.25 87.814H26.324V92H25.246ZM26.324 86.918H29.18C29.824 86.918 30.3373 86.75 30.72 86.414C31.112 86.0687 31.308 85.6113 31.308 85.042C31.308 84.4633 31.112 84.006 30.72 83.67C30.3373 83.3247 29.824 83.152 29.18 83.152H26.324V86.918ZM36.839 92.14C36.2043 92.14 35.6303 91.986 35.117 91.678C34.6037 91.3607 34.1977 90.936 33.899 90.404C33.6003 89.8627 33.451 89.256 33.451 88.584C33.451 87.912 33.591 87.31 33.871 86.778C34.1603 86.246 34.5477 85.826 35.033 85.518C35.5183 85.21 36.0597 85.056 36.657 85.056C37.2637 85.056 37.8003 85.21 38.267 85.518C38.743 85.8167 39.1163 86.2273 39.387 86.75C39.667 87.2633 39.807 87.8467 39.807 88.5V88.808H34.445C34.4823 89.2747 34.6083 89.6947 34.823 90.068C35.047 90.432 35.3363 90.7213 35.691 90.936C36.055 91.1413 36.4517 91.244 36.881 91.244C37.2357 91.244 37.5763 91.1833 37.903 91.062C38.239 90.9313 38.5237 90.7587 38.757 90.544L39.401 91.23C39.009 91.538 38.603 91.7667 38.183 91.916C37.763 92.0653 37.315 92.14 36.839 92.14ZM34.473 88.08H38.799C38.7523 87.6693 38.6263 87.3053 38.421 86.988C38.225 86.6613 37.973 86.4047 37.665 86.218C37.3663 86.0313 37.0303 85.938 36.657 85.938C36.2837 85.938 35.943 86.0313 35.635 86.218C35.327 86.3953 35.0703 86.6473 34.865 86.974C34.669 87.2913 34.5383 87.66 34.473 88.08ZM43.7343 92.14C43.1743 92.14 42.6563 92.056 42.1803 91.888C41.7043 91.7107 41.2983 91.4587 40.9623 91.132L41.5083 90.46C41.919 90.7587 42.297 90.978 42.6423 91.118C42.9876 91.2487 43.3423 91.314 43.7063 91.314C44.201 91.314 44.6116 91.1973 44.9383 90.964C45.265 90.7307 45.4283 90.432 45.4283 90.068C45.4283 89.788 45.3303 89.5687 45.1343 89.41C44.9476 89.2513 44.635 89.13 44.1963 89.046L43.0763 88.85C42.4136 88.7287 41.9236 88.5233 41.6063 88.234C41.2983 87.9447 41.1443 87.5527 41.1443 87.058C41.1443 86.666 41.247 86.3207 41.4523 86.022C41.667 85.7233 41.961 85.49 42.3343 85.322C42.7076 85.1447 43.1323 85.056 43.6083 85.056C44.075 85.056 44.5183 85.126 44.9383 85.266C45.3583 85.3967 45.783 85.6113 46.2123 85.91L45.7083 86.624C45.3536 86.372 44.999 86.19 44.6443 86.078C44.2896 85.9567 43.9303 85.896 43.5663 85.896C43.1183 85.896 42.759 85.994 42.4883 86.19C42.2176 86.386 42.0823 86.652 42.0823 86.988C42.0823 87.268 42.1663 87.4827 42.3343 87.632C42.5116 87.7813 42.8196 87.8933 43.2583 87.968L44.4063 88.178C45.097 88.2993 45.601 88.5093 45.9183 88.808C46.2356 89.1067 46.3943 89.508 46.3943 90.012C46.3943 90.4133 46.2776 90.7773 46.0443 91.104C45.811 91.4213 45.4936 91.6733 45.0923 91.86C44.691 92.0467 44.2383 92.14 43.7343 92.14ZM51.0428 92.112C50.4081 92.112 49.8388 91.958 49.3348 91.65C48.8308 91.342 48.4341 90.922 48.1448 90.39C47.8554 89.858 47.7108 89.256 47.7108 88.584C47.7108 87.912 47.8554 87.31 48.1448 86.778C48.4341 86.246 48.8308 85.826 49.3348 85.518C49.8388 85.21 50.4081 85.056 51.0428 85.056C51.6681 85.056 52.2281 85.21 52.7228 85.518C53.2268 85.826 53.6234 86.246 53.9128 86.778C54.2021 87.31 54.3468 87.912 54.3468 88.584C54.3468 89.256 54.2021 89.858 53.9128 90.39C53.6234 90.922 53.2268 91.342 52.7228 91.65C52.2281 91.958 51.6681 92.112 51.0428 92.112ZM51.0288 91.216C51.4768 91.216 51.8734 91.104 52.2188 90.88C52.5641 90.6467 52.8348 90.3293 53.0308 89.928C53.2361 89.5267 53.3388 89.0787 53.3388 88.584C53.3388 88.08 53.2361 87.632 53.0308 87.24C52.8348 86.8387 52.5641 86.526 52.2188 86.302C51.8734 86.0687 51.4768 85.952 51.0288 85.952C50.5808 85.952 50.1841 86.0687 49.8388 86.302C49.4934 86.526 49.2181 86.8387 49.0128 87.24C48.8168 87.632 48.7188 88.08 48.7188 88.584C48.7188 89.0787 48.8168 89.5267 49.0128 89.928C49.2181 90.3293 49.4934 90.6467 49.8388 90.88C50.1841 91.104 50.5808 91.216 51.0288 91.216ZM58.5758 92.112C58.0905 92.112 57.6612 92.0047 57.2878 91.79C56.9145 91.5753 56.6205 91.2767 56.4058 90.894C56.2005 90.5113 56.0978 90.0727 56.0978 89.578V85.168H57.1338V89.284C57.1338 89.8907 57.2972 90.3713 57.6238 90.726C57.9505 91.0807 58.3938 91.258 58.9538 91.258C59.3365 91.258 59.6772 91.1693 59.9758 90.992C60.2838 90.8147 60.5405 90.558 60.7458 90.222V85.168H61.7678V92H60.7458V90.894C60.4845 91.2953 60.1718 91.5987 59.8078 91.804C59.4532 92.0093 59.0425 92.112 58.5758 92.112ZM63.8645 92V85.168H64.8865V86.568C65.0638 86.092 65.3158 85.7233 65.6425 85.462C65.9785 85.1913 66.3611 85.056 66.7905 85.056C66.9118 85.056 67.0238 85.0653 67.1265 85.084C67.2291 85.0933 67.3318 85.1167 67.4345 85.154V86.078C67.3225 86.0407 67.2011 86.0127 67.0705 85.994C66.9491 85.966 66.8325 85.952 66.7205 85.952C66.3005 85.952 65.9318 86.0733 65.6145 86.316C65.3065 86.5587 65.0638 86.8993 64.8865 87.338V92H63.8645ZM71.4285 92.112C70.7938 92.112 70.2198 91.958 69.7065 91.65C69.2025 91.3327 68.8012 90.908 68.5025 90.376C68.2038 89.8347 68.0545 89.2373 68.0545 88.584C68.0545 87.9213 68.2038 87.324 68.5025 86.792C68.8012 86.26 69.2025 85.84 69.7065 85.532C70.2198 85.2147 70.7938 85.056 71.4285 85.056C71.9325 85.056 72.4132 85.1493 72.8705 85.336C73.3278 85.5227 73.7245 85.784 74.0605 86.12L73.4025 86.834C73.1598 86.5633 72.8658 86.3533 72.5205 86.204C72.1752 86.0547 71.8252 85.98 71.4705 85.98C71.0225 85.98 70.6165 86.0967 70.2525 86.33C69.8978 86.5633 69.6132 86.876 69.3985 87.268C69.1838 87.66 69.0765 88.0987 69.0765 88.584C69.0765 89.0693 69.1838 89.508 69.3985 89.9C69.6132 90.292 69.8978 90.6047 70.2525 90.838C70.6165 91.0713 71.0225 91.188 71.4705 91.188C71.8252 91.188 72.1752 91.1133 72.5205 90.964C72.8658 90.8053 73.1598 90.5953 73.4025 90.334L74.0605 91.048C73.7245 91.384 73.3278 91.6453 72.8705 91.832C72.4132 92.0187 71.9325 92.112 71.4285 92.112ZM78.3605 92.14C77.7258 92.14 77.1518 91.986 76.6385 91.678C76.1251 91.3607 75.7191 90.936 75.4205 90.404C75.1218 89.8627 74.9725 89.256 74.9725 88.584C74.9725 87.912 75.1125 87.31 75.3925 86.778C75.6818 86.246 76.0691 85.826 76.5545 85.518C77.0398 85.21 77.5811 85.056 78.1785 85.056C78.7851 85.056 79.3218 85.21 79.7885 85.518C80.2645 85.8167 80.6378 86.2273 80.9085 86.75C81.1885 87.2633 81.3285 87.8467 81.3285 88.5V88.808H75.9665C76.0038 89.2747 76.1298 89.6947 76.3445 90.068C76.5685 90.432 76.8578 90.7213 77.2125 90.936C77.5765 91.1413 77.9731 91.244 78.4025 91.244C78.7571 91.244 79.0978 91.1833 79.4245 91.062C79.7605 90.9313 80.0451 90.7587 80.2785 90.544L80.9225 91.23C80.5305 91.538 80.1245 91.7667 79.7045 91.916C79.2845 92.0653 78.8365 92.14 78.3605 92.14ZM75.9945 88.08H80.3205C80.2738 87.6693 80.1478 87.3053 79.9425 86.988C79.7465 86.6613 79.4945 86.4047 79.1865 86.218C78.8878 86.0313 78.5518 85.938 78.1785 85.938C77.8051 85.938 77.4645 86.0313 77.1565 86.218C76.8485 86.3953 76.5918 86.6473 76.3865 86.974C76.1905 87.2913 76.0598 87.66 75.9945 88.08ZM85.2558 92.14C84.6958 92.14 84.1778 92.056 83.7018 91.888C83.2258 91.7107 82.8198 91.4587 82.4838 91.132L83.0298 90.46C83.4405 90.7587 83.8185 90.978 84.1638 91.118C84.5091 91.2487 84.8638 91.314 85.2278 91.314C85.7225 91.314 86.1331 91.1973 86.4598 90.964C86.7865 90.7307 86.9498 90.432 86.9498 90.068C86.9498 89.788 86.8518 89.5687 86.6558 89.41C86.4691 89.2513 86.1565 89.13 85.7178 89.046L84.5978 88.85C83.9351 88.7287 83.4451 88.5233 83.1278 88.234C82.8198 87.9447 82.6658 87.5527 82.6658 87.058C82.6658 86.666 82.7685 86.3207 82.9738 86.022C83.1885 85.7233 83.4825 85.49 83.8558 85.322C84.2291 85.1447 84.6538 85.056 85.1298 85.056C85.5965 85.056 86.0398 85.126 86.4598 85.266C86.8798 85.3967 87.3045 85.6113 87.7338 85.91L87.2298 86.624C86.8751 86.372 86.5205 86.19 86.1658 86.078C85.8111 85.9567 85.4518 85.896 85.0878 85.896C84.6398 85.896 84.2805 85.994 84.0098 86.19C83.7391 86.386 83.6038 86.652 83.6038 86.988C83.6038 87.268 83.6878 87.4827 83.8558 87.632C84.0331 87.7813 84.3411 87.8933 84.7798 87.968L85.9278 88.178C86.6185 88.2993 87.1225 88.5093 87.4398 88.808C87.7571 89.1067 87.9158 89.508 87.9158 90.012C87.9158 90.4133 87.7991 90.7773 87.5658 91.104C87.3325 91.4213 87.0151 91.6733 86.6138 91.86C86.2125 92.0467 85.7598 92.14 85.2558 92.14Z" fill="#1F1F1F"/>
<path d="M93 87.5C93 80.3203 98.8203 74.5 106 74.5H160C167.18 74.5 173 80.3203 173 87.5C173 94.6797 167.18 100.5 160 100.5H106C98.8203 100.5 93 94.6797 93 87.5Z" fill="#E0E0E0"/>
<path d="M105.86 91.632C105.276 91.632 104.732 91.524 104.228 91.308C103.724 91.084 103.28 90.776 102.896 90.384C102.52 89.984 102.224 89.524 102.008 89.004C101.792 88.476 101.684 87.908 101.684 87.3C101.684 86.692 101.792 86.128 102.008 85.608C102.224 85.08 102.52 84.62 102.896 84.228C103.28 83.828 103.724 83.52 104.228 83.304C104.732 83.08 105.276 82.968 105.86 82.968C106.444 82.968 106.988 83.08 107.492 83.304C107.996 83.52 108.436 83.828 108.812 84.228C109.196 84.62 109.496 85.08 109.712 85.608C109.928 86.128 110.036 86.692 110.036 87.3C110.036 87.908 109.928 88.476 109.712 89.004C109.496 89.524 109.196 89.984 108.812 90.384C108.436 90.776 107.996 91.084 107.492 91.308C106.988 91.524 106.444 91.632 105.86 91.632ZM105.86 90.792C106.316 90.792 106.74 90.704 107.132 90.528C107.524 90.352 107.868 90.104 108.164 89.784C108.46 89.464 108.688 89.092 108.848 88.668C109.016 88.244 109.1 87.788 109.1 87.3C109.1 86.804 109.016 86.348 108.848 85.932C108.688 85.508 108.46 85.136 108.164 84.816C107.868 84.496 107.524 84.248 107.132 84.072C106.74 83.896 106.316 83.808 105.86 83.808C105.404 83.808 104.98 83.896 104.588 84.072C104.196 84.248 103.852 84.496 103.556 84.816C103.26 85.136 103.028 85.508 102.86 85.932C102.7 86.348 102.62 86.8 102.62 87.288C102.62 87.784 102.7 88.244 102.86 88.668C103.028 89.092 103.26 89.464 103.556 89.784C103.852 90.104 104.196 90.352 104.588 90.528C104.98 90.704 105.404 90.792 105.86 90.792ZM111.615 94.008V85.644H112.479V86.484C112.703 86.188 112.975 85.964 113.295 85.812C113.623 85.652 113.983 85.572 114.375 85.572C114.887 85.572 115.343 85.708 115.743 85.98C116.151 86.244 116.475 86.604 116.715 87.06C116.955 87.508 117.075 88.012 117.075 88.572C117.075 89.132 116.951 89.64 116.703 90.096C116.463 90.552 116.135 90.916 115.719 91.188C115.311 91.452 114.847 91.584 114.327 91.584C113.959 91.584 113.619 91.516 113.307 91.38C112.995 91.236 112.723 91.032 112.491 90.768V94.008H111.615ZM114.159 90.828C114.551 90.828 114.899 90.732 115.203 90.54C115.515 90.34 115.759 90.072 115.935 89.736C116.119 89.392 116.211 89.008 116.211 88.584C116.211 88.152 116.119 87.768 115.935 87.432C115.759 87.096 115.515 86.832 115.203 86.64C114.899 86.44 114.551 86.34 114.159 86.34C113.815 86.34 113.495 86.412 113.199 86.556C112.911 86.692 112.675 86.888 112.491 87.144V90.012C112.683 90.268 112.923 90.468 113.211 90.612C113.507 90.756 113.823 90.828 114.159 90.828ZM120.48 91.62C119.976 91.62 119.592 91.5 119.328 91.26C119.072 91.012 118.944 90.656 118.944 90.192V86.364H117.732V85.644H118.944V84.036L119.82 83.832V85.644H121.5V86.364H119.82V89.964C119.82 90.276 119.884 90.5 120.012 90.636C120.148 90.772 120.368 90.84 120.672 90.84C120.824 90.84 120.96 90.828 121.08 90.804C121.2 90.78 121.34 90.74 121.5 90.684V91.464C121.34 91.52 121.172 91.56 120.996 91.584C120.82 91.608 120.648 91.62 120.48 91.62ZM122.771 91.5V85.644H123.647V91.5H122.771ZM123.215 84.192C123.039 84.192 122.887 84.132 122.759 84.012C122.639 83.884 122.579 83.736 122.579 83.568C122.579 83.4 122.639 83.256 122.759 83.136C122.887 83.008 123.039 82.944 123.215 82.944C123.391 82.944 123.539 83.008 123.659 83.136C123.787 83.256 123.851 83.4 123.851 83.568C123.851 83.736 123.787 83.884 123.659 84.012C123.539 84.132 123.391 84.192 123.215 84.192ZM128.035 91.596C127.491 91.596 127.003 91.464 126.571 91.2C126.139 90.936 125.799 90.576 125.551 90.12C125.303 89.664 125.179 89.148 125.179 88.572C125.179 87.996 125.303 87.48 125.551 87.024C125.799 86.568 126.139 86.208 126.571 85.944C127.003 85.68 127.491 85.548 128.035 85.548C128.571 85.548 129.051 85.68 129.475 85.944C129.907 86.208 130.247 86.568 130.495 87.024C130.743 87.48 130.867 87.996 130.867 88.572C130.867 89.148 130.743 89.664 130.495 90.12C130.247 90.576 129.907 90.936 129.475 91.2C129.051 91.464 128.571 91.596 128.035 91.596ZM128.023 90.828C128.407 90.828 128.747 90.732 129.043 90.54C129.339 90.34 129.571 90.068 129.739 89.724C129.915 89.38 130.003 88.996 130.003 88.572C130.003 88.14 129.915 87.756 129.739 87.42C129.571 87.076 129.339 86.808 129.043 86.616C128.747 86.416 128.407 86.316 128.023 86.316C127.639 86.316 127.299 86.416 127.003 86.616C126.707 86.808 126.471 87.076 126.295 87.42C126.127 87.756 126.043 88.14 126.043 88.572C126.043 88.996 126.127 89.38 126.295 89.724C126.471 90.068 126.707 90.34 127.003 90.54C127.299 90.732 127.639 90.828 128.023 90.828ZM132.404 91.5V85.644H133.28V86.592C133.504 86.24 133.772 85.98 134.084 85.812C134.396 85.636 134.748 85.548 135.14 85.548C135.564 85.548 135.932 85.64 136.244 85.824C136.564 86 136.812 86.252 136.988 86.58C137.172 86.9 137.264 87.276 137.264 87.708V91.5H136.388V87.96C136.388 87.44 136.244 87.032 135.956 86.736C135.676 86.432 135.296 86.28 134.816 86.28C134.496 86.28 134.204 86.356 133.94 86.508C133.676 86.66 133.456 86.884 133.28 87.18V91.5H132.404ZM142.762 91.5V84.036L141.418 84.636V83.844L143.086 83.1H143.626V91.5H142.762Z" fill="#1F1F1F"/>
<path fill-rule="evenodd" clip-rule="evenodd" d="M160.285 91.2907L160.791 90.7852C161.07 90.5061 161.07 90.0536 160.791 89.7743L158.516 87.5L160.791 85.2257C161.07 84.9466 161.07 84.4941 160.791 84.2148L160.285 83.7093C160.006 83.4302 159.554 83.4302 159.274 83.7093L157 85.9836L154.726 83.7093C154.447 83.4302 153.994 83.4302 153.715 83.7093L153.209 84.2148C152.93 84.4939 152.93 84.9464 153.209 85.2257L155.484 87.5L153.209 89.7743C152.93 90.0534 152.93 90.5059 153.209 90.7852L153.715 91.2907C153.994 91.5698 154.447 91.5698 154.726 91.2907L157 89.0164L159.274 91.2907C159.553 91.5698 160.006 91.5698 160.285 91.2907Z" fill="#1F1F1F"/>
<path d="M177 87.5C177 80.3203 182.82 74.5 190 74.5H247C254.18 74.5 260 80.3203 260 87.5C260 94.6797 254.18 100.5 247 100.5H190C182.82 100.5 177 94.6797 177 87.5Z" fill="#E0E0E0"/>
<path d="M189.86 91.632C189.276 91.632 188.732 91.524 188.228 91.308C187.724 91.084 187.28 90.776 186.896 90.384C186.52 89.984 186.224 89.524 186.008 89.004C185.792 88.476 185.684 87.908 185.684 87.3C185.684 86.692 185.792 86.128 186.008 85.608C186.224 85.08 186.52 84.62 186.896 84.228C187.28 83.828 187.724 83.52 188.228 83.304C188.732 83.08 189.276 82.968 189.86 82.968C190.444 82.968 190.988 83.08 191.492 83.304C191.996 83.52 192.436 83.828 192.812 84.228C193.196 84.62 193.496 85.08 193.712 85.608C193.928 86.128 194.036 86.692 194.036 87.3C194.036 87.908 193.928 88.476 193.712 89.004C193.496 89.524 193.196 89.984 192.812 90.384C192.436 90.776 191.996 91.084 191.492 91.308C190.988 91.524 190.444 91.632 189.86 91.632ZM189.86 90.792C190.316 90.792 190.74 90.704 191.132 90.528C191.524 90.352 191.868 90.104 192.164 89.784C192.46 89.464 192.688 89.092 192.848 88.668C193.016 88.244 193.1 87.788 193.1 87.3C193.1 86.804 193.016 86.348 192.848 85.932C192.688 85.508 192.46 85.136 192.164 84.816C191.868 84.496 191.524 84.248 191.132 84.072C190.74 83.896 190.316 83.808 189.86 83.808C189.404 83.808 188.98 83.896 188.588 84.072C188.196 84.248 187.852 84.496 187.556 84.816C187.26 85.136 187.028 85.508 186.86 85.932C186.7 86.348 186.62 86.8 186.62 87.288C186.62 87.784 186.7 88.244 186.86 88.668C187.028 89.092 187.26 89.464 187.556 89.784C187.852 90.104 188.196 90.352 188.588 90.528C188.98 90.704 189.404 90.792 189.86 90.792ZM195.615 94.008V85.644H196.479V86.484C196.703 86.188 196.975 85.964 197.295 85.812C197.623 85.652 197.983 85.572 198.375 85.572C198.887 85.572 199.343 85.708 199.743 85.98C200.151 86.244 200.475 86.604 200.715 87.06C200.955 87.508 201.075 88.012 201.075 88.572C201.075 89.132 200.951 89.64 200.703 90.096C200.463 90.552 200.135 90.916 199.719 91.188C199.311 91.452 198.847 91.584 198.327 91.584C197.959 91.584 197.619 91.516 197.307 91.38C196.995 91.236 196.723 91.032 196.491 90.768V94.008H195.615ZM198.159 90.828C198.551 90.828 198.899 90.732 199.203 90.54C199.515 90.34 199.759 90.072 199.935 89.736C200.119 89.392 200.211 89.008 200.211 88.584C200.211 88.152 200.119 87.768 199.935 87.432C199.759 87.096 199.515 86.832 199.203 86.64C198.899 86.44 198.551 86.34 198.159 86.34C197.815 86.34 197.495 86.412 197.199 86.556C196.911 86.692 196.675 86.888 196.491 87.144V90.012C196.683 90.268 196.923 90.468 197.211 90.612C197.507 90.756 197.823 90.828 198.159 90.828ZM204.48 91.62C203.976 91.62 203.592 91.5 203.328 91.26C203.072 91.012 202.944 90.656 202.944 90.192V86.364H201.732V85.644H202.944V84.036L203.82 83.832V85.644H205.5V86.364H203.82V89.964C203.82 90.276 203.884 90.5 204.012 90.636C204.148 90.772 204.368 90.84 204.672 90.84C204.824 90.84 204.96 90.828 205.08 90.804C205.2 90.78 205.34 90.74 205.5 90.684V91.464C205.34 91.52 205.172 91.56 204.996 91.584C204.82 91.608 204.648 91.62 204.48 91.62ZM206.771 91.5V85.644H207.647V91.5H206.771ZM207.215 84.192C207.039 84.192 206.887 84.132 206.759 84.012C206.639 83.884 206.579 83.736 206.579 83.568C206.579 83.4 206.639 83.256 206.759 83.136C206.887 83.008 207.039 82.944 207.215 82.944C207.391 82.944 207.539 83.008 207.659 83.136C207.787 83.256 207.851 83.4 207.851 83.568C207.851 83.736 207.787 83.884 207.659 84.012C207.539 84.132 207.391 84.192 207.215 84.192ZM212.035 91.596C211.491 91.596 211.003 91.464 210.571 91.2C210.139 90.936 209.799 90.576 209.551 90.12C209.303 89.664 209.179 89.148 209.179 88.572C209.179 87.996 209.303 87.48 209.551 87.024C209.799 86.568 210.139 86.208 210.571 85.944C211.003 85.68 211.491 85.548 212.035 85.548C212.571 85.548 213.051 85.68 213.475 85.944C213.907 86.208 214.247 86.568 214.495 87.024C214.743 87.48 214.867 87.996 214.867 88.572C214.867 89.148 214.743 89.664 214.495 90.12C214.247 90.576 213.907 90.936 213.475 91.2C213.051 91.464 212.571 91.596 212.035 91.596ZM212.023 90.828C212.407 90.828 212.747 90.732 213.043 90.54C213.339 90.34 213.571 90.068 213.739 89.724C213.915 89.38 214.003 88.996 214.003 88.572C214.003 88.14 213.915 87.756 213.739 87.42C213.571 87.076 213.339 86.808 213.043 86.616C212.747 86.416 212.407 86.316 212.023 86.316C211.639 86.316 211.299 86.416 211.003 86.616C210.707 86.808 210.471 87.076 210.295 87.42C210.127 87.756 210.043 88.14 210.043 88.572C210.043 88.996 210.127 89.38 210.295 89.724C210.471 90.068 210.707 90.34 211.003 90.54C211.299 90.732 211.639 90.828 212.023 90.828ZM216.404 91.5V85.644H217.28V86.592C217.504 86.24 217.772 85.98 218.084 85.812C218.396 85.636 218.748 85.548 219.14 85.548C219.564 85.548 219.932 85.64 220.244 85.824C220.564 86 220.812 86.252 220.988 86.58C221.172 86.9 221.264 87.276 221.264 87.708V91.5H220.388V87.96C220.388 87.44 220.244 87.032 219.956 86.736C219.676 86.432 219.296 86.28 218.816 86.28C218.496 86.28 218.204 86.356 217.94 86.508C217.676 86.66 217.456 86.884 217.28 87.18V91.5H216.404ZM225.538 91.5V90.864L228.898 87.192C229.162 86.904 229.366 86.652 229.51 86.436C229.662 86.212 229.766 86.004 229.822 85.812C229.886 85.62 229.918 85.416 229.918 85.2C229.918 84.776 229.75 84.428 229.414 84.156C229.086 83.876 228.666 83.736 228.154 83.736C227.762 83.736 227.398 83.812 227.062 83.964C226.726 84.116 226.35 84.38 225.934 84.756L225.43 84.156C225.87 83.756 226.314 83.46 226.762 83.268C227.21 83.068 227.678 82.968 228.166 82.968C228.67 82.968 229.118 83.064 229.51 83.256C229.902 83.44 230.21 83.696 230.434 84.024C230.658 84.352 230.77 84.728 230.77 85.152C230.77 85.432 230.734 85.692 230.662 85.932C230.59 86.164 230.462 86.416 230.278 86.688C230.094 86.952 229.83 87.272 229.486 87.648L226.618 90.756L230.95 90.744V91.5H225.538Z" fill="#1F1F1F"/>
<path fill-rule="evenodd" clip-rule="evenodd" d="M247.285 91.2907L247.791 90.7852C248.07 90.5061 248.07 90.0536 247.791 89.7743L245.516 87.5L247.791 85.2257C248.07 84.9466 248.07 84.4941 247.791 84.2148L247.285 83.7093C247.006 83.4302 246.554 83.4302 246.274 83.7093L244 85.9836L241.726 83.7093C241.447 83.4302 240.994 83.4302 240.715 83.7093L240.209 84.2148C239.93 84.4939 239.93 84.9464 240.209 85.2257L242.484 87.5L240.209 89.7743C239.93 90.0534 239.93 90.5059 240.209 90.7852L240.715 91.2907C240.994 91.5698 241.447 91.5698 241.726 91.2907L244 89.0164L246.274 91.2907C246.553 91.5698 247.006 91.5698 247.285 91.2907Z" fill="#1F1F1F"/>
<path fill-rule="evenodd" clip-rule="evenodd" d="M275.285 91.2907L275.791 90.7852C276.07 90.5061 276.07 90.0536 275.791 89.7743L273.516 87.5L275.791 85.2257C276.07 84.9466 276.07 84.4941 275.791 84.2148L275.285 83.7093C275.006 83.4302 274.554 83.4302 274.274 83.7093L272 85.9836L269.726 83.7093C269.447 83.4302 268.994 83.4302 268.715 83.7093L268.209 84.2148C267.93 84.4939 267.93 84.9464 268.209 85.2257L270.484 87.5L268.209 89.7743C267.93 90.0534 267.93 90.5059 268.209 90.7852L268.715 91.2907C268.994 91.5698 269.447 91.5698 269.726 91.2907L272 89.0164L274.274 91.2907C274.553 91.5698 275.006 91.5698 275.285 91.2907Z" fill="#1F1F1F"/>
<path d="M304.714 92V91.258L308.634 86.974C308.942 86.638 309.18 86.344 309.348 86.092C309.525 85.8307 309.647 85.588 309.712 85.364C309.787 85.14 309.824 84.902 309.824 84.65C309.824 84.1553 309.628 83.7493 309.236 83.432C308.853 83.1053 308.363 82.942 307.766 82.942C307.309 82.942 306.884 83.0307 306.492 83.208C306.1 83.3853 305.661 83.6933 305.176 84.132L304.588 83.432C305.101 82.9653 305.619 82.62 306.142 82.396C306.665 82.1627 307.211 82.046 307.78 82.046C308.368 82.046 308.891 82.158 309.348 82.382C309.805 82.5967 310.165 82.8953 310.426 83.278C310.687 83.6607 310.818 84.0993 310.818 84.594C310.818 84.9207 310.776 85.224 310.692 85.504C310.608 85.7747 310.459 86.0687 310.244 86.386C310.029 86.694 309.721 87.0673 309.32 87.506L305.974 91.132L311.028 91.118V92H304.714ZM316.856 92V86.008H315.33V85.168H316.856V83.74C316.856 83.068 317.033 82.55 317.388 82.186C317.742 81.822 318.246 81.64 318.9 81.64C319.086 81.64 319.254 81.6493 319.404 81.668C319.562 81.6867 319.702 81.7193 319.824 81.766V82.69C319.674 82.6433 319.539 82.6107 319.418 82.592C319.296 82.5733 319.156 82.564 318.998 82.564C318.606 82.564 318.321 82.662 318.144 82.858C317.966 83.0447 317.878 83.3433 317.878 83.754V85.168H319.824V86.008H317.878V92H316.856ZM321.155 92V85.168H322.177V92H321.155ZM321.673 83.474C321.468 83.474 321.29 83.404 321.141 83.264C321.001 83.1147 320.931 82.942 320.931 82.746C320.931 82.55 321.001 82.382 321.141 82.242C321.29 82.0927 321.468 82.018 321.673 82.018C321.878 82.018 322.051 82.0927 322.191 82.242C322.34 82.382 322.415 82.55 322.415 82.746C322.415 82.942 322.34 83.1147 322.191 83.264C322.051 83.404 321.878 83.474 321.673 83.474ZM324.273 92V81.892L325.295 81.682V92H324.273ZM329.994 92.14C329.406 92.14 328.958 92 328.65 91.72C328.351 91.4307 328.202 91.0153 328.202 90.474V86.008H326.788V85.168H328.202V83.292L329.224 83.054V85.168H331.184V86.008H329.224V90.208C329.224 90.572 329.299 90.8333 329.448 90.992C329.607 91.1507 329.863 91.23 330.218 91.23C330.395 91.23 330.554 91.216 330.694 91.188C330.834 91.16 330.997 91.1133 331.184 91.048V91.958C330.997 92.0233 330.801 92.07 330.596 92.098C330.391 92.126 330.19 92.14 329.994 92.14ZM335.624 92.14C334.989 92.14 334.415 91.986 333.902 91.678C333.389 91.3607 332.983 90.936 332.684 90.404C332.385 89.8627 332.236 89.256 332.236 88.584C332.236 87.912 332.376 87.31 332.656 86.778C332.945 86.246 333.333 85.826 333.818 85.518C334.303 85.21 334.845 85.056 335.442 85.056C336.049 85.056 336.585 85.21 337.052 85.518C337.528 85.8167 337.901 86.2273 338.172 86.75C338.452 87.2633 338.592 87.8467 338.592 88.5V88.808H333.23C333.267 89.2747 333.393 89.6947 333.608 90.068C333.832 90.432 334.121 90.7213 334.476 90.936C334.84 91.1413 335.237 91.244 335.666 91.244C336.021 91.244 336.361 91.1833 336.688 91.062C337.024 90.9313 337.309 90.7587 337.542 90.544L338.186 91.23C337.794 91.538 337.388 91.7667 336.968 91.916C336.548 92.0653 336.1 92.14 335.624 92.14ZM333.258 88.08H337.584C337.537 87.6693 337.411 87.3053 337.206 86.988C337.01 86.6613 336.758 86.4047 336.45 86.218C336.151 86.0313 335.815 85.938 335.442 85.938C335.069 85.938 334.728 86.0313 334.42 86.218C334.112 86.3953 333.855 86.6473 333.65 86.974C333.454 87.2913 333.323 87.66 333.258 88.08ZM340.337 92V85.168H341.359V86.568C341.536 86.092 341.788 85.7233 342.115 85.462C342.451 85.1913 342.834 85.056 343.263 85.056C343.384 85.056 343.496 85.0653 343.599 85.084C343.702 85.0933 343.804 85.1167 343.907 85.154V86.078C343.795 86.0407 343.674 86.0127 343.543 85.994C343.422 85.966 343.305 85.952 343.193 85.952C342.773 85.952 342.404 86.0733 342.087 86.316C341.779 86.5587 341.536 86.8993 341.359 87.338V92H340.337ZM347.305 92.14C346.745 92.14 346.227 92.056 345.751 91.888C345.275 91.7107 344.869 91.4587 344.533 91.132L345.079 90.46C345.489 90.7587 345.867 90.978 346.213 91.118C346.558 91.2487 346.913 91.314 347.277 91.314C347.771 91.314 348.182 91.1973 348.509 90.964C348.835 90.7307 348.999 90.432 348.999 90.068C348.999 89.788 348.901 89.5687 348.705 89.41C348.518 89.2513 348.205 89.13 347.767 89.046L346.647 88.85C345.984 88.7287 345.494 88.5233 345.177 88.234C344.869 87.9447 344.715 87.5527 344.715 87.058C344.715 86.666 344.817 86.3207 345.023 86.022C345.237 85.7233 345.531 85.49 345.905 85.322C346.278 85.1447 346.703 85.056 347.179 85.056C347.645 85.056 348.089 85.126 348.509 85.266C348.929 85.3967 349.353 85.6113 349.783 85.91L349.279 86.624C348.924 86.372 348.569 86.19 348.215 86.078C347.86 85.9567 347.501 85.896 347.137 85.896C346.689 85.896 346.329 85.994 346.059 86.19C345.788 86.386 345.653 86.652 345.653 86.988C345.653 87.268 345.737 87.4827 345.905 87.632C346.082 87.7813 346.39 87.8933 346.829 87.968L347.977 88.178C348.667 88.2993 349.171 88.5093 349.489 88.808C349.806 89.1067 349.965 89.508 349.965 90.012C349.965 90.4133 349.848 90.7773 349.615 91.104C349.381 91.4213 349.064 91.6733 348.663 91.86C348.261 92.0467 347.809 92.14 347.305 92.14ZM356.902 92.126C356.417 92.126 355.988 92.0373 355.614 91.86C355.241 91.6827 354.947 91.44 354.732 91.132C354.527 90.8147 354.424 90.4507 354.424 90.04C354.424 89.6293 354.532 89.2747 354.746 88.976C354.961 88.668 355.26 88.43 355.642 88.262C356.025 88.094 356.473 88.01 356.986 88.01C357.378 88.01 357.747 88.052 358.092 88.136C358.447 88.22 358.774 88.3553 359.072 88.542V87.604C359.072 87.044 358.923 86.624 358.624 86.344C358.326 86.0547 357.887 85.91 357.308 85.91C356.991 85.91 356.664 85.9567 356.328 86.05C356.002 86.1433 355.638 86.2927 355.236 86.498L354.858 85.714C355.773 85.2753 356.632 85.056 357.434 85.056C358.284 85.056 358.937 85.266 359.394 85.686C359.852 86.0967 360.08 86.6893 360.08 87.464V92H359.072V91.202C358.774 91.51 358.442 91.7433 358.078 91.902C357.714 92.0513 357.322 92.126 356.902 92.126ZM355.404 90.012C355.404 90.4133 355.558 90.7353 355.866 90.978C356.184 91.2207 356.599 91.342 357.112 91.342C357.495 91.342 357.845 91.2767 358.162 91.146C358.489 91.0153 358.792 90.8193 359.072 90.558V89.242C358.783 89.074 358.484 88.9527 358.176 88.878C357.868 88.794 357.523 88.752 357.14 88.752C356.618 88.752 356.198 88.8687 355.88 89.102C355.563 89.326 355.404 89.6293 355.404 90.012ZM362.157 94.926V85.168H363.165V86.148C363.427 85.8027 363.744 85.5413 364.117 85.364C364.5 85.1773 364.92 85.084 365.377 85.084C365.975 85.084 366.507 85.2427 366.973 85.56C367.449 85.868 367.827 86.288 368.107 86.82C368.387 87.3427 368.527 87.9307 368.527 88.584C368.527 89.2373 368.383 89.83 368.093 90.362C367.813 90.894 367.431 91.3187 366.945 91.636C366.469 91.944 365.928 92.098 365.321 92.098C364.892 92.098 364.495 92.0187 364.131 91.86C363.767 91.692 363.45 91.454 363.179 91.146V94.926H362.157ZM365.125 91.216C365.583 91.216 365.989 91.104 366.343 90.88C366.707 90.6467 366.992 90.334 367.197 89.942C367.412 89.5407 367.519 89.0927 367.519 88.598C367.519 88.094 367.412 87.646 367.197 87.254C366.992 86.862 366.707 86.554 366.343 86.33C365.989 86.0967 365.583 85.98 365.125 85.98C364.724 85.98 364.351 86.064 364.005 86.232C363.669 86.3907 363.394 86.6193 363.179 86.918V90.264C363.403 90.5627 363.683 90.796 364.019 90.964C364.365 91.132 364.733 91.216 365.125 91.216ZM370.32 94.926V85.168H371.328V86.148C371.589 85.8027 371.906 85.5413 372.28 85.364C372.662 85.1773 373.082 85.084 373.54 85.084C374.137 85.084 374.669 85.2427 375.136 85.56C375.612 85.868 375.99 86.288 376.27 86.82C376.55 87.3427 376.69 87.9307 376.69 88.584C376.69 89.2373 376.545 89.83 376.256 90.362C375.976 90.894 375.593 91.3187 375.108 91.636C374.632 91.944 374.09 92.098 373.484 92.098C373.054 92.098 372.658 92.0187 372.294 91.86C371.93 91.692 371.612 91.454 371.342 91.146V94.926H370.32ZM373.288 91.216C373.745 91.216 374.151 91.104 374.506 90.88C374.87 90.6467 375.154 90.334 375.36 89.942C375.574 89.5407 375.682 89.0927 375.682 88.598C375.682 88.094 375.574 87.646 375.36 87.254C375.154 86.862 374.87 86.554 374.506 86.33C374.151 86.0967 373.745 85.98 373.288 85.98C372.886 85.98 372.513 86.064 372.168 86.232C371.832 86.3907 371.556 86.6193 371.342 86.918V90.264C371.566 90.5627 371.846 90.796 372.182 90.964C372.527 91.132 372.896 91.216 373.288 91.216ZM378.482 92V81.892L379.504 81.682V92H378.482ZM381.585 92V85.168H382.607V92H381.585ZM382.103 83.474C381.897 83.474 381.72 83.404 381.571 83.264C381.431 83.1147 381.361 82.942 381.361 82.746C381.361 82.55 381.431 82.382 381.571 82.242C381.72 82.0927 381.897 82.018 382.103 82.018C382.308 82.018 382.481 82.0927 382.621 82.242C382.77 82.382 382.845 82.55 382.845 82.746C382.845 82.942 382.77 83.1147 382.621 83.264C382.481 83.404 382.308 83.474 382.103 83.474ZM387.782 92.14C387.148 92.14 386.574 91.986 386.06 91.678C385.547 91.3607 385.141 90.936 384.842 90.404C384.544 89.8627 384.394 89.256 384.394 88.584C384.394 87.912 384.534 87.31 384.814 86.778C385.104 86.246 385.491 85.826 385.976 85.518C386.462 85.21 387.003 85.056 387.6 85.056C388.207 85.056 388.744 85.21 389.21 85.518C389.686 85.8167 390.06 86.2273 390.33 86.75C390.61 87.2633 390.75 87.8467 390.75 88.5V88.808H385.388C385.426 89.2747 385.552 89.6947 385.766 90.068C385.99 90.432 386.28 90.7213 386.634 90.936C386.998 91.1413 387.395 91.244 387.824 91.244C388.179 91.244 388.52 91.1833 388.846 91.062C389.182 90.9313 389.467 90.7587 389.7 90.544L390.344 91.23C389.952 91.538 389.546 91.7667 389.126 91.916C388.706 92.0653 388.258 92.14 387.782 92.14ZM385.416 88.08H389.742C389.696 87.6693 389.57 87.3053 389.364 86.988C389.168 86.6613 388.916 86.4047 388.608 86.218C388.31 86.0313 387.974 85.938 387.6 85.938C387.227 85.938 386.886 86.0313 386.578 86.218C386.27 86.3953 386.014 86.6473 385.808 86.974C385.612 87.2913 385.482 87.66 385.416 88.08ZM395.337 92.098C394.749 92.098 394.217 91.944 393.741 91.636C393.265 91.3187 392.887 90.8987 392.607 90.376C392.327 89.844 392.187 89.2513 392.187 88.598C392.187 87.9353 392.327 87.3427 392.607 86.82C392.897 86.288 393.284 85.868 393.769 85.56C394.255 85.2427 394.796 85.084 395.393 85.084C395.813 85.084 396.205 85.168 396.569 85.336C396.933 85.4947 397.251 85.728 397.521 86.036V81.892L398.543 81.682V92H397.521V91.09C397.26 91.4167 396.943 91.6687 396.569 91.846C396.196 92.014 395.785 92.098 395.337 92.098ZM395.589 91.202C395.991 91.202 396.359 91.1227 396.695 90.964C397.031 90.8053 397.307 90.5813 397.521 90.292V86.904C397.297 86.6147 397.013 86.3907 396.667 86.232C396.331 86.064 395.972 85.98 395.589 85.98C395.132 85.98 394.721 86.092 394.357 86.316C394.003 86.54 393.718 86.848 393.503 87.24C393.298 87.632 393.195 88.08 393.195 88.584C393.195 89.0787 393.298 89.5267 393.503 89.928C393.718 90.32 394.003 90.6327 394.357 90.866C394.721 91.09 395.132 91.202 395.589 91.202Z" fill="black"/>
<path d="M421.768 92.154C421.068 92.154 420.415 92.028 419.808 91.776C419.211 91.5147 418.683 91.1553 418.226 90.698C417.769 90.2313 417.414 89.6947 417.162 89.088C416.91 88.472 416.784 87.8093 416.784 87.1C416.784 86.3907 416.91 85.7327 417.162 85.126C417.414 84.51 417.769 83.9733 418.226 83.516C418.683 83.0493 419.211 82.69 419.808 82.438C420.415 82.1767 421.068 82.046 421.768 82.046C422.253 82.046 422.715 82.1113 423.154 82.242C423.602 82.3633 424.022 82.5453 424.414 82.788C424.806 83.0213 425.156 83.3107 425.464 83.656L424.75 84.398C424.386 83.9593 423.938 83.6233 423.406 83.39C422.883 83.1473 422.337 83.026 421.768 83.026C421.217 83.026 420.704 83.1287 420.228 83.334C419.752 83.5393 419.337 83.8287 418.982 84.202C418.637 84.5753 418.366 85.0093 418.17 85.504C417.974 85.9893 417.876 86.5213 417.876 87.1C417.876 87.6693 417.974 88.2013 418.17 88.696C418.366 89.1907 418.637 89.6247 418.982 89.998C419.337 90.3713 419.752 90.6607 420.228 90.866C420.704 91.0713 421.217 91.174 421.768 91.174C422.337 91.174 422.883 91.0527 423.406 90.81C423.938 90.5673 424.386 90.2313 424.75 89.802L425.464 90.544C425.156 90.8893 424.806 91.1833 424.414 91.426C424.022 91.6593 423.602 91.8413 423.154 91.972C422.715 92.0933 422.253 92.154 421.768 92.154ZM427.208 92V81.892L428.23 81.682V92H427.208ZM433.405 92.14C432.771 92.14 432.197 91.986 431.683 91.678C431.17 91.3607 430.764 90.936 430.465 90.404C430.167 89.8627 430.017 89.256 430.017 88.584C430.017 87.912 430.157 87.31 430.437 86.778C430.727 86.246 431.114 85.826 431.599 85.518C432.085 85.21 432.626 85.056 433.223 85.056C433.83 85.056 434.367 85.21 434.833 85.518C435.309 85.8167 435.683 86.2273 435.953 86.75C436.233 87.2633 436.373 87.8467 436.373 88.5V88.808H431.011C431.049 89.2747 431.175 89.6947 431.389 90.068C431.613 90.432 431.903 90.7213 432.257 90.936C432.621 91.1413 433.018 91.244 433.447 91.244C433.802 91.244 434.143 91.1833 434.469 91.062C434.805 90.9313 435.09 90.7587 435.323 90.544L435.967 91.23C435.575 91.538 435.169 91.7667 434.749 91.916C434.329 92.0653 433.881 92.14 433.405 92.14ZM431.039 88.08H435.365C435.319 87.6693 435.193 87.3053 434.987 86.988C434.791 86.6613 434.539 86.4047 434.231 86.218C433.933 86.0313 433.597 85.938 433.223 85.938C432.85 85.938 432.509 86.0313 432.201 86.218C431.893 86.3953 431.637 86.6473 431.431 86.974C431.235 87.2913 431.105 87.66 431.039 88.08ZM440.096 92.126C439.61 92.126 439.181 92.0373 438.808 91.86C438.434 91.6827 438.14 91.44 437.926 91.132C437.72 90.8147 437.618 90.4507 437.618 90.04C437.618 89.6293 437.725 89.2747 437.94 88.976C438.154 88.668 438.453 88.43 438.836 88.262C439.218 88.094 439.666 88.01 440.18 88.01C440.572 88.01 440.94 88.052 441.286 88.136C441.64 88.22 441.967 88.3553 442.266 88.542V87.604C442.266 87.044 442.116 86.624 441.818 86.344C441.519 86.0547 441.08 85.91 440.502 85.91C440.184 85.91 439.858 85.9567 439.522 86.05C439.195 86.1433 438.831 86.2927 438.43 86.498L438.052 85.714C438.966 85.2753 439.825 85.056 440.628 85.056C441.477 85.056 442.13 85.266 442.588 85.686C443.045 86.0967 443.274 86.6893 443.274 87.464V92H442.266V91.202C441.967 91.51 441.636 91.7433 441.272 91.902C440.908 92.0513 440.516 92.126 440.096 92.126ZM438.598 90.012C438.598 90.4133 438.752 90.7353 439.06 90.978C439.377 91.2207 439.792 91.342 440.306 91.342C440.688 91.342 441.038 91.2767 441.356 91.146C441.682 91.0153 441.986 90.8193 442.266 90.558V89.242C441.976 89.074 441.678 88.9527 441.37 88.878C441.062 88.794 440.716 88.752 440.334 88.752C439.811 88.752 439.391 88.8687 439.074 89.102C438.756 89.326 438.598 89.6293 438.598 90.012ZM445.351 92V85.168H446.373V86.568C446.55 86.092 446.802 85.7233 447.129 85.462C447.465 85.1913 447.847 85.056 448.277 85.056C448.398 85.056 448.51 85.0653 448.613 85.084C448.715 85.0933 448.818 85.1167 448.921 85.154V86.078C448.809 86.0407 448.687 86.0127 448.557 85.994C448.435 85.966 448.319 85.952 448.207 85.952C447.787 85.952 447.418 86.0733 447.101 86.316C446.793 86.5587 446.55 86.8993 446.373 87.338V92H445.351ZM454.408 92V86.008H452.882V85.168H454.408V83.74C454.408 83.068 454.586 82.55 454.94 82.186C455.295 81.822 455.799 81.64 456.452 81.64C456.639 81.64 456.807 81.6493 456.956 81.668C457.115 81.6867 457.255 81.7193 457.376 81.766V82.69C457.227 82.6433 457.092 82.6107 456.97 82.592C456.849 82.5733 456.709 82.564 456.55 82.564C456.158 82.564 455.874 82.662 455.696 82.858C455.519 83.0447 455.43 83.3433 455.43 83.754V85.168H457.376V86.008H455.43V92H454.408ZM458.708 92V85.168H459.73V92H458.708ZM459.226 83.474C459.021 83.474 458.843 83.404 458.694 83.264C458.554 83.1147 458.484 82.942 458.484 82.746C458.484 82.55 458.554 82.382 458.694 82.242C458.843 82.0927 459.021 82.018 459.226 82.018C459.431 82.018 459.604 82.0927 459.744 82.242C459.893 82.382 459.968 82.55 459.968 82.746C459.968 82.942 459.893 83.1147 459.744 83.264C459.604 83.404 459.431 83.474 459.226 83.474ZM461.825 92V81.892L462.847 81.682V92H461.825ZM467.547 92.14C466.959 92.14 466.511 92 466.203 91.72C465.904 91.4307 465.755 91.0153 465.755 90.474V86.008H464.341V85.168H465.755V83.292L466.777 83.054V85.168H468.737V86.008H466.777V90.208C466.777 90.572 466.851 90.8333 467.001 90.992C467.159 91.1507 467.416 91.23 467.771 91.23C467.948 91.23 468.107 91.216 468.247 91.188C468.387 91.16 468.55 91.1133 468.737 91.048V91.958C468.55 92.0233 468.354 92.07 468.149 92.098C467.943 92.126 467.743 92.14 467.547 92.14ZM473.177 92.14C472.542 92.14 471.968 91.986 471.455 91.678C470.942 91.3607 470.536 90.936 470.237 90.404C469.938 89.8627 469.789 89.256 469.789 88.584C469.789 87.912 469.929 87.31 470.209 86.778C470.498 86.246 470.886 85.826 471.371 85.518C471.856 85.21 472.398 85.056 472.995 85.056C473.602 85.056 474.138 85.21 474.605 85.518C475.081 85.8167 475.454 86.2273 475.725 86.75C476.005 87.2633 476.145 87.8467 476.145 88.5V88.808H470.783C470.82 89.2747 470.946 89.6947 471.161 90.068C471.385 90.432 471.674 90.7213 472.029 90.936C472.393 91.1413 472.79 91.244 473.219 91.244C473.574 91.244 473.914 91.1833 474.241 91.062C474.577 90.9313 474.862 90.7587 475.095 90.544L475.739 91.23C475.347 91.538 474.941 91.7667 474.521 91.916C474.101 92.0653 473.653 92.14 473.177 92.14ZM470.811 88.08H475.137C475.09 87.6693 474.964 87.3053 474.759 86.988C474.563 86.6613 474.311 86.4047 474.003 86.218C473.704 86.0313 473.368 85.938 472.995 85.938C472.622 85.938 472.281 86.0313 471.973 86.218C471.665 86.3953 471.408 86.6473 471.203 86.974C471.007 87.2913 470.876 87.66 470.811 88.08ZM477.89 92V85.168H478.912V86.568C479.089 86.092 479.341 85.7233 479.668 85.462C480.004 85.1913 480.387 85.056 480.816 85.056C480.937 85.056 481.049 85.0653 481.152 85.084C481.255 85.0933 481.357 85.1167 481.46 85.154V86.078C481.348 86.0407 481.227 86.0127 481.096 85.994C480.975 85.966 480.858 85.952 480.746 85.952C480.326 85.952 479.957 86.0733 479.64 86.316C479.332 86.5587 479.089 86.8993 478.912 87.338V92H477.89ZM484.857 92.14C484.297 92.14 483.779 92.056 483.303 91.888C482.827 91.7107 482.421 91.4587 482.085 91.132L482.631 90.46C483.042 90.7587 483.42 90.978 483.765 91.118C484.111 91.2487 484.465 91.314 484.829 91.314C485.324 91.314 485.735 91.1973 486.061 90.964C486.388 90.7307 486.551 90.432 486.551 90.068C486.551 89.788 486.453 89.5687 486.257 89.41C486.071 89.2513 485.758 89.13 485.319 89.046L484.199 88.85C483.537 88.7287 483.047 88.5233 482.729 88.234C482.421 87.9447 482.267 87.5527 482.267 87.058C482.267 86.666 482.37 86.3207 482.575 86.022C482.79 85.7233 483.084 85.49 483.457 85.322C483.831 85.1447 484.255 85.056 484.731 85.056C485.198 85.056 485.641 85.126 486.061 85.266C486.481 85.3967 486.906 85.6113 487.335 85.91L486.831 86.624C486.477 86.372 486.122 86.19 485.767 86.078C485.413 85.9567 485.053 85.896 484.689 85.896C484.241 85.896 483.882 85.994 483.611 86.19C483.341 86.386 483.205 86.652 483.205 86.988C483.205 87.268 483.289 87.4827 483.457 87.632C483.635 87.7813 483.943 87.8933 484.381 87.968L485.529 88.178C486.22 88.2993 486.724 88.5093 487.041 88.808C487.359 89.1067 487.517 89.508 487.517 90.012C487.517 90.4133 487.401 90.7773 487.167 91.104C486.934 91.4213 486.617 91.6733 486.215 91.86C485.814 92.0467 485.361 92.14 484.857 92.14Z" fill="#0066CC"/>
<path d="M105 30C105 27.7909 106.791 26 109 26H139C141.209 26 143 27.7909 143 30V54C143 56.2091 141.209 58 139 58H109C106.791 58 105 56.2091 105 54V30Z" fill="#C806CC"/>
<path d="M123.888 48V37.254L121.62 38.208V36.624L124.536 35.4H125.67V48H123.888Z" fill="white"/>
<path d="M124 68.3333C122.527 68.3333 121.333 69.5272 121.333 71C121.333 72.4728 122.527 73.6667 124 73.6667C125.473 73.6667 126.667 72.4728 126.667 71C126.667 69.5272 125.473 68.3333 124 68.3333ZM123.5 58L123.5 71L124.5 71L124.5 58L123.5 58Z" fill="#C806CC"/>
</svg>
