<svg width="358" height="131" viewBox="0 0 358 131" fill="none" xmlns="http://www.w3.org/2000/svg">
<g clip-path="url(#clip0_157_10749)">
<rect width="358" height="131" fill="white"/>
<rect width="462" height="69" transform="translate(0 62)" fill="white"/>
<rect width="462" height="69" transform="translate(0 62)" fill="white"/>
<path d="M17 84C17 81.2386 19.2386 79 22 79H144C146.761 79 149 81.2386 149 84V109C149 111.761 146.761 114 144 114H22C19.2386 114 17 111.761 17 109V84Z" fill="white"/>
<path d="M17 84C17 81.2386 19.2386 79 22 79H144C146.761 79 149 81.2386 149 84V109C149 111.761 146.761 114 144 114H22C19.2386 114 17 111.761 17 109V84Z" stroke="#0066CC" stroke-width="2"/>
<path fill-rule="evenodd" clip-rule="evenodd" d="M45.75 102.843V95.6781L50.8071 90.6203C51.2193 90.2081 50.9272 89.5 50.3431 89.5H37.657C37.0741 89.5 36.78 90.2073 37.193 90.6203L42.25 95.6781V101.312C42.25 101.527 42.3545 101.727 42.5299 101.85L44.7174 103.381C45.149 103.683 45.75 103.377 45.75 102.843Z" fill="#1F1F1F"/>
<path d="M68.41 101.154C67.6447 101.154 66.9353 101.019 66.282 100.748C65.6287 100.468 64.9987 100.048 64.392 99.488L65.05 98.704C65.638 99.2547 66.1887 99.6467 66.702 99.88C67.2247 100.113 67.8033 100.23 68.438 100.23C68.942 100.23 69.39 100.146 69.782 99.978C70.1833 99.8007 70.496 99.5627 70.72 99.264C70.944 98.9653 71.056 98.6247 71.056 98.242C71.056 97.7473 70.8927 97.374 70.566 97.122C70.2393 96.8607 69.6747 96.66 68.872 96.52L67.29 96.254C66.394 96.0953 65.736 95.8247 65.316 95.442C64.9053 95.05 64.7 94.5273 64.7 93.874C64.7 93.3233 64.84 92.838 65.12 92.418C65.4093 91.9887 65.806 91.6527 66.31 91.41C66.814 91.1673 67.3973 91.046 68.06 91.046C68.788 91.046 69.4647 91.1487 70.09 91.354C70.7153 91.55 71.3313 91.8627 71.938 92.292L71.378 93.132C70.874 92.7493 70.342 92.46 69.782 92.264C69.222 92.0587 68.6527 91.956 68.074 91.956C67.6167 91.956 67.2107 92.0353 66.856 92.194C66.5107 92.3527 66.2353 92.5673 66.03 92.838C65.834 93.1087 65.736 93.4167 65.736 93.762C65.736 94.1913 65.8807 94.5273 66.17 94.77C66.4593 95.0127 66.9307 95.1853 67.584 95.288L69.152 95.554C70.1973 95.7407 70.9533 96.044 71.42 96.464C71.896 96.8747 72.134 97.4487 72.134 98.186C72.134 98.7553 71.9707 99.264 71.644 99.712C71.3267 100.16 70.888 100.515 70.328 100.776C69.768 101.028 69.1287 101.154 68.41 101.154ZM76.1716 101.14C75.5836 101.14 75.1356 101 74.8276 100.72C74.5289 100.431 74.3796 100.015 74.3796 99.474V95.008H72.9656V94.168H74.3796V92.292L75.4016 92.054V94.168H77.3616V95.008H75.4016V99.208C75.4016 99.572 75.4762 99.8333 75.6256 99.992C75.7842 100.151 76.0409 100.23 76.3956 100.23C76.5729 100.23 76.7316 100.216 76.8716 100.188C77.0116 100.16 77.1749 100.113 77.3616 100.048V100.958C77.1749 101.023 76.9789 101.07 76.7736 101.098C76.5682 101.126 76.3676 101.14 76.1716 101.14ZM80.9726 101.126C80.4873 101.126 80.0579 101.037 79.6846 100.86C79.3113 100.683 79.0173 100.44 78.8026 100.132C78.5973 99.8147 78.4946 99.4507 78.4946 99.04C78.4946 98.6293 78.6019 98.2747 78.8166 97.976C79.0313 97.668 79.3299 97.43 79.7126 97.262C80.0953 97.094 80.5433 97.01 81.0566 97.01C81.4486 97.01 81.8173 97.052 82.1626 97.136C82.5173 97.22 82.8439 97.3553 83.1426 97.542V96.604C83.1426 96.044 82.9933 95.624 82.6946 95.344C82.3959 95.0547 81.9573 94.91 81.3786 94.91C81.0613 94.91 80.7346 94.9567 80.3986 95.05C80.0719 95.1433 79.7079 95.2927 79.3066 95.498L78.9286 94.714C79.8433 94.2753 80.7019 94.056 81.5046 94.056C82.3539 94.056 83.0073 94.266 83.4646 94.686C83.9219 95.0967 84.1506 95.6893 84.1506 96.464V101H83.1426V100.202C82.8439 100.51 82.5126 100.743 82.1486 100.902C81.7846 101.051 81.3926 101.126 80.9726 101.126ZM79.4746 99.012C79.4746 99.4133 79.6286 99.7353 79.9366 99.978C80.2539 100.221 80.6693 100.342 81.1826 100.342C81.5653 100.342 81.9153 100.277 82.2326 100.146C82.5593 100.015 82.8626 99.8193 83.1426 99.558V98.242C82.8533 98.074 82.5546 97.9527 82.2466 97.878C81.9386 97.794 81.5933 97.752 81.2106 97.752C80.6879 97.752 80.2679 97.8687 79.9506 98.102C79.6333 98.326 79.4746 98.6293 79.4746 99.012ZM88.6267 101.14C88.0387 101.14 87.5907 101 87.2827 100.72C86.984 100.431 86.8347 100.015 86.8347 99.474V95.008H85.4207V94.168H86.8347V92.292L87.8567 92.054V94.168H89.8167V95.008H87.8567V99.208C87.8567 99.572 87.9313 99.8333 88.0807 99.992C88.2393 100.151 88.496 100.23 88.8507 100.23C89.028 100.23 89.1867 100.216 89.3267 100.188C89.4667 100.16 89.63 100.113 89.8167 100.048V100.958C89.63 101.023 89.434 101.07 89.2287 101.098C89.0233 101.126 88.8227 101.14 88.6267 101.14ZM93.7497 101.112C93.2643 101.112 92.835 101.005 92.4617 100.79C92.0883 100.575 91.7943 100.277 91.5797 99.894C91.3743 99.5113 91.2717 99.0727 91.2717 98.578V94.168H92.3077V98.284C92.3077 98.8907 92.471 99.3713 92.7977 99.726C93.1243 100.081 93.5677 100.258 94.1277 100.258C94.5103 100.258 94.851 100.169 95.1497 99.992C95.4577 99.8147 95.7143 99.558 95.9197 99.222V94.168H96.9417V101H95.9197V99.894C95.6583 100.295 95.3457 100.599 94.9817 100.804C94.627 101.009 94.2163 101.112 93.7497 101.112ZM101.152 101.14C100.592 101.14 100.074 101.056 99.5983 100.888C99.1223 100.711 98.7163 100.459 98.3803 100.132L98.9263 99.46C99.3369 99.7587 99.7149 99.978 100.06 100.118C100.406 100.249 100.76 100.314 101.124 100.314C101.619 100.314 102.03 100.197 102.356 99.964C102.683 99.7307 102.846 99.432 102.846 99.068C102.846 98.788 102.748 98.5687 102.552 98.41C102.366 98.2513 102.053 98.13 101.614 98.046L100.494 97.85C99.8316 97.7287 99.3416 97.5233 99.0243 97.234C98.7163 96.9447 98.5623 96.5527 98.5623 96.058C98.5623 95.666 98.6649 95.3207 98.8703 95.022C99.0849 94.7233 99.3789 94.49 99.7523 94.322C100.126 94.1447 100.55 94.056 101.026 94.056C101.493 94.056 101.936 94.126 102.356 94.266C102.776 94.3967 103.201 94.6113 103.63 94.91L103.126 95.624C102.772 95.372 102.417 95.19 102.062 95.078C101.708 94.9567 101.348 94.896 100.984 94.896C100.536 94.896 100.177 94.994 99.9063 95.19C99.6356 95.386 99.5003 95.652 99.5003 95.988C99.5003 96.268 99.5843 96.4827 99.7523 96.632C99.9296 96.7813 100.238 96.8933 100.676 96.968L101.824 97.178C102.515 97.2993 103.019 97.5093 103.336 97.808C103.654 98.1067 103.812 98.508 103.812 99.012C103.812 99.4133 103.696 99.7773 103.462 100.104C103.229 100.421 102.912 100.673 102.51 100.86C102.109 101.047 101.656 101.14 101.152 101.14Z" fill="#1F1F1F"/>
<path fill-rule="evenodd" clip-rule="evenodd" d="M124.389 99.1715L127.921 95.6103C128.267 95.2617 128.023 94.6667 127.534 94.6667H120.466C119.977 94.6667 119.733 95.2617 120.079 95.6103L123.611 99.1715C123.826 99.3874 124.174 99.3874 124.389 99.1715Z" fill="#1F1F1F"/>
<path d="M166.5 84C166.5 80.9624 168.962 78.5 172 78.5H337C340.038 78.5 342.5 80.9624 342.5 84V109C342.5 112.038 340.038 114.5 337 114.5H172C168.962 114.5 166.5 112.038 166.5 109V84Z" fill="white"/>
<path d="M166.5 84C166.5 80.9624 168.962 78.5 172 78.5H337C340.038 78.5 342.5 80.9624 342.5 84V109C342.5 112.038 340.038 114.5 337 114.5H172C168.962 114.5 166.5 112.038 166.5 109V84Z" stroke="#B1380B"/>
<path d="M183.246 101V91.2H189.938V92.152H184.324V95.652H188.16V96.59H184.324V101H183.246ZM191.376 101V94.168H192.398V101H191.376ZM191.894 92.474C191.689 92.474 191.511 92.404 191.362 92.264C191.222 92.1147 191.152 91.942 191.152 91.746C191.152 91.55 191.222 91.382 191.362 91.242C191.511 91.0927 191.689 91.018 191.894 91.018C192.099 91.018 192.272 91.0927 192.412 91.242C192.561 91.382 192.636 91.55 192.636 91.746C192.636 91.942 192.561 92.1147 192.412 92.264C192.272 92.404 192.099 92.474 191.894 92.474ZM194.493 101V90.892L195.515 90.682V101H194.493ZM200.215 101.14C199.627 101.14 199.179 101 198.871 100.72C198.572 100.431 198.423 100.015 198.423 99.474V95.008H197.009V94.168H198.423V92.292L199.445 92.054V94.168H201.405V95.008H199.445V99.208C199.445 99.572 199.519 99.8333 199.669 99.992C199.827 100.151 200.084 100.23 200.439 100.23C200.616 100.23 200.775 100.216 200.915 100.188C201.055 100.16 201.218 100.113 201.405 100.048V100.958C201.218 101.023 201.022 101.07 200.817 101.098C200.611 101.126 200.411 101.14 200.215 101.14ZM205.845 101.14C205.21 101.14 204.636 100.986 204.123 100.678C203.61 100.361 203.204 99.936 202.905 99.404C202.606 98.8627 202.457 98.256 202.457 97.584C202.457 96.912 202.597 96.31 202.877 95.778C203.166 95.246 203.554 94.826 204.039 94.518C204.524 94.21 205.066 94.056 205.663 94.056C206.27 94.056 206.806 94.21 207.273 94.518C207.749 94.8167 208.122 95.2273 208.393 95.75C208.673 96.2633 208.813 96.8467 208.813 97.5V97.808H203.451C203.488 98.2747 203.614 98.6947 203.829 99.068C204.053 99.432 204.342 99.7213 204.697 99.936C205.061 100.141 205.458 100.244 205.887 100.244C206.242 100.244 206.582 100.183 206.909 100.062C207.245 99.9313 207.53 99.7587 207.763 99.544L208.407 100.23C208.015 100.538 207.609 100.767 207.189 100.916C206.769 101.065 206.321 101.14 205.845 101.14ZM203.479 97.08H207.805C207.758 96.6693 207.632 96.3053 207.427 95.988C207.231 95.6613 206.979 95.4047 206.671 95.218C206.372 95.0313 206.036 94.938 205.663 94.938C205.29 94.938 204.949 95.0313 204.641 95.218C204.333 95.3953 204.076 95.6473 203.871 95.974C203.675 96.2913 203.544 96.66 203.479 97.08ZM210.558 101V94.168H211.58V95.568C211.757 95.092 212.009 94.7233 212.336 94.462C212.672 94.1913 213.054 94.056 213.484 94.056C213.605 94.056 213.717 94.0653 213.82 94.084C213.922 94.0933 214.025 94.1167 214.128 94.154V95.078C214.016 95.0407 213.894 95.0127 213.764 94.994C213.642 94.966 213.526 94.952 213.414 94.952C212.994 94.952 212.625 95.0733 212.308 95.316C212 95.5587 211.757 95.8993 211.58 96.338V101H210.558ZM218.747 101V90.99L219.769 90.78V95.106C220.031 94.7793 220.348 94.5273 220.721 94.35C221.095 94.1727 221.51 94.084 221.967 94.084C222.565 94.084 223.097 94.2427 223.563 94.56C224.039 94.868 224.417 95.288 224.697 95.82C224.977 96.3427 225.117 96.9307 225.117 97.584C225.117 98.2373 224.973 98.83 224.683 99.362C224.403 99.894 224.021 100.319 223.535 100.636C223.059 100.944 222.518 101.098 221.911 101.098C221.482 101.098 221.081 101.014 220.707 100.846C220.343 100.669 220.026 100.421 219.755 100.104V101H218.747ZM221.715 100.216C222.173 100.216 222.579 100.104 222.933 99.88C223.297 99.6467 223.582 99.334 223.787 98.942C224.002 98.5407 224.109 98.0927 224.109 97.598C224.109 97.094 224.002 96.646 223.787 96.254C223.582 95.862 223.297 95.554 222.933 95.33C222.579 95.0967 222.173 94.98 221.715 94.98C221.314 94.98 220.941 95.064 220.595 95.232C220.259 95.3907 219.984 95.6193 219.769 95.918V99.264C219.993 99.5627 220.273 99.796 220.609 99.964C220.955 100.132 221.323 100.216 221.715 100.216ZM226.998 104.066C226.784 104.066 226.564 104.033 226.34 103.968V103.058C226.434 103.077 226.532 103.091 226.634 103.1C226.737 103.109 226.826 103.114 226.9 103.114C227.162 103.114 227.376 103.044 227.544 102.904C227.722 102.764 227.871 102.545 227.992 102.246L228.496 101L225.864 94.168H226.998L229.07 99.782L231.268 94.168H232.402L228.958 102.554C228.809 102.918 228.646 103.212 228.468 103.436C228.291 103.66 228.086 103.819 227.852 103.912C227.619 104.015 227.334 104.066 226.998 104.066ZM239.059 101.14C238.499 101.14 237.981 101.056 237.505 100.888C237.029 100.711 236.623 100.459 236.287 100.132L236.833 99.46C237.243 99.7587 237.621 99.978 237.967 100.118C238.312 100.249 238.667 100.314 239.031 100.314C239.525 100.314 239.936 100.197 240.263 99.964C240.589 99.7307 240.753 99.432 240.753 99.068C240.753 98.788 240.655 98.5687 240.459 98.41C240.272 98.2513 239.959 98.13 239.521 98.046L238.401 97.85C237.738 97.7287 237.248 97.5233 236.931 97.234C236.623 96.9447 236.469 96.5527 236.469 96.058C236.469 95.666 236.571 95.3207 236.777 95.022C236.991 94.7233 237.285 94.49 237.659 94.322C238.032 94.1447 238.457 94.056 238.933 94.056C239.399 94.056 239.843 94.126 240.263 94.266C240.683 94.3967 241.107 94.6113 241.537 94.91L241.033 95.624C240.678 95.372 240.323 95.19 239.969 95.078C239.614 94.9567 239.255 94.896 238.891 94.896C238.443 94.896 238.083 94.994 237.813 95.19C237.542 95.386 237.407 95.652 237.407 95.988C237.407 96.268 237.491 96.4827 237.659 96.632C237.836 96.7813 238.144 96.8933 238.583 96.968L239.731 97.178C240.421 97.2993 240.925 97.5093 241.243 97.808C241.56 98.1067 241.719 98.508 241.719 99.012C241.719 99.4133 241.602 99.7773 241.369 100.104C241.135 100.421 240.818 100.673 240.417 100.86C240.015 101.047 239.563 101.14 239.059 101.14ZM245.742 101.14C245.154 101.14 244.706 101 244.398 100.72C244.099 100.431 243.95 100.015 243.95 99.474V95.008H242.536V94.168H243.95V92.292L244.972 92.054V94.168H246.932V95.008H244.972V99.208C244.972 99.572 245.047 99.8333 245.196 99.992C245.355 100.151 245.611 100.23 245.966 100.23C246.143 100.23 246.302 100.216 246.442 100.188C246.582 100.16 246.745 100.113 246.932 100.048V100.958C246.745 101.023 246.549 101.07 246.344 101.098C246.139 101.126 245.938 101.14 245.742 101.14ZM250.543 101.126C250.058 101.126 249.628 101.037 249.255 100.86C248.882 100.683 248.588 100.44 248.373 100.132C248.168 99.8147 248.065 99.4507 248.065 99.04C248.065 98.6293 248.172 98.2747 248.387 97.976C248.602 97.668 248.9 97.43 249.283 97.262C249.666 97.094 250.114 97.01 250.627 97.01C251.019 97.01 251.388 97.052 251.733 97.136C252.088 97.22 252.414 97.3553 252.713 97.542V96.604C252.713 96.044 252.564 95.624 252.265 95.344C251.966 95.0547 251.528 94.91 250.949 94.91C250.632 94.91 250.305 94.9567 249.969 95.05C249.642 95.1433 249.278 95.2927 248.877 95.498L248.499 94.714C249.414 94.2753 250.272 94.056 251.075 94.056C251.924 94.056 252.578 94.266 253.035 94.686C253.492 95.0967 253.721 95.6893 253.721 96.464V101H252.713V100.202C252.414 100.51 252.083 100.743 251.719 100.902C251.355 101.051 250.963 101.126 250.543 101.126ZM249.045 99.012C249.045 99.4133 249.199 99.7353 249.507 99.978C249.824 100.221 250.24 100.342 250.753 100.342C251.136 100.342 251.486 100.277 251.803 100.146C252.13 100.015 252.433 99.8193 252.713 99.558V98.242C252.424 98.074 252.125 97.9527 251.817 97.878C251.509 97.794 251.164 97.752 250.781 97.752C250.258 97.752 249.838 97.8687 249.521 98.102C249.204 98.326 249.045 98.6293 249.045 99.012ZM258.197 101.14C257.609 101.14 257.161 101 256.853 100.72C256.554 100.431 256.405 100.015 256.405 99.474V95.008H254.991V94.168H256.405V92.292L257.427 92.054V94.168H259.387V95.008H257.427V99.208C257.427 99.572 257.502 99.8333 257.651 99.992C257.81 100.151 258.066 100.23 258.421 100.23C258.598 100.23 258.757 100.216 258.897 100.188C259.037 100.16 259.2 100.113 259.387 100.048V100.958C259.2 101.023 259.004 101.07 258.799 101.098C258.594 101.126 258.393 101.14 258.197 101.14ZM263.32 101.112C262.835 101.112 262.405 101.005 262.032 100.79C261.659 100.575 261.365 100.277 261.15 99.894C260.945 99.5113 260.842 99.0727 260.842 98.578V94.168H261.878V98.284C261.878 98.8907 262.041 99.3713 262.368 99.726C262.695 100.081 263.138 100.258 263.698 100.258C264.081 100.258 264.421 100.169 264.72 99.992C265.028 99.8147 265.285 99.558 265.49 99.222V94.168H266.512V101H265.49V99.894C265.229 100.295 264.916 100.599 264.552 100.804C264.197 101.009 263.787 101.112 263.32 101.112ZM270.723 101.14C270.163 101.14 269.645 101.056 269.169 100.888C268.693 100.711 268.287 100.459 267.951 100.132L268.497 99.46C268.907 99.7587 269.285 99.978 269.631 100.118C269.976 100.249 270.331 100.314 270.695 100.314C271.189 100.314 271.6 100.197 271.927 99.964C272.253 99.7307 272.417 99.432 272.417 99.068C272.417 98.788 272.319 98.5687 272.123 98.41C271.936 98.2513 271.623 98.13 271.185 98.046L270.065 97.85C269.402 97.7287 268.912 97.5233 268.595 97.234C268.287 96.9447 268.133 96.5527 268.133 96.058C268.133 95.666 268.235 95.3207 268.441 95.022C268.655 94.7233 268.949 94.49 269.323 94.322C269.696 94.1447 270.121 94.056 270.597 94.056C271.063 94.056 271.507 94.126 271.927 94.266C272.347 94.3967 272.771 94.6113 273.201 94.91L272.697 95.624C272.342 95.372 271.987 95.19 271.633 95.078C271.278 94.9567 270.919 94.896 270.555 94.896C270.107 94.896 269.747 94.994 269.477 95.19C269.206 95.386 269.071 95.652 269.071 95.988C269.071 96.268 269.155 96.4827 269.323 96.632C269.5 96.7813 269.808 96.8933 270.247 96.968L271.395 97.178C272.085 97.2993 272.589 97.5093 272.907 97.808C273.224 98.1067 273.383 98.508 273.383 99.012C273.383 99.4133 273.266 99.7773 273.033 100.104C272.799 100.421 272.482 100.673 272.081 100.86C271.679 101.047 271.227 101.14 270.723 101.14Z" fill="#1F1F1F"/>
<g clip-path="url(#clip1_157_10749)">
<path fill-rule="evenodd" clip-rule="evenodd" d="M294 103.5C297.866 103.5 301 100.367 301 96.5C301 92.6354 297.866 89.5 294 89.5C290.134 89.5 287 92.6354 287 96.5C287 100.367 290.134 103.5 294 103.5ZM294.685 97.4032H293.315C293.135 97.4032 292.986 97.2626 292.977 97.083L292.767 93.2443C292.757 93.0502 292.911 92.8871 293.105 92.8871H294.894C295.089 92.8871 295.243 93.0502 295.233 93.2443L295.023 97.083C295.014 97.2626 294.865 97.4032 294.685 97.4032ZM294 100.508C293.283 100.508 292.702 99.9268 292.702 99.2097C292.702 98.4926 293.283 97.9113 294 97.9113C294.717 97.9113 295.298 98.4926 295.298 99.2097C295.298 99.9268 294.717 100.508 294 100.508Z" fill="#B1380B"/>
<path fill-rule="evenodd" clip-rule="evenodd" d="M317.389 99.1715L320.921 95.6103C321.267 95.2617 321.023 94.6667 320.534 94.6667H313.466C312.977 94.6667 312.733 95.2617 313.079 95.6103L316.611 99.1715C316.826 99.3874 317.174 99.3874 317.389 99.1715Z" fill="#1F1F1F"/>
</g>
<g filter="url(#filter0_d_157_10749)">
<path d="M113 24C113 20.6863 115.686 18 119 18H307C310.314 18 313 20.6863 313 24V64C313 67.3137 310.314 70 307 70H119C115.686 70 113 67.3137 113 64V24Z" fill="#292929"/>
<path d="M136.673 39.132C136.089 39.132 135.545 39.024 135.041 38.808C134.537 38.584 134.093 38.276 133.709 37.884C133.333 37.484 133.037 37.024 132.821 36.504C132.605 35.976 132.497 35.408 132.497 34.8C132.497 34.192 132.605 33.628 132.821 33.108C133.037 32.58 133.333 32.12 133.709 31.728C134.093 31.328 134.537 31.02 135.041 30.804C135.545 30.58 136.089 30.468 136.673 30.468C137.257 30.468 137.801 30.58 138.305 30.804C138.809 31.02 139.249 31.328 139.625 31.728C140.009 32.12 140.309 32.58 140.525 33.108C140.741 33.628 140.849 34.192 140.849 34.8C140.849 35.408 140.741 35.976 140.525 36.504C140.309 37.024 140.009 37.484 139.625 37.884C139.249 38.276 138.809 38.584 138.305 38.808C137.801 39.024 137.257 39.132 136.673 39.132ZM136.673 38.292C137.129 38.292 137.553 38.204 137.945 38.028C138.337 37.852 138.681 37.604 138.977 37.284C139.273 36.964 139.501 36.592 139.661 36.168C139.829 35.744 139.913 35.288 139.913 34.8C139.913 34.304 139.829 33.848 139.661 33.432C139.501 33.008 139.273 32.636 138.977 32.316C138.681 31.996 138.337 31.748 137.945 31.572C137.553 31.396 137.129 31.308 136.673 31.308C136.217 31.308 135.793 31.396 135.401 31.572C135.009 31.748 134.665 31.996 134.369 32.316C134.073 32.636 133.841 33.008 133.673 33.432C133.513 33.848 133.433 34.3 133.433 34.788C133.433 35.284 133.513 35.744 133.673 36.168C133.841 36.592 134.073 36.964 134.369 37.284C134.665 37.604 135.009 37.852 135.401 38.028C135.793 38.204 136.217 38.292 136.673 38.292ZM142.427 39V33.144H143.303V34.092C143.527 33.74 143.795 33.48 144.107 33.312C144.419 33.136 144.771 33.048 145.163 33.048C145.587 33.048 145.955 33.14 146.267 33.324C146.587 33.5 146.835 33.752 147.011 34.08C147.195 34.4 147.287 34.776 147.287 35.208V39H146.411V35.46C146.411 34.94 146.267 34.532 145.979 34.236C145.699 33.932 145.319 33.78 144.839 33.78C144.519 33.78 144.227 33.856 143.963 34.008C143.699 34.16 143.479 34.384 143.303 34.68V39H142.427ZM149.048 39V30.336L149.924 30.156V39H149.048ZM151.972 41.628C151.788 41.628 151.6 41.6 151.408 41.544V40.764C151.488 40.78 151.572 40.792 151.66 40.8C151.748 40.808 151.824 40.812 151.888 40.812C152.112 40.812 152.296 40.752 152.44 40.632C152.592 40.512 152.72 40.324 152.824 40.068L153.256 39L151 33.144H151.972L153.748 37.956L155.632 33.144H156.604L153.652 40.332C153.524 40.644 153.384 40.896 153.232 41.088C153.08 41.28 152.904 41.416 152.704 41.496C152.504 41.584 152.26 41.628 151.972 41.628ZM161.434 39V31.536L160.09 32.136V31.344L161.758 30.6H162.298V39H161.434ZM167.722 39V33.864H166.414V33.144H167.722V31.92C167.722 31.344 167.874 30.9 168.178 30.588C168.482 30.276 168.914 30.12 169.474 30.12C169.634 30.12 169.778 30.128 169.906 30.144C170.042 30.16 170.162 30.188 170.266 30.228V31.02C170.138 30.98 170.022 30.952 169.918 30.936C169.814 30.92 169.694 30.912 169.558 30.912C169.222 30.912 168.978 30.996 168.826 31.164C168.674 31.324 168.598 31.58 168.598 31.932V33.144H170.266V33.864H168.598V39H167.722ZM171.408 39V33.144H172.284V39H171.408ZM171.852 31.692C171.676 31.692 171.524 31.632 171.396 31.512C171.276 31.384 171.216 31.236 171.216 31.068C171.216 30.9 171.276 30.756 171.396 30.636C171.524 30.508 171.676 30.444 171.852 30.444C172.028 30.444 172.176 30.508 172.296 30.636C172.424 30.756 172.488 30.9 172.488 31.068C172.488 31.236 172.424 31.384 172.296 31.512C172.176 31.632 172.028 31.692 171.852 31.692ZM174.08 39V30.336L174.956 30.156V39H174.08ZM178.984 39.12C178.48 39.12 178.096 39 177.832 38.76C177.576 38.512 177.448 38.156 177.448 37.692V33.864H176.236V33.144H177.448V31.536L178.324 31.332V33.144H180.004V33.864H178.324V37.464C178.324 37.776 178.388 38 178.516 38.136C178.652 38.272 178.872 38.34 179.176 38.34C179.328 38.34 179.464 38.328 179.584 38.304C179.704 38.28 179.844 38.24 180.004 38.184V38.964C179.844 39.02 179.676 39.06 179.5 39.084C179.324 39.108 179.152 39.12 178.984 39.12ZM183.81 39.12C183.266 39.12 182.774 38.988 182.334 38.724C181.894 38.452 181.546 38.088 181.29 37.632C181.034 37.168 180.906 36.648 180.906 36.072C180.906 35.496 181.026 34.98 181.266 34.524C181.514 34.068 181.846 33.708 182.262 33.444C182.678 33.18 183.142 33.048 183.654 33.048C184.174 33.048 184.634 33.18 185.034 33.444C185.442 33.7 185.762 34.052 185.994 34.5C186.234 34.94 186.354 35.44 186.354 36V36.264H181.758C181.79 36.664 181.898 37.024 182.082 37.344C182.274 37.656 182.522 37.904 182.826 38.088C183.138 38.264 183.478 38.352 183.846 38.352C184.15 38.352 184.442 38.3 184.722 38.196C185.01 38.084 185.254 37.936 185.454 37.752L186.006 38.34C185.67 38.604 185.322 38.8 184.962 38.928C184.602 39.056 184.218 39.12 183.81 39.12ZM181.782 35.64H185.49C185.45 35.288 185.342 34.976 185.166 34.704C184.998 34.424 184.782 34.204 184.518 34.044C184.262 33.884 183.974 33.804 183.654 33.804C183.334 33.804 183.042 33.884 182.778 34.044C182.514 34.196 182.294 34.412 182.118 34.692C181.95 34.964 181.838 35.28 181.782 35.64ZM187.849 39V33.144H188.725V34.344C188.877 33.936 189.093 33.62 189.373 33.396C189.661 33.164 189.989 33.048 190.357 33.048C190.461 33.048 190.557 33.056 190.645 33.072C190.733 33.08 190.821 33.1 190.909 33.132V33.924C190.813 33.892 190.709 33.868 190.597 33.852C190.493 33.828 190.393 33.816 190.297 33.816C189.937 33.816 189.621 33.92 189.349 34.128C189.085 34.336 188.877 34.628 188.725 35.004V39H187.849ZM197.497 39.096C196.953 39.096 196.461 38.964 196.021 38.7C195.589 38.428 195.245 38.064 194.989 37.608C194.733 37.144 194.605 36.632 194.605 36.072C194.605 35.504 194.733 34.992 194.989 34.536C195.245 34.08 195.589 33.72 196.021 33.456C196.461 33.184 196.953 33.048 197.497 33.048C197.929 33.048 198.341 33.128 198.733 33.288C199.125 33.448 199.465 33.672 199.753 33.96L199.189 34.572C198.981 34.34 198.729 34.16 198.433 34.032C198.137 33.904 197.837 33.84 197.533 33.84C197.149 33.84 196.801 33.94 196.489 34.14C196.185 34.34 195.941 34.608 195.757 34.944C195.573 35.28 195.481 35.656 195.481 36.072C195.481 36.488 195.573 36.864 195.757 37.2C195.941 37.536 196.185 37.804 196.489 38.004C196.801 38.204 197.149 38.304 197.533 38.304C197.837 38.304 198.137 38.24 198.433 38.112C198.729 37.976 198.981 37.796 199.189 37.572L199.753 38.184C199.465 38.472 199.125 38.696 198.733 38.856C198.341 39.016 197.929 39.096 197.497 39.096ZM202.786 39.108C202.37 39.108 202.002 39.032 201.682 38.88C201.362 38.728 201.11 38.52 200.926 38.256C200.75 37.984 200.662 37.672 200.662 37.32C200.662 36.968 200.754 36.664 200.938 36.408C201.122 36.144 201.378 35.94 201.706 35.796C202.034 35.652 202.418 35.58 202.858 35.58C203.194 35.58 203.51 35.616 203.806 35.688C204.11 35.76 204.39 35.876 204.646 36.036V35.232C204.646 34.752 204.518 34.392 204.262 34.152C204.006 33.904 203.63 33.78 203.134 33.78C202.862 33.78 202.582 33.82 202.294 33.9C202.014 33.98 201.702 34.108 201.358 34.284L201.034 33.612C201.818 33.236 202.554 33.048 203.242 33.048C203.97 33.048 204.53 33.228 204.922 33.588C205.314 33.94 205.51 34.448 205.51 35.112V39H204.646V38.316C204.39 38.58 204.106 38.78 203.794 38.916C203.482 39.044 203.146 39.108 202.786 39.108ZM201.502 37.296C201.502 37.64 201.634 37.916 201.898 38.124C202.17 38.332 202.526 38.436 202.966 38.436C203.294 38.436 203.594 38.38 203.866 38.268C204.146 38.156 204.406 37.988 204.646 37.764V36.636C204.398 36.492 204.142 36.388 203.878 36.324C203.614 36.252 203.318 36.216 202.99 36.216C202.542 36.216 202.182 36.316 201.91 36.516C201.638 36.708 201.502 36.968 201.502 37.296ZM207.291 39V33.144H208.167V34.092C208.391 33.74 208.659 33.48 208.971 33.312C209.283 33.136 209.635 33.048 210.027 33.048C210.451 33.048 210.819 33.14 211.131 33.324C211.451 33.5 211.699 33.752 211.875 34.08C212.059 34.4 212.151 34.776 212.151 35.208V39H211.275V35.46C211.275 34.94 211.131 34.532 210.843 34.236C210.563 33.932 210.183 33.78 209.703 33.78C209.383 33.78 209.091 33.856 208.827 34.008C208.563 34.16 208.343 34.384 208.167 34.68V39H207.291ZM216.713 39V30.42L217.589 30.24V33.948C217.813 33.668 218.085 33.452 218.405 33.3C218.725 33.148 219.081 33.072 219.473 33.072C219.985 33.072 220.441 33.208 220.841 33.48C221.249 33.744 221.573 34.104 221.812 34.56C222.053 35.008 222.173 35.512 222.173 36.072C222.173 36.632 222.049 37.14 221.801 37.596C221.561 38.052 221.233 38.416 220.817 38.688C220.409 38.952 219.945 39.084 219.425 39.084C219.057 39.084 218.713 39.012 218.393 38.868C218.081 38.716 217.809 38.504 217.576 38.232V39H216.713ZM219.257 38.328C219.649 38.328 219.997 38.232 220.301 38.04C220.613 37.84 220.857 37.572 221.033 37.236C221.217 36.892 221.309 36.508 221.309 36.084C221.309 35.652 221.217 35.268 221.033 34.932C220.857 34.596 220.613 34.332 220.301 34.14C219.997 33.94 219.649 33.84 219.257 33.84C218.913 33.84 218.593 33.912 218.297 34.056C218.009 34.192 217.773 34.388 217.589 34.644V37.512C217.781 37.768 218.021 37.968 218.309 38.112C218.605 38.256 218.921 38.328 219.257 38.328ZM226.349 39.12C225.805 39.12 225.313 38.988 224.873 38.724C224.433 38.452 224.085 38.088 223.829 37.632C223.573 37.168 223.445 36.648 223.445 36.072C223.445 35.496 223.565 34.98 223.805 34.524C224.053 34.068 224.385 33.708 224.801 33.444C225.217 33.18 225.681 33.048 226.193 33.048C226.713 33.048 227.173 33.18 227.573 33.444C227.981 33.7 228.301 34.052 228.533 34.5C228.773 34.94 228.893 35.44 228.893 36V36.264H224.297C224.329 36.664 224.437 37.024 224.621 37.344C224.813 37.656 225.061 37.904 225.365 38.088C225.677 38.264 226.017 38.352 226.385 38.352C226.689 38.352 226.981 38.3 227.261 38.196C227.549 38.084 227.793 37.936 227.993 37.752L228.545 38.34C228.209 38.604 227.861 38.8 227.501 38.928C227.141 39.056 226.757 39.12 226.349 39.12ZM224.321 35.64H228.029C227.989 35.288 227.881 34.976 227.705 34.704C227.537 34.424 227.321 34.204 227.057 34.044C226.801 33.884 226.513 33.804 226.193 33.804C225.873 33.804 225.581 33.884 225.317 34.044C225.053 34.196 224.833 34.412 224.657 34.692C224.489 34.964 224.377 35.28 224.321 35.64ZM235.001 39.108C234.585 39.108 234.217 39.032 233.897 38.88C233.577 38.728 233.325 38.52 233.141 38.256C232.965 37.984 232.877 37.672 232.877 37.32C232.877 36.968 232.969 36.664 233.153 36.408C233.337 36.144 233.593 35.94 233.921 35.796C234.249 35.652 234.633 35.58 235.073 35.58C235.409 35.58 235.725 35.616 236.021 35.688C236.325 35.76 236.605 35.876 236.861 36.036V35.232C236.861 34.752 236.733 34.392 236.477 34.152C236.221 33.904 235.845 33.78 235.349 33.78C235.077 33.78 234.797 33.82 234.509 33.9C234.229 33.98 233.917 34.108 233.573 34.284L233.249 33.612C234.033 33.236 234.769 33.048 235.457 33.048C236.185 33.048 236.745 33.228 237.137 33.588C237.529 33.94 237.725 34.448 237.725 35.112V39H236.861V38.316C236.605 38.58 236.321 38.78 236.009 38.916C235.697 39.044 235.361 39.108 235.001 39.108ZM233.717 37.296C233.717 37.64 233.849 37.916 234.113 38.124C234.385 38.332 234.741 38.436 235.181 38.436C235.509 38.436 235.809 38.38 236.081 38.268C236.361 38.156 236.621 37.988 236.861 37.764V36.636C236.613 36.492 236.357 36.388 236.093 36.324C235.829 36.252 235.533 36.216 235.205 36.216C234.757 36.216 234.397 36.316 234.125 36.516C233.853 36.708 233.717 36.968 233.717 37.296ZM239.505 41.508V33.144H240.369V33.984C240.593 33.688 240.865 33.464 241.185 33.312C241.513 33.152 241.873 33.072 242.265 33.072C242.777 33.072 243.233 33.208 243.633 33.48C244.041 33.744 244.365 34.104 244.605 34.56C244.845 35.008 244.965 35.512 244.965 36.072C244.965 36.632 244.841 37.14 244.593 37.596C244.353 38.052 244.025 38.416 243.609 38.688C243.201 38.952 242.737 39.084 242.217 39.084C241.849 39.084 241.509 39.016 241.197 38.88C240.885 38.736 240.613 38.532 240.381 38.268V41.508H239.505ZM242.049 38.328C242.441 38.328 242.789 38.232 243.093 38.04C243.405 37.84 243.649 37.572 243.825 37.236C244.009 36.892 244.101 36.508 244.101 36.084C244.101 35.652 244.009 35.268 243.825 34.932C243.649 34.596 243.405 34.332 243.093 34.14C242.789 33.94 242.441 33.84 242.049 33.84C241.705 33.84 241.385 33.912 241.089 34.056C240.801 34.192 240.565 34.388 240.381 34.644V37.512C240.573 37.768 240.813 37.968 241.101 38.112C241.397 38.256 241.713 38.328 242.049 38.328ZM246.502 41.508V33.144H247.366V33.984C247.59 33.688 247.862 33.464 248.182 33.312C248.51 33.152 248.87 33.072 249.262 33.072C249.774 33.072 250.23 33.208 250.63 33.48C251.038 33.744 251.362 34.104 251.602 34.56C251.842 35.008 251.962 35.512 251.962 36.072C251.962 36.632 251.838 37.14 251.59 37.596C251.35 38.052 251.022 38.416 250.606 38.688C250.198 38.952 249.734 39.084 249.214 39.084C248.846 39.084 248.506 39.016 248.194 38.88C247.882 38.736 247.61 38.532 247.378 38.268V41.508H246.502ZM249.046 38.328C249.438 38.328 249.786 38.232 250.09 38.04C250.402 37.84 250.646 37.572 250.822 37.236C251.006 36.892 251.098 36.508 251.098 36.084C251.098 35.652 251.006 35.268 250.822 34.932C250.646 34.596 250.402 34.332 250.09 34.14C249.786 33.94 249.438 33.84 249.046 33.84C248.702 33.84 248.382 33.912 248.086 34.056C247.798 34.192 247.562 34.388 247.378 34.644V37.512C247.57 37.768 247.81 37.968 248.098 38.112C248.394 38.256 248.71 38.328 249.046 38.328ZM253.498 39V30.336L254.374 30.156V39H253.498ZM256.158 39V33.144H257.034V39H256.158ZM256.602 31.692C256.426 31.692 256.274 31.632 256.146 31.512C256.026 31.384 255.966 31.236 255.966 31.068C255.966 30.9 256.026 30.756 256.146 30.636C256.274 30.508 256.426 30.444 256.602 30.444C256.778 30.444 256.926 30.508 257.046 30.636C257.174 30.756 257.238 30.9 257.238 31.068C257.238 31.236 257.174 31.384 257.046 31.512C256.926 31.632 256.778 31.692 256.602 31.692ZM261.47 39.12C260.926 39.12 260.434 38.988 259.994 38.724C259.554 38.452 259.206 38.088 258.95 37.632C258.694 37.168 258.566 36.648 258.566 36.072C258.566 35.496 258.686 34.98 258.926 34.524C259.174 34.068 259.506 33.708 259.922 33.444C260.338 33.18 260.802 33.048 261.314 33.048C261.834 33.048 262.294 33.18 262.694 33.444C263.102 33.7 263.422 34.052 263.654 34.5C263.894 34.94 264.014 35.44 264.014 36V36.264H259.418C259.45 36.664 259.558 37.024 259.742 37.344C259.934 37.656 260.182 37.904 260.486 38.088C260.798 38.264 261.138 38.352 261.506 38.352C261.81 38.352 262.102 38.3 262.382 38.196C262.67 38.084 262.914 37.936 263.114 37.752L263.666 38.34C263.33 38.604 262.982 38.8 262.622 38.928C262.262 39.056 261.878 39.12 261.47 39.12ZM259.442 35.64H263.15C263.11 35.288 263.002 34.976 262.826 34.704C262.658 34.424 262.442 34.204 262.178 34.044C261.922 33.884 261.634 33.804 261.314 33.804C260.994 33.804 260.702 33.884 260.438 34.044C260.174 34.196 259.954 34.412 259.778 34.692C259.61 34.964 259.498 35.28 259.442 35.64ZM267.945 39.084C267.441 39.084 266.985 38.952 266.577 38.688C266.169 38.416 265.845 38.056 265.605 37.608C265.365 37.152 265.245 36.644 265.245 36.084C265.245 35.516 265.365 35.008 265.605 34.56C265.853 34.104 266.185 33.744 266.601 33.48C267.017 33.208 267.481 33.072 267.993 33.072C268.353 33.072 268.689 33.144 269.001 33.288C269.313 33.424 269.585 33.624 269.817 33.888V30.336L270.693 30.156V39H269.817V38.22C269.593 38.5 269.321 38.716 269.001 38.868C268.681 39.012 268.329 39.084 267.945 39.084ZM268.161 38.316C268.505 38.316 268.821 38.248 269.109 38.112C269.397 37.976 269.633 37.784 269.817 37.536V34.632C269.625 34.384 269.381 34.192 269.085 34.056C268.797 33.912 268.489 33.84 268.161 33.84C267.769 33.84 267.417 33.936 267.105 34.128C266.801 34.32 266.557 34.584 266.373 34.92C266.197 35.256 266.109 35.64 266.109 36.072C266.109 36.496 266.197 36.88 266.373 37.224C266.557 37.56 266.801 37.828 267.105 38.028C267.417 38.22 267.769 38.316 268.161 38.316ZM277.107 39.108C276.691 39.108 276.323 39.032 276.003 38.88C275.683 38.728 275.431 38.52 275.247 38.256C275.071 37.984 274.983 37.672 274.983 37.32C274.983 36.968 275.075 36.664 275.259 36.408C275.443 36.144 275.699 35.94 276.027 35.796C276.355 35.652 276.739 35.58 277.179 35.58C277.515 35.58 277.831 35.616 278.127 35.688C278.431 35.76 278.711 35.876 278.967 36.036V35.232C278.967 34.752 278.839 34.392 278.583 34.152C278.327 33.904 277.951 33.78 277.455 33.78C277.183 33.78 276.903 33.82 276.615 33.9C276.335 33.98 276.023 34.108 275.679 34.284L275.355 33.612C276.139 33.236 276.875 33.048 277.563 33.048C278.291 33.048 278.851 33.228 279.243 33.588C279.635 33.94 279.831 34.448 279.831 35.112V39H278.967V38.316C278.711 38.58 278.427 38.78 278.115 38.916C277.803 39.044 277.467 39.108 277.107 39.108ZM275.823 37.296C275.823 37.64 275.955 37.916 276.219 38.124C276.491 38.332 276.847 38.436 277.287 38.436C277.615 38.436 277.915 38.38 278.187 38.268C278.467 38.156 278.727 37.988 278.967 37.764V36.636C278.719 36.492 278.463 36.388 278.199 36.324C277.935 36.252 277.639 36.216 277.311 36.216C276.863 36.216 276.503 36.316 276.231 36.516C275.959 36.708 275.823 36.968 275.823 37.296ZM283.667 39.12C283.163 39.12 282.779 39 282.515 38.76C282.259 38.512 282.131 38.156 282.131 37.692V33.864H280.919V33.144H282.131V31.536L283.007 31.332V33.144H284.687V33.864H283.007V37.464C283.007 37.776 283.071 38 283.199 38.136C283.335 38.272 283.555 38.34 283.859 38.34C284.011 38.34 284.147 38.328 284.267 38.304C284.387 38.28 284.527 38.24 284.687 38.184V38.964C284.527 39.02 284.359 39.06 284.183 39.084C284.007 39.108 283.835 39.12 283.667 39.12ZM290.583 39.108C290.167 39.108 289.799 39.032 289.479 38.88C289.159 38.728 288.907 38.52 288.723 38.256C288.547 37.984 288.459 37.672 288.459 37.32C288.459 36.968 288.551 36.664 288.735 36.408C288.919 36.144 289.175 35.94 289.503 35.796C289.831 35.652 290.215 35.58 290.655 35.58C290.991 35.58 291.307 35.616 291.603 35.688C291.907 35.76 292.187 35.876 292.443 36.036V35.232C292.443 34.752 292.315 34.392 292.059 34.152C291.803 33.904 291.427 33.78 290.931 33.78C290.659 33.78 290.379 33.82 290.091 33.9C289.811 33.98 289.499 34.108 289.155 34.284L288.831 33.612C289.615 33.236 290.351 33.048 291.039 33.048C291.767 33.048 292.327 33.228 292.719 33.588C293.111 33.94 293.307 34.448 293.307 35.112V39H292.443V38.316C292.187 38.58 291.903 38.78 291.591 38.916C291.279 39.044 290.943 39.108 290.583 39.108ZM289.299 37.296C289.299 37.64 289.431 37.916 289.695 38.124C289.967 38.332 290.323 38.436 290.763 38.436C291.091 38.436 291.391 38.38 291.663 38.268C291.943 38.156 292.203 37.988 292.443 37.764V36.636C292.195 36.492 291.939 36.388 291.675 36.324C291.411 36.252 291.115 36.216 290.787 36.216C290.339 36.216 289.979 36.316 289.707 36.516C289.435 36.708 289.299 36.968 289.299 37.296ZM202.778 57.12C202.274 57.12 201.89 57 201.626 56.76C201.37 56.512 201.242 56.156 201.242 55.692V51.864H200.03V51.144H201.242V49.536L202.118 49.332V51.144H203.798V51.864H202.118V55.464C202.118 55.776 202.182 56 202.31 56.136C202.446 56.272 202.666 56.34 202.97 56.34C203.122 56.34 203.258 56.328 203.378 56.304C203.498 56.28 203.638 56.24 203.798 56.184V56.964C203.638 57.02 203.47 57.06 203.294 57.084C203.118 57.108 202.946 57.12 202.778 57.12ZM205.07 57V51.144H205.946V57H205.07ZM205.514 49.692C205.338 49.692 205.186 49.632 205.058 49.512C204.938 49.384 204.878 49.236 204.878 49.068C204.878 48.9 204.938 48.756 205.058 48.636C205.186 48.508 205.338 48.444 205.514 48.444C205.69 48.444 205.838 48.508 205.958 48.636C206.086 48.756 206.15 48.9 206.15 49.068C206.15 49.236 206.086 49.384 205.958 49.512C205.838 49.632 205.69 49.692 205.514 49.692ZM207.742 57V51.144H208.618V52.056C208.842 51.72 209.098 51.468 209.386 51.3C209.674 51.132 209.998 51.048 210.358 51.048C210.774 51.048 211.138 51.152 211.45 51.36C211.762 51.56 211.998 51.836 212.158 52.188C212.39 51.812 212.666 51.528 212.986 51.336C213.314 51.144 213.69 51.048 214.114 51.048C214.506 51.048 214.85 51.14 215.146 51.324C215.45 51.508 215.686 51.764 215.854 52.092C216.022 52.412 216.106 52.788 216.106 53.22V57H215.23V53.436C215.23 52.924 215.102 52.52 214.846 52.224C214.59 51.928 214.238 51.78 213.79 51.78C213.486 51.78 213.21 51.856 212.962 52.008C212.722 52.16 212.51 52.392 212.326 52.704C212.342 52.784 212.354 52.868 212.362 52.956C212.37 53.044 212.374 53.132 212.374 53.22V57H211.498V53.436C211.498 52.924 211.366 52.52 211.102 52.224C210.846 51.928 210.494 51.78 210.046 51.78C209.446 51.78 208.97 52.068 208.618 52.644V57H207.742ZM220.519 57.12C219.975 57.12 219.483 56.988 219.043 56.724C218.603 56.452 218.255 56.088 217.999 55.632C217.743 55.168 217.615 54.648 217.615 54.072C217.615 53.496 217.735 52.98 217.975 52.524C218.223 52.068 218.555 51.708 218.971 51.444C219.387 51.18 219.851 51.048 220.363 51.048C220.883 51.048 221.343 51.18 221.743 51.444C222.151 51.7 222.471 52.052 222.703 52.5C222.943 52.94 223.063 53.44 223.063 54V54.264H218.467C218.499 54.664 218.607 55.024 218.791 55.344C218.983 55.656 219.231 55.904 219.535 56.088C219.847 56.264 220.187 56.352 220.555 56.352C220.859 56.352 221.151 56.3 221.431 56.196C221.719 56.084 221.963 55.936 222.163 55.752L222.715 56.34C222.379 56.604 222.031 56.8 221.671 56.928C221.311 57.056 220.927 57.12 220.519 57.12ZM218.491 53.64H222.199C222.159 53.288 222.051 52.976 221.875 52.704C221.707 52.424 221.491 52.204 221.227 52.044C220.971 51.884 220.683 51.804 220.363 51.804C220.043 51.804 219.751 51.884 219.487 52.044C219.223 52.196 219.003 52.412 218.827 52.692C218.659 52.964 218.547 53.28 218.491 53.64ZM224.854 57.096C224.678 57.096 224.526 57.032 224.398 56.904C224.278 56.776 224.218 56.624 224.218 56.448C224.218 56.264 224.278 56.112 224.398 55.992C224.526 55.864 224.678 55.8 224.854 55.8C225.03 55.8 225.178 55.864 225.298 55.992C225.426 56.112 225.49 56.264 225.49 56.448C225.49 56.624 225.426 56.776 225.298 56.904C225.178 57.032 225.03 57.096 224.854 57.096Z" fill="white"/>
<path d="M294.175 85L283.349 70H305L294.175 85Z" fill="#292929"/>
</g>
</g>
<defs>
<filter id="filter0_d_157_10749" x="104" y="13" width="218" height="85" filterUnits="userSpaceOnUse" color-interpolation-filters="sRGB">
<feFlood flood-opacity="0" result="BackgroundImageFix"/>
<feColorMatrix in="SourceAlpha" type="matrix" values="0 0 0 0 0 0 0 0 0 0 0 0 0 0 0 0 0 0 127 0" result="hardAlpha"/>
<feOffset dy="4"/>
<feGaussianBlur stdDeviation="4.5"/>
<feColorMatrix type="matrix" values="0 0 0 0 0.160784 0 0 0 0 0.160784 0 0 0 0 0.160784 0 0 0 0.15 0"/>
<feBlend mode="normal" in2="BackgroundImageFix" result="effect1_dropShadow_157_10749"/>
<feBlend mode="normal" in="SourceGraphic" in2="effect1_dropShadow_157_10749" result="shape"/>
</filter>
<clipPath id="clip0_157_10749">
<rect width="358" height="131" fill="white"/>
</clipPath>
<clipPath id="clip1_157_10749">
<rect width="53" height="24" fill="white" transform="translate(274 84.5)"/>
</clipPath>
</defs>
</svg>
