<svg width="450" height="255" viewBox="0 0 450 255" fill="none" xmlns="http://www.w3.org/2000/svg">
<rect width="450" height="255" fill="white"/>
<rect width="440" height="69" transform="translate(5 14)" fill="white"/>
<mask id="path-1-inside-1_126_26498" fill="white">
<path d="M21 36C21 32.6863 23.6863 30 27 30H220C223.314 30 226 32.6863 226 36V61C226 64.3137 223.314 67 220 67H27C23.6863 67 21 64.3137 21 61V36Z"/>
</mask>
<path d="M21 36C21 32.6863 23.6863 30 27 30H220C223.314 30 226 32.6863 226 36V61C226 64.3137 223.314 67 220 67H27C23.6863 67 21 64.3137 21 61V36Z" fill="white"/>
<path d="M27 32H220V28H27V32ZM224 36V61H228V36H224ZM220 65H27V69H220V65ZM23 61V36H19V61H23ZM27 65C24.7909 65 23 63.2091 23 61H19C19 65.4183 22.5817 69 27 69V65ZM224 61C224 63.2091 222.209 65 220 65V69C224.418 69 228 65.4183 228 61H224ZM220 32C222.209 32 224 33.7909 224 36H228C228 31.5817 224.418 28 220 28V32ZM27 28C22.5817 28 19 31.5817 19 36H23C23 33.7909 24.7909 32 27 32V28Z" fill="#0066CC" mask="url(#path-1-inside-1_126_26498)"/>
<path fill-rule="evenodd" clip-rule="evenodd" d="M50.75 54.8432V47.6781L55.8071 42.6203C56.2193 42.2081 55.9272 41.5 55.3431 41.5H42.657C42.0741 41.5 41.78 42.2073 42.193 42.6203L47.25 47.6781V53.3125C47.25 53.5266 47.3545 53.7273 47.5299 53.8501L49.7174 55.3808C50.149 55.6829 50.75 55.3767 50.75 54.8432Z" fill="#1F1F1F"/>
<path d="M69.126 53L73.004 43.2H74.292L78.114 53H76.952L75.79 49.92H71.422L70.26 53H69.126ZM71.758 49.066H75.468L73.606 44.18L71.758 49.066ZM79.2922 53V42.892L80.3142 42.682V53H79.2922ZM82.4094 53V42.892L83.4314 42.682V53H82.4094ZM91.8601 53.112C91.2255 53.112 90.6515 52.958 90.1381 52.65C89.6341 52.3327 89.2328 51.908 88.9341 51.376C88.6355 50.8347 88.4861 50.2373 88.4861 49.584C88.4861 48.9213 88.6355 48.324 88.9341 47.792C89.2328 47.26 89.6341 46.84 90.1381 46.532C90.6515 46.2147 91.2255 46.056 91.8601 46.056C92.3641 46.056 92.8448 46.1493 93.3021 46.336C93.7595 46.5227 94.1561 46.784 94.4921 47.12L93.8341 47.834C93.5915 47.5633 93.2975 47.3533 92.9521 47.204C92.6068 47.0547 92.2568 46.98 91.9021 46.98C91.4541 46.98 91.0481 47.0967 90.6841 47.33C90.3295 47.5633 90.0448 47.876 89.8301 48.268C89.6155 48.66 89.5081 49.0987 89.5081 49.584C89.5081 50.0693 89.6155 50.508 89.8301 50.9C90.0448 51.292 90.3295 51.6047 90.6841 51.838C91.0481 52.0713 91.4541 52.188 91.9021 52.188C92.2568 52.188 92.6068 52.1133 92.9521 51.964C93.2975 51.8053 93.5915 51.5953 93.8341 51.334L94.4921 52.048C94.1561 52.384 93.7595 52.6453 93.3021 52.832C92.8448 53.0187 92.3641 53.112 91.8601 53.112ZM98.7361 53.112C98.1014 53.112 97.5321 52.958 97.0281 52.65C96.5241 52.342 96.1274 51.922 95.8381 51.39C95.5488 50.858 95.4041 50.256 95.4041 49.584C95.4041 48.912 95.5488 48.31 95.8381 47.778C96.1274 47.246 96.5241 46.826 97.0281 46.518C97.5321 46.21 98.1014 46.056 98.7361 46.056C99.3614 46.056 99.9214 46.21 100.416 46.518C100.92 46.826 101.317 47.246 101.606 47.778C101.895 48.31 102.04 48.912 102.04 49.584C102.04 50.256 101.895 50.858 101.606 51.39C101.317 51.922 100.92 52.342 100.416 52.65C99.9214 52.958 99.3614 53.112 98.7361 53.112ZM98.7221 52.216C99.1701 52.216 99.5668 52.104 99.9121 51.88C100.257 51.6467 100.528 51.3293 100.724 50.928C100.929 50.5267 101.032 50.0787 101.032 49.584C101.032 49.08 100.929 48.632 100.724 48.24C100.528 47.8387 100.257 47.526 99.9121 47.302C99.5668 47.0687 99.1701 46.952 98.7221 46.952C98.2741 46.952 97.8774 47.0687 97.5321 47.302C97.1868 47.526 96.9114 47.8387 96.7061 48.24C96.5101 48.632 96.4121 49.08 96.4121 49.584C96.4121 50.0787 96.5101 50.5267 96.7061 50.928C96.9114 51.3293 97.1868 51.6467 97.5321 51.88C97.8774 52.104 98.2741 52.216 98.7221 52.216ZM103.833 53V42.892L104.855 42.682V53H103.833ZM109.974 53.112C109.34 53.112 108.77 52.958 108.266 52.65C107.762 52.342 107.366 51.922 107.076 51.39C106.787 50.858 106.642 50.256 106.642 49.584C106.642 48.912 106.787 48.31 107.076 47.778C107.366 47.246 107.762 46.826 108.266 46.518C108.77 46.21 109.34 46.056 109.974 46.056C110.6 46.056 111.16 46.21 111.654 46.518C112.158 46.826 112.555 47.246 112.844 47.778C113.134 48.31 113.278 48.912 113.278 49.584C113.278 50.256 113.134 50.858 112.844 51.39C112.555 51.922 112.158 52.342 111.654 52.65C111.16 52.958 110.6 53.112 109.974 53.112ZM109.96 52.216C110.408 52.216 110.805 52.104 111.15 51.88C111.496 51.6467 111.766 51.3293 111.962 50.928C112.168 50.5267 112.27 50.0787 112.27 49.584C112.27 49.08 112.168 48.632 111.962 48.24C111.766 47.8387 111.496 47.526 111.15 47.302C110.805 47.0687 110.408 46.952 109.96 46.952C109.512 46.952 109.116 47.0687 108.77 47.302C108.425 47.526 108.15 47.8387 107.944 48.24C107.748 48.632 107.65 49.08 107.65 49.584C107.65 50.0787 107.748 50.5267 107.944 50.928C108.15 51.3293 108.425 51.6467 108.77 51.88C109.116 52.104 109.512 52.216 109.96 52.216ZM115.071 53V46.168H116.093V47.568C116.271 47.092 116.523 46.7233 116.849 46.462C117.185 46.1913 117.568 46.056 117.997 46.056C118.119 46.056 118.231 46.0653 118.333 46.084C118.436 46.0933 118.539 46.1167 118.641 46.154V47.078C118.529 47.0407 118.408 47.0127 118.277 46.994C118.156 46.966 118.039 46.952 117.927 46.952C117.507 46.952 117.139 47.0733 116.821 47.316C116.513 47.5587 116.271 47.8993 116.093 48.338V53H115.071ZM122.039 53.14C121.479 53.14 120.961 53.056 120.485 52.888C120.009 52.7107 119.603 52.4587 119.267 52.132L119.813 51.46C120.224 51.7587 120.602 51.978 120.947 52.118C121.292 52.2487 121.647 52.314 122.011 52.314C122.506 52.314 122.916 52.1973 123.243 51.964C123.57 51.7307 123.733 51.432 123.733 51.068C123.733 50.788 123.635 50.5687 123.439 50.41C123.252 50.2513 122.94 50.13 122.501 50.046L121.381 49.85C120.718 49.7287 120.228 49.5233 119.911 49.234C119.603 48.9447 119.449 48.5527 119.449 48.058C119.449 47.666 119.552 47.3207 119.757 47.022C119.972 46.7233 120.266 46.49 120.639 46.322C121.012 46.1447 121.437 46.056 121.913 46.056C122.38 46.056 122.823 46.126 123.243 46.266C123.663 46.3967 124.088 46.6113 124.517 46.91L124.013 47.624C123.658 47.372 123.304 47.19 122.949 47.078C122.594 46.9567 122.235 46.896 121.871 46.896C121.423 46.896 121.064 46.994 120.793 47.19C120.522 47.386 120.387 47.652 120.387 47.988C120.387 48.268 120.471 48.4827 120.639 48.632C120.816 48.7813 121.124 48.8933 121.563 48.968L122.711 49.178C123.402 49.2993 123.906 49.5093 124.223 49.808C124.54 50.1067 124.699 50.508 124.699 51.012C124.699 51.4133 124.582 51.7773 124.349 52.104C124.116 52.4213 123.798 52.6733 123.397 52.86C122.996 53.0467 122.543 53.14 122.039 53.14Z" fill="#151515"/>
<path fill-rule="evenodd" clip-rule="evenodd" d="M200.389 51.1715L203.921 47.6102C204.267 47.2616 204.023 46.6667 203.534 46.6667H196.466C195.977 46.6667 195.733 47.2616 196.079 47.6102L199.611 51.1715C199.826 51.3873 200.174 51.3873 200.389 51.1715Z" fill="#1F1F1F"/>
<path d="M242 48.5C242 38.2827 250.283 30 260.5 30H312.5C322.717 30 331 38.2827 331 48.5C331 58.7173 322.717 67 312.5 67H260.5C250.283 67 242 58.7173 242 48.5Z" fill="#0066CC"/>
<path d="M266.126 53L270.004 43.2H271.292L275.114 53H273.952L272.79 49.92H268.422L267.26 53H266.126ZM268.758 49.066H272.468L270.606 44.18L268.758 49.066ZM279.085 53.112C278.45 53.112 277.876 52.958 277.363 52.65C276.859 52.3327 276.457 51.908 276.159 51.376C275.86 50.8347 275.711 50.2373 275.711 49.584C275.711 48.9213 275.86 48.324 276.159 47.792C276.457 47.26 276.859 46.84 277.363 46.532C277.876 46.2147 278.45 46.056 279.085 46.056C279.589 46.056 280.069 46.1493 280.527 46.336C280.984 46.5227 281.381 46.784 281.717 47.12L281.059 47.834C280.816 47.5633 280.522 47.3533 280.177 47.204C279.831 47.0547 279.481 46.98 279.127 46.98C278.679 46.98 278.273 47.0967 277.909 47.33C277.554 47.5633 277.269 47.876 277.055 48.268C276.84 48.66 276.733 49.0987 276.733 49.584C276.733 50.0693 276.84 50.508 277.055 50.9C277.269 51.292 277.554 51.6047 277.909 51.838C278.273 52.0713 278.679 52.188 279.127 52.188C279.481 52.188 279.831 52.1133 280.177 51.964C280.522 51.8053 280.816 51.5953 281.059 51.334L281.717 52.048C281.381 52.384 280.984 52.6453 280.527 52.832C280.069 53.0187 279.589 53.112 279.085 53.112ZM285.883 53.14C285.295 53.14 284.847 53 284.539 52.72C284.24 52.4307 284.091 52.0153 284.091 51.474V47.008H282.677V46.168H284.091V44.292L285.113 44.054V46.168H287.073V47.008H285.113V51.208C285.113 51.572 285.187 51.8333 285.337 51.992C285.495 52.1507 285.752 52.23 286.107 52.23C286.284 52.23 286.443 52.216 286.583 52.188C286.723 52.16 286.886 52.1133 287.073 52.048V52.958C286.886 53.0233 286.69 53.07 286.485 53.098C286.279 53.126 286.079 53.14 285.883 53.14ZM288.556 53V46.168H289.578V53H288.556ZM289.074 44.474C288.868 44.474 288.691 44.404 288.542 44.264C288.402 44.1147 288.332 43.942 288.332 43.746C288.332 43.55 288.402 43.382 288.542 43.242C288.691 43.0927 288.868 43.018 289.074 43.018C289.279 43.018 289.452 43.0927 289.592 43.242C289.741 43.382 289.816 43.55 289.816 43.746C289.816 43.942 289.741 44.1147 289.592 44.264C289.452 44.404 289.279 44.474 289.074 44.474ZM294.697 53.112C294.062 53.112 293.493 52.958 292.989 52.65C292.485 52.342 292.088 51.922 291.799 51.39C291.51 50.858 291.365 50.256 291.365 49.584C291.365 48.912 291.51 48.31 291.799 47.778C292.088 47.246 292.485 46.826 292.989 46.518C293.493 46.21 294.062 46.056 294.697 46.056C295.322 46.056 295.882 46.21 296.377 46.518C296.881 46.826 297.278 47.246 297.567 47.778C297.856 48.31 298.001 48.912 298.001 49.584C298.001 50.256 297.856 50.858 297.567 51.39C297.278 51.922 296.881 52.342 296.377 52.65C295.882 52.958 295.322 53.112 294.697 53.112ZM294.683 52.216C295.131 52.216 295.528 52.104 295.873 51.88C296.218 51.6467 296.489 51.3293 296.685 50.928C296.89 50.5267 296.993 50.0787 296.993 49.584C296.993 49.08 296.89 48.632 296.685 48.24C296.489 47.8387 296.218 47.526 295.873 47.302C295.528 47.0687 295.131 46.952 294.683 46.952C294.235 46.952 293.838 47.0687 293.493 47.302C293.148 47.526 292.872 47.8387 292.667 48.24C292.471 48.632 292.373 49.08 292.373 49.584C292.373 50.0787 292.471 50.5267 292.667 50.928C292.872 51.3293 293.148 51.6467 293.493 51.88C293.838 52.104 294.235 52.216 294.683 52.216ZM299.794 53V46.168H300.816V47.274C301.077 46.8633 301.39 46.56 301.754 46.364C302.118 46.1587 302.529 46.056 302.986 46.056C303.481 46.056 303.91 46.1633 304.274 46.378C304.647 46.5833 304.937 46.8773 305.142 47.26C305.357 47.6333 305.464 48.072 305.464 48.576V53H304.442V48.87C304.442 48.2633 304.274 47.7873 303.938 47.442C303.611 47.0873 303.168 46.91 302.608 46.91C302.235 46.91 301.894 46.9987 301.586 47.176C301.278 47.3533 301.021 47.6147 300.816 47.96V53H299.794Z" fill="white"/>
<mask id="path-8-inside-2_126_26498" fill="white">
<path d="M339 48.5C339 38.2827 347.283 30 357.5 30H409.5C419.717 30 428 38.2827 428 48.5C428 58.7173 419.717 67 409.5 67H357.5C347.283 67 339 58.7173 339 48.5Z"/>
</mask>
<path d="M357.5 31H409.5V29H357.5V31ZM409.5 66H357.5V68H409.5V66ZM357.5 66C347.835 66 340 58.165 340 48.5H338C338 59.2696 346.73 68 357.5 68V66ZM427 48.5C427 58.165 419.165 66 409.5 66V68C420.27 68 429 59.2696 429 48.5H427ZM409.5 31C419.165 31 427 38.835 427 48.5H429C429 37.7304 420.27 29 409.5 29V31ZM357.5 29C346.73 29 338 37.7304 338 48.5H340C340 38.835 347.835 31 357.5 31V29Z" fill="#0066CC" mask="url(#path-8-inside-2_126_26498)"/>
<path d="M363.126 53L367.004 43.2H368.292L372.114 53H370.952L369.79 49.92H365.422L364.26 53H363.126ZM365.758 49.066H369.468L367.606 44.18L365.758 49.066ZM376.085 53.112C375.45 53.112 374.876 52.958 374.363 52.65C373.859 52.3327 373.457 51.908 373.159 51.376C372.86 50.8347 372.711 50.2373 372.711 49.584C372.711 48.9213 372.86 48.324 373.159 47.792C373.457 47.26 373.859 46.84 374.363 46.532C374.876 46.2147 375.45 46.056 376.085 46.056C376.589 46.056 377.069 46.1493 377.527 46.336C377.984 46.5227 378.381 46.784 378.717 47.12L378.059 47.834C377.816 47.5633 377.522 47.3533 377.177 47.204C376.831 47.0547 376.481 46.98 376.127 46.98C375.679 46.98 375.273 47.0967 374.909 47.33C374.554 47.5633 374.269 47.876 374.055 48.268C373.84 48.66 373.733 49.0987 373.733 49.584C373.733 50.0693 373.84 50.508 374.055 50.9C374.269 51.292 374.554 51.6047 374.909 51.838C375.273 52.0713 375.679 52.188 376.127 52.188C376.481 52.188 376.831 52.1133 377.177 51.964C377.522 51.8053 377.816 51.5953 378.059 51.334L378.717 52.048C378.381 52.384 377.984 52.6453 377.527 52.832C377.069 53.0187 376.589 53.112 376.085 53.112ZM382.883 53.14C382.295 53.14 381.847 53 381.539 52.72C381.24 52.4307 381.091 52.0153 381.091 51.474V47.008H379.677V46.168H381.091V44.292L382.113 44.054V46.168H384.073V47.008H382.113V51.208C382.113 51.572 382.187 51.8333 382.337 51.992C382.495 52.1507 382.752 52.23 383.107 52.23C383.284 52.23 383.443 52.216 383.583 52.188C383.723 52.16 383.886 52.1133 384.073 52.048V52.958C383.886 53.0233 383.69 53.07 383.485 53.098C383.279 53.126 383.079 53.14 382.883 53.14ZM385.556 53V46.168H386.578V53H385.556ZM386.074 44.474C385.868 44.474 385.691 44.404 385.542 44.264C385.402 44.1147 385.332 43.942 385.332 43.746C385.332 43.55 385.402 43.382 385.542 43.242C385.691 43.0927 385.868 43.018 386.074 43.018C386.279 43.018 386.452 43.0927 386.592 43.242C386.741 43.382 386.816 43.55 386.816 43.746C386.816 43.942 386.741 44.1147 386.592 44.264C386.452 44.404 386.279 44.474 386.074 44.474ZM391.697 53.112C391.062 53.112 390.493 52.958 389.989 52.65C389.485 52.342 389.088 51.922 388.799 51.39C388.51 50.858 388.365 50.256 388.365 49.584C388.365 48.912 388.51 48.31 388.799 47.778C389.088 47.246 389.485 46.826 389.989 46.518C390.493 46.21 391.062 46.056 391.697 46.056C392.322 46.056 392.882 46.21 393.377 46.518C393.881 46.826 394.278 47.246 394.567 47.778C394.856 48.31 395.001 48.912 395.001 49.584C395.001 50.256 394.856 50.858 394.567 51.39C394.278 51.922 393.881 52.342 393.377 52.65C392.882 52.958 392.322 53.112 391.697 53.112ZM391.683 52.216C392.131 52.216 392.528 52.104 392.873 51.88C393.218 51.6467 393.489 51.3293 393.685 50.928C393.89 50.5267 393.993 50.0787 393.993 49.584C393.993 49.08 393.89 48.632 393.685 48.24C393.489 47.8387 393.218 47.526 392.873 47.302C392.528 47.0687 392.131 46.952 391.683 46.952C391.235 46.952 390.838 47.0687 390.493 47.302C390.148 47.526 389.872 47.8387 389.667 48.24C389.471 48.632 389.373 49.08 389.373 49.584C389.373 50.0787 389.471 50.5267 389.667 50.928C389.872 51.3293 390.148 51.6467 390.493 51.88C390.838 52.104 391.235 52.216 391.683 52.216ZM396.794 53V46.168H397.816V47.274C398.077 46.8633 398.39 46.56 398.754 46.364C399.118 46.1587 399.529 46.056 399.986 46.056C400.481 46.056 400.91 46.1633 401.274 46.378C401.647 46.5833 401.937 46.8773 402.142 47.26C402.357 47.6333 402.464 48.072 402.464 48.576V53H401.442V48.87C401.442 48.2633 401.274 47.7873 400.938 47.442C400.611 47.0873 400.168 46.91 399.608 46.91C399.235 46.91 398.894 46.9987 398.586 47.176C398.278 47.3533 398.021 47.6147 397.816 47.96V53H396.794Z" fill="#0066CC"/>
<g filter="url(#filter0_d_126_26498)">
<path d="M22 75C22 71.6863 24.6863 69 28 69H220C223.314 69 226 71.6863 226 75V236C226 239.314 223.314 242 220 242H28C24.6863 242 22 239.314 22 236V75Z" fill="white"/>
<path d="M46.126 105L50.004 95.2H51.292L55.114 105H53.952L52.79 101.92H48.422L47.26 105H46.126ZM48.758 101.066H52.468L50.606 96.18L48.758 101.066ZM56.2922 105V94.892L57.3142 94.682V105H56.2922ZM59.4094 105V94.892L60.4314 94.682V105H59.4094ZM68.8601 105.112C68.2255 105.112 67.6515 104.958 67.1381 104.65C66.6341 104.333 66.2328 103.908 65.9341 103.376C65.6355 102.835 65.4861 102.237 65.4861 101.584C65.4861 100.921 65.6355 100.324 65.9341 99.792C66.2328 99.26 66.6341 98.84 67.1381 98.532C67.6515 98.2147 68.2255 98.056 68.8601 98.056C69.3641 98.056 69.8448 98.1493 70.3021 98.336C70.7595 98.5227 71.1561 98.784 71.4921 99.12L70.8341 99.834C70.5915 99.5633 70.2975 99.3533 69.9521 99.204C69.6068 99.0547 69.2568 98.98 68.9021 98.98C68.4541 98.98 68.0481 99.0967 67.6841 99.33C67.3295 99.5633 67.0448 99.876 66.8301 100.268C66.6155 100.66 66.5081 101.099 66.5081 101.584C66.5081 102.069 66.6155 102.508 66.8301 102.9C67.0448 103.292 67.3295 103.605 67.6841 103.838C68.0481 104.071 68.4541 104.188 68.9021 104.188C69.2568 104.188 69.6068 104.113 69.9521 103.964C70.2975 103.805 70.5915 103.595 70.8341 103.334L71.4921 104.048C71.1561 104.384 70.7595 104.645 70.3021 104.832C69.8448 105.019 69.3641 105.112 68.8601 105.112ZM75.7361 105.112C75.1014 105.112 74.5321 104.958 74.0281 104.65C73.5241 104.342 73.1274 103.922 72.8381 103.39C72.5488 102.858 72.4041 102.256 72.4041 101.584C72.4041 100.912 72.5488 100.31 72.8381 99.778C73.1274 99.246 73.5241 98.826 74.0281 98.518C74.5321 98.21 75.1014 98.056 75.7361 98.056C76.3614 98.056 76.9214 98.21 77.4161 98.518C77.9201 98.826 78.3168 99.246 78.6061 99.778C78.8954 100.31 79.0401 100.912 79.0401 101.584C79.0401 102.256 78.8954 102.858 78.6061 103.39C78.3168 103.922 77.9201 104.342 77.4161 104.65C76.9214 104.958 76.3614 105.112 75.7361 105.112ZM75.7221 104.216C76.1701 104.216 76.5668 104.104 76.9121 103.88C77.2574 103.647 77.5281 103.329 77.7241 102.928C77.9294 102.527 78.0321 102.079 78.0321 101.584C78.0321 101.08 77.9294 100.632 77.7241 100.24C77.5281 99.8387 77.2574 99.526 76.9121 99.302C76.5668 99.0687 76.1701 98.952 75.7221 98.952C75.2741 98.952 74.8774 99.0687 74.5321 99.302C74.1868 99.526 73.9114 99.8387 73.7061 100.24C73.5101 100.632 73.4121 101.08 73.4121 101.584C73.4121 102.079 73.5101 102.527 73.7061 102.928C73.9114 103.329 74.1868 103.647 74.5321 103.88C74.8774 104.104 75.2741 104.216 75.7221 104.216ZM80.8332 105V94.892L81.8552 94.682V105H80.8332ZM86.9744 105.112C86.3397 105.112 85.7704 104.958 85.2664 104.65C84.7624 104.342 84.3657 103.922 84.0764 103.39C83.7871 102.858 83.6424 102.256 83.6424 101.584C83.6424 100.912 83.7871 100.31 84.0764 99.778C84.3657 99.246 84.7624 98.826 85.2664 98.518C85.7704 98.21 86.3397 98.056 86.9744 98.056C87.5997 98.056 88.1597 98.21 88.6544 98.518C89.1584 98.826 89.5551 99.246 89.8444 99.778C90.1337 100.31 90.2784 100.912 90.2784 101.584C90.2784 102.256 90.1337 102.858 89.8444 103.39C89.5551 103.922 89.1584 104.342 88.6544 104.65C88.1597 104.958 87.5997 105.112 86.9744 105.112ZM86.9604 104.216C87.4084 104.216 87.8051 104.104 88.1504 103.88C88.4957 103.647 88.7664 103.329 88.9624 102.928C89.1677 102.527 89.2704 102.079 89.2704 101.584C89.2704 101.08 89.1677 100.632 88.9624 100.24C88.7664 99.8387 88.4957 99.526 88.1504 99.302C87.8051 99.0687 87.4084 98.952 86.9604 98.952C86.5124 98.952 86.1157 99.0687 85.7704 99.302C85.4251 99.526 85.1497 99.8387 84.9444 100.24C84.7484 100.632 84.6504 101.08 84.6504 101.584C84.6504 102.079 84.7484 102.527 84.9444 102.928C85.1497 103.329 85.4251 103.647 85.7704 103.88C86.1157 104.104 86.5124 104.216 86.9604 104.216ZM92.0715 105V98.168H93.0935V99.568C93.2708 99.092 93.5228 98.7233 93.8495 98.462C94.1855 98.1913 94.5682 98.056 94.9975 98.056C95.1188 98.056 95.2308 98.0653 95.3335 98.084C95.4362 98.0933 95.5388 98.1167 95.6415 98.154V99.078C95.5295 99.0407 95.4082 99.0127 95.2775 98.994C95.1562 98.966 95.0395 98.952 94.9275 98.952C94.5075 98.952 94.1388 99.0733 93.8215 99.316C93.5135 99.5587 93.2708 99.8993 93.0935 100.338V105H92.0715ZM99.039 105.14C98.479 105.14 97.961 105.056 97.485 104.888C97.009 104.711 96.603 104.459 96.267 104.132L96.813 103.46C97.2237 103.759 97.6017 103.978 97.947 104.118C98.2923 104.249 98.647 104.314 99.011 104.314C99.5057 104.314 99.9163 104.197 100.243 103.964C100.57 103.731 100.733 103.432 100.733 103.068C100.733 102.788 100.635 102.569 100.439 102.41C100.252 102.251 99.9397 102.13 99.501 102.046L98.381 101.85C97.7183 101.729 97.2283 101.523 96.911 101.234C96.603 100.945 96.449 100.553 96.449 100.058C96.449 99.666 96.5517 99.3207 96.757 99.022C96.9717 98.7233 97.2657 98.49 97.639 98.322C98.0123 98.1447 98.437 98.056 98.913 98.056C99.3797 98.056 99.823 98.126 100.243 98.266C100.663 98.3967 101.088 98.6113 101.517 98.91L101.013 99.624C100.658 99.372 100.304 99.19 99.949 99.078C99.5943 98.9567 99.235 98.896 98.871 98.896C98.423 98.896 98.0637 98.994 97.793 99.19C97.5223 99.386 97.387 99.652 97.387 99.988C97.387 100.268 97.471 100.483 97.639 100.632C97.8163 100.781 98.1243 100.893 98.563 100.968L99.711 101.178C100.402 101.299 100.906 101.509 101.223 101.808C101.54 102.107 101.699 102.508 101.699 103.012C101.699 103.413 101.582 103.777 101.349 104.104C101.116 104.421 100.798 104.673 100.397 104.86C99.9957 105.047 99.543 105.14 99.039 105.14Z" fill="#1F1F1F"/>
<path fill-rule="evenodd" clip-rule="evenodd" d="M185.745 104.985L193.795 96.9349C194.068 96.6615 194.068 96.2183 193.795 95.945L192.805 94.955C192.532 94.6817 192.088 94.6817 191.815 94.955L185.25 101.52L182.185 98.455C181.912 98.1816 181.468 98.1816 181.195 98.455L180.205 99.445C179.932 99.7183 179.932 100.162 180.205 100.435L184.755 104.985C185.028 105.258 185.472 105.258 185.745 104.985Z" fill="#0066CC"/>
<path d="M47.246 146V136.2H51.264C51.8893 136.2 52.4353 136.321 52.902 136.564C53.3687 136.797 53.7327 137.124 53.994 137.544C54.2553 137.964 54.386 138.459 54.386 139.028C54.386 139.681 54.204 140.241 53.84 140.708C53.476 141.165 52.9767 141.487 52.342 141.674L54.428 146H53.238L51.25 141.814H48.324V146H47.246ZM48.324 140.918H51.18C51.824 140.918 52.3373 140.75 52.72 140.414C53.112 140.069 53.308 139.611 53.308 139.042C53.308 138.463 53.112 138.006 52.72 137.67C52.3373 137.325 51.824 137.152 51.18 137.152H48.324V140.918ZM58.839 146.14C58.2043 146.14 57.6303 145.986 57.117 145.678C56.6037 145.361 56.1977 144.936 55.899 144.404C55.6003 143.863 55.451 143.256 55.451 142.584C55.451 141.912 55.591 141.31 55.871 140.778C56.1603 140.246 56.5477 139.826 57.033 139.518C57.5183 139.21 58.0597 139.056 58.657 139.056C59.2637 139.056 59.8003 139.21 60.267 139.518C60.743 139.817 61.1163 140.227 61.387 140.75C61.667 141.263 61.807 141.847 61.807 142.5V142.808H56.445C56.4823 143.275 56.6083 143.695 56.823 144.068C57.047 144.432 57.3363 144.721 57.691 144.936C58.055 145.141 58.4517 145.244 58.881 145.244C59.2357 145.244 59.5763 145.183 59.903 145.062C60.239 144.931 60.5237 144.759 60.757 144.544L61.401 145.23C61.009 145.538 60.603 145.767 60.183 145.916C59.763 146.065 59.315 146.14 58.839 146.14ZM56.473 142.08H60.799C60.7523 141.669 60.6263 141.305 60.421 140.988C60.225 140.661 59.973 140.405 59.665 140.218C59.3663 140.031 59.0303 139.938 58.657 139.938C58.2837 139.938 57.943 140.031 57.635 140.218C57.327 140.395 57.0703 140.647 56.865 140.974C56.669 141.291 56.5383 141.66 56.473 142.08ZM66.394 146.098C65.806 146.098 65.274 145.944 64.798 145.636C64.322 145.319 63.944 144.899 63.664 144.376C63.384 143.844 63.244 143.251 63.244 142.598C63.244 141.935 63.384 141.343 63.664 140.82C63.9533 140.288 64.3406 139.868 64.826 139.56C65.3113 139.243 65.8526 139.084 66.45 139.084C66.87 139.084 67.262 139.168 67.626 139.336C67.99 139.495 68.3073 139.728 68.578 140.036V135.892L69.6 135.682V146H68.578V145.09C68.3166 145.417 67.9993 145.669 67.626 145.846C67.2526 146.014 66.842 146.098 66.394 146.098ZM66.646 145.202C67.0473 145.202 67.416 145.123 67.752 144.964C68.088 144.805 68.3633 144.581 68.578 144.292V140.904C68.354 140.615 68.0693 140.391 67.724 140.232C67.388 140.064 67.0286 139.98 66.646 139.98C66.1886 139.98 65.778 140.092 65.414 140.316C65.0593 140.54 64.7746 140.848 64.56 141.24C64.3546 141.632 64.252 142.08 64.252 142.584C64.252 143.079 64.3546 143.527 64.56 143.928C64.7746 144.32 65.0593 144.633 65.414 144.866C65.778 145.09 66.1886 145.202 66.646 145.202Z" fill="#151515"/>
<path d="M51.67 183.154C50.9887 183.154 50.354 183.028 49.766 182.776C49.178 182.515 48.66 182.155 48.212 181.698C47.7733 181.231 47.428 180.695 47.176 180.088C46.924 179.472 46.798 178.809 46.798 178.1C46.798 177.391 46.924 176.733 47.176 176.126C47.428 175.51 47.7733 174.973 48.212 174.516C48.66 174.049 49.178 173.69 49.766 173.438C50.354 173.177 50.9887 173.046 51.67 173.046C52.3513 173.046 52.986 173.177 53.574 173.438C54.162 173.69 54.6753 174.049 55.114 174.516C55.562 174.973 55.912 175.51 56.164 176.126C56.416 176.733 56.542 177.391 56.542 178.1C56.542 178.809 56.416 179.472 56.164 180.088C55.912 180.695 55.562 181.231 55.114 181.698C54.6753 182.155 54.162 182.515 53.574 182.776C52.986 183.028 52.3513 183.154 51.67 183.154ZM51.67 182.174C52.202 182.174 52.6967 182.071 53.154 181.866C53.6113 181.661 54.0127 181.371 54.358 180.998C54.7033 180.625 54.9693 180.191 55.156 179.696C55.352 179.201 55.45 178.669 55.45 178.1C55.45 177.521 55.352 176.989 55.156 176.504C54.9693 176.009 54.7033 175.575 54.358 175.202C54.0127 174.829 53.6113 174.539 53.154 174.334C52.6967 174.129 52.202 174.026 51.67 174.026C51.138 174.026 50.6433 174.129 50.186 174.334C49.7287 174.539 49.3273 174.829 48.982 175.202C48.6367 175.575 48.366 176.009 48.17 176.504C47.9833 176.989 47.89 177.517 47.89 178.086C47.89 178.665 47.9833 179.201 48.17 179.696C48.366 180.191 48.6367 180.625 48.982 180.998C49.3273 181.371 49.7287 181.661 50.186 181.866C50.6433 182.071 51.138 182.174 51.67 182.174ZM58.384 183V176.168H59.406V177.568C59.5833 177.092 59.8353 176.723 60.162 176.462C60.498 176.191 60.8807 176.056 61.31 176.056C61.4313 176.056 61.5433 176.065 61.646 176.084C61.7487 176.093 61.8513 176.117 61.954 176.154V177.078C61.842 177.041 61.7207 177.013 61.59 176.994C61.4687 176.966 61.352 176.952 61.24 176.952C60.82 176.952 60.4513 177.073 60.134 177.316C59.826 177.559 59.5833 177.899 59.406 178.338V183H58.384ZM65.1328 183.126C64.6474 183.126 64.2181 183.037 63.8448 182.86C63.4714 182.683 63.1774 182.44 62.9628 182.132C62.7574 181.815 62.6548 181.451 62.6548 181.04C62.6548 180.629 62.7621 180.275 62.9768 179.976C63.1914 179.668 63.4901 179.43 63.8728 179.262C64.2554 179.094 64.7034 179.01 65.2168 179.01C65.6088 179.01 65.9774 179.052 66.3228 179.136C66.6774 179.22 67.0041 179.355 67.3028 179.542V178.604C67.3028 178.044 67.1534 177.624 66.8548 177.344C66.5561 177.055 66.1174 176.91 65.5388 176.91C65.2214 176.91 64.8948 176.957 64.5588 177.05C64.2321 177.143 63.8681 177.293 63.4668 177.498L63.0888 176.714C64.0034 176.275 64.8621 176.056 65.6647 176.056C66.5141 176.056 67.1674 176.266 67.6248 176.686C68.0821 177.097 68.3108 177.689 68.3108 178.464V183H67.3028V182.202C67.0041 182.51 66.6728 182.743 66.3088 182.902C65.9448 183.051 65.5528 183.126 65.1328 183.126ZM63.6348 181.012C63.6348 181.413 63.7888 181.735 64.0968 181.978C64.4141 182.221 64.8294 182.342 65.3428 182.342C65.7254 182.342 66.0754 182.277 66.3928 182.146C66.7194 182.015 67.0228 181.819 67.3028 181.558V180.242C67.0134 180.074 66.7148 179.953 66.4068 179.878C66.0988 179.794 65.7534 179.752 65.3708 179.752C64.8481 179.752 64.4281 179.869 64.1108 180.102C63.7934 180.326 63.6348 180.629 63.6348 181.012ZM70.3879 183V176.168H71.4099V177.274C71.6712 176.863 71.9839 176.56 72.3479 176.364C72.7119 176.159 73.1226 176.056 73.5799 176.056C74.0746 176.056 74.5039 176.163 74.8679 176.378C75.2412 176.583 75.5306 176.877 75.7359 177.26C75.9506 177.633 76.0579 178.072 76.0579 178.576V183H75.0359V178.87C75.0359 178.263 74.8679 177.787 74.5319 177.442C74.2052 177.087 73.7619 176.91 73.2019 176.91C72.8286 176.91 72.4879 176.999 72.1799 177.176C71.8719 177.353 71.6152 177.615 71.4099 177.96V183H70.3879ZM81.2765 186.066C80.8192 186.066 80.3572 186.001 79.8905 185.87C79.4332 185.749 79.0085 185.576 78.6165 185.352L79.0505 184.568C79.4705 184.783 79.8532 184.941 80.1985 185.044C80.5438 185.147 80.8892 185.198 81.2345 185.198C81.8598 185.198 82.3312 185.049 82.6485 184.75C82.9752 184.451 83.1385 184.017 83.1385 183.448V182.076C82.8772 182.403 82.5598 182.655 82.1865 182.832C81.8132 183 81.4025 183.084 80.9545 183.084C80.3665 183.084 79.8345 182.93 79.3585 182.622C78.8825 182.305 78.5045 181.885 78.2245 181.362C77.9445 180.83 77.8045 180.237 77.8045 179.584C77.8045 178.931 77.9445 178.343 78.2245 177.82C78.5138 177.288 78.9012 176.868 79.3865 176.56C79.8718 176.243 80.4132 176.084 81.0105 176.084C81.4398 176.084 81.8365 176.168 82.2005 176.336C82.5645 176.495 82.8818 176.733 83.1525 177.05V176.168H84.1605V183.434C84.1605 184.283 83.9132 184.932 83.4185 185.38C82.9238 185.837 82.2098 186.066 81.2765 186.066ZM81.2065 182.202C81.6078 182.202 81.9765 182.123 82.3125 181.964C82.6485 181.796 82.9238 181.567 83.1385 181.278V177.904C82.9145 177.615 82.6298 177.391 82.2845 177.232C81.9485 177.064 81.5892 176.98 81.2065 176.98C80.7492 176.98 80.3385 177.092 79.9745 177.316C79.6198 177.54 79.3352 177.848 79.1205 178.24C78.9152 178.632 78.8125 179.08 78.8125 179.584C78.8125 180.079 78.9152 180.527 79.1205 180.928C79.3352 181.32 79.6198 181.633 79.9745 181.866C80.3385 182.09 80.7492 182.202 81.2065 182.202ZM89.3409 183.14C88.7063 183.14 88.1323 182.986 87.6189 182.678C87.1056 182.361 86.6996 181.936 86.4009 181.404C86.1023 180.863 85.9529 180.256 85.9529 179.584C85.9529 178.912 86.0929 178.31 86.3729 177.778C86.6623 177.246 87.0496 176.826 87.5349 176.518C88.0203 176.21 88.5616 176.056 89.1589 176.056C89.7656 176.056 90.3023 176.21 90.7689 176.518C91.2449 176.817 91.6183 177.227 91.8889 177.75C92.1689 178.263 92.3089 178.847 92.3089 179.5V179.808H86.9469C86.9843 180.275 87.1103 180.695 87.3249 181.068C87.5489 181.432 87.8383 181.721 88.1929 181.936C88.5569 182.141 88.9536 182.244 89.3829 182.244C89.7376 182.244 90.0783 182.183 90.4049 182.062C90.7409 181.931 91.0256 181.759 91.2589 181.544L91.9029 182.23C91.5109 182.538 91.1049 182.767 90.6849 182.916C90.2649 183.065 89.8169 183.14 89.3409 183.14ZM86.9749 179.08H91.3009C91.2543 178.669 91.1283 178.305 90.9229 177.988C90.7269 177.661 90.4749 177.405 90.1669 177.218C89.8683 177.031 89.5323 176.938 89.1589 176.938C88.7856 176.938 88.4449 177.031 88.1369 177.218C87.8289 177.395 87.5723 177.647 87.3669 177.974C87.1709 178.291 87.0403 178.66 86.9749 179.08Z" fill="#151515"/>
<path d="M49.976 220V215.996L46.168 210.2H47.428L50.55 215.058L53.686 210.2H54.876L51.054 216.024V220H49.976ZM57.7179 220.14C57.0832 220.14 56.5092 219.986 55.9959 219.678C55.4826 219.361 55.0766 218.936 54.7779 218.404C54.4792 217.863 54.3299 217.256 54.3299 216.584C54.3299 215.912 54.4699 215.31 54.7499 214.778C55.0392 214.246 55.4266 213.826 55.9119 213.518C56.3972 213.21 56.9386 213.056 57.5359 213.056C58.1426 213.056 58.6792 213.21 59.1459 213.518C59.6219 213.817 59.9952 214.227 60.2659 214.75C60.5459 215.263 60.6859 215.847 60.6859 216.5V216.808H55.3239C55.3612 217.275 55.4872 217.695 55.7019 218.068C55.9259 218.432 56.2152 218.721 56.5699 218.936C56.9339 219.141 57.3306 219.244 57.7599 219.244C58.1146 219.244 58.4552 219.183 58.7819 219.062C59.1179 218.931 59.4026 218.759 59.6359 218.544L60.2799 219.23C59.8879 219.538 59.4819 219.767 59.0619 219.916C58.6419 220.065 58.1939 220.14 57.7179 220.14ZM55.3519 216.08H59.6779C59.6312 215.669 59.5052 215.305 59.2999 214.988C59.1039 214.661 58.8519 214.405 58.5439 214.218C58.2452 214.031 57.9092 213.938 57.5359 213.938C57.1626 213.938 56.8219 214.031 56.5139 214.218C56.2059 214.395 55.9492 214.647 55.7439 214.974C55.5479 215.291 55.4172 215.66 55.3519 216.08ZM62.4309 220V209.892L63.4529 209.682V220H62.4309ZM65.548 220V209.892L66.57 209.682V220H65.548ZM71.6892 220.112C71.0546 220.112 70.4852 219.958 69.9812 219.65C69.4772 219.342 69.0806 218.922 68.7912 218.39C68.5019 217.858 68.3572 217.256 68.3572 216.584C68.3572 215.912 68.5019 215.31 68.7912 214.778C69.0806 214.246 69.4772 213.826 69.9812 213.518C70.4852 213.21 71.0546 213.056 71.6892 213.056C72.3146 213.056 72.8746 213.21 73.3692 213.518C73.8732 213.826 74.2699 214.246 74.5592 214.778C74.8486 215.31 74.9932 215.912 74.9932 216.584C74.9932 217.256 74.8486 217.858 74.5592 218.39C74.2699 218.922 73.8732 219.342 73.3692 219.65C72.8746 219.958 72.3146 220.112 71.6892 220.112ZM71.6752 219.216C72.1232 219.216 72.5199 219.104 72.8652 218.88C73.2106 218.647 73.4812 218.329 73.6772 217.928C73.8826 217.527 73.9852 217.079 73.9852 216.584C73.9852 216.08 73.8826 215.632 73.6772 215.24C73.4812 214.839 73.2106 214.526 72.8652 214.302C72.5199 214.069 72.1232 213.952 71.6752 213.952C71.2272 213.952 70.8306 214.069 70.4852 214.302C70.1399 214.526 69.8646 214.839 69.6592 215.24C69.4632 215.632 69.3652 216.08 69.3652 216.584C69.3652 217.079 69.4632 217.527 69.6592 217.928C69.8646 218.329 70.1399 218.647 70.4852 218.88C70.8306 219.104 71.2272 219.216 71.6752 219.216ZM77.8676 220L75.9916 213.168H76.9856L78.4136 218.628L80.0516 213.168H80.9616L82.5996 218.628L84.0136 213.168H84.9796L83.1176 220H82.1236L80.4996 214.484L78.8756 220H77.8676Z" fill="#151515"/>
</g>
<defs>
<filter id="filter0_d_126_26498" x="13" y="64" width="222" height="191" filterUnits="userSpaceOnUse" color-interpolation-filters="sRGB">
<feFlood flood-opacity="0" result="BackgroundImageFix"/>
<feColorMatrix in="SourceAlpha" type="matrix" values="0 0 0 0 0 0 0 0 0 0 0 0 0 0 0 0 0 0 127 0" result="hardAlpha"/>
<feOffset dy="4"/>
<feGaussianBlur stdDeviation="4.5"/>
<feColorMatrix type="matrix" values="0 0 0 0 0.160784 0 0 0 0 0.160784 0 0 0 0 0.160784 0 0 0 0.15 0"/>
<feBlend mode="normal" in2="BackgroundImageFix" result="effect1_dropShadow_126_26498"/>
<feBlend mode="normal" in="SourceGraphic" in2="effect1_dropShadow_126_26498" result="shape"/>
</filter>
</defs>
</svg>
