<svg width="1008" height="162" viewBox="0 0 1008 162" fill="none" xmlns="http://www.w3.org/2000/svg">
<rect width="1008" height="162" fill="white"/>
<rect width="1008" height="69" fill="white"/>
<mask id="path-1-inside-1_1815_38604" fill="white">
<path d="M16 22C16 18.6863 18.6863 16 22 16H64V53H22C18.6863 53 16 50.3137 16 47V22Z"/>
</mask>
<path d="M16 22C16 18.6863 18.6863 16 22 16H64V53H22C18.6863 53 16 50.3137 16 47V22Z" fill="white"/>
<path d="M64 16H65V15H64V16ZM64 53V54H65V53H64ZM22 16V17H64V16V15H22V16ZM64 16H63V53H64H65V16H64ZM64 53V52H22V53V54H64V53ZM16 47H17V22H16H15V47H16ZM22 53V52C19.2386 52 17 49.7614 17 47H16H15C15 50.866 18.134 54 22 54V53ZM22 16V15C18.134 15 15 18.134 15 22H16H17C17 19.2386 19.2386 17 22 17V16Z" fill="#C7C7C7" mask="url(#path-1-inside-1_1815_38604)"/>
<mask id="path-3-inside-2_1815_38604" fill="white">
<path d="M32 30.5C32 28.2909 33.7909 26.5 36 26.5H44C46.2091 26.5 48 28.2909 48 30.5V38.5C48 40.7091 46.2091 42.5 44 42.5H36C33.7909 42.5 32 40.7091 32 38.5V30.5Z"/>
</mask>
<path d="M32 30.5C32 28.2909 33.7909 26.5 36 26.5H44C46.2091 26.5 48 28.2909 48 30.5V38.5C48 40.7091 46.2091 42.5 44 42.5H36C33.7909 42.5 32 40.7091 32 38.5V30.5Z" fill="white"/>
<path d="M36 26.5V27.5H44V26.5V25.5H36V26.5ZM48 30.5H47V38.5H48H49V30.5H48ZM44 42.5V41.5H36V42.5V43.5H44V42.5ZM32 38.5H33V30.5H32H31V38.5H32ZM36 42.5V41.5C34.3431 41.5 33 40.1569 33 38.5H32H31C31 41.2614 33.2386 43.5 36 43.5V42.5ZM48 38.5H47C47 40.1569 45.6569 41.5 44 41.5V42.5V43.5C46.7614 43.5 49 41.2614 49 38.5H48ZM44 26.5V27.5C45.6569 27.5 47 28.8431 47 30.5H48H49C49 27.7386 46.7614 25.5 44 25.5V26.5ZM36 26.5V25.5C33.2386 25.5 31 27.7386 31 30.5H32H33C33 28.8431 34.3431 27.5 36 27.5V26.5Z" fill="#C7C7C7" mask="url(#path-3-inside-2_1815_38604)"/>
<mask id="path-5-inside-3_1815_38604" fill="white">
<path d="M63 16H103C106.314 16 109 18.6863 109 22V47C109 50.3137 106.314 53 103 53H63V16Z"/>
</mask>
<path d="M63 16H103C106.314 16 109 18.6863 109 22V47C109 50.3137 106.314 53 103 53H63V16Z" fill="white"/>
<path d="M63 16V15H62V16H63ZM63 53H62V54H63V53ZM63 16V17H103V16V15H63V16ZM109 22H108V47H109H110V22H109ZM103 53V52H63V53V54H103V53ZM63 53H64V16H63H62V53H63ZM109 47H108C108 49.7614 105.761 52 103 52V53V54C106.866 54 110 50.866 110 47H109ZM103 16V17C105.761 17 108 19.2386 108 22H109H110C110 18.134 106.866 15 103 15V16Z" fill="#C7C7C7" mask="url(#path-5-inside-3_1815_38604)"/>
<path d="M89.5343 32.167C90.0231 32.1673 90.2671 32.7618 89.9211 33.1104L86.3888 36.6719C86.1746 36.8874 85.8257 36.8874 85.6115 36.6719L82.0793 33.1104C81.7332 32.7618 81.9773 32.1673 82.466 32.167H89.5343Z" fill="#1F1F1F"/>
<path d="M131 16.5H324C327.038 16.5 329.5 18.9624 329.5 22V47C329.5 50.0376 327.038 52.5 324 52.5H131C127.962 52.5 125.5 50.0376 125.5 47V22C125.5 18.9624 127.962 16.5 131 16.5Z" fill="white"/>
<path d="M131 16.5H324C327.038 16.5 329.5 18.9624 329.5 22V47C329.5 50.0376 327.038 52.5 324 52.5H131C127.962 52.5 125.5 50.0376 125.5 47V22C125.5 18.9624 127.962 16.5 131 16.5Z" stroke="#C7C7C7"/>
<path d="M142.688 28C145.829 28 148.375 30.5457 148.375 33.6875C148.375 35.0082 147.927 36.2223 147.172 37.1875H147.617C147.792 37.1875 147.959 37.256 148.082 37.3789L150.809 40.1055C151.063 40.3625 151.063 40.7782 150.806 41.0352L150.032 41.8086C149.778 42.0656 149.363 42.0654 149.105 41.8086L146.379 39.082C146.256 38.959 146.188 38.7921 146.188 38.6172V38.1719C145.222 38.9265 144.008 39.375 142.688 39.375C139.546 39.375 137 36.8293 137 33.6875C137 30.5457 139.546 28 142.688 28ZM142.688 30.1875C140.752 30.1875 139.188 31.7543 139.188 33.6875C139.188 35.6234 140.754 37.1875 142.688 37.1875C144.623 37.1875 146.187 35.6207 146.188 33.6875C146.188 31.7516 144.621 30.1875 142.688 30.1875Z" fill="#1F1F1F"/>
<path d="M163.246 39V29.2H169.938V30.152H164.324V33.652H168.16V34.59H164.324V39H163.246ZM171.376 39V32.168H172.398V39H171.376ZM171.894 30.474C171.689 30.474 171.511 30.404 171.362 30.264C171.222 30.1147 171.152 29.942 171.152 29.746C171.152 29.55 171.222 29.382 171.362 29.242C171.511 29.0927 171.689 29.018 171.894 29.018C172.099 29.018 172.272 29.0927 172.412 29.242C172.561 29.382 172.636 29.55 172.636 29.746C172.636 29.942 172.561 30.1147 172.412 30.264C172.272 30.404 172.099 30.474 171.894 30.474ZM174.493 39V32.168H175.515V33.274C175.777 32.8633 176.089 32.56 176.453 32.364C176.817 32.1587 177.228 32.056 177.685 32.056C178.18 32.056 178.609 32.1633 178.973 32.378C179.347 32.5833 179.636 32.8773 179.841 33.26C180.056 33.6333 180.163 34.072 180.163 34.576V39H179.141V34.87C179.141 34.2633 178.973 33.7873 178.637 33.442C178.311 33.0873 177.867 32.91 177.307 32.91C176.934 32.91 176.593 32.9987 176.285 33.176C175.977 33.3533 175.721 33.6147 175.515 33.96V39H174.493ZM185.06 39.098C184.472 39.098 183.94 38.944 183.464 38.636C182.988 38.3187 182.61 37.8987 182.33 37.376C182.05 36.844 181.91 36.2513 181.91 35.598C181.91 34.9353 182.05 34.3427 182.33 33.82C182.619 33.288 183.007 32.868 183.492 32.56C183.977 32.2427 184.519 32.084 185.116 32.084C185.536 32.084 185.928 32.168 186.292 32.336C186.656 32.4947 186.973 32.728 187.244 33.036V28.892L188.266 28.682V39H187.244V38.09C186.983 38.4167 186.665 38.6687 186.292 38.846C185.919 39.014 185.508 39.098 185.06 39.098ZM185.312 38.202C185.713 38.202 186.082 38.1227 186.418 37.964C186.754 37.8053 187.029 37.5813 187.244 37.292V33.904C187.02 33.6147 186.735 33.3907 186.39 33.232C186.054 33.064 185.695 32.98 185.312 32.98C184.855 32.98 184.444 33.092 184.08 33.316C183.725 33.54 183.441 33.848 183.226 34.24C183.021 34.632 182.918 35.08 182.918 35.584C182.918 36.0787 183.021 36.5267 183.226 36.928C183.441 37.32 183.725 37.6327 184.08 37.866C184.444 38.09 184.855 38.202 185.312 38.202ZM193.634 39V28.99L194.656 28.78V33.106C194.917 32.7793 195.235 32.5273 195.608 32.35C195.981 32.1727 196.397 32.084 196.854 32.084C197.451 32.084 197.983 32.2427 198.45 32.56C198.926 32.868 199.304 33.288 199.584 33.82C199.864 34.3427 200.004 34.9307 200.004 35.584C200.004 36.2373 199.859 36.83 199.57 37.362C199.29 37.894 198.907 38.3187 198.422 38.636C197.946 38.944 197.405 39.098 196.798 39.098C196.369 39.098 195.967 39.014 195.594 38.846C195.23 38.6687 194.913 38.4213 194.642 38.104V39H193.634ZM196.602 38.216C197.059 38.216 197.465 38.104 197.82 37.88C198.184 37.6467 198.469 37.334 198.674 36.942C198.889 36.5407 198.996 36.0927 198.996 35.598C198.996 35.094 198.889 34.646 198.674 34.254C198.469 33.862 198.184 33.554 197.82 33.33C197.465 33.0967 197.059 32.98 196.602 32.98C196.201 32.98 195.827 33.064 195.482 33.232C195.146 33.3907 194.871 33.6193 194.656 33.918V37.264C194.88 37.5627 195.16 37.796 195.496 37.964C195.841 38.132 196.21 38.216 196.602 38.216ZM201.885 42.066C201.67 42.066 201.451 42.0333 201.227 41.968V41.058C201.32 41.0767 201.418 41.0907 201.521 41.1C201.624 41.1093 201.712 41.114 201.787 41.114C202.048 41.114 202.263 41.044 202.431 40.904C202.608 40.764 202.758 40.5447 202.879 40.246L203.383 39L200.751 32.168H201.885L203.957 37.782L206.155 32.168H207.289L203.845 40.554C203.696 40.918 203.532 41.212 203.355 41.436C203.178 41.66 202.972 41.8187 202.739 41.912C202.506 42.0147 202.221 42.066 201.885 42.066ZM211.831 39V32.168H212.853V33.274C213.115 32.8633 213.427 32.56 213.791 32.364C214.155 32.1587 214.566 32.056 215.023 32.056C215.518 32.056 215.947 32.1633 216.311 32.378C216.685 32.5833 216.974 32.8773 217.179 33.26C217.394 33.6333 217.501 34.072 217.501 34.576V39H216.479V34.87C216.479 34.2633 216.311 33.7873 215.975 33.442C215.649 33.0873 215.205 32.91 214.645 32.91C214.272 32.91 213.931 32.9987 213.623 33.176C213.315 33.3533 213.059 33.6147 212.853 33.96V39H211.831ZM221.67 39.126C221.185 39.126 220.755 39.0373 220.382 38.86C220.009 38.6827 219.715 38.44 219.5 38.132C219.295 37.8147 219.192 37.4507 219.192 37.04C219.192 36.6293 219.299 36.2747 219.514 35.976C219.729 35.668 220.027 35.43 220.41 35.262C220.793 35.094 221.241 35.01 221.754 35.01C222.146 35.01 222.515 35.052 222.86 35.136C223.215 35.22 223.541 35.3553 223.84 35.542V34.604C223.84 34.044 223.691 33.624 223.392 33.344C223.093 33.0547 222.655 32.91 222.076 32.91C221.759 32.91 221.432 32.9567 221.096 33.05C220.769 33.1433 220.405 33.2927 220.004 33.498L219.626 32.714C220.541 32.2753 221.399 32.056 222.202 32.056C223.051 32.056 223.705 32.266 224.162 32.686C224.619 33.0967 224.848 33.6893 224.848 34.464V39H223.84V38.202C223.541 38.51 223.21 38.7433 222.846 38.902C222.482 39.0513 222.09 39.126 221.67 39.126ZM220.172 37.012C220.172 37.4133 220.326 37.7353 220.634 37.978C220.951 38.2207 221.367 38.342 221.88 38.342C222.263 38.342 222.613 38.2767 222.93 38.146C223.257 38.0153 223.56 37.8193 223.84 37.558V36.242C223.551 36.074 223.252 35.9527 222.944 35.878C222.636 35.794 222.291 35.752 221.908 35.752C221.385 35.752 220.965 35.8687 220.648 36.102C220.331 36.326 220.172 36.6293 220.172 37.012ZM226.925 39V32.168H227.947V33.232C228.208 32.84 228.507 32.546 228.843 32.35C229.179 32.154 229.557 32.056 229.977 32.056C230.462 32.056 230.887 32.1773 231.251 32.42C231.615 32.6533 231.89 32.9753 232.077 33.386C232.348 32.9473 232.67 32.616 233.043 32.392C233.426 32.168 233.864 32.056 234.359 32.056C234.816 32.056 235.218 32.1633 235.563 32.378C235.918 32.5927 236.193 32.8913 236.389 33.274C236.585 33.6473 236.683 34.086 236.683 34.59V39H235.661V34.842C235.661 34.2447 235.512 33.7733 235.213 33.428C234.914 33.0827 234.504 32.91 233.981 32.91C233.626 32.91 233.304 32.9987 233.015 33.176C232.735 33.3533 232.488 33.624 232.273 33.988C232.292 34.0813 232.306 34.1793 232.315 34.282C232.324 34.3847 232.329 34.4873 232.329 34.59V39H231.307V34.842C231.307 34.2447 231.153 33.7733 230.845 33.428C230.546 33.0827 230.136 32.91 229.613 32.91C228.913 32.91 228.358 33.246 227.947 33.918V39H226.925ZM241.831 39.14C241.197 39.14 240.623 38.986 240.109 38.678C239.596 38.3607 239.19 37.936 238.891 37.404C238.593 36.8627 238.443 36.256 238.443 35.584C238.443 34.912 238.583 34.31 238.863 33.778C239.153 33.246 239.54 32.826 240.025 32.518C240.511 32.21 241.052 32.056 241.649 32.056C242.256 32.056 242.793 32.21 243.259 32.518C243.735 32.8167 244.109 33.2273 244.379 33.75C244.659 34.2633 244.799 34.8467 244.799 35.5V35.808H239.437C239.475 36.2747 239.601 36.6947 239.815 37.068C240.039 37.432 240.329 37.7213 240.683 37.936C241.047 38.1413 241.444 38.244 241.873 38.244C242.228 38.244 242.569 38.1833 242.895 38.062C243.231 37.9313 243.516 37.7587 243.749 37.544L244.393 38.23C244.001 38.538 243.595 38.7667 243.175 38.916C242.755 39.0653 242.307 39.14 241.831 39.14ZM239.465 35.08H243.791C243.745 34.6693 243.619 34.3053 243.413 33.988C243.217 33.6613 242.965 33.4047 242.657 33.218C242.359 33.0313 242.023 32.938 241.649 32.938C241.276 32.938 240.935 33.0313 240.627 33.218C240.319 33.3953 240.063 33.6473 239.857 33.974C239.661 34.2913 239.531 34.66 239.465 35.08Z" fill="#4D4D4D"/>
<path d="M346 34.5C346 24.2827 354.283 16 364.5 16H424.5C434.717 16 443 24.2827 443 34.5V34.5C443 44.7173 434.717 53 424.5 53H364.5C354.283 53 346 44.7173 346 34.5V34.5Z" fill="#0066CC"/>
<path d="M370.126 39L374.004 29.2H375.292L379.114 39H377.952L376.79 35.92H372.422L371.26 39H370.126ZM372.758 35.066H376.468L374.606 30.18L372.758 35.066ZM383.085 39.112C382.45 39.112 381.876 38.958 381.363 38.65C380.859 38.3327 380.457 37.908 380.159 37.376C379.86 36.8347 379.711 36.2373 379.711 35.584C379.711 34.9213 379.86 34.324 380.159 33.792C380.457 33.26 380.859 32.84 381.363 32.532C381.876 32.2147 382.45 32.056 383.085 32.056C383.589 32.056 384.069 32.1493 384.527 32.336C384.984 32.5227 385.381 32.784 385.717 33.12L385.059 33.834C384.816 33.5633 384.522 33.3533 384.177 33.204C383.831 33.0547 383.481 32.98 383.127 32.98C382.679 32.98 382.273 33.0967 381.909 33.33C381.554 33.5633 381.269 33.876 381.055 34.268C380.84 34.66 380.733 35.0987 380.733 35.584C380.733 36.0693 380.84 36.508 381.055 36.9C381.269 37.292 381.554 37.6047 381.909 37.838C382.273 38.0713 382.679 38.188 383.127 38.188C383.481 38.188 383.831 38.1133 384.177 37.964C384.522 37.8053 384.816 37.5953 385.059 37.334L385.717 38.048C385.381 38.384 384.984 38.6453 384.527 38.832C384.069 39.0187 383.589 39.112 383.085 39.112ZM389.883 39.14C389.295 39.14 388.847 39 388.539 38.72C388.24 38.4307 388.091 38.0153 388.091 37.474V33.008H386.677V32.168H388.091V30.292L389.113 30.054V32.168H391.073V33.008H389.113V37.208C389.113 37.572 389.187 37.8333 389.337 37.992C389.495 38.1507 389.752 38.23 390.107 38.23C390.284 38.23 390.443 38.216 390.583 38.188C390.723 38.16 390.886 38.1133 391.073 38.048V38.958C390.886 39.0233 390.69 39.07 390.485 39.098C390.279 39.126 390.079 39.14 389.883 39.14ZM392.556 39V32.168H393.578V39H392.556ZM393.074 30.474C392.868 30.474 392.691 30.404 392.542 30.264C392.402 30.1147 392.332 29.942 392.332 29.746C392.332 29.55 392.402 29.382 392.542 29.242C392.691 29.0927 392.868 29.018 393.074 29.018C393.279 29.018 393.452 29.0927 393.592 29.242C393.741 29.382 393.816 29.55 393.816 29.746C393.816 29.942 393.741 30.1147 393.592 30.264C393.452 30.404 393.279 30.474 393.074 30.474ZM398.697 39.112C398.062 39.112 397.493 38.958 396.989 38.65C396.485 38.342 396.088 37.922 395.799 37.39C395.51 36.858 395.365 36.256 395.365 35.584C395.365 34.912 395.51 34.31 395.799 33.778C396.088 33.246 396.485 32.826 396.989 32.518C397.493 32.21 398.062 32.056 398.697 32.056C399.322 32.056 399.882 32.21 400.377 32.518C400.881 32.826 401.278 33.246 401.567 33.778C401.856 34.31 402.001 34.912 402.001 35.584C402.001 36.256 401.856 36.858 401.567 37.39C401.278 37.922 400.881 38.342 400.377 38.65C399.882 38.958 399.322 39.112 398.697 39.112ZM398.683 38.216C399.131 38.216 399.528 38.104 399.873 37.88C400.218 37.6467 400.489 37.3293 400.685 36.928C400.89 36.5267 400.993 36.0787 400.993 35.584C400.993 35.08 400.89 34.632 400.685 34.24C400.489 33.8387 400.218 33.526 399.873 33.302C399.528 33.0687 399.131 32.952 398.683 32.952C398.235 32.952 397.838 33.0687 397.493 33.302C397.148 33.526 396.872 33.8387 396.667 34.24C396.471 34.632 396.373 35.08 396.373 35.584C396.373 36.0787 396.471 36.5267 396.667 36.928C396.872 37.3293 397.148 37.6467 397.493 37.88C397.838 38.104 398.235 38.216 398.683 38.216ZM403.794 39V32.168H404.816V33.274C405.077 32.8633 405.39 32.56 405.754 32.364C406.118 32.1587 406.529 32.056 406.986 32.056C407.481 32.056 407.91 32.1633 408.274 32.378C408.647 32.5833 408.937 32.8773 409.142 33.26C409.357 33.6333 409.464 34.072 409.464 34.576V39H408.442V34.87C408.442 34.2633 408.274 33.7873 407.938 33.442C407.611 33.0873 407.168 32.91 406.608 32.91C406.235 32.91 405.894 32.9987 405.586 33.176C405.278 33.3533 405.021 33.6147 404.816 33.96V39H403.794ZM415.878 39V30.292L414.31 30.992V30.068L416.256 29.2H416.886V39H415.878Z" fill="white"/>
<path d="M459 25.5C459 22.1863 461.686 19.5 465 19.5H483C486.314 19.5 489 22.1863 489 25.5V43.5C489 46.8137 486.314 49.5 483 49.5H465C461.686 49.5 459 46.8137 459 43.5V25.5Z" fill="#C7C7C7" fill-opacity="0.25"/>
<path d="M474.292 37.4355C475.42 37.4357 476.333 38.3445 476.333 39.4678C476.333 40.591 475.42 41.4998 474.292 41.5C473.163 41.5 472.25 40.5911 472.25 39.4678C472.25 38.3444 473.163 37.4355 474.292 37.4355ZM474.292 32.4678C475.42 32.4679 476.333 33.3767 476.333 34.5C476.333 35.6233 475.42 36.5321 474.292 36.5322C473.163 36.5322 472.25 35.6234 472.25 34.5C472.25 33.3766 473.163 32.4678 474.292 32.4678ZM474.292 27.5C475.42 27.5002 476.333 28.409 476.333 29.5322C476.333 30.6555 475.42 31.5643 474.292 31.5645C473.163 31.5645 472.25 30.6556 472.25 29.5322C472.25 28.4089 473.163 27.5 474.292 27.5Z" fill="#1F1F1F"/>
<path d="M775.254 39V30.81L773.518 31.552V30.194L775.814 29.2H776.78V39H775.254ZM781.714 35.696V34.352H786.6V35.696H781.714ZM791.255 39V37.894L795.273 33.694C795.516 33.442 795.702 33.2133 795.833 33.008C795.973 32.8027 796.071 32.6067 796.127 32.42C796.192 32.224 796.225 32.0233 796.225 31.818C796.225 31.4073 796.057 31.0667 795.721 30.796C795.385 30.5253 794.96 30.39 794.447 30.39C793.999 30.39 793.579 30.4787 793.187 30.656C792.795 30.8333 792.366 31.1413 791.899 31.58L791.031 30.53C791.572 30.0353 792.128 29.6667 792.697 29.424C793.266 29.172 793.859 29.046 794.475 29.046C795.119 29.046 795.684 29.1627 796.169 29.396C796.654 29.62 797.032 29.9327 797.303 30.334C797.574 30.7353 797.709 31.202 797.709 31.734C797.709 32.0513 797.667 32.35 797.583 32.63C797.499 32.91 797.354 33.1947 797.149 33.484C796.953 33.7733 796.678 34.1047 796.323 34.478L793.201 37.698L797.891 37.684V39H791.255ZM803.243 39.14C802.45 39.14 801.75 38.93 801.143 38.51C800.546 38.0807 800.075 37.488 799.729 36.732C799.393 35.9667 799.225 35.0893 799.225 34.1C799.225 33.092 799.393 32.21 799.729 31.454C800.075 30.698 800.546 30.11 801.143 29.69C801.75 29.2607 802.45 29.046 803.243 29.046C804.037 29.046 804.732 29.2607 805.329 29.69C805.936 30.11 806.407 30.698 806.743 31.454C807.079 32.21 807.247 33.092 807.247 34.1C807.247 35.0893 807.079 35.9667 806.743 36.732C806.407 37.488 805.936 38.0807 805.329 38.51C804.732 38.93 804.037 39.14 803.243 39.14ZM803.243 37.782C803.747 37.782 804.181 37.6327 804.545 37.334C804.919 37.026 805.208 36.5967 805.413 36.046C805.619 35.4953 805.721 34.8467 805.721 34.1C805.721 33.344 805.619 32.6907 805.413 32.14C805.208 31.5893 804.919 31.1647 804.545 30.866C804.181 30.558 803.747 30.404 803.243 30.404C802.739 30.404 802.301 30.558 801.927 30.866C801.563 31.1647 801.274 31.5893 801.059 32.14C800.854 32.6907 800.751 33.344 800.751 34.1C800.751 34.8467 800.854 35.4953 801.059 36.046C801.274 36.5967 801.563 37.026 801.927 37.334C802.301 37.6327 802.739 37.782 803.243 37.782Z" fill="#151515"/>
<path d="M816.074 39.112C815.439 39.112 814.87 38.958 814.366 38.65C813.862 38.342 813.465 37.922 813.176 37.39C812.887 36.858 812.742 36.256 812.742 35.584C812.742 34.912 812.887 34.31 813.176 33.778C813.465 33.246 813.862 32.826 814.366 32.518C814.87 32.21 815.439 32.056 816.074 32.056C816.699 32.056 817.259 32.21 817.754 32.518C818.258 32.826 818.655 33.246 818.944 33.778C819.233 34.31 819.378 34.912 819.378 35.584C819.378 36.256 819.233 36.858 818.944 37.39C818.655 37.922 818.258 38.342 817.754 38.65C817.259 38.958 816.699 39.112 816.074 39.112ZM816.06 38.216C816.508 38.216 816.905 38.104 817.25 37.88C817.595 37.6467 817.866 37.3293 818.062 36.928C818.267 36.5267 818.37 36.0787 818.37 35.584C818.37 35.08 818.267 34.632 818.062 34.24C817.866 33.8387 817.595 33.526 817.25 33.302C816.905 33.0687 816.508 32.952 816.06 32.952C815.612 32.952 815.215 33.0687 814.87 33.302C814.525 33.526 814.249 33.8387 814.044 34.24C813.848 34.632 813.75 35.08 813.75 35.584C813.75 36.0787 813.848 36.5267 814.044 36.928C814.249 37.3293 814.525 37.6467 814.87 37.88C815.215 38.104 815.612 38.216 816.06 38.216ZM821.615 39V33.008H820.089V32.168H821.615V30.74C821.615 30.068 821.793 29.55 822.147 29.186C822.502 28.822 823.006 28.64 823.659 28.64C823.846 28.64 824.014 28.6493 824.163 28.668C824.322 28.6867 824.462 28.7193 824.583 28.766V29.69C824.434 29.6433 824.299 29.6107 824.177 29.592C824.056 29.5733 823.916 29.564 823.757 29.564C823.365 29.564 823.081 29.662 822.903 29.858C822.726 30.0447 822.637 30.3433 822.637 30.754V32.168H824.583V33.008H822.637V39H821.615Z" fill="#151515"/>
<path d="M832.934 39.154C831.609 39.154 830.461 38.7107 829.49 37.824L830.414 36.774C830.834 37.1473 831.245 37.418 831.646 37.586C832.057 37.754 832.505 37.838 832.99 37.838C833.41 37.838 833.774 37.7587 834.082 37.6C834.399 37.4413 834.642 37.2173 834.81 36.928C834.987 36.6293 835.076 36.2933 835.076 35.92C835.076 35.3693 834.875 34.926 834.474 34.59C834.082 34.2447 833.573 34.072 832.948 34.072C832.621 34.072 832.299 34.114 831.982 34.198C831.674 34.282 831.352 34.4127 831.016 34.59L829.938 34.268L830.162 29.2H836.112V30.516H831.506L831.38 33.33C831.735 33.1527 832.071 33.036 832.388 32.98C832.715 32.9147 833.046 32.882 833.382 32.882C834.035 32.882 834.605 33.008 835.09 33.26C835.575 33.5027 835.953 33.848 836.224 34.296C836.495 34.7347 836.63 35.248 836.63 35.836C836.63 36.4987 836.476 37.0773 836.168 37.572C835.86 38.0667 835.426 38.454 834.866 38.734C834.315 39.014 833.671 39.154 832.934 39.154ZM837.821 39V37.894L841.839 33.694C842.082 33.442 842.269 33.2133 842.399 33.008C842.539 32.8027 842.637 32.6067 842.693 32.42C842.759 32.224 842.791 32.0233 842.791 31.818C842.791 31.4073 842.623 31.0667 842.287 30.796C841.951 30.5253 841.527 30.39 841.013 30.39C840.565 30.39 840.145 30.4787 839.753 30.656C839.361 30.8333 838.932 31.1413 838.465 31.58L837.597 30.53C838.139 30.0353 838.694 29.6667 839.263 29.424C839.833 29.172 840.425 29.046 841.041 29.046C841.685 29.046 842.25 29.1627 842.735 29.396C843.221 29.62 843.599 29.9327 843.869 30.334C844.14 30.7353 844.275 31.202 844.275 31.734C844.275 32.0513 844.233 32.35 844.149 32.63C844.065 32.91 843.921 33.1947 843.715 33.484C843.519 33.7733 843.244 34.1047 842.889 34.478L839.767 37.698L844.457 37.684V39H837.821ZM849.208 39.154C848.48 39.154 847.803 39.028 847.178 38.776C846.552 38.5147 846.02 38.1507 845.582 37.684L846.604 36.704C846.996 37.1147 847.388 37.404 847.78 37.572C848.172 37.7307 848.638 37.81 849.18 37.81C849.609 37.81 849.982 37.7447 850.3 37.614C850.626 37.474 850.878 37.2827 851.056 37.04C851.233 36.7973 851.322 36.5127 851.322 36.186C851.322 35.8967 851.247 35.64 851.098 35.416C850.948 35.192 850.743 35.0193 850.482 34.898C850.22 34.7673 849.917 34.702 849.572 34.702H848.368V33.414H849.446C849.922 33.414 850.3 33.2833 850.58 33.022C850.869 32.7607 851.014 32.406 851.014 31.958C851.014 31.6687 850.93 31.4073 850.762 31.174C850.603 30.9313 850.384 30.7447 850.104 30.614C849.824 30.474 849.506 30.404 849.152 30.404C848.657 30.404 848.223 30.4927 847.85 30.67C847.486 30.838 847.108 31.1367 846.716 31.566L845.68 30.6C846.128 30.096 846.655 29.7133 847.262 29.452C847.878 29.1813 848.522 29.046 849.194 29.046C849.847 29.046 850.426 29.1627 850.93 29.396C851.434 29.6293 851.826 29.956 852.106 30.376C852.395 30.7867 852.54 31.258 852.54 31.79C852.54 32.3127 852.367 32.7793 852.022 33.19C851.686 33.5913 851.242 33.8713 850.692 34.03C851.345 34.17 851.868 34.4453 852.26 34.856C852.661 35.2573 852.862 35.7333 852.862 36.284C852.862 36.8347 852.703 37.3293 852.386 37.768C852.068 38.1973 851.634 38.538 851.084 38.79C850.542 39.0327 849.917 39.154 849.208 39.154Z" fill="#151515"/>
<path fill-rule="evenodd" clip-rule="evenodd" d="M870.444 36.9818L874.481 32.9119C874.877 32.5134 874.598 31.8335 874.039 31.8335H865.961C865.403 31.8335 865.123 32.5134 865.519 32.9119L869.556 36.9818C869.801 37.2285 870.2 37.2285 870.444 36.9818Z" fill="#1F1F1F"/>
<path d="M929.494 30.2138C929.751 29.9567 930.167 29.9567 930.422 30.2138L931.039 30.8319C931.296 31.089 931.296 31.5044 931.039 31.7587L928.406 34.3974L931.042 37.0331C931.299 37.2901 931.299 37.7056 931.042 37.9599L930.424 38.581C930.167 38.8377 929.751 38.8378 929.497 38.581L925.778 34.8622C925.518 34.6053 925.518 34.1896 925.775 33.9325L929.494 30.2138Z" fill="#A3A3A3"/>
<path d="M971.391 30.0263C971.649 29.7692 972.064 29.7692 972.318 30.0263L976.037 33.745C976.297 34.0021 976.297 34.4177 976.04 34.6747L972.321 38.3935C972.064 38.6504 971.649 38.6501 971.394 38.3935L970.776 37.7753C970.519 37.5183 970.519 37.1028 970.776 36.8485L973.412 34.2128L970.776 31.5761C970.519 31.319 970.519 30.9036 970.776 30.6493L971.391 30.0263Z" fill="#1F1F1F"/>
<g filter="url(#filter0_d_1815_38604)">
<path d="M459 59C459 55.6863 461.686 53 465 53H568C571.314 53 574 55.6863 574 59V137C574 140.314 571.314 143 568 143H465C461.686 143 459 140.314 459 137V59Z" fill="white"/>
<path d="M483.126 84L487.004 74.2H488.292L492.114 84H490.952L489.79 80.92H485.422L484.26 84H483.126ZM485.758 80.066H489.468L487.606 75.18L485.758 80.066ZM496.085 84.112C495.45 84.112 494.876 83.958 494.363 83.65C493.859 83.3327 493.457 82.908 493.159 82.376C492.86 81.8347 492.711 81.2373 492.711 80.584C492.711 79.9213 492.86 79.324 493.159 78.792C493.457 78.26 493.859 77.84 494.363 77.532C494.876 77.2147 495.45 77.056 496.085 77.056C496.589 77.056 497.069 77.1493 497.527 77.336C497.984 77.5227 498.381 77.784 498.717 78.12L498.059 78.834C497.816 78.5633 497.522 78.3533 497.177 78.204C496.831 78.0547 496.481 77.98 496.127 77.98C495.679 77.98 495.273 78.0967 494.909 78.33C494.554 78.5633 494.269 78.876 494.055 79.268C493.84 79.66 493.733 80.0987 493.733 80.584C493.733 81.0693 493.84 81.508 494.055 81.9C494.269 82.292 494.554 82.6047 494.909 82.838C495.273 83.0713 495.679 83.188 496.127 83.188C496.481 83.188 496.831 83.1133 497.177 82.964C497.522 82.8053 497.816 82.5953 498.059 82.334L498.717 83.048C498.381 83.384 497.984 83.6453 497.527 83.832C497.069 84.0187 496.589 84.112 496.085 84.112ZM502.883 84.14C502.295 84.14 501.847 84 501.539 83.72C501.24 83.4307 501.091 83.0153 501.091 82.474V78.008H499.677V77.168H501.091V75.292L502.113 75.054V77.168H504.073V78.008H502.113V82.208C502.113 82.572 502.187 82.8333 502.337 82.992C502.495 83.1507 502.752 83.23 503.107 83.23C503.284 83.23 503.443 83.216 503.583 83.188C503.723 83.16 503.886 83.1133 504.073 83.048V83.958C503.886 84.0233 503.69 84.07 503.485 84.098C503.279 84.126 503.079 84.14 502.883 84.14ZM505.556 84V77.168H506.578V84H505.556ZM506.074 75.474C505.868 75.474 505.691 75.404 505.542 75.264C505.402 75.1147 505.332 74.942 505.332 74.746C505.332 74.55 505.402 74.382 505.542 74.242C505.691 74.0927 505.868 74.018 506.074 74.018C506.279 74.018 506.452 74.0927 506.592 74.242C506.741 74.382 506.816 74.55 506.816 74.746C506.816 74.942 506.741 75.1147 506.592 75.264C506.452 75.404 506.279 75.474 506.074 75.474ZM511.697 84.112C511.062 84.112 510.493 83.958 509.989 83.65C509.485 83.342 509.088 82.922 508.799 82.39C508.51 81.858 508.365 81.256 508.365 80.584C508.365 79.912 508.51 79.31 508.799 78.778C509.088 78.246 509.485 77.826 509.989 77.518C510.493 77.21 511.062 77.056 511.697 77.056C512.322 77.056 512.882 77.21 513.377 77.518C513.881 77.826 514.278 78.246 514.567 78.778C514.856 79.31 515.001 79.912 515.001 80.584C515.001 81.256 514.856 81.858 514.567 82.39C514.278 82.922 513.881 83.342 513.377 83.65C512.882 83.958 512.322 84.112 511.697 84.112ZM511.683 83.216C512.131 83.216 512.528 83.104 512.873 82.88C513.218 82.6467 513.489 82.3293 513.685 81.928C513.89 81.5267 513.993 81.0787 513.993 80.584C513.993 80.08 513.89 79.632 513.685 79.24C513.489 78.8387 513.218 78.526 512.873 78.302C512.528 78.0687 512.131 77.952 511.683 77.952C511.235 77.952 510.838 78.0687 510.493 78.302C510.148 78.526 509.872 78.8387 509.667 79.24C509.471 79.632 509.373 80.08 509.373 80.584C509.373 81.0787 509.471 81.5267 509.667 81.928C509.872 82.3293 510.148 82.6467 510.493 82.88C510.838 83.104 511.235 83.216 511.683 83.216ZM516.794 84V77.168H517.816V78.274C518.077 77.8633 518.39 77.56 518.754 77.364C519.118 77.1587 519.529 77.056 519.986 77.056C520.481 77.056 520.91 77.1633 521.274 77.378C521.647 77.5833 521.937 77.8773 522.142 78.26C522.357 78.6333 522.464 79.072 522.464 79.576V84H521.442V79.87C521.442 79.2633 521.274 78.7873 520.938 78.442C520.611 78.0873 520.168 77.91 519.608 77.91C519.235 77.91 518.894 77.9987 518.586 78.176C518.278 78.3533 518.021 78.6147 517.816 78.96V84H516.794ZM527.45 84V83.258L531.37 78.974C531.678 78.638 531.916 78.344 532.084 78.092C532.262 77.8307 532.383 77.588 532.448 77.364C532.523 77.14 532.56 76.902 532.56 76.65C532.56 76.1553 532.364 75.7493 531.972 75.432C531.59 75.1053 531.1 74.942 530.502 74.942C530.045 74.942 529.62 75.0307 529.228 75.208C528.836 75.3853 528.398 75.6933 527.912 76.132L527.324 75.432C527.838 74.9653 528.356 74.62 528.878 74.396C529.401 74.1627 529.947 74.046 530.516 74.046C531.104 74.046 531.627 74.158 532.084 74.382C532.542 74.5967 532.901 74.8953 533.162 75.278C533.424 75.6607 533.554 76.0993 533.554 76.594C533.554 76.9207 533.512 77.224 533.428 77.504C533.344 77.7747 533.195 78.0687 532.98 78.386C532.766 78.694 532.458 79.0673 532.056 79.506L528.71 83.132L533.764 83.118V84H527.45Z" fill="#151515"/>
<path d="M483.126 121L487.004 111.2H488.292L492.114 121H490.952L489.79 117.92H485.422L484.26 121H483.126ZM485.758 117.066H489.468L487.606 112.18L485.758 117.066ZM496.085 121.112C495.45 121.112 494.876 120.958 494.363 120.65C493.859 120.333 493.457 119.908 493.159 119.376C492.86 118.835 492.711 118.237 492.711 117.584C492.711 116.921 492.86 116.324 493.159 115.792C493.457 115.26 493.859 114.84 494.363 114.532C494.876 114.215 495.45 114.056 496.085 114.056C496.589 114.056 497.069 114.149 497.527 114.336C497.984 114.523 498.381 114.784 498.717 115.12L498.059 115.834C497.816 115.563 497.522 115.353 497.177 115.204C496.831 115.055 496.481 114.98 496.127 114.98C495.679 114.98 495.273 115.097 494.909 115.33C494.554 115.563 494.269 115.876 494.055 116.268C493.84 116.66 493.733 117.099 493.733 117.584C493.733 118.069 493.84 118.508 494.055 118.9C494.269 119.292 494.554 119.605 494.909 119.838C495.273 120.071 495.679 120.188 496.127 120.188C496.481 120.188 496.831 120.113 497.177 119.964C497.522 119.805 497.816 119.595 498.059 119.334L498.717 120.048C498.381 120.384 497.984 120.645 497.527 120.832C497.069 121.019 496.589 121.112 496.085 121.112ZM502.883 121.14C502.295 121.14 501.847 121 501.539 120.72C501.24 120.431 501.091 120.015 501.091 119.474V115.008H499.677V114.168H501.091V112.292L502.113 112.054V114.168H504.073V115.008H502.113V119.208C502.113 119.572 502.187 119.833 502.337 119.992C502.495 120.151 502.752 120.23 503.107 120.23C503.284 120.23 503.443 120.216 503.583 120.188C503.723 120.16 503.886 120.113 504.073 120.048V120.958C503.886 121.023 503.69 121.07 503.485 121.098C503.279 121.126 503.079 121.14 502.883 121.14ZM505.556 121V114.168H506.578V121H505.556ZM506.074 112.474C505.868 112.474 505.691 112.404 505.542 112.264C505.402 112.115 505.332 111.942 505.332 111.746C505.332 111.55 505.402 111.382 505.542 111.242C505.691 111.093 505.868 111.018 506.074 111.018C506.279 111.018 506.452 111.093 506.592 111.242C506.741 111.382 506.816 111.55 506.816 111.746C506.816 111.942 506.741 112.115 506.592 112.264C506.452 112.404 506.279 112.474 506.074 112.474ZM511.697 121.112C511.062 121.112 510.493 120.958 509.989 120.65C509.485 120.342 509.088 119.922 508.799 119.39C508.51 118.858 508.365 118.256 508.365 117.584C508.365 116.912 508.51 116.31 508.799 115.778C509.088 115.246 509.485 114.826 509.989 114.518C510.493 114.21 511.062 114.056 511.697 114.056C512.322 114.056 512.882 114.21 513.377 114.518C513.881 114.826 514.278 115.246 514.567 115.778C514.856 116.31 515.001 116.912 515.001 117.584C515.001 118.256 514.856 118.858 514.567 119.39C514.278 119.922 513.881 120.342 513.377 120.65C512.882 120.958 512.322 121.112 511.697 121.112ZM511.683 120.216C512.131 120.216 512.528 120.104 512.873 119.88C513.218 119.647 513.489 119.329 513.685 118.928C513.89 118.527 513.993 118.079 513.993 117.584C513.993 117.08 513.89 116.632 513.685 116.24C513.489 115.839 513.218 115.526 512.873 115.302C512.528 115.069 512.131 114.952 511.683 114.952C511.235 114.952 510.838 115.069 510.493 115.302C510.148 115.526 509.872 115.839 509.667 116.24C509.471 116.632 509.373 117.08 509.373 117.584C509.373 118.079 509.471 118.527 509.667 118.928C509.872 119.329 510.148 119.647 510.493 119.88C510.838 120.104 511.235 120.216 511.683 120.216ZM516.794 121V114.168H517.816V115.274C518.077 114.863 518.39 114.56 518.754 114.364C519.118 114.159 519.529 114.056 519.986 114.056C520.481 114.056 520.91 114.163 521.274 114.378C521.647 114.583 521.937 114.877 522.142 115.26C522.357 115.633 522.464 116.072 522.464 116.576V121H521.442V116.87C521.442 116.263 521.274 115.787 520.938 115.442C520.611 115.087 520.168 114.91 519.608 114.91C519.235 114.91 518.894 114.999 518.586 115.176C518.278 115.353 518.021 115.615 517.816 115.96V121H516.794ZM530.684 121.154C530.012 121.154 529.382 121.037 528.794 120.804C528.216 120.571 527.702 120.225 527.254 119.768L527.926 119.11C528.337 119.521 528.757 119.819 529.186 120.006C529.625 120.183 530.12 120.272 530.67 120.272C531.146 120.272 531.566 120.188 531.93 120.02C532.304 119.852 532.593 119.619 532.798 119.32C533.004 119.021 533.106 118.681 533.106 118.298C533.106 117.934 533.013 117.612 532.826 117.332C532.649 117.043 532.402 116.819 532.084 116.66C531.767 116.501 531.403 116.422 530.992 116.422H529.83V115.554H530.95C531.482 115.554 531.912 115.391 532.238 115.064C532.574 114.737 532.742 114.313 532.742 113.79C532.742 113.445 532.649 113.132 532.462 112.852C532.276 112.572 532.019 112.353 531.692 112.194C531.375 112.026 531.016 111.942 530.614 111.942C530.11 111.942 529.658 112.035 529.256 112.222C528.864 112.399 528.463 112.703 528.052 113.132L527.38 112.46C527.819 111.993 528.314 111.643 528.864 111.41C529.415 111.167 530.003 111.046 530.628 111.046C531.226 111.046 531.758 111.163 532.224 111.396C532.7 111.629 533.074 111.951 533.344 112.362C533.615 112.763 533.75 113.221 533.75 113.734C533.75 114.247 533.582 114.709 533.246 115.12C532.91 115.521 532.467 115.801 531.916 115.96C532.579 116.109 533.111 116.399 533.512 116.828C533.914 117.257 534.114 117.757 534.114 118.326C534.114 118.867 533.965 119.353 533.666 119.782C533.377 120.211 532.971 120.547 532.448 120.79C531.935 121.033 531.347 121.154 530.684 121.154Z" fill="#151515"/>
</g>
<defs>
<filter id="filter0_d_1815_38604" x="450" y="48" width="133" height="108" filterUnits="userSpaceOnUse" color-interpolation-filters="sRGB">
<feFlood flood-opacity="0" result="BackgroundImageFix"/>
<feColorMatrix in="SourceAlpha" type="matrix" values="0 0 0 0 0 0 0 0 0 0 0 0 0 0 0 0 0 0 127 0" result="hardAlpha"/>
<feOffset dy="4"/>
<feGaussianBlur stdDeviation="4.5"/>
<feColorMatrix type="matrix" values="0 0 0 0 0.160784 0 0 0 0 0.160784 0 0 0 0 0.160784 0 0 0 0.15 0"/>
<feBlend mode="normal" in2="BackgroundImageFix" result="effect1_dropShadow_1815_38604"/>
<feBlend mode="normal" in="SourceGraphic" in2="effect1_dropShadow_1815_38604" result="shape"/>
</filter>
</defs>
</svg>
