<svg width="157" height="85" viewBox="0 0 157 85" fill="none" xmlns="http://www.w3.org/2000/svg">
<rect width="157" height="85" fill="white"/>
<mask id="path-1-inside-1_1815_37936" fill="white">
<path d="M40 30C40 26.6863 42.6863 24 46 24H111C114.314 24 117 26.6863 117 30V55C117 58.3137 114.314 61 111 61H46C42.6863 61 40 58.3137 40 55V30Z"/>
</mask>
<path d="M40 30C40 26.6863 42.6863 24 46 24H111C114.314 24 117 26.6863 117 30V55C117 58.3137 114.314 61 111 61H46C42.6863 61 40 58.3137 40 55V30Z" fill="white"/>
<path d="M46 24V25H111V24V23H46V24ZM117 30H116V55H117H118V30H117ZM111 61V60H46V61V62H111V61ZM40 55H41V30H40H39V55H40ZM46 61V60C43.2386 60 41 57.7614 41 55H40H39C39 58.866 42.134 62 46 62V61ZM117 55H116C116 57.7614 113.761 60 111 60V61V62C114.866 62 118 58.866 118 55H117ZM111 24V25C113.761 25 116 27.2386 116 30H117H118C118 26.134 114.866 23 111 23V24ZM46 24V23C42.134 23 39 26.134 39 30H40H41C41 27.2386 43.2386 25 46 25V24Z" fill="#C7C7C7" mask="url(#path-1-inside-1_1815_37936)"/>
<mask id="path-3-inside-2_1815_37936" fill="white">
<path d="M56 38.5C56 36.2909 57.7909 34.5 60 34.5H68C70.2091 34.5 72 36.2909 72 38.5V46.5C72 48.7091 70.2091 50.5 68 50.5H60C57.7909 50.5 56 48.7091 56 46.5V38.5Z"/>
</mask>
<path d="M56 38.5C56 36.2909 57.7909 34.5 60 34.5H68C70.2091 34.5 72 36.2909 72 38.5V46.5C72 48.7091 70.2091 50.5 68 50.5H60C57.7909 50.5 56 48.7091 56 46.5V38.5Z" fill="white"/>
<path d="M60 34.5V35.5H68V34.5V33.5H60V34.5ZM72 38.5H71V46.5H72H73V38.5H72ZM68 50.5V49.5H60V50.5V51.5H68V50.5ZM56 46.5H57V38.5H56H55V46.5H56ZM60 50.5V49.5C58.3431 49.5 57 48.1569 57 46.5H56H55C55 49.2614 57.2386 51.5 60 51.5V50.5ZM72 46.5H71C71 48.1569 69.6569 49.5 68 49.5V50.5V51.5C70.7614 51.5 73 49.2614 73 46.5H72ZM68 34.5V35.5C69.6569 35.5 71 36.8431 71 38.5H72H73C73 35.7386 70.7614 33.5 68 33.5V34.5ZM60 34.5V33.5C57.2386 33.5 55 35.7386 55 38.5H56H57C57 36.8431 58.3431 35.5 60 35.5V34.5Z" fill="#C7C7C7" mask="url(#path-3-inside-2_1815_37936)"/>
<path d="M94.5342 40.667C95.023 40.6672 95.2669 41.2618 94.9209 41.6104L91.3887 45.1719C91.1744 45.3874 90.8255 45.3875 90.6113 45.1719L87.0791 41.6104C86.733 41.2617 86.9779 40.667 87.4668 40.667H94.5342Z" fill="#1F1F1F"/>
</svg>
