<svg width="666" height="430" viewBox="0 0 666 430" fill="none" xmlns="http://www.w3.org/2000/svg">
<rect width="666" height="430" fill="#F2F2F2"/>
<rect width="586" height="106" transform="translate(40 24)" fill="white"/>
<mask id="path-1-inside-1_1818_24338" fill="white">
<path d="M56 46C56 42.6863 58.6863 40 62 40H104V77H62C58.6863 77 56 74.3137 56 71V46Z"/>
</mask>
<path d="M56 46C56 42.6863 58.6863 40 62 40H104V77H62C58.6863 77 56 74.3137 56 71V46Z" fill="white"/>
<path d="M104 40H105V39H104V40ZM104 77V78H105V77H104ZM62 40V41H104V40V39H62V40ZM104 40H103V77H104H105V40H104ZM104 77V76H62V77V78H104V77ZM56 71H57V46H56H55V71H56ZM62 77V76C59.2386 76 57 73.7614 57 71H56H55C55 74.866 58.134 78 62 78V77ZM62 40V39C58.134 39 55 42.134 55 46H56H57C57 43.2386 59.2386 41 62 41V40Z" fill="#C7C7C7" mask="url(#path-1-inside-1_1818_24338)"/>
<mask id="path-3-inside-2_1818_24338" fill="white">
<path d="M72 54.5C72 52.2909 73.7909 50.5 76 50.5H84C86.2091 50.5 88 52.2909 88 54.5V62.5C88 64.7091 86.2091 66.5 84 66.5H76C73.7909 66.5 72 64.7091 72 62.5V54.5Z"/>
</mask>
<path d="M72 54.5C72 52.2909 73.7909 50.5 76 50.5H84C86.2091 50.5 88 52.2909 88 54.5V62.5C88 64.7091 86.2091 66.5 84 66.5H76C73.7909 66.5 72 64.7091 72 62.5V54.5Z" fill="white"/>
<path d="M76 50.5V51.5H84V50.5V49.5H76V50.5ZM88 54.5H87V62.5H88H89V54.5H88ZM84 66.5V65.5H76V66.5V67.5H84V66.5ZM72 62.5H73V54.5H72H71V62.5H72ZM76 66.5V65.5C74.3431 65.5 73 64.1569 73 62.5H72H71C71 65.2614 73.2386 67.5 76 67.5V66.5ZM88 62.5H87C87 64.1569 85.6569 65.5 84 65.5V66.5V67.5C86.7614 67.5 89 65.2614 89 62.5H88ZM84 50.5V51.5C85.6569 51.5 87 52.8431 87 54.5H88H89C89 51.7386 86.7614 49.5 84 49.5V50.5ZM76 50.5V49.5C73.2386 49.5 71 51.7386 71 54.5H72H73C73 52.8431 74.3431 51.5 76 51.5V50.5Z" fill="#C7C7C7" mask="url(#path-3-inside-2_1818_24338)"/>
<mask id="path-5-inside-3_1818_24338" fill="white">
<path d="M103 40H143C146.314 40 149 42.6863 149 46V71C149 74.3137 146.314 77 143 77H103V40Z"/>
</mask>
<path d="M103 40H143C146.314 40 149 42.6863 149 46V71C149 74.3137 146.314 77 143 77H103V40Z" fill="white"/>
<path d="M103 40V39H102V40H103ZM103 77H102V78H103V77ZM103 40V41H143V40V39H103V40ZM149 46H148V71H149H150V46H149ZM143 77V76H103V77V78H143V77ZM103 77H104V40H103H102V77H103ZM149 71H148C148 73.7614 145.761 76 143 76V77V78C146.866 78 150 74.866 150 71H149ZM143 40V41C145.761 41 148 43.2386 148 46H149H150C150 42.134 146.866 39 143 39V40Z" fill="#C7C7C7" mask="url(#path-5-inside-3_1818_24338)"/>
<path d="M129.534 56.167C130.023 56.1673 130.267 56.7618 129.921 57.1104L126.389 60.6719C126.175 60.8874 125.826 60.8874 125.611 60.6719L122.079 57.1104C121.733 56.7618 121.977 56.1673 122.466 56.167H129.534Z" fill="#1F1F1F"/>
<path d="M189.843 51.5C190.427 51.5 190.719 52.2079 190.307 52.6201L185.25 57.6777V64.8428C185.25 65.3762 184.649 65.6826 184.218 65.3809L182.03 63.8506C181.855 63.7278 181.75 63.5266 181.75 63.3125V57.6777L176.694 52.6201C176.28 52.2071 176.574 51.5 177.157 51.5H189.843Z" fill="#1F1F1F"/>
<path d="M225.812 63.167C226.054 63.167 226.25 63.363 226.25 63.6045V64.4795C226.25 64.7208 226.054 64.917 225.812 64.917H224.062C223.821 64.917 223.625 64.7208 223.625 64.4795V63.6045C223.625 63.363 223.821 63.167 224.062 63.167H225.812ZM220.562 52.667C220.804 52.667 221 52.863 221 53.1045V61.417H222.312C222.701 61.417 222.896 61.8883 222.622 62.1631L220.434 64.7881C220.364 64.8587 220.226 64.9159 220.126 64.916C220.026 64.916 219.887 64.8588 219.816 64.7881L217.629 62.1631C217.353 61.8877 217.549 61.417 217.937 61.417H219.25V53.1045C219.25 52.863 219.446 52.667 219.687 52.667H220.562ZM227.562 59.667C227.804 59.667 228 59.863 228 60.1045V60.9795C228 61.2208 227.804 61.417 227.562 61.417H224.062C223.821 61.417 223.625 61.2208 223.625 60.9795V60.1045C223.625 59.863 223.821 59.667 224.062 59.667H227.562ZM229.312 56.167C229.554 56.167 229.75 56.363 229.75 56.6045V57.4795C229.75 57.7208 229.554 57.917 229.312 57.917H224.062C223.821 57.917 223.625 57.7208 223.625 57.4795V56.6045C223.625 56.363 223.821 56.167 224.062 56.167H229.312ZM231.062 52.667C231.304 52.667 231.5 52.863 231.5 53.1045V53.9795C231.5 54.2208 231.304 54.417 231.062 54.417H224.062C223.821 54.417 223.625 54.2208 223.625 53.9795V53.1045C223.625 52.863 223.821 52.667 224.062 52.667H231.062Z" fill="#1F1F1F"/>
<path d="M274.292 61.4355C275.42 61.4357 276.333 62.3445 276.333 63.4678C276.333 64.591 275.42 65.4998 274.292 65.5C273.163 65.5 272.25 64.5911 272.25 63.4678C272.25 62.3444 273.163 61.4355 274.292 61.4355ZM274.292 56.4678C275.42 56.4679 276.333 57.3767 276.333 58.5C276.333 59.6233 275.42 60.5321 274.292 60.5322C273.163 60.5322 272.25 59.6234 272.25 58.5C272.25 57.3766 273.163 56.4678 274.292 56.4678ZM274.292 51.5C275.42 51.5002 276.333 52.409 276.333 53.5322C276.333 54.6555 275.42 55.5643 274.292 55.5645C273.163 55.5645 272.25 54.6556 272.25 53.5322C272.25 52.4089 273.163 51.5 274.292 51.5Z" fill="#1F1F1F"/>
<path d="M393.254 63V54.81L391.518 55.552V54.194L393.814 53.2H394.78V63H393.254ZM399.714 59.696V58.352H404.6V59.696H399.714ZM409.255 63V61.894L413.273 57.694C413.516 57.442 413.702 57.2133 413.833 57.008C413.973 56.8027 414.071 56.6067 414.127 56.42C414.192 56.224 414.225 56.0233 414.225 55.818C414.225 55.4073 414.057 55.0667 413.721 54.796C413.385 54.5253 412.96 54.39 412.447 54.39C411.999 54.39 411.579 54.4787 411.187 54.656C410.795 54.8333 410.366 55.1413 409.899 55.58L409.031 54.53C409.572 54.0353 410.128 53.6667 410.697 53.424C411.266 53.172 411.859 53.046 412.475 53.046C413.119 53.046 413.684 53.1627 414.169 53.396C414.654 53.62 415.032 53.9327 415.303 54.334C415.574 54.7353 415.709 55.202 415.709 55.734C415.709 56.0513 415.667 56.35 415.583 56.63C415.499 56.91 415.354 57.1947 415.149 57.484C414.953 57.7733 414.678 58.1047 414.323 58.478L411.201 61.698L415.891 61.684V63H409.255ZM421.243 63.14C420.45 63.14 419.75 62.93 419.143 62.51C418.546 62.0807 418.075 61.488 417.729 60.732C417.393 59.9667 417.225 59.0893 417.225 58.1C417.225 57.092 417.393 56.21 417.729 55.454C418.075 54.698 418.546 54.11 419.143 53.69C419.75 53.2607 420.45 53.046 421.243 53.046C422.037 53.046 422.732 53.2607 423.329 53.69C423.936 54.11 424.407 54.698 424.743 55.454C425.079 56.21 425.247 57.092 425.247 58.1C425.247 59.0893 425.079 59.9667 424.743 60.732C424.407 61.488 423.936 62.0807 423.329 62.51C422.732 62.93 422.037 63.14 421.243 63.14ZM421.243 61.782C421.747 61.782 422.181 61.6327 422.545 61.334C422.919 61.026 423.208 60.5967 423.413 60.046C423.619 59.4953 423.721 58.8467 423.721 58.1C423.721 57.344 423.619 56.6907 423.413 56.14C423.208 55.5893 422.919 55.1647 422.545 54.866C422.181 54.558 421.747 54.404 421.243 54.404C420.739 54.404 420.301 54.558 419.927 54.866C419.563 55.1647 419.274 55.5893 419.059 56.14C418.854 56.6907 418.751 57.344 418.751 58.1C418.751 58.8467 418.854 59.4953 419.059 60.046C419.274 60.5967 419.563 61.026 419.927 61.334C420.301 61.6327 420.739 61.782 421.243 61.782Z" fill="#151515"/>
<path d="M434.074 63.112C433.439 63.112 432.87 62.958 432.366 62.65C431.862 62.342 431.465 61.922 431.176 61.39C430.887 60.858 430.742 60.256 430.742 59.584C430.742 58.912 430.887 58.31 431.176 57.778C431.465 57.246 431.862 56.826 432.366 56.518C432.87 56.21 433.439 56.056 434.074 56.056C434.699 56.056 435.259 56.21 435.754 56.518C436.258 56.826 436.655 57.246 436.944 57.778C437.233 58.31 437.378 58.912 437.378 59.584C437.378 60.256 437.233 60.858 436.944 61.39C436.655 61.922 436.258 62.342 435.754 62.65C435.259 62.958 434.699 63.112 434.074 63.112ZM434.06 62.216C434.508 62.216 434.905 62.104 435.25 61.88C435.595 61.6467 435.866 61.3293 436.062 60.928C436.267 60.5267 436.37 60.0787 436.37 59.584C436.37 59.08 436.267 58.632 436.062 58.24C435.866 57.8387 435.595 57.526 435.25 57.302C434.905 57.0687 434.508 56.952 434.06 56.952C433.612 56.952 433.215 57.0687 432.87 57.302C432.525 57.526 432.249 57.8387 432.044 58.24C431.848 58.632 431.75 59.08 431.75 59.584C431.75 60.0787 431.848 60.5267 432.044 60.928C432.249 61.3293 432.525 61.6467 432.87 61.88C433.215 62.104 433.612 62.216 434.06 62.216ZM439.615 63V57.008H438.089V56.168H439.615V54.74C439.615 54.068 439.793 53.55 440.147 53.186C440.502 52.822 441.006 52.64 441.659 52.64C441.846 52.64 442.014 52.6493 442.163 52.668C442.322 52.6867 442.462 52.7193 442.583 52.766V53.69C442.434 53.6433 442.299 53.6107 442.177 53.592C442.056 53.5733 441.916 53.564 441.757 53.564C441.365 53.564 441.081 53.662 440.903 53.858C440.726 54.0447 440.637 54.3433 440.637 54.754V56.168H442.583V57.008H440.637V63H439.615Z" fill="#151515"/>
<path d="M450.934 63.154C449.609 63.154 448.461 62.7107 447.49 61.824L448.414 60.774C448.834 61.1473 449.245 61.418 449.646 61.586C450.057 61.754 450.505 61.838 450.99 61.838C451.41 61.838 451.774 61.7587 452.082 61.6C452.399 61.4413 452.642 61.2173 452.81 60.928C452.987 60.6293 453.076 60.2933 453.076 59.92C453.076 59.3693 452.875 58.926 452.474 58.59C452.082 58.2447 451.573 58.072 450.948 58.072C450.621 58.072 450.299 58.114 449.982 58.198C449.674 58.282 449.352 58.4127 449.016 58.59L447.938 58.268L448.162 53.2H454.112V54.516H449.506L449.38 57.33C449.735 57.1527 450.071 57.036 450.388 56.98C450.715 56.9147 451.046 56.882 451.382 56.882C452.035 56.882 452.605 57.008 453.09 57.26C453.575 57.5027 453.953 57.848 454.224 58.296C454.495 58.7347 454.63 59.248 454.63 59.836C454.63 60.4987 454.476 61.0773 454.168 61.572C453.86 62.0667 453.426 62.454 452.866 62.734C452.315 63.014 451.671 63.154 450.934 63.154ZM455.821 63V61.894L459.839 57.694C460.082 57.442 460.269 57.2133 460.399 57.008C460.539 56.8027 460.637 56.6067 460.693 56.42C460.759 56.224 460.791 56.0233 460.791 55.818C460.791 55.4073 460.623 55.0667 460.287 54.796C459.951 54.5253 459.527 54.39 459.013 54.39C458.565 54.39 458.145 54.4787 457.753 54.656C457.361 54.8333 456.932 55.1413 456.465 55.58L455.597 54.53C456.139 54.0353 456.694 53.6667 457.263 53.424C457.833 53.172 458.425 53.046 459.041 53.046C459.685 53.046 460.25 53.1627 460.735 53.396C461.221 53.62 461.599 53.9327 461.869 54.334C462.14 54.7353 462.275 55.202 462.275 55.734C462.275 56.0513 462.233 56.35 462.149 56.63C462.065 56.91 461.921 57.1947 461.715 57.484C461.519 57.7733 461.244 58.1047 460.889 58.478L457.767 61.698L462.457 61.684V63H455.821ZM467.208 63.154C466.48 63.154 465.803 63.028 465.178 62.776C464.552 62.5147 464.02 62.1507 463.582 61.684L464.604 60.704C464.996 61.1147 465.388 61.404 465.78 61.572C466.172 61.7307 466.638 61.81 467.18 61.81C467.609 61.81 467.982 61.7447 468.3 61.614C468.626 61.474 468.878 61.2827 469.056 61.04C469.233 60.7973 469.322 60.5127 469.322 60.186C469.322 59.8967 469.247 59.64 469.098 59.416C468.948 59.192 468.743 59.0193 468.482 58.898C468.22 58.7673 467.917 58.702 467.572 58.702H466.368V57.414H467.446C467.922 57.414 468.3 57.2833 468.58 57.022C468.869 56.7607 469.014 56.406 469.014 55.958C469.014 55.6687 468.93 55.4073 468.762 55.174C468.603 54.9313 468.384 54.7447 468.104 54.614C467.824 54.474 467.506 54.404 467.152 54.404C466.657 54.404 466.223 54.4927 465.85 54.67C465.486 54.838 465.108 55.1367 464.716 55.566L463.68 54.6C464.128 54.096 464.655 53.7133 465.262 53.452C465.878 53.1813 466.522 53.046 467.194 53.046C467.847 53.046 468.426 53.1627 468.93 53.396C469.434 53.6293 469.826 53.956 470.106 54.376C470.395 54.7867 470.54 55.258 470.54 55.79C470.54 56.3127 470.367 56.7793 470.022 57.19C469.686 57.5913 469.242 57.8713 468.692 58.03C469.345 58.17 469.868 58.4453 470.26 58.856C470.661 59.2573 470.862 59.7333 470.862 60.284C470.862 60.8347 470.703 61.3293 470.386 61.768C470.068 62.1973 469.634 62.538 469.084 62.79C468.542 63.0327 467.917 63.154 467.208 63.154Z" fill="#151515"/>
<path fill-rule="evenodd" clip-rule="evenodd" d="M488.444 60.9816L492.481 56.9116C492.877 56.5132 492.598 55.8333 492.039 55.8333H483.961C483.403 55.8333 483.123 56.5132 483.519 56.9116L487.556 60.9816C487.801 61.2283 488.2 61.2283 488.444 60.9816Z" fill="#1F1F1F"/>
<path d="M547.494 54.2138C547.751 53.9567 548.167 53.9567 548.422 54.2138L549.039 54.8319C549.296 55.089 549.296 55.5044 549.039 55.7587L546.406 58.3974L549.042 61.0331C549.299 61.2901 549.299 61.7056 549.042 61.9599L548.424 62.581C548.167 62.8377 547.751 62.8378 547.497 62.581L543.778 58.8622C543.518 58.6053 543.518 58.1896 543.775 57.9325L547.494 54.2138Z" fill="#A3A3A3"/>
<path d="M589.391 54.0263C589.649 53.7692 590.064 53.7692 590.318 54.0263L594.037 57.745C594.297 58.0021 594.297 58.4177 594.04 58.6747L590.321 62.3935C590.064 62.6504 589.649 62.6501 589.394 62.3935L588.776 61.7753C588.519 61.5183 588.519 61.1028 588.776 60.8485L591.412 58.2128L588.776 55.5761C588.519 55.319 588.519 54.9036 588.776 54.6493L589.391 54.0263Z" fill="#1F1F1F"/>
<path d="M67.948 116.154C67.276 116.154 66.646 116.037 66.058 115.804C65.4793 115.571 64.966 115.225 64.518 114.768L65.19 114.11C65.6007 114.521 66.0207 114.819 66.45 115.006C66.8887 115.183 67.3833 115.272 67.934 115.272C68.41 115.272 68.83 115.188 69.194 115.02C69.5673 114.852 69.8567 114.619 70.062 114.32C70.2673 114.021 70.37 113.681 70.37 113.298C70.37 112.934 70.2767 112.612 70.09 112.332C69.9127 112.043 69.6653 111.819 69.348 111.66C69.0307 111.501 68.6667 111.422 68.256 111.422H67.094V110.554H68.214C68.746 110.554 69.1753 110.391 69.502 110.064C69.838 109.737 70.006 109.313 70.006 108.79C70.006 108.445 69.9127 108.132 69.726 107.852C69.5393 107.572 69.2827 107.353 68.956 107.194C68.6387 107.026 68.2793 106.942 67.878 106.942C67.374 106.942 66.9213 107.035 66.52 107.222C66.128 107.399 65.7267 107.703 65.316 108.132L64.644 107.46C65.0827 106.993 65.5773 106.643 66.128 106.41C66.6787 106.167 67.2667 106.046 67.892 106.046C68.4893 106.046 69.0213 106.163 69.488 106.396C69.964 106.629 70.3373 106.951 70.608 107.362C70.8787 107.763 71.014 108.221 71.014 108.734C71.014 109.247 70.846 109.709 70.51 110.12C70.174 110.521 69.7307 110.801 69.18 110.96C69.8427 111.109 70.3747 111.399 70.776 111.828C71.1773 112.257 71.378 112.757 71.378 113.326C71.378 113.867 71.2287 114.353 70.93 114.782C70.6407 115.211 70.2347 115.547 69.712 115.79C69.1987 116.033 68.6107 116.154 67.948 116.154ZM77.3887 116V110.008H75.8627V109.168H77.3887V107.74C77.3887 107.068 77.566 106.55 77.9207 106.186C78.2754 105.822 78.7794 105.64 79.4327 105.64C79.6194 105.64 79.7874 105.649 79.9367 105.668C80.0954 105.687 80.2354 105.719 80.3567 105.766V106.69C80.2074 106.643 80.072 106.611 79.9507 106.592C79.8294 106.573 79.6894 106.564 79.5307 106.564C79.1387 106.564 78.854 106.662 78.6767 106.858C78.4994 107.045 78.4107 107.343 78.4107 107.754V109.168H80.3567V110.008H78.4107V116H77.3887ZM81.6883 116V109.168H82.7103V116H81.6883ZM82.2063 107.474C82.001 107.474 81.8237 107.404 81.6743 107.264C81.5343 107.115 81.4643 106.942 81.4643 106.746C81.4643 106.55 81.5343 106.382 81.6743 106.242C81.8237 106.093 82.001 106.018 82.2063 106.018C82.4117 106.018 82.5843 106.093 82.7243 106.242C82.8737 106.382 82.9483 106.55 82.9483 106.746C82.9483 106.942 82.8737 107.115 82.7243 107.264C82.5843 107.404 82.4117 107.474 82.2063 107.474ZM84.8059 116V105.892L85.8279 105.682V116H84.8059ZM90.527 116.14C89.939 116.14 89.491 116 89.183 115.72C88.8844 115.431 88.735 115.015 88.735 114.474V110.008H87.321V109.168H88.735V107.292L89.757 107.054V109.168H91.717V110.008H89.757V114.208C89.757 114.572 89.8317 114.833 89.981 114.992C90.1397 115.151 90.3964 115.23 90.751 115.23C90.9284 115.23 91.087 115.216 91.227 115.188C91.367 115.16 91.5304 115.113 91.717 115.048V115.958C91.5304 116.023 91.3344 116.07 91.129 116.098C90.9237 116.126 90.723 116.14 90.527 116.14ZM96.1573 116.14C95.5227 116.14 94.9487 115.986 94.4353 115.678C93.922 115.361 93.516 114.936 93.2173 114.404C92.9187 113.863 92.7693 113.256 92.7693 112.584C92.7693 111.912 92.9093 111.31 93.1893 110.778C93.4787 110.246 93.866 109.826 94.3513 109.518C94.8367 109.21 95.378 109.056 95.9753 109.056C96.582 109.056 97.1187 109.21 97.5853 109.518C98.0613 109.817 98.4347 110.227 98.7053 110.75C98.9853 111.263 99.1253 111.847 99.1253 112.5V112.808H93.7633C93.8007 113.275 93.9267 113.695 94.1413 114.068C94.3653 114.432 94.6547 114.721 95.0093 114.936C95.3733 115.141 95.77 115.244 96.1993 115.244C96.554 115.244 96.8947 115.183 97.2213 115.062C97.5573 114.931 97.842 114.759 98.0753 114.544L98.7193 115.23C98.3273 115.538 97.9213 115.767 97.5013 115.916C97.0813 116.065 96.6333 116.14 96.1573 116.14ZM93.7913 112.08H98.1173C98.0707 111.669 97.9447 111.305 97.7393 110.988C97.5433 110.661 97.2913 110.405 96.9833 110.218C96.6847 110.031 96.3487 109.938 95.9753 109.938C95.602 109.938 95.2613 110.031 94.9533 110.218C94.6453 110.395 94.3887 110.647 94.1833 110.974C93.9873 111.291 93.8567 111.66 93.7913 112.08ZM100.87 116V109.168H101.892V110.568C102.07 110.092 102.322 109.723 102.648 109.462C102.984 109.191 103.367 109.056 103.796 109.056C103.918 109.056 104.03 109.065 104.132 109.084C104.235 109.093 104.338 109.117 104.44 109.154V110.078C104.328 110.041 104.207 110.013 104.076 109.994C103.955 109.966 103.838 109.952 103.726 109.952C103.306 109.952 102.938 110.073 102.62 110.316C102.312 110.559 102.07 110.899 101.892 111.338V116H100.87ZM107.838 116.14C107.278 116.14 106.76 116.056 106.284 115.888C105.808 115.711 105.402 115.459 105.066 115.132L105.612 114.46C106.022 114.759 106.4 114.978 106.746 115.118C107.091 115.249 107.446 115.314 107.81 115.314C108.304 115.314 108.715 115.197 109.042 114.964C109.368 114.731 109.532 114.432 109.532 114.068C109.532 113.788 109.434 113.569 109.238 113.41C109.051 113.251 108.738 113.13 108.3 113.046L107.18 112.85C106.517 112.729 106.027 112.523 105.71 112.234C105.402 111.945 105.248 111.553 105.248 111.058C105.248 110.666 105.35 110.321 105.556 110.022C105.77 109.723 106.064 109.49 106.438 109.322C106.811 109.145 107.236 109.056 107.712 109.056C108.178 109.056 108.622 109.126 109.042 109.266C109.462 109.397 109.886 109.611 110.316 109.91L109.812 110.624C109.457 110.372 109.102 110.19 108.748 110.078C108.393 109.957 108.034 109.896 107.67 109.896C107.222 109.896 106.862 109.994 106.592 110.19C106.321 110.386 106.186 110.652 106.186 110.988C106.186 111.268 106.27 111.483 106.438 111.632C106.615 111.781 106.923 111.893 107.362 111.968L108.51 112.178C109.2 112.299 109.704 112.509 110.022 112.808C110.339 113.107 110.498 113.508 110.498 114.012C110.498 114.413 110.381 114.777 110.148 115.104C109.914 115.421 109.597 115.673 109.196 115.86C108.794 116.047 108.342 116.14 107.838 116.14ZM117.435 116.126C116.95 116.126 116.521 116.037 116.147 115.86C115.774 115.683 115.48 115.44 115.265 115.132C115.06 114.815 114.957 114.451 114.957 114.04C114.957 113.629 115.065 113.275 115.279 112.976C115.494 112.668 115.793 112.43 116.175 112.262C116.558 112.094 117.006 112.01 117.519 112.01C117.911 112.01 118.28 112.052 118.625 112.136C118.98 112.22 119.307 112.355 119.605 112.542V111.604C119.605 111.044 119.456 110.624 119.157 110.344C118.859 110.055 118.42 109.91 117.841 109.91C117.524 109.91 117.197 109.957 116.861 110.05C116.535 110.143 116.171 110.293 115.769 110.498L115.391 109.714C116.306 109.275 117.165 109.056 117.967 109.056C118.817 109.056 119.47 109.266 119.927 109.686C120.385 110.097 120.613 110.689 120.613 111.464V116H119.605V115.202C119.307 115.51 118.975 115.743 118.611 115.902C118.247 116.051 117.855 116.126 117.435 116.126ZM115.937 114.012C115.937 114.413 116.091 114.735 116.399 114.978C116.717 115.221 117.132 115.342 117.645 115.342C118.028 115.342 118.378 115.277 118.695 115.146C119.022 115.015 119.325 114.819 119.605 114.558V113.242C119.316 113.074 119.017 112.953 118.709 112.878C118.401 112.794 118.056 112.752 117.673 112.752C117.151 112.752 116.731 112.869 116.413 113.102C116.096 113.326 115.937 113.629 115.937 114.012ZM122.691 118.926V109.168H123.699V110.148C123.96 109.803 124.277 109.541 124.651 109.364C125.033 109.177 125.453 109.084 125.911 109.084C126.508 109.084 127.04 109.243 127.507 109.56C127.983 109.868 128.361 110.288 128.641 110.82C128.921 111.343 129.061 111.931 129.061 112.584C129.061 113.237 128.916 113.83 128.627 114.362C128.347 114.894 127.964 115.319 127.479 115.636C127.003 115.944 126.461 116.098 125.855 116.098C125.425 116.098 125.029 116.019 124.665 115.86C124.301 115.692 123.983 115.454 123.713 115.146V118.926H122.691ZM125.659 115.216C126.116 115.216 126.522 115.104 126.877 114.88C127.241 114.647 127.525 114.334 127.731 113.942C127.945 113.541 128.053 113.093 128.053 112.598C128.053 112.094 127.945 111.646 127.731 111.254C127.525 110.862 127.241 110.554 126.877 110.33C126.522 110.097 126.116 109.98 125.659 109.98C125.257 109.98 124.884 110.064 124.539 110.232C124.203 110.391 123.927 110.619 123.713 110.918V114.264C123.937 114.563 124.217 114.796 124.553 114.964C124.898 115.132 125.267 115.216 125.659 115.216ZM130.853 118.926V109.168H131.861V110.148C132.122 109.803 132.439 109.541 132.813 109.364C133.195 109.177 133.615 109.084 134.073 109.084C134.67 109.084 135.202 109.243 135.669 109.56C136.145 109.868 136.523 110.288 136.803 110.82C137.083 111.343 137.223 111.931 137.223 112.584C137.223 113.237 137.078 113.83 136.789 114.362C136.509 114.894 136.126 115.319 135.641 115.636C135.165 115.944 134.623 116.098 134.017 116.098C133.587 116.098 133.191 116.019 132.827 115.86C132.463 115.692 132.145 115.454 131.875 115.146V118.926H130.853ZM133.821 115.216C134.278 115.216 134.684 115.104 135.039 114.88C135.403 114.647 135.687 114.334 135.893 113.942C136.107 113.541 136.215 113.093 136.215 112.598C136.215 112.094 136.107 111.646 135.893 111.254C135.687 110.862 135.403 110.554 135.039 110.33C134.684 110.097 134.278 109.98 133.821 109.98C133.419 109.98 133.046 110.064 132.701 110.232C132.365 110.391 132.089 110.619 131.875 110.918V114.264C132.099 114.563 132.379 114.796 132.715 114.964C133.06 115.132 133.429 115.216 133.821 115.216ZM139.015 116V105.892L140.037 105.682V116H139.015ZM142.118 116V109.168H143.14V116H142.118ZM142.636 107.474C142.431 107.474 142.253 107.404 142.104 107.264C141.964 107.115 141.894 106.942 141.894 106.746C141.894 106.55 141.964 106.382 142.104 106.242C142.253 106.093 142.431 106.018 142.636 106.018C142.841 106.018 143.014 106.093 143.154 106.242C143.303 106.382 143.378 106.55 143.378 106.746C143.378 106.942 143.303 107.115 143.154 107.264C143.014 107.404 142.841 107.474 142.636 107.474ZM148.316 116.14C147.681 116.14 147.107 115.986 146.594 115.678C146.08 115.361 145.674 114.936 145.376 114.404C145.077 113.863 144.928 113.256 144.928 112.584C144.928 111.912 145.068 111.31 145.348 110.778C145.637 110.246 146.024 109.826 146.51 109.518C146.995 109.21 147.536 109.056 148.134 109.056C148.74 109.056 149.277 109.21 149.744 109.518C150.22 109.817 150.593 110.227 150.864 110.75C151.144 111.263 151.284 111.847 151.284 112.5V112.808H145.922C145.959 113.275 146.085 113.695 146.3 114.068C146.524 114.432 146.813 114.721 147.168 114.936C147.532 115.141 147.928 115.244 148.358 115.244C148.712 115.244 149.053 115.183 149.38 115.062C149.716 114.931 150 114.759 150.234 114.544L150.878 115.23C150.486 115.538 150.08 115.767 149.66 115.916C149.24 116.065 148.792 116.14 148.316 116.14ZM145.95 112.08H150.276C150.229 111.669 150.103 111.305 149.898 110.988C149.702 110.661 149.45 110.405 149.142 110.218C148.843 110.031 148.507 109.938 148.134 109.938C147.76 109.938 147.42 110.031 147.112 110.218C146.804 110.395 146.547 110.647 146.342 110.974C146.146 111.291 146.015 111.66 145.95 112.08ZM155.871 116.098C155.283 116.098 154.751 115.944 154.275 115.636C153.799 115.319 153.421 114.899 153.141 114.376C152.861 113.844 152.721 113.251 152.721 112.598C152.721 111.935 152.861 111.343 153.141 110.82C153.43 110.288 153.817 109.868 154.303 109.56C154.788 109.243 155.329 109.084 155.927 109.084C156.347 109.084 156.739 109.168 157.103 109.336C157.467 109.495 157.784 109.728 158.055 110.036V105.892L159.077 105.682V116H158.055V115.09C157.793 115.417 157.476 115.669 157.103 115.846C156.729 116.014 156.319 116.098 155.871 116.098ZM156.123 115.202C156.524 115.202 156.893 115.123 157.229 114.964C157.565 114.805 157.84 114.581 158.055 114.292V110.904C157.831 110.615 157.546 110.391 157.201 110.232C156.865 110.064 156.505 109.98 156.123 109.98C155.665 109.98 155.255 110.092 154.891 110.316C154.536 110.54 154.251 110.848 154.037 111.24C153.831 111.632 153.729 112.08 153.729 112.584C153.729 113.079 153.831 113.527 154.037 113.928C154.251 114.32 154.536 114.633 154.891 114.866C155.255 115.09 155.665 115.202 156.123 115.202Z" fill="black"/>
<path d="M182.768 116.154C182.068 116.154 181.415 116.028 180.808 115.776C180.211 115.515 179.683 115.155 179.226 114.698C178.769 114.231 178.414 113.695 178.162 113.088C177.91 112.472 177.784 111.809 177.784 111.1C177.784 110.391 177.91 109.733 178.162 109.126C178.414 108.51 178.769 107.973 179.226 107.516C179.683 107.049 180.211 106.69 180.808 106.438C181.415 106.177 182.068 106.046 182.768 106.046C183.253 106.046 183.715 106.111 184.154 106.242C184.602 106.363 185.022 106.545 185.414 106.788C185.806 107.021 186.156 107.311 186.464 107.656L185.75 108.398C185.386 107.959 184.938 107.623 184.406 107.39C183.883 107.147 183.337 107.026 182.768 107.026C182.217 107.026 181.704 107.129 181.228 107.334C180.752 107.539 180.337 107.829 179.982 108.202C179.637 108.575 179.366 109.009 179.17 109.504C178.974 109.989 178.876 110.521 178.876 111.1C178.876 111.669 178.974 112.201 179.17 112.696C179.366 113.191 179.637 113.625 179.982 113.998C180.337 114.371 180.752 114.661 181.228 114.866C181.704 115.071 182.217 115.174 182.768 115.174C183.337 115.174 183.883 115.053 184.406 114.81C184.938 114.567 185.386 114.231 185.75 113.802L186.464 114.544C186.156 114.889 185.806 115.183 185.414 115.426C185.022 115.659 184.602 115.841 184.154 115.972C183.715 116.093 183.253 116.154 182.768 116.154ZM188.208 116V105.892L189.23 105.682V116H188.208ZM194.405 116.14C193.771 116.14 193.197 115.986 192.683 115.678C192.17 115.361 191.764 114.936 191.465 114.404C191.167 113.863 191.017 113.256 191.017 112.584C191.017 111.912 191.157 111.31 191.437 110.778C191.727 110.246 192.114 109.826 192.599 109.518C193.085 109.21 193.626 109.056 194.223 109.056C194.83 109.056 195.367 109.21 195.833 109.518C196.309 109.817 196.683 110.227 196.953 110.75C197.233 111.263 197.373 111.847 197.373 112.5V112.808H192.011C192.049 113.275 192.175 113.695 192.389 114.068C192.613 114.432 192.903 114.721 193.257 114.936C193.621 115.141 194.018 115.244 194.447 115.244C194.802 115.244 195.143 115.183 195.469 115.062C195.805 114.931 196.09 114.759 196.323 114.544L196.967 115.23C196.575 115.538 196.169 115.767 195.749 115.916C195.329 116.065 194.881 116.14 194.405 116.14ZM192.039 112.08H196.365C196.319 111.669 196.193 111.305 195.987 110.988C195.791 110.661 195.539 110.405 195.231 110.218C194.933 110.031 194.597 109.938 194.223 109.938C193.85 109.938 193.509 110.031 193.201 110.218C192.893 110.395 192.637 110.647 192.431 110.974C192.235 111.291 192.105 111.66 192.039 112.08ZM201.096 116.126C200.61 116.126 200.181 116.037 199.808 115.86C199.434 115.683 199.14 115.44 198.926 115.132C198.72 114.815 198.618 114.451 198.618 114.04C198.618 113.629 198.725 113.275 198.94 112.976C199.154 112.668 199.453 112.43 199.836 112.262C200.218 112.094 200.666 112.01 201.18 112.01C201.572 112.01 201.94 112.052 202.286 112.136C202.64 112.22 202.967 112.355 203.266 112.542V111.604C203.266 111.044 203.116 110.624 202.818 110.344C202.519 110.055 202.08 109.91 201.502 109.91C201.184 109.91 200.858 109.957 200.522 110.05C200.195 110.143 199.831 110.293 199.43 110.498L199.052 109.714C199.966 109.275 200.825 109.056 201.628 109.056C202.477 109.056 203.13 109.266 203.588 109.686C204.045 110.097 204.274 110.689 204.274 111.464V116H203.266V115.202C202.967 115.51 202.636 115.743 202.272 115.902C201.908 116.051 201.516 116.126 201.096 116.126ZM199.598 114.012C199.598 114.413 199.752 114.735 200.06 114.978C200.377 115.221 200.792 115.342 201.306 115.342C201.688 115.342 202.038 115.277 202.356 115.146C202.682 115.015 202.986 114.819 203.266 114.558V113.242C202.976 113.074 202.678 112.953 202.37 112.878C202.062 112.794 201.716 112.752 201.334 112.752C200.811 112.752 200.391 112.869 200.074 113.102C199.756 113.326 199.598 113.629 199.598 114.012ZM206.351 116V109.168H207.373V110.568C207.55 110.092 207.802 109.723 208.129 109.462C208.465 109.191 208.847 109.056 209.277 109.056C209.398 109.056 209.51 109.065 209.613 109.084C209.715 109.093 209.818 109.117 209.921 109.154V110.078C209.809 110.041 209.687 110.013 209.557 109.994C209.435 109.966 209.319 109.952 209.207 109.952C208.787 109.952 208.418 110.073 208.101 110.316C207.793 110.559 207.55 110.899 207.373 111.338V116H206.351ZM215.408 116V110.008H213.882V109.168H215.408V107.74C215.408 107.068 215.586 106.55 215.94 106.186C216.295 105.822 216.799 105.64 217.452 105.64C217.639 105.64 217.807 105.649 217.956 105.668C218.115 105.687 218.255 105.719 218.376 105.766V106.69C218.227 106.643 218.092 106.611 217.97 106.592C217.849 106.573 217.709 106.564 217.55 106.564C217.158 106.564 216.874 106.662 216.696 106.858C216.519 107.045 216.43 107.343 216.43 107.754V109.168H218.376V110.008H216.43V116H215.408ZM219.708 116V109.168H220.73V116H219.708ZM220.226 107.474C220.021 107.474 219.843 107.404 219.694 107.264C219.554 107.115 219.484 106.942 219.484 106.746C219.484 106.55 219.554 106.382 219.694 106.242C219.843 106.093 220.021 106.018 220.226 106.018C220.431 106.018 220.604 106.093 220.744 106.242C220.893 106.382 220.968 106.55 220.968 106.746C220.968 106.942 220.893 107.115 220.744 107.264C220.604 107.404 220.431 107.474 220.226 107.474ZM222.825 116V105.892L223.847 105.682V116H222.825ZM228.547 116.14C227.959 116.14 227.511 116 227.203 115.72C226.904 115.431 226.755 115.015 226.755 114.474V110.008H225.341V109.168H226.755V107.292L227.777 107.054V109.168H229.737V110.008H227.777V114.208C227.777 114.572 227.851 114.833 228.001 114.992C228.159 115.151 228.416 115.23 228.771 115.23C228.948 115.23 229.107 115.216 229.247 115.188C229.387 115.16 229.55 115.113 229.737 115.048V115.958C229.55 116.023 229.354 116.07 229.149 116.098C228.943 116.126 228.743 116.14 228.547 116.14ZM234.177 116.14C233.542 116.14 232.968 115.986 232.455 115.678C231.942 115.361 231.536 114.936 231.237 114.404C230.938 113.863 230.789 113.256 230.789 112.584C230.789 111.912 230.929 111.31 231.209 110.778C231.498 110.246 231.886 109.826 232.371 109.518C232.856 109.21 233.398 109.056 233.995 109.056C234.602 109.056 235.138 109.21 235.605 109.518C236.081 109.817 236.454 110.227 236.725 110.75C237.005 111.263 237.145 111.847 237.145 112.5V112.808H231.783C231.82 113.275 231.946 113.695 232.161 114.068C232.385 114.432 232.674 114.721 233.029 114.936C233.393 115.141 233.79 115.244 234.219 115.244C234.574 115.244 234.914 115.183 235.241 115.062C235.577 114.931 235.862 114.759 236.095 114.544L236.739 115.23C236.347 115.538 235.941 115.767 235.521 115.916C235.101 116.065 234.653 116.14 234.177 116.14ZM231.811 112.08H236.137C236.09 111.669 235.964 111.305 235.759 110.988C235.563 110.661 235.311 110.405 235.003 110.218C234.704 110.031 234.368 109.938 233.995 109.938C233.622 109.938 233.281 110.031 232.973 110.218C232.665 110.395 232.408 110.647 232.203 110.974C232.007 111.291 231.876 111.66 231.811 112.08ZM238.89 116V109.168H239.912V110.568C240.089 110.092 240.341 109.723 240.668 109.462C241.004 109.191 241.387 109.056 241.816 109.056C241.937 109.056 242.049 109.065 242.152 109.084C242.255 109.093 242.357 109.117 242.46 109.154V110.078C242.348 110.041 242.227 110.013 242.096 109.994C241.975 109.966 241.858 109.952 241.746 109.952C241.326 109.952 240.957 110.073 240.64 110.316C240.332 110.559 240.089 110.899 239.912 111.338V116H238.89ZM245.857 116.14C245.297 116.14 244.779 116.056 244.303 115.888C243.827 115.711 243.421 115.459 243.085 115.132L243.631 114.46C244.042 114.759 244.42 114.978 244.765 115.118C245.111 115.249 245.465 115.314 245.829 115.314C246.324 115.314 246.735 115.197 247.061 114.964C247.388 114.731 247.551 114.432 247.551 114.068C247.551 113.788 247.453 113.569 247.257 113.41C247.071 113.251 246.758 113.13 246.319 113.046L245.199 112.85C244.537 112.729 244.047 112.523 243.729 112.234C243.421 111.945 243.267 111.553 243.267 111.058C243.267 110.666 243.37 110.321 243.575 110.022C243.79 109.723 244.084 109.49 244.457 109.322C244.831 109.145 245.255 109.056 245.731 109.056C246.198 109.056 246.641 109.126 247.061 109.266C247.481 109.397 247.906 109.611 248.335 109.91L247.831 110.624C247.477 110.372 247.122 110.19 246.767 110.078C246.413 109.957 246.053 109.896 245.689 109.896C245.241 109.896 244.882 109.994 244.611 110.19C244.341 110.386 244.205 110.652 244.205 110.988C244.205 111.268 244.289 111.483 244.457 111.632C244.635 111.781 244.943 111.893 245.381 111.968L246.529 112.178C247.22 112.299 247.724 112.509 248.041 112.808C248.359 113.107 248.517 113.508 248.517 114.012C248.517 114.413 248.401 114.777 248.167 115.104C247.934 115.421 247.617 115.673 247.215 115.86C246.814 116.047 246.361 116.14 245.857 116.14Z" fill="#0066CC"/>
<rect width="586" height="165" transform="translate(40 241)" fill="white"/>
<mask id="path-25-inside-4_1818_24338" fill="white">
<path d="M56 263C56 259.686 58.6863 257 62 257H104V294H62C58.6863 294 56 291.314 56 288V263Z"/>
</mask>
<path d="M56 263C56 259.686 58.6863 257 62 257H104V294H62C58.6863 294 56 291.314 56 288V263Z" fill="white"/>
<path d="M104 257H105V256H104V257ZM104 294V295H105V294H104ZM62 257V258H104V257V256H62V257ZM104 257H103V294H104H105V257H104ZM104 294V293H62V294V295H104V294ZM56 288H57V263H56H55V288H56ZM62 294V293C59.2386 293 57 290.761 57 288H56H55C55 291.866 58.134 295 62 295V294ZM62 257V256C58.134 256 55 259.134 55 263H56H57C57 260.239 59.2386 258 62 258V257Z" fill="#C7C7C7" mask="url(#path-25-inside-4_1818_24338)"/>
<mask id="path-27-inside-5_1818_24338" fill="white">
<path d="M72 271.5C72 269.291 73.7909 267.5 76 267.5H84C86.2091 267.5 88 269.291 88 271.5V279.5C88 281.709 86.2091 283.5 84 283.5H76C73.7909 283.5 72 281.709 72 279.5V271.5Z"/>
</mask>
<path d="M72 271.5C72 269.291 73.7909 267.5 76 267.5H84C86.2091 267.5 88 269.291 88 271.5V279.5C88 281.709 86.2091 283.5 84 283.5H76C73.7909 283.5 72 281.709 72 279.5V271.5Z" fill="white"/>
<path d="M76 267.5V268.5H84V267.5V266.5H76V267.5ZM88 271.5H87V279.5H88H89V271.5H88ZM84 283.5V282.5H76V283.5V284.5H84V283.5ZM72 279.5H73V271.5H72H71V279.5H72ZM76 283.5V282.5C74.3431 282.5 73 281.157 73 279.5H72H71C71 282.261 73.2386 284.5 76 284.5V283.5ZM88 279.5H87C87 281.157 85.6569 282.5 84 282.5V283.5V284.5C86.7614 284.5 89 282.261 89 279.5H88ZM84 267.5V268.5C85.6569 268.5 87 269.843 87 271.5H88H89C89 268.739 86.7614 266.5 84 266.5V267.5ZM76 267.5V266.5C73.2386 266.5 71 268.739 71 271.5H72H73C73 269.843 74.3431 268.5 76 268.5V267.5Z" fill="#C7C7C7" mask="url(#path-27-inside-5_1818_24338)"/>
<mask id="path-29-inside-6_1818_24338" fill="white">
<path d="M103 257H143C146.314 257 149 259.686 149 263V288C149 291.314 146.314 294 143 294H103V257Z"/>
</mask>
<path d="M103 257H143C146.314 257 149 259.686 149 263V288C149 291.314 146.314 294 143 294H103V257Z" fill="white"/>
<path d="M103 257V256H102V257H103ZM103 294H102V295H103V294ZM103 257V258H143V257V256H103V257ZM149 263H148V288H149H150V263H149ZM143 294V293H103V294V295H143V294ZM103 294H104V257H103H102V294H103ZM149 288H148C148 290.761 145.761 293 143 293V294V295C146.866 295 150 291.866 150 288H149ZM143 257V258C145.761 258 148 260.239 148 263H149H150C150 259.134 146.866 256 143 256V257Z" fill="#C7C7C7" mask="url(#path-29-inside-6_1818_24338)"/>
<path d="M129.534 273.167C130.023 273.167 130.267 273.762 129.921 274.11L126.389 277.672C126.175 277.887 125.826 277.887 125.611 277.672L122.079 274.11C121.733 273.762 121.977 273.167 122.466 273.167H129.534Z" fill="#1F1F1F"/>
<path d="M165 263C165 259.686 167.686 257 171 257H196C199.314 257 202 259.686 202 263V288C202 291.314 199.314 294 196 294H171C167.686 294 165 291.314 165 288V263Z" fill="#C7C7C7" fill-opacity="0.25" style="mix-blend-mode:multiply"/>
<path d="M189.843 268.5C190.427 268.5 190.719 269.208 190.307 269.62L185.25 274.678V281.843C185.25 282.376 184.649 282.683 184.218 282.381L182.03 280.851C181.855 280.728 181.75 280.527 181.75 280.312V274.678L176.694 269.62C176.28 269.207 176.574 268.5 177.157 268.5H189.843Z" fill="#1F1F1F"/>
<path d="M225.812 280.167C226.054 280.167 226.25 280.363 226.25 280.604V281.479C226.25 281.721 226.054 281.917 225.812 281.917H224.062C223.821 281.917 223.625 281.721 223.625 281.479V280.604C223.625 280.363 223.821 280.167 224.062 280.167H225.812ZM220.562 269.667C220.804 269.667 221 269.863 221 270.104V278.417H222.312C222.701 278.417 222.896 278.888 222.622 279.163L220.434 281.788C220.364 281.859 220.226 281.916 220.126 281.916C220.026 281.916 219.887 281.859 219.816 281.788L217.629 279.163C217.353 278.888 217.549 278.417 217.937 278.417H219.25V270.104C219.25 269.863 219.446 269.667 219.687 269.667H220.562ZM227.562 276.667C227.804 276.667 228 276.863 228 277.104V277.979C228 278.221 227.804 278.417 227.562 278.417H224.062C223.821 278.417 223.625 278.221 223.625 277.979V277.104C223.625 276.863 223.821 276.667 224.062 276.667H227.562ZM229.312 273.167C229.554 273.167 229.75 273.363 229.75 273.604V274.479C229.75 274.721 229.554 274.917 229.312 274.917H224.062C223.821 274.917 223.625 274.721 223.625 274.479V273.604C223.625 273.363 223.821 273.167 224.062 273.167H229.312ZM231.062 269.667C231.304 269.667 231.5 269.863 231.5 270.104V270.979C231.5 271.221 231.304 271.417 231.062 271.417H224.062C223.821 271.417 223.625 271.221 223.625 270.979V270.104C223.625 269.863 223.821 269.667 224.062 269.667H231.062Z" fill="#1F1F1F"/>
<path d="M274.292 278.436C275.42 278.436 276.333 279.344 276.333 280.468C276.333 281.591 275.42 282.5 274.292 282.5C273.163 282.5 272.25 281.591 272.25 280.468C272.25 279.344 273.163 278.436 274.292 278.436ZM274.292 273.468C275.42 273.468 276.333 274.377 276.333 275.5C276.333 276.623 275.42 277.532 274.292 277.532C273.163 277.532 272.25 276.623 272.25 275.5C272.25 274.377 273.163 273.468 274.292 273.468ZM274.292 268.5C275.42 268.5 276.333 269.409 276.333 270.532C276.333 271.656 275.42 272.564 274.292 272.564C273.163 272.564 272.25 271.656 272.25 270.532C272.25 269.409 273.163 268.5 274.292 268.5Z" fill="#1F1F1F"/>
<path d="M393.254 280V271.81L391.518 272.552V271.194L393.814 270.2H394.78V280H393.254ZM399.714 276.696V275.352H404.6V276.696H399.714ZM409.255 280V278.894L413.273 274.694C413.516 274.442 413.702 274.213 413.833 274.008C413.973 273.803 414.071 273.607 414.127 273.42C414.192 273.224 414.225 273.023 414.225 272.818C414.225 272.407 414.057 272.067 413.721 271.796C413.385 271.525 412.96 271.39 412.447 271.39C411.999 271.39 411.579 271.479 411.187 271.656C410.795 271.833 410.366 272.141 409.899 272.58L409.031 271.53C409.572 271.035 410.128 270.667 410.697 270.424C411.266 270.172 411.859 270.046 412.475 270.046C413.119 270.046 413.684 270.163 414.169 270.396C414.654 270.62 415.032 270.933 415.303 271.334C415.574 271.735 415.709 272.202 415.709 272.734C415.709 273.051 415.667 273.35 415.583 273.63C415.499 273.91 415.354 274.195 415.149 274.484C414.953 274.773 414.678 275.105 414.323 275.478L411.201 278.698L415.891 278.684V280H409.255ZM421.243 280.14C420.45 280.14 419.75 279.93 419.143 279.51C418.546 279.081 418.075 278.488 417.729 277.732C417.393 276.967 417.225 276.089 417.225 275.1C417.225 274.092 417.393 273.21 417.729 272.454C418.075 271.698 418.546 271.11 419.143 270.69C419.75 270.261 420.45 270.046 421.243 270.046C422.037 270.046 422.732 270.261 423.329 270.69C423.936 271.11 424.407 271.698 424.743 272.454C425.079 273.21 425.247 274.092 425.247 275.1C425.247 276.089 425.079 276.967 424.743 277.732C424.407 278.488 423.936 279.081 423.329 279.51C422.732 279.93 422.037 280.14 421.243 280.14ZM421.243 278.782C421.747 278.782 422.181 278.633 422.545 278.334C422.919 278.026 423.208 277.597 423.413 277.046C423.619 276.495 423.721 275.847 423.721 275.1C423.721 274.344 423.619 273.691 423.413 273.14C423.208 272.589 422.919 272.165 422.545 271.866C422.181 271.558 421.747 271.404 421.243 271.404C420.739 271.404 420.301 271.558 419.927 271.866C419.563 272.165 419.274 272.589 419.059 273.14C418.854 273.691 418.751 274.344 418.751 275.1C418.751 275.847 418.854 276.495 419.059 277.046C419.274 277.597 419.563 278.026 419.927 278.334C420.301 278.633 420.739 278.782 421.243 278.782Z" fill="#151515"/>
<path d="M434.074 280.112C433.439 280.112 432.87 279.958 432.366 279.65C431.862 279.342 431.465 278.922 431.176 278.39C430.887 277.858 430.742 277.256 430.742 276.584C430.742 275.912 430.887 275.31 431.176 274.778C431.465 274.246 431.862 273.826 432.366 273.518C432.87 273.21 433.439 273.056 434.074 273.056C434.699 273.056 435.259 273.21 435.754 273.518C436.258 273.826 436.655 274.246 436.944 274.778C437.233 275.31 437.378 275.912 437.378 276.584C437.378 277.256 437.233 277.858 436.944 278.39C436.655 278.922 436.258 279.342 435.754 279.65C435.259 279.958 434.699 280.112 434.074 280.112ZM434.06 279.216C434.508 279.216 434.905 279.104 435.25 278.88C435.595 278.647 435.866 278.329 436.062 277.928C436.267 277.527 436.37 277.079 436.37 276.584C436.37 276.08 436.267 275.632 436.062 275.24C435.866 274.839 435.595 274.526 435.25 274.302C434.905 274.069 434.508 273.952 434.06 273.952C433.612 273.952 433.215 274.069 432.87 274.302C432.525 274.526 432.249 274.839 432.044 275.24C431.848 275.632 431.75 276.08 431.75 276.584C431.75 277.079 431.848 277.527 432.044 277.928C432.249 278.329 432.525 278.647 432.87 278.88C433.215 279.104 433.612 279.216 434.06 279.216ZM439.615 280V274.008H438.089V273.168H439.615V271.74C439.615 271.068 439.793 270.55 440.147 270.186C440.502 269.822 441.006 269.64 441.659 269.64C441.846 269.64 442.014 269.649 442.163 269.668C442.322 269.687 442.462 269.719 442.583 269.766V270.69C442.434 270.643 442.299 270.611 442.177 270.592C442.056 270.573 441.916 270.564 441.757 270.564C441.365 270.564 441.081 270.662 440.903 270.858C440.726 271.045 440.637 271.343 440.637 271.754V273.168H442.583V274.008H440.637V280H439.615Z" fill="#151515"/>
<path d="M450.934 280.154C449.609 280.154 448.461 279.711 447.49 278.824L448.414 277.774C448.834 278.147 449.245 278.418 449.646 278.586C450.057 278.754 450.505 278.838 450.99 278.838C451.41 278.838 451.774 278.759 452.082 278.6C452.399 278.441 452.642 278.217 452.81 277.928C452.987 277.629 453.076 277.293 453.076 276.92C453.076 276.369 452.875 275.926 452.474 275.59C452.082 275.245 451.573 275.072 450.948 275.072C450.621 275.072 450.299 275.114 449.982 275.198C449.674 275.282 449.352 275.413 449.016 275.59L447.938 275.268L448.162 270.2H454.112V271.516H449.506L449.38 274.33C449.735 274.153 450.071 274.036 450.388 273.98C450.715 273.915 451.046 273.882 451.382 273.882C452.035 273.882 452.605 274.008 453.09 274.26C453.575 274.503 453.953 274.848 454.224 275.296C454.495 275.735 454.63 276.248 454.63 276.836C454.63 277.499 454.476 278.077 454.168 278.572C453.86 279.067 453.426 279.454 452.866 279.734C452.315 280.014 451.671 280.154 450.934 280.154ZM455.821 280V278.894L459.839 274.694C460.082 274.442 460.269 274.213 460.399 274.008C460.539 273.803 460.637 273.607 460.693 273.42C460.759 273.224 460.791 273.023 460.791 272.818C460.791 272.407 460.623 272.067 460.287 271.796C459.951 271.525 459.527 271.39 459.013 271.39C458.565 271.39 458.145 271.479 457.753 271.656C457.361 271.833 456.932 272.141 456.465 272.58L455.597 271.53C456.139 271.035 456.694 270.667 457.263 270.424C457.833 270.172 458.425 270.046 459.041 270.046C459.685 270.046 460.25 270.163 460.735 270.396C461.221 270.62 461.599 270.933 461.869 271.334C462.14 271.735 462.275 272.202 462.275 272.734C462.275 273.051 462.233 273.35 462.149 273.63C462.065 273.91 461.921 274.195 461.715 274.484C461.519 274.773 461.244 275.105 460.889 275.478L457.767 278.698L462.457 278.684V280H455.821ZM467.208 280.154C466.48 280.154 465.803 280.028 465.178 279.776C464.552 279.515 464.02 279.151 463.582 278.684L464.604 277.704C464.996 278.115 465.388 278.404 465.78 278.572C466.172 278.731 466.638 278.81 467.18 278.81C467.609 278.81 467.982 278.745 468.3 278.614C468.626 278.474 468.878 278.283 469.056 278.04C469.233 277.797 469.322 277.513 469.322 277.186C469.322 276.897 469.247 276.64 469.098 276.416C468.948 276.192 468.743 276.019 468.482 275.898C468.22 275.767 467.917 275.702 467.572 275.702H466.368V274.414H467.446C467.922 274.414 468.3 274.283 468.58 274.022C468.869 273.761 469.014 273.406 469.014 272.958C469.014 272.669 468.93 272.407 468.762 272.174C468.603 271.931 468.384 271.745 468.104 271.614C467.824 271.474 467.506 271.404 467.152 271.404C466.657 271.404 466.223 271.493 465.85 271.67C465.486 271.838 465.108 272.137 464.716 272.566L463.68 271.6C464.128 271.096 464.655 270.713 465.262 270.452C465.878 270.181 466.522 270.046 467.194 270.046C467.847 270.046 468.426 270.163 468.93 270.396C469.434 270.629 469.826 270.956 470.106 271.376C470.395 271.787 470.54 272.258 470.54 272.79C470.54 273.313 470.367 273.779 470.022 274.19C469.686 274.591 469.242 274.871 468.692 275.03C469.345 275.17 469.868 275.445 470.26 275.856C470.661 276.257 470.862 276.733 470.862 277.284C470.862 277.835 470.703 278.329 470.386 278.768C470.068 279.197 469.634 279.538 469.084 279.79C468.542 280.033 467.917 280.154 467.208 280.154Z" fill="#151515"/>
<path fill-rule="evenodd" clip-rule="evenodd" d="M488.444 277.982L492.481 273.912C492.877 273.513 492.598 272.833 492.039 272.833H483.961C483.403 272.833 483.123 273.513 483.519 273.912L487.556 277.982C487.801 278.228 488.2 278.228 488.444 277.982Z" fill="#1F1F1F"/>
<path d="M547.494 271.214C547.751 270.957 548.167 270.957 548.422 271.214L549.039 271.832C549.296 272.089 549.296 272.504 549.039 272.759L546.406 275.397L549.042 278.033C549.299 278.29 549.299 278.706 549.042 278.96L548.424 279.581C548.167 279.838 547.751 279.838 547.497 279.581L543.778 275.862C543.518 275.605 543.518 275.19 543.775 274.933L547.494 271.214Z" fill="#A3A3A3"/>
<path d="M589.391 271.026C589.649 270.769 590.064 270.769 590.318 271.026L594.037 274.745C594.297 275.002 594.297 275.418 594.04 275.675L590.321 279.393C590.064 279.65 589.649 279.65 589.394 279.393L588.776 278.775C588.519 278.518 588.519 278.103 588.776 277.849L591.412 275.213L588.776 272.576C588.519 272.319 588.519 271.904 588.776 271.649L589.391 271.026Z" fill="#1F1F1F"/>
<path d="M184.707 191.707C184.317 192.098 183.683 192.098 183.293 191.707L176.929 185.343C176.538 184.953 176.538 184.319 176.929 183.929C177.319 183.538 177.953 183.538 178.343 183.929L184 189.586L189.657 183.929C190.047 183.538 190.681 183.538 191.071 183.929C191.462 184.319 191.462 184.953 191.071 185.343L184.707 191.707ZM184 141H185L185 191H184H183L183 141H184Z" fill="#C806CC"/>
<rect width="586" height="106" transform="translate(40 294)" fill="white"/>
<mask id="path-48-inside-7_1818_24338" fill="white">
<path d="M56 316C56 312.686 58.6863 310 62 310H149C152.314 310 155 312.686 155 316V341C155 344.314 152.314 347 149 347H62C58.6863 347 56 344.314 56 341V316Z"/>
</mask>
<path d="M56 316C56 312.686 58.6863 310 62 310H149C152.314 310 155 312.686 155 316V341C155 344.314 152.314 347 149 347H62C58.6863 347 56 344.314 56 341V316Z" fill="white"/>
<path d="M62 310V311H149V310V309H62V310ZM155 316H154V341H155H156V316H155ZM149 347V346H62V347V348H149V347ZM56 341H57V316H56H55V341H56ZM62 347V346C59.2386 346 57 343.761 57 341H56H55C55 344.866 58.134 348 62 348V347ZM155 341H154C154 343.761 151.761 346 149 346V347V348C152.866 348 156 344.866 156 341H155ZM149 310V311C151.761 311 154 313.239 154 316H155H156C156 312.134 152.866 309 149 309V310ZM62 310V309C58.134 309 55 312.134 55 316H56H57C57 313.239 59.2386 311 62 311V310Z" fill="#C7C7C7" mask="url(#path-48-inside-7_1818_24338)"/>
<path d="M73.246 333V323.2H74.366L80.106 331.32L80.078 323.2H81.1V333H80.12L74.24 324.698L74.268 333H73.246ZM85.3769 333.126C84.8916 333.126 84.4622 333.037 84.0889 332.86C83.7156 332.683 83.4216 332.44 83.2069 332.132C83.0016 331.815 82.8989 331.451 82.8989 331.04C82.8989 330.629 83.0062 330.275 83.2209 329.976C83.4356 329.668 83.7342 329.43 84.1169 329.262C84.4996 329.094 84.9476 329.01 85.4609 329.01C85.8529 329.01 86.2216 329.052 86.5669 329.136C86.9216 329.22 87.2482 329.355 87.5469 329.542V328.604C87.5469 328.044 87.3976 327.624 87.0989 327.344C86.8002 327.055 86.3616 326.91 85.7829 326.91C85.4656 326.91 85.1389 326.957 84.8029 327.05C84.4762 327.143 84.1122 327.293 83.7109 327.498L83.3329 326.714C84.2476 326.275 85.1062 326.056 85.9089 326.056C86.7582 326.056 87.4116 326.266 87.8689 326.686C88.3262 327.097 88.5549 327.689 88.5549 328.464V333H87.5469V332.202C87.2482 332.51 86.9169 332.743 86.5529 332.902C86.1889 333.051 85.7969 333.126 85.3769 333.126ZM83.8789 331.012C83.8789 331.413 84.0329 331.735 84.3409 331.978C84.6582 332.221 85.0736 332.342 85.5869 332.342C85.9696 332.342 86.3196 332.277 86.6369 332.146C86.9636 332.015 87.2669 331.819 87.5469 331.558V330.242C87.2576 330.074 86.9589 329.953 86.6509 329.878C86.3429 329.794 85.9976 329.752 85.6149 329.752C85.0922 329.752 84.6722 329.869 84.3549 330.102C84.0376 330.326 83.8789 330.629 83.8789 331.012ZM90.632 333V326.168H91.654V327.232C91.9154 326.84 92.214 326.546 92.55 326.35C92.886 326.154 93.264 326.056 93.684 326.056C94.1694 326.056 94.594 326.177 94.958 326.42C95.322 326.653 95.5974 326.975 95.784 327.386C96.0547 326.947 96.3767 326.616 96.75 326.392C97.1327 326.168 97.5714 326.056 98.066 326.056C98.5234 326.056 98.9247 326.163 99.27 326.378C99.6247 326.593 99.9 326.891 100.096 327.274C100.292 327.647 100.39 328.086 100.39 328.59V333H99.368V328.842C99.368 328.245 99.2187 327.773 98.92 327.428C98.6214 327.083 98.2107 326.91 97.688 326.91C97.3334 326.91 97.0114 326.999 96.722 327.176C96.442 327.353 96.1947 327.624 95.98 327.988C95.9987 328.081 96.0127 328.179 96.022 328.282C96.0314 328.385 96.036 328.487 96.036 328.59V333H95.014V328.842C95.014 328.245 94.86 327.773 94.552 327.428C94.2534 327.083 93.8427 326.91 93.32 326.91C92.62 326.91 92.0647 327.246 91.654 327.918V333H90.632ZM105.538 333.14C104.904 333.14 104.33 332.986 103.816 332.678C103.303 332.361 102.897 331.936 102.598 331.404C102.3 330.863 102.15 330.256 102.15 329.584C102.15 328.912 102.29 328.31 102.57 327.778C102.86 327.246 103.247 326.826 103.732 326.518C104.218 326.21 104.759 326.056 105.356 326.056C105.963 326.056 106.5 326.21 106.966 326.518C107.442 326.817 107.816 327.227 108.086 327.75C108.366 328.263 108.506 328.847 108.506 329.5V329.808H103.144C103.182 330.275 103.308 330.695 103.522 331.068C103.746 331.432 104.036 331.721 104.39 331.936C104.754 332.141 105.151 332.244 105.58 332.244C105.935 332.244 106.276 332.183 106.602 332.062C106.938 331.931 107.223 331.759 107.456 331.544L108.1 332.23C107.708 332.538 107.302 332.767 106.882 332.916C106.462 333.065 106.014 333.14 105.538 333.14ZM103.172 329.08H107.498C107.452 328.669 107.326 328.305 107.12 327.988C106.924 327.661 106.672 327.405 106.364 327.218C106.066 327.031 105.73 326.938 105.356 326.938C104.983 326.938 104.642 327.031 104.334 327.218C104.026 327.395 103.77 327.647 103.564 327.974C103.368 328.291 103.238 328.66 103.172 329.08Z" fill="#151515"/>
<path d="M132.534 326.667C133.023 326.667 133.267 327.262 132.921 327.61L129.389 331.172C129.174 331.387 128.825 331.387 128.611 331.172L125.079 327.61C124.733 327.262 124.978 326.667 125.467 326.667H132.534Z" fill="#1F1F1F"/>
<path d="M177 310.5H370C373.038 310.5 375.5 312.962 375.5 316V341C375.5 344.038 373.038 346.5 370 346.5H177C173.962 346.5 171.5 344.038 171.5 341V316C171.5 312.962 173.962 310.5 177 310.5Z" fill="white"/>
<path d="M177 310.5H370C373.038 310.5 375.5 312.962 375.5 316V341C375.5 344.038 373.038 346.5 370 346.5H177C173.962 346.5 171.5 344.038 171.5 341V316C171.5 312.962 173.962 310.5 177 310.5Z" stroke="#C7C7C7"/>
<path d="M188.688 322C191.829 322 194.375 324.546 194.375 327.688C194.375 329.008 193.927 330.222 193.172 331.188H193.617C193.792 331.188 193.959 331.256 194.082 331.379L196.809 334.105C197.063 334.363 197.063 334.778 196.806 335.035L196.032 335.809C195.778 336.066 195.363 336.065 195.105 335.809L192.379 333.082C192.256 332.959 192.188 332.792 192.188 332.617V332.172C191.222 332.927 190.008 333.375 188.688 333.375C185.546 333.375 183 330.829 183 327.688C183 324.546 185.546 322 188.688 322ZM188.688 324.188C186.752 324.188 185.188 325.754 185.188 327.688C185.188 329.623 186.754 331.188 188.688 331.188C190.623 331.187 192.187 329.621 192.188 327.688C192.188 325.752 190.621 324.188 188.688 324.188Z" fill="#1F1F1F"/>
<path d="M209.246 333V323.2H215.938V324.152H210.324V327.652H214.16V328.59H210.324V333H209.246ZM217.376 333V326.168H218.398V333H217.376ZM217.894 324.474C217.689 324.474 217.511 324.404 217.362 324.264C217.222 324.115 217.152 323.942 217.152 323.746C217.152 323.55 217.222 323.382 217.362 323.242C217.511 323.093 217.689 323.018 217.894 323.018C218.099 323.018 218.272 323.093 218.412 323.242C218.561 323.382 218.636 323.55 218.636 323.746C218.636 323.942 218.561 324.115 218.412 324.264C218.272 324.404 218.099 324.474 217.894 324.474ZM220.493 333V322.892L221.515 322.682V333H220.493ZM226.215 333.14C225.627 333.14 225.179 333 224.871 332.72C224.572 332.431 224.423 332.015 224.423 331.474V327.008H223.009V326.168H224.423V324.292L225.445 324.054V326.168H227.405V327.008H225.445V331.208C225.445 331.572 225.519 331.833 225.669 331.992C225.827 332.151 226.084 332.23 226.439 332.23C226.616 332.23 226.775 332.216 226.915 332.188C227.055 332.16 227.218 332.113 227.405 332.048V332.958C227.218 333.023 227.022 333.07 226.817 333.098C226.611 333.126 226.411 333.14 226.215 333.14ZM231.845 333.14C231.21 333.14 230.636 332.986 230.123 332.678C229.61 332.361 229.204 331.936 228.905 331.404C228.606 330.863 228.457 330.256 228.457 329.584C228.457 328.912 228.597 328.31 228.877 327.778C229.166 327.246 229.554 326.826 230.039 326.518C230.524 326.21 231.066 326.056 231.663 326.056C232.27 326.056 232.806 326.21 233.273 326.518C233.749 326.817 234.122 327.227 234.393 327.75C234.673 328.263 234.813 328.847 234.813 329.5V329.808H229.451C229.488 330.275 229.614 330.695 229.829 331.068C230.053 331.432 230.342 331.721 230.697 331.936C231.061 332.141 231.458 332.244 231.887 332.244C232.242 332.244 232.582 332.183 232.909 332.062C233.245 331.931 233.53 331.759 233.763 331.544L234.407 332.23C234.015 332.538 233.609 332.767 233.189 332.916C232.769 333.065 232.321 333.14 231.845 333.14ZM229.479 329.08H233.805C233.758 328.669 233.632 328.305 233.427 327.988C233.231 327.661 232.979 327.405 232.671 327.218C232.372 327.031 232.036 326.938 231.663 326.938C231.29 326.938 230.949 327.031 230.641 327.218C230.333 327.395 230.076 327.647 229.871 327.974C229.675 328.291 229.544 328.66 229.479 329.08ZM236.558 333V326.168H237.58V327.568C237.757 327.092 238.009 326.723 238.336 326.462C238.672 326.191 239.054 326.056 239.484 326.056C239.605 326.056 239.717 326.065 239.82 326.084C239.922 326.093 240.025 326.117 240.128 326.154V327.078C240.016 327.041 239.894 327.013 239.764 326.994C239.642 326.966 239.526 326.952 239.414 326.952C238.994 326.952 238.625 327.073 238.308 327.316C238 327.559 237.757 327.899 237.58 328.338V333H236.558ZM244.747 333V322.99L245.769 322.78V327.106C246.031 326.779 246.348 326.527 246.721 326.35C247.095 326.173 247.51 326.084 247.967 326.084C248.565 326.084 249.097 326.243 249.563 326.56C250.039 326.868 250.417 327.288 250.697 327.82C250.977 328.343 251.117 328.931 251.117 329.584C251.117 330.237 250.973 330.83 250.683 331.362C250.403 331.894 250.021 332.319 249.535 332.636C249.059 332.944 248.518 333.098 247.911 333.098C247.482 333.098 247.081 333.014 246.707 332.846C246.343 332.669 246.026 332.421 245.755 332.104V333H244.747ZM247.715 332.216C248.173 332.216 248.579 332.104 248.933 331.88C249.297 331.647 249.582 331.334 249.787 330.942C250.002 330.541 250.109 330.093 250.109 329.598C250.109 329.094 250.002 328.646 249.787 328.254C249.582 327.862 249.297 327.554 248.933 327.33C248.579 327.097 248.173 326.98 247.715 326.98C247.314 326.98 246.941 327.064 246.595 327.232C246.259 327.391 245.984 327.619 245.769 327.918V331.264C245.993 331.563 246.273 331.796 246.609 331.964C246.955 332.132 247.323 332.216 247.715 332.216ZM252.998 336.066C252.784 336.066 252.564 336.033 252.34 335.968V335.058C252.434 335.077 252.532 335.091 252.634 335.1C252.737 335.109 252.826 335.114 252.9 335.114C253.162 335.114 253.376 335.044 253.544 334.904C253.722 334.764 253.871 334.545 253.992 334.246L254.496 333L251.864 326.168H252.998L255.07 331.782L257.268 326.168H258.402L254.958 334.554C254.809 334.918 254.646 335.212 254.468 335.436C254.291 335.66 254.086 335.819 253.852 335.912C253.619 336.015 253.334 336.066 252.998 336.066ZM262.945 333V326.168H263.967V327.274C264.228 326.863 264.541 326.56 264.905 326.364C265.269 326.159 265.679 326.056 266.137 326.056C266.631 326.056 267.061 326.163 267.425 326.378C267.798 326.583 268.087 326.877 268.293 327.26C268.507 327.633 268.615 328.072 268.615 328.576V333H267.593V328.87C267.593 328.263 267.425 327.787 267.089 327.442C266.762 327.087 266.319 326.91 265.759 326.91C265.385 326.91 265.045 326.999 264.737 327.176C264.429 327.353 264.172 327.615 263.967 327.96V333H262.945ZM272.783 333.126C272.298 333.126 271.868 333.037 271.495 332.86C271.122 332.683 270.828 332.44 270.613 332.132C270.408 331.815 270.305 331.451 270.305 331.04C270.305 330.629 270.412 330.275 270.627 329.976C270.842 329.668 271.14 329.43 271.523 329.262C271.906 329.094 272.354 329.01 272.867 329.01C273.259 329.01 273.628 329.052 273.973 329.136C274.328 329.22 274.654 329.355 274.953 329.542V328.604C274.953 328.044 274.804 327.624 274.505 327.344C274.206 327.055 273.768 326.91 273.189 326.91C272.872 326.91 272.545 326.957 272.209 327.05C271.882 327.143 271.518 327.293 271.117 327.498L270.739 326.714C271.654 326.275 272.512 326.056 273.315 326.056C274.164 326.056 274.818 326.266 275.275 326.686C275.732 327.097 275.961 327.689 275.961 328.464V333H274.953V332.202C274.654 332.51 274.323 332.743 273.959 332.902C273.595 333.051 273.203 333.126 272.783 333.126ZM271.285 331.012C271.285 331.413 271.439 331.735 271.747 331.978C272.064 332.221 272.48 332.342 272.993 332.342C273.376 332.342 273.726 332.277 274.043 332.146C274.37 332.015 274.673 331.819 274.953 331.558V330.242C274.664 330.074 274.365 329.953 274.057 329.878C273.749 329.794 273.404 329.752 273.021 329.752C272.498 329.752 272.078 329.869 271.761 330.102C271.444 330.326 271.285 330.629 271.285 331.012ZM278.038 333V326.168H279.06V327.232C279.322 326.84 279.62 326.546 279.956 326.35C280.292 326.154 280.67 326.056 281.09 326.056C281.576 326.056 282 326.177 282.364 326.42C282.728 326.653 283.004 326.975 283.19 327.386C283.461 326.947 283.783 326.616 284.156 326.392C284.539 326.168 284.978 326.056 285.472 326.056C285.93 326.056 286.331 326.163 286.676 326.378C287.031 326.593 287.306 326.891 287.502 327.274C287.698 327.647 287.796 328.086 287.796 328.59V333H286.774V328.842C286.774 328.245 286.625 327.773 286.326 327.428C286.028 327.083 285.617 326.91 285.094 326.91C284.74 326.91 284.418 326.999 284.128 327.176C283.848 327.353 283.601 327.624 283.386 327.988C283.405 328.081 283.419 328.179 283.428 328.282C283.438 328.385 283.442 328.487 283.442 328.59V333H282.42V328.842C282.42 328.245 282.266 327.773 281.958 327.428C281.66 327.083 281.249 326.91 280.726 326.91C280.026 326.91 279.471 327.246 279.06 327.918V333H278.038ZM292.944 333.14C292.31 333.14 291.736 332.986 291.222 332.678C290.709 332.361 290.303 331.936 290.004 331.404C289.706 330.863 289.556 330.256 289.556 329.584C289.556 328.912 289.696 328.31 289.976 327.778C290.266 327.246 290.653 326.826 291.138 326.518C291.624 326.21 292.165 326.056 292.762 326.056C293.369 326.056 293.906 326.21 294.372 326.518C294.848 326.817 295.222 327.227 295.492 327.75C295.772 328.263 295.912 328.847 295.912 329.5V329.808H290.55C290.588 330.275 290.714 330.695 290.928 331.068C291.152 331.432 291.442 331.721 291.796 331.936C292.16 332.141 292.557 332.244 292.986 332.244C293.341 332.244 293.682 332.183 294.008 332.062C294.344 331.931 294.629 331.759 294.862 331.544L295.506 332.23C295.114 332.538 294.708 332.767 294.288 332.916C293.868 333.065 293.42 333.14 292.944 333.14ZM290.578 329.08H294.904C294.858 328.669 294.732 328.305 294.526 327.988C294.33 327.661 294.078 327.405 293.77 327.218C293.472 327.031 293.136 326.938 292.762 326.938C292.389 326.938 292.048 327.031 291.74 327.218C291.432 327.395 291.176 327.647 290.97 327.974C290.774 328.291 290.644 328.66 290.578 329.08Z" fill="#4D4D4D"/>
<path d="M62 365H293C296.038 365 298.5 367.462 298.5 370.5V392.5C298.5 395.538 296.038 398 293 398H62C58.9624 398 56.5 395.538 56.5 392.5V370.5C56.5 367.462 58.9624 365 62 365Z" stroke="#C7C7C7"/>
<path d="M64 381.5C64 374.32 69.8203 368.5 77 368.5H122C129.18 368.5 135 374.32 135 381.5C135 388.68 129.18 394.5 122 394.5H77C69.8203 394.5 64 388.68 64 381.5Z" fill="#E0E0E0"/>
<path d="M73.068 385.5V377.1H78.804V377.916H73.992V380.916H77.28V381.72H73.992V385.5H73.068ZM80.0364 385.5V379.644H80.9124V385.5H80.0364ZM80.4804 378.192C80.3044 378.192 80.1524 378.132 80.0244 378.012C79.9044 377.884 79.8444 377.736 79.8444 377.568C79.8444 377.4 79.9044 377.256 80.0244 377.136C80.1524 377.008 80.3044 376.944 80.4804 376.944C80.6564 376.944 80.8044 377.008 80.9244 377.136C81.0524 377.256 81.1164 377.4 81.1164 377.568C81.1164 377.736 81.0524 377.884 80.9244 378.012C80.8044 378.132 80.6564 378.192 80.4804 378.192ZM82.7086 385.5V376.836L83.5846 376.656V385.5H82.7086ZM87.6125 385.62C87.1085 385.62 86.7245 385.5 86.4605 385.26C86.2045 385.012 86.0765 384.656 86.0765 384.192V380.364H84.8645V379.644H86.0765V378.036L86.9525 377.832V379.644H88.6325V380.364H86.9525V383.964C86.9525 384.276 87.0165 384.5 87.1445 384.636C87.2805 384.772 87.5005 384.84 87.8045 384.84C87.9565 384.84 88.0925 384.828 88.2125 384.804C88.3325 384.78 88.4725 384.74 88.6325 384.684V385.464C88.4725 385.52 88.3045 385.56 88.1285 385.584C87.9525 385.608 87.7805 385.62 87.6125 385.62ZM92.4384 385.62C91.8944 385.62 91.4024 385.488 90.9624 385.224C90.5224 384.952 90.1744 384.588 89.9184 384.132C89.6624 383.668 89.5344 383.148 89.5344 382.572C89.5344 381.996 89.6544 381.48 89.8944 381.024C90.1424 380.568 90.4744 380.208 90.8904 379.944C91.3064 379.68 91.7704 379.548 92.2824 379.548C92.8024 379.548 93.2624 379.68 93.6624 379.944C94.0704 380.2 94.3904 380.552 94.6224 381C94.8624 381.44 94.9824 381.94 94.9824 382.5V382.764H90.3864C90.4184 383.164 90.5264 383.524 90.7104 383.844C90.9024 384.156 91.1504 384.404 91.4544 384.588C91.7664 384.764 92.1064 384.852 92.4744 384.852C92.7784 384.852 93.0704 384.8 93.3504 384.696C93.6384 384.584 93.8824 384.436 94.0824 384.252L94.6344 384.84C94.2984 385.104 93.9504 385.3 93.5904 385.428C93.2304 385.556 92.8464 385.62 92.4384 385.62ZM90.4104 382.14H94.1184C94.0784 381.788 93.9704 381.476 93.7944 381.204C93.6264 380.924 93.4104 380.704 93.1464 380.544C92.8904 380.384 92.6024 380.304 92.2824 380.304C91.9624 380.304 91.6704 380.384 91.4064 380.544C91.1424 380.696 90.9224 380.912 90.7464 381.192C90.5784 381.464 90.4664 381.78 90.4104 382.14ZM96.4781 385.5V379.644H97.3541V380.844C97.5061 380.436 97.7221 380.12 98.0021 379.896C98.2901 379.664 98.6181 379.548 98.9861 379.548C99.0901 379.548 99.1861 379.556 99.2741 379.572C99.3621 379.58 99.4501 379.6 99.5381 379.632V380.424C99.4421 380.392 99.3381 380.368 99.2261 380.352C99.1221 380.328 99.0221 380.316 98.9261 380.316C98.5661 380.316 98.2501 380.42 97.9781 380.628C97.7141 380.836 97.5061 381.128 97.3541 381.504V385.5H96.4781ZM104.434 385.5V378.036L103.09 378.636V377.844L104.758 377.1H105.298V385.5H104.434Z" fill="#151515"/>
<path d="M121.274 377.709C121.554 377.43 122.006 377.43 122.285 377.709L122.791 378.215C123.07 378.494 123.07 378.946 122.791 379.225L120.517 381.5L122.791 383.774C123.07 384.053 123.07 384.506 122.791 384.785L122.285 385.291C122.006 385.57 121.553 385.57 121.274 385.291L119 383.016L116.726 385.291C116.447 385.57 115.994 385.57 115.715 385.291L115.209 384.785C114.93 384.506 114.93 384.053 115.209 383.774L117.483 381.5L115.209 379.225C114.93 378.946 114.93 378.494 115.209 378.215L115.715 377.709C115.994 377.43 116.447 377.43 116.726 377.709L119 379.983L121.274 377.709Z" fill="#1F1F1F"/>
<path d="M139 381.5C139 374.32 144.82 368.5 152 368.5H200C207.18 368.5 213 374.32 213 381.5C213 388.68 207.18 394.5 200 394.5H152C144.82 394.5 139 388.68 139 381.5Z" fill="#E0E0E0"/>
<path d="M148.068 385.5V377.1H153.804V377.916H148.992V380.916H152.28V381.72H148.992V385.5H148.068ZM155.036 385.5V379.644H155.912V385.5H155.036ZM155.48 378.192C155.304 378.192 155.152 378.132 155.024 378.012C154.904 377.884 154.844 377.736 154.844 377.568C154.844 377.4 154.904 377.256 155.024 377.136C155.152 377.008 155.304 376.944 155.48 376.944C155.656 376.944 155.804 377.008 155.924 377.136C156.052 377.256 156.116 377.4 156.116 377.568C156.116 377.736 156.052 377.884 155.924 378.012C155.804 378.132 155.656 378.192 155.48 378.192ZM157.709 385.5V376.836L158.585 376.656V385.5H157.709ZM162.612 385.62C162.108 385.62 161.724 385.5 161.46 385.26C161.204 385.012 161.076 384.656 161.076 384.192V380.364H159.864V379.644H161.076V378.036L161.952 377.832V379.644H163.632V380.364H161.952V383.964C161.952 384.276 162.016 384.5 162.144 384.636C162.28 384.772 162.5 384.84 162.804 384.84C162.956 384.84 163.092 384.828 163.212 384.804C163.332 384.78 163.472 384.74 163.632 384.684V385.464C163.472 385.52 163.304 385.56 163.128 385.584C162.952 385.608 162.78 385.62 162.612 385.62ZM167.438 385.62C166.894 385.62 166.402 385.488 165.962 385.224C165.522 384.952 165.174 384.588 164.918 384.132C164.662 383.668 164.534 383.148 164.534 382.572C164.534 381.996 164.654 381.48 164.894 381.024C165.142 380.568 165.474 380.208 165.89 379.944C166.306 379.68 166.77 379.548 167.282 379.548C167.802 379.548 168.262 379.68 168.662 379.944C169.07 380.2 169.39 380.552 169.622 381C169.862 381.44 169.982 381.94 169.982 382.5V382.764H165.386C165.418 383.164 165.526 383.524 165.71 383.844C165.902 384.156 166.15 384.404 166.454 384.588C166.766 384.764 167.106 384.852 167.474 384.852C167.778 384.852 168.07 384.8 168.35 384.696C168.638 384.584 168.882 384.436 169.082 384.252L169.634 384.84C169.298 385.104 168.95 385.3 168.59 385.428C168.23 385.556 167.846 385.62 167.438 385.62ZM165.41 382.14H169.118C169.078 381.788 168.97 381.476 168.794 381.204C168.626 380.924 168.41 380.704 168.146 380.544C167.89 380.384 167.602 380.304 167.282 380.304C166.962 380.304 166.67 380.384 166.406 380.544C166.142 380.696 165.922 380.912 165.746 381.192C165.578 381.464 165.466 381.78 165.41 382.14ZM171.478 385.5V379.644H172.354V380.844C172.506 380.436 172.722 380.12 173.002 379.896C173.29 379.664 173.618 379.548 173.986 379.548C174.09 379.548 174.186 379.556 174.274 379.572C174.362 379.58 174.45 379.6 174.538 379.632V380.424C174.442 380.392 174.338 380.368 174.226 380.352C174.122 380.328 174.022 380.316 173.926 380.316C173.566 380.316 173.25 380.42 172.978 380.628C172.714 380.836 172.506 381.128 172.354 381.504V385.5H171.478ZM178.21 385.5V384.864L181.57 381.192C181.834 380.904 182.038 380.652 182.182 380.436C182.334 380.212 182.438 380.004 182.494 379.812C182.558 379.62 182.59 379.416 182.59 379.2C182.59 378.776 182.422 378.428 182.086 378.156C181.758 377.876 181.338 377.736 180.826 377.736C180.434 377.736 180.07 377.812 179.734 377.964C179.398 378.116 179.022 378.38 178.606 378.756L178.102 378.156C178.542 377.756 178.986 377.46 179.434 377.268C179.882 377.068 180.35 376.968 180.838 376.968C181.342 376.968 181.79 377.064 182.182 377.256C182.574 377.44 182.882 377.696 183.106 378.024C183.33 378.352 183.442 378.728 183.442 379.152C183.442 379.432 183.406 379.692 183.334 379.932C183.262 380.164 183.134 380.416 182.95 380.688C182.766 380.952 182.502 381.272 182.158 381.648L179.29 384.756L183.622 384.744V385.5H178.21Z" fill="#151515"/>
<path d="M199.274 377.709C199.554 377.43 200.006 377.43 200.285 377.709L200.791 378.215C201.07 378.494 201.07 378.946 200.791 379.225L198.517 381.5L200.791 383.774C201.07 384.053 201.07 384.506 200.791 384.785L200.285 385.291C200.006 385.57 199.553 385.57 199.274 385.291L197 383.016L194.726 385.291C194.447 385.57 193.994 385.57 193.715 385.291L193.209 384.785C192.93 384.506 192.93 384.053 193.209 383.774L195.483 381.5L193.209 379.225C192.93 378.946 192.93 378.494 193.209 378.215L193.715 377.709C193.994 377.43 194.447 377.43 194.726 377.709L197 379.983L199.274 377.709Z" fill="#1F1F1F"/>
<path d="M217 381.5C217 374.32 222.82 368.5 230 368.5H278C285.18 368.5 291 374.32 291 381.5C291 388.68 285.18 394.5 278 394.5H230C222.82 394.5 217 388.68 217 381.5Z" fill="#E0E0E0"/>
<path d="M226.068 385.5V377.1H231.804V377.916H226.992V380.916H230.28V381.72H226.992V385.5H226.068ZM233.036 385.5V379.644H233.912V385.5H233.036ZM233.48 378.192C233.304 378.192 233.152 378.132 233.024 378.012C232.904 377.884 232.844 377.736 232.844 377.568C232.844 377.4 232.904 377.256 233.024 377.136C233.152 377.008 233.304 376.944 233.48 376.944C233.656 376.944 233.804 377.008 233.924 377.136C234.052 377.256 234.116 377.4 234.116 377.568C234.116 377.736 234.052 377.884 233.924 378.012C233.804 378.132 233.656 378.192 233.48 378.192ZM235.709 385.5V376.836L236.585 376.656V385.5H235.709ZM240.612 385.62C240.108 385.62 239.724 385.5 239.46 385.26C239.204 385.012 239.076 384.656 239.076 384.192V380.364H237.864V379.644H239.076V378.036L239.952 377.832V379.644H241.632V380.364H239.952V383.964C239.952 384.276 240.016 384.5 240.144 384.636C240.28 384.772 240.5 384.84 240.804 384.84C240.956 384.84 241.092 384.828 241.212 384.804C241.332 384.78 241.472 384.74 241.632 384.684V385.464C241.472 385.52 241.304 385.56 241.128 385.584C240.952 385.608 240.78 385.62 240.612 385.62ZM245.438 385.62C244.894 385.62 244.402 385.488 243.962 385.224C243.522 384.952 243.174 384.588 242.918 384.132C242.662 383.668 242.534 383.148 242.534 382.572C242.534 381.996 242.654 381.48 242.894 381.024C243.142 380.568 243.474 380.208 243.89 379.944C244.306 379.68 244.77 379.548 245.282 379.548C245.802 379.548 246.262 379.68 246.662 379.944C247.07 380.2 247.39 380.552 247.622 381C247.862 381.44 247.982 381.94 247.982 382.5V382.764H243.386C243.418 383.164 243.526 383.524 243.71 383.844C243.902 384.156 244.15 384.404 244.454 384.588C244.766 384.764 245.106 384.852 245.474 384.852C245.778 384.852 246.07 384.8 246.35 384.696C246.638 384.584 246.882 384.436 247.082 384.252L247.634 384.84C247.298 385.104 246.95 385.3 246.59 385.428C246.23 385.556 245.846 385.62 245.438 385.62ZM243.41 382.14H247.118C247.078 381.788 246.97 381.476 246.794 381.204C246.626 380.924 246.41 380.704 246.146 380.544C245.89 380.384 245.602 380.304 245.282 380.304C244.962 380.304 244.67 380.384 244.406 380.544C244.142 380.696 243.922 380.912 243.746 381.192C243.578 381.464 243.466 381.78 243.41 382.14ZM249.478 385.5V379.644H250.354V380.844C250.506 380.436 250.722 380.12 251.002 379.896C251.29 379.664 251.618 379.548 251.986 379.548C252.09 379.548 252.186 379.556 252.274 379.572C252.362 379.58 252.45 379.6 252.538 379.632V380.424C252.442 380.392 252.338 380.368 252.226 380.352C252.122 380.328 252.022 380.316 251.926 380.316C251.566 380.316 251.25 380.42 250.978 380.628C250.714 380.836 250.506 381.128 250.354 381.504V385.5H249.478ZM258.982 385.632C258.406 385.632 257.866 385.532 257.362 385.332C256.866 385.132 256.426 384.836 256.042 384.444L256.618 383.88C256.97 384.232 257.33 384.488 257.698 384.648C258.074 384.8 258.498 384.876 258.97 384.876C259.378 384.876 259.738 384.804 260.05 384.66C260.37 384.516 260.618 384.316 260.794 384.06C260.97 383.804 261.058 383.512 261.058 383.184C261.058 382.872 260.978 382.596 260.818 382.356C260.666 382.108 260.454 381.916 260.182 381.78C259.91 381.644 259.598 381.576 259.246 381.576H258.25V380.832H259.21C259.666 380.832 260.034 380.692 260.314 380.412C260.602 380.132 260.746 379.768 260.746 379.32C260.746 379.024 260.666 378.756 260.506 378.516C260.346 378.276 260.126 378.088 259.846 377.952C259.574 377.808 259.266 377.736 258.922 377.736C258.49 377.736 258.102 377.816 257.758 377.976C257.422 378.128 257.078 378.388 256.726 378.756L256.15 378.18C256.526 377.78 256.95 377.48 257.422 377.28C257.894 377.072 258.398 376.968 258.934 376.968C259.446 376.968 259.902 377.068 260.302 377.268C260.71 377.468 261.03 377.744 261.262 378.096C261.494 378.44 261.61 378.832 261.61 379.272C261.61 379.712 261.466 380.108 261.178 380.46C260.89 380.804 260.51 381.044 260.038 381.18C260.606 381.308 261.062 381.556 261.406 381.924C261.75 382.292 261.922 382.72 261.922 383.208C261.922 383.672 261.794 384.088 261.538 384.456C261.29 384.824 260.942 385.112 260.494 385.32C260.054 385.528 259.55 385.632 258.982 385.632Z" fill="#151515"/>
<path d="M277.274 377.709C277.554 377.43 278.006 377.43 278.285 377.709L278.791 378.215C279.07 378.494 279.07 378.946 278.791 379.225L276.517 381.5L278.791 383.774C279.07 384.053 279.07 384.506 278.791 384.785L278.285 385.291C278.006 385.57 277.553 385.57 277.274 385.291L275 383.016L272.726 385.291C272.447 385.57 271.994 385.57 271.715 385.291L271.209 384.785C270.93 384.506 270.93 384.053 271.209 383.774L273.483 381.5L271.209 379.225C270.93 378.946 270.93 378.494 271.209 378.215L271.715 377.709C271.994 377.43 272.447 377.43 272.726 377.709L275 379.983L277.274 377.709Z" fill="#1F1F1F"/>
<path d="M328.768 386.154C328.068 386.154 327.415 386.028 326.808 385.776C326.211 385.515 325.683 385.155 325.226 384.698C324.769 384.231 324.414 383.695 324.162 383.088C323.91 382.472 323.784 381.809 323.784 381.1C323.784 380.391 323.91 379.733 324.162 379.126C324.414 378.51 324.769 377.973 325.226 377.516C325.683 377.049 326.211 376.69 326.808 376.438C327.415 376.177 328.068 376.046 328.768 376.046C329.253 376.046 329.715 376.111 330.154 376.242C330.602 376.363 331.022 376.545 331.414 376.788C331.806 377.021 332.156 377.311 332.464 377.656L331.75 378.398C331.386 377.959 330.938 377.623 330.406 377.39C329.883 377.147 329.337 377.026 328.768 377.026C328.217 377.026 327.704 377.129 327.228 377.334C326.752 377.539 326.337 377.829 325.982 378.202C325.637 378.575 325.366 379.009 325.17 379.504C324.974 379.989 324.876 380.521 324.876 381.1C324.876 381.669 324.974 382.201 325.17 382.696C325.366 383.191 325.637 383.625 325.982 383.998C326.337 384.371 326.752 384.661 327.228 384.866C327.704 385.071 328.217 385.174 328.768 385.174C329.337 385.174 329.883 385.053 330.406 384.81C330.938 384.567 331.386 384.231 331.75 383.802L332.464 384.544C332.156 384.889 331.806 385.183 331.414 385.426C331.022 385.659 330.602 385.841 330.154 385.972C329.715 386.093 329.253 386.154 328.768 386.154ZM334.208 386V375.892L335.23 375.682V386H334.208ZM340.405 386.14C339.771 386.14 339.197 385.986 338.683 385.678C338.17 385.361 337.764 384.936 337.465 384.404C337.167 383.863 337.017 383.256 337.017 382.584C337.017 381.912 337.157 381.31 337.437 380.778C337.727 380.246 338.114 379.826 338.599 379.518C339.085 379.21 339.626 379.056 340.223 379.056C340.83 379.056 341.367 379.21 341.833 379.518C342.309 379.817 342.683 380.227 342.953 380.75C343.233 381.263 343.373 381.847 343.373 382.5V382.808H338.011C338.049 383.275 338.175 383.695 338.389 384.068C338.613 384.432 338.903 384.721 339.257 384.936C339.621 385.141 340.018 385.244 340.447 385.244C340.802 385.244 341.143 385.183 341.469 385.062C341.805 384.931 342.09 384.759 342.323 384.544L342.967 385.23C342.575 385.538 342.169 385.767 341.749 385.916C341.329 386.065 340.881 386.14 340.405 386.14ZM338.039 382.08H342.365C342.319 381.669 342.193 381.305 341.987 380.988C341.791 380.661 341.539 380.405 341.231 380.218C340.933 380.031 340.597 379.938 340.223 379.938C339.85 379.938 339.509 380.031 339.201 380.218C338.893 380.395 338.637 380.647 338.431 380.974C338.235 381.291 338.105 381.66 338.039 382.08ZM347.096 386.126C346.61 386.126 346.181 386.037 345.808 385.86C345.434 385.683 345.14 385.44 344.926 385.132C344.72 384.815 344.618 384.451 344.618 384.04C344.618 383.629 344.725 383.275 344.94 382.976C345.154 382.668 345.453 382.43 345.836 382.262C346.218 382.094 346.666 382.01 347.18 382.01C347.572 382.01 347.94 382.052 348.286 382.136C348.64 382.22 348.967 382.355 349.266 382.542V381.604C349.266 381.044 349.116 380.624 348.818 380.344C348.519 380.055 348.08 379.91 347.502 379.91C347.184 379.91 346.858 379.957 346.522 380.05C346.195 380.143 345.831 380.293 345.43 380.498L345.052 379.714C345.966 379.275 346.825 379.056 347.628 379.056C348.477 379.056 349.13 379.266 349.588 379.686C350.045 380.097 350.274 380.689 350.274 381.464V386H349.266V385.202C348.967 385.51 348.636 385.743 348.272 385.902C347.908 386.051 347.516 386.126 347.096 386.126ZM345.598 384.012C345.598 384.413 345.752 384.735 346.06 384.978C346.377 385.221 346.792 385.342 347.306 385.342C347.688 385.342 348.038 385.277 348.356 385.146C348.682 385.015 348.986 384.819 349.266 384.558V383.242C348.976 383.074 348.678 382.953 348.37 382.878C348.062 382.794 347.716 382.752 347.334 382.752C346.811 382.752 346.391 382.869 346.074 383.102C345.756 383.326 345.598 383.629 345.598 384.012ZM352.351 386V379.168H353.373V380.568C353.55 380.092 353.802 379.723 354.129 379.462C354.465 379.191 354.847 379.056 355.277 379.056C355.398 379.056 355.51 379.065 355.613 379.084C355.715 379.093 355.818 379.117 355.921 379.154V380.078C355.809 380.041 355.687 380.013 355.557 379.994C355.435 379.966 355.319 379.952 355.207 379.952C354.787 379.952 354.418 380.073 354.101 380.316C353.793 380.559 353.55 380.899 353.373 381.338V386H352.351ZM361.408 386V380.008H359.882V379.168H361.408V377.74C361.408 377.068 361.586 376.55 361.94 376.186C362.295 375.822 362.799 375.64 363.452 375.64C363.639 375.64 363.807 375.649 363.956 375.668C364.115 375.687 364.255 375.719 364.376 375.766V376.69C364.227 376.643 364.092 376.611 363.97 376.592C363.849 376.573 363.709 376.564 363.55 376.564C363.158 376.564 362.874 376.662 362.696 376.858C362.519 377.045 362.43 377.343 362.43 377.754V379.168H364.376V380.008H362.43V386H361.408ZM365.708 386V379.168H366.73V386H365.708ZM366.226 377.474C366.021 377.474 365.843 377.404 365.694 377.264C365.554 377.115 365.484 376.942 365.484 376.746C365.484 376.55 365.554 376.382 365.694 376.242C365.843 376.093 366.021 376.018 366.226 376.018C366.431 376.018 366.604 376.093 366.744 376.242C366.893 376.382 366.968 376.55 366.968 376.746C366.968 376.942 366.893 377.115 366.744 377.264C366.604 377.404 366.431 377.474 366.226 377.474ZM368.825 386V375.892L369.847 375.682V386H368.825ZM374.547 386.14C373.959 386.14 373.511 386 373.203 385.72C372.904 385.431 372.755 385.015 372.755 384.474V380.008H371.341V379.168H372.755V377.292L373.777 377.054V379.168H375.737V380.008H373.777V384.208C373.777 384.572 373.851 384.833 374.001 384.992C374.159 385.151 374.416 385.23 374.771 385.23C374.948 385.23 375.107 385.216 375.247 385.188C375.387 385.16 375.55 385.113 375.737 385.048V385.958C375.55 386.023 375.354 386.07 375.149 386.098C374.943 386.126 374.743 386.14 374.547 386.14ZM380.177 386.14C379.542 386.14 378.968 385.986 378.455 385.678C377.942 385.361 377.536 384.936 377.237 384.404C376.938 383.863 376.789 383.256 376.789 382.584C376.789 381.912 376.929 381.31 377.209 380.778C377.498 380.246 377.886 379.826 378.371 379.518C378.856 379.21 379.398 379.056 379.995 379.056C380.602 379.056 381.138 379.21 381.605 379.518C382.081 379.817 382.454 380.227 382.725 380.75C383.005 381.263 383.145 381.847 383.145 382.5V382.808H377.783C377.82 383.275 377.946 383.695 378.161 384.068C378.385 384.432 378.674 384.721 379.029 384.936C379.393 385.141 379.79 385.244 380.219 385.244C380.574 385.244 380.914 385.183 381.241 385.062C381.577 384.931 381.862 384.759 382.095 384.544L382.739 385.23C382.347 385.538 381.941 385.767 381.521 385.916C381.101 386.065 380.653 386.14 380.177 386.14ZM377.811 382.08H382.137C382.09 381.669 381.964 381.305 381.759 380.988C381.563 380.661 381.311 380.405 381.003 380.218C380.704 380.031 380.368 379.938 379.995 379.938C379.622 379.938 379.281 380.031 378.973 380.218C378.665 380.395 378.408 380.647 378.203 380.974C378.007 381.291 377.876 381.66 377.811 382.08ZM384.89 386V379.168H385.912V380.568C386.089 380.092 386.341 379.723 386.668 379.462C387.004 379.191 387.387 379.056 387.816 379.056C387.937 379.056 388.049 379.065 388.152 379.084C388.255 379.093 388.357 379.117 388.46 379.154V380.078C388.348 380.041 388.227 380.013 388.096 379.994C387.975 379.966 387.858 379.952 387.746 379.952C387.326 379.952 386.957 380.073 386.64 380.316C386.332 380.559 386.089 380.899 385.912 381.338V386H384.89ZM391.857 386.14C391.297 386.14 390.779 386.056 390.303 385.888C389.827 385.711 389.421 385.459 389.085 385.132L389.631 384.46C390.042 384.759 390.42 384.978 390.765 385.118C391.111 385.249 391.465 385.314 391.829 385.314C392.324 385.314 392.735 385.197 393.061 384.964C393.388 384.731 393.551 384.432 393.551 384.068C393.551 383.788 393.453 383.569 393.257 383.41C393.071 383.251 392.758 383.13 392.319 383.046L391.199 382.85C390.537 382.729 390.047 382.523 389.729 382.234C389.421 381.945 389.267 381.553 389.267 381.058C389.267 380.666 389.37 380.321 389.575 380.022C389.79 379.723 390.084 379.49 390.457 379.322C390.831 379.145 391.255 379.056 391.731 379.056C392.198 379.056 392.641 379.126 393.061 379.266C393.481 379.397 393.906 379.611 394.335 379.91L393.831 380.624C393.477 380.372 393.122 380.19 392.767 380.078C392.413 379.957 392.053 379.896 391.689 379.896C391.241 379.896 390.882 379.994 390.611 380.19C390.341 380.386 390.205 380.652 390.205 380.988C390.205 381.268 390.289 381.483 390.457 381.632C390.635 381.781 390.943 381.893 391.381 381.968L392.529 382.178C393.22 382.299 393.724 382.509 394.041 382.808C394.359 383.107 394.517 383.508 394.517 384.012C394.517 384.413 394.401 384.777 394.167 385.104C393.934 385.421 393.617 385.673 393.215 385.86C392.814 386.047 392.361 386.14 391.857 386.14Z" fill="#0066CC"/>
<mask id="path-66-inside-8_1818_24338" fill="white">
<path fill-rule="evenodd" clip-rule="evenodd" d="M195.465 286.195C194.131 285.425 192.465 286.387 192.465 287.927L192.465 301.934C192.465 303.474 194.131 304.436 195.465 303.666L199.105 301.565L200.743 304.402C201.295 305.359 202.518 305.687 203.475 305.134L205.278 304.093C206.235 303.541 206.562 302.318 206.01 301.361L204.372 298.524L207.595 296.663C208.928 295.893 208.928 293.968 207.595 293.198L195.465 286.195Z"/>
</mask>
<path fill-rule="evenodd" clip-rule="evenodd" d="M195.465 286.195C194.131 285.425 192.465 286.387 192.465 287.927L192.465 301.934C192.465 303.474 194.131 304.436 195.465 303.666L199.105 301.565L200.743 304.402C201.295 305.359 202.518 305.687 203.475 305.134L205.278 304.093C206.235 303.541 206.562 302.318 206.01 301.361L204.372 298.524L207.595 296.663C208.928 295.893 208.928 293.968 207.595 293.198L195.465 286.195Z" fill="#FF00FF"/>
<path d="M192.465 287.927L191.465 287.927L191.465 287.927L192.465 287.927ZM195.465 286.195L195.965 285.329L195.965 285.329L195.465 286.195ZM192.465 301.934L193.465 301.934L193.465 301.934L192.465 301.934ZM195.465 303.666L194.965 302.8L195.465 303.666ZM199.105 301.565L199.971 301.065L199.471 300.199L198.605 300.699L199.105 301.565ZM200.743 304.402L201.609 303.902L200.743 304.402ZM204.372 298.524L203.872 297.657L203.006 298.157L203.506 299.024L204.372 298.524ZM207.595 293.198L207.095 294.064L207.595 293.198ZM192.465 287.927L193.465 287.927C193.465 287.157 194.298 286.676 194.965 287.061L195.465 286.195L195.965 285.329C193.965 284.174 191.465 285.618 191.465 287.927L192.465 287.927ZM192.465 301.934L193.465 301.934L193.465 287.927L192.465 287.927L191.465 287.927L191.465 301.934H192.465ZM195.465 303.666L194.965 302.8C194.298 303.185 193.465 302.704 193.465 301.934L192.465 301.934L191.465 301.934C191.465 304.243 193.965 305.687 195.965 304.532L195.465 303.666ZM199.105 301.565L198.605 300.699L194.965 302.8L195.465 303.666L195.965 304.532L199.605 302.431L199.105 301.565ZM200.743 304.402L201.609 303.902L199.971 301.065L199.105 301.565L198.238 302.065L199.877 304.902L200.743 304.402ZM203.475 305.134L202.975 304.268C202.497 304.544 201.885 304.381 201.609 303.902L200.743 304.402L199.877 304.902C200.705 306.337 202.54 306.829 203.975 306L203.475 305.134ZM205.278 304.093L204.778 303.227L202.975 304.268L203.475 305.134L203.975 306L205.778 304.959L205.278 304.093ZM206.01 301.361L205.144 301.861C205.42 302.339 205.256 302.951 204.778 303.227L205.278 304.093L205.778 304.959C207.213 304.131 207.705 302.296 206.876 300.861L206.01 301.361ZM204.372 298.524L203.506 299.024L205.144 301.861L206.01 301.361L206.876 300.861L205.238 298.024L204.372 298.524ZM207.595 296.663L207.095 295.797L203.872 297.657L204.372 298.524L204.872 299.39L208.095 297.529L207.595 296.663ZM207.595 293.198L207.095 294.064C207.762 294.449 207.762 295.412 207.095 295.797L207.595 296.663L208.095 297.529C210.095 296.374 210.095 293.487 208.095 292.332L207.595 293.198ZM195.465 286.195L194.965 287.061L207.095 294.064L207.595 293.198L208.095 292.332L195.965 285.329L195.465 286.195Z" fill="#FF00FF" mask="url(#path-66-inside-8_1818_24338)"/>
<path fill-rule="evenodd" clip-rule="evenodd" d="M198.423 286.498C198.771 285.157 198.613 283.683 197.865 282.387C196.354 279.769 193.006 278.872 190.388 280.384C187.769 281.895 186.872 285.243 188.384 287.861C189.053 289.021 190.082 289.842 191.249 290.267L191.249 285.82C191.249 284.281 192.915 283.318 194.249 284.088L198.423 286.498Z" fill="#FF00FF" fill-opacity="0.4"/>
<path d="M185.973 288.551L183.866 289.768" stroke="#FF00FF" stroke-linecap="round"/>
<path d="M201.775 279.428L199.668 280.644" stroke="#FF00FF" stroke-linecap="round"/>
<path d="M187.955 276.17L189.171 278.277" stroke="#FF00FF" stroke-linecap="round"/>
<g filter="url(#filter0_d_1818_24338)">
<path d="M126 210C126 206.686 128.686 204 132 204H237C240.314 204 243 206.686 243 210V232C243 235.314 240.314 238 237 238H132C128.686 238 126 235.314 126 232V210Z" fill="#292929"/>
<path d="M156.991 225.132C156.335 225.132 155.727 225.016 155.167 224.784C154.607 224.544 154.067 224.184 153.547 223.704L154.111 223.032C154.615 223.504 155.087 223.84 155.527 224.04C155.975 224.24 156.471 224.34 157.015 224.34C157.447 224.34 157.831 224.268 158.167 224.124C158.511 223.972 158.779 223.768 158.971 223.512C159.163 223.256 159.259 222.964 159.259 222.636C159.259 222.212 159.119 221.892 158.839 221.676C158.559 221.452 158.075 221.28 157.387 221.16L156.031 220.932C155.263 220.796 154.699 220.564 154.339 220.236C153.987 219.9 153.811 219.452 153.811 218.892C153.811 218.42 153.931 218.004 154.171 217.644C154.419 217.276 154.759 216.988 155.191 216.78C155.623 216.572 156.123 216.468 156.691 216.468C157.315 216.468 157.895 216.556 158.431 216.732C158.967 216.9 159.495 217.168 160.015 217.536L159.535 218.256C159.103 217.928 158.647 217.68 158.167 217.512C157.687 217.336 157.199 217.248 156.703 217.248C156.311 217.248 155.963 217.316 155.659 217.452C155.363 217.588 155.127 217.772 154.951 218.004C154.783 218.236 154.699 218.5 154.699 218.796C154.699 219.164 154.823 219.452 155.071 219.66C155.319 219.868 155.723 220.016 156.283 220.104L157.627 220.332C158.523 220.492 159.171 220.752 159.571 221.112C159.979 221.464 160.183 221.956 160.183 222.588C160.183 223.076 160.043 223.512 159.763 223.896C159.491 224.28 159.115 224.584 158.635 224.808C158.155 225.024 157.607 225.132 156.991 225.132ZM161.588 225V216.336L162.464 216.156V220.092C162.688 219.74 162.956 219.48 163.268 219.312C163.58 219.136 163.932 219.048 164.324 219.048C164.748 219.048 165.116 219.14 165.428 219.324C165.748 219.5 165.996 219.752 166.172 220.08C166.356 220.4 166.448 220.776 166.448 221.208V225H165.572V221.46C165.572 220.94 165.428 220.532 165.14 220.236C164.86 219.932 164.48 219.78 164 219.78C163.68 219.78 163.388 219.856 163.124 220.008C162.86 220.16 162.64 220.384 162.464 220.68V225H161.588ZM170.801 225.096C170.257 225.096 169.769 224.964 169.337 224.7C168.905 224.436 168.565 224.076 168.317 223.62C168.069 223.164 167.945 222.648 167.945 222.072C167.945 221.496 168.069 220.98 168.317 220.524C168.565 220.068 168.905 219.708 169.337 219.444C169.769 219.18 170.257 219.048 170.801 219.048C171.337 219.048 171.817 219.18 172.241 219.444C172.673 219.708 173.013 220.068 173.261 220.524C173.509 220.98 173.633 221.496 173.633 222.072C173.633 222.648 173.509 223.164 173.261 223.62C173.013 224.076 172.673 224.436 172.241 224.7C171.817 224.964 171.337 225.096 170.801 225.096ZM170.789 224.328C171.173 224.328 171.513 224.232 171.809 224.04C172.105 223.84 172.337 223.568 172.505 223.224C172.681 222.88 172.769 222.496 172.769 222.072C172.769 221.64 172.681 221.256 172.505 220.92C172.337 220.576 172.105 220.308 171.809 220.116C171.513 219.916 171.173 219.816 170.789 219.816C170.405 219.816 170.065 219.916 169.769 220.116C169.473 220.308 169.237 220.576 169.061 220.92C168.893 221.256 168.809 221.64 168.809 222.072C168.809 222.496 168.893 222.88 169.061 223.224C169.237 223.568 169.473 223.84 169.769 224.04C170.065 224.232 170.405 224.328 170.789 224.328ZM176.096 225L174.488 219.144H175.34L176.564 223.824L177.968 219.144H178.748L180.152 223.824L181.364 219.144H182.192L180.596 225H179.744L178.352 220.272L176.96 225H176.096ZM186.976 225V219.864H185.668V219.144H186.976V217.92C186.976 217.344 187.128 216.9 187.432 216.588C187.736 216.276 188.168 216.12 188.728 216.12C188.888 216.12 189.032 216.128 189.16 216.144C189.296 216.16 189.416 216.188 189.52 216.228V217.02C189.392 216.98 189.276 216.952 189.172 216.936C189.068 216.92 188.948 216.912 188.812 216.912C188.476 216.912 188.232 216.996 188.08 217.164C187.928 217.324 187.852 217.58 187.852 217.932V219.144H189.52V219.864H187.852V225H186.976ZM190.661 225V219.144H191.537V225H190.661ZM191.105 217.692C190.929 217.692 190.777 217.632 190.649 217.512C190.529 217.384 190.469 217.236 190.469 217.068C190.469 216.9 190.529 216.756 190.649 216.636C190.777 216.508 190.929 216.444 191.105 216.444C191.281 216.444 191.429 216.508 191.549 216.636C191.677 216.756 191.741 216.9 191.741 217.068C191.741 217.236 191.677 217.384 191.549 217.512C191.429 217.632 191.281 217.692 191.105 217.692ZM193.334 225V216.336L194.21 216.156V225H193.334ZM198.237 225.12C197.733 225.12 197.349 225 197.085 224.76C196.829 224.512 196.701 224.156 196.701 223.692V219.864H195.489V219.144H196.701V217.536L197.577 217.332V219.144H199.257V219.864H197.577V223.464C197.577 223.776 197.641 224 197.769 224.136C197.905 224.272 198.125 224.34 198.429 224.34C198.581 224.34 198.717 224.328 198.837 224.304C198.957 224.28 199.097 224.24 199.257 224.184V224.964C199.097 225.02 198.929 225.06 198.753 225.084C198.577 225.108 198.405 225.12 198.237 225.12ZM203.063 225.12C202.519 225.12 202.027 224.988 201.587 224.724C201.147 224.452 200.799 224.088 200.543 223.632C200.287 223.168 200.159 222.648 200.159 222.072C200.159 221.496 200.279 220.98 200.519 220.524C200.767 220.068 201.099 219.708 201.515 219.444C201.931 219.18 202.395 219.048 202.907 219.048C203.427 219.048 203.887 219.18 204.287 219.444C204.695 219.7 205.015 220.052 205.247 220.5C205.487 220.94 205.607 221.44 205.607 222V222.264H201.011C201.043 222.664 201.151 223.024 201.335 223.344C201.527 223.656 201.775 223.904 202.079 224.088C202.391 224.264 202.731 224.352 203.099 224.352C203.403 224.352 203.695 224.3 203.975 224.196C204.263 224.084 204.507 223.936 204.707 223.752L205.259 224.34C204.923 224.604 204.575 224.8 204.215 224.928C203.855 225.056 203.471 225.12 203.063 225.12ZM201.035 221.64H204.743C204.703 221.288 204.595 220.976 204.419 220.704C204.251 220.424 204.035 220.204 203.771 220.044C203.515 219.884 203.227 219.804 202.907 219.804C202.587 219.804 202.295 219.884 202.031 220.044C201.767 220.196 201.547 220.412 201.371 220.692C201.203 220.964 201.091 221.28 201.035 221.64ZM207.103 225V219.144H207.979V220.344C208.131 219.936 208.347 219.62 208.627 219.396C208.915 219.164 209.243 219.048 209.611 219.048C209.715 219.048 209.811 219.056 209.899 219.072C209.987 219.08 210.075 219.1 210.163 219.132V219.924C210.067 219.892 209.963 219.868 209.851 219.852C209.747 219.828 209.647 219.816 209.551 219.816C209.191 219.816 208.875 219.92 208.603 220.128C208.339 220.336 208.131 220.628 207.979 221.004V225H207.103ZM213.075 225.12C212.595 225.12 212.151 225.048 211.743 224.904C211.335 224.752 210.987 224.536 210.699 224.256L211.167 223.68C211.519 223.936 211.843 224.124 212.139 224.244C212.435 224.356 212.739 224.412 213.051 224.412C213.475 224.412 213.827 224.312 214.107 224.112C214.387 223.912 214.527 223.656 214.527 223.344C214.527 223.104 214.443 222.916 214.275 222.78C214.115 222.644 213.847 222.54 213.471 222.468L212.511 222.3C211.943 222.196 211.523 222.02 211.251 221.772C210.987 221.524 210.855 221.188 210.855 220.764C210.855 220.428 210.943 220.132 211.119 219.876C211.303 219.62 211.555 219.42 211.875 219.276C212.195 219.124 212.559 219.048 212.967 219.048C213.367 219.048 213.747 219.108 214.107 219.228C214.467 219.34 214.831 219.524 215.199 219.78L214.767 220.392C214.463 220.176 214.159 220.02 213.855 219.924C213.551 219.82 213.243 219.768 212.931 219.768C212.547 219.768 212.239 219.852 212.007 220.02C211.775 220.188 211.659 220.416 211.659 220.704C211.659 220.944 211.731 221.128 211.875 221.256C212.027 221.384 212.291 221.48 212.667 221.544L213.651 221.724C214.243 221.828 214.675 222.008 214.947 222.264C215.219 222.52 215.355 222.864 215.355 223.296C215.355 223.64 215.255 223.952 215.055 224.232C214.855 224.504 214.583 224.72 214.239 224.88C213.895 225.04 213.507 225.12 213.075 225.12Z" fill="white"/>
<path d="M184.5 253L173.675 238H195.325L184.5 253Z" fill="#292929"/>
</g>
<defs>
<filter id="filter0_d_1818_24338" x="117" y="199" width="135" height="67" filterUnits="userSpaceOnUse" color-interpolation-filters="sRGB">
<feFlood flood-opacity="0" result="BackgroundImageFix"/>
<feColorMatrix in="SourceAlpha" type="matrix" values="0 0 0 0 0 0 0 0 0 0 0 0 0 0 0 0 0 0 127 0" result="hardAlpha"/>
<feOffset dy="4"/>
<feGaussianBlur stdDeviation="4.5"/>
<feColorMatrix type="matrix" values="0 0 0 0 0.160784 0 0 0 0 0.160784 0 0 0 0 0.160784 0 0 0 0.15 0"/>
<feBlend mode="normal" in2="BackgroundImageFix" result="effect1_dropShadow_1818_24338"/>
<feBlend mode="normal" in="SourceGraphic" in2="effect1_dropShadow_1818_24338" result="shape"/>
</filter>
</defs>
</svg>
