<svg width="199" height="85" viewBox="0 0 199 85" fill="none" xmlns="http://www.w3.org/2000/svg">
<rect width="199" height="85" fill="white"/>
<path d="M64.1875 36.667C64.9124 36.667 65.5 37.2546 65.5 37.9795V47.6045C65.4998 48.3292 64.9122 48.917 64.1875 48.917H52.8125C52.0877 48.917 51.5002 48.3292 51.5 47.6045V37.9795C51.5 37.2546 52.0876 36.667 52.8125 36.667H64.1875ZM53.25 40.167V47.167H57.625V40.167H53.25ZM59.375 40.167V47.167H63.75V40.167H59.375Z" fill="#1F1F1F"/>
<path d="M94.125 44.5C94.3312 44.5 94.5 44.6688 94.5 44.875V47.5H97.125C97.3312 47.5 97.5 47.6688 97.5 47.875V49.125C97.5 49.3312 97.3312 49.5 97.125 49.5H93.25C92.8344 49.5 92.5 49.1656 92.5 48.75V44.875C92.5 44.6688 92.6688 44.5 92.875 44.5H94.125ZM106.125 44.5C106.331 44.5 106.5 44.6688 106.5 44.875V48.75C106.5 49.1656 106.166 49.5 105.75 49.5H101.875C101.669 49.5 101.5 49.3312 101.5 49.125V47.875C101.5 47.6688 101.669 47.5 101.875 47.5H104.5V44.875C104.5 44.6688 104.669 44.5 104.875 44.5H106.125ZM97.125 35.5C97.3312 35.5 97.5 35.6688 97.5 35.875V37.125C97.5 37.3312 97.3312 37.5 97.125 37.5H94.5V40.125C94.5 40.3312 94.3312 40.5 94.125 40.5H92.875C92.6688 40.5 92.5 40.3312 92.5 40.125V36.25C92.5 35.8344 92.8344 35.5 93.25 35.5H97.125ZM105.75 35.5C106.166 35.5 106.5 35.8344 106.5 36.25V40.125C106.5 40.3312 106.331 40.5 106.125 40.5H104.875C104.669 40.5 104.5 40.3312 104.5 40.125V37.5H101.875C101.669 37.5 101.5 37.3312 101.5 37.125V35.875C101.5 35.6688 101.669 35.5 101.875 35.5H105.75Z" fill="#1F1F1F"/>
<path d="M139.247 35.6689C140.233 35.4487 141.296 35.4375 142.333 35.6689C142.488 35.7028 142.599 35.8419 142.599 35.9999V37.3857C143.229 37.6058 143.811 37.9413 144.316 38.3759L145.52 37.6816C145.656 37.6027 145.831 37.6314 145.938 37.747C146.636 38.5034 147.171 39.4122 147.484 40.4169C147.529 40.5693 147.467 40.7334 147.329 40.8124L146.125 41.5068C146.246 42.1615 146.246 42.8335 146.125 43.4882L147.329 44.1826C147.467 44.2616 147.529 44.425 147.487 44.58C147.174 45.5875 146.639 46.4964 145.941 47.2499C145.834 47.3684 145.662 47.3942 145.523 47.3154L144.319 46.621C143.811 47.0528 143.229 47.3883 142.601 47.6113V48.9999C142.601 49.158 142.491 49.2971 142.336 49.331C141.35 49.5512 140.287 49.5624 139.25 49.331C139.095 49.2971 138.984 49.158 138.984 48.9999V47.6113C138.354 47.3911 137.772 47.0556 137.267 46.621L136.062 47.3154C135.927 47.3942 135.752 47.3656 135.644 47.2499C134.947 46.4935 134.412 45.5847 134.099 44.58C134.053 44.4277 134.116 44.2645 134.255 44.1855L135.458 43.4911C135.336 42.8365 135.337 42.1644 135.458 41.5097L134.255 40.8144C134.116 40.7354 134.051 40.5722 134.099 40.4199C134.412 39.4123 134.947 38.5035 135.644 37.7499C135.752 37.6315 135.924 37.6057 136.062 37.6845L137.264 38.3788C137.772 37.9471 138.354 37.6116 138.981 37.3886V35.9999C138.981 35.8419 139.092 35.7028 139.247 35.6689ZM140.79 40.2392C139.544 40.2392 138.529 41.2523 138.529 42.497C138.529 43.7417 139.544 44.7548 140.79 44.7548C142.036 44.7548 143.051 43.7417 143.051 42.497C143.051 41.2523 142.036 40.2392 140.79 40.2392Z" fill="#1F1F1F"/>
</svg>
