<svg width="1088" height="160" viewBox="0 0 1088 160" fill="none" xmlns="http://www.w3.org/2000/svg">
<rect width="1088" height="160" fill="#F2F2F2"/>
<rect width="1008" height="69" transform="translate(40 67)" fill="white"/>
<mask id="path-1-inside-1_1824_24809" fill="white">
<path d="M56 89C56 85.6863 58.6863 83 62 83H104V120H62C58.6863 120 56 117.314 56 114V89Z"/>
</mask>
<path d="M56 89C56 85.6863 58.6863 83 62 83H104V120H62C58.6863 120 56 117.314 56 114V89Z" fill="white"/>
<path d="M104 83H105V82H104V83ZM104 120V121H105V120H104ZM62 83V84H104V83V82H62V83ZM104 83H103V120H104H105V83H104ZM104 120V119H62V120V121H104V120ZM56 114H57V89H56H55V114H56ZM62 120V119C59.2386 119 57 116.761 57 114H56H55C55 117.866 58.134 121 62 121V120ZM62 83V82C58.134 82 55 85.134 55 89H56H57C57 86.2386 59.2386 84 62 84V83Z" fill="#C7C7C7" mask="url(#path-1-inside-1_1824_24809)"/>
<mask id="path-3-inside-2_1824_24809" fill="white">
<path d="M72 97.5C72 95.2909 73.7909 93.5 76 93.5H84C86.2091 93.5 88 95.2909 88 97.5V105.5C88 107.709 86.2091 109.5 84 109.5H76C73.7909 109.5 72 107.709 72 105.5V97.5Z"/>
</mask>
<path d="M72 97.5C72 95.2909 73.7909 93.5 76 93.5H84C86.2091 93.5 88 95.2909 88 97.5V105.5C88 107.709 86.2091 109.5 84 109.5H76C73.7909 109.5 72 107.709 72 105.5V97.5Z" fill="white"/>
<path d="M76 93.5V94.5H84V93.5V92.5H76V93.5ZM88 97.5H87V105.5H88H89V97.5H88ZM84 109.5V108.5H76V109.5V110.5H84V109.5ZM72 105.5H73V97.5H72H71V105.5H72ZM76 109.5V108.5C74.3431 108.5 73 107.157 73 105.5H72H71C71 108.261 73.2386 110.5 76 110.5V109.5ZM88 105.5H87C87 107.157 85.6569 108.5 84 108.5V109.5V110.5C86.7614 110.5 89 108.261 89 105.5H88ZM84 93.5V94.5C85.6569 94.5 87 95.8431 87 97.5H88H89C89 94.7386 86.7614 92.5 84 92.5V93.5ZM76 93.5V92.5C73.2386 92.5 71 94.7386 71 97.5H72H73C73 95.8431 74.3431 94.5 76 94.5V93.5Z" fill="#C7C7C7" mask="url(#path-3-inside-2_1824_24809)"/>
<mask id="path-5-inside-3_1824_24809" fill="white">
<path d="M103 83H143C146.314 83 149 85.6863 149 89V114C149 117.314 146.314 120 143 120H103V83Z"/>
</mask>
<path d="M103 83H143C146.314 83 149 85.6863 149 89V114C149 117.314 146.314 120 143 120H103V83Z" fill="white"/>
<path d="M103 83V82H102V83H103ZM103 120H102V121H103V120ZM103 83V84H143V83V82H103V83ZM149 89H148V114H149H150V89H149ZM143 120V119H103V120V121H143V120ZM103 120H104V83H103H102V120H103ZM149 114H148C148 116.761 145.761 119 143 119V120V121C146.866 121 150 117.866 150 114H149ZM143 83V84C145.761 84 148 86.2386 148 89H149H150C150 85.134 146.866 82 143 82V83Z" fill="#C7C7C7" mask="url(#path-5-inside-3_1824_24809)"/>
<path d="M129.534 99.167C130.023 99.1673 130.267 99.7618 129.921 100.11L126.389 103.672C126.175 103.887 125.826 103.887 125.611 103.672L122.079 100.11C121.733 99.7618 121.977 99.1673 122.466 99.167H129.534Z" fill="#1F1F1F"/>
<mask id="path-8-inside-4_1824_24809" fill="white">
<path d="M165 89C165 85.6863 167.686 83 171 83H258C261.314 83 264 85.6863 264 89V114C264 117.314 261.314 120 258 120H171C167.686 120 165 117.314 165 114V89Z"/>
</mask>
<path d="M165 89C165 85.6863 167.686 83 171 83H258C261.314 83 264 85.6863 264 89V114C264 117.314 261.314 120 258 120H171C167.686 120 165 117.314 165 114V89Z" fill="white"/>
<path d="M171 83V84H258V83V82H171V83ZM264 89H263V114H264H265V89H264ZM258 120V119H171V120V121H258V120ZM165 114H166V89H165H164V114H165ZM171 120V119C168.239 119 166 116.761 166 114H165H164C164 117.866 167.134 121 171 121V120ZM264 114H263C263 116.761 260.761 119 258 119V120V121C261.866 121 265 117.866 265 114H264ZM258 83V84C260.761 84 263 86.2386 263 89H264H265C265 85.134 261.866 82 258 82V83ZM171 83V82C167.134 82 164 85.134 164 89H165H166C166 86.2386 168.239 84 171 84V83Z" fill="#C7C7C7" mask="url(#path-8-inside-4_1824_24809)"/>
<path d="M182.246 106V96.2H183.366L189.106 104.32L189.078 96.2H190.1V106H189.12L183.24 97.698L183.268 106H182.246ZM194.377 106.126C193.892 106.126 193.462 106.037 193.089 105.86C192.716 105.683 192.422 105.44 192.207 105.132C192.002 104.815 191.899 104.451 191.899 104.04C191.899 103.629 192.006 103.275 192.221 102.976C192.436 102.668 192.734 102.43 193.117 102.262C193.5 102.094 193.948 102.01 194.461 102.01C194.853 102.01 195.222 102.052 195.567 102.136C195.922 102.22 196.248 102.355 196.547 102.542V101.604C196.547 101.044 196.398 100.624 196.099 100.344C195.8 100.055 195.362 99.91 194.783 99.91C194.466 99.91 194.139 99.9567 193.803 100.05C193.476 100.143 193.112 100.293 192.711 100.498L192.333 99.714C193.248 99.2753 194.106 99.056 194.909 99.056C195.758 99.056 196.412 99.266 196.869 99.686C197.326 100.097 197.555 100.689 197.555 101.464V106H196.547V105.202C196.248 105.51 195.917 105.743 195.553 105.902C195.189 106.051 194.797 106.126 194.377 106.126ZM192.879 104.012C192.879 104.413 193.033 104.735 193.341 104.978C193.658 105.221 194.074 105.342 194.587 105.342C194.97 105.342 195.32 105.277 195.637 105.146C195.964 105.015 196.267 104.819 196.547 104.558V103.242C196.258 103.074 195.959 102.953 195.651 102.878C195.343 102.794 194.998 102.752 194.615 102.752C194.092 102.752 193.672 102.869 193.355 103.102C193.038 103.326 192.879 103.629 192.879 104.012ZM199.632 106V99.168H200.654V100.232C200.915 99.84 201.214 99.546 201.55 99.35C201.886 99.154 202.264 99.056 202.684 99.056C203.169 99.056 203.594 99.1773 203.958 99.42C204.322 99.6533 204.597 99.9753 204.784 100.386C205.055 99.9473 205.377 99.616 205.75 99.392C206.133 99.168 206.571 99.056 207.066 99.056C207.523 99.056 207.925 99.1633 208.27 99.378C208.625 99.5927 208.9 99.8913 209.096 100.274C209.292 100.647 209.39 101.086 209.39 101.59V106H208.368V101.842C208.368 101.245 208.219 100.773 207.92 100.428C207.621 100.083 207.211 99.91 206.688 99.91C206.333 99.91 206.011 99.9987 205.722 100.176C205.442 100.353 205.195 100.624 204.98 100.988C204.999 101.081 205.013 101.179 205.022 101.282C205.031 101.385 205.036 101.487 205.036 101.59V106H204.014V101.842C204.014 101.245 203.86 100.773 203.552 100.428C203.253 100.083 202.843 99.91 202.32 99.91C201.62 99.91 201.065 100.246 200.654 100.918V106H199.632ZM214.538 106.14C213.904 106.14 213.33 105.986 212.816 105.678C212.303 105.361 211.897 104.936 211.598 104.404C211.3 103.863 211.15 103.256 211.15 102.584C211.15 101.912 211.29 101.31 211.57 100.778C211.86 100.246 212.247 99.826 212.732 99.518C213.218 99.21 213.759 99.056 214.356 99.056C214.963 99.056 215.5 99.21 215.966 99.518C216.442 99.8167 216.816 100.227 217.086 100.75C217.366 101.263 217.506 101.847 217.506 102.5V102.808H212.144C212.182 103.275 212.308 103.695 212.522 104.068C212.746 104.432 213.036 104.721 213.39 104.936C213.754 105.141 214.151 105.244 214.58 105.244C214.935 105.244 215.276 105.183 215.602 105.062C215.938 104.931 216.223 104.759 216.456 104.544L217.1 105.23C216.708 105.538 216.302 105.767 215.882 105.916C215.462 106.065 215.014 106.14 214.538 106.14ZM212.172 102.08H216.498C216.452 101.669 216.326 101.305 216.12 100.988C215.924 100.661 215.672 100.405 215.364 100.218C215.066 100.031 214.73 99.938 214.356 99.938C213.983 99.938 213.642 100.031 213.334 100.218C213.026 100.395 212.77 100.647 212.564 100.974C212.368 101.291 212.238 101.66 212.172 102.08Z" fill="#151515"/>
<path d="M241.534 99.667C242.023 99.6672 242.267 100.262 241.921 100.61L238.389 104.172C238.174 104.387 237.825 104.387 237.611 104.172L234.079 100.61C233.733 100.262 233.978 99.667 234.467 99.667H241.534Z" fill="#1F1F1F"/>
<path d="M286 83.5H479C482.038 83.5 484.5 85.9624 484.5 89V114C484.5 117.038 482.038 119.5 479 119.5H286C282.962 119.5 280.5 117.038 280.5 114V89C280.5 85.9624 282.962 83.5 286 83.5Z" fill="white"/>
<path d="M286 83.5H479C482.038 83.5 484.5 85.9624 484.5 89V114C484.5 117.038 482.038 119.5 479 119.5H286C282.962 119.5 280.5 117.038 280.5 114V89C280.5 85.9624 282.962 83.5 286 83.5Z" stroke="#C7C7C7"/>
<path d="M297.688 95C300.829 95 303.375 97.5457 303.375 100.688C303.375 102.008 302.927 103.222 302.172 104.188H302.617C302.792 104.188 302.959 104.256 303.082 104.379L305.809 107.105C306.063 107.363 306.063 107.778 305.806 108.035L305.032 108.809C304.778 109.066 304.363 109.065 304.105 108.809L301.379 106.082C301.256 105.959 301.188 105.792 301.188 105.617V105.172C300.222 105.927 299.008 106.375 297.688 106.375C294.546 106.375 292 103.829 292 100.688C292 97.5457 294.546 95 297.688 95ZM297.688 97.1875C295.752 97.1875 294.188 98.7543 294.188 100.688C294.188 102.623 295.754 104.188 297.688 104.188C299.623 104.187 301.187 102.621 301.188 100.688C301.188 98.7516 299.621 97.1875 297.688 97.1875Z" fill="#1F1F1F"/>
<path d="M318.246 106V96.2H324.938V97.152H319.324V100.652H323.16V101.59H319.324V106H318.246ZM326.376 106V99.168H327.398V106H326.376ZM326.894 97.474C326.689 97.474 326.511 97.404 326.362 97.264C326.222 97.1147 326.152 96.942 326.152 96.746C326.152 96.55 326.222 96.382 326.362 96.242C326.511 96.0927 326.689 96.018 326.894 96.018C327.099 96.018 327.272 96.0927 327.412 96.242C327.561 96.382 327.636 96.55 327.636 96.746C327.636 96.942 327.561 97.1147 327.412 97.264C327.272 97.404 327.099 97.474 326.894 97.474ZM329.493 106V99.168H330.515V100.274C330.777 99.8633 331.089 99.56 331.453 99.364C331.817 99.1587 332.228 99.056 332.685 99.056C333.18 99.056 333.609 99.1633 333.973 99.378C334.347 99.5833 334.636 99.8773 334.841 100.26C335.056 100.633 335.163 101.072 335.163 101.576V106H334.141V101.87C334.141 101.263 333.973 100.787 333.637 100.442C333.311 100.087 332.867 99.91 332.307 99.91C331.934 99.91 331.593 99.9987 331.285 100.176C330.977 100.353 330.721 100.615 330.515 100.96V106H329.493ZM340.06 106.098C339.472 106.098 338.94 105.944 338.464 105.636C337.988 105.319 337.61 104.899 337.33 104.376C337.05 103.844 336.91 103.251 336.91 102.598C336.91 101.935 337.05 101.343 337.33 100.82C337.619 100.288 338.007 99.868 338.492 99.56C338.977 99.2427 339.519 99.084 340.116 99.084C340.536 99.084 340.928 99.168 341.292 99.336C341.656 99.4947 341.973 99.728 342.244 100.036V95.892L343.266 95.682V106H342.244V105.09C341.983 105.417 341.665 105.669 341.292 105.846C340.919 106.014 340.508 106.098 340.06 106.098ZM340.312 105.202C340.713 105.202 341.082 105.123 341.418 104.964C341.754 104.805 342.029 104.581 342.244 104.292V100.904C342.02 100.615 341.735 100.391 341.39 100.232C341.054 100.064 340.695 99.98 340.312 99.98C339.855 99.98 339.444 100.092 339.08 100.316C338.725 100.54 338.441 100.848 338.226 101.24C338.021 101.632 337.918 102.08 337.918 102.584C337.918 103.079 338.021 103.527 338.226 103.928C338.441 104.32 338.725 104.633 339.08 104.866C339.444 105.09 339.855 105.202 340.312 105.202ZM348.634 106V95.99L349.656 95.78V100.106C349.917 99.7793 350.235 99.5273 350.608 99.35C350.981 99.1727 351.397 99.084 351.854 99.084C352.451 99.084 352.983 99.2427 353.45 99.56C353.926 99.868 354.304 100.288 354.584 100.82C354.864 101.343 355.004 101.931 355.004 102.584C355.004 103.237 354.859 103.83 354.57 104.362C354.29 104.894 353.907 105.319 353.422 105.636C352.946 105.944 352.405 106.098 351.798 106.098C351.369 106.098 350.967 106.014 350.594 105.846C350.23 105.669 349.913 105.421 349.642 105.104V106H348.634ZM351.602 105.216C352.059 105.216 352.465 105.104 352.82 104.88C353.184 104.647 353.469 104.334 353.674 103.942C353.889 103.541 353.996 103.093 353.996 102.598C353.996 102.094 353.889 101.646 353.674 101.254C353.469 100.862 353.184 100.554 352.82 100.33C352.465 100.097 352.059 99.98 351.602 99.98C351.201 99.98 350.827 100.064 350.482 100.232C350.146 100.391 349.871 100.619 349.656 100.918V104.264C349.88 104.563 350.16 104.796 350.496 104.964C350.841 105.132 351.21 105.216 351.602 105.216ZM356.885 109.066C356.67 109.066 356.451 109.033 356.227 108.968V108.058C356.32 108.077 356.418 108.091 356.521 108.1C356.624 108.109 356.712 108.114 356.787 108.114C357.048 108.114 357.263 108.044 357.431 107.904C357.608 107.764 357.758 107.545 357.879 107.246L358.383 106L355.751 99.168H356.885L358.957 104.782L361.155 99.168H362.289L358.845 107.554C358.696 107.918 358.532 108.212 358.355 108.436C358.178 108.66 357.972 108.819 357.739 108.912C357.506 109.015 357.221 109.066 356.885 109.066ZM366.831 106V99.168H367.853V100.274C368.115 99.8633 368.427 99.56 368.791 99.364C369.155 99.1587 369.566 99.056 370.023 99.056C370.518 99.056 370.947 99.1633 371.311 99.378C371.685 99.5833 371.974 99.8773 372.179 100.26C372.394 100.633 372.501 101.072 372.501 101.576V106H371.479V101.87C371.479 101.263 371.311 100.787 370.975 100.442C370.649 100.087 370.205 99.91 369.645 99.91C369.272 99.91 368.931 99.9987 368.623 100.176C368.315 100.353 368.059 100.615 367.853 100.96V106H366.831ZM376.67 106.126C376.185 106.126 375.755 106.037 375.382 105.86C375.009 105.683 374.715 105.44 374.5 105.132C374.295 104.815 374.192 104.451 374.192 104.04C374.192 103.629 374.299 103.275 374.514 102.976C374.729 102.668 375.027 102.43 375.41 102.262C375.793 102.094 376.241 102.01 376.754 102.01C377.146 102.01 377.515 102.052 377.86 102.136C378.215 102.22 378.541 102.355 378.84 102.542V101.604C378.84 101.044 378.691 100.624 378.392 100.344C378.093 100.055 377.655 99.91 377.076 99.91C376.759 99.91 376.432 99.9567 376.096 100.05C375.769 100.143 375.405 100.293 375.004 100.498L374.626 99.714C375.541 99.2753 376.399 99.056 377.202 99.056C378.051 99.056 378.705 99.266 379.162 99.686C379.619 100.097 379.848 100.689 379.848 101.464V106H378.84V105.202C378.541 105.51 378.21 105.743 377.846 105.902C377.482 106.051 377.09 106.126 376.67 106.126ZM375.172 104.012C375.172 104.413 375.326 104.735 375.634 104.978C375.951 105.221 376.367 105.342 376.88 105.342C377.263 105.342 377.613 105.277 377.93 105.146C378.257 105.015 378.56 104.819 378.84 104.558V103.242C378.551 103.074 378.252 102.953 377.944 102.878C377.636 102.794 377.291 102.752 376.908 102.752C376.385 102.752 375.965 102.869 375.648 103.102C375.331 103.326 375.172 103.629 375.172 104.012ZM381.925 106V99.168H382.947V100.232C383.208 99.84 383.507 99.546 383.843 99.35C384.179 99.154 384.557 99.056 384.977 99.056C385.462 99.056 385.887 99.1773 386.251 99.42C386.615 99.6533 386.89 99.9753 387.077 100.386C387.348 99.9473 387.67 99.616 388.043 99.392C388.426 99.168 388.864 99.056 389.359 99.056C389.816 99.056 390.218 99.1633 390.563 99.378C390.918 99.5927 391.193 99.8913 391.389 100.274C391.585 100.647 391.683 101.086 391.683 101.59V106H390.661V101.842C390.661 101.245 390.512 100.773 390.213 100.428C389.914 100.083 389.504 99.91 388.981 99.91C388.626 99.91 388.304 99.9987 388.015 100.176C387.735 100.353 387.488 100.624 387.273 100.988C387.292 101.081 387.306 101.179 387.315 101.282C387.324 101.385 387.329 101.487 387.329 101.59V106H386.307V101.842C386.307 101.245 386.153 100.773 385.845 100.428C385.546 100.083 385.136 99.91 384.613 99.91C383.913 99.91 383.358 100.246 382.947 100.918V106H381.925ZM396.831 106.14C396.197 106.14 395.623 105.986 395.109 105.678C394.596 105.361 394.19 104.936 393.891 104.404C393.593 103.863 393.443 103.256 393.443 102.584C393.443 101.912 393.583 101.31 393.863 100.778C394.153 100.246 394.54 99.826 395.025 99.518C395.511 99.21 396.052 99.056 396.649 99.056C397.256 99.056 397.793 99.21 398.259 99.518C398.735 99.8167 399.109 100.227 399.379 100.75C399.659 101.263 399.799 101.847 399.799 102.5V102.808H394.437C394.475 103.275 394.601 103.695 394.815 104.068C395.039 104.432 395.329 104.721 395.683 104.936C396.047 105.141 396.444 105.244 396.873 105.244C397.228 105.244 397.569 105.183 397.895 105.062C398.231 104.931 398.516 104.759 398.749 104.544L399.393 105.23C399.001 105.538 398.595 105.767 398.175 105.916C397.755 106.065 397.307 106.14 396.831 106.14ZM394.465 102.08H398.791C398.745 101.669 398.619 101.305 398.413 100.988C398.217 100.661 397.965 100.405 397.657 100.218C397.359 100.031 397.023 99.938 396.649 99.938C396.276 99.938 395.935 100.031 395.627 100.218C395.319 100.395 395.063 100.647 394.857 100.974C394.661 101.291 394.531 101.66 394.465 102.08Z" fill="#4D4D4D"/>
<path d="M501 101.5C501 91.2827 509.283 83 519.5 83H571.5C581.717 83 590 91.2827 590 101.5V101.5C590 111.717 581.717 120 571.5 120H519.5C509.283 120 501 111.717 501 101.5V101.5Z" fill="#0066CC"/>
<path d="M525.126 106L529.004 96.2H530.292L534.114 106H532.952L531.79 102.92H527.422L526.26 106H525.126ZM527.758 102.066H531.468L529.606 97.18L527.758 102.066ZM538.085 106.112C537.45 106.112 536.876 105.958 536.363 105.65C535.859 105.333 535.457 104.908 535.159 104.376C534.86 103.835 534.711 103.237 534.711 102.584C534.711 101.921 534.86 101.324 535.159 100.792C535.457 100.26 535.859 99.84 536.363 99.532C536.876 99.2147 537.45 99.056 538.085 99.056C538.589 99.056 539.069 99.1493 539.527 99.336C539.984 99.5227 540.381 99.784 540.717 100.12L540.059 100.834C539.816 100.563 539.522 100.353 539.177 100.204C538.831 100.055 538.481 99.98 538.127 99.98C537.679 99.98 537.273 100.097 536.909 100.33C536.554 100.563 536.269 100.876 536.055 101.268C535.84 101.66 535.733 102.099 535.733 102.584C535.733 103.069 535.84 103.508 536.055 103.9C536.269 104.292 536.554 104.605 536.909 104.838C537.273 105.071 537.679 105.188 538.127 105.188C538.481 105.188 538.831 105.113 539.177 104.964C539.522 104.805 539.816 104.595 540.059 104.334L540.717 105.048C540.381 105.384 539.984 105.645 539.527 105.832C539.069 106.019 538.589 106.112 538.085 106.112ZM544.883 106.14C544.295 106.14 543.847 106 543.539 105.72C543.24 105.431 543.091 105.015 543.091 104.474V100.008H541.677V99.168H543.091V97.292L544.113 97.054V99.168H546.073V100.008H544.113V104.208C544.113 104.572 544.187 104.833 544.337 104.992C544.495 105.151 544.752 105.23 545.107 105.23C545.284 105.23 545.443 105.216 545.583 105.188C545.723 105.16 545.886 105.113 546.073 105.048V105.958C545.886 106.023 545.69 106.07 545.485 106.098C545.279 106.126 545.079 106.14 544.883 106.14ZM547.556 106V99.168H548.578V106H547.556ZM548.074 97.474C547.868 97.474 547.691 97.404 547.542 97.264C547.402 97.1147 547.332 96.942 547.332 96.746C547.332 96.55 547.402 96.382 547.542 96.242C547.691 96.0927 547.868 96.018 548.074 96.018C548.279 96.018 548.452 96.0927 548.592 96.242C548.741 96.382 548.816 96.55 548.816 96.746C548.816 96.942 548.741 97.1147 548.592 97.264C548.452 97.404 548.279 97.474 548.074 97.474ZM553.697 106.112C553.062 106.112 552.493 105.958 551.989 105.65C551.485 105.342 551.088 104.922 550.799 104.39C550.51 103.858 550.365 103.256 550.365 102.584C550.365 101.912 550.51 101.31 550.799 100.778C551.088 100.246 551.485 99.826 551.989 99.518C552.493 99.21 553.062 99.056 553.697 99.056C554.322 99.056 554.882 99.21 555.377 99.518C555.881 99.826 556.278 100.246 556.567 100.778C556.856 101.31 557.001 101.912 557.001 102.584C557.001 103.256 556.856 103.858 556.567 104.39C556.278 104.922 555.881 105.342 555.377 105.65C554.882 105.958 554.322 106.112 553.697 106.112ZM553.683 105.216C554.131 105.216 554.528 105.104 554.873 104.88C555.218 104.647 555.489 104.329 555.685 103.928C555.89 103.527 555.993 103.079 555.993 102.584C555.993 102.08 555.89 101.632 555.685 101.24C555.489 100.839 555.218 100.526 554.873 100.302C554.528 100.069 554.131 99.952 553.683 99.952C553.235 99.952 552.838 100.069 552.493 100.302C552.148 100.526 551.872 100.839 551.667 101.24C551.471 101.632 551.373 102.08 551.373 102.584C551.373 103.079 551.471 103.527 551.667 103.928C551.872 104.329 552.148 104.647 552.493 104.88C552.838 105.104 553.235 105.216 553.683 105.216ZM558.794 106V99.168H559.816V100.274C560.077 99.8633 560.39 99.56 560.754 99.364C561.118 99.1587 561.529 99.056 561.986 99.056C562.481 99.056 562.91 99.1633 563.274 99.378C563.647 99.5833 563.937 99.8773 564.142 100.26C564.357 100.633 564.464 101.072 564.464 101.576V106H563.442V101.87C563.442 101.263 563.274 100.787 562.938 100.442C562.611 100.087 562.168 99.91 561.608 99.91C561.235 99.91 560.894 99.9987 560.586 100.176C560.278 100.353 560.021 100.615 559.816 100.96V106H558.794Z" fill="white"/>
<mask id="path-17-inside-5_1824_24809" fill="white">
<path d="M598 101.5C598 91.2827 606.283 83 616.5 83H668.5C678.717 83 687 91.2827 687 101.5V101.5C687 111.717 678.717 120 668.5 120H616.5C606.283 120 598 111.717 598 101.5V101.5Z"/>
</mask>
<path d="M616.5 83V84H668.5V83V82H616.5V83ZM668.5 120V119H616.5V120V121H668.5V120ZM616.5 120V119C606.835 119 599 111.165 599 101.5H598H597C597 112.27 605.73 121 616.5 121V120ZM687 101.5H686C686 111.165 678.165 119 668.5 119V120V121C679.27 121 688 112.27 688 101.5H687ZM668.5 83V84C678.165 84 686 91.835 686 101.5H687H688C688 90.7304 679.27 82 668.5 82V83ZM616.5 83V82C605.73 82 597 90.7304 597 101.5H598H599C599 91.835 606.835 84 616.5 84V83Z" fill="#0066CC" mask="url(#path-17-inside-5_1824_24809)"/>
<path d="M622.126 106L626.004 96.2H627.292L631.114 106H629.952L628.79 102.92H624.422L623.26 106H622.126ZM624.758 102.066H628.468L626.606 97.18L624.758 102.066ZM635.085 106.112C634.45 106.112 633.876 105.958 633.363 105.65C632.859 105.333 632.457 104.908 632.159 104.376C631.86 103.835 631.711 103.237 631.711 102.584C631.711 101.921 631.86 101.324 632.159 100.792C632.457 100.26 632.859 99.84 633.363 99.532C633.876 99.2147 634.45 99.056 635.085 99.056C635.589 99.056 636.069 99.1493 636.527 99.336C636.984 99.5227 637.381 99.784 637.717 100.12L637.059 100.834C636.816 100.563 636.522 100.353 636.177 100.204C635.831 100.055 635.481 99.98 635.127 99.98C634.679 99.98 634.273 100.097 633.909 100.33C633.554 100.563 633.269 100.876 633.055 101.268C632.84 101.66 632.733 102.099 632.733 102.584C632.733 103.069 632.84 103.508 633.055 103.9C633.269 104.292 633.554 104.605 633.909 104.838C634.273 105.071 634.679 105.188 635.127 105.188C635.481 105.188 635.831 105.113 636.177 104.964C636.522 104.805 636.816 104.595 637.059 104.334L637.717 105.048C637.381 105.384 636.984 105.645 636.527 105.832C636.069 106.019 635.589 106.112 635.085 106.112ZM641.883 106.14C641.295 106.14 640.847 106 640.539 105.72C640.24 105.431 640.091 105.015 640.091 104.474V100.008H638.677V99.168H640.091V97.292L641.113 97.054V99.168H643.073V100.008H641.113V104.208C641.113 104.572 641.187 104.833 641.337 104.992C641.495 105.151 641.752 105.23 642.107 105.23C642.284 105.23 642.443 105.216 642.583 105.188C642.723 105.16 642.886 105.113 643.073 105.048V105.958C642.886 106.023 642.69 106.07 642.485 106.098C642.279 106.126 642.079 106.14 641.883 106.14ZM644.556 106V99.168H645.578V106H644.556ZM645.074 97.474C644.868 97.474 644.691 97.404 644.542 97.264C644.402 97.1147 644.332 96.942 644.332 96.746C644.332 96.55 644.402 96.382 644.542 96.242C644.691 96.0927 644.868 96.018 645.074 96.018C645.279 96.018 645.452 96.0927 645.592 96.242C645.741 96.382 645.816 96.55 645.816 96.746C645.816 96.942 645.741 97.1147 645.592 97.264C645.452 97.404 645.279 97.474 645.074 97.474ZM650.697 106.112C650.062 106.112 649.493 105.958 648.989 105.65C648.485 105.342 648.088 104.922 647.799 104.39C647.51 103.858 647.365 103.256 647.365 102.584C647.365 101.912 647.51 101.31 647.799 100.778C648.088 100.246 648.485 99.826 648.989 99.518C649.493 99.21 650.062 99.056 650.697 99.056C651.322 99.056 651.882 99.21 652.377 99.518C652.881 99.826 653.278 100.246 653.567 100.778C653.856 101.31 654.001 101.912 654.001 102.584C654.001 103.256 653.856 103.858 653.567 104.39C653.278 104.922 652.881 105.342 652.377 105.65C651.882 105.958 651.322 106.112 650.697 106.112ZM650.683 105.216C651.131 105.216 651.528 105.104 651.873 104.88C652.218 104.647 652.489 104.329 652.685 103.928C652.89 103.527 652.993 103.079 652.993 102.584C652.993 102.08 652.89 101.632 652.685 101.24C652.489 100.839 652.218 100.526 651.873 100.302C651.528 100.069 651.131 99.952 650.683 99.952C650.235 99.952 649.838 100.069 649.493 100.302C649.148 100.526 648.872 100.839 648.667 101.24C648.471 101.632 648.373 102.08 648.373 102.584C648.373 103.079 648.471 103.527 648.667 103.928C648.872 104.329 649.148 104.647 649.493 104.88C649.838 105.104 650.235 105.216 650.683 105.216ZM655.794 106V99.168H656.816V100.274C657.077 99.8633 657.39 99.56 657.754 99.364C658.118 99.1587 658.529 99.056 658.986 99.056C659.481 99.056 659.91 99.1633 660.274 99.378C660.647 99.5833 660.937 99.8773 661.142 100.26C661.357 100.633 661.464 101.072 661.464 101.576V106H660.442V101.87C660.442 101.263 660.274 100.787 659.938 100.442C659.611 100.087 659.168 99.91 658.608 99.91C658.235 99.91 657.894 99.9987 657.586 100.176C657.278 100.353 657.021 100.615 656.816 100.96V106H655.794Z" fill="#0066CC"/>
<path d="M718.292 104.436C719.42 104.436 720.333 105.344 720.333 106.468C720.333 107.591 719.42 108.5 718.292 108.5C717.163 108.5 716.25 107.591 716.25 106.468C716.25 105.344 717.163 104.436 718.292 104.436ZM718.292 99.4678C719.42 99.4679 720.333 100.377 720.333 101.5C720.333 102.623 719.42 103.532 718.292 103.532C717.163 103.532 716.25 102.623 716.25 101.5C716.25 100.377 717.163 99.4678 718.292 99.4678ZM718.292 94.5C719.42 94.5002 720.333 95.409 720.333 96.5322C720.333 97.6555 719.42 98.5643 718.292 98.5645C717.163 98.5645 716.25 97.6556 716.25 96.5322C716.25 95.4089 717.163 94.5 718.292 94.5Z" fill="#1F1F1F"/>
<path d="M943.142 106V97.292L941.574 97.992V97.068L943.52 96.2H944.15V106H943.142ZM949.913 106.154C949.166 106.154 948.504 105.939 947.925 105.51C947.356 105.081 946.908 104.488 946.581 103.732C946.254 102.967 946.091 102.089 946.091 101.1C946.091 100.101 946.254 99.224 946.581 98.468C946.908 97.712 947.356 97.1193 947.925 96.69C948.504 96.2607 949.166 96.046 949.913 96.046C950.66 96.046 951.318 96.2607 951.887 96.69C952.466 97.1193 952.918 97.712 953.245 98.468C953.572 99.224 953.735 100.101 953.735 101.1C953.735 102.089 953.572 102.967 953.245 103.732C952.918 104.488 952.466 105.081 951.887 105.51C951.318 105.939 950.66 106.154 949.913 106.154ZM949.913 105.244C950.482 105.244 950.972 105.076 951.383 104.74C951.803 104.395 952.13 103.914 952.363 103.298C952.596 102.673 952.713 101.94 952.713 101.1C952.713 100.26 952.596 99.532 952.363 98.916C952.13 98.2907 951.803 97.81 951.383 97.474C950.972 97.1287 950.482 96.956 949.913 96.956C949.353 96.956 948.863 97.1287 948.443 97.474C948.023 97.81 947.696 98.2907 947.463 98.916C947.23 99.532 947.113 100.26 947.113 101.1C947.113 101.94 947.23 102.673 947.463 103.298C947.696 103.914 948.023 104.395 948.443 104.74C948.863 105.076 949.353 105.244 949.913 105.244ZM961.877 106.112C961.242 106.112 960.673 105.958 960.169 105.65C959.665 105.342 959.268 104.922 958.979 104.39C958.689 103.858 958.545 103.256 958.545 102.584C958.545 101.912 958.689 101.31 958.979 100.778C959.268 100.246 959.665 99.826 960.169 99.518C960.673 99.21 961.242 99.056 961.877 99.056C962.502 99.056 963.062 99.21 963.557 99.518C964.061 99.826 964.457 100.246 964.747 100.778C965.036 101.31 965.181 101.912 965.181 102.584C965.181 103.256 965.036 103.858 964.747 104.39C964.457 104.922 964.061 105.342 963.557 105.65C963.062 105.958 962.502 106.112 961.877 106.112ZM961.863 105.216C962.311 105.216 962.707 105.104 963.053 104.88C963.398 104.647 963.669 104.329 963.865 103.928C964.07 103.527 964.173 103.079 964.173 102.584C964.173 102.08 964.07 101.632 963.865 101.24C963.669 100.839 963.398 100.526 963.053 100.302C962.707 100.069 962.311 99.952 961.863 99.952C961.415 99.952 961.018 100.069 960.673 100.302C960.327 100.526 960.052 100.839 959.847 101.24C959.651 101.632 959.553 102.08 959.553 102.584C959.553 103.079 959.651 103.527 959.847 103.928C960.052 104.329 960.327 104.647 960.673 104.88C961.018 105.104 961.415 105.216 961.863 105.216ZM967.418 106V100.008H965.892V99.168H967.418V97.74C967.418 97.068 967.595 96.55 967.95 96.186C968.305 95.822 968.809 95.64 969.462 95.64C969.649 95.64 969.817 95.6493 969.966 95.668C970.125 95.6867 970.265 95.7193 970.386 95.766V96.69C970.237 96.6433 970.101 96.6107 969.98 96.592C969.859 96.5733 969.719 96.564 969.56 96.564C969.168 96.564 968.883 96.662 968.706 96.858C968.529 97.0447 968.44 97.3433 968.44 97.754V99.168H970.386V100.008H968.44V106H967.418ZM976.091 106V97.292L974.523 97.992V97.068L976.469 96.2H977.099V106H976.091ZM979.684 106L984.556 97.082H978.676V96.2H985.648V96.984L980.832 106H979.684ZM990.352 106V99.168H991.374V106H990.352ZM990.87 97.474C990.665 97.474 990.488 97.404 990.338 97.264C990.198 97.1147 990.128 96.942 990.128 96.746C990.128 96.55 990.198 96.382 990.338 96.242C990.488 96.0927 990.665 96.018 990.87 96.018C991.076 96.018 991.248 96.0927 991.388 96.242C991.538 96.382 991.612 96.55 991.612 96.746C991.612 96.942 991.538 97.1147 991.388 97.264C991.248 97.404 991.076 97.474 990.87 97.474ZM996.074 106.14C995.486 106.14 995.038 106 994.73 105.72C994.431 105.431 994.282 105.015 994.282 104.474V100.008H992.868V99.168H994.282V97.292L995.304 97.054V99.168H997.264V100.008H995.304V104.208C995.304 104.572 995.379 104.833 995.528 104.992C995.687 105.151 995.943 105.23 996.298 105.23C996.475 105.23 996.634 105.216 996.774 105.188C996.914 105.16 997.077 105.113 997.264 105.048V105.958C997.077 106.023 996.881 106.07 996.676 106.098C996.471 106.126 996.27 106.14 996.074 106.14ZM1001.7 106.14C1001.07 106.14 1000.5 105.986 999.982 105.678C999.469 105.361 999.063 104.936 998.764 104.404C998.466 103.863 998.316 103.256 998.316 102.584C998.316 101.912 998.456 101.31 998.736 100.778C999.026 100.246 999.413 99.826 999.898 99.518C1000.38 99.21 1000.92 99.056 1001.52 99.056C1002.13 99.056 1002.67 99.21 1003.13 99.518C1003.61 99.8167 1003.98 100.227 1004.25 100.75C1004.53 101.263 1004.67 101.847 1004.67 102.5V102.808H999.31C999.348 103.275 999.474 103.695 999.688 104.068C999.912 104.432 1000.2 104.721 1000.56 104.936C1000.92 105.141 1001.32 105.244 1001.75 105.244C1002.1 105.244 1002.44 105.183 1002.77 105.062C1003.1 104.931 1003.39 104.759 1003.62 104.544L1004.27 105.23C1003.87 105.538 1003.47 105.767 1003.05 105.916C1002.63 106.065 1002.18 106.14 1001.7 106.14ZM999.338 102.08H1003.66C1003.62 101.669 1003.49 101.305 1003.29 100.988C1003.09 100.661 1002.84 100.405 1002.53 100.218C1002.23 100.031 1001.9 99.938 1001.52 99.938C1001.15 99.938 1000.81 100.031 1000.5 100.218C1000.19 100.395 999.936 100.647 999.73 100.974C999.534 101.291 999.404 101.66 999.338 102.08ZM1006.42 106V99.168H1007.44V100.232C1007.7 99.84 1008 99.546 1008.34 99.35C1008.67 99.154 1009.05 99.056 1009.47 99.056C1009.95 99.056 1010.38 99.1773 1010.74 99.42C1011.11 99.6533 1011.38 99.9753 1011.57 100.386C1011.84 99.9473 1012.16 99.616 1012.54 99.392C1012.92 99.168 1013.36 99.056 1013.85 99.056C1014.31 99.056 1014.71 99.1633 1015.06 99.378C1015.41 99.5927 1015.69 99.8913 1015.88 100.274C1016.08 100.647 1016.18 101.086 1016.18 101.59V106H1015.15V101.842C1015.15 101.245 1015 100.773 1014.71 100.428C1014.41 100.083 1014 99.91 1013.47 99.91C1013.12 99.91 1012.8 99.9987 1012.51 100.176C1012.23 100.353 1011.98 100.624 1011.77 100.988C1011.78 101.081 1011.8 101.179 1011.81 101.282C1011.82 101.385 1011.82 101.487 1011.82 101.59V106H1010.8V101.842C1010.8 101.245 1010.65 100.773 1010.34 100.428C1010.04 100.083 1009.63 99.91 1009.11 99.91C1008.41 99.91 1007.85 100.246 1007.44 100.918V106H1006.42ZM1020.36 106.14C1019.8 106.14 1019.28 106.056 1018.8 105.888C1018.33 105.711 1017.92 105.459 1017.59 105.132L1018.13 104.46C1018.54 104.759 1018.92 104.978 1019.27 105.118C1019.61 105.249 1019.97 105.314 1020.33 105.314C1020.82 105.314 1021.23 105.197 1021.56 104.964C1021.89 104.731 1022.05 104.432 1022.05 104.068C1022.05 103.788 1021.95 103.569 1021.76 103.41C1021.57 103.251 1021.26 103.13 1020.82 103.046L1019.7 102.85C1019.04 102.729 1018.55 102.523 1018.23 102.234C1017.92 101.945 1017.77 101.553 1017.77 101.058C1017.77 100.666 1017.87 100.321 1018.08 100.022C1018.29 99.7233 1018.58 99.49 1018.96 99.322C1019.33 99.1447 1019.76 99.056 1020.23 99.056C1020.7 99.056 1021.14 99.126 1021.56 99.266C1021.98 99.3967 1022.41 99.6113 1022.84 99.91L1022.33 100.624C1021.98 100.372 1021.62 100.19 1021.27 100.078C1020.91 99.9567 1020.55 99.896 1020.19 99.896C1019.74 99.896 1019.38 99.994 1019.11 100.19C1018.84 100.386 1018.71 100.652 1018.71 100.988C1018.71 101.268 1018.79 101.483 1018.96 101.632C1019.13 101.781 1019.44 101.893 1019.88 101.968L1021.03 102.178C1021.72 102.299 1022.22 102.509 1022.54 102.808C1022.86 103.107 1023.02 103.508 1023.02 104.012C1023.02 104.413 1022.9 104.777 1022.67 105.104C1022.43 105.421 1022.12 105.673 1021.72 105.86C1021.31 106.047 1020.86 106.14 1020.36 106.14Z" fill="#151515"/>
<path d="M84 28C84 25.7909 85.7909 24 88 24H118C120.209 24 122 25.7909 122 28V52C122 54.2091 120.209 56 118 56H88C85.7909 56 84 54.2091 84 52V28Z" fill="#C806CC"/>
<path d="M102.888 46V35.254L100.62 36.208V34.624L103.536 33.4H104.67V46H102.888Z" fill="white"/>
<path d="M103 81.3333C101.527 81.3333 100.333 82.5272 100.333 84C100.333 85.4728 101.527 86.6667 103 86.6667C104.473 86.6667 105.667 85.4728 105.667 84C105.667 82.5272 104.473 81.3333 103 81.3333ZM103 56L102.5 56L102.5 84L103 84L103.5 84L103.5 56L103 56Z" fill="#C806CC"/>
<path d="M193 28C193 25.7909 194.791 24 197 24H231C233.209 24 235 25.7909 235 28V52C235 54.2091 233.209 56 231 56H197C194.791 56 193 54.2091 193 52V28Z" fill="#C806CC"/>
<path d="M209.89 46V44.74L215.002 39.304C215.518 38.764 215.866 38.302 216.046 37.918C216.238 37.534 216.334 37.126 216.334 36.694C216.334 36.13 216.106 35.662 215.65 35.29C215.194 34.918 214.618 34.732 213.922 34.732C213.346 34.732 212.806 34.846 212.302 35.074C211.798 35.302 211.24 35.698 210.628 36.262L209.656 35.074C210.988 33.826 212.422 33.202 213.958 33.202C214.762 33.202 215.47 33.346 216.082 33.634C216.694 33.922 217.168 34.324 217.504 34.84C217.852 35.344 218.026 35.926 218.026 36.586C218.026 37.006 217.972 37.396 217.864 37.756C217.756 38.104 217.57 38.476 217.306 38.872C217.042 39.256 216.67 39.7 216.19 40.204L212.086 44.524L218.278 44.506V46H209.89Z" fill="white"/>
<path d="M214 81.3333C212.527 81.3333 211.333 82.5272 211.333 84C211.333 85.4728 212.527 86.6667 214 86.6667C215.473 86.6667 216.667 85.4728 216.667 84C216.667 82.5272 215.473 81.3333 214 81.3333ZM214 56L213.5 56L213.5 84L214 84L214.5 84L214.5 56L214 56Z" fill="#C806CC"/>
<path d="M697 28C697 25.7909 698.791 24 701 24H736C738.209 24 740 25.7909 740 28V52C740 54.2091 738.209 56 736 56H701C698.791 56 697 54.2091 697 52V28Z" fill="#C806CC"/>
<path d="M718.359 46.198C717.459 46.198 716.613 46.042 715.821 45.73C715.041 45.406 714.363 44.944 713.787 44.344L714.957 43.228C715.461 43.756 715.971 44.134 716.487 44.362C717.015 44.578 717.633 44.686 718.341 44.686C719.193 44.686 719.883 44.476 720.411 44.056C720.951 43.636 721.221 43.096 721.221 42.436C721.221 41.812 720.993 41.308 720.537 40.924C720.093 40.54 719.517 40.348 718.809 40.348H717.279V38.89H718.683C719.319 38.89 719.829 38.704 720.213 38.332C720.597 37.96 720.789 37.474 720.789 36.874C720.789 36.466 720.681 36.106 720.465 35.794C720.249 35.47 719.949 35.218 719.565 35.038C719.193 34.846 718.767 34.75 718.287 34.75C717.651 34.75 717.087 34.864 716.595 35.092C716.115 35.308 715.617 35.692 715.101 36.244L713.931 35.128C714.507 34.504 715.173 34.03 715.929 33.706C716.685 33.37 717.483 33.202 718.323 33.202C719.139 33.202 719.859 33.352 720.483 33.652C721.119 33.952 721.617 34.366 721.977 34.894C722.349 35.422 722.535 36.028 722.535 36.712C722.535 37.384 722.313 37.978 721.869 38.494C721.437 39.01 720.867 39.37 720.159 39.574C721.011 39.754 721.689 40.114 722.193 40.654C722.697 41.182 722.949 41.806 722.949 42.526C722.949 43.234 722.751 43.864 722.355 44.416C721.971 44.968 721.431 45.406 720.735 45.73C720.039 46.042 719.247 46.198 718.359 46.198Z" fill="white"/>
<path d="M718.5 81.3333C717.027 81.3333 715.833 82.5272 715.833 84C715.833 85.4728 717.027 86.6667 718.5 86.6667C719.973 86.6667 721.167 85.4728 721.167 84C721.167 82.5272 719.973 81.3333 718.5 81.3333ZM718.5 56L718 56L718 84L718.5 84L719 84L719 56L718.5 56Z" fill="#C806CC"/>
<path d="M960 28C960 25.7909 961.791 24 964 24H1000C1002.21 24 1004 25.7909 1004 28V52C1004 54.2091 1002.21 56 1000 56H964C961.791 56 960 54.2091 960 52V28Z" fill="#C806CC"/>
<path d="M983.866 46V42.796H976.72V41.374L983.65 33.4H985.648V41.284H987.178V42.796H985.648V46H983.866ZM978.862 41.284H983.866V35.524L978.862 41.284Z" fill="white"/>
<path d="M982 81.3333C980.527 81.3333 979.333 82.5272 979.333 84C979.333 85.4728 980.527 86.6667 982 86.6667C983.473 86.6667 984.667 85.4728 984.667 84C984.667 82.5272 983.473 81.3333 982 81.3333ZM982 56L981.5 56L981.5 84L982 84L982.5 84L982.5 56L982 56Z" fill="#C806CC"/>
</svg>
