<svg width="954" height="218" viewBox="0 0 954 218" fill="none" xmlns="http://www.w3.org/2000/svg">
<rect width="954" height="218" fill="white"/>
<rect width="847" height="69" transform="translate(54 81)" fill="white"/>
<mask id="path-1-inside-1_1815_37712" fill="white">
<path d="M70 103C70 99.6863 72.6863 97 76 97H118V134H76C72.6863 134 70 131.314 70 128V103Z"/>
</mask>
<path d="M70 103C70 99.6863 72.6863 97 76 97H118V134H76C72.6863 134 70 131.314 70 128V103Z" fill="white"/>
<path d="M118 97H119V96H118V97ZM118 134V135H119V134H118ZM76 97V98H118V97V96H76V97ZM118 97H117V134H118H119V97H118ZM118 134V133H76V134V135H118V134ZM70 128H71V103H70H69V128H70ZM76 134V133C73.2386 133 71 130.761 71 128H70H69C69 131.866 72.134 135 76 135V134ZM76 97V96C72.134 96 69 99.134 69 103H70H71C71 100.239 73.2386 98 76 98V97Z" fill="#C7C7C7" mask="url(#path-1-inside-1_1815_37712)"/>
<mask id="path-3-inside-2_1815_37712" fill="white">
<path d="M86 111.5C86 109.291 87.7909 107.5 90 107.5H98C100.209 107.5 102 109.291 102 111.5V119.5C102 121.709 100.209 123.5 98 123.5H90C87.7909 123.5 86 121.709 86 119.5V111.5Z"/>
</mask>
<path d="M86 111.5C86 109.291 87.7909 107.5 90 107.5H98C100.209 107.5 102 109.291 102 111.5V119.5C102 121.709 100.209 123.5 98 123.5H90C87.7909 123.5 86 121.709 86 119.5V111.5Z" fill="white"/>
<path d="M90 107.5V108.5H98V107.5V106.5H90V107.5ZM102 111.5H101V119.5H102H103V111.5H102ZM98 123.5V122.5H90V123.5V124.5H98V123.5ZM86 119.5H87V111.5H86H85V119.5H86ZM90 123.5V122.5C88.3431 122.5 87 121.157 87 119.5H86H85C85 122.261 87.2386 124.5 90 124.5V123.5ZM102 119.5H101C101 121.157 99.6569 122.5 98 122.5V123.5V124.5C100.761 124.5 103 122.261 103 119.5H102ZM98 107.5V108.5C99.6569 108.5 101 109.843 101 111.5H102H103C103 108.739 100.761 106.5 98 106.5V107.5ZM90 107.5V106.5C87.2386 106.5 85 108.739 85 111.5H86H87C87 109.843 88.3431 108.5 90 108.5V107.5Z" fill="#C7C7C7" mask="url(#path-3-inside-2_1815_37712)"/>
<mask id="path-5-inside-3_1815_37712" fill="white">
<path d="M117 97H157C160.314 97 163 99.6863 163 103V128C163 131.314 160.314 134 157 134H117V97Z"/>
</mask>
<path d="M117 97H157C160.314 97 163 99.6863 163 103V128C163 131.314 160.314 134 157 134H117V97Z" fill="white"/>
<path d="M117 97V96H116V97H117ZM117 134H116V135H117V134ZM117 97V98H157V97V96H117V97ZM163 103H162V128H163H164V103H163ZM157 134V133H117V134V135H157V134ZM117 134H118V97H117H116V134H117ZM163 128H162C162 130.761 159.761 133 157 133V134V135C160.866 135 164 131.866 164 128H163ZM157 97V98C159.761 98 162 100.239 162 103H163H164C164 99.134 160.866 96 157 96V97Z" fill="#C7C7C7" mask="url(#path-5-inside-3_1815_37712)"/>
<path d="M143.534 113.167C144.023 113.167 144.267 113.762 143.921 114.11L140.389 117.672C140.175 117.887 139.826 117.887 139.611 117.672L136.079 114.11C135.733 113.762 135.977 113.167 136.466 113.167H143.534Z" fill="#1F1F1F"/>
<path d="M185 97.5H378C381.038 97.5 383.5 99.9624 383.5 103V128C383.5 131.038 381.038 133.5 378 133.5H185C181.962 133.5 179.5 131.038 179.5 128V103C179.5 99.9624 181.962 97.5 185 97.5Z" fill="white"/>
<path d="M185 97.5H378C381.038 97.5 383.5 99.9624 383.5 103V128C383.5 131.038 381.038 133.5 378 133.5H185C181.962 133.5 179.5 131.038 179.5 128V103C179.5 99.9624 181.962 97.5 185 97.5Z" stroke="#C7C7C7"/>
<path d="M196.688 109C199.829 109 202.375 111.546 202.375 114.688C202.375 116.008 201.927 117.222 201.172 118.188H201.617C201.792 118.188 201.959 118.256 202.082 118.379L204.809 121.105C205.063 121.363 205.063 121.778 204.806 122.035L204.032 122.809C203.778 123.066 203.363 123.065 203.105 122.809L200.379 120.082C200.256 119.959 200.188 119.792 200.188 119.617V119.172C199.222 119.927 198.008 120.375 196.688 120.375C193.546 120.375 191 117.829 191 114.688C191 111.546 193.546 109 196.688 109ZM196.688 111.188C194.752 111.188 193.188 112.754 193.188 114.688C193.188 116.623 194.754 118.188 196.688 118.188C198.623 118.187 200.187 116.621 200.188 114.688C200.188 112.752 198.621 111.188 196.688 111.188Z" fill="#1F1F1F"/>
<path d="M217.246 120V110.2H223.938V111.152H218.324V114.652H222.16V115.59H218.324V120H217.246ZM225.376 120V113.168H226.398V120H225.376ZM225.894 111.474C225.689 111.474 225.511 111.404 225.362 111.264C225.222 111.115 225.152 110.942 225.152 110.746C225.152 110.55 225.222 110.382 225.362 110.242C225.511 110.093 225.689 110.018 225.894 110.018C226.099 110.018 226.272 110.093 226.412 110.242C226.561 110.382 226.636 110.55 226.636 110.746C226.636 110.942 226.561 111.115 226.412 111.264C226.272 111.404 226.099 111.474 225.894 111.474ZM228.493 120V113.168H229.515V114.274C229.777 113.863 230.089 113.56 230.453 113.364C230.817 113.159 231.228 113.056 231.685 113.056C232.18 113.056 232.609 113.163 232.973 113.378C233.347 113.583 233.636 113.877 233.841 114.26C234.056 114.633 234.163 115.072 234.163 115.576V120H233.141V115.87C233.141 115.263 232.973 114.787 232.637 114.442C232.311 114.087 231.867 113.91 231.307 113.91C230.934 113.91 230.593 113.999 230.285 114.176C229.977 114.353 229.721 114.615 229.515 114.96V120H228.493ZM239.06 120.098C238.472 120.098 237.94 119.944 237.464 119.636C236.988 119.319 236.61 118.899 236.33 118.376C236.05 117.844 235.91 117.251 235.91 116.598C235.91 115.935 236.05 115.343 236.33 114.82C236.619 114.288 237.007 113.868 237.492 113.56C237.977 113.243 238.519 113.084 239.116 113.084C239.536 113.084 239.928 113.168 240.292 113.336C240.656 113.495 240.973 113.728 241.244 114.036V109.892L242.266 109.682V120H241.244V119.09C240.983 119.417 240.665 119.669 240.292 119.846C239.919 120.014 239.508 120.098 239.06 120.098ZM239.312 119.202C239.713 119.202 240.082 119.123 240.418 118.964C240.754 118.805 241.029 118.581 241.244 118.292V114.904C241.02 114.615 240.735 114.391 240.39 114.232C240.054 114.064 239.695 113.98 239.312 113.98C238.855 113.98 238.444 114.092 238.08 114.316C237.725 114.54 237.441 114.848 237.226 115.24C237.021 115.632 236.918 116.08 236.918 116.584C236.918 117.079 237.021 117.527 237.226 117.928C237.441 118.32 237.725 118.633 238.08 118.866C238.444 119.09 238.855 119.202 239.312 119.202ZM247.634 120V109.99L248.656 109.78V114.106C248.917 113.779 249.235 113.527 249.608 113.35C249.981 113.173 250.397 113.084 250.854 113.084C251.451 113.084 251.983 113.243 252.45 113.56C252.926 113.868 253.304 114.288 253.584 114.82C253.864 115.343 254.004 115.931 254.004 116.584C254.004 117.237 253.859 117.83 253.57 118.362C253.29 118.894 252.907 119.319 252.422 119.636C251.946 119.944 251.405 120.098 250.798 120.098C250.369 120.098 249.967 120.014 249.594 119.846C249.23 119.669 248.913 119.421 248.642 119.104V120H247.634ZM250.602 119.216C251.059 119.216 251.465 119.104 251.82 118.88C252.184 118.647 252.469 118.334 252.674 117.942C252.889 117.541 252.996 117.093 252.996 116.598C252.996 116.094 252.889 115.646 252.674 115.254C252.469 114.862 252.184 114.554 251.82 114.33C251.465 114.097 251.059 113.98 250.602 113.98C250.201 113.98 249.827 114.064 249.482 114.232C249.146 114.391 248.871 114.619 248.656 114.918V118.264C248.88 118.563 249.16 118.796 249.496 118.964C249.841 119.132 250.21 119.216 250.602 119.216ZM255.885 123.066C255.67 123.066 255.451 123.033 255.227 122.968V122.058C255.32 122.077 255.418 122.091 255.521 122.1C255.624 122.109 255.712 122.114 255.787 122.114C256.048 122.114 256.263 122.044 256.431 121.904C256.608 121.764 256.758 121.545 256.879 121.246L257.383 120L254.751 113.168H255.885L257.957 118.782L260.155 113.168H261.289L257.845 121.554C257.696 121.918 257.532 122.212 257.355 122.436C257.178 122.66 256.972 122.819 256.739 122.912C256.506 123.015 256.221 123.066 255.885 123.066ZM265.831 120V113.168H266.853V114.274C267.115 113.863 267.427 113.56 267.791 113.364C268.155 113.159 268.566 113.056 269.023 113.056C269.518 113.056 269.947 113.163 270.311 113.378C270.685 113.583 270.974 113.877 271.179 114.26C271.394 114.633 271.501 115.072 271.501 115.576V120H270.479V115.87C270.479 115.263 270.311 114.787 269.975 114.442C269.649 114.087 269.205 113.91 268.645 113.91C268.272 113.91 267.931 113.999 267.623 114.176C267.315 114.353 267.059 114.615 266.853 114.96V120H265.831ZM275.67 120.126C275.185 120.126 274.755 120.037 274.382 119.86C274.009 119.683 273.715 119.44 273.5 119.132C273.295 118.815 273.192 118.451 273.192 118.04C273.192 117.629 273.299 117.275 273.514 116.976C273.729 116.668 274.027 116.43 274.41 116.262C274.793 116.094 275.241 116.01 275.754 116.01C276.146 116.01 276.515 116.052 276.86 116.136C277.215 116.22 277.541 116.355 277.84 116.542V115.604C277.84 115.044 277.691 114.624 277.392 114.344C277.093 114.055 276.655 113.91 276.076 113.91C275.759 113.91 275.432 113.957 275.096 114.05C274.769 114.143 274.405 114.293 274.004 114.498L273.626 113.714C274.541 113.275 275.399 113.056 276.202 113.056C277.051 113.056 277.705 113.266 278.162 113.686C278.619 114.097 278.848 114.689 278.848 115.464V120H277.84V119.202C277.541 119.51 277.21 119.743 276.846 119.902C276.482 120.051 276.09 120.126 275.67 120.126ZM274.172 118.012C274.172 118.413 274.326 118.735 274.634 118.978C274.951 119.221 275.367 119.342 275.88 119.342C276.263 119.342 276.613 119.277 276.93 119.146C277.257 119.015 277.56 118.819 277.84 118.558V117.242C277.551 117.074 277.252 116.953 276.944 116.878C276.636 116.794 276.291 116.752 275.908 116.752C275.385 116.752 274.965 116.869 274.648 117.102C274.331 117.326 274.172 117.629 274.172 118.012ZM280.925 120V113.168H281.947V114.232C282.208 113.84 282.507 113.546 282.843 113.35C283.179 113.154 283.557 113.056 283.977 113.056C284.462 113.056 284.887 113.177 285.251 113.42C285.615 113.653 285.89 113.975 286.077 114.386C286.348 113.947 286.67 113.616 287.043 113.392C287.426 113.168 287.864 113.056 288.359 113.056C288.816 113.056 289.218 113.163 289.563 113.378C289.918 113.593 290.193 113.891 290.389 114.274C290.585 114.647 290.683 115.086 290.683 115.59V120H289.661V115.842C289.661 115.245 289.512 114.773 289.213 114.428C288.914 114.083 288.504 113.91 287.981 113.91C287.626 113.91 287.304 113.999 287.015 114.176C286.735 114.353 286.488 114.624 286.273 114.988C286.292 115.081 286.306 115.179 286.315 115.282C286.324 115.385 286.329 115.487 286.329 115.59V120H285.307V115.842C285.307 115.245 285.153 114.773 284.845 114.428C284.546 114.083 284.136 113.91 283.613 113.91C282.913 113.91 282.358 114.246 281.947 114.918V120H280.925ZM295.831 120.14C295.197 120.14 294.623 119.986 294.109 119.678C293.596 119.361 293.19 118.936 292.891 118.404C292.593 117.863 292.443 117.256 292.443 116.584C292.443 115.912 292.583 115.31 292.863 114.778C293.153 114.246 293.54 113.826 294.025 113.518C294.511 113.21 295.052 113.056 295.649 113.056C296.256 113.056 296.793 113.21 297.259 113.518C297.735 113.817 298.109 114.227 298.379 114.75C298.659 115.263 298.799 115.847 298.799 116.5V116.808H293.437C293.475 117.275 293.601 117.695 293.815 118.068C294.039 118.432 294.329 118.721 294.683 118.936C295.047 119.141 295.444 119.244 295.873 119.244C296.228 119.244 296.569 119.183 296.895 119.062C297.231 118.931 297.516 118.759 297.749 118.544L298.393 119.23C298.001 119.538 297.595 119.767 297.175 119.916C296.755 120.065 296.307 120.14 295.831 120.14ZM293.465 116.08H297.791C297.745 115.669 297.619 115.305 297.413 114.988C297.217 114.661 296.965 114.405 296.657 114.218C296.359 114.031 296.023 113.938 295.649 113.938C295.276 113.938 294.935 114.031 294.627 114.218C294.319 114.395 294.063 114.647 293.857 114.974C293.661 115.291 293.531 115.66 293.465 116.08Z" fill="#4D4D4D"/>
<path d="M400 115.5C400 105.283 408.283 97 418.5 97H470.5C480.717 97 489 105.283 489 115.5V115.5C489 125.717 480.717 134 470.5 134H418.5C408.283 134 400 125.717 400 115.5V115.5Z" fill="#0066CC"/>
<path d="M424.126 120L428.004 110.2H429.292L433.114 120H431.952L430.79 116.92H426.422L425.26 120H424.126ZM426.758 116.066H430.468L428.606 111.18L426.758 116.066ZM437.085 120.112C436.45 120.112 435.876 119.958 435.363 119.65C434.859 119.333 434.457 118.908 434.159 118.376C433.86 117.835 433.711 117.237 433.711 116.584C433.711 115.921 433.86 115.324 434.159 114.792C434.457 114.26 434.859 113.84 435.363 113.532C435.876 113.215 436.45 113.056 437.085 113.056C437.589 113.056 438.069 113.149 438.527 113.336C438.984 113.523 439.381 113.784 439.717 114.12L439.059 114.834C438.816 114.563 438.522 114.353 438.177 114.204C437.831 114.055 437.481 113.98 437.127 113.98C436.679 113.98 436.273 114.097 435.909 114.33C435.554 114.563 435.269 114.876 435.055 115.268C434.84 115.66 434.733 116.099 434.733 116.584C434.733 117.069 434.84 117.508 435.055 117.9C435.269 118.292 435.554 118.605 435.909 118.838C436.273 119.071 436.679 119.188 437.127 119.188C437.481 119.188 437.831 119.113 438.177 118.964C438.522 118.805 438.816 118.595 439.059 118.334L439.717 119.048C439.381 119.384 438.984 119.645 438.527 119.832C438.069 120.019 437.589 120.112 437.085 120.112ZM443.883 120.14C443.295 120.14 442.847 120 442.539 119.72C442.24 119.431 442.091 119.015 442.091 118.474V114.008H440.677V113.168H442.091V111.292L443.113 111.054V113.168H445.073V114.008H443.113V118.208C443.113 118.572 443.187 118.833 443.337 118.992C443.495 119.151 443.752 119.23 444.107 119.23C444.284 119.23 444.443 119.216 444.583 119.188C444.723 119.16 444.886 119.113 445.073 119.048V119.958C444.886 120.023 444.69 120.07 444.485 120.098C444.279 120.126 444.079 120.14 443.883 120.14ZM446.556 120V113.168H447.578V120H446.556ZM447.074 111.474C446.868 111.474 446.691 111.404 446.542 111.264C446.402 111.115 446.332 110.942 446.332 110.746C446.332 110.55 446.402 110.382 446.542 110.242C446.691 110.093 446.868 110.018 447.074 110.018C447.279 110.018 447.452 110.093 447.592 110.242C447.741 110.382 447.816 110.55 447.816 110.746C447.816 110.942 447.741 111.115 447.592 111.264C447.452 111.404 447.279 111.474 447.074 111.474ZM452.697 120.112C452.062 120.112 451.493 119.958 450.989 119.65C450.485 119.342 450.088 118.922 449.799 118.39C449.51 117.858 449.365 117.256 449.365 116.584C449.365 115.912 449.51 115.31 449.799 114.778C450.088 114.246 450.485 113.826 450.989 113.518C451.493 113.21 452.062 113.056 452.697 113.056C453.322 113.056 453.882 113.21 454.377 113.518C454.881 113.826 455.278 114.246 455.567 114.778C455.856 115.31 456.001 115.912 456.001 116.584C456.001 117.256 455.856 117.858 455.567 118.39C455.278 118.922 454.881 119.342 454.377 119.65C453.882 119.958 453.322 120.112 452.697 120.112ZM452.683 119.216C453.131 119.216 453.528 119.104 453.873 118.88C454.218 118.647 454.489 118.329 454.685 117.928C454.89 117.527 454.993 117.079 454.993 116.584C454.993 116.08 454.89 115.632 454.685 115.24C454.489 114.839 454.218 114.526 453.873 114.302C453.528 114.069 453.131 113.952 452.683 113.952C452.235 113.952 451.838 114.069 451.493 114.302C451.148 114.526 450.872 114.839 450.667 115.24C450.471 115.632 450.373 116.08 450.373 116.584C450.373 117.079 450.471 117.527 450.667 117.928C450.872 118.329 451.148 118.647 451.493 118.88C451.838 119.104 452.235 119.216 452.683 119.216ZM457.794 120V113.168H458.816V114.274C459.077 113.863 459.39 113.56 459.754 113.364C460.118 113.159 460.529 113.056 460.986 113.056C461.481 113.056 461.91 113.163 462.274 113.378C462.647 113.583 462.937 113.877 463.142 114.26C463.357 114.633 463.464 115.072 463.464 115.576V120H462.442V115.87C462.442 115.263 462.274 114.787 461.938 114.442C461.611 114.087 461.168 113.91 460.608 113.91C460.235 113.91 459.894 113.999 459.586 114.176C459.278 114.353 459.021 114.615 458.816 114.96V120H457.794Z" fill="white"/>
<mask id="path-13-inside-4_1815_37712" fill="white">
<path d="M497 115.5C497 105.283 505.283 97 515.5 97H567.5C577.717 97 586 105.283 586 115.5V115.5C586 125.717 577.717 134 567.5 134H515.5C505.283 134 497 125.717 497 115.5V115.5Z"/>
</mask>
<path d="M515.5 97V98H567.5V97V96H515.5V97ZM567.5 134V133H515.5V134V135H567.5V134ZM515.5 134V133C505.835 133 498 125.165 498 115.5H497H496C496 126.27 504.73 135 515.5 135V134ZM586 115.5H585C585 125.165 577.165 133 567.5 133V134V135C578.27 135 587 126.27 587 115.5H586ZM567.5 97V98C577.165 98 585 105.835 585 115.5H586H587C587 104.73 578.27 96 567.5 96V97ZM515.5 97V96C504.73 96 496 104.73 496 115.5H497H498C498 105.835 505.835 98 515.5 98V97Z" fill="#0066CC" mask="url(#path-13-inside-4_1815_37712)"/>
<path d="M521.126 120L525.004 110.2H526.292L530.114 120H528.952L527.79 116.92H523.422L522.26 120H521.126ZM523.758 116.066H527.468L525.606 111.18L523.758 116.066ZM534.085 120.112C533.45 120.112 532.876 119.958 532.363 119.65C531.859 119.333 531.457 118.908 531.159 118.376C530.86 117.835 530.711 117.237 530.711 116.584C530.711 115.921 530.86 115.324 531.159 114.792C531.457 114.26 531.859 113.84 532.363 113.532C532.876 113.215 533.45 113.056 534.085 113.056C534.589 113.056 535.069 113.149 535.527 113.336C535.984 113.523 536.381 113.784 536.717 114.12L536.059 114.834C535.816 114.563 535.522 114.353 535.177 114.204C534.831 114.055 534.481 113.98 534.127 113.98C533.679 113.98 533.273 114.097 532.909 114.33C532.554 114.563 532.269 114.876 532.055 115.268C531.84 115.66 531.733 116.099 531.733 116.584C531.733 117.069 531.84 117.508 532.055 117.9C532.269 118.292 532.554 118.605 532.909 118.838C533.273 119.071 533.679 119.188 534.127 119.188C534.481 119.188 534.831 119.113 535.177 118.964C535.522 118.805 535.816 118.595 536.059 118.334L536.717 119.048C536.381 119.384 535.984 119.645 535.527 119.832C535.069 120.019 534.589 120.112 534.085 120.112ZM540.883 120.14C540.295 120.14 539.847 120 539.539 119.72C539.24 119.431 539.091 119.015 539.091 118.474V114.008H537.677V113.168H539.091V111.292L540.113 111.054V113.168H542.073V114.008H540.113V118.208C540.113 118.572 540.187 118.833 540.337 118.992C540.495 119.151 540.752 119.23 541.107 119.23C541.284 119.23 541.443 119.216 541.583 119.188C541.723 119.16 541.886 119.113 542.073 119.048V119.958C541.886 120.023 541.69 120.07 541.485 120.098C541.279 120.126 541.079 120.14 540.883 120.14ZM543.556 120V113.168H544.578V120H543.556ZM544.074 111.474C543.868 111.474 543.691 111.404 543.542 111.264C543.402 111.115 543.332 110.942 543.332 110.746C543.332 110.55 543.402 110.382 543.542 110.242C543.691 110.093 543.868 110.018 544.074 110.018C544.279 110.018 544.452 110.093 544.592 110.242C544.741 110.382 544.816 110.55 544.816 110.746C544.816 110.942 544.741 111.115 544.592 111.264C544.452 111.404 544.279 111.474 544.074 111.474ZM549.697 120.112C549.062 120.112 548.493 119.958 547.989 119.65C547.485 119.342 547.088 118.922 546.799 118.39C546.51 117.858 546.365 117.256 546.365 116.584C546.365 115.912 546.51 115.31 546.799 114.778C547.088 114.246 547.485 113.826 547.989 113.518C548.493 113.21 549.062 113.056 549.697 113.056C550.322 113.056 550.882 113.21 551.377 113.518C551.881 113.826 552.278 114.246 552.567 114.778C552.856 115.31 553.001 115.912 553.001 116.584C553.001 117.256 552.856 117.858 552.567 118.39C552.278 118.922 551.881 119.342 551.377 119.65C550.882 119.958 550.322 120.112 549.697 120.112ZM549.683 119.216C550.131 119.216 550.528 119.104 550.873 118.88C551.218 118.647 551.489 118.329 551.685 117.928C551.89 117.527 551.993 117.079 551.993 116.584C551.993 116.08 551.89 115.632 551.685 115.24C551.489 114.839 551.218 114.526 550.873 114.302C550.528 114.069 550.131 113.952 549.683 113.952C549.235 113.952 548.838 114.069 548.493 114.302C548.148 114.526 547.872 114.839 547.667 115.24C547.471 115.632 547.373 116.08 547.373 116.584C547.373 117.079 547.471 117.527 547.667 117.928C547.872 118.329 548.148 118.647 548.493 118.88C548.838 119.104 549.235 119.216 549.683 119.216ZM554.794 120V113.168H555.816V114.274C556.077 113.863 556.39 113.56 556.754 113.364C557.118 113.159 557.529 113.056 557.986 113.056C558.481 113.056 558.91 113.163 559.274 113.378C559.647 113.583 559.937 113.877 560.142 114.26C560.357 114.633 560.464 115.072 560.464 115.576V120H559.442V115.87C559.442 115.263 559.274 114.787 558.938 114.442C558.611 114.087 558.168 113.91 557.608 113.91C557.235 113.91 556.894 113.999 556.586 114.176C556.278 114.353 556.021 114.615 555.816 114.96V120H554.794Z" fill="#0066CC"/>
<path d="M617.292 118.436C618.42 118.436 619.333 119.344 619.333 120.468C619.333 121.591 618.42 122.5 617.292 122.5C616.163 122.5 615.25 121.591 615.25 120.468C615.25 119.344 616.163 118.436 617.292 118.436ZM617.292 113.468C618.42 113.468 619.333 114.377 619.333 115.5C619.333 116.623 618.42 117.532 617.292 117.532C616.163 117.532 615.25 116.623 615.25 115.5C615.25 114.377 616.163 113.468 617.292 113.468ZM617.292 108.5C618.42 108.5 619.333 109.409 619.333 110.532C619.333 111.656 618.42 112.564 617.292 112.564C616.163 112.564 615.25 111.656 615.25 110.532C615.25 109.409 616.163 108.5 617.292 108.5Z" fill="#1F1F1F"/>
<path d="M668.254 120V111.81L666.518 112.552V111.194L668.814 110.2H669.78V120H668.254ZM674.714 116.696V115.352H679.6V116.696H674.714ZM684.255 120V118.894L688.273 114.694C688.516 114.442 688.702 114.213 688.833 114.008C688.973 113.803 689.071 113.607 689.127 113.42C689.192 113.224 689.225 113.023 689.225 112.818C689.225 112.407 689.057 112.067 688.721 111.796C688.385 111.525 687.96 111.39 687.447 111.39C686.999 111.39 686.579 111.479 686.187 111.656C685.795 111.833 685.366 112.141 684.899 112.58L684.031 111.53C684.572 111.035 685.128 110.667 685.697 110.424C686.266 110.172 686.859 110.046 687.475 110.046C688.119 110.046 688.684 110.163 689.169 110.396C689.654 110.62 690.032 110.933 690.303 111.334C690.574 111.735 690.709 112.202 690.709 112.734C690.709 113.051 690.667 113.35 690.583 113.63C690.499 113.91 690.354 114.195 690.149 114.484C689.953 114.773 689.678 115.105 689.323 115.478L686.201 118.698L690.891 118.684V120H684.255ZM696.243 120.14C695.45 120.14 694.75 119.93 694.143 119.51C693.546 119.081 693.075 118.488 692.729 117.732C692.393 116.967 692.225 116.089 692.225 115.1C692.225 114.092 692.393 113.21 692.729 112.454C693.075 111.698 693.546 111.11 694.143 110.69C694.75 110.261 695.45 110.046 696.243 110.046C697.037 110.046 697.732 110.261 698.329 110.69C698.936 111.11 699.407 111.698 699.743 112.454C700.079 113.21 700.247 114.092 700.247 115.1C700.247 116.089 700.079 116.967 699.743 117.732C699.407 118.488 698.936 119.081 698.329 119.51C697.732 119.93 697.037 120.14 696.243 120.14ZM696.243 118.782C696.747 118.782 697.181 118.633 697.545 118.334C697.919 118.026 698.208 117.597 698.413 117.046C698.619 116.495 698.721 115.847 698.721 115.1C698.721 114.344 698.619 113.691 698.413 113.14C698.208 112.589 697.919 112.165 697.545 111.866C697.181 111.558 696.747 111.404 696.243 111.404C695.739 111.404 695.301 111.558 694.927 111.866C694.563 112.165 694.274 112.589 694.059 113.14C693.854 113.691 693.751 114.344 693.751 115.1C693.751 115.847 693.854 116.495 694.059 117.046C694.274 117.597 694.563 118.026 694.927 118.334C695.301 118.633 695.739 118.782 696.243 118.782Z" fill="#151515"/>
<path d="M709.074 120.112C708.439 120.112 707.87 119.958 707.366 119.65C706.862 119.342 706.465 118.922 706.176 118.39C705.887 117.858 705.742 117.256 705.742 116.584C705.742 115.912 705.887 115.31 706.176 114.778C706.465 114.246 706.862 113.826 707.366 113.518C707.87 113.21 708.439 113.056 709.074 113.056C709.699 113.056 710.259 113.21 710.754 113.518C711.258 113.826 711.655 114.246 711.944 114.778C712.233 115.31 712.378 115.912 712.378 116.584C712.378 117.256 712.233 117.858 711.944 118.39C711.655 118.922 711.258 119.342 710.754 119.65C710.259 119.958 709.699 120.112 709.074 120.112ZM709.06 119.216C709.508 119.216 709.905 119.104 710.25 118.88C710.595 118.647 710.866 118.329 711.062 117.928C711.267 117.527 711.37 117.079 711.37 116.584C711.37 116.08 711.267 115.632 711.062 115.24C710.866 114.839 710.595 114.526 710.25 114.302C709.905 114.069 709.508 113.952 709.06 113.952C708.612 113.952 708.215 114.069 707.87 114.302C707.525 114.526 707.249 114.839 707.044 115.24C706.848 115.632 706.75 116.08 706.75 116.584C706.75 117.079 706.848 117.527 707.044 117.928C707.249 118.329 707.525 118.647 707.87 118.88C708.215 119.104 708.612 119.216 709.06 119.216ZM714.615 120V114.008H713.089V113.168H714.615V111.74C714.615 111.068 714.793 110.55 715.147 110.186C715.502 109.822 716.006 109.64 716.659 109.64C716.846 109.64 717.014 109.649 717.163 109.668C717.322 109.687 717.462 109.719 717.583 109.766V110.69C717.434 110.643 717.299 110.611 717.177 110.592C717.056 110.573 716.916 110.564 716.757 110.564C716.365 110.564 716.081 110.662 715.903 110.858C715.726 111.045 715.637 111.343 715.637 111.754V113.168H717.583V114.008H715.637V120H714.615Z" fill="#151515"/>
<path d="M725.934 120.154C724.609 120.154 723.461 119.711 722.49 118.824L723.414 117.774C723.834 118.147 724.245 118.418 724.646 118.586C725.057 118.754 725.505 118.838 725.99 118.838C726.41 118.838 726.774 118.759 727.082 118.6C727.399 118.441 727.642 118.217 727.81 117.928C727.987 117.629 728.076 117.293 728.076 116.92C728.076 116.369 727.875 115.926 727.474 115.59C727.082 115.245 726.573 115.072 725.948 115.072C725.621 115.072 725.299 115.114 724.982 115.198C724.674 115.282 724.352 115.413 724.016 115.59L722.938 115.268L723.162 110.2H729.112V111.516H724.506L724.38 114.33C724.735 114.153 725.071 114.036 725.388 113.98C725.715 113.915 726.046 113.882 726.382 113.882C727.035 113.882 727.605 114.008 728.09 114.26C728.575 114.503 728.953 114.848 729.224 115.296C729.495 115.735 729.63 116.248 729.63 116.836C729.63 117.499 729.476 118.077 729.168 118.572C728.86 119.067 728.426 119.454 727.866 119.734C727.315 120.014 726.671 120.154 725.934 120.154ZM730.821 120V118.894L734.839 114.694C735.082 114.442 735.269 114.213 735.399 114.008C735.539 113.803 735.637 113.607 735.693 113.42C735.759 113.224 735.791 113.023 735.791 112.818C735.791 112.407 735.623 112.067 735.287 111.796C734.951 111.525 734.527 111.39 734.013 111.39C733.565 111.39 733.145 111.479 732.753 111.656C732.361 111.833 731.932 112.141 731.465 112.58L730.597 111.53C731.139 111.035 731.694 110.667 732.263 110.424C732.833 110.172 733.425 110.046 734.041 110.046C734.685 110.046 735.25 110.163 735.735 110.396C736.221 110.62 736.599 110.933 736.869 111.334C737.14 111.735 737.275 112.202 737.275 112.734C737.275 113.051 737.233 113.35 737.149 113.63C737.065 113.91 736.921 114.195 736.715 114.484C736.519 114.773 736.244 115.105 735.889 115.478L732.767 118.698L737.457 118.684V120H730.821ZM742.208 120.154C741.48 120.154 740.803 120.028 740.178 119.776C739.552 119.515 739.02 119.151 738.582 118.684L739.604 117.704C739.996 118.115 740.388 118.404 740.78 118.572C741.172 118.731 741.638 118.81 742.18 118.81C742.609 118.81 742.982 118.745 743.3 118.614C743.626 118.474 743.878 118.283 744.056 118.04C744.233 117.797 744.322 117.513 744.322 117.186C744.322 116.897 744.247 116.64 744.098 116.416C743.948 116.192 743.743 116.019 743.482 115.898C743.22 115.767 742.917 115.702 742.572 115.702H741.368V114.414H742.446C742.922 114.414 743.3 114.283 743.58 114.022C743.869 113.761 744.014 113.406 744.014 112.958C744.014 112.669 743.93 112.407 743.762 112.174C743.603 111.931 743.384 111.745 743.104 111.614C742.824 111.474 742.506 111.404 742.152 111.404C741.657 111.404 741.223 111.493 740.85 111.67C740.486 111.838 740.108 112.137 739.716 112.566L738.68 111.6C739.128 111.096 739.655 110.713 740.262 110.452C740.878 110.181 741.522 110.046 742.194 110.046C742.847 110.046 743.426 110.163 743.93 110.396C744.434 110.629 744.826 110.956 745.106 111.376C745.395 111.787 745.54 112.258 745.54 112.79C745.54 113.313 745.367 113.779 745.022 114.19C744.686 114.591 744.242 114.871 743.692 115.03C744.345 115.17 744.868 115.445 745.26 115.856C745.661 116.257 745.862 116.733 745.862 117.284C745.862 117.835 745.703 118.329 745.386 118.768C745.068 119.197 744.634 119.538 744.084 119.79C743.542 120.033 742.917 120.154 742.208 120.154Z" fill="#151515"/>
<path fill-rule="evenodd" clip-rule="evenodd" d="M763.444 117.982L767.481 113.912C767.877 113.513 767.598 112.833 767.039 112.833H758.961C758.403 112.833 758.123 113.513 758.519 113.912L762.556 117.982C762.801 118.228 763.2 118.228 763.444 117.982Z" fill="#1F1F1F"/>
<path d="M822.494 111.214C822.751 110.957 823.167 110.957 823.422 111.214L824.039 111.832C824.296 112.089 824.296 112.504 824.039 112.759L821.406 115.397L824.042 118.033C824.299 118.29 824.299 118.706 824.042 118.96L823.424 119.581C823.167 119.838 822.751 119.838 822.497 119.581L818.778 115.862C818.518 115.605 818.518 115.19 818.775 114.933L822.494 111.214Z" fill="#A3A3A3"/>
<path d="M864.391 111.026C864.649 110.769 865.064 110.769 865.318 111.026L869.037 114.745C869.297 115.002 869.297 115.418 869.04 115.675L865.321 119.393C865.064 119.65 864.649 119.65 864.394 119.393L863.776 118.775C863.519 118.518 863.519 118.103 863.776 117.849L866.412 115.213L863.776 112.576C863.519 112.319 863.519 111.904 863.776 111.649L864.391 111.026Z" fill="#1F1F1F"/>
<path d="M391.5 128.667C390.027 128.667 388.833 127.473 388.833 126C388.833 124.527 390.027 123.333 391.5 123.333C392.973 123.333 394.167 124.527 394.167 126C394.167 127.473 392.973 128.667 391.5 128.667ZM391.5 152H391V126H391.5H392V152H391.5Z" fill="#C806CC"/>
<rect x="298" y="152" width="187" height="29" rx="14.5" fill="#C806CC"/>
<path d="M321.078 167.555C321.078 166.477 320.901 165.659 320.547 165.102C320.198 164.539 319.688 164.258 319.016 164.258C318.312 164.258 317.776 164.539 317.406 165.102C317.036 165.659 316.852 166.477 316.852 167.555C316.852 168.633 317.036 169.456 317.406 170.023C317.781 170.586 318.323 170.867 319.031 170.867C319.693 170.867 320.198 170.583 320.547 170.016C320.901 169.448 321.078 168.628 321.078 167.555ZM322.516 171.438C322.516 172.75 322.206 173.745 321.586 174.422C320.966 175.099 320.055 175.438 318.852 175.438C318.456 175.438 318.042 175.401 317.609 175.328C317.177 175.255 316.745 175.148 316.312 175.008V173.586C316.823 173.826 317.286 174.003 317.703 174.117C318.12 174.232 318.503 174.289 318.852 174.289C319.628 174.289 320.193 174.078 320.547 173.656C320.901 173.234 321.078 172.565 321.078 171.648V171.586V170.609C320.849 171.099 320.536 171.464 320.141 171.703C319.745 171.943 319.263 172.062 318.695 172.062C317.674 172.062 316.859 171.654 316.25 170.836C315.641 170.018 315.336 168.924 315.336 167.555C315.336 166.18 315.641 165.083 316.25 164.266C316.859 163.448 317.674 163.039 318.695 163.039C319.258 163.039 319.734 163.151 320.125 163.375C320.516 163.599 320.833 163.945 321.078 164.414V163.281H322.516V171.438ZM329.633 168.836C329.633 169.482 329.75 169.969 329.984 170.297C330.224 170.625 330.576 170.789 331.039 170.789H332.719V172H330.898C330.039 172 329.372 171.727 328.898 171.18C328.43 170.628 328.195 169.846 328.195 168.836V160.922H325.891V159.797H329.633V168.836ZM338.469 164.258C337.74 164.258 337.188 164.542 336.812 165.109C336.438 165.677 336.25 166.518 336.25 167.633C336.25 168.742 336.438 169.583 336.812 170.156C337.188 170.724 337.74 171.008 338.469 171.008C339.203 171.008 339.758 170.724 340.133 170.156C340.508 169.583 340.695 168.742 340.695 167.633C340.695 166.518 340.508 165.677 340.133 165.109C339.758 164.542 339.203 164.258 338.469 164.258ZM338.469 163.039C339.682 163.039 340.609 163.432 341.25 164.219C341.896 165.005 342.219 166.143 342.219 167.633C342.219 169.128 341.898 170.268 341.258 171.055C340.617 171.836 339.688 172.227 338.469 172.227C337.255 172.227 336.328 171.836 335.688 171.055C335.047 170.268 334.727 169.128 334.727 167.633C334.727 166.143 335.047 165.005 335.688 164.219C336.328 163.432 337.255 163.039 338.469 163.039ZM350.469 167.633C350.469 166.518 350.292 165.677 349.938 165.109C349.583 164.542 349.06 164.258 348.367 164.258C347.669 164.258 347.141 164.544 346.781 165.117C346.422 165.685 346.242 166.523 346.242 167.633C346.242 168.737 346.422 169.576 346.781 170.148C347.141 170.721 347.669 171.008 348.367 171.008C349.06 171.008 349.583 170.724 349.938 170.156C350.292 169.589 350.469 168.747 350.469 167.633ZM346.242 164.367C346.471 163.94 346.786 163.612 347.188 163.383C347.594 163.154 348.062 163.039 348.594 163.039C349.646 163.039 350.474 163.445 351.078 164.258C351.682 165.065 351.984 166.18 351.984 167.602C351.984 169.044 351.68 170.177 351.07 171C350.466 171.818 349.635 172.227 348.578 172.227C348.057 172.227 347.596 172.115 347.195 171.891C346.799 171.661 346.482 171.331 346.242 170.898V172H344.805V159.844H346.242V164.367ZM358.422 167.602H357.945C357.107 167.602 356.474 167.75 356.047 168.047C355.625 168.339 355.414 168.776 355.414 169.359C355.414 169.885 355.573 170.294 355.891 170.586C356.208 170.878 356.648 171.023 357.211 171.023C358.003 171.023 358.625 170.75 359.078 170.203C359.531 169.651 359.76 168.891 359.766 167.922V167.602H358.422ZM361.211 167.008V172H359.766V170.703C359.458 171.224 359.07 171.609 358.602 171.859C358.138 172.104 357.573 172.227 356.906 172.227C356.016 172.227 355.305 171.977 354.773 171.477C354.242 170.971 353.977 170.297 353.977 169.453C353.977 168.479 354.302 167.74 354.953 167.234C355.609 166.729 356.57 166.477 357.836 166.477H359.766V166.25C359.76 165.552 359.583 165.047 359.234 164.734C358.885 164.417 358.328 164.258 357.562 164.258C357.073 164.258 356.578 164.328 356.078 164.469C355.578 164.609 355.091 164.815 354.617 165.086V163.648C355.148 163.445 355.656 163.294 356.141 163.195C356.63 163.091 357.104 163.039 357.562 163.039C358.286 163.039 358.904 163.146 359.414 163.359C359.93 163.573 360.346 163.893 360.664 164.32C360.862 164.581 361.003 164.904 361.086 165.289C361.169 165.669 361.211 166.242 361.211 167.008ZM368.195 168.836C368.195 169.482 368.312 169.969 368.547 170.297C368.786 170.625 369.138 170.789 369.602 170.789H371.281V172H369.461C368.602 172 367.935 171.727 367.461 171.18C366.992 170.628 366.758 169.846 366.758 168.836V160.922H364.453V159.797H368.195V168.836ZM379.164 160.336H380.648L374.508 173.484H373.016L379.164 160.336ZM389.461 163.555V164.961C389.049 164.721 388.635 164.542 388.219 164.422C387.802 164.302 387.378 164.242 386.945 164.242C386.294 164.242 385.807 164.349 385.484 164.562C385.167 164.771 385.008 165.091 385.008 165.523C385.008 165.914 385.128 166.206 385.367 166.398C385.607 166.591 386.203 166.779 387.156 166.961L387.734 167.07C388.448 167.206 388.987 167.477 389.352 167.883C389.721 168.289 389.906 168.818 389.906 169.469C389.906 170.333 389.599 171.01 388.984 171.5C388.37 171.984 387.516 172.227 386.422 172.227C385.99 172.227 385.536 172.18 385.062 172.086C384.589 171.997 384.076 171.862 383.523 171.68V170.195C384.06 170.471 384.573 170.68 385.062 170.82C385.552 170.956 386.016 171.023 386.453 171.023C387.089 171.023 387.581 170.896 387.93 170.641C388.279 170.38 388.453 170.018 388.453 169.555C388.453 168.888 387.815 168.427 386.539 168.172L386.477 168.156L385.938 168.047C385.109 167.885 384.505 167.615 384.125 167.234C383.745 166.849 383.555 166.326 383.555 165.664C383.555 164.826 383.839 164.18 384.406 163.727C384.974 163.268 385.784 163.039 386.836 163.039C387.305 163.039 387.755 163.083 388.188 163.172C388.62 163.255 389.044 163.383 389.461 163.555ZM394.43 170.898V175.328H392.984V163.25H394.43V164.367C394.669 163.935 394.987 163.607 395.383 163.383C395.784 163.154 396.245 163.039 396.766 163.039C397.823 163.039 398.651 163.448 399.25 164.266C399.854 165.083 400.156 166.216 400.156 167.664C400.156 169.086 399.854 170.203 399.25 171.016C398.646 171.823 397.818 172.227 396.766 172.227C396.234 172.227 395.768 172.115 395.367 171.891C394.971 171.661 394.659 171.331 394.43 170.898ZM398.648 167.633C398.648 166.518 398.471 165.677 398.117 165.109C397.768 164.542 397.247 164.258 396.555 164.258C395.857 164.258 395.328 164.544 394.969 165.117C394.609 165.685 394.43 166.523 394.43 167.633C394.43 168.737 394.609 169.576 394.969 170.148C395.328 170.721 395.857 171.008 396.555 171.008C397.247 171.008 397.768 170.724 398.117 170.156C398.471 169.589 398.648 168.747 398.648 167.633ZM406.625 167.602H406.148C405.31 167.602 404.677 167.75 404.25 168.047C403.828 168.339 403.617 168.776 403.617 169.359C403.617 169.885 403.776 170.294 404.094 170.586C404.411 170.878 404.852 171.023 405.414 171.023C406.206 171.023 406.828 170.75 407.281 170.203C407.734 169.651 407.964 168.891 407.969 167.922V167.602H406.625ZM409.414 167.008V172H407.969V170.703C407.661 171.224 407.273 171.609 406.805 171.859C406.341 172.104 405.776 172.227 405.109 172.227C404.219 172.227 403.508 171.977 402.977 171.477C402.445 170.971 402.18 170.297 402.18 169.453C402.18 168.479 402.505 167.74 403.156 167.234C403.812 166.729 404.773 166.477 406.039 166.477H407.969V166.25C407.964 165.552 407.786 165.047 407.438 164.734C407.089 164.417 406.531 164.258 405.766 164.258C405.276 164.258 404.781 164.328 404.281 164.469C403.781 164.609 403.294 164.815 402.82 165.086V163.648C403.352 163.445 403.859 163.294 404.344 163.195C404.833 163.091 405.307 163.039 405.766 163.039C406.49 163.039 407.107 163.146 407.617 163.359C408.133 163.573 408.549 163.893 408.867 164.32C409.065 164.581 409.206 164.904 409.289 165.289C409.372 165.669 409.414 166.242 409.414 167.008ZM419.07 171.555C418.685 171.779 418.286 171.945 417.875 172.055C417.469 172.169 417.052 172.227 416.625 172.227C415.271 172.227 414.211 171.82 413.445 171.008C412.685 170.195 412.305 169.07 412.305 167.633C412.305 166.195 412.685 165.07 413.445 164.258C414.211 163.445 415.271 163.039 416.625 163.039C417.047 163.039 417.458 163.094 417.859 163.203C418.26 163.312 418.664 163.482 419.07 163.711V165.219C418.69 164.88 418.307 164.635 417.922 164.484C417.542 164.333 417.109 164.258 416.625 164.258C415.724 164.258 415.031 164.549 414.547 165.133C414.062 165.716 413.82 166.549 413.82 167.633C413.82 168.711 414.062 169.544 414.547 170.133C415.036 170.716 415.729 171.008 416.625 171.008C417.125 171.008 417.573 170.932 417.969 170.781C418.365 170.625 418.732 170.385 419.07 170.062V171.555ZM429.172 166.906V167.609H422.945V167.656C422.904 168.849 423.13 169.706 423.625 170.227C424.125 170.747 424.828 171.008 425.734 171.008C426.193 171.008 426.672 170.935 427.172 170.789C427.672 170.643 428.206 170.422 428.773 170.125V171.555C428.227 171.779 427.698 171.945 427.188 172.055C426.682 172.169 426.193 172.227 425.719 172.227C424.359 172.227 423.297 171.82 422.531 171.008C421.766 170.19 421.383 169.065 421.383 167.633C421.383 166.237 421.758 165.122 422.508 164.289C423.258 163.456 424.258 163.039 425.508 163.039C426.622 163.039 427.5 163.417 428.141 164.172C428.786 164.927 429.13 165.839 429.172 166.906ZM427.734 166.484C427.672 165.88 427.451 165.359 427.07 164.922C426.695 164.479 426.154 164.258 425.445 164.258C424.753 164.258 424.182 164.487 423.734 164.945C423.286 165.404 423.042 165.919 423 166.492L427.734 166.484ZM439.086 165.055C438.779 164.815 438.466 164.641 438.148 164.531C437.831 164.422 437.482 164.367 437.102 164.367C436.206 164.367 435.521 164.648 435.047 165.211C434.573 165.773 434.336 166.586 434.336 167.648V172H432.891V163.25H434.336V164.961C434.576 164.341 434.943 163.867 435.438 163.539C435.938 163.206 436.529 163.039 437.211 163.039C437.565 163.039 437.896 163.083 438.203 163.172C438.51 163.26 438.805 163.398 439.086 163.586V165.055ZM446.648 160.336H448.133L441.992 173.484H440.5L446.648 160.336ZM454.625 164.141C454.802 163.766 455.026 163.49 455.297 163.312C455.573 163.13 455.904 163.039 456.289 163.039C456.992 163.039 457.487 163.312 457.773 163.859C458.065 164.401 458.211 165.424 458.211 166.93V172H456.898V166.992C456.898 165.758 456.828 164.992 456.688 164.695C456.552 164.393 456.302 164.242 455.938 164.242C455.521 164.242 455.234 164.404 455.078 164.727C454.927 165.044 454.852 165.799 454.852 166.992V172H453.539V166.992C453.539 165.742 453.464 164.971 453.312 164.68C453.167 164.388 452.901 164.242 452.516 164.242C452.135 164.242 451.87 164.404 451.719 164.727C451.573 165.044 451.5 165.799 451.5 166.992V172H450.195V163.25H451.5V164C451.672 163.688 451.885 163.451 452.141 163.289C452.401 163.122 452.695 163.039 453.023 163.039C453.419 163.039 453.747 163.13 454.008 163.312C454.273 163.495 454.479 163.771 454.625 164.141ZM465.688 164.367V159.844H467.125V172H465.688V170.898C465.448 171.331 465.128 171.661 464.727 171.891C464.331 172.115 463.872 172.227 463.352 172.227C462.294 172.227 461.461 171.818 460.852 171C460.247 170.177 459.945 169.044 459.945 167.602C459.945 166.18 460.25 165.065 460.859 164.258C461.469 163.445 462.299 163.039 463.352 163.039C463.878 163.039 464.341 163.154 464.742 163.383C465.143 163.607 465.458 163.935 465.688 164.367ZM461.461 167.633C461.461 168.747 461.638 169.589 461.992 170.156C462.346 170.724 462.87 171.008 463.562 171.008C464.255 171.008 464.781 170.721 465.141 170.148C465.505 169.576 465.688 168.737 465.688 167.633C465.688 166.523 465.505 165.685 465.141 165.117C464.781 164.544 464.255 164.258 463.562 164.258C462.87 164.258 462.346 164.542 461.992 165.109C461.638 165.677 461.461 166.518 461.461 167.633Z" fill="white"/>
<rect x="384.5" y="97.5" width="15" height="36" fill="#FF00FF" fill-opacity="0.2" stroke="#FF00FF" stroke-dasharray="2 2"/>
<rect x="586.5" y="97.5" width="15" height="36" fill="#FF00FF" fill-opacity="0.2" stroke="#FF00FF" stroke-dasharray="2 2"/>
<rect x="163.5" y="97.5" width="15" height="36" fill="#FF00FF" fill-opacity="0.2" stroke="#FF00FF" stroke-dasharray="2 2"/>
<path d="M221 41C221 38.7909 222.791 37 225 37H255C257.209 37 259 38.7909 259 41V65C259 67.2091 257.209 69 255 69H225C222.791 69 221 67.2091 221 65V41Z" fill="#C806CC"/>
<path d="M239.888 59V48.254L237.62 49.208V47.624L240.536 46.4H241.67V59H239.888Z" fill="white"/>
<path d="M240 94.3333C238.527 94.3333 237.333 95.5272 237.333 97C237.333 98.4728 238.527 99.6667 240 99.6667C241.473 99.6667 242.667 98.4728 242.667 97C242.667 95.5272 241.473 94.3333 240 94.3333ZM240 69L239.5 69L239.5 97L240 97L240.5 97L240.5 69L240 69Z" fill="#C806CC"/>
<path d="M472 41C472 38.7909 473.791 37 476 37H510C512.209 37 514 38.7909 514 41V65C514 67.2091 512.209 69 510 69H476C473.791 69 472 67.2091 472 65V41Z" fill="#C806CC"/>
<path d="M488.89 59V57.74L494.002 52.304C494.518 51.764 494.866 51.302 495.046 50.918C495.238 50.534 495.334 50.126 495.334 49.694C495.334 49.13 495.106 48.662 494.65 48.29C494.194 47.918 493.618 47.732 492.922 47.732C492.346 47.732 491.806 47.846 491.302 48.074C490.798 48.302 490.24 48.698 489.628 49.262L488.656 48.074C489.988 46.826 491.422 46.202 492.958 46.202C493.762 46.202 494.47 46.346 495.082 46.634C495.694 46.922 496.168 47.324 496.504 47.84C496.852 48.344 497.026 48.926 497.026 49.586C497.026 50.006 496.972 50.396 496.864 50.756C496.756 51.104 496.57 51.476 496.306 51.872C496.042 52.256 495.67 52.7 495.19 53.204L491.086 57.524L497.278 57.506V59H488.89Z" fill="white"/>
<path d="M493 94.3333C491.527 94.3333 490.333 95.5272 490.333 97C490.333 98.4728 491.527 99.6667 493 99.6667C494.473 99.6667 495.667 98.4728 495.667 97C495.667 95.5272 494.473 94.3333 493 94.3333ZM493 69L492.5 69L492.5 97L493 97L493.5 97L493.5 69L493 69Z" fill="#C806CC"/>
</svg>
