<svg width="1008" height="120" viewBox="0 0 1008 120" fill="none" xmlns="http://www.w3.org/2000/svg">
<rect width="1008" height="120" fill="white"/>
<rect width="1008" height="69" fill="white"/>
<mask id="path-1-inside-1_1824_26506" fill="white">
<path d="M16 22C16 18.6863 18.6863 16 22 16H64V53H22C18.6863 53 16 50.3137 16 47V22Z"/>
</mask>
<path d="M16 22C16 18.6863 18.6863 16 22 16H64V53H22C18.6863 53 16 50.3137 16 47V22Z" fill="white"/>
<path d="M64 16H65V15H64V16ZM64 53V54H65V53H64ZM22 16V17H64V16V15H22V16ZM64 16H63V53H64H65V16H64ZM64 53V52H22V53V54H64V53ZM16 47H17V22H16H15V47H16ZM22 53V52C19.2386 52 17 49.7614 17 47H16H15C15 50.866 18.134 54 22 54V53ZM22 16V15C18.134 15 15 18.134 15 22H16H17C17 19.2386 19.2386 17 22 17V16Z" fill="#C7C7C7" mask="url(#path-1-inside-1_1824_26506)"/>
<mask id="path-3-inside-2_1824_26506" fill="white">
<path d="M32 30.5C32 28.2909 33.7909 26.5 36 26.5H44C46.2091 26.5 48 28.2909 48 30.5V38.5C48 40.7091 46.2091 42.5 44 42.5H36C33.7909 42.5 32 40.7091 32 38.5V30.5Z"/>
</mask>
<path d="M32 30.5C32 28.2909 33.7909 26.5 36 26.5H44C46.2091 26.5 48 28.2909 48 30.5V38.5C48 40.7091 46.2091 42.5 44 42.5H36C33.7909 42.5 32 40.7091 32 38.5V30.5Z" fill="white"/>
<path d="M36 26.5V27.5H44V26.5V25.5H36V26.5ZM48 30.5H47V38.5H48H49V30.5H48ZM44 42.5V41.5H36V42.5V43.5H44V42.5ZM32 38.5H33V30.5H32H31V38.5H32ZM36 42.5V41.5C34.3431 41.5 33 40.1569 33 38.5H32H31C31 41.2614 33.2386 43.5 36 43.5V42.5ZM48 38.5H47C47 40.1569 45.6569 41.5 44 41.5V42.5V43.5C46.7614 43.5 49 41.2614 49 38.5H48ZM44 26.5V27.5C45.6569 27.5 47 28.8431 47 30.5H48H49C49 27.7386 46.7614 25.5 44 25.5V26.5ZM36 26.5V25.5C33.2386 25.5 31 27.7386 31 30.5H32H33C33 28.8431 34.3431 27.5 36 27.5V26.5Z" fill="#C7C7C7" mask="url(#path-3-inside-2_1824_26506)"/>
<mask id="path-5-inside-3_1824_26506" fill="white">
<path d="M63 16H103C106.314 16 109 18.6863 109 22V47C109 50.3137 106.314 53 103 53H63V16Z"/>
</mask>
<path d="M63 16H103C106.314 16 109 18.6863 109 22V47C109 50.3137 106.314 53 103 53H63V16Z" fill="white"/>
<path d="M63 16V15H62V16H63ZM63 53H62V54H63V53ZM63 16V17H103V16V15H63V16ZM109 22H108V47H109H110V22H109ZM103 53V52H63V53V54H103V53ZM63 53H64V16H63H62V53H63ZM109 47H108C108 49.7614 105.761 52 103 52V53V54C106.866 54 110 50.866 110 47H109ZM103 16V17C105.761 17 108 19.2386 108 22H109H110C110 18.134 106.866 15 103 15V16Z" fill="#C7C7C7" mask="url(#path-5-inside-3_1824_26506)"/>
<path d="M89.5343 32.167C90.0231 32.1673 90.2671 32.7618 89.9211 33.1104L86.3888 36.6719C86.1746 36.8874 85.8257 36.8874 85.6115 36.6719L82.0793 33.1104C81.7332 32.7618 81.9773 32.1673 82.466 32.167H89.5343Z" fill="#1F1F1F"/>
<path d="M775.254 39V30.81L773.518 31.552V30.194L775.814 29.2H776.78V39H775.254ZM781.714 35.696V34.352H786.6V35.696H781.714ZM791.255 39V37.894L795.273 33.694C795.516 33.442 795.702 33.2133 795.833 33.008C795.973 32.8027 796.071 32.6067 796.127 32.42C796.192 32.224 796.225 32.0233 796.225 31.818C796.225 31.4073 796.057 31.0667 795.721 30.796C795.385 30.5253 794.96 30.39 794.447 30.39C793.999 30.39 793.579 30.4787 793.187 30.656C792.795 30.8333 792.366 31.1413 791.899 31.58L791.031 30.53C791.572 30.0353 792.128 29.6667 792.697 29.424C793.266 29.172 793.859 29.046 794.475 29.046C795.119 29.046 795.684 29.1627 796.169 29.396C796.654 29.62 797.032 29.9327 797.303 30.334C797.574 30.7353 797.709 31.202 797.709 31.734C797.709 32.0513 797.667 32.35 797.583 32.63C797.499 32.91 797.354 33.1947 797.149 33.484C796.953 33.7733 796.678 34.1047 796.323 34.478L793.201 37.698L797.891 37.684V39H791.255ZM803.243 39.14C802.45 39.14 801.75 38.93 801.143 38.51C800.546 38.0807 800.075 37.488 799.729 36.732C799.393 35.9667 799.225 35.0893 799.225 34.1C799.225 33.092 799.393 32.21 799.729 31.454C800.075 30.698 800.546 30.11 801.143 29.69C801.75 29.2607 802.45 29.046 803.243 29.046C804.037 29.046 804.732 29.2607 805.329 29.69C805.936 30.11 806.407 30.698 806.743 31.454C807.079 32.21 807.247 33.092 807.247 34.1C807.247 35.0893 807.079 35.9667 806.743 36.732C806.407 37.488 805.936 38.0807 805.329 38.51C804.732 38.93 804.037 39.14 803.243 39.14ZM803.243 37.782C803.747 37.782 804.181 37.6327 804.545 37.334C804.919 37.026 805.208 36.5967 805.413 36.046C805.619 35.4953 805.721 34.8467 805.721 34.1C805.721 33.344 805.619 32.6907 805.413 32.14C805.208 31.5893 804.919 31.1647 804.545 30.866C804.181 30.558 803.747 30.404 803.243 30.404C802.739 30.404 802.301 30.558 801.927 30.866C801.563 31.1647 801.274 31.5893 801.059 32.14C800.854 32.6907 800.751 33.344 800.751 34.1C800.751 34.8467 800.854 35.4953 801.059 36.046C801.274 36.5967 801.563 37.026 801.927 37.334C802.301 37.6327 802.739 37.782 803.243 37.782Z" fill="#151515"/>
<path d="M816.074 39.112C815.439 39.112 814.87 38.958 814.366 38.65C813.862 38.342 813.465 37.922 813.176 37.39C812.887 36.858 812.742 36.256 812.742 35.584C812.742 34.912 812.887 34.31 813.176 33.778C813.465 33.246 813.862 32.826 814.366 32.518C814.87 32.21 815.439 32.056 816.074 32.056C816.699 32.056 817.259 32.21 817.754 32.518C818.258 32.826 818.655 33.246 818.944 33.778C819.233 34.31 819.378 34.912 819.378 35.584C819.378 36.256 819.233 36.858 818.944 37.39C818.655 37.922 818.258 38.342 817.754 38.65C817.259 38.958 816.699 39.112 816.074 39.112ZM816.06 38.216C816.508 38.216 816.905 38.104 817.25 37.88C817.595 37.6467 817.866 37.3293 818.062 36.928C818.267 36.5267 818.37 36.0787 818.37 35.584C818.37 35.08 818.267 34.632 818.062 34.24C817.866 33.8387 817.595 33.526 817.25 33.302C816.905 33.0687 816.508 32.952 816.06 32.952C815.612 32.952 815.215 33.0687 814.87 33.302C814.525 33.526 814.249 33.8387 814.044 34.24C813.848 34.632 813.75 35.08 813.75 35.584C813.75 36.0787 813.848 36.5267 814.044 36.928C814.249 37.3293 814.525 37.6467 814.87 37.88C815.215 38.104 815.612 38.216 816.06 38.216ZM821.615 39V33.008H820.089V32.168H821.615V30.74C821.615 30.068 821.793 29.55 822.147 29.186C822.502 28.822 823.006 28.64 823.659 28.64C823.846 28.64 824.014 28.6493 824.163 28.668C824.322 28.6867 824.462 28.7193 824.583 28.766V29.69C824.434 29.6433 824.299 29.6107 824.177 29.592C824.056 29.5733 823.916 29.564 823.757 29.564C823.365 29.564 823.081 29.662 822.903 29.858C822.726 30.0447 822.637 30.3433 822.637 30.754V32.168H824.583V33.008H822.637V39H821.615Z" fill="#151515"/>
<path d="M832.934 39.154C831.609 39.154 830.461 38.7107 829.49 37.824L830.414 36.774C830.834 37.1473 831.245 37.418 831.646 37.586C832.057 37.754 832.505 37.838 832.99 37.838C833.41 37.838 833.774 37.7587 834.082 37.6C834.399 37.4413 834.642 37.2173 834.81 36.928C834.987 36.6293 835.076 36.2933 835.076 35.92C835.076 35.3693 834.875 34.926 834.474 34.59C834.082 34.2447 833.573 34.072 832.948 34.072C832.621 34.072 832.299 34.114 831.982 34.198C831.674 34.282 831.352 34.4127 831.016 34.59L829.938 34.268L830.162 29.2H836.112V30.516H831.506L831.38 33.33C831.735 33.1527 832.071 33.036 832.388 32.98C832.715 32.9147 833.046 32.882 833.382 32.882C834.035 32.882 834.605 33.008 835.09 33.26C835.575 33.5027 835.953 33.848 836.224 34.296C836.495 34.7347 836.63 35.248 836.63 35.836C836.63 36.4987 836.476 37.0773 836.168 37.572C835.86 38.0667 835.426 38.454 834.866 38.734C834.315 39.014 833.671 39.154 832.934 39.154ZM837.821 39V37.894L841.839 33.694C842.082 33.442 842.269 33.2133 842.399 33.008C842.539 32.8027 842.637 32.6067 842.693 32.42C842.759 32.224 842.791 32.0233 842.791 31.818C842.791 31.4073 842.623 31.0667 842.287 30.796C841.951 30.5253 841.527 30.39 841.013 30.39C840.565 30.39 840.145 30.4787 839.753 30.656C839.361 30.8333 838.932 31.1413 838.465 31.58L837.597 30.53C838.139 30.0353 838.694 29.6667 839.263 29.424C839.833 29.172 840.425 29.046 841.041 29.046C841.685 29.046 842.25 29.1627 842.735 29.396C843.221 29.62 843.599 29.9327 843.869 30.334C844.14 30.7353 844.275 31.202 844.275 31.734C844.275 32.0513 844.233 32.35 844.149 32.63C844.065 32.91 843.921 33.1947 843.715 33.484C843.519 33.7733 843.244 34.1047 842.889 34.478L839.767 37.698L844.457 37.684V39H837.821ZM849.208 39.154C848.48 39.154 847.803 39.028 847.178 38.776C846.552 38.5147 846.02 38.1507 845.582 37.684L846.604 36.704C846.996 37.1147 847.388 37.404 847.78 37.572C848.172 37.7307 848.638 37.81 849.18 37.81C849.609 37.81 849.982 37.7447 850.3 37.614C850.626 37.474 850.878 37.2827 851.056 37.04C851.233 36.7973 851.322 36.5127 851.322 36.186C851.322 35.8967 851.247 35.64 851.098 35.416C850.948 35.192 850.743 35.0193 850.482 34.898C850.22 34.7673 849.917 34.702 849.572 34.702H848.368V33.414H849.446C849.922 33.414 850.3 33.2833 850.58 33.022C850.869 32.7607 851.014 32.406 851.014 31.958C851.014 31.6687 850.93 31.4073 850.762 31.174C850.603 30.9313 850.384 30.7447 850.104 30.614C849.824 30.474 849.506 30.404 849.152 30.404C848.657 30.404 848.223 30.4927 847.85 30.67C847.486 30.838 847.108 31.1367 846.716 31.566L845.68 30.6C846.128 30.096 846.655 29.7133 847.262 29.452C847.878 29.1813 848.522 29.046 849.194 29.046C849.847 29.046 850.426 29.1627 850.93 29.396C851.434 29.6293 851.826 29.956 852.106 30.376C852.395 30.7867 852.54 31.258 852.54 31.79C852.54 32.3127 852.367 32.7793 852.022 33.19C851.686 33.5913 851.242 33.8713 850.692 34.03C851.345 34.17 851.868 34.4453 852.26 34.856C852.661 35.2573 852.862 35.7333 852.862 36.284C852.862 36.8347 852.703 37.3293 852.386 37.768C852.068 38.1973 851.634 38.538 851.084 38.79C850.542 39.0327 849.917 39.154 849.208 39.154Z" fill="#151515"/>
<path fill-rule="evenodd" clip-rule="evenodd" d="M870.444 36.9816L874.481 32.9116C874.877 32.5132 874.598 31.8333 874.039 31.8333H865.961C865.403 31.8333 865.123 32.5132 865.519 32.9116L869.556 36.9816C869.801 37.2283 870.2 37.2283 870.444 36.9816Z" fill="#1F1F1F"/>
<path d="M929.494 30.2138C929.751 29.9567 930.167 29.9567 930.422 30.2138L931.039 30.8319C931.296 31.089 931.296 31.5044 931.039 31.7587L928.406 34.3974L931.042 37.0331C931.299 37.2901 931.299 37.7056 931.042 37.9599L930.424 38.581C930.167 38.8377 929.751 38.8378 929.497 38.581L925.778 34.8622C925.518 34.6053 925.518 34.1896 925.775 33.9325L929.494 30.2138Z" fill="#A3A3A3"/>
<path d="M971.391 30.0263C971.649 29.7692 972.064 29.7692 972.318 30.0263L976.037 33.745C976.297 34.0021 976.297 34.4177 976.04 34.6747L972.321 38.3935C972.064 38.6504 971.649 38.6501 971.394 38.3935L970.776 37.7753C970.519 37.5183 970.519 37.1028 970.776 36.8485L973.412 34.2128L970.776 31.5761C970.519 31.319 970.519 30.9036 970.776 30.6493L971.391 30.0263Z" fill="#1F1F1F"/>
<mask id="path-17-inside-4_1824_26506" fill="white">
<path d="M202 22C202 18.6863 204.686 16 208 16H336C339.314 16 342 18.6863 342 22V47C342 50.3137 339.314 53 336 53H208C204.686 53 202 50.3137 202 47V22Z"/>
</mask>
<path d="M202 22C202 18.6863 204.686 16 208 16H336C339.314 16 342 18.6863 342 22V47C342 50.3137 339.314 53 336 53H208C204.686 53 202 50.3137 202 47V22Z" fill="white"/>
<path d="M208 16V17H336V16V15H208V16ZM342 22H341V47H342H343V22H342ZM336 53V52H208V53V54H336V53ZM202 47H203V22H202H201V47H202ZM208 53V52C205.239 52 203 49.7614 203 47H202H201C201 50.866 204.134 54 208 54V53ZM342 47H341C341 49.7614 338.761 52 336 52V53V54C339.866 54 343 50.866 343 47H342ZM336 16V17C338.761 17 341 19.2386 341 22H342H343C343 18.134 339.866 15 336 15V16ZM208 16V15C204.134 15 201 18.134 201 22H202H203C203 19.2386 205.239 17 208 17V16Z" fill="#C7C7C7" mask="url(#path-17-inside-4_1824_26506)"/>
<path d="M218.126 39L222.004 29.2H223.292L227.114 39H225.952L224.79 35.92H220.422L219.26 39H218.126ZM220.758 35.066H224.468L222.606 30.18L220.758 35.066ZM228.292 39V28.892L229.314 28.682V39H228.292ZM231.409 39V28.892L232.431 28.682V39H231.409ZM237.794 39V32.168H238.816V33.568C238.993 33.092 239.245 32.7233 239.572 32.462C239.908 32.1913 240.291 32.056 240.72 32.056C240.841 32.056 240.953 32.0653 241.056 32.084C241.159 32.0933 241.261 32.1167 241.364 32.154V33.078C241.252 33.0407 241.131 33.0127 241 32.994C240.879 32.966 240.762 32.952 240.65 32.952C240.23 32.952 239.861 33.0733 239.544 33.316C239.236 33.5587 238.993 33.8993 238.816 34.338V39H237.794ZM245.372 39.14C244.738 39.14 244.164 38.986 243.65 38.678C243.137 38.3607 242.731 37.936 242.432 37.404C242.134 36.8627 241.984 36.256 241.984 35.584C241.984 34.912 242.124 34.31 242.404 33.778C242.694 33.246 243.081 32.826 243.566 32.518C244.052 32.21 244.593 32.056 245.19 32.056C245.797 32.056 246.334 32.21 246.8 32.518C247.276 32.8167 247.65 33.2273 247.92 33.75C248.2 34.2633 248.34 34.8467 248.34 35.5V35.808H242.978C243.016 36.2747 243.142 36.6947 243.356 37.068C243.58 37.432 243.87 37.7213 244.224 37.936C244.588 38.1413 244.985 38.244 245.414 38.244C245.769 38.244 246.11 38.1833 246.436 38.062C246.772 37.9313 247.057 37.7587 247.29 37.544L247.934 38.23C247.542 38.538 247.136 38.7667 246.716 38.916C246.296 39.0653 245.848 39.14 245.372 39.14ZM243.006 35.08H247.332C247.286 34.6693 247.16 34.3053 246.954 33.988C246.758 33.6613 246.506 33.4047 246.198 33.218C245.9 33.0313 245.564 32.938 245.19 32.938C244.817 32.938 244.476 33.0313 244.168 33.218C243.86 33.3953 243.604 33.6473 243.398 33.974C243.202 34.2913 243.072 34.66 243.006 35.08ZM252.268 39.14C251.708 39.14 251.19 39.056 250.714 38.888C250.238 38.7107 249.832 38.4587 249.496 38.132L250.042 37.46C250.452 37.7587 250.83 37.978 251.176 38.118C251.521 38.2487 251.876 38.314 252.24 38.314C252.734 38.314 253.145 38.1973 253.472 37.964C253.798 37.7307 253.962 37.432 253.962 37.068C253.962 36.788 253.864 36.5687 253.668 36.41C253.481 36.2513 253.168 36.13 252.73 36.046L251.61 35.85C250.947 35.7287 250.457 35.5233 250.14 35.234C249.832 34.9447 249.678 34.5527 249.678 34.058C249.678 33.666 249.78 33.3207 249.986 33.022C250.2 32.7233 250.494 32.49 250.868 32.322C251.241 32.1447 251.666 32.056 252.142 32.056C252.608 32.056 253.052 32.126 253.472 32.266C253.892 32.3967 254.316 32.6113 254.746 32.91L254.242 33.624C253.887 33.372 253.532 33.19 253.178 33.078C252.823 32.9567 252.464 32.896 252.1 32.896C251.652 32.896 251.292 32.994 251.022 33.19C250.751 33.386 250.616 33.652 250.616 33.988C250.616 34.268 250.7 34.4827 250.868 34.632C251.045 34.7813 251.353 34.8933 251.792 34.968L252.94 35.178C253.63 35.2993 254.134 35.5093 254.452 35.808C254.769 36.1067 254.928 36.508 254.928 37.012C254.928 37.4133 254.811 37.7773 254.578 38.104C254.344 38.4213 254.027 38.6733 253.626 38.86C253.224 39.0467 252.772 39.14 252.268 39.14ZM259.576 39.112C258.941 39.112 258.372 38.958 257.868 38.65C257.364 38.342 256.967 37.922 256.678 37.39C256.389 36.858 256.244 36.256 256.244 35.584C256.244 34.912 256.389 34.31 256.678 33.778C256.967 33.246 257.364 32.826 257.868 32.518C258.372 32.21 258.941 32.056 259.576 32.056C260.201 32.056 260.761 32.21 261.256 32.518C261.76 32.826 262.157 33.246 262.446 33.778C262.735 34.31 262.88 34.912 262.88 35.584C262.88 36.256 262.735 36.858 262.446 37.39C262.157 37.922 261.76 38.342 261.256 38.65C260.761 38.958 260.201 39.112 259.576 39.112ZM259.562 38.216C260.01 38.216 260.407 38.104 260.752 37.88C261.097 37.6467 261.368 37.3293 261.564 36.928C261.769 36.5267 261.872 36.0787 261.872 35.584C261.872 35.08 261.769 34.632 261.564 34.24C261.368 33.8387 261.097 33.526 260.752 33.302C260.407 33.0687 260.01 32.952 259.562 32.952C259.114 32.952 258.717 33.0687 258.372 33.302C258.027 33.526 257.751 33.8387 257.546 34.24C257.35 34.632 257.252 35.08 257.252 35.584C257.252 36.0787 257.35 36.5267 257.546 36.928C257.751 37.3293 258.027 37.6467 258.372 37.88C258.717 38.104 259.114 38.216 259.562 38.216ZM267.109 39.112C266.624 39.112 266.194 39.0047 265.821 38.79C265.448 38.5753 265.154 38.2767 264.939 37.894C264.734 37.5113 264.631 37.0727 264.631 36.578V32.168H265.667V36.284C265.667 36.8907 265.83 37.3713 266.157 37.726C266.484 38.0807 266.927 38.258 267.487 38.258C267.87 38.258 268.21 38.1693 268.509 37.992C268.817 37.8147 269.074 37.558 269.279 37.222V32.168H270.301V39H269.279V37.894C269.018 38.2953 268.705 38.5987 268.341 38.804C267.986 39.0093 267.576 39.112 267.109 39.112ZM272.398 39V32.168H273.42V33.568C273.597 33.092 273.849 32.7233 274.176 32.462C274.512 32.1913 274.894 32.056 275.324 32.056C275.445 32.056 275.557 32.0653 275.66 32.084C275.762 32.0933 275.865 32.1167 275.968 32.154V33.078C275.856 33.0407 275.734 33.0127 275.604 32.994C275.482 32.966 275.366 32.952 275.254 32.952C274.834 32.952 274.465 33.0733 274.148 33.316C273.84 33.5587 273.597 33.8993 273.42 34.338V39H272.398ZM279.962 39.112C279.327 39.112 278.753 38.958 278.24 38.65C277.736 38.3327 277.334 37.908 277.036 37.376C276.737 36.8347 276.588 36.2373 276.588 35.584C276.588 34.9213 276.737 34.324 277.036 33.792C277.334 33.26 277.736 32.84 278.24 32.532C278.753 32.2147 279.327 32.056 279.962 32.056C280.466 32.056 280.946 32.1493 281.404 32.336C281.861 32.5227 282.258 32.784 282.594 33.12L281.936 33.834C281.693 33.5633 281.399 33.3533 281.054 33.204C280.708 33.0547 280.358 32.98 280.004 32.98C279.556 32.98 279.15 33.0967 278.786 33.33C278.431 33.5633 278.146 33.876 277.932 34.268C277.717 34.66 277.61 35.0987 277.61 35.584C277.61 36.0693 277.717 36.508 277.932 36.9C278.146 37.292 278.431 37.6047 278.786 37.838C279.15 38.0713 279.556 38.188 280.004 38.188C280.358 38.188 280.708 38.1133 281.054 37.964C281.399 37.8053 281.693 37.5953 281.936 37.334L282.594 38.048C282.258 38.384 281.861 38.6453 281.404 38.832C280.946 39.0187 280.466 39.112 279.962 39.112ZM286.894 39.14C286.259 39.14 285.685 38.986 285.172 38.678C284.658 38.3607 284.252 37.936 283.954 37.404C283.655 36.8627 283.506 36.256 283.506 35.584C283.506 34.912 283.646 34.31 283.926 33.778C284.215 33.246 284.602 32.826 285.088 32.518C285.573 32.21 286.114 32.056 286.712 32.056C287.318 32.056 287.855 32.21 288.322 32.518C288.798 32.8167 289.171 33.2273 289.442 33.75C289.722 34.2633 289.862 34.8467 289.862 35.5V35.808H284.5C284.537 36.2747 284.663 36.6947 284.878 37.068C285.102 37.432 285.391 37.7213 285.746 37.936C286.11 38.1413 286.506 38.244 286.936 38.244C287.29 38.244 287.631 38.1833 287.958 38.062C288.294 37.9313 288.578 37.7587 288.812 37.544L289.456 38.23C289.064 38.538 288.658 38.7667 288.238 38.916C287.818 39.0653 287.37 39.14 286.894 39.14ZM284.528 35.08H288.854C288.807 34.6693 288.681 34.3053 288.476 33.988C288.28 33.6613 288.028 33.4047 287.72 33.218C287.421 33.0313 287.085 32.938 286.712 32.938C286.338 32.938 285.998 33.0313 285.69 33.218C285.382 33.3953 285.125 33.6473 284.92 33.974C284.724 34.2913 284.593 34.66 284.528 35.08ZM293.789 39.14C293.229 39.14 292.711 39.056 292.235 38.888C291.759 38.7107 291.353 38.4587 291.017 38.132L291.563 37.46C291.974 37.7587 292.352 37.978 292.697 38.118C293.042 38.2487 293.397 38.314 293.761 38.314C294.256 38.314 294.666 38.1973 294.993 37.964C295.32 37.7307 295.483 37.432 295.483 37.068C295.483 36.788 295.385 36.5687 295.189 36.41C295.002 36.2513 294.69 36.13 294.251 36.046L293.131 35.85C292.468 35.7287 291.978 35.5233 291.661 35.234C291.353 34.9447 291.199 34.5527 291.199 34.058C291.199 33.666 291.302 33.3207 291.507 33.022C291.722 32.7233 292.016 32.49 292.389 32.322C292.762 32.1447 293.187 32.056 293.663 32.056C294.13 32.056 294.573 32.126 294.993 32.266C295.413 32.3967 295.838 32.6113 296.267 32.91L295.763 33.624C295.408 33.372 295.054 33.19 294.699 33.078C294.344 32.9567 293.985 32.896 293.621 32.896C293.173 32.896 292.814 32.994 292.543 33.19C292.272 33.386 292.137 33.652 292.137 33.988C292.137 34.268 292.221 34.4827 292.389 34.632C292.566 34.7813 292.874 34.8933 293.313 34.968L294.461 35.178C295.152 35.2993 295.656 35.5093 295.973 35.808C296.29 36.1067 296.449 36.508 296.449 37.012C296.449 37.4133 296.332 37.7773 296.099 38.104C295.866 38.4213 295.548 38.6733 295.147 38.86C294.746 39.0467 294.293 39.14 293.789 39.14Z" fill="#151515"/>
<path d="M319.534 32.667C320.023 32.6672 320.267 33.2618 319.921 33.6104L316.389 37.1719C316.174 37.3874 315.825 37.3875 315.611 37.1719L312.079 33.6104C311.733 33.2617 311.978 32.667 312.467 32.667H319.534Z" fill="#1F1F1F"/>
<path d="M134.008 38V29.6H137.74C138.292 29.6 138.78 29.708 139.204 29.924C139.628 30.14 139.956 30.44 140.188 30.824C140.428 31.2 140.548 31.64 140.548 32.144C140.548 32.688 140.396 33.164 140.092 33.572C139.796 33.972 139.392 34.264 138.88 34.448L140.656 38H139.06L137.44 34.64H135.448V38H134.008ZM135.448 33.488H137.608C138.056 33.488 138.416 33.368 138.688 33.128C138.96 32.88 139.096 32.556 139.096 32.156C139.096 31.748 138.96 31.424 138.688 31.184C138.416 30.936 138.056 30.812 137.608 30.812H135.448V33.488ZM144.394 38.12C143.818 38.12 143.298 37.984 142.834 37.712C142.37 37.432 142.002 37.06 141.73 36.596C141.458 36.124 141.322 35.592 141.322 35C141.322 34.408 141.45 33.88 141.706 33.416C141.962 32.952 142.31 32.584 142.75 32.312C143.198 32.032 143.694 31.892 144.238 31.892C144.798 31.892 145.29 32.028 145.714 32.3C146.146 32.572 146.482 32.94 146.722 33.404C146.97 33.868 147.094 34.4 147.094 35V35.324H142.654C142.702 35.652 142.806 35.944 142.966 36.2C143.134 36.448 143.346 36.644 143.602 36.788C143.866 36.932 144.15 37.004 144.454 37.004C144.734 37.004 144.998 36.956 145.246 36.86C145.502 36.756 145.714 36.616 145.882 36.44L146.77 37.244C146.402 37.548 146.026 37.772 145.642 37.916C145.266 38.052 144.85 38.12 144.394 38.12ZM142.666 34.484H145.81C145.762 34.196 145.662 33.94 145.51 33.716C145.366 33.492 145.182 33.316 144.958 33.188C144.742 33.06 144.502 32.996 144.238 32.996C143.974 32.996 143.73 33.06 143.506 33.188C143.29 33.308 143.11 33.48 142.966 33.704C142.822 33.928 142.722 34.188 142.666 34.484ZM150.575 38.12C150.063 38.12 149.583 38.052 149.135 37.916C148.695 37.772 148.315 37.568 147.995 37.304L148.631 36.404C149.031 36.652 149.375 36.828 149.663 36.932C149.959 37.036 150.259 37.088 150.563 37.088C150.923 37.088 151.215 37.012 151.439 36.86C151.663 36.708 151.775 36.512 151.775 36.272C151.775 36.088 151.707 35.944 151.571 35.84C151.443 35.728 151.231 35.644 150.935 35.588L149.879 35.408C149.295 35.296 148.859 35.104 148.571 34.832C148.283 34.56 148.139 34.2 148.139 33.752C148.139 33.376 148.235 33.052 148.427 32.78C148.627 32.5 148.899 32.284 149.243 32.132C149.595 31.972 150.003 31.892 150.467 31.892C150.883 31.892 151.287 31.952 151.679 32.072C152.071 32.192 152.455 32.372 152.831 32.612L152.195 33.512C151.891 33.312 151.587 33.168 151.283 33.08C150.987 32.984 150.687 32.936 150.383 32.936C150.071 32.936 149.819 33 149.627 33.128C149.443 33.248 149.351 33.416 149.351 33.632C149.351 33.824 149.411 33.972 149.531 34.076C149.659 34.172 149.879 34.244 150.191 34.292L151.259 34.496C151.859 34.6 152.303 34.792 152.591 35.072C152.887 35.344 153.035 35.708 153.035 36.164C153.035 36.532 152.927 36.864 152.711 37.16C152.495 37.456 152.203 37.692 151.835 37.868C151.467 38.036 151.047 38.12 150.575 38.12ZM157.084 38.108C156.516 38.108 156 37.972 155.536 37.7C155.08 37.428 154.72 37.06 154.456 36.596C154.192 36.124 154.06 35.592 154.06 35C154.06 34.408 154.192 33.88 154.456 33.416C154.72 32.944 155.08 32.572 155.536 32.3C155.992 32.028 156.508 31.892 157.084 31.892C157.66 31.892 158.172 32.028 158.62 32.3C159.076 32.572 159.436 32.944 159.7 33.416C159.964 33.88 160.096 34.408 160.096 35C160.096 35.592 159.964 36.124 159.7 36.596C159.436 37.06 159.076 37.428 158.62 37.7C158.172 37.972 157.66 38.108 157.084 38.108ZM157.084 36.956C157.412 36.956 157.7 36.872 157.948 36.704C158.204 36.536 158.404 36.304 158.548 36.008C158.692 35.704 158.764 35.368 158.764 35C158.764 34.624 158.692 34.292 158.548 34.004C158.404 33.708 158.204 33.476 157.948 33.308C157.7 33.132 157.412 33.044 157.084 33.044C156.756 33.044 156.464 33.132 156.208 33.308C155.952 33.476 155.752 33.708 155.608 34.004C155.464 34.292 155.392 34.624 155.392 35C155.392 35.376 155.464 35.712 155.608 36.008C155.752 36.304 155.952 36.536 156.208 36.704C156.464 36.872 156.756 36.956 157.084 36.956ZM163.548 38.096C163.132 38.096 162.768 38.004 162.456 37.82C162.144 37.636 161.896 37.384 161.712 37.064C161.536 36.744 161.448 36.372 161.448 35.948V31.988H162.816V35.552C162.816 36 162.932 36.356 163.164 36.62C163.404 36.876 163.728 37.004 164.136 37.004C164.408 37.004 164.652 36.944 164.868 36.824C165.092 36.704 165.284 36.524 165.444 36.284V31.988H166.8V38H165.444V37.028C165.212 37.38 164.936 37.648 164.616 37.832C164.296 38.008 163.94 38.096 163.548 38.096ZM168.481 38V31.988H169.837V33.284C170.013 32.828 170.241 32.48 170.521 32.24C170.801 32 171.125 31.88 171.493 31.88C171.605 31.888 171.705 31.9 171.793 31.916C171.881 31.924 171.977 31.952 172.081 32V33.188C171.977 33.14 171.857 33.104 171.721 33.08C171.593 33.056 171.465 33.044 171.337 33.044C171.009 33.044 170.713 33.132 170.449 33.308C170.193 33.484 169.989 33.728 169.837 34.04V38H168.481ZM175.67 38.108C175.102 38.108 174.586 37.972 174.122 37.7C173.666 37.42 173.302 37.044 173.03 36.572C172.766 36.1 172.634 35.576 172.634 35C172.634 34.416 172.766 33.892 173.03 33.428C173.302 32.956 173.666 32.584 174.122 32.312C174.586 32.032 175.102 31.892 175.67 31.892C176.134 31.892 176.574 31.98 176.99 32.156C177.414 32.332 177.774 32.584 178.07 32.912L177.23 33.788C177.022 33.556 176.79 33.38 176.534 33.26C176.278 33.14 176.006 33.08 175.718 33.08C175.39 33.08 175.094 33.168 174.83 33.344C174.574 33.512 174.37 33.74 174.218 34.028C174.066 34.316 173.99 34.64 173.99 35C173.99 35.36 174.066 35.688 174.218 35.984C174.37 36.272 174.574 36.5 174.83 36.668C175.094 36.836 175.39 36.92 175.718 36.92C176.006 36.92 176.278 36.86 176.534 36.74C176.79 36.62 177.022 36.448 177.23 36.224L178.07 37.088C177.774 37.416 177.414 37.668 176.99 37.844C176.574 38.02 176.134 38.108 175.67 38.108ZM181.812 38.12C181.236 38.12 180.716 37.984 180.252 37.712C179.788 37.432 179.42 37.06 179.148 36.596C178.876 36.124 178.74 35.592 178.74 35C178.74 34.408 178.868 33.88 179.124 33.416C179.38 32.952 179.728 32.584 180.168 32.312C180.616 32.032 181.112 31.892 181.656 31.892C182.216 31.892 182.708 32.028 183.132 32.3C183.564 32.572 183.9 32.94 184.14 33.404C184.388 33.868 184.512 34.4 184.512 35V35.324H180.072C180.12 35.652 180.224 35.944 180.384 36.2C180.552 36.448 180.764 36.644 181.02 36.788C181.284 36.932 181.568 37.004 181.872 37.004C182.152 37.004 182.416 36.956 182.664 36.86C182.92 36.756 183.132 36.616 183.3 36.44L184.188 37.244C183.82 37.548 183.444 37.772 183.06 37.916C182.684 38.052 182.268 38.12 181.812 38.12ZM180.084 34.484H183.228C183.18 34.196 183.08 33.94 182.928 33.716C182.784 33.492 182.6 33.316 182.376 33.188C182.16 33.06 181.92 32.996 181.656 32.996C181.392 32.996 181.148 33.06 180.924 33.188C180.708 33.308 180.528 33.48 180.384 33.704C180.24 33.928 180.14 34.188 180.084 34.484Z" fill="#151515"/>
<mask id="path-22-inside-5_1824_26506" fill="white">
<path d="M419 23C419 19.6863 421.686 17 425 17H526C529.314 17 532 19.6863 532 23V48C532 51.3137 529.314 54 526 54H425C421.686 54 419 51.3137 419 48V23Z"/>
</mask>
<path d="M419 23C419 19.6863 421.686 17 425 17H526C529.314 17 532 19.6863 532 23V48C532 51.3137 529.314 54 526 54H425C421.686 54 419 51.3137 419 48V23Z" fill="white"/>
<path d="M425 17V18H526V17V16H425V17ZM532 23H531V48H532H533V23H532ZM526 54V53H425V54V55H526V54ZM419 48H420V23H419H418V48H419ZM425 54V53C422.239 53 420 50.7614 420 48H419H418C418 51.866 421.134 55 425 55V54ZM532 48H531C531 50.7614 528.761 53 526 53V54V55C529.866 55 533 51.866 533 48H532ZM526 17V18C528.761 18 531 20.2386 531 23H532H533C533 19.134 529.866 16 526 16V17ZM425 17V16C421.134 16 418 19.134 418 23H419H420C420 20.2386 422.239 18 425 18V17Z" fill="#C7C7C7" mask="url(#path-22-inside-5_1824_26506)"/>
<path d="M436.246 40V30.2H440.264C440.889 30.2 441.435 30.3213 441.902 30.564C442.369 30.7973 442.733 31.124 442.994 31.544C443.255 31.964 443.386 32.4587 443.386 33.028C443.386 33.6813 443.204 34.2413 442.84 34.708C442.476 35.1653 441.977 35.4873 441.342 35.674L443.428 40H442.238L440.25 35.814H437.324V40H436.246ZM437.324 34.918H440.18C440.824 34.918 441.337 34.75 441.72 34.414C442.112 34.0687 442.308 33.6113 442.308 33.042C442.308 32.4633 442.112 32.006 441.72 31.67C441.337 31.3247 440.824 31.152 440.18 31.152H437.324V34.918ZM447.414 40.112C446.928 40.112 446.499 40.0047 446.126 39.79C445.752 39.5753 445.458 39.2767 445.244 38.894C445.038 38.5113 444.936 38.0727 444.936 37.578V33.168H445.972V37.284C445.972 37.8907 446.135 38.3713 446.462 38.726C446.788 39.0807 447.232 39.258 447.792 39.258C448.174 39.258 448.515 39.1693 448.814 38.992C449.122 38.8147 449.378 38.558 449.584 38.222V33.168H450.606V40H449.584V38.894C449.322 39.2953 449.01 39.5987 448.646 39.804C448.291 40.0093 447.88 40.112 447.414 40.112ZM452.702 40V33.168H453.724V34.274C453.986 33.8633 454.298 33.56 454.662 33.364C455.026 33.1587 455.437 33.056 455.894 33.056C456.389 33.056 456.818 33.1633 457.182 33.378C457.556 33.5833 457.845 33.8773 458.05 34.26C458.265 34.6333 458.372 35.072 458.372 35.576V40H457.35V35.87C457.35 35.2633 457.182 34.7873 456.846 34.442C456.52 34.0873 456.076 33.91 455.516 33.91C455.143 33.91 454.802 33.9987 454.494 34.176C454.186 34.3533 453.93 34.6147 453.724 34.96V40H452.702ZM460.427 40V33.168H461.449V34.274C461.71 33.8633 462.023 33.56 462.387 33.364C462.751 33.1587 463.162 33.056 463.619 33.056C464.114 33.056 464.543 33.1633 464.907 33.378C465.28 33.5833 465.57 33.8773 465.775 34.26C465.99 34.6333 466.097 35.072 466.097 35.576V40H465.075V35.87C465.075 35.2633 464.907 34.7873 464.571 34.442C464.244 34.0873 463.801 33.91 463.241 33.91C462.868 33.91 462.527 33.9987 462.219 34.176C461.911 34.3533 461.654 34.6147 461.449 34.96V40H460.427ZM468.138 40V33.168H469.16V40H468.138ZM468.656 31.474C468.45 31.474 468.273 31.404 468.124 31.264C467.984 31.1147 467.914 30.942 467.914 30.746C467.914 30.55 467.984 30.382 468.124 30.242C468.273 30.0927 468.45 30.018 468.656 30.018C468.861 30.018 469.034 30.0927 469.174 30.242C469.323 30.382 469.398 30.55 469.398 30.746C469.398 30.942 469.323 31.1147 469.174 31.264C469.034 31.404 468.861 31.474 468.656 31.474ZM471.255 40V33.168H472.277V34.274C472.538 33.8633 472.851 33.56 473.215 33.364C473.579 33.1587 473.99 33.056 474.447 33.056C474.942 33.056 475.371 33.1633 475.735 33.378C476.108 33.5833 476.398 33.8773 476.603 34.26C476.818 34.6333 476.925 35.072 476.925 35.576V40H475.903V35.87C475.903 35.2633 475.735 34.7873 475.399 34.442C475.072 34.0873 474.629 33.91 474.069 33.91C473.696 33.91 473.355 33.9987 473.047 34.176C472.739 34.3533 472.482 34.6147 472.277 34.96V40H471.255ZM482.144 43.066C481.686 43.066 481.224 43.0007 480.758 42.87C480.3 42.7487 479.876 42.576 479.484 42.352L479.918 41.568C480.338 41.7827 480.72 41.9413 481.066 42.044C481.411 42.1467 481.756 42.198 482.102 42.198C482.727 42.198 483.198 42.0487 483.516 41.75C483.842 41.4513 484.006 41.0173 484.006 40.448V39.076C483.744 39.4027 483.427 39.6547 483.054 39.832C482.68 40 482.27 40.084 481.822 40.084C481.234 40.084 480.702 39.93 480.226 39.622C479.75 39.3047 479.372 38.8847 479.092 38.362C478.812 37.83 478.672 37.2373 478.672 36.584C478.672 35.9307 478.812 35.3427 479.092 34.82C479.381 34.288 479.768 33.868 480.254 33.56C480.739 33.2427 481.28 33.084 481.878 33.084C482.307 33.084 482.704 33.168 483.068 33.336C483.432 33.4947 483.749 33.7327 484.02 34.05V33.168H485.028V40.434C485.028 41.2833 484.78 41.932 484.286 42.38C483.791 42.8373 483.077 43.066 482.144 43.066ZM482.074 39.202C482.475 39.202 482.844 39.1227 483.18 38.964C483.516 38.796 483.791 38.5673 484.006 38.278V34.904C483.782 34.6147 483.497 34.3907 483.152 34.232C482.816 34.064 482.456 33.98 482.074 33.98C481.616 33.98 481.206 34.092 480.842 34.316C480.487 34.54 480.202 34.848 479.988 35.24C479.782 35.632 479.68 36.08 479.68 36.584C479.68 37.0787 479.782 37.5267 479.988 37.928C480.202 38.32 480.487 38.6327 480.842 38.866C481.206 39.09 481.616 39.202 482.074 39.202Z" fill="#151515"/>
<path d="M509.534 33.667C510.023 33.6672 510.267 34.2618 509.921 34.6104L506.389 38.1719C506.174 38.3874 505.825 38.3875 505.611 38.1719L502.079 34.6104C501.733 34.2617 501.978 33.667 502.467 33.667H509.534Z" fill="#1F1F1F"/>
<path d="M369.816 39.132C369.16 39.132 368.54 39.02 367.956 38.796C367.38 38.564 366.824 38.224 366.288 37.776L367.068 36.72C367.612 37.16 368.096 37.476 368.52 37.668C368.952 37.852 369.412 37.944 369.9 37.944C370.268 37.944 370.592 37.888 370.872 37.776C371.16 37.656 371.38 37.496 371.532 37.296C371.692 37.096 371.772 36.864 371.772 36.6C371.772 36.256 371.656 35.996 371.424 35.82C371.2 35.636 370.808 35.496 370.248 35.4L368.7 35.136C367.972 35.008 367.428 34.764 367.068 34.404C366.716 34.036 366.54 33.568 366.54 33C366.54 32.496 366.668 32.056 366.924 31.68C367.18 31.296 367.536 31 367.992 30.792C368.456 30.576 369.004 30.468 369.636 30.468C370.268 30.468 370.868 30.56 371.436 30.744C372.004 30.928 372.528 31.196 373.008 31.548L372.276 32.628C371.852 32.308 371.416 32.068 370.968 31.908C370.52 31.74 370.06 31.656 369.588 31.656C369.252 31.656 368.956 31.708 368.7 31.812C368.452 31.916 368.256 32.06 368.112 32.244C367.976 32.428 367.908 32.632 367.908 32.856C367.908 33.16 368.008 33.396 368.208 33.564C368.416 33.724 368.748 33.844 369.204 33.924L370.704 34.176C371.552 34.328 372.176 34.592 372.576 34.968C372.984 35.344 373.188 35.852 373.188 36.492C373.188 37.004 373.044 37.46 372.756 37.86C372.476 38.26 372.084 38.572 371.58 38.796C371.076 39.02 370.488 39.132 369.816 39.132ZM376.897 39.12C376.289 39.12 375.829 38.98 375.517 38.7C375.205 38.412 375.049 37.992 375.049 37.44V34.068H373.849V32.988H375.049V31.332L376.405 31.044V32.988H378.073V34.068H376.405V37.14C376.405 37.436 376.469 37.648 376.597 37.776C376.725 37.896 376.941 37.956 377.245 37.956C377.381 37.956 377.505 37.948 377.617 37.932C377.737 37.908 377.885 37.868 378.061 37.812V38.952C377.893 39.008 377.701 39.048 377.485 39.072C377.277 39.104 377.081 39.12 376.897 39.12ZM381.098 39.108C380.682 39.108 380.31 39.032 379.982 38.88C379.662 38.72 379.41 38.504 379.226 38.232C379.05 37.952 378.962 37.632 378.962 37.272C378.962 36.912 379.054 36.6 379.238 36.336C379.43 36.072 379.698 35.868 380.042 35.724C380.386 35.58 380.794 35.508 381.266 35.508C381.546 35.508 381.822 35.54 382.094 35.604C382.366 35.66 382.63 35.756 382.886 35.892V35.22C382.886 34.82 382.77 34.52 382.538 34.32C382.314 34.12 381.97 34.02 381.506 34.02C381.258 34.02 380.99 34.06 380.702 34.14C380.422 34.212 380.106 34.328 379.754 34.488L379.274 33.504C380.154 33.096 380.986 32.892 381.77 32.892C382.554 32.892 383.158 33.084 383.582 33.468C384.014 33.844 384.23 34.38 384.23 35.076V39H382.886V38.376C382.63 38.624 382.354 38.808 382.058 38.928C381.762 39.048 381.442 39.108 381.098 39.108ZM380.234 37.248C380.234 37.528 380.346 37.748 380.57 37.908C380.794 38.068 381.094 38.148 381.47 38.148C381.742 38.148 381.994 38.108 382.226 38.028C382.466 37.94 382.686 37.812 382.886 37.644V36.672C382.678 36.576 382.462 36.504 382.238 36.456C382.014 36.408 381.77 36.384 381.506 36.384C381.114 36.384 380.802 36.46 380.57 36.612C380.346 36.764 380.234 36.976 380.234 37.248ZM388.287 39.12C387.679 39.12 387.219 38.98 386.907 38.7C386.595 38.412 386.439 37.992 386.439 37.44V34.068H385.239V32.988H386.439V31.332L387.795 31.044V32.988H389.463V34.068H387.795V37.14C387.795 37.436 387.859 37.648 387.987 37.776C388.115 37.896 388.331 37.956 388.635 37.956C388.771 37.956 388.895 37.948 389.007 37.932C389.127 37.908 389.275 37.868 389.451 37.812V38.952C389.283 39.008 389.091 39.048 388.875 39.072C388.667 39.104 388.471 39.12 388.287 39.12ZM392.716 39.096C392.3 39.096 391.936 39.004 391.624 38.82C391.312 38.636 391.064 38.384 390.88 38.064C390.704 37.744 390.616 37.372 390.616 36.948V32.988H391.984V36.552C391.984 37 392.1 37.356 392.332 37.62C392.572 37.876 392.896 38.004 393.304 38.004C393.576 38.004 393.82 37.944 394.036 37.824C394.26 37.704 394.452 37.524 394.612 37.284V32.988H395.968V39H394.612V38.028C394.38 38.38 394.104 38.648 393.784 38.832C393.464 39.008 393.108 39.096 392.716 39.096ZM399.689 39.12C399.177 39.12 398.697 39.052 398.249 38.916C397.809 38.772 397.429 38.568 397.109 38.304L397.745 37.404C398.145 37.652 398.489 37.828 398.777 37.932C399.073 38.036 399.373 38.088 399.677 38.088C400.037 38.088 400.329 38.012 400.553 37.86C400.777 37.708 400.889 37.512 400.889 37.272C400.889 37.088 400.821 36.944 400.685 36.84C400.557 36.728 400.345 36.644 400.049 36.588L398.993 36.408C398.409 36.296 397.973 36.104 397.685 35.832C397.397 35.56 397.253 35.2 397.253 34.752C397.253 34.376 397.349 34.052 397.541 33.78C397.741 33.5 398.013 33.284 398.357 33.132C398.709 32.972 399.117 32.892 399.581 32.892C399.997 32.892 400.401 32.952 400.793 33.072C401.185 33.192 401.569 33.372 401.945 33.612L401.309 34.512C401.005 34.312 400.701 34.168 400.397 34.08C400.101 33.984 399.801 33.936 399.497 33.936C399.185 33.936 398.933 34 398.741 34.128C398.557 34.248 398.465 34.416 398.465 34.632C398.465 34.824 398.525 34.972 398.645 35.076C398.773 35.172 398.993 35.244 399.305 35.292L400.373 35.496C400.973 35.6 401.417 35.792 401.705 36.072C402.001 36.344 402.149 36.708 402.149 37.164C402.149 37.532 402.041 37.864 401.825 38.16C401.609 38.456 401.317 38.692 400.949 38.868C400.581 39.036 400.161 39.12 399.689 39.12Z" fill="#151515"/>
<mask id="path-27-inside-6_1824_26506" fill="white">
<path d="M600 23C600 19.6863 602.686 17 606 17H711C714.314 17 717 19.6863 717 23V48C717 51.3137 714.314 54 711 54H606C602.686 54 600 51.3137 600 48V23Z"/>
</mask>
<path d="M600 23C600 19.6863 602.686 17 606 17H711C714.314 17 717 19.6863 717 23V48C717 51.3137 714.314 54 711 54H606C602.686 54 600 51.3137 600 48V23Z" fill="white"/>
<path d="M606 17V18H711V17V16H606V17ZM717 23H716V48H717H718V23H717ZM711 54V53H606V54V55H711V54ZM600 48H601V23H600H599V48H600ZM606 54V53C603.239 53 601 50.7614 601 48H600H599C599 51.866 602.134 55 606 55V54ZM717 48H716C716 50.7614 713.761 53 711 53V54V55C714.866 55 718 51.866 718 48H717ZM711 17V18C713.761 18 716 20.2386 716 23H717H718C718 19.134 714.866 16 711 16V17ZM606 17V16C602.134 16 599 19.134 599 23H600H601C601 20.2386 603.239 18 606 18V17Z" fill="#C7C7C7" mask="url(#path-27-inside-6_1824_26506)"/>
<path d="M616.126 40L620.004 30.2H621.292L625.114 40H623.952L622.79 36.92H618.422L617.26 40H616.126ZM618.758 36.066H622.468L620.606 31.18L618.758 36.066ZM626.292 40V33.168H627.314V34.274C627.576 33.8633 627.888 33.56 628.252 33.364C628.616 33.1587 629.027 33.056 629.484 33.056C629.979 33.056 630.408 33.1633 630.772 33.378C631.146 33.5833 631.435 33.8773 631.64 34.26C631.855 34.6333 631.962 35.072 631.962 35.576V40H630.94V35.87C630.94 35.2633 630.772 34.7873 630.436 34.442C630.11 34.0873 629.666 33.91 629.106 33.91C628.733 33.91 628.392 33.9987 628.084 34.176C627.776 34.3533 627.52 34.6147 627.314 34.96V40H626.292ZM634.174 43.066C633.959 43.066 633.74 43.0333 633.516 42.968V42.058C633.609 42.0767 633.707 42.0907 633.81 42.1C633.913 42.1093 634.001 42.114 634.076 42.114C634.337 42.114 634.552 42.044 634.72 41.904C634.897 41.764 635.047 41.5447 635.168 41.246L635.672 40L633.04 33.168H634.174L636.246 38.782L638.444 33.168H639.578L636.134 41.554C635.985 41.918 635.821 42.212 635.644 42.436C635.467 42.66 635.261 42.8187 635.028 42.912C634.795 43.0147 634.51 43.066 634.174 43.066ZM646.724 40.14C646.136 40.14 645.688 40 645.38 39.72C645.082 39.4307 644.932 39.0153 644.932 38.474V34.008H643.518V33.168H644.932V31.292L645.954 31.054V33.168H647.914V34.008H645.954V38.208C645.954 38.572 646.029 38.8333 646.178 38.992C646.337 39.1507 646.594 39.23 646.948 39.23C647.126 39.23 647.284 39.216 647.424 39.188C647.564 39.16 647.728 39.1133 647.914 39.048V39.958C647.728 40.0233 647.532 40.07 647.326 40.098C647.121 40.126 646.92 40.14 646.724 40.14ZM649.842 43.066C649.627 43.066 649.408 43.0333 649.184 42.968V42.058C649.277 42.0767 649.375 42.0907 649.478 42.1C649.581 42.1093 649.669 42.114 649.744 42.114C650.005 42.114 650.22 42.044 650.388 41.904C650.565 41.764 650.715 41.5447 650.836 41.246L651.34 40L648.708 33.168H649.842L651.914 38.782L654.112 33.168H655.246L651.802 41.554C651.653 41.918 651.489 42.212 651.312 42.436C651.135 42.66 650.929 42.8187 650.696 42.912C650.463 43.0147 650.178 43.066 649.842 43.066ZM656.521 42.926V33.168H657.529V34.148C657.79 33.8027 658.107 33.5413 658.481 33.364C658.863 33.1773 659.283 33.084 659.741 33.084C660.338 33.084 660.87 33.2427 661.337 33.56C661.813 33.868 662.191 34.288 662.471 34.82C662.751 35.3427 662.891 35.9307 662.891 36.584C662.891 37.2373 662.746 37.83 662.457 38.362C662.177 38.894 661.794 39.3187 661.309 39.636C660.833 39.944 660.291 40.098 659.685 40.098C659.255 40.098 658.859 40.0187 658.495 39.86C658.131 39.692 657.813 39.454 657.543 39.146V42.926H656.521ZM659.489 39.216C659.946 39.216 660.352 39.104 660.707 38.88C661.071 38.6467 661.355 38.334 661.561 37.942C661.775 37.5407 661.883 37.0927 661.883 36.598C661.883 36.094 661.775 35.646 661.561 35.254C661.355 34.862 661.071 34.554 660.707 34.33C660.352 34.0967 659.946 33.98 659.489 33.98C659.087 33.98 658.714 34.064 658.369 34.232C658.033 34.3907 657.757 34.6193 657.543 34.918V38.264C657.767 38.5627 658.047 38.796 658.383 38.964C658.728 39.132 659.097 39.216 659.489 39.216ZM667.763 40.14C667.128 40.14 666.554 39.986 666.041 39.678C665.527 39.3607 665.121 38.936 664.823 38.404C664.524 37.8627 664.375 37.256 664.375 36.584C664.375 35.912 664.515 35.31 664.795 34.778C665.084 34.246 665.471 33.826 665.957 33.518C666.442 33.21 666.983 33.056 667.581 33.056C668.187 33.056 668.724 33.21 669.191 33.518C669.667 33.8167 670.04 34.2273 670.311 34.75C670.591 35.2633 670.731 35.8467 670.731 36.5V36.808H665.369C665.406 37.2747 665.532 37.6947 665.747 38.068C665.971 38.432 666.26 38.7213 666.615 38.936C666.979 39.1413 667.375 39.244 667.805 39.244C668.159 39.244 668.5 39.1833 668.827 39.062C669.163 38.9313 669.447 38.7587 669.681 38.544L670.325 39.23C669.933 39.538 669.527 39.7667 669.107 39.916C668.687 40.0653 668.239 40.14 667.763 40.14ZM665.397 36.08H669.723C669.676 35.6693 669.55 35.3053 669.345 34.988C669.149 34.6613 668.897 34.4047 668.589 34.218C668.29 34.0313 667.954 33.938 667.581 33.938C667.207 33.938 666.867 34.0313 666.559 34.218C666.251 34.3953 665.994 34.6473 665.789 34.974C665.593 35.2913 665.462 35.66 665.397 36.08Z" fill="#151515"/>
<path d="M694.534 33.667C695.023 33.6672 695.267 34.2618 694.921 34.6104L691.389 38.1719C691.174 38.3874 690.825 38.3875 690.611 38.1719L687.079 34.6104C686.733 34.2617 686.978 33.667 687.467 33.667H694.534Z" fill="#1F1F1F"/>
<path d="M559.108 39V31.848H556.3V30.6H563.356V31.848H560.548V39H559.108ZM564.409 41.628C564.193 41.628 563.969 41.6 563.737 41.544V40.368C563.817 40.384 563.901 40.396 563.989 40.404C564.085 40.412 564.177 40.416 564.265 40.416C564.505 40.416 564.701 40.36 564.853 40.248C565.005 40.136 565.133 39.964 565.237 39.732L565.513 39.06L563.245 32.988H564.745L566.281 37.44L567.949 32.988H569.437L566.557 40.044C566.405 40.428 566.233 40.736 566.041 40.968C565.849 41.2 565.621 41.368 565.357 41.472C565.101 41.576 564.785 41.628 564.409 41.628ZM570.422 41.508V32.988H571.754V33.84C571.97 33.552 572.238 33.332 572.558 33.18C572.886 33.02 573.242 32.94 573.626 32.94C574.138 32.94 574.598 33.076 575.006 33.348C575.414 33.62 575.738 33.988 575.978 34.452C576.218 34.916 576.338 35.432 576.338 36C576.338 36.568 576.214 37.084 575.966 37.548C575.718 38.012 575.382 38.38 574.958 38.652C574.534 38.924 574.062 39.06 573.542 39.06C573.182 39.06 572.85 38.996 572.546 38.868C572.25 38.732 571.994 38.54 571.778 38.292V41.508H570.422ZM573.218 37.932C573.562 37.932 573.866 37.848 574.13 37.68C574.402 37.512 574.614 37.284 574.766 36.996C574.926 36.7 575.006 36.368 575.006 36C575.006 35.632 574.926 35.304 574.766 35.016C574.614 34.728 574.402 34.5 574.13 34.332C573.866 34.164 573.562 34.08 573.218 34.08C572.922 34.08 572.65 34.14 572.402 34.26C572.154 34.372 571.946 34.536 571.778 34.752V37.26C571.954 37.468 572.166 37.632 572.414 37.752C572.662 37.872 572.93 37.932 573.218 37.932ZM580.554 39.12C579.978 39.12 579.458 38.984 578.994 38.712C578.53 38.432 578.162 38.06 577.89 37.596C577.618 37.124 577.482 36.592 577.482 36C577.482 35.408 577.61 34.88 577.866 34.416C578.122 33.952 578.47 33.584 578.91 33.312C579.358 33.032 579.854 32.892 580.398 32.892C580.958 32.892 581.45 33.028 581.874 33.3C582.306 33.572 582.642 33.94 582.882 34.404C583.13 34.868 583.254 35.4 583.254 36V36.324H578.814C578.862 36.652 578.966 36.944 579.126 37.2C579.294 37.448 579.506 37.644 579.762 37.788C580.026 37.932 580.31 38.004 580.614 38.004C580.894 38.004 581.158 37.956 581.406 37.86C581.662 37.756 581.874 37.616 582.042 37.44L582.93 38.244C582.562 38.548 582.186 38.772 581.802 38.916C581.426 39.052 581.01 39.12 580.554 39.12ZM578.826 35.484H581.97C581.922 35.196 581.822 34.94 581.67 34.716C581.526 34.492 581.342 34.316 581.118 34.188C580.902 34.06 580.662 33.996 580.398 33.996C580.134 33.996 579.89 34.06 579.666 34.188C579.45 34.308 579.27 34.48 579.126 34.704C578.982 34.928 578.882 35.188 578.826 35.484Z" fill="#151515"/>
<path d="M353.5 47.6667C352.027 47.6667 350.833 46.4728 350.833 45C350.833 43.5272 352.027 42.3333 353.5 42.3333C354.973 42.3333 356.167 43.5272 356.167 45C356.167 46.4728 354.973 47.6667 353.5 47.6667ZM353.5 71H353V45H353.5H354V71H353.5Z" fill="#C806CC"/>
<rect x="260" y="71" width="187" height="29" rx="14.5" fill="#C806CC"/>
<path d="M283.078 86.5547C283.078 85.4766 282.901 84.6589 282.547 84.1016C282.198 83.5391 281.688 83.2578 281.016 83.2578C280.312 83.2578 279.776 83.5391 279.406 84.1016C279.036 84.6589 278.852 85.4766 278.852 86.5547C278.852 87.6328 279.036 88.4557 279.406 89.0234C279.781 89.5859 280.323 89.8672 281.031 89.8672C281.693 89.8672 282.198 89.5833 282.547 89.0156C282.901 88.4479 283.078 87.6276 283.078 86.5547ZM284.516 90.4375C284.516 91.75 284.206 92.7448 283.586 93.4219C282.966 94.099 282.055 94.4375 280.852 94.4375C280.456 94.4375 280.042 94.401 279.609 94.3281C279.177 94.2552 278.745 94.1484 278.312 94.0078V92.5859C278.823 92.8255 279.286 93.0026 279.703 93.1172C280.12 93.2318 280.503 93.2891 280.852 93.2891C281.628 93.2891 282.193 93.0781 282.547 92.6562C282.901 92.2344 283.078 91.5651 283.078 90.6484V90.5859V89.6094C282.849 90.099 282.536 90.4635 282.141 90.7031C281.745 90.9427 281.263 91.0625 280.695 91.0625C279.674 91.0625 278.859 90.6536 278.25 89.8359C277.641 89.0182 277.336 87.9245 277.336 86.5547C277.336 85.1797 277.641 84.0833 278.25 83.2656C278.859 82.4479 279.674 82.0391 280.695 82.0391C281.258 82.0391 281.734 82.151 282.125 82.375C282.516 82.599 282.833 82.9453 283.078 83.4141V82.2812H284.516V90.4375ZM291.633 87.8359C291.633 88.4818 291.75 88.9688 291.984 89.2969C292.224 89.625 292.576 89.7891 293.039 89.7891H294.719V91H292.898C292.039 91 291.372 90.7266 290.898 90.1797C290.43 89.6276 290.195 88.8464 290.195 87.8359V79.9219H287.891V78.7969H291.633V87.8359ZM300.469 83.2578C299.74 83.2578 299.188 83.5417 298.812 84.1094C298.438 84.6771 298.25 85.5182 298.25 86.6328C298.25 87.7422 298.438 88.5833 298.812 89.1562C299.188 89.724 299.74 90.0078 300.469 90.0078C301.203 90.0078 301.758 89.724 302.133 89.1562C302.508 88.5833 302.695 87.7422 302.695 86.6328C302.695 85.5182 302.508 84.6771 302.133 84.1094C301.758 83.5417 301.203 83.2578 300.469 83.2578ZM300.469 82.0391C301.682 82.0391 302.609 82.4323 303.25 83.2188C303.896 84.0052 304.219 85.1432 304.219 86.6328C304.219 88.1276 303.898 89.2682 303.258 90.0547C302.617 90.8359 301.688 91.2266 300.469 91.2266C299.255 91.2266 298.328 90.8359 297.688 90.0547C297.047 89.2682 296.727 88.1276 296.727 86.6328C296.727 85.1432 297.047 84.0052 297.688 83.2188C298.328 82.4323 299.255 82.0391 300.469 82.0391ZM312.469 86.6328C312.469 85.5182 312.292 84.6771 311.938 84.1094C311.583 83.5417 311.06 83.2578 310.367 83.2578C309.669 83.2578 309.141 83.5443 308.781 84.1172C308.422 84.6849 308.242 85.5234 308.242 86.6328C308.242 87.737 308.422 88.5755 308.781 89.1484C309.141 89.7214 309.669 90.0078 310.367 90.0078C311.06 90.0078 311.583 89.724 311.938 89.1562C312.292 88.5885 312.469 87.7474 312.469 86.6328ZM308.242 83.3672C308.471 82.9401 308.786 82.612 309.188 82.3828C309.594 82.1536 310.062 82.0391 310.594 82.0391C311.646 82.0391 312.474 82.4453 313.078 83.2578C313.682 84.0651 313.984 85.1797 313.984 86.6016C313.984 88.0443 313.68 89.1771 313.07 90C312.466 90.8177 311.635 91.2266 310.578 91.2266C310.057 91.2266 309.596 91.1146 309.195 90.8906C308.799 90.6615 308.482 90.3307 308.242 89.8984V91H306.805V78.8438H308.242V83.3672ZM320.422 86.6016H319.945C319.107 86.6016 318.474 86.75 318.047 87.0469C317.625 87.3385 317.414 87.776 317.414 88.3594C317.414 88.8854 317.573 89.2943 317.891 89.5859C318.208 89.8776 318.648 90.0234 319.211 90.0234C320.003 90.0234 320.625 89.75 321.078 89.2031C321.531 88.651 321.76 87.8906 321.766 86.9219V86.6016H320.422ZM323.211 86.0078V91H321.766V89.7031C321.458 90.224 321.07 90.6094 320.602 90.8594C320.138 91.1042 319.573 91.2266 318.906 91.2266C318.016 91.2266 317.305 90.9766 316.773 90.4766C316.242 89.9714 315.977 89.2969 315.977 88.4531C315.977 87.4792 316.302 86.7396 316.953 86.2344C317.609 85.7292 318.57 85.4766 319.836 85.4766H321.766V85.25C321.76 84.5521 321.583 84.0469 321.234 83.7344C320.885 83.4167 320.328 83.2578 319.562 83.2578C319.073 83.2578 318.578 83.3281 318.078 83.4688C317.578 83.6094 317.091 83.8151 316.617 84.0859V82.6484C317.148 82.4453 317.656 82.2943 318.141 82.1953C318.63 82.0911 319.104 82.0391 319.562 82.0391C320.286 82.0391 320.904 82.1458 321.414 82.3594C321.93 82.5729 322.346 82.8932 322.664 83.3203C322.862 83.5807 323.003 83.9036 323.086 84.2891C323.169 84.6693 323.211 85.2422 323.211 86.0078ZM330.195 87.8359C330.195 88.4818 330.312 88.9688 330.547 89.2969C330.786 89.625 331.138 89.7891 331.602 89.7891H333.281V91H331.461C330.602 91 329.935 90.7266 329.461 90.1797C328.992 89.6276 328.758 88.8464 328.758 87.8359V79.9219H326.453V78.7969H330.195V87.8359ZM341.164 79.3359H342.648L336.508 92.4844H335.016L341.164 79.3359ZM351.461 82.5547V83.9609C351.049 83.7214 350.635 83.5417 350.219 83.4219C349.802 83.3021 349.378 83.2422 348.945 83.2422C348.294 83.2422 347.807 83.349 347.484 83.5625C347.167 83.7708 347.008 84.0911 347.008 84.5234C347.008 84.9141 347.128 85.2057 347.367 85.3984C347.607 85.5911 348.203 85.7786 349.156 85.9609L349.734 86.0703C350.448 86.2057 350.987 86.4766 351.352 86.8828C351.721 87.2891 351.906 87.8177 351.906 88.4688C351.906 89.3333 351.599 90.0104 350.984 90.5C350.37 90.9844 349.516 91.2266 348.422 91.2266C347.99 91.2266 347.536 91.1797 347.062 91.0859C346.589 90.9974 346.076 90.862 345.523 90.6797V89.1953C346.06 89.4714 346.573 89.6797 347.062 89.8203C347.552 89.9557 348.016 90.0234 348.453 90.0234C349.089 90.0234 349.581 89.8958 349.93 89.6406C350.279 89.3802 350.453 89.0182 350.453 88.5547C350.453 87.888 349.815 87.4271 348.539 87.1719L348.477 87.1562L347.938 87.0469C347.109 86.8854 346.505 86.6146 346.125 86.2344C345.745 85.849 345.555 85.3255 345.555 84.6641C345.555 83.8255 345.839 83.1797 346.406 82.7266C346.974 82.2682 347.784 82.0391 348.836 82.0391C349.305 82.0391 349.755 82.0833 350.188 82.1719C350.62 82.2552 351.044 82.3828 351.461 82.5547ZM356.43 89.8984V94.3281H354.984V82.25H356.43V83.3672C356.669 82.9349 356.987 82.6068 357.383 82.3828C357.784 82.1536 358.245 82.0391 358.766 82.0391C359.823 82.0391 360.651 82.4479 361.25 83.2656C361.854 84.0833 362.156 85.2161 362.156 86.6641C362.156 88.0859 361.854 89.2031 361.25 90.0156C360.646 90.8229 359.818 91.2266 358.766 91.2266C358.234 91.2266 357.768 91.1146 357.367 90.8906C356.971 90.6615 356.659 90.3307 356.43 89.8984ZM360.648 86.6328C360.648 85.5182 360.471 84.6771 360.117 84.1094C359.768 83.5417 359.247 83.2578 358.555 83.2578C357.857 83.2578 357.328 83.5443 356.969 84.1172C356.609 84.6849 356.43 85.5234 356.43 86.6328C356.43 87.737 356.609 88.5755 356.969 89.1484C357.328 89.7214 357.857 90.0078 358.555 90.0078C359.247 90.0078 359.768 89.724 360.117 89.1562C360.471 88.5885 360.648 87.7474 360.648 86.6328ZM368.625 86.6016H368.148C367.31 86.6016 366.677 86.75 366.25 87.0469C365.828 87.3385 365.617 87.776 365.617 88.3594C365.617 88.8854 365.776 89.2943 366.094 89.5859C366.411 89.8776 366.852 90.0234 367.414 90.0234C368.206 90.0234 368.828 89.75 369.281 89.2031C369.734 88.651 369.964 87.8906 369.969 86.9219V86.6016H368.625ZM371.414 86.0078V91H369.969V89.7031C369.661 90.224 369.273 90.6094 368.805 90.8594C368.341 91.1042 367.776 91.2266 367.109 91.2266C366.219 91.2266 365.508 90.9766 364.977 90.4766C364.445 89.9714 364.18 89.2969 364.18 88.4531C364.18 87.4792 364.505 86.7396 365.156 86.2344C365.812 85.7292 366.773 85.4766 368.039 85.4766H369.969V85.25C369.964 84.5521 369.786 84.0469 369.438 83.7344C369.089 83.4167 368.531 83.2578 367.766 83.2578C367.276 83.2578 366.781 83.3281 366.281 83.4688C365.781 83.6094 365.294 83.8151 364.82 84.0859V82.6484C365.352 82.4453 365.859 82.2943 366.344 82.1953C366.833 82.0911 367.307 82.0391 367.766 82.0391C368.49 82.0391 369.107 82.1458 369.617 82.3594C370.133 82.5729 370.549 82.8932 370.867 83.3203C371.065 83.5807 371.206 83.9036 371.289 84.2891C371.372 84.6693 371.414 85.2422 371.414 86.0078ZM381.07 90.5547C380.685 90.7786 380.286 90.9453 379.875 91.0547C379.469 91.1693 379.052 91.2266 378.625 91.2266C377.271 91.2266 376.211 90.8203 375.445 90.0078C374.685 89.1953 374.305 88.0703 374.305 86.6328C374.305 85.1953 374.685 84.0703 375.445 83.2578C376.211 82.4453 377.271 82.0391 378.625 82.0391C379.047 82.0391 379.458 82.0938 379.859 82.2031C380.26 82.3125 380.664 82.4818 381.07 82.7109V84.2188C380.69 83.8802 380.307 83.6354 379.922 83.4844C379.542 83.3333 379.109 83.2578 378.625 83.2578C377.724 83.2578 377.031 83.5495 376.547 84.1328C376.062 84.7161 375.82 85.5495 375.82 86.6328C375.82 87.7109 376.062 88.5443 376.547 89.1328C377.036 89.7161 377.729 90.0078 378.625 90.0078C379.125 90.0078 379.573 89.9323 379.969 89.7812C380.365 89.625 380.732 89.3854 381.07 89.0625V90.5547ZM391.172 85.9062V86.6094H384.945V86.6562C384.904 87.849 385.13 88.7057 385.625 89.2266C386.125 89.7474 386.828 90.0078 387.734 90.0078C388.193 90.0078 388.672 89.9349 389.172 89.7891C389.672 89.6432 390.206 89.4219 390.773 89.125V90.5547C390.227 90.7786 389.698 90.9453 389.188 91.0547C388.682 91.1693 388.193 91.2266 387.719 91.2266C386.359 91.2266 385.297 90.8203 384.531 90.0078C383.766 89.1901 383.383 88.0651 383.383 86.6328C383.383 85.237 383.758 84.1224 384.508 83.2891C385.258 82.4557 386.258 82.0391 387.508 82.0391C388.622 82.0391 389.5 82.4167 390.141 83.1719C390.786 83.9271 391.13 84.8385 391.172 85.9062ZM389.734 85.4844C389.672 84.8802 389.451 84.3594 389.07 83.9219C388.695 83.4792 388.154 83.2578 387.445 83.2578C386.753 83.2578 386.182 83.487 385.734 83.9453C385.286 84.4036 385.042 84.9193 385 85.4922L389.734 85.4844ZM401.086 84.0547C400.779 83.8151 400.466 83.6406 400.148 83.5312C399.831 83.4219 399.482 83.3672 399.102 83.3672C398.206 83.3672 397.521 83.6484 397.047 84.2109C396.573 84.7734 396.336 85.5859 396.336 86.6484V91H394.891V82.25H396.336V83.9609C396.576 83.3411 396.943 82.8672 397.438 82.5391C397.938 82.2057 398.529 82.0391 399.211 82.0391C399.565 82.0391 399.896 82.0833 400.203 82.1719C400.51 82.2604 400.805 82.3984 401.086 82.5859V84.0547ZM408.648 79.3359H410.133L403.992 92.4844H402.5L408.648 79.3359ZM416.961 87.8359C416.961 88.4818 417.078 88.9688 417.312 89.2969C417.552 89.625 417.904 89.7891 418.367 89.7891H420.047V91H418.227C417.367 91 416.701 90.7266 416.227 90.1797C415.758 89.6276 415.523 88.8464 415.523 87.8359V79.9219H413.219V78.7969H416.961V87.8359ZM427.688 86.5547C427.688 85.4766 427.51 84.6589 427.156 84.1016C426.807 83.5391 426.297 83.2578 425.625 83.2578C424.922 83.2578 424.385 83.5391 424.016 84.1016C423.646 84.6589 423.461 85.4766 423.461 86.5547C423.461 87.6328 423.646 88.4557 424.016 89.0234C424.391 89.5859 424.932 89.8672 425.641 89.8672C426.302 89.8672 426.807 89.5833 427.156 89.0156C427.51 88.4479 427.688 87.6276 427.688 86.5547ZM429.125 90.4375C429.125 91.75 428.815 92.7448 428.195 93.4219C427.576 94.099 426.664 94.4375 425.461 94.4375C425.065 94.4375 424.651 94.401 424.219 94.3281C423.786 94.2552 423.354 94.1484 422.922 94.0078V92.5859C423.432 92.8255 423.896 93.0026 424.312 93.1172C424.729 93.2318 425.112 93.2891 425.461 93.2891C426.237 93.2891 426.802 93.0781 427.156 92.6562C427.51 92.2344 427.688 91.5651 427.688 90.6484V90.5859V89.6094C427.458 90.099 427.146 90.4635 426.75 90.7031C426.354 90.9427 425.872 91.0625 425.305 91.0625C424.284 91.0625 423.469 90.6536 422.859 89.8359C422.25 89.0182 421.945 87.9245 421.945 86.5547C421.945 85.1797 422.25 84.0833 422.859 83.2656C423.469 82.4479 424.284 82.0391 425.305 82.0391C425.867 82.0391 426.344 82.151 426.734 82.375C427.125 82.599 427.443 82.9453 427.688 83.4141V82.2812H429.125V90.4375Z" fill="white"/>
<rect x="109.5" y="16.5" width="23" height="36" fill="#FF00FF" fill-opacity="0.2" stroke="#FF00FF" stroke-dasharray="2 2"/>
<rect x="342.5" y="16.5" width="23" height="36" fill="#FF00FF" fill-opacity="0.2" stroke="#FF00FF" stroke-dasharray="2 2"/>
<rect x="532.5" y="17.5" width="23" height="36" fill="#FF00FF" fill-opacity="0.2" stroke="#FF00FF" stroke-dasharray="2 2"/>
</svg>
