<svg width="738" height="237" viewBox="0 0 738 237" fill="none" xmlns="http://www.w3.org/2000/svg">
<rect width="738" height="237" fill="#F2F2F2"/>
<rect x="40" y="110" width="120" height="87" fill="white"/>
<path d="M41.136 84V72.8H46.208C46.9547 72.8 47.6053 72.9387 48.16 73.216C48.7253 73.4933 49.1627 73.8827 49.472 74.384C49.792 74.8747 49.952 75.4507 49.952 76.112C49.952 76.848 49.744 77.4827 49.328 78.016C48.912 78.5493 48.352 78.9333 47.648 79.168L50.144 84H48.288L45.968 79.408H42.816V84H41.136ZM42.816 78H46.08C46.7413 78 47.2693 77.8347 47.664 77.504C48.0693 77.1627 48.272 76.704 48.272 76.128C48.272 75.5733 48.0693 75.1253 47.664 74.784C47.2693 74.4427 46.7413 74.272 46.08 74.272H42.816V78ZM54.9105 84.144C54.1105 84.144 53.3852 83.9573 52.7345 83.584C52.0945 83.2107 51.5825 82.704 51.1985 82.064C50.8252 81.424 50.6385 80.7093 50.6385 79.92C50.6385 79.1413 50.8198 78.4373 51.1825 77.808C51.5452 77.168 52.0358 76.6613 52.6545 76.288C53.2732 75.904 53.9612 75.712 54.7185 75.712C55.4758 75.712 56.1478 75.904 56.7345 76.288C57.3212 76.6613 57.7852 77.1733 58.1265 77.824C58.4785 78.464 58.6545 79.1893 58.6545 80V80.448H52.2385C52.3238 80.896 52.4892 81.296 52.7345 81.648C52.9905 82 53.3105 82.2773 53.6945 82.48C54.0892 82.6827 54.5158 82.784 54.9745 82.784C55.3692 82.784 55.7478 82.7253 56.1105 82.608C56.4838 82.48 56.7932 82.2987 57.0385 82.064L58.0625 83.072C57.5825 83.4347 57.0865 83.7067 56.5745 83.888C56.0732 84.0587 55.5185 84.144 54.9105 84.144ZM52.2545 79.248H57.0705C57.0065 78.8213 56.8572 78.448 56.6225 78.128C56.3985 77.7973 56.1158 77.5413 55.7745 77.36C55.4438 77.168 55.0812 77.072 54.6865 77.072C54.0678 77.072 53.5345 77.2747 53.0865 77.68C52.6492 78.0747 52.3718 78.5973 52.2545 79.248ZM62.645 84.144C62.0583 84.144 61.541 84.0427 61.093 83.84C60.645 83.6267 60.293 83.3333 60.037 82.96C59.781 82.5867 59.653 82.1547 59.653 81.664C59.653 80.896 59.9463 80.2933 60.533 79.856C61.1197 79.408 61.925 79.184 62.949 79.184C63.749 79.184 64.4903 79.3387 65.173 79.648V78.784C65.173 77.6213 64.5117 77.04 63.189 77.04C62.8157 77.04 62.4263 77.0987 62.021 77.216C61.6157 77.3227 61.1623 77.4933 60.661 77.728L60.069 76.528C60.6877 76.24 61.2637 76.032 61.797 75.904C62.3303 75.7653 62.869 75.696 63.413 75.696C64.469 75.696 65.285 75.9467 65.861 76.448C66.4477 76.9493 66.741 77.664 66.741 78.592V84H65.173V83.296C64.8103 83.584 64.421 83.7973 64.005 83.936C63.589 84.0747 63.1357 84.144 62.645 84.144ZM61.189 81.632C61.189 82.0267 61.3543 82.3467 61.685 82.592C62.0263 82.8373 62.469 82.96 63.013 82.96C63.8877 82.96 64.6077 82.6987 65.173 82.176V80.8C64.5863 80.4587 63.8877 80.288 63.077 80.288C62.4903 80.288 62.0263 80.4107 61.685 80.656C61.3543 80.8907 61.189 81.216 61.189 81.632ZM72.3286 84.128C71.5713 84.128 70.878 83.9413 70.2486 83.568C69.6193 83.1947 69.1233 82.6933 68.7606 82.064C68.398 81.424 68.2166 80.7093 68.2166 79.92C68.2166 79.1307 68.398 78.4213 68.7606 77.792C69.134 77.1627 69.6353 76.6613 70.2646 76.288C70.894 75.9147 71.5926 75.728 72.3606 75.728C73.278 75.728 74.094 76 74.8086 76.544V72.8L76.4086 72.496V84H74.8246V83.216C74.1313 83.824 73.2993 84.128 72.3286 84.128ZM72.5366 82.736C73.006 82.736 73.4326 82.6507 73.8166 82.48C74.2113 82.3093 74.542 82.064 74.8086 81.744V78.08C74.542 77.7813 74.2113 77.5467 73.8166 77.376C73.422 77.1947 72.9953 77.104 72.5366 77.104C72.0246 77.104 71.5606 77.2267 71.1446 77.472C70.7286 77.7173 70.398 78.0533 70.1526 78.48C69.9073 78.896 69.7846 79.3707 69.7846 79.904C69.7846 80.4373 69.9073 80.9173 70.1526 81.344C70.398 81.7707 70.7286 82.112 71.1446 82.368C71.5606 82.6133 72.0246 82.736 72.5366 82.736ZM78.0954 80.176V78.784H83.8554V80.176H78.0954ZM89.566 84.16C88.7767 84.16 88.0567 83.9733 87.406 83.6C86.766 83.2267 86.2593 82.72 85.886 82.08C85.5127 81.44 85.326 80.7253 85.326 79.936C85.326 79.1467 85.5127 78.432 85.886 77.792C86.2593 77.152 86.766 76.6453 87.406 76.272C88.0567 75.888 88.7767 75.696 89.566 75.696C90.366 75.696 91.086 75.888 91.726 76.272C92.366 76.6453 92.8727 77.152 93.246 77.792C93.6193 78.432 93.806 79.1467 93.806 79.936C93.806 80.7253 93.6193 81.44 93.246 82.08C92.8727 82.72 92.366 83.2267 91.726 83.6C91.086 83.9733 90.366 84.16 89.566 84.16ZM89.566 82.752C90.0673 82.752 90.5153 82.6293 90.91 82.384C91.3153 82.128 91.6353 81.7867 91.87 81.36C92.1153 80.9333 92.238 80.4587 92.238 79.936C92.238 79.4027 92.1207 78.928 91.886 78.512C91.6513 78.0853 91.3313 77.744 90.926 77.488C90.5207 77.232 90.0673 77.104 89.566 77.104C89.0647 77.104 88.6113 77.232 88.206 77.488C87.8007 77.744 87.4807 78.0853 87.246 78.512C87.0113 78.928 86.894 79.4027 86.894 79.936C86.894 80.4587 87.0113 80.9333 87.246 81.36C87.4807 81.7867 87.8007 82.128 88.206 82.384C88.6113 82.6293 89.0647 82.752 89.566 82.752ZM95.319 84V75.856H96.919V76.688C97.5483 76.0267 98.3643 75.696 99.367 75.696C99.9963 75.696 100.546 75.8293 101.015 76.096C101.495 76.3627 101.868 76.736 102.135 77.216C102.412 77.696 102.551 78.2507 102.551 78.88V84H100.951V79.152C100.951 78.512 100.77 78.0107 100.407 77.648C100.044 77.2747 99.5483 77.088 98.919 77.088C98.4923 77.088 98.1083 77.1787 97.767 77.36C97.4257 77.5413 97.143 77.8027 96.919 78.144V84H95.319ZM104.397 84V72.8L105.997 72.496V84H104.397ZM108.426 87.44C108.255 87.44 108.095 87.4293 107.946 87.408C107.796 87.3973 107.674 87.376 107.578 87.344V85.936C107.77 85.9787 108.004 86 108.282 86C109.028 86 109.567 85.6 109.898 84.8L110.25 84.016L106.986 75.856H108.762L111.13 82.064L113.754 75.856H115.482L111.546 85.008C111.29 85.584 111.018 86.048 110.73 86.4C110.442 86.7627 110.111 87.024 109.738 87.184C109.364 87.3547 108.927 87.44 108.426 87.44ZM122.443 84L118.923 75.856H120.683L123.227 81.952L125.771 75.856H127.467L123.979 84H122.443ZM128.46 84V75.856H130.06V84H128.46ZM129.26 74.544C128.993 74.544 128.764 74.448 128.572 74.256C128.38 74.0533 128.284 73.8187 128.284 73.552C128.284 73.2747 128.38 73.0453 128.572 72.864C128.764 72.672 128.993 72.576 129.26 72.576C129.537 72.576 129.772 72.672 129.964 72.864C130.156 73.0453 130.252 73.2747 130.252 73.552C130.252 73.8187 130.156 74.0533 129.964 74.256C129.772 74.448 129.537 74.544 129.26 74.544ZM135.848 84.144C135.048 84.144 134.323 83.9573 133.672 83.584C133.032 83.2107 132.52 82.704 132.136 82.064C131.763 81.424 131.576 80.7093 131.576 79.92C131.576 79.1413 131.757 78.4373 132.12 77.808C132.483 77.168 132.973 76.6613 133.592 76.288C134.211 75.904 134.899 75.712 135.656 75.712C136.413 75.712 137.085 75.904 137.672 76.288C138.259 76.6613 138.723 77.1733 139.064 77.824C139.416 78.464 139.592 79.1893 139.592 80V80.448H133.176C133.261 80.896 133.427 81.296 133.672 81.648C133.928 82 134.248 82.2773 134.632 82.48C135.027 82.6827 135.453 82.784 135.912 82.784C136.307 82.784 136.685 82.7253 137.048 82.608C137.421 82.48 137.731 82.2987 137.976 82.064L139 83.072C138.52 83.4347 138.024 83.7067 137.512 83.888C137.011 84.0587 136.456 84.144 135.848 84.144ZM133.192 79.248H138.008C137.944 78.8213 137.795 78.448 137.56 78.128C137.336 77.7973 137.053 77.5413 136.712 77.36C136.381 77.168 136.019 77.072 135.624 77.072C135.005 77.072 134.472 77.2747 134.024 77.68C133.587 78.0747 133.309 78.5973 133.192 79.248ZM142.48 84L140.208 75.856H141.76L143.344 81.84L145.2 75.856H146.576L148.432 81.84L150.016 75.856H151.52L149.232 84H147.696L145.872 78.032L144.032 84H142.48Z" fill="black"/>
<path d="M41.42 44V30H51.78V31.84H43.52V36.14H48.96V37.92H43.52V44H41.42ZM53.2894 44V33.82H55.2894V44H53.2894ZM54.2894 32.18C53.956 32.18 53.6694 32.06 53.4294 31.82C53.1894 31.5667 53.0694 31.2733 53.0694 30.94C53.0694 30.5933 53.1894 30.3067 53.4294 30.08C53.6694 29.84 53.956 29.72 54.2894 29.72C54.636 29.72 54.9294 29.84 55.1694 30.08C55.4094 30.3067 55.5294 30.5933 55.5294 30.94C55.5294 31.2733 55.4094 31.5667 55.1694 31.82C54.9294 32.06 54.636 32.18 54.2894 32.18ZM62.5248 44.18C61.5248 44.18 60.6182 43.9467 59.8048 43.48C59.0048 43.0133 58.3648 42.38 57.8848 41.58C57.4182 40.78 57.1848 39.8867 57.1848 38.9C57.1848 37.9267 57.4115 37.0467 57.8648 36.26C58.3182 35.46 58.9315 34.8267 59.7048 34.36C60.4782 33.88 61.3382 33.64 62.2848 33.64C63.2315 33.64 64.0715 33.88 64.8048 34.36C65.5382 34.8267 66.1182 35.4667 66.5448 36.28C66.9848 37.08 67.2048 37.9867 67.2048 39V39.56H59.1848C59.2915 40.12 59.4982 40.62 59.8048 41.06C60.1248 41.5 60.5248 41.8467 61.0048 42.1C61.4982 42.3533 62.0315 42.48 62.6048 42.48C63.0982 42.48 63.5715 42.4067 64.0248 42.26C64.4915 42.1 64.8782 41.8733 65.1848 41.58L66.4648 42.84C65.8648 43.2933 65.2448 43.6333 64.6048 43.86C63.9782 44.0733 63.2848 44.18 62.5248 44.18ZM59.2048 38.06H65.2248C65.1448 37.5267 64.9582 37.06 64.6648 36.66C64.3848 36.2467 64.0315 35.9267 63.6048 35.7C63.1915 35.46 62.7382 35.34 62.2448 35.34C61.4715 35.34 60.8048 35.5933 60.2448 36.1C59.6982 36.5933 59.3515 37.2467 59.2048 38.06ZM69.1097 44V30L71.1097 29.62V44H69.1097ZM78.1452 44.16C77.1985 44.16 76.3318 43.9267 75.5452 43.46C74.7585 42.9933 74.1385 42.3667 73.6852 41.58C73.2318 40.78 73.0052 39.8867 73.0052 38.9C73.0052 37.9133 73.2318 37.0267 73.6852 36.24C74.1518 35.4533 74.7785 34.8267 75.5652 34.36C76.3518 33.8933 77.2252 33.66 78.1852 33.66C79.3318 33.66 80.3518 34 81.2452 34.68V30L83.2452 29.62V44H81.2652V43.02C80.3985 43.78 79.3585 44.16 78.1452 44.16ZM78.4052 42.42C78.9918 42.42 79.5252 42.3133 80.0052 42.1C80.4985 41.8867 80.9118 41.58 81.2452 41.18V36.6C80.9118 36.2267 80.4985 35.9333 80.0052 35.72C79.5118 35.4933 78.9785 35.38 78.4052 35.38C77.7652 35.38 77.1852 35.5333 76.6652 35.84C76.1452 36.1467 75.7318 36.5667 75.4252 37.1C75.1185 37.62 74.9652 38.2133 74.9652 38.88C74.9652 39.5467 75.1185 40.1467 75.4252 40.68C75.7318 41.2133 76.1452 41.64 76.6652 41.96C77.1852 42.2667 77.7652 42.42 78.4052 42.42ZM93.2933 44.2C92.4133 44.2 91.5866 44.0733 90.8133 43.82C90.0533 43.5533 89.3933 43.18 88.8333 42.7L89.9333 41.38C90.4533 41.7933 90.9866 42.1133 91.5333 42.34C92.0933 42.5533 92.6599 42.66 93.2333 42.66C93.9533 42.66 94.5399 42.52 94.9933 42.24C95.4466 41.96 95.6733 41.5933 95.6733 41.14C95.6733 40.42 95.1266 39.98 94.0333 39.82L92.1933 39.56C91.1799 39.4133 90.4199 39.1 89.9133 38.62C89.4066 38.14 89.1533 37.5 89.1533 36.7C89.1533 36.0867 89.3199 35.5533 89.6533 35.1C89.9866 34.6333 90.4533 34.2733 91.0533 34.02C91.6533 33.7533 92.3533 33.62 93.1533 33.62C93.8866 33.62 94.5933 33.7267 95.2733 33.94C95.9533 34.1533 96.6066 34.4867 97.2333 34.94L96.2133 36.26C95.1066 35.54 94.0333 35.18 92.9933 35.18C92.3799 35.18 91.8866 35.3133 91.5133 35.58C91.1399 35.8333 90.9533 36.1667 90.9533 36.58C90.9533 36.9533 91.0799 37.2467 91.3333 37.46C91.5999 37.66 92.0333 37.8 92.6333 37.88L94.4733 38.14C95.4866 38.2867 96.2533 38.6 96.7733 39.08C97.2933 39.5467 97.5533 40.18 97.5533 40.98C97.5533 41.5933 97.3666 42.1467 96.9933 42.64C96.6199 43.12 96.1133 43.5 95.4733 43.78C94.8333 44.06 94.1066 44.2 93.2933 44.2ZM99.0902 48.08V33.82H101.07V34.8C101.923 34.04 102.963 33.66 104.19 33.66C105.15 33.66 106.017 33.8933 106.79 34.36C107.577 34.8267 108.197 35.4533 108.65 36.24C109.103 37.0267 109.33 37.9133 109.33 38.9C109.33 39.8867 109.097 40.78 108.63 41.58C108.177 42.3667 107.557 42.9933 106.77 43.46C105.997 43.9267 105.123 44.16 104.15 44.16C103.59 44.16 103.05 44.0733 102.53 43.9C102.01 43.7133 101.53 43.4533 101.09 43.12V48.08H99.0902ZM103.93 42.42C104.583 42.42 105.163 42.2667 105.67 41.96C106.19 41.6533 106.603 41.24 106.91 40.72C107.217 40.1867 107.37 39.5867 107.37 38.92C107.37 38.2533 107.217 37.6533 106.91 37.12C106.603 36.5867 106.19 36.1667 105.67 35.86C105.163 35.5533 104.583 35.4 103.93 35.4C103.357 35.4 102.823 35.5067 102.33 35.72C101.837 35.9333 101.423 36.2333 101.09 36.62V41.22C101.423 41.5933 101.837 41.8867 102.33 42.1C102.837 42.3133 103.37 42.42 103.93 42.42ZM116.119 44.18C115.119 44.18 114.212 43.9467 113.399 43.48C112.599 43.0133 111.959 42.38 111.479 41.58C111.012 40.78 110.779 39.8867 110.779 38.9C110.779 37.9267 111.005 37.0467 111.459 36.26C111.912 35.46 112.525 34.8267 113.299 34.36C114.072 33.88 114.932 33.64 115.879 33.64C116.825 33.64 117.665 33.88 118.399 34.36C119.132 34.8267 119.712 35.4667 120.139 36.28C120.579 37.08 120.799 37.9867 120.799 39V39.56H112.779C112.885 40.12 113.092 40.62 113.399 41.06C113.719 41.5 114.119 41.8467 114.599 42.1C115.092 42.3533 115.625 42.48 116.199 42.48C116.692 42.48 117.165 42.4067 117.619 42.26C118.085 42.1 118.472 41.8733 118.779 41.58L120.059 42.84C119.459 43.2933 118.839 43.6333 118.199 43.86C117.572 44.0733 116.879 44.18 116.119 44.18ZM112.799 38.06H118.819C118.739 37.5267 118.552 37.06 118.259 36.66C117.979 36.2467 117.625 35.9267 117.199 35.7C116.785 35.46 116.332 35.34 115.839 35.34C115.065 35.34 114.399 35.5933 113.839 36.1C113.292 36.5933 112.945 37.2467 112.799 38.06ZM127.523 44.18C126.549 44.18 125.663 43.9467 124.863 43.48C124.076 43.0133 123.449 42.38 122.983 41.58C122.516 40.78 122.283 39.8867 122.283 38.9C122.283 37.9133 122.516 37.0267 122.983 36.24C123.449 35.44 124.076 34.8067 124.863 34.34C125.663 33.86 126.549 33.62 127.523 33.62C128.296 33.62 129.036 33.7667 129.743 34.06C130.463 34.3533 131.083 34.7667 131.603 35.3L130.363 36.68C129.976 36.2533 129.543 35.9333 129.063 35.72C128.583 35.5067 128.083 35.4 127.563 35.4C126.949 35.4 126.389 35.5533 125.883 35.86C125.389 36.1667 124.996 36.5867 124.703 37.12C124.409 37.6533 124.263 38.2467 124.263 38.9C124.263 39.5533 124.409 40.1533 124.703 40.7C124.996 41.2333 125.396 41.6533 125.903 41.96C126.409 42.2667 126.976 42.42 127.603 42.42C128.629 42.42 129.543 42.0133 130.343 41.2L131.562 42.48C131.029 43.0267 130.409 43.4467 129.703 43.74C129.009 44.0333 128.283 44.18 127.523 44.18ZM133.172 44V33.82H135.172V44H133.172ZM134.172 32.18C133.839 32.18 133.552 32.06 133.312 31.82C133.072 31.5667 132.952 31.2733 132.952 30.94C132.952 30.5933 133.072 30.3067 133.312 30.08C133.552 29.84 133.839 29.72 134.172 29.72C134.519 29.72 134.812 29.84 135.052 30.08C135.292 30.3067 135.412 30.5933 135.412 30.94C135.412 31.2733 135.292 31.5667 135.052 31.82C134.812 32.06 134.519 32.18 134.172 32.18ZM139.048 44V35.5H136.688V33.82H139.048V32.28C139.048 31.2133 139.341 30.4 139.928 29.84C140.528 29.28 141.381 29 142.488 29C142.768 29 143.028 29.02 143.268 29.06C143.521 29.0867 143.748 29.1333 143.948 29.2V30.92C143.708 30.8533 143.494 30.8067 143.308 30.78C143.121 30.74 142.914 30.72 142.688 30.72C141.581 30.72 141.028 31.26 141.028 32.34V33.82H143.948V35.5H141.028V44H139.048ZM145.477 44V33.82H147.477V44H145.477ZM146.477 32.18C146.144 32.18 145.857 32.06 145.617 31.82C145.377 31.5667 145.257 31.2733 145.257 30.94C145.257 30.5933 145.377 30.3067 145.617 30.08C145.857 29.84 146.144 29.72 146.477 29.72C146.824 29.72 147.117 29.84 147.357 30.08C147.597 30.3067 147.717 30.5933 147.717 30.94C147.717 31.2733 147.597 31.5667 147.357 31.82C147.117 32.06 146.824 32.18 146.477 32.18ZM154.612 44.18C153.639 44.18 152.752 43.9467 151.952 43.48C151.166 43.0133 150.539 42.38 150.072 41.58C149.606 40.78 149.372 39.8867 149.372 38.9C149.372 37.9133 149.606 37.0267 150.072 36.24C150.539 35.44 151.166 34.8067 151.952 34.34C152.752 33.86 153.639 33.62 154.612 33.62C155.386 33.62 156.126 33.7667 156.832 34.06C157.552 34.3533 158.172 34.7667 158.692 35.3L157.452 36.68C157.066 36.2533 156.632 35.9333 156.152 35.72C155.672 35.5067 155.172 35.4 154.652 35.4C154.039 35.4 153.479 35.5533 152.972 35.86C152.479 36.1667 152.086 36.5867 151.792 37.12C151.499 37.6533 151.352 38.2467 151.352 38.9C151.352 39.5533 151.499 40.1533 151.792 40.7C152.086 41.2333 152.486 41.6533 152.992 41.96C153.499 42.2667 154.066 42.42 154.692 42.42C155.719 42.42 156.632 42.0133 157.432 41.2L158.652 42.48C158.119 43.0267 157.499 43.4467 156.792 43.74C156.099 44.0333 155.372 44.18 154.612 44.18ZM169.322 44.18C168.322 44.18 167.415 43.9467 166.602 43.48C165.802 43.0133 165.162 42.38 164.682 41.58C164.215 40.78 163.982 39.8867 163.982 38.9C163.982 37.9267 164.208 37.0467 164.662 36.26C165.115 35.46 165.728 34.8267 166.502 34.36C167.275 33.88 168.135 33.64 169.082 33.64C170.028 33.64 170.868 33.88 171.602 34.36C172.335 34.8267 172.915 35.4667 173.342 36.28C173.782 37.08 174.002 37.9867 174.002 39V39.56H165.982C166.088 40.12 166.295 40.62 166.602 41.06C166.922 41.5 167.322 41.8467 167.802 42.1C168.295 42.3533 168.828 42.48 169.402 42.48C169.895 42.48 170.368 42.4067 170.822 42.26C171.288 42.1 171.675 41.8733 171.982 41.58L173.262 42.84C172.662 43.2933 172.042 43.6333 171.402 43.86C170.775 44.0733 170.082 44.18 169.322 44.18ZM166.002 38.06H172.022C171.942 37.5267 171.755 37.06 171.462 36.66C171.182 36.2467 170.828 35.9267 170.402 35.7C169.988 35.46 169.535 35.34 169.042 35.34C168.268 35.34 167.602 35.5933 167.042 36.1C166.495 36.5933 166.148 37.2467 166.002 38.06ZM180.626 44.16C179.679 44.16 178.812 43.9267 178.026 43.46C177.239 42.9933 176.619 42.3667 176.166 41.58C175.712 40.78 175.486 39.8867 175.486 38.9C175.486 37.9133 175.712 37.0267 176.166 36.24C176.632 35.4533 177.259 34.8267 178.046 34.36C178.832 33.8933 179.706 33.66 180.666 33.66C181.812 33.66 182.832 34 183.726 34.68V30L185.726 29.62V44H183.746V43.02C182.879 43.78 181.839 44.16 180.626 44.16ZM180.886 42.42C181.472 42.42 182.006 42.3133 182.486 42.1C182.979 41.8867 183.392 41.58 183.726 41.18V36.6C183.392 36.2267 182.979 35.9333 182.486 35.72C181.992 35.4933 181.459 35.38 180.886 35.38C180.246 35.38 179.666 35.5333 179.146 35.84C178.626 36.1467 178.212 36.5667 177.906 37.1C177.599 37.62 177.446 38.2133 177.446 38.88C177.446 39.5467 177.599 40.1467 177.906 40.68C178.212 41.2133 178.626 41.64 179.146 41.96C179.666 42.2667 180.246 42.42 180.886 42.42ZM188.094 44V33.82H190.094V44H188.094ZM189.094 32.18C188.761 32.18 188.474 32.06 188.234 31.82C187.994 31.5667 187.874 31.2733 187.874 30.94C187.874 30.5933 187.994 30.3067 188.234 30.08C188.474 29.84 188.761 29.72 189.094 29.72C189.441 29.72 189.734 29.84 189.974 30.08C190.214 30.3067 190.334 30.5933 190.334 30.94C190.334 31.2733 190.214 31.5667 189.974 31.82C189.734 32.06 189.441 32.18 189.094 32.18ZM196.81 44.18C195.823 44.18 195.07 43.9533 194.55 43.5C194.03 43.0333 193.77 42.36 193.77 41.48V35.5H191.61V33.82H193.77V31.22L195.75 30.74V33.82H198.75V35.5H195.75V41.02C195.75 41.54 195.863 41.9133 196.09 42.14C196.33 42.3533 196.716 42.46 197.25 42.46C197.53 42.46 197.776 42.44 197.99 42.4C198.216 42.36 198.456 42.3 198.71 42.22V43.9C198.443 43.9933 198.13 44.06 197.77 44.1C197.423 44.1533 197.103 44.18 196.81 44.18Z" fill="black"/>
<path d="M60.948 143V134.6H62.388V143H60.948ZM64.1798 143V136.988H65.5358V137.972C65.7678 137.612 66.0438 137.344 66.3638 137.168C66.6838 136.984 67.0398 136.892 67.4318 136.892C67.8478 136.892 68.2118 136.984 68.5238 137.168C68.8358 137.344 69.0798 137.592 69.2558 137.912C69.4398 138.232 69.5318 138.608 69.5318 139.04V143H68.1638V139.424C68.1638 138.984 68.0438 138.636 67.8038 138.38C67.5638 138.116 67.2438 137.984 66.8438 137.984C66.5718 137.984 66.3238 138.048 66.0998 138.176C65.8838 138.296 65.6958 138.476 65.5358 138.716V143H64.1798ZM71.1642 145.508V136.988H72.4962V137.84C72.7122 137.552 72.9802 137.332 73.3002 137.18C73.6282 137.02 73.9842 136.94 74.3682 136.94C74.8802 136.94 75.3402 137.076 75.7482 137.348C76.1562 137.62 76.4802 137.988 76.7202 138.452C76.9602 138.916 77.0802 139.432 77.0802 140C77.0802 140.568 76.9562 141.084 76.7082 141.548C76.4602 142.012 76.1242 142.38 75.7002 142.652C75.2762 142.924 74.8042 143.06 74.2842 143.06C73.9242 143.06 73.5922 142.996 73.2882 142.868C72.9922 142.732 72.7362 142.54 72.5202 142.292V145.508H71.1642ZM73.9602 141.932C74.3042 141.932 74.6082 141.848 74.8722 141.68C75.1442 141.512 75.3562 141.284 75.5082 140.996C75.6682 140.7 75.7482 140.368 75.7482 140C75.7482 139.632 75.6682 139.304 75.5082 139.016C75.3562 138.728 75.1442 138.5 74.8722 138.332C74.6082 138.164 74.3042 138.08 73.9602 138.08C73.6642 138.08 73.3922 138.14 73.1442 138.26C72.8962 138.372 72.6882 138.536 72.5202 138.752V141.26C72.6962 141.468 72.9082 141.632 73.1562 141.752C73.4042 141.872 73.6722 141.932 73.9602 141.932ZM80.5522 143.096C80.1362 143.096 79.7722 143.004 79.4602 142.82C79.1482 142.636 78.9002 142.384 78.7162 142.064C78.5402 141.744 78.4522 141.372 78.4522 140.948V136.988H79.8202V140.552C79.8202 141 79.9362 141.356 80.1682 141.62C80.4082 141.876 80.7322 142.004 81.1402 142.004C81.4122 142.004 81.6562 141.944 81.8722 141.824C82.0962 141.704 82.2882 141.524 82.4482 141.284V136.988H83.8042V143H82.4482V142.028C82.2162 142.38 81.9402 142.648 81.6202 142.832C81.3002 143.008 80.9442 143.096 80.5522 143.096ZM88.0765 143.12C87.4685 143.12 87.0085 142.98 86.6965 142.7C86.3845 142.412 86.2285 141.992 86.2285 141.44V138.068H85.0285V136.988H86.2285V135.332L87.5845 135.044V136.988H89.2525V138.068H87.5845V141.14C87.5845 141.436 87.6485 141.648 87.7765 141.776C87.9045 141.896 88.1205 141.956 88.4245 141.956C88.5605 141.956 88.6845 141.948 88.7965 141.932C88.9165 141.908 89.0645 141.868 89.2405 141.812V142.952C89.0725 143.008 88.8805 143.048 88.6645 143.072C88.4565 143.104 88.2605 143.12 88.0765 143.12ZM93.1486 143V134.396L94.5046 134.156V143H93.1486ZM97.996 143.108C97.58 143.108 97.208 143.032 96.88 142.88C96.56 142.72 96.308 142.504 96.124 142.232C95.948 141.952 95.86 141.632 95.86 141.272C95.86 140.912 95.952 140.6 96.136 140.336C96.328 140.072 96.596 139.868 96.94 139.724C97.284 139.58 97.692 139.508 98.164 139.508C98.444 139.508 98.72 139.54 98.992 139.604C99.264 139.66 99.528 139.756 99.784 139.892V139.22C99.784 138.82 99.668 138.52 99.436 138.32C99.212 138.12 98.868 138.02 98.404 138.02C98.156 138.02 97.888 138.06 97.6 138.14C97.32 138.212 97.004 138.328 96.652 138.488L96.172 137.504C97.052 137.096 97.884 136.892 98.668 136.892C99.452 136.892 100.056 137.084 100.48 137.468C100.912 137.844 101.128 138.38 101.128 139.076V143H99.784V142.376C99.528 142.624 99.252 142.808 98.956 142.928C98.66 143.048 98.34 143.108 97.996 143.108ZM97.132 141.248C97.132 141.528 97.244 141.748 97.468 141.908C97.692 142.068 97.992 142.148 98.368 142.148C98.64 142.148 98.892 142.108 99.124 142.028C99.364 141.94 99.584 141.812 99.784 141.644V140.672C99.576 140.576 99.36 140.504 99.136 140.456C98.912 140.408 98.668 140.384 98.404 140.384C98.012 140.384 97.7 140.46 97.468 140.612C97.244 140.764 97.132 140.976 97.132 141.248ZM102.77 143V134.432L104.126 134.204V137.792C104.342 137.52 104.606 137.312 104.918 137.168C105.238 137.016 105.59 136.94 105.974 136.94C106.486 136.94 106.946 137.076 107.354 137.348C107.762 137.62 108.086 137.988 108.326 138.452C108.566 138.916 108.686 139.432 108.686 140C108.686 140.568 108.562 141.084 108.314 141.548C108.066 142.012 107.73 142.38 107.306 142.652C106.882 142.924 106.41 143.06 105.89 143.06C105.53 143.06 105.198 142.988 104.894 142.844C104.59 142.7 104.326 142.496 104.102 142.232V143H102.77ZM105.566 141.932C105.91 141.932 106.214 141.848 106.478 141.68C106.75 141.512 106.962 141.284 107.114 140.996C107.274 140.7 107.354 140.368 107.354 140C107.354 139.632 107.274 139.304 107.114 139.016C106.962 138.728 106.75 138.5 106.478 138.332C106.214 138.164 105.91 138.08 105.566 138.08C105.27 138.08 104.998 138.14 104.75 138.26C104.502 138.372 104.294 138.536 104.126 138.752V141.26C104.302 141.468 104.514 141.632 104.762 141.752C105.01 141.872 105.278 141.932 105.566 141.932ZM112.902 143.12C112.326 143.12 111.806 142.984 111.342 142.712C110.878 142.432 110.51 142.06 110.238 141.596C109.966 141.124 109.83 140.592 109.83 140C109.83 139.408 109.958 138.88 110.214 138.416C110.47 137.952 110.818 137.584 111.258 137.312C111.706 137.032 112.202 136.892 112.746 136.892C113.306 136.892 113.798 137.028 114.222 137.3C114.654 137.572 114.99 137.94 115.23 138.404C115.478 138.868 115.602 139.4 115.602 140V140.324H111.162C111.21 140.652 111.314 140.944 111.474 141.2C111.642 141.448 111.854 141.644 112.11 141.788C112.374 141.932 112.658 142.004 112.962 142.004C113.242 142.004 113.506 141.956 113.754 141.86C114.01 141.756 114.222 141.616 114.39 141.44L115.278 142.244C114.91 142.548 114.534 142.772 114.15 142.916C113.774 143.052 113.358 143.12 112.902 143.12ZM111.174 139.484H114.318C114.27 139.196 114.17 138.94 114.018 138.716C113.874 138.492 113.69 138.316 113.466 138.188C113.25 138.06 113.01 137.996 112.746 137.996C112.482 137.996 112.238 138.06 112.014 138.188C111.798 138.308 111.618 138.48 111.474 138.704C111.33 138.928 111.23 139.188 111.174 139.484ZM116.985 143V134.396L118.341 134.156V143H116.985Z" fill="#151515"/>
<path fill-rule="evenodd" clip-rule="evenodd" d="M136.588 137.409L137.669 136.329C138.11 135.888 138.11 135.176 137.669 134.737L136.26 133.329C135.82 132.89 135.107 132.89 134.669 133.329L133.588 134.409C133.478 134.519 133.478 134.697 133.588 134.808L136.19 137.409C136.3 137.519 136.478 137.519 136.588 137.409ZM126.66 144.991L129.508 144.492L135.663 138.337C135.773 138.227 135.773 138.049 135.663 137.939L133.061 135.337C132.949 135.227 132.771 135.227 132.66 135.337L126.506 141.492L126.009 144.34C125.941 144.724 126.276 145.057 126.66 144.991ZM128.908 140.965C128.779 140.836 128.779 140.629 128.908 140.501L132.517 136.891C132.646 136.762 132.853 136.762 132.981 136.891C133.11 137.02 133.11 137.226 132.981 137.355L129.372 140.965C129.243 141.094 129.037 141.094 128.908 140.965ZM127.675 144.051L126.946 143.322L127.211 141.811H128.062V142.936H129.187V143.786L127.675 144.051Z" fill="#707070"/>
<path d="M64.41 171.154C63.6447 171.154 62.9353 171.019 62.282 170.748C61.6287 170.468 60.9987 170.048 60.392 169.488L61.05 168.704C61.638 169.255 62.1887 169.647 62.702 169.88C63.2247 170.113 63.8033 170.23 64.438 170.23C64.942 170.23 65.39 170.146 65.782 169.978C66.1833 169.801 66.496 169.563 66.72 169.264C66.944 168.965 67.056 168.625 67.056 168.242C67.056 167.747 66.8927 167.374 66.566 167.122C66.2393 166.861 65.6747 166.66 64.872 166.52L63.29 166.254C62.394 166.095 61.736 165.825 61.316 165.442C60.9053 165.05 60.7 164.527 60.7 163.874C60.7 163.323 60.84 162.838 61.12 162.418C61.4093 161.989 61.806 161.653 62.31 161.41C62.814 161.167 63.3973 161.046 64.06 161.046C64.788 161.046 65.4647 161.149 66.09 161.354C66.7153 161.55 67.3313 161.863 67.938 162.292L67.378 163.132C66.874 162.749 66.342 162.46 65.782 162.264C65.222 162.059 64.6527 161.956 64.074 161.956C63.6167 161.956 63.2107 162.035 62.856 162.194C62.5107 162.353 62.2353 162.567 62.03 162.838C61.834 163.109 61.736 163.417 61.736 163.762C61.736 164.191 61.8807 164.527 62.17 164.77C62.4593 165.013 62.9307 165.185 63.584 165.288L65.152 165.554C66.1973 165.741 66.9533 166.044 67.42 166.464C67.896 166.875 68.134 167.449 68.134 168.186C68.134 168.755 67.9707 169.264 67.644 169.712C67.3267 170.16 66.888 170.515 66.328 170.776C65.768 171.028 65.1287 171.154 64.41 171.154ZM72.1716 171.14C71.5836 171.14 71.1356 171 70.8276 170.72C70.5289 170.431 70.3796 170.015 70.3796 169.474V165.008H68.9656V164.168H70.3796V162.292L71.4016 162.054V164.168H73.3616V165.008H71.4016V169.208C71.4016 169.572 71.4762 169.833 71.6256 169.992C71.7842 170.151 72.0409 170.23 72.3956 170.23C72.5729 170.23 72.7316 170.216 72.8716 170.188C73.0116 170.16 73.1749 170.113 73.3616 170.048V170.958C73.1749 171.023 72.9789 171.07 72.7736 171.098C72.5682 171.126 72.3676 171.14 72.1716 171.14ZM76.9726 171.126C76.4873 171.126 76.0579 171.037 75.6846 170.86C75.3113 170.683 75.0173 170.44 74.8026 170.132C74.5973 169.815 74.4946 169.451 74.4946 169.04C74.4946 168.629 74.6019 168.275 74.8166 167.976C75.0313 167.668 75.3299 167.43 75.7126 167.262C76.0953 167.094 76.5433 167.01 77.0566 167.01C77.4486 167.01 77.8173 167.052 78.1626 167.136C78.5173 167.22 78.8439 167.355 79.1426 167.542V166.604C79.1426 166.044 78.9933 165.624 78.6946 165.344C78.3959 165.055 77.9573 164.91 77.3786 164.91C77.0613 164.91 76.7346 164.957 76.3986 165.05C76.0719 165.143 75.7079 165.293 75.3066 165.498L74.9286 164.714C75.8433 164.275 76.7019 164.056 77.5046 164.056C78.3539 164.056 79.0073 164.266 79.4646 164.686C79.9219 165.097 80.1506 165.689 80.1506 166.464V171H79.1426V170.202C78.8439 170.51 78.5126 170.743 78.1486 170.902C77.7846 171.051 77.3926 171.126 76.9726 171.126ZM75.4746 169.012C75.4746 169.413 75.6286 169.735 75.9366 169.978C76.2539 170.221 76.6693 170.342 77.1826 170.342C77.5653 170.342 77.9153 170.277 78.2326 170.146C78.5593 170.015 78.8626 169.819 79.1426 169.558V168.242C78.8533 168.074 78.5546 167.953 78.2466 167.878C77.9386 167.794 77.5933 167.752 77.2106 167.752C76.6879 167.752 76.2679 167.869 75.9506 168.102C75.6333 168.326 75.4746 168.629 75.4746 169.012ZM84.6267 171.14C84.0387 171.14 83.5907 171 83.2827 170.72C82.984 170.431 82.8347 170.015 82.8347 169.474V165.008H81.4207V164.168H82.8347V162.292L83.8567 162.054V164.168H85.8167V165.008H83.8567V169.208C83.8567 169.572 83.9313 169.833 84.0807 169.992C84.2393 170.151 84.496 170.23 84.8507 170.23C85.028 170.23 85.1867 170.216 85.3267 170.188C85.4667 170.16 85.63 170.113 85.8167 170.048V170.958C85.63 171.023 85.434 171.07 85.2287 171.098C85.0233 171.126 84.8227 171.14 84.6267 171.14ZM87.2997 171V164.168H88.3217V171H87.2997ZM87.8177 162.474C87.6123 162.474 87.435 162.404 87.2857 162.264C87.1457 162.115 87.0757 161.942 87.0757 161.746C87.0757 161.55 87.1457 161.382 87.2857 161.242C87.435 161.093 87.6123 161.018 87.8177 161.018C88.023 161.018 88.1957 161.093 88.3357 161.242C88.485 161.382 88.5597 161.55 88.5597 161.746C88.5597 161.942 88.485 162.115 88.3357 162.264C88.1957 162.404 88.023 162.474 87.8177 162.474ZM93.4832 171.112C92.8485 171.112 92.2745 170.958 91.7612 170.65C91.2572 170.333 90.8559 169.908 90.5572 169.376C90.2585 168.835 90.1092 168.237 90.1092 167.584C90.1092 166.921 90.2585 166.324 90.5572 165.792C90.8559 165.26 91.2572 164.84 91.7612 164.532C92.2745 164.215 92.8485 164.056 93.4832 164.056C93.9872 164.056 94.4679 164.149 94.9252 164.336C95.3825 164.523 95.7792 164.784 96.1152 165.12L95.4572 165.834C95.2145 165.563 94.9205 165.353 94.5752 165.204C94.2299 165.055 93.8799 164.98 93.5252 164.98C93.0772 164.98 92.6712 165.097 92.3072 165.33C91.9525 165.563 91.6679 165.876 91.4532 166.268C91.2385 166.66 91.1312 167.099 91.1312 167.584C91.1312 168.069 91.2385 168.508 91.4532 168.9C91.6679 169.292 91.9525 169.605 92.3072 169.838C92.6712 170.071 93.0772 170.188 93.5252 170.188C93.8799 170.188 94.2299 170.113 94.5752 169.964C94.9205 169.805 95.2145 169.595 95.4572 169.334L96.1152 170.048C95.7792 170.384 95.3825 170.645 94.9252 170.832C94.4679 171.019 93.9872 171.112 93.4832 171.112ZM103.412 171.14C102.824 171.14 102.376 171 102.068 170.72C101.769 170.431 101.62 170.015 101.62 169.474V165.008H100.206V164.168H101.62V162.292L102.642 162.054V164.168H104.602V165.008H102.642V169.208C102.642 169.572 102.716 169.833 102.866 169.992C103.024 170.151 103.281 170.23 103.636 170.23C103.813 170.23 103.972 170.216 104.112 170.188C104.252 170.16 104.415 170.113 104.602 170.048V170.958C104.415 171.023 104.219 171.07 104.014 171.098C103.808 171.126 103.608 171.14 103.412 171.14ZM109.042 171.14C108.407 171.14 107.833 170.986 107.32 170.678C106.807 170.361 106.401 169.936 106.102 169.404C105.803 168.863 105.654 168.256 105.654 167.584C105.654 166.912 105.794 166.31 106.074 165.778C106.363 165.246 106.751 164.826 107.236 164.518C107.721 164.21 108.263 164.056 108.86 164.056C109.467 164.056 110.003 164.21 110.47 164.518C110.946 164.817 111.319 165.227 111.59 165.75C111.87 166.263 112.01 166.847 112.01 167.5V167.808H106.648C106.685 168.275 106.811 168.695 107.026 169.068C107.25 169.432 107.539 169.721 107.894 169.936C108.258 170.141 108.655 170.244 109.084 170.244C109.439 170.244 109.779 170.183 110.106 170.062C110.442 169.931 110.727 169.759 110.96 169.544L111.604 170.23C111.212 170.538 110.806 170.767 110.386 170.916C109.966 171.065 109.518 171.14 109.042 171.14ZM106.676 167.08H111.002C110.955 166.669 110.829 166.305 110.624 165.988C110.428 165.661 110.176 165.405 109.868 165.218C109.569 165.031 109.233 164.938 108.86 164.938C108.487 164.938 108.146 165.031 107.838 165.218C107.53 165.395 107.273 165.647 107.068 165.974C106.872 166.291 106.741 166.66 106.676 167.08ZM112.463 171L115.081 167.458L112.617 164.168H113.835L115.725 166.772L117.601 164.168H118.763L116.285 167.486L118.917 171H117.699L115.655 168.214L113.625 171H112.463ZM122.621 171.14C122.033 171.14 121.585 171 121.277 170.72C120.978 170.431 120.829 170.015 120.829 169.474V165.008H119.415V164.168H120.829V162.292L121.851 162.054V164.168H123.811V165.008H121.851V169.208C121.851 169.572 121.925 169.833 122.075 169.992C122.233 170.151 122.49 170.23 122.845 170.23C123.022 170.23 123.181 170.216 123.321 170.188C123.461 170.16 123.624 170.113 123.811 170.048V170.958C123.624 171.023 123.428 171.07 123.223 171.098C123.017 171.126 122.817 171.14 122.621 171.14Z" fill="#151515"/>
<rect x="352" y="110" width="346" height="103" fill="white"/>
<path d="M353.136 84V72.8H361.392V74.272H354.816V77.632H359.136V79.056H354.816V82.528H361.456V84H353.136ZM366.297 84.128C365.54 84.128 364.847 83.9413 364.217 83.568C363.588 83.1947 363.092 82.6933 362.729 82.064C362.367 81.424 362.185 80.7093 362.185 79.92C362.185 79.1307 362.367 78.4213 362.729 77.792C363.103 77.1627 363.604 76.6613 364.233 76.288C364.863 75.9147 365.561 75.728 366.329 75.728C367.247 75.728 368.063 76 368.777 76.544V72.8L370.377 72.496V84H368.793V83.216C368.1 83.824 367.268 84.128 366.297 84.128ZM366.505 82.736C366.975 82.736 367.401 82.6507 367.785 82.48C368.18 82.3093 368.511 82.064 368.777 81.744V78.08C368.511 77.7813 368.18 77.5467 367.785 77.376C367.391 77.1947 366.964 77.104 366.505 77.104C365.993 77.104 365.529 77.2267 365.113 77.472C364.697 77.7173 364.367 78.0533 364.121 78.48C363.876 78.896 363.753 79.3707 363.753 79.904C363.753 80.4373 363.876 80.9173 364.121 81.344C364.367 81.7707 364.697 82.112 365.113 82.368C365.529 82.6133 365.993 82.736 366.505 82.736ZM372.272 84V75.856H373.872V84H372.272ZM373.072 74.544C372.805 74.544 372.576 74.448 372.384 74.256C372.192 74.0533 372.096 73.8187 372.096 73.552C372.096 73.2747 372.192 73.0453 372.384 72.864C372.576 72.672 372.805 72.576 373.072 72.576C373.349 72.576 373.584 72.672 373.776 72.864C373.968 73.0453 374.064 73.2747 374.064 73.552C374.064 73.8187 373.968 74.0533 373.776 74.256C373.584 74.448 373.349 74.544 373.072 74.544ZM379.245 84.144C378.455 84.144 377.853 83.9627 377.437 83.6C377.021 83.2267 376.812 82.688 376.812 81.984V77.2H375.085V75.856H376.812V73.776L378.397 73.392V75.856H380.797V77.2H378.397V81.616C378.397 82.032 378.487 82.3307 378.669 82.512C378.861 82.6827 379.17 82.768 379.597 82.768C379.821 82.768 380.018 82.752 380.189 82.72C380.37 82.688 380.562 82.64 380.765 82.576V83.92C380.551 83.9947 380.301 84.048 380.013 84.08C379.735 84.1227 379.479 84.144 379.245 84.144ZM387.943 84L384.423 75.856H386.183L388.727 81.952L391.271 75.856H392.967L389.479 84H387.943ZM393.96 84V75.856H395.56V84H393.96ZM394.76 74.544C394.493 74.544 394.264 74.448 394.072 74.256C393.88 74.0533 393.784 73.8187 393.784 73.552C393.784 73.2747 393.88 73.0453 394.072 72.864C394.264 72.672 394.493 72.576 394.76 72.576C395.037 72.576 395.272 72.672 395.464 72.864C395.656 73.0453 395.752 73.2747 395.752 73.552C395.752 73.8187 395.656 74.0533 395.464 74.256C395.272 74.448 395.037 74.544 394.76 74.544ZM401.348 84.144C400.548 84.144 399.823 83.9573 399.172 83.584C398.532 83.2107 398.02 82.704 397.636 82.064C397.263 81.424 397.076 80.7093 397.076 79.92C397.076 79.1413 397.257 78.4373 397.62 77.808C397.983 77.168 398.473 76.6613 399.092 76.288C399.711 75.904 400.399 75.712 401.156 75.712C401.913 75.712 402.585 75.904 403.172 76.288C403.759 76.6613 404.223 77.1733 404.564 77.824C404.916 78.464 405.092 79.1893 405.092 80V80.448H398.676C398.761 80.896 398.927 81.296 399.172 81.648C399.428 82 399.748 82.2773 400.132 82.48C400.527 82.6827 400.953 82.784 401.412 82.784C401.807 82.784 402.185 82.7253 402.548 82.608C402.921 82.48 403.231 82.2987 403.476 82.064L404.5 83.072C404.02 83.4347 403.524 83.7067 403.012 83.888C402.511 84.0587 401.956 84.144 401.348 84.144ZM398.692 79.248H403.508C403.444 78.8213 403.295 78.448 403.06 78.128C402.836 77.7973 402.553 77.5413 402.212 77.36C401.881 77.168 401.519 77.072 401.124 77.072C400.505 77.072 399.972 77.2747 399.524 77.68C399.087 78.0747 398.809 78.5973 398.692 79.248ZM407.98 84L405.708 75.856H407.26L408.844 81.84L410.7 75.856H412.076L413.932 81.84L415.516 75.856H417.02L414.732 84H413.196L411.372 78.032L409.532 84H407.98Z" fill="black"/>
<path d="M372.948 143V134.6H374.388V143H372.948ZM376.18 143V136.988H377.536V137.972C377.768 137.612 378.044 137.344 378.364 137.168C378.684 136.984 379.04 136.892 379.432 136.892C379.848 136.892 380.212 136.984 380.524 137.168C380.836 137.344 381.08 137.592 381.256 137.912C381.44 138.232 381.532 138.608 381.532 139.04V143H380.164V139.424C380.164 138.984 380.044 138.636 379.804 138.38C379.564 138.116 379.244 137.984 378.844 137.984C378.572 137.984 378.324 138.048 378.1 138.176C377.884 138.296 377.696 138.476 377.536 138.716V143H376.18ZM383.164 145.508V136.988H384.496V137.84C384.712 137.552 384.98 137.332 385.3 137.18C385.628 137.02 385.984 136.94 386.368 136.94C386.88 136.94 387.34 137.076 387.748 137.348C388.156 137.62 388.48 137.988 388.72 138.452C388.96 138.916 389.08 139.432 389.08 140C389.08 140.568 388.956 141.084 388.708 141.548C388.46 142.012 388.124 142.38 387.7 142.652C387.276 142.924 386.804 143.06 386.284 143.06C385.924 143.06 385.592 142.996 385.288 142.868C384.992 142.732 384.736 142.54 384.52 142.292V145.508H383.164ZM385.96 141.932C386.304 141.932 386.608 141.848 386.872 141.68C387.144 141.512 387.356 141.284 387.508 140.996C387.668 140.7 387.748 140.368 387.748 140C387.748 139.632 387.668 139.304 387.508 139.016C387.356 138.728 387.144 138.5 386.872 138.332C386.608 138.164 386.304 138.08 385.96 138.08C385.664 138.08 385.392 138.14 385.144 138.26C384.896 138.372 384.688 138.536 384.52 138.752V141.26C384.696 141.468 384.908 141.632 385.156 141.752C385.404 141.872 385.672 141.932 385.96 141.932ZM392.552 143.096C392.136 143.096 391.772 143.004 391.46 142.82C391.148 142.636 390.9 142.384 390.716 142.064C390.54 141.744 390.452 141.372 390.452 140.948V136.988H391.82V140.552C391.82 141 391.936 141.356 392.168 141.62C392.408 141.876 392.732 142.004 393.14 142.004C393.412 142.004 393.656 141.944 393.872 141.824C394.096 141.704 394.288 141.524 394.448 141.284V136.988H395.804V143H394.448V142.028C394.216 142.38 393.94 142.648 393.62 142.832C393.3 143.008 392.944 143.096 392.552 143.096ZM400.077 143.12C399.469 143.12 399.009 142.98 398.697 142.7C398.385 142.412 398.229 141.992 398.229 141.44V138.068H397.029V136.988H398.229V135.332L399.585 135.044V136.988H401.253V138.068H399.585V141.14C399.585 141.436 399.649 141.648 399.777 141.776C399.905 141.896 400.121 141.956 400.425 141.956C400.561 141.956 400.685 141.948 400.797 141.932C400.917 141.908 401.065 141.868 401.241 141.812V142.952C401.073 143.008 400.881 143.048 400.665 143.072C400.457 143.104 400.261 143.12 400.077 143.12ZM405.149 143V134.396L406.505 134.156V143H405.149ZM409.996 143.108C409.58 143.108 409.208 143.032 408.88 142.88C408.56 142.72 408.308 142.504 408.124 142.232C407.948 141.952 407.86 141.632 407.86 141.272C407.86 140.912 407.952 140.6 408.136 140.336C408.328 140.072 408.596 139.868 408.94 139.724C409.284 139.58 409.692 139.508 410.164 139.508C410.444 139.508 410.72 139.54 410.992 139.604C411.264 139.66 411.528 139.756 411.784 139.892V139.22C411.784 138.82 411.668 138.52 411.436 138.32C411.212 138.12 410.868 138.02 410.404 138.02C410.156 138.02 409.888 138.06 409.6 138.14C409.32 138.212 409.004 138.328 408.652 138.488L408.172 137.504C409.052 137.096 409.884 136.892 410.668 136.892C411.452 136.892 412.056 137.084 412.48 137.468C412.912 137.844 413.128 138.38 413.128 139.076V143H411.784V142.376C411.528 142.624 411.252 142.808 410.956 142.928C410.66 143.048 410.34 143.108 409.996 143.108ZM409.132 141.248C409.132 141.528 409.244 141.748 409.468 141.908C409.692 142.068 409.992 142.148 410.368 142.148C410.64 142.148 410.892 142.108 411.124 142.028C411.364 141.94 411.584 141.812 411.784 141.644V140.672C411.576 140.576 411.36 140.504 411.136 140.456C410.912 140.408 410.668 140.384 410.404 140.384C410.012 140.384 409.7 140.46 409.468 140.612C409.244 140.764 409.132 140.976 409.132 141.248ZM414.77 143V134.432L416.126 134.204V137.792C416.342 137.52 416.606 137.312 416.918 137.168C417.238 137.016 417.59 136.94 417.974 136.94C418.486 136.94 418.946 137.076 419.354 137.348C419.762 137.62 420.086 137.988 420.326 138.452C420.566 138.916 420.686 139.432 420.686 140C420.686 140.568 420.562 141.084 420.314 141.548C420.066 142.012 419.73 142.38 419.306 142.652C418.882 142.924 418.41 143.06 417.89 143.06C417.53 143.06 417.198 142.988 416.894 142.844C416.59 142.7 416.326 142.496 416.102 142.232V143H414.77ZM417.566 141.932C417.91 141.932 418.214 141.848 418.478 141.68C418.75 141.512 418.962 141.284 419.114 140.996C419.274 140.7 419.354 140.368 419.354 140C419.354 139.632 419.274 139.304 419.114 139.016C418.962 138.728 418.75 138.5 418.478 138.332C418.214 138.164 417.91 138.08 417.566 138.08C417.27 138.08 416.998 138.14 416.75 138.26C416.502 138.372 416.294 138.536 416.126 138.752V141.26C416.302 141.468 416.514 141.632 416.762 141.752C417.01 141.872 417.278 141.932 417.566 141.932ZM424.902 143.12C424.326 143.12 423.806 142.984 423.342 142.712C422.878 142.432 422.51 142.06 422.238 141.596C421.966 141.124 421.83 140.592 421.83 140C421.83 139.408 421.958 138.88 422.214 138.416C422.47 137.952 422.818 137.584 423.258 137.312C423.706 137.032 424.202 136.892 424.746 136.892C425.306 136.892 425.798 137.028 426.222 137.3C426.654 137.572 426.99 137.94 427.23 138.404C427.478 138.868 427.602 139.4 427.602 140V140.324H423.162C423.21 140.652 423.314 140.944 423.474 141.2C423.642 141.448 423.854 141.644 424.11 141.788C424.374 141.932 424.658 142.004 424.962 142.004C425.242 142.004 425.506 141.956 425.754 141.86C426.01 141.756 426.222 141.616 426.39 141.44L427.278 142.244C426.91 142.548 426.534 142.772 426.15 142.916C425.774 143.052 425.358 143.12 424.902 143.12ZM423.174 139.484H426.318C426.27 139.196 426.17 138.94 426.018 138.716C425.874 138.492 425.69 138.316 425.466 138.188C425.25 138.06 425.01 137.996 424.746 137.996C424.482 137.996 424.238 138.06 424.014 138.188C423.798 138.308 423.618 138.48 423.474 138.704C423.33 138.928 423.23 139.188 423.174 139.484ZM428.985 143V134.396L430.341 134.156V143H428.985Z" fill="#151515"/>
<path fill-rule="evenodd" clip-rule="evenodd" d="M448.588 137.409L449.669 136.329C450.11 135.888 450.11 135.176 449.669 134.737L448.26 133.329C447.82 132.89 447.107 132.89 446.669 133.329L445.588 134.409C445.478 134.519 445.478 134.697 445.588 134.808L448.19 137.409C448.3 137.519 448.478 137.519 448.588 137.409ZM438.66 144.991L441.508 144.492L447.663 138.337C447.773 138.227 447.773 138.049 447.663 137.939L445.061 135.337C444.949 135.227 444.771 135.227 444.66 135.337L438.506 141.492L438.009 144.34C437.941 144.724 438.276 145.057 438.66 144.991ZM440.908 140.965C440.779 140.836 440.779 140.629 440.908 140.501L444.517 136.891C444.646 136.762 444.853 136.762 444.981 136.891C445.11 137.02 445.11 137.226 444.981 137.355L441.372 140.965C441.243 141.094 441.037 141.094 440.908 140.965ZM439.675 144.051L438.946 143.322L439.211 141.811H440.062V142.936H441.187V143.786L439.675 144.051Z" fill="#707070"/>
<mask id="path-13-inside-1_1289_97000" fill="white">
<path d="M372 162C372 158.686 374.686 156 378 156H582C585.314 156 588 158.686 588 162V187C588 190.314 585.314 193 582 193H378C374.686 193 372 190.314 372 187V162Z"/>
</mask>
<path d="M372 162C372 158.686 374.686 156 378 156H582C585.314 156 588 158.686 588 162V187C588 190.314 585.314 193 582 193H378C374.686 193 372 190.314 372 187V162Z" fill="white"/>
<path d="M378 156V158H582V156V154H378V156ZM588 162H586V187H588H590V162H588ZM582 193V191H378V193V195H582V193ZM372 187H374V162H372H370V187H372ZM378 193V191C375.791 191 374 189.209 374 187H372H370C370 191.418 373.582 195 378 195V193ZM588 187H586C586 189.209 584.209 191 582 191V193V195C586.418 195 590 191.418 590 187H588ZM582 156V158C584.209 158 586 159.791 586 162H588H590C590 157.582 586.418 154 582 154V156ZM378 156V154C373.582 154 370 157.582 370 162H372H374C374 159.791 375.791 158 378 158V156Z" fill="#0066CC" mask="url(#path-13-inside-1_1289_97000)"/>
<path d="M388.126 179L392.004 169.2H393.292L397.114 179H395.952L394.79 175.92H390.422L389.26 179H388.126ZM390.758 175.066H394.468L392.606 170.18L390.758 175.066ZM401.085 179.112C400.45 179.112 399.876 178.958 399.363 178.65C398.859 178.333 398.457 177.908 398.159 177.376C397.86 176.835 397.711 176.237 397.711 175.584C397.711 174.921 397.86 174.324 398.159 173.792C398.457 173.26 398.859 172.84 399.363 172.532C399.876 172.215 400.45 172.056 401.085 172.056C401.589 172.056 402.069 172.149 402.527 172.336C402.984 172.523 403.381 172.784 403.717 173.12L403.059 173.834C402.816 173.563 402.522 173.353 402.177 173.204C401.831 173.055 401.481 172.98 401.127 172.98C400.679 172.98 400.273 173.097 399.909 173.33C399.554 173.563 399.269 173.876 399.055 174.268C398.84 174.66 398.733 175.099 398.733 175.584C398.733 176.069 398.84 176.508 399.055 176.9C399.269 177.292 399.554 177.605 399.909 177.838C400.273 178.071 400.679 178.188 401.127 178.188C401.481 178.188 401.831 178.113 402.177 177.964C402.522 177.805 402.816 177.595 403.059 177.334L403.717 178.048C403.381 178.384 402.984 178.645 402.527 178.832C402.069 179.019 401.589 179.112 401.085 179.112ZM407.883 179.14C407.295 179.14 406.847 179 406.539 178.72C406.24 178.431 406.091 178.015 406.091 177.474V173.008H404.677V172.168H406.091V170.292L407.113 170.054V172.168H409.073V173.008H407.113V177.208C407.113 177.572 407.187 177.833 407.337 177.992C407.495 178.151 407.752 178.23 408.107 178.23C408.284 178.23 408.443 178.216 408.583 178.188C408.723 178.16 408.886 178.113 409.073 178.048V178.958C408.886 179.023 408.69 179.07 408.485 179.098C408.279 179.126 408.079 179.14 407.883 179.14ZM410.556 179V172.168H411.578V179H410.556ZM411.074 170.474C410.868 170.474 410.691 170.404 410.542 170.264C410.402 170.115 410.332 169.942 410.332 169.746C410.332 169.55 410.402 169.382 410.542 169.242C410.691 169.093 410.868 169.018 411.074 169.018C411.279 169.018 411.452 169.093 411.592 169.242C411.741 169.382 411.816 169.55 411.816 169.746C411.816 169.942 411.741 170.115 411.592 170.264C411.452 170.404 411.279 170.474 411.074 170.474ZM415.633 179L412.833 172.168H413.939L416.151 177.726L418.335 172.168H419.427L416.613 179H415.633ZM423.562 179.14C422.927 179.14 422.353 178.986 421.84 178.678C421.326 178.361 420.92 177.936 420.622 177.404C420.323 176.863 420.174 176.256 420.174 175.584C420.174 174.912 420.314 174.31 420.594 173.778C420.883 173.246 421.27 172.826 421.756 172.518C422.241 172.21 422.782 172.056 423.38 172.056C423.986 172.056 424.523 172.21 424.99 172.518C425.466 172.817 425.839 173.227 426.11 173.75C426.39 174.263 426.53 174.847 426.53 175.5V175.808H421.168C421.205 176.275 421.331 176.695 421.546 177.068C421.77 177.432 422.059 177.721 422.414 177.936C422.778 178.141 423.174 178.244 423.604 178.244C423.958 178.244 424.299 178.183 424.626 178.062C424.962 177.931 425.246 177.759 425.48 177.544L426.124 178.23C425.732 178.538 425.326 178.767 424.906 178.916C424.486 179.065 424.038 179.14 423.562 179.14ZM421.196 175.08H425.522C425.475 174.669 425.349 174.305 425.144 173.988C424.948 173.661 424.696 173.405 424.388 173.218C424.089 173.031 423.753 172.938 423.38 172.938C423.006 172.938 422.666 173.031 422.358 173.218C422.05 173.395 421.793 173.647 421.588 173.974C421.392 174.291 421.261 174.66 421.196 175.08ZM432.41 179V173.008H430.884V172.168H432.41V170.74C432.41 170.068 432.588 169.55 432.942 169.186C433.297 168.822 433.801 168.64 434.454 168.64C434.641 168.64 434.809 168.649 434.958 168.668C435.117 168.687 435.257 168.719 435.378 168.766V169.69C435.229 169.643 435.094 169.611 434.972 169.592C434.851 169.573 434.711 169.564 434.552 169.564C434.16 169.564 433.876 169.662 433.698 169.858C433.521 170.045 433.432 170.343 433.432 170.754V172.168H435.378V173.008H433.432V179H432.41ZM436.71 179V172.168H437.732V179H436.71ZM437.228 170.474C437.022 170.474 436.845 170.404 436.696 170.264C436.556 170.115 436.486 169.942 436.486 169.746C436.486 169.55 436.556 169.382 436.696 169.242C436.845 169.093 437.022 169.018 437.228 169.018C437.433 169.018 437.606 169.093 437.746 169.242C437.895 169.382 437.97 169.55 437.97 169.746C437.97 169.942 437.895 170.115 437.746 170.264C437.606 170.404 437.433 170.474 437.228 170.474ZM442.907 179.14C442.273 179.14 441.699 178.986 441.185 178.678C440.672 178.361 440.266 177.936 439.967 177.404C439.669 176.863 439.519 176.256 439.519 175.584C439.519 174.912 439.659 174.31 439.939 173.778C440.229 173.246 440.616 172.826 441.101 172.518C441.587 172.21 442.128 172.056 442.725 172.056C443.332 172.056 443.869 172.21 444.335 172.518C444.811 172.817 445.185 173.227 445.455 173.75C445.735 174.263 445.875 174.847 445.875 175.5V175.808H440.513C440.551 176.275 440.677 176.695 440.891 177.068C441.115 177.432 441.405 177.721 441.759 177.936C442.123 178.141 442.52 178.244 442.949 178.244C443.304 178.244 443.645 178.183 443.971 178.062C444.307 177.931 444.592 177.759 444.825 177.544L445.469 178.23C445.077 178.538 444.671 178.767 444.251 178.916C443.831 179.065 443.383 179.14 442.907 179.14ZM440.541 175.08H444.867C444.821 174.669 444.695 174.305 444.489 173.988C444.293 173.661 444.041 173.405 443.733 173.218C443.435 173.031 443.099 172.938 442.725 172.938C442.352 172.938 442.011 173.031 441.703 173.218C441.395 173.395 441.139 173.647 440.933 173.974C440.737 174.291 440.607 174.66 440.541 175.08ZM447.62 179V168.892L448.642 168.682V179H447.62ZM453.58 179.098C452.992 179.098 452.46 178.944 451.984 178.636C451.508 178.319 451.13 177.899 450.85 177.376C450.57 176.844 450.43 176.251 450.43 175.598C450.43 174.935 450.57 174.343 450.85 173.82C451.139 173.288 451.526 172.868 452.012 172.56C452.497 172.243 453.038 172.084 453.636 172.084C454.056 172.084 454.448 172.168 454.812 172.336C455.176 172.495 455.493 172.728 455.764 173.036V168.892L456.786 168.682V179H455.764V178.09C455.502 178.417 455.185 178.669 454.812 178.846C454.438 179.014 454.028 179.098 453.58 179.098ZM453.832 178.202C454.233 178.202 454.602 178.123 454.938 177.964C455.274 177.805 455.549 177.581 455.764 177.292V173.904C455.54 173.615 455.255 173.391 454.91 173.232C454.574 173.064 454.214 172.98 453.832 172.98C453.374 172.98 452.964 173.092 452.6 173.316C452.245 173.54 451.96 173.848 451.745 174.24C451.54 174.632 451.438 175.08 451.438 175.584C451.438 176.079 451.54 176.527 451.745 176.928C451.96 177.32 452.245 177.633 452.6 177.866C452.964 178.09 453.374 178.202 453.832 178.202Z" fill="#151515"/>
<path fill-rule="evenodd" clip-rule="evenodd" d="M613.245 179.485L621.295 171.435C621.568 171.162 621.568 170.718 621.295 170.445L620.305 169.455C620.032 169.182 619.588 169.182 619.315 169.455L612.75 176.02L609.685 172.955C609.412 172.682 608.968 172.682 608.695 172.955L607.705 173.945C607.432 174.218 607.432 174.662 607.705 174.935L612.255 179.485C612.528 179.758 612.972 179.758 613.245 179.485Z" fill="#0066CC"/>
<path fill-rule="evenodd" clip-rule="evenodd" d="M663.333 178.922L663.922 178.333C664.248 178.007 664.248 177.479 663.922 177.153L661.269 174.5L663.922 171.847C664.248 171.521 664.248 170.993 663.922 170.667L663.333 170.078C663.007 169.752 662.479 169.752 662.153 170.078L659.5 172.731L656.847 170.078C656.521 169.752 655.993 169.752 655.667 170.078L655.078 170.667C654.752 170.993 654.752 171.521 655.078 171.847L657.731 174.5L655.078 177.153C654.752 177.479 654.752 178.007 655.078 178.333L655.667 178.922C655.993 179.248 656.521 179.248 656.847 178.922L659.5 176.269L662.153 178.922C662.479 179.248 663.007 179.248 663.333 178.922Z" fill="#1F1F1F"/>
<rect x="176" y="110" width="120" height="87" fill="white"/>
<path d="M196.948 143V134.6H198.388V143H196.948ZM200.18 143V136.988H201.536V137.972C201.768 137.612 202.044 137.344 202.364 137.168C202.684 136.984 203.04 136.892 203.432 136.892C203.848 136.892 204.212 136.984 204.524 137.168C204.836 137.344 205.08 137.592 205.256 137.912C205.44 138.232 205.532 138.608 205.532 139.04V143H204.164V139.424C204.164 138.984 204.044 138.636 203.804 138.38C203.564 138.116 203.244 137.984 202.844 137.984C202.572 137.984 202.324 138.048 202.1 138.176C201.884 138.296 201.696 138.476 201.536 138.716V143H200.18ZM207.164 145.508V136.988H208.496V137.84C208.712 137.552 208.98 137.332 209.3 137.18C209.628 137.02 209.984 136.94 210.368 136.94C210.88 136.94 211.34 137.076 211.748 137.348C212.156 137.62 212.48 137.988 212.72 138.452C212.96 138.916 213.08 139.432 213.08 140C213.08 140.568 212.956 141.084 212.708 141.548C212.46 142.012 212.124 142.38 211.7 142.652C211.276 142.924 210.804 143.06 210.284 143.06C209.924 143.06 209.592 142.996 209.288 142.868C208.992 142.732 208.736 142.54 208.52 142.292V145.508H207.164ZM209.96 141.932C210.304 141.932 210.608 141.848 210.872 141.68C211.144 141.512 211.356 141.284 211.508 140.996C211.668 140.7 211.748 140.368 211.748 140C211.748 139.632 211.668 139.304 211.508 139.016C211.356 138.728 211.144 138.5 210.872 138.332C210.608 138.164 210.304 138.08 209.96 138.08C209.664 138.08 209.392 138.14 209.144 138.26C208.896 138.372 208.688 138.536 208.52 138.752V141.26C208.696 141.468 208.908 141.632 209.156 141.752C209.404 141.872 209.672 141.932 209.96 141.932ZM216.552 143.096C216.136 143.096 215.772 143.004 215.46 142.82C215.148 142.636 214.9 142.384 214.716 142.064C214.54 141.744 214.452 141.372 214.452 140.948V136.988H215.82V140.552C215.82 141 215.936 141.356 216.168 141.62C216.408 141.876 216.732 142.004 217.14 142.004C217.412 142.004 217.656 141.944 217.872 141.824C218.096 141.704 218.288 141.524 218.448 141.284V136.988H219.804V143H218.448V142.028C218.216 142.38 217.94 142.648 217.62 142.832C217.3 143.008 216.944 143.096 216.552 143.096ZM224.077 143.12C223.469 143.12 223.009 142.98 222.697 142.7C222.385 142.412 222.229 141.992 222.229 141.44V138.068H221.029V136.988H222.229V135.332L223.585 135.044V136.988H225.253V138.068H223.585V141.14C223.585 141.436 223.649 141.648 223.777 141.776C223.905 141.896 224.121 141.956 224.425 141.956C224.561 141.956 224.685 141.948 224.797 141.932C224.917 141.908 225.065 141.868 225.241 141.812V142.952C225.073 143.008 224.881 143.048 224.665 143.072C224.457 143.104 224.261 143.12 224.077 143.12ZM229.149 143V134.396L230.505 134.156V143H229.149ZM233.996 143.108C233.58 143.108 233.208 143.032 232.88 142.88C232.56 142.72 232.308 142.504 232.124 142.232C231.948 141.952 231.86 141.632 231.86 141.272C231.86 140.912 231.952 140.6 232.136 140.336C232.328 140.072 232.596 139.868 232.94 139.724C233.284 139.58 233.692 139.508 234.164 139.508C234.444 139.508 234.72 139.54 234.992 139.604C235.264 139.66 235.528 139.756 235.784 139.892V139.22C235.784 138.82 235.668 138.52 235.436 138.32C235.212 138.12 234.868 138.02 234.404 138.02C234.156 138.02 233.888 138.06 233.6 138.14C233.32 138.212 233.004 138.328 232.652 138.488L232.172 137.504C233.052 137.096 233.884 136.892 234.668 136.892C235.452 136.892 236.056 137.084 236.48 137.468C236.912 137.844 237.128 138.38 237.128 139.076V143H235.784V142.376C235.528 142.624 235.252 142.808 234.956 142.928C234.66 143.048 234.34 143.108 233.996 143.108ZM233.132 141.248C233.132 141.528 233.244 141.748 233.468 141.908C233.692 142.068 233.992 142.148 234.368 142.148C234.64 142.148 234.892 142.108 235.124 142.028C235.364 141.94 235.584 141.812 235.784 141.644V140.672C235.576 140.576 235.36 140.504 235.136 140.456C234.912 140.408 234.668 140.384 234.404 140.384C234.012 140.384 233.7 140.46 233.468 140.612C233.244 140.764 233.132 140.976 233.132 141.248ZM238.77 143V134.432L240.126 134.204V137.792C240.342 137.52 240.606 137.312 240.918 137.168C241.238 137.016 241.59 136.94 241.974 136.94C242.486 136.94 242.946 137.076 243.354 137.348C243.762 137.62 244.086 137.988 244.326 138.452C244.566 138.916 244.686 139.432 244.686 140C244.686 140.568 244.562 141.084 244.314 141.548C244.066 142.012 243.73 142.38 243.306 142.652C242.882 142.924 242.41 143.06 241.89 143.06C241.53 143.06 241.198 142.988 240.894 142.844C240.59 142.7 240.326 142.496 240.102 142.232V143H238.77ZM241.566 141.932C241.91 141.932 242.214 141.848 242.478 141.68C242.75 141.512 242.962 141.284 243.114 140.996C243.274 140.7 243.354 140.368 243.354 140C243.354 139.632 243.274 139.304 243.114 139.016C242.962 138.728 242.75 138.5 242.478 138.332C242.214 138.164 241.91 138.08 241.566 138.08C241.27 138.08 240.998 138.14 240.75 138.26C240.502 138.372 240.294 138.536 240.126 138.752V141.26C240.302 141.468 240.514 141.632 240.762 141.752C241.01 141.872 241.278 141.932 241.566 141.932ZM248.902 143.12C248.326 143.12 247.806 142.984 247.342 142.712C246.878 142.432 246.51 142.06 246.238 141.596C245.966 141.124 245.83 140.592 245.83 140C245.83 139.408 245.958 138.88 246.214 138.416C246.47 137.952 246.818 137.584 247.258 137.312C247.706 137.032 248.202 136.892 248.746 136.892C249.306 136.892 249.798 137.028 250.222 137.3C250.654 137.572 250.99 137.94 251.23 138.404C251.478 138.868 251.602 139.4 251.602 140V140.324H247.162C247.21 140.652 247.314 140.944 247.474 141.2C247.642 141.448 247.854 141.644 248.11 141.788C248.374 141.932 248.658 142.004 248.962 142.004C249.242 142.004 249.506 141.956 249.754 141.86C250.01 141.756 250.222 141.616 250.39 141.44L251.278 142.244C250.91 142.548 250.534 142.772 250.15 142.916C249.774 143.052 249.358 143.12 248.902 143.12ZM247.174 139.484H250.318C250.27 139.196 250.17 138.94 250.018 138.716C249.874 138.492 249.69 138.316 249.466 138.188C249.25 138.06 249.01 137.996 248.746 137.996C248.482 137.996 248.238 138.06 248.014 138.188C247.798 138.308 247.618 138.48 247.474 138.704C247.33 138.928 247.23 139.188 247.174 139.484ZM252.985 143V134.396L254.341 134.156V143H252.985Z" fill="#151515"/>
<g style="mix-blend-mode:multiply">
<path fill-rule="evenodd" clip-rule="evenodd" d="M272.588 137.409L273.669 136.329C274.11 135.888 274.11 135.176 273.669 134.737L272.26 133.329C271.82 132.89 271.107 132.89 270.669 133.329L269.588 134.409C269.478 134.519 269.478 134.697 269.588 134.808L272.19 137.409C272.3 137.519 272.478 137.519 272.588 137.409ZM262.66 144.991L265.508 144.492L271.663 138.337C271.773 138.227 271.773 138.049 271.663 137.939L269.061 135.337C268.949 135.227 268.771 135.227 268.66 135.337L262.506 141.492L262.009 144.34C261.941 144.724 262.276 145.057 262.66 144.991ZM264.908 140.965C264.779 140.836 264.779 140.629 264.908 140.501L268.517 136.891C268.646 136.762 268.853 136.762 268.981 136.891C269.11 137.02 269.11 137.226 268.981 137.355L265.372 140.965C265.243 141.094 265.037 141.094 264.908 140.965ZM263.675 144.051L262.946 143.322L263.211 141.811H264.062V142.936H265.187V143.786L263.675 144.051Z" fill="#1F1F1F"/>
</g>
<path d="M200.41 171.154C199.645 171.154 198.935 171.019 198.282 170.748C197.629 170.468 196.999 170.048 196.392 169.488L197.05 168.704C197.638 169.255 198.189 169.647 198.702 169.88C199.225 170.113 199.803 170.23 200.438 170.23C200.942 170.23 201.39 170.146 201.782 169.978C202.183 169.801 202.496 169.563 202.72 169.264C202.944 168.965 203.056 168.625 203.056 168.242C203.056 167.747 202.893 167.374 202.566 167.122C202.239 166.861 201.675 166.66 200.872 166.52L199.29 166.254C198.394 166.095 197.736 165.825 197.316 165.442C196.905 165.05 196.7 164.527 196.7 163.874C196.7 163.323 196.84 162.838 197.12 162.418C197.409 161.989 197.806 161.653 198.31 161.41C198.814 161.167 199.397 161.046 200.06 161.046C200.788 161.046 201.465 161.149 202.09 161.354C202.715 161.55 203.331 161.863 203.938 162.292L203.378 163.132C202.874 162.749 202.342 162.46 201.782 162.264C201.222 162.059 200.653 161.956 200.074 161.956C199.617 161.956 199.211 162.035 198.856 162.194C198.511 162.353 198.235 162.567 198.03 162.838C197.834 163.109 197.736 163.417 197.736 163.762C197.736 164.191 197.881 164.527 198.17 164.77C198.459 165.013 198.931 165.185 199.584 165.288L201.152 165.554C202.197 165.741 202.953 166.044 203.42 166.464C203.896 166.875 204.134 167.449 204.134 168.186C204.134 168.755 203.971 169.264 203.644 169.712C203.327 170.16 202.888 170.515 202.328 170.776C201.768 171.028 201.129 171.154 200.41 171.154ZM208.172 171.14C207.584 171.14 207.136 171 206.828 170.72C206.529 170.431 206.38 170.015 206.38 169.474V165.008H204.966V164.168H206.38V162.292L207.402 162.054V164.168H209.362V165.008H207.402V169.208C207.402 169.572 207.476 169.833 207.626 169.992C207.784 170.151 208.041 170.23 208.396 170.23C208.573 170.23 208.732 170.216 208.872 170.188C209.012 170.16 209.175 170.113 209.362 170.048V170.958C209.175 171.023 208.979 171.07 208.774 171.098C208.568 171.126 208.368 171.14 208.172 171.14ZM212.973 171.126C212.487 171.126 212.058 171.037 211.685 170.86C211.311 170.683 211.017 170.44 210.803 170.132C210.597 169.815 210.495 169.451 210.495 169.04C210.495 168.629 210.602 168.275 210.817 167.976C211.031 167.668 211.33 167.43 211.713 167.262C212.095 167.094 212.543 167.01 213.057 167.01C213.449 167.01 213.817 167.052 214.163 167.136C214.517 167.22 214.844 167.355 215.143 167.542V166.604C215.143 166.044 214.993 165.624 214.695 165.344C214.396 165.055 213.957 164.91 213.379 164.91C213.061 164.91 212.735 164.957 212.399 165.05C212.072 165.143 211.708 165.293 211.307 165.498L210.929 164.714C211.843 164.275 212.702 164.056 213.505 164.056C214.354 164.056 215.007 164.266 215.465 164.686C215.922 165.097 216.151 165.689 216.151 166.464V171H215.143V170.202C214.844 170.51 214.513 170.743 214.149 170.902C213.785 171.051 213.393 171.126 212.973 171.126ZM211.475 169.012C211.475 169.413 211.629 169.735 211.937 169.978C212.254 170.221 212.669 170.342 213.183 170.342C213.565 170.342 213.915 170.277 214.233 170.146C214.559 170.015 214.863 169.819 215.143 169.558V168.242C214.853 168.074 214.555 167.953 214.247 167.878C213.939 167.794 213.593 167.752 213.211 167.752C212.688 167.752 212.268 167.869 211.951 168.102C211.633 168.326 211.475 168.629 211.475 169.012ZM220.627 171.14C220.039 171.14 219.591 171 219.283 170.72C218.984 170.431 218.835 170.015 218.835 169.474V165.008H217.421V164.168H218.835V162.292L219.857 162.054V164.168H221.817V165.008H219.857V169.208C219.857 169.572 219.931 169.833 220.081 169.992C220.239 170.151 220.496 170.23 220.851 170.23C221.028 170.23 221.187 170.216 221.327 170.188C221.467 170.16 221.63 170.113 221.817 170.048V170.958C221.63 171.023 221.434 171.07 221.229 171.098C221.023 171.126 220.823 171.14 220.627 171.14ZM223.3 171V164.168H224.322V171H223.3ZM223.818 162.474C223.612 162.474 223.435 162.404 223.286 162.264C223.146 162.115 223.076 161.942 223.076 161.746C223.076 161.55 223.146 161.382 223.286 161.242C223.435 161.093 223.612 161.018 223.818 161.018C224.023 161.018 224.196 161.093 224.336 161.242C224.485 161.382 224.56 161.55 224.56 161.746C224.56 161.942 224.485 162.115 224.336 162.264C224.196 162.404 224.023 162.474 223.818 162.474ZM229.483 171.112C228.849 171.112 228.275 170.958 227.761 170.65C227.257 170.333 226.856 169.908 226.557 169.376C226.259 168.835 226.109 168.237 226.109 167.584C226.109 166.921 226.259 166.324 226.557 165.792C226.856 165.26 227.257 164.84 227.761 164.532C228.275 164.215 228.849 164.056 229.483 164.056C229.987 164.056 230.468 164.149 230.925 164.336C231.383 164.523 231.779 164.784 232.115 165.12L231.457 165.834C231.215 165.563 230.921 165.353 230.575 165.204C230.23 165.055 229.88 164.98 229.525 164.98C229.077 164.98 228.671 165.097 228.307 165.33C227.953 165.563 227.668 165.876 227.453 166.268C227.239 166.66 227.131 167.099 227.131 167.584C227.131 168.069 227.239 168.508 227.453 168.9C227.668 169.292 227.953 169.605 228.307 169.838C228.671 170.071 229.077 170.188 229.525 170.188C229.88 170.188 230.23 170.113 230.575 169.964C230.921 169.805 231.215 169.595 231.457 169.334L232.115 170.048C231.779 170.384 231.383 170.645 230.925 170.832C230.468 171.019 229.987 171.112 229.483 171.112ZM239.412 171.14C238.824 171.14 238.376 171 238.068 170.72C237.769 170.431 237.62 170.015 237.62 169.474V165.008H236.206V164.168H237.62V162.292L238.642 162.054V164.168H240.602V165.008H238.642V169.208C238.642 169.572 238.716 169.833 238.866 169.992C239.024 170.151 239.281 170.23 239.636 170.23C239.813 170.23 239.972 170.216 240.112 170.188C240.252 170.16 240.415 170.113 240.602 170.048V170.958C240.415 171.023 240.219 171.07 240.014 171.098C239.808 171.126 239.608 171.14 239.412 171.14ZM245.042 171.14C244.407 171.14 243.833 170.986 243.32 170.678C242.807 170.361 242.401 169.936 242.102 169.404C241.803 168.863 241.654 168.256 241.654 167.584C241.654 166.912 241.794 166.31 242.074 165.778C242.363 165.246 242.751 164.826 243.236 164.518C243.721 164.21 244.263 164.056 244.86 164.056C245.467 164.056 246.003 164.21 246.47 164.518C246.946 164.817 247.319 165.227 247.59 165.75C247.87 166.263 248.01 166.847 248.01 167.5V167.808H242.648C242.685 168.275 242.811 168.695 243.026 169.068C243.25 169.432 243.539 169.721 243.894 169.936C244.258 170.141 244.655 170.244 245.084 170.244C245.439 170.244 245.779 170.183 246.106 170.062C246.442 169.931 246.727 169.759 246.96 169.544L247.604 170.23C247.212 170.538 246.806 170.767 246.386 170.916C245.966 171.065 245.518 171.14 245.042 171.14ZM242.676 167.08H247.002C246.955 166.669 246.829 166.305 246.624 165.988C246.428 165.661 246.176 165.405 245.868 165.218C245.569 165.031 245.233 164.938 244.86 164.938C244.487 164.938 244.146 165.031 243.838 165.218C243.53 165.395 243.273 165.647 243.068 165.974C242.872 166.291 242.741 166.66 242.676 167.08ZM248.463 171L251.081 167.458L248.617 164.168H249.835L251.725 166.772L253.601 164.168H254.763L252.285 167.486L254.917 171H253.699L251.655 168.214L249.625 171H248.463ZM258.621 171.14C258.033 171.14 257.585 171 257.277 170.72C256.978 170.431 256.829 170.015 256.829 169.474V165.008H255.415V164.168H256.829V162.292L257.851 162.054V164.168H259.811V165.008H257.851V169.208C257.851 169.572 257.925 169.833 258.075 169.992C258.233 170.151 258.49 170.23 258.845 170.23C259.022 170.23 259.181 170.216 259.321 170.188C259.461 170.16 259.624 170.113 259.811 170.048V170.958C259.624 171.023 259.428 171.07 259.223 171.098C259.017 171.126 258.817 171.14 258.621 171.14Z" fill="#151515"/>
<path d="M132 150.333C130.527 150.333 129.333 151.527 129.333 153C129.333 154.473 130.527 155.667 132 155.667C133.473 155.667 134.667 154.473 134.667 153C134.667 151.527 133.473 150.333 132 150.333ZM132 153L131.5 153L131.5 181L132 181L132.5 181L132.5 153L132 153Z" fill="#C806CC"/>
<path d="M113 185C113 182.791 114.791 181 117 181H147C149.209 181 151 182.791 151 185V209C151 211.209 149.209 213 147 213H117C114.791 213 113 211.209 113 209V185Z" fill="#C806CC"/>
<path d="M131.888 203V192.254L129.62 193.208V191.624L132.536 190.4H133.67V203H131.888Z" fill="white"/>
<path d="M247 30C247 27.7909 248.791 26 251 26H285C287.209 26 289 27.7909 289 30V54C289 56.2091 287.209 58 285 58H251C248.791 58 247 56.2091 247 54V30Z" fill="#C806CC"/>
<path d="M263.89 48V46.74L269.002 41.304C269.518 40.764 269.866 40.302 270.046 39.918C270.238 39.534 270.334 39.126 270.334 38.694C270.334 38.13 270.106 37.662 269.65 37.29C269.194 36.918 268.618 36.732 267.922 36.732C267.346 36.732 266.806 36.846 266.302 37.074C265.798 37.302 265.24 37.698 264.628 38.262L263.656 37.074C264.988 35.826 266.422 35.202 267.958 35.202C268.762 35.202 269.47 35.346 270.082 35.634C270.694 35.922 271.168 36.324 271.504 36.84C271.852 37.344 272.026 37.926 272.026 38.586C272.026 39.006 271.972 39.396 271.864 39.756C271.756 40.104 271.57 40.476 271.306 40.872C271.042 41.256 270.67 41.7 270.19 42.204L266.086 46.524L272.278 46.506V48H263.89Z" fill="white"/>
<path d="M268 69.3333C266.527 69.3333 265.333 70.5272 265.333 72C265.333 73.4728 266.527 74.6667 268 74.6667C269.473 74.6667 270.667 73.4728 270.667 72C270.667 70.5272 269.473 69.3333 268 69.3333ZM268 58L267.5 58L267.5 72L268 72L268.5 72L268.5 58L268 58Z" fill="#C806CC"/>
<path d="M615 103C615 100.791 616.791 99 619 99H654C656.209 99 658 100.791 658 103V127C658 129.209 656.209 131 654 131H619C616.791 131 615 129.209 615 127V103Z" fill="#C806CC"/>
<path d="M636.359 121.198C635.459 121.198 634.613 121.042 633.821 120.73C633.041 120.406 632.363 119.944 631.787 119.344L632.957 118.228C633.461 118.756 633.971 119.134 634.487 119.362C635.015 119.578 635.633 119.686 636.341 119.686C637.193 119.686 637.883 119.476 638.411 119.056C638.951 118.636 639.221 118.096 639.221 117.436C639.221 116.812 638.993 116.308 638.537 115.924C638.093 115.54 637.517 115.348 636.809 115.348H635.279V113.89H636.683C637.319 113.89 637.829 113.704 638.213 113.332C638.597 112.96 638.789 112.474 638.789 111.874C638.789 111.466 638.681 111.106 638.465 110.794C638.249 110.47 637.949 110.218 637.565 110.038C637.193 109.846 636.767 109.75 636.287 109.75C635.651 109.75 635.087 109.864 634.595 110.092C634.115 110.308 633.617 110.692 633.101 111.244L631.931 110.128C632.507 109.504 633.173 109.03 633.929 108.706C634.685 108.37 635.483 108.202 636.323 108.202C637.139 108.202 637.859 108.352 638.483 108.652C639.119 108.952 639.617 109.366 639.977 109.894C640.349 110.422 640.535 111.028 640.535 111.712C640.535 112.384 640.313 112.978 639.869 113.494C639.437 114.01 638.867 114.37 638.159 114.574C639.011 114.754 639.689 115.114 640.193 115.654C640.697 116.182 640.949 116.806 640.949 117.526C640.949 118.234 640.751 118.864 640.355 119.416C639.971 119.968 639.431 120.406 638.735 120.73C638.039 121.042 637.247 121.198 636.359 121.198Z" fill="white"/>
<path d="M636.5 145.333C635.027 145.333 633.833 146.527 633.833 148C633.833 149.473 635.027 150.667 636.5 150.667C637.973 150.667 639.167 149.473 639.167 148C639.167 146.527 637.973 145.333 636.5 145.333ZM636.5 131L636 131L636 148L636.5 148L637 148L637 131L636.5 131Z" fill="#C806CC"/>
<path d="M480 103C480 100.791 481.791 99 484 99H520C522.209 99 524 100.791 524 103V127C524 129.209 522.209 131 520 131H484C481.791 131 480 129.209 480 127V103Z" fill="#C806CC"/>
<path d="M503.866 121V117.796H496.72V116.374L503.65 108.4H505.648V116.284H507.178V117.796H505.648V121H503.866ZM498.862 116.284H503.866V110.524L498.862 116.284Z" fill="white"/>
<path d="M502 145.333C500.527 145.333 499.333 146.527 499.333 148C499.333 149.473 500.527 150.667 502 150.667C503.473 150.667 504.667 149.473 504.667 148C504.667 146.527 503.473 145.333 502 145.333ZM502 131L501.5 131L501.5 148L502 148L502.5 148L502.5 131L502 131Z" fill="#C806CC"/>
<g filter="url(#filter0_d_1289_97000)">
<path d="M238 86C238 82.6863 240.686 80 244 80H292C295.314 80 298 82.6863 298 86V108C298 111.314 295.314 114 292 114H244C240.686 114 238 111.314 238 108V86Z" fill="#292929"/>
<path d="M258.381 101V92.6H264.117V93.416H259.305V96.356H262.641V97.16H259.305V100.184H264.165V101H258.381ZM267.844 101.084C267.34 101.084 266.884 100.952 266.476 100.688C266.068 100.416 265.744 100.056 265.504 99.608C265.264 99.152 265.144 98.644 265.144 98.084C265.144 97.516 265.264 97.008 265.504 96.56C265.752 96.104 266.084 95.744 266.5 95.48C266.916 95.208 267.38 95.072 267.892 95.072C268.252 95.072 268.588 95.144 268.9 95.288C269.212 95.424 269.484 95.624 269.716 95.888V92.336L270.592 92.156V101H269.716V100.22C269.492 100.5 269.22 100.716 268.9 100.868C268.58 101.012 268.228 101.084 267.844 101.084ZM268.06 100.316C268.404 100.316 268.72 100.248 269.008 100.112C269.296 99.976 269.532 99.784 269.716 99.536V96.632C269.524 96.384 269.28 96.192 268.984 96.056C268.696 95.912 268.388 95.84 268.06 95.84C267.668 95.84 267.316 95.936 267.004 96.128C266.7 96.32 266.456 96.584 266.272 96.92C266.096 97.256 266.008 97.64 266.008 98.072C266.008 98.496 266.096 98.88 266.272 99.224C266.456 99.56 266.7 99.828 267.004 100.028C267.316 100.22 267.668 100.316 268.06 100.316ZM272.38 101V95.144H273.256V101H272.38ZM272.824 93.692C272.648 93.692 272.496 93.632 272.368 93.512C272.248 93.384 272.188 93.236 272.188 93.068C272.188 92.9 272.248 92.756 272.368 92.636C272.496 92.508 272.648 92.444 272.824 92.444C273 92.444 273.148 92.508 273.268 92.636C273.396 92.756 273.46 92.9 273.46 93.068C273.46 93.236 273.396 93.384 273.268 93.512C273.148 93.632 273 93.692 272.824 93.692ZM277.284 101.12C276.78 101.12 276.396 101 276.132 100.76C275.876 100.512 275.748 100.156 275.748 99.692V95.864H274.536V95.144H275.748V93.536L276.624 93.332V95.144H278.304V95.864H276.624V99.464C276.624 99.776 276.688 100 276.816 100.136C276.952 100.272 277.172 100.34 277.476 100.34C277.628 100.34 277.764 100.328 277.884 100.304C278.004 100.28 278.144 100.24 278.304 100.184V100.964C278.144 101.02 277.976 101.06 277.8 101.084C277.624 101.108 277.452 101.12 277.284 101.12Z" fill="white"/>
<path d="M268 129L257.175 114H278.825L268 129Z" fill="#292929"/>
</g>
<defs>
<filter id="filter0_d_1289_97000" x="229" y="75" width="78" height="67" filterUnits="userSpaceOnUse" color-interpolation-filters="sRGB">
<feFlood flood-opacity="0" result="BackgroundImageFix"/>
<feColorMatrix in="SourceAlpha" type="matrix" values="0 0 0 0 0 0 0 0 0 0 0 0 0 0 0 0 0 0 127 0" result="hardAlpha"/>
<feOffset dy="4"/>
<feGaussianBlur stdDeviation="4.5"/>
<feColorMatrix type="matrix" values="0 0 0 0 0.160784 0 0 0 0 0.160784 0 0 0 0 0.160784 0 0 0 0.15 0"/>
<feBlend mode="normal" in2="BackgroundImageFix" result="effect1_dropShadow_1289_97000"/>
<feBlend mode="normal" in="SourceGraphic" in2="effect1_dropShadow_1289_97000" result="shape"/>
</filter>
</defs>
</svg>
