<svg width="516" height="415" viewBox="0 0 516 415" fill="none" xmlns="http://www.w3.org/2000/svg">
<rect width="516" height="415" fill="white"/>
<path d="M40.948 88V79.6H42.388V88H40.948ZM44.1798 88V81.988H45.5358V82.972C45.7678 82.612 46.0438 82.344 46.3638 82.168C46.6838 81.984 47.0398 81.892 47.4318 81.892C47.8478 81.892 48.2118 81.984 48.5238 82.168C48.8358 82.344 49.0798 82.592 49.2558 82.912C49.4398 83.232 49.5318 83.608 49.5318 84.04V88H48.1638V84.424C48.1638 83.984 48.0438 83.636 47.8038 83.38C47.5638 83.116 47.2438 82.984 46.8438 82.984C46.5718 82.984 46.3238 83.048 46.0998 83.176C45.8838 83.296 45.6958 83.476 45.5358 83.716V88H44.1798ZM51.1642 90.508V81.988H52.4962V82.84C52.7122 82.552 52.9802 82.332 53.3002 82.18C53.6282 82.02 53.9842 81.94 54.3682 81.94C54.8802 81.94 55.3402 82.076 55.7482 82.348C56.1562 82.62 56.4802 82.988 56.7202 83.452C56.9602 83.916 57.0802 84.432 57.0802 85C57.0802 85.568 56.9562 86.084 56.7082 86.548C56.4602 87.012 56.1242 87.38 55.7002 87.652C55.2762 87.924 54.8042 88.06 54.2842 88.06C53.9242 88.06 53.5922 87.996 53.2882 87.868C52.9922 87.732 52.7362 87.54 52.5202 87.292V90.508H51.1642ZM53.9602 86.932C54.3042 86.932 54.6082 86.848 54.8722 86.68C55.1442 86.512 55.3562 86.284 55.5082 85.996C55.6682 85.7 55.7482 85.368 55.7482 85C55.7482 84.632 55.6682 84.304 55.5082 84.016C55.3562 83.728 55.1442 83.5 54.8722 83.332C54.6082 83.164 54.3042 83.08 53.9602 83.08C53.6642 83.08 53.3922 83.14 53.1442 83.26C52.8962 83.372 52.6882 83.536 52.5202 83.752V86.26C52.6962 86.468 52.9082 86.632 53.1562 86.752C53.4042 86.872 53.6722 86.932 53.9602 86.932ZM60.5522 88.096C60.1362 88.096 59.7722 88.004 59.4602 87.82C59.1482 87.636 58.9002 87.384 58.7162 87.064C58.5402 86.744 58.4522 86.372 58.4522 85.948V81.988H59.8202V85.552C59.8202 86 59.9362 86.356 60.1682 86.62C60.4082 86.876 60.7322 87.004 61.1402 87.004C61.4122 87.004 61.6562 86.944 61.8722 86.824C62.0962 86.704 62.2882 86.524 62.4482 86.284V81.988H63.8042V88H62.4482V87.028C62.2162 87.38 61.9402 87.648 61.6202 87.832C61.3002 88.008 60.9442 88.096 60.5522 88.096ZM68.0765 88.12C67.4685 88.12 67.0085 87.98 66.6965 87.7C66.3845 87.412 66.2285 86.992 66.2285 86.44V83.068H65.0285V81.988H66.2285V80.332L67.5845 80.044V81.988H69.2525V83.068H67.5845V86.14C67.5845 86.436 67.6485 86.648 67.7765 86.776C67.9045 86.896 68.1205 86.956 68.4245 86.956C68.5605 86.956 68.6845 86.948 68.7965 86.932C68.9165 86.908 69.0645 86.868 69.2405 86.812V87.952C69.0725 88.008 68.8805 88.048 68.6645 88.072C68.4565 88.104 68.2605 88.12 68.0765 88.12ZM73.1486 88V79.396L74.5046 79.156V88H73.1486ZM77.996 88.108C77.58 88.108 77.208 88.032 76.88 87.88C76.56 87.72 76.308 87.504 76.124 87.232C75.948 86.952 75.86 86.632 75.86 86.272C75.86 85.912 75.952 85.6 76.136 85.336C76.328 85.072 76.596 84.868 76.94 84.724C77.284 84.58 77.692 84.508 78.164 84.508C78.444 84.508 78.72 84.54 78.992 84.604C79.264 84.66 79.528 84.756 79.784 84.892V84.22C79.784 83.82 79.668 83.52 79.436 83.32C79.212 83.12 78.868 83.02 78.404 83.02C78.156 83.02 77.888 83.06 77.6 83.14C77.32 83.212 77.004 83.328 76.652 83.488L76.172 82.504C77.052 82.096 77.884 81.892 78.668 81.892C79.452 81.892 80.056 82.084 80.48 82.468C80.912 82.844 81.128 83.38 81.128 84.076V88H79.784V87.376C79.528 87.624 79.252 87.808 78.956 87.928C78.66 88.048 78.34 88.108 77.996 88.108ZM77.132 86.248C77.132 86.528 77.244 86.748 77.468 86.908C77.692 87.068 77.992 87.148 78.368 87.148C78.64 87.148 78.892 87.108 79.124 87.028C79.364 86.94 79.584 86.812 79.784 86.644V85.672C79.576 85.576 79.36 85.504 79.136 85.456C78.912 85.408 78.668 85.384 78.404 85.384C78.012 85.384 77.7 85.46 77.468 85.612C77.244 85.764 77.132 85.976 77.132 86.248ZM82.7697 88V79.432L84.1257 79.204V82.792C84.3417 82.52 84.6057 82.312 84.9177 82.168C85.2377 82.016 85.5897 81.94 85.9737 81.94C86.4857 81.94 86.9457 82.076 87.3537 82.348C87.7617 82.62 88.0857 82.988 88.3257 83.452C88.5657 83.916 88.6857 84.432 88.6857 85C88.6857 85.568 88.5617 86.084 88.3137 86.548C88.0657 87.012 87.7297 87.38 87.3057 87.652C86.8817 87.924 86.4097 88.06 85.8897 88.06C85.5297 88.06 85.1977 87.988 84.8937 87.844C84.5897 87.7 84.3257 87.496 84.1017 87.232V88H82.7697ZM85.5657 86.932C85.9097 86.932 86.2137 86.848 86.4777 86.68C86.7497 86.512 86.9617 86.284 87.1137 85.996C87.2737 85.7 87.3537 85.368 87.3537 85C87.3537 84.632 87.2737 84.304 87.1137 84.016C86.9617 83.728 86.7497 83.5 86.4777 83.332C86.2137 83.164 85.9097 83.08 85.5657 83.08C85.2697 83.08 84.9977 83.14 84.7497 83.26C84.5017 83.372 84.2937 83.536 84.1257 83.752V86.26C84.3017 86.468 84.5137 86.632 84.7617 86.752C85.0097 86.872 85.2777 86.932 85.5657 86.932ZM92.9016 88.12C92.3256 88.12 91.8056 87.984 91.3416 87.712C90.8776 87.432 90.5096 87.06 90.2376 86.596C89.9656 86.124 89.8296 85.592 89.8296 85C89.8296 84.408 89.9576 83.88 90.2136 83.416C90.4696 82.952 90.8176 82.584 91.2576 82.312C91.7056 82.032 92.2016 81.892 92.7456 81.892C93.3056 81.892 93.7976 82.028 94.2216 82.3C94.6536 82.572 94.9896 82.94 95.2296 83.404C95.4776 83.868 95.6016 84.4 95.6016 85V85.324H91.1616C91.2096 85.652 91.3136 85.944 91.4736 86.2C91.6416 86.448 91.8536 86.644 92.1096 86.788C92.3736 86.932 92.6576 87.004 92.9616 87.004C93.2416 87.004 93.5056 86.956 93.7536 86.86C94.0096 86.756 94.2216 86.616 94.3896 86.44L95.2776 87.244C94.9096 87.548 94.5336 87.772 94.1496 87.916C93.7736 88.052 93.3576 88.12 92.9016 88.12ZM91.1736 84.484H94.3176C94.2696 84.196 94.1696 83.94 94.0176 83.716C93.8736 83.492 93.6896 83.316 93.4656 83.188C93.2496 83.06 93.0096 82.996 92.7456 82.996C92.4816 82.996 92.2376 83.06 92.0136 83.188C91.7976 83.308 91.6176 83.48 91.4736 83.704C91.3296 83.928 91.2296 84.188 91.1736 84.484ZM96.9845 88V79.396L98.3405 79.156V88H96.9845Z" fill="#151515"/>
<path d="M40.5 107C40.5 103.962 42.9624 101.5 46 101.5H413C416.038 101.5 418.5 103.962 418.5 107V132C418.5 135.038 416.038 137.5 413 137.5H46C42.9624 137.5 40.5 135.038 40.5 132V107Z" fill="#F2F2F2"/>
<path d="M40.5 107C40.5 103.962 42.9624 101.5 46 101.5H413C416.038 101.5 418.5 103.962 418.5 107V132C418.5 135.038 416.038 137.5 413 137.5H46C42.9624 137.5 40.5 135.038 40.5 132V107Z" stroke="#E0E0E0"/>
<path d="M58.408 120.472C58.0253 120.472 57.694 120.337 57.414 120.066C57.134 119.795 56.994 119.459 56.994 119.058C56.994 118.657 57.134 118.321 57.414 118.05C57.694 117.779 58.0207 117.644 58.394 117.644C58.7767 117.644 59.1033 117.779 59.374 118.05C59.654 118.321 59.794 118.657 59.794 119.058C59.794 119.459 59.654 119.795 59.374 120.066C59.1033 120.337 58.7813 120.472 58.408 120.472ZM63.1932 120.472C62.8105 120.472 62.4792 120.337 62.1992 120.066C61.9192 119.795 61.7792 119.459 61.7792 119.058C61.7792 118.657 61.9192 118.321 62.1992 118.05C62.4792 117.779 62.8058 117.644 63.1792 117.644C63.5618 117.644 63.8885 117.779 64.1592 118.05C64.4392 118.321 64.5792 118.657 64.5792 119.058C64.5792 119.459 64.4392 119.795 64.1592 120.066C63.8885 120.337 63.5665 120.472 63.1932 120.472ZM67.9783 120.472C67.5956 120.472 67.2643 120.337 66.9843 120.066C66.7043 119.795 66.5643 119.459 66.5643 119.058C66.5643 118.657 66.7043 118.321 66.9843 118.05C67.2643 117.779 67.591 117.644 67.9643 117.644C68.347 117.644 68.6736 117.779 68.9443 118.05C69.2243 118.321 69.3643 118.657 69.3643 119.058C69.3643 119.459 69.2243 119.795 68.9443 120.066C68.6736 120.337 68.3516 120.472 67.9783 120.472ZM72.7635 120.472C72.3808 120.472 72.0495 120.337 71.7695 120.066C71.4895 119.795 71.3495 119.459 71.3495 119.058C71.3495 118.657 71.4895 118.321 71.7695 118.05C72.0495 117.779 72.3761 117.644 72.7495 117.644C73.1321 117.644 73.4588 117.779 73.7295 118.05C74.0095 118.321 74.1495 118.657 74.1495 119.058C74.1495 119.459 74.0095 119.795 73.7295 120.066C73.4588 120.337 73.1368 120.472 72.7635 120.472ZM77.5486 120.472C77.166 120.472 76.8346 120.337 76.5546 120.066C76.2746 119.795 76.1346 119.459 76.1346 119.058C76.1346 118.657 76.2746 118.321 76.5546 118.05C76.8346 117.779 77.1613 117.644 77.5346 117.644C77.9173 117.644 78.244 117.779 78.5146 118.05C78.7946 118.321 78.9346 118.657 78.9346 119.058C78.9346 119.459 78.7946 119.795 78.5146 120.066C78.244 120.337 77.922 120.472 77.5486 120.472Z" fill="#151515"/>
<path d="M423.5 107C423.5 103.962 425.962 101.5 429 101.5H470C473.038 101.5 475.5 103.962 475.5 107V132C475.5 135.038 473.038 137.5 470 137.5H429C425.962 137.5 423.5 135.038 423.5 132V107Z" fill="white"/>
<path d="M423.5 107C423.5 103.962 425.962 101.5 429 101.5H470C473.038 101.5 475.5 103.962 475.5 107V132C475.5 135.038 473.038 137.5 470 137.5H429C425.962 137.5 423.5 135.038 423.5 132V107Z" stroke="#C7C7C7"/>
<path fill-rule="evenodd" clip-rule="evenodd" d="M455.76 124.375C456.123 124.375 456.417 124.081 456.417 123.719V116.5H453.573C453.212 116.5 452.917 116.205 452.917 115.844V113H448.323C447.96 113 447.667 113.294 447.667 113.656V123.719C447.667 124.081 447.96 124.375 448.323 124.375H455.76ZM456.417 115.625V115.459C456.417 115.309 456.33 115.101 456.224 114.995L454.421 113.192C454.315 113.086 454.107 113 453.957 113H453.792V115.625H456.417ZM452.26 127C452.623 127 452.917 126.706 452.917 126.344V125.25H448.323C447.479 125.25 446.792 124.563 446.792 123.719V115.625H444.823C444.46 115.625 444.167 115.919 444.167 116.281V126.344C444.167 126.706 444.46 127 444.823 127H452.26Z" fill="#1F1F1F"/>
<path d="M40.948 167V158.6H42.388V167H40.948ZM44.1798 167V160.988H45.5358V161.972C45.7678 161.612 46.0438 161.344 46.3638 161.168C46.6838 160.984 47.0398 160.892 47.4318 160.892C47.8478 160.892 48.2118 160.984 48.5238 161.168C48.8358 161.344 49.0798 161.592 49.2558 161.912C49.4398 162.232 49.5318 162.608 49.5318 163.04V167H48.1638V163.424C48.1638 162.984 48.0438 162.636 47.8038 162.38C47.5638 162.116 47.2438 161.984 46.8438 161.984C46.5718 161.984 46.3238 162.048 46.0998 162.176C45.8838 162.296 45.6958 162.476 45.5358 162.716V167H44.1798ZM51.1642 169.508V160.988H52.4962V161.84C52.7122 161.552 52.9802 161.332 53.3002 161.18C53.6282 161.02 53.9842 160.94 54.3682 160.94C54.8802 160.94 55.3402 161.076 55.7482 161.348C56.1562 161.62 56.4802 161.988 56.7202 162.452C56.9602 162.916 57.0802 163.432 57.0802 164C57.0802 164.568 56.9562 165.084 56.7082 165.548C56.4602 166.012 56.1242 166.38 55.7002 166.652C55.2762 166.924 54.8042 167.06 54.2842 167.06C53.9242 167.06 53.5922 166.996 53.2882 166.868C52.9922 166.732 52.7362 166.54 52.5202 166.292V169.508H51.1642ZM53.9602 165.932C54.3042 165.932 54.6082 165.848 54.8722 165.68C55.1442 165.512 55.3562 165.284 55.5082 164.996C55.6682 164.7 55.7482 164.368 55.7482 164C55.7482 163.632 55.6682 163.304 55.5082 163.016C55.3562 162.728 55.1442 162.5 54.8722 162.332C54.6082 162.164 54.3042 162.08 53.9602 162.08C53.6642 162.08 53.3922 162.14 53.1442 162.26C52.8962 162.372 52.6882 162.536 52.5202 162.752V165.26C52.6962 165.468 52.9082 165.632 53.1562 165.752C53.4042 165.872 53.6722 165.932 53.9602 165.932ZM60.5522 167.096C60.1362 167.096 59.7722 167.004 59.4602 166.82C59.1482 166.636 58.9002 166.384 58.7162 166.064C58.5402 165.744 58.4522 165.372 58.4522 164.948V160.988H59.8202V164.552C59.8202 165 59.9362 165.356 60.1682 165.62C60.4082 165.876 60.7322 166.004 61.1402 166.004C61.4122 166.004 61.6562 165.944 61.8722 165.824C62.0962 165.704 62.2882 165.524 62.4482 165.284V160.988H63.8042V167H62.4482V166.028C62.2162 166.38 61.9402 166.648 61.6202 166.832C61.3002 167.008 60.9442 167.096 60.5522 167.096ZM68.0765 167.12C67.4685 167.12 67.0085 166.98 66.6965 166.7C66.3845 166.412 66.2285 165.992 66.2285 165.44V162.068H65.0285V160.988H66.2285V159.332L67.5845 159.044V160.988H69.2525V162.068H67.5845V165.14C67.5845 165.436 67.6485 165.648 67.7765 165.776C67.9045 165.896 68.1205 165.956 68.4245 165.956C68.5605 165.956 68.6845 165.948 68.7965 165.932C68.9165 165.908 69.0645 165.868 69.2405 165.812V166.952C69.0725 167.008 68.8805 167.048 68.6645 167.072C68.4565 167.104 68.2605 167.12 68.0765 167.12ZM73.1486 167V158.396L74.5046 158.156V167H73.1486ZM77.996 167.108C77.58 167.108 77.208 167.032 76.88 166.88C76.56 166.72 76.308 166.504 76.124 166.232C75.948 165.952 75.86 165.632 75.86 165.272C75.86 164.912 75.952 164.6 76.136 164.336C76.328 164.072 76.596 163.868 76.94 163.724C77.284 163.58 77.692 163.508 78.164 163.508C78.444 163.508 78.72 163.54 78.992 163.604C79.264 163.66 79.528 163.756 79.784 163.892V163.22C79.784 162.82 79.668 162.52 79.436 162.32C79.212 162.12 78.868 162.02 78.404 162.02C78.156 162.02 77.888 162.06 77.6 162.14C77.32 162.212 77.004 162.328 76.652 162.488L76.172 161.504C77.052 161.096 77.884 160.892 78.668 160.892C79.452 160.892 80.056 161.084 80.48 161.468C80.912 161.844 81.128 162.38 81.128 163.076V167H79.784V166.376C79.528 166.624 79.252 166.808 78.956 166.928C78.66 167.048 78.34 167.108 77.996 167.108ZM77.132 165.248C77.132 165.528 77.244 165.748 77.468 165.908C77.692 166.068 77.992 166.148 78.368 166.148C78.64 166.148 78.892 166.108 79.124 166.028C79.364 165.94 79.584 165.812 79.784 165.644V164.672C79.576 164.576 79.36 164.504 79.136 164.456C78.912 164.408 78.668 164.384 78.404 164.384C78.012 164.384 77.7 164.46 77.468 164.612C77.244 164.764 77.132 164.976 77.132 165.248ZM82.7697 167V158.432L84.1257 158.204V161.792C84.3417 161.52 84.6057 161.312 84.9177 161.168C85.2377 161.016 85.5897 160.94 85.9737 160.94C86.4857 160.94 86.9457 161.076 87.3537 161.348C87.7617 161.62 88.0857 161.988 88.3257 162.452C88.5657 162.916 88.6857 163.432 88.6857 164C88.6857 164.568 88.5617 165.084 88.3137 165.548C88.0657 166.012 87.7297 166.38 87.3057 166.652C86.8817 166.924 86.4097 167.06 85.8897 167.06C85.5297 167.06 85.1977 166.988 84.8937 166.844C84.5897 166.7 84.3257 166.496 84.1017 166.232V167H82.7697ZM85.5657 165.932C85.9097 165.932 86.2137 165.848 86.4777 165.68C86.7497 165.512 86.9617 165.284 87.1137 164.996C87.2737 164.7 87.3537 164.368 87.3537 164C87.3537 163.632 87.2737 163.304 87.1137 163.016C86.9617 162.728 86.7497 162.5 86.4777 162.332C86.2137 162.164 85.9097 162.08 85.5657 162.08C85.2697 162.08 84.9977 162.14 84.7497 162.26C84.5017 162.372 84.2937 162.536 84.1257 162.752V165.26C84.3017 165.468 84.5137 165.632 84.7617 165.752C85.0097 165.872 85.2777 165.932 85.5657 165.932ZM92.9016 167.12C92.3256 167.12 91.8056 166.984 91.3416 166.712C90.8776 166.432 90.5096 166.06 90.2376 165.596C89.9656 165.124 89.8296 164.592 89.8296 164C89.8296 163.408 89.9576 162.88 90.2136 162.416C90.4696 161.952 90.8176 161.584 91.2576 161.312C91.7056 161.032 92.2016 160.892 92.7456 160.892C93.3056 160.892 93.7976 161.028 94.2216 161.3C94.6536 161.572 94.9896 161.94 95.2296 162.404C95.4776 162.868 95.6016 163.4 95.6016 164V164.324H91.1616C91.2096 164.652 91.3136 164.944 91.4736 165.2C91.6416 165.448 91.8536 165.644 92.1096 165.788C92.3736 165.932 92.6576 166.004 92.9616 166.004C93.2416 166.004 93.5056 165.956 93.7536 165.86C94.0096 165.756 94.2216 165.616 94.3896 165.44L95.2776 166.244C94.9096 166.548 94.5336 166.772 94.1496 166.916C93.7736 167.052 93.3576 167.12 92.9016 167.12ZM91.1736 163.484H94.3176C94.2696 163.196 94.1696 162.94 94.0176 162.716C93.8736 162.492 93.6896 162.316 93.4656 162.188C93.2496 162.06 93.0096 161.996 92.7456 161.996C92.4816 161.996 92.2376 162.06 92.0136 162.188C91.7976 162.308 91.6176 162.48 91.4736 162.704C91.3296 162.928 91.2296 163.188 91.1736 163.484ZM96.9845 167V158.396L98.3405 158.156V167H96.9845Z" fill="#151515"/>
<path d="M40.5 186C40.5 182.962 42.9624 180.5 46 180.5H413C416.038 180.5 418.5 182.962 418.5 186V211C418.5 214.038 416.038 216.5 413 216.5H46C42.9624 216.5 40.5 214.038 40.5 211V186Z" fill="#F2F2F2"/>
<path d="M40.5 186C40.5 182.962 42.9624 180.5 46 180.5H413C416.038 180.5 418.5 182.962 418.5 186V211C418.5 214.038 416.038 216.5 413 216.5H46C42.9624 216.5 40.5 214.038 40.5 211V186Z" stroke="#E0E0E0"/>
<path d="M58.408 199.472C58.0253 199.472 57.694 199.337 57.414 199.066C57.134 198.795 56.994 198.459 56.994 198.058C56.994 197.657 57.134 197.321 57.414 197.05C57.694 196.779 58.0207 196.644 58.394 196.644C58.7767 196.644 59.1033 196.779 59.374 197.05C59.654 197.321 59.794 197.657 59.794 198.058C59.794 198.459 59.654 198.795 59.374 199.066C59.1033 199.337 58.7813 199.472 58.408 199.472ZM63.1932 199.472C62.8105 199.472 62.4792 199.337 62.1992 199.066C61.9192 198.795 61.7792 198.459 61.7792 198.058C61.7792 197.657 61.9192 197.321 62.1992 197.05C62.4792 196.779 62.8058 196.644 63.1792 196.644C63.5618 196.644 63.8885 196.779 64.1592 197.05C64.4392 197.321 64.5792 197.657 64.5792 198.058C64.5792 198.459 64.4392 198.795 64.1592 199.066C63.8885 199.337 63.5665 199.472 63.1932 199.472ZM67.9783 199.472C67.5956 199.472 67.2643 199.337 66.9843 199.066C66.7043 198.795 66.5643 198.459 66.5643 198.058C66.5643 197.657 66.7043 197.321 66.9843 197.05C67.2643 196.779 67.591 196.644 67.9643 196.644C68.347 196.644 68.6736 196.779 68.9443 197.05C69.2243 197.321 69.3643 197.657 69.3643 198.058C69.3643 198.459 69.2243 198.795 68.9443 199.066C68.6736 199.337 68.3516 199.472 67.9783 199.472ZM72.7635 199.472C72.3808 199.472 72.0495 199.337 71.7695 199.066C71.4895 198.795 71.3495 198.459 71.3495 198.058C71.3495 197.657 71.4895 197.321 71.7695 197.05C72.0495 196.779 72.3761 196.644 72.7495 196.644C73.1321 196.644 73.4588 196.779 73.7295 197.05C74.0095 197.321 74.1495 197.657 74.1495 198.058C74.1495 198.459 74.0095 198.795 73.7295 199.066C73.4588 199.337 73.1368 199.472 72.7635 199.472ZM77.5486 199.472C77.166 199.472 76.8346 199.337 76.5546 199.066C76.2746 198.795 76.1346 198.459 76.1346 198.058C76.1346 197.657 76.2746 197.321 76.5546 197.05C76.8346 196.779 77.1613 196.644 77.5346 196.644C77.9173 196.644 78.244 196.779 78.5146 197.05C78.7946 197.321 78.9346 197.657 78.9346 198.058C78.9346 198.459 78.7946 198.795 78.5146 199.066C78.244 199.337 77.922 199.472 77.5486 199.472Z" fill="#151515"/>
<path d="M423.5 186C423.5 182.962 425.962 180.5 429 180.5H470C473.038 180.5 475.5 182.962 475.5 186V211C475.5 214.038 473.038 216.5 470 216.5H429C425.962 216.5 423.5 214.038 423.5 211V186Z" fill="white"/>
<path d="M423.5 186C423.5 182.962 425.962 180.5 429 180.5H470C473.038 180.5 475.5 182.962 475.5 186V211C475.5 214.038 473.038 216.5 470 216.5H429C425.962 216.5 423.5 214.038 423.5 211V186Z" stroke="#C7C7C7"/>
<path fill-rule="evenodd" clip-rule="evenodd" d="M455.76 203.375C456.123 203.375 456.417 203.081 456.417 202.719V195.5H453.573C453.212 195.5 452.917 195.205 452.917 194.844V192H448.323C447.96 192 447.667 192.294 447.667 192.656V202.719C447.667 203.081 447.96 203.375 448.323 203.375H455.76ZM456.417 194.625V194.459C456.417 194.309 456.33 194.101 456.224 193.995L454.421 192.192C454.315 192.086 454.107 192 453.957 192H453.792V194.625H456.417ZM452.26 206C452.623 206 452.917 205.706 452.917 205.344V204.25H448.323C447.479 204.25 446.792 203.563 446.792 202.719V194.625H444.823C444.46 194.625 444.167 194.919 444.167 195.281V205.344C444.167 205.706 444.46 206 444.823 206H452.26Z" fill="#1F1F1F"/>
<path d="M40.948 246V237.6H42.388V246H40.948ZM44.1798 246V239.988H45.5358V240.972C45.7678 240.612 46.0438 240.344 46.3638 240.168C46.6838 239.984 47.0398 239.892 47.4318 239.892C47.8478 239.892 48.2118 239.984 48.5238 240.168C48.8358 240.344 49.0798 240.592 49.2558 240.912C49.4398 241.232 49.5318 241.608 49.5318 242.04V246H48.1638V242.424C48.1638 241.984 48.0438 241.636 47.8038 241.38C47.5638 241.116 47.2438 240.984 46.8438 240.984C46.5718 240.984 46.3238 241.048 46.0998 241.176C45.8838 241.296 45.6958 241.476 45.5358 241.716V246H44.1798ZM51.1642 248.508V239.988H52.4962V240.84C52.7122 240.552 52.9802 240.332 53.3002 240.18C53.6282 240.02 53.9842 239.94 54.3682 239.94C54.8802 239.94 55.3402 240.076 55.7482 240.348C56.1562 240.62 56.4802 240.988 56.7202 241.452C56.9602 241.916 57.0802 242.432 57.0802 243C57.0802 243.568 56.9562 244.084 56.7082 244.548C56.4602 245.012 56.1242 245.38 55.7002 245.652C55.2762 245.924 54.8042 246.06 54.2842 246.06C53.9242 246.06 53.5922 245.996 53.2882 245.868C52.9922 245.732 52.7362 245.54 52.5202 245.292V248.508H51.1642ZM53.9602 244.932C54.3042 244.932 54.6082 244.848 54.8722 244.68C55.1442 244.512 55.3562 244.284 55.5082 243.996C55.6682 243.7 55.7482 243.368 55.7482 243C55.7482 242.632 55.6682 242.304 55.5082 242.016C55.3562 241.728 55.1442 241.5 54.8722 241.332C54.6082 241.164 54.3042 241.08 53.9602 241.08C53.6642 241.08 53.3922 241.14 53.1442 241.26C52.8962 241.372 52.6882 241.536 52.5202 241.752V244.26C52.6962 244.468 52.9082 244.632 53.1562 244.752C53.4042 244.872 53.6722 244.932 53.9602 244.932ZM60.5522 246.096C60.1362 246.096 59.7722 246.004 59.4602 245.82C59.1482 245.636 58.9002 245.384 58.7162 245.064C58.5402 244.744 58.4522 244.372 58.4522 243.948V239.988H59.8202V243.552C59.8202 244 59.9362 244.356 60.1682 244.62C60.4082 244.876 60.7322 245.004 61.1402 245.004C61.4122 245.004 61.6562 244.944 61.8722 244.824C62.0962 244.704 62.2882 244.524 62.4482 244.284V239.988H63.8042V246H62.4482V245.028C62.2162 245.38 61.9402 245.648 61.6202 245.832C61.3002 246.008 60.9442 246.096 60.5522 246.096ZM68.0765 246.12C67.4685 246.12 67.0085 245.98 66.6965 245.7C66.3845 245.412 66.2285 244.992 66.2285 244.44V241.068H65.0285V239.988H66.2285V238.332L67.5845 238.044V239.988H69.2525V241.068H67.5845V244.14C67.5845 244.436 67.6485 244.648 67.7765 244.776C67.9045 244.896 68.1205 244.956 68.4245 244.956C68.5605 244.956 68.6845 244.948 68.7965 244.932C68.9165 244.908 69.0645 244.868 69.2405 244.812V245.952C69.0725 246.008 68.8805 246.048 68.6645 246.072C68.4565 246.104 68.2605 246.12 68.0765 246.12ZM73.1486 246V237.396L74.5046 237.156V246H73.1486ZM77.996 246.108C77.58 246.108 77.208 246.032 76.88 245.88C76.56 245.72 76.308 245.504 76.124 245.232C75.948 244.952 75.86 244.632 75.86 244.272C75.86 243.912 75.952 243.6 76.136 243.336C76.328 243.072 76.596 242.868 76.94 242.724C77.284 242.58 77.692 242.508 78.164 242.508C78.444 242.508 78.72 242.54 78.992 242.604C79.264 242.66 79.528 242.756 79.784 242.892V242.22C79.784 241.82 79.668 241.52 79.436 241.32C79.212 241.12 78.868 241.02 78.404 241.02C78.156 241.02 77.888 241.06 77.6 241.14C77.32 241.212 77.004 241.328 76.652 241.488L76.172 240.504C77.052 240.096 77.884 239.892 78.668 239.892C79.452 239.892 80.056 240.084 80.48 240.468C80.912 240.844 81.128 241.38 81.128 242.076V246H79.784V245.376C79.528 245.624 79.252 245.808 78.956 245.928C78.66 246.048 78.34 246.108 77.996 246.108ZM77.132 244.248C77.132 244.528 77.244 244.748 77.468 244.908C77.692 245.068 77.992 245.148 78.368 245.148C78.64 245.148 78.892 245.108 79.124 245.028C79.364 244.94 79.584 244.812 79.784 244.644V243.672C79.576 243.576 79.36 243.504 79.136 243.456C78.912 243.408 78.668 243.384 78.404 243.384C78.012 243.384 77.7 243.46 77.468 243.612C77.244 243.764 77.132 243.976 77.132 244.248ZM82.7697 246V237.432L84.1257 237.204V240.792C84.3417 240.52 84.6057 240.312 84.9177 240.168C85.2377 240.016 85.5897 239.94 85.9737 239.94C86.4857 239.94 86.9457 240.076 87.3537 240.348C87.7617 240.62 88.0857 240.988 88.3257 241.452C88.5657 241.916 88.6857 242.432 88.6857 243C88.6857 243.568 88.5617 244.084 88.3137 244.548C88.0657 245.012 87.7297 245.38 87.3057 245.652C86.8817 245.924 86.4097 246.06 85.8897 246.06C85.5297 246.06 85.1977 245.988 84.8937 245.844C84.5897 245.7 84.3257 245.496 84.1017 245.232V246H82.7697ZM85.5657 244.932C85.9097 244.932 86.2137 244.848 86.4777 244.68C86.7497 244.512 86.9617 244.284 87.1137 243.996C87.2737 243.7 87.3537 243.368 87.3537 243C87.3537 242.632 87.2737 242.304 87.1137 242.016C86.9617 241.728 86.7497 241.5 86.4777 241.332C86.2137 241.164 85.9097 241.08 85.5657 241.08C85.2697 241.08 84.9977 241.14 84.7497 241.26C84.5017 241.372 84.2937 241.536 84.1257 241.752V244.26C84.3017 244.468 84.5137 244.632 84.7617 244.752C85.0097 244.872 85.2777 244.932 85.5657 244.932ZM92.9016 246.12C92.3256 246.12 91.8056 245.984 91.3416 245.712C90.8776 245.432 90.5096 245.06 90.2376 244.596C89.9656 244.124 89.8296 243.592 89.8296 243C89.8296 242.408 89.9576 241.88 90.2136 241.416C90.4696 240.952 90.8176 240.584 91.2576 240.312C91.7056 240.032 92.2016 239.892 92.7456 239.892C93.3056 239.892 93.7976 240.028 94.2216 240.3C94.6536 240.572 94.9896 240.94 95.2296 241.404C95.4776 241.868 95.6016 242.4 95.6016 243V243.324H91.1616C91.2096 243.652 91.3136 243.944 91.4736 244.2C91.6416 244.448 91.8536 244.644 92.1096 244.788C92.3736 244.932 92.6576 245.004 92.9616 245.004C93.2416 245.004 93.5056 244.956 93.7536 244.86C94.0096 244.756 94.2216 244.616 94.3896 244.44L95.2776 245.244C94.9096 245.548 94.5336 245.772 94.1496 245.916C93.7736 246.052 93.3576 246.12 92.9016 246.12ZM91.1736 242.484H94.3176C94.2696 242.196 94.1696 241.94 94.0176 241.716C93.8736 241.492 93.6896 241.316 93.4656 241.188C93.2496 241.06 93.0096 240.996 92.7456 240.996C92.4816 240.996 92.2376 241.06 92.0136 241.188C91.7976 241.308 91.6176 241.48 91.4736 241.704C91.3296 241.928 91.2296 242.188 91.1736 242.484ZM96.9845 246V237.396L98.3405 237.156V246H96.9845Z" fill="#151515"/>
<path d="M40.5 265C40.5 261.962 42.9624 259.5 46 259.5H413C416.038 259.5 418.5 261.962 418.5 265V290C418.5 293.038 416.038 295.5 413 295.5H46C42.9624 295.5 40.5 293.038 40.5 290V265Z" fill="#F2F2F2"/>
<path d="M40.5 265C40.5 261.962 42.9624 259.5 46 259.5H413C416.038 259.5 418.5 261.962 418.5 265V290C418.5 293.038 416.038 295.5 413 295.5H46C42.9624 295.5 40.5 293.038 40.5 290V265Z" stroke="#E0E0E0"/>
<path d="M58.408 278.472C58.0253 278.472 57.694 278.337 57.414 278.066C57.134 277.795 56.994 277.459 56.994 277.058C56.994 276.657 57.134 276.321 57.414 276.05C57.694 275.779 58.0207 275.644 58.394 275.644C58.7767 275.644 59.1033 275.779 59.374 276.05C59.654 276.321 59.794 276.657 59.794 277.058C59.794 277.459 59.654 277.795 59.374 278.066C59.1033 278.337 58.7813 278.472 58.408 278.472ZM63.1932 278.472C62.8105 278.472 62.4792 278.337 62.1992 278.066C61.9192 277.795 61.7792 277.459 61.7792 277.058C61.7792 276.657 61.9192 276.321 62.1992 276.05C62.4792 275.779 62.8058 275.644 63.1792 275.644C63.5618 275.644 63.8885 275.779 64.1592 276.05C64.4392 276.321 64.5792 276.657 64.5792 277.058C64.5792 277.459 64.4392 277.795 64.1592 278.066C63.8885 278.337 63.5665 278.472 63.1932 278.472ZM67.9783 278.472C67.5956 278.472 67.2643 278.337 66.9843 278.066C66.7043 277.795 66.5643 277.459 66.5643 277.058C66.5643 276.657 66.7043 276.321 66.9843 276.05C67.2643 275.779 67.591 275.644 67.9643 275.644C68.347 275.644 68.6736 275.779 68.9443 276.05C69.2243 276.321 69.3643 276.657 69.3643 277.058C69.3643 277.459 69.2243 277.795 68.9443 278.066C68.6736 278.337 68.3516 278.472 67.9783 278.472ZM72.7635 278.472C72.3808 278.472 72.0495 278.337 71.7695 278.066C71.4895 277.795 71.3495 277.459 71.3495 277.058C71.3495 276.657 71.4895 276.321 71.7695 276.05C72.0495 275.779 72.3761 275.644 72.7495 275.644C73.1321 275.644 73.4588 275.779 73.7295 276.05C74.0095 276.321 74.1495 276.657 74.1495 277.058C74.1495 277.459 74.0095 277.795 73.7295 278.066C73.4588 278.337 73.1368 278.472 72.7635 278.472ZM77.5486 278.472C77.166 278.472 76.8346 278.337 76.5546 278.066C76.2746 277.795 76.1346 277.459 76.1346 277.058C76.1346 276.657 76.2746 276.321 76.5546 276.05C76.8346 275.779 77.1613 275.644 77.5346 275.644C77.9173 275.644 78.244 275.779 78.5146 276.05C78.7946 276.321 78.9346 276.657 78.9346 277.058C78.9346 277.459 78.7946 277.795 78.5146 278.066C78.244 278.337 77.922 278.472 77.5486 278.472Z" fill="#151515"/>
<path d="M423.5 265C423.5 261.962 425.962 259.5 429 259.5H470C473.038 259.5 475.5 261.962 475.5 265V290C475.5 293.038 473.038 295.5 470 295.5H429C425.962 295.5 423.5 293.038 423.5 290V265Z" fill="white"/>
<path d="M423.5 265C423.5 261.962 425.962 259.5 429 259.5H470C473.038 259.5 475.5 261.962 475.5 265V290C475.5 293.038 473.038 295.5 470 295.5H429C425.962 295.5 423.5 293.038 423.5 290V265Z" stroke="#C7C7C7"/>
<path fill-rule="evenodd" clip-rule="evenodd" d="M455.76 282.375C456.123 282.375 456.417 282.081 456.417 281.719V274.5H453.573C453.212 274.5 452.917 274.205 452.917 273.844V271H448.323C447.96 271 447.667 271.294 447.667 271.656V281.719C447.667 282.081 447.96 282.375 448.323 282.375H455.76ZM456.417 273.625V273.459C456.417 273.309 456.33 273.101 456.224 272.995L454.421 271.192C454.315 271.086 454.107 271 453.957 271H453.792V273.625H456.417ZM452.26 285C452.623 285 452.917 284.706 452.917 284.344V283.25H448.323C447.479 283.25 446.792 282.563 446.792 281.719V273.625H444.823C444.46 273.625 444.167 273.919 444.167 274.281V284.344C444.167 284.706 444.46 285 444.823 285H452.26Z" fill="#1F1F1F"/>
<path d="M40.948 325V316.6H42.388V325H40.948ZM44.1798 325V318.988H45.5358V319.972C45.7678 319.612 46.0438 319.344 46.3638 319.168C46.6838 318.984 47.0398 318.892 47.4318 318.892C47.8478 318.892 48.2118 318.984 48.5238 319.168C48.8358 319.344 49.0798 319.592 49.2558 319.912C49.4398 320.232 49.5318 320.608 49.5318 321.04V325H48.1638V321.424C48.1638 320.984 48.0438 320.636 47.8038 320.38C47.5638 320.116 47.2438 319.984 46.8438 319.984C46.5718 319.984 46.3238 320.048 46.0998 320.176C45.8838 320.296 45.6958 320.476 45.5358 320.716V325H44.1798ZM51.1642 327.508V318.988H52.4962V319.84C52.7122 319.552 52.9802 319.332 53.3002 319.18C53.6282 319.02 53.9842 318.94 54.3682 318.94C54.8802 318.94 55.3402 319.076 55.7482 319.348C56.1562 319.62 56.4802 319.988 56.7202 320.452C56.9602 320.916 57.0802 321.432 57.0802 322C57.0802 322.568 56.9562 323.084 56.7082 323.548C56.4602 324.012 56.1242 324.38 55.7002 324.652C55.2762 324.924 54.8042 325.06 54.2842 325.06C53.9242 325.06 53.5922 324.996 53.2882 324.868C52.9922 324.732 52.7362 324.54 52.5202 324.292V327.508H51.1642ZM53.9602 323.932C54.3042 323.932 54.6082 323.848 54.8722 323.68C55.1442 323.512 55.3562 323.284 55.5082 322.996C55.6682 322.7 55.7482 322.368 55.7482 322C55.7482 321.632 55.6682 321.304 55.5082 321.016C55.3562 320.728 55.1442 320.5 54.8722 320.332C54.6082 320.164 54.3042 320.08 53.9602 320.08C53.6642 320.08 53.3922 320.14 53.1442 320.26C52.8962 320.372 52.6882 320.536 52.5202 320.752V323.26C52.6962 323.468 52.9082 323.632 53.1562 323.752C53.4042 323.872 53.6722 323.932 53.9602 323.932ZM60.5522 325.096C60.1362 325.096 59.7722 325.004 59.4602 324.82C59.1482 324.636 58.9002 324.384 58.7162 324.064C58.5402 323.744 58.4522 323.372 58.4522 322.948V318.988H59.8202V322.552C59.8202 323 59.9362 323.356 60.1682 323.62C60.4082 323.876 60.7322 324.004 61.1402 324.004C61.4122 324.004 61.6562 323.944 61.8722 323.824C62.0962 323.704 62.2882 323.524 62.4482 323.284V318.988H63.8042V325H62.4482V324.028C62.2162 324.38 61.9402 324.648 61.6202 324.832C61.3002 325.008 60.9442 325.096 60.5522 325.096ZM68.0765 325.12C67.4685 325.12 67.0085 324.98 66.6965 324.7C66.3845 324.412 66.2285 323.992 66.2285 323.44V320.068H65.0285V318.988H66.2285V317.332L67.5845 317.044V318.988H69.2525V320.068H67.5845V323.14C67.5845 323.436 67.6485 323.648 67.7765 323.776C67.9045 323.896 68.1205 323.956 68.4245 323.956C68.5605 323.956 68.6845 323.948 68.7965 323.932C68.9165 323.908 69.0645 323.868 69.2405 323.812V324.952C69.0725 325.008 68.8805 325.048 68.6645 325.072C68.4565 325.104 68.2605 325.12 68.0765 325.12ZM73.1486 325V316.396L74.5046 316.156V325H73.1486ZM77.996 325.108C77.58 325.108 77.208 325.032 76.88 324.88C76.56 324.72 76.308 324.504 76.124 324.232C75.948 323.952 75.86 323.632 75.86 323.272C75.86 322.912 75.952 322.6 76.136 322.336C76.328 322.072 76.596 321.868 76.94 321.724C77.284 321.58 77.692 321.508 78.164 321.508C78.444 321.508 78.72 321.54 78.992 321.604C79.264 321.66 79.528 321.756 79.784 321.892V321.22C79.784 320.82 79.668 320.52 79.436 320.32C79.212 320.12 78.868 320.02 78.404 320.02C78.156 320.02 77.888 320.06 77.6 320.14C77.32 320.212 77.004 320.328 76.652 320.488L76.172 319.504C77.052 319.096 77.884 318.892 78.668 318.892C79.452 318.892 80.056 319.084 80.48 319.468C80.912 319.844 81.128 320.38 81.128 321.076V325H79.784V324.376C79.528 324.624 79.252 324.808 78.956 324.928C78.66 325.048 78.34 325.108 77.996 325.108ZM77.132 323.248C77.132 323.528 77.244 323.748 77.468 323.908C77.692 324.068 77.992 324.148 78.368 324.148C78.64 324.148 78.892 324.108 79.124 324.028C79.364 323.94 79.584 323.812 79.784 323.644V322.672C79.576 322.576 79.36 322.504 79.136 322.456C78.912 322.408 78.668 322.384 78.404 322.384C78.012 322.384 77.7 322.46 77.468 322.612C77.244 322.764 77.132 322.976 77.132 323.248ZM82.7697 325V316.432L84.1257 316.204V319.792C84.3417 319.52 84.6057 319.312 84.9177 319.168C85.2377 319.016 85.5897 318.94 85.9737 318.94C86.4857 318.94 86.9457 319.076 87.3537 319.348C87.7617 319.62 88.0857 319.988 88.3257 320.452C88.5657 320.916 88.6857 321.432 88.6857 322C88.6857 322.568 88.5617 323.084 88.3137 323.548C88.0657 324.012 87.7297 324.38 87.3057 324.652C86.8817 324.924 86.4097 325.06 85.8897 325.06C85.5297 325.06 85.1977 324.988 84.8937 324.844C84.5897 324.7 84.3257 324.496 84.1017 324.232V325H82.7697ZM85.5657 323.932C85.9097 323.932 86.2137 323.848 86.4777 323.68C86.7497 323.512 86.9617 323.284 87.1137 322.996C87.2737 322.7 87.3537 322.368 87.3537 322C87.3537 321.632 87.2737 321.304 87.1137 321.016C86.9617 320.728 86.7497 320.5 86.4777 320.332C86.2137 320.164 85.9097 320.08 85.5657 320.08C85.2697 320.08 84.9977 320.14 84.7497 320.26C84.5017 320.372 84.2937 320.536 84.1257 320.752V323.26C84.3017 323.468 84.5137 323.632 84.7617 323.752C85.0097 323.872 85.2777 323.932 85.5657 323.932ZM92.9016 325.12C92.3256 325.12 91.8056 324.984 91.3416 324.712C90.8776 324.432 90.5096 324.06 90.2376 323.596C89.9656 323.124 89.8296 322.592 89.8296 322C89.8296 321.408 89.9576 320.88 90.2136 320.416C90.4696 319.952 90.8176 319.584 91.2576 319.312C91.7056 319.032 92.2016 318.892 92.7456 318.892C93.3056 318.892 93.7976 319.028 94.2216 319.3C94.6536 319.572 94.9896 319.94 95.2296 320.404C95.4776 320.868 95.6016 321.4 95.6016 322V322.324H91.1616C91.2096 322.652 91.3136 322.944 91.4736 323.2C91.6416 323.448 91.8536 323.644 92.1096 323.788C92.3736 323.932 92.6576 324.004 92.9616 324.004C93.2416 324.004 93.5056 323.956 93.7536 323.86C94.0096 323.756 94.2216 323.616 94.3896 323.44L95.2776 324.244C94.9096 324.548 94.5336 324.772 94.1496 324.916C93.7736 325.052 93.3576 325.12 92.9016 325.12ZM91.1736 321.484H94.3176C94.2696 321.196 94.1696 320.94 94.0176 320.716C93.8736 320.492 93.6896 320.316 93.4656 320.188C93.2496 320.06 93.0096 319.996 92.7456 319.996C92.4816 319.996 92.2376 320.06 92.0136 320.188C91.7976 320.308 91.6176 320.48 91.4736 320.704C91.3296 320.928 91.2296 321.188 91.1736 321.484ZM96.9845 325V316.396L98.3405 316.156V325H96.9845Z" fill="#151515"/>
<path d="M40.5 344C40.5 340.962 42.9624 338.5 46 338.5H413C416.038 338.5 418.5 340.962 418.5 344V369C418.5 372.038 416.038 374.5 413 374.5H46C42.9624 374.5 40.5 372.038 40.5 369V344Z" fill="#F2F2F2"/>
<path d="M40.5 344C40.5 340.962 42.9624 338.5 46 338.5H413C416.038 338.5 418.5 340.962 418.5 344V369C418.5 372.038 416.038 374.5 413 374.5H46C42.9624 374.5 40.5 372.038 40.5 369V344Z" stroke="#E0E0E0"/>
<path d="M58.408 357.472C58.0253 357.472 57.694 357.337 57.414 357.066C57.134 356.795 56.994 356.459 56.994 356.058C56.994 355.657 57.134 355.321 57.414 355.05C57.694 354.779 58.0207 354.644 58.394 354.644C58.7767 354.644 59.1033 354.779 59.374 355.05C59.654 355.321 59.794 355.657 59.794 356.058C59.794 356.459 59.654 356.795 59.374 357.066C59.1033 357.337 58.7813 357.472 58.408 357.472ZM63.1932 357.472C62.8105 357.472 62.4792 357.337 62.1992 357.066C61.9192 356.795 61.7792 356.459 61.7792 356.058C61.7792 355.657 61.9192 355.321 62.1992 355.05C62.4792 354.779 62.8058 354.644 63.1792 354.644C63.5618 354.644 63.8885 354.779 64.1592 355.05C64.4392 355.321 64.5792 355.657 64.5792 356.058C64.5792 356.459 64.4392 356.795 64.1592 357.066C63.8885 357.337 63.5665 357.472 63.1932 357.472ZM67.9783 357.472C67.5956 357.472 67.2643 357.337 66.9843 357.066C66.7043 356.795 66.5643 356.459 66.5643 356.058C66.5643 355.657 66.7043 355.321 66.9843 355.05C67.2643 354.779 67.591 354.644 67.9643 354.644C68.347 354.644 68.6736 354.779 68.9443 355.05C69.2243 355.321 69.3643 355.657 69.3643 356.058C69.3643 356.459 69.2243 356.795 68.9443 357.066C68.6736 357.337 68.3516 357.472 67.9783 357.472ZM72.7635 357.472C72.3808 357.472 72.0495 357.337 71.7695 357.066C71.4895 356.795 71.3495 356.459 71.3495 356.058C71.3495 355.657 71.4895 355.321 71.7695 355.05C72.0495 354.779 72.3761 354.644 72.7495 354.644C73.1321 354.644 73.4588 354.779 73.7295 355.05C74.0095 355.321 74.1495 355.657 74.1495 356.058C74.1495 356.459 74.0095 356.795 73.7295 357.066C73.4588 357.337 73.1368 357.472 72.7635 357.472ZM77.5486 357.472C77.166 357.472 76.8346 357.337 76.5546 357.066C76.2746 356.795 76.1346 356.459 76.1346 356.058C76.1346 355.657 76.2746 355.321 76.5546 355.05C76.8346 354.779 77.1613 354.644 77.5346 354.644C77.9173 354.644 78.244 354.779 78.5146 355.05C78.7946 355.321 78.9346 355.657 78.9346 356.058C78.9346 356.459 78.7946 356.795 78.5146 357.066C78.244 357.337 77.922 357.472 77.5486 357.472Z" fill="#151515"/>
<path d="M423.5 344C423.5 340.962 425.962 338.5 429 338.5H470C473.038 338.5 475.5 340.962 475.5 344V369C475.5 372.038 473.038 374.5 470 374.5H429C425.962 374.5 423.5 372.038 423.5 369V344Z" fill="white"/>
<path d="M423.5 344C423.5 340.962 425.962 338.5 429 338.5H470C473.038 338.5 475.5 340.962 475.5 344V369C475.5 372.038 473.038 374.5 470 374.5H429C425.962 374.5 423.5 372.038 423.5 369V344Z" stroke="#C7C7C7"/>
<path fill-rule="evenodd" clip-rule="evenodd" d="M455.76 361.375C456.123 361.375 456.417 361.081 456.417 360.719V353.5H453.573C453.212 353.5 452.917 353.205 452.917 352.844V350H448.323C447.96 350 447.667 350.294 447.667 350.656V360.719C447.667 361.081 447.96 361.375 448.323 361.375H455.76ZM456.417 352.625V352.459C456.417 352.309 456.33 352.101 456.224 351.995L454.421 350.192C454.315 350.086 454.107 350 453.957 350H453.792V352.625H456.417ZM452.26 364C452.623 364 452.917 363.706 452.917 363.344V362.25H448.323C447.479 362.25 446.792 361.563 446.792 360.719V352.625H444.823C444.46 352.625 444.167 352.919 444.167 353.281V363.344C444.167 363.706 444.46 364 444.823 364H452.26Z" fill="#1F1F1F"/>
<path d="M42.816 47.496H45.12C45.8987 47.496 46.6027 47.3147 47.232 46.952C47.8613 46.5893 48.3573 46.104 48.72 45.496C49.0827 44.8773 49.264 44.184 49.264 43.416C49.264 42.6373 49.0827 41.9387 48.72 41.32C48.3573 40.7013 47.8613 40.2107 47.232 39.848C46.6027 39.4853 45.8987 39.304 45.12 39.304H42.816V47.496ZM41.136 49V37.8H45.088C45.9307 37.8 46.7093 37.944 47.424 38.232C48.1387 38.5093 48.7627 38.8987 49.296 39.4C49.8293 39.9013 50.2453 40.4933 50.544 41.176C50.8427 41.8587 50.992 42.6 50.992 43.4C50.992 44.2107 50.8427 44.9573 50.544 45.64C50.256 46.312 49.8453 46.8987 49.312 47.4C48.7787 47.9013 48.1493 48.296 47.424 48.584C46.7093 48.8613 45.9307 49 45.088 49H41.136ZM56.473 49.144C55.673 49.144 54.9477 48.9573 54.297 48.584C53.657 48.2107 53.145 47.704 52.761 47.064C52.3877 46.424 52.201 45.7093 52.201 44.92C52.201 44.1413 52.3823 43.4373 52.745 42.808C53.1077 42.168 53.5983 41.6613 54.217 41.288C54.8357 40.904 55.5237 40.712 56.281 40.712C57.0383 40.712 57.7103 40.904 58.297 41.288C58.8837 41.6613 59.3477 42.1733 59.689 42.824C60.041 43.464 60.217 44.1893 60.217 45V45.448H53.801C53.8863 45.896 54.0517 46.296 54.297 46.648C54.553 47 54.873 47.2773 55.257 47.48C55.6517 47.6827 56.0783 47.784 56.537 47.784C56.9317 47.784 57.3103 47.7253 57.673 47.608C58.0463 47.48 58.3557 47.2987 58.601 47.064L59.625 48.072C59.145 48.4347 58.649 48.7067 58.137 48.888C57.6357 49.0587 57.081 49.144 56.473 49.144ZM53.817 44.248H58.633C58.569 43.8213 58.4197 43.448 58.185 43.128C57.961 42.7973 57.6783 42.5413 57.337 42.36C57.0063 42.168 56.6437 42.072 56.249 42.072C55.6303 42.072 55.097 42.2747 54.649 42.68C54.2117 43.0747 53.9343 43.5973 53.817 44.248ZM64.619 49.16C63.915 49.16 63.2537 49.0587 62.635 48.856C62.027 48.6427 61.499 48.344 61.051 47.96L61.931 46.904C62.347 47.2347 62.7737 47.4907 63.211 47.672C63.659 47.8427 64.1123 47.928 64.571 47.928C65.147 47.928 65.6163 47.816 65.979 47.592C66.3417 47.368 66.523 47.0747 66.523 46.712C66.523 46.136 66.0857 45.784 65.211 45.656L63.739 45.448C62.9283 45.3307 62.3203 45.08 61.915 44.696C61.5097 44.312 61.307 43.8 61.307 43.16C61.307 42.6693 61.4403 42.2427 61.707 41.88C61.9737 41.5067 62.347 41.2187 62.827 41.016C63.307 40.8027 63.867 40.696 64.507 40.696C65.0937 40.696 65.659 40.7813 66.203 40.952C66.747 41.1227 67.2697 41.3893 67.771 41.752L66.955 42.808C66.0697 42.232 65.211 41.944 64.379 41.944C63.8883 41.944 63.4937 42.0507 63.195 42.264C62.8963 42.4667 62.747 42.7333 62.747 43.064C62.747 43.3627 62.8483 43.5973 63.051 43.768C63.2643 43.928 63.611 44.04 64.091 44.104L65.563 44.312C66.3737 44.4293 66.987 44.68 67.403 45.064C67.819 45.4373 68.027 45.944 68.027 46.584C68.027 47.0747 67.8777 47.5173 67.579 47.912C67.2803 48.296 66.875 48.6 66.363 48.824C65.851 49.048 65.2697 49.16 64.619 49.16ZM73.1586 49.144C72.38 49.144 71.6706 48.9573 71.0306 48.584C70.4013 48.2107 69.9 47.704 69.5266 47.064C69.1533 46.424 68.9666 45.7093 68.9666 44.92C68.9666 44.1307 69.1533 43.4213 69.5266 42.792C69.9 42.152 70.4013 41.6453 71.0306 41.272C71.6706 40.888 72.38 40.696 73.1586 40.696C73.7773 40.696 74.3693 40.8133 74.9346 41.048C75.5106 41.2827 76.0066 41.6133 76.4226 42.04L75.4306 43.144C75.1213 42.8027 74.7746 42.5467 74.3906 42.376C74.0066 42.2053 73.6066 42.12 73.1906 42.12C72.7 42.12 72.252 42.2427 71.8466 42.488C71.452 42.7333 71.1373 43.0693 70.9026 43.496C70.668 43.9227 70.5506 44.3973 70.5506 44.92C70.5506 45.4427 70.668 45.9227 70.9026 46.36C71.1373 46.7867 71.4573 47.1227 71.8626 47.368C72.268 47.6133 72.7213 47.736 73.2226 47.736C74.044 47.736 74.7746 47.4107 75.4146 46.76L76.3906 47.784C75.964 48.2213 75.468 48.5573 74.9026 48.792C74.348 49.0267 73.7666 49.144 73.1586 49.144ZM77.6784 49V40.856H79.2784V41.896C79.5344 41.512 79.849 41.2133 80.2224 41C80.6064 40.776 81.0384 40.664 81.5184 40.664C81.849 40.6747 82.121 40.7227 82.3344 40.808V42.248C82.025 42.1307 81.7104 42.072 81.3904 42.072C80.921 42.072 80.505 42.2 80.1424 42.456C79.7797 42.7013 79.4917 43.064 79.2784 43.544V49H77.6784ZM83.6159 49V40.856H85.2159V49H83.6159ZM84.4159 39.544C84.1492 39.544 83.9199 39.448 83.7279 39.256C83.5359 39.0533 83.4399 38.8187 83.4399 38.552C83.4399 38.2747 83.5359 38.0453 83.7279 37.864C83.9199 37.672 84.1492 37.576 84.4159 37.576C84.6932 37.576 84.9279 37.672 85.1199 37.864C85.3119 38.0453 85.4079 38.2747 85.4079 38.552C85.4079 38.8187 85.3119 39.0533 85.1199 39.256C84.9279 39.448 84.6932 39.544 84.4159 39.544ZM87.1003 52.264V40.856H88.6843V41.64C89.3669 41.032 90.1989 40.728 91.1803 40.728C91.9483 40.728 92.6416 40.9147 93.2603 41.288C93.8896 41.6613 94.3856 42.1627 94.7483 42.792C95.1109 43.4213 95.2923 44.1307 95.2923 44.92C95.2923 45.7093 95.1056 46.424 94.7323 47.064C94.3696 47.6933 93.8736 48.1947 93.2443 48.568C92.6256 48.9413 91.9269 49.128 91.1483 49.128C90.7003 49.128 90.2683 49.0587 89.8523 48.92C89.4363 48.7707 89.0523 48.5627 88.7003 48.296V52.264H87.1003ZM90.9723 47.736C91.4949 47.736 91.9589 47.6133 92.3643 47.368C92.7803 47.1227 93.1109 46.792 93.3563 46.376C93.6016 45.9493 93.7243 45.4693 93.7243 44.936C93.7243 44.4027 93.6016 43.9227 93.3563 43.496C93.1109 43.0693 92.7803 42.7333 92.3643 42.488C91.9589 42.2427 91.4949 42.12 90.9723 42.12C90.5136 42.12 90.0869 42.2053 89.6923 42.376C89.2976 42.5467 88.9669 42.7867 88.7003 43.096V46.776C88.9669 47.0747 89.2976 47.3093 89.6923 47.48C90.0976 47.6507 90.5243 47.736 90.9723 47.736ZM99.8383 49.144C99.0489 49.144 98.4463 48.9627 98.0303 48.6C97.6143 48.2267 97.4062 47.688 97.4062 46.984V42.2H95.6783V40.856H97.4062V38.776L98.9903 38.392V40.856H101.39V42.2H98.9903V46.616C98.9903 47.032 99.0809 47.3307 99.2623 47.512C99.4543 47.6827 99.7636 47.768 100.19 47.768C100.414 47.768 100.612 47.752 100.782 47.72C100.964 47.688 101.156 47.64 101.358 47.576V48.92C101.145 48.9947 100.894 49.048 100.606 49.08C100.329 49.1227 100.073 49.144 99.8383 49.144ZM102.569 49V40.856H104.169V49H102.569ZM103.369 39.544C103.102 39.544 102.873 39.448 102.681 39.256C102.489 39.0533 102.393 38.8187 102.393 38.552C102.393 38.2747 102.489 38.0453 102.681 37.864C102.873 37.672 103.102 37.576 103.369 37.576C103.646 37.576 103.881 37.672 104.073 37.864C104.265 38.0453 104.361 38.2747 104.361 38.552C104.361 38.8187 104.265 39.0533 104.073 39.256C103.881 39.448 103.646 39.544 103.369 39.544ZM109.925 49.16C109.136 49.16 108.416 48.9733 107.765 48.6C107.125 48.2267 106.619 47.72 106.245 47.08C105.872 46.44 105.685 45.7253 105.685 44.936C105.685 44.1467 105.872 43.432 106.245 42.792C106.619 42.152 107.125 41.6453 107.765 41.272C108.416 40.888 109.136 40.696 109.925 40.696C110.725 40.696 111.445 40.888 112.085 41.272C112.725 41.6453 113.232 42.152 113.605 42.792C113.979 43.432 114.165 44.1467 114.165 44.936C114.165 45.7253 113.979 46.44 113.605 47.08C113.232 47.72 112.725 48.2267 112.085 48.6C111.445 48.9733 110.725 49.16 109.925 49.16ZM109.925 47.752C110.427 47.752 110.875 47.6293 111.269 47.384C111.675 47.128 111.995 46.7867 112.229 46.36C112.475 45.9333 112.597 45.4587 112.597 44.936C112.597 44.4027 112.48 43.928 112.245 43.512C112.011 43.0853 111.691 42.744 111.285 42.488C110.88 42.232 110.427 42.104 109.925 42.104C109.424 42.104 108.971 42.232 108.565 42.488C108.16 42.744 107.84 43.0853 107.605 43.512C107.371 43.928 107.253 44.4027 107.253 44.936C107.253 45.4587 107.371 45.9333 107.605 46.36C107.84 46.7867 108.16 47.128 108.565 47.384C108.971 47.6293 109.424 47.752 109.925 47.752ZM115.678 49V40.856H117.278V41.688C117.908 41.0267 118.724 40.696 119.726 40.696C120.356 40.696 120.905 40.8293 121.374 41.096C121.854 41.3627 122.228 41.736 122.494 42.216C122.772 42.696 122.91 43.2507 122.91 43.88V49H121.31V44.152C121.31 43.512 121.129 43.0107 120.766 42.648C120.404 42.2747 119.908 42.088 119.278 42.088C118.852 42.088 118.468 42.1787 118.126 42.36C117.785 42.5413 117.502 42.8027 117.278 43.144V49H115.678ZM128.1 49V37.8L129.7 37.496V49H128.1ZM131.585 49V40.856H133.185V49H131.585ZM132.385 39.544C132.118 39.544 131.889 39.448 131.697 39.256C131.505 39.0533 131.409 38.8187 131.409 38.552C131.409 38.2747 131.505 38.0453 131.697 37.864C131.889 37.672 132.118 37.576 132.385 37.576C132.662 37.576 132.897 37.672 133.089 37.864C133.281 38.0453 133.377 38.2747 133.377 38.552C133.377 38.8187 133.281 39.0533 133.089 39.256C132.897 39.448 132.662 39.544 132.385 39.544ZM137.869 49.16C137.165 49.16 136.504 49.0587 135.885 48.856C135.277 48.6427 134.749 48.344 134.301 47.96L135.181 46.904C135.597 47.2347 136.024 47.4907 136.461 47.672C136.909 47.8427 137.362 47.928 137.821 47.928C138.397 47.928 138.866 47.816 139.229 47.592C139.592 47.368 139.773 47.0747 139.773 46.712C139.773 46.136 139.336 45.784 138.461 45.656L136.989 45.448C136.178 45.3307 135.57 45.08 135.165 44.696C134.76 44.312 134.557 43.8 134.557 43.16C134.557 42.6693 134.69 42.2427 134.957 41.88C135.224 41.5067 135.597 41.2187 136.077 41.016C136.557 40.8027 137.117 40.696 137.757 40.696C138.344 40.696 138.909 40.7813 139.453 40.952C139.997 41.1227 140.52 41.3893 141.021 41.752L140.205 42.808C139.32 42.232 138.461 41.944 137.629 41.944C137.138 41.944 136.744 42.0507 136.445 42.264C136.146 42.4667 135.997 42.7333 135.997 43.064C135.997 43.3627 136.098 43.5973 136.301 43.768C136.514 43.928 136.861 44.04 137.341 44.104L138.813 44.312C139.624 44.4293 140.237 44.68 140.653 45.064C141.069 45.4373 141.277 45.944 141.277 46.584C141.277 47.0747 141.128 47.5173 140.829 47.912C140.53 48.296 140.125 48.6 139.613 48.824C139.101 49.048 138.52 49.16 137.869 49.16ZM145.838 49.144C145.049 49.144 144.446 48.9627 144.03 48.6C143.614 48.2267 143.406 47.688 143.406 46.984V42.2H141.678V40.856H143.406V38.776L144.99 38.392V40.856H147.39V42.2H144.99V46.616C144.99 47.032 145.081 47.3307 145.262 47.512C145.454 47.6827 145.764 47.768 146.19 47.768C146.414 47.768 146.612 47.752 146.782 47.72C146.964 47.688 147.156 47.64 147.358 47.576V48.92C147.145 48.9947 146.894 49.048 146.606 49.08C146.329 49.1227 146.073 49.144 145.838 49.144Z" fill="black"/>
<path fill-rule="evenodd" clip-rule="evenodd" d="M378 47.1481C379.442 47.1481 380.771 46.7968 381.986 46.0941C383.185 45.4075 384.133 44.4813 384.83 43.3155C384.943 43.1399 385 42.9483 385 42.7407C385 42.5331 384.943 42.3414 384.83 42.1658C384.133 41.0001 383.185 40.0739 381.986 39.3872C380.771 38.6846 379.442 38.3333 378 38.3333C376.558 38.3333 375.229 38.6846 374.014 39.3872C372.815 40.0739 371.867 41.0001 371.17 42.1658C371.057 42.3414 371 42.5331 371 42.7407C371 42.9483 371.057 43.1399 371.17 43.3155C371.867 44.4813 372.815 45.4075 374.014 46.0941C375.229 46.7968 376.558 47.1481 378 47.1481ZM378 46.111C377.389 46.111 376.827 45.9582 376.315 45.6526C375.803 45.3469 375.394 44.938 375.088 44.4258C374.782 43.9137 374.63 43.352 374.63 42.7407C374.63 42.1294 374.782 41.5676 375.088 41.0555C375.394 40.5433 375.803 40.1344 376.315 39.8288C376.827 39.5231 377.389 39.3703 378 39.3703C378.611 39.3703 379.173 39.5231 379.685 39.8288C380.197 40.1344 380.606 40.5433 380.912 41.0555C381.218 41.5676 381.37 42.1294 381.37 42.7407C381.37 43.352 381.218 43.9137 380.912 44.4258C380.606 44.938 380.197 45.3469 379.685 45.6526C379.173 45.9582 378.611 46.111 378 46.111ZM379.832 44.5729C379.325 45.0798 378.715 45.3333 378 45.3333C377.285 45.3333 376.675 45.0798 376.168 44.5729C375.661 44.066 375.407 43.4553 375.407 42.7407C375.407 42.3086 375.507 41.9014 375.707 41.5191C375.707 41.8183 375.81 42.0717 376.018 42.2795C376.226 42.4872 376.479 42.5911 376.778 42.5911C377.078 42.5911 377.331 42.4872 377.539 42.2795C377.747 42.0717 377.85 41.8183 377.85 41.5191C377.85 41.22 377.747 40.9666 377.539 40.7588C377.331 40.5511 377.078 40.4472 376.778 40.4472C377.161 40.2478 377.568 40.1481 378 40.1481C378.715 40.1481 379.325 40.4015 379.832 40.9084C380.339 41.4153 380.593 42.026 380.593 42.7407C380.593 43.4553 380.339 44.066 379.832 44.5729Z" fill="#0066CC"/>
<path d="M393.246 47V37.2H397.264C397.889 37.2 398.435 37.3213 398.902 37.564C399.369 37.7973 399.733 38.124 399.994 38.544C400.255 38.964 400.386 39.4587 400.386 40.028C400.386 40.6813 400.204 41.2413 399.84 41.708C399.476 42.1653 398.977 42.4873 398.342 42.674L400.428 47H399.238L397.25 42.814H394.324V47H393.246ZM394.324 41.918H397.18C397.824 41.918 398.337 41.75 398.72 41.414C399.112 41.0687 399.308 40.6113 399.308 40.042C399.308 39.4633 399.112 39.006 398.72 38.67C398.337 38.3247 397.824 38.152 397.18 38.152H394.324V41.918ZM404.839 47.14C404.204 47.14 403.63 46.986 403.117 46.678C402.604 46.3607 402.198 45.936 401.899 45.404C401.6 44.8627 401.451 44.256 401.451 43.584C401.451 42.912 401.591 42.31 401.871 41.778C402.16 41.246 402.548 40.826 403.033 40.518C403.518 40.21 404.06 40.056 404.657 40.056C405.264 40.056 405.8 40.21 406.267 40.518C406.743 40.8167 407.116 41.2273 407.387 41.75C407.667 42.2633 407.807 42.8467 407.807 43.5V43.808H402.445C402.482 44.2747 402.608 44.6947 402.823 45.068C403.047 45.432 403.336 45.7213 403.691 45.936C404.055 46.1413 404.452 46.244 404.881 46.244C405.236 46.244 405.576 46.1833 405.903 46.062C406.239 45.9313 406.524 45.7587 406.757 45.544L407.401 46.23C407.009 46.538 406.603 46.7667 406.183 46.916C405.763 47.0653 405.315 47.14 404.839 47.14ZM402.473 43.08H406.799C406.752 42.6693 406.626 42.3053 406.421 41.988C406.225 41.6613 405.973 41.4047 405.665 41.218C405.366 41.0313 405.03 40.938 404.657 40.938C404.284 40.938 403.943 41.0313 403.635 41.218C403.327 41.3953 403.07 41.6473 402.865 41.974C402.669 42.2913 402.538 42.66 402.473 43.08ZM411.307 47L408.507 40.168H409.613L411.825 45.726L414.009 40.168H415.101L412.287 47H411.307ZM419.235 47.14C418.601 47.14 418.027 46.986 417.513 46.678C417 46.3607 416.594 45.936 416.295 45.404C415.997 44.8627 415.847 44.256 415.847 43.584C415.847 42.912 415.987 42.31 416.267 41.778C416.557 41.246 416.944 40.826 417.429 40.518C417.915 40.21 418.456 40.056 419.053 40.056C419.66 40.056 420.197 40.21 420.663 40.518C421.139 40.8167 421.513 41.2273 421.783 41.75C422.063 42.2633 422.203 42.8467 422.203 43.5V43.808H416.841C416.879 44.2747 417.005 44.6947 417.219 45.068C417.443 45.432 417.733 45.7213 418.087 45.936C418.451 46.1413 418.848 46.244 419.277 46.244C419.632 46.244 419.973 46.1833 420.299 46.062C420.635 45.9313 420.92 45.7587 421.153 45.544L421.797 46.23C421.405 46.538 420.999 46.7667 420.579 46.916C420.159 47.0653 419.711 47.14 419.235 47.14ZM416.869 43.08H421.195C421.149 42.6693 421.023 42.3053 420.817 41.988C420.621 41.6613 420.369 41.4047 420.061 41.218C419.763 41.0313 419.427 40.938 419.053 40.938C418.68 40.938 418.339 41.0313 418.031 41.218C417.723 41.3953 417.467 41.6473 417.261 41.974C417.065 42.2913 416.935 42.66 416.869 43.08ZM425.926 47.126C425.44 47.126 425.011 47.0373 424.638 46.86C424.264 46.6827 423.97 46.44 423.756 46.132C423.55 45.8147 423.448 45.4507 423.448 45.04C423.448 44.6293 423.555 44.2747 423.77 43.976C423.984 43.668 424.283 43.43 424.666 43.262C425.048 43.094 425.496 43.01 426.01 43.01C426.402 43.01 426.77 43.052 427.116 43.136C427.47 43.22 427.797 43.3553 428.096 43.542V42.604C428.096 42.044 427.946 41.624 427.648 41.344C427.349 41.0547 426.91 40.91 426.332 40.91C426.014 40.91 425.688 40.9567 425.352 41.05C425.025 41.1433 424.661 41.2927 424.26 41.498L423.882 40.714C424.796 40.2753 425.655 40.056 426.458 40.056C427.307 40.056 427.96 40.266 428.418 40.686C428.875 41.0967 429.104 41.6893 429.104 42.464V47H428.096V46.202C427.797 46.51 427.466 46.7433 427.102 46.902C426.738 47.0513 426.346 47.126 425.926 47.126ZM424.428 45.012C424.428 45.4133 424.582 45.7353 424.89 45.978C425.207 46.2207 425.622 46.342 426.136 46.342C426.518 46.342 426.868 46.2767 427.186 46.146C427.512 46.0153 427.816 45.8193 428.096 45.558V44.242C427.806 44.074 427.508 43.9527 427.2 43.878C426.892 43.794 426.546 43.752 426.164 43.752C425.641 43.752 425.221 43.8687 424.904 44.102C424.586 44.326 424.428 44.6293 424.428 45.012ZM431.181 47V36.892L432.203 36.682V47H431.181ZM439.526 47L436.726 40.168H437.832L440.044 45.726L442.228 40.168H443.32L440.506 47H439.526ZM446.42 47.126C445.935 47.126 445.505 47.0373 445.132 46.86C444.759 46.6827 444.465 46.44 444.25 46.132C444.045 45.8147 443.942 45.4507 443.942 45.04C443.942 44.6293 444.049 44.2747 444.264 43.976C444.479 43.668 444.777 43.43 445.16 43.262C445.543 43.094 445.991 43.01 446.504 43.01C446.896 43.01 447.265 43.052 447.61 43.136C447.965 43.22 448.291 43.3553 448.59 43.542V42.604C448.59 42.044 448.441 41.624 448.142 41.344C447.843 41.0547 447.405 40.91 446.826 40.91C446.509 40.91 446.182 40.9567 445.846 41.05C445.519 41.1433 445.155 41.2927 444.754 41.498L444.376 40.714C445.291 40.2753 446.149 40.056 446.952 40.056C447.801 40.056 448.455 40.266 448.912 40.686C449.369 41.0967 449.598 41.6893 449.598 42.464V47H448.59V46.202C448.291 46.51 447.96 46.7433 447.596 46.902C447.232 47.0513 446.84 47.126 446.42 47.126ZM444.922 45.012C444.922 45.4133 445.076 45.7353 445.384 45.978C445.701 46.2207 446.117 46.342 446.63 46.342C447.013 46.342 447.363 46.2767 447.68 46.146C448.007 46.0153 448.31 45.8193 448.59 45.558V44.242C448.301 44.074 448.002 43.9527 447.694 43.878C447.386 43.794 447.041 43.752 446.658 43.752C446.135 43.752 445.715 43.8687 445.398 44.102C445.081 44.326 444.922 44.6293 444.922 45.012ZM451.675 47V36.892L452.697 36.682V47H451.675ZM457.228 47.112C456.743 47.112 456.314 47.0047 455.94 46.79C455.567 46.5753 455.273 46.2767 455.058 45.894C454.853 45.5113 454.75 45.0727 454.75 44.578V40.168H455.786V44.284C455.786 44.8907 455.95 45.3713 456.276 45.726C456.603 46.0807 457.046 46.258 457.606 46.258C457.989 46.258 458.33 46.1693 458.628 45.992C458.936 45.8147 459.193 45.558 459.398 45.222V40.168H460.42V47H459.398V45.894C459.137 46.2953 458.824 46.5987 458.46 46.804C458.106 47.0093 457.695 47.112 457.228 47.112ZM465.597 47.14C464.962 47.14 464.388 46.986 463.875 46.678C463.361 46.3607 462.955 45.936 462.657 45.404C462.358 44.8627 462.209 44.256 462.209 43.584C462.209 42.912 462.349 42.31 462.629 41.778C462.918 41.246 463.305 40.826 463.791 40.518C464.276 40.21 464.817 40.056 465.415 40.056C466.021 40.056 466.558 40.21 467.025 40.518C467.501 40.8167 467.874 41.2273 468.145 41.75C468.425 42.2633 468.565 42.8467 468.565 43.5V43.808H463.203C463.24 44.2747 463.366 44.6947 463.581 45.068C463.805 45.432 464.094 45.7213 464.449 45.936C464.813 46.1413 465.209 46.244 465.639 46.244C465.993 46.244 466.334 46.1833 466.661 46.062C466.997 45.9313 467.281 45.7587 467.515 45.544L468.159 46.23C467.767 46.538 467.361 46.7667 466.941 46.916C466.521 47.0653 466.073 47.14 465.597 47.14ZM463.231 43.08H467.557C467.51 42.6693 467.384 42.3053 467.179 41.988C466.983 41.6613 466.731 41.4047 466.423 41.218C466.124 41.0313 465.788 40.938 465.415 40.938C465.041 40.938 464.701 41.0313 464.393 41.218C464.085 41.3953 463.828 41.6473 463.623 41.974C463.427 42.2913 463.296 42.66 463.231 43.08ZM472.492 47.14C471.932 47.14 471.414 47.056 470.938 46.888C470.462 46.7107 470.056 46.4587 469.72 46.132L470.266 45.46C470.677 45.7587 471.055 45.978 471.4 46.118C471.745 46.2487 472.1 46.314 472.464 46.314C472.959 46.314 473.369 46.1973 473.696 45.964C474.023 45.7307 474.186 45.432 474.186 45.068C474.186 44.788 474.088 44.5687 473.892 44.41C473.705 44.2513 473.393 44.13 472.954 44.046L471.834 43.85C471.171 43.7287 470.681 43.5233 470.364 43.234C470.056 42.9447 469.902 42.5527 469.902 42.058C469.902 41.666 470.005 41.3207 470.21 41.022C470.425 40.7233 470.719 40.49 471.092 40.322C471.465 40.1447 471.89 40.056 472.366 40.056C472.833 40.056 473.276 40.126 473.696 40.266C474.116 40.3967 474.541 40.6113 474.97 40.91L474.466 41.624C474.111 41.372 473.757 41.19 473.402 41.078C473.047 40.9567 472.688 40.896 472.324 40.896C471.876 40.896 471.517 40.994 471.246 41.19C470.975 41.386 470.84 41.652 470.84 41.988C470.84 42.268 470.924 42.4827 471.092 42.632C471.269 42.7813 471.577 42.8933 472.016 42.968L473.164 43.178C473.855 43.2993 474.359 43.5093 474.676 43.808C474.993 44.1067 475.152 44.508 475.152 45.012C475.152 45.4133 475.035 45.7773 474.802 46.104C474.569 46.4213 474.251 46.6733 473.85 46.86C473.449 47.0467 472.996 47.14 472.492 47.14Z" fill="#0066CC"/>
</svg>
