<?xml version="1.0" encoding="UTF-8"?>
<svg width="346px" height="920px" viewBox="0 0 346 920" version="1.1" xmlns="http://www.w3.org/2000/svg" xmlns:xlink="http://www.w3.org/1999/xlink">
    <!-- Generator: Sketch 53.2 (72643) - https://sketchapp.com -->
    <title>WHY-PF4</title>
    <desc>Created with Sketch.</desc>
    <defs>
        <polygon id="path-1" points="0.06 0.617 143.352 0.617 143.352 159.338 0.06 159.338"></polygon>
    </defs>
    <g id="PATTERNFLY" stroke="none" stroke-width="1" fill="none" fill-rule="evenodd">
        <g id="4-Desktop-HOME-PAGE" transform="translate(-845.000000, -1054.000000)">
            <g id="WHY-PF4" transform="translate(845.000000, 1054.000000)">
                <polyline id="Fill-1" fill="#A6B1B4" points="343.804 302.206 226.765 369.779 59.566 273.246 176.605 205.674 343.804 302.206"></polyline>
                <polyline id="Fill-2" fill="#ECEDE8" points="100.305 836.937 220.004 767.829 190.079 750.553 69.073 818.905 100.305 836.937"></polyline>
                <polyline id="Fill-3" fill="#DADAD3" points="220.004 775.98 220.004 767.83 100.305 836.937 100.305 845.087 220.004 775.98"></polyline>
                <polyline id="Fill-4" fill="#B2B3AF" points="40.457 810.533 100.305 845.087 100.305 836.937 40.175 802.221 40.457 810.533"></polyline>
                <polyline id="Fill-5" fill="#DADAD3" points="100.305 802.383 100.305 819.334 190.079 767.504 190.079 750.553 100.305 802.383"></polyline>
                <polyline id="Fill-6" fill="#B2B3AF" points="70.382 802.058 100.305 819.334 100.305 802.383 70.382 785.107 70.382 802.058"></polyline>
                <polyline id="Fill-7" fill="#B2B3AF" points="98.992 801.729 98.992 804.187 190.079 751.661 190.079 749.204 98.992 801.729"></polyline>
                <polyline id="Fill-8" fill="#ECEDE8" points="1.679 623.894 15.263 631.737 259.763 490.574 246.179 482.732 1.679 623.894"></polyline>
                <polyline id="Fill-9" fill="#B2B3AF" points="15.263 851.322 15.263 631.737 1.679 623.894 1.679 843.48 15.263 851.322"></polyline>
                <polyline id="Fill-10" fill="#DADAD3" points="259.763 710.16 15.263 851.322 15.263 631.737 259.763 490.574 259.763 710.16"></polyline>
                <polyline id="Fill-11" fill="#0D1313" points="253.128 705.366 22.697 838.406 22.697 636.25 253.129 503.21 253.128 705.366"></polyline>
                <polyline id="Fill-12" fill="#ECEDE8" points="78.73 874.38 155.199 918.589 345.832 808.707 269.362 764.498 78.73 874.38"></polyline>
                <polyline id="Fill-13" fill="#97CBE6" points="317.318 795.391 133.107 901.743 143.92 907.987 328.13 801.633 317.318 795.391"></polyline>
                <polyline id="Fill-14" fill="#97CBE6" points="329.023 802.149 144.813 908.502 155.623 914.743 339.834 808.391 329.023 802.149"></polyline>
                <polyline id="Fill-15" fill="#97CBE6" points="282.207 775.119 97.995 881.472 108.805 887.713 293.016 781.36 282.207 775.119"></polyline>
                <polyline id="Fill-16" fill="#97CBE6" points="305.615 788.634 121.404 894.988 132.214 901.228 316.424 794.875 305.615 788.634"></polyline>
                <polyline id="Fill-17" fill="#97CBE6" points="270.506 768.363 86.29 874.713 97.102 880.956 281.313 774.604 270.506 768.363"></polyline>
                <polyline id="Fill-18" fill="#97CBE6" points="293.909 781.876 109.699 888.229 120.511 894.471 304.722 788.118 293.909 781.876"></polyline>
                <polyline id="Fill-19" fill="#B2B3AF" points="78.73 874.38 78.73 878.246 155.193 920 155.199 918.589 78.73 874.38"></polyline>
                <polyline id="Fill-20" fill="#DADAD3" points="345.832 808.707 345.698 810.012 155.193 920 155.199 918.589 345.832 808.707"></polyline>
                <polyline id="Fill-21" fill="#323431" points="22.697 805.797 22.697 838.406 253.128 705.366 253.129 539.911 22.697 805.797"></polyline>
                <g id="Group-25" transform="translate(163.000000, 0.000000)">
                    <polyline id="Fill-22" fill="#B2B3AF" points="177.786 96.018 171.739 99.35 171.739 252.26 177.786 248.928 177.786 96.018"></polyline>
                    <polyline id="Fill-24" fill="#ECEDE8" points="0.415 3.781 171.739 99.35 177.786 96.018 6.462 0.449 0.415 3.781"></polyline>
                </g>
                <polyline id="Fill-26" fill="#DADAD3" points="214.812 324.64 43.488 229.071 43.488 223.589 214.812 319.158 214.812 324.64"></polyline>
                <polyline id="Fill-27" fill="#B2B3AF" points="340.786 248.277 340.786 253.759 214.812 324.64 214.812 319.158 340.786 248.277"></polyline>
                <polyline id="Fill-28" fill="#DADAD3" points="163.415 156.691 163.415 3.781 334.739 99.35 334.739 252.26 163.415 156.691"></polyline>
                <polyline id="Fill-29" fill="#0D1313" points="168.736 154.91 168.736 11.498 329.418 101.131 329.418 244.543 168.736 154.91"></polyline>
                <polyline id="Fill-30" fill="#ECEDE8" points="334.739 252.26 214.812 319.158 43.488 223.589 163.415 156.691 334.739 252.26"></polyline>
                <polyline id="Fill-31" fill="#97CBE6" points="125.601 202.291 246.789 269.952 235.132 276.455 113.944 208.794 125.601 202.291"></polyline>
                <polyline id="Fill-32" fill="#97CBE6" points="112.981 209.331 234.169 276.992 222.514 283.493 101.326 215.832 112.981 209.331"></polyline>
                <polyline id="Fill-33" fill="#97CBE6" points="163.454 181.176 284.642 248.837 272.989 255.338 151.8 187.676 163.454 181.176"></polyline>
                <polyline id="Fill-34" fill="#97CBE6" points="138.217 195.254 259.406 262.915 247.753 269.415 126.564 201.754 138.217 195.254"></polyline>
                <polyline id="Fill-35" fill="#97CBE6" points="176.068 174.139 297.262 241.797 285.606 248.3 164.418 180.638 176.068 174.139"></polyline>
                <polyline id="Fill-36" fill="#97CBE6" points="150.837 188.214 272.025 255.875 260.369 262.377 139.18 194.716 150.837 188.214"></polyline>
                <polyline id="Fill-37" fill="#97CBE6" points="178.479 262.821 152.563 277.278 115.538 256.625 141.455 242.168 178.479 262.821"></polyline>
                <polyline id="Fill-38" fill="#323431" points="329.418 221.207 329.418 244.543 168.736 155.617 168.736 42.7 329.418 221.207"></polyline>
                <polyline id="Fill-39" fill="#B2B3AF" points="22.762 289.329 111.98 237.819 124.725 245.177 124.726 465.935 35.507 517.445 22.762 510.086 22.762 289.329"></polyline>
                <polyline id="Fill-40" fill="#DADAD3" points="35.507 296.688 124.725 245.177 124.726 465.935 35.507 517.445 35.507 296.688"></polyline>
                <polyline id="Fill-41" fill="#ECEDE8" points="111.98 237.819 22.762 289.329 35.507 296.688 124.725 245.177 111.98 237.819"></polyline>
                <polyline id="Fill-42" fill="#0D1313" points="41.665 312.115 118.569 267.714 118.569 445.886 41.665 490.287 41.665 312.115"></polyline>
                <polyline id="Fill-43" fill="#0D1313" points="89.969 471.187 89.969 478.008 81.247 482.99 81.247 476.276 89.969 471.187"></polyline>
                <path d="M75.489,282.417 C76.172,282.023 76.727,282.339 76.729,283.124 C76.731,283.907 76.18,284.863 75.497,285.257 C74.815,285.651 74.26,285.335 74.258,284.551 C74.256,283.766 74.807,282.811 75.489,282.417" id="Fill-44" fill="#0D1313"></path>
                <path d="M80.52,279.685 C81.202,279.291 81.758,279.607 81.76,280.391 C81.762,281.176 81.211,282.131 80.528,282.525 C79.845,282.919 79.29,282.602 79.288,281.819 C79.286,281.034 79.838,280.079 80.52,279.685" id="Fill-45" fill="#0D1313"></path>
                <path d="M85.293,277.032 C85.975,276.638 86.531,276.955 86.533,277.739 C86.535,278.523 85.984,279.478 85.301,279.873 C84.619,280.266 84.064,279.95 84.061,279.166 C84.059,278.382 84.611,277.426 85.293,277.032" id="Fill-46" fill="#0D1313"></path>
                <polyline id="Fill-47" fill="#323431" points="118.569 301.775 118.569 445.886 41.665 490.287 41.665 445.768 118.569 301.775"></polyline>
                <polyline id="Fill-48" fill="#0066CC" points="98.533 381.742 143.352 356.003 143.352 312.487 98.533 338.226 98.533 381.742"></polyline>
                <g id="Group-53" transform="translate(0.000000, 302.000000)">
                    <path d="M139.897,8.858 C139.232,9.241 138.691,8.933 138.688,8.169 C138.686,7.405 139.223,6.473 139.889,6.09 C140.554,5.705 141.095,6.014 141.097,6.778 C141.1,7.542 140.562,8.473 139.897,8.858 Z M136.415,10.861 C135.75,11.245 135.209,10.937 135.207,10.172 C135.204,9.408 135.742,8.477 136.407,8.093 C137.073,7.709 137.613,8.017 137.616,8.781 C137.618,9.546 137.081,10.477 136.415,10.861 Z M132.946,12.867 C132.281,13.251 131.74,12.943 131.738,12.178 C131.736,11.414 132.273,10.483 132.938,10.099 C133.603,9.715 134.145,10.024 134.147,10.788 C134.149,11.552 133.612,12.484 132.946,12.867 Z M98.533,26.357 L98.533,35.579 L143.352,9.839 L143.352,0.617 L98.533,26.357 L98.533,26.357 Z" id="Fill-49" fill="#0066CC"></path>
                    <mask id="mask-2" fill="white">
                        <use xlink:href="#path-1"></use>
                    </mask>
                    <g id="Clip-50"></g>
                    <polyline id="Fill-51" fill="#0066CC" mask="url(#mask-2)" points="0 159.338 57.745 126.176 57.745 70.11 0 103.273 0 159.338"></polyline>
                    <path d="M44.328,69.61 C45.186,69.115 45.882,69.512 45.885,70.497 C45.888,71.482 45.196,72.682 44.339,73.176 C43.481,73.671 42.785,73.274 42.781,72.29 C42.779,71.304 43.471,70.105 44.328,69.61 Z M48.798,67.025 C49.655,66.53 50.352,66.927 50.355,67.912 C50.358,68.897 49.665,70.096 48.808,70.592 C47.951,71.086 47.254,70.689 47.251,69.704 C47.248,68.719 47.941,67.52 48.798,67.025 Z M53.284,64.444 C54.141,63.948 54.838,64.346 54.841,65.331 C54.844,66.316 54.151,67.515 53.294,68.01 C52.437,68.505 51.739,68.108 51.737,67.123 C51.734,66.138 52.426,64.939 53.284,64.444 Z M0,102.438 L57.745,69.275 L57.745,57.394 L0,90.557 L0,102.438 L0,102.438 Z" id="Fill-52" fill="#0066CC" mask="url(#mask-2)"></path>
                </g>
                <polyline id="Fill-54" fill="#97CBE6" points="71.619 437.372 119.784 409.712 119.784 362.946 71.619 390.608 71.619 437.372"></polyline>
                <path d="M116.071,361.196 C115.357,361.608 114.775,361.277 114.773,360.455 C114.77,359.634 115.348,358.633 116.063,358.22 C116.778,357.808 117.36,358.139 117.362,358.961 C117.364,359.782 116.786,360.783 116.071,361.196 Z M112.33,363.348 C111.615,363.76 111.034,363.429 111.031,362.609 C111.029,361.786 111.607,360.785 112.321,360.373 C113.037,359.961 113.617,360.292 113.62,361.113 C113.622,361.935 113.045,362.935 112.33,363.348 Z M108.601,365.505 C107.887,365.917 107.305,365.586 107.303,364.764 C107.3,363.943 107.879,362.943 108.593,362.53 C109.308,362.116 109.89,362.448 109.892,363.269 C109.894,364.091 109.317,365.092 108.601,365.505 Z M71.619,380.002 L71.619,389.912 L119.784,362.25 L119.784,352.34 L71.619,380.002 L71.619,380.002 Z" id="Fill-55" fill="#97CBE6"></path>
                <polyline id="Fill-56" fill="#97CBE6" points="198.062 490.516 198.062 630.254 341.989 547.6 341.989 407.86 198.062 490.516"></polyline>
                <polyline id="Fill-57" fill="#97CBE6" points="341.989 376.167 198.062 458.822 198.062 488.436 341.989 405.78 341.989 376.167"></polyline>
                <path d="M319.687,400.17 C321.824,398.937 323.562,399.927 323.569,402.382 C323.576,404.836 321.849,407.826 319.713,409.06 C317.577,410.293 315.84,409.302 315.833,406.848 C315.826,404.393 317.552,401.403 319.687,400.17" id="Fill-58" fill="#0066CC"></path>
                <path d="M308.548,406.614 C310.684,405.38 312.422,406.37 312.428,408.825 C312.435,411.28 310.71,414.27 308.573,415.503 C306.437,416.736 304.699,415.746 304.692,413.292 C304.685,410.837 306.412,407.847 308.548,406.614" id="Fill-59" fill="#0066CC"></path>
                <path d="M330.868,393.738 C333.005,392.504 334.742,393.494 334.749,395.949 C334.756,398.403 333.03,401.393 330.893,402.627 C328.758,403.86 327.02,402.87 327.012,400.416 C327.006,397.961 328.732,394.97 330.868,393.738" id="Fill-60" fill="#0066CC"></path>
            </g>
        </g>
    </g>
</svg>