<svg width="219" height="127" viewBox="0 0 219 127" fill="none" xmlns="http://www.w3.org/2000/svg">
<rect width="219" height="127" fill="white"/>
<circle cx="48" cy="34.5" r="7.5" fill="white" stroke="#0066CC"/>
<circle cx="48" cy="34.5" r="5" fill="#0066CC"/>
<path d="M68.41 39.154C67.6447 39.154 66.9353 39.0187 66.282 38.748C65.6287 38.468 64.9987 38.048 64.392 37.488L65.05 36.704C65.638 37.2547 66.1887 37.6467 66.702 37.88C67.2247 38.1133 67.8033 38.23 68.438 38.23C68.942 38.23 69.39 38.146 69.782 37.978C70.1833 37.8007 70.496 37.5627 70.72 37.264C70.944 36.9653 71.056 36.6247 71.056 36.242C71.056 35.7473 70.8927 35.374 70.566 35.122C70.2393 34.8607 69.6747 34.66 68.872 34.52L67.29 34.254C66.394 34.0953 65.736 33.8247 65.316 33.442C64.9053 33.05 64.7 32.5273 64.7 31.874C64.7 31.3233 64.84 30.838 65.12 30.418C65.4093 29.9887 65.806 29.6527 66.31 29.41C66.814 29.1673 67.3973 29.046 68.06 29.046C68.788 29.046 69.4647 29.1487 70.09 29.354C70.7153 29.55 71.3313 29.8627 71.938 30.292L71.378 31.132C70.874 30.7493 70.342 30.46 69.782 30.264C69.222 30.0587 68.6527 29.956 68.074 29.956C67.6167 29.956 67.2107 30.0353 66.856 30.194C66.5107 30.3527 66.2353 30.5673 66.03 30.838C65.834 31.1087 65.736 31.4167 65.736 31.762C65.736 32.1913 65.8807 32.5273 66.17 32.77C66.4593 33.0127 66.9307 33.1853 67.584 33.288L69.152 33.554C70.1973 33.7407 70.9533 34.044 71.42 34.464C71.896 34.8747 72.134 35.4487 72.134 36.186C72.134 36.7553 71.9707 37.264 71.644 37.712C71.3267 38.16 70.888 38.5147 70.328 38.776C69.768 39.028 69.1287 39.154 68.41 39.154ZM76.9894 39.14C76.3547 39.14 75.7807 38.986 75.2674 38.678C74.754 38.3607 74.348 37.936 74.0494 37.404C73.7507 36.8627 73.6014 36.256 73.6014 35.584C73.6014 34.912 73.7414 34.31 74.0214 33.778C74.3107 33.246 74.698 32.826 75.1834 32.518C75.6687 32.21 76.21 32.056 76.8074 32.056C77.414 32.056 77.9507 32.21 78.4174 32.518C78.8934 32.8167 79.2667 33.2273 79.5374 33.75C79.8174 34.2633 79.9574 34.8467 79.9574 35.5V35.808H74.5954C74.6327 36.2747 74.7587 36.6947 74.9734 37.068C75.1974 37.432 75.4867 37.7213 75.8414 37.936C76.2054 38.1413 76.602 38.244 77.0314 38.244C77.386 38.244 77.7267 38.1833 78.0534 38.062C78.3894 37.9313 78.674 37.7587 78.9074 37.544L79.5514 38.23C79.1594 38.538 78.7534 38.7667 78.3334 38.916C77.9134 39.0653 77.4654 39.14 76.9894 39.14ZM74.6234 35.08H78.9494C78.9027 34.6693 78.7767 34.3053 78.5714 33.988C78.3754 33.6613 78.1234 33.4047 77.8154 33.218C77.5167 33.0313 77.1807 32.938 76.8074 32.938C76.434 32.938 76.0934 33.0313 75.7854 33.218C75.4774 33.3953 75.2207 33.6473 75.0154 33.974C74.8194 34.2913 74.6887 34.66 74.6234 35.08ZM81.7023 39V28.892L82.7243 28.682V39H81.7023ZM87.8995 39.14C87.2649 39.14 86.6909 38.986 86.1775 38.678C85.6642 38.3607 85.2582 37.936 84.9595 37.404C84.6609 36.8627 84.5115 36.256 84.5115 35.584C84.5115 34.912 84.6515 34.31 84.9315 33.778C85.2209 33.246 85.6082 32.826 86.0935 32.518C86.5789 32.21 87.1202 32.056 87.7175 32.056C88.3242 32.056 88.8609 32.21 89.3275 32.518C89.8035 32.8167 90.1769 33.2273 90.4475 33.75C90.7275 34.2633 90.8675 34.8467 90.8675 35.5V35.808H85.5055C85.5429 36.2747 85.6689 36.6947 85.8835 37.068C86.1075 37.432 86.3969 37.7213 86.7515 37.936C87.1155 38.1413 87.5122 38.244 87.9415 38.244C88.2962 38.244 88.6369 38.1833 88.9635 38.062C89.2995 37.9313 89.5842 37.7587 89.8175 37.544L90.4615 38.23C90.0695 38.538 89.6635 38.7667 89.2435 38.916C88.8235 39.0653 88.3755 39.14 87.8995 39.14ZM85.5335 35.08H89.8595C89.8129 34.6693 89.6869 34.3053 89.4815 33.988C89.2855 33.6613 89.0335 33.4047 88.7255 33.218C88.4269 33.0313 88.0909 32.938 87.7175 32.938C87.3442 32.938 87.0035 33.0313 86.6955 33.218C86.3875 33.3953 86.1309 33.6473 85.9255 33.974C85.7295 34.2913 85.5989 34.66 85.5335 35.08ZM95.6785 39.112C95.0438 39.112 94.4698 38.958 93.9565 38.65C93.4525 38.3327 93.0512 37.908 92.7525 37.376C92.4538 36.8347 92.3045 36.2373 92.3045 35.584C92.3045 34.9213 92.4538 34.324 92.7525 33.792C93.0512 33.26 93.4525 32.84 93.9565 32.532C94.4698 32.2147 95.0438 32.056 95.6785 32.056C96.1825 32.056 96.6632 32.1493 97.1205 32.336C97.5778 32.5227 97.9745 32.784 98.3105 33.12L97.6525 33.834C97.4098 33.5633 97.1158 33.3533 96.7705 33.204C96.4252 33.0547 96.0752 32.98 95.7205 32.98C95.2725 32.98 94.8665 33.0967 94.5025 33.33C94.1478 33.5633 93.8632 33.876 93.6485 34.268C93.4338 34.66 93.3265 35.0987 93.3265 35.584C93.3265 36.0693 93.4338 36.508 93.6485 36.9C93.8632 37.292 94.1478 37.6047 94.5025 37.838C94.8665 38.0713 95.2725 38.188 95.7205 38.188C96.0752 38.188 96.4252 38.1133 96.7705 37.964C97.1158 37.8053 97.4098 37.5953 97.6525 37.334L98.3105 38.048C97.9745 38.384 97.5778 38.6453 97.1205 38.832C96.6632 39.0187 96.1825 39.112 95.6785 39.112ZM102.476 39.14C101.888 39.14 101.44 39 101.132 38.72C100.834 38.4307 100.684 38.0153 100.684 37.474V33.008H99.2703V32.168H100.684V30.292L101.706 30.054V32.168H103.666V33.008H101.706V37.208C101.706 37.572 101.781 37.8333 101.93 37.992C102.089 38.1507 102.346 38.23 102.7 38.23C102.878 38.23 103.036 38.216 103.176 38.188C103.316 38.16 103.48 38.1133 103.666 38.048V38.958C103.48 39.0233 103.284 39.07 103.078 39.098C102.873 39.126 102.672 39.14 102.476 39.14ZM108.107 39.14C107.472 39.14 106.898 38.986 106.385 38.678C105.871 38.3607 105.465 37.936 105.167 37.404C104.868 36.8627 104.719 36.256 104.719 35.584C104.719 34.912 104.859 34.31 105.139 33.778C105.428 33.246 105.815 32.826 106.301 32.518C106.786 32.21 107.327 32.056 107.925 32.056C108.531 32.056 109.068 32.21 109.535 32.518C110.011 32.8167 110.384 33.2273 110.655 33.75C110.935 34.2633 111.075 34.8467 111.075 35.5V35.808H105.713C105.75 36.2747 105.876 36.6947 106.091 37.068C106.315 37.432 106.604 37.7213 106.959 37.936C107.323 38.1413 107.719 38.244 108.149 38.244C108.503 38.244 108.844 38.1833 109.171 38.062C109.507 37.9313 109.791 37.7587 110.025 37.544L110.669 38.23C110.277 38.538 109.871 38.7667 109.451 38.916C109.031 39.0653 108.583 39.14 108.107 39.14ZM105.741 35.08H110.067C110.02 34.6693 109.894 34.3053 109.689 33.988C109.493 33.6613 109.241 33.4047 108.933 33.218C108.634 33.0313 108.298 32.938 107.925 32.938C107.551 32.938 107.211 33.0313 106.903 33.218C106.595 33.3953 106.338 33.6473 106.133 33.974C105.937 34.2913 105.806 34.66 105.741 35.08ZM115.662 39.098C115.074 39.098 114.542 38.944 114.066 38.636C113.59 38.3187 113.212 37.8987 112.932 37.376C112.652 36.844 112.512 36.2513 112.512 35.598C112.512 34.9353 112.652 34.3427 112.932 33.82C113.221 33.288 113.608 32.868 114.094 32.56C114.579 32.2427 115.12 32.084 115.718 32.084C116.138 32.084 116.53 32.168 116.894 32.336C117.258 32.4947 117.575 32.728 117.846 33.036V28.892L118.868 28.682V39H117.846V38.09C117.584 38.4167 117.267 38.6687 116.894 38.846C116.52 39.014 116.11 39.098 115.662 39.098ZM115.914 38.202C116.315 38.202 116.684 38.1227 117.02 37.964C117.356 37.8053 117.631 37.5813 117.846 37.292V33.904C117.622 33.6147 117.337 33.3907 116.992 33.232C116.656 33.064 116.296 32.98 115.914 32.98C115.456 32.98 115.046 33.092 114.682 33.316C114.327 33.54 114.042 33.848 113.828 34.24C113.622 34.632 113.52 35.08 113.52 35.584C113.52 36.0787 113.622 36.5267 113.828 36.928C114.042 37.32 114.327 37.6327 114.682 37.866C115.046 38.09 115.456 38.202 115.914 38.202ZM127.078 39.098C126.49 39.098 125.958 38.944 125.482 38.636C125.006 38.3187 124.628 37.8987 124.348 37.376C124.068 36.844 123.928 36.2513 123.928 35.598C123.928 34.9353 124.068 34.3427 124.348 33.82C124.637 33.288 125.024 32.868 125.51 32.56C125.995 32.2427 126.536 32.084 127.134 32.084C127.554 32.084 127.946 32.168 128.31 32.336C128.674 32.4947 128.991 32.728 129.262 33.036V28.892L130.284 28.682V39H129.262V38.09C129 38.4167 128.683 38.6687 128.31 38.846C127.936 39.014 127.526 39.098 127.078 39.098ZM127.33 38.202C127.731 38.202 128.1 38.1227 128.436 37.964C128.772 37.8053 129.047 37.5813 129.262 37.292V33.904C129.038 33.6147 128.753 33.3907 128.408 33.232C128.072 33.064 127.712 32.98 127.33 32.98C126.872 32.98 126.462 33.092 126.098 33.316C125.743 33.54 125.458 33.848 125.244 34.24C125.038 34.632 124.936 35.08 124.936 35.584C124.936 36.0787 125.038 36.5267 125.244 36.928C125.458 37.32 125.743 37.6327 126.098 37.866C126.462 38.09 126.872 38.202 127.33 38.202ZM135.464 39.14C134.829 39.14 134.255 38.986 133.742 38.678C133.229 38.3607 132.823 37.936 132.524 37.404C132.225 36.8627 132.076 36.256 132.076 35.584C132.076 34.912 132.216 34.31 132.496 33.778C132.785 33.246 133.173 32.826 133.658 32.518C134.143 32.21 134.685 32.056 135.282 32.056C135.889 32.056 136.425 32.21 136.892 32.518C137.368 32.8167 137.741 33.2273 138.012 33.75C138.292 34.2633 138.432 34.8467 138.432 35.5V35.808H133.07C133.107 36.2747 133.233 36.6947 133.448 37.068C133.672 37.432 133.961 37.7213 134.316 37.936C134.68 38.1413 135.077 38.244 135.506 38.244C135.861 38.244 136.201 38.1833 136.528 38.062C136.864 37.9313 137.149 37.7587 137.382 37.544L138.026 38.23C137.634 38.538 137.228 38.7667 136.808 38.916C136.388 39.0653 135.94 39.14 135.464 39.14ZM133.098 35.08H137.424C137.377 34.6693 137.251 34.3053 137.046 33.988C136.85 33.6613 136.598 33.4047 136.29 33.218C135.991 33.0313 135.655 32.938 135.282 32.938C134.909 32.938 134.568 33.0313 134.26 33.218C133.952 33.3953 133.695 33.6473 133.49 33.974C133.294 34.2913 133.163 34.66 133.098 35.08ZM140.84 39V33.008H139.314V32.168H140.84V30.74C140.84 30.068 141.017 29.55 141.372 29.186C141.727 28.822 142.231 28.64 142.884 28.64C143.071 28.64 143.239 28.6493 143.388 28.668C143.547 28.6867 143.687 28.7193 143.808 28.766V29.69C143.659 29.6433 143.523 29.6107 143.402 29.592C143.281 29.5733 143.141 29.564 142.982 29.564C142.59 29.564 142.305 29.662 142.128 29.858C141.951 30.0447 141.862 30.3433 141.862 30.754V32.168H143.808V33.008H141.862V39H140.84ZM147.062 39.126C146.577 39.126 146.148 39.0373 145.774 38.86C145.401 38.6827 145.107 38.44 144.892 38.132C144.687 37.8147 144.584 37.4507 144.584 37.04C144.584 36.6293 144.692 36.2747 144.906 35.976C145.121 35.668 145.42 35.43 145.802 35.262C146.185 35.094 146.633 35.01 147.146 35.01C147.538 35.01 147.907 35.052 148.252 35.136C148.607 35.22 148.934 35.3553 149.232 35.542V34.604C149.232 34.044 149.083 33.624 148.784 33.344C148.486 33.0547 148.047 32.91 147.468 32.91C147.151 32.91 146.824 32.9567 146.488 33.05C146.162 33.1433 145.798 33.2927 145.396 33.498L145.018 32.714C145.933 32.2753 146.792 32.056 147.594 32.056C148.444 32.056 149.097 32.266 149.554 32.686C150.012 33.0967 150.24 33.6893 150.24 34.464V39H149.232V38.202C148.934 38.51 148.602 38.7433 148.238 38.902C147.874 39.0513 147.482 39.126 147.062 39.126ZM145.564 37.012C145.564 37.4133 145.718 37.7353 146.026 37.978C146.344 38.2207 146.759 38.342 147.272 38.342C147.655 38.342 148.005 38.2767 148.322 38.146C148.649 38.0153 148.952 37.8193 149.232 37.558V36.242C148.943 36.074 148.644 35.9527 148.336 35.878C148.028 35.794 147.683 35.752 147.3 35.752C146.778 35.752 146.358 35.8687 146.04 36.102C145.723 36.326 145.564 36.6293 145.564 37.012ZM154.685 39.112C154.2 39.112 153.771 39.0047 153.397 38.79C153.024 38.5753 152.73 38.2767 152.515 37.894C152.31 37.5113 152.207 37.0727 152.207 36.578V32.168H153.243V36.284C153.243 36.8907 153.407 37.3713 153.733 37.726C154.06 38.0807 154.503 38.258 155.063 38.258C155.446 38.258 155.787 38.1693 156.085 37.992C156.393 37.8147 156.65 37.558 156.855 37.222V32.168H157.877V39H156.855V37.894C156.594 38.2953 156.281 38.5987 155.917 38.804C155.563 39.0093 155.152 39.112 154.685 39.112ZM159.974 39V28.892L160.996 28.682V39H159.974ZM165.695 39.14C165.107 39.14 164.659 39 164.351 38.72C164.052 38.4307 163.903 38.0153 163.903 37.474V33.008H162.489V32.168H163.903V30.292L164.925 30.054V32.168H166.885V33.008H164.925V37.208C164.925 37.572 165 37.8333 165.149 37.992C165.308 38.1507 165.564 38.23 165.919 38.23C166.096 38.23 166.255 38.216 166.395 38.188C166.535 38.16 166.698 38.1133 166.885 38.048V38.958C166.698 39.0233 166.502 39.07 166.297 39.098C166.092 39.126 165.891 39.14 165.695 39.14Z" fill="#151515"/>
<circle cx="48" cy="63.5" r="7.5" fill="white" stroke="#C7C7C7"/>
<path d="M64.126 68L68.004 58.2H69.292L73.114 68H71.952L70.79 64.92H66.422L65.26 68H64.126ZM66.758 64.066H70.468L68.606 59.18L66.758 64.066ZM74.2922 68V61.168H75.3142V62.274C75.5755 61.8633 75.8882 61.56 76.2522 61.364C76.6162 61.1587 77.0269 61.056 77.4842 61.056C77.9789 61.056 78.4082 61.1633 78.7722 61.378C79.1455 61.5833 79.4349 61.8773 79.6402 62.26C79.8549 62.6333 79.9622 63.072 79.9622 63.576V68H78.9402V63.87C78.9402 63.2633 78.7722 62.7873 78.4362 62.442C78.1095 62.0873 77.6662 61.91 77.1062 61.91C76.7329 61.91 76.3922 61.9987 76.0842 62.176C75.7762 62.3533 75.5195 62.6147 75.3142 62.96V68H74.2922ZM85.0408 68.112C84.4061 68.112 83.8368 67.958 83.3328 67.65C82.8288 67.342 82.4321 66.922 82.1428 66.39C81.8535 65.858 81.7088 65.256 81.7088 64.584C81.7088 63.912 81.8535 63.31 82.1428 62.778C82.4321 62.246 82.8288 61.826 83.3328 61.518C83.8368 61.21 84.4061 61.056 85.0408 61.056C85.6661 61.056 86.2261 61.21 86.7208 61.518C87.2248 61.826 87.6215 62.246 87.9108 62.778C88.2001 63.31 88.3448 63.912 88.3448 64.584C88.3448 65.256 88.2001 65.858 87.9108 66.39C87.6215 66.922 87.2248 67.342 86.7208 67.65C86.2261 67.958 85.6661 68.112 85.0408 68.112ZM85.0268 67.216C85.4748 67.216 85.8715 67.104 86.2168 66.88C86.5621 66.6467 86.8328 66.3293 87.0288 65.928C87.2341 65.5267 87.3368 65.0787 87.3368 64.584C87.3368 64.08 87.2341 63.632 87.0288 63.24C86.8328 62.8387 86.5621 62.526 86.2168 62.302C85.8715 62.0687 85.4748 61.952 85.0268 61.952C84.5788 61.952 84.1821 62.0687 83.8368 62.302C83.4915 62.526 83.2161 62.8387 83.0108 63.24C82.8148 63.632 82.7168 64.08 82.7168 64.584C82.7168 65.0787 82.8148 65.5267 83.0108 65.928C83.2161 66.3293 83.4915 66.6467 83.8368 66.88C84.1821 67.104 84.5788 67.216 85.0268 67.216ZM92.3181 68.14C91.7301 68.14 91.2821 68 90.9741 67.72C90.6754 67.4307 90.5261 67.0153 90.5261 66.474V62.008H89.1121V61.168H90.5261V59.292L91.5481 59.054V61.168H93.5081V62.008H91.5481V66.208C91.5481 66.572 91.6227 66.8333 91.7721 66.992C91.9307 67.1507 92.1874 67.23 92.5421 67.23C92.7194 67.23 92.8781 67.216 93.0181 67.188C93.1581 67.16 93.3214 67.1133 93.5081 67.048V67.958C93.3214 68.0233 93.1254 68.07 92.9201 68.098C92.7147 68.126 92.5141 68.14 92.3181 68.14ZM95.0051 68V57.892L96.0271 57.682V62.274C96.2884 61.8633 96.6011 61.56 96.9651 61.364C97.3291 61.1587 97.7397 61.056 98.1971 61.056C98.6917 61.056 99.1211 61.1633 99.4851 61.378C99.8584 61.5833 100.148 61.8773 100.353 62.26C100.568 62.6333 100.675 63.072 100.675 63.576V68H99.6531V63.87C99.6531 63.2633 99.4851 62.7873 99.1491 62.442C98.8224 62.0873 98.3791 61.91 97.8191 61.91C97.4457 61.91 97.1051 61.9987 96.7971 62.176C96.4891 62.3533 96.2324 62.6147 96.0271 62.96V68H95.0051ZM105.81 68.14C105.175 68.14 104.601 67.986 104.088 67.678C103.574 67.3607 103.168 66.936 102.87 66.404C102.571 65.8627 102.422 65.256 102.422 64.584C102.422 63.912 102.562 63.31 102.842 62.778C103.131 62.246 103.518 61.826 104.004 61.518C104.489 61.21 105.03 61.056 105.628 61.056C106.234 61.056 106.771 61.21 107.238 61.518C107.714 61.8167 108.087 62.2273 108.358 62.75C108.638 63.2633 108.778 63.8467 108.778 64.5V64.808H103.416C103.453 65.2747 103.579 65.6947 103.794 66.068C104.018 66.432 104.307 66.7213 104.662 66.936C105.026 67.1413 105.422 67.244 105.852 67.244C106.206 67.244 106.547 67.1833 106.874 67.062C107.21 66.9313 107.494 66.7587 107.728 66.544L108.372 67.23C107.98 67.538 107.574 67.7667 107.154 67.916C106.734 68.0653 106.286 68.14 105.81 68.14ZM103.444 64.08H107.77C107.723 63.6693 107.597 63.3053 107.392 62.988C107.196 62.6613 106.944 62.4047 106.636 62.218C106.337 62.0313 106.001 61.938 105.628 61.938C105.254 61.938 104.914 62.0313 104.606 62.218C104.298 62.3953 104.041 62.6473 103.836 62.974C103.64 63.2913 103.509 63.66 103.444 64.08ZM110.523 68V61.168H111.545V62.568C111.722 62.092 111.974 61.7233 112.301 61.462C112.637 61.1913 113.019 61.056 113.449 61.056C113.57 61.056 113.682 61.0653 113.785 61.084C113.887 61.0933 113.99 61.1167 114.093 61.154V62.078C113.981 62.0407 113.859 62.0127 113.729 61.994C113.607 61.966 113.491 61.952 113.379 61.952C112.959 61.952 112.59 62.0733 112.273 62.316C111.965 62.5587 111.722 62.8993 111.545 63.338V68H110.523ZM121.736 68.112C121.101 68.112 120.532 67.958 120.028 67.65C119.524 67.342 119.127 66.922 118.838 66.39C118.549 65.858 118.404 65.256 118.404 64.584C118.404 63.912 118.549 63.31 118.838 62.778C119.127 62.246 119.524 61.826 120.028 61.518C120.532 61.21 121.101 61.056 121.736 61.056C122.361 61.056 122.921 61.21 123.416 61.518C123.92 61.826 124.317 62.246 124.606 62.778C124.895 63.31 125.04 63.912 125.04 64.584C125.04 65.256 124.895 65.858 124.606 66.39C124.317 66.922 123.92 67.342 123.416 67.65C122.921 67.958 122.361 68.112 121.736 68.112ZM121.722 67.216C122.17 67.216 122.567 67.104 122.912 66.88C123.257 66.6467 123.528 66.3293 123.724 65.928C123.929 65.5267 124.032 65.0787 124.032 64.584C124.032 64.08 123.929 63.632 123.724 63.24C123.528 62.8387 123.257 62.526 122.912 62.302C122.567 62.0687 122.17 61.952 121.722 61.952C121.274 61.952 120.877 62.0687 120.532 62.302C120.187 62.526 119.911 62.8387 119.706 63.24C119.51 63.632 119.412 64.08 119.412 64.584C119.412 65.0787 119.51 65.5267 119.706 65.928C119.911 66.3293 120.187 66.6467 120.532 66.88C120.877 67.104 121.274 67.216 121.722 67.216ZM126.833 70.926V61.168H127.841V62.148C128.103 61.8027 128.42 61.5413 128.793 61.364C129.176 61.1773 129.596 61.084 130.053 61.084C130.651 61.084 131.183 61.2427 131.649 61.56C132.125 61.868 132.503 62.288 132.783 62.82C133.063 63.3427 133.203 63.9307 133.203 64.584C133.203 65.2373 133.059 65.83 132.769 66.362C132.489 66.894 132.107 67.3187 131.621 67.636C131.145 67.944 130.604 68.098 129.997 68.098C129.568 68.098 129.171 68.0187 128.807 67.86C128.443 67.692 128.126 67.454 127.855 67.146V70.926H126.833ZM129.801 67.216C130.259 67.216 130.665 67.104 131.019 66.88C131.383 66.6467 131.668 66.334 131.873 65.942C132.088 65.5407 132.195 65.0927 132.195 64.598C132.195 64.094 132.088 63.646 131.873 63.254C131.668 62.862 131.383 62.554 131.019 62.33C130.665 62.0967 130.259 61.98 129.801 61.98C129.4 61.98 129.027 62.064 128.681 62.232C128.345 62.3907 128.07 62.6193 127.855 62.918V66.264C128.079 66.5627 128.359 66.796 128.695 66.964C129.041 67.132 129.409 67.216 129.801 67.216ZM137.175 68.14C136.587 68.14 136.139 68 135.831 67.72C135.533 67.4307 135.383 67.0153 135.383 66.474V62.008H133.969V61.168H135.383V59.292L136.405 59.054V61.168H138.365V62.008H136.405V66.208C136.405 66.572 136.48 66.8333 136.629 66.992C136.788 67.1507 137.045 67.23 137.399 67.23C137.577 67.23 137.735 67.216 137.875 67.188C138.015 67.16 138.179 67.1133 138.365 67.048V67.958C138.179 68.0233 137.983 68.07 137.777 68.098C137.572 68.126 137.371 68.14 137.175 68.14ZM139.849 68V61.168H140.87V68H139.849ZM140.367 59.474C140.161 59.474 139.984 59.404 139.835 59.264C139.695 59.1147 139.625 58.942 139.625 58.746C139.625 58.55 139.695 58.382 139.835 58.242C139.984 58.0927 140.161 58.018 140.367 58.018C140.572 58.018 140.745 58.0927 140.885 58.242C141.034 58.382 141.109 58.55 141.109 58.746C141.109 58.942 141.034 59.1147 140.885 59.264C140.745 59.404 140.572 59.474 140.367 59.474ZM145.99 68.112C145.355 68.112 144.786 67.958 144.282 67.65C143.778 67.342 143.381 66.922 143.092 66.39C142.803 65.858 142.658 65.256 142.658 64.584C142.658 63.912 142.803 63.31 143.092 62.778C143.381 62.246 143.778 61.826 144.282 61.518C144.786 61.21 145.355 61.056 145.99 61.056C146.615 61.056 147.175 61.21 147.67 61.518C148.174 61.826 148.571 62.246 148.86 62.778C149.149 63.31 149.294 63.912 149.294 64.584C149.294 65.256 149.149 65.858 148.86 66.39C148.571 66.922 148.174 67.342 147.67 67.65C147.175 67.958 146.615 68.112 145.99 68.112ZM145.976 67.216C146.424 67.216 146.821 67.104 147.166 66.88C147.511 66.6467 147.782 66.3293 147.978 65.928C148.183 65.5267 148.286 65.0787 148.286 64.584C148.286 64.08 148.183 63.632 147.978 63.24C147.782 62.8387 147.511 62.526 147.166 62.302C146.821 62.0687 146.424 61.952 145.976 61.952C145.528 61.952 145.131 62.0687 144.786 62.302C144.441 62.526 144.165 62.8387 143.96 63.24C143.764 63.632 143.666 64.08 143.666 64.584C143.666 65.0787 143.764 65.5267 143.96 65.928C144.165 66.3293 144.441 66.6467 144.786 66.88C145.131 67.104 145.528 67.216 145.976 67.216ZM151.087 68V61.168H152.109V62.274C152.37 61.8633 152.683 61.56 153.047 61.364C153.411 61.1587 153.822 61.056 154.279 61.056C154.774 61.056 155.203 61.1633 155.567 61.378C155.94 61.5833 156.23 61.8773 156.435 62.26C156.65 62.6333 156.757 63.072 156.757 63.576V68H155.735V63.87C155.735 63.2633 155.567 62.7873 155.231 62.442C154.904 62.0873 154.461 61.91 153.901 61.91C153.528 61.91 153.187 61.9987 152.879 62.176C152.571 62.3533 152.314 62.6147 152.109 62.96V68H151.087Z" fill="#151515"/>
<circle cx="48" cy="92.5" r="7.5" fill="white" stroke="#C7C7C7"/>
<path d="M64.126 97L68.004 87.2H69.292L73.114 97H71.952L70.79 93.92H66.422L65.26 97H64.126ZM66.758 93.066H70.468L68.606 88.18L66.758 93.066ZM74.2922 97V90.168H75.3142V91.274C75.5755 90.8633 75.8882 90.56 76.2522 90.364C76.6162 90.1587 77.0269 90.056 77.4842 90.056C77.9789 90.056 78.4082 90.1633 78.7722 90.378C79.1455 90.5833 79.4349 90.8773 79.6402 91.26C79.8549 91.6333 79.9622 92.072 79.9622 92.576V97H78.9402V92.87C78.9402 92.2633 78.7722 91.7873 78.4362 91.442C78.1095 91.0873 77.6662 90.91 77.1062 90.91C76.7329 90.91 76.3922 90.9987 76.0842 91.176C75.7762 91.3533 75.5195 91.6147 75.3142 91.96V97H74.2922ZM85.0408 97.112C84.4061 97.112 83.8368 96.958 83.3328 96.65C82.8288 96.342 82.4321 95.922 82.1428 95.39C81.8535 94.858 81.7088 94.256 81.7088 93.584C81.7088 92.912 81.8535 92.31 82.1428 91.778C82.4321 91.246 82.8288 90.826 83.3328 90.518C83.8368 90.21 84.4061 90.056 85.0408 90.056C85.6661 90.056 86.2261 90.21 86.7208 90.518C87.2248 90.826 87.6215 91.246 87.9108 91.778C88.2001 92.31 88.3448 92.912 88.3448 93.584C88.3448 94.256 88.2001 94.858 87.9108 95.39C87.6215 95.922 87.2248 96.342 86.7208 96.65C86.2261 96.958 85.6661 97.112 85.0408 97.112ZM85.0268 96.216C85.4748 96.216 85.8715 96.104 86.2168 95.88C86.5621 95.6467 86.8328 95.3293 87.0288 94.928C87.2341 94.5267 87.3368 94.0787 87.3368 93.584C87.3368 93.08 87.2341 92.632 87.0288 92.24C86.8328 91.8387 86.5621 91.526 86.2168 91.302C85.8715 91.0687 85.4748 90.952 85.0268 90.952C84.5788 90.952 84.1821 91.0687 83.8368 91.302C83.4915 91.526 83.2161 91.8387 83.0108 92.24C82.8148 92.632 82.7168 93.08 82.7168 93.584C82.7168 94.0787 82.8148 94.5267 83.0108 94.928C83.2161 95.3293 83.4915 95.6467 83.8368 95.88C84.1821 96.104 84.5788 96.216 85.0268 96.216ZM92.3181 97.14C91.7301 97.14 91.2821 97 90.9741 96.72C90.6754 96.4307 90.5261 96.0153 90.5261 95.474V91.008H89.1121V90.168H90.5261V88.292L91.5481 88.054V90.168H93.5081V91.008H91.5481V95.208C91.5481 95.572 91.6227 95.8333 91.7721 95.992C91.9307 96.1507 92.1874 96.23 92.5421 96.23C92.7194 96.23 92.8781 96.216 93.0181 96.188C93.1581 96.16 93.3214 96.1133 93.5081 96.048V96.958C93.3214 97.0233 93.1254 97.07 92.9201 97.098C92.7147 97.126 92.5141 97.14 92.3181 97.14ZM95.0051 97V86.892L96.0271 86.682V91.274C96.2884 90.8633 96.6011 90.56 96.9651 90.364C97.3291 90.1587 97.7397 90.056 98.1971 90.056C98.6917 90.056 99.1211 90.1633 99.4851 90.378C99.8584 90.5833 100.148 90.8773 100.353 91.26C100.568 91.6333 100.675 92.072 100.675 92.576V97H99.6531V92.87C99.6531 92.2633 99.4851 91.7873 99.1491 91.442C98.8224 91.0873 98.3791 90.91 97.8191 90.91C97.4457 90.91 97.1051 90.9987 96.7971 91.176C96.4891 91.3533 96.2324 91.6147 96.0271 91.96V97H95.0051ZM105.81 97.14C105.175 97.14 104.601 96.986 104.088 96.678C103.574 96.3607 103.168 95.936 102.87 95.404C102.571 94.8627 102.422 94.256 102.422 93.584C102.422 92.912 102.562 92.31 102.842 91.778C103.131 91.246 103.518 90.826 104.004 90.518C104.489 90.21 105.03 90.056 105.628 90.056C106.234 90.056 106.771 90.21 107.238 90.518C107.714 90.8167 108.087 91.2273 108.358 91.75C108.638 92.2633 108.778 92.8467 108.778 93.5V93.808H103.416C103.453 94.2747 103.579 94.6947 103.794 95.068C104.018 95.432 104.307 95.7213 104.662 95.936C105.026 96.1413 105.422 96.244 105.852 96.244C106.206 96.244 106.547 96.1833 106.874 96.062C107.21 95.9313 107.494 95.7587 107.728 95.544L108.372 96.23C107.98 96.538 107.574 96.7667 107.154 96.916C106.734 97.0653 106.286 97.14 105.81 97.14ZM103.444 93.08H107.77C107.723 92.6693 107.597 92.3053 107.392 91.988C107.196 91.6613 106.944 91.4047 106.636 91.218C106.337 91.0313 106.001 90.938 105.628 90.938C105.254 90.938 104.914 91.0313 104.606 91.218C104.298 91.3953 104.041 91.6473 103.836 91.974C103.64 92.2913 103.509 92.66 103.444 93.08ZM110.523 97V90.168H111.545V91.568C111.722 91.092 111.974 90.7233 112.301 90.462C112.637 90.1913 113.019 90.056 113.449 90.056C113.57 90.056 113.682 90.0653 113.785 90.084C113.887 90.0933 113.99 90.1167 114.093 90.154V91.078C113.981 91.0407 113.859 91.0127 113.729 90.994C113.607 90.966 113.491 90.952 113.379 90.952C112.959 90.952 112.59 91.0733 112.273 91.316C111.965 91.5587 111.722 91.8993 111.545 92.338V97H110.523ZM121.736 97.112C121.101 97.112 120.532 96.958 120.028 96.65C119.524 96.342 119.127 95.922 118.838 95.39C118.549 94.858 118.404 94.256 118.404 93.584C118.404 92.912 118.549 92.31 118.838 91.778C119.127 91.246 119.524 90.826 120.028 90.518C120.532 90.21 121.101 90.056 121.736 90.056C122.361 90.056 122.921 90.21 123.416 90.518C123.92 90.826 124.317 91.246 124.606 91.778C124.895 92.31 125.04 92.912 125.04 93.584C125.04 94.256 124.895 94.858 124.606 95.39C124.317 95.922 123.92 96.342 123.416 96.65C122.921 96.958 122.361 97.112 121.736 97.112ZM121.722 96.216C122.17 96.216 122.567 96.104 122.912 95.88C123.257 95.6467 123.528 95.3293 123.724 94.928C123.929 94.5267 124.032 94.0787 124.032 93.584C124.032 93.08 123.929 92.632 123.724 92.24C123.528 91.8387 123.257 91.526 122.912 91.302C122.567 91.0687 122.17 90.952 121.722 90.952C121.274 90.952 120.877 91.0687 120.532 91.302C120.187 91.526 119.911 91.8387 119.706 92.24C119.51 92.632 119.412 93.08 119.412 93.584C119.412 94.0787 119.51 94.5267 119.706 94.928C119.911 95.3293 120.187 95.6467 120.532 95.88C120.877 96.104 121.274 96.216 121.722 96.216ZM126.833 99.926V90.168H127.841V91.148C128.103 90.8027 128.42 90.5413 128.793 90.364C129.176 90.1773 129.596 90.084 130.053 90.084C130.651 90.084 131.183 90.2427 131.649 90.56C132.125 90.868 132.503 91.288 132.783 91.82C133.063 92.3427 133.203 92.9307 133.203 93.584C133.203 94.2373 133.059 94.83 132.769 95.362C132.489 95.894 132.107 96.3187 131.621 96.636C131.145 96.944 130.604 97.098 129.997 97.098C129.568 97.098 129.171 97.0187 128.807 96.86C128.443 96.692 128.126 96.454 127.855 96.146V99.926H126.833ZM129.801 96.216C130.259 96.216 130.665 96.104 131.019 95.88C131.383 95.6467 131.668 95.334 131.873 94.942C132.088 94.5407 132.195 94.0927 132.195 93.598C132.195 93.094 132.088 92.646 131.873 92.254C131.668 91.862 131.383 91.554 131.019 91.33C130.665 91.0967 130.259 90.98 129.801 90.98C129.4 90.98 129.027 91.064 128.681 91.232C128.345 91.3907 128.07 91.6193 127.855 91.918V95.264C128.079 95.5627 128.359 95.796 128.695 95.964C129.041 96.132 129.409 96.216 129.801 96.216ZM137.175 97.14C136.587 97.14 136.139 97 135.831 96.72C135.533 96.4307 135.383 96.0153 135.383 95.474V91.008H133.969V90.168H135.383V88.292L136.405 88.054V90.168H138.365V91.008H136.405V95.208C136.405 95.572 136.48 95.8333 136.629 95.992C136.788 96.1507 137.045 96.23 137.399 96.23C137.577 96.23 137.735 96.216 137.875 96.188C138.015 96.16 138.179 96.1133 138.365 96.048V96.958C138.179 97.0233 137.983 97.07 137.777 97.098C137.572 97.126 137.371 97.14 137.175 97.14ZM139.849 97V90.168H140.87V97H139.849ZM140.367 88.474C140.161 88.474 139.984 88.404 139.835 88.264C139.695 88.1147 139.625 87.942 139.625 87.746C139.625 87.55 139.695 87.382 139.835 87.242C139.984 87.0927 140.161 87.018 140.367 87.018C140.572 87.018 140.745 87.0927 140.885 87.242C141.034 87.382 141.109 87.55 141.109 87.746C141.109 87.942 141.034 88.1147 140.885 88.264C140.745 88.404 140.572 88.474 140.367 88.474ZM145.99 97.112C145.355 97.112 144.786 96.958 144.282 96.65C143.778 96.342 143.381 95.922 143.092 95.39C142.803 94.858 142.658 94.256 142.658 93.584C142.658 92.912 142.803 92.31 143.092 91.778C143.381 91.246 143.778 90.826 144.282 90.518C144.786 90.21 145.355 90.056 145.99 90.056C146.615 90.056 147.175 90.21 147.67 90.518C148.174 90.826 148.571 91.246 148.86 91.778C149.149 92.31 149.294 92.912 149.294 93.584C149.294 94.256 149.149 94.858 148.86 95.39C148.571 95.922 148.174 96.342 147.67 96.65C147.175 96.958 146.615 97.112 145.99 97.112ZM145.976 96.216C146.424 96.216 146.821 96.104 147.166 95.88C147.511 95.6467 147.782 95.3293 147.978 94.928C148.183 94.5267 148.286 94.0787 148.286 93.584C148.286 93.08 148.183 92.632 147.978 92.24C147.782 91.8387 147.511 91.526 147.166 91.302C146.821 91.0687 146.424 90.952 145.976 90.952C145.528 90.952 145.131 91.0687 144.786 91.302C144.441 91.526 144.165 91.8387 143.96 92.24C143.764 92.632 143.666 93.08 143.666 93.584C143.666 94.0787 143.764 94.5267 143.96 94.928C144.165 95.3293 144.441 95.6467 144.786 95.88C145.131 96.104 145.528 96.216 145.976 96.216ZM151.087 97V90.168H152.109V91.274C152.37 90.8633 152.683 90.56 153.047 90.364C153.411 90.1587 153.822 90.056 154.279 90.056C154.774 90.056 155.203 90.1633 155.567 90.378C155.94 90.5833 156.23 90.8773 156.435 91.26C156.65 91.6333 156.757 92.072 156.757 92.576V97H155.735V92.87C155.735 92.2633 155.567 91.7873 155.231 91.442C154.904 91.0873 154.461 90.91 153.901 90.91C153.528 90.91 153.187 90.9987 152.879 91.176C152.571 91.3533 152.314 91.6147 152.109 91.96V97H151.087Z" fill="#151515"/>
</svg>
