<svg width="390" height="392" viewBox="0 0 390 392" fill="none" xmlns="http://www.w3.org/2000/svg">
<rect width="390" height="392" fill="white"/>
<path d="M46 31H344C346.761 31 349 33.2386 349 36V61C349 63.7614 346.761 66 344 66H46C43.2386 66 41 63.7614 41 61V36C41 33.2386 43.2386 31 46 31Z" fill="white"/>
<path d="M46 31H344C346.761 31 349 33.2386 349 36V61C349 63.7614 346.761 66 344 66H46C43.2386 66 41 63.7614 41 61V36C41 33.2386 43.2386 31 46 31Z" stroke="#0066CC" stroke-width="2"/>
<path fill-rule="evenodd" clip-rule="evenodd" d="M65.032 55.8086L65.8058 55.0347C66.0629 54.7777 66.0629 54.3621 65.8086 54.1051L63.0824 51.3789C62.9593 51.2558 62.7926 51.1875 62.6175 51.1875H62.1719C62.9265 50.2223 63.375 49.0082 63.375 47.6875C63.375 44.5457 60.8293 42 57.6875 42C54.5457 42 52 44.5457 52 47.6875C52 50.8293 54.5457 53.375 57.6875 53.375C59.0082 53.375 60.2223 52.9265 61.1875 52.1719V52.6175C61.1875 52.7926 61.2558 52.9593 61.3789 53.0824L64.1051 55.8086C64.3621 56.0656 64.7777 56.0656 65.032 55.8086ZM57.6875 51.1875C55.7543 51.1875 54.1875 49.6234 54.1875 47.6875C54.1875 45.7543 55.7516 44.1875 57.6875 44.1875C59.6207 44.1875 61.1875 45.7516 61.1875 47.6875C61.1875 49.6207 59.6234 51.1875 57.6875 51.1875Z" fill="#1F1F1F"/>
<path d="M46 325.5H344C347.038 325.5 349.5 327.962 349.5 331V356C349.5 359.038 347.038 361.5 344 361.5H46C42.9624 361.5 40.5 359.038 40.5 356V331C40.5 327.962 42.9624 325.5 46 325.5Z" fill="white"/>
<path d="M46 325.5H344C347.038 325.5 349.5 327.962 349.5 331V356C349.5 359.038 347.038 361.5 344 361.5H46C42.9624 361.5 40.5 359.038 40.5 356V331C40.5 327.962 42.9624 325.5 46 325.5Z" stroke="#C7C7C7"/>
<path fill-rule="evenodd" clip-rule="evenodd" d="M65.032 350.809L65.8058 350.035C66.0629 349.778 66.0629 349.362 65.8086 349.105L63.0824 346.379C62.9593 346.256 62.7926 346.187 62.6175 346.187H62.1719C62.9265 345.222 63.375 344.008 63.375 342.687C63.375 339.546 60.8293 337 57.6875 337C54.5457 337 52 339.546 52 342.687C52 345.829 54.5457 348.375 57.6875 348.375C59.0082 348.375 60.2223 347.927 61.1875 347.172V347.618C61.1875 347.793 61.2558 347.959 61.3789 348.082L64.1051 350.809C64.3621 351.066 64.7777 351.066 65.032 350.809ZM57.6875 346.187C55.7543 346.187 54.1875 344.623 54.1875 342.687C54.1875 340.754 55.7516 339.187 57.6875 339.187C59.6207 339.187 61.1875 340.752 61.1875 342.687C61.1875 344.621 59.6234 346.187 57.6875 346.187Z" fill="#1F1F1F"/>
<path fill-rule="evenodd" clip-rule="evenodd" d="M335.333 347.922L335.922 347.333C336.248 347.007 336.248 346.479 335.922 346.153L333.269 343.5L335.922 340.847C336.248 340.521 336.248 339.993 335.922 339.667L335.333 339.078C335.007 338.752 334.479 338.752 334.153 339.078L331.5 341.731L328.847 339.078C328.521 338.752 327.993 338.752 327.667 339.078L327.077 339.667C326.752 339.993 326.752 340.521 327.077 340.847L329.731 343.5L327.077 346.153C326.752 346.479 326.752 347.007 327.077 347.333L327.667 347.922C327.993 348.248 328.521 348.248 328.847 347.922L331.5 345.269L334.153 347.922C334.479 348.248 335.007 348.248 335.333 347.922Z" fill="#1F1F1F"/>
<g filter="url(#filter0_d_1206_6547)">
<path d="M40 73C40 69.6863 42.6863 67 46 67H344C347.314 67 350 69.6863 350 73V259C350 262.314 347.314 265 344 265H46C42.6863 265 40 262.314 40 259V73Z" fill="white"/>
<path d="M64.108 96L67.432 87.6H68.536L71.812 96H70.816L69.82 93.36H66.076L65.08 96H64.108ZM66.364 92.628H69.544L67.948 88.44L66.364 92.628ZM74.339 96.12C73.835 96.12 73.451 96 73.187 95.76C72.931 95.512 72.803 95.156 72.803 94.692V90.864H71.591V90.144H72.803V88.536L73.679 88.332V90.144H75.359V90.864H73.679V94.464C73.679 94.776 73.743 95 73.871 95.136C74.007 95.272 74.227 95.34 74.531 95.34C74.683 95.34 74.819 95.328 74.939 95.304C75.059 95.28 75.199 95.24 75.359 95.184V95.964C75.199 96.02 75.031 96.06 74.855 96.084C74.679 96.108 74.507 96.12 74.339 96.12ZM78.9914 96.12C78.4874 96.12 78.1034 96 77.8394 95.76C77.5834 95.512 77.4554 95.156 77.4554 94.692V90.864H76.2434V90.144H77.4554V88.536L78.3314 88.332V90.144H80.0114V90.864H78.3314V94.464C78.3314 94.776 78.3954 95 78.5234 95.136C78.6594 95.272 78.8794 95.34 79.1834 95.34C79.3354 95.34 79.4714 95.328 79.5914 95.304C79.7114 95.28 79.8514 95.24 80.0114 95.184V95.964C79.8514 96.02 79.6834 96.06 79.5074 96.084C79.3314 96.108 79.1594 96.12 78.9914 96.12ZM81.2945 96V90.144H82.1705V91.344C82.3225 90.936 82.5385 90.62 82.8185 90.396C83.1065 90.164 83.4345 90.048 83.8025 90.048C83.9065 90.048 84.0025 90.056 84.0905 90.072C84.1785 90.08 84.2665 90.1 84.3545 90.132V90.924C84.2585 90.892 84.1545 90.868 84.0425 90.852C83.9385 90.828 83.8385 90.816 83.7425 90.816C83.3825 90.816 83.0665 90.92 82.7945 91.128C82.5305 91.336 82.3225 91.628 82.1705 92.004V96H81.2945ZM85.5013 96V90.144H86.3773V96H85.5013ZM85.9453 88.692C85.7693 88.692 85.6173 88.632 85.4893 88.512C85.3693 88.384 85.3093 88.236 85.3093 88.068C85.3093 87.9 85.3693 87.756 85.4893 87.636C85.6173 87.508 85.7693 87.444 85.9453 87.444C86.1213 87.444 86.2693 87.508 86.3893 87.636C86.5173 87.756 86.5813 87.9 86.5813 88.068C86.5813 88.236 86.5173 88.384 86.3893 88.512C86.2693 88.632 86.1213 88.692 85.9453 88.692ZM88.1734 96V87.42L89.0494 87.24V90.948C89.2734 90.668 89.5454 90.452 89.8654 90.3C90.1854 90.148 90.5414 90.072 90.9334 90.072C91.4454 90.072 91.9014 90.208 92.3014 90.48C92.7094 90.744 93.0334 91.104 93.2734 91.56C93.5134 92.008 93.6334 92.512 93.6334 93.072C93.6334 93.632 93.5094 94.14 93.2614 94.596C93.0214 95.052 92.6934 95.416 92.2774 95.688C91.8694 95.952 91.4054 96.084 90.8854 96.084C90.5174 96.084 90.1734 96.012 89.8534 95.868C89.5414 95.716 89.2694 95.504 89.0374 95.232V96H88.1734ZM90.7174 95.328C91.1094 95.328 91.4574 95.232 91.7614 95.04C92.0734 94.84 92.3174 94.572 92.4934 94.236C92.6774 93.892 92.7694 93.508 92.7694 93.084C92.7694 92.652 92.6774 92.268 92.4934 91.932C92.3174 91.596 92.0734 91.332 91.7614 91.14C91.4574 90.94 91.1094 90.84 90.7174 90.84C90.3734 90.84 90.0534 90.912 89.7574 91.056C89.4694 91.192 89.2334 91.388 89.0494 91.644V94.512C89.2414 94.768 89.4814 94.968 89.7694 95.112C90.0654 95.256 90.3814 95.328 90.7174 95.328ZM97.2575 96.096C96.8415 96.096 96.4735 96.004 96.1535 95.82C95.8335 95.636 95.5815 95.38 95.3975 95.052C95.2215 94.724 95.1335 94.348 95.1335 93.924V90.144H96.0215V93.672C96.0215 94.192 96.1615 94.604 96.4415 94.908C96.7215 95.212 97.1015 95.364 97.5815 95.364C97.9095 95.364 98.2015 95.288 98.4575 95.136C98.7215 94.984 98.9415 94.764 99.1175 94.476V90.144H99.9935V96H99.1175V95.052C98.8935 95.396 98.6255 95.656 98.3135 95.832C98.0095 96.008 97.6575 96.096 97.2575 96.096ZM104.023 96.12C103.519 96.12 103.135 96 102.871 95.76C102.615 95.512 102.487 95.156 102.487 94.692V90.864H101.275V90.144H102.487V88.536L103.363 88.332V90.144H105.043V90.864H103.363V94.464C103.363 94.776 103.427 95 103.555 95.136C103.691 95.272 103.911 95.34 104.215 95.34C104.367 95.34 104.503 95.328 104.623 95.304C104.743 95.28 104.883 95.24 105.043 95.184V95.964C104.883 96.02 104.715 96.06 104.539 96.084C104.363 96.108 104.191 96.12 104.023 96.12ZM108.849 96.12C108.305 96.12 107.813 95.988 107.373 95.724C106.933 95.452 106.585 95.088 106.329 94.632C106.073 94.168 105.945 93.648 105.945 93.072C105.945 92.496 106.065 91.98 106.305 91.524C106.553 91.068 106.885 90.708 107.301 90.444C107.717 90.18 108.181 90.048 108.693 90.048C109.213 90.048 109.673 90.18 110.073 90.444C110.481 90.7 110.801 91.052 111.033 91.5C111.273 91.94 111.393 92.44 111.393 93V93.264H106.797C106.829 93.664 106.937 94.024 107.121 94.344C107.313 94.656 107.561 94.904 107.865 95.088C108.177 95.264 108.517 95.352 108.885 95.352C109.189 95.352 109.481 95.3 109.761 95.196C110.049 95.084 110.293 94.936 110.493 94.752L111.045 95.34C110.709 95.604 110.361 95.8 110.001 95.928C109.641 96.056 109.257 96.12 108.849 96.12ZM106.821 92.64H110.529C110.489 92.288 110.381 91.976 110.205 91.704C110.037 91.424 109.821 91.204 109.557 91.044C109.301 90.884 109.013 90.804 108.693 90.804C108.373 90.804 108.081 90.884 107.817 91.044C107.553 91.196 107.333 91.412 107.157 91.692C106.989 91.964 106.877 92.28 106.821 92.64ZM114.759 96.12C114.279 96.12 113.835 96.048 113.427 95.904C113.019 95.752 112.671 95.536 112.383 95.256L112.851 94.68C113.203 94.936 113.527 95.124 113.823 95.244C114.119 95.356 114.423 95.412 114.735 95.412C115.159 95.412 115.511 95.312 115.791 95.112C116.071 94.912 116.211 94.656 116.211 94.344C116.211 94.104 116.127 93.916 115.959 93.78C115.799 93.644 115.531 93.54 115.155 93.468L114.195 93.3C113.627 93.196 113.207 93.02 112.935 92.772C112.671 92.524 112.539 92.188 112.539 91.764C112.539 91.428 112.627 91.132 112.803 90.876C112.987 90.62 113.239 90.42 113.559 90.276C113.879 90.124 114.243 90.048 114.651 90.048C115.051 90.048 115.431 90.108 115.791 90.228C116.151 90.34 116.515 90.524 116.883 90.78L116.451 91.392C116.147 91.176 115.843 91.02 115.539 90.924C115.235 90.82 114.927 90.768 114.615 90.768C114.231 90.768 113.923 90.852 113.691 91.02C113.459 91.188 113.343 91.416 113.343 91.704C113.343 91.944 113.415 92.128 113.559 92.256C113.711 92.384 113.975 92.48 114.351 92.544L115.335 92.724C115.927 92.828 116.359 93.008 116.631 93.264C116.903 93.52 117.039 93.864 117.039 94.296C117.039 94.64 116.939 94.952 116.739 95.232C116.539 95.504 116.267 95.72 115.923 95.88C115.579 96.04 115.191 96.12 114.759 96.12Z" fill="#4D4D4D"/>
<rect width="310" height="37" transform="translate(40 109)" fill="#C7C7C7" fill-opacity="0.25"/>
<path d="M69.768 132.154C69.068 132.154 68.4147 132.028 67.808 131.776C67.2107 131.515 66.6833 131.155 66.226 130.698C65.7687 130.231 65.414 129.695 65.162 129.088C64.91 128.472 64.784 127.809 64.784 127.1C64.784 126.391 64.91 125.733 65.162 125.126C65.414 124.51 65.7687 123.973 66.226 123.516C66.6833 123.049 67.2107 122.69 67.808 122.438C68.4147 122.177 69.068 122.046 69.768 122.046C70.2533 122.046 70.7153 122.111 71.154 122.242C71.602 122.363 72.022 122.545 72.414 122.788C72.806 123.021 73.156 123.311 73.464 123.656L72.75 124.398C72.386 123.959 71.938 123.623 71.406 123.39C70.8833 123.147 70.3373 123.026 69.768 123.026C69.2173 123.026 68.704 123.129 68.228 123.334C67.752 123.539 67.3367 123.829 66.982 124.202C66.6367 124.575 66.366 125.009 66.17 125.504C65.974 125.989 65.876 126.521 65.876 127.1C65.876 127.669 65.974 128.201 66.17 128.696C66.366 129.191 66.6367 129.625 66.982 129.998C67.3367 130.371 67.752 130.661 68.228 130.866C68.704 131.071 69.2173 131.174 69.768 131.174C70.3373 131.174 70.8833 131.053 71.406 130.81C71.938 130.567 72.386 130.231 72.75 129.802L73.464 130.544C73.156 130.889 72.806 131.183 72.414 131.426C72.022 131.659 71.602 131.841 71.154 131.972C70.7153 132.093 70.2533 132.154 69.768 132.154ZM75.2082 132V121.892L76.2302 121.682V132H75.2082ZM80.7614 132.112C80.2761 132.112 79.8467 132.005 79.4734 131.79C79.1001 131.575 78.8061 131.277 78.5914 130.894C78.3861 130.511 78.2834 130.073 78.2834 129.578V125.168H79.3194V129.284C79.3194 129.891 79.4827 130.371 79.8094 130.726C80.1361 131.081 80.5794 131.258 81.1394 131.258C81.5221 131.258 81.8627 131.169 82.1614 130.992C82.4694 130.815 82.7261 130.558 82.9314 130.222V125.168H83.9534V132H82.9314V130.894C82.6701 131.295 82.3574 131.599 81.9934 131.804C81.6387 132.009 81.2281 132.112 80.7614 132.112ZM88.164 132.14C87.604 132.14 87.086 132.056 86.61 131.888C86.134 131.711 85.728 131.459 85.392 131.132L85.938 130.46C86.3487 130.759 86.7267 130.978 87.072 131.118C87.4173 131.249 87.772 131.314 88.136 131.314C88.6307 131.314 89.0413 131.197 89.368 130.964C89.6947 130.731 89.858 130.432 89.858 130.068C89.858 129.788 89.76 129.569 89.564 129.41C89.3773 129.251 89.0647 129.13 88.626 129.046L87.506 128.85C86.8433 128.729 86.3533 128.523 86.036 128.234C85.728 127.945 85.574 127.553 85.574 127.058C85.574 126.666 85.6767 126.321 85.882 126.022C86.0967 125.723 86.3907 125.49 86.764 125.322C87.1373 125.145 87.562 125.056 88.038 125.056C88.5047 125.056 88.948 125.126 89.368 125.266C89.788 125.397 90.2127 125.611 90.642 125.91L90.138 126.624C89.7833 126.372 89.4287 126.19 89.074 126.078C88.7193 125.957 88.36 125.896 87.996 125.896C87.548 125.896 87.1887 125.994 86.918 126.19C86.6473 126.386 86.512 126.652 86.512 126.988C86.512 127.268 86.596 127.483 86.764 127.632C86.9413 127.781 87.2493 127.893 87.688 127.968L88.836 128.178C89.5267 128.299 90.0307 128.509 90.348 128.808C90.6653 129.107 90.824 129.508 90.824 130.012C90.824 130.413 90.7073 130.777 90.474 131.104C90.2407 131.421 89.9233 131.673 89.522 131.86C89.1207 132.047 88.668 132.14 88.164 132.14ZM94.8474 132.14C94.2594 132.14 93.8114 132 93.5034 131.72C93.2047 131.431 93.0554 131.015 93.0554 130.474V126.008H91.6414V125.168H93.0554V123.292L94.0774 123.054V125.168H96.0374V126.008H94.0774V130.208C94.0774 130.572 94.152 130.833 94.3014 130.992C94.46 131.151 94.7167 131.23 95.0714 131.23C95.2487 131.23 95.4074 131.216 95.5474 131.188C95.6874 131.16 95.8507 131.113 96.0374 131.048V131.958C95.8507 132.023 95.6547 132.07 95.4494 132.098C95.244 132.126 95.0434 132.14 94.8474 132.14ZM100.478 132.14C99.843 132.14 99.269 131.986 98.7557 131.678C98.2423 131.361 97.8363 130.936 97.5377 130.404C97.239 129.863 97.0897 129.256 97.0897 128.584C97.0897 127.912 97.2297 127.31 97.5097 126.778C97.799 126.246 98.1863 125.826 98.6717 125.518C99.157 125.21 99.6983 125.056 100.296 125.056C100.902 125.056 101.439 125.21 101.906 125.518C102.382 125.817 102.755 126.227 103.026 126.75C103.306 127.263 103.446 127.847 103.446 128.5V128.808H98.0837C98.121 129.275 98.247 129.695 98.4617 130.068C98.6857 130.432 98.975 130.721 99.3297 130.936C99.6937 131.141 100.09 131.244 100.52 131.244C100.874 131.244 101.215 131.183 101.542 131.062C101.878 130.931 102.162 130.759 102.396 130.544L103.04 131.23C102.648 131.538 102.242 131.767 101.822 131.916C101.402 132.065 100.954 132.14 100.478 132.14ZM98.1117 128.08H102.438C102.391 127.669 102.265 127.305 102.06 126.988C101.864 126.661 101.612 126.405 101.304 126.218C101.005 126.031 100.669 125.938 100.296 125.938C99.9223 125.938 99.5817 126.031 99.2737 126.218C98.9657 126.395 98.709 126.647 98.5037 126.974C98.3077 127.291 98.177 127.66 98.1117 128.08ZM105.191 132V125.168H106.213V126.568C106.39 126.092 106.642 125.723 106.969 125.462C107.305 125.191 107.687 125.056 108.117 125.056C108.238 125.056 108.35 125.065 108.453 125.084C108.555 125.093 108.658 125.117 108.761 125.154V126.078C108.649 126.041 108.527 126.013 108.397 125.994C108.275 125.966 108.159 125.952 108.047 125.952C107.627 125.952 107.258 126.073 106.941 126.316C106.633 126.559 106.39 126.899 106.213 127.338V132H105.191Z" fill="#151515"/>
<path d="M65.246 169V159.2H66.324V163.848L71.084 159.2H72.456L67.458 164.016L72.568 169H71.098L66.324 164.31V169H65.246ZM73.5809 169V162.168H74.6029V169H73.5809ZM74.0989 160.474C73.8936 160.474 73.7163 160.404 73.5669 160.264C73.4269 160.115 73.3569 159.942 73.3569 159.746C73.3569 159.55 73.4269 159.382 73.5669 159.242C73.7163 159.093 73.8936 159.018 74.0989 159.018C74.3043 159.018 74.4769 159.093 74.6169 159.242C74.7663 159.382 74.8409 159.55 74.8409 159.746C74.8409 159.942 74.7663 160.115 74.6169 160.264C74.4769 160.404 74.3043 160.474 74.0989 160.474ZM76.6984 169V162.168H77.7204V163.274C77.9818 162.863 78.2944 162.56 78.6584 162.364C79.0224 162.159 79.4331 162.056 79.8904 162.056C80.3851 162.056 80.8144 162.163 81.1784 162.378C81.5518 162.583 81.8411 162.877 82.0464 163.26C82.2611 163.633 82.3684 164.072 82.3684 164.576V169H81.3464V164.87C81.3464 164.263 81.1784 163.787 80.8424 163.442C80.5158 163.087 80.0724 162.91 79.5124 162.91C79.1391 162.91 78.7984 162.999 78.4904 163.176C78.1824 163.353 77.9258 163.615 77.7204 163.96V169H76.6984ZM87.265 169.098C86.677 169.098 86.145 168.944 85.669 168.636C85.193 168.319 84.815 167.899 84.535 167.376C84.255 166.844 84.115 166.251 84.115 165.598C84.115 164.935 84.255 164.343 84.535 163.82C84.8244 163.288 85.2117 162.868 85.697 162.56C86.1824 162.243 86.7237 162.084 87.321 162.084C87.741 162.084 88.133 162.168 88.497 162.336C88.861 162.495 89.1784 162.728 89.449 163.036V158.892L90.471 158.682V169H89.449V168.09C89.1877 168.417 88.8704 168.669 88.497 168.846C88.1237 169.014 87.713 169.098 87.265 169.098ZM87.517 168.202C87.9184 168.202 88.287 168.123 88.623 167.964C88.959 167.805 89.2344 167.581 89.449 167.292V163.904C89.225 163.615 88.9404 163.391 88.595 163.232C88.259 163.064 87.8997 162.98 87.517 162.98C87.0597 162.98 86.649 163.092 86.285 163.316C85.9304 163.54 85.6457 163.848 85.431 164.24C85.2257 164.632 85.123 165.08 85.123 165.584C85.123 166.079 85.2257 166.527 85.431 166.928C85.6457 167.32 85.9304 167.633 86.285 167.866C86.649 168.09 87.0597 168.202 87.517 168.202Z" fill="#151515"/>
<path d="M65.246 206V196.2H66.366L72.106 204.32L72.078 196.2H73.1V206H72.12L66.24 197.698L66.268 206H65.246ZM77.3769 206.126C76.8916 206.126 76.4622 206.037 76.0889 205.86C75.7156 205.683 75.4216 205.44 75.2069 205.132C75.0016 204.815 74.8989 204.451 74.8989 204.04C74.8989 203.629 75.0062 203.275 75.2209 202.976C75.4356 202.668 75.7342 202.43 76.1169 202.262C76.4996 202.094 76.9476 202.01 77.4609 202.01C77.8529 202.01 78.2216 202.052 78.5669 202.136C78.9216 202.22 79.2482 202.355 79.5469 202.542V201.604C79.5469 201.044 79.3976 200.624 79.0989 200.344C78.8002 200.055 78.3616 199.91 77.7829 199.91C77.4656 199.91 77.1389 199.957 76.8029 200.05C76.4762 200.143 76.1122 200.293 75.7109 200.498L75.3329 199.714C76.2476 199.275 77.1062 199.056 77.9089 199.056C78.7582 199.056 79.4116 199.266 79.8689 199.686C80.3262 200.097 80.5549 200.689 80.5549 201.464V206H79.5469V205.202C79.2482 205.51 78.9169 205.743 78.5529 205.902C78.1889 206.051 77.7969 206.126 77.3769 206.126ZM75.8789 204.012C75.8789 204.413 76.0329 204.735 76.3409 204.978C76.6582 205.221 77.0736 205.342 77.5869 205.342C77.9696 205.342 78.3196 205.277 78.6369 205.146C78.9636 205.015 79.2669 204.819 79.5469 204.558V203.242C79.2576 203.074 78.9589 202.953 78.6509 202.878C78.3429 202.794 77.9976 202.752 77.6149 202.752C77.0922 202.752 76.6722 202.869 76.3549 203.102C76.0376 203.326 75.8789 203.629 75.8789 204.012ZM82.632 206V199.168H83.654V200.232C83.9154 199.84 84.214 199.546 84.55 199.35C84.886 199.154 85.264 199.056 85.684 199.056C86.1694 199.056 86.594 199.177 86.958 199.42C87.322 199.653 87.5974 199.975 87.784 200.386C88.0547 199.947 88.3767 199.616 88.75 199.392C89.1327 199.168 89.5714 199.056 90.066 199.056C90.5234 199.056 90.9247 199.163 91.27 199.378C91.6247 199.593 91.9 199.891 92.096 200.274C92.292 200.647 92.39 201.086 92.39 201.59V206H91.368V201.842C91.368 201.245 91.2187 200.773 90.92 200.428C90.6214 200.083 90.2107 199.91 89.688 199.91C89.3334 199.91 89.0114 199.999 88.722 200.176C88.442 200.353 88.1947 200.624 87.98 200.988C87.9987 201.081 88.0127 201.179 88.022 201.282C88.0314 201.385 88.036 201.487 88.036 201.59V206H87.014V201.842C87.014 201.245 86.86 200.773 86.552 200.428C86.2534 200.083 85.8427 199.91 85.32 199.91C84.62 199.91 84.0647 200.246 83.654 200.918V206H82.632ZM97.5382 206.14C96.9035 206.14 96.3295 205.986 95.8162 205.678C95.3029 205.361 94.8969 204.936 94.5982 204.404C94.2995 203.863 94.1502 203.256 94.1502 202.584C94.1502 201.912 94.2902 201.31 94.5702 200.778C94.8595 200.246 95.2469 199.826 95.7322 199.518C96.2175 199.21 96.7589 199.056 97.3562 199.056C97.9629 199.056 98.4995 199.21 98.9662 199.518C99.4422 199.817 99.8155 200.227 100.086 200.75C100.366 201.263 100.506 201.847 100.506 202.5V202.808H95.1442C95.1815 203.275 95.3075 203.695 95.5222 204.068C95.7462 204.432 96.0355 204.721 96.3902 204.936C96.7542 205.141 97.1509 205.244 97.5802 205.244C97.9349 205.244 98.2755 205.183 98.6022 205.062C98.9382 204.931 99.2229 204.759 99.4562 204.544L100.1 205.23C99.7082 205.538 99.3022 205.767 98.8822 205.916C98.4622 206.065 98.0142 206.14 97.5382 206.14ZM95.1722 202.08H99.4982C99.4515 201.669 99.3255 201.305 99.1202 200.988C98.9242 200.661 98.6722 200.405 98.3642 200.218C98.0655 200.031 97.7295 199.938 97.3562 199.938C96.9829 199.938 96.6422 200.031 96.3342 200.218C96.0262 200.395 95.7695 200.647 95.5642 200.974C95.3682 201.291 95.2375 201.66 95.1722 202.08ZM104.434 206.14C103.874 206.14 103.356 206.056 102.88 205.888C102.404 205.711 101.998 205.459 101.662 205.132L102.208 204.46C102.618 204.759 102.996 204.978 103.342 205.118C103.687 205.249 104.042 205.314 104.406 205.314C104.9 205.314 105.311 205.197 105.638 204.964C105.964 204.731 106.128 204.432 106.128 204.068C106.128 203.788 106.03 203.569 105.834 203.41C105.647 203.251 105.334 203.13 104.896 203.046L103.776 202.85C103.113 202.729 102.623 202.523 102.306 202.234C101.998 201.945 101.844 201.553 101.844 201.058C101.844 200.666 101.946 200.321 102.152 200.022C102.366 199.723 102.66 199.49 103.034 199.322C103.407 199.145 103.832 199.056 104.308 199.056C104.774 199.056 105.218 199.126 105.638 199.266C106.058 199.397 106.482 199.611 106.912 199.91L106.408 200.624C106.053 200.372 105.698 200.19 105.344 200.078C104.989 199.957 104.63 199.896 104.266 199.896C103.818 199.896 103.458 199.994 103.188 200.19C102.917 200.386 102.782 200.652 102.782 200.988C102.782 201.268 102.866 201.483 103.034 201.632C103.211 201.781 103.519 201.893 103.958 201.968L105.106 202.178C105.796 202.299 106.3 202.509 106.618 202.808C106.935 203.107 107.094 203.508 107.094 204.012C107.094 204.413 106.977 204.777 106.744 205.104C106.51 205.421 106.193 205.673 105.792 205.86C105.39 206.047 104.938 206.14 104.434 206.14ZM108.65 208.926V199.168H109.658V200.148C109.919 199.803 110.236 199.541 110.61 199.364C110.992 199.177 111.412 199.084 111.87 199.084C112.467 199.084 112.999 199.243 113.466 199.56C113.942 199.868 114.32 200.288 114.6 200.82C114.88 201.343 115.02 201.931 115.02 202.584C115.02 203.237 114.875 203.83 114.586 204.362C114.306 204.894 113.923 205.319 113.438 205.636C112.962 205.944 112.42 206.098 111.814 206.098C111.384 206.098 110.988 206.019 110.624 205.86C110.26 205.692 109.942 205.454 109.672 205.146V208.926H108.65ZM111.618 205.216C112.075 205.216 112.481 205.104 112.836 204.88C113.2 204.647 113.484 204.334 113.69 203.942C113.904 203.541 114.012 203.093 114.012 202.598C114.012 202.094 113.904 201.646 113.69 201.254C113.484 200.862 113.2 200.554 112.836 200.33C112.481 200.097 112.075 199.98 111.618 199.98C111.216 199.98 110.843 200.064 110.498 200.232C110.162 200.391 109.886 200.619 109.672 200.918V204.264C109.896 204.563 110.176 204.796 110.512 204.964C110.857 205.132 111.226 205.216 111.618 205.216ZM118.994 206.126C118.509 206.126 118.079 206.037 117.706 205.86C117.333 205.683 117.039 205.44 116.824 205.132C116.619 204.815 116.516 204.451 116.516 204.04C116.516 203.629 116.623 203.275 116.838 202.976C117.053 202.668 117.351 202.43 117.734 202.262C118.117 202.094 118.565 202.01 119.078 202.01C119.47 202.01 119.839 202.052 120.184 202.136C120.539 202.22 120.865 202.355 121.164 202.542V201.604C121.164 201.044 121.015 200.624 120.716 200.344C120.417 200.055 119.979 199.91 119.4 199.91C119.083 199.91 118.756 199.957 118.42 200.05C118.093 200.143 117.729 200.293 117.328 200.498L116.95 199.714C117.865 199.275 118.723 199.056 119.526 199.056C120.375 199.056 121.029 199.266 121.486 199.686C121.943 200.097 122.172 200.689 122.172 201.464V206H121.164V205.202C120.865 205.51 120.534 205.743 120.17 205.902C119.806 206.051 119.414 206.126 118.994 206.126ZM117.496 204.012C117.496 204.413 117.65 204.735 117.958 204.978C118.275 205.221 118.691 205.342 119.204 205.342C119.587 205.342 119.937 205.277 120.254 205.146C120.581 205.015 120.884 204.819 121.164 204.558V203.242C120.875 203.074 120.576 202.953 120.268 202.878C119.96 202.794 119.615 202.752 119.232 202.752C118.709 202.752 118.289 202.869 117.972 203.102C117.655 203.326 117.496 203.629 117.496 204.012ZM127.315 206.112C126.681 206.112 126.107 205.958 125.593 205.65C125.089 205.333 124.688 204.908 124.389 204.376C124.091 203.835 123.941 203.237 123.941 202.584C123.941 201.921 124.091 201.324 124.389 200.792C124.688 200.26 125.089 199.84 125.593 199.532C126.107 199.215 126.681 199.056 127.315 199.056C127.819 199.056 128.3 199.149 128.757 199.336C129.215 199.523 129.611 199.784 129.947 200.12L129.289 200.834C129.047 200.563 128.753 200.353 128.407 200.204C128.062 200.055 127.712 199.98 127.357 199.98C126.909 199.98 126.503 200.097 126.139 200.33C125.785 200.563 125.5 200.876 125.285 201.268C125.071 201.66 124.963 202.099 124.963 202.584C124.963 203.069 125.071 203.508 125.285 203.9C125.5 204.292 125.785 204.605 126.139 204.838C126.503 205.071 126.909 205.188 127.357 205.188C127.712 205.188 128.062 205.113 128.407 204.964C128.753 204.805 129.047 204.595 129.289 204.334L129.947 205.048C129.611 205.384 129.215 205.645 128.757 205.832C128.3 206.019 127.819 206.112 127.315 206.112ZM134.247 206.14C133.613 206.14 133.039 205.986 132.525 205.678C132.012 205.361 131.606 204.936 131.307 204.404C131.009 203.863 130.859 203.256 130.859 202.584C130.859 201.912 130.999 201.31 131.279 200.778C131.569 200.246 131.956 199.826 132.441 199.518C132.927 199.21 133.468 199.056 134.065 199.056C134.672 199.056 135.209 199.21 135.675 199.518C136.151 199.817 136.525 200.227 136.795 200.75C137.075 201.263 137.215 201.847 137.215 202.5V202.808H131.853C131.891 203.275 132.017 203.695 132.231 204.068C132.455 204.432 132.745 204.721 133.099 204.936C133.463 205.141 133.86 205.244 134.289 205.244C134.644 205.244 134.985 205.183 135.311 205.062C135.647 204.931 135.932 204.759 136.165 204.544L136.809 205.23C136.417 205.538 136.011 205.767 135.591 205.916C135.171 206.065 134.723 206.14 134.247 206.14ZM131.881 202.08H136.207C136.161 201.669 136.035 201.305 135.829 200.988C135.633 200.661 135.381 200.405 135.073 200.218C134.775 200.031 134.439 199.938 134.065 199.938C133.692 199.938 133.351 200.031 133.043 200.218C132.735 200.395 132.479 200.647 132.273 200.974C132.077 201.291 131.947 201.66 131.881 202.08Z" fill="#151515"/>
<path d="M68.41 243.154C67.6447 243.154 66.9353 243.019 66.282 242.748C65.6287 242.468 64.9987 242.048 64.392 241.488L65.05 240.704C65.638 241.255 66.1887 241.647 66.702 241.88C67.2247 242.113 67.8033 242.23 68.438 242.23C68.942 242.23 69.39 242.146 69.782 241.978C70.1833 241.801 70.496 241.563 70.72 241.264C70.944 240.965 71.056 240.625 71.056 240.242C71.056 239.747 70.8927 239.374 70.566 239.122C70.2393 238.861 69.6747 238.66 68.872 238.52L67.29 238.254C66.394 238.095 65.736 237.825 65.316 237.442C64.9053 237.05 64.7 236.527 64.7 235.874C64.7 235.323 64.84 234.838 65.12 234.418C65.4093 233.989 65.806 233.653 66.31 233.41C66.814 233.167 67.3973 233.046 68.06 233.046C68.788 233.046 69.4647 233.149 70.09 233.354C70.7153 233.55 71.3313 233.863 71.938 234.292L71.378 235.132C70.874 234.749 70.342 234.46 69.782 234.264C69.222 234.059 68.6527 233.956 68.074 233.956C67.6167 233.956 67.2107 234.035 66.856 234.194C66.5107 234.353 66.2353 234.567 66.03 234.838C65.834 235.109 65.736 235.417 65.736 235.762C65.736 236.191 65.8807 236.527 66.17 236.77C66.4593 237.013 66.9307 237.185 67.584 237.288L69.152 237.554C70.1973 237.741 70.9533 238.044 71.42 238.464C71.896 238.875 72.134 239.449 72.134 240.186C72.134 240.755 71.9707 241.264 71.644 241.712C71.3267 242.16 70.888 242.515 70.328 242.776C69.768 243.028 69.1287 243.154 68.41 243.154ZM76.1716 243.14C75.5836 243.14 75.1356 243 74.8276 242.72C74.5289 242.431 74.3796 242.015 74.3796 241.474V237.008H72.9656V236.168H74.3796V234.292L75.4016 234.054V236.168H77.3616V237.008H75.4016V241.208C75.4016 241.572 75.4762 241.833 75.6256 241.992C75.7842 242.151 76.0409 242.23 76.3956 242.23C76.5729 242.23 76.7316 242.216 76.8716 242.188C77.0116 242.16 77.1749 242.113 77.3616 242.048V242.958C77.1749 243.023 76.9789 243.07 76.7736 243.098C76.5682 243.126 76.3676 243.14 76.1716 243.14ZM80.9726 243.126C80.4873 243.126 80.0579 243.037 79.6846 242.86C79.3113 242.683 79.0173 242.44 78.8026 242.132C78.5973 241.815 78.4946 241.451 78.4946 241.04C78.4946 240.629 78.6019 240.275 78.8166 239.976C79.0313 239.668 79.3299 239.43 79.7126 239.262C80.0953 239.094 80.5433 239.01 81.0566 239.01C81.4486 239.01 81.8173 239.052 82.1626 239.136C82.5173 239.22 82.8439 239.355 83.1426 239.542V238.604C83.1426 238.044 82.9933 237.624 82.6946 237.344C82.3959 237.055 81.9573 236.91 81.3786 236.91C81.0613 236.91 80.7346 236.957 80.3986 237.05C80.0719 237.143 79.7079 237.293 79.3066 237.498L78.9286 236.714C79.8433 236.275 80.7019 236.056 81.5046 236.056C82.3539 236.056 83.0073 236.266 83.4646 236.686C83.9219 237.097 84.1506 237.689 84.1506 238.464V243H83.1426V242.202C82.8439 242.51 82.5126 242.743 82.1486 242.902C81.7846 243.051 81.3926 243.126 80.9726 243.126ZM79.4746 241.012C79.4746 241.413 79.6286 241.735 79.9366 241.978C80.2539 242.221 80.6693 242.342 81.1826 242.342C81.5653 242.342 81.9153 242.277 82.2326 242.146C82.5593 242.015 82.8626 241.819 83.1426 241.558V240.242C82.8533 240.074 82.5546 239.953 82.2466 239.878C81.9386 239.794 81.5933 239.752 81.2106 239.752C80.6879 239.752 80.2679 239.869 79.9506 240.102C79.6333 240.326 79.4746 240.629 79.4746 241.012ZM88.6267 243.14C88.0387 243.14 87.5907 243 87.2827 242.72C86.984 242.431 86.8347 242.015 86.8347 241.474V237.008H85.4207V236.168H86.8347V234.292L87.8567 234.054V236.168H89.8167V237.008H87.8567V241.208C87.8567 241.572 87.9313 241.833 88.0807 241.992C88.2393 242.151 88.496 242.23 88.8507 242.23C89.028 242.23 89.1867 242.216 89.3267 242.188C89.4667 242.16 89.63 242.113 89.8167 242.048V242.958C89.63 243.023 89.434 243.07 89.2287 243.098C89.0233 243.126 88.8227 243.14 88.6267 243.14ZM93.7497 243.112C93.2643 243.112 92.835 243.005 92.4617 242.79C92.0883 242.575 91.7943 242.277 91.5797 241.894C91.3743 241.511 91.2717 241.073 91.2717 240.578V236.168H92.3077V240.284C92.3077 240.891 92.471 241.371 92.7977 241.726C93.1243 242.081 93.5677 242.258 94.1277 242.258C94.5103 242.258 94.851 242.169 95.1497 241.992C95.4577 241.815 95.7143 241.558 95.9197 241.222V236.168H96.9417V243H95.9197V241.894C95.6583 242.295 95.3457 242.599 94.9817 242.804C94.627 243.009 94.2163 243.112 93.7497 243.112ZM101.152 243.14C100.592 243.14 100.074 243.056 99.5983 242.888C99.1223 242.711 98.7163 242.459 98.3803 242.132L98.9263 241.46C99.3369 241.759 99.7149 241.978 100.06 242.118C100.406 242.249 100.76 242.314 101.124 242.314C101.619 242.314 102.03 242.197 102.356 241.964C102.683 241.731 102.846 241.432 102.846 241.068C102.846 240.788 102.748 240.569 102.552 240.41C102.366 240.251 102.053 240.13 101.614 240.046L100.494 239.85C99.8316 239.729 99.3416 239.523 99.0243 239.234C98.7163 238.945 98.5623 238.553 98.5623 238.058C98.5623 237.666 98.6649 237.321 98.8703 237.022C99.0849 236.723 99.3789 236.49 99.7523 236.322C100.126 236.145 100.55 236.056 101.026 236.056C101.493 236.056 101.936 236.126 102.356 236.266C102.776 236.397 103.201 236.611 103.63 236.91L103.126 237.624C102.772 237.372 102.417 237.19 102.062 237.078C101.708 236.957 101.348 236.896 100.984 236.896C100.536 236.896 100.177 236.994 99.9063 237.19C99.6356 237.386 99.5003 237.652 99.5003 237.988C99.5003 238.268 99.5843 238.483 99.7523 238.632C99.9296 238.781 100.238 238.893 100.676 238.968L101.824 239.178C102.515 239.299 103.019 239.509 103.336 239.808C103.654 240.107 103.812 240.508 103.812 241.012C103.812 241.413 103.696 241.777 103.462 242.104C103.229 242.421 102.912 242.673 102.51 242.86C102.109 243.047 101.656 243.14 101.152 243.14Z" fill="#151515"/>
</g>
<mask id="path-13-inside-1_1206_6547" fill="white">
<path fill-rule="evenodd" clip-rule="evenodd" d="M118.465 133.195C117.131 132.425 115.465 133.387 115.465 134.927L115.465 148.934C115.465 150.473 117.131 151.436 118.465 150.666L122.105 148.565L123.743 151.402C124.295 152.359 125.518 152.686 126.475 152.134L128.278 151.093C129.235 150.541 129.562 149.318 129.01 148.361L127.372 145.523L130.595 143.663C131.928 142.893 131.928 140.968 130.595 140.198L118.465 133.195Z"/>
</mask>
<path fill-rule="evenodd" clip-rule="evenodd" d="M118.465 133.195C117.131 132.425 115.465 133.387 115.465 134.927L115.465 148.934C115.465 150.473 117.131 151.436 118.465 150.666L122.105 148.565L123.743 151.402C124.295 152.359 125.518 152.686 126.475 152.134L128.278 151.093C129.235 150.541 129.562 149.318 129.01 148.361L127.372 145.523L130.595 143.663C131.928 142.893 131.928 140.968 130.595 140.198L118.465 133.195Z" fill="#FF00FF"/>
<path d="M115.465 134.927L114.465 134.927V134.927L115.465 134.927ZM118.465 133.195L118.965 132.329L118.965 132.329L118.465 133.195ZM115.465 148.934L116.465 148.934V148.934L115.465 148.934ZM122.105 148.565L122.971 148.065L122.471 147.199L121.605 147.699L122.105 148.565ZM123.743 151.402L124.609 150.902L123.743 151.402ZM129.01 148.361L128.144 148.861L129.01 148.361ZM127.372 145.523L126.872 144.657L126.006 145.157L126.506 146.023L127.372 145.523ZM130.595 140.198L130.095 141.064L130.095 141.064L130.595 140.198ZM115.465 134.927L116.465 134.927C116.465 134.157 117.298 133.676 117.965 134.061L118.465 133.195L118.965 132.329C116.965 131.174 114.465 132.618 114.465 134.927L115.465 134.927ZM115.465 148.934L116.465 148.934L116.465 134.927L115.465 134.927L114.465 134.927L114.465 148.934L115.465 148.934ZM118.465 150.666L117.965 149.8C117.298 150.185 116.465 149.704 116.465 148.934L115.465 148.934L114.465 148.934C114.465 151.243 116.965 152.687 118.965 151.532L118.465 150.666ZM122.105 148.565L121.605 147.699L117.965 149.8L118.465 150.666L118.965 151.532L122.605 149.431L122.105 148.565ZM123.743 151.402L124.609 150.902L122.971 148.065L122.105 148.565L121.238 149.065L122.877 151.902L123.743 151.402ZM126.475 152.134L125.975 151.268C125.497 151.544 124.885 151.38 124.609 150.902L123.743 151.402L122.877 151.902C123.705 153.337 125.54 153.829 126.975 153L126.475 152.134ZM128.278 151.093L127.778 150.227L125.975 151.268L126.475 152.134L126.975 153L128.778 151.959L128.278 151.093ZM129.01 148.361L128.144 148.861C128.42 149.339 128.256 149.951 127.778 150.227L128.278 151.093L128.778 151.959C130.213 151.131 130.705 149.296 129.876 147.861L129.01 148.361ZM127.372 145.523L126.506 146.023L128.144 148.861L129.01 148.361L129.876 147.861L128.238 145.023L127.372 145.523ZM130.595 143.663L130.095 142.796L126.872 144.657L127.372 145.523L127.872 146.389L131.095 144.529L130.595 143.663ZM130.595 140.198L130.095 141.064C130.762 141.449 130.762 142.412 130.095 142.796L130.595 143.663L131.095 144.529C133.095 143.374 133.095 140.487 131.095 139.332L130.595 140.198ZM118.465 133.195L117.965 134.061L130.095 141.064L130.595 140.198L131.095 139.332L118.965 132.329L118.465 133.195Z" fill="#FF00FF" mask="url(#path-13-inside-1_1206_6547)"/>
<path d="M87 331.5H205C211.904 331.5 217.5 337.096 217.5 344C217.5 350.904 211.904 356.5 205 356.5H87C80.0964 356.5 74.5 350.904 74.5 344C74.5 337.096 80.0964 331.5 87 331.5Z" stroke="#C7C7C7"/>
<path d="M86.944 348.132C86.344 348.132 85.784 348.024 85.264 347.808C84.752 347.584 84.3 347.276 83.908 346.884C83.516 346.484 83.212 346.024 82.996 345.504C82.78 344.976 82.672 344.408 82.672 343.8C82.672 343.192 82.78 342.628 82.996 342.108C83.212 341.58 83.516 341.12 83.908 340.728C84.3 340.328 84.752 340.02 85.264 339.804C85.784 339.58 86.344 339.468 86.944 339.468C87.36 339.468 87.756 339.524 88.132 339.636C88.516 339.74 88.876 339.896 89.212 340.104C89.548 340.304 89.848 340.552 90.112 340.848L89.5 341.484C89.188 341.108 88.804 340.82 88.348 340.62C87.9 340.412 87.432 340.308 86.944 340.308C86.472 340.308 86.032 340.396 85.624 340.572C85.216 340.748 84.86 340.996 84.556 341.316C84.26 341.636 84.028 342.008 83.86 342.432C83.692 342.848 83.608 343.304 83.608 343.8C83.608 344.288 83.692 344.744 83.86 345.168C84.028 345.592 84.26 345.964 84.556 346.284C84.86 346.604 85.216 346.852 85.624 347.028C86.032 347.204 86.472 347.292 86.944 347.292C87.432 347.292 87.9 347.188 88.348 346.98C88.804 346.772 89.188 346.484 89.5 346.116L90.112 346.752C89.848 347.048 89.548 347.3 89.212 347.508C88.876 347.708 88.516 347.864 88.132 347.976C87.756 348.08 87.36 348.132 86.944 348.132ZM91.607 348V339.336L92.483 339.156V348H91.607ZM96.3669 348.096C95.9509 348.096 95.5829 348.004 95.2629 347.82C94.9429 347.636 94.6909 347.38 94.5069 347.052C94.3309 346.724 94.2429 346.348 94.2429 345.924V342.144H95.1309V345.672C95.1309 346.192 95.2709 346.604 95.5509 346.908C95.8309 347.212 96.2109 347.364 96.6909 347.364C97.0189 347.364 97.3109 347.288 97.5669 347.136C97.8309 346.984 98.0509 346.764 98.2269 346.476V342.144H99.1029V348H98.2269V347.052C98.0029 347.396 97.7349 347.656 97.4229 347.832C97.1189 348.008 96.7669 348.096 96.3669 348.096ZM102.712 348.12C102.232 348.12 101.788 348.048 101.38 347.904C100.972 347.752 100.624 347.536 100.336 347.256L100.804 346.68C101.156 346.936 101.48 347.124 101.776 347.244C102.072 347.356 102.376 347.412 102.688 347.412C103.112 347.412 103.464 347.312 103.744 347.112C104.024 346.912 104.164 346.656 104.164 346.344C104.164 346.104 104.08 345.916 103.912 345.78C103.752 345.644 103.484 345.54 103.108 345.468L102.148 345.3C101.58 345.196 101.16 345.02 100.888 344.772C100.624 344.524 100.492 344.188 100.492 343.764C100.492 343.428 100.58 343.132 100.756 342.876C100.94 342.62 101.192 342.42 101.512 342.276C101.832 342.124 102.196 342.048 102.604 342.048C103.004 342.048 103.384 342.108 103.744 342.228C104.104 342.34 104.468 342.524 104.836 342.78L104.404 343.392C104.1 343.176 103.796 343.02 103.492 342.924C103.188 342.82 102.88 342.768 102.568 342.768C102.184 342.768 101.876 342.852 101.644 343.02C101.412 343.188 101.296 343.416 101.296 343.704C101.296 343.944 101.368 344.128 101.512 344.256C101.664 344.384 101.928 344.48 102.304 344.544L103.288 344.724C103.88 344.828 104.312 345.008 104.584 345.264C104.856 345.52 104.992 345.864 104.992 346.296C104.992 346.64 104.892 346.952 104.692 347.232C104.492 347.504 104.22 347.72 103.876 347.88C103.532 348.04 103.144 348.12 102.712 348.12ZM108.441 348.12C107.937 348.12 107.553 348 107.289 347.76C107.033 347.512 106.905 347.156 106.905 346.692V342.864H105.693V342.144H106.905V340.536L107.781 340.332V342.144H109.461V342.864H107.781V346.464C107.781 346.776 107.845 347 107.973 347.136C108.109 347.272 108.329 347.34 108.633 347.34C108.785 347.34 108.921 347.328 109.041 347.304C109.161 347.28 109.301 347.24 109.461 347.184V347.964C109.301 348.02 109.133 348.06 108.957 348.084C108.781 348.108 108.609 348.12 108.441 348.12ZM113.267 348.12C112.723 348.12 112.231 347.988 111.791 347.724C111.351 347.452 111.003 347.088 110.747 346.632C110.491 346.168 110.363 345.648 110.363 345.072C110.363 344.496 110.483 343.98 110.723 343.524C110.971 343.068 111.303 342.708 111.719 342.444C112.135 342.18 112.599 342.048 113.111 342.048C113.631 342.048 114.091 342.18 114.491 342.444C114.899 342.7 115.219 343.052 115.451 343.5C115.691 343.94 115.811 344.44 115.811 345V345.264H111.215C111.247 345.664 111.355 346.024 111.539 346.344C111.731 346.656 111.979 346.904 112.283 347.088C112.595 347.264 112.935 347.352 113.303 347.352C113.607 347.352 113.899 347.3 114.179 347.196C114.467 347.084 114.711 346.936 114.911 346.752L115.463 347.34C115.127 347.604 114.779 347.8 114.419 347.928C114.059 348.056 113.675 348.12 113.267 348.12ZM111.239 344.64H114.947C114.907 344.288 114.799 343.976 114.623 343.704C114.455 343.424 114.239 343.204 113.975 343.044C113.719 342.884 113.431 342.804 113.111 342.804C112.791 342.804 112.499 342.884 112.235 343.044C111.971 343.196 111.751 343.412 111.575 343.692C111.407 343.964 111.295 344.28 111.239 344.64ZM117.306 348V342.144H118.182V343.344C118.334 342.936 118.55 342.62 118.83 342.396C119.118 342.164 119.446 342.048 119.814 342.048C119.918 342.048 120.014 342.056 120.102 342.072C120.19 342.08 120.278 342.1 120.366 342.132V342.924C120.27 342.892 120.166 342.868 120.054 342.852C119.95 342.828 119.85 342.816 119.754 342.816C119.394 342.816 119.078 342.92 118.806 343.128C118.542 343.336 118.334 343.628 118.182 344.004V348H117.306ZM122.125 348.096C121.949 348.096 121.797 348.032 121.669 347.904C121.549 347.776 121.489 347.624 121.489 347.448C121.489 347.264 121.549 347.112 121.669 346.992C121.797 346.864 121.949 346.8 122.125 346.8C122.301 346.8 122.449 346.864 122.569 346.992C122.697 347.112 122.761 347.264 122.761 347.448C122.761 347.624 122.697 347.776 122.569 347.904C122.449 348.032 122.301 348.096 122.125 348.096ZM122.125 343.332C121.949 343.332 121.797 343.268 121.669 343.14C121.549 343.012 121.489 342.86 121.489 342.684C121.489 342.5 121.549 342.348 121.669 342.228C121.797 342.1 121.949 342.036 122.125 342.036C122.301 342.036 122.449 342.1 122.569 342.228C122.697 342.348 122.761 342.5 122.761 342.684C122.761 342.86 122.697 343.012 122.569 343.14C122.449 343.268 122.301 343.332 122.125 343.332ZM124.525 348V339.336L125.401 339.156V348H124.525ZM129.789 348.096C129.245 348.096 128.757 347.964 128.325 347.7C127.893 347.436 127.553 347.076 127.305 346.62C127.057 346.164 126.933 345.648 126.933 345.072C126.933 344.496 127.057 343.98 127.305 343.524C127.553 343.068 127.893 342.708 128.325 342.444C128.757 342.18 129.245 342.048 129.789 342.048C130.325 342.048 130.805 342.18 131.229 342.444C131.661 342.708 132.001 343.068 132.249 343.524C132.497 343.98 132.621 344.496 132.621 345.072C132.621 345.648 132.497 346.164 132.249 346.62C132.001 347.076 131.661 347.436 131.229 347.7C130.805 347.964 130.325 348.096 129.789 348.096ZM129.777 347.328C130.161 347.328 130.501 347.232 130.797 347.04C131.093 346.84 131.325 346.568 131.493 346.224C131.669 345.88 131.757 345.496 131.757 345.072C131.757 344.64 131.669 344.256 131.493 343.92C131.325 343.576 131.093 343.308 130.797 343.116C130.501 342.916 130.161 342.816 129.777 342.816C129.393 342.816 129.053 342.916 128.757 343.116C128.461 343.308 128.225 343.576 128.049 343.92C127.881 344.256 127.797 344.64 127.797 345.072C127.797 345.496 127.881 345.88 128.049 346.224C128.225 346.568 128.461 346.84 128.757 347.04C129.053 347.232 129.393 347.328 129.777 347.328ZM136.786 348.096C136.242 348.096 135.75 347.964 135.31 347.7C134.878 347.428 134.534 347.064 134.278 346.608C134.022 346.144 133.894 345.632 133.894 345.072C133.894 344.504 134.022 343.992 134.278 343.536C134.534 343.08 134.878 342.72 135.31 342.456C135.75 342.184 136.242 342.048 136.786 342.048C137.218 342.048 137.63 342.128 138.022 342.288C138.414 342.448 138.754 342.672 139.042 342.96L138.478 343.572C138.27 343.34 138.018 343.16 137.722 343.032C137.426 342.904 137.126 342.84 136.822 342.84C136.438 342.84 136.09 342.94 135.778 343.14C135.474 343.34 135.23 343.608 135.046 343.944C134.862 344.28 134.77 344.656 134.77 345.072C134.77 345.488 134.862 345.864 135.046 346.2C135.23 346.536 135.474 346.804 135.778 347.004C136.09 347.204 136.438 347.304 136.822 347.304C137.126 347.304 137.426 347.24 137.722 347.112C138.018 346.976 138.27 346.796 138.478 346.572L139.042 347.184C138.754 347.472 138.414 347.696 138.022 347.856C137.63 348.016 137.218 348.096 136.786 348.096ZM142.075 348.108C141.659 348.108 141.291 348.032 140.971 347.88C140.651 347.728 140.399 347.52 140.215 347.256C140.039 346.984 139.951 346.672 139.951 346.32C139.951 345.968 140.043 345.664 140.227 345.408C140.411 345.144 140.667 344.94 140.995 344.796C141.323 344.652 141.707 344.58 142.147 344.58C142.483 344.58 142.799 344.616 143.095 344.688C143.399 344.76 143.679 344.876 143.935 345.036V344.232C143.935 343.752 143.807 343.392 143.551 343.152C143.295 342.904 142.919 342.78 142.423 342.78C142.151 342.78 141.871 342.82 141.583 342.9C141.303 342.98 140.991 343.108 140.647 343.284L140.323 342.612C141.107 342.236 141.843 342.048 142.531 342.048C143.259 342.048 143.819 342.228 144.211 342.588C144.603 342.94 144.799 343.448 144.799 344.112V348H143.935V347.316C143.679 347.58 143.395 347.78 143.083 347.916C142.771 348.044 142.435 348.108 142.075 348.108ZM140.791 346.296C140.791 346.64 140.923 346.916 141.187 347.124C141.459 347.332 141.815 347.436 142.255 347.436C142.583 347.436 142.883 347.38 143.155 347.268C143.435 347.156 143.695 346.988 143.935 346.764V345.636C143.687 345.492 143.431 345.388 143.167 345.324C142.903 345.252 142.607 345.216 142.279 345.216C141.831 345.216 141.471 345.316 141.199 345.516C140.927 345.708 140.791 345.968 140.791 346.296ZM146.58 348V339.336L147.456 339.156V348H146.58ZM149.084 345V344.244H153.08V345H149.084ZM157.458 348.096C156.914 348.096 156.422 347.964 155.982 347.7C155.55 347.428 155.206 347.064 154.95 346.608C154.694 346.144 154.566 345.632 154.566 345.072C154.566 344.504 154.694 343.992 154.95 343.536C155.206 343.08 155.55 342.72 155.982 342.456C156.422 342.184 156.914 342.048 157.458 342.048C157.89 342.048 158.302 342.128 158.694 342.288C159.086 342.448 159.426 342.672 159.714 342.96L159.15 343.572C158.942 343.34 158.69 343.16 158.394 343.032C158.098 342.904 157.798 342.84 157.494 342.84C157.11 342.84 156.762 342.94 156.45 343.14C156.146 343.34 155.902 343.608 155.718 343.944C155.534 344.28 155.442 344.656 155.442 345.072C155.442 345.488 155.534 345.864 155.718 346.2C155.902 346.536 156.146 346.804 156.45 347.004C156.762 347.204 157.11 347.304 157.494 347.304C157.798 347.304 158.098 347.24 158.394 347.112C158.69 346.976 158.942 346.796 159.15 346.572L159.714 347.184C159.426 347.472 159.086 347.696 158.694 347.856C158.302 348.016 157.89 348.096 157.458 348.096ZM160.935 348V339.336L161.811 339.156V348H160.935ZM165.695 348.096C165.279 348.096 164.911 348.004 164.591 347.82C164.271 347.636 164.019 347.38 163.835 347.052C163.659 346.724 163.571 346.348 163.571 345.924V342.144H164.459V345.672C164.459 346.192 164.599 346.604 164.879 346.908C165.159 347.212 165.539 347.364 166.019 347.364C166.347 347.364 166.639 347.288 166.895 347.136C167.159 346.984 167.379 346.764 167.555 346.476V342.144H168.431V348H167.555V347.052C167.331 347.396 167.063 347.656 166.751 347.832C166.447 348.008 166.095 348.096 165.695 348.096ZM172.04 348.12C171.56 348.12 171.116 348.048 170.708 347.904C170.3 347.752 169.952 347.536 169.664 347.256L170.132 346.68C170.484 346.936 170.808 347.124 171.104 347.244C171.4 347.356 171.704 347.412 172.016 347.412C172.44 347.412 172.792 347.312 173.072 347.112C173.352 346.912 173.492 346.656 173.492 346.344C173.492 346.104 173.408 345.916 173.24 345.78C173.08 345.644 172.812 345.54 172.436 345.468L171.476 345.3C170.908 345.196 170.488 345.02 170.216 344.772C169.952 344.524 169.82 344.188 169.82 343.764C169.82 343.428 169.908 343.132 170.084 342.876C170.268 342.62 170.52 342.42 170.84 342.276C171.16 342.124 171.524 342.048 171.932 342.048C172.332 342.048 172.712 342.108 173.072 342.228C173.432 342.34 173.796 342.524 174.164 342.78L173.732 343.392C173.428 343.176 173.124 343.02 172.82 342.924C172.516 342.82 172.208 342.768 171.896 342.768C171.512 342.768 171.204 342.852 170.972 343.02C170.74 343.188 170.624 343.416 170.624 343.704C170.624 343.944 170.696 344.128 170.84 344.256C170.992 344.384 171.256 344.48 171.632 344.544L172.616 344.724C173.208 344.828 173.64 345.008 173.912 345.264C174.184 345.52 174.32 345.864 174.32 346.296C174.32 346.64 174.22 346.952 174.02 347.232C173.82 347.504 173.548 347.72 173.204 347.88C172.86 348.04 172.472 348.12 172.04 348.12ZM177.769 348.12C177.265 348.12 176.881 348 176.617 347.76C176.361 347.512 176.233 347.156 176.233 346.692V342.864H175.021V342.144H176.233V340.536L177.109 340.332V342.144H178.789V342.864H177.109V346.464C177.109 346.776 177.173 347 177.301 347.136C177.437 347.272 177.657 347.34 177.961 347.34C178.113 347.34 178.249 347.328 178.369 347.304C178.489 347.28 178.629 347.24 178.789 347.184V347.964C178.629 348.02 178.461 348.06 178.285 348.084C178.109 348.108 177.937 348.12 177.769 348.12ZM182.595 348.12C182.051 348.12 181.559 347.988 181.119 347.724C180.679 347.452 180.331 347.088 180.075 346.632C179.819 346.168 179.691 345.648 179.691 345.072C179.691 344.496 179.811 343.98 180.051 343.524C180.299 343.068 180.631 342.708 181.047 342.444C181.463 342.18 181.927 342.048 182.439 342.048C182.959 342.048 183.419 342.18 183.819 342.444C184.227 342.7 184.547 343.052 184.779 343.5C185.019 343.94 185.139 344.44 185.139 345V345.264H180.543C180.575 345.664 180.683 346.024 180.867 346.344C181.059 346.656 181.307 346.904 181.611 347.088C181.923 347.264 182.263 347.352 182.631 347.352C182.935 347.352 183.227 347.3 183.507 347.196C183.795 347.084 184.039 346.936 184.239 346.752L184.791 347.34C184.455 347.604 184.107 347.8 183.747 347.928C183.387 348.056 183.003 348.12 182.595 348.12ZM180.567 344.64H184.275C184.235 344.288 184.127 343.976 183.951 343.704C183.783 343.424 183.567 343.204 183.303 343.044C183.047 342.884 182.759 342.804 182.439 342.804C182.119 342.804 181.827 342.884 181.563 343.044C181.299 343.196 181.079 343.412 180.903 343.692C180.735 343.964 180.623 344.28 180.567 344.64ZM186.634 348V342.144H187.51V343.344C187.662 342.936 187.878 342.62 188.158 342.396C188.446 342.164 188.774 342.048 189.142 342.048C189.246 342.048 189.342 342.056 189.43 342.072C189.518 342.08 189.606 342.1 189.694 342.132V342.924C189.598 342.892 189.494 342.868 189.382 342.852C189.278 342.828 189.178 342.816 189.082 342.816C188.722 342.816 188.406 342.92 188.134 343.128C187.87 343.336 187.662 343.628 187.51 344.004V348H186.634Z" fill="#151515"/>
<path d="M204.274 340.209C204.554 339.93 205.006 339.93 205.285 340.209L205.791 340.715C206.07 340.994 206.07 341.447 205.791 341.726L203.516 344L205.791 346.274C206.07 346.554 206.07 347.006 205.791 347.285L205.285 347.791C205.006 348.07 204.553 348.07 204.274 347.791L202 345.517L199.725 347.791C199.446 348.07 198.994 348.07 198.715 347.791L198.209 347.285C197.93 347.006 197.93 346.553 198.209 346.274L200.483 344L198.209 341.726C197.93 341.446 197.93 340.994 198.209 340.715L198.715 340.209C198.994 339.93 199.446 339.93 199.725 340.209L202 342.483L204.274 340.209Z" fill="#1F1F1F"/>
<path d="M235 331.5H302C308.904 331.5 314.5 337.096 314.5 344C314.5 350.904 308.904 356.5 302 356.5H235C228.096 356.5 222.5 350.904 222.5 344C222.5 337.096 228.096 331.5 235 331.5Z" stroke="#C7C7C7"/>
<path d="M233.78 348.132C233.124 348.132 232.516 348.016 231.956 347.784C231.396 347.544 230.856 347.184 230.336 346.704L230.9 346.032C231.404 346.504 231.876 346.84 232.316 347.04C232.764 347.24 233.26 347.34 233.804 347.34C234.236 347.34 234.62 347.268 234.956 347.124C235.3 346.972 235.568 346.768 235.76 346.512C235.952 346.256 236.048 345.964 236.048 345.636C236.048 345.212 235.908 344.892 235.628 344.676C235.348 344.452 234.864 344.28 234.176 344.16L232.82 343.932C232.052 343.796 231.488 343.564 231.128 343.236C230.776 342.9 230.6 342.452 230.6 341.892C230.6 341.42 230.72 341.004 230.96 340.644C231.208 340.276 231.548 339.988 231.98 339.78C232.412 339.572 232.912 339.468 233.48 339.468C234.104 339.468 234.684 339.556 235.22 339.732C235.756 339.9 236.284 340.168 236.804 340.536L236.324 341.256C235.892 340.928 235.436 340.68 234.956 340.512C234.476 340.336 233.988 340.248 233.492 340.248C233.1 340.248 232.752 340.316 232.448 340.452C232.152 340.588 231.916 340.772 231.74 341.004C231.572 341.236 231.488 341.5 231.488 341.796C231.488 342.164 231.612 342.452 231.86 342.66C232.108 342.868 232.512 343.016 233.072 343.104L234.416 343.332C235.312 343.492 235.96 343.752 236.36 344.112C236.768 344.464 236.972 344.956 236.972 345.588C236.972 346.076 236.832 346.512 236.552 346.896C236.28 347.28 235.904 347.584 235.424 347.808C234.944 348.024 234.396 348.132 233.78 348.132ZM240.433 348.12C239.929 348.12 239.545 348 239.281 347.76C239.025 347.512 238.897 347.156 238.897 346.692V342.864H237.685V342.144H238.897V340.536L239.773 340.332V342.144H241.453V342.864H239.773V346.464C239.773 346.776 239.837 347 239.965 347.136C240.101 347.272 240.321 347.34 240.625 347.34C240.777 347.34 240.913 347.328 241.033 347.304C241.153 347.28 241.293 347.24 241.453 347.184V347.964C241.293 348.02 241.125 348.06 240.949 348.084C240.773 348.108 240.601 348.12 240.433 348.12ZM244.548 348.108C244.132 348.108 243.764 348.032 243.444 347.88C243.124 347.728 242.872 347.52 242.688 347.256C242.512 346.984 242.424 346.672 242.424 346.32C242.424 345.968 242.516 345.664 242.7 345.408C242.884 345.144 243.14 344.94 243.468 344.796C243.796 344.652 244.18 344.58 244.62 344.58C244.956 344.58 245.272 344.616 245.568 344.688C245.872 344.76 246.152 344.876 246.408 345.036V344.232C246.408 343.752 246.28 343.392 246.024 343.152C245.768 342.904 245.392 342.78 244.896 342.78C244.624 342.78 244.344 342.82 244.056 342.9C243.776 342.98 243.464 343.108 243.12 343.284L242.796 342.612C243.58 342.236 244.316 342.048 245.004 342.048C245.732 342.048 246.292 342.228 246.684 342.588C247.076 342.94 247.272 343.448 247.272 344.112V348H246.408V347.316C246.152 347.58 245.868 347.78 245.556 347.916C245.244 348.044 244.908 348.108 244.548 348.108ZM243.264 346.296C243.264 346.64 243.396 346.916 243.66 347.124C243.932 347.332 244.288 347.436 244.728 347.436C245.056 347.436 245.356 347.38 245.628 347.268C245.908 347.156 246.168 346.988 246.408 346.764V345.636C246.16 345.492 245.904 345.388 245.64 345.324C245.376 345.252 245.08 345.216 244.752 345.216C244.304 345.216 243.944 345.316 243.672 345.516C243.4 345.708 243.264 345.968 243.264 346.296ZM251.109 348.12C250.605 348.12 250.221 348 249.957 347.76C249.701 347.512 249.573 347.156 249.573 346.692V342.864H248.361V342.144H249.573V340.536L250.449 340.332V342.144H252.129V342.864H250.449V346.464C250.449 346.776 250.513 347 250.641 347.136C250.777 347.272 250.997 347.34 251.301 347.34C251.453 347.34 251.589 347.328 251.709 347.304C251.829 347.28 251.969 347.24 252.129 347.184V347.964C251.969 348.02 251.801 348.06 251.625 348.084C251.449 348.108 251.277 348.12 251.109 348.12ZM255.5 348.096C255.084 348.096 254.716 348.004 254.396 347.82C254.076 347.636 253.824 347.38 253.64 347.052C253.464 346.724 253.376 346.348 253.376 345.924V342.144H254.264V345.672C254.264 346.192 254.404 346.604 254.684 346.908C254.964 347.212 255.344 347.364 255.824 347.364C256.152 347.364 256.444 347.288 256.7 347.136C256.964 346.984 257.184 346.764 257.36 346.476V342.144H258.236V348H257.36V347.052C257.136 347.396 256.868 347.656 256.556 347.832C256.252 348.008 255.9 348.096 255.5 348.096ZM261.845 348.12C261.365 348.12 260.921 348.048 260.513 347.904C260.105 347.752 259.757 347.536 259.469 347.256L259.937 346.68C260.289 346.936 260.613 347.124 260.909 347.244C261.205 347.356 261.509 347.412 261.821 347.412C262.245 347.412 262.597 347.312 262.877 347.112C263.157 346.912 263.297 346.656 263.297 346.344C263.297 346.104 263.213 345.916 263.045 345.78C262.885 345.644 262.617 345.54 262.241 345.468L261.281 345.3C260.713 345.196 260.293 345.02 260.021 344.772C259.757 344.524 259.625 344.188 259.625 343.764C259.625 343.428 259.713 343.132 259.889 342.876C260.073 342.62 260.325 342.42 260.645 342.276C260.965 342.124 261.329 342.048 261.737 342.048C262.137 342.048 262.517 342.108 262.877 342.228C263.237 342.34 263.601 342.524 263.969 342.78L263.537 343.392C263.233 343.176 262.929 343.02 262.625 342.924C262.321 342.82 262.013 342.768 261.701 342.768C261.317 342.768 261.009 342.852 260.777 343.02C260.545 343.188 260.429 343.416 260.429 343.704C260.429 343.944 260.501 344.128 260.645 344.256C260.797 344.384 261.061 344.48 261.437 344.544L262.421 344.724C263.013 344.828 263.445 345.008 263.717 345.264C263.989 345.52 264.125 345.864 264.125 346.296C264.125 346.64 264.025 346.952 263.825 347.232C263.625 347.504 263.353 347.72 263.009 347.88C262.665 348.04 262.277 348.12 261.845 348.12ZM266.059 348.096C265.883 348.096 265.731 348.032 265.603 347.904C265.483 347.776 265.423 347.624 265.423 347.448C265.423 347.264 265.483 347.112 265.603 346.992C265.731 346.864 265.883 346.8 266.059 346.8C266.235 346.8 266.383 346.864 266.503 346.992C266.631 347.112 266.695 347.264 266.695 347.448C266.695 347.624 266.631 347.776 266.503 347.904C266.383 348.032 266.235 348.096 266.059 348.096ZM266.059 343.332C265.883 343.332 265.731 343.268 265.603 343.14C265.483 343.012 265.423 342.86 265.423 342.684C265.423 342.5 265.483 342.348 265.603 342.228C265.731 342.1 265.883 342.036 266.059 342.036C266.235 342.036 266.383 342.1 266.503 342.228C266.631 342.348 266.695 342.5 266.695 342.684C266.695 342.86 266.631 343.012 266.503 343.14C266.383 343.268 266.235 343.332 266.059 343.332ZM268.447 348V342.144H269.323V348H268.447ZM268.891 340.692C268.715 340.692 268.563 340.632 268.435 340.512C268.315 340.384 268.255 340.236 268.255 340.068C268.255 339.9 268.315 339.756 268.435 339.636C268.563 339.508 268.715 339.444 268.891 339.444C269.067 339.444 269.215 339.508 269.335 339.636C269.463 339.756 269.527 339.9 269.527 340.068C269.527 340.236 269.463 340.384 269.335 340.512C269.215 340.632 269.067 340.692 268.891 340.692ZM273.555 348.084C273.051 348.084 272.595 347.952 272.187 347.688C271.779 347.416 271.455 347.056 271.215 346.608C270.975 346.152 270.855 345.644 270.855 345.084C270.855 344.516 270.975 344.008 271.215 343.56C271.463 343.104 271.795 342.744 272.211 342.48C272.627 342.208 273.091 342.072 273.603 342.072C273.963 342.072 274.299 342.144 274.611 342.288C274.923 342.424 275.195 342.624 275.427 342.888V339.336L276.303 339.156V348H275.427V347.22C275.203 347.5 274.931 347.716 274.611 347.868C274.291 348.012 273.939 348.084 273.555 348.084ZM273.771 347.316C274.115 347.316 274.431 347.248 274.719 347.112C275.007 346.976 275.243 346.784 275.427 346.536V343.632C275.235 343.384 274.991 343.192 274.695 343.056C274.407 342.912 274.099 342.84 273.771 342.84C273.379 342.84 273.027 342.936 272.715 343.128C272.411 343.32 272.167 343.584 271.983 343.92C271.807 344.256 271.719 344.64 271.719 345.072C271.719 345.496 271.807 345.88 271.983 346.224C272.167 346.56 272.411 346.828 272.715 347.028C273.027 347.22 273.379 347.316 273.771 347.316ZM278.103 348V339.336L278.979 339.156V348H278.103ZM283.415 348.12C282.871 348.12 282.379 347.988 281.939 347.724C281.499 347.452 281.151 347.088 280.895 346.632C280.639 346.168 280.511 345.648 280.511 345.072C280.511 344.496 280.631 343.98 280.871 343.524C281.119 343.068 281.451 342.708 281.867 342.444C282.283 342.18 282.747 342.048 283.259 342.048C283.779 342.048 284.239 342.18 284.639 342.444C285.047 342.7 285.367 343.052 285.599 343.5C285.839 343.94 285.959 344.44 285.959 345V345.264H281.363C281.395 345.664 281.503 346.024 281.687 346.344C281.879 346.656 282.127 346.904 282.431 347.088C282.743 347.264 283.083 347.352 283.451 347.352C283.755 347.352 284.047 347.3 284.327 347.196C284.615 347.084 284.859 346.936 285.059 346.752L285.611 347.34C285.275 347.604 284.927 347.8 284.567 347.928C284.207 348.056 283.823 348.12 283.415 348.12ZM281.387 344.64H285.095C285.055 344.288 284.947 343.976 284.771 343.704C284.603 343.424 284.387 343.204 284.123 343.044C283.867 342.884 283.579 342.804 283.259 342.804C282.939 342.804 282.647 342.884 282.383 343.044C282.119 343.196 281.899 343.412 281.723 343.692C281.555 343.964 281.443 344.28 281.387 344.64Z" fill="#151515"/>
<path d="M301.274 340.209C301.554 339.93 302.006 339.93 302.285 340.209L302.791 340.715C303.07 340.994 303.07 341.447 302.791 341.726L300.516 344L302.791 346.274C303.07 346.554 303.07 347.006 302.791 347.285L302.285 347.791C302.006 348.07 301.553 348.07 301.274 347.791L299 345.517L296.725 347.791C296.446 348.07 295.994 348.07 295.715 347.791L295.209 347.285C294.93 347.006 294.93 346.553 295.209 346.274L297.483 344L295.209 341.726C294.93 341.446 294.93 340.994 295.209 340.715L295.715 340.209C295.994 339.93 296.446 339.93 296.725 340.209L299 342.483L301.274 340.209Z" fill="#1F1F1F"/>
<defs>
<filter id="filter0_d_1206_6547" x="31" y="62" width="328" height="216" filterUnits="userSpaceOnUse" color-interpolation-filters="sRGB">
<feFlood flood-opacity="0" result="BackgroundImageFix"/>
<feColorMatrix in="SourceAlpha" type="matrix" values="0 0 0 0 0 0 0 0 0 0 0 0 0 0 0 0 0 0 127 0" result="hardAlpha"/>
<feOffset dy="4"/>
<feGaussianBlur stdDeviation="4.5"/>
<feColorMatrix type="matrix" values="0 0 0 0 0.160784 0 0 0 0 0.160784 0 0 0 0 0.160784 0 0 0 0.15 0"/>
<feBlend mode="normal" in2="BackgroundImageFix" result="effect1_dropShadow_1206_6547"/>
<feBlend mode="normal" in="SourceGraphic" in2="effect1_dropShadow_1206_6547" result="shape"/>
</filter>
</defs>
</svg>
