<svg width="850" height="139" viewBox="0 0 850 139" fill="none" xmlns="http://www.w3.org/2000/svg">
<rect width="850" height="139" fill="white"/>
<path d="M30.544 39.18C29.536 39.18 28.564 38.982 27.628 38.586C26.692 38.19 25.864 37.632 25.144 36.912L26.296 35.58C26.98 36.252 27.676 36.75 28.384 37.074C29.104 37.398 29.854 37.56 30.634 37.56C31.246 37.56 31.78 37.476 32.236 37.308C32.704 37.128 33.064 36.876 33.316 36.552C33.568 36.228 33.694 35.862 33.694 35.454C33.694 34.89 33.496 34.458 33.1 34.158C32.704 33.858 32.05 33.63 31.138 33.474L29.032 33.132C27.88 32.928 27.016 32.556 26.44 32.016C25.876 31.476 25.594 30.756 25.594 29.856C25.594 29.136 25.786 28.506 26.17 27.966C26.554 27.414 27.094 26.988 27.79 26.688C28.498 26.388 29.314 26.238 30.238 26.238C31.15 26.238 32.044 26.388 32.92 26.688C33.808 26.976 34.606 27.396 35.314 27.948L34.27 29.388C32.914 28.356 31.54 27.84 30.148 27.84C29.332 27.84 28.672 28.014 28.168 28.362C27.664 28.698 27.412 29.148 27.412 29.712C27.412 30.228 27.586 30.624 27.934 30.9C28.282 31.164 28.858 31.356 29.662 31.476L31.696 31.818C33.028 32.034 34.006 32.424 34.63 32.988C35.254 33.552 35.566 34.326 35.566 35.31C35.566 36.078 35.356 36.756 34.936 37.344C34.516 37.92 33.928 38.37 33.172 38.694C32.416 39.018 31.54 39.18 30.544 39.18ZM37.1011 39V26.4L38.9011 26.058V39H37.1011ZM41.021 39V29.838H42.821V39H41.021ZM41.921 28.362C41.621 28.362 41.363 28.254 41.147 28.038C40.931 27.81 40.823 27.546 40.823 27.246C40.823 26.934 40.931 26.676 41.147 26.472C41.363 26.256 41.621 26.148 41.921 26.148C42.233 26.148 42.497 26.256 42.713 26.472C42.929 26.676 43.037 26.934 43.037 27.246C43.037 27.546 42.929 27.81 42.713 28.038C42.497 28.254 42.233 28.362 41.921 28.362ZM49.1529 39.144C48.3009 39.144 47.5209 38.934 46.8129 38.514C46.1049 38.094 45.5469 37.53 45.1389 36.822C44.7309 36.102 44.5269 35.298 44.5269 34.41C44.5269 33.522 44.7309 32.724 45.1389 32.016C45.5589 31.308 46.1229 30.744 46.8309 30.324C47.5389 29.904 48.3249 29.694 49.1889 29.694C50.2209 29.694 51.1389 30 51.9429 30.612V26.4L53.7429 26.058V39H51.9609V38.118C51.1809 38.802 50.2449 39.144 49.1529 39.144ZM49.3869 37.578C49.9149 37.578 50.3949 37.482 50.8269 37.29C51.2709 37.098 51.6429 36.822 51.9429 36.462V32.34C51.6429 32.004 51.2709 31.74 50.8269 31.548C50.3829 31.344 49.9029 31.242 49.3869 31.242C48.8109 31.242 48.2889 31.38 47.8209 31.656C47.3529 31.932 46.9809 32.31 46.7049 32.79C46.4289 33.258 46.2909 33.792 46.2909 34.392C46.2909 34.992 46.4289 35.532 46.7049 36.012C46.9809 36.492 47.3529 36.876 47.8209 37.164C48.2889 37.44 48.8109 37.578 49.3869 37.578ZM60.2665 39.162C59.3665 39.162 58.5505 38.952 57.8185 38.532C57.0985 38.112 56.5225 37.542 56.0905 36.822C55.6705 36.102 55.4605 35.298 55.4605 34.41C55.4605 33.534 55.6645 32.742 56.0725 32.034C56.4805 31.314 57.0325 30.744 57.7285 30.324C58.4245 29.892 59.1985 29.676 60.0505 29.676C60.9025 29.676 61.6585 29.892 62.3185 30.324C62.9785 30.744 63.5005 31.32 63.8845 32.052C64.2805 32.772 64.4785 33.588 64.4785 34.5V35.004H57.2605C57.3565 35.508 57.5425 35.958 57.8185 36.354C58.1065 36.75 58.4665 37.062 58.8985 37.29C59.3425 37.518 59.8225 37.632 60.3385 37.632C60.7825 37.632 61.2085 37.566 61.6165 37.434C62.0365 37.29 62.3845 37.086 62.6605 36.822L63.8125 37.956C63.2725 38.364 62.7145 38.67 62.1385 38.874C61.5745 39.066 60.9505 39.162 60.2665 39.162ZM57.2785 33.654H62.6965C62.6245 33.174 62.4565 32.754 62.1925 32.394C61.9405 32.022 61.6225 31.734 61.2385 31.53C60.8665 31.314 60.4585 31.206 60.0145 31.206C59.3185 31.206 58.7185 31.434 58.2145 31.89C57.7225 32.334 57.4105 32.922 57.2785 33.654ZM66.1929 39V29.838H67.9929V31.008C68.2809 30.576 68.6349 30.24 69.0549 30C69.4869 29.748 69.9729 29.622 70.5129 29.622C70.8849 29.634 71.1909 29.688 71.4309 29.784V31.404C71.0829 31.272 70.7289 31.206 70.3689 31.206C69.8409 31.206 69.3729 31.35 68.9649 31.638C68.5569 31.914 68.2329 32.322 67.9929 32.862V39H66.1929ZM79.5863 39L75.6263 29.838H77.6063L80.4683 36.696L83.3303 29.838H85.2383L81.3143 39H79.5863ZM88.8838 39.162C88.2238 39.162 87.6418 39.048 87.1378 38.82C86.6338 38.58 86.2378 38.25 85.9498 37.83C85.6618 37.41 85.5178 36.924 85.5178 36.372C85.5178 35.508 85.8478 34.83 86.5078 34.338C87.1678 33.834 88.0738 33.582 89.2258 33.582C90.1258 33.582 90.9598 33.756 91.7278 34.104V33.132C91.7278 31.824 90.9838 31.17 89.4958 31.17C89.0758 31.17 88.6378 31.236 88.1818 31.368C87.7258 31.488 87.2158 31.68 86.6518 31.944L85.9858 30.594C86.6818 30.27 87.3298 30.036 87.9298 29.892C88.5298 29.736 89.1358 29.658 89.7478 29.658C90.9358 29.658 91.8538 29.94 92.5018 30.504C93.1618 31.068 93.4918 31.872 93.4918 32.916V39H91.7278V38.208C91.3198 38.532 90.8818 38.772 90.4138 38.928C89.9458 39.084 89.4358 39.162 88.8838 39.162ZM87.2458 36.336C87.2458 36.78 87.4318 37.14 87.8038 37.416C88.1878 37.692 88.6858 37.83 89.2978 37.83C90.2818 37.83 91.0918 37.536 91.7278 36.948V35.4C91.0678 35.016 90.2818 34.824 89.3698 34.824C88.7098 34.824 88.1878 34.962 87.8038 35.238C87.4318 35.502 87.2458 35.868 87.2458 36.336ZM95.5659 39V26.4L97.3659 26.058V39H95.5659ZM103.032 39.18C102.324 39.18 101.7 39.03 101.16 38.73C100.62 38.43 100.2 38.01 99.8998 37.47C99.5998 36.93 99.4498 36.3 99.4498 35.58V29.838H101.232V35.274C101.232 35.994 101.436 36.564 101.844 36.984C102.264 37.404 102.822 37.614 103.518 37.614C104.502 37.614 105.252 37.212 105.768 36.408V29.838H107.568V39H105.768V38.064C105.06 38.808 104.148 39.18 103.032 39.18ZM114.091 39.162C113.191 39.162 112.375 38.952 111.643 38.532C110.923 38.112 110.347 37.542 109.915 36.822C109.495 36.102 109.285 35.298 109.285 34.41C109.285 33.534 109.489 32.742 109.897 32.034C110.305 31.314 110.857 30.744 111.553 30.324C112.249 29.892 113.023 29.676 113.875 29.676C114.727 29.676 115.483 29.892 116.143 30.324C116.803 30.744 117.325 31.32 117.709 32.052C118.105 32.772 118.303 33.588 118.303 34.5V35.004H111.085C111.181 35.508 111.367 35.958 111.643 36.354C111.931 36.75 112.291 37.062 112.723 37.29C113.167 37.518 113.647 37.632 114.163 37.632C114.607 37.632 115.033 37.566 115.441 37.434C115.861 37.29 116.209 37.086 116.485 36.822L117.637 37.956C117.097 38.364 116.539 38.67 115.963 38.874C115.399 39.066 114.775 39.162 114.091 39.162ZM111.103 33.654H116.521C116.449 33.174 116.281 32.754 116.017 32.394C115.765 32.022 115.447 31.734 115.063 31.53C114.691 31.314 114.283 31.206 113.839 31.206C113.143 31.206 112.543 31.434 112.039 31.89C111.547 32.334 111.235 32.922 111.103 33.654ZM123.779 39V29.838H125.579V39H123.779ZM124.679 28.362C124.379 28.362 124.121 28.254 123.905 28.038C123.689 27.81 123.581 27.546 123.581 27.246C123.581 26.934 123.689 26.676 123.905 26.472C124.121 26.256 124.379 26.148 124.679 26.148C124.991 26.148 125.255 26.256 125.471 26.472C125.687 26.676 125.795 26.934 125.795 27.246C125.795 27.546 125.687 27.81 125.471 28.038C125.255 28.254 124.991 28.362 124.679 28.362ZM130.849 39.18C130.057 39.18 129.313 39.066 128.617 38.838C127.933 38.598 127.339 38.262 126.835 37.83L127.825 36.642C128.293 37.014 128.773 37.302 129.265 37.506C129.769 37.698 130.279 37.794 130.795 37.794C131.443 37.794 131.971 37.668 132.379 37.416C132.787 37.164 132.991 36.834 132.991 36.426C132.991 35.778 132.499 35.382 131.515 35.238L129.859 35.004C128.947 34.872 128.263 34.59 127.807 34.158C127.351 33.726 127.123 33.15 127.123 32.43C127.123 31.878 127.273 31.398 127.573 30.99C127.873 30.57 128.293 30.246 128.833 30.018C129.373 29.778 130.003 29.658 130.723 29.658C131.383 29.658 132.019 29.754 132.631 29.946C133.243 30.138 133.831 30.438 134.395 30.846L133.477 32.034C132.481 31.386 131.515 31.062 130.579 31.062C130.027 31.062 129.583 31.182 129.247 31.422C128.911 31.65 128.743 31.95 128.743 32.322C128.743 32.658 128.857 32.922 129.085 33.114C129.325 33.294 129.715 33.42 130.255 33.492L131.911 33.726C132.823 33.858 133.513 34.14 133.981 34.572C134.449 34.992 134.683 35.562 134.683 36.282C134.683 36.834 134.515 37.332 134.179 37.776C133.843 38.208 133.387 38.55 132.811 38.802C132.235 39.054 131.581 39.18 130.849 39.18ZM137.254 39.126C136.942 39.126 136.672 39.018 136.444 38.802C136.228 38.574 136.12 38.304 136.12 37.992C136.12 37.68 136.228 37.416 136.444 37.2C136.672 36.972 136.942 36.858 137.254 36.858C137.566 36.858 137.83 36.972 138.046 37.2C138.274 37.416 138.388 37.68 138.388 37.992C138.388 38.304 138.274 38.574 138.046 38.802C137.83 39.018 137.566 39.126 137.254 39.126ZM137.254 31.926C136.942 31.926 136.672 31.818 136.444 31.602C136.228 31.374 136.12 31.104 136.12 30.792C136.12 30.48 136.228 30.216 136.444 30C136.672 29.772 136.942 29.658 137.254 29.658C137.566 29.658 137.83 29.772 138.046 30C138.274 30.216 138.388 30.48 138.388 30.792C138.388 31.104 138.274 31.374 138.046 31.602C137.83 31.818 137.566 31.926 137.254 31.926ZM150.898 39V35.796H143.752V34.374L150.682 26.4H152.68V34.284H154.21V35.796H152.68V39H150.898ZM145.894 34.284H150.898V28.524L145.894 34.284ZM156.071 39L162.083 27.93H154.739V26.4H163.955V27.714L158.087 39H156.071Z" fill="black"/>
<path d="M49.042 78.333C49.5249 78.3332 49.9168 78.7251 49.917 79.208V80.083C49.917 80.5661 49.525 80.9578 49.042 80.958H38.542C38.0588 80.958 37.667 80.5662 37.667 80.083V79.208C37.6672 78.725 38.0589 78.333 38.542 78.333H49.042Z" fill="#1F1F1F"/>
<path d="M70 79C70 77.8954 70.8954 77 72 77H778C779.105 77 780 77.8954 780 79C780 80.1046 779.105 81 778 81H72C70.8954 81 70 80.1046 70 79Z" fill="#E0E0E0"/>
<path d="M70 79C70 77.8954 70.8954 77 72 77H403.475C404.58 77 405.475 77.8954 405.475 79C405.475 80.1046 404.58 81 403.475 81H72C70.8954 81 70 80.1046 70 79Z" fill="#4394E5"/>
<path d="M70.6864 110.132C70.0464 110.132 69.4784 109.948 68.9824 109.58C68.4944 109.212 68.1104 108.704 67.8304 108.056C67.5504 107.4 67.4104 106.648 67.4104 105.8C67.4104 104.944 67.5504 104.192 67.8304 103.544C68.1104 102.896 68.4944 102.388 68.9824 102.02C69.4784 101.652 70.0464 101.468 70.6864 101.468C71.3264 101.468 71.8904 101.652 72.3784 102.02C72.8744 102.388 73.2624 102.896 73.5424 103.544C73.8224 104.192 73.9624 104.944 73.9624 105.8C73.9624 106.648 73.8224 107.4 73.5424 108.056C73.2624 108.704 72.8744 109.212 72.3784 109.58C71.8904 109.948 71.3264 110.132 70.6864 110.132ZM70.6864 109.352C71.1744 109.352 71.5944 109.208 71.9464 108.92C72.3064 108.624 72.5864 108.212 72.7864 107.684C72.9864 107.148 73.0864 106.52 73.0864 105.8C73.0864 105.08 72.9864 104.456 72.7864 103.928C72.5864 103.392 72.3064 102.98 71.9464 102.692C71.5944 102.396 71.1744 102.248 70.6864 102.248C70.2064 102.248 69.7864 102.396 69.4264 102.692C69.0664 102.98 68.7864 103.392 68.5864 103.928C68.3864 104.456 68.2864 105.08 68.2864 105.8C68.2864 106.52 68.3864 107.148 68.5864 107.684C68.7864 108.212 69.0664 108.624 69.4264 108.92C69.7864 109.208 70.2064 109.352 70.6864 109.352Z" fill="#151515"/>
<path d="M69.6874 77H71.6874V81H69.6874V77Z" fill="white"/>
<path d="M771.387 110V102.536L770.043 103.136V102.344L771.711 101.6H772.251V110H771.387ZM777.191 110.132C776.551 110.132 775.983 109.948 775.487 109.58C774.999 109.212 774.615 108.704 774.335 108.056C774.055 107.4 773.915 106.648 773.915 105.8C773.915 104.944 774.055 104.192 774.335 103.544C774.615 102.896 774.999 102.388 775.487 102.02C775.983 101.652 776.551 101.468 777.191 101.468C777.831 101.468 778.395 101.652 778.883 102.02C779.379 102.388 779.767 102.896 780.047 103.544C780.327 104.192 780.467 104.944 780.467 105.8C780.467 106.648 780.327 107.4 780.047 108.056C779.767 108.704 779.379 109.212 778.883 109.58C778.395 109.948 777.831 110.132 777.191 110.132ZM777.191 109.352C777.679 109.352 778.099 109.208 778.451 108.92C778.811 108.624 779.091 108.212 779.291 107.684C779.491 107.148 779.591 106.52 779.591 105.8C779.591 105.08 779.491 104.456 779.291 103.928C779.091 103.392 778.811 102.98 778.451 102.692C778.099 102.396 777.679 102.248 777.191 102.248C776.711 102.248 776.291 102.396 775.931 102.692C775.571 102.98 775.291 103.392 775.091 103.928C774.891 104.456 774.791 105.08 774.791 105.8C774.791 106.52 774.891 107.148 775.091 107.684C775.291 108.212 775.571 108.624 775.931 108.92C776.291 109.208 776.711 109.352 777.191 109.352ZM785.112 110.132C784.472 110.132 783.904 109.948 783.408 109.58C782.92 109.212 782.536 108.704 782.256 108.056C781.976 107.4 781.836 106.648 781.836 105.8C781.836 104.944 781.976 104.192 782.256 103.544C782.536 102.896 782.92 102.388 783.408 102.02C783.904 101.652 784.472 101.468 785.112 101.468C785.752 101.468 786.316 101.652 786.804 102.02C787.3 102.388 787.688 102.896 787.968 103.544C788.248 104.192 788.388 104.944 788.388 105.8C788.388 106.648 788.248 107.4 787.968 108.056C787.688 108.704 787.3 109.212 786.804 109.58C786.316 109.948 785.752 110.132 785.112 110.132ZM785.112 109.352C785.6 109.352 786.02 109.208 786.372 108.92C786.732 108.624 787.012 108.212 787.212 107.684C787.412 107.148 787.512 106.52 787.512 105.8C787.512 105.08 787.412 104.456 787.212 103.928C787.012 103.392 786.732 102.98 786.372 102.692C786.02 102.396 785.6 102.248 785.112 102.248C784.632 102.248 784.212 102.396 783.852 102.692C783.492 102.98 783.212 103.392 783.012 103.928C782.812 104.456 782.712 105.08 782.712 105.8C782.712 106.52 782.812 107.148 783.012 107.684C783.212 108.212 783.492 108.624 783.852 108.92C784.212 109.208 784.632 109.352 785.112 109.352Z" fill="#151515"/>
<path d="M778.313 77H780.313V81H778.313V77Z" fill="#1F1F1F"/>
<circle cx="402" cy="78" r="8" fill="#0066CC"/>
<path d="M807.229 73.667C807.712 73.6672 808.104 74.0589 808.104 74.542V78.4795H812.042C812.525 78.4797 812.917 78.8714 812.917 79.3545V80.2295C812.917 80.7124 812.525 81.1043 812.042 81.1045H808.104V85.042C808.104 85.5249 807.712 85.9168 807.229 85.917H806.354C805.871 85.917 805.48 85.525 805.479 85.042V81.1045H801.542C801.059 81.1045 800.667 80.7125 800.667 80.2295V79.3545C800.667 78.8713 801.059 78.4795 801.542 78.4795H805.479V74.542C805.479 74.0588 805.871 73.667 806.354 73.667H807.229Z" fill="#1F1F1F"/>
</svg>
