<svg width="850" height="139" viewBox="0 0 850 139" fill="none" xmlns="http://www.w3.org/2000/svg">
<rect width="850" height="139" fill="white"/>
<path d="M25 90C25 88.8954 25.8954 88 27 88H823C824.105 88 825 88.8954 825 90C825 91.1046 824.105 92 823 92H27C25.8954 92 25 91.1046 25 90Z" fill="#E0E0E0"/>
<path d="M25 90C25 88.8954 25.8954 88 27 88H423.622C424.727 88 425.622 88.8954 425.622 90C425.622 91.1046 424.727 92 423.622 92H27C25.8954 92 25 91.1046 25 90Z" fill="#4394E5"/>
<path d="M25.2666 121.132C24.6266 121.132 24.0586 120.948 23.5626 120.58C23.0746 120.212 22.6906 119.704 22.4106 119.056C22.1306 118.4 21.9906 117.648 21.9906 116.8C21.9906 115.944 22.1306 115.192 22.4106 114.544C22.6906 113.896 23.0746 113.388 23.5626 113.02C24.0586 112.652 24.6266 112.468 25.2666 112.468C25.9066 112.468 26.4706 112.652 26.9586 113.02C27.4546 113.388 27.8426 113.896 28.1226 114.544C28.4026 115.192 28.5426 115.944 28.5426 116.8C28.5426 117.648 28.4026 118.4 28.1226 119.056C27.8426 119.704 27.4546 120.212 26.9586 120.58C26.4706 120.948 25.9066 121.132 25.2666 121.132ZM25.2666 120.352C25.7546 120.352 26.1746 120.208 26.5266 119.92C26.8866 119.624 27.1666 119.212 27.3666 118.684C27.5666 118.148 27.6666 117.52 27.6666 116.8C27.6666 116.08 27.5666 115.456 27.3666 114.928C27.1666 114.392 26.8866 113.98 26.5266 113.692C26.1746 113.396 25.7546 113.248 25.2666 113.248C24.7866 113.248 24.3666 113.396 24.0066 113.692C23.6466 113.98 23.3666 114.392 23.1666 114.928C22.9666 115.456 22.8666 116.08 22.8666 116.8C22.8666 117.52 22.9666 118.148 23.1666 118.684C23.3666 119.212 23.6466 119.624 24.0066 119.92C24.3666 120.208 24.7866 120.352 25.2666 120.352Z" fill="#151515"/>
<path d="M24.2675 88H26.2675V92H24.2675V88Z" fill="white"/>
<path d="M816.807 121V113.536L815.463 114.136V113.344L817.131 112.6H817.671V121H816.807ZM822.611 121.132C821.971 121.132 821.403 120.948 820.907 120.58C820.419 120.212 820.035 119.704 819.755 119.056C819.475 118.4 819.335 117.648 819.335 116.8C819.335 115.944 819.475 115.192 819.755 114.544C820.035 113.896 820.419 113.388 820.907 113.02C821.403 112.652 821.971 112.468 822.611 112.468C823.251 112.468 823.815 112.652 824.303 113.02C824.799 113.388 825.187 113.896 825.467 114.544C825.747 115.192 825.887 115.944 825.887 116.8C825.887 117.648 825.747 118.4 825.467 119.056C825.187 119.704 824.799 120.212 824.303 120.58C823.815 120.948 823.251 121.132 822.611 121.132ZM822.611 120.352C823.099 120.352 823.519 120.208 823.871 119.92C824.231 119.624 824.511 119.212 824.711 118.684C824.911 118.148 825.011 117.52 825.011 116.8C825.011 116.08 824.911 115.456 824.711 114.928C824.511 114.392 824.231 113.98 823.871 113.692C823.519 113.396 823.099 113.248 822.611 113.248C822.131 113.248 821.711 113.396 821.351 113.692C820.991 113.98 820.711 114.392 820.511 114.928C820.311 115.456 820.211 116.08 820.211 116.8C820.211 117.52 820.311 118.148 820.511 118.684C820.711 119.212 820.991 119.624 821.351 119.92C821.711 120.208 822.131 120.352 822.611 120.352ZM830.532 121.132C829.892 121.132 829.324 120.948 828.828 120.58C828.34 120.212 827.956 119.704 827.676 119.056C827.396 118.4 827.256 117.648 827.256 116.8C827.256 115.944 827.396 115.192 827.676 114.544C827.956 113.896 828.34 113.388 828.828 113.02C829.324 112.652 829.892 112.468 830.532 112.468C831.172 112.468 831.736 112.652 832.224 113.02C832.72 113.388 833.108 113.896 833.388 114.544C833.668 115.192 833.808 115.944 833.808 116.8C833.808 117.648 833.668 118.4 833.388 119.056C833.108 119.704 832.72 120.212 832.224 120.58C831.736 120.948 831.172 121.132 830.532 121.132ZM830.532 120.352C831.02 120.352 831.44 120.208 831.792 119.92C832.152 119.624 832.432 119.212 832.632 118.684C832.832 118.148 832.932 117.52 832.932 116.8C832.932 116.08 832.832 115.456 832.632 114.928C832.432 114.392 832.152 113.98 831.792 113.692C831.44 113.396 831.02 113.248 830.532 113.248C830.052 113.248 829.632 113.396 829.272 113.692C828.912 113.98 828.632 114.392 828.432 114.928C828.232 115.456 828.132 116.08 828.132 116.8C828.132 117.52 828.232 118.148 828.432 118.684C828.632 119.212 828.912 119.624 829.272 119.92C829.632 120.208 830.052 120.352 830.532 120.352Z" fill="#151515"/>
<path d="M823.733 88H825.733V92H823.733V88Z" fill="#1F1F1F"/>
<path d="M444 28.5H459C462.038 28.5 464.5 30.9624 464.5 34V59C464.5 62.0376 462.038 64.5 459 64.5H444C440.962 64.5 438.5 62.0376 438.5 59V34C438.5 30.9624 440.962 28.5 444 28.5Z" fill="#F2F2F2"/>
<path d="M444 28.5H459C462.038 28.5 464.5 30.9624 464.5 34V59C464.5 62.0376 462.038 64.5 459 64.5H444C440.962 64.5 438.5 62.0376 438.5 59V34C438.5 30.9624 440.962 28.5 444 28.5Z" stroke="#C7C7C7"/>
<path d="M448.45 46.17C447.843 46.17 447.349 45.9367 446.966 45.47C446.593 45.0033 446.406 44.3967 446.406 43.65C446.406 42.9033 446.593 42.2967 446.966 41.83C447.349 41.3633 447.843 41.13 448.45 41.13C449.057 41.13 449.547 41.3633 449.92 41.83C450.303 42.2967 450.494 42.9033 450.494 43.65C450.494 44.3967 450.303 45.0033 449.92 45.47C449.547 45.9367 449.057 46.17 448.45 46.17ZM448.45 45.54C448.861 45.54 449.187 45.372 449.43 45.036C449.673 44.6907 449.794 44.2287 449.794 43.65C449.794 43.0713 449.673 42.614 449.43 42.278C449.187 41.9327 448.861 41.76 448.45 41.76C448.049 41.76 447.722 41.9327 447.47 42.278C447.227 42.614 447.106 43.0713 447.106 43.65C447.106 44.2287 447.227 44.6907 447.47 45.036C447.722 45.372 448.049 45.54 448.45 45.54ZM448.016 51L453.518 41.2H454.33L448.814 51H448.016ZM453.91 51.07C453.303 51.07 452.809 50.8367 452.426 50.37C452.053 49.9033 451.866 49.2967 451.866 48.55C451.866 47.8033 452.053 47.1967 452.426 46.73C452.809 46.2633 453.303 46.03 453.91 46.03C454.517 46.03 455.007 46.2633 455.38 46.73C455.763 47.1967 455.954 47.8033 455.954 48.55C455.954 49.2967 455.763 49.9033 455.38 50.37C455.007 50.8367 454.517 51.07 453.91 51.07ZM453.91 50.44C454.321 50.44 454.647 50.272 454.89 49.936C455.133 49.5907 455.254 49.1287 455.254 48.55C455.254 47.9713 455.133 47.514 454.89 47.178C454.647 46.8327 454.321 46.66 453.91 46.66C453.509 46.66 453.182 46.8327 452.93 47.178C452.687 47.514 452.566 47.9713 452.566 48.55C452.566 49.1287 452.687 49.5907 452.93 49.936C453.182 50.272 453.509 50.44 453.91 50.44Z" fill="#151515"/>
<path d="M390 28.5H428C431.038 28.5 433.5 30.9624 433.5 34V59C433.5 62.0376 431.038 64.5 428 64.5H390C386.962 64.5 384.5 62.0376 384.5 59V34C384.5 30.9624 386.962 28.5 390 28.5Z" fill="white"/>
<path d="M390 28.5H428C431.038 28.5 433.5 30.9624 433.5 34V59C433.5 62.0376 431.038 64.5 428 64.5H390C386.962 64.5 384.5 62.0376 384.5 59V34C384.5 30.9624 386.962 28.5 390 28.5Z" stroke="#C7C7C7"/>
<path d="M403.85 51.154C402.562 51.154 401.451 50.7107 400.518 49.824L401.148 49.138C401.577 49.5393 402.002 49.8333 402.422 50.02C402.851 50.1973 403.332 50.286 403.864 50.286C404.34 50.286 404.76 50.188 405.124 49.992C405.488 49.796 405.768 49.5207 405.964 49.166C406.169 48.8113 406.272 48.4053 406.272 47.948C406.272 47.2947 406.048 46.7673 405.6 46.366C405.161 45.9647 404.583 45.764 403.864 45.764C403.491 45.764 403.127 45.8107 402.772 45.904C402.417 45.988 402.049 46.128 401.666 46.324L400.966 46.1L401.19 41.2H406.762V42.082H402.058L401.904 45.47C402.277 45.2833 402.637 45.1527 402.982 45.078C403.327 44.994 403.691 44.952 404.074 44.952C404.718 44.952 405.278 45.078 405.754 45.33C406.239 45.5727 406.613 45.918 406.874 46.366C407.145 46.8047 407.28 47.318 407.28 47.906C407.28 48.55 407.135 49.1147 406.846 49.6C406.557 50.0853 406.155 50.468 405.642 50.748C405.129 51.0187 404.531 51.154 403.85 51.154ZM412.604 51.154C411.858 51.154 411.195 50.9393 410.616 50.51C410.047 50.0807 409.599 49.488 409.272 48.732C408.946 47.9667 408.782 47.0893 408.782 46.1C408.782 45.1013 408.946 44.224 409.272 43.468C409.599 42.712 410.047 42.1193 410.616 41.69C411.195 41.2607 411.858 41.046 412.604 41.046C413.351 41.046 414.009 41.2607 414.578 41.69C415.157 42.1193 415.61 42.712 415.936 43.468C416.263 44.224 416.426 45.1013 416.426 46.1C416.426 47.0893 416.263 47.9667 415.936 48.732C415.61 49.488 415.157 50.0807 414.578 50.51C414.009 50.9393 413.351 51.154 412.604 51.154ZM412.604 50.244C413.174 50.244 413.664 50.076 414.074 49.74C414.494 49.3947 414.821 48.914 415.054 48.298C415.288 47.6727 415.404 46.94 415.404 46.1C415.404 45.26 415.288 44.532 415.054 43.916C414.821 43.2907 414.494 42.81 414.074 42.474C413.664 42.1287 413.174 41.956 412.604 41.956C412.044 41.956 411.554 42.1287 411.134 42.474C410.714 42.81 410.388 43.2907 410.154 43.916C409.921 44.532 409.804 45.26 409.804 46.1C409.804 46.94 409.921 47.6727 410.154 48.298C410.388 48.914 410.714 49.3947 411.134 49.74C411.554 50.076 412.044 50.244 412.604 50.244Z" fill="#4D4D4D"/>
<circle cx="425" cy="89" r="8" fill="#0066CC"/>
<path d="M319 37C319 34.7909 320.791 33 323 33H353C355.209 33 357 34.7909 357 37V61C357 63.2091 355.209 65 353 65H323C320.791 65 319 63.2091 319 61V37Z" fill="#C806CC"/>
<path d="M337.888 55V44.254L335.62 45.208V43.624L338.536 42.4H339.67V55H337.888Z" fill="white"/>
<path d="M380.667 49C380.667 50.4728 379.473 51.6667 378 51.6667C376.527 51.6667 375.333 50.4728 375.333 49C375.333 47.5272 376.527 46.3333 378 46.3333C379.473 46.3333 380.667 47.5272 380.667 49ZM378 49V49.5H357V49V48.5H378V49Z" fill="#C806CC"/>
<path d="M469.333 49C469.333 50.4728 470.527 51.6667 472 51.6667C473.473 51.6667 474.667 50.4728 474.667 49C474.667 47.5272 473.473 46.3333 472 46.3333C470.527 46.3333 469.333 47.5272 469.333 49ZM472 49V49.5H491V49V48.5H472V49Z" fill="#C806CC"/>
<path d="M491 37C491 34.7909 492.791 33 495 33H529C531.209 33 533 34.7909 533 37V61C533 63.2091 531.209 65 529 65H495C492.791 65 491 63.2091 491 61V37Z" fill="#C806CC"/>
<path d="M507.89 55V53.74L513.002 48.304C513.518 47.764 513.866 47.302 514.046 46.918C514.238 46.534 514.334 46.126 514.334 45.694C514.334 45.13 514.106 44.662 513.65 44.29C513.194 43.918 512.618 43.732 511.922 43.732C511.346 43.732 510.806 43.846 510.302 44.074C509.798 44.302 509.24 44.698 508.628 45.262L507.656 44.074C508.988 42.826 510.422 42.202 511.958 42.202C512.762 42.202 513.47 42.346 514.082 42.634C514.694 42.922 515.168 43.324 515.504 43.84C515.852 44.344 516.026 44.926 516.026 45.586C516.026 46.006 515.972 46.396 515.864 46.756C515.756 47.104 515.57 47.476 515.306 47.872C515.042 48.256 514.67 48.7 514.19 49.204L510.086 53.524L516.278 53.506V55H507.89Z" fill="white"/>
</svg>
