<svg width="349" height="182" viewBox="0 0 349 182" fill="none" xmlns="http://www.w3.org/2000/svg">
<rect width="347" height="182" transform="translate(2)" fill="white"/>
<path d="M14.78 90V81.152H11.392V80.2H19.246V81.152H15.858V90H14.78ZM20.6906 90V79.892L21.7126 79.682V84.274C21.974 83.8633 22.2866 83.56 22.6506 83.364C23.0146 83.1587 23.4253 83.056 23.8826 83.056C24.3773 83.056 24.8066 83.1633 25.1706 83.378C25.544 83.5833 25.8333 83.8773 26.0386 84.26C26.2533 84.6333 26.3606 85.072 26.3606 85.576V90H25.3386V85.87C25.3386 85.2633 25.1706 84.7873 24.8346 84.442C24.508 84.0873 24.0646 83.91 23.5046 83.91C23.1313 83.91 22.7906 83.9987 22.4826 84.176C22.1746 84.3533 21.918 84.6147 21.7126 84.96V90H20.6906ZM30.7829 90.112C30.2975 90.112 29.8682 90.0047 29.4949 89.79C29.1215 89.5753 28.8275 89.2767 28.6129 88.894C28.4075 88.5113 28.3049 88.0727 28.3049 87.578V83.168H29.3409V87.284C29.3409 87.8907 29.5042 88.3713 29.8309 88.726C30.1575 89.0807 30.6009 89.258 31.1609 89.258C31.5435 89.258 31.8842 89.1693 32.1829 88.992C32.4909 88.8147 32.7475 88.558 32.9529 88.222V83.168H33.9749V90H32.9529V88.894C32.6915 89.2953 32.3789 89.5987 32.0149 89.804C31.6602 90.0093 31.2495 90.112 30.7829 90.112ZM36.0715 90V83.168H37.0935V84.568C37.2708 84.092 37.5228 83.7233 37.8495 83.462C38.1855 83.1913 38.5682 83.056 38.9975 83.056C39.1188 83.056 39.2308 83.0653 39.3335 83.084C39.4362 83.0933 39.5388 83.1167 39.6415 83.154V84.078C39.5295 84.0407 39.4082 84.0127 39.2775 83.994C39.1562 83.966 39.0395 83.952 38.9275 83.952C38.5075 83.952 38.1388 84.0733 37.8215 84.316C37.5135 84.5587 37.2708 84.8993 37.0935 85.338V90H36.0715ZM43.039 90.14C42.479 90.14 41.961 90.056 41.485 89.888C41.009 89.7107 40.603 89.4587 40.267 89.132L40.813 88.46C41.2237 88.7587 41.6017 88.978 41.947 89.118C42.2923 89.2487 42.647 89.314 43.011 89.314C43.5057 89.314 43.9163 89.1973 44.243 88.964C44.5697 88.7307 44.733 88.432 44.733 88.068C44.733 87.788 44.635 87.5687 44.439 87.41C44.2523 87.2513 43.9397 87.13 43.501 87.046L42.381 86.85C41.7183 86.7287 41.2283 86.5233 40.911 86.234C40.603 85.9447 40.449 85.5527 40.449 85.058C40.449 84.666 40.5517 84.3207 40.757 84.022C40.9717 83.7233 41.2657 83.49 41.639 83.322C42.0123 83.1447 42.437 83.056 42.913 83.056C43.3797 83.056 43.823 83.126 44.243 83.266C44.663 83.3967 45.0877 83.6113 45.517 83.91L45.013 84.624C44.6583 84.372 44.3037 84.19 43.949 84.078C43.5943 83.9567 43.235 83.896 42.871 83.896C42.423 83.896 42.0637 83.994 41.793 84.19C41.5223 84.386 41.387 84.652 41.387 84.988C41.387 85.268 41.471 85.4827 41.639 85.632C41.8163 85.7813 42.1243 85.8933 42.563 85.968L43.711 86.178C44.4017 86.2993 44.9057 86.5093 45.223 86.808C45.5403 87.1067 45.699 87.508 45.699 88.012C45.699 88.4133 45.5823 88.7773 45.349 89.104C45.1157 89.4213 44.7983 89.6733 44.397 89.86C43.9957 90.0467 43.543 90.14 43.039 90.14ZM50.1654 90.098C49.5774 90.098 49.0454 89.944 48.5694 89.636C48.0934 89.3187 47.7154 88.8987 47.4354 88.376C47.1554 87.844 47.0154 87.2513 47.0154 86.598C47.0154 85.9353 47.1554 85.3427 47.4354 84.82C47.7248 84.288 48.1121 83.868 48.5974 83.56C49.0828 83.2427 49.6241 83.084 50.2214 83.084C50.6414 83.084 51.0334 83.168 51.3974 83.336C51.7614 83.4947 52.0788 83.728 52.3494 84.036V79.892L53.3714 79.682V90H52.3494V89.09C52.0881 89.4167 51.7708 89.6687 51.3974 89.846C51.0241 90.014 50.6134 90.098 50.1654 90.098ZM50.4174 89.202C50.8188 89.202 51.1874 89.1227 51.5234 88.964C51.8594 88.8053 52.1348 88.5813 52.3494 88.292V84.904C52.1254 84.6147 51.8408 84.3907 51.4954 84.232C51.1594 84.064 50.8001 83.98 50.4174 83.98C49.9601 83.98 49.5494 84.092 49.1854 84.316C48.8308 84.54 48.5461 84.848 48.3314 85.24C48.1261 85.632 48.0234 86.08 48.0234 86.584C48.0234 87.0787 48.1261 87.5267 48.3314 87.928C48.5461 88.32 48.8308 88.6327 49.1854 88.866C49.5494 89.09 49.9601 89.202 50.4174 89.202ZM57.5859 90.126C57.1005 90.126 56.6712 90.0373 56.2979 89.86C55.9245 89.6827 55.6305 89.44 55.4159 89.132C55.2105 88.8147 55.1079 88.4507 55.1079 88.04C55.1079 87.6293 55.2152 87.2747 55.4299 86.976C55.6445 86.668 55.9432 86.43 56.3259 86.262C56.7085 86.094 57.1565 86.01 57.6699 86.01C58.0619 86.01 58.4305 86.052 58.7759 86.136C59.1305 86.22 59.4572 86.3553 59.7559 86.542V85.604C59.7559 85.044 59.6065 84.624 59.3079 84.344C59.0092 84.0547 58.5705 83.91 57.9919 83.91C57.6745 83.91 57.3479 83.9567 57.0119 84.05C56.6852 84.1433 56.3212 84.2927 55.9199 84.498L55.5419 83.714C56.4565 83.2753 57.3152 83.056 58.1179 83.056C58.9672 83.056 59.6205 83.266 60.0779 83.686C60.5352 84.0967 60.7639 84.6893 60.7639 85.464V90H59.7559V89.202C59.4572 89.51 59.1259 89.7433 58.7619 89.902C58.3979 90.0513 58.0059 90.126 57.5859 90.126ZM56.0879 88.012C56.0879 88.4133 56.2419 88.7353 56.5499 88.978C56.8672 89.2207 57.2825 89.342 57.7959 89.342C58.1785 89.342 58.5285 89.2767 58.8459 89.146C59.1725 89.0153 59.4759 88.8193 59.7559 88.558V87.242C59.4665 87.074 59.1679 86.9527 58.8599 86.878C58.5519 86.794 58.2065 86.752 57.8239 86.752C57.3012 86.752 56.8812 86.8687 56.5639 87.102C56.2465 87.326 56.0879 87.6293 56.0879 88.012ZM62.9983 93.066C62.7836 93.066 62.5643 93.0333 62.3403 92.968V92.058C62.4336 92.0767 62.5316 92.0907 62.6343 92.1C62.737 92.1093 62.8256 92.114 62.9003 92.114C63.1616 92.114 63.3763 92.044 63.5443 91.904C63.7216 91.764 63.871 91.5447 63.9923 91.246L64.4963 90L61.8643 83.168H62.9983L65.0703 88.782L67.2683 83.168H68.4023L64.9583 91.554C64.809 91.918 64.6456 92.212 64.4683 92.436C64.291 92.66 64.0856 92.8187 63.8523 92.912C63.619 93.0147 63.3343 93.066 62.9983 93.066ZM68.4109 92.198L69.2509 88.964H70.3429L69.2089 92.198H68.4109ZM75.1925 90V89.258L79.1125 84.974C79.4205 84.638 79.6585 84.344 79.8265 84.092C80.0038 83.8307 80.1252 83.588 80.1905 83.364C80.2652 83.14 80.3025 82.902 80.3025 82.65C80.3025 82.1553 80.1065 81.7493 79.7145 81.432C79.3318 81.1053 78.8418 80.942 78.2445 80.942C77.7872 80.942 77.3625 81.0307 76.9705 81.208C76.5785 81.3853 76.1398 81.6933 75.6545 82.132L75.0665 81.432C75.5798 80.9653 76.0978 80.62 76.6205 80.396C77.1432 80.1627 77.6892 80.046 78.2585 80.046C78.8465 80.046 79.3692 80.158 79.8265 80.382C80.2838 80.5967 80.6432 80.8953 80.9045 81.278C81.1658 81.6607 81.2965 82.0993 81.2965 82.594C81.2965 82.9207 81.2545 83.224 81.1705 83.504C81.0865 83.7747 80.9372 84.0687 80.7225 84.386C80.5078 84.694 80.1998 85.0673 79.7985 85.506L76.4525 89.132L81.5065 89.118V90H75.1925ZM84.2904 90V81.292L82.7224 81.992V81.068L84.6684 80.2H85.2984V90H84.2904ZM93.447 90.154C92.6163 90.154 91.893 89.9347 91.277 89.496C90.6703 89.0573 90.2317 88.4413 89.961 87.648L90.941 87.256C91.1743 87.8813 91.501 88.3573 91.921 88.684C92.341 89.0107 92.8543 89.174 93.461 89.174C94.2263 89.174 94.8377 88.9127 95.295 88.39C95.7523 87.8673 95.981 87.1673 95.981 86.29V80.2H97.059V86.304C97.059 87.088 96.9097 87.7693 96.611 88.348C96.3217 88.9267 95.9063 89.3747 95.365 89.692C94.8237 90 94.1843 90.154 93.447 90.154ZM101.268 90.126C100.782 90.126 100.353 90.0373 99.9795 89.86C99.6062 89.6827 99.3122 89.44 99.0975 89.132C98.8922 88.8147 98.7895 88.4507 98.7895 88.04C98.7895 87.6293 98.8968 87.2747 99.1115 86.976C99.3262 86.668 99.6248 86.43 100.008 86.262C100.39 86.094 100.838 86.01 101.352 86.01C101.744 86.01 102.112 86.052 102.458 86.136C102.812 86.22 103.139 86.3553 103.438 86.542V85.604C103.438 85.044 103.288 84.624 102.99 84.344C102.691 84.0547 102.252 83.91 101.674 83.91C101.356 83.91 101.03 83.9567 100.694 84.05C100.367 84.1433 100.003 84.2927 99.6015 84.498L99.2235 83.714C100.138 83.2753 100.997 83.056 101.8 83.056C102.649 83.056 103.302 83.266 103.76 83.686C104.217 84.0967 104.446 84.6893 104.446 85.464V90H103.438V89.202C103.139 89.51 102.808 89.7433 102.444 89.902C102.08 90.0513 101.688 90.126 101.268 90.126ZM99.7695 88.012C99.7695 88.4133 99.9235 88.7353 100.232 88.978C100.549 89.2207 100.964 89.342 101.478 89.342C101.86 89.342 102.21 89.2767 102.528 89.146C102.854 89.0153 103.158 88.8193 103.438 88.558V87.242C103.148 87.074 102.85 86.9527 102.542 86.878C102.234 86.794 101.888 86.752 101.506 86.752C100.983 86.752 100.563 86.8687 100.246 87.102C99.9282 87.326 99.7695 87.6293 99.7695 88.012ZM106.523 90V83.168H107.545V84.274C107.806 83.8633 108.119 83.56 108.483 83.364C108.847 83.1587 109.257 83.056 109.715 83.056C110.209 83.056 110.639 83.1633 111.003 83.378C111.376 83.5833 111.665 83.8773 111.871 84.26C112.085 84.6333 112.193 85.072 112.193 85.576V90H111.171V85.87C111.171 85.2633 111.003 84.7873 110.667 84.442C110.34 84.0873 109.897 83.91 109.337 83.91C108.963 83.91 108.623 83.9987 108.315 84.176C108.007 84.3533 107.75 84.6147 107.545 84.96V90H106.523ZM116.615 90.112C116.13 90.112 115.7 90.0047 115.327 89.79C114.954 89.5753 114.66 89.2767 114.445 88.894C114.24 88.5113 114.137 88.0727 114.137 87.578V83.168H115.173V87.284C115.173 87.8907 115.336 88.3713 115.663 88.726C115.99 89.0807 116.433 89.258 116.993 89.258C117.376 89.258 117.716 89.1693 118.015 88.992C118.323 88.8147 118.58 88.558 118.785 88.222V83.168H119.807V90H118.785V88.894C118.524 89.2953 118.211 89.5987 117.847 89.804C117.492 90.0093 117.082 90.112 116.615 90.112ZM124.018 90.126C123.532 90.126 123.103 90.0373 122.73 89.86C122.356 89.6827 122.062 89.44 121.848 89.132C121.642 88.8147 121.54 88.4507 121.54 88.04C121.54 87.6293 121.647 87.2747 121.862 86.976C122.076 86.668 122.375 86.43 122.758 86.262C123.14 86.094 123.588 86.01 124.102 86.01C124.494 86.01 124.862 86.052 125.208 86.136C125.562 86.22 125.889 86.3553 126.188 86.542V85.604C126.188 85.044 126.038 84.624 125.74 84.344C125.441 84.0547 125.002 83.91 124.424 83.91C124.106 83.91 123.78 83.9567 123.444 84.05C123.117 84.1433 122.753 84.2927 122.352 84.498L121.974 83.714C122.888 83.2753 123.747 83.056 124.55 83.056C125.399 83.056 126.052 83.266 126.51 83.686C126.967 84.0967 127.196 84.6893 127.196 85.464V90H126.188V89.202C125.889 89.51 125.558 89.7433 125.194 89.902C124.83 90.0513 124.438 90.126 124.018 90.126ZM122.52 88.012C122.52 88.4133 122.674 88.7353 122.982 88.978C123.299 89.2207 123.714 89.342 124.228 89.342C124.61 89.342 124.96 89.2767 125.278 89.146C125.604 89.0153 125.908 88.8193 126.188 88.558V87.242C125.898 87.074 125.6 86.9527 125.292 86.878C124.984 86.794 124.638 86.752 124.256 86.752C123.733 86.752 123.313 86.8687 122.996 87.102C122.678 87.326 122.52 87.6293 122.52 88.012ZM129.273 90V83.168H130.295V84.568C130.472 84.092 130.724 83.7233 131.051 83.462C131.387 83.1913 131.769 83.056 132.199 83.056C132.32 83.056 132.432 83.0653 132.535 83.084C132.637 83.0933 132.74 83.1167 132.843 83.154V84.078C132.731 84.0407 132.609 84.0127 132.479 83.994C132.357 83.966 132.241 83.952 132.129 83.952C131.709 83.952 131.34 84.0733 131.023 84.316C130.715 84.5587 130.472 84.8993 130.295 85.338V90H129.273ZM134.625 93.066C134.411 93.066 134.191 93.0333 133.967 92.968V92.058C134.061 92.0767 134.159 92.0907 134.261 92.1C134.364 92.1093 134.453 92.114 134.527 92.114C134.789 92.114 135.003 92.044 135.171 91.904C135.349 91.764 135.498 91.5447 135.619 91.246L136.123 90L133.491 83.168H134.625L136.697 88.782L138.895 83.168H140.029L136.585 91.554C136.436 91.918 136.273 92.212 136.095 92.436C135.918 92.66 135.713 92.8187 135.479 92.912C135.246 93.0147 134.961 93.066 134.625 93.066ZM144.235 90V89.258L148.155 84.974C148.463 84.638 148.701 84.344 148.869 84.092C149.047 83.8307 149.168 83.588 149.233 83.364C149.308 83.14 149.345 82.902 149.345 82.65C149.345 82.1553 149.149 81.7493 148.757 81.432C148.375 81.1053 147.885 80.942 147.287 80.942C146.83 80.942 146.405 81.0307 146.013 81.208C145.621 81.3853 145.183 81.6933 144.697 82.132L144.109 81.432C144.623 80.9653 145.141 80.62 145.663 80.396C146.186 80.1627 146.732 80.046 147.301 80.046C147.889 80.046 148.412 80.158 148.869 80.382C149.327 80.5967 149.686 80.8953 149.947 81.278C150.209 81.6607 150.339 82.0993 150.339 82.594C150.339 82.9207 150.297 83.224 150.213 83.504C150.129 83.7747 149.98 84.0687 149.765 84.386C149.551 84.694 149.243 85.0673 148.841 85.506L145.495 89.132L150.549 89.118V90H144.235ZM155.811 90.154C155.065 90.154 154.402 89.9393 153.823 89.51C153.254 89.0807 152.806 88.488 152.479 87.732C152.153 86.9667 151.989 86.0893 151.989 85.1C151.989 84.1013 152.153 83.224 152.479 82.468C152.806 81.712 153.254 81.1193 153.823 80.69C154.402 80.2607 155.065 80.046 155.811 80.046C156.558 80.046 157.216 80.2607 157.785 80.69C158.364 81.1193 158.817 81.712 159.143 82.468C159.47 83.224 159.633 84.1013 159.633 85.1C159.633 86.0893 159.47 86.9667 159.143 87.732C158.817 88.488 158.364 89.0807 157.785 89.51C157.216 89.9393 156.558 90.154 155.811 90.154ZM155.811 89.244C156.381 89.244 156.871 89.076 157.281 88.74C157.701 88.3947 158.028 87.914 158.261 87.298C158.495 86.6727 158.611 85.94 158.611 85.1C158.611 84.26 158.495 83.532 158.261 82.916C158.028 82.2907 157.701 81.81 157.281 81.474C156.871 81.1287 156.381 80.956 155.811 80.956C155.251 80.956 154.761 81.1287 154.341 81.474C153.921 81.81 153.595 82.2907 153.361 82.916C153.128 83.532 153.011 84.26 153.011 85.1C153.011 85.94 153.128 86.6727 153.361 87.298C153.595 87.914 153.921 88.3947 154.341 88.74C154.761 89.076 155.251 89.244 155.811 89.244ZM162.439 90V81.292L160.871 81.992V81.068L162.817 80.2H163.447V90H162.439ZM168.622 80.046C169.378 80.046 170.041 80.2467 170.61 80.648C171.189 81.0493 171.641 81.6047 171.968 82.314C172.295 83.014 172.458 83.826 172.458 84.75C172.458 85.8327 172.276 86.78 171.912 87.592C171.548 88.3947 171.035 89.02 170.372 89.468C169.719 89.916 168.949 90.14 168.062 90.14C167.661 90.14 167.255 90.084 166.844 89.972C166.443 89.8507 166.083 89.6873 165.766 89.482L166.27 88.698C166.559 88.866 166.863 88.9967 167.18 89.09C167.507 89.1833 167.829 89.23 168.146 89.23C168.818 89.23 169.397 89.0573 169.882 88.712C170.377 88.3573 170.759 87.8533 171.03 87.2C171.301 86.5373 171.441 85.7533 171.45 84.848C171.086 85.3147 170.652 85.6787 170.148 85.94C169.644 86.2013 169.121 86.332 168.58 86.332C167.945 86.332 167.381 86.2013 166.886 85.94C166.391 85.6693 166.004 85.3053 165.724 84.848C165.444 84.3907 165.304 83.868 165.304 83.28C165.304 82.6547 165.449 82.0993 165.738 81.614C166.027 81.1287 166.419 80.746 166.914 80.466C167.418 80.186 167.987 80.046 168.622 80.046ZM168.72 85.506C169.233 85.506 169.723 85.38 170.19 85.128C170.666 84.8667 171.077 84.512 171.422 84.064C171.357 83.4293 171.198 82.8787 170.946 82.412C170.694 81.9453 170.372 81.5813 169.98 81.32C169.588 81.0587 169.14 80.928 168.636 80.928C168.188 80.928 167.787 81.0307 167.432 81.236C167.087 81.432 166.811 81.7073 166.606 82.062C166.41 82.4073 166.312 82.804 166.312 83.252C166.312 83.6907 166.415 84.0827 166.62 84.428C166.825 84.764 167.105 85.03 167.46 85.226C167.824 85.4127 168.244 85.506 168.72 85.506ZM173.602 92.198L174.442 88.964H175.534L174.4 92.198H173.602ZM183.702 80.046C184.458 80.046 185.121 80.2467 185.69 80.648C186.269 81.0493 186.721 81.6047 187.048 82.314C187.375 83.014 187.538 83.826 187.538 84.75C187.538 85.8327 187.356 86.78 186.992 87.592C186.628 88.3947 186.115 89.02 185.452 89.468C184.799 89.916 184.029 90.14 183.142 90.14C182.741 90.14 182.335 90.084 181.924 89.972C181.523 89.8507 181.163 89.6873 180.846 89.482L181.35 88.698C181.639 88.866 181.943 88.9967 182.26 89.09C182.587 89.1833 182.909 89.23 183.226 89.23C183.898 89.23 184.477 89.0573 184.962 88.712C185.457 88.3573 185.839 87.8533 186.11 87.2C186.381 86.5373 186.521 85.7533 186.53 84.848C186.166 85.3147 185.732 85.6787 185.228 85.94C184.724 86.2013 184.201 86.332 183.66 86.332C183.025 86.332 182.461 86.2013 181.966 85.94C181.471 85.6693 181.084 85.3053 180.804 84.848C180.524 84.3907 180.384 83.868 180.384 83.28C180.384 82.6547 180.529 82.0993 180.818 81.614C181.107 81.1287 181.499 80.746 181.994 80.466C182.498 80.186 183.067 80.046 183.702 80.046ZM183.8 85.506C184.313 85.506 184.803 85.38 185.27 85.128C185.746 84.8667 186.157 84.512 186.502 84.064C186.437 83.4293 186.278 82.8787 186.026 82.412C185.774 81.9453 185.452 81.5813 185.06 81.32C184.668 81.0587 184.22 80.928 183.716 80.928C183.268 80.928 182.867 81.0307 182.512 81.236C182.167 81.432 181.891 81.7073 181.686 82.062C181.49 82.4073 181.392 82.804 181.392 83.252C181.392 83.6907 181.495 84.0827 181.7 84.428C181.905 84.764 182.185 85.03 182.54 85.226C182.904 85.4127 183.324 85.506 183.8 85.506ZM190.088 90.112C189.883 90.112 189.705 90.0373 189.556 89.888C189.416 89.7387 189.346 89.5613 189.346 89.356C189.346 89.1413 189.416 88.964 189.556 88.824C189.705 88.6747 189.883 88.6 190.088 88.6C190.293 88.6 190.466 88.6747 190.606 88.824C190.755 88.964 190.83 89.1413 190.83 89.356C190.83 89.5613 190.755 89.7387 190.606 89.888C190.466 90.0373 190.293 90.112 190.088 90.112ZM190.088 84.554C189.883 84.554 189.705 84.4793 189.556 84.33C189.416 84.1807 189.346 84.0033 189.346 83.798C189.346 83.5833 189.416 83.406 189.556 83.266C189.705 83.1167 189.883 83.042 190.088 83.042C190.293 83.042 190.466 83.1167 190.606 83.266C190.755 83.406 190.83 83.5833 190.83 83.798C190.83 84.0033 190.755 84.1807 190.606 84.33C190.466 84.4793 190.293 84.554 190.088 84.554ZM195.786 90.154C195.114 90.154 194.484 90.0373 193.896 89.804C193.317 89.5707 192.804 89.2253 192.356 88.768L193.028 88.11C193.439 88.5207 193.859 88.8193 194.288 89.006C194.727 89.1833 195.221 89.272 195.772 89.272C196.248 89.272 196.668 89.188 197.032 89.02C197.405 88.852 197.695 88.6187 197.9 88.32C198.105 88.0213 198.208 87.6807 198.208 87.298C198.208 86.934 198.115 86.612 197.928 86.332C197.751 86.0427 197.503 85.8187 197.186 85.66C196.869 85.5013 196.505 85.422 196.094 85.422H194.932V84.554H196.052C196.584 84.554 197.013 84.3907 197.34 84.064C197.676 83.7373 197.844 83.3127 197.844 82.79C197.844 82.4447 197.751 82.132 197.564 81.852C197.377 81.572 197.121 81.3527 196.794 81.194C196.477 81.026 196.117 80.942 195.716 80.942C195.212 80.942 194.759 81.0353 194.358 81.222C193.966 81.3993 193.565 81.7027 193.154 82.132L192.482 81.46C192.921 80.9933 193.415 80.6433 193.966 80.41C194.517 80.1673 195.105 80.046 195.73 80.046C196.327 80.046 196.859 80.1627 197.326 80.396C197.802 80.6293 198.175 80.9513 198.446 81.362C198.717 81.7633 198.852 82.2207 198.852 82.734C198.852 83.2473 198.684 83.7093 198.348 84.12C198.012 84.5213 197.569 84.8013 197.018 84.96C197.681 85.1093 198.213 85.3987 198.614 85.828C199.015 86.2573 199.216 86.7567 199.216 87.326C199.216 87.8673 199.067 88.3527 198.768 88.782C198.479 89.2113 198.073 89.5473 197.55 89.79C197.037 90.0327 196.449 90.154 195.786 90.154ZM204.202 90.154C203.53 90.154 202.933 90.0327 202.41 89.79C201.888 89.5473 201.472 89.216 201.164 88.796C200.866 88.3667 200.716 87.886 200.716 87.354C200.716 86.9527 200.814 86.584 201.01 86.248C201.206 85.9027 201.477 85.6087 201.822 85.366C202.177 85.114 202.578 84.9367 203.026 84.834C202.457 84.6753 201.99 84.3907 201.626 83.98C201.272 83.5693 201.094 83.1073 201.094 82.594C201.094 82.1087 201.23 81.6747 201.5 81.292C201.771 80.9093 202.14 80.606 202.606 80.382C203.082 80.158 203.614 80.046 204.202 80.046C204.8 80.046 205.332 80.158 205.798 80.382C206.265 80.606 206.634 80.9093 206.904 81.292C207.175 81.6747 207.31 82.1087 207.31 82.594C207.31 83.1073 207.133 83.5693 206.778 83.98C206.424 84.3907 205.957 84.6753 205.378 84.834C206.06 84.9927 206.615 85.3053 207.044 85.772C207.474 86.2293 207.688 86.7567 207.688 87.354C207.688 87.886 207.539 88.3667 207.24 88.796C206.942 89.216 206.526 89.5473 205.994 89.79C205.472 90.0327 204.874 90.154 204.202 90.154ZM204.202 84.414C204.604 84.414 204.963 84.3347 205.28 84.176C205.607 84.0173 205.864 83.8073 206.05 83.546C206.237 83.2753 206.33 82.972 206.33 82.636C206.33 82.3 206.237 81.9967 206.05 81.726C205.864 81.4553 205.607 81.2453 205.28 81.096C204.963 80.9373 204.604 80.858 204.202 80.858C203.801 80.858 203.437 80.9373 203.11 81.096C202.793 81.2453 202.541 81.4553 202.354 81.726C202.168 81.9967 202.074 82.3 202.074 82.636C202.074 82.972 202.168 83.2753 202.354 83.546C202.541 83.8073 202.793 84.0173 203.11 84.176C203.437 84.3347 203.801 84.414 204.202 84.414ZM204.202 89.342C204.678 89.342 205.103 89.2533 205.476 89.076C205.85 88.8987 206.144 88.656 206.358 88.348C206.582 88.04 206.694 87.6947 206.694 87.312C206.694 86.9293 206.582 86.584 206.358 86.276C206.144 85.968 205.85 85.7253 205.476 85.548C205.103 85.3707 204.678 85.282 204.202 85.282C203.726 85.282 203.302 85.3707 202.928 85.548C202.555 85.7253 202.256 85.968 202.032 86.276C201.818 86.584 201.71 86.9293 201.71 87.312C201.71 87.6947 201.818 88.04 202.032 88.348C202.256 88.656 202.555 88.8987 202.928 89.076C203.302 89.2533 203.726 89.342 204.202 89.342ZM213.017 90V80.2H217.063C217.698 80.2 218.249 80.3213 218.715 80.564C219.182 80.7973 219.541 81.1333 219.793 81.572C220.055 82.0013 220.185 82.51 220.185 83.098C220.185 83.6767 220.055 84.1853 219.793 84.624C219.541 85.0627 219.182 85.4033 218.715 85.646C218.249 85.8793 217.698 85.996 217.063 85.996H214.095V90H213.017ZM214.095 85.072H216.937C217.619 85.072 218.151 84.8947 218.533 84.54C218.916 84.1853 219.107 83.7047 219.107 83.098C219.107 82.4913 218.916 82.0153 218.533 81.67C218.151 81.3247 217.619 81.152 216.937 81.152H214.095V85.072ZM222.178 90V80.2H223.676L226.952 87.172L230.228 80.2H231.726V90H230.704V81.474L226.952 89.3L223.186 81.446V90H222.178ZM237.49 90V80.2H244.182V81.152H238.568V84.582H242.46V85.52H238.568V89.048H244.238V90H237.49ZM249.322 90.154C248.557 90.154 247.847 90.0187 247.194 89.748C246.541 89.468 245.911 89.048 245.304 88.488L245.962 87.704C246.55 88.2547 247.101 88.6467 247.614 88.88C248.137 89.1133 248.715 89.23 249.35 89.23C249.854 89.23 250.302 89.146 250.694 88.978C251.095 88.8007 251.408 88.5627 251.632 88.264C251.856 87.9653 251.968 87.6247 251.968 87.242C251.968 86.7473 251.805 86.374 251.478 86.122C251.151 85.8607 250.587 85.66 249.784 85.52L248.202 85.254C247.306 85.0953 246.648 84.8247 246.228 84.442C245.817 84.05 245.612 83.5273 245.612 82.874C245.612 82.3233 245.752 81.838 246.032 81.418C246.321 80.9887 246.718 80.6527 247.222 80.41C247.726 80.1673 248.309 80.046 248.972 80.046C249.7 80.046 250.377 80.1487 251.002 80.354C251.627 80.55 252.243 80.8627 252.85 81.292L252.29 82.132C251.786 81.7493 251.254 81.46 250.694 81.264C250.134 81.0587 249.565 80.956 248.986 80.956C248.529 80.956 248.123 81.0353 247.768 81.194C247.423 81.3527 247.147 81.5673 246.942 81.838C246.746 82.1087 246.648 82.4167 246.648 82.762C246.648 83.1913 246.793 83.5273 247.082 83.77C247.371 84.0127 247.843 84.1853 248.496 84.288L250.064 84.554C251.109 84.7407 251.865 85.044 252.332 85.464C252.808 85.8747 253.046 86.4487 253.046 87.186C253.046 87.7553 252.883 88.264 252.556 88.712C252.239 89.16 251.8 89.5147 251.24 89.776C250.68 90.028 250.041 90.154 249.322 90.154ZM257.21 90V81.152H253.822V80.2H261.676V81.152H258.288V90H257.21Z" fill="#4D4D4D"/>
<line x1="11.5" y1="95.5" x2="262.5" y2="95.5" stroke="#707070" stroke-linecap="round" stroke-dasharray="2 2"/>
<path d="M50 99.3333C48.5272 99.3333 47.3333 100.527 47.3333 102C47.3333 103.473 48.5272 104.667 50 104.667C51.4728 104.667 52.6667 103.473 52.6667 102C52.6667 100.527 51.4728 99.3333 50 99.3333ZM50 102L49.5 102L49.5 130L50 130L50.5 130L50.5 102L50 102Z" fill="#C806CC"/>
<path d="M31 134C31 131.791 32.7909 130 35 130H65C67.2091 130 69 131.791 69 134V158C69 160.209 67.2091 162 65 162H35C32.7909 162 31 160.209 31 158V134Z" fill="#C806CC"/>
<path d="M49.8879 152V141.254L47.6199 142.208V140.624L50.5359 139.4H51.6699V152H49.8879Z" fill="white"/>
<path d="M147 99.3333C145.527 99.3333 144.333 100.527 144.333 102C144.333 103.473 145.527 104.667 147 104.667C148.473 104.667 149.667 103.473 149.667 102C149.667 100.527 148.473 99.3333 147 99.3333ZM147 102L146.5 102L146.5 130L147 130L147.5 130L147.5 102L147 102Z" fill="#C806CC"/>
<path d="M126 134C126 131.791 127.791 130 130 130H164C166.209 130 168 131.791 168 134V158C168 160.209 166.209 162 164 162H130C127.791 162 126 160.209 126 158V134Z" fill="#C806CC"/>
<path d="M142.89 152V150.74L148.002 145.304C148.518 144.764 148.866 144.302 149.046 143.918C149.238 143.534 149.334 143.126 149.334 142.694C149.334 142.13 149.106 141.662 148.65 141.29C148.194 140.918 147.618 140.732 146.922 140.732C146.346 140.732 145.806 140.846 145.302 141.074C144.798 141.302 144.24 141.698 143.628 142.262L142.656 141.074C143.988 139.826 145.422 139.202 146.958 139.202C147.762 139.202 148.47 139.346 149.082 139.634C149.694 139.922 150.168 140.324 150.504 140.84C150.852 141.344 151.026 141.926 151.026 142.586C151.026 143.006 150.972 143.396 150.864 143.756C150.756 144.104 150.57 144.476 150.306 144.872C150.042 145.256 149.67 145.7 149.19 146.204L145.086 150.524L151.278 150.506V152H142.89Z" fill="white"/>
<path d="M198.5 99.3333C197.027 99.3333 195.833 100.527 195.833 102C195.833 103.473 197.027 104.667 198.5 104.667C199.973 104.667 201.167 103.473 201.167 102C201.167 100.527 199.973 99.3333 198.5 99.3333ZM198.5 102L198 102L198 130L198.5 130L199 130L199 102L198.5 102Z" fill="#C806CC"/>
<path d="M177 134C177 131.791 178.791 130 181 130H216C218.209 130 220 131.791 220 134V158C220 160.209 218.209 162 216 162H181C178.791 162 177 160.209 177 158V134Z" fill="#C806CC"/>
<path d="M198.359 152.198C197.459 152.198 196.613 152.042 195.821 151.73C195.041 151.406 194.363 150.944 193.787 150.344L194.957 149.228C195.461 149.756 195.971 150.134 196.487 150.362C197.015 150.578 197.633 150.686 198.341 150.686C199.193 150.686 199.883 150.476 200.411 150.056C200.951 149.636 201.221 149.096 201.221 148.436C201.221 147.812 200.993 147.308 200.537 146.924C200.093 146.54 199.517 146.348 198.809 146.348H197.279V144.89H198.683C199.319 144.89 199.829 144.704 200.213 144.332C200.597 143.96 200.789 143.474 200.789 142.874C200.789 142.466 200.681 142.106 200.465 141.794C200.249 141.47 199.949 141.218 199.565 141.038C199.193 140.846 198.767 140.75 198.287 140.75C197.651 140.75 197.087 140.864 196.595 141.092C196.115 141.308 195.617 141.692 195.101 142.244L193.931 141.128C194.507 140.504 195.173 140.03 195.929 139.706C196.685 139.37 197.483 139.202 198.323 139.202C199.139 139.202 199.859 139.352 200.483 139.652C201.119 139.952 201.617 140.366 201.977 140.894C202.349 141.422 202.535 142.028 202.535 142.712C202.535 143.384 202.313 143.978 201.869 144.494C201.437 145.01 200.867 145.37 200.159 145.574C201.011 145.754 201.689 146.114 202.193 146.654C202.697 147.182 202.949 147.806 202.949 148.526C202.949 149.234 202.751 149.864 202.355 150.416C201.971 150.968 201.431 151.406 200.735 151.73C200.039 152.042 199.247 152.198 198.359 152.198Z" fill="white"/>
<path d="M246 99.3333C244.527 99.3333 243.333 100.527 243.333 102C243.333 103.473 244.527 104.667 246 104.667C247.473 104.667 248.667 103.473 248.667 102C248.667 100.527 247.473 99.3333 246 99.3333ZM246 102L245.5 102L245.5 130L246 130L246.5 130L246.5 102L246 102Z" fill="#C806CC"/>
<path d="M224 134C224 131.791 225.791 130 228 130H264C266.209 130 268 131.791 268 134V158C268 160.209 266.209 162 264 162H228C225.791 162 224 160.209 224 158V134Z" fill="#C806CC"/>
<path d="M247.866 152V148.796H240.72V147.374L247.65 139.4H249.648V147.284H251.178V148.796H249.648V152H247.866ZM242.862 147.284H247.866V141.524L242.862 147.284Z" fill="white"/>
<g filter="url(#filter0_d_1896_8785)">
<path d="M9 26C9 22.6863 11.6863 20 15 20H279C282.314 20 285 22.6863 285 26V48C285 51.3137 282.314 54 279 54H15C11.6863 54 9 51.3137 9 48V26Z" fill="#292929"/>
<path d="M42.6384 41V33.416H39.7344V32.6H46.4664V33.416H43.5624V41H42.6384ZM47.7047 41V32.336L48.5807 32.156V36.092C48.8047 35.74 49.0727 35.48 49.3847 35.312C49.6967 35.136 50.0487 35.048 50.4407 35.048C50.8647 35.048 51.2327 35.14 51.5447 35.324C51.8647 35.5 52.1127 35.752 52.2887 36.08C52.4727 36.4 52.5647 36.776 52.5647 37.208V41H51.6887V37.46C51.6887 36.94 51.5447 36.532 51.2567 36.236C50.9767 35.932 50.5967 35.78 50.1167 35.78C49.7967 35.78 49.5047 35.856 49.2407 36.008C48.9767 36.16 48.7567 36.384 48.5807 36.68V41H47.7047ZM56.3552 41.096C55.9392 41.096 55.5712 41.004 55.2512 40.82C54.9312 40.636 54.6792 40.38 54.4952 40.052C54.3192 39.724 54.2312 39.348 54.2312 38.924V35.144H55.1192V38.672C55.1192 39.192 55.2592 39.604 55.5392 39.908C55.8192 40.212 56.1992 40.364 56.6792 40.364C57.0072 40.364 57.2992 40.288 57.5552 40.136C57.8192 39.984 58.0392 39.764 58.2152 39.476V35.144H59.0912V41H58.2152V40.052C57.9912 40.396 57.7232 40.656 57.4112 40.832C57.1072 41.008 56.7552 41.096 56.3552 41.096ZM60.8883 41V35.144H61.7643V36.344C61.9163 35.936 62.1323 35.62 62.4123 35.396C62.7003 35.164 63.0283 35.048 63.3963 35.048C63.5003 35.048 63.5963 35.056 63.6843 35.072C63.7723 35.08 63.8603 35.1 63.9483 35.132V35.924C63.8523 35.892 63.7483 35.868 63.6363 35.852C63.5323 35.828 63.4323 35.816 63.3363 35.816C62.9763 35.816 62.6603 35.92 62.3883 36.128C62.1243 36.336 61.9163 36.628 61.7643 37.004V41H60.8883ZM66.8604 41.12C66.3804 41.12 65.9364 41.048 65.5284 40.904C65.1204 40.752 64.7724 40.536 64.4844 40.256L64.9524 39.68C65.3044 39.936 65.6284 40.124 65.9244 40.244C66.2204 40.356 66.5244 40.412 66.8364 40.412C67.2604 40.412 67.6124 40.312 67.8924 40.112C68.1724 39.912 68.3124 39.656 68.3124 39.344C68.3124 39.104 68.2284 38.916 68.0604 38.78C67.9004 38.644 67.6324 38.54 67.2564 38.468L66.2964 38.3C65.7284 38.196 65.3084 38.02 65.0364 37.772C64.7724 37.524 64.6404 37.188 64.6404 36.764C64.6404 36.428 64.7284 36.132 64.9044 35.876C65.0884 35.62 65.3404 35.42 65.6604 35.276C65.9804 35.124 66.3444 35.048 66.7524 35.048C67.1524 35.048 67.5324 35.108 67.8924 35.228C68.2524 35.34 68.6164 35.524 68.9844 35.78L68.5524 36.392C68.2484 36.176 67.9444 36.02 67.6404 35.924C67.3364 35.82 67.0284 35.768 66.7164 35.768C66.3324 35.768 66.0244 35.852 65.7924 36.02C65.5604 36.188 65.4444 36.416 65.4444 36.704C65.4444 36.944 65.5164 37.128 65.6604 37.256C65.8124 37.384 66.0764 37.48 66.4524 37.544L67.4364 37.724C68.0284 37.828 68.4604 38.008 68.7324 38.264C69.0044 38.52 69.1404 38.864 69.1404 39.296C69.1404 39.64 69.0404 39.952 68.8404 40.232C68.6404 40.504 68.3684 40.72 68.0244 40.88C67.6804 41.04 67.2924 41.12 66.8604 41.12ZM72.9688 41.084C72.4648 41.084 72.0088 40.952 71.6008 40.688C71.1928 40.416 70.8688 40.056 70.6288 39.608C70.3888 39.152 70.2688 38.644 70.2688 38.084C70.2688 37.516 70.3888 37.008 70.6288 36.56C70.8768 36.104 71.2088 35.744 71.6248 35.48C72.0408 35.208 72.5048 35.072 73.0168 35.072C73.3768 35.072 73.7128 35.144 74.0248 35.288C74.3368 35.424 74.6088 35.624 74.8408 35.888V32.336L75.7168 32.156V41H74.8408V40.22C74.6168 40.5 74.3448 40.716 74.0248 40.868C73.7048 41.012 73.3528 41.084 72.9688 41.084ZM73.1848 40.316C73.5288 40.316 73.8448 40.248 74.1328 40.112C74.4208 39.976 74.6568 39.784 74.8408 39.536V36.632C74.6488 36.384 74.4048 36.192 74.1088 36.056C73.8208 35.912 73.5128 35.84 73.1848 35.84C72.7928 35.84 72.4408 35.936 72.1288 36.128C71.8248 36.32 71.5808 36.584 71.3968 36.92C71.2208 37.256 71.1328 37.64 71.1328 38.072C71.1328 38.496 71.2208 38.88 71.3968 39.224C71.5808 39.56 71.8248 39.828 72.1288 40.028C72.4408 40.22 72.7928 40.316 73.1848 40.316ZM79.3292 41.108C78.9132 41.108 78.5452 41.032 78.2252 40.88C77.9052 40.728 77.6532 40.52 77.4692 40.256C77.2932 39.984 77.2052 39.672 77.2052 39.32C77.2052 38.968 77.2972 38.664 77.4812 38.408C77.6652 38.144 77.9212 37.94 78.2492 37.796C78.5772 37.652 78.9612 37.58 79.4012 37.58C79.7372 37.58 80.0532 37.616 80.3492 37.688C80.6532 37.76 80.9332 37.876 81.1892 38.036V37.232C81.1892 36.752 81.0612 36.392 80.8052 36.152C80.5492 35.904 80.1732 35.78 79.6772 35.78C79.4052 35.78 79.1252 35.82 78.8372 35.9C78.5572 35.98 78.2452 36.108 77.9012 36.284L77.5772 35.612C78.3612 35.236 79.0972 35.048 79.7852 35.048C80.5132 35.048 81.0732 35.228 81.4652 35.588C81.8572 35.94 82.0532 36.448 82.0532 37.112V41H81.1892V40.316C80.9332 40.58 80.6492 40.78 80.3372 40.916C80.0252 41.044 79.6892 41.108 79.3292 41.108ZM78.0452 39.296C78.0452 39.64 78.1772 39.916 78.4412 40.124C78.7132 40.332 79.0692 40.436 79.5092 40.436C79.8372 40.436 80.1372 40.38 80.4092 40.268C80.6892 40.156 80.9492 39.988 81.1892 39.764V38.636C80.9412 38.492 80.6852 38.388 80.4212 38.324C80.1572 38.252 79.8612 38.216 79.5332 38.216C79.0852 38.216 78.7252 38.316 78.4532 38.516C78.1812 38.708 78.0452 38.968 78.0452 39.296ZM83.9684 43.628C83.7844 43.628 83.5964 43.6 83.4044 43.544V42.764C83.4844 42.78 83.5684 42.792 83.6564 42.8C83.7444 42.808 83.8204 42.812 83.8844 42.812C84.1084 42.812 84.2924 42.752 84.4364 42.632C84.5884 42.512 84.7164 42.324 84.8204 42.068L85.2524 41L82.9964 35.144H83.9684L85.7444 39.956L87.6284 35.144H88.6004L85.6484 42.332C85.5204 42.644 85.3804 42.896 85.2284 43.088C85.0764 43.28 84.9004 43.416 84.7004 43.496C84.5004 43.584 84.2564 43.628 83.9684 43.628ZM88.6078 42.884L89.3278 40.112H90.2638L89.2918 42.884H88.6078ZM94.4206 41V40.364L97.7806 36.692C98.0446 36.404 98.2486 36.152 98.3926 35.936C98.5446 35.712 98.6486 35.504 98.7046 35.312C98.7686 35.12 98.8006 34.916 98.8006 34.7C98.8006 34.276 98.6326 33.928 98.2966 33.656C97.9686 33.376 97.5486 33.236 97.0366 33.236C96.6446 33.236 96.2806 33.312 95.9446 33.464C95.6086 33.616 95.2326 33.88 94.8166 34.256L94.3126 33.656C94.7526 33.256 95.1966 32.96 95.6446 32.768C96.0926 32.568 96.5606 32.468 97.0486 32.468C97.5526 32.468 98.0006 32.564 98.3926 32.756C98.7846 32.94 99.0926 33.196 99.3166 33.524C99.5406 33.852 99.6526 34.228 99.6526 34.652C99.6526 34.932 99.6166 35.192 99.5446 35.432C99.4726 35.664 99.3446 35.916 99.1606 36.188C98.9766 36.452 98.7126 36.772 98.3686 37.148L95.5006 40.256L99.8326 40.244V41H94.4206ZM102.219 41V33.536L100.875 34.136V33.344L102.543 32.6H103.083V41H102.219ZM110.067 41.132C109.355 41.132 108.735 40.944 108.207 40.568C107.687 40.192 107.311 39.664 107.079 38.984L107.919 38.648C108.119 39.184 108.399 39.592 108.759 39.872C109.119 40.152 109.559 40.292 110.079 40.292C110.735 40.292 111.259 40.068 111.651 39.62C112.043 39.172 112.239 38.572 112.239 37.82V32.6H113.163V37.832C113.163 38.504 113.035 39.088 112.779 39.584C112.531 40.08 112.175 40.464 111.711 40.736C111.247 41 110.699 41.132 110.067 41.132ZM116.771 41.108C116.355 41.108 115.987 41.032 115.667 40.88C115.347 40.728 115.095 40.52 114.911 40.256C114.735 39.984 114.647 39.672 114.647 39.32C114.647 38.968 114.739 38.664 114.923 38.408C115.107 38.144 115.363 37.94 115.691 37.796C116.019 37.652 116.403 37.58 116.843 37.58C117.179 37.58 117.495 37.616 117.791 37.688C118.095 37.76 118.375 37.876 118.631 38.036V37.232C118.631 36.752 118.503 36.392 118.247 36.152C117.991 35.904 117.615 35.78 117.119 35.78C116.847 35.78 116.567 35.82 116.279 35.9C115.999 35.98 115.687 36.108 115.343 36.284L115.019 35.612C115.803 35.236 116.539 35.048 117.227 35.048C117.955 35.048 118.515 35.228 118.907 35.588C119.299 35.94 119.495 36.448 119.495 37.112V41H118.631V40.316C118.375 40.58 118.091 40.78 117.779 40.916C117.467 41.044 117.131 41.108 116.771 41.108ZM115.487 39.296C115.487 39.64 115.619 39.916 115.883 40.124C116.155 40.332 116.511 40.436 116.951 40.436C117.279 40.436 117.579 40.38 117.851 40.268C118.131 40.156 118.391 39.988 118.631 39.764V38.636C118.383 38.492 118.127 38.388 117.863 38.324C117.599 38.252 117.303 38.216 116.975 38.216C116.527 38.216 116.167 38.316 115.895 38.516C115.623 38.708 115.487 38.968 115.487 39.296ZM121.275 41V35.144H122.151V36.092C122.375 35.74 122.643 35.48 122.955 35.312C123.267 35.136 123.619 35.048 124.011 35.048C124.435 35.048 124.803 35.14 125.115 35.324C125.435 35.5 125.683 35.752 125.859 36.08C126.043 36.4 126.135 36.776 126.135 37.208V41H125.259V37.46C125.259 36.94 125.115 36.532 124.827 36.236C124.547 35.932 124.167 35.78 123.687 35.78C123.367 35.78 123.075 35.856 122.811 36.008C122.547 36.16 122.327 36.384 122.151 36.68V41H121.275ZM129.926 41.096C129.51 41.096 129.142 41.004 128.822 40.82C128.502 40.636 128.25 40.38 128.066 40.052C127.89 39.724 127.802 39.348 127.802 38.924V35.144H128.69V38.672C128.69 39.192 128.83 39.604 129.11 39.908C129.39 40.212 129.77 40.364 130.25 40.364C130.578 40.364 130.87 40.288 131.126 40.136C131.39 39.984 131.61 39.764 131.786 39.476V35.144H132.662V41H131.786V40.052C131.562 40.396 131.294 40.656 130.982 40.832C130.678 41.008 130.326 41.096 129.926 41.096ZM136.271 41.108C135.855 41.108 135.487 41.032 135.167 40.88C134.847 40.728 134.595 40.52 134.411 40.256C134.235 39.984 134.147 39.672 134.147 39.32C134.147 38.968 134.239 38.664 134.423 38.408C134.607 38.144 134.863 37.94 135.191 37.796C135.519 37.652 135.903 37.58 136.343 37.58C136.679 37.58 136.995 37.616 137.291 37.688C137.595 37.76 137.875 37.876 138.131 38.036V37.232C138.131 36.752 138.003 36.392 137.747 36.152C137.491 35.904 137.115 35.78 136.619 35.78C136.347 35.78 136.067 35.82 135.779 35.9C135.499 35.98 135.187 36.108 134.843 36.284L134.519 35.612C135.303 35.236 136.039 35.048 136.727 35.048C137.455 35.048 138.015 35.228 138.407 35.588C138.799 35.94 138.995 36.448 138.995 37.112V41H138.131V40.316C137.875 40.58 137.591 40.78 137.279 40.916C136.967 41.044 136.631 41.108 136.271 41.108ZM134.987 39.296C134.987 39.64 135.119 39.916 135.383 40.124C135.655 40.332 136.011 40.436 136.451 40.436C136.779 40.436 137.079 40.38 137.351 40.268C137.631 40.156 137.891 39.988 138.131 39.764V38.636C137.883 38.492 137.627 38.388 137.363 38.324C137.099 38.252 136.803 38.216 136.475 38.216C136.027 38.216 135.667 38.316 135.395 38.516C135.123 38.708 134.987 38.968 134.987 39.296ZM140.775 41V35.144H141.651V36.344C141.803 35.936 142.019 35.62 142.299 35.396C142.587 35.164 142.915 35.048 143.283 35.048C143.387 35.048 143.483 35.056 143.571 35.072C143.659 35.08 143.747 35.1 143.835 35.132V35.924C143.739 35.892 143.635 35.868 143.523 35.852C143.419 35.828 143.319 35.816 143.223 35.816C142.863 35.816 142.547 35.92 142.275 36.128C142.011 36.336 141.803 36.628 141.651 37.004V41H140.775ZM145.363 43.628C145.179 43.628 144.991 43.6 144.799 43.544V42.764C144.879 42.78 144.963 42.792 145.051 42.8C145.139 42.808 145.215 42.812 145.279 42.812C145.503 42.812 145.687 42.752 145.831 42.632C145.983 42.512 146.111 42.324 146.215 42.068L146.647 41L144.391 35.144H145.363L147.139 39.956L149.023 35.144H149.995L147.043 42.332C146.915 42.644 146.775 42.896 146.623 43.088C146.471 43.28 146.295 43.416 146.095 43.496C145.895 43.584 145.651 43.628 145.363 43.628ZM153.6 41V40.364L156.96 36.692C157.224 36.404 157.428 36.152 157.572 35.936C157.724 35.712 157.828 35.504 157.884 35.312C157.948 35.12 157.98 34.916 157.98 34.7C157.98 34.276 157.812 33.928 157.476 33.656C157.148 33.376 156.728 33.236 156.216 33.236C155.824 33.236 155.46 33.312 155.124 33.464C154.788 33.616 154.412 33.88 153.996 34.256L153.492 33.656C153.932 33.256 154.376 32.96 154.824 32.768C155.272 32.568 155.74 32.468 156.228 32.468C156.732 32.468 157.18 32.564 157.572 32.756C157.964 32.94 158.272 33.196 158.496 33.524C158.72 33.852 158.832 34.228 158.832 34.652C158.832 34.932 158.796 35.192 158.724 35.432C158.652 35.664 158.524 35.916 158.34 36.188C158.156 36.452 157.892 36.772 157.548 37.148L154.68 40.256L159.012 40.244V41H153.6ZM163.523 41.132C162.883 41.132 162.315 40.948 161.819 40.58C161.331 40.212 160.947 39.704 160.667 39.056C160.387 38.4 160.247 37.648 160.247 36.8C160.247 35.944 160.387 35.192 160.667 34.544C160.947 33.896 161.331 33.388 161.819 33.02C162.315 32.652 162.883 32.468 163.523 32.468C164.163 32.468 164.727 32.652 165.215 33.02C165.711 33.388 166.099 33.896 166.379 34.544C166.659 35.192 166.799 35.944 166.799 36.8C166.799 37.648 166.659 38.4 166.379 39.056C166.099 39.704 165.711 40.212 165.215 40.58C164.727 40.948 164.163 41.132 163.523 41.132ZM163.523 40.352C164.011 40.352 164.431 40.208 164.783 39.92C165.143 39.624 165.423 39.212 165.622 38.684C165.823 38.148 165.923 37.52 165.923 36.8C165.923 36.08 165.823 35.456 165.622 34.928C165.423 34.392 165.143 33.98 164.783 33.692C164.431 33.396 164.011 33.248 163.523 33.248C163.043 33.248 162.623 33.396 162.263 33.692C161.903 33.98 161.623 34.392 161.423 34.928C161.223 35.456 161.123 36.08 161.123 36.8C161.123 37.52 161.223 38.148 161.423 38.684C161.623 39.212 161.903 39.624 162.263 39.92C162.623 40.208 163.043 40.352 163.523 40.352ZM169.203 41V33.536L167.859 34.136V33.344L169.527 32.6H170.067V41H169.203ZM174.503 32.468C175.151 32.468 175.719 32.64 176.207 32.984C176.703 33.328 177.091 33.804 177.371 34.412C177.651 35.012 177.791 35.708 177.791 36.5C177.791 37.428 177.635 38.24 177.323 38.936C177.011 39.624 176.571 40.16 176.003 40.544C175.443 40.928 174.783 41.12 174.023 41.12C173.679 41.12 173.331 41.072 172.979 40.976C172.635 40.872 172.327 40.732 172.055 40.556L172.487 39.884C172.735 40.028 172.995 40.14 173.267 40.22C173.547 40.3 173.823 40.34 174.095 40.34C174.671 40.34 175.167 40.192 175.583 39.896C176.007 39.592 176.335 39.16 176.567 38.6C176.799 38.032 176.919 37.36 176.927 36.584C176.615 36.984 176.243 37.296 175.811 37.52C175.379 37.744 174.931 37.856 174.467 37.856C173.923 37.856 173.439 37.744 173.015 37.52C172.591 37.288 172.259 36.976 172.019 36.584C171.779 36.192 171.659 35.744 171.659 35.24C171.659 34.704 171.783 34.228 172.031 33.812C172.279 33.396 172.615 33.068 173.039 32.828C173.471 32.588 173.959 32.468 174.503 32.468ZM174.587 37.148C175.027 37.148 175.447 37.04 175.847 36.824C176.255 36.6 176.607 36.296 176.903 35.912C176.847 35.368 176.711 34.896 176.495 34.496C176.279 34.096 176.003 33.784 175.667 33.56C175.331 33.336 174.947 33.224 174.515 33.224C174.131 33.224 173.787 33.312 173.483 33.488C173.187 33.656 172.951 33.892 172.775 34.196C172.607 34.492 172.523 34.832 172.523 35.216C172.523 35.592 172.611 35.928 172.787 36.224C172.963 36.512 173.203 36.74 173.507 36.908C173.819 37.068 174.179 37.148 174.587 37.148ZM178.772 42.884L179.492 40.112H180.428L179.456 42.884H178.772ZM187.429 32.468C188.077 32.468 188.645 32.64 189.133 32.984C189.629 33.328 190.017 33.804 190.297 34.412C190.577 35.012 190.717 35.708 190.717 36.5C190.717 37.428 190.561 38.24 190.249 38.936C189.937 39.624 189.497 40.16 188.929 40.544C188.369 40.928 187.709 41.12 186.949 41.12C186.605 41.12 186.257 41.072 185.905 40.976C185.561 40.872 185.253 40.732 184.981 40.556L185.413 39.884C185.661 40.028 185.921 40.14 186.193 40.22C186.473 40.3 186.749 40.34 187.021 40.34C187.597 40.34 188.093 40.192 188.509 39.896C188.933 39.592 189.261 39.16 189.493 38.6C189.725 38.032 189.845 37.36 189.853 36.584C189.541 36.984 189.169 37.296 188.737 37.52C188.305 37.744 187.857 37.856 187.393 37.856C186.849 37.856 186.365 37.744 185.941 37.52C185.517 37.288 185.185 36.976 184.945 36.584C184.705 36.192 184.585 35.744 184.585 35.24C184.585 34.704 184.709 34.228 184.957 33.812C185.205 33.396 185.541 33.068 185.965 32.828C186.397 32.588 186.885 32.468 187.429 32.468ZM187.513 37.148C187.953 37.148 188.373 37.04 188.773 36.824C189.181 36.6 189.533 36.296 189.829 35.912C189.773 35.368 189.637 34.896 189.421 34.496C189.205 34.096 188.929 33.784 188.593 33.56C188.257 33.336 187.873 33.224 187.441 33.224C187.057 33.224 186.713 33.312 186.409 33.488C186.113 33.656 185.877 33.892 185.701 34.196C185.533 34.492 185.449 34.832 185.449 35.216C185.449 35.592 185.537 35.928 185.713 36.224C185.889 36.512 186.129 36.74 186.433 36.908C186.745 37.068 187.105 37.148 187.513 37.148ZM192.902 41.096C192.726 41.096 192.574 41.032 192.446 40.904C192.326 40.776 192.266 40.624 192.266 40.448C192.266 40.264 192.326 40.112 192.446 39.992C192.574 39.864 192.726 39.8 192.902 39.8C193.078 39.8 193.226 39.864 193.346 39.992C193.474 40.112 193.538 40.264 193.538 40.448C193.538 40.624 193.474 40.776 193.346 40.904C193.226 41.032 193.078 41.096 192.902 41.096ZM192.902 36.332C192.726 36.332 192.574 36.268 192.446 36.14C192.326 36.012 192.266 35.86 192.266 35.684C192.266 35.5 192.326 35.348 192.446 35.228C192.574 35.1 192.726 35.036 192.902 35.036C193.078 35.036 193.226 35.1 193.346 35.228C193.474 35.348 193.538 35.5 193.538 35.684C193.538 35.86 193.474 36.012 193.346 36.14C193.226 36.268 193.078 36.332 192.902 36.332ZM197.786 41.132C197.21 41.132 196.67 41.032 196.166 40.832C195.67 40.632 195.23 40.336 194.846 39.944L195.422 39.38C195.774 39.732 196.134 39.988 196.502 40.148C196.878 40.3 197.302 40.376 197.774 40.376C198.182 40.376 198.542 40.304 198.854 40.16C199.174 40.016 199.422 39.816 199.598 39.56C199.774 39.304 199.862 39.012 199.862 38.684C199.862 38.372 199.782 38.096 199.622 37.856C199.47 37.608 199.258 37.416 198.986 37.28C198.714 37.144 198.402 37.076 198.05 37.076H197.054V36.332H198.014C198.47 36.332 198.838 36.192 199.118 35.912C199.406 35.632 199.55 35.268 199.55 34.82C199.55 34.524 199.47 34.256 199.31 34.016C199.15 33.776 198.93 33.588 198.65 33.452C198.378 33.308 198.07 33.236 197.726 33.236C197.294 33.236 196.906 33.316 196.562 33.476C196.226 33.628 195.882 33.888 195.53 34.256L194.954 33.68C195.33 33.28 195.754 32.98 196.226 32.78C196.698 32.572 197.202 32.468 197.738 32.468C198.25 32.468 198.706 32.568 199.106 32.768C199.514 32.968 199.834 33.244 200.066 33.596C200.298 33.94 200.414 34.332 200.414 34.772C200.414 35.212 200.27 35.608 199.982 35.96C199.694 36.304 199.314 36.544 198.842 36.68C199.41 36.808 199.866 37.056 200.21 37.424C200.554 37.792 200.726 38.22 200.726 38.708C200.726 39.172 200.598 39.588 200.342 39.956C200.094 40.324 199.746 40.612 199.298 40.82C198.858 41.028 198.354 41.132 197.786 41.132ZM205 41.132C204.424 41.132 203.912 41.028 203.464 40.82C203.016 40.612 202.66 40.328 202.396 39.968C202.14 39.6 202.012 39.188 202.012 38.732C202.012 38.388 202.096 38.072 202.264 37.784C202.432 37.488 202.664 37.236 202.96 37.028C203.264 36.812 203.608 36.66 203.992 36.572C203.504 36.436 203.104 36.192 202.792 35.84C202.488 35.488 202.336 35.092 202.336 34.652C202.336 34.236 202.452 33.864 202.684 33.536C202.916 33.208 203.232 32.948 203.632 32.756C204.04 32.564 204.496 32.468 205 32.468C205.512 32.468 205.968 32.564 206.368 32.756C206.768 32.948 207.084 33.208 207.316 33.536C207.548 33.864 207.664 34.236 207.664 34.652C207.664 35.092 207.512 35.488 207.208 35.84C206.904 36.192 206.504 36.436 206.008 36.572C206.592 36.708 207.068 36.976 207.436 37.376C207.804 37.768 207.988 38.22 207.988 38.732C207.988 39.188 207.86 39.6 207.604 39.968C207.348 40.328 206.992 40.612 206.536 40.82C206.088 41.028 205.576 41.132 205 41.132ZM205 36.212C205.344 36.212 205.652 36.144 205.924 36.008C206.204 35.872 206.424 35.692 206.584 35.468C206.744 35.236 206.824 34.976 206.824 34.688C206.824 34.4 206.744 34.14 206.584 33.908C206.424 33.676 206.204 33.496 205.924 33.368C205.652 33.232 205.344 33.164 205 33.164C204.656 33.164 204.344 33.232 204.064 33.368C203.792 33.496 203.576 33.676 203.416 33.908C203.256 34.14 203.176 34.4 203.176 34.688C203.176 34.976 203.256 35.236 203.416 35.468C203.576 35.692 203.792 35.872 204.064 36.008C204.344 36.144 204.656 36.212 205 36.212ZM205 40.436C205.408 40.436 205.772 40.36 206.092 40.208C206.412 40.056 206.664 39.848 206.848 39.584C207.04 39.32 207.136 39.024 207.136 38.696C207.136 38.368 207.04 38.072 206.848 37.808C206.664 37.544 206.412 37.336 206.092 37.184C205.772 37.032 205.408 36.956 205 36.956C204.592 36.956 204.228 37.032 203.908 37.184C203.588 37.336 203.332 37.544 203.14 37.808C202.956 38.072 202.864 38.368 202.864 38.696C202.864 39.024 202.956 39.32 203.14 39.584C203.332 39.848 203.588 40.056 203.908 40.208C204.228 40.36 204.592 40.436 205 40.436ZM212.556 41V32.6H216.024C216.568 32.6 217.04 32.704 217.44 32.912C217.84 33.112 218.148 33.4 218.364 33.776C218.588 34.144 218.7 34.58 218.7 35.084C218.7 35.58 218.588 36.016 218.364 36.392C218.148 36.768 217.84 37.06 217.44 37.268C217.04 37.468 216.568 37.568 216.024 37.568H213.48V41H212.556ZM213.48 36.776H215.916C216.5 36.776 216.956 36.624 217.284 36.32C217.612 36.016 217.776 35.604 217.776 35.084C217.776 34.564 217.612 34.156 217.284 33.86C216.956 33.564 216.5 33.416 215.916 33.416H213.48V36.776ZM220.408 41V32.6H221.692L224.5 38.576L227.308 32.6H228.592V41H227.716V33.692L224.5 40.4L221.272 33.668V41H220.408ZM233.533 41V32.6H239.269V33.416H234.457V36.356H237.793V37.16H234.457V40.184H239.317V41H233.533ZM243.675 41.132C243.019 41.132 242.411 41.016 241.851 40.784C241.291 40.544 240.751 40.184 240.231 39.704L240.795 39.032C241.299 39.504 241.771 39.84 242.211 40.04C242.659 40.24 243.155 40.34 243.699 40.34C244.131 40.34 244.515 40.268 244.851 40.124C245.195 39.972 245.463 39.768 245.655 39.512C245.847 39.256 245.943 38.964 245.943 38.636C245.943 38.212 245.803 37.892 245.523 37.676C245.243 37.452 244.759 37.28 244.071 37.16L242.715 36.932C241.947 36.796 241.383 36.564 241.023 36.236C240.671 35.9 240.495 35.452 240.495 34.892C240.495 34.42 240.615 34.004 240.855 33.644C241.103 33.276 241.443 32.988 241.875 32.78C242.307 32.572 242.807 32.468 243.375 32.468C243.999 32.468 244.579 32.556 245.115 32.732C245.651 32.9 246.179 33.168 246.699 33.536L246.219 34.256C245.787 33.928 245.331 33.68 244.851 33.512C244.371 33.336 243.883 33.248 243.387 33.248C242.995 33.248 242.647 33.316 242.343 33.452C242.047 33.588 241.811 33.772 241.635 34.004C241.467 34.236 241.383 34.5 241.383 34.796C241.383 35.164 241.507 35.452 241.755 35.66C242.003 35.868 242.407 36.016 242.967 36.104L244.311 36.332C245.207 36.492 245.855 36.752 246.255 37.112C246.663 37.464 246.867 37.956 246.867 38.588C246.867 39.076 246.727 39.512 246.447 39.896C246.175 40.28 245.799 40.584 245.319 40.808C244.839 41.024 244.291 41.132 243.675 41.132ZM250.435 41V33.416H247.531V32.6H254.263V33.416H251.359V41H250.435Z" fill="white"/>
<path d="M147 69L136.175 54H157.825L147 69Z" fill="#292929"/>
</g>
<path d="M276.333 36C276.333 37.4728 277.527 38.6667 279 38.6667C280.473 38.6667 281.667 37.4728 281.667 36C281.667 34.5272 280.473 33.3333 279 33.3333C277.527 33.3333 276.333 34.5272 276.333 36ZM279 36V36.5H299V36V35.5H279V36Z" fill="#C806CC"/>
<path d="M299 24C299 21.7909 300.791 20 303 20H338C340.209 20 342 21.7909 342 24V48C342 50.2091 340.209 52 338 52H303C300.791 52 299 50.2091 299 48V24Z" fill="#C806CC"/>
<path d="M320.302 42.198C318.622 42.198 317.164 41.628 315.928 40.488L316.99 39.3C317.53 39.792 318.064 40.152 318.592 40.38C319.132 40.596 319.72 40.704 320.356 40.704C321.208 40.704 321.892 40.458 322.408 39.966C322.936 39.474 323.2 38.838 323.2 38.058C323.2 37.302 322.93 36.69 322.39 36.222C321.862 35.754 321.172 35.52 320.32 35.52C319.888 35.52 319.462 35.58 319.042 35.7C318.622 35.808 318.184 35.982 317.728 36.222L316.504 35.844L316.792 29.4H324.28V30.894H318.304L318.124 34.782C318.592 34.542 319.036 34.38 319.456 34.296C319.888 34.2 320.332 34.152 320.788 34.152C321.628 34.152 322.354 34.314 322.966 34.638C323.59 34.95 324.076 35.394 324.424 35.97C324.772 36.546 324.946 37.212 324.946 37.968C324.946 38.808 324.748 39.546 324.352 40.182C323.968 40.806 323.428 41.298 322.732 41.658C322.036 42.018 321.226 42.198 320.302 42.198Z" fill="white"/>
<defs>
<filter id="filter0_d_1896_8785" x="0" y="15" width="294" height="67" filterUnits="userSpaceOnUse" color-interpolation-filters="sRGB">
<feFlood flood-opacity="0" result="BackgroundImageFix"/>
<feColorMatrix in="SourceAlpha" type="matrix" values="0 0 0 0 0 0 0 0 0 0 0 0 0 0 0 0 0 0 127 0" result="hardAlpha"/>
<feOffset dy="4"/>
<feGaussianBlur stdDeviation="4.5"/>
<feColorMatrix type="matrix" values="0 0 0 0 0.160784 0 0 0 0 0.160784 0 0 0 0 0.160784 0 0 0 0.15 0"/>
<feBlend mode="normal" in2="BackgroundImageFix" result="effect1_dropShadow_1896_8785"/>
<feBlend mode="normal" in="SourceGraphic" in2="effect1_dropShadow_1896_8785" result="shape"/>
</filter>
</defs>
</svg>
