<svg width="274" height="49" viewBox="0 0 274 49" fill="none" xmlns="http://www.w3.org/2000/svg">
<path d="M12.78 29V20.152H9.392V19.2H17.246V20.152H13.858V29H12.78ZM18.6906 29V18.892L19.7126 18.682V23.274C19.974 22.8633 20.2866 22.56 20.6506 22.364C21.0146 22.1587 21.4253 22.056 21.8826 22.056C22.3773 22.056 22.8066 22.1633 23.1706 22.378C23.544 22.5833 23.8333 22.8773 24.0386 23.26C24.2533 23.6333 24.3606 24.072 24.3606 24.576V29H23.3386V24.87C23.3386 24.2633 23.1706 23.7873 22.8346 23.442C22.508 23.0873 22.0646 22.91 21.5046 22.91C21.1313 22.91 20.7906 22.9987 20.4826 23.176C20.1746 23.3533 19.918 23.6147 19.7126 23.96V29H18.6906ZM28.7829 29.112C28.2975 29.112 27.8682 29.0047 27.4949 28.79C27.1215 28.5753 26.8275 28.2767 26.6129 27.894C26.4075 27.5113 26.3049 27.0727 26.3049 26.578V22.168H27.3409V26.284C27.3409 26.8907 27.5042 27.3713 27.8309 27.726C28.1575 28.0807 28.6009 28.258 29.1609 28.258C29.5435 28.258 29.8842 28.1693 30.1829 27.992C30.4909 27.8147 30.7475 27.558 30.9529 27.222V22.168H31.9749V29H30.9529V27.894C30.6915 28.2953 30.3789 28.5987 30.0149 28.804C29.6602 29.0093 29.2495 29.112 28.7829 29.112ZM34.0715 29V22.168H35.0935V23.568C35.2708 23.092 35.5228 22.7233 35.8495 22.462C36.1855 22.1913 36.5682 22.056 36.9975 22.056C37.1188 22.056 37.2308 22.0653 37.3335 22.084C37.4362 22.0933 37.5388 22.1167 37.6415 22.154V23.078C37.5295 23.0407 37.4082 23.0127 37.2775 22.994C37.1562 22.966 37.0395 22.952 36.9275 22.952C36.5075 22.952 36.1388 23.0733 35.8215 23.316C35.5135 23.5587 35.2708 23.8993 35.0935 24.338V29H34.0715ZM41.039 29.14C40.479 29.14 39.961 29.056 39.485 28.888C39.009 28.7107 38.603 28.4587 38.267 28.132L38.813 27.46C39.2237 27.7587 39.6017 27.978 39.947 28.118C40.2923 28.2487 40.647 28.314 41.011 28.314C41.5057 28.314 41.9163 28.1973 42.243 27.964C42.5697 27.7307 42.733 27.432 42.733 27.068C42.733 26.788 42.635 26.5687 42.439 26.41C42.2523 26.2513 41.9397 26.13 41.501 26.046L40.381 25.85C39.7183 25.7287 39.2283 25.5233 38.911 25.234C38.603 24.9447 38.449 24.5527 38.449 24.058C38.449 23.666 38.5517 23.3207 38.757 23.022C38.9717 22.7233 39.2657 22.49 39.639 22.322C40.0123 22.1447 40.437 22.056 40.913 22.056C41.3797 22.056 41.823 22.126 42.243 22.266C42.663 22.3967 43.0877 22.6113 43.517 22.91L43.013 23.624C42.6583 23.372 42.3037 23.19 41.949 23.078C41.5943 22.9567 41.235 22.896 40.871 22.896C40.423 22.896 40.0637 22.994 39.793 23.19C39.5223 23.386 39.387 23.652 39.387 23.988C39.387 24.268 39.471 24.4827 39.639 24.632C39.8163 24.7813 40.1243 24.8933 40.563 24.968L41.711 25.178C42.4017 25.2993 42.9057 25.5093 43.223 25.808C43.5403 26.1067 43.699 26.508 43.699 27.012C43.699 27.4133 43.5823 27.7773 43.349 28.104C43.1157 28.4213 42.7983 28.6733 42.397 28.86C41.9957 29.0467 41.543 29.14 41.039 29.14ZM48.1654 29.098C47.5774 29.098 47.0454 28.944 46.5694 28.636C46.0934 28.3187 45.7154 27.8987 45.4354 27.376C45.1554 26.844 45.0154 26.2513 45.0154 25.598C45.0154 24.9353 45.1554 24.3427 45.4354 23.82C45.7248 23.288 46.1121 22.868 46.5974 22.56C47.0828 22.2427 47.6241 22.084 48.2214 22.084C48.6414 22.084 49.0334 22.168 49.3974 22.336C49.7614 22.4947 50.0788 22.728 50.3494 23.036V18.892L51.3714 18.682V29H50.3494V28.09C50.0881 28.4167 49.7708 28.6687 49.3974 28.846C49.0241 29.014 48.6134 29.098 48.1654 29.098ZM48.4174 28.202C48.8188 28.202 49.1874 28.1227 49.5234 27.964C49.8594 27.8053 50.1348 27.5813 50.3494 27.292V23.904C50.1254 23.6147 49.8408 23.3907 49.4954 23.232C49.1594 23.064 48.8001 22.98 48.4174 22.98C47.9601 22.98 47.5494 23.092 47.1854 23.316C46.8308 23.54 46.5461 23.848 46.3314 24.24C46.1261 24.632 46.0234 25.08 46.0234 25.584C46.0234 26.0787 46.1261 26.5267 46.3314 26.928C46.5461 27.32 46.8308 27.6327 47.1854 27.866C47.5494 28.09 47.9601 28.202 48.4174 28.202ZM55.5859 29.126C55.1005 29.126 54.6712 29.0373 54.2979 28.86C53.9245 28.6827 53.6305 28.44 53.4159 28.132C53.2105 27.8147 53.1079 27.4507 53.1079 27.04C53.1079 26.6293 53.2152 26.2747 53.4299 25.976C53.6445 25.668 53.9432 25.43 54.3259 25.262C54.7085 25.094 55.1565 25.01 55.6699 25.01C56.0619 25.01 56.4305 25.052 56.7759 25.136C57.1305 25.22 57.4572 25.3553 57.7559 25.542V24.604C57.7559 24.044 57.6065 23.624 57.3079 23.344C57.0092 23.0547 56.5705 22.91 55.9919 22.91C55.6745 22.91 55.3479 22.9567 55.0119 23.05C54.6852 23.1433 54.3212 23.2927 53.9199 23.498L53.5419 22.714C54.4565 22.2753 55.3152 22.056 56.1179 22.056C56.9672 22.056 57.6205 22.266 58.0779 22.686C58.5352 23.0967 58.7639 23.6893 58.7639 24.464V29H57.7559V28.202C57.4572 28.51 57.1259 28.7433 56.7619 28.902C56.3979 29.0513 56.0059 29.126 55.5859 29.126ZM54.0879 27.012C54.0879 27.4133 54.2419 27.7353 54.5499 27.978C54.8672 28.2207 55.2825 28.342 55.7959 28.342C56.1785 28.342 56.5285 28.2767 56.8459 28.146C57.1725 28.0153 57.4759 27.8193 57.7559 27.558V26.242C57.4665 26.074 57.1679 25.9527 56.8599 25.878C56.5519 25.794 56.2065 25.752 55.8239 25.752C55.3012 25.752 54.8812 25.8687 54.5639 26.102C54.2465 26.326 54.0879 26.6293 54.0879 27.012ZM60.9983 32.066C60.7836 32.066 60.5643 32.0333 60.3403 31.968V31.058C60.4336 31.0767 60.5316 31.0907 60.6343 31.1C60.737 31.1093 60.8256 31.114 60.9003 31.114C61.1616 31.114 61.3763 31.044 61.5443 30.904C61.7216 30.764 61.871 30.5447 61.9923 30.246L62.4963 29L59.8643 22.168H60.9983L63.0703 27.782L65.2683 22.168H66.4023L62.9583 30.554C62.809 30.918 62.6456 31.212 62.4683 31.436C62.291 31.66 62.0856 31.8187 61.8523 31.912C61.619 32.0147 61.3343 32.066 60.9983 32.066ZM66.4109 31.198L67.2509 27.964H68.3429L67.2089 31.198H66.4109ZM76.2165 29.154C75.3858 29.154 74.6625 28.9347 74.0465 28.496C73.4398 28.0573 73.0012 27.4413 72.7305 26.648L73.7105 26.256C73.9438 26.8813 74.2705 27.3573 74.6905 27.684C75.1105 28.0107 75.6238 28.174 76.2305 28.174C76.9958 28.174 77.6072 27.9127 78.0645 27.39C78.5218 26.8673 78.7505 26.1673 78.7505 25.29V19.2H79.8285V25.304C79.8285 26.088 79.6792 26.7693 79.3805 27.348C79.0912 27.9267 78.6758 28.3747 78.1345 28.692C77.5932 29 76.9538 29.154 76.2165 29.154ZM84.037 29.126C83.5517 29.126 83.1224 29.0373 82.749 28.86C82.3757 28.6827 82.0817 28.44 81.867 28.132C81.6617 27.8147 81.559 27.4507 81.559 27.04C81.559 26.6293 81.6664 26.2747 81.881 25.976C82.0957 25.668 82.3944 25.43 82.777 25.262C83.1597 25.094 83.6077 25.01 84.121 25.01C84.513 25.01 84.8817 25.052 85.227 25.136C85.5817 25.22 85.9084 25.3553 86.207 25.542V24.604C86.207 24.044 86.0577 23.624 85.759 23.344C85.4604 23.0547 85.0217 22.91 84.443 22.91C84.1257 22.91 83.799 22.9567 83.463 23.05C83.1364 23.1433 82.7724 23.2927 82.371 23.498L81.993 22.714C82.9077 22.2753 83.7664 22.056 84.569 22.056C85.4184 22.056 86.0717 22.266 86.529 22.686C86.9864 23.0967 87.215 23.6893 87.215 24.464V29H86.207V28.202C85.9084 28.51 85.577 28.7433 85.213 28.902C84.849 29.0513 84.457 29.126 84.037 29.126ZM82.539 27.012C82.539 27.4133 82.693 27.7353 83.001 27.978C83.3184 28.2207 83.7337 28.342 84.247 28.342C84.6297 28.342 84.9797 28.2767 85.297 28.146C85.6237 28.0153 85.927 27.8193 86.207 27.558V26.242C85.9177 26.074 85.619 25.9527 85.311 25.878C85.003 25.794 84.6577 25.752 84.275 25.752C83.7524 25.752 83.3324 25.8687 83.015 26.102C82.6977 26.326 82.539 26.6293 82.539 27.012ZM89.2922 29V22.168H90.3142V23.274C90.5755 22.8633 90.8882 22.56 91.2522 22.364C91.6162 22.1587 92.0269 22.056 92.4842 22.056C92.9789 22.056 93.4082 22.1633 93.7722 22.378C94.1455 22.5833 94.4349 22.8773 94.6402 23.26C94.8549 23.6333 94.9622 24.072 94.9622 24.576V29H93.9402V24.87C93.9402 24.2633 93.7722 23.7873 93.4362 23.442C93.1095 23.0873 92.6662 22.91 92.1062 22.91C91.7329 22.91 91.3922 22.9987 91.0842 23.176C90.7762 23.3533 90.5195 23.6147 90.3142 23.96V29H89.2922ZM99.3844 29.112C98.8991 29.112 98.4698 29.0047 98.0964 28.79C97.7231 28.5753 97.4291 28.2767 97.2144 27.894C97.0091 27.5113 96.9064 27.0727 96.9064 26.578V22.168H97.9424V26.284C97.9424 26.8907 98.1058 27.3713 98.4324 27.726C98.7591 28.0807 99.2024 28.258 99.7624 28.258C100.145 28.258 100.486 28.1693 100.784 27.992C101.092 27.8147 101.349 27.558 101.554 27.222V22.168H102.576V29H101.554V27.894C101.293 28.2953 100.98 28.5987 100.616 28.804C100.262 29.0093 99.8511 29.112 99.3844 29.112ZM106.787 29.126C106.302 29.126 105.872 29.0373 105.499 28.86C105.126 28.6827 104.832 28.44 104.617 28.132C104.412 27.8147 104.309 27.4507 104.309 27.04C104.309 26.6293 104.416 26.2747 104.631 25.976C104.846 25.668 105.144 25.43 105.527 25.262C105.91 25.094 106.358 25.01 106.871 25.01C107.263 25.01 107.632 25.052 107.977 25.136C108.332 25.22 108.658 25.3553 108.957 25.542V24.604C108.957 24.044 108.808 23.624 108.509 23.344C108.21 23.0547 107.772 22.91 107.193 22.91C106.876 22.91 106.549 22.9567 106.213 23.05C105.886 23.1433 105.522 23.2927 105.121 23.498L104.743 22.714C105.658 22.2753 106.516 22.056 107.319 22.056C108.168 22.056 108.822 22.266 109.279 22.686C109.736 23.0967 109.965 23.6893 109.965 24.464V29H108.957V28.202C108.658 28.51 108.327 28.7433 107.963 28.902C107.599 29.0513 107.207 29.126 106.787 29.126ZM105.289 27.012C105.289 27.4133 105.443 27.7353 105.751 27.978C106.068 28.2207 106.484 28.342 106.997 28.342C107.38 28.342 107.73 28.2767 108.047 28.146C108.374 28.0153 108.677 27.8193 108.957 27.558V26.242C108.668 26.074 108.369 25.9527 108.061 25.878C107.753 25.794 107.408 25.752 107.025 25.752C106.502 25.752 106.082 25.8687 105.765 26.102C105.448 26.326 105.289 26.6293 105.289 27.012ZM112.042 29V22.168H113.064V23.568C113.242 23.092 113.494 22.7233 113.82 22.462C114.156 22.1913 114.539 22.056 114.968 22.056C115.09 22.056 115.202 22.0653 115.304 22.084C115.407 22.0933 115.51 22.1167 115.612 22.154V23.078C115.5 23.0407 115.379 23.0127 115.248 22.994C115.127 22.966 115.01 22.952 114.898 22.952C114.478 22.952 114.11 23.0733 113.792 23.316C113.484 23.5587 113.242 23.8993 113.064 24.338V29H112.042ZM117.395 32.066C117.18 32.066 116.961 32.0333 116.737 31.968V31.058C116.83 31.0767 116.928 31.0907 117.031 31.1C117.133 31.1093 117.222 31.114 117.297 31.114C117.558 31.114 117.773 31.044 117.941 30.904C118.118 30.764 118.267 30.5447 118.389 30.246L118.893 29L116.261 22.168H117.395L119.467 27.782L121.665 22.168H122.799L119.355 30.554C119.205 30.918 119.042 31.212 118.865 31.436C118.687 31.66 118.482 31.8187 118.249 31.912C118.015 32.0147 117.731 32.066 117.395 32.066ZM127.005 29V28.258L130.925 23.974C131.233 23.638 131.471 23.344 131.639 23.092C131.816 22.8307 131.938 22.588 132.003 22.364C132.078 22.14 132.115 21.902 132.115 21.65C132.115 21.1553 131.919 20.7493 131.527 20.432C131.144 20.1053 130.654 19.942 130.057 19.942C129.6 19.942 129.175 20.0307 128.783 20.208C128.391 20.3853 127.952 20.6933 127.467 21.132L126.879 20.432C127.392 19.9653 127.91 19.62 128.433 19.396C128.956 19.1627 129.502 19.046 130.071 19.046C130.659 19.046 131.182 19.158 131.639 19.382C132.096 19.5967 132.456 19.8953 132.717 20.278C132.978 20.6607 133.109 21.0993 133.109 21.594C133.109 21.9207 133.067 22.224 132.983 22.504C132.899 22.7747 132.75 23.0687 132.535 23.386C132.32 23.694 132.012 24.0673 131.611 24.506L128.265 28.132L133.319 28.118V29H127.005ZM136.103 29V20.292L134.535 20.992V20.068L136.481 19.2H137.111V29H136.103ZM138.954 31.198L139.794 27.964H140.886L139.752 31.198H138.954ZM145.735 29V28.258L149.655 23.974C149.963 23.638 150.201 23.344 150.369 23.092C150.547 22.8307 150.668 22.588 150.733 22.364C150.808 22.14 150.845 21.902 150.845 21.65C150.845 21.1553 150.649 20.7493 150.257 20.432C149.875 20.1053 149.385 19.942 148.787 19.942C148.33 19.942 147.905 20.0307 147.513 20.208C147.121 20.3853 146.683 20.6933 146.197 21.132L145.609 20.432C146.123 19.9653 146.641 19.62 147.163 19.396C147.686 19.1627 148.232 19.046 148.801 19.046C149.389 19.046 149.912 19.158 150.369 19.382C150.827 19.5967 151.186 19.8953 151.447 20.278C151.709 20.6607 151.839 21.0993 151.839 21.594C151.839 21.9207 151.797 22.224 151.713 22.504C151.629 22.7747 151.48 23.0687 151.265 23.386C151.051 23.694 150.743 24.0673 150.341 24.506L146.995 28.132L152.049 28.118V29H145.735ZM157.311 29.154C156.565 29.154 155.902 28.9393 155.323 28.51C154.754 28.0807 154.306 27.488 153.979 26.732C153.653 25.9667 153.489 25.0893 153.489 24.1C153.489 23.1013 153.653 22.224 153.979 21.468C154.306 20.712 154.754 20.1193 155.323 19.69C155.902 19.2607 156.565 19.046 157.311 19.046C158.058 19.046 158.716 19.2607 159.285 19.69C159.864 20.1193 160.317 20.712 160.643 21.468C160.97 22.224 161.133 23.1013 161.133 24.1C161.133 25.0893 160.97 25.9667 160.643 26.732C160.317 27.488 159.864 28.0807 159.285 28.51C158.716 28.9393 158.058 29.154 157.311 29.154ZM157.311 28.244C157.881 28.244 158.371 28.076 158.781 27.74C159.201 27.3947 159.528 26.914 159.761 26.298C159.995 25.6727 160.111 24.94 160.111 24.1C160.111 23.26 159.995 22.532 159.761 21.916C159.528 21.2907 159.201 20.81 158.781 20.474C158.371 20.1287 157.881 19.956 157.311 19.956C156.751 19.956 156.261 20.1287 155.841 20.474C155.421 20.81 155.095 21.2907 154.861 21.916C154.628 22.532 154.511 23.26 154.511 24.1C154.511 24.94 154.628 25.6727 154.861 26.298C155.095 26.914 155.421 27.3947 155.841 27.74C156.261 28.076 156.751 28.244 157.311 28.244ZM163.939 29V20.292L162.371 20.992V20.068L164.317 19.2H164.947V29H163.939ZM170.122 19.046C170.878 19.046 171.541 19.2467 172.11 19.648C172.689 20.0493 173.141 20.6047 173.468 21.314C173.795 22.014 173.958 22.826 173.958 23.75C173.958 24.8327 173.776 25.78 173.412 26.592C173.048 27.3947 172.535 28.02 171.872 28.468C171.219 28.916 170.449 29.14 169.562 29.14C169.161 29.14 168.755 29.084 168.344 28.972C167.943 28.8507 167.583 28.6873 167.266 28.482L167.77 27.698C168.059 27.866 168.363 27.9967 168.68 28.09C169.007 28.1833 169.329 28.23 169.646 28.23C170.318 28.23 170.897 28.0573 171.382 27.712C171.877 27.3573 172.259 26.8533 172.53 26.2C172.801 25.5373 172.941 24.7533 172.95 23.848C172.586 24.3147 172.152 24.6787 171.648 24.94C171.144 25.2013 170.621 25.332 170.08 25.332C169.445 25.332 168.881 25.2013 168.386 24.94C167.891 24.6693 167.504 24.3053 167.224 23.848C166.944 23.3907 166.804 22.868 166.804 22.28C166.804 21.6547 166.949 21.0993 167.238 20.614C167.527 20.1287 167.919 19.746 168.414 19.466C168.918 19.186 169.487 19.046 170.122 19.046ZM170.22 24.506C170.733 24.506 171.223 24.38 171.69 24.128C172.166 23.8667 172.577 23.512 172.922 23.064C172.857 22.4293 172.698 21.8787 172.446 21.412C172.194 20.9453 171.872 20.5813 171.48 20.32C171.088 20.0587 170.64 19.928 170.136 19.928C169.688 19.928 169.287 20.0307 168.932 20.236C168.587 20.432 168.311 20.7073 168.106 21.062C167.91 21.4073 167.812 21.804 167.812 22.252C167.812 22.6907 167.915 23.0827 168.12 23.428C168.325 23.764 168.605 24.03 168.96 24.226C169.324 24.4127 169.744 24.506 170.22 24.506ZM175.102 31.198L175.942 27.964H177.034L175.9 31.198H175.102ZM185.202 19.046C185.958 19.046 186.621 19.2467 187.19 19.648C187.769 20.0493 188.221 20.6047 188.548 21.314C188.875 22.014 189.038 22.826 189.038 23.75C189.038 24.8327 188.856 25.78 188.492 26.592C188.128 27.3947 187.615 28.02 186.952 28.468C186.299 28.916 185.529 29.14 184.642 29.14C184.241 29.14 183.835 29.084 183.424 28.972C183.023 28.8507 182.663 28.6873 182.346 28.482L182.85 27.698C183.139 27.866 183.443 27.9967 183.76 28.09C184.087 28.1833 184.409 28.23 184.726 28.23C185.398 28.23 185.977 28.0573 186.462 27.712C186.957 27.3573 187.339 26.8533 187.61 26.2C187.881 25.5373 188.021 24.7533 188.03 23.848C187.666 24.3147 187.232 24.6787 186.728 24.94C186.224 25.2013 185.701 25.332 185.16 25.332C184.525 25.332 183.961 25.2013 183.466 24.94C182.971 24.6693 182.584 24.3053 182.304 23.848C182.024 23.3907 181.884 22.868 181.884 22.28C181.884 21.6547 182.029 21.0993 182.318 20.614C182.607 20.1287 182.999 19.746 183.494 19.466C183.998 19.186 184.567 19.046 185.202 19.046ZM185.3 24.506C185.813 24.506 186.303 24.38 186.77 24.128C187.246 23.8667 187.657 23.512 188.002 23.064C187.937 22.4293 187.778 21.8787 187.526 21.412C187.274 20.9453 186.952 20.5813 186.56 20.32C186.168 20.0587 185.72 19.928 185.216 19.928C184.768 19.928 184.367 20.0307 184.012 20.236C183.667 20.432 183.391 20.7073 183.186 21.062C182.99 21.4073 182.892 21.804 182.892 22.252C182.892 22.6907 182.995 23.0827 183.2 23.428C183.405 23.764 183.685 24.03 184.04 24.226C184.404 24.4127 184.824 24.506 185.3 24.506ZM191.588 29.112C191.383 29.112 191.205 29.0373 191.056 28.888C190.916 28.7387 190.846 28.5613 190.846 28.356C190.846 28.1413 190.916 27.964 191.056 27.824C191.205 27.6747 191.383 27.6 191.588 27.6C191.793 27.6 191.966 27.6747 192.106 27.824C192.255 27.964 192.33 28.1413 192.33 28.356C192.33 28.5613 192.255 28.7387 192.106 28.888C191.966 29.0373 191.793 29.112 191.588 29.112ZM191.588 23.554C191.383 23.554 191.205 23.4793 191.056 23.33C190.916 23.1807 190.846 23.0033 190.846 22.798C190.846 22.5833 190.916 22.406 191.056 22.266C191.205 22.1167 191.383 22.042 191.588 22.042C191.793 22.042 191.966 22.1167 192.106 22.266C192.255 22.406 192.33 22.5833 192.33 22.798C192.33 23.0033 192.255 23.1807 192.106 23.33C191.966 23.4793 191.793 23.554 191.588 23.554ZM197.286 29.154C196.614 29.154 195.984 29.0373 195.396 28.804C194.817 28.5707 194.304 28.2253 193.856 27.768L194.528 27.11C194.939 27.5207 195.359 27.8193 195.788 28.006C196.227 28.1833 196.721 28.272 197.272 28.272C197.748 28.272 198.168 28.188 198.532 28.02C198.905 27.852 199.195 27.6187 199.4 27.32C199.605 27.0213 199.708 26.6807 199.708 26.298C199.708 25.934 199.615 25.612 199.428 25.332C199.251 25.0427 199.003 24.8187 198.686 24.66C198.369 24.5013 198.005 24.422 197.594 24.422H196.432V23.554H197.552C198.084 23.554 198.513 23.3907 198.84 23.064C199.176 22.7373 199.344 22.3127 199.344 21.79C199.344 21.4447 199.251 21.132 199.064 20.852C198.877 20.572 198.621 20.3527 198.294 20.194C197.977 20.026 197.617 19.942 197.216 19.942C196.712 19.942 196.259 20.0353 195.858 20.222C195.466 20.3993 195.065 20.7027 194.654 21.132L193.982 20.46C194.421 19.9933 194.915 19.6433 195.466 19.41C196.017 19.1673 196.605 19.046 197.23 19.046C197.827 19.046 198.359 19.1627 198.826 19.396C199.302 19.6293 199.675 19.9513 199.946 20.362C200.217 20.7633 200.352 21.2207 200.352 21.734C200.352 22.2473 200.184 22.7093 199.848 23.12C199.512 23.5213 199.069 23.8013 198.518 23.96C199.181 24.1093 199.713 24.3987 200.114 24.828C200.515 25.2573 200.716 25.7567 200.716 26.326C200.716 26.8673 200.567 27.3527 200.268 27.782C199.979 28.2113 199.573 28.5473 199.05 28.79C198.537 29.0327 197.949 29.154 197.286 29.154ZM205.702 29.154C205.03 29.154 204.433 29.0327 203.91 28.79C203.388 28.5473 202.972 28.216 202.664 27.796C202.366 27.3667 202.216 26.886 202.216 26.354C202.216 25.9527 202.314 25.584 202.51 25.248C202.706 24.9027 202.977 24.6087 203.322 24.366C203.677 24.114 204.078 23.9367 204.526 23.834C203.957 23.6753 203.49 23.3907 203.126 22.98C202.772 22.5693 202.594 22.1073 202.594 21.594C202.594 21.1087 202.73 20.6747 203 20.292C203.271 19.9093 203.64 19.606 204.106 19.382C204.582 19.158 205.114 19.046 205.702 19.046C206.3 19.046 206.832 19.158 207.298 19.382C207.765 19.606 208.134 19.9093 208.404 20.292C208.675 20.6747 208.81 21.1087 208.81 21.594C208.81 22.1073 208.633 22.5693 208.278 22.98C207.924 23.3907 207.457 23.6753 206.878 23.834C207.56 23.9927 208.115 24.3053 208.544 24.772C208.974 25.2293 209.188 25.7567 209.188 26.354C209.188 26.886 209.039 27.3667 208.74 27.796C208.442 28.216 208.026 28.5473 207.494 28.79C206.972 29.0327 206.374 29.154 205.702 29.154ZM205.702 23.414C206.104 23.414 206.463 23.3347 206.78 23.176C207.107 23.0173 207.364 22.8073 207.55 22.546C207.737 22.2753 207.83 21.972 207.83 21.636C207.83 21.3 207.737 20.9967 207.55 20.726C207.364 20.4553 207.107 20.2453 206.78 20.096C206.463 19.9373 206.104 19.858 205.702 19.858C205.301 19.858 204.937 19.9373 204.61 20.096C204.293 20.2453 204.041 20.4553 203.854 20.726C203.668 20.9967 203.574 21.3 203.574 21.636C203.574 21.972 203.668 22.2753 203.854 22.546C204.041 22.8073 204.293 23.0173 204.61 23.176C204.937 23.3347 205.301 23.414 205.702 23.414ZM205.702 28.342C206.178 28.342 206.603 28.2533 206.976 28.076C207.35 27.8987 207.644 27.656 207.858 27.348C208.082 27.04 208.194 26.6947 208.194 26.312C208.194 25.9293 208.082 25.584 207.858 25.276C207.644 24.968 207.35 24.7253 206.976 24.548C206.603 24.3707 206.178 24.282 205.702 24.282C205.226 24.282 204.802 24.3707 204.428 24.548C204.055 24.7253 203.756 24.968 203.532 25.276C203.318 25.584 203.21 25.9293 203.21 26.312C203.21 26.6947 203.318 27.04 203.532 27.348C203.756 27.656 204.055 27.8987 204.428 28.076C204.802 28.2533 205.226 28.342 205.702 28.342ZM214.517 29V19.2H218.563C219.198 19.2 219.749 19.3213 220.215 19.564C220.682 19.7973 221.041 20.1333 221.293 20.572C221.555 21.0013 221.685 21.51 221.685 22.098C221.685 22.6767 221.555 23.1853 221.293 23.624C221.041 24.0627 220.682 24.4033 220.215 24.646C219.749 24.8793 219.198 24.996 218.563 24.996H215.595V29H214.517ZM215.595 24.072H218.437C219.119 24.072 219.651 23.8947 220.033 23.54C220.416 23.1853 220.607 22.7047 220.607 22.098C220.607 21.4913 220.416 21.0153 220.033 20.67C219.651 20.3247 219.119 20.152 218.437 20.152H215.595V24.072ZM223.678 29V19.2H225.176L228.452 26.172L231.728 19.2H233.226V29H232.204V20.474L228.452 28.3L224.686 20.446V29H223.678ZM238.99 29V19.2H245.682V20.152H240.068V23.582H243.96V24.52H240.068V28.048H245.738V29H238.99ZM250.822 29.154C250.057 29.154 249.347 29.0187 248.694 28.748C248.041 28.468 247.411 28.048 246.804 27.488L247.462 26.704C248.05 27.2547 248.601 27.6467 249.114 27.88C249.637 28.1133 250.215 28.23 250.85 28.23C251.354 28.23 251.802 28.146 252.194 27.978C252.595 27.8007 252.908 27.5627 253.132 27.264C253.356 26.9653 253.468 26.6247 253.468 26.242C253.468 25.7473 253.305 25.374 252.978 25.122C252.651 24.8607 252.087 24.66 251.284 24.52L249.702 24.254C248.806 24.0953 248.148 23.8247 247.728 23.442C247.317 23.05 247.112 22.5273 247.112 21.874C247.112 21.3233 247.252 20.838 247.532 20.418C247.821 19.9887 248.218 19.6527 248.722 19.41C249.226 19.1673 249.809 19.046 250.472 19.046C251.2 19.046 251.877 19.1487 252.502 19.354C253.127 19.55 253.743 19.8627 254.35 20.292L253.79 21.132C253.286 20.7493 252.754 20.46 252.194 20.264C251.634 20.0587 251.065 19.956 250.486 19.956C250.029 19.956 249.623 20.0353 249.268 20.194C248.923 20.3527 248.647 20.5673 248.442 20.838C248.246 21.1087 248.148 21.4167 248.148 21.762C248.148 22.1913 248.293 22.5273 248.582 22.77C248.871 23.0127 249.343 23.1853 249.996 23.288L251.564 23.554C252.609 23.7407 253.365 24.044 253.832 24.464C254.308 24.8747 254.546 25.4487 254.546 26.186C254.546 26.7553 254.383 27.264 254.056 27.712C253.739 28.16 253.3 28.5147 252.74 28.776C252.18 29.028 251.541 29.154 250.822 29.154ZM258.71 29V20.152H255.322V19.2H263.176V20.152H259.788V29H258.71Z" fill="#4D4D4D"/>
<line x1="9.5" y1="34.5" x2="263.5" y2="34.5" stroke="#707070" stroke-linecap="round" stroke-dasharray="2 2"/>
</svg>
