<svg width="1240" height="825" viewBox="0 0 1240 825" fill="none" xmlns="http://www.w3.org/2000/svg">
<rect width="1240" height="825" fill="white"/>
<g filter="url(#filter0_d_1825_77506)">
<path d="M60 56C60 42.7452 70.7452 32 84 32H1156C1169.25 32 1180 42.7452 1180 56V769C1180 782.255 1169.25 793 1156 793H84C70.7452 793 60 782.255 60 769V56Z" fill="white"/>
<mask id="path-2-inside-1_1825_77506" fill="white">
<path d="M60 56C60 42.7452 70.7452 32 84 32H1156C1169.25 32 1180 42.7452 1180 56V149H60V56Z"/>
</mask>
<path d="M60 56C60 42.7452 70.7452 32 84 32H1156C1169.25 32 1180 42.7452 1180 56V149H60V56Z" fill="#F2F2F2"/>
<path d="M60 32H1180H60ZM1180 150H60V148H1180V150ZM60 149V32V149ZM1180 32V149V32Z" fill="#C7C7C7" mask="url(#path-2-inside-1_1825_77506)"/>
<path d="M89.152 84L84.868 64.4H87.892L90.944 79.38L95.368 64.4H98.168L102.592 79.352L105.672 64.4H108.556L104.272 84H101.248L96.74 68.6L92.204 84H89.152ZM111.082 84V69.748H113.882V84H111.082ZM112.482 67.452C112.015 67.452 111.614 67.284 111.278 66.948C110.942 66.5933 110.774 66.1827 110.774 65.716C110.774 65.2307 110.942 64.8293 111.278 64.512C111.614 64.176 112.015 64.008 112.482 64.008C112.967 64.008 113.378 64.176 113.714 64.512C114.05 64.8293 114.218 65.2307 114.218 65.716C114.218 66.1827 114.05 66.5933 113.714 66.948C113.378 67.284 112.967 67.452 112.482 67.452ZM116.339 84V81.928L124.347 72.156H116.423V69.748H127.847V71.792L119.839 81.592H127.987V84H116.339ZM135.058 84.252C134.032 84.252 133.126 84.0747 132.342 83.72C131.558 83.3467 130.942 82.8333 130.494 82.18C130.046 81.5267 129.822 80.7707 129.822 79.912C129.822 78.568 130.336 77.5133 131.362 76.748C132.389 75.964 133.798 75.572 135.59 75.572C136.99 75.572 138.288 75.8427 139.482 76.384V74.872C139.482 72.8373 138.325 71.82 136.01 71.82C135.357 71.82 134.676 71.9227 133.966 72.128C133.257 72.3147 132.464 72.6133 131.586 73.024L130.55 70.924C131.633 70.42 132.641 70.056 133.574 69.832C134.508 69.5893 135.45 69.468 136.402 69.468C138.25 69.468 139.678 69.9067 140.686 70.784C141.713 71.6613 142.226 72.912 142.226 74.536V84H139.482V82.768C138.848 83.272 138.166 83.6453 137.438 83.888C136.71 84.1307 135.917 84.252 135.058 84.252ZM132.51 79.856C132.51 80.5467 132.8 81.1067 133.378 81.536C133.976 81.9653 134.75 82.18 135.702 82.18C137.233 82.18 138.493 81.7227 139.482 80.808V78.4C138.456 77.8027 137.233 77.504 135.814 77.504C134.788 77.504 133.976 77.7187 133.378 78.148C132.8 78.5587 132.51 79.128 132.51 79.856ZM145.453 84V69.748H148.253V71.568C148.701 70.896 149.251 70.3733 149.905 70C150.577 69.608 151.333 69.412 152.173 69.412C152.751 69.4307 153.227 69.5147 153.601 69.664V72.184C153.059 71.9787 152.509 71.876 151.949 71.876C151.127 71.876 150.399 72.1 149.765 72.548C149.13 72.9773 148.626 73.612 148.253 74.452V84H145.453ZM161.575 84.224C160.25 84.224 159.036 83.8973 157.935 83.244C156.834 82.5907 155.966 81.7133 155.331 80.612C154.696 79.492 154.379 78.2413 154.379 76.86C154.379 75.4787 154.696 74.2373 155.331 73.136C155.984 72.0347 156.862 71.1573 157.963 70.504C159.064 69.8507 160.287 69.524 161.631 69.524C163.236 69.524 164.664 70 165.915 70.952V64.4L168.715 63.868V84H165.943V82.628C164.73 83.692 163.274 84.224 161.575 84.224ZM161.939 81.788C162.76 81.788 163.507 81.6387 164.179 81.34C164.87 81.0413 165.448 80.612 165.915 80.052V73.64C165.448 73.1173 164.87 72.7067 164.179 72.408C163.488 72.0907 162.742 71.932 161.939 71.932C161.043 71.932 160.231 72.1467 159.503 72.576C158.775 73.0053 158.196 73.5933 157.767 74.34C157.338 75.068 157.123 75.8987 157.123 76.832C157.123 77.7653 157.338 78.6053 157.767 79.352C158.196 80.0987 158.775 80.696 159.503 81.144C160.231 81.5733 161.043 81.788 161.939 81.788ZM183.986 84.252C182.605 84.252 181.55 83.9347 180.822 83.3C180.094 82.6467 179.73 81.704 179.73 80.472V72.1H176.706V69.748H179.73V66.108L182.502 65.436V69.748H186.702V72.1H182.502V79.828C182.502 80.556 182.661 81.0787 182.978 81.396C183.314 81.6947 183.856 81.844 184.602 81.844C184.994 81.844 185.34 81.816 185.638 81.76C185.956 81.704 186.292 81.62 186.646 81.508V83.86C186.273 83.9907 185.834 84.084 185.33 84.14C184.845 84.2147 184.397 84.252 183.986 84.252ZM188.765 84V69.748H191.565V84H188.765ZM190.165 67.452C189.699 67.452 189.297 67.284 188.961 66.948C188.625 66.5933 188.457 66.1827 188.457 65.716C188.457 65.2307 188.625 64.8293 188.961 64.512C189.297 64.176 189.699 64.008 190.165 64.008C190.651 64.008 191.061 64.176 191.397 64.512C191.733 64.8293 191.901 65.2307 191.901 65.716C191.901 66.1827 191.733 66.5933 191.397 66.948C191.061 67.284 190.651 67.452 190.165 67.452ZM200.967 84.252C199.586 84.252 198.531 83.9347 197.803 83.3C197.075 82.6467 196.711 81.704 196.711 80.472V72.1H193.687V69.748H196.711V66.108L199.483 65.436V69.748H203.683V72.1H199.483V79.828C199.483 80.556 199.642 81.0787 199.959 81.396C200.295 81.6947 200.836 81.844 201.583 81.844C201.975 81.844 202.32 81.816 202.619 81.76C202.936 81.704 203.272 81.62 203.627 81.508V83.86C203.254 83.9907 202.815 84.084 202.311 84.14C201.826 84.2147 201.378 84.252 200.967 84.252ZM205.746 84V64.4L208.546 63.868V84H205.746ZM218.675 84.252C217.275 84.252 216.006 83.9253 214.867 83.272C213.747 82.6187 212.851 81.732 212.179 80.612C211.526 79.492 211.199 78.2413 211.199 76.86C211.199 75.4973 211.517 74.2653 212.151 73.164C212.786 72.044 213.645 71.1573 214.727 70.504C215.81 69.832 217.014 69.496 218.339 69.496C219.665 69.496 220.841 69.832 221.867 70.504C222.894 71.1573 223.706 72.0533 224.303 73.192C224.919 74.312 225.227 75.5813 225.227 77V77.784H213.999C214.149 78.568 214.438 79.268 214.867 79.884C215.315 80.5 215.875 80.9853 216.547 81.34C217.238 81.6947 217.985 81.872 218.787 81.872C219.478 81.872 220.141 81.7693 220.775 81.564C221.429 81.34 221.97 81.0227 222.399 80.612L224.191 82.376C223.351 83.0107 222.483 83.4867 221.587 83.804C220.71 84.1027 219.739 84.252 218.675 84.252ZM214.027 75.684H222.455C222.343 74.9373 222.082 74.284 221.671 73.724C221.279 73.1453 220.785 72.6973 220.187 72.38C219.609 72.044 218.974 71.876 218.283 71.876C217.201 71.876 216.267 72.2307 215.483 72.94C214.718 73.6307 214.233 74.5453 214.027 75.684Z" fill="#151515"/>
<path d="M1143.44 67.9316C1144.02 67.3561 1144.95 67.3562 1145.53 67.9316L1146.57 68.9746C1147.14 69.5507 1147.14 70.484 1146.57 71.0595L1141.88 75.75L1146.57 80.4404C1147.14 81.0164 1147.14 81.9497 1146.57 82.5254L1145.53 83.5683C1144.95 84.1437 1144.02 84.1439 1143.44 83.5683L1138.75 78.8779L1134.06 83.5683C1133.48 84.1439 1132.55 84.1437 1131.97 83.5683L1130.93 82.5254C1130.36 81.9493 1130.36 81.0159 1130.93 80.4404L1135.62 75.75L1130.93 71.0595C1130.36 70.4835 1130.36 69.5502 1130.93 68.9746L1131.97 67.9316C1132.55 67.3562 1133.48 67.3561 1134.06 67.9316L1138.75 72.622L1143.44 67.9316Z" fill="#1F1F1F"/>
<path d="M84.126 116L88.004 106.2H89.292L93.114 116H91.952L90.79 112.92H86.422L85.26 116H84.126ZM86.758 112.066H90.468L88.606 107.18L86.758 112.066ZM100.402 116.098C99.8138 116.098 99.2818 115.944 98.8058 115.636C98.3298 115.319 97.9518 114.899 97.6718 114.376C97.3918 113.844 97.2518 113.251 97.2518 112.598C97.2518 111.935 97.3918 111.343 97.6718 110.82C97.9611 110.288 98.3484 109.868 98.8338 109.56C99.3191 109.243 99.8604 109.084 100.458 109.084C100.878 109.084 101.27 109.168 101.634 109.336C101.998 109.495 102.315 109.728 102.586 110.036V105.892L103.608 105.682V116H102.586V115.09C102.324 115.417 102.007 115.669 101.634 115.846C101.26 116.014 100.85 116.098 100.402 116.098ZM100.654 115.202C101.055 115.202 101.424 115.123 101.76 114.964C102.096 114.805 102.371 114.581 102.586 114.292V110.904C102.362 110.615 102.077 110.391 101.732 110.232C101.396 110.064 101.036 109.98 100.654 109.98C100.196 109.98 99.7858 110.092 99.4218 110.316C99.0671 110.54 98.7824 110.848 98.5678 111.24C98.3624 111.632 98.2598 112.08 98.2598 112.584C98.2598 113.079 98.3624 113.527 98.5678 113.928C98.7824 114.32 99.0671 114.633 99.4218 114.866C99.7858 115.09 100.196 115.202 100.654 115.202ZM108.788 116.14C108.154 116.14 107.58 115.986 107.066 115.678C106.553 115.361 106.147 114.936 105.848 114.404C105.55 113.863 105.4 113.256 105.4 112.584C105.4 111.912 105.54 111.31 105.82 110.778C106.11 110.246 106.497 109.826 106.982 109.518C107.468 109.21 108.009 109.056 108.606 109.056C109.213 109.056 109.75 109.21 110.216 109.518C110.692 109.817 111.066 110.227 111.336 110.75C111.616 111.263 111.756 111.847 111.756 112.5V112.808H106.394C106.432 113.275 106.558 113.695 106.772 114.068C106.996 114.432 107.286 114.721 107.64 114.936C108.004 115.141 108.401 115.244 108.83 115.244C109.185 115.244 109.526 115.183 109.852 115.062C110.188 114.931 110.473 114.759 110.706 114.544L111.35 115.23C110.958 115.538 110.552 115.767 110.132 115.916C109.712 116.065 109.264 116.14 108.788 116.14ZM106.422 112.08H110.748C110.702 111.669 110.576 111.305 110.37 110.988C110.174 110.661 109.922 110.405 109.614 110.218C109.316 110.031 108.98 109.938 108.606 109.938C108.233 109.938 107.892 110.031 107.584 110.218C107.276 110.395 107.02 110.647 106.814 110.974C106.618 111.291 106.488 111.66 106.422 112.08ZM115.684 116.14C115.124 116.14 114.606 116.056 114.13 115.888C113.654 115.711 113.248 115.459 112.912 115.132L113.458 114.46C113.868 114.759 114.246 114.978 114.592 115.118C114.937 115.249 115.292 115.314 115.656 115.314C116.15 115.314 116.561 115.197 116.888 114.964C117.214 114.731 117.378 114.432 117.378 114.068C117.378 113.788 117.28 113.569 117.084 113.41C116.897 113.251 116.584 113.13 116.146 113.046L115.026 112.85C114.363 112.729 113.873 112.523 113.556 112.234C113.248 111.945 113.094 111.553 113.094 111.058C113.094 110.666 113.196 110.321 113.402 110.022C113.616 109.723 113.91 109.49 114.284 109.322C114.657 109.145 115.082 109.056 115.558 109.056C116.024 109.056 116.468 109.126 116.888 109.266C117.308 109.397 117.732 109.611 118.162 109.91L117.658 110.624C117.303 110.372 116.948 110.19 116.594 110.078C116.239 109.957 115.88 109.896 115.516 109.896C115.068 109.896 114.708 109.994 114.438 110.19C114.167 110.386 114.032 110.652 114.032 110.988C114.032 111.268 114.116 111.483 114.284 111.632C114.461 111.781 114.769 111.893 115.208 111.968L116.356 112.178C117.046 112.299 117.55 112.509 117.868 112.808C118.185 113.107 118.344 113.508 118.344 114.012C118.344 114.413 118.227 114.777 117.994 115.104C117.76 115.421 117.443 115.673 117.042 115.86C116.64 116.047 116.188 116.14 115.684 116.14ZM123.034 116.112C122.399 116.112 121.825 115.958 121.312 115.65C120.808 115.333 120.407 114.908 120.108 114.376C119.809 113.835 119.66 113.237 119.66 112.584C119.66 111.921 119.809 111.324 120.108 110.792C120.407 110.26 120.808 109.84 121.312 109.532C121.825 109.215 122.399 109.056 123.034 109.056C123.538 109.056 124.019 109.149 124.476 109.336C124.933 109.523 125.33 109.784 125.666 110.12L125.008 110.834C124.765 110.563 124.471 110.353 124.126 110.204C123.781 110.055 123.431 109.98 123.076 109.98C122.628 109.98 122.222 110.097 121.858 110.33C121.503 110.563 121.219 110.876 121.004 111.268C120.789 111.66 120.682 112.099 120.682 112.584C120.682 113.069 120.789 113.508 121.004 113.9C121.219 114.292 121.503 114.605 121.858 114.838C122.222 115.071 122.628 115.188 123.076 115.188C123.431 115.188 123.781 115.113 124.126 114.964C124.471 114.805 124.765 114.595 125.008 114.334L125.666 115.048C125.33 115.384 124.933 115.645 124.476 115.832C124.019 116.019 123.538 116.112 123.034 116.112ZM127.091 116V109.168H128.113V110.568C128.29 110.092 128.542 109.723 128.869 109.462C129.205 109.191 129.588 109.056 130.017 109.056C130.138 109.056 130.25 109.065 130.353 109.084C130.456 109.093 130.558 109.117 130.661 109.154V110.078C130.549 110.041 130.428 110.013 130.297 109.994C130.176 109.966 130.059 109.952 129.947 109.952C129.527 109.952 129.158 110.073 128.841 110.316C128.533 110.559 128.29 110.899 128.113 111.338V116H127.091ZM131.999 116V109.168H133.021V116H131.999ZM132.517 107.474C132.312 107.474 132.134 107.404 131.985 107.264C131.845 107.115 131.775 106.942 131.775 106.746C131.775 106.55 131.845 106.382 131.985 106.242C132.134 106.093 132.312 106.018 132.517 106.018C132.722 106.018 132.895 106.093 133.035 106.242C133.184 106.382 133.259 106.55 133.259 106.746C133.259 106.942 133.184 107.115 133.035 107.264C132.895 107.404 132.722 107.474 132.517 107.474ZM135.116 118.926V109.168H136.124V110.148C136.386 109.803 136.703 109.541 137.076 109.364C137.459 109.177 137.879 109.084 138.336 109.084C138.934 109.084 139.466 109.243 139.932 109.56C140.408 109.868 140.786 110.288 141.066 110.82C141.346 111.343 141.486 111.931 141.486 112.584C141.486 113.237 141.342 113.83 141.052 114.362C140.772 114.894 140.39 115.319 139.904 115.636C139.428 115.944 138.887 116.098 138.28 116.098C137.851 116.098 137.454 116.019 137.09 115.86C136.726 115.692 136.409 115.454 136.138 115.146V118.926H135.116ZM138.084 115.216C138.542 115.216 138.948 115.104 139.302 114.88C139.666 114.647 139.951 114.334 140.156 113.942C140.371 113.541 140.478 113.093 140.478 112.598C140.478 112.094 140.371 111.646 140.156 111.254C139.951 110.862 139.666 110.554 139.302 110.33C138.948 110.097 138.542 109.98 138.084 109.98C137.683 109.98 137.31 110.064 136.964 110.232C136.628 110.391 136.353 110.619 136.138 110.918V114.264C136.362 114.563 136.642 114.796 136.978 114.964C137.324 115.132 137.692 115.216 138.084 115.216ZM145.459 116.14C144.871 116.14 144.423 116 144.115 115.72C143.816 115.431 143.667 115.015 143.667 114.474V110.008H142.253V109.168H143.667V107.292L144.689 107.054V109.168H146.649V110.008H144.689V114.208C144.689 114.572 144.763 114.833 144.913 114.992C145.071 115.151 145.328 115.23 145.683 115.23C145.86 115.23 146.019 115.216 146.159 115.188C146.299 115.16 146.462 115.113 146.649 115.048V115.958C146.462 116.023 146.266 116.07 146.061 116.098C145.855 116.126 145.655 116.14 145.459 116.14ZM148.132 116V109.168H149.154V116H148.132ZM148.65 107.474C148.444 107.474 148.267 107.404 148.118 107.264C147.978 107.115 147.908 106.942 147.908 106.746C147.908 106.55 147.978 106.382 148.118 106.242C148.267 106.093 148.444 106.018 148.65 106.018C148.855 106.018 149.028 106.093 149.168 106.242C149.317 106.382 149.392 106.55 149.392 106.746C149.392 106.942 149.317 107.115 149.168 107.264C149.028 107.404 148.855 107.474 148.65 107.474ZM154.273 116.112C153.639 116.112 153.069 115.958 152.565 115.65C152.061 115.342 151.665 114.922 151.375 114.39C151.086 113.858 150.941 113.256 150.941 112.584C150.941 111.912 151.086 111.31 151.375 110.778C151.665 110.246 152.061 109.826 152.565 109.518C153.069 109.21 153.639 109.056 154.273 109.056C154.899 109.056 155.459 109.21 155.953 109.518C156.457 109.826 156.854 110.246 157.143 110.778C157.433 111.31 157.577 111.912 157.577 112.584C157.577 113.256 157.433 113.858 157.143 114.39C156.854 114.922 156.457 115.342 155.953 115.65C155.459 115.958 154.899 116.112 154.273 116.112ZM154.259 115.216C154.707 115.216 155.104 115.104 155.449 114.88C155.795 114.647 156.065 114.329 156.261 113.928C156.467 113.527 156.569 113.079 156.569 112.584C156.569 112.08 156.467 111.632 156.261 111.24C156.065 110.839 155.795 110.526 155.449 110.302C155.104 110.069 154.707 109.952 154.259 109.952C153.811 109.952 153.415 110.069 153.069 110.302C152.724 110.526 152.449 110.839 152.243 111.24C152.047 111.632 151.949 112.08 151.949 112.584C151.949 113.079 152.047 113.527 152.243 113.928C152.449 114.329 152.724 114.647 153.069 114.88C153.415 115.104 153.811 115.216 154.259 115.216ZM159.37 116V109.168H160.392V110.274C160.654 109.863 160.966 109.56 161.33 109.364C161.694 109.159 162.105 109.056 162.562 109.056C163.057 109.056 163.486 109.163 163.85 109.378C164.224 109.583 164.513 109.877 164.718 110.26C164.933 110.633 165.04 111.072 165.04 111.576V116H164.018V111.87C164.018 111.263 163.85 110.787 163.514 110.442C163.188 110.087 162.744 109.91 162.184 109.91C161.811 109.91 161.47 109.999 161.162 110.176C160.854 110.353 160.598 110.615 160.392 110.96V116H159.37ZM171.231 116V110.008H169.705V109.168H171.231V107.74C171.231 107.068 171.408 106.55 171.763 106.186C172.117 105.822 172.621 105.64 173.275 105.64C173.461 105.64 173.629 105.649 173.779 105.668C173.937 105.687 174.077 105.719 174.199 105.766V106.69C174.049 106.643 173.914 106.611 173.793 106.592C173.671 106.573 173.531 106.564 173.373 106.564C172.981 106.564 172.696 106.662 172.519 106.858C172.341 107.045 172.253 107.343 172.253 107.754V109.168H174.199V110.008H172.253V116H171.231ZM178.281 116.112C177.646 116.112 177.077 115.958 176.573 115.65C176.069 115.342 175.672 114.922 175.383 114.39C175.094 113.858 174.949 113.256 174.949 112.584C174.949 111.912 175.094 111.31 175.383 110.778C175.672 110.246 176.069 109.826 176.573 109.518C177.077 109.21 177.646 109.056 178.281 109.056C178.906 109.056 179.466 109.21 179.961 109.518C180.465 109.826 180.862 110.246 181.151 110.778C181.44 111.31 181.585 111.912 181.585 112.584C181.585 113.256 181.44 113.858 181.151 114.39C180.862 114.922 180.465 115.342 179.961 115.65C179.466 115.958 178.906 116.112 178.281 116.112ZM178.267 115.216C178.715 115.216 179.112 115.104 179.457 114.88C179.802 114.647 180.073 114.329 180.269 113.928C180.474 113.527 180.577 113.079 180.577 112.584C180.577 112.08 180.474 111.632 180.269 111.24C180.073 110.839 179.802 110.526 179.457 110.302C179.112 110.069 178.715 109.952 178.267 109.952C177.819 109.952 177.422 110.069 177.077 110.302C176.732 110.526 176.456 110.839 176.251 111.24C176.055 111.632 175.957 112.08 175.957 112.584C175.957 113.079 176.055 113.527 176.251 113.928C176.456 114.329 176.732 114.647 177.077 114.88C177.422 115.104 177.819 115.216 178.267 115.216ZM183.378 116V109.168H184.4V110.568C184.577 110.092 184.829 109.723 185.156 109.462C185.492 109.191 185.875 109.056 186.304 109.056C186.425 109.056 186.537 109.065 186.64 109.084C186.743 109.093 186.845 109.117 186.948 109.154V110.078C186.836 110.041 186.715 110.013 186.584 109.994C186.463 109.966 186.346 109.952 186.234 109.952C185.814 109.952 185.445 110.073 185.128 110.316C184.82 110.559 184.577 110.899 184.4 111.338V116H183.378ZM194.172 116.14C193.584 116.14 193.136 116 192.828 115.72C192.529 115.431 192.38 115.015 192.38 114.474V110.008H190.966V109.168H192.38V107.292L193.402 107.054V109.168H195.362V110.008H193.402V114.208C193.402 114.572 193.476 114.833 193.626 114.992C193.784 115.151 194.041 115.23 194.396 115.23C194.573 115.23 194.732 115.216 194.872 115.188C195.012 115.16 195.175 115.113 195.362 115.048V115.958C195.175 116.023 194.979 116.07 194.774 116.098C194.568 116.126 194.368 116.14 194.172 116.14ZM196.859 116V105.892L197.881 105.682V110.274C198.142 109.863 198.455 109.56 198.819 109.364C199.183 109.159 199.593 109.056 200.051 109.056C200.545 109.056 200.975 109.163 201.339 109.378C201.712 109.583 202.001 109.877 202.207 110.26C202.421 110.633 202.529 111.072 202.529 111.576V116H201.507V111.87C201.507 111.263 201.339 110.787 201.003 110.442C200.676 110.087 200.233 109.91 199.673 109.91C199.299 109.91 198.959 109.999 198.651 110.176C198.343 110.353 198.086 110.615 197.881 110.96V116H196.859ZM207.663 116.14C207.029 116.14 206.455 115.986 205.941 115.678C205.428 115.361 205.022 114.936 204.723 114.404C204.425 113.863 204.275 113.256 204.275 112.584C204.275 111.912 204.415 111.31 204.695 110.778C204.985 110.246 205.372 109.826 205.857 109.518C206.343 109.21 206.884 109.056 207.481 109.056C208.088 109.056 208.625 109.21 209.091 109.518C209.567 109.817 209.941 110.227 210.211 110.75C210.491 111.263 210.631 111.847 210.631 112.5V112.808H205.269C205.307 113.275 205.433 113.695 205.647 114.068C205.871 114.432 206.161 114.721 206.515 114.936C206.879 115.141 207.276 115.244 207.705 115.244C208.06 115.244 208.401 115.183 208.727 115.062C209.063 114.931 209.348 114.759 209.581 114.544L210.225 115.23C209.833 115.538 209.427 115.767 209.007 115.916C208.587 116.065 208.139 116.14 207.663 116.14ZM205.297 112.08H209.623C209.577 111.669 209.451 111.305 209.245 110.988C209.049 110.661 208.797 110.405 208.489 110.218C208.191 110.031 207.855 109.938 207.481 109.938C207.108 109.938 206.767 110.031 206.459 110.218C206.151 110.395 205.895 110.647 205.689 110.974C205.493 111.291 205.363 111.66 205.297 112.08ZM216.862 116L214.986 109.168H215.98L217.408 114.628L219.046 109.168H219.956L221.594 114.628L223.008 109.168H223.974L222.112 116H221.118L219.494 110.484L217.87 116H216.862ZM225.405 116V109.168H226.427V116H225.405ZM225.923 107.474C225.718 107.474 225.54 107.404 225.391 107.264C225.251 107.115 225.181 106.942 225.181 106.746C225.181 106.55 225.251 106.382 225.391 106.242C225.54 106.093 225.718 106.018 225.923 106.018C226.128 106.018 226.301 106.093 226.441 106.242C226.59 106.382 226.665 106.55 226.665 106.746C226.665 106.942 226.59 107.115 226.441 107.264C226.301 107.404 226.128 107.474 225.923 107.474ZM228.047 116V115.188L231.981 110.092L228.089 110.106V109.168H233.227V109.966L229.279 115.09L233.283 115.076V116H228.047ZM237.062 116.126C236.577 116.126 236.148 116.037 235.774 115.86C235.401 115.683 235.107 115.44 234.892 115.132C234.687 114.815 234.584 114.451 234.584 114.04C234.584 113.629 234.692 113.275 234.906 112.976C235.121 112.668 235.42 112.43 235.802 112.262C236.185 112.094 236.633 112.01 237.146 112.01C237.538 112.01 237.907 112.052 238.252 112.136C238.607 112.22 238.934 112.355 239.232 112.542V111.604C239.232 111.044 239.083 110.624 238.784 110.344C238.486 110.055 238.047 109.91 237.468 109.91C237.151 109.91 236.824 109.957 236.488 110.05C236.162 110.143 235.798 110.293 235.396 110.498L235.018 109.714C235.933 109.275 236.792 109.056 237.594 109.056C238.444 109.056 239.097 109.266 239.554 109.686C240.012 110.097 240.24 110.689 240.24 111.464V116H239.232V115.202C238.934 115.51 238.602 115.743 238.238 115.902C237.874 116.051 237.482 116.126 237.062 116.126ZM235.564 114.012C235.564 114.413 235.718 114.735 236.026 114.978C236.344 115.221 236.759 115.342 237.272 115.342C237.655 115.342 238.005 115.277 238.322 115.146C238.649 115.015 238.952 114.819 239.232 114.558V113.242C238.943 113.074 238.644 112.953 238.336 112.878C238.028 112.794 237.683 112.752 237.3 112.752C236.778 112.752 236.358 112.869 236.04 113.102C235.723 113.326 235.564 113.629 235.564 114.012ZM242.318 116V109.168H243.34V110.568C243.517 110.092 243.769 109.723 244.096 109.462C244.432 109.191 244.814 109.056 245.244 109.056C245.365 109.056 245.477 109.065 245.58 109.084C245.682 109.093 245.785 109.117 245.888 109.154V110.078C245.776 110.041 245.654 110.013 245.524 109.994C245.402 109.966 245.286 109.952 245.174 109.952C244.754 109.952 244.385 110.073 244.068 110.316C243.76 110.559 243.517 110.899 243.34 111.338V116H242.318ZM249.658 116.098C249.07 116.098 248.538 115.944 248.062 115.636C247.586 115.319 247.208 114.899 246.928 114.376C246.648 113.844 246.508 113.251 246.508 112.598C246.508 111.935 246.648 111.343 246.928 110.82C247.217 110.288 247.604 109.868 248.09 109.56C248.575 109.243 249.116 109.084 249.714 109.084C250.134 109.084 250.526 109.168 250.89 109.336C251.254 109.495 251.571 109.728 251.842 110.036V105.892L252.864 105.682V116H251.842V115.09C251.58 115.417 251.263 115.669 250.89 115.846C250.516 116.014 250.106 116.098 249.658 116.098ZM249.91 115.202C250.311 115.202 250.68 115.123 251.016 114.964C251.352 114.805 251.627 114.581 251.842 114.292V110.904C251.618 110.615 251.333 110.391 250.988 110.232C250.652 110.064 250.292 109.98 249.91 109.98C249.452 109.98 249.042 110.092 248.678 110.316C248.323 110.54 248.038 110.848 247.824 111.24C247.618 111.632 247.516 112.08 247.516 112.584C247.516 113.079 247.618 113.527 247.824 113.928C248.038 114.32 248.323 114.633 248.678 114.866C249.042 115.09 249.452 115.202 249.91 115.202ZM261.396 119.066C260.938 119.066 260.476 119.001 260.01 118.87C259.552 118.749 259.128 118.576 258.736 118.352L259.17 117.568C259.59 117.783 259.972 117.941 260.318 118.044C260.663 118.147 261.008 118.198 261.354 118.198C261.979 118.198 262.45 118.049 262.768 117.75C263.094 117.451 263.258 117.017 263.258 116.448V115.076C262.996 115.403 262.679 115.655 262.306 115.832C261.932 116 261.522 116.084 261.074 116.084C260.486 116.084 259.954 115.93 259.478 115.622C259.002 115.305 258.624 114.885 258.344 114.362C258.064 113.83 257.924 113.237 257.924 112.584C257.924 111.931 258.064 111.343 258.344 110.82C258.633 110.288 259.02 109.868 259.506 109.56C259.991 109.243 260.532 109.084 261.13 109.084C261.559 109.084 261.956 109.168 262.32 109.336C262.684 109.495 263.001 109.733 263.272 110.05V109.168H264.28V116.434C264.28 117.283 264.032 117.932 263.538 118.38C263.043 118.837 262.329 119.066 261.396 119.066ZM261.326 115.202C261.727 115.202 262.096 115.123 262.432 114.964C262.768 114.796 263.043 114.567 263.258 114.278V110.904C263.034 110.615 262.749 110.391 262.404 110.232C262.068 110.064 261.708 109.98 261.326 109.98C260.868 109.98 260.458 110.092 260.094 110.316C259.739 110.54 259.454 110.848 259.24 111.24C259.034 111.632 258.932 112.08 258.932 112.584C258.932 113.079 259.034 113.527 259.24 113.928C259.454 114.32 259.739 114.633 260.094 114.866C260.458 115.09 260.868 115.202 261.326 115.202ZM269.404 116.112C268.769 116.112 268.2 115.958 267.696 115.65C267.192 115.342 266.795 114.922 266.506 114.39C266.217 113.858 266.072 113.256 266.072 112.584C266.072 111.912 266.217 111.31 266.506 110.778C266.795 110.246 267.192 109.826 267.696 109.518C268.2 109.21 268.769 109.056 269.404 109.056C270.029 109.056 270.589 109.21 271.084 109.518C271.588 109.826 271.985 110.246 272.274 110.778C272.563 111.31 272.708 111.912 272.708 112.584C272.708 113.256 272.563 113.858 272.274 114.39C271.985 114.922 271.588 115.342 271.084 115.65C270.589 115.958 270.029 116.112 269.404 116.112ZM269.39 115.216C269.838 115.216 270.235 115.104 270.58 114.88C270.925 114.647 271.196 114.329 271.392 113.928C271.597 113.527 271.7 113.079 271.7 112.584C271.7 112.08 271.597 111.632 271.392 111.24C271.196 110.839 270.925 110.526 270.58 110.302C270.235 110.069 269.838 109.952 269.39 109.952C268.942 109.952 268.545 110.069 268.2 110.302C267.855 110.526 267.579 110.839 267.374 111.24C267.178 111.632 267.08 112.08 267.08 112.584C267.08 113.079 267.178 113.527 267.374 113.928C267.579 114.329 267.855 114.647 268.2 114.88C268.545 115.104 268.942 115.216 269.39 115.216ZM277.581 116.14C276.947 116.14 276.373 115.986 275.859 115.678C275.346 115.361 274.94 114.936 274.641 114.404C274.343 113.863 274.193 113.256 274.193 112.584C274.193 111.912 274.333 111.31 274.613 110.778C274.903 110.246 275.29 109.826 275.775 109.518C276.261 109.21 276.802 109.056 277.399 109.056C278.006 109.056 278.543 109.21 279.009 109.518C279.485 109.817 279.859 110.227 280.129 110.75C280.409 111.263 280.549 111.847 280.549 112.5V112.808H275.187C275.225 113.275 275.351 113.695 275.565 114.068C275.789 114.432 276.079 114.721 276.433 114.936C276.797 115.141 277.194 115.244 277.623 115.244C277.978 115.244 278.319 115.183 278.645 115.062C278.981 114.931 279.266 114.759 279.499 114.544L280.143 115.23C279.751 115.538 279.345 115.767 278.925 115.916C278.505 116.065 278.057 116.14 277.581 116.14ZM275.215 112.08H279.541C279.495 111.669 279.369 111.305 279.163 110.988C278.967 110.661 278.715 110.405 278.407 110.218C278.109 110.031 277.773 109.938 277.399 109.938C277.026 109.938 276.685 110.031 276.377 110.218C276.069 110.395 275.813 110.647 275.607 110.974C275.411 111.291 275.281 111.66 275.215 112.08ZM284.477 116.14C283.917 116.14 283.399 116.056 282.923 115.888C282.447 115.711 282.041 115.459 281.705 115.132L282.251 114.46C282.661 114.759 283.039 114.978 283.385 115.118C283.73 115.249 284.085 115.314 284.449 115.314C284.943 115.314 285.354 115.197 285.681 114.964C286.007 114.731 286.171 114.432 286.171 114.068C286.171 113.788 286.073 113.569 285.877 113.41C285.69 113.251 285.377 113.13 284.939 113.046L283.819 112.85C283.156 112.729 282.666 112.523 282.349 112.234C282.041 111.945 281.887 111.553 281.887 111.058C281.887 110.666 281.989 110.321 282.195 110.022C282.409 109.723 282.703 109.49 283.077 109.322C283.45 109.145 283.875 109.056 284.351 109.056C284.817 109.056 285.261 109.126 285.681 109.266C286.101 109.397 286.525 109.611 286.955 109.91L286.451 110.624C286.096 110.372 285.741 110.19 285.387 110.078C285.032 109.957 284.673 109.896 284.309 109.896C283.861 109.896 283.501 109.994 283.231 110.19C282.96 110.386 282.825 110.652 282.825 110.988C282.825 111.268 282.909 111.483 283.077 111.632C283.254 111.781 283.562 111.893 284.001 111.968L285.149 112.178C285.839 112.299 286.343 112.509 286.661 112.808C286.978 113.107 287.137 113.508 287.137 114.012C287.137 114.413 287.02 114.777 286.787 115.104C286.553 115.421 286.236 115.673 285.835 115.86C285.433 116.047 284.981 116.14 284.477 116.14ZM291.96 116V105.892L292.982 105.682V110.274C293.243 109.863 293.556 109.56 293.92 109.364C294.284 109.159 294.695 109.056 295.152 109.056C295.647 109.056 296.076 109.163 296.44 109.378C296.813 109.583 297.103 109.877 297.308 110.26C297.523 110.633 297.63 111.072 297.63 111.576V116H296.608V111.87C296.608 111.263 296.44 110.787 296.104 110.442C295.777 110.087 295.334 109.91 294.774 109.91C294.401 109.91 294.06 109.999 293.752 110.176C293.444 110.353 293.187 110.615 292.982 110.96V116H291.96ZM302.765 116.14C302.13 116.14 301.556 115.986 301.043 115.678C300.529 115.361 300.123 114.936 299.825 114.404C299.526 113.863 299.377 113.256 299.377 112.584C299.377 111.912 299.517 111.31 299.797 110.778C300.086 110.246 300.473 109.826 300.959 109.518C301.444 109.21 301.985 109.056 302.583 109.056C303.189 109.056 303.726 109.21 304.193 109.518C304.669 109.817 305.042 110.227 305.313 110.75C305.593 111.263 305.733 111.847 305.733 112.5V112.808H300.371C300.408 113.275 300.534 113.695 300.749 114.068C300.973 114.432 301.262 114.721 301.617 114.936C301.981 115.141 302.377 115.244 302.807 115.244C303.161 115.244 303.502 115.183 303.829 115.062C304.165 114.931 304.449 114.759 304.683 114.544L305.327 115.23C304.935 115.538 304.529 115.767 304.109 115.916C303.689 116.065 303.241 116.14 302.765 116.14ZM300.399 112.08H304.725C304.678 111.669 304.552 111.305 304.347 110.988C304.151 110.661 303.899 110.405 303.591 110.218C303.292 110.031 302.956 109.938 302.583 109.938C302.209 109.938 301.869 110.031 301.561 110.218C301.253 110.395 300.996 110.647 300.791 110.974C300.595 111.291 300.464 111.66 300.399 112.08ZM307.478 116V109.168H308.5V110.568C308.677 110.092 308.929 109.723 309.256 109.462C309.592 109.191 309.974 109.056 310.404 109.056C310.525 109.056 310.637 109.065 310.74 109.084C310.842 109.093 310.945 109.117 311.048 109.154V110.078C310.936 110.041 310.814 110.013 310.684 109.994C310.562 109.966 310.446 109.952 310.334 109.952C309.914 109.952 309.545 110.073 309.228 110.316C308.92 110.559 308.677 110.899 308.5 111.338V116H307.478ZM315.056 116.14C314.421 116.14 313.847 115.986 313.334 115.678C312.82 115.361 312.414 114.936 312.116 114.404C311.817 113.863 311.668 113.256 311.668 112.584C311.668 111.912 311.808 111.31 312.088 110.778C312.377 110.246 312.764 109.826 313.25 109.518C313.735 109.21 314.276 109.056 314.874 109.056C315.48 109.056 316.017 109.21 316.484 109.518C316.96 109.817 317.333 110.227 317.604 110.75C317.884 111.263 318.024 111.847 318.024 112.5V112.808H312.662C312.699 113.275 312.825 113.695 313.04 114.068C313.264 114.432 313.553 114.721 313.908 114.936C314.272 115.141 314.668 115.244 315.098 115.244C315.452 115.244 315.793 115.183 316.12 115.062C316.456 114.931 316.74 114.759 316.974 114.544L317.618 115.23C317.226 115.538 316.82 115.767 316.4 115.916C315.98 116.065 315.532 116.14 315.056 116.14ZM312.69 112.08H317.016C316.969 111.669 316.843 111.305 316.638 110.988C316.442 110.661 316.19 110.405 315.882 110.218C315.583 110.031 315.247 109.938 314.874 109.938C314.5 109.938 314.16 110.031 313.852 110.218C313.544 110.395 313.287 110.647 313.082 110.974C312.886 111.291 312.755 111.66 312.69 112.08ZM320.113 116.112C319.908 116.112 319.731 116.037 319.581 115.888C319.441 115.739 319.371 115.561 319.371 115.356C319.371 115.141 319.441 114.964 319.581 114.824C319.731 114.675 319.908 114.6 320.113 114.6C320.319 114.6 320.491 114.675 320.631 114.824C320.781 114.964 320.855 115.141 320.855 115.356C320.855 115.561 320.781 115.739 320.631 115.888C320.491 116.037 320.319 116.112 320.113 116.112Z" fill="#4D4D4D"/>
</g>
<path d="M640.305 336.653C640.567 336.184 641.127 335.989 641.626 336.174C642.659 336.563 643.604 337.121 644.435 337.82C644.838 338.156 644.942 338.749 644.68 339.208L643.963 340.473C644.567 341.181 645.038 342.004 645.353 342.897H646.798C647.323 342.897 647.778 343.277 647.865 343.808C648.04 344.869 648.049 345.984 647.865 347.089C647.778 347.62 647.323 348.009 646.798 348.009H645.353C645.038 348.902 644.567 349.725 643.963 350.433L644.68 351.698C644.942 352.157 644.846 352.75 644.435 353.086C643.604 353.785 642.65 354.343 641.626 354.732C641.127 354.917 640.567 354.723 640.305 354.254L639.587 352.99C638.677 353.158 637.732 353.158 636.813 352.99L636.096 354.254C635.833 354.723 635.273 354.917 634.774 354.732C633.742 354.343 632.797 353.785 631.966 353.086C631.563 352.75 631.458 352.158 631.721 351.698L632.437 350.433C631.834 349.725 631.362 348.902 631.047 348.009H629.602C629.077 348.009 628.623 347.629 628.535 347.098C628.36 346.037 628.351 344.922 628.535 343.817C628.623 343.286 629.078 342.897 629.602 342.897H631.047C631.362 342.004 631.834 341.181 632.437 340.473L631.721 339.208C631.458 338.748 631.554 338.156 631.966 337.82C632.797 337.121 633.751 336.563 634.774 336.174C635.273 335.989 635.833 336.184 636.096 336.653L636.813 337.917C637.732 337.749 638.668 337.749 639.587 337.917L640.305 336.653ZM607.542 312.629C609.695 312.258 611.961 312.24 614.192 312.62C615.199 312.797 615.942 313.673 615.942 314.707V317.68C617.719 318.317 619.347 319.272 620.747 320.484L623.293 318.997C624.168 318.484 625.298 318.679 625.945 319.466C627.363 321.182 628.85 323.146 629.629 325.286C629.979 326.251 629.638 327.339 628.754 327.861L625.805 329.346C626.146 331.204 626.146 333.106 625.805 334.963L628.754 336.449C629.638 336.962 630.023 338.05 629.673 339.023C628.894 341.163 627.363 343.127 625.945 344.843C625.298 345.63 624.177 345.825 623.293 345.312L620.747 343.826C619.347 345.037 617.719 346.001 615.942 346.629V349.602C615.942 350.628 615.216 351.512 614.219 351.689C612.066 352.06 609.808 352.078 607.577 351.689C606.571 351.512 605.827 350.637 605.827 349.602V346.629C604.051 345.992 602.422 345.037 601.022 343.826L598.476 345.303C597.602 345.816 596.473 345.621 595.825 344.834C594.407 343.118 592.911 341.154 592.132 339.023C591.782 338.059 592.167 336.97 593.051 336.449L595.965 334.963C595.624 333.115 595.624 331.212 595.965 329.355L593.051 327.861C592.167 327.348 591.773 326.259 592.132 325.295C592.911 323.155 594.407 321.191 595.825 319.475C596.473 318.688 597.593 318.493 598.476 319.006L601.022 320.493C602.422 319.281 604.051 318.317 605.827 317.689V314.707C605.827 313.69 606.545 312.806 607.542 312.629ZM640.515 343.11C637.146 340.492 633.304 344.374 635.894 347.78C639.263 350.397 643.104 346.515 640.515 343.11ZM615.514 336.829C620.694 330.019 613.003 322.244 606.265 327.48C601.084 334.29 608.776 342.065 615.514 336.829ZM640.305 310.214C640.567 309.745 641.127 309.551 641.626 309.737C642.659 310.126 643.604 310.683 644.435 311.382C644.838 311.718 644.942 312.311 644.68 312.771L643.963 314.035C644.567 314.743 645.038 315.566 645.353 316.459H646.798C647.323 316.459 647.778 316.84 647.865 317.37C648.04 318.432 648.049 319.546 647.865 320.652C647.778 321.182 647.323 321.572 646.798 321.572H645.353C645.038 322.465 644.566 323.287 643.963 323.994L644.68 325.26C644.942 325.72 644.847 326.313 644.435 326.649C643.604 327.348 642.65 327.904 641.626 328.293C641.127 328.479 640.567 328.285 640.305 327.816L639.587 326.551C638.677 326.719 637.732 326.719 636.813 326.551L636.096 327.816C635.833 328.285 635.273 328.479 634.774 328.293C633.742 327.904 632.797 327.347 631.966 326.649C631.563 326.313 631.458 325.72 631.721 325.26L632.437 323.994C631.834 323.287 631.362 322.465 631.047 321.572H629.602C629.078 321.572 628.623 321.191 628.535 320.66C628.36 319.599 628.351 318.485 628.535 317.379C628.623 316.849 629.077 316.459 629.602 316.459H631.047C631.362 315.566 631.834 314.743 632.437 314.035L631.721 312.771C631.458 312.311 631.554 311.718 631.966 311.382C632.797 310.683 633.751 310.126 634.774 309.737C635.273 309.551 635.833 309.746 636.096 310.214L636.813 311.479C637.732 311.311 638.668 311.311 639.587 311.479L640.305 310.214ZM640.515 316.68C637.146 314.053 633.305 317.945 635.894 321.35C639.263 323.968 643.105 320.085 640.515 316.68Z" fill="#1F1F1F"/>
<path d="M513.219 405.22C512.179 405.22 511.212 405.04 510.319 404.68C509.439 404.307 508.659 403.793 507.979 403.14C507.312 402.473 506.792 401.707 506.419 400.84C506.059 399.96 505.879 399.013 505.879 398C505.879 396.987 506.059 396.047 506.419 395.18C506.792 394.3 507.312 393.533 507.979 392.88C508.659 392.213 509.445 391.7 510.339 391.34C511.232 390.967 512.192 390.78 513.219 390.78C513.952 390.78 514.665 390.88 515.359 391.08C516.065 391.267 516.712 391.54 517.299 391.9C517.899 392.26 518.419 392.693 518.859 393.2L517.459 394.64C516.939 394.013 516.305 393.54 515.559 393.22C514.812 392.887 514.032 392.72 513.219 392.72C512.232 392.72 511.345 392.953 510.559 393.42C509.772 393.887 509.152 394.52 508.699 395.32C508.245 396.107 508.019 397 508.019 398C508.019 399 508.245 399.9 508.699 400.7C509.165 401.487 509.799 402.113 510.599 402.58C511.399 403.047 512.292 403.28 513.279 403.28C514.092 403.28 514.859 403.12 515.579 402.8C516.312 402.467 516.932 402 517.439 401.4L518.819 402.8C518.352 403.293 517.819 403.727 517.219 404.1C516.632 404.46 515.992 404.74 515.299 404.94C514.619 405.127 513.925 405.22 513.219 405.22ZM525.18 405.2C524.193 405.2 523.293 404.967 522.48 404.5C521.68 404.033 521.047 403.4 520.58 402.6C520.113 401.8 519.88 400.907 519.88 399.92C519.88 398.933 520.113 398.04 520.58 397.24C521.047 396.44 521.68 395.807 522.48 395.34C523.293 394.86 524.193 394.62 525.18 394.62C526.18 394.62 527.08 394.86 527.88 395.34C528.68 395.807 529.313 396.44 529.78 397.24C530.247 398.04 530.48 398.933 530.48 399.92C530.48 400.907 530.247 401.8 529.78 402.6C529.313 403.4 528.68 404.033 527.88 404.5C527.08 404.967 526.18 405.2 525.18 405.2ZM525.18 403.44C525.807 403.44 526.367 403.287 526.86 402.98C527.367 402.66 527.767 402.233 528.06 401.7C528.367 401.167 528.52 400.573 528.52 399.92C528.52 399.253 528.373 398.66 528.08 398.14C527.787 397.607 527.387 397.18 526.88 396.86C526.373 396.54 525.807 396.38 525.18 396.38C524.553 396.38 523.987 396.54 523.48 396.86C522.973 397.18 522.573 397.607 522.28 398.14C521.987 398.66 521.84 399.253 521.84 399.92C521.84 400.573 521.987 401.167 522.28 401.7C522.573 402.233 522.973 402.66 523.48 402.98C523.987 403.287 524.553 403.44 525.18 403.44ZM532.371 405V394.82H534.371V395.86C535.158 395.033 536.178 394.62 537.431 394.62C538.218 394.62 538.905 394.787 539.491 395.12C540.091 395.453 540.558 395.92 540.891 396.52C541.238 397.12 541.411 397.813 541.411 398.6V405H539.411V398.94C539.411 398.14 539.185 397.513 538.731 397.06C538.278 396.593 537.658 396.36 536.871 396.36C536.338 396.36 535.858 396.473 535.431 396.7C535.005 396.927 534.651 397.253 534.371 397.68V405H532.371ZM544.946 405V396.5H542.586V394.82H544.946V393.28C544.946 392.213 545.239 391.4 545.826 390.84C546.426 390.28 547.279 390 548.386 390C548.666 390 548.926 390.02 549.166 390.06C549.419 390.087 549.646 390.133 549.846 390.2V391.92C549.606 391.853 549.393 391.807 549.206 391.78C549.019 391.74 548.813 391.72 548.586 391.72C547.479 391.72 546.926 392.26 546.926 393.34V394.82H549.846V396.5H546.926V405H544.946ZM551.375 405V394.82H553.375V405H551.375ZM552.375 393.18C552.042 393.18 551.755 393.06 551.515 392.82C551.275 392.567 551.155 392.273 551.155 391.94C551.155 391.593 551.275 391.307 551.515 391.08C551.755 390.84 552.042 390.72 552.375 390.72C552.722 390.72 553.015 390.84 553.255 391.08C553.495 391.307 553.615 391.593 553.615 391.94C553.615 392.273 553.495 392.567 553.255 392.82C553.015 393.06 552.722 393.18 552.375 393.18ZM560.771 409.28C560.024 409.28 559.297 409.193 558.591 409.02C557.897 408.847 557.257 408.6 556.671 408.28L557.431 406.72C558.577 407.307 559.671 407.6 560.711 407.6C562.524 407.6 563.431 406.787 563.431 405.16V404C562.537 404.707 561.517 405.06 560.371 405.06C559.437 405.06 558.577 404.833 557.791 404.38C557.017 403.913 556.404 403.287 555.951 402.5C555.497 401.7 555.271 400.82 555.271 399.86C555.271 398.887 555.497 398.007 555.951 397.22C556.417 396.42 557.037 395.793 557.811 395.34C558.597 394.873 559.477 394.64 560.451 394.64C561.557 394.64 562.557 394.987 563.451 395.68V394.82H565.431V405.16C565.431 406.48 565.024 407.493 564.211 408.2C563.411 408.92 562.264 409.28 560.771 409.28ZM560.631 403.34C561.831 403.34 562.764 402.94 563.431 402.14V397.58C563.111 397.207 562.704 396.913 562.211 396.7C561.731 396.487 561.204 396.38 560.631 396.38C559.991 396.38 559.411 396.533 558.891 396.84C558.384 397.147 557.977 397.567 557.671 398.1C557.377 398.62 557.231 399.207 557.231 399.86C557.231 400.513 557.377 401.107 557.671 401.64C557.977 402.16 558.391 402.573 558.911 402.88C559.431 403.187 560.004 403.34 560.631 403.34ZM571.722 405.2C570.935 405.2 570.242 405.033 569.642 404.7C569.042 404.367 568.575 403.9 568.242 403.3C567.908 402.7 567.742 402 567.742 401.2V394.82H569.722V400.86C569.722 401.66 569.948 402.293 570.402 402.76C570.868 403.227 571.488 403.46 572.262 403.46C573.355 403.46 574.188 403.013 574.762 402.12V394.82H576.762V405H574.762V403.96C573.975 404.787 572.962 405.2 571.722 405.2ZM579.129 405V394.82H581.129V396.12C581.449 395.64 581.843 395.267 582.309 395C582.789 394.72 583.329 394.58 583.929 394.58C584.343 394.593 584.683 394.653 584.949 394.76V396.56C584.563 396.413 584.169 396.34 583.769 396.34C583.183 396.34 582.663 396.5 582.209 396.82C581.756 397.127 581.396 397.58 581.129 398.18V405H579.129ZM589.361 405.18C588.628 405.18 587.981 405.053 587.421 404.8C586.861 404.533 586.421 404.167 586.101 403.7C585.781 403.233 585.621 402.693 585.621 402.08C585.621 401.12 585.988 400.367 586.721 399.82C587.454 399.26 588.461 398.98 589.741 398.98C590.741 398.98 591.668 399.173 592.521 399.56V398.48C592.521 397.027 591.694 396.3 590.041 396.3C589.574 396.3 589.088 396.373 588.581 396.52C588.074 396.653 587.508 396.867 586.881 397.16L586.141 395.66C586.914 395.3 587.634 395.04 588.301 394.88C588.968 394.707 589.641 394.62 590.321 394.62C591.641 394.62 592.661 394.933 593.381 395.56C594.114 396.187 594.481 397.08 594.481 398.24V405H592.521V404.12C592.068 404.48 591.581 404.747 591.061 404.92C590.541 405.093 589.974 405.18 589.361 405.18ZM587.541 402.04C587.541 402.533 587.748 402.933 588.161 403.24C588.588 403.547 589.141 403.7 589.821 403.7C590.914 403.7 591.814 403.373 592.521 402.72V401C591.788 400.573 590.914 400.36 589.901 400.36C589.168 400.36 588.588 400.513 588.161 400.82C587.748 401.113 587.541 401.52 587.541 402.04ZM600.853 405.18C599.866 405.18 599.113 404.953 598.593 404.5C598.073 404.033 597.812 403.36 597.812 402.48V396.5H595.653V394.82H597.812V392.22L599.793 391.74V394.82H602.793V396.5H599.793V402.02C599.793 402.54 599.906 402.913 600.133 403.14C600.373 403.353 600.759 403.46 601.293 403.46C601.573 403.46 601.819 403.44 602.033 403.4C602.259 403.36 602.499 403.3 602.753 403.22V404.9C602.486 404.993 602.173 405.06 601.813 405.1C601.466 405.153 601.146 405.18 600.853 405.18ZM604.266 405V394.82H606.266V405H604.266ZM605.266 393.18C604.933 393.18 604.646 393.06 604.406 392.82C604.166 392.567 604.046 392.273 604.046 391.94C604.046 391.593 604.166 391.307 604.406 391.08C604.646 390.84 604.933 390.72 605.266 390.72C605.613 390.72 605.906 390.84 606.146 391.08C606.386 391.307 606.506 391.593 606.506 391.94C606.506 392.273 606.386 392.567 606.146 392.82C605.906 393.06 605.613 393.18 605.266 393.18ZM613.461 405.2C612.475 405.2 611.575 404.967 610.761 404.5C609.961 404.033 609.328 403.4 608.861 402.6C608.395 401.8 608.161 400.907 608.161 399.92C608.161 398.933 608.395 398.04 608.861 397.24C609.328 396.44 609.961 395.807 610.761 395.34C611.575 394.86 612.475 394.62 613.461 394.62C614.461 394.62 615.361 394.86 616.161 395.34C616.961 395.807 617.595 396.44 618.061 397.24C618.528 398.04 618.761 398.933 618.761 399.92C618.761 400.907 618.528 401.8 618.061 402.6C617.595 403.4 616.961 404.033 616.161 404.5C615.361 404.967 614.461 405.2 613.461 405.2ZM613.461 403.44C614.088 403.44 614.648 403.287 615.141 402.98C615.648 402.66 616.048 402.233 616.341 401.7C616.648 401.167 616.801 400.573 616.801 399.92C616.801 399.253 616.655 398.66 616.361 398.14C616.068 397.607 615.668 397.18 615.161 396.86C614.655 396.54 614.088 396.38 613.461 396.38C612.835 396.38 612.268 396.54 611.761 396.86C611.255 397.18 610.855 397.607 610.561 398.14C610.268 398.66 610.121 399.253 610.121 399.92C610.121 400.573 610.268 401.167 610.561 401.7C610.855 402.233 611.255 402.66 611.761 402.98C612.268 403.287 612.835 403.44 613.461 403.44ZM620.653 405V394.82H622.653V395.86C623.439 395.033 624.459 394.62 625.713 394.62C626.499 394.62 627.186 394.787 627.773 395.12C628.373 395.453 628.839 395.92 629.173 396.52C629.519 397.12 629.693 397.813 629.693 398.6V405H627.693V398.94C627.693 398.14 627.466 397.513 627.013 397.06C626.559 396.593 625.939 396.36 625.153 396.36C624.619 396.36 624.139 396.473 623.713 396.7C623.286 396.927 622.933 397.253 622.653 397.68V405H620.653ZM636.18 405V394.82H638.18V405H636.18ZM637.18 393.18C636.847 393.18 636.56 393.06 636.32 392.82C636.08 392.567 635.96 392.273 635.96 391.94C635.96 391.593 636.08 391.307 636.32 391.08C636.56 390.84 636.847 390.72 637.18 390.72C637.527 390.72 637.82 390.84 638.06 391.08C638.3 391.307 638.42 391.593 638.42 391.94C638.42 392.273 638.3 392.567 638.06 392.82C637.82 393.06 637.527 393.18 637.18 393.18ZM640.535 405V394.82H642.535V395.86C643.322 395.033 644.342 394.62 645.595 394.62C646.382 394.62 647.069 394.787 647.655 395.12C648.255 395.453 648.722 395.92 649.055 396.52C649.402 397.12 649.575 397.813 649.575 398.6V405H647.575V398.94C647.575 398.14 647.349 397.513 646.895 397.06C646.442 396.593 645.822 396.36 645.035 396.36C644.502 396.36 644.022 396.473 643.595 396.7C643.169 396.927 642.815 397.253 642.535 397.68V405H640.535ZM656.063 409.08V394.82H658.043V395.8C658.896 395.04 659.936 394.66 661.163 394.66C662.123 394.66 662.989 394.893 663.763 395.36C664.549 395.827 665.169 396.453 665.623 397.24C666.076 398.027 666.303 398.913 666.303 399.9C666.303 400.887 666.069 401.78 665.603 402.58C665.149 403.367 664.529 403.993 663.743 404.46C662.969 404.927 662.096 405.16 661.123 405.16C660.563 405.16 660.023 405.073 659.503 404.9C658.983 404.713 658.503 404.453 658.063 404.12V409.08H656.063ZM660.903 403.42C661.556 403.42 662.136 403.267 662.643 402.96C663.163 402.653 663.576 402.24 663.883 401.72C664.189 401.187 664.343 400.587 664.343 399.92C664.343 399.253 664.189 398.653 663.883 398.12C663.576 397.587 663.163 397.167 662.643 396.86C662.136 396.553 661.556 396.4 660.903 396.4C660.329 396.4 659.796 396.507 659.303 396.72C658.809 396.933 658.396 397.233 658.063 397.62V402.22C658.396 402.593 658.809 402.887 659.303 403.1C659.809 403.313 660.343 403.42 660.903 403.42ZM668.211 405V394.82H670.211V396.12C670.531 395.64 670.925 395.267 671.391 395C671.871 394.72 672.411 394.58 673.011 394.58C673.425 394.593 673.765 394.653 674.031 394.76V396.56C673.645 396.413 673.251 396.34 672.851 396.34C672.265 396.34 671.745 396.5 671.291 396.82C670.838 397.127 670.478 397.58 670.211 398.18V405H668.211ZM679.887 405.2C678.901 405.2 678.001 404.967 677.187 404.5C676.387 404.033 675.754 403.4 675.287 402.6C674.821 401.8 674.587 400.907 674.587 399.92C674.587 398.933 674.821 398.04 675.287 397.24C675.754 396.44 676.387 395.807 677.187 395.34C678.001 394.86 678.901 394.62 679.887 394.62C680.887 394.62 681.787 394.86 682.587 395.34C683.387 395.807 684.021 396.44 684.487 397.24C684.954 398.04 685.187 398.933 685.187 399.92C685.187 400.907 684.954 401.8 684.487 402.6C684.021 403.4 683.387 404.033 682.587 404.5C681.787 404.967 680.887 405.2 679.887 405.2ZM679.887 403.44C680.514 403.44 681.074 403.287 681.567 402.98C682.074 402.66 682.474 402.233 682.767 401.7C683.074 401.167 683.227 400.573 683.227 399.92C683.227 399.253 683.081 398.66 682.787 398.14C682.494 397.607 682.094 397.18 681.587 396.86C681.081 396.54 680.514 396.38 679.887 396.38C679.261 396.38 678.694 396.54 678.187 396.86C677.681 397.18 677.281 397.607 676.987 398.14C676.694 398.66 676.547 399.253 676.547 399.92C676.547 400.573 676.694 401.167 676.987 401.7C677.281 402.233 677.681 402.66 678.187 402.98C678.694 403.287 679.261 403.44 679.887 403.44ZM692.118 409.28C691.372 409.28 690.645 409.193 689.938 409.02C689.245 408.847 688.605 408.6 688.018 408.28L688.778 406.72C689.925 407.307 691.018 407.6 692.058 407.6C693.872 407.6 694.778 406.787 694.778 405.16V404C693.885 404.707 692.865 405.06 691.718 405.06C690.785 405.06 689.925 404.833 689.138 404.38C688.365 403.913 687.752 403.287 687.298 402.5C686.845 401.7 686.618 400.82 686.618 399.86C686.618 398.887 686.845 398.007 687.298 397.22C687.765 396.42 688.385 395.793 689.158 395.34C689.945 394.873 690.825 394.64 691.798 394.64C692.905 394.64 693.905 394.987 694.798 395.68V394.82H696.778V405.16C696.778 406.48 696.372 407.493 695.558 408.2C694.758 408.92 693.612 409.28 692.118 409.28ZM691.978 403.34C693.178 403.34 694.112 402.94 694.778 402.14V397.58C694.458 397.207 694.052 396.913 693.558 396.7C693.078 396.487 692.552 396.38 691.978 396.38C691.338 396.38 690.758 396.533 690.238 396.84C689.732 397.147 689.325 397.567 689.018 398.1C688.725 398.62 688.578 399.207 688.578 399.86C688.578 400.513 688.725 401.107 689.018 401.64C689.325 402.16 689.738 402.573 690.258 402.88C690.778 403.187 691.352 403.34 691.978 403.34ZM699.129 405V394.82H701.129V396.12C701.449 395.64 701.843 395.267 702.309 395C702.789 394.72 703.329 394.58 703.929 394.58C704.343 394.593 704.683 394.653 704.949 394.76V396.56C704.563 396.413 704.169 396.34 703.769 396.34C703.183 396.34 702.663 396.5 702.209 396.82C701.756 397.127 701.396 397.58 701.129 398.18V405H699.129ZM710.845 405.18C709.845 405.18 708.938 404.947 708.125 404.48C707.325 404.013 706.685 403.38 706.205 402.58C705.738 401.78 705.505 400.887 705.505 399.9C705.505 398.927 705.732 398.047 706.185 397.26C706.638 396.46 707.252 395.827 708.025 395.36C708.798 394.88 709.658 394.64 710.605 394.64C711.552 394.64 712.392 394.88 713.125 395.36C713.858 395.827 714.438 396.467 714.865 397.28C715.305 398.08 715.525 398.987 715.525 400V400.56H707.505C707.612 401.12 707.818 401.62 708.125 402.06C708.445 402.5 708.845 402.847 709.325 403.1C709.818 403.353 710.352 403.48 710.925 403.48C711.418 403.48 711.892 403.407 712.345 403.26C712.812 403.1 713.198 402.873 713.505 402.58L714.785 403.84C714.185 404.293 713.565 404.633 712.925 404.86C712.298 405.073 711.605 405.18 710.845 405.18ZM707.525 399.06H713.545C713.465 398.527 713.278 398.06 712.985 397.66C712.705 397.247 712.352 396.927 711.925 396.7C711.512 396.46 711.058 396.34 710.565 396.34C709.792 396.34 709.125 396.593 708.565 397.1C708.018 397.593 707.672 398.247 707.525 399.06ZM721.028 405.2C720.148 405.2 719.321 405.073 718.548 404.82C717.788 404.553 717.128 404.18 716.568 403.7L717.668 402.38C718.188 402.793 718.721 403.113 719.268 403.34C719.828 403.553 720.394 403.66 720.968 403.66C721.688 403.66 722.274 403.52 722.728 403.24C723.181 402.96 723.408 402.593 723.408 402.14C723.408 401.42 722.861 400.98 721.768 400.82L719.928 400.56C718.914 400.413 718.154 400.1 717.648 399.62C717.141 399.14 716.888 398.5 716.888 397.7C716.888 397.087 717.054 396.553 717.388 396.1C717.721 395.633 718.188 395.273 718.788 395.02C719.388 394.753 720.088 394.62 720.888 394.62C721.621 394.62 722.328 394.727 723.008 394.94C723.688 395.153 724.341 395.487 724.968 395.94L723.948 397.26C722.841 396.54 721.768 396.18 720.728 396.18C720.114 396.18 719.621 396.313 719.248 396.58C718.874 396.833 718.688 397.167 718.688 397.58C718.688 397.953 718.814 398.247 719.068 398.46C719.334 398.66 719.768 398.8 720.368 398.88L722.208 399.14C723.221 399.287 723.988 399.6 724.508 400.08C725.028 400.547 725.288 401.18 725.288 401.98C725.288 402.593 725.101 403.147 724.728 403.64C724.354 404.12 723.848 404.5 723.208 404.78C722.568 405.06 721.841 405.2 721.028 405.2ZM730.325 405.2C729.445 405.2 728.618 405.073 727.845 404.82C727.085 404.553 726.425 404.18 725.865 403.7L726.965 402.38C727.485 402.793 728.018 403.113 728.565 403.34C729.125 403.553 729.691 403.66 730.265 403.66C730.985 403.66 731.571 403.52 732.025 403.24C732.478 402.96 732.705 402.593 732.705 402.14C732.705 401.42 732.158 400.98 731.065 400.82L729.225 400.56C728.211 400.413 727.451 400.1 726.945 399.62C726.438 399.14 726.185 398.5 726.185 397.7C726.185 397.087 726.351 396.553 726.685 396.1C727.018 395.633 727.485 395.273 728.085 395.02C728.685 394.753 729.385 394.62 730.185 394.62C730.918 394.62 731.625 394.727 732.305 394.94C732.985 395.153 733.638 395.487 734.265 395.94L733.245 397.26C732.138 396.54 731.065 396.18 730.025 396.18C729.411 396.18 728.918 396.313 728.545 396.58C728.171 396.833 727.985 397.167 727.985 397.58C727.985 397.953 728.111 398.247 728.365 398.46C728.631 398.66 729.065 398.8 729.665 398.88L731.505 399.14C732.518 399.287 733.285 399.6 733.805 400.08C734.325 400.547 734.585 401.18 734.585 401.98C734.585 402.593 734.398 403.147 734.025 403.64C733.651 404.12 733.145 404.5 732.505 404.78C731.865 405.06 731.138 405.2 730.325 405.2Z" fill="#151515"/>
<path d="M406.914 445V434.888H403.042V433.8H412.018V434.888H408.146V445H406.914ZM413.669 445V433.448L414.837 433.208V438.456C415.135 437.987 415.493 437.64 415.909 437.416C416.325 437.181 416.794 437.064 417.317 437.064C417.882 437.064 418.373 437.187 418.789 437.432C419.215 437.667 419.546 438.003 419.781 438.44C420.026 438.867 420.149 439.368 420.149 439.944V445H418.981V440.28C418.981 439.587 418.789 439.043 418.405 438.648C418.031 438.243 417.525 438.04 416.885 438.04C416.458 438.04 416.069 438.141 415.717 438.344C415.365 438.547 415.071 438.845 414.837 439.24V445H413.669ZM426.017 445.16C425.292 445.16 424.636 444.984 424.049 444.632C423.462 444.269 422.998 443.784 422.657 443.176C422.316 442.557 422.145 441.864 422.145 441.096C422.145 440.328 422.305 439.64 422.625 439.032C422.956 438.424 423.398 437.944 423.953 437.592C424.508 437.24 425.126 437.064 425.809 437.064C426.502 437.064 427.116 437.24 427.649 437.592C428.193 437.933 428.62 438.403 428.929 439C429.249 439.587 429.409 440.253 429.409 441V441.352H423.281C423.324 441.885 423.468 442.365 423.713 442.792C423.969 443.208 424.3 443.539 424.705 443.784C425.121 444.019 425.574 444.136 426.065 444.136C426.47 444.136 426.86 444.067 427.233 443.928C427.617 443.779 427.942 443.581 428.209 443.336L428.945 444.12C428.497 444.472 428.033 444.733 427.553 444.904C427.073 445.075 426.561 445.16 426.017 445.16ZM423.313 440.52H428.257C428.204 440.051 428.06 439.635 427.825 439.272C427.601 438.899 427.313 438.605 426.961 438.392C426.62 438.179 426.236 438.072 425.809 438.072C425.382 438.072 424.993 438.179 424.641 438.392C424.289 438.595 423.996 438.883 423.761 439.256C423.537 439.619 423.388 440.04 423.313 440.52ZM436.53 445L434.386 437.192H435.522L437.154 443.432L439.026 437.192H440.066L441.938 443.432L443.554 437.192H444.658L442.53 445H441.394L439.538 438.696L437.682 445H436.53ZM446.293 445V437.192H447.461V445H446.293ZM446.885 435.256C446.651 435.256 446.448 435.176 446.277 435.016C446.117 434.845 446.037 434.648 446.037 434.424C446.037 434.2 446.117 434.008 446.277 433.848C446.448 433.677 446.651 433.592 446.885 433.592C447.12 433.592 447.317 433.677 447.477 433.848C447.648 434.008 447.733 434.2 447.733 434.424C447.733 434.648 447.648 434.845 447.477 435.016C447.317 435.176 447.12 435.256 446.885 435.256ZM449.312 445V444.072L453.808 438.248L449.36 438.264V437.192H455.232V438.104L450.72 443.96L455.296 443.944V445H449.312ZM459.616 445.144C459.061 445.144 458.571 445.043 458.144 444.84C457.717 444.637 457.381 444.36 457.136 444.008C456.901 443.645 456.784 443.229 456.784 442.76C456.784 442.291 456.907 441.885 457.152 441.544C457.397 441.192 457.739 440.92 458.176 440.728C458.613 440.536 459.125 440.44 459.712 440.44C460.16 440.44 460.581 440.488 460.976 440.584C461.381 440.68 461.755 440.835 462.096 441.048V439.976C462.096 439.336 461.925 438.856 461.584 438.536C461.243 438.205 460.741 438.04 460.08 438.04C459.717 438.04 459.344 438.093 458.96 438.2C458.587 438.307 458.171 438.477 457.712 438.712L457.28 437.816C458.325 437.315 459.307 437.064 460.224 437.064C461.195 437.064 461.941 437.304 462.464 437.784C462.987 438.253 463.248 438.931 463.248 439.816V445H462.096V444.088C461.755 444.44 461.376 444.707 460.96 444.888C460.544 445.059 460.096 445.144 459.616 445.144ZM457.904 442.728C457.904 443.187 458.08 443.555 458.432 443.832C458.795 444.109 459.269 444.248 459.856 444.248C460.293 444.248 460.693 444.173 461.056 444.024C461.429 443.875 461.776 443.651 462.096 443.352V441.848C461.765 441.656 461.424 441.517 461.072 441.432C460.72 441.336 460.325 441.288 459.888 441.288C459.291 441.288 458.811 441.421 458.448 441.688C458.085 441.944 457.904 442.291 457.904 442.728ZM465.622 445V437.192H466.79V438.792C466.993 438.248 467.281 437.827 467.654 437.528C468.038 437.219 468.475 437.064 468.966 437.064C469.105 437.064 469.233 437.075 469.35 437.096C469.467 437.107 469.585 437.133 469.702 437.176V438.232C469.574 438.189 469.435 438.157 469.286 438.136C469.147 438.104 469.014 438.088 468.886 438.088C468.406 438.088 467.985 438.227 467.622 438.504C467.27 438.781 466.993 439.171 466.79 439.672V445H465.622ZM474.011 445.112C473.339 445.112 472.731 444.936 472.187 444.584C471.643 444.221 471.211 443.741 470.891 443.144C470.571 442.536 470.411 441.859 470.411 441.112C470.411 440.355 470.571 439.677 470.891 439.08C471.221 438.472 471.664 437.992 472.219 437.64C472.773 437.277 473.392 437.096 474.075 437.096C474.555 437.096 475.003 437.192 475.419 437.384C475.835 437.565 476.197 437.832 476.507 438.184V433.448L477.675 433.208V445H476.507V443.96C476.208 444.333 475.845 444.621 475.419 444.824C474.992 445.016 474.523 445.112 474.011 445.112ZM474.299 444.088C474.757 444.088 475.179 443.997 475.563 443.816C475.947 443.635 476.261 443.379 476.507 443.048V439.176C476.251 438.845 475.925 438.589 475.531 438.408C475.147 438.216 474.736 438.12 474.299 438.12C473.776 438.12 473.307 438.248 472.891 438.504C472.485 438.76 472.16 439.112 471.914 439.56C471.68 440.008 471.562 440.52 471.562 441.096C471.562 441.661 471.68 442.173 471.914 442.632C472.16 443.08 472.485 443.437 472.891 443.704C473.307 443.96 473.776 444.088 474.299 444.088ZM483.793 445V437.192H484.961V445H483.793ZM484.385 435.256C484.151 435.256 483.948 435.176 483.777 435.016C483.617 434.845 483.537 434.648 483.537 434.424C483.537 434.2 483.617 434.008 483.777 433.848C483.948 433.677 484.151 433.592 484.385 433.592C484.62 433.592 484.817 433.677 484.977 433.848C485.148 434.008 485.233 434.2 485.233 434.424C485.233 434.648 485.148 434.845 484.977 435.016C484.817 435.176 484.62 435.256 484.385 435.256ZM489.772 445.16C489.132 445.16 488.54 445.064 487.996 444.872C487.452 444.669 486.988 444.381 486.604 444.008L487.228 443.24C487.698 443.581 488.13 443.832 488.524 443.992C488.919 444.141 489.324 444.216 489.74 444.216C490.306 444.216 490.775 444.083 491.148 443.816C491.522 443.549 491.708 443.208 491.708 442.792C491.708 442.472 491.596 442.221 491.372 442.04C491.159 441.859 490.802 441.72 490.3 441.624L489.02 441.4C488.263 441.261 487.703 441.027 487.34 440.696C486.988 440.365 486.812 439.917 486.812 439.352C486.812 438.904 486.93 438.509 487.164 438.168C487.41 437.827 487.746 437.56 488.172 437.368C488.599 437.165 489.084 437.064 489.628 437.064C490.162 437.064 490.668 437.144 491.148 437.304C491.628 437.453 492.114 437.699 492.604 438.04L492.028 438.856C491.623 438.568 491.218 438.36 490.812 438.232C490.407 438.093 489.996 438.024 489.58 438.024C489.068 438.024 488.658 438.136 488.348 438.36C488.039 438.584 487.884 438.888 487.884 439.272C487.884 439.592 487.98 439.837 488.172 440.008C488.375 440.179 488.727 440.307 489.228 440.392L490.54 440.632C491.33 440.771 491.906 441.011 492.268 441.352C492.631 441.693 492.812 442.152 492.812 442.728C492.812 443.187 492.679 443.603 492.412 443.976C492.146 444.339 491.783 444.627 491.324 444.84C490.866 445.053 490.348 445.16 489.772 445.16ZM498.325 445V433.56L499.493 433.32V438.264C499.792 437.891 500.154 437.603 500.581 437.4C501.008 437.197 501.482 437.096 502.005 437.096C502.688 437.096 503.296 437.277 503.829 437.64C504.373 437.992 504.805 438.472 505.125 439.08C505.445 439.677 505.605 440.349 505.605 441.096C505.605 441.843 505.44 442.52 505.109 443.128C504.789 443.736 504.352 444.221 503.797 444.584C503.253 444.936 502.634 445.112 501.941 445.112C501.45 445.112 500.992 445.016 500.565 444.824C500.149 444.621 499.786 444.339 499.477 443.976V445H498.325ZM501.717 444.104C502.24 444.104 502.704 443.976 503.109 443.72C503.525 443.453 503.85 443.096 504.085 442.648C504.33 442.189 504.453 441.677 504.453 441.112C504.453 440.536 504.33 440.024 504.085 439.576C503.85 439.128 503.525 438.776 503.109 438.52C502.704 438.253 502.24 438.12 501.717 438.12C501.258 438.12 500.832 438.216 500.437 438.408C500.053 438.589 499.738 438.851 499.493 439.192V443.016C499.749 443.357 500.069 443.624 500.453 443.816C500.848 444.008 501.269 444.104 501.717 444.104ZM511.173 445.16C510.448 445.16 509.792 444.984 509.205 444.632C508.618 444.269 508.154 443.784 507.813 443.176C507.472 442.557 507.301 441.864 507.301 441.096C507.301 440.328 507.461 439.64 507.781 439.032C508.112 438.424 508.554 437.944 509.109 437.592C509.664 437.24 510.282 437.064 510.965 437.064C511.658 437.064 512.272 437.24 512.805 437.592C513.349 437.933 513.776 438.403 514.085 439C514.405 439.587 514.565 440.253 514.565 441V441.352H508.437C508.48 441.885 508.624 442.365 508.869 442.792C509.125 443.208 509.456 443.539 509.861 443.784C510.277 444.019 510.73 444.136 511.221 444.136C511.626 444.136 512.016 444.067 512.389 443.928C512.773 443.779 513.098 443.581 513.365 443.336L514.101 444.12C513.653 444.472 513.189 444.733 512.709 444.904C512.229 445.075 511.717 445.16 511.173 445.16ZM508.469 440.52H513.413C513.36 440.051 513.216 439.635 512.981 439.272C512.757 438.899 512.469 438.605 512.117 438.392C511.776 438.179 511.392 438.072 510.965 438.072C510.538 438.072 510.149 438.179 509.797 438.392C509.445 438.595 509.152 438.883 508.917 439.256C508.693 439.619 508.544 440.04 508.469 440.52ZM516.543 445V437.192H517.711V445H516.543ZM517.135 435.256C516.901 435.256 516.698 435.176 516.527 435.016C516.367 434.845 516.287 434.648 516.287 434.424C516.287 434.2 516.367 434.008 516.527 433.848C516.698 433.677 516.901 433.592 517.135 433.592C517.37 433.592 517.567 433.677 517.727 433.848C517.898 434.008 517.983 434.2 517.983 434.424C517.983 434.648 517.898 434.845 517.727 435.016C517.567 435.176 517.37 435.256 517.135 435.256ZM520.106 445V437.192H521.274V438.456C521.573 437.987 521.93 437.64 522.346 437.416C522.762 437.181 523.232 437.064 523.754 437.064C524.32 437.064 524.81 437.187 525.226 437.432C525.653 437.667 525.984 438.003 526.218 438.44C526.464 438.867 526.586 439.368 526.586 439.944V445H525.418V440.28C525.418 439.587 525.226 439.043 524.842 438.648C524.469 438.243 523.962 438.04 523.322 438.04C522.896 438.04 522.506 438.141 522.154 438.344C521.802 438.547 521.509 438.845 521.274 439.24V445H520.106ZM532.55 448.504C532.028 448.504 531.5 448.429 530.966 448.28C530.444 448.141 529.958 447.944 529.51 447.688L530.006 446.792C530.486 447.037 530.924 447.219 531.318 447.336C531.713 447.453 532.108 447.512 532.502 447.512C533.217 447.512 533.756 447.341 534.118 447C534.492 446.659 534.678 446.163 534.678 445.512V443.944C534.38 444.317 534.017 444.605 533.59 444.808C533.164 445 532.694 445.096 532.182 445.096C531.51 445.096 530.902 444.92 530.358 444.568C529.814 444.205 529.382 443.725 529.062 443.128C528.742 442.52 528.582 441.843 528.582 441.096C528.582 440.349 528.742 439.677 529.062 439.08C529.393 438.472 529.836 437.992 530.39 437.64C530.945 437.277 531.564 437.096 532.246 437.096C532.737 437.096 533.19 437.192 533.606 437.384C534.022 437.565 534.385 437.837 534.694 438.2V437.192H535.846V445.496C535.846 446.467 535.564 447.208 534.998 447.72C534.433 448.243 533.617 448.504 532.55 448.504ZM532.47 444.088C532.929 444.088 533.35 443.997 533.734 443.816C534.118 443.624 534.433 443.363 534.678 443.032V439.176C534.422 438.845 534.097 438.589 533.702 438.408C533.318 438.216 532.908 438.12 532.47 438.12C531.948 438.12 531.478 438.248 531.062 438.504C530.657 438.76 530.332 439.112 530.086 439.56C529.852 440.008 529.734 440.52 529.734 441.096C529.734 441.661 529.852 442.173 530.086 442.632C530.332 443.08 530.657 443.437 531.062 443.704C531.478 443.96 531.948 444.088 532.47 444.088ZM545.485 445.128C544.76 445.128 544.104 444.952 543.517 444.6C542.941 444.237 542.483 443.752 542.141 443.144C541.8 442.525 541.629 441.843 541.629 441.096C541.629 440.339 541.8 439.656 542.141 439.048C542.483 438.44 542.941 437.96 543.517 437.608C544.104 437.245 544.76 437.064 545.485 437.064C546.061 437.064 546.611 437.171 547.133 437.384C547.656 437.597 548.109 437.896 548.493 438.28L547.741 439.096C547.464 438.787 547.128 438.547 546.733 438.376C546.339 438.205 545.939 438.12 545.533 438.12C545.021 438.12 544.557 438.253 544.141 438.52C543.736 438.787 543.411 439.144 543.165 439.592C542.92 440.04 542.797 440.541 542.797 441.096C542.797 441.651 542.92 442.152 543.165 442.6C543.411 443.048 543.736 443.405 544.141 443.672C544.557 443.939 545.021 444.072 545.533 444.072C545.939 444.072 546.339 443.987 546.733 443.816C547.128 443.635 547.464 443.395 547.741 443.096L548.493 443.912C548.109 444.296 547.656 444.595 547.133 444.808C546.611 445.021 546.061 445.128 545.485 445.128ZM553.344 445.128C552.618 445.128 551.968 444.952 551.392 444.6C550.816 444.248 550.362 443.768 550.032 443.16C549.701 442.552 549.536 441.864 549.536 441.096C549.536 440.328 549.701 439.64 550.032 439.032C550.362 438.424 550.816 437.944 551.392 437.592C551.968 437.24 552.618 437.064 553.344 437.064C554.058 437.064 554.698 437.24 555.264 437.592C555.84 437.944 556.293 438.424 556.624 439.032C556.954 439.64 557.12 440.328 557.12 441.096C557.12 441.864 556.954 442.552 556.624 443.16C556.293 443.768 555.84 444.248 555.264 444.6C554.698 444.952 554.058 445.128 553.344 445.128ZM553.328 444.104C553.84 444.104 554.293 443.976 554.688 443.72C555.082 443.453 555.392 443.091 555.616 442.632C555.85 442.173 555.968 441.661 555.968 441.096C555.968 440.52 555.85 440.008 555.616 439.56C555.392 439.101 555.082 438.744 554.688 438.488C554.293 438.221 553.84 438.088 553.328 438.088C552.816 438.088 552.362 438.221 551.968 438.488C551.573 438.744 551.258 439.101 551.024 439.56C550.8 440.008 550.688 440.52 550.688 441.096C550.688 441.661 550.8 442.173 551.024 442.632C551.258 443.091 551.573 443.453 551.968 443.72C552.362 443.976 552.816 444.104 553.328 444.104ZM559.169 445V437.192H560.337V438.456C560.635 437.987 560.993 437.64 561.409 437.416C561.825 437.181 562.294 437.064 562.817 437.064C563.382 437.064 563.873 437.187 564.289 437.432C564.715 437.667 565.046 438.003 565.281 438.44C565.526 438.867 565.649 439.368 565.649 439.944V445H564.481V440.28C564.481 439.587 564.289 439.043 563.905 438.648C563.531 438.243 563.025 438.04 562.385 438.04C561.958 438.04 561.569 438.141 561.217 438.344C560.865 438.547 560.571 438.845 560.337 439.24V445H559.169ZM568.755 445V438.152H567.011V437.192H568.755V435.56C568.755 434.792 568.957 434.2 569.363 433.784C569.768 433.368 570.344 433.16 571.091 433.16C571.304 433.16 571.496 433.171 571.667 433.192C571.848 433.213 572.008 433.251 572.147 433.304V434.36C571.976 434.307 571.821 434.269 571.683 434.248C571.544 434.227 571.384 434.216 571.203 434.216C570.755 434.216 570.429 434.328 570.227 434.552C570.024 434.765 569.923 435.107 569.923 435.576V437.192H572.147V438.152H569.923V445H568.755ZM573.668 445V437.192H574.836V445H573.668ZM574.26 435.256C574.026 435.256 573.823 435.176 573.652 435.016C573.492 434.845 573.412 434.648 573.412 434.424C573.412 434.2 573.492 434.008 573.652 433.848C573.823 433.677 574.026 433.592 574.26 433.592C574.495 433.592 574.692 433.677 574.852 433.848C575.023 434.008 575.108 434.2 575.108 434.424C575.108 434.648 575.023 434.845 574.852 435.016C574.692 435.176 574.495 435.256 574.26 435.256ZM580.847 448.504C580.325 448.504 579.797 448.429 579.263 448.28C578.741 448.141 578.255 447.944 577.807 447.688L578.303 446.792C578.783 447.037 579.221 447.219 579.615 447.336C580.01 447.453 580.405 447.512 580.799 447.512C581.514 447.512 582.053 447.341 582.415 447C582.789 446.659 582.975 446.163 582.975 445.512V443.944C582.677 444.317 582.314 444.605 581.887 444.808C581.461 445 580.991 445.096 580.479 445.096C579.807 445.096 579.199 444.92 578.655 444.568C578.111 444.205 577.679 443.725 577.359 443.128C577.039 442.52 576.879 441.843 576.879 441.096C576.879 440.349 577.039 439.677 577.359 439.08C577.69 438.472 578.133 437.992 578.687 437.64C579.242 437.277 579.861 437.096 580.543 437.096C581.034 437.096 581.487 437.192 581.903 437.384C582.319 437.565 582.682 437.837 582.991 438.2V437.192H584.143V445.496C584.143 446.467 583.861 447.208 583.295 447.72C582.73 448.243 581.914 448.504 580.847 448.504ZM580.767 444.088C581.226 444.088 581.647 443.997 582.031 443.816C582.415 443.624 582.73 443.363 582.975 443.032V439.176C582.719 438.845 582.394 438.589 581.999 438.408C581.615 438.216 581.205 438.12 580.767 438.12C580.245 438.12 579.775 438.248 579.359 438.504C578.954 438.76 578.629 439.112 578.383 439.56C578.149 440.008 578.031 440.52 578.031 441.096C578.031 441.661 578.149 442.173 578.383 442.632C578.629 443.08 578.954 443.437 579.359 443.704C579.775 443.96 580.245 444.088 580.767 444.088ZM589.328 445.128C588.773 445.128 588.282 445.005 587.856 444.76C587.429 444.515 587.093 444.173 586.848 443.736C586.613 443.299 586.496 442.797 586.496 442.232V437.192H587.68V441.896C587.68 442.589 587.866 443.139 588.24 443.544C588.613 443.949 589.12 444.152 589.76 444.152C590.197 444.152 590.586 444.051 590.928 443.848C591.28 443.645 591.573 443.352 591.808 442.968V437.192H592.976V445H591.808V443.736C591.509 444.195 591.152 444.541 590.736 444.776C590.33 445.011 589.861 445.128 589.328 445.128ZM595.372 445V437.192H596.54V438.792C596.743 438.248 597.031 437.827 597.404 437.528C597.788 437.219 598.225 437.064 598.716 437.064C598.855 437.064 598.983 437.075 599.1 437.096C599.217 437.107 599.335 437.133 599.452 437.176V438.232C599.324 438.189 599.185 438.157 599.036 438.136C598.897 438.104 598.764 438.088 598.636 438.088C598.156 438.088 597.735 438.227 597.372 438.504C597.02 438.781 596.743 439.171 596.54 439.672V445H595.372ZM604.033 445.16C603.307 445.16 602.651 444.984 602.065 444.632C601.478 444.269 601.014 443.784 600.673 443.176C600.331 442.557 600.161 441.864 600.161 441.096C600.161 440.328 600.321 439.64 600.641 439.032C600.971 438.424 601.414 437.944 601.969 437.592C602.523 437.24 603.142 437.064 603.825 437.064C604.518 437.064 605.131 437.24 605.665 437.592C606.209 437.933 606.635 438.403 606.945 439C607.265 439.587 607.425 440.253 607.425 441V441.352H601.297C601.339 441.885 601.483 442.365 601.729 442.792C601.985 443.208 602.315 443.539 602.721 443.784C603.137 444.019 603.59 444.136 604.081 444.136C604.486 444.136 604.875 444.067 605.249 443.928C605.633 443.779 605.958 443.581 606.225 443.336L606.961 444.12C606.513 444.472 606.049 444.733 605.569 444.904C605.089 445.075 604.577 445.16 604.033 445.16ZM601.329 440.52H606.273C606.219 440.051 606.075 439.635 605.841 439.272C605.617 438.899 605.329 438.605 604.977 438.392C604.635 438.179 604.251 438.072 603.825 438.072C603.398 438.072 603.009 438.179 602.657 438.392C602.305 438.595 602.011 438.883 601.777 439.256C601.553 439.619 601.403 440.04 601.329 440.52ZM612.667 445.112C611.995 445.112 611.387 444.936 610.843 444.584C610.299 444.221 609.867 443.741 609.547 443.144C609.227 442.536 609.067 441.859 609.067 441.112C609.067 440.355 609.227 439.677 609.547 439.08C609.877 438.472 610.32 437.992 610.875 437.64C611.429 437.277 612.048 437.096 612.731 437.096C613.211 437.096 613.659 437.192 614.075 437.384C614.491 437.565 614.853 437.832 615.163 438.184V433.448L616.331 433.208V445H615.163V443.96C614.864 444.333 614.501 444.621 614.075 444.824C613.648 445.016 613.179 445.112 612.667 445.112ZM612.955 444.088C613.413 444.088 613.835 443.997 614.219 443.816C614.603 443.635 614.917 443.379 615.163 443.048V439.176C614.907 438.845 614.581 438.589 614.187 438.408C613.803 438.216 613.392 438.12 612.955 438.12C612.432 438.12 611.963 438.248 611.547 438.504C611.141 438.76 610.816 439.112 610.571 439.56C610.336 440.008 610.219 440.52 610.219 441.096C610.219 441.661 610.336 442.173 610.571 442.632C610.816 443.08 611.141 443.437 611.547 443.704C611.963 443.96 612.432 444.088 612.955 444.088ZM619.531 445.128C619.297 445.128 619.094 445.043 618.923 444.872C618.763 444.701 618.683 444.499 618.683 444.264C618.683 444.019 618.763 443.816 618.923 443.656C619.094 443.485 619.297 443.4 619.531 443.4C619.766 443.4 619.963 443.485 620.123 443.656C620.294 443.816 620.379 444.019 620.379 444.264C620.379 444.499 620.294 444.701 620.123 444.872C619.963 445.043 619.766 445.128 619.531 445.128ZM629.586 445V434.888H625.714V433.8H634.69V434.888H630.818V445H629.586ZM636.341 445V433.448L637.509 433.208V438.456C637.807 437.987 638.165 437.64 638.581 437.416C638.997 437.181 639.466 437.064 639.989 437.064C640.554 437.064 641.045 437.187 641.461 437.432C641.887 437.667 642.218 438.003 642.453 438.44C642.698 438.867 642.821 439.368 642.821 439.944V445H641.653V440.28C641.653 439.587 641.461 439.043 641.077 438.648C640.703 438.243 640.197 438.04 639.557 438.04C639.13 438.04 638.741 438.141 638.389 438.344C638.037 438.547 637.743 438.845 637.509 439.24V445H636.341ZM645.153 445V437.192H646.321V445H645.153ZM645.745 435.256C645.51 435.256 645.307 435.176 645.137 435.016C644.977 434.845 644.897 434.648 644.897 434.424C644.897 434.2 644.977 434.008 645.137 433.848C645.307 433.677 645.51 433.592 645.745 433.592C645.979 433.592 646.177 433.677 646.337 433.848C646.507 434.008 646.593 434.2 646.593 434.424C646.593 434.648 646.507 434.845 646.337 435.016C646.177 435.176 645.979 435.256 645.745 435.256ZM651.132 445.16C650.492 445.16 649.9 445.064 649.356 444.872C648.812 444.669 648.348 444.381 647.964 444.008L648.588 443.24C649.057 443.581 649.489 443.832 649.884 443.992C650.278 444.141 650.684 444.216 651.1 444.216C651.665 444.216 652.134 444.083 652.508 443.816C652.881 443.549 653.068 443.208 653.068 442.792C653.068 442.472 652.956 442.221 652.732 442.04C652.518 441.859 652.161 441.72 651.66 441.624L650.38 441.4C649.622 441.261 649.062 441.027 648.7 440.696C648.348 440.365 648.172 439.917 648.172 439.352C648.172 438.904 648.289 438.509 648.524 438.168C648.769 437.827 649.105 437.56 649.532 437.368C649.958 437.165 650.444 437.064 650.988 437.064C651.521 437.064 652.028 437.144 652.508 437.304C652.988 437.453 653.473 437.699 653.964 438.04L653.388 438.856C652.982 438.568 652.577 438.36 652.172 438.232C651.766 438.093 651.356 438.024 650.94 438.024C650.428 438.024 650.017 438.136 649.708 438.36C649.398 438.584 649.244 438.888 649.244 439.272C649.244 439.592 649.34 439.837 649.532 440.008C649.734 440.179 650.086 440.307 650.588 440.392L651.9 440.632C652.689 440.771 653.265 441.011 653.628 441.352C653.99 441.693 654.172 442.152 654.172 442.728C654.172 443.187 654.038 443.603 653.772 443.976C653.505 444.339 653.142 444.627 652.684 444.84C652.225 445.053 651.708 445.16 651.132 445.16ZM663.188 445.128C662.463 445.128 661.807 444.952 661.22 444.6C660.644 444.237 660.186 443.752 659.844 443.144C659.503 442.525 659.332 441.843 659.332 441.096C659.332 440.339 659.503 439.656 659.844 439.048C660.186 438.44 660.644 437.96 661.22 437.608C661.807 437.245 662.463 437.064 663.188 437.064C663.764 437.064 664.314 437.171 664.836 437.384C665.359 437.597 665.812 437.896 666.196 438.28L665.444 439.096C665.167 438.787 664.831 438.547 664.436 438.376C664.042 438.205 663.642 438.12 663.236 438.12C662.724 438.12 662.26 438.253 661.844 438.52C661.439 438.787 661.114 439.144 660.868 439.592C660.623 440.04 660.5 440.541 660.5 441.096C660.5 441.651 660.623 442.152 660.868 442.6C661.114 443.048 661.439 443.405 661.844 443.672C662.26 443.939 662.724 444.072 663.236 444.072C663.642 444.072 664.042 443.987 664.436 443.816C664.831 443.635 665.167 443.395 665.444 443.096L666.196 443.912C665.812 444.296 665.359 444.595 664.836 444.808C664.314 445.021 663.764 445.128 663.188 445.128ZM671.047 445.128C670.321 445.128 669.671 444.952 669.095 444.6C668.519 444.248 668.065 443.768 667.735 443.16C667.404 442.552 667.239 441.864 667.239 441.096C667.239 440.328 667.404 439.64 667.735 439.032C668.065 438.424 668.519 437.944 669.095 437.592C669.671 437.24 670.321 437.064 671.047 437.064C671.761 437.064 672.401 437.24 672.967 437.592C673.543 437.944 673.996 438.424 674.327 439.032C674.657 439.64 674.823 440.328 674.823 441.096C674.823 441.864 674.657 442.552 674.327 443.16C673.996 443.768 673.543 444.248 672.967 444.6C672.401 444.952 671.761 445.128 671.047 445.128ZM671.031 444.104C671.543 444.104 671.996 443.976 672.391 443.72C672.785 443.453 673.095 443.091 673.319 442.632C673.553 442.173 673.671 441.661 673.671 441.096C673.671 440.52 673.553 440.008 673.319 439.56C673.095 439.101 672.785 438.744 672.391 438.488C671.996 438.221 671.543 438.088 671.031 438.088C670.519 438.088 670.065 438.221 669.671 438.488C669.276 438.744 668.961 439.101 668.727 439.56C668.503 440.008 668.391 440.52 668.391 441.096C668.391 441.661 668.503 442.173 668.727 442.632C668.961 443.091 669.276 443.453 669.671 443.72C670.065 443.976 670.519 444.104 671.031 444.104ZM679.656 445.128C679.101 445.128 678.611 445.005 678.184 444.76C677.757 444.515 677.421 444.173 677.176 443.736C676.941 443.299 676.824 442.797 676.824 442.232V437.192H678.008V441.896C678.008 442.589 678.195 443.139 678.568 443.544C678.941 443.949 679.448 444.152 680.088 444.152C680.525 444.152 680.915 444.051 681.256 443.848C681.608 443.645 681.901 443.352 682.136 442.968V437.192H683.304V445H682.136V443.736C681.837 444.195 681.48 444.541 681.064 444.776C680.659 445.011 680.189 445.128 679.656 445.128ZM685.7 445V433.448L686.868 433.208V445H685.7ZM692.511 445.112C691.839 445.112 691.231 444.936 690.687 444.584C690.143 444.221 689.711 443.741 689.391 443.144C689.071 442.536 688.911 441.859 688.911 441.112C688.911 440.355 689.071 439.677 689.391 439.08C689.721 438.472 690.164 437.992 690.719 437.64C691.273 437.277 691.892 437.096 692.575 437.096C693.055 437.096 693.503 437.192 693.919 437.384C694.335 437.565 694.697 437.832 695.007 438.184V433.448L696.175 433.208V445H695.007V443.96C694.708 444.333 694.345 444.621 693.919 444.824C693.492 445.016 693.023 445.112 692.511 445.112ZM692.799 444.088C693.257 444.088 693.679 443.997 694.063 443.816C694.447 443.635 694.761 443.379 695.007 443.048V439.176C694.751 438.845 694.425 438.589 694.031 438.408C693.647 438.216 693.236 438.12 692.799 438.12C692.276 438.12 691.807 438.248 691.391 438.504C690.985 438.76 690.66 439.112 690.414 439.56C690.18 440.008 690.062 440.52 690.062 441.096C690.062 441.661 690.18 442.173 690.414 442.632C690.66 443.08 690.985 443.437 691.391 443.704C691.807 443.96 692.276 444.088 692.799 444.088ZM705.285 445.16C704.613 445.16 704.101 445 703.749 444.68C703.408 444.349 703.237 443.875 703.237 443.256V438.152H701.621V437.192H703.237V435.048L704.405 434.776V437.192H706.645V438.152H704.405V442.952C704.405 443.368 704.491 443.667 704.661 443.848C704.843 444.029 705.136 444.12 705.541 444.12C705.744 444.12 705.925 444.104 706.085 444.072C706.245 444.04 706.432 443.987 706.645 443.912V444.952C706.432 445.027 706.208 445.08 705.973 445.112C705.739 445.144 705.509 445.16 705.285 445.16ZM710.772 445.144C710.218 445.144 709.727 445.043 709.3 444.84C708.874 444.637 708.538 444.36 708.292 444.008C708.058 443.645 707.94 443.229 707.94 442.76C707.94 442.291 708.063 441.885 708.308 441.544C708.554 441.192 708.895 440.92 709.332 440.728C709.77 440.536 710.282 440.44 710.868 440.44C711.316 440.44 711.738 440.488 712.132 440.584C712.538 440.68 712.911 440.835 713.252 441.048V439.976C713.252 439.336 713.082 438.856 712.74 438.536C712.399 438.205 711.898 438.04 711.236 438.04C710.874 438.04 710.5 438.093 710.116 438.2C709.743 438.307 709.327 438.477 708.868 438.712L708.436 437.816C709.482 437.315 710.463 437.064 711.38 437.064C712.351 437.064 713.098 437.304 713.62 437.784C714.143 438.253 714.404 438.931 714.404 439.816V445H713.252V444.088C712.911 444.44 712.532 444.707 712.116 444.888C711.7 445.059 711.252 445.144 710.772 445.144ZM709.06 442.728C709.06 443.187 709.236 443.555 709.588 443.832C709.951 444.109 710.426 444.248 711.012 444.248C711.45 444.248 711.85 444.173 712.212 444.024C712.586 443.875 712.932 443.651 713.252 443.352V441.848C712.922 441.656 712.58 441.517 712.228 441.432C711.876 441.336 711.482 441.288 711.044 441.288C710.447 441.288 709.967 441.421 709.604 441.688C709.242 441.944 709.06 442.291 709.06 442.728ZM716.778 445V433.448L717.946 433.208V440.696L721.658 437.192H723.066L719.098 440.904L723.242 445H721.706L717.946 441.272V445H716.778ZM727.486 445.16C726.76 445.16 726.104 444.984 725.518 444.632C724.931 444.269 724.467 443.784 724.126 443.176C723.784 442.557 723.614 441.864 723.614 441.096C723.614 440.328 723.774 439.64 724.094 439.032C724.424 438.424 724.867 437.944 725.422 437.592C725.976 437.24 726.595 437.064 727.278 437.064C727.971 437.064 728.584 437.24 729.118 437.592C729.662 437.933 730.088 438.403 730.398 439C730.718 439.587 730.878 440.253 730.878 441V441.352H724.75C724.792 441.885 724.936 442.365 725.182 442.792C725.438 443.208 725.768 443.539 726.174 443.784C726.59 444.019 727.043 444.136 727.534 444.136C727.939 444.136 728.328 444.067 728.702 443.928C729.086 443.779 729.411 443.581 729.678 443.336L730.414 444.12C729.966 444.472 729.502 444.733 729.022 444.904C728.542 445.075 728.03 445.16 727.486 445.16ZM724.782 440.52H729.726C729.672 440.051 729.528 439.635 729.294 439.272C729.07 438.899 728.782 438.605 728.43 438.392C728.088 438.179 727.704 438.072 727.278 438.072C726.851 438.072 726.462 438.179 726.11 438.392C725.758 438.595 725.464 438.883 725.23 439.256C725.006 439.619 724.856 440.04 724.782 440.52ZM739.022 445.144C738.468 445.144 737.977 445.043 737.55 444.84C737.124 444.637 736.788 444.36 736.542 444.008C736.308 443.645 736.19 443.229 736.19 442.76C736.19 442.291 736.313 441.885 736.558 441.544C736.804 441.192 737.145 440.92 737.582 440.728C738.02 440.536 738.532 440.44 739.118 440.44C739.566 440.44 739.988 440.488 740.382 440.584C740.788 440.68 741.161 440.835 741.502 441.048V439.976C741.502 439.336 741.332 438.856 740.99 438.536C740.649 438.205 740.148 438.04 739.486 438.04C739.124 438.04 738.75 438.093 738.366 438.2C737.993 438.307 737.577 438.477 737.118 438.712L736.686 437.816C737.732 437.315 738.713 437.064 739.63 437.064C740.601 437.064 741.348 437.304 741.87 437.784C742.393 438.253 742.654 438.931 742.654 439.816V445H741.502V444.088C741.161 444.44 740.782 444.707 740.366 444.888C739.95 445.059 739.502 445.144 739.022 445.144ZM737.31 442.728C737.31 443.187 737.486 443.555 737.838 443.832C738.201 444.109 738.676 444.248 739.262 444.248C739.7 444.248 740.1 444.173 740.462 444.024C740.836 443.875 741.182 443.651 741.502 443.352V441.848C741.172 441.656 740.83 441.517 740.478 441.432C740.126 441.336 739.732 441.288 739.294 441.288C738.697 441.288 738.217 441.421 737.854 441.688C737.492 441.944 737.31 442.291 737.31 442.728ZM749.755 445V438.152H748.011V437.192H749.755V435.56C749.755 434.792 749.957 434.2 750.363 433.784C750.768 433.368 751.344 433.16 752.091 433.16C752.304 433.16 752.496 433.171 752.667 433.192C752.848 433.213 753.008 433.251 753.147 433.304V434.36C752.976 434.307 752.821 434.269 752.683 434.248C752.544 434.227 752.384 434.216 752.203 434.216C751.755 434.216 751.429 434.328 751.227 434.552C751.024 434.765 750.923 435.107 750.923 435.576V437.192H753.147V438.152H750.923V445H749.755ZM757.876 445.16C757.151 445.16 756.495 444.984 755.908 444.632C755.322 444.269 754.858 443.784 754.516 443.176C754.175 442.557 754.004 441.864 754.004 441.096C754.004 440.328 754.164 439.64 754.484 439.032C754.815 438.424 755.258 437.944 755.812 437.592C756.367 437.24 756.986 437.064 757.668 437.064C758.362 437.064 758.975 437.24 759.508 437.592C760.052 437.933 760.479 438.403 760.788 439C761.108 439.587 761.268 440.253 761.268 441V441.352H755.14C755.183 441.885 755.327 442.365 755.572 442.792C755.828 443.208 756.159 443.539 756.564 443.784C756.98 444.019 757.434 444.136 757.924 444.136C758.33 444.136 758.719 444.067 759.092 443.928C759.476 443.779 759.802 443.581 760.068 443.336L760.804 444.12C760.356 444.472 759.892 444.733 759.412 444.904C758.932 445.075 758.42 445.16 757.876 445.16ZM755.172 440.52H760.116C760.063 440.051 759.919 439.635 759.684 439.272C759.46 438.899 759.172 438.605 758.82 438.392C758.479 438.179 758.095 438.072 757.668 438.072C757.242 438.072 756.852 438.179 756.5 438.392C756.148 438.595 755.855 438.883 755.62 439.256C755.396 439.619 755.247 440.04 755.172 440.52ZM764.498 445L762.354 437.192H763.49L765.122 443.432L766.994 437.192H768.034L769.906 443.432L771.522 437.192H772.626L770.498 445H769.362L767.506 438.696L765.65 445H764.498ZM778.013 445V437.192H779.181V438.408C779.479 437.96 779.821 437.624 780.205 437.4C780.589 437.176 781.021 437.064 781.501 437.064C782.055 437.064 782.541 437.203 782.957 437.48C783.373 437.747 783.687 438.115 783.901 438.584C784.21 438.083 784.578 437.704 785.005 437.448C785.442 437.192 785.943 437.064 786.509 437.064C787.031 437.064 787.49 437.187 787.885 437.432C788.29 437.677 788.605 438.019 788.829 438.456C789.053 438.883 789.165 439.384 789.165 439.96V445H787.997V440.248C787.997 439.565 787.826 439.027 787.485 438.632C787.143 438.237 786.674 438.04 786.077 438.04C785.671 438.04 785.303 438.141 784.973 438.344C784.653 438.547 784.37 438.856 784.125 439.272C784.146 439.379 784.162 439.491 784.173 439.608C784.183 439.725 784.189 439.843 784.189 439.96V445H783.021V440.248C783.021 439.565 782.845 439.027 782.493 438.632C782.151 438.237 781.682 438.04 781.085 438.04C780.285 438.04 779.65 438.424 779.181 439.192V445H778.013ZM791.512 445V437.192H792.68V445H791.512ZM792.104 435.256C791.869 435.256 791.667 435.176 791.496 435.016C791.336 434.845 791.256 434.648 791.256 434.424C791.256 434.2 791.336 434.008 791.496 433.848C791.667 433.677 791.869 433.592 792.104 433.592C792.339 433.592 792.536 433.677 792.696 433.848C792.867 434.008 792.952 434.2 792.952 434.424C792.952 434.648 792.867 434.845 792.696 435.016C792.536 435.176 792.339 435.256 792.104 435.256ZM795.075 445V437.192H796.243V438.456C796.542 437.987 796.899 437.64 797.315 437.416C797.731 437.181 798.2 437.064 798.723 437.064C799.288 437.064 799.779 437.187 800.195 437.432C800.622 437.667 800.952 438.003 801.187 438.44C801.432 438.867 801.555 439.368 801.555 439.944V445H800.387V440.28C800.387 439.587 800.195 439.043 799.811 438.648C799.438 438.243 798.931 438.04 798.291 438.04C797.864 438.04 797.475 438.141 797.123 438.344C796.771 438.547 796.478 438.845 796.243 439.24V445H795.075ZM806.609 445.128C806.054 445.128 805.564 445.005 805.137 444.76C804.71 444.515 804.374 444.173 804.129 443.736C803.894 443.299 803.777 442.797 803.777 442.232V437.192H804.961V441.896C804.961 442.589 805.148 443.139 805.521 443.544C805.894 443.949 806.401 444.152 807.041 444.152C807.478 444.152 807.868 444.051 808.209 443.848C808.561 443.645 808.854 443.352 809.089 442.968V437.192H810.257V445H809.089V443.736C808.79 444.195 808.433 444.541 808.017 444.776C807.612 445.011 807.142 445.128 806.609 445.128ZM815.629 445.16C814.957 445.16 814.445 445 814.093 444.68C813.752 444.349 813.581 443.875 813.581 443.256V438.152H811.965V437.192H813.581V435.048L814.749 434.776V437.192H816.989V438.152H814.749V442.952C814.749 443.368 814.834 443.667 815.005 443.848C815.186 444.029 815.48 444.12 815.885 444.12C816.088 444.12 816.269 444.104 816.429 444.072C816.589 444.04 816.776 443.987 816.989 443.912V444.952C816.776 445.027 816.552 445.08 816.317 445.112C816.082 445.144 815.853 445.16 815.629 445.16ZM822.064 445.16C821.338 445.16 820.682 444.984 820.096 444.632C819.509 444.269 819.045 443.784 818.704 443.176C818.362 442.557 818.192 441.864 818.192 441.096C818.192 440.328 818.352 439.64 818.672 439.032C819.002 438.424 819.445 437.944 820 437.592C820.554 437.24 821.173 437.064 821.856 437.064C822.549 437.064 823.162 437.24 823.696 437.592C824.24 437.933 824.666 438.403 824.976 439C825.296 439.587 825.456 440.253 825.456 441V441.352H819.328C819.37 441.885 819.514 442.365 819.76 442.792C820.016 443.208 820.346 443.539 820.752 443.784C821.168 444.019 821.621 444.136 822.112 444.136C822.517 444.136 822.906 444.067 823.28 443.928C823.664 443.779 823.989 443.581 824.256 443.336L824.992 444.12C824.544 444.472 824.08 444.733 823.6 444.904C823.12 445.075 822.608 445.16 822.064 445.16ZM819.36 440.52H824.304C824.25 440.051 824.106 439.635 823.872 439.272C823.648 438.899 823.36 438.605 823.008 438.392C822.666 438.179 822.282 438.072 821.856 438.072C821.429 438.072 821.04 438.179 820.688 438.392C820.336 438.595 820.042 438.883 819.808 439.256C819.584 439.619 819.434 440.04 819.36 440.52ZM829.944 445.16C829.304 445.16 828.712 445.064 828.168 444.872C827.624 444.669 827.16 444.381 826.776 444.008L827.4 443.24C827.869 443.581 828.301 443.832 828.696 443.992C829.091 444.141 829.496 444.216 829.912 444.216C830.477 444.216 830.947 444.083 831.32 443.816C831.693 443.549 831.88 443.208 831.88 442.792C831.88 442.472 831.768 442.221 831.544 442.04C831.331 441.859 830.973 441.72 830.472 441.624L829.192 441.4C828.435 441.261 827.875 441.027 827.512 440.696C827.16 440.365 826.984 439.917 826.984 439.352C826.984 438.904 827.101 438.509 827.336 438.168C827.581 437.827 827.917 437.56 828.344 437.368C828.771 437.165 829.256 437.064 829.8 437.064C830.333 437.064 830.84 437.144 831.32 437.304C831.8 437.453 832.285 437.699 832.776 438.04L832.2 438.856C831.795 438.568 831.389 438.36 830.984 438.232C830.579 438.093 830.168 438.024 829.752 438.024C829.24 438.024 828.829 438.136 828.52 438.36C828.211 438.584 828.056 438.888 828.056 439.272C828.056 439.592 828.152 439.837 828.344 440.008C828.547 440.179 828.899 440.307 829.4 440.392L830.712 440.632C831.501 440.771 832.077 441.011 832.44 441.352C832.803 441.693 832.984 442.152 832.984 442.728C832.984 443.187 832.851 443.603 832.584 443.976C832.317 444.339 831.955 444.627 831.496 444.84C831.037 445.053 830.52 445.16 829.944 445.16ZM835.406 445.128C835.172 445.128 834.969 445.043 834.798 444.872C834.638 444.701 834.558 444.499 834.558 444.264C834.558 444.019 834.638 443.816 834.798 443.656C834.969 443.485 835.172 443.4 835.406 443.4C835.641 443.4 835.838 443.485 835.998 443.656C836.169 443.816 836.254 444.019 836.254 444.264C836.254 444.499 836.169 444.701 835.998 444.872C835.838 445.043 835.641 445.128 835.406 445.128Z" fill="#4D4D4D"/>
<path d="M601.768 565.154C601.068 565.154 600.415 565.028 599.808 564.776C599.211 564.515 598.683 564.155 598.226 563.698C597.769 563.231 597.414 562.695 597.162 562.088C596.91 561.472 596.784 560.809 596.784 560.1C596.784 559.391 596.91 558.733 597.162 558.126C597.414 557.51 597.769 556.973 598.226 556.516C598.683 556.049 599.211 555.69 599.808 555.438C600.415 555.177 601.068 555.046 601.768 555.046C602.253 555.046 602.715 555.111 603.154 555.242C603.602 555.363 604.022 555.545 604.414 555.788C604.806 556.021 605.156 556.311 605.464 556.656L604.75 557.398C604.386 556.959 603.938 556.623 603.406 556.39C602.883 556.147 602.337 556.026 601.768 556.026C601.217 556.026 600.704 556.129 600.228 556.334C599.752 556.539 599.337 556.829 598.982 557.202C598.637 557.575 598.366 558.009 598.17 558.504C597.974 558.989 597.876 559.521 597.876 560.1C597.876 560.669 597.974 561.201 598.17 561.696C598.366 562.191 598.637 562.625 598.982 562.998C599.337 563.371 599.752 563.661 600.228 563.866C600.704 564.071 601.217 564.174 601.768 564.174C602.337 564.174 602.883 564.053 603.406 563.81C603.938 563.567 604.386 563.231 604.75 562.802L605.464 563.544C605.156 563.889 604.806 564.183 604.414 564.426C604.022 564.659 603.602 564.841 603.154 564.972C602.715 565.093 602.253 565.154 601.768 565.154ZM609.322 565.126C608.837 565.126 608.408 565.037 608.034 564.86C607.661 564.683 607.367 564.44 607.152 564.132C606.947 563.815 606.844 563.451 606.844 563.04C606.844 562.629 606.952 562.275 607.166 561.976C607.381 561.668 607.68 561.43 608.062 561.262C608.445 561.094 608.893 561.01 609.406 561.01C609.798 561.01 610.167 561.052 610.512 561.136C610.867 561.22 611.194 561.355 611.492 561.542V560.604C611.492 560.044 611.343 559.624 611.044 559.344C610.746 559.055 610.307 558.91 609.728 558.91C609.411 558.91 609.084 558.957 608.748 559.05C608.422 559.143 608.058 559.293 607.656 559.498L607.278 558.714C608.193 558.275 609.052 558.056 609.854 558.056C610.704 558.056 611.357 558.266 611.814 558.686C612.272 559.097 612.5 559.689 612.5 560.464V565H611.492V564.202C611.194 564.51 610.862 564.743 610.498 564.902C610.134 565.051 609.742 565.126 609.322 565.126ZM607.824 563.012C607.824 563.413 607.978 563.735 608.286 563.978C608.604 564.221 609.019 564.342 609.532 564.342C609.915 564.342 610.265 564.277 610.582 564.146C610.909 564.015 611.212 563.819 611.492 563.558V562.242C611.203 562.074 610.904 561.953 610.596 561.878C610.288 561.794 609.943 561.752 609.56 561.752C609.038 561.752 608.618 561.869 608.3 562.102C607.983 562.326 607.824 562.629 607.824 563.012ZM614.577 565V558.168H615.599V559.274C615.861 558.863 616.173 558.56 616.537 558.364C616.901 558.159 617.312 558.056 617.769 558.056C618.264 558.056 618.693 558.163 619.057 558.378C619.431 558.583 619.72 558.877 619.925 559.26C620.14 559.633 620.247 560.072 620.247 560.576V565H619.225V560.87C619.225 560.263 619.057 559.787 618.721 559.442C618.395 559.087 617.951 558.91 617.391 558.91C617.018 558.91 616.677 558.999 616.369 559.176C616.061 559.353 615.805 559.615 615.599 559.96V565H614.577ZM625.368 565.112C624.733 565.112 624.159 564.958 623.646 564.65C623.142 564.333 622.741 563.908 622.442 563.376C622.143 562.835 621.994 562.237 621.994 561.584C621.994 560.921 622.143 560.324 622.442 559.792C622.741 559.26 623.142 558.84 623.646 558.532C624.159 558.215 624.733 558.056 625.368 558.056C625.872 558.056 626.353 558.149 626.81 558.336C627.267 558.523 627.664 558.784 628 559.12L627.342 559.834C627.099 559.563 626.805 559.353 626.46 559.204C626.115 559.055 625.765 558.98 625.41 558.98C624.962 558.98 624.556 559.097 624.192 559.33C623.837 559.563 623.553 559.876 623.338 560.268C623.123 560.66 623.016 561.099 623.016 561.584C623.016 562.069 623.123 562.508 623.338 562.9C623.553 563.292 623.837 563.605 624.192 563.838C624.556 564.071 624.962 564.188 625.41 564.188C625.765 564.188 626.115 564.113 626.46 563.964C626.805 563.805 627.099 563.595 627.342 563.334L628 564.048C627.664 564.384 627.267 564.645 626.81 564.832C626.353 565.019 625.872 565.112 625.368 565.112ZM632.3 565.14C631.665 565.14 631.091 564.986 630.578 564.678C630.065 564.361 629.659 563.936 629.36 563.404C629.061 562.863 628.912 562.256 628.912 561.584C628.912 560.912 629.052 560.31 629.332 559.778C629.621 559.246 630.009 558.826 630.494 558.518C630.979 558.21 631.521 558.056 632.118 558.056C632.725 558.056 633.261 558.21 633.728 558.518C634.204 558.817 634.577 559.227 634.848 559.75C635.128 560.263 635.268 560.847 635.268 561.5V561.808H629.906C629.943 562.275 630.069 562.695 630.284 563.068C630.508 563.432 630.797 563.721 631.152 563.936C631.516 564.141 631.913 564.244 632.342 564.244C632.697 564.244 633.037 564.183 633.364 564.062C633.7 563.931 633.985 563.759 634.218 563.544L634.862 564.23C634.47 564.538 634.064 564.767 633.644 564.916C633.224 565.065 632.776 565.14 632.3 565.14ZM629.934 561.08H634.26C634.213 560.669 634.087 560.305 633.882 559.988C633.686 559.661 633.434 559.405 633.126 559.218C632.827 559.031 632.491 558.938 632.118 558.938C631.745 558.938 631.404 559.031 631.096 559.218C630.788 559.395 630.531 559.647 630.326 559.974C630.13 560.291 629.999 560.66 629.934 561.08ZM637.013 565V554.892L638.035 554.682V565H637.013Z" fill="#0066CC"/>
<path d="M460 507.5C460 500.873 465.373 495.5 472 495.5H620V519.5H472C465.373 519.5 460 514.127 460 507.5Z" fill="#0066CC"/>
<path d="M620 495.5H768C774.627 495.5 780 500.873 780 507.5C780 514.127 774.627 519.5 768 519.5H620V495.5Z" fill="#E0E0E0"/>
<path d="M335 389C335 386.791 336.791 385 339 385H369C371.209 385 373 386.791 373 389V413C373 415.209 371.209 417 369 417H339C336.791 417 335 415.209 335 413V389Z" fill="#C806CC"/>
<path d="M353.888 407V396.254L351.62 397.208V395.624L354.536 394.4H355.67V407H353.888Z" fill="white"/>
<path d="M402.667 401C402.667 402.473 401.473 403.667 400 403.667C398.527 403.667 397.333 402.473 397.333 401C397.333 399.527 398.527 398.333 400 398.333C401.473 398.333 402.667 399.527 402.667 401ZM400 401V401.5H373V401V400.5H400V401Z" fill="#C806CC"/>
<path d="M517 549C517 546.791 518.791 545 521 545H555C557.209 545 559 546.791 559 549V573C559 575.209 557.209 577 555 577H521C518.791 577 517 575.209 517 573V549Z" fill="#C806CC"/>
<path d="M533.89 567V565.74L539.002 560.304C539.518 559.764 539.866 559.302 540.046 558.918C540.238 558.534 540.334 558.126 540.334 557.694C540.334 557.13 540.106 556.662 539.65 556.29C539.194 555.918 538.618 555.732 537.922 555.732C537.346 555.732 536.806 555.846 536.302 556.074C535.798 556.302 535.24 556.698 534.628 557.262L533.656 556.074C534.988 554.826 536.422 554.202 537.958 554.202C538.762 554.202 539.47 554.346 540.082 554.634C540.694 554.922 541.168 555.324 541.504 555.84C541.852 556.344 542.026 556.926 542.026 557.586C542.026 558.006 541.972 558.396 541.864 558.756C541.756 559.104 541.57 559.476 541.306 559.872C541.042 560.256 540.67 560.7 540.19 561.204L536.086 565.524L542.278 565.506V567H533.89Z" fill="white"/>
<path d="M584.667 561C584.667 562.473 583.473 563.667 582 563.667C580.527 563.667 579.333 562.473 579.333 561C579.333 559.527 580.527 558.333 582 558.333C583.473 558.333 584.667 559.527 584.667 561ZM582 561V561.5H559V561V560.5H582V561Z" fill="#C806CC"/>
<defs>
<filter id="filter0_d_1825_77506" x="40" y="22" width="1160" height="801" filterUnits="userSpaceOnUse" color-interpolation-filters="sRGB">
<feFlood flood-opacity="0" result="BackgroundImageFix"/>
<feColorMatrix in="SourceAlpha" type="matrix" values="0 0 0 0 0 0 0 0 0 0 0 0 0 0 0 0 0 0 127 0" result="hardAlpha"/>
<feOffset dy="10"/>
<feGaussianBlur stdDeviation="10"/>
<feColorMatrix type="matrix" values="0 0 0 0 0.160784 0 0 0 0 0.160784 0 0 0 0 0.160784 0 0 0 0.15 0"/>
<feBlend mode="normal" in2="BackgroundImageFix" result="effect1_dropShadow_1825_77506"/>
<feBlend mode="normal" in="SourceGraphic" in2="effect1_dropShadow_1825_77506" result="shape"/>
</filter>
</defs>
</svg>
