<svg width="1249" height="809" viewBox="0 0 1249 809" fill="none" xmlns="http://www.w3.org/2000/svg">
<g clip-path="url(#clip0_1825_68843)">
<rect width="1249" height="809" fill="white"/>
<g filter="url(#filter0_d_1825_68843)">
<path d="M89 48C89 34.7452 99.7452 24 113 24H1185C1198.25 24 1209 34.7452 1209 48V761C1209 774.255 1198.25 785 1185 785H113C99.7452 785 89 774.255 89 761V48Z" fill="white"/>
<mask id="path-2-inside-1_1825_68843" fill="white">
<path d="M89 48C89 34.7452 99.7452 24 113 24H1185C1198.25 24 1209 34.7452 1209 48V141H89V48Z"/>
</mask>
<path d="M89 48C89 34.7452 99.7452 24 113 24H1185C1198.25 24 1209 34.7452 1209 48V141H89V48Z" fill="#F2F2F2"/>
<path d="M89 24H1209H89ZM1209 142H89V140H1209V142ZM89 141V24V141ZM1209 24V141V24Z" fill="#C7C7C7" mask="url(#path-2-inside-1_1825_68843)"/>
<path d="M118.152 76L113.868 56.4H116.892L119.944 71.38L124.368 56.4H127.168L131.592 71.352L134.672 56.4H137.556L133.272 76H130.248L125.74 60.6L121.204 76H118.152ZM140.082 76V61.748H142.882V76H140.082ZM141.482 59.452C141.015 59.452 140.614 59.284 140.278 58.948C139.942 58.5933 139.774 58.1827 139.774 57.716C139.774 57.2307 139.942 56.8293 140.278 56.512C140.614 56.176 141.015 56.008 141.482 56.008C141.967 56.008 142.378 56.176 142.714 56.512C143.05 56.8293 143.218 57.2307 143.218 57.716C143.218 58.1827 143.05 58.5933 142.714 58.948C142.378 59.284 141.967 59.452 141.482 59.452ZM145.339 76V73.928L153.347 64.156H145.423V61.748H156.847V63.792L148.839 73.592H156.987V76H145.339ZM164.058 76.252C163.032 76.252 162.126 76.0747 161.342 75.72C160.558 75.3467 159.942 74.8333 159.494 74.18C159.046 73.5267 158.822 72.7707 158.822 71.912C158.822 70.568 159.336 69.5133 160.362 68.748C161.389 67.964 162.798 67.572 164.59 67.572C165.99 67.572 167.288 67.8427 168.482 68.384V66.872C168.482 64.8373 167.325 63.82 165.01 63.82C164.357 63.82 163.676 63.9227 162.966 64.128C162.257 64.3147 161.464 64.6133 160.586 65.024L159.55 62.924C160.633 62.42 161.641 62.056 162.574 61.832C163.508 61.5893 164.45 61.468 165.402 61.468C167.25 61.468 168.678 61.9067 169.686 62.784C170.713 63.6613 171.226 64.912 171.226 66.536V76H168.482V74.768C167.848 75.272 167.166 75.6453 166.438 75.888C165.71 76.1307 164.917 76.252 164.058 76.252ZM161.51 71.856C161.51 72.5467 161.8 73.1067 162.378 73.536C162.976 73.9653 163.75 74.18 164.702 74.18C166.233 74.18 167.493 73.7227 168.482 72.808V70.4C167.456 69.8027 166.233 69.504 164.814 69.504C163.788 69.504 162.976 69.7187 162.378 70.148C161.8 70.5587 161.51 71.128 161.51 71.856ZM174.453 76V61.748H177.253V63.568C177.701 62.896 178.251 62.3733 178.905 62C179.577 61.608 180.333 61.412 181.173 61.412C181.751 61.4307 182.227 61.5147 182.601 61.664V64.184C182.059 63.9787 181.509 63.876 180.949 63.876C180.127 63.876 179.399 64.1 178.765 64.548C178.13 64.9773 177.626 65.612 177.253 66.452V76H174.453ZM190.575 76.224C189.25 76.224 188.036 75.8973 186.935 75.244C185.834 74.5907 184.966 73.7133 184.331 72.612C183.696 71.492 183.379 70.2413 183.379 68.86C183.379 67.4787 183.696 66.2373 184.331 65.136C184.984 64.0347 185.862 63.1573 186.963 62.504C188.064 61.8507 189.287 61.524 190.631 61.524C192.236 61.524 193.664 62 194.915 62.952V56.4L197.715 55.868V76H194.943V74.628C193.73 75.692 192.274 76.224 190.575 76.224ZM190.939 73.788C191.76 73.788 192.507 73.6387 193.179 73.34C193.87 73.0413 194.448 72.612 194.915 72.052V65.64C194.448 65.1173 193.87 64.7067 193.179 64.408C192.488 64.0907 191.742 63.932 190.939 63.932C190.043 63.932 189.231 64.1467 188.503 64.576C187.775 65.0053 187.196 65.5933 186.767 66.34C186.338 67.068 186.123 67.8987 186.123 68.832C186.123 69.7653 186.338 70.6053 186.767 71.352C187.196 72.0987 187.775 72.696 188.503 73.144C189.231 73.5733 190.043 73.788 190.939 73.788ZM212.986 76.252C211.605 76.252 210.55 75.9347 209.822 75.3C209.094 74.6467 208.73 73.704 208.73 72.472V64.1H205.706V61.748H208.73V58.108L211.502 57.436V61.748H215.702V64.1H211.502V71.828C211.502 72.556 211.661 73.0787 211.978 73.396C212.314 73.6947 212.856 73.844 213.602 73.844C213.994 73.844 214.34 73.816 214.638 73.76C214.956 73.704 215.292 73.62 215.646 73.508V75.86C215.273 75.9907 214.834 76.084 214.33 76.14C213.845 76.2147 213.397 76.252 212.986 76.252ZM217.765 76V61.748H220.565V76H217.765ZM219.165 59.452C218.699 59.452 218.297 59.284 217.961 58.948C217.625 58.5933 217.457 58.1827 217.457 57.716C217.457 57.2307 217.625 56.8293 217.961 56.512C218.297 56.176 218.699 56.008 219.165 56.008C219.651 56.008 220.061 56.176 220.397 56.512C220.733 56.8293 220.901 57.2307 220.901 57.716C220.901 58.1827 220.733 58.5933 220.397 58.948C220.061 59.284 219.651 59.452 219.165 59.452ZM229.967 76.252C228.586 76.252 227.531 75.9347 226.803 75.3C226.075 74.6467 225.711 73.704 225.711 72.472V64.1H222.687V61.748H225.711V58.108L228.483 57.436V61.748H232.683V64.1H228.483V71.828C228.483 72.556 228.642 73.0787 228.959 73.396C229.295 73.6947 229.836 73.844 230.583 73.844C230.975 73.844 231.32 73.816 231.619 73.76C231.936 73.704 232.272 73.62 232.627 73.508V75.86C232.254 75.9907 231.815 76.084 231.311 76.14C230.826 76.2147 230.378 76.252 229.967 76.252ZM234.746 76V56.4L237.546 55.868V76H234.746ZM247.675 76.252C246.275 76.252 245.006 75.9253 243.867 75.272C242.747 74.6187 241.851 73.732 241.179 72.612C240.526 71.492 240.199 70.2413 240.199 68.86C240.199 67.4973 240.517 66.2653 241.151 65.164C241.786 64.044 242.645 63.1573 243.727 62.504C244.81 61.832 246.014 61.496 247.339 61.496C248.665 61.496 249.841 61.832 250.867 62.504C251.894 63.1573 252.706 64.0533 253.303 65.192C253.919 66.312 254.227 67.5813 254.227 69V69.784H242.999C243.149 70.568 243.438 71.268 243.867 71.884C244.315 72.5 244.875 72.9853 245.547 73.34C246.238 73.6947 246.985 73.872 247.787 73.872C248.478 73.872 249.141 73.7693 249.775 73.564C250.429 73.34 250.97 73.0227 251.399 72.612L253.191 74.376C252.351 75.0107 251.483 75.4867 250.587 75.804C249.71 76.1027 248.739 76.252 247.675 76.252ZM243.027 67.684H251.455C251.343 66.9373 251.082 66.284 250.671 65.724C250.279 65.1453 249.785 64.6973 249.187 64.38C248.609 64.044 247.974 63.876 247.283 63.876C246.201 63.876 245.267 64.2307 244.483 64.94C243.718 65.6307 243.233 66.5453 243.027 67.684Z" fill="#151515"/>
<path d="M1172.44 59.9316C1173.02 59.3561 1173.95 59.3562 1174.53 59.9316L1175.57 60.9746C1176.14 61.5507 1176.14 62.484 1175.57 63.0595L1170.88 67.75L1175.57 72.4404C1176.14 73.0164 1176.14 73.9497 1175.57 74.5254L1174.53 75.5683C1173.95 76.1437 1173.02 76.1439 1172.44 75.5683L1167.75 70.8779L1163.06 75.5683C1162.48 76.1439 1161.55 76.1437 1160.97 75.5683L1159.93 74.5254C1159.36 73.9493 1159.36 73.0159 1159.93 72.4404L1164.62 67.75L1159.93 63.0595C1159.36 62.4835 1159.36 61.5502 1159.93 60.9746L1160.97 59.9316C1161.55 59.3562 1162.48 59.3561 1163.06 59.9316L1167.75 64.622L1172.44 59.9316Z" fill="#1F1F1F"/>
<path d="M113.126 108L117.004 98.2H118.292L122.114 108H120.952L119.79 104.92H115.422L114.26 108H113.126ZM115.758 104.066H119.468L117.606 99.18L115.758 104.066ZM129.402 108.098C128.814 108.098 128.282 107.944 127.806 107.636C127.33 107.319 126.952 106.899 126.672 106.376C126.392 105.844 126.252 105.251 126.252 104.598C126.252 103.935 126.392 103.343 126.672 102.82C126.961 102.288 127.348 101.868 127.834 101.56C128.319 101.243 128.86 101.084 129.458 101.084C129.878 101.084 130.27 101.168 130.634 101.336C130.998 101.495 131.315 101.728 131.586 102.036V97.892L132.608 97.682V108H131.586V107.09C131.324 107.417 131.007 107.669 130.634 107.846C130.26 108.014 129.85 108.098 129.402 108.098ZM129.654 107.202C130.055 107.202 130.424 107.123 130.76 106.964C131.096 106.805 131.371 106.581 131.586 106.292V102.904C131.362 102.615 131.077 102.391 130.732 102.232C130.396 102.064 130.036 101.98 129.654 101.98C129.196 101.98 128.786 102.092 128.422 102.316C128.067 102.54 127.782 102.848 127.568 103.24C127.362 103.632 127.26 104.08 127.26 104.584C127.26 105.079 127.362 105.527 127.568 105.928C127.782 106.32 128.067 106.633 128.422 106.866C128.786 107.09 129.196 107.202 129.654 107.202ZM137.788 108.14C137.154 108.14 136.58 107.986 136.066 107.678C135.553 107.361 135.147 106.936 134.848 106.404C134.55 105.863 134.4 105.256 134.4 104.584C134.4 103.912 134.54 103.31 134.82 102.778C135.11 102.246 135.497 101.826 135.982 101.518C136.468 101.21 137.009 101.056 137.606 101.056C138.213 101.056 138.75 101.21 139.216 101.518C139.692 101.817 140.066 102.227 140.336 102.75C140.616 103.263 140.756 103.847 140.756 104.5V104.808H135.394C135.432 105.275 135.558 105.695 135.772 106.068C135.996 106.432 136.286 106.721 136.64 106.936C137.004 107.141 137.401 107.244 137.83 107.244C138.185 107.244 138.526 107.183 138.852 107.062C139.188 106.931 139.473 106.759 139.706 106.544L140.35 107.23C139.958 107.538 139.552 107.767 139.132 107.916C138.712 108.065 138.264 108.14 137.788 108.14ZM135.422 104.08H139.748C139.702 103.669 139.576 103.305 139.37 102.988C139.174 102.661 138.922 102.405 138.614 102.218C138.316 102.031 137.98 101.938 137.606 101.938C137.233 101.938 136.892 102.031 136.584 102.218C136.276 102.395 136.02 102.647 135.814 102.974C135.618 103.291 135.488 103.66 135.422 104.08ZM144.684 108.14C144.124 108.14 143.606 108.056 143.13 107.888C142.654 107.711 142.248 107.459 141.912 107.132L142.458 106.46C142.868 106.759 143.246 106.978 143.592 107.118C143.937 107.249 144.292 107.314 144.656 107.314C145.15 107.314 145.561 107.197 145.888 106.964C146.214 106.731 146.378 106.432 146.378 106.068C146.378 105.788 146.28 105.569 146.084 105.41C145.897 105.251 145.584 105.13 145.146 105.046L144.026 104.85C143.363 104.729 142.873 104.523 142.556 104.234C142.248 103.945 142.094 103.553 142.094 103.058C142.094 102.666 142.196 102.321 142.402 102.022C142.616 101.723 142.91 101.49 143.284 101.322C143.657 101.145 144.082 101.056 144.558 101.056C145.024 101.056 145.468 101.126 145.888 101.266C146.308 101.397 146.732 101.611 147.162 101.91L146.658 102.624C146.303 102.372 145.948 102.19 145.594 102.078C145.239 101.957 144.88 101.896 144.516 101.896C144.068 101.896 143.708 101.994 143.438 102.19C143.167 102.386 143.032 102.652 143.032 102.988C143.032 103.268 143.116 103.483 143.284 103.632C143.461 103.781 143.769 103.893 144.208 103.968L145.356 104.178C146.046 104.299 146.55 104.509 146.868 104.808C147.185 105.107 147.344 105.508 147.344 106.012C147.344 106.413 147.227 106.777 146.994 107.104C146.76 107.421 146.443 107.673 146.042 107.86C145.64 108.047 145.188 108.14 144.684 108.14ZM152.034 108.112C151.399 108.112 150.825 107.958 150.312 107.65C149.808 107.333 149.407 106.908 149.108 106.376C148.809 105.835 148.66 105.237 148.66 104.584C148.66 103.921 148.809 103.324 149.108 102.792C149.407 102.26 149.808 101.84 150.312 101.532C150.825 101.215 151.399 101.056 152.034 101.056C152.538 101.056 153.019 101.149 153.476 101.336C153.933 101.523 154.33 101.784 154.666 102.12L154.008 102.834C153.765 102.563 153.471 102.353 153.126 102.204C152.781 102.055 152.431 101.98 152.076 101.98C151.628 101.98 151.222 102.097 150.858 102.33C150.503 102.563 150.219 102.876 150.004 103.268C149.789 103.66 149.682 104.099 149.682 104.584C149.682 105.069 149.789 105.508 150.004 105.9C150.219 106.292 150.503 106.605 150.858 106.838C151.222 107.071 151.628 107.188 152.076 107.188C152.431 107.188 152.781 107.113 153.126 106.964C153.471 106.805 153.765 106.595 154.008 106.334L154.666 107.048C154.33 107.384 153.933 107.645 153.476 107.832C153.019 108.019 152.538 108.112 152.034 108.112ZM156.091 108V101.168H157.113V102.568C157.29 102.092 157.542 101.723 157.869 101.462C158.205 101.191 158.588 101.056 159.017 101.056C159.138 101.056 159.25 101.065 159.353 101.084C159.456 101.093 159.558 101.117 159.661 101.154V102.078C159.549 102.041 159.428 102.013 159.297 101.994C159.176 101.966 159.059 101.952 158.947 101.952C158.527 101.952 158.158 102.073 157.841 102.316C157.533 102.559 157.29 102.899 157.113 103.338V108H156.091ZM160.999 108V101.168H162.021V108H160.999ZM161.517 99.474C161.312 99.474 161.134 99.404 160.985 99.264C160.845 99.1147 160.775 98.942 160.775 98.746C160.775 98.55 160.845 98.382 160.985 98.242C161.134 98.0927 161.312 98.018 161.517 98.018C161.722 98.018 161.895 98.0927 162.035 98.242C162.184 98.382 162.259 98.55 162.259 98.746C162.259 98.942 162.184 99.1147 162.035 99.264C161.895 99.404 161.722 99.474 161.517 99.474ZM164.116 110.926V101.168H165.124V102.148C165.386 101.803 165.703 101.541 166.076 101.364C166.459 101.177 166.879 101.084 167.336 101.084C167.934 101.084 168.466 101.243 168.932 101.56C169.408 101.868 169.786 102.288 170.066 102.82C170.346 103.343 170.486 103.931 170.486 104.584C170.486 105.237 170.342 105.83 170.052 106.362C169.772 106.894 169.39 107.319 168.904 107.636C168.428 107.944 167.887 108.098 167.28 108.098C166.851 108.098 166.454 108.019 166.09 107.86C165.726 107.692 165.409 107.454 165.138 107.146V110.926H164.116ZM167.084 107.216C167.542 107.216 167.948 107.104 168.302 106.88C168.666 106.647 168.951 106.334 169.156 105.942C169.371 105.541 169.478 105.093 169.478 104.598C169.478 104.094 169.371 103.646 169.156 103.254C168.951 102.862 168.666 102.554 168.302 102.33C167.948 102.097 167.542 101.98 167.084 101.98C166.683 101.98 166.31 102.064 165.964 102.232C165.628 102.391 165.353 102.619 165.138 102.918V106.264C165.362 106.563 165.642 106.796 165.978 106.964C166.324 107.132 166.692 107.216 167.084 107.216ZM174.459 108.14C173.871 108.14 173.423 108 173.115 107.72C172.816 107.431 172.667 107.015 172.667 106.474V102.008H171.253V101.168H172.667V99.292L173.689 99.054V101.168H175.649V102.008H173.689V106.208C173.689 106.572 173.763 106.833 173.913 106.992C174.071 107.151 174.328 107.23 174.683 107.23C174.86 107.23 175.019 107.216 175.159 107.188C175.299 107.16 175.462 107.113 175.649 107.048V107.958C175.462 108.023 175.266 108.07 175.061 108.098C174.855 108.126 174.655 108.14 174.459 108.14ZM177.132 108V101.168H178.154V108H177.132ZM177.65 99.474C177.444 99.474 177.267 99.404 177.118 99.264C176.978 99.1147 176.908 98.942 176.908 98.746C176.908 98.55 176.978 98.382 177.118 98.242C177.267 98.0927 177.444 98.018 177.65 98.018C177.855 98.018 178.028 98.0927 178.168 98.242C178.317 98.382 178.392 98.55 178.392 98.746C178.392 98.942 178.317 99.1147 178.168 99.264C178.028 99.404 177.855 99.474 177.65 99.474ZM183.273 108.112C182.639 108.112 182.069 107.958 181.565 107.65C181.061 107.342 180.665 106.922 180.375 106.39C180.086 105.858 179.941 105.256 179.941 104.584C179.941 103.912 180.086 103.31 180.375 102.778C180.665 102.246 181.061 101.826 181.565 101.518C182.069 101.21 182.639 101.056 183.273 101.056C183.899 101.056 184.459 101.21 184.953 101.518C185.457 101.826 185.854 102.246 186.143 102.778C186.433 103.31 186.577 103.912 186.577 104.584C186.577 105.256 186.433 105.858 186.143 106.39C185.854 106.922 185.457 107.342 184.953 107.65C184.459 107.958 183.899 108.112 183.273 108.112ZM183.259 107.216C183.707 107.216 184.104 107.104 184.449 106.88C184.795 106.647 185.065 106.329 185.261 105.928C185.467 105.527 185.569 105.079 185.569 104.584C185.569 104.08 185.467 103.632 185.261 103.24C185.065 102.839 184.795 102.526 184.449 102.302C184.104 102.069 183.707 101.952 183.259 101.952C182.811 101.952 182.415 102.069 182.069 102.302C181.724 102.526 181.449 102.839 181.243 103.24C181.047 103.632 180.949 104.08 180.949 104.584C180.949 105.079 181.047 105.527 181.243 105.928C181.449 106.329 181.724 106.647 182.069 106.88C182.415 107.104 182.811 107.216 183.259 107.216ZM188.37 108V101.168H189.392V102.274C189.654 101.863 189.966 101.56 190.33 101.364C190.694 101.159 191.105 101.056 191.562 101.056C192.057 101.056 192.486 101.163 192.85 101.378C193.224 101.583 193.513 101.877 193.718 102.26C193.933 102.633 194.04 103.072 194.04 103.576V108H193.018V103.87C193.018 103.263 192.85 102.787 192.514 102.442C192.188 102.087 191.744 101.91 191.184 101.91C190.811 101.91 190.47 101.999 190.162 102.176C189.854 102.353 189.598 102.615 189.392 102.96V108H188.37ZM200.231 108V102.008H198.705V101.168H200.231V99.74C200.231 99.068 200.408 98.55 200.763 98.186C201.117 97.822 201.621 97.64 202.275 97.64C202.461 97.64 202.629 97.6493 202.779 97.668C202.937 97.6867 203.077 97.7193 203.199 97.766V98.69C203.049 98.6433 202.914 98.6107 202.793 98.592C202.671 98.5733 202.531 98.564 202.373 98.564C201.981 98.564 201.696 98.662 201.519 98.858C201.341 99.0447 201.253 99.3433 201.253 99.754V101.168H203.199V102.008H201.253V108H200.231ZM207.281 108.112C206.646 108.112 206.077 107.958 205.573 107.65C205.069 107.342 204.672 106.922 204.383 106.39C204.094 105.858 203.949 105.256 203.949 104.584C203.949 103.912 204.094 103.31 204.383 102.778C204.672 102.246 205.069 101.826 205.573 101.518C206.077 101.21 206.646 101.056 207.281 101.056C207.906 101.056 208.466 101.21 208.961 101.518C209.465 101.826 209.862 102.246 210.151 102.778C210.44 103.31 210.585 103.912 210.585 104.584C210.585 105.256 210.44 105.858 210.151 106.39C209.862 106.922 209.465 107.342 208.961 107.65C208.466 107.958 207.906 108.112 207.281 108.112ZM207.267 107.216C207.715 107.216 208.112 107.104 208.457 106.88C208.802 106.647 209.073 106.329 209.269 105.928C209.474 105.527 209.577 105.079 209.577 104.584C209.577 104.08 209.474 103.632 209.269 103.24C209.073 102.839 208.802 102.526 208.457 102.302C208.112 102.069 207.715 101.952 207.267 101.952C206.819 101.952 206.422 102.069 206.077 102.302C205.732 102.526 205.456 102.839 205.251 103.24C205.055 103.632 204.957 104.08 204.957 104.584C204.957 105.079 205.055 105.527 205.251 105.928C205.456 106.329 205.732 106.647 206.077 106.88C206.422 107.104 206.819 107.216 207.267 107.216ZM212.378 108V101.168H213.4V102.568C213.577 102.092 213.829 101.723 214.156 101.462C214.492 101.191 214.875 101.056 215.304 101.056C215.425 101.056 215.537 101.065 215.64 101.084C215.743 101.093 215.845 101.117 215.948 101.154V102.078C215.836 102.041 215.715 102.013 215.584 101.994C215.463 101.966 215.346 101.952 215.234 101.952C214.814 101.952 214.445 102.073 214.128 102.316C213.82 102.559 213.577 102.899 213.4 103.338V108H212.378ZM223.172 108.14C222.584 108.14 222.136 108 221.828 107.72C221.529 107.431 221.38 107.015 221.38 106.474V102.008H219.966V101.168H221.38V99.292L222.402 99.054V101.168H224.362V102.008H222.402V106.208C222.402 106.572 222.476 106.833 222.626 106.992C222.784 107.151 223.041 107.23 223.396 107.23C223.573 107.23 223.732 107.216 223.872 107.188C224.012 107.16 224.175 107.113 224.362 107.048V107.958C224.175 108.023 223.979 108.07 223.774 108.098C223.568 108.126 223.368 108.14 223.172 108.14ZM225.859 108V97.892L226.881 97.682V102.274C227.142 101.863 227.455 101.56 227.819 101.364C228.183 101.159 228.593 101.056 229.051 101.056C229.545 101.056 229.975 101.163 230.339 101.378C230.712 101.583 231.001 101.877 231.207 102.26C231.421 102.633 231.529 103.072 231.529 103.576V108H230.507V103.87C230.507 103.263 230.339 102.787 230.003 102.442C229.676 102.087 229.233 101.91 228.673 101.91C228.299 101.91 227.959 101.999 227.651 102.176C227.343 102.353 227.086 102.615 226.881 102.96V108H225.859ZM236.663 108.14C236.029 108.14 235.455 107.986 234.941 107.678C234.428 107.361 234.022 106.936 233.723 106.404C233.425 105.863 233.275 105.256 233.275 104.584C233.275 103.912 233.415 103.31 233.695 102.778C233.985 102.246 234.372 101.826 234.857 101.518C235.343 101.21 235.884 101.056 236.481 101.056C237.088 101.056 237.625 101.21 238.091 101.518C238.567 101.817 238.941 102.227 239.211 102.75C239.491 103.263 239.631 103.847 239.631 104.5V104.808H234.269C234.307 105.275 234.433 105.695 234.647 106.068C234.871 106.432 235.161 106.721 235.515 106.936C235.879 107.141 236.276 107.244 236.705 107.244C237.06 107.244 237.401 107.183 237.727 107.062C238.063 106.931 238.348 106.759 238.581 106.544L239.225 107.23C238.833 107.538 238.427 107.767 238.007 107.916C237.587 108.065 237.139 108.14 236.663 108.14ZM234.297 104.08H238.623C238.577 103.669 238.451 103.305 238.245 102.988C238.049 102.661 237.797 102.405 237.489 102.218C237.191 102.031 236.855 101.938 236.481 101.938C236.108 101.938 235.767 102.031 235.459 102.218C235.151 102.395 234.895 102.647 234.689 102.974C234.493 103.291 234.363 103.66 234.297 104.08ZM245.862 108L243.986 101.168H244.98L246.408 106.628L248.046 101.168H248.956L250.594 106.628L252.008 101.168H252.974L251.112 108H250.118L248.494 102.484L246.87 108H245.862ZM254.405 108V101.168H255.427V108H254.405ZM254.923 99.474C254.718 99.474 254.54 99.404 254.391 99.264C254.251 99.1147 254.181 98.942 254.181 98.746C254.181 98.55 254.251 98.382 254.391 98.242C254.54 98.0927 254.718 98.018 254.923 98.018C255.128 98.018 255.301 98.0927 255.441 98.242C255.59 98.382 255.665 98.55 255.665 98.746C255.665 98.942 255.59 99.1147 255.441 99.264C255.301 99.404 255.128 99.474 254.923 99.474ZM257.047 108V107.188L260.981 102.092L257.089 102.106V101.168H262.227V101.966L258.279 107.09L262.283 107.076V108H257.047ZM266.062 108.126C265.577 108.126 265.148 108.037 264.774 107.86C264.401 107.683 264.107 107.44 263.892 107.132C263.687 106.815 263.584 106.451 263.584 106.04C263.584 105.629 263.692 105.275 263.906 104.976C264.121 104.668 264.42 104.43 264.802 104.262C265.185 104.094 265.633 104.01 266.146 104.01C266.538 104.01 266.907 104.052 267.252 104.136C267.607 104.22 267.934 104.355 268.232 104.542V103.604C268.232 103.044 268.083 102.624 267.784 102.344C267.486 102.055 267.047 101.91 266.468 101.91C266.151 101.91 265.824 101.957 265.488 102.05C265.162 102.143 264.798 102.293 264.396 102.498L264.018 101.714C264.933 101.275 265.792 101.056 266.594 101.056C267.444 101.056 268.097 101.266 268.554 101.686C269.012 102.097 269.24 102.689 269.24 103.464V108H268.232V107.202C267.934 107.51 267.602 107.743 267.238 107.902C266.874 108.051 266.482 108.126 266.062 108.126ZM264.564 106.012C264.564 106.413 264.718 106.735 265.026 106.978C265.344 107.221 265.759 107.342 266.272 107.342C266.655 107.342 267.005 107.277 267.322 107.146C267.649 107.015 267.952 106.819 268.232 106.558V105.242C267.943 105.074 267.644 104.953 267.336 104.878C267.028 104.794 266.683 104.752 266.3 104.752C265.778 104.752 265.358 104.869 265.04 105.102C264.723 105.326 264.564 105.629 264.564 106.012ZM271.318 108V101.168H272.34V102.568C272.517 102.092 272.769 101.723 273.096 101.462C273.432 101.191 273.814 101.056 274.244 101.056C274.365 101.056 274.477 101.065 274.58 101.084C274.682 101.093 274.785 101.117 274.888 101.154V102.078C274.776 102.041 274.654 102.013 274.524 101.994C274.402 101.966 274.286 101.952 274.174 101.952C273.754 101.952 273.385 102.073 273.068 102.316C272.76 102.559 272.517 102.899 272.34 103.338V108H271.318ZM278.658 108.098C278.07 108.098 277.538 107.944 277.062 107.636C276.586 107.319 276.208 106.899 275.928 106.376C275.648 105.844 275.508 105.251 275.508 104.598C275.508 103.935 275.648 103.343 275.928 102.82C276.217 102.288 276.604 101.868 277.09 101.56C277.575 101.243 278.116 101.084 278.714 101.084C279.134 101.084 279.526 101.168 279.89 101.336C280.254 101.495 280.571 101.728 280.842 102.036V97.892L281.864 97.682V108H280.842V107.09C280.58 107.417 280.263 107.669 279.89 107.846C279.516 108.014 279.106 108.098 278.658 108.098ZM278.91 107.202C279.311 107.202 279.68 107.123 280.016 106.964C280.352 106.805 280.627 106.581 280.842 106.292V102.904C280.618 102.615 280.333 102.391 279.988 102.232C279.652 102.064 279.292 101.98 278.91 101.98C278.452 101.98 278.042 102.092 277.678 102.316C277.323 102.54 277.038 102.848 276.824 103.24C276.618 103.632 276.516 104.08 276.516 104.584C276.516 105.079 276.618 105.527 276.824 105.928C277.038 106.32 277.323 106.633 277.678 106.866C278.042 107.09 278.452 107.202 278.91 107.202ZM290.396 111.066C289.938 111.066 289.476 111.001 289.01 110.87C288.552 110.749 288.128 110.576 287.736 110.352L288.17 109.568C288.59 109.783 288.972 109.941 289.318 110.044C289.663 110.147 290.008 110.198 290.354 110.198C290.979 110.198 291.45 110.049 291.768 109.75C292.094 109.451 292.258 109.017 292.258 108.448V107.076C291.996 107.403 291.679 107.655 291.306 107.832C290.932 108 290.522 108.084 290.074 108.084C289.486 108.084 288.954 107.93 288.478 107.622C288.002 107.305 287.624 106.885 287.344 106.362C287.064 105.83 286.924 105.237 286.924 104.584C286.924 103.931 287.064 103.343 287.344 102.82C287.633 102.288 288.02 101.868 288.506 101.56C288.991 101.243 289.532 101.084 290.13 101.084C290.559 101.084 290.956 101.168 291.32 101.336C291.684 101.495 292.001 101.733 292.272 102.05V101.168H293.28V108.434C293.28 109.283 293.032 109.932 292.538 110.38C292.043 110.837 291.329 111.066 290.396 111.066ZM290.326 107.202C290.727 107.202 291.096 107.123 291.432 106.964C291.768 106.796 292.043 106.567 292.258 106.278V102.904C292.034 102.615 291.749 102.391 291.404 102.232C291.068 102.064 290.708 101.98 290.326 101.98C289.868 101.98 289.458 102.092 289.094 102.316C288.739 102.54 288.454 102.848 288.24 103.24C288.034 103.632 287.932 104.08 287.932 104.584C287.932 105.079 288.034 105.527 288.24 105.928C288.454 106.32 288.739 106.633 289.094 106.866C289.458 107.09 289.868 107.202 290.326 107.202ZM298.404 108.112C297.769 108.112 297.2 107.958 296.696 107.65C296.192 107.342 295.795 106.922 295.506 106.39C295.217 105.858 295.072 105.256 295.072 104.584C295.072 103.912 295.217 103.31 295.506 102.778C295.795 102.246 296.192 101.826 296.696 101.518C297.2 101.21 297.769 101.056 298.404 101.056C299.029 101.056 299.589 101.21 300.084 101.518C300.588 101.826 300.985 102.246 301.274 102.778C301.563 103.31 301.708 103.912 301.708 104.584C301.708 105.256 301.563 105.858 301.274 106.39C300.985 106.922 300.588 107.342 300.084 107.65C299.589 107.958 299.029 108.112 298.404 108.112ZM298.39 107.216C298.838 107.216 299.235 107.104 299.58 106.88C299.925 106.647 300.196 106.329 300.392 105.928C300.597 105.527 300.7 105.079 300.7 104.584C300.7 104.08 300.597 103.632 300.392 103.24C300.196 102.839 299.925 102.526 299.58 102.302C299.235 102.069 298.838 101.952 298.39 101.952C297.942 101.952 297.545 102.069 297.2 102.302C296.855 102.526 296.579 102.839 296.374 103.24C296.178 103.632 296.08 104.08 296.08 104.584C296.08 105.079 296.178 105.527 296.374 105.928C296.579 106.329 296.855 106.647 297.2 106.88C297.545 107.104 297.942 107.216 298.39 107.216ZM306.581 108.14C305.947 108.14 305.373 107.986 304.859 107.678C304.346 107.361 303.94 106.936 303.641 106.404C303.343 105.863 303.193 105.256 303.193 104.584C303.193 103.912 303.333 103.31 303.613 102.778C303.903 102.246 304.29 101.826 304.775 101.518C305.261 101.21 305.802 101.056 306.399 101.056C307.006 101.056 307.543 101.21 308.009 101.518C308.485 101.817 308.859 102.227 309.129 102.75C309.409 103.263 309.549 103.847 309.549 104.5V104.808H304.187C304.225 105.275 304.351 105.695 304.565 106.068C304.789 106.432 305.079 106.721 305.433 106.936C305.797 107.141 306.194 107.244 306.623 107.244C306.978 107.244 307.319 107.183 307.645 107.062C307.981 106.931 308.266 106.759 308.499 106.544L309.143 107.23C308.751 107.538 308.345 107.767 307.925 107.916C307.505 108.065 307.057 108.14 306.581 108.14ZM304.215 104.08H308.541C308.495 103.669 308.369 103.305 308.163 102.988C307.967 102.661 307.715 102.405 307.407 102.218C307.109 102.031 306.773 101.938 306.399 101.938C306.026 101.938 305.685 102.031 305.377 102.218C305.069 102.395 304.813 102.647 304.607 102.974C304.411 103.291 304.281 103.66 304.215 104.08ZM313.477 108.14C312.917 108.14 312.399 108.056 311.923 107.888C311.447 107.711 311.041 107.459 310.705 107.132L311.251 106.46C311.661 106.759 312.039 106.978 312.385 107.118C312.73 107.249 313.085 107.314 313.449 107.314C313.943 107.314 314.354 107.197 314.681 106.964C315.007 106.731 315.171 106.432 315.171 106.068C315.171 105.788 315.073 105.569 314.877 105.41C314.69 105.251 314.377 105.13 313.939 105.046L312.819 104.85C312.156 104.729 311.666 104.523 311.349 104.234C311.041 103.945 310.887 103.553 310.887 103.058C310.887 102.666 310.989 102.321 311.195 102.022C311.409 101.723 311.703 101.49 312.077 101.322C312.45 101.145 312.875 101.056 313.351 101.056C313.817 101.056 314.261 101.126 314.681 101.266C315.101 101.397 315.525 101.611 315.955 101.91L315.451 102.624C315.096 102.372 314.741 102.19 314.387 102.078C314.032 101.957 313.673 101.896 313.309 101.896C312.861 101.896 312.501 101.994 312.231 102.19C311.96 102.386 311.825 102.652 311.825 102.988C311.825 103.268 311.909 103.483 312.077 103.632C312.254 103.781 312.562 103.893 313.001 103.968L314.149 104.178C314.839 104.299 315.343 104.509 315.661 104.808C315.978 105.107 316.137 105.508 316.137 106.012C316.137 106.413 316.02 106.777 315.787 107.104C315.553 107.421 315.236 107.673 314.835 107.86C314.433 108.047 313.981 108.14 313.477 108.14ZM320.96 108V97.892L321.982 97.682V102.274C322.243 101.863 322.556 101.56 322.92 101.364C323.284 101.159 323.695 101.056 324.152 101.056C324.647 101.056 325.076 101.163 325.44 101.378C325.813 101.583 326.103 101.877 326.308 102.26C326.523 102.633 326.63 103.072 326.63 103.576V108H325.608V103.87C325.608 103.263 325.44 102.787 325.104 102.442C324.777 102.087 324.334 101.91 323.774 101.91C323.401 101.91 323.06 101.999 322.752 102.176C322.444 102.353 322.187 102.615 321.982 102.96V108H320.96ZM331.765 108.14C331.13 108.14 330.556 107.986 330.043 107.678C329.529 107.361 329.123 106.936 328.825 106.404C328.526 105.863 328.377 105.256 328.377 104.584C328.377 103.912 328.517 103.31 328.797 102.778C329.086 102.246 329.473 101.826 329.959 101.518C330.444 101.21 330.985 101.056 331.583 101.056C332.189 101.056 332.726 101.21 333.193 101.518C333.669 101.817 334.042 102.227 334.313 102.75C334.593 103.263 334.733 103.847 334.733 104.5V104.808H329.371C329.408 105.275 329.534 105.695 329.749 106.068C329.973 106.432 330.262 106.721 330.617 106.936C330.981 107.141 331.377 107.244 331.807 107.244C332.161 107.244 332.502 107.183 332.829 107.062C333.165 106.931 333.449 106.759 333.683 106.544L334.327 107.23C333.935 107.538 333.529 107.767 333.109 107.916C332.689 108.065 332.241 108.14 331.765 108.14ZM329.399 104.08H333.725C333.678 103.669 333.552 103.305 333.347 102.988C333.151 102.661 332.899 102.405 332.591 102.218C332.292 102.031 331.956 101.938 331.583 101.938C331.209 101.938 330.869 102.031 330.561 102.218C330.253 102.395 329.996 102.647 329.791 102.974C329.595 103.291 329.464 103.66 329.399 104.08ZM336.478 108V101.168H337.5V102.568C337.677 102.092 337.929 101.723 338.256 101.462C338.592 101.191 338.974 101.056 339.404 101.056C339.525 101.056 339.637 101.065 339.74 101.084C339.842 101.093 339.945 101.117 340.048 101.154V102.078C339.936 102.041 339.814 102.013 339.684 101.994C339.562 101.966 339.446 101.952 339.334 101.952C338.914 101.952 338.545 102.073 338.228 102.316C337.92 102.559 337.677 102.899 337.5 103.338V108H336.478ZM344.056 108.14C343.421 108.14 342.847 107.986 342.334 107.678C341.82 107.361 341.414 106.936 341.116 106.404C340.817 105.863 340.668 105.256 340.668 104.584C340.668 103.912 340.808 103.31 341.088 102.778C341.377 102.246 341.764 101.826 342.25 101.518C342.735 101.21 343.276 101.056 343.874 101.056C344.48 101.056 345.017 101.21 345.484 101.518C345.96 101.817 346.333 102.227 346.604 102.75C346.884 103.263 347.024 103.847 347.024 104.5V104.808H341.662C341.699 105.275 341.825 105.695 342.04 106.068C342.264 106.432 342.553 106.721 342.908 106.936C343.272 107.141 343.668 107.244 344.098 107.244C344.452 107.244 344.793 107.183 345.12 107.062C345.456 106.931 345.74 106.759 345.974 106.544L346.618 107.23C346.226 107.538 345.82 107.767 345.4 107.916C344.98 108.065 344.532 108.14 344.056 108.14ZM341.69 104.08H346.016C345.969 103.669 345.843 103.305 345.638 102.988C345.442 102.661 345.19 102.405 344.882 102.218C344.583 102.031 344.247 101.938 343.874 101.938C343.5 101.938 343.16 102.031 342.852 102.218C342.544 102.395 342.287 102.647 342.082 102.974C341.886 103.291 341.755 103.66 341.69 104.08ZM349.113 108.112C348.908 108.112 348.731 108.037 348.581 107.888C348.441 107.739 348.371 107.561 348.371 107.356C348.371 107.141 348.441 106.964 348.581 106.824C348.731 106.675 348.908 106.6 349.113 106.6C349.319 106.6 349.491 106.675 349.631 106.824C349.781 106.964 349.855 107.141 349.855 107.356C349.855 107.561 349.781 107.739 349.631 107.888C349.491 108.037 349.319 108.112 349.113 108.112Z" fill="#4D4D4D"/>
<mask id="path-8-inside-2_1825_68843" fill="white">
<path d="M89 141H339V785H113C99.7452 785 89 774.255 89 761V141Z"/>
</mask>
<path d="M89 141H339H89ZM339 785H89H339ZM89 785V141V785ZM340 141V785H338V141H340Z" fill="#C7C7C7" mask="url(#path-8-inside-2_1825_68843)"/>
<circle cx="125" cy="183" r="12" fill="#0066CC" style="mix-blend-mode:multiply"/>
<path d="M124.496 188V179.292L122.928 179.992V179.068L124.874 178.2H125.504V188H124.496Z" fill="white"/>
<path d="M141 171C141 167.686 143.686 165 147 165H307C310.314 165 313 167.686 313 171V196C313 199.314 310.314 202 307 202H147C143.686 202 141 199.314 141 196V171Z" fill="#C7C7C7" fill-opacity="0.25"/>
<path d="M154.74 188.154C154.04 188.154 153.391 188.023 152.794 187.762C152.197 187.501 151.669 187.141 151.212 186.684C150.764 186.217 150.414 185.681 150.162 185.074C149.91 184.458 149.784 183.8 149.784 183.1C149.784 182.4 149.91 181.747 150.162 181.14C150.414 180.524 150.764 179.987 151.212 179.53C151.669 179.063 152.197 178.699 152.794 178.438C153.391 178.177 154.04 178.046 154.74 178.046C155.487 178.046 156.191 178.181 156.854 178.452C157.526 178.723 158.095 179.124 158.562 179.656L157.834 180.384C157.47 179.945 157.013 179.609 156.462 179.376C155.911 179.143 155.337 179.026 154.74 179.026C154.189 179.026 153.681 179.133 153.214 179.348C152.747 179.553 152.337 179.843 151.982 180.216C151.637 180.58 151.366 181.009 151.17 181.504C150.974 181.999 150.876 182.531 150.876 183.1C150.876 183.669 150.974 184.201 151.17 184.696C151.366 185.191 151.637 185.625 151.982 185.998C152.337 186.362 152.747 186.651 153.214 186.866C153.681 187.071 154.189 187.174 154.74 187.174C155.393 187.174 155.977 187.029 156.49 186.74C157.013 186.451 157.433 186.054 157.75 185.55C158.077 185.037 158.268 184.463 158.324 183.828H155.02V182.876H159.416V183.31C159.416 183.991 159.299 184.626 159.066 185.214C158.833 185.793 158.501 186.306 158.072 186.754C157.652 187.193 157.157 187.538 156.588 187.79C156.019 188.033 155.403 188.154 154.74 188.154ZM164.314 188.14C163.679 188.14 163.105 187.986 162.592 187.678C162.078 187.361 161.672 186.936 161.374 186.404C161.075 185.863 160.926 185.256 160.926 184.584C160.926 183.912 161.066 183.31 161.346 182.778C161.635 182.246 162.022 181.826 162.508 181.518C162.993 181.21 163.534 181.056 164.132 181.056C164.738 181.056 165.275 181.21 165.742 181.518C166.218 181.817 166.591 182.227 166.862 182.75C167.142 183.263 167.282 183.847 167.282 184.5V184.808H161.92C161.957 185.275 162.083 185.695 162.298 186.068C162.522 186.432 162.811 186.721 163.166 186.936C163.53 187.141 163.926 187.244 164.356 187.244C164.71 187.244 165.051 187.183 165.378 187.062C165.714 186.931 165.998 186.759 166.232 186.544L166.876 187.23C166.484 187.538 166.078 187.767 165.658 187.916C165.238 188.065 164.79 188.14 164.314 188.14ZM161.948 184.08H166.274C166.227 183.669 166.101 183.305 165.896 182.988C165.7 182.661 165.448 182.405 165.14 182.218C164.841 182.031 164.505 181.938 164.132 181.938C163.758 181.938 163.418 182.031 163.11 182.218C162.802 182.395 162.545 182.647 162.34 182.974C162.144 183.291 162.013 183.66 161.948 184.08ZM171.425 188.14C170.837 188.14 170.389 188 170.081 187.72C169.783 187.431 169.633 187.015 169.633 186.474V182.008H168.219V181.168H169.633V179.292L170.655 179.054V181.168H172.615V182.008H170.655V186.208C170.655 186.572 170.73 186.833 170.879 186.992C171.038 187.151 171.295 187.23 171.649 187.23C171.827 187.23 171.985 187.216 172.125 187.188C172.265 187.16 172.429 187.113 172.615 187.048V187.958C172.429 188.023 172.233 188.07 172.027 188.098C171.822 188.126 171.621 188.14 171.425 188.14ZM179.494 188.14C178.934 188.14 178.416 188.056 177.94 187.888C177.464 187.711 177.058 187.459 176.722 187.132L177.268 186.46C177.679 186.759 178.057 186.978 178.402 187.118C178.747 187.249 179.102 187.314 179.466 187.314C179.961 187.314 180.371 187.197 180.698 186.964C181.025 186.731 181.188 186.432 181.188 186.068C181.188 185.788 181.09 185.569 180.894 185.41C180.707 185.251 180.395 185.13 179.956 185.046L178.836 184.85C178.173 184.729 177.683 184.523 177.366 184.234C177.058 183.945 176.904 183.553 176.904 183.058C176.904 182.666 177.007 182.321 177.212 182.022C177.427 181.723 177.721 181.49 178.094 181.322C178.467 181.145 178.892 181.056 179.368 181.056C179.835 181.056 180.278 181.126 180.698 181.266C181.118 181.397 181.543 181.611 181.972 181.91L181.468 182.624C181.113 182.372 180.759 182.19 180.404 182.078C180.049 181.957 179.69 181.896 179.326 181.896C178.878 181.896 178.519 181.994 178.248 182.19C177.977 182.386 177.842 182.652 177.842 182.988C177.842 183.268 177.926 183.483 178.094 183.632C178.271 183.781 178.579 183.893 179.018 183.968L180.166 184.178C180.857 184.299 181.361 184.509 181.678 184.808C181.995 185.107 182.154 185.508 182.154 186.012C182.154 186.413 182.037 186.777 181.804 187.104C181.571 187.421 181.253 187.673 180.852 187.86C180.451 188.047 179.998 188.14 179.494 188.14ZM186.177 188.14C185.589 188.14 185.141 188 184.833 187.72C184.535 187.431 184.385 187.015 184.385 186.474V182.008H182.971V181.168H184.385V179.292L185.407 179.054V181.168H187.367V182.008H185.407V186.208C185.407 186.572 185.482 186.833 185.631 186.992C185.79 187.151 186.047 187.23 186.401 187.23C186.579 187.23 186.737 187.216 186.877 187.188C187.017 187.16 187.181 187.113 187.367 187.048V187.958C187.181 188.023 186.985 188.07 186.779 188.098C186.574 188.126 186.373 188.14 186.177 188.14ZM190.978 188.126C190.493 188.126 190.064 188.037 189.69 187.86C189.317 187.683 189.023 187.44 188.808 187.132C188.603 186.815 188.5 186.451 188.5 186.04C188.5 185.629 188.608 185.275 188.822 184.976C189.037 184.668 189.336 184.43 189.718 184.262C190.101 184.094 190.549 184.01 191.062 184.01C191.454 184.01 191.823 184.052 192.168 184.136C192.523 184.22 192.85 184.355 193.148 184.542V183.604C193.148 183.044 192.999 182.624 192.7 182.344C192.402 182.055 191.963 181.91 191.384 181.91C191.067 181.91 190.74 181.957 190.404 182.05C190.078 182.143 189.714 182.293 189.312 182.498L188.934 181.714C189.849 181.275 190.708 181.056 191.51 181.056C192.36 181.056 193.013 181.266 193.47 181.686C193.928 182.097 194.156 182.689 194.156 183.464V188H193.148V187.202C192.85 187.51 192.518 187.743 192.154 187.902C191.79 188.051 191.398 188.126 190.978 188.126ZM189.48 186.012C189.48 186.413 189.634 186.735 189.942 186.978C190.26 187.221 190.675 187.342 191.188 187.342C191.571 187.342 191.921 187.277 192.238 187.146C192.565 187.015 192.868 186.819 193.148 186.558V185.242C192.859 185.074 192.56 184.953 192.252 184.878C191.944 184.794 191.599 184.752 191.216 184.752C190.694 184.752 190.274 184.869 189.956 185.102C189.639 185.326 189.48 185.629 189.48 186.012ZM196.234 188V181.168H197.256V182.568C197.433 182.092 197.685 181.723 198.012 181.462C198.348 181.191 198.73 181.056 199.16 181.056C199.281 181.056 199.393 181.065 199.496 181.084C199.598 181.093 199.701 181.117 199.804 181.154V182.078C199.692 182.041 199.57 182.013 199.44 181.994C199.318 181.966 199.202 181.952 199.09 181.952C198.67 181.952 198.301 182.073 197.984 182.316C197.676 182.559 197.433 182.899 197.256 183.338V188H196.234ZM203.759 188.14C203.171 188.14 202.723 188 202.415 187.72C202.117 187.431 201.967 187.015 201.967 186.474V182.008H200.553V181.168H201.967V179.292L202.989 179.054V181.168H204.949V182.008H202.989V186.208C202.989 186.572 203.064 186.833 203.213 186.992C203.372 187.151 203.629 187.23 203.983 187.23C204.161 187.23 204.319 187.216 204.459 187.188C204.599 187.16 204.763 187.113 204.949 187.048V187.958C204.763 188.023 204.567 188.07 204.361 188.098C204.156 188.126 203.955 188.14 203.759 188.14ZM209.39 188.14C208.755 188.14 208.181 187.986 207.668 187.678C207.154 187.361 206.748 186.936 206.45 186.404C206.151 185.863 206.002 185.256 206.002 184.584C206.002 183.912 206.142 183.31 206.422 182.778C206.711 182.246 207.098 181.826 207.584 181.518C208.069 181.21 208.61 181.056 209.208 181.056C209.814 181.056 210.351 181.21 210.818 181.518C211.294 181.817 211.667 182.227 211.938 182.75C212.218 183.263 212.358 183.847 212.358 184.5V184.808H206.996C207.033 185.275 207.159 185.695 207.374 186.068C207.598 186.432 207.887 186.721 208.242 186.936C208.606 187.141 209.002 187.244 209.432 187.244C209.786 187.244 210.127 187.183 210.454 187.062C210.79 186.931 211.074 186.759 211.308 186.544L211.952 187.23C211.56 187.538 211.154 187.767 210.734 187.916C210.314 188.065 209.866 188.14 209.39 188.14ZM207.024 184.08H211.35C211.303 183.669 211.177 183.305 210.972 182.988C210.776 182.661 210.524 182.405 210.216 182.218C209.917 182.031 209.581 181.938 209.208 181.938C208.834 181.938 208.494 182.031 208.186 182.218C207.878 182.395 207.621 182.647 207.416 182.974C207.22 183.291 207.089 183.66 207.024 184.08ZM216.945 188.098C216.357 188.098 215.825 187.944 215.349 187.636C214.873 187.319 214.495 186.899 214.215 186.376C213.935 185.844 213.795 185.251 213.795 184.598C213.795 183.935 213.935 183.343 214.215 182.82C214.504 182.288 214.891 181.868 215.377 181.56C215.862 181.243 216.403 181.084 217.001 181.084C217.421 181.084 217.813 181.168 218.177 181.336C218.541 181.495 218.858 181.728 219.129 182.036V177.892L220.151 177.682V188H219.129V187.09C218.867 187.417 218.55 187.669 218.177 187.846C217.803 188.014 217.393 188.098 216.945 188.098ZM217.197 187.202C217.598 187.202 217.967 187.123 218.303 186.964C218.639 186.805 218.914 186.581 219.129 186.292V182.904C218.905 182.615 218.62 182.391 218.275 182.232C217.939 182.064 217.579 181.98 217.197 181.98C216.739 181.98 216.329 182.092 215.965 182.316C215.61 182.54 215.325 182.848 215.111 183.24C214.905 183.632 214.803 184.08 214.803 184.584C214.803 185.079 214.905 185.527 215.111 185.928C215.325 186.32 215.61 186.633 215.965 186.866C216.329 187.09 216.739 187.202 217.197 187.202Z" fill="#151515"/>
<g clip-path="url(#clip1_1825_68843)">
<path d="M366.312 183L363.558 170.4H365.502L367.464 180.03L370.308 170.4H372.108L374.952 180.012L376.932 170.4H378.786L376.032 183H374.088L371.19 173.1L368.274 183H366.312ZM380.41 183V170.4L382.21 170.004V174.774C382.918 174.03 383.836 173.658 384.964 173.658C385.672 173.658 386.29 173.808 386.818 174.108C387.358 174.408 387.778 174.828 388.078 175.368C388.39 175.908 388.546 176.532 388.546 177.24V183H386.746V177.546C386.746 176.826 386.542 176.262 386.134 175.854C385.726 175.434 385.168 175.224 384.46 175.224C383.98 175.224 383.548 175.326 383.164 175.53C382.78 175.734 382.462 176.028 382.21 176.412V183H380.41ZM393.521 183.162C392.861 183.162 392.279 183.048 391.775 182.82C391.271 182.58 390.875 182.25 390.587 181.83C390.299 181.41 390.155 180.924 390.155 180.372C390.155 179.508 390.485 178.83 391.145 178.338C391.805 177.834 392.711 177.582 393.863 177.582C394.763 177.582 395.597 177.756 396.365 178.104V177.132C396.365 175.824 395.621 175.17 394.133 175.17C393.713 175.17 393.275 175.236 392.819 175.368C392.363 175.488 391.853 175.68 391.289 175.944L390.623 174.594C391.319 174.27 391.967 174.036 392.567 173.892C393.167 173.736 393.773 173.658 394.385 173.658C395.573 173.658 396.491 173.94 397.139 174.504C397.799 175.068 398.129 175.872 398.129 176.916V183H396.365V182.208C395.957 182.532 395.519 182.772 395.051 182.928C394.583 183.084 394.073 183.162 393.521 183.162ZM391.883 180.336C391.883 180.78 392.069 181.14 392.441 181.416C392.825 181.692 393.323 181.83 393.935 181.83C394.919 181.83 395.729 181.536 396.365 180.948V179.4C395.705 179.016 394.919 178.824 394.007 178.824C393.347 178.824 392.825 178.962 392.441 179.238C392.069 179.502 391.883 179.868 391.883 180.336ZM403.863 183.162C402.975 183.162 402.297 182.958 401.829 182.55C401.361 182.13 401.127 181.524 401.127 180.732V175.35H399.183V173.838H401.127V171.498L402.909 171.066V173.838H405.609V175.35H402.909V180.318C402.909 180.786 403.011 181.122 403.215 181.326C403.431 181.518 403.779 181.614 404.259 181.614C404.511 181.614 404.733 181.596 404.925 181.56C405.129 181.524 405.345 181.47 405.573 181.398V182.91C405.333 182.994 405.051 183.054 404.727 183.09C404.415 183.138 404.127 183.162 403.863 183.162ZM414.909 183.144C414.057 183.144 413.277 182.934 412.569 182.514C411.861 182.094 411.303 181.53 410.895 180.822C410.487 180.102 410.283 179.298 410.283 178.41C410.283 177.522 410.487 176.724 410.895 176.016C411.315 175.308 411.879 174.744 412.587 174.324C413.295 173.904 414.081 173.694 414.945 173.694C415.977 173.694 416.895 174 417.699 174.612V170.4L419.499 170.058V183H417.717V182.118C416.937 182.802 416.001 183.144 414.909 183.144ZM415.143 181.578C415.671 181.578 416.151 181.482 416.583 181.29C417.027 181.098 417.399 180.822 417.699 180.462V176.34C417.399 176.004 417.027 175.74 416.583 175.548C416.139 175.344 415.659 175.242 415.143 175.242C414.567 175.242 414.045 175.38 413.577 175.656C413.109 175.932 412.737 176.31 412.461 176.79C412.185 177.258 412.047 177.792 412.047 178.392C412.047 178.992 412.185 179.532 412.461 180.012C412.737 180.492 413.109 180.876 413.577 181.164C414.045 181.44 414.567 181.578 415.143 181.578ZM425.986 183.18C425.098 183.18 424.288 182.97 423.556 182.55C422.836 182.13 422.266 181.56 421.846 180.84C421.426 180.12 421.216 179.316 421.216 178.428C421.216 177.54 421.426 176.736 421.846 176.016C422.266 175.296 422.836 174.726 423.556 174.306C424.288 173.874 425.098 173.658 425.986 173.658C426.886 173.658 427.696 173.874 428.416 174.306C429.136 174.726 429.706 175.296 430.126 176.016C430.546 176.736 430.756 177.54 430.756 178.428C430.756 179.316 430.546 180.12 430.126 180.84C429.706 181.56 429.136 182.13 428.416 182.55C427.696 182.97 426.886 183.18 425.986 183.18ZM425.986 181.596C426.55 181.596 427.054 181.458 427.498 181.182C427.954 180.894 428.314 180.51 428.578 180.03C428.854 179.55 428.992 179.016 428.992 178.428C428.992 177.828 428.86 177.294 428.596 176.826C428.332 176.346 427.972 175.962 427.516 175.674C427.06 175.386 426.55 175.242 425.986 175.242C425.422 175.242 424.912 175.386 424.456 175.674C424 175.962 423.64 176.346 423.376 176.826C423.112 177.294 422.98 177.828 422.98 178.428C422.98 179.016 423.112 179.55 423.376 180.03C423.64 180.51 424 180.894 424.456 181.182C424.912 181.458 425.422 181.596 425.986 181.596ZM436.832 186.87C436.64 186.87 436.46 186.858 436.292 186.834C436.124 186.822 435.986 186.798 435.878 186.762V185.178C436.094 185.226 436.358 185.25 436.67 185.25C437.51 185.25 438.116 184.8 438.488 183.9L438.884 183.018L435.212 173.838H437.21L439.874 180.822L442.826 173.838H444.77L440.342 184.134C440.054 184.782 439.748 185.304 439.424 185.7C439.1 186.108 438.728 186.402 438.308 186.582C437.888 186.774 437.396 186.87 436.832 186.87ZM449.981 183.18C449.093 183.18 448.283 182.97 447.551 182.55C446.831 182.13 446.261 181.56 445.841 180.84C445.421 180.12 445.211 179.316 445.211 178.428C445.211 177.54 445.421 176.736 445.841 176.016C446.261 175.296 446.831 174.726 447.551 174.306C448.283 173.874 449.093 173.658 449.981 173.658C450.881 173.658 451.691 173.874 452.411 174.306C453.131 174.726 453.701 175.296 454.121 176.016C454.541 176.736 454.751 177.54 454.751 178.428C454.751 179.316 454.541 180.12 454.121 180.84C453.701 181.56 453.131 182.13 452.411 182.55C451.691 182.97 450.881 183.18 449.981 183.18ZM449.981 181.596C450.545 181.596 451.049 181.458 451.493 181.182C451.949 180.894 452.309 180.51 452.573 180.03C452.849 179.55 452.987 179.016 452.987 178.428C452.987 177.828 452.855 177.294 452.591 176.826C452.327 176.346 451.967 175.962 451.511 175.674C451.055 175.386 450.545 175.242 449.981 175.242C449.417 175.242 448.907 175.386 448.451 175.674C447.995 175.962 447.635 176.346 447.371 176.826C447.107 177.294 446.975 177.828 446.975 178.428C446.975 179.016 447.107 179.55 447.371 180.03C447.635 180.51 447.995 180.894 448.451 181.182C448.907 181.458 449.417 181.596 449.981 181.596ZM459.999 183.18C459.291 183.18 458.667 183.03 458.127 182.73C457.587 182.43 457.167 182.01 456.867 181.47C456.567 180.93 456.417 180.3 456.417 179.58V173.838H458.199V179.274C458.199 179.994 458.403 180.564 458.811 180.984C459.231 181.404 459.789 181.614 460.485 181.614C461.469 181.614 462.219 181.212 462.735 180.408V173.838H464.535V183H462.735V182.064C462.027 182.808 461.115 183.18 459.999 183.18ZM472.137 183L469.581 173.838H471.327L473.109 180.57L475.197 173.838H476.745L478.833 180.57L480.615 173.838H482.307L479.733 183H478.005L475.953 176.286L473.883 183H472.137ZM486.368 183.162C485.708 183.162 485.126 183.048 484.622 182.82C484.118 182.58 483.722 182.25 483.434 181.83C483.146 181.41 483.002 180.924 483.002 180.372C483.002 179.508 483.332 178.83 483.992 178.338C484.652 177.834 485.558 177.582 486.71 177.582C487.61 177.582 488.444 177.756 489.212 178.104V177.132C489.212 175.824 488.468 175.17 486.98 175.17C486.56 175.17 486.122 175.236 485.666 175.368C485.21 175.488 484.7 175.68 484.136 175.944L483.47 174.594C484.166 174.27 484.814 174.036 485.414 173.892C486.014 173.736 486.62 173.658 487.232 173.658C488.42 173.658 489.338 173.94 489.986 174.504C490.646 175.068 490.976 175.872 490.976 176.916V183H489.212V182.208C488.804 182.532 488.366 182.772 487.898 182.928C487.43 183.084 486.92 183.162 486.368 183.162ZM484.73 180.336C484.73 180.78 484.916 181.14 485.288 181.416C485.672 181.692 486.17 181.83 486.782 181.83C487.766 181.83 488.576 181.536 489.212 180.948V179.4C488.552 179.016 487.766 178.824 486.854 178.824C486.194 178.824 485.672 178.962 485.288 179.238C484.916 179.502 484.73 179.868 484.73 180.336ZM493.05 183V173.838H494.85V174.774C495.558 174.03 496.476 173.658 497.604 173.658C498.312 173.658 498.93 173.808 499.458 174.108C499.998 174.408 500.418 174.828 500.718 175.368C501.03 175.908 501.186 176.532 501.186 177.24V183H499.386V177.546C499.386 176.826 499.182 176.262 498.774 175.854C498.366 175.434 497.808 175.224 497.1 175.224C496.62 175.224 496.188 175.326 495.804 175.53C495.42 175.734 495.102 176.028 494.85 176.412V183H493.05ZM506.924 183.162C506.036 183.162 505.358 182.958 504.89 182.55C504.422 182.13 504.188 181.524 504.188 180.732V175.35H502.244V173.838H504.188V171.498L505.97 171.066V173.838H508.67V175.35H505.97V180.318C505.97 180.786 506.072 181.122 506.276 181.326C506.492 181.518 506.84 181.614 507.32 181.614C507.572 181.614 507.794 181.596 507.986 181.56C508.19 181.524 508.406 181.47 508.634 181.398V182.91C508.394 182.994 508.112 183.054 507.788 183.09C507.476 183.138 507.188 183.162 506.924 183.162ZM517.681 183.162C516.793 183.162 516.115 182.958 515.647 182.55C515.179 182.13 514.945 181.524 514.945 180.732V175.35H513.001V173.838H514.945V171.498L516.727 171.066V173.838H519.427V175.35H516.727V180.318C516.727 180.786 516.829 181.122 517.033 181.326C517.249 181.518 517.597 181.614 518.077 181.614C518.329 181.614 518.551 181.596 518.743 181.56C518.947 181.524 519.163 181.47 519.391 181.398V182.91C519.151 182.994 518.869 183.054 518.545 183.09C518.233 183.138 517.945 183.162 517.681 183.162ZM524.969 183.18C524.081 183.18 523.271 182.97 522.539 182.55C521.819 182.13 521.249 181.56 520.829 180.84C520.409 180.12 520.199 179.316 520.199 178.428C520.199 177.54 520.409 176.736 520.829 176.016C521.249 175.296 521.819 174.726 522.539 174.306C523.271 173.874 524.081 173.658 524.969 173.658C525.869 173.658 526.679 173.874 527.399 174.306C528.119 174.726 528.689 175.296 529.109 176.016C529.529 176.736 529.739 177.54 529.739 178.428C529.739 179.316 529.529 180.12 529.109 180.84C528.689 181.56 528.119 182.13 527.399 182.55C526.679 182.97 525.869 183.18 524.969 183.18ZM524.969 181.596C525.533 181.596 526.037 181.458 526.481 181.182C526.937 180.894 527.297 180.51 527.561 180.03C527.837 179.55 527.975 179.016 527.975 178.428C527.975 177.828 527.843 177.294 527.579 176.826C527.315 176.346 526.955 175.962 526.499 175.674C526.043 175.386 525.533 175.242 524.969 175.242C524.405 175.242 523.895 175.386 523.439 175.674C522.983 175.962 522.623 176.346 522.359 176.826C522.095 177.294 521.963 177.828 521.963 178.428C521.963 179.016 522.095 179.55 522.359 180.03C522.623 180.51 522.983 180.894 523.439 181.182C523.895 181.458 524.405 181.596 524.969 181.596ZM539.415 183.144C538.563 183.144 537.783 182.934 537.075 182.514C536.367 182.094 535.809 181.53 535.401 180.822C534.993 180.102 534.789 179.298 534.789 178.41C534.789 177.522 534.993 176.724 535.401 176.016C535.821 175.308 536.385 174.744 537.093 174.324C537.801 173.904 538.587 173.694 539.451 173.694C540.483 173.694 541.401 174 542.205 174.612V170.4L544.005 170.058V183H542.223V182.118C541.443 182.802 540.507 183.144 539.415 183.144ZM539.649 181.578C540.177 181.578 540.657 181.482 541.089 181.29C541.533 181.098 541.905 180.822 542.205 180.462V176.34C541.905 176.004 541.533 175.74 541.089 175.548C540.645 175.344 540.165 175.242 539.649 175.242C539.073 175.242 538.551 175.38 538.083 175.656C537.615 175.932 537.243 176.31 536.967 176.79C536.691 177.258 536.553 177.792 536.553 178.392C536.553 178.992 536.691 179.532 536.967 180.012C537.243 180.492 537.615 180.876 538.083 181.164C538.551 181.44 539.073 181.578 539.649 181.578ZM550.492 183.18C549.604 183.18 548.794 182.97 548.062 182.55C547.342 182.13 546.772 181.56 546.352 180.84C545.932 180.12 545.722 179.316 545.722 178.428C545.722 177.54 545.932 176.736 546.352 176.016C546.772 175.296 547.342 174.726 548.062 174.306C548.794 173.874 549.604 173.658 550.492 173.658C551.392 173.658 552.202 173.874 552.922 174.306C553.642 174.726 554.212 175.296 554.632 176.016C555.052 176.736 555.262 177.54 555.262 178.428C555.262 179.316 555.052 180.12 554.632 180.84C554.212 181.56 553.642 182.13 552.922 182.55C552.202 182.97 551.392 183.18 550.492 183.18ZM550.492 181.596C551.056 181.596 551.56 181.458 552.004 181.182C552.46 180.894 552.82 180.51 553.084 180.03C553.36 179.55 553.498 179.016 553.498 178.428C553.498 177.828 553.366 177.294 553.102 176.826C552.838 176.346 552.478 175.962 552.022 175.674C551.566 175.386 551.056 175.242 550.492 175.242C549.928 175.242 549.418 175.386 548.962 175.674C548.506 175.962 548.146 176.346 547.882 176.826C547.618 177.294 547.486 177.828 547.486 178.428C547.486 179.016 547.618 179.55 547.882 180.03C548.146 180.51 548.506 180.894 548.962 181.182C549.418 181.458 549.928 181.596 550.492 181.596ZM558.177 179.31C558.153 178.758 558.183 178.284 558.267 177.888C558.351 177.492 558.501 177.138 558.717 176.826C558.945 176.514 559.245 176.22 559.617 175.944L560.463 175.35C560.931 175.014 561.261 174.708 561.453 174.432C561.645 174.144 561.741 173.826 561.741 173.478C561.741 173.142 561.633 172.848 561.417 172.596C561.213 172.344 560.937 172.14 560.589 171.984C560.241 171.828 559.845 171.75 559.401 171.75C558.837 171.75 558.309 171.888 557.817 172.164C557.325 172.44 556.905 172.83 556.557 173.334L555.135 172.596C555.447 172.092 555.825 171.66 556.269 171.3C556.725 170.94 557.223 170.67 557.763 170.49C558.303 170.298 558.879 170.202 559.491 170.202C560.259 170.202 560.943 170.346 561.543 170.634C562.143 170.91 562.617 171.288 562.965 171.768C563.325 172.248 563.505 172.8 563.505 173.424C563.505 173.832 563.439 174.204 563.307 174.54C563.175 174.876 562.953 175.206 562.641 175.53C562.329 175.842 561.897 176.19 561.345 176.574L560.787 176.97C560.367 177.246 560.073 177.57 559.905 177.942C559.737 178.302 559.671 178.758 559.707 179.31H558.177ZM558.951 183.126C558.639 183.126 558.369 183.018 558.141 182.802C557.925 182.574 557.817 182.304 557.817 181.992C557.817 181.68 557.925 181.416 558.141 181.2C558.369 180.972 558.639 180.858 558.951 180.858C559.263 180.858 559.527 180.972 559.743 181.2C559.971 181.416 560.085 181.68 560.085 181.992C560.085 182.304 559.971 182.574 559.743 182.802C559.527 183.018 559.263 183.126 558.951 183.126Z" fill="#151515"/>
<circle cx="371" cy="223.5" r="7.5" fill="white" stroke="#0066CC"/>
<circle cx="371" cy="223.5" r="5" fill="#0066CC"/>
<path d="M392.768 228.154C392.068 228.154 391.415 228.028 390.808 227.776C390.211 227.515 389.683 227.155 389.226 226.698C388.769 226.231 388.414 225.695 388.162 225.088C387.91 224.472 387.784 223.809 387.784 223.1C387.784 222.391 387.91 221.733 388.162 221.126C388.414 220.51 388.769 219.973 389.226 219.516C389.683 219.049 390.211 218.69 390.808 218.438C391.415 218.177 392.068 218.046 392.768 218.046C393.253 218.046 393.715 218.111 394.154 218.242C394.602 218.363 395.022 218.545 395.414 218.788C395.806 219.021 396.156 219.311 396.464 219.656L395.75 220.398C395.386 219.959 394.938 219.623 394.406 219.39C393.883 219.147 393.337 219.026 392.768 219.026C392.217 219.026 391.704 219.129 391.228 219.334C390.752 219.539 390.337 219.829 389.982 220.202C389.637 220.575 389.366 221.009 389.17 221.504C388.974 221.989 388.876 222.521 388.876 223.1C388.876 223.669 388.974 224.201 389.17 224.696C389.366 225.191 389.637 225.625 389.982 225.998C390.337 226.371 390.752 226.661 391.228 226.866C391.704 227.071 392.217 227.174 392.768 227.174C393.337 227.174 393.883 227.053 394.406 226.81C394.938 226.567 395.386 226.231 395.75 225.802L396.464 226.544C396.156 226.889 395.806 227.183 395.414 227.426C395.022 227.659 394.602 227.841 394.154 227.972C393.715 228.093 393.253 228.154 392.768 228.154ZM398.208 228V221.168H399.23V222.568C399.408 222.092 399.66 221.723 399.986 221.462C400.322 221.191 400.705 221.056 401.134 221.056C401.256 221.056 401.368 221.065 401.47 221.084C401.573 221.093 401.676 221.117 401.778 221.154V222.078C401.666 222.041 401.545 222.013 401.414 221.994C401.293 221.966 401.176 221.952 401.064 221.952C400.644 221.952 400.276 222.073 399.958 222.316C399.65 222.559 399.408 222.899 399.23 223.338V228H398.208ZM405.786 228.14C405.152 228.14 404.578 227.986 404.064 227.678C403.551 227.361 403.145 226.936 402.846 226.404C402.548 225.863 402.398 225.256 402.398 224.584C402.398 223.912 402.538 223.31 402.818 222.778C403.108 222.246 403.495 221.826 403.98 221.518C404.466 221.21 405.007 221.056 405.604 221.056C406.211 221.056 406.748 221.21 407.214 221.518C407.69 221.817 408.064 222.227 408.334 222.75C408.614 223.263 408.754 223.847 408.754 224.5V224.808H403.392C403.43 225.275 403.556 225.695 403.77 226.068C403.994 226.432 404.284 226.721 404.638 226.936C405.002 227.141 405.399 227.244 405.828 227.244C406.183 227.244 406.524 227.183 406.85 227.062C407.186 226.931 407.471 226.759 407.704 226.544L408.348 227.23C407.956 227.538 407.55 227.767 407.13 227.916C406.71 228.065 406.262 228.14 405.786 228.14ZM403.42 224.08H407.746C407.7 223.669 407.574 223.305 407.368 222.988C407.172 222.661 406.92 222.405 406.612 222.218C406.314 222.031 405.978 221.938 405.604 221.938C405.231 221.938 404.89 222.031 404.582 222.218C404.274 222.395 404.018 222.647 403.812 222.974C403.616 223.291 403.486 223.66 403.42 224.08ZM412.477 228.126C411.991 228.126 411.562 228.037 411.189 227.86C410.815 227.683 410.521 227.44 410.307 227.132C410.101 226.815 409.999 226.451 409.999 226.04C409.999 225.629 410.106 225.275 410.321 224.976C410.535 224.668 410.834 224.43 411.217 224.262C411.599 224.094 412.047 224.01 412.561 224.01C412.953 224.01 413.321 224.052 413.667 224.136C414.021 224.22 414.348 224.355 414.647 224.542V223.604C414.647 223.044 414.497 222.624 414.199 222.344C413.9 222.055 413.461 221.91 412.883 221.91C412.565 221.91 412.239 221.957 411.903 222.05C411.576 222.143 411.212 222.293 410.811 222.498L410.433 221.714C411.347 221.275 412.206 221.056 413.008 221.056C413.858 221.056 414.511 221.266 414.969 221.686C415.426 222.097 415.655 222.689 415.655 223.464V228H414.647V227.202C414.348 227.51 414.017 227.743 413.653 227.902C413.289 228.051 412.897 228.126 412.477 228.126ZM410.979 226.012C410.979 226.413 411.133 226.735 411.441 226.978C411.758 227.221 412.173 227.342 412.687 227.342C413.069 227.342 413.419 227.277 413.737 227.146C414.063 227.015 414.367 226.819 414.647 226.558V225.242C414.357 225.074 414.059 224.953 413.751 224.878C413.443 224.794 413.097 224.752 412.715 224.752C412.192 224.752 411.772 224.869 411.455 225.102C411.137 225.326 410.979 225.629 410.979 226.012ZM420.131 228.14C419.543 228.14 419.095 228 418.787 227.72C418.488 227.431 418.339 227.015 418.339 226.474V222.008H416.925V221.168H418.339V219.292L419.361 219.054V221.168H421.321V222.008H419.361V226.208C419.361 226.572 419.435 226.833 419.585 226.992C419.743 227.151 420 227.23 420.355 227.23C420.532 227.23 420.691 227.216 420.831 227.188C420.971 227.16 421.134 227.113 421.321 227.048V227.958C421.134 228.023 420.938 228.07 420.733 228.098C420.527 228.126 420.327 228.14 420.131 228.14ZM425.761 228.14C425.126 228.14 424.552 227.986 424.039 227.678C423.526 227.361 423.12 226.936 422.821 226.404C422.522 225.863 422.373 225.256 422.373 224.584C422.373 223.912 422.513 223.31 422.793 222.778C423.082 222.246 423.47 221.826 423.955 221.518C424.44 221.21 424.982 221.056 425.579 221.056C426.186 221.056 426.722 221.21 427.189 221.518C427.665 221.817 428.038 222.227 428.309 222.75C428.589 223.263 428.729 223.847 428.729 224.5V224.808H423.367C423.404 225.275 423.53 225.695 423.745 226.068C423.969 226.432 424.258 226.721 424.613 226.936C424.977 227.141 425.374 227.244 425.803 227.244C426.158 227.244 426.498 227.183 426.825 227.062C427.161 226.931 427.446 226.759 427.679 226.544L428.323 227.23C427.931 227.538 427.525 227.767 427.105 227.916C426.685 228.065 426.237 228.14 425.761 228.14ZM423.395 224.08H427.721C427.674 223.669 427.548 223.305 427.343 222.988C427.147 222.661 426.895 222.405 426.587 222.218C426.288 222.031 425.952 221.938 425.579 221.938C425.206 221.938 424.865 222.031 424.557 222.218C424.249 222.395 423.992 222.647 423.787 222.974C423.591 223.291 423.46 223.66 423.395 224.08ZM435.855 228.126C435.37 228.126 434.941 228.037 434.567 227.86C434.194 227.683 433.9 227.44 433.685 227.132C433.48 226.815 433.377 226.451 433.377 226.04C433.377 225.629 433.485 225.275 433.699 224.976C433.914 224.668 434.213 224.43 434.595 224.262C434.978 224.094 435.426 224.01 435.939 224.01C436.331 224.01 436.7 224.052 437.045 224.136C437.4 224.22 437.727 224.355 438.025 224.542V223.604C438.025 223.044 437.876 222.624 437.577 222.344C437.279 222.055 436.84 221.91 436.261 221.91C435.944 221.91 435.617 221.957 435.281 222.05C434.955 222.143 434.591 222.293 434.189 222.498L433.811 221.714C434.726 221.275 435.585 221.056 436.387 221.056C437.237 221.056 437.89 221.266 438.347 221.686C438.805 222.097 439.033 222.689 439.033 223.464V228H438.025V227.202C437.727 227.51 437.395 227.743 437.031 227.902C436.667 228.051 436.275 228.126 435.855 228.126ZM434.357 226.012C434.357 226.413 434.511 226.735 434.819 226.978C435.137 227.221 435.552 227.342 436.065 227.342C436.448 227.342 436.798 227.277 437.115 227.146C437.442 227.015 437.745 226.819 438.025 226.558V225.242C437.736 225.074 437.437 224.953 437.129 224.878C436.821 224.794 436.476 224.752 436.093 224.752C435.571 224.752 435.151 224.869 434.833 225.102C434.516 225.326 434.357 225.629 434.357 226.012ZM444.378 228V221.168H445.4V222.274C445.661 221.863 445.974 221.56 446.338 221.364C446.702 221.159 447.113 221.056 447.57 221.056C448.065 221.056 448.494 221.163 448.858 221.378C449.231 221.583 449.521 221.877 449.726 222.26C449.941 222.633 450.048 223.072 450.048 223.576V228H449.026V223.87C449.026 223.263 448.858 222.787 448.522 222.442C448.195 222.087 447.752 221.91 447.192 221.91C446.819 221.91 446.478 221.999 446.17 222.176C445.862 222.353 445.605 222.615 445.4 222.96V228H444.378ZM455.183 228.14C454.548 228.14 453.974 227.986 453.461 227.678C452.947 227.361 452.541 226.936 452.243 226.404C451.944 225.863 451.795 225.256 451.795 224.584C451.795 223.912 451.935 223.31 452.215 222.778C452.504 222.246 452.891 221.826 453.377 221.518C453.862 221.21 454.403 221.056 455.001 221.056C455.607 221.056 456.144 221.21 456.611 221.518C457.087 221.817 457.46 222.227 457.731 222.75C458.011 223.263 458.151 223.847 458.151 224.5V224.808H452.789C452.826 225.275 452.952 225.695 453.167 226.068C453.391 226.432 453.68 226.721 454.035 226.936C454.399 227.141 454.795 227.244 455.225 227.244C455.579 227.244 455.92 227.183 456.247 227.062C456.583 226.931 456.867 226.759 457.101 226.544L457.745 227.23C457.353 227.538 456.947 227.767 456.527 227.916C456.107 228.065 455.659 228.14 455.183 228.14ZM452.817 224.08H457.143C457.096 223.669 456.97 223.305 456.765 222.988C456.569 222.661 456.317 222.405 456.009 222.218C455.71 222.031 455.374 221.938 455.001 221.938C454.627 221.938 454.287 222.031 453.979 222.218C453.671 222.395 453.414 222.647 453.209 222.974C453.013 223.291 452.882 223.66 452.817 224.08ZM460.977 228L459.101 221.168H460.095L461.523 226.628L463.161 221.168H464.071L465.709 226.628L467.123 221.168H468.089L466.227 228H465.233L463.609 222.484L461.985 228H460.977ZM475.406 228.14C474.818 228.14 474.37 228 474.062 227.72C473.763 227.431 473.614 227.015 473.614 226.474V222.008H472.2V221.168H473.614V219.292L474.636 219.054V221.168H476.596V222.008H474.636V226.208C474.636 226.572 474.711 226.833 474.86 226.992C475.019 227.151 475.275 227.23 475.63 227.23C475.807 227.23 475.966 227.216 476.106 227.188C476.246 227.16 476.409 227.113 476.596 227.048V227.958C476.409 228.023 476.213 228.07 476.008 228.098C475.803 228.126 475.602 228.14 475.406 228.14ZM478.093 228V217.892L479.115 217.682V222.274C479.376 221.863 479.689 221.56 480.053 221.364C480.417 221.159 480.828 221.056 481.285 221.056C481.78 221.056 482.209 221.163 482.573 221.378C482.946 221.583 483.236 221.877 483.441 222.26C483.656 222.633 483.763 223.072 483.763 223.576V228H482.741V223.87C482.741 223.263 482.573 222.787 482.237 222.442C481.91 222.087 481.467 221.91 480.907 221.91C480.534 221.91 480.193 221.999 479.885 222.176C479.577 222.353 479.32 222.615 479.115 222.96V228H478.093ZM485.804 228V221.168H486.826V228H485.804ZM486.322 219.474C486.116 219.474 485.939 219.404 485.79 219.264C485.65 219.115 485.58 218.942 485.58 218.746C485.58 218.55 485.65 218.382 485.79 218.242C485.939 218.093 486.116 218.018 486.322 218.018C486.527 218.018 486.7 218.093 486.84 218.242C486.989 218.382 487.064 218.55 487.064 218.746C487.064 218.942 486.989 219.115 486.84 219.264C486.7 219.404 486.527 219.474 486.322 219.474ZM488.921 228V221.168H489.943V222.274C490.204 221.863 490.517 221.56 490.881 221.364C491.245 221.159 491.656 221.056 492.113 221.056C492.608 221.056 493.037 221.163 493.401 221.378C493.774 221.583 494.064 221.877 494.269 222.26C494.484 222.633 494.591 223.072 494.591 223.576V228H493.569V223.87C493.569 223.263 493.401 222.787 493.065 222.442C492.738 222.087 492.295 221.91 491.735 221.91C491.362 221.91 491.021 221.999 490.713 222.176C490.405 222.353 490.148 222.615 489.943 222.96V228H488.921ZM499.81 231.066C499.352 231.066 498.89 231.001 498.424 230.87C497.966 230.749 497.542 230.576 497.15 230.352L497.584 229.568C498.004 229.783 498.386 229.941 498.732 230.044C499.077 230.147 499.422 230.198 499.768 230.198C500.393 230.198 500.864 230.049 501.182 229.75C501.508 229.451 501.672 229.017 501.672 228.448V227.076C501.41 227.403 501.093 227.655 500.72 227.832C500.346 228 499.936 228.084 499.488 228.084C498.9 228.084 498.368 227.93 497.892 227.622C497.416 227.305 497.038 226.885 496.758 226.362C496.478 225.83 496.338 225.237 496.338 224.584C496.338 223.931 496.478 223.343 496.758 222.82C497.047 222.288 497.434 221.868 497.92 221.56C498.405 221.243 498.946 221.084 499.544 221.084C499.973 221.084 500.37 221.168 500.734 221.336C501.098 221.495 501.415 221.733 501.686 222.05V221.168H502.694V228.434C502.694 229.283 502.446 229.932 501.952 230.38C501.457 230.837 500.743 231.066 499.81 231.066ZM499.74 227.202C500.141 227.202 500.51 227.123 500.846 226.964C501.182 226.796 501.457 226.567 501.672 226.278V222.904C501.448 222.615 501.163 222.391 500.818 222.232C500.482 222.064 500.122 221.98 499.74 221.98C499.282 221.98 498.872 222.092 498.508 222.316C498.153 222.54 497.868 222.848 497.654 223.24C497.448 223.632 497.346 224.08 497.346 224.584C497.346 225.079 497.448 225.527 497.654 225.928C497.868 226.32 498.153 226.633 498.508 226.866C498.872 227.09 499.282 227.202 499.74 227.202Z" fill="#151515"/>
<circle cx="371" cy="268.5" r="7.5" fill="white" stroke="#C7C7C7"/>
<path d="M391.984 273.154C391.181 273.154 390.481 272.981 389.884 272.636C389.296 272.281 388.843 271.782 388.526 271.138C388.209 270.494 388.05 269.733 388.05 268.856V263.2H389.128V268.856C389.128 269.528 389.245 270.111 389.478 270.606C389.711 271.101 390.043 271.488 390.472 271.768C390.901 272.039 391.405 272.174 391.984 272.174C392.563 272.174 393.067 272.039 393.496 271.768C393.925 271.488 394.257 271.101 394.49 270.606C394.723 270.111 394.84 269.528 394.84 268.856V263.2H395.918V268.856C395.918 269.733 395.759 270.494 395.442 271.138C395.125 271.782 394.672 272.281 394.084 272.636C393.496 272.981 392.796 273.154 391.984 273.154ZM398.017 275.926V266.168H399.025V267.148C399.286 266.803 399.603 266.541 399.977 266.364C400.359 266.177 400.779 266.084 401.237 266.084C401.834 266.084 402.366 266.243 402.833 266.56C403.309 266.868 403.687 267.288 403.967 267.82C404.247 268.343 404.387 268.931 404.387 269.584C404.387 270.237 404.242 270.83 403.953 271.362C403.673 271.894 403.29 272.319 402.805 272.636C402.329 272.944 401.787 273.098 401.181 273.098C400.751 273.098 400.355 273.019 399.991 272.86C399.627 272.692 399.309 272.454 399.039 272.146V275.926H398.017ZM400.985 272.216C401.442 272.216 401.848 272.104 402.203 271.88C402.567 271.647 402.851 271.334 403.057 270.942C403.271 270.541 403.379 270.093 403.379 269.598C403.379 269.094 403.271 268.646 403.057 268.254C402.851 267.862 402.567 267.554 402.203 267.33C401.848 267.097 401.442 266.98 400.985 266.98C400.583 266.98 400.21 267.064 399.865 267.232C399.529 267.391 399.253 267.619 399.039 267.918V271.264C399.263 271.563 399.543 271.796 399.879 271.964C400.224 272.132 400.593 272.216 400.985 272.216ZM409.021 273.098C408.433 273.098 407.901 272.944 407.425 272.636C406.949 272.319 406.571 271.899 406.291 271.376C406.011 270.844 405.871 270.251 405.871 269.598C405.871 268.935 406.011 268.343 406.291 267.82C406.58 267.288 406.968 266.868 407.453 266.56C407.938 266.243 408.48 266.084 409.077 266.084C409.497 266.084 409.889 266.168 410.253 266.336C410.617 266.495 410.934 266.728 411.205 267.036V262.892L412.227 262.682V273H411.205V272.09C410.944 272.417 410.626 272.669 410.253 272.846C409.88 273.014 409.469 273.098 409.021 273.098ZM409.273 272.202C409.674 272.202 410.043 272.123 410.379 271.964C410.715 271.805 410.99 271.581 411.205 271.292V267.904C410.981 267.615 410.696 267.391 410.351 267.232C410.015 267.064 409.656 266.98 409.273 266.98C408.816 266.98 408.405 267.092 408.041 267.316C407.686 267.54 407.402 267.848 407.187 268.24C406.982 268.632 406.879 269.08 406.879 269.584C406.879 270.079 406.982 270.527 407.187 270.928C407.402 271.32 407.686 271.633 408.041 271.866C408.405 272.09 408.816 272.202 409.273 272.202ZM416.441 273.126C415.956 273.126 415.527 273.037 415.153 272.86C414.78 272.683 414.486 272.44 414.271 272.132C414.066 271.815 413.963 271.451 413.963 271.04C413.963 270.629 414.071 270.275 414.285 269.976C414.5 269.668 414.799 269.43 415.181 269.262C415.564 269.094 416.012 269.01 416.525 269.01C416.917 269.01 417.286 269.052 417.631 269.136C417.986 269.22 418.313 269.355 418.611 269.542V268.604C418.611 268.044 418.462 267.624 418.163 267.344C417.865 267.055 417.426 266.91 416.847 266.91C416.53 266.91 416.203 266.957 415.867 267.05C415.541 267.143 415.177 267.293 414.775 267.498L414.397 266.714C415.312 266.275 416.171 266.056 416.973 266.056C417.823 266.056 418.476 266.266 418.933 266.686C419.391 267.097 419.619 267.689 419.619 268.464V273H418.611V272.202C418.313 272.51 417.981 272.743 417.617 272.902C417.253 273.051 416.861 273.126 416.441 273.126ZM414.943 271.012C414.943 271.413 415.097 271.735 415.405 271.978C415.723 272.221 416.138 272.342 416.651 272.342C417.034 272.342 417.384 272.277 417.701 272.146C418.028 272.015 418.331 271.819 418.611 271.558V270.242C418.322 270.074 418.023 269.953 417.715 269.878C417.407 269.794 417.062 269.752 416.679 269.752C416.157 269.752 415.737 269.869 415.419 270.102C415.102 270.326 414.943 270.629 414.943 271.012ZM424.095 273.14C423.507 273.14 423.059 273 422.751 272.72C422.453 272.431 422.303 272.015 422.303 271.474V267.008H420.889V266.168H422.303V264.292L423.325 264.054V266.168H425.285V267.008H423.325V271.208C423.325 271.572 423.4 271.833 423.549 271.992C423.708 272.151 423.965 272.23 424.319 272.23C424.497 272.23 424.655 272.216 424.795 272.188C424.935 272.16 425.099 272.113 425.285 272.048V272.958C425.099 273.023 424.903 273.07 424.697 273.098C424.492 273.126 424.291 273.14 424.095 273.14ZM429.726 273.14C429.091 273.14 428.517 272.986 428.004 272.678C427.49 272.361 427.084 271.936 426.786 271.404C426.487 270.863 426.338 270.256 426.338 269.584C426.338 268.912 426.478 268.31 426.758 267.778C427.047 267.246 427.434 266.826 427.92 266.518C428.405 266.21 428.946 266.056 429.544 266.056C430.15 266.056 430.687 266.21 431.154 266.518C431.63 266.817 432.003 267.227 432.274 267.75C432.554 268.263 432.694 268.847 432.694 269.5V269.808H427.332C427.369 270.275 427.495 270.695 427.71 271.068C427.934 271.432 428.223 271.721 428.578 271.936C428.942 272.141 429.338 272.244 429.768 272.244C430.122 272.244 430.463 272.183 430.79 272.062C431.126 271.931 431.41 271.759 431.644 271.544L432.288 272.23C431.896 272.538 431.49 272.767 431.07 272.916C430.65 273.065 430.202 273.14 429.726 273.14ZM427.36 269.08H431.686C431.639 268.669 431.513 268.305 431.308 267.988C431.112 267.661 430.86 267.405 430.552 267.218C430.253 267.031 429.917 266.938 429.544 266.938C429.17 266.938 428.83 267.031 428.522 267.218C428.214 267.395 427.957 267.647 427.752 267.974C427.556 268.291 427.425 268.66 427.36 269.08ZM439.82 273.126C439.335 273.126 438.906 273.037 438.532 272.86C438.159 272.683 437.865 272.44 437.65 272.132C437.445 271.815 437.342 271.451 437.342 271.04C437.342 270.629 437.45 270.275 437.664 269.976C437.879 269.668 438.178 269.43 438.56 269.262C438.943 269.094 439.391 269.01 439.904 269.01C440.296 269.01 440.665 269.052 441.01 269.136C441.365 269.22 441.692 269.355 441.99 269.542V268.604C441.99 268.044 441.841 267.624 441.542 267.344C441.244 267.055 440.805 266.91 440.226 266.91C439.909 266.91 439.582 266.957 439.246 267.05C438.92 267.143 438.556 267.293 438.154 267.498L437.776 266.714C438.691 266.275 439.55 266.056 440.352 266.056C441.202 266.056 441.855 266.266 442.312 266.686C442.77 267.097 442.998 267.689 442.998 268.464V273H441.99V272.202C441.692 272.51 441.36 272.743 440.996 272.902C440.632 273.051 440.24 273.126 439.82 273.126ZM438.322 271.012C438.322 271.413 438.476 271.735 438.784 271.978C439.102 272.221 439.517 272.342 440.03 272.342C440.413 272.342 440.763 272.277 441.08 272.146C441.407 272.015 441.71 271.819 441.99 271.558V270.242C441.701 270.074 441.402 269.953 441.094 269.878C440.786 269.794 440.441 269.752 440.058 269.752C439.536 269.752 439.116 269.869 438.798 270.102C438.481 270.326 438.322 270.629 438.322 271.012ZM445.075 273V266.168H446.097V267.274C446.359 266.863 446.671 266.56 447.035 266.364C447.399 266.159 447.81 266.056 448.267 266.056C448.762 266.056 449.191 266.163 449.555 266.378C449.929 266.583 450.218 266.877 450.423 267.26C450.638 267.633 450.745 268.072 450.745 268.576V273H449.723V268.87C449.723 268.263 449.555 267.787 449.219 267.442C448.893 267.087 448.449 266.91 447.889 266.91C447.516 266.91 447.175 266.999 446.867 267.176C446.559 267.353 446.303 267.615 446.097 267.96V273H445.075ZM459.148 273.14C458.513 273.14 457.939 272.986 457.426 272.678C456.912 272.361 456.506 271.936 456.208 271.404C455.909 270.863 455.76 270.256 455.76 269.584C455.76 268.912 455.9 268.31 456.18 267.778C456.469 267.246 456.856 266.826 457.342 266.518C457.827 266.21 458.368 266.056 458.966 266.056C459.572 266.056 460.109 266.21 460.576 266.518C461.052 266.817 461.425 267.227 461.696 267.75C461.976 268.263 462.116 268.847 462.116 269.5V269.808H456.754C456.791 270.275 456.917 270.695 457.132 271.068C457.356 271.432 457.645 271.721 458 271.936C458.364 272.141 458.76 272.244 459.19 272.244C459.544 272.244 459.885 272.183 460.212 272.062C460.548 271.931 460.832 271.759 461.066 271.544L461.71 272.23C461.318 272.538 460.912 272.767 460.492 272.916C460.072 273.065 459.624 273.14 459.148 273.14ZM456.782 269.08H461.108C461.061 268.669 460.935 268.305 460.73 267.988C460.534 267.661 460.282 267.405 459.974 267.218C459.675 267.031 459.339 266.938 458.966 266.938C458.592 266.938 458.252 267.031 457.944 267.218C457.636 267.395 457.379 267.647 457.174 267.974C456.978 268.291 456.847 268.66 456.782 269.08ZM462.569 273L465.187 269.458L462.723 266.168H463.941L465.831 268.772L467.707 266.168H468.869L466.391 269.486L469.023 273H467.805L465.761 270.214L463.731 273H462.569ZM470.245 273V266.168H471.267V273H470.245ZM470.763 264.474C470.558 264.474 470.38 264.404 470.231 264.264C470.091 264.115 470.021 263.942 470.021 263.746C470.021 263.55 470.091 263.382 470.231 263.242C470.38 263.093 470.558 263.018 470.763 263.018C470.968 263.018 471.141 263.093 471.281 263.242C471.43 263.382 471.505 263.55 471.505 263.746C471.505 263.942 471.43 264.115 471.281 264.264C471.141 264.404 470.968 264.474 470.763 264.474ZM475.477 273.14C474.917 273.14 474.399 273.056 473.923 272.888C473.447 272.711 473.041 272.459 472.705 272.132L473.251 271.46C473.661 271.759 474.039 271.978 474.385 272.118C474.73 272.249 475.085 272.314 475.449 272.314C475.943 272.314 476.354 272.197 476.681 271.964C477.007 271.731 477.171 271.432 477.171 271.068C477.171 270.788 477.073 270.569 476.877 270.41C476.69 270.251 476.377 270.13 475.939 270.046L474.819 269.85C474.156 269.729 473.666 269.523 473.349 269.234C473.041 268.945 472.887 268.553 472.887 268.058C472.887 267.666 472.989 267.321 473.195 267.022C473.409 266.723 473.703 266.49 474.077 266.322C474.45 266.145 474.875 266.056 475.351 266.056C475.817 266.056 476.261 266.126 476.681 266.266C477.101 266.397 477.525 266.611 477.955 266.91L477.451 267.624C477.096 267.372 476.741 267.19 476.387 267.078C476.032 266.957 475.673 266.896 475.309 266.896C474.861 266.896 474.501 266.994 474.231 267.19C473.96 267.386 473.825 267.652 473.825 267.988C473.825 268.268 473.909 268.483 474.077 268.632C474.254 268.781 474.562 268.893 475.001 268.968L476.149 269.178C476.839 269.299 477.343 269.509 477.661 269.808C477.978 270.107 478.137 270.508 478.137 271.012C478.137 271.413 478.02 271.777 477.787 272.104C477.553 272.421 477.236 272.673 476.835 272.86C476.433 273.047 475.981 273.14 475.477 273.14ZM482.16 273.14C481.572 273.14 481.124 273 480.816 272.72C480.517 272.431 480.368 272.015 480.368 271.474V267.008H478.954V266.168H480.368V264.292L481.39 264.054V266.168H483.35V267.008H481.39V271.208C481.39 271.572 481.465 271.833 481.614 271.992C481.773 272.151 482.029 272.23 482.384 272.23C482.561 272.23 482.72 272.216 482.86 272.188C483 272.16 483.163 272.113 483.35 272.048V272.958C483.163 273.023 482.967 273.07 482.762 273.098C482.557 273.126 482.356 273.14 482.16 273.14ZM484.833 273V266.168H485.855V273H484.833ZM485.351 264.474C485.146 264.474 484.968 264.404 484.819 264.264C484.679 264.115 484.609 263.942 484.609 263.746C484.609 263.55 484.679 263.382 484.819 263.242C484.968 263.093 485.146 263.018 485.351 263.018C485.556 263.018 485.729 263.093 485.869 263.242C486.018 263.382 486.093 263.55 486.093 263.746C486.093 263.942 486.018 264.115 485.869 264.264C485.729 264.404 485.556 264.474 485.351 264.474ZM487.95 273V266.168H488.972V267.274C489.234 266.863 489.546 266.56 489.91 266.364C490.274 266.159 490.685 266.056 491.142 266.056C491.637 266.056 492.066 266.163 492.43 266.378C492.804 266.583 493.093 266.877 493.298 267.26C493.513 267.633 493.62 268.072 493.62 268.576V273H492.598V268.87C492.598 268.263 492.43 267.787 492.094 267.442C491.768 267.087 491.324 266.91 490.764 266.91C490.391 266.91 490.05 266.999 489.742 267.176C489.434 267.353 489.178 267.615 488.972 267.96V273H487.95ZM498.839 276.066C498.382 276.066 497.92 276.001 497.453 275.87C496.996 275.749 496.571 275.576 496.179 275.352L496.613 274.568C497.033 274.783 497.416 274.941 497.761 275.044C498.106 275.147 498.452 275.198 498.797 275.198C499.422 275.198 499.894 275.049 500.211 274.75C500.538 274.451 500.701 274.017 500.701 273.448V272.076C500.44 272.403 500.122 272.655 499.749 272.832C499.376 273 498.965 273.084 498.517 273.084C497.929 273.084 497.397 272.93 496.921 272.622C496.445 272.305 496.067 271.885 495.787 271.362C495.507 270.83 495.367 270.237 495.367 269.584C495.367 268.931 495.507 268.343 495.787 267.82C496.076 267.288 496.464 266.868 496.949 266.56C497.434 266.243 497.976 266.084 498.573 266.084C499.002 266.084 499.399 266.168 499.763 266.336C500.127 266.495 500.444 266.733 500.715 267.05V266.168H501.723V273.434C501.723 274.283 501.476 274.932 500.981 275.38C500.486 275.837 499.772 276.066 498.839 276.066ZM498.769 272.202C499.17 272.202 499.539 272.123 499.875 271.964C500.211 271.796 500.486 271.567 500.701 271.278V267.904C500.477 267.615 500.192 267.391 499.847 267.232C499.511 267.064 499.152 266.98 498.769 266.98C498.312 266.98 497.901 267.092 497.537 267.316C497.182 267.54 496.898 267.848 496.683 268.24C496.478 268.632 496.375 269.08 496.375 269.584C496.375 270.079 496.478 270.527 496.683 270.928C496.898 271.32 497.182 271.633 497.537 271.866C497.901 272.09 498.312 272.202 498.769 272.202ZM509.695 273.14C509.107 273.14 508.659 273 508.351 272.72C508.052 272.431 507.903 272.015 507.903 271.474V267.008H506.489V266.168H507.903V264.292L508.925 264.054V266.168H510.885V267.008H508.925V271.208C508.925 271.572 509 271.833 509.149 271.992C509.308 272.151 509.564 272.23 509.919 272.23C510.096 272.23 510.255 272.216 510.395 272.188C510.535 272.16 510.698 272.113 510.885 272.048V272.958C510.698 273.023 510.502 273.07 510.297 273.098C510.092 273.126 509.891 273.14 509.695 273.14ZM512.382 273V262.892L513.404 262.682V267.274C513.665 266.863 513.978 266.56 514.342 266.364C514.706 266.159 515.117 266.056 515.574 266.056C516.069 266.056 516.498 266.163 516.862 266.378C517.235 266.583 517.525 266.877 517.73 267.26C517.945 267.633 518.052 268.072 518.052 268.576V273H517.03V268.87C517.03 268.263 516.862 267.787 516.526 267.442C516.199 267.087 515.756 266.91 515.196 266.91C514.823 266.91 514.482 266.999 514.174 267.176C513.866 267.353 513.609 267.615 513.404 267.96V273H512.382ZM520.093 273V266.168H521.115V273H520.093ZM520.611 264.474C520.405 264.474 520.228 264.404 520.079 264.264C519.939 264.115 519.869 263.942 519.869 263.746C519.869 263.55 519.939 263.382 520.079 263.242C520.228 263.093 520.405 263.018 520.611 263.018C520.816 263.018 520.989 263.093 521.129 263.242C521.278 263.382 521.353 263.55 521.353 263.746C521.353 263.942 521.278 264.115 521.129 264.264C520.989 264.404 520.816 264.474 520.611 264.474ZM523.21 273V266.168H524.232V267.274C524.493 266.863 524.806 266.56 525.17 266.364C525.534 266.159 525.945 266.056 526.402 266.056C526.897 266.056 527.326 266.163 527.69 266.378C528.063 266.583 528.353 266.877 528.558 267.26C528.773 267.633 528.88 268.072 528.88 268.576V273H527.858V268.87C527.858 268.263 527.69 267.787 527.354 267.442C527.027 267.087 526.584 266.91 526.024 266.91C525.651 266.91 525.31 266.999 525.002 267.176C524.694 267.353 524.437 267.615 524.232 267.96V273H523.21ZM534.099 276.066C533.641 276.066 533.179 276.001 532.713 275.87C532.255 275.749 531.831 275.576 531.439 275.352L531.873 274.568C532.293 274.783 532.675 274.941 533.021 275.044C533.366 275.147 533.711 275.198 534.057 275.198C534.682 275.198 535.153 275.049 535.471 274.75C535.797 274.451 535.961 274.017 535.961 273.448V272.076C535.699 272.403 535.382 272.655 535.009 272.832C534.635 273 534.225 273.084 533.777 273.084C533.189 273.084 532.657 272.93 532.181 272.622C531.705 272.305 531.327 271.885 531.047 271.362C530.767 270.83 530.627 270.237 530.627 269.584C530.627 268.931 530.767 268.343 531.047 267.82C531.336 267.288 531.723 266.868 532.209 266.56C532.694 266.243 533.235 266.084 533.833 266.084C534.262 266.084 534.659 266.168 535.023 266.336C535.387 266.495 535.704 266.733 535.975 267.05V266.168H536.983V273.434C536.983 274.283 536.735 274.932 536.241 275.38C535.746 275.837 535.032 276.066 534.099 276.066ZM534.029 272.202C534.43 272.202 534.799 272.123 535.135 271.964C535.471 271.796 535.746 271.567 535.961 271.278V267.904C535.737 267.615 535.452 267.391 535.107 267.232C534.771 267.064 534.411 266.98 534.029 266.98C533.571 266.98 533.161 267.092 532.797 267.316C532.442 267.54 532.157 267.848 531.943 268.24C531.737 268.632 531.635 269.08 531.635 269.584C531.635 270.079 531.737 270.527 531.943 270.928C532.157 271.32 532.442 271.633 532.797 271.866C533.161 272.09 533.571 272.202 534.029 272.202Z" fill="#151515"/>
<mask id="path-22-inside-3_1825_68843" fill="white">
<path d="M339 701H1209V761C1209 774.255 1198.25 785 1185 785H339V701Z"/>
</mask>
<path d="M339 700H1209V702H339V700ZM1209 785H339H1209ZM339 785V701V785ZM1209 701V785V701Z" fill="#C7C7C7" mask="url(#path-22-inside-3_1825_68843)"/>
<mask id="path-24-inside-4_1825_68843" fill="white">
<path d="M363 743C363 732.783 371.283 724.5 381.5 724.5H423.5C433.717 724.5 442 732.783 442 743V743C442 753.217 433.717 761.5 423.5 761.5H381.5C371.283 761.5 363 753.217 363 743V743Z"/>
</mask>
<path d="M381.5 724.5V725.5H423.5V724.5V723.5H381.5V724.5ZM423.5 761.5V760.5H381.5V761.5V762.5H423.5V761.5ZM381.5 761.5V760.5C371.835 760.5 364 752.665 364 743H363H362C362 753.77 370.73 762.5 381.5 762.5V761.5ZM442 743H441C441 752.665 433.165 760.5 423.5 760.5V761.5V762.5C434.27 762.5 443 753.77 443 743H442ZM423.5 724.5V725.5C433.165 725.5 441 733.335 441 743H442H443C443 732.23 434.27 723.5 423.5 723.5V724.5ZM381.5 724.5V723.5C370.73 723.5 362 732.23 362 743H363H364C364 733.335 371.835 725.5 381.5 725.5V724.5Z" fill="#0066CC" mask="url(#path-24-inside-4_1825_68843)"/>
<path d="M388.246 747.5V737.7H392.208C392.805 737.7 393.323 737.803 393.762 738.008C394.21 738.213 394.555 738.503 394.798 738.876C395.041 739.249 395.162 739.688 395.162 740.192C395.162 740.733 395.003 741.2 394.686 741.592C394.378 741.975 393.958 742.245 393.426 742.404C394.079 742.553 394.593 742.838 394.966 743.258C395.349 743.669 395.54 744.177 395.54 744.784C395.54 745.325 395.409 745.801 395.148 746.212C394.887 746.623 394.518 746.94 394.042 747.164C393.566 747.388 393.006 747.5 392.362 747.5H388.246ZM389.324 741.984H392.124C392.721 741.984 393.197 741.835 393.552 741.536C393.907 741.228 394.084 740.817 394.084 740.304C394.084 739.791 393.907 739.385 393.552 739.086C393.197 738.778 392.721 738.624 392.124 738.624H389.324V741.984ZM389.324 746.576H392.25C392.913 746.576 393.445 746.408 393.846 746.072C394.247 745.727 394.448 745.274 394.448 744.714C394.448 744.154 394.247 743.706 393.846 743.37C393.454 743.034 392.922 742.866 392.25 742.866H389.324V746.576ZM399.529 747.626C399.044 747.626 398.615 747.537 398.241 747.36C397.868 747.183 397.574 746.94 397.359 746.632C397.154 746.315 397.051 745.951 397.051 745.54C397.051 745.129 397.159 744.775 397.373 744.476C397.588 744.168 397.887 743.93 398.269 743.762C398.652 743.594 399.1 743.51 399.613 743.51C400.005 743.51 400.374 743.552 400.719 743.636C401.074 743.72 401.401 743.855 401.699 744.042V743.104C401.699 742.544 401.55 742.124 401.251 741.844C400.953 741.555 400.514 741.41 399.935 741.41C399.618 741.41 399.291 741.457 398.955 741.55C398.629 741.643 398.265 741.793 397.863 741.998L397.485 741.214C398.4 740.775 399.259 740.556 400.061 740.556C400.911 740.556 401.564 740.766 402.021 741.186C402.479 741.597 402.707 742.189 402.707 742.964V747.5H401.699V746.702C401.401 747.01 401.069 747.243 400.705 747.402C400.341 747.551 399.949 747.626 399.529 747.626ZM398.031 745.512C398.031 745.913 398.185 746.235 398.493 746.478C398.811 746.721 399.226 746.842 399.739 746.842C400.122 746.842 400.472 746.777 400.789 746.646C401.116 746.515 401.419 746.319 401.699 746.058V744.742C401.41 744.574 401.111 744.453 400.803 744.378C400.495 744.294 400.15 744.252 399.767 744.252C399.245 744.252 398.825 744.369 398.507 744.602C398.19 744.826 398.031 745.129 398.031 745.512ZM407.85 747.612C407.216 747.612 406.642 747.458 406.128 747.15C405.624 746.833 405.223 746.408 404.924 745.876C404.626 745.335 404.476 744.737 404.476 744.084C404.476 743.421 404.626 742.824 404.924 742.292C405.223 741.76 405.624 741.34 406.128 741.032C406.642 740.715 407.216 740.556 407.85 740.556C408.354 740.556 408.835 740.649 409.292 740.836C409.75 741.023 410.146 741.284 410.482 741.62L409.824 742.334C409.582 742.063 409.288 741.853 408.942 741.704C408.597 741.555 408.247 741.48 407.892 741.48C407.444 741.48 407.038 741.597 406.674 741.83C406.32 742.063 406.035 742.376 405.82 742.768C405.606 743.16 405.498 743.599 405.498 744.084C405.498 744.569 405.606 745.008 405.82 745.4C406.035 745.792 406.32 746.105 406.674 746.338C407.038 746.571 407.444 746.688 407.892 746.688C408.247 746.688 408.597 746.613 408.942 746.464C409.288 746.305 409.582 746.095 409.824 745.834L410.482 746.548C410.146 746.884 409.75 747.145 409.292 747.332C408.835 747.519 408.354 747.612 407.85 747.612ZM411.907 747.5V737.392L412.929 737.182V743.734L416.177 740.668H417.409L413.937 743.916L417.563 747.5H416.219L412.929 744.238V747.5H411.907Z" fill="#0066CC"/>
<path d="M458 743C458 732.783 466.283 724.5 476.5 724.5H517.5C527.717 724.5 536 732.783 536 743V743C536 753.217 527.717 761.5 517.5 761.5H476.5C466.283 761.5 458 753.217 458 743V743Z" fill="#0066CC"/>
<path d="M483.246 747.5V737.7H484.366L490.106 745.82L490.078 737.7H491.1V747.5H490.12L484.24 739.198L484.268 747.5H483.246ZM496.48 747.64C495.845 747.64 495.271 747.486 494.758 747.178C494.244 746.861 493.838 746.436 493.54 745.904C493.241 745.363 493.092 744.756 493.092 744.084C493.092 743.412 493.232 742.81 493.512 742.278C493.801 741.746 494.188 741.326 494.674 741.018C495.159 740.71 495.7 740.556 496.298 740.556C496.904 740.556 497.441 740.71 497.908 741.018C498.384 741.317 498.757 741.727 499.028 742.25C499.308 742.763 499.448 743.347 499.448 744V744.308H494.086C494.123 744.775 494.249 745.195 494.464 745.568C494.688 745.932 494.977 746.221 495.332 746.436C495.696 746.641 496.092 746.744 496.522 746.744C496.876 746.744 497.217 746.683 497.544 746.562C497.88 746.431 498.164 746.259 498.398 746.044L499.042 746.73C498.65 747.038 498.244 747.267 497.824 747.416C497.404 747.565 496.956 747.64 496.48 747.64ZM494.114 743.58H498.44C498.393 743.169 498.267 742.805 498.062 742.488C497.866 742.161 497.614 741.905 497.306 741.718C497.007 741.531 496.671 741.438 496.298 741.438C495.924 741.438 495.584 741.531 495.276 741.718C494.968 741.895 494.711 742.147 494.506 742.474C494.31 742.791 494.179 743.16 494.114 743.58ZM499.901 747.5L502.519 743.958L500.055 740.668H501.273L503.163 743.272L505.039 740.668H506.201L503.723 743.986L506.355 747.5H505.137L503.093 744.714L501.063 747.5H499.901ZM510.058 747.64C509.47 747.64 509.022 747.5 508.714 747.22C508.416 746.931 508.266 746.515 508.266 745.974V741.508H506.852V740.668H508.266V738.792L509.288 738.554V740.668H511.248V741.508H509.288V745.708C509.288 746.072 509.363 746.333 509.512 746.492C509.671 746.651 509.928 746.73 510.282 746.73C510.46 746.73 510.618 746.716 510.758 746.688C510.898 746.66 511.062 746.613 511.248 746.548V747.458C511.062 747.523 510.866 747.57 510.66 747.598C510.455 747.626 510.254 747.64 510.058 747.64Z" fill="white"/>
<path d="M597.768 747.654C597.068 747.654 596.415 747.528 595.808 747.276C595.211 747.015 594.683 746.655 594.226 746.198C593.769 745.731 593.414 745.195 593.162 744.588C592.91 743.972 592.784 743.309 592.784 742.6C592.784 741.891 592.91 741.233 593.162 740.626C593.414 740.01 593.769 739.473 594.226 739.016C594.683 738.549 595.211 738.19 595.808 737.938C596.415 737.677 597.068 737.546 597.768 737.546C598.253 737.546 598.715 737.611 599.154 737.742C599.602 737.863 600.022 738.045 600.414 738.288C600.806 738.521 601.156 738.811 601.464 739.156L600.75 739.898C600.386 739.459 599.938 739.123 599.406 738.89C598.883 738.647 598.337 738.526 597.768 738.526C597.217 738.526 596.704 738.629 596.228 738.834C595.752 739.039 595.337 739.329 594.982 739.702C594.637 740.075 594.366 740.509 594.17 741.004C593.974 741.489 593.876 742.021 593.876 742.6C593.876 743.169 593.974 743.701 594.17 744.196C594.366 744.691 594.637 745.125 594.982 745.498C595.337 745.871 595.752 746.161 596.228 746.366C596.704 746.571 597.217 746.674 597.768 746.674C598.337 746.674 598.883 746.553 599.406 746.31C599.938 746.067 600.386 745.731 600.75 745.302L601.464 746.044C601.156 746.389 600.806 746.683 600.414 746.926C600.022 747.159 599.602 747.341 599.154 747.472C598.715 747.593 598.253 747.654 597.768 747.654ZM605.322 747.626C604.837 747.626 604.408 747.537 604.034 747.36C603.661 747.183 603.367 746.94 603.152 746.632C602.947 746.315 602.844 745.951 602.844 745.54C602.844 745.129 602.952 744.775 603.166 744.476C603.381 744.168 603.68 743.93 604.062 743.762C604.445 743.594 604.893 743.51 605.406 743.51C605.798 743.51 606.167 743.552 606.512 743.636C606.867 743.72 607.194 743.855 607.492 744.042V743.104C607.492 742.544 607.343 742.124 607.044 741.844C606.746 741.555 606.307 741.41 605.728 741.41C605.411 741.41 605.084 741.457 604.748 741.55C604.422 741.643 604.058 741.793 603.656 741.998L603.278 741.214C604.193 740.775 605.052 740.556 605.854 740.556C606.704 740.556 607.357 740.766 607.814 741.186C608.272 741.597 608.5 742.189 608.5 742.964V747.5H607.492V746.702C607.194 747.01 606.862 747.243 606.498 747.402C606.134 747.551 605.742 747.626 605.322 747.626ZM603.824 745.512C603.824 745.913 603.978 746.235 604.286 746.478C604.604 746.721 605.019 746.842 605.532 746.842C605.915 746.842 606.265 746.777 606.582 746.646C606.909 746.515 607.212 746.319 607.492 746.058V744.742C607.203 744.574 606.904 744.453 606.596 744.378C606.288 744.294 605.943 744.252 605.56 744.252C605.038 744.252 604.618 744.369 604.3 744.602C603.983 744.826 603.824 745.129 603.824 745.512ZM610.577 747.5V740.668H611.599V741.774C611.861 741.363 612.173 741.06 612.537 740.864C612.901 740.659 613.312 740.556 613.769 740.556C614.264 740.556 614.693 740.663 615.057 740.878C615.431 741.083 615.72 741.377 615.925 741.76C616.14 742.133 616.247 742.572 616.247 743.076V747.5H615.225V743.37C615.225 742.763 615.057 742.287 614.721 741.942C614.395 741.587 613.951 741.41 613.391 741.41C613.018 741.41 612.677 741.499 612.369 741.676C612.061 741.853 611.805 742.115 611.599 742.46V747.5H610.577ZM621.368 747.612C620.733 747.612 620.159 747.458 619.646 747.15C619.142 746.833 618.741 746.408 618.442 745.876C618.143 745.335 617.994 744.737 617.994 744.084C617.994 743.421 618.143 742.824 618.442 742.292C618.741 741.76 619.142 741.34 619.646 741.032C620.159 740.715 620.733 740.556 621.368 740.556C621.872 740.556 622.353 740.649 622.81 740.836C623.267 741.023 623.664 741.284 624 741.62L623.342 742.334C623.099 742.063 622.805 741.853 622.46 741.704C622.115 741.555 621.765 741.48 621.41 741.48C620.962 741.48 620.556 741.597 620.192 741.83C619.837 742.063 619.553 742.376 619.338 742.768C619.123 743.16 619.016 743.599 619.016 744.084C619.016 744.569 619.123 745.008 619.338 745.4C619.553 745.792 619.837 746.105 620.192 746.338C620.556 746.571 620.962 746.688 621.41 746.688C621.765 746.688 622.115 746.613 622.46 746.464C622.805 746.305 623.099 746.095 623.342 745.834L624 746.548C623.664 746.884 623.267 747.145 622.81 747.332C622.353 747.519 621.872 747.612 621.368 747.612ZM628.3 747.64C627.665 747.64 627.091 747.486 626.578 747.178C626.065 746.861 625.659 746.436 625.36 745.904C625.061 745.363 624.912 744.756 624.912 744.084C624.912 743.412 625.052 742.81 625.332 742.278C625.621 741.746 626.009 741.326 626.494 741.018C626.979 740.71 627.521 740.556 628.118 740.556C628.725 740.556 629.261 740.71 629.728 741.018C630.204 741.317 630.577 741.727 630.848 742.25C631.128 742.763 631.268 743.347 631.268 744V744.308H625.906C625.943 744.775 626.069 745.195 626.284 745.568C626.508 745.932 626.797 746.221 627.152 746.436C627.516 746.641 627.913 746.744 628.342 746.744C628.697 746.744 629.037 746.683 629.364 746.562C629.7 746.431 629.985 746.259 630.218 746.044L630.862 746.73C630.47 747.038 630.064 747.267 629.644 747.416C629.224 747.565 628.776 747.64 628.3 747.64ZM625.934 743.58H630.26C630.213 743.169 630.087 742.805 629.882 742.488C629.686 742.161 629.434 741.905 629.126 741.718C628.827 741.531 628.491 741.438 628.118 741.438C627.745 741.438 627.404 741.531 627.096 741.718C626.788 741.895 626.531 742.147 626.326 742.474C626.13 742.791 625.999 743.16 625.934 743.58ZM633.013 747.5V737.392L634.035 737.182V747.5H633.013Z" fill="#0066CC"/>
</g>
</g>
</g>
<defs>
<filter id="filter0_d_1825_68843" x="69" y="14" width="1160" height="801" filterUnits="userSpaceOnUse" color-interpolation-filters="sRGB">
<feFlood flood-opacity="0" result="BackgroundImageFix"/>
<feColorMatrix in="SourceAlpha" type="matrix" values="0 0 0 0 0 0 0 0 0 0 0 0 0 0 0 0 0 0 127 0" result="hardAlpha"/>
<feOffset dy="10"/>
<feGaussianBlur stdDeviation="10"/>
<feColorMatrix type="matrix" values="0 0 0 0 0.160784 0 0 0 0 0.160784 0 0 0 0 0.160784 0 0 0 0.15 0"/>
<feBlend mode="normal" in2="BackgroundImageFix" result="effect1_dropShadow_1825_68843"/>
<feBlend mode="normal" in="SourceGraphic" in2="effect1_dropShadow_1825_68843" result="shape"/>
</filter>
<clipPath id="clip0_1825_68843">
<rect width="1249" height="809" fill="white"/>
</clipPath>
<clipPath id="clip1_1825_68843">
<rect width="870" height="644" fill="white" transform="translate(339 141)"/>
</clipPath>
</defs>
</svg>
