<svg width="375" height="252" viewBox="0 0 375 252" fill="none" xmlns="http://www.w3.org/2000/svg">
<rect width="375" height="252" fill="white"/>
<path d="M79 76C79 72.6863 81.6863 70 85 70H184C187.314 70 190 72.6863 190 76V101C190 104.314 187.314 107 184 107H85C81.6863 107 79 104.314 79 101V76Z" fill="#C7C7C7" fill-opacity="0.25" style="mix-blend-mode:multiply"/>
<path d="M89.254 93V84.81L87.518 85.552V84.194L89.814 83.2H90.78V93H89.254ZM95.7137 89.696V88.352H100.6V89.696H95.7137ZM106.795 93V84.81L105.059 85.552V84.194L107.355 83.2H108.321V93H106.795ZM114.044 93.14C113.251 93.14 112.551 92.93 111.944 92.51C111.347 92.0807 110.876 91.488 110.53 90.732C110.194 89.9667 110.026 89.0893 110.026 88.1C110.026 87.092 110.194 86.21 110.53 85.454C110.876 84.698 111.347 84.11 111.944 83.69C112.551 83.2607 113.251 83.046 114.044 83.046C114.838 83.046 115.533 83.2607 116.13 83.69C116.737 84.11 117.208 84.698 117.544 85.454C117.88 86.21 118.048 87.092 118.048 88.1C118.048 89.0893 117.88 89.9667 117.544 90.732C117.208 91.488 116.737 92.0807 116.13 92.51C115.533 92.93 114.838 93.14 114.044 93.14ZM114.044 91.782C114.548 91.782 114.982 91.6327 115.346 91.334C115.72 91.026 116.009 90.5967 116.214 90.046C116.42 89.4953 116.522 88.8467 116.522 88.1C116.522 87.344 116.42 86.6907 116.214 86.14C116.009 85.5893 115.72 85.1647 115.346 84.866C114.982 84.558 114.548 84.404 114.044 84.404C113.54 84.404 113.102 84.558 112.728 84.866C112.364 85.1647 112.075 85.5893 111.86 86.14C111.655 86.6907 111.552 87.344 111.552 88.1C111.552 88.8467 111.655 89.4953 111.86 90.046C112.075 90.5967 112.364 91.026 112.728 91.334C113.102 91.6327 113.54 91.782 114.044 91.782Z" fill="#151515"/>
<path d="M127.074 93.112C126.439 93.112 125.87 92.958 125.366 92.65C124.862 92.342 124.465 91.922 124.176 91.39C123.887 90.858 123.742 90.256 123.742 89.584C123.742 88.912 123.887 88.31 124.176 87.778C124.465 87.246 124.862 86.826 125.366 86.518C125.87 86.21 126.439 86.056 127.074 86.056C127.699 86.056 128.259 86.21 128.754 86.518C129.258 86.826 129.655 87.246 129.944 87.778C130.233 88.31 130.378 88.912 130.378 89.584C130.378 90.256 130.233 90.858 129.944 91.39C129.655 91.922 129.258 92.342 128.754 92.65C128.259 92.958 127.699 93.112 127.074 93.112ZM127.06 92.216C127.508 92.216 127.905 92.104 128.25 91.88C128.595 91.6467 128.866 91.3293 129.062 90.928C129.267 90.5267 129.37 90.0787 129.37 89.584C129.37 89.08 129.267 88.632 129.062 88.24C128.866 87.8387 128.595 87.526 128.25 87.302C127.905 87.0687 127.508 86.952 127.06 86.952C126.612 86.952 126.215 87.0687 125.87 87.302C125.525 87.526 125.249 87.8387 125.044 88.24C124.848 88.632 124.75 89.08 124.75 89.584C124.75 90.0787 124.848 90.5267 125.044 90.928C125.249 91.3293 125.525 91.6467 125.87 91.88C126.215 92.104 126.612 92.216 127.06 92.216ZM132.615 93V87.008H131.089V86.168H132.615V84.74C132.615 84.068 132.793 83.55 133.147 83.186C133.502 82.822 134.006 82.64 134.659 82.64C134.846 82.64 135.014 82.6493 135.163 82.668C135.322 82.6867 135.462 82.7193 135.583 82.766V83.69C135.434 83.6433 135.299 83.6107 135.177 83.592C135.056 83.5733 134.916 83.564 134.757 83.564C134.365 83.564 134.081 83.662 133.903 83.858C133.726 84.0447 133.637 84.3433 133.637 84.754V86.168H135.583V87.008H133.637V93H132.615Z" fill="#151515"/>
<path d="M143.934 93.154C142.609 93.154 141.461 92.7107 140.49 91.824L141.414 90.774C141.834 91.1473 142.245 91.418 142.646 91.586C143.057 91.754 143.505 91.838 143.99 91.838C144.41 91.838 144.774 91.7587 145.082 91.6C145.399 91.4413 145.642 91.2173 145.81 90.928C145.987 90.6293 146.076 90.2933 146.076 89.92C146.076 89.3693 145.875 88.926 145.474 88.59C145.082 88.2447 144.573 88.072 143.948 88.072C143.621 88.072 143.299 88.114 142.982 88.198C142.674 88.282 142.352 88.4127 142.016 88.59L140.938 88.268L141.162 83.2H147.112V84.516H142.506L142.38 87.33C142.735 87.1527 143.071 87.036 143.388 86.98C143.715 86.9147 144.046 86.882 144.382 86.882C145.035 86.882 145.605 87.008 146.09 87.26C146.575 87.5027 146.953 87.848 147.224 88.296C147.495 88.7347 147.63 89.248 147.63 89.836C147.63 90.4987 147.476 91.0773 147.168 91.572C146.86 92.0667 146.426 92.454 145.866 92.734C145.315 93.014 144.671 93.154 143.934 93.154ZM152.989 93.14C152.196 93.14 151.496 92.93 150.889 92.51C150.292 92.0807 149.821 91.488 149.475 90.732C149.139 89.9667 148.971 89.0893 148.971 88.1C148.971 87.092 149.139 86.21 149.475 85.454C149.821 84.698 150.292 84.11 150.889 83.69C151.496 83.2607 152.196 83.046 152.989 83.046C153.783 83.046 154.478 83.2607 155.075 83.69C155.682 84.11 156.153 84.698 156.489 85.454C156.825 86.21 156.993 87.092 156.993 88.1C156.993 89.0893 156.825 89.9667 156.489 90.732C156.153 91.488 155.682 92.0807 155.075 92.51C154.478 92.93 153.783 93.14 152.989 93.14ZM152.989 91.782C153.493 91.782 153.927 91.6327 154.291 91.334C154.665 91.026 154.954 90.5967 155.159 90.046C155.365 89.4953 155.467 88.8467 155.467 88.1C155.467 87.344 155.365 86.6907 155.159 86.14C154.954 85.5893 154.665 85.1647 154.291 84.866C153.927 84.558 153.493 84.404 152.989 84.404C152.485 84.404 152.047 84.558 151.673 84.866C151.309 85.1647 151.02 85.5893 150.805 86.14C150.6 86.6907 150.497 87.344 150.497 88.1C150.497 88.8467 150.6 89.4953 150.805 90.046C151.02 90.5967 151.309 91.026 151.673 91.334C152.047 91.6327 152.485 91.782 152.989 91.782Z" fill="#151515"/>
<path fill-rule="evenodd" clip-rule="evenodd" d="M174.444 90.9817L178.481 86.9117C178.877 86.5132 178.597 85.8333 178.039 85.8333H169.961C169.402 85.8333 169.123 86.5132 169.519 86.9117L173.556 90.9817C173.801 91.2283 174.199 91.2283 174.444 90.9817Z" fill="#1F1F1F"/>
<path d="M233.494 84.2134C233.751 83.9565 234.167 83.9566 234.421 84.2134L235.039 84.8316C235.296 85.0886 235.296 85.5041 235.039 85.7584L232.406 88.397L235.042 91.0328C235.299 91.2898 235.299 91.7062 235.042 91.9605L234.424 92.5806C234.167 92.8376 233.752 92.8377 233.497 92.5806L229.779 88.8619C229.519 88.6048 229.519 88.1892 229.776 87.9322L233.494 84.2134Z" fill="#A3A3A3"/>
<path d="M275.391 84.026C275.648 83.7691 276.064 83.7692 276.318 84.026L280.037 87.7448C280.297 88.0018 280.297 88.4174 280.04 88.6744L276.321 92.3932C276.064 92.6502 275.648 92.6502 275.394 92.3932L274.776 91.775C274.519 91.518 274.519 91.1025 274.776 90.8483L277.412 88.2125L274.776 85.5768C274.519 85.3198 274.519 84.9043 274.776 84.65L275.391 84.026Z" fill="#1F1F1F"/>
<path d="M110 22C110 19.7909 111.791 18 114 18H144C146.209 18 148 19.7909 148 22V46C148 48.2091 146.209 50 144 50H114C111.791 50 110 48.2091 110 46V22Z" fill="#C806CC"/>
<path d="M128.888 40V29.254L126.62 30.208V28.624L129.536 27.4H130.67V40H128.888Z" fill="white"/>
<path d="M129 71.3333C127.527 71.3333 126.333 72.5272 126.333 74C126.333 75.4728 127.527 76.6667 129 76.6667C130.473 76.6667 131.667 75.4728 131.667 74C131.667 72.5272 130.473 71.3333 129 71.3333ZM129 50L128.5 50L128.5 74L129 74L129.5 74L129.5 50L129 50Z" fill="#C806CC"/>
<path d="M236 22C236 19.7909 237.791 18 240 18H270C272.209 18 274 19.7909 274 22V46C274 48.2091 272.209 50 270 50H240C237.791 50 236 48.2091 236 46V22Z" fill="#C806CC"/>
<path d="M250.89 40V38.74L256.002 33.304C256.518 32.764 256.866 32.302 257.046 31.918C257.238 31.534 257.334 31.126 257.334 30.694C257.334 30.13 257.106 29.662 256.65 29.29C256.194 28.918 255.618 28.732 254.922 28.732C254.346 28.732 253.806 28.846 253.302 29.074C252.798 29.302 252.24 29.698 251.628 30.262L250.656 29.074C251.988 27.826 253.422 27.202 254.958 27.202C255.762 27.202 256.47 27.346 257.082 27.634C257.694 27.922 258.168 28.324 258.504 28.84C258.852 29.344 259.026 29.926 259.026 30.586C259.026 31.006 258.972 31.396 258.864 31.756C258.756 32.104 258.57 32.476 258.306 32.872C258.042 33.256 257.67 33.7 257.19 34.204L253.086 38.524L259.278 38.506V40H250.89Z" fill="white"/>
<path d="M255 71.3333C253.527 71.3333 252.333 72.5272 252.333 74C252.333 75.4728 253.527 76.6667 255 76.6667C256.473 76.6667 257.667 75.4728 257.667 74C257.667 72.5272 256.473 71.3333 255 71.3333ZM255 50L254.5 50L254.5 74L255 74L255.5 74L255.5 50L255 50Z" fill="#C806CC"/>
<g filter="url(#filter0_d_1554_10749)">
<path d="M79 113C79 109.686 81.6863 107 85 107H220C223.314 107 226 109.686 226 113V228C226 231.314 223.314 234 220 234H85C81.6863 234 79 231.314 79 228V113Z" fill="white"/>
<rect width="147" height="37" transform="translate(79 115)" fill="#C7C7C7" fill-opacity="0.25"/>
<path d="M105.142 138V129.292L103.574 129.992V129.068L105.52 128.2H106.15V138H105.142ZM111.913 138.154C111.166 138.154 110.504 137.939 109.925 137.51C109.356 137.081 108.908 136.488 108.581 135.732C108.254 134.967 108.091 134.089 108.091 133.1C108.091 132.101 108.254 131.224 108.581 130.468C108.908 129.712 109.356 129.119 109.925 128.69C110.504 128.261 111.166 128.046 111.913 128.046C112.66 128.046 113.318 128.261 113.887 128.69C114.466 129.119 114.918 129.712 115.245 130.468C115.572 131.224 115.735 132.101 115.735 133.1C115.735 134.089 115.572 134.967 115.245 135.732C114.918 136.488 114.466 137.081 113.887 137.51C113.318 137.939 112.66 138.154 111.913 138.154ZM111.913 137.244C112.482 137.244 112.972 137.076 113.383 136.74C113.803 136.395 114.13 135.914 114.363 135.298C114.596 134.673 114.713 133.94 114.713 133.1C114.713 132.26 114.596 131.532 114.363 130.916C114.13 130.291 113.803 129.81 113.383 129.474C112.972 129.129 112.482 128.956 111.913 128.956C111.353 128.956 110.863 129.129 110.443 129.474C110.023 129.81 109.696 130.291 109.463 130.916C109.23 131.532 109.113 132.26 109.113 133.1C109.113 133.94 109.23 134.673 109.463 135.298C109.696 135.914 110.023 136.395 110.443 136.74C110.863 137.076 111.353 137.244 111.913 137.244ZM120.853 140.926V131.168H121.861V132.148C122.122 131.803 122.439 131.541 122.813 131.364C123.195 131.177 123.615 131.084 124.073 131.084C124.67 131.084 125.202 131.243 125.669 131.56C126.145 131.868 126.523 132.288 126.803 132.82C127.083 133.343 127.223 133.931 127.223 134.584C127.223 135.237 127.078 135.83 126.789 136.362C126.509 136.894 126.126 137.319 125.641 137.636C125.165 137.944 124.623 138.098 124.017 138.098C123.587 138.098 123.191 138.019 122.827 137.86C122.463 137.692 122.145 137.454 121.875 137.146V140.926H120.853ZM123.821 137.216C124.278 137.216 124.684 137.104 125.039 136.88C125.403 136.647 125.687 136.334 125.893 135.942C126.107 135.541 126.215 135.093 126.215 134.598C126.215 134.094 126.107 133.646 125.893 133.254C125.687 132.862 125.403 132.554 125.039 132.33C124.684 132.097 124.278 131.98 123.821 131.98C123.419 131.98 123.046 132.064 122.701 132.232C122.365 132.391 122.089 132.619 121.875 132.918V136.264C122.099 136.563 122.379 136.796 122.715 136.964C123.06 137.132 123.429 137.216 123.821 137.216ZM132.095 138.14C131.46 138.14 130.886 137.986 130.373 137.678C129.86 137.361 129.454 136.936 129.155 136.404C128.856 135.863 128.707 135.256 128.707 134.584C128.707 133.912 128.847 133.31 129.127 132.778C129.416 132.246 129.804 131.826 130.289 131.518C130.774 131.21 131.316 131.056 131.913 131.056C132.52 131.056 133.056 131.21 133.523 131.518C133.999 131.817 134.372 132.227 134.643 132.75C134.923 133.263 135.063 133.847 135.063 134.5V134.808H129.701C129.738 135.275 129.864 135.695 130.079 136.068C130.303 136.432 130.592 136.721 130.947 136.936C131.311 137.141 131.708 137.244 132.137 137.244C132.492 137.244 132.832 137.183 133.159 137.062C133.495 136.931 133.78 136.759 134.013 136.544L134.657 137.23C134.265 137.538 133.859 137.767 133.439 137.916C133.019 138.065 132.571 138.14 132.095 138.14ZM129.729 134.08H134.055C134.008 133.669 133.882 133.305 133.677 132.988C133.481 132.661 133.229 132.405 132.921 132.218C132.622 132.031 132.286 131.938 131.913 131.938C131.54 131.938 131.199 132.031 130.891 132.218C130.583 132.395 130.326 132.647 130.121 132.974C129.925 133.291 129.794 133.66 129.729 134.08ZM136.808 138V131.168H137.83V132.568C138.007 132.092 138.259 131.723 138.586 131.462C138.922 131.191 139.304 131.056 139.734 131.056C139.855 131.056 139.967 131.065 140.07 131.084C140.172 131.093 140.275 131.117 140.378 131.154V132.078C140.266 132.041 140.144 132.013 140.014 131.994C139.892 131.966 139.776 131.952 139.664 131.952C139.244 131.952 138.875 132.073 138.558 132.316C138.25 132.559 138.007 132.899 137.83 133.338V138H136.808ZM144.997 140.926V131.168H146.005V132.148C146.267 131.803 146.584 131.541 146.957 131.364C147.34 131.177 147.76 131.084 148.217 131.084C148.815 131.084 149.347 131.243 149.813 131.56C150.289 131.868 150.667 132.288 150.947 132.82C151.227 133.343 151.367 133.931 151.367 134.584C151.367 135.237 151.223 135.83 150.933 136.362C150.653 136.894 150.271 137.319 149.785 137.636C149.309 137.944 148.768 138.098 148.161 138.098C147.732 138.098 147.335 138.019 146.971 137.86C146.607 137.692 146.29 137.454 146.019 137.146V140.926H144.997ZM147.965 137.216C148.423 137.216 148.829 137.104 149.183 136.88C149.547 136.647 149.832 136.334 150.037 135.942C150.252 135.541 150.359 135.093 150.359 134.598C150.359 134.094 150.252 133.646 150.037 133.254C149.832 132.862 149.547 132.554 149.183 132.33C148.829 132.097 148.423 131.98 147.965 131.98C147.564 131.98 147.191 132.064 146.845 132.232C146.509 132.391 146.234 132.619 146.019 132.918V136.264C146.243 136.563 146.523 136.796 146.859 136.964C147.205 137.132 147.573 137.216 147.965 137.216ZM155.342 138.126C154.856 138.126 154.427 138.037 154.054 137.86C153.68 137.683 153.386 137.44 153.172 137.132C152.966 136.815 152.864 136.451 152.864 136.04C152.864 135.629 152.971 135.275 153.186 134.976C153.4 134.668 153.699 134.43 154.082 134.262C154.464 134.094 154.912 134.01 155.426 134.01C155.818 134.01 156.186 134.052 156.532 134.136C156.886 134.22 157.213 134.355 157.512 134.542V133.604C157.512 133.044 157.362 132.624 157.064 132.344C156.765 132.055 156.326 131.91 155.748 131.91C155.43 131.91 155.104 131.957 154.768 132.05C154.441 132.143 154.077 132.293 153.676 132.498L153.298 131.714C154.212 131.275 155.071 131.056 155.874 131.056C156.723 131.056 157.376 131.266 157.834 131.686C158.291 132.097 158.52 132.689 158.52 133.464V138H157.512V137.202C157.213 137.51 156.882 137.743 156.518 137.902C156.154 138.051 155.762 138.126 155.342 138.126ZM153.844 136.012C153.844 136.413 153.998 136.735 154.306 136.978C154.623 137.221 155.038 137.342 155.552 137.342C155.934 137.342 156.284 137.277 156.602 137.146C156.928 137.015 157.232 136.819 157.512 136.558V135.242C157.222 135.074 156.924 134.953 156.616 134.878C156.308 134.794 155.962 134.752 155.58 134.752C155.057 134.752 154.637 134.869 154.32 135.102C154.002 135.326 153.844 135.629 153.844 136.012ZM163.761 141.066C163.304 141.066 162.842 141.001 162.375 140.87C161.918 140.749 161.493 140.576 161.101 140.352L161.535 139.568C161.955 139.783 162.338 139.941 162.683 140.044C163.028 140.147 163.374 140.198 163.719 140.198C164.344 140.198 164.816 140.049 165.133 139.75C165.46 139.451 165.623 139.017 165.623 138.448V137.076C165.362 137.403 165.044 137.655 164.671 137.832C164.298 138 163.887 138.084 163.439 138.084C162.851 138.084 162.319 137.93 161.843 137.622C161.367 137.305 160.989 136.885 160.709 136.362C160.429 135.83 160.289 135.237 160.289 134.584C160.289 133.931 160.429 133.343 160.709 132.82C160.998 132.288 161.386 131.868 161.871 131.56C162.356 131.243 162.898 131.084 163.495 131.084C163.924 131.084 164.321 131.168 164.685 131.336C165.049 131.495 165.366 131.733 165.637 132.05V131.168H166.645V138.434C166.645 139.283 166.398 139.932 165.903 140.38C165.408 140.837 164.694 141.066 163.761 141.066ZM163.691 137.202C164.092 137.202 164.461 137.123 164.797 136.964C165.133 136.796 165.408 136.567 165.623 136.278V132.904C165.399 132.615 165.114 132.391 164.769 132.232C164.433 132.064 164.074 131.98 163.691 131.98C163.234 131.98 162.823 132.092 162.459 132.316C162.104 132.54 161.82 132.848 161.605 133.24C161.4 133.632 161.297 134.08 161.297 134.584C161.297 135.079 161.4 135.527 161.605 135.928C161.82 136.32 162.104 136.633 162.459 136.866C162.823 137.09 163.234 137.202 163.691 137.202ZM171.825 138.14C171.191 138.14 170.617 137.986 170.103 137.678C169.59 137.361 169.184 136.936 168.885 136.404C168.587 135.863 168.437 135.256 168.437 134.584C168.437 133.912 168.577 133.31 168.857 132.778C169.147 132.246 169.534 131.826 170.019 131.518C170.505 131.21 171.046 131.056 171.643 131.056C172.25 131.056 172.787 131.21 173.253 131.518C173.729 131.817 174.103 132.227 174.373 132.75C174.653 133.263 174.793 133.847 174.793 134.5V134.808H169.431C169.469 135.275 169.595 135.695 169.809 136.068C170.033 136.432 170.323 136.721 170.677 136.936C171.041 137.141 171.438 137.244 171.867 137.244C172.222 137.244 172.563 137.183 172.889 137.062C173.225 136.931 173.51 136.759 173.743 136.544L174.387 137.23C173.995 137.538 173.589 137.767 173.169 137.916C172.749 138.065 172.301 138.14 171.825 138.14ZM169.459 134.08H173.785C173.739 133.669 173.613 133.305 173.407 132.988C173.211 132.661 172.959 132.405 172.651 132.218C172.353 132.031 172.017 131.938 171.643 131.938C171.27 131.938 170.929 132.031 170.621 132.218C170.313 132.395 170.057 132.647 169.851 132.974C169.655 133.291 169.525 133.66 169.459 134.08Z" fill="#151515"/>
<path d="M198.815 128.455C199.088 128.182 199.532 128.182 199.805 128.455L200.795 129.445C201.068 129.718 201.068 130.161 200.795 130.435L192.745 138.485C192.472 138.758 192.028 138.758 191.755 138.485L187.205 133.935C186.932 133.661 186.932 133.218 187.205 132.945L188.195 131.955C188.468 131.682 188.911 131.682 189.185 131.955L192.25 135.02L198.815 128.455Z" fill="#0066CC"/>
<path d="M103.714 175V174.258L107.634 169.974C107.942 169.638 108.18 169.344 108.348 169.092C108.525 168.831 108.647 168.588 108.712 168.364C108.787 168.14 108.824 167.902 108.824 167.65C108.824 167.155 108.628 166.749 108.236 166.432C107.853 166.105 107.363 165.942 106.766 165.942C106.309 165.942 105.884 166.031 105.492 166.208C105.1 166.385 104.661 166.693 104.176 167.132L103.588 166.432C104.101 165.965 104.619 165.62 105.142 165.396C105.665 165.163 106.211 165.046 106.78 165.046C107.368 165.046 107.891 165.158 108.348 165.382C108.805 165.597 109.165 165.895 109.426 166.278C109.687 166.661 109.818 167.099 109.818 167.594C109.818 167.921 109.776 168.224 109.692 168.504C109.608 168.775 109.459 169.069 109.244 169.386C109.029 169.694 108.721 170.067 108.32 170.506L104.974 174.132L110.028 174.118V175H103.714ZM115.29 175.154C114.543 175.154 113.881 174.939 113.302 174.51C112.733 174.081 112.285 173.488 111.958 172.732C111.631 171.967 111.468 171.089 111.468 170.1C111.468 169.101 111.631 168.224 111.958 167.468C112.285 166.712 112.733 166.119 113.302 165.69C113.881 165.261 114.543 165.046 115.29 165.046C116.037 165.046 116.695 165.261 117.264 165.69C117.843 166.119 118.295 166.712 118.622 167.468C118.949 168.224 119.112 169.101 119.112 170.1C119.112 171.089 118.949 171.967 118.622 172.732C118.295 173.488 117.843 174.081 117.264 174.51C116.695 174.939 116.037 175.154 115.29 175.154ZM115.29 174.244C115.859 174.244 116.349 174.076 116.76 173.74C117.18 173.395 117.507 172.914 117.74 172.298C117.973 171.673 118.09 170.94 118.09 170.1C118.09 169.26 117.973 168.532 117.74 167.916C117.507 167.291 117.18 166.81 116.76 166.474C116.349 166.129 115.859 165.956 115.29 165.956C114.73 165.956 114.24 166.129 113.82 166.474C113.4 166.81 113.073 167.291 112.84 167.916C112.607 168.532 112.49 169.26 112.49 170.1C112.49 170.94 112.607 171.673 112.84 172.298C113.073 172.914 113.4 173.395 113.82 173.74C114.24 174.076 114.73 174.244 115.29 174.244ZM124.23 177.926V168.168H125.238V169.148C125.499 168.803 125.816 168.541 126.19 168.364C126.572 168.177 126.992 168.084 127.45 168.084C128.047 168.084 128.579 168.243 129.046 168.56C129.522 168.868 129.9 169.288 130.18 169.82C130.46 170.343 130.6 170.931 130.6 171.584C130.6 172.237 130.455 172.83 130.166 173.362C129.886 173.894 129.503 174.319 129.018 174.636C128.542 174.944 128 175.098 127.394 175.098C126.964 175.098 126.568 175.019 126.204 174.86C125.84 174.692 125.522 174.454 125.252 174.146V177.926H124.23ZM127.198 174.216C127.655 174.216 128.061 174.104 128.416 173.88C128.78 173.647 129.064 173.334 129.27 172.942C129.484 172.541 129.592 172.093 129.592 171.598C129.592 171.094 129.484 170.646 129.27 170.254C129.064 169.862 128.78 169.554 128.416 169.33C128.061 169.097 127.655 168.98 127.198 168.98C126.796 168.98 126.423 169.064 126.078 169.232C125.742 169.391 125.466 169.619 125.252 169.918V173.264C125.476 173.563 125.756 173.796 126.092 173.964C126.437 174.132 126.806 174.216 127.198 174.216ZM135.472 175.14C134.837 175.14 134.263 174.986 133.75 174.678C133.236 174.361 132.83 173.936 132.532 173.404C132.233 172.863 132.084 172.256 132.084 171.584C132.084 170.912 132.224 170.31 132.504 169.778C132.793 169.246 133.18 168.826 133.666 168.518C134.151 168.21 134.692 168.056 135.29 168.056C135.896 168.056 136.433 168.21 136.9 168.518C137.376 168.817 137.749 169.227 138.02 169.75C138.3 170.263 138.44 170.847 138.44 171.5V171.808H133.078C133.115 172.275 133.241 172.695 133.456 173.068C133.68 173.432 133.969 173.721 134.324 173.936C134.688 174.141 135.084 174.244 135.514 174.244C135.868 174.244 136.209 174.183 136.536 174.062C136.872 173.931 137.156 173.759 137.39 173.544L138.034 174.23C137.642 174.538 137.236 174.767 136.816 174.916C136.396 175.065 135.948 175.14 135.472 175.14ZM133.106 171.08H137.432C137.385 170.669 137.259 170.305 137.054 169.988C136.858 169.661 136.606 169.405 136.298 169.218C135.999 169.031 135.663 168.938 135.29 168.938C134.916 168.938 134.576 169.031 134.268 169.218C133.96 169.395 133.703 169.647 133.498 169.974C133.302 170.291 133.171 170.66 133.106 171.08ZM140.185 175V168.168H141.207V169.568C141.384 169.092 141.636 168.723 141.963 168.462C142.299 168.191 142.681 168.056 143.111 168.056C143.232 168.056 143.344 168.065 143.447 168.084C143.549 168.093 143.652 168.117 143.755 168.154V169.078C143.643 169.041 143.521 169.013 143.391 168.994C143.269 168.966 143.153 168.952 143.041 168.952C142.621 168.952 142.252 169.073 141.935 169.316C141.627 169.559 141.384 169.899 141.207 170.338V175H140.185ZM148.374 177.926V168.168H149.382V169.148C149.644 168.803 149.961 168.541 150.334 168.364C150.717 168.177 151.137 168.084 151.594 168.084C152.192 168.084 152.724 168.243 153.19 168.56C153.666 168.868 154.044 169.288 154.324 169.82C154.604 170.343 154.744 170.931 154.744 171.584C154.744 172.237 154.6 172.83 154.31 173.362C154.03 173.894 153.648 174.319 153.162 174.636C152.686 174.944 152.145 175.098 151.538 175.098C151.109 175.098 150.712 175.019 150.348 174.86C149.984 174.692 149.667 174.454 149.396 174.146V177.926H148.374ZM151.342 174.216C151.8 174.216 152.206 174.104 152.56 173.88C152.924 173.647 153.209 173.334 153.414 172.942C153.629 172.541 153.736 172.093 153.736 171.598C153.736 171.094 153.629 170.646 153.414 170.254C153.209 169.862 152.924 169.554 152.56 169.33C152.206 169.097 151.8 168.98 151.342 168.98C150.941 168.98 150.568 169.064 150.222 169.232C149.886 169.391 149.611 169.619 149.396 169.918V173.264C149.62 173.563 149.9 173.796 150.236 173.964C150.582 174.132 150.95 174.216 151.342 174.216ZM158.719 175.126C158.233 175.126 157.804 175.037 157.431 174.86C157.057 174.683 156.763 174.44 156.549 174.132C156.343 173.815 156.241 173.451 156.241 173.04C156.241 172.629 156.348 172.275 156.563 171.976C156.777 171.668 157.076 171.43 157.459 171.262C157.841 171.094 158.289 171.01 158.803 171.01C159.195 171.01 159.563 171.052 159.909 171.136C160.263 171.22 160.59 171.355 160.889 171.542V170.604C160.889 170.044 160.739 169.624 160.441 169.344C160.142 169.055 159.703 168.91 159.125 168.91C158.807 168.91 158.481 168.957 158.145 169.05C157.818 169.143 157.454 169.293 157.053 169.498L156.675 168.714C157.589 168.275 158.448 168.056 159.251 168.056C160.1 168.056 160.753 168.266 161.211 168.686C161.668 169.097 161.897 169.689 161.897 170.464V175H160.889V174.202C160.59 174.51 160.259 174.743 159.895 174.902C159.531 175.051 159.139 175.126 158.719 175.126ZM157.221 173.012C157.221 173.413 157.375 173.735 157.683 173.978C158 174.221 158.415 174.342 158.929 174.342C159.311 174.342 159.661 174.277 159.979 174.146C160.305 174.015 160.609 173.819 160.889 173.558V172.242C160.599 172.074 160.301 171.953 159.993 171.878C159.685 171.794 159.339 171.752 158.957 171.752C158.434 171.752 158.014 171.869 157.697 172.102C157.379 172.326 157.221 172.629 157.221 173.012ZM167.138 178.066C166.68 178.066 166.218 178.001 165.752 177.87C165.294 177.749 164.87 177.576 164.478 177.352L164.912 176.568C165.332 176.783 165.714 176.941 166.06 177.044C166.405 177.147 166.75 177.198 167.096 177.198C167.721 177.198 168.192 177.049 168.51 176.75C168.836 176.451 169 176.017 169 175.448V174.076C168.738 174.403 168.421 174.655 168.048 174.832C167.674 175 167.264 175.084 166.816 175.084C166.228 175.084 165.696 174.93 165.22 174.622C164.744 174.305 164.366 173.885 164.086 173.362C163.806 172.83 163.666 172.237 163.666 171.584C163.666 170.931 163.806 170.343 164.086 169.82C164.375 169.288 164.762 168.868 165.248 168.56C165.733 168.243 166.274 168.084 166.872 168.084C167.301 168.084 167.698 168.168 168.062 168.336C168.426 168.495 168.743 168.733 169.014 169.05V168.168H170.022V175.434C170.022 176.283 169.774 176.932 169.28 177.38C168.785 177.837 168.071 178.066 167.138 178.066ZM167.068 174.202C167.469 174.202 167.838 174.123 168.174 173.964C168.51 173.796 168.785 173.567 169 173.278V169.904C168.776 169.615 168.491 169.391 168.146 169.232C167.81 169.064 167.45 168.98 167.068 168.98C166.61 168.98 166.2 169.092 165.836 169.316C165.481 169.54 165.196 169.848 164.982 170.24C164.776 170.632 164.674 171.08 164.674 171.584C164.674 172.079 164.776 172.527 164.982 172.928C165.196 173.32 165.481 173.633 165.836 173.866C166.2 174.09 166.61 174.202 167.068 174.202ZM175.202 175.14C174.568 175.14 173.994 174.986 173.48 174.678C172.967 174.361 172.561 173.936 172.262 173.404C171.964 172.863 171.814 172.256 171.814 171.584C171.814 170.912 171.954 170.31 172.234 169.778C172.524 169.246 172.911 168.826 173.396 168.518C173.882 168.21 174.423 168.056 175.02 168.056C175.627 168.056 176.164 168.21 176.63 168.518C177.106 168.817 177.48 169.227 177.75 169.75C178.03 170.263 178.17 170.847 178.17 171.5V171.808H172.808C172.846 172.275 172.972 172.695 173.186 173.068C173.41 173.432 173.7 173.721 174.054 173.936C174.418 174.141 174.815 174.244 175.244 174.244C175.599 174.244 175.94 174.183 176.266 174.062C176.602 173.931 176.887 173.759 177.12 173.544L177.764 174.23C177.372 174.538 176.966 174.767 176.546 174.916C176.126 175.065 175.678 175.14 175.202 175.14ZM172.836 171.08H177.162C177.116 170.669 176.99 170.305 176.784 169.988C176.588 169.661 176.336 169.405 176.028 169.218C175.73 169.031 175.394 168.938 175.02 168.938C174.647 168.938 174.306 169.031 173.998 169.218C173.69 169.395 173.434 169.647 173.228 169.974C173.032 170.291 172.902 170.66 172.836 171.08Z" fill="#151515"/>
<path d="M106.948 212.154C106.276 212.154 105.646 212.037 105.058 211.804C104.479 211.571 103.966 211.225 103.518 210.768L104.19 210.11C104.601 210.521 105.021 210.819 105.45 211.006C105.889 211.183 106.383 211.272 106.934 211.272C107.41 211.272 107.83 211.188 108.194 211.02C108.567 210.852 108.857 210.619 109.062 210.32C109.267 210.021 109.37 209.681 109.37 209.298C109.37 208.934 109.277 208.612 109.09 208.332C108.913 208.043 108.665 207.819 108.348 207.66C108.031 207.501 107.667 207.422 107.256 207.422H106.094V206.554H107.214C107.746 206.554 108.175 206.391 108.502 206.064C108.838 205.737 109.006 205.313 109.006 204.79C109.006 204.445 108.913 204.132 108.726 203.852C108.539 203.572 108.283 203.353 107.956 203.194C107.639 203.026 107.279 202.942 106.878 202.942C106.374 202.942 105.921 203.035 105.52 203.222C105.128 203.399 104.727 203.703 104.316 204.132L103.644 203.46C104.083 202.993 104.577 202.643 105.128 202.41C105.679 202.167 106.267 202.046 106.892 202.046C107.489 202.046 108.021 202.163 108.488 202.396C108.964 202.629 109.337 202.951 109.608 203.362C109.879 203.763 110.014 204.221 110.014 204.734C110.014 205.247 109.846 205.709 109.51 206.12C109.174 206.521 108.731 206.801 108.18 206.96C108.843 207.109 109.375 207.399 109.776 207.828C110.177 208.257 110.378 208.757 110.378 209.326C110.378 209.867 110.229 210.353 109.93 210.782C109.641 211.211 109.235 211.547 108.712 211.79C108.199 212.033 107.611 212.154 106.948 212.154ZM115.686 212.154C114.94 212.154 114.277 211.939 113.698 211.51C113.129 211.081 112.681 210.488 112.354 209.732C112.028 208.967 111.864 208.089 111.864 207.1C111.864 206.101 112.028 205.224 112.354 204.468C112.681 203.712 113.129 203.119 113.698 202.69C114.277 202.261 114.94 202.046 115.686 202.046C116.433 202.046 117.091 202.261 117.66 202.69C118.239 203.119 118.692 203.712 119.018 204.468C119.345 205.224 119.508 206.101 119.508 207.1C119.508 208.089 119.345 208.967 119.018 209.732C118.692 210.488 118.239 211.081 117.66 211.51C117.091 211.939 116.433 212.154 115.686 212.154ZM115.686 211.244C116.256 211.244 116.746 211.076 117.156 210.74C117.576 210.395 117.903 209.914 118.136 209.298C118.37 208.673 118.486 207.94 118.486 207.1C118.486 206.26 118.37 205.532 118.136 204.916C117.903 204.291 117.576 203.81 117.156 203.474C116.746 203.129 116.256 202.956 115.686 202.956C115.126 202.956 114.636 203.129 114.216 203.474C113.796 203.81 113.47 204.291 113.236 204.916C113.003 205.532 112.886 206.26 112.886 207.1C112.886 207.94 113.003 208.673 113.236 209.298C113.47 209.914 113.796 210.395 114.216 210.74C114.636 211.076 115.126 211.244 115.686 211.244ZM124.626 214.926V205.168H125.634V206.148C125.896 205.803 126.213 205.541 126.586 205.364C126.969 205.177 127.389 205.084 127.846 205.084C128.444 205.084 128.976 205.243 129.442 205.56C129.918 205.868 130.296 206.288 130.576 206.82C130.856 207.343 130.996 207.931 130.996 208.584C130.996 209.237 130.852 209.83 130.562 210.362C130.282 210.894 129.9 211.319 129.414 211.636C128.938 211.944 128.397 212.098 127.79 212.098C127.361 212.098 126.964 212.019 126.6 211.86C126.236 211.692 125.919 211.454 125.648 211.146V214.926H124.626ZM127.594 211.216C128.052 211.216 128.458 211.104 128.812 210.88C129.176 210.647 129.461 210.334 129.666 209.942C129.881 209.541 129.988 209.093 129.988 208.598C129.988 208.094 129.881 207.646 129.666 207.254C129.461 206.862 129.176 206.554 128.812 206.33C128.458 206.097 128.052 205.98 127.594 205.98C127.193 205.98 126.82 206.064 126.474 206.232C126.138 206.391 125.863 206.619 125.648 206.918V210.264C125.872 210.563 126.152 210.796 126.488 210.964C126.834 211.132 127.202 211.216 127.594 211.216ZM135.868 212.14C135.234 212.14 134.66 211.986 134.146 211.678C133.633 211.361 133.227 210.936 132.928 210.404C132.63 209.863 132.48 209.256 132.48 208.584C132.48 207.912 132.62 207.31 132.9 206.778C133.19 206.246 133.577 205.826 134.062 205.518C134.548 205.21 135.089 205.056 135.686 205.056C136.293 205.056 136.83 205.21 137.296 205.518C137.772 205.817 138.146 206.227 138.416 206.75C138.696 207.263 138.836 207.847 138.836 208.5V208.808H133.474C133.512 209.275 133.638 209.695 133.852 210.068C134.076 210.432 134.366 210.721 134.72 210.936C135.084 211.141 135.481 211.244 135.91 211.244C136.265 211.244 136.606 211.183 136.932 211.062C137.268 210.931 137.553 210.759 137.786 210.544L138.43 211.23C138.038 211.538 137.632 211.767 137.212 211.916C136.792 212.065 136.344 212.14 135.868 212.14ZM133.502 208.08H137.828C137.782 207.669 137.656 207.305 137.45 206.988C137.254 206.661 137.002 206.405 136.694 206.218C136.396 206.031 136.06 205.938 135.686 205.938C135.313 205.938 134.972 206.031 134.664 206.218C134.356 206.395 134.1 206.647 133.894 206.974C133.698 207.291 133.568 207.66 133.502 208.08ZM140.581 212V205.168H141.603V206.568C141.781 206.092 142.033 205.723 142.359 205.462C142.695 205.191 143.078 205.056 143.507 205.056C143.629 205.056 143.741 205.065 143.843 205.084C143.946 205.093 144.049 205.117 144.151 205.154V206.078C144.039 206.041 143.918 206.013 143.787 205.994C143.666 205.966 143.549 205.952 143.437 205.952C143.017 205.952 142.649 206.073 142.331 206.316C142.023 206.559 141.781 206.899 141.603 207.338V212H140.581ZM148.771 214.926V205.168H149.779V206.148C150.04 205.803 150.357 205.541 150.731 205.364C151.113 205.177 151.533 205.084 151.991 205.084C152.588 205.084 153.12 205.243 153.587 205.56C154.063 205.868 154.441 206.288 154.721 206.82C155.001 207.343 155.141 207.931 155.141 208.584C155.141 209.237 154.996 209.83 154.707 210.362C154.427 210.894 154.044 211.319 153.559 211.636C153.083 211.944 152.541 212.098 151.935 212.098C151.505 212.098 151.109 212.019 150.745 211.86C150.381 211.692 150.063 211.454 149.793 211.146V214.926H148.771ZM151.739 211.216C152.196 211.216 152.602 211.104 152.957 210.88C153.321 210.647 153.605 210.334 153.811 209.942C154.025 209.541 154.133 209.093 154.133 208.598C154.133 208.094 154.025 207.646 153.811 207.254C153.605 206.862 153.321 206.554 152.957 206.33C152.602 206.097 152.196 205.98 151.739 205.98C151.337 205.98 150.964 206.064 150.619 206.232C150.283 206.391 150.007 206.619 149.793 206.918V210.264C150.017 210.563 150.297 210.796 150.633 210.964C150.978 211.132 151.347 211.216 151.739 211.216ZM159.115 212.126C158.63 212.126 158.201 212.037 157.827 211.86C157.454 211.683 157.16 211.44 156.945 211.132C156.74 210.815 156.637 210.451 156.637 210.04C156.637 209.629 156.745 209.275 156.959 208.976C157.174 208.668 157.473 208.43 157.855 208.262C158.238 208.094 158.686 208.01 159.199 208.01C159.591 208.01 159.96 208.052 160.305 208.136C160.66 208.22 160.987 208.355 161.285 208.542V207.604C161.285 207.044 161.136 206.624 160.837 206.344C160.539 206.055 160.1 205.91 159.521 205.91C159.204 205.91 158.877 205.957 158.541 206.05C158.215 206.143 157.851 206.293 157.449 206.498L157.071 205.714C157.986 205.275 158.845 205.056 159.647 205.056C160.497 205.056 161.15 205.266 161.607 205.686C162.065 206.097 162.293 206.689 162.293 207.464V212H161.285V211.202C160.987 211.51 160.655 211.743 160.291 211.902C159.927 212.051 159.535 212.126 159.115 212.126ZM157.617 210.012C157.617 210.413 157.771 210.735 158.079 210.978C158.397 211.221 158.812 211.342 159.325 211.342C159.708 211.342 160.058 211.277 160.375 211.146C160.702 211.015 161.005 210.819 161.285 210.558V209.242C160.996 209.074 160.697 208.953 160.389 208.878C160.081 208.794 159.736 208.752 159.353 208.752C158.831 208.752 158.411 208.869 158.093 209.102C157.776 209.326 157.617 209.629 157.617 210.012ZM167.534 215.066C167.077 215.066 166.615 215.001 166.148 214.87C165.691 214.749 165.266 214.576 164.874 214.352L165.308 213.568C165.728 213.783 166.111 213.941 166.456 214.044C166.802 214.147 167.147 214.198 167.492 214.198C168.118 214.198 168.589 214.049 168.906 213.75C169.233 213.451 169.396 213.017 169.396 212.448V211.076C169.135 211.403 168.818 211.655 168.444 211.832C168.071 212 167.66 212.084 167.212 212.084C166.624 212.084 166.092 211.93 165.616 211.622C165.14 211.305 164.762 210.885 164.482 210.362C164.202 209.83 164.062 209.237 164.062 208.584C164.062 207.931 164.202 207.343 164.482 206.82C164.772 206.288 165.159 205.868 165.644 205.56C166.13 205.243 166.671 205.084 167.268 205.084C167.698 205.084 168.094 205.168 168.458 205.336C168.822 205.495 169.14 205.733 169.41 206.05V205.168H170.418V212.434C170.418 213.283 170.171 213.932 169.676 214.38C169.182 214.837 168.468 215.066 167.534 215.066ZM167.464 211.202C167.866 211.202 168.234 211.123 168.57 210.964C168.906 210.796 169.182 210.567 169.396 210.278V206.904C169.172 206.615 168.888 206.391 168.542 206.232C168.206 206.064 167.847 205.98 167.464 205.98C167.007 205.98 166.596 206.092 166.232 206.316C165.878 206.54 165.593 206.848 165.378 207.24C165.173 207.632 165.07 208.08 165.07 208.584C165.07 209.079 165.173 209.527 165.378 209.928C165.593 210.32 165.878 210.633 166.232 210.866C166.596 211.09 167.007 211.202 167.464 211.202ZM175.599 212.14C174.964 212.14 174.39 211.986 173.877 211.678C173.363 211.361 172.957 210.936 172.659 210.404C172.36 209.863 172.211 209.256 172.211 208.584C172.211 207.912 172.351 207.31 172.631 206.778C172.92 206.246 173.307 205.826 173.793 205.518C174.278 205.21 174.819 205.056 175.417 205.056C176.023 205.056 176.56 205.21 177.027 205.518C177.503 205.817 177.876 206.227 178.147 206.75C178.427 207.263 178.567 207.847 178.567 208.5V208.808H173.205C173.242 209.275 173.368 209.695 173.583 210.068C173.807 210.432 174.096 210.721 174.451 210.936C174.815 211.141 175.211 211.244 175.641 211.244C175.995 211.244 176.336 211.183 176.663 211.062C176.999 210.931 177.283 210.759 177.517 210.544L178.161 211.23C177.769 211.538 177.363 211.767 176.943 211.916C176.523 212.065 176.075 212.14 175.599 212.14ZM173.233 208.08H177.559C177.512 207.669 177.386 207.305 177.181 206.988C176.985 206.661 176.733 206.405 176.425 206.218C176.126 206.031 175.79 205.938 175.417 205.938C175.043 205.938 174.703 206.031 174.395 206.218C174.087 206.395 173.83 206.647 173.625 206.974C173.429 207.291 173.298 207.66 173.233 208.08Z" fill="#151515"/>
</g>
<defs>
<filter id="filter0_d_1554_10749" x="70" y="102" width="165" height="145" filterUnits="userSpaceOnUse" color-interpolation-filters="sRGB">
<feFlood flood-opacity="0" result="BackgroundImageFix"/>
<feColorMatrix in="SourceAlpha" type="matrix" values="0 0 0 0 0 0 0 0 0 0 0 0 0 0 0 0 0 0 127 0" result="hardAlpha"/>
<feOffset dy="4"/>
<feGaussianBlur stdDeviation="4.5"/>
<feColorMatrix type="matrix" values="0 0 0 0 0.160784 0 0 0 0 0.160784 0 0 0 0 0.160784 0 0 0 0.15 0"/>
<feBlend mode="normal" in2="BackgroundImageFix" result="effect1_dropShadow_1554_10749"/>
<feBlend mode="normal" in="SourceGraphic" in2="effect1_dropShadow_1554_10749" result="shape"/>
</filter>
</defs>
</svg>
