<svg width="354" height="133" viewBox="0 0 354 133" fill="none" xmlns="http://www.w3.org/2000/svg">
<rect width="354" height="133" fill="white"/>
<path d="M156 102C156 97.0294 160.029 93 165 93H189C193.971 93 198 97.0294 198 102V102C198 106.971 193.971 111 189 111H165C160.029 111 156 106.971 156 102V102Z" fill="#B9DAFC"/>
<path d="M165.068 106V97.6H168.464C168.976 97.6 169.42 97.688 169.796 97.864C170.18 98.04 170.476 98.288 170.684 98.608C170.892 98.928 170.996 99.304 170.996 99.736C170.996 100.2 170.86 100.6 170.588 100.936C170.324 101.264 169.964 101.496 169.508 101.632C170.068 101.76 170.508 102.004 170.828 102.364C171.156 102.716 171.32 103.152 171.32 103.672C171.32 104.136 171.208 104.544 170.984 104.896C170.76 105.248 170.444 105.52 170.036 105.712C169.628 105.904 169.148 106 168.596 106H165.068ZM165.992 101.272H168.392C168.904 101.272 169.312 101.144 169.616 100.888C169.92 100.624 170.072 100.272 170.072 99.832C170.072 99.392 169.92 99.044 169.616 98.788C169.312 98.524 168.904 98.392 168.392 98.392H165.992V101.272ZM165.992 105.208H168.5C169.068 105.208 169.524 105.064 169.868 104.776C170.212 104.48 170.384 104.092 170.384 103.612C170.384 103.132 170.212 102.748 169.868 102.46C169.532 102.172 169.076 102.028 168.5 102.028H165.992V105.208ZM175.45 106.12C174.906 106.12 174.414 105.988 173.974 105.724C173.534 105.452 173.186 105.088 172.93 104.632C172.674 104.168 172.546 103.648 172.546 103.072C172.546 102.496 172.666 101.98 172.906 101.524C173.154 101.068 173.486 100.708 173.902 100.444C174.318 100.18 174.782 100.048 175.294 100.048C175.814 100.048 176.274 100.18 176.674 100.444C177.082 100.7 177.402 101.052 177.634 101.5C177.874 101.94 177.994 102.44 177.994 103V103.264H173.398C173.43 103.664 173.538 104.024 173.722 104.344C173.914 104.656 174.162 104.904 174.466 105.088C174.778 105.264 175.118 105.352 175.486 105.352C175.79 105.352 176.082 105.3 176.362 105.196C176.65 105.084 176.894 104.936 177.094 104.752L177.646 105.34C177.31 105.604 176.962 105.8 176.602 105.928C176.242 106.056 175.858 106.12 175.45 106.12ZM173.422 102.64H177.13C177.09 102.288 176.982 101.976 176.806 101.704C176.638 101.424 176.422 101.204 176.158 101.044C175.902 100.884 175.614 100.804 175.294 100.804C174.974 100.804 174.682 100.884 174.418 101.044C174.154 101.196 173.934 101.412 173.758 101.692C173.59 101.964 173.478 102.28 173.422 102.64ZM181.546 106.12C181.042 106.12 180.658 106 180.394 105.76C180.138 105.512 180.01 105.156 180.01 104.692V100.864H178.798V100.144H180.01V98.536L180.886 98.332V100.144H182.566V100.864H180.886V104.464C180.886 104.776 180.95 105 181.078 105.136C181.214 105.272 181.434 105.34 181.738 105.34C181.89 105.34 182.026 105.328 182.146 105.304C182.266 105.28 182.406 105.24 182.566 105.184V105.964C182.406 106.02 182.238 106.06 182.062 106.084C181.886 106.108 181.714 106.12 181.546 106.12ZM185.661 106.108C185.245 106.108 184.877 106.032 184.557 105.88C184.237 105.728 183.985 105.52 183.801 105.256C183.625 104.984 183.537 104.672 183.537 104.32C183.537 103.968 183.629 103.664 183.813 103.408C183.997 103.144 184.253 102.94 184.581 102.796C184.909 102.652 185.293 102.58 185.733 102.58C186.069 102.58 186.385 102.616 186.681 102.688C186.985 102.76 187.265 102.876 187.521 103.036V102.232C187.521 101.752 187.393 101.392 187.137 101.152C186.881 100.904 186.505 100.78 186.009 100.78C185.737 100.78 185.457 100.82 185.169 100.9C184.889 100.98 184.577 101.108 184.233 101.284L183.909 100.612C184.693 100.236 185.429 100.048 186.117 100.048C186.845 100.048 187.405 100.228 187.797 100.588C188.189 100.94 188.385 101.448 188.385 102.112V106H187.521V105.316C187.265 105.58 186.981 105.78 186.669 105.916C186.357 106.044 186.021 106.108 185.661 106.108ZM184.377 104.296C184.377 104.64 184.509 104.916 184.773 105.124C185.045 105.332 185.401 105.436 185.841 105.436C186.169 105.436 186.469 105.38 186.741 105.268C187.021 105.156 187.281 104.988 187.521 104.764V103.636C187.273 103.492 187.017 103.388 186.753 103.324C186.489 103.252 186.193 103.216 185.865 103.216C185.417 103.216 185.057 103.316 184.785 103.516C184.513 103.708 184.377 103.968 184.377 104.296Z" fill="#151515"/>
<g filter="url(#filter0_d_3080_37531)">
<path d="M34 28C34 24.6863 36.6863 22 40 22H314C317.314 22 320 24.6863 320 28V68C320 71.3137 317.314 74 314 74H40C36.6863 74 34 71.3137 34 68V28Z" fill="#292929"/>
<path d="M76.2127 43V35.416H73.3087V34.6H80.0407V35.416H77.1367V43H76.2127ZM81.2789 43V34.336L82.1549 34.156V38.092C82.3789 37.74 82.6469 37.48 82.9589 37.312C83.2709 37.136 83.6229 37.048 84.0149 37.048C84.4389 37.048 84.8069 37.14 85.1189 37.324C85.4389 37.5 85.6869 37.752 85.8629 38.08C86.0469 38.4 86.1389 38.776 86.1389 39.208V43H85.2629V39.46C85.2629 38.94 85.1189 38.532 84.8309 38.236C84.5509 37.932 84.1709 37.78 83.6909 37.78C83.3709 37.78 83.0789 37.856 82.8149 38.008C82.5509 38.16 82.3309 38.384 82.1549 38.68V43H81.2789ZM87.888 43V37.144H88.764V43H87.888ZM88.332 35.692C88.156 35.692 88.004 35.632 87.876 35.512C87.756 35.384 87.696 35.236 87.696 35.068C87.696 34.9 87.756 34.756 87.876 34.636C88.004 34.508 88.156 34.444 88.332 34.444C88.508 34.444 88.656 34.508 88.776 34.636C88.904 34.756 88.968 34.9 88.968 35.068C88.968 35.236 88.904 35.384 88.776 35.512C88.656 35.632 88.508 35.692 88.332 35.692ZM92.3722 43.12C91.8922 43.12 91.4482 43.048 91.0402 42.904C90.6322 42.752 90.2842 42.536 89.9962 42.256L90.4642 41.68C90.8162 41.936 91.1402 42.124 91.4362 42.244C91.7322 42.356 92.0362 42.412 92.3482 42.412C92.7722 42.412 93.1242 42.312 93.4042 42.112C93.6842 41.912 93.8242 41.656 93.8242 41.344C93.8242 41.104 93.7402 40.916 93.5722 40.78C93.4122 40.644 93.1442 40.54 92.7682 40.468L91.8082 40.3C91.2402 40.196 90.8202 40.02 90.5482 39.772C90.2842 39.524 90.1522 39.188 90.1522 38.764C90.1522 38.428 90.2402 38.132 90.4162 37.876C90.6002 37.62 90.8522 37.42 91.1722 37.276C91.4922 37.124 91.8562 37.048 92.2642 37.048C92.6642 37.048 93.0442 37.108 93.4042 37.228C93.7642 37.34 94.1282 37.524 94.4962 37.78L94.0642 38.392C93.7602 38.176 93.4562 38.02 93.1522 37.924C92.8482 37.82 92.5402 37.768 92.2282 37.768C91.8442 37.768 91.5362 37.852 91.3042 38.02C91.0722 38.188 90.9562 38.416 90.9562 38.704C90.9562 38.944 91.0282 39.128 91.1722 39.256C91.3242 39.384 91.5882 39.48 91.9642 39.544L92.9482 39.724C93.5402 39.828 93.9722 40.008 94.2442 40.264C94.5162 40.52 94.6522 40.864 94.6522 41.296C94.6522 41.64 94.5522 41.952 94.3522 42.232C94.1522 42.504 93.8802 42.72 93.5362 42.88C93.1922 43.04 92.8042 43.12 92.3722 43.12ZM98.7867 43V34.42L99.6627 34.24V37.948C99.8867 37.668 100.159 37.452 100.479 37.3C100.799 37.148 101.155 37.072 101.547 37.072C102.059 37.072 102.515 37.208 102.915 37.48C103.323 37.744 103.647 38.104 103.887 38.56C104.127 39.008 104.247 39.512 104.247 40.072C104.247 40.632 104.123 41.14 103.875 41.596C103.635 42.052 103.307 42.416 102.891 42.688C102.483 42.952 102.019 43.084 101.499 43.084C101.131 43.084 100.787 43.012 100.467 42.868C100.155 42.716 99.8827 42.504 99.6507 42.232V43H98.7867ZM101.331 42.328C101.723 42.328 102.071 42.232 102.375 42.04C102.687 41.84 102.931 41.572 103.107 41.236C103.291 40.892 103.383 40.508 103.383 40.084C103.383 39.652 103.291 39.268 103.107 38.932C102.931 38.596 102.687 38.332 102.375 38.14C102.071 37.94 101.723 37.84 101.331 37.84C100.987 37.84 100.667 37.912 100.371 38.056C100.083 38.192 99.8467 38.388 99.6627 38.644V41.512C99.8547 41.768 100.095 41.968 100.383 42.112C100.679 42.256 100.995 42.328 101.331 42.328ZM108.423 43.12C107.879 43.12 107.387 42.988 106.947 42.724C106.507 42.452 106.159 42.088 105.903 41.632C105.647 41.168 105.519 40.648 105.519 40.072C105.519 39.496 105.639 38.98 105.879 38.524C106.127 38.068 106.459 37.708 106.875 37.444C107.291 37.18 107.755 37.048 108.267 37.048C108.787 37.048 109.247 37.18 109.647 37.444C110.055 37.7 110.375 38.052 110.607 38.5C110.847 38.94 110.967 39.44 110.967 40V40.264H106.371C106.403 40.664 106.511 41.024 106.695 41.344C106.887 41.656 107.135 41.904 107.439 42.088C107.751 42.264 108.091 42.352 108.459 42.352C108.763 42.352 109.055 42.3 109.335 42.196C109.623 42.084 109.867 41.936 110.067 41.752L110.619 42.34C110.283 42.604 109.935 42.8 109.575 42.928C109.215 43.056 108.831 43.12 108.423 43.12ZM106.395 39.64H110.103C110.063 39.288 109.955 38.976 109.779 38.704C109.611 38.424 109.395 38.204 109.131 38.044C108.875 37.884 108.587 37.804 108.267 37.804C107.947 37.804 107.655 37.884 107.391 38.044C107.127 38.196 106.907 38.412 106.731 38.692C106.563 38.964 106.451 39.28 106.395 39.64ZM114.519 43.12C114.015 43.12 113.631 43 113.367 42.76C113.111 42.512 112.983 42.156 112.983 41.692V37.864H111.771V37.144H112.983V35.536L113.859 35.332V37.144H115.539V37.864H113.859V41.464C113.859 41.776 113.923 42 114.051 42.136C114.187 42.272 114.407 42.34 114.711 42.34C114.863 42.34 114.999 42.328 115.119 42.304C115.239 42.28 115.379 42.24 115.539 42.184V42.964C115.379 43.02 115.211 43.06 115.035 43.084C114.859 43.108 114.687 43.12 114.519 43.12ZM118.634 43.108C118.218 43.108 117.85 43.032 117.53 42.88C117.21 42.728 116.958 42.52 116.774 42.256C116.598 41.984 116.51 41.672 116.51 41.32C116.51 40.968 116.602 40.664 116.786 40.408C116.97 40.144 117.226 39.94 117.554 39.796C117.882 39.652 118.266 39.58 118.706 39.58C119.042 39.58 119.358 39.616 119.654 39.688C119.958 39.76 120.238 39.876 120.494 40.036V39.232C120.494 38.752 120.366 38.392 120.11 38.152C119.854 37.904 119.478 37.78 118.982 37.78C118.71 37.78 118.43 37.82 118.142 37.9C117.862 37.98 117.55 38.108 117.206 38.284L116.882 37.612C117.666 37.236 118.402 37.048 119.09 37.048C119.818 37.048 120.378 37.228 120.77 37.588C121.162 37.94 121.358 38.448 121.358 39.112V43H120.494V42.316C120.238 42.58 119.954 42.78 119.642 42.916C119.33 43.044 118.994 43.108 118.634 43.108ZM117.35 41.296C117.35 41.64 117.482 41.916 117.746 42.124C118.018 42.332 118.374 42.436 118.814 42.436C119.142 42.436 119.442 42.38 119.714 42.268C119.994 42.156 120.254 41.988 120.494 41.764V40.636C120.246 40.492 119.99 40.388 119.726 40.324C119.462 40.252 119.166 40.216 118.838 40.216C118.39 40.216 118.03 40.316 117.758 40.516C117.486 40.708 117.35 40.968 117.35 41.296ZM128.567 43.096C128.023 43.096 127.531 42.964 127.091 42.7C126.659 42.428 126.315 42.064 126.059 41.608C125.803 41.144 125.675 40.632 125.675 40.072C125.675 39.504 125.803 38.992 126.059 38.536C126.315 38.08 126.659 37.72 127.091 37.456C127.531 37.184 128.023 37.048 128.567 37.048C128.999 37.048 129.411 37.128 129.803 37.288C130.195 37.448 130.535 37.672 130.823 37.96L130.259 38.572C130.051 38.34 129.799 38.16 129.503 38.032C129.207 37.904 128.907 37.84 128.603 37.84C128.219 37.84 127.871 37.94 127.559 38.14C127.255 38.34 127.011 38.608 126.827 38.944C126.643 39.28 126.551 39.656 126.551 40.072C126.551 40.488 126.643 40.864 126.827 41.2C127.011 41.536 127.255 41.804 127.559 42.004C127.871 42.204 128.219 42.304 128.603 42.304C128.907 42.304 129.207 42.24 129.503 42.112C129.799 41.976 130.051 41.796 130.259 41.572L130.823 42.184C130.535 42.472 130.195 42.696 129.803 42.856C129.411 43.016 128.999 43.096 128.567 43.096ZM134.461 43.096C133.917 43.096 133.429 42.964 132.997 42.7C132.565 42.436 132.225 42.076 131.977 41.62C131.729 41.164 131.605 40.648 131.605 40.072C131.605 39.496 131.729 38.98 131.977 38.524C132.225 38.068 132.565 37.708 132.997 37.444C133.429 37.18 133.917 37.048 134.461 37.048C134.997 37.048 135.477 37.18 135.901 37.444C136.333 37.708 136.673 38.068 136.921 38.524C137.169 38.98 137.293 39.496 137.293 40.072C137.293 40.648 137.169 41.164 136.921 41.62C136.673 42.076 136.333 42.436 135.901 42.7C135.477 42.964 134.997 43.096 134.461 43.096ZM134.449 42.328C134.833 42.328 135.173 42.232 135.469 42.04C135.765 41.84 135.997 41.568 136.165 41.224C136.341 40.88 136.429 40.496 136.429 40.072C136.429 39.64 136.341 39.256 136.165 38.92C135.997 38.576 135.765 38.308 135.469 38.116C135.173 37.916 134.833 37.816 134.449 37.816C134.065 37.816 133.725 37.916 133.429 38.116C133.133 38.308 132.897 38.576 132.721 38.92C132.553 39.256 132.469 39.64 132.469 40.072C132.469 40.496 132.553 40.88 132.721 41.224C132.897 41.568 133.133 41.84 133.429 42.04C133.725 42.232 134.065 42.328 134.449 42.328ZM138.83 43V37.144H139.706V38.056C139.93 37.72 140.186 37.468 140.474 37.3C140.762 37.132 141.086 37.048 141.446 37.048C141.862 37.048 142.226 37.152 142.538 37.36C142.85 37.56 143.086 37.836 143.246 38.188C143.478 37.812 143.754 37.528 144.074 37.336C144.402 37.144 144.778 37.048 145.202 37.048C145.594 37.048 145.938 37.14 146.234 37.324C146.538 37.508 146.774 37.764 146.942 38.092C147.11 38.412 147.194 38.788 147.194 39.22V43H146.318V39.436C146.318 38.924 146.19 38.52 145.934 38.224C145.678 37.928 145.326 37.78 144.878 37.78C144.574 37.78 144.298 37.856 144.05 38.008C143.81 38.16 143.598 38.392 143.414 38.704C143.43 38.784 143.442 38.868 143.45 38.956C143.458 39.044 143.462 39.132 143.462 39.22V43H142.586V39.436C142.586 38.924 142.454 38.52 142.19 38.224C141.934 37.928 141.582 37.78 141.134 37.78C140.534 37.78 140.058 38.068 139.706 38.644V43H138.83ZM148.966 45.508V37.144H149.83V37.984C150.054 37.688 150.326 37.464 150.646 37.312C150.974 37.152 151.334 37.072 151.726 37.072C152.238 37.072 152.694 37.208 153.094 37.48C153.502 37.744 153.826 38.104 154.066 38.56C154.306 39.008 154.426 39.512 154.426 40.072C154.426 40.632 154.302 41.14 154.054 41.596C153.814 42.052 153.486 42.416 153.07 42.688C152.662 42.952 152.198 43.084 151.678 43.084C151.31 43.084 150.97 43.016 150.658 42.88C150.346 42.736 150.074 42.532 149.842 42.268V45.508H148.966ZM151.51 42.328C151.902 42.328 152.25 42.232 152.554 42.04C152.866 41.84 153.11 41.572 153.286 41.236C153.47 40.892 153.562 40.508 153.562 40.084C153.562 39.652 153.47 39.268 153.286 38.932C153.11 38.596 152.866 38.332 152.554 38.14C152.25 37.94 151.902 37.84 151.51 37.84C151.166 37.84 150.846 37.912 150.55 38.056C150.262 38.192 150.026 38.388 149.842 38.644V41.512C150.034 41.768 150.274 41.968 150.562 42.112C150.858 42.256 151.174 42.328 151.51 42.328ZM158.555 43.096C158.011 43.096 157.523 42.964 157.091 42.7C156.659 42.436 156.319 42.076 156.071 41.62C155.823 41.164 155.699 40.648 155.699 40.072C155.699 39.496 155.823 38.98 156.071 38.524C156.319 38.068 156.659 37.708 157.091 37.444C157.523 37.18 158.011 37.048 158.555 37.048C159.091 37.048 159.571 37.18 159.995 37.444C160.427 37.708 160.767 38.068 161.015 38.524C161.263 38.98 161.387 39.496 161.387 40.072C161.387 40.648 161.263 41.164 161.015 41.62C160.767 42.076 160.427 42.436 159.995 42.7C159.571 42.964 159.091 43.096 158.555 43.096ZM158.543 42.328C158.927 42.328 159.267 42.232 159.563 42.04C159.859 41.84 160.091 41.568 160.259 41.224C160.435 40.88 160.523 40.496 160.523 40.072C160.523 39.64 160.435 39.256 160.259 38.92C160.091 38.576 159.859 38.308 159.563 38.116C159.267 37.916 158.927 37.816 158.543 37.816C158.159 37.816 157.819 37.916 157.523 38.116C157.227 38.308 156.991 38.576 156.815 38.92C156.647 39.256 156.562 39.64 156.562 40.072C156.562 40.496 156.647 40.88 156.815 41.224C156.991 41.568 157.227 41.84 157.523 42.04C157.819 42.232 158.159 42.328 158.543 42.328ZM162.923 43V37.144H163.799V38.092C164.023 37.74 164.291 37.48 164.603 37.312C164.915 37.136 165.267 37.048 165.659 37.048C166.083 37.048 166.451 37.14 166.763 37.324C167.083 37.5 167.331 37.752 167.507 38.08C167.691 38.4 167.783 38.776 167.783 39.208V43H166.907V39.46C166.907 38.94 166.763 38.532 166.475 38.236C166.195 37.932 165.815 37.78 165.335 37.78C165.015 37.78 164.723 37.856 164.459 38.008C164.195 38.16 163.975 38.384 163.799 38.68V43H162.923ZM172.185 43.12C171.641 43.12 171.149 42.988 170.709 42.724C170.269 42.452 169.921 42.088 169.665 41.632C169.409 41.168 169.281 40.648 169.281 40.072C169.281 39.496 169.401 38.98 169.641 38.524C169.889 38.068 170.221 37.708 170.637 37.444C171.053 37.18 171.517 37.048 172.029 37.048C172.549 37.048 173.009 37.18 173.409 37.444C173.817 37.7 174.137 38.052 174.369 38.5C174.609 38.94 174.729 39.44 174.729 40V40.264H170.133C170.165 40.664 170.273 41.024 170.457 41.344C170.649 41.656 170.897 41.904 171.201 42.088C171.513 42.264 171.853 42.352 172.221 42.352C172.525 42.352 172.817 42.3 173.097 42.196C173.385 42.084 173.629 41.936 173.829 41.752L174.381 42.34C174.045 42.604 173.697 42.8 173.337 42.928C172.977 43.056 172.593 43.12 172.185 43.12ZM170.157 39.64H173.865C173.825 39.288 173.717 38.976 173.541 38.704C173.373 38.424 173.157 38.204 172.893 38.044C172.637 37.884 172.349 37.804 172.029 37.804C171.709 37.804 171.417 37.884 171.153 38.044C170.889 38.196 170.669 38.412 170.493 38.692C170.325 38.964 170.213 39.28 170.157 39.64ZM176.224 43V37.144H177.1V38.092C177.324 37.74 177.592 37.48 177.904 37.312C178.216 37.136 178.568 37.048 178.96 37.048C179.384 37.048 179.752 37.14 180.064 37.324C180.384 37.5 180.632 37.752 180.808 38.08C180.992 38.4 181.084 38.776 181.084 39.208V43H180.208V39.46C180.208 38.94 180.064 38.532 179.776 38.236C179.496 37.932 179.116 37.78 178.636 37.78C178.316 37.78 178.024 37.856 177.76 38.008C177.496 38.16 177.276 38.384 177.1 38.68V43H176.224ZM184.902 43.12C184.398 43.12 184.014 43 183.75 42.76C183.494 42.512 183.366 42.156 183.366 41.692V37.864H182.154V37.144H183.366V35.536L184.242 35.332V37.144H185.922V37.864H184.242V41.464C184.242 41.776 184.306 42 184.434 42.136C184.57 42.272 184.79 42.34 185.094 42.34C185.246 42.34 185.382 42.328 185.502 42.304C185.622 42.28 185.762 42.24 185.922 42.184V42.964C185.762 43.02 185.594 43.06 185.418 43.084C185.242 43.108 185.07 43.12 184.902 43.12ZM189.993 43V37.144H190.869V43H189.993ZM190.437 35.692C190.261 35.692 190.109 35.632 189.981 35.512C189.861 35.384 189.801 35.236 189.801 35.068C189.801 34.9 189.861 34.756 189.981 34.636C190.109 34.508 190.261 34.444 190.437 34.444C190.613 34.444 190.761 34.508 190.881 34.636C191.009 34.756 191.073 34.9 191.073 35.068C191.073 35.236 191.009 35.384 190.881 35.512C190.761 35.632 190.613 35.692 190.437 35.692ZM194.478 43.12C193.998 43.12 193.554 43.048 193.146 42.904C192.738 42.752 192.39 42.536 192.102 42.256L192.57 41.68C192.922 41.936 193.246 42.124 193.542 42.244C193.838 42.356 194.142 42.412 194.454 42.412C194.878 42.412 195.23 42.312 195.51 42.112C195.79 41.912 195.93 41.656 195.93 41.344C195.93 41.104 195.846 40.916 195.678 40.78C195.518 40.644 195.25 40.54 194.874 40.468L193.914 40.3C193.346 40.196 192.926 40.02 192.654 39.772C192.39 39.524 192.258 39.188 192.258 38.764C192.258 38.428 192.346 38.132 192.522 37.876C192.706 37.62 192.958 37.42 193.278 37.276C193.598 37.124 193.962 37.048 194.37 37.048C194.77 37.048 195.15 37.108 195.51 37.228C195.87 37.34 196.234 37.524 196.602 37.78L196.17 38.392C195.866 38.176 195.562 38.02 195.258 37.924C194.954 37.82 194.646 37.768 194.334 37.768C193.95 37.768 193.642 37.852 193.41 38.02C193.178 38.188 193.062 38.416 193.062 38.704C193.062 38.944 193.134 39.128 193.278 39.256C193.43 39.384 193.694 39.48 194.07 39.544L195.054 39.724C195.646 39.828 196.078 40.008 196.35 40.264C196.622 40.52 196.758 40.864 196.758 41.296C196.758 41.64 196.658 41.952 196.458 42.232C196.258 42.504 195.986 42.72 195.642 42.88C195.298 43.04 194.91 43.12 194.478 43.12ZM203.52 43.096C202.976 43.096 202.484 42.964 202.044 42.7C201.612 42.428 201.268 42.064 201.012 41.608C200.756 41.144 200.628 40.632 200.628 40.072C200.628 39.504 200.756 38.992 201.012 38.536C201.268 38.08 201.612 37.72 202.044 37.456C202.484 37.184 202.976 37.048 203.52 37.048C203.952 37.048 204.364 37.128 204.756 37.288C205.148 37.448 205.488 37.672 205.776 37.96L205.212 38.572C205.004 38.34 204.752 38.16 204.456 38.032C204.16 37.904 203.86 37.84 203.556 37.84C203.172 37.84 202.824 37.94 202.512 38.14C202.208 38.34 201.964 38.608 201.78 38.944C201.596 39.28 201.504 39.656 201.504 40.072C201.504 40.488 201.596 40.864 201.78 41.2C201.964 41.536 202.208 41.804 202.512 42.004C202.824 42.204 203.172 42.304 203.556 42.304C203.86 42.304 204.16 42.24 204.456 42.112C204.752 41.976 205.004 41.796 205.212 41.572L205.776 42.184C205.488 42.472 205.148 42.696 204.756 42.856C204.364 43.016 203.952 43.096 203.52 43.096ZM209.086 43.096C208.67 43.096 208.302 43.004 207.982 42.82C207.662 42.636 207.41 42.38 207.226 42.052C207.05 41.724 206.962 41.348 206.962 40.924V37.144H207.85V40.672C207.85 41.192 207.99 41.604 208.27 41.908C208.55 42.212 208.93 42.364 209.41 42.364C209.738 42.364 210.03 42.288 210.286 42.136C210.55 41.984 210.77 41.764 210.946 41.476V37.144H211.822V43H210.946V42.052C210.722 42.396 210.454 42.656 210.142 42.832C209.838 43.008 209.486 43.096 209.086 43.096ZM213.619 43V37.144H214.495V38.344C214.647 37.936 214.863 37.62 215.143 37.396C215.431 37.164 215.759 37.048 216.127 37.048C216.231 37.048 216.327 37.056 216.415 37.072C216.503 37.08 216.591 37.1 216.679 37.132V37.924C216.583 37.892 216.479 37.868 216.367 37.852C216.263 37.828 216.163 37.816 216.067 37.816C215.707 37.816 215.391 37.92 215.119 38.128C214.855 38.336 214.647 38.628 214.495 39.004V43H213.619ZM217.838 43V37.144H218.714V38.344C218.866 37.936 219.082 37.62 219.362 37.396C219.65 37.164 219.978 37.048 220.346 37.048C220.45 37.048 220.546 37.056 220.634 37.072C220.722 37.08 220.81 37.1 220.898 37.132V37.924C220.802 37.892 220.698 37.868 220.586 37.852C220.482 37.828 220.382 37.816 220.286 37.816C219.926 37.816 219.61 37.92 219.338 38.128C219.074 38.336 218.866 38.628 218.714 39.004V43H217.838ZM224.333 43.12C223.789 43.12 223.297 42.988 222.857 42.724C222.417 42.452 222.069 42.088 221.813 41.632C221.557 41.168 221.429 40.648 221.429 40.072C221.429 39.496 221.549 38.98 221.789 38.524C222.037 38.068 222.369 37.708 222.785 37.444C223.201 37.18 223.665 37.048 224.177 37.048C224.697 37.048 225.157 37.18 225.557 37.444C225.965 37.7 226.285 38.052 226.517 38.5C226.757 38.94 226.877 39.44 226.877 40V40.264H222.281C222.313 40.664 222.421 41.024 222.605 41.344C222.797 41.656 223.045 41.904 223.349 42.088C223.661 42.264 224.001 42.352 224.369 42.352C224.673 42.352 224.965 42.3 225.245 42.196C225.533 42.084 225.777 41.936 225.977 41.752L226.529 42.34C226.193 42.604 225.845 42.8 225.485 42.928C225.125 43.056 224.741 43.12 224.333 43.12ZM222.305 39.64H226.013C225.973 39.288 225.865 38.976 225.689 38.704C225.521 38.424 225.305 38.204 225.041 38.044C224.785 37.884 224.497 37.804 224.177 37.804C223.857 37.804 223.565 37.884 223.301 38.044C223.037 38.196 222.817 38.412 222.641 38.692C222.473 38.964 222.361 39.28 222.305 39.64ZM228.373 43V37.144H229.249V38.092C229.473 37.74 229.741 37.48 230.053 37.312C230.365 37.136 230.717 37.048 231.109 37.048C231.533 37.048 231.901 37.14 232.213 37.324C232.533 37.5 232.781 37.752 232.957 38.08C233.141 38.4 233.233 38.776 233.233 39.208V43H232.357V39.46C232.357 38.94 232.213 38.532 231.925 38.236C231.645 37.932 231.265 37.78 230.785 37.78C230.465 37.78 230.173 37.856 229.909 38.008C229.645 38.16 229.425 38.384 229.249 38.68V43H228.373ZM237.05 43.12C236.546 43.12 236.162 43 235.898 42.76C235.642 42.512 235.514 42.156 235.514 41.692V37.864H234.302V37.144H235.514V35.536L236.39 35.332V37.144H238.07V37.864H236.39V41.464C236.39 41.776 236.454 42 236.582 42.136C236.718 42.272 236.938 42.34 237.242 42.34C237.394 42.34 237.53 42.328 237.65 42.304C237.77 42.28 237.91 42.24 238.07 42.184V42.964C237.91 43.02 237.742 43.06 237.566 43.084C237.39 43.108 237.218 43.12 237.05 43.12ZM239.353 43V34.336L240.229 34.156V43H239.353ZM242.277 45.628C242.093 45.628 241.905 45.6 241.713 45.544V44.764C241.793 44.78 241.877 44.792 241.965 44.8C242.053 44.808 242.129 44.812 242.193 44.812C242.417 44.812 242.601 44.752 242.745 44.632C242.897 44.512 243.025 44.324 243.129 44.068L243.561 43L241.305 37.144H242.277L244.053 41.956L245.937 37.144H246.909L243.957 44.332C243.829 44.644 243.689 44.896 243.537 45.088C243.385 45.28 243.209 45.416 243.009 45.496C242.809 45.584 242.565 45.628 242.277 45.628ZM252.89 43.096C252.474 43.096 252.106 43.004 251.786 42.82C251.466 42.636 251.214 42.38 251.03 42.052C250.854 41.724 250.766 41.348 250.766 40.924V37.144H251.654V40.672C251.654 41.192 251.794 41.604 252.074 41.908C252.354 42.212 252.734 42.364 253.214 42.364C253.542 42.364 253.834 42.288 254.09 42.136C254.354 41.984 254.574 41.764 254.75 41.476V37.144H255.626V43H254.75V42.052C254.526 42.396 254.258 42.656 253.946 42.832C253.642 43.008 253.29 43.096 252.89 43.096ZM257.423 43V37.144H258.299V38.092C258.523 37.74 258.791 37.48 259.103 37.312C259.415 37.136 259.767 37.048 260.159 37.048C260.583 37.048 260.951 37.14 261.263 37.324C261.583 37.5 261.831 37.752 262.007 38.08C262.191 38.4 262.283 38.776 262.283 39.208V43H261.407V39.46C261.407 38.94 261.263 38.532 260.975 38.236C260.695 37.932 260.315 37.78 259.835 37.78C259.515 37.78 259.223 37.856 258.959 38.008C258.695 38.16 258.475 38.384 258.299 38.68V43H257.423ZM266.481 43.084C265.977 43.084 265.521 42.952 265.113 42.688C264.705 42.416 264.381 42.056 264.141 41.608C263.901 41.152 263.781 40.644 263.781 40.084C263.781 39.516 263.901 39.008 264.141 38.56C264.389 38.104 264.721 37.744 265.137 37.48C265.553 37.208 266.017 37.072 266.529 37.072C266.889 37.072 267.225 37.144 267.537 37.288C267.849 37.424 268.121 37.624 268.353 37.888V34.336L269.229 34.156V43H268.353V42.22C268.129 42.5 267.857 42.716 267.537 42.868C267.217 43.012 266.865 43.084 266.481 43.084ZM266.697 42.316C267.041 42.316 267.357 42.248 267.645 42.112C267.933 41.976 268.169 41.784 268.353 41.536V38.632C268.161 38.384 267.917 38.192 267.621 38.056C267.333 37.912 267.025 37.84 266.697 37.84C266.305 37.84 265.953 37.936 265.641 38.128C265.337 38.32 265.093 38.584 264.909 38.92C264.733 39.256 264.645 39.64 264.645 40.072C264.645 40.496 264.733 40.88 264.909 41.224C265.093 41.56 265.337 41.828 265.641 42.028C265.953 42.22 266.305 42.316 266.697 42.316ZM273.669 43.12C273.125 43.12 272.633 42.988 272.193 42.724C271.753 42.452 271.405 42.088 271.149 41.632C270.893 41.168 270.765 40.648 270.765 40.072C270.765 39.496 270.885 38.98 271.125 38.524C271.373 38.068 271.705 37.708 272.121 37.444C272.537 37.18 273.001 37.048 273.513 37.048C274.033 37.048 274.493 37.18 274.893 37.444C275.301 37.7 275.621 38.052 275.853 38.5C276.093 38.94 276.213 39.44 276.213 40V40.264H271.617C271.649 40.664 271.757 41.024 271.941 41.344C272.133 41.656 272.381 41.904 272.685 42.088C272.997 42.264 273.337 42.352 273.705 42.352C274.009 42.352 274.301 42.3 274.581 42.196C274.869 42.084 275.113 41.936 275.313 41.752L275.865 42.34C275.529 42.604 275.181 42.8 274.821 42.928C274.461 43.056 274.077 43.12 273.669 43.12ZM271.641 39.64H275.349C275.309 39.288 275.201 38.976 275.025 38.704C274.857 38.424 274.641 38.204 274.377 38.044C274.121 37.884 273.833 37.804 273.513 37.804C273.193 37.804 272.901 37.884 272.637 38.044C272.373 38.196 272.153 38.412 271.977 38.692C271.809 38.964 271.697 39.28 271.641 39.64ZM277.709 43V37.144H278.585V38.344C278.737 37.936 278.953 37.62 279.233 37.396C279.521 37.164 279.849 37.048 280.217 37.048C280.321 37.048 280.417 37.056 280.505 37.072C280.593 37.08 280.681 37.1 280.769 37.132V37.924C280.673 37.892 280.569 37.868 280.457 37.852C280.353 37.828 280.253 37.816 280.157 37.816C279.797 37.816 279.481 37.92 279.209 38.128C278.945 38.336 278.737 38.628 278.585 39.004V43H277.709ZM62.0133 61V55.144H62.8893V56.344C63.0413 55.936 63.2573 55.62 63.5373 55.396C63.8253 55.164 64.1533 55.048 64.5213 55.048C64.6253 55.048 64.7213 55.056 64.8093 55.072C64.8973 55.08 64.9853 55.1 65.0733 55.132V55.924C64.9773 55.892 64.8733 55.868 64.7613 55.852C64.6573 55.828 64.5573 55.816 64.4613 55.816C64.1013 55.816 63.7853 55.92 63.5133 56.128C63.2493 56.336 63.0413 56.628 62.8893 57.004V61H62.0133ZM68.5088 61.12C67.9648 61.12 67.4728 60.988 67.0328 60.724C66.5928 60.452 66.2448 60.088 65.9888 59.632C65.7328 59.168 65.6048 58.648 65.6048 58.072C65.6048 57.496 65.7248 56.98 65.9648 56.524C66.2128 56.068 66.5448 55.708 66.9608 55.444C67.3768 55.18 67.8408 55.048 68.3528 55.048C68.8728 55.048 69.3328 55.18 69.7328 55.444C70.1408 55.7 70.4608 56.052 70.6928 56.5C70.9328 56.94 71.0528 57.44 71.0528 58V58.264H66.4568C66.4888 58.664 66.5968 59.024 66.7808 59.344C66.9728 59.656 67.2208 59.904 67.5248 60.088C67.8368 60.264 68.1768 60.352 68.5448 60.352C68.8488 60.352 69.1408 60.3 69.4208 60.196C69.7088 60.084 69.9528 59.936 70.1528 59.752L70.7048 60.34C70.3688 60.604 70.0208 60.8 69.6608 60.928C69.3008 61.056 68.9168 61.12 68.5088 61.12ZM66.4808 57.64H70.1888C70.1488 57.288 70.0408 56.976 69.8648 56.704C69.6968 56.424 69.4808 56.204 69.2168 56.044C68.9608 55.884 68.6728 55.804 68.3528 55.804C68.0328 55.804 67.7408 55.884 67.4768 56.044C67.2128 56.196 66.9928 56.412 66.8168 56.692C66.6488 56.964 66.5368 57.28 66.4808 57.64ZM74.0527 61L71.6527 55.144H72.6007L74.4967 59.908L76.3687 55.144H77.3047L74.8927 61H74.0527ZM78.3724 61V55.144H79.2484V61H78.3724ZM78.8164 53.692C78.6404 53.692 78.4884 53.632 78.3604 53.512C78.2404 53.384 78.1804 53.236 78.1804 53.068C78.1804 52.9 78.2404 52.756 78.3604 52.636C78.4884 52.508 78.6404 52.444 78.8164 52.444C78.9924 52.444 79.1404 52.508 79.2604 52.636C79.3884 52.756 79.4524 52.9 79.4524 53.068C79.4524 53.236 79.3884 53.384 79.2604 53.512C79.1404 53.632 78.9924 53.692 78.8164 53.692ZM83.6845 61.12C83.1405 61.12 82.6485 60.988 82.2085 60.724C81.7685 60.452 81.4205 60.088 81.1645 59.632C80.9085 59.168 80.7805 58.648 80.7805 58.072C80.7805 57.496 80.9005 56.98 81.1405 56.524C81.3885 56.068 81.7205 55.708 82.1365 55.444C82.5525 55.18 83.0165 55.048 83.5285 55.048C84.0485 55.048 84.5085 55.18 84.9085 55.444C85.3165 55.7 85.6365 56.052 85.8685 56.5C86.1085 56.94 86.2285 57.44 86.2285 58V58.264H81.6325C81.6645 58.664 81.7725 59.024 81.9565 59.344C82.1485 59.656 82.3965 59.904 82.7005 60.088C83.0125 60.264 83.3525 60.352 83.7205 60.352C84.0245 60.352 84.3165 60.3 84.5965 60.196C84.8845 60.084 85.1285 59.936 85.3285 59.752L85.8805 60.34C85.5445 60.604 85.1965 60.8 84.8365 60.928C84.4765 61.056 84.0925 61.12 83.6845 61.12ZM81.6565 57.64H85.3645C85.3245 57.288 85.2165 56.976 85.0405 56.704C84.8725 56.424 84.6565 56.204 84.3925 56.044C84.1365 55.884 83.8485 55.804 83.5285 55.804C83.2085 55.804 82.9165 55.884 82.6525 56.044C82.3885 56.196 82.1685 56.412 81.9925 56.692C81.8245 56.964 81.7125 57.28 81.6565 57.64ZM88.651 61L87.043 55.144H87.895L89.119 59.824L90.523 55.144H91.303L92.707 59.824L93.919 55.144H94.747L93.151 61H92.299L90.907 56.272L89.515 61H88.651ZM100.599 61.108C100.183 61.108 99.8147 61.032 99.4947 60.88C99.1747 60.728 98.9227 60.52 98.7387 60.256C98.5627 59.984 98.4747 59.672 98.4747 59.32C98.4747 58.968 98.5667 58.664 98.7507 58.408C98.9347 58.144 99.1907 57.94 99.5187 57.796C99.8467 57.652 100.231 57.58 100.671 57.58C101.007 57.58 101.323 57.616 101.619 57.688C101.923 57.76 102.203 57.876 102.459 58.036V57.232C102.459 56.752 102.331 56.392 102.075 56.152C101.819 55.904 101.443 55.78 100.947 55.78C100.675 55.78 100.395 55.82 100.107 55.9C99.8267 55.98 99.5147 56.108 99.1707 56.284L98.8467 55.612C99.6307 55.236 100.367 55.048 101.055 55.048C101.783 55.048 102.343 55.228 102.735 55.588C103.127 55.94 103.323 56.448 103.323 57.112V61H102.459V60.316C102.203 60.58 101.919 60.78 101.607 60.916C101.295 61.044 100.959 61.108 100.599 61.108ZM99.3147 59.296C99.3147 59.64 99.4467 59.916 99.7107 60.124C99.9827 60.332 100.339 60.436 100.779 60.436C101.107 60.436 101.407 60.38 101.679 60.268C101.959 60.156 102.219 59.988 102.459 59.764V58.636C102.211 58.492 101.955 58.388 101.691 58.324C101.427 58.252 101.131 58.216 100.803 58.216C100.355 58.216 99.9947 58.316 99.7227 58.516C99.4507 58.708 99.3147 58.968 99.3147 59.296ZM105.103 61V55.144H105.979V56.092C106.203 55.74 106.471 55.48 106.783 55.312C107.095 55.136 107.447 55.048 107.839 55.048C108.263 55.048 108.631 55.14 108.943 55.324C109.263 55.5 109.511 55.752 109.687 56.08C109.871 56.4 109.963 56.776 109.963 57.208V61H109.087V57.46C109.087 56.94 108.943 56.532 108.655 56.236C108.375 55.932 107.995 55.78 107.515 55.78C107.195 55.78 106.903 55.856 106.639 56.008C106.375 56.16 106.155 56.384 105.979 56.68V61H105.103ZM114.16 61.084C113.656 61.084 113.2 60.952 112.792 60.688C112.384 60.416 112.06 60.056 111.82 59.608C111.58 59.152 111.46 58.644 111.46 58.084C111.46 57.516 111.58 57.008 111.82 56.56C112.068 56.104 112.4 55.744 112.816 55.48C113.232 55.208 113.696 55.072 114.208 55.072C114.568 55.072 114.904 55.144 115.216 55.288C115.528 55.424 115.8 55.624 116.032 55.888V52.336L116.908 52.156V61H116.032V60.22C115.808 60.5 115.536 60.716 115.216 60.868C114.896 61.012 114.544 61.084 114.16 61.084ZM114.376 60.316C114.72 60.316 115.036 60.248 115.324 60.112C115.612 59.976 115.848 59.784 116.032 59.536V56.632C115.84 56.384 115.596 56.192 115.3 56.056C115.012 55.912 114.704 55.84 114.376 55.84C113.984 55.84 113.632 55.936 113.32 56.128C113.016 56.32 112.772 56.584 112.588 56.92C112.412 57.256 112.324 57.64 112.324 58.072C112.324 58.496 112.412 58.88 112.588 59.224C112.772 59.56 113.016 59.828 113.32 60.028C113.632 60.22 113.984 60.316 114.376 60.316ZM121.497 61V55.144H122.373V61H121.497ZM121.941 53.692C121.765 53.692 121.613 53.632 121.485 53.512C121.365 53.384 121.305 53.236 121.305 53.068C121.305 52.9 121.365 52.756 121.485 52.636C121.613 52.508 121.765 52.444 121.941 52.444C122.117 52.444 122.265 52.508 122.385 52.636C122.513 52.756 122.577 52.9 122.577 53.068C122.577 53.236 122.513 53.384 122.385 53.512C122.265 53.632 122.117 53.692 121.941 53.692ZM125.982 61.12C125.502 61.12 125.058 61.048 124.65 60.904C124.242 60.752 123.894 60.536 123.606 60.256L124.074 59.68C124.426 59.936 124.75 60.124 125.046 60.244C125.342 60.356 125.646 60.412 125.958 60.412C126.382 60.412 126.734 60.312 127.014 60.112C127.294 59.912 127.434 59.656 127.434 59.344C127.434 59.104 127.35 58.916 127.182 58.78C127.022 58.644 126.754 58.54 126.378 58.468L125.418 58.3C124.85 58.196 124.43 58.02 124.158 57.772C123.894 57.524 123.762 57.188 123.762 56.764C123.762 56.428 123.85 56.132 124.026 55.876C124.21 55.62 124.462 55.42 124.782 55.276C125.102 55.124 125.466 55.048 125.874 55.048C126.274 55.048 126.654 55.108 127.014 55.228C127.374 55.34 127.738 55.524 128.106 55.78L127.674 56.392C127.37 56.176 127.066 56.02 126.762 55.924C126.458 55.82 126.15 55.768 125.838 55.768C125.454 55.768 125.146 55.852 124.914 56.02C124.682 56.188 124.566 56.416 124.566 56.704C124.566 56.944 124.638 57.128 124.782 57.256C124.934 57.384 125.198 57.48 125.574 57.544L126.558 57.724C127.15 57.828 127.582 58.008 127.854 58.264C128.126 58.52 128.262 58.864 128.262 59.296C128.262 59.64 128.162 59.952 127.962 60.232C127.762 60.504 127.49 60.72 127.146 60.88C126.802 61.04 126.414 61.12 125.982 61.12ZM134.208 61.12C133.728 61.12 133.284 61.048 132.876 60.904C132.468 60.752 132.12 60.536 131.832 60.256L132.3 59.68C132.652 59.936 132.976 60.124 133.272 60.244C133.568 60.356 133.872 60.412 134.184 60.412C134.608 60.412 134.96 60.312 135.24 60.112C135.52 59.912 135.66 59.656 135.66 59.344C135.66 59.104 135.576 58.916 135.408 58.78C135.248 58.644 134.98 58.54 134.604 58.468L133.644 58.3C133.076 58.196 132.656 58.02 132.384 57.772C132.12 57.524 131.988 57.188 131.988 56.764C131.988 56.428 132.076 56.132 132.252 55.876C132.436 55.62 132.688 55.42 133.008 55.276C133.328 55.124 133.692 55.048 134.1 55.048C134.5 55.048 134.88 55.108 135.24 55.228C135.6 55.34 135.964 55.524 136.332 55.78L135.9 56.392C135.596 56.176 135.292 56.02 134.988 55.924C134.684 55.82 134.376 55.768 134.064 55.768C133.68 55.768 133.372 55.852 133.14 56.02C132.908 56.188 132.792 56.416 132.792 56.704C132.792 56.944 132.864 57.128 133.008 57.256C133.16 57.384 133.424 57.48 133.8 57.544L134.784 57.724C135.376 57.828 135.808 58.008 136.08 58.264C136.352 58.52 136.488 58.864 136.488 59.296C136.488 59.64 136.388 59.952 136.188 60.232C135.988 60.504 135.716 60.72 135.372 60.88C135.028 61.04 134.64 61.12 134.208 61.12ZM139.937 61.12C139.433 61.12 139.049 61 138.785 60.76C138.529 60.512 138.401 60.156 138.401 59.692V55.864H137.189V55.144H138.401V53.536L139.277 53.332V55.144H140.957V55.864H139.277V59.464C139.277 59.776 139.341 60 139.469 60.136C139.605 60.272 139.825 60.34 140.129 60.34C140.281 60.34 140.417 60.328 140.537 60.304C140.657 60.28 140.797 60.24 140.957 60.184V60.964C140.797 61.02 140.629 61.06 140.453 61.084C140.277 61.108 140.105 61.12 139.937 61.12ZM142.228 61V55.144H143.104V61H142.228ZM142.672 53.692C142.496 53.692 142.344 53.632 142.216 53.512C142.096 53.384 142.036 53.236 142.036 53.068C142.036 52.9 142.096 52.756 142.216 52.636C142.344 52.508 142.496 52.444 142.672 52.444C142.848 52.444 142.996 52.508 143.116 52.636C143.244 52.756 143.308 52.9 143.308 53.068C143.308 53.236 143.244 53.384 143.116 53.512C142.996 53.632 142.848 53.692 142.672 53.692ZM144.9 61V52.336L145.776 52.156V61H144.9ZM147.572 61V52.336L148.448 52.156V61H147.572ZM155.637 61.096C155.093 61.096 154.605 60.964 154.173 60.7C153.741 60.436 153.401 60.076 153.153 59.62C152.905 59.164 152.781 58.648 152.781 58.072C152.781 57.496 152.905 56.98 153.153 56.524C153.401 56.068 153.741 55.708 154.173 55.444C154.605 55.18 155.093 55.048 155.637 55.048C156.173 55.048 156.653 55.18 157.077 55.444C157.509 55.708 157.849 56.068 158.097 56.524C158.345 56.98 158.469 57.496 158.469 58.072C158.469 58.648 158.345 59.164 158.097 59.62C157.849 60.076 157.509 60.436 157.077 60.7C156.653 60.964 156.173 61.096 155.637 61.096ZM155.625 60.328C156.009 60.328 156.349 60.232 156.645 60.04C156.941 59.84 157.173 59.568 157.341 59.224C157.517 58.88 157.605 58.496 157.605 58.072C157.605 57.64 157.517 57.256 157.341 56.92C157.173 56.576 156.941 56.308 156.645 56.116C156.349 55.916 156.009 55.816 155.625 55.816C155.241 55.816 154.901 55.916 154.605 56.116C154.309 56.308 154.073 56.576 153.897 56.92C153.729 57.256 153.645 57.64 153.645 58.072C153.645 58.496 153.729 58.88 153.897 59.224C154.073 59.568 154.309 59.84 154.605 60.04C154.901 60.232 155.241 60.328 155.625 60.328ZM160.005 63.508V55.144H160.869V55.984C161.093 55.688 161.365 55.464 161.685 55.312C162.013 55.152 162.373 55.072 162.765 55.072C163.277 55.072 163.733 55.208 164.133 55.48C164.541 55.744 164.865 56.104 165.105 56.56C165.345 57.008 165.465 57.512 165.465 58.072C165.465 58.632 165.341 59.14 165.093 59.596C164.853 60.052 164.525 60.416 164.109 60.688C163.701 60.952 163.237 61.084 162.717 61.084C162.349 61.084 162.009 61.016 161.697 60.88C161.385 60.736 161.113 60.532 160.881 60.268V63.508H160.005ZM162.549 60.328C162.941 60.328 163.289 60.232 163.593 60.04C163.905 59.84 164.149 59.572 164.325 59.236C164.509 58.892 164.601 58.508 164.601 58.084C164.601 57.652 164.509 57.268 164.325 56.932C164.149 56.596 163.905 56.332 163.593 56.14C163.289 55.94 162.941 55.84 162.549 55.84C162.205 55.84 161.885 55.912 161.589 56.056C161.301 56.192 161.065 56.388 160.881 56.644V59.512C161.073 59.768 161.313 59.968 161.601 60.112C161.897 60.256 162.213 60.328 162.549 60.328ZM169.642 61.12C169.098 61.12 168.606 60.988 168.166 60.724C167.726 60.452 167.378 60.088 167.122 59.632C166.866 59.168 166.738 58.648 166.738 58.072C166.738 57.496 166.858 56.98 167.098 56.524C167.346 56.068 167.678 55.708 168.094 55.444C168.51 55.18 168.974 55.048 169.486 55.048C170.006 55.048 170.466 55.18 170.866 55.444C171.274 55.7 171.594 56.052 171.826 56.5C172.066 56.94 172.186 57.44 172.186 58V58.264H167.59C167.622 58.664 167.73 59.024 167.914 59.344C168.106 59.656 168.354 59.904 168.658 60.088C168.97 60.264 169.31 60.352 169.678 60.352C169.982 60.352 170.274 60.3 170.554 60.196C170.842 60.084 171.086 59.936 171.286 59.752L171.838 60.34C171.502 60.604 171.154 60.8 170.794 60.928C170.434 61.056 170.05 61.12 169.642 61.12ZM167.614 57.64H171.322C171.282 57.288 171.174 56.976 170.998 56.704C170.83 56.424 170.614 56.204 170.35 56.044C170.094 55.884 169.806 55.804 169.486 55.804C169.166 55.804 168.874 55.884 168.61 56.044C168.346 56.196 168.126 56.412 167.95 56.692C167.782 56.964 167.67 57.28 167.614 57.64ZM173.681 61V55.144H174.557V56.092C174.781 55.74 175.049 55.48 175.361 55.312C175.673 55.136 176.025 55.048 176.417 55.048C176.841 55.048 177.209 55.14 177.521 55.324C177.841 55.5 178.089 55.752 178.265 56.08C178.449 56.4 178.541 56.776 178.541 57.208V61H177.665V57.46C177.665 56.94 177.521 56.532 177.233 56.236C176.953 55.932 176.573 55.78 176.093 55.78C175.773 55.78 175.481 55.856 175.217 56.008C174.953 56.16 174.733 56.384 174.557 56.68V61H173.681ZM183.847 61V55.864H182.539V55.144H183.847V53.92C183.847 53.344 183.999 52.9 184.303 52.588C184.607 52.276 185.039 52.12 185.599 52.12C185.759 52.12 185.903 52.128 186.031 52.144C186.167 52.16 186.287 52.188 186.391 52.228V53.02C186.263 52.98 186.147 52.952 186.043 52.936C185.939 52.92 185.819 52.912 185.683 52.912C185.347 52.912 185.103 52.996 184.951 53.164C184.799 53.324 184.723 53.58 184.723 53.932V55.144H186.391V55.864H184.723V61H183.847ZM189.89 61.096C189.346 61.096 188.858 60.964 188.426 60.7C187.994 60.436 187.654 60.076 187.406 59.62C187.158 59.164 187.034 58.648 187.034 58.072C187.034 57.496 187.158 56.98 187.406 56.524C187.654 56.068 187.994 55.708 188.426 55.444C188.858 55.18 189.346 55.048 189.89 55.048C190.426 55.048 190.906 55.18 191.33 55.444C191.762 55.708 192.102 56.068 192.35 56.524C192.598 56.98 192.722 57.496 192.722 58.072C192.722 58.648 192.598 59.164 192.35 59.62C192.102 60.076 191.762 60.436 191.33 60.7C190.906 60.964 190.426 61.096 189.89 61.096ZM189.878 60.328C190.262 60.328 190.602 60.232 190.898 60.04C191.194 59.84 191.426 59.568 191.594 59.224C191.77 58.88 191.858 58.496 191.858 58.072C191.858 57.64 191.77 57.256 191.594 56.92C191.426 56.576 191.194 56.308 190.898 56.116C190.602 55.916 190.262 55.816 189.878 55.816C189.494 55.816 189.154 55.916 188.858 56.116C188.562 56.308 188.326 56.576 188.15 56.92C187.982 57.256 187.898 57.64 187.898 58.072C187.898 58.496 187.982 58.88 188.15 59.224C188.326 59.568 188.562 59.84 188.858 60.04C189.154 60.232 189.494 60.328 189.878 60.328ZM194.259 61V55.144H195.135V56.344C195.287 55.936 195.503 55.62 195.783 55.396C196.071 55.164 196.399 55.048 196.767 55.048C196.871 55.048 196.967 55.056 197.055 55.072C197.143 55.08 197.231 55.1 197.319 55.132V55.924C197.223 55.892 197.119 55.868 197.007 55.852C196.903 55.828 196.803 55.816 196.707 55.816C196.347 55.816 196.031 55.92 195.759 56.128C195.495 56.336 195.287 56.628 195.135 57.004V61H194.259ZM202.023 61V55.864H200.715V55.144H202.023V53.92C202.023 53.344 202.175 52.9 202.479 52.588C202.783 52.276 203.215 52.12 203.775 52.12C203.935 52.12 204.079 52.128 204.207 52.144C204.343 52.16 204.463 52.188 204.567 52.228V53.02C204.439 52.98 204.323 52.952 204.219 52.936C204.115 52.92 203.995 52.912 203.859 52.912C203.523 52.912 203.279 52.996 203.127 53.164C202.975 53.324 202.899 53.58 202.899 53.932V55.144H204.567V55.864H202.899V61H202.023ZM207.808 61.096C207.392 61.096 207.024 61.004 206.704 60.82C206.384 60.636 206.132 60.38 205.948 60.052C205.772 59.724 205.684 59.348 205.684 58.924V55.144H206.572V58.672C206.572 59.192 206.712 59.604 206.992 59.908C207.272 60.212 207.652 60.364 208.132 60.364C208.46 60.364 208.752 60.288 209.008 60.136C209.272 59.984 209.492 59.764 209.668 59.476V55.144H210.544V61H209.668V60.052C209.444 60.396 209.176 60.656 208.864 60.832C208.56 61.008 208.208 61.096 207.808 61.096ZM212.341 61V55.144H213.217V56.344C213.369 55.936 213.585 55.62 213.865 55.396C214.153 55.164 214.481 55.048 214.849 55.048C214.953 55.048 215.049 55.056 215.137 55.072C215.225 55.08 215.313 55.1 215.401 55.132V55.924C215.305 55.892 215.201 55.868 215.089 55.852C214.985 55.828 214.885 55.816 214.789 55.816C214.429 55.816 214.113 55.92 213.841 56.128C213.577 56.336 213.369 56.628 213.217 57.004V61H212.341ZM218.792 61.12C218.288 61.12 217.904 61 217.64 60.76C217.384 60.512 217.256 60.156 217.256 59.692V55.864H216.044V55.144H217.256V53.536L218.132 53.332V55.144H219.812V55.864H218.132V59.464C218.132 59.776 218.196 60 218.324 60.136C218.46 60.272 218.68 60.34 218.984 60.34C219.136 60.34 219.272 60.328 219.392 60.304C219.512 60.28 219.652 60.24 219.812 60.184V60.964C219.652 61.02 219.484 61.06 219.308 61.084C219.132 61.108 218.96 61.12 218.792 61.12ZM221.095 61V52.336L221.971 52.156V56.092C222.195 55.74 222.463 55.48 222.775 55.312C223.087 55.136 223.439 55.048 223.831 55.048C224.255 55.048 224.623 55.14 224.935 55.324C225.255 55.5 225.503 55.752 225.679 56.08C225.863 56.4 225.955 56.776 225.955 57.208V61H225.079V57.46C225.079 56.94 224.935 56.532 224.647 56.236C224.367 55.932 223.987 55.78 223.507 55.78C223.187 55.78 222.895 55.856 222.631 56.008C222.367 56.16 222.147 56.384 221.971 56.68V61H221.095ZM230.356 61.12C229.812 61.12 229.32 60.988 228.88 60.724C228.44 60.452 228.092 60.088 227.836 59.632C227.58 59.168 227.452 58.648 227.452 58.072C227.452 57.496 227.572 56.98 227.812 56.524C228.06 56.068 228.392 55.708 228.808 55.444C229.224 55.18 229.688 55.048 230.2 55.048C230.72 55.048 231.18 55.18 231.58 55.444C231.988 55.7 232.308 56.052 232.54 56.5C232.78 56.94 232.9 57.44 232.9 58V58.264H228.304C228.336 58.664 228.444 59.024 228.628 59.344C228.82 59.656 229.068 59.904 229.372 60.088C229.684 60.264 230.024 60.352 230.392 60.352C230.696 60.352 230.988 60.3 231.268 60.196C231.556 60.084 231.8 59.936 232 59.752L232.552 60.34C232.216 60.604 231.868 60.8 231.508 60.928C231.148 61.056 230.764 61.12 230.356 61.12ZM228.328 57.64H232.036C231.996 57.288 231.888 56.976 231.712 56.704C231.544 56.424 231.328 56.204 231.064 56.044C230.808 55.884 230.52 55.804 230.2 55.804C229.88 55.804 229.588 55.884 229.324 56.044C229.06 56.196 228.84 56.412 228.664 56.692C228.496 56.964 228.384 57.28 228.328 57.64ZM234.396 61V55.144H235.272V56.344C235.424 55.936 235.64 55.62 235.92 55.396C236.208 55.164 236.536 55.048 236.904 55.048C237.008 55.048 237.104 55.056 237.192 55.072C237.28 55.08 237.368 55.1 237.456 55.132V55.924C237.36 55.892 237.256 55.868 237.144 55.852C237.04 55.828 236.94 55.816 236.844 55.816C236.484 55.816 236.168 55.92 235.896 56.128C235.632 56.336 235.424 56.628 235.272 57.004V61H234.396ZM244.056 61.12C243.512 61.12 243.02 60.988 242.58 60.724C242.14 60.452 241.792 60.088 241.536 59.632C241.28 59.168 241.152 58.648 241.152 58.072C241.152 57.496 241.272 56.98 241.512 56.524C241.76 56.068 242.092 55.708 242.508 55.444C242.924 55.18 243.388 55.048 243.9 55.048C244.42 55.048 244.88 55.18 245.28 55.444C245.688 55.7 246.008 56.052 246.24 56.5C246.48 56.94 246.6 57.44 246.6 58V58.264H242.004C242.036 58.664 242.144 59.024 242.328 59.344C242.52 59.656 242.768 59.904 243.072 60.088C243.384 60.264 243.724 60.352 244.092 60.352C244.396 60.352 244.688 60.3 244.968 60.196C245.256 60.084 245.5 59.936 245.7 59.752L246.252 60.34C245.916 60.604 245.568 60.8 245.208 60.928C244.848 61.056 244.464 61.12 244.056 61.12ZM242.028 57.64H245.736C245.696 57.288 245.588 56.976 245.412 56.704C245.244 56.424 245.028 56.204 244.764 56.044C244.508 55.884 244.22 55.804 243.9 55.804C243.58 55.804 243.288 55.884 243.024 56.044C242.76 56.196 242.54 56.412 242.364 56.692C242.196 56.964 242.084 57.28 242.028 57.64ZM249.6 61L247.2 55.144H248.148L250.044 59.908L251.916 55.144H252.852L250.44 61H249.6ZM256.347 61.096C255.803 61.096 255.315 60.964 254.883 60.7C254.451 60.436 254.111 60.076 253.863 59.62C253.615 59.164 253.491 58.648 253.491 58.072C253.491 57.496 253.615 56.98 253.863 56.524C254.111 56.068 254.451 55.708 254.883 55.444C255.315 55.18 255.803 55.048 256.347 55.048C256.883 55.048 257.363 55.18 257.787 55.444C258.219 55.708 258.559 56.068 258.807 56.524C259.055 56.98 259.179 57.496 259.179 58.072C259.179 58.648 259.055 59.164 258.807 59.62C258.559 60.076 258.219 60.436 257.787 60.7C257.363 60.964 256.883 61.096 256.347 61.096ZM256.335 60.328C256.719 60.328 257.059 60.232 257.355 60.04C257.651 59.84 257.883 59.568 258.051 59.224C258.227 58.88 258.315 58.496 258.315 58.072C258.315 57.64 258.227 57.256 258.051 56.92C257.883 56.576 257.651 56.308 257.355 56.116C257.059 55.916 256.719 55.816 256.335 55.816C255.951 55.816 255.611 55.916 255.315 56.116C255.019 56.308 254.783 56.576 254.607 56.92C254.439 57.256 254.355 57.64 254.355 58.072C254.355 58.496 254.439 58.88 254.607 59.224C254.783 59.568 255.019 59.84 255.315 60.04C255.611 60.232 255.951 60.328 256.335 60.328ZM260.716 61V52.336L261.592 52.156V61H260.716ZM265.476 61.096C265.06 61.096 264.692 61.004 264.372 60.82C264.052 60.636 263.8 60.38 263.616 60.052C263.44 59.724 263.352 59.348 263.352 58.924V55.144H264.24V58.672C264.24 59.192 264.38 59.604 264.66 59.908C264.94 60.212 265.32 60.364 265.8 60.364C266.128 60.364 266.42 60.288 266.676 60.136C266.94 59.984 267.16 59.764 267.336 59.476V55.144H268.212V61H267.336V60.052C267.112 60.396 266.844 60.656 266.532 60.832C266.228 61.008 265.876 61.096 265.476 61.096ZM272.241 61.12C271.737 61.12 271.353 61 271.089 60.76C270.833 60.512 270.705 60.156 270.705 59.692V55.864H269.493V55.144H270.705V53.536L271.581 53.332V55.144H273.261V55.864H271.581V59.464C271.581 59.776 271.645 60 271.773 60.136C271.909 60.272 272.129 60.34 272.433 60.34C272.585 60.34 272.721 60.328 272.841 60.304C272.961 60.28 273.101 60.24 273.261 60.184V60.964C273.101 61.02 272.933 61.06 272.757 61.084C272.581 61.108 272.409 61.12 272.241 61.12ZM274.533 61V55.144H275.409V61H274.533ZM274.977 53.692C274.801 53.692 274.649 53.632 274.521 53.512C274.401 53.384 274.341 53.236 274.341 53.068C274.341 52.9 274.401 52.756 274.521 52.636C274.649 52.508 274.801 52.444 274.977 52.444C275.153 52.444 275.301 52.508 275.421 52.636C275.549 52.756 275.613 52.9 275.613 53.068C275.613 53.236 275.549 53.384 275.421 53.512C275.301 53.632 275.153 53.692 274.977 53.692ZM279.797 61.096C279.253 61.096 278.765 60.964 278.333 60.7C277.901 60.436 277.561 60.076 277.313 59.62C277.065 59.164 276.941 58.648 276.941 58.072C276.941 57.496 277.065 56.98 277.313 56.524C277.561 56.068 277.901 55.708 278.333 55.444C278.765 55.18 279.253 55.048 279.797 55.048C280.333 55.048 280.813 55.18 281.237 55.444C281.669 55.708 282.009 56.068 282.257 56.524C282.505 56.98 282.629 57.496 282.629 58.072C282.629 58.648 282.505 59.164 282.257 59.62C282.009 60.076 281.669 60.436 281.237 60.7C280.813 60.964 280.333 61.096 279.797 61.096ZM279.785 60.328C280.169 60.328 280.509 60.232 280.805 60.04C281.101 59.84 281.333 59.568 281.501 59.224C281.677 58.88 281.765 58.496 281.765 58.072C281.765 57.64 281.677 57.256 281.501 56.92C281.333 56.576 281.101 56.308 280.805 56.116C280.509 55.916 280.169 55.816 279.785 55.816C279.401 55.816 279.061 55.916 278.765 56.116C278.469 56.308 278.233 56.576 278.057 56.92C277.889 57.256 277.805 57.64 277.805 58.072C277.805 58.496 277.889 58.88 278.057 59.224C278.233 59.568 278.469 59.84 278.765 60.04C279.061 60.232 279.401 60.328 279.785 60.328ZM284.166 61V55.144H285.042V56.092C285.266 55.74 285.534 55.48 285.846 55.312C286.158 55.136 286.51 55.048 286.902 55.048C287.326 55.048 287.694 55.14 288.006 55.324C288.326 55.5 288.574 55.752 288.75 56.08C288.934 56.4 289.026 56.776 289.026 57.208V61H288.15V57.46C288.15 56.94 288.006 56.532 287.718 56.236C287.438 55.932 287.058 55.78 286.578 55.78C286.258 55.78 285.966 55.856 285.702 56.008C285.438 56.16 285.218 56.384 285.042 56.68V61H284.166ZM291.387 61.096C291.211 61.096 291.059 61.032 290.931 60.904C290.811 60.776 290.751 60.624 290.751 60.448C290.751 60.264 290.811 60.112 290.931 59.992C291.059 59.864 291.211 59.8 291.387 59.8C291.563 59.8 291.711 59.864 291.831 59.992C291.959 60.112 292.023 60.264 292.023 60.448C292.023 60.624 291.959 60.776 291.831 60.904C291.711 61.032 291.563 61.096 291.387 61.096Z" fill="white"/>
<path d="M177 89L166.175 74H187.825L177 89Z" fill="#292929"/>
</g>
<defs>
<filter id="filter0_d_3080_37531" x="25" y="17" width="304" height="85" filterUnits="userSpaceOnUse" color-interpolation-filters="sRGB">
<feFlood flood-opacity="0" result="BackgroundImageFix"/>
<feColorMatrix in="SourceAlpha" type="matrix" values="0 0 0 0 0 0 0 0 0 0 0 0 0 0 0 0 0 0 127 0" result="hardAlpha"/>
<feOffset dy="4"/>
<feGaussianBlur stdDeviation="4.5"/>
<feColorMatrix type="matrix" values="0 0 0 0 0.160784 0 0 0 0 0.160784 0 0 0 0 0.160784 0 0 0 0.15 0"/>
<feBlend mode="normal" in2="BackgroundImageFix" result="effect1_dropShadow_3080_37531"/>
<feBlend mode="normal" in="SourceGraphic" in2="effect1_dropShadow_3080_37531" result="shape"/>
</filter>
</defs>
</svg>
