<?xml version="1.0" encoding="utf-8"?>
<!-- Generator: Adobe Illustrator 19.1.0, SVG Export Plug-In . SVG Version: 6.00 Build 0)  -->
<svg version="1.1" id="Layer_1" xmlns="http://www.w3.org/2000/svg" xmlns:xlink="http://www.w3.org/1999/xlink" x="0px" y="0px"
	 viewBox="0 0 63.1 57.9" style="enable-background:new 0 0 63.1 57.9;" xml:space="preserve">
<style type="text/css">
	.st0{fill:url(#SVGID_1_);}
	.st1{fill:url(#SVGID_2_);}
	.st2{fill:url(#SVGID_3_);}
</style>
<g>
	<g>
		<linearGradient id="SVGID_1_" gradientUnits="userSpaceOnUse" x1="8.711" y1="10.0863" x2="8.711" y2="47.2454">
			<stop  offset="0" style="stop-color:#80D2E7"/>
			<stop  offset="1" style="stop-color:#228BC8"/>
		</linearGradient>
		<path class="st0" d="M17.4,47.2h-6.9c-0.9,0-1.8-0.1-2.6-0.4c-0.8-0.3-1.4-0.7-2-1.3c-0.6-0.6-1-1.2-1.3-2
			c-0.3-0.8-0.4-1.6-0.4-2.6v-6.1c0-0.7-0.1-1.3-0.3-1.7c-0.2-0.4-0.4-0.8-0.6-1c-0.3-0.3-0.6-0.4-1-0.6c-0.5-0.1-1-0.2-1.6-0.2
			l-0.8,0v-5.1l0.7,0c0.6,0,1.1-0.1,1.6-0.2c0.4-0.1,0.8-0.3,1-0.6c0.3-0.3,0.5-0.6,0.6-1c0.2-0.5,0.3-1,0.3-1.7v-6.1
			c0-2,0.6-3.6,1.7-4.7c1.1-1.1,2.7-1.6,4.6-1.6h6.9v5.1h-4.3c-0.9,0-1.5,0.2-1.8,0.7c-0.4,0.5-0.6,1.3-0.6,2.5v5.6
			c0,0.7-0.1,1.4-0.4,2c-0.2,0.6-0.6,1.2-1,1.6C9,28,8.6,28.4,8.1,28.7c0.5,0.3,1,0.7,1.3,1.1c0.4,0.5,0.7,1,1,1.6
			c0.2,0.6,0.4,1.3,0.4,2V39c0,1.1,0.2,2,0.6,2.5c0.4,0.4,1,0.7,1.8,0.7h4.3V47.2z M1.5,29.8c0.4,0,0.8,0.1,1.2,0.2
			c0.6,0.2,1.2,0.5,1.7,0.9c0.5,0.4,0.8,1,1.1,1.6c0.2,0.6,0.3,1.4,0.3,2.3v6.1c0,0.8,0.1,1.5,0.3,2.1c0.2,0.6,0.5,1.1,0.9,1.5
			c0.4,0.4,0.9,0.7,1.5,0.9c0.6,0.2,1.3,0.3,2,0.3h5.3v-2h-2.7c-1.4,0-2.4-0.4-3.1-1.3c-0.6-0.8-0.9-1.9-0.9-3.4v-5.6
			c0-0.5-0.1-1-0.2-1.4c-0.2-0.4-0.4-0.8-0.7-1.2c-0.3-0.3-0.6-0.6-1-0.8c-0.4-0.2-0.8-0.4-1.3-0.5l-0.6-0.1v-1.2l0.6-0.2
			c0.4-0.1,0.9-0.3,1.3-0.5c0.4-0.2,0.7-0.5,1-0.8c0.3-0.3,0.5-0.7,0.7-1.2c0.2-0.4,0.3-0.9,0.3-1.5v-5.6c0-1.5,0.3-2.6,0.9-3.4
			c0.7-0.8,1.7-1.3,3.1-1.3h2.7v-2h-5.3C9,11.6,7.9,12,7,12.8c-0.8,0.8-1.2,2-1.2,3.6v6.1c0,0.9-0.1,1.6-0.3,2.3
			c-0.2,0.7-0.6,1.2-1.1,1.6c-0.5,0.4-1,0.7-1.6,0.9c-0.4,0.1-0.8,0.2-1.2,0.2V29.8z"/>
	</g>
	<g>
		<linearGradient id="SVGID_2_" gradientUnits="userSpaceOnUse" x1="31.5359" y1="10.0863" x2="31.5359" y2="47.8056">
			<stop  offset="0" style="stop-color:#80D2E7"/>
			<stop  offset="1" style="stop-color:#228BC8"/>
		</linearGradient>
		<path class="st1" d="M34.8,47.8h-6.4V10.1h6.4V47.8z M29.9,46.3h3.3V11.6h-3.3V46.3z"/>
	</g>
	<g>
		<linearGradient id="SVGID_3_" gradientUnits="userSpaceOnUse" x1="54.3802" y1="10.0863" x2="54.3802" y2="47.2454">
			<stop  offset="0" style="stop-color:#80D2E7"/>
			<stop  offset="1" style="stop-color:#228BC8"/>
		</linearGradient>
		<path class="st2" d="M52.5,47.2h-6.9v-5.1h4.3c0.9,0,1.5-0.2,1.8-0.7c0.4-0.5,0.6-1.3,0.6-2.5v-5.6c0-0.7,0.1-1.4,0.4-2
			c0.2-0.6,0.6-1.1,1-1.6c0.4-0.4,0.8-0.8,1.3-1.1c-0.5-0.3-0.9-0.7-1.3-1.1c-0.4-0.5-0.7-1-1-1.6c-0.2-0.6-0.4-1.3-0.4-2v-5.6
			c0-1.1-0.2-1.9-0.6-2.5c-0.4-0.5-1-0.7-1.8-0.7h-4.3v-5.1h6.9c1.9,0,3.5,0.6,4.6,1.6c1.1,1.1,1.7,2.7,1.7,4.7v6.1
			c0,0.7,0.1,1.3,0.3,1.7c0.2,0.4,0.4,0.8,0.6,1c0.3,0.3,0.6,0.4,1,0.6c0.5,0.1,1,0.2,1.6,0.2l0.7,0v5.1l-0.8,0
			c-0.6,0-1.1,0.1-1.6,0.2c-0.4,0.1-0.8,0.3-1,0.6c-0.3,0.3-0.5,0.6-0.6,1c-0.2,0.5-0.3,1-0.3,1.7v6.1c0,0.9-0.1,1.8-0.4,2.6
			c-0.3,0.8-0.7,1.5-1.3,2c-0.6,0.6-1.2,1-2,1.3C54.4,47.1,53.5,47.2,52.5,47.2z M47.2,45.7h5.3c0.8,0,1.4-0.1,2-0.3
			c0.6-0.2,1.1-0.5,1.5-0.9c0.4-0.4,0.7-0.9,0.9-1.5c0.2-0.6,0.3-1.3,0.3-2.1v-6.1c0-0.9,0.1-1.6,0.3-2.3c0.2-0.7,0.6-1.2,1.1-1.6
			c0.5-0.4,1-0.7,1.7-0.9c0.4-0.1,0.8-0.2,1.2-0.2v-2.2c-0.4-0.1-0.8-0.1-1.2-0.2c-0.6-0.2-1.2-0.5-1.6-0.9c-0.5-0.4-0.8-1-1.1-1.6
			c-0.2-0.6-0.3-1.4-0.3-2.3v-6.1c0-1.6-0.4-2.8-1.2-3.6c-0.8-0.8-2-1.2-3.5-1.2h-5.3v2h2.7c1.4,0,2.4,0.4,3.1,1.3
			c0.6,0.8,0.9,1.9,0.9,3.4v5.6c0,0.5,0.1,1,0.3,1.5c0.2,0.4,0.4,0.8,0.7,1.2c0.3,0.3,0.6,0.6,1,0.8c0.4,0.2,0.8,0.4,1.3,0.5
			l0.6,0.1v1.2l-0.6,0.2c-0.5,0.1-0.9,0.3-1.3,0.5c-0.4,0.2-0.7,0.5-1,0.8c-0.3,0.3-0.5,0.7-0.7,1.2c-0.2,0.4-0.2,0.9-0.2,1.4V39
			c0,1.5-0.3,2.6-0.9,3.4c-0.7,0.8-1.7,1.3-3.1,1.3h-2.7V45.7z"/>
	</g>
</g>
</svg>
