<?xml version="1.0" encoding="utf-8"?>
<!-- Generator: Adobe Illustrator 16.0.4, SVG Export Plug-In . SVG Version: 6.00 Build 0)  -->
<!DOCTYPE svg PUBLIC "-//W3C//DTD SVG 1.1//EN" "http://www.w3.org/Graphics/SVG/1.1/DTD/svg11.dtd">
<svg version="1.1" id="logo" xmlns="http://www.w3.org/2000/svg" xmlns:xlink="http://www.w3.org/1999/xlink" x="0px" y="0px"
	 width="78px" height="25px" viewBox="-0.065 0 78 25" enable-background="new -0.065 0 78 25" xml:space="preserve">
<g id="logo_1_">
	<g id="white">
		<path fill="#FFFFFF" d="M22.994,19.293c-0.48-0.111-0.992-0.18-1.509-0.18c-0.884,0-1.688,0.15-2.282,0.398
			c-0.064,0.033-0.111,0.104-0.111,0.178c0,0.029,0.007,0.059,0.018,0.082c0.07,0.203-0.045,0.424-0.62,0.551
			c-0.851,0.188-1.389,1.064-1.696,1.355c-0.36,0.344-1.381,0.555-1.228,0.35c0.12-0.158,0.58-0.656,0.858-1.195
			c0.25-0.482,0.473-0.619,0.778-1.078c0.089-0.135,0.438-0.609,0.54-0.982c0.114-0.365,0.076-0.824,0.119-1.014
			c0.062-0.273,0.32-0.863,0.339-1.197c0.013-0.189-0.788,0.27-1.167,0.27s-0.749-0.229-1.088-0.242
			c-0.419-0.02-0.688,0.322-1.068,0.264c-0.216-0.035-0.398-0.227-0.776-0.24c-0.54-0.02-1.198,0.301-2.437,0.262
			c-1.218-0.041-2.342-1.539-2.495-1.777c-0.181-0.279-0.4-0.279-0.64-0.061c-0.239,0.221-0.535,0.047-0.619-0.102
			c-0.158-0.277-0.586-1.096-1.247-1.268c-0.914-0.236-1.378,0.506-1.316,1.098c0.061,0.602,0.448,0.771,0.628,1.088
			c0.18,0.32,0.271,0.525,0.61,0.666c0.239,0.104,0.329,0.248,0.258,0.445c-0.063,0.172-0.313,0.211-0.478,0.219
			c-0.348,0.018-0.592-0.078-0.771-0.189c-0.207-0.135-0.375-0.316-0.557-0.627c-0.209-0.346-0.539-0.494-0.923-0.494
			c-0.183,0-0.354,0.049-0.506,0.127c-0.602,0.312-1.317,0.498-2.088,0.498h-0.87C2.318,21.439,6.993,25,12.499,25
			C16.899,24.998,20.768,22.727,22.994,19.293z"/>
	</g>
	<g id="black">
		<g>
			<path fill="#FFFFFF" d="M24.875,18.625h0.111l0.171,0.279h0.109l-0.185-0.285c0.096-0.012,0.168-0.062,0.168-0.176
				c0-0.129-0.076-0.186-0.228-0.186h-0.246v0.646h0.099V18.625L24.875,18.625z M24.875,18.543v-0.201h0.133
				c0.067,0,0.141,0.016,0.141,0.094c0,0.102-0.074,0.107-0.156,0.107H24.875L24.875,18.543z"/>
			<path fill="#FFFFFF" d="M25.623,18.582c0,0.348-0.283,0.633-0.632,0.633c-0.35,0-0.632-0.285-0.632-0.633
				s0.283-0.631,0.632-0.631C25.338,17.951,25.623,18.234,25.623,18.582z M24.99,18.062c-0.288,0-0.521,0.232-0.521,0.52
				c0,0.289,0.233,0.52,0.521,0.52c0.287,0,0.52-0.23,0.52-0.52C25.51,18.297,25.277,18.062,24.99,18.062z"/>
		</g>
		<g>
			<path d="M22.994,19.293c-0.48-0.109-0.992-0.18-1.509-0.18c-0.884,0-1.688,0.152-2.282,0.398
				c-0.064,0.033-0.111,0.104-0.111,0.18c0,0.027,0.007,0.059,0.018,0.082c0.07,0.201-0.045,0.424-0.62,0.551
				c-0.851,0.186-1.389,1.062-1.696,1.355c-0.36,0.342-1.381,0.553-1.228,0.35c0.12-0.158,0.58-0.658,0.858-1.195
				c0.25-0.482,0.473-0.619,0.778-1.078c0.089-0.137,0.438-0.609,0.54-0.982c0.114-0.365,0.076-0.824,0.119-1.014
				c0.062-0.273,0.32-0.865,0.339-1.199c0.013-0.188-0.788,0.27-1.167,0.27s-0.749-0.227-1.088-0.242
				c-0.419-0.02-0.688,0.324-1.068,0.264c-0.216-0.035-0.398-0.225-0.776-0.24c-0.54-0.02-1.198,0.301-2.437,0.262
				c-1.218-0.041-2.342-1.539-2.495-1.777c-0.181-0.279-0.4-0.279-0.64-0.059c-0.239,0.219-0.535,0.045-0.619-0.104
				c-0.158-0.277-0.586-1.096-1.247-1.266c-0.914-0.238-1.378,0.506-1.316,1.098c0.061,0.6,0.448,0.77,0.628,1.086
				c0.18,0.32,0.271,0.527,0.61,0.668c0.239,0.102,0.329,0.248,0.258,0.443c-0.063,0.172-0.313,0.211-0.478,0.219
				c-0.348,0.018-0.592-0.078-0.771-0.189c-0.207-0.135-0.375-0.316-0.557-0.627c-0.209-0.346-0.539-0.494-0.923-0.494
				c-0.183,0-0.354,0.049-0.506,0.127c-0.602,0.312-1.317,0.498-2.088,0.498h-0.87C0.229,15.242,0,13.896,0,12.5
				C0,5.596,5.597,0,12.5,0S25,5.594,25,12.5C25,15.004,24.264,17.336,22.994,19.293z"/>
		</g>
		<path d="M31.373,13.287c0-1.146-0.024-1.991-0.07-2.751h1.875l0.08,1.625h0.062c0.42-1.205,1.42-1.82,2.346-1.82
			c0.211,0,0.332,0.008,0.506,0.047v2.041c-0.203-0.041-0.392-0.062-0.651-0.062c-1.032,0-1.749,0.656-1.94,1.638
			c-0.037,0.189-0.057,0.42-0.057,0.652v4.441h-2.167L31.373,13.287z"/>
		<path d="M38.786,15.398c0.058,1.553,1.259,2.23,2.646,2.23c0.996,0,1.709-0.154,2.363-0.396l0.319,1.49
			c-0.731,0.312-1.749,0.543-2.991,0.543c-2.781,0-4.41-1.717-4.41-4.34c0-2.365,1.433-4.601,4.188-4.601
			c2.784,0,3.688,2.29,3.688,4.166c0,0.402-0.035,0.725-0.074,0.926L38.786,15.398z M42.551,13.891
			c0.01-0.793-0.334-2.085-1.785-2.085c-1.332,0-1.887,1.208-1.984,2.085H42.551z"/>
		<path d="M51.756,15.385c0,0.229-0.016,0.439-0.064,0.633c-0.218,0.938-0.984,1.541-1.87,1.541c-1.362,0-2.144-1.148-2.144-2.723
			c0-1.59,0.773-2.82,2.168-2.82c0.975,0,1.671,0.687,1.861,1.521c0.037,0.174,0.049,0.393,0.049,0.564V15.385L51.756,15.385z
			 M53.922,7.238l-2.164-0.611v4.831h-0.037c-0.383-0.633-1.229-1.115-2.399-1.115c-2.06,0-3.853,1.705-3.84,4.574
			c0,2.633,1.62,4.377,3.665,4.377c1.236,0,2.27-0.59,2.781-1.549h0.037l0.097,1.357h1.93c-0.04-0.582-0.071-1.525-0.071-2.402
			v-9.46L53.922,7.238L53.922,7.238z"/>
		<path d="M59.647,10.332c-0.651,0-1.237,0.188-1.729,0.491c-0.51,0.298-0.924,0.759-1.17,1.234h-0.033V8.049l-0.851-0.251v11.299
			h0.851v-5.24c0-0.35,0.024-0.59,0.115-0.844c0.364-1.067,1.368-1.942,2.584-1.942c1.754,0,2.361,1.407,2.361,2.95v5.076h0.848
			V13.93C62.625,10.737,60.459,10.332,59.647,10.332z"/>
		<path d="M70.231,17.062c0,0.678,0.026,1.379,0.126,2.035h-0.781l-0.124-1.229h-0.04c-0.416,0.66-1.371,1.424-2.732,1.424
			c-1.725,0-2.526-1.215-2.526-2.357c0-1.977,1.747-3.17,5.233-3.133v-0.229c0-0.849-0.166-2.54-2.193-2.526
			c-0.749,0-1.531,0.201-2.15,0.638l-0.27-0.617c0.783-0.529,1.738-0.739,2.514-0.739c2.475,0,2.946,1.856,2.946,3.389
			L70.231,17.062L70.231,17.062z M69.383,14.518c-1.864-0.053-4.33,0.229-4.33,2.287c0,1.23,0.812,1.785,1.707,1.785
			c1.428,0,2.238-0.885,2.535-1.719c0.062-0.184,0.088-0.367,0.088-0.514V14.518L69.383,14.518z"/>
		<path d="M73.606,8.639v1.889h2.442v0.688h-2.442v5.572c0,1.09,0.338,1.77,1.26,1.77c0.441,0,0.753-0.057,0.974-0.133l0.103,0.656
			c-0.276,0.115-0.665,0.207-1.185,0.207c-0.625,0-1.143-0.197-1.479-0.609c-0.388-0.449-0.521-1.17-0.521-2.045v-5.417h-1.445
			v-0.688h1.445V8.952L73.606,8.639z"/>
		<g>
			<path d="M77.121,18.643h0.112l0.17,0.279h0.11l-0.186-0.285c0.096-0.012,0.168-0.061,0.168-0.176
				c0-0.129-0.076-0.186-0.229-0.186h-0.245v0.646h0.099V18.643L77.121,18.643z M77.121,18.559v-0.199h0.133
				c0.066,0,0.141,0.016,0.141,0.094c0,0.102-0.073,0.105-0.157,0.105H77.121L77.121,18.559z"/>
			<path d="M77.869,18.6c0,0.35-0.283,0.631-0.633,0.631s-0.632-0.281-0.632-0.631c0-0.348,0.282-0.631,0.632-0.631
				S77.869,18.252,77.869,18.6z M77.236,18.078c-0.287,0-0.521,0.234-0.521,0.521s0.233,0.518,0.521,0.518s0.52-0.23,0.52-0.518
				S77.523,18.078,77.236,18.078z"/>
		</g>
		<path d="M15.254,18.146c0.063,0.062,0.174,0.273,0.039,0.541c-0.076,0.143-0.158,0.242-0.304,0.359
			c-0.176,0.139-0.521,0.303-0.991,0.004c-0.254-0.162-0.269-0.217-0.618-0.17c-0.251,0.033-0.351-0.219-0.262-0.43
			c0.091-0.209,0.459-0.379,0.92-0.109c0.206,0.121,0.527,0.377,0.811,0.15c0.116-0.094,0.187-0.154,0.349-0.344
			c0.008-0.01,0.018-0.014,0.029-0.014C15.236,18.137,15.248,18.141,15.254,18.146z"/>
	</g>
	<path id="red" fill="#CC0000" d="M11.528,5.951c-1.443,0.104-1.594,0.26-1.863,0.547C9.282,6.905,8.78,5.971,8.78,5.971
		c-0.301-0.063-0.667-0.55-0.47-1.004c0.194-0.449,0.553-0.314,0.666-0.175c0.137,0.17,0.429,0.449,0.808,0.438
		c0.38-0.01,0.816-0.09,1.427-0.09c0.618,0,1.033,0.23,1.056,0.43C12.285,5.742,12.217,5.901,11.528,5.951z M13.045,3.564
		c-0.001,0-0.004,0-0.006,0c-0.022,0-0.041-0.017-0.041-0.038c0-0.015,0.009-0.028,0.022-0.035c0.28-0.147,0.698-0.266,1.176-0.314
		c0.145-0.016,0.284-0.022,0.419-0.024c0.023,0,0.047,0,0.071,0c0.801,0.019,1.442,0.336,1.432,0.711
		c-0.009,0.375-0.666,0.663-1.467,0.646c-0.259-0.006-0.503-0.044-0.712-0.104c-0.024-0.006-0.043-0.028-0.043-0.052
		c0-0.025,0.019-0.046,0.043-0.053c0.5-0.116,0.838-0.305,0.814-0.483c-0.031-0.237-0.687-0.366-1.46-0.288
		C13.208,3.541,13.126,3.552,13.045,3.564z M19.555,9.172c-0.125,0.415-0.299,0.946-1.081,1.348
		c-0.114,0.059-0.157-0.037-0.104-0.127c0.295-0.502,0.348-0.627,0.434-0.826c0.121-0.291,0.184-0.701-0.055-1.562
		c-0.472-1.692-1.451-3.954-2.164-4.687C15.896,2.61,14.648,2.411,13.522,2.7c-0.416,0.107-1.227,0.529-2.731,0.19
		C8.185,2.303,7.799,3.607,7.649,4.175C7.501,4.745,7.142,6.36,7.142,6.36c-0.12,0.658-0.277,1.802,3.769,2.572
		c1.886,0.358,1.98,0.846,2.063,1.195c0.15,0.629,0.389,0.988,0.658,1.167c0.27,0.181,0,0.329-0.298,0.358
		c-0.804,0.084-3.771-0.766-5.525-1.764C6.373,9.012,6.35,8.221,6.678,7.551C4.51,7.317,2.881,7.755,2.587,8.781
		c-0.507,1.762,3.874,4.772,8.861,6.282c5.235,1.586,10.62,0.48,11.218-2.811C22.938,10.757,21.678,9.651,19.555,9.172z"/>
</g>
</svg>
