<svg width="976" height="297" viewBox="0 0 976 297" fill="none" xmlns="http://www.w3.org/2000/svg">
<g clip-path="url(#clip0_756_15017)">
<rect width="976" height="297" fill="white"/>
<rect width="1500" height="958" transform="translate(40 24)" fill="#F2F2F2"/>
<rect width="1500" height="69" transform="translate(40 24)" fill="#F2F2F2"/>
<path fill-rule="evenodd" clip-rule="evenodd" d="M94.6429 53.3571C95.1163 53.3571 95.5 52.9734 95.5 52.5V50.3571C95.5 49.8837 95.1163 49.5 94.6429 49.5H72.3571C71.8837 49.5 71.5 49.8837 71.5 50.3571V52.5C71.5 52.9734 71.8837 53.3571 72.3571 53.3571H94.6429ZM94.6429 61.9286C95.1163 61.9286 95.5 61.5448 95.5 61.0714V58.9286C95.5 58.4552 95.1163 58.0714 94.6429 58.0714H72.3571C71.8837 58.0714 71.5 58.4552 71.5 58.9286V61.0714C71.5 61.5448 71.8837 61.9286 72.3571 61.9286H94.6429ZM94.6429 70.5C95.1163 70.5 95.5 70.1163 95.5 69.6429V67.5C95.5 67.0266 95.1163 66.6429 94.6429 66.6429H72.3571C71.8837 66.6429 71.5 67.0266 71.5 67.5V69.6429C71.5 70.1163 71.8837 70.5 72.3571 70.5H94.6429Z" fill="#1F1F1F"/>
<path fill-rule="evenodd" clip-rule="evenodd" d="M131.478 40H154V62.5217H151.587C140.481 62.5217 131.478 53.5188 131.478 42.413V40Z" fill="#0066CC"/>
<path fill-rule="evenodd" clip-rule="evenodd" d="M154 40.8044L132.283 77H149.316C151.903 77 154 74.9031 154 72.3165V40.8044Z" fill="url(#paint0_linear_756_15017)"/>
<path fill-rule="evenodd" clip-rule="evenodd" d="M153.196 40L117 61.7174V44.6835C117 42.0969 119.097 40 121.684 40H153.196Z" fill="url(#paint1_linear_756_15017)"/>
<rect width="254" height="768" transform="translate(40 93)" fill="#F2F2F2"/>
<path d="M81.246 140V130.2H82.366L88.106 138.32L88.078 130.2H89.1V140H88.12L82.24 131.698L82.268 140H81.246ZM93.3769 140.126C92.8916 140.126 92.4622 140.037 92.0889 139.86C91.7156 139.683 91.4216 139.44 91.2069 139.132C91.0016 138.815 90.8989 138.451 90.8989 138.04C90.8989 137.629 91.0062 137.275 91.2209 136.976C91.4356 136.668 91.7342 136.43 92.1169 136.262C92.4996 136.094 92.9476 136.01 93.4609 136.01C93.8529 136.01 94.2216 136.052 94.5669 136.136C94.9216 136.22 95.2482 136.355 95.5469 136.542V135.604C95.5469 135.044 95.3976 134.624 95.0989 134.344C94.8002 134.055 94.3616 133.91 93.7829 133.91C93.4656 133.91 93.1389 133.957 92.8029 134.05C92.4762 134.143 92.1122 134.293 91.7109 134.498L91.3329 133.714C92.2476 133.275 93.1062 133.056 93.9089 133.056C94.7582 133.056 95.4116 133.266 95.8689 133.686C96.3262 134.097 96.5549 134.689 96.5549 135.464V140H95.5469V139.202C95.2482 139.51 94.9169 139.743 94.5529 139.902C94.1889 140.051 93.7969 140.126 93.3769 140.126ZM91.8789 138.012C91.8789 138.413 92.0329 138.735 92.3409 138.978C92.6582 139.221 93.0736 139.342 93.5869 139.342C93.9696 139.342 94.3196 139.277 94.6369 139.146C94.9636 139.015 95.2669 138.819 95.5469 138.558V137.242C95.2576 137.074 94.9589 136.953 94.6509 136.878C94.3429 136.794 93.9976 136.752 93.6149 136.752C93.0922 136.752 92.6722 136.869 92.3549 137.102C92.0376 137.326 91.8789 137.629 91.8789 138.012ZM100.319 140L97.5186 133.168H98.6246L100.837 138.726L103.021 133.168H104.113L101.299 140H100.319ZM108.626 140V133.168H109.648V140H108.626ZM109.144 131.474C108.939 131.474 108.761 131.404 108.612 131.264C108.472 131.115 108.402 130.942 108.402 130.746C108.402 130.55 108.472 130.382 108.612 130.242C108.761 130.093 108.939 130.018 109.144 130.018C109.349 130.018 109.522 130.093 109.662 130.242C109.811 130.382 109.886 130.55 109.886 130.746C109.886 130.942 109.811 131.115 109.662 131.264C109.522 131.404 109.349 131.474 109.144 131.474ZM114.347 140.14C113.759 140.14 113.311 140 113.003 139.72C112.705 139.431 112.555 139.015 112.555 138.474V134.008H111.141V133.168H112.555V131.292L113.577 131.054V133.168H115.537V134.008H113.577V138.208C113.577 138.572 113.652 138.833 113.801 138.992C113.96 139.151 114.217 139.23 114.571 139.23C114.749 139.23 114.907 139.216 115.047 139.188C115.187 139.16 115.351 139.113 115.537 139.048V139.958C115.351 140.023 115.155 140.07 114.949 140.098C114.744 140.126 114.543 140.14 114.347 140.14ZM119.978 140.14C119.343 140.14 118.769 139.986 118.256 139.678C117.742 139.361 117.336 138.936 117.038 138.404C116.739 137.863 116.59 137.256 116.59 136.584C116.59 135.912 116.73 135.31 117.01 134.778C117.299 134.246 117.686 133.826 118.172 133.518C118.657 133.21 119.198 133.056 119.796 133.056C120.402 133.056 120.939 133.21 121.406 133.518C121.882 133.817 122.255 134.227 122.526 134.75C122.806 135.263 122.946 135.847 122.946 136.5V136.808H117.584C117.621 137.275 117.747 137.695 117.962 138.068C118.186 138.432 118.475 138.721 118.83 138.936C119.194 139.141 119.59 139.244 120.02 139.244C120.374 139.244 120.715 139.183 121.042 139.062C121.378 138.931 121.662 138.759 121.896 138.544L122.54 139.23C122.148 139.538 121.742 139.767 121.322 139.916C120.902 140.065 120.454 140.14 119.978 140.14ZM117.612 136.08H121.938C121.891 135.669 121.765 135.305 121.56 134.988C121.364 134.661 121.112 134.405 120.804 134.218C120.505 134.031 120.169 133.938 119.796 133.938C119.422 133.938 119.082 134.031 118.774 134.218C118.466 134.395 118.209 134.647 118.004 134.974C117.808 135.291 117.677 135.66 117.612 136.08ZM124.691 140V133.168H125.713V134.232C125.974 133.84 126.273 133.546 126.609 133.35C126.945 133.154 127.323 133.056 127.743 133.056C128.228 133.056 128.653 133.177 129.017 133.42C129.381 133.653 129.656 133.975 129.843 134.386C130.113 133.947 130.435 133.616 130.809 133.392C131.191 133.168 131.63 133.056 132.125 133.056C132.582 133.056 132.983 133.163 133.329 133.378C133.683 133.593 133.959 133.891 134.155 134.274C134.351 134.647 134.449 135.086 134.449 135.59V140H133.427V135.842C133.427 135.245 133.277 134.773 132.979 134.428C132.68 134.083 132.269 133.91 131.747 133.91C131.392 133.91 131.07 133.999 130.781 134.176C130.501 134.353 130.253 134.624 130.039 134.988C130.057 135.081 130.071 135.179 130.081 135.282C130.09 135.385 130.095 135.487 130.095 135.59V140H129.073V135.842C129.073 135.245 128.919 134.773 128.611 134.428C128.312 134.083 127.901 133.91 127.379 133.91C126.679 133.91 126.123 134.246 125.713 134.918V140H124.691Z" fill="#4D4D4D"/>
<path d="M64 168C64 164.686 66.6863 162 70 162H288C291.314 162 294 164.686 294 168V193C294 196.314 291.314 199 288 199H70C66.6863 199 64 196.314 64 193V168Z" fill="white"/>
<path d="M81.246 185V175.2H82.366L88.106 183.32L88.078 175.2H89.1V185H88.12L82.24 176.698L82.268 185H81.246ZM93.3769 185.126C92.8916 185.126 92.4622 185.037 92.0889 184.86C91.7156 184.683 91.4216 184.44 91.2069 184.132C91.0016 183.815 90.8989 183.451 90.8989 183.04C90.8989 182.629 91.0062 182.275 91.2209 181.976C91.4356 181.668 91.7342 181.43 92.1169 181.262C92.4996 181.094 92.9476 181.01 93.4609 181.01C93.8529 181.01 94.2216 181.052 94.5669 181.136C94.9216 181.22 95.2482 181.355 95.5469 181.542V180.604C95.5469 180.044 95.3976 179.624 95.0989 179.344C94.8002 179.055 94.3616 178.91 93.7829 178.91C93.4656 178.91 93.1389 178.957 92.8029 179.05C92.4762 179.143 92.1122 179.293 91.7109 179.498L91.3329 178.714C92.2476 178.275 93.1062 178.056 93.9089 178.056C94.7582 178.056 95.4116 178.266 95.8689 178.686C96.3262 179.097 96.5549 179.689 96.5549 180.464V185H95.5469V184.202C95.2482 184.51 94.9169 184.743 94.5529 184.902C94.1889 185.051 93.7969 185.126 93.3769 185.126ZM91.8789 183.012C91.8789 183.413 92.0329 183.735 92.3409 183.978C92.6582 184.221 93.0736 184.342 93.5869 184.342C93.9696 184.342 94.3196 184.277 94.6369 184.146C94.9636 184.015 95.2669 183.819 95.5469 183.558V182.242C95.2576 182.074 94.9589 181.953 94.6509 181.878C94.3429 181.794 93.9976 181.752 93.6149 181.752C93.0922 181.752 92.6722 181.869 92.3549 182.102C92.0376 182.326 91.8789 182.629 91.8789 183.012ZM100.319 185L97.5186 178.168H98.6246L100.837 183.726L103.021 178.168H104.113L101.299 185H100.319ZM108.626 185V178.168H109.648V185H108.626ZM109.144 176.474C108.939 176.474 108.761 176.404 108.612 176.264C108.472 176.115 108.402 175.942 108.402 175.746C108.402 175.55 108.472 175.382 108.612 175.242C108.761 175.093 108.939 175.018 109.144 175.018C109.349 175.018 109.522 175.093 109.662 175.242C109.811 175.382 109.886 175.55 109.886 175.746C109.886 175.942 109.811 176.115 109.662 176.264C109.522 176.404 109.349 176.474 109.144 176.474ZM114.347 185.14C113.759 185.14 113.311 185 113.003 184.72C112.705 184.431 112.555 184.015 112.555 183.474V179.008H111.141V178.168H112.555V176.292L113.577 176.054V178.168H115.537V179.008H113.577V183.208C113.577 183.572 113.652 183.833 113.801 183.992C113.96 184.151 114.217 184.23 114.571 184.23C114.749 184.23 114.907 184.216 115.047 184.188C115.187 184.16 115.351 184.113 115.537 184.048V184.958C115.351 185.023 115.155 185.07 114.949 185.098C114.744 185.126 114.543 185.14 114.347 185.14ZM119.978 185.14C119.343 185.14 118.769 184.986 118.256 184.678C117.742 184.361 117.336 183.936 117.038 183.404C116.739 182.863 116.59 182.256 116.59 181.584C116.59 180.912 116.73 180.31 117.01 179.778C117.299 179.246 117.686 178.826 118.172 178.518C118.657 178.21 119.198 178.056 119.796 178.056C120.402 178.056 120.939 178.21 121.406 178.518C121.882 178.817 122.255 179.227 122.526 179.75C122.806 180.263 122.946 180.847 122.946 181.5V181.808H117.584C117.621 182.275 117.747 182.695 117.962 183.068C118.186 183.432 118.475 183.721 118.83 183.936C119.194 184.141 119.59 184.244 120.02 184.244C120.374 184.244 120.715 184.183 121.042 184.062C121.378 183.931 121.662 183.759 121.896 183.544L122.54 184.23C122.148 184.538 121.742 184.767 121.322 184.916C120.902 185.065 120.454 185.14 119.978 185.14ZM117.612 181.08H121.938C121.891 180.669 121.765 180.305 121.56 179.988C121.364 179.661 121.112 179.405 120.804 179.218C120.505 179.031 120.169 178.938 119.796 178.938C119.422 178.938 119.082 179.031 118.774 179.218C118.466 179.395 118.209 179.647 118.004 179.974C117.808 180.291 117.677 180.66 117.612 181.08ZM124.691 185V178.168H125.713V179.232C125.974 178.84 126.273 178.546 126.609 178.35C126.945 178.154 127.323 178.056 127.743 178.056C128.228 178.056 128.653 178.177 129.017 178.42C129.381 178.653 129.656 178.975 129.843 179.386C130.113 178.947 130.435 178.616 130.809 178.392C131.191 178.168 131.63 178.056 132.125 178.056C132.582 178.056 132.983 178.163 133.329 178.378C133.683 178.593 133.959 178.891 134.155 179.274C134.351 179.647 134.449 180.086 134.449 180.59V185H133.427V180.842C133.427 180.245 133.277 179.773 132.979 179.428C132.68 179.083 132.269 178.91 131.747 178.91C131.392 178.91 131.07 178.999 130.781 179.176C130.501 179.353 130.253 179.624 130.039 179.988C130.057 180.081 130.071 180.179 130.081 180.282C130.09 180.385 130.095 180.487 130.095 180.59V185H129.073V180.842C129.073 180.245 128.919 179.773 128.611 179.428C128.312 179.083 127.901 178.91 127.379 178.91C126.679 178.91 126.123 179.246 125.713 179.918V185H124.691Z" fill="#151515"/>
<path d="M81.246 230V220.2H82.366L88.106 228.32L88.078 220.2H89.1V230H88.12L82.24 221.698L82.268 230H81.246ZM93.3769 230.126C92.8916 230.126 92.4622 230.037 92.0889 229.86C91.7156 229.683 91.4216 229.44 91.2069 229.132C91.0016 228.815 90.8989 228.451 90.8989 228.04C90.8989 227.629 91.0062 227.275 91.2209 226.976C91.4356 226.668 91.7342 226.43 92.1169 226.262C92.4996 226.094 92.9476 226.01 93.4609 226.01C93.8529 226.01 94.2216 226.052 94.5669 226.136C94.9216 226.22 95.2482 226.355 95.5469 226.542V225.604C95.5469 225.044 95.3976 224.624 95.0989 224.344C94.8002 224.055 94.3616 223.91 93.7829 223.91C93.4656 223.91 93.1389 223.957 92.8029 224.05C92.4762 224.143 92.1122 224.293 91.7109 224.498L91.3329 223.714C92.2476 223.275 93.1062 223.056 93.9089 223.056C94.7582 223.056 95.4116 223.266 95.8689 223.686C96.3262 224.097 96.5549 224.689 96.5549 225.464V230H95.5469V229.202C95.2482 229.51 94.9169 229.743 94.5529 229.902C94.1889 230.051 93.7969 230.126 93.3769 230.126ZM91.8789 228.012C91.8789 228.413 92.0329 228.735 92.3409 228.978C92.6582 229.221 93.0736 229.342 93.5869 229.342C93.9696 229.342 94.3196 229.277 94.6369 229.146C94.9636 229.015 95.2669 228.819 95.5469 228.558V227.242C95.2576 227.074 94.9589 226.953 94.6509 226.878C94.3429 226.794 93.9976 226.752 93.6149 226.752C93.0922 226.752 92.6722 226.869 92.3549 227.102C92.0376 227.326 91.8789 227.629 91.8789 228.012ZM100.319 230L97.5186 223.168H98.6246L100.837 228.726L103.021 223.168H104.113L101.299 230H100.319ZM108.626 230V223.168H109.648V230H108.626ZM109.144 221.474C108.939 221.474 108.761 221.404 108.612 221.264C108.472 221.115 108.402 220.942 108.402 220.746C108.402 220.55 108.472 220.382 108.612 220.242C108.761 220.093 108.939 220.018 109.144 220.018C109.349 220.018 109.522 220.093 109.662 220.242C109.811 220.382 109.886 220.55 109.886 220.746C109.886 220.942 109.811 221.115 109.662 221.264C109.522 221.404 109.349 221.474 109.144 221.474ZM114.347 230.14C113.759 230.14 113.311 230 113.003 229.72C112.705 229.431 112.555 229.015 112.555 228.474V224.008H111.141V223.168H112.555V221.292L113.577 221.054V223.168H115.537V224.008H113.577V228.208C113.577 228.572 113.652 228.833 113.801 228.992C113.96 229.151 114.217 229.23 114.571 229.23C114.749 229.23 114.907 229.216 115.047 229.188C115.187 229.16 115.351 229.113 115.537 229.048V229.958C115.351 230.023 115.155 230.07 114.949 230.098C114.744 230.126 114.543 230.14 114.347 230.14ZM119.978 230.14C119.343 230.14 118.769 229.986 118.256 229.678C117.742 229.361 117.336 228.936 117.038 228.404C116.739 227.863 116.59 227.256 116.59 226.584C116.59 225.912 116.73 225.31 117.01 224.778C117.299 224.246 117.686 223.826 118.172 223.518C118.657 223.21 119.198 223.056 119.796 223.056C120.402 223.056 120.939 223.21 121.406 223.518C121.882 223.817 122.255 224.227 122.526 224.75C122.806 225.263 122.946 225.847 122.946 226.5V226.808H117.584C117.621 227.275 117.747 227.695 117.962 228.068C118.186 228.432 118.475 228.721 118.83 228.936C119.194 229.141 119.59 229.244 120.02 229.244C120.374 229.244 120.715 229.183 121.042 229.062C121.378 228.931 121.662 228.759 121.896 228.544L122.54 229.23C122.148 229.538 121.742 229.767 121.322 229.916C120.902 230.065 120.454 230.14 119.978 230.14ZM117.612 226.08H121.938C121.891 225.669 121.765 225.305 121.56 224.988C121.364 224.661 121.112 224.405 120.804 224.218C120.505 224.031 120.169 223.938 119.796 223.938C119.422 223.938 119.082 224.031 118.774 224.218C118.466 224.395 118.209 224.647 118.004 224.974C117.808 225.291 117.677 225.66 117.612 226.08ZM124.691 230V223.168H125.713V224.232C125.974 223.84 126.273 223.546 126.609 223.35C126.945 223.154 127.323 223.056 127.743 223.056C128.228 223.056 128.653 223.177 129.017 223.42C129.381 223.653 129.656 223.975 129.843 224.386C130.113 223.947 130.435 223.616 130.809 223.392C131.191 223.168 131.63 223.056 132.125 223.056C132.582 223.056 132.983 223.163 133.329 223.378C133.683 223.593 133.959 223.891 134.155 224.274C134.351 224.647 134.449 225.086 134.449 225.59V230H133.427V225.842C133.427 225.245 133.277 224.773 132.979 224.428C132.68 224.083 132.269 223.91 131.747 223.91C131.392 223.91 131.07 223.999 130.781 224.176C130.501 224.353 130.253 224.624 130.039 224.988C130.057 225.081 130.071 225.179 130.081 225.282C130.09 225.385 130.095 225.487 130.095 225.59V230H129.073V225.842C129.073 225.245 128.919 224.773 128.611 224.428C128.312 224.083 127.901 223.91 127.379 223.91C126.679 223.91 126.123 224.246 125.713 224.918V230H124.691Z" fill="#4D4D4D"/>
<path fill-rule="evenodd" clip-rule="evenodd" d="M266.997 230.461L271.092 226.496C271.375 226.222 271.375 225.778 271.089 225.504L266.994 221.539C266.714 221.265 266.256 221.265 265.973 221.539L265.296 222.204C265.013 222.475 265.013 222.918 265.296 223.192L268.198 226.003L265.296 228.814C265.013 229.085 265.013 229.528 265.296 229.802L265.976 230.461C266.256 230.735 266.714 230.735 266.997 230.461Z" fill="#707070"/>
<path d="M81.246 275V265.2H82.366L88.106 273.32L88.078 265.2H89.1V275H88.12L82.24 266.698L82.268 275H81.246ZM93.3769 275.126C92.8916 275.126 92.4622 275.037 92.0889 274.86C91.7156 274.683 91.4216 274.44 91.2069 274.132C91.0016 273.815 90.8989 273.451 90.8989 273.04C90.8989 272.629 91.0062 272.275 91.2209 271.976C91.4356 271.668 91.7342 271.43 92.1169 271.262C92.4996 271.094 92.9476 271.01 93.4609 271.01C93.8529 271.01 94.2216 271.052 94.5669 271.136C94.9216 271.22 95.2482 271.355 95.5469 271.542V270.604C95.5469 270.044 95.3976 269.624 95.0989 269.344C94.8002 269.055 94.3616 268.91 93.7829 268.91C93.4656 268.91 93.1389 268.957 92.8029 269.05C92.4762 269.143 92.1122 269.293 91.7109 269.498L91.3329 268.714C92.2476 268.275 93.1062 268.056 93.9089 268.056C94.7582 268.056 95.4116 268.266 95.8689 268.686C96.3262 269.097 96.5549 269.689 96.5549 270.464V275H95.5469V274.202C95.2482 274.51 94.9169 274.743 94.5529 274.902C94.1889 275.051 93.7969 275.126 93.3769 275.126ZM91.8789 273.012C91.8789 273.413 92.0329 273.735 92.3409 273.978C92.6582 274.221 93.0736 274.342 93.5869 274.342C93.9696 274.342 94.3196 274.277 94.6369 274.146C94.9636 274.015 95.2669 273.819 95.5469 273.558V272.242C95.2576 272.074 94.9589 271.953 94.6509 271.878C94.3429 271.794 93.9976 271.752 93.6149 271.752C93.0922 271.752 92.6722 271.869 92.3549 272.102C92.0376 272.326 91.8789 272.629 91.8789 273.012ZM100.319 275L97.5186 268.168H98.6246L100.837 273.726L103.021 268.168H104.113L101.299 275H100.319ZM108.626 275V268.168H109.648V275H108.626ZM109.144 266.474C108.939 266.474 108.761 266.404 108.612 266.264C108.472 266.115 108.402 265.942 108.402 265.746C108.402 265.55 108.472 265.382 108.612 265.242C108.761 265.093 108.939 265.018 109.144 265.018C109.349 265.018 109.522 265.093 109.662 265.242C109.811 265.382 109.886 265.55 109.886 265.746C109.886 265.942 109.811 266.115 109.662 266.264C109.522 266.404 109.349 266.474 109.144 266.474ZM114.347 275.14C113.759 275.14 113.311 275 113.003 274.72C112.705 274.431 112.555 274.015 112.555 273.474V269.008H111.141V268.168H112.555V266.292L113.577 266.054V268.168H115.537V269.008H113.577V273.208C113.577 273.572 113.652 273.833 113.801 273.992C113.96 274.151 114.217 274.23 114.571 274.23C114.749 274.23 114.907 274.216 115.047 274.188C115.187 274.16 115.351 274.113 115.537 274.048V274.958C115.351 275.023 115.155 275.07 114.949 275.098C114.744 275.126 114.543 275.14 114.347 275.14ZM119.978 275.14C119.343 275.14 118.769 274.986 118.256 274.678C117.742 274.361 117.336 273.936 117.038 273.404C116.739 272.863 116.59 272.256 116.59 271.584C116.59 270.912 116.73 270.31 117.01 269.778C117.299 269.246 117.686 268.826 118.172 268.518C118.657 268.21 119.198 268.056 119.796 268.056C120.402 268.056 120.939 268.21 121.406 268.518C121.882 268.817 122.255 269.227 122.526 269.75C122.806 270.263 122.946 270.847 122.946 271.5V271.808H117.584C117.621 272.275 117.747 272.695 117.962 273.068C118.186 273.432 118.475 273.721 118.83 273.936C119.194 274.141 119.59 274.244 120.02 274.244C120.374 274.244 120.715 274.183 121.042 274.062C121.378 273.931 121.662 273.759 121.896 273.544L122.54 274.23C122.148 274.538 121.742 274.767 121.322 274.916C120.902 275.065 120.454 275.14 119.978 275.14ZM117.612 271.08H121.938C121.891 270.669 121.765 270.305 121.56 269.988C121.364 269.661 121.112 269.405 120.804 269.218C120.505 269.031 120.169 268.938 119.796 268.938C119.422 268.938 119.082 269.031 118.774 269.218C118.466 269.395 118.209 269.647 118.004 269.974C117.808 270.291 117.677 270.66 117.612 271.08ZM124.691 275V268.168H125.713V269.232C125.974 268.84 126.273 268.546 126.609 268.35C126.945 268.154 127.323 268.056 127.743 268.056C128.228 268.056 128.653 268.177 129.017 268.42C129.381 268.653 129.656 268.975 129.843 269.386C130.113 268.947 130.435 268.616 130.809 268.392C131.191 268.168 131.63 268.056 132.125 268.056C132.582 268.056 132.983 268.163 133.329 268.378C133.683 268.593 133.959 268.891 134.155 269.274C134.351 269.647 134.449 270.086 134.449 270.59V275H133.427V270.842C133.427 270.245 133.277 269.773 132.979 269.428C132.68 269.083 132.269 268.91 131.747 268.91C131.392 268.91 131.07 268.999 130.781 269.176C130.501 269.353 130.253 269.624 130.039 269.988C130.057 270.081 130.071 270.179 130.081 270.282C130.09 270.385 130.095 270.487 130.095 270.59V275H129.073V270.842C129.073 270.245 128.919 269.773 128.611 269.428C128.312 269.083 127.901 268.91 127.379 268.91C126.679 268.91 126.123 269.246 125.713 269.918V275H124.691Z" fill="#4D4D4D"/>
<path d="M318 109C318 100.163 325.163 93 334 93H1500C1508.84 93 1516 100.163 1516 109V821C1516 829.837 1508.84 837 1500 837H334C325.163 837 318 829.837 318 821V109Z" fill="white"/>
<path d="M318 109C318 100.163 325.163 93 334 93H1500C1508.84 93 1516 100.163 1516 109V135H318V109Z" fill="white"/>
<path d="M345.78 130.132C345.124 130.132 344.516 130.016 343.956 129.784C343.396 129.544 342.856 129.184 342.336 128.704L342.9 128.032C343.404 128.504 343.876 128.84 344.316 129.04C344.764 129.24 345.26 129.34 345.804 129.34C346.236 129.34 346.62 129.268 346.956 129.124C347.3 128.972 347.568 128.768 347.76 128.512C347.952 128.256 348.048 127.964 348.048 127.636C348.048 127.212 347.908 126.892 347.628 126.676C347.348 126.452 346.864 126.28 346.176 126.16L344.82 125.932C344.052 125.796 343.488 125.564 343.128 125.236C342.776 124.9 342.6 124.452 342.6 123.892C342.6 123.42 342.72 123.004 342.96 122.644C343.208 122.276 343.548 121.988 343.98 121.78C344.412 121.572 344.912 121.468 345.48 121.468C346.104 121.468 346.684 121.556 347.22 121.732C347.756 121.9 348.284 122.168 348.804 122.536L348.324 123.256C347.892 122.928 347.436 122.68 346.956 122.512C346.476 122.336 345.988 122.248 345.492 122.248C345.1 122.248 344.752 122.316 344.448 122.452C344.152 122.588 343.916 122.772 343.74 123.004C343.572 123.236 343.488 123.5 343.488 123.796C343.488 124.164 343.612 124.452 343.86 124.66C344.108 124.868 344.512 125.016 345.072 125.104L346.416 125.332C347.312 125.492 347.96 125.752 348.36 126.112C348.768 126.464 348.972 126.956 348.972 127.588C348.972 128.076 348.832 128.512 348.552 128.896C348.28 129.28 347.904 129.584 347.424 129.808C346.944 130.024 346.396 130.132 345.78 130.132ZM353.134 130.12C352.59 130.12 352.098 129.988 351.658 129.724C351.218 129.452 350.87 129.088 350.614 128.632C350.358 128.168 350.23 127.648 350.23 127.072C350.23 126.496 350.35 125.98 350.59 125.524C350.838 125.068 351.17 124.708 351.586 124.444C352.002 124.18 352.466 124.048 352.978 124.048C353.498 124.048 353.958 124.18 354.358 124.444C354.766 124.7 355.086 125.052 355.318 125.5C355.558 125.94 355.678 126.44 355.678 127V127.264H351.082C351.114 127.664 351.222 128.024 351.406 128.344C351.598 128.656 351.846 128.904 352.15 129.088C352.462 129.264 352.802 129.352 353.17 129.352C353.474 129.352 353.766 129.3 354.046 129.196C354.334 129.084 354.578 128.936 354.778 128.752L355.33 129.34C354.994 129.604 354.646 129.8 354.286 129.928C353.926 130.056 353.542 130.12 353.134 130.12ZM351.106 126.64H354.814C354.774 126.288 354.666 125.976 354.49 125.704C354.322 125.424 354.106 125.204 353.842 125.044C353.586 124.884 353.298 124.804 352.978 124.804C352.658 124.804 352.366 124.884 352.102 125.044C351.838 125.196 351.618 125.412 351.442 125.692C351.274 125.964 351.162 126.28 351.106 126.64ZM359.801 130.096C359.257 130.096 358.765 129.964 358.325 129.7C357.893 129.428 357.549 129.064 357.293 128.608C357.037 128.144 356.909 127.632 356.909 127.072C356.909 126.504 357.037 125.992 357.293 125.536C357.549 125.08 357.893 124.72 358.325 124.456C358.765 124.184 359.257 124.048 359.801 124.048C360.233 124.048 360.645 124.128 361.037 124.288C361.429 124.448 361.769 124.672 362.057 124.96L361.493 125.572C361.285 125.34 361.033 125.16 360.737 125.032C360.441 124.904 360.141 124.84 359.837 124.84C359.453 124.84 359.105 124.94 358.793 125.14C358.489 125.34 358.245 125.608 358.061 125.944C357.877 126.28 357.785 126.656 357.785 127.072C357.785 127.488 357.877 127.864 358.061 128.2C358.245 128.536 358.489 128.804 358.793 129.004C359.105 129.204 359.453 129.304 359.837 129.304C360.141 129.304 360.441 129.24 360.737 129.112C361.033 128.976 361.285 128.796 361.493 128.572L362.057 129.184C361.769 129.472 361.429 129.696 361.037 129.856C360.645 130.016 360.233 130.096 359.801 130.096ZM365.628 130.12C365.124 130.12 364.74 130 364.476 129.76C364.22 129.512 364.092 129.156 364.092 128.692V124.864H362.88V124.144H364.092V122.536L364.968 122.332V124.144H366.648V124.864H364.968V128.464C364.968 128.776 365.032 129 365.16 129.136C365.296 129.272 365.516 129.34 365.82 129.34C365.972 129.34 366.108 129.328 366.228 129.304C366.348 129.28 366.488 129.24 366.648 129.184V129.964C366.488 130.02 366.32 130.06 366.144 130.084C365.968 130.108 365.796 130.12 365.628 130.12ZM367.919 130V124.144H368.795V130H367.919ZM368.363 122.692C368.187 122.692 368.035 122.632 367.907 122.512C367.787 122.384 367.727 122.236 367.727 122.068C367.727 121.9 367.787 121.756 367.907 121.636C368.035 121.508 368.187 121.444 368.363 121.444C368.539 121.444 368.687 121.508 368.807 121.636C368.935 121.756 368.999 121.9 368.999 122.068C368.999 122.236 368.935 122.384 368.807 122.512C368.687 122.632 368.539 122.692 368.363 122.692ZM373.183 130.096C372.639 130.096 372.151 129.964 371.719 129.7C371.287 129.436 370.947 129.076 370.699 128.62C370.451 128.164 370.327 127.648 370.327 127.072C370.327 126.496 370.451 125.98 370.699 125.524C370.947 125.068 371.287 124.708 371.719 124.444C372.151 124.18 372.639 124.048 373.183 124.048C373.719 124.048 374.199 124.18 374.623 124.444C375.055 124.708 375.395 125.068 375.643 125.524C375.891 125.98 376.015 126.496 376.015 127.072C376.015 127.648 375.891 128.164 375.643 128.62C375.395 129.076 375.055 129.436 374.623 129.7C374.199 129.964 373.719 130.096 373.183 130.096ZM373.171 129.328C373.555 129.328 373.895 129.232 374.191 129.04C374.487 128.84 374.719 128.568 374.887 128.224C375.063 127.88 375.151 127.496 375.151 127.072C375.151 126.64 375.063 126.256 374.887 125.92C374.719 125.576 374.487 125.308 374.191 125.116C373.895 124.916 373.555 124.816 373.171 124.816C372.787 124.816 372.447 124.916 372.151 125.116C371.855 125.308 371.619 125.576 371.443 125.92C371.275 126.256 371.191 126.64 371.191 127.072C371.191 127.496 371.275 127.88 371.443 128.224C371.619 128.568 371.855 128.84 372.151 129.04C372.447 129.232 372.787 129.328 373.171 129.328ZM377.552 130V124.144H378.428V125.092C378.652 124.74 378.92 124.48 379.232 124.312C379.544 124.136 379.896 124.048 380.288 124.048C380.712 124.048 381.08 124.14 381.392 124.324C381.712 124.5 381.96 124.752 382.136 125.08C382.32 125.4 382.412 125.776 382.412 126.208V130H381.536V126.46C381.536 125.94 381.392 125.532 381.104 125.236C380.824 124.932 380.444 124.78 379.964 124.78C379.644 124.78 379.352 124.856 379.088 125.008C378.824 125.16 378.604 125.384 378.428 125.68V130H377.552ZM389.206 130.12C388.702 130.12 388.318 130 388.054 129.76C387.798 129.512 387.67 129.156 387.67 128.692V124.864H386.458V124.144H387.67V122.536L388.546 122.332V124.144H390.226V124.864H388.546V128.464C388.546 128.776 388.61 129 388.738 129.136C388.874 129.272 389.094 129.34 389.398 129.34C389.55 129.34 389.686 129.328 389.806 129.304C389.926 129.28 390.066 129.24 390.226 129.184V129.964C390.066 130.02 389.898 130.06 389.722 130.084C389.546 130.108 389.374 130.12 389.206 130.12ZM391.497 130V124.144H392.373V130H391.497ZM391.941 122.692C391.765 122.692 391.613 122.632 391.485 122.512C391.365 122.384 391.305 122.236 391.305 122.068C391.305 121.9 391.365 121.756 391.485 121.636C391.613 121.508 391.765 121.444 391.941 121.444C392.117 121.444 392.265 121.508 392.385 121.636C392.513 121.756 392.577 121.9 392.577 122.068C392.577 122.236 392.513 122.384 392.385 122.512C392.265 122.632 392.117 122.692 391.941 122.692ZM396.402 130.12C395.898 130.12 395.514 130 395.25 129.76C394.994 129.512 394.866 129.156 394.866 128.692V124.864H393.654V124.144H394.866V122.536L395.742 122.332V124.144H397.422V124.864H395.742V128.464C395.742 128.776 395.806 129 395.934 129.136C396.07 129.272 396.29 129.34 396.594 129.34C396.746 129.34 396.882 129.328 397.002 129.304C397.122 129.28 397.262 129.24 397.422 129.184V129.964C397.262 130.02 397.094 130.06 396.918 130.084C396.742 130.108 396.57 130.12 396.402 130.12ZM398.705 130V121.336L399.581 121.156V130H398.705ZM404.017 130.12C403.473 130.12 402.981 129.988 402.541 129.724C402.101 129.452 401.753 129.088 401.497 128.632C401.241 128.168 401.113 127.648 401.113 127.072C401.113 126.496 401.233 125.98 401.473 125.524C401.721 125.068 402.053 124.708 402.469 124.444C402.885 124.18 403.349 124.048 403.861 124.048C404.381 124.048 404.841 124.18 405.241 124.444C405.649 124.7 405.969 125.052 406.201 125.5C406.441 125.94 406.561 126.44 406.561 127V127.264H401.965C401.997 127.664 402.105 128.024 402.289 128.344C402.481 128.656 402.729 128.904 403.033 129.088C403.345 129.264 403.685 129.352 404.053 129.352C404.357 129.352 404.649 129.3 404.929 129.196C405.217 129.084 405.461 128.936 405.661 128.752L406.213 129.34C405.877 129.604 405.529 129.8 405.169 129.928C404.809 130.056 404.425 130.12 404.017 130.12ZM401.989 126.64H405.697C405.657 126.288 405.549 125.976 405.373 125.704C405.205 125.424 404.989 125.204 404.725 125.044C404.469 124.884 404.181 124.804 403.861 124.804C403.541 124.804 403.249 124.884 402.985 125.044C402.721 125.196 402.501 125.412 402.325 125.692C402.157 125.964 402.045 126.28 401.989 126.64Z" fill="#151515"/>
<path fill-rule="evenodd" clip-rule="evenodd" d="M423.989 129.337L427.177 126.15C427.397 125.929 427.397 125.573 427.175 125.353L423.987 122.165C423.769 121.945 423.413 121.945 423.193 122.165L422.665 122.7C422.445 122.918 422.445 123.274 422.665 123.494L424.925 125.754L422.665 128.013C422.445 128.231 422.445 128.587 422.665 128.807L423.195 129.337C423.413 129.557 423.769 129.557 423.989 129.337Z" fill="#1F1F1F"/>
<path d="M445.78 130.132C445.124 130.132 444.516 130.016 443.956 129.784C443.396 129.544 442.856 129.184 442.336 128.704L442.9 128.032C443.404 128.504 443.876 128.84 444.316 129.04C444.764 129.24 445.26 129.34 445.804 129.34C446.236 129.34 446.62 129.268 446.956 129.124C447.3 128.972 447.568 128.768 447.76 128.512C447.952 128.256 448.048 127.964 448.048 127.636C448.048 127.212 447.908 126.892 447.628 126.676C447.348 126.452 446.864 126.28 446.176 126.16L444.82 125.932C444.052 125.796 443.488 125.564 443.128 125.236C442.776 124.9 442.6 124.452 442.6 123.892C442.6 123.42 442.72 123.004 442.96 122.644C443.208 122.276 443.548 121.988 443.98 121.78C444.412 121.572 444.912 121.468 445.48 121.468C446.104 121.468 446.684 121.556 447.22 121.732C447.756 121.9 448.284 122.168 448.804 122.536L448.324 123.256C447.892 122.928 447.436 122.68 446.956 122.512C446.476 122.336 445.988 122.248 445.492 122.248C445.1 122.248 444.752 122.316 444.448 122.452C444.152 122.588 443.916 122.772 443.74 123.004C443.572 123.236 443.488 123.5 443.488 123.796C443.488 124.164 443.612 124.452 443.86 124.66C444.108 124.868 444.512 125.016 445.072 125.104L446.416 125.332C447.312 125.492 447.96 125.752 448.36 126.112C448.768 126.464 448.972 126.956 448.972 127.588C448.972 128.076 448.832 128.512 448.552 128.896C448.28 129.28 447.904 129.584 447.424 129.808C446.944 130.024 446.396 130.132 445.78 130.132ZM453.134 130.12C452.59 130.12 452.098 129.988 451.658 129.724C451.218 129.452 450.87 129.088 450.614 128.632C450.358 128.168 450.23 127.648 450.23 127.072C450.23 126.496 450.35 125.98 450.59 125.524C450.838 125.068 451.17 124.708 451.586 124.444C452.002 124.18 452.466 124.048 452.978 124.048C453.498 124.048 453.958 124.18 454.358 124.444C454.766 124.7 455.086 125.052 455.318 125.5C455.558 125.94 455.678 126.44 455.678 127V127.264H451.082C451.114 127.664 451.222 128.024 451.406 128.344C451.598 128.656 451.846 128.904 452.15 129.088C452.462 129.264 452.802 129.352 453.17 129.352C453.474 129.352 453.766 129.3 454.046 129.196C454.334 129.084 454.578 128.936 454.778 128.752L455.33 129.34C454.994 129.604 454.646 129.8 454.286 129.928C453.926 130.056 453.542 130.12 453.134 130.12ZM451.106 126.64H454.814C454.774 126.288 454.666 125.976 454.49 125.704C454.322 125.424 454.106 125.204 453.842 125.044C453.586 124.884 453.298 124.804 452.978 124.804C452.658 124.804 452.366 124.884 452.102 125.044C451.838 125.196 451.618 125.412 451.442 125.692C451.274 125.964 451.162 126.28 451.106 126.64ZM459.801 130.096C459.257 130.096 458.765 129.964 458.325 129.7C457.893 129.428 457.549 129.064 457.293 128.608C457.037 128.144 456.909 127.632 456.909 127.072C456.909 126.504 457.037 125.992 457.293 125.536C457.549 125.08 457.893 124.72 458.325 124.456C458.765 124.184 459.257 124.048 459.801 124.048C460.233 124.048 460.645 124.128 461.037 124.288C461.429 124.448 461.769 124.672 462.057 124.96L461.493 125.572C461.285 125.34 461.033 125.16 460.737 125.032C460.441 124.904 460.141 124.84 459.837 124.84C459.453 124.84 459.105 124.94 458.793 125.14C458.489 125.34 458.245 125.608 458.061 125.944C457.877 126.28 457.785 126.656 457.785 127.072C457.785 127.488 457.877 127.864 458.061 128.2C458.245 128.536 458.489 128.804 458.793 129.004C459.105 129.204 459.453 129.304 459.837 129.304C460.141 129.304 460.441 129.24 460.737 129.112C461.033 128.976 461.285 128.796 461.493 128.572L462.057 129.184C461.769 129.472 461.429 129.696 461.037 129.856C460.645 130.016 460.233 130.096 459.801 130.096ZM465.628 130.12C465.124 130.12 464.74 130 464.476 129.76C464.22 129.512 464.092 129.156 464.092 128.692V124.864H462.88V124.144H464.092V122.536L464.968 122.332V124.144H466.648V124.864H464.968V128.464C464.968 128.776 465.032 129 465.16 129.136C465.296 129.272 465.516 129.34 465.82 129.34C465.972 129.34 466.108 129.328 466.228 129.304C466.348 129.28 466.488 129.24 466.648 129.184V129.964C466.488 130.02 466.32 130.06 466.144 130.084C465.968 130.108 465.796 130.12 465.628 130.12ZM467.919 130V124.144H468.795V130H467.919ZM468.363 122.692C468.187 122.692 468.035 122.632 467.907 122.512C467.787 122.384 467.727 122.236 467.727 122.068C467.727 121.9 467.787 121.756 467.907 121.636C468.035 121.508 468.187 121.444 468.363 121.444C468.539 121.444 468.687 121.508 468.807 121.636C468.935 121.756 468.999 121.9 468.999 122.068C468.999 122.236 468.935 122.384 468.807 122.512C468.687 122.632 468.539 122.692 468.363 122.692ZM473.183 130.096C472.639 130.096 472.151 129.964 471.719 129.7C471.287 129.436 470.947 129.076 470.699 128.62C470.451 128.164 470.327 127.648 470.327 127.072C470.327 126.496 470.451 125.98 470.699 125.524C470.947 125.068 471.287 124.708 471.719 124.444C472.151 124.18 472.639 124.048 473.183 124.048C473.719 124.048 474.199 124.18 474.623 124.444C475.055 124.708 475.395 125.068 475.643 125.524C475.891 125.98 476.015 126.496 476.015 127.072C476.015 127.648 475.891 128.164 475.643 128.62C475.395 129.076 475.055 129.436 474.623 129.7C474.199 129.964 473.719 130.096 473.183 130.096ZM473.171 129.328C473.555 129.328 473.895 129.232 474.191 129.04C474.487 128.84 474.719 128.568 474.887 128.224C475.063 127.88 475.151 127.496 475.151 127.072C475.151 126.64 475.063 126.256 474.887 125.92C474.719 125.576 474.487 125.308 474.191 125.116C473.895 124.916 473.555 124.816 473.171 124.816C472.787 124.816 472.447 124.916 472.151 125.116C471.855 125.308 471.619 125.576 471.443 125.92C471.275 126.256 471.191 126.64 471.191 127.072C471.191 127.496 471.275 127.88 471.443 128.224C471.619 128.568 471.855 128.84 472.151 129.04C472.447 129.232 472.787 129.328 473.171 129.328ZM477.552 130V124.144H478.428V125.092C478.652 124.74 478.92 124.48 479.232 124.312C479.544 124.136 479.896 124.048 480.288 124.048C480.712 124.048 481.08 124.14 481.392 124.324C481.712 124.5 481.96 124.752 482.136 125.08C482.32 125.4 482.412 125.776 482.412 126.208V130H481.536V126.46C481.536 125.94 481.392 125.532 481.104 125.236C480.824 124.932 480.444 124.78 479.964 124.78C479.644 124.78 479.352 124.856 479.088 125.008C478.824 125.16 478.604 125.384 478.428 125.68V130H477.552ZM489.206 130.12C488.702 130.12 488.318 130 488.054 129.76C487.798 129.512 487.67 129.156 487.67 128.692V124.864H486.458V124.144H487.67V122.536L488.546 122.332V124.144H490.226V124.864H488.546V128.464C488.546 128.776 488.61 129 488.738 129.136C488.874 129.272 489.094 129.34 489.398 129.34C489.55 129.34 489.686 129.328 489.806 129.304C489.926 129.28 490.066 129.24 490.226 129.184V129.964C490.066 130.02 489.898 130.06 489.722 130.084C489.546 130.108 489.374 130.12 489.206 130.12ZM491.497 130V124.144H492.373V130H491.497ZM491.941 122.692C491.765 122.692 491.613 122.632 491.485 122.512C491.365 122.384 491.305 122.236 491.305 122.068C491.305 121.9 491.365 121.756 491.485 121.636C491.613 121.508 491.765 121.444 491.941 121.444C492.117 121.444 492.265 121.508 492.385 121.636C492.513 121.756 492.577 121.9 492.577 122.068C492.577 122.236 492.513 122.384 492.385 122.512C492.265 122.632 492.117 122.692 491.941 122.692ZM496.402 130.12C495.898 130.12 495.514 130 495.25 129.76C494.994 129.512 494.866 129.156 494.866 128.692V124.864H493.654V124.144H494.866V122.536L495.742 122.332V124.144H497.422V124.864H495.742V128.464C495.742 128.776 495.806 129 495.934 129.136C496.07 129.272 496.29 129.34 496.594 129.34C496.746 129.34 496.882 129.328 497.002 129.304C497.122 129.28 497.262 129.24 497.422 129.184V129.964C497.262 130.02 497.094 130.06 496.918 130.084C496.742 130.108 496.57 130.12 496.402 130.12ZM498.705 130V121.336L499.581 121.156V130H498.705ZM504.017 130.12C503.473 130.12 502.981 129.988 502.541 129.724C502.101 129.452 501.753 129.088 501.497 128.632C501.241 128.168 501.113 127.648 501.113 127.072C501.113 126.496 501.233 125.98 501.473 125.524C501.721 125.068 502.053 124.708 502.469 124.444C502.885 124.18 503.349 124.048 503.861 124.048C504.381 124.048 504.841 124.18 505.241 124.444C505.649 124.7 505.969 125.052 506.201 125.5C506.441 125.94 506.561 126.44 506.561 127V127.264H501.965C501.997 127.664 502.105 128.024 502.289 128.344C502.481 128.656 502.729 128.904 503.033 129.088C503.345 129.264 503.685 129.352 504.053 129.352C504.357 129.352 504.649 129.3 504.929 129.196C505.217 129.084 505.461 128.936 505.661 128.752L506.213 129.34C505.877 129.604 505.529 129.8 505.169 129.928C504.809 130.056 504.425 130.12 504.017 130.12ZM501.989 126.64H505.697C505.657 126.288 505.549 125.976 505.373 125.704C505.205 125.424 504.989 125.204 504.725 125.044C504.469 124.884 504.181 124.804 503.861 124.804C503.541 124.804 503.249 124.884 502.985 125.044C502.721 125.196 502.501 125.412 502.325 125.692C502.157 125.964 502.045 126.28 501.989 126.64Z" fill="#0066CC"/>
<path d="M442 133H507.161V134.2H442V133Z" fill="#0066CC"/>
<path fill-rule="evenodd" clip-rule="evenodd" d="M523.989 129.337L527.177 126.15C527.397 125.929 527.397 125.573 527.175 125.353L523.987 122.165C523.769 121.945 523.413 121.945 523.193 122.165L522.665 122.7C522.445 122.918 522.445 123.274 522.665 123.494L524.925 125.754L522.665 128.013C522.445 128.231 522.445 128.587 522.665 128.807L523.195 129.337C523.413 129.557 523.769 129.557 523.989 129.337Z" fill="#1F1F1F"/>
<path d="M545.78 130.132C545.124 130.132 544.516 130.016 543.956 129.784C543.396 129.544 542.856 129.184 542.336 128.704L542.9 128.032C543.404 128.504 543.876 128.84 544.316 129.04C544.764 129.24 545.26 129.34 545.804 129.34C546.236 129.34 546.62 129.268 546.956 129.124C547.3 128.972 547.568 128.768 547.76 128.512C547.952 128.256 548.048 127.964 548.048 127.636C548.048 127.212 547.908 126.892 547.628 126.676C547.348 126.452 546.864 126.28 546.176 126.16L544.82 125.932C544.052 125.796 543.488 125.564 543.128 125.236C542.776 124.9 542.6 124.452 542.6 123.892C542.6 123.42 542.72 123.004 542.96 122.644C543.208 122.276 543.548 121.988 543.98 121.78C544.412 121.572 544.912 121.468 545.48 121.468C546.104 121.468 546.684 121.556 547.22 121.732C547.756 121.9 548.284 122.168 548.804 122.536L548.324 123.256C547.892 122.928 547.436 122.68 546.956 122.512C546.476 122.336 545.988 122.248 545.492 122.248C545.1 122.248 544.752 122.316 544.448 122.452C544.152 122.588 543.916 122.772 543.74 123.004C543.572 123.236 543.488 123.5 543.488 123.796C543.488 124.164 543.612 124.452 543.86 124.66C544.108 124.868 544.512 125.016 545.072 125.104L546.416 125.332C547.312 125.492 547.96 125.752 548.36 126.112C548.768 126.464 548.972 126.956 548.972 127.588C548.972 128.076 548.832 128.512 548.552 128.896C548.28 129.28 547.904 129.584 547.424 129.808C546.944 130.024 546.396 130.132 545.78 130.132ZM553.134 130.12C552.59 130.12 552.098 129.988 551.658 129.724C551.218 129.452 550.87 129.088 550.614 128.632C550.358 128.168 550.23 127.648 550.23 127.072C550.23 126.496 550.35 125.98 550.59 125.524C550.838 125.068 551.17 124.708 551.586 124.444C552.002 124.18 552.466 124.048 552.978 124.048C553.498 124.048 553.958 124.18 554.358 124.444C554.766 124.7 555.086 125.052 555.318 125.5C555.558 125.94 555.678 126.44 555.678 127V127.264H551.082C551.114 127.664 551.222 128.024 551.406 128.344C551.598 128.656 551.846 128.904 552.15 129.088C552.462 129.264 552.802 129.352 553.17 129.352C553.474 129.352 553.766 129.3 554.046 129.196C554.334 129.084 554.578 128.936 554.778 128.752L555.33 129.34C554.994 129.604 554.646 129.8 554.286 129.928C553.926 130.056 553.542 130.12 553.134 130.12ZM551.106 126.64H554.814C554.774 126.288 554.666 125.976 554.49 125.704C554.322 125.424 554.106 125.204 553.842 125.044C553.586 124.884 553.298 124.804 552.978 124.804C552.658 124.804 552.366 124.884 552.102 125.044C551.838 125.196 551.618 125.412 551.442 125.692C551.274 125.964 551.162 126.28 551.106 126.64ZM559.801 130.096C559.257 130.096 558.765 129.964 558.325 129.7C557.893 129.428 557.549 129.064 557.293 128.608C557.037 128.144 556.909 127.632 556.909 127.072C556.909 126.504 557.037 125.992 557.293 125.536C557.549 125.08 557.893 124.72 558.325 124.456C558.765 124.184 559.257 124.048 559.801 124.048C560.233 124.048 560.645 124.128 561.037 124.288C561.429 124.448 561.769 124.672 562.057 124.96L561.493 125.572C561.285 125.34 561.033 125.16 560.737 125.032C560.441 124.904 560.141 124.84 559.837 124.84C559.453 124.84 559.105 124.94 558.793 125.14C558.489 125.34 558.245 125.608 558.061 125.944C557.877 126.28 557.785 126.656 557.785 127.072C557.785 127.488 557.877 127.864 558.061 128.2C558.245 128.536 558.489 128.804 558.793 129.004C559.105 129.204 559.453 129.304 559.837 129.304C560.141 129.304 560.441 129.24 560.737 129.112C561.033 128.976 561.285 128.796 561.493 128.572L562.057 129.184C561.769 129.472 561.429 129.696 561.037 129.856C560.645 130.016 560.233 130.096 559.801 130.096ZM565.628 130.12C565.124 130.12 564.74 130 564.476 129.76C564.22 129.512 564.092 129.156 564.092 128.692V124.864H562.88V124.144H564.092V122.536L564.968 122.332V124.144H566.648V124.864H564.968V128.464C564.968 128.776 565.032 129 565.16 129.136C565.296 129.272 565.516 129.34 565.82 129.34C565.972 129.34 566.108 129.328 566.228 129.304C566.348 129.28 566.488 129.24 566.648 129.184V129.964C566.488 130.02 566.32 130.06 566.144 130.084C565.968 130.108 565.796 130.12 565.628 130.12ZM567.919 130V124.144H568.795V130H567.919ZM568.363 122.692C568.187 122.692 568.035 122.632 567.907 122.512C567.787 122.384 567.727 122.236 567.727 122.068C567.727 121.9 567.787 121.756 567.907 121.636C568.035 121.508 568.187 121.444 568.363 121.444C568.539 121.444 568.687 121.508 568.807 121.636C568.935 121.756 568.999 121.9 568.999 122.068C568.999 122.236 568.935 122.384 568.807 122.512C568.687 122.632 568.539 122.692 568.363 122.692ZM573.183 130.096C572.639 130.096 572.151 129.964 571.719 129.7C571.287 129.436 570.947 129.076 570.699 128.62C570.451 128.164 570.327 127.648 570.327 127.072C570.327 126.496 570.451 125.98 570.699 125.524C570.947 125.068 571.287 124.708 571.719 124.444C572.151 124.18 572.639 124.048 573.183 124.048C573.719 124.048 574.199 124.18 574.623 124.444C575.055 124.708 575.395 125.068 575.643 125.524C575.891 125.98 576.015 126.496 576.015 127.072C576.015 127.648 575.891 128.164 575.643 128.62C575.395 129.076 575.055 129.436 574.623 129.7C574.199 129.964 573.719 130.096 573.183 130.096ZM573.171 129.328C573.555 129.328 573.895 129.232 574.191 129.04C574.487 128.84 574.719 128.568 574.887 128.224C575.063 127.88 575.151 127.496 575.151 127.072C575.151 126.64 575.063 126.256 574.887 125.92C574.719 125.576 574.487 125.308 574.191 125.116C573.895 124.916 573.555 124.816 573.171 124.816C572.787 124.816 572.447 124.916 572.151 125.116C571.855 125.308 571.619 125.576 571.443 125.92C571.275 126.256 571.191 126.64 571.191 127.072C571.191 127.496 571.275 127.88 571.443 128.224C571.619 128.568 571.855 128.84 572.151 129.04C572.447 129.232 572.787 129.328 573.171 129.328ZM577.552 130V124.144H578.428V125.092C578.652 124.74 578.92 124.48 579.232 124.312C579.544 124.136 579.896 124.048 580.288 124.048C580.712 124.048 581.08 124.14 581.392 124.324C581.712 124.5 581.96 124.752 582.136 125.08C582.32 125.4 582.412 125.776 582.412 126.208V130H581.536V126.46C581.536 125.94 581.392 125.532 581.104 125.236C580.824 124.932 580.444 124.78 579.964 124.78C579.644 124.78 579.352 124.856 579.088 125.008C578.824 125.16 578.604 125.384 578.428 125.68V130H577.552ZM589.206 130.12C588.702 130.12 588.318 130 588.054 129.76C587.798 129.512 587.67 129.156 587.67 128.692V124.864H586.458V124.144H587.67V122.536L588.546 122.332V124.144H590.226V124.864H588.546V128.464C588.546 128.776 588.61 129 588.738 129.136C588.874 129.272 589.094 129.34 589.398 129.34C589.55 129.34 589.686 129.328 589.806 129.304C589.926 129.28 590.066 129.24 590.226 129.184V129.964C590.066 130.02 589.898 130.06 589.722 130.084C589.546 130.108 589.374 130.12 589.206 130.12ZM591.497 130V124.144H592.373V130H591.497ZM591.941 122.692C591.765 122.692 591.613 122.632 591.485 122.512C591.365 122.384 591.305 122.236 591.305 122.068C591.305 121.9 591.365 121.756 591.485 121.636C591.613 121.508 591.765 121.444 591.941 121.444C592.117 121.444 592.265 121.508 592.385 121.636C592.513 121.756 592.577 121.9 592.577 122.068C592.577 122.236 592.513 122.384 592.385 122.512C592.265 122.632 592.117 122.692 591.941 122.692ZM596.402 130.12C595.898 130.12 595.514 130 595.25 129.76C594.994 129.512 594.866 129.156 594.866 128.692V124.864H593.654V124.144H594.866V122.536L595.742 122.332V124.144H597.422V124.864H595.742V128.464C595.742 128.776 595.806 129 595.934 129.136C596.07 129.272 596.29 129.34 596.594 129.34C596.746 129.34 596.882 129.328 597.002 129.304C597.122 129.28 597.262 129.24 597.422 129.184V129.964C597.262 130.02 597.094 130.06 596.918 130.084C596.742 130.108 596.57 130.12 596.402 130.12ZM598.705 130V121.336L599.581 121.156V130H598.705ZM604.017 130.12C603.473 130.12 602.981 129.988 602.541 129.724C602.101 129.452 601.753 129.088 601.497 128.632C601.241 128.168 601.113 127.648 601.113 127.072C601.113 126.496 601.233 125.98 601.473 125.524C601.721 125.068 602.053 124.708 602.469 124.444C602.885 124.18 603.349 124.048 603.861 124.048C604.381 124.048 604.841 124.18 605.241 124.444C605.649 124.7 605.969 125.052 606.201 125.5C606.441 125.94 606.561 126.44 606.561 127V127.264H601.965C601.997 127.664 602.105 128.024 602.289 128.344C602.481 128.656 602.729 128.904 603.033 129.088C603.345 129.264 603.685 129.352 604.053 129.352C604.357 129.352 604.649 129.3 604.929 129.196C605.217 129.084 605.461 128.936 605.661 128.752L606.213 129.34C605.877 129.604 605.529 129.8 605.169 129.928C604.809 130.056 604.425 130.12 604.017 130.12ZM601.989 126.64H605.697C605.657 126.288 605.549 125.976 605.373 125.704C605.205 125.424 604.989 125.204 604.725 125.044C604.469 124.884 604.181 124.804 603.861 124.804C603.541 124.804 603.249 124.884 602.985 125.044C602.721 125.196 602.501 125.412 602.325 125.692C602.157 125.964 602.045 126.28 601.989 126.64Z" fill="#0066CC"/>
<path d="M542 133H607.161V134.2H542V133Z" fill="#0066CC"/>
<path fill-rule="evenodd" clip-rule="evenodd" d="M623.989 129.337L627.177 126.15C627.397 125.929 627.397 125.573 627.175 125.353L623.987 122.165C623.769 121.945 623.413 121.945 623.193 122.165L622.665 122.7C622.445 122.918 622.445 123.274 622.665 123.494L624.925 125.754L622.665 128.013C622.445 128.231 622.445 128.587 622.665 128.807L623.195 129.337C623.413 129.557 623.769 129.557 623.989 129.337Z" fill="#1F1F1F"/>
<path d="M645.78 130.132C645.124 130.132 644.516 130.016 643.956 129.784C643.396 129.544 642.856 129.184 642.336 128.704L642.9 128.032C643.404 128.504 643.876 128.84 644.316 129.04C644.764 129.24 645.26 129.34 645.804 129.34C646.236 129.34 646.62 129.268 646.956 129.124C647.3 128.972 647.568 128.768 647.76 128.512C647.952 128.256 648.048 127.964 648.048 127.636C648.048 127.212 647.908 126.892 647.628 126.676C647.348 126.452 646.864 126.28 646.176 126.16L644.82 125.932C644.052 125.796 643.488 125.564 643.128 125.236C642.776 124.9 642.6 124.452 642.6 123.892C642.6 123.42 642.72 123.004 642.96 122.644C643.208 122.276 643.548 121.988 643.98 121.78C644.412 121.572 644.912 121.468 645.48 121.468C646.104 121.468 646.684 121.556 647.22 121.732C647.756 121.9 648.284 122.168 648.804 122.536L648.324 123.256C647.892 122.928 647.436 122.68 646.956 122.512C646.476 122.336 645.988 122.248 645.492 122.248C645.1 122.248 644.752 122.316 644.448 122.452C644.152 122.588 643.916 122.772 643.74 123.004C643.572 123.236 643.488 123.5 643.488 123.796C643.488 124.164 643.612 124.452 643.86 124.66C644.108 124.868 644.512 125.016 645.072 125.104L646.416 125.332C647.312 125.492 647.96 125.752 648.36 126.112C648.768 126.464 648.972 126.956 648.972 127.588C648.972 128.076 648.832 128.512 648.552 128.896C648.28 129.28 647.904 129.584 647.424 129.808C646.944 130.024 646.396 130.132 645.78 130.132ZM653.134 130.12C652.59 130.12 652.098 129.988 651.658 129.724C651.218 129.452 650.87 129.088 650.614 128.632C650.358 128.168 650.23 127.648 650.23 127.072C650.23 126.496 650.35 125.98 650.59 125.524C650.838 125.068 651.17 124.708 651.586 124.444C652.002 124.18 652.466 124.048 652.978 124.048C653.498 124.048 653.958 124.18 654.358 124.444C654.766 124.7 655.086 125.052 655.318 125.5C655.558 125.94 655.678 126.44 655.678 127V127.264H651.082C651.114 127.664 651.222 128.024 651.406 128.344C651.598 128.656 651.846 128.904 652.15 129.088C652.462 129.264 652.802 129.352 653.17 129.352C653.474 129.352 653.766 129.3 654.046 129.196C654.334 129.084 654.578 128.936 654.778 128.752L655.33 129.34C654.994 129.604 654.646 129.8 654.286 129.928C653.926 130.056 653.542 130.12 653.134 130.12ZM651.106 126.64H654.814C654.774 126.288 654.666 125.976 654.49 125.704C654.322 125.424 654.106 125.204 653.842 125.044C653.586 124.884 653.298 124.804 652.978 124.804C652.658 124.804 652.366 124.884 652.102 125.044C651.838 125.196 651.618 125.412 651.442 125.692C651.274 125.964 651.162 126.28 651.106 126.64ZM659.801 130.096C659.257 130.096 658.765 129.964 658.325 129.7C657.893 129.428 657.549 129.064 657.293 128.608C657.037 128.144 656.909 127.632 656.909 127.072C656.909 126.504 657.037 125.992 657.293 125.536C657.549 125.08 657.893 124.72 658.325 124.456C658.765 124.184 659.257 124.048 659.801 124.048C660.233 124.048 660.645 124.128 661.037 124.288C661.429 124.448 661.769 124.672 662.057 124.96L661.493 125.572C661.285 125.34 661.033 125.16 660.737 125.032C660.441 124.904 660.141 124.84 659.837 124.84C659.453 124.84 659.105 124.94 658.793 125.14C658.489 125.34 658.245 125.608 658.061 125.944C657.877 126.28 657.785 126.656 657.785 127.072C657.785 127.488 657.877 127.864 658.061 128.2C658.245 128.536 658.489 128.804 658.793 129.004C659.105 129.204 659.453 129.304 659.837 129.304C660.141 129.304 660.441 129.24 660.737 129.112C661.033 128.976 661.285 128.796 661.493 128.572L662.057 129.184C661.769 129.472 661.429 129.696 661.037 129.856C660.645 130.016 660.233 130.096 659.801 130.096ZM665.628 130.12C665.124 130.12 664.74 130 664.476 129.76C664.22 129.512 664.092 129.156 664.092 128.692V124.864H662.88V124.144H664.092V122.536L664.968 122.332V124.144H666.648V124.864H664.968V128.464C664.968 128.776 665.032 129 665.16 129.136C665.296 129.272 665.516 129.34 665.82 129.34C665.972 129.34 666.108 129.328 666.228 129.304C666.348 129.28 666.488 129.24 666.648 129.184V129.964C666.488 130.02 666.32 130.06 666.144 130.084C665.968 130.108 665.796 130.12 665.628 130.12ZM667.919 130V124.144H668.795V130H667.919ZM668.363 122.692C668.187 122.692 668.035 122.632 667.907 122.512C667.787 122.384 667.727 122.236 667.727 122.068C667.727 121.9 667.787 121.756 667.907 121.636C668.035 121.508 668.187 121.444 668.363 121.444C668.539 121.444 668.687 121.508 668.807 121.636C668.935 121.756 668.999 121.9 668.999 122.068C668.999 122.236 668.935 122.384 668.807 122.512C668.687 122.632 668.539 122.692 668.363 122.692ZM673.183 130.096C672.639 130.096 672.151 129.964 671.719 129.7C671.287 129.436 670.947 129.076 670.699 128.62C670.451 128.164 670.327 127.648 670.327 127.072C670.327 126.496 670.451 125.98 670.699 125.524C670.947 125.068 671.287 124.708 671.719 124.444C672.151 124.18 672.639 124.048 673.183 124.048C673.719 124.048 674.199 124.18 674.623 124.444C675.055 124.708 675.395 125.068 675.643 125.524C675.891 125.98 676.015 126.496 676.015 127.072C676.015 127.648 675.891 128.164 675.643 128.62C675.395 129.076 675.055 129.436 674.623 129.7C674.199 129.964 673.719 130.096 673.183 130.096ZM673.171 129.328C673.555 129.328 673.895 129.232 674.191 129.04C674.487 128.84 674.719 128.568 674.887 128.224C675.063 127.88 675.151 127.496 675.151 127.072C675.151 126.64 675.063 126.256 674.887 125.92C674.719 125.576 674.487 125.308 674.191 125.116C673.895 124.916 673.555 124.816 673.171 124.816C672.787 124.816 672.447 124.916 672.151 125.116C671.855 125.308 671.619 125.576 671.443 125.92C671.275 126.256 671.191 126.64 671.191 127.072C671.191 127.496 671.275 127.88 671.443 128.224C671.619 128.568 671.855 128.84 672.151 129.04C672.447 129.232 672.787 129.328 673.171 129.328ZM677.552 130V124.144H678.428V125.092C678.652 124.74 678.92 124.48 679.232 124.312C679.544 124.136 679.896 124.048 680.288 124.048C680.712 124.048 681.08 124.14 681.392 124.324C681.712 124.5 681.96 124.752 682.136 125.08C682.32 125.4 682.412 125.776 682.412 126.208V130H681.536V126.46C681.536 125.94 681.392 125.532 681.104 125.236C680.824 124.932 680.444 124.78 679.964 124.78C679.644 124.78 679.352 124.856 679.088 125.008C678.824 125.16 678.604 125.384 678.428 125.68V130H677.552ZM689.206 130.12C688.702 130.12 688.318 130 688.054 129.76C687.798 129.512 687.67 129.156 687.67 128.692V124.864H686.458V124.144H687.67V122.536L688.546 122.332V124.144H690.226V124.864H688.546V128.464C688.546 128.776 688.61 129 688.738 129.136C688.874 129.272 689.094 129.34 689.398 129.34C689.55 129.34 689.686 129.328 689.806 129.304C689.926 129.28 690.066 129.24 690.226 129.184V129.964C690.066 130.02 689.898 130.06 689.722 130.084C689.546 130.108 689.374 130.12 689.206 130.12ZM691.497 130V124.144H692.373V130H691.497ZM691.941 122.692C691.765 122.692 691.613 122.632 691.485 122.512C691.365 122.384 691.305 122.236 691.305 122.068C691.305 121.9 691.365 121.756 691.485 121.636C691.613 121.508 691.765 121.444 691.941 121.444C692.117 121.444 692.265 121.508 692.385 121.636C692.513 121.756 692.577 121.9 692.577 122.068C692.577 122.236 692.513 122.384 692.385 122.512C692.265 122.632 692.117 122.692 691.941 122.692ZM696.402 130.12C695.898 130.12 695.514 130 695.25 129.76C694.994 129.512 694.866 129.156 694.866 128.692V124.864H693.654V124.144H694.866V122.536L695.742 122.332V124.144H697.422V124.864H695.742V128.464C695.742 128.776 695.806 129 695.934 129.136C696.07 129.272 696.29 129.34 696.594 129.34C696.746 129.34 696.882 129.328 697.002 129.304C697.122 129.28 697.262 129.24 697.422 129.184V129.964C697.262 130.02 697.094 130.06 696.918 130.084C696.742 130.108 696.57 130.12 696.402 130.12ZM698.705 130V121.336L699.581 121.156V130H698.705ZM704.017 130.12C703.473 130.12 702.981 129.988 702.541 129.724C702.101 129.452 701.753 129.088 701.497 128.632C701.241 128.168 701.113 127.648 701.113 127.072C701.113 126.496 701.233 125.98 701.473 125.524C701.721 125.068 702.053 124.708 702.469 124.444C702.885 124.18 703.349 124.048 703.861 124.048C704.381 124.048 704.841 124.18 705.241 124.444C705.649 124.7 705.969 125.052 706.201 125.5C706.441 125.94 706.561 126.44 706.561 127V127.264H701.965C701.997 127.664 702.105 128.024 702.289 128.344C702.481 128.656 702.729 128.904 703.033 129.088C703.345 129.264 703.685 129.352 704.053 129.352C704.357 129.352 704.649 129.3 704.929 129.196C705.217 129.084 705.461 128.936 705.661 128.752L706.213 129.34C705.877 129.604 705.529 129.8 705.169 129.928C704.809 130.056 704.425 130.12 704.017 130.12ZM701.989 126.64H705.697C705.657 126.288 705.549 125.976 705.373 125.704C705.205 125.424 704.989 125.204 704.725 125.044C704.469 124.884 704.181 124.804 703.861 124.804C703.541 124.804 703.249 124.884 702.985 125.044C702.721 125.196 702.501 125.412 702.325 125.692C702.157 125.964 702.045 126.28 701.989 126.64Z" fill="#0066CC"/>
<path d="M642 133H707.161V134.2H642V133Z" fill="#0066CC"/>
<path fill-rule="evenodd" clip-rule="evenodd" d="M723.989 129.337L727.177 126.15C727.397 125.929 727.397 125.573 727.175 125.353L723.987 122.165C723.769 121.945 723.413 121.945 723.193 122.165L722.665 122.7C722.445 122.918 722.445 123.274 722.665 123.494L724.925 125.754L722.665 128.013C722.445 128.231 722.445 128.587 722.665 128.807L723.195 129.337C723.413 129.557 723.769 129.557 723.989 129.337Z" fill="#1F1F1F"/>
<path d="M745.78 130.132C745.124 130.132 744.516 130.016 743.956 129.784C743.396 129.544 742.856 129.184 742.336 128.704L742.9 128.032C743.404 128.504 743.876 128.84 744.316 129.04C744.764 129.24 745.26 129.34 745.804 129.34C746.236 129.34 746.62 129.268 746.956 129.124C747.3 128.972 747.568 128.768 747.76 128.512C747.952 128.256 748.048 127.964 748.048 127.636C748.048 127.212 747.908 126.892 747.628 126.676C747.348 126.452 746.864 126.28 746.176 126.16L744.82 125.932C744.052 125.796 743.488 125.564 743.128 125.236C742.776 124.9 742.6 124.452 742.6 123.892C742.6 123.42 742.72 123.004 742.96 122.644C743.208 122.276 743.548 121.988 743.98 121.78C744.412 121.572 744.912 121.468 745.48 121.468C746.104 121.468 746.684 121.556 747.22 121.732C747.756 121.9 748.284 122.168 748.804 122.536L748.324 123.256C747.892 122.928 747.436 122.68 746.956 122.512C746.476 122.336 745.988 122.248 745.492 122.248C745.1 122.248 744.752 122.316 744.448 122.452C744.152 122.588 743.916 122.772 743.74 123.004C743.572 123.236 743.488 123.5 743.488 123.796C743.488 124.164 743.612 124.452 743.86 124.66C744.108 124.868 744.512 125.016 745.072 125.104L746.416 125.332C747.312 125.492 747.96 125.752 748.36 126.112C748.768 126.464 748.972 126.956 748.972 127.588C748.972 128.076 748.832 128.512 748.552 128.896C748.28 129.28 747.904 129.584 747.424 129.808C746.944 130.024 746.396 130.132 745.78 130.132ZM753.134 130.12C752.59 130.12 752.098 129.988 751.658 129.724C751.218 129.452 750.87 129.088 750.614 128.632C750.358 128.168 750.23 127.648 750.23 127.072C750.23 126.496 750.35 125.98 750.59 125.524C750.838 125.068 751.17 124.708 751.586 124.444C752.002 124.18 752.466 124.048 752.978 124.048C753.498 124.048 753.958 124.18 754.358 124.444C754.766 124.7 755.086 125.052 755.318 125.5C755.558 125.94 755.678 126.44 755.678 127V127.264H751.082C751.114 127.664 751.222 128.024 751.406 128.344C751.598 128.656 751.846 128.904 752.15 129.088C752.462 129.264 752.802 129.352 753.17 129.352C753.474 129.352 753.766 129.3 754.046 129.196C754.334 129.084 754.578 128.936 754.778 128.752L755.33 129.34C754.994 129.604 754.646 129.8 754.286 129.928C753.926 130.056 753.542 130.12 753.134 130.12ZM751.106 126.64H754.814C754.774 126.288 754.666 125.976 754.49 125.704C754.322 125.424 754.106 125.204 753.842 125.044C753.586 124.884 753.298 124.804 752.978 124.804C752.658 124.804 752.366 124.884 752.102 125.044C751.838 125.196 751.618 125.412 751.442 125.692C751.274 125.964 751.162 126.28 751.106 126.64ZM759.801 130.096C759.257 130.096 758.765 129.964 758.325 129.7C757.893 129.428 757.549 129.064 757.293 128.608C757.037 128.144 756.909 127.632 756.909 127.072C756.909 126.504 757.037 125.992 757.293 125.536C757.549 125.08 757.893 124.72 758.325 124.456C758.765 124.184 759.257 124.048 759.801 124.048C760.233 124.048 760.645 124.128 761.037 124.288C761.429 124.448 761.769 124.672 762.057 124.96L761.493 125.572C761.285 125.34 761.033 125.16 760.737 125.032C760.441 124.904 760.141 124.84 759.837 124.84C759.453 124.84 759.105 124.94 758.793 125.14C758.489 125.34 758.245 125.608 758.061 125.944C757.877 126.28 757.785 126.656 757.785 127.072C757.785 127.488 757.877 127.864 758.061 128.2C758.245 128.536 758.489 128.804 758.793 129.004C759.105 129.204 759.453 129.304 759.837 129.304C760.141 129.304 760.441 129.24 760.737 129.112C761.033 128.976 761.285 128.796 761.493 128.572L762.057 129.184C761.769 129.472 761.429 129.696 761.037 129.856C760.645 130.016 760.233 130.096 759.801 130.096ZM765.628 130.12C765.124 130.12 764.74 130 764.476 129.76C764.22 129.512 764.092 129.156 764.092 128.692V124.864H762.88V124.144H764.092V122.536L764.968 122.332V124.144H766.648V124.864H764.968V128.464C764.968 128.776 765.032 129 765.16 129.136C765.296 129.272 765.516 129.34 765.82 129.34C765.972 129.34 766.108 129.328 766.228 129.304C766.348 129.28 766.488 129.24 766.648 129.184V129.964C766.488 130.02 766.32 130.06 766.144 130.084C765.968 130.108 765.796 130.12 765.628 130.12ZM767.919 130V124.144H768.795V130H767.919ZM768.363 122.692C768.187 122.692 768.035 122.632 767.907 122.512C767.787 122.384 767.727 122.236 767.727 122.068C767.727 121.9 767.787 121.756 767.907 121.636C768.035 121.508 768.187 121.444 768.363 121.444C768.539 121.444 768.687 121.508 768.807 121.636C768.935 121.756 768.999 121.9 768.999 122.068C768.999 122.236 768.935 122.384 768.807 122.512C768.687 122.632 768.539 122.692 768.363 122.692ZM773.183 130.096C772.639 130.096 772.151 129.964 771.719 129.7C771.287 129.436 770.947 129.076 770.699 128.62C770.451 128.164 770.327 127.648 770.327 127.072C770.327 126.496 770.451 125.98 770.699 125.524C770.947 125.068 771.287 124.708 771.719 124.444C772.151 124.18 772.639 124.048 773.183 124.048C773.719 124.048 774.199 124.18 774.623 124.444C775.055 124.708 775.395 125.068 775.643 125.524C775.891 125.98 776.015 126.496 776.015 127.072C776.015 127.648 775.891 128.164 775.643 128.62C775.395 129.076 775.055 129.436 774.623 129.7C774.199 129.964 773.719 130.096 773.183 130.096ZM773.171 129.328C773.555 129.328 773.895 129.232 774.191 129.04C774.487 128.84 774.719 128.568 774.887 128.224C775.063 127.88 775.151 127.496 775.151 127.072C775.151 126.64 775.063 126.256 774.887 125.92C774.719 125.576 774.487 125.308 774.191 125.116C773.895 124.916 773.555 124.816 773.171 124.816C772.787 124.816 772.447 124.916 772.151 125.116C771.855 125.308 771.619 125.576 771.443 125.92C771.275 126.256 771.191 126.64 771.191 127.072C771.191 127.496 771.275 127.88 771.443 128.224C771.619 128.568 771.855 128.84 772.151 129.04C772.447 129.232 772.787 129.328 773.171 129.328ZM777.552 130V124.144H778.428V125.092C778.652 124.74 778.92 124.48 779.232 124.312C779.544 124.136 779.896 124.048 780.288 124.048C780.712 124.048 781.08 124.14 781.392 124.324C781.712 124.5 781.96 124.752 782.136 125.08C782.32 125.4 782.412 125.776 782.412 126.208V130H781.536V126.46C781.536 125.94 781.392 125.532 781.104 125.236C780.824 124.932 780.444 124.78 779.964 124.78C779.644 124.78 779.352 124.856 779.088 125.008C778.824 125.16 778.604 125.384 778.428 125.68V130H777.552ZM789.206 130.12C788.702 130.12 788.318 130 788.054 129.76C787.798 129.512 787.67 129.156 787.67 128.692V124.864H786.458V124.144H787.67V122.536L788.546 122.332V124.144H790.226V124.864H788.546V128.464C788.546 128.776 788.61 129 788.738 129.136C788.874 129.272 789.094 129.34 789.398 129.34C789.55 129.34 789.686 129.328 789.806 129.304C789.926 129.28 790.066 129.24 790.226 129.184V129.964C790.066 130.02 789.898 130.06 789.722 130.084C789.546 130.108 789.374 130.12 789.206 130.12ZM791.497 130V124.144H792.373V130H791.497ZM791.941 122.692C791.765 122.692 791.613 122.632 791.485 122.512C791.365 122.384 791.305 122.236 791.305 122.068C791.305 121.9 791.365 121.756 791.485 121.636C791.613 121.508 791.765 121.444 791.941 121.444C792.117 121.444 792.265 121.508 792.385 121.636C792.513 121.756 792.577 121.9 792.577 122.068C792.577 122.236 792.513 122.384 792.385 122.512C792.265 122.632 792.117 122.692 791.941 122.692ZM796.402 130.12C795.898 130.12 795.514 130 795.25 129.76C794.994 129.512 794.866 129.156 794.866 128.692V124.864H793.654V124.144H794.866V122.536L795.742 122.332V124.144H797.422V124.864H795.742V128.464C795.742 128.776 795.806 129 795.934 129.136C796.07 129.272 796.29 129.34 796.594 129.34C796.746 129.34 796.882 129.328 797.002 129.304C797.122 129.28 797.262 129.24 797.422 129.184V129.964C797.262 130.02 797.094 130.06 796.918 130.084C796.742 130.108 796.57 130.12 796.402 130.12ZM798.705 130V121.336L799.581 121.156V130H798.705ZM804.017 130.12C803.473 130.12 802.981 129.988 802.541 129.724C802.101 129.452 801.753 129.088 801.497 128.632C801.241 128.168 801.113 127.648 801.113 127.072C801.113 126.496 801.233 125.98 801.473 125.524C801.721 125.068 802.053 124.708 802.469 124.444C802.885 124.18 803.349 124.048 803.861 124.048C804.381 124.048 804.841 124.18 805.241 124.444C805.649 124.7 805.969 125.052 806.201 125.5C806.441 125.94 806.561 126.44 806.561 127V127.264H801.965C801.997 127.664 802.105 128.024 802.289 128.344C802.481 128.656 802.729 128.904 803.033 129.088C803.345 129.264 803.685 129.352 804.053 129.352C804.357 129.352 804.649 129.3 804.929 129.196C805.217 129.084 805.461 128.936 805.661 128.752L806.213 129.34C805.877 129.604 805.529 129.8 805.169 129.928C804.809 130.056 804.425 130.12 804.017 130.12ZM801.989 126.64H805.697C805.657 126.288 805.549 125.976 805.373 125.704C805.205 125.424 804.989 125.204 804.725 125.044C804.469 124.884 804.181 124.804 803.861 124.804C803.541 124.804 803.249 124.884 802.985 125.044C802.721 125.196 802.501 125.412 802.325 125.692C802.157 125.964 802.045 126.28 801.989 126.64Z" fill="#151515"/>
<rect width="1198" height="93" transform="translate(318 135)" fill="white"/>
<path d="M343.512 175V158.2H351.936C353.04 158.2 354.008 158.424 354.84 158.872C355.688 159.32 356.352 159.944 356.832 160.744C357.312 161.528 357.552 162.44 357.552 163.48C357.552 164.472 357.312 165.36 356.832 166.144C356.352 166.928 355.688 167.544 354.84 167.992C353.992 168.44 353.024 168.664 351.936 168.664H346.992V175H343.512ZM346.992 165.784H351.552C352.304 165.784 352.904 165.576 353.352 165.16C353.816 164.744 354.048 164.192 354.048 163.504C354.048 162.8 353.816 162.24 353.352 161.824C352.904 161.408 352.304 161.2 351.552 161.2H346.992V165.784ZM363.147 175.216C362.251 175.216 361.459 175.056 360.771 174.736C360.083 174.4 359.547 173.944 359.163 173.368C358.779 172.792 358.587 172.128 358.587 171.376C358.587 170.176 359.035 169.248 359.931 168.592C360.843 167.92 362.091 167.584 363.675 167.584C364.763 167.584 365.787 167.752 366.747 168.088V167.176C366.747 165.72 365.867 164.992 364.107 164.992C363.579 164.992 363.011 165.08 362.403 165.256C361.795 165.416 361.091 165.672 360.291 166.024L359.091 163.6C360.083 163.152 361.027 162.816 361.923 162.592C362.835 162.368 363.747 162.256 364.659 162.256C366.339 162.256 367.643 162.664 368.571 163.48C369.515 164.28 369.987 165.416 369.987 166.888V175H366.747V174.112C366.235 174.496 365.683 174.776 365.091 174.952C364.499 175.128 363.851 175.216 363.147 175.216ZM361.707 171.304C361.707 171.784 361.915 172.168 362.331 172.456C362.747 172.728 363.299 172.864 363.987 172.864C365.091 172.864 366.011 172.592 366.747 172.048V170.224C365.947 169.904 365.067 169.744 364.107 169.744C363.355 169.744 362.763 169.888 362.331 170.176C361.915 170.448 361.707 170.824 361.707 171.304ZM378.764 180.136C377.804 180.136 376.876 180.032 375.98 179.824C375.1 179.632 374.292 179.352 373.556 178.984L374.708 176.44C376.052 177.096 377.38 177.424 378.692 177.424C380.676 177.424 381.668 176.592 381.668 174.928V173.944C380.644 174.696 379.5 175.072 378.236 175.072C377.052 175.072 375.98 174.792 375.02 174.232C374.06 173.656 373.3 172.88 372.74 171.904C372.18 170.928 371.9 169.848 371.9 168.664C371.9 167.48 372.18 166.408 372.74 165.448C373.316 164.472 374.092 163.704 375.068 163.144C376.044 162.584 377.132 162.304 378.332 162.304C379.58 162.304 380.708 162.64 381.716 163.312V162.496H384.956V174.976C384.956 176.624 384.42 177.896 383.348 178.792C382.292 179.688 380.764 180.136 378.764 180.136ZM378.74 172.288C379.972 172.288 380.948 171.904 381.668 171.136V166.24C381.316 165.888 380.884 165.616 380.372 165.424C379.876 165.216 379.34 165.112 378.764 165.112C378.076 165.112 377.46 165.272 376.916 165.592C376.372 165.896 375.94 166.32 375.62 166.864C375.3 167.408 375.14 168.008 375.14 168.664C375.14 169.352 375.292 169.968 375.596 170.512C375.916 171.056 376.348 171.488 376.892 171.808C377.452 172.128 378.068 172.288 378.74 172.288ZM393.643 175.24C392.395 175.24 391.259 174.952 390.235 174.376C389.227 173.8 388.427 173.024 387.835 172.048C387.243 171.072 386.947 169.976 386.947 168.76C386.947 167.544 387.227 166.448 387.787 165.472C388.363 164.496 389.139 163.72 390.115 163.144C391.091 162.568 392.179 162.28 393.379 162.28C394.579 162.28 395.643 162.576 396.571 163.168C397.499 163.76 398.227 164.56 398.755 165.568C399.299 166.576 399.571 167.72 399.571 169V169.864H390.307C390.451 170.36 390.683 170.808 391.003 171.208C391.339 171.608 391.747 171.92 392.227 172.144C392.723 172.368 393.251 172.48 393.811 172.48C394.371 172.48 394.883 172.392 395.347 172.216C395.827 172.04 396.235 171.792 396.571 171.472L398.731 173.44C397.963 174.064 397.171 174.52 396.355 174.808C395.555 175.096 394.651 175.24 393.643 175.24ZM390.259 167.512H396.331C396.219 167.016 396.011 166.584 395.707 166.216C395.419 165.832 395.067 165.536 394.651 165.328C394.251 165.104 393.803 164.992 393.307 164.992C392.555 164.992 391.907 165.224 391.363 165.688C390.819 166.136 390.451 166.744 390.259 167.512ZM412.341 175.192C410.949 175.192 409.893 174.88 409.173 174.256C408.469 173.616 408.117 172.688 408.117 171.472V165.232H405.549V162.496H408.117V159.304L411.405 158.56V162.496H414.981V165.232H411.405V170.8C411.405 171.376 411.533 171.792 411.789 172.048C412.045 172.288 412.493 172.408 413.133 172.408C413.453 172.408 413.741 172.392 413.997 172.36C414.269 172.312 414.565 172.232 414.885 172.12V174.832C414.549 174.944 414.125 175.032 413.613 175.096C413.117 175.16 412.693 175.192 412.341 175.192ZM416.585 175V162.496H419.873V175H416.585ZM418.217 161.008C417.705 161.008 417.265 160.824 416.897 160.456C416.529 160.088 416.345 159.648 416.345 159.136C416.345 158.608 416.529 158.168 416.897 157.816C417.265 157.448 417.705 157.264 418.217 157.264C418.745 157.264 419.185 157.448 419.537 157.816C419.905 158.168 420.089 158.608 420.089 159.136C420.089 159.648 419.905 160.088 419.537 160.456C419.185 160.824 418.745 161.008 418.217 161.008ZM428.372 175.192C426.98 175.192 425.924 174.88 425.204 174.256C424.5 173.616 424.148 172.688 424.148 171.472V165.232H421.58V162.496H424.148V159.304L427.436 158.56V162.496H431.012V165.232H427.436V170.8C427.436 171.376 427.564 171.792 427.82 172.048C428.076 172.288 428.524 172.408 429.164 172.408C429.484 172.408 429.772 172.392 430.028 172.36C430.3 172.312 430.596 172.232 430.916 172.12V174.832C430.58 174.944 430.156 175.032 429.644 175.096C429.148 175.16 428.724 175.192 428.372 175.192ZM432.616 175V158.2L435.904 157.648V175H432.616ZM444.596 175.24C443.348 175.24 442.212 174.952 441.188 174.376C440.18 173.8 439.38 173.024 438.788 172.048C438.196 171.072 437.9 169.976 437.9 168.76C437.9 167.544 438.18 166.448 438.74 165.472C439.316 164.496 440.092 163.72 441.068 163.144C442.044 162.568 443.132 162.28 444.332 162.28C445.532 162.28 446.596 162.576 447.524 163.168C448.452 163.76 449.18 164.56 449.708 165.568C450.252 166.576 450.524 167.72 450.524 169V169.864H441.26C441.404 170.36 441.636 170.808 441.956 171.208C442.292 171.608 442.7 171.92 443.18 172.144C443.676 172.368 444.204 172.48 444.764 172.48C445.324 172.48 445.836 172.392 446.3 172.216C446.78 172.04 447.188 171.792 447.524 171.472L449.684 173.44C448.916 174.064 448.124 174.52 447.308 174.808C446.508 175.096 445.604 175.24 444.596 175.24ZM441.212 167.512H447.284C447.172 167.016 446.964 166.584 446.66 166.216C446.372 165.832 446.02 165.536 445.604 165.328C445.204 165.104 444.756 164.992 444.26 164.992C443.508 164.992 442.86 165.224 442.316 165.688C441.772 166.136 441.404 166.744 441.212 167.512Z" fill="#151515"/>
<path d="M343.246 206V196.2H347.292C347.927 196.2 348.477 196.321 348.944 196.564C349.411 196.797 349.77 197.133 350.022 197.572C350.283 198.001 350.414 198.51 350.414 199.098C350.414 199.677 350.283 200.185 350.022 200.624C349.77 201.063 349.411 201.403 348.944 201.646C348.477 201.879 347.927 201.996 347.292 201.996H344.324V206H343.246ZM344.324 201.072H347.166C347.847 201.072 348.379 200.895 348.762 200.54C349.145 200.185 349.336 199.705 349.336 199.098C349.336 198.491 349.145 198.015 348.762 197.67C348.379 197.325 347.847 197.152 347.166 197.152H344.324V201.072ZM353.969 206.126C353.483 206.126 353.054 206.037 352.681 205.86C352.307 205.683 352.013 205.44 351.799 205.132C351.593 204.815 351.491 204.451 351.491 204.04C351.491 203.629 351.598 203.275 351.813 202.976C352.027 202.668 352.326 202.43 352.709 202.262C353.091 202.094 353.539 202.01 354.053 202.01C354.445 202.01 354.813 202.052 355.159 202.136C355.513 202.22 355.84 202.355 356.139 202.542V201.604C356.139 201.044 355.989 200.624 355.691 200.344C355.392 200.055 354.953 199.91 354.375 199.91C354.057 199.91 353.731 199.957 353.395 200.05C353.068 200.143 352.704 200.293 352.303 200.498L351.925 199.714C352.839 199.275 353.698 199.056 354.501 199.056C355.35 199.056 356.003 199.266 356.461 199.686C356.918 200.097 357.147 200.689 357.147 201.464V206H356.139V205.202C355.84 205.51 355.509 205.743 355.145 205.902C354.781 206.051 354.389 206.126 353.969 206.126ZM352.471 204.012C352.471 204.413 352.625 204.735 352.933 204.978C353.25 205.221 353.665 205.342 354.179 205.342C354.561 205.342 354.911 205.277 355.229 205.146C355.555 205.015 355.859 204.819 356.139 204.558V203.242C355.849 203.074 355.551 202.953 355.243 202.878C354.935 202.794 354.589 202.752 354.207 202.752C353.684 202.752 353.264 202.869 352.947 203.102C352.629 203.326 352.471 203.629 352.471 204.012ZM362.388 209.066C361.93 209.066 361.468 209.001 361.002 208.87C360.544 208.749 360.12 208.576 359.728 208.352L360.162 207.568C360.582 207.783 360.964 207.941 361.31 208.044C361.655 208.147 362 208.198 362.346 208.198C362.971 208.198 363.442 208.049 363.76 207.75C364.086 207.451 364.25 207.017 364.25 206.448V205.076C363.988 205.403 363.671 205.655 363.298 205.832C362.924 206 362.514 206.084 362.066 206.084C361.478 206.084 360.946 205.93 360.47 205.622C359.994 205.305 359.616 204.885 359.336 204.362C359.056 203.83 358.916 203.237 358.916 202.584C358.916 201.931 359.056 201.343 359.336 200.82C359.625 200.288 360.012 199.868 360.498 199.56C360.983 199.243 361.524 199.084 362.122 199.084C362.551 199.084 362.948 199.168 363.312 199.336C363.676 199.495 363.993 199.733 364.264 200.05V199.168H365.272V206.434C365.272 207.283 365.024 207.932 364.53 208.38C364.035 208.837 363.321 209.066 362.388 209.066ZM362.318 205.202C362.719 205.202 363.088 205.123 363.424 204.964C363.76 204.796 364.035 204.567 364.25 204.278V200.904C364.026 200.615 363.741 200.391 363.396 200.232C363.06 200.064 362.7 199.98 362.318 199.98C361.86 199.98 361.45 200.092 361.086 200.316C360.731 200.54 360.446 200.848 360.232 201.24C360.026 201.632 359.924 202.08 359.924 202.584C359.924 203.079 360.026 203.527 360.232 203.928C360.446 204.32 360.731 204.633 361.086 204.866C361.45 205.09 361.86 205.202 362.318 205.202ZM370.452 206.14C369.818 206.14 369.244 205.986 368.73 205.678C368.217 205.361 367.811 204.936 367.512 204.404C367.214 203.863 367.064 203.256 367.064 202.584C367.064 201.912 367.204 201.31 367.484 200.778C367.774 200.246 368.161 199.826 368.646 199.518C369.132 199.21 369.673 199.056 370.27 199.056C370.877 199.056 371.414 199.21 371.88 199.518C372.356 199.817 372.73 200.227 373 200.75C373.28 201.263 373.42 201.847 373.42 202.5V202.808H368.058C368.096 203.275 368.222 203.695 368.436 204.068C368.66 204.432 368.95 204.721 369.304 204.936C369.668 205.141 370.065 205.244 370.494 205.244C370.849 205.244 371.19 205.183 371.516 205.062C371.852 204.931 372.137 204.759 372.37 204.544L373.014 205.23C372.622 205.538 372.216 205.767 371.796 205.916C371.376 206.065 370.928 206.14 370.452 206.14ZM368.086 202.08H372.412C372.366 201.669 372.24 201.305 372.034 200.988C371.838 200.661 371.586 200.405 371.278 200.218C370.98 200.031 370.644 199.938 370.27 199.938C369.897 199.938 369.556 200.031 369.248 200.218C368.94 200.395 368.684 200.647 368.478 200.974C368.282 201.291 368.152 201.66 368.086 202.08ZM381.275 206.098C380.687 206.098 380.155 205.944 379.679 205.636C379.203 205.319 378.825 204.899 378.545 204.376C378.265 203.844 378.125 203.251 378.125 202.598C378.125 201.935 378.265 201.343 378.545 200.82C378.834 200.288 379.221 199.868 379.707 199.56C380.192 199.243 380.733 199.084 381.331 199.084C381.751 199.084 382.143 199.168 382.507 199.336C382.871 199.495 383.188 199.728 383.459 200.036V195.892L384.481 195.682V206H383.459V205.09C383.197 205.417 382.88 205.669 382.507 205.846C382.133 206.014 381.723 206.098 381.275 206.098ZM381.527 205.202C381.928 205.202 382.297 205.123 382.633 204.964C382.969 204.805 383.244 204.581 383.459 204.292V200.904C383.235 200.615 382.95 200.391 382.605 200.232C382.269 200.064 381.909 199.98 381.527 199.98C381.069 199.98 380.659 200.092 380.295 200.316C379.94 200.54 379.655 200.848 379.441 201.24C379.235 201.632 379.133 202.08 379.133 202.584C379.133 203.079 379.235 203.527 379.441 203.928C379.655 204.32 379.94 204.633 380.295 204.866C380.659 205.09 381.069 205.202 381.527 205.202ZM389.661 206.14C389.027 206.14 388.453 205.986 387.939 205.678C387.426 205.361 387.02 204.936 386.721 204.404C386.423 203.863 386.273 203.256 386.273 202.584C386.273 201.912 386.413 201.31 386.693 200.778C386.983 200.246 387.37 199.826 387.855 199.518C388.341 199.21 388.882 199.056 389.479 199.056C390.086 199.056 390.623 199.21 391.089 199.518C391.565 199.817 391.939 200.227 392.209 200.75C392.489 201.263 392.629 201.847 392.629 202.5V202.808H387.267C387.305 203.275 387.431 203.695 387.645 204.068C387.869 204.432 388.159 204.721 388.513 204.936C388.877 205.141 389.274 205.244 389.703 205.244C390.058 205.244 390.399 205.183 390.725 205.062C391.061 204.931 391.346 204.759 391.579 204.544L392.223 205.23C391.831 205.538 391.425 205.767 391.005 205.916C390.585 206.065 390.137 206.14 389.661 206.14ZM387.295 202.08H391.621C391.575 201.669 391.449 201.305 391.243 200.988C391.047 200.661 390.795 200.405 390.487 200.218C390.189 200.031 389.853 199.938 389.479 199.938C389.106 199.938 388.765 200.031 388.457 200.218C388.149 200.395 387.893 200.647 387.687 200.974C387.491 201.291 387.361 201.66 387.295 202.08ZM396.557 206.14C395.997 206.14 395.479 206.056 395.003 205.888C394.527 205.711 394.121 205.459 393.785 205.132L394.331 204.46C394.741 204.759 395.119 204.978 395.465 205.118C395.81 205.249 396.165 205.314 396.529 205.314C397.023 205.314 397.434 205.197 397.761 204.964C398.087 204.731 398.251 204.432 398.251 204.068C398.251 203.788 398.153 203.569 397.957 203.41C397.77 203.251 397.457 203.13 397.019 203.046L395.899 202.85C395.236 202.729 394.746 202.523 394.429 202.234C394.121 201.945 393.967 201.553 393.967 201.058C393.967 200.666 394.069 200.321 394.275 200.022C394.489 199.723 394.783 199.49 395.157 199.322C395.53 199.145 395.955 199.056 396.431 199.056C396.897 199.056 397.341 199.126 397.761 199.266C398.181 199.397 398.605 199.611 399.035 199.91L398.531 200.624C398.176 200.372 397.821 200.19 397.467 200.078C397.112 199.957 396.753 199.896 396.389 199.896C395.941 199.896 395.581 199.994 395.311 200.19C395.04 200.386 394.905 200.652 394.905 200.988C394.905 201.268 394.989 201.483 395.157 201.632C395.334 201.781 395.642 201.893 396.081 201.968L397.229 202.178C397.919 202.299 398.423 202.509 398.741 202.808C399.058 203.107 399.217 203.508 399.217 204.012C399.217 204.413 399.1 204.777 398.867 205.104C398.633 205.421 398.316 205.673 397.915 205.86C397.513 206.047 397.061 206.14 396.557 206.14ZM403.907 206.112C403.272 206.112 402.698 205.958 402.185 205.65C401.681 205.333 401.28 204.908 400.981 204.376C400.682 203.835 400.533 203.237 400.533 202.584C400.533 201.921 400.682 201.324 400.981 200.792C401.28 200.26 401.681 199.84 402.185 199.532C402.698 199.215 403.272 199.056 403.907 199.056C404.411 199.056 404.892 199.149 405.349 199.336C405.806 199.523 406.203 199.784 406.539 200.12L405.881 200.834C405.638 200.563 405.344 200.353 404.999 200.204C404.654 200.055 404.304 199.98 403.949 199.98C403.501 199.98 403.095 200.097 402.731 200.33C402.376 200.563 402.092 200.876 401.877 201.268C401.662 201.66 401.555 202.099 401.555 202.584C401.555 203.069 401.662 203.508 401.877 203.9C402.092 204.292 402.376 204.605 402.731 204.838C403.095 205.071 403.501 205.188 403.949 205.188C404.304 205.188 404.654 205.113 404.999 204.964C405.344 204.805 405.638 204.595 405.881 204.334L406.539 205.048C406.203 205.384 405.806 205.645 405.349 205.832C404.892 206.019 404.411 206.112 403.907 206.112ZM407.964 206V199.168H408.986V200.568C409.163 200.092 409.415 199.723 409.742 199.462C410.078 199.191 410.461 199.056 410.89 199.056C411.011 199.056 411.123 199.065 411.226 199.084C411.329 199.093 411.431 199.117 411.534 199.154V200.078C411.422 200.041 411.301 200.013 411.17 199.994C411.049 199.966 410.932 199.952 410.82 199.952C410.4 199.952 410.031 200.073 409.714 200.316C409.406 200.559 409.163 200.899 408.986 201.338V206H407.964ZM412.872 206V199.168H413.894V206H412.872ZM413.39 197.474C413.185 197.474 413.007 197.404 412.858 197.264C412.718 197.115 412.648 196.942 412.648 196.746C412.648 196.55 412.718 196.382 412.858 196.242C413.007 196.093 413.185 196.018 413.39 196.018C413.595 196.018 413.768 196.093 413.908 196.242C414.057 196.382 414.132 196.55 414.132 196.746C414.132 196.942 414.057 197.115 413.908 197.264C413.768 197.404 413.595 197.474 413.39 197.474ZM415.989 208.926V199.168H416.997V200.148C417.259 199.803 417.576 199.541 417.949 199.364C418.332 199.177 418.752 199.084 419.209 199.084C419.807 199.084 420.339 199.243 420.805 199.56C421.281 199.868 421.659 200.288 421.939 200.82C422.219 201.343 422.359 201.931 422.359 202.584C422.359 203.237 422.215 203.83 421.925 204.362C421.645 204.894 421.263 205.319 420.777 205.636C420.301 205.944 419.76 206.098 419.153 206.098C418.724 206.098 418.327 206.019 417.963 205.86C417.599 205.692 417.282 205.454 417.011 205.146V208.926H415.989ZM418.957 205.216C419.415 205.216 419.821 205.104 420.175 204.88C420.539 204.647 420.824 204.334 421.029 203.942C421.244 203.541 421.351 203.093 421.351 202.598C421.351 202.094 421.244 201.646 421.029 201.254C420.824 200.862 420.539 200.554 420.175 200.33C419.821 200.097 419.415 199.98 418.957 199.98C418.556 199.98 418.183 200.064 417.837 200.232C417.501 200.391 417.226 200.619 417.011 200.918V204.264C417.235 204.563 417.515 204.796 417.851 204.964C418.197 205.132 418.565 205.216 418.957 205.216ZM426.332 206.14C425.744 206.14 425.296 206 424.988 205.72C424.689 205.431 424.54 205.015 424.54 204.474V200.008H423.126V199.168H424.54V197.292L425.562 197.054V199.168H427.522V200.008H425.562V204.208C425.562 204.572 425.636 204.833 425.786 204.992C425.944 205.151 426.201 205.23 426.556 205.23C426.733 205.23 426.892 205.216 427.032 205.188C427.172 205.16 427.335 205.113 427.522 205.048V205.958C427.335 206.023 427.139 206.07 426.934 206.098C426.728 206.126 426.528 206.14 426.332 206.14ZM429.005 206V199.168H430.027V206H429.005ZM429.523 197.474C429.317 197.474 429.14 197.404 428.991 197.264C428.851 197.115 428.781 196.942 428.781 196.746C428.781 196.55 428.851 196.382 428.991 196.242C429.14 196.093 429.317 196.018 429.523 196.018C429.728 196.018 429.901 196.093 430.041 196.242C430.19 196.382 430.265 196.55 430.265 196.746C430.265 196.942 430.19 197.115 430.041 197.264C429.901 197.404 429.728 197.474 429.523 197.474ZM435.146 206.112C434.512 206.112 433.942 205.958 433.438 205.65C432.934 205.342 432.538 204.922 432.248 204.39C431.959 203.858 431.814 203.256 431.814 202.584C431.814 201.912 431.959 201.31 432.248 200.778C432.538 200.246 432.934 199.826 433.438 199.518C433.942 199.21 434.512 199.056 435.146 199.056C435.772 199.056 436.332 199.21 436.826 199.518C437.33 199.826 437.727 200.246 438.016 200.778C438.306 201.31 438.45 201.912 438.45 202.584C438.45 203.256 438.306 203.858 438.016 204.39C437.727 204.922 437.33 205.342 436.826 205.65C436.332 205.958 435.772 206.112 435.146 206.112ZM435.132 205.216C435.58 205.216 435.977 205.104 436.322 204.88C436.668 204.647 436.938 204.329 437.134 203.928C437.34 203.527 437.442 203.079 437.442 202.584C437.442 202.08 437.34 201.632 437.134 201.24C436.938 200.839 436.668 200.526 436.322 200.302C435.977 200.069 435.58 199.952 435.132 199.952C434.684 199.952 434.288 200.069 433.942 200.302C433.597 200.526 433.322 200.839 433.116 201.24C432.92 201.632 432.822 202.08 432.822 202.584C432.822 203.079 432.92 203.527 433.116 203.928C433.322 204.329 433.597 204.647 433.942 204.88C434.288 205.104 434.684 205.216 435.132 205.216ZM440.243 206V199.168H441.265V200.274C441.527 199.863 441.839 199.56 442.203 199.364C442.567 199.159 442.978 199.056 443.435 199.056C443.93 199.056 444.359 199.163 444.723 199.378C445.097 199.583 445.386 199.877 445.591 200.26C445.806 200.633 445.913 201.072 445.913 201.576V206H444.891V201.87C444.891 201.263 444.723 200.787 444.387 200.442C444.061 200.087 443.617 199.91 443.057 199.91C442.684 199.91 442.343 199.999 442.035 200.176C441.727 200.353 441.471 200.615 441.265 200.96V206H440.243Z" fill="#151515"/>
</g>
<defs>
<linearGradient id="paint0_linear_756_15017" x1="1609.06" y1="40.8043" x2="-194.756" y2="3047.17" gradientUnits="userSpaceOnUse">
<stop stop-color="#2B9AF3"/>
<stop offset="1" stop-color="#73BCF7" stop-opacity="0.502213"/>
</linearGradient>
<linearGradient id="paint1_linear_756_15017" x1="153.196" y1="-1415.07" x2="-2853.17" y2="388.756" gradientUnits="userSpaceOnUse">
<stop stop-color="#2B9AF3"/>
<stop offset="1" stop-color="#73BCF7" stop-opacity="0.502213"/>
</linearGradient>
<clipPath id="clip0_756_15017">
<rect width="976" height="297" fill="white"/>
</clipPath>
</defs>
</svg>
