<svg width="685" height="228" viewBox="0 0 685 228" fill="none" xmlns="http://www.w3.org/2000/svg">
<rect width="685" height="228" fill="white"/>
<g clip-path="url(#clip0_578_53686)">
<circle cx="228" cy="133" r="64" fill="#F2F2F2"/>
<mask id="mask0_578_53686" style="mask-type:luminance" maskUnits="userSpaceOnUse" x="164" y="69" width="128" height="128">
<circle cx="228" cy="133" r="64" fill="white"/>
</mask>
<g mask="url(#mask0_578_53686)">
<path fill-rule="evenodd" clip-rule="evenodd" d="M226.733 140.511C214.289 140.511 203.978 130.2 203.978 117.755C203.978 105.311 214.289 95 226.733 95C239.178 95 249.489 105.311 249.489 117.755C249.489 130.2 239.533 140.511 226.733 140.511Z" fill="#C7C7C7"/>
<path d="M211.089 197.004V173.182C203.978 174.604 200.778 178.16 200.067 185.626L199.711 197.004H211.089Z" fill="#C7C7C7"/>
<path d="M199.711 197.044L200.067 185.666C200.778 178.2 203.978 174.644 211.089 173.222V197.044H244.511V173.222C251.622 174.644 254.822 178.2 255.533 185.666L255.889 197.044H272.6C271.177 183.177 267.977 165.044 262.289 157.933C258.377 152.955 254.111 150.111 249.844 148.689C245.578 147.266 243.444 146.555 227.444 146.555C211.444 146.555 205.755 149.044 205.755 149.044C201.489 150.466 197.222 153.311 193.667 158.289C187.622 165.044 184.422 183.533 183 197.044H199.711Z" fill="#C7C7C7"/>
<path d="M255.889 197.004L255.533 185.626C254.822 178.16 251.622 174.604 244.511 173.182V197.004H255.889Z" fill="#C7C7C7"/>
</g>
</g>
<g clip-path="url(#clip1_578_53686)">
<circle cx="490" cy="133" r="64" fill="#F2F2F2"/>
<mask id="mask1_578_53686" style="mask-type:luminance" maskUnits="userSpaceOnUse" x="426" y="69" width="128" height="128">
<circle cx="490" cy="133" r="64" fill="white"/>
</mask>
<g mask="url(#mask1_578_53686)">
<path fill-rule="evenodd" clip-rule="evenodd" d="M488.733 140.511C476.289 140.511 465.978 130.2 465.978 117.755C465.978 105.311 476.289 95 488.733 95C501.178 95 511.489 105.311 511.489 117.755C511.489 130.2 501.533 140.511 488.733 140.511Z" fill="#C7C7C7"/>
<path d="M473.089 197.004V173.182C465.978 174.604 462.778 178.16 462.067 185.626L461.711 197.004H473.089Z" fill="#C7C7C7"/>
<path d="M461.711 197.044L462.067 185.666C462.778 178.2 465.978 174.644 473.089 173.222V197.044H506.511V173.222C513.622 174.644 516.822 178.2 517.533 185.666L517.889 197.044H534.6C533.177 183.177 529.977 165.044 524.289 157.933C520.377 152.955 516.111 150.111 511.844 148.689C507.578 147.266 505.444 146.555 489.444 146.555C473.444 146.555 467.755 149.044 467.755 149.044C463.489 150.466 459.222 153.311 455.667 158.289C449.622 165.044 446.422 183.533 445 197.044H461.711Z" fill="#C7C7C7"/>
<path d="M517.889 197.004L517.533 185.626C516.822 178.16 513.622 174.604 506.511 173.182V197.004H517.889Z" fill="#C7C7C7"/>
<circle cx="490" cy="133" r="63.5" stroke="#C7C7C7"/>
</g>
</g>
<path d="M212.6 47V37.2H216.562C217.16 37.2 217.678 37.3027 218.116 37.508C218.564 37.7133 218.91 38.0027 219.152 38.376C219.395 38.7493 219.516 39.188 219.516 39.692C219.516 40.2333 219.358 40.7 219.04 41.092C218.732 41.4747 218.312 41.7453 217.78 41.904C218.434 42.0533 218.947 42.338 219.32 42.758C219.703 43.1687 219.894 43.6773 219.894 44.284C219.894 44.8253 219.764 45.3013 219.502 45.712C219.241 46.1227 218.872 46.44 218.396 46.664C217.92 46.888 217.36 47 216.716 47H212.6ZM213.678 41.484H216.478C217.076 41.484 217.552 41.3347 217.906 41.036C218.261 40.728 218.438 40.3173 218.438 39.804C218.438 39.2907 218.261 38.8847 217.906 38.586C217.552 38.278 217.076 38.124 216.478 38.124H213.678V41.484ZM213.678 46.076H216.604C217.267 46.076 217.799 45.908 218.2 45.572C218.602 45.2267 218.802 44.774 218.802 44.214C218.802 43.654 218.602 43.206 218.2 42.87C217.808 42.534 217.276 42.366 216.604 42.366H213.678V46.076ZM223.884 47.126C223.398 47.126 222.969 47.0373 222.596 46.86C222.222 46.6827 221.928 46.44 221.714 46.132C221.508 45.8147 221.406 45.4507 221.406 45.04C221.406 44.6293 221.513 44.2747 221.728 43.976C221.942 43.668 222.241 43.43 222.624 43.262C223.006 43.094 223.454 43.01 223.968 43.01C224.36 43.01 224.728 43.052 225.074 43.136C225.428 43.22 225.755 43.3553 226.054 43.542V42.604C226.054 42.044 225.904 41.624 225.606 41.344C225.307 41.0547 224.868 40.91 224.29 40.91C223.972 40.91 223.646 40.9567 223.31 41.05C222.983 41.1433 222.619 41.2927 222.218 41.498L221.84 40.714C222.754 40.2753 223.613 40.056 224.416 40.056C225.265 40.056 225.918 40.266 226.376 40.686C226.833 41.0967 227.062 41.6893 227.062 42.464V47H226.054V46.202C225.755 46.51 225.424 46.7433 225.06 46.902C224.696 47.0513 224.304 47.126 223.884 47.126ZM222.386 45.012C222.386 45.4133 222.54 45.7353 222.848 45.978C223.165 46.2207 223.58 46.342 224.094 46.342C224.476 46.342 224.826 46.2767 225.144 46.146C225.47 46.0153 225.774 45.8193 226.054 45.558V44.242C225.764 44.074 225.466 43.9527 225.158 43.878C224.85 43.794 224.504 43.752 224.122 43.752C223.599 43.752 223.179 43.8687 222.862 44.102C222.544 44.326 222.386 44.6293 222.386 45.012ZM231.253 47.14C230.693 47.14 230.175 47.056 229.699 46.888C229.223 46.7107 228.817 46.4587 228.481 46.132L229.027 45.46C229.438 45.7587 229.816 45.978 230.161 46.118C230.506 46.2487 230.861 46.314 231.225 46.314C231.72 46.314 232.13 46.1973 232.457 45.964C232.784 45.7307 232.947 45.432 232.947 45.068C232.947 44.788 232.849 44.5687 232.653 44.41C232.466 44.2513 232.154 44.13 231.715 44.046L230.595 43.85C229.932 43.7287 229.442 43.5233 229.125 43.234C228.817 42.9447 228.663 42.5527 228.663 42.058C228.663 41.666 228.766 41.3207 228.971 41.022C229.186 40.7233 229.48 40.49 229.853 40.322C230.226 40.1447 230.651 40.056 231.127 40.056C231.594 40.056 232.037 40.126 232.457 40.266C232.877 40.3967 233.302 40.6113 233.731 40.91L233.227 41.624C232.872 41.372 232.518 41.19 232.163 41.078C231.808 40.9567 231.449 40.896 231.085 40.896C230.637 40.896 230.278 40.994 230.007 41.19C229.736 41.386 229.601 41.652 229.601 41.988C229.601 42.268 229.685 42.4827 229.853 42.632C230.03 42.7813 230.338 42.8933 230.777 42.968L231.925 43.178C232.616 43.2993 233.12 43.5093 233.437 43.808C233.754 44.1067 233.913 44.508 233.913 45.012C233.913 45.4133 233.796 45.7773 233.563 46.104C233.33 46.4213 233.012 46.6733 232.611 46.86C232.21 47.0467 231.757 47.14 231.253 47.14ZM235.455 47V40.168H236.477V47H235.455ZM235.973 38.474C235.768 38.474 235.59 38.404 235.441 38.264C235.301 38.1147 235.231 37.942 235.231 37.746C235.231 37.55 235.301 37.382 235.441 37.242C235.59 37.0927 235.768 37.018 235.973 37.018C236.178 37.018 236.351 37.0927 236.491 37.242C236.64 37.382 236.715 37.55 236.715 37.746C236.715 37.942 236.64 38.1147 236.491 38.264C236.351 38.404 236.178 38.474 235.973 38.474ZM241.638 47.112C241.004 47.112 240.43 46.958 239.916 46.65C239.412 46.3327 239.011 45.908 238.712 45.376C238.414 44.8347 238.264 44.2373 238.264 43.584C238.264 42.9213 238.414 42.324 238.712 41.792C239.011 41.26 239.412 40.84 239.916 40.532C240.43 40.2147 241.004 40.056 241.638 40.056C242.142 40.056 242.623 40.1493 243.08 40.336C243.538 40.5227 243.934 40.784 244.27 41.12L243.612 41.834C243.37 41.5633 243.076 41.3533 242.73 41.204C242.385 41.0547 242.035 40.98 241.68 40.98C241.232 40.98 240.826 41.0967 240.462 41.33C240.108 41.5633 239.823 41.876 239.608 42.268C239.394 42.66 239.286 43.0987 239.286 43.584C239.286 44.0693 239.394 44.508 239.608 44.9C239.823 45.292 240.108 45.6047 240.462 45.838C240.826 46.0713 241.232 46.188 241.68 46.188C242.035 46.188 242.385 46.1133 242.73 45.964C243.076 45.8053 243.37 45.5953 243.612 45.334L244.27 46.048C243.934 46.384 243.538 46.6453 243.08 46.832C242.623 47.0187 242.142 47.112 241.638 47.112Z" fill="#4D4D4D"/>
<path d="M462.132 47V37.2H466.094C466.691 37.2 467.209 37.3027 467.648 37.508C468.096 37.7133 468.441 38.0027 468.684 38.376C468.926 38.7493 469.048 39.188 469.048 39.692C469.048 40.2333 468.889 40.7 468.572 41.092C468.264 41.4747 467.844 41.7453 467.312 41.904C467.965 42.0533 468.478 42.338 468.852 42.758C469.234 43.1687 469.426 43.6773 469.426 44.284C469.426 44.8253 469.295 45.3013 469.034 45.712C468.772 46.1227 468.404 46.44 467.928 46.664C467.452 46.888 466.892 47 466.248 47H462.132ZM463.21 41.484H466.01C466.607 41.484 467.083 41.3347 467.438 41.036C467.792 40.728 467.97 40.3173 467.97 39.804C467.97 39.2907 467.792 38.8847 467.438 38.586C467.083 38.278 466.607 38.124 466.01 38.124H463.21V41.484ZM463.21 46.076H466.136C466.798 46.076 467.33 45.908 467.732 45.572C468.133 45.2267 468.334 44.774 468.334 44.214C468.334 43.654 468.133 43.206 467.732 42.87C467.34 42.534 466.808 42.366 466.136 42.366H463.21V46.076ZM474.188 47.112C473.554 47.112 472.984 46.958 472.48 46.65C471.976 46.342 471.58 45.922 471.29 45.39C471.001 44.858 470.856 44.256 470.856 43.584C470.856 42.912 471.001 42.31 471.29 41.778C471.58 41.246 471.976 40.826 472.48 40.518C472.984 40.21 473.554 40.056 474.188 40.056C474.814 40.056 475.374 40.21 475.868 40.518C476.372 40.826 476.769 41.246 477.058 41.778C477.348 42.31 477.492 42.912 477.492 43.584C477.492 44.256 477.348 44.858 477.058 45.39C476.769 45.922 476.372 46.342 475.868 46.65C475.374 46.958 474.814 47.112 474.188 47.112ZM474.174 46.216C474.622 46.216 475.019 46.104 475.364 45.88C475.71 45.6467 475.98 45.3293 476.176 44.928C476.382 44.5267 476.484 44.0787 476.484 43.584C476.484 43.08 476.382 42.632 476.176 42.24C475.98 41.8387 475.71 41.526 475.364 41.302C475.019 41.0687 474.622 40.952 474.174 40.952C473.726 40.952 473.33 41.0687 472.984 41.302C472.639 41.526 472.364 41.8387 472.158 42.24C471.962 42.632 471.864 43.08 471.864 43.584C471.864 44.0787 471.962 44.5267 472.158 44.928C472.364 45.3293 472.639 45.6467 472.984 45.88C473.33 46.104 473.726 46.216 474.174 46.216ZM479.285 47V40.168H480.307V41.568C480.485 41.092 480.737 40.7233 481.063 40.462C481.399 40.1913 481.782 40.056 482.211 40.056C482.333 40.056 482.445 40.0653 482.547 40.084C482.65 40.0933 482.753 40.1167 482.855 40.154V41.078C482.743 41.0407 482.622 41.0127 482.491 40.994C482.37 40.966 482.253 40.952 482.141 40.952C481.721 40.952 481.353 41.0733 481.035 41.316C480.727 41.5587 480.485 41.8993 480.307 42.338V47H479.285ZM486.625 47.098C486.037 47.098 485.505 46.944 485.029 46.636C484.553 46.3187 484.175 45.8987 483.895 45.376C483.615 44.844 483.475 44.2513 483.475 43.598C483.475 42.9353 483.615 42.3427 483.895 41.82C484.185 41.288 484.572 40.868 485.057 40.56C485.543 40.2427 486.084 40.084 486.681 40.084C487.101 40.084 487.493 40.168 487.857 40.336C488.221 40.4947 488.539 40.728 488.809 41.036V36.892L489.831 36.682V47H488.809V46.09C488.548 46.4167 488.231 46.6687 487.857 46.846C487.484 47.014 487.073 47.098 486.625 47.098ZM486.877 46.202C487.279 46.202 487.647 46.1227 487.983 45.964C488.319 45.8053 488.595 45.5813 488.809 45.292V41.904C488.585 41.6147 488.301 41.3907 487.955 41.232C487.619 41.064 487.26 40.98 486.877 40.98C486.42 40.98 486.009 41.092 485.645 41.316C485.291 41.54 485.006 41.848 484.791 42.24C484.586 42.632 484.483 43.08 484.483 43.584C484.483 44.0787 484.586 44.5267 484.791 44.928C485.006 45.32 485.291 45.6327 485.645 45.866C486.009 46.09 486.42 46.202 486.877 46.202ZM495.012 47.14C494.377 47.14 493.803 46.986 493.29 46.678C492.777 46.3607 492.371 45.936 492.072 45.404C491.773 44.8627 491.624 44.256 491.624 43.584C491.624 42.912 491.764 42.31 492.044 41.778C492.333 41.246 492.721 40.826 493.206 40.518C493.691 40.21 494.233 40.056 494.83 40.056C495.437 40.056 495.973 40.21 496.44 40.518C496.916 40.8167 497.289 41.2273 497.56 41.75C497.84 42.2633 497.98 42.8467 497.98 43.5V43.808H492.618C492.655 44.2747 492.781 44.6947 492.996 45.068C493.22 45.432 493.509 45.7213 493.864 45.936C494.228 46.1413 494.625 46.244 495.054 46.244C495.409 46.244 495.749 46.1833 496.076 46.062C496.412 45.9313 496.697 45.7587 496.93 45.544L497.574 46.23C497.182 46.538 496.776 46.7667 496.356 46.916C495.936 47.0653 495.488 47.14 495.012 47.14ZM492.646 43.08H496.972C496.925 42.6693 496.799 42.3053 496.594 41.988C496.398 41.6613 496.146 41.4047 495.838 41.218C495.539 41.0313 495.203 40.938 494.83 40.938C494.457 40.938 494.116 41.0313 493.808 41.218C493.5 41.3953 493.243 41.6473 493.038 41.974C492.842 42.2913 492.711 42.66 492.646 43.08ZM499.725 47V40.168H500.747V41.568C500.924 41.092 501.176 40.7233 501.503 40.462C501.839 40.1913 502.221 40.056 502.651 40.056C502.772 40.056 502.884 40.0653 502.987 40.084C503.089 40.0933 503.192 40.1167 503.295 40.154V41.078C503.183 41.0407 503.061 41.0127 502.931 40.994C502.809 40.966 502.693 40.952 502.581 40.952C502.161 40.952 501.792 41.0733 501.475 41.316C501.167 41.5587 500.924 41.8993 500.747 42.338V47H499.725ZM507.303 47.14C506.668 47.14 506.094 46.986 505.581 46.678C505.068 46.3607 504.662 45.936 504.363 45.404C504.064 44.8627 503.915 44.256 503.915 43.584C503.915 42.912 504.055 42.31 504.335 41.778C504.624 41.246 505.012 40.826 505.497 40.518C505.982 40.21 506.524 40.056 507.121 40.056C507.728 40.056 508.264 40.21 508.731 40.518C509.207 40.8167 509.58 41.2273 509.851 41.75C510.131 42.2633 510.271 42.8467 510.271 43.5V43.808H504.909C504.946 44.2747 505.072 44.6947 505.287 45.068C505.511 45.432 505.8 45.7213 506.155 45.936C506.519 46.1413 506.916 46.244 507.345 46.244C507.7 46.244 508.04 46.1833 508.367 46.062C508.703 45.9313 508.988 45.7587 509.221 45.544L509.865 46.23C509.473 46.538 509.067 46.7667 508.647 46.916C508.227 47.0653 507.779 47.14 507.303 47.14ZM504.937 43.08H509.263C509.216 42.6693 509.09 42.3053 508.885 41.988C508.689 41.6613 508.437 41.4047 508.129 41.218C507.83 41.0313 507.494 40.938 507.121 40.938C506.748 40.938 506.407 41.0313 506.099 41.218C505.791 41.3953 505.534 41.6473 505.329 41.974C505.133 42.2913 505.002 42.66 504.937 43.08ZM514.858 47.098C514.27 47.098 513.738 46.944 513.262 46.636C512.786 46.3187 512.408 45.8987 512.128 45.376C511.848 44.844 511.708 44.2513 511.708 43.598C511.708 42.9353 511.848 42.3427 512.128 41.82C512.417 41.288 512.804 40.868 513.29 40.56C513.775 40.2427 514.316 40.084 514.914 40.084C515.334 40.084 515.726 40.168 516.09 40.336C516.454 40.4947 516.771 40.728 517.042 41.036V36.892L518.064 36.682V47H517.042V46.09C516.78 46.4167 516.463 46.6687 516.09 46.846C515.716 47.014 515.306 47.098 514.858 47.098ZM515.11 46.202C515.511 46.202 515.88 46.1227 516.216 45.964C516.552 45.8053 516.827 45.5813 517.042 45.292V41.904C516.818 41.6147 516.533 41.3907 516.188 41.232C515.852 41.064 515.492 40.98 515.11 40.98C514.652 40.98 514.242 41.092 513.878 41.316C513.523 41.54 513.238 41.848 513.024 42.24C512.818 42.632 512.716 43.08 512.716 43.584C512.716 44.0787 512.818 44.5267 513.024 44.928C513.238 45.32 513.523 45.6327 513.878 45.866C514.242 46.09 514.652 46.202 515.11 46.202Z" fill="#4D4D4D"/>
<path d="M54 121C54 118.791 55.7909 117 58 117H88C90.2091 117 92 118.791 92 121V145C92 147.209 90.2091 149 88 149H58C55.7909 149 54 147.209 54 145V121Z" fill="#C806CC"/>
<path d="M72.8879 139V128.254L70.6199 129.208V127.624L73.5359 126.4H74.6699V139H72.8879Z" fill="white"/>
<path d="M203.333 133C203.333 134.473 204.527 135.667 206 135.667C207.473 135.667 208.667 134.473 208.667 133C208.667 131.527 207.473 130.333 206 130.333C204.527 130.333 203.333 131.527 203.333 133ZM92 133V133.5H206V133V132.5H92V133Z" fill="#C806CC"/>
<path d="M551.333 123C551.333 124.473 552.527 125.667 554 125.667C555.473 125.667 556.667 124.473 556.667 123C556.667 121.527 555.473 120.333 554 120.333C552.527 120.333 551.333 121.527 551.333 123ZM554 123V123.5H589V123V122.5H554V123Z" fill="#C806CC"/>
<path d="M589 111C589 108.791 590.791 107 593 107H627C629.209 107 631 108.791 631 111V135C631 137.209 629.209 139 627 139H593C590.791 139 589 137.209 589 135V111Z" fill="#C806CC"/>
<path d="M605.89 129V127.74L611.002 122.304C611.518 121.764 611.866 121.302 612.046 120.918C612.238 120.534 612.334 120.126 612.334 119.694C612.334 119.13 612.106 118.662 611.65 118.29C611.194 117.918 610.618 117.732 609.922 117.732C609.346 117.732 608.806 117.846 608.302 118.074C607.798 118.302 607.24 118.698 606.628 119.262L605.656 118.074C606.988 116.826 608.422 116.202 609.958 116.202C610.762 116.202 611.47 116.346 612.082 116.634C612.694 116.922 613.168 117.324 613.504 117.84C613.852 118.344 614.026 118.926 614.026 119.586C614.026 120.006 613.972 120.396 613.864 120.756C613.756 121.104 613.57 121.476 613.306 121.872C613.042 122.256 612.67 122.7 612.19 123.204L608.086 127.524L614.278 127.506V129H605.89Z" fill="white"/>
<defs>
<clipPath id="clip0_578_53686">
<rect width="128" height="128" fill="white" transform="translate(164 69)"/>
</clipPath>
<clipPath id="clip1_578_53686">
<rect width="128" height="128" fill="white" transform="translate(426 69)"/>
</clipPath>
</defs>
</svg>
