<svg width="351" height="120" viewBox="0 0 351 120" fill="none" xmlns="http://www.w3.org/2000/svg">
<rect width="351" height="120" fill="white"/>
<g clip-path="url(#clip0_578_47820)">
<circle cx="76" cy="60" r="36" fill="#F2F2F2"/>
<mask id="mask0_578_47820" style="mask-type:luminance" maskUnits="userSpaceOnUse" x="40" y="24" width="72" height="72">
<circle cx="76" cy="60" r="36" fill="white"/>
</mask>
<g mask="url(#mask0_578_47820)">
<path fill-rule="evenodd" clip-rule="evenodd" d="M75.2874 64.2111C68.2874 64.2111 62.4874 58.4131 62.4874 51.4155C62.4874 44.418 68.2874 38.62 75.2874 38.62C82.2873 38.62 88.0873 44.418 88.0873 51.4155C88.0873 58.4131 82.4873 64.2111 75.2874 64.2111Z" fill="#C7C7C7"/>
<path d="M66.4874 95.9775V82.5822C62.4875 83.3819 60.6875 85.3812 60.2875 89.5797L60.0875 95.9775H66.4874Z" fill="#C7C7C7"/>
<path d="M60.0875 96L60.2875 89.6022C60.6875 85.4037 62.4874 83.4044 66.4874 82.6046V96H85.2873V82.6046C89.2873 83.4044 91.0873 85.4037 91.4873 89.6022L91.6873 96H101.087C100.287 88.2027 98.4873 78.0062 95.2873 74.0076C93.0873 71.2086 90.6873 69.6092 88.2873 68.8094C85.8873 68.0097 84.6874 67.6099 75.6874 67.6099C66.6874 67.6099 63.4874 69.0094 63.4874 69.0094C61.0875 69.8091 58.6875 71.4085 56.6875 74.2076C53.2875 78.0062 51.4875 88.4026 50.6875 96H60.0875Z" fill="#C7C7C7"/>
<path d="M91.6873 95.9775L91.4873 89.5797C91.0873 85.3812 89.2873 83.3819 85.2874 82.5822V95.9775H91.6873Z" fill="#C7C7C7"/>
</g>
</g>
<path d="M137.42 55V41H143.9C144.82 41 145.62 41.18 146.3 41.54C146.98 41.8867 147.513 42.3733 147.9 43C148.287 43.6267 148.48 44.3533 148.48 45.18C148.48 46.0067 148.287 46.7333 147.9 47.36C147.513 47.9867 146.973 48.48 146.28 48.84C145.6 49.1867 144.807 49.36 143.9 49.36H139.52V55H137.42ZM139.52 47.58H143.68C144.507 47.58 145.16 47.3667 145.64 46.94C146.133 46.5 146.38 45.92 146.38 45.2C146.38 44.48 146.133 43.9067 145.64 43.48C145.16 43.0533 144.507 42.84 143.68 42.84H139.52V47.58ZM153.115 55.18C152.382 55.18 151.735 55.0533 151.175 54.8C150.615 54.5333 150.175 54.1667 149.855 53.7C149.535 53.2333 149.375 52.6933 149.375 52.08C149.375 51.12 149.742 50.3667 150.475 49.82C151.208 49.26 152.215 48.98 153.495 48.98C154.495 48.98 155.422 49.1733 156.275 49.56V48.48C156.275 47.0267 155.448 46.3 153.795 46.3C153.328 46.3 152.842 46.3733 152.335 46.52C151.828 46.6533 151.262 46.8667 150.635 47.16L149.895 45.66C150.668 45.3 151.388 45.04 152.055 44.88C152.722 44.7067 153.395 44.62 154.075 44.62C155.395 44.62 156.415 44.9333 157.135 45.56C157.868 46.1867 158.235 47.08 158.235 48.24V55H156.275V54.12C155.822 54.48 155.335 54.7467 154.815 54.92C154.295 55.0933 153.728 55.18 153.115 55.18ZM151.295 52.04C151.295 52.5333 151.502 52.9333 151.915 53.24C152.342 53.5467 152.895 53.7 153.575 53.7C154.668 53.7 155.568 53.3733 156.275 52.72V51C155.542 50.5733 154.668 50.36 153.655 50.36C152.922 50.36 152.342 50.5133 151.915 50.82C151.502 51.1133 151.295 51.52 151.295 52.04ZM164.606 55.18C163.62 55.18 162.866 54.9533 162.346 54.5C161.826 54.0333 161.566 53.36 161.566 52.48V46.5H159.406V44.82H161.566V42.22L163.546 41.74V44.82H166.546V46.5H163.546V52.02C163.546 52.54 163.66 52.9133 163.886 53.14C164.126 53.3533 164.513 53.46 165.046 53.46C165.326 53.46 165.573 53.44 165.786 53.4C166.013 53.36 166.253 53.3 166.506 53.22V54.9C166.24 54.9933 165.926 55.06 165.566 55.1C165.22 55.1533 164.9 55.18 164.606 55.18ZM172.44 55V41H182.8V42.84H174.54V47.14H179.98V48.92H174.54V55H172.44ZM184.309 55V41L186.309 40.62V55H184.309ZM189.344 59.3C189.131 59.3 188.931 59.2867 188.744 59.26C188.558 59.2467 188.404 59.22 188.284 59.18V57.42C188.524 57.4733 188.818 57.5 189.164 57.5C190.098 57.5 190.771 57 191.184 56L191.624 55.02L187.544 44.82H189.764L192.724 52.58L196.004 44.82H198.164L193.244 56.26C192.924 56.98 192.584 57.56 192.224 58C191.864 58.4533 191.451 58.78 190.984 58.98C190.518 59.1933 189.971 59.3 189.344 59.3ZM203.994 55.18C202.994 55.18 202.087 54.9467 201.274 54.48C200.474 54.0133 199.834 53.38 199.354 52.58C198.887 51.78 198.654 50.8867 198.654 49.9C198.654 48.9267 198.88 48.0467 199.334 47.26C199.787 46.46 200.4 45.8267 201.174 45.36C201.947 44.88 202.807 44.64 203.754 44.64C204.7 44.64 205.54 44.88 206.274 45.36C207.007 45.8267 207.587 46.4667 208.014 47.28C208.454 48.08 208.674 48.9867 208.674 50V50.56H200.654C200.76 51.12 200.967 51.62 201.274 52.06C201.594 52.5 201.994 52.8467 202.474 53.1C202.967 53.3533 203.5 53.48 204.074 53.48C204.567 53.48 205.04 53.4067 205.494 53.26C205.96 53.1 206.347 52.8733 206.654 52.58L207.934 53.84C207.334 54.2933 206.714 54.6333 206.074 54.86C205.447 55.0733 204.754 55.18 203.994 55.18ZM200.674 49.06H206.694C206.614 48.5267 206.427 48.06 206.134 47.66C205.854 47.2467 205.5 46.9267 205.074 46.7C204.66 46.46 204.207 46.34 203.714 46.34C202.94 46.34 202.274 46.5933 201.714 47.1C201.167 47.5933 200.82 48.2467 200.674 49.06ZM210.578 55V44.82H212.578V46.12C212.898 45.64 213.292 45.2667 213.758 45C214.238 44.72 214.778 44.58 215.378 44.58C215.792 44.5933 216.132 44.6533 216.398 44.76V46.56C216.012 46.4133 215.618 46.34 215.218 46.34C214.632 46.34 214.112 46.5 213.658 46.82C213.205 47.1267 212.845 47.58 212.578 48.18V55H210.578ZM221.5 55.2C220.62 55.2 219.794 55.0733 219.02 54.82C218.26 54.5533 217.6 54.18 217.04 53.7L218.14 52.38C218.66 52.7933 219.194 53.1133 219.74 53.34C220.3 53.5533 220.867 53.66 221.44 53.66C222.16 53.66 222.747 53.52 223.2 53.24C223.654 52.96 223.88 52.5933 223.88 52.14C223.88 51.42 223.334 50.98 222.24 50.82L220.4 50.56C219.387 50.4133 218.627 50.1 218.12 49.62C217.614 49.14 217.36 48.5 217.36 47.7C217.36 47.0867 217.527 46.5533 217.86 46.1C218.194 45.6333 218.66 45.2733 219.26 45.02C219.86 44.7533 220.56 44.62 221.36 44.62C222.094 44.62 222.8 44.7267 223.48 44.94C224.16 45.1533 224.814 45.4867 225.44 45.94L224.42 47.26C223.314 46.54 222.24 46.18 221.2 46.18C220.587 46.18 220.094 46.3133 219.72 46.58C219.347 46.8333 219.16 47.1667 219.16 47.58C219.16 47.9533 219.287 48.2467 219.54 48.46C219.807 48.66 220.24 48.8 220.84 48.88L222.68 49.14C223.694 49.2867 224.46 49.6 224.98 50.08C225.5 50.5467 225.76 51.18 225.76 51.98C225.76 52.5933 225.574 53.1467 225.2 53.64C224.827 54.12 224.32 54.5 223.68 54.78C223.04 55.06 222.314 55.2 221.5 55.2ZM232.235 55.2C231.248 55.2 230.348 54.9667 229.535 54.5C228.735 54.0333 228.102 53.4 227.635 52.6C227.168 51.8 226.935 50.9067 226.935 49.92C226.935 48.9333 227.168 48.04 227.635 47.24C228.102 46.44 228.735 45.8067 229.535 45.34C230.348 44.86 231.248 44.62 232.235 44.62C233.235 44.62 234.135 44.86 234.935 45.34C235.735 45.8067 236.368 46.44 236.835 47.24C237.302 48.04 237.535 48.9333 237.535 49.92C237.535 50.9067 237.302 51.8 236.835 52.6C236.368 53.4 235.735 54.0333 234.935 54.5C234.135 54.9667 233.235 55.2 232.235 55.2ZM232.235 53.44C232.862 53.44 233.422 53.2867 233.915 52.98C234.422 52.66 234.822 52.2333 235.115 51.7C235.422 51.1667 235.575 50.5733 235.575 49.92C235.575 49.2533 235.428 48.66 235.135 48.14C234.842 47.6067 234.442 47.18 233.935 46.86C233.428 46.54 232.862 46.38 232.235 46.38C231.608 46.38 231.042 46.54 230.535 46.86C230.028 47.18 229.628 47.6067 229.335 48.14C229.042 48.66 228.895 49.2533 228.895 49.92C228.895 50.5733 229.042 51.1667 229.335 51.7C229.628 52.2333 230.028 52.66 230.535 52.98C231.042 53.2867 231.608 53.44 232.235 53.44ZM239.426 55V44.82H241.426V45.86C242.213 45.0333 243.233 44.62 244.486 44.62C245.273 44.62 245.959 44.7867 246.546 45.12C247.146 45.4533 247.613 45.92 247.946 46.52C248.293 47.12 248.466 47.8133 248.466 48.6V55H246.466V48.94C246.466 48.14 246.239 47.5133 245.786 47.06C245.333 46.5933 244.713 46.36 243.926 46.36C243.393 46.36 242.913 46.4733 242.486 46.7C242.059 46.9267 241.706 47.2533 241.426 47.68V55H239.426Z" fill="black"/>
<path d="M141.04 79.176C140.165 79.176 139.355 79.0213 138.608 78.712C137.861 78.392 137.141 77.912 136.448 77.272L137.2 76.376C137.872 77.0053 138.501 77.4533 139.088 77.72C139.685 77.9867 140.347 78.12 141.072 78.12C141.648 78.12 142.16 78.024 142.608 77.832C143.067 77.6293 143.424 77.3573 143.68 77.016C143.936 76.6747 144.064 76.2853 144.064 75.848C144.064 75.2827 143.877 74.856 143.504 74.568C143.131 74.2693 142.485 74.04 141.568 73.88L139.76 73.576C138.736 73.3947 137.984 73.0853 137.504 72.648C137.035 72.2 136.8 71.6027 136.8 70.856C136.8 70.2267 136.96 69.672 137.28 69.192C137.611 68.7013 138.064 68.3173 138.64 68.04C139.216 67.7627 139.883 67.624 140.64 67.624C141.472 67.624 142.245 67.7413 142.96 67.976C143.675 68.2 144.379 68.5573 145.072 69.048L144.432 70.008C143.856 69.5707 143.248 69.24 142.608 69.016C141.968 68.7813 141.317 68.664 140.656 68.664C140.133 68.664 139.669 68.7547 139.264 68.936C138.869 69.1173 138.555 69.3627 138.32 69.672C138.096 69.9813 137.984 70.3333 137.984 70.728C137.984 71.2187 138.149 71.6027 138.48 71.88C138.811 72.1573 139.349 72.3547 140.096 72.472L141.888 72.776C143.083 72.9893 143.947 73.336 144.48 73.816C145.024 74.2853 145.296 74.9413 145.296 75.784C145.296 76.4347 145.109 77.016 144.736 77.528C144.373 78.04 143.872 78.4453 143.232 78.744C142.592 79.032 141.861 79.176 141.04 79.176ZM150.845 79.16C150.12 79.16 149.464 78.984 148.877 78.632C148.29 78.2693 147.826 77.784 147.485 77.176C147.144 76.5573 146.973 75.864 146.973 75.096C146.973 74.328 147.133 73.64 147.453 73.032C147.784 72.424 148.226 71.944 148.781 71.592C149.336 71.24 149.954 71.064 150.637 71.064C151.33 71.064 151.944 71.24 152.477 71.592C153.021 71.9333 153.448 72.4027 153.757 73C154.077 73.5867 154.237 74.2533 154.237 75V75.352H148.109C148.152 75.8853 148.296 76.3653 148.541 76.792C148.797 77.208 149.128 77.5387 149.533 77.784C149.949 78.0187 150.402 78.136 150.893 78.136C151.298 78.136 151.688 78.0667 152.061 77.928C152.445 77.7787 152.77 77.5813 153.037 77.336L153.773 78.12C153.325 78.472 152.861 78.7333 152.381 78.904C151.901 79.0747 151.389 79.16 150.845 79.16ZM148.141 74.52H153.085C153.032 74.0507 152.888 73.6347 152.653 73.272C152.429 72.8987 152.141 72.6053 151.789 72.392C151.448 72.1787 151.064 72.072 150.637 72.072C150.21 72.072 149.821 72.1787 149.469 72.392C149.117 72.5947 148.824 72.8827 148.589 73.256C148.365 73.6187 148.216 74.04 148.141 74.52ZM156.231 79V71.192H157.399V72.456C157.698 71.9867 158.055 71.64 158.471 71.416C158.887 71.1813 159.357 71.064 159.879 71.064C160.445 71.064 160.935 71.1867 161.351 71.432C161.778 71.6667 162.109 72.0027 162.343 72.44C162.589 72.8667 162.711 73.368 162.711 73.944V79H161.543V74.28C161.543 73.5867 161.351 73.0427 160.967 72.648C160.594 72.2427 160.087 72.04 159.447 72.04C159.021 72.04 158.631 72.1413 158.279 72.344C157.927 72.5467 157.634 72.8453 157.399 73.24V79H156.231ZM165.043 79V71.192H166.211V79H165.043ZM165.635 69.256C165.401 69.256 165.198 69.176 165.027 69.016C164.867 68.8453 164.787 68.648 164.787 68.424C164.787 68.2 164.867 68.008 165.027 67.848C165.198 67.6773 165.401 67.592 165.635 67.592C165.87 67.592 166.067 67.6773 166.227 67.848C166.398 68.008 166.483 68.2 166.483 68.424C166.483 68.648 166.398 68.8453 166.227 69.016C166.067 69.176 165.87 69.256 165.635 69.256ZM172.062 79.128C171.337 79.128 170.686 78.952 170.11 78.6C169.534 78.248 169.081 77.768 168.75 77.16C168.42 76.552 168.254 75.864 168.254 75.096C168.254 74.328 168.42 73.64 168.75 73.032C169.081 72.424 169.534 71.944 170.11 71.592C170.686 71.24 171.337 71.064 172.062 71.064C172.777 71.064 173.417 71.24 173.982 71.592C174.558 71.944 175.012 72.424 175.342 73.032C175.673 73.64 175.838 74.328 175.838 75.096C175.838 75.864 175.673 76.552 175.342 77.16C175.012 77.768 174.558 78.248 173.982 78.6C173.417 78.952 172.777 79.128 172.062 79.128ZM172.046 78.104C172.558 78.104 173.012 77.976 173.406 77.72C173.801 77.4533 174.11 77.0907 174.334 76.632C174.569 76.1733 174.686 75.6613 174.686 75.096C174.686 74.52 174.569 74.008 174.334 73.56C174.11 73.1013 173.801 72.744 173.406 72.488C173.012 72.2213 172.558 72.088 172.046 72.088C171.534 72.088 171.081 72.2213 170.686 72.488C170.292 72.744 169.977 73.1013 169.742 73.56C169.518 74.008 169.406 74.52 169.406 75.096C169.406 75.6613 169.518 76.1733 169.742 76.632C169.977 77.0907 170.292 77.4533 170.686 77.72C171.081 77.976 171.534 78.104 172.046 78.104ZM177.888 79V71.192H179.056V72.792C179.258 72.248 179.546 71.8267 179.92 71.528C180.304 71.2187 180.741 71.064 181.232 71.064C181.37 71.064 181.498 71.0747 181.616 71.096C181.733 71.1067 181.85 71.1333 181.968 71.176V72.232C181.84 72.1893 181.701 72.1573 181.552 72.136C181.413 72.104 181.28 72.088 181.152 72.088C180.672 72.088 180.25 72.2267 179.888 72.504C179.536 72.7813 179.258 73.1707 179.056 73.672V79H177.888ZM187.471 79V67.8H192.095C192.82 67.8 193.45 67.9387 193.983 68.216C194.516 68.4827 194.927 68.8667 195.215 69.368C195.514 69.8587 195.663 70.44 195.663 71.112C195.663 71.7733 195.514 72.3547 195.215 72.856C194.927 73.3573 194.516 73.7467 193.983 74.024C193.45 74.2907 192.82 74.424 192.095 74.424H188.703V79H187.471ZM188.703 73.368H191.951C192.73 73.368 193.338 73.1653 193.775 72.76C194.212 72.3547 194.431 71.8053 194.431 71.112C194.431 70.4187 194.212 69.8747 193.775 69.48C193.338 69.0853 192.73 68.888 191.951 68.888H188.703V73.368ZM199.725 79.144C199.171 79.144 198.68 79.0427 198.253 78.84C197.827 78.6373 197.491 78.36 197.245 78.008C197.011 77.6453 196.893 77.2293 196.893 76.76C196.893 76.2907 197.016 75.8853 197.261 75.544C197.507 75.192 197.848 74.92 198.285 74.728C198.723 74.536 199.235 74.44 199.821 74.44C200.269 74.44 200.691 74.488 201.085 74.584C201.491 74.68 201.864 74.8347 202.205 75.048V73.976C202.205 73.336 202.035 72.856 201.693 72.536C201.352 72.2053 200.851 72.04 200.189 72.04C199.827 72.04 199.453 72.0933 199.069 72.2C198.696 72.3067 198.28 72.4773 197.821 72.712L197.389 71.816C198.435 71.3147 199.416 71.064 200.333 71.064C201.304 71.064 202.051 71.304 202.573 71.784C203.096 72.2533 203.357 72.9307 203.357 73.816V79H202.205V78.088C201.864 78.44 201.485 78.7067 201.069 78.888C200.653 79.0587 200.205 79.144 199.725 79.144ZM198.013 76.728C198.013 77.1867 198.189 77.5547 198.541 77.832C198.904 78.1093 199.379 78.248 199.965 78.248C200.403 78.248 200.803 78.1733 201.165 78.024C201.539 77.8747 201.885 77.6507 202.205 77.352V75.848C201.875 75.656 201.533 75.5173 201.181 75.432C200.829 75.336 200.435 75.288 199.997 75.288C199.4 75.288 198.92 75.4213 198.557 75.688C198.195 75.944 198.013 76.2907 198.013 76.728ZM208.473 79.16C207.801 79.16 207.289 79 206.937 78.68C206.596 78.3493 206.425 77.8747 206.425 77.256V72.152H204.809V71.192H206.425V69.048L207.593 68.776V71.192H209.833V72.152H207.593V76.952C207.593 77.368 207.678 77.6667 207.849 77.848C208.03 78.0293 208.324 78.12 208.729 78.12C208.932 78.12 209.113 78.104 209.273 78.072C209.433 78.04 209.62 77.9867 209.833 77.912V78.952C209.62 79.0267 209.396 79.08 209.161 79.112C208.926 79.144 208.697 79.16 208.473 79.16ZM214.676 79.16C214.004 79.16 213.492 79 213.14 78.68C212.799 78.3493 212.628 77.8747 212.628 77.256V72.152H211.012V71.192H212.628V69.048L213.796 68.776V71.192H216.036V72.152H213.796V76.952C213.796 77.368 213.881 77.6667 214.052 77.848C214.233 78.0293 214.527 78.12 214.932 78.12C215.135 78.12 215.316 78.104 215.476 78.072C215.636 78.04 215.823 77.9867 216.036 77.912V78.952C215.823 79.0267 215.599 79.08 215.364 79.112C215.129 79.144 214.9 79.16 214.676 79.16ZM221.111 79.16C220.385 79.16 219.729 78.984 219.143 78.632C218.556 78.2693 218.092 77.784 217.751 77.176C217.409 76.5573 217.239 75.864 217.239 75.096C217.239 74.328 217.399 73.64 217.719 73.032C218.049 72.424 218.492 71.944 219.047 71.592C219.601 71.24 220.22 71.064 220.903 71.064C221.596 71.064 222.209 71.24 222.743 71.592C223.287 71.9333 223.713 72.4027 224.023 73C224.343 73.5867 224.503 74.2533 224.503 75V75.352H218.375C218.417 75.8853 218.561 76.3653 218.807 76.792C219.063 77.208 219.393 77.5387 219.799 77.784C220.215 78.0187 220.668 78.136 221.159 78.136C221.564 78.136 221.953 78.0667 222.327 77.928C222.711 77.7787 223.036 77.5813 223.303 77.336L224.039 78.12C223.591 78.472 223.127 78.7333 222.647 78.904C222.167 79.0747 221.655 79.16 221.111 79.16ZM218.407 74.52H223.351C223.297 74.0507 223.153 73.6347 222.919 73.272C222.695 72.8987 222.407 72.6053 222.055 72.392C221.713 72.1787 221.329 72.072 220.903 72.072C220.476 72.072 220.087 72.1787 219.735 72.392C219.383 72.5947 219.089 72.8827 218.855 73.256C218.631 73.6187 218.481 74.04 218.407 74.52ZM226.497 79V71.192H227.665V72.792C227.868 72.248 228.156 71.8267 228.529 71.528C228.913 71.2187 229.35 71.064 229.841 71.064C229.98 71.064 230.108 71.0747 230.225 71.096C230.342 71.1067 230.46 71.1333 230.577 71.176V72.232C230.449 72.1893 230.31 72.1573 230.161 72.136C230.022 72.104 229.889 72.088 229.761 72.088C229.281 72.088 228.86 72.2267 228.497 72.504C228.145 72.7813 227.868 73.1707 227.665 73.672V79H226.497ZM232.122 79V71.192H233.29V72.456C233.589 71.9867 233.946 71.64 234.362 71.416C234.778 71.1813 235.247 71.064 235.77 71.064C236.335 71.064 236.826 71.1867 237.242 71.432C237.669 71.6667 237.999 72.0027 238.234 72.44C238.479 72.8667 238.602 73.368 238.602 73.944V79H237.434V74.28C237.434 73.5867 237.242 73.0427 236.858 72.648C236.485 72.2427 235.978 72.04 235.338 72.04C234.911 72.04 234.522 72.1413 234.17 72.344C233.818 72.5467 233.525 72.8453 233.29 73.24V79H232.122ZM241.174 79V67.8H248.822V68.888H242.406V72.888H246.79V73.96H242.406V79H241.174ZM250.481 79V67.448L251.649 67.208V79H250.481ZM254.38 82.504C254.134 82.504 253.884 82.4667 253.628 82.392V81.352C253.734 81.3733 253.846 81.3893 253.964 81.4C254.081 81.4107 254.182 81.416 254.268 81.416C254.566 81.416 254.812 81.336 255.004 81.176C255.206 81.016 255.377 80.7653 255.516 80.424L256.092 79L253.084 71.192H254.38L256.748 77.608L259.26 71.192H260.556L256.62 80.776C256.449 81.192 256.262 81.528 256.06 81.784C255.857 82.04 255.622 82.2213 255.356 82.328C255.089 82.4453 254.764 82.504 254.38 82.504ZM264.691 79L269.123 67.8H270.595L274.963 79H273.635L272.307 75.48H267.315L265.987 79H264.691ZM267.699 74.504H271.939L269.811 68.92L267.699 74.504ZM277.503 79L274.303 71.192H275.567L278.095 77.544L280.591 71.192H281.839L278.623 79H277.503ZM285.382 79.144C284.827 79.144 284.336 79.0427 283.91 78.84C283.483 78.6373 283.147 78.36 282.902 78.008C282.667 77.6453 282.55 77.2293 282.55 76.76C282.55 76.2907 282.672 75.8853 282.918 75.544C283.163 75.192 283.504 74.92 283.942 74.728C284.379 74.536 284.891 74.44 285.478 74.44C285.926 74.44 286.347 74.488 286.742 74.584C287.147 74.68 287.52 74.8347 287.862 75.048V73.976C287.862 73.336 287.691 72.856 287.35 72.536C287.008 72.2053 286.507 72.04 285.846 72.04C285.483 72.04 285.11 72.0933 284.726 72.2C284.352 72.3067 283.936 72.4773 283.478 72.712L283.046 71.816C284.091 71.3147 285.072 71.064 285.99 71.064C286.96 71.064 287.707 71.304 288.23 71.784C288.752 72.2533 289.014 72.9307 289.014 73.816V79H287.862V78.088C287.52 78.44 287.142 78.7067 286.726 78.888C286.31 79.0587 285.862 79.144 285.382 79.144ZM283.67 76.728C283.67 77.1867 283.846 77.5547 284.198 77.832C284.56 78.1093 285.035 78.248 285.622 78.248C286.059 78.248 286.459 78.1733 286.822 78.024C287.195 77.8747 287.542 77.6507 287.862 77.352V75.848C287.531 75.656 287.19 75.5173 286.838 75.432C286.486 75.336 286.091 75.288 285.654 75.288C285.056 75.288 284.576 75.4213 284.214 75.688C283.851 75.944 283.67 76.2907 283.67 76.728ZM294.129 79.16C293.457 79.16 292.945 79 292.593 78.68C292.252 78.3493 292.081 77.8747 292.081 77.256V72.152H290.465V71.192H292.081V69.048L293.249 68.776V71.192H295.489V72.152H293.249V76.952C293.249 77.368 293.334 77.6667 293.505 77.848C293.686 78.0293 293.98 78.12 294.385 78.12C294.588 78.12 294.769 78.104 294.929 78.072C295.089 78.04 295.276 77.9867 295.489 77.912V78.952C295.276 79.0267 295.052 79.08 294.817 79.112C294.582 79.144 294.353 79.16 294.129 79.16ZM299.616 79.144C299.061 79.144 298.571 79.0427 298.144 78.84C297.717 78.6373 297.381 78.36 297.136 78.008C296.901 77.6453 296.784 77.2293 296.784 76.76C296.784 76.2907 296.907 75.8853 297.152 75.544C297.397 75.192 297.739 74.92 298.176 74.728C298.613 74.536 299.125 74.44 299.712 74.44C300.16 74.44 300.581 74.488 300.976 74.584C301.381 74.68 301.755 74.8347 302.096 75.048V73.976C302.096 73.336 301.925 72.856 301.584 72.536C301.243 72.2053 300.741 72.04 300.08 72.04C299.717 72.04 299.344 72.0933 298.96 72.2C298.587 72.3067 298.171 72.4773 297.712 72.712L297.28 71.816C298.325 71.3147 299.307 71.064 300.224 71.064C301.195 71.064 301.941 71.304 302.464 71.784C302.987 72.2533 303.248 72.9307 303.248 73.816V79H302.096V78.088C301.755 78.44 301.376 78.7067 300.96 78.888C300.544 79.0587 300.096 79.144 299.616 79.144ZM297.904 76.728C297.904 77.1867 298.08 77.5547 298.432 77.832C298.795 78.1093 299.269 78.248 299.856 78.248C300.293 78.248 300.693 78.1733 301.056 78.024C301.429 77.8747 301.776 77.6507 302.096 77.352V75.848C301.765 75.656 301.424 75.5173 301.072 75.432C300.72 75.336 300.325 75.288 299.888 75.288C299.291 75.288 298.811 75.4213 298.448 75.688C298.085 75.944 297.904 76.2907 297.904 76.728ZM305.622 79V71.192H306.79V72.792C306.993 72.248 307.281 71.8267 307.654 71.528C308.038 71.2187 308.475 71.064 308.966 71.064C309.105 71.064 309.233 71.0747 309.35 71.096C309.467 71.1067 309.585 71.1333 309.702 71.176V72.232C309.574 72.1893 309.435 72.1573 309.286 72.136C309.147 72.104 309.014 72.088 308.886 72.088C308.406 72.088 307.985 72.2267 307.622 72.504C307.27 72.7813 306.993 73.1707 306.79 73.672V79H305.622Z" fill="#4D4D4D"/>
<defs>
<clipPath id="clip0_578_47820">
<rect width="72" height="72" fill="white" transform="translate(40 24)"/>
</clipPath>
</defs>
</svg>
