<svg width="207" height="120" viewBox="0 0 207 120" fill="none" xmlns="http://www.w3.org/2000/svg">
<rect width="207" height="120" fill="white"/>
<mask id="path-1-inside-1_385_67478" fill="white">
<path d="M19 21C19 17.6863 21.6863 15 25 15H182C185.314 15 188 17.6863 188 21V46C188 49.3137 185.314 52 182 52H25C21.6863 52 19 49.3137 19 46V21Z"/>
</mask>
<path d="M19 21C19 17.6863 21.6863 15 25 15H182C185.314 15 188 17.6863 188 21V46C188 49.3137 185.314 52 182 52H25C21.6863 52 19 49.3137 19 46V21Z" fill="white"/>
<path d="M25 17H182V13H25V17ZM186 21V46H190V21H186ZM182 50H25V54H182V50ZM21 46V21H17V46H21ZM25 50C22.7909 50 21 48.2091 21 46H17C17 50.4183 20.5817 54 25 54V50ZM186 46C186 48.2091 184.209 50 182 50V54C186.418 54 190 50.4183 190 46H186ZM182 17C184.209 17 186 18.7909 186 21H190C190 16.5817 186.418 13 182 13V17ZM25 13C20.5817 13 17 16.5817 17 21H21C21 18.7909 22.7909 17 25 17V13Z" fill="#0066CC" mask="url(#path-1-inside-1_385_67478)"/>
<path d="M35.126 38L39.004 28.2H40.292L44.114 38H42.952L41.79 34.92H37.422L36.26 38H35.126ZM37.758 34.066H41.468L39.606 29.18L37.758 34.066ZM45.2922 38V31.168H46.3142V32.568C46.4915 32.092 46.7435 31.7233 47.0702 31.462C47.4062 31.1913 47.7889 31.056 48.2182 31.056C48.3395 31.056 48.4515 31.0653 48.5542 31.084C48.6569 31.0933 48.7595 31.1167 48.8622 31.154V32.078C48.7502 32.0407 48.6289 32.0127 48.4982 31.994C48.3769 31.966 48.2602 31.952 48.1482 31.952C47.7282 31.952 47.3595 32.0733 47.0422 32.316C46.7342 32.5587 46.4915 32.8993 46.3142 33.338V38H45.2922Z" fill="#151515"/>
<path fill-rule="evenodd" clip-rule="evenodd" d="M138.833 37.9225L139.422 37.3328C139.748 37.0072 139.748 36.4793 139.422 36.1534L136.769 33.5L139.422 30.8467C139.748 30.5211 139.748 29.9932 139.422 29.6673L138.833 29.0776C138.507 28.752 137.979 28.752 137.653 29.0776L135 31.731L132.347 29.0776C132.021 28.752 131.493 28.752 131.167 29.0776L130.578 29.6673C130.252 29.9929 130.252 30.5208 130.578 30.8467L133.231 33.5L130.578 36.1534C130.252 36.479 130.252 37.0069 130.578 37.3328L131.167 37.9225C131.493 38.2481 132.021 38.2481 132.347 37.9225L135 35.2691L137.653 37.9225C137.979 38.2481 138.507 38.2481 138.833 37.9225Z" fill="#1F1F1F"/>
<g clip-path="url(#clip0_385_67478)">
<path fill-rule="evenodd" clip-rule="evenodd" d="M162.389 36.1714L165.921 32.6102C166.267 32.2615 166.023 31.6666 165.534 31.6666H158.466C157.977 31.6666 157.733 32.2615 158.079 32.6102L161.611 36.1714C161.826 36.3872 162.174 36.3872 162.389 36.1714Z" fill="#1F1F1F"/>
</g>
<g filter="url(#filter0_d_385_67478)">
<path d="M19 58C19 54.6863 21.6863 52 25 52H182C185.314 52 188 54.6863 188 58V99C188 102.314 185.314 105 182 105H25C21.6863 105 19 102.314 19 99V58Z" fill="white"/>
<rect width="169" height="37" transform="translate(19 60)" fill="#C7C7C7" fill-opacity="0.25"/>
<path d="M43.126 83L47.004 73.2H48.292L52.114 83H50.952L49.79 79.92H45.422L44.26 83H43.126ZM45.758 79.066H49.468L47.606 74.18L45.758 79.066ZM53.2922 83V76.168H54.3142V77.568C54.4915 77.092 54.7435 76.7233 55.0702 76.462C55.4062 76.1913 55.7889 76.056 56.2182 76.056C56.3395 76.056 56.4515 76.0653 56.5542 76.084C56.6569 76.0933 56.7595 76.1167 56.8622 76.154V77.078C56.7502 77.0407 56.6289 77.0127 56.4982 76.994C56.3769 76.966 56.2602 76.952 56.1482 76.952C55.7282 76.952 55.3595 77.0733 55.0422 77.316C54.7342 77.5587 54.4915 77.8993 54.3142 78.338V83H53.2922ZM58.2001 83V76.168H59.2221V83H58.2001ZM58.7181 74.474C58.5127 74.474 58.3354 74.404 58.1861 74.264C58.0461 74.1147 57.9761 73.942 57.9761 73.746C57.9761 73.55 58.0461 73.382 58.1861 73.242C58.3354 73.0927 58.5127 73.018 58.7181 73.018C58.9234 73.018 59.0961 73.0927 59.2361 73.242C59.3854 73.382 59.4601 73.55 59.4601 73.746C59.4601 73.942 59.3854 74.1147 59.2361 74.264C59.0961 74.404 58.9234 74.474 58.7181 74.474ZM60.8416 83V82.188L64.7756 77.092L60.8836 77.106V76.168H66.0216V76.966L62.0736 82.09L66.0776 82.076V83H60.8416ZM70.5623 83.112C69.9276 83.112 69.3583 82.958 68.8543 82.65C68.3503 82.342 67.9536 81.922 67.6643 81.39C67.3749 80.858 67.2303 80.256 67.2303 79.584C67.2303 78.912 67.3749 78.31 67.6643 77.778C67.9536 77.246 68.3503 76.826 68.8543 76.518C69.3583 76.21 69.9276 76.056 70.5623 76.056C71.1876 76.056 71.7476 76.21 72.2423 76.518C72.7463 76.826 73.1429 77.246 73.4323 77.778C73.7216 78.31 73.8663 78.912 73.8663 79.584C73.8663 80.256 73.7216 80.858 73.4323 81.39C73.1429 81.922 72.7463 82.342 72.2423 82.65C71.7476 82.958 71.1876 83.112 70.5623 83.112ZM70.5483 82.216C70.9963 82.216 71.3929 82.104 71.7383 81.88C72.0836 81.6467 72.3543 81.3293 72.5503 80.928C72.7556 80.5267 72.8583 80.0787 72.8583 79.584C72.8583 79.08 72.7556 78.632 72.5503 78.24C72.3543 77.8387 72.0836 77.526 71.7383 77.302C71.3929 77.0687 70.9963 76.952 70.5483 76.952C70.1003 76.952 69.7036 77.0687 69.3583 77.302C69.0129 77.526 68.7376 77.8387 68.5323 78.24C68.3363 78.632 68.2383 79.08 68.2383 79.584C68.2383 80.0787 68.3363 80.5267 68.5323 80.928C68.7376 81.3293 69.0129 81.6467 69.3583 81.88C69.7036 82.104 70.1003 82.216 70.5483 82.216ZM75.6594 83V76.168H76.6814V77.274C76.9427 76.8633 77.2554 76.56 77.6194 76.364C77.9834 76.1587 78.394 76.056 78.8514 76.056C79.346 76.056 79.7754 76.1633 80.1394 76.378C80.5127 76.5833 80.802 76.8773 81.0074 77.26C81.222 77.6333 81.3294 78.072 81.3294 78.576V83H80.3074V78.87C80.3074 78.2633 80.1394 77.7873 79.8034 77.442C79.4767 77.0873 79.0334 76.91 78.4734 76.91C78.1 76.91 77.7594 76.9987 77.4514 77.176C77.1434 77.3533 76.8867 77.6147 76.6814 77.96V83H75.6594ZM85.498 83.126C85.0127 83.126 84.5833 83.0373 84.21 82.86C83.8367 82.6827 83.5427 82.44 83.328 82.132C83.1227 81.8147 83.02 81.4507 83.02 81.04C83.02 80.6293 83.1273 80.2747 83.342 79.976C83.5567 79.668 83.8553 79.43 84.238 79.262C84.6207 79.094 85.0687 79.01 85.582 79.01C85.974 79.01 86.3427 79.052 86.688 79.136C87.0427 79.22 87.3693 79.3553 87.668 79.542V78.604C87.668 78.044 87.5187 77.624 87.22 77.344C86.9213 77.0547 86.4827 76.91 85.904 76.91C85.5867 76.91 85.26 76.9567 84.924 77.05C84.5973 77.1433 84.2333 77.2927 83.832 77.498L83.454 76.714C84.3687 76.2753 85.2273 76.056 86.03 76.056C86.8793 76.056 87.5327 76.266 87.99 76.686C88.4473 77.0967 88.676 77.6893 88.676 78.464V83H87.668V82.202C87.3693 82.51 87.038 82.7433 86.674 82.902C86.31 83.0513 85.918 83.126 85.498 83.126ZM84 81.012C84 81.4133 84.154 81.7353 84.462 81.978C84.7793 82.2207 85.1947 82.342 85.708 82.342C86.0907 82.342 86.4407 82.2767 86.758 82.146C87.0847 82.0153 87.388 81.8193 87.668 81.558V80.242C87.3787 80.074 87.08 79.9527 86.772 79.878C86.464 79.794 86.1187 79.752 85.736 79.752C85.2133 79.752 84.7933 79.8687 84.476 80.102C84.1587 80.326 84 80.6293 84 81.012Z" fill="#151515"/>
</g>
<g filter="url(#filter1_d_385_67478)">
<path d="M142.27 93.2799C141.99 92.9199 141.64 92.1899 141.03 91.2799C140.68 90.7799 139.82 89.8299 139.56 89.3399C139.373 89.0422 139.318 88.6796 139.41 88.3399C139.567 87.6941 140.18 87.2657 140.84 87.3399C141.351 87.4425 141.82 87.6929 142.19 88.0599C142.448 88.3031 142.686 88.5673 142.9 88.8499C143.06 89.0499 143.1 89.1299 143.28 89.3599C143.46 89.5899 143.58 89.8199 143.49 89.4799C143.42 88.9799 143.3 88.1399 143.13 87.3899C143 86.8199 142.97 86.7299 142.85 86.2999C142.73 85.8699 142.66 85.5099 142.53 85.0199C142.411 84.5385 142.318 84.0512 142.25 83.5599C142.124 82.9316 142.216 82.2791 142.51 81.7099C142.859 81.3813 143.372 81.2946 143.81 81.4899C144.251 81.8153 144.579 82.2696 144.75 82.7899C145.012 83.4303 145.187 84.103 145.27 84.7899C145.43 85.7899 145.74 87.2499 145.75 87.5499C145.75 87.1799 145.68 86.3999 145.75 86.0499C145.819 85.6851 146.073 85.3822 146.42 85.2499C146.718 85.1586 147.033 85.138 147.34 85.1899C147.65 85.2547 147.925 85.4331 148.11 85.6899C148.342 86.2733 148.47 86.8925 148.49 87.5199C148.517 86.9705 148.611 86.4265 148.77 85.8999C148.937 85.6645 149.181 85.4947 149.46 85.4199C149.791 85.3595 150.129 85.3595 150.46 85.4199C150.731 85.5106 150.968 85.6814 151.14 85.9099C151.352 86.4403 151.48 87.0003 151.52 87.5699C151.52 87.7099 151.59 87.1799 151.81 86.8299C151.924 86.4905 152.211 86.2379 152.562 86.1672C152.913 86.0965 153.275 86.2185 153.512 86.4872C153.749 86.7559 153.824 87.1305 153.71 87.4699C153.71 88.1199 153.71 88.0899 153.71 88.5299C153.71 88.9699 153.71 89.3599 153.71 89.7299C153.674 90.3151 153.593 90.8967 153.47 91.4699C153.296 91.977 153.054 92.4581 152.75 92.8999C152.264 93.4399 151.863 94.0501 151.56 94.7099C151.485 95.0377 151.451 95.3737 151.46 95.7099C151.459 96.0206 151.499 96.3299 151.58 96.6299C151.171 96.6731 150.759 96.6731 150.35 96.6299C149.96 96.5699 149.48 95.7899 149.35 95.5499C149.286 95.4211 149.154 95.3396 149.01 95.3396C148.866 95.3396 148.734 95.4211 148.67 95.5499C148.45 95.9299 147.96 96.6199 147.62 96.6599C146.95 96.7399 145.57 96.6599 144.48 96.6599C144.48 96.6599 144.66 95.6599 144.25 95.2999C143.84 94.9399 143.42 94.5199 143.11 94.2399L142.27 93.2799Z" fill="white"/>
<path fill-rule="evenodd" clip-rule="evenodd" d="M142.27 93.2799C141.99 92.9199 141.64 92.1899 141.03 91.2799C140.68 90.7799 139.82 89.8299 139.56 89.3399C139.373 89.0422 139.318 88.6796 139.41 88.3399C139.567 87.6941 140.18 87.2657 140.84 87.3399C141.351 87.4425 141.82 87.6929 142.19 88.0599C142.448 88.3031 142.686 88.5673 142.9 88.8499C143.06 89.0499 143.1 89.1299 143.28 89.3599C143.46 89.5899 143.58 89.8199 143.49 89.4799C143.42 88.9799 143.3 88.1399 143.13 87.3899C143 86.8199 142.97 86.7299 142.85 86.2999C142.73 85.8699 142.66 85.5099 142.53 85.0199C142.411 84.5385 142.318 84.0512 142.25 83.5599C142.124 82.9316 142.216 82.2791 142.51 81.7099C142.859 81.3813 143.372 81.2946 143.81 81.4899C144.251 81.8153 144.579 82.2696 144.75 82.7899C145.012 83.4303 145.187 84.103 145.27 84.7899C145.43 85.7899 145.74 87.2499 145.75 87.5499C145.75 87.1799 145.68 86.3999 145.75 86.0499C145.819 85.6851 146.073 85.3822 146.42 85.2499C146.718 85.1586 147.033 85.138 147.34 85.1899C147.65 85.2547 147.925 85.4331 148.11 85.6899C148.342 86.2733 148.47 86.8925 148.49 87.5199C148.517 86.9705 148.611 86.4265 148.77 85.8999C148.937 85.6645 149.181 85.4947 149.46 85.4199C149.791 85.3595 150.129 85.3595 150.46 85.4199C150.731 85.5106 150.968 85.6814 151.14 85.9099C151.352 86.4403 151.48 87.0003 151.52 87.5699C151.52 87.7099 151.59 87.1799 151.81 86.8299C151.924 86.4905 152.211 86.2379 152.562 86.1672C152.913 86.0965 153.275 86.2185 153.512 86.4872C153.749 86.7559 153.824 87.1305 153.71 87.4699C153.71 88.1199 153.71 88.0899 153.71 88.5299C153.71 88.9699 153.71 89.3599 153.71 89.7299C153.674 90.3151 153.593 90.8967 153.47 91.4699C153.296 91.977 153.054 92.4581 152.75 92.8999C152.264 93.4399 151.863 94.0501 151.56 94.7099C151.485 95.0377 151.451 95.3737 151.46 95.7099C151.459 96.0206 151.499 96.3299 151.58 96.6299C151.171 96.6731 150.759 96.6731 150.35 96.6299C149.96 96.5699 149.48 95.7899 149.35 95.5499C149.286 95.4211 149.154 95.3396 149.01 95.3396C148.866 95.3396 148.734 95.4211 148.67 95.5499C148.45 95.9299 147.96 96.6199 147.62 96.6599C146.95 96.7399 145.57 96.6599 144.48 96.6599C144.48 96.6599 144.66 95.6599 144.25 95.2999C143.84 94.9399 143.42 94.5199 143.11 94.2399L142.27 93.2799Z" stroke="#202125" stroke-width="0.75" stroke-linecap="round" stroke-linejoin="round"/>
<path d="M150.75 93.8258V90.374C150.75 90.1674 150.582 89.9999 150.375 89.9999C150.168 89.9999 150 90.1674 150 90.374V93.8258C150 94.0324 150.168 94.1999 150.375 94.1999C150.582 94.1999 150.75 94.0324 150.75 93.8258Z" fill="#202125"/>
<path d="M148.77 93.8245L148.75 90.3709C148.749 90.1648 148.58 89.9987 148.373 89.9999C148.166 90.0011 147.999 90.1691 148 90.3753L148.02 93.8288C148.021 94.0349 148.19 94.2011 148.397 94.1999C148.604 94.1987 148.771 94.0306 148.77 93.8245Z" fill="#202125"/>
<path d="M146 90.3789L146.02 93.8253C146.021 94.0334 146.19 94.2011 146.397 94.1999C146.604 94.1987 146.771 94.029 146.77 93.8209L146.75 90.3745C146.749 90.1664 146.58 89.9987 146.373 89.9999C146.166 90.0011 145.999 90.1708 146 90.3789Z" fill="#202125"/>
</g>
<defs>
<filter id="filter0_d_385_67478" x="10" y="47" width="187" height="71" filterUnits="userSpaceOnUse" color-interpolation-filters="sRGB">
<feFlood flood-opacity="0" result="BackgroundImageFix"/>
<feColorMatrix in="SourceAlpha" type="matrix" values="0 0 0 0 0 0 0 0 0 0 0 0 0 0 0 0 0 0 127 0" result="hardAlpha"/>
<feOffset dy="4"/>
<feGaussianBlur stdDeviation="4.5"/>
<feColorMatrix type="matrix" values="0 0 0 0 0.160784 0 0 0 0 0.160784 0 0 0 0 0.160784 0 0 0 0.15 0"/>
<feBlend mode="normal" in2="BackgroundImageFix" result="effect1_dropShadow_385_67478"/>
<feBlend mode="normal" in="SourceGraphic" in2="effect1_dropShadow_385_67478" result="shape"/>
</filter>
<filter id="filter1_d_385_67478" x="138.191" y="81.0117" width="16.7461" height="17.8588" filterUnits="userSpaceOnUse" color-interpolation-filters="sRGB">
<feFlood flood-opacity="0" result="BackgroundImageFix"/>
<feColorMatrix in="SourceAlpha" type="matrix" values="0 0 0 0 0 0 0 0 0 0 0 0 0 0 0 0 0 0 127 0" result="hardAlpha"/>
<feOffset dy="1"/>
<feGaussianBlur stdDeviation="0.4"/>
<feColorMatrix type="matrix" values="0 0 0 0 0 0 0 0 0 0 0 0 0 0 0 0 0 0 0.5 0"/>
<feBlend mode="normal" in2="BackgroundImageFix" result="effect1_dropShadow_385_67478"/>
<feBlend mode="normal" in="SourceGraphic" in2="effect1_dropShadow_385_67478" result="shape"/>
</filter>
<clipPath id="clip0_385_67478">
<rect width="21" height="21" fill="white" transform="translate(151 23)"/>
</clipPath>
</defs>
</svg>
