<svg width="850" height="139" viewBox="0 0 850 139" fill="none" xmlns="http://www.w3.org/2000/svg">
<rect width="850" height="139" fill="white"/>
<path d="M25 69C25 67.8954 25.8954 67 27 67H712C713.105 67 714 67.8954 714 69C714 70.1046 713.105 71 712 71H27C25.8954 71 25 70.1046 25 69Z" fill="#C7C7C7"/>
<path d="M22.8265 69C22.8265 67.8954 23.722 67 24.8265 67H370.209C371.314 67 372.209 67.8954 372.209 69C372.209 70.1046 371.314 71 370.209 71H24.8265C23.722 71 22.8265 70.1046 22.8265 69Z" fill="#C7C7C7"/>
<path d="M21.4038 100.132C20.7638 100.132 20.1958 99.948 19.6998 99.58C19.2118 99.212 18.8278 98.704 18.5478 98.056C18.2678 97.4 18.1278 96.648 18.1278 95.8C18.1278 94.944 18.2678 94.192 18.5478 93.544C18.8278 92.896 19.2118 92.388 19.6998 92.02C20.1958 91.652 20.7638 91.468 21.4038 91.468C22.0438 91.468 22.6078 91.652 23.0958 92.02C23.5918 92.388 23.9798 92.896 24.2598 93.544C24.5398 94.192 24.6798 94.944 24.6798 95.8C24.6798 96.648 24.5398 97.4 24.2598 98.056C23.9798 98.704 23.5918 99.212 23.0958 99.58C22.6078 99.948 22.0438 100.132 21.4038 100.132ZM21.4038 99.352C21.8918 99.352 22.3118 99.208 22.6638 98.92C23.0238 98.624 23.3038 98.212 23.5038 97.684C23.7038 97.148 23.8038 96.52 23.8038 95.8C23.8038 95.08 23.7038 94.456 23.5038 93.928C23.3038 93.392 23.0238 92.98 22.6638 92.692C22.3118 92.396 21.8918 92.248 21.4038 92.248C20.9238 92.248 20.5038 92.396 20.1438 92.692C19.7838 92.98 19.5038 93.392 19.3038 93.928C19.1038 94.456 19.0038 95.08 19.0038 95.8C19.0038 96.52 19.1038 97.148 19.3038 97.684C19.5038 98.212 19.7838 98.624 20.1438 98.92C20.5038 99.208 20.9238 99.352 21.4038 99.352Z" fill="#151515"/>
<path d="M20.4047 67H22.4047V71H20.4047V67Z" fill="white"/>
<path d="M107.429 67H109.429V71H107.429V67Z" fill="white"/>
<path d="M194.452 67H196.452V71H194.452V67Z" fill="white"/>
<path d="M281.476 67H283.476V71H281.476V67Z" fill="white"/>
<path d="M368.5 67H370.5V71H368.5V67Z" fill="#1F1F1F"/>
<path d="M455.524 67H457.524V71H455.524V67Z" fill="#1F1F1F"/>
<path d="M542.548 67H544.548V71H542.548V67Z" fill="#1F1F1F"/>
<path d="M629.572 67H631.572V71H629.572V67Z" fill="#1F1F1F"/>
<path d="M713.692 100.132C713.116 100.132 712.604 100.028 712.156 99.82C711.708 99.612 711.352 99.328 711.088 98.968C710.832 98.6 710.704 98.188 710.704 97.732C710.704 97.388 710.788 97.072 710.956 96.784C711.124 96.488 711.356 96.236 711.652 96.028C711.956 95.812 712.3 95.66 712.684 95.572C712.196 95.436 711.796 95.192 711.484 94.84C711.18 94.488 711.028 94.092 711.028 93.652C711.028 93.236 711.144 92.864 711.376 92.536C711.608 92.208 711.924 91.948 712.324 91.756C712.732 91.564 713.188 91.468 713.692 91.468C714.204 91.468 714.66 91.564 715.06 91.756C715.46 91.948 715.776 92.208 716.008 92.536C716.24 92.864 716.356 93.236 716.356 93.652C716.356 94.092 716.204 94.488 715.9 94.84C715.596 95.192 715.196 95.436 714.7 95.572C715.284 95.708 715.76 95.976 716.128 96.376C716.496 96.768 716.68 97.22 716.68 97.732C716.68 98.188 716.552 98.6 716.296 98.968C716.04 99.328 715.684 99.612 715.228 99.82C714.78 100.028 714.268 100.132 713.692 100.132ZM713.692 95.212C714.036 95.212 714.344 95.144 714.616 95.008C714.896 94.872 715.116 94.692 715.276 94.468C715.436 94.236 715.516 93.976 715.516 93.688C715.516 93.4 715.436 93.14 715.276 92.908C715.116 92.676 714.896 92.496 714.616 92.368C714.344 92.232 714.036 92.164 713.692 92.164C713.348 92.164 713.036 92.232 712.756 92.368C712.484 92.496 712.268 92.676 712.108 92.908C711.948 93.14 711.868 93.4 711.868 93.688C711.868 93.976 711.948 94.236 712.108 94.468C712.268 94.692 712.484 94.872 712.756 95.008C713.036 95.144 713.348 95.212 713.692 95.212ZM713.692 99.436C714.1 99.436 714.464 99.36 714.784 99.208C715.104 99.056 715.356 98.848 715.54 98.584C715.732 98.32 715.828 98.024 715.828 97.696C715.828 97.368 715.732 97.072 715.54 96.808C715.356 96.544 715.104 96.336 714.784 96.184C714.464 96.032 714.1 95.956 713.692 95.956C713.284 95.956 712.92 96.032 712.6 96.184C712.28 96.336 712.024 96.544 711.832 96.808C711.648 97.072 711.556 97.368 711.556 97.696C711.556 98.024 711.648 98.32 711.832 98.584C712.024 98.848 712.28 99.056 712.6 99.208C712.92 99.36 713.284 99.436 713.692 99.436ZM721.221 100.132C720.581 100.132 720.013 99.948 719.517 99.58C719.029 99.212 718.645 98.704 718.365 98.056C718.085 97.4 717.945 96.648 717.945 95.8C717.945 94.944 718.085 94.192 718.365 93.544C718.645 92.896 719.029 92.388 719.517 92.02C720.013 91.652 720.581 91.468 721.221 91.468C721.861 91.468 722.425 91.652 722.913 92.02C723.409 92.388 723.797 92.896 724.077 93.544C724.357 94.192 724.497 94.944 724.497 95.8C724.497 96.648 724.357 97.4 724.077 98.056C723.797 98.704 723.409 99.212 722.913 99.58C722.425 99.948 721.861 100.132 721.221 100.132ZM721.221 99.352C721.709 99.352 722.129 99.208 722.481 98.92C722.841 98.624 723.121 98.212 723.321 97.684C723.521 97.148 723.621 96.52 723.621 95.8C723.621 95.08 723.521 94.456 723.321 93.928C723.121 93.392 722.841 92.98 722.481 92.692C722.129 92.396 721.709 92.248 721.221 92.248C720.741 92.248 720.321 92.396 719.961 92.692C719.601 92.98 719.321 93.392 719.121 93.928C718.921 94.456 718.821 95.08 718.821 95.8C718.821 96.52 718.921 97.148 719.121 97.684C719.321 98.212 719.601 98.624 719.961 98.92C720.321 99.208 720.741 99.352 721.221 99.352Z" fill="#151515"/>
<path d="M716.595 67H718.595V71H716.595V67Z" fill="#1F1F1F"/>
<circle cx="370" cy="68" r="8" fill="#C7C7C7"/>
<path d="M730 57C730 53.6863 732.686 51 736 51H774C777.314 51 780 53.6863 780 57V82C780 85.3137 777.314 88 774 88H736C732.686 88 730 85.3137 730 82V57Z" fill="#C7C7C7"/>
<path d="M751.838 74V71.382H746.546V70.584L751.754 64.2H752.832V70.5H754.19V71.382H752.832V74H751.838ZM747.722 70.5H751.838V65.418L747.722 70.5ZM759.274 74.154C758.528 74.154 757.865 73.9393 757.286 73.51C756.717 73.0807 756.269 72.488 755.942 71.732C755.616 70.9667 755.452 70.0893 755.452 69.1C755.452 68.1013 755.616 67.224 755.942 66.468C756.269 65.712 756.717 65.1193 757.286 64.69C757.865 64.2607 758.528 64.046 759.274 64.046C760.021 64.046 760.679 64.2607 761.248 64.69C761.827 65.1193 762.28 65.712 762.606 66.468C762.933 67.224 763.096 68.1013 763.096 69.1C763.096 70.0893 762.933 70.9667 762.606 71.732C762.28 72.488 761.827 73.0807 761.248 73.51C760.679 73.9393 760.021 74.154 759.274 74.154ZM759.274 73.244C759.844 73.244 760.334 73.076 760.744 72.74C761.164 72.3947 761.491 71.914 761.724 71.298C761.958 70.6727 762.074 69.94 762.074 69.1C762.074 68.26 761.958 67.532 761.724 66.916C761.491 66.2907 761.164 65.81 760.744 65.474C760.334 65.1287 759.844 64.956 759.274 64.956C758.714 64.956 758.224 65.1287 757.804 65.474C757.384 65.81 757.058 66.2907 756.824 66.916C756.591 67.532 756.474 68.26 756.474 69.1C756.474 69.94 756.591 70.6727 756.824 71.298C757.058 71.914 757.384 72.3947 757.804 72.74C758.224 73.076 758.714 73.244 759.274 73.244Z" fill="#4D4D4D"/>
<path d="M806.792 62.5C809.083 62.5002 810.948 64.365 810.948 66.6562V68.625H811.604C812.329 68.6252 812.917 69.213 812.917 69.9375V75.1875C812.917 75.912 812.329 76.4998 811.604 76.5H801.979C801.255 76.5 800.667 75.9121 800.667 75.1875V69.9375C800.667 69.2129 801.255 68.625 801.979 68.625H802.636V66.6562C802.636 64.3649 804.501 62.5 806.792 62.5ZM806.792 64.6875C805.706 64.6875 804.823 65.5707 804.823 66.6562V68.625H808.761V66.6562C808.761 65.5708 807.877 64.6877 806.792 64.6875Z" fill="#1F1F1F"/>
</svg>
