<?xml version="1.0" encoding="utf-8"?>
<!-- Generator: Adobe Illustrator 16.0.4, SVG Export Plug-In . SVG Version: 6.00 Build 0)  -->
<!DOCTYPE svg PUBLIC "-//W3C//DTD SVG 1.1//EN" "http://www.w3.org/Graphics/SVG/1.1/DTD/svg11.dtd">
<svg version="1.1" id="Layer_1" xmlns="http://www.w3.org/2000/svg" xmlns:xlink="http://www.w3.org/1999/xlink" x="0px" y="0px"
	 width="185px" height="185px" viewBox="0 0 185 185" enable-background="new 0 0 185 185" xml:space="preserve">
<g>
	<linearGradient id="SVGID_1_" gradientUnits="userSpaceOnUse" x1="92.5" y1="10.5781" x2="92.5" y2="180.5047">
		<stop  offset="0" style="stop-color:#54EEFF"/>
		<stop  offset="1" style="stop-color:#1C75BC"/>
	</linearGradient>
	<path fill="url(#SVGID_1_)" d="M92.71,5.434l0.017-0.161l-0.079,0.099l-0.032-0.031l0.028-0.256L92.5,5.226l-0.146-0.141
		l0.027,0.256l-0.03,0.031l-0.079-0.099l0.017,0.161L0,95.647l36.55,51.778l28.233-6.483L92.5,179.915l27.717-38.972l28.233,6.483
		l22.64-32.073L185,95.647L92.71,5.434z M89.697,16.025L77.091,134.156l-24.634-33.6L89.697,16.025z M51.248,98.91L35.745,77.764
		l53.819-65.826L51.248,98.91z M76.559,136.423l-11.02,2.529l-18.523-26.043l4.617-10.481L76.559,136.423z M92.209,10.323
		L92.5,9.663l0.291,0.657l13.035,127.008l-0.04-0.027l-12.771,18.874l-13.819-18.9l-0.017,0.012L92.209,10.323z M107.909,134.157
		L95.303,16.021l37.24,84.535L107.909,134.157z M133.368,102.428l4.618,10.481l-18.524,26.043l-11.02-2.529L133.368,102.428z
		 M95.437,11.94l53.819,65.824L133.753,98.91L95.437,11.94z M37.312,145.435L2.316,95.859l81.43-79.601l-50.24,61.447l16.918,23.073
		l-5.435,12.336l18.681,26.267L37.312,145.435z M92.5,176.862l-25.852-36.349l11.05-2.537l0.187,0.255l-0.119,0.087l15.303,20.929
		l14.183-20.954l-0.122-0.083l0.172-0.235l11.05,2.537L92.5,176.862z M169.646,114.333l-21.958,31.102l-26.359-6.053l18.681-26.267
		l-5.434-12.336l16.918-23.073l-50.24-61.445l81.429,79.599L169.646,114.333z"/>
</g>
</svg>
