<svg width="430" height="85" viewBox="0 0 430 85" fill="none" xmlns="http://www.w3.org/2000/svg">
<rect width="430" height="85" fill="white"/>
<path d="M41.008 37V28.6H44.764C45.332 28.6 45.824 28.712 46.24 28.936C46.664 29.152 46.992 29.456 47.224 29.848C47.456 30.24 47.572 30.696 47.572 31.216C47.572 31.712 47.456 32.156 47.224 32.548C46.992 32.94 46.664 33.248 46.24 33.472C45.824 33.688 45.332 33.796 44.764 33.796H42.448V37H41.008ZM42.448 32.62H44.536C45.048 32.62 45.44 32.492 45.712 32.236C45.984 31.972 46.12 31.628 46.12 31.204C46.12 30.788 45.984 30.452 45.712 30.196C45.44 29.94 45.052 29.812 44.548 29.812H42.448V32.62ZM48.9845 37V28.396L50.3405 28.156V31.972C50.5725 31.612 50.8485 31.344 51.1685 31.168C51.4885 30.984 51.8445 30.892 52.2365 30.892C52.6525 30.892 53.0165 30.984 53.3285 31.168C53.6405 31.344 53.8845 31.592 54.0605 31.912C54.2445 32.232 54.3365 32.608 54.3365 33.04V37H52.9685V33.424C52.9685 32.984 52.8485 32.636 52.6085 32.38C52.3685 32.116 52.0485 31.984 51.6485 31.984C51.3765 31.984 51.1285 32.048 50.9045 32.176C50.6885 32.296 50.5005 32.476 50.3405 32.716V37H48.9845ZM58.7169 37.108C58.1489 37.108 57.6329 36.972 57.1689 36.7C56.7129 36.428 56.3529 36.06 56.0889 35.596C55.8249 35.124 55.6929 34.592 55.6929 34C55.6929 33.408 55.8249 32.88 56.0889 32.416C56.3529 31.944 56.7129 31.572 57.1689 31.3C57.6249 31.028 58.1409 30.892 58.7169 30.892C59.2929 30.892 59.8049 31.028 60.2529 31.3C60.7089 31.572 61.0689 31.944 61.3329 32.416C61.5969 32.88 61.7289 33.408 61.7289 34C61.7289 34.592 61.5969 35.124 61.3329 35.596C61.0689 36.06 60.7089 36.428 60.2529 36.7C59.8049 36.972 59.2929 37.108 58.7169 37.108ZM58.7169 35.956C59.0449 35.956 59.3329 35.872 59.5809 35.704C59.8369 35.536 60.0369 35.304 60.1809 35.008C60.3249 34.704 60.3969 34.368 60.3969 34C60.3969 33.624 60.3249 33.292 60.1809 33.004C60.0369 32.708 59.8369 32.476 59.5809 32.308C59.3329 32.132 59.0449 32.044 58.7169 32.044C58.3889 32.044 58.0969 32.132 57.8409 32.308C57.5849 32.476 57.3849 32.708 57.2409 33.004C57.0969 33.292 57.0249 33.624 57.0249 34C57.0249 34.376 57.0969 34.712 57.2409 35.008C57.3849 35.304 57.5849 35.536 57.8409 35.704C58.0969 35.872 58.3889 35.956 58.7169 35.956ZM63.1291 37V30.988H64.4851V31.972C64.7171 31.612 64.9931 31.344 65.3131 31.168C65.6331 30.984 65.9891 30.892 66.3811 30.892C66.7971 30.892 67.1611 30.984 67.4731 31.168C67.7851 31.344 68.0291 31.592 68.2051 31.912C68.3891 32.232 68.4811 32.608 68.4811 33.04V37H67.1131V33.424C67.1131 32.984 66.9931 32.636 66.7531 32.38C66.5131 32.116 66.1931 31.984 65.7931 31.984C65.5211 31.984 65.2731 32.048 65.0491 32.176C64.8331 32.296 64.6451 32.476 64.4851 32.716V37H63.1291ZM72.9094 37.12C72.3334 37.12 71.8134 36.984 71.3494 36.712C70.8854 36.432 70.5174 36.06 70.2454 35.596C69.9734 35.124 69.8374 34.592 69.8374 34C69.8374 33.408 69.9654 32.88 70.2214 32.416C70.4774 31.952 70.8254 31.584 71.2654 31.312C71.7134 31.032 72.2094 30.892 72.7534 30.892C73.3134 30.892 73.8054 31.028 74.2294 31.3C74.6614 31.572 74.9974 31.94 75.2374 32.404C75.4854 32.868 75.6094 33.4 75.6094 34V34.324H71.1694C71.2174 34.652 71.3214 34.944 71.4814 35.2C71.6494 35.448 71.8614 35.644 72.1174 35.788C72.3814 35.932 72.6654 36.004 72.9694 36.004C73.2494 36.004 73.5134 35.956 73.7614 35.86C74.0174 35.756 74.2294 35.616 74.3974 35.44L75.2854 36.244C74.9174 36.548 74.5414 36.772 74.1574 36.916C73.7814 37.052 73.3654 37.12 72.9094 37.12ZM71.1814 33.484H74.3254C74.2774 33.196 74.1774 32.94 74.0254 32.716C73.8814 32.492 73.6974 32.316 73.4734 32.188C73.2574 32.06 73.0174 31.996 72.7534 31.996C72.4894 31.996 72.2454 32.06 72.0214 32.188C71.8054 32.308 71.6254 32.48 71.4814 32.704C71.3374 32.928 71.2374 33.188 71.1814 33.484ZM79.6877 37V30.988H81.0437V31.972C81.2757 31.612 81.5517 31.344 81.8717 31.168C82.1917 30.984 82.5477 30.892 82.9397 30.892C83.3557 30.892 83.7197 30.984 84.0317 31.168C84.3437 31.344 84.5877 31.592 84.7637 31.912C84.9477 32.232 85.0397 32.608 85.0397 33.04V37H83.6717V33.424C83.6717 32.984 83.5517 32.636 83.3117 32.38C83.0717 32.116 82.7517 31.984 82.3517 31.984C82.0797 31.984 81.8317 32.048 81.6077 32.176C81.3917 32.296 81.2037 32.476 81.0437 32.716V37H79.6877ZM88.6654 37.096C88.2494 37.096 87.8854 37.004 87.5734 36.82C87.2614 36.636 87.0134 36.384 86.8294 36.064C86.6534 35.744 86.5654 35.372 86.5654 34.948V30.988H87.9334V34.552C87.9334 35 88.0494 35.356 88.2814 35.62C88.5214 35.876 88.8454 36.004 89.2534 36.004C89.5254 36.004 89.7694 35.944 89.9854 35.824C90.2094 35.704 90.4014 35.524 90.5614 35.284V30.988H91.9174V37H90.5614V36.028C90.3294 36.38 90.0534 36.648 89.7334 36.832C89.4134 37.008 89.0574 37.096 88.6654 37.096ZM93.5978 37V30.988H94.9538V31.936C95.1778 31.592 95.4378 31.332 95.7338 31.156C96.0378 30.98 96.3698 30.892 96.7298 30.892C97.1458 30.892 97.5058 30.996 97.8098 31.204C98.1218 31.412 98.3538 31.692 98.5058 32.044C98.7458 31.668 99.0298 31.384 99.3578 31.192C99.6938 30.992 100.074 30.892 100.498 30.892C100.882 30.892 101.222 30.984 101.518 31.168C101.822 31.352 102.054 31.608 102.214 31.936C102.382 32.264 102.466 32.64 102.466 33.064V37H101.11V33.364C101.11 32.94 101.002 32.604 100.786 32.356C100.57 32.108 100.274 31.984 99.8978 31.984C99.6578 31.984 99.4338 32.044 99.2258 32.164C99.0258 32.284 98.8498 32.464 98.6978 32.704C98.7058 32.76 98.7098 32.82 98.7098 32.884C98.7178 32.94 98.7218 33 98.7218 33.064V37H97.3538V33.364C97.3538 32.94 97.2458 32.604 97.0298 32.356C96.8138 32.108 96.5178 31.984 96.1418 31.984C95.6538 31.984 95.2578 32.216 94.9538 32.68V37H93.5978ZM104.11 37V28.432L105.466 28.204V31.792C105.682 31.52 105.946 31.312 106.258 31.168C106.578 31.016 106.93 30.94 107.314 30.94C107.826 30.94 108.286 31.076 108.694 31.348C109.102 31.62 109.426 31.988 109.666 32.452C109.906 32.916 110.026 33.432 110.026 34C110.026 34.568 109.902 35.084 109.654 35.548C109.406 36.012 109.07 36.38 108.646 36.652C108.222 36.924 107.75 37.06 107.23 37.06C106.87 37.06 106.538 36.988 106.234 36.844C105.93 36.7 105.666 36.496 105.442 36.232V37H104.11ZM106.906 35.932C107.25 35.932 107.554 35.848 107.818 35.68C108.09 35.512 108.302 35.284 108.454 34.996C108.614 34.7 108.694 34.368 108.694 34C108.694 33.632 108.614 33.304 108.454 33.016C108.302 32.728 108.09 32.5 107.818 32.332C107.554 32.164 107.25 32.08 106.906 32.08C106.61 32.08 106.338 32.14 106.09 32.26C105.842 32.372 105.634 32.536 105.466 32.752V35.26C105.642 35.468 105.854 35.632 106.102 35.752C106.35 35.872 106.618 35.932 106.906 35.932ZM114.241 37.12C113.665 37.12 113.145 36.984 112.681 36.712C112.217 36.432 111.849 36.06 111.577 35.596C111.305 35.124 111.169 34.592 111.169 34C111.169 33.408 111.297 32.88 111.553 32.416C111.809 31.952 112.157 31.584 112.597 31.312C113.045 31.032 113.541 30.892 114.085 30.892C114.645 30.892 115.137 31.028 115.561 31.3C115.993 31.572 116.329 31.94 116.569 32.404C116.817 32.868 116.941 33.4 116.941 34V34.324H112.501C112.549 34.652 112.653 34.944 112.813 35.2C112.981 35.448 113.193 35.644 113.449 35.788C113.713 35.932 113.997 36.004 114.301 36.004C114.581 36.004 114.845 35.956 115.093 35.86C115.349 35.756 115.561 35.616 115.729 35.44L116.617 36.244C116.249 36.548 115.873 36.772 115.489 36.916C115.113 37.052 114.697 37.12 114.241 37.12ZM112.513 33.484H115.657C115.609 33.196 115.509 32.94 115.357 32.716C115.213 32.492 115.029 32.316 114.805 32.188C114.589 32.06 114.349 31.996 114.085 31.996C113.821 31.996 113.577 32.06 113.353 32.188C113.137 32.308 112.957 32.48 112.813 32.704C112.669 32.928 112.569 33.188 112.513 33.484ZM118.324 37V30.988H119.68V32.284C119.856 31.828 120.084 31.48 120.364 31.24C120.644 31 120.968 30.88 121.336 30.88C121.448 30.888 121.548 30.9 121.636 30.916C121.724 30.924 121.82 30.952 121.924 31V32.188C121.82 32.14 121.7 32.104 121.564 32.08C121.436 32.056 121.308 32.044 121.18 32.044C120.852 32.044 120.556 32.132 120.292 32.308C120.036 32.484 119.832 32.728 119.68 33.04V37H118.324Z" fill="#151515"/>
<mask id="path-2-inside-1_1363_72368" fill="white">
<path d="M139 30C139 26.6863 141.686 24 145 24H384C387.314 24 390 26.6863 390 30V55C390 58.3137 387.314 61 384 61H145C141.686 61 139 58.3137 139 55V30Z"/>
</mask>
<path d="M139 30C139 26.6863 141.686 24 145 24H384C387.314 24 390 26.6863 390 30V55C390 58.3137 387.314 61 384 61H145C141.686 61 139 58.3137 139 55V30Z" fill="white"/>
<path d="M145 24V25H384V24V23H145V24ZM390 30H389V55H390H391V30H390ZM384 61V60H145V61V62H384V61ZM139 55H140V30H139H138V55H139ZM145 61V60C142.239 60 140 57.7614 140 55H139H138C138 58.866 141.134 62 145 62V61ZM390 55H389C389 57.7614 386.761 60 384 60V61V62C387.866 62 391 58.866 391 55H390ZM384 24V25C386.761 25 389 27.2386 389 30H390H391C391 26.134 387.866 23 384 23V24ZM145 24V23C141.134 23 138 26.134 138 30H139H140C140 27.2386 142.239 25 145 25V24Z" fill="#C7C7C7" mask="url(#path-2-inside-1_1363_72368)"/>
<path d="M156.246 47V37.2H162.938V38.152H157.324V41.582H161.216V42.52H157.324V46.048H162.994V47H156.246ZM163.85 47L166.468 43.458L164.004 40.168H165.222L167.112 42.772L168.988 40.168H170.15L167.672 43.486L170.304 47H169.086L167.042 44.214L165.012 47H163.85ZM173.449 47.126C172.964 47.126 172.534 47.0373 172.161 46.86C171.788 46.6827 171.494 46.44 171.279 46.132C171.074 45.8147 170.971 45.4507 170.971 45.04C170.971 44.6293 171.078 44.2747 171.293 43.976C171.508 43.668 171.806 43.43 172.189 43.262C172.572 43.094 173.02 43.01 173.533 43.01C173.925 43.01 174.294 43.052 174.639 43.136C174.994 43.22 175.32 43.3553 175.619 43.542V42.604C175.619 42.044 175.47 41.624 175.171 41.344C174.872 41.0547 174.434 40.91 173.855 40.91C173.538 40.91 173.211 40.9567 172.875 41.05C172.548 41.1433 172.184 41.2927 171.783 41.498L171.405 40.714C172.32 40.2753 173.178 40.056 173.981 40.056C174.83 40.056 175.484 40.266 175.941 40.686C176.398 41.0967 176.627 41.6893 176.627 42.464V47H175.619V46.202C175.32 46.51 174.989 46.7433 174.625 46.902C174.261 47.0513 173.869 47.126 173.449 47.126ZM171.951 45.012C171.951 45.4133 172.105 45.7353 172.413 45.978C172.73 46.2207 173.146 46.342 173.659 46.342C174.042 46.342 174.392 46.2767 174.709 46.146C175.036 46.0153 175.339 45.8193 175.619 45.558V44.242C175.33 44.074 175.031 43.9527 174.723 43.878C174.415 43.794 174.07 43.752 173.687 43.752C173.164 43.752 172.744 43.8687 172.427 44.102C172.11 44.326 171.951 44.6293 171.951 45.012ZM178.704 47V40.168H179.726V41.232C179.988 40.84 180.286 40.546 180.622 40.35C180.958 40.154 181.336 40.056 181.756 40.056C182.242 40.056 182.666 40.1773 183.03 40.42C183.394 40.6533 183.67 40.9753 183.856 41.386C184.127 40.9473 184.449 40.616 184.822 40.392C185.205 40.168 185.644 40.056 186.138 40.056C186.596 40.056 186.997 40.1633 187.342 40.378C187.697 40.5927 187.972 40.8913 188.168 41.274C188.364 41.6473 188.462 42.086 188.462 42.59V47H187.44V42.842C187.44 42.2447 187.291 41.7733 186.992 41.428C186.694 41.0827 186.283 40.91 185.76 40.91C185.406 40.91 185.084 40.9987 184.794 41.176C184.514 41.3533 184.267 41.624 184.052 41.988C184.071 42.0813 184.085 42.1793 184.094 42.282C184.104 42.3847 184.108 42.4873 184.108 42.59V47H183.086V42.842C183.086 42.2447 182.932 41.7733 182.624 41.428C182.326 41.0827 181.915 40.91 181.392 40.91C180.692 40.91 180.137 41.246 179.726 41.918V47H178.704ZM190.53 49.926V40.168H191.538V41.148C191.8 40.8027 192.117 40.5413 192.49 40.364C192.873 40.1773 193.293 40.084 193.75 40.084C194.348 40.084 194.88 40.2427 195.346 40.56C195.822 40.868 196.2 41.288 196.48 41.82C196.76 42.3427 196.9 42.9307 196.9 43.584C196.9 44.2373 196.756 44.83 196.466 45.362C196.186 45.894 195.804 46.3187 195.318 46.636C194.842 46.944 194.301 47.098 193.694 47.098C193.265 47.098 192.868 47.0187 192.504 46.86C192.14 46.692 191.823 46.454 191.552 46.146V49.926H190.53ZM193.498 46.216C193.956 46.216 194.362 46.104 194.716 45.88C195.08 45.6467 195.365 45.334 195.57 44.942C195.785 44.5407 195.892 44.0927 195.892 43.598C195.892 43.094 195.785 42.646 195.57 42.254C195.365 41.862 195.08 41.554 194.716 41.33C194.362 41.0967 193.956 40.98 193.498 40.98C193.097 40.98 192.724 41.064 192.378 41.232C192.042 41.3907 191.767 41.6193 191.552 41.918V45.264C191.776 45.5627 192.056 45.796 192.392 45.964C192.738 46.132 193.106 46.216 193.498 46.216ZM198.693 47V36.892L199.715 36.682V47H198.693ZM204.89 47.14C204.255 47.14 203.681 46.986 203.168 46.678C202.654 46.3607 202.248 45.936 201.95 45.404C201.651 44.8627 201.502 44.256 201.502 43.584C201.502 42.912 201.642 42.31 201.922 41.778C202.211 41.246 202.598 40.826 203.084 40.518C203.569 40.21 204.11 40.056 204.708 40.056C205.314 40.056 205.851 40.21 206.318 40.518C206.794 40.8167 207.167 41.2273 207.438 41.75C207.718 42.2633 207.858 42.8467 207.858 43.5V43.808H202.496C202.533 44.2747 202.659 44.6947 202.874 45.068C203.098 45.432 203.387 45.7213 203.742 45.936C204.106 46.1413 204.502 46.244 204.932 46.244C205.286 46.244 205.627 46.1833 205.954 46.062C206.29 45.9313 206.574 45.7587 206.808 45.544L207.452 46.23C207.06 46.538 206.654 46.7667 206.234 46.916C205.814 47.0653 205.366 47.14 204.89 47.14ZM202.524 43.08H206.85C206.803 42.6693 206.677 42.3053 206.472 41.988C206.276 41.6613 206.024 41.4047 205.716 41.218C205.417 41.0313 205.081 40.938 204.708 40.938C204.334 40.938 203.994 41.0313 203.686 41.218C203.378 41.3953 203.121 41.6473 202.916 41.974C202.72 42.2913 202.589 42.66 202.524 43.08ZM208.897 49.198L209.737 45.964H210.829L209.695 49.198H208.897ZM219.333 50.066C218.624 49.618 218.022 49.0673 217.527 48.414C217.032 47.77 216.654 47.0373 216.393 46.216C216.141 45.3947 216.015 44.508 216.015 43.556C216.015 42.5947 216.141 41.7033 216.393 40.882C216.654 40.0607 217.032 39.328 217.527 38.684C218.022 38.0307 218.624 37.48 219.333 37.032L219.865 37.746C218.95 38.3153 218.241 39.104 217.737 40.112C217.242 41.12 216.995 42.268 216.995 43.556C216.995 44.844 217.242 45.992 217.737 47C218.241 48.008 218.95 48.7967 219.865 49.366L219.333 50.066ZM224.434 47.154C223.146 47.154 222.035 46.7107 221.102 45.824L221.732 45.138C222.161 45.5393 222.586 45.8333 223.006 46.02C223.435 46.1973 223.916 46.286 224.448 46.286C224.924 46.286 225.344 46.188 225.708 45.992C226.072 45.796 226.352 45.5207 226.548 45.166C226.753 44.8113 226.856 44.4053 226.856 43.948C226.856 43.2947 226.632 42.7673 226.184 42.366C225.745 41.9647 225.167 41.764 224.448 41.764C224.075 41.764 223.711 41.8107 223.356 41.904C223.001 41.988 222.633 42.128 222.25 42.324L221.55 42.1L221.774 37.2H227.346V38.082H222.642L222.488 41.47C222.861 41.2833 223.221 41.1527 223.566 41.078C223.911 40.994 224.275 40.952 224.658 40.952C225.302 40.952 225.862 41.078 226.338 41.33C226.823 41.5727 227.197 41.918 227.458 42.366C227.729 42.8047 227.864 43.318 227.864 43.906C227.864 44.55 227.719 45.1147 227.43 45.6C227.141 46.0853 226.739 46.468 226.226 46.748C225.713 47.0187 225.115 47.154 224.434 47.154ZM232.213 47.154C230.925 47.154 229.815 46.7107 228.881 45.824L229.511 45.138C229.941 45.5393 230.365 45.8333 230.785 46.02C231.215 46.1973 231.695 46.286 232.227 46.286C232.703 46.286 233.123 46.188 233.487 45.992C233.851 45.796 234.131 45.5207 234.327 45.166C234.533 44.8113 234.635 44.4053 234.635 43.948C234.635 43.2947 234.411 42.7673 233.963 42.366C233.525 41.9647 232.946 41.764 232.227 41.764C231.854 41.764 231.49 41.8107 231.135 41.904C230.781 41.988 230.412 42.128 230.029 42.324L229.329 42.1L229.553 37.2H235.125V38.082H230.421L230.267 41.47C230.641 41.2833 231 41.1527 231.345 41.078C231.691 40.994 232.055 40.952 232.437 40.952C233.081 40.952 233.641 41.078 234.117 41.33C234.603 41.5727 234.976 41.918 235.237 42.366C235.508 42.8047 235.643 43.318 235.643 43.906C235.643 44.55 235.499 45.1147 235.209 45.6C234.92 46.0853 234.519 46.468 234.005 46.748C233.492 47.0187 232.895 47.154 232.213 47.154ZM239.993 47.154C238.705 47.154 237.594 46.7107 236.661 45.824L237.291 45.138C237.72 45.5393 238.145 45.8333 238.565 46.02C238.994 46.1973 239.475 46.286 240.007 46.286C240.483 46.286 240.903 46.188 241.267 45.992C241.631 45.796 241.911 45.5207 242.107 45.166C242.312 44.8113 242.415 44.4053 242.415 43.948C242.415 43.2947 242.191 42.7673 241.743 42.366C241.304 41.9647 240.725 41.764 240.007 41.764C239.633 41.764 239.269 41.8107 238.915 41.904C238.56 41.988 238.191 42.128 237.809 42.324L237.109 42.1L237.333 37.2H242.905V38.082H238.201L238.047 41.47C238.42 41.2833 238.779 41.1527 239.125 41.078C239.47 40.994 239.834 40.952 240.217 40.952C240.861 40.952 241.421 41.078 241.897 41.33C242.382 41.5727 242.755 41.918 243.017 42.366C243.287 42.8047 243.423 43.318 243.423 43.906C243.423 44.55 243.278 45.1147 242.989 45.6C242.699 46.0853 242.298 46.468 241.785 46.748C241.271 47.0187 240.674 47.154 239.993 47.154ZM245.373 37.046C246.082 37.494 246.684 38.0447 247.179 38.698C247.674 39.342 248.047 40.0747 248.299 40.896C248.56 41.7173 248.691 42.604 248.691 43.556C248.691 44.5173 248.56 45.4087 248.299 46.23C248.047 47.0513 247.674 47.784 247.179 48.428C246.684 49.0813 246.082 49.632 245.373 50.08L244.841 49.366C245.756 48.7967 246.46 48.008 246.955 47C247.459 45.992 247.711 44.844 247.711 43.556C247.711 42.268 247.459 41.12 246.955 40.112C246.46 39.104 245.756 38.3153 244.841 37.746L245.373 37.046ZM256.864 47.154C255.576 47.154 254.465 46.7107 253.532 45.824L254.162 45.138C254.591 45.5393 255.016 45.8333 255.436 46.02C255.865 46.1973 256.346 46.286 256.878 46.286C257.354 46.286 257.774 46.188 258.138 45.992C258.502 45.796 258.782 45.5207 258.978 45.166C259.183 44.8113 259.286 44.4053 259.286 43.948C259.286 43.2947 259.062 42.7673 258.614 42.366C258.175 41.9647 257.596 41.764 256.878 41.764C256.504 41.764 256.14 41.8107 255.786 41.904C255.431 41.988 255.062 42.128 254.68 42.324L253.98 42.1L254.204 37.2H259.776V38.082H255.072L254.918 41.47C255.291 41.2833 255.65 41.1527 255.996 41.078C256.341 40.994 256.705 40.952 257.088 40.952C257.732 40.952 258.292 41.078 258.768 41.33C259.253 41.5727 259.626 41.918 259.888 42.366C260.158 42.8047 260.294 43.318 260.294 43.906C260.294 44.55 260.149 45.1147 259.86 45.6C259.57 46.0853 259.169 46.468 258.656 46.748C258.142 47.0187 257.545 47.154 256.864 47.154ZM264.643 47.154C263.355 47.154 262.244 46.7107 261.311 45.824L261.941 45.138C262.37 45.5393 262.795 45.8333 263.215 46.02C263.644 46.1973 264.125 46.286 264.657 46.286C265.133 46.286 265.553 46.188 265.917 45.992C266.281 45.796 266.561 45.5207 266.757 45.166C266.962 44.8113 267.065 44.4053 267.065 43.948C267.065 43.2947 266.841 42.7673 266.393 42.366C265.954 41.9647 265.376 41.764 264.657 41.764C264.284 41.764 263.92 41.8107 263.565 41.904C263.21 41.988 262.842 42.128 262.459 42.324L261.759 42.1L261.983 37.2H267.555V38.082H262.851L262.697 41.47C263.07 41.2833 263.43 41.1527 263.775 41.078C264.12 40.994 264.484 40.952 264.867 40.952C265.511 40.952 266.071 41.078 266.547 41.33C267.032 41.5727 267.406 41.918 267.667 42.366C267.938 42.8047 268.073 43.318 268.073 43.906C268.073 44.55 267.928 45.1147 267.639 45.6C267.35 46.0853 266.948 46.468 266.435 46.748C265.922 47.0187 265.324 47.154 264.643 47.154ZM272.422 47.154C271.134 47.154 270.024 46.7107 269.09 45.824L269.72 45.138C270.15 45.5393 270.574 45.8333 270.994 46.02C271.424 46.1973 271.904 46.286 272.436 46.286C272.912 46.286 273.332 46.188 273.696 45.992C274.06 45.796 274.34 45.5207 274.536 45.166C274.742 44.8113 274.844 44.4053 274.844 43.948C274.844 43.2947 274.62 42.7673 274.172 42.366C273.734 41.9647 273.155 41.764 272.436 41.764C272.063 41.764 271.699 41.8107 271.344 41.904C270.99 41.988 270.621 42.128 270.238 42.324L269.538 42.1L269.762 37.2H275.334V38.082H270.63L270.476 41.47C270.85 41.2833 271.209 41.1527 271.554 41.078C271.9 40.994 272.264 40.952 272.646 40.952C273.29 40.952 273.85 41.078 274.326 41.33C274.812 41.5727 275.185 41.918 275.446 42.366C275.717 42.8047 275.852 43.318 275.852 43.906C275.852 44.55 275.708 45.1147 275.418 45.6C275.129 46.0853 274.728 46.468 274.214 46.748C273.701 47.0187 273.104 47.154 272.422 47.154ZM277.411 43.5V42.618H282.073V43.5H277.411ZM286.709 47.154C285.421 47.154 284.311 46.7107 283.377 45.824L284.007 45.138C284.437 45.5393 284.861 45.8333 285.281 46.02C285.711 46.1973 286.191 46.286 286.723 46.286C287.199 46.286 287.619 46.188 287.983 45.992C288.347 45.796 288.627 45.5207 288.823 45.166C289.029 44.8113 289.131 44.4053 289.131 43.948C289.131 43.2947 288.907 42.7673 288.459 42.366C288.021 41.9647 287.442 41.764 286.723 41.764C286.35 41.764 285.986 41.8107 285.631 41.904C285.277 41.988 284.908 42.128 284.525 42.324L283.825 42.1L284.049 37.2H289.621V38.082H284.917L284.763 41.47C285.137 41.2833 285.496 41.1527 285.841 41.078C286.187 40.994 286.551 40.952 286.933 40.952C287.577 40.952 288.137 41.078 288.613 41.33C289.099 41.5727 289.472 41.918 289.733 42.366C290.004 42.8047 290.139 43.318 290.139 43.906C290.139 44.55 289.995 45.1147 289.705 45.6C289.416 46.0853 289.015 46.468 288.501 46.748C287.988 47.0187 287.391 47.154 286.709 47.154ZM294.489 47.154C293.201 47.154 292.09 46.7107 291.157 45.824L291.787 45.138C292.216 45.5393 292.641 45.8333 293.061 46.02C293.49 46.1973 293.971 46.286 294.503 46.286C294.979 46.286 295.399 46.188 295.763 45.992C296.127 45.796 296.407 45.5207 296.603 45.166C296.808 44.8113 296.911 44.4053 296.911 43.948C296.911 43.2947 296.687 42.7673 296.239 42.366C295.8 41.9647 295.221 41.764 294.503 41.764C294.129 41.764 293.765 41.8107 293.411 41.904C293.056 41.988 292.687 42.128 292.305 42.324L291.605 42.1L291.829 37.2H297.401V38.082H292.697L292.543 41.47C292.916 41.2833 293.275 41.1527 293.621 41.078C293.966 40.994 294.33 40.952 294.713 40.952C295.357 40.952 295.917 41.078 296.393 41.33C296.878 41.5727 297.251 41.918 297.513 42.366C297.783 42.8047 297.919 43.318 297.919 43.906C297.919 44.55 297.774 45.1147 297.485 45.6C297.195 46.0853 296.794 46.468 296.281 46.748C295.767 47.0187 295.17 47.154 294.489 47.154ZM302.268 47.154C300.98 47.154 299.869 46.7107 298.936 45.824L299.566 45.138C299.995 45.5393 300.42 45.8333 300.84 46.02C301.269 46.1973 301.75 46.286 302.282 46.286C302.758 46.286 303.178 46.188 303.542 45.992C303.906 45.796 304.186 45.5207 304.382 45.166C304.587 44.8113 304.69 44.4053 304.69 43.948C304.69 43.2947 304.466 42.7673 304.018 42.366C303.579 41.9647 303.001 41.764 302.282 41.764C301.909 41.764 301.545 41.8107 301.19 41.904C300.835 41.988 300.467 42.128 300.084 42.324L299.384 42.1L299.608 37.2H305.18V38.082H300.476L300.322 41.47C300.695 41.2833 301.055 41.1527 301.4 41.078C301.745 40.994 302.109 40.952 302.492 40.952C303.136 40.952 303.696 41.078 304.172 41.33C304.657 41.5727 305.031 41.918 305.292 42.366C305.563 42.8047 305.698 43.318 305.698 43.906C305.698 44.55 305.553 45.1147 305.264 45.6C304.975 46.0853 304.573 46.468 304.06 46.748C303.547 47.0187 302.949 47.154 302.268 47.154ZM310.047 47.154C308.759 47.154 307.649 46.7107 306.715 45.824L307.345 45.138C307.775 45.5393 308.199 45.8333 308.619 46.02C309.049 46.1973 309.529 46.286 310.061 46.286C310.537 46.286 310.957 46.188 311.321 45.992C311.685 45.796 311.965 45.5207 312.161 45.166C312.367 44.8113 312.469 44.4053 312.469 43.948C312.469 43.2947 312.245 42.7673 311.797 42.366C311.359 41.9647 310.78 41.764 310.061 41.764C309.688 41.764 309.324 41.8107 308.969 41.904C308.615 41.988 308.246 42.128 307.863 42.324L307.163 42.1L307.387 37.2H312.959V38.082H308.255L308.101 41.47C308.475 41.2833 308.834 41.1527 309.179 41.078C309.525 40.994 309.889 40.952 310.271 40.952C310.915 40.952 311.475 41.078 311.951 41.33C312.437 41.5727 312.81 41.918 313.071 42.366C313.342 42.8047 313.477 43.318 313.477 43.906C313.477 44.55 313.333 45.1147 313.043 45.6C312.754 46.0853 312.353 46.468 311.839 46.748C311.326 47.0187 310.729 47.154 310.047 47.154Z" fill="#4D4D4D"/>
</svg>
