<svg width="344" height="204" viewBox="0 0 344 204" fill="none" xmlns="http://www.w3.org/2000/svg">
<rect width="344" height="204" fill="white"/>
<path d="M40.948 39V30.6H42.388V39H40.948ZM44.1798 39V32.988H45.5358V33.972C45.7678 33.612 46.0438 33.344 46.3638 33.168C46.6838 32.984 47.0398 32.892 47.4318 32.892C47.8478 32.892 48.2118 32.984 48.5238 33.168C48.8358 33.344 49.0798 33.592 49.2558 33.912C49.4398 34.232 49.5318 34.608 49.5318 35.04V39H48.1638V35.424C48.1638 34.984 48.0438 34.636 47.8038 34.38C47.5638 34.116 47.2438 33.984 46.8438 33.984C46.5718 33.984 46.3238 34.048 46.0998 34.176C45.8838 34.296 45.6958 34.476 45.5358 34.716V39H44.1798ZM51.1642 41.508V32.988H52.4962V33.84C52.7122 33.552 52.9802 33.332 53.3002 33.18C53.6282 33.02 53.9842 32.94 54.3682 32.94C54.8802 32.94 55.3402 33.076 55.7482 33.348C56.1562 33.62 56.4802 33.988 56.7202 34.452C56.9602 34.916 57.0802 35.432 57.0802 36C57.0802 36.568 56.9562 37.084 56.7082 37.548C56.4602 38.012 56.1242 38.38 55.7002 38.652C55.2762 38.924 54.8042 39.06 54.2842 39.06C53.9242 39.06 53.5922 38.996 53.2882 38.868C52.9922 38.732 52.7362 38.54 52.5202 38.292V41.508H51.1642ZM53.9602 37.932C54.3042 37.932 54.6082 37.848 54.8722 37.68C55.1442 37.512 55.3562 37.284 55.5082 36.996C55.6682 36.7 55.7482 36.368 55.7482 36C55.7482 35.632 55.6682 35.304 55.5082 35.016C55.3562 34.728 55.1442 34.5 54.8722 34.332C54.6082 34.164 54.3042 34.08 53.9602 34.08C53.6642 34.08 53.3922 34.14 53.1442 34.26C52.8962 34.372 52.6882 34.536 52.5202 34.752V37.26C52.6962 37.468 52.9082 37.632 53.1562 37.752C53.4042 37.872 53.6722 37.932 53.9602 37.932ZM60.5522 39.096C60.1362 39.096 59.7722 39.004 59.4602 38.82C59.1482 38.636 58.9002 38.384 58.7162 38.064C58.5402 37.744 58.4522 37.372 58.4522 36.948V32.988H59.8202V36.552C59.8202 37 59.9362 37.356 60.1682 37.62C60.4082 37.876 60.7322 38.004 61.1402 38.004C61.4122 38.004 61.6562 37.944 61.8722 37.824C62.0962 37.704 62.2882 37.524 62.4482 37.284V32.988H63.8042V39H62.4482V38.028C62.2162 38.38 61.9402 38.648 61.6202 38.832C61.3002 39.008 60.9442 39.096 60.5522 39.096ZM68.0765 39.12C67.4685 39.12 67.0085 38.98 66.6965 38.7C66.3845 38.412 66.2285 37.992 66.2285 37.44V34.068H65.0285V32.988H66.2285V31.332L67.5845 31.044V32.988H69.2525V34.068H67.5845V37.14C67.5845 37.436 67.6485 37.648 67.7765 37.776C67.9045 37.896 68.1205 37.956 68.4245 37.956C68.5605 37.956 68.6845 37.948 68.7965 37.932C68.9165 37.908 69.0645 37.868 69.2405 37.812V38.952C69.0725 39.008 68.8805 39.048 68.6645 39.072C68.4565 39.104 68.2605 39.12 68.0765 39.12ZM73.1486 39V30.396L74.5046 30.156V39H73.1486ZM77.996 39.108C77.58 39.108 77.208 39.032 76.88 38.88C76.56 38.72 76.308 38.504 76.124 38.232C75.948 37.952 75.86 37.632 75.86 37.272C75.86 36.912 75.952 36.6 76.136 36.336C76.328 36.072 76.596 35.868 76.94 35.724C77.284 35.58 77.692 35.508 78.164 35.508C78.444 35.508 78.72 35.54 78.992 35.604C79.264 35.66 79.528 35.756 79.784 35.892V35.22C79.784 34.82 79.668 34.52 79.436 34.32C79.212 34.12 78.868 34.02 78.404 34.02C78.156 34.02 77.888 34.06 77.6 34.14C77.32 34.212 77.004 34.328 76.652 34.488L76.172 33.504C77.052 33.096 77.884 32.892 78.668 32.892C79.452 32.892 80.056 33.084 80.48 33.468C80.912 33.844 81.128 34.38 81.128 35.076V39H79.784V38.376C79.528 38.624 79.252 38.808 78.956 38.928C78.66 39.048 78.34 39.108 77.996 39.108ZM77.132 37.248C77.132 37.528 77.244 37.748 77.468 37.908C77.692 38.068 77.992 38.148 78.368 38.148C78.64 38.148 78.892 38.108 79.124 38.028C79.364 37.94 79.584 37.812 79.784 37.644V36.672C79.576 36.576 79.36 36.504 79.136 36.456C78.912 36.408 78.668 36.384 78.404 36.384C78.012 36.384 77.7 36.46 77.468 36.612C77.244 36.764 77.132 36.976 77.132 37.248ZM82.7697 39V30.432L84.1257 30.204V33.792C84.3417 33.52 84.6057 33.312 84.9177 33.168C85.2377 33.016 85.5897 32.94 85.9737 32.94C86.4857 32.94 86.9457 33.076 87.3537 33.348C87.7617 33.62 88.0857 33.988 88.3257 34.452C88.5657 34.916 88.6857 35.432 88.6857 36C88.6857 36.568 88.5617 37.084 88.3137 37.548C88.0657 38.012 87.7297 38.38 87.3057 38.652C86.8817 38.924 86.4097 39.06 85.8897 39.06C85.5297 39.06 85.1977 38.988 84.8937 38.844C84.5897 38.7 84.3257 38.496 84.1017 38.232V39H82.7697ZM85.5657 37.932C85.9097 37.932 86.2137 37.848 86.4777 37.68C86.7497 37.512 86.9617 37.284 87.1137 36.996C87.2737 36.7 87.3537 36.368 87.3537 36C87.3537 35.632 87.2737 35.304 87.1137 35.016C86.9617 34.728 86.7497 34.5 86.4777 34.332C86.2137 34.164 85.9097 34.08 85.5657 34.08C85.2697 34.08 84.9977 34.14 84.7497 34.26C84.5017 34.372 84.2937 34.536 84.1257 34.752V37.26C84.3017 37.468 84.5137 37.632 84.7617 37.752C85.0097 37.872 85.2777 37.932 85.5657 37.932ZM92.9016 39.12C92.3256 39.12 91.8056 38.984 91.3416 38.712C90.8776 38.432 90.5096 38.06 90.2376 37.596C89.9656 37.124 89.8296 36.592 89.8296 36C89.8296 35.408 89.9576 34.88 90.2136 34.416C90.4696 33.952 90.8176 33.584 91.2576 33.312C91.7056 33.032 92.2016 32.892 92.7456 32.892C93.3056 32.892 93.7976 33.028 94.2216 33.3C94.6536 33.572 94.9896 33.94 95.2296 34.404C95.4776 34.868 95.6016 35.4 95.6016 36V36.324H91.1616C91.2096 36.652 91.3136 36.944 91.4736 37.2C91.6416 37.448 91.8536 37.644 92.1096 37.788C92.3736 37.932 92.6576 38.004 92.9616 38.004C93.2416 38.004 93.5056 37.956 93.7536 37.86C94.0096 37.756 94.2216 37.616 94.3896 37.44L95.2776 38.244C94.9096 38.548 94.5336 38.772 94.1496 38.916C93.7736 39.052 93.3576 39.12 92.9016 39.12ZM91.1736 35.484H94.3176C94.2696 35.196 94.1696 34.94 94.0176 34.716C93.8736 34.492 93.6896 34.316 93.4656 34.188C93.2496 34.06 93.0096 33.996 92.7456 33.996C92.4816 33.996 92.2376 34.06 92.0136 34.188C91.7976 34.308 91.6176 34.48 91.4736 34.704C91.3296 34.928 91.2296 35.188 91.1736 35.484ZM96.9845 39V30.396L98.3405 30.156V39H96.9845Z" fill="#151515"/>
<path d="M178.324 38.034H180.564C181.273 38.034 181.908 37.8613 182.468 37.516C183.028 37.1707 183.471 36.704 183.798 36.116C184.134 35.5187 184.302 34.8467 184.302 34.1C184.302 33.3533 184.134 32.686 183.798 32.098C183.471 31.5007 183.028 31.0293 182.468 30.684C181.908 30.3387 181.273 30.166 180.564 30.166H178.324V38.034ZM177.246 39V29.2H180.494C181.213 29.2 181.871 29.326 182.468 29.578C183.075 29.8207 183.593 30.166 184.022 30.614C184.461 31.0527 184.797 31.5707 185.03 32.168C185.273 32.756 185.394 33.4 185.394 34.1C185.394 34.8 185.273 35.4487 185.03 36.046C184.797 36.634 184.461 37.152 184.022 37.6C183.593 38.0387 183.075 38.384 182.468 38.636C181.871 38.8787 181.213 39 180.494 39H177.246ZM190.316 39.14C189.681 39.14 189.107 38.986 188.594 38.678C188.08 38.3607 187.674 37.936 187.376 37.404C187.077 36.8627 186.928 36.256 186.928 35.584C186.928 34.912 187.068 34.31 187.348 33.778C187.637 33.246 188.024 32.826 188.51 32.518C188.995 32.21 189.536 32.056 190.134 32.056C190.74 32.056 191.277 32.21 191.744 32.518C192.22 32.8167 192.593 33.2273 192.864 33.75C193.144 34.2633 193.284 34.8467 193.284 35.5V35.808H187.922C187.959 36.2747 188.085 36.6947 188.3 37.068C188.524 37.432 188.813 37.7213 189.168 37.936C189.532 38.1413 189.928 38.244 190.358 38.244C190.712 38.244 191.053 38.1833 191.38 38.062C191.716 37.9313 192 37.7587 192.234 37.544L192.878 38.23C192.486 38.538 192.08 38.7667 191.66 38.916C191.24 39.0653 190.792 39.14 190.316 39.14ZM187.95 35.08H192.276C192.229 34.6693 192.103 34.3053 191.898 33.988C191.702 33.6613 191.45 33.4047 191.142 33.218C190.843 33.0313 190.507 32.938 190.134 32.938C189.76 32.938 189.42 33.0313 189.112 33.218C188.804 33.3953 188.547 33.6473 188.342 33.974C188.146 34.2913 188.015 34.66 187.95 35.08ZM197.211 39.14C196.651 39.14 196.133 39.056 195.657 38.888C195.181 38.7107 194.775 38.4587 194.439 38.132L194.985 37.46C195.396 37.7587 195.774 37.978 196.119 38.118C196.464 38.2487 196.819 38.314 197.183 38.314C197.678 38.314 198.088 38.1973 198.415 37.964C198.742 37.7307 198.905 37.432 198.905 37.068C198.905 36.788 198.807 36.5687 198.611 36.41C198.424 36.2513 198.112 36.13 197.673 36.046L196.553 35.85C195.89 35.7287 195.4 35.5233 195.083 35.234C194.775 34.9447 194.621 34.5527 194.621 34.058C194.621 33.666 194.724 33.3207 194.929 33.022C195.144 32.7233 195.438 32.49 195.811 32.322C196.184 32.1447 196.609 32.056 197.085 32.056C197.552 32.056 197.995 32.126 198.415 32.266C198.835 32.3967 199.26 32.6113 199.689 32.91L199.185 33.624C198.83 33.372 198.476 33.19 198.121 33.078C197.766 32.9567 197.407 32.896 197.043 32.896C196.595 32.896 196.236 32.994 195.965 33.19C195.694 33.386 195.559 33.652 195.559 33.988C195.559 34.268 195.643 34.4827 195.811 34.632C195.988 34.7813 196.296 34.8933 196.735 34.968L197.883 35.178C198.574 35.2993 199.078 35.5093 199.395 35.808C199.712 36.1067 199.871 36.508 199.871 37.012C199.871 37.4133 199.754 37.7773 199.521 38.104C199.288 38.4213 198.97 38.6733 198.569 38.86C198.168 39.0467 197.715 39.14 197.211 39.14ZM204.561 39.112C203.927 39.112 203.353 38.958 202.839 38.65C202.335 38.3327 201.934 37.908 201.635 37.376C201.337 36.8347 201.187 36.2373 201.187 35.584C201.187 34.9213 201.337 34.324 201.635 33.792C201.934 33.26 202.335 32.84 202.839 32.532C203.353 32.2147 203.927 32.056 204.561 32.056C205.065 32.056 205.546 32.1493 206.003 32.336C206.461 32.5227 206.857 32.784 207.193 33.12L206.535 33.834C206.293 33.5633 205.999 33.3533 205.653 33.204C205.308 33.0547 204.958 32.98 204.603 32.98C204.155 32.98 203.749 33.0967 203.385 33.33C203.031 33.5633 202.746 33.876 202.531 34.268C202.317 34.66 202.209 35.0987 202.209 35.584C202.209 36.0693 202.317 36.508 202.531 36.9C202.746 37.292 203.031 37.6047 203.385 37.838C203.749 38.0713 204.155 38.188 204.603 38.188C204.958 38.188 205.308 38.1133 205.653 37.964C205.999 37.8053 206.293 37.5953 206.535 37.334L207.193 38.048C206.857 38.384 206.461 38.6453 206.003 38.832C205.546 39.0187 205.065 39.112 204.561 39.112ZM208.618 39V32.168H209.64V33.568C209.818 33.092 210.07 32.7233 210.396 32.462C210.732 32.1913 211.115 32.056 211.544 32.056C211.666 32.056 211.778 32.0653 211.88 32.084C211.983 32.0933 212.086 32.1167 212.188 32.154V33.078C212.076 33.0407 211.955 33.0127 211.824 32.994C211.703 32.966 211.586 32.952 211.474 32.952C211.054 32.952 210.686 33.0733 210.368 33.316C210.06 33.5587 209.818 33.8993 209.64 34.338V39H208.618ZM213.526 39V32.168H214.548V39H213.526ZM214.044 30.474C213.839 30.474 213.662 30.404 213.512 30.264C213.372 30.1147 213.302 29.942 213.302 29.746C213.302 29.55 213.372 29.382 213.512 29.242C213.662 29.0927 213.839 29.018 214.044 29.018C214.25 29.018 214.422 29.0927 214.562 29.242C214.712 29.382 214.786 29.55 214.786 29.746C214.786 29.942 214.712 30.1147 214.562 30.264C214.422 30.404 214.25 30.474 214.044 30.474ZM216.644 41.926V32.168H217.652V33.148C217.913 32.8027 218.23 32.5413 218.604 32.364C218.986 32.1773 219.406 32.084 219.864 32.084C220.461 32.084 220.993 32.2427 221.46 32.56C221.936 32.868 222.314 33.288 222.594 33.82C222.874 34.3427 223.014 34.9307 223.014 35.584C223.014 36.2373 222.869 36.83 222.58 37.362C222.3 37.894 221.917 38.3187 221.432 38.636C220.956 38.944 220.414 39.098 219.808 39.098C219.378 39.098 218.982 39.0187 218.618 38.86C218.254 38.692 217.936 38.454 217.666 38.146V41.926H216.644ZM219.612 38.216C220.069 38.216 220.475 38.104 220.83 37.88C221.194 37.6467 221.478 37.334 221.684 36.942C221.898 36.5407 222.006 36.0927 222.006 35.598C222.006 35.094 221.898 34.646 221.684 34.254C221.478 33.862 221.194 33.554 220.83 33.33C220.475 33.0967 220.069 32.98 219.612 32.98C219.21 32.98 218.837 33.064 218.492 33.232C218.156 33.3907 217.88 33.6193 217.666 33.918V37.264C217.89 37.5627 218.17 37.796 218.506 37.964C218.851 38.132 219.22 38.216 219.612 38.216ZM226.986 39.14C226.398 39.14 225.95 39 225.642 38.72C225.343 38.4307 225.194 38.0153 225.194 37.474V33.008H223.78V32.168H225.194V30.292L226.216 30.054V32.168H228.176V33.008H226.216V37.208C226.216 37.572 226.291 37.8333 226.44 37.992C226.599 38.1507 226.855 38.23 227.21 38.23C227.387 38.23 227.546 38.216 227.686 38.188C227.826 38.16 227.989 38.1133 228.176 38.048V38.958C227.989 39.0233 227.793 39.07 227.588 39.098C227.383 39.126 227.182 39.14 226.986 39.14ZM229.659 39V32.168H230.681V39H229.659ZM230.177 30.474C229.972 30.474 229.794 30.404 229.645 30.264C229.505 30.1147 229.435 29.942 229.435 29.746C229.435 29.55 229.505 29.382 229.645 29.242C229.794 29.0927 229.972 29.018 230.177 29.018C230.382 29.018 230.555 29.0927 230.695 29.242C230.844 29.382 230.919 29.55 230.919 29.746C230.919 29.942 230.844 30.1147 230.695 30.264C230.555 30.404 230.382 30.474 230.177 30.474ZM235.801 39.112C235.166 39.112 234.597 38.958 234.093 38.65C233.589 38.342 233.192 37.922 232.903 37.39C232.613 36.858 232.469 36.256 232.469 35.584C232.469 34.912 232.613 34.31 232.903 33.778C233.192 33.246 233.589 32.826 234.093 32.518C234.597 32.21 235.166 32.056 235.801 32.056C236.426 32.056 236.986 32.21 237.481 32.518C237.985 32.826 238.381 33.246 238.671 33.778C238.96 34.31 239.105 34.912 239.105 35.584C239.105 36.256 238.96 36.858 238.671 37.39C238.381 37.922 237.985 38.342 237.481 38.65C236.986 38.958 236.426 39.112 235.801 39.112ZM235.787 38.216C236.235 38.216 236.631 38.104 236.977 37.88C237.322 37.6467 237.593 37.3293 237.789 36.928C237.994 36.5267 238.097 36.0787 238.097 35.584C238.097 35.08 237.994 34.632 237.789 34.24C237.593 33.8387 237.322 33.526 236.977 33.302C236.631 33.0687 236.235 32.952 235.787 32.952C235.339 32.952 234.942 33.0687 234.597 33.302C234.251 33.526 233.976 33.8387 233.771 34.24C233.575 34.632 233.477 35.08 233.477 35.584C233.477 36.0787 233.575 36.5267 233.771 36.928C233.976 37.3293 234.251 37.6467 234.597 37.88C234.942 38.104 235.339 38.216 235.787 38.216ZM240.898 39V32.168H241.92V33.274C242.181 32.8633 242.494 32.56 242.858 32.364C243.222 32.1587 243.632 32.056 244.09 32.056C244.584 32.056 245.014 32.1633 245.378 32.378C245.751 32.5833 246.04 32.8773 246.246 33.26C246.46 33.6333 246.568 34.072 246.568 34.576V39H245.546V34.87C245.546 34.2633 245.378 33.7873 245.042 33.442C244.715 33.0873 244.272 32.91 243.712 32.91C243.338 32.91 242.998 32.9987 242.69 33.176C242.382 33.3533 242.125 33.6147 241.92 33.96V39H240.898ZM251.89 39V28.892L252.912 28.682V39H251.89ZM254.993 39V32.168H256.015V39H254.993ZM255.511 30.474C255.306 30.474 255.128 30.404 254.979 30.264C254.839 30.1147 254.769 29.942 254.769 29.746C254.769 29.55 254.839 29.382 254.979 29.242C255.128 29.0927 255.306 29.018 255.511 29.018C255.716 29.018 255.889 29.0927 256.029 29.242C256.178 29.382 256.253 29.55 256.253 29.746C256.253 29.942 256.178 30.1147 256.029 30.264C255.889 30.404 255.716 30.474 255.511 30.474ZM260.225 39.14C259.665 39.14 259.147 39.056 258.671 38.888C258.195 38.7107 257.789 38.4587 257.453 38.132L257.999 37.46C258.409 37.7587 258.787 37.978 259.133 38.118C259.478 38.2487 259.833 38.314 260.197 38.314C260.691 38.314 261.102 38.1973 261.429 37.964C261.755 37.7307 261.919 37.432 261.919 37.068C261.919 36.788 261.821 36.5687 261.625 36.41C261.438 36.2513 261.125 36.13 260.687 36.046L259.567 35.85C258.904 35.7287 258.414 35.5233 258.097 35.234C257.789 34.9447 257.635 34.5527 257.635 34.058C257.635 33.666 257.737 33.3207 257.943 33.022C258.157 32.7233 258.451 32.49 258.825 32.322C259.198 32.1447 259.623 32.056 260.099 32.056C260.565 32.056 261.009 32.126 261.429 32.266C261.849 32.3967 262.273 32.6113 262.703 32.91L262.199 33.624C261.844 33.372 261.489 33.19 261.135 33.078C260.78 32.9567 260.421 32.896 260.057 32.896C259.609 32.896 259.249 32.994 258.979 33.19C258.708 33.386 258.573 33.652 258.573 33.988C258.573 34.268 258.657 34.4827 258.825 34.632C259.002 34.7813 259.31 34.8933 259.749 34.968L260.897 35.178C261.587 35.2993 262.091 35.5093 262.409 35.808C262.726 36.1067 262.885 36.508 262.885 37.012C262.885 37.4133 262.768 37.7773 262.535 38.104C262.301 38.4213 261.984 38.6733 261.583 38.86C261.181 39.0467 260.729 39.14 260.225 39.14ZM266.908 39.14C266.32 39.14 265.872 39 265.564 38.72C265.265 38.4307 265.116 38.0153 265.116 37.474V33.008H263.702V32.168H265.116V30.292L266.138 30.054V32.168H268.098V33.008H266.138V37.208C266.138 37.572 266.213 37.8333 266.362 37.992C266.521 38.1507 266.777 38.23 267.132 38.23C267.309 38.23 267.468 38.216 267.608 38.188C267.748 38.16 267.911 38.1133 268.098 38.048V38.958C267.911 39.0233 267.715 39.07 267.51 39.098C267.305 39.126 267.104 39.14 266.908 39.14ZM272.849 39V32.168H273.87V39H272.849ZM273.367 30.474C273.161 30.474 272.984 30.404 272.835 30.264C272.695 30.1147 272.625 29.942 272.625 29.746C272.625 29.55 272.695 29.382 272.835 29.242C272.984 29.0927 273.161 29.018 273.367 29.018C273.572 29.018 273.745 29.0927 273.885 29.242C274.034 29.382 274.109 29.55 274.109 29.746C274.109 29.942 274.034 30.1147 273.885 30.264C273.745 30.404 273.572 30.474 273.367 30.474ZM278.57 39.14C277.982 39.14 277.534 39 277.226 38.72C276.927 38.4307 276.778 38.0153 276.778 37.474V33.008H275.364V32.168H276.778V30.292L277.8 30.054V32.168H279.76V33.008H277.8V37.208C277.8 37.572 277.875 37.8333 278.024 37.992C278.183 38.1507 278.439 38.23 278.794 38.23C278.971 38.23 279.13 38.216 279.27 38.188C279.41 38.16 279.573 38.1133 279.76 38.048V38.958C279.573 39.0233 279.377 39.07 279.172 39.098C278.967 39.126 278.766 39.14 278.57 39.14ZM284.2 39.14C283.566 39.14 282.992 38.986 282.478 38.678C281.965 38.3607 281.559 37.936 281.26 37.404C280.962 36.8627 280.812 36.256 280.812 35.584C280.812 34.912 280.952 34.31 281.232 33.778C281.522 33.246 281.909 32.826 282.394 32.518C282.88 32.21 283.421 32.056 284.018 32.056C284.625 32.056 285.162 32.21 285.628 32.518C286.104 32.8167 286.478 33.2273 286.748 33.75C287.028 34.2633 287.168 34.8467 287.168 35.5V35.808H281.806C281.844 36.2747 281.97 36.6947 282.184 37.068C282.408 37.432 282.698 37.7213 283.052 37.936C283.416 38.1413 283.813 38.244 284.242 38.244C284.597 38.244 284.938 38.1833 285.264 38.062C285.6 37.9313 285.885 37.7587 286.118 37.544L286.762 38.23C286.37 38.538 285.964 38.7667 285.544 38.916C285.124 39.0653 284.676 39.14 284.2 39.14ZM281.834 35.08H286.16C286.114 34.6693 285.988 34.3053 285.782 33.988C285.586 33.6613 285.334 33.4047 285.026 33.218C284.728 33.0313 284.392 32.938 284.018 32.938C283.645 32.938 283.304 33.0313 282.996 33.218C282.688 33.3953 282.432 33.6473 282.226 33.974C282.03 34.2913 281.9 34.66 281.834 35.08ZM288.913 39V32.168H289.935V33.232C290.197 32.84 290.495 32.546 290.831 32.35C291.167 32.154 291.545 32.056 291.965 32.056C292.451 32.056 292.875 32.1773 293.239 32.42C293.603 32.6533 293.879 32.9753 294.065 33.386C294.336 32.9473 294.658 32.616 295.031 32.392C295.414 32.168 295.853 32.056 296.347 32.056C296.805 32.056 297.206 32.1633 297.551 32.378C297.906 32.5927 298.181 32.8913 298.377 33.274C298.573 33.6473 298.671 34.086 298.671 34.59V39H297.649V34.842C297.649 34.2447 297.5 33.7733 297.201 33.428C296.903 33.0827 296.492 32.91 295.969 32.91C295.615 32.91 295.293 32.9987 295.003 33.176C294.723 33.3533 294.476 33.624 294.261 33.988C294.28 34.0813 294.294 34.1793 294.303 34.282C294.313 34.3847 294.317 34.4873 294.317 34.59V39H293.295V34.842C293.295 34.2447 293.141 33.7733 292.833 33.428C292.535 33.0827 292.124 32.91 291.601 32.91C290.901 32.91 290.346 33.246 289.935 33.918V39H288.913Z" fill="#151515"/>
<path d="M40.948 84V75.6H42.388V84H40.948ZM44.1798 84V77.988H45.5358V78.972C45.7678 78.612 46.0438 78.344 46.3638 78.168C46.6838 77.984 47.0398 77.892 47.4318 77.892C47.8478 77.892 48.2118 77.984 48.5238 78.168C48.8358 78.344 49.0798 78.592 49.2558 78.912C49.4398 79.232 49.5318 79.608 49.5318 80.04V84H48.1638V80.424C48.1638 79.984 48.0438 79.636 47.8038 79.38C47.5638 79.116 47.2438 78.984 46.8438 78.984C46.5718 78.984 46.3238 79.048 46.0998 79.176C45.8838 79.296 45.6958 79.476 45.5358 79.716V84H44.1798ZM51.1642 86.508V77.988H52.4962V78.84C52.7122 78.552 52.9802 78.332 53.3002 78.18C53.6282 78.02 53.9842 77.94 54.3682 77.94C54.8802 77.94 55.3402 78.076 55.7482 78.348C56.1562 78.62 56.4802 78.988 56.7202 79.452C56.9602 79.916 57.0802 80.432 57.0802 81C57.0802 81.568 56.9562 82.084 56.7082 82.548C56.4602 83.012 56.1242 83.38 55.7002 83.652C55.2762 83.924 54.8042 84.06 54.2842 84.06C53.9242 84.06 53.5922 83.996 53.2882 83.868C52.9922 83.732 52.7362 83.54 52.5202 83.292V86.508H51.1642ZM53.9602 82.932C54.3042 82.932 54.6082 82.848 54.8722 82.68C55.1442 82.512 55.3562 82.284 55.5082 81.996C55.6682 81.7 55.7482 81.368 55.7482 81C55.7482 80.632 55.6682 80.304 55.5082 80.016C55.3562 79.728 55.1442 79.5 54.8722 79.332C54.6082 79.164 54.3042 79.08 53.9602 79.08C53.6642 79.08 53.3922 79.14 53.1442 79.26C52.8962 79.372 52.6882 79.536 52.5202 79.752V82.26C52.6962 82.468 52.9082 82.632 53.1562 82.752C53.4042 82.872 53.6722 82.932 53.9602 82.932ZM60.5522 84.096C60.1362 84.096 59.7722 84.004 59.4602 83.82C59.1482 83.636 58.9002 83.384 58.7162 83.064C58.5402 82.744 58.4522 82.372 58.4522 81.948V77.988H59.8202V81.552C59.8202 82 59.9362 82.356 60.1682 82.62C60.4082 82.876 60.7322 83.004 61.1402 83.004C61.4122 83.004 61.6562 82.944 61.8722 82.824C62.0962 82.704 62.2882 82.524 62.4482 82.284V77.988H63.8042V84H62.4482V83.028C62.2162 83.38 61.9402 83.648 61.6202 83.832C61.3002 84.008 60.9442 84.096 60.5522 84.096ZM68.0765 84.12C67.4685 84.12 67.0085 83.98 66.6965 83.7C66.3845 83.412 66.2285 82.992 66.2285 82.44V79.068H65.0285V77.988H66.2285V76.332L67.5845 76.044V77.988H69.2525V79.068H67.5845V82.14C67.5845 82.436 67.6485 82.648 67.7765 82.776C67.9045 82.896 68.1205 82.956 68.4245 82.956C68.5605 82.956 68.6845 82.948 68.7965 82.932C68.9165 82.908 69.0645 82.868 69.2405 82.812V83.952C69.0725 84.008 68.8805 84.048 68.6645 84.072C68.4565 84.104 68.2605 84.12 68.0765 84.12ZM73.1486 84V75.396L74.5046 75.156V84H73.1486ZM77.996 84.108C77.58 84.108 77.208 84.032 76.88 83.88C76.56 83.72 76.308 83.504 76.124 83.232C75.948 82.952 75.86 82.632 75.86 82.272C75.86 81.912 75.952 81.6 76.136 81.336C76.328 81.072 76.596 80.868 76.94 80.724C77.284 80.58 77.692 80.508 78.164 80.508C78.444 80.508 78.72 80.54 78.992 80.604C79.264 80.66 79.528 80.756 79.784 80.892V80.22C79.784 79.82 79.668 79.52 79.436 79.32C79.212 79.12 78.868 79.02 78.404 79.02C78.156 79.02 77.888 79.06 77.6 79.14C77.32 79.212 77.004 79.328 76.652 79.488L76.172 78.504C77.052 78.096 77.884 77.892 78.668 77.892C79.452 77.892 80.056 78.084 80.48 78.468C80.912 78.844 81.128 79.38 81.128 80.076V84H79.784V83.376C79.528 83.624 79.252 83.808 78.956 83.928C78.66 84.048 78.34 84.108 77.996 84.108ZM77.132 82.248C77.132 82.528 77.244 82.748 77.468 82.908C77.692 83.068 77.992 83.148 78.368 83.148C78.64 83.148 78.892 83.108 79.124 83.028C79.364 82.94 79.584 82.812 79.784 82.644V81.672C79.576 81.576 79.36 81.504 79.136 81.456C78.912 81.408 78.668 81.384 78.404 81.384C78.012 81.384 77.7 81.46 77.468 81.612C77.244 81.764 77.132 81.976 77.132 82.248ZM82.7697 84V75.432L84.1257 75.204V78.792C84.3417 78.52 84.6057 78.312 84.9177 78.168C85.2377 78.016 85.5897 77.94 85.9737 77.94C86.4857 77.94 86.9457 78.076 87.3537 78.348C87.7617 78.62 88.0857 78.988 88.3257 79.452C88.5657 79.916 88.6857 80.432 88.6857 81C88.6857 81.568 88.5617 82.084 88.3137 82.548C88.0657 83.012 87.7297 83.38 87.3057 83.652C86.8817 83.924 86.4097 84.06 85.8897 84.06C85.5297 84.06 85.1977 83.988 84.8937 83.844C84.5897 83.7 84.3257 83.496 84.1017 83.232V84H82.7697ZM85.5657 82.932C85.9097 82.932 86.2137 82.848 86.4777 82.68C86.7497 82.512 86.9617 82.284 87.1137 81.996C87.2737 81.7 87.3537 81.368 87.3537 81C87.3537 80.632 87.2737 80.304 87.1137 80.016C86.9617 79.728 86.7497 79.5 86.4777 79.332C86.2137 79.164 85.9097 79.08 85.5657 79.08C85.2697 79.08 84.9977 79.14 84.7497 79.26C84.5017 79.372 84.2937 79.536 84.1257 79.752V82.26C84.3017 82.468 84.5137 82.632 84.7617 82.752C85.0097 82.872 85.2777 82.932 85.5657 82.932ZM92.9016 84.12C92.3256 84.12 91.8056 83.984 91.3416 83.712C90.8776 83.432 90.5096 83.06 90.2376 82.596C89.9656 82.124 89.8296 81.592 89.8296 81C89.8296 80.408 89.9576 79.88 90.2136 79.416C90.4696 78.952 90.8176 78.584 91.2576 78.312C91.7056 78.032 92.2016 77.892 92.7456 77.892C93.3056 77.892 93.7976 78.028 94.2216 78.3C94.6536 78.572 94.9896 78.94 95.2296 79.404C95.4776 79.868 95.6016 80.4 95.6016 81V81.324H91.1616C91.2096 81.652 91.3136 81.944 91.4736 82.2C91.6416 82.448 91.8536 82.644 92.1096 82.788C92.3736 82.932 92.6576 83.004 92.9616 83.004C93.2416 83.004 93.5056 82.956 93.7536 82.86C94.0096 82.756 94.2216 82.616 94.3896 82.44L95.2776 83.244C94.9096 83.548 94.5336 83.772 94.1496 83.916C93.7736 84.052 93.3576 84.12 92.9016 84.12ZM91.1736 80.484H94.3176C94.2696 80.196 94.1696 79.94 94.0176 79.716C93.8736 79.492 93.6896 79.316 93.4656 79.188C93.2496 79.06 93.0096 78.996 92.7456 78.996C92.4816 78.996 92.2376 79.06 92.0136 79.188C91.7976 79.308 91.6176 79.48 91.4736 79.704C91.3296 79.928 91.2296 80.188 91.1736 80.484ZM96.9845 84V75.396L98.3405 75.156V84H96.9845Z" fill="#151515"/>
<path d="M178.324 83.034H180.564C181.273 83.034 181.908 82.8613 182.468 82.516C183.028 82.1707 183.471 81.704 183.798 81.116C184.134 80.5187 184.302 79.8467 184.302 79.1C184.302 78.3533 184.134 77.686 183.798 77.098C183.471 76.5007 183.028 76.0293 182.468 75.684C181.908 75.3387 181.273 75.166 180.564 75.166H178.324V83.034ZM177.246 84V74.2H180.494C181.213 74.2 181.871 74.326 182.468 74.578C183.075 74.8207 183.593 75.166 184.022 75.614C184.461 76.0527 184.797 76.5707 185.03 77.168C185.273 77.756 185.394 78.4 185.394 79.1C185.394 79.8 185.273 80.4487 185.03 81.046C184.797 81.634 184.461 82.152 184.022 82.6C183.593 83.0387 183.075 83.384 182.468 83.636C181.871 83.8787 181.213 84 180.494 84H177.246ZM190.316 84.14C189.681 84.14 189.107 83.986 188.594 83.678C188.08 83.3607 187.674 82.936 187.376 82.404C187.077 81.8627 186.928 81.256 186.928 80.584C186.928 79.912 187.068 79.31 187.348 78.778C187.637 78.246 188.024 77.826 188.51 77.518C188.995 77.21 189.536 77.056 190.134 77.056C190.74 77.056 191.277 77.21 191.744 77.518C192.22 77.8167 192.593 78.2273 192.864 78.75C193.144 79.2633 193.284 79.8467 193.284 80.5V80.808H187.922C187.959 81.2747 188.085 81.6947 188.3 82.068C188.524 82.432 188.813 82.7213 189.168 82.936C189.532 83.1413 189.928 83.244 190.358 83.244C190.712 83.244 191.053 83.1833 191.38 83.062C191.716 82.9313 192 82.7587 192.234 82.544L192.878 83.23C192.486 83.538 192.08 83.7667 191.66 83.916C191.24 84.0653 190.792 84.14 190.316 84.14ZM187.95 80.08H192.276C192.229 79.6693 192.103 79.3053 191.898 78.988C191.702 78.6613 191.45 78.4047 191.142 78.218C190.843 78.0313 190.507 77.938 190.134 77.938C189.76 77.938 189.42 78.0313 189.112 78.218C188.804 78.3953 188.547 78.6473 188.342 78.974C188.146 79.2913 188.015 79.66 187.95 80.08ZM197.211 84.14C196.651 84.14 196.133 84.056 195.657 83.888C195.181 83.7107 194.775 83.4587 194.439 83.132L194.985 82.46C195.396 82.7587 195.774 82.978 196.119 83.118C196.464 83.2487 196.819 83.314 197.183 83.314C197.678 83.314 198.088 83.1973 198.415 82.964C198.742 82.7307 198.905 82.432 198.905 82.068C198.905 81.788 198.807 81.5687 198.611 81.41C198.424 81.2513 198.112 81.13 197.673 81.046L196.553 80.85C195.89 80.7287 195.4 80.5233 195.083 80.234C194.775 79.9447 194.621 79.5527 194.621 79.058C194.621 78.666 194.724 78.3207 194.929 78.022C195.144 77.7233 195.438 77.49 195.811 77.322C196.184 77.1447 196.609 77.056 197.085 77.056C197.552 77.056 197.995 77.126 198.415 77.266C198.835 77.3967 199.26 77.6113 199.689 77.91L199.185 78.624C198.83 78.372 198.476 78.19 198.121 78.078C197.766 77.9567 197.407 77.896 197.043 77.896C196.595 77.896 196.236 77.994 195.965 78.19C195.694 78.386 195.559 78.652 195.559 78.988C195.559 79.268 195.643 79.4827 195.811 79.632C195.988 79.7813 196.296 79.8933 196.735 79.968L197.883 80.178C198.574 80.2993 199.078 80.5093 199.395 80.808C199.712 81.1067 199.871 81.508 199.871 82.012C199.871 82.4133 199.754 82.7773 199.521 83.104C199.288 83.4213 198.97 83.6733 198.569 83.86C198.168 84.0467 197.715 84.14 197.211 84.14ZM204.561 84.112C203.927 84.112 203.353 83.958 202.839 83.65C202.335 83.3327 201.934 82.908 201.635 82.376C201.337 81.8347 201.187 81.2373 201.187 80.584C201.187 79.9213 201.337 79.324 201.635 78.792C201.934 78.26 202.335 77.84 202.839 77.532C203.353 77.2147 203.927 77.056 204.561 77.056C205.065 77.056 205.546 77.1493 206.003 77.336C206.461 77.5227 206.857 77.784 207.193 78.12L206.535 78.834C206.293 78.5633 205.999 78.3533 205.653 78.204C205.308 78.0547 204.958 77.98 204.603 77.98C204.155 77.98 203.749 78.0967 203.385 78.33C203.031 78.5633 202.746 78.876 202.531 79.268C202.317 79.66 202.209 80.0987 202.209 80.584C202.209 81.0693 202.317 81.508 202.531 81.9C202.746 82.292 203.031 82.6047 203.385 82.838C203.749 83.0713 204.155 83.188 204.603 83.188C204.958 83.188 205.308 83.1133 205.653 82.964C205.999 82.8053 206.293 82.5953 206.535 82.334L207.193 83.048C206.857 83.384 206.461 83.6453 206.003 83.832C205.546 84.0187 205.065 84.112 204.561 84.112ZM208.618 84V77.168H209.64V78.568C209.818 78.092 210.07 77.7233 210.396 77.462C210.732 77.1913 211.115 77.056 211.544 77.056C211.666 77.056 211.778 77.0653 211.88 77.084C211.983 77.0933 212.086 77.1167 212.188 77.154V78.078C212.076 78.0407 211.955 78.0127 211.824 77.994C211.703 77.966 211.586 77.952 211.474 77.952C211.054 77.952 210.686 78.0733 210.368 78.316C210.06 78.5587 209.818 78.8993 209.64 79.338V84H208.618ZM213.526 84V77.168H214.548V84H213.526ZM214.044 75.474C213.839 75.474 213.662 75.404 213.512 75.264C213.372 75.1147 213.302 74.942 213.302 74.746C213.302 74.55 213.372 74.382 213.512 74.242C213.662 74.0927 213.839 74.018 214.044 74.018C214.25 74.018 214.422 74.0927 214.562 74.242C214.712 74.382 214.786 74.55 214.786 74.746C214.786 74.942 214.712 75.1147 214.562 75.264C214.422 75.404 214.25 75.474 214.044 75.474ZM216.644 86.926V77.168H217.652V78.148C217.913 77.8027 218.23 77.5413 218.604 77.364C218.986 77.1773 219.406 77.084 219.864 77.084C220.461 77.084 220.993 77.2427 221.46 77.56C221.936 77.868 222.314 78.288 222.594 78.82C222.874 79.3427 223.014 79.9307 223.014 80.584C223.014 81.2373 222.869 81.83 222.58 82.362C222.3 82.894 221.917 83.3187 221.432 83.636C220.956 83.944 220.414 84.098 219.808 84.098C219.378 84.098 218.982 84.0187 218.618 83.86C218.254 83.692 217.936 83.454 217.666 83.146V86.926H216.644ZM219.612 83.216C220.069 83.216 220.475 83.104 220.83 82.88C221.194 82.6467 221.478 82.334 221.684 81.942C221.898 81.5407 222.006 81.0927 222.006 80.598C222.006 80.094 221.898 79.646 221.684 79.254C221.478 78.862 221.194 78.554 220.83 78.33C220.475 78.0967 220.069 77.98 219.612 77.98C219.21 77.98 218.837 78.064 218.492 78.232C218.156 78.3907 217.88 78.6193 217.666 78.918V82.264C217.89 82.5627 218.17 82.796 218.506 82.964C218.851 83.132 219.22 83.216 219.612 83.216ZM226.986 84.14C226.398 84.14 225.95 84 225.642 83.72C225.343 83.4307 225.194 83.0153 225.194 82.474V78.008H223.78V77.168H225.194V75.292L226.216 75.054V77.168H228.176V78.008H226.216V82.208C226.216 82.572 226.291 82.8333 226.44 82.992C226.599 83.1507 226.855 83.23 227.21 83.23C227.387 83.23 227.546 83.216 227.686 83.188C227.826 83.16 227.989 83.1133 228.176 83.048V83.958C227.989 84.0233 227.793 84.07 227.588 84.098C227.383 84.126 227.182 84.14 226.986 84.14ZM229.659 84V77.168H230.681V84H229.659ZM230.177 75.474C229.972 75.474 229.794 75.404 229.645 75.264C229.505 75.1147 229.435 74.942 229.435 74.746C229.435 74.55 229.505 74.382 229.645 74.242C229.794 74.0927 229.972 74.018 230.177 74.018C230.382 74.018 230.555 74.0927 230.695 74.242C230.844 74.382 230.919 74.55 230.919 74.746C230.919 74.942 230.844 75.1147 230.695 75.264C230.555 75.404 230.382 75.474 230.177 75.474ZM235.801 84.112C235.166 84.112 234.597 83.958 234.093 83.65C233.589 83.342 233.192 82.922 232.903 82.39C232.613 81.858 232.469 81.256 232.469 80.584C232.469 79.912 232.613 79.31 232.903 78.778C233.192 78.246 233.589 77.826 234.093 77.518C234.597 77.21 235.166 77.056 235.801 77.056C236.426 77.056 236.986 77.21 237.481 77.518C237.985 77.826 238.381 78.246 238.671 78.778C238.96 79.31 239.105 79.912 239.105 80.584C239.105 81.256 238.96 81.858 238.671 82.39C238.381 82.922 237.985 83.342 237.481 83.65C236.986 83.958 236.426 84.112 235.801 84.112ZM235.787 83.216C236.235 83.216 236.631 83.104 236.977 82.88C237.322 82.6467 237.593 82.3293 237.789 81.928C237.994 81.5267 238.097 81.0787 238.097 80.584C238.097 80.08 237.994 79.632 237.789 79.24C237.593 78.8387 237.322 78.526 236.977 78.302C236.631 78.0687 236.235 77.952 235.787 77.952C235.339 77.952 234.942 78.0687 234.597 78.302C234.251 78.526 233.976 78.8387 233.771 79.24C233.575 79.632 233.477 80.08 233.477 80.584C233.477 81.0787 233.575 81.5267 233.771 81.928C233.976 82.3293 234.251 82.6467 234.597 82.88C234.942 83.104 235.339 83.216 235.787 83.216ZM240.898 84V77.168H241.92V78.274C242.181 77.8633 242.494 77.56 242.858 77.364C243.222 77.1587 243.632 77.056 244.09 77.056C244.584 77.056 245.014 77.1633 245.378 77.378C245.751 77.5833 246.04 77.8773 246.246 78.26C246.46 78.6333 246.568 79.072 246.568 79.576V84H245.546V79.87C245.546 79.2633 245.378 78.7873 245.042 78.442C244.715 78.0873 244.272 77.91 243.712 77.91C243.338 77.91 242.998 77.9987 242.69 78.176C242.382 78.3533 242.125 78.6147 241.92 78.96V84H240.898ZM251.89 84V73.892L252.912 73.682V84H251.89ZM254.993 84V77.168H256.015V84H254.993ZM255.511 75.474C255.306 75.474 255.128 75.404 254.979 75.264C254.839 75.1147 254.769 74.942 254.769 74.746C254.769 74.55 254.839 74.382 254.979 74.242C255.128 74.0927 255.306 74.018 255.511 74.018C255.716 74.018 255.889 74.0927 256.029 74.242C256.178 74.382 256.253 74.55 256.253 74.746C256.253 74.942 256.178 75.1147 256.029 75.264C255.889 75.404 255.716 75.474 255.511 75.474ZM260.225 84.14C259.665 84.14 259.147 84.056 258.671 83.888C258.195 83.7107 257.789 83.4587 257.453 83.132L257.999 82.46C258.409 82.7587 258.787 82.978 259.133 83.118C259.478 83.2487 259.833 83.314 260.197 83.314C260.691 83.314 261.102 83.1973 261.429 82.964C261.755 82.7307 261.919 82.432 261.919 82.068C261.919 81.788 261.821 81.5687 261.625 81.41C261.438 81.2513 261.125 81.13 260.687 81.046L259.567 80.85C258.904 80.7287 258.414 80.5233 258.097 80.234C257.789 79.9447 257.635 79.5527 257.635 79.058C257.635 78.666 257.737 78.3207 257.943 78.022C258.157 77.7233 258.451 77.49 258.825 77.322C259.198 77.1447 259.623 77.056 260.099 77.056C260.565 77.056 261.009 77.126 261.429 77.266C261.849 77.3967 262.273 77.6113 262.703 77.91L262.199 78.624C261.844 78.372 261.489 78.19 261.135 78.078C260.78 77.9567 260.421 77.896 260.057 77.896C259.609 77.896 259.249 77.994 258.979 78.19C258.708 78.386 258.573 78.652 258.573 78.988C258.573 79.268 258.657 79.4827 258.825 79.632C259.002 79.7813 259.31 79.8933 259.749 79.968L260.897 80.178C261.587 80.2993 262.091 80.5093 262.409 80.808C262.726 81.1067 262.885 81.508 262.885 82.012C262.885 82.4133 262.768 82.7773 262.535 83.104C262.301 83.4213 261.984 83.6733 261.583 83.86C261.181 84.0467 260.729 84.14 260.225 84.14ZM266.908 84.14C266.32 84.14 265.872 84 265.564 83.72C265.265 83.4307 265.116 83.0153 265.116 82.474V78.008H263.702V77.168H265.116V75.292L266.138 75.054V77.168H268.098V78.008H266.138V82.208C266.138 82.572 266.213 82.8333 266.362 82.992C266.521 83.1507 266.777 83.23 267.132 83.23C267.309 83.23 267.468 83.216 267.608 83.188C267.748 83.16 267.911 83.1133 268.098 83.048V83.958C267.911 84.0233 267.715 84.07 267.51 84.098C267.305 84.126 267.104 84.14 266.908 84.14ZM272.849 84V77.168H273.87V84H272.849ZM273.367 75.474C273.161 75.474 272.984 75.404 272.835 75.264C272.695 75.1147 272.625 74.942 272.625 74.746C272.625 74.55 272.695 74.382 272.835 74.242C272.984 74.0927 273.161 74.018 273.367 74.018C273.572 74.018 273.745 74.0927 273.885 74.242C274.034 74.382 274.109 74.55 274.109 74.746C274.109 74.942 274.034 75.1147 273.885 75.264C273.745 75.404 273.572 75.474 273.367 75.474ZM278.57 84.14C277.982 84.14 277.534 84 277.226 83.72C276.927 83.4307 276.778 83.0153 276.778 82.474V78.008H275.364V77.168H276.778V75.292L277.8 75.054V77.168H279.76V78.008H277.8V82.208C277.8 82.572 277.875 82.8333 278.024 82.992C278.183 83.1507 278.439 83.23 278.794 83.23C278.971 83.23 279.13 83.216 279.27 83.188C279.41 83.16 279.573 83.1133 279.76 83.048V83.958C279.573 84.0233 279.377 84.07 279.172 84.098C278.967 84.126 278.766 84.14 278.57 84.14ZM284.2 84.14C283.566 84.14 282.992 83.986 282.478 83.678C281.965 83.3607 281.559 82.936 281.26 82.404C280.962 81.8627 280.812 81.256 280.812 80.584C280.812 79.912 280.952 79.31 281.232 78.778C281.522 78.246 281.909 77.826 282.394 77.518C282.88 77.21 283.421 77.056 284.018 77.056C284.625 77.056 285.162 77.21 285.628 77.518C286.104 77.8167 286.478 78.2273 286.748 78.75C287.028 79.2633 287.168 79.8467 287.168 80.5V80.808H281.806C281.844 81.2747 281.97 81.6947 282.184 82.068C282.408 82.432 282.698 82.7213 283.052 82.936C283.416 83.1413 283.813 83.244 284.242 83.244C284.597 83.244 284.938 83.1833 285.264 83.062C285.6 82.9313 285.885 82.7587 286.118 82.544L286.762 83.23C286.37 83.538 285.964 83.7667 285.544 83.916C285.124 84.0653 284.676 84.14 284.2 84.14ZM281.834 80.08H286.16C286.114 79.6693 285.988 79.3053 285.782 78.988C285.586 78.6613 285.334 78.4047 285.026 78.218C284.728 78.0313 284.392 77.938 284.018 77.938C283.645 77.938 283.304 78.0313 282.996 78.218C282.688 78.3953 282.432 78.6473 282.226 78.974C282.03 79.2913 281.9 79.66 281.834 80.08ZM288.913 84V77.168H289.935V78.232C290.197 77.84 290.495 77.546 290.831 77.35C291.167 77.154 291.545 77.056 291.965 77.056C292.451 77.056 292.875 77.1773 293.239 77.42C293.603 77.6533 293.879 77.9753 294.065 78.386C294.336 77.9473 294.658 77.616 295.031 77.392C295.414 77.168 295.853 77.056 296.347 77.056C296.805 77.056 297.206 77.1633 297.551 77.378C297.906 77.5927 298.181 77.8913 298.377 78.274C298.573 78.6473 298.671 79.086 298.671 79.59V84H297.649V79.842C297.649 79.2447 297.5 78.7733 297.201 78.428C296.903 78.0827 296.492 77.91 295.969 77.91C295.615 77.91 295.293 77.9987 295.003 78.176C294.723 78.3533 294.476 78.624 294.261 78.988C294.28 79.0813 294.294 79.1793 294.303 79.282C294.313 79.3847 294.317 79.4873 294.317 79.59V84H293.295V79.842C293.295 79.2447 293.141 78.7733 292.833 78.428C292.535 78.0827 292.124 77.91 291.601 77.91C290.901 77.91 290.346 78.246 289.935 78.918V84H288.913Z" fill="#151515"/>
<path d="M40.948 129V120.6H42.388V129H40.948ZM44.1798 129V122.988H45.5358V123.972C45.7678 123.612 46.0438 123.344 46.3638 123.168C46.6838 122.984 47.0398 122.892 47.4318 122.892C47.8478 122.892 48.2118 122.984 48.5238 123.168C48.8358 123.344 49.0798 123.592 49.2558 123.912C49.4398 124.232 49.5318 124.608 49.5318 125.04V129H48.1638V125.424C48.1638 124.984 48.0438 124.636 47.8038 124.38C47.5638 124.116 47.2438 123.984 46.8438 123.984C46.5718 123.984 46.3238 124.048 46.0998 124.176C45.8838 124.296 45.6958 124.476 45.5358 124.716V129H44.1798ZM51.1642 131.508V122.988H52.4962V123.84C52.7122 123.552 52.9802 123.332 53.3002 123.18C53.6282 123.02 53.9842 122.94 54.3682 122.94C54.8802 122.94 55.3402 123.076 55.7482 123.348C56.1562 123.62 56.4802 123.988 56.7202 124.452C56.9602 124.916 57.0802 125.432 57.0802 126C57.0802 126.568 56.9562 127.084 56.7082 127.548C56.4602 128.012 56.1242 128.38 55.7002 128.652C55.2762 128.924 54.8042 129.06 54.2842 129.06C53.9242 129.06 53.5922 128.996 53.2882 128.868C52.9922 128.732 52.7362 128.54 52.5202 128.292V131.508H51.1642ZM53.9602 127.932C54.3042 127.932 54.6082 127.848 54.8722 127.68C55.1442 127.512 55.3562 127.284 55.5082 126.996C55.6682 126.7 55.7482 126.368 55.7482 126C55.7482 125.632 55.6682 125.304 55.5082 125.016C55.3562 124.728 55.1442 124.5 54.8722 124.332C54.6082 124.164 54.3042 124.08 53.9602 124.08C53.6642 124.08 53.3922 124.14 53.1442 124.26C52.8962 124.372 52.6882 124.536 52.5202 124.752V127.26C52.6962 127.468 52.9082 127.632 53.1562 127.752C53.4042 127.872 53.6722 127.932 53.9602 127.932ZM60.5522 129.096C60.1362 129.096 59.7722 129.004 59.4602 128.82C59.1482 128.636 58.9002 128.384 58.7162 128.064C58.5402 127.744 58.4522 127.372 58.4522 126.948V122.988H59.8202V126.552C59.8202 127 59.9362 127.356 60.1682 127.62C60.4082 127.876 60.7322 128.004 61.1402 128.004C61.4122 128.004 61.6562 127.944 61.8722 127.824C62.0962 127.704 62.2882 127.524 62.4482 127.284V122.988H63.8042V129H62.4482V128.028C62.2162 128.38 61.9402 128.648 61.6202 128.832C61.3002 129.008 60.9442 129.096 60.5522 129.096ZM68.0765 129.12C67.4685 129.12 67.0085 128.98 66.6965 128.7C66.3845 128.412 66.2285 127.992 66.2285 127.44V124.068H65.0285V122.988H66.2285V121.332L67.5845 121.044V122.988H69.2525V124.068H67.5845V127.14C67.5845 127.436 67.6485 127.648 67.7765 127.776C67.9045 127.896 68.1205 127.956 68.4245 127.956C68.5605 127.956 68.6845 127.948 68.7965 127.932C68.9165 127.908 69.0645 127.868 69.2405 127.812V128.952C69.0725 129.008 68.8805 129.048 68.6645 129.072C68.4565 129.104 68.2605 129.12 68.0765 129.12ZM73.1486 129V120.396L74.5046 120.156V129H73.1486ZM77.996 129.108C77.58 129.108 77.208 129.032 76.88 128.88C76.56 128.72 76.308 128.504 76.124 128.232C75.948 127.952 75.86 127.632 75.86 127.272C75.86 126.912 75.952 126.6 76.136 126.336C76.328 126.072 76.596 125.868 76.94 125.724C77.284 125.58 77.692 125.508 78.164 125.508C78.444 125.508 78.72 125.54 78.992 125.604C79.264 125.66 79.528 125.756 79.784 125.892V125.22C79.784 124.82 79.668 124.52 79.436 124.32C79.212 124.12 78.868 124.02 78.404 124.02C78.156 124.02 77.888 124.06 77.6 124.14C77.32 124.212 77.004 124.328 76.652 124.488L76.172 123.504C77.052 123.096 77.884 122.892 78.668 122.892C79.452 122.892 80.056 123.084 80.48 123.468C80.912 123.844 81.128 124.38 81.128 125.076V129H79.784V128.376C79.528 128.624 79.252 128.808 78.956 128.928C78.66 129.048 78.34 129.108 77.996 129.108ZM77.132 127.248C77.132 127.528 77.244 127.748 77.468 127.908C77.692 128.068 77.992 128.148 78.368 128.148C78.64 128.148 78.892 128.108 79.124 128.028C79.364 127.94 79.584 127.812 79.784 127.644V126.672C79.576 126.576 79.36 126.504 79.136 126.456C78.912 126.408 78.668 126.384 78.404 126.384C78.012 126.384 77.7 126.46 77.468 126.612C77.244 126.764 77.132 126.976 77.132 127.248ZM82.7697 129V120.432L84.1257 120.204V123.792C84.3417 123.52 84.6057 123.312 84.9177 123.168C85.2377 123.016 85.5897 122.94 85.9737 122.94C86.4857 122.94 86.9457 123.076 87.3537 123.348C87.7617 123.62 88.0857 123.988 88.3257 124.452C88.5657 124.916 88.6857 125.432 88.6857 126C88.6857 126.568 88.5617 127.084 88.3137 127.548C88.0657 128.012 87.7297 128.38 87.3057 128.652C86.8817 128.924 86.4097 129.06 85.8897 129.06C85.5297 129.06 85.1977 128.988 84.8937 128.844C84.5897 128.7 84.3257 128.496 84.1017 128.232V129H82.7697ZM85.5657 127.932C85.9097 127.932 86.2137 127.848 86.4777 127.68C86.7497 127.512 86.9617 127.284 87.1137 126.996C87.2737 126.7 87.3537 126.368 87.3537 126C87.3537 125.632 87.2737 125.304 87.1137 125.016C86.9617 124.728 86.7497 124.5 86.4777 124.332C86.2137 124.164 85.9097 124.08 85.5657 124.08C85.2697 124.08 84.9977 124.14 84.7497 124.26C84.5017 124.372 84.2937 124.536 84.1257 124.752V127.26C84.3017 127.468 84.5137 127.632 84.7617 127.752C85.0097 127.872 85.2777 127.932 85.5657 127.932ZM92.9016 129.12C92.3256 129.12 91.8056 128.984 91.3416 128.712C90.8776 128.432 90.5096 128.06 90.2376 127.596C89.9656 127.124 89.8296 126.592 89.8296 126C89.8296 125.408 89.9576 124.88 90.2136 124.416C90.4696 123.952 90.8176 123.584 91.2576 123.312C91.7056 123.032 92.2016 122.892 92.7456 122.892C93.3056 122.892 93.7976 123.028 94.2216 123.3C94.6536 123.572 94.9896 123.94 95.2296 124.404C95.4776 124.868 95.6016 125.4 95.6016 126V126.324H91.1616C91.2096 126.652 91.3136 126.944 91.4736 127.2C91.6416 127.448 91.8536 127.644 92.1096 127.788C92.3736 127.932 92.6576 128.004 92.9616 128.004C93.2416 128.004 93.5056 127.956 93.7536 127.86C94.0096 127.756 94.2216 127.616 94.3896 127.44L95.2776 128.244C94.9096 128.548 94.5336 128.772 94.1496 128.916C93.7736 129.052 93.3576 129.12 92.9016 129.12ZM91.1736 125.484H94.3176C94.2696 125.196 94.1696 124.94 94.0176 124.716C93.8736 124.492 93.6896 124.316 93.4656 124.188C93.2496 124.06 93.0096 123.996 92.7456 123.996C92.4816 123.996 92.2376 124.06 92.0136 124.188C91.7976 124.308 91.6176 124.48 91.4736 124.704C91.3296 124.928 91.2296 125.188 91.1736 125.484ZM96.9845 129V120.396L98.3405 120.156V129H96.9845Z" fill="#151515"/>
<path d="M178.324 128.034H180.564C181.273 128.034 181.908 127.861 182.468 127.516C183.028 127.171 183.471 126.704 183.798 126.116C184.134 125.519 184.302 124.847 184.302 124.1C184.302 123.353 184.134 122.686 183.798 122.098C183.471 121.501 183.028 121.029 182.468 120.684C181.908 120.339 181.273 120.166 180.564 120.166H178.324V128.034ZM177.246 129V119.2H180.494C181.213 119.2 181.871 119.326 182.468 119.578C183.075 119.821 183.593 120.166 184.022 120.614C184.461 121.053 184.797 121.571 185.03 122.168C185.273 122.756 185.394 123.4 185.394 124.1C185.394 124.8 185.273 125.449 185.03 126.046C184.797 126.634 184.461 127.152 184.022 127.6C183.593 128.039 183.075 128.384 182.468 128.636C181.871 128.879 181.213 129 180.494 129H177.246ZM190.316 129.14C189.681 129.14 189.107 128.986 188.594 128.678C188.08 128.361 187.674 127.936 187.376 127.404C187.077 126.863 186.928 126.256 186.928 125.584C186.928 124.912 187.068 124.31 187.348 123.778C187.637 123.246 188.024 122.826 188.51 122.518C188.995 122.21 189.536 122.056 190.134 122.056C190.74 122.056 191.277 122.21 191.744 122.518C192.22 122.817 192.593 123.227 192.864 123.75C193.144 124.263 193.284 124.847 193.284 125.5V125.808H187.922C187.959 126.275 188.085 126.695 188.3 127.068C188.524 127.432 188.813 127.721 189.168 127.936C189.532 128.141 189.928 128.244 190.358 128.244C190.712 128.244 191.053 128.183 191.38 128.062C191.716 127.931 192 127.759 192.234 127.544L192.878 128.23C192.486 128.538 192.08 128.767 191.66 128.916C191.24 129.065 190.792 129.14 190.316 129.14ZM187.95 125.08H192.276C192.229 124.669 192.103 124.305 191.898 123.988C191.702 123.661 191.45 123.405 191.142 123.218C190.843 123.031 190.507 122.938 190.134 122.938C189.76 122.938 189.42 123.031 189.112 123.218C188.804 123.395 188.547 123.647 188.342 123.974C188.146 124.291 188.015 124.66 187.95 125.08ZM197.211 129.14C196.651 129.14 196.133 129.056 195.657 128.888C195.181 128.711 194.775 128.459 194.439 128.132L194.985 127.46C195.396 127.759 195.774 127.978 196.119 128.118C196.464 128.249 196.819 128.314 197.183 128.314C197.678 128.314 198.088 128.197 198.415 127.964C198.742 127.731 198.905 127.432 198.905 127.068C198.905 126.788 198.807 126.569 198.611 126.41C198.424 126.251 198.112 126.13 197.673 126.046L196.553 125.85C195.89 125.729 195.4 125.523 195.083 125.234C194.775 124.945 194.621 124.553 194.621 124.058C194.621 123.666 194.724 123.321 194.929 123.022C195.144 122.723 195.438 122.49 195.811 122.322C196.184 122.145 196.609 122.056 197.085 122.056C197.552 122.056 197.995 122.126 198.415 122.266C198.835 122.397 199.26 122.611 199.689 122.91L199.185 123.624C198.83 123.372 198.476 123.19 198.121 123.078C197.766 122.957 197.407 122.896 197.043 122.896C196.595 122.896 196.236 122.994 195.965 123.19C195.694 123.386 195.559 123.652 195.559 123.988C195.559 124.268 195.643 124.483 195.811 124.632C195.988 124.781 196.296 124.893 196.735 124.968L197.883 125.178C198.574 125.299 199.078 125.509 199.395 125.808C199.712 126.107 199.871 126.508 199.871 127.012C199.871 127.413 199.754 127.777 199.521 128.104C199.288 128.421 198.97 128.673 198.569 128.86C198.168 129.047 197.715 129.14 197.211 129.14ZM204.561 129.112C203.927 129.112 203.353 128.958 202.839 128.65C202.335 128.333 201.934 127.908 201.635 127.376C201.337 126.835 201.187 126.237 201.187 125.584C201.187 124.921 201.337 124.324 201.635 123.792C201.934 123.26 202.335 122.84 202.839 122.532C203.353 122.215 203.927 122.056 204.561 122.056C205.065 122.056 205.546 122.149 206.003 122.336C206.461 122.523 206.857 122.784 207.193 123.12L206.535 123.834C206.293 123.563 205.999 123.353 205.653 123.204C205.308 123.055 204.958 122.98 204.603 122.98C204.155 122.98 203.749 123.097 203.385 123.33C203.031 123.563 202.746 123.876 202.531 124.268C202.317 124.66 202.209 125.099 202.209 125.584C202.209 126.069 202.317 126.508 202.531 126.9C202.746 127.292 203.031 127.605 203.385 127.838C203.749 128.071 204.155 128.188 204.603 128.188C204.958 128.188 205.308 128.113 205.653 127.964C205.999 127.805 206.293 127.595 206.535 127.334L207.193 128.048C206.857 128.384 206.461 128.645 206.003 128.832C205.546 129.019 205.065 129.112 204.561 129.112ZM208.618 129V122.168H209.64V123.568C209.818 123.092 210.07 122.723 210.396 122.462C210.732 122.191 211.115 122.056 211.544 122.056C211.666 122.056 211.778 122.065 211.88 122.084C211.983 122.093 212.086 122.117 212.188 122.154V123.078C212.076 123.041 211.955 123.013 211.824 122.994C211.703 122.966 211.586 122.952 211.474 122.952C211.054 122.952 210.686 123.073 210.368 123.316C210.06 123.559 209.818 123.899 209.64 124.338V129H208.618ZM213.526 129V122.168H214.548V129H213.526ZM214.044 120.474C213.839 120.474 213.662 120.404 213.512 120.264C213.372 120.115 213.302 119.942 213.302 119.746C213.302 119.55 213.372 119.382 213.512 119.242C213.662 119.093 213.839 119.018 214.044 119.018C214.25 119.018 214.422 119.093 214.562 119.242C214.712 119.382 214.786 119.55 214.786 119.746C214.786 119.942 214.712 120.115 214.562 120.264C214.422 120.404 214.25 120.474 214.044 120.474ZM216.644 131.926V122.168H217.652V123.148C217.913 122.803 218.23 122.541 218.604 122.364C218.986 122.177 219.406 122.084 219.864 122.084C220.461 122.084 220.993 122.243 221.46 122.56C221.936 122.868 222.314 123.288 222.594 123.82C222.874 124.343 223.014 124.931 223.014 125.584C223.014 126.237 222.869 126.83 222.58 127.362C222.3 127.894 221.917 128.319 221.432 128.636C220.956 128.944 220.414 129.098 219.808 129.098C219.378 129.098 218.982 129.019 218.618 128.86C218.254 128.692 217.936 128.454 217.666 128.146V131.926H216.644ZM219.612 128.216C220.069 128.216 220.475 128.104 220.83 127.88C221.194 127.647 221.478 127.334 221.684 126.942C221.898 126.541 222.006 126.093 222.006 125.598C222.006 125.094 221.898 124.646 221.684 124.254C221.478 123.862 221.194 123.554 220.83 123.33C220.475 123.097 220.069 122.98 219.612 122.98C219.21 122.98 218.837 123.064 218.492 123.232C218.156 123.391 217.88 123.619 217.666 123.918V127.264C217.89 127.563 218.17 127.796 218.506 127.964C218.851 128.132 219.22 128.216 219.612 128.216ZM226.986 129.14C226.398 129.14 225.95 129 225.642 128.72C225.343 128.431 225.194 128.015 225.194 127.474V123.008H223.78V122.168H225.194V120.292L226.216 120.054V122.168H228.176V123.008H226.216V127.208C226.216 127.572 226.291 127.833 226.44 127.992C226.599 128.151 226.855 128.23 227.21 128.23C227.387 128.23 227.546 128.216 227.686 128.188C227.826 128.16 227.989 128.113 228.176 128.048V128.958C227.989 129.023 227.793 129.07 227.588 129.098C227.383 129.126 227.182 129.14 226.986 129.14ZM229.659 129V122.168H230.681V129H229.659ZM230.177 120.474C229.972 120.474 229.794 120.404 229.645 120.264C229.505 120.115 229.435 119.942 229.435 119.746C229.435 119.55 229.505 119.382 229.645 119.242C229.794 119.093 229.972 119.018 230.177 119.018C230.382 119.018 230.555 119.093 230.695 119.242C230.844 119.382 230.919 119.55 230.919 119.746C230.919 119.942 230.844 120.115 230.695 120.264C230.555 120.404 230.382 120.474 230.177 120.474ZM235.801 129.112C235.166 129.112 234.597 128.958 234.093 128.65C233.589 128.342 233.192 127.922 232.903 127.39C232.613 126.858 232.469 126.256 232.469 125.584C232.469 124.912 232.613 124.31 232.903 123.778C233.192 123.246 233.589 122.826 234.093 122.518C234.597 122.21 235.166 122.056 235.801 122.056C236.426 122.056 236.986 122.21 237.481 122.518C237.985 122.826 238.381 123.246 238.671 123.778C238.96 124.31 239.105 124.912 239.105 125.584C239.105 126.256 238.96 126.858 238.671 127.39C238.381 127.922 237.985 128.342 237.481 128.65C236.986 128.958 236.426 129.112 235.801 129.112ZM235.787 128.216C236.235 128.216 236.631 128.104 236.977 127.88C237.322 127.647 237.593 127.329 237.789 126.928C237.994 126.527 238.097 126.079 238.097 125.584C238.097 125.08 237.994 124.632 237.789 124.24C237.593 123.839 237.322 123.526 236.977 123.302C236.631 123.069 236.235 122.952 235.787 122.952C235.339 122.952 234.942 123.069 234.597 123.302C234.251 123.526 233.976 123.839 233.771 124.24C233.575 124.632 233.477 125.08 233.477 125.584C233.477 126.079 233.575 126.527 233.771 126.928C233.976 127.329 234.251 127.647 234.597 127.88C234.942 128.104 235.339 128.216 235.787 128.216ZM240.898 129V122.168H241.92V123.274C242.181 122.863 242.494 122.56 242.858 122.364C243.222 122.159 243.632 122.056 244.09 122.056C244.584 122.056 245.014 122.163 245.378 122.378C245.751 122.583 246.04 122.877 246.246 123.26C246.46 123.633 246.568 124.072 246.568 124.576V129H245.546V124.87C245.546 124.263 245.378 123.787 245.042 123.442C244.715 123.087 244.272 122.91 243.712 122.91C243.338 122.91 242.998 122.999 242.69 123.176C242.382 123.353 242.125 123.615 241.92 123.96V129H240.898ZM251.89 129V118.892L252.912 118.682V129H251.89ZM254.993 129V122.168H256.015V129H254.993ZM255.511 120.474C255.306 120.474 255.128 120.404 254.979 120.264C254.839 120.115 254.769 119.942 254.769 119.746C254.769 119.55 254.839 119.382 254.979 119.242C255.128 119.093 255.306 119.018 255.511 119.018C255.716 119.018 255.889 119.093 256.029 119.242C256.178 119.382 256.253 119.55 256.253 119.746C256.253 119.942 256.178 120.115 256.029 120.264C255.889 120.404 255.716 120.474 255.511 120.474ZM260.225 129.14C259.665 129.14 259.147 129.056 258.671 128.888C258.195 128.711 257.789 128.459 257.453 128.132L257.999 127.46C258.409 127.759 258.787 127.978 259.133 128.118C259.478 128.249 259.833 128.314 260.197 128.314C260.691 128.314 261.102 128.197 261.429 127.964C261.755 127.731 261.919 127.432 261.919 127.068C261.919 126.788 261.821 126.569 261.625 126.41C261.438 126.251 261.125 126.13 260.687 126.046L259.567 125.85C258.904 125.729 258.414 125.523 258.097 125.234C257.789 124.945 257.635 124.553 257.635 124.058C257.635 123.666 257.737 123.321 257.943 123.022C258.157 122.723 258.451 122.49 258.825 122.322C259.198 122.145 259.623 122.056 260.099 122.056C260.565 122.056 261.009 122.126 261.429 122.266C261.849 122.397 262.273 122.611 262.703 122.91L262.199 123.624C261.844 123.372 261.489 123.19 261.135 123.078C260.78 122.957 260.421 122.896 260.057 122.896C259.609 122.896 259.249 122.994 258.979 123.19C258.708 123.386 258.573 123.652 258.573 123.988C258.573 124.268 258.657 124.483 258.825 124.632C259.002 124.781 259.31 124.893 259.749 124.968L260.897 125.178C261.587 125.299 262.091 125.509 262.409 125.808C262.726 126.107 262.885 126.508 262.885 127.012C262.885 127.413 262.768 127.777 262.535 128.104C262.301 128.421 261.984 128.673 261.583 128.86C261.181 129.047 260.729 129.14 260.225 129.14ZM266.908 129.14C266.32 129.14 265.872 129 265.564 128.72C265.265 128.431 265.116 128.015 265.116 127.474V123.008H263.702V122.168H265.116V120.292L266.138 120.054V122.168H268.098V123.008H266.138V127.208C266.138 127.572 266.213 127.833 266.362 127.992C266.521 128.151 266.777 128.23 267.132 128.23C267.309 128.23 267.468 128.216 267.608 128.188C267.748 128.16 267.911 128.113 268.098 128.048V128.958C267.911 129.023 267.715 129.07 267.51 129.098C267.305 129.126 267.104 129.14 266.908 129.14ZM272.849 129V122.168H273.87V129H272.849ZM273.367 120.474C273.161 120.474 272.984 120.404 272.835 120.264C272.695 120.115 272.625 119.942 272.625 119.746C272.625 119.55 272.695 119.382 272.835 119.242C272.984 119.093 273.161 119.018 273.367 119.018C273.572 119.018 273.745 119.093 273.885 119.242C274.034 119.382 274.109 119.55 274.109 119.746C274.109 119.942 274.034 120.115 273.885 120.264C273.745 120.404 273.572 120.474 273.367 120.474ZM278.57 129.14C277.982 129.14 277.534 129 277.226 128.72C276.927 128.431 276.778 128.015 276.778 127.474V123.008H275.364V122.168H276.778V120.292L277.8 120.054V122.168H279.76V123.008H277.8V127.208C277.8 127.572 277.875 127.833 278.024 127.992C278.183 128.151 278.439 128.23 278.794 128.23C278.971 128.23 279.13 128.216 279.27 128.188C279.41 128.16 279.573 128.113 279.76 128.048V128.958C279.573 129.023 279.377 129.07 279.172 129.098C278.967 129.126 278.766 129.14 278.57 129.14ZM284.2 129.14C283.566 129.14 282.992 128.986 282.478 128.678C281.965 128.361 281.559 127.936 281.26 127.404C280.962 126.863 280.812 126.256 280.812 125.584C280.812 124.912 280.952 124.31 281.232 123.778C281.522 123.246 281.909 122.826 282.394 122.518C282.88 122.21 283.421 122.056 284.018 122.056C284.625 122.056 285.162 122.21 285.628 122.518C286.104 122.817 286.478 123.227 286.748 123.75C287.028 124.263 287.168 124.847 287.168 125.5V125.808H281.806C281.844 126.275 281.97 126.695 282.184 127.068C282.408 127.432 282.698 127.721 283.052 127.936C283.416 128.141 283.813 128.244 284.242 128.244C284.597 128.244 284.938 128.183 285.264 128.062C285.6 127.931 285.885 127.759 286.118 127.544L286.762 128.23C286.37 128.538 285.964 128.767 285.544 128.916C285.124 129.065 284.676 129.14 284.2 129.14ZM281.834 125.08H286.16C286.114 124.669 285.988 124.305 285.782 123.988C285.586 123.661 285.334 123.405 285.026 123.218C284.728 123.031 284.392 122.938 284.018 122.938C283.645 122.938 283.304 123.031 282.996 123.218C282.688 123.395 282.432 123.647 282.226 123.974C282.03 124.291 281.9 124.66 281.834 125.08ZM288.913 129V122.168H289.935V123.232C290.197 122.84 290.495 122.546 290.831 122.35C291.167 122.154 291.545 122.056 291.965 122.056C292.451 122.056 292.875 122.177 293.239 122.42C293.603 122.653 293.879 122.975 294.065 123.386C294.336 122.947 294.658 122.616 295.031 122.392C295.414 122.168 295.853 122.056 296.347 122.056C296.805 122.056 297.206 122.163 297.551 122.378C297.906 122.593 298.181 122.891 298.377 123.274C298.573 123.647 298.671 124.086 298.671 124.59V129H297.649V124.842C297.649 124.245 297.5 123.773 297.201 123.428C296.903 123.083 296.492 122.91 295.969 122.91C295.615 122.91 295.293 122.999 295.003 123.176C294.723 123.353 294.476 123.624 294.261 123.988C294.28 124.081 294.294 124.179 294.303 124.282C294.313 124.385 294.317 124.487 294.317 124.59V129H293.295V124.842C293.295 124.245 293.141 123.773 292.833 123.428C292.535 123.083 292.124 122.91 291.601 122.91C290.901 122.91 290.346 123.246 289.935 123.918V129H288.913Z" fill="#151515"/>
<path d="M40.948 174V165.6H42.388V174H40.948ZM44.1798 174V167.988H45.5358V168.972C45.7678 168.612 46.0438 168.344 46.3638 168.168C46.6838 167.984 47.0398 167.892 47.4318 167.892C47.8478 167.892 48.2118 167.984 48.5238 168.168C48.8358 168.344 49.0798 168.592 49.2558 168.912C49.4398 169.232 49.5318 169.608 49.5318 170.04V174H48.1638V170.424C48.1638 169.984 48.0438 169.636 47.8038 169.38C47.5638 169.116 47.2438 168.984 46.8438 168.984C46.5718 168.984 46.3238 169.048 46.0998 169.176C45.8838 169.296 45.6958 169.476 45.5358 169.716V174H44.1798ZM51.1642 176.508V167.988H52.4962V168.84C52.7122 168.552 52.9802 168.332 53.3002 168.18C53.6282 168.02 53.9842 167.94 54.3682 167.94C54.8802 167.94 55.3402 168.076 55.7482 168.348C56.1562 168.62 56.4802 168.988 56.7202 169.452C56.9602 169.916 57.0802 170.432 57.0802 171C57.0802 171.568 56.9562 172.084 56.7082 172.548C56.4602 173.012 56.1242 173.38 55.7002 173.652C55.2762 173.924 54.8042 174.06 54.2842 174.06C53.9242 174.06 53.5922 173.996 53.2882 173.868C52.9922 173.732 52.7362 173.54 52.5202 173.292V176.508H51.1642ZM53.9602 172.932C54.3042 172.932 54.6082 172.848 54.8722 172.68C55.1442 172.512 55.3562 172.284 55.5082 171.996C55.6682 171.7 55.7482 171.368 55.7482 171C55.7482 170.632 55.6682 170.304 55.5082 170.016C55.3562 169.728 55.1442 169.5 54.8722 169.332C54.6082 169.164 54.3042 169.08 53.9602 169.08C53.6642 169.08 53.3922 169.14 53.1442 169.26C52.8962 169.372 52.6882 169.536 52.5202 169.752V172.26C52.6962 172.468 52.9082 172.632 53.1562 172.752C53.4042 172.872 53.6722 172.932 53.9602 172.932ZM60.5522 174.096C60.1362 174.096 59.7722 174.004 59.4602 173.82C59.1482 173.636 58.9002 173.384 58.7162 173.064C58.5402 172.744 58.4522 172.372 58.4522 171.948V167.988H59.8202V171.552C59.8202 172 59.9362 172.356 60.1682 172.62C60.4082 172.876 60.7322 173.004 61.1402 173.004C61.4122 173.004 61.6562 172.944 61.8722 172.824C62.0962 172.704 62.2882 172.524 62.4482 172.284V167.988H63.8042V174H62.4482V173.028C62.2162 173.38 61.9402 173.648 61.6202 173.832C61.3002 174.008 60.9442 174.096 60.5522 174.096ZM68.0765 174.12C67.4685 174.12 67.0085 173.98 66.6965 173.7C66.3845 173.412 66.2285 172.992 66.2285 172.44V169.068H65.0285V167.988H66.2285V166.332L67.5845 166.044V167.988H69.2525V169.068H67.5845V172.14C67.5845 172.436 67.6485 172.648 67.7765 172.776C67.9045 172.896 68.1205 172.956 68.4245 172.956C68.5605 172.956 68.6845 172.948 68.7965 172.932C68.9165 172.908 69.0645 172.868 69.2405 172.812V173.952C69.0725 174.008 68.8805 174.048 68.6645 174.072C68.4565 174.104 68.2605 174.12 68.0765 174.12ZM73.1486 174V165.396L74.5046 165.156V174H73.1486ZM77.996 174.108C77.58 174.108 77.208 174.032 76.88 173.88C76.56 173.72 76.308 173.504 76.124 173.232C75.948 172.952 75.86 172.632 75.86 172.272C75.86 171.912 75.952 171.6 76.136 171.336C76.328 171.072 76.596 170.868 76.94 170.724C77.284 170.58 77.692 170.508 78.164 170.508C78.444 170.508 78.72 170.54 78.992 170.604C79.264 170.66 79.528 170.756 79.784 170.892V170.22C79.784 169.82 79.668 169.52 79.436 169.32C79.212 169.12 78.868 169.02 78.404 169.02C78.156 169.02 77.888 169.06 77.6 169.14C77.32 169.212 77.004 169.328 76.652 169.488L76.172 168.504C77.052 168.096 77.884 167.892 78.668 167.892C79.452 167.892 80.056 168.084 80.48 168.468C80.912 168.844 81.128 169.38 81.128 170.076V174H79.784V173.376C79.528 173.624 79.252 173.808 78.956 173.928C78.66 174.048 78.34 174.108 77.996 174.108ZM77.132 172.248C77.132 172.528 77.244 172.748 77.468 172.908C77.692 173.068 77.992 173.148 78.368 173.148C78.64 173.148 78.892 173.108 79.124 173.028C79.364 172.94 79.584 172.812 79.784 172.644V171.672C79.576 171.576 79.36 171.504 79.136 171.456C78.912 171.408 78.668 171.384 78.404 171.384C78.012 171.384 77.7 171.46 77.468 171.612C77.244 171.764 77.132 171.976 77.132 172.248ZM82.7697 174V165.432L84.1257 165.204V168.792C84.3417 168.52 84.6057 168.312 84.9177 168.168C85.2377 168.016 85.5897 167.94 85.9737 167.94C86.4857 167.94 86.9457 168.076 87.3537 168.348C87.7617 168.62 88.0857 168.988 88.3257 169.452C88.5657 169.916 88.6857 170.432 88.6857 171C88.6857 171.568 88.5617 172.084 88.3137 172.548C88.0657 173.012 87.7297 173.38 87.3057 173.652C86.8817 173.924 86.4097 174.06 85.8897 174.06C85.5297 174.06 85.1977 173.988 84.8937 173.844C84.5897 173.7 84.3257 173.496 84.1017 173.232V174H82.7697ZM85.5657 172.932C85.9097 172.932 86.2137 172.848 86.4777 172.68C86.7497 172.512 86.9617 172.284 87.1137 171.996C87.2737 171.7 87.3537 171.368 87.3537 171C87.3537 170.632 87.2737 170.304 87.1137 170.016C86.9617 169.728 86.7497 169.5 86.4777 169.332C86.2137 169.164 85.9097 169.08 85.5657 169.08C85.2697 169.08 84.9977 169.14 84.7497 169.26C84.5017 169.372 84.2937 169.536 84.1257 169.752V172.26C84.3017 172.468 84.5137 172.632 84.7617 172.752C85.0097 172.872 85.2777 172.932 85.5657 172.932ZM92.9016 174.12C92.3256 174.12 91.8056 173.984 91.3416 173.712C90.8776 173.432 90.5096 173.06 90.2376 172.596C89.9656 172.124 89.8296 171.592 89.8296 171C89.8296 170.408 89.9576 169.88 90.2136 169.416C90.4696 168.952 90.8176 168.584 91.2576 168.312C91.7056 168.032 92.2016 167.892 92.7456 167.892C93.3056 167.892 93.7976 168.028 94.2216 168.3C94.6536 168.572 94.9896 168.94 95.2296 169.404C95.4776 169.868 95.6016 170.4 95.6016 171V171.324H91.1616C91.2096 171.652 91.3136 171.944 91.4736 172.2C91.6416 172.448 91.8536 172.644 92.1096 172.788C92.3736 172.932 92.6576 173.004 92.9616 173.004C93.2416 173.004 93.5056 172.956 93.7536 172.86C94.0096 172.756 94.2216 172.616 94.3896 172.44L95.2776 173.244C94.9096 173.548 94.5336 173.772 94.1496 173.916C93.7736 174.052 93.3576 174.12 92.9016 174.12ZM91.1736 170.484H94.3176C94.2696 170.196 94.1696 169.94 94.0176 169.716C93.8736 169.492 93.6896 169.316 93.4656 169.188C93.2496 169.06 93.0096 168.996 92.7456 168.996C92.4816 168.996 92.2376 169.06 92.0136 169.188C91.7976 169.308 91.6176 169.48 91.4736 169.704C91.3296 169.928 91.2296 170.188 91.1736 170.484ZM96.9845 174V165.396L98.3405 165.156V174H96.9845Z" fill="#151515"/>
<path d="M178.324 173.034H180.564C181.273 173.034 181.908 172.861 182.468 172.516C183.028 172.171 183.471 171.704 183.798 171.116C184.134 170.519 184.302 169.847 184.302 169.1C184.302 168.353 184.134 167.686 183.798 167.098C183.471 166.501 183.028 166.029 182.468 165.684C181.908 165.339 181.273 165.166 180.564 165.166H178.324V173.034ZM177.246 174V164.2H180.494C181.213 164.2 181.871 164.326 182.468 164.578C183.075 164.821 183.593 165.166 184.022 165.614C184.461 166.053 184.797 166.571 185.03 167.168C185.273 167.756 185.394 168.4 185.394 169.1C185.394 169.8 185.273 170.449 185.03 171.046C184.797 171.634 184.461 172.152 184.022 172.6C183.593 173.039 183.075 173.384 182.468 173.636C181.871 173.879 181.213 174 180.494 174H177.246ZM190.316 174.14C189.681 174.14 189.107 173.986 188.594 173.678C188.08 173.361 187.674 172.936 187.376 172.404C187.077 171.863 186.928 171.256 186.928 170.584C186.928 169.912 187.068 169.31 187.348 168.778C187.637 168.246 188.024 167.826 188.51 167.518C188.995 167.21 189.536 167.056 190.134 167.056C190.74 167.056 191.277 167.21 191.744 167.518C192.22 167.817 192.593 168.227 192.864 168.75C193.144 169.263 193.284 169.847 193.284 170.5V170.808H187.922C187.959 171.275 188.085 171.695 188.3 172.068C188.524 172.432 188.813 172.721 189.168 172.936C189.532 173.141 189.928 173.244 190.358 173.244C190.712 173.244 191.053 173.183 191.38 173.062C191.716 172.931 192 172.759 192.234 172.544L192.878 173.23C192.486 173.538 192.08 173.767 191.66 173.916C191.24 174.065 190.792 174.14 190.316 174.14ZM187.95 170.08H192.276C192.229 169.669 192.103 169.305 191.898 168.988C191.702 168.661 191.45 168.405 191.142 168.218C190.843 168.031 190.507 167.938 190.134 167.938C189.76 167.938 189.42 168.031 189.112 168.218C188.804 168.395 188.547 168.647 188.342 168.974C188.146 169.291 188.015 169.66 187.95 170.08ZM197.211 174.14C196.651 174.14 196.133 174.056 195.657 173.888C195.181 173.711 194.775 173.459 194.439 173.132L194.985 172.46C195.396 172.759 195.774 172.978 196.119 173.118C196.464 173.249 196.819 173.314 197.183 173.314C197.678 173.314 198.088 173.197 198.415 172.964C198.742 172.731 198.905 172.432 198.905 172.068C198.905 171.788 198.807 171.569 198.611 171.41C198.424 171.251 198.112 171.13 197.673 171.046L196.553 170.85C195.89 170.729 195.4 170.523 195.083 170.234C194.775 169.945 194.621 169.553 194.621 169.058C194.621 168.666 194.724 168.321 194.929 168.022C195.144 167.723 195.438 167.49 195.811 167.322C196.184 167.145 196.609 167.056 197.085 167.056C197.552 167.056 197.995 167.126 198.415 167.266C198.835 167.397 199.26 167.611 199.689 167.91L199.185 168.624C198.83 168.372 198.476 168.19 198.121 168.078C197.766 167.957 197.407 167.896 197.043 167.896C196.595 167.896 196.236 167.994 195.965 168.19C195.694 168.386 195.559 168.652 195.559 168.988C195.559 169.268 195.643 169.483 195.811 169.632C195.988 169.781 196.296 169.893 196.735 169.968L197.883 170.178C198.574 170.299 199.078 170.509 199.395 170.808C199.712 171.107 199.871 171.508 199.871 172.012C199.871 172.413 199.754 172.777 199.521 173.104C199.288 173.421 198.97 173.673 198.569 173.86C198.168 174.047 197.715 174.14 197.211 174.14ZM204.561 174.112C203.927 174.112 203.353 173.958 202.839 173.65C202.335 173.333 201.934 172.908 201.635 172.376C201.337 171.835 201.187 171.237 201.187 170.584C201.187 169.921 201.337 169.324 201.635 168.792C201.934 168.26 202.335 167.84 202.839 167.532C203.353 167.215 203.927 167.056 204.561 167.056C205.065 167.056 205.546 167.149 206.003 167.336C206.461 167.523 206.857 167.784 207.193 168.12L206.535 168.834C206.293 168.563 205.999 168.353 205.653 168.204C205.308 168.055 204.958 167.98 204.603 167.98C204.155 167.98 203.749 168.097 203.385 168.33C203.031 168.563 202.746 168.876 202.531 169.268C202.317 169.66 202.209 170.099 202.209 170.584C202.209 171.069 202.317 171.508 202.531 171.9C202.746 172.292 203.031 172.605 203.385 172.838C203.749 173.071 204.155 173.188 204.603 173.188C204.958 173.188 205.308 173.113 205.653 172.964C205.999 172.805 206.293 172.595 206.535 172.334L207.193 173.048C206.857 173.384 206.461 173.645 206.003 173.832C205.546 174.019 205.065 174.112 204.561 174.112ZM208.618 174V167.168H209.64V168.568C209.818 168.092 210.07 167.723 210.396 167.462C210.732 167.191 211.115 167.056 211.544 167.056C211.666 167.056 211.778 167.065 211.88 167.084C211.983 167.093 212.086 167.117 212.188 167.154V168.078C212.076 168.041 211.955 168.013 211.824 167.994C211.703 167.966 211.586 167.952 211.474 167.952C211.054 167.952 210.686 168.073 210.368 168.316C210.06 168.559 209.818 168.899 209.64 169.338V174H208.618ZM213.526 174V167.168H214.548V174H213.526ZM214.044 165.474C213.839 165.474 213.662 165.404 213.512 165.264C213.372 165.115 213.302 164.942 213.302 164.746C213.302 164.55 213.372 164.382 213.512 164.242C213.662 164.093 213.839 164.018 214.044 164.018C214.25 164.018 214.422 164.093 214.562 164.242C214.712 164.382 214.786 164.55 214.786 164.746C214.786 164.942 214.712 165.115 214.562 165.264C214.422 165.404 214.25 165.474 214.044 165.474ZM216.644 176.926V167.168H217.652V168.148C217.913 167.803 218.23 167.541 218.604 167.364C218.986 167.177 219.406 167.084 219.864 167.084C220.461 167.084 220.993 167.243 221.46 167.56C221.936 167.868 222.314 168.288 222.594 168.82C222.874 169.343 223.014 169.931 223.014 170.584C223.014 171.237 222.869 171.83 222.58 172.362C222.3 172.894 221.917 173.319 221.432 173.636C220.956 173.944 220.414 174.098 219.808 174.098C219.378 174.098 218.982 174.019 218.618 173.86C218.254 173.692 217.936 173.454 217.666 173.146V176.926H216.644ZM219.612 173.216C220.069 173.216 220.475 173.104 220.83 172.88C221.194 172.647 221.478 172.334 221.684 171.942C221.898 171.541 222.006 171.093 222.006 170.598C222.006 170.094 221.898 169.646 221.684 169.254C221.478 168.862 221.194 168.554 220.83 168.33C220.475 168.097 220.069 167.98 219.612 167.98C219.21 167.98 218.837 168.064 218.492 168.232C218.156 168.391 217.88 168.619 217.666 168.918V172.264C217.89 172.563 218.17 172.796 218.506 172.964C218.851 173.132 219.22 173.216 219.612 173.216ZM226.986 174.14C226.398 174.14 225.95 174 225.642 173.72C225.343 173.431 225.194 173.015 225.194 172.474V168.008H223.78V167.168H225.194V165.292L226.216 165.054V167.168H228.176V168.008H226.216V172.208C226.216 172.572 226.291 172.833 226.44 172.992C226.599 173.151 226.855 173.23 227.21 173.23C227.387 173.23 227.546 173.216 227.686 173.188C227.826 173.16 227.989 173.113 228.176 173.048V173.958C227.989 174.023 227.793 174.07 227.588 174.098C227.383 174.126 227.182 174.14 226.986 174.14ZM229.659 174V167.168H230.681V174H229.659ZM230.177 165.474C229.972 165.474 229.794 165.404 229.645 165.264C229.505 165.115 229.435 164.942 229.435 164.746C229.435 164.55 229.505 164.382 229.645 164.242C229.794 164.093 229.972 164.018 230.177 164.018C230.382 164.018 230.555 164.093 230.695 164.242C230.844 164.382 230.919 164.55 230.919 164.746C230.919 164.942 230.844 165.115 230.695 165.264C230.555 165.404 230.382 165.474 230.177 165.474ZM235.801 174.112C235.166 174.112 234.597 173.958 234.093 173.65C233.589 173.342 233.192 172.922 232.903 172.39C232.613 171.858 232.469 171.256 232.469 170.584C232.469 169.912 232.613 169.31 232.903 168.778C233.192 168.246 233.589 167.826 234.093 167.518C234.597 167.21 235.166 167.056 235.801 167.056C236.426 167.056 236.986 167.21 237.481 167.518C237.985 167.826 238.381 168.246 238.671 168.778C238.96 169.31 239.105 169.912 239.105 170.584C239.105 171.256 238.96 171.858 238.671 172.39C238.381 172.922 237.985 173.342 237.481 173.65C236.986 173.958 236.426 174.112 235.801 174.112ZM235.787 173.216C236.235 173.216 236.631 173.104 236.977 172.88C237.322 172.647 237.593 172.329 237.789 171.928C237.994 171.527 238.097 171.079 238.097 170.584C238.097 170.08 237.994 169.632 237.789 169.24C237.593 168.839 237.322 168.526 236.977 168.302C236.631 168.069 236.235 167.952 235.787 167.952C235.339 167.952 234.942 168.069 234.597 168.302C234.251 168.526 233.976 168.839 233.771 169.24C233.575 169.632 233.477 170.08 233.477 170.584C233.477 171.079 233.575 171.527 233.771 171.928C233.976 172.329 234.251 172.647 234.597 172.88C234.942 173.104 235.339 173.216 235.787 173.216ZM240.898 174V167.168H241.92V168.274C242.181 167.863 242.494 167.56 242.858 167.364C243.222 167.159 243.632 167.056 244.09 167.056C244.584 167.056 245.014 167.163 245.378 167.378C245.751 167.583 246.04 167.877 246.246 168.26C246.46 168.633 246.568 169.072 246.568 169.576V174H245.546V169.87C245.546 169.263 245.378 168.787 245.042 168.442C244.715 168.087 244.272 167.91 243.712 167.91C243.338 167.91 242.998 167.999 242.69 168.176C242.382 168.353 242.125 168.615 241.92 168.96V174H240.898ZM251.89 174V163.892L252.912 163.682V174H251.89ZM254.993 174V167.168H256.015V174H254.993ZM255.511 165.474C255.306 165.474 255.128 165.404 254.979 165.264C254.839 165.115 254.769 164.942 254.769 164.746C254.769 164.55 254.839 164.382 254.979 164.242C255.128 164.093 255.306 164.018 255.511 164.018C255.716 164.018 255.889 164.093 256.029 164.242C256.178 164.382 256.253 164.55 256.253 164.746C256.253 164.942 256.178 165.115 256.029 165.264C255.889 165.404 255.716 165.474 255.511 165.474ZM260.225 174.14C259.665 174.14 259.147 174.056 258.671 173.888C258.195 173.711 257.789 173.459 257.453 173.132L257.999 172.46C258.409 172.759 258.787 172.978 259.133 173.118C259.478 173.249 259.833 173.314 260.197 173.314C260.691 173.314 261.102 173.197 261.429 172.964C261.755 172.731 261.919 172.432 261.919 172.068C261.919 171.788 261.821 171.569 261.625 171.41C261.438 171.251 261.125 171.13 260.687 171.046L259.567 170.85C258.904 170.729 258.414 170.523 258.097 170.234C257.789 169.945 257.635 169.553 257.635 169.058C257.635 168.666 257.737 168.321 257.943 168.022C258.157 167.723 258.451 167.49 258.825 167.322C259.198 167.145 259.623 167.056 260.099 167.056C260.565 167.056 261.009 167.126 261.429 167.266C261.849 167.397 262.273 167.611 262.703 167.91L262.199 168.624C261.844 168.372 261.489 168.19 261.135 168.078C260.78 167.957 260.421 167.896 260.057 167.896C259.609 167.896 259.249 167.994 258.979 168.19C258.708 168.386 258.573 168.652 258.573 168.988C258.573 169.268 258.657 169.483 258.825 169.632C259.002 169.781 259.31 169.893 259.749 169.968L260.897 170.178C261.587 170.299 262.091 170.509 262.409 170.808C262.726 171.107 262.885 171.508 262.885 172.012C262.885 172.413 262.768 172.777 262.535 173.104C262.301 173.421 261.984 173.673 261.583 173.86C261.181 174.047 260.729 174.14 260.225 174.14ZM266.908 174.14C266.32 174.14 265.872 174 265.564 173.72C265.265 173.431 265.116 173.015 265.116 172.474V168.008H263.702V167.168H265.116V165.292L266.138 165.054V167.168H268.098V168.008H266.138V172.208C266.138 172.572 266.213 172.833 266.362 172.992C266.521 173.151 266.777 173.23 267.132 173.23C267.309 173.23 267.468 173.216 267.608 173.188C267.748 173.16 267.911 173.113 268.098 173.048V173.958C267.911 174.023 267.715 174.07 267.51 174.098C267.305 174.126 267.104 174.14 266.908 174.14ZM272.849 174V167.168H273.87V174H272.849ZM273.367 165.474C273.161 165.474 272.984 165.404 272.835 165.264C272.695 165.115 272.625 164.942 272.625 164.746C272.625 164.55 272.695 164.382 272.835 164.242C272.984 164.093 273.161 164.018 273.367 164.018C273.572 164.018 273.745 164.093 273.885 164.242C274.034 164.382 274.109 164.55 274.109 164.746C274.109 164.942 274.034 165.115 273.885 165.264C273.745 165.404 273.572 165.474 273.367 165.474ZM278.57 174.14C277.982 174.14 277.534 174 277.226 173.72C276.927 173.431 276.778 173.015 276.778 172.474V168.008H275.364V167.168H276.778V165.292L277.8 165.054V167.168H279.76V168.008H277.8V172.208C277.8 172.572 277.875 172.833 278.024 172.992C278.183 173.151 278.439 173.23 278.794 173.23C278.971 173.23 279.13 173.216 279.27 173.188C279.41 173.16 279.573 173.113 279.76 173.048V173.958C279.573 174.023 279.377 174.07 279.172 174.098C278.967 174.126 278.766 174.14 278.57 174.14ZM284.2 174.14C283.566 174.14 282.992 173.986 282.478 173.678C281.965 173.361 281.559 172.936 281.26 172.404C280.962 171.863 280.812 171.256 280.812 170.584C280.812 169.912 280.952 169.31 281.232 168.778C281.522 168.246 281.909 167.826 282.394 167.518C282.88 167.21 283.421 167.056 284.018 167.056C284.625 167.056 285.162 167.21 285.628 167.518C286.104 167.817 286.478 168.227 286.748 168.75C287.028 169.263 287.168 169.847 287.168 170.5V170.808H281.806C281.844 171.275 281.97 171.695 282.184 172.068C282.408 172.432 282.698 172.721 283.052 172.936C283.416 173.141 283.813 173.244 284.242 173.244C284.597 173.244 284.938 173.183 285.264 173.062C285.6 172.931 285.885 172.759 286.118 172.544L286.762 173.23C286.37 173.538 285.964 173.767 285.544 173.916C285.124 174.065 284.676 174.14 284.2 174.14ZM281.834 170.08H286.16C286.114 169.669 285.988 169.305 285.782 168.988C285.586 168.661 285.334 168.405 285.026 168.218C284.728 168.031 284.392 167.938 284.018 167.938C283.645 167.938 283.304 168.031 282.996 168.218C282.688 168.395 282.432 168.647 282.226 168.974C282.03 169.291 281.9 169.66 281.834 170.08ZM288.913 174V167.168H289.935V168.232C290.197 167.84 290.495 167.546 290.831 167.35C291.167 167.154 291.545 167.056 291.965 167.056C292.451 167.056 292.875 167.177 293.239 167.42C293.603 167.653 293.879 167.975 294.065 168.386C294.336 167.947 294.658 167.616 295.031 167.392C295.414 167.168 295.853 167.056 296.347 167.056C296.805 167.056 297.206 167.163 297.551 167.378C297.906 167.593 298.181 167.891 298.377 168.274C298.573 168.647 298.671 169.086 298.671 169.59V174H297.649V169.842C297.649 169.245 297.5 168.773 297.201 168.428C296.903 168.083 296.492 167.91 295.969 167.91C295.615 167.91 295.293 167.999 295.003 168.176C294.723 168.353 294.476 168.624 294.261 168.988C294.28 169.081 294.294 169.179 294.303 169.282C294.313 169.385 294.317 169.487 294.317 169.59V174H293.295V169.842C293.295 169.245 293.141 168.773 292.833 168.428C292.535 168.083 292.124 167.91 291.601 167.91C290.901 167.91 290.346 168.246 289.935 168.918V174H288.913Z" fill="#151515"/>
</svg>
