<svg width="615" height="260" viewBox="0 0 615 260" fill="none" xmlns="http://www.w3.org/2000/svg">
<rect width="615" height="260" fill="#F2F2F2"/>
<path d="M77.52 42.12H80.4C81.3733 42.12 82.2533 41.8933 83.04 41.44C83.8267 40.9867 84.4467 40.38 84.9 39.62C85.3533 38.8467 85.58 37.98 85.58 37.02C85.58 36.0467 85.3533 35.1733 84.9 34.4C84.4467 33.6267 83.8267 33.0133 83.04 32.56C82.2533 32.1067 81.3733 31.88 80.4 31.88H77.52V42.12ZM75.42 44V30H80.36C81.4133 30 82.3867 30.18 83.28 30.54C84.1733 30.8867 84.9533 31.3733 85.62 32C86.2867 32.6267 86.8067 33.3667 87.18 34.22C87.5533 35.0733 87.74 36 87.74 37C87.74 38.0133 87.5533 38.9467 87.18 39.8C86.82 40.64 86.3067 41.3733 85.64 42C84.9733 42.6267 84.1867 43.12 83.28 43.48C82.3867 43.8267 81.4133 44 80.36 44H75.42ZM94.5513 44.2C93.5646 44.2 92.6646 43.9667 91.8513 43.5C91.0513 43.0333 90.4179 42.4 89.9513 41.6C89.4846 40.8 89.2513 39.9067 89.2513 38.92C89.2513 37.9333 89.4846 37.04 89.9513 36.24C90.4179 35.44 91.0513 34.8067 91.8513 34.34C92.6646 33.86 93.5646 33.62 94.5513 33.62C95.5513 33.62 96.4513 33.86 97.2513 34.34C98.0513 34.8067 98.6846 35.44 99.1513 36.24C99.6179 37.04 99.8513 37.9333 99.8513 38.92C99.8513 39.9067 99.6179 40.8 99.1513 41.6C98.6846 42.4 98.0513 43.0333 97.2513 43.5C96.4513 43.9667 95.5513 44.2 94.5513 44.2ZM94.5513 42.44C95.1779 42.44 95.7379 42.2867 96.2313 41.98C96.7379 41.66 97.1379 41.2333 97.4313 40.7C97.7379 40.1667 97.8913 39.5733 97.8913 38.92C97.8913 38.2533 97.7446 37.66 97.4513 37.14C97.1579 36.6067 96.7579 36.18 96.2513 35.86C95.7446 35.54 95.1779 35.38 94.5513 35.38C93.9246 35.38 93.3579 35.54 92.8513 35.86C92.3446 36.18 91.9446 36.6067 91.6513 37.14C91.3579 37.66 91.2113 38.2533 91.2113 38.92C91.2113 39.5733 91.3579 40.1667 91.6513 40.7C91.9446 41.2333 92.3446 41.66 92.8513 41.98C93.3579 42.2867 93.9246 42.44 94.5513 42.44ZM102.555 44.14C102.208 44.14 101.908 44.02 101.655 43.78C101.415 43.5267 101.295 43.2267 101.295 42.88C101.295 42.5333 101.415 42.24 101.655 42C101.908 41.7467 102.208 41.62 102.555 41.62C102.901 41.62 103.195 41.7467 103.435 42C103.688 42.24 103.815 42.5333 103.815 42.88C103.815 43.2267 103.688 43.5267 103.435 43.78C103.195 44.02 102.901 44.14 102.555 44.14ZM107.555 44.14C107.208 44.14 106.908 44.02 106.655 43.78C106.415 43.5267 106.295 43.2267 106.295 42.88C106.295 42.5333 106.415 42.24 106.655 42C106.908 41.7467 107.208 41.62 107.555 41.62C107.901 41.62 108.195 41.7467 108.435 42C108.688 42.24 108.815 42.5333 108.815 42.88C108.815 43.2267 108.688 43.5267 108.435 43.78C108.195 44.02 107.901 44.14 107.555 44.14ZM112.555 44.14C112.208 44.14 111.908 44.02 111.655 43.78C111.415 43.5267 111.295 43.2267 111.295 42.88C111.295 42.5333 111.415 42.24 111.655 42C111.908 41.7467 112.208 41.62 112.555 41.62C112.901 41.62 113.195 41.7467 113.435 42C113.688 42.24 113.815 42.5333 113.815 42.88C113.815 43.2267 113.688 43.5267 113.435 43.78C113.195 44.02 112.901 44.14 112.555 44.14Z" fill="black"/>
<path fill-rule="evenodd" clip-rule="evenodd" d="M51.5 48.5C58.1274 48.5 63.5 43.1274 63.5 36.5C63.5 29.8726 58.1274 24.5 51.5 24.5C44.8726 24.5 39.5 29.8726 39.5 36.5C39.5 43.1274 44.8726 48.5 51.5 48.5ZM49.017 42.8539L43.9848 37.8216C43.6825 37.5193 43.6825 37.029 43.9848 36.7267L45.0797 35.6319C45.382 35.3295 45.8723 35.3295 46.1746 35.6319L49.5645 39.0218L56.8254 31.7609C57.1278 31.4586 57.618 31.4586 57.9203 31.7609L59.0152 32.8558C59.3175 33.1581 59.3175 33.6484 59.0152 33.9507L50.112 42.8539C49.8096 43.1562 49.3194 43.1562 49.017 42.8539Z" fill="#3D7317"/>
<path d="M385.52 42.12H388.4C389.373 42.12 390.253 41.8933 391.04 41.44C391.827 40.9867 392.447 40.38 392.9 39.62C393.353 38.8467 393.58 37.98 393.58 37.02C393.58 36.0467 393.353 35.1733 392.9 34.4C392.447 33.6267 391.827 33.0133 391.04 32.56C390.253 32.1067 389.373 31.88 388.4 31.88H385.52V42.12ZM383.42 44V30H388.36C389.413 30 390.387 30.18 391.28 30.54C392.173 30.8867 392.953 31.3733 393.62 32C394.287 32.6267 394.807 33.3667 395.18 34.22C395.553 35.0733 395.74 36 395.74 37C395.74 38.0133 395.553 38.9467 395.18 39.8C394.82 40.64 394.307 41.3733 393.64 42C392.973 42.6267 392.187 43.12 391.28 43.48C390.387 43.8267 389.413 44 388.36 44H383.42ZM402.551 44.2C401.565 44.2 400.665 43.9667 399.851 43.5C399.051 43.0333 398.418 42.4 397.951 41.6C397.485 40.8 397.251 39.9067 397.251 38.92C397.251 37.9333 397.485 37.04 397.951 36.24C398.418 35.44 399.051 34.8067 399.851 34.34C400.665 33.86 401.565 33.62 402.551 33.62C403.551 33.62 404.451 33.86 405.251 34.34C406.051 34.8067 406.685 35.44 407.151 36.24C407.618 37.04 407.851 37.9333 407.851 38.92C407.851 39.9067 407.618 40.8 407.151 41.6C406.685 42.4 406.051 43.0333 405.251 43.5C404.451 43.9667 403.551 44.2 402.551 44.2ZM402.551 42.44C403.178 42.44 403.738 42.2867 404.231 41.98C404.738 41.66 405.138 41.2333 405.431 40.7C405.738 40.1667 405.891 39.5733 405.891 38.92C405.891 38.2533 405.745 37.66 405.451 37.14C405.158 36.6067 404.758 36.18 404.251 35.86C403.745 35.54 403.178 35.38 402.551 35.38C401.925 35.38 401.358 35.54 400.851 35.86C400.345 36.18 399.945 36.6067 399.651 37.14C399.358 37.66 399.211 38.2533 399.211 38.92C399.211 39.5733 399.358 40.1667 399.651 40.7C399.945 41.2333 400.345 41.66 400.851 41.98C401.358 42.2867 401.925 42.44 402.551 42.44ZM409.743 44V33.82H411.743V34.86C412.529 34.0333 413.549 33.62 414.803 33.62C415.589 33.62 416.276 33.7867 416.863 34.12C417.463 34.4533 417.929 34.92 418.263 35.52C418.609 36.12 418.783 36.8133 418.783 37.6V44H416.783V37.94C416.783 37.14 416.556 36.5133 416.103 36.06C415.649 35.5933 415.029 35.36 414.243 35.36C413.709 35.36 413.229 35.4733 412.803 35.7C412.376 35.9267 412.023 36.2533 411.743 36.68V44H409.743ZM420.322 34.08L421.562 29.42H423.682L421.842 34.08H420.322ZM429.825 44.18C428.838 44.18 428.085 43.9533 427.565 43.5C427.045 43.0333 426.785 42.36 426.785 41.48V35.5H424.625V33.82H426.785V31.22L428.765 30.74V33.82H431.765V35.5H428.765V41.02C428.765 41.54 428.878 41.9133 429.105 42.14C429.345 42.3533 429.732 42.46 430.265 42.46C430.545 42.46 430.792 42.44 431.005 42.4C431.232 42.36 431.472 42.3 431.725 42.22V43.9C431.458 43.9933 431.145 44.06 430.785 44.1C430.438 44.1533 430.118 44.18 429.825 44.18ZM434.559 44.14C434.212 44.14 433.912 44.02 433.659 43.78C433.419 43.5267 433.299 43.2267 433.299 42.88C433.299 42.5333 433.419 42.24 433.659 42C433.912 41.7467 434.212 41.62 434.559 41.62C434.905 41.62 435.199 41.7467 435.439 42C435.692 42.24 435.819 42.5333 435.819 42.88C435.819 43.2267 435.692 43.5267 435.439 43.78C435.199 44.02 434.905 44.14 434.559 44.14ZM439.559 44.14C439.212 44.14 438.912 44.02 438.659 43.78C438.419 43.5267 438.299 43.2267 438.299 42.88C438.299 42.5333 438.419 42.24 438.659 42C438.912 41.7467 439.212 41.62 439.559 41.62C439.905 41.62 440.199 41.7467 440.439 42C440.692 42.24 440.819 42.5333 440.819 42.88C440.819 43.2267 440.692 43.5267 440.439 43.78C440.199 44.02 439.905 44.14 439.559 44.14ZM444.559 44.14C444.212 44.14 443.912 44.02 443.659 43.78C443.419 43.5267 443.299 43.2267 443.299 42.88C443.299 42.5333 443.419 42.24 443.659 42C443.912 41.7467 444.212 41.62 444.559 41.62C444.905 41.62 445.199 41.7467 445.439 42C445.692 42.24 445.819 42.5333 445.819 42.88C445.819 43.2267 445.692 43.5267 445.439 43.78C445.199 44.02 444.905 44.14 444.559 44.14Z" fill="black"/>
<path fill-rule="evenodd" clip-rule="evenodd" d="M359.5 48.5C366.129 48.5 371.5 43.129 371.5 36.5C371.5 29.871 366.129 24.5 359.5 24.5C352.871 24.5 347.5 29.871 347.5 36.5C347.5 43.129 352.871 48.5 359.5 48.5ZM355.527 42.3838L353.616 40.4677C353.389 40.2403 353.389 39.8726 353.616 39.6451L356.79 36.5L353.616 33.35C353.389 33.1226 353.389 32.7548 353.616 32.5274L355.532 30.6113C355.76 30.3838 356.127 30.3838 356.355 30.6113L359.5 33.7903L362.65 30.6161C362.877 30.3887 363.245 30.3887 363.473 30.6161L365.389 32.5322C365.616 32.7597 365.616 33.1274 365.389 33.3548L362.21 36.5L365.384 39.65C365.611 39.8774 365.611 40.2452 365.384 40.4725L363.468 42.3838C363.24 42.6113 362.873 42.6113 362.645 42.3838L359.5 39.2097L356.35 42.3838C356.123 42.6113 355.755 42.6113 355.527 42.3838Z" fill="#B1380B"/>
<rect x="40" y="74" width="235" height="162" fill="white"/>
<rect x="347" y="74" width="235" height="162" fill="white"/>
<path d="M175 110C175 103.373 180.373 98 187 98H203C209.627 98 215 103.373 215 110V110C215 116.627 209.627 122 203 122H187C180.373 122 175 116.627 175 110V110Z" fill="#0066CC"/>
<path fill-rule="evenodd" clip-rule="evenodd" d="M185.924 114.273L192.824 107.373C193.059 107.138 193.059 106.759 192.824 106.524L191.976 105.676C191.741 105.441 191.361 105.441 191.127 105.676L185.5 111.303L182.873 108.676C182.638 108.441 182.259 108.441 182.024 108.676L181.176 109.524C180.941 109.759 180.941 110.138 181.176 110.373L185.076 114.273C185.31 114.507 185.69 114.507 185.924 114.273Z" fill="white"/>
<circle cx="204" cy="110" r="7" fill="white"/>
<path d="M228.67 114.654C227.989 114.654 227.354 114.528 226.766 114.276C226.178 114.015 225.66 113.655 225.212 113.198C224.773 112.731 224.428 112.195 224.176 111.588C223.924 110.972 223.798 110.309 223.798 109.6C223.798 108.891 223.924 108.233 224.176 107.626C224.428 107.01 224.773 106.473 225.212 106.016C225.66 105.549 226.178 105.19 226.766 104.938C227.354 104.677 227.989 104.546 228.67 104.546C229.351 104.546 229.986 104.677 230.574 104.938C231.162 105.19 231.675 105.549 232.114 106.016C232.562 106.473 232.912 107.01 233.164 107.626C233.416 108.233 233.542 108.891 233.542 109.6C233.542 110.309 233.416 110.972 233.164 111.588C232.912 112.195 232.562 112.731 232.114 113.198C231.675 113.655 231.162 114.015 230.574 114.276C229.986 114.528 229.351 114.654 228.67 114.654ZM228.67 113.674C229.202 113.674 229.697 113.571 230.154 113.366C230.611 113.161 231.013 112.871 231.358 112.498C231.703 112.125 231.969 111.691 232.156 111.196C232.352 110.701 232.45 110.169 232.45 109.6C232.45 109.021 232.352 108.489 232.156 108.004C231.969 107.509 231.703 107.075 231.358 106.702C231.013 106.329 230.611 106.039 230.154 105.834C229.697 105.629 229.202 105.526 228.67 105.526C228.138 105.526 227.643 105.629 227.186 105.834C226.729 106.039 226.327 106.329 225.982 106.702C225.637 107.075 225.366 107.509 225.17 108.004C224.983 108.489 224.89 109.017 224.89 109.586C224.89 110.165 224.983 110.701 225.17 111.196C225.366 111.691 225.637 112.125 225.982 112.498C226.327 112.871 226.729 113.161 227.186 113.366C227.643 113.571 228.138 113.674 228.67 113.674ZM235.384 114.5V107.668H236.406V108.774C236.667 108.363 236.98 108.06 237.344 107.864C237.708 107.659 238.119 107.556 238.576 107.556C239.071 107.556 239.5 107.663 239.864 107.878C240.237 108.083 240.527 108.377 240.732 108.76C240.947 109.133 241.054 109.572 241.054 110.076V114.5H240.032V110.37C240.032 109.763 239.864 109.287 239.528 108.942C239.201 108.587 238.758 108.41 238.198 108.41C237.825 108.41 237.484 108.499 237.176 108.676C236.868 108.853 236.611 109.115 236.406 109.46V114.5H235.384Z" fill="#151515"/>
<path d="M64.126 116L68.004 106.2H69.292L73.114 116H71.952L70.79 112.92H66.422L65.26 116H64.126ZM66.758 112.066H70.468L68.606 107.18L66.758 112.066ZM74.2782 116V109.168H75.3002V116H74.2782ZM74.7962 107.474C74.5909 107.474 74.4135 107.404 74.2642 107.264C74.1242 107.115 74.0542 106.942 74.0542 106.746C74.0542 106.55 74.1242 106.382 74.2642 106.242C74.4135 106.093 74.5909 106.018 74.7962 106.018C75.0015 106.018 75.1742 106.093 75.3142 106.242C75.4635 106.382 75.5382 106.55 75.5382 106.746C75.5382 106.942 75.4635 107.115 75.3142 107.264C75.1742 107.404 75.0015 107.474 74.7962 107.474ZM77.3957 116V109.168H78.4177V110.568C78.595 110.092 78.847 109.723 79.1737 109.462C79.5097 109.191 79.8924 109.056 80.3217 109.056C80.443 109.056 80.555 109.065 80.6577 109.084C80.7604 109.093 80.863 109.117 80.9657 109.154V110.078C80.8537 110.041 80.7324 110.013 80.6017 109.994C80.4804 109.966 80.3637 109.952 80.2517 109.952C79.8317 109.952 79.463 110.073 79.1457 110.316C78.8377 110.559 78.595 110.899 78.4177 111.338V116H77.3957ZM82.3176 118.926V109.168H83.3256V110.148C83.5869 109.803 83.9042 109.541 84.2776 109.364C84.6602 109.177 85.0802 109.084 85.5376 109.084C86.1349 109.084 86.6669 109.243 87.1336 109.56C87.6096 109.868 87.9876 110.288 88.2676 110.82C88.5476 111.343 88.6876 111.931 88.6876 112.584C88.6876 113.237 88.5429 113.83 88.2536 114.362C87.9736 114.894 87.5909 115.319 87.1056 115.636C86.6296 115.944 86.0882 116.098 85.4816 116.098C85.0522 116.098 84.6556 116.019 84.2916 115.86C83.9276 115.692 83.6102 115.454 83.3396 115.146V118.926H82.3176ZM85.2856 115.216C85.7429 115.216 86.1489 115.104 86.5036 114.88C86.8676 114.647 87.1522 114.334 87.3576 113.942C87.5722 113.541 87.6796 113.093 87.6796 112.598C87.6796 112.094 87.5722 111.646 87.3576 111.254C87.1522 110.862 86.8676 110.554 86.5036 110.33C86.1489 110.097 85.7429 109.98 85.2856 109.98C84.8842 109.98 84.5109 110.064 84.1656 110.232C83.8296 110.391 83.5542 110.619 83.3396 110.918V114.264C83.5636 114.563 83.8436 114.796 84.1796 114.964C84.5249 115.132 84.8936 115.216 85.2856 115.216ZM90.4797 116V105.892L91.5017 105.682V116H90.4797ZM95.7109 116.126C95.2255 116.126 94.7962 116.037 94.4229 115.86C94.0495 115.683 93.7555 115.44 93.5409 115.132C93.3355 114.815 93.2329 114.451 93.2329 114.04C93.2329 113.629 93.3402 113.275 93.5549 112.976C93.7695 112.668 94.0682 112.43 94.4509 112.262C94.8335 112.094 95.2815 112.01 95.7949 112.01C96.1869 112.01 96.5555 112.052 96.9009 112.136C97.2555 112.22 97.5822 112.355 97.8809 112.542V111.604C97.8809 111.044 97.7315 110.624 97.4329 110.344C97.1342 110.055 96.6955 109.91 96.1169 109.91C95.7995 109.91 95.4729 109.957 95.1369 110.05C94.8102 110.143 94.4462 110.293 94.0449 110.498L93.6669 109.714C94.5815 109.275 95.4402 109.056 96.2429 109.056C97.0922 109.056 97.7455 109.266 98.2029 109.686C98.6602 110.097 98.8889 110.689 98.8889 111.464V116H97.8809V115.202C97.5822 115.51 97.2509 115.743 96.8869 115.902C96.5229 116.051 96.1309 116.126 95.7109 116.126ZM94.2129 114.012C94.2129 114.413 94.3669 114.735 94.6749 114.978C94.9922 115.221 95.4075 115.342 95.9209 115.342C96.3035 115.342 96.6535 115.277 96.9709 115.146C97.2975 115.015 97.6009 114.819 97.8809 114.558V113.242C97.5915 113.074 97.2929 112.953 96.9849 112.878C96.6769 112.794 96.3315 112.752 95.9489 112.752C95.4262 112.752 95.0062 112.869 94.6889 113.102C94.3715 113.326 94.2129 113.629 94.2129 114.012ZM100.966 116V109.168H101.988V110.274C102.249 109.863 102.562 109.56 102.926 109.364C103.29 109.159 103.701 109.056 104.158 109.056C104.653 109.056 105.082 109.163 105.446 109.378C105.819 109.583 106.109 109.877 106.314 110.26C106.529 110.633 106.636 111.072 106.636 111.576V116H105.614V111.87C105.614 111.263 105.446 110.787 105.11 110.442C104.783 110.087 104.34 109.91 103.78 109.91C103.407 109.91 103.066 109.999 102.758 110.176C102.45 110.353 102.193 110.615 101.988 110.96V116H100.966ZM111.771 116.14C111.136 116.14 110.562 115.986 110.049 115.678C109.535 115.361 109.129 114.936 108.831 114.404C108.532 113.863 108.383 113.256 108.383 112.584C108.383 111.912 108.523 111.31 108.803 110.778C109.092 110.246 109.479 109.826 109.965 109.518C110.45 109.21 110.991 109.056 111.589 109.056C112.195 109.056 112.732 109.21 113.199 109.518C113.675 109.817 114.048 110.227 114.319 110.75C114.599 111.263 114.739 111.847 114.739 112.5V112.808H109.377C109.414 113.275 109.54 113.695 109.755 114.068C109.979 114.432 110.268 114.721 110.623 114.936C110.987 115.141 111.383 115.244 111.813 115.244C112.167 115.244 112.508 115.183 112.835 115.062C113.171 114.931 113.455 114.759 113.689 114.544L114.333 115.23C113.941 115.538 113.535 115.767 113.115 115.916C112.695 116.065 112.247 116.14 111.771 116.14ZM109.405 112.08H113.731C113.684 111.669 113.558 111.305 113.353 110.988C113.157 110.661 112.905 110.405 112.597 110.218C112.298 110.031 111.962 109.938 111.589 109.938C111.215 109.938 110.875 110.031 110.567 110.218C110.259 110.395 110.002 110.647 109.797 110.974C109.601 111.291 109.47 111.66 109.405 112.08ZM119.751 116V109.168H120.773V110.232C121.035 109.84 121.333 109.546 121.669 109.35C122.005 109.154 122.383 109.056 122.803 109.056C123.289 109.056 123.713 109.177 124.077 109.42C124.441 109.653 124.717 109.975 124.903 110.386C125.174 109.947 125.496 109.616 125.869 109.392C126.252 109.168 126.691 109.056 127.185 109.056C127.643 109.056 128.044 109.163 128.389 109.378C128.744 109.593 129.019 109.891 129.215 110.274C129.411 110.647 129.509 111.086 129.509 111.59V116H128.487V111.842C128.487 111.245 128.338 110.773 128.039 110.428C127.741 110.083 127.33 109.91 126.807 109.91C126.453 109.91 126.131 109.999 125.841 110.176C125.561 110.353 125.314 110.624 125.099 110.988C125.118 111.081 125.132 111.179 125.141 111.282C125.151 111.385 125.155 111.487 125.155 111.59V116H124.133V111.842C124.133 111.245 123.979 110.773 123.671 110.428C123.373 110.083 122.962 109.91 122.439 109.91C121.739 109.91 121.184 110.246 120.773 110.918V116H119.751ZM134.601 116.112C133.967 116.112 133.397 115.958 132.893 115.65C132.389 115.342 131.993 114.922 131.703 114.39C131.414 113.858 131.269 113.256 131.269 112.584C131.269 111.912 131.414 111.31 131.703 110.778C131.993 110.246 132.389 109.826 132.893 109.518C133.397 109.21 133.967 109.056 134.601 109.056C135.227 109.056 135.787 109.21 136.281 109.518C136.785 109.826 137.182 110.246 137.471 110.778C137.761 111.31 137.905 111.912 137.905 112.584C137.905 113.256 137.761 113.858 137.471 114.39C137.182 114.922 136.785 115.342 136.281 115.65C135.787 115.958 135.227 116.112 134.601 116.112ZM134.587 115.216C135.035 115.216 135.432 115.104 135.777 114.88C136.123 114.647 136.393 114.329 136.589 113.928C136.795 113.527 136.897 113.079 136.897 112.584C136.897 112.08 136.795 111.632 136.589 111.24C136.393 110.839 136.123 110.526 135.777 110.302C135.432 110.069 135.035 109.952 134.587 109.952C134.139 109.952 133.743 110.069 133.397 110.302C133.052 110.526 132.777 110.839 132.571 111.24C132.375 111.632 132.277 112.08 132.277 112.584C132.277 113.079 132.375 113.527 132.571 113.928C132.777 114.329 133.052 114.647 133.397 114.88C133.743 115.104 134.139 115.216 134.587 115.216ZM142.54 116.098C141.952 116.098 141.42 115.944 140.944 115.636C140.468 115.319 140.09 114.899 139.81 114.376C139.53 113.844 139.39 113.251 139.39 112.598C139.39 111.935 139.53 111.343 139.81 110.82C140.1 110.288 140.487 109.868 140.972 109.56C141.458 109.243 141.999 109.084 142.596 109.084C143.016 109.084 143.408 109.168 143.772 109.336C144.136 109.495 144.454 109.728 144.724 110.036V105.892L145.746 105.682V116H144.724V115.09C144.463 115.417 144.146 115.669 143.772 115.846C143.399 116.014 142.988 116.098 142.54 116.098ZM142.792 115.202C143.194 115.202 143.562 115.123 143.898 114.964C144.234 114.805 144.51 114.581 144.724 114.292V110.904C144.5 110.615 144.216 110.391 143.87 110.232C143.534 110.064 143.175 109.98 142.792 109.98C142.335 109.98 141.924 110.092 141.56 110.316C141.206 110.54 140.921 110.848 140.706 111.24C140.501 111.632 140.398 112.08 140.398 112.584C140.398 113.079 140.501 113.527 140.706 113.928C140.921 114.32 141.206 114.633 141.56 114.866C141.924 115.09 142.335 115.202 142.792 115.202ZM150.927 116.14C150.292 116.14 149.718 115.986 149.205 115.678C148.692 115.361 148.286 114.936 147.987 114.404C147.688 113.863 147.539 113.256 147.539 112.584C147.539 111.912 147.679 111.31 147.959 110.778C148.248 110.246 148.636 109.826 149.121 109.518C149.606 109.21 150.148 109.056 150.745 109.056C151.352 109.056 151.888 109.21 152.355 109.518C152.831 109.817 153.204 110.227 153.475 110.75C153.755 111.263 153.895 111.847 153.895 112.5V112.808H148.533C148.57 113.275 148.696 113.695 148.911 114.068C149.135 114.432 149.424 114.721 149.779 114.936C150.143 115.141 150.54 115.244 150.969 115.244C151.324 115.244 151.664 115.183 151.991 115.062C152.327 114.931 152.612 114.759 152.845 114.544L153.489 115.23C153.097 115.538 152.691 115.767 152.271 115.916C151.851 116.065 151.403 116.14 150.927 116.14ZM148.561 112.08H152.887C152.84 111.669 152.714 111.305 152.509 110.988C152.313 110.661 152.061 110.405 151.753 110.218C151.454 110.031 151.118 109.938 150.745 109.938C150.372 109.938 150.031 110.031 149.723 110.218C149.415 110.395 149.158 110.647 148.953 110.974C148.757 111.291 148.626 111.66 148.561 112.08Z" fill="black"/>
<mask id="path-14-inside-1_1363_71883" fill="white">
<path d="M175 140C175 133.373 180.373 128 187 128H203C209.627 128 215 133.373 215 140V140C215 146.627 209.627 152 203 152H187C180.373 152 175 146.627 175 140V140Z"/>
</mask>
<path d="M175 140C175 133.373 180.373 128 187 128H203C209.627 128 215 133.373 215 140V140C215 146.627 209.627 152 203 152H187C180.373 152 175 146.627 175 140V140Z" fill="white"/>
<path d="M187 128V129H203V128V127H187V128ZM203 152V151H187V152V153H203V152ZM187 152V151C180.925 151 176 146.075 176 140H175H174C174 147.18 179.82 153 187 153V152ZM215 140H214C214 146.075 209.075 151 203 151V152V153C210.18 153 216 147.18 216 140H215ZM203 128V129C209.075 129 214 133.925 214 140H215H216C216 132.82 210.18 127 203 127V128ZM187 128V127C179.82 127 174 132.82 174 140H175H176C176 133.925 180.925 129 187 129V128Z" fill="#C7C7C7" mask="url(#path-14-inside-1_1363_71883)"/>
<circle cx="186" cy="140" r="7" fill="#707070"/>
<path d="M228.67 144.654C227.989 144.654 227.354 144.528 226.766 144.276C226.178 144.015 225.66 143.655 225.212 143.198C224.773 142.731 224.428 142.195 224.176 141.588C223.924 140.972 223.798 140.309 223.798 139.6C223.798 138.891 223.924 138.233 224.176 137.626C224.428 137.01 224.773 136.473 225.212 136.016C225.66 135.549 226.178 135.19 226.766 134.938C227.354 134.677 227.989 134.546 228.67 134.546C229.351 134.546 229.986 134.677 230.574 134.938C231.162 135.19 231.675 135.549 232.114 136.016C232.562 136.473 232.912 137.01 233.164 137.626C233.416 138.233 233.542 138.891 233.542 139.6C233.542 140.309 233.416 140.972 233.164 141.588C232.912 142.195 232.562 142.731 232.114 143.198C231.675 143.655 231.162 144.015 230.574 144.276C229.986 144.528 229.351 144.654 228.67 144.654ZM228.67 143.674C229.202 143.674 229.697 143.571 230.154 143.366C230.611 143.161 231.013 142.871 231.358 142.498C231.703 142.125 231.969 141.691 232.156 141.196C232.352 140.701 232.45 140.169 232.45 139.6C232.45 139.021 232.352 138.489 232.156 138.004C231.969 137.509 231.703 137.075 231.358 136.702C231.013 136.329 230.611 136.039 230.154 135.834C229.697 135.629 229.202 135.526 228.67 135.526C228.138 135.526 227.643 135.629 227.186 135.834C226.729 136.039 226.327 136.329 225.982 136.702C225.637 137.075 225.366 137.509 225.17 138.004C224.983 138.489 224.89 139.017 224.89 139.586C224.89 140.165 224.983 140.701 225.17 141.196C225.366 141.691 225.637 142.125 225.982 142.498C226.327 142.871 226.729 143.161 227.186 143.366C227.643 143.571 228.138 143.674 228.67 143.674ZM236.252 144.5V138.508H234.726V137.668H236.252V136.24C236.252 135.568 236.429 135.05 236.784 134.686C237.139 134.322 237.643 134.14 238.296 134.14C238.483 134.14 238.651 134.149 238.8 134.168C238.959 134.187 239.099 134.219 239.22 134.266V135.19C239.071 135.143 238.935 135.111 238.814 135.092C238.693 135.073 238.553 135.064 238.394 135.064C238.002 135.064 237.717 135.162 237.54 135.358C237.363 135.545 237.274 135.843 237.274 136.254V137.668H239.22V138.508H237.274V144.5H236.252ZM241.57 144.5V138.508H240.044V137.668H241.57V136.24C241.57 135.568 241.748 135.05 242.102 134.686C242.457 134.322 242.961 134.14 243.614 134.14C243.801 134.14 243.969 134.149 244.118 134.168C244.277 134.187 244.417 134.219 244.538 134.266V135.19C244.389 135.143 244.254 135.111 244.132 135.092C244.011 135.073 243.871 135.064 243.712 135.064C243.32 135.064 243.036 135.162 242.858 135.358C242.681 135.545 242.592 135.843 242.592 136.254V137.668H244.538V138.508H242.592V144.5H241.57Z" fill="#4D4D4D"/>
<path d="M65.246 146V136.2H69.208C69.8053 136.2 70.3233 136.303 70.762 136.508C71.21 136.713 71.5553 137.003 71.798 137.376C72.0407 137.749 72.162 138.188 72.162 138.692C72.162 139.233 72.0033 139.7 71.686 140.092C71.378 140.475 70.958 140.745 70.426 140.904C71.0793 141.053 71.5927 141.338 71.966 141.758C72.3487 142.169 72.54 142.677 72.54 143.284C72.54 143.825 72.4093 144.301 72.148 144.712C71.8867 145.123 71.518 145.44 71.042 145.664C70.566 145.888 70.006 146 69.362 146H65.246ZM66.324 140.484H69.124C69.7213 140.484 70.1973 140.335 70.552 140.036C70.9067 139.728 71.084 139.317 71.084 138.804C71.084 138.291 70.9067 137.885 70.552 137.586C70.1973 137.278 69.7213 137.124 69.124 137.124H66.324V140.484ZM66.324 145.076H69.25C69.9127 145.076 70.4447 144.908 70.846 144.572C71.2473 144.227 71.448 143.774 71.448 143.214C71.448 142.654 71.2473 142.206 70.846 141.87C70.454 141.534 69.922 141.366 69.25 141.366H66.324V145.076ZM74.4152 146V135.892L75.4372 135.682V146H74.4152ZM79.9684 146.112C79.4831 146.112 79.0538 146.005 78.6804 145.79C78.3071 145.575 78.0131 145.277 77.7984 144.894C77.5931 144.511 77.4904 144.073 77.4904 143.578V139.168H78.5264V143.284C78.5264 143.891 78.6898 144.371 79.0164 144.726C79.3431 145.081 79.7864 145.258 80.3464 145.258C80.7291 145.258 81.0698 145.169 81.3684 144.992C81.6764 144.815 81.9331 144.558 82.1384 144.222V139.168H83.1604V146H82.1384V144.894C81.8771 145.295 81.5644 145.599 81.2004 145.804C80.8458 146.009 80.4351 146.112 79.9684 146.112ZM88.337 146.14C87.7024 146.14 87.1284 145.986 86.615 145.678C86.1017 145.361 85.6957 144.936 85.397 144.404C85.0984 143.863 84.949 143.256 84.949 142.584C84.949 141.912 85.089 141.31 85.369 140.778C85.6584 140.246 86.0457 139.826 86.531 139.518C87.0164 139.21 87.5577 139.056 88.155 139.056C88.7617 139.056 89.2984 139.21 89.765 139.518C90.241 139.817 90.6144 140.227 90.885 140.75C91.165 141.263 91.305 141.847 91.305 142.5V142.808H85.943C85.9804 143.275 86.1064 143.695 86.321 144.068C86.545 144.432 86.8344 144.721 87.189 144.936C87.553 145.141 87.9497 145.244 88.379 145.244C88.7337 145.244 89.0744 145.183 89.401 145.062C89.737 144.931 90.0217 144.759 90.255 144.544L90.899 145.23C90.507 145.538 90.101 145.767 89.681 145.916C89.261 146.065 88.813 146.14 88.337 146.14ZM85.971 142.08H90.297C90.2504 141.669 90.1244 141.305 89.919 140.988C89.723 140.661 89.471 140.405 89.163 140.218C88.8644 140.031 88.5284 139.938 88.155 139.938C87.7817 139.938 87.441 140.031 87.133 140.218C86.825 140.395 86.5684 140.647 86.363 140.974C86.167 141.291 86.0364 141.66 85.971 142.08ZM95.4489 146.14C94.8609 146.14 94.4129 146 94.1049 145.72C93.8063 145.431 93.6569 145.015 93.6569 144.474V140.008H92.2429V139.168H93.6569V137.292L94.6789 137.054V139.168H96.6389V140.008H94.6789V144.208C94.6789 144.572 94.7536 144.833 94.9029 144.992C95.0616 145.151 95.3183 145.23 95.6729 145.23C95.8503 145.23 96.0089 145.216 96.1489 145.188C96.2889 145.16 96.4523 145.113 96.6389 145.048V145.958C96.4523 146.023 96.2563 146.07 96.0509 146.098C95.8456 146.126 95.6449 146.14 95.4489 146.14ZM101.023 146.112C100.389 146.112 99.8192 145.958 99.3152 145.65C98.8112 145.342 98.4146 144.922 98.1252 144.39C97.8359 143.858 97.6912 143.256 97.6912 142.584C97.6912 141.912 97.8359 141.31 98.1252 140.778C98.4146 140.246 98.8112 139.826 99.3152 139.518C99.8192 139.21 100.389 139.056 101.023 139.056C101.649 139.056 102.209 139.21 102.703 139.518C103.207 139.826 103.604 140.246 103.893 140.778C104.183 141.31 104.327 141.912 104.327 142.584C104.327 143.256 104.183 143.858 103.893 144.39C103.604 144.922 103.207 145.342 102.703 145.65C102.209 145.958 101.649 146.112 101.023 146.112ZM101.009 145.216C101.457 145.216 101.854 145.104 102.199 144.88C102.545 144.647 102.815 144.329 103.011 143.928C103.217 143.527 103.319 143.079 103.319 142.584C103.319 142.08 103.217 141.632 103.011 141.24C102.815 140.839 102.545 140.526 102.199 140.302C101.854 140.069 101.457 139.952 101.009 139.952C100.561 139.952 100.165 140.069 99.8192 140.302C99.4739 140.526 99.1986 140.839 98.9932 141.24C98.7972 141.632 98.6992 142.08 98.6992 142.584C98.6992 143.079 98.7972 143.527 98.9932 143.928C99.1986 144.329 99.4739 144.647 99.8192 144.88C100.165 145.104 100.561 145.216 101.009 145.216ZM109.144 146.112C108.51 146.112 107.94 145.958 107.436 145.65C106.932 145.342 106.536 144.922 106.246 144.39C105.957 143.858 105.812 143.256 105.812 142.584C105.812 141.912 105.957 141.31 106.246 140.778C106.536 140.246 106.932 139.826 107.436 139.518C107.94 139.21 108.51 139.056 109.144 139.056C109.77 139.056 110.33 139.21 110.824 139.518C111.328 139.826 111.725 140.246 112.014 140.778C112.304 141.31 112.448 141.912 112.448 142.584C112.448 143.256 112.304 143.858 112.014 144.39C111.725 144.922 111.328 145.342 110.824 145.65C110.33 145.958 109.77 146.112 109.144 146.112ZM109.13 145.216C109.578 145.216 109.975 145.104 110.32 144.88C110.666 144.647 110.936 144.329 111.132 143.928C111.338 143.527 111.44 143.079 111.44 142.584C111.44 142.08 111.338 141.632 111.132 141.24C110.936 140.839 110.666 140.526 110.32 140.302C109.975 140.069 109.578 139.952 109.13 139.952C108.682 139.952 108.286 140.069 107.94 140.302C107.595 140.526 107.32 140.839 107.114 141.24C106.918 141.632 106.82 142.08 106.82 142.584C106.82 143.079 106.918 143.527 107.114 143.928C107.32 144.329 107.595 144.647 107.94 144.88C108.286 145.104 108.682 145.216 109.13 145.216ZM116.422 146.14C115.834 146.14 115.386 146 115.078 145.72C114.779 145.431 114.63 145.015 114.63 144.474V140.008H113.216V139.168H114.63V137.292L115.652 137.054V139.168H117.612V140.008H115.652V144.208C115.652 144.572 115.726 144.833 115.876 144.992C116.034 145.151 116.291 145.23 116.646 145.23C116.823 145.23 116.982 145.216 117.122 145.188C117.262 145.16 117.425 145.113 117.612 145.048V145.958C117.425 146.023 117.229 146.07 117.024 146.098C116.818 146.126 116.618 146.14 116.422 146.14ZM119.109 146V135.892L120.131 135.682V140.274C120.392 139.863 120.705 139.56 121.069 139.364C121.433 139.159 121.843 139.056 122.301 139.056C122.795 139.056 123.225 139.163 123.589 139.378C123.962 139.583 124.251 139.877 124.457 140.26C124.671 140.633 124.779 141.072 124.779 141.576V146H123.757V141.87C123.757 141.263 123.589 140.787 123.253 140.442C122.926 140.087 122.483 139.91 121.923 139.91C121.549 139.91 121.209 139.999 120.901 140.176C120.593 140.353 120.336 140.615 120.131 140.96V146H119.109Z" fill="black"/>
<path d="M175 170C175 163.373 180.373 158 187 158H203C209.627 158 215 163.373 215 170V170C215 176.627 209.627 182 203 182H187C180.373 182 175 176.627 175 170V170Z" fill="#0066CC"/>
<path fill-rule="evenodd" clip-rule="evenodd" d="M185.924 174.273L192.824 167.373C193.059 167.138 193.059 166.759 192.824 166.524L191.976 165.676C191.741 165.441 191.361 165.441 191.127 165.676L185.5 171.303L182.873 168.676C182.638 168.441 182.259 168.441 182.024 168.676L181.176 169.524C180.941 169.759 180.941 170.138 181.176 170.373L185.076 174.273C185.31 174.507 185.69 174.507 185.924 174.273Z" fill="white"/>
<circle cx="204" cy="170" r="7" fill="white"/>
<path d="M228.67 174.654C227.989 174.654 227.354 174.528 226.766 174.276C226.178 174.015 225.66 173.655 225.212 173.198C224.773 172.731 224.428 172.195 224.176 171.588C223.924 170.972 223.798 170.309 223.798 169.6C223.798 168.891 223.924 168.233 224.176 167.626C224.428 167.01 224.773 166.473 225.212 166.016C225.66 165.549 226.178 165.19 226.766 164.938C227.354 164.677 227.989 164.546 228.67 164.546C229.351 164.546 229.986 164.677 230.574 164.938C231.162 165.19 231.675 165.549 232.114 166.016C232.562 166.473 232.912 167.01 233.164 167.626C233.416 168.233 233.542 168.891 233.542 169.6C233.542 170.309 233.416 170.972 233.164 171.588C232.912 172.195 232.562 172.731 232.114 173.198C231.675 173.655 231.162 174.015 230.574 174.276C229.986 174.528 229.351 174.654 228.67 174.654ZM228.67 173.674C229.202 173.674 229.697 173.571 230.154 173.366C230.611 173.161 231.013 172.871 231.358 172.498C231.703 172.125 231.969 171.691 232.156 171.196C232.352 170.701 232.45 170.169 232.45 169.6C232.45 169.021 232.352 168.489 232.156 168.004C231.969 167.509 231.703 167.075 231.358 166.702C231.013 166.329 230.611 166.039 230.154 165.834C229.697 165.629 229.202 165.526 228.67 165.526C228.138 165.526 227.643 165.629 227.186 165.834C226.729 166.039 226.327 166.329 225.982 166.702C225.637 167.075 225.366 167.509 225.17 168.004C224.983 168.489 224.89 169.017 224.89 169.586C224.89 170.165 224.983 170.701 225.17 171.196C225.366 171.691 225.637 172.125 225.982 172.498C226.327 172.871 226.729 173.161 227.186 173.366C227.643 173.571 228.138 173.674 228.67 173.674ZM235.384 174.5V167.668H236.406V168.774C236.667 168.363 236.98 168.06 237.344 167.864C237.708 167.659 238.119 167.556 238.576 167.556C239.071 167.556 239.5 167.663 239.864 167.878C240.237 168.083 240.527 168.377 240.732 168.76C240.947 169.133 241.054 169.572 241.054 170.076V174.5H240.032V170.37C240.032 169.763 239.864 169.287 239.528 168.942C239.201 168.587 238.758 168.41 238.198 168.41C237.825 168.41 237.484 168.499 237.176 168.676C236.868 168.853 236.611 169.115 236.406 169.46V174.5H235.384Z" fill="#151515"/>
<path d="M66.702 176L64.588 166.2H65.68L67.346 174.306L69.768 166.2H70.818L73.24 174.278L74.92 166.2H75.97L73.856 176H72.764L70.286 167.684L67.794 176H66.702ZM77.6005 176V169.168H78.6225V176H77.6005ZM78.1185 167.474C77.9131 167.474 77.7358 167.404 77.5865 167.264C77.4465 167.115 77.3765 166.942 77.3765 166.746C77.3765 166.55 77.4465 166.382 77.5865 166.242C77.7358 166.093 77.9131 166.018 78.1185 166.018C78.3238 166.018 78.4965 166.093 78.6365 166.242C78.7858 166.382 78.8605 166.55 78.8605 166.746C78.8605 166.942 78.7858 167.115 78.6365 167.264C78.4965 167.404 78.3238 167.474 78.1185 167.474ZM80.522 172.5V171.618H85.184V172.5H80.522ZM87.8203 176V170.008H86.2943V169.168H87.8203V167.74C87.8203 167.068 87.9977 166.55 88.3523 166.186C88.707 165.822 89.211 165.64 89.8643 165.64C90.051 165.64 90.219 165.649 90.3683 165.668C90.527 165.687 90.667 165.719 90.7883 165.766V166.69C90.639 166.643 90.5037 166.611 90.3823 166.592C90.261 166.573 90.121 166.564 89.9623 166.564C89.5703 166.564 89.2857 166.662 89.1083 166.858C88.931 167.045 88.8423 167.343 88.8423 167.754V169.168H90.7883V170.008H88.8423V176H87.8203ZM92.12 176V169.168H93.142V176H92.12ZM92.638 167.474C92.4327 167.474 92.2553 167.404 92.106 167.264C91.966 167.115 91.896 166.942 91.896 166.746C91.896 166.55 91.966 166.382 92.106 166.242C92.2553 166.093 92.4327 166.018 92.638 166.018C92.8433 166.018 93.016 166.093 93.156 166.242C93.3053 166.382 93.38 166.55 93.38 166.746C93.38 166.942 93.3053 167.115 93.156 167.264C93.016 167.404 92.8433 167.474 92.638 167.474Z" fill="black"/>
<mask id="path-24-inside-2_1363_71883" fill="white">
<path d="M175 200C175 193.373 180.373 188 187 188H203C209.627 188 215 193.373 215 200V200C215 206.627 209.627 212 203 212H187C180.373 212 175 206.627 175 200V200Z"/>
</mask>
<path d="M175 200C175 193.373 180.373 188 187 188H203C209.627 188 215 193.373 215 200V200C215 206.627 209.627 212 203 212H187C180.373 212 175 206.627 175 200V200Z" fill="white"/>
<path d="M187 188V189H203V188V187H187V188ZM203 212V211H187V212V213H203V212ZM187 212V211C180.925 211 176 206.075 176 200H175H174C174 207.18 179.82 213 187 213V212ZM215 200H214C214 206.075 209.075 211 203 211V212V213C210.18 213 216 207.18 216 200H215ZM203 188V189C209.075 189 214 193.925 214 200H215H216C216 192.82 210.18 187 203 187V188ZM187 188V187C179.82 187 174 192.82 174 200H175H176C176 193.925 180.925 189 187 189V188Z" fill="#C7C7C7" mask="url(#path-24-inside-2_1363_71883)"/>
<circle cx="186" cy="200" r="7" fill="#707070"/>
<path d="M228.67 204.654C227.989 204.654 227.354 204.528 226.766 204.276C226.178 204.015 225.66 203.655 225.212 203.198C224.773 202.731 224.428 202.195 224.176 201.588C223.924 200.972 223.798 200.309 223.798 199.6C223.798 198.891 223.924 198.233 224.176 197.626C224.428 197.01 224.773 196.473 225.212 196.016C225.66 195.549 226.178 195.19 226.766 194.938C227.354 194.677 227.989 194.546 228.67 194.546C229.351 194.546 229.986 194.677 230.574 194.938C231.162 195.19 231.675 195.549 232.114 196.016C232.562 196.473 232.912 197.01 233.164 197.626C233.416 198.233 233.542 198.891 233.542 199.6C233.542 200.309 233.416 200.972 233.164 201.588C232.912 202.195 232.562 202.731 232.114 203.198C231.675 203.655 231.162 204.015 230.574 204.276C229.986 204.528 229.351 204.654 228.67 204.654ZM228.67 203.674C229.202 203.674 229.697 203.571 230.154 203.366C230.611 203.161 231.013 202.871 231.358 202.498C231.703 202.125 231.969 201.691 232.156 201.196C232.352 200.701 232.45 200.169 232.45 199.6C232.45 199.021 232.352 198.489 232.156 198.004C231.969 197.509 231.703 197.075 231.358 196.702C231.013 196.329 230.611 196.039 230.154 195.834C229.697 195.629 229.202 195.526 228.67 195.526C228.138 195.526 227.643 195.629 227.186 195.834C226.729 196.039 226.327 196.329 225.982 196.702C225.637 197.075 225.366 197.509 225.17 198.004C224.983 198.489 224.89 199.017 224.89 199.586C224.89 200.165 224.983 200.701 225.17 201.196C225.366 201.691 225.637 202.125 225.982 202.498C226.327 202.871 226.729 203.161 227.186 203.366C227.643 203.571 228.138 203.674 228.67 203.674ZM236.252 204.5V198.508H234.726V197.668H236.252V196.24C236.252 195.568 236.429 195.05 236.784 194.686C237.139 194.322 237.643 194.14 238.296 194.14C238.483 194.14 238.651 194.149 238.8 194.168C238.959 194.187 239.099 194.219 239.22 194.266V195.19C239.071 195.143 238.935 195.111 238.814 195.092C238.693 195.073 238.553 195.064 238.394 195.064C238.002 195.064 237.717 195.162 237.54 195.358C237.363 195.545 237.274 195.843 237.274 196.254V197.668H239.22V198.508H237.274V204.5H236.252ZM241.57 204.5V198.508H240.044V197.668H241.57V196.24C241.57 195.568 241.748 195.05 242.102 194.686C242.457 194.322 242.961 194.14 243.614 194.14C243.801 194.14 243.969 194.149 244.118 194.168C244.277 194.187 244.417 194.219 244.538 194.266V195.19C244.389 195.143 244.254 195.111 244.132 195.092C244.011 195.073 243.871 195.064 243.712 195.064C243.32 195.064 243.036 195.162 242.858 195.358C242.681 195.545 242.592 195.843 242.592 196.254V197.668H244.538V198.508H242.592V204.5H241.57Z" fill="#4D4D4D"/>
<path d="M69.768 206.154C69.068 206.154 68.4147 206.028 67.808 205.776C67.2107 205.515 66.6833 205.155 66.226 204.698C65.7687 204.231 65.414 203.695 65.162 203.088C64.91 202.472 64.784 201.809 64.784 201.1C64.784 200.391 64.91 199.733 65.162 199.126C65.414 198.51 65.7687 197.973 66.226 197.516C66.6833 197.049 67.2107 196.69 67.808 196.438C68.4147 196.177 69.068 196.046 69.768 196.046C70.2533 196.046 70.7153 196.111 71.154 196.242C71.602 196.363 72.022 196.545 72.414 196.788C72.806 197.021 73.156 197.311 73.464 197.656L72.75 198.398C72.386 197.959 71.938 197.623 71.406 197.39C70.8833 197.147 70.3373 197.026 69.768 197.026C69.2173 197.026 68.704 197.129 68.228 197.334C67.752 197.539 67.3367 197.829 66.982 198.202C66.6367 198.575 66.366 199.009 66.17 199.504C65.974 199.989 65.876 200.521 65.876 201.1C65.876 201.669 65.974 202.201 66.17 202.696C66.366 203.191 66.6367 203.625 66.982 203.998C67.3367 204.371 67.752 204.661 68.228 204.866C68.704 205.071 69.2173 205.174 69.768 205.174C70.3373 205.174 70.8833 205.053 71.406 204.81C71.938 204.567 72.386 204.231 72.75 203.802L73.464 204.544C73.156 204.889 72.806 205.183 72.414 205.426C72.022 205.659 71.602 205.841 71.154 205.972C70.7153 206.093 70.2533 206.154 69.768 206.154ZM78.0831 206.14C77.4485 206.14 76.8745 205.986 76.3611 205.678C75.8478 205.361 75.4418 204.936 75.1431 204.404C74.8445 203.863 74.6951 203.256 74.6951 202.584C74.6951 201.912 74.8351 201.31 75.1151 200.778C75.4045 200.246 75.7918 199.826 76.2771 199.518C76.7625 199.21 77.3038 199.056 77.9011 199.056C78.5078 199.056 79.0445 199.21 79.5111 199.518C79.9871 199.817 80.3605 200.227 80.6311 200.75C80.9111 201.263 81.0511 201.847 81.0511 202.5V202.808H75.6891C75.7265 203.275 75.8525 203.695 76.0671 204.068C76.2911 204.432 76.5805 204.721 76.9351 204.936C77.2991 205.141 77.6958 205.244 78.1251 205.244C78.4798 205.244 78.8205 205.183 79.1471 205.062C79.4831 204.931 79.7678 204.759 80.0011 204.544L80.6451 205.23C80.2531 205.538 79.8471 205.767 79.4271 205.916C79.0071 206.065 78.5591 206.14 78.0831 206.14ZM75.7171 202.08H80.0431C79.9965 201.669 79.8705 201.305 79.6651 200.988C79.4691 200.661 79.2171 200.405 78.9091 200.218C78.6105 200.031 78.2745 199.938 77.9011 199.938C77.5278 199.938 77.1871 200.031 76.8791 200.218C76.5711 200.395 76.3145 200.647 76.1091 200.974C75.9131 201.291 75.7825 201.66 75.7171 202.08ZM82.7961 206V195.892L83.8181 195.682V206H82.7961ZM85.9133 206V195.892L86.9353 195.682V206H85.9133ZM91.4665 206.112C90.9811 206.112 90.5518 206.005 90.1785 205.79C89.8051 205.575 89.5111 205.277 89.2965 204.894C89.0911 204.511 88.9885 204.073 88.9885 203.578V199.168H90.0245V203.284C90.0245 203.891 90.1878 204.371 90.5145 204.726C90.8411 205.081 91.2845 205.258 91.8445 205.258C92.2271 205.258 92.5678 205.169 92.8665 204.992C93.1745 204.815 93.4311 204.558 93.6365 204.222V199.168H94.6585V206H93.6365V204.894C93.3751 205.295 93.0625 205.599 92.6985 205.804C92.3438 206.009 91.9331 206.112 91.4665 206.112ZM96.7551 206V195.892L97.7771 195.682V206H96.7551ZM101.986 206.126C101.501 206.126 101.072 206.037 100.698 205.86C100.325 205.683 100.031 205.44 99.8163 205.132C99.6109 204.815 99.5083 204.451 99.5083 204.04C99.5083 203.629 99.6156 203.275 99.8303 202.976C100.045 202.668 100.344 202.43 100.726 202.262C101.109 202.094 101.557 202.01 102.07 202.01C102.462 202.01 102.831 202.052 103.176 202.136C103.531 202.22 103.858 202.355 104.156 202.542V201.604C104.156 201.044 104.007 200.624 103.708 200.344C103.41 200.055 102.971 199.91 102.392 199.91C102.075 199.91 101.748 199.957 101.412 200.05C101.086 200.143 100.722 200.293 100.32 200.498L99.9423 199.714C100.857 199.275 101.716 199.056 102.518 199.056C103.368 199.056 104.021 199.266 104.478 199.686C104.936 200.097 105.164 200.689 105.164 201.464V206H104.156V205.202C103.858 205.51 103.526 205.743 103.162 205.902C102.798 206.051 102.406 206.126 101.986 206.126ZM100.488 204.012C100.488 204.413 100.642 204.735 100.95 204.978C101.268 205.221 101.683 205.342 102.196 205.342C102.579 205.342 102.929 205.277 103.246 205.146C103.573 205.015 103.876 204.819 104.156 204.558V203.242C103.867 203.074 103.568 202.953 103.26 202.878C102.952 202.794 102.607 202.752 102.224 202.752C101.702 202.752 101.282 202.869 100.964 203.102C100.647 203.326 100.488 203.629 100.488 204.012ZM107.241 206V199.168H108.263V200.568C108.441 200.092 108.693 199.723 109.019 199.462C109.355 199.191 109.738 199.056 110.167 199.056C110.289 199.056 110.401 199.065 110.503 199.084C110.606 199.093 110.709 199.117 110.811 199.154V200.078C110.699 200.041 110.578 200.013 110.447 199.994C110.326 199.966 110.209 199.952 110.097 199.952C109.677 199.952 109.309 200.073 108.991 200.316C108.683 200.559 108.441 200.899 108.263 201.338V206H107.241Z" fill="black"/>
<path d="M371 107.5C371 105.291 372.791 103.5 375 103.5H383C385.209 103.5 387 105.291 387 107.5V115.5C387 117.709 385.209 119.5 383 119.5H375C372.791 119.5 371 117.709 371 115.5V107.5Z" fill="#0066CC"/>
<path fill-rule="evenodd" clip-rule="evenodd" d="M377.924 115.773L384.824 108.873C385.059 108.638 385.059 108.259 384.824 108.024L383.976 107.176C383.741 106.941 383.361 106.941 383.127 107.176L377.5 112.803L374.873 110.176C374.638 109.941 374.259 109.941 374.024 110.176L373.176 111.024C372.941 111.259 372.941 111.638 373.176 111.873L377.076 115.773C377.31 116.007 377.69 116.007 377.924 115.773Z" fill="white"/>
<path d="M395.126 116L399.004 106.2H400.292L404.114 116H402.952L401.79 112.92H397.422L396.26 116H395.126ZM397.758 112.066H401.468L399.606 107.18L397.758 112.066ZM405.278 116V109.168H406.3V116H405.278ZM405.796 107.474C405.591 107.474 405.414 107.404 405.264 107.264C405.124 107.115 405.054 106.942 405.054 106.746C405.054 106.55 405.124 106.382 405.264 106.242C405.414 106.093 405.591 106.018 405.796 106.018C406.002 106.018 406.174 106.093 406.314 106.242C406.464 106.382 406.538 106.55 406.538 106.746C406.538 106.942 406.464 107.115 406.314 107.264C406.174 107.404 406.002 107.474 405.796 107.474ZM408.396 116V109.168H409.418V110.568C409.595 110.092 409.847 109.723 410.174 109.462C410.51 109.191 410.892 109.056 411.322 109.056C411.443 109.056 411.555 109.065 411.658 109.084C411.76 109.093 411.863 109.117 411.966 109.154V110.078C411.854 110.041 411.732 110.013 411.602 109.994C411.48 109.966 411.364 109.952 411.252 109.952C410.832 109.952 410.463 110.073 410.146 110.316C409.838 110.559 409.595 110.899 409.418 111.338V116H408.396ZM413.318 118.926V109.168H414.326V110.148C414.587 109.803 414.904 109.541 415.278 109.364C415.66 109.177 416.08 109.084 416.538 109.084C417.135 109.084 417.667 109.243 418.134 109.56C418.61 109.868 418.988 110.288 419.268 110.82C419.548 111.343 419.688 111.931 419.688 112.584C419.688 113.237 419.543 113.83 419.254 114.362C418.974 114.894 418.591 115.319 418.106 115.636C417.63 115.944 417.088 116.098 416.482 116.098C416.052 116.098 415.656 116.019 415.292 115.86C414.928 115.692 414.61 115.454 414.34 115.146V118.926H413.318ZM416.286 115.216C416.743 115.216 417.149 115.104 417.504 114.88C417.868 114.647 418.152 114.334 418.358 113.942C418.572 113.541 418.68 113.093 418.68 112.598C418.68 112.094 418.572 111.646 418.358 111.254C418.152 110.862 417.868 110.554 417.504 110.33C417.149 110.097 416.743 109.98 416.286 109.98C415.884 109.98 415.511 110.064 415.166 110.232C414.83 110.391 414.554 110.619 414.34 110.918V114.264C414.564 114.563 414.844 114.796 415.18 114.964C415.525 115.132 415.894 115.216 416.286 115.216ZM421.48 116V105.892L422.502 105.682V116H421.48ZM426.711 116.126C426.226 116.126 425.796 116.037 425.423 115.86C425.05 115.683 424.756 115.44 424.541 115.132C424.336 114.815 424.233 114.451 424.233 114.04C424.233 113.629 424.34 113.275 424.555 112.976C424.77 112.668 425.068 112.43 425.451 112.262C425.834 112.094 426.282 112.01 426.795 112.01C427.187 112.01 427.556 112.052 427.901 112.136C428.256 112.22 428.582 112.355 428.881 112.542V111.604C428.881 111.044 428.732 110.624 428.433 110.344C428.134 110.055 427.696 109.91 427.117 109.91C426.8 109.91 426.473 109.957 426.137 110.05C425.81 110.143 425.446 110.293 425.045 110.498L424.667 109.714C425.582 109.275 426.44 109.056 427.243 109.056C428.092 109.056 428.746 109.266 429.203 109.686C429.66 110.097 429.889 110.689 429.889 111.464V116H428.881V115.202C428.582 115.51 428.251 115.743 427.887 115.902C427.523 116.051 427.131 116.126 426.711 116.126ZM425.213 114.012C425.213 114.413 425.367 114.735 425.675 114.978C425.992 115.221 426.408 115.342 426.921 115.342C427.304 115.342 427.654 115.277 427.971 115.146C428.298 115.015 428.601 114.819 428.881 114.558V113.242C428.592 113.074 428.293 112.953 427.985 112.878C427.677 112.794 427.332 112.752 426.949 112.752C426.426 112.752 426.006 112.869 425.689 113.102C425.372 113.326 425.213 113.629 425.213 114.012ZM431.966 116V109.168H432.988V110.274C433.249 109.863 433.562 109.56 433.926 109.364C434.29 109.159 434.701 109.056 435.158 109.056C435.653 109.056 436.082 109.163 436.446 109.378C436.819 109.583 437.109 109.877 437.314 110.26C437.529 110.633 437.636 111.072 437.636 111.576V116H436.614V111.87C436.614 111.263 436.446 110.787 436.11 110.442C435.783 110.087 435.34 109.91 434.78 109.91C434.407 109.91 434.066 109.999 433.758 110.176C433.45 110.353 433.193 110.615 432.988 110.96V116H431.966ZM442.771 116.14C442.136 116.14 441.562 115.986 441.049 115.678C440.535 115.361 440.129 114.936 439.831 114.404C439.532 113.863 439.383 113.256 439.383 112.584C439.383 111.912 439.523 111.31 439.803 110.778C440.092 110.246 440.479 109.826 440.965 109.518C441.45 109.21 441.991 109.056 442.589 109.056C443.195 109.056 443.732 109.21 444.199 109.518C444.675 109.817 445.048 110.227 445.319 110.75C445.599 111.263 445.739 111.847 445.739 112.5V112.808H440.377C440.414 113.275 440.54 113.695 440.755 114.068C440.979 114.432 441.268 114.721 441.623 114.936C441.987 115.141 442.383 115.244 442.813 115.244C443.167 115.244 443.508 115.183 443.835 115.062C444.171 114.931 444.455 114.759 444.689 114.544L445.333 115.23C444.941 115.538 444.535 115.767 444.115 115.916C443.695 116.065 443.247 116.14 442.771 116.14ZM440.405 112.08H444.731C444.684 111.669 444.558 111.305 444.353 110.988C444.157 110.661 443.905 110.405 443.597 110.218C443.298 110.031 442.962 109.938 442.589 109.938C442.215 109.938 441.875 110.031 441.567 110.218C441.259 110.395 441.002 110.647 440.797 110.974C440.601 111.291 440.47 111.66 440.405 112.08ZM450.751 116V109.168H451.773V110.232C452.035 109.84 452.333 109.546 452.669 109.35C453.005 109.154 453.383 109.056 453.803 109.056C454.289 109.056 454.713 109.177 455.077 109.42C455.441 109.653 455.717 109.975 455.903 110.386C456.174 109.947 456.496 109.616 456.869 109.392C457.252 109.168 457.691 109.056 458.185 109.056C458.643 109.056 459.044 109.163 459.389 109.378C459.744 109.593 460.019 109.891 460.215 110.274C460.411 110.647 460.509 111.086 460.509 111.59V116H459.487V111.842C459.487 111.245 459.338 110.773 459.039 110.428C458.741 110.083 458.33 109.91 457.807 109.91C457.453 109.91 457.131 109.999 456.841 110.176C456.561 110.353 456.314 110.624 456.099 110.988C456.118 111.081 456.132 111.179 456.141 111.282C456.151 111.385 456.155 111.487 456.155 111.59V116H455.133V111.842C455.133 111.245 454.979 110.773 454.671 110.428C454.373 110.083 453.962 109.91 453.439 109.91C452.739 109.91 452.184 110.246 451.773 110.918V116H450.751ZM465.601 116.112C464.967 116.112 464.397 115.958 463.893 115.65C463.389 115.342 462.993 114.922 462.703 114.39C462.414 113.858 462.269 113.256 462.269 112.584C462.269 111.912 462.414 111.31 462.703 110.778C462.993 110.246 463.389 109.826 463.893 109.518C464.397 109.21 464.967 109.056 465.601 109.056C466.227 109.056 466.787 109.21 467.281 109.518C467.785 109.826 468.182 110.246 468.471 110.778C468.761 111.31 468.905 111.912 468.905 112.584C468.905 113.256 468.761 113.858 468.471 114.39C468.182 114.922 467.785 115.342 467.281 115.65C466.787 115.958 466.227 116.112 465.601 116.112ZM465.587 115.216C466.035 115.216 466.432 115.104 466.777 114.88C467.123 114.647 467.393 114.329 467.589 113.928C467.795 113.527 467.897 113.079 467.897 112.584C467.897 112.08 467.795 111.632 467.589 111.24C467.393 110.839 467.123 110.526 466.777 110.302C466.432 110.069 466.035 109.952 465.587 109.952C465.139 109.952 464.743 110.069 464.397 110.302C464.052 110.526 463.777 110.839 463.571 111.24C463.375 111.632 463.277 112.08 463.277 112.584C463.277 113.079 463.375 113.527 463.571 113.928C463.777 114.329 464.052 114.647 464.397 114.88C464.743 115.104 465.139 115.216 465.587 115.216ZM473.54 116.098C472.952 116.098 472.42 115.944 471.944 115.636C471.468 115.319 471.09 114.899 470.81 114.376C470.53 113.844 470.39 113.251 470.39 112.598C470.39 111.935 470.53 111.343 470.81 110.82C471.1 110.288 471.487 109.868 471.972 109.56C472.458 109.243 472.999 109.084 473.596 109.084C474.016 109.084 474.408 109.168 474.772 109.336C475.136 109.495 475.454 109.728 475.724 110.036V105.892L476.746 105.682V116H475.724V115.09C475.463 115.417 475.146 115.669 474.772 115.846C474.399 116.014 473.988 116.098 473.54 116.098ZM473.792 115.202C474.194 115.202 474.562 115.123 474.898 114.964C475.234 114.805 475.51 114.581 475.724 114.292V110.904C475.5 110.615 475.216 110.391 474.87 110.232C474.534 110.064 474.175 109.98 473.792 109.98C473.335 109.98 472.924 110.092 472.56 110.316C472.206 110.54 471.921 110.848 471.706 111.24C471.501 111.632 471.398 112.08 471.398 112.584C471.398 113.079 471.501 113.527 471.706 113.928C471.921 114.32 472.206 114.633 472.56 114.866C472.924 115.09 473.335 115.202 473.792 115.202ZM481.927 116.14C481.292 116.14 480.718 115.986 480.205 115.678C479.692 115.361 479.286 114.936 478.987 114.404C478.688 113.863 478.539 113.256 478.539 112.584C478.539 111.912 478.679 111.31 478.959 110.778C479.248 110.246 479.636 109.826 480.121 109.518C480.606 109.21 481.148 109.056 481.745 109.056C482.352 109.056 482.888 109.21 483.355 109.518C483.831 109.817 484.204 110.227 484.475 110.75C484.755 111.263 484.895 111.847 484.895 112.5V112.808H479.533C479.57 113.275 479.696 113.695 479.911 114.068C480.135 114.432 480.424 114.721 480.779 114.936C481.143 115.141 481.54 115.244 481.969 115.244C482.324 115.244 482.664 115.183 482.991 115.062C483.327 114.931 483.612 114.759 483.845 114.544L484.489 115.23C484.097 115.538 483.691 115.767 483.271 115.916C482.851 116.065 482.403 116.14 481.927 116.14ZM479.561 112.08H483.887C483.84 111.669 483.714 111.305 483.509 110.988C483.313 110.661 483.061 110.405 482.753 110.218C482.454 110.031 482.118 109.938 481.745 109.938C481.372 109.938 481.031 110.031 480.723 110.218C480.415 110.395 480.158 110.647 479.953 110.974C479.757 111.291 479.626 111.66 479.561 112.08Z" fill="#151515"/>
<mask id="path-32-inside-3_1363_71883" fill="white">
<path d="M371 136.5C371 134.291 372.791 132.5 375 132.5H383C385.209 132.5 387 134.291 387 136.5V144.5C387 146.709 385.209 148.5 383 148.5H375C372.791 148.5 371 146.709 371 144.5V136.5Z"/>
</mask>
<path d="M371 136.5C371 134.291 372.791 132.5 375 132.5H383C385.209 132.5 387 134.291 387 136.5V144.5C387 146.709 385.209 148.5 383 148.5H375C372.791 148.5 371 146.709 371 144.5V136.5Z" fill="white"/>
<path d="M375 132.5V133.5H383V132.5V131.5H375V132.5ZM387 136.5H386V144.5H387H388V136.5H387ZM383 148.5V147.5H375V148.5V149.5H383V148.5ZM371 144.5H372V136.5H371H370V144.5H371ZM375 148.5V147.5C373.343 147.5 372 146.157 372 144.5H371H370C370 147.261 372.239 149.5 375 149.5V148.5ZM387 144.5H386C386 146.157 384.657 147.5 383 147.5V148.5V149.5C385.761 149.5 388 147.261 388 144.5H387ZM383 132.5V133.5C384.657 133.5 386 134.843 386 136.5H387H388C388 133.739 385.761 131.5 383 131.5V132.5ZM375 132.5V131.5C372.239 131.5 370 133.739 370 136.5H371H372C372 134.843 373.343 133.5 375 133.5V132.5Z" fill="#C7C7C7" mask="url(#path-32-inside-3_1363_71883)"/>
<path d="M396.246 145V135.2H400.208C400.805 135.2 401.323 135.303 401.762 135.508C402.21 135.713 402.555 136.003 402.798 136.376C403.041 136.749 403.162 137.188 403.162 137.692C403.162 138.233 403.003 138.7 402.686 139.092C402.378 139.475 401.958 139.745 401.426 139.904C402.079 140.053 402.593 140.338 402.966 140.758C403.349 141.169 403.54 141.677 403.54 142.284C403.54 142.825 403.409 143.301 403.148 143.712C402.887 144.123 402.518 144.44 402.042 144.664C401.566 144.888 401.006 145 400.362 145H396.246ZM397.324 139.484H400.124C400.721 139.484 401.197 139.335 401.552 139.036C401.907 138.728 402.084 138.317 402.084 137.804C402.084 137.291 401.907 136.885 401.552 136.586C401.197 136.278 400.721 136.124 400.124 136.124H397.324V139.484ZM397.324 144.076H400.25C400.913 144.076 401.445 143.908 401.846 143.572C402.247 143.227 402.448 142.774 402.448 142.214C402.448 141.654 402.247 141.206 401.846 140.87C401.454 140.534 400.922 140.366 400.25 140.366H397.324V144.076ZM405.415 145V134.892L406.437 134.682V145H405.415ZM410.968 145.112C410.483 145.112 410.054 145.005 409.68 144.79C409.307 144.575 409.013 144.277 408.798 143.894C408.593 143.511 408.49 143.073 408.49 142.578V138.168H409.526V142.284C409.526 142.891 409.69 143.371 410.016 143.726C410.343 144.081 410.786 144.258 411.346 144.258C411.729 144.258 412.07 144.169 412.368 143.992C412.676 143.815 412.933 143.558 413.138 143.222V138.168H414.16V145H413.138V143.894C412.877 144.295 412.564 144.599 412.2 144.804C411.846 145.009 411.435 145.112 410.968 145.112ZM419.337 145.14C418.702 145.14 418.128 144.986 417.615 144.678C417.102 144.361 416.696 143.936 416.397 143.404C416.098 142.863 415.949 142.256 415.949 141.584C415.949 140.912 416.089 140.31 416.369 139.778C416.658 139.246 417.046 138.826 417.531 138.518C418.016 138.21 418.558 138.056 419.155 138.056C419.762 138.056 420.298 138.21 420.765 138.518C421.241 138.817 421.614 139.227 421.885 139.75C422.165 140.263 422.305 140.847 422.305 141.5V141.808H416.943C416.98 142.275 417.106 142.695 417.321 143.068C417.545 143.432 417.834 143.721 418.189 143.936C418.553 144.141 418.95 144.244 419.379 144.244C419.734 144.244 420.074 144.183 420.401 144.062C420.737 143.931 421.022 143.759 421.255 143.544L421.899 144.23C421.507 144.538 421.101 144.767 420.681 144.916C420.261 145.065 419.813 145.14 419.337 145.14ZM416.971 141.08H421.297C421.25 140.669 421.124 140.305 420.919 139.988C420.723 139.661 420.471 139.405 420.163 139.218C419.864 139.031 419.528 138.938 419.155 138.938C418.782 138.938 418.441 139.031 418.133 139.218C417.825 139.395 417.568 139.647 417.363 139.974C417.167 140.291 417.036 140.66 416.971 141.08ZM426.449 145.14C425.861 145.14 425.413 145 425.105 144.72C424.806 144.431 424.657 144.015 424.657 143.474V139.008H423.243V138.168H424.657V136.292L425.679 136.054V138.168H427.639V139.008H425.679V143.208C425.679 143.572 425.754 143.833 425.903 143.992C426.062 144.151 426.318 144.23 426.673 144.23C426.85 144.23 427.009 144.216 427.149 144.188C427.289 144.16 427.452 144.113 427.639 144.048V144.958C427.452 145.023 427.256 145.07 427.051 145.098C426.846 145.126 426.645 145.14 426.449 145.14ZM432.023 145.112C431.389 145.112 430.819 144.958 430.315 144.65C429.811 144.342 429.415 143.922 429.125 143.39C428.836 142.858 428.691 142.256 428.691 141.584C428.691 140.912 428.836 140.31 429.125 139.778C429.415 139.246 429.811 138.826 430.315 138.518C430.819 138.21 431.389 138.056 432.023 138.056C432.649 138.056 433.209 138.21 433.703 138.518C434.207 138.826 434.604 139.246 434.893 139.778C435.183 140.31 435.327 140.912 435.327 141.584C435.327 142.256 435.183 142.858 434.893 143.39C434.604 143.922 434.207 144.342 433.703 144.65C433.209 144.958 432.649 145.112 432.023 145.112ZM432.009 144.216C432.457 144.216 432.854 144.104 433.199 143.88C433.545 143.647 433.815 143.329 434.011 142.928C434.217 142.527 434.319 142.079 434.319 141.584C434.319 141.08 434.217 140.632 434.011 140.24C433.815 139.839 433.545 139.526 433.199 139.302C432.854 139.069 432.457 138.952 432.009 138.952C431.561 138.952 431.165 139.069 430.819 139.302C430.474 139.526 430.199 139.839 429.993 140.24C429.797 140.632 429.699 141.08 429.699 141.584C429.699 142.079 429.797 142.527 429.993 142.928C430.199 143.329 430.474 143.647 430.819 143.88C431.165 144.104 431.561 144.216 432.009 144.216ZM440.144 145.112C439.51 145.112 438.94 144.958 438.436 144.65C437.932 144.342 437.536 143.922 437.246 143.39C436.957 142.858 436.812 142.256 436.812 141.584C436.812 140.912 436.957 140.31 437.246 139.778C437.536 139.246 437.932 138.826 438.436 138.518C438.94 138.21 439.51 138.056 440.144 138.056C440.77 138.056 441.33 138.21 441.824 138.518C442.328 138.826 442.725 139.246 443.014 139.778C443.304 140.31 443.448 140.912 443.448 141.584C443.448 142.256 443.304 142.858 443.014 143.39C442.725 143.922 442.328 144.342 441.824 144.65C441.33 144.958 440.77 145.112 440.144 145.112ZM440.13 144.216C440.578 144.216 440.975 144.104 441.32 143.88C441.666 143.647 441.936 143.329 442.132 142.928C442.338 142.527 442.44 142.079 442.44 141.584C442.44 141.08 442.338 140.632 442.132 140.24C441.936 139.839 441.666 139.526 441.32 139.302C440.975 139.069 440.578 138.952 440.13 138.952C439.682 138.952 439.286 139.069 438.94 139.302C438.595 139.526 438.32 139.839 438.114 140.24C437.918 140.632 437.82 141.08 437.82 141.584C437.82 142.079 437.918 142.527 438.114 142.928C438.32 143.329 438.595 143.647 438.94 143.88C439.286 144.104 439.682 144.216 440.13 144.216ZM447.422 145.14C446.834 145.14 446.386 145 446.078 144.72C445.779 144.431 445.63 144.015 445.63 143.474V139.008H444.216V138.168H445.63V136.292L446.652 136.054V138.168H448.612V139.008H446.652V143.208C446.652 143.572 446.726 143.833 446.876 143.992C447.034 144.151 447.291 144.23 447.646 144.23C447.823 144.23 447.982 144.216 448.122 144.188C448.262 144.16 448.425 144.113 448.612 144.048V144.958C448.425 145.023 448.229 145.07 448.024 145.098C447.818 145.126 447.618 145.14 447.422 145.14ZM450.109 145V134.892L451.131 134.682V139.274C451.392 138.863 451.705 138.56 452.069 138.364C452.433 138.159 452.843 138.056 453.301 138.056C453.795 138.056 454.225 138.163 454.589 138.378C454.962 138.583 455.251 138.877 455.457 139.26C455.671 139.633 455.779 140.072 455.779 140.576V145H454.757V140.87C454.757 140.263 454.589 139.787 454.253 139.442C453.926 139.087 453.483 138.91 452.923 138.91C452.549 138.91 452.209 138.999 451.901 139.176C451.593 139.353 451.336 139.615 451.131 139.96V145H450.109Z" fill="#151515"/>
<path d="M371 165.5C371 163.291 372.791 161.5 375 161.5H383C385.209 161.5 387 163.291 387 165.5V173.5C387 175.709 385.209 177.5 383 177.5H375C372.791 177.5 371 175.709 371 173.5V165.5Z" fill="#0066CC"/>
<path fill-rule="evenodd" clip-rule="evenodd" d="M377.924 173.773L384.824 166.873C385.059 166.638 385.059 166.259 384.824 166.024L383.976 165.176C383.741 164.941 383.361 164.941 383.127 165.176L377.5 170.803L374.873 168.176C374.638 167.941 374.259 167.941 374.024 168.176L373.176 169.024C372.941 169.259 372.941 169.638 373.176 169.873L377.076 173.773C377.31 174.007 377.69 174.007 377.924 173.773Z" fill="white"/>
<path d="M397.702 174L395.588 164.2H396.68L398.346 172.306L400.768 164.2H401.818L404.24 172.278L405.92 164.2H406.97L404.856 174H403.764L401.286 165.684L398.794 174H397.702ZM408.6 174V167.168H409.622V174H408.6ZM409.118 165.474C408.913 165.474 408.736 165.404 408.586 165.264C408.446 165.115 408.376 164.942 408.376 164.746C408.376 164.55 408.446 164.382 408.586 164.242C408.736 164.093 408.913 164.018 409.118 164.018C409.324 164.018 409.496 164.093 409.636 164.242C409.786 164.382 409.86 164.55 409.86 164.746C409.86 164.942 409.786 165.115 409.636 165.264C409.496 165.404 409.324 165.474 409.118 165.474ZM411.522 170.5V169.618H416.184V170.5H411.522ZM418.82 174V168.008H417.294V167.168H418.82V165.74C418.82 165.068 418.998 164.55 419.352 164.186C419.707 163.822 420.211 163.64 420.864 163.64C421.051 163.64 421.219 163.649 421.368 163.668C421.527 163.687 421.667 163.719 421.788 163.766V164.69C421.639 164.643 421.504 164.611 421.382 164.592C421.261 164.573 421.121 164.564 420.962 164.564C420.57 164.564 420.286 164.662 420.108 164.858C419.931 165.045 419.842 165.343 419.842 165.754V167.168H421.788V168.008H419.842V174H418.82ZM423.12 174V167.168H424.142V174H423.12ZM423.638 165.474C423.433 165.474 423.255 165.404 423.106 165.264C422.966 165.115 422.896 164.942 422.896 164.746C422.896 164.55 422.966 164.382 423.106 164.242C423.255 164.093 423.433 164.018 423.638 164.018C423.843 164.018 424.016 164.093 424.156 164.242C424.305 164.382 424.38 164.55 424.38 164.746C424.38 164.942 424.305 165.115 424.156 165.264C424.016 165.404 423.843 165.474 423.638 165.474Z" fill="#151515"/>
<mask id="path-38-inside-4_1363_71883" fill="white">
<path d="M371 194.5C371 192.291 372.791 190.5 375 190.5H383C385.209 190.5 387 192.291 387 194.5V202.5C387 204.709 385.209 206.5 383 206.5H375C372.791 206.5 371 204.709 371 202.5V194.5Z"/>
</mask>
<path d="M371 194.5C371 192.291 372.791 190.5 375 190.5H383C385.209 190.5 387 192.291 387 194.5V202.5C387 204.709 385.209 206.5 383 206.5H375C372.791 206.5 371 204.709 371 202.5V194.5Z" fill="white"/>
<path d="M375 190.5V191.5H383V190.5V189.5H375V190.5ZM387 194.5H386V202.5H387H388V194.5H387ZM383 206.5V205.5H375V206.5V207.5H383V206.5ZM371 202.5H372V194.5H371H370V202.5H371ZM375 206.5V205.5C373.343 205.5 372 204.157 372 202.5H371H370C370 205.261 372.239 207.5 375 207.5V206.5ZM387 202.5H386C386 204.157 384.657 205.5 383 205.5V206.5V207.5C385.761 207.5 388 205.261 388 202.5H387ZM383 190.5V191.5C384.657 191.5 386 192.843 386 194.5H387H388C388 191.739 385.761 189.5 383 189.5V190.5ZM375 190.5V189.5C372.239 189.5 370 191.739 370 194.5H371H372C372 192.843 373.343 191.5 375 191.5V190.5Z" fill="#C7C7C7" mask="url(#path-38-inside-4_1363_71883)"/>
<path d="M400.768 203.154C400.068 203.154 399.415 203.028 398.808 202.776C398.211 202.515 397.683 202.155 397.226 201.698C396.769 201.231 396.414 200.695 396.162 200.088C395.91 199.472 395.784 198.809 395.784 198.1C395.784 197.391 395.91 196.733 396.162 196.126C396.414 195.51 396.769 194.973 397.226 194.516C397.683 194.049 398.211 193.69 398.808 193.438C399.415 193.177 400.068 193.046 400.768 193.046C401.253 193.046 401.715 193.111 402.154 193.242C402.602 193.363 403.022 193.545 403.414 193.788C403.806 194.021 404.156 194.311 404.464 194.656L403.75 195.398C403.386 194.959 402.938 194.623 402.406 194.39C401.883 194.147 401.337 194.026 400.768 194.026C400.217 194.026 399.704 194.129 399.228 194.334C398.752 194.539 398.337 194.829 397.982 195.202C397.637 195.575 397.366 196.009 397.17 196.504C396.974 196.989 396.876 197.521 396.876 198.1C396.876 198.669 396.974 199.201 397.17 199.696C397.366 200.191 397.637 200.625 397.982 200.998C398.337 201.371 398.752 201.661 399.228 201.866C399.704 202.071 400.217 202.174 400.768 202.174C401.337 202.174 401.883 202.053 402.406 201.81C402.938 201.567 403.386 201.231 403.75 200.802L404.464 201.544C404.156 201.889 403.806 202.183 403.414 202.426C403.022 202.659 402.602 202.841 402.154 202.972C401.715 203.093 401.253 203.154 400.768 203.154ZM409.083 203.14C408.448 203.14 407.874 202.986 407.361 202.678C406.848 202.361 406.442 201.936 406.143 201.404C405.844 200.863 405.695 200.256 405.695 199.584C405.695 198.912 405.835 198.31 406.115 197.778C406.404 197.246 406.792 196.826 407.277 196.518C407.762 196.21 408.304 196.056 408.901 196.056C409.508 196.056 410.044 196.21 410.511 196.518C410.987 196.817 411.36 197.227 411.631 197.75C411.911 198.263 412.051 198.847 412.051 199.5V199.808H406.689C406.726 200.275 406.852 200.695 407.067 201.068C407.291 201.432 407.58 201.721 407.935 201.936C408.299 202.141 408.696 202.244 409.125 202.244C409.48 202.244 409.82 202.183 410.147 202.062C410.483 201.931 410.768 201.759 411.001 201.544L411.645 202.23C411.253 202.538 410.847 202.767 410.427 202.916C410.007 203.065 409.559 203.14 409.083 203.14ZM406.717 199.08H411.043C410.996 198.669 410.87 198.305 410.665 197.988C410.469 197.661 410.217 197.405 409.909 197.218C409.61 197.031 409.274 196.938 408.901 196.938C408.528 196.938 408.187 197.031 407.879 197.218C407.571 197.395 407.314 197.647 407.109 197.974C406.913 198.291 406.782 198.66 406.717 199.08ZM413.796 203V192.892L414.818 192.682V203H413.796ZM416.913 203V192.892L417.935 192.682V203H416.913ZM422.466 203.112C421.981 203.112 421.552 203.005 421.178 202.79C420.805 202.575 420.511 202.277 420.296 201.894C420.091 201.511 419.988 201.073 419.988 200.578V196.168H421.024V200.284C421.024 200.891 421.188 201.371 421.514 201.726C421.841 202.081 422.284 202.258 422.844 202.258C423.227 202.258 423.568 202.169 423.866 201.992C424.174 201.815 424.431 201.558 424.636 201.222V196.168H425.658V203H424.636V201.894C424.375 202.295 424.062 202.599 423.698 202.804C423.344 203.009 422.933 203.112 422.466 203.112ZM427.755 203V192.892L428.777 192.682V203H427.755ZM432.986 203.126C432.501 203.126 432.072 203.037 431.698 202.86C431.325 202.683 431.031 202.44 430.816 202.132C430.611 201.815 430.508 201.451 430.508 201.04C430.508 200.629 430.616 200.275 430.83 199.976C431.045 199.668 431.344 199.43 431.726 199.262C432.109 199.094 432.557 199.01 433.07 199.01C433.462 199.01 433.831 199.052 434.176 199.136C434.531 199.22 434.858 199.355 435.156 199.542V198.604C435.156 198.044 435.007 197.624 434.708 197.344C434.41 197.055 433.971 196.91 433.392 196.91C433.075 196.91 432.748 196.957 432.412 197.05C432.086 197.143 431.722 197.293 431.32 197.498L430.942 196.714C431.857 196.275 432.716 196.056 433.518 196.056C434.368 196.056 435.021 196.266 435.478 196.686C435.936 197.097 436.164 197.689 436.164 198.464V203H435.156V202.202C434.858 202.51 434.526 202.743 434.162 202.902C433.798 203.051 433.406 203.126 432.986 203.126ZM431.488 201.012C431.488 201.413 431.642 201.735 431.95 201.978C432.268 202.221 432.683 202.342 433.196 202.342C433.579 202.342 433.929 202.277 434.246 202.146C434.573 202.015 434.876 201.819 435.156 201.558V200.242C434.867 200.074 434.568 199.953 434.26 199.878C433.952 199.794 433.607 199.752 433.224 199.752C432.702 199.752 432.282 199.869 431.964 200.102C431.647 200.326 431.488 200.629 431.488 201.012ZM438.241 203V196.168H439.263V197.568C439.441 197.092 439.693 196.723 440.019 196.462C440.355 196.191 440.738 196.056 441.167 196.056C441.289 196.056 441.401 196.065 441.503 196.084C441.606 196.093 441.709 196.117 441.811 196.154V197.078C441.699 197.041 441.578 197.013 441.447 196.994C441.326 196.966 441.209 196.952 441.097 196.952C440.677 196.952 440.309 197.073 439.991 197.316C439.683 197.559 439.441 197.899 439.263 198.338V203H438.241Z" fill="#151515"/>
</svg>
