<svg id="ae7a9edd-cd64-4e9d-bfd2-214d077cf3c5" xmlns="http://www.w3.org/2000/svg" viewBox="0 0 255.35 255.35"><defs><style>.cls-1{fill:#d2d2d2;}.cls-2{fill:#3f3d56;}.cls-3{fill:#06c;}.cls-4{fill:#fff;}</style></defs><path class="cls-1" d="M126.8,204.05a72.79,72.79,0,0,1-37.13-9.94,74.91,74.91,0,0,1-27.06-26.8,72.55,72.55,0,0,1,0-73.65,74.91,74.91,0,0,1,27.06-26.8,74.32,74.32,0,0,1,74.26,0A74.91,74.91,0,0,1,191,93.66a72.55,72.55,0,0,1,0,73.65,74.91,74.91,0,0,1-27.06,26.8A72.79,72.79,0,0,1,126.8,204.05Zm0-139.13a65,65,0,0,0-33.1,8.85,67,67,0,0,0-24.21,24,64.56,64.56,0,0,0,0,65.49,67.1,67.1,0,0,0,24.21,24,66.34,66.34,0,0,0,66.21,0,67.15,67.15,0,0,0,24.2-24,64.56,64.56,0,0,0,0-65.49,67.07,67.07,0,0,0-24.2-24A65,65,0,0,0,126.8,64.92Z"/><path class="cls-2" d="M126.8,192.5a60.52,60.52,0,0,1-31.17-8.37,62.79,62.79,0,0,1-22.48-22.47,62.31,62.31,0,0,1,0-62.35A62.9,62.9,0,0,1,95.63,76.83a62.31,62.31,0,0,1,62.35,0,63,63,0,0,1,22.47,22.48,62.31,62.31,0,0,1,0,62.35A62.84,62.84,0,0,1,158,184.13,60.58,60.58,0,0,1,126.8,192.5Zm0-117a53.58,53.58,0,0,0-27.62,7.4,55.81,55.81,0,0,0-20,20,55.29,55.29,0,0,0,0,55.23,55.88,55.88,0,0,0,20,20,55.24,55.24,0,0,0,55.24,0,55.88,55.88,0,0,0,20-20,55.29,55.29,0,0,0,0-55.23,55.81,55.81,0,0,0-20-20A53.58,53.58,0,0,0,126.8,75.47Z"/><path class="cls-3" d="M126.8,74.18A54.41,54.41,0,0,1,155,81.8a57.35,57.35,0,0,1,20.52,20.53,55.76,55.76,0,0,1,0,56.31A57.43,57.43,0,0,1,155,179.17a55.82,55.82,0,0,1-56.31,0,57.38,57.38,0,0,1-20.53-20.53,55.76,55.76,0,0,1,0-56.31A57.3,57.3,0,0,1,98.65,81.8,54.35,54.35,0,0,1,126.8,74.18Z"/><path class="cls-4" d="M161.41,115.59a3.91,3.91,0,0,0,2.78-2,4.87,4.87,0,0,0,.59-3.67,4.54,4.54,0,0,0-2.05-2.93,4.32,4.32,0,0,0-3.67-.44,193.33,193.33,0,0,1-22.87,4.4,75.57,75.57,0,0,1-18.77,0,193.42,193.42,0,0,1-22.88-4.4,4.29,4.29,0,0,0-3.66.44,4.56,4.56,0,0,0-2.06,2.93,4.44,4.44,0,0,0,.59,3.52,5.12,5.12,0,0,0,2.78,2.2q15.56,3.52,24,4.69,0,18.48-2,29a79.77,79.77,0,0,1-4.4,14.66l-.88,1.76a6,6,0,0,0,.29,4.11,4.86,4.86,0,0,0,2.94,2.78,5.08,5.08,0,0,0,4-.14,5.64,5.64,0,0,0,2.78-2.64l.88-2.06q2.05-5.56,3.23-9.09a86.34,86.34,0,0,0,2.34-12h2.94a87.83,87.83,0,0,0,2.34,12q1.19,3.53,3.23,9.09l.88,2.06a5.66,5.66,0,0,0,2.79,2.64,5.08,5.08,0,0,0,4,.14,4.87,4.87,0,0,0,2.93-2.78,6,6,0,0,0,.29-4.11l-.88-1.76a79.77,79.77,0,0,1-4.4-14.66q-2.06-10.56-2-29Q145.87,119.11,161.41,115.59Z"/><path class="cls-4" d="M126.8,86.85a10.52,10.52,0,1,0,7.48,3.08A10.21,10.21,0,0,0,126.8,86.85Z"/><circle class="cls-1" cx="221.68" cy="119.32" r="2.44"/><circle class="cls-1" cx="75.2" cy="194" r="1.63"/><circle class="cls-1" cx="38.16" cy="168.67" r="1.13"/><circle class="cls-1" cx="175.72" cy="183.23" r="1.77"/><circle class="cls-1" cx="42.13" cy="131.85" r="1.13"/><circle class="cls-1" cx="215.94" cy="84.85" r="1.41"/><circle class="cls-1" cx="187.45" cy="65.22" r="1.53"/><polygon class="cls-1" points="143.06 218.98 146.07 218.98 146.07 222 147.69 222 147.69 218.98 150.71 218.98 150.71 217.36 147.69 217.36 147.69 214.35 146.07 214.35 146.07 217.36 143.06 217.36 143.06 218.98"/><polygon class="cls-1" points="73.16 55.92 75.05 55.92 75.05 57.81 76.06 57.81 76.06 55.92 77.96 55.92 77.96 54.91 76.06 54.91 76.06 53.02 75.05 53.02 75.05 54.91 73.16 54.91 73.16 55.92"/><polygon class="cls-1" points="29.48 65.61 30.9 65.61 30.9 67.02 31.66 67.02 31.66 65.61 33.07 65.61 33.07 64.85 31.66 64.85 31.66 63.43 30.9 63.43 30.9 64.85 29.48 64.85 29.48 65.61"/></svg>