<svg id="ae7a9edd-cd64-4e9d-bfd2-214d077cf3c5" xmlns="http://www.w3.org/2000/svg" viewBox="0 0 255.35 255.35"><defs><style>.cls-1{opacity:0.1;isolation:isolate;}.cls-2{fill:#212427;}.cls-3{fill:#fff;}.cls-4{fill:#d2d2d2;}.cls-5{fill:#06c;}.cls-6{fill:#444053;}</style></defs><polygon class="cls-1" points="161.6 201.13 93.76 214.97 95.27 44.21 156.57 57.02 158.9 56.53 161.6 201.13"/><polygon class="cls-2" points="217.42 44.21 217.42 208.91 161.6 201.13 93.76 214.97 93.21 215.08 39.23 200.21 39.23 57.02 95.27 44.21 156.57 57.02 158.9 56.53 217.42 44.21"/><polygon class="cls-3" points="208.04 53.2 208.04 200.56 158.1 193.6 97.4 205.99 96.91 206.09 48.61 192.78 48.61 64.66 98.75 53.2 153.6 64.66 155.69 64.22 208.04 53.2"/><polygon class="cls-4" points="175.1 124.04 154.51 124.04 154.49 75.78 155.17 75.78 155.2 123.36 174.41 123.36 174.41 103.68 208.04 103.68 208.04 104.37 175.1 104.37 175.1 124.04"/><polygon class="cls-4" points="182.88 185.8 182.19 185.8 182.19 160.41 157.49 160.41 157.49 139.31 156.21 135.48 124.09 135.48 124.09 89.27 122.68 89.27 118.1 91.33 48.61 91.33 48.61 90.64 117.96 90.64 122.53 88.59 124.78 88.59 124.78 134.79 156.71 134.79 158.17 139.2 158.17 159.72 182.88 159.72 182.88 185.8"/><rect class="cls-4" x="133.87" y="135.13" width="0.69" height="50.67"/><rect class="cls-4" x="134.21" y="171.88" width="73.83" height="0.69"/><rect class="cls-4" x="192.81" y="75.78" width="0.69" height="110.03"/><rect class="cls-4" x="48.61" y="162.16" width="159.43" height="0.69"/><rect class="cls-4" x="64.03" y="75.78" width="0.69" height="110.03"/><rect class="cls-4" x="103.33" y="75.78" width="0.69" height="110.03"/><rect class="cls-4" x="111.34" y="40.72" width="0.69" height="126.15" transform="translate(7.48 215.1) rotate(-89.79)"/><polygon class="cls-4" points="82.42 185.8 81.73 185.8 81.73 75.97 82.42 75.97 82.42 162.5 82.42 185.8"/><polygon class="cls-4" points="133.96 162.73 103.52 129.38 48.61 129.38 48.61 128.69 103.82 128.69 134.46 162.27 133.96 162.73"/><rect class="cls-4" x="140.48" y="75.78" width="0.69" height="59.36"/><rect class="cls-4" x="134.21" y="145.42" width="73.83" height="0.69"/><polygon class="cls-5" points="87.09 163.5 87.09 161.5 133.21 161.47 133.21 134.13 139.82 134.13 139.82 102.93 155.82 102.93 155.82 122.64 169.65 122.64 169.65 124.64 153.82 124.64 153.82 104.93 141.82 104.93 141.82 136.13 135.21 136.13 135.21 163.47 87.09 163.5"/><ellipse class="cls-4" cx="82.42" cy="161.92" rx="6.5" ry="2.5"/><ellipse class="cls-6" cx="174.76" cy="123.19" rx="6.5" ry="2.5"/><path class="cls-5" d="M174.76,87.7a10.61,10.61,0,0,0-10.61,10.61c0,5.86,10.61,24.9,10.61,24.9s10.61-19,10.61-24.9A10.61,10.61,0,0,0,174.76,87.7Zm0,15.14a4.67,4.67,0,1,1,4.67-4.67,4.67,4.67,0,0,1-4.67,4.67Z"/><path class="cls-6" d="M82.42,126.42A10.61,10.61,0,0,0,71.81,137c0,5.86,10.61,24.9,10.61,24.9S93,142.9,93,137A10.61,10.61,0,0,0,82.42,126.42Zm0,15.14a4.67,4.67,0,1,1,4.67-4.67,4.67,4.67,0,0,1-4.67,4.67Z"/><circle class="cls-3" cx="82.42" cy="136.89" r="4.9"/></svg>