<?xml version="1.0" encoding="UTF-8"?>
<svg width="93px" height="60px" viewBox="0 0 93 60" version="1.1" xmlns="http://www.w3.org/2000/svg" xmlns:xlink="http://www.w3.org/1999/xlink">
    <!-- Generator: Sketch 63.1 (92452) - https://sketch.com -->
    <title>accessible</title>
    <desc>Created with Sketch.</desc>
    <g id="homepage" stroke="none" stroke-width="1" fill="none" fill-rule="evenodd">
        <g id="new-homepage-design-(w-spacers)" transform="translate(-266.000000, -377.000000)" fill="#FFFFFF" fill-rule="nonzero">
            <g id="accessible" transform="translate(266.000000, 377.000000)">
                <path d="M90.7857143,56 L2.21428571,56 C0.991369483,56 0,56.8954305 0,58 C0,59.1045695 0.991369483,60 2.21428571,60 L90.7857143,60 C92.0086305,60 93,59.1045695 93,58 C93,56.8954305 92.0086305,56 90.7857143,56 Z" id="Path"></path>
                <path d="M11.2058824,52 L81.7941176,52 C83.0057708,51.9839964 83.9841594,50.9955444 84,49.7714286 L84,2.22857143 C83.9841594,1.00445558 83.0057708,0.0160035566 81.7941176,0 L55.3235294,0 C54.1052542,0 53.1176471,0.997765415 53.1176471,2.22857143 C53.1176471,3.45937744 54.1052542,4.45714286 55.3235294,4.45714286 L79.5882353,4.45714286 L79.5882353,47.5428571 L13.4117647,47.5428571 L13.4117647,4.45714286 L37.6764706,4.45714286 C38.8947458,4.45714286 39.8823529,3.45937744 39.8823529,2.22857143 C39.8823529,0.997765415 38.8947458,0 37.6764706,0 L11.2058824,0 C9.98760717,0 9,0.997765415 9,2.22857143 L9,49.7714286 C9,51.0022346 9.98760717,52 11.2058824,52 L11.2058824,52 Z" id="Path"></path>
                <path d="M45.5870948,3.40996241 C45.961954,3.78729812 46.4705186,3.99953051 47.0009798,4 C47.5302907,3.99382068 48.0367959,3.78244772 48.4148649,3.40996241 C49.195045,2.62462895 49.195045,1.35238747 48.4148649,0.567054013 C47.6222799,-0.189018004 46.3796797,-0.189018004 45.5870948,0.567054013 C45.397218,0.745540145 45.2511111,0.965873704 45.1602616,1.21073139 C44.9465795,1.70699825 44.9465795,2.27001817 45.1602616,2.76628504 C45.2511111,3.01114272 45.397218,3.23147628 45.5870948,3.40996241 Z" id="Path"></path>
            </g>
        </g>
    </g>
</svg>