<?xml version="1.0" encoding="utf-8"?>
<!-- Generator: Adobe Illustrator 23.0.2, SVG Export Plug-In . SVG Version: 6.00 Build 0)  -->
<svg version="1.1" id="Layer_1" xmlns="http://www.w3.org/2000/svg" xmlns:xlink="http://www.w3.org/1999/xlink" x="0px" y="0px"
	 viewBox="0 0 151.52 283.16" style="enable-background:new 0 0 151.52 283.16;" xml:space="preserve">
<style type="text/css">
	.st0{fill:#B9B9B9;}
	.st1{fill:#DDDDDB;}
	.st2{fill:#EBECEC;}
	.st3{fill:#091317;stroke:#FFFFFF;stroke-miterlimit:10;stroke-dasharray:3,3;}
	.st4{fill:#091317;}
	.st5{fill:#393939;}
	.st6{fill:#2075BC;}
	.st7{fill:#03B9E4;}
</style>
<g>
	<g>
		<g>
			<polygon class="st0" points="27.05,53.45 116.27,1.94 129.02,9.3 129.02,230.06 39.8,281.57 27.05,274.21 			"/>
			<polygon class="st1" points="39.8,60.81 129.02,9.3 129.02,230.06 39.8,281.57 			"/>
			<polygon class="st2" points="116.27,1.94 27.05,53.45 39.8,60.81 129.02,9.3 			"/>
			<path class="st3" d="M124.13,169.8"/>
			<path class="st3" d="M97.68,129.86"/>
			<polygon class="st4" points="45.96,76.24 122.86,31.84 122.86,210.01 45.96,254.41 			"/>
			<polygon class="st4" points="94.26,235.31 94.26,242.13 85.54,247.11 85.54,240.4 			"/>
			<g>
				<path class="st4" d="M79.78,46.54c0.68-0.39,1.24-0.08,1.24,0.71c0,0.78-0.55,1.74-1.23,2.13c-0.68,0.39-1.24,0.08-1.24-0.71
					C78.55,47.89,79.1,46.93,79.78,46.54z"/>
			</g>
			<g>
				<path class="st4" d="M84.81,43.81c0.68-0.39,1.24-0.08,1.24,0.71c0,0.78-0.55,1.74-1.23,2.13c-0.68,0.39-1.24,0.08-1.24-0.71
					C83.58,45.16,84.13,44.2,84.81,43.81z"/>
			</g>
			<g>
				<path class="st4" d="M89.58,41.15c0.68-0.39,1.24-0.08,1.24,0.71c0,0.78-0.55,1.74-1.23,2.13c-0.68,0.39-1.24,0.08-1.24-0.71
					C88.35,42.5,88.9,41.55,89.58,41.15z"/>
			</g>
		</g>
	</g>
	<polygon class="st5" points="122.86,65.9 122.86,210.01 45.96,254.41 45.96,209.89 	"/>
</g>
<g>
	<polygon class="st6" points="102.82,145.86 147.64,120.13 147.64,76.61 102.82,102.35 	"/>
	<path class="st6" d="M102.82,92.48v9.22l44.82-25.74v-9.22L102.82,92.48z M137.24,78.99c-0.66,0.38-1.21,0.08-1.21-0.69
		s0.54-1.7,1.2-2.08s1.21-0.08,1.21,0.69S137.9,78.61,137.24,78.99z M140.71,76.98c-0.67,0.38-1.21,0.08-1.21-0.69
		c0-0.76,0.54-1.7,1.2-2.08c0.67-0.38,1.21-0.08,1.21,0.69C141.91,75.67,141.37,76.6,140.71,76.98z M144.19,74.98
		c-0.67,0.38-1.21,0.08-1.21-0.69c0-0.76,0.54-1.7,1.2-2.08c0.67-0.38,1.21-0.08,1.21,0.69C145.39,73.66,144.85,74.6,144.19,74.98z"
		/>
</g>
<polygon class="st6" points="4.29,225.46 62.04,192.3 62.04,136.23 4.29,169.4 "/>
<path class="st6" d="M4.29,168.56l57.75-33.16v-11.88L4.29,156.68V168.56z M57.57,130.57c0.86-0.5,1.55-0.1,1.56,0.89
	c0,0.98-0.69,2.18-1.55,2.68c-0.86,0.49-1.55,0.1-1.56-0.89C56.03,132.26,56.72,131.06,57.57,130.57z M53.09,133.15
	c0.86-0.49,1.55-0.1,1.56,0.89c0,0.98-0.69,2.18-1.55,2.68c-0.86,0.49-1.55,0.1-1.56-0.89C51.54,134.84,52.23,133.64,53.09,133.15z
	 M48.62,135.73c0.86-0.49,1.55-0.1,1.56,0.89c0,0.98-0.69,2.18-1.55,2.68c-0.86,0.49-1.55,0.1-1.56-0.89
	C47.07,137.43,47.76,136.23,48.62,135.73z"/>
<polygon class="st7" points="75.91,201.49 124.08,173.83 124.08,127.07 75.91,154.73 "/>
<path class="st7" d="M75.91,144.12v9.91l48.17-27.66v-9.91L75.91,144.12z M112.89,129.63c-0.71,0.41-1.3,0.08-1.3-0.74
	c0-0.82,0.58-1.82,1.29-2.23c0.71-0.41,1.3-0.08,1.3,0.74S113.61,129.21,112.89,129.63z M116.62,127.47
	c-0.71,0.41-1.3,0.08-1.3-0.74c0-0.82,0.58-1.82,1.29-2.24c0.72-0.41,1.3-0.08,1.3,0.74C117.91,126.06,117.34,127.06,116.62,127.47z
	 M120.36,125.32c-0.71,0.41-1.3,0.08-1.3-0.74c0-0.82,0.58-1.82,1.29-2.23c0.71-0.41,1.3-0.08,1.3,0.74
	C121.65,123.9,121.08,124.91,120.36,125.32z"/>
</svg>
