<?xml version="1.0" encoding="utf-8"?>
<!-- Generator: Adobe Illustrator 23.0.2, SVG Export Plug-In . SVG Version: 6.00 Build 0)  -->
<svg version="1.1" id="Layer_1" xmlns="http://www.w3.org/2000/svg" xmlns:xlink="http://www.w3.org/1999/xlink" x="0px" y="0px"
	 viewBox="0 0 154.89 267.05" style="enable-background:new 0 0 154.89 267.05;" xml:space="preserve">
<style type="text/css">
	.st0{fill:#EBECEC;}
	.st1{fill:#2F67B2;}
</style>
<g>
	<polygon class="st0" points="5.5,121.83 5.5,261.57 149.43,178.92 149.43,39.18 	"/>
	<polygon class="st0" points="149.43,7.48 5.5,90.14 5.5,119.75 149.43,37.1 	"/>
</g>
<g>
	<g>
		<path class="st1" d="M127.13,31.49c2.14-1.23,3.87-0.24,3.88,2.21c0.01,2.45-1.72,5.44-3.86,6.68c-2.14,1.23-3.87,0.24-3.88-2.21
			C123.26,35.71,124.99,32.72,127.13,31.49z"/>
	</g>
	<g>
		<path class="st1" d="M115.99,37.93c2.14-1.23,3.87-0.24,3.88,2.21c0.01,2.45-1.72,5.44-3.86,6.68c-2.14,1.23-3.87,0.24-3.88-2.21
			C112.12,42.15,113.85,39.16,115.99,37.93z"/>
	</g>
	<g>
		<path class="st1" d="M138.31,25.05c2.14-1.23,3.87-0.24,3.88,2.21c0.01,2.45-1.72,5.44-3.86,6.68c-2.14,1.23-3.87,0.24-3.88-2.21
			C134.44,29.28,136.17,26.29,138.31,25.05z"/>
	</g>
</g>
</svg>
