<svg width="581" height="205" viewBox="0 0 581 205" fill="none" xmlns="http://www.w3.org/2000/svg">
<rect width="581" height="205" fill="white"/>
<path d="M43 24.5C55.9787 24.5 66.5 35.0213 66.5 48C66.5 60.9787 55.9787 71.5 43 71.5C30.0213 71.5 19.5 60.9787 19.5 48C19.5 35.0213 30.0213 24.5 43 24.5Z" fill="#B9E5E5"/>
<path d="M43 24.5C55.9787 24.5 66.5 35.0213 66.5 48C66.5 60.9787 55.9787 71.5 43 71.5C30.0213 71.5 19.5 60.9787 19.5 48C19.5 35.0213 30.0213 24.5 43 24.5Z" stroke="#9AD8D8"/>
<g clip-path="url(#clip0_3678_24600)">
<path d="M56.7 41.0714H44.6V37.75H46.525C47.2834 37.75 47.9 37.1294 47.9 36.3661V31.3839C47.9 30.6206 47.2834 30 46.525 30H40.475C39.7166 30 39.1 30.6206 39.1 31.3839V36.3661C39.1 37.1294 39.7166 37.75 40.475 37.75H42.4V41.0714H30.3C28.4803 41.0714 27 42.5613 27 44.3929V57.6786C27 59.5101 28.4803 61 30.3 61H56.7C58.5197 61 60 59.5101 60 57.6786V44.3929C60 42.5613 58.5197 41.0714 56.7 41.0714ZM41.3 32.2143H45.7V35.5357H41.3V32.2143ZM57.8 57.6786C57.8 58.2894 57.3069 58.7857 56.7 58.7857H30.3C29.6936 58.7857 29.2 58.2894 29.2 57.6786V44.3929C29.2 43.7825 29.6936 43.2857 30.3 43.2857H56.7C57.3069 43.2857 57.8 43.7825 57.8 44.3929V57.6786ZM35.525 47.7143V49.9286C35.525 50.387 35.1555 50.7589 34.7 50.7589H32.5C32.0445 50.7589 31.675 50.387 31.675 49.9286V47.7143C31.675 47.2559 32.0445 46.8839 32.5 46.8839H34.7C35.1555 46.8839 35.525 47.2559 35.525 47.7143ZM55.325 47.7143V49.9286C55.325 50.387 54.9555 50.7589 54.5 50.7589H52.3C51.8445 50.7589 51.475 50.387 51.475 49.9286V47.7143C51.475 47.2559 51.8445 46.8839 52.3 46.8839H54.5C54.9555 46.8839 55.325 47.2559 55.325 47.7143ZM47.5691 52.6683C47.8893 53.0965 47.8033 53.703 47.3779 54.0241C46.2521 54.8761 44.9115 55.3259 43.5 55.3259C42.0885 55.3259 40.7473 54.8761 39.6215 54.0241C39.1961 53.703 39.1107 53.0965 39.4298 52.6683C39.7494 52.2391 40.3536 52.1526 40.7774 52.4759C42.3576 53.6695 44.6408 53.6695 46.2221 52.4759C46.6475 52.1515 47.2512 52.2402 47.5691 52.6683Z" fill="#1F1F1F"/>
</g>
<path d="M80.5 48C80.5 34.7452 91.2452 24 104.5 24V24C117.755 24 128.5 34.7452 128.5 48V48C128.5 61.2548 117.755 72 104.5 72V72C91.2452 72 80.5 61.2548 80.5 48V48Z" fill="#EE0000"/>
<g clip-path="url(#clip1_3678_24600)">
<path d="M118.2 41.0714H106.1V37.75H108.025C108.783 37.75 109.4 37.1294 109.4 36.3661V31.3839C109.4 30.6206 108.783 30 108.025 30H101.975C101.217 30 100.6 30.6206 100.6 31.3839V36.3661C100.6 37.1294 101.217 37.75 101.975 37.75H103.9V41.0714H91.8C89.9803 41.0714 88.5 42.5613 88.5 44.3929V57.6786C88.5 59.5101 89.9803 61 91.8 61H118.2C120.02 61 121.5 59.5101 121.5 57.6786V44.3929C121.5 42.5613 120.02 41.0714 118.2 41.0714ZM102.8 32.2143H107.2V35.5357H102.8V32.2143ZM119.3 57.6786C119.3 58.2894 118.807 58.7857 118.2 58.7857H91.8C91.1936 58.7857 90.7 58.2894 90.7 57.6786V44.3929C90.7 43.7825 91.1936 43.2857 91.8 43.2857H118.2C118.807 43.2857 119.3 43.7825 119.3 44.3929V57.6786ZM97.025 47.7143V49.9286C97.025 50.387 96.6555 50.7589 96.2 50.7589H94C93.5445 50.7589 93.175 50.387 93.175 49.9286V47.7143C93.175 47.2559 93.5445 46.8839 94 46.8839H96.2C96.6555 46.8839 97.025 47.2559 97.025 47.7143ZM116.825 47.7143V49.9286C116.825 50.387 116.455 50.7589 116 50.7589H113.8C113.345 50.7589 112.975 50.387 112.975 49.9286V47.7143C112.975 47.2559 113.345 46.8839 113.8 46.8839H116C116.455 46.8839 116.825 47.2559 116.825 47.7143ZM109.069 52.6683C109.389 53.0965 109.303 53.703 108.878 54.0241C107.752 54.8761 106.412 55.3259 105 55.3259C103.588 55.3259 102.247 54.8761 101.122 54.0241C100.696 53.703 100.611 53.0965 100.93 52.6683C101.249 52.2391 101.854 52.1526 102.277 52.4759C103.858 53.6695 106.141 53.6695 107.722 52.4759C108.147 52.1515 108.751 52.2402 109.069 52.6683Z" fill="white"/>
</g>
<path d="M166.5 24.5C179.479 24.5 190 35.0213 190 48C190 60.9787 179.479 71.5 166.5 71.5C153.521 71.5 143 60.9787 143 48C143 35.0213 153.521 24.5 166.5 24.5Z" fill="#FBC5C5"/>
<path d="M166.5 24.5C179.479 24.5 190 35.0213 190 48C190 60.9787 179.479 71.5 166.5 71.5C153.521 71.5 143 60.9787 143 48C143 35.0213 153.521 24.5 166.5 24.5Z" stroke="#F9A8A8"/>
<g clip-path="url(#clip2_3678_24600)">
<path d="M180.2 41.0714H168.1V37.75H170.025C170.783 37.75 171.4 37.1294 171.4 36.3661V31.3839C171.4 30.6206 170.783 30 170.025 30H163.975C163.217 30 162.6 30.6206 162.6 31.3839V36.3661C162.6 37.1294 163.217 37.75 163.975 37.75H165.9V41.0714H153.8C151.98 41.0714 150.5 42.5613 150.5 44.3929V57.6786C150.5 59.5101 151.98 61 153.8 61H180.2C182.02 61 183.5 59.5101 183.5 57.6786V44.3929C183.5 42.5613 182.02 41.0714 180.2 41.0714ZM164.8 32.2143H169.2V35.5357H164.8V32.2143ZM181.3 57.6786C181.3 58.2894 180.807 58.7857 180.2 58.7857H153.8C153.194 58.7857 152.7 58.2894 152.7 57.6786V44.3929C152.7 43.7825 153.194 43.2857 153.8 43.2857H180.2C180.807 43.2857 181.3 43.7825 181.3 44.3929V57.6786ZM159.025 47.7143V49.9286C159.025 50.387 158.655 50.7589 158.2 50.7589H156C155.545 50.7589 155.175 50.387 155.175 49.9286V47.7143C155.175 47.2559 155.545 46.8839 156 46.8839H158.2C158.655 46.8839 159.025 47.2559 159.025 47.7143ZM178.825 47.7143V49.9286C178.825 50.387 178.455 50.7589 178 50.7589H175.8C175.345 50.7589 174.975 50.387 174.975 49.9286V47.7143C174.975 47.2559 175.345 46.8839 175.8 46.8839H178C178.455 46.8839 178.825 47.2559 178.825 47.7143ZM171.069 52.6683C171.389 53.0965 171.303 53.703 170.878 54.0241C169.752 54.8761 168.412 55.3259 167 55.3259C165.588 55.3259 164.247 54.8761 163.122 54.0241C162.696 53.703 162.611 53.0965 162.93 52.6683C163.249 52.2391 163.854 52.1526 164.277 52.4759C165.858 53.6695 168.141 53.6695 169.722 52.4759C170.147 52.1515 170.751 52.2402 171.069 52.6683Z" fill="#1F1F1F"/>
</g>
<path d="M228.5 24.5C241.479 24.5 252 35.0213 252 48C252 60.9787 241.479 71.5 228.5 71.5C215.521 71.5 205 60.9787 205 48C205 35.0213 215.521 24.5 228.5 24.5Z" fill="#FCCB8F"/>
<path d="M228.5 24.5C241.479 24.5 252 35.0213 252 48C252 60.9787 241.479 71.5 228.5 71.5C215.521 71.5 205 60.9787 205 48C205 35.0213 215.521 24.5 228.5 24.5Z" stroke="#F8AE54"/>
<g clip-path="url(#clip3_3678_24600)">
<path d="M242.2 41.0714H230.1V37.75H232.025C232.783 37.75 233.4 37.1294 233.4 36.3661V31.3839C233.4 30.6206 232.783 30 232.025 30H225.975C225.217 30 224.6 30.6206 224.6 31.3839V36.3661C224.6 37.1294 225.217 37.75 225.975 37.75H227.9V41.0714H215.8C213.98 41.0714 212.5 42.5613 212.5 44.3929V57.6786C212.5 59.5101 213.98 61 215.8 61H242.2C244.02 61 245.5 59.5101 245.5 57.6786V44.3929C245.5 42.5613 244.02 41.0714 242.2 41.0714ZM226.8 32.2143H231.2V35.5357H226.8V32.2143ZM243.3 57.6786C243.3 58.2894 242.807 58.7857 242.2 58.7857H215.8C215.194 58.7857 214.7 58.2894 214.7 57.6786V44.3929C214.7 43.7825 215.194 43.2857 215.8 43.2857H242.2C242.807 43.2857 243.3 43.7825 243.3 44.3929V57.6786ZM221.025 47.7143V49.9286C221.025 50.387 220.655 50.7589 220.2 50.7589H218C217.545 50.7589 217.175 50.387 217.175 49.9286V47.7143C217.175 47.2559 217.545 46.8839 218 46.8839H220.2C220.655 46.8839 221.025 47.2559 221.025 47.7143ZM240.825 47.7143V49.9286C240.825 50.387 240.455 50.7589 240 50.7589H237.8C237.345 50.7589 236.975 50.387 236.975 49.9286V47.7143C236.975 47.2559 237.345 46.8839 237.8 46.8839H240C240.455 46.8839 240.825 47.2559 240.825 47.7143ZM233.069 52.6683C233.389 53.0965 233.303 53.703 232.878 54.0241C231.752 54.8761 230.412 55.3259 229 55.3259C227.588 55.3259 226.247 54.8761 225.122 54.0241C224.696 53.703 224.611 53.0965 224.93 52.6683C225.249 52.2391 225.854 52.1526 226.277 52.4759C227.858 53.6695 230.141 53.6695 231.722 52.4759C232.147 52.1515 232.751 52.2402 233.069 52.6683Z" fill="#1F1F1F"/>
</g>
<path d="M290.5 24.5C303.479 24.5 314 35.0213 314 48C314 60.9787 303.479 71.5 290.5 71.5C277.521 71.5 267 60.9787 267 48C267 35.0213 277.521 24.5 290.5 24.5Z" fill="#FFE072"/>
<path d="M290.5 24.5C303.479 24.5 314 35.0213 314 48C314 60.9787 303.479 71.5 290.5 71.5C277.521 71.5 267 60.9787 267 48C267 35.0213 277.521 24.5 290.5 24.5Z" stroke="#FFCC17"/>
<g clip-path="url(#clip4_3678_24600)">
<path d="M304.2 41.0714H292.1V37.75H294.025C294.783 37.75 295.4 37.1294 295.4 36.3661V31.3839C295.4 30.6206 294.783 30 294.025 30H287.975C287.217 30 286.6 30.6206 286.6 31.3839V36.3661C286.6 37.1294 287.217 37.75 287.975 37.75H289.9V41.0714H277.8C275.98 41.0714 274.5 42.5613 274.5 44.3929V57.6786C274.5 59.5101 275.98 61 277.8 61H304.2C306.02 61 307.5 59.5101 307.5 57.6786V44.3929C307.5 42.5613 306.02 41.0714 304.2 41.0714ZM288.8 32.2143H293.2V35.5357H288.8V32.2143ZM305.3 57.6786C305.3 58.2894 304.807 58.7857 304.2 58.7857H277.8C277.194 58.7857 276.7 58.2894 276.7 57.6786V44.3929C276.7 43.7825 277.194 43.2857 277.8 43.2857H304.2C304.807 43.2857 305.3 43.7825 305.3 44.3929V57.6786ZM283.025 47.7143V49.9286C283.025 50.387 282.655 50.7589 282.2 50.7589H280C279.545 50.7589 279.175 50.387 279.175 49.9286V47.7143C279.175 47.2559 279.545 46.8839 280 46.8839H282.2C282.655 46.8839 283.025 47.2559 283.025 47.7143ZM302.825 47.7143V49.9286C302.825 50.387 302.455 50.7589 302 50.7589H299.8C299.345 50.7589 298.975 50.387 298.975 49.9286V47.7143C298.975 47.2559 299.345 46.8839 299.8 46.8839H302C302.455 46.8839 302.825 47.2559 302.825 47.7143ZM295.069 52.6683C295.389 53.0965 295.303 53.703 294.878 54.0241C293.752 54.8761 292.412 55.3259 291 55.3259C289.588 55.3259 288.247 54.8761 287.122 54.0241C286.696 53.703 286.611 53.0965 286.93 52.6683C287.249 52.2391 287.854 52.1526 288.277 52.4759C289.858 53.6695 292.141 53.6695 293.722 52.4759C294.147 52.1515 294.751 52.2402 295.069 52.6683Z" fill="#1F1F1F"/>
</g>
<path d="M352.5 24.5C365.479 24.5 376 35.0213 376 48C376 60.9787 365.479 71.5 352.5 71.5C339.521 71.5 329 60.9787 329 48C329 35.0213 339.521 24.5 352.5 24.5Z" fill="#D0C5F4"/>
<path d="M352.5 24.5C365.479 24.5 376 35.0213 376 48C376 60.9787 365.479 71.5 352.5 71.5C339.521 71.5 329 60.9787 329 48C329 35.0213 339.521 24.5 352.5 24.5Z" stroke="#B6A6E9"/>
<g clip-path="url(#clip5_3678_24600)">
<path d="M366.2 41.0714H354.1V37.75H356.025C356.783 37.75 357.4 37.1294 357.4 36.3661V31.3839C357.4 30.6206 356.783 30 356.025 30H349.975C349.217 30 348.6 30.6206 348.6 31.3839V36.3661C348.6 37.1294 349.217 37.75 349.975 37.75H351.9V41.0714H339.8C337.98 41.0714 336.5 42.5613 336.5 44.3929V57.6786C336.5 59.5101 337.98 61 339.8 61H366.2C368.02 61 369.5 59.5101 369.5 57.6786V44.3929C369.5 42.5613 368.02 41.0714 366.2 41.0714ZM350.8 32.2143H355.2V35.5357H350.8V32.2143ZM367.3 57.6786C367.3 58.2894 366.807 58.7857 366.2 58.7857H339.8C339.194 58.7857 338.7 58.2894 338.7 57.6786V44.3929C338.7 43.7825 339.194 43.2857 339.8 43.2857H366.2C366.807 43.2857 367.3 43.7825 367.3 44.3929V57.6786ZM345.025 47.7143V49.9286C345.025 50.387 344.655 50.7589 344.2 50.7589H342C341.545 50.7589 341.175 50.387 341.175 49.9286V47.7143C341.175 47.2559 341.545 46.8839 342 46.8839H344.2C344.655 46.8839 345.025 47.2559 345.025 47.7143ZM364.825 47.7143V49.9286C364.825 50.387 364.455 50.7589 364 50.7589H361.8C361.345 50.7589 360.975 50.387 360.975 49.9286V47.7143C360.975 47.2559 361.345 46.8839 361.8 46.8839H364C364.455 46.8839 364.825 47.2559 364.825 47.7143ZM357.069 52.6683C357.389 53.0965 357.303 53.703 356.878 54.0241C355.752 54.8761 354.412 55.3259 353 55.3259C351.588 55.3259 350.247 54.8761 349.122 54.0241C348.696 53.703 348.611 53.0965 348.93 52.6683C349.249 52.2391 349.854 52.1526 350.277 52.4759C351.858 53.6695 354.141 53.6695 355.722 52.4759C356.147 52.1515 356.751 52.2402 357.069 52.6683Z" fill="#1F1F1F"/>
</g>
<path d="M414.5 24.5C427.479 24.5 438 35.0213 438 48C438 60.9787 427.479 71.5 414.5 71.5C401.521 71.5 391 60.9787 391 48C391 35.0213 401.521 24.5 414.5 24.5Z" fill="#E0E0E0"/>
<path d="M414.5 24.5C427.479 24.5 438 35.0213 438 48C438 60.9787 427.479 71.5 414.5 71.5C401.521 71.5 391 60.9787 391 48C391 35.0213 401.521 24.5 414.5 24.5Z" stroke="#C7C7C7"/>
<g clip-path="url(#clip6_3678_24600)">
<path d="M428.2 41.0714H416.1V37.75H418.025C418.783 37.75 419.4 37.1294 419.4 36.3661V31.3839C419.4 30.6206 418.783 30 418.025 30H411.975C411.217 30 410.6 30.6206 410.6 31.3839V36.3661C410.6 37.1294 411.217 37.75 411.975 37.75H413.9V41.0714H401.8C399.98 41.0714 398.5 42.5613 398.5 44.3929V57.6786C398.5 59.5101 399.98 61 401.8 61H428.2C430.02 61 431.5 59.5101 431.5 57.6786V44.3929C431.5 42.5613 430.02 41.0714 428.2 41.0714ZM412.8 32.2143H417.2V35.5357H412.8V32.2143ZM429.3 57.6786C429.3 58.2894 428.807 58.7857 428.2 58.7857H401.8C401.194 58.7857 400.7 58.2894 400.7 57.6786V44.3929C400.7 43.7825 401.194 43.2857 401.8 43.2857H428.2C428.807 43.2857 429.3 43.7825 429.3 44.3929V57.6786ZM407.025 47.7143V49.9286C407.025 50.387 406.655 50.7589 406.2 50.7589H404C403.545 50.7589 403.175 50.387 403.175 49.9286V47.7143C403.175 47.2559 403.545 46.8839 404 46.8839H406.2C406.655 46.8839 407.025 47.2559 407.025 47.7143ZM426.825 47.7143V49.9286C426.825 50.387 426.455 50.7589 426 50.7589H423.8C423.345 50.7589 422.975 50.387 422.975 49.9286V47.7143C422.975 47.2559 423.345 46.8839 423.8 46.8839H426C426.455 46.8839 426.825 47.2559 426.825 47.7143ZM419.069 52.6683C419.389 53.0965 419.303 53.703 418.878 54.0241C417.752 54.8761 416.412 55.3259 415 55.3259C413.588 55.3259 412.247 54.8761 411.122 54.0241C410.696 53.703 410.611 53.0965 410.93 52.6683C411.249 52.2391 411.854 52.1526 412.277 52.4759C413.858 53.6695 416.141 53.6695 417.722 52.4759C418.147 52.1515 418.751 52.2402 419.069 52.6683Z" fill="#1F1F1F"/>
</g>
<path d="M476.5 24.5C489.479 24.5 500 35.0213 500 48C500 60.9787 489.479 71.5 476.5 71.5C463.521 71.5 453 60.9787 453 48C453 35.0213 463.521 24.5 476.5 24.5Z" fill="white"/>
<path d="M476.5 24.5C489.479 24.5 500 35.0213 500 48C500 60.9787 489.479 71.5 476.5 71.5C463.521 71.5 453 60.9787 453 48C453 35.0213 463.521 24.5 476.5 24.5Z" stroke="#C7C7C7"/>
<g clip-path="url(#clip7_3678_24600)">
<path d="M490.2 41.0714H478.1V37.75H480.025C480.783 37.75 481.4 37.1294 481.4 36.3661V31.3839C481.4 30.6206 480.783 30 480.025 30H473.975C473.217 30 472.6 30.6206 472.6 31.3839V36.3661C472.6 37.1294 473.217 37.75 473.975 37.75H475.9V41.0714H463.8C461.98 41.0714 460.5 42.5613 460.5 44.3929V57.6786C460.5 59.5101 461.98 61 463.8 61H490.2C492.02 61 493.5 59.5101 493.5 57.6786V44.3929C493.5 42.5613 492.02 41.0714 490.2 41.0714ZM474.8 32.2143H479.2V35.5357H474.8V32.2143ZM491.3 57.6786C491.3 58.2894 490.807 58.7857 490.2 58.7857H463.8C463.194 58.7857 462.7 58.2894 462.7 57.6786V44.3929C462.7 43.7825 463.194 43.2857 463.8 43.2857H490.2C490.807 43.2857 491.3 43.7825 491.3 44.3929V57.6786ZM469.025 47.7143V49.9286C469.025 50.387 468.655 50.7589 468.2 50.7589H466C465.545 50.7589 465.175 50.387 465.175 49.9286V47.7143C465.175 47.2559 465.545 46.8839 466 46.8839H468.2C468.655 46.8839 469.025 47.2559 469.025 47.7143ZM488.825 47.7143V49.9286C488.825 50.387 488.455 50.7589 488 50.7589H485.8C485.345 50.7589 484.975 50.387 484.975 49.9286V47.7143C484.975 47.2559 485.345 46.8839 485.8 46.8839H488C488.455 46.8839 488.825 47.2559 488.825 47.7143ZM481.069 52.6683C481.389 53.0965 481.303 53.703 480.878 54.0241C479.752 54.8761 478.412 55.3259 477 55.3259C475.588 55.3259 474.247 54.8761 473.122 54.0241C472.696 53.703 472.611 53.0965 472.93 52.6683C473.249 52.2391 473.854 52.1526 474.277 52.4759C475.858 53.6695 478.141 53.6695 479.722 52.4759C480.147 52.1515 480.751 52.2402 481.069 52.6683Z" fill="#1F1F1F"/>
</g>
<path d="M538.5 24.5C551.479 24.5 562 35.0213 562 48C562 60.9787 551.479 71.5 538.5 71.5C525.521 71.5 515 60.9787 515 48C515 35.0213 525.521 24.5 538.5 24.5Z" stroke="#C7C7C7"/>
<g clip-path="url(#clip8_3678_24600)">
<path d="M552.2 41.0714H540.1V37.75H542.025C542.783 37.75 543.4 37.1294 543.4 36.3661V31.3839C543.4 30.6206 542.783 30 542.025 30H535.975C535.217 30 534.6 30.6206 534.6 31.3839V36.3661C534.6 37.1294 535.217 37.75 535.975 37.75H537.9V41.0714H525.8C523.98 41.0714 522.5 42.5613 522.5 44.3929V57.6786C522.5 59.5101 523.98 61 525.8 61H552.2C554.02 61 555.5 59.5101 555.5 57.6786V44.3929C555.5 42.5613 554.02 41.0714 552.2 41.0714ZM536.8 32.2143H541.2V35.5357H536.8V32.2143ZM553.3 57.6786C553.3 58.2894 552.807 58.7857 552.2 58.7857H525.8C525.194 58.7857 524.7 58.2894 524.7 57.6786V44.3929C524.7 43.7825 525.194 43.2857 525.8 43.2857H552.2C552.807 43.2857 553.3 43.7825 553.3 44.3929V57.6786ZM531.025 47.7143V49.9286C531.025 50.387 530.655 50.7589 530.2 50.7589H528C527.545 50.7589 527.175 50.387 527.175 49.9286V47.7143C527.175 47.2559 527.545 46.8839 528 46.8839H530.2C530.655 46.8839 531.025 47.2559 531.025 47.7143ZM550.825 47.7143V49.9286C550.825 50.387 550.455 50.7589 550 50.7589H547.8C547.345 50.7589 546.975 50.387 546.975 49.9286V47.7143C546.975 47.2559 547.345 46.8839 547.8 46.8839H550C550.455 46.8839 550.825 47.2559 550.825 47.7143ZM543.069 52.6683C543.389 53.0965 543.303 53.703 542.878 54.0241C541.752 54.8761 540.412 55.3259 539 55.3259C537.588 55.3259 536.247 54.8761 535.122 54.0241C534.696 53.703 534.611 53.0965 534.93 52.6683C535.249 52.2391 535.854 52.1526 536.277 52.4759C537.858 53.6695 540.141 53.6695 541.722 52.4759C542.147 52.1515 542.751 52.2402 543.069 52.6683Z" fill="#1F1F1F"/>
</g>
<path d="M476.5 93.5C486.165 93.5 494 101.335 494 111C494 120.665 486.165 128.5 476.5 128.5C466.835 128.5 459 120.665 459 111C459 101.335 466.835 93.5 476.5 93.5Z" fill="white"/>
<path d="M476.5 93.5C486.165 93.5 494 101.335 494 111C494 120.665 486.165 128.5 476.5 128.5C466.835 128.5 459 120.665 459 111C459 101.335 466.835 93.5 476.5 93.5Z" stroke="#C7C7C7"/>
<g clip-path="url(#clip9_3678_24600)">
<path d="M486.1 105.857H477.3V103.5H478.7C479.252 103.5 479.7 103.06 479.7 102.518V98.9821C479.7 98.4404 479.252 98 478.7 98H474.3C473.748 98 473.3 98.4404 473.3 98.9821V102.518C473.3 103.06 473.748 103.5 474.3 103.5H475.7V105.857H466.9C465.577 105.857 464.5 106.914 464.5 108.214V117.643C464.5 118.943 465.577 120 466.9 120H486.1C487.423 120 488.5 118.943 488.5 117.643V108.214C488.5 106.914 487.423 105.857 486.1 105.857ZM474.9 99.5714H478.1V101.929H474.9V99.5714ZM486.9 117.643C486.9 118.076 486.541 118.429 486.1 118.429H466.9C466.459 118.429 466.1 118.076 466.1 117.643V108.214C466.1 107.781 466.459 107.429 466.9 107.429H486.1C486.541 107.429 486.9 107.781 486.9 108.214V117.643ZM470.7 110.571V112.143C470.7 112.468 470.431 112.732 470.1 112.732H468.5C468.169 112.732 467.9 112.468 467.9 112.143V110.571C467.9 110.246 468.169 109.982 468.5 109.982H470.1C470.431 109.982 470.7 110.246 470.7 110.571ZM485.1 110.571V112.143C485.1 112.468 484.831 112.732 484.5 112.732H482.9C482.569 112.732 482.3 112.468 482.3 112.143V110.571C482.3 110.246 482.569 109.982 482.9 109.982H484.5C484.831 109.982 485.1 110.246 485.1 110.571ZM479.459 114.087C479.692 114.391 479.63 114.821 479.32 115.049C478.502 115.654 477.527 115.973 476.5 115.973C475.473 115.973 474.498 115.654 473.679 115.049C473.37 114.821 473.308 114.391 473.54 114.087C473.772 113.783 474.212 113.721 474.52 113.951C475.669 114.798 477.33 114.798 478.48 113.951C478.789 113.72 479.228 113.783 479.459 114.087Z" fill="#1F1F1F"/>
</g>
<path d="M538.5 93.5C548.165 93.5 556 101.335 556 111C556 120.665 548.165 128.5 538.5 128.5C528.835 128.5 521 120.665 521 111C521 101.335 528.835 93.5 538.5 93.5Z" stroke="#C7C7C7"/>
<g clip-path="url(#clip10_3678_24600)">
<path d="M548.1 105.857H539.3V103.5H540.7C541.252 103.5 541.7 103.06 541.7 102.518V98.9821C541.7 98.4404 541.252 98 540.7 98H536.3C535.748 98 535.3 98.4404 535.3 98.9821V102.518C535.3 103.06 535.748 103.5 536.3 103.5H537.7V105.857H528.9C527.577 105.857 526.5 106.914 526.5 108.214V117.643C526.5 118.943 527.577 120 528.9 120H548.1C549.423 120 550.5 118.943 550.5 117.643V108.214C550.5 106.914 549.423 105.857 548.1 105.857ZM536.9 99.5714H540.1V101.929H536.9V99.5714ZM548.9 117.643C548.9 118.076 548.541 118.429 548.1 118.429H528.9C528.459 118.429 528.1 118.076 528.1 117.643V108.214C528.1 107.781 528.459 107.429 528.9 107.429H548.1C548.541 107.429 548.9 107.781 548.9 108.214V117.643ZM532.7 110.571V112.143C532.7 112.468 532.431 112.732 532.1 112.732H530.5C530.169 112.732 529.9 112.468 529.9 112.143V110.571C529.9 110.246 530.169 109.982 530.5 109.982H532.1C532.431 109.982 532.7 110.246 532.7 110.571ZM547.1 110.571V112.143C547.1 112.468 546.831 112.732 546.5 112.732H544.9C544.569 112.732 544.3 112.468 544.3 112.143V110.571C544.3 110.246 544.569 109.982 544.9 109.982H546.5C546.831 109.982 547.1 110.246 547.1 110.571ZM541.459 114.087C541.692 114.391 541.63 114.821 541.32 115.049C540.502 115.654 539.527 115.973 538.5 115.973C537.473 115.973 536.498 115.654 535.679 115.049C535.37 114.821 535.308 114.391 535.54 114.087C535.772 113.783 536.212 113.721 536.52 113.951C537.669 114.798 539.33 114.798 540.48 113.951C540.789 113.72 541.228 113.783 541.459 114.087Z" fill="#1F1F1F"/>
</g>
<path d="M352.5 94.5C362.165 94.5 370 102.335 370 112C370 121.665 362.165 129.5 352.5 129.5C342.835 129.5 335 121.665 335 112C335 102.335 342.835 94.5 352.5 94.5Z" fill="#D0C5F4"/>
<path d="M352.5 94.5C362.165 94.5 370 102.335 370 112C370 121.665 362.165 129.5 352.5 129.5C342.835 129.5 335 121.665 335 112C335 102.335 342.835 94.5 352.5 94.5Z" stroke="#B6A6E9"/>
<g clip-path="url(#clip11_3678_24600)">
<path d="M362.1 106.857H353.3V104.5H354.7C355.252 104.5 355.7 104.06 355.7 103.518V99.9821C355.7 99.4404 355.252 99 354.7 99H350.3C349.748 99 349.3 99.4404 349.3 99.9821V103.518C349.3 104.06 349.748 104.5 350.3 104.5H351.7V106.857H342.9C341.577 106.857 340.5 107.914 340.5 109.214V118.643C340.5 119.943 341.577 121 342.9 121H362.1C363.423 121 364.5 119.943 364.5 118.643V109.214C364.5 107.914 363.423 106.857 362.1 106.857ZM350.9 100.571H354.1V102.929H350.9V100.571ZM362.9 118.643C362.9 119.076 362.541 119.429 362.1 119.429H342.9C342.459 119.429 342.1 119.076 342.1 118.643V109.214C342.1 108.781 342.459 108.429 342.9 108.429H362.1C362.541 108.429 362.9 108.781 362.9 109.214V118.643ZM346.7 111.571V113.143C346.7 113.468 346.431 113.732 346.1 113.732H344.5C344.169 113.732 343.9 113.468 343.9 113.143V111.571C343.9 111.246 344.169 110.982 344.5 110.982H346.1C346.431 110.982 346.7 111.246 346.7 111.571ZM361.1 111.571V113.143C361.1 113.468 360.831 113.732 360.5 113.732H358.9C358.569 113.732 358.3 113.468 358.3 113.143V111.571C358.3 111.246 358.569 110.982 358.9 110.982H360.5C360.831 110.982 361.1 111.246 361.1 111.571ZM355.459 115.087C355.692 115.391 355.63 115.821 355.32 116.049C354.502 116.654 353.527 116.973 352.5 116.973C351.473 116.973 350.498 116.654 349.679 116.049C349.37 115.821 349.308 115.391 349.54 115.087C349.772 114.783 350.212 114.721 350.52 114.951C351.669 115.798 353.33 115.798 354.48 114.951C354.789 114.72 355.228 114.783 355.459 115.087Z" fill="#1F1F1F"/>
</g>
<path d="M414.5 94.5C424.165 94.5 432 102.335 432 112C432 121.665 424.165 129.5 414.5 129.5C404.835 129.5 397 121.665 397 112C397 102.335 404.835 94.5 414.5 94.5Z" fill="#E0E0E0"/>
<path d="M414.5 94.5C424.165 94.5 432 102.335 432 112C432 121.665 424.165 129.5 414.5 129.5C404.835 129.5 397 121.665 397 112C397 102.335 404.835 94.5 414.5 94.5Z" stroke="#C7C7C7"/>
<g clip-path="url(#clip12_3678_24600)">
<path d="M424.1 106.857H415.3V104.5H416.7C417.252 104.5 417.7 104.06 417.7 103.518V99.9821C417.7 99.4404 417.252 99 416.7 99H412.3C411.748 99 411.3 99.4404 411.3 99.9821V103.518C411.3 104.06 411.748 104.5 412.3 104.5H413.7V106.857H404.9C403.577 106.857 402.5 107.914 402.5 109.214V118.643C402.5 119.943 403.577 121 404.9 121H424.1C425.423 121 426.5 119.943 426.5 118.643V109.214C426.5 107.914 425.423 106.857 424.1 106.857ZM412.9 100.571H416.1V102.929H412.9V100.571ZM424.9 118.643C424.9 119.076 424.541 119.429 424.1 119.429H404.9C404.459 119.429 404.1 119.076 404.1 118.643V109.214C404.1 108.781 404.459 108.429 404.9 108.429H424.1C424.541 108.429 424.9 108.781 424.9 109.214V118.643ZM408.7 111.571V113.143C408.7 113.468 408.431 113.732 408.1 113.732H406.5C406.169 113.732 405.9 113.468 405.9 113.143V111.571C405.9 111.246 406.169 110.982 406.5 110.982H408.1C408.431 110.982 408.7 111.246 408.7 111.571ZM423.1 111.571V113.143C423.1 113.468 422.831 113.732 422.5 113.732H420.9C420.569 113.732 420.3 113.468 420.3 113.143V111.571C420.3 111.246 420.569 110.982 420.9 110.982H422.5C422.831 110.982 423.1 111.246 423.1 111.571ZM417.459 115.087C417.692 115.391 417.63 115.821 417.32 116.049C416.502 116.654 415.527 116.973 414.5 116.973C413.473 116.973 412.498 116.654 411.679 116.049C411.37 115.821 411.308 115.391 411.54 115.087C411.772 114.783 412.212 114.721 412.52 114.951C413.669 115.798 415.33 115.798 416.48 114.951C416.789 114.72 417.228 114.783 417.459 115.087Z" fill="#1F1F1F"/>
</g>
<path d="M228.5 95.5C238.165 95.5 246 103.335 246 113C246 122.665 238.165 130.5 228.5 130.5C218.835 130.5 211 122.665 211 113C211 103.335 218.835 95.5 228.5 95.5Z" fill="#FCCB8F"/>
<path d="M228.5 95.5C238.165 95.5 246 103.335 246 113C246 122.665 238.165 130.5 228.5 130.5C218.835 130.5 211 122.665 211 113C211 103.335 218.835 95.5 228.5 95.5Z" stroke="#F8AE54"/>
<g clip-path="url(#clip13_3678_24600)">
<path d="M238.1 107.857H229.3V105.5H230.7C231.252 105.5 231.7 105.06 231.7 104.518V100.982C231.7 100.44 231.252 100 230.7 100H226.3C225.748 100 225.3 100.44 225.3 100.982V104.518C225.3 105.06 225.748 105.5 226.3 105.5H227.7V107.857H218.9C217.577 107.857 216.5 108.914 216.5 110.214V119.643C216.5 120.943 217.577 122 218.9 122H238.1C239.423 122 240.5 120.943 240.5 119.643V110.214C240.5 108.914 239.423 107.857 238.1 107.857ZM226.9 101.571H230.1V103.929H226.9V101.571ZM238.9 119.643C238.9 120.076 238.541 120.429 238.1 120.429H218.9C218.459 120.429 218.1 120.076 218.1 119.643V110.214C218.1 109.781 218.459 109.429 218.9 109.429H238.1C238.541 109.429 238.9 109.781 238.9 110.214V119.643ZM222.7 112.571V114.143C222.7 114.468 222.431 114.732 222.1 114.732H220.5C220.169 114.732 219.9 114.468 219.9 114.143V112.571C219.9 112.246 220.169 111.982 220.5 111.982H222.1C222.431 111.982 222.7 112.246 222.7 112.571ZM237.1 112.571V114.143C237.1 114.468 236.831 114.732 236.5 114.732H234.9C234.569 114.732 234.3 114.468 234.3 114.143V112.571C234.3 112.246 234.569 111.982 234.9 111.982H236.5C236.831 111.982 237.1 112.246 237.1 112.571ZM231.459 116.087C231.692 116.391 231.63 116.821 231.32 117.049C230.502 117.654 229.527 117.973 228.5 117.973C227.473 117.973 226.498 117.654 225.679 117.049C225.37 116.821 225.308 116.391 225.54 116.087C225.772 115.783 226.212 115.721 226.52 115.951C227.669 116.798 229.33 116.798 230.48 115.951C230.789 115.72 231.228 115.783 231.459 116.087Z" fill="#1F1F1F"/>
</g>
<path d="M43 96.5C52.665 96.5 60.5 104.335 60.5 114C60.5 123.665 52.665 131.5 43 131.5C33.335 131.5 25.5 123.665 25.5 114C25.5 104.335 33.335 96.5 43 96.5Z" fill="#B9E5E5"/>
<path d="M43 96.5C52.665 96.5 60.5 104.335 60.5 114C60.5 123.665 52.665 131.5 43 131.5C33.335 131.5 25.5 123.665 25.5 114C25.5 104.335 33.335 96.5 43 96.5Z" stroke="#9AD8D8"/>
<g clip-path="url(#clip14_3678_24600)">
<path d="M52.6 108.857H43.8V106.5H45.2C45.7516 106.5 46.2 106.06 46.2 105.518V101.982C46.2 101.44 45.7516 101 45.2 101H40.8C40.2484 101 39.8 101.44 39.8 101.982V105.518C39.8 106.06 40.2484 106.5 40.8 106.5H42.2V108.857H33.4C32.0766 108.857 31 109.914 31 111.214V120.643C31 121.943 32.0766 123 33.4 123H52.6C53.9234 123 55 121.943 55 120.643V111.214C55 109.914 53.9234 108.857 52.6 108.857ZM41.4 102.571H44.6V104.929H41.4V102.571ZM53.4 120.643C53.4 121.076 53.0414 121.429 52.6 121.429H33.4C32.959 121.429 32.6 121.076 32.6 120.643V111.214C32.6 110.781 32.959 110.429 33.4 110.429H52.6C53.0414 110.429 53.4 110.781 53.4 111.214V120.643ZM37.2 113.571V115.143C37.2 115.468 36.9312 115.732 36.6 115.732H35C34.6688 115.732 34.4 115.468 34.4 115.143V113.571C34.4 113.246 34.6688 112.982 35 112.982H36.6C36.9312 112.982 37.2 113.246 37.2 113.571ZM51.6 113.571V115.143C51.6 115.468 51.3312 115.732 51 115.732H49.4C49.0688 115.732 48.8 115.468 48.8 115.143V113.571C48.8 113.246 49.0688 112.982 49.4 112.982H51C51.3312 112.982 51.6 113.246 51.6 113.571ZM45.9594 117.087C46.1922 117.391 46.1297 117.821 45.8203 118.049C45.0016 118.654 44.0266 118.973 43 118.973C41.9734 118.973 40.998 118.654 40.1793 118.049C39.8699 117.821 39.8078 117.391 40.0398 117.087C40.2723 116.783 40.7117 116.721 41.0199 116.951C42.1691 117.798 43.8297 117.798 44.9797 116.951C45.2891 116.72 45.7281 116.783 45.9594 117.087Z" fill="#1F1F1F"/>
</g>
<path d="M86.5 114C86.5 104.059 94.5589 96 104.5 96V96C114.441 96 122.5 104.059 122.5 114V114C122.5 123.941 114.441 132 104.5 132V132C94.5589 132 86.5 123.941 86.5 114V114Z" fill="#EE0000"/>
<g clip-path="url(#clip15_3678_24600)">
<path d="M114.1 108.857H105.3V106.5H106.7C107.252 106.5 107.7 106.06 107.7 105.518V101.982C107.7 101.44 107.252 101 106.7 101H102.3C101.748 101 101.3 101.44 101.3 101.982V105.518C101.3 106.06 101.748 106.5 102.3 106.5H103.7V108.857H94.9C93.5766 108.857 92.5 109.914 92.5 111.214V120.643C92.5 121.943 93.5766 123 94.9 123H114.1C115.423 123 116.5 121.943 116.5 120.643V111.214C116.5 109.914 115.423 108.857 114.1 108.857ZM102.9 102.571H106.1V104.929H102.9V102.571ZM114.9 120.643C114.9 121.076 114.541 121.429 114.1 121.429H94.9C94.459 121.429 94.1 121.076 94.1 120.643V111.214C94.1 110.781 94.459 110.429 94.9 110.429H114.1C114.541 110.429 114.9 110.781 114.9 111.214V120.643ZM98.7 113.571V115.143C98.7 115.468 98.4312 115.732 98.1 115.732H96.5C96.1688 115.732 95.9 115.468 95.9 115.143V113.571C95.9 113.246 96.1688 112.982 96.5 112.982H98.1C98.4312 112.982 98.7 113.246 98.7 113.571ZM113.1 113.571V115.143C113.1 115.468 112.831 115.732 112.5 115.732H110.9C110.569 115.732 110.3 115.468 110.3 115.143V113.571C110.3 113.246 110.569 112.982 110.9 112.982H112.5C112.831 112.982 113.1 113.246 113.1 113.571ZM107.459 117.087C107.692 117.391 107.63 117.821 107.32 118.049C106.502 118.654 105.527 118.973 104.5 118.973C103.473 118.973 102.498 118.654 101.679 118.049C101.37 117.821 101.308 117.391 101.54 117.087C101.772 116.783 102.212 116.721 102.52 116.951C103.669 117.798 105.33 117.798 106.48 116.951C106.789 116.72 107.228 116.783 107.459 117.087Z" fill="white"/>
</g>
<path d="M166.5 96.5C176.165 96.5 184 104.335 184 114C184 123.665 176.165 131.5 166.5 131.5C156.835 131.5 149 123.665 149 114C149 104.335 156.835 96.5 166.5 96.5Z" fill="#FBC5C5"/>
<path d="M166.5 96.5C176.165 96.5 184 104.335 184 114C184 123.665 176.165 131.5 166.5 131.5C156.835 131.5 149 123.665 149 114C149 104.335 156.835 96.5 166.5 96.5Z" stroke="#F9A8A8"/>
<g clip-path="url(#clip16_3678_24600)">
<path d="M176.1 108.857H167.3V106.5H168.7C169.252 106.5 169.7 106.06 169.7 105.518V101.982C169.7 101.44 169.252 101 168.7 101H164.3C163.748 101 163.3 101.44 163.3 101.982V105.518C163.3 106.06 163.748 106.5 164.3 106.5H165.7V108.857H156.9C155.577 108.857 154.5 109.914 154.5 111.214V120.643C154.5 121.943 155.577 123 156.9 123H176.1C177.423 123 178.5 121.943 178.5 120.643V111.214C178.5 109.914 177.423 108.857 176.1 108.857ZM164.9 102.571H168.1V104.929H164.9V102.571ZM176.9 120.643C176.9 121.076 176.541 121.429 176.1 121.429H156.9C156.459 121.429 156.1 121.076 156.1 120.643V111.214C156.1 110.781 156.459 110.429 156.9 110.429H176.1C176.541 110.429 176.9 110.781 176.9 111.214V120.643ZM160.7 113.571V115.143C160.7 115.468 160.431 115.732 160.1 115.732H158.5C158.169 115.732 157.9 115.468 157.9 115.143V113.571C157.9 113.246 158.169 112.982 158.5 112.982H160.1C160.431 112.982 160.7 113.246 160.7 113.571ZM175.1 113.571V115.143C175.1 115.468 174.831 115.732 174.5 115.732H172.9C172.569 115.732 172.3 115.468 172.3 115.143V113.571C172.3 113.246 172.569 112.982 172.9 112.982H174.5C174.831 112.982 175.1 113.246 175.1 113.571ZM169.459 117.087C169.692 117.391 169.63 117.821 169.32 118.049C168.502 118.654 167.527 118.973 166.5 118.973C165.473 118.973 164.498 118.654 163.679 118.049C163.37 117.821 163.308 117.391 163.54 117.087C163.772 116.783 164.212 116.721 164.52 116.951C165.669 117.798 167.33 117.798 168.48 116.951C168.789 116.72 169.228 116.783 169.459 117.087Z" fill="#1F1F1F"/>
</g>
<path d="M290.5 96.5C300.165 96.5 308 104.335 308 114C308 123.665 300.165 131.5 290.5 131.5C280.835 131.5 273 123.665 273 114C273 104.335 280.835 96.5 290.5 96.5Z" fill="#FFE072"/>
<path d="M290.5 96.5C300.165 96.5 308 104.335 308 114C308 123.665 300.165 131.5 290.5 131.5C280.835 131.5 273 123.665 273 114C273 104.335 280.835 96.5 290.5 96.5Z" stroke="#FFCC17"/>
<g clip-path="url(#clip17_3678_24600)">
<path d="M300.1 108.857H291.3V106.5H292.7C293.252 106.5 293.7 106.06 293.7 105.518V101.982C293.7 101.44 293.252 101 292.7 101H288.3C287.748 101 287.3 101.44 287.3 101.982V105.518C287.3 106.06 287.748 106.5 288.3 106.5H289.7V108.857H280.9C279.577 108.857 278.5 109.914 278.5 111.214V120.643C278.5 121.943 279.577 123 280.9 123H300.1C301.423 123 302.5 121.943 302.5 120.643V111.214C302.5 109.914 301.423 108.857 300.1 108.857ZM288.9 102.571H292.1V104.929H288.9V102.571ZM300.9 120.643C300.9 121.076 300.541 121.429 300.1 121.429H280.9C280.459 121.429 280.1 121.076 280.1 120.643V111.214C280.1 110.781 280.459 110.429 280.9 110.429H300.1C300.541 110.429 300.9 110.781 300.9 111.214V120.643ZM284.7 113.571V115.143C284.7 115.468 284.431 115.732 284.1 115.732H282.5C282.169 115.732 281.9 115.468 281.9 115.143V113.571C281.9 113.246 282.169 112.982 282.5 112.982H284.1C284.431 112.982 284.7 113.246 284.7 113.571ZM299.1 113.571V115.143C299.1 115.468 298.831 115.732 298.5 115.732H296.9C296.569 115.732 296.3 115.468 296.3 115.143V113.571C296.3 113.246 296.569 112.982 296.9 112.982H298.5C298.831 112.982 299.1 113.246 299.1 113.571ZM293.459 117.087C293.692 117.391 293.63 117.821 293.32 118.049C292.502 118.654 291.527 118.973 290.5 118.973C289.473 118.973 288.498 118.654 287.679 118.049C287.37 117.821 287.308 117.391 287.54 117.087C287.772 116.783 288.212 116.721 288.52 116.951C289.669 117.798 291.33 117.798 292.48 116.951C292.789 116.72 293.228 116.783 293.459 117.087Z" fill="#1F1F1F"/>
</g>
<g clip-path="url(#clip18_3678_24600)">
<circle cx="476.5" cy="166" r="12" fill="white"/>
<mask id="mask0_3678_24600" style="mask-type:luminance" maskUnits="userSpaceOnUse" x="464" y="154" width="25" height="24">
<circle cx="476.5" cy="166" r="12" fill="white"/>
</mask>
<g mask="url(#mask0_3678_24600)">
<path d="M476.5 154.5C482.851 154.5 488 159.647 488 165.996C488 172.345 482.851 177.492 476.5 177.492C470.149 177.492 465 172.345 465 165.996C465 159.647 470.149 154.5 476.5 154.5Z" stroke="#C7C7C7"/>
<g clip-path="url(#clip19_3678_24600)">
<path d="M482.9 162.357H477.033V160.75H477.967C478.334 160.75 478.633 160.45 478.633 160.08V157.67C478.633 157.3 478.334 157 477.967 157H475.033C474.666 157 474.367 157.3 474.367 157.67V160.08C474.367 160.45 474.666 160.75 475.033 160.75H475.967V162.357H470.1C469.218 162.357 468.5 163.078 468.5 163.964V170.393C468.5 171.279 469.218 172 470.1 172H482.9C483.782 172 484.5 171.279 484.5 170.393V163.964C484.5 163.078 483.782 162.357 482.9 162.357ZM475.433 158.071H477.567V159.679H475.433V158.071ZM483.433 170.393C483.433 170.688 483.194 170.929 482.9 170.929H470.1C469.806 170.929 469.567 170.688 469.567 170.393V163.964C469.567 163.669 469.806 163.429 470.1 163.429H482.9C483.194 163.429 483.433 163.669 483.433 163.964V170.393ZM472.633 165.571V166.643C472.633 166.865 472.454 167.045 472.233 167.045H471.167C470.946 167.045 470.767 166.865 470.767 166.643V165.571C470.767 165.35 470.946 165.17 471.167 165.17H472.233C472.454 165.17 472.633 165.35 472.633 165.571ZM482.233 165.571V166.643C482.233 166.865 482.054 167.045 481.833 167.045H480.767C480.546 167.045 480.367 166.865 480.367 166.643V165.571C480.367 165.35 480.546 165.17 480.767 165.17H481.833C482.054 165.17 482.233 165.35 482.233 165.571ZM478.473 167.969C478.628 168.176 478.586 168.469 478.38 168.625C477.834 169.037 477.184 169.254 476.5 169.254C475.816 169.254 475.165 169.037 474.62 168.625C474.413 168.469 474.372 168.176 474.527 167.969C474.682 167.761 474.974 167.719 475.18 167.875C475.946 168.453 477.053 168.453 477.82 167.875C478.026 167.718 478.319 167.761 478.473 167.969Z" fill="#1F1F1F"/>
</g>
</g>
</g>
<g clip-path="url(#clip20_3678_24600)">
<mask id="mask1_3678_24600" style="mask-type:luminance" maskUnits="userSpaceOnUse" x="522" y="154" width="25" height="24">
<circle cx="534.5" cy="166" r="12" fill="white"/>
</mask>
<g mask="url(#mask1_3678_24600)">
<path d="M534.5 154.5C540.851 154.5 546 159.647 546 165.996C546 172.345 540.851 177.492 534.5 177.492C528.149 177.492 523 172.345 523 165.996C523 159.647 528.149 154.5 534.5 154.5Z" stroke="#C7C7C7"/>
<g clip-path="url(#clip21_3678_24600)">
<path d="M540.9 162.357H535.033V160.75H535.967C536.334 160.75 536.633 160.45 536.633 160.08V157.67C536.633 157.3 536.334 157 535.967 157H533.033C532.666 157 532.367 157.3 532.367 157.67V160.08C532.367 160.45 532.666 160.75 533.033 160.75H533.967V162.357H528.1C527.218 162.357 526.5 163.078 526.5 163.964V170.393C526.5 171.279 527.218 172 528.1 172H540.9C541.782 172 542.5 171.279 542.5 170.393V163.964C542.5 163.078 541.782 162.357 540.9 162.357ZM533.433 158.071H535.567V159.679H533.433V158.071ZM541.433 170.393C541.433 170.688 541.194 170.929 540.9 170.929H528.1C527.806 170.929 527.567 170.688 527.567 170.393V163.964C527.567 163.669 527.806 163.429 528.1 163.429H540.9C541.194 163.429 541.433 163.669 541.433 163.964V170.393ZM530.633 165.571V166.643C530.633 166.865 530.454 167.045 530.233 167.045H529.167C528.946 167.045 528.767 166.865 528.767 166.643V165.571C528.767 165.35 528.946 165.17 529.167 165.17H530.233C530.454 165.17 530.633 165.35 530.633 165.571ZM540.233 165.571V166.643C540.233 166.865 540.054 167.045 539.833 167.045H538.767C538.546 167.045 538.367 166.865 538.367 166.643V165.571C538.367 165.35 538.546 165.17 538.767 165.17H539.833C540.054 165.17 540.233 165.35 540.233 165.571ZM536.473 167.969C536.628 168.176 536.586 168.469 536.38 168.625C535.834 169.037 535.184 169.254 534.5 169.254C533.816 169.254 533.165 169.037 532.62 168.625C532.413 168.469 532.372 168.176 532.527 167.969C532.682 167.761 532.974 167.719 533.18 167.875C533.946 168.453 535.053 168.453 535.82 167.875C536.026 167.718 536.319 167.761 536.473 167.969Z" fill="#1F1F1F"/>
</g>
</g>
</g>
<g clip-path="url(#clip22_3678_24600)">
<circle cx="352.5" cy="167" r="12" fill="#D0C5F4"/>
<mask id="mask2_3678_24600" style="mask-type:luminance" maskUnits="userSpaceOnUse" x="340" y="155" width="25" height="24">
<circle cx="352.5" cy="167" r="12" fill="white"/>
</mask>
<g mask="url(#mask2_3678_24600)">
<path d="M352.5 155.5C358.851 155.5 364 160.647 364 166.996C364 173.345 358.851 178.492 352.5 178.492C346.149 178.492 341 173.345 341 166.996C341 160.647 346.149 155.5 352.5 155.5Z" stroke="#B6A6E9"/>
<g clip-path="url(#clip23_3678_24600)">
<path d="M358.9 163.357H353.033V161.75H353.967C354.334 161.75 354.633 161.45 354.633 161.08V158.67C354.633 158.3 354.334 158 353.967 158H351.033C350.666 158 350.367 158.3 350.367 158.67V161.08C350.367 161.45 350.666 161.75 351.033 161.75H351.967V163.357H346.1C345.218 163.357 344.5 164.078 344.5 164.964V171.393C344.5 172.279 345.218 173 346.1 173H358.9C359.782 173 360.5 172.279 360.5 171.393V164.964C360.5 164.078 359.782 163.357 358.9 163.357ZM351.433 159.071H353.567V160.679H351.433V159.071ZM359.433 171.393C359.433 171.688 359.194 171.929 358.9 171.929H346.1C345.806 171.929 345.567 171.688 345.567 171.393V164.964C345.567 164.669 345.806 164.429 346.1 164.429H358.9C359.194 164.429 359.433 164.669 359.433 164.964V171.393ZM348.633 166.571V167.643C348.633 167.865 348.454 168.045 348.233 168.045H347.167C346.946 168.045 346.767 167.865 346.767 167.643V166.571C346.767 166.35 346.946 166.17 347.167 166.17H348.233C348.454 166.17 348.633 166.35 348.633 166.571ZM358.233 166.571V167.643C358.233 167.865 358.054 168.045 357.833 168.045H356.767C356.546 168.045 356.367 167.865 356.367 167.643V166.571C356.367 166.35 356.546 166.17 356.767 166.17H357.833C358.054 166.17 358.233 166.35 358.233 166.571ZM354.473 168.969C354.628 169.176 354.586 169.469 354.38 169.625C353.834 170.037 353.184 170.254 352.5 170.254C351.816 170.254 351.165 170.037 350.62 169.625C350.413 169.469 350.372 169.176 350.527 168.969C350.682 168.761 350.974 168.719 351.18 168.875C351.946 169.453 353.053 169.453 353.82 168.875C354.026 168.718 354.319 168.761 354.473 168.969Z" fill="#1F1F1F"/>
</g>
</g>
</g>
<g clip-path="url(#clip24_3678_24600)">
<circle cx="414.5" cy="167" r="12" fill="#E0E0E0"/>
<mask id="mask3_3678_24600" style="mask-type:luminance" maskUnits="userSpaceOnUse" x="402" y="155" width="25" height="24">
<circle cx="414.5" cy="167" r="12" fill="white"/>
</mask>
<g mask="url(#mask3_3678_24600)">
<path d="M414.5 155.5C420.851 155.5 426 160.647 426 166.996C426 173.345 420.851 178.492 414.5 178.492C408.149 178.492 403 173.345 403 166.996C403 160.647 408.149 155.5 414.5 155.5Z" stroke="#C7C7C7"/>
<g clip-path="url(#clip25_3678_24600)">
<path d="M420.9 163.357H415.033V161.75H415.967C416.334 161.75 416.633 161.45 416.633 161.08V158.67C416.633 158.3 416.334 158 415.967 158H413.033C412.666 158 412.367 158.3 412.367 158.67V161.08C412.367 161.45 412.666 161.75 413.033 161.75H413.967V163.357H408.1C407.218 163.357 406.5 164.078 406.5 164.964V171.393C406.5 172.279 407.218 173 408.1 173H420.9C421.782 173 422.5 172.279 422.5 171.393V164.964C422.5 164.078 421.782 163.357 420.9 163.357ZM413.433 159.071H415.567V160.679H413.433V159.071ZM421.433 171.393C421.433 171.688 421.194 171.929 420.9 171.929H408.1C407.806 171.929 407.567 171.688 407.567 171.393V164.964C407.567 164.669 407.806 164.429 408.1 164.429H420.9C421.194 164.429 421.433 164.669 421.433 164.964V171.393ZM410.633 166.571V167.643C410.633 167.865 410.454 168.045 410.233 168.045H409.167C408.946 168.045 408.767 167.865 408.767 167.643V166.571C408.767 166.35 408.946 166.17 409.167 166.17H410.233C410.454 166.17 410.633 166.35 410.633 166.571ZM420.233 166.571V167.643C420.233 167.865 420.054 168.045 419.833 168.045H418.767C418.546 168.045 418.367 167.865 418.367 167.643V166.571C418.367 166.35 418.546 166.17 418.767 166.17H419.833C420.054 166.17 420.233 166.35 420.233 166.571ZM416.473 168.969C416.628 169.176 416.586 169.469 416.38 169.625C415.834 170.037 415.184 170.254 414.5 170.254C413.816 170.254 413.165 170.037 412.62 169.625C412.413 169.469 412.372 169.176 412.527 168.969C412.682 168.761 412.974 168.719 413.18 168.875C413.946 169.453 415.053 169.453 415.82 168.875C416.026 168.718 416.319 168.761 416.473 168.969Z" fill="#1F1F1F"/>
</g>
</g>
</g>
<g clip-path="url(#clip26_3678_24600)">
<circle cx="44" cy="168" r="12" fill="#B9E5E5"/>
<mask id="mask4_3678_24600" style="mask-type:luminance" maskUnits="userSpaceOnUse" x="32" y="156" width="24" height="24">
<circle cx="44" cy="168" r="12" fill="white"/>
</mask>
<g mask="url(#mask4_3678_24600)">
<path d="M44 156.5C50.3514 156.5 55.5 161.647 55.5 167.996C55.4999 174.345 50.3514 179.492 44 179.492C37.6486 179.492 32.5001 174.345 32.5 167.996C32.5 161.647 37.6486 156.5 44 156.5Z" stroke="#9AD8D8"/>
<g clip-path="url(#clip27_3678_24600)">
<path d="M50.4 164.357H44.5333V162.75H45.4667C45.8344 162.75 46.1333 162.45 46.1333 162.08V159.67C46.1333 159.3 45.8344 159 45.4667 159H42.5333C42.1656 159 41.8667 159.3 41.8667 159.67V162.08C41.8667 162.45 42.1656 162.75 42.5333 162.75H43.4667V164.357H37.6C36.7177 164.357 36 165.078 36 165.964V172.393C36 173.279 36.7177 174 37.6 174H50.4C51.2823 174 52 173.279 52 172.393V165.964C52 165.078 51.2823 164.357 50.4 164.357ZM42.9333 160.071H45.0667V161.679H42.9333V160.071ZM50.9333 172.393C50.9333 172.688 50.6943 172.929 50.4 172.929H37.6C37.306 172.929 37.0667 172.688 37.0667 172.393V165.964C37.0667 165.669 37.306 165.429 37.6 165.429H50.4C50.6943 165.429 50.9333 165.669 50.9333 165.964V172.393ZM40.1333 167.571V168.643C40.1333 168.865 39.9542 169.045 39.7333 169.045H38.6667C38.4458 169.045 38.2667 168.865 38.2667 168.643V167.571C38.2667 167.35 38.4458 167.17 38.6667 167.17H39.7333C39.9542 167.17 40.1333 167.35 40.1333 167.571ZM49.7333 167.571V168.643C49.7333 168.865 49.5542 169.045 49.3333 169.045H48.2667C48.0458 169.045 47.8667 168.865 47.8667 168.643V167.571C47.8667 167.35 48.0458 167.17 48.2667 167.17H49.3333C49.5542 167.17 49.7333 167.35 49.7333 167.571ZM45.9729 169.969C46.1281 170.176 46.0865 170.469 45.8802 170.625C45.3344 171.037 44.6844 171.254 44 171.254C43.3156 171.254 42.6654 171.037 42.1195 170.625C41.9133 170.469 41.8719 170.176 42.0266 169.969C42.1815 169.761 42.4745 169.719 42.6799 169.875C43.4461 170.453 44.5531 170.453 45.3198 169.875C45.526 169.718 45.8188 169.761 45.9729 169.969Z" fill="#1F1F1F"/>
</g>
</g>
</g>
<g clip-path="url(#clip28_3678_24600)">
<circle cx="105.5" cy="168" r="12" fill="#EE0000"/>
<mask id="mask5_3678_24600" style="mask-type:luminance" maskUnits="userSpaceOnUse" x="93" y="156" width="25" height="24">
<circle cx="105.5" cy="168" r="12" fill="white"/>
</mask>
<g mask="url(#mask5_3678_24600)">
<g clip-path="url(#clip29_3678_24600)">
<path d="M111.9 164.357H106.033V162.75H106.967C107.334 162.75 107.633 162.45 107.633 162.08V159.67C107.633 159.3 107.334 159 106.967 159H104.033C103.666 159 103.367 159.3 103.367 159.67V162.08C103.367 162.45 103.666 162.75 104.033 162.75H104.967V164.357H99.1C98.2177 164.357 97.5 165.078 97.5 165.964V172.393C97.5 173.279 98.2177 174 99.1 174H111.9C112.782 174 113.5 173.279 113.5 172.393V165.964C113.5 165.078 112.782 164.357 111.9 164.357ZM104.433 160.071H106.567V161.679H104.433V160.071ZM112.433 172.393C112.433 172.688 112.194 172.929 111.9 172.929H99.1C98.806 172.929 98.5667 172.688 98.5667 172.393V165.964C98.5667 165.669 98.806 165.429 99.1 165.429H111.9C112.194 165.429 112.433 165.669 112.433 165.964V172.393ZM101.633 167.571V168.643C101.633 168.865 101.454 169.045 101.233 169.045H100.167C99.9458 169.045 99.7667 168.865 99.7667 168.643V167.571C99.7667 167.35 99.9458 167.17 100.167 167.17H101.233C101.454 167.17 101.633 167.35 101.633 167.571ZM111.233 167.571V168.643C111.233 168.865 111.054 169.045 110.833 169.045H109.767C109.546 169.045 109.367 168.865 109.367 168.643V167.571C109.367 167.35 109.546 167.17 109.767 167.17H110.833C111.054 167.17 111.233 167.35 111.233 167.571ZM107.473 169.969C107.628 170.176 107.586 170.469 107.38 170.625C106.834 171.037 106.184 171.254 105.5 171.254C104.816 171.254 104.165 171.037 103.62 170.625C103.413 170.469 103.372 170.176 103.527 169.969C103.682 169.761 103.974 169.719 104.18 169.875C104.946 170.453 106.053 170.453 106.82 169.875C107.026 169.718 107.319 169.761 107.473 169.969Z" fill="white"/>
</g>
</g>
</g>
<g clip-path="url(#clip30_3678_24600)">
<circle cx="167.5" cy="168" r="12" fill="#FBC5C5"/>
<mask id="mask6_3678_24600" style="mask-type:luminance" maskUnits="userSpaceOnUse" x="155" y="156" width="25" height="24">
<circle cx="167.5" cy="168" r="12" fill="white"/>
</mask>
<g mask="url(#mask6_3678_24600)">
<path d="M167.5 156.5C173.851 156.5 179 161.647 179 167.996C179 174.345 173.851 179.492 167.5 179.492C161.149 179.492 156 174.345 156 167.996C156 161.647 161.149 156.5 167.5 156.5Z" stroke="#F9A8A8"/>
<g clip-path="url(#clip31_3678_24600)">
<path d="M173.9 164.357H168.033V162.75H168.967C169.334 162.75 169.633 162.45 169.633 162.08V159.67C169.633 159.3 169.334 159 168.967 159H166.033C165.666 159 165.367 159.3 165.367 159.67V162.08C165.367 162.45 165.666 162.75 166.033 162.75H166.967V164.357H161.1C160.218 164.357 159.5 165.078 159.5 165.964V172.393C159.5 173.279 160.218 174 161.1 174H173.9C174.782 174 175.5 173.279 175.5 172.393V165.964C175.5 165.078 174.782 164.357 173.9 164.357ZM166.433 160.071H168.567V161.679H166.433V160.071ZM174.433 172.393C174.433 172.688 174.194 172.929 173.9 172.929H161.1C160.806 172.929 160.567 172.688 160.567 172.393V165.964C160.567 165.669 160.806 165.429 161.1 165.429H173.9C174.194 165.429 174.433 165.669 174.433 165.964V172.393ZM163.633 167.571V168.643C163.633 168.865 163.454 169.045 163.233 169.045H162.167C161.946 169.045 161.767 168.865 161.767 168.643V167.571C161.767 167.35 161.946 167.17 162.167 167.17H163.233C163.454 167.17 163.633 167.35 163.633 167.571ZM173.233 167.571V168.643C173.233 168.865 173.054 169.045 172.833 169.045H171.767C171.546 169.045 171.367 168.865 171.367 168.643V167.571C171.367 167.35 171.546 167.17 171.767 167.17H172.833C173.054 167.17 173.233 167.35 173.233 167.571ZM169.473 169.969C169.628 170.176 169.586 170.469 169.38 170.625C168.834 171.037 168.184 171.254 167.5 171.254C166.816 171.254 166.165 171.037 165.62 170.625C165.413 170.469 165.372 170.176 165.527 169.969C165.682 169.761 165.974 169.719 166.18 169.875C166.946 170.453 168.053 170.453 168.82 169.875C169.026 169.718 169.319 169.761 169.473 169.969Z" fill="#1F1F1F"/>
</g>
</g>
</g>
<g clip-path="url(#clip32_3678_24600)">
<circle cx="228.5" cy="168" r="12" fill="#FCCB8F"/>
<mask id="mask7_3678_24600" style="mask-type:luminance" maskUnits="userSpaceOnUse" x="216" y="156" width="25" height="24">
<circle cx="228.5" cy="168" r="12" fill="white"/>
</mask>
<g mask="url(#mask7_3678_24600)">
<path d="M228.5 156.5C234.851 156.5 240 161.647 240 167.996C240 174.345 234.851 179.492 228.5 179.492C222.149 179.492 217 174.345 217 167.996C217 161.647 222.149 156.5 228.5 156.5Z" stroke="#F8AE54"/>
<g clip-path="url(#clip33_3678_24600)">
<path d="M234.9 164.357H229.033V162.75H229.967C230.334 162.75 230.633 162.45 230.633 162.08V159.67C230.633 159.3 230.334 159 229.967 159H227.033C226.666 159 226.367 159.3 226.367 159.67V162.08C226.367 162.45 226.666 162.75 227.033 162.75H227.967V164.357H222.1C221.218 164.357 220.5 165.078 220.5 165.964V172.393C220.5 173.279 221.218 174 222.1 174H234.9C235.782 174 236.5 173.279 236.5 172.393V165.964C236.5 165.078 235.782 164.357 234.9 164.357ZM227.433 160.071H229.567V161.679H227.433V160.071ZM235.433 172.393C235.433 172.688 235.194 172.929 234.9 172.929H222.1C221.806 172.929 221.567 172.688 221.567 172.393V165.964C221.567 165.669 221.806 165.429 222.1 165.429H234.9C235.194 165.429 235.433 165.669 235.433 165.964V172.393ZM224.633 167.571V168.643C224.633 168.865 224.454 169.045 224.233 169.045H223.167C222.946 169.045 222.767 168.865 222.767 168.643V167.571C222.767 167.35 222.946 167.17 223.167 167.17H224.233C224.454 167.17 224.633 167.35 224.633 167.571ZM234.233 167.571V168.643C234.233 168.865 234.054 169.045 233.833 169.045H232.767C232.546 169.045 232.367 168.865 232.367 168.643V167.571C232.367 167.35 232.546 167.17 232.767 167.17H233.833C234.054 167.17 234.233 167.35 234.233 167.571ZM230.473 169.969C230.628 170.176 230.586 170.469 230.38 170.625C229.834 171.037 229.184 171.254 228.5 171.254C227.816 171.254 227.165 171.037 226.62 170.625C226.413 170.469 226.372 170.176 226.527 169.969C226.682 169.761 226.974 169.719 227.18 169.875C227.946 170.453 229.053 170.453 229.82 169.875C230.026 169.718 230.319 169.761 230.473 169.969Z" fill="#1F1F1F"/>
</g>
</g>
</g>
<g clip-path="url(#clip34_3678_24600)">
<circle cx="290.5" cy="169" r="12" fill="#FFE072"/>
<mask id="mask8_3678_24600" style="mask-type:luminance" maskUnits="userSpaceOnUse" x="278" y="157" width="25" height="24">
<circle cx="290.5" cy="169" r="12" fill="white"/>
</mask>
<g mask="url(#mask8_3678_24600)">
<path d="M290.5 157.5C296.851 157.5 302 162.647 302 168.996C302 175.345 296.851 180.492 290.5 180.492C284.149 180.492 279 175.345 279 168.996C279 162.647 284.149 157.5 290.5 157.5Z" stroke="#FFCC17"/>
<g clip-path="url(#clip35_3678_24600)">
<path d="M296.9 165.357H291.033V163.75H291.967C292.334 163.75 292.633 163.45 292.633 163.08V160.67C292.633 160.3 292.334 160 291.967 160H289.033C288.666 160 288.367 160.3 288.367 160.67V163.08C288.367 163.45 288.666 163.75 289.033 163.75H289.967V165.357H284.1C283.218 165.357 282.5 166.078 282.5 166.964V173.393C282.5 174.279 283.218 175 284.1 175H296.9C297.782 175 298.5 174.279 298.5 173.393V166.964C298.5 166.078 297.782 165.357 296.9 165.357ZM289.433 161.071H291.567V162.679H289.433V161.071ZM297.433 173.393C297.433 173.688 297.194 173.929 296.9 173.929H284.1C283.806 173.929 283.567 173.688 283.567 173.393V166.964C283.567 166.669 283.806 166.429 284.1 166.429H296.9C297.194 166.429 297.433 166.669 297.433 166.964V173.393ZM286.633 168.571V169.643C286.633 169.865 286.454 170.045 286.233 170.045H285.167C284.946 170.045 284.767 169.865 284.767 169.643V168.571C284.767 168.35 284.946 168.17 285.167 168.17H286.233C286.454 168.17 286.633 168.35 286.633 168.571ZM296.233 168.571V169.643C296.233 169.865 296.054 170.045 295.833 170.045H294.767C294.546 170.045 294.367 169.865 294.367 169.643V168.571C294.367 168.35 294.546 168.17 294.767 168.17H295.833C296.054 168.17 296.233 168.35 296.233 168.571ZM292.473 170.969C292.628 171.176 292.586 171.469 292.38 171.625C291.834 172.037 291.184 172.254 290.5 172.254C289.816 172.254 289.165 172.037 288.62 171.625C288.413 171.469 288.372 171.176 288.527 170.969C288.682 170.761 288.974 170.719 289.18 170.875C289.946 171.453 291.053 171.453 291.82 170.875C292.026 170.718 292.319 170.761 292.473 170.969Z" fill="#1F1F1F"/>
</g>
</g>
</g>
<defs>
<clipPath id="clip0_3678_24600">
<rect width="33" height="31" fill="white" transform="translate(27 30)"/>
</clipPath>
<clipPath id="clip1_3678_24600">
<rect width="33" height="31" fill="white" transform="translate(88.5 30)"/>
</clipPath>
<clipPath id="clip2_3678_24600">
<rect width="33" height="31" fill="white" transform="translate(150.5 30)"/>
</clipPath>
<clipPath id="clip3_3678_24600">
<rect width="33" height="31" fill="white" transform="translate(212.5 30)"/>
</clipPath>
<clipPath id="clip4_3678_24600">
<rect width="33" height="31" fill="white" transform="translate(274.5 30)"/>
</clipPath>
<clipPath id="clip5_3678_24600">
<rect width="33" height="31" fill="white" transform="translate(336.5 30)"/>
</clipPath>
<clipPath id="clip6_3678_24600">
<rect width="33" height="31" fill="white" transform="translate(398.5 30)"/>
</clipPath>
<clipPath id="clip7_3678_24600">
<rect width="33" height="31" fill="white" transform="translate(460.5 30)"/>
</clipPath>
<clipPath id="clip8_3678_24600">
<rect width="33" height="31" fill="white" transform="translate(522.5 30)"/>
</clipPath>
<clipPath id="clip9_3678_24600">
<rect width="24" height="22" fill="white" transform="translate(464.5 98)"/>
</clipPath>
<clipPath id="clip10_3678_24600">
<rect width="24" height="22" fill="white" transform="translate(526.5 98)"/>
</clipPath>
<clipPath id="clip11_3678_24600">
<rect width="24" height="22" fill="white" transform="translate(340.5 99)"/>
</clipPath>
<clipPath id="clip12_3678_24600">
<rect width="24" height="22" fill="white" transform="translate(402.5 99)"/>
</clipPath>
<clipPath id="clip13_3678_24600">
<rect width="24" height="22" fill="white" transform="translate(216.5 100)"/>
</clipPath>
<clipPath id="clip14_3678_24600">
<rect width="24" height="22" fill="white" transform="translate(31 101)"/>
</clipPath>
<clipPath id="clip15_3678_24600">
<rect width="24" height="22" fill="white" transform="translate(92.5 101)"/>
</clipPath>
<clipPath id="clip16_3678_24600">
<rect width="24" height="22" fill="white" transform="translate(154.5 101)"/>
</clipPath>
<clipPath id="clip17_3678_24600">
<rect width="24" height="22" fill="white" transform="translate(278.5 101)"/>
</clipPath>
<clipPath id="clip18_3678_24600">
<rect width="24" height="24" fill="white" transform="translate(464.5 154)"/>
</clipPath>
<clipPath id="clip19_3678_24600">
<rect width="16" height="15" fill="white" transform="translate(468.5 157)"/>
</clipPath>
<clipPath id="clip20_3678_24600">
<rect width="24" height="24" fill="white" transform="translate(522.5 154)"/>
</clipPath>
<clipPath id="clip21_3678_24600">
<rect width="16" height="15" fill="white" transform="translate(526.5 157)"/>
</clipPath>
<clipPath id="clip22_3678_24600">
<rect width="24" height="24" fill="white" transform="translate(340.5 155)"/>
</clipPath>
<clipPath id="clip23_3678_24600">
<rect width="16" height="15" fill="white" transform="translate(344.5 158)"/>
</clipPath>
<clipPath id="clip24_3678_24600">
<rect width="24" height="24" fill="white" transform="translate(402.5 155)"/>
</clipPath>
<clipPath id="clip25_3678_24600">
<rect width="16" height="15" fill="white" transform="translate(406.5 158)"/>
</clipPath>
<clipPath id="clip26_3678_24600">
<rect width="24" height="24" fill="white" transform="translate(32 156)"/>
</clipPath>
<clipPath id="clip27_3678_24600">
<rect width="16" height="15" fill="white" transform="translate(36 159)"/>
</clipPath>
<clipPath id="clip28_3678_24600">
<rect width="24" height="24" fill="white" transform="translate(93.5 156)"/>
</clipPath>
<clipPath id="clip29_3678_24600">
<rect width="16" height="15" fill="white" transform="translate(97.5 159)"/>
</clipPath>
<clipPath id="clip30_3678_24600">
<rect width="24" height="24" fill="white" transform="translate(155.5 156)"/>
</clipPath>
<clipPath id="clip31_3678_24600">
<rect width="16" height="15" fill="white" transform="translate(159.5 159)"/>
</clipPath>
<clipPath id="clip32_3678_24600">
<rect width="24" height="24" fill="white" transform="translate(216.5 156)"/>
</clipPath>
<clipPath id="clip33_3678_24600">
<rect width="16" height="15" fill="white" transform="translate(220.5 159)"/>
</clipPath>
<clipPath id="clip34_3678_24600">
<rect width="24" height="24" fill="white" transform="translate(278.5 157)"/>
</clipPath>
<clipPath id="clip35_3678_24600">
<rect width="16" height="15" fill="white" transform="translate(282.5 160)"/>
</clipPath>
</defs>
</svg>
