<svg width="468" height="388" viewBox="0 0 468 388" fill="none" xmlns="http://www.w3.org/2000/svg">
<rect width="468" height="388" fill="#F2F2F2"/>
<rect x="40" y="74" width="153" height="58" fill="white"/>
<rect x="275" y="74" width="153" height="290" fill="white"/>
<path d="M48.16 44.22C47.12 44.22 46.1533 44.04 45.26 43.68C44.38 43.3067 43.6 42.7933 42.92 42.14C42.2533 41.4733 41.7333 40.7067 41.36 39.84C41 38.96 40.82 38.0133 40.82 37C40.82 35.9867 41 35.0467 41.36 34.18C41.7333 33.3 42.2533 32.5333 42.92 31.88C43.6 31.2133 44.3867 30.7 45.28 30.34C46.1733 29.9667 47.1333 29.78 48.16 29.78C48.8933 29.78 49.6067 29.88 50.3 30.08C51.0067 30.2667 51.6533 30.54 52.24 30.9C52.84 31.26 53.36 31.6933 53.8 32.2L52.4 33.64C51.88 33.0133 51.2467 32.54 50.5 32.22C49.7533 31.8867 48.9733 31.72 48.16 31.72C47.1733 31.72 46.2867 31.9533 45.5 32.42C44.7133 32.8867 44.0933 33.52 43.64 34.32C43.1867 35.1067 42.96 36 42.96 37C42.96 38 43.1867 38.9 43.64 39.7C44.1067 40.4867 44.74 41.1133 45.54 41.58C46.34 42.0467 47.2333 42.28 48.22 42.28C49.0333 42.28 49.8 42.12 50.52 41.8C51.2533 41.4667 51.8733 41 52.38 40.4L53.76 41.8C53.2933 42.2933 52.76 42.7267 52.16 43.1C51.5733 43.46 50.9333 43.74 50.24 43.94C49.56 44.1267 48.8667 44.22 48.16 44.22ZM60.1216 44.2C59.1349 44.2 58.2349 43.9667 57.4216 43.5C56.6216 43.0333 55.9882 42.4 55.5216 41.6C55.0549 40.8 54.8216 39.9067 54.8216 38.92C54.8216 37.9333 55.0549 37.04 55.5216 36.24C55.9882 35.44 56.6216 34.8067 57.4216 34.34C58.2349 33.86 59.1349 33.62 60.1216 33.62C61.1216 33.62 62.0216 33.86 62.8216 34.34C63.6216 34.8067 64.2549 35.44 64.7216 36.24C65.1882 37.04 65.4216 37.9333 65.4216 38.92C65.4216 39.9067 65.1882 40.8 64.7216 41.6C64.2549 42.4 63.6216 43.0333 62.8216 43.5C62.0216 43.9667 61.1216 44.2 60.1216 44.2ZM60.1216 42.44C60.7482 42.44 61.3082 42.2867 61.8016 41.98C62.3082 41.66 62.7082 41.2333 63.0016 40.7C63.3082 40.1667 63.4616 39.5733 63.4616 38.92C63.4616 38.2533 63.3149 37.66 63.0216 37.14C62.7282 36.6067 62.3282 36.18 61.8216 35.86C61.3149 35.54 60.7482 35.38 60.1216 35.38C59.4949 35.38 58.9282 35.54 58.4216 35.86C57.9149 36.18 57.5149 36.6067 57.2216 37.14C56.9282 37.66 56.7816 38.2533 56.7816 38.92C56.7816 39.5733 56.9282 40.1667 57.2216 40.7C57.5149 41.2333 57.9149 41.66 58.4216 41.98C58.9282 42.2867 59.4949 42.44 60.1216 42.44ZM67.3128 44V30L69.3128 29.62V44H67.3128ZM71.6683 44V30L73.6683 29.62V44H71.6683ZM79.2438 44.18C78.5104 44.18 77.8638 44.0533 77.3038 43.8C76.7438 43.5333 76.3038 43.1667 75.9838 42.7C75.6638 42.2333 75.5037 41.6933 75.5037 41.08C75.5037 40.12 75.8704 39.3667 76.6038 38.82C77.3371 38.26 78.3438 37.98 79.6238 37.98C80.6238 37.98 81.5504 38.1733 82.4038 38.56V37.48C82.4038 36.0267 81.5771 35.3 79.9238 35.3C79.4571 35.3 78.9704 35.3733 78.4638 35.52C77.9571 35.6533 77.3904 35.8667 76.7638 36.16L76.0238 34.66C76.7971 34.3 77.5171 34.04 78.1838 33.88C78.8504 33.7067 79.5238 33.62 80.2038 33.62C81.5238 33.62 82.5438 33.9333 83.2638 34.56C83.9971 35.1867 84.3638 36.08 84.3638 37.24V44H82.4038V43.12C81.9504 43.48 81.4638 43.7467 80.9438 43.92C80.4238 44.0933 79.8571 44.18 79.2438 44.18ZM77.4238 41.04C77.4238 41.5333 77.6304 41.9333 78.0438 42.24C78.4704 42.5467 79.0238 42.7 79.7038 42.7C80.7971 42.7 81.6971 42.3733 82.4038 41.72V40C81.6704 39.5733 80.7971 39.36 79.7838 39.36C79.0504 39.36 78.4704 39.5133 78.0438 39.82C77.6304 40.1133 77.4238 40.52 77.4238 41.04ZM86.6683 48.08V33.82H88.6483V34.8C89.5016 34.04 90.5416 33.66 91.7683 33.66C92.7283 33.66 93.5949 33.8933 94.3683 34.36C95.1549 34.8267 95.7749 35.4533 96.2283 36.24C96.6816 37.0267 96.9083 37.9133 96.9083 38.9C96.9083 39.8867 96.6749 40.78 96.2083 41.58C95.7549 42.3667 95.1349 42.9933 94.3483 43.46C93.5749 43.9267 92.7016 44.16 91.7283 44.16C91.1683 44.16 90.6283 44.0733 90.1083 43.9C89.5883 43.7133 89.1083 43.4533 88.6683 43.12V48.08H86.6683ZM91.5083 42.42C92.1616 42.42 92.7416 42.2667 93.2483 41.96C93.7683 41.6533 94.1816 41.24 94.4883 40.72C94.7949 40.1867 94.9483 39.5867 94.9483 38.92C94.9483 38.2533 94.7949 37.6533 94.4883 37.12C94.1816 36.5867 93.7683 36.1667 93.2483 35.86C92.7416 35.5533 92.1616 35.4 91.5083 35.4C90.9349 35.4 90.4016 35.5067 89.9083 35.72C89.4149 35.9333 89.0016 36.2333 88.6683 36.62V41.22C89.0016 41.5933 89.4149 41.8867 89.9083 42.1C90.4149 42.3133 90.9483 42.42 91.5083 42.42ZM102.317 44.2C101.437 44.2 100.61 44.0733 99.8367 43.82C99.0767 43.5533 98.4167 43.18 97.8567 42.7L98.9567 41.38C99.4767 41.7933 100.01 42.1133 100.557 42.34C101.117 42.5533 101.683 42.66 102.257 42.66C102.977 42.66 103.563 42.52 104.017 42.24C104.47 41.96 104.697 41.5933 104.697 41.14C104.697 40.42 104.15 39.98 103.057 39.82L101.217 39.56C100.203 39.4133 99.4434 39.1 98.9367 38.62C98.4301 38.14 98.1767 37.5 98.1767 36.7C98.1767 36.0867 98.3434 35.5533 98.6767 35.1C99.0101 34.6333 99.4767 34.2733 100.077 34.02C100.677 33.7533 101.377 33.62 102.177 33.62C102.91 33.62 103.617 33.7267 104.297 33.94C104.977 34.1533 105.63 34.4867 106.257 34.94L105.237 36.26C104.13 35.54 103.057 35.18 102.017 35.18C101.403 35.18 100.91 35.3133 100.537 35.58C100.163 35.8333 99.9767 36.1667 99.9767 36.58C99.9767 36.9533 100.103 37.2467 100.357 37.46C100.623 37.66 101.057 37.8 101.657 37.88L103.497 38.14C104.51 38.2867 105.277 38.6 105.797 39.08C106.317 39.5467 106.577 40.18 106.577 40.98C106.577 41.5933 106.39 42.1467 106.017 42.64C105.643 43.12 105.137 43.5 104.497 43.78C103.857 44.06 103.13 44.2 102.317 44.2ZM113.091 44.18C112.091 44.18 111.185 43.9467 110.371 43.48C109.571 43.0133 108.931 42.38 108.451 41.58C107.985 40.78 107.751 39.8867 107.751 38.9C107.751 37.9267 107.978 37.0467 108.431 36.26C108.885 35.46 109.498 34.8267 110.271 34.36C111.045 33.88 111.905 33.64 112.851 33.64C113.798 33.64 114.638 33.88 115.371 34.36C116.105 34.8267 116.685 35.4667 117.111 36.28C117.551 37.08 117.771 37.9867 117.771 39V39.56H109.751C109.858 40.12 110.065 40.62 110.371 41.06C110.691 41.5 111.091 41.8467 111.571 42.1C112.065 42.3533 112.598 42.48 113.171 42.48C113.665 42.48 114.138 42.4067 114.591 42.26C115.058 42.1 115.445 41.8733 115.751 41.58L117.031 42.84C116.431 43.2933 115.811 43.6333 115.171 43.86C114.545 44.0733 113.851 44.18 113.091 44.18ZM109.771 38.06H115.791C115.711 37.5267 115.525 37.06 115.231 36.66C114.951 36.2467 114.598 35.9267 114.171 35.7C113.758 35.46 113.305 35.34 112.811 35.34C112.038 35.34 111.371 35.5933 110.811 36.1C110.265 36.5933 109.918 37.2467 109.771 38.06ZM124.395 44.16C123.448 44.16 122.582 43.9267 121.795 43.46C121.008 42.9933 120.388 42.3667 119.935 41.58C119.482 40.78 119.255 39.8867 119.255 38.9C119.255 37.9133 119.482 37.0267 119.935 36.24C120.402 35.4533 121.028 34.8267 121.815 34.36C122.602 33.8933 123.475 33.66 124.435 33.66C125.582 33.66 126.602 34 127.495 34.68V30L129.495 29.62V44H127.515V43.02C126.648 43.78 125.608 44.16 124.395 44.16ZM124.655 42.42C125.242 42.42 125.775 42.3133 126.255 42.1C126.748 41.8867 127.162 41.58 127.495 41.18V36.6C127.162 36.2267 126.748 35.9333 126.255 35.72C125.762 35.4933 125.228 35.38 124.655 35.38C124.015 35.38 123.435 35.5333 122.915 35.84C122.395 36.1467 121.982 36.5667 121.675 37.1C121.368 37.62 121.215 38.2133 121.215 38.88C121.215 39.5467 121.368 40.1467 121.675 40.68C121.982 41.2133 122.395 41.64 122.915 41.96C123.435 42.2667 124.015 42.42 124.655 42.42Z" fill="black"/>
<path d="M277.42 44V30H287.74V31.84H279.52V36.04H284.92V37.82H279.52V42.16H287.82V44H277.42ZM288.54 44L292.5 38.78L288.7 33.82H291.04L293.66 37.3L296.28 33.82H298.54L294.78 38.76L298.78 44H296.44L293.62 40.24L290.8 44H288.54ZM300.012 48.08V33.82H301.992V34.8C302.845 34.04 303.885 33.66 305.112 33.66C306.072 33.66 306.939 33.8933 307.712 34.36C308.499 34.8267 309.119 35.4533 309.572 36.24C310.025 37.0267 310.252 37.9133 310.252 38.9C310.252 39.8867 310.019 40.78 309.552 41.58C309.099 42.3667 308.479 42.9933 307.692 43.46C306.919 43.9267 306.045 44.16 305.072 44.16C304.512 44.16 303.972 44.0733 303.452 43.9C302.932 43.7133 302.452 43.4533 302.012 43.12V48.08H300.012ZM304.852 42.42C305.505 42.42 306.085 42.2667 306.592 41.96C307.112 41.6533 307.525 41.24 307.832 40.72C308.139 40.1867 308.292 39.5867 308.292 38.92C308.292 38.2533 308.139 37.6533 307.832 37.12C307.525 36.5867 307.112 36.1667 306.592 35.86C306.085 35.5533 305.505 35.4 304.852 35.4C304.279 35.4 303.745 35.5067 303.252 35.72C302.759 35.9333 302.345 36.2333 302.012 36.62V41.22C302.345 41.5933 302.759 41.8867 303.252 42.1C303.759 42.3133 304.292 42.42 304.852 42.42ZM315.478 44.18C314.745 44.18 314.098 44.0533 313.538 43.8C312.978 43.5333 312.538 43.1667 312.218 42.7C311.898 42.2333 311.738 41.6933 311.738 41.08C311.738 40.12 312.105 39.3667 312.838 38.82C313.571 38.26 314.578 37.98 315.858 37.98C316.858 37.98 317.785 38.1733 318.638 38.56V37.48C318.638 36.0267 317.811 35.3 316.158 35.3C315.691 35.3 315.205 35.3733 314.698 35.52C314.191 35.6533 313.625 35.8667 312.998 36.16L312.258 34.66C313.031 34.3 313.751 34.04 314.418 33.88C315.085 33.7067 315.758 33.62 316.438 33.62C317.758 33.62 318.778 33.9333 319.498 34.56C320.231 35.1867 320.598 36.08 320.598 37.24V44H318.638V43.12C318.185 43.48 317.698 43.7467 317.178 43.92C316.658 44.0933 316.091 44.18 315.478 44.18ZM313.658 41.04C313.658 41.5333 313.865 41.9333 314.278 42.24C314.705 42.5467 315.258 42.7 315.938 42.7C317.031 42.7 317.931 42.3733 318.638 41.72V40C317.905 39.5733 317.031 39.36 316.018 39.36C315.285 39.36 314.705 39.5133 314.278 39.82C313.865 40.1133 313.658 40.52 313.658 41.04ZM322.903 44V33.82H324.903V34.86C325.689 34.0333 326.709 33.62 327.963 33.62C328.749 33.62 329.436 33.7867 330.023 34.12C330.623 34.4533 331.089 34.92 331.423 35.52C331.769 36.12 331.943 36.8133 331.943 37.6V44H329.943V37.94C329.943 37.14 329.716 36.5133 329.263 36.06C328.809 35.5933 328.189 35.36 327.403 35.36C326.869 35.36 326.389 35.4733 325.963 35.7C325.536 35.9267 325.183 36.2533 324.903 36.68V44H322.903ZM338.93 44.16C337.984 44.16 337.117 43.9267 336.33 43.46C335.544 42.9933 334.924 42.3667 334.47 41.58C334.017 40.78 333.79 39.8867 333.79 38.9C333.79 37.9133 334.017 37.0267 334.47 36.24C334.937 35.4533 335.564 34.8267 336.35 34.36C337.137 33.8933 338.01 33.66 338.97 33.66C340.117 33.66 341.137 34 342.03 34.68V30L344.03 29.62V44H342.05V43.02C341.184 43.78 340.144 44.16 338.93 44.16ZM339.19 42.42C339.777 42.42 340.31 42.3133 340.79 42.1C341.284 41.8867 341.697 41.58 342.03 41.18V36.6C341.697 36.2267 341.284 35.9333 340.79 35.72C340.297 35.4933 339.764 35.38 339.19 35.38C338.55 35.38 337.97 35.5333 337.45 35.84C336.93 36.1467 336.517 36.5667 336.21 37.1C335.904 37.62 335.75 38.2133 335.75 38.88C335.75 39.5467 335.904 40.1467 336.21 40.68C336.517 41.2133 336.93 41.64 337.45 41.96C337.97 42.2667 338.55 42.42 339.19 42.42ZM351.279 44.18C350.279 44.18 349.372 43.9467 348.559 43.48C347.759 43.0133 347.119 42.38 346.639 41.58C346.172 40.78 345.939 39.8867 345.939 38.9C345.939 37.9267 346.165 37.0467 346.619 36.26C347.072 35.46 347.685 34.8267 348.459 34.36C349.232 33.88 350.092 33.64 351.039 33.64C351.985 33.64 352.825 33.88 353.559 34.36C354.292 34.8267 354.872 35.4667 355.299 36.28C355.739 37.08 355.959 37.9867 355.959 39V39.56H347.939C348.045 40.12 348.252 40.62 348.559 41.06C348.879 41.5 349.279 41.8467 349.759 42.1C350.252 42.3533 350.785 42.48 351.359 42.48C351.852 42.48 352.325 42.4067 352.779 42.26C353.245 42.1 353.632 41.8733 353.939 41.58L355.219 42.84C354.619 43.2933 353.999 43.6333 353.359 43.86C352.732 44.0733 352.039 44.18 351.279 44.18ZM347.959 38.06H353.979C353.899 37.5267 353.712 37.06 353.419 36.66C353.139 36.2467 352.785 35.9267 352.359 35.7C351.945 35.46 351.492 35.34 350.999 35.34C350.225 35.34 349.559 35.5933 348.999 36.1C348.452 36.5933 348.105 37.2467 347.959 38.06ZM362.583 44.16C361.636 44.16 360.769 43.9267 359.983 43.46C359.196 42.9933 358.576 42.3667 358.123 41.58C357.669 40.78 357.443 39.8867 357.443 38.9C357.443 37.9133 357.669 37.0267 358.123 36.24C358.589 35.4533 359.216 34.8267 360.003 34.36C360.789 33.8933 361.663 33.66 362.623 33.66C363.769 33.66 364.789 34 365.683 34.68V30L367.683 29.62V44H365.703V43.02C364.836 43.78 363.796 44.16 362.583 44.16ZM362.843 42.42C363.429 42.42 363.963 42.3133 364.443 42.1C364.936 41.8867 365.349 41.58 365.683 41.18V36.6C365.349 36.2267 364.936 35.9333 364.443 35.72C363.949 35.4933 363.416 35.38 362.843 35.38C362.203 35.38 361.623 35.5333 361.103 35.84C360.583 36.1467 360.169 36.5667 359.863 37.1C359.556 37.62 359.403 38.2133 359.403 38.88C359.403 39.5467 359.556 40.1467 359.863 40.68C360.169 41.2133 360.583 41.64 361.103 41.96C361.623 42.2667 362.203 42.42 362.843 42.42Z" fill="black"/>
<path fill-rule="evenodd" clip-rule="evenodd" d="M62.9967 106.461L67.0916 102.496C67.3747 102.222 67.3747 101.778 67.0886 101.504L62.9937 97.5388C62.7137 97.2647 62.256 97.2647 61.973 97.5388L61.2955 98.2036C61.0125 98.4748 61.0125 98.918 61.2955 99.1921L64.1981 102.003L61.2955 104.814C61.0125 105.085 61.0125 105.528 61.2955 105.802L61.976 106.461C62.256 106.735 62.7137 106.735 62.9967 106.461Z" fill="#1F1F1F"/>
<path d="M84.456 107.132C83.672 107.132 83 106.928 82.44 106.52C81.888 106.112 81.496 105.536 81.264 104.792L82.584 104.3C82.76 104.812 83.004 105.2 83.316 105.464C83.628 105.72 84.012 105.848 84.468 105.848C85.02 105.848 85.464 105.656 85.8 105.272C86.136 104.888 86.304 104.38 86.304 103.748V98.6H87.744V103.772C87.744 104.452 87.608 105.044 87.336 105.548C87.064 106.052 86.68 106.444 86.184 106.724C85.696 106.996 85.12 107.132 84.456 107.132ZM91.474 107.096C91.058 107.096 90.694 107.004 90.382 106.82C90.07 106.636 89.822 106.384 89.638 106.064C89.462 105.744 89.374 105.372 89.374 104.948V100.988H90.742V104.552C90.742 105 90.858 105.356 91.09 105.62C91.33 105.876 91.654 106.004 92.062 106.004C92.334 106.004 92.578 105.944 92.794 105.824C93.018 105.704 93.21 105.524 93.37 105.284V100.988H94.726V107H93.37V106.028C93.138 106.38 92.862 106.648 92.542 106.832C92.222 107.008 91.866 107.096 91.474 107.096ZM96.4064 107V100.988H97.7624V101.936C97.9864 101.592 98.2464 101.332 98.5424 101.156C98.8464 100.98 99.1784 100.892 99.5384 100.892C99.9544 100.892 100.314 100.996 100.618 101.204C100.93 101.412 101.162 101.692 101.314 102.044C101.554 101.668 101.838 101.384 102.166 101.192C102.502 100.992 102.882 100.892 103.306 100.892C103.69 100.892 104.03 100.984 104.326 101.168C104.63 101.352 104.862 101.608 105.022 101.936C105.19 102.264 105.274 102.64 105.274 103.064V107H103.918V103.364C103.918 102.94 103.81 102.604 103.594 102.356C103.378 102.108 103.082 101.984 102.706 101.984C102.466 101.984 102.242 102.044 102.034 102.164C101.834 102.284 101.658 102.464 101.506 102.704C101.514 102.76 101.518 102.82 101.518 102.884C101.526 102.94 101.53 103 101.53 103.064V107H100.162V103.364C100.162 102.94 100.054 102.604 99.8384 102.356C99.6224 102.108 99.3264 101.984 98.9504 101.984C98.4624 101.984 98.0664 102.216 97.7624 102.68V107H96.4064ZM106.918 109.508V100.988H108.25V101.84C108.466 101.552 108.734 101.332 109.054 101.18C109.382 101.02 109.738 100.94 110.122 100.94C110.634 100.94 111.094 101.076 111.502 101.348C111.91 101.62 112.234 101.988 112.474 102.452C112.714 102.916 112.834 103.432 112.834 104C112.834 104.568 112.71 105.084 112.462 105.548C112.214 106.012 111.878 106.38 111.454 106.652C111.03 106.924 110.558 107.06 110.038 107.06C109.678 107.06 109.346 106.996 109.042 106.868C108.746 106.732 108.49 106.54 108.274 106.292V109.508H106.918ZM109.714 105.932C110.058 105.932 110.362 105.848 110.626 105.68C110.898 105.512 111.11 105.284 111.262 104.996C111.422 104.7 111.502 104.368 111.502 104C111.502 103.632 111.422 103.304 111.262 103.016C111.11 102.728 110.898 102.5 110.626 102.332C110.362 102.164 110.058 102.08 109.714 102.08C109.418 102.08 109.146 102.14 108.898 102.26C108.65 102.372 108.442 102.536 108.274 102.752V105.26C108.45 105.468 108.662 105.632 108.91 105.752C109.158 105.872 109.426 105.932 109.714 105.932ZM119.541 107.12C118.933 107.12 118.473 106.98 118.161 106.7C117.849 106.412 117.693 105.992 117.693 105.44V102.068H116.493V100.988H117.693V99.332L119.049 99.044V100.988H120.717V102.068H119.049V105.14C119.049 105.436 119.113 105.648 119.241 105.776C119.369 105.896 119.585 105.956 119.889 105.956C120.025 105.956 120.149 105.948 120.261 105.932C120.381 105.908 120.529 105.868 120.705 105.812V106.952C120.537 107.008 120.345 107.048 120.129 107.072C119.921 107.104 119.725 107.12 119.541 107.12ZM124.572 107.108C124.004 107.108 123.488 106.972 123.024 106.7C122.568 106.428 122.208 106.06 121.944 105.596C121.68 105.124 121.548 104.592 121.548 104C121.548 103.408 121.68 102.88 121.944 102.416C122.208 101.944 122.568 101.572 123.024 101.3C123.48 101.028 123.996 100.892 124.572 100.892C125.148 100.892 125.66 101.028 126.108 101.3C126.564 101.572 126.924 101.944 127.188 102.416C127.452 102.88 127.584 103.408 127.584 104C127.584 104.592 127.452 105.124 127.188 105.596C126.924 106.06 126.564 106.428 126.108 106.7C125.66 106.972 125.148 107.108 124.572 107.108ZM124.572 105.956C124.9 105.956 125.188 105.872 125.436 105.704C125.692 105.536 125.892 105.304 126.036 105.008C126.18 104.704 126.252 104.368 126.252 104C126.252 103.624 126.18 103.292 126.036 103.004C125.892 102.708 125.692 102.476 125.436 102.308C125.188 102.132 124.9 102.044 124.572 102.044C124.244 102.044 123.952 102.132 123.696 102.308C123.44 102.476 123.24 102.708 123.096 103.004C122.952 103.292 122.88 103.624 122.88 104C122.88 104.376 122.952 104.712 123.096 105.008C123.24 105.304 123.44 105.536 123.696 105.704C123.952 105.872 124.244 105.956 124.572 105.956ZM133.72 107.12C133.208 107.12 132.728 107.052 132.28 106.916C131.84 106.772 131.46 106.568 131.14 106.304L131.776 105.404C132.176 105.652 132.52 105.828 132.808 105.932C133.104 106.036 133.404 106.088 133.708 106.088C134.068 106.088 134.36 106.012 134.584 105.86C134.808 105.708 134.92 105.512 134.92 105.272C134.92 105.088 134.852 104.944 134.716 104.84C134.588 104.728 134.376 104.644 134.08 104.588L133.024 104.408C132.44 104.296 132.004 104.104 131.716 103.832C131.428 103.56 131.284 103.2 131.284 102.752C131.284 102.376 131.38 102.052 131.572 101.78C131.772 101.5 132.044 101.284 132.388 101.132C132.74 100.972 133.148 100.892 133.612 100.892C134.028 100.892 134.432 100.952 134.824 101.072C135.216 101.192 135.6 101.372 135.976 101.612L135.34 102.512C135.036 102.312 134.732 102.168 134.428 102.08C134.132 101.984 133.832 101.936 133.528 101.936C133.216 101.936 132.964 102 132.772 102.128C132.588 102.248 132.496 102.416 132.496 102.632C132.496 102.824 132.556 102.972 132.676 103.076C132.804 103.172 133.024 103.244 133.336 103.292L134.404 103.496C135.004 103.6 135.448 103.792 135.736 104.072C136.032 104.344 136.18 104.708 136.18 105.164C136.18 105.532 136.072 105.864 135.856 106.16C135.64 106.456 135.348 106.692 134.98 106.868C134.612 107.036 134.192 107.12 133.72 107.12ZM140.277 107.12C139.701 107.12 139.181 106.984 138.717 106.712C138.253 106.432 137.885 106.06 137.613 105.596C137.341 105.124 137.205 104.592 137.205 104C137.205 103.408 137.333 102.88 137.589 102.416C137.845 101.952 138.193 101.584 138.633 101.312C139.081 101.032 139.577 100.892 140.121 100.892C140.681 100.892 141.173 101.028 141.597 101.3C142.029 101.572 142.365 101.94 142.605 102.404C142.853 102.868 142.977 103.4 142.977 104V104.324H138.537C138.585 104.652 138.689 104.944 138.849 105.2C139.017 105.448 139.229 105.644 139.485 105.788C139.749 105.932 140.033 106.004 140.337 106.004C140.617 106.004 140.881 105.956 141.129 105.86C141.385 105.756 141.597 105.616 141.765 105.44L142.653 106.244C142.285 106.548 141.909 106.772 141.525 106.916C141.149 107.052 140.733 107.12 140.277 107.12ZM138.549 103.484H141.693C141.645 103.196 141.545 102.94 141.393 102.716C141.249 102.492 141.065 102.316 140.841 102.188C140.625 102.06 140.385 101.996 140.121 101.996C139.857 101.996 139.613 102.06 139.389 102.188C139.173 102.308 138.993 102.48 138.849 102.704C138.705 102.928 138.605 103.188 138.549 103.484ZM147.143 107.108C146.575 107.108 146.059 106.972 145.595 106.7C145.139 106.42 144.775 106.044 144.503 105.572C144.239 105.1 144.107 104.576 144.107 104C144.107 103.416 144.239 102.892 144.503 102.428C144.775 101.956 145.139 101.584 145.595 101.312C146.059 101.032 146.575 100.892 147.143 100.892C147.607 100.892 148.047 100.98 148.463 101.156C148.887 101.332 149.247 101.584 149.543 101.912L148.703 102.788C148.495 102.556 148.263 102.38 148.007 102.26C147.751 102.14 147.479 102.08 147.191 102.08C146.863 102.08 146.567 102.168 146.303 102.344C146.047 102.512 145.843 102.74 145.691 103.028C145.539 103.316 145.463 103.64 145.463 104C145.463 104.36 145.539 104.688 145.691 104.984C145.843 105.272 146.047 105.5 146.303 105.668C146.567 105.836 146.863 105.92 147.191 105.92C147.479 105.92 147.751 105.86 148.007 105.74C148.263 105.62 148.495 105.448 148.703 105.224L149.543 106.088C149.247 106.416 148.887 106.668 148.463 106.844C148.047 107.02 147.607 107.108 147.143 107.108ZM153.373 107.12C152.765 107.12 152.305 106.98 151.993 106.7C151.681 106.412 151.525 105.992 151.525 105.44V102.068H150.325V100.988H151.525V99.332L152.881 99.044V100.988H154.549V102.068H152.881V105.14C152.881 105.436 152.945 105.648 153.073 105.776C153.201 105.896 153.417 105.956 153.721 105.956C153.857 105.956 153.981 105.948 154.093 105.932C154.213 105.908 154.361 105.868 154.537 105.812V106.952C154.369 107.008 154.177 107.048 153.961 107.072C153.753 107.104 153.557 107.12 153.373 107.12ZM155.738 107V100.988H157.094V107H155.738ZM156.422 99.764C156.19 99.764 155.99 99.684 155.822 99.524C155.662 99.356 155.582 99.16 155.582 98.936C155.582 98.704 155.662 98.508 155.822 98.348C155.99 98.18 156.19 98.096 156.422 98.096C156.654 98.096 156.85 98.18 157.01 98.348C157.178 98.508 157.262 98.7 157.262 98.924C157.262 99.156 157.178 99.356 157.01 99.524C156.85 99.684 156.654 99.764 156.422 99.764ZM161.522 107.108C160.954 107.108 160.438 106.972 159.974 106.7C159.518 106.428 159.158 106.06 158.894 105.596C158.63 105.124 158.498 104.592 158.498 104C158.498 103.408 158.63 102.88 158.894 102.416C159.158 101.944 159.518 101.572 159.974 101.3C160.43 101.028 160.946 100.892 161.522 100.892C162.098 100.892 162.61 101.028 163.058 101.3C163.514 101.572 163.874 101.944 164.138 102.416C164.402 102.88 164.534 103.408 164.534 104C164.534 104.592 164.402 105.124 164.138 105.596C163.874 106.06 163.514 106.428 163.058 106.7C162.61 106.972 162.098 107.108 161.522 107.108ZM161.522 105.956C161.85 105.956 162.138 105.872 162.386 105.704C162.642 105.536 162.842 105.304 162.986 105.008C163.13 104.704 163.202 104.368 163.202 104C163.202 103.624 163.13 103.292 162.986 103.004C162.842 102.708 162.642 102.476 162.386 102.308C162.138 102.132 161.85 102.044 161.522 102.044C161.194 102.044 160.902 102.132 160.646 102.308C160.39 102.476 160.19 102.708 160.046 103.004C159.902 103.292 159.83 103.624 159.83 104C159.83 104.376 159.902 104.712 160.046 105.008C160.19 105.304 160.39 105.536 160.646 105.704C160.902 105.872 161.194 105.956 161.522 105.956ZM165.934 107V100.988H167.29V101.972C167.522 101.612 167.798 101.344 168.118 101.168C168.438 100.984 168.794 100.892 169.186 100.892C169.602 100.892 169.966 100.984 170.278 101.168C170.59 101.344 170.834 101.592 171.01 101.912C171.194 102.232 171.286 102.608 171.286 103.04V107H169.918V103.424C169.918 102.984 169.798 102.636 169.558 102.38C169.318 102.116 168.998 101.984 168.598 101.984C168.326 101.984 168.078 102.048 167.854 102.176C167.638 102.296 167.45 102.476 167.29 102.716V107H165.934Z" fill="#151515"/>
<path fill-rule="evenodd" clip-rule="evenodd" d="M299.539 101.997L303.504 106.092C303.778 106.375 304.222 106.375 304.496 106.089L308.461 101.994C308.735 101.714 308.735 101.256 308.461 100.973L307.796 100.296C307.525 100.012 307.082 100.012 306.808 100.296L303.997 103.198L301.186 100.296C300.915 100.012 300.472 100.012 300.198 100.296L299.539 100.976C299.265 101.256 299.265 101.714 299.539 101.997Z" fill="#1F1F1F"/>
<path d="M323.456 107.132C322.672 107.132 322 106.928 321.44 106.52C320.888 106.112 320.496 105.536 320.264 104.792L321.584 104.3C321.76 104.812 322.004 105.2 322.316 105.464C322.628 105.72 323.012 105.848 323.468 105.848C324.02 105.848 324.464 105.656 324.8 105.272C325.136 104.888 325.304 104.38 325.304 103.748V98.6H326.744V103.772C326.744 104.452 326.608 105.044 326.336 105.548C326.064 106.052 325.68 106.444 325.184 106.724C324.696 106.996 324.12 107.132 323.456 107.132ZM330.474 107.096C330.058 107.096 329.694 107.004 329.382 106.82C329.07 106.636 328.822 106.384 328.638 106.064C328.462 105.744 328.374 105.372 328.374 104.948V100.988H329.742V104.552C329.742 105 329.858 105.356 330.09 105.62C330.33 105.876 330.654 106.004 331.062 106.004C331.334 106.004 331.578 105.944 331.794 105.824C332.018 105.704 332.21 105.524 332.37 105.284V100.988H333.726V107H332.37V106.028C332.138 106.38 331.862 106.648 331.542 106.832C331.222 107.008 330.866 107.096 330.474 107.096ZM335.406 107V100.988H336.762V101.936C336.986 101.592 337.246 101.332 337.542 101.156C337.846 100.98 338.178 100.892 338.538 100.892C338.954 100.892 339.314 100.996 339.618 101.204C339.93 101.412 340.162 101.692 340.314 102.044C340.554 101.668 340.838 101.384 341.166 101.192C341.502 100.992 341.882 100.892 342.306 100.892C342.69 100.892 343.03 100.984 343.326 101.168C343.63 101.352 343.862 101.608 344.022 101.936C344.19 102.264 344.274 102.64 344.274 103.064V107H342.918V103.364C342.918 102.94 342.81 102.604 342.594 102.356C342.378 102.108 342.082 101.984 341.706 101.984C341.466 101.984 341.242 102.044 341.034 102.164C340.834 102.284 340.658 102.464 340.506 102.704C340.514 102.76 340.518 102.82 340.518 102.884C340.526 102.94 340.53 103 340.53 103.064V107H339.162V103.364C339.162 102.94 339.054 102.604 338.838 102.356C338.622 102.108 338.326 101.984 337.95 101.984C337.462 101.984 337.066 102.216 336.762 102.68V107H335.406ZM345.918 109.508V100.988H347.25V101.84C347.466 101.552 347.734 101.332 348.054 101.18C348.382 101.02 348.738 100.94 349.122 100.94C349.634 100.94 350.094 101.076 350.502 101.348C350.91 101.62 351.234 101.988 351.474 102.452C351.714 102.916 351.834 103.432 351.834 104C351.834 104.568 351.71 105.084 351.462 105.548C351.214 106.012 350.878 106.38 350.454 106.652C350.03 106.924 349.558 107.06 349.038 107.06C348.678 107.06 348.346 106.996 348.042 106.868C347.746 106.732 347.49 106.54 347.274 106.292V109.508H345.918ZM348.714 105.932C349.058 105.932 349.362 105.848 349.626 105.68C349.898 105.512 350.11 105.284 350.262 104.996C350.422 104.7 350.502 104.368 350.502 104C350.502 103.632 350.422 103.304 350.262 103.016C350.11 102.728 349.898 102.5 349.626 102.332C349.362 102.164 349.058 102.08 348.714 102.08C348.418 102.08 348.146 102.14 347.898 102.26C347.65 102.372 347.442 102.536 347.274 102.752V105.26C347.45 105.468 347.662 105.632 347.91 105.752C348.158 105.872 348.426 105.932 348.714 105.932ZM358.541 107.12C357.933 107.12 357.473 106.98 357.161 106.7C356.849 106.412 356.693 105.992 356.693 105.44V102.068H355.493V100.988H356.693V99.332L358.049 99.044V100.988H359.717V102.068H358.049V105.14C358.049 105.436 358.113 105.648 358.241 105.776C358.369 105.896 358.585 105.956 358.889 105.956C359.025 105.956 359.149 105.948 359.261 105.932C359.381 105.908 359.529 105.868 359.705 105.812V106.952C359.537 107.008 359.345 107.048 359.129 107.072C358.921 107.104 358.725 107.12 358.541 107.12ZM363.572 107.108C363.004 107.108 362.488 106.972 362.024 106.7C361.568 106.428 361.208 106.06 360.944 105.596C360.68 105.124 360.548 104.592 360.548 104C360.548 103.408 360.68 102.88 360.944 102.416C361.208 101.944 361.568 101.572 362.024 101.3C362.48 101.028 362.996 100.892 363.572 100.892C364.148 100.892 364.66 101.028 365.108 101.3C365.564 101.572 365.924 101.944 366.188 102.416C366.452 102.88 366.584 103.408 366.584 104C366.584 104.592 366.452 105.124 366.188 105.596C365.924 106.06 365.564 106.428 365.108 106.7C364.66 106.972 364.148 107.108 363.572 107.108ZM363.572 105.956C363.9 105.956 364.188 105.872 364.436 105.704C364.692 105.536 364.892 105.304 365.036 105.008C365.18 104.704 365.252 104.368 365.252 104C365.252 103.624 365.18 103.292 365.036 103.004C364.892 102.708 364.692 102.476 364.436 102.308C364.188 102.132 363.9 102.044 363.572 102.044C363.244 102.044 362.952 102.132 362.696 102.308C362.44 102.476 362.24 102.708 362.096 103.004C361.952 103.292 361.88 103.624 361.88 104C361.88 104.376 361.952 104.712 362.096 105.008C362.24 105.304 362.44 105.536 362.696 105.704C362.952 105.872 363.244 105.956 363.572 105.956ZM372.72 107.12C372.208 107.12 371.728 107.052 371.28 106.916C370.84 106.772 370.46 106.568 370.14 106.304L370.776 105.404C371.176 105.652 371.52 105.828 371.808 105.932C372.104 106.036 372.404 106.088 372.708 106.088C373.068 106.088 373.36 106.012 373.584 105.86C373.808 105.708 373.92 105.512 373.92 105.272C373.92 105.088 373.852 104.944 373.716 104.84C373.588 104.728 373.376 104.644 373.08 104.588L372.024 104.408C371.44 104.296 371.004 104.104 370.716 103.832C370.428 103.56 370.284 103.2 370.284 102.752C370.284 102.376 370.38 102.052 370.572 101.78C370.772 101.5 371.044 101.284 371.388 101.132C371.74 100.972 372.148 100.892 372.612 100.892C373.028 100.892 373.432 100.952 373.824 101.072C374.216 101.192 374.6 101.372 374.976 101.612L374.34 102.512C374.036 102.312 373.732 102.168 373.428 102.08C373.132 101.984 372.832 101.936 372.528 101.936C372.216 101.936 371.964 102 371.772 102.128C371.588 102.248 371.496 102.416 371.496 102.632C371.496 102.824 371.556 102.972 371.676 103.076C371.804 103.172 372.024 103.244 372.336 103.292L373.404 103.496C374.004 103.6 374.448 103.792 374.736 104.072C375.032 104.344 375.18 104.708 375.18 105.164C375.18 105.532 375.072 105.864 374.856 106.16C374.64 106.456 374.348 106.692 373.98 106.868C373.612 107.036 373.192 107.12 372.72 107.12ZM379.277 107.12C378.701 107.12 378.181 106.984 377.717 106.712C377.253 106.432 376.885 106.06 376.613 105.596C376.341 105.124 376.205 104.592 376.205 104C376.205 103.408 376.333 102.88 376.589 102.416C376.845 101.952 377.193 101.584 377.633 101.312C378.081 101.032 378.577 100.892 379.121 100.892C379.681 100.892 380.173 101.028 380.597 101.3C381.029 101.572 381.365 101.94 381.605 102.404C381.853 102.868 381.977 103.4 381.977 104V104.324H377.537C377.585 104.652 377.689 104.944 377.849 105.2C378.017 105.448 378.229 105.644 378.485 105.788C378.749 105.932 379.033 106.004 379.337 106.004C379.617 106.004 379.881 105.956 380.129 105.86C380.385 105.756 380.597 105.616 380.765 105.44L381.653 106.244C381.285 106.548 380.909 106.772 380.525 106.916C380.149 107.052 379.733 107.12 379.277 107.12ZM377.549 103.484H380.693C380.645 103.196 380.545 102.94 380.393 102.716C380.249 102.492 380.065 102.316 379.841 102.188C379.625 102.06 379.385 101.996 379.121 101.996C378.857 101.996 378.613 102.06 378.389 102.188C378.173 102.308 377.993 102.48 377.849 102.704C377.705 102.928 377.605 103.188 377.549 103.484ZM386.143 107.108C385.575 107.108 385.059 106.972 384.595 106.7C384.139 106.42 383.775 106.044 383.503 105.572C383.239 105.1 383.107 104.576 383.107 104C383.107 103.416 383.239 102.892 383.503 102.428C383.775 101.956 384.139 101.584 384.595 101.312C385.059 101.032 385.575 100.892 386.143 100.892C386.607 100.892 387.047 100.98 387.463 101.156C387.887 101.332 388.247 101.584 388.543 101.912L387.703 102.788C387.495 102.556 387.263 102.38 387.007 102.26C386.751 102.14 386.479 102.08 386.191 102.08C385.863 102.08 385.567 102.168 385.303 102.344C385.047 102.512 384.843 102.74 384.691 103.028C384.539 103.316 384.463 103.64 384.463 104C384.463 104.36 384.539 104.688 384.691 104.984C384.843 105.272 385.047 105.5 385.303 105.668C385.567 105.836 385.863 105.92 386.191 105.92C386.479 105.92 386.751 105.86 387.007 105.74C387.263 105.62 387.495 105.448 387.703 105.224L388.543 106.088C388.247 106.416 387.887 106.668 387.463 106.844C387.047 107.02 386.607 107.108 386.143 107.108ZM392.373 107.12C391.765 107.12 391.305 106.98 390.993 106.7C390.681 106.412 390.525 105.992 390.525 105.44V102.068H389.325V100.988H390.525V99.332L391.881 99.044V100.988H393.549V102.068H391.881V105.14C391.881 105.436 391.945 105.648 392.073 105.776C392.201 105.896 392.417 105.956 392.721 105.956C392.857 105.956 392.981 105.948 393.093 105.932C393.213 105.908 393.361 105.868 393.537 105.812V106.952C393.369 107.008 393.177 107.048 392.961 107.072C392.753 107.104 392.557 107.12 392.373 107.12ZM394.738 107V100.988H396.094V107H394.738ZM395.422 99.764C395.19 99.764 394.99 99.684 394.822 99.524C394.662 99.356 394.582 99.16 394.582 98.936C394.582 98.704 394.662 98.508 394.822 98.348C394.99 98.18 395.19 98.096 395.422 98.096C395.654 98.096 395.85 98.18 396.01 98.348C396.178 98.508 396.262 98.7 396.262 98.924C396.262 99.156 396.178 99.356 396.01 99.524C395.85 99.684 395.654 99.764 395.422 99.764ZM400.522 107.108C399.954 107.108 399.438 106.972 398.974 106.7C398.518 106.428 398.158 106.06 397.894 105.596C397.63 105.124 397.498 104.592 397.498 104C397.498 103.408 397.63 102.88 397.894 102.416C398.158 101.944 398.518 101.572 398.974 101.3C399.43 101.028 399.946 100.892 400.522 100.892C401.098 100.892 401.61 101.028 402.058 101.3C402.514 101.572 402.874 101.944 403.138 102.416C403.402 102.88 403.534 103.408 403.534 104C403.534 104.592 403.402 105.124 403.138 105.596C402.874 106.06 402.514 106.428 402.058 106.7C401.61 106.972 401.098 107.108 400.522 107.108ZM400.522 105.956C400.85 105.956 401.138 105.872 401.386 105.704C401.642 105.536 401.842 105.304 401.986 105.008C402.13 104.704 402.202 104.368 402.202 104C402.202 103.624 402.13 103.292 401.986 103.004C401.842 102.708 401.642 102.476 401.386 102.308C401.138 102.132 400.85 102.044 400.522 102.044C400.194 102.044 399.902 102.132 399.646 102.308C399.39 102.476 399.19 102.708 399.046 103.004C398.902 103.292 398.83 103.624 398.83 104C398.83 104.376 398.902 104.712 399.046 105.008C399.19 105.304 399.39 105.536 399.646 105.704C399.902 105.872 400.194 105.956 400.522 105.956ZM404.934 107V100.988H406.29V101.972C406.522 101.612 406.798 101.344 407.118 101.168C407.438 100.984 407.794 100.892 408.186 100.892C408.602 100.892 408.966 100.984 409.278 101.168C409.59 101.344 409.834 101.592 410.01 101.912C410.194 102.232 410.286 102.608 410.286 103.04V107H408.918V103.424C408.918 102.984 408.798 102.636 408.558 102.38C408.318 102.116 407.998 101.984 407.598 101.984C407.326 101.984 407.078 102.048 406.854 102.176C406.638 102.296 406.45 102.476 406.29 102.716V107H404.934Z" fill="#151515"/>
<mask id="path-9-inside-1_1379_76512" fill="white">
<path d="M291 123H379V168H291V123Z"/>
</mask>
<path d="M291 168H294V123H291H288V168H291Z" fill="#0066CC" mask="url(#path-9-inside-1_1379_76512)"/>
<path d="M311.554 150.154C310.788 150.154 310.079 150.019 309.426 149.748C308.772 149.468 308.142 149.048 307.536 148.488L308.194 147.704C308.782 148.255 309.332 148.647 309.846 148.88C310.368 149.113 310.947 149.23 311.582 149.23C312.086 149.23 312.534 149.146 312.926 148.978C313.327 148.801 313.64 148.563 313.864 148.264C314.088 147.965 314.2 147.625 314.2 147.242C314.2 146.747 314.036 146.374 313.71 146.122C313.383 145.861 312.818 145.66 312.016 145.52L310.434 145.254C309.538 145.095 308.88 144.825 308.46 144.442C308.049 144.05 307.844 143.527 307.844 142.874C307.844 142.323 307.984 141.838 308.264 141.418C308.553 140.989 308.95 140.653 309.454 140.41C309.958 140.167 310.541 140.046 311.204 140.046C311.932 140.046 312.608 140.149 313.234 140.354C313.859 140.55 314.475 140.863 315.082 141.292L314.522 142.132C314.018 141.749 313.486 141.46 312.926 141.264C312.366 141.059 311.796 140.956 311.218 140.956C310.76 140.956 310.354 141.035 310 141.194C309.654 141.353 309.379 141.567 309.174 141.838C308.978 142.109 308.88 142.417 308.88 142.762C308.88 143.191 309.024 143.527 309.314 143.77C309.603 144.013 310.074 144.185 310.728 144.288L312.296 144.554C313.341 144.741 314.097 145.044 314.564 145.464C315.04 145.875 315.278 146.449 315.278 147.186C315.278 147.755 315.114 148.264 314.788 148.712C314.47 149.16 314.032 149.515 313.472 149.776C312.912 150.028 312.272 150.154 311.554 150.154ZM320.133 150.14C319.498 150.14 318.924 149.986 318.411 149.678C317.898 149.361 317.492 148.936 317.193 148.404C316.894 147.863 316.745 147.256 316.745 146.584C316.745 145.912 316.885 145.31 317.165 144.778C317.454 144.246 317.842 143.826 318.327 143.518C318.812 143.21 319.354 143.056 319.951 143.056C320.558 143.056 321.094 143.21 321.561 143.518C322.037 143.817 322.41 144.227 322.681 144.75C322.961 145.263 323.101 145.847 323.101 146.5V146.808H317.739C317.776 147.275 317.902 147.695 318.117 148.068C318.341 148.432 318.63 148.721 318.985 148.936C319.349 149.141 319.746 149.244 320.175 149.244C320.53 149.244 320.87 149.183 321.197 149.062C321.533 148.931 321.818 148.759 322.051 148.544L322.695 149.23C322.303 149.538 321.897 149.767 321.477 149.916C321.057 150.065 320.609 150.14 320.133 150.14ZM317.767 146.08H322.093C322.046 145.669 321.92 145.305 321.715 144.988C321.519 144.661 321.267 144.405 320.959 144.218C320.66 144.031 320.324 143.938 319.951 143.938C319.578 143.938 319.237 144.031 318.929 144.218C318.621 144.395 318.364 144.647 318.159 144.974C317.963 145.291 317.832 145.66 317.767 146.08ZM327.912 150.112C327.277 150.112 326.703 149.958 326.19 149.65C325.686 149.333 325.285 148.908 324.986 148.376C324.687 147.835 324.538 147.237 324.538 146.584C324.538 145.921 324.687 145.324 324.986 144.792C325.285 144.26 325.686 143.84 326.19 143.532C326.703 143.215 327.277 143.056 327.912 143.056C328.416 143.056 328.897 143.149 329.354 143.336C329.811 143.523 330.208 143.784 330.544 144.12L329.886 144.834C329.643 144.563 329.349 144.353 329.004 144.204C328.659 144.055 328.309 143.98 327.954 143.98C327.506 143.98 327.1 144.097 326.736 144.33C326.381 144.563 326.097 144.876 325.882 145.268C325.667 145.66 325.56 146.099 325.56 146.584C325.56 147.069 325.667 147.508 325.882 147.9C326.097 148.292 326.381 148.605 326.736 148.838C327.1 149.071 327.506 149.188 327.954 149.188C328.309 149.188 328.659 149.113 329.004 148.964C329.349 148.805 329.643 148.595 329.886 148.334L330.544 149.048C330.208 149.384 329.811 149.645 329.354 149.832C328.897 150.019 328.416 150.112 327.912 150.112ZM334.71 150.14C334.122 150.14 333.674 150 333.366 149.72C333.067 149.431 332.918 149.015 332.918 148.474V144.008H331.504V143.168H332.918V141.292L333.94 141.054V143.168H335.9V144.008H333.94V148.208C333.94 148.572 334.014 148.833 334.164 148.992C334.322 149.151 334.579 149.23 334.934 149.23C335.111 149.23 335.27 149.216 335.41 149.188C335.55 149.16 335.713 149.113 335.9 149.048V149.958C335.713 150.023 335.517 150.07 335.312 150.098C335.106 150.126 334.906 150.14 334.71 150.14ZM337.383 150V143.168H338.405V150H337.383ZM337.901 141.474C337.695 141.474 337.518 141.404 337.369 141.264C337.229 141.115 337.159 140.942 337.159 140.746C337.159 140.55 337.229 140.382 337.369 140.242C337.518 140.093 337.695 140.018 337.901 140.018C338.106 140.018 338.279 140.093 338.419 140.242C338.568 140.382 338.643 140.55 338.643 140.746C338.643 140.942 338.568 141.115 338.419 141.264C338.279 141.404 338.106 141.474 337.901 141.474ZM343.524 150.112C342.89 150.112 342.32 149.958 341.816 149.65C341.312 149.342 340.916 148.922 340.626 148.39C340.337 147.858 340.192 147.256 340.192 146.584C340.192 145.912 340.337 145.31 340.626 144.778C340.916 144.246 341.312 143.826 341.816 143.518C342.32 143.21 342.89 143.056 343.524 143.056C344.15 143.056 344.71 143.21 345.204 143.518C345.708 143.826 346.105 144.246 346.394 144.778C346.684 145.31 346.828 145.912 346.828 146.584C346.828 147.256 346.684 147.858 346.394 148.39C346.105 148.922 345.708 149.342 345.204 149.65C344.71 149.958 344.15 150.112 343.524 150.112ZM343.51 149.216C343.958 149.216 344.355 149.104 344.7 148.88C345.046 148.647 345.316 148.329 345.512 147.928C345.718 147.527 345.82 147.079 345.82 146.584C345.82 146.08 345.718 145.632 345.512 145.24C345.316 144.839 345.046 144.526 344.7 144.302C344.355 144.069 343.958 143.952 343.51 143.952C343.062 143.952 342.666 144.069 342.32 144.302C341.975 144.526 341.7 144.839 341.494 145.24C341.298 145.632 341.2 146.08 341.2 146.584C341.2 147.079 341.298 147.527 341.494 147.928C341.7 148.329 341.975 148.647 342.32 148.88C342.666 149.104 343.062 149.216 343.51 149.216ZM348.621 150V143.168H349.643V144.274C349.905 143.863 350.217 143.56 350.581 143.364C350.945 143.159 351.356 143.056 351.813 143.056C352.308 143.056 352.737 143.163 353.101 143.378C353.475 143.583 353.764 143.877 353.969 144.26C354.184 144.633 354.291 145.072 354.291 145.576V150H353.269V145.87C353.269 145.263 353.101 144.787 352.765 144.442C352.439 144.087 351.995 143.91 351.435 143.91C351.062 143.91 350.721 143.999 350.413 144.176C350.105 144.353 349.849 144.615 349.643 144.96V150H348.621ZM360.705 150V141.292L359.137 141.992V141.068L361.083 140.2H361.713V150H360.705Z" fill="#151515"/>
<mask id="path-13-inside-2_1379_76512" fill="white">
<path d="M291 168H383V213H291V168Z"/>
</mask>
<path d="M291 213H292V168H291H290V213H291Z" fill="#C7C7C7" mask="url(#path-13-inside-2_1379_76512)"/>
<path d="M311.865 195.154C311.1 195.154 310.39 195.019 309.737 194.748C309.084 194.468 308.454 194.048 307.847 193.488L308.505 192.704C309.093 193.255 309.644 193.647 310.157 193.88C310.68 194.113 311.258 194.23 311.893 194.23C312.397 194.23 312.845 194.146 313.237 193.978C313.638 193.801 313.951 193.563 314.175 193.264C314.399 192.965 314.511 192.625 314.511 192.242C314.511 191.747 314.348 191.374 314.021 191.122C313.694 190.861 313.13 190.66 312.327 190.52L310.745 190.254C309.849 190.095 309.191 189.825 308.771 189.442C308.36 189.05 308.155 188.527 308.155 187.874C308.155 187.323 308.295 186.838 308.575 186.418C308.864 185.989 309.261 185.653 309.765 185.41C310.269 185.167 310.852 185.046 311.515 185.046C312.243 185.046 312.92 185.149 313.545 185.354C314.17 185.55 314.786 185.863 315.393 186.292L314.833 187.132C314.329 186.749 313.797 186.46 313.237 186.264C312.677 186.059 312.108 185.956 311.529 185.956C311.072 185.956 310.666 186.035 310.311 186.194C309.966 186.353 309.69 186.567 309.485 186.838C309.289 187.109 309.191 187.417 309.191 187.762C309.191 188.191 309.336 188.527 309.625 188.77C309.914 189.013 310.386 189.185 311.039 189.288L312.607 189.554C313.652 189.741 314.408 190.044 314.875 190.464C315.351 190.875 315.589 191.449 315.589 192.186C315.589 192.755 315.426 193.264 315.099 193.712C314.782 194.16 314.343 194.515 313.783 194.776C313.223 195.028 312.584 195.154 311.865 195.154ZM320.444 195.14C319.81 195.14 319.236 194.986 318.722 194.678C318.209 194.361 317.803 193.936 317.504 193.404C317.206 192.863 317.056 192.256 317.056 191.584C317.056 190.912 317.196 190.31 317.476 189.778C317.766 189.246 318.153 188.826 318.638 188.518C319.124 188.21 319.665 188.056 320.262 188.056C320.869 188.056 321.406 188.21 321.872 188.518C322.348 188.817 322.722 189.227 322.992 189.75C323.272 190.263 323.412 190.847 323.412 191.5V191.808H318.05C318.088 192.275 318.214 192.695 318.428 193.068C318.652 193.432 318.942 193.721 319.296 193.936C319.66 194.141 320.057 194.244 320.486 194.244C320.841 194.244 321.182 194.183 321.508 194.062C321.844 193.931 322.129 193.759 322.362 193.544L323.006 194.23C322.614 194.538 322.208 194.767 321.788 194.916C321.368 195.065 320.92 195.14 320.444 195.14ZM318.078 191.08H322.404C322.358 190.669 322.232 190.305 322.026 189.988C321.83 189.661 321.578 189.405 321.27 189.218C320.972 189.031 320.636 188.938 320.262 188.938C319.889 188.938 319.548 189.031 319.24 189.218C318.932 189.395 318.676 189.647 318.47 189.974C318.274 190.291 318.144 190.66 318.078 191.08ZM328.223 195.112C327.589 195.112 327.015 194.958 326.501 194.65C325.997 194.333 325.596 193.908 325.297 193.376C324.999 192.835 324.849 192.237 324.849 191.584C324.849 190.921 324.999 190.324 325.297 189.792C325.596 189.26 325.997 188.84 326.501 188.532C327.015 188.215 327.589 188.056 328.223 188.056C328.727 188.056 329.208 188.149 329.665 188.336C330.123 188.523 330.519 188.784 330.855 189.12L330.197 189.834C329.955 189.563 329.661 189.353 329.315 189.204C328.97 189.055 328.62 188.98 328.265 188.98C327.817 188.98 327.411 189.097 327.047 189.33C326.693 189.563 326.408 189.876 326.193 190.268C325.979 190.66 325.871 191.099 325.871 191.584C325.871 192.069 325.979 192.508 326.193 192.9C326.408 193.292 326.693 193.605 327.047 193.838C327.411 194.071 327.817 194.188 328.265 194.188C328.62 194.188 328.97 194.113 329.315 193.964C329.661 193.805 329.955 193.595 330.197 193.334L330.855 194.048C330.519 194.384 330.123 194.645 329.665 194.832C329.208 195.019 328.727 195.112 328.223 195.112ZM335.021 195.14C334.433 195.14 333.985 195 333.677 194.72C333.379 194.431 333.229 194.015 333.229 193.474V189.008H331.815V188.168H333.229V186.292L334.251 186.054V188.168H336.211V189.008H334.251V193.208C334.251 193.572 334.326 193.833 334.475 193.992C334.634 194.151 334.891 194.23 335.245 194.23C335.423 194.23 335.581 194.216 335.721 194.188C335.861 194.16 336.025 194.113 336.211 194.048V194.958C336.025 195.023 335.829 195.07 335.623 195.098C335.418 195.126 335.217 195.14 335.021 195.14ZM337.694 195V188.168H338.716V195H337.694ZM338.212 186.474C338.007 186.474 337.83 186.404 337.68 186.264C337.54 186.115 337.47 185.942 337.47 185.746C337.47 185.55 337.54 185.382 337.68 185.242C337.83 185.093 338.007 185.018 338.212 185.018C338.418 185.018 338.59 185.093 338.73 185.242C338.88 185.382 338.954 185.55 338.954 185.746C338.954 185.942 338.88 186.115 338.73 186.264C338.59 186.404 338.418 186.474 338.212 186.474ZM343.836 195.112C343.201 195.112 342.632 194.958 342.128 194.65C341.624 194.342 341.227 193.922 340.938 193.39C340.648 192.858 340.504 192.256 340.504 191.584C340.504 190.912 340.648 190.31 340.938 189.778C341.227 189.246 341.624 188.826 342.128 188.518C342.632 188.21 343.201 188.056 343.836 188.056C344.461 188.056 345.021 188.21 345.516 188.518C346.02 188.826 346.416 189.246 346.706 189.778C346.995 190.31 347.14 190.912 347.14 191.584C347.14 192.256 346.995 192.858 346.706 193.39C346.416 193.922 346.02 194.342 345.516 194.65C345.021 194.958 344.461 195.112 343.836 195.112ZM343.822 194.216C344.27 194.216 344.666 194.104 345.012 193.88C345.357 193.647 345.628 193.329 345.824 192.928C346.029 192.527 346.132 192.079 346.132 191.584C346.132 191.08 346.029 190.632 345.824 190.24C345.628 189.839 345.357 189.526 345.012 189.302C344.666 189.069 344.27 188.952 343.822 188.952C343.374 188.952 342.977 189.069 342.632 189.302C342.286 189.526 342.011 189.839 341.806 190.24C341.61 190.632 341.512 191.08 341.512 191.584C341.512 192.079 341.61 192.527 341.806 192.928C342.011 193.329 342.286 193.647 342.632 193.88C342.977 194.104 343.374 194.216 343.822 194.216ZM348.933 195V188.168H349.955V189.274C350.216 188.863 350.529 188.56 350.893 188.364C351.257 188.159 351.667 188.056 352.125 188.056C352.619 188.056 353.049 188.163 353.413 188.378C353.786 188.583 354.075 188.877 354.281 189.26C354.495 189.633 354.603 190.072 354.603 190.576V195H353.581V190.87C353.581 190.263 353.413 189.787 353.077 189.442C352.75 189.087 352.307 188.91 351.747 188.91C351.373 188.91 351.033 188.999 350.725 189.176C350.417 189.353 350.16 189.615 349.955 189.96V195H348.933ZM359.589 195V194.258L363.509 189.974C363.817 189.638 364.055 189.344 364.223 189.092C364.4 188.831 364.522 188.588 364.587 188.364C364.662 188.14 364.699 187.902 364.699 187.65C364.699 187.155 364.503 186.749 364.111 186.432C363.728 186.105 363.238 185.942 362.641 185.942C362.184 185.942 361.759 186.031 361.367 186.208C360.975 186.385 360.536 186.693 360.051 187.132L359.463 186.432C359.976 185.965 360.494 185.62 361.017 185.396C361.54 185.163 362.086 185.046 362.655 185.046C363.243 185.046 363.766 185.158 364.223 185.382C364.68 185.597 365.04 185.895 365.301 186.278C365.562 186.661 365.693 187.099 365.693 187.594C365.693 187.921 365.651 188.224 365.567 188.504C365.483 188.775 365.334 189.069 365.119 189.386C364.904 189.694 364.596 190.067 364.195 190.506L360.849 194.132L365.903 194.118V195H359.589Z" fill="#4D4D4D"/>
<mask id="path-17-inside-3_1379_76512" fill="white">
<path d="M291 213H383V258H291V213Z"/>
</mask>
<path d="M291 258H292V213H291H290V258H291Z" fill="#C7C7C7" mask="url(#path-17-inside-3_1379_76512)"/>
<path d="M311.598 240.154C310.833 240.154 310.124 240.019 309.47 239.748C308.817 239.468 308.187 239.048 307.58 238.488L308.238 237.704C308.826 238.255 309.377 238.647 309.89 238.88C310.413 239.113 310.992 239.23 311.626 239.23C312.13 239.23 312.578 239.146 312.97 238.978C313.372 238.801 313.684 238.563 313.908 238.264C314.132 237.965 314.244 237.625 314.244 237.242C314.244 236.747 314.081 236.374 313.754 236.122C313.428 235.861 312.863 235.66 312.06 235.52L310.478 235.254C309.582 235.095 308.924 234.825 308.504 234.442C308.094 234.05 307.888 233.527 307.888 232.874C307.888 232.323 308.028 231.838 308.308 231.418C308.598 230.989 308.994 230.653 309.498 230.41C310.002 230.167 310.586 230.046 311.248 230.046C311.976 230.046 312.653 230.149 313.278 230.354C313.904 230.55 314.52 230.863 315.126 231.292L314.566 232.132C314.062 231.749 313.53 231.46 312.97 231.264C312.41 231.059 311.841 230.956 311.262 230.956C310.805 230.956 310.399 231.035 310.044 231.194C309.699 231.353 309.424 231.567 309.218 231.838C309.022 232.109 308.924 232.417 308.924 232.762C308.924 233.191 309.069 233.527 309.358 233.77C309.648 234.013 310.119 234.185 310.772 234.288L312.34 234.554C313.386 234.741 314.142 235.044 314.608 235.464C315.084 235.875 315.322 236.449 315.322 237.186C315.322 237.755 315.159 238.264 314.832 238.712C314.515 239.16 314.076 239.515 313.516 239.776C312.956 240.028 312.317 240.154 311.598 240.154ZM320.178 240.14C319.543 240.14 318.969 239.986 318.456 239.678C317.943 239.361 317.537 238.936 317.238 238.404C316.939 237.863 316.79 237.256 316.79 236.584C316.79 235.912 316.93 235.31 317.21 234.778C317.499 234.246 317.887 233.826 318.372 233.518C318.857 233.21 319.399 233.056 319.996 233.056C320.603 233.056 321.139 233.21 321.606 233.518C322.082 233.817 322.455 234.227 322.726 234.75C323.006 235.263 323.146 235.847 323.146 236.5V236.808H317.784C317.821 237.275 317.947 237.695 318.162 238.068C318.386 238.432 318.675 238.721 319.03 238.936C319.394 239.141 319.791 239.244 320.22 239.244C320.575 239.244 320.915 239.183 321.242 239.062C321.578 238.931 321.863 238.759 322.096 238.544L322.74 239.23C322.348 239.538 321.942 239.767 321.522 239.916C321.102 240.065 320.654 240.14 320.178 240.14ZM317.812 236.08H322.138C322.091 235.669 321.965 235.305 321.76 234.988C321.564 234.661 321.312 234.405 321.004 234.218C320.705 234.031 320.369 233.938 319.996 233.938C319.623 233.938 319.282 234.031 318.974 234.218C318.666 234.395 318.409 234.647 318.204 234.974C318.008 235.291 317.877 235.66 317.812 236.08ZM327.957 240.112C327.322 240.112 326.748 239.958 326.235 239.65C325.731 239.333 325.329 238.908 325.031 238.376C324.732 237.835 324.583 237.237 324.583 236.584C324.583 235.921 324.732 235.324 325.031 234.792C325.329 234.26 325.731 233.84 326.235 233.532C326.748 233.215 327.322 233.056 327.957 233.056C328.461 233.056 328.941 233.149 329.399 233.336C329.856 233.523 330.253 233.784 330.589 234.12L329.931 234.834C329.688 234.563 329.394 234.353 329.049 234.204C328.703 234.055 328.353 233.98 327.999 233.98C327.551 233.98 327.145 234.097 326.781 234.33C326.426 234.563 326.141 234.876 325.927 235.268C325.712 235.66 325.605 236.099 325.605 236.584C325.605 237.069 325.712 237.508 325.927 237.9C326.141 238.292 326.426 238.605 326.781 238.838C327.145 239.071 327.551 239.188 327.999 239.188C328.353 239.188 328.703 239.113 329.049 238.964C329.394 238.805 329.688 238.595 329.931 238.334L330.589 239.048C330.253 239.384 329.856 239.645 329.399 239.832C328.941 240.019 328.461 240.112 327.957 240.112ZM334.755 240.14C334.167 240.14 333.719 240 333.411 239.72C333.112 239.431 332.963 239.015 332.963 238.474V234.008H331.549V233.168H332.963V231.292L333.985 231.054V233.168H335.945V234.008H333.985V238.208C333.985 238.572 334.059 238.833 334.209 238.992C334.367 239.151 334.624 239.23 334.979 239.23C335.156 239.23 335.315 239.216 335.455 239.188C335.595 239.16 335.758 239.113 335.945 239.048V239.958C335.758 240.023 335.562 240.07 335.357 240.098C335.151 240.126 334.951 240.14 334.755 240.14ZM337.428 240V233.168H338.45V240H337.428ZM337.946 231.474C337.74 231.474 337.563 231.404 337.414 231.264C337.274 231.115 337.204 230.942 337.204 230.746C337.204 230.55 337.274 230.382 337.414 230.242C337.563 230.093 337.74 230.018 337.946 230.018C338.151 230.018 338.324 230.093 338.464 230.242C338.613 230.382 338.688 230.55 338.688 230.746C338.688 230.942 338.613 231.115 338.464 231.264C338.324 231.404 338.151 231.474 337.946 231.474ZM343.569 240.112C342.934 240.112 342.365 239.958 341.861 239.65C341.357 239.342 340.96 238.922 340.671 238.39C340.382 237.858 340.237 237.256 340.237 236.584C340.237 235.912 340.382 235.31 340.671 234.778C340.96 234.246 341.357 233.826 341.861 233.518C342.365 233.21 342.934 233.056 343.569 233.056C344.194 233.056 344.754 233.21 345.249 233.518C345.753 233.826 346.15 234.246 346.439 234.778C346.728 235.31 346.873 235.912 346.873 236.584C346.873 237.256 346.728 237.858 346.439 238.39C346.15 238.922 345.753 239.342 345.249 239.65C344.754 239.958 344.194 240.112 343.569 240.112ZM343.555 239.216C344.003 239.216 344.4 239.104 344.745 238.88C345.09 238.647 345.361 238.329 345.557 237.928C345.762 237.527 345.865 237.079 345.865 236.584C345.865 236.08 345.762 235.632 345.557 235.24C345.361 234.839 345.09 234.526 344.745 234.302C344.4 234.069 344.003 233.952 343.555 233.952C343.107 233.952 342.71 234.069 342.365 234.302C342.02 234.526 341.744 234.839 341.539 235.24C341.343 235.632 341.245 236.08 341.245 236.584C341.245 237.079 341.343 237.527 341.539 237.928C341.744 238.329 342.02 238.647 342.365 238.88C342.71 239.104 343.107 239.216 343.555 239.216ZM348.666 240V233.168H349.688V234.274C349.95 233.863 350.262 233.56 350.626 233.364C350.99 233.159 351.401 233.056 351.858 233.056C352.353 233.056 352.782 233.163 353.146 233.378C353.52 233.583 353.809 233.877 354.014 234.26C354.229 234.633 354.336 235.072 354.336 235.576V240H353.314V235.87C353.314 235.263 353.146 234.787 352.81 234.442C352.484 234.087 352.04 233.91 351.48 233.91C351.107 233.91 350.766 233.999 350.458 234.176C350.15 234.353 349.894 234.615 349.688 234.96V240H348.666ZM362.556 240.154C361.884 240.154 361.254 240.037 360.666 239.804C360.088 239.571 359.574 239.225 359.126 238.768L359.798 238.11C360.209 238.521 360.629 238.819 361.058 239.006C361.497 239.183 361.992 239.272 362.542 239.272C363.018 239.272 363.438 239.188 363.802 239.02C364.176 238.852 364.465 238.619 364.67 238.32C364.876 238.021 364.978 237.681 364.978 237.298C364.978 236.934 364.885 236.612 364.698 236.332C364.521 236.043 364.274 235.819 363.956 235.66C363.639 235.501 363.275 235.422 362.864 235.422H361.702V234.554H362.822C363.354 234.554 363.784 234.391 364.11 234.064C364.446 233.737 364.614 233.313 364.614 232.79C364.614 232.445 364.521 232.132 364.334 231.852C364.148 231.572 363.891 231.353 363.564 231.194C363.247 231.026 362.888 230.942 362.486 230.942C361.982 230.942 361.53 231.035 361.128 231.222C360.736 231.399 360.335 231.703 359.924 232.132L359.252 231.46C359.691 230.993 360.186 230.643 360.736 230.41C361.287 230.167 361.875 230.046 362.5 230.046C363.098 230.046 363.63 230.163 364.096 230.396C364.572 230.629 364.946 230.951 365.216 231.362C365.487 231.763 365.622 232.221 365.622 232.734C365.622 233.247 365.454 233.709 365.118 234.12C364.782 234.521 364.339 234.801 363.788 234.96C364.451 235.109 364.983 235.399 365.384 235.828C365.786 236.257 365.986 236.757 365.986 237.326C365.986 237.867 365.837 238.353 365.538 238.782C365.249 239.211 364.843 239.547 364.32 239.79C363.807 240.033 363.219 240.154 362.556 240.154Z" fill="#4D4D4D"/>
<mask id="path-21-inside-4_1379_76512" fill="white">
<path d="M291 258H384V303H291V258Z"/>
</mask>
<path d="M291 303H292V258H291H290V303H291Z" fill="#C7C7C7" mask="url(#path-21-inside-4_1379_76512)"/>
<path d="M311.873 285.154C311.108 285.154 310.398 285.019 309.745 284.748C309.092 284.468 308.462 284.048 307.855 283.488L308.513 282.704C309.101 283.255 309.652 283.647 310.165 283.88C310.688 284.113 311.266 284.23 311.901 284.23C312.405 284.23 312.853 284.146 313.245 283.978C313.646 283.801 313.959 283.563 314.183 283.264C314.407 282.965 314.519 282.625 314.519 282.242C314.519 281.747 314.356 281.374 314.029 281.122C313.702 280.861 313.138 280.66 312.335 280.52L310.753 280.254C309.857 280.095 309.199 279.825 308.779 279.442C308.368 279.05 308.163 278.527 308.163 277.874C308.163 277.323 308.303 276.838 308.583 276.418C308.872 275.989 309.269 275.653 309.773 275.41C310.277 275.167 310.86 275.046 311.523 275.046C312.251 275.046 312.928 275.149 313.553 275.354C314.178 275.55 314.794 275.863 315.401 276.292L314.841 277.132C314.337 276.749 313.805 276.46 313.245 276.264C312.685 276.059 312.116 275.956 311.537 275.956C311.08 275.956 310.674 276.035 310.319 276.194C309.974 276.353 309.698 276.567 309.493 276.838C309.297 277.109 309.199 277.417 309.199 277.762C309.199 278.191 309.344 278.527 309.633 278.77C309.922 279.013 310.394 279.185 311.047 279.288L312.615 279.554C313.66 279.741 314.416 280.044 314.883 280.464C315.359 280.875 315.597 281.449 315.597 282.186C315.597 282.755 315.434 283.264 315.107 283.712C314.79 284.16 314.351 284.515 313.791 284.776C313.231 285.028 312.592 285.154 311.873 285.154ZM320.452 285.14C319.818 285.14 319.244 284.986 318.73 284.678C318.217 284.361 317.811 283.936 317.512 283.404C317.214 282.863 317.064 282.256 317.064 281.584C317.064 280.912 317.204 280.31 317.484 279.778C317.774 279.246 318.161 278.826 318.646 278.518C319.132 278.21 319.673 278.056 320.27 278.056C320.877 278.056 321.414 278.21 321.88 278.518C322.356 278.817 322.73 279.227 323 279.75C323.28 280.263 323.42 280.847 323.42 281.5V281.808H318.058C318.096 282.275 318.222 282.695 318.436 283.068C318.66 283.432 318.95 283.721 319.304 283.936C319.668 284.141 320.065 284.244 320.494 284.244C320.849 284.244 321.19 284.183 321.516 284.062C321.852 283.931 322.137 283.759 322.37 283.544L323.014 284.23C322.622 284.538 322.216 284.767 321.796 284.916C321.376 285.065 320.928 285.14 320.452 285.14ZM318.086 281.08H322.412C322.366 280.669 322.24 280.305 322.034 279.988C321.838 279.661 321.586 279.405 321.278 279.218C320.98 279.031 320.644 278.938 320.27 278.938C319.897 278.938 319.556 279.031 319.248 279.218C318.94 279.395 318.684 279.647 318.478 279.974C318.282 280.291 318.152 280.66 318.086 281.08ZM328.231 285.112C327.597 285.112 327.023 284.958 326.509 284.65C326.005 284.333 325.604 283.908 325.305 283.376C325.007 282.835 324.857 282.237 324.857 281.584C324.857 280.921 325.007 280.324 325.305 279.792C325.604 279.26 326.005 278.84 326.509 278.532C327.023 278.215 327.597 278.056 328.231 278.056C328.735 278.056 329.216 278.149 329.673 278.336C330.131 278.523 330.527 278.784 330.863 279.12L330.205 279.834C329.963 279.563 329.669 279.353 329.323 279.204C328.978 279.055 328.628 278.98 328.273 278.98C327.825 278.98 327.419 279.097 327.055 279.33C326.701 279.563 326.416 279.876 326.201 280.268C325.987 280.66 325.879 281.099 325.879 281.584C325.879 282.069 325.987 282.508 326.201 282.9C326.416 283.292 326.701 283.605 327.055 283.838C327.419 284.071 327.825 284.188 328.273 284.188C328.628 284.188 328.978 284.113 329.323 283.964C329.669 283.805 329.963 283.595 330.205 283.334L330.863 284.048C330.527 284.384 330.131 284.645 329.673 284.832C329.216 285.019 328.735 285.112 328.231 285.112ZM335.029 285.14C334.441 285.14 333.993 285 333.685 284.72C333.386 284.431 333.237 284.015 333.237 283.474V279.008H331.823V278.168H333.237V276.292L334.259 276.054V278.168H336.219V279.008H334.259V283.208C334.259 283.572 334.334 283.833 334.483 283.992C334.642 284.151 334.898 284.23 335.253 284.23C335.43 284.23 335.589 284.216 335.729 284.188C335.869 284.16 336.032 284.113 336.219 284.048V284.958C336.032 285.023 335.836 285.07 335.631 285.098C335.426 285.126 335.225 285.14 335.029 285.14ZM337.702 285V278.168H338.724V285H337.702ZM338.22 276.474C338.015 276.474 337.837 276.404 337.688 276.264C337.548 276.115 337.478 275.942 337.478 275.746C337.478 275.55 337.548 275.382 337.688 275.242C337.837 275.093 338.015 275.018 338.22 275.018C338.425 275.018 338.598 275.093 338.738 275.242C338.887 275.382 338.962 275.55 338.962 275.746C338.962 275.942 338.887 276.115 338.738 276.264C338.598 276.404 338.425 276.474 338.22 276.474ZM343.844 285.112C343.209 285.112 342.64 284.958 342.136 284.65C341.632 284.342 341.235 283.922 340.946 283.39C340.656 282.858 340.512 282.256 340.512 281.584C340.512 280.912 340.656 280.31 340.946 279.778C341.235 279.246 341.632 278.826 342.136 278.518C342.64 278.21 343.209 278.056 343.844 278.056C344.469 278.056 345.029 278.21 345.524 278.518C346.028 278.826 346.424 279.246 346.714 279.778C347.003 280.31 347.148 280.912 347.148 281.584C347.148 282.256 347.003 282.858 346.714 283.39C346.424 283.922 346.028 284.342 345.524 284.65C345.029 284.958 344.469 285.112 343.844 285.112ZM343.83 284.216C344.278 284.216 344.674 284.104 345.02 283.88C345.365 283.647 345.636 283.329 345.832 282.928C346.037 282.527 346.14 282.079 346.14 281.584C346.14 281.08 346.037 280.632 345.832 280.24C345.636 279.839 345.365 279.526 345.02 279.302C344.674 279.069 344.278 278.952 343.83 278.952C343.382 278.952 342.985 279.069 342.64 279.302C342.294 279.526 342.019 279.839 341.814 280.24C341.618 280.632 341.52 281.08 341.52 281.584C341.52 282.079 341.618 282.527 341.814 282.928C342.019 283.329 342.294 283.647 342.64 283.88C342.985 284.104 343.382 284.216 343.83 284.216ZM348.941 285V278.168H349.963V279.274C350.224 278.863 350.537 278.56 350.901 278.364C351.265 278.159 351.675 278.056 352.133 278.056C352.627 278.056 353.057 278.163 353.421 278.378C353.794 278.583 354.083 278.877 354.289 279.26C354.503 279.633 354.611 280.072 354.611 280.576V285H353.589V280.87C353.589 280.263 353.421 279.787 353.085 279.442C352.758 279.087 352.315 278.91 351.755 278.91C351.381 278.91 351.041 278.999 350.733 279.176C350.425 279.353 350.168 279.615 349.963 279.96V285H348.941ZM364.721 285V282.382H359.429V281.584L364.637 275.2H365.715V281.5H367.073V282.382H365.715V285H364.721ZM360.605 281.5H364.721V276.418L360.605 281.5Z" fill="#4D4D4D"/>
<mask id="path-25-inside-5_1379_76512" fill="white">
<path d="M291 303H383V348H291V303Z"/>
</mask>
<path d="M291 348H292V303H291H290V348H291Z" fill="#C7C7C7" mask="url(#path-25-inside-5_1379_76512)"/>
<path d="M311.708 330.154C310.943 330.154 310.233 330.019 309.58 329.748C308.927 329.468 308.297 329.048 307.69 328.488L308.348 327.704C308.936 328.255 309.487 328.647 310 328.88C310.523 329.113 311.101 329.23 311.736 329.23C312.24 329.23 312.688 329.146 313.08 328.978C313.481 328.801 313.794 328.563 314.018 328.264C314.242 327.965 314.354 327.625 314.354 327.242C314.354 326.747 314.191 326.374 313.864 326.122C313.537 325.861 312.973 325.66 312.17 325.52L310.588 325.254C309.692 325.095 309.034 324.825 308.614 324.442C308.203 324.05 307.998 323.527 307.998 322.874C307.998 322.323 308.138 321.838 308.418 321.418C308.707 320.989 309.104 320.653 309.608 320.41C310.112 320.167 310.695 320.046 311.358 320.046C312.086 320.046 312.763 320.149 313.388 320.354C314.013 320.55 314.629 320.863 315.236 321.292L314.676 322.132C314.172 321.749 313.64 321.46 313.08 321.264C312.52 321.059 311.951 320.956 311.372 320.956C310.915 320.956 310.509 321.035 310.154 321.194C309.809 321.353 309.533 321.567 309.328 321.838C309.132 322.109 309.034 322.417 309.034 322.762C309.034 323.191 309.179 323.527 309.468 323.77C309.757 324.013 310.229 324.185 310.882 324.288L312.45 324.554C313.495 324.741 314.251 325.044 314.718 325.464C315.194 325.875 315.432 326.449 315.432 327.186C315.432 327.755 315.269 328.264 314.942 328.712C314.625 329.16 314.186 329.515 313.626 329.776C313.066 330.028 312.427 330.154 311.708 330.154ZM320.287 330.14C319.653 330.14 319.079 329.986 318.565 329.678C318.052 329.361 317.646 328.936 317.347 328.404C317.049 327.863 316.899 327.256 316.899 326.584C316.899 325.912 317.039 325.31 317.319 324.778C317.609 324.246 317.996 323.826 318.481 323.518C318.967 323.21 319.508 323.056 320.105 323.056C320.712 323.056 321.249 323.21 321.715 323.518C322.191 323.817 322.565 324.227 322.835 324.75C323.115 325.263 323.255 325.847 323.255 326.5V326.808H317.893C317.931 327.275 318.057 327.695 318.271 328.068C318.495 328.432 318.785 328.721 319.139 328.936C319.503 329.141 319.9 329.244 320.329 329.244C320.684 329.244 321.025 329.183 321.351 329.062C321.687 328.931 321.972 328.759 322.205 328.544L322.849 329.23C322.457 329.538 322.051 329.767 321.631 329.916C321.211 330.065 320.763 330.14 320.287 330.14ZM317.921 326.08H322.247C322.201 325.669 322.075 325.305 321.869 324.988C321.673 324.661 321.421 324.405 321.113 324.218C320.815 324.031 320.479 323.938 320.105 323.938C319.732 323.938 319.391 324.031 319.083 324.218C318.775 324.395 318.519 324.647 318.313 324.974C318.117 325.291 317.987 325.66 317.921 326.08ZM328.066 330.112C327.432 330.112 326.858 329.958 326.344 329.65C325.84 329.333 325.439 328.908 325.14 328.376C324.842 327.835 324.692 327.237 324.692 326.584C324.692 325.921 324.842 325.324 325.14 324.792C325.439 324.26 325.84 323.84 326.344 323.532C326.858 323.215 327.432 323.056 328.066 323.056C328.57 323.056 329.051 323.149 329.508 323.336C329.966 323.523 330.362 323.784 330.698 324.12L330.04 324.834C329.798 324.563 329.504 324.353 329.158 324.204C328.813 324.055 328.463 323.98 328.108 323.98C327.66 323.98 327.254 324.097 326.89 324.33C326.536 324.563 326.251 324.876 326.036 325.268C325.822 325.66 325.714 326.099 325.714 326.584C325.714 327.069 325.822 327.508 326.036 327.9C326.251 328.292 326.536 328.605 326.89 328.838C327.254 329.071 327.66 329.188 328.108 329.188C328.463 329.188 328.813 329.113 329.158 328.964C329.504 328.805 329.798 328.595 330.04 328.334L330.698 329.048C330.362 329.384 329.966 329.645 329.508 329.832C329.051 330.019 328.57 330.112 328.066 330.112ZM334.864 330.14C334.276 330.14 333.828 330 333.52 329.72C333.221 329.431 333.072 329.015 333.072 328.474V324.008H331.658V323.168H333.072V321.292L334.094 321.054V323.168H336.054V324.008H334.094V328.208C334.094 328.572 334.169 328.833 334.318 328.992C334.477 329.151 334.733 329.23 335.088 329.23C335.265 329.23 335.424 329.216 335.564 329.188C335.704 329.16 335.867 329.113 336.054 329.048V329.958C335.867 330.023 335.671 330.07 335.466 330.098C335.261 330.126 335.06 330.14 334.864 330.14ZM337.537 330V323.168H338.559V330H337.537ZM338.055 321.474C337.85 321.474 337.672 321.404 337.523 321.264C337.383 321.115 337.313 320.942 337.313 320.746C337.313 320.55 337.383 320.382 337.523 320.242C337.672 320.093 337.85 320.018 338.055 320.018C338.26 320.018 338.433 320.093 338.573 320.242C338.722 320.382 338.797 320.55 338.797 320.746C338.797 320.942 338.722 321.115 338.573 321.264C338.433 321.404 338.26 321.474 338.055 321.474ZM343.678 330.112C343.044 330.112 342.474 329.958 341.97 329.65C341.466 329.342 341.07 328.922 340.78 328.39C340.491 327.858 340.346 327.256 340.346 326.584C340.346 325.912 340.491 325.31 340.78 324.778C341.07 324.246 341.466 323.826 341.97 323.518C342.474 323.21 343.044 323.056 343.678 323.056C344.304 323.056 344.864 323.21 345.358 323.518C345.862 323.826 346.259 324.246 346.548 324.778C346.838 325.31 346.982 325.912 346.982 326.584C346.982 327.256 346.838 327.858 346.548 328.39C346.259 328.922 345.862 329.342 345.358 329.65C344.864 329.958 344.304 330.112 343.678 330.112ZM343.664 329.216C344.112 329.216 344.509 329.104 344.854 328.88C345.2 328.647 345.47 328.329 345.666 327.928C345.872 327.527 345.974 327.079 345.974 326.584C345.974 326.08 345.872 325.632 345.666 325.24C345.47 324.839 345.2 324.526 344.854 324.302C344.509 324.069 344.112 323.952 343.664 323.952C343.216 323.952 342.82 324.069 342.474 324.302C342.129 324.526 341.854 324.839 341.648 325.24C341.452 325.632 341.354 326.08 341.354 326.584C341.354 327.079 341.452 327.527 341.648 327.928C341.854 328.329 342.129 328.647 342.474 328.88C342.82 329.104 343.216 329.216 343.664 329.216ZM348.776 330V323.168H349.798V324.274C350.059 323.863 350.372 323.56 350.736 323.364C351.1 323.159 351.51 323.056 351.968 323.056C352.462 323.056 352.892 323.163 353.256 323.378C353.629 323.583 353.918 323.877 354.124 324.26C354.338 324.633 354.446 325.072 354.446 325.576V330H353.424V325.87C353.424 325.263 353.256 324.787 352.92 324.442C352.593 324.087 352.15 323.91 351.59 323.91C351.216 323.91 350.876 323.999 350.568 324.176C350.26 324.353 350.003 324.615 349.798 324.96V330H348.776ZM362.568 330.154C361.28 330.154 360.169 329.711 359.236 328.824L359.866 328.138C360.295 328.539 360.72 328.833 361.14 329.02C361.569 329.197 362.05 329.286 362.582 329.286C363.058 329.286 363.478 329.188 363.842 328.992C364.206 328.796 364.486 328.521 364.682 328.166C364.887 327.811 364.99 327.405 364.99 326.948C364.99 326.295 364.766 325.767 364.318 325.366C363.879 324.965 363.3 324.764 362.582 324.764C362.208 324.764 361.844 324.811 361.49 324.904C361.135 324.988 360.766 325.128 360.384 325.324L359.684 325.1L359.908 320.2H365.48V321.082H360.776L360.622 324.47C360.995 324.283 361.354 324.153 361.7 324.078C362.045 323.994 362.409 323.952 362.792 323.952C363.436 323.952 363.996 324.078 364.472 324.33C364.957 324.573 365.33 324.918 365.592 325.366C365.862 325.805 365.998 326.318 365.998 326.906C365.998 327.55 365.853 328.115 365.564 328.6C365.274 329.085 364.873 329.468 364.36 329.748C363.846 330.019 363.249 330.154 362.568 330.154Z" fill="#4D4D4D"/>
</svg>
