<svg width="1270" height="292" viewBox="0 0 1270 292" fill="none" xmlns="http://www.w3.org/2000/svg">
<g clip-path="url(#clip0_3422_9444)">
<rect width="1270" height="292" fill="white"/>
<rect width="1500" height="749" fill="#151515" fill-opacity="0.2"/>
<g filter="url(#filter0_d_3422_9444)">
<path d="M405 65C405 51.7452 415.745 41 429 41H841C854.255 41 865 51.7452 865 65V226C865 239.255 854.255 250 841 250H429C415.745 250 405 239.255 405 226V65Z" fill="white"/>
<path d="M450 76C455.522 76 460 80.4792 460 86C460 91.5241 455.522 96 450 96C444.478 96 440 91.5241 440 86C440 80.4792 444.478 76 450 76ZM450 88.0166C448.976 88.0166 448.146 88.8467 448.146 89.8711C448.146 90.8954 448.976 91.7256 450 91.7256C451.024 91.7256 451.854 90.8954 451.854 89.8711C451.854 88.8467 451.024 88.0166 450 88.0166ZM448.722 80.8389C448.444 80.8391 448.224 81.0717 448.239 81.3486L448.538 86.833C448.552 87.0895 448.765 87.29 449.021 87.29H450.979C451.235 87.29 451.448 87.0895 451.462 86.833L451.761 81.3486C451.776 81.0718 451.556 80.8391 451.278 80.8389H448.722Z" fill="#B1380B"/>
<path d="M477.16 93.2C476.04 93.2 474.96 92.98 473.92 92.54C472.88 92.1 471.96 91.48 471.16 90.68L472.44 89.2C473.2 89.9467 473.973 90.5 474.76 90.86C475.56 91.22 476.393 91.4 477.26 91.4C477.94 91.4 478.533 91.3067 479.04 91.12C479.56 90.92 479.96 90.64 480.24 90.28C480.52 89.92 480.66 89.5133 480.66 89.06C480.66 88.4333 480.44 87.9533 480 87.62C479.56 87.2867 478.833 87.0333 477.82 86.86L475.48 86.48C474.2 86.2533 473.24 85.84 472.6 85.24C471.973 84.64 471.66 83.84 471.66 82.84C471.66 82.04 471.873 81.34 472.3 80.74C472.727 80.1267 473.327 79.6533 474.1 79.32C474.887 78.9867 475.793 78.82 476.82 78.82C477.833 78.82 478.827 78.9867 479.8 79.32C480.787 79.64 481.673 80.1067 482.46 80.72L481.3 82.32C479.793 81.1733 478.267 80.6 476.72 80.6C475.813 80.6 475.08 80.7933 474.52 81.18C473.96 81.5533 473.68 82.0533 473.68 82.68C473.68 83.2533 473.873 83.6933 474.26 84C474.647 84.2933 475.287 84.5067 476.18 84.64L478.44 85.02C479.92 85.26 481.007 85.6933 481.7 86.32C482.393 86.9467 482.74 87.8067 482.74 88.9C482.74 89.7533 482.507 90.5067 482.04 91.16C481.573 91.8 480.92 92.3 480.08 92.66C479.24 93.02 478.267 93.2 477.16 93.2ZM489.521 93.18C488.521 93.18 487.614 92.9467 486.801 92.48C486.001 92.0133 485.361 91.38 484.881 90.58C484.414 89.78 484.181 88.8867 484.181 87.9C484.181 86.9267 484.408 86.0467 484.861 85.26C485.314 84.46 485.928 83.8267 486.701 83.36C487.474 82.88 488.334 82.64 489.281 82.64C490.228 82.64 491.068 82.88 491.801 83.36C492.534 83.8267 493.114 84.4667 493.541 85.28C493.981 86.08 494.201 86.9867 494.201 88V88.56H486.181C486.288 89.12 486.494 89.62 486.801 90.06C487.121 90.5 487.521 90.8467 488.001 91.1C488.494 91.3533 489.028 91.48 489.601 91.48C490.094 91.48 490.568 91.4067 491.021 91.26C491.488 91.1 491.874 90.8733 492.181 90.58L493.461 91.84C492.861 92.2933 492.241 92.6333 491.601 92.86C490.974 93.0733 490.281 93.18 489.521 93.18ZM486.201 87.06H492.221C492.141 86.5267 491.954 86.06 491.661 85.66C491.381 85.2467 491.028 84.9267 490.601 84.7C490.188 84.46 489.734 84.34 489.241 84.34C488.468 84.34 487.801 84.5933 487.241 85.1C486.694 85.5933 486.348 86.2467 486.201 87.06ZM499.703 93.2C498.823 93.2 497.997 93.0733 497.223 92.82C496.463 92.5533 495.803 92.18 495.243 91.7L496.343 90.38C496.863 90.7933 497.397 91.1133 497.943 91.34C498.503 91.5533 499.07 91.66 499.643 91.66C500.363 91.66 500.95 91.52 501.403 91.24C501.857 90.96 502.083 90.5933 502.083 90.14C502.083 89.42 501.537 88.98 500.443 88.82L498.603 88.56C497.59 88.4133 496.83 88.1 496.323 87.62C495.817 87.14 495.563 86.5 495.563 85.7C495.563 85.0867 495.73 84.5533 496.063 84.1C496.397 83.6333 496.863 83.2733 497.463 83.02C498.063 82.7533 498.763 82.62 499.563 82.62C500.297 82.62 501.003 82.7267 501.683 82.94C502.363 83.1533 503.017 83.4867 503.643 83.94L502.623 85.26C501.517 84.54 500.443 84.18 499.403 84.18C498.79 84.18 498.297 84.3133 497.923 84.58C497.55 84.8333 497.363 85.1667 497.363 85.58C497.363 85.9533 497.49 86.2467 497.743 86.46C498.01 86.66 498.443 86.8 499.043 86.88L500.883 87.14C501.897 87.2867 502.663 87.6 503.183 88.08C503.703 88.5467 503.963 89.18 503.963 89.98C503.963 90.5933 503.777 91.1467 503.403 91.64C503.03 92.12 502.523 92.5 501.883 92.78C501.243 93.06 500.517 93.2 499.703 93.2ZM509 93.2C508.12 93.2 507.294 93.0733 506.52 92.82C505.76 92.5533 505.1 92.18 504.54 91.7L505.64 90.38C506.16 90.7933 506.694 91.1133 507.24 91.34C507.8 91.5533 508.367 91.66 508.94 91.66C509.66 91.66 510.247 91.52 510.7 91.24C511.154 90.96 511.38 90.5933 511.38 90.14C511.38 89.42 510.834 88.98 509.74 88.82L507.9 88.56C506.887 88.4133 506.127 88.1 505.62 87.62C505.114 87.14 504.86 86.5 504.86 85.7C504.86 85.0867 505.027 84.5533 505.36 84.1C505.694 83.6333 506.16 83.2733 506.76 83.02C507.36 82.7533 508.06 82.62 508.86 82.62C509.594 82.62 510.3 82.7267 510.98 82.94C511.66 83.1533 512.314 83.4867 512.94 83.94L511.92 85.26C510.814 84.54 509.74 84.18 508.7 84.18C508.087 84.18 507.594 84.3133 507.22 84.58C506.847 84.8333 506.66 85.1667 506.66 85.58C506.66 85.9533 506.787 86.2467 507.04 86.46C507.307 86.66 507.74 86.8 508.34 86.88L510.18 87.14C511.194 87.2867 511.96 87.6 512.48 88.08C513 88.5467 513.26 89.18 513.26 89.98C513.26 90.5933 513.074 91.1467 512.7 91.64C512.327 92.12 511.82 92.5 511.18 92.78C510.54 93.06 509.814 93.2 509 93.2ZM514.797 93V82.82H516.797V93H514.797ZM515.797 81.18C515.464 81.18 515.177 81.06 514.937 80.82C514.697 80.5667 514.577 80.2733 514.577 79.94C514.577 79.5933 514.697 79.3067 514.937 79.08C515.177 78.84 515.464 78.72 515.797 78.72C516.144 78.72 516.437 78.84 516.677 79.08C516.917 79.3067 517.037 79.5933 517.037 79.94C517.037 80.2733 516.917 80.5667 516.677 80.82C516.437 81.06 516.144 81.18 515.797 81.18ZM523.993 93.2C523.006 93.2 522.106 92.9667 521.293 92.5C520.493 92.0333 519.859 91.4 519.393 90.6C518.926 89.8 518.693 88.9067 518.693 87.92C518.693 86.9333 518.926 86.04 519.393 85.24C519.859 84.44 520.493 83.8067 521.293 83.34C522.106 82.86 523.006 82.62 523.993 82.62C524.993 82.62 525.893 82.86 526.693 83.34C527.493 83.8067 528.126 84.44 528.593 85.24C529.059 86.04 529.293 86.9333 529.293 87.92C529.293 88.9067 529.059 89.8 528.593 90.6C528.126 91.4 527.493 92.0333 526.693 92.5C525.893 92.9667 524.993 93.2 523.993 93.2ZM523.993 91.44C524.619 91.44 525.179 91.2867 525.673 90.98C526.179 90.66 526.579 90.2333 526.873 89.7C527.179 89.1667 527.333 88.5733 527.333 87.92C527.333 87.2533 527.186 86.66 526.893 86.14C526.599 85.6067 526.199 85.18 525.693 84.86C525.186 84.54 524.619 84.38 523.993 84.38C523.366 84.38 522.799 84.54 522.293 84.86C521.786 85.18 521.386 85.6067 521.093 86.14C520.799 86.66 520.653 87.2533 520.653 87.92C520.653 88.5733 520.799 89.1667 521.093 89.7C521.386 90.2333 521.786 90.66 522.293 90.98C522.799 91.2867 523.366 91.44 523.993 91.44ZM531.184 93V82.82H533.184V83.86C533.971 83.0333 534.991 82.62 536.244 82.62C537.031 82.62 537.717 82.7867 538.304 83.12C538.904 83.4533 539.371 83.92 539.704 84.52C540.051 85.12 540.224 85.8133 540.224 86.6V93H538.224V86.94C538.224 86.14 537.997 85.5133 537.544 85.06C537.091 84.5933 536.471 84.36 535.684 84.36C535.151 84.36 534.671 84.4733 534.244 84.7C533.817 84.9267 533.464 85.2533 533.184 85.68V93H531.184ZM551.591 93.18C550.591 93.18 549.685 92.9467 548.871 92.48C548.071 92.0133 547.431 91.38 546.951 90.58C546.485 89.78 546.251 88.8867 546.251 87.9C546.251 86.9267 546.478 86.0467 546.931 85.26C547.385 84.46 547.998 83.8267 548.771 83.36C549.545 82.88 550.405 82.64 551.351 82.64C552.298 82.64 553.138 82.88 553.871 83.36C554.605 83.8267 555.185 84.4667 555.611 85.28C556.051 86.08 556.271 86.9867 556.271 88V88.56H548.251C548.358 89.12 548.565 89.62 548.871 90.06C549.191 90.5 549.591 90.8467 550.071 91.1C550.565 91.3533 551.098 91.48 551.671 91.48C552.165 91.48 552.638 91.4067 553.091 91.26C553.558 91.1 553.945 90.8733 554.251 90.58L555.531 91.84C554.931 92.2933 554.311 92.6333 553.671 92.86C553.045 93.0733 552.351 93.18 551.591 93.18ZM548.271 87.06H554.291C554.211 86.5267 554.025 86.06 553.731 85.66C553.451 85.2467 553.098 84.9267 552.671 84.7C552.258 84.46 551.805 84.34 551.311 84.34C550.538 84.34 549.871 84.5933 549.311 85.1C548.765 85.5933 548.418 86.2467 548.271 87.06ZM556.294 93L560.254 87.78L556.454 82.82H558.794L561.414 86.3L564.034 82.82H566.294L562.534 87.76L566.534 93H564.194L561.374 89.24L558.554 93H556.294ZM567.766 97.08V82.82H569.746V83.8C570.599 83.04 571.639 82.66 572.866 82.66C573.826 82.66 574.693 82.8933 575.466 83.36C576.253 83.8267 576.873 84.4533 577.326 85.24C577.779 86.0267 578.006 86.9133 578.006 87.9C578.006 88.8867 577.773 89.78 577.306 90.58C576.853 91.3667 576.233 91.9933 575.446 92.46C574.673 92.9267 573.799 93.16 572.826 93.16C572.266 93.16 571.726 93.0733 571.206 92.9C570.686 92.7133 570.206 92.4533 569.766 92.12V97.08H567.766ZM572.606 91.42C573.259 91.42 573.839 91.2667 574.346 90.96C574.866 90.6533 575.279 90.24 575.586 89.72C575.893 89.1867 576.046 88.5867 576.046 87.92C576.046 87.2533 575.893 86.6533 575.586 86.12C575.279 85.5867 574.866 85.1667 574.346 84.86C573.839 84.5533 573.259 84.4 572.606 84.4C572.033 84.4 571.499 84.5067 571.006 84.72C570.513 84.9333 570.099 85.2333 569.766 85.62V90.22C570.099 90.5933 570.513 90.8867 571.006 91.1C571.513 91.3133 572.046 91.42 572.606 91.42ZM579.914 93V82.82H581.914V93H579.914ZM580.914 81.18C580.581 81.18 580.294 81.06 580.054 80.82C579.814 80.5667 579.694 80.2733 579.694 79.94C579.694 79.5933 579.814 79.3067 580.054 79.08C580.294 78.84 580.581 78.72 580.914 78.72C581.261 78.72 581.554 78.84 581.794 79.08C582.034 79.3067 582.154 79.5933 582.154 79.94C582.154 80.2733 582.034 80.5667 581.794 80.82C581.554 81.06 581.261 81.18 580.914 81.18ZM584.27 93V82.82H586.27V84.12C586.59 83.64 586.983 83.2667 587.45 83C587.93 82.72 588.47 82.58 589.07 82.58C589.483 82.5933 589.823 82.6533 590.09 82.76V84.56C589.703 84.4133 589.31 84.34 588.91 84.34C588.323 84.34 587.803 84.5 587.35 84.82C586.897 85.1267 586.537 85.58 586.27 86.18V93H584.27ZM595.986 93.18C594.986 93.18 594.079 92.9467 593.266 92.48C592.466 92.0133 591.826 91.38 591.346 90.58C590.879 89.78 590.646 88.8867 590.646 87.9C590.646 86.9267 590.872 86.0467 591.326 85.26C591.779 84.46 592.392 83.8267 593.166 83.36C593.939 82.88 594.799 82.64 595.746 82.64C596.692 82.64 597.532 82.88 598.266 83.36C598.999 83.8267 599.579 84.4667 600.006 85.28C600.446 86.08 600.666 86.9867 600.666 88V88.56H592.646C592.752 89.12 592.959 89.62 593.266 90.06C593.586 90.5 593.986 90.8467 594.466 91.1C594.959 91.3533 595.492 91.48 596.066 91.48C596.559 91.48 597.032 91.4067 597.486 91.26C597.952 91.1 598.339 90.8733 598.646 90.58L599.926 91.84C599.326 92.2933 598.706 92.6333 598.066 92.86C597.439 93.0733 596.746 93.18 595.986 93.18ZM592.666 87.06H598.686C598.606 86.5267 598.419 86.06 598.126 85.66C597.846 85.2467 597.492 84.9267 597.066 84.7C596.652 84.46 596.199 84.34 595.706 84.34C594.932 84.34 594.266 84.5933 593.706 85.1C593.159 85.5933 592.812 86.2467 592.666 87.06ZM607.29 93.16C606.343 93.16 605.476 92.9267 604.69 92.46C603.903 91.9933 603.283 91.3667 602.83 90.58C602.376 89.78 602.15 88.8867 602.15 87.9C602.15 86.9133 602.376 86.0267 602.83 85.24C603.296 84.4533 603.923 83.8267 604.71 83.36C605.496 82.8933 606.37 82.66 607.33 82.66C608.476 82.66 609.496 83 610.39 83.68V79L612.39 78.62V93H610.41V92.02C609.543 92.78 608.503 93.16 607.29 93.16ZM607.55 91.42C608.136 91.42 608.67 91.3133 609.15 91.1C609.643 90.8867 610.056 90.58 610.39 90.18V85.6C610.056 85.2267 609.643 84.9333 609.15 84.72C608.656 84.4933 608.123 84.38 607.55 84.38C606.91 84.38 606.33 84.5333 605.81 84.84C605.29 85.1467 604.876 85.5667 604.57 86.1C604.263 86.62 604.11 87.2133 604.11 87.88C604.11 88.5467 604.263 89.1467 604.57 89.68C604.876 90.2133 605.29 90.64 605.81 90.96C606.33 91.2667 606.91 91.42 607.55 91.42Z" fill="#151515"/>
<path d="M440.976 130V125.996L437.168 120.2H438.428L441.55 125.058L444.686 120.2H445.876L442.054 126.024V130H440.976ZM448.662 130.112C448.027 130.112 447.458 129.958 446.954 129.65C446.45 129.342 446.053 128.922 445.764 128.39C445.475 127.858 445.33 127.256 445.33 126.584C445.33 125.912 445.475 125.31 445.764 124.778C446.053 124.246 446.45 123.826 446.954 123.518C447.458 123.21 448.027 123.056 448.662 123.056C449.287 123.056 449.847 123.21 450.342 123.518C450.846 123.826 451.243 124.246 451.532 124.778C451.821 125.31 451.966 125.912 451.966 126.584C451.966 127.256 451.821 127.858 451.532 128.39C451.243 128.922 450.846 129.342 450.342 129.65C449.847 129.958 449.287 130.112 448.662 130.112ZM448.648 129.216C449.096 129.216 449.493 129.104 449.838 128.88C450.183 128.647 450.454 128.329 450.65 127.928C450.855 127.527 450.958 127.079 450.958 126.584C450.958 126.08 450.855 125.632 450.65 125.24C450.454 124.839 450.183 124.526 449.838 124.302C449.493 124.069 449.096 123.952 448.648 123.952C448.2 123.952 447.803 124.069 447.458 124.302C447.113 124.526 446.837 124.839 446.632 125.24C446.436 125.632 446.338 126.08 446.338 126.584C446.338 127.079 446.436 127.527 446.632 127.928C446.837 128.329 447.113 128.647 447.458 128.88C447.803 129.104 448.2 129.216 448.648 129.216ZM456.195 130.112C455.71 130.112 455.28 130.005 454.907 129.79C454.534 129.575 454.24 129.277 454.025 128.894C453.82 128.511 453.717 128.073 453.717 127.578V123.168H454.753V127.284C454.753 127.891 454.916 128.371 455.243 128.726C455.57 129.081 456.013 129.258 456.573 129.258C456.956 129.258 457.296 129.169 457.595 128.992C457.903 128.815 458.16 128.558 458.365 128.222V123.168H459.387V130H458.365V128.894C458.104 129.295 457.791 129.599 457.427 129.804C457.072 130.009 456.662 130.112 456.195 130.112ZM461.484 130V123.168H462.506V124.568C462.683 124.092 462.935 123.723 463.262 123.462C463.598 123.191 463.98 123.056 464.41 123.056C464.531 123.056 464.643 123.065 464.746 123.084C464.848 123.093 464.951 123.117 465.054 123.154V124.078C464.942 124.041 464.82 124.013 464.69 123.994C464.568 123.966 464.452 123.952 464.34 123.952C463.92 123.952 463.551 124.073 463.234 124.316C462.926 124.559 462.683 124.899 462.506 125.338V130H461.484ZM471.787 130.14C471.227 130.14 470.709 130.056 470.233 129.888C469.757 129.711 469.351 129.459 469.015 129.132L469.561 128.46C469.972 128.759 470.35 128.978 470.695 129.118C471.04 129.249 471.395 129.314 471.759 129.314C472.254 129.314 472.664 129.197 472.991 128.964C473.318 128.731 473.481 128.432 473.481 128.068C473.481 127.788 473.383 127.569 473.187 127.41C473 127.251 472.688 127.13 472.249 127.046L471.129 126.85C470.466 126.729 469.976 126.523 469.659 126.234C469.351 125.945 469.197 125.553 469.197 125.058C469.197 124.666 469.3 124.321 469.505 124.022C469.72 123.723 470.014 123.49 470.387 123.322C470.76 123.145 471.185 123.056 471.661 123.056C472.128 123.056 472.571 123.126 472.991 123.266C473.411 123.397 473.836 123.611 474.265 123.91L473.761 124.624C473.406 124.372 473.052 124.19 472.697 124.078C472.342 123.957 471.983 123.896 471.619 123.896C471.171 123.896 470.812 123.994 470.541 124.19C470.27 124.386 470.135 124.652 470.135 124.988C470.135 125.268 470.219 125.483 470.387 125.632C470.564 125.781 470.872 125.893 471.311 125.968L472.459 126.178C473.15 126.299 473.654 126.509 473.971 126.808C474.288 127.107 474.447 127.508 474.447 128.012C474.447 128.413 474.33 128.777 474.097 129.104C473.864 129.421 473.546 129.673 473.145 129.86C472.744 130.047 472.291 130.14 471.787 130.14ZM479.151 130.14C478.517 130.14 477.943 129.986 477.429 129.678C476.916 129.361 476.51 128.936 476.211 128.404C475.913 127.863 475.763 127.256 475.763 126.584C475.763 125.912 475.903 125.31 476.183 124.778C476.473 124.246 476.86 123.826 477.345 123.518C477.831 123.21 478.372 123.056 478.969 123.056C479.576 123.056 480.113 123.21 480.579 123.518C481.055 123.817 481.429 124.227 481.699 124.75C481.979 125.263 482.119 125.847 482.119 126.5V126.808H476.757C476.795 127.275 476.921 127.695 477.135 128.068C477.359 128.432 477.649 128.721 478.003 128.936C478.367 129.141 478.764 129.244 479.193 129.244C479.548 129.244 479.889 129.183 480.215 129.062C480.551 128.931 480.836 128.759 481.069 128.544L481.713 129.23C481.321 129.538 480.915 129.767 480.495 129.916C480.075 130.065 479.627 130.14 479.151 130.14ZM476.785 126.08H481.111C481.065 125.669 480.939 125.305 480.733 124.988C480.537 124.661 480.285 124.405 479.977 124.218C479.679 124.031 479.343 123.938 478.969 123.938C478.596 123.938 478.255 124.031 477.947 124.218C477.639 124.395 477.383 124.647 477.177 124.974C476.981 125.291 476.851 125.66 476.785 126.08ZM486.047 130.14C485.487 130.14 484.969 130.056 484.493 129.888C484.017 129.711 483.611 129.459 483.275 129.132L483.821 128.46C484.231 128.759 484.609 128.978 484.955 129.118C485.3 129.249 485.655 129.314 486.019 129.314C486.513 129.314 486.924 129.197 487.251 128.964C487.577 128.731 487.741 128.432 487.741 128.068C487.741 127.788 487.643 127.569 487.447 127.41C487.26 127.251 486.947 127.13 486.509 127.046L485.389 126.85C484.726 126.729 484.236 126.523 483.919 126.234C483.611 125.945 483.457 125.553 483.457 125.058C483.457 124.666 483.559 124.321 483.765 124.022C483.979 123.723 484.273 123.49 484.647 123.322C485.02 123.145 485.445 123.056 485.921 123.056C486.387 123.056 486.831 123.126 487.251 123.266C487.671 123.397 488.095 123.611 488.525 123.91L488.021 124.624C487.666 124.372 487.311 124.19 486.957 124.078C486.602 123.957 486.243 123.896 485.879 123.896C485.431 123.896 485.071 123.994 484.801 124.19C484.53 124.386 484.395 124.652 484.395 124.988C484.395 125.268 484.479 125.483 484.647 125.632C484.824 125.781 485.132 125.893 485.571 125.968L486.719 126.178C487.409 126.299 487.913 126.509 488.231 126.808C488.548 127.107 488.707 127.508 488.707 128.012C488.707 128.413 488.59 128.777 488.357 129.104C488.123 129.421 487.806 129.673 487.405 129.86C487.003 130.047 486.551 130.14 486.047 130.14ZM492.377 130.14C491.817 130.14 491.299 130.056 490.823 129.888C490.347 129.711 489.941 129.459 489.605 129.132L490.151 128.46C490.562 128.759 490.94 128.978 491.285 129.118C491.63 129.249 491.985 129.314 492.349 129.314C492.844 129.314 493.254 129.197 493.581 128.964C493.908 128.731 494.071 128.432 494.071 128.068C494.071 127.788 493.973 127.569 493.777 127.41C493.59 127.251 493.278 127.13 492.839 127.046L491.719 126.85C491.056 126.729 490.566 126.523 490.249 126.234C489.941 125.945 489.787 125.553 489.787 125.058C489.787 124.666 489.89 124.321 490.095 124.022C490.31 123.723 490.604 123.49 490.977 123.322C491.35 123.145 491.775 123.056 492.251 123.056C492.718 123.056 493.161 123.126 493.581 123.266C494.001 123.397 494.426 123.611 494.855 123.91L494.351 124.624C493.996 124.372 493.642 124.19 493.287 124.078C492.932 123.957 492.573 123.896 492.209 123.896C491.761 123.896 491.402 123.994 491.131 124.19C490.86 124.386 490.725 124.652 490.725 124.988C490.725 125.268 490.809 125.483 490.977 125.632C491.154 125.781 491.462 125.893 491.901 125.968L493.049 126.178C493.74 126.299 494.244 126.509 494.561 126.808C494.878 127.107 495.037 127.508 495.037 128.012C495.037 128.413 494.92 128.777 494.687 129.104C494.454 129.421 494.136 129.673 493.735 129.86C493.334 130.047 492.881 130.14 492.377 130.14ZM496.579 130V123.168H497.601V130H496.579ZM497.097 121.474C496.892 121.474 496.714 121.404 496.565 121.264C496.425 121.115 496.355 120.942 496.355 120.746C496.355 120.55 496.425 120.382 496.565 120.242C496.714 120.093 496.892 120.018 497.097 120.018C497.302 120.018 497.475 120.093 497.615 120.242C497.764 120.382 497.839 120.55 497.839 120.746C497.839 120.942 497.764 121.115 497.615 121.264C497.475 121.404 497.302 121.474 497.097 121.474ZM502.72 130.112C502.086 130.112 501.516 129.958 501.012 129.65C500.508 129.342 500.112 128.922 499.822 128.39C499.533 127.858 499.388 127.256 499.388 126.584C499.388 125.912 499.533 125.31 499.822 124.778C500.112 124.246 500.508 123.826 501.012 123.518C501.516 123.21 502.086 123.056 502.72 123.056C503.346 123.056 503.906 123.21 504.4 123.518C504.904 123.826 505.301 124.246 505.59 124.778C505.88 125.31 506.024 125.912 506.024 126.584C506.024 127.256 505.88 127.858 505.59 128.39C505.301 128.922 504.904 129.342 504.4 129.65C503.906 129.958 503.346 130.112 502.72 130.112ZM502.706 129.216C503.154 129.216 503.551 129.104 503.896 128.88C504.242 128.647 504.512 128.329 504.708 127.928C504.914 127.527 505.016 127.079 505.016 126.584C505.016 126.08 504.914 125.632 504.708 125.24C504.512 124.839 504.242 124.526 503.896 124.302C503.551 124.069 503.154 123.952 502.706 123.952C502.258 123.952 501.862 124.069 501.516 124.302C501.171 124.526 500.896 124.839 500.69 125.24C500.494 125.632 500.396 126.08 500.396 126.584C500.396 127.079 500.494 127.527 500.69 127.928C500.896 128.329 501.171 128.647 501.516 128.88C501.862 129.104 502.258 129.216 502.706 129.216ZM507.818 130V123.168H508.84V124.274C509.101 123.863 509.414 123.56 509.778 123.364C510.142 123.159 510.552 123.056 511.01 123.056C511.504 123.056 511.934 123.163 512.298 123.378C512.671 123.583 512.96 123.877 513.166 124.26C513.38 124.633 513.488 125.072 513.488 125.576V130H512.466V125.87C512.466 125.263 512.298 124.787 511.962 124.442C511.635 124.087 511.192 123.91 510.632 123.91C510.258 123.91 509.918 123.999 509.61 124.176C509.302 124.353 509.045 124.615 508.84 124.96V130H507.818ZM518.81 130V119.892L519.832 119.682V124.274C520.093 123.863 520.406 123.56 520.77 123.364C521.134 123.159 521.544 123.056 522.002 123.056C522.496 123.056 522.926 123.163 523.29 123.378C523.663 123.583 523.952 123.877 524.158 124.26C524.372 124.633 524.48 125.072 524.48 125.576V130H523.458V125.87C523.458 125.263 523.29 124.787 522.954 124.442C522.627 124.087 522.184 123.91 521.624 123.91C521.25 123.91 520.91 123.999 520.602 124.176C520.294 124.353 520.037 124.615 519.832 124.96V130H518.81ZM528.648 130.126C528.163 130.126 527.734 130.037 527.36 129.86C526.987 129.683 526.693 129.44 526.478 129.132C526.273 128.815 526.17 128.451 526.17 128.04C526.17 127.629 526.278 127.275 526.492 126.976C526.707 126.668 527.006 126.43 527.388 126.262C527.771 126.094 528.219 126.01 528.732 126.01C529.124 126.01 529.493 126.052 529.838 126.136C530.193 126.22 530.52 126.355 530.818 126.542V125.604C530.818 125.044 530.669 124.624 530.37 124.344C530.072 124.055 529.633 123.91 529.054 123.91C528.737 123.91 528.41 123.957 528.074 124.05C527.748 124.143 527.384 124.293 526.982 124.498L526.604 123.714C527.519 123.275 528.378 123.056 529.18 123.056C530.03 123.056 530.683 123.266 531.14 123.686C531.598 124.097 531.826 124.689 531.826 125.464V130H530.818V129.202C530.52 129.51 530.188 129.743 529.824 129.902C529.46 130.051 529.068 130.126 528.648 130.126ZM527.15 128.012C527.15 128.413 527.304 128.735 527.612 128.978C527.93 129.221 528.345 129.342 528.858 129.342C529.241 129.342 529.591 129.277 529.908 129.146C530.235 129.015 530.538 128.819 530.818 128.558V127.242C530.529 127.074 530.23 126.953 529.922 126.878C529.614 126.794 529.269 126.752 528.886 126.752C528.364 126.752 527.944 126.869 527.626 127.102C527.309 127.326 527.15 127.629 527.15 128.012ZM536.018 130.14C535.458 130.14 534.94 130.056 534.464 129.888C533.988 129.711 533.582 129.459 533.246 129.132L533.792 128.46C534.202 128.759 534.58 128.978 534.926 129.118C535.271 129.249 535.626 129.314 535.99 129.314C536.484 129.314 536.895 129.197 537.222 128.964C537.548 128.731 537.712 128.432 537.712 128.068C537.712 127.788 537.614 127.569 537.418 127.41C537.231 127.251 536.918 127.13 536.48 127.046L535.36 126.85C534.697 126.729 534.207 126.523 533.89 126.234C533.582 125.945 533.428 125.553 533.428 125.058C533.428 124.666 533.53 124.321 533.736 124.022C533.95 123.723 534.244 123.49 534.618 123.322C534.991 123.145 535.416 123.056 535.892 123.056C536.358 123.056 536.802 123.126 537.222 123.266C537.642 123.397 538.066 123.611 538.496 123.91L537.992 124.624C537.637 124.372 537.282 124.19 536.928 124.078C536.573 123.957 536.214 123.896 535.85 123.896C535.402 123.896 535.042 123.994 534.772 124.19C534.501 124.386 534.366 124.652 534.366 124.988C534.366 125.268 534.45 125.483 534.618 125.632C534.795 125.781 535.103 125.893 535.542 125.968L536.69 126.178C537.38 126.299 537.884 126.509 538.202 126.808C538.519 127.107 538.678 127.508 538.678 128.012C538.678 128.413 538.561 128.777 538.328 129.104C538.094 129.421 537.777 129.673 537.376 129.86C536.974 130.047 536.522 130.14 536.018 130.14ZM546.581 130.14C545.947 130.14 545.373 129.986 544.859 129.678C544.346 129.361 543.94 128.936 543.641 128.404C543.343 127.863 543.193 127.256 543.193 126.584C543.193 125.912 543.333 125.31 543.613 124.778C543.903 124.246 544.29 123.826 544.775 123.518C545.261 123.21 545.802 123.056 546.399 123.056C547.006 123.056 547.543 123.21 548.009 123.518C548.485 123.817 548.859 124.227 549.129 124.75C549.409 125.263 549.549 125.847 549.549 126.5V126.808H544.187C544.225 127.275 544.351 127.695 544.565 128.068C544.789 128.432 545.079 128.721 545.433 128.936C545.797 129.141 546.194 129.244 546.623 129.244C546.978 129.244 547.319 129.183 547.645 129.062C547.981 128.931 548.266 128.759 548.499 128.544L549.143 129.23C548.751 129.538 548.345 129.767 547.925 129.916C547.505 130.065 547.057 130.14 546.581 130.14ZM544.215 126.08H548.541C548.495 125.669 548.369 125.305 548.163 124.988C547.967 124.661 547.715 124.405 547.407 124.218C547.109 124.031 546.773 123.938 546.399 123.938C546.026 123.938 545.685 124.031 545.377 124.218C545.069 124.395 544.813 124.647 544.607 124.974C544.411 125.291 544.281 125.66 544.215 126.08ZM550.002 130L552.62 126.458L550.156 123.168H551.374L553.264 125.772L555.14 123.168H556.302L553.824 126.486L556.456 130H555.238L553.194 127.214L551.164 130H550.002ZM557.693 132.926V123.168H558.701V124.148C558.962 123.803 559.279 123.541 559.653 123.364C560.035 123.177 560.455 123.084 560.913 123.084C561.51 123.084 562.042 123.243 562.509 123.56C562.985 123.868 563.363 124.288 563.643 124.82C563.923 125.343 564.063 125.931 564.063 126.584C564.063 127.237 563.918 127.83 563.629 128.362C563.349 128.894 562.966 129.319 562.481 129.636C562.005 129.944 561.463 130.098 560.857 130.098C560.427 130.098 560.031 130.019 559.667 129.86C559.303 129.692 558.985 129.454 558.715 129.146V132.926H557.693ZM560.661 129.216C561.118 129.216 561.524 129.104 561.879 128.88C562.243 128.647 562.527 128.334 562.733 127.942C562.947 127.541 563.055 127.093 563.055 126.598C563.055 126.094 562.947 125.646 562.733 125.254C562.527 124.862 562.243 124.554 561.879 124.33C561.524 124.097 561.118 123.98 560.661 123.98C560.259 123.98 559.886 124.064 559.541 124.232C559.205 124.391 558.929 124.619 558.715 124.918V128.264C558.939 128.563 559.219 128.796 559.555 128.964C559.9 129.132 560.269 129.216 560.661 129.216ZM565.841 130V123.168H566.863V130H565.841ZM566.359 121.474C566.153 121.474 565.976 121.404 565.827 121.264C565.687 121.115 565.617 120.942 565.617 120.746C565.617 120.55 565.687 120.382 565.827 120.242C565.976 120.093 566.153 120.018 566.359 120.018C566.564 120.018 566.737 120.093 566.877 120.242C567.026 120.382 567.101 120.55 567.101 120.746C567.101 120.942 567.026 121.115 566.877 121.264C566.737 121.404 566.564 121.474 566.359 121.474ZM568.958 130V123.168H569.98V124.568C570.158 124.092 570.41 123.723 570.736 123.462C571.072 123.191 571.455 123.056 571.884 123.056C572.006 123.056 572.118 123.065 572.22 123.084C572.323 123.093 572.426 123.117 572.528 123.154V124.078C572.416 124.041 572.295 124.013 572.164 123.994C572.043 123.966 571.926 123.952 571.814 123.952C571.394 123.952 571.026 124.073 570.708 124.316C570.4 124.559 570.158 124.899 569.98 125.338V130H568.958ZM576.536 130.14C575.902 130.14 575.328 129.986 574.814 129.678C574.301 129.361 573.895 128.936 573.596 128.404C573.298 127.863 573.148 127.256 573.148 126.584C573.148 125.912 573.288 125.31 573.568 124.778C573.858 124.246 574.245 123.826 574.73 123.518C575.216 123.21 575.757 123.056 576.354 123.056C576.961 123.056 577.498 123.21 577.964 123.518C578.44 123.817 578.814 124.227 579.084 124.75C579.364 125.263 579.504 125.847 579.504 126.5V126.808H574.142C574.18 127.275 574.306 127.695 574.52 128.068C574.744 128.432 575.034 128.721 575.388 128.936C575.752 129.141 576.149 129.244 576.578 129.244C576.933 129.244 577.274 129.183 577.6 129.062C577.936 128.931 578.221 128.759 578.454 128.544L579.098 129.23C578.706 129.538 578.3 129.767 577.88 129.916C577.46 130.065 577.012 130.14 576.536 130.14ZM574.17 126.08H578.496C578.45 125.669 578.324 125.305 578.118 124.988C577.922 124.661 577.67 124.405 577.362 124.218C577.064 124.031 576.728 123.938 576.354 123.938C575.981 123.938 575.64 124.031 575.332 124.218C575.024 124.395 574.768 124.647 574.562 124.974C574.366 125.291 574.236 125.66 574.17 126.08ZM584.091 130.098C583.503 130.098 582.971 129.944 582.495 129.636C582.019 129.319 581.641 128.899 581.361 128.376C581.081 127.844 580.941 127.251 580.941 126.598C580.941 125.935 581.081 125.343 581.361 124.82C581.651 124.288 582.038 123.868 582.523 123.56C583.009 123.243 583.55 123.084 584.147 123.084C584.567 123.084 584.959 123.168 585.323 123.336C585.687 123.495 586.005 123.728 586.275 124.036V119.892L587.297 119.682V130H586.275V129.09C586.014 129.417 585.697 129.669 585.323 129.846C584.95 130.014 584.539 130.098 584.091 130.098ZM584.343 129.202C584.745 129.202 585.113 129.123 585.449 128.964C585.785 128.805 586.061 128.581 586.275 128.292V124.904C586.051 124.615 585.767 124.391 585.421 124.232C585.085 124.064 584.726 123.98 584.343 123.98C583.886 123.98 583.475 124.092 583.111 124.316C582.757 124.54 582.472 124.848 582.257 125.24C582.052 125.632 581.949 126.08 581.949 126.584C581.949 127.079 582.052 127.527 582.257 127.928C582.472 128.32 582.757 128.633 583.111 128.866C583.475 129.09 583.886 129.202 584.343 129.202ZM594.779 130.126C594.294 130.126 593.865 130.037 593.491 129.86C593.118 129.683 592.824 129.44 592.609 129.132C592.404 128.815 592.301 128.451 592.301 128.04C592.301 127.629 592.409 127.275 592.623 126.976C592.838 126.668 593.137 126.43 593.519 126.262C593.902 126.094 594.35 126.01 594.863 126.01C595.255 126.01 595.624 126.052 595.969 126.136C596.324 126.22 596.651 126.355 596.949 126.542V125.604C596.949 125.044 596.8 124.624 596.501 124.344C596.203 124.055 595.764 123.91 595.185 123.91C594.868 123.91 594.541 123.957 594.205 124.05C593.879 124.143 593.515 124.293 593.113 124.498L592.735 123.714C593.65 123.275 594.509 123.056 595.311 123.056C596.161 123.056 596.814 123.266 597.271 123.686C597.729 124.097 597.957 124.689 597.957 125.464V130H596.949V129.202C596.651 129.51 596.319 129.743 595.955 129.902C595.591 130.051 595.199 130.126 594.779 130.126ZM593.281 128.012C593.281 128.413 593.435 128.735 593.743 128.978C594.061 129.221 594.476 129.342 594.989 129.342C595.372 129.342 595.722 129.277 596.039 129.146C596.366 129.015 596.669 128.819 596.949 128.558V127.242C596.66 127.074 596.361 126.953 596.053 126.878C595.745 126.794 595.4 126.752 595.017 126.752C594.495 126.752 594.075 126.869 593.757 127.102C593.44 127.326 593.281 127.629 593.281 128.012ZM600.034 130V123.168H601.056V124.274C601.318 123.863 601.63 123.56 601.994 123.364C602.358 123.159 602.769 123.056 603.226 123.056C603.721 123.056 604.15 123.163 604.514 123.378C604.888 123.583 605.177 123.877 605.382 124.26C605.597 124.633 605.704 125.072 605.704 125.576V130H604.682V125.87C604.682 125.263 604.514 124.787 604.178 124.442C603.852 124.087 603.408 123.91 602.848 123.91C602.475 123.91 602.134 123.999 601.826 124.176C601.518 124.353 601.262 124.615 601.056 124.96V130H600.034ZM610.601 130.098C610.013 130.098 609.481 129.944 609.005 129.636C608.529 129.319 608.151 128.899 607.871 128.376C607.591 127.844 607.451 127.251 607.451 126.598C607.451 125.935 607.591 125.343 607.871 124.82C608.16 124.288 608.548 123.868 609.033 123.56C609.518 123.243 610.06 123.084 610.657 123.084C611.077 123.084 611.469 123.168 611.833 123.336C612.197 123.495 612.514 123.728 612.785 124.036V119.892L613.807 119.682V130H612.785V129.09C612.524 129.417 612.206 129.669 611.833 129.846C611.46 130.014 611.049 130.098 610.601 130.098ZM610.853 129.202C611.254 129.202 611.623 129.123 611.959 128.964C612.295 128.805 612.57 128.581 612.785 128.292V124.904C612.561 124.615 612.276 124.391 611.931 124.232C611.595 124.064 611.236 123.98 610.853 123.98C610.396 123.98 609.985 124.092 609.621 124.316C609.266 124.54 608.982 124.848 608.767 125.24C608.562 125.632 608.459 126.08 608.459 126.584C608.459 127.079 608.562 127.527 608.767 127.928C608.982 128.32 609.266 128.633 609.621 128.866C609.985 129.09 610.396 129.202 610.853 129.202ZM619.469 133.066C619.254 133.066 619.035 133.033 618.811 132.968V132.058C618.904 132.077 619.002 132.091 619.105 132.1C619.208 132.109 619.296 132.114 619.371 132.114C619.632 132.114 619.847 132.044 620.015 131.904C620.192 131.764 620.342 131.545 620.463 131.246L620.967 130L618.335 123.168H619.469L621.541 128.782L623.739 123.168H624.873L621.429 131.554C621.28 131.918 621.116 132.212 620.939 132.436C620.762 132.66 620.556 132.819 620.323 132.912C620.09 133.015 619.805 133.066 619.469 133.066ZM628.967 130.112C628.332 130.112 627.763 129.958 627.259 129.65C626.755 129.342 626.358 128.922 626.069 128.39C625.779 127.858 625.635 127.256 625.635 126.584C625.635 125.912 625.779 125.31 626.069 124.778C626.358 124.246 626.755 123.826 627.259 123.518C627.763 123.21 628.332 123.056 628.967 123.056C629.592 123.056 630.152 123.21 630.647 123.518C631.151 123.826 631.547 124.246 631.837 124.778C632.126 125.31 632.271 125.912 632.271 126.584C632.271 127.256 632.126 127.858 631.837 128.39C631.547 128.922 631.151 129.342 630.647 129.65C630.152 129.958 629.592 130.112 628.967 130.112ZM628.953 129.216C629.401 129.216 629.797 129.104 630.143 128.88C630.488 128.647 630.759 128.329 630.955 127.928C631.16 127.527 631.263 127.079 631.263 126.584C631.263 126.08 631.16 125.632 630.955 125.24C630.759 124.839 630.488 124.526 630.143 124.302C629.797 124.069 629.401 123.952 628.953 123.952C628.505 123.952 628.108 124.069 627.763 124.302C627.417 124.526 627.142 124.839 626.937 125.24C626.741 125.632 626.643 126.08 626.643 126.584C626.643 127.079 626.741 127.527 626.937 127.928C627.142 128.329 627.417 128.647 627.763 128.88C628.108 129.104 628.505 129.216 628.953 129.216ZM636.5 130.112C636.014 130.112 635.585 130.005 635.212 129.79C634.838 129.575 634.544 129.277 634.33 128.894C634.124 128.511 634.022 128.073 634.022 127.578V123.168H635.058V127.284C635.058 127.891 635.221 128.371 635.548 128.726C635.874 129.081 636.318 129.258 636.878 129.258C637.26 129.258 637.601 129.169 637.9 128.992C638.208 128.815 638.464 128.558 638.67 128.222V123.168H639.692V130H638.67V128.894C638.408 129.295 638.096 129.599 637.732 129.804C637.377 130.009 636.966 130.112 636.5 130.112ZM645.056 130V119.892L646.078 119.682V124.274C646.339 123.863 646.652 123.56 647.016 123.364C647.38 123.159 647.791 123.056 648.248 123.056C648.743 123.056 649.172 123.163 649.536 123.378C649.909 123.583 650.199 123.877 650.404 124.26C650.619 124.633 650.726 125.072 650.726 125.576V130H649.704V125.87C649.704 125.263 649.536 124.787 649.2 124.442C648.873 124.087 648.43 123.91 647.87 123.91C647.497 123.91 647.156 123.999 646.848 124.176C646.54 124.353 646.283 124.615 646.078 124.96V130H645.056ZM654.894 130.126C654.409 130.126 653.98 130.037 653.606 129.86C653.233 129.683 652.939 129.44 652.724 129.132C652.519 128.815 652.416 128.451 652.416 128.04C652.416 127.629 652.524 127.275 652.738 126.976C652.953 126.668 653.252 126.43 653.634 126.262C654.017 126.094 654.465 126.01 654.978 126.01C655.37 126.01 655.739 126.052 656.084 126.136C656.439 126.22 656.766 126.355 657.064 126.542V125.604C657.064 125.044 656.915 124.624 656.616 124.344C656.318 124.055 655.879 123.91 655.3 123.91C654.983 123.91 654.656 123.957 654.32 124.05C653.994 124.143 653.63 124.293 653.228 124.498L652.85 123.714C653.765 123.275 654.624 123.056 655.426 123.056C656.276 123.056 656.929 123.266 657.386 123.686C657.844 124.097 658.072 124.689 658.072 125.464V130H657.064V129.202C656.766 129.51 656.434 129.743 656.07 129.902C655.706 130.051 655.314 130.126 654.894 130.126ZM653.396 128.012C653.396 128.413 653.55 128.735 653.858 128.978C654.176 129.221 654.591 129.342 655.104 129.342C655.487 129.342 655.837 129.277 656.154 129.146C656.481 129.015 656.784 128.819 657.064 128.558V127.242C656.775 127.074 656.476 126.953 656.168 126.878C655.86 126.794 655.515 126.752 655.132 126.752C654.61 126.752 654.19 126.869 653.872 127.102C653.555 127.326 653.396 127.629 653.396 128.012ZM661.836 130L659.036 123.168H660.142L662.354 128.726L664.538 123.168H665.63L662.816 130H661.836ZM669.765 130.14C669.13 130.14 668.556 129.986 668.043 129.678C667.529 129.361 667.123 128.936 666.825 128.404C666.526 127.863 666.377 127.256 666.377 126.584C666.377 125.912 666.517 125.31 666.797 124.778C667.086 124.246 667.473 123.826 667.959 123.518C668.444 123.21 668.985 123.056 669.583 123.056C670.189 123.056 670.726 123.21 671.193 123.518C671.669 123.817 672.042 124.227 672.313 124.75C672.593 125.263 672.733 125.847 672.733 126.5V126.808H667.371C667.408 127.275 667.534 127.695 667.749 128.068C667.973 128.432 668.262 128.721 668.617 128.936C668.981 129.141 669.377 129.244 669.807 129.244C670.161 129.244 670.502 129.183 670.829 129.062C671.165 128.931 671.449 128.759 671.683 128.544L672.327 129.23C671.935 129.538 671.529 129.767 671.109 129.916C670.689 130.065 670.241 130.14 669.765 130.14ZM667.399 126.08H671.725C671.678 125.669 671.552 125.305 671.347 124.988C671.151 124.661 670.899 124.405 670.591 124.218C670.292 124.031 669.956 123.938 669.583 123.938C669.209 123.938 668.869 124.031 668.561 124.218C668.253 124.395 667.996 124.647 667.791 124.974C667.595 125.291 667.464 125.66 667.399 126.08ZM677.745 130V119.99L678.767 119.78V124.106C679.029 123.779 679.346 123.527 679.719 123.35C680.093 123.173 680.508 123.084 680.965 123.084C681.563 123.084 682.095 123.243 682.561 123.56C683.037 123.868 683.415 124.288 683.695 124.82C683.975 125.343 684.115 125.931 684.115 126.584C684.115 127.237 683.971 127.83 683.681 128.362C683.401 128.894 683.019 129.319 682.533 129.636C682.057 129.944 681.516 130.098 680.909 130.098C680.48 130.098 680.079 130.014 679.705 129.846C679.341 129.669 679.024 129.421 678.753 129.104V130H677.745ZM680.713 129.216C681.171 129.216 681.577 129.104 681.931 128.88C682.295 128.647 682.58 128.334 682.785 127.942C683 127.541 683.107 127.093 683.107 126.598C683.107 126.094 683 125.646 682.785 125.254C682.58 124.862 682.295 124.554 681.931 124.33C681.577 124.097 681.171 123.98 680.713 123.98C680.312 123.98 679.939 124.064 679.593 124.232C679.257 124.391 678.982 124.619 678.767 124.918V128.264C678.991 128.563 679.271 128.796 679.607 128.964C679.953 129.132 680.321 129.216 680.713 129.216ZM688.987 130.14C688.353 130.14 687.779 129.986 687.265 129.678C686.752 129.361 686.346 128.936 686.047 128.404C685.749 127.863 685.599 127.256 685.599 126.584C685.599 125.912 685.739 125.31 686.019 124.778C686.309 124.246 686.696 123.826 687.181 123.518C687.667 123.21 688.208 123.056 688.805 123.056C689.412 123.056 689.949 123.21 690.415 123.518C690.891 123.817 691.265 124.227 691.535 124.75C691.815 125.263 691.955 125.847 691.955 126.5V126.808H686.593C686.631 127.275 686.757 127.695 686.971 128.068C687.195 128.432 687.485 128.721 687.839 128.936C688.203 129.141 688.6 129.244 689.029 129.244C689.384 129.244 689.725 129.183 690.051 129.062C690.387 128.931 690.672 128.759 690.905 128.544L691.549 129.23C691.157 129.538 690.751 129.767 690.331 129.916C689.911 130.065 689.463 130.14 688.987 130.14ZM686.621 126.08H690.947C690.901 125.669 690.775 125.305 690.569 124.988C690.373 124.661 690.121 124.405 689.813 124.218C689.515 124.031 689.179 123.938 688.805 123.938C688.432 123.938 688.091 124.031 687.783 124.218C687.475 124.395 687.219 124.647 687.013 124.974C686.817 125.291 686.687 125.66 686.621 126.08ZM696.78 130.14C696.146 130.14 695.572 129.986 695.058 129.678C694.545 129.361 694.139 128.936 693.84 128.404C693.542 127.863 693.392 127.256 693.392 126.584C693.392 125.912 693.532 125.31 693.812 124.778C694.102 124.246 694.489 123.826 694.974 123.518C695.46 123.21 696.001 123.056 696.598 123.056C697.205 123.056 697.742 123.21 698.208 123.518C698.684 123.817 699.058 124.227 699.328 124.75C699.608 125.263 699.748 125.847 699.748 126.5V126.808H694.386C694.424 127.275 694.55 127.695 694.764 128.068C694.988 128.432 695.278 128.721 695.632 128.936C695.996 129.141 696.393 129.244 696.822 129.244C697.177 129.244 697.518 129.183 697.844 129.062C698.18 128.931 698.465 128.759 698.698 128.544L699.342 129.23C698.95 129.538 698.544 129.767 698.124 129.916C697.704 130.065 697.256 130.14 696.78 130.14ZM694.414 126.08H698.74C698.694 125.669 698.568 125.305 698.362 124.988C698.166 124.661 697.914 124.405 697.606 124.218C697.308 124.031 696.972 123.938 696.598 123.938C696.225 123.938 695.884 124.031 695.576 124.218C695.268 124.395 695.012 124.647 694.806 124.974C694.61 125.291 694.48 125.66 694.414 126.08ZM701.493 130V123.168H702.515V124.274C702.777 123.863 703.089 123.56 703.453 123.364C703.817 123.159 704.228 123.056 704.685 123.056C705.18 123.056 705.609 123.163 705.973 123.378C706.347 123.583 706.636 123.877 706.841 124.26C707.056 124.633 707.163 125.072 707.163 125.576V130H706.141V125.87C706.141 125.263 705.973 124.787 705.637 124.442C705.311 124.087 704.867 123.91 704.307 123.91C703.934 123.91 703.593 123.999 703.285 124.176C702.977 124.353 702.721 124.615 702.515 124.96V130H701.493ZM712.486 130V119.892L713.508 119.682V130H712.486ZM718.627 130.112C717.992 130.112 717.423 129.958 716.919 129.65C716.415 129.342 716.018 128.922 715.729 128.39C715.439 127.858 715.295 127.256 715.295 126.584C715.295 125.912 715.439 125.31 715.729 124.778C716.018 124.246 716.415 123.826 716.919 123.518C717.423 123.21 717.992 123.056 718.627 123.056C719.252 123.056 719.812 123.21 720.307 123.518C720.811 123.826 721.207 124.246 721.497 124.778C721.786 125.31 721.931 125.912 721.931 126.584C721.931 127.256 721.786 127.858 721.497 128.39C721.207 128.922 720.811 129.342 720.307 129.65C719.812 129.958 719.252 130.112 718.627 130.112ZM718.613 129.216C719.061 129.216 719.457 129.104 719.803 128.88C720.148 128.647 720.419 128.329 720.615 127.928C720.82 127.527 720.923 127.079 720.923 126.584C720.923 126.08 720.82 125.632 720.615 125.24C720.419 124.839 720.148 124.526 719.803 124.302C719.457 124.069 719.061 123.952 718.613 123.952C718.165 123.952 717.768 124.069 717.423 124.302C717.077 124.526 716.802 124.839 716.597 125.24C716.401 125.632 716.303 126.08 716.303 126.584C716.303 127.079 716.401 127.527 716.597 127.928C716.802 128.329 717.077 128.647 717.423 128.88C717.768 129.104 718.165 129.216 718.613 129.216ZM726.888 133.066C726.43 133.066 725.968 133.001 725.502 132.87C725.044 132.749 724.62 132.576 724.228 132.352L724.662 131.568C725.082 131.783 725.464 131.941 725.81 132.044C726.155 132.147 726.5 132.198 726.846 132.198C727.471 132.198 727.942 132.049 728.26 131.75C728.586 131.451 728.75 131.017 728.75 130.448V129.076C728.488 129.403 728.171 129.655 727.798 129.832C727.424 130 727.014 130.084 726.566 130.084C725.978 130.084 725.446 129.93 724.97 129.622C724.494 129.305 724.116 128.885 723.836 128.362C723.556 127.83 723.416 127.237 723.416 126.584C723.416 125.931 723.556 125.343 723.836 124.82C724.125 124.288 724.512 123.868 724.998 123.56C725.483 123.243 726.024 123.084 726.622 123.084C727.051 123.084 727.448 123.168 727.812 123.336C728.176 123.495 728.493 123.733 728.764 124.05V123.168H729.772V130.434C729.772 131.283 729.524 131.932 729.03 132.38C728.535 132.837 727.821 133.066 726.888 133.066ZM726.818 129.202C727.219 129.202 727.588 129.123 727.924 128.964C728.26 128.796 728.535 128.567 728.75 128.278V124.904C728.526 124.615 728.241 124.391 727.896 124.232C727.56 124.064 727.2 123.98 726.818 123.98C726.36 123.98 725.95 124.092 725.586 124.316C725.231 124.54 724.946 124.848 724.732 125.24C724.526 125.632 724.424 126.08 724.424 126.584C724.424 127.079 724.526 127.527 724.732 127.928C724.946 128.32 725.231 128.633 725.586 128.866C725.95 129.09 726.36 129.202 726.818 129.202ZM735.036 133.066C734.579 133.066 734.117 133.001 733.65 132.87C733.193 132.749 732.768 132.576 732.376 132.352L732.81 131.568C733.23 131.783 733.613 131.941 733.958 132.044C734.304 132.147 734.649 132.198 734.994 132.198C735.62 132.198 736.091 132.049 736.408 131.75C736.735 131.451 736.898 131.017 736.898 130.448V129.076C736.637 129.403 736.32 129.655 735.946 129.832C735.573 130 735.162 130.084 734.714 130.084C734.126 130.084 733.594 129.93 733.118 129.622C732.642 129.305 732.264 128.885 731.984 128.362C731.704 127.83 731.564 127.237 731.564 126.584C731.564 125.931 731.704 125.343 731.984 124.82C732.274 124.288 732.661 123.868 733.146 123.56C733.632 123.243 734.173 123.084 734.77 123.084C735.2 123.084 735.596 123.168 735.96 123.336C736.324 123.495 736.642 123.733 736.912 124.05V123.168H737.92V130.434C737.92 131.283 737.673 131.932 737.178 132.38C736.684 132.837 735.97 133.066 735.036 133.066ZM734.966 129.202C735.368 129.202 735.736 129.123 736.072 128.964C736.408 128.796 736.684 128.567 736.898 128.278V124.904C736.674 124.615 736.39 124.391 736.044 124.232C735.708 124.064 735.349 123.98 734.966 123.98C734.509 123.98 734.098 124.092 733.734 124.316C733.38 124.54 733.095 124.848 732.88 125.24C732.675 125.632 732.572 126.08 732.572 126.584C732.572 127.079 732.675 127.527 732.88 127.928C733.095 128.32 733.38 128.633 733.734 128.866C734.098 129.09 734.509 129.202 734.966 129.202ZM743.101 130.14C742.466 130.14 741.892 129.986 741.379 129.678C740.865 129.361 740.459 128.936 740.161 128.404C739.862 127.863 739.713 127.256 739.713 126.584C739.713 125.912 739.853 125.31 740.133 124.778C740.422 124.246 740.809 123.826 741.295 123.518C741.78 123.21 742.321 123.056 742.919 123.056C743.525 123.056 744.062 123.21 744.529 123.518C745.005 123.817 745.378 124.227 745.649 124.75C745.929 125.263 746.069 125.847 746.069 126.5V126.808H740.707C740.744 127.275 740.87 127.695 741.085 128.068C741.309 128.432 741.598 128.721 741.953 128.936C742.317 129.141 742.713 129.244 743.143 129.244C743.497 129.244 743.838 129.183 744.165 129.062C744.501 128.931 744.785 128.759 745.019 128.544L745.663 129.23C745.271 129.538 744.865 129.767 744.445 129.916C744.025 130.065 743.577 130.14 743.101 130.14ZM740.735 126.08H745.061C745.014 125.669 744.888 125.305 744.683 124.988C744.487 124.661 744.235 124.405 743.927 124.218C743.628 124.031 743.292 123.938 742.919 123.938C742.545 123.938 742.205 124.031 741.897 124.218C741.589 124.395 741.332 124.647 741.127 124.974C740.931 125.291 740.8 125.66 740.735 126.08ZM750.656 130.098C750.068 130.098 749.536 129.944 749.06 129.636C748.584 129.319 748.206 128.899 747.926 128.376C747.646 127.844 747.506 127.251 747.506 126.598C747.506 125.935 747.646 125.343 747.926 124.82C748.215 124.288 748.602 123.868 749.088 123.56C749.573 123.243 750.114 123.084 750.712 123.084C751.132 123.084 751.524 123.168 751.888 123.336C752.252 123.495 752.569 123.728 752.84 124.036V119.892L753.862 119.682V130H752.84V129.09C752.578 129.417 752.261 129.669 751.888 129.846C751.514 130.014 751.104 130.098 750.656 130.098ZM750.908 129.202C751.309 129.202 751.678 129.123 752.014 128.964C752.35 128.805 752.625 128.581 752.84 128.292V124.904C752.616 124.615 752.331 124.391 751.986 124.232C751.65 124.064 751.29 123.98 750.908 123.98C750.45 123.98 750.04 124.092 749.676 124.316C749.321 124.54 749.036 124.848 748.822 125.24C748.616 125.632 748.514 126.08 748.514 126.584C748.514 127.079 748.616 127.527 748.822 127.928C749.036 128.32 749.321 128.633 749.676 128.866C750.04 129.09 750.45 129.202 750.908 129.202ZM762.254 130.112C761.619 130.112 761.05 129.958 760.546 129.65C760.042 129.342 759.645 128.922 759.356 128.39C759.066 127.858 758.922 127.256 758.922 126.584C758.922 125.912 759.066 125.31 759.356 124.778C759.645 124.246 760.042 123.826 760.546 123.518C761.05 123.21 761.619 123.056 762.254 123.056C762.879 123.056 763.439 123.21 763.934 123.518C764.438 123.826 764.834 124.246 765.124 124.778C765.413 125.31 765.558 125.912 765.558 126.584C765.558 127.256 765.413 127.858 765.124 128.39C764.834 128.922 764.438 129.342 763.934 129.65C763.439 129.958 762.879 130.112 762.254 130.112ZM762.24 129.216C762.688 129.216 763.084 129.104 763.43 128.88C763.775 128.647 764.046 128.329 764.242 127.928C764.447 127.527 764.55 127.079 764.55 126.584C764.55 126.08 764.447 125.632 764.242 125.24C764.046 124.839 763.775 124.526 763.43 124.302C763.084 124.069 762.688 123.952 762.24 123.952C761.792 123.952 761.395 124.069 761.05 124.302C760.704 124.526 760.429 124.839 760.224 125.24C760.028 125.632 759.93 126.08 759.93 126.584C759.93 127.079 760.028 127.527 760.224 127.928C760.429 128.329 760.704 128.647 761.05 128.88C761.395 129.104 761.792 129.216 762.24 129.216ZM769.787 130.112C769.301 130.112 768.872 130.005 768.499 129.79C768.125 129.575 767.831 129.277 767.617 128.894C767.411 128.511 767.309 128.073 767.309 127.578V123.168H768.345V127.284C768.345 127.891 768.508 128.371 768.835 128.726C769.161 129.081 769.605 129.258 770.165 129.258C770.547 129.258 770.888 129.169 771.187 128.992C771.495 128.815 771.751 128.558 771.957 128.222V123.168H772.979V130H771.957V128.894C771.695 129.295 771.383 129.599 771.019 129.804C770.664 130.009 770.253 130.112 769.787 130.112ZM777.679 130.14C777.091 130.14 776.643 130 776.335 129.72C776.037 129.431 775.887 129.015 775.887 128.474V124.008H774.473V123.168H775.887V121.292L776.909 121.054V123.168H778.869V124.008H776.909V128.208C776.909 128.572 776.984 128.833 777.133 128.992C777.292 129.151 777.549 129.23 777.903 129.23C778.081 129.23 778.239 129.216 778.379 129.188C778.519 129.16 778.683 129.113 778.869 129.048V129.958C778.683 130.023 778.487 130.07 778.281 130.098C778.076 130.126 777.875 130.14 777.679 130.14ZM786.476 130.098C785.888 130.098 785.356 129.944 784.88 129.636C784.404 129.319 784.026 128.899 783.746 128.376C783.466 127.844 783.326 127.251 783.326 126.598C783.326 125.935 783.466 125.343 783.746 124.82C784.035 124.288 784.423 123.868 784.908 123.56C785.393 123.243 785.935 123.084 786.532 123.084C786.952 123.084 787.344 123.168 787.708 123.336C788.072 123.495 788.389 123.728 788.66 124.036V119.892L789.682 119.682V130H788.66V129.09C788.399 129.417 788.081 129.669 787.708 129.846C787.335 130.014 786.924 130.098 786.476 130.098ZM786.728 129.202C787.129 129.202 787.498 129.123 787.834 128.964C788.17 128.805 788.445 128.581 788.66 128.292V124.904C788.436 124.615 788.151 124.391 787.806 124.232C787.47 124.064 787.111 123.98 786.728 123.98C786.271 123.98 785.86 124.092 785.496 124.316C785.141 124.54 784.857 124.848 784.642 125.24C784.437 125.632 784.334 126.08 784.334 126.584C784.334 127.079 784.437 127.527 784.642 127.928C784.857 128.32 785.141 128.633 785.496 128.866C785.86 129.09 786.271 129.202 786.728 129.202ZM794.218 130.112C793.733 130.112 793.304 130.005 792.93 129.79C792.557 129.575 792.263 129.277 792.048 128.894C791.843 128.511 791.74 128.073 791.74 127.578V123.168H792.776V127.284C792.776 127.891 792.94 128.371 793.266 128.726C793.593 129.081 794.036 129.258 794.596 129.258C794.979 129.258 795.32 129.169 795.618 128.992C795.926 128.815 796.183 128.558 796.388 128.222V123.168H797.41V130H796.388V128.894C796.127 129.295 795.814 129.599 795.45 129.804C795.096 130.009 794.685 130.112 794.218 130.112ZM802.587 130.14C801.952 130.14 801.378 129.986 800.865 129.678C800.352 129.361 799.946 128.936 799.647 128.404C799.348 127.863 799.199 127.256 799.199 126.584C799.199 125.912 799.339 125.31 799.619 124.778C799.908 124.246 800.296 123.826 800.781 123.518C801.266 123.21 801.808 123.056 802.405 123.056C803.012 123.056 803.548 123.21 804.015 123.518C804.491 123.817 804.864 124.227 805.135 124.75C805.415 125.263 805.555 125.847 805.555 126.5V126.808H800.193C800.23 127.275 800.356 127.695 800.571 128.068C800.795 128.432 801.084 128.721 801.439 128.936C801.803 129.141 802.2 129.244 802.629 129.244C802.984 129.244 803.324 129.183 803.651 129.062C803.987 128.931 804.272 128.759 804.505 128.544L805.149 129.23C804.757 129.538 804.351 129.767 803.931 129.916C803.511 130.065 803.063 130.14 802.587 130.14ZM800.221 126.08H804.547C804.5 125.669 804.374 125.305 804.169 124.988C803.973 124.661 803.721 124.405 803.413 124.218C803.114 124.031 802.778 123.938 802.405 123.938C802.032 123.938 801.691 124.031 801.383 124.218C801.075 124.395 800.818 124.647 800.613 124.974C800.417 125.291 800.286 125.66 800.221 126.08ZM813.172 130.14C812.584 130.14 812.136 130 811.828 129.72C811.529 129.431 811.38 129.015 811.38 128.474V124.008H809.966V123.168H811.38V121.292L812.402 121.054V123.168H814.362V124.008H812.402V128.208C812.402 128.572 812.476 128.833 812.626 128.992C812.784 129.151 813.041 129.23 813.396 129.23C813.573 129.23 813.732 129.216 813.872 129.188C814.012 129.16 814.175 129.113 814.362 129.048V129.958C814.175 130.023 813.979 130.07 813.774 130.098C813.568 130.126 813.368 130.14 813.172 130.14ZM818.746 130.112C818.111 130.112 817.542 129.958 817.038 129.65C816.534 129.342 816.137 128.922 815.848 128.39C815.559 127.858 815.414 127.256 815.414 126.584C815.414 125.912 815.559 125.31 815.848 124.778C816.137 124.246 816.534 123.826 817.038 123.518C817.542 123.21 818.111 123.056 818.746 123.056C819.371 123.056 819.931 123.21 820.426 123.518C820.93 123.826 821.327 124.246 821.616 124.778C821.905 125.31 822.05 125.912 822.05 126.584C822.05 127.256 821.905 127.858 821.616 128.39C821.327 128.922 820.93 129.342 820.426 129.65C819.931 129.958 819.371 130.112 818.746 130.112ZM818.732 129.216C819.18 129.216 819.577 129.104 819.922 128.88C820.267 128.647 820.538 128.329 820.734 127.928C820.939 127.527 821.042 127.079 821.042 126.584C821.042 126.08 820.939 125.632 820.734 125.24C820.538 124.839 820.267 124.526 819.922 124.302C819.577 124.069 819.18 123.952 818.732 123.952C818.284 123.952 817.887 124.069 817.542 124.302C817.197 124.526 816.921 124.839 816.716 125.24C816.52 125.632 816.422 126.08 816.422 126.584C816.422 127.079 816.52 127.527 816.716 127.928C816.921 128.329 817.197 128.647 817.542 128.88C817.887 129.104 818.284 129.216 818.732 129.216ZM438.036 151V144.168H439.058V151H438.036ZM438.554 142.474C438.349 142.474 438.171 142.404 438.022 142.264C437.882 142.115 437.812 141.942 437.812 141.746C437.812 141.55 437.882 141.382 438.022 141.242C438.171 141.093 438.349 141.018 438.554 141.018C438.759 141.018 438.932 141.093 439.072 141.242C439.221 141.382 439.296 141.55 439.296 141.746C439.296 141.942 439.221 142.115 439.072 142.264C438.932 142.404 438.759 142.474 438.554 142.474ZM441.154 151V144.168H442.176V145.274C442.437 144.863 442.75 144.56 443.114 144.364C443.478 144.159 443.888 144.056 444.346 144.056C444.84 144.056 445.27 144.163 445.634 144.378C446.007 144.583 446.296 144.877 446.502 145.26C446.716 145.633 446.824 146.072 446.824 146.576V151H445.802V146.87C445.802 146.263 445.634 145.787 445.298 145.442C444.971 145.087 444.528 144.91 443.968 144.91C443.594 144.91 443.254 144.999 442.946 145.176C442.638 145.353 442.381 145.615 442.176 145.96V151H441.154ZM450.992 151.126C450.507 151.126 450.077 151.037 449.704 150.86C449.331 150.683 449.037 150.44 448.822 150.132C448.617 149.815 448.514 149.451 448.514 149.04C448.514 148.629 448.621 148.275 448.836 147.976C449.051 147.668 449.349 147.43 449.732 147.262C450.115 147.094 450.563 147.01 451.076 147.01C451.468 147.01 451.837 147.052 452.182 147.136C452.537 147.22 452.863 147.355 453.162 147.542V146.604C453.162 146.044 453.013 145.624 452.714 145.344C452.415 145.055 451.977 144.91 451.398 144.91C451.081 144.91 450.754 144.957 450.418 145.05C450.091 145.143 449.727 145.293 449.326 145.498L448.948 144.714C449.863 144.275 450.721 144.056 451.524 144.056C452.373 144.056 453.027 144.266 453.484 144.686C453.941 145.097 454.17 145.689 454.17 146.464V151H453.162V150.202C452.863 150.51 452.532 150.743 452.168 150.902C451.804 151.051 451.412 151.126 450.992 151.126ZM449.494 149.012C449.494 149.413 449.648 149.735 449.956 149.978C450.273 150.221 450.689 150.342 451.202 150.342C451.585 150.342 451.935 150.277 452.252 150.146C452.579 150.015 452.882 149.819 453.162 149.558V148.242C452.873 148.074 452.574 147.953 452.266 147.878C451.958 147.794 451.613 147.752 451.23 147.752C450.707 147.752 450.287 147.869 449.97 148.102C449.653 148.326 449.494 148.629 449.494 149.012ZM459.313 151.112C458.679 151.112 458.105 150.958 457.591 150.65C457.087 150.333 456.686 149.908 456.387 149.376C456.089 148.835 455.939 148.237 455.939 147.584C455.939 146.921 456.089 146.324 456.387 145.792C456.686 145.26 457.087 144.84 457.591 144.532C458.105 144.215 458.679 144.056 459.313 144.056C459.817 144.056 460.298 144.149 460.755 144.336C461.213 144.523 461.609 144.784 461.945 145.12L461.287 145.834C461.045 145.563 460.751 145.353 460.405 145.204C460.06 145.055 459.71 144.98 459.355 144.98C458.907 144.98 458.501 145.097 458.137 145.33C457.783 145.563 457.498 145.876 457.283 146.268C457.069 146.66 456.961 147.099 456.961 147.584C456.961 148.069 457.069 148.508 457.283 148.9C457.498 149.292 457.783 149.605 458.137 149.838C458.501 150.071 458.907 150.188 459.355 150.188C459.71 150.188 460.06 150.113 460.405 149.964C460.751 149.805 461.045 149.595 461.287 149.334L461.945 150.048C461.609 150.384 461.213 150.645 460.755 150.832C460.298 151.019 459.817 151.112 459.313 151.112ZM466.111 151.14C465.523 151.14 465.075 151 464.767 150.72C464.468 150.431 464.319 150.015 464.319 149.474V145.008H462.905V144.168H464.319V142.292L465.341 142.054V144.168H467.301V145.008H465.341V149.208C465.341 149.572 465.416 149.833 465.565 149.992C465.724 150.151 465.98 150.23 466.335 150.23C466.512 150.23 466.671 150.216 466.811 150.188C466.951 150.16 467.114 150.113 467.301 150.048V150.958C467.114 151.023 466.918 151.07 466.713 151.098C466.508 151.126 466.307 151.14 466.111 151.14ZM468.784 151V144.168H469.806V151H468.784ZM469.302 142.474C469.097 142.474 468.919 142.404 468.77 142.264C468.63 142.115 468.56 141.942 468.56 141.746C468.56 141.55 468.63 141.382 468.77 141.242C468.919 141.093 469.097 141.018 469.302 141.018C469.507 141.018 469.68 141.093 469.82 141.242C469.969 141.382 470.044 141.55 470.044 141.746C470.044 141.942 469.969 142.115 469.82 142.264C469.68 142.404 469.507 142.474 469.302 142.474ZM473.862 151L471.062 144.168H472.168L474.38 149.726L476.564 144.168H477.656L474.842 151H473.862ZM478.901 151V144.168H479.923V151H478.901ZM479.419 142.474C479.214 142.474 479.037 142.404 478.887 142.264C478.747 142.115 478.677 141.942 478.677 141.746C478.677 141.55 478.747 141.382 478.887 141.242C479.037 141.093 479.214 141.018 479.419 141.018C479.625 141.018 479.797 141.093 479.937 141.242C480.087 141.382 480.161 141.55 480.161 141.746C480.161 141.942 480.087 142.115 479.937 142.264C479.797 142.404 479.625 142.474 479.419 142.474ZM484.623 151.14C484.035 151.14 483.587 151 483.279 150.72C482.98 150.431 482.831 150.015 482.831 149.474V145.008H481.417V144.168H482.831V142.292L483.853 142.054V144.168H485.813V145.008H483.853V149.208C483.853 149.572 483.927 149.833 484.077 149.992C484.235 150.151 484.492 150.23 484.847 150.23C485.024 150.23 485.183 150.216 485.323 150.188C485.463 150.16 485.626 150.113 485.813 150.048V150.958C485.626 151.023 485.43 151.07 485.225 151.098C485.019 151.126 484.819 151.14 484.623 151.14ZM487.74 154.066C487.526 154.066 487.306 154.033 487.082 153.968V153.058C487.176 153.077 487.274 153.091 487.376 153.1C487.479 153.109 487.568 153.114 487.642 153.114C487.904 153.114 488.118 153.044 488.286 152.904C488.464 152.764 488.613 152.545 488.734 152.246L489.238 151L486.606 144.168H487.74L489.812 149.782L492.01 144.168H493.144L489.7 152.554C489.551 152.918 489.388 153.212 489.21 153.436C489.033 153.66 488.828 153.819 488.594 153.912C488.361 154.015 488.076 154.066 487.74 154.066ZM494.203 151.112C493.998 151.112 493.82 151.037 493.671 150.888C493.531 150.739 493.461 150.561 493.461 150.356C493.461 150.141 493.531 149.964 493.671 149.824C493.82 149.675 493.998 149.6 494.203 149.6C494.408 149.6 494.581 149.675 494.721 149.824C494.87 149.964 494.945 150.141 494.945 150.356C494.945 150.561 494.87 150.739 494.721 150.888C494.581 151.037 494.408 151.112 494.203 151.112ZM503.001 151V142.152H499.613V141.2H507.467V142.152H504.079V151H503.001ZM510.541 151.112C509.906 151.112 509.337 150.958 508.833 150.65C508.329 150.342 507.932 149.922 507.643 149.39C507.353 148.858 507.209 148.256 507.209 147.584C507.209 146.912 507.353 146.31 507.643 145.778C507.932 145.246 508.329 144.826 508.833 144.518C509.337 144.21 509.906 144.056 510.541 144.056C511.166 144.056 511.726 144.21 512.221 144.518C512.725 144.826 513.121 145.246 513.411 145.778C513.7 146.31 513.845 146.912 513.845 147.584C513.845 148.256 513.7 148.858 513.411 149.39C513.121 149.922 512.725 150.342 512.221 150.65C511.726 150.958 511.166 151.112 510.541 151.112ZM510.527 150.216C510.975 150.216 511.371 150.104 511.717 149.88C512.062 149.647 512.333 149.329 512.529 148.928C512.734 148.527 512.837 148.079 512.837 147.584C512.837 147.08 512.734 146.632 512.529 146.24C512.333 145.839 512.062 145.526 511.717 145.302C511.371 145.069 510.975 144.952 510.527 144.952C510.079 144.952 509.682 145.069 509.337 145.302C508.991 145.526 508.716 145.839 508.511 146.24C508.315 146.632 508.217 147.08 508.217 147.584C508.217 148.079 508.315 148.527 508.511 148.928C508.716 149.329 508.991 149.647 509.337 149.88C509.682 150.104 510.079 150.216 510.527 150.216ZM521.971 151.112C521.337 151.112 520.763 150.958 520.249 150.65C519.745 150.333 519.344 149.908 519.045 149.376C518.747 148.835 518.597 148.237 518.597 147.584C518.597 146.921 518.747 146.324 519.045 145.792C519.344 145.26 519.745 144.84 520.249 144.532C520.763 144.215 521.337 144.056 521.971 144.056C522.475 144.056 522.956 144.149 523.413 144.336C523.871 144.523 524.267 144.784 524.603 145.12L523.945 145.834C523.703 145.563 523.409 145.353 523.063 145.204C522.718 145.055 522.368 144.98 522.013 144.98C521.565 144.98 521.159 145.097 520.795 145.33C520.441 145.563 520.156 145.876 519.941 146.268C519.727 146.66 519.619 147.099 519.619 147.584C519.619 148.069 519.727 148.508 519.941 148.9C520.156 149.292 520.441 149.605 520.795 149.838C521.159 150.071 521.565 150.188 522.013 150.188C522.368 150.188 522.718 150.113 523.063 149.964C523.409 149.805 523.703 149.595 523.945 149.334L524.603 150.048C524.267 150.384 523.871 150.645 523.413 150.832C522.956 151.019 522.475 151.112 521.971 151.112ZM528.847 151.112C528.213 151.112 527.643 150.958 527.139 150.65C526.635 150.342 526.239 149.922 525.949 149.39C525.66 148.858 525.515 148.256 525.515 147.584C525.515 146.912 525.66 146.31 525.949 145.778C526.239 145.246 526.635 144.826 527.139 144.518C527.643 144.21 528.213 144.056 528.847 144.056C529.473 144.056 530.033 144.21 530.527 144.518C531.031 144.826 531.428 145.246 531.717 145.778C532.007 146.31 532.151 146.912 532.151 147.584C532.151 148.256 532.007 148.858 531.717 149.39C531.428 149.922 531.031 150.342 530.527 150.65C530.033 150.958 529.473 151.112 528.847 151.112ZM528.833 150.216C529.281 150.216 529.678 150.104 530.023 149.88C530.369 149.647 530.639 149.329 530.835 148.928C531.041 148.527 531.143 148.079 531.143 147.584C531.143 147.08 531.041 146.632 530.835 146.24C530.639 145.839 530.369 145.526 530.023 145.302C529.678 145.069 529.281 144.952 528.833 144.952C528.385 144.952 527.989 145.069 527.643 145.302C527.298 145.526 527.023 145.839 526.817 146.24C526.621 146.632 526.523 147.08 526.523 147.584C526.523 148.079 526.621 148.527 526.817 148.928C527.023 149.329 527.298 149.647 527.643 149.88C527.989 150.104 528.385 150.216 528.833 150.216ZM533.945 151V144.168H534.967V145.274C535.228 144.863 535.541 144.56 535.905 144.364C536.269 144.159 536.679 144.056 537.137 144.056C537.631 144.056 538.061 144.163 538.425 144.378C538.798 144.583 539.087 144.877 539.293 145.26C539.507 145.633 539.615 146.072 539.615 146.576V151H538.593V146.87C538.593 146.263 538.425 145.787 538.089 145.442C537.762 145.087 537.319 144.91 536.759 144.91C536.385 144.91 536.045 144.999 535.737 145.176C535.429 145.353 535.172 145.615 534.967 145.96V151H533.945ZM544.068 151.14C543.48 151.14 543.032 151 542.724 150.72C542.425 150.431 542.276 150.015 542.276 149.474V145.008H540.862V144.168H542.276V142.292L543.298 142.054V144.168H545.258V145.008H543.298V149.208C543.298 149.572 543.373 149.833 543.522 149.992C543.681 150.151 543.937 150.23 544.292 150.23C544.469 150.23 544.628 150.216 544.768 150.188C544.908 150.16 545.071 150.113 545.258 150.048V150.958C545.071 151.023 544.875 151.07 544.67 151.098C544.465 151.126 544.264 151.14 544.068 151.14ZM546.741 151V144.168H547.763V151H546.741ZM547.259 142.474C547.054 142.474 546.876 142.404 546.727 142.264C546.587 142.115 546.517 141.942 546.517 141.746C546.517 141.55 546.587 141.382 546.727 141.242C546.876 141.093 547.054 141.018 547.259 141.018C547.464 141.018 547.637 141.093 547.777 141.242C547.926 141.382 548.001 141.55 548.001 141.746C548.001 141.942 547.926 142.115 547.777 142.264C547.637 142.404 547.464 142.474 547.259 142.474ZM549.859 151V144.168H550.881V145.274C551.142 144.863 551.455 144.56 551.819 144.364C552.183 144.159 552.593 144.056 553.051 144.056C553.545 144.056 553.975 144.163 554.339 144.378C554.712 144.583 555.001 144.877 555.207 145.26C555.421 145.633 555.529 146.072 555.529 146.576V151H554.507V146.87C554.507 146.263 554.339 145.787 554.003 145.442C553.676 145.087 553.233 144.91 552.673 144.91C552.299 144.91 551.959 144.999 551.651 145.176C551.343 145.353 551.086 145.615 550.881 145.96V151H549.859ZM559.951 151.112C559.466 151.112 559.036 151.005 558.663 150.79C558.29 150.575 557.996 150.277 557.781 149.894C557.576 149.511 557.473 149.073 557.473 148.578V144.168H558.509V148.284C558.509 148.891 558.672 149.371 558.999 149.726C559.326 150.081 559.769 150.258 560.329 150.258C560.712 150.258 561.052 150.169 561.351 149.992C561.659 149.815 561.916 149.558 562.121 149.222V144.168H563.143V151H562.121V149.894C561.86 150.295 561.547 150.599 561.183 150.804C560.828 151.009 560.418 151.112 559.951 151.112ZM568.319 151.14C567.685 151.14 567.111 150.986 566.597 150.678C566.084 150.361 565.678 149.936 565.379 149.404C565.081 148.863 564.931 148.256 564.931 147.584C564.931 146.912 565.071 146.31 565.351 145.778C565.641 145.246 566.028 144.826 566.513 144.518C566.999 144.21 567.54 144.056 568.137 144.056C568.744 144.056 569.281 144.21 569.747 144.518C570.223 144.817 570.597 145.227 570.867 145.75C571.147 146.263 571.287 146.847 571.287 147.5V147.808H565.925C565.963 148.275 566.089 148.695 566.303 149.068C566.527 149.432 566.817 149.721 567.171 149.936C567.535 150.141 567.932 150.244 568.361 150.244C568.716 150.244 569.057 150.183 569.383 150.062C569.719 149.931 570.004 149.759 570.237 149.544L570.881 150.23C570.489 150.538 570.083 150.767 569.663 150.916C569.243 151.065 568.795 151.14 568.319 151.14ZM565.953 147.08H570.279C570.233 146.669 570.107 146.305 569.901 145.988C569.705 145.661 569.453 145.405 569.145 145.218C568.847 145.031 568.511 144.938 568.137 144.938C567.764 144.938 567.423 145.031 567.115 145.218C566.807 145.395 566.551 145.647 566.345 145.974C566.149 146.291 566.019 146.66 565.953 147.08ZM572.327 153.198L573.167 149.964H574.259L573.125 153.198H572.327ZM579.445 151V140.892L580.467 140.682V151H579.445ZM585.586 151.112C584.951 151.112 584.382 150.958 583.878 150.65C583.374 150.342 582.977 149.922 582.688 149.39C582.398 148.858 582.254 148.256 582.254 147.584C582.254 146.912 582.398 146.31 582.688 145.778C582.977 145.246 583.374 144.826 583.878 144.518C584.382 144.21 584.951 144.056 585.586 144.056C586.211 144.056 586.771 144.21 587.266 144.518C587.77 144.826 588.166 145.246 588.456 145.778C588.745 146.31 588.89 146.912 588.89 147.584C588.89 148.256 588.745 148.858 588.456 149.39C588.166 149.922 587.77 150.342 587.266 150.65C586.771 150.958 586.211 151.112 585.586 151.112ZM585.572 150.216C586.02 150.216 586.416 150.104 586.762 149.88C587.107 149.647 587.378 149.329 587.574 148.928C587.779 148.527 587.882 148.079 587.882 147.584C587.882 147.08 587.779 146.632 587.574 146.24C587.378 145.839 587.107 145.526 586.762 145.302C586.416 145.069 586.02 144.952 585.572 144.952C585.124 144.952 584.727 145.069 584.382 145.302C584.036 145.526 583.761 145.839 583.556 146.24C583.36 146.632 583.262 147.08 583.262 147.584C583.262 148.079 583.36 148.527 583.556 148.928C583.761 149.329 584.036 149.647 584.382 149.88C584.727 150.104 585.124 150.216 585.572 150.216ZM593.847 154.066C593.389 154.066 592.927 154.001 592.461 153.87C592.003 153.749 591.579 153.576 591.187 153.352L591.621 152.568C592.041 152.783 592.423 152.941 592.769 153.044C593.114 153.147 593.459 153.198 593.805 153.198C594.43 153.198 594.901 153.049 595.219 152.75C595.545 152.451 595.709 152.017 595.709 151.448V150.076C595.447 150.403 595.13 150.655 594.757 150.832C594.383 151 593.973 151.084 593.525 151.084C592.937 151.084 592.405 150.93 591.929 150.622C591.453 150.305 591.075 149.885 590.795 149.362C590.515 148.83 590.375 148.237 590.375 147.584C590.375 146.931 590.515 146.343 590.795 145.82C591.084 145.288 591.471 144.868 591.957 144.56C592.442 144.243 592.983 144.084 593.581 144.084C594.01 144.084 594.407 144.168 594.771 144.336C595.135 144.495 595.452 144.733 595.723 145.05V144.168H596.731V151.434C596.731 152.283 596.483 152.932 595.989 153.38C595.494 153.837 594.78 154.066 593.847 154.066ZM593.777 150.202C594.178 150.202 594.547 150.123 594.883 149.964C595.219 149.796 595.494 149.567 595.709 149.278V145.904C595.485 145.615 595.2 145.391 594.855 145.232C594.519 145.064 594.159 144.98 593.777 144.98C593.319 144.98 592.909 145.092 592.545 145.316C592.19 145.54 591.905 145.848 591.691 146.24C591.485 146.632 591.383 147.08 591.383 147.584C591.383 148.079 591.485 148.527 591.691 148.928C591.905 149.32 592.19 149.633 592.545 149.866C592.909 150.09 593.319 150.202 593.777 150.202ZM602.099 151V140.99L603.121 140.78V145.106C603.382 144.779 603.699 144.527 604.073 144.35C604.446 144.173 604.861 144.084 605.319 144.084C605.916 144.084 606.448 144.243 606.915 144.56C607.391 144.868 607.769 145.288 608.049 145.82C608.329 146.343 608.469 146.931 608.469 147.584C608.469 148.237 608.324 148.83 608.035 149.362C607.755 149.894 607.372 150.319 606.887 150.636C606.411 150.944 605.869 151.098 605.263 151.098C604.833 151.098 604.432 151.014 604.059 150.846C603.695 150.669 603.377 150.421 603.107 150.104V151H602.099ZM605.067 150.216C605.524 150.216 605.93 150.104 606.285 149.88C606.649 149.647 606.933 149.334 607.139 148.942C607.353 148.541 607.461 148.093 607.461 147.598C607.461 147.094 607.353 146.646 607.139 146.254C606.933 145.862 606.649 145.554 606.285 145.33C605.93 145.097 605.524 144.98 605.067 144.98C604.665 144.98 604.292 145.064 603.947 145.232C603.611 145.391 603.335 145.619 603.121 145.918V149.264C603.345 149.563 603.625 149.796 603.961 149.964C604.306 150.132 604.675 150.216 605.067 150.216ZM612.443 151.126C611.958 151.126 611.529 151.037 611.155 150.86C610.782 150.683 610.488 150.44 610.273 150.132C610.068 149.815 609.965 149.451 609.965 149.04C609.965 148.629 610.073 148.275 610.287 147.976C610.502 147.668 610.801 147.43 611.183 147.262C611.566 147.094 612.014 147.01 612.527 147.01C612.919 147.01 613.288 147.052 613.633 147.136C613.988 147.22 614.315 147.355 614.613 147.542V146.604C614.613 146.044 614.464 145.624 614.165 145.344C613.867 145.055 613.428 144.91 612.849 144.91C612.532 144.91 612.205 144.957 611.869 145.05C611.543 145.143 611.179 145.293 610.777 145.498L610.399 144.714C611.314 144.275 612.173 144.056 612.975 144.056C613.825 144.056 614.478 144.266 614.935 144.686C615.393 145.097 615.621 145.689 615.621 146.464V151H614.613V150.202C614.315 150.51 613.983 150.743 613.619 150.902C613.255 151.051 612.863 151.126 612.443 151.126ZM610.945 149.012C610.945 149.413 611.099 149.735 611.407 149.978C611.725 150.221 612.14 150.342 612.653 150.342C613.036 150.342 613.386 150.277 613.703 150.146C614.03 150.015 614.333 149.819 614.613 149.558V148.242C614.324 148.074 614.025 147.953 613.717 147.878C613.409 147.794 613.064 147.752 612.681 147.752C612.159 147.752 611.739 147.869 611.421 148.102C611.104 148.326 610.945 148.629 610.945 149.012ZM620.764 151.112C620.13 151.112 619.556 150.958 619.042 150.65C618.538 150.333 618.137 149.908 617.838 149.376C617.54 148.835 617.39 148.237 617.39 147.584C617.39 146.921 617.54 146.324 617.838 145.792C618.137 145.26 618.538 144.84 619.042 144.532C619.556 144.215 620.13 144.056 620.764 144.056C621.268 144.056 621.749 144.149 622.206 144.336C622.664 144.523 623.06 144.784 623.396 145.12L622.738 145.834C622.496 145.563 622.202 145.353 621.856 145.204C621.511 145.055 621.161 144.98 620.806 144.98C620.358 144.98 619.952 145.097 619.588 145.33C619.234 145.563 618.949 145.876 618.734 146.268C618.52 146.66 618.412 147.099 618.412 147.584C618.412 148.069 618.52 148.508 618.734 148.9C618.949 149.292 619.234 149.605 619.588 149.838C619.952 150.071 620.358 150.188 620.806 150.188C621.161 150.188 621.511 150.113 621.856 149.964C622.202 149.805 622.496 149.595 622.738 149.334L623.396 150.048C623.06 150.384 622.664 150.645 622.206 150.832C621.749 151.019 621.268 151.112 620.764 151.112ZM624.821 151V140.892L625.843 140.682V147.234L629.091 144.168H630.323L626.851 147.416L630.477 151H629.133L625.843 147.738V151H624.821ZM634.925 151V144.168H635.947V151H634.925ZM635.443 142.474C635.237 142.474 635.06 142.404 634.911 142.264C634.771 142.115 634.701 141.942 634.701 141.746C634.701 141.55 634.771 141.382 634.911 141.242C635.06 141.093 635.237 141.018 635.443 141.018C635.648 141.018 635.821 141.093 635.961 141.242C636.11 141.382 636.185 141.55 636.185 141.746C636.185 141.942 636.11 142.115 635.961 142.264C635.821 142.404 635.648 142.474 635.443 142.474ZM638.042 151V144.168H639.064V145.274C639.326 144.863 639.638 144.56 640.002 144.364C640.366 144.159 640.777 144.056 641.234 144.056C641.729 144.056 642.158 144.163 642.522 144.378C642.896 144.583 643.185 144.877 643.39 145.26C643.605 145.633 643.712 146.072 643.712 146.576V151H642.69V146.87C642.69 146.263 642.522 145.787 642.186 145.442C641.86 145.087 641.416 144.91 640.856 144.91C640.483 144.91 640.142 144.999 639.834 145.176C639.526 145.353 639.27 145.615 639.064 145.96V151H638.042ZM648.166 151.14C647.578 151.14 647.13 151 646.822 150.72C646.523 150.431 646.374 150.015 646.374 149.474V145.008H644.96V144.168H646.374V142.292L647.396 142.054V144.168H649.356V145.008H647.396V149.208C647.396 149.572 647.47 149.833 647.62 149.992C647.778 150.151 648.035 150.23 648.39 150.23C648.567 150.23 648.726 150.216 648.866 150.188C649.006 150.16 649.169 150.113 649.356 150.048V150.958C649.169 151.023 648.973 151.07 648.768 151.098C648.562 151.126 648.362 151.14 648.166 151.14ZM653.74 151.112C653.105 151.112 652.536 150.958 652.032 150.65C651.528 150.342 651.131 149.922 650.842 149.39C650.553 148.858 650.408 148.256 650.408 147.584C650.408 146.912 650.553 146.31 650.842 145.778C651.131 145.246 651.528 144.826 652.032 144.518C652.536 144.21 653.105 144.056 653.74 144.056C654.365 144.056 654.925 144.21 655.42 144.518C655.924 144.826 656.321 145.246 656.61 145.778C656.899 146.31 657.044 146.912 657.044 147.584C657.044 148.256 656.899 148.858 656.61 149.39C656.321 149.922 655.924 150.342 655.42 150.65C654.925 150.958 654.365 151.112 653.74 151.112ZM653.726 150.216C654.174 150.216 654.571 150.104 654.916 149.88C655.261 149.647 655.532 149.329 655.728 148.928C655.933 148.527 656.036 148.079 656.036 147.584C656.036 147.08 655.933 146.632 655.728 146.24C655.532 145.839 655.261 145.526 654.916 145.302C654.571 145.069 654.174 144.952 653.726 144.952C653.278 144.952 652.881 145.069 652.536 145.302C652.191 145.526 651.915 145.839 651.71 146.24C651.514 146.632 651.416 147.08 651.416 147.584C651.416 148.079 651.514 148.527 651.71 148.928C651.915 149.329 652.191 149.647 652.536 149.88C652.881 150.104 653.278 150.216 653.726 150.216ZM662.399 154.066C662.184 154.066 661.965 154.033 661.741 153.968V153.058C661.834 153.077 661.932 153.091 662.035 153.1C662.137 153.109 662.226 153.114 662.301 153.114C662.562 153.114 662.777 153.044 662.945 152.904C663.122 152.764 663.271 152.545 663.393 152.246L663.897 151L661.265 144.168H662.399L664.471 149.782L666.669 144.168H667.803L664.359 152.554C664.209 152.918 664.046 153.212 663.869 153.436C663.691 153.66 663.486 153.819 663.253 153.912C663.019 154.015 662.735 154.066 662.399 154.066ZM671.896 151.112C671.262 151.112 670.692 150.958 670.188 150.65C669.684 150.342 669.288 149.922 668.998 149.39C668.709 148.858 668.564 148.256 668.564 147.584C668.564 146.912 668.709 146.31 668.998 145.778C669.288 145.246 669.684 144.826 670.188 144.518C670.692 144.21 671.262 144.056 671.896 144.056C672.522 144.056 673.082 144.21 673.576 144.518C674.08 144.826 674.477 145.246 674.766 145.778C675.056 146.31 675.2 146.912 675.2 147.584C675.2 148.256 675.056 148.858 674.766 149.39C674.477 149.922 674.08 150.342 673.576 150.65C673.082 150.958 672.522 151.112 671.896 151.112ZM671.882 150.216C672.33 150.216 672.727 150.104 673.072 149.88C673.418 149.647 673.688 149.329 673.884 148.928C674.09 148.527 674.192 148.079 674.192 147.584C674.192 147.08 674.09 146.632 673.884 146.24C673.688 145.839 673.418 145.526 673.072 145.302C672.727 145.069 672.33 144.952 671.882 144.952C671.434 144.952 671.038 145.069 670.692 145.302C670.347 145.526 670.072 145.839 669.866 146.24C669.67 146.632 669.572 147.08 669.572 147.584C669.572 148.079 669.67 148.527 669.866 148.928C670.072 149.329 670.347 149.647 670.692 149.88C671.038 150.104 671.434 150.216 671.882 150.216ZM679.429 151.112C678.944 151.112 678.515 151.005 678.141 150.79C677.768 150.575 677.474 150.277 677.259 149.894C677.054 149.511 676.951 149.073 676.951 148.578V144.168H677.987V148.284C677.987 148.891 678.151 149.371 678.477 149.726C678.804 150.081 679.247 150.258 679.807 150.258C680.19 150.258 680.531 150.169 680.829 149.992C681.137 149.815 681.394 149.558 681.599 149.222V144.168H682.621V151H681.599V149.894C681.338 150.295 681.025 150.599 680.661 150.804C680.307 151.009 679.896 151.112 679.429 151.112ZM684.718 151V144.168H685.74V145.568C685.917 145.092 686.169 144.723 686.496 144.462C686.832 144.191 687.215 144.056 687.644 144.056C687.765 144.056 687.877 144.065 687.98 144.084C688.083 144.093 688.185 144.117 688.288 144.154V145.078C688.176 145.041 688.055 145.013 687.924 144.994C687.803 144.966 687.686 144.952 687.574 144.952C687.154 144.952 686.785 145.073 686.468 145.316C686.16 145.559 685.917 145.899 685.74 146.338V151H684.718ZM695.021 151.126C694.536 151.126 694.107 151.037 693.733 150.86C693.36 150.683 693.066 150.44 692.851 150.132C692.646 149.815 692.543 149.451 692.543 149.04C692.543 148.629 692.651 148.275 692.865 147.976C693.08 147.668 693.379 147.43 693.761 147.262C694.144 147.094 694.592 147.01 695.105 147.01C695.497 147.01 695.866 147.052 696.211 147.136C696.566 147.22 696.893 147.355 697.191 147.542V146.604C697.191 146.044 697.042 145.624 696.743 145.344C696.445 145.055 696.006 144.91 695.427 144.91C695.11 144.91 694.783 144.957 694.447 145.05C694.121 145.143 693.757 145.293 693.355 145.498L692.977 144.714C693.892 144.275 694.751 144.056 695.553 144.056C696.403 144.056 697.056 144.266 697.513 144.686C697.971 145.097 698.199 145.689 698.199 146.464V151H697.191V150.202C696.893 150.51 696.561 150.743 696.197 150.902C695.833 151.051 695.441 151.126 695.021 151.126ZM693.523 149.012C693.523 149.413 693.677 149.735 693.985 149.978C694.303 150.221 694.718 150.342 695.231 150.342C695.614 150.342 695.964 150.277 696.281 150.146C696.608 150.015 696.911 149.819 697.191 149.558V148.242C696.902 148.074 696.603 147.953 696.295 147.878C695.987 147.794 695.642 147.752 695.259 147.752C694.737 147.752 694.317 147.869 693.999 148.102C693.682 148.326 693.523 148.629 693.523 149.012ZM703.343 151.112C702.708 151.112 702.134 150.958 701.621 150.65C701.117 150.333 700.715 149.908 700.417 149.376C700.118 148.835 699.969 148.237 699.969 147.584C699.969 146.921 700.118 146.324 700.417 145.792C700.715 145.26 701.117 144.84 701.621 144.532C702.134 144.215 702.708 144.056 703.343 144.056C703.847 144.056 704.327 144.149 704.785 144.336C705.242 144.523 705.639 144.784 705.975 145.12L705.317 145.834C705.074 145.563 704.78 145.353 704.435 145.204C704.089 145.055 703.739 144.98 703.385 144.98C702.937 144.98 702.531 145.097 702.167 145.33C701.812 145.563 701.527 145.876 701.313 146.268C701.098 146.66 700.991 147.099 700.991 147.584C700.991 148.069 701.098 148.508 701.313 148.9C701.527 149.292 701.812 149.605 702.167 149.838C702.531 150.071 702.937 150.188 703.385 150.188C703.739 150.188 704.089 150.113 704.435 149.964C704.78 149.805 705.074 149.595 705.317 149.334L705.975 150.048C705.639 150.384 705.242 150.645 704.785 150.832C704.327 151.019 703.847 151.112 703.343 151.112ZM710.261 151.112C709.626 151.112 709.052 150.958 708.539 150.65C708.035 150.333 707.633 149.908 707.335 149.376C707.036 148.835 706.887 148.237 706.887 147.584C706.887 146.921 707.036 146.324 707.335 145.792C707.633 145.26 708.035 144.84 708.539 144.532C709.052 144.215 709.626 144.056 710.261 144.056C710.765 144.056 711.245 144.149 711.703 144.336C712.16 144.523 712.557 144.784 712.893 145.12L712.235 145.834C711.992 145.563 711.698 145.353 711.353 145.204C711.007 145.055 710.657 144.98 710.303 144.98C709.855 144.98 709.449 145.097 709.085 145.33C708.73 145.563 708.445 145.876 708.231 146.268C708.016 146.66 707.909 147.099 707.909 147.584C707.909 148.069 708.016 148.508 708.231 148.9C708.445 149.292 708.73 149.605 709.085 149.838C709.449 150.071 709.855 150.188 710.303 150.188C710.657 150.188 711.007 150.113 711.353 149.964C711.698 149.805 711.992 149.595 712.235 149.334L712.893 150.048C712.557 150.384 712.16 150.645 711.703 150.832C711.245 151.019 710.765 151.112 710.261 151.112ZM717.137 151.112C716.502 151.112 715.933 150.958 715.429 150.65C714.925 150.342 714.528 149.922 714.239 149.39C713.949 148.858 713.805 148.256 713.805 147.584C713.805 146.912 713.949 146.31 714.239 145.778C714.528 145.246 714.925 144.826 715.429 144.518C715.933 144.21 716.502 144.056 717.137 144.056C717.762 144.056 718.322 144.21 718.817 144.518C719.321 144.826 719.717 145.246 720.007 145.778C720.296 146.31 720.441 146.912 720.441 147.584C720.441 148.256 720.296 148.858 720.007 149.39C719.717 149.922 719.321 150.342 718.817 150.65C718.322 150.958 717.762 151.112 717.137 151.112ZM717.123 150.216C717.571 150.216 717.967 150.104 718.313 149.88C718.658 149.647 718.929 149.329 719.125 148.928C719.33 148.527 719.433 148.079 719.433 147.584C719.433 147.08 719.33 146.632 719.125 146.24C718.929 145.839 718.658 145.526 718.313 145.302C717.967 145.069 717.571 144.952 717.123 144.952C716.675 144.952 716.278 145.069 715.933 145.302C715.587 145.526 715.312 145.839 715.107 146.24C714.911 146.632 714.812 147.08 714.812 147.584C714.812 148.079 714.911 148.527 715.107 148.928C715.312 149.329 715.587 149.647 715.933 149.88C716.278 150.104 716.675 150.216 717.123 150.216ZM724.67 151.112C724.184 151.112 723.755 151.005 723.382 150.79C723.008 150.575 722.714 150.277 722.5 149.894C722.294 149.511 722.192 149.073 722.192 148.578V144.168H723.228V148.284C723.228 148.891 723.391 149.371 723.718 149.726C724.044 150.081 724.488 150.258 725.048 150.258C725.43 150.258 725.771 150.169 726.07 149.992C726.378 149.815 726.634 149.558 726.84 149.222V144.168H727.862V151H726.84V149.894C726.578 150.295 726.266 150.599 725.902 150.804C725.547 151.009 725.136 151.112 724.67 151.112ZM729.958 151V144.168H730.98V145.274C731.242 144.863 731.554 144.56 731.918 144.364C732.282 144.159 732.693 144.056 733.15 144.056C733.645 144.056 734.074 144.163 734.438 144.378C734.812 144.583 735.101 144.877 735.306 145.26C735.521 145.633 735.628 146.072 735.628 146.576V151H734.606V146.87C734.606 146.263 734.438 145.787 734.102 145.442C733.776 145.087 733.332 144.91 732.772 144.91C732.399 144.91 732.058 144.999 731.75 145.176C731.442 145.353 731.186 145.615 730.98 145.96V151H729.958ZM740.082 151.14C739.494 151.14 739.046 151 738.738 150.72C738.439 150.431 738.29 150.015 738.29 149.474V145.008H736.876V144.168H738.29V142.292L739.312 142.054V144.168H741.272V145.008H739.312V149.208C739.312 149.572 739.386 149.833 739.536 149.992C739.694 150.151 739.951 150.23 740.306 150.23C740.483 150.23 740.642 150.216 740.782 150.188C740.922 150.16 741.085 150.113 741.272 150.048V150.958C741.085 151.023 740.889 151.07 740.684 151.098C740.478 151.126 740.278 151.14 740.082 151.14ZM743.469 151.112C743.263 151.112 743.086 151.037 742.937 150.888C742.797 150.739 742.727 150.561 742.727 150.356C742.727 150.141 742.797 149.964 742.937 149.824C743.086 149.675 743.263 149.6 743.469 149.6C743.674 149.6 743.847 149.675 743.987 149.824C744.136 149.964 744.211 150.141 744.211 150.356C744.211 150.561 744.136 150.739 743.987 150.888C743.847 151.037 743.674 151.112 743.469 151.112Z" fill="#151515"/>
<path d="M437 199.5C437 189.283 445.283 181 455.5 181H593.5C603.717 181 612 189.283 612 199.5C612 209.717 603.717 218 593.5 218H455.5C445.283 218 437 209.717 437 199.5Z" fill="#0066CC"/>
<path d="M462.246 204V194.2H466.264C466.889 194.2 467.435 194.321 467.902 194.564C468.369 194.797 468.733 195.124 468.994 195.544C469.255 195.964 469.386 196.459 469.386 197.028C469.386 197.681 469.204 198.241 468.84 198.708C468.476 199.165 467.977 199.487 467.342 199.674L469.428 204H468.238L466.25 199.814H463.324V204H462.246ZM463.324 198.918H466.18C466.824 198.918 467.337 198.75 467.72 198.414C468.112 198.069 468.308 197.611 468.308 197.042C468.308 196.463 468.112 196.006 467.72 195.67C467.337 195.325 466.824 195.152 466.18 195.152H463.324V198.918ZM473.839 204.14C473.204 204.14 472.63 203.986 472.117 203.678C471.604 203.361 471.198 202.936 470.899 202.404C470.6 201.863 470.451 201.256 470.451 200.584C470.451 199.912 470.591 199.31 470.871 198.778C471.16 198.246 471.548 197.826 472.033 197.518C472.518 197.21 473.06 197.056 473.657 197.056C474.264 197.056 474.8 197.21 475.267 197.518C475.743 197.817 476.116 198.227 476.387 198.75C476.667 199.263 476.807 199.847 476.807 200.5V200.808H471.445C471.482 201.275 471.608 201.695 471.823 202.068C472.047 202.432 472.336 202.721 472.691 202.936C473.055 203.141 473.452 203.244 473.881 203.244C474.236 203.244 474.576 203.183 474.903 203.062C475.239 202.931 475.524 202.759 475.757 202.544L476.401 203.23C476.009 203.538 475.603 203.767 475.183 203.916C474.763 204.065 474.315 204.14 473.839 204.14ZM471.473 200.08H475.799C475.752 199.669 475.626 199.305 475.421 198.988C475.225 198.661 474.973 198.405 474.665 198.218C474.366 198.031 474.03 197.938 473.657 197.938C473.284 197.938 472.943 198.031 472.635 198.218C472.327 198.395 472.07 198.647 471.865 198.974C471.669 199.291 471.538 199.66 471.473 200.08ZM480.951 204.14C480.363 204.14 479.915 204 479.607 203.72C479.308 203.431 479.159 203.015 479.159 202.474V198.008H477.745V197.168H479.159V195.292L480.181 195.054V197.168H482.141V198.008H480.181V202.208C480.181 202.572 480.256 202.833 480.405 202.992C480.564 203.151 480.82 203.23 481.175 203.23C481.352 203.23 481.511 203.216 481.651 203.188C481.791 203.16 481.954 203.113 482.141 203.048V203.958C481.954 204.023 481.758 204.07 481.553 204.098C481.348 204.126 481.147 204.14 480.951 204.14ZM486.074 204.112C485.589 204.112 485.159 204.005 484.786 203.79C484.413 203.575 484.119 203.277 483.904 202.894C483.699 202.511 483.596 202.073 483.596 201.578V197.168H484.632V201.284C484.632 201.891 484.795 202.371 485.122 202.726C485.449 203.081 485.892 203.258 486.452 203.258C486.835 203.258 487.175 203.169 487.474 202.992C487.782 202.815 488.039 202.558 488.244 202.222V197.168H489.266V204H488.244V202.894C487.983 203.295 487.67 203.599 487.306 203.804C486.951 204.009 486.541 204.112 486.074 204.112ZM491.363 204V197.168H492.385V198.568C492.562 198.092 492.814 197.723 493.141 197.462C493.477 197.191 493.859 197.056 494.289 197.056C494.41 197.056 494.522 197.065 494.625 197.084C494.727 197.093 494.83 197.117 494.933 197.154V198.078C494.821 198.041 494.699 198.013 494.569 197.994C494.447 197.966 494.331 197.952 494.219 197.952C493.799 197.952 493.43 198.073 493.113 198.316C492.805 198.559 492.562 198.899 492.385 199.338V204H491.363ZM496.284 204V197.168H497.306V198.274C497.568 197.863 497.88 197.56 498.244 197.364C498.608 197.159 499.019 197.056 499.476 197.056C499.971 197.056 500.4 197.163 500.764 197.378C501.138 197.583 501.427 197.877 501.632 198.26C501.847 198.633 501.954 199.072 501.954 199.576V204H500.932V199.87C500.932 199.263 500.764 198.787 500.428 198.442C500.102 198.087 499.658 197.91 499.098 197.91C498.725 197.91 498.384 197.999 498.076 198.176C497.768 198.353 497.512 198.615 497.306 198.96V204H496.284ZM509.881 204.14C509.293 204.14 508.845 204 508.537 203.72C508.238 203.431 508.089 203.015 508.089 202.474V198.008H506.675V197.168H508.089V195.292L509.111 195.054V197.168H511.071V198.008H509.111V202.208C509.111 202.572 509.185 202.833 509.335 202.992C509.493 203.151 509.75 203.23 510.105 203.23C510.282 203.23 510.441 203.216 510.581 203.188C510.721 203.16 510.884 203.113 511.071 203.048V203.958C510.884 204.023 510.688 204.07 510.483 204.098C510.277 204.126 510.077 204.14 509.881 204.14ZM515.455 204.112C514.82 204.112 514.251 203.958 513.747 203.65C513.243 203.342 512.846 202.922 512.557 202.39C512.268 201.858 512.123 201.256 512.123 200.584C512.123 199.912 512.268 199.31 512.557 198.778C512.846 198.246 513.243 197.826 513.747 197.518C514.251 197.21 514.82 197.056 515.455 197.056C516.08 197.056 516.64 197.21 517.135 197.518C517.639 197.826 518.036 198.246 518.325 198.778C518.614 199.31 518.759 199.912 518.759 200.584C518.759 201.256 518.614 201.858 518.325 202.39C518.036 202.922 517.639 203.342 517.135 203.65C516.64 203.958 516.08 204.112 515.455 204.112ZM515.441 203.216C515.889 203.216 516.286 203.104 516.631 202.88C516.976 202.647 517.247 202.329 517.443 201.928C517.648 201.527 517.751 201.079 517.751 200.584C517.751 200.08 517.648 199.632 517.443 199.24C517.247 198.839 516.976 198.526 516.631 198.302C516.286 198.069 515.889 197.952 515.441 197.952C514.993 197.952 514.596 198.069 514.251 198.302C513.906 198.526 513.63 198.839 513.425 199.24C513.229 199.632 513.131 200.08 513.131 200.584C513.131 201.079 513.229 201.527 513.425 201.928C513.63 202.329 513.906 202.647 514.251 202.88C514.596 203.104 514.993 203.216 515.441 203.216ZM523.82 204V193.892L524.842 193.682V204H523.82ZM529.961 204.112C529.326 204.112 528.757 203.958 528.253 203.65C527.749 203.342 527.352 202.922 527.063 202.39C526.773 201.858 526.629 201.256 526.629 200.584C526.629 199.912 526.773 199.31 527.063 198.778C527.352 198.246 527.749 197.826 528.253 197.518C528.757 197.21 529.326 197.056 529.961 197.056C530.586 197.056 531.146 197.21 531.641 197.518C532.145 197.826 532.541 198.246 532.831 198.778C533.12 199.31 533.265 199.912 533.265 200.584C533.265 201.256 533.12 201.858 532.831 202.39C532.541 202.922 532.145 203.342 531.641 203.65C531.146 203.958 530.586 204.112 529.961 204.112ZM529.947 203.216C530.395 203.216 530.791 203.104 531.137 202.88C531.482 202.647 531.753 202.329 531.949 201.928C532.154 201.527 532.257 201.079 532.257 200.584C532.257 200.08 532.154 199.632 531.949 199.24C531.753 198.839 531.482 198.526 531.137 198.302C530.791 198.069 530.395 197.952 529.947 197.952C529.499 197.952 529.102 198.069 528.757 198.302C528.411 198.526 528.136 198.839 527.931 199.24C527.735 199.632 527.637 200.08 527.637 200.584C527.637 201.079 527.735 201.527 527.931 201.928C528.136 202.329 528.411 202.647 528.757 202.88C529.102 203.104 529.499 203.216 529.947 203.216ZM538.222 207.066C537.764 207.066 537.302 207.001 536.836 206.87C536.378 206.749 535.954 206.576 535.562 206.352L535.996 205.568C536.416 205.783 536.798 205.941 537.144 206.044C537.489 206.147 537.834 206.198 538.18 206.198C538.805 206.198 539.276 206.049 539.594 205.75C539.92 205.451 540.084 205.017 540.084 204.448V203.076C539.822 203.403 539.505 203.655 539.132 203.832C538.758 204 538.348 204.084 537.9 204.084C537.312 204.084 536.78 203.93 536.304 203.622C535.828 203.305 535.45 202.885 535.17 202.362C534.89 201.83 534.75 201.237 534.75 200.584C534.75 199.931 534.89 199.343 535.17 198.82C535.459 198.288 535.846 197.868 536.332 197.56C536.817 197.243 537.358 197.084 537.956 197.084C538.385 197.084 538.782 197.168 539.146 197.336C539.51 197.495 539.827 197.733 540.098 198.05V197.168H541.106V204.434C541.106 205.283 540.858 205.932 540.364 206.38C539.869 206.837 539.155 207.066 538.222 207.066ZM538.152 203.202C538.553 203.202 538.922 203.123 539.258 202.964C539.594 202.796 539.869 202.567 540.084 202.278V198.904C539.86 198.615 539.575 198.391 539.23 198.232C538.894 198.064 538.534 197.98 538.152 197.98C537.694 197.98 537.284 198.092 536.92 198.316C536.565 198.54 536.28 198.848 536.066 199.24C535.86 199.632 535.758 200.08 535.758 200.584C535.758 201.079 535.86 201.527 536.066 201.928C536.28 202.32 536.565 202.633 536.92 202.866C537.284 203.09 537.694 203.202 538.152 203.202ZM543.192 204V197.168H544.214V204H543.192ZM543.71 195.474C543.505 195.474 543.328 195.404 543.178 195.264C543.038 195.115 542.968 194.942 542.968 194.746C542.968 194.55 543.038 194.382 543.178 194.242C543.328 194.093 543.505 194.018 543.71 194.018C543.916 194.018 544.088 194.093 544.228 194.242C544.378 194.382 544.452 194.55 544.452 194.746C544.452 194.942 544.378 195.115 544.228 195.264C544.088 195.404 543.916 195.474 543.71 195.474ZM546.31 204V197.168H547.332V198.274C547.593 197.863 547.906 197.56 548.27 197.364C548.634 197.159 549.044 197.056 549.502 197.056C549.996 197.056 550.426 197.163 550.79 197.378C551.163 197.583 551.452 197.877 551.658 198.26C551.872 198.633 551.98 199.072 551.98 199.576V204H550.958V199.87C550.958 199.263 550.79 198.787 550.454 198.442C550.127 198.087 549.684 197.91 549.124 197.91C548.75 197.91 548.41 197.999 548.102 198.176C547.794 198.353 547.537 198.615 547.332 198.96V204H546.31ZM557.302 206.926V197.168H558.31V198.148C558.571 197.803 558.889 197.541 559.262 197.364C559.645 197.177 560.065 197.084 560.522 197.084C561.119 197.084 561.651 197.243 562.118 197.56C562.594 197.868 562.972 198.288 563.252 198.82C563.532 199.343 563.672 199.931 563.672 200.584C563.672 201.237 563.527 201.83 563.238 202.362C562.958 202.894 562.575 203.319 562.09 203.636C561.614 203.944 561.073 204.098 560.466 204.098C560.037 204.098 559.64 204.019 559.276 203.86C558.912 203.692 558.595 203.454 558.324 203.146V206.926H557.302ZM560.27 203.216C560.727 203.216 561.133 203.104 561.488 202.88C561.852 202.647 562.137 202.334 562.342 201.942C562.557 201.541 562.664 201.093 562.664 200.598C562.664 200.094 562.557 199.646 562.342 199.254C562.137 198.862 561.852 198.554 561.488 198.33C561.133 198.097 560.727 197.98 560.27 197.98C559.869 197.98 559.495 198.064 559.15 198.232C558.814 198.391 558.539 198.619 558.324 198.918V202.264C558.548 202.563 558.828 202.796 559.164 202.964C559.509 203.132 559.878 203.216 560.27 203.216ZM567.646 204.126C567.161 204.126 566.732 204.037 566.358 203.86C565.985 203.683 565.691 203.44 565.476 203.132C565.271 202.815 565.168 202.451 565.168 202.04C565.168 201.629 565.276 201.275 565.49 200.976C565.705 200.668 566.004 200.43 566.386 200.262C566.769 200.094 567.217 200.01 567.73 200.01C568.122 200.01 568.491 200.052 568.836 200.136C569.191 200.22 569.518 200.355 569.816 200.542V199.604C569.816 199.044 569.667 198.624 569.368 198.344C569.07 198.055 568.631 197.91 568.052 197.91C567.735 197.91 567.408 197.957 567.072 198.05C566.746 198.143 566.382 198.293 565.98 198.498L565.602 197.714C566.517 197.275 567.376 197.056 568.178 197.056C569.028 197.056 569.681 197.266 570.138 197.686C570.596 198.097 570.824 198.689 570.824 199.464V204H569.816V203.202C569.518 203.51 569.186 203.743 568.822 203.902C568.458 204.051 568.066 204.126 567.646 204.126ZM566.148 202.012C566.148 202.413 566.302 202.735 566.61 202.978C566.928 203.221 567.343 203.342 567.856 203.342C568.239 203.342 568.589 203.277 568.906 203.146C569.233 203.015 569.536 202.819 569.816 202.558V201.242C569.527 201.074 569.228 200.953 568.92 200.878C568.612 200.794 568.267 200.752 567.884 200.752C567.362 200.752 566.942 200.869 566.624 201.102C566.307 201.326 566.148 201.629 566.148 202.012ZM576.066 207.066C575.608 207.066 575.146 207.001 574.68 206.87C574.222 206.749 573.798 206.576 573.406 206.352L573.84 205.568C574.26 205.783 574.642 205.941 574.988 206.044C575.333 206.147 575.678 206.198 576.024 206.198C576.649 206.198 577.12 206.049 577.438 205.75C577.764 205.451 577.928 205.017 577.928 204.448V203.076C577.666 203.403 577.349 203.655 576.976 203.832C576.602 204 576.192 204.084 575.744 204.084C575.156 204.084 574.624 203.93 574.148 203.622C573.672 203.305 573.294 202.885 573.014 202.362C572.734 201.83 572.594 201.237 572.594 200.584C572.594 199.931 572.734 199.343 573.014 198.82C573.303 198.288 573.69 197.868 574.176 197.56C574.661 197.243 575.202 197.084 575.8 197.084C576.229 197.084 576.626 197.168 576.99 197.336C577.354 197.495 577.671 197.733 577.942 198.05V197.168H578.95V204.434C578.95 205.283 578.702 205.932 578.208 206.38C577.713 206.837 576.999 207.066 576.066 207.066ZM575.996 203.202C576.397 203.202 576.766 203.123 577.102 202.964C577.438 202.796 577.713 202.567 577.928 202.278V198.904C577.704 198.615 577.419 198.391 577.074 198.232C576.738 198.064 576.378 197.98 575.996 197.98C575.538 197.98 575.128 198.092 574.764 198.316C574.409 198.54 574.124 198.848 573.91 199.24C573.704 199.632 573.602 200.08 573.602 200.584C573.602 201.079 573.704 201.527 573.91 201.928C574.124 202.32 574.409 202.633 574.764 202.866C575.128 203.09 575.538 203.202 575.996 203.202ZM584.13 204.14C583.495 204.14 582.921 203.986 582.408 203.678C581.895 203.361 581.489 202.936 581.19 202.404C580.891 201.863 580.742 201.256 580.742 200.584C580.742 199.912 580.882 199.31 581.162 198.778C581.451 198.246 581.839 197.826 582.324 197.518C582.809 197.21 583.351 197.056 583.948 197.056C584.555 197.056 585.091 197.21 585.558 197.518C586.034 197.817 586.407 198.227 586.678 198.75C586.958 199.263 587.098 199.847 587.098 200.5V200.808H581.736C581.773 201.275 581.899 201.695 582.114 202.068C582.338 202.432 582.627 202.721 582.982 202.936C583.346 203.141 583.743 203.244 584.172 203.244C584.527 203.244 584.867 203.183 585.194 203.062C585.53 202.931 585.815 202.759 586.048 202.544L586.692 203.23C586.3 203.538 585.894 203.767 585.474 203.916C585.054 204.065 584.606 204.14 584.13 204.14ZM581.764 200.08H586.09C586.043 199.669 585.917 199.305 585.712 198.988C585.516 198.661 585.264 198.405 584.956 198.218C584.657 198.031 584.321 197.938 583.948 197.938C583.575 197.938 583.234 198.031 582.926 198.218C582.618 198.395 582.361 198.647 582.156 198.974C581.96 199.291 581.829 199.66 581.764 200.08Z" fill="white"/>
</g>
</g>
<defs>
<filter id="filter0_d_3422_9444" x="385" y="31" width="500" height="249" filterUnits="userSpaceOnUse" color-interpolation-filters="sRGB">
<feFlood flood-opacity="0" result="BackgroundImageFix"/>
<feColorMatrix in="SourceAlpha" type="matrix" values="0 0 0 0 0 0 0 0 0 0 0 0 0 0 0 0 0 0 127 0" result="hardAlpha"/>
<feOffset dy="10"/>
<feGaussianBlur stdDeviation="10"/>
<feColorMatrix type="matrix" values="0 0 0 0 0.160784 0 0 0 0 0.160784 0 0 0 0 0.160784 0 0 0 0.15 0"/>
<feBlend mode="normal" in2="BackgroundImageFix" result="effect1_dropShadow_3422_9444"/>
<feBlend mode="normal" in="SourceGraphic" in2="effect1_dropShadow_3422_9444" result="shape"/>
</filter>
<clipPath id="clip0_3422_9444">
<rect width="1270" height="292" fill="white"/>
</clipPath>
</defs>
</svg>
